<svg id="Layer_1" data-name="Layer 1" xmlns="http://www.w3.org/2000/svg" viewBox="0 0 500.88 127.64"><defs><style>.cls-1{fill:#1928eb;}</style></defs><title>title</title><path class="cls-1" d="M0,51.39a4.69,4.69,0,0,1,1.36-4,6.5,6.5,0,0,1,4-2.07,10.46,10.46,0,0,1,1.46-.1c.42,0,1,.05,1.77.14l1.57.17a26.68,26.68,0,0,1,1,4.49.32.32,0,0,1-.32.31q-.79.11-.89-.15a5.21,5.21,0,0,0-1.62-2.48,3.38,3.38,0,0,0-2.82-.94,2.74,2.74,0,0,0-2,1A2.91,2.91,0,0,0,3.06,50a3.38,3.38,0,0,0,.21.83,2.08,2.08,0,0,0,.52.73l.59.57a3.45,3.45,0,0,0,.82.54l.81.43q.21.12,1,.46a8.93,8.93,0,0,0,.9.37,10.75,10.75,0,0,0,1.07.5q.87.38,1.23.56t1,.63a4.3,4.3,0,0,1,1,.88,6.06,6.06,0,0,1,.67,1.13,5,5,0,0,1,.44,1.52A4.83,4.83,0,0,1,12,63.24a6.87,6.87,0,0,1-4.2,2.12,27.65,27.65,0,0,1-5.53-.11,25.65,25.65,0,0,1-.84-2.6,20.55,20.55,0,0,1-.5-2.08c0-.16.15-.26.44-.3.51-.07.81,0,.88.12a5.86,5.86,0,0,0,.57,1.11,8.61,8.61,0,0,0,1,1.25,3.9,3.9,0,0,0,1.54,1,4.17,4.17,0,0,0,2,.2,3.32,3.32,0,0,0,2.19-1.13,3.19,3.19,0,0,0,.59-2.6,2.59,2.59,0,0,0-.32-.95,3.38,3.38,0,0,0-.55-.74,4.31,4.31,0,0,0-.83-.61q-.54-.32-.89-.48L6.5,57l-1-.4a1.94,1.94,0,0,0-.36-.19l-1.41-.65q-.48-.24-1.25-.72a5.88,5.88,0,0,1-1.19-.94,5.59,5.59,0,0,1-.8-1.15A4.48,4.48,0,0,1,0,51.39Z"/><path class="cls-1" d="M22.23,49.92a6,6,0,0,1,3.49.53,6.23,6.23,0,0,1,3.58,4.86,7,7,0,0,1-6,7.93,6.86,6.86,0,0,1-2.15-.13c-.08,0-.1.15-.06.43l.27,2a10.67,10.67,0,0,0,.59,2.62q.06.23.84.35a4.55,4.55,0,0,0,1,.09c.06,0,.11.13.16.41a2.62,2.62,0,0,1,.06.55l-1.59.12c-.92.06-1.6.12-2,.18s-1.18.19-2.06.36l-1.56.3a1,1,0,0,1-.16-.53c0-.29,0-.43,0-.44a4.13,4.13,0,0,0,1-.36c.46-.21.71-.4.75-.56a10.67,10.67,0,0,0-.11-2.15L16.87,55.22a2.89,2.89,0,0,0-.72-1.85,1.35,1.35,0,0,0-.71-.34,3.62,3.62,0,0,0-.73-.07c-.2,0-.3,0-.3,0q-.11-.86.06-.91a22.81,22.81,0,0,0,4.28-1.41l.54-.22q.12,0,.2.6a1.49,1.49,0,0,1,0,.36,6,6,0,0,1,1.22-.87A4.28,4.28,0,0,1,22.23,49.92Zm-.5,1.66a2.24,2.24,0,0,0-1.5.77,2,2,0,0,0-.4,1.58l.8,6.07a1.83,1.83,0,0,0,1,1.44,2.89,2.89,0,0,0,1.79.35,2.8,2.8,0,0,0,2.12-1.54,5.75,5.75,0,0,0,.47-3.6,7.68,7.68,0,0,0-1.47-3.84A2.93,2.93,0,0,0,21.73,51.57Z"/><path class="cls-1" d="M36.43,48a5.5,5.5,0,0,1,2.55.22,4.7,4.7,0,0,1,1.89,1.16A7,7,0,0,1,42,51a5.13,5.13,0,0,1,.55,1.68c.06.43,0,.71-.11.84a1.68,1.68,0,0,1-.88.28l-7,.94c-.14,0-.2.09-.18.2a5.78,5.78,0,0,0,.66,2,4.1,4.1,0,0,0,1.54,1.57,3.5,3.5,0,0,0,2.32.44,8.24,8.24,0,0,0,.85-.16,4.49,4.49,0,0,0,.75-.25l.59-.27a2.6,2.6,0,0,0,.51-.34l.37-.3.54-.48a.48.48,0,0,1,.17.16.56.56,0,0,1,.13.28.91.91,0,0,1-.1.58A4.85,4.85,0,0,1,41.18,60a5.53,5.53,0,0,1-2.81,1.18,6,6,0,0,1-4.67-1.31,6.42,6.42,0,0,1-2.47-4.37,6.87,6.87,0,0,1,1.08-5.06A5.76,5.76,0,0,1,36.43,48Zm0,1.38A2.1,2.1,0,0,0,35.2,50a2.79,2.79,0,0,0-.72,1.12,5.68,5.68,0,0,0-.28,1.16,3.63,3.63,0,0,0,0,.89c0,.14.09.2.2.18l4.78-.63c.18,0,.25-.18.21-.48a3.86,3.86,0,0,0-1-2A2.13,2.13,0,0,0,36.41,49.38Z"/><path class="cls-1" d="M49.73,46.24a3.65,3.65,0,0,1,2.87.59A4.75,4.75,0,0,1,54,50l.77,5.81a1.35,1.35,0,0,0,.38.86.89.89,0,0,0,.75.22,1.86,1.86,0,0,0,1-.52c.12,0,.2.12.22.3a1.76,1.76,0,0,1-.06.91,7.37,7.37,0,0,1-1.08.89,3.09,3.09,0,0,1-1.36.57,2.17,2.17,0,0,1-1.39-.32,2.43,2.43,0,0,1-1-1l-.2.22c-.12.13-.27.28-.48.47a8.74,8.74,0,0,1-.7.57,4.81,4.81,0,0,1-.95.53,4.31,4.31,0,0,1-1.14.32,3.54,3.54,0,0,1-2.51-.49,2.82,2.82,0,0,1-1.22-2.1,2.74,2.74,0,0,1,.16-1.37,3.53,3.53,0,0,1,.67-1.12,6.11,6.11,0,0,1,1.16-.95A12.21,12.21,0,0,1,48.22,53l1.41-.65,1.2-.55a.47.47,0,0,0,.2-.51l-.21-1.62a2.55,2.55,0,0,0-.69-1.56,1.55,1.55,0,0,0-1.34-.42,1.81,1.81,0,0,0-1.31.73,2.23,2.23,0,0,0-.29,1.61,1,1,0,0,1-.33.93,1.84,1.84,0,0,1-1,.41,1.68,1.68,0,0,1-1.63-.5q-.19-1.42,1.58-2.91A7.46,7.46,0,0,1,49.73,46.24Zm.18,11.49a2.3,2.3,0,0,0,1.31-.59,1.17,1.17,0,0,0,.45-1l-.4-3q-.19.12-.83.41t-1,.49a8.25,8.25,0,0,0-.77.52,1.79,1.79,0,0,0-.61.74,1.64,1.64,0,0,0-.11.85,1.83,1.83,0,0,0,.65,1.32A1.71,1.71,0,0,0,49.91,57.73Z"/><path class="cls-1" d="M69.75,45.59q-.54.43-1.7,1.57A21,21,0,0,0,66,49.54q1,.8,2.47,2.1l2.47,2.13a14.12,14.12,0,0,0,1.34,1.05,3.73,3.73,0,0,0,1.21.44,3.64,3.64,0,0,0,1,.11c.08,0,.14.15.19.49a1.81,1.81,0,0,1,0,.42l-3.47.31-1.13.18L68.85,57l-1.09.22a.81.81,0,0,1-.19-.51c0-.28,0-.42.06-.43a2.15,2.15,0,0,0,.66-.22q.36-.18.35-.33s0-.06,0-.06l-4.94-4.23-.34.14.24,1.83A12,12,0,0,0,64.15,56q.08.2.85.32a4.34,4.34,0,0,0,1.06.08c.06,0,.11.13.16.41a1.72,1.72,0,0,1,0,.58l-1.58.09c-.91.06-1.59.12-2,.18s-1.15.18-2,.36L59,58.38a.88.88,0,0,1-.19-.54q-.06-.44.06-.46a4.13,4.13,0,0,0,1-.36q.69-.32.72-.53a9.8,9.8,0,0,0-.08-2.18L59,42.07a11.61,11.61,0,0,0-.41-2c-.14-.3-.67-.39-1.59-.27l-.27,0c-.12,0-.2-.13-.24-.45s0-.48.12-.5q.9-.21,1.71-.47T59.6,38q.52-.22.9-.42l.8-.41h.06a.32.32,0,0,1,.26.13.84.84,0,0,1,.19.29,9.59,9.59,0,0,0,0,2.82l1.31,9.84a2.71,2.71,0,0,0,.84-.44q.54-.64,1.19-1.34l.93-1c.19-.21.38-.43.57-.66a2.57,2.57,0,0,0,.36-.54.69.69,0,0,0,.06-.37q0-.32-.71-.31a2.9,2.9,0,0,1-.68,0,1.3,1.3,0,0,1-.16-.5c0-.21,0-.32.07-.35l2.86-.38q.79-.11,3.11-.53a.47.47,0,0,1,.19.3,1.36,1.36,0,0,1,0,.44c0,.14,0,.22-.11.22A3.9,3.9,0,0,0,69.75,45.59Z"/><path class="cls-1" d="M81.45,51A10.91,10.91,0,0,0,82,53.64c.06.13.34.24.85.32a4.38,4.38,0,0,0,1,.09c.08,0,.14.13.19.41a1.74,1.74,0,0,1,0,.58l-1.59.09q-1.38.09-2,.18t-2.07.36L76.92,56a.87.87,0,0,1-.19-.54q-.06-.44.06-.46a4.34,4.34,0,0,0,1-.36q.71-.32.74-.53a9.8,9.8,0,0,0-.08-2.18l-.64-4.8a2.82,2.82,0,0,0-.72-1.82,1.66,1.66,0,0,0-.74-.35,3.17,3.17,0,0,0-.73-.08c-.2,0-.3,0-.3,0q-.11-.85.06-.91a22.69,22.69,0,0,0,2.34-.67A23.2,23.2,0,0,0,80,42.4l.23-.09c.1,0,.19,0,.26.17a.56.56,0,0,1,.1.32q0,1.92.1,2.57ZM76.75,39.1a1.81,1.81,0,0,1-.7-1.23,1.84,1.84,0,0,1,3.65-.49,1.81,1.81,0,0,1-.36,1.37,1.83,1.83,0,0,1-2.59.34Z"/><path class="cls-1" d="M93.81,40.39q3.8-.51,4.6,5.54l.37,2.8a12.4,12.4,0,0,0,.56,2.63q.08.2.87.32a4.58,4.58,0,0,0,1,.09c.06,0,.11.13.16.41a1.74,1.74,0,0,1,0,.58q-.18,0-1.56.09T97.83,53c-.47.06-1.12.18-1.95.35l-1.5.32a.88.88,0,0,1-.19-.54c0-.29,0-.45.06-.46a3.59,3.59,0,0,0,1-.35q.63-.31.66-.52a8.6,8.6,0,0,0,0-2.18l-.37-2.8a6.46,6.46,0,0,0-1.12-3.33,2.39,2.39,0,0,0-2.24-.69,2.75,2.75,0,0,0-1.58.74,1.43,1.43,0,0,0-.56,1.2l.67,5.07a12.53,12.53,0,0,0,.56,2.63c.06.13.34.24.84.32a4.33,4.33,0,0,0,1,.09c.08,0,.14.13.19.41a1.71,1.71,0,0,1,0,.58l-1.56.09q-1.32.08-2,.17t-2,.36l-1.56.33a.88.88,0,0,1-.19-.54q-.06-.44.06-.46a4.16,4.16,0,0,0,1-.36q.69-.32.72-.53a9.79,9.79,0,0,0-.08-2.18L87,45.91a2.83,2.83,0,0,0-.72-1.82,1.43,1.43,0,0,0-.72-.35,3.4,3.4,0,0,0-.73-.08c-.19,0-.29,0-.29-.05q-.11-.85,0-.9a42.25,42.25,0,0,0,4.63-1.51l.07-.05.09,0h.07q.12,0,.23.18a.91.91,0,0,1,.13.31,9.88,9.88,0,0,0,0,1.08.24.24,0,0,0,0,.14.46.46,0,0,0,.14-.11,6.59,6.59,0,0,1,1.65-1.48A5.21,5.21,0,0,1,93.81,40.39Z"/><path class="cls-1" d="M107.33,38.65a9.38,9.38,0,0,1,2.5.06,9.17,9.17,0,0,0,2.41.07l1.68-.22s.12.11.26.36a1.85,1.85,0,0,1,.23.57c0,.28,0,.42-.12.44l-1.92.25c-.08,0-.11,0-.11.1s.13.26.37.73a4.22,4.22,0,0,1,.45,1.38,4.3,4.3,0,0,1-1,3.33,5.1,5.1,0,0,1-3.45,1.88,12.27,12.27,0,0,1-1.84.12,1.59,1.59,0,0,0-.58.63,1.27,1.27,0,0,0-.2.76.61.61,0,0,0,.35.46,2,2,0,0,0,.91.18c.4,0,.74,0,1,0l1.19-.1.44-.06a10.5,10.5,0,0,1,4.43.24,2.34,2.34,0,0,1,1.66,2,4.68,4.68,0,0,1-1.61,4.11,8.12,8.12,0,0,1-4.77,2.28,7.73,7.73,0,0,1-3.87-.33,2.67,2.67,0,0,1-1.93-2.2,2.32,2.32,0,0,1,.62-1.76,4.93,4.93,0,0,1,1.66-1.36,3.38,3.38,0,0,1-1.53-.71,2.16,2.16,0,0,1-.85-1.46q-.17-1.27,1.83-2.91a3.94,3.94,0,0,1-1.79-1.31,4.38,4.38,0,0,1-1.06-2.3,4,4,0,0,1,1.1-3.5A5.91,5.91,0,0,1,107.33,38.65Zm-1.67,4.57a4.69,4.69,0,0,0,.91,2.35,1.85,1.85,0,0,0,1.78.77,1.77,1.77,0,0,0,1.49-1.05,3.94,3.94,0,0,0,.24-2.15,4.89,4.89,0,0,0-.93-2.46,1.9,1.9,0,0,0-1.84-.75,1.68,1.68,0,0,0-1.44,1.12A4.3,4.3,0,0,0,105.65,43.22Zm7.79,10.3q-.14-1-1.67-1.17a18.85,18.85,0,0,0-4,.19l-.14,0-.13.11q-.36.2-.56.33a2.61,2.61,0,0,0-.43.39,1.43,1.43,0,0,0-.33.57,1.75,1.75,0,0,0,0,.72,2.08,2.08,0,0,0,1.36,1.62,4.64,4.64,0,0,0,2.6.37,4.48,4.48,0,0,0,2.59-1.12A2.32,2.32,0,0,0,113.44,53.52Z"/><path class="cls-1" d="M141.28,36.36a.86.86,0,0,0-.32-.57,1.31,1.31,0,0,0-.65-.27,5.27,5.27,0,0,0-.7-.06,4.38,4.38,0,0,0-.61,0l-.12,0c-.08,0-.14-.13-.19-.42s0-.47,0-.54c.25,0,.78-.07,1.57-.12s1.43-.1,1.9-.16.93-.15,1.56-.3,1.09-.24,1.39-.27a1.8,1.8,0,0,1,.13.49q.06.44-.06.46a3.41,3.41,0,0,0-1.12.52,1.82,1.82,0,0,0-.9,1l-3,11a1.15,1.15,0,0,1-.34.48,1,1,0,0,1-.55.27.38.38,0,0,1-.41-.16l-4.67-7.66-2.13,8.11a1.6,1.6,0,0,1-.29.46.9.9,0,0,1-.6.32.44.44,0,0,1-.44-.15q-.88-1.44-2.1-3.52t-2.21-3.65q-1-1.58-2.25-3.42a1.37,1.37,0,0,0-.85-.49,2.9,2.9,0,0,0-1-.08c-.08,0-.14-.14-.18-.46s0-.45.05-.52.7-.06,1.5-.11,1.43-.1,1.88-.16,1.12-.18,2-.35l1.52-.29a1.61,1.61,0,0,1,.13.52c0,.26,0,.4,0,.42a3.5,3.5,0,0,0-1,.34q-.61.29-.55.7S129,40,131.56,44.19c.14-.58.31-1.24.5-2l.44-1.68q.15-.57.29-1.16t.2-.88a1.67,1.67,0,0,0,0-.38,2.17,2.17,0,0,0-.54-1.13,1.4,1.4,0,0,0-.71-.39,2.37,2.37,0,0,0-1.08,0c-.08,0-.14-.13-.18-.41s0-.46,0-.53.71-.06,1.47-.11,1.38-.09,1.85-.16,1.07-.17,1.9-.34,1.33-.27,1.49-.29a1.44,1.44,0,0,1,.12.54c0,.29,0,.43,0,.44q-1.5.2-1.37,1.23.07.56,3.64,6.17.31-1.3.78-3.06t.69-2.61A4,4,0,0,0,141.28,36.36Z"/><path class="cls-1" d="M153.25,41.49a10.92,10.92,0,0,0,.59,2.62q.09.2.85.32a4.38,4.38,0,0,0,1,.09c.08,0,.14.13.19.41a1.66,1.66,0,0,1,0,.58l-1.59.09q-1.38.09-2,.18t-2.07.36l-1.53.32a.88.88,0,0,1-.19-.54q-.06-.44.06-.46a4.32,4.32,0,0,0,1-.36q.71-.32.74-.53a9.68,9.68,0,0,0-.08-2.18l-.64-4.8a2.83,2.83,0,0,0-.72-1.82,1.65,1.65,0,0,0-.74-.35,3.14,3.14,0,0,0-.73-.08c-.2,0-.3,0-.31,0q-.11-.85.06-.91a23,23,0,0,0,2.34-.67,23.24,23.24,0,0,0,2.26-.84l.23-.09c.1,0,.18,0,.26.18a.53.53,0,0,1,.1.32q0,1.92.1,2.57Zm-4.7-11.93a1.82,1.82,0,0,1-.7-1.23,1.83,1.83,0,0,1,1.59-2.05,1.78,1.78,0,0,1,1.37.36,1.76,1.76,0,0,1,.7,1.21,1.8,1.8,0,0,1-.36,1.37,1.83,1.83,0,0,1-2.59.34Z"/><path class="cls-1" d="M158,34l-1.8.24c-.14,0-.24-.23-.31-.74a.78.78,0,0,1,0-.27,8.35,8.35,0,0,0,2.06-1.86l.72-1q.39-.55.91-1.4a2.14,2.14,0,0,1,.57,0c.18,0,.28.07.29.13l.38,2.89,2.14-.27,1.46-.18c.16,0,.25.06.27.23a2.88,2.88,0,0,1-.12,1.34l-3.54.47.94,7.1a2.81,2.81,0,0,0,.74,1.73,1.7,1.7,0,0,0,1.47.44,2.83,2.83,0,0,0,.61-.16,3.21,3.21,0,0,0,.51-.23l.36-.23.2-.12c.08,0,.18,0,.3.23s.18.31.17.37c-.08.29-.46.67-1.12,1.12a4.69,4.69,0,0,1-2,.82,3.75,3.75,0,0,1-2.74-.64,4,4,0,0,1-1.48-2.91Z"/><path class="cls-1" d="M176.23,29.45q3.77-.5,4.54,5.31l.4,3a10.9,10.9,0,0,0,.59,2.62q.06.2.84.32a4.54,4.54,0,0,0,1,.09q.09,0,.16.41a3.23,3.23,0,0,1,.06.58l-1.59.09c-.92.06-1.6.12-2,.18s-1.15.18-2,.35l-1.53.32a1.13,1.13,0,0,1-.16-.55q-.06-.44,0-.45a3.54,3.54,0,0,0,1-.36q.63-.31.7-.53a11.53,11.53,0,0,0-.11-2.17l-.38-2.89a6.19,6.19,0,0,0-1.11-3.29,2.43,2.43,0,0,0-2.23-.65,2.84,2.84,0,0,0-1.55.72,1.4,1.4,0,0,0-.59,1.22l.67,5.07a10.91,10.91,0,0,0,.59,2.62c.06.13.34.24.84.32a4.21,4.21,0,0,0,1,.09c.06,0,.11.13.16.41a1.72,1.72,0,0,1,0,.58L174,43c-.88.06-1.55.12-2,.18s-1.15.18-2,.36l-1.56.33a.87.87,0,0,1-.19-.54c0-.29,0-.45.06-.46a4.13,4.13,0,0,0,1-.36q.69-.32.72-.53a9.59,9.59,0,0,0-.08-2.15l-1.63-12.26a11.59,11.59,0,0,0-.41-2c-.14-.3-.67-.39-1.6-.27l-.26,0q-.18,0-.24-.45c0-.31,0-.48.12-.5.6-.14,1.17-.29,1.71-.47s1-.33,1.33-.48.65-.29.9-.42l.8-.41h.06a.32.32,0,0,1,.26.13.81.81,0,0,1,.19.29,9.52,9.52,0,0,0,0,2.82l.79,6c0,.12.06.17.14.16s.05,0,.11-.1a5.69,5.69,0,0,1,1.64-1.52A5.48,5.48,0,0,1,176.23,29.45Z"/><path class="cls-1" d="M195.69,24.59l1.47,11.08a8.77,8.77,0,0,0,.58,2.32q.2.36,2.05.12l1.09-.14a7.94,7.94,0,0,0,3.43-1.08,3.41,3.41,0,0,0,.92-1.17,6.3,6.3,0,0,0,.68-1.92c0-.12.13-.2.39-.23a1.27,1.27,0,0,1,.85.07q-.05.28-.27,1.27l-.33,1.5q-.11.51-.22,1.24a8.05,8.05,0,0,0-.11,1.18q-1.18.16-4.89.56t-5.21.66l-3.9.64a.78.78,0,0,1-.15-.46c0-.33,0-.5,0-.51a4.92,4.92,0,0,0,1.09-.34q.71-.29.79-.57a10.76,10.76,0,0,0-.15-2.71l-1.48-11.14a9,9,0,0,0-.57-2.47q-.15-.22-.89-.35A4,4,0,0,0,189.8,22c-.08,0-.14-.13-.18-.43a1.2,1.2,0,0,1,0-.54l1.65-.13q1.5-.11,2.3-.21l3.75-.68a1.46,1.46,0,0,1,.15.46c0,.33,0,.51-.05.52a4.87,4.87,0,0,0-1,.38q-.76.34-.79.56A11,11,0,0,0,195.69,24.59Z"/><path class="cls-1" d="M214.09,24.42A3.65,3.65,0,0,1,217,25a4.76,4.76,0,0,1,1.35,3.16l.77,5.81a1.37,1.37,0,0,0,.38.86.9.9,0,0,0,.75.22,1.85,1.85,0,0,0,.95-.52c.13,0,.2.12.22.3a1.76,1.76,0,0,1-.06.91,7.37,7.37,0,0,1-1.08.89,3.09,3.09,0,0,1-1.36.57,2.17,2.17,0,0,1-1.39-.32,2.44,2.44,0,0,1-1-1l-.2.22c-.11.13-.27.28-.48.47a8.74,8.74,0,0,1-.7.57,4.7,4.7,0,0,1-.95.53A4.33,4.33,0,0,1,213,38a3.55,3.55,0,0,1-2.51-.49,2.83,2.83,0,0,1-1.22-2.1,2.74,2.74,0,0,1,.16-1.37,3.57,3.57,0,0,1,.68-1.12,6,6,0,0,1,1.16-.95,12.21,12.21,0,0,1,1.29-.76l1.41-.65,1.2-.55a.47.47,0,0,0,.2-.51l-.21-1.62a2.56,2.56,0,0,0-.69-1.56,1.55,1.55,0,0,0-1.35-.42,1.8,1.8,0,0,0-1.31.73,2.22,2.22,0,0,0-.29,1.61,1,1,0,0,1-.33.93,1.84,1.84,0,0,1-1,.41,1.67,1.67,0,0,1-1.62-.5q-.19-1.42,1.58-2.91A7.45,7.45,0,0,1,214.09,24.42Zm.18,11.49a2.3,2.3,0,0,0,1.31-.59,1.18,1.18,0,0,0,.45-1l-.4-3q-.19.12-.83.41t-1,.49a8.09,8.09,0,0,0-.77.52,1.8,1.8,0,0,0-.61.74,1.64,1.64,0,0,0-.11.85,1.83,1.83,0,0,0,.66,1.32A1.71,1.71,0,0,0,214.26,35.92Z"/><path class="cls-1" d="M228.14,22.5a5.11,5.11,0,0,1,2.21.13c.1,0,.13-.18.08-.49l-.37-2.77a10.33,10.33,0,0,0-.44-2c-.14-.3-.67-.39-1.59-.27l-.24,0q-.18,0-.24-.45c0-.31,0-.48.12-.5q.87-.21,1.69-.46c.55-.17,1-.33,1.35-.48s.65-.29.9-.42l.57-.3.23-.11h.06a.33.33,0,0,1,.26.13.55.55,0,0,1,.16.29,11.3,11.3,0,0,0,.07,2.81l1.72,13a11,11,0,0,0,.46,2.16.44.44,0,0,0,.34.29,1.8,1.8,0,0,0,.58.07l.57,0,.3,0a.65.65,0,0,1,.11.35c.05.39,0,.6-.1.61-.27.06-.62.14-1,.26l-1.21.36-1.12.36-1.19.41c-.12,0-.2-.14-.24-.48l-.07-.5a.14.14,0,0,0-.06-.11.06.06,0,0,0-.07,0,5,5,0,0,1-2.92,1.5,5.76,5.76,0,0,1-4.39-1.2,6,6,0,0,1-2.35-4.17,7,7,0,0,1,1.36-5.26A6.51,6.51,0,0,1,228.14,22.5Zm-.08,1.45a2.6,2.6,0,0,0-2.18,1.64,7,7,0,0,0-.32,3.67A7.18,7.18,0,0,0,227,33a2.92,2.92,0,0,0,2.75,1.06,2.47,2.47,0,0,0,1.55-.73,1.65,1.65,0,0,0,.44-1.39l-.82-6.19a2.1,2.1,0,0,0-.19-.6,2.76,2.76,0,0,0-.45-.65,1.91,1.91,0,0,0-.88-.51A3.14,3.14,0,0,0,228.07,23.95Z"/><path class="cls-1" d="M243.57,29.51a11,11,0,0,0,.59,2.62c.06.13.34.24.85.32a4.38,4.38,0,0,0,1,.09c.08,0,.14.13.19.41a1.71,1.71,0,0,1,0,.58l-1.59.09q-1.38.09-2,.18t-2.07.36l-1.53.32a.88.88,0,0,1-.19-.54q-.06-.44.06-.46a4.29,4.29,0,0,0,1-.36c.47-.21.72-.39.74-.53a9.79,9.79,0,0,0-.08-2.18l-.64-4.8a2.83,2.83,0,0,0-.72-1.82,1.65,1.65,0,0,0-.74-.35,3.13,3.13,0,0,0-.73-.08c-.2,0-.3,0-.31,0q-.11-.85.06-.91a23,23,0,0,0,2.34-.67,23.52,23.52,0,0,0,2.26-.84l.23-.09c.1,0,.19,0,.26.18a.54.54,0,0,1,.1.32,25.12,25.12,0,0,0,.1,2.57Zm-4.7-11.93a1.81,1.81,0,0,1-.7-1.23,1.75,1.75,0,0,1,.36-1.35,1.84,1.84,0,0,1,3.29.87,1.8,1.8,0,0,1-.36,1.37,1.83,1.83,0,0,1-2.59.34Z"/><path class="cls-1" d="M255.93,18.87q3.8-.5,4.6,5.54l.37,2.8a12.27,12.27,0,0,0,.56,2.63q.08.2.87.32a4.54,4.54,0,0,0,1,.09c.06,0,.11.13.16.41a1.79,1.79,0,0,1,0,.58q-.18,0-1.56.09t-2.06.18q-.71.09-1.95.35l-1.5.32a.88.88,0,0,1-.19-.54q-.06-.44.06-.46a3.53,3.53,0,0,0,1-.35c.42-.21.64-.38.67-.52a8.7,8.7,0,0,0-.05-2.18l-.37-2.8A6.47,6.47,0,0,0,256.44,22a2.39,2.39,0,0,0-2.24-.69,2.75,2.75,0,0,0-1.58.73,1.43,1.43,0,0,0-.56,1.2l.67,5.07a12.53,12.53,0,0,0,.56,2.63q.08.2.84.32a4.23,4.23,0,0,0,1,.09c.08,0,.14.13.19.41a1.74,1.74,0,0,1,0,.58l-1.56.09c-.88.06-1.55.12-2,.18s-1.15.18-2,.36l-1.56.33a.87.87,0,0,1-.19-.54c0-.29,0-.45.06-.46a4.17,4.17,0,0,0,1-.36c.46-.21.7-.39.72-.53a9.79,9.79,0,0,0-.08-2.18l-.64-4.8a2.82,2.82,0,0,0-.72-1.82,1.43,1.43,0,0,0-.72-.35,3.37,3.37,0,0,0-.73-.08c-.19,0-.29,0-.29-.05-.08-.57-.07-.87,0-.9a41.87,41.87,0,0,0,4.63-1.51l.07-.05.09,0h.07c.08,0,.16,0,.23.18a.94.94,0,0,1,.13.31,9.54,9.54,0,0,0,0,1.08.23.23,0,0,0,0,.14s.06,0,.14-.11a6.57,6.57,0,0,1,1.65-1.48A5.2,5.2,0,0,1,255.93,18.87Z"/><path class="cls-1" d="M280.14,9.12l8.24,14.62q.6,1.12,1.17,2a1.46,1.46,0,0,0,1,.58,4,4,0,0,0,1.15.12q.12,0,.19.51a1,1,0,0,1,0,.45l-3.74.32-3.81.69a.82.82,0,0,1-.19-.53c0-.28,0-.43.06-.44a3.82,3.82,0,0,0,.95-.31c.4-.17.63-.34.68-.51a.84.84,0,0,0,0-.4,6.89,6.89,0,0,0-.83-2l-1.39-2.6a.33.33,0,0,0-.22-.09c-.63,0-1.48.14-2.54.28s-2.18.32-3.35.53c-.12,0-.17.06-.16.14l-.76,2.89a8.59,8.59,0,0,0-.31,2,.67.67,0,0,0,.4.55,3,3,0,0,0,1,.2,5.05,5.05,0,0,0,.92,0c.06,0,.11.15.14.4a2,2,0,0,1,0,.57l-1.4.1q-1.25.08-2,.18t-1.8.31l-1.47.3a.63.63,0,0,1-.18-.43q-.07-.53,0-.54a4.27,4.27,0,0,0,1.1-.4,1.84,1.84,0,0,0,.91-.71,14.13,14.13,0,0,0,.81-2.45l3.72-14a6.44,6.44,0,0,1,.81-2.27.76.76,0,0,1,.47-.27A.49.49,0,0,1,280.14,9.12Zm-2.08,11.43q1,0,2.13-.19t2.41-.41l0-.13-3-5.6L278,20.44C278,20.52,278,20.56,278.06,20.55Z"/><path class="cls-1" d="M311,13.84a.86.86,0,0,0-.32-.57,1.31,1.31,0,0,0-.65-.27,5.47,5.47,0,0,0-.7-.06,4.44,4.44,0,0,0-.61,0l-.12,0c-.08,0-.14-.13-.19-.42s0-.47,0-.54c.26,0,.78-.07,1.57-.12s1.43-.1,1.9-.16.94-.15,1.57-.3,1.09-.23,1.39-.27a1.87,1.87,0,0,1,.13.49q.06.44-.06.46a3.38,3.38,0,0,0-1.12.52,1.8,1.8,0,0,0-.9,1l-3,11a1.15,1.15,0,0,1-.34.48,1,1,0,0,1-.55.27.38.38,0,0,1-.41-.16L304,17.59l-2.13,8.11a1.6,1.6,0,0,1-.29.46.9.9,0,0,1-.6.32.44.44,0,0,1-.44-.15q-.88-1.44-2.1-3.51t-2.21-3.65q-1-1.58-2.25-3.42a1.37,1.37,0,0,0-.84-.49,2.89,2.89,0,0,0-1-.08c-.08,0-.14-.14-.18-.46s0-.45.05-.52.7-.06,1.5-.11,1.43-.1,1.88-.16,1.12-.18,2-.35l1.52-.29a1.6,1.6,0,0,1,.13.52c0,.25,0,.4,0,.42a3.55,3.55,0,0,0-1,.34q-.61.29-.55.7s1.29,2.17,3.85,6.39c.14-.58.31-1.24.5-2l.44-1.68c.1-.38.2-.77.3-1.16s.16-.69.2-.88a1.56,1.56,0,0,0,0-.38,2.15,2.15,0,0,0-.54-1.13,1.41,1.41,0,0,0-.71-.38,2.36,2.36,0,0,0-1.09,0c-.08,0-.14-.13-.17-.41s0-.46,0-.53S301,13,301.79,13s1.38-.09,1.85-.16,1.07-.17,1.9-.34,1.33-.27,1.49-.29a1.43,1.43,0,0,1,.12.54c0,.29,0,.43,0,.44q-1.5.2-1.37,1.23.07.56,3.64,6.17.3-1.3.78-3.06t.69-2.61A4,4,0,0,0,311,13.84Z"/><path class="cls-1" d="M322.76,10a3.66,3.66,0,0,1,2.87.59A4.76,4.76,0,0,1,327,13.76l.77,5.81a1.36,1.36,0,0,0,.38.86.89.89,0,0,0,.75.21,1.86,1.86,0,0,0,1-.52c.12,0,.2.12.22.3a1.76,1.76,0,0,1-.06.91,7.24,7.24,0,0,1-1.08.89,3.1,3.1,0,0,1-1.37.57,2.16,2.16,0,0,1-1.39-.33,2.43,2.43,0,0,1-1-1l-.2.22c-.12.13-.27.28-.48.47a8.74,8.74,0,0,1-.7.57,4.73,4.73,0,0,1-.95.53,4.31,4.31,0,0,1-1.14.32,3.55,3.55,0,0,1-2.51-.49A2.82,2.82,0,0,1,318,21a2.74,2.74,0,0,1,.16-1.37,3.57,3.57,0,0,1,.68-1.12,6.06,6.06,0,0,1,1.16-.95,12.08,12.08,0,0,1,1.29-.76c.37-.18.84-.4,1.41-.65l1.2-.55a.46.46,0,0,0,.2-.51l-.21-1.62a2.55,2.55,0,0,0-.69-1.56,1.55,1.55,0,0,0-1.35-.42,1.8,1.8,0,0,0-1.31.73,2.21,2.21,0,0,0-.29,1.61,1,1,0,0,1-.33.93,1.85,1.85,0,0,1-1,.41,1.68,1.68,0,0,1-1.63-.5q-.19-1.42,1.58-2.91A7.46,7.46,0,0,1,322.76,10Zm.18,11.49a2.29,2.29,0,0,0,1.31-.59,1.18,1.18,0,0,0,.45-1l-.4-3c-.13.08-.41.21-.83.41s-.75.36-1,.49a8.52,8.52,0,0,0-.77.52,1.81,1.81,0,0,0-.61.74,1.64,1.64,0,0,0-.11.85,1.83,1.83,0,0,0,.65,1.32A1.71,1.71,0,0,0,322.94,21.49Z"/><path class="cls-1" d="M336.82,8.07A5.1,5.1,0,0,1,339,8.2c.1,0,.13-.18.08-.49l-.37-2.77a10.33,10.33,0,0,0-.44-2q-.21-.45-1.6-.27l-.23,0c-.12,0-.2-.13-.24-.45s0-.48.12-.5q.87-.21,1.69-.46t1.34-.48c.35-.15.65-.29.91-.42l.57-.3.22-.11h.06a.33.33,0,0,1,.26.13.55.55,0,0,1,.16.29,11.38,11.38,0,0,0,.07,2.81l1.72,13a11.08,11.08,0,0,0,.47,2.16.44.44,0,0,0,.34.29,1.82,1.82,0,0,0,.58.07l.57,0,.29,0s.08.15.11.35q.08.59-.1.61c-.27.06-.62.14-1,.26l-1.21.36-1.12.36-1.19.41c-.12,0-.2-.14-.24-.48l-.07-.5a.14.14,0,0,0-.06-.11s-.06,0-.07,0a5,5,0,0,1-2.92,1.5,5.76,5.76,0,0,1-4.39-1.2A6,6,0,0,1,331,16a7,7,0,0,1,1.36-5.26A6.51,6.51,0,0,1,336.82,8.07Zm-.08,1.45a2.6,2.6,0,0,0-2.18,1.64,6.94,6.94,0,0,0-.32,3.67,7.15,7.15,0,0,0,1.43,3.78,2.92,2.92,0,0,0,2.75,1.06,2.46,2.46,0,0,0,1.55-.73,1.64,1.64,0,0,0,.45-1.39l-.82-6.19a2.16,2.16,0,0,0-.19-.61,2.83,2.83,0,0,0-.45-.65,1.91,1.91,0,0,0-.88-.51A3.16,3.16,0,0,0,336.74,9.52Z"/><path class="cls-1" d="M144.42,78.9a3.65,3.65,0,0,1,2.88.53,4.76,4.76,0,0,1,1.42,3.13l.9,5.79a1.36,1.36,0,0,0,.4.85.89.89,0,0,0,.75.2,1.85,1.85,0,0,0,.94-.54c.12,0,.2.12.23.3a1.76,1.76,0,0,1,0,.91,7.26,7.26,0,0,1-1.06.92,3.1,3.1,0,0,1-1.35.6,2.17,2.17,0,0,1-1.4-.29,2.44,2.44,0,0,1-1-1l-.19.23q-.17.19-.47.48a8.83,8.83,0,0,1-.69.59,4.79,4.79,0,0,1-.94.55,4.3,4.3,0,0,1-1.14.34,3.55,3.55,0,0,1-2.52-.44A2.82,2.82,0,0,1,139.86,90a2.75,2.75,0,0,1,.13-1.37,3.57,3.57,0,0,1,.65-1.14,6.08,6.08,0,0,1,1.14-1,12.13,12.13,0,0,1,1.28-.79l1.4-.68,1.19-.58a.47.47,0,0,0,.19-.51l-.25-1.62a2.56,2.56,0,0,0-.72-1.54,1.55,1.55,0,0,0-1.36-.39,1.8,1.8,0,0,0-1.3.76A2.23,2.23,0,0,0,142,82.8a1,1,0,0,1-.31.94,1.85,1.85,0,0,1-1,.43,1.68,1.68,0,0,1-1.64-.47q-.22-1.41,1.51-2.94A7.45,7.45,0,0,1,144.42,78.9Zm.43,11.49a2.3,2.3,0,0,0,1.3-.62,1.17,1.17,0,0,0,.43-1l-.47-3c-.13.08-.4.22-.82.43s-.74.38-1,.51a8.25,8.25,0,0,0-.76.54A1.79,1.79,0,0,0,143,88a1.63,1.63,0,0,0-.09.86,1.83,1.83,0,0,0,.69,1.31A1.71,1.71,0,0,0,144.85,90.39Z"/><path class="cls-1" d="M159.32,76.58a6,6,0,0,1,3.42.42,6.23,6.23,0,0,1,2.57,2,6.35,6.35,0,0,1,1.21,2.84,6.79,6.79,0,0,1-1.28,5.24,6.56,6.56,0,0,1-4.4,2.77,9.31,9.31,0,0,1-2.18.11,6.51,6.51,0,0,0-1.41,0,2.28,2.28,0,0,0-.73.32,3,3,0,0,1-.55.3,1.45,1.45,0,0,1-.45-.11c-.24-.08-.37-.16-.38-.24s0-.24,0-.54,0-.73,0-1.29a16.79,16.79,0,0,0-.19-1.81l-1.86-12a10.49,10.49,0,0,0-.49-2q-.22-.45-1.6-.23l-.26,0q-.18,0-.25-.44c0-.31,0-.48.1-.5q.9-.23,1.7-.5t1.32-.51q.52-.23.89-.44l.79-.42h.06a.32.32,0,0,1,.26.13.84.84,0,0,1,.2.29,10.38,10.38,0,0,0,.11,2.81l.73,4.7v0l0,.13a1,1,0,0,0,0,.13c0,.06,0,.08.07.08l.1,0a5.42,5.42,0,0,1,1.1-.77A4.27,4.27,0,0,1,159.32,76.58Zm-.4,1.69a2.3,2.3,0,0,0-1.5.8,1.75,1.75,0,0,0-.41,1.42l1,6.23a1.78,1.78,0,0,0,1,1.44,3.22,3.22,0,0,0,1.92.24A2.53,2.53,0,0,0,163,86.66a6.81,6.81,0,0,0,.26-3.47,7.63,7.63,0,0,0-1.53-3.85A2.91,2.91,0,0,0,158.92,78.27Z"/><path class="cls-1" d="M174.19,74.27a6.56,6.56,0,0,1,5,1.19,6.37,6.37,0,0,1,2.68,4.35,6.73,6.73,0,0,1-13.31,2.07,6.4,6.4,0,0,1,1.2-5A6.52,6.52,0,0,1,174.19,74.27ZM174,75.71a2.39,2.39,0,0,0-1.94,1.67,6.39,6.39,0,0,0-.27,3.31,8.66,8.66,0,0,0,1.6,4A3,3,0,0,0,176.35,86a2.42,2.42,0,0,0,1.95-1.69,6.31,6.31,0,0,0,.29-3.29,10.17,10.17,0,0,0-.82-2.78,5.23,5.23,0,0,0-1.57-2A2.75,2.75,0,0,0,174,75.71Z"/><path class="cls-1" d="M196.07,74.12l.91,5.82a6.58,6.58,0,0,0,.55,2,.62.62,0,0,0,.38.18,2.3,2.3,0,0,0,.53,0l.49,0a.56.56,0,0,1,.25,0c.08,0,.13.09.16.25a2.35,2.35,0,0,1,0,.41q0,.29-.13.31a6.78,6.78,0,0,0-1,.26l-1.19.4-1.08.39-1.14.42q-.21,0-.28-.44l-.2-1.29c0-.09-.07-.14-.11-.13a6.64,6.64,0,0,1-1.59,1.6,5,5,0,0,1-2.23.95,3.12,3.12,0,0,1-1.83-.23,3.58,3.58,0,0,1-1.38-1.11,6.4,6.4,0,0,1-.88-1.61,9,9,0,0,1-.48-1.82l-.51-3.29a2.83,2.83,0,0,0-.76-1.81,1.64,1.64,0,0,0-.74-.34,3.1,3.1,0,0,0-.73-.07c-.2,0-.3,0-.31,0q-.13-.85,0-.9a22.36,22.36,0,0,0,2.35-.73,23.51,23.51,0,0,0,2.24-.89l.11,0,.11,0c.1,0,.18,0,.25.17a1.09,1.09,0,0,1,.12.31,26,26,0,0,0,.14,2.63l.55,3.52a6.37,6.37,0,0,0,1.16,3.19,2.63,2.63,0,0,0,3.74-.15,1.59,1.59,0,0,0,.48-1.2l-.75-4.85a2.83,2.83,0,0,0-.76-1.81,1.43,1.43,0,0,0-.73-.34,3.38,3.38,0,0,0-.75-.06c-.2,0-.3,0-.31,0q-.13-.85,0-.91a22.78,22.78,0,0,0,2.32-.72,23.24,23.24,0,0,0,2.24-.89l.23-.1c.1,0,.19,0,.27.17a.55.55,0,0,1,.11.31Q196,73.59,196.07,74.12Z"/><path class="cls-1" d="M201.37,72.15l-1.79.28c-.14,0-.25-.22-.32-.73a.76.76,0,0,1,0-.27,8.32,8.32,0,0,0,2-1.91l.7-1q.38-.56.88-1.42a2.11,2.11,0,0,1,.57,0c.18,0,.28.06.29.12l.45,2.88,2.13-.32,1.46-.21c.16,0,.25.05.28.23a2.9,2.9,0,0,1-.09,1.34l-3.53.55,1.1,7.08a2.82,2.82,0,0,0,.78,1.71,1.7,1.7,0,0,0,1.48.4,2.79,2.79,0,0,0,.61-.17,3.17,3.17,0,0,0,.5-.24l.35-.24.19-.12q.11,0,.31.22c.13.18.19.3.18.36q-.11.44-1.1,1.15a4.67,4.67,0,0,1-2,.87,3.75,3.75,0,0,1-2.75-.58,4,4,0,0,1-1.54-2.87Z"/><path class="cls-1" d="M224.4,66.49a6,6,0,0,1,3.5.45,6.22,6.22,0,0,1,3.69,4.78,7,7,0,0,1-5.82,8.06,6.89,6.89,0,0,1-2.15-.09q-.12,0-.05.43l.31,2a10.64,10.64,0,0,0,.65,2.61q.07.23.85.33a4.51,4.51,0,0,0,1,.06c.06,0,.12.13.17.41a2.71,2.71,0,0,1,.07.55l-1.58.16q-1.38.12-2,.22t-2.06.41l-1.56.33a1.06,1.06,0,0,1-.17-.53q-.07-.43,0-.44a4.12,4.12,0,0,0,1-.39q.69-.33.74-.58a10.87,10.87,0,0,0-.15-2.14l-1.75-11.22a2.89,2.89,0,0,0-.77-1.84,1.34,1.34,0,0,0-.71-.33,3.55,3.55,0,0,0-.73-.05c-.2,0-.3,0-.31,0q-.13-.85,0-.91a22.9,22.9,0,0,0,4.25-1.5l.53-.23c.08,0,.15.19.21.6a1.55,1.55,0,0,1,0,.36,6,6,0,0,1,1.2-.89A4.26,4.26,0,0,1,224.4,66.49Zm-.46,1.67a2.25,2.25,0,0,0-1.49.8,2,2,0,0,0-.37,1.59L223,76.6a1.83,1.83,0,0,0,1,1.42,2.89,2.89,0,0,0,1.79.31,2.8,2.8,0,0,0,2.08-1.59,5.75,5.75,0,0,0,.39-3.61,7.68,7.68,0,0,0-1.55-3.8A2.93,2.93,0,0,0,223.93,68.16Z"/><path class="cls-1" d="M242.14,63.7q3.76-.58,4.66,5.2l.47,3a10.87,10.87,0,0,0,.65,2.61c0,.13.32.24.84.31a4.58,4.58,0,0,0,1,.06c.06,0,.11.13.17.41a3.12,3.12,0,0,1,.07.58l-1.59.13c-.92.08-1.59.16-2,.23s-1.15.21-2,.4l-1.52.36a1.1,1.1,0,0,1-.17-.54c0-.29,0-.44,0-.45a3.55,3.55,0,0,0,1-.38q.63-.32.68-.54a11.43,11.43,0,0,0-.16-2.17L243.85,70a6.21,6.21,0,0,0-1.18-3.26,2.43,2.43,0,0,0-2.24-.6,2.85,2.85,0,0,0-1.54.75,1.4,1.4,0,0,0-.56,1.23l.79,5.05a10.87,10.87,0,0,0,.65,2.61q.09.2.84.31a4.21,4.21,0,0,0,1,.07c.06,0,.11.13.17.41a1.66,1.66,0,0,1,0,.58l-1.56.12q-1.32.12-2,.22t-2,.41l-1.55.36a.87.87,0,0,1-.2-.54c0-.29,0-.45,0-.46a4.14,4.14,0,0,0,1-.39c.46-.22.69-.4.71-.55a9.59,9.59,0,0,0-.12-2.15L234.26,62a11.82,11.82,0,0,0-.46-2q-.22-.45-1.6-.23l-.26,0q-.18,0-.25-.44c0-.31,0-.48.1-.5q.9-.23,1.7-.5c.53-.18,1-.35,1.32-.51s.64-.3.89-.44l.79-.42h.06a.32.32,0,0,1,.26.13.84.84,0,0,1,.2.29,9.57,9.57,0,0,0,.08,2.82l.92,5.93c0,.12.07.17.14.16s.05,0,.1-.11a5.65,5.65,0,0,1,1.61-1.56A5.49,5.49,0,0,1,242.14,63.7Z"/><path class="cls-1" d="M256.45,61.48a6.56,6.56,0,0,1,5,1.19A6.37,6.37,0,0,1,264.14,67a6.73,6.73,0,0,1-13.31,2.07,6.4,6.4,0,0,1,1.2-5A6.52,6.52,0,0,1,256.45,61.48Zm-.17,1.44a2.39,2.39,0,0,0-1.94,1.67,6.39,6.39,0,0,0-.27,3.31,8.66,8.66,0,0,0,1.6,4,3,3,0,0,0,2.93,1.35,2.42,2.42,0,0,0,1.95-1.69,6.32,6.32,0,0,0,.28-3.29,10.17,10.17,0,0,0-.82-2.78,5.24,5.24,0,0,0-1.57-2A2.76,2.76,0,0,0,256.29,62.92Z"/><path class="cls-1" d="M267,61.94l-1.79.28q-.21,0-.33-.73a.73.73,0,0,1,0-.27,8.33,8.33,0,0,0,2-1.91q.32-.44.7-1c.25-.37.55-.84.88-1.42a2.13,2.13,0,0,1,.57,0c.18,0,.28.06.29.12l.45,2.88,2.13-.32,1.46-.21c.16,0,.25.05.28.23a2.88,2.88,0,0,1-.09,1.34l-3.52.55,1.1,7.08a2.82,2.82,0,0,0,.78,1.71,1.7,1.7,0,0,0,1.48.4,2.8,2.8,0,0,0,.61-.17,3.12,3.12,0,0,0,.5-.24l.35-.24.19-.12c.07,0,.18,0,.31.22s.19.3.18.36q-.11.44-1.1,1.15a4.68,4.68,0,0,1-2,.87,3.75,3.75,0,0,1-2.75-.58A4,4,0,0,1,268.14,69Z"/><path class="cls-1" d="M282.23,57.47a6.56,6.56,0,0,1,5,1.19A6.37,6.37,0,0,1,289.92,63a6.78,6.78,0,1,1-7.69-5.54Zm-.17,1.44a2.39,2.39,0,0,0-1.94,1.67,6.39,6.39,0,0,0-.27,3.31,8.65,8.65,0,0,0,1.6,4,3,3,0,0,0,2.93,1.35,2.42,2.42,0,0,0,1.95-1.69,6.31,6.31,0,0,0,.29-3.29,10.18,10.18,0,0,0-.82-2.78,5.24,5.24,0,0,0-1.57-2A2.76,2.76,0,0,0,282.06,58.91Z"/><path class="cls-1" d="M296.41,55.32a9.41,9.41,0,0,1,2.5,0,9.18,9.18,0,0,0,2.41,0l1.68-.26s.13.11.26.35a1.82,1.82,0,0,1,.24.56q.06.41-.11.44l-1.91.3c-.08,0-.11,0-.1.11s.13.26.38.72a4.21,4.21,0,0,1,.48,1.37,4.3,4.3,0,0,1-1,3.35,5.1,5.1,0,0,1-3.41,2,12.38,12.38,0,0,1-1.84.17,1.59,1.59,0,0,0-.56.64,1.27,1.27,0,0,0-.18.77.61.61,0,0,0,.36.46,2,2,0,0,0,.91.16q.6,0,1,0l1.19-.12.44-.07a10.49,10.49,0,0,1,4.43.14,2.34,2.34,0,0,1,1.7,1.95,4.68,4.68,0,0,1-1.52,4.15,8.12,8.12,0,0,1-4.71,2.39,7.72,7.72,0,0,1-3.87-.24,2.67,2.67,0,0,1-2-2.16,2.31,2.31,0,0,1,.58-1.78,4.94,4.94,0,0,1,1.63-1.4,3.38,3.38,0,0,1-1.55-.68,2.17,2.17,0,0,1-.89-1.44q-.2-1.26,1.77-3A3.94,3.94,0,0,1,293,62.92a4.38,4.38,0,0,1-1.11-2.28,4,4,0,0,1,1-3.53A5.91,5.91,0,0,1,296.41,55.32Zm-1.57,4.61a4.69,4.69,0,0,0,1,2.33,1.85,1.85,0,0,0,1.8.73,1.77,1.77,0,0,0,1.47-1.09,4,4,0,0,0,.19-2.15,4.88,4.88,0,0,0-1-2.44,1.9,1.9,0,0,0-1.85-.7A1.68,1.68,0,0,0,295,57.77,4.31,4.31,0,0,0,294.84,59.93Zm8,10.13q-.16-1-1.69-1.13a18.84,18.84,0,0,0-4,.28l-.14.05-.13.11c-.24.14-.42.25-.55.34a2.55,2.55,0,0,0-.42.4,1.45,1.45,0,0,0-.32.58,1.73,1.73,0,0,0,0,.73A2.08,2.08,0,0,0,296.93,73a4.63,4.63,0,0,0,2.61.32,4.49,4.49,0,0,0,2.57-1.18A2.32,2.32,0,0,0,302.85,70.06Z"/><path class="cls-1" d="M313.71,52.57a3,3,0,0,1,2.56.59q.39,2.5-1,2.72a1.77,1.77,0,0,1-1.24-.41,1.86,1.86,0,0,0-1.35-.39,1.6,1.6,0,0,0-1.28,1.15,4,4,0,0,0-.21,2l.57,3.67a12.42,12.42,0,0,0,.62,2.61c.06.13.34.23.84.3a4.21,4.21,0,0,0,1,.07c.06,0,.11.13.17.41a3.11,3.11,0,0,1,.07.58l-1.58.12q-1.34.12-2,.22t-2,.41l-1.55.36a.87.87,0,0,1-.2-.54q-.07-.44,0-.46a4.14,4.14,0,0,0,1-.39q.68-.33.71-.55a9.76,9.76,0,0,0-.13-2.18L308,58.09a2.83,2.83,0,0,0-.76-1.81,1.43,1.43,0,0,0-.73-.34,3.38,3.38,0,0,0-.73-.07q-.28,0-.29,0-.13-.85,0-.9a42.14,42.14,0,0,0,4.59-1.62l.23-.1c.08,0,.16,0,.24.17a.72.72,0,0,1,.13.33c0,.09,0,.23,0,.42s0,.39,0,.6a3.49,3.49,0,0,0,0,.4A5.43,5.43,0,0,1,312,53.49,3.26,3.26,0,0,1,313.71,52.57Z"/><path class="cls-1" d="M324.2,50.94a3.65,3.65,0,0,1,2.88.53,4.75,4.75,0,0,1,1.42,3.13l.9,5.79a1.36,1.36,0,0,0,.4.85.89.89,0,0,0,.75.2,1.86,1.86,0,0,0,.94-.54c.12,0,.2.12.23.3a1.76,1.76,0,0,1,0,.91,7.25,7.25,0,0,1-1.06.92,3.1,3.1,0,0,1-1.35.6,2.17,2.17,0,0,1-1.4-.29,2.44,2.44,0,0,1-1-1l-.19.23c-.11.13-.27.29-.47.48a8.68,8.68,0,0,1-.69.59,4.73,4.73,0,0,1-.94.55,4.31,4.31,0,0,1-1.13.34,3.55,3.55,0,0,1-2.52-.44,2.83,2.83,0,0,1-1.27-2.07,2.75,2.75,0,0,1,.13-1.37,3.57,3.57,0,0,1,.65-1.14,6.07,6.07,0,0,1,1.14-1,12.13,12.13,0,0,1,1.28-.79l1.4-.68,1.19-.58a.47.47,0,0,0,.19-.51l-.25-1.62a2.56,2.56,0,0,0-.72-1.54,1.55,1.55,0,0,0-1.35-.39,1.8,1.8,0,0,0-1.3.76,2.23,2.23,0,0,0-.26,1.62,1,1,0,0,1-.31.94,1.85,1.85,0,0,1-1,.43,1.68,1.68,0,0,1-1.64-.47q-.22-1.41,1.51-2.94A7.45,7.45,0,0,1,324.2,50.94Zm.43,11.49a2.31,2.31,0,0,0,1.3-.62,1.17,1.17,0,0,0,.43-1l-.47-3q-.19.12-.82.43t-1,.51a8.1,8.1,0,0,0-.76.54,1.8,1.8,0,0,0-.59.75,1.64,1.64,0,0,0-.09.86,1.83,1.83,0,0,0,.68,1.31A1.71,1.71,0,0,0,324.63,62.43Z"/><path class="cls-1" d="M339.63,48.57a6,6,0,0,1,3.5.45,6.27,6.27,0,0,1,2.54,2,6.33,6.33,0,0,1,1.15,2.77A7,7,0,0,1,341,61.86a6.89,6.89,0,0,1-2.15-.09q-.12,0-.05.43l.31,2a10.65,10.65,0,0,0,.65,2.61q.06.23.85.33a4.55,4.55,0,0,0,1,.06q.09,0,.17.41a2.71,2.71,0,0,1,.07.55l-1.58.16q-1.38.12-2,.23c-.49.08-1.18.21-2.06.41l-1.56.33a1.06,1.06,0,0,1-.17-.53c0-.28,0-.43,0-.44a4.13,4.13,0,0,0,1-.39q.69-.33.74-.58a10.88,10.88,0,0,0-.15-2.14L334.4,54a2.88,2.88,0,0,0-.77-1.84,1.34,1.34,0,0,0-.71-.33,3.58,3.58,0,0,0-.73-.05c-.2,0-.3,0-.31,0q-.13-.85,0-.91a22.83,22.83,0,0,0,4.25-1.5l.53-.23c.08,0,.15.19.21.6a1.59,1.59,0,0,1,0,.36,6,6,0,0,1,1.2-.89A4.27,4.27,0,0,1,339.63,48.57Zm-.46,1.67a2.25,2.25,0,0,0-1.49.8,2,2,0,0,0-.37,1.59l.94,6.05a1.83,1.83,0,0,0,1,1.42,2.88,2.88,0,0,0,1.79.31,2.79,2.79,0,0,0,2.08-1.59,5.75,5.75,0,0,0,.39-3.61,7.68,7.68,0,0,0-1.55-3.8A2.92,2.92,0,0,0,339.17,50.24Z"/><path class="cls-1" d="M357.38,45.78q3.76-.59,4.66,5.2l.47,3a10.87,10.87,0,0,0,.65,2.61q.06.2.84.31a4.58,4.58,0,0,0,1,.06c.06,0,.11.13.17.41a3.11,3.11,0,0,1,.07.57l-1.59.13c-.92.08-1.6.16-2,.23s-1.14.21-2,.4l-1.52.36a1.1,1.1,0,0,1-.17-.54c0-.29,0-.44,0-.45a3.54,3.54,0,0,0,1-.38q.63-.32.68-.54a11.35,11.35,0,0,0-.16-2.17l-.45-2.88a6.2,6.2,0,0,0-1.18-3.26,2.43,2.43,0,0,0-2.24-.6,2.85,2.85,0,0,0-1.54.75,1.4,1.4,0,0,0-.56,1.23l.79,5.05a10.87,10.87,0,0,0,.65,2.61c.06.13.34.23.84.31a4.23,4.23,0,0,0,1,.07c.06,0,.11.13.17.41a1.66,1.66,0,0,1,0,.58l-1.56.12q-1.32.11-2,.22t-2,.41l-1.55.36a.87.87,0,0,1-.2-.54c0-.29,0-.45,0-.46a4.18,4.18,0,0,0,1-.39q.68-.33.71-.55a9.65,9.65,0,0,0-.12-2.15l-1.9-12.22a11.61,11.61,0,0,0-.46-2q-.22-.45-1.6-.23l-.26,0q-.18,0-.25-.44c0-.31,0-.48.1-.5q.9-.23,1.7-.5c.53-.18,1-.35,1.32-.51s.64-.3.89-.44l.79-.42h.06a.32.32,0,0,1,.26.13.83.83,0,0,1,.2.29,9.57,9.57,0,0,0,.08,2.82l.92,5.93c0,.12.07.17.14.16s.05,0,.1-.11a5.65,5.65,0,0,1,1.61-1.56A5.48,5.48,0,0,1,357.38,45.78Z"/><path class="cls-1" d="M371.65,52.58a10.92,10.92,0,0,0,.65,2.61q.09.2.86.3a4.38,4.38,0,0,0,1,.06c.08,0,.14.12.2.41a1.73,1.73,0,0,1,0,.58l-1.59.13q-1.38.12-2,.23t-2.06.41l-1.52.36a.87.87,0,0,1-.2-.54c0-.29,0-.45,0-.46a4.33,4.33,0,0,0,1-.38c.47-.22.71-.41.73-.55a9.7,9.7,0,0,0-.13-2.18L368,48.77A2.83,2.83,0,0,0,367.2,47a1.64,1.64,0,0,0-.74-.34,3.13,3.13,0,0,0-.73-.07c-.2,0-.3,0-.31,0q-.13-.85,0-.91a22.78,22.78,0,0,0,2.32-.72A23.16,23.16,0,0,0,370,44l.23-.1c.1,0,.19,0,.27.17a.55.55,0,0,1,.11.31q.06,1.92.16,2.56Zm-5-11.82a1.81,1.81,0,0,1-.73-1.21A1.84,1.84,0,0,1,369.6,39a1.81,1.81,0,0,1-.33,1.37,1.83,1.83,0,0,1-2.58.4Z"/><path class="cls-1" d="M380.48,42.19a7.18,7.18,0,0,1,2.86.08,4.73,4.73,0,0,1,1.92.86,3.69,3.69,0,0,1-.08,1.71,1.1,1.1,0,0,1-.91.82,1.33,1.33,0,0,1-.94-.15,3.36,3.36,0,0,1-.84-.86,2.16,2.16,0,0,0-2.18-1,2.29,2.29,0,0,0-1.81,1.59,6.35,6.35,0,0,0-.25,3.33,6,6,0,0,0,1.7,3.75,3.51,3.51,0,0,0,3,.85,8.06,8.06,0,0,0,.84-.18,4.47,4.47,0,0,0,.74-.27l.59-.29a2.48,2.48,0,0,0,.5-.35l.36-.31.53-.49a.46.46,0,0,1,.17.15.56.56,0,0,1,.13.28.91.91,0,0,1-.09.59,4.83,4.83,0,0,1-1.49,1.86,5.46,5.46,0,0,1-2.76,1.24,6,6,0,0,1-4.75-1.22,6.56,6.56,0,0,1-2.56-4.39,6.76,6.76,0,0,1,1-4.9A6,6,0,0,1,380.48,42.19Z"/><path class="cls-1" d="M399.3,39.32a9.42,9.42,0,0,1,2.5,0,9.18,9.18,0,0,0,2.41,0l1.67-.26s.13.11.26.35a1.84,1.84,0,0,1,.24.56q.06.41-.11.44l-1.91.3c-.08,0-.11,0-.1.11s.13.26.38.72a4.21,4.21,0,0,1,.48,1.37,4.3,4.3,0,0,1-1,3.35,5.09,5.09,0,0,1-3.41,2,12.24,12.24,0,0,1-1.84.17,1.6,1.6,0,0,0-.56.64,1.27,1.27,0,0,0-.18.77.61.61,0,0,0,.36.46,2,2,0,0,0,.91.16q.6,0,1,0l1.19-.12.44-.07a10.5,10.5,0,0,1,4.43.14,2.34,2.34,0,0,1,1.7,1.95,4.68,4.68,0,0,1-1.52,4.15A8.12,8.12,0,0,1,402,58.82a7.73,7.73,0,0,1-3.87-.24,2.67,2.67,0,0,1-2-2.16,2.31,2.31,0,0,1,.58-1.77,4.93,4.93,0,0,1,1.63-1.4,3.39,3.39,0,0,1-1.55-.68,2.16,2.16,0,0,1-.89-1.44q-.2-1.26,1.77-3a3.93,3.93,0,0,1-1.82-1.27,4.38,4.38,0,0,1-1.11-2.28,4,4,0,0,1,1-3.53A5.91,5.91,0,0,1,399.3,39.32Zm-1.57,4.61a4.69,4.69,0,0,0,1,2.33,1.85,1.85,0,0,0,1.8.73A1.77,1.77,0,0,0,402,45.9a4,4,0,0,0,.19-2.15,4.88,4.88,0,0,0-1-2.44,1.9,1.9,0,0,0-1.85-.7,1.68,1.68,0,0,0-1.42,1.15A4.31,4.31,0,0,0,397.74,43.92Zm8,10.13q-.16-1-1.7-1.14a18.86,18.86,0,0,0-4,.28l-.14.05-.13.11q-.36.21-.55.34a2.51,2.51,0,0,0-.42.4,1.44,1.44,0,0,0-.32.58,1.73,1.73,0,0,0,0,.73A2.08,2.08,0,0,0,399.83,57a4.64,4.64,0,0,0,2.61.32A4.49,4.49,0,0,0,405,56.12,2.32,2.32,0,0,0,405.75,54.05Z"/><path class="cls-1" d="M414.17,36.95a3.65,3.65,0,0,1,2.88.53,4.76,4.76,0,0,1,1.42,3.13l.9,5.79a1.36,1.36,0,0,0,.4.85.89.89,0,0,0,.75.2,1.86,1.86,0,0,0,.94-.54c.12,0,.2.12.23.3a1.76,1.76,0,0,1,0,.91,7.23,7.23,0,0,1-1.06.92,3.1,3.1,0,0,1-1.35.6,2.17,2.17,0,0,1-1.4-.29,2.44,2.44,0,0,1-1-1l-.19.23q-.17.19-.47.48a8.83,8.83,0,0,1-.69.59,4.79,4.79,0,0,1-.94.55,4.32,4.32,0,0,1-1.14.34,3.55,3.55,0,0,1-2.52-.44,2.82,2.82,0,0,1-1.27-2.07,2.75,2.75,0,0,1,.13-1.37,3.57,3.57,0,0,1,.65-1.14,6.1,6.1,0,0,1,1.14-1,12.13,12.13,0,0,1,1.28-.79l1.4-.68,1.19-.58a.47.47,0,0,0,.19-.51l-.25-1.62a2.56,2.56,0,0,0-.72-1.54,1.56,1.56,0,0,0-1.36-.39,1.8,1.8,0,0,0-1.3.76,2.23,2.23,0,0,0-.26,1.62,1,1,0,0,1-.31.94,1.85,1.85,0,0,1-1,.43,1.68,1.68,0,0,1-1.64-.47q-.22-1.41,1.51-2.94A7.46,7.46,0,0,1,414.17,36.95Zm.43,11.49a2.3,2.3,0,0,0,1.3-.62,1.17,1.17,0,0,0,.43-1l-.47-3q-.19.12-.82.43t-1,.51a8.23,8.23,0,0,0-.76.54,1.79,1.79,0,0,0-.59.75,1.63,1.63,0,0,0-.09.86,1.83,1.83,0,0,0,.68,1.31A1.71,1.71,0,0,0,414.6,48.43Z"/><path class="cls-1" d="M427.2,46.59c0,.06.07.1.17.12a.65.65,0,0,0,.21,0l2.85-.44A3,3,0,0,0,433,43.55c0-.2.18-.33.47-.37a.64.64,0,0,1,.61.15l.05,3.81-10,1.55q-.64-.26-.69-.58a.17.17,0,0,1,0-.12l5.19-11.31-3.12.43a2.1,2.1,0,0,0-.55.16,2.63,2.63,0,0,0-.44.25,1.76,1.76,0,0,0-.35.34,2.2,2.2,0,0,0-.24.37c-.05.11-.11.24-.18.4s-.11.28-.14.37-.06.2-.1.35a1.43,1.43,0,0,0-.05.25q-.06.19-.71.29c-.21,0-.33,0-.33,0s0-.61,0-1.54,0-1.69-.09-2.29q1.76-.09,2.82-.26l3.58-.56a31,31,0,0,0,3.66-.81,2.47,2.47,0,0,1,.17.7l-5.2,11A.92.92,0,0,0,427.2,46.59Z"/><path class="cls-1" d="M440.56,32.84a5.52,5.52,0,0,1,2.55.16A4.71,4.71,0,0,1,445,34.12a7,7,0,0,1,1.21,1.59,5.13,5.13,0,0,1,.59,1.67c.07.43,0,.71-.09.84a1.68,1.68,0,0,1-.87.3l-7,1.09q-.21,0-.18.21a5.77,5.77,0,0,0,.7,2,4.08,4.08,0,0,0,1.58,1.53,3.5,3.5,0,0,0,2.33.39,8.06,8.06,0,0,0,.84-.18,4.46,4.46,0,0,0,.74-.27l.59-.29a2.54,2.54,0,0,0,.5-.35l.36-.31.53-.49A.47.47,0,0,1,447,42a.57.57,0,0,1,.13.28.91.91,0,0,1-.09.59,4.83,4.83,0,0,1-1.49,1.86A5.52,5.52,0,0,1,442.78,46a6,6,0,0,1-4.7-1.21,6.41,6.41,0,0,1-2.57-4.31,6.88,6.88,0,0,1,1-5.08A5.76,5.76,0,0,1,440.56,32.84Zm0,1.38a2.1,2.1,0,0,0-1.2.61,2.8,2.8,0,0,0-.7,1.13,5.74,5.74,0,0,0-.26,1.17,3.68,3.68,0,0,0,0,.89c0,.14.09.2.21.18l4.76-.74c.18,0,.24-.19.2-.48a3.85,3.85,0,0,0-1-2A2.13,2.13,0,0,0,440.57,34.22Z"/><path class="cls-1" d="M460.26,29.78a3.65,3.65,0,0,1,2.88.53,4.75,4.75,0,0,1,1.42,3.13l.9,5.79a1.35,1.35,0,0,0,.4.85.89.89,0,0,0,.75.2,1.85,1.85,0,0,0,.94-.54c.12,0,.2.12.23.3a1.77,1.77,0,0,1,0,.91,7.3,7.3,0,0,1-1.06.92,3.1,3.1,0,0,1-1.35.6,2.17,2.17,0,0,1-1.4-.29,2.45,2.45,0,0,1-1-1l-.19.23c-.11.13-.27.29-.47.48a8.75,8.75,0,0,1-.69.59,4.73,4.73,0,0,1-.94.55,4.29,4.29,0,0,1-1.13.34A3.55,3.55,0,0,1,457,43a2.83,2.83,0,0,1-1.27-2.07,2.75,2.75,0,0,1,.13-1.37,3.59,3.59,0,0,1,.65-1.14,6.09,6.09,0,0,1,1.14-1,12.23,12.23,0,0,1,1.28-.79l1.4-.68,1.19-.58a.47.47,0,0,0,.19-.51l-.25-1.62a2.56,2.56,0,0,0-.72-1.54,1.55,1.55,0,0,0-1.35-.39,1.8,1.8,0,0,0-1.3.76,2.23,2.23,0,0,0-.26,1.62,1,1,0,0,1-.31.94,1.85,1.85,0,0,1-1,.43,1.68,1.68,0,0,1-1.64-.47q-.22-1.41,1.51-2.94A7.46,7.46,0,0,1,460.26,29.78Zm.43,11.49a2.3,2.3,0,0,0,1.3-.62,1.17,1.17,0,0,0,.43-1l-.47-3q-.19.12-.82.43c-.42.21-.74.38-1,.51a8.25,8.25,0,0,0-.76.54,1.79,1.79,0,0,0-.59.75,1.63,1.63,0,0,0-.09.86,1.83,1.83,0,0,0,.68,1.31A1.71,1.71,0,0,0,460.69,41.26Z"/><path class="cls-1" d="M477.27,27.13q3.79-.59,4.73,5.43l.43,2.79A12.36,12.36,0,0,0,483,38c.06.13.35.23.87.3a4.55,4.55,0,0,0,1,.06c.06,0,.11.13.17.41a1.71,1.71,0,0,1,0,.58q-.18,0-1.56.12t-2.06.23q-.7.11-1.94.39l-1.49.35a.87.87,0,0,1-.21-.54c0-.29,0-.45,0-.46a3.55,3.55,0,0,0,1-.37c.42-.22.63-.39.65-.54a8.59,8.59,0,0,0-.1-2.18L479,33.53a6.45,6.45,0,0,0-1.19-3.31,2.39,2.39,0,0,0-2.25-.64,2.75,2.75,0,0,0-1.56.77,1.43,1.43,0,0,0-.53,1.21l.79,5.05a12.44,12.44,0,0,0,.62,2.61c.06.13.34.23.85.3a4.28,4.28,0,0,0,1,.07q.12,0,.2.41a1.71,1.71,0,0,1,0,.58l-1.56.12q-1.32.11-2,.22t-2,.41l-1.55.36a.87.87,0,0,1-.21-.54c0-.29,0-.45,0-.46a4.16,4.16,0,0,0,1-.39c.46-.22.69-.4.71-.55a9.76,9.76,0,0,0-.13-2.18l-.74-4.79a2.83,2.83,0,0,0-.76-1.81,1.43,1.43,0,0,0-.73-.34,3.41,3.41,0,0,0-.73-.07c-.19,0-.29,0-.29,0q-.13-.85,0-.9A42.18,42.18,0,0,0,472.66,28l.07-.06.09,0h.07c.08,0,.16,0,.24.17a.92.92,0,0,1,.14.31,9.76,9.76,0,0,0,0,1.08c0,.08,0,.13.05.14a.46.46,0,0,0,.13-.11A6.61,6.61,0,0,1,475.11,28,5.21,5.21,0,0,1,477.27,27.13Z"/><path class="cls-1" d="M491.72,24.82a5.11,5.11,0,0,1,2.21.08q.15,0,.07-.49l-.43-2.76a10.32,10.32,0,0,0-.49-2q-.22-.45-1.6-.23l-.23,0c-.12,0-.2-.13-.25-.44s0-.48.1-.5q.87-.23,1.68-.5t1.33-.51c.35-.15.65-.3.89-.44l.57-.31.22-.11h.06a.32.32,0,0,1,.26.13.55.55,0,0,1,.17.29,11.37,11.37,0,0,0,.14,2.81l2,12.92A10.9,10.9,0,0,0,499,35a.44.44,0,0,0,.34.28,1.82,1.82,0,0,0,.58.06l.57,0,.3,0s.08.15.11.34q.09.59-.08.62-.41.09-1,.28l-1.2.38-1.11.38-1.18.44q-.18,0-.25-.47l-.08-.5a.14.14,0,0,0-.06-.11s-.06,0-.07,0a5,5,0,0,1-2.89,1.56,5.76,5.76,0,0,1-4.41-1.1A6,6,0,0,1,486,32.93a7,7,0,0,1,1.24-5.29A6.51,6.51,0,0,1,491.72,24.82Zm0,1.45A2.6,2.6,0,0,0,489.53,28a7,7,0,0,0-.24,3.68,7.18,7.18,0,0,0,1.52,3.75,2.92,2.92,0,0,0,2.77,1,2.47,2.47,0,0,0,1.54-.77,1.65,1.65,0,0,0,.41-1.4l-1-6.17a2,2,0,0,0-.2-.6,2.74,2.74,0,0,0-.46-.64,1.91,1.91,0,0,0-.89-.49A3.16,3.16,0,0,0,491.68,26.27Z"/><path class="cls-1" d="M194.63,106.41a5.86,5.86,0,0,1,2.08.19,2.08,2.08,0,0,1,1.13.69,3.33,3.33,0,0,1-.07,1.66,1.07,1.07,0,0,1-1,.79,1.16,1.16,0,0,1-.93-.44q-.43-.47-.9-.93a1.37,1.37,0,0,0-1.07-.43,1.58,1.58,0,0,0-1.29.85,5,5,0,0,0-.65,1.91,12.07,12.07,0,0,0-.08,2.42l.08,1.37s0,0,.07.08a.17.17,0,0,0,.12.05l3.26-.19a.24.24,0,0,1,.15,0,.31.31,0,0,1,0,.18,3.08,3.08,0,0,1-.28,1.39l-3.09.18a.16.16,0,0,0-.17.19l.38,6.62a11.34,11.34,0,0,0,.39,2.66c0,.14.32.26.81.38a4.27,4.27,0,0,0,1,.17c.06,0,.1.14.13.42a1.68,1.68,0,0,1,0,.58c-.12,0-.64,0-1.55,0s-1.61,0-2.08,0-1.15.1-2,.21l-1.54.21a.56.56,0,0,1-.14-.32,1.84,1.84,0,0,1,0-.46c0-.15,0-.23.11-.23a4,4,0,0,0,1-.28c.47-.18.71-.33.75-.47a9.84,9.84,0,0,0,.13-2.45l-.4-6.83c0-.14-.07-.2-.19-.2l-1.78.1s-.06-.06-.07-.17a1.59,1.59,0,0,1,.37-.89,1.19,1.19,0,0,1,.92-.59l.47,0a.16.16,0,0,0,.17-.19l0-.3a8.08,8.08,0,0,1,1.55-5.45A5.56,5.56,0,0,1,194.63,106.41Z"/><path class="cls-1" d="M206,113.29a3,3,0,0,1,2.49.84q.15,2.52-1.28,2.6a1.77,1.77,0,0,1-1.19-.53,1.86,1.86,0,0,0-1.31-.52,1.59,1.59,0,0,0-1.38,1,4,4,0,0,0-.41,2l.21,3.71a12.46,12.46,0,0,0,.36,2.66q.07.21.81.38a4.22,4.22,0,0,0,1,.17c.06,0,.1.14.13.42a3.13,3.13,0,0,1,0,.58l-1.58,0q-1.34,0-2,0t-2.06.21l-1.58.21a.87.87,0,0,1-.15-.56q0-.45.09-.45a4.13,4.13,0,0,0,1.07-.29c.48-.18.73-.33.76-.48a9.65,9.65,0,0,0,.08-2.18l-.28-4.84a2.83,2.83,0,0,0-.58-1.87,1.44,1.44,0,0,0-.69-.41,3.38,3.38,0,0,0-.72-.14c-.19,0-.29,0-.29-.07q0-.86.1-.9a41.9,41.9,0,0,0,4.73-1.17l.23-.07c.08,0,.15.06.22.2a.71.71,0,0,1,.09.34c0,.09,0,.23,0,.42s0,.39,0,.6a3.46,3.46,0,0,0,0,.4,5.47,5.47,0,0,1,1.37-1.52A3.25,3.25,0,0,1,206,113.29Z"/><path class="cls-1" d="M216.42,112.68a5.52,5.52,0,0,1,2.52.4,4.71,4.71,0,0,1,1.8,1.3,6.91,6.91,0,0,1,1.05,1.7,5.14,5.14,0,0,1,.43,1.72q0,.65-.17.83a1.69,1.69,0,0,1-.9.22l-7.09.41q-.21,0-.2.19a5.76,5.76,0,0,0,.51,2.06,4.09,4.09,0,0,0,1.42,1.67,3.5,3.5,0,0,0,2.28.61,8.16,8.16,0,0,0,.86-.09,4.47,4.47,0,0,0,.76-.19l.61-.23a2.5,2.5,0,0,0,.53-.3l.39-.28.57-.44a.47.47,0,0,1,.16.17.57.57,0,0,1,.11.29.91.91,0,0,1-.15.57,4.82,4.82,0,0,1-1.66,1.7,5.52,5.52,0,0,1-2.89,1,6,6,0,0,1-4.56-1.66,6.41,6.41,0,0,1-2.14-4.54,6.88,6.88,0,0,1,1.45-5A5.76,5.76,0,0,1,216.42,112.68Zm-.13,1.38a2.11,2.11,0,0,0-1.25.49,2.81,2.81,0,0,0-.8,1.06,5.81,5.81,0,0,0-.37,1.14,3.71,3.71,0,0,0-.08.88c0,.14.07.2.19.2l4.81-.28c.18,0,.26-.16.24-.46a3.85,3.85,0,0,0-.82-2.07A2.13,2.13,0,0,0,216.29,114.06Z"/><path class="cls-1" d="M229.67,111.91a5.52,5.52,0,0,1,2.53.4,4.71,4.71,0,0,1,1.8,1.29,6.94,6.94,0,0,1,1.05,1.7,5.12,5.12,0,0,1,.43,1.72c0,.44,0,.71-.17.83a1.68,1.68,0,0,1-.9.22l-7.09.41c-.14,0-.2.07-.2.19a5.78,5.78,0,0,0,.51,2.06A4.09,4.09,0,0,0,229,122.4a3.5,3.5,0,0,0,2.28.61,8.06,8.06,0,0,0,.86-.09,4.49,4.49,0,0,0,.76-.19l.61-.23a2.5,2.5,0,0,0,.53-.3l.39-.28.57-.43a.48.48,0,0,1,.16.17.58.58,0,0,1,.11.29.91.91,0,0,1-.15.57,4.84,4.84,0,0,1-1.66,1.7,5.52,5.52,0,0,1-2.89,1,6,6,0,0,1-4.56-1.66,6.41,6.41,0,0,1-2.14-4.54,6.88,6.88,0,0,1,1.45-5A5.76,5.76,0,0,1,229.67,111.91Zm-.13,1.38a2.11,2.11,0,0,0-1.25.49,2.82,2.82,0,0,0-.8,1.06,5.73,5.73,0,0,0-.37,1.14,3.67,3.67,0,0,0-.08.88c0,.14.07.2.19.2l4.81-.28c.18,0,.26-.16.24-.46a3.85,3.85,0,0,0-.82-2.07A2.13,2.13,0,0,0,229.54,113.29Z"/><path class="cls-1" d="M243.5,111.05a5.11,5.11,0,0,1,2.19.29q.15,0,.12-.48l-.16-2.79a10.38,10.38,0,0,0-.3-2q-.18-.47-1.57-.39h-.24c-.12,0-.19-.15-.21-.46s0-.48.15-.49q.89-.14,1.72-.34t1.38-.38q.54-.18.93-.35l.6-.26.23-.09h.06a.32.32,0,0,1,.25.15.54.54,0,0,1,.14.3,11.41,11.41,0,0,0-.13,2.81l.76,13.06a10.93,10.93,0,0,0,.3,2.19.44.44,0,0,0,.32.31,1.81,1.81,0,0,0,.57.12h.87a.63.63,0,0,1,.08.35c0,.4,0,.6-.14.6-.28,0-.62.1-1,.18l-1.24.27-1.15.27-1.22.32q-.18,0-.21-.49l0-.5a.13.13,0,0,0-.05-.12.05.05,0,0,0-.07,0,5,5,0,0,1-3,1.28,5.76,5.76,0,0,1-4.29-1.52,6,6,0,0,1-2-4.33,7,7,0,0,1,1.74-5.15A6.51,6.51,0,0,1,243.5,111.05Zm-.18,1.44A2.6,2.6,0,0,0,241,114a7,7,0,0,0-.59,3.64,7.17,7.17,0,0,0,1.15,3.88,2.92,2.92,0,0,0,2.66,1.26,2.48,2.48,0,0,0,1.6-.61,1.65,1.65,0,0,0,.55-1.36l-.36-6.23a2.07,2.07,0,0,0-.14-.62,2.79,2.79,0,0,0-.4-.68,1.9,1.9,0,0,0-.84-.58A3.14,3.14,0,0,0,243.31,112.49Z"/><path class="cls-1" d="M259.27,110.2a6.56,6.56,0,0,1,4.88,1.67,6.37,6.37,0,0,1,2.25,4.59,6.73,6.73,0,0,1-13.44.78,6.4,6.4,0,0,1,1.67-4.83A6.51,6.51,0,0,1,259.27,110.2Zm-.3,1.42a2.39,2.39,0,0,0-2.09,1.48,6.39,6.39,0,0,0-.58,3.27,8.67,8.67,0,0,0,1.21,4.13,3,3,0,0,0,2.79,1.63,2.42,2.42,0,0,0,2.1-1.49,6.33,6.33,0,0,0,.6-3.25,10.18,10.18,0,0,0-.55-2.84,5.25,5.25,0,0,0-1.37-2.14A2.76,2.76,0,0,0,259,111.61Z"/><path class="cls-1" d="M277.62,109.13a3.21,3.21,0,0,1,2,.47,3.48,3.48,0,0,1,1.27,1.43,7,7,0,0,1,2.08-1.61,6.67,6.67,0,0,1,2.75-.76,3.37,3.37,0,0,1,1.85.37,3.28,3.28,0,0,1,1.26,1.25,7,7,0,0,1,.73,1.8,11.27,11.27,0,0,1,.32,2.14l.18,3.12a12.46,12.46,0,0,0,.36,2.66c0,.14.32.26.83.38a4.34,4.34,0,0,0,1,.16c.06,0,.1.14.13.42a1.7,1.7,0,0,1,0,.58l-1.56,0q-1.36,0-2,0t-2,.21l-1.58.21a1.12,1.12,0,0,1-.12-.56c0-.3,0-.45.06-.45a4,4,0,0,0,1.05-.28q.7-.26.75-.48a9.21,9.21,0,0,0,.09-2.09l-.17-3q-.25-4.3-3-4.14a2.71,2.71,0,0,0-1.61.57,1.86,1.86,0,0,0-.72,1c0,.06,0,.14,0,.24a.59.59,0,0,0,0,.24,14.5,14.5,0,0,1,.2,1.83l.18,3.15a11.69,11.69,0,0,0,.36,2.54q.07.2.83.38a4.37,4.37,0,0,0,1,.16c.06,0,.1.14.13.42a1.67,1.67,0,0,1,0,.58l-1.56,0q-1.36,0-2,0t-2,.21l-1.58.21a1.1,1.1,0,0,1-.12-.56c0-.3,0-.45.06-.45a4,4,0,0,0,1.05-.28c.47-.18.71-.33.75-.48a9.71,9.71,0,0,0,.08-2.18l-.17-2.85a6.3,6.3,0,0,0-.88-3.31,2.26,2.26,0,0,0-2.08-.92,2.85,2.85,0,0,0-1.6.6,1.4,1.4,0,0,0-.68,1.17l.3,5.1a11,11,0,0,0,.39,2.66c0,.14.31.26.8.39a4,4,0,0,0,1,.17q.12,0,.16.42a1.71,1.71,0,0,1,0,.58l-1.57,0q-1.33,0-2,0c-.5,0-1.19.1-2.07.21l-1.57.21a.87.87,0,0,1-.15-.56c0-.3,0-.45.09-.45a4.27,4.27,0,0,0,1.05-.28q.73-.27.78-.48a9.71,9.71,0,0,0,.08-2.18l-.28-4.84a2.82,2.82,0,0,0-.58-1.87,1.43,1.43,0,0,0-.69-.41,3.34,3.34,0,0,0-.74-.14c-.2,0-.3,0-.3-.07q0-.86.13-.9a41,41,0,0,0,4.7-1.17.19.19,0,0,1,.09,0l.15,0q.15,0,.25.19a.54.54,0,0,1,.08.32,10,10,0,0,0-.06,1.08c0,.08,0,.13.07.15a.43.43,0,0,0,.14-.1,6.62,6.62,0,0,1,1.75-1.35A5.2,5.2,0,0,1,277.62,109.13Z"/><path class="cls-1" d="M305.57,116.44a11,11,0,0,0,.39,2.66q.07.2.83.38a4.43,4.43,0,0,0,1,.16c.08,0,.13.14.16.42a1.71,1.71,0,0,1,0,.58l-1.59,0q-1.39,0-2,0t-2.09.21l-1.55.21a.87.87,0,0,1-.15-.56c0-.3,0-.45.09-.45a4.26,4.26,0,0,0,1.05-.28q.73-.27.78-.48a9.66,9.66,0,0,0,.08-2.18l-.28-4.84a2.82,2.82,0,0,0-.58-1.87A1.64,1.64,0,0,0,301,110a3.14,3.14,0,0,0-.72-.14c-.2,0-.3,0-.3-.07q0-.86.13-.9a22.84,22.84,0,0,0,2.38-.5,23.41,23.41,0,0,0,2.31-.67l.23-.07q.15,0,.25.19a.54.54,0,0,1,.08.32,25.43,25.43,0,0,0-.09,2.57Zm-3.81-12.24a1.81,1.81,0,0,1-.61-1.27,1.84,1.84,0,0,1,3.68-.21,1.81,1.81,0,0,1-.46,1.34,1.83,1.83,0,0,1-2.61.15Z"/><path class="cls-1" d="M318.68,106.75q3.83-.22,4.18,5.86l.16,2.82a12.39,12.39,0,0,0,.36,2.66q.07.2.84.38a4.56,4.56,0,0,0,1,.16c.06,0,.1.14.13.42a1.7,1.7,0,0,1,0,.58c-.12,0-.64,0-1.56,0s-1.61,0-2.07,0-1.13.1-2,.2l-1.52.21a.88.88,0,0,1-.15-.56c0-.3,0-.45.09-.45a3.54,3.54,0,0,0,1-.28q.65-.26.7-.47a8.52,8.52,0,0,0,.11-2.18l-.16-2.82a6.46,6.46,0,0,0-.87-3.4,2.39,2.39,0,0,0-2.18-.86,2.74,2.74,0,0,0-1.63.62,1.43,1.43,0,0,0-.65,1.15l.3,5.1a12.46,12.46,0,0,0,.36,2.66c0,.14.32.26.81.38a4.29,4.29,0,0,0,1,.17q.12,0,.16.42a1.71,1.71,0,0,1,0,.58l-1.57,0q-1.33,0-2,0t-2.06.21l-1.58.21a.88.88,0,0,1-.15-.56c0-.3,0-.45.09-.45a4.13,4.13,0,0,0,1.07-.29q.71-.26.76-.48a9.65,9.65,0,0,0,.08-2.18l-.28-4.84a2.82,2.82,0,0,0-.59-1.87,1.43,1.43,0,0,0-.69-.41,3.43,3.43,0,0,0-.72-.14q-.28,0-.29-.07,0-.86.1-.9A42,42,0,0,0,314,107.2l.07,0,.09,0h.07q.12,0,.22.2a.9.9,0,0,1,.11.32,9.77,9.77,0,0,0-.06,1.08.23.23,0,0,0,0,.15.46.46,0,0,0,.14-.1,6.57,6.57,0,0,1,1.75-1.35A5.2,5.2,0,0,1,318.68,106.75Z"/><path class="cls-1" d="M339.5,105.54a7.17,7.17,0,0,1,2.83.36,4.73,4.73,0,0,1,1.83,1,3.69,3.69,0,0,1-.24,1.7,1.1,1.1,0,0,1-1,.73,1.33,1.33,0,0,1-.92-.24,3.37,3.37,0,0,1-.75-.94,2.15,2.15,0,0,0-2.07-1.25,2.29,2.29,0,0,0-2,1.41,6.36,6.36,0,0,0-.57,3.29,6,6,0,0,0,1.33,3.9,3.51,3.51,0,0,0,2.87,1.13,8.17,8.17,0,0,0,.86-.09,4.5,4.5,0,0,0,.76-.19l.61-.23a2.52,2.52,0,0,0,.53-.3l.39-.28.57-.43a.47.47,0,0,1,.16.17.57.57,0,0,1,.11.29.91.91,0,0,1-.15.57,4.83,4.83,0,0,1-1.66,1.7,5.46,5.46,0,0,1-2.86,1,6,6,0,0,1-4.61-1.67,6.56,6.56,0,0,1-2.13-4.61,6.76,6.76,0,0,1,1.51-4.78A6,6,0,0,1,339.5,105.54Z"/><path class="cls-1" d="M353,104.76a6.55,6.55,0,0,1,4.88,1.67,6.37,6.37,0,0,1,2.25,4.59,6.73,6.73,0,0,1-13.44.78,6.4,6.4,0,0,1,1.67-4.83A6.51,6.51,0,0,1,353,104.76Zm-.31,1.42a2.39,2.39,0,0,0-2.09,1.48,6.39,6.39,0,0,0-.59,3.26,8.67,8.67,0,0,0,1.21,4.13,3,3,0,0,0,2.79,1.63,2.42,2.42,0,0,0,2.1-1.49,6.33,6.33,0,0,0,.6-3.25,10.22,10.22,0,0,0-.55-2.84,5.26,5.26,0,0,0-1.37-2.14A2.76,2.76,0,0,0,352.74,106.17Z"/><path class="cls-1" d="M371.39,103.69a3.21,3.21,0,0,1,2,.47,3.48,3.48,0,0,1,1.27,1.43,7,7,0,0,1,2.08-1.61,6.67,6.67,0,0,1,2.75-.76,3.38,3.38,0,0,1,1.85.37,3.29,3.29,0,0,1,1.26,1.25,7,7,0,0,1,.73,1.8,11.27,11.27,0,0,1,.32,2.14l.18,3.12a12.47,12.47,0,0,0,.36,2.66c0,.14.32.26.83.38a4.33,4.33,0,0,0,1,.16c.06,0,.1.14.13.42a1.7,1.7,0,0,1,0,.58l-1.56,0q-1.36,0-2,0t-2,.21l-1.58.21a1.12,1.12,0,0,1-.12-.56c0-.3,0-.45.06-.45a4,4,0,0,0,1.06-.28c.47-.18.71-.33.75-.48a9.15,9.15,0,0,0,.09-2.09l-.17-3q-.25-4.3-3-4.14a2.72,2.72,0,0,0-1.61.57,1.86,1.86,0,0,0-.72,1c0,.06,0,.14,0,.24a.59.59,0,0,0,0,.24,14.5,14.5,0,0,1,.2,1.83l.18,3.15A11.7,11.7,0,0,0,376,115c0,.14.32.26.83.38a4.36,4.36,0,0,0,1,.16c.06,0,.1.14.13.42a1.67,1.67,0,0,1,0,.58l-1.56,0q-1.36,0-2,0t-2,.21l-1.58.21a1.12,1.12,0,0,1-.12-.56c0-.3,0-.45.06-.45a4,4,0,0,0,1.06-.28c.47-.18.71-.33.75-.48a9.65,9.65,0,0,0,.08-2.18l-.17-2.85a6.31,6.31,0,0,0-.88-3.31,2.26,2.26,0,0,0-2.08-.92,2.85,2.85,0,0,0-1.6.6,1.4,1.4,0,0,0-.68,1.17l.3,5.1a11,11,0,0,0,.39,2.66c0,.14.31.26.8.39a4,4,0,0,0,1,.17q.12,0,.16.42a1.71,1.71,0,0,1,0,.58l-1.57,0q-1.33,0-2,0t-2.07.21l-1.57.21a.88.88,0,0,1-.15-.56c0-.3,0-.45.09-.45a4.28,4.28,0,0,0,1.06-.28c.49-.18.74-.34.78-.48a9.65,9.65,0,0,0,.08-2.18l-.28-4.84a2.83,2.83,0,0,0-.58-1.87,1.43,1.43,0,0,0-.69-.41,3.35,3.35,0,0,0-.74-.14c-.2,0-.3,0-.3-.07q0-.86.13-.9a40.94,40.94,0,0,0,4.7-1.17.19.19,0,0,1,.09,0l.15,0c.1,0,.18.06.25.19a.54.54,0,0,1,.08.32,10,10,0,0,0-.06,1.08c0,.08,0,.13.07.15a.44.44,0,0,0,.14-.1,6.59,6.59,0,0,1,1.75-1.35A5.2,5.2,0,0,1,371.39,103.69Z"/><path class="cls-1" d="M396.75,102.22a3.22,3.22,0,0,1,2,.47,3.49,3.49,0,0,1,1.27,1.43,7,7,0,0,1,2.08-1.61,6.67,6.67,0,0,1,2.75-.75,3.37,3.37,0,0,1,1.85.37,3.28,3.28,0,0,1,1.26,1.25,7,7,0,0,1,.73,1.8,11.26,11.26,0,0,1,.32,2.14l.18,3.12a12.46,12.46,0,0,0,.36,2.66c0,.14.32.26.83.38a4.41,4.41,0,0,0,1,.16c.06,0,.1.14.13.42a1.7,1.7,0,0,1,0,.58l-1.56,0q-1.36,0-2,0t-2,.21l-1.58.21a1.12,1.12,0,0,1-.12-.56c0-.3,0-.45.06-.45a4,4,0,0,0,1.05-.28q.7-.26.75-.48a9.27,9.27,0,0,0,.09-2.09l-.17-3q-.25-4.3-3-4.14a2.72,2.72,0,0,0-1.61.57,1.86,1.86,0,0,0-.72,1c0,.06,0,.14,0,.24a.59.59,0,0,0,0,.24,14.47,14.47,0,0,1,.2,1.83L401,111a11.68,11.68,0,0,0,.36,2.54q.07.21.83.38a4.36,4.36,0,0,0,1,.16c.06,0,.1.14.13.42a1.68,1.68,0,0,1,0,.58l-1.56,0q-1.36,0-2,0t-2,.21l-1.58.21A1.1,1.1,0,0,1,396,115c0-.3,0-.45.06-.45a4,4,0,0,0,1.05-.28c.47-.18.71-.33.75-.48a9.71,9.71,0,0,0,.08-2.18l-.17-2.85a6.3,6.3,0,0,0-.88-3.31,2.26,2.26,0,0,0-2.08-.92,2.84,2.84,0,0,0-1.6.6,1.4,1.4,0,0,0-.68,1.17l.3,5.1a11,11,0,0,0,.39,2.66q.07.21.8.39a4.06,4.06,0,0,0,1,.17q.12,0,.16.42a1.71,1.71,0,0,1,0,.58l-1.57,0q-1.33,0-2,0c-.5,0-1.19.1-2.07.21L388,116a.87.87,0,0,1-.15-.56c0-.3,0-.45.09-.45a4.3,4.3,0,0,0,1.05-.28q.73-.27.78-.48a9.71,9.71,0,0,0,.08-2.18l-.28-4.84a2.82,2.82,0,0,0-.58-1.87,1.43,1.43,0,0,0-.69-.41,3.38,3.38,0,0,0-.74-.14c-.2,0-.3,0-.3-.07q0-.86.13-.9a41,41,0,0,0,4.7-1.17.18.18,0,0,1,.09,0l.15,0c.1,0,.18.06.25.19a.54.54,0,0,1,.08.32,10,10,0,0,0-.06,1.08c0,.08,0,.13.07.15a.44.44,0,0,0,.14-.1,6.61,6.61,0,0,1,1.75-1.35A5.2,5.2,0,0,1,396.75,102.22Z"/><path class="cls-1" d="M425.55,103.77l.34,5.88a6.55,6.55,0,0,0,.36,2.06.62.62,0,0,0,.35.22,2.29,2.29,0,0,0,.53.09h.49a.55.55,0,0,1,.25,0c.08,0,.12.1.13.26a2.45,2.45,0,0,1,0,.4c0,.19-.08.29-.16.29a6.77,6.77,0,0,0-1,.17l-1.22.28-1.12.29-1.17.31q-.21,0-.24-.46l-.08-1.31c0-.1-.06-.15-.1-.14a6.67,6.67,0,0,1-1.73,1.44,5,5,0,0,1-2.31.73,3.11,3.11,0,0,1-1.79-.4,3.57,3.57,0,0,1-1.26-1.24A6.38,6.38,0,0,1,415,111a9.06,9.06,0,0,1-.3-1.86l-.19-3.32a2.83,2.83,0,0,0-.58-1.87,1.65,1.65,0,0,0-.71-.41,3.08,3.08,0,0,0-.72-.14c-.2,0-.3,0-.3-.07,0-.57,0-.87.1-.9a22.36,22.36,0,0,0,2.41-.5,23.34,23.34,0,0,0,2.31-.67l.12,0,.12,0c.1,0,.18.06.24.19a1.05,1.05,0,0,1,.09.32q-.15,2-.12,2.63l.21,3.56a6.37,6.37,0,0,0,.85,3.29,2.63,2.63,0,0,0,3.74.22,1.58,1.58,0,0,0,.59-1.15l-.28-4.9a2.83,2.83,0,0,0-.58-1.87,1.44,1.44,0,0,0-.69-.41,3.4,3.4,0,0,0-.74-.14c-.2,0-.3,0-.3-.07q0-.86.13-.9a22.76,22.76,0,0,0,2.38-.5,23.38,23.38,0,0,0,2.31-.67l.23-.07c.1,0,.18.06.25.19a.54.54,0,0,1,.08.32Q425.52,103.23,425.55,103.77Z"/><path class="cls-1" d="M438.88,99.78q3.83-.22,4.18,5.86l.16,2.82a12.39,12.39,0,0,0,.36,2.66q.07.2.84.38a4.52,4.52,0,0,0,1,.16c.06,0,.1.14.13.42a1.7,1.7,0,0,1,0,.58c-.12,0-.64,0-1.57,0s-1.61,0-2.07,0-1.13.1-2,.2l-1.52.21a.87.87,0,0,1-.15-.56c0-.3,0-.45.09-.45a3.55,3.55,0,0,0,1-.28q.65-.26.7-.47a8.51,8.51,0,0,0,.11-2.18l-.16-2.82a6.45,6.45,0,0,0-.87-3.4,2.39,2.39,0,0,0-2.18-.86,2.75,2.75,0,0,0-1.63.62,1.43,1.43,0,0,0-.65,1.15l.3,5.1a12.46,12.46,0,0,0,.36,2.66q.07.21.81.38a4.3,4.3,0,0,0,1,.17q.12,0,.16.42a1.71,1.71,0,0,1,0,.58l-1.57,0q-1.33,0-2,0t-2.06.21l-1.58.21a.87.87,0,0,1-.15-.56q0-.44.09-.45a4.14,4.14,0,0,0,1.07-.29c.48-.18.73-.33.76-.48a9.65,9.65,0,0,0,.08-2.18l-.28-4.84a2.83,2.83,0,0,0-.58-1.87,1.44,1.44,0,0,0-.69-.41,3.39,3.39,0,0,0-.72-.14q-.28,0-.29-.07,0-.86.1-.9a42,42,0,0,0,4.73-1.17l.07,0,.09,0h.07c.08,0,.15.06.22.2a.89.89,0,0,1,.11.32,9.77,9.77,0,0,0-.06,1.08.23.23,0,0,0,0,.15.44.44,0,0,0,.14-.1,6.58,6.58,0,0,1,1.75-1.35A5.2,5.2,0,0,1,438.88,99.78Z"/><path class="cls-1" d="M452.61,107.92a11,11,0,0,0,.39,2.66q.07.2.83.38a4.4,4.4,0,0,0,1,.16c.08,0,.13.14.16.42a1.71,1.71,0,0,1,0,.58l-1.59,0q-1.39,0-2,0t-2.09.21l-1.55.21a.87.87,0,0,1-.15-.56c0-.3,0-.45.09-.45a4.29,4.29,0,0,0,1.05-.28q.73-.27.78-.48a9.66,9.66,0,0,0,.08-2.18l-.28-4.84a2.82,2.82,0,0,0-.58-1.87,1.64,1.64,0,0,0-.71-.41,3.14,3.14,0,0,0-.72-.14q-.3,0-.3-.07,0-.86.13-.9a22.84,22.84,0,0,0,2.38-.5,23.27,23.27,0,0,0,2.31-.67l.23-.07q.15,0,.25.19a.54.54,0,0,1,.08.32,25.44,25.44,0,0,0-.09,2.57ZM448.8,95.67a1.81,1.81,0,0,1-.61-1.27,1.84,1.84,0,0,1,3.68-.21,1.82,1.82,0,0,1-.46,1.34,1.83,1.83,0,0,1-2.61.15Z"/><path class="cls-1" d="M457.86,100.76l-1.81.1c-.14,0-.22-.25-.25-.76a.77.77,0,0,1,0-.27A8.34,8.34,0,0,0,458,98.13l.79-.92q.43-.52,1-1.32a2.11,2.11,0,0,1,.57,0c.18,0,.27.09.28.15l.17,2.91,2.15-.11,1.47-.07c.16,0,.24.08.25.25a2.87,2.87,0,0,1-.22,1.32l-3.56.21.42,7.15a2.82,2.82,0,0,0,.61,1.78,1.7,1.7,0,0,0,1.43.54A2.82,2.82,0,0,0,464,110a3.22,3.22,0,0,0,.52-.19l.37-.2.2-.1c.08,0,.17.06.28.25s.16.32.14.38q-.15.43-1.21,1a4.67,4.67,0,0,1-2.09.67,3.74,3.74,0,0,1-2.68-.84,4,4,0,0,1-1.26-3Z"/><path class="cls-1" d="M469.9,98.28q.65,0,1.86-.2t1.51-.18a2,2,0,0,1,.09.53c0,.28,0,.42-.09.42a3.25,3.25,0,0,0-.92.28c-.42.17-.63.35-.64.53v.18q.09.47,3.15,6.61.21-.55,1-3t.91-2.81a2.77,2.77,0,0,0,.13-.93.94.94,0,0,0-.52-.7,2.44,2.44,0,0,0-1.44-.26q-.12,0-.14-.44a.73.73,0,0,1,.09-.51q.36,0,1.46,0t1.82,0q.62,0,1.52-.18t1.32-.17a.85.85,0,0,1,.15.47q0,.47-.09.48a3.76,3.76,0,0,0-1.18.37,1.65,1.65,0,0,0-1,.95l-4.67,13.43q-1.59,4.44-4.17,4.59a1.61,1.61,0,0,1-1.21-.35,1.39,1.39,0,0,1,0-2.12q3.09-.18,3.92-2.67l.69-2.06-4.92-9.84a3.85,3.85,0,0,0-.39-.66,1.79,1.79,0,0,0-.92-.62,2.81,2.81,0,0,0-1-.17c-.08,0-.13-.13-.14-.41s0-.5.06-.54h1.59Q469.19,98.32,469.9,98.28Z"/><path class="cls-1" d="M486.6,107.11a1.94,1.94,0,0,1,.66,1.36,2,2,0,0,1-.5,1.44,1.84,1.84,0,0,1-1.34.69,1.92,1.92,0,0,1-1.46-.53,2,2,0,0,1-.68-1.38,1.91,1.91,0,0,1,.51-1.43,1.94,1.94,0,0,1,1.39-.68A1.87,1.87,0,0,1,486.6,107.11Z"/></svg>