<svg id="Layer_1" data-name="Layer 1" xmlns="http://www.w3.org/2000/svg" viewBox="0 0 652.58 317.2"><defs><style>.cls-1{fill:#fff;stroke:#1928eb;stroke-miterlimit:10;stroke-width:1.2px;}</style></defs><title>title</title><path class="cls-1" d="M20.43,98q-4.27-.8-9.15-1.49t-7.63-.91L.78,95.16a3.77,3.77,0,0,1,0-2.36q.45-2.42.88-2.34a23.9,23.9,0,0,0,5.58.09q3.73-.26,4.54-1.43,1.55-2.8,3.42-12.76L25.25,22.57q1.6-8.54,1.19-11.85-.14-1.65-3.51-3.31a22.82,22.82,0,0,0-5.5-2.06q-.57-.11-.17-2.24a3.94,3.94,0,0,1,1-2.46Q27.44,3,37,4.73q6.66,1.39,22.63,3.79t23.51,3.81q-.23,4.38.06,12.31t.29,8.67q-.85.58-3.12.15-1.57-.29-1.81-1.37Q76.22,18.55,62.7,16l-7.4-1.38q-10.53-2-11.16-.17a65.1,65.1,0,0,0-2.87,11.39L37.09,48.2q-.16.85,6.1,2l7.26,1.36.57.11q8.25,1.54,10,1.12t3.35-4.53q.83-2.06,1.52-3.4.33-1,2.46-.57a3.93,3.93,0,0,1,2.57,1.22l-5,26.89q-.68.46-2.81.06-1.85-.35-2.06-1.56a45.4,45.4,0,0,0-.71-6,8.42,8.42,0,0,0-.62-2.18q-.19-.18-1-1.08-1.64-1.48-12.88-3.58-10.11-1.89-10.32-.75L31.22,79.65q-1.44,7.68-.64,12.1.3,1.53,4.62,3.66a29,29,0,0,0,5.88,2.42q.71.13.26,2.55a4.21,4.21,0,0,1-.85,2.2Q23.56,98.54,20.43,98Z"/><path class="cls-1" d="M130.44,53.87q7.82,1.46,10.79,6.88-2.26,12.1-9.09,10.82-2.56-.48-5-3.88a9.05,9.05,0,0,0-5.59-4q-4.41-.83-7.74,3.19a19.29,19.29,0,0,0-4.23,8.86l-3.33,17.79a60.68,60.68,0,0,0-1.4,13q.1,1.05,3.39,2.77a20.42,20.42,0,0,0,4.57,2q.43.08.11,2.16a15.08,15.08,0,0,1-.59,2.76q-1.11-.36-7.43-2t-9.6-2.24q-3.41-.64-10-1.42t-7.72-.85q-.46-.68-.06-2.81t1-2a20.25,20.25,0,0,0,5.39-.1q3.69-.42,4.16-1.36A47.3,47.3,0,0,0,91,93.18L95.32,70q1.25-6.69-.57-9.53a7,7,0,0,0-2.8-2.73,16.55,16.55,0,0,0-3.25-1.49c-.88-.26-1.31-.49-1.27-.68q.77-4.13,1.51-4.14,6.65.65,23.71,0a8.67,8.67,0,0,1,1.19-.07c.38.07.65.47.81,1.18a3.48,3.48,0,0,1,0,1.7q-.19.63-.58,2c-.27.88-.56,1.81-.89,2.78a18.48,18.48,0,0,0-.57,1.88,26.56,26.56,0,0,1,8.26-5.6A15.85,15.85,0,0,1,130.44,53.87Z"/><path class="cls-1" d="M179.1,63a26.84,26.84,0,0,1,11.46,4.87,22.92,22.92,0,0,1,7,8.23,33.63,33.63,0,0,1,3,9.25,24.94,24.94,0,0,1,0,8.62q-.58,3.13-1.8,3.71t-4.49,0l-34-6.36q-1-.19-1.16.67a28.11,28.11,0,0,0,0,10.31,19.92,19.92,0,0,0,4.76,9.58,17,17,0,0,0,10.08,5.57,39.3,39.3,0,0,0,4.17.56,21.65,21.65,0,0,0,3.83,0q1.8-.18,3.16-.37a12.36,12.36,0,0,0,2.87-.79l2.15-.85q.63-.25,3.21-1.39a2.39,2.39,0,0,1,.55,1A2.79,2.79,0,0,1,194,117a4.44,4.44,0,0,1-1.36,2.54q-2.85,3.44-9.83,6.12A26.86,26.86,0,0,1,168,126.87a29.32,29.32,0,0,1-19.63-13.17,31.22,31.22,0,0,1-4.8-23.95Q146.29,75.39,156.29,68T179.1,63Zm-2.22,6.36a10.23,10.23,0,0,0-6.49.85,13.65,13.65,0,0,0-5,4.07,27.67,27.67,0,0,0-3.06,5,17.7,17.7,0,0,0-1.42,4.08c-.12.67.1,1,.67,1.16l23.05,4.31q1.28.24,1.68-1.89a18.76,18.76,0,0,0-1.46-10.73Q182.43,70.36,176.88,69.32Z"/><path class="cls-1" d="M241.14,74.56a26.85,26.85,0,0,1,11.46,4.87,22.9,22.9,0,0,1,7,8.23,33.63,33.63,0,0,1,3,9.25,24.94,24.94,0,0,1,0,8.62q-.58,3.13-1.8,3.71t-4.49,0l-34-6.36q-1-.19-1.16.67a28.13,28.13,0,0,0,0,10.31,19.92,19.92,0,0,0,4.76,9.58A17,17,0,0,0,236,129a39.57,39.57,0,0,0,4.17.56,21.65,21.65,0,0,0,3.83,0q1.8-.18,3.16-.37a12.46,12.46,0,0,0,2.87-.79l2.15-.85q.63-.25,3.21-1.39a2.39,2.39,0,0,1,.55,1,2.79,2.79,0,0,1,.16,1.5,4.44,4.44,0,0,1-1.36,2.54q-2.85,3.44-9.83,6.12a26.86,26.86,0,0,1-14.81,1.21,29.31,29.31,0,0,1-19.63-13.17,31.22,31.22,0,0,1-4.8-23.95Q208.33,87,218.33,79.58T241.14,74.56Zm-2.22,6.36a10.23,10.23,0,0,0-6.49.85,13.64,13.64,0,0,0-5,4.07,27.67,27.67,0,0,0-3.06,5,17.66,17.66,0,0,0-1.42,4.08c-.12.67.1,1,.67,1.16l23.05,4.31q1.28.24,1.68-1.9a18.77,18.77,0,0,0-1.45-10.73Q244.47,82,238.92,80.92Z"/><path class="cls-1" d="M306.08,86.41a24.87,24.87,0,0,1,10,3.93q.71.13,1.14-2.14l2.5-13.38a50.4,50.4,0,0,0,1-9.84q-.29-2.41-7-3.66l-1.14-.21q-.85-.16-.43-2.44t1.28-2.12q4.35.37,8.54.42t7-.17q2.77-.22,4.82-.57l3.12-.52a7.45,7.45,0,0,1,1.2-.14l.29.05c.38.07.71.4,1,1a2.63,2.63,0,0,1,.29,1.6,55.42,55.42,0,0,0-3.92,13.11L324,133.94a53.12,53.12,0,0,0-1.11,10.69,2.13,2.13,0,0,0,1.13,1.83,8.8,8.8,0,0,0,2.57,1.22c.93.27,1.82.51,2.66.72l1.41.34a3,3,0,0,1,0,1.76q-.53,2.85-1.38,2.69-2-.23-5.16-.38t-6.15-.19q-3,0-5.73,0t-6.13.11q-.85-.16-.4-2.58l.45-2.42a.65.65,0,0,0-.11-.61c-.12-.12-.25-.14-.36-.07a24.16,24.16,0,0,1-15.78,2.5,28,28,0,0,1-18.48-12.22q-7-10.06-4.56-22.87a34,34,0,0,1,14.26-22.3Q292.7,83.91,306.08,86.41ZM303.52,93a12.68,12.68,0,0,0-12.58,4.28q-5,5.69-7.06,16.5-2.26,12.1.89,19.68a14.22,14.22,0,0,0,11.12,9.07,12,12,0,0,0,8.29-1,8,8,0,0,0,4.17-5.77l5.59-29.88a10.08,10.08,0,0,0,.06-3.08,13.51,13.51,0,0,0-1.08-3.66,9.25,9.25,0,0,0-3.28-3.71A15.37,15.37,0,0,0,303.52,93Z"/><path class="cls-1" d="M380.16,100.55a31.91,31.91,0,0,1,21.1,13.59,31,31,0,0,1,5.25,24.32,32.79,32.79,0,0,1-64.46-12,31.19,31.19,0,0,1,13.55-20.88A31.71,31.71,0,0,1,380.16,100.55Zm-3.1,6.34q-6.69-1.25-11.6,4.53a31.13,31.13,0,0,0-6.59,14.75q-2.15,11.53.88,20.93T371,158q6.69,1.25,11.68-4.59a30.79,30.79,0,0,0,6.64-14.66,49.74,49.74,0,0,0,.72-14.08,25.54,25.54,0,0,0-4-11.72A13.43,13.43,0,0,0,377.07,106.89Z"/><path class="cls-1" d="M466.68,116.73a15.64,15.64,0,0,1,8.73,4.5,16.93,16.93,0,0,1,4.35,8.25,34.12,34.12,0,0,1,11.72-5.17,32.49,32.49,0,0,1,13.91-.34,16.42,16.42,0,0,1,8.33,3.91,16,16,0,0,1,4.51,7.4,34,34,0,0,1,1.34,9.38,55.31,55.31,0,0,1-1,10.49l-2.79,14.94a60.6,60.6,0,0,0-1.4,13q.1,1.05,3.46,2.78a21.36,21.36,0,0,0,4.64,2c.29.05.32.77.11,2.16a8.23,8.23,0,0,1-.73,2.74q-1-.33-7.37-2t-9.67-2.25q-3.41-.64-9.83-1.4t-7.72-.85a5.42,5.42,0,0,1,.08-2.78q.4-2.13.83-2.05a19.43,19.43,0,0,0,5.32-.11q3.61-.43,4.08-1.37a45.05,45.05,0,0,0,2.86-9.77l2.71-14.51Q507,135,493.77,132.54a13.19,13.19,0,0,0-8.25.81Q482,135,481,137.07c-.05.29-.15.66-.28,1.13a2.82,2.82,0,0,0-.14,1.15,70.92,70.92,0,0,1-1.22,8.9l-2.82,15.08a57,57,0,0,0-1.29,12.42q.1,1.05,3.46,2.78a21.36,21.36,0,0,0,4.64,2c.29.05.32.77.11,2.16a8.2,8.2,0,0,1-.73,2.74q-1-.33-7.36-2t-9.67-2.25q-3.42-.64-9.83-1.4t-7.72-.85a5.42,5.42,0,0,1,.08-2.78q.4-2.13.83-2.05a19.42,19.42,0,0,0,5.32-.11q3.61-.43,4.08-1.37a47.32,47.32,0,0,0,2.94-10.2l2.55-13.66q2.07-11.1-.27-16.69a11,11,0,0,0-8.75-6.79,13.86,13.86,0,0,0-8.28,1q-4,1.76-4.57,4.74l-4.58,24.48q-1.62,8.68-1.26,13,.1,1.05,3.31,2.76a19.68,19.68,0,0,0,4.5,1.95c.38.07.46.8.25,2.18a8.22,8.22,0,0,1-.73,2.74q-1.11-.36-7.36-2t-9.53-2.22q-3.56-.67-10-1.44t-7.65-.84q-.47-.68-.06-2.81t1-2a20.92,20.92,0,0,0,5.32-.11q3.75-.4,4.23-1.35a47.27,47.27,0,0,0,2.94-10.2l4.34-23.2q1.25-6.69-.57-9.53a7,7,0,0,0-2.8-2.73,16.26,16.26,0,0,0-3.33-1.51q-1.4-.41-1.34-.69.77-4.12,1.65-4.11,6.65.66,23.57,0a1,1,0,0,1,.47-.13,3.14,3.14,0,0,1,.72.06c.47.09.79.49,1,1.21a2.66,2.66,0,0,1,0,1.62,49.58,49.58,0,0,0-1.53,5c-.07.38,0,.64.15.76a2.13,2.13,0,0,0,.79-.29,32.12,32.12,0,0,1,9.87-4.34A25.34,25.34,0,0,1,466.68,116.73Z"/><path class="cls-1" d="M587.34,183.46q-1.62,8.68-1.26,13,.1,1.05,3.46,2.78a21.34,21.34,0,0,0,4.64,2c.38.07.46.8.25,2.18a8.24,8.24,0,0,1-.73,2.74q-1-.33-7.51-2t-9.67-2.25q-3.56-.67-10.11-1.45t-7.58-.83q-.46-.68-.06-2.81c.27-1.42.59-2.1,1-2a21,21,0,0,0,5.32-.11q3.75-.4,4.23-1.34a47.22,47.22,0,0,0,2.94-10.2l4.34-23.2q1.25-6.69-.58-9.53a8,8,0,0,0-2.87-2.75,15.26,15.26,0,0,0-3.26-1.49q-1.4-.41-1.34-.69.77-4.13,1.65-4.11a111.14,111.14,0,0,0,11.84.45,113.74,113.74,0,0,0,11.72-.46,8.54,8.54,0,0,0,1.19-.07c.47.09.79.49,1,1.21a2.66,2.66,0,0,1,0,1.62,124,124,0,0,0-3.43,12Zm-3.67-62.32a8.82,8.82,0,0,1-1.39-6.74,8.9,8.9,0,0,1,10.46-7.1,8.9,8.9,0,0,1,7.19,10.4,8.82,8.82,0,0,1-3.73,5.78,8.91,8.91,0,0,1-12.52-2.34Z"/><path class="cls-1" d="M635.9,148.21a61.52,61.52,0,0,1,16.05,5.5,82.28,82.28,0,0,1-1.41,16.23q-.21,1.14-2.06.79-3.13-.59-3.2-1.78a17.55,17.55,0,0,0-2.62-9.25,11.32,11.32,0,0,0-8-5.09,10.39,10.39,0,0,0-6.82.64,6.42,6.42,0,0,0-3.33,4.83,8.41,8.41,0,0,0,.1,3.78,9,9,0,0,0,2,3.54,35.53,35.53,0,0,0,2.71,2.86q1.19,1.11,3.63,3a9.24,9.24,0,0,0,1.29,1l1.92,1.54,2.11,1.72,2,1.78a25.87,25.87,0,0,1,2.18,2.1q.6.7,1.89,2.12a11.52,11.52,0,0,1,1.76,2.39q.48,1,1.29,2.52a9.32,9.32,0,0,1,1,2.84,27.56,27.56,0,0,1,.28,2.85,13.39,13.39,0,0,1-.21,3.13A17.06,17.06,0,0,1,639,210.13a27.47,27.47,0,0,1-17.69,2.07,48.38,48.38,0,0,1-17.61-7.42,57.84,57.84,0,0,1,.05-8.16,70.69,70.69,0,0,1,.82-8.31,3.07,3.07,0,0,1,2.13-.34q3.27.61,3.2,1.78a16,16,0,0,0,3.83,10.66,15.43,15.43,0,0,0,9.07,5.45,10.52,10.52,0,0,0,6.92-.77,7.06,7.06,0,0,0,3.65-5.36,9.53,9.53,0,0,0,.14-2.7,7.05,7.05,0,0,0-.9-2.67l-1.26-2.3a10.54,10.54,0,0,0-2.2-2.4q-1.71-1.5-2.54-2.17T623.36,185q-2.38-1.84-3.27-2.6a33.65,33.65,0,0,1-8.68-9.5A15.47,15.47,0,0,1,609.75,162q1.62-8.68,9.33-12.1A27.91,27.91,0,0,1,635.9,148.21Z"/><path class="cls-1" d="M168.24,210q18.56,2.08,15.26,31.57L182,255.25a60.61,60.61,0,0,0-.44,13.06q.17,1,3.72,2.53a22.2,22.2,0,0,0,4.84,1.63c.29,0,.38.75.27,2.14a8.19,8.19,0,0,1-.53,2.78q-.85-.24-7.49-1.42t-10-1.55q-3.45-.39-9.62-.64t-7.47-.25q-.51-.64-.27-2.8t.82-2.09a17.23,17.23,0,0,0,4.94-.54q3.36-.72,3.76-1.69A41.57,41.57,0,0,0,166.88,256l1.53-13.67q1.34-11.94-1.37-17.05t-9.75-5.9a13.4,13.4,0,0,0-8.34,1.62q-3.74,2.13-4.06,5l-2.77,24.75a60.62,60.62,0,0,0-.44,13.06q.17,1,3.58,2.51a20.83,20.83,0,0,0,4.55,1.6q.57.06.41,2.16a8.21,8.21,0,0,1-.53,2.78q-1.14-.27-7.49-1.42T132.55,270q-3.45-.39-10-.69t-7.76-.29q-.51-.64-.27-2.8c.16-1.44.43-2.14.82-2.09a20.18,20.18,0,0,0,5.37-.49q3.64-.68,4-1.66a47.31,47.31,0,0,0,2.18-10.39l2.62-23.45q.76-6.76-1.27-9.46a7,7,0,0,0-3-2.52,16.55,16.55,0,0,0-3.36-1.25c-.9-.2-1.34-.39-1.32-.58q.47-4.17,1.2-4.23,6.68.17,23.65-1.72a.93.93,0,0,1,.38-.18,1.39,1.39,0,0,1,.44,0l.36,0c.38,0,.68.42.9,1.12a4.43,4.43,0,0,1,.25,1.63,49.2,49.2,0,0,0-1.15,5.12,1.14,1.14,0,0,0,.06.74,2.13,2.13,0,0,0,.77-.35,32.12,32.12,0,0,1,9.52-5.05A25.34,25.34,0,0,1,168.24,210Z"/><path class="cls-1" d="M237.73,217.79a31.92,31.92,0,0,1,22,12,31,31,0,0,1,7,23.87,32.86,32.86,0,0,1-58.23,16.64,32.59,32.59,0,0,1,5-45.76A31.72,31.72,0,0,1,237.73,217.79Zm-2.63,6.55q-6.76-.76-11.24,5.37a31.14,31.14,0,0,0-5.49,15.19q-1.3,11.65,2.41,20.81t12.05,10.09q6.76.76,11.32-5.43a30.78,30.78,0,0,0,5.55-15.11,49.68,49.68,0,0,0-.32-14.09,25.53,25.53,0,0,0-4.84-11.39A13.43,13.43,0,0,0,235.1,224.35Z"/><path class="cls-1" d="M321.29,291.09q-4.31-.48-9.23-.81t-7.68-.35l-2.89-.18a3.78,3.78,0,0,1-.17-2.35q.27-2.45.71-2.4a23.92,23.92,0,0,0,5.57-.32q3.7-.53,4.42-1.76,1.34-2.91,2.47-13l6.09-54.38q1-8.63.31-11.91-.25-1.63-3.74-3A22.83,22.83,0,0,0,311.5,199q-.58-.06-.33-2.22a3.94,3.94,0,0,1,.86-2.52q9.29,1.62,18.93,2.7,6.74.9,22.85,2.12t23.73,2.07q.09,4.38,1,12.27t.93,8.63q-.8.64-3.1.38-1.58-.18-1.9-1.23-3.31-13.33-17-14.87l-7.48-.84q-10.65-1.19-11.14.65a65.18,65.18,0,0,0-2,11.57l-2.53,22.59q-.1.86,6.23,1.57l7.34.82.58.06q8.34.93,10,.39t3-4.76q.67-2.11,1.27-3.5.25-1,2.41-.75a3.93,3.93,0,0,1,2.65,1l-3,27.19q-.64.51-2.8.27-1.87-.21-2.17-1.41a45.51,45.51,0,0,0-1.16-6,8.44,8.44,0,0,0-.78-2.13l-1.13-1q-1.74-1.36-13.11-2.63-10.22-1.14-10.34,0L330.71,272q-.87,7.77.25,12.12.41,1.5,4.87,3.31a29.08,29.08,0,0,0,6,2q.72.08.45,2.53a4.22,4.22,0,0,1-.69,2.25Q324.46,291.45,321.29,291.09Z"/><path class="cls-1" d="M412.16,237.32a26.83,26.83,0,0,1,11.79,4,22.91,22.91,0,0,1,7.59,7.69,33.67,33.67,0,0,1,3.65,9,25,25,0,0,1,.64,8.59q-.35,3.17-1.52,3.84t-4.48.3l-34.38-3.85q-1-.11-1.1.75a28.12,28.12,0,0,0,.74,10.28,19.91,19.91,0,0,0,5.45,9.2A17,17,0,0,0,411,292a39.59,39.59,0,0,0,4.2.25,21.65,21.65,0,0,0,3.82-.3q1.78-.31,3.13-.6a12.4,12.4,0,0,0,2.81-1l2.08-1q.61-.29,3.09-1.62a2.37,2.37,0,0,1,.62.94,2.81,2.81,0,0,1,.27,1.49,4.46,4.46,0,0,1-1.17,2.64q-2.59,3.64-9.36,6.82a26.86,26.86,0,0,1-14.68,2.29,29.31,29.31,0,0,1-20.54-11.69,31.22,31.22,0,0,1-6.54-23.53q1.63-14.53,11.06-22.65T412.16,237.32Zm-1.75,6.5a10.24,10.24,0,0,0-6.41,1.32,13.67,13.67,0,0,0-4.72,4.43,27.67,27.67,0,0,0-2.69,5.16,17.61,17.61,0,0,0-1.12,4.17q-.11,1,.75,1.1l23.31,2.61q1.3.15,1.54-2A18.76,18.76,0,0,0,418.83,250Q416,244.45,410.42,243.82Z"/><path class="cls-1" d="M475.61,244.42q8.92,1,12.86,6.17t2.67,16.54L488,295.47a6.6,6.6,0,0,0,.8,4.53,4.35,4.35,0,0,0,3.28,1.9,9,9,0,0,0,5.1-1.32c.55.26.78.82.69,1.68a8.61,8.61,0,0,1-1.35,4.22,35.86,35.86,0,0,1-6.16,3,15.09,15.09,0,0,1-7.12,1.1,10.57,10.57,0,0,1-6.2-3.17,11.88,11.88,0,0,1-3.58-5.79c-.11.09-.5.36-1.18.81s-1.62,1-2.81,1.65a42.66,42.66,0,0,1-4,1.88,23.08,23.08,0,0,1-5.11,1.39,21,21,0,0,1-5.77.16q-7.19-.81-11.28-5.27T440,290.83a13.35,13.35,0,0,1,2.38-6.29,17.29,17.29,0,0,1,4.51-4.52,29.61,29.61,0,0,1,6.61-3.12,59.51,59.51,0,0,1,7-2.06q2.91-.62,7.44-1.42t6.32-1.19a2.28,2.28,0,0,0,1.55-2.16l.89-7.91q.56-5-1.42-8.17a7.56,7.56,0,0,0-5.86-3.57,8.78,8.78,0,0,0-7.06,1.91q-2.75,2.39-3.29,7.28a4.69,4.69,0,0,1-2.63,4,9,9,0,0,1-5,.82q-5.32-.6-7.09-4.29.77-6.91,10.87-11.89A36.32,36.32,0,0,1,475.61,244.42ZM463,298.93a11.23,11.23,0,0,0,6.92-1.27q3-1.7,3.32-4.29l1.64-14.67q-1.06.32-4.4,1t-5.16,1.17A39.72,39.72,0,0,0,461,282.4a8.73,8.73,0,0,0-3.73,2.79,8,8,0,0,0-1.53,3.91q-.52,4.61,1.54,7A8.32,8.32,0,0,0,463,298.93Z"/><path class="cls-1" d="M552.58,253q7.91.89,11.26,6.07-1.37,12.23-8.27,11.46-2.59-.29-5.29-3.51a9.06,9.06,0,0,0-5.86-3.57q-4.46-.5-7.48,3.75a19.26,19.26,0,0,0-3.57,9.14l-2,18a60.61,60.61,0,0,0-.44,13.06q.17,1,3.58,2.51a20.43,20.43,0,0,0,4.7,1.62c.29,0,.38.75.27,2.14a15.17,15.17,0,0,1-.39,2.8q-1.14-.27-7.56-1.43t-9.74-1.53q-3.45-.39-10-.69t-7.76-.29q-.51-.64-.27-2.8t.82-2.09a20.21,20.21,0,0,0,5.37-.49q3.64-.68,4-1.66a47.31,47.31,0,0,0,2.18-10.39l2.62-23.45q.76-6.76-1.27-9.47a7,7,0,0,0-3-2.52,16.54,16.54,0,0,0-3.36-1.25c-.9-.2-1.34-.39-1.32-.58q.47-4.17,1.2-4.24,6.68.17,23.65-1.72a8.74,8.74,0,0,1,1.18-.16c.38,0,.68.42.9,1.12a3.48,3.48,0,0,1,.17,1.69q-.15.64-.44,2t-.68,2.84a18.65,18.65,0,0,0-.43,1.92,26.57,26.57,0,0,1,7.83-6.19A15.87,15.87,0,0,1,552.58,253Z"/></svg>