<svg id="Layer_1" data-name="Layer 1" xmlns="http://www.w3.org/2000/svg" viewBox="0 0 1132.6 302.12"><defs><style>.cls-1{fill:#fff;stroke:#1928eb;stroke-miterlimit:10;stroke-width:1.2px;}</style></defs><title>title</title><path class="cls-1" d="M20.43,98q-4.27-.8-9.15-1.49t-7.63-.91L.78,95.16a3.79,3.79,0,0,1,0-2.36q.45-2.42.88-2.34a23.93,23.93,0,0,0,5.58.09q3.73-.26,4.54-1.43,1.55-2.8,3.42-12.76L25.25,22.57q1.6-8.54,1.18-11.85-.13-1.64-3.5-3.31a22.84,22.84,0,0,0-5.51-2.06q-.57-.11-.17-2.24a3.94,3.94,0,0,1,1-2.45Q27.44,3,37,4.73q6.66,1.39,22.63,3.79t23.51,3.81q-.23,4.38.06,12.31t.29,8.67q-.85.58-3.12.15-1.57-.29-1.81-1.37Q76.22,18.55,62.7,16l-7.4-1.38q-10.53-2-11.16-.17a65.08,65.08,0,0,0-2.87,11.39L37.09,48.2q-.16.85,6.1,2l7.26,1.36.57.11q8.25,1.54,10,1.12t3.35-4.53q.82-2.06,1.52-3.4.33-1,2.46-.57a3.93,3.93,0,0,1,2.57,1.22l-5,26.89q-.68.46-2.81.06-1.85-.35-2.06-1.56a45.54,45.54,0,0,0-.71-6,8.43,8.43,0,0,0-.62-2.18c-.12-.12-.48-.48-1-1.08q-1.64-1.48-12.88-3.59-10.11-1.89-10.32-.75L31.22,79.65q-1.44,7.68-.64,12.1.3,1.53,4.62,3.66a29.07,29.07,0,0,0,5.88,2.42q.71.13.26,2.55a4.21,4.21,0,0,1-.85,2.2Q23.56,98.54,20.43,98Z"/><path class="cls-1" d="M130.44,53.87q7.82,1.46,10.79,6.88-2.26,12.1-9.09,10.82-2.56-.48-5-3.88a9.06,9.06,0,0,0-5.59-4q-4.41-.83-7.74,3.19a19.27,19.27,0,0,0-4.23,8.85l-3.33,17.79a60.69,60.69,0,0,0-1.4,13q.1,1.05,3.39,2.77a20.45,20.45,0,0,0,4.57,2q.43.08.11,2.16a15.11,15.11,0,0,1-.59,2.76q-1.11-.36-7.43-2t-9.6-2.24q-3.41-.64-10-1.42t-7.72-.85q-.46-.68-.06-2.81t1-2a20.21,20.21,0,0,0,5.39-.1q3.69-.42,4.16-1.36A47.28,47.28,0,0,0,91,93.18L95.32,70q1.25-6.69-.57-9.53a7,7,0,0,0-2.8-2.73,16.56,16.56,0,0,0-3.26-1.49q-1.33-.39-1.27-.68.77-4.13,1.51-4.14,6.65.66,23.71,0a8.77,8.77,0,0,1,1.19-.07c.38.07.65.47.81,1.18a3.47,3.47,0,0,1,0,1.7q-.19.63-.59,2T113.21,59a18.28,18.28,0,0,0-.57,1.88,26.55,26.55,0,0,1,8.26-5.6A15.86,15.86,0,0,1,130.44,53.87Z"/><path class="cls-1" d="M179.1,63a26.84,26.84,0,0,1,11.46,4.87,22.92,22.92,0,0,1,7,8.23,33.66,33.66,0,0,1,3,9.25,25,25,0,0,1,0,8.62q-.59,3.13-1.8,3.71t-4.49,0l-34-6.36q-1-.19-1.16.67a28.11,28.11,0,0,0,0,10.31,19.9,19.9,0,0,0,4.76,9.58,17,17,0,0,0,10.08,5.57,39.39,39.39,0,0,0,4.17.56,21.66,21.66,0,0,0,3.83,0q1.8-.18,3.16-.37a12.42,12.42,0,0,0,2.87-.79l2.15-.85q.63-.25,3.2-1.39a2.38,2.38,0,0,1,.55,1A2.79,2.79,0,0,1,194,117a4.45,4.45,0,0,1-1.36,2.54q-2.85,3.44-9.83,6.12A26.86,26.86,0,0,1,168,126.87a29.32,29.32,0,0,1-19.63-13.17,31.22,31.22,0,0,1-4.8-23.95Q146.29,75.39,156.29,68T179.1,63Zm-2.22,6.36a10.23,10.23,0,0,0-6.49.85,13.66,13.66,0,0,0-5,4.07,27.69,27.69,0,0,0-3.06,5,17.71,17.71,0,0,0-1.42,4.08c-.12.67.1,1,.67,1.16l23.05,4.31q1.28.24,1.68-1.9a18.75,18.75,0,0,0-1.46-10.73Q182.43,70.36,176.88,69.32Z"/><path class="cls-1" d="M241.14,74.56a26.85,26.85,0,0,1,11.46,4.87,22.92,22.92,0,0,1,7,8.23,33.65,33.65,0,0,1,3,9.25,25,25,0,0,1,0,8.62q-.59,3.13-1.8,3.71t-4.49,0l-34-6.36q-1-.19-1.16.67a28.13,28.13,0,0,0,0,10.31,19.9,19.9,0,0,0,4.76,9.58A17,17,0,0,0,236,129a39.41,39.41,0,0,0,4.17.56,21.65,21.65,0,0,0,3.83,0q1.8-.18,3.16-.37a12.44,12.44,0,0,0,2.87-.79l2.15-.85q.63-.25,3.21-1.39a2.39,2.39,0,0,1,.55,1,2.79,2.79,0,0,1,.16,1.5,4.45,4.45,0,0,1-1.36,2.54q-2.85,3.44-9.83,6.12a26.86,26.86,0,0,1-14.81,1.21,29.31,29.31,0,0,1-19.63-13.17,31.22,31.22,0,0,1-4.8-23.95Q208.33,87,218.34,79.58T241.14,74.56Zm-2.22,6.36a10.23,10.23,0,0,0-6.49.85,13.65,13.65,0,0,0-5,4.07,27.63,27.63,0,0,0-3.06,5,17.67,17.67,0,0,0-1.43,4.08q-.19,1,.67,1.16l23.05,4.31q1.28.24,1.68-1.9a18.76,18.76,0,0,0-1.45-10.73Q244.47,82,238.92,80.92Z"/><path class="cls-1" d="M306.08,86.41a24.87,24.87,0,0,1,10,3.93q.71.13,1.14-2.14l2.5-13.38a50.39,50.39,0,0,0,1-9.84q-.29-2.41-7-3.66l-1.14-.21q-.85-.16-.43-2.44t1.28-2.12q4.35.37,8.54.42t7-.17q2.77-.22,4.82-.57l3.12-.52a7.39,7.39,0,0,1,1.2-.14l.29.05c.38.07.71.4,1,1a2.63,2.63,0,0,1,.29,1.6,55.42,55.42,0,0,0-3.92,13.11L324,133.94a53.11,53.11,0,0,0-1.11,10.69,2.13,2.13,0,0,0,1.13,1.83,8.8,8.8,0,0,0,2.57,1.22c.93.27,1.82.51,2.66.72l1.41.34a3,3,0,0,1,0,1.76q-.53,2.85-1.38,2.69-2-.23-5.16-.38t-6.15-.19q-3,0-5.73,0t-6.13.11q-.85-.16-.4-2.58l.45-2.42a.65.65,0,0,0-.11-.61c-.13-.12-.25-.14-.36-.07a24.16,24.16,0,0,1-15.78,2.5,28.05,28.05,0,0,1-18.48-12.22q-7-10.06-4.56-22.87a34,34,0,0,1,14.26-22.3Q292.7,83.91,306.08,86.41ZM303.52,93a12.68,12.68,0,0,0-12.58,4.27q-5,5.69-7.06,16.5-2.26,12.1.89,19.68a14.22,14.22,0,0,0,11.12,9.07,12,12,0,0,0,8.29-1,8,8,0,0,0,4.17-5.77l5.59-29.88a10.08,10.08,0,0,0,.06-3.08,13.51,13.51,0,0,0-1.08-3.66,9.24,9.24,0,0,0-3.28-3.71A15.37,15.37,0,0,0,303.52,93Z"/><path class="cls-1" d="M380.16,100.55a31.92,31.92,0,0,1,21.1,13.59,31,31,0,0,1,5.25,24.32A32.79,32.79,0,0,1,342,126.41a31.19,31.19,0,0,1,13.55-20.88A31.71,31.71,0,0,1,380.16,100.55Zm-3.1,6.34q-6.69-1.25-11.6,4.53a31.13,31.13,0,0,0-6.59,14.75q-2.15,11.53.88,20.93T371,158q6.69,1.25,11.68-4.59a30.79,30.79,0,0,0,6.64-14.66,49.74,49.74,0,0,0,.72-14.08,25.54,25.54,0,0,0-4-11.72A13.43,13.43,0,0,0,377.06,106.89Z"/><path class="cls-1" d="M466.68,116.73a15.64,15.64,0,0,1,8.73,4.5,16.93,16.93,0,0,1,4.35,8.25,34.11,34.11,0,0,1,11.72-5.17,32.49,32.49,0,0,1,13.91-.35,16.43,16.43,0,0,1,8.33,3.91,16,16,0,0,1,4.51,7.4,34,34,0,0,1,1.34,9.38,55.31,55.31,0,0,1-1,10.49l-2.79,14.94a60.61,60.61,0,0,0-1.4,13q.1,1.05,3.46,2.78a21.31,21.31,0,0,0,4.64,2c.29.05.32.77.11,2.16a8.23,8.23,0,0,1-.73,2.74q-1-.33-7.37-2t-9.67-2.25q-3.41-.64-9.83-1.4t-7.72-.85a5.42,5.42,0,0,1,.08-2.78q.4-2.13.83-2.05a19.43,19.43,0,0,0,5.32-.11q3.61-.43,4.08-1.37a45.07,45.07,0,0,0,2.86-9.77l2.71-14.51Q507,135,493.77,132.54a13.19,13.19,0,0,0-8.25.81Q482,135,481,137.07c-.05.29-.15.66-.28,1.13a2.82,2.82,0,0,0-.14,1.15,70.92,70.92,0,0,1-1.22,8.9l-2.82,15.08a57,57,0,0,0-1.29,12.42q.1,1.05,3.46,2.78a21.31,21.31,0,0,0,4.64,2c.29.05.32.77.11,2.16a8.2,8.2,0,0,1-.73,2.74q-1-.33-7.36-2t-9.67-2.25q-3.42-.64-9.83-1.4t-7.72-.85a5.42,5.42,0,0,1,.08-2.78q.4-2.13.83-2.05a19.43,19.43,0,0,0,5.32-.11q3.61-.43,4.08-1.37a47.34,47.34,0,0,0,2.94-10.2l2.55-13.66q2.07-11.1-.27-16.69a11,11,0,0,0-8.75-6.79,13.86,13.86,0,0,0-8.28,1q-4,1.76-4.57,4.74l-4.58,24.48q-1.62,8.68-1.26,13,.1,1.05,3.31,2.76a19.66,19.66,0,0,0,4.5,1.95q.57.11.25,2.18a8.22,8.22,0,0,1-.73,2.74q-1.11-.36-7.36-2t-9.53-2.22q-3.56-.67-10-1.44t-7.65-.84q-.47-.68-.06-2.81t1-2a21,21,0,0,0,5.32-.11q3.75-.4,4.23-1.35a47.27,47.27,0,0,0,2.94-10.2l4.34-23.2q1.25-6.69-.57-9.53a7,7,0,0,0-2.8-2.73,16.31,16.31,0,0,0-3.33-1.51q-1.4-.41-1.34-.69.77-4.12,1.65-4.11,6.65.66,23.57,0a.94.94,0,0,1,.47-.13,3.12,3.12,0,0,1,.72.06c.47.09.79.49,1,1.21a2.66,2.66,0,0,1,0,1.62,49.54,49.54,0,0,0-1.53,5c-.07.38,0,.64.15.77a2.13,2.13,0,0,0,.79-.29,32.11,32.11,0,0,1,9.87-4.34A25.34,25.34,0,0,1,466.68,116.73Z"/><path class="cls-1" d="M587.34,183.46q-1.62,8.68-1.26,13,.1,1.05,3.46,2.78a21.29,21.29,0,0,0,4.64,2c.38.07.46.8.25,2.18a8.24,8.24,0,0,1-.73,2.73q-1-.33-7.51-2t-9.67-2.25q-3.56-.67-10.11-1.45t-7.58-.83q-.46-.68-.06-2.81c.27-1.42.59-2.1,1-2a21,21,0,0,0,5.32-.11q3.75-.4,4.23-1.35a47.22,47.22,0,0,0,2.94-10.2l4.34-23.2q1.25-6.69-.58-9.53a8,8,0,0,0-2.87-2.75,15.26,15.26,0,0,0-3.26-1.49q-1.4-.41-1.34-.69.77-4.13,1.65-4.11a111,111,0,0,0,11.84.45,113.6,113.6,0,0,0,11.72-.46,8.54,8.54,0,0,0,1.19-.07c.47.09.79.49,1,1.21a2.66,2.66,0,0,1,0,1.62,124,124,0,0,0-3.43,12Zm-3.67-62.32a8.82,8.82,0,0,1-1.39-6.74,8.9,8.9,0,0,1,10.46-7.1,8.9,8.9,0,0,1,7.19,10.4,8.82,8.82,0,0,1-3.73,5.78,8.92,8.92,0,0,1-12.52-2.34Z"/><path class="cls-1" d="M635.9,148.21a61.54,61.54,0,0,1,16.05,5.5,82.28,82.28,0,0,1-1.41,16.23q-.21,1.14-2.06.79-3.13-.59-3.2-1.78a17.55,17.55,0,0,0-2.62-9.25,11.32,11.32,0,0,0-8-5.09,10.39,10.39,0,0,0-6.82.64,6.43,6.43,0,0,0-3.33,4.83,8.41,8.41,0,0,0,.1,3.78,9,9,0,0,0,2,3.54,35.51,35.51,0,0,0,2.71,2.86q1.19,1.11,3.63,3a9.32,9.32,0,0,0,1.29,1l1.92,1.54,2.11,1.72,2,1.78a26,26,0,0,1,2.18,2.1q.6.7,1.89,2.12a11.52,11.52,0,0,1,1.76,2.39q.48,1,1.29,2.52a9.31,9.31,0,0,1,1,2.84,27.56,27.56,0,0,1,.28,2.85,13.39,13.39,0,0,1-.21,3.13A17.06,17.06,0,0,1,639,210.13a27.47,27.47,0,0,1-17.69,2.07,48.37,48.37,0,0,1-17.61-7.42,57.83,57.83,0,0,1,.05-8.16,70.7,70.7,0,0,1,.82-8.31,3.07,3.07,0,0,1,2.13-.34q3.27.61,3.2,1.78a16,16,0,0,0,3.83,10.66,15.43,15.43,0,0,0,9.07,5.45,10.52,10.52,0,0,0,6.92-.77,7.06,7.06,0,0,0,3.65-5.36,9.53,9.53,0,0,0,.14-2.7,7.05,7.05,0,0,0-.9-2.67l-1.26-2.3a10.52,10.52,0,0,0-2.2-2.4q-1.71-1.5-2.54-2.17T623.36,185q-2.38-1.84-3.27-2.6a33.65,33.65,0,0,1-8.68-9.5A15.47,15.47,0,0,1,609.75,162q1.62-8.68,9.33-12.1A27.91,27.91,0,0,1,635.9,148.21Z"/><path class="cls-1" d="M741,168q18.36,3.43,12.9,32.6l-2.53,13.52a60.61,60.61,0,0,0-1.4,13q.1,1.05,3.53,2.79a22.16,22.16,0,0,0,4.71,2c.29.05.32.77.11,2.16a8.25,8.25,0,0,1-.73,2.73q-.83-.3-7.37-2t-9.81-2.28q-3.42-.64-9.54-1.34t-7.43-.8q-.46-.68-.06-2.81t1-2a17.21,17.21,0,0,0,5-.18q3.4-.47,3.87-1.41a41.55,41.55,0,0,0,3.08-10.17l2.53-13.52q2.21-11.81-.12-17.1t-9.3-6.6a13.4,13.4,0,0,0-8.43,1q-3.88,1.85-4.41,4.7L712,206.77a60.69,60.69,0,0,0-1.4,13q.1,1.05,3.39,2.77a20.82,20.82,0,0,0,4.42,1.93c.38.07.46.8.25,2.18a8.22,8.22,0,0,1-.73,2.73q-1.11-.36-7.36-2T701,225.19q-3.42-.64-10-1.42t-7.72-.85q-.46-.68-.06-2.81t1-2a20.19,20.19,0,0,0,5.39-.1q3.69-.42,4.16-1.36a47.22,47.22,0,0,0,2.94-10.2l4.34-23.2q1.25-6.69-.58-9.53a7,7,0,0,0-2.8-2.73,16.56,16.56,0,0,0-3.26-1.49q-1.33-.39-1.27-.68.77-4.13,1.51-4.14,6.65.66,23.71,0a1,1,0,0,1,.4-.15,1.38,1.38,0,0,1,.44,0l.36.07c.38.07.65.47.81,1.18a4.4,4.4,0,0,1,.13,1.65,49.27,49.27,0,0,0-1.53,5,1.14,1.14,0,0,0,0,.74,2.14,2.14,0,0,0,.79-.29,32.11,32.11,0,0,1,9.87-4.34A25.34,25.34,0,0,1,741,168Z"/><path class="cls-1" d="M809.76,180.86a31.91,31.91,0,0,1,21.1,13.59,31,31,0,0,1,5.25,24.32,32.79,32.79,0,0,1-64.46-12.05,31.18,31.18,0,0,1,13.55-20.88A31.72,31.72,0,0,1,809.76,180.86Zm-3.1,6.34q-6.69-1.25-11.6,4.53a31.13,31.13,0,0,0-6.59,14.75q-2.15,11.53.88,20.93t11.28,10.95q6.69,1.25,11.68-4.59A30.79,30.79,0,0,0,819,219.1a49.74,49.74,0,0,0,.72-14.08,25.55,25.55,0,0,0-4-11.72A13.43,13.43,0,0,0,806.66,187.2Z"/><path class="cls-1" d="M887.72,260.09q-4.27-.8-9.15-1.49t-7.63-.91l-2.87-.39a3.79,3.79,0,0,1,0-2.36q.45-2.42.88-2.34a23.91,23.91,0,0,0,5.58.09q3.73-.26,4.54-1.43,1.55-2.8,3.42-12.76l10.05-53.79q1.6-8.54,1.18-11.85-.13-1.64-3.51-3.31a22.78,22.78,0,0,0-5.5-2.06q-.57-.11-.17-2.24a3.94,3.94,0,0,1,1-2.45q9.14,2.3,18.68,4.08,6.66,1.39,22.63,3.79t23.51,3.81q-.23,4.37.06,12.31t.29,8.67q-.85.58-3.12.15-1.57-.29-1.81-1.37-2.33-13.54-15.85-16.07l-7.4-1.38q-10.53-2-11.16-.17A65.2,65.2,0,0,0,908.57,188l-4.18,22.34q-.16.85,6.1,2l7.26,1.36.57.11q8.25,1.54,10,1.12t3.35-4.53q.83-2.06,1.52-3.4.33-1,2.46-.57a3.93,3.93,0,0,1,2.57,1.22l-5,26.89q-.68.46-2.81.06-1.85-.35-2.06-1.56a45.55,45.55,0,0,0-.71-6,8.47,8.47,0,0,0-.62-2.18q-.19-.18-1-1.08-1.64-1.48-12.88-3.59-10.1-1.89-10.32-.75l-4.18,22.34q-1.44,7.68-.64,12.1.3,1.53,4.62,3.66a29.11,29.11,0,0,0,5.88,2.42q.71.13.26,2.55a4.21,4.21,0,0,1-.85,2.2Q890.86,260.67,887.72,260.09Z"/><path class="cls-1" d="M982.3,213.12A26.86,26.86,0,0,1,993.76,218a22.91,22.91,0,0,1,7,8.23,33.65,33.65,0,0,1,3,9.25,25,25,0,0,1,0,8.62q-.59,3.13-1.8,3.71t-4.49,0l-34-6.36q-1-.19-1.16.67a28.15,28.15,0,0,0,0,10.31,19.91,19.91,0,0,0,4.76,9.58,17,17,0,0,0,10.08,5.57,39.44,39.44,0,0,0,4.17.56,21.65,21.65,0,0,0,3.83,0q1.8-.18,3.16-.37a12.42,12.42,0,0,0,2.87-.79l2.15-.85q.63-.25,3.21-1.39a2.39,2.39,0,0,1,.55,1,2.8,2.8,0,0,1,.16,1.5,4.45,4.45,0,0,1-1.36,2.54q-2.85,3.44-9.83,6.12A26.86,26.86,0,0,1,971.23,277a29.32,29.32,0,0,1-19.63-13.17,31.22,31.22,0,0,1-4.8-23.95q2.69-14.37,12.69-21.78T982.3,213.12Zm-2.22,6.36a10.23,10.23,0,0,0-6.49.85,13.66,13.66,0,0,0-5,4.07,27.63,27.63,0,0,0-3.06,5,17.67,17.67,0,0,0-1.43,4.08c-.12.67.1,1,.67,1.16l23.05,4.31q1.28.24,1.68-1.9A18.77,18.77,0,0,0,988,226.26Q985.62,220.51,980.07,219.48Z"/><path class="cls-1" d="M1045,224.85q8.82,1.65,12.37,7.1t1.44,16.69l-5.24,28a6.6,6.6,0,0,0,.47,4.58,4.34,4.34,0,0,0,3.14,2.13,9,9,0,0,0,5.18-.95c.53.3.72.87.56,1.73a8.59,8.59,0,0,1-1.65,4.11,35.85,35.85,0,0,1-6.36,2.49,15.09,15.09,0,0,1-7.18.57,10.57,10.57,0,0,1-6-3.62,11.88,11.88,0,0,1-3.14-6q-.17.12-1.24.73t-2.92,1.44a42.58,42.58,0,0,1-4.12,1.58,23.09,23.09,0,0,1-5.2,1,21,21,0,0,1-5.77-.27q-7.12-1.33-10.87-6.08t-2.47-11.58a13.34,13.34,0,0,1,2.83-6.1,17.29,17.29,0,0,1,4.83-4.18,29.65,29.65,0,0,1,6.82-2.63,59.7,59.7,0,0,1,7.14-1.54q2.95-.4,7.53-.88t6.39-.72a2.28,2.28,0,0,0,1.71-2l1.46-7.83q.93-5-.81-8.25a7.56,7.56,0,0,0-5.59-4,8.78,8.78,0,0,0-7.18,1.38q-2.91,2.18-3.81,7a4.69,4.69,0,0,1-2.92,3.8,9,9,0,0,1-5.09.45q-5.27-1-6.76-4.8,1.28-6.83,11.71-11.06A36.31,36.31,0,0,1,1045,224.85Zm-16.62,53.45a11.23,11.23,0,0,0,7-.75q3.15-1.47,3.63-4l2.71-14.51q-1.08.24-4.46.64t-5.23.79a39.52,39.52,0,0,0-4.36,1.25,8.73,8.73,0,0,0-3.93,2.51A8,8,0,0,0,1022,268q-.85,4.56,1,7.11A8.32,8.32,0,0,0,1028.43,278.29Z"/><path class="cls-1" d="M1121.18,239.08Q1129,240.54,1132,246q-2.26,12.1-9.09,10.82-2.56-.48-5-3.88a9.06,9.06,0,0,0-5.59-4q-4.41-.82-7.74,3.19a19.27,19.27,0,0,0-4.23,8.85L1097,278.74a60.69,60.69,0,0,0-1.4,13q.1,1.05,3.39,2.77a20.49,20.49,0,0,0,4.57,2c.29.05.32.77.11,2.16a15.2,15.2,0,0,1-.59,2.76q-1.11-.36-7.43-2t-9.6-2.24q-3.41-.64-10-1.42t-7.72-.85q-.47-.68-.06-2.81t1-2a20.19,20.19,0,0,0,5.39-.1q3.68-.42,4.16-1.36a47.27,47.27,0,0,0,2.94-10.2l4.34-23.2q1.25-6.69-.57-9.53a7,7,0,0,0-2.8-2.73,16.5,16.5,0,0,0-3.25-1.49q-1.33-.39-1.27-.68.77-4.13,1.51-4.14,6.65.66,23.71,0a8.68,8.68,0,0,1,1.19-.07c.38.07.65.47.81,1.18a3.48,3.48,0,0,1,0,1.7q-.19.63-.59,2t-.89,2.78a18.54,18.54,0,0,0-.57,1.88,26.56,26.56,0,0,1,8.26-5.6A15.86,15.86,0,0,1,1121.18,239.08Z"/></svg>