<svg id="Layer_1" data-name="Layer 1" xmlns="http://www.w3.org/2000/svg" viewBox="0 0 622.05 196.86"><defs><style>.cls-1{fill:#1928eb;}</style></defs><title>title</title><path class="cls-1" d="M13.47.2l4,16.31q.27,1.24.57,2.28a1.45,1.45,0,0,0,.84.84,3.94,3.94,0,0,0,1.08.43c.08,0,.09.19,0,.55a1,1,0,0,1-.12.43l-3.68-.71L12.31,20a.84.84,0,0,1,0-.56q.06-.43.18-.41a3.81,3.81,0,0,0,1,0,1.19,1.19,0,0,0,.79-.31.86.86,0,0,0,.14-.37,6.87,6.87,0,0,0-.27-2.11l-.64-2.88a.33.33,0,0,0-.19-.15q-.93-.19-2.52-.42T7.4,12.31c-.12,0-.18,0-.19.09L5.7,15a8.42,8.42,0,0,0-.84,1.83.66.66,0,0,0,.24.64A3,3,0,0,0,6,17.9a5.12,5.12,0,0,0,.88.28c.05,0,.07.17,0,.42a2,2,0,0,1-.14.55l-1.37-.29q-1.22-.27-2-.38T1.57,18.3l-1.5-.11A.62.62,0,0,1,0,17.73c.05-.35.1-.53.14-.52a4.3,4.3,0,0,0,1.17-.09,1.84,1.84,0,0,0,1.07-.43,14.21,14.21,0,0,0,1.45-2.13L11.21,2.1a6.45,6.45,0,0,1,1.39-2A.76.76,0,0,1,13.14,0,.49.49,0,0,1,13.47.2ZM8.36,10.64q1,.24,2.11.39t2.43.26l.08-.11L11.58,5,8.32,10.52Q8.3,10.64,8.36,10.64Z"/><path class="cls-1" d="M33.42,9.62q3.8.55,2.93,6.58l-.4,2.8a12.44,12.44,0,0,0-.17,2.68q0,.21.75.54a4.55,4.55,0,0,0,1,.37c.06,0,.07.16,0,.44a1.71,1.71,0,0,1-.13.57q-.17-.05-1.53-.34t-2-.38q-.71-.1-2-.19l-1.53-.1a.87.87,0,0,1,0-.58c0-.29.1-.44.18-.42a3.52,3.52,0,0,0,1-.08c.46-.08.72-.19.78-.32a8.49,8.49,0,0,0,.54-2.11l.4-2.79a6.44,6.44,0,0,0-.17-3.51,2.38,2.38,0,0,0-2-1.27,2.75,2.75,0,0,0-1.72.28,1.43,1.43,0,0,0-.87,1l-.73,5.06a12.37,12.37,0,0,0-.17,2.68c0,.14.26.32.72.54a4.29,4.29,0,0,0,.92.36c.08,0,.1.16.07.45a1.74,1.74,0,0,1-.12.57l-1.53-.34q-1.3-.28-2-.37t-2.06-.21l-1.59-.11a.88.88,0,0,1,0-.58c0-.29.1-.44.18-.42a4.12,4.12,0,0,0,1.11-.07c.5-.08.78-.18.84-.31a9.75,9.75,0,0,0,.51-2.12l.69-4.8a2.84,2.84,0,0,0-.2-2,1.44,1.44,0,0,0-.6-.54,3.4,3.4,0,0,0-.68-.28c-.18,0-.27-.09-.27-.13.08-.57.17-.86.27-.86a42.08,42.08,0,0,0,4.87-.2l.08,0H29c.08,0,.14.09.18.24a.93.93,0,0,1,0,.34,10.36,10.36,0,0,0-.27,1,.24.24,0,0,0,0,.15.43.43,0,0,0,.16-.07,6.64,6.64,0,0,1,2-1A5.2,5.2,0,0,1,33.42,9.62Z"/><path class="cls-1" d="M53.76,12.55a5.5,5.5,0,0,1,2.39.9,4.71,4.71,0,0,1,1.51,1.63,7,7,0,0,1,.69,1.87,5.14,5.14,0,0,1,.08,1.77c-.06.43-.18.69-.34.78a1.7,1.7,0,0,1-.92,0l-7-1c-.14,0-.21,0-.23.15A5.76,5.76,0,0,0,50,20.78a4.09,4.09,0,0,0,1.06,1.92,3.5,3.5,0,0,0,2.12,1.05,8.37,8.37,0,0,0,.86.08,4.46,4.46,0,0,0,.79,0l.65-.1a2.55,2.55,0,0,0,.58-.19l.43-.19.65-.31a.5.5,0,0,1,.12.2.58.58,0,0,1,0,.31A.91.91,0,0,1,57,24a4.83,4.83,0,0,1-2,1.34,5.51,5.51,0,0,1-3,.38,6,6,0,0,1-4.14-2.53,6.41,6.41,0,0,1-1.19-4.87,6.88,6.88,0,0,1,2.42-4.58A5.76,5.76,0,0,1,53.76,12.55Zm-.4,1.32A2.11,2.11,0,0,0,52,14.1,2.82,2.82,0,0,0,51,15a5.74,5.74,0,0,0-.58,1,3.66,3.66,0,0,0-.26.85c0,.14,0,.21.15.23l4.77.69q.27,0,.33-.4a3.85,3.85,0,0,0-.39-2.19A2.13,2.13,0,0,0,53.36,13.87Z"/><path class="cls-1" d="M65.66,14.23a12.58,12.58,0,0,1,3.34,1,16.87,16.87,0,0,1-.15,3.34c0,.16-.16.22-.42.18-.43-.06-.66-.17-.67-.34a3.62,3.62,0,0,0-.62-1.88,2.33,2.33,0,0,0-1.68-1,2.13,2.13,0,0,0-1.39.19,1.32,1.32,0,0,0-.64,1,1.71,1.71,0,0,0,.05.77,1.85,1.85,0,0,0,.44.71,7.32,7.32,0,0,0,.58.56c.17.14.43.34.77.59a1.79,1.79,0,0,0,.27.19l.41.3.45.33.43.35a5.55,5.55,0,0,1,.47.41l.4.42a2.29,2.29,0,0,1,.38.48l.29.51a1.88,1.88,0,0,1,.23.57,5.82,5.82,0,0,1,.08.58,2.74,2.74,0,0,1,0,.64,3.5,3.5,0,0,1-1.85,2.72,5.64,5.64,0,0,1-3.61.58,9.92,9.92,0,0,1-3.68-1.37,12,12,0,0,1-.06-1.67,14.63,14.63,0,0,1,.1-1.71.63.63,0,0,1,.43-.09q.68.1.67.34a3.28,3.28,0,0,0,.88,2.15,3.16,3.16,0,0,0,1.91,1A2.15,2.15,0,0,0,64.88,26a1.44,1.44,0,0,0,.7-1.13,2,2,0,0,0,0-.55,1.44,1.44,0,0,0-.21-.54l-.28-.46a2.2,2.2,0,0,0-.47-.47l-.54-.42-.68-.49-.69-.51a6.92,6.92,0,0,1-1.86-1.87,3.18,3.18,0,0,1-.43-2.21,3.19,3.19,0,0,1,1.81-2.56A5.74,5.74,0,0,1,65.66,14.23Z"/><path class="cls-1" d="M76.73,15.82a12.61,12.61,0,0,1,3.34,1,16.8,16.8,0,0,1-.15,3.34c0,.16-.16.22-.42.18q-.65-.09-.67-.34a3.61,3.61,0,0,0-.62-1.88,2.33,2.33,0,0,0-1.68-1,2.14,2.14,0,0,0-1.39.19,1.32,1.32,0,0,0-.64,1,1.74,1.74,0,0,0,.05.77,1.85,1.85,0,0,0,.44.71,7.33,7.33,0,0,0,.58.56c.17.14.43.34.77.59a1.83,1.83,0,0,0,.27.19l.41.3.45.33.43.35a5.29,5.29,0,0,1,.46.41l.41.42a2.32,2.32,0,0,1,.38.48l.29.51a2,2,0,0,1,.23.57c0,.17.06.37.08.58a2.79,2.79,0,0,1,0,.64A3.5,3.5,0,0,1,77.9,28.5a5.64,5.64,0,0,1-3.61.58,9.93,9.93,0,0,1-3.68-1.37A12,12,0,0,1,70.55,26a14.67,14.67,0,0,1,.1-1.71.63.63,0,0,1,.43-.09c.45.06.68.18.67.34a3.29,3.29,0,0,0,.88,2.15,3.17,3.17,0,0,0,1.91,1,2.15,2.15,0,0,0,1.41-.22,1.44,1.44,0,0,0,.7-1.13,2,2,0,0,0,0-.55,1.5,1.5,0,0,0-.21-.54l-.28-.46a2.12,2.12,0,0,0-.47-.47L75.16,24l-.68-.49L73.78,23a6.9,6.9,0,0,1-1.86-1.87,3.18,3.18,0,0,1-.43-2.21,3.19,3.19,0,0,1,1.81-2.56A5.73,5.73,0,0,1,76.73,15.82Z"/><path class="cls-1" d="M89.18,17.65A3.65,3.65,0,0,1,91.78,19a4.76,4.76,0,0,1,.44,3.41l-.83,5.8a1.35,1.35,0,0,0,.14.94.89.89,0,0,0,.66.41,1.85,1.85,0,0,0,1.06-.24c.11.06.16.17.13.35a1.76,1.76,0,0,1-.3.86,7.26,7.26,0,0,1-1.28.57,3.09,3.09,0,0,1-1.47.18,2.17,2.17,0,0,1-1.25-.69,2.43,2.43,0,0,1-.7-1.21l-.25.16c-.14.09-.34.2-.59.32a8.62,8.62,0,0,1-.83.36,4.76,4.76,0,0,1-1.06.25,4.32,4.32,0,0,1-1.19,0,3.54,3.54,0,0,1-2.28-1.15,2.83,2.83,0,0,1-.61-2.35,2.74,2.74,0,0,1,.53-1.28,3.56,3.56,0,0,1,1-.9,6.08,6.08,0,0,1,1.38-.6,12.41,12.41,0,0,1,1.45-.38l1.54-.24,1.31-.2a.47.47,0,0,0,.33-.43l.23-1.62a2.55,2.55,0,0,0-.24-1.69,1.56,1.56,0,0,0-1.18-.77,1.8,1.8,0,0,0-1.46.34,2.22,2.22,0,0,0-.72,1.47,1,1,0,0,1-.57.8,1.85,1.85,0,0,1-1,.13,1.67,1.67,0,0,1-1.43-.93q.2-1.41,2.31-2.37A7.45,7.45,0,0,1,89.18,17.65Zm-3,11.11a2.3,2.3,0,0,0,1.43-.21,1.18,1.18,0,0,0,.71-.86l.43-3c-.14,0-.45.1-.91.17s-.82.14-1.07.21a8.18,8.18,0,0,0-.88.29,1.8,1.8,0,0,0-.79.55,1.64,1.64,0,0,0-.34.79,1.83,1.83,0,0,0,.27,1.45A1.71,1.71,0,0,0,86.23,28.75Z"/><path class="cls-1" d="M99.71,19.46q.65.09,1.87.18t1.51.13a2.07,2.07,0,0,1,0,.54c0,.28-.1.41-.18.4a3.24,3.24,0,0,0-1,.09q-.66.13-.73.39l0,.18q0,.48,1.77,7.1.31-.5,1.56-2.73T106,23.15a2.77,2.77,0,0,0,.31-.89.94.94,0,0,0-.37-.79,2.44,2.44,0,0,0-1.36-.54c-.08,0-.1-.16-.05-.46a.75.75,0,0,1,.19-.48q.35,0,1.43.29t1.78.35q.62.09,1.53.13c.61,0,1,.06,1.32.1a.85.85,0,0,1,0,.49c0,.31-.11.46-.18.45a3.72,3.72,0,0,0-1.23.12,1.65,1.65,0,0,0-1.14.74L101,34.9q-2.44,4-5,3.67A1.61,1.61,0,0,1,94.85,38a1.39,1.39,0,0,1,.45-2.07q3.06.44,4.38-1.83l1.08-1.89L97.91,21.57a3.8,3.8,0,0,0-.26-.73,1.78,1.78,0,0,0-.77-.79A2.8,2.8,0,0,0,96,19.7c-.08,0-.1-.15-.06-.43s.1-.49.16-.52l1.56.32Q99,19.36,99.71,19.46Z"/><path class="cls-1" d="M125.43,22.86a6.56,6.56,0,0,1,4.45,2.61,6.37,6.37,0,0,1,1.29,4.95,6.73,6.73,0,0,1-13.33-1.92,6.4,6.4,0,0,1,2.6-4.4A6.51,6.51,0,0,1,125.43,22.86Zm-.58,1.33a2.39,2.39,0,0,0-2.34,1,6.39,6.39,0,0,0-1.22,3.08,8.68,8.68,0,0,0,.36,4.29,3,3,0,0,0,2.41,2.15,2.42,2.42,0,0,0,2.36-1,6.32,6.32,0,0,0,1.24-3.07,10.16,10.16,0,0,0,0-2.9,5.23,5.23,0,0,0-.92-2.37A2.75,2.75,0,0,0,124.85,24.19Z"/><path class="cls-1" d="M143.62,25.48q3.8.55,2.93,6.58l-.4,2.8a12.25,12.25,0,0,0-.17,2.68q0,.21.75.54a4.57,4.57,0,0,0,1,.37c.06,0,.07.16,0,.44a1.73,1.73,0,0,1-.13.57c-.12,0-.62-.15-1.53-.34s-1.58-.32-2-.38-1.13-.13-2-.19l-1.53-.1a.88.88,0,0,1,0-.58c0-.29.1-.44.18-.42a3.52,3.52,0,0,0,1-.08q.69-.13.78-.32a8.49,8.49,0,0,0,.55-2.11l.4-2.79a6.46,6.46,0,0,0-.17-3.51,2.39,2.39,0,0,0-2-1.27,2.75,2.75,0,0,0-1.72.28,1.43,1.43,0,0,0-.86,1L138,33.68a12.41,12.41,0,0,0-.18,2.68c0,.14.26.32.72.54a4.31,4.31,0,0,0,.92.36c.08,0,.1.16.07.45a1.7,1.7,0,0,1-.13.57l-1.53-.34q-1.3-.28-2-.37t-2.06-.21l-1.59-.11a.87.87,0,0,1,0-.58c0-.29.1-.44.18-.42a4.11,4.11,0,0,0,1.1-.07c.5-.08.78-.18.84-.31a9.66,9.66,0,0,0,.52-2.12l.69-4.8a2.83,2.83,0,0,0-.2-2,1.43,1.43,0,0,0-.6-.54,3.36,3.36,0,0,0-.68-.28q-.28-.07-.27-.13c.08-.57.17-.86.27-.86a42.16,42.16,0,0,0,4.87-.2l.08,0h.16c.08,0,.14.09.18.24a.91.91,0,0,1,0,.34,9.69,9.69,0,0,0-.27,1,.24.24,0,0,0,0,.15.43.43,0,0,0,.16-.07,6.64,6.64,0,0,1,2-1A5.2,5.2,0,0,1,143.62,25.48Z"/><path class="cls-1" d="M164.11,28.42a3.65,3.65,0,0,1,2.6,1.35,4.76,4.76,0,0,1,.44,3.41l-.83,5.8a1.35,1.35,0,0,0,.14.94.89.89,0,0,0,.66.41,1.86,1.86,0,0,0,1.06-.24c.11.06.16.17.13.35a1.78,1.78,0,0,1-.3.86,7.29,7.29,0,0,1-1.28.57,3.1,3.1,0,0,1-1.47.18,2.18,2.18,0,0,1-1.25-.69,2.43,2.43,0,0,1-.7-1.21l-.25.16c-.14.09-.34.2-.59.32a8.73,8.73,0,0,1-.83.36,4.77,4.77,0,0,1-1.06.25,4.34,4.34,0,0,1-1.19,0,3.55,3.55,0,0,1-2.28-1.15,2.82,2.82,0,0,1-.61-2.36,2.75,2.75,0,0,1,.53-1.27,3.57,3.57,0,0,1,1-.9,6.06,6.06,0,0,1,1.38-.6,12.57,12.57,0,0,1,1.45-.38l1.54-.24,1.3-.2a.47.47,0,0,0,.33-.43l.23-1.62a2.56,2.56,0,0,0-.24-1.69,1.55,1.55,0,0,0-1.18-.77,1.81,1.81,0,0,0-1.46.34,2.23,2.23,0,0,0-.72,1.47,1,1,0,0,1-.57.8,1.84,1.84,0,0,1-1,.14,1.67,1.67,0,0,1-1.43-.93q.2-1.41,2.31-2.37A7.45,7.45,0,0,1,164.11,28.42Zm-2.95,11.11a2.3,2.3,0,0,0,1.43-.21,1.18,1.18,0,0,0,.71-.86l.43-3q-.22.06-.91.17c-.46.07-.82.14-1.07.21a8.26,8.26,0,0,0-.88.29,1.79,1.79,0,0,0-.78.55,1.64,1.64,0,0,0-.34.79,1.83,1.83,0,0,0,.27,1.45A1.7,1.7,0,0,0,161.17,39.53Z"/><path class="cls-1" d="M182.79,31.08a12.65,12.65,0,0,1,3.34,1,16.72,16.72,0,0,1-.15,3.34q0,.24-.42.18-.65-.09-.67-.34a3.59,3.59,0,0,0-.62-1.88,2.32,2.32,0,0,0-1.68-1,2.13,2.13,0,0,0-1.39.19,1.32,1.32,0,0,0-.64,1,1.71,1.71,0,0,0,.05.77,1.86,1.86,0,0,0,.44.71,7.33,7.33,0,0,0,.58.56c.17.14.43.34.77.59a2,2,0,0,0,.27.19l.41.3.45.33.43.35a5.43,5.43,0,0,1,.46.41l.4.42a2.36,2.36,0,0,1,.38.47l.29.51a1.93,1.93,0,0,1,.23.57,5.83,5.83,0,0,1,.08.58,2.68,2.68,0,0,1,0,.64A3.5,3.5,0,0,1,184,43.76a5.64,5.64,0,0,1-3.61.58A9.92,9.92,0,0,1,176.66,43a11.72,11.72,0,0,1-.06-1.67,14.51,14.51,0,0,1,.09-1.71.63.63,0,0,1,.43-.09c.45.07.67.18.67.34a3.27,3.27,0,0,0,.88,2.15,3.17,3.17,0,0,0,1.91,1A2.16,2.16,0,0,0,182,42.8a1.45,1.45,0,0,0,.7-1.13,1.92,1.92,0,0,0,0-.55,1.44,1.44,0,0,0-.21-.54l-.28-.46a2.15,2.15,0,0,0-.47-.47l-.54-.42-.68-.49-.69-.5A6.92,6.92,0,0,1,178,36.35a3.43,3.43,0,0,1,1.38-4.77A5.73,5.73,0,0,1,182.79,31.08Z"/><path class="cls-1" d="M201.46,37l-.84,5.83a6.59,6.59,0,0,0-.06,2.09.6.6,0,0,0,.3.28,2.33,2.33,0,0,0,.5.19l.48.1a.56.56,0,0,1,.25.07c.07,0,.1.13.08.28a2.38,2.38,0,0,1-.12.39c-.07.18-.14.27-.22.25a6.93,6.93,0,0,0-1.06,0l-1.25,0-1.15.06-1.21.07q-.21,0-.14-.5l.19-1.29c0-.1,0-.15-.07-.16a6.63,6.63,0,0,1-2,1.07,5,5,0,0,1-2.41.25,3.12,3.12,0,0,1-1.68-.75,3.6,3.6,0,0,1-1-1.46,6.34,6.34,0,0,1-.37-1.79,9.07,9.07,0,0,1,.08-1.88l.47-3.3a2.83,2.83,0,0,0-.2-2,1.65,1.65,0,0,0-.61-.54,3.13,3.13,0,0,0-.68-.28c-.19,0-.29-.09-.28-.13.08-.57.17-.86.27-.86a22.3,22.3,0,0,0,2.46,0,23.46,23.46,0,0,0,2.4-.2h.24c.1,0,.16.09.19.24a1.08,1.08,0,0,1,0,.33q-.55,2-.64,2.55l-.51,3.53a6.36,6.36,0,0,0,.17,3.39,2.62,2.62,0,0,0,3.62,1,1.58,1.58,0,0,0,.81-1l.7-4.86a2.83,2.83,0,0,0-.2-2,1.42,1.42,0,0,0-.6-.54,3.4,3.4,0,0,0-.7-.28c-.19,0-.29-.09-.28-.13q.12-.85.3-.86a23,23,0,0,0,2.43,0,23.46,23.46,0,0,0,2.4-.2l.24,0c.1,0,.17.09.21.24a.54.54,0,0,1,0,.33Q201.54,36.51,201.46,37Z"/><path class="cls-1" d="M214.31,35.65A3,3,0,0,1,216.59,37q-.36,2.5-1.77,2.3a1.77,1.77,0,0,1-1.06-.75,1.85,1.85,0,0,0-1.18-.77,1.59,1.59,0,0,0-1.56.72,4,4,0,0,0-.79,1.85L209.69,44a12.47,12.47,0,0,0-.18,2.68c0,.14.26.32.72.54a4.23,4.23,0,0,0,1,.36c.06,0,.07.16,0,.44a3.12,3.12,0,0,1-.1.57l-1.54-.34q-1.31-.28-2-.38t-2.06-.21L204,47.55a.87.87,0,0,1,0-.58c0-.29.1-.44.18-.42a4.13,4.13,0,0,0,1.11-.07q.75-.12.84-.31a9.75,9.75,0,0,0,.51-2.12l.69-4.8a2.83,2.83,0,0,0-.2-2,1.43,1.43,0,0,0-.6-.54,3.42,3.42,0,0,0-.68-.28c-.18,0-.27-.09-.27-.13.08-.57.17-.86.27-.86a41.92,41.92,0,0,0,4.87-.2l.24,0c.08,0,.14.09.18.24a.71.71,0,0,1,0,.35l-.1.41q-.07.28-.16.58a3.43,3.43,0,0,0-.1.39A5.42,5.42,0,0,1,212.37,36,3.26,3.26,0,0,1,214.31,35.65Z"/><path class="cls-1" d="M229.24,39.69q-.27-.85-1.95-1.09c-.06,0-.07-.15,0-.42a1,1,0,0,1,.17-.52q.41.06,1.41.29t1.67.33q.66.1,1.73.16c.71,0,1.2.08,1.45.12a.86.86,0,0,1,0,.48q-.07.47-.25.45a3.54,3.54,0,0,0-1.19.11,1.73,1.73,0,0,0-1.12.69L224.75,50a2,2,0,0,1-.46.45.75.75,0,0,1-.54.19c-.2,0-.31-.1-.33-.23q-.4-1.41-1.08-3.89t-1.18-4.21q-.5-1.72-1.15-3.89-.24-.87-1.79-1.1c-.08,0-.1-.17-.05-.49a.69.69,0,0,1,.19-.45q.27,0,1.55.31t2,.38c.47.07,1.15.14,2,.2l1.54.13a1,1,0,0,1,0,.54q-.07.41-.19.39a4.33,4.33,0,0,0-1.07,0c-.46.05-.7.18-.73.38a.55.55,0,0,0,0,.3l1.94,7.19,3.49-5.45Q229.4,40,229.24,39.69Z"/><path class="cls-1" d="M239.39,48.27a10.86,10.86,0,0,0-.15,2.68q0,.22.73.54a4.37,4.37,0,0,0,1,.37c.08,0,.1.16.07.45a1.7,1.7,0,0,1-.13.57q-.2-.06-1.56-.34t-2-.38q-.74-.11-2.09-.21l-1.56-.1a.87.87,0,0,1,0-.58c0-.29.1-.44.18-.42a4.37,4.37,0,0,0,1.09-.07c.51-.08.8-.18.85-.31a9.66,9.66,0,0,0,.52-2.12l.69-4.8a2.83,2.83,0,0,0-.2-2,1.64,1.64,0,0,0-.61-.54,3.13,3.13,0,0,0-.68-.28c-.19,0-.29-.09-.28-.13q.12-.85.3-.86a31.55,31.55,0,0,0,4.83-.21l.25,0c.1,0,.17.09.2.24a.54.54,0,0,1,0,.33,25,25,0,0,0-.6,2.5ZM238.1,35.51a1.81,1.81,0,0,1-.34-1.37,1.76,1.76,0,0,1,.71-1.2,1.87,1.87,0,0,1,2.59.37,1.76,1.76,0,0,1,.34,1.36,1.81,1.81,0,0,1-.71,1.22,1.83,1.83,0,0,1-2.59-.37Z"/><path class="cls-1" d="M255.15,43.41q-.27-.85-1.95-1.09c-.06,0-.07-.15,0-.42a1,1,0,0,1,.16-.52c.28,0,.75.14,1.42.29s1.22.27,1.67.33,1,.12,1.73.16,1.2.08,1.45.12a.86.86,0,0,1,0,.48q-.07.47-.24.45a3.52,3.52,0,0,0-1.19.11,1.73,1.73,0,0,0-1.12.69l-6.41,9.68a2,2,0,0,1-.46.45.75.75,0,0,1-.54.19c-.2,0-.31-.1-.33-.23q-.4-1.41-1.08-3.89T247.08,46q-.5-1.72-1.15-3.89-.24-.87-1.79-1.1c-.08,0-.1-.17-.05-.49a.69.69,0,0,1,.19-.45q.27,0,1.55.31t2,.38q.71.1,2,.2l1.54.13a1,1,0,0,1,0,.54q-.07.41-.19.39a4.43,4.43,0,0,0-1.07,0c-.46.05-.7.18-.73.38a.55.55,0,0,0,0,.3l1.94,7.19,3.49-5.44Q255.3,43.77,255.15,43.41Z"/><path class="cls-1" d="M268,43.37A6.56,6.56,0,0,1,272.43,46a6.37,6.37,0,0,1,1.29,4.95A6.73,6.73,0,0,1,260.39,49a6.4,6.4,0,0,1,2.6-4.4A6.52,6.52,0,0,1,268,43.37Zm-.58,1.33a2.39,2.39,0,0,0-2.34,1,6.39,6.39,0,0,0-1.22,3.08,8.68,8.68,0,0,0,.36,4.29,3,3,0,0,0,2.41,2.15,2.42,2.42,0,0,0,2.36-1,6.31,6.31,0,0,0,1.24-3.07,10.18,10.18,0,0,0,0-2.89,5.23,5.23,0,0,0-.92-2.37A2.75,2.75,0,0,0,267.4,44.7Z"/><path class="cls-1" d="M285.18,45.84a3,3,0,0,1,2.27,1.32q-.36,2.5-1.77,2.3a1.76,1.76,0,0,1-1.06-.75,1.87,1.87,0,0,0-1.18-.77,1.59,1.59,0,0,0-1.56.72,4,4,0,0,0-.79,1.85l-.53,3.68a12.47,12.47,0,0,0-.18,2.68c0,.14.26.32.72.54a4.16,4.16,0,0,0,1,.36q.09,0,0,.44a3.24,3.24,0,0,1-.1.57l-1.54-.34q-1.31-.28-2-.38t-2.06-.21l-1.59-.11a.87.87,0,0,1,0-.58q.06-.44.18-.42a4.17,4.17,0,0,0,1.11-.07q.75-.12.84-.31a9.71,9.71,0,0,0,.52-2.12l.69-4.8a2.83,2.83,0,0,0-.2-2,1.43,1.43,0,0,0-.6-.54,3.37,3.37,0,0,0-.68-.28q-.28-.07-.27-.13c.08-.57.17-.86.27-.86a42.17,42.17,0,0,0,4.87-.2l.24,0c.08,0,.14.09.18.24a.72.72,0,0,1,0,.35l-.1.41c0,.18-.1.38-.16.58a3.73,3.73,0,0,0-.1.39,5.43,5.43,0,0,1,1.65-1.22A3.24,3.24,0,0,1,285.18,45.84Z"/><path class="cls-1" d="M289.48,60.22a2.64,2.64,0,0,0-.27-1.28,2.68,2.68,0,0,1-.26-1.34,1.8,1.8,0,0,1,.8-1.15,2.21,2.21,0,0,1,1.71-.38,1.92,1.92,0,0,1,.92.31,4.64,4.64,0,0,1,.12,2.12,5.32,5.32,0,0,1-.44,1.38,8.54,8.54,0,0,1-1.66,2.54,13.36,13.36,0,0,1-2.85,2h0c-.1,0-.22-.14-.37-.37a.89.89,0,0,1-.19-.55,4.4,4.4,0,0,1,.57-.4A5.46,5.46,0,0,0,288.72,62,3.58,3.58,0,0,0,289.48,60.22Z"/><path class="cls-1" d="M303.94,50.64l-1.79-.26q-.21,0-.1-.79a.75.75,0,0,1,.07-.26,8.32,8.32,0,0,0,2.49-1.23l1-.75q.53-.42,1.25-1.1a2.11,2.11,0,0,1,.55.15c.17.08.25.14.24.2l-.41,2.88,2.13.32,1.45.22c.16,0,.22.12.2.3a2.88,2.88,0,0,1-.48,1.25L307,51.08l-1,7.09a2.82,2.82,0,0,0,.24,1.87,1.7,1.7,0,0,0,1.29.82,2.79,2.79,0,0,0,.63,0,3.14,3.14,0,0,0,.55-.09l.41-.12.22-.06c.08,0,.16.09.23.3a.7.7,0,0,1,.06.4,2.73,2.73,0,0,1-1.39.78,4.68,4.68,0,0,1-2.18.24A3.75,3.75,0,0,1,303.55,61a4,4,0,0,1-.64-3.2Z"/><path class="cls-1" d="M322.75,51.25q3.77.54,2.93,6.34l-.44,3a10.9,10.9,0,0,0-.15,2.68q0,.21.72.54a4.52,4.52,0,0,0,1,.37c.06,0,.07.16,0,.44a3.15,3.15,0,0,1-.1.57c-.13,0-.65-.15-1.56-.34s-1.57-.32-2-.38-1.16-.14-2-.2l-1.56-.1a1.11,1.11,0,0,1,0-.57q.06-.44.15-.43a3.57,3.57,0,0,0,1-.08c.46-.08.73-.19.81-.32a11.25,11.25,0,0,0,.49-2.12l.42-2.88a6.2,6.2,0,0,0-.18-3.46,2.43,2.43,0,0,0-2-1.23,2.85,2.85,0,0,0-1.69.27,1.41,1.41,0,0,0-.9,1l-.73,5.06a10.91,10.91,0,0,0-.15,2.68c0,.14.26.32.72.54a4.21,4.21,0,0,0,1,.36c.06,0,.07.16,0,.44a1.7,1.7,0,0,1-.13.57L317,63.69q-1.3-.28-2-.37t-2.06-.21L311.36,63a.87.87,0,0,1,0-.58c0-.29.1-.44.18-.42a4.18,4.18,0,0,0,1.11-.07q.75-.12.84-.31a9.61,9.61,0,0,0,.51-2.09l1.76-12.24a11.7,11.7,0,0,0,.14-2q-.08-.49-1.46-.69l-.26,0q-.18,0-.11-.5t.24-.45q.92,0,1.77,0t1.41-.1c.38,0,.71-.1,1-.16l.88-.17h.06c.08,0,.15.08.21.2a.79.79,0,0,1,.1.33,9.55,9.55,0,0,0-.75,2.71l-.86,5.94c0,.12,0,.18.09.19s.06,0,.13-.07a5.65,5.65,0,0,1,2-1A5.48,5.48,0,0,1,322.75,51.25Z"/><path class="cls-1" d="M336.47,53.22a5.51,5.51,0,0,1,2.39.9,4.71,4.71,0,0,1,1.51,1.63,6.9,6.9,0,0,1,.69,1.87,5.11,5.11,0,0,1,.08,1.77q-.09.65-.34.78a1.69,1.69,0,0,1-.92,0l-7-1q-.21,0-.23.15a5.78,5.78,0,0,0,.09,2.12,4.09,4.09,0,0,0,1.06,1.92,3.5,3.5,0,0,0,2.12,1.05,8.08,8.08,0,0,0,.86.08,4.46,4.46,0,0,0,.79,0l.64-.1a2.51,2.51,0,0,0,.58-.19l.43-.19.65-.31a.48.48,0,0,1,.12.2.58.58,0,0,1,0,.31.91.91,0,0,1-.26.53,4.83,4.83,0,0,1-2,1.34,5.53,5.53,0,0,1-3,.38,6,6,0,0,1-4.14-2.53A6.41,6.41,0,0,1,329.42,59a6.88,6.88,0,0,1,2.42-4.58A5.76,5.76,0,0,1,336.47,53.22Zm-.4,1.32a2.11,2.11,0,0,0-1.33.23,2.8,2.8,0,0,0-1,.88,5.69,5.69,0,0,0-.59,1,3.61,3.61,0,0,0-.26.85c0,.14,0,.21.15.23l4.77.69c.18,0,.29-.11.33-.4a3.85,3.85,0,0,0-.39-2.19A2.13,2.13,0,0,0,336.07,54.54Z"/><path class="cls-1" d="M356.35,56.08a7.17,7.17,0,0,1,2.71.92,4.72,4.72,0,0,1,1.59,1.38,3.68,3.68,0,0,1-.58,1.61,1.09,1.09,0,0,1-1.11.52,1.33,1.33,0,0,1-.86-.42,3.39,3.39,0,0,1-.55-1.07,2.15,2.15,0,0,0-1.78-1.64,2.29,2.29,0,0,0-2.2,1,6.36,6.36,0,0,0-1.21,3.11,6,6,0,0,0,.52,4.08,3.51,3.51,0,0,0,2.58,1.68,8.29,8.29,0,0,0,.86.08,4.46,4.46,0,0,0,.79,0l.64-.1a2.52,2.52,0,0,0,.58-.19l.43-.19.65-.31a.5.5,0,0,1,.12.2.57.57,0,0,1,0,.31.91.91,0,0,1-.26.53,4.83,4.83,0,0,1-2,1.34,5.46,5.46,0,0,1-3,.38,6,6,0,0,1-4.18-2.55A6.56,6.56,0,0,1,349,61.75a6.76,6.76,0,0,1,2.43-4.38A6,6,0,0,1,356.35,56.08Z"/><path class="cls-1" d="M372.74,58.44q3.77.54,2.93,6.34l-.44,3a10.91,10.91,0,0,0-.15,2.68q0,.21.72.54a4.53,4.53,0,0,0,1,.37c.06,0,.07.16,0,.44a3.15,3.15,0,0,1-.1.57c-.13,0-.65-.15-1.56-.34s-1.57-.32-2-.38-1.16-.14-2-.2l-1.56-.1a1.11,1.11,0,0,1,0-.57q.06-.44.15-.43a3.57,3.57,0,0,0,1-.08c.46-.08.73-.19.81-.32a11.27,11.27,0,0,0,.49-2.12l.42-2.88a6.21,6.21,0,0,0-.18-3.46,2.43,2.43,0,0,0-2-1.23,2.85,2.85,0,0,0-1.69.27,1.41,1.41,0,0,0-.9,1l-.73,5.06a10.91,10.91,0,0,0-.15,2.68c0,.14.26.32.72.54a4.23,4.23,0,0,0,1,.36c.06,0,.07.16,0,.44a1.7,1.7,0,0,1-.13.57L367,70.88q-1.29-.28-2-.37t-2.06-.21l-1.59-.11a.87.87,0,0,1,0-.58c0-.29.1-.44.18-.42a4.13,4.13,0,0,0,1.11-.07q.75-.12.84-.31a9.66,9.66,0,0,0,.51-2.09l1.76-12.24a11.7,11.7,0,0,0,.14-2q-.08-.49-1.46-.69l-.26,0q-.18,0-.11-.5t.24-.45q.92,0,1.77,0t1.41-.1q.57-.07,1-.16l.88-.17h.06c.08,0,.15.08.21.2a.81.81,0,0,1,.1.33,9.61,9.61,0,0,0-.75,2.71l-.86,5.94c0,.12,0,.18.09.19s.06,0,.13-.07a5.66,5.66,0,0,1,2-1A5.48,5.48,0,0,1,372.74,58.44Z"/><path class="cls-1" d="M384.4,69.13a10.86,10.86,0,0,0-.15,2.68q0,.22.73.54a4.35,4.35,0,0,0,1,.37c.08,0,.1.16.07.45a1.7,1.7,0,0,1-.13.57l-1.56-.34q-1.35-.29-2-.38t-2.09-.21l-1.56-.1a.87.87,0,0,1,0-.58q.06-.44.18-.42a4.37,4.37,0,0,0,1.09-.07c.51-.08.8-.18.85-.31a9.64,9.64,0,0,0,.52-2.12l.69-4.8a2.83,2.83,0,0,0-.2-2,1.66,1.66,0,0,0-.61-.54,3.13,3.13,0,0,0-.68-.28c-.19,0-.29-.09-.28-.13q.12-.85.3-.86a23,23,0,0,0,2.43,0,23.38,23.38,0,0,0,2.4-.2l.25,0c.1,0,.17.09.2.24a.55.55,0,0,1,0,.33,25,25,0,0,0-.6,2.5Zm-1.29-12.75a1.81,1.81,0,0,1-.34-1.37,1.76,1.76,0,0,1,.71-1.2,1.87,1.87,0,0,1,2.59.37,1.76,1.76,0,0,1,.34,1.36,1.81,1.81,0,0,1-.71,1.22,1.83,1.83,0,0,1-2.59-.37Z"/><path class="cls-1" d="M393.42,70.36a12.2,12.2,0,0,0-.17,2.68q0,.22.66.56a3.27,3.27,0,0,0,.86.38c.06,0,.07.15,0,.43a1.59,1.59,0,0,1-.12.55l-1.09-.23-1.24-.25-1.06-.18c-.37-.05-.75-.1-1.12-.13l-1.25-.1L387.79,74a.84.84,0,0,1,0-.56q.06-.43.18-.41a3.17,3.17,0,0,0,1-.11c.46-.1.73-.22.79-.35a9.83,9.83,0,0,0,.55-2.14l1.76-12.24a10.33,10.33,0,0,0,.11-2q-.08-.49-1.4-.68l-.29,0c-.12,0-.16-.14-.13-.38s.13-.46.25-.45q.92,0,1.77,0t1.41-.1c.38,0,.7-.09,1-.14l.66-.13.22-.06h.06c.08,0,.15.08.22.21a.88.88,0,0,1,.12.32,9.41,9.41,0,0,0-.75,2.72Z"/><path class="cls-1" d="M405.17,63a5.11,5.11,0,0,1,2.09.72c.1,0,.17-.14.21-.45l.4-2.77a10.34,10.34,0,0,0,.11-2c-.05-.33-.54-.56-1.46-.69l-.23,0c-.12,0-.15-.18-.11-.5s.13-.46.25-.45q.9,0,1.75,0t1.42-.09q.57-.07,1-.16l.64-.13.24,0h.06c.08,0,.15.08.21.2a.54.54,0,0,1,.07.33,11.39,11.39,0,0,0-.69,2.72l-1.86,12.95a11,11,0,0,0-.14,2.2.44.44,0,0,0,.25.37,1.83,1.83,0,0,0,.54.23l.55.12.29.06s0,.17,0,.36c-.06.39-.14.58-.26.56q-.42,0-1.06,0h-1.26l-1.18,0-1.26.07c-.12,0-.15-.19-.1-.53l.07-.5a.13.13,0,0,0,0-.12s-.05,0-.07,0a5,5,0,0,1-3.22.65,5.76,5.76,0,0,1-3.9-2.35,6,6,0,0,1-1.13-4.65,7,7,0,0,1,2.73-4.7A6.51,6.51,0,0,1,405.17,63Zm-.47,1.37a2.6,2.6,0,0,0-2.54,1,7,7,0,0,0-1.31,3.45,7.16,7.16,0,0,0,.35,4,2.92,2.92,0,0,0,2.36,1.77,2.47,2.47,0,0,0,1.69-.28,1.65,1.65,0,0,0,.8-1.22l.89-6.18a2,2,0,0,0,0-.63,2.75,2.75,0,0,0-.25-.74,1.9,1.9,0,0,0-.71-.73A3.16,3.16,0,0,0,404.7,64.42Z"/><path class="cls-1" d="M422.77,65.64A3,3,0,0,1,425,67q-.36,2.5-1.77,2.3a1.76,1.76,0,0,1-1.06-.75,1.86,1.86,0,0,0-1.18-.77,1.59,1.59,0,0,0-1.56.72,4,4,0,0,0-.79,1.85L418.14,74a12.47,12.47,0,0,0-.18,2.68c0,.14.26.32.72.54a4.2,4.2,0,0,0,1,.36c.06,0,.07.16,0,.44a3.3,3.3,0,0,1-.1.57L418,78.23q-1.31-.28-2-.38T414,77.65l-1.59-.11a.88.88,0,0,1,0-.58q.06-.44.18-.42a4.12,4.12,0,0,0,1.11-.07c.5-.08.78-.18.84-.31A9.71,9.71,0,0,0,415,74l.69-4.8a2.83,2.83,0,0,0-.2-2,1.44,1.44,0,0,0-.6-.54,3.36,3.36,0,0,0-.68-.28q-.28-.07-.27-.13c.08-.57.17-.86.27-.86a42.17,42.17,0,0,0,4.87-.2l.24,0c.08,0,.14.09.18.24a.7.7,0,0,1,0,.35l-.1.41q-.07.28-.16.58a3.73,3.73,0,0,0-.1.39A5.45,5.45,0,0,1,420.82,66,3.25,3.25,0,0,1,422.77,65.64Z"/><path class="cls-1" d="M433.13,67.13a5.52,5.52,0,0,1,2.39.9A4.72,4.72,0,0,1,437,69.66a6.94,6.94,0,0,1,.69,1.87,5.09,5.09,0,0,1,.08,1.77q-.09.65-.34.78a1.69,1.69,0,0,1-.92,0l-7-1c-.14,0-.21,0-.23.15a5.78,5.78,0,0,0,.08,2.12,4.1,4.1,0,0,0,1.06,1.92,3.5,3.5,0,0,0,2.12,1.05,8.08,8.08,0,0,0,.86.08,4.45,4.45,0,0,0,.79,0l.65-.1a2.52,2.52,0,0,0,.58-.19l.43-.19.65-.31a.48.48,0,0,1,.12.2.58.58,0,0,1,0,.31.91.91,0,0,1-.26.53,4.84,4.84,0,0,1-2,1.34,5.52,5.52,0,0,1-3,.38,6,6,0,0,1-4.14-2.53,6.41,6.41,0,0,1-1.19-4.87,6.88,6.88,0,0,1,2.42-4.58A5.76,5.76,0,0,1,433.13,67.13Zm-.4,1.32a2.11,2.11,0,0,0-1.33.23,2.79,2.79,0,0,0-1,.88,5.76,5.76,0,0,0-.59,1,3.64,3.64,0,0,0-.26.85c0,.14,0,.21.15.23l4.77.69c.18,0,.29-.11.33-.4a3.85,3.85,0,0,0-.39-2.19A2.13,2.13,0,0,0,432.73,68.45Z"/><path class="cls-1" d="M449.85,69.53q3.8.55,2.93,6.58l-.4,2.79a12.42,12.42,0,0,0-.18,2.68q0,.21.75.54a4.55,4.55,0,0,0,1,.37c.06,0,.07.16,0,.44a1.75,1.75,0,0,1-.13.57c-.12,0-.63-.15-1.53-.34s-1.58-.32-2-.38-1.13-.13-2-.19l-1.53-.1a.87.87,0,0,1,0-.58q.06-.44.18-.42a3.56,3.56,0,0,0,1-.08q.69-.13.78-.32a8.49,8.49,0,0,0,.55-2.11l.4-2.79a6.47,6.47,0,0,0-.17-3.51,2.39,2.39,0,0,0-2-1.27,2.75,2.75,0,0,0-1.72.28,1.43,1.43,0,0,0-.87,1l-.73,5.06a12.48,12.48,0,0,0-.18,2.68c0,.14.26.32.72.54a4.31,4.31,0,0,0,.92.36c.08,0,.1.16.07.45a1.7,1.7,0,0,1-.13.57L444.11,82q-1.29-.28-2-.37t-2.06-.21l-1.59-.11a.87.87,0,0,1,0-.58c0-.29.1-.44.18-.42a4.13,4.13,0,0,0,1.11-.07q.75-.12.84-.31a9.69,9.69,0,0,0,.52-2.12l.69-4.8a2.83,2.83,0,0,0-.2-2,1.44,1.44,0,0,0-.6-.54,3.43,3.43,0,0,0-.68-.28c-.18,0-.27-.09-.27-.13.08-.57.17-.86.27-.86a41.94,41.94,0,0,0,4.87-.2l.08,0h.16c.08,0,.14.09.18.24a.93.93,0,0,1,0,.34,10,10,0,0,0-.27,1,.23.23,0,0,0,0,.15.43.43,0,0,0,.16-.07,6.64,6.64,0,0,1,2-1A5.2,5.2,0,0,1,449.85,69.53Z"/><path class="cls-1" d="M470.82,72.55a6.56,6.56,0,0,1,4.45,2.61,6.37,6.37,0,0,1,1.29,4.95,6.73,6.73,0,0,1-13.33-1.92,6.4,6.4,0,0,1,2.6-4.4A6.52,6.52,0,0,1,470.82,72.55Zm-.58,1.33a2.39,2.39,0,0,0-2.34,1A6.4,6.4,0,0,0,466.67,78a8.67,8.67,0,0,0,.36,4.29,3,3,0,0,0,2.41,2.15,2.42,2.42,0,0,0,2.36-1A6.31,6.31,0,0,0,473,80.32a10.15,10.15,0,0,0,0-2.89,5.23,5.23,0,0,0-.92-2.37A2.76,2.76,0,0,0,470.24,73.88Z"/><path class="cls-1" d="M488.85,67.54a5.83,5.83,0,0,1,2,.6,2.08,2.08,0,0,1,1,.9,3.34,3.34,0,0,1-.4,1.61,1.07,1.07,0,0,1-1.18.57,1.16,1.16,0,0,1-.83-.62q-.33-.54-.7-1.09a1.37,1.37,0,0,0-1-.63,1.58,1.58,0,0,0-1.43.58,5,5,0,0,0-1,1.75,12.18,12.18,0,0,0-.56,2.35l-.19,1.35s0,.05,0,.1a.17.17,0,0,0,.11.08l3.24.47a.24.24,0,0,1,.14.05.32.32,0,0,1,0,.18,3.06,3.06,0,0,1-.55,1.3l-3.06-.44a.16.16,0,0,0-.2.15l-.94,6.56a11.37,11.37,0,0,0-.15,2.68c0,.14.26.32.72.54a4.18,4.18,0,0,0,1,.36c.06,0,.07.16,0,.44a1.7,1.7,0,0,1-.13.57c-.12,0-.62-.15-1.51-.34s-1.58-.32-2-.38-1.14-.13-2-.2l-1.55-.1a.55.55,0,0,1-.07-.34,1.79,1.79,0,0,1,.07-.46c0-.14.09-.21.15-.2a4,4,0,0,0,1.06-.07c.49-.08.77-.19.83-.32a9.81,9.81,0,0,0,.61-2.37l1-6.77c0-.14,0-.21-.15-.23l-1.76-.25s-.05-.07,0-.18a1.6,1.6,0,0,1,.54-.79,1.2,1.2,0,0,1,1-.39l.47.07a.16.16,0,0,0,.2-.15l0-.29a8.09,8.09,0,0,1,2.6-5A5.56,5.56,0,0,1,488.85,67.54Z"/><path class="cls-1" d="M501.21,76.89a12.66,12.66,0,0,1,3.34,1,16.8,16.8,0,0,1-.15,3.34c0,.16-.16.22-.42.18-.43-.06-.66-.17-.67-.34a3.6,3.6,0,0,0-.62-1.87,2.32,2.32,0,0,0-1.68-1,2.13,2.13,0,0,0-1.39.19,1.32,1.32,0,0,0-.64,1,1.72,1.72,0,0,0,.05.77,1.86,1.86,0,0,0,.44.71,7.29,7.29,0,0,0,.58.56c.17.14.43.34.77.59a1.92,1.92,0,0,0,.27.19l.41.3.45.33.43.35a5.39,5.39,0,0,1,.46.41l.41.42a2.41,2.41,0,0,1,.38.47l.29.51a1.94,1.94,0,0,1,.23.57,5.6,5.6,0,0,1,.08.58,2.68,2.68,0,0,1,0,.64,3.5,3.5,0,0,1-1.85,2.72,5.65,5.65,0,0,1-3.61.58,9.94,9.94,0,0,1-3.68-1.37A11.73,11.73,0,0,1,495,87.1a14.42,14.42,0,0,1,.1-1.71.63.63,0,0,1,.43-.09c.45.06.67.18.67.34a3.27,3.27,0,0,0,.88,2.15,3.17,3.17,0,0,0,1.91,1,2.15,2.15,0,0,0,1.41-.22,1.45,1.45,0,0,0,.7-1.13,1.93,1.93,0,0,0,0-.56,1.43,1.43,0,0,0-.21-.54l-.28-.46a2.16,2.16,0,0,0-.47-.47l-.54-.42-.68-.49-.69-.5a6.92,6.92,0,0,1-1.86-1.87,3.43,3.43,0,0,1,1.38-4.77A5.73,5.73,0,0,1,501.21,76.89Z"/><path class="cls-1" d="M519.88,82.85,519,88.68a6.6,6.6,0,0,0-.06,2.09.62.62,0,0,0,.3.28,2.27,2.27,0,0,0,.5.19,4.35,4.35,0,0,0,.48.1.54.54,0,0,1,.25.07c.08,0,.1.13.08.28a2.17,2.17,0,0,1-.12.39c-.07.18-.14.26-.22.25a6.77,6.77,0,0,0-1.06,0l-1.25,0-1.15.06-1.21.07q-.21,0-.14-.5l.19-1.29c0-.1,0-.15-.07-.16a6.67,6.67,0,0,1-2,1.07,5,5,0,0,1-2.41.25,3.11,3.11,0,0,1-1.68-.75,3.58,3.58,0,0,1-1-1.46,6.31,6.31,0,0,1-.37-1.8,8.93,8.93,0,0,1,.08-1.88l.47-3.3a2.83,2.83,0,0,0-.2-2,1.65,1.65,0,0,0-.61-.54,3.12,3.12,0,0,0-.68-.28c-.19,0-.29-.09-.28-.13.08-.57.17-.86.27-.86a22.3,22.3,0,0,0,2.46,0,23.18,23.18,0,0,0,2.4-.2h.24c.1,0,.16.09.19.24a1.07,1.07,0,0,1,0,.33q-.55,2-.64,2.55l-.51,3.53a6.38,6.38,0,0,0,.17,3.39,2.63,2.63,0,0,0,3.62,1,1.58,1.58,0,0,0,.81-1l.7-4.85a2.82,2.82,0,0,0-.2-2,1.44,1.44,0,0,0-.6-.54,3.4,3.4,0,0,0-.7-.28c-.19,0-.29-.09-.28-.13q.12-.85.3-.86a22.46,22.46,0,0,0,2.43,0,23.18,23.18,0,0,0,2.4-.2l.24,0c.1,0,.17.09.21.24a.55.55,0,0,1,0,.33Q520,82.32,519.88,82.85Z"/><path class="cls-1" d="M532.73,81.46A3,3,0,0,1,535,82.78q-.36,2.5-1.77,2.3a1.77,1.77,0,0,1-1.06-.75,1.87,1.87,0,0,0-1.18-.77,1.6,1.6,0,0,0-1.56.72,4,4,0,0,0-.79,1.85l-.53,3.68a12.48,12.48,0,0,0-.18,2.68c0,.14.26.32.72.54a4.23,4.23,0,0,0,1,.36c.06,0,.07.16,0,.44a3.15,3.15,0,0,1-.1.57L528,94.05q-1.31-.28-2-.38T524,93.47l-1.59-.11a.87.87,0,0,1,0-.58q.06-.44.18-.42a4.17,4.17,0,0,0,1.11-.07q.75-.12.84-.31a9.7,9.7,0,0,0,.52-2.12l.69-4.8a2.83,2.83,0,0,0-.2-2,1.43,1.43,0,0,0-.6-.54,3.37,3.37,0,0,0-.68-.28q-.28-.07-.27-.13.12-.85.27-.86a42.17,42.17,0,0,0,4.87-.2l.24,0c.08,0,.14.09.18.24a.72.72,0,0,1,0,.35l-.1.41c0,.18-.1.38-.16.58a3.68,3.68,0,0,0-.1.39,5.43,5.43,0,0,1,1.65-1.22A3.25,3.25,0,0,1,532.73,81.46Z"/><path class="cls-1" d="M547.66,85.5q-.27-.85-1.95-1.09c-.06,0-.07-.15,0-.42a1,1,0,0,1,.16-.52c.27,0,.75.14,1.42.29s1.22.27,1.66.33,1,.12,1.73.16,1.2.08,1.45.12a.87.87,0,0,1,0,.48c0,.31-.13.46-.24.45a3.55,3.55,0,0,0-1.19.12,1.72,1.72,0,0,0-1.12.69l-6.41,9.68a2,2,0,0,1-.46.45.75.75,0,0,1-.54.19c-.2,0-.3-.1-.33-.23q-.4-1.41-1.08-3.89t-1.18-4.21q-.5-1.72-1.15-3.89-.24-.87-1.79-1.1c-.08,0-.09-.17,0-.49a.69.69,0,0,1,.19-.45q.27,0,1.55.31t2,.38q.71.1,2,.2l1.54.13a1,1,0,0,1,0,.54c0,.27-.11.4-.19.39a4.43,4.43,0,0,0-1.07,0c-.46.05-.7.18-.73.38a.56.56,0,0,0,0,.3L543.87,92l3.49-5.45Q547.82,85.85,547.66,85.5Z"/><path class="cls-1" d="M557.81,94.08a10.92,10.92,0,0,0-.15,2.68q0,.21.73.54a4.33,4.33,0,0,0,1,.36c.08,0,.1.16.07.45a1.66,1.66,0,0,1-.13.57l-1.56-.34q-1.36-.29-2-.38t-2.09-.21l-1.56-.1a.87.87,0,0,1,0-.58c0-.29.1-.44.18-.42a4.27,4.27,0,0,0,1.09-.07q.77-.11.86-.31a9.69,9.69,0,0,0,.51-2.12l.69-4.8a2.83,2.83,0,0,0-.2-2,1.64,1.64,0,0,0-.61-.54,3.13,3.13,0,0,0-.68-.28c-.19,0-.29-.09-.28-.13q.12-.85.3-.86a22.72,22.72,0,0,0,2.43,0,23.15,23.15,0,0,0,2.4-.2l.24,0c.1,0,.17.09.21.24a.55.55,0,0,1,0,.33,25.34,25.34,0,0,0-.6,2.5Zm-1.29-12.75a1.81,1.81,0,0,1-.34-1.37,1.76,1.76,0,0,1,.71-1.2,1.84,1.84,0,0,1,2.93,1.73,1.81,1.81,0,0,1-.71,1.22,1.83,1.83,0,0,1-2.59-.37Z"/><path class="cls-1" d="M573.57,89.22q-.27-.85-1.95-1.09c-.06,0-.07-.15,0-.42a1,1,0,0,1,.16-.52c.27,0,.75.14,1.42.29s1.22.27,1.66.33,1,.12,1.73.16,1.2.08,1.45.12a.87.87,0,0,1,0,.48c0,.31-.13.46-.24.45a3.57,3.57,0,0,0-1.19.11,1.72,1.72,0,0,0-1.12.7l-6.41,9.68a2,2,0,0,1-.46.45.75.75,0,0,1-.54.19c-.2,0-.3-.1-.33-.23q-.4-1.41-1.08-3.89t-1.18-4.21q-.5-1.72-1.15-3.89-.24-.87-1.79-1.1c-.08,0-.1-.17-.05-.49a.69.69,0,0,1,.19-.45q.27,0,1.55.31t2,.38q.71.1,2,.2l1.54.13a1,1,0,0,1,0,.54q-.07.41-.19.39a4.38,4.38,0,0,0-1.07,0c-.46.05-.7.18-.73.38a.56.56,0,0,0,0,.3l1.94,7.19,3.49-5.45Q573.73,89.58,573.57,89.22Z"/><path class="cls-1" d="M586.41,89.18a6.55,6.55,0,0,1,4.45,2.61,6.37,6.37,0,0,1,1.29,4.95,6.73,6.73,0,0,1-13.33-1.92,6.4,6.4,0,0,1,2.6-4.4A6.51,6.51,0,0,1,586.41,89.18Zm-.58,1.33a2.4,2.4,0,0,0-2.34,1,6.39,6.39,0,0,0-1.22,3.08,8.68,8.68,0,0,0,.36,4.29,3,3,0,0,0,2.41,2.15,2.42,2.42,0,0,0,2.36-1,6.31,6.31,0,0,0,1.24-3.07,10.19,10.19,0,0,0,0-2.9,5.23,5.23,0,0,0-.92-2.37A2.76,2.76,0,0,0,585.82,90.51Z"/><path class="cls-1" d="M603.6,91.65A3,3,0,0,1,605.87,93q-.36,2.5-1.77,2.3a1.77,1.77,0,0,1-1.06-.75,1.86,1.86,0,0,0-1.18-.77,1.59,1.59,0,0,0-1.56.72,4,4,0,0,0-.79,1.85L599,100a12.41,12.41,0,0,0-.18,2.68c0,.14.26.32.72.54a4.21,4.21,0,0,0,1,.36c.06,0,.07.16,0,.44a3.12,3.12,0,0,1-.1.57l-1.54-.34q-1.31-.28-2-.38c-.47-.07-1.16-.14-2.06-.21l-1.59-.11a.87.87,0,0,1,0-.58c0-.29.1-.44.18-.42a4.13,4.13,0,0,0,1.11-.07c.5-.08.78-.18.84-.31a9.63,9.63,0,0,0,.52-2.12l.69-4.8a2.83,2.83,0,0,0-.2-2,1.44,1.44,0,0,0-.6-.54,3.36,3.36,0,0,0-.68-.28q-.28-.07-.27-.13c.08-.57.17-.86.27-.86a42.09,42.09,0,0,0,4.87-.2l.24,0c.08,0,.14.09.18.24a.72.72,0,0,1,0,.35l-.1.41-.16.58a3.52,3.52,0,0,0-.1.39A5.45,5.45,0,0,1,601.65,92,3.26,3.26,0,0,1,603.6,91.65Z"/><path class="cls-1" d="M612.73,92.94a12.66,12.66,0,0,1,3.34,1,16.8,16.8,0,0,1-.15,3.34c0,.16-.16.22-.42.18q-.65-.09-.67-.34a3.6,3.6,0,0,0-.62-1.87,2.32,2.32,0,0,0-1.68-1,2.13,2.13,0,0,0-1.39.19,1.32,1.32,0,0,0-.64,1,1.72,1.72,0,0,0,.05.77A1.86,1.86,0,0,0,611,97a7.3,7.3,0,0,0,.58.56c.17.14.43.34.77.59a1.89,1.89,0,0,0,.27.19l.41.3.45.33.43.35a5.39,5.39,0,0,1,.46.41l.41.42a2.35,2.35,0,0,1,.38.47l.29.51a2,2,0,0,1,.23.57,5.6,5.6,0,0,1,.08.58,2.73,2.73,0,0,1,0,.64,3.5,3.5,0,0,1-1.85,2.72,5.65,5.65,0,0,1-3.61.58,9.94,9.94,0,0,1-3.68-1.37,11.73,11.73,0,0,1-.06-1.68,14.47,14.47,0,0,1,.09-1.71.64.64,0,0,1,.43-.09c.45.06.67.18.67.34a3.28,3.28,0,0,0,.88,2.15,3.17,3.17,0,0,0,1.91,1,2.15,2.15,0,0,0,1.41-.22,1.45,1.45,0,0,0,.7-1.13,1.93,1.93,0,0,0,0-.56,1.44,1.44,0,0,0-.21-.54l-.28-.46a2.23,2.23,0,0,0-.47-.47l-.54-.42-.68-.49-.69-.5a6.91,6.91,0,0,1-1.86-1.88,3.43,3.43,0,0,1,1.38-4.77A5.74,5.74,0,0,1,612.73,92.94Z"/><path class="cls-1" d="M619,107.62a2.65,2.65,0,0,0-.27-1.29,2.69,2.69,0,0,1-.26-1.34,1.8,1.8,0,0,1,.8-1.15,2.21,2.21,0,0,1,1.71-.38,1.92,1.92,0,0,1,.92.31,4.64,4.64,0,0,1,.12,2.12,5.35,5.35,0,0,1-.44,1.38,8.57,8.57,0,0,1-1.66,2.54,13.37,13.37,0,0,1-2.85,2h0q-.15,0-.37-.37a.89.89,0,0,1-.19-.55,4.31,4.31,0,0,1,.57-.4,5.49,5.49,0,0,0,1.18-1.14A3.57,3.57,0,0,0,619,107.62Z"/><path class="cls-1" d="M183.83,73.92a3.65,3.65,0,0,1,2.64,1.26,4.76,4.76,0,0,1,.56,3.39l-.63,5.82a1.36,1.36,0,0,0,.17.93.89.89,0,0,0,.68.39,1.85,1.85,0,0,0,1-.27c.11.05.16.17.14.34a1.77,1.77,0,0,1-.27.87,7.36,7.36,0,0,1-1.26.61,3.1,3.1,0,0,1-1.46.23,2.17,2.17,0,0,1-1.28-.65,2.45,2.45,0,0,1-.74-1.19l-.24.17c-.14.09-.33.21-.57.34a8.77,8.77,0,0,1-.82.39,4.75,4.75,0,0,1-1,.29,4.33,4.33,0,0,1-1.18,0,3.55,3.55,0,0,1-2.32-1.07,2.82,2.82,0,0,1-.69-2.33,2.74,2.74,0,0,1,.48-1.29,3.53,3.53,0,0,1,.92-.93,6.08,6.08,0,0,1,1.36-.65,12.37,12.37,0,0,1,1.44-.43l1.53-.3,1.3-.25a.47.47,0,0,0,.32-.44l.18-1.63a2.55,2.55,0,0,0-.3-1.68,1.55,1.55,0,0,0-1.21-.73,1.8,1.8,0,0,0-1.45.4,2.22,2.22,0,0,0-.67,1.5,1,1,0,0,1-.54.82,1.85,1.85,0,0,1-1,.17,1.68,1.68,0,0,1-1.46-.88q.16-1.42,2.22-2.45A7.46,7.46,0,0,1,183.83,73.92Zm-2.56,11.2a2.31,2.31,0,0,0,1.42-.26,1.18,1.18,0,0,0,.68-.88l.33-3q-.22.07-.9.2t-1.06.24a8.21,8.21,0,0,0-.87.32,1.78,1.78,0,0,0-.77.57,1.65,1.65,0,0,0-.31.8,1.83,1.83,0,0,0,.32,1.44A1.71,1.71,0,0,0,181.27,85.12Z"/><path class="cls-1" d="M200.95,75.78q3.81.41,3.15,6.47l-.3,2.81a12.48,12.48,0,0,0-.08,2.68c0,.14.28.31.77.52a4.56,4.56,0,0,0,1,.33c.06,0,.08.15.06.44a1.7,1.7,0,0,1-.11.57q-.17,0-1.54-.29t-2-.31q-.71-.08-2-.12l-1.54,0a.87.87,0,0,1-.06-.57q0-.44.17-.43a3.52,3.52,0,0,0,1-.11c.46-.1.72-.22.77-.35a8.53,8.53,0,0,0,.47-2.13l.3-2.81a6.46,6.46,0,0,0-.29-3.5,2.39,2.39,0,0,0-2-1.21,2.75,2.75,0,0,0-1.71.34,1.43,1.43,0,0,0-.83,1l-.55,5.08a12.48,12.48,0,0,0-.08,2.68q0,.21.74.51a4.27,4.27,0,0,0,.94.33c.08,0,.11.16.09.44a1.73,1.73,0,0,1-.11.57l-1.54-.29q-1.31-.23-2-.31T191.6,88L190,87.92a.88.88,0,0,1-.06-.57c0-.29.09-.44.17-.43a4.12,4.12,0,0,0,1.1-.1q.75-.14.83-.34a9.75,9.75,0,0,0,.44-2.14l.52-4.82a2.84,2.84,0,0,0-.27-1.94,1.44,1.44,0,0,0-.62-.52,3.4,3.4,0,0,0-.69-.25c-.18,0-.27-.08-.27-.12.06-.57.14-.86.24-.87a42,42,0,0,0,4.85-.37l.08,0h.16q.12,0,.18.23a.9.9,0,0,1,.05.33,9.92,9.92,0,0,0-.23,1.05.24.24,0,0,0,0,.15.45.45,0,0,0,.16-.07,6.6,6.6,0,0,1,2-1A5.2,5.2,0,0,1,200.95,75.78Z"/><path class="cls-1" d="M215.5,77.3a5.1,5.1,0,0,1,2.11.65q.15,0,.2-.46l.3-2.78a10.33,10.33,0,0,0,0-2q-.1-.49-1.49-.64l-.24,0c-.12,0-.16-.18-.13-.49s.11-.47.23-.45q.9,0,1.75,0t1.42-.14q.56-.09,1-.19l.63-.16.24,0h.06c.08,0,.15.07.22.19a.53.53,0,0,1,.08.32,11.38,11.38,0,0,0-.6,2.75l-1.41,13a10.85,10.85,0,0,0-.06,2.21.44.44,0,0,0,.26.36,1.83,1.83,0,0,0,.55.21l.56.1.29,0a.61.61,0,0,1,0,.36c0,.39-.12.58-.24.57q-.42,0-1.06,0l-1.26.06-1.17.08-1.25.12c-.12,0-.16-.19-.12-.52l.05-.5a.13.13,0,0,0,0-.12s-.05,0-.07,0a5,5,0,0,1-3.19.76,5.76,5.76,0,0,1-4-2.21,6,6,0,0,1-1.29-4.61,7,7,0,0,1,2.57-4.79A6.51,6.51,0,0,1,215.5,77.3Zm-.42,1.39a2.6,2.6,0,0,0-2.51,1.07,7,7,0,0,0-1.19,3.49,7.17,7.17,0,0,0,.49,4,2.92,2.92,0,0,0,2.42,1.68,2.47,2.47,0,0,0,1.68-.34,1.65,1.65,0,0,0,.76-1.25l.67-6.21a2.1,2.1,0,0,0,0-.63,2.77,2.77,0,0,0-.28-.73,1.9,1.9,0,0,0-.73-.71A3.16,3.16,0,0,0,215.08,78.69Z"/><path class="cls-1" d="M232.49,81.29l-1.8-.2q-.21,0-.12-.79a.77.77,0,0,1,.06-.26,8.32,8.32,0,0,0,2.45-1.32l.94-.78q.51-.44,1.22-1.14a2.12,2.12,0,0,1,.55.13c.17.07.25.13.25.19L235.7,80l2.14.25,1.46.17c.16,0,.23.11.21.29a2.88,2.88,0,0,1-.44,1.27l-3.55-.38-.77,7.12a2.82,2.82,0,0,0,.31,1.86,1.7,1.7,0,0,0,1.32.77,2.81,2.81,0,0,0,.63,0,3.09,3.09,0,0,0,.55-.1l.4-.14.22-.07c.08,0,.16.09.24.29s.1.34.08.4a2.72,2.72,0,0,1-1.36.82,4.69,4.69,0,0,1-2.17.32,3.76,3.76,0,0,1-2.51-1.27,4,4,0,0,1-.75-3.18Z"/><path class="cls-1" d="M251.31,81.24q3.78.41,3.15,6.23l-.33,3a11,11,0,0,0-.05,2.69q0,.21.74.51a4.56,4.56,0,0,0,1,.33c.06,0,.08.15.06.44a3,3,0,0,1-.08.57q-.2-.05-1.57-.29t-2-.31q-.74-.08-2-.13l-1.56-.05a1.11,1.11,0,0,1,0-.57c0-.29.08-.44.14-.43a3.56,3.56,0,0,0,1-.11c.46-.1.73-.22.8-.35a11.23,11.23,0,0,0,.41-2.14l.31-2.9a6.2,6.2,0,0,0-.3-3.46,2.43,2.43,0,0,0-2-1.16,2.85,2.85,0,0,0-1.68.33,1.4,1.4,0,0,0-.86,1l-.55,5.08a10.92,10.92,0,0,0-.05,2.69q0,.21.74.51a4.22,4.22,0,0,0,1,.33c.06,0,.08.15.06.44a1.69,1.69,0,0,1-.11.57L246,93.88q-1.31-.23-2-.31t-2.06-.13l-1.59-.05a.87.87,0,0,1-.06-.57q0-.44.17-.43a4.12,4.12,0,0,0,1.1-.1c.5-.1.77-.21.83-.34a9.49,9.49,0,0,0,.44-2.11l1.33-12.29a11.83,11.83,0,0,0,.07-2q-.1-.49-1.49-.64l-.27,0q-.18,0-.12-.49c0-.31.11-.47.23-.45q.93,0,1.77,0c.56,0,1-.09,1.41-.15s.7-.12,1-.19l.87-.2h.06q.12,0,.22.19a.83.83,0,0,1,.11.33,9.56,9.56,0,0,0-.66,2.74l-.65,6c0,.12,0,.18.1.19s.06,0,.13-.08a5.67,5.67,0,0,1,2-1.09A5.49,5.49,0,0,1,251.31,81.24Z"/><path class="cls-1" d="M265.09,82.74a5.51,5.51,0,0,1,2.42.82,4.71,4.71,0,0,1,1.56,1.58,7,7,0,0,1,.76,1.85,5.16,5.16,0,0,1,.14,1.76q-.07.65-.31.79a1.69,1.69,0,0,1-.92.06l-7.06-.77q-.21,0-.23.15a5.77,5.77,0,0,0,.16,2.11A4.1,4.1,0,0,0,262.74,93a3.49,3.49,0,0,0,2.15,1,8.1,8.1,0,0,0,.86,0,4.42,4.42,0,0,0,.78-.06l.64-.12a2.54,2.54,0,0,0,.58-.21l.43-.21.63-.33a.48.48,0,0,1,.13.19.57.57,0,0,1,.06.31.9.9,0,0,1-.24.54,4.85,4.85,0,0,1-1.92,1.41,5.53,5.53,0,0,1-3,.48,6,6,0,0,1-4.23-2.39,6.41,6.41,0,0,1-1.36-4.83,6.88,6.88,0,0,1,2.26-4.66A5.76,5.76,0,0,1,265.09,82.74Zm-.35,1.34a2.11,2.11,0,0,0-1.32.28,2.79,2.79,0,0,0-1,.91,5.67,5.67,0,0,0-.55,1.06,3.62,3.62,0,0,0-.23.86c0,.14,0,.21.15.23l4.79.52c.18,0,.28-.12.31-.41a3.86,3.86,0,0,0-.47-2.17A2.13,2.13,0,0,0,264.73,84.08Z"/><path class="cls-1" d="M284.34,84.89a9.42,9.42,0,0,1,2.41.65,9.19,9.19,0,0,0,2.32.64l1.69.18s.09.14.16.41a1.79,1.79,0,0,1,.08.61q0,.41-.22.39l-1.92-.21c-.08,0-.12,0-.13.08s.06.29.18.8a4.24,4.24,0,0,1,.11,1.45,4.29,4.29,0,0,1-1.8,3,5.09,5.09,0,0,1-3.8,1,12.27,12.27,0,0,1-1.82-.32,1.61,1.61,0,0,0-.71.48,1.27,1.27,0,0,0-.37.69.61.61,0,0,0,.23.53,2,2,0,0,0,.84.39q.58.15,1,.23l1.17.19.44,0a10.48,10.48,0,0,1,4.24,1.28,2.34,2.34,0,0,1,1.14,2.32,4.67,4.67,0,0,1-2.54,3.61,8.13,8.13,0,0,1-5.17,1.08,7.73,7.73,0,0,1-3.68-1.24,2.67,2.67,0,0,1-1.35-2.6,2.31,2.31,0,0,1,1-1.56,4.91,4.91,0,0,1,1.94-.93A3.39,3.39,0,0,1,278.47,97a2.16,2.16,0,0,1-.48-1.62q.14-1.27,2.47-2.39a3.94,3.94,0,0,1-1.43-1.7,4.37,4.37,0,0,1-.48-2.49,4,4,0,0,1,1.9-3.14A5.91,5.91,0,0,1,284.34,84.89Zm2.4,15.9q.11-1-1.34-1.54a18.9,18.9,0,0,0-4-.77h-.15l-.16.07q-.4.11-.62.19A2.51,2.51,0,0,0,280,99a1.44,1.44,0,0,0-.46.47,1.73,1.73,0,0,0-.21.69,2.08,2.08,0,0,0,.93,1.9,4.64,4.64,0,0,0,2.44,1,4.49,4.49,0,0,0,2.79-.48A2.32,2.32,0,0,0,286.74,100.79Zm-5.11-11.86a4.72,4.72,0,0,0,.33,2.5,1.85,1.85,0,0,0,1.55,1.17,1.76,1.76,0,0,0,1.7-.67,3.93,3.93,0,0,0,.74-2,4.88,4.88,0,0,0-.32-2.61A1.9,1.9,0,0,0,284,86.14a1.68,1.68,0,0,0-1.67.75A4.32,4.32,0,0,0,281.62,88.93Z"/><path class="cls-1" d="M299.16,86.44a5.51,5.51,0,0,1,2.42.82,4.71,4.71,0,0,1,1.56,1.58,7,7,0,0,1,.76,1.85,5.15,5.15,0,0,1,.14,1.76q-.07.65-.31.79a1.69,1.69,0,0,1-.92.06l-7.06-.77q-.21,0-.23.15a5.77,5.77,0,0,0,.16,2.11,4.1,4.1,0,0,0,1.13,1.89,3.49,3.49,0,0,0,2.15,1,8.1,8.1,0,0,0,.86,0,4.37,4.37,0,0,0,.78-.06l.64-.12a2.52,2.52,0,0,0,.58-.21l.43-.21.63-.33A.49.49,0,0,1,303,97a.57.57,0,0,1,.06.31.9.9,0,0,1-.24.54,4.85,4.85,0,0,1-1.92,1.41,5.52,5.52,0,0,1-3,.48,6,6,0,0,1-4.23-2.39,6.41,6.41,0,0,1-1.36-4.83,6.88,6.88,0,0,1,2.26-4.66A5.76,5.76,0,0,1,299.16,86.44Zm-.35,1.34a2.1,2.1,0,0,0-1.32.28,2.79,2.79,0,0,0-1,.91A5.71,5.71,0,0,0,296,90a3.63,3.63,0,0,0-.23.86c0,.14,0,.21.15.23l4.79.52c.18,0,.28-.12.31-.41a3.86,3.86,0,0,0-.47-2.17A2.13,2.13,0,0,0,298.8,87.78Z"/><path class="cls-1" d="M316,88.26q3.81.41,3.16,6.47l-.3,2.81a12.56,12.56,0,0,0-.08,2.68q0,.21.77.52a4.54,4.54,0,0,0,1,.33c.06,0,.08.15.06.44a1.68,1.68,0,0,1-.11.57q-.17,0-1.54-.29t-2-.31q-.71-.08-2-.12l-1.54,0a.87.87,0,0,1-.06-.57c0-.29.09-.44.17-.43a3.52,3.52,0,0,0,1-.11q.69-.15.77-.35a8.58,8.58,0,0,0,.47-2.13l.3-2.81a6.45,6.45,0,0,0-.29-3.5,2.39,2.39,0,0,0-2-1.2,2.75,2.75,0,0,0-1.71.34,1.43,1.43,0,0,0-.83,1l-.55,5.08a12.42,12.42,0,0,0-.08,2.68q0,.21.74.51a4.29,4.29,0,0,0,.94.33c.08,0,.11.16.09.44a1.68,1.68,0,0,1-.11.57l-1.54-.29q-1.31-.23-2-.31t-2.06-.13l-1.59-.05a.87.87,0,0,1-.06-.57c0-.29.09-.44.17-.43a4.16,4.16,0,0,0,1.1-.1c.5-.1.77-.21.83-.34a9.68,9.68,0,0,0,.44-2.13L308,92a2.83,2.83,0,0,0-.27-1.94,1.43,1.43,0,0,0-.62-.52,3.42,3.42,0,0,0-.69-.25c-.19,0-.28-.08-.27-.12.06-.57.14-.86.24-.87a42.09,42.09,0,0,0,4.85-.37l.08,0h.16c.08,0,.14.09.18.23a.89.89,0,0,1,.05.33,10,10,0,0,0-.23,1.05.24.24,0,0,0,0,.15.46.46,0,0,0,.16-.07,6.58,6.58,0,0,1,2-1A5.21,5.21,0,0,1,316,88.26Z"/><path class="cls-1" d="M329.91,89.78a5.51,5.51,0,0,1,2.42.82,4.71,4.71,0,0,1,1.56,1.58,6.88,6.88,0,0,1,.76,1.85,5.13,5.13,0,0,1,.14,1.76q-.07.65-.31.79a1.69,1.69,0,0,1-.92.06l-7.06-.77c-.14,0-.21,0-.23.15a5.79,5.79,0,0,0,.16,2.11,4.09,4.09,0,0,0,1.13,1.89,3.51,3.51,0,0,0,2.15,1,8.35,8.35,0,0,0,.86,0,4.48,4.48,0,0,0,.79-.06l.64-.12a2.56,2.56,0,0,0,.58-.21l.43-.21.63-.33a.49.49,0,0,1,.13.19.59.59,0,0,1,.06.31.91.91,0,0,1-.24.54,4.85,4.85,0,0,1-1.92,1.41,5.51,5.51,0,0,1-3,.48,6,6,0,0,1-4.23-2.39,6.41,6.41,0,0,1-1.36-4.83,6.87,6.87,0,0,1,2.25-4.66A5.76,5.76,0,0,1,329.91,89.78Zm-.35,1.34a2.09,2.09,0,0,0-1.32.28,2.8,2.8,0,0,0-1,.91,5.73,5.73,0,0,0-.55,1.06,3.68,3.68,0,0,0-.23.86c0,.14,0,.21.16.23l4.79.52q.27,0,.31-.42a3.86,3.86,0,0,0-.47-2.17A2.13,2.13,0,0,0,329.55,91.11Z"/><path class="cls-1" d="M345.7,91.49A3,3,0,0,1,348,92.73q-.27,2.51-1.69,2.36a1.77,1.77,0,0,1-1.09-.72,1.86,1.86,0,0,0-1.21-.73,1.6,1.6,0,0,0-1.54.78,4,4,0,0,0-.73,1.88l-.4,3.69a12.48,12.48,0,0,0-.08,2.68q0,.21.74.51a4.17,4.17,0,0,0,1,.33c.06,0,.08.15.06.44a3.12,3.12,0,0,1-.08.57l-1.55-.29c-.88-.16-1.55-.26-2-.31s-1.16-.1-2.06-.13l-1.6-.05a.89.89,0,0,1-.06-.57q0-.44.17-.43a4.13,4.13,0,0,0,1.1-.1q.75-.14.83-.34a9.75,9.75,0,0,0,.44-2.14l.52-4.82a2.82,2.82,0,0,0-.27-1.94,1.43,1.43,0,0,0-.62-.52,3.38,3.38,0,0,0-.69-.25c-.18,0-.27-.08-.27-.12.06-.57.14-.86.24-.87a42,42,0,0,0,4.85-.37l.24,0c.08,0,.14.09.19.23a.72.72,0,0,1,0,.35l-.09.41c0,.19-.09.38-.14.58s-.08.33-.09.39a5.47,5.47,0,0,1,1.6-1.28A3.26,3.26,0,0,1,345.7,91.49Z"/><path class="cls-1" d="M356.26,92.64a3.65,3.65,0,0,1,2.64,1.26,4.76,4.76,0,0,1,.56,3.4l-.63,5.82a1.36,1.36,0,0,0,.17.93.89.89,0,0,0,.68.39,1.85,1.85,0,0,0,1-.27c.11.05.16.17.14.34a1.78,1.78,0,0,1-.27.87,7.4,7.4,0,0,1-1.26.61,3.09,3.09,0,0,1-1.46.23,2.17,2.17,0,0,1-1.28-.65,2.43,2.43,0,0,1-.74-1.19l-.24.17c-.14.09-.33.21-.57.34a8.9,8.9,0,0,1-.82.39,4.75,4.75,0,0,1-1,.29,4.31,4.31,0,0,1-1.19,0,3.54,3.54,0,0,1-2.32-1.07,2.82,2.82,0,0,1-.69-2.33,2.75,2.75,0,0,1,.48-1.29,3.54,3.54,0,0,1,.92-.93,6.07,6.07,0,0,1,1.36-.65,12.38,12.38,0,0,1,1.44-.43l1.53-.3,1.3-.25a.47.47,0,0,0,.32-.44l.18-1.63a2.56,2.56,0,0,0-.3-1.68,1.56,1.56,0,0,0-1.21-.73,1.8,1.8,0,0,0-1.45.4,2.23,2.23,0,0,0-.67,1.5,1,1,0,0,1-.54.82,1.85,1.85,0,0,1-1,.17,1.68,1.68,0,0,1-1.46-.88q.15-1.42,2.22-2.45A7.46,7.46,0,0,1,356.26,92.64Zm-2.56,11.2a2.31,2.31,0,0,0,1.42-.26,1.17,1.17,0,0,0,.68-.88l.33-3c-.14,0-.45.11-.9.2s-.81.17-1.06.24a8,8,0,0,0-.87.32,1.79,1.79,0,0,0-.77.57,1.64,1.64,0,0,0-.31.8,1.84,1.84,0,0,0,.32,1.44A1.71,1.71,0,0,0,353.69,103.84Z"/><path class="cls-1" d="M365.2,95.7l-1.8-.2c-.14,0-.18-.28-.12-.79a.75.75,0,0,1,.06-.26,8.34,8.34,0,0,0,2.45-1.32l.94-.78q.51-.44,1.22-1.14a2.13,2.13,0,0,1,.55.13c.17.07.25.13.25.19l-.31,2.9,2.14.25,1.46.17c.16,0,.23.11.21.29a2.88,2.88,0,0,1-.44,1.27L368.24,96l-.77,7.12a2.82,2.82,0,0,0,.31,1.86,1.7,1.7,0,0,0,1.32.77,2.84,2.84,0,0,0,.63,0,3.18,3.18,0,0,0,.55-.1l.4-.14.22-.07c.08,0,.16.09.24.29s.1.34.08.4a2.73,2.73,0,0,1-1.36.82,4.68,4.68,0,0,1-2.17.32,3.75,3.75,0,0,1-2.51-1.27,4,4,0,0,1-.75-3.18Z"/><path class="cls-1" d="M378.66,104a10.88,10.88,0,0,0-.05,2.69q0,.21.75.52a4.35,4.35,0,0,0,1,.33c.08,0,.11.16.09.44a1.67,1.67,0,0,1-.11.57q-.2-.05-1.57-.29t-2-.31q-.74-.08-2.09-.14l-1.56-.05a.88.88,0,0,1-.06-.57q0-.44.17-.43a4.31,4.31,0,0,0,1.09-.11q.76-.14.84-.34a9.63,9.63,0,0,0,.44-2.14l.52-4.82a2.84,2.84,0,0,0-.27-1.94,1.65,1.65,0,0,0-.63-.52,3.13,3.13,0,0,0-.69-.25c-.2,0-.29-.08-.29-.12.06-.57.15-.86.27-.87a22.78,22.78,0,0,0,2.43-.09,23.25,23.25,0,0,0,2.39-.28l.24,0c.1,0,.17.09.21.23a.55.55,0,0,1,0,.33,25.33,25.33,0,0,0-.51,2.52Zm-1.73-12.7a1.81,1.81,0,0,1-.39-1.36,1.84,1.84,0,0,1,3.66.4,1.81,1.81,0,0,1-.67,1.24,1.83,1.83,0,0,1-2.6-.28Z"/><path class="cls-1" d="M390.21,96.32a6.55,6.55,0,0,1,4.53,2.45,6.37,6.37,0,0,1,1.46,4.9,6.73,6.73,0,0,1-13.39-1.45,6.4,6.4,0,0,1,2.45-4.49A6.52,6.52,0,0,1,390.21,96.32Zm-.54,1.35a2.4,2.4,0,0,0-2.3,1.11,6.4,6.4,0,0,0-1.12,3.12,8.68,8.68,0,0,0,.51,4.27,3,3,0,0,0,2.48,2.06,2.42,2.42,0,0,0,2.32-1.12,6.32,6.32,0,0,0,1.13-3.11,10.22,10.22,0,0,0-.07-2.89,5.27,5.27,0,0,0-1-2.34A2.76,2.76,0,0,0,389.67,97.67Z"/><path class="cls-1" d="M408.48,98.31q3.81.41,3.16,6.47l-.3,2.81a12.46,12.46,0,0,0-.08,2.68q0,.21.77.52a4.52,4.52,0,0,0,1,.33c.06,0,.08.15.06.44a1.69,1.69,0,0,1-.11.57c-.12,0-.63-.13-1.54-.29s-1.59-.26-2-.31-1.13-.09-2-.12l-1.54,0a.87.87,0,0,1-.06-.57c0-.29.09-.44.17-.43a3.53,3.53,0,0,0,1-.11c.46-.1.71-.22.77-.35a8.49,8.49,0,0,0,.47-2.13l.3-2.81a6.46,6.46,0,0,0-.29-3.5,2.39,2.39,0,0,0-2-1.2,2.75,2.75,0,0,0-1.71.34,1.43,1.43,0,0,0-.83,1l-.55,5.08a12.48,12.48,0,0,0-.08,2.68c0,.14.27.31.74.51a4.24,4.24,0,0,0,.94.33c.08,0,.11.16.09.44a1.7,1.7,0,0,1-.11.57l-1.54-.29q-1.31-.23-2-.31c-.47-.05-1.16-.1-2.06-.13l-1.59-.05a.87.87,0,0,1-.06-.57c0-.29.09-.44.17-.43a4.15,4.15,0,0,0,1.1-.1c.5-.1.78-.21.83-.34a9.68,9.68,0,0,0,.44-2.13l.52-4.82a2.82,2.82,0,0,0-.27-1.94,1.43,1.43,0,0,0-.62-.52,3.34,3.34,0,0,0-.69-.25c-.19,0-.28-.08-.27-.12.06-.57.14-.86.24-.87a42.09,42.09,0,0,0,4.86-.37l.08,0H404c.08,0,.14.08.18.23a.91.91,0,0,1,.05.34,10.35,10.35,0,0,0-.23,1.05.24.24,0,0,0,0,.15.43.43,0,0,0,.16-.07,6.6,6.6,0,0,1,2-1A5.2,5.2,0,0,1,408.48,98.31Z"/><path class="cls-1" d="M429.06,100.54a3.66,3.66,0,0,1,2.64,1.26,4.76,4.76,0,0,1,.56,3.4l-.63,5.82a1.36,1.36,0,0,0,.17.93.89.89,0,0,0,.68.39,1.86,1.86,0,0,0,1-.28c.11.05.16.17.14.34a1.76,1.76,0,0,1-.27.87,7.28,7.28,0,0,1-1.26.61,3.09,3.09,0,0,1-1.46.23,2.17,2.17,0,0,1-1.28-.65,2.43,2.43,0,0,1-.74-1.19l-.24.17q-.21.14-.57.34a8.89,8.89,0,0,1-.82.39,4.81,4.81,0,0,1-1,.29,4.33,4.33,0,0,1-1.19,0,3.55,3.55,0,0,1-2.32-1.07,2.83,2.83,0,0,1-.69-2.33,2.77,2.77,0,0,1,.48-1.29,3.58,3.58,0,0,1,.92-.93,6.06,6.06,0,0,1,1.36-.65,12.42,12.42,0,0,1,1.44-.43l1.53-.3,1.3-.25a.47.47,0,0,0,.32-.44l.18-1.63a2.55,2.55,0,0,0-.3-1.68,1.55,1.55,0,0,0-1.21-.73,1.8,1.8,0,0,0-1.45.4,2.23,2.23,0,0,0-.67,1.5,1,1,0,0,1-.54.82,1.85,1.85,0,0,1-1,.17,1.68,1.68,0,0,1-1.46-.88q.15-1.42,2.22-2.45A7.46,7.46,0,0,1,429.06,100.54Zm-2.56,11.2a2.31,2.31,0,0,0,1.42-.26,1.17,1.17,0,0,0,.68-.88l.33-3c-.14,0-.44.11-.9.2s-.81.17-1.06.24a8.15,8.15,0,0,0-.87.32,1.79,1.79,0,0,0-.76.57,1.65,1.65,0,0,0-.31.8,1.83,1.83,0,0,0,.32,1.44A1.71,1.71,0,0,0,426.5,111.75Z"/><path class="cls-1" d="M445.75,94.79a5.87,5.87,0,0,1,2,.53,2.07,2.07,0,0,1,1,.87,3.34,3.34,0,0,1-.34,1.62,1.07,1.07,0,0,1-1.16.61,1.16,1.16,0,0,1-.85-.59q-.35-.53-.74-1.07a1.37,1.37,0,0,0-1-.6,1.58,1.58,0,0,0-1.41.62,5,5,0,0,0-1,1.78,12.21,12.21,0,0,0-.48,2.37l-.15,1.36a.17.17,0,0,0,0,.1.17.17,0,0,0,.11.07l3.25.35a.24.24,0,0,1,.14,0,.3.3,0,0,1,0,.18,3.05,3.05,0,0,1-.5,1.32L441.7,104a.16.16,0,0,0-.2.16l-.72,6.59a11.38,11.38,0,0,0-.05,2.69q0,.21.74.51a4.2,4.2,0,0,0,1,.33c.06,0,.08.15.06.44a1.64,1.64,0,0,1-.11.57q-.17,0-1.52-.29t-2.06-.31q-.71-.08-2-.13l-1.55,0a.57.57,0,0,1-.08-.34,1.81,1.81,0,0,1,.05-.46c0-.15.08-.22.14-.21a4,4,0,0,0,1.06-.11q.73-.14.81-.34a9.91,9.91,0,0,0,.53-2.4l.74-6.8c0-.14,0-.21-.16-.23l-1.77-.19s-.05-.07,0-.18a1.58,1.58,0,0,1,.51-.81,1.19,1.19,0,0,1,1-.43l.47.05a.16.16,0,0,0,.2-.16l0-.3a8.08,8.08,0,0,1,2.42-5.12A5.56,5.56,0,0,1,445.75,94.79Z"/><path class="cls-1" d="M448.62,104.76l-1.8-.2q-.21,0-.12-.79a.75.75,0,0,1,.06-.26,8.32,8.32,0,0,0,2.45-1.32l.94-.78q.51-.44,1.22-1.14a2.14,2.14,0,0,1,.55.13c.17.07.25.13.25.19l-.31,2.9,2.14.25,1.46.17c.16,0,.23.11.21.29a2.87,2.87,0,0,1-.44,1.27l-3.55-.39-.77,7.12a2.82,2.82,0,0,0,.31,1.86,1.7,1.7,0,0,0,1.32.77,2.78,2.78,0,0,0,.63,0,3.12,3.12,0,0,0,.55-.1l.4-.14.22-.07c.08,0,.16.09.24.29a.7.7,0,0,1,.08.4,2.73,2.73,0,0,1-1.36.82,4.67,4.67,0,0,1-2.17.32,3.74,3.74,0,0,1-2.51-1.27,4,4,0,0,1-.75-3.18Z"/><path class="cls-1" d="M463.84,104.32a5.52,5.52,0,0,1,2.42.82,4.7,4.7,0,0,1,1.56,1.58,6.87,6.87,0,0,1,.76,1.85,5.14,5.14,0,0,1,.14,1.76q-.07.65-.31.79a1.69,1.69,0,0,1-.92.06l-7.06-.77c-.14,0-.21,0-.23.15a5.79,5.79,0,0,0,.16,2.11,4.1,4.1,0,0,0,1.13,1.89,3.5,3.5,0,0,0,2.15,1,8.06,8.06,0,0,0,.86,0,4.44,4.44,0,0,0,.79-.06l.64-.12a2.57,2.57,0,0,0,.58-.21l.43-.21.63-.33a.48.48,0,0,1,.13.19.57.57,0,0,1,.06.31.91.91,0,0,1-.24.54,4.84,4.84,0,0,1-1.92,1.41,5.52,5.52,0,0,1-3,.48,6,6,0,0,1-4.23-2.39,6.41,6.41,0,0,1-1.36-4.83,6.88,6.88,0,0,1,2.25-4.66A5.76,5.76,0,0,1,463.84,104.32Zm-.36,1.34a2.1,2.1,0,0,0-1.31.28,2.8,2.8,0,0,0-1,.91,5.73,5.73,0,0,0-.55,1.06,3.68,3.68,0,0,0-.23.86c0,.14,0,.21.16.23l4.79.52c.18,0,.28-.12.31-.41a3.85,3.85,0,0,0-.47-2.17A2.13,2.13,0,0,0,463.48,105.65Z"/><path class="cls-1" d="M479.63,106a3,3,0,0,1,2.32,1.24q-.27,2.51-1.69,2.36a1.77,1.77,0,0,1-1.09-.72,1.86,1.86,0,0,0-1.21-.73,1.59,1.59,0,0,0-1.53.77,4,4,0,0,0-.73,1.88l-.4,3.69a12.55,12.55,0,0,0-.08,2.68c0,.14.27.31.74.51a4.18,4.18,0,0,0,1,.33c.06,0,.08.15.06.44a3,3,0,0,1-.08.57l-1.55-.29q-1.32-.23-2-.31t-2.06-.13l-1.59-.05a.89.89,0,0,1-.06-.57c0-.29.09-.44.17-.43a4.14,4.14,0,0,0,1.1-.1q.75-.14.83-.34a9.68,9.68,0,0,0,.44-2.13l.52-4.82a2.83,2.83,0,0,0-.27-1.94,1.43,1.43,0,0,0-.62-.52,3.38,3.38,0,0,0-.69-.25c-.19,0-.28-.08-.27-.12q.09-.86.25-.87a42.09,42.09,0,0,0,4.85-.37l.24,0c.08,0,.14.08.19.23a.71.71,0,0,1,0,.35l-.09.41c0,.19-.09.38-.14.58a3.68,3.68,0,0,0-.09.39,5.45,5.45,0,0,1,1.6-1.28A3.25,3.25,0,0,1,479.63,106Z"/><path class="cls-1" d="M484.43,120.25a2.64,2.64,0,0,0-.31-1.27,2.7,2.7,0,0,1-.3-1.33,1.8,1.8,0,0,1,.76-1.17,2.21,2.21,0,0,1,1.69-.44,1.93,1.93,0,0,1,.93.28,4.63,4.63,0,0,1,.19,2.11,5.36,5.36,0,0,1-.39,1.39,8.53,8.53,0,0,1-1.57,2.6,13.33,13.33,0,0,1-2.77,2.14h0q-.15,0-.38-.36a.88.88,0,0,1-.21-.55,4.21,4.21,0,0,1,.55-.42,5.42,5.42,0,0,0,1.14-1.18A3.56,3.56,0,0,0,484.43,120.25Z"/><path class="cls-1" d="M410.15,177.12a6,6,0,0,1,3.31.94,6.24,6.24,0,0,1,2.23,2.38,6.35,6.35,0,0,1,.76,3,6.79,6.79,0,0,1-2.07,5,6.55,6.55,0,0,1-4.77,2.07,9.32,9.32,0,0,1-2.17-.22A6.52,6.52,0,0,0,406,190a2.24,2.24,0,0,0-.77.21,3,3,0,0,1-.59.21,1.42,1.42,0,0,1-.43-.18c-.23-.12-.34-.22-.34-.3s0-.24.06-.54.09-.72.15-1.28a16.79,16.79,0,0,0,.09-1.81V174.21a10.35,10.35,0,0,0-.18-2q-.15-.48-1.55-.48h-.27c-.12,0-.18-.16-.18-.48s.06-.48.18-.48q.92-.09,1.75-.24t1.38-.3q.55-.15,1-.3l.85-.3h.06a.32.32,0,0,1,.24.16.81.81,0,0,1,.15.31,10.37,10.37,0,0,0-.33,2.79v4.92a.87.87,0,0,0,0,.13c0,.06,0,.09.06.09l.1,0a5.45,5.45,0,0,1,1.2-.59A4.27,4.27,0,0,1,410.15,177.12Zm-.65,1.61a2.3,2.3,0,0,0-1.61.56,1.75,1.75,0,0,0-.62,1.34v6.3a1.78,1.78,0,0,0,.79,1.58,3.22,3.22,0,0,0,1.86.54,2.53,2.53,0,0,0,2.33-1.4,6.8,6.8,0,0,0,.79-3.39,7.65,7.65,0,0,0-.92-4A2.91,2.91,0,0,0,409.49,178.73Z"/><path class="cls-1" d="M421.66,177.42q.65,0,1.87-.09t1.52-.09a2,2,0,0,1,.06.54c0,.28,0,.42-.12.42a3.25,3.25,0,0,0-.94.22c-.43.15-.65.31-.67.49v.18q.06.48,2.77,6.78.24-.54,1.16-2.93t1.07-2.75a2.79,2.79,0,0,0,.18-.92.94.94,0,0,0-.48-.73,2.45,2.45,0,0,0-1.43-.34c-.08,0-.12-.15-.12-.45a.75.75,0,0,1,.12-.5c.24,0,.72,0,1.46.09s1.34.09,1.81.09.93,0,1.53-.09,1-.09,1.32-.09a.85.85,0,0,1,.12.48q0,.48-.12.48a3.77,3.77,0,0,0-1.2.3,1.64,1.64,0,0,0-1,.89l-5.44,13.14q-1.84,4.34-4.43,4.34a1.61,1.61,0,0,1-1.19-.42,1.39,1.39,0,0,1,.15-2.11q3.09,0,4.07-2.44l.8-2-4.34-10.11a3.9,3.9,0,0,0-.36-.68,1.8,1.8,0,0,0-.88-.67,2.82,2.82,0,0,0-1-.22c-.08,0-.12-.14-.12-.42s0-.5.09-.54l1.59.09Q420.95,177.42,421.66,177.42Z"/><path class="cls-1" d="M460.08,189.37q.12,0,.12.56a1.33,1.33,0,0,1-.06.42l-3.78-.18-1.25,0-1.44.07-1.26.07a.58.58,0,0,1-.12-.42c0-.38,0-.56.12-.56a4.76,4.76,0,0,0,1.12-.21q.76-.21.85-.45a10.37,10.37,0,0,0,.24-2.5v-5.11l-.06-.12q-2.79-.06-3.92-.06a35.56,35.56,0,0,0-4.1.15v5a11.06,11.06,0,0,0,.27,2.68q.06.21.82.43a4.55,4.55,0,0,0,1,.22c.08,0,.12.19.12.56a1.3,1.3,0,0,1-.06.42l-3.78-.18-1.25,0-1.44.07-1.26.07a.58.58,0,0,1-.12-.42c0-.38,0-.56.12-.56a4.76,4.76,0,0,0,1.12-.21q.76-.21.85-.45a10.42,10.42,0,0,0,.24-2.5V174.74a9,9,0,0,0-.24-2.5q-.12-.24-.83-.46a4,4,0,0,0-1.07-.22c-.08,0-.12-.15-.12-.45a1.19,1.19,0,0,1,.06-.54l1.65.09q1.5.09,2.3.09l3.81-.18a1.52,1.52,0,0,1,.09.48c0,.34,0,.5-.12.5a4.83,4.83,0,0,0-1.07.24q-.8.24-.86.45a11.07,11.07,0,0,0-.24,2.62v4.34l.06.09q2.91.06,4,.06t3.92-.06a.17.17,0,0,0,.06-.12v-4.43a8.93,8.93,0,0,0-.24-2.5q-.12-.24-.83-.46a4,4,0,0,0-1.07-.22c-.08,0-.12-.15-.12-.45a1.19,1.19,0,0,1,.06-.54l1.65.09q1.5.09,2.3.09l3.81-.18a1.54,1.54,0,0,1,.09.48q0,.51-.12.5a4.84,4.84,0,0,0-1.07.24q-.8.24-.86.45a11.07,11.07,0,0,0-.24,2.62V186a11.06,11.06,0,0,0,.27,2.68q.06.21.82.43A4.56,4.56,0,0,0,460.08,189.37Z"/><path class="cls-1" d="M468.47,177.12a3.66,3.66,0,0,1,2.77,1,4.76,4.76,0,0,1,.92,3.31v5.86a1.35,1.35,0,0,0,.27.91.89.89,0,0,0,.71.31,1.85,1.85,0,0,0,1-.39c.12,0,.18.15.18.33a1.76,1.76,0,0,1-.18.89,7.28,7.28,0,0,1-1.19.74,3.09,3.09,0,0,1-1.43.39,2.17,2.17,0,0,1-1.34-.51,2.44,2.44,0,0,1-.86-1.1l-.22.19q-.19.16-.53.4a8.8,8.8,0,0,1-.77.48,4.78,4.78,0,0,1-1,.4,4.33,4.33,0,0,1-1.17.16,3.55,3.55,0,0,1-2.42-.82,2.82,2.82,0,0,1-.94-2.24,2.74,2.74,0,0,1,.34-1.34,3.55,3.55,0,0,1,.82-1,6.11,6.11,0,0,1,1.28-.79,12.28,12.28,0,0,1,1.38-.58l1.49-.46,1.26-.39a.47.47,0,0,0,.27-.48v-1.64a2.55,2.55,0,0,0-.48-1.64,1.55,1.55,0,0,0-1.28-.59,1.81,1.81,0,0,0-1.4.55,2.23,2.23,0,0,0-.5,1.56,1,1,0,0,1-.45.88,1.84,1.84,0,0,1-1,.28,1.68,1.68,0,0,1-1.55-.71q0-1.43,1.95-2.68A7.46,7.46,0,0,1,468.47,177.12Zm-1.34,11.42a2.31,2.31,0,0,0,1.38-.42,1.18,1.18,0,0,0,.58-1v-3q-.21.09-.88.3t-1,.36a8.3,8.3,0,0,0-.83.42,1.79,1.79,0,0,0-.7.65,1.64,1.64,0,0,0-.22.83,1.84,1.84,0,0,0,.48,1.4A1.71,1.71,0,0,0,467.14,188.54Z"/><path class="cls-1" d="M484.68,177.12a3,3,0,0,1,2.44,1q0,2.53-1.43,2.53a1.77,1.77,0,0,1-1.16-.59,1.86,1.86,0,0,0-1.28-.59,1.59,1.59,0,0,0-1.44.94,4,4,0,0,0-.52,1.95V186a12.45,12.45,0,0,0,.21,2.68c0,.14.3.28.79.43a4.21,4.21,0,0,0,1,.22c.06,0,.09.14.1.43a3.11,3.11,0,0,1,0,.58l-1.58-.12q-1.34-.09-2-.09t-2.07.09l-1.59.12a.88.88,0,0,1-.12-.56c0-.3,0-.45.12-.45a4.16,4.16,0,0,0,1.08-.22c.49-.15.75-.29.79-.43a9.76,9.76,0,0,0,.21-2.17V181.7a2.82,2.82,0,0,0-.48-1.9,1.43,1.43,0,0,0-.67-.45,3.42,3.42,0,0,0-.71-.18c-.19,0-.28,0-.28-.09,0-.57,0-.87.15-.89a42.15,42.15,0,0,0,4.79-.89l.24-.06c.08,0,.15.07.21.21a.71.71,0,0,1,.07.34l0,.42q0,.28-.07.59a3.87,3.87,0,0,0,0,.4,5.46,5.46,0,0,1,1.46-1.44A3.26,3.26,0,0,1,484.68,177.12Z"/><path class="cls-1" d="M497.77,177.12a3,3,0,0,1,2.44,1q0,2.53-1.43,2.53a1.77,1.77,0,0,1-1.16-.59,1.86,1.86,0,0,0-1.28-.59,1.59,1.59,0,0,0-1.44.94,4,4,0,0,0-.52,1.95V186a12.47,12.47,0,0,0,.21,2.68q.06.21.79.43a4.19,4.19,0,0,0,1,.22c.06,0,.09.14.1.43a3.08,3.08,0,0,1,0,.58l-1.58-.12q-1.34-.09-2-.09t-2.07.09l-1.59.12a.88.88,0,0,1-.12-.56c0-.3,0-.45.12-.45a4.16,4.16,0,0,0,1.09-.22q.73-.22.79-.43a9.69,9.69,0,0,0,.21-2.17V181.7a2.82,2.82,0,0,0-.48-1.9,1.43,1.43,0,0,0-.67-.45,3.42,3.42,0,0,0-.71-.18c-.19,0-.28,0-.28-.09,0-.57,0-.87.15-.89a42.18,42.18,0,0,0,4.79-.89l.24-.06c.08,0,.15.07.21.21a.72.72,0,0,1,.07.34l0,.42c0,.19,0,.39-.07.59a4,4,0,0,0,0,.4,5.47,5.47,0,0,1,1.46-1.44A3.25,3.25,0,0,1,497.77,177.12Z"/><path class="cls-1" d="M507.44,186a11,11,0,0,0,.24,2.68q.06.21.8.43a4.39,4.39,0,0,0,1,.22c.08,0,.12.14.13.43a1.68,1.68,0,0,1,0,.58l-1.59-.12q-1.38-.09-2-.09t-2.1.09l-1.56.12a.88.88,0,0,1-.12-.56c0-.3,0-.45.12-.45a4.3,4.3,0,0,0,1.07-.22q.74-.22.8-.43a9.69,9.69,0,0,0,.21-2.17V181.7a2.82,2.82,0,0,0-.48-1.9,1.65,1.65,0,0,0-.68-.45,3.15,3.15,0,0,0-.71-.18c-.2,0-.3,0-.3-.09,0-.57.06-.87.18-.89a22.88,22.88,0,0,0,2.41-.36,23.33,23.33,0,0,0,2.35-.54l.24-.06c.1,0,.18.07.24.21a.55.55,0,0,1,.06.33,25.63,25.63,0,0,0-.24,2.56Zm-3.09-12.44a1.81,1.81,0,0,1-.54-1.31,1.83,1.83,0,0,1,1.84-1.83A1.78,1.78,0,0,1,507,171a1.76,1.76,0,0,1,.54,1.29,1.81,1.81,0,0,1-.54,1.31,1.83,1.83,0,0,1-2.62,0Z"/><path class="cls-1" d="M516.22,177.09a12.64,12.64,0,0,1,3.45.51,16.9,16.9,0,0,1,.33,3.33q0,.24-.39.24-.65,0-.71-.24a3.6,3.6,0,0,0-.88-1.77,2.32,2.32,0,0,0-1.8-.73,2.13,2.13,0,0,0-1.35.39,1.32,1.32,0,0,0-.49,1.1,1.73,1.73,0,0,0,.16.76,1.86,1.86,0,0,0,.54.64,7.38,7.38,0,0,0,.65.48q.28.18.85.48a1.92,1.92,0,0,0,.3.15l.45.24.49.27.48.28a5.48,5.48,0,0,1,.52.34l.46.36a2.35,2.35,0,0,1,.45.42l.36.46a1.88,1.88,0,0,1,.31.54,5.6,5.6,0,0,1,.16.56,2.79,2.79,0,0,1,.07.64,3.5,3.5,0,0,1-1.44,3,5.64,5.64,0,0,1-3.49,1.09,9.93,9.93,0,0,1-3.83-.83,11.79,11.79,0,0,1-.3-1.65,14.7,14.7,0,0,1-.15-1.71.63.63,0,0,1,.42-.15c.46,0,.69.08.71.24a3.28,3.28,0,0,0,1.17,2,3.17,3.17,0,0,0,2,.76,2.16,2.16,0,0,0,1.37-.42,1.45,1.45,0,0,0,.54-1.22,2,2,0,0,0-.07-.55,1.47,1.47,0,0,0-.28-.5l-.34-.42a2.13,2.13,0,0,0-.54-.4l-.59-.34-.74-.39-.76-.4A6.91,6.91,0,0,1,512.2,183a3.43,3.43,0,0,1,.68-4.92A5.73,5.73,0,0,1,516.22,177.09Z"/><path class="cls-1" d="M531.36,186V174.77a9.45,9.45,0,0,0-.21-2.44q-.09-.33-.83-.54a4.67,4.67,0,0,0-1.19-.21c-.08,0-.12-.15-.12-.45a.81.81,0,0,1,.12-.54q2,.09,4,.09l2.56,0h1.78a8.78,8.78,0,0,1,2.14.27,8.88,8.88,0,0,1,2.08.82,4.38,4.38,0,0,1,1.65,1.59,4.51,4.51,0,0,1,.64,2.41,3.48,3.48,0,0,1-.62,2,4.34,4.34,0,0,1-2.11,1.81c-.16.06-.2.12-.12.18a4.81,4.81,0,0,1,2.45,1.56,4.68,4.68,0,0,1,1.35,3.4,4.8,4.8,0,0,1-2.07,4.07,8.93,8.93,0,0,1-5.49,1.49l-4.22,0-4,.12a.77.77,0,0,1-.09-.48c0-.34,0-.51.09-.51a4.92,4.92,0,0,0,1.13-.19q.74-.19.86-.46A10.82,10.82,0,0,0,531.36,186Zm6.81-7a2.63,2.63,0,0,0,2.17-2.91q0-4-3.42-4a7.94,7.94,0,0,0-1.9.15.3.3,0,0,0-.24.33l-.06,2.85v3.48q0,.3,1.78.3A5.86,5.86,0,0,0,538.17,179Zm3.09,6a4.66,4.66,0,0,0-1.06-3.14,4.25,4.25,0,0,0-3.4-1.23,12.32,12.32,0,0,0-1.84.15.65.65,0,0,0-.24.59v5.53q0,1.25.36,1.55a3.72,3.72,0,0,0,1.9.3,6.07,6.07,0,0,0,1.28-.13,6.33,6.33,0,0,0,1.35-.48A2.69,2.69,0,0,0,540.8,187,4,4,0,0,0,541.26,185Z"/><path class="cls-1" d="M553,177.12a3.65,3.65,0,0,1,2.76,1,4.75,4.75,0,0,1,.92,3.31v5.86a1.36,1.36,0,0,0,.27.91.89.89,0,0,0,.71.31,1.85,1.85,0,0,0,1-.39c.12,0,.18.15.18.33a1.76,1.76,0,0,1-.18.89,7.25,7.25,0,0,1-1.19.74,3.09,3.09,0,0,1-1.43.39,2.17,2.17,0,0,1-1.34-.51,2.44,2.44,0,0,1-.86-1.1l-.22.19c-.13.11-.31.24-.54.4a8.8,8.8,0,0,1-.77.48,4.77,4.77,0,0,1-1,.4,4.33,4.33,0,0,1-1.17.16,3.55,3.55,0,0,1-2.42-.82,2.82,2.82,0,0,1-.94-2.24,2.74,2.74,0,0,1,.34-1.34,3.55,3.55,0,0,1,.82-1,6.12,6.12,0,0,1,1.28-.79,12.35,12.35,0,0,1,1.38-.58l1.49-.46,1.26-.39a.47.47,0,0,0,.27-.48v-1.64a2.55,2.55,0,0,0-.48-1.64,1.55,1.55,0,0,0-1.28-.59,1.8,1.8,0,0,0-1.4.55,2.22,2.22,0,0,0-.51,1.56,1,1,0,0,1-.45.88,1.85,1.85,0,0,1-1,.28A1.68,1.68,0,0,1,547,181q0-1.43,1.95-2.68A7.45,7.45,0,0,1,553,177.12Zm-1.34,11.42a2.31,2.31,0,0,0,1.38-.42,1.18,1.18,0,0,0,.58-1v-3q-.21.09-.88.3t-1,.36a8.3,8.3,0,0,0-.83.42,1.8,1.8,0,0,0-.7.65,1.64,1.64,0,0,0-.22.83,1.83,1.83,0,0,0,.48,1.4A1.71,1.71,0,0,0,551.7,188.54Z"/><path class="cls-1" d="M573.53,180.33v5.89a6.58,6.58,0,0,0,.24,2.08.61.61,0,0,0,.34.24,2.33,2.33,0,0,0,.52.12l.49,0a.56.56,0,0,1,.25,0c.08,0,.12.11.12.27a2.29,2.29,0,0,1-.06.4q-.06.28-.18.28a6.82,6.82,0,0,0-1.06.1L573,190l-1.13.22-1.19.24c-.14,0-.21-.16-.21-.48v-1.31c0-.1-.05-.15-.09-.15a6.64,6.64,0,0,1-1.81,1.34,5,5,0,0,1-2.35.59,3.12,3.12,0,0,1-1.77-.51,3.59,3.59,0,0,1-1.19-1.31,6.38,6.38,0,0,1-.62-1.72,9.09,9.09,0,0,1-.19-1.87V181.7a2.82,2.82,0,0,0-.48-1.9,1.65,1.65,0,0,0-.68-.45,3.15,3.15,0,0,0-.71-.18c-.2,0-.3,0-.3-.09,0-.57,0-.87.15-.89a22.49,22.49,0,0,0,2.44-.36,23.33,23.33,0,0,0,2.35-.54l.12,0,.12,0q.15,0,.22.21a1,1,0,0,1,.08.33,26,26,0,0,0-.27,2.62V184a6.37,6.37,0,0,0,.65,3.33,2.62,2.62,0,0,0,3.72.43,1.58,1.58,0,0,0,.65-1.11V181.7a2.82,2.82,0,0,0-.48-1.9,1.43,1.43,0,0,0-.67-.45,3.37,3.37,0,0,0-.73-.18c-.2,0-.3,0-.3-.09,0-.57.06-.87.18-.89a22.88,22.88,0,0,0,2.41-.36,23.3,23.3,0,0,0,2.35-.54l.24-.06c.1,0,.18.07.24.21a.55.55,0,0,1,.06.33Q573.53,179.8,573.53,180.33Z"/><path class="cls-1" d="M583.44,177.12a5.52,5.52,0,0,1,2.5.55,4.71,4.71,0,0,1,1.72,1.4,6.87,6.87,0,0,1,1,1.75,5.11,5.11,0,0,1,.33,1.74q0,.65-.22.82a1.69,1.69,0,0,1-.91.16h-7.1c-.14,0-.21.06-.21.18a5.78,5.78,0,0,0,.39,2.08,4.1,4.1,0,0,0,1.32,1.75,3.5,3.5,0,0,0,2.25.74,8.07,8.07,0,0,0,.86,0,4.43,4.43,0,0,0,.77-.15l.62-.19a2.52,2.52,0,0,0,.55-.27l.4-.25.6-.4a.5.5,0,0,1,.15.18.59.59,0,0,1,.09.3.91.91,0,0,1-.18.56,4.83,4.83,0,0,1-1.75,1.61,5.51,5.51,0,0,1-2.94.8,6,6,0,0,1-4.46-1.92,6.41,6.41,0,0,1-1.87-4.65A6.88,6.88,0,0,1,579,179,5.76,5.76,0,0,1,583.44,177.12Zm-.21,1.37a2.1,2.1,0,0,0-1.28.42,2.81,2.81,0,0,0-.86,1,5.67,5.67,0,0,0-.43,1.11,3.61,3.61,0,0,0-.13.88c0,.14.06.21.18.21h4.81c.18,0,.27-.15.27-.45a3.86,3.86,0,0,0-.7-2.11A2.13,2.13,0,0,0,583.23,178.49Z"/><path class="cls-1" d="M599.32,177.12a3,3,0,0,1,2.44,1q0,2.53-1.43,2.53a1.77,1.77,0,0,1-1.16-.59,1.86,1.86,0,0,0-1.28-.59,1.59,1.59,0,0,0-1.44.94,4,4,0,0,0-.52,1.95V186a12.45,12.45,0,0,0,.21,2.68c0,.14.3.28.79.43a4.21,4.21,0,0,0,1,.22c.06,0,.09.14.1.43a3.11,3.11,0,0,1,0,.58l-1.58-.12q-1.34-.09-2-.09t-2.07.09l-1.59.12a.87.87,0,0,1-.12-.56c0-.3,0-.45.12-.45a4.15,4.15,0,0,0,1.08-.22q.73-.22.79-.43a9.7,9.7,0,0,0,.21-2.17V181.7a2.83,2.83,0,0,0-.48-1.9,1.43,1.43,0,0,0-.67-.45,3.41,3.41,0,0,0-.71-.18c-.19,0-.28,0-.28-.09,0-.57,0-.87.15-.89a42.15,42.15,0,0,0,4.79-.89l.24-.06q.12,0,.21.21a.71.71,0,0,1,.07.34l0,.42q0,.28-.07.59a3.69,3.69,0,0,0,0,.4,5.44,5.44,0,0,1,1.46-1.44A3.25,3.25,0,0,1,599.32,177.12Z"/><path class="cls-1" d="M607.16,187.2a1.94,1.94,0,0,1,.58,1.4,2,2,0,0,1-.58,1.41,1.84,1.84,0,0,1-1.38.61,1.92,1.92,0,0,1-1.43-.61,2,2,0,0,1-.59-1.41,1.91,1.91,0,0,1,.59-1.4,1.94,1.94,0,0,1,1.43-.59A1.86,1.86,0,0,1,607.16,187.2Z"/></svg>