<svg id="Layer_1" data-name="Layer 1" xmlns="http://www.w3.org/2000/svg" viewBox="0 0 514.95 199.79"><defs><style>.cls-1{fill:#1928eb;}</style></defs><title>title</title><path class="cls-1" d="M9.22,19l7.5,15q.54,1.15,1.07,2.09a1.45,1.45,0,0,0,1,.63,3.94,3.94,0,0,0,1.15.17c.08,0,.13.17.16.52a1,1,0,0,1,0,.45L16.34,38l-3.84.49a.83.83,0,0,1-.17-.54c0-.29,0-.43.08-.44a3.82,3.82,0,0,0,1-.26q.61-.23.71-.48a.88.88,0,0,0,.06-.39,6.91,6.91,0,0,0-.73-2L12.15,31.7a.33.33,0,0,0-.22-.1q-1,0-2.55.15T6,32.12c-.12,0-.17.05-.17.13l-.9,2.85a8.46,8.46,0,0,0-.41,2,.67.67,0,0,0,.38.57,3,3,0,0,0,1,.25,5.11,5.11,0,0,0,.92.07q.09,0,.12.41a1.94,1.94,0,0,1,0,.57L5.5,39q-1.25,0-2,.08t-1.82.22l-1.49.23A.64.64,0,0,1,0,39.05c0-.36,0-.54,0-.54a4.3,4.3,0,0,0,1.12-.35,1.83,1.83,0,0,0,.94-.66A14.11,14.11,0,0,0,3,35.1L7.45,21.32a6.46,6.46,0,0,1,.92-2.22.76.76,0,0,1,.49-.25A.49.49,0,0,1,9.22,19ZM6.58,30.28c.7,0,1.41,0,2.14-.09s1.5-.15,2.42-.29l0-.12L8.45,24,6.5,30.17C6.51,30.24,6.53,30.28,6.58,30.28Z"/><path class="cls-1" d="M30.77,23.69q3.82-.31,4.32,5.76l.23,2.81a12.47,12.47,0,0,0,.43,2.65q.08.2.85.36a4.56,4.56,0,0,0,1,.14c.06,0,.11.14.14.42a1.7,1.7,0,0,1,0,.58q-.18,0-1.56,0t-2.07.08q-.71.06-2,.25L30.67,37a.87.87,0,0,1-.16-.55q0-.44.08-.45a3.52,3.52,0,0,0,1-.3c.43-.18.66-.35.69-.49A8.51,8.51,0,0,0,32.31,33l-.23-2.81a6.45,6.45,0,0,0-.95-3.38,2.39,2.39,0,0,0-2.2-.8,2.76,2.76,0,0,0-1.62.66,1.44,1.44,0,0,0-.62,1.17l.42,5.1a12.46,12.46,0,0,0,.43,2.65q.08.2.82.37a4.27,4.27,0,0,0,1,.14c.08,0,.14.13.17.42a1.69,1.69,0,0,1,0,.58H28q-1.33,0-2,.08c-.47,0-1.16.13-2.05.26l-1.58.25a.88.88,0,0,1-.16-.55q0-.44.08-.45a4.14,4.14,0,0,0,1.06-.31c.47-.19.72-.35.75-.49a9.65,9.65,0,0,0,0-2.18l-.4-4.83A2.82,2.82,0,0,0,23,27a1.42,1.42,0,0,0-.7-.39,3.4,3.4,0,0,0-.73-.12c-.19,0-.29,0-.29-.07,0-.57,0-.87.07-.9a42.07,42.07,0,0,0,4.7-1.28l.07-.05.09,0h.07c.08,0,.15.06.22.19a.89.89,0,0,1,.12.32,9.92,9.92,0,0,0,0,1.08c0,.08,0,.13,0,.15a.44.44,0,0,0,.14-.1,6.57,6.57,0,0,1,1.72-1.39A5.19,5.19,0,0,1,30.77,23.69Z"/><path class="cls-1" d="M51.25,22a5.51,5.51,0,0,1,2.53.34,4.7,4.7,0,0,1,1.83,1.25,6.87,6.87,0,0,1,1.09,1.67A5.1,5.1,0,0,1,57.18,27c0,.43,0,.71-.15.83a1.69,1.69,0,0,1-.89.24l-7.08.58c-.14,0-.2.08-.19.19a5.77,5.77,0,0,0,.56,2,4.08,4.08,0,0,0,1.46,1.64,3.49,3.49,0,0,0,2.3.56,8,8,0,0,0,.85-.11,4.43,4.43,0,0,0,.76-.21l.61-.24a2.57,2.57,0,0,0,.53-.31l.38-.28.56-.45a.48.48,0,0,1,.16.17.58.58,0,0,1,.11.29.93.93,0,0,1-.13.58,4.83,4.83,0,0,1-1.62,1.74,5.51,5.51,0,0,1-2.87,1,6,6,0,0,1-4.6-1.54,6.4,6.4,0,0,1-2.25-4.48,6.87,6.87,0,0,1,1.33-5A5.76,5.76,0,0,1,51.25,22Zm-.1,1.38a2.1,2.1,0,0,0-1.24.52A2.8,2.8,0,0,0,49.14,25a5.77,5.77,0,0,0-.34,1.15,3.62,3.62,0,0,0-.06.89c0,.14.08.2.19.19l4.8-.4c.18,0,.25-.17.23-.47a3.86,3.86,0,0,0-.87-2A2.13,2.13,0,0,0,51.16,23.38Z"/><path class="cls-1" d="M63.23,21a12.62,12.62,0,0,1,3.48.22,16.64,16.64,0,0,1,.6,3.29c0,.16-.11.25-.37.27-.43,0-.68,0-.73-.18a3.6,3.6,0,0,0-1-1.69,2.32,2.32,0,0,0-1.85-.58,2.13,2.13,0,0,0-1.32.5,1.32,1.32,0,0,0-.4,1.14,1.74,1.74,0,0,0,.22.74,1.84,1.84,0,0,0,.59.59,7.26,7.26,0,0,0,.69.42c.2.1.49.24.88.4a1.93,1.93,0,0,0,.31.12l.46.2.51.23.5.24a5.27,5.27,0,0,1,.54.3l.49.32a2.36,2.36,0,0,1,.48.38l.39.43a1.89,1.89,0,0,1,.36.51,5.3,5.3,0,0,1,.21.55,2.74,2.74,0,0,1,.13.63,3.51,3.51,0,0,1-1.19,3.07,5.65,5.65,0,0,1-3.39,1.37,9.94,9.94,0,0,1-3.89-.52,12,12,0,0,1-.43-1.62,14.56,14.56,0,0,1-.29-1.69.63.63,0,0,1,.4-.18c.46,0,.7,0,.73.18a3.28,3.28,0,0,0,1.34,1.9,3.17,3.17,0,0,0,2.09.59,2.15,2.15,0,0,0,1.33-.53,1.45,1.45,0,0,0,.43-1.26,2,2,0,0,0-.12-.54,1.43,1.43,0,0,0-.32-.48l-.37-.39a2.2,2.2,0,0,0-.57-.36l-.62-.29-.77-.32-.79-.34a6.91,6.91,0,0,1-2.23-1.41,3.43,3.43,0,0,1,.28-5A5.74,5.74,0,0,1,63.23,21Z"/><path class="cls-1" d="M74.38,20.07a12.62,12.62,0,0,1,3.48.22,16.66,16.66,0,0,1,.6,3.29c0,.16-.11.25-.37.27-.44,0-.68,0-.73-.18a3.6,3.6,0,0,0-1-1.69,2.32,2.32,0,0,0-1.85-.58,2.13,2.13,0,0,0-1.32.5,1.31,1.31,0,0,0-.4,1.14,1.75,1.75,0,0,0,.22.74,1.86,1.86,0,0,0,.59.59,7.23,7.23,0,0,0,.69.42q.3.16.88.4a1.9,1.9,0,0,0,.31.12l.46.2.51.23.5.24a5,5,0,0,1,.55.3l.49.32a2.37,2.37,0,0,1,.48.38l.39.43a1.94,1.94,0,0,1,.36.51,5.84,5.84,0,0,1,.21.55,2.73,2.73,0,0,1,.13.63,3.5,3.5,0,0,1-1.19,3.07,5.64,5.64,0,0,1-3.39,1.37A9.92,9.92,0,0,1,71.06,33a11.69,11.69,0,0,1-.43-1.62,14.12,14.12,0,0,1-.29-1.69.63.63,0,0,1,.4-.18c.45,0,.7,0,.73.18a3.28,3.28,0,0,0,1.34,1.9,3.17,3.17,0,0,0,2.09.59,2.16,2.16,0,0,0,1.33-.53,1.46,1.46,0,0,0,.43-1.26,2,2,0,0,0-.12-.54,1.48,1.48,0,0,0-.32-.48L75.84,29a2.13,2.13,0,0,0-.56-.36l-.62-.29L73.88,28l-.79-.34a6.93,6.93,0,0,1-2.24-1.41,3.44,3.44,0,0,1,.28-5A5.74,5.74,0,0,1,74.38,20.07Z"/><path class="cls-1" d="M86.92,19.07a3.65,3.65,0,0,1,2.83.74A4.75,4.75,0,0,1,90.94,23l.48,5.84a1.36,1.36,0,0,0,.34.88.89.89,0,0,0,.74.25,1.86,1.86,0,0,0,1-.47c.12,0,.19.13.2.31a1.77,1.77,0,0,1-.1.9,7.39,7.39,0,0,1-1.12.84,3.09,3.09,0,0,1-1.39.5,2.17,2.17,0,0,1-1.37-.39,2.46,2.46,0,0,1-.95-1l-.21.21c-.12.12-.29.27-.5.44a8.57,8.57,0,0,1-.73.54,4.75,4.75,0,0,1-1,.48,4.33,4.33,0,0,1-1.16.26A3.55,3.55,0,0,1,82.69,32a2.83,2.83,0,0,1-1.12-2.16,2.73,2.73,0,0,1,.23-1.36,3.58,3.58,0,0,1,.73-1.09,6.06,6.06,0,0,1,1.21-.89,12.22,12.22,0,0,1,1.33-.69l1.44-.58,1.23-.49a.47.47,0,0,0,.23-.5l-.13-1.63A2.56,2.56,0,0,0,87.23,21a1.55,1.55,0,0,0-1.32-.49,1.8,1.8,0,0,0-1.35.66,2.22,2.22,0,0,0-.37,1.6,1,1,0,0,1-.37.91,1.86,1.86,0,0,1-1,.36,1.68,1.68,0,0,1-1.6-.58q-.12-1.42,1.72-2.83A7.46,7.46,0,0,1,86.92,19.07Zm-.4,11.49A2.31,2.31,0,0,0,87.87,30a1.17,1.17,0,0,0,.5-1l-.25-3q-.2.11-.85.37c-.43.17-.76.32-1,.44a8.3,8.3,0,0,0-.8.48,1.79,1.79,0,0,0-.64.71,1.65,1.65,0,0,0-.15.85,1.83,1.83,0,0,0,.59,1.35A1.7,1.7,0,0,0,86.52,30.55Z"/><path class="cls-1" d="M97.59,18.48c.43,0,1.05-.12,1.86-.24s1.3-.2,1.5-.21a2,2,0,0,1,.1.53c0,.28,0,.42-.08.42a3.23,3.23,0,0,0-.92.3c-.41.18-.62.36-.63.54l0,.18q.1.47,3.31,6.53.19-.55.91-3t.84-2.83a2.8,2.8,0,0,0,.1-.93.94.94,0,0,0-.53-.69,2.44,2.44,0,0,0-1.45-.22c-.08,0-.13-.14-.15-.43a.75.75,0,0,1,.08-.51q.35,0,1.46,0c.74,0,1.34,0,1.81-.06s.92-.11,1.52-.21,1-.17,1.31-.2a.85.85,0,0,1,.16.46c0,.32,0,.48-.08.48a3.77,3.77,0,0,0-1.18.4,1.65,1.65,0,0,0-.95,1l-4.34,13.54q-1.48,4.48-4.06,4.69A1.61,1.61,0,0,1,97,37.62a1.39,1.39,0,0,1,0-2.12q3.08-.25,3.86-2.76.57-1.84.63-2.08L96.3,20.95a3.93,3.93,0,0,0-.41-.65A1.79,1.79,0,0,0,95,19.7a2.83,2.83,0,0,0-1-.14q-.12,0-.15-.4c0-.32,0-.5,0-.54l1.59,0Q96.87,18.54,97.59,18.48Z"/><path class="cls-1" d="M123.41,16.06a6.55,6.55,0,0,1,4.91,1.55,6.38,6.38,0,0,1,2.36,4.53,6.78,6.78,0,1,1-7.27-6.08Zm-.27,1.42A2.4,2.4,0,0,0,121.09,19a6.39,6.39,0,0,0-.5,3.28,8.65,8.65,0,0,0,1.31,4.1,3,3,0,0,0,2.83,1.56,2.42,2.42,0,0,0,2.06-1.54,6.31,6.31,0,0,0,.52-3.26,10.21,10.21,0,0,0-.62-2.83,5.25,5.25,0,0,0-1.43-2.1A2.76,2.76,0,0,0,123.14,17.48Z"/><path class="cls-1" d="M141.73,14.55q3.82-.31,4.32,5.76l.23,2.81a12.45,12.45,0,0,0,.43,2.65c.05.14.33.26.85.36a4.53,4.53,0,0,0,1,.14c.06,0,.1.14.14.42a1.75,1.75,0,0,1,0,.58q-.18,0-1.57,0c-.92,0-1.61,0-2.07.08s-1.13.12-2,.25l-1.52.24a.86.86,0,0,1-.16-.55c0-.3,0-.45.08-.45a3.51,3.51,0,0,0,1-.3q.65-.28.69-.49a8.5,8.5,0,0,0,.06-2.18L143,21.06a6.46,6.46,0,0,0-.95-3.38,2.39,2.39,0,0,0-2.2-.8,2.75,2.75,0,0,0-1.62.66,1.43,1.43,0,0,0-.62,1.17l.42,5.1a12.47,12.47,0,0,0,.43,2.65q.08.2.82.36a4.3,4.3,0,0,0,1,.14c.08,0,.13.13.17.42a1.65,1.65,0,0,1,0,.58h-1.56q-1.33,0-2,.08t-2.05.26l-1.58.25a.86.86,0,0,1-.16-.55c0-.3,0-.45.08-.45a4.12,4.12,0,0,0,1.06-.31q.71-.28.75-.49a9.9,9.9,0,0,0,0-2.18l-.4-4.83a2.82,2.82,0,0,0-.63-1.86,1.43,1.43,0,0,0-.7-.39,3.38,3.38,0,0,0-.73-.12c-.19,0-.29,0-.29-.07q-.07-.86.08-.9a42,42,0,0,0,4.7-1.28l.07-.05.09,0h.07c.08,0,.15.06.22.19a.9.9,0,0,1,.12.32,10.72,10.72,0,0,0,0,1.08c0,.08,0,.13,0,.15a.42.42,0,0,0,.14-.1,6.65,6.65,0,0,1,1.72-1.4A5.21,5.21,0,0,1,141.73,14.55Z"/><path class="cls-1" d="M162.37,12.85a3.65,3.65,0,0,1,2.83.74,4.75,4.75,0,0,1,1.19,3.23l.48,5.84a1.36,1.36,0,0,0,.34.88.89.89,0,0,0,.73.25,1.86,1.86,0,0,0,1-.47c.12,0,.19.13.21.31a1.75,1.75,0,0,1-.11.9,7.24,7.24,0,0,1-1.12.84,3.11,3.11,0,0,1-1.39.5,2.17,2.17,0,0,1-1.37-.39,2.43,2.43,0,0,1-.95-1l-.21.21c-.12.12-.29.27-.5.44a8.57,8.57,0,0,1-.73.54,4.75,4.75,0,0,1-1,.48,4.31,4.31,0,0,1-1.16.26,3.55,3.55,0,0,1-2.48-.62A2.82,2.82,0,0,1,157,23.61a2.74,2.74,0,0,1,.23-1.36,3.55,3.55,0,0,1,.73-1.09,6.08,6.08,0,0,1,1.21-.89,12.22,12.22,0,0,1,1.33-.69L162,19l1.23-.49a.46.46,0,0,0,.23-.5l-.13-1.63a2.55,2.55,0,0,0-.61-1.59,1.55,1.55,0,0,0-1.32-.49A1.81,1.81,0,0,0,160,15a2.22,2.22,0,0,0-.37,1.6,1,1,0,0,1-.37.91,1.85,1.85,0,0,1-1,.36,1.68,1.68,0,0,1-1.6-.58q-.12-1.42,1.72-2.83A7.46,7.46,0,0,1,162.37,12.85ZM162,24.34a2.3,2.3,0,0,0,1.34-.53,1.18,1.18,0,0,0,.5-1l-.25-3c-.13.07-.42.19-.85.37s-.76.32-1,.44a8.32,8.32,0,0,0-.8.48,1.81,1.81,0,0,0-.64.71,1.65,1.65,0,0,0-.15.85,1.84,1.84,0,0,0,.59,1.35A1.71,1.71,0,0,0,162,24.34Z"/><path class="cls-1" d="M181.16,11.27a12.64,12.64,0,0,1,3.48.22,16.82,16.82,0,0,1,.6,3.29c0,.16-.11.25-.37.27-.43,0-.68,0-.73-.18a3.59,3.59,0,0,0-1-1.69,2.32,2.32,0,0,0-1.85-.58,2.13,2.13,0,0,0-1.32.5,1.32,1.32,0,0,0-.4,1.14,1.75,1.75,0,0,0,.22.74,1.85,1.85,0,0,0,.59.59,7.48,7.48,0,0,0,.69.42q.3.16.88.4a1.9,1.9,0,0,0,.31.12l.46.2.51.23.5.24a5.57,5.57,0,0,1,.55.3l.49.32a2.31,2.31,0,0,1,.48.38l.39.43a1.9,1.9,0,0,1,.36.51,5.35,5.35,0,0,1,.21.55,2.73,2.73,0,0,1,.13.63,3.51,3.51,0,0,1-1.19,3.07,5.64,5.64,0,0,1-3.39,1.37,9.92,9.92,0,0,1-3.89-.51,12,12,0,0,1-.43-1.62,14.54,14.54,0,0,1-.29-1.69.63.63,0,0,1,.4-.18c.45,0,.7,0,.73.18a3.28,3.28,0,0,0,1.34,1.9,3.17,3.17,0,0,0,2.09.59,2.16,2.16,0,0,0,1.33-.53,1.44,1.44,0,0,0,.43-1.26,2,2,0,0,0-.12-.54,1.44,1.44,0,0,0-.32-.48l-.37-.39a2.18,2.18,0,0,0-.57-.36l-.62-.29-.77-.32-.79-.34a6.92,6.92,0,0,1-2.23-1.41,3.18,3.18,0,0,1-.92-2.06,3.19,3.19,0,0,1,1.19-2.9A5.73,5.73,0,0,1,181.16,11.27Z"/><path class="cls-1" d="M200.69,12.91l.48,5.87a6.56,6.56,0,0,0,.41,2.05.61.61,0,0,0,.36.21,2.32,2.32,0,0,0,.53.08H203a.55.55,0,0,1,.25,0q.12,0,.14.26a2.22,2.22,0,0,1,0,.4q0,.29-.15.3a6.92,6.92,0,0,0-1,.19l-1.21.31-1.11.31-1.17.33c-.14,0-.22-.14-.25-.46l-.11-1.3q0-.15-.1-.14a6.65,6.65,0,0,1-1.7,1.48,5,5,0,0,1-2.29.79,3.11,3.11,0,0,1-1.8-.36A3.58,3.58,0,0,1,191.11,22a6.31,6.31,0,0,1-.76-1.67,9.08,9.08,0,0,1-.35-1.85l-.27-3.32a2.82,2.82,0,0,0-.63-1.86,1.66,1.66,0,0,0-.72-.39,3.16,3.16,0,0,0-.72-.12c-.2,0-.3,0-.3-.06,0-.57,0-.87.07-.9a22.19,22.19,0,0,0,2.4-.56,23.27,23.27,0,0,0,2.3-.73l.12,0,.12,0q.15,0,.24.19a1.08,1.08,0,0,1,.1.32q-.1,2-.05,2.63l.29,3.56a6.39,6.39,0,0,0,.92,3.26,2.63,2.63,0,0,0,3.74.13,1.58,1.58,0,0,0,.56-1.17l-.4-4.89a2.81,2.81,0,0,0-.63-1.86,1.43,1.43,0,0,0-.7-.39,3.41,3.41,0,0,0-.74-.12c-.2,0-.3,0-.3-.06,0-.57,0-.87.1-.9a22.7,22.7,0,0,0,2.37-.55,23,23,0,0,0,2.3-.73l.23-.08c.1,0,.18.05.25.19a.54.54,0,0,1,.09.32Q200.65,12.38,200.69,12.91Z"/><path class="cls-1" d="M212.91,8.68a3,3,0,0,1,2.51.78q.21,2.52-1.22,2.64a1.76,1.76,0,0,1-1.2-.5,1.86,1.86,0,0,0-1.32-.49,1.59,1.59,0,0,0-1.36,1.05,3.94,3.94,0,0,0-.36,2l.3,3.7a12.61,12.61,0,0,0,.43,2.65c.05.13.32.26.82.37a4.21,4.21,0,0,0,1,.14c.06,0,.11.14.14.42a2.92,2.92,0,0,1,0,.58h-1.58c-.89,0-1.57,0-2,.08s-1.16.13-2.05.26l-1.58.25a.88.88,0,0,1-.17-.55c0-.3,0-.45.08-.45a4.1,4.1,0,0,0,1.06-.31q.71-.28.75-.49a9.89,9.89,0,0,0,0-2.18l-.4-4.83a2.82,2.82,0,0,0-.63-1.86,1.42,1.42,0,0,0-.7-.39,3.38,3.38,0,0,0-.73-.12c-.19,0-.29,0-.29-.07q-.07-.86.08-.9a42,42,0,0,0,4.7-1.28l.23-.08c.08,0,.15.06.23.19a.71.71,0,0,1,.1.33c0,.09,0,.23,0,.42s0,.39,0,.6a3.31,3.31,0,0,0,0,.4,5.43,5.43,0,0,1,1.33-1.56A3.25,3.25,0,0,1,212.91,8.68Z"/><path class="cls-1" d="M228.36,9.29q-.45-.77-2.14-.63c-.06,0-.1-.13-.12-.41a1,1,0,0,1,0-.54q.41,0,1.45,0t1.7-.05q.67-.05,1.73-.23t1.44-.21a.86.86,0,0,1,.13.47c0,.32,0,.48-.14.49a3.53,3.53,0,0,0-1.13.38,1.72,1.72,0,0,0-.94.93l-4.09,10.87a2.08,2.08,0,0,1-.35.54.75.75,0,0,1-.48.31c-.2,0-.32,0-.37-.15q-.7-1.28-1.92-3.56t-2.09-3.84l-2-3.53q-.42-.8-2-.67c-.08,0-.13-.15-.16-.46a.69.69,0,0,1,.08-.48q.27,0,1.58,0c.88,0,1.55,0,2-.08s1.15-.12,2-.26l1.53-.22a1,1,0,0,1,.12.53c0,.28,0,.42-.1.43a4.38,4.38,0,0,0-1,.26c-.43.15-.64.33-.63.53a.56.56,0,0,0,.08.29l3.5,6.57,2.18-6.09Q228.59,9.6,228.36,9.29Z"/><path class="cls-1" d="M240.17,15.39a11,11,0,0,0,.46,2.65q.08.2.84.36a4.38,4.38,0,0,0,1,.14c.08,0,.13.13.17.42a1.65,1.65,0,0,1,0,.58h-1.59q-1.39,0-2,.08t-2.08.26l-1.55.25a.89.89,0,0,1-.16-.55c0-.3,0-.45.08-.45a4.31,4.31,0,0,0,1-.31c.48-.19.74-.35.76-.5a9.66,9.66,0,0,0,0-2.18l-.4-4.83a2.82,2.82,0,0,0-.63-1.86,1.66,1.66,0,0,0-.72-.39,3.16,3.16,0,0,0-.72-.12c-.2,0-.3,0-.3-.06,0-.57,0-.87.1-.9a22.6,22.6,0,0,0,2.37-.55,23.12,23.12,0,0,0,2.3-.73l.23-.08c.1,0,.18.05.25.19a.54.54,0,0,1,.09.32,25.54,25.54,0,0,0,0,2.57Zm-4.1-12.15A1.8,1.8,0,0,1,235.43,2a1.76,1.76,0,0,1,.43-1.33,1.87,1.87,0,0,1,2.61-.21,1.76,1.76,0,0,1,.64,1.25A1.82,1.82,0,0,1,238.68,3a1.83,1.83,0,0,1-2.61.21Z"/><path class="cls-1" d="M254.45,7.14q-.45-.77-2.14-.63c-.06,0-.1-.13-.12-.41a1,1,0,0,1,0-.54q.41,0,1.45,0t1.7-.05q.67-.05,1.73-.23T258.54,5a.86.86,0,0,1,.13.47c0,.32,0,.48-.14.49a3.56,3.56,0,0,0-1.13.38,1.72,1.72,0,0,0-.94.93l-4.09,10.87a2.06,2.06,0,0,1-.34.54.75.75,0,0,1-.48.31c-.2,0-.32,0-.37-.15q-.7-1.28-1.92-3.56t-2.09-3.84q-.87-1.57-2-3.53-.42-.8-2-.67c-.08,0-.13-.15-.16-.46a.69.69,0,0,1,.08-.48q.27,0,1.58,0t2-.08c.48,0,1.15-.12,2-.26l1.53-.22a1,1,0,0,1,.12.53q0,.42-.1.43a4.4,4.4,0,0,0-1,.26q-.65.23-.63.53a.55.55,0,0,0,.08.29l3.49,6.57,2.18-6.09Q254.68,7.45,254.45,7.14Z"/><path class="cls-1" d="M267,4.23a6.56,6.56,0,0,1,4.92,1.55,6.37,6.37,0,0,1,2.36,4.53,6.47,6.47,0,0,1-1.55,4.87,6.74,6.74,0,0,1-11.87-3.77,6.4,6.4,0,0,1,1.55-4.87A6.51,6.51,0,0,1,267,4.23Zm-.27,1.42a2.39,2.39,0,0,0-2.05,1.53,6.41,6.41,0,0,0-.51,3.28,8.67,8.67,0,0,0,1.31,4.1,3,3,0,0,0,2.83,1.56,2.42,2.42,0,0,0,2.06-1.54,6.29,6.29,0,0,0,.52-3.26,10.21,10.21,0,0,0-.62-2.83,5.25,5.25,0,0,0-1.43-2.1A2.76,2.76,0,0,0,266.68,5.66Z"/><path class="cls-1" d="M284.26,2.8a3,3,0,0,1,2.51.78q.21,2.52-1.21,2.64a1.77,1.77,0,0,1-1.21-.5A1.86,1.86,0,0,0,283,5.23a1.59,1.59,0,0,0-1.36,1.05,3.94,3.94,0,0,0-.36,2l.3,3.7a12.47,12.47,0,0,0,.43,2.65q.08.2.82.36a4.2,4.2,0,0,0,1,.14c.06,0,.11.14.14.42a3.08,3.08,0,0,1,0,.58h-1.58q-1.34,0-2,.08c-.47,0-1.16.13-2.05.26l-1.58.25a.88.88,0,0,1-.16-.55q0-.44.08-.45a4.14,4.14,0,0,0,1.06-.31q.71-.28.75-.49a9.78,9.78,0,0,0,0-2.18l-.4-4.83A2.82,2.82,0,0,0,277.55,6a1.43,1.43,0,0,0-.7-.39,3.38,3.38,0,0,0-.72-.12c-.19,0-.29,0-.29-.07,0-.57,0-.87.07-.9a42,42,0,0,0,4.7-1.28l.23-.08c.08,0,.15.06.22.19a.72.72,0,0,1,.1.33c0,.09,0,.23,0,.42s0,.39,0,.6,0,.34,0,.4a5.44,5.44,0,0,1,1.33-1.56A3.25,3.25,0,0,1,284.26,2.8Z"/><path class="cls-1" d="M291.67,15.86a2.66,2.66,0,0,0-.55-1.19,2.7,2.7,0,0,1-.55-1.25,1.8,1.8,0,0,1,.52-1.3,2.21,2.21,0,0,1,1.58-.76,1.92,1.92,0,0,1,1,.1,4.63,4.63,0,0,1,.59,2,5.26,5.26,0,0,1-.12,1.44,8.51,8.51,0,0,1-1,2.85,13.27,13.27,0,0,1-2.32,2.62h0c-.1,0-.25-.08-.44-.28a.89.89,0,0,1-.31-.5,4.17,4.17,0,0,1,.46-.52,5.46,5.46,0,0,0,.9-1.37A3.57,3.57,0,0,0,291.67,15.86Z"/><path class="cls-1" d="M76.64,75.55a3.65,3.65,0,0,1,2.64,1.26,4.76,4.76,0,0,1,.56,3.39L79.21,86a1.36,1.36,0,0,0,.17.93.89.89,0,0,0,.68.39,1.85,1.85,0,0,0,1-.27c.11.05.16.17.14.34a1.77,1.77,0,0,1-.27.87,7.36,7.36,0,0,1-1.26.61,3.1,3.1,0,0,1-1.46.23A2.17,2.17,0,0,1,77,88.47a2.45,2.45,0,0,1-.74-1.19l-.24.17c-.14.09-.33.21-.57.34a8.77,8.77,0,0,1-.82.39,4.75,4.75,0,0,1-1,.29,4.33,4.33,0,0,1-1.18,0A3.55,3.55,0,0,1,70,87.44a2.82,2.82,0,0,1-.69-2.33,2.74,2.74,0,0,1,.48-1.29,3.53,3.53,0,0,1,.92-.93,6.08,6.08,0,0,1,1.36-.65,12.37,12.37,0,0,1,1.44-.43l1.53-.3,1.3-.25a.47.47,0,0,0,.32-.44l.18-1.63a2.55,2.55,0,0,0-.3-1.68,1.55,1.55,0,0,0-1.21-.73,1.8,1.8,0,0,0-1.45.4,2.22,2.22,0,0,0-.67,1.5,1,1,0,0,1-.54.82,1.85,1.85,0,0,1-1,.17,1.68,1.68,0,0,1-1.46-.88q.16-1.42,2.22-2.45A7.46,7.46,0,0,1,76.64,75.55Zm-2.56,11.2a2.31,2.31,0,0,0,1.42-.26,1.18,1.18,0,0,0,.68-.88l.33-3q-.22.07-.9.2T74.54,83a8.21,8.21,0,0,0-.87.32,1.78,1.78,0,0,0-.77.57,1.65,1.65,0,0,0-.31.8,1.83,1.83,0,0,0,.32,1.44A1.71,1.71,0,0,0,74.08,86.75Z"/><path class="cls-1" d="M93.76,77.41q3.81.41,3.15,6.47l-.3,2.81a12.48,12.48,0,0,0-.08,2.68c0,.14.28.31.77.52a4.56,4.56,0,0,0,1,.33c.06,0,.08.15.06.44a1.7,1.7,0,0,1-.11.57q-.17,0-1.54-.29t-2-.31q-.71-.08-2-.12l-1.54,0a.87.87,0,0,1-.06-.57q0-.44.17-.43a3.52,3.52,0,0,0,1-.11c.46-.1.72-.22.77-.35a8.53,8.53,0,0,0,.47-2.13l.3-2.81a6.46,6.46,0,0,0-.29-3.5,2.39,2.39,0,0,0-2-1.21,2.75,2.75,0,0,0-1.71.34,1.43,1.43,0,0,0-.83,1l-.55,5.08a12.48,12.48,0,0,0-.08,2.68q0,.21.74.51a4.27,4.27,0,0,0,.94.33c.08,0,.11.16.09.44a1.73,1.73,0,0,1-.11.57l-1.54-.29q-1.31-.23-2-.31t-2.06-.13l-1.59-.05a.88.88,0,0,1-.06-.57c0-.29.09-.44.17-.43a4.12,4.12,0,0,0,1.1-.1q.75-.14.83-.34A9.75,9.75,0,0,0,85.3,86l.52-4.82a2.84,2.84,0,0,0-.27-1.94,1.44,1.44,0,0,0-.62-.52,3.4,3.4,0,0,0-.69-.25c-.18,0-.27-.08-.27-.12.06-.57.14-.86.24-.87a42,42,0,0,0,4.85-.37l.08,0h.16q.12,0,.18.23a.9.9,0,0,1,.05.33,9.92,9.92,0,0,0-.23,1.05.24.24,0,0,0,0,.15.45.45,0,0,0,.16-.07,6.6,6.6,0,0,1,2-1A5.2,5.2,0,0,1,93.76,77.41Z"/><path class="cls-1" d="M108.32,78.93a5.1,5.1,0,0,1,2.11.65q.15,0,.2-.46l.3-2.78a10.33,10.33,0,0,0,0-2q-.1-.49-1.49-.64l-.24,0c-.12,0-.16-.18-.13-.49s.11-.47.23-.45q.9,0,1.75,0t1.42-.14q.56-.09,1-.19l.63-.16.24,0h.06c.08,0,.15.07.22.19a.53.53,0,0,1,.08.32,11.38,11.38,0,0,0-.6,2.75l-1.41,13a10.85,10.85,0,0,0-.06,2.21.44.44,0,0,0,.26.36,1.83,1.83,0,0,0,.55.21l.56.1.29,0a.61.61,0,0,1,0,.36c0,.39-.12.58-.24.57q-.42,0-1.06,0l-1.26.06-1.17.08-1.25.12c-.12,0-.16-.19-.12-.52l.05-.5a.13.13,0,0,0,0-.12s-.05,0-.07,0a5,5,0,0,1-3.19.76,5.76,5.76,0,0,1-4-2.21,6,6,0,0,1-1.29-4.61,7,7,0,0,1,2.57-4.79A6.51,6.51,0,0,1,108.32,78.93Zm-.42,1.39a2.6,2.6,0,0,0-2.51,1.07,7,7,0,0,0-1.19,3.49,7.17,7.17,0,0,0,.49,4,2.92,2.92,0,0,0,2.42,1.68,2.47,2.47,0,0,0,1.68-.34,1.65,1.65,0,0,0,.76-1.25l.67-6.21a2.1,2.1,0,0,0,0-.63,2.77,2.77,0,0,0-.28-.73,1.9,1.9,0,0,0-.73-.71A3.16,3.16,0,0,0,107.9,80.32Z"/><path class="cls-1" d="M125.3,82.93l-1.8-.2q-.21,0-.12-.79a.77.77,0,0,1,.06-.26,8.32,8.32,0,0,0,2.45-1.32l.94-.78q.51-.44,1.22-1.14a2.12,2.12,0,0,1,.55.13c.17.07.25.13.25.19l-.31,2.9,2.14.25,1.46.17c.16,0,.23.11.21.29a2.88,2.88,0,0,1-.44,1.27l-3.55-.38-.77,7.12a2.82,2.82,0,0,0,.31,1.86,1.7,1.7,0,0,0,1.32.77,2.81,2.81,0,0,0,.63,0,3.09,3.09,0,0,0,.55-.1l.4-.14.22-.07c.08,0,.16.09.24.29s.1.34.08.4a2.72,2.72,0,0,1-1.36.82,4.69,4.69,0,0,1-2.17.32,3.76,3.76,0,0,1-2.51-1.27,4,4,0,0,1-.75-3.18Z"/><path class="cls-1" d="M144.12,82.88q3.78.41,3.15,6.23l-.33,3a11,11,0,0,0-.05,2.69q0,.21.74.51a4.56,4.56,0,0,0,1,.33c.06,0,.08.15.06.44a3,3,0,0,1-.08.57q-.2-.05-1.57-.29t-2-.31q-.74-.08-2-.13l-1.56-.05a1.11,1.11,0,0,1,0-.57c0-.29.08-.44.14-.43a3.56,3.56,0,0,0,1-.11c.46-.1.73-.22.8-.35a11.23,11.23,0,0,0,.41-2.14l.31-2.9a6.2,6.2,0,0,0-.3-3.46,2.43,2.43,0,0,0-2-1.16,2.85,2.85,0,0,0-1.68.33,1.4,1.4,0,0,0-.86,1l-.55,5.08a10.92,10.92,0,0,0-.05,2.69q0,.21.74.51a4.22,4.22,0,0,0,1,.33c.06,0,.08.15.06.44a1.69,1.69,0,0,1-.11.57l-1.54-.29q-1.31-.23-2-.31t-2.06-.13L133.14,95a.87.87,0,0,1-.06-.57q0-.44.17-.43a4.12,4.12,0,0,0,1.1-.1c.5-.1.77-.21.83-.34a9.49,9.49,0,0,0,.44-2.11L137,79.17a11.83,11.83,0,0,0,.07-2q-.1-.49-1.49-.64l-.27,0q-.18,0-.12-.49c0-.31.11-.47.23-.45q.93,0,1.77,0c.56,0,1-.09,1.41-.15s.7-.12,1-.19l.87-.2h.06q.12,0,.22.19a.83.83,0,0,1,.11.33,9.56,9.56,0,0,0-.66,2.74l-.65,6c0,.12,0,.18.1.19s.06,0,.13-.08a5.67,5.67,0,0,1,2-1.09A5.49,5.49,0,0,1,144.12,82.88Z"/><path class="cls-1" d="M157.9,84.37a5.51,5.51,0,0,1,2.42.82,4.71,4.71,0,0,1,1.56,1.58,7,7,0,0,1,.76,1.85,5.16,5.16,0,0,1,.14,1.76q-.07.65-.31.79a1.69,1.69,0,0,1-.92.06l-7.06-.77q-.21,0-.23.15a5.77,5.77,0,0,0,.16,2.11,4.1,4.1,0,0,0,1.13,1.89,3.49,3.49,0,0,0,2.15,1,8.1,8.1,0,0,0,.86,0,4.42,4.42,0,0,0,.78-.06l.64-.12a2.54,2.54,0,0,0,.58-.21L161,95l.63-.33a.48.48,0,0,1,.13.19.57.57,0,0,1,.06.31.9.9,0,0,1-.24.54,4.85,4.85,0,0,1-1.92,1.41,5.53,5.53,0,0,1-3,.48,6,6,0,0,1-4.23-2.39,6.41,6.41,0,0,1-1.36-4.83,6.88,6.88,0,0,1,2.26-4.66A5.76,5.76,0,0,1,157.9,84.37Zm-.35,1.34a2.11,2.11,0,0,0-1.32.28,2.79,2.79,0,0,0-1,.91,5.67,5.67,0,0,0-.55,1.06,3.62,3.62,0,0,0-.23.86c0,.14,0,.21.15.23l4.79.52c.18,0,.28-.12.31-.41a3.86,3.86,0,0,0-.47-2.17A2.13,2.13,0,0,0,157.55,85.71Z"/><path class="cls-1" d="M177.15,86.52a9.42,9.42,0,0,1,2.41.65,9.19,9.19,0,0,0,2.32.64l1.69.18s.09.14.16.41a1.79,1.79,0,0,1,.08.61q0,.41-.22.39l-1.92-.21c-.08,0-.12,0-.13.08s.06.29.18.8a4.24,4.24,0,0,1,.11,1.45,4.29,4.29,0,0,1-1.8,3,5.09,5.09,0,0,1-3.8,1,12.27,12.27,0,0,1-1.82-.32,1.61,1.61,0,0,0-.71.48,1.27,1.27,0,0,0-.37.69.61.61,0,0,0,.23.53,2,2,0,0,0,.84.39q.58.15,1,.23l1.17.19.44,0A10.48,10.48,0,0,1,181.25,99a2.34,2.34,0,0,1,1.14,2.32,4.67,4.67,0,0,1-2.54,3.61,8.13,8.13,0,0,1-5.17,1.08,7.73,7.73,0,0,1-3.68-1.24,2.67,2.67,0,0,1-1.35-2.6,2.31,2.31,0,0,1,1-1.56,4.91,4.91,0,0,1,1.94-.93,3.39,3.39,0,0,1-1.32-1.06A2.16,2.16,0,0,1,170.8,97q.14-1.27,2.47-2.39a3.94,3.94,0,0,1-1.43-1.7,4.37,4.37,0,0,1-.48-2.49,4,4,0,0,1,1.9-3.14A5.91,5.91,0,0,1,177.15,86.52Zm2.4,15.9q.11-1-1.34-1.54a18.9,18.9,0,0,0-4-.77h-.15l-.16.07q-.4.11-.62.19a2.51,2.51,0,0,0-.51.27,1.44,1.44,0,0,0-.46.47,1.73,1.73,0,0,0-.21.69,2.08,2.08,0,0,0,.93,1.9,4.64,4.64,0,0,0,2.44,1,4.49,4.49,0,0,0,2.79-.48A2.32,2.32,0,0,0,179.55,102.42Zm-5.11-11.86a4.72,4.72,0,0,0,.33,2.5,1.85,1.85,0,0,0,1.55,1.17,1.76,1.76,0,0,0,1.7-.67,3.93,3.93,0,0,0,.74-2,4.88,4.88,0,0,0-.32-2.61,1.9,1.9,0,0,0-1.61-1.16,1.68,1.68,0,0,0-1.67.75A4.32,4.32,0,0,0,174.44,90.56Z"/><path class="cls-1" d="M192,88.07a5.51,5.51,0,0,1,2.42.82A4.71,4.71,0,0,1,196,90.46a7,7,0,0,1,.76,1.85,5.15,5.15,0,0,1,.14,1.76q-.07.65-.31.79a1.69,1.69,0,0,1-.92.06l-7.06-.77q-.21,0-.23.15a5.77,5.77,0,0,0,.16,2.11,4.1,4.1,0,0,0,1.13,1.89,3.49,3.49,0,0,0,2.15,1,8.1,8.1,0,0,0,.86,0,4.37,4.37,0,0,0,.78-.06l.64-.12a2.52,2.52,0,0,0,.58-.21l.43-.21.63-.33a.49.49,0,0,1,.13.19.57.57,0,0,1,.06.31.9.9,0,0,1-.24.54,4.85,4.85,0,0,1-1.92,1.41,5.52,5.52,0,0,1-3,.48,6,6,0,0,1-4.23-2.39,6.41,6.41,0,0,1-1.36-4.83,6.88,6.88,0,0,1,2.26-4.66A5.76,5.76,0,0,1,192,88.07Zm-.35,1.34a2.1,2.1,0,0,0-1.32.28,2.79,2.79,0,0,0-1,.91,5.71,5.71,0,0,0-.55,1.06,3.63,3.63,0,0,0-.23.86c0,.14,0,.21.15.23l4.79.52c.18,0,.28-.12.31-.41a3.86,3.86,0,0,0-.47-2.17A2.13,2.13,0,0,0,191.61,89.41Z"/><path class="cls-1" d="M208.76,89.89q3.81.41,3.16,6.47l-.3,2.81a12.56,12.56,0,0,0-.08,2.68q0,.21.77.52a4.54,4.54,0,0,0,1,.33c.06,0,.08.15.06.44a1.68,1.68,0,0,1-.11.57q-.17,0-1.54-.29t-2-.31q-.71-.08-2-.12l-1.54,0a.87.87,0,0,1-.06-.57c0-.29.09-.44.17-.43a3.52,3.52,0,0,0,1-.11q.69-.15.77-.35a8.58,8.58,0,0,0,.47-2.13l.3-2.81a6.45,6.45,0,0,0-.29-3.5,2.39,2.39,0,0,0-2-1.2,2.75,2.75,0,0,0-1.71.34,1.43,1.43,0,0,0-.83,1l-.55,5.08a12.42,12.42,0,0,0-.08,2.68q0,.21.74.51a4.29,4.29,0,0,0,.94.33c.08,0,.11.16.09.44a1.68,1.68,0,0,1-.11.57l-1.54-.29q-1.31-.23-2-.31t-2.06-.13l-1.59-.05a.87.87,0,0,1-.06-.57c0-.29.09-.44.17-.43a4.16,4.16,0,0,0,1.1-.1c.5-.1.77-.21.83-.34a9.68,9.68,0,0,0,.44-2.13l.52-4.82a2.83,2.83,0,0,0-.27-1.94,1.43,1.43,0,0,0-.62-.52,3.42,3.42,0,0,0-.69-.25c-.19,0-.28-.08-.27-.12.06-.57.14-.86.24-.87a42.09,42.09,0,0,0,4.85-.37l.08,0h.16c.08,0,.14.09.18.23a.89.89,0,0,1,.05.33,10,10,0,0,0-.23,1.05.24.24,0,0,0,0,.15.46.46,0,0,0,.16-.07,6.58,6.58,0,0,1,2-1A5.21,5.21,0,0,1,208.76,89.89Z"/><path class="cls-1" d="M222.72,91.41a5.51,5.51,0,0,1,2.42.82,4.71,4.71,0,0,1,1.56,1.58,6.88,6.88,0,0,1,.76,1.85,5.13,5.13,0,0,1,.14,1.76q-.07.65-.31.79a1.69,1.69,0,0,1-.92.06l-7.06-.77c-.14,0-.21,0-.23.15a5.79,5.79,0,0,0,.16,2.11,4.09,4.09,0,0,0,1.13,1.89,3.51,3.51,0,0,0,2.15,1,8.35,8.35,0,0,0,.86,0,4.48,4.48,0,0,0,.79-.06l.64-.12a2.56,2.56,0,0,0,.58-.21l.43-.21.63-.33a.49.49,0,0,1,.13.19.59.59,0,0,1,.06.31.91.91,0,0,1-.24.54,4.85,4.85,0,0,1-1.92,1.41,5.51,5.51,0,0,1-3,.48,6,6,0,0,1-4.23-2.39,6.41,6.41,0,0,1-1.36-4.83,6.87,6.87,0,0,1,2.25-4.66A5.76,5.76,0,0,1,222.72,91.41Zm-.35,1.34A2.09,2.09,0,0,0,221,93a2.8,2.8,0,0,0-1,.91,5.73,5.73,0,0,0-.55,1.06,3.68,3.68,0,0,0-.23.86c0,.14,0,.21.16.23l4.79.52q.27,0,.31-.42A3.86,3.86,0,0,0,224.1,94,2.13,2.13,0,0,0,222.37,92.75Z"/><path class="cls-1" d="M238.51,93.12a3,3,0,0,1,2.32,1.24q-.27,2.51-1.69,2.36A1.77,1.77,0,0,1,238,96a1.86,1.86,0,0,0-1.21-.73,1.6,1.6,0,0,0-1.54.78,4,4,0,0,0-.73,1.88l-.4,3.69a12.48,12.48,0,0,0-.08,2.68q0,.21.74.51a4.17,4.17,0,0,0,1,.33c.06,0,.08.15.06.44a3.12,3.12,0,0,1-.08.57l-1.55-.29c-.88-.16-1.55-.26-2-.31s-1.16-.1-2.06-.13l-1.6-.05a.89.89,0,0,1-.06-.57q0-.44.17-.43a4.13,4.13,0,0,0,1.1-.1c.5-.1.78-.21.83-.34a9.75,9.75,0,0,0,.44-2.14l.52-4.82A2.82,2.82,0,0,0,231.3,95a1.43,1.43,0,0,0-.62-.52,3.38,3.38,0,0,0-.69-.25c-.18,0-.27-.08-.27-.12.06-.57.14-.86.24-.87a42,42,0,0,0,4.85-.37l.24,0c.08,0,.14.09.19.23a.72.72,0,0,1,0,.35l-.09.41c0,.19-.09.38-.14.58s-.08.33-.09.39a5.47,5.47,0,0,1,1.6-1.28A3.26,3.26,0,0,1,238.51,93.12Z"/><path class="cls-1" d="M249.07,94.27a3.65,3.65,0,0,1,2.64,1.26,4.76,4.76,0,0,1,.56,3.4l-.63,5.82a1.36,1.36,0,0,0,.17.93.89.89,0,0,0,.68.39,1.85,1.85,0,0,0,1-.27c.11.05.16.17.14.34a1.78,1.78,0,0,1-.27.87,7.4,7.4,0,0,1-1.26.61,3.09,3.09,0,0,1-1.46.23,2.17,2.17,0,0,1-1.28-.65,2.43,2.43,0,0,1-.74-1.19l-.24.17c-.14.09-.33.21-.57.34a8.9,8.9,0,0,1-.82.39,4.75,4.75,0,0,1-1,.29,4.31,4.31,0,0,1-1.19,0,3.54,3.54,0,0,1-2.32-1.07,2.82,2.82,0,0,1-.69-2.33,2.75,2.75,0,0,1,.48-1.29,3.54,3.54,0,0,1,.92-.93,6.07,6.07,0,0,1,1.36-.65,12.38,12.38,0,0,1,1.44-.43l1.53-.3,1.3-.25a.47.47,0,0,0,.32-.44l.18-1.63a2.56,2.56,0,0,0-.3-1.68,1.56,1.56,0,0,0-1.21-.73,1.8,1.8,0,0,0-1.45.4,2.23,2.23,0,0,0-.67,1.5,1,1,0,0,1-.54.82,1.85,1.85,0,0,1-1,.17,1.68,1.68,0,0,1-1.46-.88q.15-1.42,2.22-2.45A7.46,7.46,0,0,1,249.07,94.27Zm-2.56,11.2a2.31,2.31,0,0,0,1.42-.26,1.17,1.17,0,0,0,.68-.88l.33-3c-.14,0-.45.11-.9.2s-.81.17-1.06.24a8,8,0,0,0-.87.32,1.79,1.79,0,0,0-.77.57,1.64,1.64,0,0,0-.31.8,1.84,1.84,0,0,0,.32,1.44A1.71,1.71,0,0,0,246.5,105.48Z"/><path class="cls-1" d="M258,97.33l-1.8-.2c-.14,0-.18-.28-.12-.79a.75.75,0,0,1,.06-.26,8.34,8.34,0,0,0,2.45-1.32l.94-.78q.51-.44,1.22-1.14a2.13,2.13,0,0,1,.55.13c.17.07.25.13.25.19l-.31,2.9,2.14.25,1.46.17c.16,0,.23.11.21.29a2.88,2.88,0,0,1-.44,1.27l-3.55-.39-.77,7.12a2.82,2.82,0,0,0,.31,1.86,1.7,1.7,0,0,0,1.32.77,2.84,2.84,0,0,0,.63,0,3.18,3.18,0,0,0,.55-.1l.4-.14.22-.07c.08,0,.16.09.24.29s.1.34.08.4a2.73,2.73,0,0,1-1.36.82,4.68,4.68,0,0,1-2.17.32,3.75,3.75,0,0,1-2.51-1.27,4,4,0,0,1-.75-3.18Z"/><path class="cls-1" d="M271.47,105.67a10.88,10.88,0,0,0-.05,2.69q0,.21.75.52a4.35,4.35,0,0,0,1,.33c.08,0,.11.16.09.44a1.67,1.67,0,0,1-.11.57q-.2-.05-1.57-.29t-2-.31q-.74-.08-2.09-.14l-1.56-.05a.88.88,0,0,1-.06-.57q0-.44.17-.43a4.31,4.31,0,0,0,1.09-.11q.76-.14.84-.34a9.63,9.63,0,0,0,.44-2.14l.52-4.82a2.84,2.84,0,0,0-.27-1.94,1.65,1.65,0,0,0-.63-.52,3.13,3.13,0,0,0-.69-.25c-.2,0-.29-.08-.29-.12.06-.57.15-.86.27-.87a22.78,22.78,0,0,0,2.43-.09,23.25,23.25,0,0,0,2.39-.28l.24,0c.1,0,.17.09.21.23a.55.55,0,0,1,0,.33,25.33,25.33,0,0,0-.51,2.52ZM269.74,93a1.81,1.81,0,0,1-.39-1.36A1.84,1.84,0,0,1,273,92a1.81,1.81,0,0,1-.67,1.24,1.83,1.83,0,0,1-2.6-.28Z"/><path class="cls-1" d="M283,98a6.55,6.55,0,0,1,4.53,2.45,6.37,6.37,0,0,1,1.46,4.9,6.73,6.73,0,0,1-13.39-1.45,6.4,6.4,0,0,1,2.45-4.49A6.52,6.52,0,0,1,283,98Zm-.54,1.35a2.4,2.4,0,0,0-2.3,1.11,6.4,6.4,0,0,0-1.12,3.12,8.68,8.68,0,0,0,.51,4.27,3,3,0,0,0,2.48,2.06,2.42,2.42,0,0,0,2.32-1.12,6.32,6.32,0,0,0,1.13-3.11,10.22,10.22,0,0,0-.07-2.89,5.27,5.27,0,0,0-1-2.34A2.76,2.76,0,0,0,282.48,99.3Z"/><path class="cls-1" d="M301.29,99.94q3.81.41,3.16,6.47l-.3,2.81a12.46,12.46,0,0,0-.08,2.68q0,.21.77.52a4.52,4.52,0,0,0,1,.33c.06,0,.08.15.06.44a1.69,1.69,0,0,1-.11.57c-.12,0-.63-.13-1.54-.29s-1.59-.26-2-.31-1.13-.09-2-.12l-1.54,0a.87.87,0,0,1-.06-.57c0-.29.09-.44.17-.43a3.53,3.53,0,0,0,1-.11c.46-.1.71-.22.77-.35a8.49,8.49,0,0,0,.47-2.13l.3-2.81a6.46,6.46,0,0,0-.29-3.5,2.39,2.39,0,0,0-2-1.2,2.75,2.75,0,0,0-1.71.34,1.43,1.43,0,0,0-.83,1l-.55,5.08a12.48,12.48,0,0,0-.08,2.68c0,.14.27.31.74.51a4.24,4.24,0,0,0,.94.33c.08,0,.11.16.09.44a1.7,1.7,0,0,1-.11.57l-1.54-.29q-1.31-.23-2-.31c-.47-.05-1.16-.1-2.06-.13l-1.59-.05a.87.87,0,0,1-.06-.57c0-.29.09-.44.17-.43a4.15,4.15,0,0,0,1.1-.1c.5-.1.78-.21.83-.34a9.68,9.68,0,0,0,.44-2.13l.52-4.82a2.82,2.82,0,0,0-.27-1.94,1.43,1.43,0,0,0-.62-.52,3.34,3.34,0,0,0-.69-.25c-.19,0-.28-.08-.27-.12.06-.57.14-.86.24-.87a42.09,42.09,0,0,0,4.86-.37l.08,0h.16c.08,0,.14.08.18.23a.91.91,0,0,1,.05.34,10.35,10.35,0,0,0-.23,1.05.24.24,0,0,0,0,.15.43.43,0,0,0,.16-.07,6.6,6.6,0,0,1,2-1A5.2,5.2,0,0,1,301.29,99.94Z"/><path class="cls-1" d="M321.87,102.17a3.66,3.66,0,0,1,2.64,1.26,4.76,4.76,0,0,1,.56,3.4l-.63,5.82a1.36,1.36,0,0,0,.17.93.89.89,0,0,0,.68.39,1.86,1.86,0,0,0,1-.28c.11.05.16.17.14.34a1.76,1.76,0,0,1-.27.87,7.28,7.28,0,0,1-1.26.61,3.09,3.09,0,0,1-1.46.23,2.17,2.17,0,0,1-1.28-.65,2.43,2.43,0,0,1-.74-1.19l-.24.17q-.21.14-.57.34a8.89,8.89,0,0,1-.82.39,4.81,4.81,0,0,1-1,.29,4.33,4.33,0,0,1-1.19,0,3.55,3.55,0,0,1-2.32-1.07,2.83,2.83,0,0,1-.69-2.33,2.77,2.77,0,0,1,.48-1.29,3.58,3.58,0,0,1,.92-.93,6.06,6.06,0,0,1,1.36-.65,12.42,12.42,0,0,1,1.44-.43l1.53-.3,1.3-.25a.47.47,0,0,0,.32-.44l.18-1.63a2.55,2.55,0,0,0-.3-1.68,1.55,1.55,0,0,0-1.21-.73,1.8,1.8,0,0,0-1.45.4,2.23,2.23,0,0,0-.67,1.5,1,1,0,0,1-.54.82,1.85,1.85,0,0,1-1,.17,1.68,1.68,0,0,1-1.46-.88q.15-1.42,2.22-2.45A7.46,7.46,0,0,1,321.87,102.17Zm-2.56,11.2a2.31,2.31,0,0,0,1.42-.26,1.17,1.17,0,0,0,.68-.88l.33-3c-.14,0-.44.11-.9.2s-.81.17-1.06.24a8.15,8.15,0,0,0-.87.32,1.79,1.79,0,0,0-.76.57,1.65,1.65,0,0,0-.31.8,1.83,1.83,0,0,0,.32,1.44A1.71,1.71,0,0,0,319.31,113.38Z"/><path class="cls-1" d="M338.56,96.42a5.87,5.87,0,0,1,2,.53,2.07,2.07,0,0,1,1,.87,3.34,3.34,0,0,1-.34,1.62,1.07,1.07,0,0,1-1.16.61,1.16,1.16,0,0,1-.85-.59q-.35-.53-.74-1.07a1.37,1.37,0,0,0-1-.6,1.58,1.58,0,0,0-1.41.62,5,5,0,0,0-1,1.78,12.21,12.21,0,0,0-.48,2.37l-.15,1.36a.17.17,0,0,0,0,.1.17.17,0,0,0,.11.07l3.25.35a.24.24,0,0,1,.14,0,.3.3,0,0,1,0,.18,3.05,3.05,0,0,1-.5,1.32l-3.07-.33a.16.16,0,0,0-.2.16l-.72,6.59a11.38,11.38,0,0,0-.05,2.69q0,.21.74.51a4.2,4.2,0,0,0,1,.33c.06,0,.08.15.06.44a1.64,1.64,0,0,1-.11.57q-.17,0-1.52-.29t-2.06-.31q-.71-.08-2-.13l-1.55,0a.57.57,0,0,1-.08-.34,1.81,1.81,0,0,1,.05-.46c0-.15.08-.22.14-.21a4,4,0,0,0,1.06-.11q.73-.14.81-.34a9.91,9.91,0,0,0,.53-2.4l.74-6.8c0-.14,0-.21-.16-.23l-1.77-.19s-.05-.07,0-.18a1.58,1.58,0,0,1,.51-.81,1.19,1.19,0,0,1,1-.43l.47.05a.16.16,0,0,0,.2-.16l0-.3A8.08,8.08,0,0,1,334,98.17,5.56,5.56,0,0,1,338.56,96.42Z"/><path class="cls-1" d="M341.44,106.39l-1.8-.2q-.21,0-.12-.79a.75.75,0,0,1,.06-.26,8.32,8.32,0,0,0,2.45-1.32L343,103q.51-.44,1.22-1.14a2.14,2.14,0,0,1,.55.13c.17.07.25.13.25.19l-.31,2.9,2.14.25,1.46.17c.16,0,.23.11.21.29a2.87,2.87,0,0,1-.44,1.27l-3.55-.39-.77,7.12a2.82,2.82,0,0,0,.31,1.86,1.7,1.7,0,0,0,1.32.77,2.78,2.78,0,0,0,.63,0,3.12,3.12,0,0,0,.55-.1l.4-.14.22-.07c.08,0,.16.09.24.29a.7.7,0,0,1,.08.4,2.73,2.73,0,0,1-1.36.82,4.67,4.67,0,0,1-2.17.32,3.74,3.74,0,0,1-2.51-1.27,4,4,0,0,1-.75-3.18Z"/><path class="cls-1" d="M356.65,106a5.52,5.52,0,0,1,2.42.82,4.7,4.7,0,0,1,1.56,1.58,6.87,6.87,0,0,1,.76,1.85,5.14,5.14,0,0,1,.14,1.76q-.07.65-.31.79a1.69,1.69,0,0,1-.92.06l-7.06-.77c-.14,0-.21,0-.23.15a5.79,5.79,0,0,0,.16,2.11,4.1,4.1,0,0,0,1.13,1.89,3.5,3.5,0,0,0,2.15,1,8.06,8.06,0,0,0,.86,0,4.44,4.44,0,0,0,.79-.06l.64-.12a2.57,2.57,0,0,0,.58-.21l.43-.21.63-.33a.48.48,0,0,1,.13.19.57.57,0,0,1,.06.31.91.91,0,0,1-.24.54,4.84,4.84,0,0,1-1.92,1.41,5.52,5.52,0,0,1-3,.48,6,6,0,0,1-4.23-2.39,6.41,6.41,0,0,1-1.36-4.83,6.88,6.88,0,0,1,2.25-4.66A5.76,5.76,0,0,1,356.65,106Zm-.36,1.34a2.1,2.1,0,0,0-1.31.28,2.8,2.8,0,0,0-1,.91,5.73,5.73,0,0,0-.55,1.06,3.68,3.68,0,0,0-.23.86c0,.14,0,.21.16.23l4.79.52c.18,0,.28-.12.31-.41a3.85,3.85,0,0,0-.47-2.17A2.13,2.13,0,0,0,356.3,107.29Z"/><path class="cls-1" d="M372.44,107.67a3,3,0,0,1,2.32,1.24q-.27,2.51-1.69,2.36a1.77,1.77,0,0,1-1.09-.72,1.86,1.86,0,0,0-1.21-.73,1.59,1.59,0,0,0-1.53.77,4,4,0,0,0-.73,1.88l-.4,3.69a12.55,12.55,0,0,0-.08,2.68c0,.14.27.31.74.51a4.18,4.18,0,0,0,1,.33c.06,0,.08.15.06.44a3,3,0,0,1-.08.57l-1.55-.29q-1.32-.23-2-.31t-2.06-.13l-1.59-.05a.89.89,0,0,1-.06-.57c0-.29.09-.44.17-.43a4.14,4.14,0,0,0,1.1-.1q.75-.14.83-.34a9.68,9.68,0,0,0,.44-2.13l.52-4.82a2.83,2.83,0,0,0-.27-1.94,1.43,1.43,0,0,0-.62-.52,3.38,3.38,0,0,0-.69-.25c-.19,0-.28-.08-.27-.12q.09-.86.25-.87a42.09,42.09,0,0,0,4.85-.37l.24,0c.08,0,.14.08.19.23a.71.71,0,0,1,0,.35l-.09.41c0,.19-.09.38-.14.58a3.68,3.68,0,0,0-.09.39,5.45,5.45,0,0,1,1.6-1.28A3.25,3.25,0,0,1,372.44,107.67Z"/><path class="cls-1" d="M377.24,121.88a2.64,2.64,0,0,0-.31-1.27,2.7,2.7,0,0,1-.3-1.33,1.8,1.8,0,0,1,.76-1.17,2.21,2.21,0,0,1,1.69-.44,1.93,1.93,0,0,1,.93.28,4.63,4.63,0,0,1,.19,2.11,5.36,5.36,0,0,1-.39,1.39,8.53,8.53,0,0,1-1.57,2.6,13.33,13.33,0,0,1-2.77,2.14h0q-.15,0-.38-.36a.88.88,0,0,1-.21-.55,4.21,4.21,0,0,1,.55-.42,5.42,5.42,0,0,0,1.14-1.18A3.56,3.56,0,0,0,377.24,121.88Z"/><path class="cls-1" d="M124.16,180a6,6,0,0,1,3.31.94,6.24,6.24,0,0,1,2.23,2.38,6.35,6.35,0,0,1,.76,3,6.79,6.79,0,0,1-2.07,5,6.55,6.55,0,0,1-4.77,2.07,9.29,9.29,0,0,1-2.17-.22,6.51,6.51,0,0,0-1.4-.22,2.26,2.26,0,0,0-.77.21,2.94,2.94,0,0,1-.59.21,1.45,1.45,0,0,1-.43-.18c-.23-.12-.34-.22-.34-.3s0-.24.06-.53.09-.72.15-1.28a17,17,0,0,0,.09-1.81V177.13a10.35,10.35,0,0,0-.18-2q-.15-.47-1.54-.48h-.27q-.18,0-.18-.48t.18-.48c.61-.06,1.2-.14,1.75-.24s1-.2,1.38-.3.68-.2,1-.3l.85-.3h.06a.32.32,0,0,1,.24.16.84.84,0,0,1,.15.31,10.37,10.37,0,0,0-.33,2.79v4.92a.91.91,0,0,0,0,.13c0,.06,0,.09.06.09l.1,0a5.4,5.4,0,0,1,1.2-.59A4.25,4.25,0,0,1,124.16,180Zm-.65,1.6a2.3,2.3,0,0,0-1.61.57,1.75,1.75,0,0,0-.62,1.34v6.3a1.78,1.78,0,0,0,.79,1.58,3.23,3.23,0,0,0,1.86.54,2.53,2.53,0,0,0,2.33-1.4,6.8,6.8,0,0,0,.79-3.39,7.64,7.64,0,0,0-.92-4A2.91,2.91,0,0,0,123.51,181.65Z"/><path class="cls-1" d="M135.68,180.35q.65,0,1.87-.09t1.52-.09a2,2,0,0,1,.06.54c0,.28,0,.42-.12.42a3.24,3.24,0,0,0-.94.22q-.64.22-.67.49V182q.06.48,2.76,6.78.24-.53,1.16-2.93t1.07-2.75a2.79,2.79,0,0,0,.18-.92.94.94,0,0,0-.48-.73,2.45,2.45,0,0,0-1.43-.34c-.08,0-.12-.15-.12-.45a.75.75,0,0,1,.12-.51q.36,0,1.46.09t1.81.09q.63,0,1.53-.09t1.32-.09a.86.86,0,0,1,.12.48c0,.32,0,.48-.12.48a3.77,3.77,0,0,0-1.21.3,1.64,1.64,0,0,0-1,.89l-5.44,13.14q-1.84,4.34-4.43,4.34a1.61,1.61,0,0,1-1.19-.42,1.39,1.39,0,0,1,.15-2.11q3.09,0,4.07-2.44.71-1.78.8-2l-4.34-10.11a3.79,3.79,0,0,0-.36-.68,1.79,1.79,0,0,0-.88-.67,2.81,2.81,0,0,0-1-.22c-.08,0-.12-.14-.12-.42s0-.5.09-.54l1.59.09Q135,180.35,135.68,180.35Z"/><path class="cls-1" d="M174.1,192.3c.08,0,.12.19.12.56a1.33,1.33,0,0,1-.06.42l-3.78-.18-1.25,0-1.44.07-1.26.07a.58.58,0,0,1-.12-.42c0-.38,0-.56.12-.56a4.75,4.75,0,0,0,1.11-.21c.5-.14.79-.29.85-.45a10.37,10.37,0,0,0,.24-2.5V184l-.06-.12q-2.79-.06-3.92-.06a35.65,35.65,0,0,0-4.1.15v5a11,11,0,0,0,.27,2.68c0,.14.31.28.82.43a4.53,4.53,0,0,0,1,.22c.08,0,.12.19.12.56a1.33,1.33,0,0,1-.06.42l-3.78-.18-1.25,0-1.44.07-1.26.07a.58.58,0,0,1-.12-.42c0-.38,0-.56.12-.56a4.75,4.75,0,0,0,1.11-.21c.5-.14.79-.29.85-.45a10.42,10.42,0,0,0,.24-2.5V177.67a9,9,0,0,0-.24-2.5q-.12-.24-.83-.46a4,4,0,0,0-1.07-.22c-.08,0-.12-.15-.12-.45a1.17,1.17,0,0,1,.06-.54l1.65.09q1.5.09,2.3.09l3.8-.18a1.5,1.5,0,0,1,.09.48q0,.51-.12.51a4.86,4.86,0,0,0-1.07.24q-.8.24-.86.45a11,11,0,0,0-.24,2.62v4.34l.06.09q2.91.06,4,.06t3.92-.06a.17.17,0,0,0,.06-.12v-4.43a8.91,8.91,0,0,0-.24-2.5c-.08-.16-.36-.31-.83-.46a4,4,0,0,0-1.07-.22c-.08,0-.12-.15-.12-.45a1.17,1.17,0,0,1,.06-.54l1.65.09q1.5.09,2.3.09l3.81-.18a1.53,1.53,0,0,1,.09.48q0,.51-.12.51a4.86,4.86,0,0,0-1.07.24q-.8.24-.86.45a11,11,0,0,0-.24,2.62V189a11.07,11.07,0,0,0,.27,2.68c0,.14.31.28.82.43A4.54,4.54,0,0,0,174.1,192.3Z"/><path class="cls-1" d="M182.49,180a3.65,3.65,0,0,1,2.76,1,4.75,4.75,0,0,1,.92,3.31v5.86a1.36,1.36,0,0,0,.27.91.89.89,0,0,0,.71.31,1.85,1.85,0,0,0,1-.39q.18.06.18.33a1.76,1.76,0,0,1-.18.89A7.35,7.35,0,0,1,187,193a3.1,3.1,0,0,1-1.43.39,2.17,2.17,0,0,1-1.34-.51,2.43,2.43,0,0,1-.86-1.1l-.22.19c-.13.11-.31.24-.54.4a8.92,8.92,0,0,1-.77.48,4.77,4.77,0,0,1-1,.4,4.31,4.31,0,0,1-1.17.16,3.55,3.55,0,0,1-2.42-.82,2.83,2.83,0,0,1-.94-2.25,2.73,2.73,0,0,1,.34-1.34,3.54,3.54,0,0,1,.82-1,6.12,6.12,0,0,1,1.28-.79,12.25,12.25,0,0,1,1.38-.58l1.49-.46,1.26-.39a.47.47,0,0,0,.27-.48v-1.63a2.56,2.56,0,0,0-.48-1.64,1.55,1.55,0,0,0-1.28-.59,1.8,1.8,0,0,0-1.4.55,2.23,2.23,0,0,0-.51,1.56,1,1,0,0,1-.45.88,1.85,1.85,0,0,1-1,.28,1.68,1.68,0,0,1-1.55-.71q0-1.43,1.95-2.68A7.45,7.45,0,0,1,182.49,180Zm-1.34,11.42a2.31,2.31,0,0,0,1.38-.42,1.18,1.18,0,0,0,.58-1v-3q-.21.09-.88.3t-1,.36a8.2,8.2,0,0,0-.83.42,1.8,1.8,0,0,0-.7.65,1.64,1.64,0,0,0-.22.83,1.83,1.83,0,0,0,.48,1.4A1.71,1.71,0,0,0,181.15,191.46Z"/><path class="cls-1" d="M198.7,180a3,3,0,0,1,2.44,1q0,2.53-1.43,2.53a1.77,1.77,0,0,1-1.16-.59,1.86,1.86,0,0,0-1.28-.59,1.59,1.59,0,0,0-1.44.94,4,4,0,0,0-.52,1.95V189a12.48,12.48,0,0,0,.21,2.68q.06.21.79.43a4.17,4.17,0,0,0,1,.22c.06,0,.09.14.1.43a3.08,3.08,0,0,1,0,.58l-1.58-.12q-1.34-.09-2-.09t-2.07.09l-1.59.12a.88.88,0,0,1-.12-.56c0-.3,0-.45.12-.45a4.14,4.14,0,0,0,1.09-.22q.73-.22.79-.43a9.7,9.7,0,0,0,.21-2.17v-4.85a2.82,2.82,0,0,0-.48-1.9,1.43,1.43,0,0,0-.67-.45,3.36,3.36,0,0,0-.71-.18c-.19,0-.28,0-.28-.09,0-.57,0-.87.15-.89a42,42,0,0,0,4.79-.89l.24-.06c.08,0,.15.07.21.21a.72.72,0,0,1,.07.34l0,.42c0,.19,0,.39-.07.59a4,4,0,0,0,0,.4,5.47,5.47,0,0,1,1.46-1.44A3.26,3.26,0,0,1,198.7,180Z"/><path class="cls-1" d="M211.79,180a3,3,0,0,1,2.44,1q0,2.53-1.43,2.53a1.77,1.77,0,0,1-1.16-.59,1.86,1.86,0,0,0-1.28-.59,1.59,1.59,0,0,0-1.44.94,4,4,0,0,0-.52,1.95V189a12.46,12.46,0,0,0,.21,2.68c0,.14.3.28.79.43a4.19,4.19,0,0,0,1,.22c.06,0,.09.14.1.43a3.11,3.11,0,0,1,0,.58l-1.58-.12q-1.34-.09-2-.09t-2.07.09l-1.59.12a.88.88,0,0,1-.12-.56c0-.3,0-.45.12-.45a4.14,4.14,0,0,0,1.09-.22q.73-.22.79-.43a9.71,9.71,0,0,0,.21-2.17v-4.85a2.83,2.83,0,0,0-.48-1.9,1.43,1.43,0,0,0-.67-.45,3.36,3.36,0,0,0-.71-.18q-.28,0-.28-.09c0-.57,0-.87.15-.89a42.07,42.07,0,0,0,4.79-.89l.24-.06c.08,0,.15.07.21.21a.72.72,0,0,1,.07.34l0,.42c0,.19,0,.39-.07.59a3.7,3.7,0,0,0,0,.4,5.45,5.45,0,0,1,1.46-1.44A3.26,3.26,0,0,1,211.79,180Z"/><path class="cls-1" d="M221.46,189a11,11,0,0,0,.24,2.68q.06.21.8.43a4.36,4.36,0,0,0,1,.22c.08,0,.12.14.13.43a1.67,1.67,0,0,1,0,.58l-1.59-.12q-1.38-.09-2-.09t-2.1.09l-1.56.12a.88.88,0,0,1-.12-.56c0-.3,0-.45.12-.45a4.3,4.3,0,0,0,1.07-.22q.74-.22.8-.43a9.71,9.71,0,0,0,.21-2.17v-4.85a2.83,2.83,0,0,0-.48-1.9,1.64,1.64,0,0,0-.68-.45,3.09,3.09,0,0,0-.71-.18c-.2,0-.3,0-.3-.09q0-.86.18-.89a22.72,22.72,0,0,0,2.41-.36,23.26,23.26,0,0,0,2.35-.54l.24-.06c.1,0,.18.07.24.21a.55.55,0,0,1,.06.33q-.24,1.9-.24,2.56Zm-3.09-12.44a1.82,1.82,0,0,1-.54-1.31,1.84,1.84,0,0,1,3.69,0,1.81,1.81,0,0,1-.54,1.31,1.83,1.83,0,0,1-2.62,0Z"/><path class="cls-1" d="M230.23,180a12.65,12.65,0,0,1,3.45.51,16.82,16.82,0,0,1,.33,3.33c0,.16-.13.24-.39.24-.44,0-.67-.08-.71-.24a3.61,3.61,0,0,0-.88-1.77,2.32,2.32,0,0,0-1.8-.73,2.13,2.13,0,0,0-1.35.39,1.32,1.32,0,0,0-.49,1.1,1.73,1.73,0,0,0,.16.76,1.86,1.86,0,0,0,.54.64,7.33,7.33,0,0,0,.65.48q.28.18.85.48a1.91,1.91,0,0,0,.3.15l.45.24.49.27.48.28a5.37,5.37,0,0,1,.52.34l.46.36a2.34,2.34,0,0,1,.45.42l.36.46a1.93,1.93,0,0,1,.31.54q.09.25.16.56a2.79,2.79,0,0,1,.07.64,3.5,3.5,0,0,1-1.44,3,5.64,5.64,0,0,1-3.49,1.08,9.93,9.93,0,0,1-3.83-.83,12,12,0,0,1-.3-1.65,14.69,14.69,0,0,1-.15-1.71.63.63,0,0,1,.42-.15c.46,0,.69.08.71.24a3.28,3.28,0,0,0,1.17,2,3.17,3.17,0,0,0,2,.76,2.16,2.16,0,0,0,1.37-.42,1.45,1.45,0,0,0,.54-1.22,1.93,1.93,0,0,0-.07-.55,1.46,1.46,0,0,0-.28-.51L231,189a2.19,2.19,0,0,0-.54-.4l-.59-.34-.74-.39-.76-.4a6.93,6.93,0,0,1-2.11-1.59,3.44,3.44,0,0,1,.68-4.92A5.73,5.73,0,0,1,230.23,180Z"/><path class="cls-1" d="M245.38,188.94V177.7a9.4,9.4,0,0,0-.21-2.44c-.06-.22-.34-.4-.83-.54a4.7,4.7,0,0,0-1.19-.21c-.08,0-.12-.15-.12-.45a.81.81,0,0,1,.12-.54q2,.09,4,.09h2.56l1.78,0a8.8,8.8,0,0,1,4.22,1.09,4.37,4.37,0,0,1,1.65,1.59,4.51,4.51,0,0,1,.64,2.41,3.48,3.48,0,0,1-.62,2,4.79,4.79,0,0,1-1.17,1.29,4.91,4.91,0,0,1-.94.52c-.16.06-.2.12-.12.18a4.82,4.82,0,0,1,2.45,1.56,4.68,4.68,0,0,1,1.35,3.4,4.8,4.8,0,0,1-2.07,4.07,8.93,8.93,0,0,1-5.49,1.49l-4.22,0-4,.12a.78.78,0,0,1-.09-.48q0-.51.09-.51a4.9,4.9,0,0,0,1.13-.19c.49-.13.78-.28.86-.46A10.76,10.76,0,0,0,245.38,188.94Zm6.81-7a2.63,2.63,0,0,0,2.17-2.91q0-4-3.42-4a8,8,0,0,0-1.9.15.3.3,0,0,0-.24.33l-.06,2.85v3.48q0,.3,1.78.3A5.88,5.88,0,0,0,252.19,182Zm3.09,6a4.66,4.66,0,0,0-1.05-3.14,4.25,4.25,0,0,0-3.4-1.23,12.39,12.39,0,0,0-1.84.15.65.65,0,0,0-.24.59v5.53q0,1.25.36,1.55a3.72,3.72,0,0,0,1.9.3,6.11,6.11,0,0,0,1.28-.13,6.38,6.38,0,0,0,1.35-.48,2.67,2.67,0,0,0,1.19-1.16A4,4,0,0,0,255.28,188Z"/><path class="cls-1" d="M267.06,180a3.65,3.65,0,0,1,2.76,1,4.75,4.75,0,0,1,.92,3.31v5.86a1.36,1.36,0,0,0,.27.91.89.89,0,0,0,.71.31,1.85,1.85,0,0,0,1-.39c.12,0,.18.15.18.33a1.77,1.77,0,0,1-.18.89,7.44,7.44,0,0,1-1.19.74,3.1,3.1,0,0,1-1.43.39,2.17,2.17,0,0,1-1.34-.51,2.44,2.44,0,0,1-.86-1.1l-.22.19q-.19.16-.54.4a8.94,8.94,0,0,1-.77.48,4.76,4.76,0,0,1-1,.4,4.32,4.32,0,0,1-1.17.16,3.55,3.55,0,0,1-2.42-.82,2.82,2.82,0,0,1-.94-2.25,2.74,2.74,0,0,1,.34-1.34,3.54,3.54,0,0,1,.82-1,6.08,6.08,0,0,1,1.28-.79,12.25,12.25,0,0,1,1.38-.58l1.49-.46,1.26-.39a.47.47,0,0,0,.27-.48v-1.63a2.56,2.56,0,0,0-.47-1.64,1.56,1.56,0,0,0-1.28-.59,1.8,1.8,0,0,0-1.4.55,2.22,2.22,0,0,0-.51,1.56,1,1,0,0,1-.45.88,1.85,1.85,0,0,1-1,.28A1.68,1.68,0,0,1,261,184q0-1.43,1.95-2.68A7.45,7.45,0,0,1,267.06,180Zm-1.34,11.42a2.31,2.31,0,0,0,1.38-.42,1.18,1.18,0,0,0,.58-1v-3q-.21.09-.88.3t-1,.36a8,8,0,0,0-.83.42,1.79,1.79,0,0,0-.7.65,1.64,1.64,0,0,0-.22.83,1.83,1.83,0,0,0,.48,1.4A1.71,1.71,0,0,0,265.72,191.46Z"/><path class="cls-1" d="M287.55,183.26v5.89a6.61,6.61,0,0,0,.24,2.08.63.63,0,0,0,.34.24,2.32,2.32,0,0,0,.52.12l.49,0a.54.54,0,0,1,.25,0c.08,0,.12.11.12.27a2.3,2.3,0,0,1-.06.4c0,.19-.1.28-.18.28a6.81,6.81,0,0,0-1.05.1l-1.23.21-1.13.22-1.19.24q-.21,0-.21-.48v-1.31c0-.1,0-.15-.09-.15a6.65,6.65,0,0,1-1.81,1.34,5,5,0,0,1-2.35.59,3.12,3.12,0,0,1-1.77-.51,3.59,3.59,0,0,1-1.19-1.31,6.38,6.38,0,0,1-.62-1.72,9.09,9.09,0,0,1-.19-1.87v-3.33a2.82,2.82,0,0,0-.48-1.9,1.64,1.64,0,0,0-.68-.45,3.1,3.1,0,0,0-.71-.18c-.2,0-.3,0-.3-.09,0-.57,0-.87.15-.89a22.34,22.34,0,0,0,2.44-.36,23.16,23.16,0,0,0,2.35-.54l.12,0,.12,0c.1,0,.17.07.22.21a1.05,1.05,0,0,1,.08.33q-.27,2-.27,2.62v3.57a6.38,6.38,0,0,0,.65,3.33,2.63,2.63,0,0,0,3.72.43,1.58,1.58,0,0,0,.65-1.11v-4.91a2.82,2.82,0,0,0-.48-1.9,1.43,1.43,0,0,0-.67-.45,3.34,3.34,0,0,0-.73-.18c-.2,0-.3,0-.3-.09,0-.57.06-.87.18-.89a22.72,22.72,0,0,0,2.41-.36,23.19,23.19,0,0,0,2.35-.54l.24-.06c.1,0,.18.07.24.21a.55.55,0,0,1,.06.33Q287.55,182.72,287.55,183.26Z"/><path class="cls-1" d="M297.46,180a5.51,5.51,0,0,1,2.5.55,4.71,4.71,0,0,1,1.72,1.4,6.88,6.88,0,0,1,1,1.75,5.11,5.11,0,0,1,.33,1.74q0,.65-.22.82a1.69,1.69,0,0,1-.91.16h-7.1c-.14,0-.21.06-.21.18a5.78,5.78,0,0,0,.39,2.08,4.09,4.09,0,0,0,1.32,1.75,3.5,3.5,0,0,0,2.25.74,8.2,8.2,0,0,0,.86,0,4.48,4.48,0,0,0,.77-.15l.62-.19a2.54,2.54,0,0,0,.55-.27l.4-.25.6-.4a.51.51,0,0,1,.15.18.58.58,0,0,1,.09.3.91.91,0,0,1-.18.56,4.83,4.83,0,0,1-1.75,1.61,5.51,5.51,0,0,1-2.94.8,6,6,0,0,1-4.46-1.92,6.41,6.41,0,0,1-1.87-4.65,6.88,6.88,0,0,1,1.74-4.88A5.77,5.77,0,0,1,297.46,180Zm-.21,1.37a2.1,2.1,0,0,0-1.28.42,2.8,2.8,0,0,0-.86,1,5.74,5.74,0,0,0-.43,1.11,3.65,3.65,0,0,0-.13.88q0,.21.18.21h4.82c.18,0,.27-.15.27-.45a3.85,3.85,0,0,0-.7-2.11A2.13,2.13,0,0,0,297.25,181.42Z"/><path class="cls-1" d="M313.34,180a3,3,0,0,1,2.44,1q0,2.53-1.43,2.53a1.77,1.77,0,0,1-1.16-.59,1.86,1.86,0,0,0-1.28-.59,1.59,1.59,0,0,0-1.44.94,4,4,0,0,0-.52,1.95V189a12.45,12.45,0,0,0,.21,2.68q.06.21.79.43a4.21,4.21,0,0,0,1,.22c.06,0,.09.14.1.43a3.13,3.13,0,0,1,0,.58l-1.58-.12q-1.34-.09-2-.09c-.48,0-1.16,0-2.07.09l-1.59.12a.87.87,0,0,1-.12-.56c0-.3,0-.45.12-.45a4.12,4.12,0,0,0,1.08-.22c.49-.15.75-.29.79-.43a9.71,9.71,0,0,0,.21-2.17v-4.85a2.83,2.83,0,0,0-.47-1.9,1.44,1.44,0,0,0-.67-.45,3.36,3.36,0,0,0-.71-.18c-.19,0-.28,0-.28-.09,0-.57.05-.87.15-.89a42,42,0,0,0,4.79-.89l.24-.06c.08,0,.15.07.21.21a.7.7,0,0,1,.07.34l0,.42c0,.19,0,.39-.07.59a3.45,3.45,0,0,0,0,.4,5.43,5.43,0,0,1,1.46-1.44A3.25,3.25,0,0,1,313.34,180Z"/><path class="cls-1" d="M321.18,190.13a1.94,1.94,0,0,1,.58,1.4,2,2,0,0,1-.58,1.41,1.84,1.84,0,0,1-1.38.61,1.92,1.92,0,0,1-1.43-.61,2,2,0,0,1-.6-1.41,1.91,1.91,0,0,1,.6-1.4,1.94,1.94,0,0,1,1.43-.59A1.87,1.87,0,0,1,321.18,190.13Z"/><path class="cls-1" d="M193.33,44.91l-1.81-.1c-.14,0-.19-.27-.16-.78a.73.73,0,0,1,0-.27,8.29,8.29,0,0,0,2.38-1.44l.9-.83q.49-.46,1.16-1.2a2.15,2.15,0,0,1,.56.11c.18.06.26.12.26.18l-.17,2.91,2.15.14,1.47.1c.16,0,.23.1.22.28a2.88,2.88,0,0,1-.37,1.29l-3.56-.2L196,52.24a2.82,2.82,0,0,0,.4,1.84,1.7,1.7,0,0,0,1.36.7,2.74,2.74,0,0,0,.63,0,3.18,3.18,0,0,0,.54-.13l.4-.16.21-.08c.08,0,.16.08.25.28a.69.69,0,0,1,.1.39,2.72,2.72,0,0,1-1.32.89,4.69,4.69,0,0,1-2.15.43,3.75,3.75,0,0,1-2.57-1.14,4,4,0,0,1-.91-3.13Z"/><path class="cls-1" d="M212.12,43.9q3.8.22,3.46,6.06L215.41,53a10.85,10.85,0,0,0,.08,2.69q0,.21.76.48a4.61,4.61,0,0,0,1,.28c.06,0,.08.15.08.44a3.12,3.12,0,0,1,0,.58q-.21,0-1.58-.21t-2-.21c-.5,0-1.16,0-2,0l-1.56,0a1.12,1.12,0,0,1-.06-.57c0-.3.05-.44.11-.44a3.58,3.58,0,0,0,1-.16c.45-.12.71-.25.78-.39a11.31,11.31,0,0,0,.3-2.16l.17-2.91A6.2,6.2,0,0,0,212,47a2.43,2.43,0,0,0-2.07-1.06,2.85,2.85,0,0,0-1.66.41,1.4,1.4,0,0,0-.81,1.08l-.29,5.11a10.85,10.85,0,0,0,.08,2.68q0,.21.76.48a4.21,4.21,0,0,0,1,.28q.09,0,.08.44A1.67,1.67,0,0,1,209,57l-1.55-.21q-1.31-.17-2-.2t-2.07,0l-1.59,0a.87.87,0,0,1-.09-.57c0-.3.06-.44.14-.44a4.16,4.16,0,0,0,1.1-.16c.49-.12.76-.25.81-.39a9.59,9.59,0,0,0,.33-2.12l.71-12.35a11.63,11.63,0,0,0,0-2c-.08-.32-.59-.51-1.52-.56L203,38c-.12,0-.17-.17-.15-.48s.09-.47.2-.47q.92,0,1.77-.14t1.4-.22q.56-.12,1-.24l.86-.25h.06c.08,0,.16.06.23.18a.81.81,0,0,1,.13.32,9.63,9.63,0,0,0-.52,2.77l-.34,6c0,.12,0,.18.11.19s.06,0,.12-.08a5.65,5.65,0,0,1,1.9-1.19A5.47,5.47,0,0,1,212.12,43.9Z"/><path class="cls-1" d="M226,44.7a5.5,5.5,0,0,1,2.46.69,4.7,4.7,0,0,1,1.64,1.49,7,7,0,0,1,.85,1.81,5.12,5.12,0,0,1,.23,1.75q0,.65-.27.8a1.67,1.67,0,0,1-.92.11l-7.09-.41c-.14,0-.21,0-.22.17a5.77,5.77,0,0,0,.27,2.1A4.08,4.08,0,0,0,224.13,55a3.5,3.5,0,0,0,2.2.87,8,8,0,0,0,.86,0,4.45,4.45,0,0,0,.78-.1l.63-.16a2.63,2.63,0,0,0,.56-.24l.41-.23.62-.37a.49.49,0,0,1,.14.19.57.57,0,0,1,.07.3.92.92,0,0,1-.21.55,4.85,4.85,0,0,1-1.84,1.5,5.52,5.52,0,0,1-3,.63A6,6,0,0,1,221,55.83a6.41,6.41,0,0,1-1.6-4.75,6.88,6.88,0,0,1,2-4.77A5.76,5.76,0,0,1,226,44.7ZM225.68,46a2.1,2.1,0,0,0-1.3.34,2.8,2.8,0,0,0-.92,1,5.77,5.77,0,0,0-.5,1.09,3.65,3.65,0,0,0-.18.87c0,.14,0,.21.17.22l4.81.28q.27,0,.29-.43a3.84,3.84,0,0,0-.58-2.15A2.13,2.13,0,0,0,225.68,46Z"/><path class="cls-1" d="M246,45.85a7.2,7.2,0,0,1,2.78.68,4.74,4.74,0,0,1,1.7,1.24,3.67,3.67,0,0,1-.44,1.66A1.1,1.1,0,0,1,249,50a1.33,1.33,0,0,1-.89-.35,3.37,3.37,0,0,1-.64-1,2.15,2.15,0,0,0-1.91-1.48,2.29,2.29,0,0,0-2.11,1.17,6.35,6.35,0,0,0-.94,3.21,6,6,0,0,0,.87,4A3.51,3.51,0,0,0,246.08,57a8.24,8.24,0,0,0,.86,0,4.53,4.53,0,0,0,.78-.1l.63-.16a2.54,2.54,0,0,0,.56-.24l.42-.23L250,56a.48.48,0,0,1,.14.19.58.58,0,0,1,.07.3A.91.91,0,0,1,250,57a4.85,4.85,0,0,1-1.84,1.5,5.46,5.46,0,0,1-3,.63,6,6,0,0,1-4.39-2.19,6.56,6.56,0,0,1-1.58-4.83,6.76,6.76,0,0,1,2-4.57A6,6,0,0,1,246,45.85Z"/><path class="cls-1" d="M262.55,46.79q3.8.22,3.46,6.06l-.17,3.06a10.85,10.85,0,0,0,.08,2.69q0,.21.76.48a4.65,4.65,0,0,0,1,.28c.06,0,.09.15.08.44a3.12,3.12,0,0,1,0,.58q-.21,0-1.58-.21t-2-.21q-.74,0-2,0l-1.56,0a1.12,1.12,0,0,1-.06-.57c0-.3.05-.44.11-.44a3.57,3.57,0,0,0,1-.16c.45-.12.72-.25.78-.39a11.31,11.31,0,0,0,.3-2.16l.17-2.91a6.19,6.19,0,0,0-.47-3.44,2.43,2.43,0,0,0-2.07-1.06,2.85,2.85,0,0,0-1.66.41,1.4,1.4,0,0,0-.81,1.08l-.29,5.11a10.85,10.85,0,0,0,.08,2.68q0,.21.76.48a4.21,4.21,0,0,0,1,.28q.09,0,.08.44a1.68,1.68,0,0,1-.08.58l-1.55-.21q-1.31-.17-2-.2c-.48,0-1.16,0-2.07,0l-1.59,0a.87.87,0,0,1-.09-.57c0-.3.06-.44.14-.44a4.17,4.17,0,0,0,1.1-.16c.49-.12.76-.25.81-.39a9.59,9.59,0,0,0,.33-2.12l.71-12.35a11.63,11.63,0,0,0,0-2c-.08-.32-.59-.51-1.52-.56l-.27,0c-.12,0-.17-.17-.15-.48s.09-.47.21-.47q.92,0,1.77-.14t1.4-.22q.56-.12,1-.24l.86-.25h.06c.08,0,.16.06.23.18a.78.78,0,0,1,.13.32,9.63,9.63,0,0,0-.52,2.77l-.34,6c0,.12,0,.18.11.19s.06,0,.12-.08a5.65,5.65,0,0,1,1.9-1.19A5.47,5.47,0,0,1,262.55,46.79Z"/><path class="cls-1" d="M275.08,56.45a10.87,10.87,0,0,0,.08,2.68q0,.21.78.48a4.33,4.33,0,0,0,1,.28c.08,0,.12.15.11.44a1.66,1.66,0,0,1-.08.58l-1.58-.21q-1.38-.17-2-.21t-2.1,0l-1.57,0a.88.88,0,0,1-.09-.57c0-.3.07-.44.14-.44a4.32,4.32,0,0,0,1.08-.16q.75-.18.83-.38a9.69,9.69,0,0,0,.33-2.16l.28-4.84A2.83,2.83,0,0,0,271.9,50a1.66,1.66,0,0,0-.66-.48,3.11,3.11,0,0,0-.7-.22c-.2,0-.29-.07-.29-.11,0-.57.11-.87.23-.88a23,23,0,0,0,2.42-.22,23.45,23.45,0,0,0,2.38-.4l.24,0c.1,0,.17.08.22.22a.55.55,0,0,1,0,.33,25.45,25.45,0,0,0-.38,2.54Zm-2.37-12.6a1.81,1.81,0,0,1-.46-1.34,1.76,1.76,0,0,1,.61-1.26,1.84,1.84,0,0,1,3.07,1.47,1.81,1.81,0,0,1-.61,1.28,1.83,1.83,0,0,1-2.61-.15Z"/><path class="cls-1" d="M284.17,56.91a12.23,12.23,0,0,0,.05,2.68q0,.21.7.5a3.24,3.24,0,0,0,.89.3c.06,0,.09.14.08.42a1.59,1.59,0,0,1-.08.56l-1.11-.14-1.26-.15L282.38,61l-1.13,0h-2.38a.84.84,0,0,1-.09-.56c0-.29.06-.43.14-.42a3.21,3.21,0,0,0,1-.2q.68-.21.75-.42a9.75,9.75,0,0,0,.36-2.18l.71-12.35a10.35,10.35,0,0,0-.06-2q-.12-.48-1.46-.56l-.3,0c-.12,0-.17-.13-.16-.37s.09-.47.21-.46q.92,0,1.76-.14t1.4-.22c.37-.08.69-.15,1-.23l.65-.19.21-.08H285c.08,0,.16.07.24.19a.89.89,0,0,1,.15.31,9.4,9.4,0,0,0-.52,2.77Z"/><path class="cls-1" d="M295.25,48.61a5.11,5.11,0,0,1,2.14.54c.1,0,.16-.15.18-.47l.16-2.79a10.35,10.35,0,0,0-.06-2c-.08-.32-.59-.51-1.52-.56h-.24c-.12,0-.17-.17-.15-.49s.09-.47.21-.46q.9,0,1.75-.14t1.41-.22q.56-.12,1-.24l.62-.19.24-.06H301c.08,0,.15.06.23.18a.53.53,0,0,1,.1.32,11.39,11.39,0,0,0-.46,2.77l-.75,13.06a11,11,0,0,0,.05,2.21.44.44,0,0,0,.28.34,1.8,1.8,0,0,0,.55.18l.56.08.29,0a.63.63,0,0,1,0,.36q0,.59-.21.58-.42,0-1.06.06l-1.26.12-1.17.14-1.25.18c-.12,0-.17-.18-.15-.51l0-.5a.13.13,0,0,0,0-.12.05.05,0,0,0-.07,0,5,5,0,0,1-3.15.92,5.76,5.76,0,0,1-4.08-2A6,6,0,0,1,288,55.34a7,7,0,0,1,2.32-4.91A6.51,6.51,0,0,1,295.25,48.61ZM294.9,50a2.6,2.6,0,0,0-2.45,1.2,7,7,0,0,0-1,3.55,7.17,7.17,0,0,0,.7,4,2.92,2.92,0,0,0,2.5,1.56,2.48,2.48,0,0,0,1.66-.43,1.65,1.65,0,0,0,.7-1.29l.36-6.23a2.08,2.08,0,0,0-.07-.63A2.76,2.76,0,0,0,297,51a1.89,1.89,0,0,0-.76-.67A3.15,3.15,0,0,0,294.9,50Z"/><path class="cls-1" d="M313,49.69a3,3,0,0,1,2.38,1.12q-.15,2.52-1.57,2.44a1.77,1.77,0,0,1-1.12-.66,1.87,1.87,0,0,0-1.24-.67,1.59,1.59,0,0,0-1.49.85,4,4,0,0,0-.63,1.92l-.21,3.71a12.39,12.39,0,0,0,.05,2.68c0,.14.28.3.76.48a4.18,4.18,0,0,0,1,.28c.06,0,.09.15.08.44a3.1,3.1,0,0,1,0,.58l-1.57-.21q-1.33-.17-2-.21t-2.07,0l-1.59,0a.88.88,0,0,1-.09-.57q0-.45.14-.44a4.16,4.16,0,0,0,1.1-.16c.49-.12.76-.25.81-.39a9.69,9.69,0,0,0,.33-2.15l.28-4.84a2.83,2.83,0,0,0-.37-1.93,1.43,1.43,0,0,0-.64-.48,3.42,3.42,0,0,0-.7-.22c-.19,0-.28-.07-.28-.1,0-.57.1-.87.2-.88a42.14,42.14,0,0,0,4.83-.62l.24,0q.12,0,.2.22a.71.71,0,0,1,.05.35l-.07.41q0,.28-.11.59a3.56,3.56,0,0,0-.07.4,5.45,5.45,0,0,1,1.54-1.36A3.26,3.26,0,0,1,313,49.69Z"/><path class="cls-1" d="M323.46,50.29a5.5,5.5,0,0,1,2.46.69,4.69,4.69,0,0,1,1.64,1.49,7,7,0,0,1,.85,1.81,5.12,5.12,0,0,1,.23,1.75q0,.65-.27.8a1.7,1.7,0,0,1-.92.11l-7.09-.41c-.14,0-.21,0-.22.17a5.77,5.77,0,0,0,.27,2.1,4.08,4.08,0,0,0,1.22,1.83,3.5,3.5,0,0,0,2.2.87,8,8,0,0,0,.86,0,4.48,4.48,0,0,0,.78-.1l.63-.16a2.63,2.63,0,0,0,.56-.24l.41-.23.62-.37a.49.49,0,0,1,.14.19.57.57,0,0,1,.07.3.91.91,0,0,1-.21.55,4.85,4.85,0,0,1-1.84,1.5,5.52,5.52,0,0,1-3,.63,6,6,0,0,1-4.34-2.17,6.41,6.41,0,0,1-1.6-4.75,6.88,6.88,0,0,1,2-4.77A5.76,5.76,0,0,1,323.46,50.29Zm-.29,1.35a2.09,2.09,0,0,0-1.3.34,2.8,2.8,0,0,0-.92,1,5.79,5.79,0,0,0-.5,1.09,3.67,3.67,0,0,0-.18.87c0,.14,0,.21.17.22l4.81.28q.27,0,.29-.43a3.85,3.85,0,0,0-.58-2.15A2.13,2.13,0,0,0,323.17,51.64Z"/><path class="cls-1" d="M340.32,51.26q3.83.22,3.48,6.3l-.16,2.82a12.31,12.31,0,0,0,.06,2.68c0,.14.29.3.79.48a4.61,4.61,0,0,0,1,.28c.06,0,.09.15.08.44a1.72,1.72,0,0,1-.08.58q-.18,0-1.55-.21t-2.06-.21q-.71,0-2,0l-1.54,0a.87.87,0,0,1-.09-.57c0-.3.06-.44.14-.44a3.56,3.56,0,0,0,1-.17c.45-.12.7-.25.75-.39a8.54,8.54,0,0,0,.36-2.15l.16-2.82a6.44,6.44,0,0,0-.47-3.48,2.39,2.39,0,0,0-2.07-1.1,2.74,2.74,0,0,0-1.69.42,1.43,1.43,0,0,0-.78,1.07l-.29,5.11a12.38,12.38,0,0,0,.05,2.68c0,.14.28.3.76.48a4.36,4.36,0,0,0,1,.28c.08,0,.12.15.11.44a1.71,1.71,0,0,1-.08.58l-1.55-.21c-.88-.11-1.54-.18-2-.2s-1.16,0-2.07,0l-1.59,0a.88.88,0,0,1-.09-.57c0-.3.07-.44.14-.44a4.16,4.16,0,0,0,1.1-.16c.49-.12.76-.25.81-.38a9.75,9.75,0,0,0,.33-2.16l.28-4.84a2.83,2.83,0,0,0-.37-1.93,1.44,1.44,0,0,0-.64-.48,3.29,3.29,0,0,0-.7-.22c-.19,0-.28-.07-.28-.1,0-.57.1-.87.2-.88a42.4,42.4,0,0,0,4.83-.62l.08,0h.16c.08,0,.14.08.2.22a.91.91,0,0,1,.07.33,10,10,0,0,0-.18,1.06.24.24,0,0,0,0,.15.44.44,0,0,0,.15-.08,6.61,6.61,0,0,1,1.9-1.14A5.21,5.21,0,0,1,340.32,51.26Z"/><path class="cls-1" d="M361.47,52.47a6.56,6.56,0,0,1,4.65,2.22,6.37,6.37,0,0,1,1.7,4.82,6.73,6.73,0,0,1-13.45-.77,6.4,6.4,0,0,1,2.21-4.61A6.52,6.52,0,0,1,361.47,52.47ZM361,53.84a2.4,2.4,0,0,0-2.25,1.23,6.4,6.4,0,0,0-1,3.18,8.67,8.67,0,0,0,.72,4.24,3,3,0,0,0,2.58,1.93,2.42,2.42,0,0,0,2.26-1.24,6.32,6.32,0,0,0,1-3.16,10.16,10.16,0,0,0-.22-2.89A5.25,5.25,0,0,0,363,54.85,2.76,2.76,0,0,0,361,53.84Z"/><path class="cls-1" d="M379,45.94a5.87,5.87,0,0,1,2,.43,2.09,2.09,0,0,1,1,.82,3.32,3.32,0,0,1-.26,1.64,1.06,1.06,0,0,1-1.12.67,1.16,1.16,0,0,1-.88-.54c-.25-.34-.51-.68-.79-1a1.36,1.36,0,0,0-1-.55,1.59,1.59,0,0,0-1.38.7,5,5,0,0,0-.87,1.83,12.22,12.22,0,0,0-.36,2.39l-.08,1.37s0,.05.05.09a.16.16,0,0,0,.11.07l3.26.19a.25.25,0,0,1,.15,0,.32.32,0,0,1,0,.18,3.06,3.06,0,0,1-.43,1.35l-3.09-.18a.16.16,0,0,0-.19.17l-.38,6.62a11.38,11.38,0,0,0,.08,2.69q0,.21.76.48a4.25,4.25,0,0,0,1,.28c.06,0,.09.15.08.44a1.67,1.67,0,0,1-.08.58q-.18,0-1.54-.21t-2.07-.21q-.71,0-2,0l-1.55,0a.57.57,0,0,1-.1-.33,1.89,1.89,0,0,1,0-.46c0-.15.07-.22.13-.22a4,4,0,0,0,1.05-.16c.48-.12.75-.25.8-.39a9.87,9.87,0,0,0,.41-2.42l.39-6.83c0-.14,0-.21-.17-.22l-1.78-.1s-.06-.06,0-.18a1.59,1.59,0,0,1,.46-.84,1.2,1.2,0,0,1,1-.48l.47,0a.16.16,0,0,0,.19-.17l0-.3a8.09,8.09,0,0,1,2.16-5.24A5.56,5.56,0,0,1,379,45.94Z"/><path class="cls-1" d="M392.12,54.2a12.67,12.67,0,0,1,3.42.7,16.92,16.92,0,0,1,.14,3.34q0,.24-.4.22c-.44,0-.67-.12-.7-.28a3.61,3.61,0,0,0-.78-1.82,2.32,2.32,0,0,0-1.75-.83,2.14,2.14,0,0,0-1.37.31,1.32,1.32,0,0,0-.55,1.07,1.73,1.73,0,0,0,.12.77,1.85,1.85,0,0,0,.5.67,7.52,7.52,0,0,0,.63.51q.27.19.82.52a1.89,1.89,0,0,0,.29.17l.43.26.48.29.46.31a5.27,5.27,0,0,1,.5.37l.44.38a2.35,2.35,0,0,1,.42.44l.33.48a1.87,1.87,0,0,1,.28.55,5.23,5.23,0,0,1,.13.57,2.71,2.71,0,0,1,0,.64,3.5,3.5,0,0,1-1.61,2.87,5.64,5.64,0,0,1-3.55.88A9.92,9.92,0,0,1,387,66.56a11.64,11.64,0,0,1-.2-1.66,14.55,14.55,0,0,1-.05-1.72.63.63,0,0,1,.42-.12c.45,0,.69.12.7.28A3.28,3.28,0,0,0,389,65.41a3.16,3.16,0,0,0,2,.87,2.16,2.16,0,0,0,1.39-.34,1.45,1.45,0,0,0,.6-1.19,2,2,0,0,0,0-.55,1.46,1.46,0,0,0-.25-.52l-.32-.44a2.15,2.15,0,0,0-.51-.43l-.57-.38-.72-.43-.73-.44a6.92,6.92,0,0,1-2-1.71,3.43,3.43,0,0,1,1-4.87A5.73,5.73,0,0,1,392.12,54.2Z"/><path class="cls-1" d="M411.24,58.54l-.34,5.88a6.57,6.57,0,0,0,.12,2.09.61.61,0,0,0,.33.26,2.28,2.28,0,0,0,.51.15l.49.06a.53.53,0,0,1,.25,0c.08,0,.11.12.1.27a2.24,2.24,0,0,1-.08.4c-.05.19-.12.28-.19.27a6.84,6.84,0,0,0-1.06,0l-1.24.14L409,68.3l-1.2.17q-.21,0-.18-.49l.07-1.31c0-.1,0-.15-.08-.15a6.62,6.62,0,0,1-1.89,1.23,5,5,0,0,1-2.38.46,3.11,3.11,0,0,1-1.74-.61,3.59,3.59,0,0,1-1.11-1.37,6.35,6.35,0,0,1-.52-1.76,9.09,9.09,0,0,1-.08-1.88l.19-3.32a2.83,2.83,0,0,0-.37-1.93,1.66,1.66,0,0,0-.66-.48,3.17,3.17,0,0,0-.7-.22c-.2,0-.29-.07-.29-.11q0-.86.2-.88a22.28,22.28,0,0,0,2.45-.22,24.08,24.08,0,0,0,2.38-.4l.12,0,.12,0c.1,0,.17.08.21.22a1.08,1.08,0,0,1,.05.33,26,26,0,0,0-.42,2.6L403,61.7a6.37,6.37,0,0,0,.46,3.36,2.62,2.62,0,0,0,3.69.64,1.58,1.58,0,0,0,.72-1.08l.28-4.9a2.82,2.82,0,0,0-.37-1.93,1.43,1.43,0,0,0-.64-.48,3.32,3.32,0,0,0-.72-.22c-.2,0-.29-.07-.29-.11,0-.57.11-.87.23-.88a22.93,22.93,0,0,0,2.42-.22,23.45,23.45,0,0,0,2.38-.4l.24,0c.1,0,.17.08.23.22a.55.55,0,0,1,0,.33Q411.27,58,411.24,58.54Z"/><path class="cls-1" d="M423.92,56.05a3,3,0,0,1,2.38,1.12q-.15,2.52-1.57,2.44a1.77,1.77,0,0,1-1.12-.66,1.86,1.86,0,0,0-1.24-.67,1.59,1.59,0,0,0-1.49.85,3.94,3.94,0,0,0-.63,1.91L420,64.76a12.4,12.4,0,0,0,.05,2.68c0,.14.29.3.76.48a4.17,4.17,0,0,0,1,.28q.09,0,.08.44a3.12,3.12,0,0,1,0,.58L420.29,69q-1.33-.17-2-.21t-2.07,0l-1.6,0a.88.88,0,0,1-.09-.57c0-.3.06-.44.14-.44a4.16,4.16,0,0,0,1.1-.16q.74-.18.81-.38a9.69,9.69,0,0,0,.33-2.16l.28-4.84a2.83,2.83,0,0,0-.37-1.93,1.44,1.44,0,0,0-.64-.48,3.31,3.31,0,0,0-.7-.22c-.19,0-.28-.07-.28-.1,0-.57.1-.87.2-.88a42,42,0,0,0,4.83-.62l.24,0c.08,0,.14.08.2.22a.71.71,0,0,1,.05.35l-.07.41c0,.19-.07.38-.11.59a3.51,3.51,0,0,0-.07.4A5.43,5.43,0,0,1,422,56.58,3.25,3.25,0,0,1,423.92,56.05Z"/><path class="cls-1" d="M439.14,58.8q-.34-.82-2-.92c-.06,0-.08-.14-.07-.42a1,1,0,0,1,.12-.53q.41,0,1.43.17t1.69.19q.67,0,1.74,0t1.46,0a.86.86,0,0,1,.06.48c0,.32-.09.47-.21.46a3.56,3.56,0,0,0-1.17.22,1.72,1.72,0,0,0-1.06.79l-5.56,10.19a2,2,0,0,1-.41.48.75.75,0,0,1-.52.24c-.2,0-.31-.08-.35-.2q-.52-1.37-1.41-3.79t-1.54-4.09q-.65-1.67-1.48-3.78-.31-.85-1.88-.94c-.08,0-.11-.17-.09-.48a.69.69,0,0,1,.15-.47c.18,0,.7.07,1.57.18s1.54.18,2,.21,1.16,0,2.05,0h1.55a1,1,0,0,1,0,.54c0,.28-.08.41-.16.41a4.33,4.33,0,0,0-1.06.12c-.45.09-.68.24-.7.44a.55.55,0,0,0,0,.3l2.55,7,3-5.72Q439.33,59.14,439.14,58.8Z"/><path class="cls-1" d="M450,66.48a10.87,10.87,0,0,0,.08,2.69c0,.14.29.3.78.48a4.4,4.4,0,0,0,1,.28c.08,0,.12.15.11.44a1.7,1.7,0,0,1-.08.58q-.21,0-1.58-.21t-2-.21c-.5,0-1.19,0-2.1,0l-1.56,0a.88.88,0,0,1-.09-.57q0-.45.14-.44a4.29,4.29,0,0,0,1.08-.16q.75-.18.83-.38a9.75,9.75,0,0,0,.33-2.15l.28-4.84a2.83,2.83,0,0,0-.37-1.93,1.67,1.67,0,0,0-.66-.48,3.14,3.14,0,0,0-.7-.22c-.2,0-.29-.07-.29-.11,0-.57.11-.87.23-.88a22.91,22.91,0,0,0,2.42-.22,24,24,0,0,0,2.38-.4l.24,0c.1,0,.17.08.23.22a.55.55,0,0,1,0,.33,25.55,25.55,0,0,0-.38,2.54Zm-2.37-12.6a1.81,1.81,0,0,1-.46-1.34,1.76,1.76,0,0,1,.61-1.26,1.86,1.86,0,0,1,2.61.15,1.76,1.76,0,0,1,.46,1.32,1.81,1.81,0,0,1-.61,1.28,1.83,1.83,0,0,1-2.61-.15Z"/><path class="cls-1" d="M465.27,60.3q-.34-.82-2-.92c-.06,0-.08-.14-.07-.42a1,1,0,0,1,.12-.53q.41,0,1.43.17t1.69.19q.67,0,1.74,0t1.46,0a.86.86,0,0,1,.06.48c0,.32-.09.47-.21.46a3.53,3.53,0,0,0-1.17.21,1.72,1.72,0,0,0-1.06.79l-5.56,10.19a2,2,0,0,1-.41.48.75.75,0,0,1-.52.24c-.2,0-.31-.08-.35-.2q-.52-1.37-1.41-3.79t-1.54-4.09q-.65-1.67-1.48-3.78-.31-.85-1.88-.94c-.08,0-.11-.17-.09-.48a.69.69,0,0,1,.15-.47c.18,0,.7.07,1.57.18s1.54.18,2,.21,1.16,0,2.05,0h1.55a1,1,0,0,1,0,.54c0,.28-.08.41-.16.41a4.38,4.38,0,0,0-1.06.12c-.45.09-.68.24-.7.44a.55.55,0,0,0,0,.3l2.55,7,3-5.72Q465.46,60.64,465.27,60.3Z"/><path class="cls-1" d="M478.06,59.16a6.55,6.55,0,0,1,4.65,2.22,6.37,6.37,0,0,1,1.7,4.82,6.78,6.78,0,1,1-6.35-7Zm-.47,1.37a2.39,2.39,0,0,0-2.24,1.23,6.41,6.41,0,0,0-1,3.18,8.67,8.67,0,0,0,.73,4.24,3,3,0,0,0,2.58,1.93A2.42,2.42,0,0,0,480,69.87a6.32,6.32,0,0,0,1-3.16,10.2,10.2,0,0,0-.22-2.89,5.26,5.26,0,0,0-1.12-2.28A2.76,2.76,0,0,0,477.59,60.53Z"/><path class="cls-1" d="M495.4,60.15a3,3,0,0,1,2.38,1.12q-.15,2.52-1.57,2.44a1.77,1.77,0,0,1-1.12-.66,1.87,1.87,0,0,0-1.24-.67,1.59,1.59,0,0,0-1.49.85,4,4,0,0,0-.63,1.92l-.21,3.71a12.39,12.39,0,0,0,.05,2.68c0,.14.28.3.76.48a4.23,4.23,0,0,0,1,.28c.06,0,.09.15.08.44a3.11,3.11,0,0,1,0,.58l-1.57-.21q-1.33-.17-2-.21t-2.07,0l-1.59,0a.88.88,0,0,1-.09-.57q0-.45.14-.44a4.16,4.16,0,0,0,1.1-.16c.49-.12.76-.25.81-.39a9.69,9.69,0,0,0,.33-2.15l.28-4.84a2.83,2.83,0,0,0-.37-1.93,1.43,1.43,0,0,0-.64-.48,3.42,3.42,0,0,0-.7-.22c-.19,0-.28-.07-.28-.1,0-.57.1-.87.2-.88a42.37,42.37,0,0,0,4.83-.62l.24,0q.12,0,.2.22a.71.71,0,0,1,.05.35l-.07.41q0,.28-.11.59a3.56,3.56,0,0,0-.07.4,5.43,5.43,0,0,1,1.54-1.36A3.25,3.25,0,0,1,495.4,60.15Z"/><path class="cls-1" d="M504.61,60.65a12.63,12.63,0,0,1,3.41.7,16.83,16.83,0,0,1,.14,3.34c0,.16-.14.23-.4.22-.43,0-.67-.12-.7-.28a3.62,3.62,0,0,0-.78-1.82,2.32,2.32,0,0,0-1.75-.83,2.14,2.14,0,0,0-1.37.31,1.32,1.32,0,0,0-.55,1.07,1.74,1.74,0,0,0,.12.77,1.85,1.85,0,0,0,.5.67,7.15,7.15,0,0,0,.63.51c.18.13.45.3.82.52A1.92,1.92,0,0,0,505,66l.43.26.48.3.46.31a5.4,5.4,0,0,1,.5.37l.44.38a2.34,2.34,0,0,1,.42.44l.33.48a1.94,1.94,0,0,1,.28.55,5.18,5.18,0,0,1,.13.57,2.71,2.71,0,0,1,0,.64,3.5,3.5,0,0,1-1.61,2.87,5.64,5.64,0,0,1-3.55.88A9.93,9.93,0,0,1,499.52,73a12,12,0,0,1-.2-1.66,14.33,14.33,0,0,1-.05-1.71.63.63,0,0,1,.42-.12c.46,0,.69.12.7.28a3.28,3.28,0,0,0,1.06,2.07,3.17,3.17,0,0,0,2,.87,2.17,2.17,0,0,0,1.39-.34,1.45,1.45,0,0,0,.6-1.19,2,2,0,0,0,0-.55,1.46,1.46,0,0,0-.25-.52l-.32-.43a2.14,2.14,0,0,0-.51-.43l-.57-.37-.72-.43-.73-.44a6.91,6.91,0,0,1-2-1.71,3.43,3.43,0,0,1,1-4.87A5.73,5.73,0,0,1,504.61,60.65Z"/><path class="cls-1" d="M512.08,74.75a2.65,2.65,0,0,0-.37-1.26,2.67,2.67,0,0,1-.37-1.32A1.79,1.79,0,0,1,512,71a2.21,2.21,0,0,1,1.67-.53,1.92,1.92,0,0,1,.94.23,4.63,4.63,0,0,1,.3,2.1,5.33,5.33,0,0,1-.32,1.41,8.53,8.53,0,0,1-1.43,2.67,13.35,13.35,0,0,1-2.66,2.27h0c-.1,0-.23-.12-.4-.34a.88.88,0,0,1-.24-.53,4.25,4.25,0,0,1,.53-.45,5.43,5.43,0,0,0,1.08-1.23A3.56,3.56,0,0,0,512.08,74.75Z"/></svg>