<svg id="Layer_1" data-name="Layer 1" xmlns="http://www.w3.org/2000/svg" viewBox="0 0 1109.96 229.74"><defs><style>.cls-1{fill:#fff;stroke:#1928eb;stroke-miterlimit:10;stroke-width:1.4px;}</style></defs><title>title</title><path class="cls-1" d="M65,1.71l15.35,75q1,5.7,2.24,10.46.44,2.15,3.69,4a18,18,0,0,0,4.85,2.12c.35.06.39.9.1,2.5a4.58,4.58,0,0,1-.63,2Q74.73,94,73.93,93.81T56.45,91.47a3.83,3.83,0,0,1-.09-2.56c.23-1.29.53-1.9.88-1.84a17.46,17.46,0,0,0,4.55,0q2.94-.29,3.67-1.26a3.89,3.89,0,0,0,.71-1.66q.48-2.67-.87-9.66L62.89,61.24a1.5,1.5,0,0,0-.84-.7q-4.22-1-11.42-2.34T35.36,55.84c-.53-.1-.83,0-.9.39L27.14,67.71q-3.79,6.48-4.1,8.21a3,3,0,0,0,1,2.93A13.54,13.54,0,0,0,28,81.08a23.27,23.27,0,0,0,3.95,1.4q.38.21.06,1.94a8.91,8.91,0,0,1-.73,2.49q-.67-.12-6.2-1.54t-9-2q-3.47-.63-8.26-1.15L1,81.42a2.88,2.88,0,0,1-.17-2.1q.43-2.4.7-2.35a19.58,19.58,0,0,0,5.34-.2q3.74-.49,4.94-1.79a64.51,64.51,0,0,0,7-9.48L54.41,10q4.51-7.45,6.67-8.71A3.46,3.46,0,0,1,63.52.75,2.23,2.23,0,0,1,65,1.71ZM40,48.41q4.59,1.25,9.53,2.14,4.66.85,11,1.58l.36-.49L55.6,23.14,39.84,47.83C39.77,48.19,39.83,48.38,40,48.41Z"/><path class="cls-1" d="M134,60.77a46.4,46.4,0,0,1,18.67-30.09q15.27-11.28,33.54-8,11.73,2.13,30,10.54.38.21-.47,9.07t-1.14,10.47q-.29,1.6-3,1.12a4.86,4.86,0,0,1-2.79-1.33,24.6,24.6,0,0,0-.46-3.94,26.85,26.85,0,0,0-1.81-5.22,19.8,19.8,0,0,0-3.79-5.71,27.11,27.11,0,0,0-6.83-4.89,35.38,35.38,0,0,0-10.46-3.48Q172.53,27,163.31,36T151.14,61.39a52,52,0,0,0,.06,19.09,36.94,36.94,0,0,0,8.07,17,26.49,26.49,0,0,0,16.15,9.33q8.4,1.52,13.26-.21a3.54,3.54,0,0,0,1.89-2.83l1.61-9.62.17-.93q1.45-8,1-11-.22-1.83-3.47-3.25a26.09,26.09,0,0,0-5.52-1.83q-.53-.1-.18-2a3.83,3.83,0,0,1,1-2.37q1.46.27,8,1.86T203.69,77L220,79.09a7.29,7.29,0,0,1,0,2.34q-.41,2.27-.94,2.17a17.4,17.4,0,0,0-3.68.16,35.54,35.54,0,0,0-4.18.62q-1.93.75-3.5,9.42-.51,2.8-.95,5.61t-.49,3.08a11.65,11.65,0,0,0-.08,4.25,11.64,11.64,0,0,1,.3,2.12q-.34,1.87-3.51,2.67-5.77,1.43-8.47,1.91a71.65,71.65,0,0,1-10.08.52,87.85,87.85,0,0,1-16-1.53q-17.6-3.19-27.57-18.49A44.26,44.26,0,0,1,134,60.77Z"/><path class="cls-1" d="M258.16,66.72a25.13,25.13,0,0,1,10.76,4.5,21.46,21.46,0,0,1,6.6,7.67,31.5,31.5,0,0,1,2.84,8.64,23.37,23.37,0,0,1,.05,8.07q-.53,2.93-1.66,3.49t-4.2,0l-31.87-5.77q-.93-.17-1.08.63a26.32,26.32,0,0,0,0,9.65,18.63,18.63,0,0,0,4.51,8.94,16,16,0,0,0,9.46,5.16,36.77,36.77,0,0,0,3.9.5,20.14,20.14,0,0,0,3.59,0q1.68-.17,3-.36a11.61,11.61,0,0,0,2.68-.75l2-.81q.59-.24,3-1.32a2.23,2.23,0,0,1,.52.92,2.63,2.63,0,0,1,.16,1.41,4.17,4.17,0,0,1-1.26,2.39q-2.65,3.24-9.17,5.78a25.13,25.13,0,0,1-13.85,1.21,27.44,27.44,0,0,1-18.45-12.22A29.23,29.23,0,0,1,225.07,92q2.44-13.47,11.76-20.46A26.27,26.27,0,0,1,258.16,66.72Zm-2,6a9.58,9.58,0,0,0-6.07.83,12.77,12.77,0,0,0-4.69,3.83A25.88,25.88,0,0,0,242.51,82a16.54,16.54,0,0,0-1.31,3.83c-.11.62.1,1,.63,1.08l21.6,3.91Q264.64,91,265,89a17.58,17.58,0,0,0-1.42-10Q261.31,73.63,256.11,72.69Z"/><path class="cls-1" d="M332.57,80.2q17.2,3.12,12.25,30.45l-2.29,12.67a56.71,56.71,0,0,0-1.24,12.17q.1,1,3.32,2.6a20.82,20.82,0,0,0,4.42,1.83c.27,0,.3.72.12,2a7.72,7.72,0,0,1-.67,2.56q-.78-.28-6.9-1.8t-9.2-2.08q-3.2-.58-8.94-1.21t-7-.71a4,4,0,0,1-.08-2.63q.36-2,.9-1.9a16.15,16.15,0,0,0,4.65-.19q3.18-.46,3.62-1.34a38.85,38.85,0,0,0,2.83-9.54l2.29-12.67q2-11.07-.2-16t-8.74-6.13a12.55,12.55,0,0,0-7.89,1q-3.62,1.76-4.11,4.42l-4.16,22.94a56.71,56.71,0,0,0-1.24,12.17q.1,1,3.18,2.57a19.56,19.56,0,0,0,4.15,1.78c.36.06.44.75.25,2a7.69,7.69,0,0,1-.67,2.56q-1-.33-6.9-1.8t-8.93-2q-3.2-.58-9.34-1.28t-7.23-.76a4,4,0,0,1-.08-2.63c.24-1.33.54-2,.9-1.9a18.94,18.94,0,0,0,5-.12q3.45-.41,3.89-1.29a44.33,44.33,0,0,0,2.7-9.57l3.94-21.74q1.14-6.27-.59-8.92A6.54,6.54,0,0,0,292,83.19,15.43,15.43,0,0,0,289,81.81c-.83-.24-1.23-.45-1.19-.63q.7-3.87,1.39-3.88,6.23.58,22.2-.11a.89.89,0,0,1,.37-.14,1.29,1.29,0,0,1,.41,0l.33.06c.35.06.61.43.76,1.1a4.11,4.11,0,0,1,.13,1.54,46.51,46.51,0,0,0-1.4,4.7,1.06,1.06,0,0,0,0,.69,2,2,0,0,0,.74-.28,30,30,0,0,1,9.22-4.12A23.73,23.73,0,0,1,332.57,80.2Z"/><path class="cls-1" d="M394.18,91.36a25.12,25.12,0,0,1,10.75,4.5,21.46,21.46,0,0,1,6.6,7.67,31.53,31.53,0,0,1,2.84,8.64,23.4,23.4,0,0,1,.05,8.07q-.53,2.93-1.67,3.49t-4.2,0l-31.87-5.77q-.93-.17-1.08.63a26.36,26.36,0,0,0,0,9.65,18.64,18.64,0,0,0,4.51,8.94,15.94,15.94,0,0,0,9.46,5.16,36.77,36.77,0,0,0,3.9.5,20.12,20.12,0,0,0,3.59,0q1.68-.17,3-.36a11.63,11.63,0,0,0,2.68-.75l2-.81q.59-.24,3-1.32a2.23,2.23,0,0,1,.52.92,2.61,2.61,0,0,1,.16,1.41,4.16,4.16,0,0,1-1.26,2.39Q404.53,147.5,398,150a25.14,25.14,0,0,1-13.85,1.21A27.44,27.44,0,0,1,365.71,139a29.23,29.23,0,0,1-4.62-22.39q2.44-13.47,11.76-20.46A26.27,26.27,0,0,1,394.18,91.36Zm-2,6a9.58,9.58,0,0,0-6.07.83,12.77,12.77,0,0,0-4.69,3.83,25.93,25.93,0,0,0-2.84,4.65,16.55,16.55,0,0,0-1.31,3.83q-.17.94.63,1.08l21.6,3.91q1.2.22,1.56-1.78a17.56,17.56,0,0,0-1.42-10Q397.34,98.27,392.14,97.33Z"/><path class="cls-1" d="M464.06,104q7.33,1.33,10.14,6.38-2.05,11.34-8.46,10.18-2.4-.43-4.72-3.61a8.49,8.49,0,0,0-5.25-3.71q-4.14-.75-7.23,3a18,18,0,0,0-3.92,8.31l-3,16.67a56.71,56.71,0,0,0-1.24,12.17q.1,1,3.18,2.57a19.23,19.23,0,0,0,4.29,1.81c.27,0,.3.72.12,2a14.23,14.23,0,0,1-.54,2.59q-1-.33-7-1.81t-9-2q-3.2-.58-9.34-1.28t-7.23-.76a4,4,0,0,1-.07-2.63q.36-2,.9-1.9a18.91,18.91,0,0,0,5-.12q3.45-.41,3.88-1.29a44.32,44.32,0,0,0,2.7-9.57l3.94-21.74q1.13-6.27-.59-8.92a6.53,6.53,0,0,0-2.64-2.54,15.48,15.48,0,0,0-3.06-1.38c-.83-.24-1.23-.45-1.19-.63q.7-3.87,1.39-3.88,6.23.58,22.19-.11a8.2,8.2,0,0,1,1.12-.07c.35.06.61.43.76,1.1a3.24,3.24,0,0,1,.06,1.59q-.18.59-.54,1.83c-.24.83-.51,1.7-.82,2.61a17.8,17.8,0,0,0-.53,1.76,24.89,24.89,0,0,1,7.71-5.28A14.85,14.85,0,0,1,464.06,104Z"/><path class="cls-1" d="M510.33,112.41q8.27,1.5,11.62,6.58t1.44,15.62l-4.76,26.27a6.18,6.18,0,0,0,.46,4.28,4.07,4.07,0,0,0,2.95,2,8.45,8.45,0,0,0,4.85-.91c.5.28.68.81.54,1.61a8.05,8.05,0,0,1-1.53,3.85,33.55,33.55,0,0,1-5.94,2.37,14.14,14.14,0,0,1-6.72.57,9.9,9.9,0,0,1-5.59-3.35,11.13,11.13,0,0,1-3-5.63c-.11.07-.49.3-1.16.69s-1.58.84-2.73,1.37a39.81,39.81,0,0,1-3.85,1.51,21.59,21.59,0,0,1-4.86,1,19.68,19.68,0,0,1-5.4-.22q-6.67-1.21-10.2-5.64T474.1,153.5a12.49,12.49,0,0,1,2.62-5.72,16.18,16.18,0,0,1,4.5-3.94,27.77,27.77,0,0,1,6.38-2.49,55.84,55.84,0,0,1,6.67-1.48q2.76-.39,7-.86t6-.71a2.13,2.13,0,0,0,1.59-1.92l1.33-7.33a11.63,11.63,0,0,0-.81-7.72,7.08,7.08,0,0,0-5.25-3.71,8.22,8.22,0,0,0-6.71,1.33q-2.72,2.06-3.54,6.59a4.39,4.39,0,0,1-2.71,3.57,8.42,8.42,0,0,1-4.76.45q-4.94-.89-6.36-4.46,1.16-6.4,10.91-10.42A34,34,0,0,1,510.33,112.41Zm-15.28,50.12a10.51,10.51,0,0,0,6.54-.74q2.94-1.39,3.37-3.8l2.46-13.6q-1,.23-4.18.62t-4.89.77a37,37,0,0,0-4.07,1.19,8.18,8.18,0,0,0-3.67,2.37,7.48,7.48,0,0,0-1.68,3.55q-.77,4.27,1,6.65A7.8,7.8,0,0,0,495.05,162.53Z"/><path class="cls-1" d="M548.65,129l-8.13-1.47q-.93-.17-.31-3.64a3.34,3.34,0,0,1,.35-1.18,37.94,37.94,0,0,0,11.55-5.21q2-1.42,4.51-3.25t5.89-4.79a9.63,9.63,0,0,1,2.47.79q1.14.55,1.07,1l-2.37,13.07q3.47.63,9.66,1.82l6.59,1.26q1.07.19.85,1.39a13.13,13.13,0,0,1-2.4,5.63l-16-2.9-5.82,32.14q-1,5.34.79,8.55a7.75,7.75,0,0,0,5.76,3.94,12.86,12.86,0,0,0,2.86.17,14.42,14.42,0,0,0,2.53-.3c.67-.15,1.3-.32,1.88-.49a4.31,4.31,0,0,1,1-.23q.56,0,1,1.42a3.18,3.18,0,0,1,.22,1.83q-1.14,1.72-6.45,3.31a21.36,21.36,0,0,1-10,.74,17.1,17.1,0,0,1-11-6.61q-4.06-5.35-2.37-14.68Z"/><path class="cls-1" d="M605.77,171q-1.47,8.14-1.11,12.2.1,1,3.25,2.59a20,20,0,0,0,4.35,1.82c.35.06.44.75.25,2a7.65,7.65,0,0,1-.67,2.56q-.91-.3-7-1.83t-9.06-2.06q-3.34-.6-9.47-1.3t-7.1-.73a4,4,0,0,1-.08-2.63q.36-2,.9-1.9a19.68,19.68,0,0,0,5-.13q3.51-.4,4-1.28a44.27,44.27,0,0,0,2.7-9.57l3.94-21.74q1.14-6.27-.59-8.92a7.54,7.54,0,0,0-2.71-2.56,14.27,14.27,0,0,0-3.06-1.38q-1.31-.37-1.26-.64.7-3.87,1.52-3.86a103.71,103.71,0,0,0,11.09.36,106.38,106.38,0,0,0,11-.49,7.87,7.87,0,0,0,1.11-.07c.44.08.74.46.9,1.13a2.5,2.5,0,0,1,0,1.52,115.81,115.81,0,0,0-3.14,11.27ZM602,112.69a8.25,8.25,0,0,1-1.34-6.3,8.4,8.4,0,0,1,16.54,3,8.25,8.25,0,0,1-3.46,5.43A8.34,8.34,0,0,1,602,112.69Z"/><path class="cls-1" d="M659.42,139.41A29.88,29.88,0,0,1,679.24,152a29,29,0,0,1,5,22.74,30.91,30.91,0,1,1-24.86-35.36Zm-2.87,6q-6.27-1.14-10.83,4.3a29.16,29.16,0,0,0-6.09,13.84,39.52,39.52,0,0,0,.93,19.59q2.88,8.79,10.62,10.19,6.27,1.14,10.91-4.36a28.82,28.82,0,0,0,6.14-13.76,46.54,46.54,0,0,0,.6-13.18A23.9,23.9,0,0,0,665,151,12.57,12.57,0,0,0,656.55,145.37Z"/><path class="cls-1" d="M740.5,154.1q17.2,3.12,12.25,30.45l-2.29,12.67a56.65,56.65,0,0,0-1.24,12.17q.1,1,3.32,2.6a20.82,20.82,0,0,0,4.42,1.83c.27,0,.3.72.12,2a7.66,7.66,0,0,1-.67,2.56q-.77-.28-6.9-1.8t-9.2-2.08q-3.2-.58-8.94-1.21t-7-.71a4,4,0,0,1-.07-2.63c.24-1.33.54-2,.9-1.9a16.15,16.15,0,0,0,4.65-.19q3.18-.46,3.62-1.34a39,39,0,0,0,2.83-9.54l2.29-12.67q2-11.07-.2-16t-8.74-6.13a12.55,12.55,0,0,0-7.89,1q-3.62,1.76-4.11,4.42l-4.16,22.94a56.71,56.71,0,0,0-1.24,12.17q.1,1,3.18,2.57a19.52,19.52,0,0,0,4.15,1.78c.35.06.44.75.25,2a7.68,7.68,0,0,1-.67,2.56q-1-.33-6.9-1.8t-8.93-2q-3.2-.58-9.34-1.28t-7.23-.76a4,4,0,0,1-.07-2.63q.36-2,.9-1.9a18.91,18.91,0,0,0,5-.12q3.45-.41,3.88-1.29a44.38,44.38,0,0,0,2.7-9.57l3.94-21.74q1.13-6.27-.59-8.92a6.53,6.53,0,0,0-2.64-2.54,15.48,15.48,0,0,0-3.06-1.38c-.83-.24-1.23-.45-1.19-.63q.7-3.87,1.39-3.88,6.23.58,22.19-.11a.89.89,0,0,1,.37-.14,1.29,1.29,0,0,1,.41,0l.33.06c.35.06.61.43.76,1.1a4.11,4.11,0,0,1,.13,1.54,46.27,46.27,0,0,0-1.4,4.7,1.06,1.06,0,0,0,0,.69,2,2,0,0,0,.74-.28,30,30,0,0,1,9.22-4.12A23.73,23.73,0,0,1,740.5,154.1Z"/><path class="cls-1" d="M852.19,135.54l34,68.52q2.46,5.24,4.84,9.54,1,2,4.58,2.9a18,18,0,0,0,5.23.8q.54,0,.74,2.39a4.55,4.55,0,0,1-.11,2q-16.27.49-17.09.55t-17.5,2.22a3.84,3.84,0,0,1-.74-2.46q-.16-2,.38-2a17.43,17.43,0,0,0,4.39-1.17q2.77-1,3.23-2.16a3.88,3.88,0,0,0,.26-1.79q-.22-2.7-3.31-9.12l-5.73-12.19a1.5,1.5,0,0,0-1-.46q-4.35.08-11.64.66t-15.37,1.64c-.54,0-.8.25-.77.61l-4.13,13q-2,7.23-1.87,9a3,3,0,0,0,1.7,2.58,13.57,13.57,0,0,0,4.37,1.15,23.36,23.36,0,0,0,4.17.35q.42.1.56,1.86a8.9,8.9,0,0,1-.06,2.59q-.68.05-6.38.1t-9.22.33q-3.51.28-8.28,1l-6.78,1a2.88,2.88,0,0,1-.7-2q-.19-2.43.08-2.45a19.65,19.65,0,0,0,5.11-1.56q3.48-1.43,4.31-3a64.47,64.47,0,0,0,4.29-10.95l20.26-62.8q2.46-8.35,4.22-10.13a3.45,3.45,0,0,1,2.22-1.13A2.22,2.22,0,0,1,852.19,135.54ZM840,187.09q4.76,0,9.76-.37,4.73-.38,11-1.29l.23-.56-12.43-26.2-8.91,27.91C839.71,186.93,839.82,187.1,840,187.09Z"/><path class="cls-1" d="M940.56,123.7a26.7,26.7,0,0,1,9.5.67q3.83,1.12,5.21,3.05a15.19,15.19,0,0,1-.14,7.56,4.86,4.86,0,0,1-4.66,3.7,5.29,5.29,0,0,1-4.3-1.9q-2-2.08-4.21-4.15a6.23,6.23,0,0,0-4.91-1.85,7.22,7.22,0,0,0-5.8,4,22.78,22.78,0,0,0-2.76,8.79,55.35,55.35,0,0,0-.14,11l.5,6.21c0,.09.11.22.3.38a.77.77,0,0,0,.56.23l14.86-1.19a1.09,1.09,0,0,1,.69.08,1.42,1.42,0,0,1,.2.8,13.93,13.93,0,0,1-1.12,6.34l-14,1.13a.72.72,0,0,0-.75.88L932,199.58A51.79,51.79,0,0,0,934,211.65q.34.93,3.74,1.67a19.15,19.15,0,0,0,4.61.65c.27,0,.48.62.63,1.92a7.69,7.69,0,0,1,0,2.65q-.82-.07-7.07,0t-9.49.35q-3.24.26-9.15,1.14t-7,1.1a2.56,2.56,0,0,1-.66-1.44,8.09,8.09,0,0,1-.17-2.09c0-.68.19-1,.46-1.06a18.19,18.19,0,0,0,4.65-1.39q3.16-1.27,3.36-2.24a44.92,44.92,0,0,0,.33-11.17l-2.49-31.07c0-.63-.35-.92-.89-.88l-8.11.65c-.18,0-.29-.25-.33-.79q-.12-1.48,1.58-4.07a5.45,5.45,0,0,1,4.13-2.78l2.16-.17a.72.72,0,0,0,.75-.88l-.11-1.35q-1.14-14.18,6.5-25T940.56,123.7Z"/><path class="cls-1" d="M960.54,166l-8.24.66q-.94.08-1.23-3.44a3.34,3.34,0,0,1,0-1.23,37.93,37.93,0,0,0,9.83-8q1.61-1.89,3.53-4.29t4.47-6.14a9.68,9.68,0,0,1,2.59.13q1.24.24,1.28.65l1.06,13.24q3.51-.28,9.8-.72l6.69-.47q1.08-.09,1.18,1.13a13.17,13.17,0,0,1-.87,6.05l-16.21,1.3,2.61,32.56q.43,5.41,3,8.06a7.74,7.74,0,0,0,6.58,2.33,12.82,12.82,0,0,0,2.81-.56,14.39,14.39,0,0,0,2.37-.94q.91-.48,1.69-1a4.3,4.3,0,0,1,.91-.48q.53-.18,1.31,1.12t.68,1.71q-.66,2-5.39,4.85a21.35,21.35,0,0,1-9.46,3.27,17.09,17.09,0,0,1-12.32-3.57q-5.3-4.13-6.05-13.59Z"/><path class="cls-1" d="M1026.92,151.18a25.13,25.13,0,0,1,11.55,1.59,21.45,21.45,0,0,1,8.34,5.72,31.56,31.56,0,0,1,5,7.62,23.39,23.39,0,0,1,2.12,7.78q.24,3-.72,3.8t-4.06,1.07l-32.29,2.58q-.95.08-.88.89a26.32,26.32,0,0,0,2.51,9.32,18.64,18.64,0,0,0,6.65,7.49,16,16,0,0,0,10.47,2.56,37,37,0,0,0,3.9-.52,20.2,20.2,0,0,0,3.46-1q1.58-.6,2.77-1.1a11.64,11.64,0,0,0,2.4-1.42l1.73-1.29q.51-.38,2.56-2a2.22,2.22,0,0,1,.74.76,2.63,2.63,0,0,1,.51,1.32A4.17,4.17,0,0,1,1053,199q-1.73,3.81-7.39,7.93a25.14,25.14,0,0,1-13.08,4.72,27.44,27.44,0,0,1-21-7.09,29.23,29.23,0,0,1-10.2-20.46q-1.09-13.64,6.13-22.79A26.26,26.26,0,0,1,1026.92,151.18Zm-.45,6.29a9.58,9.58,0,0,0-5.66,2.36,12.77,12.77,0,0,0-3.55,4.91,26,26,0,0,0-1.55,5.22,16.63,16.63,0,0,0-.29,4q.08.95.89.88l21.88-1.75q1.22-.1,1.05-2.12a17.57,17.57,0,0,0-3.94-9.34Q1031.74,157.05,1026.47,157.47Z"/><path class="cls-1" d="M1097.71,145.52q7.43-.59,11.43,3.57.92,11.48-5.56,12-2.43.19-5.48-2.28a8.49,8.49,0,0,0-6-2.24q-4.19.34-6.21,4.78a18,18,0,0,0-1.66,9l1.35,16.89a56.58,56.58,0,0,0,1.92,12.08q.34.93,3.74,1.67a19.18,19.18,0,0,0,4.61.65c.27,0,.48.62.63,1.92a14.15,14.15,0,0,1,.14,2.64q-1.09,0-7.2,0t-9.22.33q-3.24.26-9.36,1.16t-7.18,1.12a4,4,0,0,1-.75-2.52q-.16-2,.38-2.07a18.93,18.93,0,0,0,4.85-1.41q3.23-1.28,3.42-2.25a44.31,44.31,0,0,0,.16-9.94l-1.76-22q-.51-6.35-2.85-8.47a6.53,6.53,0,0,0-3.2-1.78,15.45,15.45,0,0,0-3.31-.55c-.86,0-1.3-.12-1.32-.3q-.31-3.92.35-4.11,6.17-1,21.42-5.79a8,8,0,0,1,1.06-.36c.36,0,.7.26,1,.87a3.24,3.24,0,0,1,.46,1.53c0,.41,0,1-.05,1.91s-.06,1.77-.12,2.73a17.1,17.1,0,0,0-.06,1.84,24.84,24.84,0,0,1,6.09-7.08A14.84,14.84,0,0,1,1097.71,145.52Z"/></svg>