<svg id="Layer_1" data-name="Layer 1" xmlns="http://www.w3.org/2000/svg" viewBox="0 0 625.34 362.11"><defs><style>.cls-1{fill:#fff;stroke:#1928eb;stroke-miterlimit:10;stroke-width:1.4px;}</style></defs><title>title</title><path class="cls-1" d="M1.49,122.21A46.39,46.39,0,0,1,20.17,92.12q15.27-11.28,33.54-8,11.73,2.13,30,10.54.38.21-.47,9.07t-1.14,10.47q-.29,1.6-3,1.12A4.86,4.86,0,0,1,76.39,114a24.7,24.7,0,0,0-.46-3.94,26.85,26.85,0,0,0-1.81-5.22,19.82,19.82,0,0,0-3.79-5.71,27.12,27.12,0,0,0-6.83-4.89,35.38,35.38,0,0,0-10.46-3.48Q40,88.41,30.76,97.49T18.6,122.83a52,52,0,0,0,.05,19.09,36.94,36.94,0,0,0,8.07,17,26.49,26.49,0,0,0,16.15,9.33q8.4,1.52,13.26-.22A3.54,3.54,0,0,0,58,165.23l1.61-9.63.17-.93q1.45-8,1-11-.22-1.83-3.47-3.25a26,26,0,0,0-5.52-1.83q-.53-.1-.18-2a3.83,3.83,0,0,1,1-2.37q1.47.27,8,1.86t10.53,2.32l16.28,2.12a7.31,7.31,0,0,1,0,2.34q-.41,2.27-.94,2.17a17.38,17.38,0,0,0-3.68.16,35.69,35.69,0,0,0-4.17.62q-1.93.76-3.5,9.42-.51,2.8-.95,5.61t-.49,3.08a11.67,11.67,0,0,0-.08,4.25,11.54,11.54,0,0,1,.3,2.12q-.34,1.87-3.51,2.67-5.77,1.43-8.47,1.91a71.61,71.61,0,0,1-10.08.52,87.79,87.79,0,0,1-16-1.53q-17.6-3.19-27.57-18.49A44.26,44.26,0,0,1,1.49,122.21Z"/><path class="cls-1" d="M125.61,128.16a25.12,25.12,0,0,1,10.75,4.5,21.46,21.46,0,0,1,6.6,7.67,31.54,31.54,0,0,1,2.84,8.64,23.38,23.38,0,0,1,.05,8.07q-.53,2.93-1.67,3.49t-4.2,0l-31.87-5.77q-.93-.17-1.08.63a26.34,26.34,0,0,0,0,9.65A18.63,18.63,0,0,0,111.6,174a16,16,0,0,0,9.46,5.16,36.89,36.89,0,0,0,3.9.5,20.22,20.22,0,0,0,3.59,0q1.68-.18,3-.36a11.62,11.62,0,0,0,2.68-.75l2-.81q.59-.24,3-1.32a2.21,2.21,0,0,1,.52.92,2.61,2.61,0,0,1,.16,1.41,4.16,4.16,0,0,1-1.26,2.39q-2.65,3.24-9.17,5.78a25.15,25.15,0,0,1-13.85,1.21,27.45,27.45,0,0,1-18.45-12.22,29.23,29.23,0,0,1-4.62-22.39Q95,140,104.29,133A26.27,26.27,0,0,1,125.61,128.16Zm-2,6a9.57,9.57,0,0,0-6.07.83,12.76,12.76,0,0,0-4.69,3.83,25.94,25.94,0,0,0-2.84,4.65,16.54,16.54,0,0,0-1.31,3.82c-.11.62.1,1,.63,1.08l21.6,3.91q1.2.22,1.56-1.78a17.56,17.56,0,0,0-1.42-10Q128.77,135.07,123.57,134.13Z"/><path class="cls-1" d="M200,141.64q17.2,3.12,12.25,30.45L210,184.77a56.71,56.71,0,0,0-1.24,12.17q.1,1,3.32,2.6a20.82,20.82,0,0,0,4.42,1.83c.27,0,.3.72.12,2a7.66,7.66,0,0,1-.67,2.56q-.78-.28-6.9-1.8t-9.2-2.08q-3.2-.58-8.94-1.21t-7-.71a4,4,0,0,1-.07-2.63q.36-2,.9-1.9a16.15,16.15,0,0,0,4.65-.19c2.12-.3,3.33-.75,3.62-1.34a39,39,0,0,0,2.83-9.54l2.29-12.67q2-11.07-.2-16t-8.74-6.13a12.55,12.55,0,0,0-7.89,1q-3.62,1.75-4.11,4.42L173,178.08a56.71,56.71,0,0,0-1.24,12.17q.1,1,3.18,2.57a19.57,19.57,0,0,0,4.15,1.78c.35.06.44.75.25,2a7.7,7.7,0,0,1-.67,2.56q-1-.33-6.9-1.8t-8.93-2q-3.2-.58-9.34-1.28t-7.23-.76a4,4,0,0,1-.08-2.63q.36-2,.9-1.9a19,19,0,0,0,5-.12q3.45-.41,3.88-1.29a44.33,44.33,0,0,0,2.7-9.57l3.94-21.74q1.14-6.27-.59-8.92a6.54,6.54,0,0,0-2.64-2.54,15.48,15.48,0,0,0-3.06-1.38c-.83-.24-1.23-.45-1.2-.63q.7-3.87,1.39-3.88,6.23.58,22.2-.11a.88.88,0,0,1,.37-.14,1.3,1.3,0,0,1,.41,0l.33.06c.35.06.61.43.76,1.1a4.13,4.13,0,0,1,.13,1.54,46.24,46.24,0,0,0-1.4,4.7,1.06,1.06,0,0,0,0,.69,2,2,0,0,0,.74-.28,30,30,0,0,1,9.22-4.12A23.73,23.73,0,0,1,200,141.64Z"/><path class="cls-1" d="M261.63,152.8a25.12,25.12,0,0,1,10.75,4.5A21.47,21.47,0,0,1,279,165a31.53,31.53,0,0,1,2.84,8.64,23.42,23.42,0,0,1,.05,8.07q-.53,2.93-1.67,3.49t-4.2,0l-31.87-5.77q-.93-.17-1.08.63a26.34,26.34,0,0,0,0,9.65,18.63,18.63,0,0,0,4.51,8.94,16,16,0,0,0,9.46,5.16,36.91,36.91,0,0,0,3.9.5,20.22,20.22,0,0,0,3.59,0q1.68-.18,3-.36a11.64,11.64,0,0,0,2.69-.75l2-.81q.59-.24,3-1.32a2.22,2.22,0,0,1,.52.92,2.62,2.62,0,0,1,.16,1.41,4.17,4.17,0,0,1-1.26,2.39q-2.65,3.24-9.17,5.78a25.14,25.14,0,0,1-13.85,1.21,27.45,27.45,0,0,1-18.45-12.22,29.23,29.23,0,0,1-4.62-22.39q2.44-13.47,11.76-20.46A26.27,26.27,0,0,1,261.63,152.8Zm-2,6a9.57,9.57,0,0,0-6.07.83,12.77,12.77,0,0,0-4.69,3.83,25.94,25.94,0,0,0-2.84,4.65,16.59,16.59,0,0,0-1.31,3.82c-.11.62.1,1,.63,1.08l21.6,3.91q1.2.22,1.56-1.78a17.56,17.56,0,0,0-1.42-10Q264.79,159.71,259.59,158.77Z"/><path class="cls-1" d="M331.51,165.46q7.33,1.33,10.14,6.38-2.05,11.33-8.45,10.18-2.4-.44-4.72-3.61a8.48,8.48,0,0,0-5.25-3.71q-4.14-.75-7.23,3a18,18,0,0,0-3.92,8.31l-3,16.67a56.71,56.71,0,0,0-1.24,12.17q.1,1,3.18,2.57a19.15,19.15,0,0,0,4.29,1.81q.4.07.12,2a14.13,14.13,0,0,1-.54,2.59q-1-.33-7-1.81t-9-2q-3.2-.58-9.34-1.28t-7.23-.76a4,4,0,0,1-.08-2.63q.36-2,.9-1.9a18.94,18.94,0,0,0,5-.12q3.45-.41,3.88-1.29a44.27,44.27,0,0,0,2.7-9.57l3.94-21.74q1.14-6.27-.59-8.92a6.54,6.54,0,0,0-2.64-2.54,15.45,15.45,0,0,0-3.06-1.38c-.83-.24-1.23-.45-1.19-.63q.7-3.87,1.39-3.88,6.23.58,22.19-.11a8,8,0,0,1,1.12-.07c.35.06.61.43.76,1.1a3.26,3.26,0,0,1,.06,1.59q-.18.59-.54,1.83t-.82,2.61a17.41,17.41,0,0,0-.53,1.76,24.86,24.86,0,0,1,7.71-5.28A14.85,14.85,0,0,1,331.51,165.46Z"/><path class="cls-1" d="M377.78,173.85q8.27,1.5,11.62,6.58T390.84,196l-4.76,26.27a6.18,6.18,0,0,0,.46,4.28,4.07,4.07,0,0,0,2.95,2,8.45,8.45,0,0,0,4.85-.91c.5.28.68.81.53,1.61a8.06,8.06,0,0,1-1.52,3.85,33.57,33.57,0,0,1-5.94,2.37,14.12,14.12,0,0,1-6.72.57,9.9,9.9,0,0,1-5.59-3.35,11.11,11.11,0,0,1-3-5.64q-.16.11-1.16.69t-2.73,1.37a39.56,39.56,0,0,1-3.85,1.51,21.58,21.58,0,0,1-4.86,1,19.68,19.68,0,0,1-5.4-.22q-6.67-1.21-10.21-5.64t-2.38-10.83a12.48,12.48,0,0,1,2.62-5.72,16.17,16.17,0,0,1,4.5-3.94,27.75,27.75,0,0,1,6.37-2.5,55.8,55.8,0,0,1,6.67-1.48q2.76-.39,7-.86t6-.71a2.13,2.13,0,0,0,1.59-1.92l1.33-7.33a11.63,11.63,0,0,0-.8-7.72,7.08,7.08,0,0,0-5.25-3.71,8.22,8.22,0,0,0-6.71,1.33q-2.72,2.06-3.54,6.59a4.39,4.39,0,0,1-2.71,3.57,8.42,8.42,0,0,1-4.76.45q-4.94-.89-6.35-4.46,1.16-6.4,10.91-10.42A34,34,0,0,1,377.78,173.85ZM362.51,224a10.51,10.51,0,0,0,6.54-.74q2.94-1.39,3.37-3.8l2.46-13.6q-1,.23-4.18.62t-4.89.77a36.91,36.91,0,0,0-4.07,1.19,8.18,8.18,0,0,0-3.67,2.37,7.49,7.49,0,0,0-1.68,3.55q-.77,4.27,1,6.65A7.79,7.79,0,0,0,362.51,224Z"/><path class="cls-1" d="M416.1,190.43,408,189q-.93-.17-.3-3.64a3.33,3.33,0,0,1,.35-1.18,37.92,37.92,0,0,0,11.55-5.21q2-1.42,4.51-3.25T430,170.9a9.67,9.67,0,0,1,2.47.79q1.14.55,1.07,1l-2.37,13.07q3.47.63,9.66,1.82l6.59,1.26q1.07.19.85,1.39a13.16,13.16,0,0,1-2.4,5.63l-16-2.9L424,225.05q-1,5.34.79,8.55a7.75,7.75,0,0,0,5.76,3.94,12.84,12.84,0,0,0,2.86.17,14.42,14.42,0,0,0,2.53-.3q1-.23,1.88-.49a4.28,4.28,0,0,1,1-.23q.56,0,1,1.42a3.19,3.19,0,0,1,.22,1.83q-1.14,1.72-6.45,3.31a21.36,21.36,0,0,1-10,.74,17.1,17.1,0,0,1-11-6.6q-4.06-5.35-2.37-14.68Z"/><path class="cls-1" d="M473.22,232.45q-1.47,8.14-1.11,12.19.1,1,3.25,2.59a19.93,19.93,0,0,0,4.35,1.82c.35.06.44.75.25,2a7.69,7.69,0,0,1-.67,2.56q-.91-.3-7-1.83t-9.06-2.06q-3.34-.6-9.47-1.3t-7.1-.73a4,4,0,0,1-.07-2.63q.36-2,.9-1.9a19.68,19.68,0,0,0,5-.13q3.51-.4,4-1.28a44.36,44.36,0,0,0,2.7-9.56L463,210.5q1.13-6.27-.59-8.92a7.53,7.53,0,0,0-2.71-2.56,14.24,14.24,0,0,0-3.05-1.38c-.87-.25-1.29-.46-1.26-.64q.7-3.87,1.52-3.86a103.87,103.87,0,0,0,11.09.36,106.36,106.36,0,0,0,11-.49,7.87,7.87,0,0,0,1.12-.07c.44.08.74.46.9,1.13a2.5,2.5,0,0,1,0,1.52,116.66,116.66,0,0,0-3.14,11.27Zm-3.76-58.32a8.26,8.26,0,0,1-1.34-6.3,8.33,8.33,0,0,1,9.75-6.7,8.12,8.12,0,0,1,5.43,3.46,8,8,0,0,1,1.35,6.24,8.26,8.26,0,0,1-3.46,5.43,8.35,8.35,0,0,1-11.74-2.13Z"/><path class="cls-1" d="M526.87,200.85a29.88,29.88,0,0,1,19.82,12.61,29,29,0,0,1,5,22.74,30.7,30.7,0,0,1-60.41-10.94,29.19,29.19,0,0,1,12.58-19.62A29.69,29.69,0,0,1,526.87,200.85Zm-2.87,6q-6.27-1.14-10.83,4.3A29.16,29.16,0,0,0,507.08,225a39.53,39.53,0,0,0,.93,19.59q2.88,8.79,10.62,10.19,6.27,1.14,10.91-4.36a28.81,28.81,0,0,0,6.14-13.76,46.54,46.54,0,0,0,.6-13.18,23.91,23.91,0,0,0-3.8-10.95A12.57,12.57,0,0,0,524,206.81Z"/><path class="cls-1" d="M608,215.54q17.2,3.12,12.25,30.45l-2.29,12.67a56.71,56.71,0,0,0-1.24,12.17q.1,1,3.32,2.6a20.77,20.77,0,0,0,4.42,1.83c.27,0,.3.72.12,2a7.7,7.7,0,0,1-.67,2.56q-.78-.28-6.9-1.8t-9.2-2.08q-3.2-.58-8.94-1.21t-7-.71a4,4,0,0,1-.08-2.63q.36-2,.9-1.9a16.15,16.15,0,0,0,4.65-.19q3.18-.46,3.62-1.34a38.89,38.89,0,0,0,2.83-9.54l2.29-12.67q2-11.07-.2-16t-8.74-6.13a12.54,12.54,0,0,0-7.89,1q-3.62,1.75-4.11,4.42L581,252a56.65,56.65,0,0,0-1.24,12.17q.1,1,3.18,2.57a19.58,19.58,0,0,0,4.15,1.79c.36.06.44.75.25,2a7.69,7.69,0,0,1-.67,2.56q-1-.33-6.9-1.8t-8.93-2q-3.2-.58-9.34-1.28t-7.23-.76a4,4,0,0,1-.08-2.63q.36-2,.9-1.9a18.93,18.93,0,0,0,5-.12q3.45-.41,3.88-1.29a44.26,44.26,0,0,0,2.7-9.56L570.63,230q1.14-6.27-.59-8.92a6.54,6.54,0,0,0-2.64-2.54,15.45,15.45,0,0,0-3.06-1.38c-.83-.24-1.23-.45-1.19-.63q.7-3.87,1.39-3.88,6.23.58,22.19-.11a.89.89,0,0,1,.37-.14,1.33,1.33,0,0,1,.41,0l.33.06c.35.06.61.43.76,1.1a4.13,4.13,0,0,1,.13,1.54,46.13,46.13,0,0,0-1.4,4.7,1.06,1.06,0,0,0,0,.69,2,2,0,0,0,.74-.28,30.05,30.05,0,0,1,9.22-4.12A23.73,23.73,0,0,1,608,215.54Z"/><path class="cls-1" d="M148.15,267.91l34,68.52q2.46,5.24,4.84,9.54,1,2,4.58,2.9a18,18,0,0,0,5.23.8q.54,0,.74,2.39a4.57,4.57,0,0,1-.11,2q-16.28.49-17.09.55t-17.5,2.22a3.82,3.82,0,0,1-.74-2.46q-.16-2,.38-2a17.43,17.43,0,0,0,4.39-1.17q2.77-1,3.23-2.16a3.9,3.9,0,0,0,.26-1.79q-.22-2.7-3.31-9.12L161.36,326a1.5,1.5,0,0,0-1-.46q-4.35.08-11.64.66t-15.37,1.64c-.54,0-.8.25-.77.61l-4.13,13q-2,7.23-1.87,9a3,3,0,0,0,1.7,2.58,13.57,13.57,0,0,0,4.38,1.15,23.35,23.35,0,0,0,4.17.35q.42.1.56,1.86a8.86,8.86,0,0,1-.06,2.59q-.68.05-6.38.1t-9.22.33q-3.51.28-8.28,1l-6.78,1a2.89,2.89,0,0,1-.7-2c-.13-1.62-.11-2.44.08-2.45a19.62,19.62,0,0,0,5.11-1.56q3.49-1.43,4.31-3a64.38,64.38,0,0,0,4.29-10.95L140,278.62q2.46-8.35,4.22-10.13a3.45,3.45,0,0,1,2.22-1.13A2.22,2.22,0,0,1,148.15,267.91ZM136,319.46q4.76,0,9.76-.37,4.73-.38,11-1.29l.23-.56L144.56,291l-8.92,27.91C135.67,319.31,135.78,319.48,136,319.46Z"/><path class="cls-1" d="M236.52,256.08a26.69,26.69,0,0,1,9.5.67q3.83,1.12,5.21,3.05a15.2,15.2,0,0,1-.14,7.56,4.86,4.86,0,0,1-4.67,3.7,5.28,5.28,0,0,1-4.3-1.9q-2-2.08-4.21-4.15a6.23,6.23,0,0,0-4.91-1.85,7.22,7.22,0,0,0-5.8,4,22.8,22.8,0,0,0-2.76,8.79,55.35,55.35,0,0,0-.14,11l.5,6.21c0,.09.11.22.3.38a.77.77,0,0,0,.56.23l14.86-1.19a1.08,1.08,0,0,1,.69.08,1.43,1.43,0,0,1,.2.8,13.93,13.93,0,0,1-1.12,6.34l-14,1.13a.72.72,0,0,0-.75.88L227.91,332A51.84,51.84,0,0,0,230,344q.34.93,3.74,1.67a19.16,19.16,0,0,0,4.61.65c.27,0,.48.62.63,1.92a7.67,7.67,0,0,1,0,2.65q-.82-.07-7.07,0t-9.49.35q-3.24.26-9.15,1.14t-7,1.1a2.56,2.56,0,0,1-.66-1.44,8.08,8.08,0,0,1-.17-2.09c0-.68.19-1,.46-1.06a18.19,18.19,0,0,0,4.65-1.39q3.16-1.27,3.36-2.24a44.87,44.87,0,0,0,.33-11.17l-2.49-31.07c0-.63-.35-.92-.89-.88l-8.11.65c-.18,0-.29-.25-.34-.79q-.12-1.48,1.58-4.07a5.45,5.45,0,0,1,4.13-2.78l2.16-.17a.72.72,0,0,0,.75-.88l-.11-1.35q-1.14-14.18,6.5-25T236.52,256.08Z"/><path class="cls-1" d="M256.5,298.39l-8.24.66q-.94.08-1.23-3.44a3.37,3.37,0,0,1,0-1.23,38,38,0,0,0,9.83-8q1.61-1.89,3.53-4.29T264.9,276a9.67,9.67,0,0,1,2.59.13c.83.16,1.25.38,1.28.65L269.83,290q3.51-.28,9.8-.72l6.69-.47q1.08-.09,1.18,1.13a13.14,13.14,0,0,1-.87,6.05l-16.21,1.3L273,329.84q.43,5.41,3,8.06a7.74,7.74,0,0,0,6.58,2.33,12.81,12.81,0,0,0,2.81-.56,14.37,14.37,0,0,0,2.37-.94q.91-.48,1.69-1a4.33,4.33,0,0,1,.91-.48c.35-.12.79.26,1.31,1.12s.75,1.44.68,1.71q-.66,2-5.39,4.85a21.36,21.36,0,0,1-9.46,3.27,17.09,17.09,0,0,1-12.32-3.57q-5.3-4.13-6.05-13.59Z"/><path class="cls-1" d="M322.88,283.56a25.14,25.14,0,0,1,11.55,1.59,21.45,21.45,0,0,1,8.34,5.72,31.56,31.56,0,0,1,5,7.62,23.39,23.39,0,0,1,2.12,7.78q.24,3-.72,3.8t-4.06,1.07l-32.29,2.58q-.95.08-.88.89a26.34,26.34,0,0,0,2.51,9.32,18.64,18.64,0,0,0,6.65,7.49A15.94,15.94,0,0,0,331.54,334a36.94,36.94,0,0,0,3.9-.52,20.21,20.21,0,0,0,3.46-1q1.58-.6,2.77-1.1a11.64,11.64,0,0,0,2.4-1.42l1.73-1.29q.51-.38,2.55-2a2.21,2.21,0,0,1,.74.76,2.62,2.62,0,0,1,.51,1.32,4.16,4.16,0,0,1-.61,2.63q-1.73,3.81-7.39,7.93A25.14,25.14,0,0,1,328.54,344a27.44,27.44,0,0,1-21-7.09,29.23,29.23,0,0,1-10.2-20.46q-1.09-13.64,6.13-22.79A26.27,26.27,0,0,1,322.88,283.56Zm-.45,6.29a9.58,9.58,0,0,0-5.66,2.36,12.76,12.76,0,0,0-3.55,4.91,25.91,25.91,0,0,0-1.55,5.22,16.62,16.62,0,0,0-.29,4q.07.95.89.88l21.88-1.75q1.22-.1,1.05-2.12a17.56,17.56,0,0,0-3.94-9.34Q327.7,289.43,322.43,289.85Z"/><path class="cls-1" d="M393.67,277.89q7.43-.59,11.43,3.57.92,11.48-5.57,12-2.43.19-5.48-2.28a8.48,8.48,0,0,0-6-2.24q-4.19.34-6.21,4.78a18,18,0,0,0-1.66,9l1.35,16.89a56.7,56.7,0,0,0,1.92,12.08q.35.93,3.74,1.67a19.18,19.18,0,0,0,4.61.65c.27,0,.48.62.63,1.92a14.09,14.09,0,0,1,.14,2.64q-1.09,0-7.2,0t-9.22.33q-3.24.26-9.36,1.16t-7.18,1.12a4,4,0,0,1-.75-2.52q-.16-2,.38-2.07a18.94,18.94,0,0,0,4.85-1.41q3.23-1.28,3.42-2.25a44.32,44.32,0,0,0,.16-9.94l-1.76-22q-.51-6.35-2.85-8.47a6.53,6.53,0,0,0-3.2-1.78,15.45,15.45,0,0,0-3.31-.55c-.87,0-1.3-.12-1.32-.3q-.31-3.92.35-4.11,6.17-1,21.42-5.79a7.92,7.92,0,0,1,1.06-.36c.36,0,.7.26,1,.87a3.26,3.26,0,0,1,.46,1.53c0,.41,0,1-.05,1.91s-.06,1.77-.12,2.73a17.38,17.38,0,0,0-.06,1.84,24.83,24.83,0,0,1,6.1-7.08A14.83,14.83,0,0,1,393.67,277.89Z"/><path class="cls-1" d="M186,1.38l28.46,71q2,5.42,4.07,9.89.81,2,4.34,3.25A18,18,0,0,0,228,86.76q.54,0,.54,2.44a4.57,4.57,0,0,1-.27,2q-16.26-.81-17.08-.81t-17.62.81a3.83,3.83,0,0,1-.54-2.51c0-1.31.18-2,.54-2a17.45,17.45,0,0,0,4.47-.81q2.85-.81,3.39-1.9a3.88,3.88,0,0,0,.41-1.76q0-2.71-2.57-9.35l-4.74-12.6a1.5,1.5,0,0,0-.95-.54q-4.34-.27-11.66-.27t-15.45.41c-.54,0-.81.18-.81.54l-5.15,12.6q-2.58,7-2.58,8.81a3,3,0,0,0,1.49,2.71,13.57,13.57,0,0,0,4.27,1.49,23.39,23.39,0,0,0,4.13.68q.41.14.41,1.9a8.85,8.85,0,0,1-.27,2.58q-.68,0-6.37-.41t-9.22-.41q-3.53,0-8.33.34l-6.84.47a2.88,2.88,0,0,1-.54-2c0-1.63.09-2.44.27-2.44a19.59,19.59,0,0,0,5.22-1.15q3.59-1.15,4.54-2.64a64.43,64.43,0,0,0,5.15-10.57l25.21-61q3.12-8.13,5-9.76a3.46,3.46,0,0,1,2.3-.95A2.23,2.23,0,0,1,186,1.38ZM169.73,51.79q4.74.41,9.76.41,4.74,0,11.11-.41l.27-.54-10.3-27.1-11.11,27.1C169.46,51.61,169.55,51.79,169.73,51.79Z"/></svg>