<svg id="Layer_1" data-name="Layer 1" xmlns="http://www.w3.org/2000/svg" viewBox="0 0 958.87 153.84"><defs><style>.cls-1{fill:#1928eb;}</style></defs><title>pull-quote-2</title><path class="cls-1" d="M3.62,4.79A10,10,0,0,0,3.53,2c-.08-.18-.38-.37-.9-.57A4.46,4.46,0,0,0,1.45,1.1c-.09,0-.12-.17-.1-.51A1.34,1.34,0,0,1,1.46,0L3.29.21Q5,.41,5.85.47l4.25.06a1.74,1.74,0,0,1,.07.54c0,.38-.08.56-.17.56a5.41,5.41,0,0,0-1.21.19q-.91.21-1,.44a12.35,12.35,0,0,0-.44,2.9L6.6,17.61a12.39,12.39,0,0,0,.12,3q.05.24.88.54a5.13,5.13,0,0,0,1.13.32c.09,0,.12.22.09.64a1.48,1.48,0,0,1-.09.46l-4.2-.46q-.66,0-1.39-.05L1.52,22H.11a.64.64,0,0,1-.1-.47q0-.63.17-.62a5.34,5.34,0,0,0,1.26-.16q.86-.18,1-.44a11.64,11.64,0,0,0,.44-2.77Z"/><path class="cls-1" d="M14.24,10.43l-2-.12q-.23,0-.18-.87a.83.83,0,0,1,.05-.3,9.28,9.28,0,0,0,2.66-1.6q.46-.4,1-.92t1.29-1.33a2.33,2.33,0,0,1,.63.12c.2.07.29.13.29.2l-.2,3.25,2.4.16,1.64.12c.18,0,.26.12.25.31a3.24,3.24,0,0,1-.42,1.44l-4-.24-.49,8a3.15,3.15,0,0,0,.44,2.06,1.89,1.89,0,0,0,1.51.79,3.1,3.1,0,0,0,.7,0,3.56,3.56,0,0,0,.61-.15l.44-.17.24-.08c.09,0,.18.09.28.32a.78.78,0,0,1,.11.44,3.05,3.05,0,0,1-1.47,1,5.23,5.23,0,0,1-2.41.47A4.19,4.19,0,0,1,14.75,22a4.44,4.44,0,0,1-1-3.5Z"/><path class="cls-1" d="M38,19.53a12.2,12.2,0,0,0,.08,3q.05.24.87.54a4.94,4.94,0,0,0,1.11.32c.09,0,.13.17.12.49a1.89,1.89,0,0,1-.09.64c-.15,0-.74-.11-1.77-.24S36.52,24.07,36,24s-1.33,0-2.34,0-1.59,0-1.75,0a1,1,0,0,1-.09-.64c0-.33.07-.49.16-.49a4.74,4.74,0,0,0,1.21-.18q.84-.2.92-.43a10.9,10.9,0,0,0,.38-2.4l.33-5.4a3.15,3.15,0,0,0-.4-2.15,1.84,1.84,0,0,0-.73-.54,3.56,3.56,0,0,0-.78-.25c-.22,0-.33-.07-.33-.12q.06-1,.26-1a25.4,25.4,0,0,0,2.71-.23,25.77,25.77,0,0,0,2.66-.44l.27,0c.11,0,.19.09.25.25a.61.61,0,0,1,0,.37,28.23,28.23,0,0,0-.44,2.83ZM35.38,5.45A2,2,0,0,1,34.87,4,2,2,0,0,1,37,2a2,2,0,0,1,1.42.69A2,2,0,0,1,39,4.21a2,2,0,0,1-.69,1.42,2,2,0,0,1-2.92-.18Z"/><path class="cls-1" d="M48.88,10.19a14.12,14.12,0,0,1,3.81.8,19,19,0,0,1,.14,3.73c0,.18-.16.26-.45.24-.49,0-.75-.13-.78-.31a4,4,0,0,0-.86-2,2.59,2.59,0,0,0-2-.93,2.39,2.39,0,0,0-1.53.34,1.48,1.48,0,0,0-.62,1.19,1.92,1.92,0,0,0,.13.86,2.07,2.07,0,0,0,.55.75,7.83,7.83,0,0,0,.7.57q.3.22.91.59a2.16,2.16,0,0,0,.32.19l.48.3.53.33.51.35a5.69,5.69,0,0,1,.56.42l.49.43a2.63,2.63,0,0,1,.47.5l.37.54a2.16,2.16,0,0,1,.31.62,6.31,6.31,0,0,1,.14.64,3.09,3.09,0,0,1,0,.72,3.91,3.91,0,0,1-1.81,3.2,6.31,6.31,0,0,1-4,1A11.09,11.09,0,0,1,43.15,24a13.18,13.18,0,0,1-.22-1.86,16.17,16.17,0,0,1,0-1.92.71.71,0,0,1,.47-.14q.76,0,.78.31a3.66,3.66,0,0,0,1.17,2.32,3.55,3.55,0,0,0,2.22,1,2.42,2.42,0,0,0,1.55-.37A1.62,1.62,0,0,0,49.76,22a2.16,2.16,0,0,0,0-.62,1.65,1.65,0,0,0-.28-.58l-.35-.49a2.39,2.39,0,0,0-.57-.48l-.64-.42-.8-.48-.82-.5A7.71,7.71,0,0,1,44,16.49a3.55,3.55,0,0,1-.68-2.42,3.56,3.56,0,0,1,1.78-3A6.4,6.4,0,0,1,48.88,10.19Z"/><path class="cls-1" d="M69.52,21.46a12.18,12.18,0,0,0,.08,3q.05.24.87.54a4.87,4.87,0,0,0,1.11.32q.13,0,.12.49a1.89,1.89,0,0,1-.09.64q-.23,0-1.77-.24T67.58,26q-.83,0-2.34,0l-1.75,0a1,1,0,0,1-.09-.64c0-.33.07-.5.16-.49a4.83,4.83,0,0,0,1.21-.18q.84-.2.92-.43a10.85,10.85,0,0,0,.38-2.41l.33-5.4a3.16,3.16,0,0,0-.4-2.15,1.85,1.85,0,0,0-.73-.54,3.54,3.54,0,0,0-.78-.25c-.22,0-.33-.08-.33-.12q.06-1,.26-1a25.69,25.69,0,0,0,2.71-.23,26.33,26.33,0,0,0,2.66-.44l.27,0c.11,0,.19.09.25.25a.61.61,0,0,1,0,.37,28.28,28.28,0,0,0-.44,2.83ZM66.92,7.38a2,2,0,0,1-.51-1.49,2.06,2.06,0,0,1,4.11.25,2,2,0,0,1-.69,1.42,2,2,0,0,1-2.92-.18Z"/><path class="cls-1" d="M85.86,12.48a3.58,3.58,0,0,1,2.11.78A3.89,3.89,0,0,1,89.2,15a7.81,7.81,0,0,1,2.52-1.51A7.45,7.45,0,0,1,94.87,13a3.77,3.77,0,0,1,2,.66,3.67,3.67,0,0,1,1.24,1.56,7.86,7.86,0,0,1,.57,2.1,12.7,12.7,0,0,1,.07,2.42l-.21,3.48a14,14,0,0,0,0,3q.05.24.87.54a5,5,0,0,0,1.11.32c.07,0,.09.17.09.49a1.9,1.9,0,0,1-.09.64q-.23,0-1.73-.24t-2.26-.24q-.8,0-2.28,0l-1.78,0a1.24,1.24,0,0,1-.06-.64c0-.33.06-.5.13-.49a4.42,4.42,0,0,0,1.21-.18q.81-.2.89-.43a10.34,10.34,0,0,0,.37-2.31l.21-3.38q.29-4.8-2.79-5a3,3,0,0,0-1.85.42,2.07,2.07,0,0,0-.92,1c0,.07,0,.15,0,.26a.63.63,0,0,0,0,.27,16.38,16.38,0,0,1,0,2.06l-.21,3.51a13,13,0,0,0,.06,2.86q.05.24.87.54a4.82,4.82,0,0,0,1.11.32c.07,0,.09.17.09.49a1.89,1.89,0,0,1-.09.64q-.23,0-1.73-.24t-2.26-.24q-.8,0-2.28,0l-1.78,0a1.24,1.24,0,0,1-.06-.64q0-.5.13-.49a4.5,4.5,0,0,0,1.21-.18c.54-.13.84-.28.89-.43A10.85,10.85,0,0,0,85.94,23l.19-3.18a7,7,0,0,0-.53-3.79,2.53,2.53,0,0,0-2.18-1.3,3.17,3.17,0,0,0-1.86.45,1.57,1.57,0,0,0-.91,1.21l-.35,5.7a12.24,12.24,0,0,0,.08,3q.05.24.83.53A4.49,4.49,0,0,0,82.3,26q.13,0,.12.49a1.89,1.89,0,0,1-.09.64l-1.73-.24q-1.47-.19-2.23-.24t-2.33,0l-1.76,0a1,1,0,0,1-.09-.64c0-.33.07-.49.16-.49a4.83,4.83,0,0,0,1.21-.18q.84-.2.92-.43a10.91,10.91,0,0,0,.38-2.41l.33-5.4a3.15,3.15,0,0,0-.4-2.15,1.6,1.6,0,0,0-.71-.54,3.74,3.74,0,0,0-.8-.25c-.22,0-.33-.08-.33-.12,0-.64.13-1,.26-1a46,46,0,0,0,5.36-.67.21.21,0,0,1,.1,0h.17c.11,0,.19.09.25.25a.61.61,0,0,1,0,.37,11.37,11.37,0,0,0-.21,1.18c0,.09,0,.15.06.17a.47.47,0,0,0,.17-.09,7.39,7.39,0,0,1,2.12-1.27A5.8,5.8,0,0,1,85.86,12.48Z"/><path class="cls-1" d="M112.89,14.17a6.72,6.72,0,0,1,3.71,1.33,7,7,0,0,1,2.89,6.1A7.77,7.77,0,0,1,111.21,29a7.7,7.7,0,0,1-2.33-.61q-.13,0-.16.46l-.14,2.25a12,12,0,0,0,.08,3c0,.18.29.37.85.57a5.12,5.12,0,0,0,1.13.32c.07,0,.09.17.09.49a3,3,0,0,1-.05.61l-1.77-.21q-1.53-.19-2.26-.24t-2.34,0c-1,0-1.6,0-1.78,0a1.2,1.2,0,0,1-.06-.62q0-.48.13-.47a4.59,4.59,0,0,0,1.22-.17q.83-.2.94-.46a12.11,12.11,0,0,0,.34-2.37l.77-12.66a3.21,3.21,0,0,0-.4-2.19,1.49,1.49,0,0,0-.7-.53,4,4,0,0,0-.78-.23c-.22,0-.33-.08-.33-.12q.06-1,.26-1a25.55,25.55,0,0,0,5-.62l.64-.13q.13,0,.09.7a1.8,1.8,0,0,1-.09.39,6.61,6.61,0,0,1,1.52-.69A4.77,4.77,0,0,1,112.89,14.17Zm-.9,1.71a2.51,2.51,0,0,0-1.81.52,2.2,2.2,0,0,0-.78,1.65L109,24.88a2,2,0,0,0,.79,1.79,3.22,3.22,0,0,0,1.88.76,3.12,3.12,0,0,0,2.65-1.24,6.41,6.41,0,0,0,1.28-3.85,8.57,8.57,0,0,0-.79-4.52A3.27,3.27,0,0,0,112,15.88Z"/><path class="cls-1" d="M130.08,15.19a7.32,7.32,0,0,1,5.19,2.5,7.11,7.11,0,0,1,1.88,5.39,7.52,7.52,0,0,1-15-.92A7.15,7.15,0,0,1,124.62,17,7.27,7.27,0,0,1,130.08,15.19Zm-.53,1.53A2.67,2.67,0,0,0,127,18.08,7.13,7.13,0,0,0,126,21.62a9.67,9.67,0,0,0,.79,4.74,3.31,3.31,0,0,0,2.88,2.17,2.71,2.71,0,0,0,2.53-1.38,7.07,7.07,0,0,0,1.1-3.53,11.37,11.37,0,0,0-.24-3.22,5.83,5.83,0,0,0-1.24-2.55A3.08,3.08,0,0,0,129.55,16.72Z"/><path class="cls-1" d="M149.95,16.4a3.31,3.31,0,0,1,2.65,1.26q-.17,2.82-1.76,2.72a2,2,0,0,1-1.25-.74,2.08,2.08,0,0,0-1.38-.75,1.78,1.78,0,0,0-1.67.95,4.4,4.4,0,0,0-.71,2.14l-.25,4.14a14,14,0,0,0,0,3q.05.24.85.54a4.75,4.75,0,0,0,1.09.32q.1,0,.09.49a3.5,3.5,0,0,1-.06.65l-1.75-.24q-1.49-.19-2.25-.24t-2.31,0l-1.78,0a1,1,0,0,1-.09-.64c0-.33.07-.49.16-.49a4.62,4.62,0,0,0,1.23-.17q.83-.2.91-.43a10.85,10.85,0,0,0,.38-2.41l.33-5.4a3.15,3.15,0,0,0-.4-2.15,1.59,1.59,0,0,0-.71-.54,3.82,3.82,0,0,0-.78-.25c-.21,0-.31-.07-.31-.12q.06-1,.23-1a47,47,0,0,0,5.4-.67l.27-.05c.09,0,.16.09.22.25a.8.8,0,0,1,.06.39l-.08.46q-.05.31-.12.66a4.06,4.06,0,0,0-.08.44A6.09,6.09,0,0,1,147.81,17,3.63,3.63,0,0,1,149.95,16.4Z"/><path class="cls-1" d="M157.12,19.17l-2-.12c-.15,0-.21-.3-.18-.88a.82.82,0,0,1,.05-.3,9.29,9.29,0,0,0,2.66-1.6l1-.92q.55-.51,1.3-1.33a2.33,2.33,0,0,1,.63.12c.19.07.29.13.29.2l-.2,3.25,2.4.16,1.64.12c.18,0,.26.12.25.31a3.23,3.23,0,0,1-.42,1.44l-4-.24-.49,8a3.15,3.15,0,0,0,.44,2.06,1.89,1.89,0,0,0,1.51.79,3.1,3.1,0,0,0,.7,0,3.58,3.58,0,0,0,.61-.15l.44-.17.24-.08c.09,0,.18.09.28.32a.78.78,0,0,1,.11.44,3,3,0,0,1-1.47,1,5.22,5.22,0,0,1-2.41.47,4.19,4.19,0,0,1-2.87-1.29,4.45,4.45,0,0,1-1-3.5Z"/><path class="cls-1" d="M174.74,17.92a4.08,4.08,0,0,1,3,1.27,5.31,5.31,0,0,1,.8,3.76l-.4,6.53a1.51,1.51,0,0,0,.24,1,1,1,0,0,0,.77.4,2.06,2.06,0,0,0,1.15-.36c.13.05.19.18.18.38a2,2,0,0,1-.26,1,8.28,8.28,0,0,1-1.38.75,3.46,3.46,0,0,1-1.62.33,2.43,2.43,0,0,1-1.46-.65A2.72,2.72,0,0,1,174.9,31l-.26.2c-.15.11-.36.25-.62.41a9.86,9.86,0,0,1-.89.48,5.27,5.27,0,0,1-1.15.38,4.78,4.78,0,0,1-1.32.1A4,4,0,0,1,168,31.53a3.15,3.15,0,0,1-.89-2.57,3.05,3.05,0,0,1,.47-1.47,3.94,3.94,0,0,1,1-1.09,6.78,6.78,0,0,1,1.48-.79,13.67,13.67,0,0,1,1.58-.55l1.69-.41,1.43-.34a.52.52,0,0,0,.33-.51l.11-1.82a2.86,2.86,0,0,0-.42-1.86,1.73,1.73,0,0,0-1.38-.75,2,2,0,0,0-1.59.52,2.47,2.47,0,0,0-.67,1.71,1.08,1.08,0,0,1-.56.95,2.07,2.07,0,0,1-1.15.25,1.87,1.87,0,0,1-1.67-.9q.1-1.59,2.35-2.85A8.32,8.32,0,0,1,174.74,17.92Zm-2.27,12.63a2.57,2.57,0,0,0,1.57-.37,1.31,1.31,0,0,0,.71-1l.21-3.38q-.24.08-1,.27t-1.17.33a9.14,9.14,0,0,0-1,.41,2,2,0,0,0-.82.68,1.83,1.83,0,0,0-.3.91,2,2,0,0,0,.44,1.59A1.91,1.91,0,0,0,172.47,30.56Z"/><path class="cls-1" d="M194.45,19.13q4.28.26,3.86,7.05l-.19,3.15a13.88,13.88,0,0,0,0,3c0,.16.33.34.88.54a5.08,5.08,0,0,0,1.13.32c.07,0,.09.17.09.49a1.88,1.88,0,0,1-.09.64q-.2,0-1.73-.24t-2.3-.24q-.8,0-2.21,0l-1.71,0a1,1,0,0,1-.09-.64c0-.33.07-.49.16-.49a3.93,3.93,0,0,0,1.13-.18c.51-.14.79-.28.84-.43a9.53,9.53,0,0,0,.41-2.4l.19-3.15a7.22,7.22,0,0,0-.51-3.89,2.67,2.67,0,0,0-2.3-1.24,3.08,3.08,0,0,0-1.89.47,1.6,1.6,0,0,0-.87,1.19l-.35,5.7a14,14,0,0,0,0,3q.05.24.85.53a4.75,4.75,0,0,0,1.06.31c.09,0,.13.17.12.49a1.89,1.89,0,0,1-.09.64l-1.73-.24q-1.47-.19-2.23-.24t-2.31,0l-1.78,0a1,1,0,0,1-.09-.64c0-.33.07-.5.16-.49a4.62,4.62,0,0,0,1.23-.17q.83-.2.91-.43a10.86,10.86,0,0,0,.38-2.41l.33-5.4a3.15,3.15,0,0,0-.4-2.15,1.6,1.6,0,0,0-.71-.54,3.75,3.75,0,0,0-.78-.25c-.21,0-.31-.07-.31-.12,0-.64.11-1,.23-1a47.27,47.27,0,0,0,5.4-.67l.09,0h.18c.09,0,.16.09.22.25a1,1,0,0,1,.08.37,11.54,11.54,0,0,0-.2,1.18.26.26,0,0,0,0,.17.47.47,0,0,0,.17-.09,7.39,7.39,0,0,1,2.12-1.27A5.8,5.8,0,0,1,194.45,19.13Z"/><path class="cls-1" d="M205.59,22.14l-2-.12c-.16,0-.21-.3-.18-.88a.82.82,0,0,1,.05-.3,9.29,9.29,0,0,0,2.66-1.6l1-.92q.55-.52,1.3-1.33a2.37,2.37,0,0,1,.63.12c.2.07.29.13.29.2l-.2,3.25,2.4.16,1.64.12c.18,0,.26.12.25.31a3.24,3.24,0,0,1-.42,1.44l-4-.24-.49,8a3.15,3.15,0,0,0,.44,2.06,1.9,1.9,0,0,0,1.51.79,3.16,3.16,0,0,0,.7,0,3.57,3.57,0,0,0,.61-.15l.44-.17.24-.09c.09,0,.18.09.28.32a.79.79,0,0,1,.11.44,3,3,0,0,1-1.48,1A5.24,5.24,0,0,1,209,35a4.19,4.19,0,0,1-2.87-1.29,4.45,4.45,0,0,1-1-3.5Z"/><path class="cls-1" d="M225.82,23.38l-2-.12c-.16,0-.21-.3-.18-.88a.84.84,0,0,1,0-.3,9.29,9.29,0,0,0,2.66-1.6l1-.92q.54-.52,1.29-1.33a2.32,2.32,0,0,1,.63.12c.2.07.29.13.29.2l-.2,3.25,2.4.16,1.64.12c.18,0,.26.12.25.31a3.23,3.23,0,0,1-.42,1.44l-4-.24-.49,8a3.15,3.15,0,0,0,.44,2.06,1.9,1.9,0,0,0,1.51.79,3.1,3.1,0,0,0,.7,0,3.48,3.48,0,0,0,.61-.14l.44-.17.24-.08c.09,0,.18.09.28.32a.78.78,0,0,1,.11.44,3.05,3.05,0,0,1-1.47,1,5.23,5.23,0,0,1-2.41.47,4.19,4.19,0,0,1-2.87-1.29,4.44,4.44,0,0,1-1-3.5Z"/><path class="cls-1" d="M244,22.16a7.32,7.32,0,0,1,5.19,2.5A7.12,7.12,0,0,1,251,30a7.52,7.52,0,0,1-15-.92A7.15,7.15,0,0,1,238.52,24,7.27,7.27,0,0,1,244,22.16Zm-.53,1.53A2.67,2.67,0,0,0,240.94,25a7.13,7.13,0,0,0-1.08,3.54,9.66,9.66,0,0,0,.79,4.74,3.31,3.31,0,0,0,2.88,2.17,2.71,2.71,0,0,0,2.53-1.37,7.07,7.07,0,0,0,1.1-3.53,11.4,11.4,0,0,0-.24-3.22,5.85,5.85,0,0,0-1.24-2.55A3.08,3.08,0,0,0,243.45,23.69Z"/><path class="cls-1" d="M268.87,23.68a4.08,4.08,0,0,1,3,1.27,5.31,5.31,0,0,1,.8,3.76l-.4,6.53a1.51,1.51,0,0,0,.24,1,1,1,0,0,0,.77.4,2.07,2.07,0,0,0,1.15-.36c.13.05.19.18.18.38a2,2,0,0,1-.26,1,8.24,8.24,0,0,1-1.38.75,3.46,3.46,0,0,1-1.62.33,2.42,2.42,0,0,1-1.46-.65A2.73,2.73,0,0,1,269,36.8l-.26.2c-.15.11-.36.25-.62.41a10.11,10.11,0,0,1-.89.48,5.32,5.32,0,0,1-1.15.38,4.86,4.86,0,0,1-1.32.1,4,4,0,0,1-2.65-1.08,3.16,3.16,0,0,1-.89-2.57,3.06,3.06,0,0,1,.47-1.47,3.94,3.94,0,0,1,1-1.09,6.7,6.7,0,0,1,1.48-.79,13.89,13.89,0,0,1,1.58-.55l1.69-.41,1.43-.34a.52.52,0,0,0,.33-.51l.11-1.82a2.86,2.86,0,0,0-.42-1.86,1.73,1.73,0,0,0-1.38-.75,2,2,0,0,0-1.6.52,2.48,2.48,0,0,0-.67,1.71,1.08,1.08,0,0,1-.56.95,2.06,2.06,0,0,1-1.15.25,1.87,1.87,0,0,1-1.67-.9q.1-1.59,2.35-2.85A8.34,8.34,0,0,1,268.87,23.68ZM266.6,36.32a2.58,2.58,0,0,0,1.57-.37,1.31,1.31,0,0,0,.71-1l.21-3.38c-.16.06-.49.15-1,.27s-.9.23-1.17.33a8.94,8.94,0,0,0-1,.41,2,2,0,0,0-.82.68,1.83,1.83,0,0,0-.3.91,2,2,0,0,0,.44,1.59A1.91,1.91,0,0,0,266.6,36.32Z"/><path class="cls-1" d="M284.86,24.66a8,8,0,0,1,3.1.77,5.31,5.31,0,0,1,1.89,1.4,4.09,4.09,0,0,1-.5,1.85,1.22,1.22,0,0,1-1.19.68,1.49,1.49,0,0,1-1-.39,3.77,3.77,0,0,1-.71-1.14,2.41,2.41,0,0,0-2.13-1.66,2.56,2.56,0,0,0-2.36,1.3A7.1,7.1,0,0,0,280.91,31a6.73,6.73,0,0,0,1,4.5,3.91,3.91,0,0,0,3,1.63,9.11,9.11,0,0,0,1,0,4.79,4.79,0,0,0,.87-.11l.71-.17a2.87,2.87,0,0,0,.63-.26l.46-.25.69-.41a.54.54,0,0,1,.15.21.65.65,0,0,1,.08.34,1,1,0,0,1-.24.62,5.41,5.41,0,0,1-2.07,1.67,6.1,6.1,0,0,1-3.3.7A6.72,6.72,0,0,1,279,37a7.33,7.33,0,0,1-1.75-5.4,7.55,7.55,0,0,1,2.31-5.1A6.69,6.69,0,0,1,284.86,24.66Z"/><path class="cls-1" d="M306.72,28.23q-.69.36-2.2,1.36a23.61,23.61,0,0,0-2.78,2.16q.9,1.09,2.26,2.83t2.25,2.87a15.77,15.77,0,0,0,1.24,1.44,4.19,4.19,0,0,0,1.24.74,4,4,0,0,0,1.09.33c.09,0,.12.2.1.57a2,2,0,0,1-.06.46l-3.87-.4c-.42,0-.84,0-1.28,0H302a.9.9,0,0,1-.1-.61c0-.31.07-.46.16-.46a2.4,2.4,0,0,0,.77-.1c.29-.08.44-.18.45-.29s0-.07,0-.07l-4.51-5.7-.4.08-.13,2.05a13.56,13.56,0,0,0,.08,3q.05.24.87.54a4.87,4.87,0,0,0,1.14.32c.07,0,.09.17.09.49a1.89,1.89,0,0,1-.09.64q-.23,0-1.75-.24T296.32,40q-.8,0-2.31,0l-1.78,0a1,1,0,0,1-.09-.64c0-.33.07-.49.16-.49a4.61,4.61,0,0,0,1.22-.17q.83-.2.91-.43a10.9,10.9,0,0,0,.38-2.41l.84-13.75a13.18,13.18,0,0,0,0-2.26c-.09-.36-.65-.57-1.69-.63l-.3,0c-.13,0-.19-.19-.17-.54s.1-.53.23-.52q1,0,2-.15t1.56-.24q.62-.13,1.08-.27l1-.27h.07c.09,0,.17.07.25.2a.92.92,0,0,1,.14.36,10.69,10.69,0,0,0-.59,3.09l-.68,11.07a3,3,0,0,0,1-.3q.73-.59,1.59-1.22l1.24-.91q.38-.28.77-.6a2.89,2.89,0,0,0,.51-.52.79.79,0,0,0,.14-.39c0-.24-.22-.41-.72-.49a3.36,3.36,0,0,1-.74-.16,1.47,1.47,0,0,1-.06-.59c0-.23.07-.36.16-.37l3.21.2q.9.05,3.52.08a.52.52,0,0,1,.14.38,1.49,1.49,0,0,1,0,.5q-.06.23-.16.22A4.36,4.36,0,0,0,306.72,28.23Z"/><path class="cls-1" d="M324.44,27.08q4.27.26,3.86,7.06l-.19,3.15a13.89,13.89,0,0,0,0,3c0,.16.33.34.88.54a5.19,5.19,0,0,0,1.13.32c.07,0,.09.17.09.49a1.89,1.89,0,0,1-.09.64q-.2,0-1.73-.24t-2.3-.24q-.8,0-2.21,0l-1.71,0a1,1,0,0,1-.09-.64c0-.33.07-.49.16-.49a4,4,0,0,0,1.13-.18q.76-.2.84-.43a9.56,9.56,0,0,0,.41-2.4l.19-3.15a7.21,7.21,0,0,0-.51-3.89,2.67,2.67,0,0,0-2.3-1.24,3.07,3.07,0,0,0-1.89.47,1.6,1.6,0,0,0-.87,1.19l-.35,5.7a13.89,13.89,0,0,0,0,3q.05.24.85.53a4.75,4.75,0,0,0,1.06.31c.09,0,.13.17.12.49a1.89,1.89,0,0,1-.09.64l-1.73-.24q-1.47-.19-2.23-.24t-2.31,0l-1.78,0a1,1,0,0,1-.09-.64c0-.33.07-.49.16-.49a4.65,4.65,0,0,0,1.23-.17q.83-.2.91-.43a10.85,10.85,0,0,0,.38-2.41l.33-5.4a3.16,3.16,0,0,0-.4-2.15,1.61,1.61,0,0,0-.72-.54,3.87,3.87,0,0,0-.78-.25c-.21,0-.31-.07-.31-.12q.06-1,.23-1a46.83,46.83,0,0,0,5.4-.67l.09,0h.18c.09,0,.16.09.22.25a1,1,0,0,1,.08.37,11.37,11.37,0,0,0-.21,1.19.26.26,0,0,0,0,.17.49.49,0,0,0,.17-.09,7.35,7.35,0,0,1,2.12-1.27A5.81,5.81,0,0,1,324.44,27.08Z"/><path class="cls-1" d="M341.3,28.11a7.32,7.32,0,0,1,5.19,2.5A7.11,7.11,0,0,1,348.37,36a7.52,7.52,0,0,1-15-.92,7.15,7.15,0,0,1,2.49-5.14A7.27,7.27,0,0,1,341.3,28.11Zm-.53,1.53A2.67,2.67,0,0,0,338.26,31a7.14,7.14,0,0,0-1.08,3.54,9.67,9.67,0,0,0,.79,4.74,3.31,3.31,0,0,0,2.88,2.17,2.71,2.71,0,0,0,2.53-1.37,7.07,7.07,0,0,0,1.1-3.53,11.37,11.37,0,0,0-.24-3.22A5.84,5.84,0,0,0,343,30.78,3.08,3.08,0,0,0,340.77,29.64Z"/><path class="cls-1" d="M372.08,32.52a1,1,0,0,0-.22-.7,1.48,1.48,0,0,0-.66-.44,6.25,6.25,0,0,0-.75-.21,4.79,4.79,0,0,0-.68-.09h-.13c-.09,0-.13-.17-.12-.51s0-.53.12-.59q.43,0,1.75.21t2.12.23q.7,0,1.78,0t1.58,0a2.1,2.1,0,0,1,0,.57c0,.33-.08.49-.16.49a3.76,3.76,0,0,0-1.33.33,2,2,0,0,0-1.21.94l-5.62,11.4a1.32,1.32,0,0,1-.48.45,1.14,1.14,0,0,1-.66.18.42.42,0,0,1-.42-.26l-3.48-9.39-4.08,8.43a1.82,1.82,0,0,1-.41.44,1,1,0,0,1-.73.22.49.49,0,0,1-.45-.26q-.66-1.77-1.55-4.3t-1.64-4.47Q353.94,33.24,353,31a1.53,1.53,0,0,0-.82-.72,3.23,3.23,0,0,0-1-.3q-.13,0-.1-.54c0-.31.08-.49.17-.56s.78.08,1.67.2,1.59.2,2.1.23,1.26,0,2.26,0h1.73a1.84,1.84,0,0,1,0,.6c0,.29-.06.44-.13.46a3.94,3.94,0,0,0-1.16.16q-.73.19-.76.65s.95,2.65,2.85,7.83q.42-.91,1-2.05l.84-1.75.57-1.21q.29-.61.41-.92a1.8,1.8,0,0,0,.12-.41,2.42,2.42,0,0,0-.35-1.35,1.59,1.59,0,0,0-.7-.58,2.66,2.66,0,0,0-1.18-.27c-.09,0-.12-.17-.1-.49s.08-.51.17-.57.79.08,1.63.2,1.54.19,2.07.23,1.21,0,2.16,0,1.52,0,1.7,0a1.62,1.62,0,0,1,0,.62c0,.32-.08.48-.15.47q-1.69-.1-1.76,1.06,0,.63,2.67,7.55.62-1.36,1.51-3.18t1.31-2.71A4.38,4.38,0,0,0,372.08,32.52Z"/><path class="cls-1" d="M384.48,40.67a13.66,13.66,0,0,0,0,3q.05.24.78.56a3.61,3.61,0,0,0,1,.34c.07,0,.1.16.09.47a1.81,1.81,0,0,1-.09.63l-1.24-.16-1.4-.17c-.42,0-.82-.08-1.19-.11s-.84,0-1.26,0h-2.66a.93.93,0,0,1-.1-.62c0-.32.07-.48.16-.47a3.54,3.54,0,0,0,1.13-.21q.76-.23.84-.46A11,11,0,0,0,381,41l.84-13.79a11.73,11.73,0,0,0-.06-2.27q-.13-.54-1.62-.63l-.33,0c-.13,0-.19-.14-.17-.41s.1-.53.23-.52q1,0,2-.15t1.56-.24q.62-.13,1.08-.25l.73-.21.24-.08h.07c.09,0,.18.08.27.22A1,1,0,0,1,386,23a10.49,10.49,0,0,0-.59,3.09Z"/><path class="cls-1" d="M396.73,31.5a6.16,6.16,0,0,1,2.75.78A5.25,5.25,0,0,1,401.31,34a7.66,7.66,0,0,1,.94,2,5.71,5.71,0,0,1,.25,2c0,.49-.13.79-.3.9a1.88,1.88,0,0,1-1,.12l-7.92-.48q-.23,0-.24.18a6.43,6.43,0,0,0,.29,2.35,4.56,4.56,0,0,0,1.35,2,3.91,3.91,0,0,0,2.45,1,8.86,8.86,0,0,0,1,0,4.91,4.91,0,0,0,.87-.11l.71-.17a2.85,2.85,0,0,0,.63-.26l.46-.25.69-.41a.54.54,0,0,1,.15.21.64.64,0,0,1,.08.34,1,1,0,0,1-.24.62,5.41,5.41,0,0,1-2.06,1.67,6.16,6.16,0,0,1-3.34.69,6.72,6.72,0,0,1-4.84-2.44,7.15,7.15,0,0,1-1.77-5.31,7.68,7.68,0,0,1,2.27-5.32A6.44,6.44,0,0,1,396.73,31.5ZM396.41,33a2.34,2.34,0,0,0-1.45.38,3.12,3.12,0,0,0-1,1.07,6.4,6.4,0,0,0-.56,1.21,4.06,4.06,0,0,0-.21,1c0,.16.05.24.18.25l5.37.33c.2,0,.31-.15.33-.48a4.3,4.3,0,0,0-.63-2.4A2.38,2.38,0,0,0,396.41,33Z"/><path class="cls-1" d="M412.7,32.42a5.72,5.72,0,0,1,2.39.61c.11,0,.18-.17.2-.52l.19-3.12a11.57,11.57,0,0,0-.06-2.27c-.09-.36-.65-.57-1.69-.63l-.27,0c-.13,0-.19-.19-.17-.54s.1-.53.23-.52q1,0,2-.15t1.58-.24q.62-.13,1.08-.27l.69-.21.27-.07h.07c.09,0,.17.07.25.2a.6.6,0,0,1,.11.36,12.69,12.69,0,0,0-.52,3.09l-.89,14.58a12.13,12.13,0,0,0,0,2.46.49.49,0,0,0,.31.38,2,2,0,0,0,.62.2l.63.09.33,0a.7.7,0,0,1,0,.4c0,.44-.11.66-.24.65-.31,0-.71,0-1.19.06l-1.4.13L416,47.3l-1.39.2c-.13,0-.19-.2-.17-.58l0-.56a.15.15,0,0,0,0-.14s-.06,0-.08,0a5.55,5.55,0,0,1-3.52,1A6.43,6.43,0,0,1,406.24,45a6.7,6.7,0,0,1-1.68-5.08,7.78,7.78,0,0,1,2.61-5.48A7.27,7.27,0,0,1,412.7,32.42ZM412.3,34a2.9,2.9,0,0,0-2.74,1.33,7.77,7.77,0,0,0-1.14,4,8,8,0,0,0,.76,4.45A3.26,3.26,0,0,0,412,45.48a2.76,2.76,0,0,0,1.86-.47,1.84,1.84,0,0,0,.79-1.43l.43-7a2.3,2.3,0,0,0-.07-.7,3.08,3.08,0,0,0-.35-.8,2.12,2.12,0,0,0-.85-.75A3.53,3.53,0,0,0,412.3,34Z"/><path class="cls-1" d="M429.65,33.59a10.52,10.52,0,0,1,2.72.6,10.23,10.23,0,0,0,2.63.59l1.89.12s.11.15.21.45a2,2,0,0,1,.13.67q0,.46-.23.45l-2.15-.13c-.09,0-.13,0-.14.09s.08.32.25.88a4.69,4.69,0,0,1,.2,1.61,4.8,4.8,0,0,1-1.86,3.43,5.69,5.69,0,0,1-4.19,1.32,13.71,13.71,0,0,1-2-.26,1.79,1.79,0,0,0-.77.57,1.41,1.41,0,0,0-.38.79.68.68,0,0,0,.28.58,2.22,2.22,0,0,0,1,.39c.44.09.81.16,1.12.2l1.32.15.5,0a11.71,11.71,0,0,1,4.8,1.21,2.61,2.61,0,0,1,1.39,2.53A5.22,5.22,0,0,1,433.62,54a9.07,9.07,0,0,1-5.71,1.48,8.64,8.64,0,0,1-4.17-1.19,3,3,0,0,1-1.64-2.83,2.58,2.58,0,0,1,1.06-1.8,5.48,5.48,0,0,1,2.12-1.13,3.79,3.79,0,0,1-1.53-1.11,2.42,2.42,0,0,1-.62-1.78q.09-1.43,2.63-2.8A4.39,4.39,0,0,1,424.07,41a4.88,4.88,0,0,1-.66-2.75,4.48,4.48,0,0,1,2-3.61A6.6,6.6,0,0,1,429.65,33.59Zm3.51,17.61q.07-1.16-1.58-1.64a21.07,21.07,0,0,0-4.47-.66l-.17,0-.17.09c-.29.09-.52.17-.68.24a2.85,2.85,0,0,0-.55.33,1.62,1.62,0,0,0-.48.55,2,2,0,0,0-.2.79A2.32,2.32,0,0,0,426,53a5.17,5.17,0,0,0,2.77,1,5,5,0,0,0,3.08-.68A2.59,2.59,0,0,0,433.16,51.2Zm-6.33-13a5.26,5.26,0,0,0,.5,2.77,2.07,2.07,0,0,0,1.79,1.22A2,2,0,0,0,431,41.4a4.41,4.41,0,0,0,.72-2.3,5.45,5.45,0,0,0-.49-2.89A2.12,2.12,0,0,0,429.36,35a1.87,1.87,0,0,0-1.82.92A4.81,4.81,0,0,0,426.83,38.24Z"/><path class="cls-1" d="M446.77,34.57a6.14,6.14,0,0,1,2.75.78A5.27,5.27,0,0,1,451.35,37a7.72,7.72,0,0,1,.94,2,5.73,5.73,0,0,1,.25,2c0,.49-.13.79-.3.9a1.89,1.89,0,0,1-1,.12l-7.92-.48c-.16,0-.24.05-.24.18a6.45,6.45,0,0,0,.29,2.35,4.57,4.57,0,0,0,1.35,2,3.91,3.91,0,0,0,2.45,1,9.12,9.12,0,0,0,1,0A5,5,0,0,0,449,47l.71-.17a2.88,2.88,0,0,0,.63-.26l.46-.25.69-.41a.55.55,0,0,1,.15.21.64.64,0,0,1,.08.34,1,1,0,0,1-.24.62,5.41,5.41,0,0,1-2.06,1.67,6.16,6.16,0,0,1-3.34.69A6.72,6.72,0,0,1,441.22,47a7.16,7.16,0,0,1-1.77-5.31,7.68,7.68,0,0,1,2.27-5.32A6.44,6.44,0,0,1,446.77,34.57Zm-.33,1.51a2.35,2.35,0,0,0-1.45.38,3.12,3.12,0,0,0-1,1.07,6.22,6.22,0,0,0-.56,1.21,4,4,0,0,0-.21,1c0,.15.05.24.18.24l5.37.33c.2,0,.31-.15.33-.48a4.3,4.3,0,0,0-.63-2.4A2.38,2.38,0,0,0,446.45,36.08Z"/><path class="cls-1" d="M456.5,50.4a2.93,2.93,0,0,0-.41-1.41,3,3,0,0,1-.41-1.47,2,2,0,0,1,.78-1.35,2.47,2.47,0,0,1,1.86-.58,2.16,2.16,0,0,1,1,.26,5.16,5.16,0,0,1,.32,2.35,5.94,5.94,0,0,1-.36,1.57,9.55,9.55,0,0,1-1.61,3,14.91,14.91,0,0,1-3,2.53h0c-.11,0-.26-.13-.44-.38a1,1,0,0,1-.26-.6,4.66,4.66,0,0,1,.6-.5,6.08,6.08,0,0,0,1.21-1.37A4,4,0,0,0,456.5,50.4Z"/><path class="cls-1" d="M481.8,36.71q4.24.26,3.84,6.79l-.21,3.41a12.2,12.2,0,0,0,.08,3c0,.16.3.33.85.53a5.13,5.13,0,0,0,1.13.32c.07,0,.09.17.09.49a3.5,3.5,0,0,1-.06.65q-.23,0-1.77-.24t-2.26-.24q-.83,0-2.24,0l-1.75,0a1.25,1.25,0,0,1-.06-.63q0-.5.13-.49a4,4,0,0,0,1.16-.18q.76-.2.88-.43a12.62,12.62,0,0,0,.35-2.41l.2-3.25a6.93,6.93,0,0,0-.51-3.84A2.72,2.72,0,0,0,479.33,39a3.18,3.18,0,0,0-1.86.45,1.57,1.57,0,0,0-.91,1.21l-.35,5.7a12.17,12.17,0,0,0,.08,3q.05.24.85.54a4.75,4.75,0,0,0,1.09.32c.07,0,.09.17.09.49a1.89,1.89,0,0,1-.09.64l-1.73-.24q-1.47-.19-2.23-.24t-2.31,0l-1.78,0a1,1,0,0,1-.09-.64c0-.33.07-.49.16-.49a4.61,4.61,0,0,0,1.23-.17q.83-.2.91-.43a10.63,10.63,0,0,0,.38-2.37l.84-13.79a13.07,13.07,0,0,0,0-2.26q-.13-.54-1.69-.64l-.3,0q-.2,0-.17-.54t.23-.52q1,0,2-.15t1.56-.24c.42-.09.78-.17,1.08-.27l1-.27h.07q.13,0,.25.2a.91.91,0,0,1,.14.36,10.72,10.72,0,0,0-.59,3.09l-.41,6.69c0,.13,0,.2.12.21s.07,0,.14-.09a6.33,6.33,0,0,1,2.13-1.32A6.12,6.12,0,0,1,481.8,36.71Z"/><path class="cls-1" d="M498.45,37.73a7.32,7.32,0,0,1,5.19,2.5,7.12,7.12,0,0,1,1.88,5.39,7.52,7.52,0,0,1-15-.92A7.15,7.15,0,0,1,493,39.56,7.27,7.27,0,0,1,498.45,37.73Zm-.53,1.53a2.67,2.67,0,0,0-2.51,1.36,7.14,7.14,0,0,0-1.08,3.54,9.67,9.67,0,0,0,.79,4.74A3.31,3.31,0,0,0,498,51.07a2.71,2.71,0,0,0,2.53-1.38,7.07,7.07,0,0,0,1.1-3.53,11.4,11.4,0,0,0-.24-3.22,5.85,5.85,0,0,0-1.24-2.55A3.08,3.08,0,0,0,497.93,39.26Z"/><path class="cls-1" d="M519.45,39q4.27.26,3.86,7.06l-.19,3.15a13.9,13.9,0,0,0,0,3q.05.24.88.54a5.07,5.07,0,0,0,1.13.32c.07,0,.09.17.09.49a1.89,1.89,0,0,1-.09.64q-.2,0-1.73-.24t-2.3-.24q-.8,0-2.21,0l-1.71,0a1,1,0,0,1-.09-.64c0-.33.07-.49.16-.49a3.91,3.91,0,0,0,1.13-.18q.76-.2.84-.43a9.58,9.58,0,0,0,.41-2.4l.19-3.15a7.2,7.2,0,0,0-.51-3.89A2.67,2.67,0,0,0,517,41.3a3.07,3.07,0,0,0-1.89.47,1.6,1.6,0,0,0-.87,1.19l-.35,5.7a13.89,13.89,0,0,0,0,3q.05.24.85.53a4.8,4.8,0,0,0,1.06.31c.09,0,.13.17.12.49a1.89,1.89,0,0,1-.09.64l-1.73-.24q-1.47-.19-2.23-.24t-2.31,0l-1.78,0a1,1,0,0,1-.09-.64c0-.33.07-.5.16-.49a4.65,4.65,0,0,0,1.23-.17q.83-.2.91-.43a10.85,10.85,0,0,0,.38-2.41l.33-5.4a3.16,3.16,0,0,0-.4-2.15,1.61,1.61,0,0,0-.72-.54,3.81,3.81,0,0,0-.78-.25c-.21,0-.31-.07-.31-.12q.06-1,.23-1a47,47,0,0,0,5.4-.67l.09,0h.18c.09,0,.16.09.22.25a1,1,0,0,1,.08.37,11.32,11.32,0,0,0-.21,1.18.26.26,0,0,0,0,.17.46.46,0,0,0,.17-.09,7.36,7.36,0,0,1,2.13-1.27A5.8,5.8,0,0,1,519.45,39Z"/><path class="cls-1" d="M536.31,40a7.32,7.32,0,0,1,5.19,2.5,7.12,7.12,0,0,1,1.88,5.39,7.52,7.52,0,0,1-15-.92,7.15,7.15,0,0,1,2.49-5.14A7.27,7.27,0,0,1,536.31,40Zm-.53,1.53a2.67,2.67,0,0,0-2.51,1.36,7.14,7.14,0,0,0-1.08,3.54,9.67,9.67,0,0,0,.79,4.74,3.31,3.31,0,0,0,2.88,2.17A2.71,2.71,0,0,0,538.38,52a7.06,7.06,0,0,0,1.1-3.53,11.37,11.37,0,0,0-.24-3.22A5.84,5.84,0,0,0,538,42.71,3.08,3.08,0,0,0,535.78,41.58Z"/><path class="cls-1" d="M556.18,41.26a3.31,3.31,0,0,1,2.65,1.26q-.17,2.82-1.76,2.72a2,2,0,0,1-1.25-.74,2.07,2.07,0,0,0-1.38-.75,1.78,1.78,0,0,0-1.67.95,4.4,4.4,0,0,0-.71,2.14L551.79,51a14,14,0,0,0,0,3q.05.24.85.53a4.76,4.76,0,0,0,1.09.32c.07,0,.09.17.09.49a3.5,3.5,0,0,1-.06.65l-1.75-.24q-1.49-.19-2.25-.24t-2.31,0l-1.78,0a1,1,0,0,1-.09-.64c0-.33.07-.49.16-.49a4.64,4.64,0,0,0,1.22-.17q.83-.2.91-.43a10.89,10.89,0,0,0,.38-2.4l.33-5.4a3.15,3.15,0,0,0-.4-2.15,1.6,1.6,0,0,0-.71-.54,3.81,3.81,0,0,0-.78-.25c-.21,0-.31-.07-.31-.12q.06-1,.23-1a47,47,0,0,0,5.4-.67l.27,0c.09,0,.16.09.22.25a.8.8,0,0,1,.06.39l-.08.46q-.05.31-.12.66a4.27,4.27,0,0,0-.08.45A6.08,6.08,0,0,1,554,41.85,3.64,3.64,0,0,1,556.18,41.26Z"/><path class="cls-1" d="M562.79,56.9a2.94,2.94,0,0,0-.41-1.41A3,3,0,0,1,562,54a2,2,0,0,1,.78-1.35,2.47,2.47,0,0,1,1.86-.58,2.17,2.17,0,0,1,1,.26A5.18,5.18,0,0,1,566,54.7a5.94,5.94,0,0,1-.36,1.57,9.57,9.57,0,0,1-1.61,3,14.87,14.87,0,0,1-3,2.53h0c-.11,0-.26-.13-.44-.38a1,1,0,0,1-.26-.6,4.76,4.76,0,0,1,.6-.5,6.06,6.06,0,0,0,1.21-1.37A4,4,0,0,0,562.79,56.9Z"/><path class="cls-1" d="M584.21,43a4.08,4.08,0,0,1,3,1.27A5.31,5.31,0,0,1,588,48l-.4,6.53a1.51,1.51,0,0,0,.24,1,1,1,0,0,0,.77.4,2.06,2.06,0,0,0,1.15-.36c.13.05.19.18.18.38a2,2,0,0,1-.26,1,8.33,8.33,0,0,1-1.38.75,3.46,3.46,0,0,1-1.62.33,2.42,2.42,0,0,1-1.46-.65,2.72,2.72,0,0,1-.89-1.29l-.26.2c-.15.11-.36.25-.62.41a9.75,9.75,0,0,1-.89.48,5.23,5.23,0,0,1-1.15.38,4.77,4.77,0,0,1-1.32.1,4,4,0,0,1-2.65-1.08,3.15,3.15,0,0,1-.89-2.57,3.06,3.06,0,0,1,.47-1.47,3.94,3.94,0,0,1,1-1.09,6.78,6.78,0,0,1,1.48-.79,13.67,13.67,0,0,1,1.58-.55l1.69-.41,1.43-.34a.52.52,0,0,0,.33-.51l.11-1.82a2.86,2.86,0,0,0-.42-1.86,1.73,1.73,0,0,0-1.39-.75,2,2,0,0,0-1.59.52,2.48,2.48,0,0,0-.67,1.71,1.08,1.08,0,0,1-.56.95,2.07,2.07,0,0,1-1.15.25,1.87,1.87,0,0,1-1.67-.9q.1-1.59,2.35-2.85A8.32,8.32,0,0,1,584.21,43Zm-2.27,12.63a2.57,2.57,0,0,0,1.57-.37,1.31,1.31,0,0,0,.71-1l.21-3.38q-.24.08-1,.27t-1.17.33a9.24,9.24,0,0,0-1,.41,2,2,0,0,0-.82.68,1.83,1.83,0,0,0-.31.91,2,2,0,0,0,.44,1.59A1.92,1.92,0,0,0,581.94,55.61Z"/><path class="cls-1" d="M603.91,44.18q4.28.26,3.86,7.05l-.19,3.15a14,14,0,0,0,0,3c0,.16.33.34.88.54a5.08,5.08,0,0,0,1.13.32c.07,0,.09.17.09.49a1.88,1.88,0,0,1-.09.64q-.2,0-1.73-.24t-2.3-.24q-.8,0-2.21,0l-1.71,0a1,1,0,0,1-.09-.64c0-.33.07-.49.16-.49a3.94,3.94,0,0,0,1.13-.18c.51-.14.79-.28.84-.43a9.54,9.54,0,0,0,.41-2.4l.19-3.15a7.22,7.22,0,0,0-.51-3.89,2.67,2.67,0,0,0-2.3-1.24,3.08,3.08,0,0,0-1.89.47,1.6,1.6,0,0,0-.87,1.19l-.35,5.7a13.9,13.9,0,0,0,0,3q.05.24.85.53a4.76,4.76,0,0,0,1.06.31q.13,0,.12.49a1.89,1.89,0,0,1-.09.64l-1.73-.24q-1.47-.19-2.23-.24t-2.31,0l-1.78,0a1,1,0,0,1-.09-.64c0-.33.07-.5.16-.49a4.61,4.61,0,0,0,1.22-.17q.83-.2.91-.43a10.91,10.91,0,0,0,.38-2.41l.33-5.4a3.16,3.16,0,0,0-.4-2.15,1.6,1.6,0,0,0-.71-.54,3.76,3.76,0,0,0-.78-.25c-.21,0-.31-.07-.31-.12,0-.64.11-1,.23-1a47.28,47.28,0,0,0,5.4-.67l.09,0h.18c.09,0,.16.09.22.25a1,1,0,0,1,.08.37,11.37,11.37,0,0,0-.21,1.18.26.26,0,0,0,0,.17.47.47,0,0,0,.17-.09,7.39,7.39,0,0,1,2.12-1.27A5.8,5.8,0,0,1,603.91,44.18Z"/><path class="cls-1" d="M620.74,45.15a5.7,5.7,0,0,1,2.39.61q.17,0,.2-.52l.19-3.12a11.56,11.56,0,0,0-.06-2.27q-.13-.54-1.69-.64l-.27,0c-.13,0-.19-.19-.17-.54s.1-.53.23-.52q1,0,2-.15t1.58-.24q.62-.13,1.08-.27l.69-.21.27-.07h.07c.09,0,.17.07.25.2a.6.6,0,0,1,.11.36,12.69,12.69,0,0,0-.52,3.09l-.89,14.58a12.05,12.05,0,0,0,0,2.46.49.49,0,0,0,.31.38,2,2,0,0,0,.62.21l.63.09.33,0a.69.69,0,0,1,0,.4q0,.66-.24.65c-.31,0-.71,0-1.19.06l-1.4.13L624,60l-1.39.2c-.13,0-.19-.2-.17-.58l0-.56a.15.15,0,0,0,0-.14s-.06,0-.08,0a5.55,5.55,0,0,1-3.52,1,6.43,6.43,0,0,1-4.55-2.26,6.7,6.7,0,0,1-1.68-5.08,7.78,7.78,0,0,1,2.61-5.48A7.27,7.27,0,0,1,620.74,45.15Zm-.4,1.57A2.9,2.9,0,0,0,617.6,48a7.78,7.78,0,0,0-1.14,4,8,8,0,0,0,.76,4.45A3.26,3.26,0,0,0,620,58.21a2.76,2.76,0,0,0,1.86-.47,1.84,1.84,0,0,0,.79-1.43l.43-7a2.3,2.3,0,0,0-.07-.7,3.05,3.05,0,0,0-.35-.8,2.12,2.12,0,0,0-.85-.75A3.55,3.55,0,0,0,620.34,46.72Z"/><path class="cls-1" d="M644.54,46.63a14.12,14.12,0,0,1,3.81.8,18.9,18.9,0,0,1,.14,3.73q0,.27-.45.24-.73,0-.78-.31a4,4,0,0,0-.86-2,2.6,2.6,0,0,0-2-.93,2.39,2.39,0,0,0-1.53.34,1.47,1.47,0,0,0-.62,1.19,1.92,1.92,0,0,0,.13.86,2.06,2.06,0,0,0,.55.75,8,8,0,0,0,.7.58q.3.22.91.59a2.2,2.2,0,0,0,.32.19l.48.29.53.33.51.35A6,6,0,0,1,647,54l.49.43a2.65,2.65,0,0,1,.47.5l.37.54a2.14,2.14,0,0,1,.31.62,6.56,6.56,0,0,1,.14.64,3.08,3.08,0,0,1,0,.72,3.91,3.91,0,0,1-1.81,3.2,6.3,6.3,0,0,1-4,1,11.1,11.1,0,0,1-4.22-1.19,13,13,0,0,1-.22-1.86,16.33,16.33,0,0,1,0-1.92.7.7,0,0,1,.47-.14c.51,0,.77.14.78.31A3.66,3.66,0,0,0,641,59.14a3.53,3.53,0,0,0,2.22,1,2.42,2.42,0,0,0,1.55-.37,1.62,1.62,0,0,0,.68-1.32,2.18,2.18,0,0,0,0-.62,1.63,1.63,0,0,0-.28-.58l-.35-.49a2.44,2.44,0,0,0-.57-.48l-.64-.42-.8-.48-.82-.5a7.7,7.7,0,0,1-2.24-1.92,3.84,3.84,0,0,1,1.1-5.44A6.39,6.39,0,0,1,644.54,46.63Z"/><path class="cls-1" d="M663,47.79q4.24.26,3.84,6.79L666.59,58a12.17,12.17,0,0,0,.08,3q0,.23.85.54a5.17,5.17,0,0,0,1.13.32c.07,0,.09.17.09.49a3.5,3.5,0,0,1-.06.65q-.23,0-1.76-.24t-2.26-.24q-.83-.05-2.24,0l-1.75,0a1.24,1.24,0,0,1-.06-.64c0-.33.06-.5.13-.49a4,4,0,0,0,1.16-.18q.76-.2.87-.43a12.54,12.54,0,0,0,.35-2.41l.2-3.25a6.93,6.93,0,0,0-.51-3.84,2.71,2.71,0,0,0-2.31-1.19,3.18,3.18,0,0,0-1.86.45,1.57,1.57,0,0,0-.91,1.21l-.35,5.7a12.24,12.24,0,0,0,.08,3q.05.24.85.53a4.66,4.66,0,0,0,1.09.32c.07,0,.09.17.09.49a1.89,1.89,0,0,1-.09.64l-1.73-.24q-1.47-.19-2.23-.24t-2.31,0l-1.78,0a1,1,0,0,1-.09-.64c0-.33.07-.5.16-.49a4.65,4.65,0,0,0,1.22-.17q.83-.2.91-.43a10.69,10.69,0,0,0,.38-2.37L654.77,44a13.17,13.17,0,0,0,0-2.26q-.13-.54-1.69-.64l-.3,0c-.13,0-.19-.19-.17-.54s.1-.53.23-.52q1,0,2-.15t1.56-.24q.62-.13,1.08-.27l1-.27h.07c.09,0,.17.07.25.2a.93.93,0,0,1,.14.36,10.68,10.68,0,0,0-.59,3.09l-.41,6.7c0,.13,0,.2.12.21s.07,0,.14-.09a6.31,6.31,0,0,1,2.13-1.32A6.11,6.11,0,0,1,663,47.79Z"/><path class="cls-1" d="M679.08,48.78a4.08,4.08,0,0,1,3,1.27,5.31,5.31,0,0,1,.8,3.76l-.4,6.53a1.51,1.51,0,0,0,.24,1,1,1,0,0,0,.77.4,2.07,2.07,0,0,0,1.15-.36c.13.05.19.18.18.38a2,2,0,0,1-.26,1,8.28,8.28,0,0,1-1.38.75,3.47,3.47,0,0,1-1.62.33,2.42,2.42,0,0,1-1.46-.66,2.72,2.72,0,0,1-.89-1.29l-.26.2q-.23.17-.62.41a9.73,9.73,0,0,1-.89.48,5.32,5.32,0,0,1-1.15.38,4.81,4.81,0,0,1-1.32.1,4,4,0,0,1-2.64-1.08,3.16,3.16,0,0,1-.89-2.57,3.06,3.06,0,0,1,.47-1.47,4,4,0,0,1,1-1.09,6.81,6.81,0,0,1,1.48-.79,13.86,13.86,0,0,1,1.58-.55q.66-.18,1.69-.41l1.44-.34a.52.52,0,0,0,.33-.51l.11-1.82a2.86,2.86,0,0,0-.42-1.85,1.73,1.73,0,0,0-1.38-.75,2,2,0,0,0-1.59.52,2.47,2.47,0,0,0-.67,1.71,1.08,1.08,0,0,1-.56.95,2.07,2.07,0,0,1-1.15.25,1.87,1.87,0,0,1-1.67-.9q.1-1.59,2.35-2.85A8.34,8.34,0,0,1,679.08,48.78Zm-2.27,12.64a2.58,2.58,0,0,0,1.57-.37,1.31,1.31,0,0,0,.71-1l.21-3.38q-.24.08-1,.27t-1.17.33a9,9,0,0,0-1,.41,2,2,0,0,0-.82.68,1.84,1.84,0,0,0-.3.91,2,2,0,0,0,.44,1.59A1.91,1.91,0,0,0,676.81,61.42Z"/><path class="cls-1" d="M697.66,49.92a3.31,3.31,0,0,1,2.65,1.26q-.17,2.82-1.76,2.72a2,2,0,0,1-1.25-.74,2.08,2.08,0,0,0-1.38-.75,1.78,1.78,0,0,0-1.67.95,4.42,4.42,0,0,0-.71,2.14l-.25,4.14a13.88,13.88,0,0,0,0,3q0,.24.85.54a4.75,4.75,0,0,0,1.09.32c.07,0,.09.17.09.49a3.5,3.5,0,0,1-.06.65l-1.75-.24q-1.49-.19-2.25-.24t-2.31,0l-1.78,0a1,1,0,0,1-.09-.64c0-.33.07-.49.16-.49a4.61,4.61,0,0,0,1.23-.17q.83-.2.91-.43a10.84,10.84,0,0,0,.38-2.41l.33-5.4a3.16,3.16,0,0,0-.4-2.15,1.61,1.61,0,0,0-.72-.54,3.82,3.82,0,0,0-.78-.25c-.21,0-.31-.07-.31-.12q.06-1,.23-1a47,47,0,0,0,5.4-.67l.27-.05c.09,0,.16.09.22.25a.8.8,0,0,1,.06.39l-.08.46q-.05.31-.12.66a4.1,4.1,0,0,0-.08.44,6.09,6.09,0,0,1,1.72-1.51A3.63,3.63,0,0,1,697.66,49.92Z"/><path class="cls-1" d="M709.84,50.66a6.17,6.17,0,0,1,2.75.78,5.26,5.26,0,0,1,1.83,1.67,7.66,7.66,0,0,1,.94,2,5.71,5.71,0,0,1,.25,2c0,.49-.13.79-.3.9a1.89,1.89,0,0,1-1,.12l-7.92-.48q-.23,0-.24.18a6.43,6.43,0,0,0,.29,2.35,4.55,4.55,0,0,0,1.35,2,3.91,3.91,0,0,0,2.45,1,9.11,9.11,0,0,0,1,0,4.91,4.91,0,0,0,.87-.11l.71-.17a2.8,2.8,0,0,0,.63-.26l.46-.25.69-.41a.56.56,0,0,1,.15.21.64.64,0,0,1,.08.34,1,1,0,0,1-.24.62,5.41,5.41,0,0,1-2.06,1.67,6.16,6.16,0,0,1-3.34.69,6.72,6.72,0,0,1-4.84-2.44,7.15,7.15,0,0,1-1.77-5.31,7.68,7.68,0,0,1,2.27-5.32A6.44,6.44,0,0,1,709.84,50.66Zm-.33,1.51a2.34,2.34,0,0,0-1.45.38,3.12,3.12,0,0,0-1,1.07,6.4,6.4,0,0,0-.56,1.21,4.08,4.08,0,0,0-.21,1c0,.15.05.24.18.24l5.37.33q.3,0,.33-.48a4.3,4.3,0,0,0-.63-2.4A2.38,2.38,0,0,0,709.51,52.17Z"/><path class="cls-1" d="M733.61,52.12a7.32,7.32,0,0,1,5.19,2.5A7.12,7.12,0,0,1,740.68,60a7.52,7.52,0,0,1-15-.92,7.16,7.16,0,0,1,2.49-5.14A7.27,7.27,0,0,1,733.61,52.12Zm-.53,1.53A2.67,2.67,0,0,0,730.57,55a7.15,7.15,0,0,0-1.08,3.54,9.67,9.67,0,0,0,.79,4.74,3.31,3.31,0,0,0,2.88,2.17,2.71,2.71,0,0,0,2.53-1.37,7.07,7.07,0,0,0,1.1-3.53,11.4,11.4,0,0,0-.24-3.22,5.84,5.84,0,0,0-1.24-2.55A3.07,3.07,0,0,0,733.08,53.65Z"/><path class="cls-1" d="M758,57.21l-.4,6.56a7.38,7.38,0,0,0,.12,2.34.69.69,0,0,0,.37.29,2.5,2.5,0,0,0,.57.17,4.69,4.69,0,0,0,.54.07.62.62,0,0,1,.28.05c.09,0,.13.13.11.31a2.43,2.43,0,0,1-.09.44c-.06.21-.13.31-.22.3a7.6,7.6,0,0,0-1.18,0l-1.39.15-1.28.17-1.34.18q-.23,0-.2-.54l.09-1.46c0-.11,0-.17-.09-.17a7.43,7.43,0,0,1-2.11,1.37,5.56,5.56,0,0,1-2.66.5,3.48,3.48,0,0,1-1.94-.68A4,4,0,0,1,746,65.75a7.14,7.14,0,0,1-.58-2,10.06,10.06,0,0,1-.09-2.1l.23-3.71a3.16,3.16,0,0,0-.4-2.15,1.85,1.85,0,0,0-.73-.54,3.5,3.5,0,0,0-.78-.25c-.22,0-.33-.08-.33-.12q.06-1,.23-1a25.08,25.08,0,0,0,2.74-.23,26.1,26.1,0,0,0,2.66-.44l.13,0,.13,0c.11,0,.19.09.23.25a1.18,1.18,0,0,1,.06.37,29.28,29.28,0,0,0-.48,2.9l-.24,4a7.11,7.11,0,0,0,.5,3.76,2.93,2.93,0,0,0,4.11.73,1.77,1.77,0,0,0,.8-1.2l.33-5.47a3.15,3.15,0,0,0-.4-2.15,1.6,1.6,0,0,0-.71-.54,3.74,3.74,0,0,0-.8-.25q-.33-.05-.33-.12.06-1,.26-1a25.67,25.67,0,0,0,2.71-.23,26.28,26.28,0,0,0,2.66-.44l.27,0c.11,0,.19.09.25.25a.61.61,0,0,1,0,.37Q758.07,56.61,758,57.21Z"/><path class="cls-1" d="M772.72,54.51a3.31,3.31,0,0,1,2.65,1.26q-.17,2.82-1.76,2.72a2,2,0,0,1-1.25-.74A2.07,2.07,0,0,0,771,57a1.78,1.78,0,0,0-1.67.95,4.42,4.42,0,0,0-.71,2.14l-.25,4.14a13.89,13.89,0,0,0,0,3q.05.24.85.53a4.76,4.76,0,0,0,1.09.32c.07,0,.09.17.09.49a3.5,3.5,0,0,1-.06.65L768.61,69q-1.49-.19-2.25-.24t-2.31,0l-1.78,0a1,1,0,0,1-.09-.64q0-.5.16-.49a4.64,4.64,0,0,0,1.23-.17q.83-.2.91-.43a10.83,10.83,0,0,0,.38-2.4l.33-5.4a3.16,3.16,0,0,0-.4-2.15,1.61,1.61,0,0,0-.72-.54,3.79,3.79,0,0,0-.78-.25c-.21,0-.31-.07-.31-.12,0-.64.11-1,.23-1a47,47,0,0,0,5.4-.67l.27,0c.09,0,.16.09.22.25a.8.8,0,0,1,.06.39l-.08.46q-.05.31-.12.66a4.1,4.1,0,0,0-.08.45,6.09,6.09,0,0,1,1.72-1.51A3.64,3.64,0,0,1,772.72,54.51Z"/><path class="cls-1" d="M104.43,52.45a6.15,6.15,0,0,1,2.72.88,5.26,5.26,0,0,1,1.77,1.74,7.74,7.74,0,0,1,.87,2.05,5.72,5.72,0,0,1,.18,2q-.07.73-.33.89a1.89,1.89,0,0,1-1,.09l-7.9-.75c-.15,0-.24,0-.25.18a6.45,6.45,0,0,0,.21,2.36A4.57,4.57,0,0,0,102,63.92,3.91,3.91,0,0,0,104.37,65a9.28,9.28,0,0,0,1,0,4.93,4.93,0,0,0,.88-.08l.71-.15a2.84,2.84,0,0,0,.64-.24l.47-.24.7-.38a.53.53,0,0,1,.15.21.64.64,0,0,1,.07.34,1,1,0,0,1-.26.61,5.41,5.41,0,0,1-2.12,1.6,6.16,6.16,0,0,1-3.36.58,6.72,6.72,0,0,1-4.75-2.6,7.16,7.16,0,0,1-1.59-5.37,7.69,7.69,0,0,1,2.45-5.24A6.44,6.44,0,0,1,104.43,52.45Zm-.38,1.5a2.35,2.35,0,0,0-1.47.33,3.12,3.12,0,0,0-1.07,1,6.32,6.32,0,0,0-.6,1.19,4,4,0,0,0-.24,1c0,.15,0,.24.18.25l5.35.51c.2,0,.31-.14.34-.47a4.3,4.3,0,0,0-.55-2.42A2.38,2.38,0,0,0,104.05,54Z"/><path class="cls-1" d="M113,53.94a1,1,0,0,1,.18-.52l3.88.57,4,.18a1.16,1.16,0,0,1,0,.47q-.06.59-.19.58a2.53,2.53,0,0,0-.94.09c-.32.09-.49.25-.51.47a.73.73,0,0,0,.13.41l1.8,3.14,1-1.14q.75-.83,1.11-1.3a1.63,1.63,0,0,0,.39-.73.44.44,0,0,0-.25-.41,1.63,1.63,0,0,0-.58-.24l-.66-.11a1.07,1.07,0,0,1-.37-.08c-.09,0-.12-.19-.08-.54a.76.76,0,0,1,.18-.52l3.82.56,3.46.13a1.91,1.91,0,0,1,0,.54q0,.53-.12.52a4.57,4.57,0,0,0-3,.78l-3.89,3.77a.59.59,0,0,0-.09.26.44.44,0,0,0,.1.34l3.25,5.48a3.86,3.86,0,0,0,2.59,1.88c.07,0,.08.2,0,.57a.89.89,0,0,1-.18.48l-1.2-.21-1.28-.22q-.58-.09-1.24-.15T123,68.9l-1.42,0-1.35,0a2.85,2.85,0,0,1,0-.44q.07-.69.17-.68a2.27,2.27,0,0,0,1-.14c.34-.12.53-.29.55-.51a.53.53,0,0,0,0-.21l-2.07-3.53L117.46,66a1,1,0,0,0-.29.57.48.48,0,0,0,.08.34.81.81,0,0,0,.36.25,3.66,3.66,0,0,0,.44.16l.55.14.44.09q.1,0,0,.57a.84.84,0,0,1-.19.55l-1.16-.21-1.23-.22q-.56-.09-1.19-.15t-1.19-.08l-1.27,0h-1.2a2.28,2.28,0,0,1,0-.57c0-.37.1-.56.19-.55a4.46,4.46,0,0,0,3-1l3.95-4a.59.59,0,0,0,.09-.26.41.41,0,0,0-.08-.24l-3.31-5.52a2.79,2.79,0,0,0-1.08-1,3.52,3.52,0,0,0-1.32-.48C113,54.5,113,54.31,113,53.94Z"/><path class="cls-1" d="M141.48,56a6.72,6.72,0,0,1,3.66,1.45,7,7,0,0,1,2.68,6.19,7.77,7.77,0,0,1-8.51,7.13,7.7,7.7,0,0,1-2.3-.69c-.09,0-.15.14-.18.45l-.21,2.25a12,12,0,0,0,0,3q0,.27.83.6a5.08,5.08,0,0,0,1.12.36c.07,0,.09.17.07.49a3,3,0,0,1-.08.61l-1.76-.27q-1.53-.25-2.26-.31t-2.34-.12q-1.51,0-1.78-.07a1.2,1.2,0,0,1,0-.62c0-.32.08-.48.14-.47a4.62,4.62,0,0,0,1.23-.13c.55-.11.88-.26,1-.43a11.94,11.94,0,0,0,.42-2.36l1.2-12.63a3.22,3.22,0,0,0-.32-2.2,1.49,1.49,0,0,0-.68-.55,4,4,0,0,0-.78-.26c-.22,0-.33-.09-.32-.13.06-.64.16-1,.29-1a25.57,25.57,0,0,0,5-.46l.64-.11c.09,0,.11.24.07.71a1.84,1.84,0,0,1-.1.39,6.6,6.6,0,0,1,1.54-.64A4.78,4.78,0,0,1,141.48,56Zm-1,1.68a2.51,2.51,0,0,0-1.83.46,2.2,2.2,0,0,0-.84,1.62l-.65,6.81a2,2,0,0,0,.73,1.82,3.24,3.24,0,0,0,1.86.83,3.12,3.12,0,0,0,2.69-1.15,6.42,6.42,0,0,0,1.41-3.8,8.58,8.58,0,0,0-.63-4.55A3.27,3.27,0,0,0,140.52,57.69Z"/><path class="cls-1" d="M157.93,57.54a6.15,6.15,0,0,1,2.72.88,5.28,5.28,0,0,1,1.77,1.74,7.74,7.74,0,0,1,.87,2.05,5.71,5.71,0,0,1,.18,2q-.07.73-.33.89a1.89,1.89,0,0,1-1,.09l-7.9-.75c-.16,0-.24,0-.25.18a6.44,6.44,0,0,0,.21,2.35A4.56,4.56,0,0,0,155.46,69a3.91,3.91,0,0,0,2.42,1.06,9,9,0,0,0,1,0,5,5,0,0,0,.88-.08l.71-.15a2.84,2.84,0,0,0,.64-.24l.47-.24.7-.38a.54.54,0,0,1,.15.21.64.64,0,0,1,.07.34,1,1,0,0,1-.26.61,5.43,5.43,0,0,1-2.12,1.6,6.16,6.16,0,0,1-3.36.58,6.72,6.72,0,0,1-4.75-2.6,7.16,7.16,0,0,1-1.59-5.37,7.69,7.69,0,0,1,2.45-5.24A6.43,6.43,0,0,1,157.93,57.54Zm-.38,1.5a2.34,2.34,0,0,0-1.47.33,3.13,3.13,0,0,0-1.07,1,6.35,6.35,0,0,0-.6,1.19,4,4,0,0,0-.24,1c0,.15,0,.24.18.25l5.35.51c.2,0,.31-.14.34-.47a4.3,4.3,0,0,0-.55-2.42A2.38,2.38,0,0,0,157.56,59Z"/><path class="cls-1" d="M176.1,59.27a3.31,3.31,0,0,1,2.61,1.35q-.27,2.81-1.85,2.66a2,2,0,0,1-1.23-.78,2.08,2.08,0,0,0-1.36-.8,1.78,1.78,0,0,0-1.7.89,4.41,4.41,0,0,0-.78,2.11l-.39,4.13a13.87,13.87,0,0,0-.05,3q0,.24.83.56a4.68,4.68,0,0,0,1.08.35c.07,0,.09.17.07.49a3.7,3.7,0,0,1-.08.64l-1.74-.3q-1.48-.24-2.24-.31T167,73.14l-1.78,0a1,1,0,0,1-.07-.64q0-.5.18-.48a4.6,4.6,0,0,0,1.23-.13c.56-.11.86-.25.92-.4a11,11,0,0,0,.46-2.39l.51-5.39a3.16,3.16,0,0,0-.33-2.17,1.6,1.6,0,0,0-.7-.57,3.8,3.8,0,0,0-.77-.27c-.21,0-.31-.08-.31-.13q.09-1,.26-1a47.12,47.12,0,0,0,5.42-.49l.27,0c.09,0,.16.09.21.25a.79.79,0,0,1,0,.39l-.09.46q-.06.31-.14.65a4.39,4.39,0,0,0-.09.44A6.09,6.09,0,0,1,174,59.78,3.65,3.65,0,0,1,176.1,59.27Z"/><path class="cls-1" d="M186.42,70.25a12.12,12.12,0,0,0,0,3q0,.24.85.56a4.85,4.85,0,0,0,1.1.35q.13,0,.1.49a1.91,1.91,0,0,1-.11.64q-.23-.06-1.76-.3c-1-.16-1.77-.27-2.25-.31S183,74.6,182,74.57s-1.59,0-1.75,0a1,1,0,0,1-.07-.64q0-.5.18-.48a4.78,4.78,0,0,0,1.21-.13q.85-.17.94-.39a11,11,0,0,0,.46-2.39l.51-5.39a3.16,3.16,0,0,0-.33-2.17,1.84,1.84,0,0,0-.71-.57,3.5,3.5,0,0,0-.77-.27c-.22,0-.33-.09-.32-.13q.09-1,.29-1a25.54,25.54,0,0,0,2.71-.14A26.14,26.14,0,0,0,187,60.5l.27,0c.11,0,.19.1.24.26a.61.61,0,0,1,0,.37,28.28,28.28,0,0,0-.54,2.82Zm-2.12-14.16a2,2,0,0,1-.46-1.51,2,2,0,0,1,.73-1.38A2.06,2.06,0,0,1,187.94,55a2,2,0,0,1-.73,1.4,2,2,0,0,1-2.91-.28Z"/><path class="cls-1" d="M199,61.45a6.15,6.15,0,0,1,2.72.88,5.25,5.25,0,0,1,1.77,1.74,7.75,7.75,0,0,1,.87,2,5.75,5.75,0,0,1,.18,2q-.07.73-.33.89a1.89,1.89,0,0,1-1,.09l-7.9-.75c-.15,0-.24,0-.25.18a6.47,6.47,0,0,0,.21,2.36,4.58,4.58,0,0,0,1.29,2.09A3.91,3.91,0,0,0,199,74a9,9,0,0,0,1,0,4.83,4.83,0,0,0,.88-.08l.71-.15a2.84,2.84,0,0,0,.64-.24l.47-.24.7-.38a.54.54,0,0,1,.15.21.65.65,0,0,1,.07.34,1,1,0,0,1-.26.61,5.39,5.39,0,0,1-2.12,1.6,6.16,6.16,0,0,1-3.36.58,6.73,6.73,0,0,1-4.75-2.6,7.16,7.16,0,0,1-1.59-5.37,7.69,7.69,0,0,1,2.45-5.24A6.44,6.44,0,0,1,199,61.45Zm-.38,1.5a2.35,2.35,0,0,0-1.46.33,3.12,3.12,0,0,0-1.07,1,6.32,6.32,0,0,0-.6,1.19,4,4,0,0,0-.24,1c0,.15,0,.24.18.25l5.35.51c.2,0,.31-.14.34-.47a4.31,4.31,0,0,0-.55-2.42A2.38,2.38,0,0,0,198.64,62.94Z"/><path class="cls-1" d="M218.3,63.28q4.26.41,3.62,7.18l-.3,3.14a13.88,13.88,0,0,0-.05,3q0,.24.86.57a5.07,5.07,0,0,0,1.12.36c.07,0,.09.17.07.49a1.9,1.9,0,0,1-.11.64q-.19-.05-1.72-.3T219.5,78q-.79-.08-2.21-.11l-1.71,0a1,1,0,0,1-.07-.64c0-.33.09-.49.18-.48a3.93,3.93,0,0,0,1.13-.14c.51-.12.8-.25.86-.4a9.6,9.6,0,0,0,.49-2.39l.3-3.14a7.21,7.21,0,0,0-.38-3.9,2.67,2.67,0,0,0-2.26-1.32,3.07,3.07,0,0,0-1.91.4A1.59,1.59,0,0,0,213,67l-.54,5.69a13.81,13.81,0,0,0-.05,3q0,.24.83.56a4.79,4.79,0,0,0,1.05.35c.09,0,.12.17.1.49a1.9,1.9,0,0,1-.11.64l-1.72-.3q-1.46-.24-2.22-.31T208,77l-1.78,0a1,1,0,0,1-.07-.64q0-.5.18-.48a4.62,4.62,0,0,0,1.23-.13q.83-.17.92-.4A11,11,0,0,0,209,73l.51-5.39a3.16,3.16,0,0,0-.33-2.17,1.61,1.61,0,0,0-.7-.57,3.83,3.83,0,0,0-.77-.27c-.21,0-.31-.08-.31-.13q.09-1,.26-1a47,47,0,0,0,5.42-.49l.09,0h.18c.09,0,.16.09.21.25a1,1,0,0,1,.06.37,11.4,11.4,0,0,0-.25,1.18.26.26,0,0,0,0,.17.52.52,0,0,0,.17-.08,7.35,7.35,0,0,1,2.17-1.2A5.8,5.8,0,0,1,218.3,63.28Z"/><path class="cls-1" d="M234.75,64.84a8,8,0,0,1,3.07.88,5.3,5.3,0,0,1,1.85,1.46,4.1,4.1,0,0,1-.56,1.83,1.23,1.23,0,0,1-1.21.64,1.49,1.49,0,0,1-1-.43,3.76,3.76,0,0,1-.67-1.16,2.4,2.4,0,0,0-2.07-1.73,2.56,2.56,0,0,0-2.4,1.22,7.1,7.1,0,0,0-1.19,3.54,6.73,6.73,0,0,0,.8,4.53,3.91,3.91,0,0,0,3,1.73,9,9,0,0,0,1,0,4.93,4.93,0,0,0,.88-.08l.71-.15a2.84,2.84,0,0,0,.64-.24l.47-.24.7-.38a.54.54,0,0,1,.15.21.64.64,0,0,1,.07.34,1,1,0,0,1-.26.61,5.43,5.43,0,0,1-2.12,1.6,6.1,6.1,0,0,1-3.32.58,6.71,6.71,0,0,1-4.8-2.62,7.33,7.33,0,0,1-1.57-5.45,7.54,7.54,0,0,1,2.48-5A6.69,6.69,0,0,1,234.75,64.84Z"/><path class="cls-1" d="M249.65,66.26a6.15,6.15,0,0,1,2.72.88,5.27,5.27,0,0,1,1.77,1.74,7.77,7.77,0,0,1,.87,2.05,5.71,5.71,0,0,1,.18,2q-.07.73-.33.89a1.89,1.89,0,0,1-1,.09l-7.9-.75c-.15,0-.24,0-.25.18a6.46,6.46,0,0,0,.21,2.35,4.57,4.57,0,0,0,1.29,2.09,3.91,3.91,0,0,0,2.42,1.06,9,9,0,0,0,1,0,5,5,0,0,0,.88-.08l.71-.15a2.84,2.84,0,0,0,.64-.24l.47-.24.7-.38a.56.56,0,0,1,.15.21.64.64,0,0,1,.07.34,1,1,0,0,1-.26.61,5.43,5.43,0,0,1-2.12,1.6,6.17,6.17,0,0,1-3.36.58,6.72,6.72,0,0,1-4.75-2.6,7.16,7.16,0,0,1-1.59-5.37,7.69,7.69,0,0,1,2.45-5.24A6.44,6.44,0,0,1,249.65,66.26Zm-.38,1.5a2.35,2.35,0,0,0-1.46.33,3.13,3.13,0,0,0-1.07,1,6.25,6.25,0,0,0-.6,1.19,4,4,0,0,0-.24,1c0,.15,0,.24.18.25l5.36.51q.3,0,.34-.47a4.31,4.31,0,0,0-.55-2.42A2.38,2.38,0,0,0,249.27,67.76Z"/><path class="cls-1" d="M272.82,68.46a4.08,4.08,0,0,1,3,1.37,5.31,5.31,0,0,1,.67,3.78l-.62,6.51a1.52,1.52,0,0,0,.2,1,1,1,0,0,0,.76.42,2.07,2.07,0,0,0,1.17-.32c.13.06.18.18.16.38a2,2,0,0,1-.29,1,8.18,8.18,0,0,1-1.4.7,3.47,3.47,0,0,1-1.63.28,2.42,2.42,0,0,1-1.43-.7,2.72,2.72,0,0,1-.84-1.31l-.27.19c-.16.11-.37.24-.64.39a10,10,0,0,1-.91.45,5.31,5.31,0,0,1-1.17.34,4.78,4.78,0,0,1-1.32.06,4,4,0,0,1-2.61-1.16,3.16,3.16,0,0,1-.8-2.59,3.08,3.08,0,0,1,.52-1.45,4,4,0,0,1,1-1.05,6.76,6.76,0,0,1,1.5-.74,13.84,13.84,0,0,1,1.6-.5l1.7-.36,1.45-.29a.52.52,0,0,0,.35-.5l.17-1.82a2.86,2.86,0,0,0-.36-1.87,1.73,1.73,0,0,0-1.36-.8,2,2,0,0,0-1.61.46,2.48,2.48,0,0,0-.73,1.68,1.07,1.07,0,0,1-.59.93,2.05,2.05,0,0,1-1.15.21,1.87,1.87,0,0,1-1.64-1q.15-1.59,2.45-2.77A8.33,8.33,0,0,1,272.82,68.46ZM270.13,81a2.57,2.57,0,0,0,1.58-.32,1.31,1.31,0,0,0,.75-1l.32-3.37c-.16.05-.5.13-1,.24s-.9.2-1.18.29a9.2,9.2,0,0,0-1,.38,2,2,0,0,0-.84.65,1.82,1.82,0,0,0-.34.9,2,2,0,0,0,.38,1.6A1.91,1.91,0,0,0,270.13,81Z"/><path class="cls-1" d="M287.06,69.78a14.11,14.11,0,0,1,3.78.93,18.91,18.91,0,0,1,0,3.74c0,.18-.17.25-.46.22-.49,0-.74-.16-.77-.34a4,4,0,0,0-.79-2.06,2.59,2.59,0,0,0-1.92-1,2.39,2.39,0,0,0-1.54.29,1.47,1.47,0,0,0-.66,1.17,1.94,1.94,0,0,0,.1.86,2.06,2.06,0,0,0,.53.77,8.09,8.09,0,0,0,.68.6c.2.15.49.36.89.62a2,2,0,0,0,.31.2l.47.31.52.35.5.36a5.93,5.93,0,0,1,.54.44l.47.45a2.62,2.62,0,0,1,.45.51l.35.55a2.14,2.14,0,0,1,.29.63,6,6,0,0,1,.12.65,3.1,3.1,0,0,1,0,.72A3.92,3.92,0,0,1,289,83.86a6.3,6.3,0,0,1-4,.84,11.09,11.09,0,0,1-4.18-1.33,13.27,13.27,0,0,1-.16-1.87,15.93,15.93,0,0,1,0-1.92.71.71,0,0,1,.48-.12q.76.07.77.34a3.67,3.67,0,0,0,1.09,2.35,3.53,3.53,0,0,0,2.18,1.06,2.41,2.41,0,0,0,1.56-.32,1.62,1.62,0,0,0,.72-1.3,2.27,2.27,0,0,0,0-.62,1.65,1.65,0,0,0-.26-.59l-.34-.5a2.41,2.41,0,0,0-.55-.5l-.62-.44-.79-.51-.8-.53a7.73,7.73,0,0,1-2.18-2,3.84,3.84,0,0,1,1.28-5.4A6.4,6.4,0,0,1,287.06,69.78Z"/><path class="cls-1" d="M309.31,71.93a4.08,4.08,0,0,1,3,1.37,5.32,5.32,0,0,1,.67,3.78l-.62,6.51a1.51,1.51,0,0,0,.2,1,1,1,0,0,0,.76.42,2.07,2.07,0,0,0,1.17-.32q.19.08.16.38a2,2,0,0,1-.29,1,8.33,8.33,0,0,1-1.4.7,3.47,3.47,0,0,1-1.63.28,2.42,2.42,0,0,1-1.43-.7A2.72,2.72,0,0,1,309,85l-.27.19c-.16.11-.37.24-.64.39a9.91,9.91,0,0,1-.91.45,5.29,5.29,0,0,1-1.17.34,4.82,4.82,0,0,1-1.32.06,4,4,0,0,1-2.61-1.16,3.16,3.16,0,0,1-.8-2.6,3.07,3.07,0,0,1,.52-1.45,4,4,0,0,1,1-1.05,6.84,6.84,0,0,1,1.5-.74A14,14,0,0,1,306,79l1.7-.36,1.45-.3a.52.52,0,0,0,.35-.5l.17-1.82a2.86,2.86,0,0,0-.36-1.87,1.73,1.73,0,0,0-1.36-.8,2,2,0,0,0-1.61.46,2.48,2.48,0,0,0-.73,1.68,1.07,1.07,0,0,1-.59.93,2.06,2.06,0,0,1-1.15.21,1.87,1.87,0,0,1-1.64-1q.15-1.58,2.45-2.77A8.33,8.33,0,0,1,309.31,71.93Zm-2.69,12.55a2.57,2.57,0,0,0,1.58-.32,1.31,1.31,0,0,0,.75-1l.32-3.37c-.16.05-.5.13-1,.24s-.9.2-1.18.29a9.28,9.28,0,0,0-1,.38,2,2,0,0,0-.85.65,1.83,1.83,0,0,0-.34.9,2,2,0,0,0,.38,1.6A1.9,1.9,0,0,0,306.62,84.48Z"/><path class="cls-1" d="M333,74.18a8,8,0,0,1,3.07.88,5.29,5.29,0,0,1,1.85,1.46,4.11,4.11,0,0,1-.56,1.83,1.22,1.22,0,0,1-1.21.63,1.48,1.48,0,0,1-1-.43,3.77,3.77,0,0,1-.67-1.16,2.4,2.4,0,0,0-2.07-1.73,2.55,2.55,0,0,0-2.4,1.22,7.09,7.09,0,0,0-1.19,3.54,6.72,6.72,0,0,0,.8,4.53,3.92,3.92,0,0,0,3,1.73,9,9,0,0,0,1,0,4.92,4.92,0,0,0,.88-.08l.71-.15a2.84,2.84,0,0,0,.64-.24l.47-.24.7-.38a.53.53,0,0,1,.15.21.64.64,0,0,1,.07.34,1,1,0,0,1-.26.61,5.42,5.42,0,0,1-2.12,1.6,6.1,6.1,0,0,1-3.32.58,6.72,6.72,0,0,1-4.8-2.62,7.33,7.33,0,0,1-1.57-5.45,7.55,7.55,0,0,1,2.48-5A6.69,6.69,0,0,1,333,74.18Z"/><path class="cls-1" d="M348.6,75.67a7.32,7.32,0,0,1,5.1,2.67,7.12,7.12,0,0,1,1.7,5.45,7.52,7.52,0,0,1-15-1.42,7.15,7.15,0,0,1,2.67-5A7.28,7.28,0,0,1,348.6,75.67ZM348,77.18a2.67,2.67,0,0,0-2.55,1.28,7.12,7.12,0,0,0-1.2,3.5,9.68,9.68,0,0,0,.63,4.76A3.31,3.31,0,0,0,347.7,89a2.71,2.71,0,0,0,2.57-1.29,7.06,7.06,0,0,0,1.21-3.49,11.4,11.4,0,0,0-.13-3.23,5.84,5.84,0,0,0-1.15-2.59A3.08,3.08,0,0,0,348,77.18Z"/><path class="cls-1" d="M369.55,77.66a3.59,3.59,0,0,1,2.09.85,3.88,3.88,0,0,1,1.16,1.79,7.82,7.82,0,0,1,2.57-1.42,7.45,7.45,0,0,1,3.17-.37,3.77,3.77,0,0,1,2,.72,3.67,3.67,0,0,1,1.18,1.6,7.9,7.9,0,0,1,.5,2.12,12.68,12.68,0,0,1,0,2.42l-.33,3.47a13.89,13.89,0,0,0-.05,3q0,.24.85.56a4.86,4.86,0,0,0,1.1.35c.07,0,.09.17.07.49a1.91,1.91,0,0,1-.11.64q-.23-.06-1.72-.3t-2.25-.31q-.79-.07-2.27-.12l-1.78,0a1.23,1.23,0,0,1,0-.64q0-.5.15-.49a4.48,4.48,0,0,0,1.21-.14q.82-.17.91-.4a10.34,10.34,0,0,0,.45-2.29l.32-3.37q.46-4.79-2.62-5.08a3,3,0,0,0-1.87.36,2.07,2.07,0,0,0-1,.94c0,.07,0,.15,0,.26a.63.63,0,0,0,0,.27,16.27,16.27,0,0,1-.1,2.06l-.33,3.5a13.06,13.06,0,0,0,0,2.86q0,.24.85.56a4.86,4.86,0,0,0,1.1.35c.07,0,.09.17.07.49a1.89,1.89,0,0,1-.11.64l-1.72-.3q-1.5-.24-2.25-.31t-2.27-.12l-1.78,0a1.23,1.23,0,0,1,0-.64q0-.5.15-.49a4.43,4.43,0,0,0,1.21-.13q.82-.17.91-.4a10.89,10.89,0,0,0,.46-2.39l.3-3.17a7,7,0,0,0-.41-3.81A2.53,2.53,0,0,0,367,79.85a3.18,3.18,0,0,0-1.87.39,1.57,1.57,0,0,0-.95,1.18l-.54,5.69a12.17,12.17,0,0,0,0,3q0,.24.81.56a4.49,4.49,0,0,0,1.07.35q.13,0,.1.49a1.94,1.94,0,0,1-.11.64l-1.72-.3q-1.46-.24-2.22-.31t-2.32-.12l-1.76,0a1,1,0,0,1-.07-.64q0-.5.18-.48a4.86,4.86,0,0,0,1.21-.13q.85-.17.94-.39a10.89,10.89,0,0,0,.46-2.39l.51-5.39a3.16,3.16,0,0,0-.33-2.17,1.61,1.61,0,0,0-.7-.57,3.73,3.73,0,0,0-.79-.28c-.22,0-.33-.09-.32-.13.06-.64.16-1,.29-1a46,46,0,0,0,5.38-.49.22.22,0,0,1,.1,0h.17c.11,0,.19.1.24.26a.62.62,0,0,1,0,.37,11.4,11.4,0,0,0-.25,1.18c0,.09,0,.15.05.17a.51.51,0,0,0,.17-.08A7.35,7.35,0,0,1,367,78,5.82,5.82,0,0,1,369.55,77.66Z"/><path class="cls-1" d="M398.29,80.39a3.59,3.59,0,0,1,2.09.85A3.88,3.88,0,0,1,401.54,83a7.8,7.8,0,0,1,2.57-1.42,7.44,7.44,0,0,1,3.17-.37,3.76,3.76,0,0,1,2,.72,3.67,3.67,0,0,1,1.18,1.6,7.86,7.86,0,0,1,.5,2.12,12.69,12.69,0,0,1,0,2.42l-.33,3.47a13.81,13.81,0,0,0-.05,3c0,.16.31.35.85.56a4.85,4.85,0,0,0,1.1.35c.07,0,.09.17.07.49a1.91,1.91,0,0,1-.11.64q-.23-.06-1.72-.3T408.48,96q-.79-.08-2.27-.12l-1.78,0a1.23,1.23,0,0,1,0-.64q0-.5.15-.49a4.48,4.48,0,0,0,1.21-.13q.82-.17.91-.4a10.39,10.39,0,0,0,.45-2.29l.32-3.37q.46-4.79-2.62-5.08a3,3,0,0,0-1.87.36,2.08,2.08,0,0,0-1,.94c0,.07,0,.15,0,.26a.62.62,0,0,0,0,.27,16.25,16.25,0,0,1-.09,2.06l-.33,3.5a13,13,0,0,0,0,2.86c0,.16.31.35.85.56a4.92,4.92,0,0,0,1.1.36c.07,0,.09.17.07.49a1.91,1.91,0,0,1-.11.64q-.23-.06-1.72-.3t-2.25-.31q-.79-.07-2.27-.12l-1.78,0a1.22,1.22,0,0,1,0-.64c0-.33.08-.49.15-.49a4.44,4.44,0,0,0,1.21-.13q.82-.17.91-.4a11,11,0,0,0,.46-2.39l.3-3.17a7,7,0,0,0-.41-3.81,2.53,2.53,0,0,0-2.14-1.37,3.18,3.18,0,0,0-1.87.39,1.57,1.57,0,0,0-.95,1.18l-.54,5.69a12.12,12.12,0,0,0,0,3q0,.24.81.56a4.56,4.56,0,0,0,1.07.35c.09,0,.12.17.1.49a1.91,1.91,0,0,1-.11.64l-1.72-.3q-1.46-.24-2.22-.31T388,94.15l-1.76,0a1,1,0,0,1-.07-.64c0-.33.09-.49.18-.48a4.78,4.78,0,0,0,1.21-.13q.85-.17.94-.39a10.93,10.93,0,0,0,.46-2.39l.51-5.39a3.16,3.16,0,0,0-.33-2.17,1.6,1.6,0,0,0-.7-.57,3.73,3.73,0,0,0-.79-.28c-.22,0-.33-.09-.32-.13q.09-1,.29-1a46,46,0,0,0,5.38-.49.22.22,0,0,1,.1,0h.17c.11,0,.19.1.24.26a.63.63,0,0,1,0,.37,11.18,11.18,0,0,0-.25,1.18c0,.09,0,.15.05.17a.5.5,0,0,0,.17-.08,7.35,7.35,0,0,1,2.17-1.2A5.81,5.81,0,0,1,398.29,80.39Z"/><path class="cls-1" d="M430.33,87l-.62,6.54a7.35,7.35,0,0,0,0,2.34.68.68,0,0,0,.36.3,2.6,2.6,0,0,0,.57.19,5,5,0,0,0,.54.08.62.62,0,0,1,.28.06c.09,0,.12.13.1.31a2.52,2.52,0,0,1-.11.44c-.06.21-.14.3-.23.29a7.61,7.61,0,0,0-1.18,0l-1.39.1q-.67.05-1.28.13l-1.35.14c-.15,0-.21-.2-.18-.55L426,96c0-.11,0-.17-.08-.17a7.42,7.42,0,0,1-2.16,1.29,5.56,5.56,0,0,1-2.67.41,3.48,3.48,0,0,1-1.91-.75A4,4,0,0,1,418,95.17a7.14,7.14,0,0,1-.51-2,10,10,0,0,1,0-2.1l.35-3.7a3.16,3.16,0,0,0-.33-2.17,1.84,1.84,0,0,0-.71-.57,3.5,3.5,0,0,0-.77-.27c-.22,0-.33-.09-.32-.13q.09-1,.26-1a24.85,24.85,0,0,0,2.75-.14,26.14,26.14,0,0,0,2.67-.35l.14,0,.13,0c.11,0,.18.1.23.25a1.21,1.21,0,0,1,0,.37q-.51,2.22-.57,2.88l-.38,4a7.11,7.11,0,0,0,.38,3.77,2.93,2.93,0,0,0,4.09.87,1.77,1.77,0,0,0,.84-1.17l.52-5.45a3.16,3.16,0,0,0-.33-2.17,1.6,1.6,0,0,0-.7-.57,3.73,3.73,0,0,0-.79-.28c-.22,0-.33-.09-.32-.13.06-.64.16-1,.29-1a25.56,25.56,0,0,0,2.71-.14,26.14,26.14,0,0,0,2.67-.35l.27,0c.11,0,.19.1.24.26a.62.62,0,0,1,0,.37Q430.39,86.44,430.33,87Z"/><path class="cls-1" d="M446.23,84.95q4.26.41,3.62,7.18l-.3,3.14a13.87,13.87,0,0,0-.05,3q0,.24.86.57a5.07,5.07,0,0,0,1.12.36c.07,0,.09.17.07.49a1.9,1.9,0,0,1-.11.64q-.19-.05-1.72-.3t-2.29-.32q-.79-.07-2.21-.11l-1.71,0a1,1,0,0,1-.07-.64c0-.33.09-.49.18-.48a4,4,0,0,0,1.13-.14q.77-.18.86-.4a9.61,9.61,0,0,0,.49-2.39l.3-3.14a7.21,7.21,0,0,0-.38-3.9,2.67,2.67,0,0,0-2.26-1.32,3.08,3.08,0,0,0-1.91.4,1.6,1.6,0,0,0-.91,1.16l-.54,5.68a13.89,13.89,0,0,0-.05,3q0,.24.83.56a4.87,4.87,0,0,0,1.05.35c.09,0,.12.17.1.49a1.92,1.92,0,0,1-.11.64l-1.72-.3q-1.46-.24-2.22-.31T436,98.71l-1.78,0a1,1,0,0,1-.07-.64q0-.5.18-.48a4.65,4.65,0,0,0,1.23-.13c.56-.11.86-.25.92-.4a10.89,10.89,0,0,0,.46-2.39l.51-5.39a3.16,3.16,0,0,0-.33-2.17,1.61,1.61,0,0,0-.7-.57,3.77,3.77,0,0,0-.77-.27c-.21,0-.31-.08-.31-.13q.09-1,.26-1a46.58,46.58,0,0,0,5.42-.49l.09,0h.18c.09,0,.16.09.21.25a1,1,0,0,1,.06.37,11.18,11.18,0,0,0-.25,1.18.26.26,0,0,0,0,.17.53.53,0,0,0,.17-.08,7.35,7.35,0,0,1,2.16-1.2A5.82,5.82,0,0,1,446.23,84.95Z"/><path class="cls-1" d="M460.51,96.31a12.17,12.17,0,0,0,0,3q0,.24.85.56a4.88,4.88,0,0,0,1.1.36c.09,0,.12.17.1.49a1.9,1.9,0,0,1-.11.64q-.23-.06-1.76-.3t-2.25-.31q-.83-.08-2.34-.12t-1.75,0a1,1,0,0,1-.07-.64c0-.33.09-.49.18-.48a4.77,4.77,0,0,0,1.21-.13q.85-.17.94-.39a10.93,10.93,0,0,0,.46-2.39l.51-5.39a3.16,3.16,0,0,0-.33-2.17,1.86,1.86,0,0,0-.71-.57,3.54,3.54,0,0,0-.77-.27c-.22,0-.33-.09-.32-.13.06-.64.16-1,.29-1a25.31,25.31,0,0,0,2.71-.14,26.2,26.2,0,0,0,2.67-.35l.27,0c.11,0,.19.1.24.26a.62.62,0,0,1,0,.37,28.52,28.52,0,0,0-.54,2.82Zm-2.12-14.16a2,2,0,0,1-.46-1.51,2,2,0,0,1,.73-1.38A2.06,2.06,0,0,1,462,81a2,2,0,0,1-.73,1.4,2,2,0,0,1-2.91-.28Z"/><path class="cls-1" d="M468,89.35l-2-.19c-.15,0-.2-.31-.15-.88a.82.82,0,0,1,.06-.29,9.31,9.31,0,0,0,2.71-1.51l1-.89q.56-.5,1.34-1.29a2.36,2.36,0,0,1,.62.14c.19.07.29.14.28.21l-.31,3.24,2.4.25,1.63.17q.26,0,.24.32a3.22,3.22,0,0,1-.47,1.42l-4-.38-.76,8a3.15,3.15,0,0,0,.37,2.07,1.9,1.9,0,0,0,1.49.84,3.1,3.1,0,0,0,.7,0,3.5,3.5,0,0,0,.61-.12l.45-.16.24-.08c.09,0,.18.1.27.33a.79.79,0,0,1,.09.44,3,3,0,0,1-1.51.94,5.23,5.23,0,0,1-2.42.39,4.19,4.19,0,0,1-2.82-1.39,4.45,4.45,0,0,1-.88-3.54Z"/><path class="cls-1" d="M482.25,88.71q.73.07,2.09.1t1.7.06a2.25,2.25,0,0,1,0,.6c0,.31-.09.46-.18.45a3.61,3.61,0,0,0-1.06.15q-.74.18-.8.47l0,.2q0,.54,2.36,7.83.32-.57,1.6-3.13t1.48-2.94a3.11,3.11,0,0,0,.3-1,1,1,0,0,0-.45-.86,2.73,2.73,0,0,0-1.55-.53c-.09,0-.12-.18-.09-.51a.83.83,0,0,1,.19-.55q.4,0,1.61.25t2,.29q.69.06,1.71.06c.68,0,1.17,0,1.48,0a.94.94,0,0,1,.08.54c0,.35-.09.52-.18.52a4.2,4.2,0,0,0-1.37.2,1.83,1.83,0,0,0-1.23.88l-7.44,14q-2.51,4.63-5.38,4.36a1.8,1.8,0,0,1-1.28-.59,1.55,1.55,0,0,1,.39-2.33q3.44.33,4.79-2.28l1.11-2.16-3.76-11.7a4.31,4.31,0,0,0-.32-.8,2,2,0,0,0-.9-.84,3.17,3.17,0,0,0-1.05-.35q-.13,0-.09-.48c0-.35.08-.55.16-.58l1.76.27C480.94,88.55,481.72,88.66,482.25,88.71Z"/><path class="cls-1" d="M509.61,101a12.18,12.18,0,0,0,0,3q0,.24.85.56a4.94,4.94,0,0,0,1.1.36c.09,0,.12.17.1.49a1.91,1.91,0,0,1-.11.64q-.23-.06-1.76-.3t-2.25-.31q-.83-.08-2.34-.12t-1.75,0a1,1,0,0,1-.07-.64q0-.5.18-.48a4.87,4.87,0,0,0,1.21-.13q.85-.17.94-.39a11,11,0,0,0,.46-2.39l.51-5.39a3.16,3.16,0,0,0-.33-2.17,1.84,1.84,0,0,0-.71-.57,3.48,3.48,0,0,0-.77-.27c-.22,0-.33-.09-.32-.13q.09-1,.29-1a25.54,25.54,0,0,0,2.71-.14,25.86,25.86,0,0,0,2.67-.35l.27,0c.11,0,.19.1.24.26a.62.62,0,0,1,0,.37,28.42,28.42,0,0,0-.53,2.82Zm-2.12-14.16a2,2,0,0,1-.46-1.51,2,2,0,0,1,.73-1.38,2.06,2.06,0,0,1,3.37,1.77,2,2,0,0,1-.73,1.4,2,2,0,0,1-2.91-.28Z"/><path class="cls-1" d="M526.24,92.55q4.26.4,3.62,7.18l-.3,3.14a13.81,13.81,0,0,0-.05,3q0,.24.86.57a5.14,5.14,0,0,0,1.12.36c.07,0,.09.17.07.49a1.93,1.93,0,0,1-.11.64q-.2-.05-1.72-.3t-2.29-.32q-.79-.08-2.21-.11l-1.71,0a1,1,0,0,1-.07-.64c0-.33.09-.49.18-.48a3.93,3.93,0,0,0,1.13-.14q.77-.18.86-.4a9.6,9.6,0,0,0,.49-2.39l.3-3.14a7.23,7.23,0,0,0-.38-3.91,2.67,2.67,0,0,0-2.26-1.31,3.08,3.08,0,0,0-1.91.4,1.6,1.6,0,0,0-.91,1.16L520.4,102a13.87,13.87,0,0,0-.05,3c0,.16.3.35.83.56a4.76,4.76,0,0,0,1.05.35q.13,0,.1.49a1.92,1.92,0,0,1-.11.64l-1.72-.3q-1.46-.24-2.22-.31t-2.31-.12l-1.78,0a1,1,0,0,1-.07-.64q0-.5.18-.48a4.61,4.61,0,0,0,1.23-.13q.83-.17.92-.4a10.93,10.93,0,0,0,.46-2.39l.51-5.39a3.15,3.15,0,0,0-.33-2.17,1.6,1.6,0,0,0-.7-.57,3.81,3.81,0,0,0-.77-.27c-.21,0-.31-.08-.3-.13q.09-1,.26-1a47.34,47.34,0,0,0,5.42-.49l.09,0h.18c.09,0,.16.09.21.25a1,1,0,0,1,.07.37,11.18,11.18,0,0,0-.25,1.18.25.25,0,0,0,0,.17.48.48,0,0,0,.17-.08,7.37,7.37,0,0,1,2.17-1.2A5.81,5.81,0,0,1,526.24,92.55Z"/><path class="cls-1" d="M550.8,94.89a7.32,7.32,0,0,1,5.1,2.67,7.12,7.12,0,0,1,1.7,5.45,7.57,7.57,0,1,1-6.8-8.12Zm-.58,1.51a2.67,2.67,0,0,0-2.56,1.27,7.13,7.13,0,0,0-1.2,3.5,9.68,9.68,0,0,0,.63,4.76,3.31,3.31,0,0,0,2.8,2.27,2.71,2.71,0,0,0,2.57-1.29,7.06,7.06,0,0,0,1.22-3.49,11.4,11.4,0,0,0-.13-3.23,5.85,5.85,0,0,0-1.15-2.59A3.08,3.08,0,0,0,550.22,96.4Z"/><path class="cls-1" d="M570.62,96.77a3.31,3.31,0,0,1,2.61,1.35q-.27,2.81-1.85,2.66a2,2,0,0,1-1.23-.78,2.08,2.08,0,0,0-1.36-.8,1.78,1.78,0,0,0-1.7.89,4.42,4.42,0,0,0-.78,2.11l-.39,4.13a13.8,13.8,0,0,0-.05,3q0,.24.83.56a4.65,4.65,0,0,0,1.08.35c.07,0,.09.17.07.49a3.57,3.57,0,0,1-.08.64l-1.74-.3q-1.48-.24-2.24-.31t-2.31-.12l-1.78,0a1,1,0,0,1-.07-.64q0-.5.18-.48a4.66,4.66,0,0,0,1.23-.13c.55-.11.86-.25.92-.4a11,11,0,0,0,.46-2.39l.51-5.39A3.16,3.16,0,0,0,562.6,99a1.6,1.6,0,0,0-.7-.57,3.81,3.81,0,0,0-.77-.27c-.21,0-.31-.08-.3-.13q.09-1,.26-1a47.11,47.11,0,0,0,5.42-.49l.27,0c.09,0,.16.09.21.25a.79.79,0,0,1,0,.39l-.09.46q-.06.31-.15.65a4.33,4.33,0,0,0-.09.44,6.08,6.08,0,0,1,1.77-1.45A3.64,3.64,0,0,1,570.62,96.77Z"/><path class="cls-1" d="M583.44,97.92a5.69,5.69,0,0,1,2.37.69c.11,0,.18-.16.22-.51l.29-3.11a11.55,11.55,0,0,0,0-2.27q-.12-.54-1.67-.69l-.26,0c-.13,0-.18-.2-.15-.55s.12-.52.25-.51q1,0,2-.08c.64,0,1.17-.11,1.58-.18s.78-.15,1.09-.23l.7-.18.27-.06h.07c.09,0,.17.08.25.21a.61.61,0,0,1,.1.36,12.68,12.68,0,0,0-.63,3.08l-1.38,14.54a12.09,12.09,0,0,0,0,2.46.49.49,0,0,0,.29.39,2,2,0,0,0,.61.22l.62.11.33,0a.71.71,0,0,1,0,.4c0,.44-.13.66-.26.64-.31,0-.71,0-1.19,0l-1.41.08-1.31.11-1.4.15c-.13,0-.18-.21-.14-.58l.05-.56a.15.15,0,0,0,0-.14s-.06,0-.08,0a5.54,5.54,0,0,1-3.55.9,6.43,6.43,0,0,1-4.47-2.41,6.7,6.7,0,0,1-1.51-5.13,7.79,7.79,0,0,1,2.8-5.39A7.27,7.27,0,0,1,583.44,97.92ZM583,99.48a2.91,2.91,0,0,0-2.79,1.24,7.77,7.77,0,0,0-1.27,3.92,8,8,0,0,0,.61,4.48,3.26,3.26,0,0,0,2.73,1.84,2.76,2.76,0,0,0,1.87-.41,1.84,1.84,0,0,0,.83-1.41l.66-6.94a2.36,2.36,0,0,0,0-.71,3.12,3.12,0,0,0-.32-.81,2.13,2.13,0,0,0-.83-.78A3.55,3.55,0,0,0,583,99.48Z"/><path class="cls-1" d="M600.81,99.64a6.15,6.15,0,0,1,2.72.88,5.26,5.26,0,0,1,1.77,1.74,7.71,7.71,0,0,1,.87,2.05,5.72,5.72,0,0,1,.18,2q-.07.73-.33.89a1.89,1.89,0,0,1-1,.09l-7.9-.75c-.15,0-.24,0-.25.18A6.45,6.45,0,0,0,597,109a4.58,4.58,0,0,0,1.29,2.09,3.91,3.91,0,0,0,2.42,1.06,9.28,9.28,0,0,0,1,0,4.92,4.92,0,0,0,.88-.08l.71-.15a2.9,2.9,0,0,0,.64-.24l.47-.24.7-.38a.53.53,0,0,1,.15.21.65.65,0,0,1,.07.34,1,1,0,0,1-.26.61,5.41,5.41,0,0,1-2.12,1.6,6.16,6.16,0,0,1-3.36.58,6.73,6.73,0,0,1-4.75-2.6,7.16,7.16,0,0,1-1.59-5.37,7.68,7.68,0,0,1,2.45-5.24A6.44,6.44,0,0,1,600.81,99.64Zm-.38,1.5a2.34,2.34,0,0,0-1.46.33,3.12,3.12,0,0,0-1.07,1,6.32,6.32,0,0,0-.6,1.19,4,4,0,0,0-.24,1c0,.15,0,.24.18.25l5.35.51c.2,0,.31-.14.34-.47a4.31,4.31,0,0,0-.55-2.42A2.38,2.38,0,0,0,600.43,101.14Z"/><path class="cls-1" d="M619,101.37a3.31,3.31,0,0,1,2.61,1.35q-.27,2.81-1.85,2.66a2,2,0,0,1-1.23-.78,2.08,2.08,0,0,0-1.36-.8,1.78,1.78,0,0,0-1.7.89,4.41,4.41,0,0,0-.78,2.11l-.39,4.13a13.89,13.89,0,0,0-.05,3q0,.24.83.56a4.66,4.66,0,0,0,1.08.35c.07,0,.09.17.07.49a3.58,3.58,0,0,1-.08.64l-1.74-.3q-1.48-.24-2.24-.31t-2.31-.12l-1.78,0a1,1,0,0,1-.07-.64c0-.33.09-.49.18-.48a4.62,4.62,0,0,0,1.23-.13q.83-.17.92-.4a10.9,10.9,0,0,0,.46-2.39l.51-5.39a3.16,3.16,0,0,0-.33-2.17,1.61,1.61,0,0,0-.7-.57,3.89,3.89,0,0,0-.77-.27c-.21,0-.31-.08-.31-.13q.09-1,.26-1a47,47,0,0,0,5.42-.49l.27,0c.09,0,.16.09.21.25a.8.8,0,0,1,0,.39l-.09.46c0,.21-.09.42-.15.65a4.33,4.33,0,0,0-.09.44,6.12,6.12,0,0,1,1.77-1.45A3.63,3.63,0,0,1,619,101.37Z"/><path class="cls-1" d="M633.8,105.11l-2-.19c-.15,0-.2-.31-.15-.88a.82.82,0,0,1,.06-.29,9.28,9.28,0,0,0,2.71-1.51l1-.89q.56-.5,1.34-1.29a2.36,2.36,0,0,1,.62.14c.19.07.29.14.28.21l-.31,3.24,2.4.24,1.63.17c.18,0,.25.12.24.32a3.22,3.22,0,0,1-.47,1.42l-4-.38-.76,8a3.15,3.15,0,0,0,.37,2.07,1.9,1.9,0,0,0,1.49.84,3.11,3.11,0,0,0,.7,0,3.47,3.47,0,0,0,.61-.12l.45-.16.24-.08c.09,0,.18.1.27.33a.79.79,0,0,1,.09.44,3,3,0,0,1-1.51.94,5.24,5.24,0,0,1-2.42.39,4.19,4.19,0,0,1-2.82-1.39,4.45,4.45,0,0,1-.88-3.54Z"/><path class="cls-1" d="M652,104.51a7.32,7.32,0,0,1,5.1,2.67,7.12,7.12,0,0,1,1.7,5.45,7.52,7.52,0,0,1-15-1.42,7.15,7.15,0,0,1,2.67-5A7.28,7.28,0,0,1,652,104.51Zm-.58,1.51a2.67,2.67,0,0,0-2.56,1.28,7.12,7.12,0,0,0-1.2,3.5,9.68,9.68,0,0,0,.63,4.76,3.31,3.31,0,0,0,2.8,2.27,2.71,2.71,0,0,0,2.57-1.29,7.06,7.06,0,0,0,1.22-3.49,11.44,11.44,0,0,0-.13-3.23,5.85,5.85,0,0,0-1.15-2.59A3.08,3.08,0,0,0,651.41,106Z"/><path class="cls-1" d="M679.56,107.13a3.31,3.31,0,0,1,2.61,1.35q-.27,2.81-1.85,2.66a2,2,0,0,1-1.23-.78,2.08,2.08,0,0,0-1.36-.8,1.78,1.78,0,0,0-1.7.89,4.41,4.41,0,0,0-.78,2.11l-.39,4.13a13.81,13.81,0,0,0-.05,3c0,.16.3.35.83.56a4.7,4.7,0,0,0,1.08.35c.07,0,.09.17.07.49a3.57,3.57,0,0,1-.08.64l-1.74-.3q-1.48-.24-2.24-.31t-2.31-.12l-1.78,0a1,1,0,0,1-.07-.64q0-.5.18-.48a4.65,4.65,0,0,0,1.23-.13q.83-.17.92-.4a11,11,0,0,0,.46-2.39l.51-5.39a3.16,3.16,0,0,0-.33-2.17,1.6,1.6,0,0,0-.7-.57,3.87,3.87,0,0,0-.77-.27c-.21,0-.31-.08-.3-.13q.09-1,.26-1a47,47,0,0,0,5.42-.49l.27,0c.09,0,.16.09.21.25a.79.79,0,0,1,0,.39l-.09.46c0,.21-.09.42-.15.65a4.39,4.39,0,0,0-.09.44,6.13,6.13,0,0,1,1.77-1.45A3.64,3.64,0,0,1,679.56,107.13Z"/><path class="cls-1" d="M691.71,108.28a6.15,6.15,0,0,1,2.72.88,5.26,5.26,0,0,1,1.77,1.74,7.77,7.77,0,0,1,.87,2.05,5.72,5.72,0,0,1,.18,2c0,.48-.16.78-.33.88a1.87,1.87,0,0,1-1,.09l-7.9-.75c-.15,0-.24,0-.25.18a6.47,6.47,0,0,0,.21,2.35,4.58,4.58,0,0,0,1.29,2.09,3.91,3.91,0,0,0,2.42,1.06,9,9,0,0,0,1,0,5,5,0,0,0,.88-.08l.71-.15a2.84,2.84,0,0,0,.64-.24l.47-.24.7-.38a.55.55,0,0,1,.15.21.65.65,0,0,1,.07.34,1,1,0,0,1-.26.61,5.41,5.41,0,0,1-2.12,1.6,6.17,6.17,0,0,1-3.36.58,6.73,6.73,0,0,1-4.75-2.6,7.16,7.16,0,0,1-1.59-5.37,7.69,7.69,0,0,1,2.45-5.24A6.44,6.44,0,0,1,691.71,108.28Zm-.38,1.5a2.35,2.35,0,0,0-1.46.33,3.13,3.13,0,0,0-1.07,1,6.28,6.28,0,0,0-.6,1.19,4,4,0,0,0-.24,1c0,.16,0,.24.18.25l5.36.51q.3,0,.34-.47a4.31,4.31,0,0,0-.55-2.42A2.38,2.38,0,0,0,691.34,109.78Z"/><path class="cls-1" d="M707.3,109.77a8,8,0,0,1,3.07.88,5.28,5.28,0,0,1,1.85,1.46,4.11,4.11,0,0,1-.56,1.83,1.23,1.23,0,0,1-1.21.64,1.49,1.49,0,0,1-1-.43,3.78,3.78,0,0,1-.67-1.16,2.41,2.41,0,0,0-2.07-1.73,2.56,2.56,0,0,0-2.4,1.22,7.09,7.09,0,0,0-1.19,3.54,6.73,6.73,0,0,0,.8,4.53,3.91,3.91,0,0,0,3,1.73,9,9,0,0,0,1,0,5,5,0,0,0,.88-.08l.71-.15a2.84,2.84,0,0,0,.64-.24l.47-.24.7-.38a.54.54,0,0,1,.15.21.64.64,0,0,1,.07.34,1,1,0,0,1-.26.61,5.44,5.44,0,0,1-2.12,1.6,6.11,6.11,0,0,1-3.32.58,6.72,6.72,0,0,1-4.8-2.62,7.33,7.33,0,0,1-1.57-5.45,7.54,7.54,0,0,1,2.48-5A6.69,6.69,0,0,1,707.3,109.77Z"/><path class="cls-1" d="M720.23,120.93a13.64,13.64,0,0,0-.05,3q0,.24.76.59a3.59,3.59,0,0,0,1,.38c.07,0,.09.17.07.47a1.85,1.85,0,0,1-.11.62l-1.23-.2-1.4-.22q-.63-.09-1.19-.15t-1.26-.09l-1.4,0-1.26,0a.94.94,0,0,1-.07-.62q0-.48.18-.47a3.53,3.53,0,0,0,1.13-.18c.51-.14.8-.29.86-.44a10.93,10.93,0,0,0,.5-2.42l1.31-13.75a11.7,11.7,0,0,0,0-2.27q-.12-.54-1.6-.69l-.33,0c-.13,0-.19-.15-.16-.42s.12-.52.25-.51q1,0,2-.08c.63-.05,1.15-.11,1.57-.18s.78-.14,1.09-.21l.73-.18.24-.08h.07c.09,0,.17.08.26.22a1,1,0,0,1,.15.35,10.55,10.55,0,0,0-.69,3.07Z"/><path class="cls-1" d="M733,112.21a4.08,4.08,0,0,1,3,1.37,5.31,5.31,0,0,1,.67,3.78l-.62,6.51a1.51,1.51,0,0,0,.2,1,1,1,0,0,0,.76.42,2.08,2.08,0,0,0,1.17-.32c.13.06.18.18.16.38a2,2,0,0,1-.29,1,8.26,8.26,0,0,1-1.4.7,3.46,3.46,0,0,1-1.63.28,2.41,2.41,0,0,1-1.43-.7,2.71,2.71,0,0,1-.84-1.31l-.27.19c-.16.11-.37.24-.64.39s-.57.3-.91.45a5.28,5.28,0,0,1-1.17.34,4.81,4.81,0,0,1-1.32.06,4,4,0,0,1-2.61-1.17A3.15,3.15,0,0,1,725,123a3.06,3.06,0,0,1,.52-1.45,4,4,0,0,1,1-1.05,6.77,6.77,0,0,1,1.5-.74,13.82,13.82,0,0,1,1.6-.5l1.7-.36,1.45-.3a.52.52,0,0,0,.35-.5l.17-1.82a2.85,2.85,0,0,0-.36-1.87,1.73,1.73,0,0,0-1.36-.8,2,2,0,0,0-1.61.46,2.48,2.48,0,0,0-.73,1.68,1.08,1.08,0,0,1-.59.93,2.07,2.07,0,0,1-1.15.21,1.87,1.87,0,0,1-1.64-1q.15-1.59,2.45-2.77A8.32,8.32,0,0,1,733,112.21Zm-2.69,12.55a2.58,2.58,0,0,0,1.58-.32,1.31,1.31,0,0,0,.75-1l.32-3.37q-.24.08-1,.24t-1.18.29a9.28,9.28,0,0,0-1,.38,2,2,0,0,0-.85.65,1.83,1.83,0,0,0-.34.9,2,2,0,0,0,.38,1.6A1.91,1.91,0,0,0,730.26,124.76Z"/><path class="cls-1" d="M746.74,123.52a12.12,12.12,0,0,0,0,3q0,.24.85.56a4.85,4.85,0,0,0,1.1.35q.13,0,.1.49a1.91,1.91,0,0,1-.11.64q-.23-.06-1.76-.3t-2.25-.31q-.83-.08-2.34-.12t-1.75,0a1,1,0,0,1-.07-.64q0-.5.18-.48a4.78,4.78,0,0,0,1.21-.13q.85-.17.94-.39a11,11,0,0,0,.46-2.39l.51-5.39a3.16,3.16,0,0,0-.33-2.17,1.84,1.84,0,0,0-.71-.57,3.5,3.5,0,0,0-.77-.27c-.22,0-.33-.09-.32-.13q.09-1,.29-1a25.48,25.48,0,0,0,2.71-.14,25.8,25.8,0,0,0,2.67-.35l.27,0c.11,0,.19.1.24.26a.62.62,0,0,1,0,.37,28.22,28.22,0,0,0-.54,2.82Zm-2.12-14.16a2,2,0,0,1-.46-1.51,2,2,0,0,1,2.24-1.84,2,2,0,0,1,1.86,2.23,2,2,0,0,1-.73,1.4,2,2,0,0,1-2.91-.28Z"/><path class="cls-1" d="M763.37,115.1a3.59,3.59,0,0,1,2.09.85,3.88,3.88,0,0,1,1.16,1.79,7.85,7.85,0,0,1,2.57-1.42,7.46,7.46,0,0,1,3.17-.37,3.76,3.76,0,0,1,2,.72,3.66,3.66,0,0,1,1.18,1.6,7.83,7.83,0,0,1,.5,2.12,12.61,12.61,0,0,1,0,2.42l-.33,3.47a13.88,13.88,0,0,0-.05,3q0,.24.85.56a4.92,4.92,0,0,0,1.1.35c.07,0,.09.17.07.49a1.94,1.94,0,0,1-.11.64q-.23-.06-1.72-.3t-2.25-.31q-.79-.08-2.27-.12l-1.78,0a1.22,1.22,0,0,1,0-.64q0-.5.15-.49a4.51,4.51,0,0,0,1.21-.13c.54-.12.85-.25.91-.4a10.4,10.4,0,0,0,.45-2.29l.32-3.37q.46-4.79-2.62-5.08a3,3,0,0,0-1.87.36,2.07,2.07,0,0,0-1,.94c0,.07,0,.15,0,.26a.63.63,0,0,0,0,.27,16.46,16.46,0,0,1-.1,2.06l-.33,3.5a13.06,13.06,0,0,0,0,2.86q0,.24.85.56a4.87,4.87,0,0,0,1.1.36c.07,0,.09.17.07.49a1.94,1.94,0,0,1-.11.64q-.23-.05-1.72-.3t-2.25-.31q-.79-.07-2.27-.12l-1.78,0a1.22,1.22,0,0,1,0-.64q0-.5.15-.49a4.43,4.43,0,0,0,1.21-.13c.54-.11.85-.25.91-.4a11,11,0,0,0,.46-2.39l.3-3.17a7.06,7.06,0,0,0-.41-3.81,2.53,2.53,0,0,0-2.14-1.37,3.18,3.18,0,0,0-1.87.39,1.57,1.57,0,0,0-.95,1.18l-.54,5.69a12.17,12.17,0,0,0,0,3q0,.24.81.56a4.59,4.59,0,0,0,1.07.35c.09,0,.12.17.1.49a1.9,1.9,0,0,1-.11.64l-1.72-.3q-1.46-.24-2.22-.31t-2.32-.12l-1.76,0a1,1,0,0,1-.07-.64q0-.5.18-.48a4.87,4.87,0,0,0,1.21-.13q.85-.17.94-.39a11,11,0,0,0,.46-2.39l.51-5.39a3.15,3.15,0,0,0-.33-2.17,1.61,1.61,0,0,0-.7-.57,3.77,3.77,0,0,0-.79-.28c-.22,0-.33-.09-.32-.13.06-.64.16-1,.29-1a45.8,45.8,0,0,0,5.38-.49.21.21,0,0,1,.1,0h.17c.11,0,.19.1.24.26a.62.62,0,0,1,0,.37,11.13,11.13,0,0,0-.25,1.18c0,.09,0,.15,0,.17a.51.51,0,0,0,.17-.08,7.37,7.37,0,0,1,2.17-1.2A5.82,5.82,0,0,1,763.37,115.1Z"/><path class="cls-1" d="M796.53,118.25a7.32,7.32,0,0,1,5.1,2.67,7.12,7.12,0,0,1,1.7,5.45,7.52,7.52,0,0,1-15-1.42,7.15,7.15,0,0,1,2.67-5A7.28,7.28,0,0,1,796.53,118.25Zm-.58,1.51A2.67,2.67,0,0,0,793.4,121a7.13,7.13,0,0,0-1.2,3.5,9.68,9.68,0,0,0,.63,4.76,3.31,3.31,0,0,0,2.8,2.27,2.7,2.7,0,0,0,2.57-1.29,7,7,0,0,0,1.22-3.49,11.4,11.4,0,0,0-.13-3.23,5.84,5.84,0,0,0-1.15-2.59A3.08,3.08,0,0,0,796,119.76Z"/><path class="cls-1" d="M820.77,124.16l-.62,6.54a7.32,7.32,0,0,0,0,2.34.68.68,0,0,0,.35.3,2.6,2.6,0,0,0,.57.19,4.91,4.91,0,0,0,.54.08.6.6,0,0,1,.28.06c.09,0,.12.13.1.31a2.53,2.53,0,0,1-.11.44c-.06.21-.14.3-.23.29a7.59,7.59,0,0,0-1.18,0l-1.39.1-1.28.13-1.35.14c-.16,0-.21-.2-.18-.55l.14-1.45c0-.11,0-.17-.08-.17a7.39,7.39,0,0,1-2.16,1.3,5.55,5.55,0,0,1-2.67.41,3.47,3.47,0,0,1-1.91-.75,4,4,0,0,1-1.18-1.58,7.13,7.13,0,0,1-.51-2,10.08,10.08,0,0,1,0-2.1l.35-3.7a3.15,3.15,0,0,0-.33-2.17,1.84,1.84,0,0,0-.71-.57,3.49,3.49,0,0,0-.77-.27c-.22,0-.33-.09-.32-.13q.09-1,.26-1a25.12,25.12,0,0,0,2.75-.14,25.88,25.88,0,0,0,2.67-.35l.14,0,.14,0c.11,0,.18.1.22.26a1.2,1.2,0,0,1,0,.37q-.51,2.22-.57,2.88l-.38,4a7.11,7.11,0,0,0,.38,3.77,2.93,2.93,0,0,0,4.09.87,1.77,1.77,0,0,0,.84-1.17l.52-5.46a3.16,3.16,0,0,0-.33-2.17,1.6,1.6,0,0,0-.7-.57,3.73,3.73,0,0,0-.79-.28c-.22,0-.33-.09-.32-.13q.09-1,.29-1a25.48,25.48,0,0,0,2.71-.14,25.8,25.8,0,0,0,2.67-.35l.27,0c.11,0,.19.1.24.26a.62.62,0,0,1,0,.37Q820.83,123.56,820.77,124.16Z"/><path class="cls-1" d="M835.54,122a3.31,3.31,0,0,1,2.61,1.35q-.27,2.81-1.85,2.66a2,2,0,0,1-1.23-.78,2.08,2.08,0,0,0-1.36-.8,1.78,1.78,0,0,0-1.7.89,4.41,4.41,0,0,0-.78,2.11l-.39,4.13a13.8,13.8,0,0,0-.05,3q0,.24.83.56a4.67,4.67,0,0,0,1.08.35c.07,0,.09.17.07.49a3.56,3.56,0,0,1-.08.64l-1.74-.3q-1.48-.24-2.24-.31t-2.31-.12l-1.78,0a1,1,0,0,1-.07-.64q0-.5.18-.48a4.61,4.61,0,0,0,1.23-.13c.55-.11.86-.25.92-.4a11,11,0,0,0,.46-2.39l.51-5.39a3.16,3.16,0,0,0-.33-2.17,1.6,1.6,0,0,0-.7-.57,3.78,3.78,0,0,0-.77-.27c-.21,0-.31-.08-.31-.13q.09-1,.26-1a47.11,47.11,0,0,0,5.42-.49l.27,0c.09,0,.16.09.21.25a.79.79,0,0,1,0,.39l-.09.46q-.06.31-.15.65a4.39,4.39,0,0,0-.09.44,6.09,6.09,0,0,1,1.77-1.45A3.65,3.65,0,0,1,835.54,122Z"/><path class="cls-1" d="M859.48,124.23q4.23.4,3.61,6.91l-.32,3.41a12.17,12.17,0,0,0,0,3q0,.23.83.56a5.18,5.18,0,0,0,1.12.36c.07,0,.09.17.07.49a3.57,3.57,0,0,1-.08.64q-.23-.06-1.76-.3t-2.25-.31q-.83-.08-2.24-.11l-1.75,0a1.23,1.23,0,0,1,0-.64c0-.33.08-.49.15-.49a4,4,0,0,0,1.16-.14q.77-.18.89-.4a12.69,12.69,0,0,0,.43-2.39l.31-3.24a6.92,6.92,0,0,0-.38-3.86,2.72,2.72,0,0,0-2.26-1.27,3.19,3.19,0,0,0-1.87.39,1.57,1.57,0,0,0-.95,1.18l-.54,5.69a12.18,12.18,0,0,0,0,3q0,.24.83.56a4.73,4.73,0,0,0,1.08.35c.07,0,.09.17.07.49a1.91,1.91,0,0,1-.11.64l-1.72-.3q-1.46-.24-2.22-.31t-2.31-.12l-1.78,0a1,1,0,0,1-.07-.64c0-.33.09-.49.18-.48a4.64,4.64,0,0,0,1.23-.13q.83-.17.92-.4a10.66,10.66,0,0,0,.46-2.36l1.31-13.75a13.05,13.05,0,0,0,0-2.26q-.12-.54-1.67-.69l-.3,0c-.13,0-.18-.2-.15-.55s.12-.52.25-.51q1,0,2-.08c.63-.05,1.15-.11,1.57-.18s.78-.15,1.09-.23l1-.24h.07c.09,0,.17.08.25.21a.93.93,0,0,1,.13.36,10.7,10.7,0,0,0-.69,3.07l-.63,6.68c0,.13,0,.2.11.21s.07,0,.14-.09a6.32,6.32,0,0,1,2.17-1.24A6.12,6.12,0,0,1,859.48,124.23Z"/><path class="cls-1" d="M873.56,135.58a12.17,12.17,0,0,0,0,3q0,.24.85.56a4.85,4.85,0,0,0,1.1.35q.13,0,.1.49a1.91,1.91,0,0,1-.11.64q-.23-.06-1.76-.3t-2.25-.31q-.83-.08-2.34-.12t-1.75,0a1,1,0,0,1-.07-.64q0-.5.18-.48a4.77,4.77,0,0,0,1.21-.13q.85-.17.94-.39a11,11,0,0,0,.46-2.39l.51-5.39a3.15,3.15,0,0,0-.33-2.17,1.84,1.84,0,0,0-.71-.57,3.55,3.55,0,0,0-.77-.27c-.22,0-.33-.09-.32-.13.06-.64.16-1,.29-1a25.51,25.51,0,0,0,2.71-.14,25.8,25.8,0,0,0,2.67-.35l.27,0c.11,0,.19.1.24.26a.62.62,0,0,1,0,.37,28.52,28.52,0,0,0-.54,2.82Zm-2.12-14.16a2,2,0,0,1-.46-1.51,2,2,0,0,1,2.24-1.84,2,2,0,0,1,1.86,2.23,2,2,0,0,1-.73,1.4,2,2,0,0,1-2.91-.28Z"/><path class="cls-1" d="M884.78,126.61a14.11,14.11,0,0,1,3.78.93,18.89,18.89,0,0,1,0,3.74c0,.18-.17.25-.46.22q-.73-.07-.77-.34a4,4,0,0,0-.79-2.06,2.6,2.6,0,0,0-1.92-1,2.38,2.38,0,0,0-1.54.29,1.48,1.48,0,0,0-.66,1.17,1.93,1.93,0,0,0,.1.86,2,2,0,0,0,.53.77,8.4,8.4,0,0,0,.68.6q.3.23.89.62a2,2,0,0,0,.32.2l.47.31.52.35.5.36a6.12,6.12,0,0,1,.54.44l.47.45a2.62,2.62,0,0,1,.45.51l.35.55a2.15,2.15,0,0,1,.29.63,6.47,6.47,0,0,1,.12.65,3.16,3.16,0,0,1,0,.72,3.91,3.91,0,0,1-1.92,3.14,6.3,6.3,0,0,1-4,.84,11.1,11.1,0,0,1-4.18-1.33,13.27,13.27,0,0,1-.16-1.87,15.88,15.88,0,0,1,0-1.92.7.7,0,0,1,.48-.12c.51,0,.76.16.77.34a3.67,3.67,0,0,0,1.09,2.36A3.54,3.54,0,0,0,883,140a2.42,2.42,0,0,0,1.56-.32,1.62,1.62,0,0,0,.72-1.3,2.22,2.22,0,0,0,0-.62,1.62,1.62,0,0,0-.26-.59l-.34-.5a2.39,2.39,0,0,0-.55-.5l-.62-.44-.79-.51-.8-.53a7.69,7.69,0,0,1-2.18-2,3.83,3.83,0,0,1,1.28-5.4A6.4,6.4,0,0,1,884.78,126.61Z"/><path class="cls-1" d="M894,129.85l-2-.19q-.23,0-.15-.88a.86.86,0,0,1,.06-.29,9.3,9.3,0,0,0,2.71-1.51l1-.89q.56-.5,1.34-1.29a2.36,2.36,0,0,1,.62.14c.19.07.29.14.28.21l-.31,3.24,2.4.24,1.63.17q.26,0,.24.32a3.22,3.22,0,0,1-.47,1.42l-4-.38-.76,8a3.15,3.15,0,0,0,.37,2.07,1.89,1.89,0,0,0,1.49.84,3.15,3.15,0,0,0,.7,0,3.58,3.58,0,0,0,.61-.13l.45-.16a1,1,0,0,1,.24-.08q.13,0,.27.33a.79.79,0,0,1,.09.44,3,3,0,0,1-1.51.94,5.22,5.22,0,0,1-2.42.39,4.18,4.18,0,0,1-2.82-1.39,4.44,4.44,0,0,1-.88-3.54Z"/><path class="cls-1" d="M912.22,129.25a7.32,7.32,0,0,1,5.1,2.67,7.12,7.12,0,0,1,1.7,5.45,7.52,7.52,0,0,1-15-1.42,7.15,7.15,0,0,1,2.67-5A7.27,7.27,0,0,1,912.22,129.25Zm-.58,1.51a2.68,2.68,0,0,0-2.56,1.27,7.14,7.14,0,0,0-1.2,3.5,9.69,9.69,0,0,0,.63,4.76,3.31,3.31,0,0,0,2.8,2.27,2.71,2.71,0,0,0,2.57-1.29,7.05,7.05,0,0,0,1.22-3.49,11.4,11.4,0,0,0-.13-3.23,5.84,5.84,0,0,0-1.15-2.59A3.09,3.09,0,0,0,911.64,130.76Z"/><path class="cls-1" d="M932,131.13a3.31,3.31,0,0,1,2.61,1.35q-.27,2.81-1.85,2.66a2,2,0,0,1-1.23-.78,2.07,2.07,0,0,0-1.36-.8,1.78,1.78,0,0,0-1.7.89,4.41,4.41,0,0,0-.78,2.11l-.39,4.13a13.88,13.88,0,0,0-.05,3q0,.24.83.56a4.73,4.73,0,0,0,1.08.35c.07,0,.09.17.07.49a3.57,3.57,0,0,1-.08.64l-1.74-.3q-1.48-.24-2.24-.31t-2.31-.12l-1.78,0a1,1,0,0,1-.07-.64c0-.33.09-.49.18-.48a4.64,4.64,0,0,0,1.23-.13q.83-.17.92-.4a11,11,0,0,0,.46-2.39l.51-5.39a3.15,3.15,0,0,0-.33-2.17,1.6,1.6,0,0,0-.7-.57,3.87,3.87,0,0,0-.77-.27c-.21,0-.31-.08-.31-.13q.09-1,.26-1a47.05,47.05,0,0,0,5.42-.49l.27,0c.09,0,.16.09.21.25a.79.79,0,0,1,0,.39l-.09.46c0,.21-.09.42-.14.65a4.39,4.39,0,0,0-.09.44,6.11,6.11,0,0,1,1.77-1.45A3.64,3.64,0,0,1,932,131.13Z"/><path class="cls-1" d="M940.92,132.31c.48,0,1.18.08,2.09.1s1.47,0,1.7.06a2.26,2.26,0,0,1,0,.6c0,.31-.09.46-.18.45a3.64,3.64,0,0,0-1.06.15q-.74.18-.79.47l0,.2q0,.53,2.36,7.83.32-.57,1.6-3.13t1.48-2.95a3.1,3.1,0,0,0,.3-1,1,1,0,0,0-.45-.86,2.74,2.74,0,0,0-1.55-.53c-.09,0-.12-.18-.08-.51a.83.83,0,0,1,.19-.55q.4,0,1.61.25t2,.29q.69.07,1.71.06t1.48,0a1,1,0,0,1,.08.54c0,.35-.09.53-.18.52a4.22,4.22,0,0,0-1.37.2,1.83,1.83,0,0,0-1.24.88l-7.44,14q-2.51,4.63-5.38,4.36a1.8,1.8,0,0,1-1.28-.59,1.55,1.55,0,0,1,.39-2.33q3.44.33,4.79-2.28l1.11-2.16L939,134.76a4.21,4.21,0,0,0-.32-.8,2,2,0,0,0-.9-.84,3.16,3.16,0,0,0-1.05-.35q-.13,0-.09-.47c0-.35.08-.55.16-.59l1.76.27Q940.12,132.23,940.92,132.31Z"/><path class="cls-1" d="M958.36,144.94a2.17,2.17,0,0,1,.5,1.62,2.22,2.22,0,0,1-.79,1.51,2.06,2.06,0,0,1-1.6.53,2.15,2.15,0,0,1-1.52-.83,2.19,2.19,0,0,1-.51-1.63,2.14,2.14,0,0,1,.81-1.49,2.17,2.17,0,0,1,1.65-.51A2.08,2.08,0,0,1,958.36,144.94Z"/></svg>