<svg id="Layer_1" data-name="Layer 1" xmlns="http://www.w3.org/2000/svg" viewBox="0 0 516.45 183.5"><defs><style>.cls-1{fill:#1928eb;}</style></defs><title>title</title><path class="cls-1" d="M46.42,71.71a4.68,4.68,0,0,1,1.23-4,6.5,6.5,0,0,1,3.91-2.21A10.5,10.5,0,0,1,53,65.34q.63,0,1.78.08l1.57.11A26.51,26.51,0,0,1,57.46,70a.32.32,0,0,1-.31.32q-.79.13-.89-.12a5.23,5.23,0,0,0-1.7-2.43,3.38,3.38,0,0,0-2.86-.85A2.75,2.75,0,0,0,49.77,68a2.91,2.91,0,0,0-.37,2.17,3.36,3.36,0,0,0,.24.82,2.1,2.1,0,0,0,.54.71l.6.55a3.51,3.51,0,0,0,.84.51l.82.41q.22.12,1,.42a8.85,8.85,0,0,0,.92.34,10.56,10.56,0,0,0,1.09.47q.89.35,1.25.52t1.06.59a4.3,4.3,0,0,1,1.06.85,6.09,6.09,0,0,1,.71,1.1A5,5,0,0,1,60,79a4.83,4.83,0,0,1-1.24,4.19,6.87,6.87,0,0,1-4.13,2.26,27.65,27.65,0,0,1-5.53.08,25.7,25.7,0,0,1-.93-2.57,20.07,20.07,0,0,1-.57-2.06q0-.24.43-.31.76-.13.89.09a5.86,5.86,0,0,0,.6,1.09,8.62,8.62,0,0,0,1,1.21,3.92,3.92,0,0,0,1.58.94,4.18,4.18,0,0,0,2,.13,3.33,3.33,0,0,0,2.15-1.2,3.19,3.19,0,0,0,.5-2.61,2.58,2.58,0,0,0-.35-.94,3.44,3.44,0,0,0-.57-.72A4.33,4.33,0,0,0,55,78q-.55-.3-.9-.45l-1-.41-1-.36a2.09,2.09,0,0,0-.36-.18l-1.43-.61q-.49-.22-1.27-.68a5.89,5.89,0,0,1-1.22-.9A5.63,5.63,0,0,1,47,73.25,4.47,4.47,0,0,1,46.42,71.71Z"/><path class="cls-1" d="M68.54,69.49a6,6,0,0,1,3.5.41,6.23,6.23,0,0,1,3.75,4.74,7,7,0,0,1-5.72,8.13,6.91,6.91,0,0,1-2.15-.06q-.12,0,0,.43l.33,2a10.71,10.71,0,0,0,.67,2.6q.07.23.85.32a4.55,4.55,0,0,0,1,.05q.09,0,.17.41a2.65,2.65,0,0,1,.08.54l-1.58.17q-1.38.14-2,.25t-2.05.43l-1.55.35a1.06,1.06,0,0,1-.18-.53q-.07-.43,0-.44a4.12,4.12,0,0,0,1-.4q.68-.34.73-.59a10.79,10.79,0,0,0-.18-2.14L63.37,75a2.89,2.89,0,0,0-.79-1.83,1.35,1.35,0,0,0-.72-.32,3.57,3.57,0,0,0-.73,0c-.2,0-.3,0-.31,0q-.14-.85,0-.91a22.83,22.83,0,0,0,4.23-1.55l.53-.24c.08,0,.15.19.22.6a1.72,1.72,0,0,1,0,.36A5.9,5.9,0,0,1,67,70.09,4.26,4.26,0,0,1,68.54,69.49Zm-.44,1.67a2.25,2.25,0,0,0-1.47.82,2,2,0,0,0-.35,1.6l1,6a1.83,1.83,0,0,0,1,1.41,2.88,2.88,0,0,0,1.8.29,2.79,2.79,0,0,0,2.07-1.61,5.74,5.74,0,0,0,.35-3.61,7.68,7.68,0,0,0-1.6-3.79A2.92,2.92,0,0,0,68.1,71.16Z"/><path class="cls-1" d="M82.68,67.1a5.52,5.52,0,0,1,2.55.13,4.71,4.71,0,0,1,1.93,1.09,6.91,6.91,0,0,1,1.23,1.57A5.14,5.14,0,0,1,89,71.56q.11.65-.08.84a1.69,1.69,0,0,1-.87.31l-7,1.17c-.14,0-.2.09-.17.21a5.76,5.76,0,0,0,.72,2,4.1,4.1,0,0,0,1.59,1.51,3.5,3.5,0,0,0,2.34.36,8.15,8.15,0,0,0,.84-.19,4.43,4.43,0,0,0,.74-.27l.58-.29a2.53,2.53,0,0,0,.5-.35l.35-.32.52-.49a.49.49,0,0,1,.18.15.56.56,0,0,1,.14.28.91.91,0,0,1-.08.59,4.84,4.84,0,0,1-1.47,1.87A5.52,5.52,0,0,1,85,80.21,6,6,0,0,1,80.33,79a6.41,6.41,0,0,1-2.61-4.28,6.88,6.88,0,0,1,.91-5.1A5.76,5.76,0,0,1,82.68,67.1Zm0,1.38a2.1,2.1,0,0,0-1.19.62,2.82,2.82,0,0,0-.68,1.14,5.73,5.73,0,0,0-.24,1.17,3.66,3.66,0,0,0,0,.89q0,.21.21.18l4.75-.79q.26,0,.19-.48a3.85,3.85,0,0,0-1-2A2.13,2.13,0,0,0,82.7,68.48Z"/><path class="cls-1" d="M95.91,64.89a3.65,3.65,0,0,1,2.89.5,4.75,4.75,0,0,1,1.46,3.12l1,5.78a1.36,1.36,0,0,0,.41.85.89.89,0,0,0,.76.19,1.86,1.86,0,0,0,.93-.55c.12,0,.2.12.23.29a1.78,1.78,0,0,1,0,.91,7.42,7.42,0,0,1-1,.93,3.1,3.1,0,0,1-1.34.62,2.17,2.17,0,0,1-1.4-.28,2.44,2.44,0,0,1-1-.94l-.19.23c-.11.13-.26.29-.46.48a8.79,8.79,0,0,1-.68.6,4.75,4.75,0,0,1-.93.56,4.33,4.33,0,0,1-1.13.35,3.55,3.55,0,0,1-2.52-.41,2.82,2.82,0,0,1-1.29-2.06,2.75,2.75,0,0,1,.12-1.38,3.56,3.56,0,0,1,.64-1.15,6.08,6.08,0,0,1,1.13-1,12.2,12.2,0,0,1,1.27-.8L96,71l1.18-.59a.47.47,0,0,0,.19-.51l-.27-1.61a2.55,2.55,0,0,0-.74-1.53A1.55,1.55,0,0,0,95,66.42a1.8,1.8,0,0,0-1.29.77,2.22,2.22,0,0,0-.24,1.62,1,1,0,0,1-.29.94,1.85,1.85,0,0,1-1,.44,1.68,1.68,0,0,1-1.64-.45q-.24-1.41,1.48-3A7.45,7.45,0,0,1,95.91,64.89Zm.56,11.48a2.3,2.3,0,0,0,1.29-.64,1.18,1.18,0,0,0,.42-1l-.5-3q-.19.12-.82.44t-1,.52a8.13,8.13,0,0,0-.75.55,1.8,1.8,0,0,0-.58.76,1.65,1.65,0,0,0-.08.86,1.84,1.84,0,0,0,.7,1.3A1.71,1.71,0,0,0,96.47,76.37Z"/><path class="cls-1" d="M115.89,63.57q-.53.45-1.64,1.63a21.07,21.07,0,0,0-2,2.44q1,.77,2.54,2t2.54,2a14.33,14.33,0,0,0,1.37,1,3.75,3.75,0,0,0,1.23.4,3.62,3.62,0,0,0,1,.07q.12,0,.2.48a1.71,1.71,0,0,1,0,.42l-3.46.43q-.56.09-1.12.22l-1.25.28-1.09.26a.81.81,0,0,1-.21-.51q-.07-.41,0-.43a2.12,2.12,0,0,0,.65-.24q.36-.2.33-.34s0-.06,0-.05L110,69.61l-.34.15.3,1.82a12.14,12.14,0,0,0,.68,2.6c.06.13.35.23.86.29a4.35,4.35,0,0,0,1.06,0q.09,0,.17.41a1.7,1.7,0,0,1,.05.58l-1.57.14q-1.36.14-2,.25t-2,.43l-1.55.38a.88.88,0,0,1-.21-.54q-.07-.44,0-.46a4.17,4.17,0,0,0,1-.4q.68-.34.71-.56a9.67,9.67,0,0,0-.15-2.17l-2-12.17a11.82,11.82,0,0,0-.48-2q-.23-.44-1.6-.21l-.26,0c-.12,0-.2-.13-.25-.44s0-.48.1-.5q.89-.24,1.69-.52t1.31-.52q.52-.24.89-.45l.79-.43h.06a.32.32,0,0,1,.26.12.83.83,0,0,1,.2.28,9.61,9.61,0,0,0,.11,2.82l1.64,9.79a2.7,2.7,0,0,0,.83-.47q.52-.66,1.14-1.38l.9-1q.28-.32.55-.68a2.65,2.65,0,0,0,.34-.56.7.7,0,0,0,0-.37q-.05-.32-.73-.29a2.89,2.89,0,0,1-.68,0,1.31,1.31,0,0,1-.17-.5c0-.21,0-.32.06-.36l2.84-.48q.79-.13,3.09-.64a.47.47,0,0,1,.2.3,1.32,1.32,0,0,1,.06.44c0,.14,0,.22-.1.23A3.9,3.9,0,0,0,115.89,63.57Z"/><path class="cls-1" d="M127.77,68.6a11,11,0,0,0,.67,2.6c.06.13.35.23.86.29a4.4,4.4,0,0,0,1,.05q.12,0,.2.4a1.65,1.65,0,0,1,.05.58l-1.59.14q-1.38.14-2,.25t-2.05.43l-1.52.38a.88.88,0,0,1-.21-.54q-.07-.44,0-.46a4.32,4.32,0,0,0,1-.4q.7-.34.72-.56a9.74,9.74,0,0,0-.15-2.17l-.8-4.78a2.82,2.82,0,0,0-.78-1.8,1.65,1.65,0,0,0-.75-.33,3.12,3.12,0,0,0-.73-.06c-.2,0-.3,0-.31,0q-.14-.85,0-.91a22.76,22.76,0,0,0,2.32-.75A23.2,23.2,0,0,0,126,60l.23-.1c.1,0,.19,0,.27.17a.55.55,0,0,1,.11.31,25.4,25.4,0,0,0,.19,2.56Zm-5.1-11.76a1.82,1.82,0,0,1-.74-1.2,1.84,1.84,0,0,1,3.64-.61,1.81,1.81,0,0,1-.31,1.38,1.83,1.83,0,0,1-2.58.43Z"/><path class="cls-1" d="M139.76,57.56q3.78-.63,4.79,5.38l.47,2.79a12.45,12.45,0,0,0,.65,2.6c.06.13.35.23.88.29a4.58,4.58,0,0,0,1,.05c.06,0,.12.13.17.41a1.7,1.7,0,0,1,.05.58q-.18,0-1.56.14T144.2,70q-.7.12-1.93.41l-1.49.37a.87.87,0,0,1-.21-.54q-.07-.44,0-.46a3.52,3.52,0,0,0,.95-.38q.62-.33.65-.54a8.56,8.56,0,0,0-.12-2.18l-.47-2.79a6.45,6.45,0,0,0-1.23-3.29,2.39,2.39,0,0,0-2.26-.62,2.75,2.75,0,0,0-1.56.79,1.43,1.43,0,0,0-.52,1.22l.84,5a12.46,12.46,0,0,0,.65,2.6c.06.13.34.23.85.29a4.3,4.3,0,0,0,1,.06q.12,0,.2.4a1.69,1.69,0,0,1,.05.58l-1.56.14q-1.32.13-2,.24t-2,.43l-1.55.38a.88.88,0,0,1-.21-.54q-.07-.44,0-.46a4.15,4.15,0,0,0,1-.4q.68-.34.71-.56a9.74,9.74,0,0,0-.15-2.17l-.8-4.78a2.82,2.82,0,0,0-.78-1.8,1.43,1.43,0,0,0-.73-.33,3.36,3.36,0,0,0-.73-.06q-.28,0-.29,0c-.09-.57-.1-.87,0-.9a42.11,42.11,0,0,0,4.57-1.67l.07-.06.08,0h.07q.12,0,.24.17a.93.93,0,0,1,.14.31,10.57,10.57,0,0,0,.06,1.08c0,.08,0,.13.05.14A.44.44,0,0,0,136,60a6.61,6.61,0,0,1,1.6-1.53A5.2,5.2,0,0,1,139.76,57.56Z"/><path class="cls-1" d="M153.21,55.37a9.41,9.41,0,0,1,2.5,0,9.17,9.17,0,0,0,2.41,0l1.67-.28s.13.11.27.35a1.83,1.83,0,0,1,.24.56c0,.27,0,.42-.11.44l-1.91.32c-.08,0-.11,0-.1.11s.13.26.39.72a4.22,4.22,0,0,1,.5,1.36,4.3,4.3,0,0,1-.93,3.37,5.1,5.1,0,0,1-3.39,2,12.26,12.26,0,0,1-1.84.19,1.6,1.6,0,0,0-.56.65,1.27,1.27,0,0,0-.17.77.61.61,0,0,0,.36.45,2,2,0,0,0,.91.15q.6,0,1,0l1.18-.14.44-.07a10.5,10.5,0,0,1,4.43.09,2.34,2.34,0,0,1,1.72,1.93,4.68,4.68,0,0,1-1.47,4.16,8.13,8.13,0,0,1-4.69,2.44,7.73,7.73,0,0,1-3.88-.2,2.67,2.67,0,0,1-2-2.14,2.31,2.31,0,0,1,.56-1.78,4.92,4.92,0,0,1,1.62-1.42,3.39,3.39,0,0,1-1.56-.66,2.16,2.16,0,0,1-.9-1.43q-.21-1.26,1.73-3A3.94,3.94,0,0,1,149.84,63a4.38,4.38,0,0,1-1.13-2.27,4,4,0,0,1,1-3.54A5.91,5.91,0,0,1,153.21,55.37ZM151.69,60a4.71,4.71,0,0,0,1,2.32,1.85,1.85,0,0,0,1.81.71,1.77,1.77,0,0,0,1.46-1.1,3.93,3.93,0,0,0,.17-2.15,4.89,4.89,0,0,0-1-2.42,1.9,1.9,0,0,0-1.86-.68,1.68,1.68,0,0,0-1.4,1.17A4.31,4.31,0,0,0,151.69,60Zm8.13,10q-.17-1-1.71-1.12a18.9,18.9,0,0,0-4,.33l-.14.05-.13.11q-.36.21-.54.35a2.5,2.5,0,0,0-.42.4,1.43,1.43,0,0,0-.31.58,1.72,1.72,0,0,0,0,.73A2.08,2.08,0,0,0,153.93,73a4.64,4.64,0,0,0,2.61.29,4.49,4.49,0,0,0,2.55-1.21A2.32,2.32,0,0,0,159.82,70Z"/><path class="cls-1" d="M187.07,51.94a.86.86,0,0,0-.33-.56,1.31,1.31,0,0,0-.66-.25,5.29,5.29,0,0,0-.7,0,4.29,4.29,0,0,0-.61.06l-.12,0c-.08,0-.15-.13-.21-.42s-.06-.47,0-.54q.38-.06,1.57-.17t1.89-.23c.41-.07.93-.19,1.55-.35s1.08-.27,1.38-.32a1.9,1.9,0,0,1,.14.49q.07.44,0,.46a3.37,3.37,0,0,0-1.1.56,1.82,1.82,0,0,0-.86,1.06l-2.61,11.08a1.17,1.17,0,0,1-.33.49,1,1,0,0,1-.54.29.37.37,0,0,1-.41-.14l-4.93-7.5-1.86,8.18a1.58,1.58,0,0,1-.27.47.9.9,0,0,1-.59.34.44.44,0,0,1-.44-.14q-.93-1.41-2.22-3.44t-2.33-3.57q-1-1.54-2.37-3.34a1.37,1.37,0,0,0-.86-.46,2.87,2.87,0,0,0-1,0q-.12,0-.2-.45t0-.52q.29,0,1.5-.16t1.88-.22q.68-.11,2-.42l1.51-.34a1.62,1.62,0,0,1,.15.52c0,.25,0,.4,0,.42a3.54,3.54,0,0,0-1,.37q-.6.31-.53.72s1.36,2.12,4.06,6.25q.19-.88.44-2l.38-1.69q.13-.58.26-1.17t.17-.89a1.59,1.59,0,0,0,0-.38,2.17,2.17,0,0,0-.58-1.11,1.41,1.41,0,0,0-.72-.36,2.37,2.37,0,0,0-1.08,0c-.08,0-.14-.12-.19-.41s0-.46,0-.53.7-.09,1.47-.15,1.38-.14,1.85-.22,1.06-.21,1.89-.41,1.32-.31,1.48-.34a1.43,1.43,0,0,1,.13.53c0,.29,0,.43,0,.44q-1.5.25-1.33,1.28a47.77,47.77,0,0,0,3.84,6q.26-1.31.68-3.08t.6-2.63A4,4,0,0,0,187.07,51.94Z"/><path class="cls-1" d="M199.2,56.66a11,11,0,0,0,.68,2.6q.09.19.86.29a4.4,4.4,0,0,0,1,.05q.12,0,.2.4a1.65,1.65,0,0,1,.05.58l-1.59.14q-1.38.14-2,.25t-2.05.43l-1.52.38a.88.88,0,0,1-.21-.54c0-.29,0-.45,0-.46a4.32,4.32,0,0,0,1-.4q.7-.34.72-.56a9.74,9.74,0,0,0-.15-2.17l-.8-4.78a2.82,2.82,0,0,0-.78-1.8,1.66,1.66,0,0,0-.75-.33,3.12,3.12,0,0,0-.73-.06c-.2,0-.3,0-.31,0q-.14-.85,0-.91a22.71,22.71,0,0,0,2.32-.75,23.35,23.35,0,0,0,2.23-.92l.22-.1c.1,0,.19,0,.27.17a.55.55,0,0,1,.11.31q.08,1.92.19,2.56ZM194.1,44.9a1.81,1.81,0,0,1-.74-1.2,1.76,1.76,0,0,1,.31-1.36,1.87,1.87,0,0,1,2.58-.43,1.76,1.76,0,0,1,.74,1.19,1.81,1.81,0,0,1-.31,1.38,1.83,1.83,0,0,1-2.58.43Z"/><path class="cls-1" d="M203.66,49l-1.79.3c-.14,0-.25-.22-.33-.73a.74.74,0,0,1,0-.27,8.34,8.34,0,0,0,2-1.93q.32-.44.69-1t.86-1.42a2.12,2.12,0,0,1,.57,0c.18,0,.28.06.29.12l.48,2.87,2.13-.34,1.45-.23c.16,0,.25,0,.28.22a2.89,2.89,0,0,1-.08,1.34l-3.52.59,1.18,7.07a2.82,2.82,0,0,0,.8,1.71,1.7,1.7,0,0,0,1.48.39,2.79,2.79,0,0,0,.6-.18,3.18,3.18,0,0,0,.5-.25l.35-.24.19-.12c.07,0,.18,0,.31.22s.19.3.18.36q-.11.44-1.09,1.16a4.69,4.69,0,0,1-2,.89,3.74,3.74,0,0,1-2.76-.55,4,4,0,0,1-1.58-2.86Z"/><path class="cls-1" d="M221.76,43.85q3.75-.63,4.72,5.15l.5,3a10.93,10.93,0,0,0,.68,2.6c0,.13.33.23.85.3a4.56,4.56,0,0,0,1,.05c.06,0,.12.13.17.41a3.14,3.14,0,0,1,.08.57l-1.59.14c-.92.09-1.59.18-2,.25s-1.14.22-2,.42l-1.52.38a1.1,1.1,0,0,1-.18-.54c0-.29,0-.45,0-.46a3.56,3.56,0,0,0,1-.39q.62-.33.68-.55A11.23,11.23,0,0,0,224,53l-.48-2.87a6.2,6.2,0,0,0-1.22-3.25,2.43,2.43,0,0,0-2.25-.57,2.85,2.85,0,0,0-1.53.77,1.4,1.4,0,0,0-.55,1.24l.84,5a10.9,10.9,0,0,0,.68,2.6q.09.19.85.3a4.23,4.23,0,0,0,1,.06q.09,0,.17.41a1.65,1.65,0,0,1,.05.58l-1.56.14q-1.32.13-2,.24t-2,.43l-1.55.38a.88.88,0,0,1-.21-.54q-.07-.44,0-.46a4.17,4.17,0,0,0,1-.4q.68-.34.71-.56a9.61,9.61,0,0,0-.15-2.15l-2-12.2a11.7,11.7,0,0,0-.48-2q-.23-.44-1.6-.21l-.26,0c-.12,0-.2-.13-.25-.44s0-.48.1-.5q.89-.24,1.69-.52t1.31-.52q.52-.24.89-.45l.79-.43h.06a.32.32,0,0,1,.26.12.83.83,0,0,1,.2.28,9.57,9.57,0,0,0,.11,2.82l1,5.92c0,.12.07.17.15.16s.05,0,.1-.11a5.64,5.64,0,0,1,1.59-1.58A5.47,5.47,0,0,1,221.76,43.85Z"/><path class="cls-1" d="M241,38.34l1.84,11a8.73,8.73,0,0,0,.66,2.3q.21.36,2.06,0l1.08-.18a8,8,0,0,0,3.39-1.2,3.41,3.41,0,0,0,.88-1.2,6.26,6.26,0,0,0,.61-1.94q0-.18.38-.24a1.28,1.28,0,0,1,.85,0q0,.28-.22,1.27t-.28,1.51q-.1.51-.18,1.25A8.4,8.4,0,0,0,252,52.2q-1.17.2-4.87.72t-5.18.84l-3.88.77q-.1-.07-.17-.45c-.06-.33-.05-.5,0-.51a4.89,4.89,0,0,0,1.08-.38q.7-.31.77-.6a10.73,10.73,0,0,0-.24-2.7L237.72,38.8a9,9,0,0,0-.65-2.45q-.16-.21-.9-.32a4,4,0,0,0-1.09,0c-.08,0-.14-.13-.19-.42a1.2,1.2,0,0,1,0-.54l1.64-.18q1.49-.16,2.29-.29l3.72-.8a1.52,1.52,0,0,1,.17.45q.08.5,0,.52a4.87,4.87,0,0,0-1,.41q-.75.37-.78.58A11.11,11.11,0,0,0,241,38.34Z"/><path class="cls-1" d="M260,46.51a10.94,10.94,0,0,0,.68,2.6c.06.13.35.23.86.29a4.38,4.38,0,0,0,1,.05c.08,0,.15.12.2.4a1.68,1.68,0,0,1,.05.58l-1.59.14q-1.38.14-2,.25t-2.05.43l-1.52.38a.88.88,0,0,1-.21-.54c0-.29,0-.45,0-.46a4.31,4.31,0,0,0,1-.4c.46-.23.7-.41.72-.56a9.74,9.74,0,0,0-.15-2.17l-.8-4.78a2.83,2.83,0,0,0-.78-1.8,1.64,1.64,0,0,0-.75-.33,3.12,3.12,0,0,0-.73-.06c-.2,0-.3,0-.31,0q-.14-.85,0-.91a22.82,22.82,0,0,0,2.32-.75,23.22,23.22,0,0,0,2.23-.92l.22-.1c.1,0,.19,0,.27.17a.55.55,0,0,1,.11.31q.08,1.92.19,2.56Zm-5.1-11.76a1.81,1.81,0,0,1-.74-1.2,1.76,1.76,0,0,1,.31-1.36,1.84,1.84,0,0,1,3.32.76,1.81,1.81,0,0,1-.31,1.38,1.83,1.83,0,0,1-2.58.43Z"/><path class="cls-1" d="M268.11,47.8c0,.06.07.1.17.12a.67.67,0,0,0,.21,0l2.84-.48a3,3,0,0,0,2.55-2.78c0-.21.18-.33.46-.38a.63.63,0,0,1,.61.14l.09,3.81-10,1.67q-.65-.25-.7-.58a.17.17,0,0,1,0-.12l5.06-11.37-3.12.46a2.11,2.11,0,0,0-.54.17,2.64,2.64,0,0,0-.44.25,1.75,1.75,0,0,0-.35.34,2.11,2.11,0,0,0-.24.37c-.05.11-.11.24-.17.41s-.11.28-.13.37-.06.2-.09.35a1.5,1.5,0,0,0,0,.25q-.06.19-.7.3c-.21,0-.33,0-.33,0s0-.61,0-1.54-.05-1.69-.11-2.29q1.76-.11,2.81-.29l3.58-.6a31.16,31.16,0,0,0,3.66-.85,2.54,2.54,0,0,1,.18.69l-5.08,11.1A.92.92,0,0,0,268.11,47.8Z"/><path class="cls-1" d="M281.47,33.87a3.65,3.65,0,0,1,2.89.5,4.76,4.76,0,0,1,1.46,3.12l1,5.78a1.36,1.36,0,0,0,.41.85.89.89,0,0,0,.75.19,1.86,1.86,0,0,0,.93-.55c.13,0,.2.12.23.29a1.74,1.74,0,0,1,0,.91,7.4,7.4,0,0,1-1,.93,3.11,3.11,0,0,1-1.34.62,2.17,2.17,0,0,1-1.4-.28,2.44,2.44,0,0,1-1-.94l-.19.23c-.11.13-.26.29-.46.48a8.42,8.42,0,0,1-.68.6,4.7,4.7,0,0,1-.93.56,4.31,4.31,0,0,1-1.13.35,3.55,3.55,0,0,1-2.52-.41A2.82,2.82,0,0,1,277,45a2.75,2.75,0,0,1,.12-1.38,3.57,3.57,0,0,1,.64-1.15,6,6,0,0,1,1.13-1,12.2,12.2,0,0,1,1.27-.8l1.39-.7,1.18-.59a.47.47,0,0,0,.19-.51l-.27-1.61a2.56,2.56,0,0,0-.74-1.53,1.55,1.55,0,0,0-1.36-.38,1.8,1.8,0,0,0-1.29.77A2.22,2.22,0,0,0,279,37.8a1,1,0,0,1-.3.94,1.85,1.85,0,0,1-1,.44,1.68,1.68,0,0,1-1.64-.45q-.24-1.41,1.48-3A7.46,7.46,0,0,1,281.47,33.87ZM282,45.35a2.3,2.3,0,0,0,1.29-.64,1.17,1.17,0,0,0,.42-1l-.5-3q-.19.12-.82.44t-1,.52a8.12,8.12,0,0,0-.75.55,1.8,1.8,0,0,0-.58.76,1.63,1.63,0,0,0-.08.86,1.83,1.83,0,0,0,.7,1.3A1.71,1.71,0,0,0,282,45.35Z"/><path class="cls-1" d="M298.45,31q3.78-.63,4.79,5.38l.47,2.79a12.39,12.39,0,0,0,.65,2.6q.09.2.88.29a4.56,4.56,0,0,0,1,.05c.06,0,.12.13.17.41a1.72,1.72,0,0,1,.05.58q-.18,0-1.56.14t-2.05.25q-.7.12-1.93.41l-1.49.37a.87.87,0,0,1-.21-.54c0-.29,0-.45,0-.46a3.57,3.57,0,0,0,.95-.38c.41-.22.63-.4.65-.55a8.51,8.51,0,0,0-.12-2.18l-.46-2.79a6.45,6.45,0,0,0-1.23-3.29,2.39,2.39,0,0,0-2.26-.62,2.74,2.74,0,0,0-1.56.79,1.43,1.43,0,0,0-.52,1.22l.84,5a12.45,12.45,0,0,0,.65,2.6c.06.13.34.23.85.3a4.31,4.31,0,0,0,1,.06c.08,0,.15.12.2.4a1.7,1.7,0,0,1,.05.58l-1.56.14q-1.32.13-2,.24t-2,.43l-1.55.38a.88.88,0,0,1-.21-.54c0-.29,0-.45,0-.46a4.18,4.18,0,0,0,1-.4q.68-.34.71-.56a9.74,9.74,0,0,0-.15-2.17l-.8-4.78A2.82,2.82,0,0,0,291,35a1.43,1.43,0,0,0-.73-.33,3.36,3.36,0,0,0-.73-.06q-.28,0-.29,0-.14-.85,0-.9A41.91,41.91,0,0,0,293.85,32l.07-.06.08,0h.07c.08,0,.16,0,.24.17a.93.93,0,0,1,.14.31,10.08,10.08,0,0,0,.06,1.07c0,.08,0,.13.05.14a.44.44,0,0,0,.13-.11,6.59,6.59,0,0,1,1.6-1.53A5.19,5.19,0,0,1,298.45,31Z"/><path class="cls-1" d="M313,37.65a11,11,0,0,0,.68,2.6q.09.19.86.29a4.38,4.38,0,0,0,1,.05c.08,0,.15.12.2.4a1.7,1.7,0,0,1,.05.58l-1.59.14q-1.38.14-2,.25t-2.05.43l-1.52.38a.88.88,0,0,1-.21-.54q-.07-.44,0-.46a4.28,4.28,0,0,0,1-.4q.7-.34.72-.56a9.74,9.74,0,0,0-.15-2.17l-.8-4.78a2.83,2.83,0,0,0-.78-1.8,1.65,1.65,0,0,0-.75-.33,3.12,3.12,0,0,0-.73-.06q-.3,0-.31,0-.14-.85,0-.91A22.94,22.94,0,0,0,309,30a23.29,23.29,0,0,0,2.23-.92l.23-.1c.1,0,.19,0,.27.17a.56.56,0,0,1,.11.31q.08,1.92.19,2.56Zm-5.1-11.76a1.81,1.81,0,0,1-.74-1.2,1.76,1.76,0,0,1,.31-1.36,1.84,1.84,0,0,1,3.32.76,1.81,1.81,0,0,1-.31,1.38,1.83,1.83,0,0,1-2.58.43Z"/><path class="cls-1" d="M321.54,27.17a3.65,3.65,0,0,1,2.89.5,4.75,4.75,0,0,1,1.46,3.12l1,5.78a1.36,1.36,0,0,0,.41.85.89.89,0,0,0,.75.19,1.85,1.85,0,0,0,.93-.55c.12,0,.2.12.23.29a1.75,1.75,0,0,1,0,.91,7.43,7.43,0,0,1-1,.93,3.11,3.11,0,0,1-1.34.62,2.18,2.18,0,0,1-1.4-.28,2.44,2.44,0,0,1-1-.94l-.19.23c-.11.13-.26.29-.46.48a8.42,8.42,0,0,1-.68.6,4.68,4.68,0,0,1-.93.56,4.3,4.3,0,0,1-1.13.36,3.55,3.55,0,0,1-2.52-.41,2.82,2.82,0,0,1-1.29-2.06,2.75,2.75,0,0,1,.12-1.38,3.58,3.58,0,0,1,.64-1.15,6.11,6.11,0,0,1,1.13-1,12.27,12.27,0,0,1,1.27-.8l1.39-.7,1.18-.59a.47.47,0,0,0,.19-.51l-.27-1.61a2.55,2.55,0,0,0-.74-1.53,1.55,1.55,0,0,0-1.36-.38,1.8,1.8,0,0,0-1.29.77,2.22,2.22,0,0,0-.24,1.62,1,1,0,0,1-.3.94,1.85,1.85,0,0,1-1,.44,1.67,1.67,0,0,1-1.64-.45q-.24-1.41,1.48-3A7.46,7.46,0,0,1,321.54,27.17Zm.56,11.48A2.3,2.3,0,0,0,323.4,38a1.17,1.17,0,0,0,.42-1l-.5-3q-.19.12-.82.44c-.42.21-.73.38-1,.52a8.23,8.23,0,0,0-.75.55,1.79,1.79,0,0,0-.58.76,1.64,1.64,0,0,0-.08.86,1.83,1.83,0,0,0,.7,1.3A1.71,1.71,0,0,0,322.1,38.65Z"/><path class="cls-1" d="M353.82,29.61a16.5,16.5,0,0,1-.06,2.35,5.16,5.16,0,0,1-.34,2.12,16,16,0,0,1-6.6,2.37,8.93,8.93,0,0,1-7.07-1.74,9.58,9.58,0,0,1-3.86-6.32,10.22,10.22,0,0,1,1.59-7.61,9.15,9.15,0,0,1,6.36-4.12,32.72,32.72,0,0,1,7.05-.36,8.57,8.57,0,0,1,.5,1.89q.4,1.88.48,2.35c0,.29-.16.48-.63.56a1,1,0,0,1-.43,0,4.2,4.2,0,0,0-.61-1,7.66,7.66,0,0,0-1.13-1.11,4.52,4.52,0,0,0-2-.85,8,8,0,0,0-2.86,0,5.16,5.16,0,0,0-4.07,3.12,10.08,10.08,0,0,0-.65,6,10.76,10.76,0,0,0,2.85,6,5.94,5.94,0,0,0,5.52,1.71,5.44,5.44,0,0,0,3.86-2.33,4.08,4.08,0,0,0,.5-1.21c.13-.49.22-.91.27-1.24s.1-.5.14-.51Q353.66,29.37,353.82,29.61Z"/><path class="cls-1" d="M363,20.24a3,3,0,0,1,2.57.57q.42,2.49-1,2.73a1.77,1.77,0,0,1-1.24-.4,1.86,1.86,0,0,0-1.36-.38,1.59,1.59,0,0,0-1.27,1.16,4,4,0,0,0-.19,2l.61,3.67a12.45,12.45,0,0,0,.65,2.6c.06.13.34.23.85.3a4.23,4.23,0,0,0,1,.06q.09,0,.17.41a3.14,3.14,0,0,1,.08.57l-1.57.14q-1.34.13-2,.25t-2,.43l-1.55.38a.87.87,0,0,1-.21-.54c0-.29,0-.45,0-.46a4.12,4.12,0,0,0,1-.4q.68-.34.71-.56a9.74,9.74,0,0,0-.15-2.17l-.8-4.78a2.82,2.82,0,0,0-.78-1.8,1.43,1.43,0,0,0-.73-.33,3.39,3.39,0,0,0-.73-.06c-.19,0-.29,0-.29,0q-.14-.85,0-.9A42.09,42.09,0,0,0,359.39,21l.22-.1c.08,0,.16,0,.24.17a.72.72,0,0,1,.13.33q0,.13,0,.42c0,.19,0,.39,0,.6a3.6,3.6,0,0,0,0,.4,5.43,5.43,0,0,1,1.2-1.66A3.25,3.25,0,0,1,363,20.24Z"/><path class="cls-1" d="M380.65,20.55l1,5.81a6.6,6.6,0,0,0,.58,2,.62.62,0,0,0,.38.18,2.31,2.31,0,0,0,.53,0l.49-.05a.55.55,0,0,1,.25,0c.08,0,.13.09.16.24a2.31,2.31,0,0,1,0,.41c0,.19-.05.29-.13.31a6.84,6.84,0,0,0-1,.28l-1.18.41-1.08.41-1.13.43q-.21,0-.28-.44L379,29.27c0-.09-.07-.14-.11-.13a6.65,6.65,0,0,1-1.57,1.62,5,5,0,0,1-2.22,1,3.11,3.11,0,0,1-1.83-.21,3.58,3.58,0,0,1-1.39-1.09,6.33,6.33,0,0,1-.9-1.6,9.07,9.07,0,0,1-.5-1.82l-.55-3.28a2.83,2.83,0,0,0-.78-1.8,1.65,1.65,0,0,0-.75-.33,3.12,3.12,0,0,0-.73-.06c-.2,0-.3,0-.31,0q-.14-.85,0-.9a22.35,22.35,0,0,0,2.35-.75,23.27,23.27,0,0,0,2.23-.92l.11,0,.11,0c.1,0,.18,0,.26.17a1.11,1.11,0,0,1,.13.31c0,1.36.1,2.23.17,2.62l.59,3.52a6.36,6.36,0,0,0,1.19,3.18,2.62,2.62,0,0,0,3.74-.19,1.58,1.58,0,0,0,.46-1.21l-.81-4.84a2.83,2.83,0,0,0-.78-1.8,1.43,1.43,0,0,0-.73-.33,3.34,3.34,0,0,0-.75-.06c-.2,0-.3,0-.31,0q-.14-.85,0-.91a22.82,22.82,0,0,0,2.32-.75,23.18,23.18,0,0,0,2.23-.92l.22-.1c.1,0,.19,0,.27.17a.55.55,0,0,1,.11.31Q380.57,20,380.65,20.55Z"/><path class="cls-1" d="M389.63,27.49c0,.06.07.1.17.12a.66.66,0,0,0,.21,0l2.84-.48a3,3,0,0,0,2.55-2.78q0-.31.46-.38a.63.63,0,0,1,.61.14l.09,3.81-10,1.67q-.65-.25-.7-.58a.17.17,0,0,1,0-.12L391,17.56l-3.12.46a2.12,2.12,0,0,0-.54.17,2.66,2.66,0,0,0-.44.25,1.75,1.75,0,0,0-.35.34,2.1,2.1,0,0,0-.24.37c-.05.11-.11.24-.17.41s-.11.28-.13.37-.06.2-.09.35a1.37,1.37,0,0,0,0,.25q-.06.19-.7.3c-.21,0-.33,0-.33,0s0-.61,0-1.54-.05-1.69-.11-2.29q1.76-.11,2.81-.29l3.58-.6a31,31,0,0,0,3.66-.85,2.55,2.55,0,0,1,.18.69L389.79,27A.91.91,0,0,0,389.63,27.49Z"/><path class="cls-1" d="M409.41,12.49a3.65,3.65,0,0,1,2.89.5,4.75,4.75,0,0,1,1.46,3.12l1,5.78a1.35,1.35,0,0,0,.41.85.89.89,0,0,0,.75.19,1.86,1.86,0,0,0,.93-.55c.12,0,.2.12.23.29a1.78,1.78,0,0,1,0,.91,7.42,7.42,0,0,1-1,.93,3.1,3.1,0,0,1-1.34.62,2.17,2.17,0,0,1-1.4-.28,2.44,2.44,0,0,1-1-.94l-.19.23c-.11.13-.26.29-.46.48a8.42,8.42,0,0,1-.68.6,4.73,4.73,0,0,1-.93.56,4.32,4.32,0,0,1-1.13.35,3.55,3.55,0,0,1-2.52-.41A2.82,2.82,0,0,1,405,23.66a2.76,2.76,0,0,1,.12-1.38,3.56,3.56,0,0,1,.64-1.15,6.1,6.1,0,0,1,1.13-1,12.2,12.2,0,0,1,1.27-.8q.54-.28,1.39-.7l1.18-.59a.47.47,0,0,0,.19-.51l-.27-1.61a2.55,2.55,0,0,0-.74-1.53,1.55,1.55,0,0,0-1.36-.38,1.8,1.8,0,0,0-1.29.77,2.22,2.22,0,0,0-.24,1.62,1,1,0,0,1-.3.94,1.85,1.85,0,0,1-1,.45,1.68,1.68,0,0,1-1.64-.45q-.24-1.41,1.48-3A7.46,7.46,0,0,1,409.41,12.49ZM410,24a2.31,2.31,0,0,0,1.29-.64,1.18,1.18,0,0,0,.42-1l-.5-3q-.19.12-.82.44c-.42.21-.73.38-1,.52a8,8,0,0,0-.75.55,1.79,1.79,0,0,0-.58.76,1.63,1.63,0,0,0-.08.86,1.83,1.83,0,0,0,.7,1.3A1.71,1.71,0,0,0,410,24Z"/><path class="cls-1" d="M424.28,10a6,6,0,0,1,3.42.38,6.23,6.23,0,0,1,2.59,2,6.34,6.34,0,0,1,1.24,2.82,6.79,6.79,0,0,1-1.22,5.25A6.56,6.56,0,0,1,426,23.25a9.32,9.32,0,0,1-2.18.14,6.5,6.5,0,0,0-1.41,0,2.27,2.27,0,0,0-.73.33,2.93,2.93,0,0,1-.55.3,1.4,1.4,0,0,1-.45-.1q-.37-.12-.39-.24c0-.06,0-.24,0-.54s0-.73-.07-1.29a16.56,16.56,0,0,0-.21-1.8l-2-12a10.4,10.4,0,0,0-.51-2q-.23-.44-1.6-.21l-.26,0q-.18,0-.25-.44t.1-.5q.89-.24,1.69-.52T418.41,4q.52-.24.89-.45l.79-.43h.06a.32.32,0,0,1,.26.12.82.82,0,0,1,.2.28,10.35,10.35,0,0,0,.14,2.81l.78,4.69v0l0,.13a.92.92,0,0,0,0,.13c0,.06,0,.08.07.08l.1,0a5.39,5.39,0,0,1,1.09-.79A4.27,4.27,0,0,1,424.28,10Zm-.38,1.69a2.3,2.3,0,0,0-1.49.82,1.74,1.74,0,0,0-.4,1.42l1,6.22a1.78,1.78,0,0,0,1,1.42,3.22,3.22,0,0,0,1.92.22A2.53,2.53,0,0,0,428.09,20a6.82,6.82,0,0,0,.22-3.47,7.63,7.63,0,0,0-1.58-3.84A2.91,2.91,0,0,0,423.9,11.69Z"/><path class="cls-1" d="M439.13,7.52a6.55,6.55,0,0,1,5,1.13A6.37,6.37,0,0,1,446.88,13a6.73,6.73,0,0,1-13.28,2.22,6.4,6.4,0,0,1,1.14-5A6.51,6.51,0,0,1,439.13,7.52ZM439,9a2.39,2.39,0,0,0-1.92,1.69,6.39,6.39,0,0,0-.23,3.31,8.66,8.66,0,0,0,1.64,4,3,3,0,0,0,2.95,1.32,2.43,2.43,0,0,0,1.93-1.71,6.32,6.32,0,0,0,.25-3.3,10.18,10.18,0,0,0-.85-2.77,5.25,5.25,0,0,0-1.6-2A2.76,2.76,0,0,0,439,9Z"/><path class="cls-1" d="M461,7.12l1,5.81a6.64,6.64,0,0,0,.58,2,.62.62,0,0,0,.38.18,2.28,2.28,0,0,0,.53,0l.49-.05a.56.56,0,0,1,.25,0c.08,0,.13.09.16.24a2.32,2.32,0,0,1,0,.41c0,.19-.05.29-.13.31a6.83,6.83,0,0,0-1,.28l-1.18.41-1.08.41-1.13.43q-.21,0-.28-.43l-.21-1.29c0-.09-.07-.14-.11-.13a6.66,6.66,0,0,1-1.57,1.62,5,5,0,0,1-2.22,1,3.12,3.12,0,0,1-1.83-.21A3.58,3.58,0,0,1,452.22,17a6.32,6.32,0,0,1-.9-1.6,9.09,9.09,0,0,1-.5-1.82l-.55-3.28a2.83,2.83,0,0,0-.78-1.8,1.65,1.65,0,0,0-.75-.33,3.12,3.12,0,0,0-.73-.06q-.3,0-.31,0c-.09-.57-.1-.87,0-.9A22.51,22.51,0,0,0,450,6.42a23.4,23.4,0,0,0,2.23-.92l.11,0,.11,0c.1,0,.18,0,.26.17a1.09,1.09,0,0,1,.13.31q.07,2,.17,2.62l.59,3.52a6.36,6.36,0,0,0,1.19,3.18,2.63,2.63,0,0,0,3.74-.19,1.58,1.58,0,0,0,.46-1.21L458.21,9a2.82,2.82,0,0,0-.78-1.8,1.43,1.43,0,0,0-.73-.33,3.34,3.34,0,0,0-.75-.06c-.2,0-.3,0-.31,0-.09-.57-.09-.87,0-.91A22.91,22.91,0,0,0,458,5.09a23.4,23.4,0,0,0,2.23-.92l.22-.1c.1,0,.19,0,.27.17a.56.56,0,0,1,.11.31Q460.92,6.59,461,7.12Z"/><path class="cls-1" d="M466.29,5.09l-1.79.3c-.14,0-.25-.22-.33-.73a.75.75,0,0,1,0-.27,8.34,8.34,0,0,0,2-1.93c.21-.3.44-.63.69-1s.54-.85.86-1.43a2.11,2.11,0,0,1,.57,0c.18,0,.28.06.29.12L469,3l2.13-.34,1.45-.23c.16,0,.25,0,.28.22A2.89,2.89,0,0,1,472.82,4l-3.52.59,1.18,7.07a2.82,2.82,0,0,0,.8,1.71,1.7,1.7,0,0,0,1.48.39,2.82,2.82,0,0,0,.6-.18,3.13,3.13,0,0,0,.5-.25l.35-.24a.91.91,0,0,1,.19-.12c.07,0,.18,0,.31.22s.19.3.18.36q-.11.44-1.09,1.16a4.69,4.69,0,0,1-2,.89A3.75,3.75,0,0,1,469,15a4,4,0,0,1-1.58-2.86Z"/><path class="cls-1" d="M5.38,115.66a7.18,7.18,0,0,1,2.86.05,4.74,4.74,0,0,1,1.93.84,3.68,3.68,0,0,1-.06,1.71,1.1,1.1,0,0,1-.9.83,1.33,1.33,0,0,1-.94-.15,3.35,3.35,0,0,1-.85-.85,2.15,2.15,0,0,0-2.19-1,2.29,2.29,0,0,0-1.8,1.61A6.36,6.36,0,0,0,3.21,122a6,6,0,0,0,1.73,3.74,3.51,3.51,0,0,0,3,.82,8,8,0,0,0,.84-.19,4.39,4.39,0,0,0,.74-.27l.58-.29a2.53,2.53,0,0,0,.5-.35l.35-.31.52-.49a.5.5,0,0,1,.18.15.57.57,0,0,1,.14.28.91.91,0,0,1-.08.59,4.84,4.84,0,0,1-1.47,1.87,5.46,5.46,0,0,1-2.74,1.27,6,6,0,0,1-4.76-1.17A6.56,6.56,0,0,1,.1,123.28a6.76,6.76,0,0,1,1-4.91A6,6,0,0,1,5.38,115.66Z"/><path class="cls-1" d="M18.29,113.52a3.65,3.65,0,0,1,2.89.5,4.76,4.76,0,0,1,1.45,3.12l1,5.78a1.36,1.36,0,0,0,.41.85.89.89,0,0,0,.75.19,1.85,1.85,0,0,0,.93-.55c.12,0,.2.12.23.29a1.76,1.76,0,0,1,0,.91,7.35,7.35,0,0,1-1.05.93,3.1,3.1,0,0,1-1.34.61,2.17,2.17,0,0,1-1.4-.28,2.43,2.43,0,0,1-1-.94l-.19.23q-.16.19-.46.48a8.54,8.54,0,0,1-.69.6,4.71,4.71,0,0,1-.93.56,4.31,4.31,0,0,1-1.13.35,3.54,3.54,0,0,1-2.52-.41,2.83,2.83,0,0,1-1.29-2.06,2.76,2.76,0,0,1,.12-1.38,3.56,3.56,0,0,1,.64-1.15,6.09,6.09,0,0,1,1.13-1,12.25,12.25,0,0,1,1.27-.8q.54-.28,1.39-.7l1.18-.59a.47.47,0,0,0,.19-.51L19.5,117a2.55,2.55,0,0,0-.74-1.54,1.55,1.55,0,0,0-1.36-.38,1.8,1.8,0,0,0-1.29.77,2.23,2.23,0,0,0-.24,1.62,1,1,0,0,1-.3.94,1.84,1.84,0,0,1-1,.44,1.68,1.68,0,0,1-1.64-.45q-.23-1.41,1.48-3A7.45,7.45,0,0,1,18.29,113.52ZM18.84,125a2.31,2.31,0,0,0,1.3-.64,1.18,1.18,0,0,0,.42-1l-.5-3q-.19.12-.82.44t-1,.52a8.06,8.06,0,0,0-.75.55,1.79,1.79,0,0,0-.58.76,1.64,1.64,0,0,0-.08.86,1.83,1.83,0,0,0,.7,1.3A1.71,1.71,0,0,0,18.84,125Z"/><path class="cls-1" d="M27.73,114.06l-1.79.3q-.21,0-.33-.73a.72.72,0,0,1,0-.27,8.31,8.31,0,0,0,2-1.93q.32-.44.69-1t.86-1.42a2.12,2.12,0,0,1,.57,0q.28,0,.29.12l.48,2.87,2.13-.34,1.45-.23c.16,0,.25,0,.28.23a2.89,2.89,0,0,1-.08,1.34l-3.52.58,1.17,7.07a2.83,2.83,0,0,0,.79,1.71,1.7,1.7,0,0,0,1.48.39,2.79,2.79,0,0,0,.6-.18,3.14,3.14,0,0,0,.5-.25l.35-.24.19-.12q.11,0,.31.22c.13.18.19.3.18.36q-.11.44-1.09,1.16a4.68,4.68,0,0,1-2,.89,3.75,3.75,0,0,1-2.76-.55,4,4,0,0,1-1.57-2.86Z"/><path class="cls-1" d="M42.27,109.55a5.52,5.52,0,0,1,2.55.13,4.71,4.71,0,0,1,1.93,1.1A6.94,6.94,0,0,1,48,112.35a5.11,5.11,0,0,1,.61,1.66q.11.65-.09.84a1.68,1.68,0,0,1-.87.31l-7,1.16c-.14,0-.2.09-.18.21a5.75,5.75,0,0,0,.72,2A4.08,4.08,0,0,0,42.76,120a3.5,3.5,0,0,0,2.34.37,8.14,8.14,0,0,0,.84-.19,4.47,4.47,0,0,0,.74-.27l.58-.29a2.53,2.53,0,0,0,.5-.35l.35-.31.52-.49a.49.49,0,0,1,.18.15.57.57,0,0,1,.14.28.91.91,0,0,1-.08.59,4.85,4.85,0,0,1-1.47,1.87,5.52,5.52,0,0,1-2.77,1.27,6,6,0,0,1-4.71-1.16,6.42,6.42,0,0,1-2.61-4.28,6.88,6.88,0,0,1,.92-5.09A5.76,5.76,0,0,1,42.27,109.55Zm0,1.38a2.1,2.1,0,0,0-1.19.62,2.8,2.8,0,0,0-.68,1.14,5.67,5.67,0,0,0-.24,1.17,3.68,3.68,0,0,0,0,.89c0,.14.09.2.21.18l4.75-.79q.26,0,.19-.48a3.85,3.85,0,0,0-1-2A2.13,2.13,0,0,0,42.29,110.93Z"/><path class="cls-1" d="M55,107.51a9.43,9.43,0,0,1,2.5,0,9.17,9.17,0,0,0,2.41,0l1.67-.28s.13.11.27.35a1.82,1.82,0,0,1,.24.56c0,.27,0,.42-.11.44l-1.91.32c-.08,0-.11,0-.1.11s.13.26.39.72a4.21,4.21,0,0,1,.5,1.36,4.3,4.3,0,0,1-.93,3.36,5.09,5.09,0,0,1-3.39,2,12.22,12.22,0,0,1-1.84.18,1.6,1.6,0,0,0-.56.65,1.27,1.27,0,0,0-.17.77.61.61,0,0,0,.36.45,2,2,0,0,0,.91.15q.6,0,1,0l1.18-.14.44-.07a10.49,10.49,0,0,1,4.43.1A2.34,2.34,0,0,1,64,120.38a4.68,4.68,0,0,1-1.48,4.16A8.12,8.12,0,0,1,57.82,127a7.73,7.73,0,0,1-3.87-.2,2.67,2.67,0,0,1-2-2.14,2.31,2.31,0,0,1,.56-1.78,4.93,4.93,0,0,1,1.62-1.41,3.39,3.39,0,0,1-1.56-.66,2.17,2.17,0,0,1-.9-1.43q-.21-1.26,1.74-3a3.94,3.94,0,0,1-1.83-1.25,4.37,4.37,0,0,1-1.13-2.27,4,4,0,0,1,1-3.54A5.91,5.91,0,0,1,55,107.51Zm-1.52,4.62a4.7,4.7,0,0,0,1,2.32,1.85,1.85,0,0,0,1.81.71,1.77,1.77,0,0,0,1.46-1.1,3.94,3.94,0,0,0,.17-2.15,4.88,4.88,0,0,0-1-2.42A1.9,1.9,0,0,0,55,108.8a1.68,1.68,0,0,0-1.4,1.17A4.31,4.31,0,0,0,53.43,112.13Zm8.11,10q-.17-1-1.71-1.12a18.9,18.9,0,0,0-4,.32l-.14.05-.13.11c-.24.14-.42.25-.54.35a2.54,2.54,0,0,0-.42.4,1.43,1.43,0,0,0-.31.58,1.74,1.74,0,0,0,0,.73,2.08,2.08,0,0,0,1.41,1.58,4.64,4.64,0,0,0,2.61.29,4.5,4.5,0,0,0,2.56-1.21A2.32,2.32,0,0,0,61.54,122.17Z"/><path class="cls-1" d="M70.26,104.91a6.55,6.55,0,0,1,5,1.14A6.37,6.37,0,0,1,78,110.38a6.78,6.78,0,1,1-7.75-5.47Zm-.15,1.44A2.39,2.39,0,0,0,68.19,108a6.39,6.39,0,0,0-.24,3.31,8.67,8.67,0,0,0,1.64,4,3,3,0,0,0,2.95,1.32,2.42,2.42,0,0,0,1.93-1.71,6.32,6.32,0,0,0,.25-3.3,10.22,10.22,0,0,0-.85-2.77,5.24,5.24,0,0,0-1.59-2A2.75,2.75,0,0,0,70.11,106.35Z"/><path class="cls-1" d="M87.4,102.07a3,3,0,0,1,2.57.57q.41,2.49-1,2.73a1.76,1.76,0,0,1-1.24-.4,1.86,1.86,0,0,0-1.36-.38,1.59,1.59,0,0,0-1.27,1.16,3.94,3.94,0,0,0-.2,2l.61,3.67a12.52,12.52,0,0,0,.64,2.61c.06.13.34.23.85.3a4.21,4.21,0,0,0,1,.06q.09,0,.17.41a3.11,3.11,0,0,1,.08.58l-1.57.14q-1.33.13-2,.24t-2,.43l-1.55.38a.88.88,0,0,1-.21-.54q-.07-.44,0-.46a4.16,4.16,0,0,0,1-.4q.68-.34.71-.55a9.77,9.77,0,0,0-.15-2.17l-.79-4.78a2.82,2.82,0,0,0-.78-1.8,1.43,1.43,0,0,0-.73-.33,3.41,3.41,0,0,0-.73-.06c-.19,0-.29,0-.29,0-.09-.57-.09-.87,0-.9a42,42,0,0,0,4.58-1.66l.23-.1c.08,0,.16,0,.24.17a.72.72,0,0,1,.13.33l0,.42c0,.19,0,.39,0,.6a3.87,3.87,0,0,0,0,.4,5.48,5.48,0,0,1,1.2-1.66A3.26,3.26,0,0,1,87.4,102.07Z"/><path class="cls-1" d="M98.39,109.29a11,11,0,0,0,.67,2.6q.09.2.86.29a4.38,4.38,0,0,0,1,.05q.12,0,.2.4a1.7,1.7,0,0,1,.05.58l-1.59.14c-.92.09-1.59.17-2,.24s-1.17.22-2.05.43l-1.52.37a.88.88,0,0,1-.21-.54q-.07-.44,0-.46a4.33,4.33,0,0,0,1-.39q.7-.34.72-.56a9.77,9.77,0,0,0-.15-2.17l-.79-4.78a2.83,2.83,0,0,0-.78-1.8,1.65,1.65,0,0,0-.75-.33,3.15,3.15,0,0,0-.73-.06c-.2,0-.3,0-.31,0-.09-.57-.08-.87,0-.91a22.76,22.76,0,0,0,2.32-.75,23.15,23.15,0,0,0,2.23-.91l.23-.1c.1,0,.19,0,.27.17a.54.54,0,0,1,.11.31,25.49,25.49,0,0,0,.18,2.56ZM93.31,97.52a1.81,1.81,0,0,1-.74-1.2,1.83,1.83,0,0,1,1.52-2.1,1.78,1.78,0,0,1,1.38.31,1.76,1.76,0,0,1,.74,1.19,1.81,1.81,0,0,1-.31,1.38,1.83,1.83,0,0,1-2.58.43Z"/><path class="cls-1" d="M106.54,110.59c0,.06.07.1.17.12a.67.67,0,0,0,.21,0l2.85-.47a3,3,0,0,0,2.55-2.77q0-.31.46-.38a.63.63,0,0,1,.61.14l.09,3.81-10,1.65q-.65-.25-.7-.58a.18.18,0,0,1,0-.12l5.08-11.36-3.12.46a2.12,2.12,0,0,0-.54.17,2.7,2.7,0,0,0-.44.25,1.74,1.74,0,0,0-.35.34,2,2,0,0,0-.24.37c-.05.11-.11.24-.17.41s-.11.28-.13.37-.06.2-.09.35a1.23,1.23,0,0,0,0,.25q-.06.19-.7.3c-.22,0-.33,0-.33,0s0-.61,0-1.54,0-1.69-.11-2.29q1.76-.11,2.82-.29L108,99.2a31.19,31.19,0,0,0,3.66-.85,2.5,2.5,0,0,1,.18.69l-5.09,11.09A.91.91,0,0,0,106.54,110.59Z"/><path class="cls-1" d="M120.43,105.64a11,11,0,0,0,.67,2.6q.09.2.86.29a4.41,4.41,0,0,0,1,.05q.12,0,.2.4a1.67,1.67,0,0,1,.05.58l-1.59.14q-1.38.14-2,.24t-2.05.43l-1.52.37a.88.88,0,0,1-.21-.54q-.07-.44,0-.46a4.32,4.32,0,0,0,1-.39q.7-.34.72-.56a9.66,9.66,0,0,0-.15-2.17l-.79-4.78a2.83,2.83,0,0,0-.78-1.8,1.65,1.65,0,0,0-.75-.33,3.16,3.16,0,0,0-.73-.06q-.3,0-.31,0-.14-.85,0-.91a22.78,22.78,0,0,0,2.32-.75,23.35,23.35,0,0,0,2.23-.91l.22-.1c.1,0,.19,0,.27.17a.55.55,0,0,1,.11.31,25.49,25.49,0,0,0,.18,2.56Zm-5.08-11.77a1.81,1.81,0,0,1-.74-1.2,1.76,1.76,0,0,1,.32-1.36,1.84,1.84,0,0,1,3.32.76,1.81,1.81,0,0,1-.31,1.38,1.83,1.83,0,0,1-2.58.43Z"/><path class="cls-1" d="M132.44,94.61q3.78-.63,4.78,5.39l.46,2.79a12.44,12.44,0,0,0,.64,2.61q.09.2.88.29a4.57,4.57,0,0,0,1,.05c.06,0,.12.13.17.41a1.7,1.7,0,0,1,.05.58q-.18,0-1.56.14t-2.05.25q-.7.12-1.94.41l-1.49.37a.87.87,0,0,1-.21-.54q-.07-.44,0-.46a3.54,3.54,0,0,0,.95-.38c.42-.22.63-.4.65-.54a8.5,8.5,0,0,0-.12-2.18l-.46-2.79a6.46,6.46,0,0,0-1.22-3.29,2.39,2.39,0,0,0-2.26-.62,2.75,2.75,0,0,0-1.56.79,1.43,1.43,0,0,0-.52,1.22l.84,5a12.45,12.45,0,0,0,.64,2.61q.09.2.85.3a4.34,4.34,0,0,0,1,.06q.12,0,.2.4a1.68,1.68,0,0,1,.05.58l-1.56.14q-1.32.13-2,.24t-2,.43l-1.55.38a.88.88,0,0,1-.21-.54q-.07-.44,0-.46a4.16,4.16,0,0,0,1-.4q.68-.34.71-.55a9.66,9.66,0,0,0-.15-2.17l-.79-4.78a2.83,2.83,0,0,0-.78-1.8,1.44,1.44,0,0,0-.73-.33,3.34,3.34,0,0,0-.73-.06c-.19,0-.29,0-.29,0q-.14-.85,0-.9a42.18,42.18,0,0,0,4.58-1.66l.07-.06.08,0h.07c.08,0,.16,0,.24.17a.91.91,0,0,1,.14.31A9.83,9.83,0,0,0,128.5,97a.24.24,0,0,0,.05.14.42.42,0,0,0,.13-.11,6.6,6.6,0,0,1,1.6-1.53A5.21,5.21,0,0,1,132.44,94.61Z"/><path class="cls-1" d="M145.89,92.44a9.43,9.43,0,0,1,2.5,0,9.17,9.17,0,0,0,2.41,0l1.67-.28s.13.11.27.35A1.82,1.82,0,0,1,153,93q.07.41-.11.44L151,93.8c-.08,0-.11,0-.1.11s.13.26.39.72a4.23,4.23,0,0,1,.5,1.36,4.3,4.3,0,0,1-.93,3.36,5.1,5.1,0,0,1-3.39,2,12.36,12.36,0,0,1-1.84.18,1.61,1.61,0,0,0-.56.65,1.27,1.27,0,0,0-.17.77.61.61,0,0,0,.36.45,2,2,0,0,0,.91.15q.6,0,1,0l1.18-.14.44-.07a10.5,10.5,0,0,1,4.43.09,2.34,2.34,0,0,1,1.72,1.93,4.68,4.68,0,0,1-1.48,4.16,8.13,8.13,0,0,1-4.69,2.43,7.73,7.73,0,0,1-3.88-.2,2.67,2.67,0,0,1-2-2.14,2.31,2.31,0,0,1,.56-1.78,4.91,4.91,0,0,1,1.62-1.41,3.4,3.4,0,0,1-1.56-.66,2.17,2.17,0,0,1-.9-1.43q-.21-1.26,1.74-3a3.94,3.94,0,0,1-1.83-1.25,4.38,4.38,0,0,1-1.13-2.27,4,4,0,0,1,1-3.54A5.91,5.91,0,0,1,145.89,92.44Zm-1.52,4.62a4.69,4.69,0,0,0,1,2.32,1.84,1.84,0,0,0,1.8.71,1.77,1.77,0,0,0,1.46-1.1,3.94,3.94,0,0,0,.17-2.15,4.88,4.88,0,0,0-1-2.43,1.9,1.9,0,0,0-1.86-.69,1.68,1.68,0,0,0-1.4,1.17A4.32,4.32,0,0,0,144.37,97.06Zm8.11,10q-.17-1-1.71-1.12a18.9,18.9,0,0,0-4,.32l-.14.05-.13.11q-.36.21-.54.35a2.47,2.47,0,0,0-.42.4,1.44,1.44,0,0,0-.31.58,1.74,1.74,0,0,0,0,.73,2.08,2.08,0,0,0,1.41,1.58,4.63,4.63,0,0,0,2.61.29,4.49,4.49,0,0,0,2.56-1.21A2.31,2.31,0,0,0,152.48,107.11Z"/><path class="cls-1" d="M167.68,97.81a11,11,0,0,0,.67,2.6c.06.13.35.23.86.29a4.41,4.41,0,0,0,1,.05q.12,0,.2.4a1.67,1.67,0,0,1,.05.58l-1.59.14q-1.38.14-2,.24t-2.05.43l-1.52.37a.88.88,0,0,1-.21-.54c0-.29,0-.45,0-.46a4.34,4.34,0,0,0,1-.39q.7-.34.72-.56a9.77,9.77,0,0,0-.15-2.17L164,94a2.83,2.83,0,0,0-.78-1.8,1.66,1.66,0,0,0-.75-.33,3.14,3.14,0,0,0-.73-.06c-.2,0-.3,0-.31,0q-.14-.85,0-.91a22.94,22.94,0,0,0,2.32-.75,23.31,23.31,0,0,0,2.23-.91l.23-.1c.1,0,.19,0,.27.17a.54.54,0,0,1,.11.31q.08,1.92.18,2.56ZM162.6,86a1.81,1.81,0,0,1-.74-1.2,1.84,1.84,0,0,1,3.64-.6,1.81,1.81,0,0,1-.31,1.38,1.83,1.83,0,0,1-2.58.43Z"/><path class="cls-1" d="M176.69,87.22a5.13,5.13,0,0,1,2.21.06q.15,0,.07-.49L178.51,84a10.34,10.34,0,0,0-.51-2q-.22-.44-1.6-.22l-.23,0q-.18,0-.25-.44c-.05-.31,0-.48.1-.5q.87-.23,1.68-.52T179,79.9q.52-.24.89-.45l.56-.32.22-.11h.06a.32.32,0,0,1,.26.12.54.54,0,0,1,.17.29,11.36,11.36,0,0,0,.16,2.81l2.14,12.9a10.86,10.86,0,0,0,.54,2.14.44.44,0,0,0,.35.27,1.81,1.81,0,0,0,.58.05l.57,0,.3,0s.08.15.12.34q.1.59-.08.62-.4.1-1,.29l-1.2.4-1.11.39-1.18.45q-.18,0-.26-.47L181,99c0-.06,0-.1-.06-.11a.05.05,0,0,0-.07,0,5,5,0,0,1-2.87,1.59,5.76,5.76,0,0,1-4.42-1.06,6,6,0,0,1-2.49-4.09,7,7,0,0,1,1.19-5.3A6.51,6.51,0,0,1,176.69,87.22Zm0,1.45a2.6,2.6,0,0,0-2.13,1.71,7,7,0,0,0-.2,3.68,7.18,7.18,0,0,0,1.55,3.74,2.92,2.92,0,0,0,2.78,1,2.47,2.47,0,0,0,1.53-.78,1.65,1.65,0,0,0,.4-1.41l-1-6.16a2,2,0,0,0-.21-.6,2.78,2.78,0,0,0-.47-.63,1.9,1.9,0,0,0-.89-.48A3.16,3.16,0,0,0,176.66,88.67Z"/><path class="cls-1" d="M191.67,84.8a5.51,5.51,0,0,1,2.55.13,4.71,4.71,0,0,1,1.93,1.1,6.89,6.89,0,0,1,1.23,1.58,5.13,5.13,0,0,1,.61,1.66q.11.65-.09.84a1.69,1.69,0,0,1-.87.31l-7,1.16c-.14,0-.2.09-.18.21a5.77,5.77,0,0,0,.72,2,4.08,4.08,0,0,0,1.59,1.51,3.5,3.5,0,0,0,2.34.37,8.07,8.07,0,0,0,.84-.19,4.47,4.47,0,0,0,.74-.27l.58-.29a2.56,2.56,0,0,0,.5-.35l.35-.31.52-.49a.48.48,0,0,1,.18.15.59.59,0,0,1,.14.28.92.92,0,0,1-.08.59,4.84,4.84,0,0,1-1.47,1.87A5.52,5.52,0,0,1,194,97.91a6,6,0,0,1-4.71-1.16,6.41,6.41,0,0,1-2.61-4.28,6.88,6.88,0,0,1,.92-5.09A5.76,5.76,0,0,1,191.67,84.8Zm0,1.38a2.1,2.1,0,0,0-1.19.62,2.8,2.8,0,0,0-.68,1.14,5.68,5.68,0,0,0-.24,1.17,3.68,3.68,0,0,0,0,.89c0,.14.09.2.21.18l4.75-.79c.18,0,.24-.19.19-.48a3.85,3.85,0,0,0-1-2A2.13,2.13,0,0,0,191.68,86.18Z"/><path class="cls-1" d="M208.33,82q3.78-.63,4.78,5.39l.46,2.79a12.45,12.45,0,0,0,.64,2.61q.09.2.88.29a4.55,4.55,0,0,0,1,.05q.09,0,.17.41a1.69,1.69,0,0,1,0,.58c-.12,0-.64,0-1.56.14s-1.6.17-2.05.25-1.11.21-1.94.41l-1.49.37a.87.87,0,0,1-.21-.54q-.07-.44,0-.46a3.55,3.55,0,0,0,.95-.38c.42-.22.63-.4.65-.54a8.45,8.45,0,0,0-.12-2.18l-.46-2.79a6.44,6.44,0,0,0-1.22-3.29,2.39,2.39,0,0,0-2.26-.62,2.75,2.75,0,0,0-1.56.79,1.43,1.43,0,0,0-.52,1.22l.83,5a12.44,12.44,0,0,0,.64,2.61c.06.13.34.23.85.3a4.3,4.3,0,0,0,1,.06q.12,0,.2.4a1.7,1.7,0,0,1,.05.58l-1.56.14q-1.32.13-2,.24t-2,.43l-1.55.38a.88.88,0,0,1-.21-.54q-.07-.44,0-.46a4.16,4.16,0,0,0,1-.4q.68-.34.71-.55a9.71,9.71,0,0,0-.15-2.17l-.79-4.78a2.83,2.83,0,0,0-.78-1.8,1.44,1.44,0,0,0-.73-.33,3.41,3.41,0,0,0-.73-.06c-.19,0-.29,0-.29,0q-.14-.85,0-.9A42,42,0,0,0,203.73,83l.07-.06.08,0H204c.08,0,.16,0,.24.17a.9.9,0,0,1,.14.31,9.83,9.83,0,0,0,.06,1.08.24.24,0,0,0,.05.14.45.45,0,0,0,.13-.11,6.59,6.59,0,0,1,1.6-1.53A5.2,5.2,0,0,1,208.33,82Z"/><path class="cls-1" d="M218.21,82.51l-1.79.3c-.14,0-.25-.22-.33-.73a.75.75,0,0,1,0-.27,8.35,8.35,0,0,0,2-1.93q.32-.44.69-1t.86-1.42a2.13,2.13,0,0,1,.57,0c.18,0,.28.06.29.12l.48,2.87,2.13-.34,1.45-.23c.16,0,.25,0,.28.23a2.88,2.88,0,0,1-.08,1.34l-3.52.58,1.17,7.07a2.81,2.81,0,0,0,.79,1.71,1.7,1.7,0,0,0,1.48.39,2.85,2.85,0,0,0,.61-.18,3.17,3.17,0,0,0,.5-.25l.35-.24.19-.12c.07,0,.18,0,.31.22s.19.3.18.36q-.11.44-1.09,1.16a4.68,4.68,0,0,1-2,.89,3.75,3.75,0,0,1-2.76-.55,4,4,0,0,1-1.57-2.86Z"/><path class="cls-1" d="M233.41,86.92a11,11,0,0,0,.67,2.6q.09.2.86.29a4.38,4.38,0,0,0,1,.05q.12,0,.2.4a1.66,1.66,0,0,1,0,.58l-1.59.14q-1.38.14-2,.24t-2.05.43L229,92a.88.88,0,0,1-.21-.54q-.07-.44,0-.46a4.31,4.31,0,0,0,1-.39q.7-.34.72-.56a9.65,9.65,0,0,0-.15-2.17l-.79-4.78a2.83,2.83,0,0,0-.78-1.8,1.66,1.66,0,0,0-.75-.33,3.15,3.15,0,0,0-.73-.06q-.3,0-.31,0-.14-.85,0-.91a22.91,22.91,0,0,0,2.32-.75,23.2,23.2,0,0,0,2.23-.91l.23-.1c.1,0,.19,0,.27.17a.55.55,0,0,1,.11.31q.08,1.92.18,2.56Zm-5.08-11.77a1.81,1.81,0,0,1-.74-1.2,1.83,1.83,0,0,1,1.52-2.1,1.78,1.78,0,0,1,1.38.31,1.76,1.76,0,0,1,.74,1.19,1.81,1.81,0,0,1-.31,1.38,1.83,1.83,0,0,1-2.58.43Z"/><path class="cls-1" d="M237.88,79.25l-1.79.3c-.14,0-.25-.22-.33-.73a.79.79,0,0,1,0-.27,8.33,8.33,0,0,0,2-1.93q.32-.44.69-1t.86-1.42a2.1,2.1,0,0,1,.57,0q.28,0,.29.12l.48,2.87,2.13-.34,1.45-.23c.16,0,.25,0,.28.23a2.88,2.88,0,0,1-.08,1.34l-3.52.58,1.17,7.07a2.82,2.82,0,0,0,.8,1.71,1.69,1.69,0,0,0,1.48.39,2.84,2.84,0,0,0,.6-.18,3.18,3.18,0,0,0,.5-.25l.35-.24.19-.12c.07,0,.18,0,.31.22s.19.3.18.36q-.11.44-1.09,1.16a4.69,4.69,0,0,1-2,.89,3.75,3.75,0,0,1-2.76-.55,4,4,0,0,1-1.57-2.86Z"/><path class="cls-1" d="M249.59,75.5q.64-.11,1.83-.39t1.48-.34a2,2,0,0,1,.15.52q.07.41,0,.43a3.25,3.25,0,0,0-.89.37c-.4.22-.59.41-.58.59l0,.18q.13.46,3.84,6.23.15-.57.67-3.08t.61-2.89a2.78,2.78,0,0,0,0-.94.94.94,0,0,0-.59-.64,2.45,2.45,0,0,0-1.46-.1c-.08,0-.14-.13-.19-.42a.74.74,0,0,1,0-.52q.35-.06,1.45-.15t1.8-.21q.62-.1,1.5-.34t1.29-.3a.86.86,0,0,1,.19.45c.05.31,0,.48,0,.49a3.77,3.77,0,0,0-1.14.49,1.65,1.65,0,0,0-.87,1l-3.22,13.85q-1.11,4.58-3.66,5a1.61,1.61,0,0,1-1.24-.22,1.39,1.39,0,0,1-.2-2.11q3.05-.51,3.62-3.07.41-1.88.46-2.13l-5.93-9.26a3.86,3.86,0,0,0-.46-.62,1.79,1.79,0,0,0-1-.52,2.82,2.82,0,0,0-1-.06c-.08,0-.14-.12-.18-.39s-.05-.49,0-.54l1.58-.17Q248.88,75.62,249.59,75.5Z"/><path class="cls-1" d="M270.54,73.84l-1.79.3c-.14,0-.25-.22-.33-.73a.75.75,0,0,1,0-.27,8.35,8.35,0,0,0,2-1.93q.32-.44.69-1t.86-1.42a2.14,2.14,0,0,1,.57,0q.28,0,.29.12l.48,2.87,2.13-.34,1.45-.23c.16,0,.25,0,.28.23a2.88,2.88,0,0,1-.08,1.34l-3.52.58,1.17,7.07a2.82,2.82,0,0,0,.8,1.71,1.7,1.7,0,0,0,1.48.39,2.84,2.84,0,0,0,.6-.18,3.18,3.18,0,0,0,.5-.25l.35-.24.19-.12c.07,0,.18,0,.31.22s.19.3.18.36q-.11.44-1.09,1.16a4.69,4.69,0,0,1-2,.89,3.75,3.75,0,0,1-2.76-.55,4,4,0,0,1-1.57-2.86Z"/><path class="cls-1" d="M288.65,68.73q3.75-.62,4.71,5.16l.5,3a10.93,10.93,0,0,0,.67,2.6c0,.13.32.23.85.3a4.58,4.58,0,0,0,1,.05c.06,0,.12.13.17.41a3.3,3.3,0,0,1,.08.57L295.1,81q-1.38.14-2,.24t-2,.42l-1.52.37a1.12,1.12,0,0,1-.18-.54q-.07-.44,0-.46a3.55,3.55,0,0,0,1-.39c.42-.22.64-.4.68-.55a11.11,11.11,0,0,0-.18-2.17L290.42,75a6.21,6.21,0,0,0-1.22-3.25,2.43,2.43,0,0,0-2.25-.58,2.85,2.85,0,0,0-1.53.77,1.4,1.4,0,0,0-.55,1.24l.83,5a10.92,10.92,0,0,0,.67,2.6c.06.13.34.23.85.3a4.27,4.27,0,0,0,1,.06q.09,0,.17.41a1.66,1.66,0,0,1,0,.58l-1.56.14q-1.32.13-2,.24t-2,.43l-1.55.38a.87.87,0,0,1-.21-.54c0-.29,0-.45,0-.46a4.17,4.17,0,0,0,1-.4q.68-.34.71-.55a9.6,9.6,0,0,0-.14-2.15l-2-12.2a11.56,11.56,0,0,0-.48-2q-.22-.44-1.6-.22l-.26,0q-.17,0-.25-.44t.1-.5q.9-.24,1.69-.52t1.32-.52q.52-.24.89-.45l.79-.43H283a.32.32,0,0,1,.26.12.83.83,0,0,1,.2.28,9.55,9.55,0,0,0,.1,2.82l1,5.92q0,.18.15.16s.05,0,.1-.11a5.66,5.66,0,0,1,1.59-1.57A5.48,5.48,0,0,1,288.65,68.73Z"/><path class="cls-1" d="M304.91,66a3,3,0,0,1,2.57.57q.41,2.49-1,2.73a1.77,1.77,0,0,1-1.24-.4,1.86,1.86,0,0,0-1.36-.38,1.59,1.59,0,0,0-1.27,1.16,4,4,0,0,0-.2,2l.61,3.67a12.43,12.43,0,0,0,.64,2.61c.06.13.34.23.85.3a4.21,4.21,0,0,0,1,.06c.06,0,.12.13.17.41a3.29,3.29,0,0,1,.08.57l-1.57.14q-1.33.13-2,.24t-2,.43l-1.55.38a.88.88,0,0,1-.21-.54q-.07-.44,0-.46a4.17,4.17,0,0,0,1-.4c.46-.23.69-.41.71-.55a9.65,9.65,0,0,0-.15-2.17l-.79-4.78a2.83,2.83,0,0,0-.78-1.8,1.44,1.44,0,0,0-.73-.33,3.4,3.4,0,0,0-.73-.06c-.19,0-.29,0-.29,0q-.14-.85,0-.9a41.88,41.88,0,0,0,4.58-1.66l.22-.1c.08,0,.16,0,.24.17a.7.7,0,0,1,.13.32l0,.42c0,.19,0,.39,0,.6a3.6,3.6,0,0,0,0,.4,5.44,5.44,0,0,1,1.2-1.66A3.25,3.25,0,0,1,304.91,66Z"/><path class="cls-1" d="M315.86,64.22a6.55,6.55,0,0,1,5,1.14,6.37,6.37,0,0,1,2.72,4.33,6.78,6.78,0,1,1-7.75-5.47Zm-.15,1.44a2.39,2.39,0,0,0-1.92,1.69,6.39,6.39,0,0,0-.24,3.31,8.66,8.66,0,0,0,1.64,4A3,3,0,0,0,318.13,76a2.42,2.42,0,0,0,1.93-1.71,6.3,6.3,0,0,0,.25-3.3,10.25,10.25,0,0,0-.85-2.77,5.26,5.26,0,0,0-1.59-2A2.76,2.76,0,0,0,315.7,65.67Z"/><path class="cls-1" d="M337.74,63.85l1,5.81a6.59,6.59,0,0,0,.58,2,.61.61,0,0,0,.38.18,2.32,2.32,0,0,0,.53,0l.49-.05a.55.55,0,0,1,.25,0c.08,0,.13.09.16.25a2.24,2.24,0,0,1,0,.41c0,.19-.05.29-.13.31a6.87,6.87,0,0,0-1,.27l-1.18.41-1.08.4-1.13.43c-.14,0-.23-.12-.28-.44L336,72.57c0-.09-.07-.14-.11-.13a6.64,6.64,0,0,1-1.57,1.62,5,5,0,0,1-2.22,1,3.11,3.11,0,0,1-1.83-.21,3.58,3.58,0,0,1-1.39-1.1,6.42,6.42,0,0,1-.9-1.6,9,9,0,0,1-.5-1.82L327,67a2.83,2.83,0,0,0-.78-1.8,1.66,1.66,0,0,0-.75-.33,3.15,3.15,0,0,0-.73-.06q-.3,0-.31,0c-.09-.57-.09-.87,0-.9a22.37,22.37,0,0,0,2.35-.75,23.3,23.3,0,0,0,2.23-.91l.11,0,.11,0c.1,0,.18,0,.25.17a1.08,1.08,0,0,1,.13.31q.07,2,.16,2.62l.58,3.52a6.38,6.38,0,0,0,1.19,3.18,2.62,2.62,0,0,0,3.74-.18,1.58,1.58,0,0,0,.46-1.21l-.8-4.84a2.83,2.83,0,0,0-.78-1.8,1.43,1.43,0,0,0-.73-.33,3.35,3.35,0,0,0-.75-.06c-.2,0-.3,0-.31,0q-.14-.85,0-.91a22.78,22.78,0,0,0,2.32-.75,23.46,23.46,0,0,0,2.23-.91l.22-.1c.1,0,.19,0,.27.17a.55.55,0,0,1,.11.31Q337.65,63.33,337.74,63.85Z"/><path class="cls-1" d="M346.59,59.19a9.44,9.44,0,0,1,2.5,0,9.17,9.17,0,0,0,2.41,0l1.67-.28s.13.11.27.35a1.82,1.82,0,0,1,.24.56c0,.27,0,.42-.11.44l-1.91.32c-.08,0-.11,0-.1.11s.13.26.39.72a4.21,4.21,0,0,1,.5,1.36,4.3,4.3,0,0,1-.93,3.36,5.1,5.1,0,0,1-3.39,2,12.32,12.32,0,0,1-1.84.18,1.61,1.61,0,0,0-.56.65,1.27,1.27,0,0,0-.17.77.61.61,0,0,0,.36.45,2,2,0,0,0,.91.15q.6,0,1,0l1.18-.14.44-.07a10.5,10.5,0,0,1,4.43.1,2.34,2.34,0,0,1,1.72,1.93,4.67,4.67,0,0,1-1.48,4.16,8.13,8.13,0,0,1-4.69,2.43,7.73,7.73,0,0,1-3.88-.2,2.67,2.67,0,0,1-2-2.14,2.31,2.31,0,0,1,.56-1.78,4.92,4.92,0,0,1,1.62-1.41,3.39,3.39,0,0,1-1.56-.66,2.16,2.16,0,0,1-.9-1.43q-.21-1.26,1.74-3a3.93,3.93,0,0,1-1.83-1.25,4.38,4.38,0,0,1-1.13-2.27,4,4,0,0,1,1-3.54A5.91,5.91,0,0,1,346.59,59.19Zm-1.52,4.62a4.7,4.7,0,0,0,1,2.32,1.85,1.85,0,0,0,1.8.71,1.77,1.77,0,0,0,1.46-1.1,4,4,0,0,0,.17-2.15,4.89,4.89,0,0,0-1-2.43,1.9,1.9,0,0,0-1.86-.69,1.68,1.68,0,0,0-1.41,1.17A4.33,4.33,0,0,0,345.06,63.82Zm8.11,10q-.17-1-1.71-1.12a18.9,18.9,0,0,0-4,.32l-.14.05-.13.11c-.24.14-.42.25-.54.35a2.47,2.47,0,0,0-.42.4,1.44,1.44,0,0,0-.31.58,1.74,1.74,0,0,0,0,.73,2.08,2.08,0,0,0,1.41,1.58,4.64,4.64,0,0,0,2.61.29,4.49,4.49,0,0,0,2.56-1.21A2.32,2.32,0,0,0,353.17,73.86Z"/><path class="cls-1" d="M364.86,56.11q3.75-.62,4.71,5.16l.5,3a11,11,0,0,0,.67,2.6c0,.13.33.23.85.3a4.57,4.57,0,0,0,1,.05c.06,0,.12.13.17.41a3.11,3.11,0,0,1,.08.57l-1.59.14c-.92.09-1.59.17-2,.24s-1.14.22-2,.42l-1.52.37a1.12,1.12,0,0,1-.18-.54c0-.29,0-.45,0-.46a3.56,3.56,0,0,0,1-.39q.63-.33.68-.55a11.2,11.2,0,0,0-.18-2.17l-.48-2.87a6.21,6.21,0,0,0-1.21-3.25,2.43,2.43,0,0,0-2.25-.58,2.84,2.84,0,0,0-1.53.77,1.4,1.4,0,0,0-.55,1.24l.83,5a10.94,10.94,0,0,0,.67,2.6c.06.13.34.23.85.3a4.25,4.25,0,0,0,1,.06c.06,0,.12.13.17.41a1.7,1.7,0,0,1,.05.58l-1.56.14q-1.32.13-2,.24t-2,.43l-1.55.38a.87.87,0,0,1-.21-.54c0-.29,0-.45,0-.46a4.17,4.17,0,0,0,1-.4q.68-.34.71-.55a9.6,9.6,0,0,0-.14-2.15l-2-12.2a11.66,11.66,0,0,0-.48-2q-.22-.44-1.6-.22l-.26,0q-.18,0-.25-.44c-.05-.31,0-.48.1-.5q.89-.24,1.69-.52t1.32-.52q.52-.24.89-.45l.79-.43h.06a.32.32,0,0,1,.26.12.83.83,0,0,1,.2.28,9.55,9.55,0,0,0,.1,2.82l1,5.92c0,.12.07.17.15.16s.05,0,.1-.11a5.69,5.69,0,0,1,1.59-1.57A5.47,5.47,0,0,1,364.86,56.11Z"/><path class="cls-1" d="M385,52.78a5.51,5.51,0,0,1,2.55.13,4.71,4.71,0,0,1,1.93,1.1,6.89,6.89,0,0,1,1.23,1.58,5.11,5.11,0,0,1,.61,1.66q.11.65-.09.84a1.69,1.69,0,0,1-.87.31l-7,1.16c-.14,0-.2.09-.18.21a5.77,5.77,0,0,0,.72,2,4.08,4.08,0,0,0,1.59,1.51,3.5,3.5,0,0,0,2.34.37,8,8,0,0,0,.84-.19,4.43,4.43,0,0,0,.74-.27l.58-.29a2.53,2.53,0,0,0,.5-.35l.35-.31.52-.49a.48.48,0,0,1,.18.15.58.58,0,0,1,.14.28.91.91,0,0,1-.08.59,4.83,4.83,0,0,1-1.47,1.87,5.52,5.52,0,0,1-2.77,1.27,6,6,0,0,1-4.71-1.16A6.41,6.41,0,0,1,380,60.44a6.88,6.88,0,0,1,.92-5.09A5.76,5.76,0,0,1,385,52.78Zm0,1.38a2.1,2.1,0,0,0-1.19.62,2.79,2.79,0,0,0-.68,1.14,5.75,5.75,0,0,0-.24,1.17,3.62,3.62,0,0,0,0,.89c0,.14.09.2.21.18l4.75-.79c.17,0,.24-.19.19-.48a3.86,3.86,0,0,0-1-2A2.13,2.13,0,0,0,385,54.16Z"/><path class="cls-1" d="M392.28,52.17a.85.85,0,0,1,0-.49l3.49-.4,3.49-.76a1,1,0,0,1,.13.4c.06.35,0,.53,0,.55a2.25,2.25,0,0,0-.79.3q-.38.23-.33.52a.65.65,0,0,0,.21.33l2.28,2.3c.1-.22.31-.62.61-1.22s.52-1.05.66-1.37a1.48,1.48,0,0,0,.17-.72.39.39,0,0,0-.31-.3,1.45,1.45,0,0,0-.55-.07l-.59.05a1,1,0,0,1-.34,0q-.12,0-.2-.45a.69.69,0,0,1,0-.49l3.43-.39,3-.68a1.8,1.8,0,0,1,.13.46q.08.47,0,.48a4.09,4.09,0,0,0-2.43,1.37l-2.51,4.15a.53.53,0,0,0,0,.24.4.4,0,0,0,.17.27l4.07,4a3.45,3.45,0,0,0,2.67,1c.06,0,.12.15.17.48a.79.79,0,0,1,0,.46l-1.08.09-1.16.1c-.35,0-.71.09-1.1.15s-.83.15-1.2.23l-1.23.29L402,63.4a2.64,2.64,0,0,1-.12-.37c-.07-.41-.07-.62,0-.63a2,2,0,0,0,.82-.35c.27-.19.39-.38.36-.57a.45.45,0,0,0-.09-.17l-2.6-2.58-1.42,2.89a.87.87,0,0,0-.12.56.44.44,0,0,0,.15.28.73.73,0,0,0,.37.14l.41,0h.51l.4,0q.09,0,.17.48a.75.75,0,0,1,0,.52l-1.06.08-1.11.09q-.5.05-1.06.15c-.37.06-.72.13-1.05.2l-1.1.27-1,.26a2,2,0,0,1-.14-.49c-.05-.33,0-.51,0-.52a4,4,0,0,0,2.37-1.54l2.51-4.33a.54.54,0,0,0,0-.24.37.37,0,0,0-.12-.19l-4.13-4a2.5,2.5,0,0,0-1.15-.58,3.15,3.15,0,0,0-1.25-.11C392.4,52.66,392.34,52.5,392.28,52.17Z"/><path class="cls-1" d="M416.95,47.51a6,6,0,0,1,3.5.41,6.23,6.23,0,0,1,3.74,4.74,7,7,0,0,1-5.74,8.12,6.91,6.91,0,0,1-2.15-.07c-.08,0-.1.16,0,.43l.33,2a10.69,10.69,0,0,0,.67,2.6q.07.23.85.33a4.52,4.52,0,0,0,1,.05c.06,0,.12.13.17.41a2.77,2.77,0,0,1,.08.54l-1.58.17q-1.38.14-2,.24t-2.05.43l-1.55.35a1.06,1.06,0,0,1-.18-.53c0-.28,0-.43,0-.44a4.17,4.17,0,0,0,1-.4q.68-.34.73-.59a10.83,10.83,0,0,0-.17-2.14L411.77,53a2.88,2.88,0,0,0-.79-1.83,1.33,1.33,0,0,0-.72-.32,3.61,3.61,0,0,0-.73,0c-.2,0-.3,0-.31,0q-.14-.85,0-.91a22.91,22.91,0,0,0,4.23-1.54l.53-.24q.12,0,.22.6a1.55,1.55,0,0,1,0,.36,6,6,0,0,1,1.19-.91A4.27,4.27,0,0,1,416.95,47.51Zm-.45,1.67A2.25,2.25,0,0,0,415,50a2,2,0,0,0-.35,1.6l1,6a1.83,1.83,0,0,0,1,1.41,2.89,2.89,0,0,0,1.8.29,2.8,2.8,0,0,0,2.07-1.61,5.75,5.75,0,0,0,.35-3.61,7.69,7.69,0,0,0-1.59-3.79A2.93,2.93,0,0,0,416.5,49.18Z"/><path class="cls-1" d="M431.09,45.13a5.51,5.51,0,0,1,2.55.13,4.71,4.71,0,0,1,1.93,1.1,6.93,6.93,0,0,1,1.23,1.57,5.09,5.09,0,0,1,.61,1.66q.11.65-.09.84a1.68,1.68,0,0,1-.87.31l-7,1.16c-.14,0-.2.09-.18.21a5.79,5.79,0,0,0,.72,2,4.08,4.08,0,0,0,1.59,1.51,3.5,3.5,0,0,0,2.34.37,8.12,8.12,0,0,0,.84-.19,4.44,4.44,0,0,0,.74-.27l.58-.29a2.55,2.55,0,0,0,.5-.35l.36-.31.52-.49a.48.48,0,0,1,.18.15.57.57,0,0,1,.14.28.92.92,0,0,1-.08.59A4.84,4.84,0,0,1,436.21,57a5.51,5.51,0,0,1-2.77,1.27,6,6,0,0,1-4.71-1.16,6.41,6.41,0,0,1-2.61-4.28A6.88,6.88,0,0,1,427,47.7,5.76,5.76,0,0,1,431.09,45.13Zm0,1.38a2.11,2.11,0,0,0-1.19.62,2.79,2.79,0,0,0-.68,1.14,5.74,5.74,0,0,0-.24,1.17,3.62,3.62,0,0,0,0,.89c0,.14.09.2.21.18l4.75-.79q.26,0,.19-.48a3.85,3.85,0,0,0-1-2A2.13,2.13,0,0,0,431.1,46.52Z"/><path class="cls-1" d="M446.76,42.54a3,3,0,0,1,2.57.57q.41,2.49-1,2.73a1.77,1.77,0,0,1-1.24-.4,1.86,1.86,0,0,0-1.36-.38,1.59,1.59,0,0,0-1.27,1.16,3.94,3.94,0,0,0-.2,2l.61,3.67a12.51,12.51,0,0,0,.64,2.61c.06.13.34.23.85.3a4.21,4.21,0,0,0,1,.06c.06,0,.12.13.17.41a3.11,3.11,0,0,1,.08.57l-1.57.14q-1.34.13-2,.24t-2,.43l-1.55.38a.88.88,0,0,1-.21-.54q-.07-.44,0-.46a4.14,4.14,0,0,0,1-.4q.68-.34.71-.55a9.65,9.65,0,0,0-.15-2.17l-.79-4.78a2.83,2.83,0,0,0-.78-1.8,1.44,1.44,0,0,0-.73-.33,3.4,3.4,0,0,0-.73-.06q-.28,0-.29,0-.14-.85,0-.9a42,42,0,0,0,4.58-1.66l.22-.1c.08,0,.16,0,.24.17a.71.71,0,0,1,.13.32l0,.42q0,.28,0,.6a3.87,3.87,0,0,0,0,.4,5.44,5.44,0,0,1,1.2-1.66A3.25,3.25,0,0,1,446.76,42.54Z"/><path class="cls-1" d="M457.75,49.76a11,11,0,0,0,.67,2.6q.09.2.86.29a4.38,4.38,0,0,0,1,.05q.12,0,.2.4a1.7,1.7,0,0,1,.05.58l-1.59.14q-1.38.14-2,.24t-2.05.43l-1.52.37a.88.88,0,0,1-.21-.54q-.07-.44,0-.46a4.32,4.32,0,0,0,1-.39c.46-.23.71-.41.72-.56a9.66,9.66,0,0,0-.15-2.17L454,46a2.83,2.83,0,0,0-.78-1.8,1.66,1.66,0,0,0-.75-.33,3.16,3.16,0,0,0-.73-.06q-.3,0-.31,0-.14-.85,0-.91a22.86,22.86,0,0,0,2.32-.75,23.35,23.35,0,0,0,2.23-.91l.23-.1c.1,0,.19,0,.27.17a.55.55,0,0,1,.11.31q.08,1.92.18,2.56ZM452.67,38a1.81,1.81,0,0,1-.74-1.2,1.83,1.83,0,0,1,1.52-2.1,1.78,1.78,0,0,1,1.38.31,1.76,1.76,0,0,1,.74,1.19,1.81,1.81,0,0,1-.31,1.38,1.83,1.83,0,0,1-2.58.43Z"/><path class="cls-1" d="M466.19,39.32a5.52,5.52,0,0,1,2.55.13,4.72,4.72,0,0,1,1.93,1.1,6.92,6.92,0,0,1,1.23,1.57,5.14,5.14,0,0,1,.61,1.66q.11.65-.09.84a1.68,1.68,0,0,1-.87.31l-7,1.16c-.14,0-.2.09-.18.21a5.79,5.79,0,0,0,.72,2,4.08,4.08,0,0,0,1.59,1.51,3.5,3.5,0,0,0,2.34.37,8.12,8.12,0,0,0,.84-.18,4.48,4.48,0,0,0,.74-.27l.58-.29a2.53,2.53,0,0,0,.5-.35l.36-.31.52-.49a.49.49,0,0,1,.18.15.58.58,0,0,1,.14.28.92.92,0,0,1-.08.59,4.85,4.85,0,0,1-1.47,1.87,5.52,5.52,0,0,1-2.77,1.27,6,6,0,0,1-4.71-1.16A6.41,6.41,0,0,1,461.22,47a6.88,6.88,0,0,1,.92-5.09A5.76,5.76,0,0,1,466.19,39.32Zm0,1.38a2.1,2.1,0,0,0-1.19.62,2.81,2.81,0,0,0-.68,1.14,5.75,5.75,0,0,0-.24,1.17,3.62,3.62,0,0,0,0,.89q0,.21.21.18l4.75-.79c.18,0,.24-.19.19-.48a3.85,3.85,0,0,0-1-2A2.13,2.13,0,0,0,466.2,40.7Z"/><path class="cls-1" d="M482.85,36.56q3.78-.63,4.78,5.39l.46,2.79a12.45,12.45,0,0,0,.64,2.61c.06.13.35.23.88.29a4.56,4.56,0,0,0,1,.05q.09,0,.17.41a1.69,1.69,0,0,1,0,.58c-.12,0-.64,0-1.56.14s-1.6.17-2.05.25-1.11.21-1.93.41l-1.49.37a.87.87,0,0,1-.21-.54c0-.29,0-.45,0-.46a3.55,3.55,0,0,0,.95-.38c.42-.22.63-.4.65-.54a8.45,8.45,0,0,0-.12-2.18l-.46-2.79a6.44,6.44,0,0,0-1.22-3.29,2.39,2.39,0,0,0-2.26-.62,2.75,2.75,0,0,0-1.56.79,1.43,1.43,0,0,0-.52,1.22l.83,5a12.52,12.52,0,0,0,.64,2.61c.06.13.34.23.85.3a4.31,4.31,0,0,0,1,.06q.12,0,.2.4a1.73,1.73,0,0,1,.05.58l-1.56.14q-1.32.13-2,.24t-2,.43l-1.55.38a.88.88,0,0,1-.21-.54q-.07-.44,0-.46a4.14,4.14,0,0,0,1-.4c.46-.23.69-.41.71-.55a9.65,9.65,0,0,0-.15-2.17l-.79-4.78a2.83,2.83,0,0,0-.78-1.8,1.43,1.43,0,0,0-.73-.33,3.4,3.4,0,0,0-.73-.06q-.28,0-.29,0-.14-.85,0-.9a42.14,42.14,0,0,0,4.58-1.66l.07-.06.09,0h.07c.08,0,.16,0,.24.17a.91.91,0,0,1,.14.31,10.2,10.2,0,0,0,.06,1.08.24.24,0,0,0,.05.14.45.45,0,0,0,.13-.11,6.59,6.59,0,0,1,1.6-1.53A5.2,5.2,0,0,1,482.85,36.56Z"/><path class="cls-1" d="M497,34.22a7.17,7.17,0,0,1,2.86.05,4.74,4.74,0,0,1,1.93.84,3.69,3.69,0,0,1-.06,1.71,1.1,1.1,0,0,1-.9.83,1.33,1.33,0,0,1-.94-.14,3.38,3.38,0,0,1-.85-.85,2.15,2.15,0,0,0-2.19-1,2.29,2.29,0,0,0-1.8,1.61,6.35,6.35,0,0,0-.21,3.34,6,6,0,0,0,1.73,3.74,3.51,3.51,0,0,0,3,.82,8,8,0,0,0,.84-.19,4.48,4.48,0,0,0,.74-.27l.58-.29a2.5,2.5,0,0,0,.5-.35l.36-.31.52-.49a.48.48,0,0,1,.18.15.58.58,0,0,1,.14.28.91.91,0,0,1-.08.59,4.84,4.84,0,0,1-1.47,1.87,5.46,5.46,0,0,1-2.74,1.27,6,6,0,0,1-4.76-1.17,6.56,6.56,0,0,1-2.61-4.36,6.76,6.76,0,0,1,1-4.91A6,6,0,0,1,497,34.22Z"/><path class="cls-1" d="M509.76,32.1a5.51,5.51,0,0,1,2.55.13,4.72,4.72,0,0,1,1.93,1.1,6.92,6.92,0,0,1,1.23,1.57,5.09,5.09,0,0,1,.61,1.66q.11.65-.09.84a1.68,1.68,0,0,1-.87.31l-7,1.16c-.14,0-.2.09-.18.21a5.8,5.8,0,0,0,.72,2,4.07,4.07,0,0,0,1.59,1.51,3.5,3.5,0,0,0,2.34.37,8,8,0,0,0,.84-.18,4.44,4.44,0,0,0,.74-.27l.58-.29a2.53,2.53,0,0,0,.5-.35l.36-.31.52-.49a.48.48,0,0,1,.17.15.57.57,0,0,1,.14.28.92.92,0,0,1-.08.59,4.85,4.85,0,0,1-1.47,1.87,5.51,5.51,0,0,1-2.77,1.27A6,6,0,0,1,507.4,44a6.41,6.41,0,0,1-2.61-4.28,6.88,6.88,0,0,1,.92-5.09A5.76,5.76,0,0,1,509.76,32.1Zm0,1.38a2.1,2.1,0,0,0-1.19.62,2.79,2.79,0,0,0-.68,1.14,5.75,5.75,0,0,0-.24,1.17,3.62,3.62,0,0,0,0,.89c0,.14.09.2.21.18l4.75-.79q.26,0,.19-.48a3.85,3.85,0,0,0-1-2A2.13,2.13,0,0,0,509.78,33.48Z"/><path class="cls-1" d="M54.38,169.72a3.65,3.65,0,0,1,2.92.27A4.75,4.75,0,0,1,59,173l1.41,5.69a1.36,1.36,0,0,0,.48.82.89.89,0,0,0,.77.13,1.85,1.85,0,0,0,.89-.62c.13,0,.21.1.25.27a1.76,1.76,0,0,1,0,.91,7.3,7.3,0,0,1-1,1,3.1,3.1,0,0,1-1.29.72,2.17,2.17,0,0,1-1.42-.17,2.43,2.43,0,0,1-1.1-.86l-.17.24c-.1.14-.24.31-.42.52a8.53,8.53,0,0,1-.64.65,4.66,4.66,0,0,1-.88.63,4.3,4.3,0,0,1-1.1.44,3.55,3.55,0,0,1-2.55-.21,2.82,2.82,0,0,1-1.45-2,2.74,2.74,0,0,1,0-1.38,3.55,3.55,0,0,1,.55-1.19,6.08,6.08,0,0,1,1.05-1.07,12.32,12.32,0,0,1,1.2-.89l1.33-.8,1.13-.68a.47.47,0,0,0,.15-.53l-.39-1.59a2.55,2.55,0,0,0-.85-1.47,1.55,1.55,0,0,0-1.38-.27,1.8,1.8,0,0,0-1.22.87,2.22,2.22,0,0,0-.12,1.64,1,1,0,0,1-.22,1,1.85,1.85,0,0,1-.91.52,1.68,1.68,0,0,1-1.67-.32q-.34-1.39,1.25-3.06A7.46,7.46,0,0,1,54.38,169.72Zm1.44,11.4a2.3,2.3,0,0,0,1.24-.74,1.18,1.18,0,0,0,.33-1.06l-.73-2.94q-.18.14-.78.5t-.91.59a8,8,0,0,0-.71.6,1.79,1.79,0,0,0-.52.8,1.63,1.63,0,0,0,0,.86,1.83,1.83,0,0,0,.8,1.24A1.71,1.71,0,0,0,55.82,181.13Z"/><path class="cls-1" d="M71.1,165.59q3.72-.92,5.19,5l.68,2.74a12.49,12.49,0,0,0,.84,2.55c.07.13.37.2.9.22a4.57,4.57,0,0,0,1,0c.06,0,.13.12.2.39a1.69,1.69,0,0,1,.1.57q-.18,0-1.54.26t-2,.41q-.69.17-1.9.56l-1.46.48c-.1-.06-.18-.23-.25-.52s-.07-.44,0-.46a3.52,3.52,0,0,0,.91-.46q.59-.38.6-.59a8.57,8.57,0,0,0-.29-2.16l-.68-2.74A6.46,6.46,0,0,0,72,168.62a2.39,2.39,0,0,0-2.3-.44,2.75,2.75,0,0,0-1.49.9,1.43,1.43,0,0,0-.42,1.25l1.23,5a12.49,12.49,0,0,0,.84,2.55q.11.19.87.23a4.28,4.28,0,0,0,1,0q.12,0,.23.39a1.69,1.69,0,0,1,.1.57l-1.54.26q-1.31.23-2,.4t-2,.58l-1.52.5a.88.88,0,0,1-.25-.52c-.07-.29-.07-.44,0-.46a4.16,4.16,0,0,0,1-.48q.65-.39.66-.61a9.71,9.71,0,0,0-.32-2.16l-1.16-4.7A2.83,2.83,0,0,0,64,170.1a1.43,1.43,0,0,0-.76-.27,3.36,3.36,0,0,0-.74,0c-.19,0-.29,0-.29,0q-.21-.84-.07-.9a42.32,42.32,0,0,0,4.43-2,.18.18,0,0,1,.06-.06l.08,0,.07,0c.08,0,.16,0,.25.15a.94.94,0,0,1,.17.3,10,10,0,0,0,.14,1.07c0,.08,0,.12.06.14s.06,0,.12-.12A6.6,6.6,0,0,1,69,166.66,5.21,5.21,0,0,1,71.1,165.59Z"/><path class="cls-1" d="M85.29,162a5.1,5.1,0,0,1,2.21-.12c.1,0,.11-.19,0-.5l-.67-2.71a10.38,10.38,0,0,0-.66-1.92q-.26-.42-1.62-.09l-.23.06c-.12,0-.21-.11-.29-.42s-.06-.48.06-.5q.84-.3,1.63-.65t1.29-.62q.5-.28.85-.52l.54-.36.21-.13h.06a.32.32,0,0,1,.27.1.54.54,0,0,1,.19.27,11.34,11.34,0,0,0,.38,2.78l3.14,12.7a10.93,10.93,0,0,0,.7,2.09.44.44,0,0,0,.37.25,1.8,1.8,0,0,0,.58,0l.56-.09.29-.06s.1.14.14.33c.1.38.08.59,0,.62s-.6.21-1,.37l-1.17.49-1.08.48-1.14.54c-.12,0-.21-.12-.29-.45l-.12-.49a.13.13,0,0,0-.07-.1s-.06,0-.07,0a5,5,0,0,1-2.74,1.81,5.76,5.76,0,0,1-4.49-.71,6,6,0,0,1-2.8-3.89,7,7,0,0,1,.77-5.38A6.51,6.51,0,0,1,85.29,162Zm.08,1.45a2.6,2.6,0,0,0-2,1.87,7,7,0,0,0,.08,3.69,7.17,7.17,0,0,0,1.84,3.6,2.92,2.92,0,0,0,2.85.75,2.47,2.47,0,0,0,1.46-.9,1.65,1.65,0,0,0,.29-1.43L88.41,165a2.1,2.1,0,0,0-.25-.58,2.82,2.82,0,0,0-.51-.59,1.9,1.9,0,0,0-.93-.41A3.16,3.16,0,0,0,85.37,163.47Z"/><path class="cls-1" d="M102.61,159.94l-1.76.44q-.2,0-.39-.7a.71.71,0,0,1,0-.27,8.36,8.36,0,0,0,1.84-2.08q.28-.47.61-1.05t.75-1.49a2.13,2.13,0,0,1,.57-.06c.19,0,.28,0,.3.09l.7,2.83,2.1-.5,1.43-.34c.15,0,.25,0,.29.2a2.88,2.88,0,0,1,0,1.34l-3.46.86,1.72,7a2.82,2.82,0,0,0,.93,1.64,1.7,1.7,0,0,0,1.51.27,2.83,2.83,0,0,0,.59-.22,3.14,3.14,0,0,0,.48-.29l.33-.27.18-.14c.07,0,.18,0,.32.2s.21.28.21.35a2.73,2.73,0,0,1-1,1.24,4.69,4.69,0,0,1-1.93,1,3.75,3.75,0,0,1-2.79-.33,4,4,0,0,1-1.79-2.73Z"/><path class="cls-1" d="M120.27,153.43q3.69-.91,5.1,4.77l.73,3a10.91,10.91,0,0,0,.87,2.54c.05.13.34.21.87.23a4.58,4.58,0,0,0,1,0c.06,0,.13.12.2.39a3.15,3.15,0,0,1,.13.57l-1.57.27q-1.36.25-2,.4t-1.93.57l-1.49.49a1.11,1.11,0,0,1-.22-.53q-.11-.43,0-.45a3.54,3.54,0,0,0,.94-.46q.59-.38.63-.6a11.31,11.31,0,0,0-.35-2.15l-.7-2.83a6.2,6.2,0,0,0-1.47-3.14,2.43,2.43,0,0,0-2.29-.4,2.85,2.85,0,0,0-1.47.88,1.4,1.4,0,0,0-.45,1.28l1.23,5a10.92,10.92,0,0,0,.87,2.54q.11.19.87.23a4.22,4.22,0,0,0,1,0q.09,0,.2.39a1.67,1.67,0,0,1,.1.57l-1.54.26q-1.31.23-2,.4t-2,.58l-1.52.5a.88.88,0,0,1-.25-.52q-.11-.43,0-.46a4.16,4.16,0,0,0,1-.48q.65-.39.66-.61a9.57,9.57,0,0,0-.31-2.13l-3-12a11.74,11.74,0,0,0-.63-1.93q-.26-.43-1.61-.09l-.26.06q-.17,0-.29-.42t.06-.5q.87-.31,1.65-.65t1.27-.62q.5-.28.85-.52l.75-.49h.06a.32.32,0,0,1,.27.1.82.82,0,0,1,.22.27,9.59,9.59,0,0,0,.32,2.8l1.44,5.83c0,.12.08.16.16.14s0,0,.09-.11a5.65,5.65,0,0,1,1.46-1.69A5.48,5.48,0,0,1,120.27,153.43Z"/><path class="cls-1" d="M133.73,150.1a5.51,5.51,0,0,1,2.56-.07,4.7,4.7,0,0,1,2,.94,6.93,6.93,0,0,1,1.34,1.47,5.13,5.13,0,0,1,.74,1.61q.16.64,0,.85a1.69,1.69,0,0,1-.84.38l-6.9,1.71c-.13,0-.19.11-.16.22a5.76,5.76,0,0,0,.87,1.93,4.09,4.09,0,0,0,1.71,1.39,3.5,3.5,0,0,0,2.36.18,8,8,0,0,0,.83-.25,4.47,4.47,0,0,0,.71-.33l.56-.34a2.5,2.5,0,0,0,.47-.39l.33-.34.48-.53a.49.49,0,0,1,.19.14.58.58,0,0,1,.16.27.91.91,0,0,1,0,.59,4.83,4.83,0,0,1-1.32,2A5.52,5.52,0,0,1,137.1,163a6,6,0,0,1-4.79-.79,6.41,6.41,0,0,1-2.93-4.07,6.88,6.88,0,0,1,.52-5.15A5.76,5.76,0,0,1,133.73,150.1Zm.13,1.38a2.1,2.1,0,0,0-1.14.71,2.8,2.8,0,0,0-.59,1.19,5.7,5.7,0,0,0-.15,1.19,3.68,3.68,0,0,0,.08.88c0,.14.11.19.22.16l4.67-1.16q.26-.06.15-.5a3.86,3.86,0,0,0-1.18-1.88A2.13,2.13,0,0,0,133.85,151.48Z"/><path class="cls-1" d="M153.44,137.48a5.85,5.85,0,0,1,2.08-.19,2.08,2.08,0,0,1,1.24.48,3.35,3.35,0,0,1,.24,1.64,1.07,1.07,0,0,1-.88,1,1.16,1.16,0,0,1-1-.26q-.51-.38-1.06-.75a1.37,1.37,0,0,0-1.13-.23,1.58,1.58,0,0,0-1.11,1.07,5,5,0,0,0-.29,2,12.13,12.13,0,0,0,.36,2.39l.33,1.33s0,0,.08.07a.17.17,0,0,0,.13,0l3.17-.78a.24.24,0,0,1,.15,0s0,.07.07.17a3.07,3.07,0,0,1,0,1.41l-3,.74a.16.16,0,0,0-.13.22l1.59,6.44a11.39,11.39,0,0,0,.87,2.54q.11.19.87.23a4.21,4.21,0,0,0,1,0q.09,0,.21.39a1.72,1.72,0,0,1,.1.57q-.18,0-1.53.26t-2,.41q-.69.17-1.94.57l-1.47.49a.56.56,0,0,1-.19-.29,1.75,1.75,0,0,1-.11-.45c0-.15,0-.23.06-.25a4,4,0,0,0,1-.47q.64-.39.65-.6a9.85,9.85,0,0,0-.33-2.43l-1.64-6.64q0-.2-.22-.16l-1.73.43s-.07,0-.1-.16a1.6,1.6,0,0,1,.2-.94,1.2,1.2,0,0,1,.79-.75l.46-.11a.16.16,0,0,0,.13-.22l-.07-.29a8.09,8.09,0,0,1,.52-5.64A5.56,5.56,0,0,1,153.44,137.48Z"/><path class="cls-1" d="M163.91,142.64a6.56,6.56,0,0,1,5.1.75,6.37,6.37,0,0,1,3,4.1A6.73,6.73,0,0,1,159,150.72a6.4,6.4,0,0,1,.75-5.06A6.52,6.52,0,0,1,163.91,142.64Zm0,1.45a2.39,2.39,0,0,0-1.78,1.83,6.4,6.4,0,0,0,0,3.32,8.67,8.67,0,0,0,1.95,3.84,3,3,0,0,0,3,1.09,2.42,2.42,0,0,0,1.79-1.85,6.31,6.31,0,0,0,0-3.31,10.22,10.22,0,0,0-1.06-2.69,5.25,5.25,0,0,0-1.74-1.85A2.75,2.75,0,0,0,163.87,144.09Z"/><path class="cls-1" d="M185.69,140.56l1.41,5.71a6.59,6.59,0,0,0,.73,2,.62.62,0,0,0,.39.15,2.32,2.32,0,0,0,.53,0l.48-.09a.55.55,0,0,1,.25,0c.08,0,.14.08.18.23a2.24,2.24,0,0,1,0,.4c0,.19,0,.3-.1.32a6.79,6.79,0,0,0-1,.35l-1.15.5-1,.49-1.1.52q-.2,0-.32-.41l-.31-1.27c0-.09-.08-.13-.12-.12a6.65,6.65,0,0,1-1.44,1.73,5,5,0,0,1-2.14,1.14,3.11,3.11,0,0,1-1.84-.07,3.58,3.58,0,0,1-1.47-1,6.38,6.38,0,0,1-1-1.52,9,9,0,0,1-.64-1.77l-.8-3.23a2.83,2.83,0,0,0-.92-1.73,1.66,1.66,0,0,0-.77-.27,3.13,3.13,0,0,0-.74,0c-.2,0-.3,0-.31,0-.14-.56-.16-.86-.07-.9a22.26,22.26,0,0,0,2.28-.93,23.26,23.26,0,0,0,2.15-1.08l.11-.06.11-.06c.1,0,.18,0,.27.15a1.07,1.07,0,0,1,.15.3,26.24,26.24,0,0,0,.37,2.6l.86,3.46a6.36,6.36,0,0,0,1.43,3.08,2.62,2.62,0,0,0,3.71-.47,1.59,1.59,0,0,0,.37-1.24L183,142.63a2.83,2.83,0,0,0-.92-1.73,1.43,1.43,0,0,0-.76-.27,3.35,3.35,0,0,0-.75,0c-.2,0-.3,0-.31,0q-.21-.84,0-.91a22.89,22.89,0,0,0,2.25-.92,23.24,23.24,0,0,0,2.15-1.08l.22-.11q.15,0,.28.14a.55.55,0,0,1,.14.3Q185.57,140,185.69,140.56Z"/><path class="cls-1" d="M198.06,134.2q3.72-.92,5.19,5l.68,2.74a12.44,12.44,0,0,0,.84,2.55q.11.19.9.22a4.55,4.55,0,0,0,1,0c.06,0,.13.12.21.39a1.72,1.72,0,0,1,.1.57q-.18,0-1.54.26t-2,.41q-.69.17-1.9.56l-1.46.48c-.1-.06-.18-.23-.25-.52s-.07-.44,0-.46a3.51,3.51,0,0,0,.91-.46c.4-.25.6-.45.6-.59a8.48,8.48,0,0,0-.29-2.16l-.68-2.74a6.44,6.44,0,0,0-1.48-3.19,2.39,2.39,0,0,0-2.3-.44,2.75,2.75,0,0,0-1.49.9,1.43,1.43,0,0,0-.43,1.25l1.23,5a12.44,12.44,0,0,0,.84,2.55c.07.13.36.2.87.23a4.27,4.27,0,0,0,1,0q.12,0,.23.39a1.68,1.68,0,0,1,.1.57l-1.54.26q-1.31.23-2,.4t-2,.58l-1.52.5c-.1-.06-.18-.23-.25-.52s-.07-.44,0-.46a4.14,4.14,0,0,0,1-.48q.65-.39.66-.61a9.71,9.71,0,0,0-.32-2.16l-1.16-4.7a2.83,2.83,0,0,0-.92-1.73,1.43,1.43,0,0,0-.76-.27,3.37,3.37,0,0,0-.74,0c-.19,0-.29,0-.29,0-.14-.56-.16-.86-.07-.9a42,42,0,0,0,4.43-2l.06-.06.08,0,.07,0q.12,0,.25.15a.93.93,0,0,1,.17.3,9.8,9.8,0,0,0,.14,1.07c0,.08,0,.12.06.14s.06,0,.12-.12a6.6,6.6,0,0,1,1.48-1.65A5.2,5.2,0,0,1,198.06,134.2Z"/><path class="cls-1" d="M212.25,130.63a5.11,5.11,0,0,1,2.21-.12q.15,0,0-.5l-.67-2.71a10.39,10.39,0,0,0-.66-1.92q-.26-.43-1.62-.09l-.23.06q-.17,0-.29-.42t.06-.5q.84-.3,1.63-.65t1.28-.62q.5-.28.85-.52l.54-.36.21-.13h.06a.33.33,0,0,1,.27.1.55.55,0,0,1,.19.27,11.38,11.38,0,0,0,.38,2.78l3.14,12.7a10.85,10.85,0,0,0,.7,2.09.44.44,0,0,0,.37.25,1.82,1.82,0,0,0,.58,0l.56-.09.29-.06s.1.14.14.33c.09.39.08.59,0,.62s-.6.21-1,.37l-1.17.49-1.08.48-1.14.54c-.12,0-.21-.12-.29-.45l-.12-.49c0-.06,0-.09-.07-.1a.05.05,0,0,0-.07,0,5,5,0,0,1-2.74,1.81,5.76,5.76,0,0,1-4.49-.71,6,6,0,0,1-2.8-3.89,7,7,0,0,1,.77-5.38A6.51,6.51,0,0,1,212.25,130.63Zm.08,1.45a2.6,2.6,0,0,0-2,1.87,7,7,0,0,0,.08,3.69,7.17,7.17,0,0,0,1.84,3.6,2.92,2.92,0,0,0,2.85.75,2.47,2.47,0,0,0,1.46-.9,1.65,1.65,0,0,0,.29-1.43l-1.5-6.06a2.06,2.06,0,0,0-.25-.58,2.76,2.76,0,0,0-.51-.59,1.9,1.9,0,0,0-.93-.41A3.16,3.16,0,0,0,212.34,132.08Z"/><path class="cls-1" d="M222.37,124.56a1.81,1.81,0,0,1-.83-1.14,1.84,1.84,0,0,1,3.58-.88,1.81,1.81,0,0,1-.21,1.4,1.83,1.83,0,0,1-2.54.63Zm6,11.33a10.93,10.93,0,0,0,.87,2.54q.11.19.88.23a4.37,4.37,0,0,0,1,0q.12,0,.23.39a1.69,1.69,0,0,1,.1.57l-1.57.27q-1.36.25-2,.4t-2,.59l-1.49.49a.88.88,0,0,1-.25-.52c-.07-.29-.07-.44,0-.46a4.26,4.26,0,0,0,1-.47q.67-.39.68-.61a9.71,9.71,0,0,0-.32-2.16l-1.16-4.7a2.83,2.83,0,0,0-.92-1.73,1.65,1.65,0,0,0-.77-.27,3.15,3.15,0,0,0-.74,0c-.2,0-.3,0-.31,0q-.21-.84,0-.91a22.77,22.77,0,0,0,2.25-.92,23.11,23.11,0,0,0,2.15-1.08l.22-.11c.1,0,.19,0,.28.15a.55.55,0,0,1,.14.3,25.58,25.58,0,0,0,.38,2.54Z"/><path class="cls-1" d="M239.47,124q3.72-.92,5.19,5l.68,2.74a12.44,12.44,0,0,0,.84,2.55q.11.19.9.22a4.52,4.52,0,0,0,1,0c.06,0,.13.12.2.39a1.67,1.67,0,0,1,.1.57q-.18,0-1.54.26t-2,.41q-.69.17-1.9.56l-1.46.48c-.1-.06-.18-.23-.25-.52s-.07-.44,0-.46a3.55,3.55,0,0,0,.91-.46q.59-.38.6-.59a8.52,8.52,0,0,0-.29-2.16l-.68-2.74a6.45,6.45,0,0,0-1.48-3.19,2.39,2.39,0,0,0-2.3-.44,2.75,2.75,0,0,0-1.49.9,1.43,1.43,0,0,0-.43,1.25l1.23,5a12.38,12.38,0,0,0,.84,2.55c.07.13.36.2.87.23a4.28,4.28,0,0,0,1,0c.08,0,.16.11.23.39a1.73,1.73,0,0,1,.1.57l-1.54.26q-1.31.23-2,.39t-2,.58l-1.52.5a.88.88,0,0,1-.25-.52c-.07-.29-.07-.44,0-.46a4.14,4.14,0,0,0,1-.48q.65-.39.66-.61a9.77,9.77,0,0,0-.32-2.16l-1.16-4.7a2.83,2.83,0,0,0-.92-1.73,1.43,1.43,0,0,0-.76-.27,3.36,3.36,0,0,0-.74,0c-.19,0-.29,0-.3,0q-.21-.84-.07-.9a42.13,42.13,0,0,0,4.43-2,.18.18,0,0,1,.06-.06l.08,0,.07,0q.12,0,.25.15a.93.93,0,0,1,.17.3,9.78,9.78,0,0,0,.14,1.07.24.24,0,0,0,.06.14s.06,0,.12-.12a6.56,6.56,0,0,1,1.47-1.65A5.2,5.2,0,0,1,239.47,124Z"/><path class="cls-1" d="M252.7,120.75a9.41,9.41,0,0,1,2.49-.22,9.18,9.18,0,0,0,2.4-.2l1.65-.41s.14.1.29.33a1.83,1.83,0,0,1,.29.54c.07.27,0,.42-.07.45l-1.87.46c-.08,0-.11.06-.09.12s.15.25.45.69a4.22,4.22,0,0,1,.6,1.32,4.3,4.3,0,0,1-.67,3.43,5.1,5.1,0,0,1-3.23,2.25,12.31,12.31,0,0,1-1.82.33,1.61,1.61,0,0,0-.5.69,1.27,1.27,0,0,0-.11.78.61.61,0,0,0,.4.42,2,2,0,0,0,.92.08c.4,0,.74-.08,1-.13l1.17-.23.43-.11a10.5,10.5,0,0,1,4.42-.25,2.34,2.34,0,0,1,1.87,1.79,4.68,4.68,0,0,1-1.15,4.27,8.13,8.13,0,0,1-4.49,2.79,7.72,7.72,0,0,1-3.88.1,2.67,2.67,0,0,1-2.16-2,2.31,2.31,0,0,1,.42-1.82,4.92,4.92,0,0,1,1.5-1.54,3.39,3.39,0,0,1-1.6-.54,2.17,2.17,0,0,1-1-1.36q-.31-1.24,1.5-3.1a3.93,3.93,0,0,1-1.93-1.1,4.38,4.38,0,0,1-1.3-2.17,4,4,0,0,1,.7-3.6A5.91,5.91,0,0,1,252.7,120.75Zm-1.16,4.73a4.7,4.7,0,0,0,1.17,2.24,1.85,1.85,0,0,0,1.85.57,1.77,1.77,0,0,0,1.37-1.21,4,4,0,0,0,0-2.16,4.88,4.88,0,0,0-1.19-2.34,1.9,1.9,0,0,0-1.91-.54,1.68,1.68,0,0,0-1.31,1.27A4.34,4.34,0,0,0,251.55,125.47Zm8.87,9.38q-.25-1-1.79-1a18.89,18.89,0,0,0-4,.64l-.14.06-.12.12c-.23.16-.4.29-.52.39a2.54,2.54,0,0,0-.38.43,1.44,1.44,0,0,0-.26.6,1.72,1.72,0,0,0,0,.73,2.08,2.08,0,0,0,1.52,1.46,4.63,4.63,0,0,0,2.62.09,4.49,4.49,0,0,0,2.46-1.4A2.32,2.32,0,0,0,260.42,134.86Z"/><path class="cls-1" d="M274.09,115.4a6.55,6.55,0,0,1,5.1.74,6.37,6.37,0,0,1,3.05,4.1,6.73,6.73,0,0,1-13.07,3.23,6.4,6.4,0,0,1,.75-5.06A6.52,6.52,0,0,1,274.09,115.4Zm0,1.45a2.39,2.39,0,0,0-1.78,1.83,6.39,6.39,0,0,0,0,3.32,8.67,8.67,0,0,0,1.94,3.84,3,3,0,0,0,3,1.09,2.42,2.42,0,0,0,1.79-1.85,6.32,6.32,0,0,0,0-3.31,10.16,10.16,0,0,0-1.06-2.69,5.23,5.23,0,0,0-1.74-1.85A2.75,2.75,0,0,0,274,116.85Z"/><path class="cls-1" d="M288.91,104a5.86,5.86,0,0,1,2.08-.19,2.08,2.08,0,0,1,1.24.48,3.33,3.33,0,0,1,.24,1.64,1.06,1.06,0,0,1-.88,1,1.16,1.16,0,0,1-1-.26q-.51-.38-1.06-.75a1.36,1.36,0,0,0-1.13-.23,1.59,1.59,0,0,0-1.11,1.07,5,5,0,0,0-.29,2,12.05,12.05,0,0,0,.36,2.39l.33,1.33s0,0,.08.07a.17.17,0,0,0,.13,0l3.17-.78a.24.24,0,0,1,.15,0s0,.07.07.17a3.07,3.07,0,0,1,0,1.41l-3,.74a.16.16,0,0,0-.13.22l1.59,6.44a11.32,11.32,0,0,0,.87,2.54q.11.19.87.23a4.22,4.22,0,0,0,1,0q.09,0,.21.39a1.69,1.69,0,0,1,.1.57q-.18,0-1.53.26t-2,.41q-.69.17-1.94.57l-1.47.49a.57.57,0,0,1-.19-.29,1.83,1.83,0,0,1-.11-.45c0-.15,0-.23.06-.25a4,4,0,0,0,1-.47c.43-.26.64-.46.65-.6a9.85,9.85,0,0,0-.33-2.43L285.22,115c0-.13-.11-.19-.22-.16l-1.73.43s-.07,0-.1-.16a1.6,1.6,0,0,1,.2-.94,1.19,1.19,0,0,1,.79-.75l.46-.11a.16.16,0,0,0,.13-.22l-.07-.29a8.08,8.08,0,0,1,.52-5.64A5.56,5.56,0,0,1,288.91,104Z"/><path class="cls-1" d="M301,102.2q.32-.08,3.45-1a5.13,5.13,0,0,1,.18.54c.07.25.07.39,0,.43a3,3,0,0,0-.45.16,1.66,1.66,0,0,0-.53.41.69.69,0,0,0-.19.67,3.74,3.74,0,0,0,.9,1.4l8.42,9.77a.15.15,0,0,0,.23,0,.45.45,0,0,0,.14-.23l1.09-4.62-4.63-5.47a12.56,12.56,0,0,0-2.08-2.09,2.09,2.09,0,0,0-.89-.3,2.56,2.56,0,0,0-1,0c-.08,0-.16-.13-.24-.46a.77.77,0,0,1,0-.48l3.85-.77,3.36-1a2.24,2.24,0,0,1,.21.53q.11.37,0,.42a2.7,2.7,0,0,0-.52.19,1.5,1.5,0,0,0-.49.41.69.69,0,0,0-.15.63,4.12,4.12,0,0,0,.89,1.37l2.65,3.17.84-3.91a4.09,4.09,0,0,0,.13-1.72q-.13-.52-.89-.56a4.41,4.41,0,0,0-1.28.09c-.08,0-.15-.11-.22-.37a1,1,0,0,1,0-.54q2.58-.45,3.22-.61t1.19-.32l1.12-.35,1-.31a1.9,1.9,0,0,1,.19.52c.06.24.06.38,0,.41a3.58,3.58,0,0,0-1,.52,2.38,2.38,0,0,0-.84.85,14.73,14.73,0,0,0-1,3.12l-1.05,4.79,4.21,5q.24.25.34-.24.24-1.5,1.26-6.53t1.11-5.54a4.5,4.5,0,0,0,.12-1.74q-.13-.52-.88-.58a3.93,3.93,0,0,0-1.21.05q-.12,0-.23-.37a.77.77,0,0,1,0-.54q2.58-.45,3.23-.62t1.16-.32l1.08-.34,1-.31a2.26,2.26,0,0,1,.2.56c.06.23,0,.36,0,.37a3.2,3.2,0,0,0-.93.49,2.8,2.8,0,0,0-.83.8,13.22,13.22,0,0,0-1,3.16L322,116.42a2,2,0,0,1-.36.82,1,1,0,0,1-.48.36.4.4,0,0,1-.32,0l-5.28-6.23-1.74,7.11a2.17,2.17,0,0,1-.36.84.74.74,0,0,1-.45.34.41.41,0,0,1-.32,0l-11.4-13.29a16.19,16.19,0,0,0-2.12-2.14,1.65,1.65,0,0,0-.91-.27,3.35,3.35,0,0,0-1,.05c-.08,0-.15-.13-.23-.43a.85.85,0,0,1,0-.51Z"/><path class="cls-1" d="M336.51,100a5.51,5.51,0,0,1,2.56-.07,4.7,4.7,0,0,1,2,.94,6.92,6.92,0,0,1,1.35,1.47,5.12,5.12,0,0,1,.73,1.61q.16.64,0,.85a1.69,1.69,0,0,1-.84.38l-6.9,1.71c-.13,0-.19.11-.16.22a5.76,5.76,0,0,0,.88,1.93,4.08,4.08,0,0,0,1.71,1.39,3.5,3.5,0,0,0,2.36.18,8,8,0,0,0,.83-.25,4.48,4.48,0,0,0,.72-.33l.56-.34a2.51,2.51,0,0,0,.47-.39l.33-.34.48-.53a.48.48,0,0,1,.19.14.58.58,0,0,1,.16.27.91.91,0,0,1,0,.59,4.83,4.83,0,0,1-1.32,2,5.52,5.52,0,0,1-2.67,1.49,6,6,0,0,1-4.79-.79,6.41,6.41,0,0,1-2.93-4.07,6.88,6.88,0,0,1,.52-5.15A5.76,5.76,0,0,1,336.51,100Zm.13,1.38a2.1,2.1,0,0,0-1.14.71,2.81,2.81,0,0,0-.59,1.19,5.77,5.77,0,0,0-.15,1.19,3.62,3.62,0,0,0,.08.88c0,.14.11.19.22.16l4.68-1.16c.17,0,.22-.21.15-.5a3.86,3.86,0,0,0-1.19-1.88A2.13,2.13,0,0,0,336.64,101.34Z"/><path class="cls-1" d="M353.84,89.05q2-.41,3.21-.72t3.19-.86l3.12-.88a9.89,9.89,0,0,0,1.92-.78l1.64,4.28a1.15,1.15,0,0,1-.73.39c-.15,0-.26,0-.33-.07a4.29,4.29,0,0,0-1.6-1.89,3.28,3.28,0,0,0-2.22,0q-2.68.66-2.68,1.18a10.37,10.37,0,0,0,.41,2.78l2.58,10.42a10.09,10.09,0,0,0,.88,2.45q.08.19.88.23a4.76,4.76,0,0,0,1.06,0c.08,0,.16.14.24.49a1.52,1.52,0,0,1,.06.48l-1.13.19-1.38.25-1.21.27q-.78.19-2.13.62l-1.66.53a.69.69,0,0,1-.23-.43q-.13-.52,0-.55a4.74,4.74,0,0,0,1-.47q.69-.38.72-.64a9.42,9.42,0,0,0-.36-2.45l-2.58-10.45a8.18,8.18,0,0,0-1-2.74q-.35-.43-2.86.19a3.27,3.27,0,0,0-1.94,1.08,4.4,4.4,0,0,0-.57,2.39c0,.12-.07.2-.25.24a1,1,0,0,1-.81,0l-.54-4.52a9.89,9.89,0,0,0,2.06-.2Z"/><path class="cls-1" d="M378.7,89.53q3.69-.91,5.1,4.77l.73,3a10.91,10.91,0,0,0,.87,2.54c.05.13.34.21.87.23a4.54,4.54,0,0,0,1,0q.09,0,.2.39a3.16,3.16,0,0,1,.13.57l-1.57.27q-1.36.24-2,.4t-1.93.57l-1.49.49a1.13,1.13,0,0,1-.22-.53q-.11-.43,0-.45a3.56,3.56,0,0,0,.94-.46c.4-.25.61-.45.63-.6a11.22,11.22,0,0,0-.35-2.15l-.7-2.83a6.2,6.2,0,0,0-1.47-3.14,2.43,2.43,0,0,0-2.29-.4,2.85,2.85,0,0,0-1.47.88,1.41,1.41,0,0,0-.45,1.28l1.23,5a10.91,10.91,0,0,0,.87,2.54q.11.19.87.23a4.22,4.22,0,0,0,1,0c.06,0,.13.12.2.39a1.64,1.64,0,0,1,.1.57l-1.54.26q-1.31.23-2,.4t-2,.58l-1.51.5c-.1-.06-.18-.23-.25-.52s-.07-.44,0-.46a4.16,4.16,0,0,0,1-.48c.43-.26.66-.46.66-.61a9.57,9.57,0,0,0-.31-2.13l-3-12a11.73,11.73,0,0,0-.63-1.93q-.26-.43-1.62-.09l-.26.06q-.17,0-.29-.42c-.08-.31-.06-.48.06-.5q.87-.31,1.65-.65t1.27-.62q.5-.28.85-.52l.75-.49h.06a.32.32,0,0,1,.27.1.84.84,0,0,1,.22.27,9.56,9.56,0,0,0,.32,2.8l1.44,5.83c0,.12.08.16.16.14s.05,0,.09-.11a5.65,5.65,0,0,1,1.46-1.69A5.48,5.48,0,0,1,378.7,89.53Z"/><path class="cls-1" d="M392.15,86.21a5.51,5.51,0,0,1,2.56-.07,4.7,4.7,0,0,1,2,.94,6.88,6.88,0,0,1,1.35,1.47,5.12,5.12,0,0,1,.73,1.61q.16.64,0,.85a1.68,1.68,0,0,1-.84.38L391,93.1c-.13,0-.19.11-.16.22a5.78,5.78,0,0,0,.88,1.93,4.09,4.09,0,0,0,1.71,1.39,3.5,3.5,0,0,0,2.36.18,8,8,0,0,0,.83-.25,4.43,4.43,0,0,0,.71-.33l.56-.34a2.55,2.55,0,0,0,.47-.39l.33-.34.48-.53a.47.47,0,0,1,.19.14.59.59,0,0,1,.16.27.91.91,0,0,1,0,.59,4.83,4.83,0,0,1-1.32,2,5.51,5.51,0,0,1-2.67,1.49,6,6,0,0,1-4.79-.79,6.41,6.41,0,0,1-2.93-4.07,6.88,6.88,0,0,1,.52-5.15A5.76,5.76,0,0,1,392.15,86.21Zm.13,1.38a2.11,2.11,0,0,0-1.14.71,2.8,2.8,0,0,0-.59,1.19,5.84,5.84,0,0,0-.15,1.19,3.62,3.62,0,0,0,.08.88c0,.14.11.19.22.16l4.67-1.16c.17,0,.22-.21.15-.5a3.86,3.86,0,0,0-1.19-1.88A2.13,2.13,0,0,0,392.28,87.59Z"/><path class="cls-1" d="M420.56,76.7a7.24,7.24,0,0,0-.86-2.24c-.15-.21-.52-.31-1.1-.31a6,6,0,0,0-1.33.12c-.08,0-.15-.11-.23-.39a1,1,0,0,1-.06-.55q3.14-.56,3.69-.7.75-.19,1.91-.58t1.45-.46a1.27,1.27,0,0,1,.17.45q.12.49,0,.52a5.68,5.68,0,0,0-1.19.52,1.93,1.93,0,0,0-1,.86,6.93,6.93,0,0,0,.28,2.47L425,87.36q.26,1,1.11,4c-.06.1-.26.19-.61.27a1.27,1.27,0,0,1-1.09-.44L409.2,78.81l2.89,11.69a8.29,8.29,0,0,0,.82,2.31c.15.21.56.32,1.21.33a6.19,6.19,0,0,0,1.36-.08c.06,0,.12.11.2.38a1.62,1.62,0,0,1,.09.56l-3.65.72q-.78.19-1.9.55l-1.49.48a.73.73,0,0,1-.24-.46c-.08-.31-.08-.47,0-.49a5.61,5.61,0,0,0,1.26-.54,1.63,1.63,0,0,0,.89-.91,6.81,6.81,0,0,0-.31-2.5l-2.8-11.31a4.86,4.86,0,0,0-.84-2q-.17-.17-1.09-.13a7.72,7.72,0,0,0-1.33.14c-.08,0-.16-.11-.24-.4a.82.82,0,0,1,0-.57q3.06-.6,3.47-.7,1-.24,2.56-.79a30.58,30.58,0,0,0,2.76,2.58q2,1.67,5.33,4.38t4.6,3.75a8.57,8.57,0,0,0-.24-1.2Z"/><path class="cls-1" d="M433.38,76a5.51,5.51,0,0,1,2.56-.07,4.7,4.7,0,0,1,2,.94,6.92,6.92,0,0,1,1.35,1.47A5.15,5.15,0,0,1,440,80q.16.64,0,.85a1.69,1.69,0,0,1-.84.38l-6.9,1.71c-.13,0-.19.11-.16.22a5.78,5.78,0,0,0,.88,1.93,4.09,4.09,0,0,0,1.7,1.39,3.5,3.5,0,0,0,2.36.18,8,8,0,0,0,.83-.25,4.43,4.43,0,0,0,.71-.33l.56-.34a2.57,2.57,0,0,0,.47-.39l.33-.34.48-.53a.47.47,0,0,1,.19.14.57.57,0,0,1,.16.27.92.92,0,0,1,0,.59,4.84,4.84,0,0,1-1.32,2,5.51,5.51,0,0,1-2.66,1.49,6,6,0,0,1-4.79-.79A6.41,6.41,0,0,1,429,84a6.88,6.88,0,0,1,.52-5.15A5.76,5.76,0,0,1,433.38,76Zm.13,1.38a2.1,2.1,0,0,0-1.14.71,2.8,2.8,0,0,0-.59,1.19,5.77,5.77,0,0,0-.15,1.19,3.57,3.57,0,0,0,.08.88c0,.14.11.19.22.16l4.68-1.16q.26-.06.15-.5A3.85,3.85,0,0,0,435.57,78,2.13,2.13,0,0,0,433.51,77.39Z"/><path class="cls-1" d="M459,72a.86.86,0,0,0-.38-.53,1.31,1.31,0,0,0-.68-.2,5.48,5.48,0,0,0-.7,0,4.38,4.38,0,0,0-.6.1l-.12,0c-.08,0-.16-.12-.24-.4s-.1-.47-.06-.54q.38-.09,1.55-.29t1.87-.37q.61-.15,1.52-.47c.61-.21,1.06-.35,1.35-.43a1.9,1.9,0,0,1,.18.48c.07.29.07.44,0,.46a3.38,3.38,0,0,0-1,.64,1.82,1.82,0,0,0-.78,1.13L459.1,82.88a1.17,1.17,0,0,1-.29.52,1,1,0,0,1-.52.33.37.37,0,0,1-.42-.11l-5.49-7.09-1.23,8.3a1.58,1.58,0,0,1-.23.49.9.9,0,0,1-.56.38.44.44,0,0,1-.45-.1q-1-1.34-2.47-3.26t-2.6-3.38q-1.16-1.46-2.62-3.15a1.37,1.37,0,0,0-.89-.39,2.87,2.87,0,0,0-1,0q-.12,0-.23-.43t0-.52q.29-.07,1.48-.27t1.85-.37q.67-.16,1.94-.57l1.48-.46a1.64,1.64,0,0,1,.19.5c.06.25.07.39,0,.43a3.5,3.5,0,0,0-.94.45q-.57.36-.47.76s1.52,2,4.53,5.92q.12-.89.28-2l.25-1.72q.09-.59.17-1.19c.05-.4.09-.7.1-.9a1.59,1.59,0,0,0,0-.38,2.16,2.16,0,0,0-.66-1.06,1.4,1.4,0,0,0-.75-.3,2.36,2.36,0,0,0-1.08.08c-.08,0-.15-.11-.22-.39s-.07-.46,0-.53.69-.14,1.45-.27,1.36-.25,1.82-.36,1-.29,1.85-.55l1.45-.45a1.45,1.45,0,0,1,.18.52q.09.42,0,.44-1.47.36-1.22,1.37a47.75,47.75,0,0,0,4.3,5.74q.16-1.33.44-3.12t.4-2.67A4,4,0,0,0,459,72Z"/><path class="cls-1" d="M468.86,67.21a12.63,12.63,0,0,1,3.47-.34A16.86,16.86,0,0,1,473.45,70c0,.15-.07.26-.32.32-.42.1-.67.09-.75-.06a3.62,3.62,0,0,0-1.28-1.51,2.33,2.33,0,0,0-1.92-.28,2.14,2.14,0,0,0-1.22.7,1.32,1.32,0,0,0-.21,1.19,1.72,1.72,0,0,0,.34.7,1.83,1.83,0,0,0,.67.49,7.11,7.11,0,0,0,.75.3c.21.07.52.16.94.26l.33.07.49.12.54.14.53.16a5.48,5.48,0,0,1,.59.21l.53.24a2.35,2.35,0,0,1,.53.3l.46.36a1.91,1.91,0,0,1,.43.44,5.61,5.61,0,0,1,.29.51,2.74,2.74,0,0,1,.23.6,3.5,3.5,0,0,1-.69,3.22,5.64,5.64,0,0,1-3.13,1.89,9.92,9.92,0,0,1-3.92.11A11.85,11.85,0,0,1,467,79a14.26,14.26,0,0,1-.55-1.62.63.63,0,0,1,.37-.24c.44-.11.69-.09.75.06a3.27,3.27,0,0,0,1.62,1.67,3.17,3.17,0,0,0,2.16.25,2.16,2.16,0,0,0,1.23-.73,1.45,1.45,0,0,0,.23-1.31,1.91,1.91,0,0,0-.2-.52,1.47,1.47,0,0,0-.4-.42l-.43-.32a2.16,2.16,0,0,0-.62-.26l-.66-.19-.81-.2-.83-.21a6.92,6.92,0,0,1-2.43-1,3.44,3.44,0,0,1-.52-4.94A5.74,5.74,0,0,1,468.86,67.21Z"/></svg>