<?xml version="1.0" encoding="utf-8"?>
<!-- Generator: Adobe Illustrator 21.1.0, SVG Export Plug-In . SVG Version: 6.00 Build 0)  -->
<svg version="1.1" xmlns="http://www.w3.org/2000/svg" xmlns:xlink="http://www.w3.org/1999/xlink" x="0px" y="0px"
	 viewBox="0 0 593 724.5" style="enable-background:new 0 0 593 724.5;" xml:space="preserve">
<style type="text/css">
	.st0{fill:#FEF9F9;}
	.st1{fill:#F8EDF4;}
	.st2{fill:#FFFFFF;}
	.st3{fill:#FAEFE6;}
	.st4{fill:#2F3390;}
	.st5{fill:#FFFFFF;stroke:#2F3390;stroke-width:1.2;stroke-miterlimit:10;}
	.st6{fill:#232DAF;}
	.st7{fill:#1928EB;}
	.st8{fill:#FDC7C9;}
	.st9{fill:#FEEA80;}
	.st10{fill:#EB7975;}
	.st11{fill:#606060;}
	.st12{fill:none;}
	.st13{fill:#0624FF;}
	.st14{fill:none;stroke:#2F3390;stroke-width:1.5;stroke-miterlimit:10;}
	.st15{fill:none;stroke:#2F3390;stroke-width:1.5;stroke-linejoin:bevel;stroke-miterlimit:10;}
	.st16{fill:#FFFFFF;stroke:#2F3390;stroke-width:1.2587;stroke-miterlimit:10;}
	.st17{fill:#FFFFFF;stroke:#2F3390;stroke-width:2;stroke-miterlimit:10;}
	.st18{fill:none;stroke:#2F3390;stroke-width:3.025;stroke-miterlimit:10;}
	.st19{fill:none;stroke:#2F3390;stroke-width:3.025;stroke-linejoin:bevel;stroke-miterlimit:10;}
	.st20{fill:none;stroke:#2F3390;stroke-width:15;stroke-miterlimit:10;}
	.st21{fill:#EB7975;stroke:#FAEFE6;stroke-width:1.4;stroke-miterlimit:10;}
	.st22{fill:#2F3380;}
	.st23{fill:#00FF00;}
	.st24{fill:#FEF9F9;stroke:#1928EB;stroke-width:3;stroke-linecap:round;stroke-linejoin:round;stroke-miterlimit:10;}
	.st25{fill:#FFFFFF;stroke:#1414EF;stroke-width:1.5;stroke-miterlimit:10;}
	.st26{fill:#FFFFFF;stroke:#1928EB;stroke-width:1.3;stroke-miterlimit:10;}
	.st27{fill:#FFFFFF;stroke:#1414EF;stroke-width:1.2;stroke-miterlimit:10;}
	.st28{fill:#FFFFFF;stroke:#1414EF;stroke-width:1.75;stroke-miterlimit:10;}
	.st29{fill:#1414EF;}
</style>
<g id="Layer_1">
	<g>
		<g>
			<path class="st28" d="M67.4,7.2c7.2-5.8,15.7-7.6,25.4-5.5c9.4,1.8,17.8,7,23.8,14.5c1.9,2.3,3.7,4.8,5.2,7.4
				c1.3,2.2,3,5.5,5,9.8c2,4.3,3.4,7.3,4.1,8.8c-6.3,7.1-13.3,13.6-20.7,19.5c-0.9,0.5-2.1,0.2-2.7-0.7c-2.1-2.6-2.8-4.3-2.1-5.2
				c3.9-4.1,6.6-9.6,8-16.6s0-12.9-4.1-18c-3.5-4.4-7.5-6.8-11.8-7.1c-4.4-0.3-8.6,1.2-12.9,4.5c-1.4,1.1-2.6,2.4-3.7,3.8
				c-1.1,1.5-1.8,3.2-2.2,5.1c-0.4,2-0.8,3.7-1.1,4.9c-0.3,2-0.4,4-0.2,6.1c0.2,2.8,0.3,4.7,0.3,5.7c0,1,0.2,3.2,0.7,6.6
				c0.2,2,0.5,4,0.9,6c0.1,2.4,0.4,4.9,0.8,7.3c0.5,3.9,0.9,6.7,1,8.3c0.1,1.6,0.1,4.1,0,7.6c0,2.8-0.5,5.6-1.4,8.3
				c-1,2.5-2.3,4.9-3.8,7.2c-1.8,2.7-4,5.2-6.6,7.2c-7.6,6.1-16.4,8.1-26.3,5.9c-9.8-2.1-18.6-7.6-24.7-15.5
				C13.6,87.3,7.9,77.4,1,63.4c3.5-4.5,7.2-8.7,11.1-12.8c3-3.3,6.1-6.4,9.4-9.3c0.8-0.5,1.8-0.1,3,1.4c2,2.5,2.7,4.2,2.2,5.1
				c-1.6,2-2.9,4.2-4.1,6.6c-1.4,3-2.6,6.1-3.4,9.3c-1,3.7-1.1,7.6-0.3,11.4c0.9,4.2,2.7,8.1,5.4,11.3c3.2,4.2,7.8,7.1,13,7.9
				c5.1,0.8,10.3-0.9,15.6-5.2c1.6-1.3,3-2.9,4-4.7c0.9-1.7,1.7-3.4,2.1-5.3c0.4-2.1,0.6-4.2,0.6-6.4c0-2.6-0.1-4.7-0.3-6.3
				c-0.2-1.6-0.5-3.9-0.9-6.9c-0.5-3-0.8-5.2-1-6.4c0-0.8,0-1.7-0.2-2.5c-0.5-4.2-0.9-7.3-1.1-9.5C56,38,56,35,56,32
				c0-3.1,0.4-6.3,1.1-9.3c0.8-2.8,2-5.4,3.6-7.9C62.5,11.9,64.7,9.3,67.4,7.2z"/>
			<path class="st28" d="M137.6,108.7c3.4,4.1,5.8,9,7,14.2c1.1,4.5,1.1,9.2-0.1,13.8c-1,4-2.6,7.9-4.8,11.4c-1.9,3.2-4.3,6-7.1,8.3
				c-2.1,1.7-3.7,2.4-4.8,2.1c-1.1-0.3-2.5-1.5-4.3-3.7L96,120.4c-0.5-0.7-1.1-0.8-1.6-0.3c-3.4,2.8-6.3,6.1-8.6,9.9
				c-2.3,4-3.5,8.6-3.3,13.2c0.1,5,1.9,9.9,5.1,13.7c1.1,1.4,2.3,2.7,3.5,4c1.1,1.2,2.4,2.2,3.7,3.2c1.3,0.9,2.4,1.6,3.3,2.3
				c1.1,0.7,2.2,1.2,3.4,1.6l2.8,1c0.5,0.2,2,0.6,4.2,1.3c0,0.5-0.1,1-0.3,1.4c-0.2,0.6-0.6,1.2-1.1,1.6c-1,0.8-2.2,1.3-3.4,1.3
				c-3.7,0.6-8.6-0.1-14.6-2.2c-6-2.2-11.3-6-15.3-11.1c-6.7-8.3-9.4-18-8-29c1.2-10.7,6.7-20.5,15.2-27.1
				c9.7-7.8,19.8-11.3,30.3-10.5C122,95.4,130.7,100.1,137.6,108.7z M130.2,113c-1.8-2.2-4.2-3.8-6.9-4.5c-2.7-0.7-5.5-0.8-8.2-0.2
				c-2.4,0.5-4.8,1.3-7.1,2.2c-1.7,0.7-3.3,1.6-4.8,2.8c-0.7,0.5-0.8,1.1-0.3,1.6l18.7,23.3c0.7,0.9,1.8,0.7,3.2-0.4
				c3.6-3,6.2-7.1,7.5-11.6C133.9,121.1,133.2,116.7,130.2,113z"/>
			<path class="st28" d="M202,188.8c9.9,12.4,5.1,26.4-14.6,42.2l-13.6,11c-5.8,4.7-9.9,8.5-12.1,11.4c-0.5,0.7-0.2,2.6,1.1,5.6
				c0.7,2,1.7,4,2.9,5.8c0.2,0.3-0.3,1-1.7,2.2c-0.9,0.8-1.9,1.5-3,2c-0.4-0.6-2.2-3.3-5.5-8c-3.3-4.7-5.8-8.1-7.6-10.3
				c-1.8-2.3-4.6-5.4-8.1-9.2c-3.6-3.8-5.7-6.1-6.5-6.9c0.1-0.7,0.8-1.6,2.3-2.8c1.4-1.2,2.3-1.5,2.6-1.2c1.4,1.5,3.1,2.9,4.9,3.9
				c2.5,1.6,4.1,2.2,4.9,1.8c4.1-1.9,8-4.4,11.4-7.3l13.6-11c7.9-6.4,12.6-11.9,14.1-16.6c1.4-4.7,0.3-9.4-3.5-14.1
				c-2.3-2.9-5.4-5-9-6c-3.5-1-6.2-0.7-8.2,0.9l-24.7,19.8c-5.8,4.7-9.9,8.5-12.1,11.4c-0.5,0.7-0.2,2.6,1,5.5
				c0.7,1.9,1.6,3.8,2.7,5.5c0.3,0.4-0.2,1.2-1.6,2.3c-0.9,0.8-1.9,1.5-3,2c-0.5-0.8-2.4-3.5-5.5-8c-3.1-4.5-5.6-7.8-7.4-10
				c-1.8-2.3-4.7-5.5-8.4-9.6s-6-6.5-6.7-7.2c0.1-0.7,0.8-1.6,2.3-2.8c1.4-1.2,2.3-1.5,2.6-1.2c1.6,1.7,3.3,3.2,5.3,4.4
				c2.6,1.8,4.3,2.5,5.1,2.1c4-2,7.8-4.5,11.3-7.4l23.4-18.8c4.5-3.6,7-6.8,7.4-9.7c0.3-1.7,0.2-3.4-0.4-5c-0.5-1.4-1.1-2.8-1.9-4.1
				c-0.6-1-0.9-1.6-0.7-1.7c2.8-2.2,4.4-3.1,4.9-2.7c3.9,4.1,11.6,10.6,22.9,19.7c0.2,0,0.3,0.1,0.5,0.2c0.2,0.1,0.3,0.2,0.4,0.4
				l0.3,0.3c0.3,0.4,0.2,1-0.2,1.8c-0.3,0.6-0.7,1.2-1.2,1.7c-1.9,1.1-3.8,2.3-5.6,3.6c-0.3,0.2-0.5,0.4-0.6,0.7
				c0.3,0.2,0.7,0.3,1,0.4c4.6,0.6,9,1.9,13.1,4C195,182,198.9,185,202,188.8z"/>
			<path class="st28" d="M228.3,242.2l-7-8.8c-0.5-0.7,0.4-2,2.9-4c0.4-0.4,0.9-0.7,1.4-0.9c5.2,2.6,10.8,4.2,16.5,5
				c2.2,0.2,4.7,0.5,7.5,0.7c2.8,0.2,6.2,0.3,10.3,0.3c0.7,0.9,1.4,1.9,1.8,3c0.5,1.1,0.5,1.7,0.3,1.9l-14,11.3
				c2,2.5,4.8,6,8.3,10.5l5.6,7.2c0.6,0.8,0.5,1.5-0.4,2.2c-2.2,1.8-4.7,3-7.5,3.6l-13.8-17.2l-34.6,27.8c-3.8,3.1-6.1,6.2-6.8,9.5
				c-0.7,3.3,0.2,6.7,2.4,9.2c0.8,1,1.8,1.9,2.8,2.7c0.9,0.7,1.9,1.4,2.9,2c0.8,0.4,1.6,0.8,2.4,1.2c0.4,0.2,0.9,0.4,1.2,0.7
				c0.4,0.3,0.3,1.1-0.3,2.3c-0.3,0.8-0.7,1.5-1.4,2.1c-1.8,0.5-5-0.3-9.6-2.4c-4.2-1.8-8-4.6-10.9-8.1c-3.9-4.6-5.8-10.6-5.4-16.6
				c0.4-6.1,4-11.8,10.7-17.2L228.3,242.2z"/>
			<path class="st28" d="M249.5,336.2c-5.8,4.7-9.8,8.5-12,11.5c-0.5,0.7-0.2,2.6,1,5.6c0.7,2,1.7,4,2.8,5.7
				c0.3,0.4-0.2,1.2-1.6,2.3c-0.9,0.8-1.9,1.5-3,2c-0.4-0.7-2.3-3.5-5.6-8.1s-5.8-8.1-7.5-10.2c-1.9-2.4-4.8-5.7-8.6-9.8
				c-3.8-4.1-6-6.5-6.6-7.1c0.1-0.7,0.8-1.6,2.3-2.8s2.3-1.5,2.6-1.2c1.6,1.7,3.3,3.1,5.2,4.3c2.6,1.8,4.4,2.5,5.2,2.2
				c4-2,7.8-4.5,11.3-7.4l23.4-18.8c4.5-3.6,7-6.8,7.4-9.7c0.3-1.7,0.1-3.4-0.5-5.1c-0.5-1.4-1.1-2.8-1.9-4.1
				c-0.7-1-0.9-1.6-0.7-1.8c2.8-2.2,4.4-3.1,5-2.6c3.5,3.6,7.2,7,11.1,10.2c3.7,3.3,7.6,6.4,11.7,9.3c0.4,0.3,0.8,0.6,1.2,0.9
				c0.4,0.5,0.4,1.1-0.1,2c-0.3,0.6-0.7,1.2-1.3,1.5c-4.6,2.7-9,5.6-13.3,8.8L249.5,336.2z M297.6,273c0.3-3,1.9-5.8,4.2-7.7
				c4.9-3.9,12-3.2,15.9,1.7c0,0,0.1,0.1,0.1,0.1c4,4.8,3.2,12-1.6,15.9c0,0-0.1,0-0.1,0.1c-2.3,1.9-5.4,2.8-8.4,2.5
				c-6.2-0.6-10.8-6.2-10.2-12.4C297.6,273.2,297.6,273.1,297.6,273L297.6,273z"/>
			<path class="st28" d="M344.4,366.1c2.8,3.3,4.4,7.3,4.7,11.6c0.2,4-0.7,8-2.6,11.6c5.5,0.6,10.7,2.2,15.6,4.7
				c5.3,2.7,10,6.5,13.7,11.2c2.6,3,4.2,6.7,4.8,10.7c0.4,3.7-0.2,7.5-1.7,10.9c-1.7,3.7-3.9,7.1-6.5,10.2c-2.9,3.4-6.2,6.5-9.7,9.3
				l-15.1,12.1c-5.8,4.7-9.9,8.5-12.1,11.4c-0.5,0.7-0.2,2.6,1,5.6c0.7,2,1.7,4,2.8,5.7c0.2,0.3-0.3,1-1.7,2.2c-0.9,0.8-1.9,1.5-3,2
				c-0.4-0.7-2.3-3.4-5.5-8c-3.2-4.6-5.7-8-7.5-10.2c-1.8-2.3-4.6-5.5-8.3-9.5c-3.7-4-6-6.4-6.7-7.2c0.1-0.6,0.9-1.5,2.4-2.6
				s2.3-1.6,2.5-1.3c1.5,1.7,3.3,3.1,5.2,4.3c2.6,1.7,4.3,2.4,5.1,2.1c3.9-1.9,7.5-4.3,10.9-7.1l14.7-11.8
				c13.9-11.2,17.2-21.2,10.1-30.1c-2.2-2.9-5.2-5-8.6-6c-3.2-0.9-5.7-0.9-7.4-0.2c-0.3,0.2-0.7,0.5-1.2,0.9c-0.4,0.2-0.8,0.6-1.1,1
				c-2.7,2.7-5.6,5.2-8.6,7.6l-15.2,12.2c-5.5,4.4-9.3,8-11.5,10.9c-0.5,0.7-0.2,2.6,1,5.6c0.7,2,1.7,4,2.8,5.7
				c0.2,0.3-0.3,1-1.7,2.2c-0.9,0.8-1.9,1.5-3,2c-0.4-0.7-2.3-3.4-5.5-8c-3.2-4.6-5.7-8-7.5-10.2c-1.8-2.3-4.6-5.5-8.3-9.5
				c-3.7-4-6-6.4-6.7-7.2c0.1-0.6,0.9-1.5,2.4-2.6c1.4-1.2,2.3-1.6,2.5-1.3c1.5,1.7,3.3,3.1,5.2,4.3c2.6,1.7,4.3,2.4,5.1,2.1
				c4-2,7.8-4.5,11.3-7.4l13.8-11.1c7.5-6,12-11.4,13.6-16.3c1.6-4.9,0.6-9.5-2.9-13.8c-2.3-2.8-5.3-4.9-8.8-5.9
				c-3.6-1.1-6.3-0.8-8.3,0.8l-24.7,19.8c-5.8,4.7-9.8,8.5-12,11.5c-0.5,0.7-0.2,2.5,0.9,5.4c0.7,2,1.6,3.9,2.7,5.6
				c0.3,0.4-0.2,1.2-1.6,2.3c-0.9,0.8-1.9,1.5-3,2c-0.5-0.8-2.3-3.5-5.5-8s-5.6-7.8-7.4-10c-1.9-2.4-4.8-5.6-8.5-9.7
				c-3.7-4.1-6-6.5-6.7-7.2c0.1-0.7,0.8-1.6,2.3-2.8c1.4-1.2,2.3-1.5,2.6-1.2c1.6,1.7,3.3,3.1,5.2,4.3c2.6,1.8,4.4,2.5,5.2,2.2
				c4-2,7.8-4.5,11.3-7.4l23.4-18.8c4.5-3.6,7-6.8,7.4-9.7c0.3-1.7,0.2-3.4-0.4-5c-0.5-1.5-1.2-2.9-2-4.2c-0.7-1-0.9-1.6-0.7-1.8
				c2.8-2.2,4.4-3.1,5-2.6c3.9,4.1,11.5,10.6,22.8,19.5c0.2,0,0.4,0.1,0.6,0.3c0.2,0.2,0.4,0.4,0.6,0.7c0.4,0.5,0.4,1.1-0.1,2
				c-0.3,0.6-0.7,1.2-1.3,1.5c-1.9,1.1-3.8,2.3-5.6,3.6c-0.4,0.3-0.5,0.6-0.5,0.9c0.3,0.2,0.7,0.3,1,0.4c4.6,0.6,9,1.9,13.1,4
				C337.4,359.2,341.3,362.3,344.4,366.1z"/>
			<path class="st28" d="M427.7,469.8c3.4,4.1,5.8,9,7,14.2c1.1,4.5,1,9.3-0.1,13.8c-1,4-2.6,7.9-4.8,11.4c-1.9,3.2-4.3,6-7.1,8.3
				c-2.1,1.7-3.7,2.4-4.8,2.1s-2.5-1.5-4.3-3.7L386,481.5c-0.5-0.7-1.1-0.8-1.6-0.3c-3.4,2.8-6.3,6.1-8.6,9.9
				c-2.3,4-3.5,8.6-3.3,13.2c0.1,5,1.9,9.9,5.1,13.7c1.1,1.4,2.3,2.7,3.5,4c1.1,1.2,2.4,2.2,3.7,3.2c1.3,0.9,2.4,1.6,3.3,2.3
				c1.1,0.7,2.2,1.2,3.4,1.6l2.8,1c0.5,0.2,2,0.6,4.2,1.3c0,0.5-0.1,1-0.3,1.4c-0.2,0.6-0.6,1.2-1.1,1.6c-1,0.8-2.2,1.3-3.4,1.3
				c-3.7,0.6-8.6-0.1-14.6-2.2c-6-2.2-11.3-6-15.3-11.1c-6.7-8.3-9.4-18-8-29c1.2-10.7,6.7-20.5,15.2-27.1
				c9.7-7.8,19.8-11.3,30.3-10.5C412,456.5,420.7,461.2,427.7,469.8z M420.3,474.1c-1.8-2.2-4.2-3.8-6.9-4.5
				c-2.7-0.7-5.5-0.8-8.2-0.2c-2.4,0.5-4.8,1.3-7.1,2.2c-1.7,0.7-3.3,1.6-4.8,2.8c-0.7,0.5-0.8,1.1-0.3,1.6l18.7,23.3
				c0.7,0.9,1.8,0.7,3.2-0.4c3.6-3,6.2-7.1,7.5-11.6C423.9,482.2,423.3,477.8,420.3,474.1L420.3,474.1z"/>
			<path class="st28" d="M492.1,550c9.9,12.4,5.1,26.4-14.6,42.2l-13.7,11c-5.8,4.7-9.9,8.5-12.1,11.4c-0.5,0.7-0.2,2.6,1.1,5.6
				c0.7,2,1.7,4,2.9,5.8c0.2,0.3-0.3,1-1.7,2.2c-0.9,0.8-1.9,1.5-3,2c-0.4-0.7-2.2-3.3-5.5-8c-3.3-4.7-5.8-8.1-7.6-10.3
				c-1.8-2.3-4.6-5.4-8.1-9.2c-3.6-3.8-5.7-6.1-6.5-6.9c0.1-0.7,0.8-1.6,2.3-2.8s2.3-1.5,2.6-1.2c1.4,1.5,3.1,2.9,4.9,3.9
				c2.5,1.6,4.1,2.2,4.9,1.8c4.1-1.9,7.9-4.4,11.4-7.3l13.6-11c7.9-6.4,12.6-11.9,14.1-16.6c1.4-4.7,0.3-9.4-3.5-14.1
				c-2.2-3-5.4-5.1-8.9-6.1c-3.5-1-6.2-0.7-8.2,0.9l-24.7,19.8c-5.8,4.7-9.9,8.5-12.1,11.4c-0.5,0.7-0.2,2.6,1,5.5
				c0.7,1.9,1.6,3.8,2.7,5.5c0.3,0.4-0.2,1.1-1.6,2.3c-0.9,0.8-1.9,1.5-3,2c-0.5-0.8-2.3-3.5-5.5-8c-3.1-4.5-5.6-7.8-7.4-10
				c-1.8-2.3-4.7-5.5-8.4-9.6c-3.8-4.1-6-6.5-6.7-7.2c0.1-0.7,0.8-1.6,2.3-2.8c1.4-1.2,2.3-1.5,2.6-1.2c1.6,1.7,3.3,3.2,5.3,4.4
				c2.6,1.8,4.3,2.5,5.1,2.1c4-2,7.8-4.5,11.3-7.4l23.4-18.8c4.5-3.6,7-6.8,7.4-9.7c0.3-1.7,0.2-3.4-0.4-5c-0.5-1.4-1.1-2.8-1.9-4.1
				c-0.6-1-0.9-1.6-0.7-1.7c2.8-2.2,4.4-3.1,4.9-2.7c3.9,4.1,11.6,10.6,22.9,19.7c0.2,0,0.4,0.1,0.5,0.2c0.2,0.1,0.3,0.2,0.4,0.4
				l0.3,0.3c0.3,0.4,0.2,1-0.2,1.8c-0.3,0.6-0.7,1.2-1.2,1.7c-1.9,1.1-3.8,2.3-5.6,3.6c-0.3,0.2-0.5,0.4-0.6,0.7
				c0.3,0.2,0.7,0.3,1,0.4c4.6,0.6,9,1.9,13.1,4C485.1,543.1,489,546.1,492.1,550z"/>
			<path class="st28" d="M518.3,603.3l-7-8.8c-0.5-0.7,0.4-2,2.9-4c0.4-0.4,0.9-0.7,1.4-0.9c5.2,2.6,10.8,4.2,16.5,4.9
				c2.2,0.2,4.7,0.5,7.5,0.7c2.8,0.2,6.2,0.3,10.3,0.3c0.7,0.9,1.4,1.9,1.8,3c0.5,1.1,0.5,1.7,0.3,1.9l-14,11.3
				c2,2.5,4.8,6,8.3,10.5l5.6,7.2c0.6,0.8,0.5,1.5-0.4,2.2c-2.2,1.8-4.7,3-7.5,3.6l-13.8-17.2l-34.6,27.8c-3.8,3.1-6.1,6.2-6.8,9.5
				c-0.7,3.3,0.2,6.7,2.4,9.2c0.8,1,1.8,1.9,2.8,2.7c0.9,0.7,1.9,1.4,2.9,2c0.8,0.4,1.6,0.8,2.4,1.2c0.4,0.2,0.9,0.4,1.2,0.7
				c0.4,0.3,0.3,1.1-0.3,2.3c-0.3,0.8-0.7,1.5-1.4,2.1c-1.8,0.5-5-0.3-9.6-2.4c-4.2-1.8-8-4.6-10.9-8.1c-3.9-4.6-5.8-10.6-5.4-16.6
				c0.4-6.1,4-11.8,10.7-17.2L518.3,603.3z"/>
			<path class="st28" d="M581,660.4c4.5,5.7,8.2,11.9,10.9,18.6c-4.5,5.3-9.4,10.2-14.8,14.5c-0.8,0.6-1.7,0.3-2.6-0.9
				c-1.7-2.1-2.2-3.5-1.6-4.4c2.7-3.2,4.5-7,5.1-11.1c0.6-4-0.5-7.9-3.5-11.5c-2.2-2.8-4.6-4.5-7.1-5c-2.6-0.6-5.3,0.1-7.2,1.9
				c-1.3,1-2.3,2.3-3,3.7c-0.7,1.6-1.1,3.3-1,5.1c0,1.7,0.1,3.3,0.2,5c0.2,1.4,0.5,3.3,1,5.9c0.1,0.7,0.2,1.4,0.4,2l0.6,3.1
				c0.3,1.8,0.5,2.9,0.6,3.4l0.5,3.4c0.2,1.3,0.3,2.6,0.4,3.8c0,0.8,0,2,0.1,3.6c0.1,1.3,0,2.5-0.3,3.8c-0.2,0.9-0.5,2.1-0.9,3.5
				c-0.3,1.3-0.7,2.5-1.4,3.6c-0.6,1-1.3,2-2.1,3c-0.8,1.1-1.8,2-2.8,2.9c-6,4.8-12.7,6.3-19.9,4.5c-7.2-1.8-13.5-6.1-18.8-12.8
				c-5-6.5-8.7-13.9-10.9-21.8c2.1-2.8,4.4-5.4,6.8-7.8c2.4-2.6,5-5.1,7.7-7.3c0.9,0.2,1.8,0.7,2.3,1.4c1.8,2.2,2.3,3.7,1.6,4.4
				c-3.3,3.7-5.1,8.5-5.1,13.5c-0.1,4.6,1.4,9.2,4.2,12.8c1.8,2.4,4.4,4.2,7.3,5c2.7,0.7,5.4-0.1,8-2.1c0.9-0.7,1.7-1.6,2.4-2.5
				c0.7-1,1.1-2.1,1.3-3.3l0.7-3.3c0.2-1.4,0.1-2.8-0.1-4.1c-0.3-1.9-0.5-3.3-0.7-4.2c-0.2-0.9-0.5-2.6-1-5.1
				c-0.5-2.5-0.8-4.2-1-5.2c-1.2-5.4-1.4-10.9-0.5-16.4c0.9-4.7,3.5-8.9,7.4-11.9c5.8-4.7,12.2-6,19-4
				C570.4,650.3,576.6,654.6,581,660.4z"/>
		</g>
		<g>
			<path class="st29" d="M110.9,258.4c0.7,1.1,2,3.1,3.9,5.9c1.9,2.8,3.2,5,4.1,6.5c-0.7,0.6-1.7,1.4-2.9,2.6l-2,1.9
				c-0.3-0.1-0.6-0.4-0.7-0.7c-0.2-0.2-0.2-0.5-0.1-0.7c1.8-2,1.9-4.9,0.4-7.1l-1.2-2c-1.2-1.9-2-2.8-2.3-2.6
				c-1.2,0.5-2.3,1-3.3,1.7l-6.1,3.7c-0.2,0.1,0.1,0.7,0.8,1.8l1.2,2l0.1,0.2c0.5,0.9,1.1,1.8,1.8,2.6c0.3,0.2,0.9,0.1,1.8-0.2
				c0.4-0.2,0.8-0.3,1.1-0.4s0.4,0.1,0.7,0.5c0.2,0.2,0.3,0.6,0.3,0.9l-7.3,4.5c-0.3-0.1-0.5-0.4-0.6-0.6c-0.2-0.3-0.2-0.6-0.1-0.8
				c0.5-0.5,0.9-0.9,1.3-1.4c0.2-0.2,0.3-0.4,0.4-0.6l0-0.5c0-0.5-0.6-1.7-1.9-3.8c-1.1-1.9-1.8-2.7-2-2.6l-6,3.7
				c-1.1,0.6-2.1,1.4-3,2.3c-0.3,0.3,0.1,1.3,1.1,3l0.9,1.4c0.9,1.6,2.1,3.1,3.6,4.1c0.7,0.3,1.4,0.5,2.2,0.6c1,0.1,2.1,0,3.1-0.2
				c0.2-0.1,0.4,0.1,0.6,0.4c0.3,0.4,0.4,0.8,0.4,1.2c-0.3,0.1-0.9,0.2-1.9,0.4l-2.3,0.5c-0.5,0.1-1.2,0.3-1.9,0.5
				c-0.6,0.1-1.2,0.3-1.7,0.6c-0.6-1-1.9-3.2-3.8-6.5c-1.9-3.3-3.3-5.6-4.2-6.9l-3.3-5.1c0-0.1,0.2-0.3,0.6-0.5
				c0.4-0.3,0.7-0.3,0.7-0.3c0.3,0.5,0.7,1,1.1,1.4c0.6,0.5,1,0.8,1.3,0.8c1.3-0.5,2.6-1.1,3.7-1.9l14.8-9c1.1-0.6,2.1-1.3,3-2.2
				c0.2-0.2,0.2-0.8,0-1.5c-0.2-0.6-0.4-1.2-0.7-1.7c-0.1-0.1,0.1-0.3,0.5-0.5c0.2-0.2,0.5-0.3,0.8-0.3
				C108.8,254.9,109.8,256.6,110.9,258.4z"/>
			<path class="st29" d="M112.5,281.6c0.2-0.1,0.5-0.2,0.7-0.2c1.6,2.9,2.4,4.5,2.6,4.7c0.1,0.2,1.2,1.7,3.1,4.5
				c-0.1,0.2-0.3,0.3-0.5,0.4c-0.5,0.3-0.7,0.3-0.8,0.3c-0.2-0.4-0.5-0.7-0.9-1c-0.4-0.3-0.7-0.3-0.9-0.2c-0.2,0.1-0.3,0.3-0.3,0.5
				l-2,4.6c0.4,0,1.1,0.1,2.1,0.1c1,0.1,1.8,0.1,2.3,0.2c0.4,0,0.8,0,1.1-0.2c0.2-0.1,0.3-0.4,0.2-0.6c0-0.3-0.1-0.6-0.2-0.8
				l-0.4-0.8c-0.1-0.1-0.2-0.3-0.2-0.5c-0.1-0.1,0.1-0.3,0.5-0.5c0.2-0.2,0.5-0.2,0.7-0.2c1.6,2.9,2.4,4.5,2.5,4.7
				c0.1,0.2,1,1.5,2.7,3.9c-0.2,0.2-0.4,0.3-0.6,0.5c-0.4,0.3-0.6,0.4-0.7,0.3c-1.3-1.6-2.4-2.5-3.3-2.7l-7.4-1.2
				c-0.1,0-0.2,0.1-0.3,0.2c-0.1,0.1-0.3,0.2-0.3,0.4l-3.4,8.1c-0.6,1.4-0.6,3,0.1,4.4c0,0.1-0.1,0.3-0.6,0.5
				c-0.2,0.1-0.4,0.2-0.7,0.2l-0.7-1.5c-0.3-0.6-0.5-1.1-0.8-1.6s-0.5-1-0.9-1.5c-0.3-0.6-0.7-1.1-1-1.6c-0.3-0.5-0.7-1-1.1-1.6
				l-1.1-1.5c0.1-0.1,0.3-0.3,0.5-0.4c0.6-0.3,0.9-0.5,0.9-0.4c0.2,0.4,0.6,0.7,1,1c0.4,0.3,0.8,0.3,1,0.2c0.1-0.1,0.1-0.1,0.2-0.2
				l2.2-5.2l-4.9-0.4c-0.3,0-0.6,0-0.9,0.1c-0.1,0.1-0.3,0.2-0.3,0.4c0,0.2,0,0.4,0,0.6c0,0.2,0.1,0.4,0.2,0.6l0.3,0.7l0.3,0.6
				c0,0.1-0.2,0.3-0.6,0.5c-0.2,0.2-0.5,0.3-0.8,0.3l-0.7-1.5c-0.3-0.6-0.5-1.1-0.8-1.5c-0.3-0.5-0.5-0.9-0.8-1.4
				c-0.3-0.5-0.6-1-0.9-1.4s-0.6-0.9-1-1.4l-1-1.3c0.2-0.2,0.4-0.3,0.6-0.5c0.4-0.3,0.7-0.3,0.8-0.3c1.3,1.5,2.5,2.4,3.5,2.5
				l7.6,1.1c0.1,0,0.2-0.1,0.3-0.2c0.1-0.1,0.2-0.2,0.2-0.3l3.4-8.2c0.2-0.6,0.3-1.3,0.2-2c-0.1-0.6-0.3-1.3-0.6-1.8
				C111.9,282.1,112.1,281.9,112.5,281.6z"/>
			<path class="st29" d="M133.1,313.7c1,1.6,1.5,3.4,1.4,5.2c0,3.3-1.8,6.3-4.6,8c-5,3.2-11.6,1.7-14.7-3.3c0-0.1-0.1-0.1-0.1-0.2
				c-0.5-1-0.9-2-1.1-3.1c-0.1-0.1-0.3-0.1-0.6,0.2l-2.6,1.6c-1.2,0.7-2.3,1.5-3.3,2.4c-0.2,0.1-0.2,0.6,0,1.4
				c0.1,0.5,0.3,1,0.5,1.5c0,0.1-0.1,0.2-0.5,0.5c-0.2,0.2-0.5,0.3-0.7,0.4c-0.1-0.2-0.5-0.9-1.2-2.2c-0.7-1.2-1.2-2.2-1.5-2.7
				c-0.4-0.6-1-1.5-1.8-2.7c-0.8-1.1-1.3-1.8-1.4-2c0.2-0.2,0.4-0.4,0.6-0.6c0.4-0.2,0.6-0.3,0.6-0.2c0.3,0.5,0.7,0.9,1.2,1.2
				c0.6,0.5,1,0.8,1.3,0.7c1-0.4,2-0.9,2.9-1.5l14.9-9.1c1-0.4,1.7-1.2,2.2-2.2c0.1-0.4,0.2-0.8,0-1.2c-0.1-0.4-0.2-0.7-0.4-1.1
				c-0.1-0.3-0.2-0.4-0.1-0.5c0.8-0.5,1.2-0.6,1.3-0.5c1.4,1.9,2.9,3.6,4.6,5.1l0.6,0.6c0.1,0.1-0.2,0.3-0.7,0.7
				c-0.2,0.1-0.3,0.2-0.5,0.2c0.7,0.3,1.4,0.7,2,1.2C132.1,312.3,132.7,313,133.1,313.7z M130.5,314c-0.4-0.8-1.2-1.4-2-1.7
				c-0.8-0.2-1.8-0.1-2.5,0.4l-8,4.9c-0.8,0.5-1.4,1.3-1.4,2.3c-0.1,1,0.1,1.9,0.6,2.7c0.8,1.2,2.1,2,3.5,2c1.9,0.1,3.8-0.5,5.3-1.6
				c1.9-1,3.5-2.6,4.6-4.5C131.4,317.2,131.3,315.4,130.5,314z"/>
			<path class="st29" d="M146.4,335.5c0.8,1.2,1.1,2.6,0.7,4c-2.2,1.4-3.7,1.4-4.5,0.2c-0.3-0.6-0.4-1.3-0.1-2
				c0.2-0.7,0.1-1.5-0.2-2.1c-0.5-0.8-1.4-1.2-2.4-1.1c-1,0-2.1,0.3-3,0.9l-4.9,3c-1.2,0.7-2.3,1.5-3.3,2.4
				c-0.2,0.2-0.1,0.6,0.1,1.4c0.1,0.5,0.3,1,0.5,1.5c0,0.1-0.1,0.2-0.5,0.5c-0.2,0.2-0.5,0.3-0.8,0.4c-0.1-0.2-0.5-0.9-1.1-2.2
				c-0.6-1.2-1.1-2.1-1.5-2.7c-0.4-0.6-1-1.5-1.8-2.6c-0.8-1.1-1.3-1.8-1.4-2c0.1-0.3,0.4-0.5,0.6-0.6c0.4-0.2,0.6-0.3,0.7-0.2
				c0.3,0.5,0.7,0.9,1.2,1.2c0.6,0.5,1,0.7,1.2,0.7c1.1-0.4,2.1-0.9,3-1.5l6.4-3.9c0.9-0.4,1.7-1.2,2.1-2.1c0.1-0.4,0.1-0.8,0-1.2
				c-0.1-0.4-0.2-0.7-0.3-1.1c-0.1-0.3-0.2-0.4-0.1-0.4c0.8-0.5,1.2-0.6,1.3-0.5c1.5,2,3.2,3.8,5,5.6l0.3,0.3c0.1,0.1,0,0.3-0.1,0.4
				c-0.1,0.2-0.2,0.3-0.4,0.4c-0.1,0.1-0.3,0.1-0.6,0.3c-0.3,0.1-0.5,0.3-0.8,0.4c-0.2,0.1-0.4,0.2-0.6,0.3c1.1,0.1,2.1,0.3,3.1,0.8
				C145.1,334,145.9,334.6,146.4,335.5z"/>
			<path class="st29" d="M154.6,348.8c0.7,1.1,1.1,2.4,1.3,3.7c0.1,1.1,0,2.3-0.4,3.4c-0.4,1-0.9,1.8-1.5,2.6
				c-0.6,0.7-1.2,1.3-2,1.8c-0.6,0.3-1,0.5-1.3,0.4c-0.4-0.3-0.7-0.6-0.9-1.1l-5.7-9.3c-0.1-0.2-0.2-0.2-0.4-0.1
				c-0.9,0.6-1.8,1.3-2.4,2.2c-0.7,0.9-1.1,2-1.2,3.1c-0.1,1.2,0.1,2.5,0.8,3.5c0.2,0.4,0.5,0.7,0.8,1.1c0.2,0.3,0.5,0.6,0.8,0.9
				l0.8,0.7c0.2,0.2,0.5,0.4,0.8,0.5l0.7,0.3l1,0.5c0,0.1-0.1,0.2-0.1,0.3c-0.1,0.1-0.2,0.3-0.3,0.4c-0.3,0.2-0.6,0.2-0.9,0.2
				c-1.2,0-2.4-0.4-3.5-1c-1.4-0.7-2.6-1.8-3.4-3.2c-1.4-2.2-1.8-4.9-1.1-7.4c0.6-2.6,2.3-4.8,4.6-6.2c2.3-1.5,5.1-2.1,7.8-1.6
				C151.1,345,153.3,346.6,154.6,348.8z M152.6,349.6c-0.4-0.6-0.9-1.1-1.6-1.3c-0.6-0.3-1.3-0.4-2-0.3c-0.6,0-1.2,0.2-1.8,0.3
				c-0.4,0.1-0.9,0.3-1.3,0.5c-0.2,0.1-0.2,0.2-0.1,0.4l3.9,6.3c0.1,0.2,0.4,0.2,0.8,0c1-0.6,1.7-1.5,2.2-2.6
				C153.3,351.9,153.2,350.6,152.6,349.6z"/>
			<path class="st29" d="M164,364.1c0.9,1.5,1.6,3.2,2.1,4.9c-1.3,1.2-2.6,2.2-4.1,3.1c-0.2,0.1-0.4,0-0.6-0.3
				c-0.3-0.6-0.4-0.9-0.3-1.1c0.8-0.7,1.3-1.6,1.6-2.6c0.3-1,0.1-2.1-0.5-2.9c-0.3-0.7-0.9-1.2-1.6-1.5c-0.6-0.2-1.3-0.1-1.8,0.2
				c-0.3,0.2-0.6,0.5-0.9,0.8c-0.2,0.4-0.4,0.8-0.4,1.2c-0.1,0.4-0.1,0.8-0.1,1.2c0,0.3,0,0.8,0.1,1.5c0,0.2,0,0.3,0,0.5l0,0.8
				l0,0.9l0,0.8c0,0.3,0,0.6,0,1l-0.1,0.9c0,0.3-0.1,0.6-0.2,0.9l-0.3,0.8c-0.1,0.3-0.3,0.6-0.4,0.8c-0.2,0.2-0.4,0.5-0.6,0.7
				c-0.2,0.2-0.5,0.4-0.8,0.6c-1.5,1-3.4,1.2-5,0.5c-1.8-0.7-3.3-2-4.2-3.7c-1-1.7-1.7-3.7-2-5.7c0.6-0.6,1.2-1.2,1.9-1.7
				c0.7-0.6,1.4-1.1,2.1-1.6c0.2,0.1,0.4,0.2,0.5,0.4c0.4,0.6,0.4,0.9,0.3,1.1c-0.9,0.8-1.5,1.9-1.7,3.1c-0.2,1.1,0,2.3,0.6,3.3
				c0.4,0.7,0.9,1.2,1.6,1.4c0.7,0.3,1.5,0.1,2.1-0.3c0.2-0.1,0.5-0.3,0.7-0.5c0.2-0.2,0.3-0.5,0.4-0.8l0.3-0.8
				c0.1-0.3,0.1-0.7,0.1-1l0-1.1l-0.1-1.3l-0.1-1.3c-0.1-1.4,0-2.7,0.4-4c1-2.7,4-4.1,6.8-3.1c0.1,0,0.2,0.1,0.2,0.1
				C161.7,361.3,163.1,362.5,164,364.1z"/>
			<path class="st29" d="M172.7,378.4c0.9,1.5,1.6,3.2,2.1,4.9c-1.3,1.2-2.6,2.2-4.1,3.1c-0.2,0.1-0.4,0-0.6-0.3
				c-0.3-0.6-0.4-0.9-0.3-1.1c0.8-0.7,1.3-1.6,1.6-2.6c0.3-1,0.1-2.1-0.5-2.9c-0.3-0.7-0.9-1.2-1.6-1.5c-0.6-0.2-1.3-0.1-1.8,0.2
				c-0.3,0.2-0.6,0.5-0.9,0.8c-0.2,0.4-0.4,0.8-0.4,1.2c-0.1,0.4-0.1,0.8-0.1,1.2c0,0.3,0,0.8,0.1,1.5c0,0.2,0,0.3,0,0.5l0,0.8
				l0,0.9l0,0.8c0,0.3,0,0.6,0,1l-0.1,0.9c0,0.3-0.1,0.6-0.2,0.9l-0.3,0.8c-0.1,0.3-0.3,0.6-0.4,0.8c-0.2,0.2-0.4,0.5-0.6,0.7
				c-0.2,0.2-0.5,0.4-0.8,0.6c-1.5,1-3.4,1.2-5,0.5c-1.8-0.7-3.3-2-4.2-3.7c-1-1.7-1.7-3.7-2-5.7c0.6-0.6,1.2-1.2,1.9-1.7
				c0.7-0.6,1.4-1.1,2.1-1.6c0.2,0.1,0.4,0.2,0.5,0.4c0.4,0.6,0.4,0.9,0.3,1.1c-0.9,0.8-1.5,1.9-1.7,3.1c-0.2,1.1,0,2.3,0.6,3.3
				c0.4,0.7,0.9,1.2,1.6,1.4c0.7,0.3,1.5,0.1,2.1-0.3c0.2-0.1,0.5-0.3,0.7-0.5c0.2-0.2,0.3-0.5,0.4-0.8l0.3-0.8
				c0.1-0.3,0.1-0.7,0.1-1l0-1.1l-0.1-1.3l-0.1-1.3c-0.1-1.4,0-2.7,0.4-4c1-2.7,4-4.1,6.8-3.1c0.1,0,0.2,0.1,0.2,0.1
				C170.4,375.5,171.8,376.8,172.7,378.4z"/>
			<path class="st29" d="M170,400.4c-1.2,0.7-2.3,1.5-3.3,2.4c-0.2,0.2-0.1,0.6,0.1,1.4c0.1,0.5,0.3,1,0.5,1.5
				c0.1,0.1-0.1,0.3-0.5,0.5c-0.2,0.2-0.5,0.3-0.8,0.4c-0.1-0.2-0.5-0.9-1.1-2.2s-1.2-2.2-1.5-2.7c-0.4-0.6-1-1.5-1.8-2.7
				c-0.8-1.1-1.3-1.8-1.4-2c0.1-0.3,0.4-0.5,0.6-0.6c0.4-0.2,0.6-0.3,0.7-0.2c0.3,0.5,0.7,0.9,1.2,1.2c0.6,0.5,1,0.8,1.2,0.7
				c1.1-0.4,2.1-0.9,3-1.5l6.4-3.9c0.9-0.4,1.7-1.2,2.1-2.1c0.1-0.4,0.1-0.8,0-1.3c-0.1-0.4-0.2-0.7-0.3-1.1
				c-0.1-0.3-0.2-0.4-0.1-0.5c0.8-0.5,1.2-0.6,1.3-0.5c0.8,1,1.6,1.9,2.4,2.9c0.8,0.9,1.7,1.8,2.6,2.6l0.3,0.3
				c0.1,0.1,0,0.3-0.1,0.5c-0.1,0.2-0.2,0.3-0.4,0.3c-1.2,0.5-2.4,1.1-3.5,1.7L170,400.4z M183.8,386.4c0.2-0.7,0.7-1.3,1.3-1.7
				c0.6-0.4,1.4-0.5,2.1-0.3c1.5,0.4,2.5,1.9,2.1,3.4c-0.2,0.7-0.6,1.3-1.3,1.7c-0.6,0.4-1.4,0.5-2.1,0.3
				C184.4,389.5,183.5,388,183.8,386.4C183.8,386.4,183.8,386.4,183.8,386.4z"/>
			<path class="st29" d="M190,406.8c1.5,2.3,1.9,5.1,1.3,7.8c-0.6,2.7-2.2,5-4.6,6.4c-4.9,3.1-11.3,1.6-14.4-3.2
				c-3.1-4.9-1.6-11.3,3.2-14.4s11.3-1.6,14.4,3.2C189.9,406.7,189.9,406.8,190,406.8z M187.8,407.4c-0.7-1.2-2.1-1.9-3.5-1.8
				c-1.7,0.1-3.4,0.6-4.8,1.6c-1.9,1.1-3.6,2.7-4.7,4.6c-1,1.5-1.1,3.4-0.2,5c0.7,1.2,2.1,1.9,3.5,1.8c1.7-0.1,3.4-0.6,4.8-1.5
				c1.3-0.8,2.4-1.7,3.5-2.8c0.9-1,1.6-2.1,1.9-3.4C188.6,409.7,188.4,408.5,187.8,407.4L187.8,407.4z"/>
			<path class="st29" d="M204.4,430.5c2,3.4,0.4,6.7-4.9,9.9l-3.7,2.3c-1.2,0.7-2.3,1.5-3.3,2.4c-0.2,0.2-0.1,0.6,0.1,1.4
				c0.1,0.5,0.3,1,0.5,1.5c0,0.1-0.1,0.2-0.5,0.5c-0.2,0.2-0.5,0.3-0.8,0.4c-0.1-0.2-0.4-0.9-1.1-2.1s-1.2-2.2-1.5-2.8
				c-0.4-0.6-0.9-1.5-1.7-2.5l-1.4-1.9c0.1-0.3,0.4-0.5,0.6-0.6c0.4-0.2,0.6-0.3,0.7-0.2c0.3,0.4,0.7,0.8,1.1,1.1
				c0.6,0.5,0.9,0.7,1.1,0.6c1.1-0.3,2.1-0.8,3-1.4l3.7-2.3c2.2-1.3,3.5-2.5,4-3.6c0.5-1.2,0.3-2.5-0.4-3.6c-0.5-0.8-1.2-1.4-2-1.8
				c-0.6-0.3-1.4-0.4-2,0l-6.7,4.1c-1.2,0.7-2.3,1.5-3.3,2.4c-0.2,0.2-0.1,0.6,0.1,1.4c0.1,0.5,0.3,1,0.5,1.4
				c0.1,0.1-0.1,0.3-0.5,0.5c-0.2,0.2-0.5,0.3-0.8,0.4c-0.1-0.2-0.5-0.9-1.1-2.1s-1.1-2.1-1.5-2.7c-0.4-0.6-1-1.5-1.8-2.6
				c-0.8-1.1-1.3-1.8-1.4-2c0.1-0.3,0.4-0.5,0.6-0.6c0.4-0.2,0.6-0.3,0.7-0.2c0.3,0.5,0.7,0.9,1.2,1.2c0.6,0.5,1,0.7,1.2,0.7
				c1.1-0.4,2.1-0.9,3-1.5l6.4-3.9c0.9-0.4,1.7-1.2,2.1-2.1c0.1-0.4,0.1-0.8,0-1.2c-0.1-0.4-0.2-0.7-0.3-1.1
				c-0.1-0.3-0.2-0.4-0.1-0.4c0.8-0.5,1.2-0.6,1.3-0.5c1.6,1.9,3.2,3.8,5,5.6c0,0,0.1,0,0.1,0.1l0.1,0.1l0,0.1
				c0.1,0.1,0,0.3-0.1,0.4c-0.1,0.1-0.2,0.3-0.4,0.4c-0.5,0.2-1,0.4-1.5,0.7c-0.1,0.1-0.2,0.1-0.2,0.2c0.1,0.1,0.1,0.1,0.2,0.1
				c1.1,0.3,2.2,0.8,3.1,1.4C202.9,428.5,203.8,429.4,204.4,430.5z"/>
			<path class="st29" d="M214.4,446.9c0.9,1.5,1.6,3.2,2.1,4.9c-1.3,1.2-2.6,2.2-4.1,3.1c-0.2,0.1-0.4,0-0.6-0.3
				c-0.3-0.6-0.4-0.9-0.3-1.1c0.8-0.7,1.3-1.6,1.6-2.6c0.3-1,0.1-2.1-0.5-2.9c-0.3-0.7-0.9-1.2-1.6-1.5c-0.6-0.2-1.3-0.1-1.8,0.2
				c-0.3,0.2-0.6,0.5-0.9,0.8c-0.2,0.4-0.4,0.8-0.4,1.2c-0.1,0.4-0.1,0.8-0.1,1.2c0,0.3,0,0.8,0.1,1.5c0,0.2,0,0.3,0,0.5l0,0.8
				l0,0.9l0,0.8c0,0.3,0,0.6,0,1l-0.1,0.9c0,0.3-0.1,0.6-0.2,0.9l-0.3,0.8c-0.1,0.3-0.3,0.6-0.4,0.8c-0.2,0.2-0.4,0.5-0.6,0.7
				c-0.2,0.2-0.5,0.4-0.8,0.6c-1.5,1-3.4,1.2-5,0.5c-1.8-0.7-3.3-2-4.2-3.7c-1-1.7-1.7-3.7-2-5.7c0.6-0.6,1.2-1.2,1.9-1.7
				c0.7-0.6,1.4-1.1,2.1-1.6c0.2,0.1,0.4,0.2,0.5,0.4c0.4,0.6,0.4,0.9,0.3,1.1c-0.9,0.8-1.5,1.9-1.7,3.1c-0.2,1.1,0,2.3,0.6,3.3
				c0.4,0.7,0.9,1.2,1.6,1.4c0.7,0.3,1.5,0.1,2.1-0.3c0.2-0.1,0.5-0.3,0.7-0.5c0.2-0.2,0.3-0.5,0.4-0.8l0.3-0.8
				c0.1-0.3,0.1-0.7,0.1-1l0-1.1l-0.1-1.3l-0.1-1.3c-0.1-1.4,0-2.7,0.4-4c1-2.7,4-4.1,6.8-3.1c0.1,0,0.2,0.1,0.2,0.1
				C212.1,444,213.5,445.3,214.4,446.9z"/>
			<path class="st29" d="M229.5,471.7c1.5,2.3,1.9,5.1,1.3,7.8c-0.6,2.7-2.2,5-4.6,6.4c-4.9,3-11.3,1.4-14.2-3.5
				c-3-4.9-1.4-11.3,3.5-14.2c2.3-1.5,5.1-1.9,7.8-1.2C225.9,467.6,228.2,469.3,229.5,471.7z M227.4,472.3c-0.7-1.2-2.1-1.9-3.5-1.8
				c-1.7,0.1-3.4,0.6-4.8,1.6c-1.9,1.1-3.6,2.7-4.7,4.6c-1,1.5-1.1,3.4-0.2,5c0.7,1.2,2.1,1.9,3.5,1.8c1.7-0.1,3.4-0.6,4.8-1.5
				c1.3-0.8,2.4-1.7,3.5-2.8c0.9-1,1.6-2.1,1.9-3.4C228.2,474.6,228,473.4,227.4,472.3L227.4,472.3z"/>
			<path class="st29" d="M252.8,487.8c0.6,0.9,1,1.9,1.2,3c0.2,0.7,0.1,1.4-0.2,2c-0.7,0.5-1.5,0.9-2.3,1.1
				c-0.7,0.2-1.5-0.2-1.8-0.8c-0.3-0.5-0.3-1.1-0.1-1.6c0.2-0.6,0.4-1.2,0.6-1.9c0.2-0.6,0.1-1.2-0.2-1.8c-0.4-0.7-1.2-1.1-2.1-1.1
				c-1,0-2.1,0.1-3.1,0.5c-1.2,0.4-2.3,1-3.3,1.6l-1.7,1.1c0,0-0.1,0-0.1,0.2c0,0.1,0,0.1,0,0.2l2.6,4.3c0.1,0.1,0.1,0.1,0.1,0.2
				c-0.1,0.1-0.1,0.1-0.2,0.2c-0.6,0.4-1.3,0.6-2.1,0.6l-2.5-4.1c-0.1-0.1-0.2-0.2-0.3-0.1c0,0,0,0-0.1,0l-8.7,5.3
				c-1.2,0.7-2.3,1.5-3.3,2.4c-0.2,0.2-0.1,0.6,0.1,1.4c0.1,0.5,0.3,1,0.5,1.5c0,0.1-0.1,0.2-0.5,0.5c-0.2,0.2-0.5,0.3-0.8,0.4
				c-0.1-0.2-0.4-0.9-1.1-2.1c-0.6-1.2-1.2-2.2-1.5-2.8c-0.4-0.6-1-1.5-1.7-2.6c-0.8-1.1-1.2-1.7-1.4-1.9c0.1-0.2,0.2-0.3,0.3-0.4
				c0.2-0.1,0.4-0.3,0.6-0.4c0.2-0.1,0.3-0.1,0.4,0c0.3,0.4,0.7,0.8,1.1,1.2c0.6,0.5,1,0.7,1.2,0.7c1.2-0.4,2.3-0.9,3.4-1.6l9-5.5
				c0.2-0.1,0.2-0.2,0.1-0.4l-1.4-2.3c0-0.1,0-0.1,0.2-0.2c0.5-0.2,1-0.2,1.5-0.1c0.6,0,1.1,0.3,1.5,0.8l0.4,0.6
				c0.1,0.1,0.2,0.2,0.3,0.1c0,0,0,0,0.1,0l0.4-0.2c2.5-1.6,5.5-2.3,8.5-1.8C249.1,484,251.5,485.5,252.8,487.8z"/>
			<path class="st29" d="M86.4,353.7c-1.1,0.4-2.3,0.7-3.5,1c-2,0.5-3.1,0.6-3.3,0.5c-2.3-1.8-4.5-4.7-6.5-8.6
				c-1.8-3.5-2.1-7.5-0.7-11.2c1.2-3.7,3.9-6.8,7.5-8.6c3.7-1.9,7.9-2.3,11.9-1.1c3.9,1.1,7.2,3.8,9,7.4c1.6,3.2,2.9,6.7,3.8,10.2
				c-0.8,0.6-1.7,1.2-2.6,1.6c-1.7,1-2.8,1.6-3.2,1.8c-0.4,0.2-0.8,0-1.1-0.7c-0.1-0.2-0.1-0.4-0.1-0.7c0.5-0.4,0.9-0.8,1.2-1.4
				c0.4-0.7,0.8-1.4,1.1-2.2c0.4-1.1,0.5-2.2,0.3-3.3c-0.2-1.5-0.6-2.9-1.3-4.2c-1.2-2.5-3.6-4.3-6.4-4.5c-3.1-0.3-6.3,0.3-9,1.8
				c-3.1,1.5-5.7,3.9-7.4,6.9c-1.5,2.7-1.5,6.1,0,8.8c1,2.2,2.9,3.9,5.2,4.6c0.7,0.2,1.3,0.2,2,0.2c0.8,0,1.4-0.1,1.9-0.2
				c0.5-0.1,0.8-0.1,0.8,0C86.4,352.8,86.5,353.4,86.4,353.7z"/>
			<path class="st29" d="M102.7,370.5l-8,4.1c-1,0.4-1.9,1-2.7,1.8c-0.1,0.2-0.1,0.4-0.1,0.6c0,0.3,0.1,0.5,0.2,0.8
				c0.1,0.2,0.2,0.5,0.3,0.7c0.1,0.1,0.1,0.2,0.2,0.4c0.1,0.1-0.1,0.2-0.3,0.4c-0.2,0.1-0.4,0.1-0.6,0.2c-0.3,0.1-0.5,0.1-0.5-0.1
				c-0.3-0.5-0.5-0.9-0.9-1.4l-1.1-1.5c-0.4-0.5-0.7-1-1.1-1.4c-0.4-0.4-0.7-0.9-1.1-1.5c-0.1-0.2,0.1-0.4,0.5-0.6l1.8-0.9
				c0.1-0.1,0.2-0.2,0.1-0.2c-1.1-0.3-2.2-0.9-3.1-1.6c-1-0.7-1.9-1.7-2.4-2.8c-0.5-0.8-0.6-1.8-0.5-2.8c0.1-0.9,0.4-1.8,1-2.5
				c0.5-0.8,1.2-1.4,1.9-2c0.8-0.6,1.6-1.1,2.4-1.6l4.6-2.3c1-0.4,1.8-1.1,2.3-2c0.1-0.4,0.2-0.8,0.1-1.2c0-0.4-0.1-0.7-0.2-1.1
				c-0.1-0.3-0.1-0.4-0.1-0.5c0.8-0.4,1.2-0.5,1.3-0.4c0.7,1.1,1.4,2.1,2.2,3.1c0.7,1,1.5,1.9,2.4,2.8l0.1,0.1l0.1,0.1
				c0.1,0.1,0,0.3-0.1,0.4c-0.1,0.1-0.2,0.2-0.4,0.3c-2,0.7-3.2,1.2-3.7,1.4l-4.9,2.5c-1.6,0.7-3.1,1.8-4.1,3.2
				c-1,2-0.1,4.4,1.9,5.3c0,0,0.1,0,0.1,0c0.6,0.3,1.3,0.4,2,0.1l6.7-3.4c1-0.4,1.8-1.1,2.3-2c0.2-0.4,0.2-0.8,0.2-1.2
				c0-0.4-0.1-0.8-0.3-1.1c-0.1-0.3-0.1-0.4-0.1-0.5c0.8-0.4,1.2-0.5,1.3-0.4c0.7,1.1,1.4,2.1,2.2,3.1c0.7,1,1.5,1.9,2.4,2.8
				l0.2,0.3c0.1,0.1,0,0.3-0.1,0.5c-0.1,0.1-0.2,0.3-0.4,0.3C104.4,369.8,103.1,370.2,102.7,370.5z"/>
			<path class="st29" d="M100.9,386.3c-1.2,0.6-2.4,1.3-3.5,2.1c-0.2,0.2-0.2,0.6-0.1,1.3c0,0.5,0.1,1,0.3,1.4
				c0,0.1-0.1,0.2-0.5,0.4c-0.2,0.2-0.5,0.3-0.8,0.4l-0.7-1.6l-0.8-1.8c-0.2-0.5-0.5-1-0.7-1.5c-0.2-0.5-0.5-1-0.8-1.5l-1-1.7
				l-0.9-1.5c0.2-0.3,0.4-0.4,0.7-0.5c0.4-0.2,0.6-0.3,0.7-0.1c0.3,0.5,0.6,0.9,1,1.2c0.5,0.5,0.9,0.7,1.1,0.7
				c1.1-0.3,2.2-0.7,3.2-1.2l17-8.6c0.9-0.5,1.8-1,2.6-1.6c0.4-0.4,0.2-1.1-0.4-2.4l-0.2-0.4c-0.1-0.2,0-0.3,0.4-0.5
				c0.3-0.2,0.7-0.2,0.8-0.1c0.5,0.8,1,1.5,1.5,2.2c0.5,0.7,1,1.3,1.4,1.7c0.4,0.4,0.7,0.8,1,1.1l0.8,0.7l0.3,0.2l0,0.1
				c0.1,0.1,0,0.3-0.1,0.5c-0.1,0.2-0.2,0.3-0.3,0.4c-1.4,0.3-2.8,0.8-4.1,1.5L100.9,386.3z"/>
			<path class="st29" d="M113.9,388.9l-1.3-2.5c-0.1-0.2,0.2-0.5,0.9-0.8c0.1-0.1,0.2-0.1,0.4-0.2c1.1,0.9,2.4,1.6,3.7,2
				c0.5,0.2,1.1,0.4,1.8,0.5c0.7,0.2,1.5,0.4,2.5,0.6c0.1,0.3,0.2,0.5,0.3,0.8c0.1,0.3,0,0.4,0,0.5l-4,2l1.5,3l1,2
				c0.1,0.2,0,0.4-0.2,0.5c-0.6,0.3-1.3,0.5-2,0.5l-2.5-4.9l-9.8,5c-0.9,0.4-1.7,1.1-2.1,2c-0.3,0.8-0.3,1.6,0.1,2.4
				c0.2,0.3,0.3,0.6,0.6,0.8c0.2,0.2,0.4,0.4,0.6,0.6l0.5,0.4c0.1,0.1,0.2,0.1,0.3,0.2c0.1,0.1,0,0.3-0.2,0.5
				c-0.2,0.3-0.4,0.4-0.5,0.4c-0.5,0-1.2-0.3-2.2-1.1c-0.9-0.6-1.7-1.5-2.3-2.5c-0.7-1.3-0.9-2.9-0.5-4.3c0.6-1.6,1.8-3,3.5-3.6
				L113.9,388.9z"/>
			<path class="st29" d="M127.4,419.3l-8,4.1c-1,0.4-1.9,1-2.7,1.8c-0.1,0.2-0.1,0.4-0.1,0.6c0,0.3,0.1,0.5,0.2,0.8
				c0.1,0.2,0.2,0.5,0.3,0.7c0.1,0.1,0.1,0.2,0.2,0.4c0.1,0.1-0.1,0.2-0.3,0.4c-0.2,0.1-0.4,0.1-0.6,0.2c-0.3,0.1-0.5,0.1-0.5-0.1
				c-0.3-0.5-0.5-0.9-0.9-1.4l-1.1-1.5c-0.4-0.5-0.7-1-1.1-1.4c-0.4-0.4-0.7-0.9-1.1-1.5c-0.1-0.2,0.1-0.4,0.5-0.6l1.8-0.9
				c0.1-0.1,0.2-0.2,0.1-0.2c-1.1-0.3-2.2-0.9-3.1-1.6c-1-0.7-1.9-1.7-2.4-2.8c-0.5-0.8-0.6-1.8-0.5-2.8c0.1-0.9,0.4-1.8,1-2.5
				c0.5-0.8,1.2-1.4,1.9-2c0.8-0.6,1.6-1.1,2.4-1.6l4.6-2.3c1-0.4,1.8-1.1,2.3-2c0.1-0.4,0.2-0.8,0.1-1.2c0-0.4-0.1-0.7-0.2-1.1
				c-0.1-0.3-0.1-0.4-0.1-0.5c0.8-0.4,1.2-0.5,1.3-0.4c0.6,1.1,1.3,2.1,2,3.1c0.7,1,1.5,1.9,2.4,2.8l0.1,0.1l0.1,0.1
				c0.1,0.1,0,0.3-0.1,0.4c-0.1,0.1-0.2,0.2-0.4,0.3c-2,0.7-3.2,1.2-3.7,1.4l-4.9,2.5c-1.6,0.7-3.1,1.8-4.1,3.2
				c-1,2-0.1,4.4,1.9,5.3c0,0,0.1,0,0.1,0c0.6,0.3,1.3,0.4,2,0.1l6.7-3.4c1-0.4,1.8-1.1,2.3-2c0.2-0.4,0.2-0.8,0.2-1.2
				c0-0.4-0.1-0.8-0.3-1.1c-0.1-0.3-0.1-0.4-0.1-0.5c0.8-0.4,1.2-0.5,1.3-0.4c0.7,1.1,1.4,2.1,2.2,3.1c0.7,1,1.5,1.9,2.4,2.8
				l0.2,0.3c0.1,0.1,0,0.3-0.1,0.5c-0.1,0.1-0.2,0.3-0.4,0.3C129.1,418.6,127.9,419.1,127.4,419.3z"/>
			<path class="st29" d="M140.3,433.9c0.7,1.2,0.9,2.7,0.3,4c-2.3,1.2-3.8,1.1-4.5-0.2c-0.3-0.6-0.2-1.4,0-2
				c0.3-0.7,0.2-1.5-0.1-2.2c-0.4-0.8-1.3-1.4-2.3-1.3c-1-0.1-2.1,0.2-3,0.6l-5.1,2.6c-1.2,0.6-2.4,1.3-3.5,2.1
				c-0.2,0.2-0.2,0.6,0,1.4c0.1,0.5,0.2,1,0.4,1.5c0,0.1-0.1,0.2-0.5,0.4c-0.3,0.2-0.5,0.3-0.8,0.4c-0.1-0.2-0.4-1-0.9-2.2
				c-0.5-1.3-1-2.2-1.3-2.8c-0.3-0.7-0.8-1.6-1.6-2.8c-0.7-1.2-1.2-1.9-1.3-2.1c0.2-0.3,0.4-0.5,0.7-0.6c0.4-0.2,0.6-0.2,0.7-0.1
				c0.3,0.5,0.6,0.9,1.1,1.3c0.5,0.6,0.9,0.8,1.1,0.8c1.1-0.3,2.1-0.7,3.1-1.2l6.6-3.4c1-0.4,1.8-1.1,2.3-2c0.2-0.4,0.2-0.8,0.2-1.2
				c0-0.4-0.1-0.7-0.2-1.1c-0.1-0.3-0.1-0.4-0.1-0.4c0.8-0.4,1.2-0.5,1.3-0.4c1.4,2.1,2.9,4,4.5,5.9l0.2,0.3c0.1,0.1,0,0.3-0.1,0.4
				c-0.1,0.1-0.3,0.3-0.4,0.3c-0.1,0.1-0.3,0.1-0.6,0.3c-0.3,0.1-0.5,0.2-0.9,0.3c-0.2,0.1-0.4,0.2-0.6,0.3c1,0.1,2.1,0.5,3,1
				C139,432.3,139.8,433,140.3,433.9z"/>
			<path class="st29" d="M147.4,448c0.8,1.3,1,3,0.6,4.5c-0.5,1.3-1.7,2.5-3.9,3.5l-8,4.1c-0.5,0.2-0.8,0.5-1.1,1
				c-0.2,0.4-0.1,0.8,0.1,1.2c0.3,0.5,0.7,0.9,1.2,1.1c0,0.2-0.1,0.3-0.3,0.5c-0.4,0.2-0.9,0.4-1.3,0.4c-0.6-0.3-1.3-0.7-1.8-1.1
				c-0.6-0.4-1.2-1-1.5-1.7c-0.3-0.7-0.4-1.5-0.2-2.2c0.1-0.7,0.4-1.4,0.9-1.9l-0.4-0.2c-0.2-0.1-0.5-0.3-0.9-0.5
				c-0.4-0.2-0.8-0.5-1.2-0.7c-0.5-0.3-0.9-0.7-1.3-1.1c-0.4-0.4-0.8-0.9-1-1.5c-0.7-1.2-0.9-2.6-0.6-3.9c0.3-1.3,1.2-2.3,2.4-2.8
				c0.6-0.3,1.4-0.5,2.1-0.5c0.7,0,1.3,0.1,2,0.4c0.7,0.3,1.4,0.7,2,1.2c0.6,0.5,1.2,0.9,1.8,1.5c0.4,0.4,1,1,1.7,1.7
				s1.1,1.2,1.4,1.5c0.2,0.2,0.6,0.2,0.8,0l2.2-1.1c0.8-0.4,1.5-1,1.9-1.8c0.3-0.7,0.3-1.5-0.1-2.2c-0.3-0.7-1-1.3-1.7-1.5
				c-0.8-0.2-1.7,0-2.5,0.4c-0.5,0.3-1,0.3-1.5,0c-0.5-0.3-0.9-0.7-1.1-1.2c-0.5-0.8-0.5-1.8-0.1-2.6c1.3-0.7,3-0.4,5,0.8
				C144.9,444.4,146.4,446,147.4,448z M130.9,454.1c0.3,0.7,0.9,1.2,1.5,1.6c0.5,0.3,1.2,0.4,1.7,0.1l4.1-2.1c-0.2-0.1-0.5-0.5-1-1
				c-0.5-0.5-0.9-0.9-1.2-1.2c-0.4-0.3-0.7-0.6-1.1-0.9c-0.4-0.3-0.9-0.4-1.3-0.5c-0.4,0-0.9,0.1-1.3,0.3c-0.7,0.3-1.3,0.9-1.6,1.6
				C130.5,452.8,130.6,453.5,130.9,454.1L130.9,454.1z"/>
			<path class="st29" d="M143.9,471.1c-1.2,0.6-2.4,1.3-3.5,2.1c-0.2,0.2-0.2,0.6-0.1,1.3c0,0.5,0.1,1,0.3,1.4
				c0,0.1-0.1,0.2-0.5,0.4c-0.2,0.2-0.5,0.3-0.8,0.4l-0.7-1.6l-0.8-1.8c-0.2-0.5-0.5-1-0.7-1.5c-0.2-0.5-0.5-1-0.8-1.5l-1-1.7
				l-0.9-1.5c0.2-0.3,0.4-0.4,0.7-0.5c0.4-0.2,0.6-0.2,0.7-0.1c0.3,0.5,0.6,0.9,1,1.2c0.5,0.5,0.9,0.7,1.1,0.7
				c1.1-0.3,2.2-0.7,3.2-1.2l16.9-8.7c0.9-0.5,1.8-1,2.6-1.6c0.4-0.4,0.2-1.1-0.4-2.4l-0.2-0.4c-0.1-0.2,0-0.3,0.4-0.5
				c0.3-0.2,0.7-0.2,0.8-0.1c0.5,0.8,1,1.5,1.5,2.2c0.5,0.7,1,1.3,1.4,1.7c0.4,0.4,0.7,0.8,1,1.1l0.8,0.8l0.3,0.2l0,0.1
				c0.1,0.1,0,0.3-0.1,0.5c-0.1,0.2-0.2,0.3-0.3,0.4c-1.4,0.3-2.8,0.8-4.1,1.5L143.9,471.1z"/>
			<path class="st29" d="M174.4,479.4c0.4,0.8,0.9,1.7,1.4,2.7c0.6,1,1.1,1.9,1.5,2.7c0.4,0.8,0.7,1.7,1,2.5
				c0.3,0.9,0.4,1.9,0.4,2.8c0,1-0.1,1.9-0.3,2.8c-0.3,0.9-0.7,1.8-1.4,2.6c-0.7,0.9-1.6,1.6-2.6,2.1c-1.3,0.7-2.8,1-4.3,0.9
				c-1.6-0.1-3.2-0.6-4.6-1.4c-1.5-0.9-2.8-2.3-3.6-3.9c-0.3-0.6-0.5-1.2-0.6-1.9c-0.1-0.5,0-1.1,0.2-1.6c0.1-0.1,0.2-0.3,0.3-0.4
				c0.2-0.1,0.4-0.2,0.6-0.3c0.2-0.1,0.3-0.1,0.3,0c0.1,0.9,0.3,1.7,0.7,2.5c0.6,1.3,1.8,2.1,3.2,2.3c1.6,0.2,3.2-0.1,4.6-0.9
				c1.6-0.7,2.9-1.8,3.8-3.3c0.7-1.3,0.6-2.9-0.1-4.2c-0.4-0.8-0.9-1.6-1.5-2.2c-0.3-0.2-1.8,0.3-4.5,1.7l-14.5,7.4
				c-1.2,0.5-2.3,1.2-3.3,2.1c-0.3,0.2-0.3,0.8-0.1,1.8c0.1,0.7,0.3,1.3,0.6,1.9c0.1,0.1-0.2,0.3-0.6,0.5c-0.2,0.1-0.5,0.2-0.7,0.3
				c-1.3-3.1-2.2-5-2.7-5.9c-0.3-0.7-0.8-1.6-1.3-2.4l-1.2-2.1l-0.5-0.8c0.2-0.2,0.4-0.4,0.7-0.5c0.4-0.2,0.7-0.3,0.7-0.2
				c0.3,0.5,0.7,1,1.1,1.4c0.5,0.6,0.9,0.9,1.2,0.9c1.3-0.4,2.6-0.9,3.8-1.6l15.4-7.8c1.1-0.5,2.2-1.2,3.2-1.9
				c0.2-0.2,0.2-0.7,0.1-1.5c-0.1-0.6-0.2-1.2-0.4-1.7c-0.1-0.1,0.1-0.3,0.5-0.5s0.7-0.3,0.8-0.2C173.2,476.8,174,478.7,174.4,479.4
				z"/>
			<path class="st29" d="M178.4,509.1c0.8,1.3,1,3,0.6,4.5c-0.5,1.3-1.7,2.5-3.9,3.6l-8,4.1c-0.5,0.2-0.8,0.5-1.1,1
				c-0.2,0.4-0.1,0.8,0.1,1.2c0.3,0.5,0.7,0.9,1.2,1.1c0,0.2-0.1,0.3-0.3,0.5c-0.4,0.2-0.9,0.4-1.3,0.4c-0.6-0.3-1.3-0.7-1.8-1.1
				c-0.6-0.4-1.2-1-1.5-1.7c-0.3-0.7-0.4-1.5-0.2-2.2c0.1-0.7,0.4-1.4,0.9-1.9l-0.4-0.2c-0.2-0.1-0.5-0.3-0.9-0.5
				c-0.4-0.2-0.8-0.5-1.2-0.7c-0.5-0.3-0.9-0.7-1.3-1.1c-0.4-0.4-0.8-1-1-1.5c-0.7-1.2-0.9-2.6-0.6-3.9c0.3-1.3,1.2-2.3,2.4-2.8
				c0.6-0.3,1.4-0.5,2.1-0.5c0.7,0,1.3,0.1,2,0.4c0.7,0.3,1.4,0.7,2,1.2c0.6,0.5,1.2,0.9,1.8,1.5c0.4,0.4,1,1,1.7,1.7
				c0.7,0.7,1.1,1.2,1.4,1.5c0.2,0.2,0.6,0.2,0.8,0l2.2-1.1c0.8-0.4,1.5-1,1.9-1.8c0.3-0.7,0.3-1.5-0.1-2.2c-0.3-0.7-1-1.3-1.7-1.5
				c-0.8-0.2-1.7-0.1-2.5,0.4c-0.5,0.3-1,0.3-1.5,0c-0.5-0.3-0.9-0.7-1.1-1.2c-0.5-0.8-0.5-1.8-0.1-2.6c1.3-0.7,3-0.4,5,0.8
				C175.8,505.5,177.4,507.1,178.4,509.1z M161.8,515.2c0.3,0.7,0.9,1.2,1.5,1.6c0.5,0.3,1.2,0.4,1.7,0.1l4.1-2.1
				c-0.2-0.1-0.5-0.5-1-1c-0.5-0.5-0.9-0.9-1.2-1.2c-0.4-0.3-0.7-0.6-1.1-0.9c-0.4-0.3-0.9-0.4-1.3-0.5c-0.4,0-0.9,0.1-1.3,0.3
				c-0.7,0.3-1.3,0.9-1.6,1.6C161.5,513.9,161.5,514.6,161.8,515.2z"/>
			<path class="st29" d="M186.8,525.6c0.8,1.6,1.4,3.3,1.7,5.1c-1.3,1.1-2.8,2-4.3,2.8c-0.2,0.1-0.4,0-0.6-0.4
				c-0.3-0.6-0.3-1-0.2-1.1c0.8-0.6,1.4-1.5,1.8-2.4c0.3-1,0.2-2.1-0.3-3c-0.3-0.7-0.8-1.2-1.5-1.6c-0.6-0.3-1.3-0.2-1.8,0.1
				c-0.4,0.2-0.7,0.4-0.9,0.7c-0.3,0.3-0.5,0.8-0.5,1.2c-0.1,0.4-0.2,0.8-0.2,1.2c0,0.3-0.1,0.8-0.1,1.5c0,0.2,0,0.3,0,0.5l0,0.8
				l0,0.9l-0.1,0.8c0,0.3-0.1,0.6-0.1,1l-0.2,0.9c0,0.3-0.1,0.6-0.3,0.9l-0.4,0.8c-0.1,0.3-0.3,0.6-0.5,0.8
				c-0.2,0.2-0.4,0.4-0.7,0.6c-0.3,0.2-0.5,0.4-0.8,0.6c-1.6,0.9-3.5,0.9-5,0.1c-1.7-0.9-3.1-2.3-3.9-4c-0.9-1.8-1.4-3.8-1.5-5.8
				c0.6-0.6,1.3-1.1,2.1-1.6c0.7-0.5,1.5-1,2.2-1.4c0.2,0.1,0.4,0.3,0.5,0.5c0.3,0.6,0.3,1,0.2,1.1c-1,0.7-1.7,1.8-1.9,3
				c-0.3,1.1-0.1,2.3,0.4,3.3c0.3,0.7,0.8,1.2,1.5,1.6c0.7,0.3,1.4,0.3,2-0.1c0.3-0.1,0.5-0.3,0.7-0.5c0.2-0.2,0.4-0.5,0.5-0.7
				l0.3-0.8c0.1-0.3,0.2-0.7,0.2-1l0.1-1.1l0-1.3c0-0.6,0-1.1,0-1.3c0-1.4,0.2-2.7,0.7-4c1.2-2.6,4.3-3.8,7-2.6
				c0.1,0,0.2,0.1,0.2,0.1C184.7,522.6,186,524,186.8,525.6z"/>
			<path class="st29" d="M194.4,540.5c0.8,1.6,1.4,3.3,1.7,5.1c-1.3,1.1-2.8,2-4.3,2.8c-0.2,0.1-0.4,0-0.6-0.4
				c-0.3-0.6-0.3-1-0.2-1.1c0.8-0.6,1.4-1.5,1.8-2.4c0.3-1,0.2-2.1-0.3-3c-0.3-0.7-0.8-1.2-1.5-1.6c-0.6-0.3-1.3-0.2-1.8,0.1
				c-0.4,0.2-0.7,0.4-0.9,0.7c-0.3,0.3-0.5,0.8-0.5,1.2c-0.1,0.4-0.2,0.8-0.2,1.2c0,0.3-0.1,0.8-0.1,1.5c0,0.2,0,0.3,0,0.5l0,0.8
				l0,0.9l-0.1,0.9c0,0.3-0.1,0.6-0.1,1l-0.2,0.9c0,0.3-0.1,0.6-0.3,0.9l-0.4,0.8c-0.1,0.3-0.3,0.6-0.5,0.8
				c-0.2,0.2-0.4,0.4-0.7,0.6c-0.3,0.2-0.5,0.4-0.8,0.6c-1.6,0.9-3.5,0.9-5,0.1c-1.7-0.9-3.1-2.3-3.9-4c-0.9-1.8-1.4-3.8-1.5-5.8
				c0.6-0.6,1.3-1.1,2.1-1.6c0.7-0.5,1.5-1,2.2-1.4c0.2,0.1,0.4,0.3,0.5,0.5c0.3,0.6,0.3,1,0.2,1.1c-1,0.7-1.7,1.8-1.9,3
				c-0.3,1.1-0.1,2.3,0.4,3.3c0.3,0.7,0.8,1.2,1.5,1.6c0.7,0.3,1.4,0.3,2-0.1c0.3-0.1,0.5-0.3,0.7-0.5c0.2-0.2,0.4-0.5,0.5-0.7
				l0.3-0.8c0.1-0.3,0.2-0.7,0.2-1l0.1-1.1l0-1.3c0-0.6,0-1.1,0-1.3c0-1.4,0.2-2.7,0.7-4c1.2-2.6,4.3-3.8,7-2.6
				c0.1,0,0.1,0.1,0.2,0.1C192.3,537.5,193.5,538.8,194.4,540.5z"/>
			<path class="st29" d="M202.8,557.3c0.8,1.3,1,3,0.6,4.5c-0.5,1.3-1.7,2.5-3.9,3.5l-8,4.1c-0.5,0.2-0.8,0.5-1.1,1
				c-0.2,0.4-0.1,0.8,0.1,1.2c0.3,0.5,0.7,0.9,1.2,1.1c0,0.2-0.1,0.3-0.3,0.5c-0.4,0.2-0.9,0.4-1.3,0.4c-0.6-0.3-1.3-0.7-1.8-1.1
				c-0.6-0.4-1.2-1-1.5-1.7c-0.3-0.7-0.4-1.5-0.2-2.2c0.1-0.7,0.4-1.4,0.9-1.9l-0.4-0.2c-0.2-0.1-0.5-0.3-0.9-0.5
				c-0.4-0.2-0.8-0.5-1.2-0.7c-0.5-0.3-0.9-0.7-1.3-1.1c-0.4-0.4-0.8-1-1-1.5c-0.7-1.2-0.9-2.6-0.6-3.9c0.3-1.3,1.2-2.3,2.4-2.8
				c0.6-0.3,1.4-0.5,2.1-0.5c0.7,0,1.3,0.1,2,0.4c0.7,0.3,1.4,0.7,2,1.2c0.6,0.5,1.2,0.9,1.8,1.5c0.4,0.4,1,1,1.7,1.7
				s1.1,1.2,1.4,1.5c0.2,0.2,0.6,0.2,0.8,0l2.2-1.1c0.8-0.4,1.5-1,1.9-1.8c0.3-0.7,0.3-1.5-0.1-2.2c-0.3-0.7-1-1.3-1.7-1.5
				c-0.8-0.2-1.7,0-2.5,0.4c-0.5,0.3-1,0.3-1.5,0c-0.5-0.3-0.9-0.7-1.1-1.2c-0.5-0.8-0.5-1.8-0.1-2.6c1.3-0.7,3-0.4,5,0.8
				C200.3,553.7,201.8,555.3,202.8,557.3z M186.3,563.4c0.3,0.7,0.9,1.2,1.5,1.6c0.5,0.3,1.2,0.4,1.7,0.1l4.1-2.1
				c-0.2-0.1-0.5-0.5-1-1c-0.5-0.5-0.9-0.9-1.2-1.2c-0.4-0.3-0.7-0.6-1.1-0.9c-0.4-0.3-0.9-0.4-1.3-0.5c-0.4,0-0.9,0.1-1.3,0.3
				c-0.7,0.3-1.3,0.9-1.6,1.6C185.9,562.1,186,562.8,186.3,563.4z"/>
			<path class="st29" d="M211.7,575c0.5,1.2,0.9,2.4,1.1,3.6c0.2,1.2,0.6,2.4,1.1,3.5l1.2,2.3c0,0.1-0.1,0.2-0.4,0.6
				c-0.2,0.2-0.4,0.5-0.7,0.6c-0.4,0.2-0.6,0.2-0.7,0L212,583c-0.1-0.1-0.1-0.1-0.2-0.1c-0.1,0.1-0.3,0.3-0.9,0.9
				c-0.5,0.5-1.1,1-1.8,1.4c-1.7,0.8-3.6,0.9-5.4,0.2c-2-0.7-3.6-2.2-4.5-4c-0.4-0.8-0.8-1.7-1.1-2.6c-0.3-0.3-0.8-0.5-1.2-0.5
				c-0.4-0.1-0.8-0.1-1.2,0.1c-0.3,0.1-0.5,0.4-0.5,0.7c0,0.5,0,1,0.2,1.4c0.2,0.6,0.4,1.1,0.5,1.5l0.8,1.7l0.3,0.6
				c1.1,2,1.8,4.2,1.9,6.5c0.1,1.4-0.7,2.8-2,3.4c-2,1.1-4.3,1-6.7-0.3c-2.5-1.2-4.5-3.2-5.7-5.7c-1-1.8-1.5-3.8-1.5-5.8
				c-0.1-1.6,0.8-3.2,2.2-3.9c0.9-0.4,2-0.4,2.9,0c1.1,0.4,2,0.9,2.8,1.7c-0.1-0.9,0-1.8,0.3-2.6c0.3-0.9,0.9-1.6,1.7-2
				c1.2-0.6,2.9-0.2,5.1,1.2c0-1.2,0.4-2.3,1-3.3c0.6-1.2,1.6-2.1,2.8-2.7c1.7-1,3.8-1,5.6-0.2C209.3,571.5,210.8,573.1,211.7,575z
				 M193.2,591.4c1-0.5,1.2-1.5,0.8-3c-0.6-2-1.3-3.9-2.3-5.8c0-0.1-0.1-0.1-0.1-0.2l-0.2-0.1c-0.3-0.3-0.6-0.5-0.8-0.6
				c-0.2-0.2-0.5-0.3-0.8-0.4c-0.3-0.1-0.7-0.2-1-0.2c-0.4,0-0.7,0.1-1.1,0.3c-1,0.6-1.7,1.6-1.7,2.8c-0.1,1.4,0.1,2.7,0.7,4
				c0.6,1.4,1.6,2.5,2.9,3.2C190.9,591.9,192.2,592,193.2,591.4z M204.2,574.9c-1.2,0.5-2.2,1.4-3,2.5c-0.6,0.9-0.7,2-0.2,3
				c0.4,0.9,1.3,1.6,2.3,1.6c1.1,0.1,2.2-0.2,3.2-0.7c1.2-0.6,2.3-1.4,3.1-2.5c0.6-0.9,0.7-2.1,0.1-3c-0.4-0.9-1.3-1.5-2.4-1.5
				C206.3,574.1,205.2,574.4,204.2,574.9z"/>
			<path class="st29" d="M221.9,594.9c0.6,1.2,1,2.5,1,3.8c0,1.2-0.2,2.3-0.7,3.3c-0.5,0.9-1,1.8-1.7,2.5c-0.6,0.7-1.3,1.2-2.2,1.7
				c-0.6,0.3-1,0.4-1.3,0.3c-0.4-0.3-0.7-0.7-0.9-1.1l-4.9-9.7c-0.1-0.2-0.2-0.2-0.4-0.2c-1,0.5-1.8,1.2-2.6,2
				c-0.8,0.9-1.3,1.9-1.5,3c-0.2,1.2,0,2.5,0.6,3.6c0.2,0.4,0.4,0.8,0.7,1.2c0.2,0.3,0.5,0.7,0.7,1l0.7,0.7c0.2,0.2,0.5,0.4,0.7,0.6
				l0.6,0.4l1,0.5c0,0.1-0.1,0.2-0.1,0.3c-0.1,0.1-0.2,0.3-0.3,0.3c-0.3,0.1-0.6,0.2-0.9,0.1c-1.2-0.1-2.4-0.6-3.4-1.3
				c-1.4-0.8-2.4-2-3.1-3.5c-1.2-2.3-1.4-5-0.5-7.4c0.8-2.5,2.6-4.6,5-5.8c2.4-1.3,5.2-1.7,7.9-1
				C218.7,590.9,220.8,592.6,221.9,594.9z M219.9,595.6c-0.3-0.6-0.8-1.1-1.5-1.5c-0.6-0.3-1.3-0.5-2-0.5c-0.6,0-1.2,0.1-1.8,0.2
				c-0.4,0.1-0.9,0.2-1.3,0.4c-0.2,0.1-0.2,0.2-0.2,0.4l3.3,6.6c0.1,0.2,0.4,0.3,0.8,0.1c1-0.6,1.9-1.4,2.4-2.4
				C220.3,597.9,220.4,596.7,219.9,595.6L219.9,595.6z"/>
		</g>
		<g>
			<path class="st29" d="M171.3,57.5c0.7,0.5,1.5,1.1,2.5,1.8s1.8,1.3,2.5,1.8c0.7,0.5,1.4,1.2,2,1.8c0.6,0.7,1.2,1.5,1.6,2.3
				c0.5,0.8,0.8,1.7,1,2.6c0.2,1,0.1,2-0.1,2.9c-0.2,1.1-0.7,2.1-1.4,3c-0.9,1.2-2.1,2.1-3.4,2.7c-1.5,0.7-3.2,0.9-4.8,0.8
				c-1.8-0.1-3.5-0.8-4.9-1.9c-0.5-0.4-1-0.9-1.3-1.4c-0.3-0.4-0.5-0.9-0.6-1.5c0-0.2,0.1-0.3,0.1-0.5c0.1-0.2,0.2-0.4,0.4-0.6
				c0.1-0.2,0.3-0.2,0.3-0.2c0.5,0.7,1.1,1.4,1.8,1.9c1.1,0.9,2.5,1.1,3.9,0.6c1.5-0.5,2.8-1.6,3.7-2.9c1.1-1.3,1.7-2.9,1.9-4.6
				c0-1.5-0.7-2.9-2-3.7c-0.7-0.6-1.5-1-2.3-1.3c-0.4-0.1-1.4,1.1-3.2,3.5l-9.7,13.1c-0.8,1-1.5,2.1-2,3.3c-0.1,0.3,0.1,0.9,0.7,1.6
				c0.4,0.5,0.9,1,1.4,1.5c0.1,0.1,0,0.3-0.3,0.7c-0.1,0.2-0.3,0.4-0.5,0.6c-2.6-2.1-4.2-3.5-5-4.1c-0.7-0.5-1.4-1-2.2-1.6l-2.1-1.3
				l-0.8-0.5c0.1-0.3,0.2-0.5,0.4-0.7c0.3-0.4,0.5-0.6,0.5-0.5c0.5,0.3,1,0.6,1.6,0.8c0.7,0.3,1.2,0.4,1.5,0.2c1-0.9,1.9-2,2.7-3.2
				l10.3-13.8c0.8-1,1.5-2,2-3.2c0.1-0.3-0.1-0.7-0.6-1.4c-0.3-0.5-0.7-1-1.2-1.4c-0.1-0.1,0-0.3,0.3-0.7c0.3-0.4,0.5-0.6,0.6-0.6
				C169,55.8,170.6,57,171.3,57.5z"/>
			<path class="st29" d="M191.1,84.6c1.2,0.8,2,2,2.1,3.4c-1.5,2.1-2.9,2.7-4.1,1.8c-0.5-0.5-0.8-1.1-0.9-1.8
				c-0.1-0.7-0.5-1.4-1-1.9c-0.8-0.6-1.8-0.6-2.6-0.2c-1,0.4-1.8,1.1-2.4,1.9l-3.4,4.6c-0.9,1.1-1.6,2.2-2.2,3.5
				c-0.1,0.2,0.1,0.6,0.6,1.3c0.3,0.4,0.6,0.8,1,1.2c0.1,0.1,0,0.3-0.3,0.6c-0.2,0.3-0.3,0.5-0.5,0.7c-0.2-0.2-0.8-0.7-1.8-1.6
				c-1-0.9-1.8-1.5-2.4-2c-0.6-0.4-1.5-1-2.6-1.8c-1.2-0.8-1.9-1.2-2.1-1.3c0-0.3,0.2-0.6,0.4-0.8c0.3-0.4,0.5-0.5,0.6-0.4
				c0.5,0.3,1,0.5,1.5,0.7c0.7,0.3,1.2,0.3,1.4,0.2c0.8-0.7,1.6-1.6,2.3-2.5l4.4-6c0.7-0.8,1.1-1.7,1.2-2.8c0-0.4-0.2-0.8-0.4-1.2
				c-0.2-0.3-0.4-0.6-0.7-0.9c-0.2-0.2-0.3-0.3-0.3-0.4c0.5-0.7,0.9-1,1-1c2.2,1.2,4.4,2.3,6.7,3.3l0.4,0.1c0.1,0.1,0.1,0.2,0.1,0.4
				c0,0.2-0.1,0.3-0.2,0.5l-0.4,0.5c-0.2,0.2-0.4,0.4-0.6,0.7c-0.2,0.1-0.3,0.3-0.4,0.5c1-0.3,2.1-0.5,3.1-0.4
				C189.3,83.7,190.3,84,191.1,84.6z"/>
			<path class="st29" d="M203.6,93.9c1.1,0.8,2,1.8,2.6,3c0.5,1,0.8,2.1,0.8,3.3c0,1-0.2,2-0.4,3c-0.3,0.9-0.7,1.7-1.2,2.4
				c-0.4,0.5-0.7,0.8-1,0.8c-0.5-0.1-0.9-0.3-1.3-0.6l-8.8-6.5c-0.2-0.1-0.3-0.1-0.4,0c-0.6,0.9-1.1,1.8-1.4,2.9
				c-0.3,1.1-0.3,2.3,0,3.4c0.3,1.2,1.1,2.3,2.1,3c0.3,0.3,0.7,0.5,1.1,0.8c0.4,0.2,0.7,0.4,1.1,0.5l1,0.4c0.3,0.1,0.6,0.2,0.9,0.2
				l0.7,0.1l1.1,0.1c0,0.1,0,0.2,0,0.4c0,0.2-0.1,0.3-0.2,0.4c-0.2,0.3-0.4,0.4-0.7,0.5c-1.2,0.4-2.4,0.5-3.6,0.3
				c-1.6-0.1-3.1-0.7-4.4-1.7c-2.1-1.5-3.5-3.8-3.8-6.4c-0.4-2.6,0.3-5.3,2-7.4c1.5-2.3,3.9-3.9,6.6-4.4
				C199,91.7,201.6,92.3,203.6,93.9z M202.1,95.4c-0.6-0.4-1.3-0.7-2-0.7c-0.7,0-1.4,0.2-2,0.5c-0.6,0.3-1.1,0.6-1.6,1
				c-0.4,0.3-0.7,0.6-0.9,0.9c-0.1,0.2-0.1,0.3,0,0.4l5.9,4.4c0.2,0.2,0.5,0.1,0.7-0.3c0.7-0.9,1.1-2.1,1.1-3.2
				C203.6,97.2,203.1,96.1,202.1,95.4z"/>
			<path class="st29" d="M218.1,104.6c1.4,1.1,2.7,2.4,3.8,3.8c-0.7,1.6-1.6,3-2.7,4.4c-0.1,0.2-0.4,0.2-0.7-0.1
				c-0.5-0.4-0.8-0.7-0.7-0.9c0.5-0.9,0.6-2,0.5-3c-0.1-1-0.7-2-1.5-2.6c-0.6-0.5-1.3-0.7-2-0.8c-0.7,0-1.3,0.4-1.6,0.9
				c-0.2,0.3-0.4,0.7-0.5,1.1c-0.1,0.4-0.1,0.9,0.1,1.3c0.1,0.4,0.2,0.8,0.4,1.2c0.1,0.3,0.3,0.8,0.6,1.4c0.1,0.2,0.1,0.3,0.2,0.5
				l0.3,0.7l0.4,0.8l0.3,0.8c0.1,0.3,0.2,0.6,0.3,0.9l0.2,0.9c0.1,0.3,0.2,0.6,0.2,0.9l0,0.9c0,0.3,0,0.6-0.1,0.9
				c-0.1,0.3-0.2,0.6-0.3,0.8c-0.1,0.3-0.3,0.6-0.5,0.9c-1,1.4-2.7,2.3-4.5,2.3c-1.9,0-3.8-0.7-5.3-1.8c-1.6-1.2-3-2.8-4-4.5
				c0.3-0.8,0.7-1.6,1.1-2.3c0.4-0.8,0.9-1.5,1.4-2.2c0.2,0,0.5,0.1,0.6,0.2c0.6,0.4,0.8,0.7,0.7,0.9c-0.6,1.1-0.7,2.4-0.4,3.5
				c0.3,1.1,0.9,2.1,1.8,2.8c0.6,0.5,1.3,0.8,2.1,0.8c0.7,0,1.4-0.4,1.8-1c0.2-0.2,0.3-0.5,0.4-0.7c0.1-0.3,0.1-0.6,0.1-0.9l0-0.8
				c0-0.3-0.1-0.7-0.3-1l-0.4-1l-0.6-1.2l-0.6-1.2c-0.6-1.2-1-2.5-1.1-3.9c-0.1-1.2,0.3-2.4,1-3.3c1-1.4,2.6-2.2,4.4-2.1
				C214.9,102.9,216.6,103.5,218.1,104.6z"/>
			<path class="st29" d="M231.5,114.6c1.4,1.1,2.7,2.4,3.8,3.8c-0.7,1.6-1.6,3-2.7,4.4c-0.1,0.2-0.4,0.2-0.7-0.1
				c-0.5-0.4-0.8-0.7-0.7-0.9c0.5-0.9,0.6-2,0.5-3c-0.1-1-0.7-2-1.5-2.6c-0.6-0.5-1.3-0.7-2-0.8c-0.7,0-1.3,0.4-1.6,0.9
				c-0.2,0.3-0.4,0.7-0.5,1.1c-0.1,0.4-0.1,0.9,0.1,1.3c0.1,0.4,0.2,0.8,0.4,1.2c0.1,0.3,0.3,0.8,0.6,1.4c0.1,0.2,0.1,0.3,0.2,0.4
				l0.3,0.7l0.4,0.8l0.3,0.8c0.1,0.3,0.2,0.6,0.3,0.9l0.2,0.9c0.1,0.3,0.2,0.6,0.2,0.9l0,0.9c0,0.3,0,0.6-0.1,0.9
				c-0.1,0.3-0.2,0.6-0.3,0.8c-0.1,0.3-0.3,0.6-0.5,0.9c-1,1.5-2.7,2.3-4.5,2.3c-1.9,0-3.8-0.7-5.3-1.9c-1.6-1.2-3-2.8-4-4.5
				c0.3-0.8,0.7-1.6,1.1-2.3c0.4-0.8,0.9-1.5,1.4-2.2c0.2,0,0.5,0.1,0.6,0.2c0.5,0.4,0.8,0.7,0.7,0.9c-0.6,1.1-0.7,2.4-0.4,3.6
				c0.3,1.1,0.9,2.1,1.8,2.8c0.6,0.5,1.3,0.7,2.1,0.7c0.7,0,1.4-0.4,1.8-1c0.2-0.2,0.3-0.5,0.4-0.7c0.1-0.3,0.1-0.6,0.1-0.9l0-0.8
				c0-0.3-0.1-0.7-0.3-1l-0.4-1l-0.6-1.2l-0.6-1.2c-0.6-1.2-1-2.5-1.1-3.9c-0.1-1.2,0.3-2.4,1-3.3c1-1.4,2.6-2.2,4.3-2.1
				C228.3,112.8,230,113.5,231.5,114.6z"/>
			<path class="st29" d="M257.4,121.7c0.7,0.5,1.5,1.1,2.5,1.8c0.9,0.7,1.8,1.3,2.5,1.8c0.7,0.5,1.4,1.2,2,1.8
				c0.6,0.7,1.2,1.5,1.6,2.3c0.5,0.8,0.8,1.7,1,2.7c0.2,1,0.1,2-0.1,2.9c-0.2,1.1-0.7,2.1-1.4,3c-0.9,1.2-2,2.1-3.4,2.7
				c-1.5,0.7-3.2,0.9-4.8,0.8c-1.8-0.1-3.5-0.8-4.9-1.9c-0.5-0.4-1-0.9-1.3-1.4c-0.3-0.4-0.5-0.9-0.6-1.5c0-0.2,0.1-0.3,0.1-0.5
				c0.1-0.2,0.2-0.4,0.4-0.6c0.1-0.2,0.3-0.2,0.3-0.2c0.5,0.7,1.1,1.4,1.8,1.9c1.1,0.9,2.6,1.1,3.9,0.6c1.5-0.5,2.8-1.6,3.7-2.9
				c1.1-1.3,1.8-2.9,1.9-4.6c0-1.5-0.7-2.9-2-3.7c-0.7-0.6-1.5-1-2.3-1.3c-0.4-0.1-1.5,1.1-3.3,3.5l-9.7,13.1c-0.8,1-1.5,2.1-2,3.3
				c-0.1,0.3,0.1,0.9,0.7,1.6c0.4,0.5,0.9,1,1.4,1.5c0.1,0.1,0,0.3-0.3,0.7c-0.1,0.2-0.3,0.4-0.5,0.6c-2.6-2.1-4.2-3.5-5-4.1
				c-0.7-0.5-1.4-1-2.2-1.6l-2-1.4l-0.8-0.5c0.1-0.3,0.2-0.5,0.4-0.7c0.3-0.4,0.5-0.6,0.5-0.5c0.5,0.3,1,0.6,1.6,0.8
				c0.7,0.3,1.2,0.4,1.5,0.2c1-0.9,1.9-2,2.7-3.2l10.3-13.8c0.8-1,1.5-2.1,2.1-3.2c0.1-0.3-0.1-0.7-0.6-1.4c-0.3-0.5-0.7-1-1.2-1.4
				c-0.1-0.1,0-0.3,0.3-0.7c0.3-0.4,0.5-0.6,0.6-0.6C255.1,119.9,256.7,121.2,257.4,121.7z"/>
			<path class="st29" d="M277.2,148.7c1.2,0.8,2,2,2.1,3.4c-1.5,2.1-2.9,2.7-4.1,1.8c-0.5-0.5-0.8-1.1-0.9-1.8
				c-0.1-0.7-0.5-1.4-1-1.9c-0.8-0.6-1.8-0.6-2.6-0.2c-1,0.4-1.8,1.1-2.4,1.9l-3.4,4.6c-0.9,1.1-1.6,2.2-2.2,3.5
				c-0.1,0.2,0.1,0.6,0.6,1.3c0.3,0.4,0.6,0.8,1,1.2c0.1,0.1,0,0.3-0.3,0.6c-0.2,0.3-0.3,0.5-0.5,0.7c-0.2-0.1-0.8-0.7-1.8-1.6
				c-1-0.9-1.8-1.6-2.4-2c-0.6-0.4-1.5-1-2.6-1.8s-1.8-1.2-2.1-1.3c0-0.3,0.2-0.6,0.4-0.8c0.3-0.4,0.4-0.5,0.6-0.4
				c0.5,0.3,1,0.5,1.5,0.7c0.7,0.3,1.2,0.3,1.4,0.2c0.8-0.7,1.6-1.6,2.3-2.5l4.4-6c0.7-0.8,1.1-1.7,1.2-2.8c0-0.4-0.2-0.8-0.4-1.2
				c-0.2-0.3-0.4-0.6-0.7-0.9c-0.2-0.2-0.3-0.3-0.3-0.4c0.5-0.7,0.9-1,1-1c2.2,1.2,4.4,2.3,6.7,3.3l0.3,0.2c0.1,0.1,0.1,0.2,0.1,0.4
				c-0.1,0.1-0.2,0.3-0.3,0.4c-0.1,0.1-0.2,0.3-0.4,0.5c-0.2,0.2-0.4,0.4-0.6,0.7c-0.2,0.1-0.3,0.3-0.4,0.5c1-0.3,2.1-0.5,3.1-0.4
				C275.4,147.8,276.4,148.1,277.2,148.7z"/>
			<path class="st29" d="M289.8,158.1c1.1,0.8,2,1.8,2.6,3c0.6,1,0.9,2.2,0.9,3.3c0,1-0.1,2-0.4,3c-0.3,0.9-0.7,1.7-1.2,2.4
				c-0.4,0.5-0.7,0.8-1,0.8c-0.5-0.1-0.9-0.3-1.3-0.6l-8.7-6.5c-0.2-0.1-0.3-0.1-0.4,0c-0.7,0.9-1.1,1.9-1.4,2.9
				c-0.3,1.1-0.3,2.3,0,3.4c0.3,1.2,1.1,2.3,2.1,3c0.4,0.3,0.7,0.5,1.1,0.7c0.3,0.2,0.7,0.4,1.1,0.5l1,0.4c0.3,0.1,0.6,0.2,0.9,0.2
				l0.7,0.1l1.1,0.1c0,0.1,0,0.2,0,0.4c0,0.2-0.1,0.3-0.2,0.4c-0.2,0.3-0.4,0.4-0.7,0.5c-1.2,0.4-2.5,0.5-3.7,0.3
				c-1.6-0.1-3.1-0.7-4.4-1.7c-2.1-1.5-3.5-3.8-3.8-6.4c-0.4-2.6,0.3-5.3,2-7.4c1.5-2.3,3.9-3.9,6.6-4.4
				C285.1,155.8,287.7,156.4,289.8,158.1z M288.3,159.5c-0.6-0.4-1.3-0.7-2-0.7c-0.7,0-1.4,0.1-2,0.5c-0.6,0.3-1.1,0.6-1.6,1
				c-0.4,0.3-0.7,0.6-1,1c-0.1,0.2-0.1,0.3,0,0.4l5.9,4.4c0.2,0.2,0.5,0.1,0.7-0.3c0.7-0.9,1.1-2.1,1.1-3.2
				C289.7,161.4,289.2,160.2,288.3,159.5L288.3,159.5z"/>
			<path class="st29" d="M304.2,168.8c1.4,1.1,2.7,2.4,3.8,3.8c-0.7,1.6-1.6,3-2.7,4.4c-0.1,0.2-0.4,0.2-0.7-0.1
				c-0.5-0.4-0.7-0.7-0.7-0.9c0.5-0.9,0.6-2,0.5-3c-0.1-1-0.7-2-1.5-2.6c-0.6-0.5-1.3-0.7-2-0.8c-0.7,0-1.3,0.4-1.6,0.9
				c-0.2,0.3-0.4,0.7-0.5,1.1c-0.1,0.4-0.1,0.9,0.1,1.3c0.1,0.4,0.2,0.8,0.4,1.2c0.1,0.3,0.3,0.8,0.6,1.4c0.1,0.2,0.1,0.3,0.2,0.4
				l0.3,0.7l0.4,0.8l0.3,0.8c0.1,0.3,0.2,0.6,0.3,0.9l0.2,0.9c0.1,0.3,0.1,0.6,0.2,0.9l0,0.9c0,0.3,0,0.6-0.1,0.9
				c-0.1,0.3-0.2,0.6-0.3,0.8c-0.1,0.3-0.3,0.6-0.5,0.9c-1,1.5-2.7,2.3-4.5,2.3c-1.9,0-3.8-0.7-5.3-1.9c-1.6-1.2-3-2.8-4-4.5
				c0.3-0.8,0.7-1.6,1.1-2.3c0.4-0.8,0.9-1.5,1.4-2.2c0.2,0,0.5,0.1,0.6,0.2c0.5,0.4,0.8,0.7,0.7,0.9c-0.6,1.1-0.7,2.4-0.4,3.6
				c0.3,1.1,0.9,2.1,1.8,2.8c0.6,0.5,1.3,0.7,2.1,0.7c0.7,0,1.4-0.4,1.8-1c0.2-0.2,0.3-0.5,0.4-0.7c0.1-0.3,0.1-0.6,0.1-0.9l0-0.8
				c0-0.3-0.1-0.7-0.3-1l-0.4-1l-0.6-1.2l-0.6-1.2c-0.6-1.2-1-2.5-1.1-3.9c-0.1-1.2,0.3-2.4,1-3.3c1-1.4,2.6-2.2,4.3-2.1
				C301,167,302.8,167.6,304.2,168.8z"/>
			<path class="st29" d="M317.6,178.7c1.4,1.1,2.7,2.4,3.8,3.8c-0.7,1.6-1.6,3-2.7,4.4c-0.1,0.2-0.4,0.2-0.7-0.1
				c-0.5-0.4-0.7-0.7-0.7-0.9c0.5-0.9,0.6-2,0.5-3c-0.1-1-0.7-2-1.5-2.6c-0.6-0.5-1.3-0.7-2-0.8c-0.7,0-1.3,0.4-1.6,0.9
				c-0.2,0.3-0.4,0.7-0.5,1.1c-0.1,0.4-0.1,0.9,0.1,1.3c0.1,0.4,0.2,0.8,0.4,1.2c0.1,0.3,0.3,0.8,0.6,1.4c0.1,0.2,0.1,0.3,0.2,0.4
				l0.3,0.7l0.4,0.8l0.3,0.8c0.1,0.3,0.2,0.6,0.3,0.9l0.2,0.9c0.1,0.3,0.1,0.6,0.2,0.9l0,0.9c0,0.3,0,0.6-0.1,0.9
				c-0.1,0.3-0.2,0.6-0.3,0.8c-0.1,0.3-0.3,0.6-0.5,0.9c-1,1.5-2.7,2.3-4.5,2.3c-1.9,0-3.8-0.7-5.3-1.9c-1.6-1.3-2.9-2.8-3.9-4.6
				c0.3-0.8,0.7-1.6,1.1-2.3c0.4-0.8,0.9-1.5,1.4-2.2c0.2,0,0.5,0.1,0.6,0.2c0.5,0.4,0.8,0.7,0.7,0.9c-0.6,1.1-0.7,2.4-0.4,3.6
				c0.3,1.1,0.9,2.1,1.8,2.8c0.6,0.5,1.3,0.7,2.1,0.7c0.7,0,1.4-0.4,1.8-1c0.2-0.2,0.3-0.5,0.4-0.7c0.1-0.3,0.1-0.6,0.1-0.9l0-0.8
				c0-0.3-0.1-0.7-0.3-1l-0.4-1l-0.6-1.2l-0.6-1.2c-0.6-1.2-1-2.5-1.1-3.9c-0.1-1.2,0.3-2.4,1-3.3c1-1.4,2.6-2.2,4.3-2.1
				C314.5,177,316.2,177.6,317.6,178.7z"/>
			<path class="st29" d="M343.5,185.8c0.7,0.5,1.5,1.1,2.5,1.8s1.8,1.3,2.5,1.8c0.7,0.5,1.4,1.2,2,1.8c0.6,0.7,1.2,1.5,1.6,2.3
				c0.5,0.8,0.8,1.7,1,2.6c0.2,1,0.1,2-0.1,2.9c-0.2,1.1-0.7,2.1-1.4,3c-0.9,1.2-2.1,2.1-3.4,2.7c-1.5,0.7-3.2,0.9-4.8,0.8
				c-1.8-0.1-3.5-0.8-4.9-1.9c-0.5-0.4-1-0.9-1.3-1.4c-0.3-0.4-0.5-0.9-0.6-1.5c0-0.2,0.1-0.3,0.1-0.5c0.1-0.2,0.2-0.4,0.4-0.6
				c0.1-0.2,0.3-0.2,0.3-0.2c0.5,0.7,1.1,1.4,1.8,1.9c1.1,0.9,2.5,1.1,3.9,0.6c1.5-0.5,2.8-1.5,3.7-2.8c1.1-1.3,1.8-2.9,1.9-4.6
				c0-1.5-0.7-2.9-2-3.7c-0.7-0.6-1.5-1-2.3-1.3c-0.4-0.1-1.5,1.1-3.3,3.5l-9.7,13.1c-0.8,1-1.5,2.1-2,3.3c-0.1,0.3,0.1,0.9,0.7,1.6
				c0.4,0.5,0.9,1,1.4,1.5c0.1,0.1,0,0.3-0.3,0.7c-0.1,0.2-0.3,0.4-0.5,0.6c-2.6-2.1-4.2-3.5-5-4.1c-0.7-0.5-1.4-1-2.2-1.6l-2-1.4
				l-0.8-0.5c0.1-0.3,0.2-0.5,0.4-0.7c0.3-0.4,0.5-0.6,0.5-0.5c0.5,0.3,1,0.6,1.6,0.8c0.7,0.3,1.2,0.4,1.5,0.2c1-0.9,1.9-2,2.7-3.2
				l10.3-13.8c0.8-1,1.5-2,2-3.2c0.1-0.2-0.1-0.7-0.7-1.3c-0.3-0.5-0.7-1-1.2-1.4c-0.1-0.1,0-0.3,0.3-0.7c0.3-0.4,0.5-0.6,0.6-0.6
				C341.2,184,342.8,185.3,343.5,185.8z"/>
			<path class="st29" d="M363.4,212.9c1.2,0.8,2,2,2.1,3.4c-1.5,2.1-2.9,2.7-4.1,1.8c-0.5-0.5-0.8-1.1-0.9-1.8
				c-0.1-0.7-0.5-1.4-1-1.9c-0.8-0.6-1.8-0.6-2.6-0.2c-1,0.4-1.8,1.1-2.4,1.9l-3.4,4.6c-0.9,1.1-1.6,2.2-2.2,3.5
				c-0.1,0.2,0.1,0.6,0.6,1.3c0.3,0.4,0.6,0.8,1,1.2c0.1,0.1,0,0.3-0.3,0.6c-0.2,0.3-0.3,0.5-0.5,0.7c-0.2-0.1-0.8-0.7-1.8-1.6
				c-1-0.9-1.8-1.6-2.4-2c-0.6-0.4-1.5-1-2.6-1.8c-1.2-0.8-1.8-1.2-2.1-1.3c0-0.3,0.2-0.6,0.4-0.8c0.3-0.4,0.5-0.5,0.6-0.4
				c0.5,0.3,1,0.5,1.5,0.7c0.7,0.3,1.2,0.3,1.4,0.2c0.8-0.7,1.6-1.6,2.3-2.5l4.4-6c0.7-0.8,1.1-1.7,1.2-2.8c0-0.4-0.2-0.8-0.4-1.2
				c-0.2-0.3-0.4-0.6-0.7-0.9c-0.2-0.2-0.3-0.3-0.3-0.4c0.5-0.7,0.9-1,1-1c2.2,1.2,4.4,2.3,6.7,3.3l0.4,0.1c0.1,0.1,0.1,0.2,0.1,0.4
				c0,0.2-0.1,0.4-0.2,0.5l-0.4,0.5c-0.2,0.2-0.4,0.4-0.6,0.7c-0.2,0.1-0.3,0.3-0.4,0.5c1-0.3,2.1-0.5,3.1-0.4
				C361.5,212,362.5,212.3,363.4,212.9z"/>
			<path class="st29" d="M375.9,222.2c1.1,0.8,2,1.8,2.6,3c0.5,1,0.8,2.1,0.8,3.3c0,1-0.1,2-0.4,3c-0.3,0.9-0.7,1.7-1.2,2.4
				c-0.4,0.5-0.7,0.8-1,0.8c-0.5-0.1-0.9-0.3-1.3-0.6l-8.7-6.5c-0.2-0.1-0.3-0.1-0.4,0c-0.7,0.9-1.1,1.9-1.4,2.9
				c-0.3,1.1-0.3,2.3,0,3.4c0.3,1.2,1,2.3,2.1,3c0.4,0.3,0.7,0.5,1.1,0.7c0.3,0.2,0.7,0.4,1.1,0.5l1,0.4c0.3,0.1,0.6,0.2,0.9,0.2
				l0.7,0.1l1.1,0.1c0,0.1,0,0.2,0,0.4c0,0.2-0.1,0.3-0.2,0.4c-0.2,0.3-0.4,0.4-0.7,0.5c-1.2,0.4-2.4,0.6-3.6,0.4
				c-1.6-0.1-3.1-0.7-4.4-1.7c-2.1-1.5-3.5-3.8-3.8-6.4c-0.4-2.7,0.3-5.4,2-7.5c1.5-2.3,3.9-3.9,6.6-4.4
				C371.3,219.9,373.9,220.6,375.9,222.2z M374.4,223.7c-0.6-0.4-1.3-0.7-2-0.7c-0.7,0-1.3,0.1-1.9,0.4c-0.6,0.3-1.1,0.6-1.6,1
				c-0.4,0.3-0.7,0.6-1,1c-0.1,0.2-0.1,0.3,0,0.4l5.9,4.4c0.2,0.2,0.5,0.1,0.7-0.3c0.7-0.9,1.1-2.1,1.1-3.2
				C375.9,225.5,375.3,224.4,374.4,223.7L374.4,223.7z"/>
			<path class="st29" d="M390.4,232.9c1.4,1.1,2.7,2.4,3.8,3.8c-0.7,1.6-1.6,3-2.7,4.4c-0.1,0.2-0.4,0.2-0.7-0.1
				c-0.5-0.4-0.8-0.7-0.7-0.9c0.5-0.9,0.6-2,0.5-3c-0.1-1-0.7-2-1.5-2.6c-0.6-0.5-1.3-0.7-2-0.8c-0.7,0-1.3,0.4-1.6,0.9
				c-0.2,0.3-0.4,0.7-0.5,1.1c-0.1,0.4-0.1,0.9,0.1,1.3c0.1,0.4,0.2,0.8,0.4,1.2c0.1,0.3,0.3,0.8,0.6,1.4c0.1,0.2,0.1,0.3,0.2,0.5
				l0.3,0.7l0.4,0.8l0.3,0.8c0.1,0.3,0.2,0.6,0.3,0.9l0.2,0.9c0.1,0.3,0.2,0.6,0.2,0.9l0,0.9c0,0.3,0,0.6-0.1,0.9
				c-0.1,0.3-0.2,0.6-0.3,0.8c-0.1,0.3-0.3,0.6-0.5,0.9c-1,1.5-2.7,2.3-4.5,2.3c-1.9,0-3.8-0.7-5.3-1.9c-1.6-1.2-3-2.8-4-4.5
				c0.3-0.8,0.7-1.6,1.1-2.3c0.4-0.8,0.9-1.5,1.4-2.2c0.2,0,0.5,0.1,0.6,0.2c0.6,0.4,0.8,0.7,0.7,0.9c-0.6,1.1-0.7,2.4-0.4,3.6
				c0.3,1.1,0.9,2.1,1.8,2.8c0.6,0.5,1.3,0.7,2.1,0.7c0.7,0,1.4-0.4,1.8-1c0.2-0.2,0.3-0.5,0.4-0.7c0.1-0.3,0.1-0.6,0.1-0.9l0-0.8
				c0-0.3-0.1-0.7-0.3-1l-0.4-1l-0.5-1.1l-0.6-1.2c-0.6-1.2-1.1-2.5-1.2-3.9c-0.1-1.2,0.3-2.4,1-3.3c1-1.4,2.6-2.2,4.3-2.1
				C387.2,231.1,388.9,231.8,390.4,232.9z"/>
			<path class="st29" d="M405.3,244c1.1,0.8,2,1.8,2.6,3c0.5,1,0.8,2.1,0.8,3.3c0,1-0.1,2-0.4,3c-0.3,0.9-0.7,1.7-1.2,2.4
				c-0.4,0.5-0.7,0.8-1,0.8c-0.5-0.1-0.9-0.3-1.3-0.6l-8.8-6.5c-0.2-0.1-0.3-0.1-0.4,0c-0.7,0.9-1.1,1.9-1.4,2.9
				c-0.3,1.1-0.3,2.3,0,3.4c0.3,1.2,1.1,2.3,2.1,3c0.4,0.3,0.7,0.5,1.1,0.7c0.3,0.2,0.7,0.4,1.1,0.5l1,0.4c0.3,0.1,0.6,0.2,0.9,0.2
				l0.7,0.1l1.1,0.1c0,0.1,0,0.2,0,0.4c0,0.2-0.1,0.3-0.2,0.4c-0.2,0.3-0.4,0.4-0.7,0.5c-1.2,0.4-2.4,0.5-3.7,0.3
				c-1.6-0.1-3.1-0.7-4.4-1.7c-2.1-1.5-3.5-3.8-3.8-6.4c-0.4-2.6,0.3-5.3,2-7.4c1.5-2.3,3.9-3.9,6.6-4.4
				C400.6,241.8,403.2,242.4,405.3,244z M403.7,245.5c-0.6-0.4-1.3-0.7-2-0.7c-0.7,0-1.4,0.1-2,0.5c-0.6,0.3-1.1,0.6-1.6,1
				c-0.4,0.3-0.7,0.6-1,1c-0.1,0.2-0.1,0.3,0,0.4l5.9,4.4c0.2,0.2,0.5,0.1,0.7-0.3c0.7-0.9,1.1-2.1,1.1-3.2
				C405.2,247.4,404.7,246.2,403.7,245.5L403.7,245.5z"/>
			<path class="st29" d="M425.7,259.3c3.2,2.3,2.9,6-0.9,11l-2.6,3.5c-0.9,1.1-1.6,2.2-2.2,3.5c-0.1,0.2,0.1,0.6,0.6,1.3
				c0.3,0.4,0.7,0.8,1.1,1.2c0.1,0.1,0,0.3-0.3,0.6c-0.2,0.3-0.4,0.5-0.6,0.7c-0.1-0.1-0.7-0.6-1.8-1.6c-1.1-0.9-1.9-1.6-2.5-2
				c-0.6-0.4-1.4-1-2.5-1.7l-2-1.3c0-0.3,0.2-0.6,0.4-0.8c0.3-0.4,0.4-0.5,0.6-0.4c0.4,0.3,0.9,0.5,1.4,0.6c0.7,0.2,1.1,0.3,1.3,0.1
				c0.9-0.7,1.6-1.5,2.3-2.5l2.6-3.5c1.5-2,2.3-3.7,2.3-4.9c0-1.3-0.7-2.5-1.8-3.1c-0.7-0.6-1.6-0.9-2.5-0.9
				c-0.7-0.1-1.4,0.2-1.9,0.7l-4.7,6.3c-0.9,1.1-1.6,2.2-2.2,3.5c-0.1,0.2,0.1,0.6,0.6,1.3c0.3,0.4,0.6,0.8,1,1.2
				c0.1,0.1,0,0.3-0.2,0.7c-0.2,0.3-0.4,0.5-0.6,0.7c-0.2-0.2-0.8-0.7-1.8-1.6c-1-0.9-1.8-1.5-2.4-2c-0.6-0.4-1.5-1-2.6-1.8
				s-1.8-1.2-2.1-1.3c0-0.3,0.2-0.6,0.4-0.8c0.3-0.4,0.5-0.5,0.6-0.4c0.5,0.3,1,0.5,1.5,0.7c0.7,0.3,1.2,0.3,1.4,0.2
				c0.8-0.7,1.6-1.6,2.3-2.5l4.4-6c0.7-0.8,1.1-1.7,1.2-2.8c0-0.4-0.2-0.8-0.4-1.2c-0.2-0.3-0.4-0.6-0.7-0.9
				c-0.2-0.2-0.3-0.3-0.3-0.4c0.5-0.7,0.9-1,1-1c2.2,1.2,4.4,2.3,6.7,3.3c0,0,0.1,0,0.1,0l0.1,0.1l0.1,0.1c0.1,0.1,0.1,0.2,0.1,0.4
				c0,0.2-0.1,0.3-0.2,0.5c-0.4,0.4-0.8,0.8-1.1,1.2c-0.1,0-0.1,0.1-0.1,0.2c0.1,0,0.2,0,0.3,0c1.1-0.1,2.3-0.1,3.4,0.1
				C423.6,258,424.7,258.5,425.7,259.3z"/>
			<path class="st29" d="M435.3,270.4l-2.3-1.6c-0.2-0.1,0-0.5,0.5-1.1c0.1-0.1,0.2-0.2,0.3-0.3c1.4,0.3,2.8,0.3,4.3,0.2
				c0.6-0.1,1.2-0.2,1.8-0.3s1.5-0.3,2.5-0.6c0.2,0.2,0.4,0.4,0.6,0.6c0.2,0.2,0.2,0.4,0.2,0.5l-2.7,3.5l2.6,2l1.8,1.4
				c0.2,0.1,0.2,0.3,0,0.6c-0.4,0.6-0.9,1-1.6,1.3l-4.4-3.3l-6.6,8.8c-0.6,0.8-1,1.7-1,2.7c0,0.8,0.5,1.6,1.1,2.1
				c0.3,0.2,0.6,0.4,0.9,0.5c0.3,0.1,0.5,0.2,0.8,0.3l0.6,0.1c0.1,0,0.2,0,0.3,0.1c0.1,0.1,0.1,0.3,0.1,0.6c0,0.3-0.1,0.5-0.2,0.6
				c-0.8,0.3-1.7,0.3-2.5,0c-1.1-0.2-2.2-0.6-3.1-1.3c-1.2-0.9-2-2.2-2.3-3.6c-0.2-1.7,0.3-3.5,1.5-4.8L435.3,270.4z"/>
			<path class="st29" d="M453.9,280.2c1.4,1.1,2.7,2.4,3.8,3.8c-0.7,1.6-1.6,3-2.7,4.4c-0.1,0.2-0.4,0.2-0.7-0.1
				c-0.5-0.4-0.7-0.7-0.7-0.9c0.5-0.9,0.6-2,0.5-3c-0.1-1-0.7-2-1.5-2.6c-0.6-0.5-1.3-0.7-2-0.8c-0.7,0-1.3,0.4-1.6,0.9
				c-0.2,0.3-0.4,0.7-0.5,1.1c-0.1,0.4-0.1,0.9,0.1,1.3c0.1,0.4,0.2,0.8,0.4,1.2c0.1,0.3,0.3,0.8,0.6,1.4c0.1,0.2,0.1,0.3,0.2,0.5
				l0.3,0.7l0.4,0.8l0.3,0.8c0.1,0.3,0.2,0.6,0.3,0.9l0.2,0.9c0.1,0.3,0.1,0.6,0.2,0.9l0,0.9c0,0.3,0,0.6-0.1,0.9
				c-0.1,0.3-0.2,0.6-0.3,0.8c-0.1,0.3-0.3,0.6-0.5,0.9c-1,1.5-2.7,2.3-4.5,2.3c-1.9,0-3.8-0.7-5.3-1.9c-1.6-1.2-3-2.8-4-4.5
				c0.3-0.8,0.7-1.6,1.1-2.3c0.4-0.8,0.9-1.5,1.4-2.2c0.2,0,0.5,0.1,0.6,0.2c0.5,0.4,0.8,0.7,0.7,0.9c-0.6,1.1-0.7,2.4-0.4,3.5
				c0.3,1.1,0.9,2.1,1.8,2.8c0.6,0.5,1.3,0.7,2.1,0.7c0.7,0,1.4-0.4,1.8-1c0.2-0.2,0.3-0.5,0.4-0.7c0.1-0.3,0.1-0.6,0.1-0.9
				l-0.1-0.8c0-0.3-0.1-0.7-0.3-1l-0.4-1l-0.6-1.2l-0.6-1.2c-0.6-1.2-1-2.5-1.1-3.9c-0.1-1.2,0.3-2.4,1-3.3c1-1.4,2.6-2.2,4.4-2.1
				C450.7,278.5,452.5,279.1,453.9,280.2z"/>
			<path class="st29" d="M456.3,301.3c0.1,0.8-0.1,1.6-0.6,2.3c-0.5,0.7-1.2,1.1-2,1.2c-0.8,0.2-1.6,0-2.3-0.5
				c-0.7-0.5-1.1-1.3-1.2-2.1c-0.1-0.8,0.1-1.6,0.6-2.3c0.5-0.7,1.2-1.1,2-1.2c0.8-0.1,1.6,0.1,2.3,0.6
				C455.8,299.8,456.2,300.5,456.3,301.3z M464.7,290.1c0.1,0.8-0.1,1.6-0.6,2.2c-0.5,0.7-1.2,1.1-2,1.2c-0.8,0.2-1.6,0-2.3-0.5
				c-0.7-0.5-1.1-1.3-1.2-2.1c-0.1-0.8,0.1-1.6,0.6-2.3c0.5-0.6,1.2-1.1,2-1.2c0.8-0.1,1.6,0.1,2.3,0.6
				C464.2,288.5,464.6,289.3,464.7,290.1z"/>
		</g>
	</g>
</g>
<g id="Layer_2">
</g>
</svg>
