<svg id="Layer_1" data-name="Layer 1" xmlns="http://www.w3.org/2000/svg" viewBox="0 0 1205.85 471.95"><defs><style>.cls-1{fill:#fff;stroke:#1414ef;stroke-miterlimit:10;stroke-width:1.2px;}</style></defs><title>title</title><path class="cls-1" d="M25.48,151.31q-1.55-11.71-3.73-16.19-1-1.46-5.86-2.3a26.45,26.45,0,0,0-7.22-.54q-.78.1-1.17-2.82c-.28-2.08-.3-3.27-.07-3.56q1-.13,10.91-.85t15.2-1.41q1.56-.21,24.82-4.47a10.14,10.14,0,0,1,1,3q.44,3.32-.34,3.42a32.15,32.15,0,0,0-6.82,2.49q-5.06,2.26-5.27,3.67-.76,6.26.71,17.38l9.69,73.37a73,73,0,0,0,4.08,17.33q.57,1.32,5.74,2.12a30.16,30.16,0,0,0,6.93.57q.78-.1,1.27,3.6a8.71,8.71,0,0,1,0,2.78q-23.57,1.92-24.94,2.1-3.91.52-8.17,1.28t-9.4,1.74l-8.23,1.58A3.84,3.84,0,0,1,23.43,253q-.49-3.7.29-3.81a31.38,31.38,0,0,0,7.14-2.33q4.8-2,5.17-3.66.76-6.25-.6-16.6Z"/><path class="cls-1" d="M119.4,154.39a33.84,33.84,0,0,1,14.61.85q1-.13.56-3.25l-2.42-18.34a68.81,68.81,0,0,0-2.92-13.12q-1.39-3-10.56-1.78l-1.56.21q-1.17.16-1.58-3t.76-3.28q5.78-1.36,11.21-3.07t8.91-3.16q3.48-1.45,6-2.78l3.81-2a10,10,0,0,1,1.5-.69l.39-.05a2.12,2.12,0,0,1,1.7.87,3.56,3.56,0,0,1,1.05,1.95,75.47,75.47,0,0,0,.47,18.6l11.34,85.86a72.14,72.14,0,0,0,3.08,14.29,2.9,2.9,0,0,0,2.23,1.89,12,12,0,0,0,3.84.49c1.31,0,2.57-.11,3.74-.2l2-.16q.44.34.7,2.29.52,3.91-.66,4.06-2.71.56-6.82,1.7t-8,2.35q-3.91,1.21-7.43,2.37T147.39,240q-1.17.15-1.61-3.16l-.44-3.32a.88.88,0,0,0-.4-.74c-.21-.1-.38-.08-.49.06a32.85,32.85,0,0,1-19.34,9.9q-15.81,2.09-29-8T80.51,207.17a46.16,46.16,0,0,1,9-34.84Q101.05,156.81,119.4,154.39Zm-.52,9.6a17.23,17.23,0,0,0-14.45,10.84q-4.11,9.48-2.15,24.31,2.19,16.59,9.46,25.06a19.33,19.33,0,0,0,18.2,7q6.63-.88,10.28-4.83a10.91,10.91,0,0,0,3-9.23l-5.41-41a13.66,13.66,0,0,0-1.22-4,18.39,18.39,0,0,0-2.95-4.28,12.58,12.58,0,0,0-5.81-3.4A20.91,20.91,0,0,0,118.88,164Z"/><path class="cls-1" d="M217,141.89a36.5,36.5,0,0,1,16.87,1.45A31.18,31.18,0,0,1,246.42,151a45.81,45.81,0,0,1,7.76,10.69,33.92,33.92,0,0,1,3.65,11.13q.57,4.29-.75,5.56t-5.81,1.86l-46.64,6.16c-.91.12-1.31.57-1.21,1.35a38.27,38.27,0,0,0,4.34,13.32A27.08,27.08,0,0,0,218,211.45a23.17,23.17,0,0,0,15.38,2.93,53.69,53.69,0,0,0,5.62-1,29.38,29.38,0,0,0,4.95-1.65q2.25-1,3.93-1.81a16.89,16.89,0,0,0,3.38-2.23l2.42-2q.71-.59,3.55-3.15a3.23,3.23,0,0,1,1.13,1,3.81,3.81,0,0,1,.84,1.87,6,6,0,0,1-.68,3.86q-2.23,5.65-10.12,12.06a36.51,36.51,0,0,1-18.62,7.82q-17,2.24-30.93-8.72a42.45,42.45,0,0,1-16.33-28.92q-2.6-19.71,7.19-33.51T217,141.89Zm-.18,9.16a13.92,13.92,0,0,0-8,3.84,18.57,18.57,0,0,0-4.78,7.38,37.59,37.59,0,0,0-1.86,7.69,24,24,0,0,0-.12,5.87q.18,1.37,1.35,1.21L235,172.87q1.75-.23,1.37-3.16-.9-6.83-6.42-13.25T216.84,151Z"/><path class="cls-1" d="M325.91,127.51q25.17-3.33,30.46,36.68l2.45,18.54q1.57,11.9,3.69,17.38.57,1.32,5.74,2.12a30.16,30.16,0,0,0,6.93.57c.39-.05.74.86,1.06,2.74a11.13,11.13,0,0,1,.21,3.84q-1.2,0-10.35.57t-13.64,1.21q-4.68.62-12.9,2.3t-9.95,2.11q-.88-.68-1.27-3.6t.39-3a23.4,23.4,0,0,0,6.35-2.33q4.2-2,4.41-3.46a56.44,56.44,0,0,0-.32-14.45l-2.45-18.54q-2.14-16.2-7.38-22.06t-14.8-4.6A18.21,18.21,0,0,0,304,148.36q-4.23,4-3.72,7.94l4.43,33.56q1.57,11.9,3.69,17.38.57,1.32,5.55,2.15a28.31,28.31,0,0,0,6.53.63q.78-.1,1.25,2.71a11.18,11.18,0,0,1,.21,3.84q-1.59,0-10.35.57t-13.25,1.15q-4.68.62-13.48,2.38t-10.34,2.16c-.59-.45-1-1.65-1.27-3.6s-.13-3,.39-3a27.48,27.48,0,0,0,6.93-2.4q4.58-2.09,4.8-3.51a64.3,64.3,0,0,0-.52-14.43l-4.2-31.81q-1.21-9.17-4.77-12.08a9.49,9.49,0,0,0-4.78-2.35,22.49,22.49,0,0,0-4.84-.55q-1.88.05-1.93-.34-.75-5.66.2-6,8.87-2,30.64-10a1.24,1.24,0,0,1,.45-.36,1.86,1.86,0,0,1,.57-.17l.49-.06c.52-.07,1,.33,1.55,1.19a6,6,0,0,1,.87,2.07,66.94,66.94,0,0,0,.15,7.13,1.55,1.55,0,0,0,.32.95,2.89,2.89,0,0,0,.9-.71A43.62,43.62,0,0,1,311.44,133,34.44,34.44,0,0,1,325.91,127.51Z"/><path class="cls-1" d="M389.18,133l-11.9,1.57q-1.37.18-2-4.89a4.86,4.86,0,0,1,0-1.78,55.09,55.09,0,0,0,13.66-12.33q2.2-2.87,4.8-6.49t6-9.23a14,14,0,0,1,3.77,0q1.82.26,1.9.84l2.53,19.12q5.07-.67,14.16-1.77l9.67-1.18q1.56-.21,1.79,1.55a19.09,19.09,0,0,1-.82,8.84l-23.42,3.09,6.21,47q1,7.81,4.89,11.46a11.24,11.24,0,0,0,9.71,2.89,18.61,18.61,0,0,0,4-1,21,21,0,0,0,3.37-1.54q1.29-.77,2.38-1.51a6.21,6.21,0,0,1,1.29-.77q.75-.29,2,1.52c.82,1.22,1.19,2,1.12,2.43q-.81,2.89-7.46,7.44a31,31,0,0,1-13.47,5.45,24.82,24.82,0,0,1-18.13-4.26q-8-5.59-9.79-19.26Z"/><path class="cls-1" d="M486.82,165.82q1.57,11.9,3.88,17.36.57,1.32,5.64,2.13a29,29,0,0,0,6.83.59q.78-.1,1.25,2.71a11.23,11.23,0,0,1,.21,3.84q-1.39,0-10.54.6t-13.45,1.18q-4.88.64-13.68,2.4t-10.14,2.13c-.59-.45-1-1.65-1.27-3.6s-.13-3,.39-3a28.53,28.53,0,0,0,6.83-2.39q4.68-2.11,4.89-3.52a64.31,64.31,0,0,0-.52-14.43L463,140q-1.21-9.17-4.77-12.08a10.93,10.93,0,0,0-4.87-2.33,20.71,20.71,0,0,0-4.84-.55q-2,.07-2-.33-.75-5.66.4-6a151.05,151.05,0,0,0,15.5-4.43,154.52,154.52,0,0,0,15-5.55,11.63,11.63,0,0,0,1.51-.6c.65-.09,1.23.3,1.74,1.16a3.62,3.62,0,0,1,.67,2.1,168.8,168.8,0,0,0,.66,17Zm-31.08-79a12,12,0,0,1-4.65-8.12,12.2,12.2,0,0,1,24.2-3.2,12,12,0,0,1-2.38,9.05,12.12,12.12,0,0,1-17.17,2.27Z"/><path class="cls-1" d="M516,116.3l-11.9,1.57q-1.37.18-2-4.89a4.9,4.9,0,0,1,0-1.78A55.08,55.08,0,0,0,515.7,98.87q2.2-2.87,4.8-6.49t6-9.23a14,14,0,0,1,3.77,0q1.82.26,1.9.84l2.53,19.12q5.07-.67,14.16-1.77l9.67-1.18q1.56-.21,1.79,1.55a19.1,19.1,0,0,1-.82,8.84l-23.42,3.09,6.21,47q1,7.81,4.89,11.47a11.25,11.25,0,0,0,9.71,2.89,18.6,18.6,0,0,0,4-1,20.77,20.77,0,0,0,3.37-1.54c.86-.51,1.65-1,2.38-1.51a6.19,6.19,0,0,1,1.29-.77q.75-.29,2,1.52c.82,1.22,1.19,2,1.12,2.43q-.81,2.89-7.46,7.44A31,31,0,0,1,550.18,187,24.82,24.82,0,0,1,532,182.77q-8-5.59-9.79-19.26Z"/><path class="cls-1" d="M592.33,94.3q4.29-.57,12.22-2.21t9.88-1.9a13.3,13.3,0,0,1,.85,3.46q.36,2.73-.42,2.83a21.52,21.52,0,0,0-6,2.28q-4,2-4,3.8l.15,1.17q.8,3.07,24,42.09,1.09-3.72,5.07-20.23t4.64-19a18.45,18.45,0,0,0,.37-6.2q-.33-2.53-3.75-4.37t-9.66-1q-.78.1-1.17-2.82c-.22-1.69-.11-2.83.34-3.42q2.34-.31,9.64-.68t12-1q4.1-.54,10-1.91t8.61-1.73a5.62,5.62,0,0,1,1.19,3c.28,2.08.15,3.16-.37,3.23a25,25,0,0,0-7.65,3q-4.91,2.64-6,6.74l-24.32,91q-8.34,30.09-25.31,32.33-5.08.67-8.17-1.7a9.2,9.2,0,0,1-.85-14q20.29-2.68,24.62-19.53,3.14-12.33,3.52-14L584.61,111a25.65,25.65,0,0,0-2.94-4.18,11.84,11.84,0,0,0-6.34-3.63,18.63,18.63,0,0,0-6.54-.63q-.78.1-1.14-2.63-.41-3.12.12-3.59,1.17-.16,10.52-.79T592.33,94.3Z"/><path class="cls-1" d="M755.21,70.8q12.1-1.6,19,3.95t8.92,21l5.08,38.44a9,9,0,0,0,2.54,5.72,5.91,5.91,0,0,0,5,1.43q2.93-.39,6.3-3.41c.82.16,1.3.82,1.46,2a11.7,11.7,0,0,1-.4,6,48.67,48.67,0,0,1-7.16,5.91,20.51,20.51,0,0,1-9,3.77,14.37,14.37,0,0,1-9.22-2.16,16.14,16.14,0,0,1-6.61-6.47c-.11.15-.55.64-1.29,1.46s-1.81,1.86-3.17,3.1a58.18,58.18,0,0,1-4.66,3.79,31.48,31.48,0,0,1-6.29,3.51A28.58,28.58,0,0,1,748,160.9q-9.76,1.29-16.61-3.27t-8.09-13.92a18.14,18.14,0,0,1,1.08-9.08,23.48,23.48,0,0,1,4.48-7.44,40.36,40.36,0,0,1,7.71-6.28,80.83,80.83,0,0,1,8.57-5q3.64-1.77,9.36-4.31t8-3.63a3.09,3.09,0,0,0,1.34-3.35l-1.42-10.73q-.9-6.83-4.54-10.32a10.28,10.28,0,0,0-8.9-2.79q-5.86.77-8.7,4.82t-2,10.68a6.38,6.38,0,0,1-2.17,6.14,12.23,12.23,0,0,1-6.39,2.73q-7.22,1-10.77-3.34-1.24-9.37,10.46-19.25A49.37,49.37,0,0,1,755.21,70.8Zm1.12,76.09A15.27,15.27,0,0,0,765,143q3.44-3.23,3-6.75l-2.63-19.9q-1.29.77-5.5,2.71t-6.42,3.23a53.66,53.66,0,0,0-5.1,3.45,11.85,11.85,0,0,0-4,4.9,10.85,10.85,0,0,0-.74,5.66q.82,6.25,4.33,8.76A11.33,11.33,0,0,0,756.32,146.9Z"/><path class="cls-1" d="M834.21,60.17a83.63,83.63,0,0,1,23.07.33,111.82,111.82,0,0,1,5,21.57q.21,1.56-2.33,1.9-4.29.57-4.89-.94a23.88,23.88,0,0,0-7.29-10.85q-5-4.2-12.44-3.22-5.66.75-8.54,3.71a8.73,8.73,0,0,0-2.27,7.65,11.44,11.44,0,0,0,1.73,4.83,12.26,12.26,0,0,0,4.07,3.73,48.2,48.2,0,0,0,4.71,2.56q2,.93,6,2.39a12.73,12.73,0,0,0,2.08.72l3.13,1.17L849.7,97l3.37,1.44a35.46,35.46,0,0,1,3.71,1.79q1.08.65,3.33,1.94a15.51,15.51,0,0,1,3.29,2.35q1,1.05,2.74,2.72a12.65,12.65,0,0,1,2.51,3.24,37.73,37.73,0,0,1,1.56,3.57,18.24,18.24,0,0,1,1,4.13q1.63,12.29-6.9,20.67t-22,10.15a65.76,65.76,0,0,1-25.89-2.14,78.9,78.9,0,0,1-3.38-10.57,96.46,96.46,0,0,1-2.46-11.09,4.18,4.18,0,0,1,2.6-1.34q4.49-.59,4.89.94A21.73,21.73,0,0,0,827.58,137a21,21,0,0,0,14,3.21,14.3,14.3,0,0,0,8.62-3.92q3.15-3.19,2.46-8.46a12.91,12.91,0,0,0-1-3.55,9.64,9.64,0,0,0-2.29-3.07l-2.61-2.44a14.32,14.32,0,0,0-3.86-2.17q-2.84-1.21-4.2-1.73T833.54,113q-3.86-1.38-5.32-2-9.6-3.5-15.23-8.61a21,21,0,0,1-6.72-13.31q-1.57-11.9,6.94-19.58A38,38,0,0,1,834.21,60.17Z"/><path class="cls-1" d="M383.23,290.87q8.37-2.22,29.31-8.5t31.78-9.16q2.27,5.51,7.26,15.08T457,298.76q-.7,1.21-3.74,2c-1.4.37-2.4.16-3-.62q-10.77-15.26-28.85-10.46l-9.89,2.63q-14.08,3.74-13.8,6.31a81.17,81.17,0,0,0,3,15.71l7.93,29.87q.3,1.14,8.67-1.08l9.89-2.63.76-.2q11-2.93,12.87-4.44t1.46-7.52q-.19-3-.12-5.06c-.11-.92.79-1.63,2.69-2.14s3.06-.47,3.87,0l9.55,36q-.56,1-3.41,1.72-2.48.66-3.45-.71a62,62,0,0,0-4.4-7,11.57,11.57,0,0,0-2-2.31l-1.92-.71q-2.88-.86-17.9,3.13-13.7,3.64-13.29,5.16l7.83,29.49q2.78,10.46,5.8,15,1.61,2.22,13.59-1l7-1.87q14.84-3.94,21.58-10,2.63-2.33,5.08-8.48a41.49,41.49,0,0,0,2.81-13.17q-.11-1.19,2.36-1.85,4.18-1.11,5.63-.27-.12,1.86-.69,8.53T482,382.85q-.31,3.44-.43,8.36a54.1,54.1,0,0,0,.26,7.87q-7.61,2-31.64,7.79t-33.63,8.73l-25.1,7.48q-.72-.42-1.38-2.89-.86-3.23-.29-3.39a32.44,32.44,0,0,0,6.9-3.16q4.42-2.5,4.73-4.41.27-4.35-3.27-17.67l-19.1-71.91q-3-11.42-5.47-15.25-1.12-1.94-6.24-2a31.05,31.05,0,0,0-8,.69q-.76.2-1.52-2.65-.71-2.66-.15-3.63Q370.49,294.25,383.23,290.87Z"/><path class="cls-1" d="M552.89,302.41q-3.84-4.48-14.68-1.6-.57.15-1.28-2.51t-.34-3.58q2.66-.71,9.38-1.88t11-2.31q4.28-1.14,11-3.53t9.17-3a5.72,5.72,0,0,1,1.38,2.89q.81,3-.33,3.35a23.44,23.44,0,0,0-6.94,3.78q-4.28,3.07-5,7.14l-13.93,75.59a13.3,13.3,0,0,1-1.61,3.89,5,5,0,0,1-2.78,2.57q-1.9.51-2.59-.53-6.08-7.55-16.66-20.93t-18.12-22.58q-7.54-9.2-17.11-20.71-3.7-4.72-13.78-2-.76.2-1.57-2.84-.61-2.28,0-3.25,1.71-.45,10.23-2.11t13.09-2.87q4.56-1.21,13-4.06t9.74-3.2q.77.61,1.38,3.3t-.15,2.89a28.92,28.92,0,0,0-6.45,2.93q-4,2.28-3.47,4.18a3.67,3.67,0,0,0,.89,1.8l30.46,38.75,7.12-42.22Q554.78,304.15,552.89,302.41Z"/><path class="cls-1" d="M629,269.35a43.4,43.4,0,0,1,33.84,4.35,42.18,42.18,0,0,1,20.66,26.79,42.83,42.83,0,0,1-4.43,33.56q-9.13,15.87-27.2,20.67a43.11,43.11,0,0,1-34-4.42,44.31,44.31,0,0,1-16.17-60.47Q611,274.16,629,269.35Zm-.1,9.6q-8.94,2.38-11.59,12.35t.54,22q4.09,15.41,13.31,25.18t20.25,6.84q8.94-2.38,11.66-12.47t-.42-21.89a67.6,67.6,0,0,0-7.35-17.7,34.68,34.68,0,0,0-11.75-12A18.25,18.25,0,0,0,628.93,279Z"/><path class="cls-1" d="M730.65,303q3.13,11.8,5.88,16.77.73,1.23,5.44,1.71a21.52,21.52,0,0,0,6.23.07c.38-.1.84.73,1.37,2.49a10.76,10.76,0,0,1,.68,3.69q-2.72.52-7.26,1.42t-8.21,1.67q-3.67.77-6.9,1.63-3.62,1-7.18,2.11t-7.87,2.6l-7.1,2.4q-1-.56-1.7-3.32c-.49-1.84-.48-2.83,0-3A21,21,0,0,0,710,330q3.85-2.75,3.88-4.19a65.17,65.17,0,0,0-2.22-14.48l-21-79.14a68.55,68.55,0,0,0-4.58-12.63q-1.76-2.79-10.32-.52l-1.9.51q-1.14.3-1.75-2-.81-3,.33-3.35,5.74-2.14,10.82-4.5t8.34-4.25q3.27-1.88,5.61-3.42t3.71-2.51l1.18-.92.38-.1a2.35,2.35,0,0,1,1.92.71,6.06,6.06,0,0,1,1.55,1.62,62.24,62.24,0,0,0,2.47,18.49Z"/><path class="cls-1" d="M827.2,238.71l10,37.67q2.43,9.13,5.06,12.91a4.1,4.1,0,0,0,2.59.94,15.36,15.36,0,0,0,3.53-.12,29.4,29.4,0,0,0,3.19-.64,3.65,3.65,0,0,1,1.67-.24c.54,0,.95.5,1.22,1.51a15.19,15.19,0,0,1,.3,2.67c.06,1.27-.16,2-.66,2.11a45.29,45.29,0,0,0-6.58,2.46q-3.91,1.76-7.54,3.43t-6.85,3.35q-3.23,1.67-7.21,3.54-1.33.35-2.14-2.69l-2.22-8.37c-.3-.6-.57-.87-.82-.8a43.9,43.9,0,0,1-9.33,11.64,33,33,0,0,1-14,7.8,20.63,20.63,0,0,1-12.18-.23,23.73,23.73,0,0,1-9.83-6.35,42.22,42.22,0,0,1-6.93-10A60.11,60.11,0,0,1,764,287.66l-5.66-21.31Q756,257.42,752.1,255A11,11,0,0,0,747,253.3a20.73,20.73,0,0,0-4.87.07q-2,.32-2.05-.06-1.46-5.52-.57-6a148.3,148.3,0,0,0,15-6.43,154.09,154.09,0,0,0,14.12-7.42,3.2,3.2,0,0,0,.71-.39,3.28,3.28,0,0,1,.71-.39c.63-.17,1.23.15,1.78,1a7.06,7.06,0,0,1,1,2q1.73,13.39,2.74,17.2l6.06,22.83q3.94,14.84,9.84,20.19t15.22,2.88A15.46,15.46,0,0,0,816,292.3q3.2-4.82,2.29-8.25l-8.34-31.39q-2.38-8.94-6.28-11.37a9.49,9.49,0,0,0-5-1.72,22.24,22.24,0,0,0-5,.1q-2,.32-2.05-.06-1.46-5.52-.37-6a150.86,150.86,0,0,0,14.8-6.38,154.09,154.09,0,0,0,14.12-7.42,11.37,11.37,0,0,0,1.42-.78c.63-.17,1.26.14,1.88.93a3.64,3.64,0,0,1,.94,2Q826.28,235.28,827.2,238.71Z"/><path class="cls-1" d="M858.76,222.58l-11.6,3.08q-1.33.35-2.65-4.59a4.9,4.9,0,0,1-.27-1.76,55,55,0,0,0,12-14q1.81-3.13,3.93-7.05t4.79-9.93a14,14,0,0,1,3.74-.48q1.84,0,2,.59l5,18.64q4.95-1.31,13.82-3.57l9.44-2.41q1.52-.4,2,1.31a19.13,19.13,0,0,1,.32,8.88l-22.83,6.06,12.18,45.85q2,7.61,6.32,10.75a11.25,11.25,0,0,0,10,1.62,18.68,18.68,0,0,0,3.87-1.54,21,21,0,0,0,3.14-2c.79-.62,1.51-1.22,2.17-1.8a6.22,6.22,0,0,1,1.18-.92q.71-.39,2.17,1.26t1.42,2.27q-.43,3-6.44,8.33a31,31,0,0,1-12.67,7.13,24.82,24.82,0,0,1-18.53-1.9q-8.64-4.53-12.17-17.84Z"/><path class="cls-1" d="M918.86,168.23a12,12,0,0,1-5.65-7.46,12.1,12.1,0,0,1,8.69-14.83,12.1,12.1,0,0,1,14.9,8.57,12,12,0,0,1-1.2,9.28,12.12,12.12,0,0,1-16.74,4.45Zm40.93,74.36q3.08,11.61,6.07,16.72.74,1.23,5.87,1.39a29,29,0,0,0,6.85-.29c.51-.13,1,.71,1.59,2.53a11.13,11.13,0,0,1,.7,3.79q-1.39.16-10.38,1.94t-13.18,2.89q-4.75,1.26-13.26,4.13t-9.79,3.41q-1-.56-1.72-3.41t0-3.06a28.58,28.58,0,0,0,6.47-3.25q4.37-2.69,4.4-4.12A64.44,64.44,0,0,0,941.05,251l-8.24-31q-2.38-8.94-6.28-11.37a10.93,10.93,0,0,0-5.13-1.69,20.72,20.72,0,0,0-4.87.07q-2,.32-2.05-.06-1.46-5.52-.37-6a151.05,151.05,0,0,0,14.8-6.38A154.2,154.2,0,0,0,943,187.16a11.57,11.57,0,0,0,1.42-.78q.95-.25,1.88.93a3.64,3.64,0,0,1,.94,2,168.48,168.48,0,0,0,2.82,16.76Z"/><path class="cls-1" d="M1010.83,167.93a43.39,43.39,0,0,1,33.84,4.35,42.17,42.17,0,0,1,20.66,26.79,42.83,42.83,0,0,1-4.42,33.56q-9.13,15.87-27.2,20.67a43.11,43.11,0,0,1-34-4.42,44.31,44.31,0,0,1-16.17-60.47Q992.75,172.73,1010.83,167.93Zm-.1,9.6q-8.94,2.38-11.59,12.35t.54,22q4.09,15.41,13.31,25.18t20.25,6.84q8.94-2.38,11.66-12.47t-.42-21.89a67.53,67.53,0,0,0-7.35-17.7,34.69,34.69,0,0,0-11.76-12A18.25,18.25,0,0,0,1010.73,177.52Z"/><path class="cls-1" d="M1126.49,137.2q24.54-6.52,34.9,32.48l4.8,18.07q3.08,11.61,5.88,16.77.73,1.23,6,1.37a30.17,30.17,0,0,0,6.94-.32c.38-.1.85.76,1.4,2.58a11.17,11.17,0,0,1,.7,3.79q-1.19.11-10.19,1.89t-13.37,2.94q-4.57,1.21-12.5,3.93t-9.6,3.36q-1-.56-1.72-3.41t0-3.06a23.5,23.5,0,0,0,6-3.12q3.9-2.56,3.93-4a56.49,56.49,0,0,0-2.17-14.29l-4.8-18.07q-4.2-15.79-10.14-20.93t-15.27-2.67a18.2,18.2,0,0,0-9.77,6.16q-3.68,4.54-2.67,8.35l8.69,32.72q3.08,11.61,5.88,16.77.73,1.23,5.77,1.42a28.35,28.35,0,0,0,6.56-.22c.51-.13,1,.71,1.59,2.53a11.19,11.19,0,0,1,.7,3.79q-1.58.21-10.19,1.89t-13,2.84q-4.57,1.21-13.07,4.08t-10,3.46q-1-.56-1.72-3.41t0-3.06a27.55,27.55,0,0,0,6.57-3.27q4.28-2.66,4.31-4.1a64.34,64.34,0,0,0-2.36-14.24l-8.24-31q-2.38-8.94-6.28-11.37a9.48,9.48,0,0,0-5-1.72,22.52,22.52,0,0,0-4.87.07c-1.24.2-1.89.16-2-.09q-1.46-5.52-.57-6,8.55-3.08,29.11-13.84a1.27,1.27,0,0,1,.4-.41,1.88,1.88,0,0,1,.54-.25l.48-.13c.51-.13,1.07.19,1.69,1a6,6,0,0,1,1.13,1.94,67.12,67.12,0,0,0,1.06,7.05c.13.51.28.81.44.9s.39-.31.8-.82a43.6,43.6,0,0,1,9.58-11.1A34.45,34.45,0,0,1,1126.49,137.2Z"/></svg>