<svg id="Layer_1" data-name="Layer 1" xmlns="http://www.w3.org/2000/svg" viewBox="0 0 1078.95 425.2"><defs><style>.cls-1{fill:#1928eb;}.cls-2{fill:#fff;stroke:#1928eb;stroke-miterlimit:10;stroke-width:1.2px;}</style></defs><title>title</title><path class="cls-1" d="M.65,146.34a4.35,4.35,0,0,1,1.87-3.42,6,6,0,0,1,4-1.28,9.61,9.61,0,0,1,1.35.13c.38.07.92.2,1.6.4l1.41.4a24.65,24.65,0,0,1,.17,4.26.3.3,0,0,1-.34.24c-.5,0-.76-.11-.79-.28a4.84,4.84,0,0,0-1.09-2.53A3.13,3.13,0,0,0,6.35,143a2.55,2.55,0,0,0-2,.64,2.71,2.71,0,0,0-.75,1.91,3.11,3.11,0,0,0,.07.79,2,2,0,0,0,.36.75l.45.61a3.3,3.3,0,0,0,.67.62l.67.52q.17.15.81.57a8.23,8.23,0,0,0,.77.48,10.32,10.32,0,0,0,.9.63c.5.32.84.56,1,.7s.48.39.86.74a4,4,0,0,1,.81,1,5.66,5.66,0,0,1,.44,1.13,4.67,4.67,0,0,1,.17,1.46A4.48,4.48,0,0,1,9.72,159a6.38,6.38,0,0,1-4.18,1.28,25.76,25.76,0,0,1-5-1,23.64,23.64,0,0,1-.36-2.51,18.24,18.24,0,0,1-.13-2c0-.15.17-.21.45-.21.48,0,.74.1.79.25a5.29,5.29,0,0,0,.35,1.1,8.05,8.05,0,0,0,.71,1.3,3.63,3.63,0,0,0,1.25,1.15,3.89,3.89,0,0,0,1.82.5,3.09,3.09,0,0,0,2.18-.69A3,3,0,0,0,8.49,156a2.42,2.42,0,0,0-.15-.92,3.23,3.23,0,0,0-.39-.76,4,4,0,0,0-.67-.69c-.29-.25-.54-.44-.74-.58l-.88-.57L4.86,152a2,2,0,0,0-.29-.23l-1.18-.82a13.13,13.13,0,0,1-1-.85,5.47,5.47,0,0,1-.94-1,5.22,5.22,0,0,1-.55-1.18A4.15,4.15,0,0,1,.65,146.34Z"/><path class="cls-1" d="M21.18,148.45a5.58,5.58,0,0,1,3.11,1,5.78,5.78,0,0,1,2.52,5,6.45,6.45,0,0,1-6.72,6.33,6.45,6.45,0,0,1-1.95-.46c-.07,0-.12.13-.12.38l-.07,1.88a10,10,0,0,0,.13,2.49c0,.15.25.3.72.45a4.2,4.2,0,0,0,.94.24c.05,0,.08.14.08.4a2.53,2.53,0,0,1,0,.51l-1.47-.14q-1.28-.13-1.89-.15t-1.95,0l-1.48,0a1,1,0,0,1-.06-.51c0-.27,0-.4.1-.4a3.88,3.88,0,0,0,1-.17c.46-.12.71-.26.77-.4a10,10,0,0,0,.24-2l.39-10.54a2.69,2.69,0,0,0-.37-1.81,1.24,1.24,0,0,0-.59-.42,3.36,3.36,0,0,0-.66-.18q-.27,0-.27-.09c0-.53.08-.81.2-.82a21.3,21.3,0,0,0,4.14-.62l.53-.12c.07,0,.1.2.09.58a1.53,1.53,0,0,1-.07.33,5.56,5.56,0,0,1,1.25-.6A3.93,3.93,0,0,1,21.18,148.45Zm-.72,1.44a2.08,2.08,0,0,0-1.5.47,1.83,1.83,0,0,0-.62,1.39l-.21,5.68a1.7,1.7,0,0,0,.69,1.48,2.68,2.68,0,0,0,1.58.6,2.59,2.59,0,0,0,2.18-1.08,5.33,5.33,0,0,0,1-3.22,7.12,7.12,0,0,0-.75-3.74A2.71,2.71,0,0,0,20.46,149.89Z"/><path class="cls-1" d="M34.48,148.91a5.13,5.13,0,0,1,2.3.6,4.38,4.38,0,0,1,1.55,1.36,6.49,6.49,0,0,1,.82,1.66,4.76,4.76,0,0,1,.24,1.62c0,.41-.09.66-.24.75a1.57,1.57,0,0,1-.85.12l-6.59-.24c-.13,0-.2,0-.2.16a5.35,5.35,0,0,0,.29,1.94A3.8,3.8,0,0,0,33,158.55a3.26,3.26,0,0,0,2.06.77,7.76,7.76,0,0,0,.8,0,4.23,4.23,0,0,0,.72-.11l.58-.16a2.32,2.32,0,0,0,.52-.23l.38-.22.56-.35a.47.47,0,0,1,.13.17.53.53,0,0,1,.07.28.85.85,0,0,1-.18.52,4.51,4.51,0,0,1-1.68,1.43,5.12,5.12,0,0,1-2.76.64,5.59,5.59,0,0,1-4.07-1.93A6,6,0,0,1,28.54,155a6.38,6.38,0,0,1,1.78-4.46A5.35,5.35,0,0,1,34.48,148.91Zm-.24,1.26a2,2,0,0,0-1.2.34,2.62,2.62,0,0,0-.83.91,5.43,5.43,0,0,0-.44,1,3.35,3.35,0,0,0-.15.81q0,.19.16.2l4.47.16c.17,0,.25-.13.26-.41a3.57,3.57,0,0,0-.58-2A2,2,0,0,0,34.24,150.17Z"/><path class="cls-1" d="M46.92,149.37a3.38,3.38,0,0,1,2.53,1,4.41,4.41,0,0,1,.74,3.11L50,158.9a1.25,1.25,0,0,0,.22.85.83.83,0,0,0,.65.31,1.72,1.72,0,0,0,1-.32c.11,0,.16.14.15.31a1.63,1.63,0,0,1-.2.82,6.78,6.78,0,0,1-1.13.65,2.86,2.86,0,0,1-1.34.31,2,2,0,0,1-1.22-.51,2.26,2.26,0,0,1-.76-1l-.21.17c-.12.1-.29.21-.51.35a8.28,8.28,0,0,1-.73.42,4.4,4.4,0,0,1-1,.34,4,4,0,0,1-1.1.11,3.3,3.3,0,0,1-2.22-.84,2.62,2.62,0,0,1-.79-2.11,2.55,2.55,0,0,1,.36-1.23,3.35,3.35,0,0,1,.79-.92,5.72,5.72,0,0,1,1.21-.69,11.29,11.29,0,0,1,1.3-.49l1.39-.38,1.19-.32a.43.43,0,0,0,.26-.43l.06-1.52a2.36,2.36,0,0,0-.39-1.53,1.44,1.44,0,0,0-1.17-.59,1.67,1.67,0,0,0-1.31.46,2.07,2.07,0,0,0-.52,1.43.9.9,0,0,1-.44.8,1.72,1.72,0,0,1-.95.23,1.55,1.55,0,0,1-1.41-.71q0-1.32,1.9-2.42A6.93,6.93,0,0,1,46.92,149.37Zm-1.63,10.54a2.14,2.14,0,0,0,1.3-.34,1.1,1.1,0,0,0,.57-.86l.1-2.81q-.2.08-.82.25c-.42.11-.74.21-1,.29a7.61,7.61,0,0,0-.79.36,1.66,1.66,0,0,0-.67.58,1.52,1.52,0,0,0-.23.76,1.7,1.7,0,0,0,.39,1.31A1.58,1.58,0,0,0,45.29,159.91Z"/><path class="cls-1" d="M65.33,151.89q-.56.31-1.8,1.18a19.55,19.55,0,0,0-2.26,1.85q.77.88,1.93,2.31t1.93,2.34a12.83,12.83,0,0,0,1.06,1.17,3.5,3.5,0,0,0,1,.59,3.33,3.33,0,0,0,.92.25c.07,0,.1.16.09.47a1.55,1.55,0,0,1,0,.38L65,162.18H63.92l-1.19,0-1,0a.75.75,0,0,1-.09-.5c0-.26.05-.38.13-.38a2,2,0,0,0,.64-.1c.24-.07.36-.16.37-.25s0-.05,0-.06l-3.86-4.64-.33.07-.06,1.71a11.21,11.21,0,0,0,.13,2.49c0,.13.28.27.73.43a3.94,3.94,0,0,0,1,.24c.05,0,.08.14.08.4a1.57,1.57,0,0,1-.06.54L58.83,162q-1.27-.13-1.9-.15t-1.92,0l-1.48.06a.8.8,0,0,1-.09-.53c0-.28.05-.41.13-.41a3.83,3.83,0,0,0,1-.17c.46-.12.7-.25.75-.37a9,9,0,0,0,.27-2L56,147a11,11,0,0,0-.07-1.88q-.12-.45-1.42-.49h-.25q-.17,0-.15-.45c0-.29.07-.44.18-.43q.86-.05,1.64-.16c.52-.07.95-.15,1.29-.23s.64-.16.89-.24l.8-.25H59a.3.3,0,0,1,.21.16.75.75,0,0,1,.13.29,8.89,8.89,0,0,0-.43,2.58l-.34,9.21a2.48,2.48,0,0,0,.84-.27q.6-.5,1.29-1l1-.78q.31-.24.63-.52a2.45,2.45,0,0,0,.42-.44.66.66,0,0,0,.11-.33c0-.2-.2-.33-.61-.39a2.75,2.75,0,0,1-.62-.12,1.24,1.24,0,0,1-.07-.49c0-.19,0-.3.12-.31l2.68.1q.74,0,2.93,0a.43.43,0,0,1,.13.31,1.24,1.24,0,0,1,0,.41c0,.13-.08.19-.13.19A3.62,3.62,0,0,0,65.33,151.89Z"/><path class="cls-1" d="M75.2,158.69a10.13,10.13,0,0,0,.13,2.49c0,.13.27.27.73.43a4.13,4.13,0,0,0,.93.24q.11,0,.11.4a1.6,1.6,0,0,1-.06.54l-1.47-.16q-1.28-.13-1.89-.15t-1.95,0l-1.45.06a.81.81,0,0,1-.09-.53c0-.28.05-.41.13-.41a4,4,0,0,0,1-.17c.46-.12.72-.25.76-.37a9.06,9.06,0,0,0,.27-2l.17-4.5a2.62,2.62,0,0,0-.38-1.78,1.54,1.54,0,0,0-.62-.44,2.89,2.89,0,0,0-.66-.19c-.18,0-.27-.06-.27-.09q0-.8.2-.82A21.38,21.38,0,0,0,73,151a21.6,21.6,0,0,0,2.2-.42l.22,0c.09,0,.16.07.21.2a.5.5,0,0,1,0,.3,23.66,23.66,0,0,0-.31,2.36ZM72.76,147a1.68,1.68,0,0,1-.45-1.23,1.71,1.71,0,0,1,3.42.13,1.68,1.68,0,0,1-.54,1.2,1.7,1.7,0,0,1-2.43-.09Z"/><path class="cls-1" d="M88.17,150.89q3.56.13,3.35,5.79l-.1,2.62a11.63,11.63,0,0,0,.1,2.49q0,.2.75.43a4.16,4.16,0,0,0,.94.24q.08,0,.08.4a1.54,1.54,0,0,1-.06.54l-1.44-.16q-1.28-.13-1.91-.15c-.44,0-1.05,0-1.84,0l-1.42.06a.81.81,0,0,1-.09-.53c0-.28.05-.41.13-.41a3.29,3.29,0,0,0,.93-.17c.42-.12.65-.25.69-.37a7.9,7.9,0,0,0,.29-2l.1-2.62a6,6,0,0,0-.5-3.22,2.22,2.22,0,0,0-1.94-1,2.56,2.56,0,0,0-1.56.43,1.33,1.33,0,0,0-.7,1L83.78,159a11.54,11.54,0,0,0,.1,2.49q0,.2.72.43a4,4,0,0,0,.89.24c.07,0,.11.14.11.4a1.54,1.54,0,0,1-.06.54l-1.44-.16q-1.22-.13-1.86-.15t-1.92,0l-1.48.06a.81.81,0,0,1-.09-.53q0-.41.13-.41a3.88,3.88,0,0,0,1-.17c.45-.12.7-.25.75-.37a9,9,0,0,0,.27-2l.17-4.5a2.62,2.62,0,0,0-.38-1.78,1.34,1.34,0,0,0-.61-.44,3.15,3.15,0,0,0-.66-.19c-.17,0-.26-.05-.26-.09q0-.8.17-.82a39.35,39.35,0,0,0,4.47-.66l.07,0H84c.07,0,.13.07.19.2a.83.83,0,0,1,.07.31,9.5,9.5,0,0,0-.15,1c0,.07,0,.12,0,.14a.37.37,0,0,0,.14-.08A6.09,6.09,0,0,1,86,151.3,4.83,4.83,0,0,1,88.17,150.89Z"/><path class="cls-1" d="M100.8,151.41a8.75,8.75,0,0,1,2.28.44,8.5,8.5,0,0,0,2.19.44l1.57.06s.1.12.18.37a1.7,1.7,0,0,1,.12.56c0,.26-.07.38-.18.38l-1.79-.07c-.07,0-.11,0-.11.08s.07.26.22.73a3.88,3.88,0,0,1,.2,1.33,4,4,0,0,1-1.47,2.89,4.73,4.73,0,0,1-3.45,1.18,11.37,11.37,0,0,1-1.71-.17,1.49,1.49,0,0,0-.62.49,1.17,1.17,0,0,0-.3.67.57.57,0,0,0,.24.48,1.86,1.86,0,0,0,.8.3c.36.07.68.12.93.14l1.1.1.41,0a9.76,9.76,0,0,1,4,.91,2.17,2.17,0,0,1,1.21,2.07,4.34,4.34,0,0,1-2.12,3.51,7.53,7.53,0,0,1-4.72,1.34,7.18,7.18,0,0,1-3.49-.9,2.48,2.48,0,0,1-1.42-2.32,2.15,2.15,0,0,1,.84-1.51,4.56,4.56,0,0,1,1.73-1,3.14,3.14,0,0,1-1.29-.89,2,2,0,0,1-.55-1.47q0-1.19,2.13-2.38a3.66,3.66,0,0,1-1.44-1.48,4.06,4.06,0,0,1-.61-2.27,3.72,3.72,0,0,1,1.55-3A5.49,5.49,0,0,1,100.8,151.41ZM104.08,166q0-1-1.35-1.33a17.52,17.52,0,0,0-3.73-.46l-.14,0-.14.08c-.24.08-.43.15-.56.21a2.4,2.4,0,0,0-.45.29,1.33,1.33,0,0,0-.39.47,1.61,1.61,0,0,0-.15.66,1.93,1.93,0,0,0,1,1.69,4.3,4.3,0,0,0,2.32.75,4.17,4.17,0,0,0,2.55-.62A2.15,2.15,0,0,0,104.08,166Zm-5.52-10.64a4.37,4.37,0,0,0,.47,2.29,1.72,1.72,0,0,0,1.51,1,1.64,1.64,0,0,0,1.53-.73,3.65,3.65,0,0,0,.56-1.93,4.54,4.54,0,0,0-.46-2.39,1.77,1.77,0,0,0-1.57-1,1.56,1.56,0,0,0-1.49.8A4,4,0,0,0,98.56,155.33Z"/><path class="cls-1" d="M132.23,154.61a.79.79,0,0,0-.2-.57,1.21,1.21,0,0,0-.55-.35,4.86,4.86,0,0,0-.63-.16,3.93,3.93,0,0,0-.56-.06h-.11c-.07,0-.11-.14-.11-.42s0-.44.09-.49q.36,0,1.46.14t1.76.15q.58,0,1.48,0t1.31,0a1.75,1.75,0,0,1,0,.47c0,.28-.05.41-.12.41a3.14,3.14,0,0,0-1.1.3,1.69,1.69,0,0,0-1,.81l-4.44,9.58a1.09,1.09,0,0,1-.39.39.94.94,0,0,1-.54.16.35.35,0,0,1-.35-.21l-3.08-7.74L122,164a1.51,1.51,0,0,1-.33.37.83.83,0,0,1-.6.2.41.41,0,0,1-.38-.21q-.58-1.46-1.37-3.54t-1.45-3.69q-.66-1.6-1.53-3.48a1.27,1.27,0,0,0-.7-.58,2.65,2.65,0,0,0-.87-.23c-.07,0-.11-.15-.09-.45s.05-.41.13-.46.65.05,1.39.13,1.32.13,1.75.15,1,0,1.88,0l1.44,0a1.52,1.52,0,0,1,0,.5c0,.24,0,.37-.1.38a3.26,3.26,0,0,0-1,.16c-.4.11-.61.3-.61.56q0,.06,2.52,6.44.33-.76.77-1.73l.66-1.47.45-1c.15-.34.26-.6.32-.78a1.46,1.46,0,0,0,.1-.34,2,2,0,0,0-.32-1.12,1.32,1.32,0,0,0-.59-.46,2.19,2.19,0,0,0-1-.2c-.07,0-.11-.14-.1-.4s.05-.43.13-.48.66.05,1.36.13,1.28.13,1.72.15,1,0,1.8,0l1.41,0a1.33,1.33,0,0,1,0,.51c0,.27-.06.4-.11.4q-1.41-.05-1.44.91a44.15,44.15,0,0,0,2.37,6.22q.48-1.14,1.19-2.68t1-2.28A3.64,3.64,0,0,0,132.23,154.61Z"/><path class="cls-1" d="M142.38,161.17a10.13,10.13,0,0,0,.13,2.49q0,.2.73.43a4,4,0,0,0,.93.24c.07,0,.11.14.11.4a1.59,1.59,0,0,1-.06.54l-1.47-.16q-1.28-.13-1.89-.15t-1.95,0l-1.45.06a.81.81,0,0,1-.09-.53c0-.28.05-.41.13-.41a4,4,0,0,0,1-.17q.7-.18.76-.37a9.06,9.06,0,0,0,.27-2l.17-4.5a2.63,2.63,0,0,0-.37-1.78,1.53,1.53,0,0,0-.62-.44,2.83,2.83,0,0,0-.66-.19c-.18,0-.27-.06-.27-.09q0-.8.2-.82a29.29,29.29,0,0,0,4.44-.67l.22,0c.09,0,.16.07.21.2a.5.5,0,0,1,0,.3,23.66,23.66,0,0,0-.31,2.36Zm-2.44-11.65a1.68,1.68,0,0,1-.45-1.23,1.71,1.71,0,0,1,3.42.13,1.69,1.69,0,0,1-.54,1.2,1.7,1.7,0,0,1-2.43-.09Z"/><path class="cls-1" d="M147.86,155l-1.68-.06c-.13,0-.18-.25-.17-.72a.66.66,0,0,1,0-.25,7.77,7.77,0,0,0,2.18-1.38l.82-.78q.45-.44,1-1.13a1.92,1.92,0,0,1,.52.09c.16.05.25.11.24.16l-.1,2.7,2,.09,1.36.06c.15,0,.22.09.21.26a2.69,2.69,0,0,1-.32,1.2l-3.31-.12-.24,6.65a2.61,2.61,0,0,0,.41,1.7,1.57,1.57,0,0,0,1.27.63,2.57,2.57,0,0,0,.58,0,2.94,2.94,0,0,0,.5-.13l.36-.15.2-.08c.07,0,.15.07.24.26a.65.65,0,0,1,.1.36,2.54,2.54,0,0,1-1.21.85,4.35,4.35,0,0,1-2,.44,3.48,3.48,0,0,1-2.41-1,3.69,3.69,0,0,1-.9-2.89Z"/><path class="cls-1" d="M165.29,153.72q3.53.13,3.33,5.56l-.1,2.84a10.13,10.13,0,0,0,.13,2.49c0,.13.25.27.72.43a4.18,4.18,0,0,0,.94.24c.06,0,.08.14.08.4a2.91,2.91,0,0,1,0,.54l-1.47-.17q-1.28-.13-1.89-.15c-.46,0-1.08,0-1.87,0l-1.45.06a1,1,0,0,1-.06-.53c0-.28,0-.41.1-.41a3.29,3.29,0,0,0,1-.17c.42-.12.66-.25.72-.37a10.43,10.43,0,0,0,.24-2l.1-2.7a5.77,5.77,0,0,0-.5-3.18,2.26,2.26,0,0,0-1.94-.94,2.64,2.64,0,0,0-1.53.41,1.3,1.3,0,0,0-.73,1l-.17,4.74a10.14,10.14,0,0,0,.13,2.49c0,.13.27.27.72.43a3.88,3.88,0,0,0,.92.24c.06,0,.08.14.08.4a1.6,1.6,0,0,1-.06.54l-1.44-.16q-1.22-.13-1.86-.15t-1.92,0l-1.48.06a.8.8,0,0,1-.09-.53c0-.28.05-.41.13-.41a3.87,3.87,0,0,0,1-.17c.46-.12.7-.25.75-.37a8.89,8.89,0,0,0,.27-2l.42-11.47a11,11,0,0,0-.07-1.88q-.12-.45-1.42-.49h-.25c-.11,0-.16-.15-.15-.45s.07-.44.18-.44q.86-.05,1.64-.16c.52-.07.95-.15,1.29-.23s.64-.16.89-.24l.8-.25h.05c.07,0,.15.06.21.16a.74.74,0,0,1,.13.29,8.89,8.89,0,0,0-.43,2.58l-.21,5.57c0,.11,0,.17.1.17s.06,0,.11-.08a5.25,5.25,0,0,1,1.74-1.14A5.08,5.08,0,0,1,165.29,153.72Z"/><path class="cls-1" d="M186.4,148.48a8,8,0,0,1,1.5.21,8.13,8.13,0,0,1,1.61.57,6.54,6.54,0,0,1,1.47.94,3.88,3.88,0,0,1,1,1.42,4.38,4.38,0,0,1,.34,1.95,4.7,4.7,0,0,1-1.07,2.78,5.34,5.34,0,0,1-2.41,1.79c-.15.05-.19.14-.12.27a32.39,32.39,0,0,0,2.92,4.8,12,12,0,0,0,2,2.1,3.52,3.52,0,0,0,2,.92.79.79,0,0,1,.09.45,1.11,1.11,0,0,1-.13.49,5.44,5.44,0,0,1-.86,0,9.18,9.18,0,0,1-2.54-.42,5.88,5.88,0,0,1-2-1.05,10.63,10.63,0,0,1-1.35-1.3,11.87,11.87,0,0,1-1.1-1.59q-.37-.57-.83-1.33l-.72-1.17c-.17-.27-.35-.56-.56-.86a5.5,5.5,0,0,0-.54-.68,1.41,1.41,0,0,0-.44-.32,1.71,1.71,0,0,0-.66-.11c-.29,0-.45.14-.46.45l-.14,3.89a8.62,8.62,0,0,0,.13,2.35c0,.22.35.41.9.57a5.79,5.79,0,0,0,1.22.25q.11,0,.09.47a1.52,1.52,0,0,1-.07.47q-3-.28-3.91-.31t-1.67,0h-1.48l-.55,0a.94.94,0,0,1-.07-.5c0-.29,0-.44.1-.44a4.8,4.8,0,0,0,1.07-.14c.47-.1.75-.23.83-.4a10.91,10.91,0,0,0,.26-2.5l.38-10.42a10.75,10.75,0,0,0-.08-2.27q-.07-.22-.79-.49a4.06,4.06,0,0,0-1.05-.27c-.07,0-.1-.14-.09-.42s.05-.44.13-.49q2.92.19,3.67.22l1.92,0Zm-.49,1.36a4.48,4.48,0,0,0-1.61.13q-.31.13-.44,2.86l-.12,3.17a.78.78,0,0,0,.44.82,3.49,3.49,0,0,0,1.29.24l.72,0a2.38,2.38,0,0,0,1.87-.9,3.77,3.77,0,0,0,.9-2.48Q189.1,150,185.9,149.84Z"/><path class="cls-1" d="M203.94,155.15a6.08,6.08,0,0,1,4.36,2,5.91,5.91,0,0,1,1.67,4.44,6.29,6.29,0,1,1-6-6.41Zm-.41,1.28a2.22,2.22,0,0,0-2.06,1.18,6,6,0,0,0-.83,3,8,8,0,0,0,.75,3.92,2.75,2.75,0,0,0,2.43,1.75,2.25,2.25,0,0,0,2.07-1.19,5.86,5.86,0,0,0,.84-3,9.49,9.49,0,0,0-.26-2.67,4.89,4.89,0,0,0-1.08-2.1A2.56,2.56,0,0,0,203.54,156.43Z"/><path class="cls-1" d="M216.47,155.58a11.71,11.71,0,0,1,3.18.59,15.68,15.68,0,0,1,.19,3.1c0,.15-.13.22-.37.21q-.61,0-.65-.25a3.34,3.34,0,0,0-.75-1.67,2.16,2.16,0,0,0-1.64-.74,2,2,0,0,0-1.27.31,1.23,1.23,0,0,0-.49,1,1.63,1.63,0,0,0,.13.71,1.72,1.72,0,0,0,.48.61,7,7,0,0,0,.59.46q.26.18.77.47l.27.15.41.24.45.26.43.28a5.28,5.28,0,0,1,.47.33l.42.35a2.2,2.2,0,0,1,.4.4l.32.44a1.76,1.76,0,0,1,.27.51,5.38,5.38,0,0,1,.13.53,2.62,2.62,0,0,1,0,.59,3.25,3.25,0,0,1-1.44,2.69,5.24,5.24,0,0,1-3.28.89,9.2,9.2,0,0,1-3.53-.9,11.07,11.07,0,0,1-.22-1.54,13.49,13.49,0,0,1-.08-1.59.59.59,0,0,1,.39-.12c.42,0,.64.1.65.25a3.05,3.05,0,0,0,1,1.9,2.94,2.94,0,0,0,1.86.77,2,2,0,0,0,1.28-.34,1.35,1.35,0,0,0,.54-1.11,1.82,1.82,0,0,0,0-.51,1.37,1.37,0,0,0-.25-.48l-.3-.4a2,2,0,0,0-.48-.39l-.54-.34-.68-.38-.69-.4a6.41,6.41,0,0,1-1.9-1.55,3.19,3.19,0,0,1,.8-4.54A5.32,5.32,0,0,1,216.47,155.58Z"/><path class="cls-1" d="M228,156a5.13,5.13,0,0,1,2.3.6,4.37,4.37,0,0,1,1.55,1.36,6.47,6.47,0,0,1,.82,1.66,4.77,4.77,0,0,1,.24,1.62c0,.41-.09.66-.24.75a1.57,1.57,0,0,1-.85.12l-6.59-.24c-.13,0-.2,0-.2.16a5.35,5.35,0,0,0,.29,1.94,3.79,3.79,0,0,0,1.17,1.67,3.25,3.25,0,0,0,2.06.77,7.77,7.77,0,0,0,.8,0,4.2,4.2,0,0,0,.72-.11l.59-.16a2.32,2.32,0,0,0,.52-.23l.38-.22.57-.35a.47.47,0,0,1,.13.17.54.54,0,0,1,.07.28.86.86,0,0,1-.19.52,4.51,4.51,0,0,1-1.68,1.43,5.12,5.12,0,0,1-2.76.64,5.59,5.59,0,0,1-4.07-1.93,6,6,0,0,1-1.58-4.38,6.38,6.38,0,0,1,1.78-4.46A5.35,5.35,0,0,1,228,156Zm-.24,1.26a2,2,0,0,0-1.2.34,2.61,2.61,0,0,0-.83.91,5.43,5.43,0,0,0-.44,1,3.35,3.35,0,0,0-.15.81q0,.19.16.2l4.47.17c.17,0,.25-.13.26-.41a3.57,3.57,0,0,0-.58-2A2,2,0,0,0,227.76,157.29Z"/><path class="cls-1" d="M243.67,156.61a3,3,0,0,1,1.77.6,3.21,3.21,0,0,1,1.05,1.43,6.49,6.49,0,0,1,2.06-1.31,6.19,6.19,0,0,1,2.61-.46,3.12,3.12,0,0,1,1.68.5,3,3,0,0,1,1.06,1.27,6.51,6.51,0,0,1,.52,1.73,10.45,10.45,0,0,1,.11,2l-.11,2.9a11.62,11.62,0,0,0,.1,2.49c0,.13.28.27.73.43a4.13,4.13,0,0,0,.93.24c.06,0,.08.14.08.4a1.57,1.57,0,0,1-.06.54l-1.44-.16q-1.25-.13-1.88-.15t-1.89,0l-1.48.05a1,1,0,0,1-.06-.53c0-.28,0-.41.1-.41a3.7,3.7,0,0,0,1-.17c.45-.12.69-.25.73-.37a8.56,8.56,0,0,0,.26-1.92l.1-2.81q.15-4-2.42-4.09a2.52,2.52,0,0,0-1.53.39,1.73,1.73,0,0,0-.75.83c0,.05,0,.13,0,.22a.54.54,0,0,0,0,.22,13.3,13.3,0,0,1,0,1.71l-.11,2.92a10.85,10.85,0,0,0,.11,2.38c0,.13.28.27.73.43a4,4,0,0,0,.93.24c.05,0,.08.14.08.4a1.56,1.56,0,0,1-.06.54l-1.44-.16q-1.25-.13-1.89-.15t-1.89,0l-1.48.06a1,1,0,0,1-.06-.53c0-.28,0-.41.1-.41a3.66,3.66,0,0,0,1-.17c.45-.12.69-.25.73-.37a9,9,0,0,0,.27-2l.1-2.65a5.85,5.85,0,0,0-.52-3.14,2.1,2.1,0,0,0-1.84-1,2.64,2.64,0,0,0-1.53.41,1.3,1.3,0,0,0-.73,1l-.17,4.74a10.14,10.14,0,0,0,.13,2.49q0,.19.7.43a3.73,3.73,0,0,0,.9.24c.07,0,.11.14.11.4a1.56,1.56,0,0,1-.06.54l-1.44-.16q-1.22-.13-1.86-.15t-1.93,0l-1.47.06a.81.81,0,0,1-.09-.53c0-.28.05-.41.13-.41a4,4,0,0,0,1-.17c.46-.12.72-.24.76-.37a9,9,0,0,0,.27-2l.17-4.5a2.62,2.62,0,0,0-.38-1.78,1.34,1.34,0,0,0-.61-.44,3.11,3.11,0,0,0-.67-.19c-.18,0-.27-.06-.27-.09,0-.53.08-.81.2-.82a38.28,38.28,0,0,0,4.44-.66l.08,0h.14c.09,0,.16.07.21.2a.5.5,0,0,1,0,.3,9.19,9.19,0,0,0-.15,1c0,.07,0,.12,0,.14a.42.42,0,0,0,.14-.08,6.11,6.11,0,0,1,1.74-1.1A4.83,4.83,0,0,1,243.67,156.61Z"/><path class="cls-1" d="M264,157.36a3.38,3.38,0,0,1,2.53,1,4.41,4.41,0,0,1,.74,3.11l-.2,5.43a1.25,1.25,0,0,0,.22.85.82.82,0,0,0,.65.31,1.72,1.72,0,0,0,1-.32c.11,0,.16.14.15.31a1.63,1.63,0,0,1-.2.82,6.7,6.7,0,0,1-1.13.65,2.86,2.86,0,0,1-1.34.31,2,2,0,0,1-1.22-.52,2.25,2.25,0,0,1-.76-1l-.21.17c-.12.1-.29.21-.51.35a8.4,8.4,0,0,1-.73.42,4.45,4.45,0,0,1-1,.34,4,4,0,0,1-1.09.11,3.3,3.3,0,0,1-2.22-.84,2.62,2.62,0,0,1-.79-2.12,2.54,2.54,0,0,1,.36-1.23,3.35,3.35,0,0,1,.79-.92,5.73,5.73,0,0,1,1.21-.69,11.44,11.44,0,0,1,1.3-.49L263,163l1.19-.31a.43.43,0,0,0,.26-.43l.06-1.52a2.36,2.36,0,0,0-.39-1.53,1.44,1.44,0,0,0-1.17-.59,1.67,1.67,0,0,0-1.31.46,2.07,2.07,0,0,0-.52,1.43.9.9,0,0,1-.44.8,1.71,1.71,0,0,1-.95.23,1.56,1.56,0,0,1-1.41-.71q0-1.32,1.9-2.42A6.92,6.92,0,0,1,264,157.36Zm-1.63,10.54a2.14,2.14,0,0,0,1.3-.34,1.1,1.1,0,0,0,.57-.86l.1-2.81q-.2.08-.83.25c-.42.11-.74.21-1,.29a7.6,7.6,0,0,0-.79.36,1.67,1.67,0,0,0-.67.58,1.51,1.51,0,0,0-.24.76,1.69,1.69,0,0,0,.39,1.31A1.58,1.58,0,0,0,262.37,167.9Z"/><path class="cls-1" d="M279,157.91a2.76,2.76,0,0,1,2.23,1q-.09,2.35-1.41,2.3a1.64,1.64,0,0,1-1.05-.59,1.73,1.73,0,0,0-1.17-.59,1.48,1.48,0,0,0-1.37.82,3.67,3.67,0,0,0-.55,1.79l-.13,3.45a11.54,11.54,0,0,0,.1,2.49c0,.13.27.27.72.43a3.86,3.86,0,0,0,.92.24c.06,0,.08.14.08.4a2.83,2.83,0,0,1,0,.54l-1.46-.16q-1.24-.13-1.87-.15t-1.92,0l-1.48.06a.81.81,0,0,1-.09-.53c0-.28.05-.41.13-.41a3.8,3.8,0,0,0,1-.17c.45-.12.7-.25.75-.37a9.06,9.06,0,0,0,.27-2l.17-4.5a2.63,2.63,0,0,0-.38-1.78,1.34,1.34,0,0,0-.61-.44,3.09,3.09,0,0,0-.66-.19c-.17,0-.26-.06-.26-.09,0-.53.08-.81.17-.82a38.82,38.82,0,0,0,4.47-.66l.22,0c.07,0,.13.07.19.2a.66.66,0,0,1,.06.32l-.06.38c0,.17-.05.36-.09.55a3.62,3.62,0,0,0-.05.37,5.05,5.05,0,0,1,1.4-1.29A3,3,0,0,1,279,157.91Z"/><path class="cls-1" d="M286,158.44q.61,0,1.74,0t1.41,0a1.83,1.83,0,0,1,0,.5c0,.26-.05.38-.12.38a3,3,0,0,0-.88.17c-.4.12-.61.27-.64.43V160q0,.45,2.33,6.38.24-.49,1.17-2.68t1.09-2.51a2.59,2.59,0,0,0,.2-.85.87.87,0,0,0-.42-.69,2.27,2.27,0,0,0-1.31-.37c-.07,0-.11-.14-.1-.42a.69.69,0,0,1,.13-.46q.33,0,1.35.13t1.68.14q.58,0,1.42,0t1.23,0a.79.79,0,0,1,.09.45c0,.29-.05.44-.13.44a3.48,3.48,0,0,0-1.13.23,1.52,1.52,0,0,0-1,.79l-5.49,12q-1.86,4-4.26,3.88a1.49,1.49,0,0,1-1.09-.43,1.29,1.29,0,0,1,.21-2,3.65,3.65,0,0,0,3.86-2.12q.72-1.63.81-1.85l-3.68-9.52a3.57,3.57,0,0,0-.31-.65,1.65,1.65,0,0,0-.79-.65,2.61,2.61,0,0,0-.89-.24c-.07,0-.11-.13-.1-.39s0-.46.1-.49l1.47.14C284.94,158.38,285.6,158.43,286,158.44Z"/><path class="cls-1" d="M311.74,153.09a8,8,0,0,1,1.5.21,8.13,8.13,0,0,1,1.61.57,6.54,6.54,0,0,1,1.47.94,3.88,3.88,0,0,1,1,1.42,4.38,4.38,0,0,1,.34,1.95,4.7,4.7,0,0,1-1.07,2.78,5.35,5.35,0,0,1-2.41,1.79q-.22.07-.12.27a32.39,32.39,0,0,0,2.92,4.8,12,12,0,0,0,2,2.1,3.52,3.52,0,0,0,2,.92.79.79,0,0,1,.09.45,1.1,1.1,0,0,1-.13.49,5.44,5.44,0,0,1-.86,0,9.15,9.15,0,0,1-2.54-.42,5.88,5.88,0,0,1-2-1.05,10.63,10.63,0,0,1-1.35-1.3,12,12,0,0,1-1.1-1.59q-.37-.57-.83-1.33l-.72-1.17c-.17-.27-.35-.56-.56-.86a5.32,5.32,0,0,0-.54-.68,1.4,1.4,0,0,0-.44-.32,1.7,1.7,0,0,0-.66-.11c-.29,0-.45.14-.46.45l-.14,3.89a8.62,8.62,0,0,0,.13,2.35c0,.22.35.41.9.57a5.73,5.73,0,0,0,1.22.25q.11,0,.09.47a1.53,1.53,0,0,1-.07.47q-3-.28-3.91-.31t-1.67,0h-1.48l-.55,0a1,1,0,0,1-.06-.5c0-.29,0-.44.1-.44a4.74,4.74,0,0,0,1.07-.14c.47-.1.75-.23.83-.4a10.91,10.91,0,0,0,.26-2.5l.38-10.42a10.76,10.76,0,0,0-.08-2.27q-.07-.22-.8-.49a4,4,0,0,0-1.05-.27c-.07,0-.1-.14-.09-.42s.05-.44.13-.49q2.92.19,3.66.22l1.92,0Zm-.49,1.36a4.48,4.48,0,0,0-1.61.13q-.31.13-.44,2.86l-.12,3.17a.78.78,0,0,0,.44.82,3.51,3.51,0,0,0,1.29.24l.72,0a2.38,2.38,0,0,0,1.87-.9,3.77,3.77,0,0,0,.9-2.48Q314.45,154.57,311.25,154.46Z"/><path class="cls-1" d="M328.7,159.74a5.11,5.11,0,0,1,2.3.6,4.38,4.38,0,0,1,1.55,1.36,6.48,6.48,0,0,1,.82,1.66,4.77,4.77,0,0,1,.24,1.63c0,.4-.09.65-.24.75a1.56,1.56,0,0,1-.85.12l-6.59-.24c-.13,0-.2,0-.2.16a5.34,5.34,0,0,0,.29,1.94,3.78,3.78,0,0,0,1.17,1.67,3.25,3.25,0,0,0,2.06.77,7.24,7.24,0,0,0,.8,0,4.14,4.14,0,0,0,.72-.11l.58-.16a2.36,2.36,0,0,0,.52-.23l.38-.22.56-.35a.47.47,0,0,1,.13.17.53.53,0,0,1,.07.28.85.85,0,0,1-.18.52,4.5,4.5,0,0,1-1.68,1.43,5.11,5.11,0,0,1-2.76.64,5.58,5.58,0,0,1-4.07-1.93,6,6,0,0,1-1.58-4.38,6.39,6.39,0,0,1,1.78-4.46A5.35,5.35,0,0,1,328.7,159.74Zm-.24,1.26a2,2,0,0,0-1.2.34,2.62,2.62,0,0,0-.83.91,5.43,5.43,0,0,0-.44,1,3.34,3.34,0,0,0-.15.81q0,.19.16.2l4.47.17c.17,0,.25-.13.26-.41a3.57,3.57,0,0,0-.58-2A2,2,0,0,0,328.46,161Z"/><path class="cls-1" d="M338.3,160.37q.6,0,1.74,0t1.41,0a1.82,1.82,0,0,1,0,.5c0,.26-.05.38-.12.38a3,3,0,0,0-.88.17c-.4.12-.61.27-.64.43V162q0,.44,2.33,6.38.24-.49,1.17-2.68t1.09-2.51a2.57,2.57,0,0,0,.2-.85.87.87,0,0,0-.42-.69,2.26,2.26,0,0,0-1.31-.37c-.07,0-.11-.14-.1-.42a.69.69,0,0,1,.13-.46q.33,0,1.35.13t1.68.15q.58,0,1.42,0t1.23,0a.79.79,0,0,1,.09.45c0,.29-.05.44-.13.44a3.48,3.48,0,0,0-1.13.23,1.52,1.52,0,0,0-1,.79l-5.5,12q-1.86,4-4.26,3.88a1.49,1.49,0,0,1-1.09-.43,1.29,1.29,0,0,1,.21-2,3.65,3.65,0,0,0,3.86-2.12q.72-1.63.81-1.85l-3.68-9.52a3.51,3.51,0,0,0-.31-.65,1.65,1.65,0,0,0-.79-.65,2.58,2.58,0,0,0-.89-.24c-.07,0-.11-.13-.1-.39s0-.46.1-.49l1.47.14Q337.64,160.34,338.3,160.37Z"/><path class="cls-1" d="M355.74,160.73a5.13,5.13,0,0,1,2.3.6,4.39,4.39,0,0,1,1.55,1.35,6.47,6.47,0,0,1,.82,1.66,4.76,4.76,0,0,1,.24,1.62c0,.41-.09.66-.24.75a1.57,1.57,0,0,1-.85.12L353,166.6c-.13,0-.2,0-.2.16a5.35,5.35,0,0,0,.29,1.94,3.8,3.8,0,0,0,1.17,1.67,3.25,3.25,0,0,0,2.06.77,7.75,7.75,0,0,0,.8,0,4,4,0,0,0,.72-.11l.58-.16a2.31,2.31,0,0,0,.52-.23l.38-.22.56-.35a.49.49,0,0,1,.13.17.53.53,0,0,1,.07.28.85.85,0,0,1-.18.52,4.49,4.49,0,0,1-1.68,1.43,5.12,5.12,0,0,1-2.76.64,5.59,5.59,0,0,1-4.07-1.93,6,6,0,0,1-1.58-4.38,6.38,6.38,0,0,1,1.78-4.46A5.34,5.34,0,0,1,355.74,160.73ZM355.5,162a2,2,0,0,0-1.2.34,2.61,2.61,0,0,0-.83.91,5.43,5.43,0,0,0-.44,1,3.34,3.34,0,0,0-.15.81q0,.19.16.2l4.47.16c.17,0,.25-.13.26-.4a3.57,3.57,0,0,0-.58-2A2,2,0,0,0,355.5,162Z"/><path class="cls-1" d="M366.89,161.12a11.72,11.72,0,0,1,3.18.59,15.76,15.76,0,0,1,.19,3.1c0,.15-.13.22-.37.21q-.61,0-.65-.24a3.36,3.36,0,0,0-.75-1.67,2.16,2.16,0,0,0-1.64-.74,2,2,0,0,0-1.27.31,1.22,1.22,0,0,0-.49,1,1.63,1.63,0,0,0,.13.71,1.72,1.72,0,0,0,.48.61,6.73,6.73,0,0,0,.59.46q.26.17.77.47a1.66,1.66,0,0,0,.27.15l.41.24.45.27.43.28a5.49,5.49,0,0,1,.47.33l.42.35a2.2,2.2,0,0,1,.4.4l.31.44a1.75,1.75,0,0,1,.27.51,5.45,5.45,0,0,1,.13.53,2.63,2.63,0,0,1,0,.59,3.26,3.26,0,0,1-1.44,2.7,5.24,5.24,0,0,1-3.28.89,9.2,9.2,0,0,1-3.53-.9,11.12,11.12,0,0,1-.22-1.54,13.5,13.5,0,0,1-.08-1.59.59.59,0,0,1,.39-.12q.63,0,.65.25a3,3,0,0,0,1,1.9,3,3,0,0,0,1.86.77,2,2,0,0,0,1.28-.34,1.34,1.34,0,0,0,.54-1.11,1.81,1.81,0,0,0,0-.51,1.37,1.37,0,0,0-.25-.48l-.3-.4a2,2,0,0,0-.48-.39l-.54-.34-.68-.38-.69-.4a6.43,6.43,0,0,1-1.9-1.55,3.19,3.19,0,0,1,.8-4.54A5.31,5.31,0,0,1,366.89,161.12Z"/><path class="cls-2" d="M266.2,1.15a41.75,41.75,0,0,1,7.88.87,42.42,42.42,0,0,1,8.51,2.76,34.42,34.42,0,0,1,7.84,4.71A20.38,20.38,0,0,1,296,16.79a23,23,0,0,1,2.07,10.15,24.64,24.64,0,0,1-5.21,14.71,28,28,0,0,1-12.4,9.72c-.78.28-1,.76-.59,1.44a169.73,169.73,0,0,0,16,24.77,63,63,0,0,0,10.82,10.75q5.82,4.48,10.74,4.52a4.12,4.12,0,0,1,.56,2.32,5.77,5.77,0,0,1-.6,2.6,28.45,28.45,0,0,1-4.49.24,48.16,48.16,0,0,1-13.37-1.87,31,31,0,0,1-10.37-5.24,56.11,56.11,0,0,1-7.24-6.66,62.66,62.66,0,0,1-6-8.17q-2-2.91-4.57-6.85t-3.92-6q-1.36-2.11-3.07-4.45a28.53,28.53,0,0,0-2.93-3.5A7.37,7.37,0,0,0,259,53.63a9.05,9.05,0,0,0-3.47-.47q-2.32,0-2.34,2.44L253,76q-.09,8.69,1,12.32.42,1.74,4.82,2.87a30.53,30.53,0,0,0,6.43,1.15q.58,0,.55,2.47a8.15,8.15,0,0,1-.31,2.46q-15.92-1-20.55-1.07-3.91,0-8.76.13l-7.75.29-2.9.26a5,5,0,0,1-.41-2.61c0-1.54.17-2.31.46-2.31a24.8,24.8,0,0,0,5.58-.89q3.7-.9,4.29-2.2.89-2.6,1-13.16L237,21a56.77,56.77,0,0,0-.75-11.88q-.42-1.16-4.25-2.43a21,21,0,0,0-5.56-1.29q-.58,0-.56-2.18t.6-2.6q15.34.59,19.25.62t10.06,0Q261.85,1.11,266.2,1.15Zm-2.39,7.21q-6.08-.06-8.41.93-1.6.71-1.88,15L253.35,41q0,3.19,2.42,4.22a18.37,18.37,0,0,0,6.79,1.08l3.76,0q5.35.05,9.67-5t4.4-13.13Q280.6,8.53,263.81,8.36Z"/><path class="cls-2" d="M354.62,33.58a26.86,26.86,0,0,1,12.13,2.8,22.92,22.92,0,0,1,8.33,6.89,33.66,33.66,0,0,1,4.55,8.59,25,25,0,0,1,1.51,8.48q0,3.19-1.12,4t-4.42.75L341,64.72q-1,0-1,.86a28.18,28.18,0,0,0,1.78,10.15,19.92,19.92,0,0,0,6.36,8.6A17,17,0,0,0,359,88.06a39.5,39.5,0,0,0,4.2-.18A21.61,21.61,0,0,0,367,87.2q1.74-.49,3-.91A12.46,12.46,0,0,0,372.71,85l2-1.21q.58-.35,2.91-1.92a2.37,2.37,0,0,1,.71.88,2.8,2.8,0,0,1,.42,1.45,4.45,4.45,0,0,1-.89,2.74q-2.21,3.89-8.62,7.73a26.85,26.85,0,0,1-14.37,3.77,29.32,29.32,0,0,1-21.62-9.55,31.22,31.22,0,0,1-8.9-22.74q.14-14.62,8.7-23.66T354.62,33.58Zm-1.08,6.65a10.23,10.23,0,0,0-6.25,2A13.65,13.65,0,0,0,343,47.08a27.63,27.63,0,0,0-2.15,5.41,17.71,17.71,0,0,0-.69,4.26c0,.68.28,1,.86,1l23.45.23q1.3,0,1.32-2.16a18.76,18.76,0,0,0-3.3-10.31Q359.18,40.29,353.54,40.23Z"/><path class="cls-2" d="M435.39,34.38a15.64,15.64,0,0,1,9.38,2.92,16.9,16.9,0,0,1,5.72,7.37,34.15,34.15,0,0,1,10.64-7.13,32.5,32.5,0,0,1,13.63-2.76,16.43,16.43,0,0,1,8.88,2.4,16,16,0,0,1,5.73,6.5,34.06,34.06,0,0,1,3,9,55.28,55.28,0,0,1,.84,10.5L493,78.38a60.51,60.51,0,0,0,.88,13q.28,1,3.89,2.14a21.3,21.3,0,0,0,4.91,1.13c.29,0,.45.71.49,2.1a8.2,8.2,0,0,1-.24,2.82q-1-.16-7.59-.65t-9.91-.53q-3.47,0-9.92.34t-7.75.5a5.42,5.42,0,0,1-.41-2.76q0-2.17.46-2.17a19.48,19.48,0,0,0,5.22-1q3.48-1.05,3.78-2.06a45.06,45.06,0,0,0,1.11-10.12l.15-14.77q.21-21-13.25-21.12a13.2,13.2,0,0,0-8,2.24q-3.21,2.29-3.81,4.45c0,.29,0,.68-.08,1.16a2.81,2.81,0,0,0,.06,1.16,70.76,70.76,0,0,1,.34,9l-.15,15.34A56.92,56.92,0,0,0,454.08,91q.28,1,3.89,2.14a21.35,21.35,0,0,0,4.91,1.13c.29,0,.45.71.49,2.1a8.2,8.2,0,0,1-.24,2.82q-1-.16-7.59-.65T445.62,98q-3.47,0-9.92.34t-7.75.5a5.4,5.4,0,0,1-.41-2.75q0-2.17.46-2.17a19.42,19.42,0,0,0,5.22-1q3.48-1.05,3.78-2.06a47.35,47.35,0,0,0,1.12-10.56l.14-13.9q.11-11.29-3.17-16.39a11,11,0,0,0-9.79-5.16,13.86,13.86,0,0,0-8,2.38q-3.64,2.43-3.67,5.47l-.25,24.9q-.09,8.83,1,13,.28,1,3.74,2.14a19.6,19.6,0,0,0,4.77,1.13q.58,0,.63,2.11a8.21,8.21,0,0,1-.24,2.82q-1.16-.16-7.59-.65T406,97.64q-3.62,0-10.14.33t-7.68.5q-.58-.59-.55-2.76t.6-2.17a20.94,20.94,0,0,0,5.22-1q3.63-1,3.93-2.06a47.29,47.29,0,0,0,1.12-10.56l.23-23.6q.07-6.8-2.22-9.29a7,7,0,0,0-3.23-2.2,16.33,16.33,0,0,0-3.54-.9c-1-.11-1.44-.25-1.44-.45q0-4.2.91-4.33,6.66-.51,23.2-4.11a.93.93,0,0,1,.44-.21,3.06,3.06,0,0,1,.72-.06c.48,0,.86.35,1.15,1a2.67,2.67,0,0,1,.27,1.6,49.58,49.58,0,0,0-.63,5.21c0,.39.09.63.28.73a2.1,2.1,0,0,0,.73-.43,32.12,32.12,0,0,1,9-6A25.35,25.35,0,0,1,435.39,34.38Z"/><path class="cls-2" d="M539.9,35.42A26.85,26.85,0,0,1,552,38.21a22.9,22.9,0,0,1,8.33,6.89,33.66,33.66,0,0,1,4.55,8.59,25,25,0,0,1,1.51,8.48q0,3.19-1.12,4t-4.42.75l-34.6-.34q-1,0-1,.86A28.16,28.16,0,0,0,527,77.56a19.91,19.91,0,0,0,6.36,8.6,17,17,0,0,0,10.89,3.73,39.76,39.76,0,0,0,4.2-.18,21.7,21.7,0,0,0,3.77-.69q1.74-.49,3-.91A12.46,12.46,0,0,0,558,86.84l2-1.21q.58-.35,2.92-1.92a2.37,2.37,0,0,1,.71.88A2.79,2.79,0,0,1,564,86a4.45,4.45,0,0,1-.89,2.74q-2.21,3.89-8.62,7.73a26.86,26.86,0,0,1-14.37,3.77,29.32,29.32,0,0,1-21.62-9.55A31.22,31.22,0,0,1,509.61,68q.14-14.62,8.7-23.66T539.9,35.42Zm-1.08,6.65a10.24,10.24,0,0,0-6.25,2,13.66,13.66,0,0,0-4.25,4.88,27.63,27.63,0,0,0-2.15,5.41,17.7,17.7,0,0,0-.69,4.26c0,.68.28,1,.86,1l23.45.23q1.3,0,1.32-2.16a18.76,18.76,0,0,0-3.3-10.31Q544.47,42.12,538.82,42.06Z"/><path class="cls-2" d="M620.67,36.22a15.64,15.64,0,0,1,9.38,2.92,16.92,16.92,0,0,1,5.72,7.37,34.17,34.17,0,0,1,10.64-7.13A32.52,32.52,0,0,1,660,36.6a16.43,16.43,0,0,1,8.88,2.4,16,16,0,0,1,5.73,6.5,34.06,34.06,0,0,1,3,9,55.27,55.27,0,0,1,.84,10.5l-.15,15.2a60.51,60.51,0,0,0,.88,13q.28,1,3.89,2.14A21.23,21.23,0,0,0,688,96.53c.29,0,.45.71.49,2.1a8.21,8.21,0,0,1-.24,2.82q-1-.16-7.59-.65t-9.91-.53q-3.47,0-9.92.34t-7.75.5a5.41,5.41,0,0,1-.41-2.75q0-2.17.46-2.17a19.47,19.47,0,0,0,5.22-1q3.48-1.05,3.78-2.06A45.06,45.06,0,0,0,663.21,83l.15-14.76q.21-21-13.26-21.12a13.19,13.19,0,0,0-8,2.24q-3.21,2.29-3.81,4.45c0,.29,0,.68-.08,1.16a2.81,2.81,0,0,0,.06,1.16,70.75,70.75,0,0,1,.34,9l-.15,15.34a56.91,56.91,0,0,0,.89,12.46q.28,1,3.89,2.14a21.3,21.3,0,0,0,4.91,1.13c.29,0,.45.71.49,2.1a8.2,8.2,0,0,1-.24,2.82q-1-.16-7.59-.65t-9.91-.53q-3.47,0-9.92.34t-7.75.5a5.4,5.4,0,0,1-.41-2.76q0-2.17.46-2.17a19.48,19.48,0,0,0,5.22-1q3.48-1,3.78-2.06a47.36,47.36,0,0,0,1.12-10.56l.14-13.9q.11-11.29-3.17-16.39a11,11,0,0,0-9.79-5.16,13.87,13.87,0,0,0-8,2.38q-3.64,2.43-3.67,5.46l-.25,24.9q-.09,8.83,1,13,.28,1,3.74,2.14a19.65,19.65,0,0,0,4.77,1.13q.58,0,.63,2.11a8.2,8.2,0,0,1-.24,2.82q-1.16-.16-7.59-.65t-9.77-.53q-3.62,0-10.14.33t-7.68.5q-.58-.59-.55-2.76t.6-2.17a20.94,20.94,0,0,0,5.22-1q3.63-1,3.93-2.06a47.29,47.29,0,0,0,1.12-10.56l.23-23.6q.07-6.8-2.22-9.29a7,7,0,0,0-3.24-2.2,16.25,16.25,0,0,0-3.54-.9c-1-.11-1.44-.25-1.44-.45q0-4.2.91-4.33,6.66-.51,23.2-4.11a.91.91,0,0,1,.44-.21,3.06,3.06,0,0,1,.72-.07c.48,0,.86.35,1.15,1a2.66,2.66,0,0,1,.27,1.59,49.59,49.59,0,0,0-.63,5.21c0,.39.09.63.28.73a2.13,2.13,0,0,0,.73-.43,32.12,32.12,0,0,1,9-6A25.36,25.36,0,0,1,620.67,36.22Z"/><path class="cls-2" d="M732.43,37.32A29.42,29.42,0,0,1,748.52,42a30.4,30.4,0,0,1,10.74,11.69,30.88,30.88,0,0,1,3.55,14.58,33,33,0,0,1-10.3,24.15q-10.16,10-23.33,9.83a45.29,45.29,0,0,1-10.56-1.19,31.62,31.62,0,0,0-6.79-1.15,11,11,0,0,0-3.77,1,14.55,14.55,0,0,1-2.91,1,7,7,0,0,1-2.09-.89q-1.66-.88-1.65-1.46c0-.29.11-1.16.32-2.6s.47-3.52.79-6.22a83.36,83.36,0,0,0,.52-8.83l.58-59.06a50.53,50.53,0,0,0-.77-9.85q-.7-2.32-7.5-2.39H694q-.87,0-.85-2.32c0-1.54.31-2.31.89-2.31q4.49-.39,8.55-1.07t6.74-1.38q2.69-.7,4.65-1.4T718.17.7h.29a1.56,1.56,0,0,1,1.15.81A4,4,0,0,1,720.31,3a50.59,50.59,0,0,0-1.73,13.59l-.23,23.16v.15c0,.29,0,.51,0,.65a4.19,4.19,0,0,0,.07.65c0,.29.14.44.29.44a1.16,1.16,0,0,0,.51-.14,26.44,26.44,0,0,1,5.89-2.84A20.71,20.71,0,0,1,732.43,37.32Zm-3.26,7.79a11.21,11.21,0,0,0-7.84,2.67,8.51,8.51,0,0,0-3.1,6.48L717.91,85a8.68,8.68,0,0,0,3.76,7.71,15.71,15.71,0,0,0,9,2.7q7.52.07,11.43-6.69t4-16.46q.12-12.45-4.29-19.73A14.19,14.19,0,0,0,729.16,45.11Z"/><path class="cls-2" d="M801.18,38a26.83,26.83,0,0,1,12.13,2.8,22.91,22.91,0,0,1,8.33,6.89,33.65,33.65,0,0,1,4.55,8.59,25,25,0,0,1,1.51,8.48q0,3.19-1.12,4t-4.42.75l-34.6-.34q-1,0-1,.86a28.16,28.16,0,0,0,1.78,10.15,19.91,19.91,0,0,0,6.36,8.6,17,17,0,0,0,10.89,3.73,39.76,39.76,0,0,0,4.2-.18,21.68,21.68,0,0,0,3.77-.69q1.74-.49,3-.91a12.42,12.42,0,0,0,2.69-1.28l2-1.21q.58-.35,2.92-1.93a2.38,2.38,0,0,1,.71.88,2.79,2.79,0,0,1,.42,1.45,4.46,4.46,0,0,1-.89,2.74q-2.21,3.89-8.62,7.73a26.86,26.86,0,0,1-14.37,3.77,29.32,29.32,0,0,1-21.62-9.55,31.22,31.22,0,0,1-8.89-22.74q.14-14.62,8.7-23.66T801.18,38Zm-1.08,6.65a10.24,10.24,0,0,0-6.24,2,13.67,13.67,0,0,0-4.25,4.88,27.6,27.6,0,0,0-2.15,5.41,17.7,17.7,0,0,0-.69,4.26c0,.68.28,1,.86,1l23.45.23q1.3,0,1.32-2.16A18.76,18.76,0,0,0,809.1,50Q805.75,44.7,800.1,44.65Z"/><path class="cls-2" d="M877,38.75q8,.08,11.82,4.89-.12,12.3-7.07,12.24-2.61,0-5.62-3a9.06,9.06,0,0,0-6.2-3q-4.49,0-7.06,4.49a19.26,19.26,0,0,0-2.63,9.46L860.1,82a60.59,60.59,0,0,0,.88,13q.28,1,3.82,2.14a20.48,20.48,0,0,0,4.84,1.13c.29,0,.45.71.49,2.1a15.11,15.11,0,0,1-.1,2.82q-1.16-.16-7.67-.66t-9.84-.53q-3.47,0-10.06.33t-7.75.5q-.58-.59-.55-2.76t.6-2.17a20.21,20.21,0,0,0,5.29-1q3.56-1.05,3.86-2.06A47.29,47.29,0,0,0,845,84.33l.23-23.6q.07-6.8-2.22-9.29a7,7,0,0,0-3.24-2.2,16.54,16.54,0,0,0-3.47-.9c-.92-.1-1.37-.25-1.37-.45q0-4.2.77-4.34,6.66-.51,23.35-4.11a8.63,8.63,0,0,1,1.16-.28c.38,0,.72.35,1,1a3.46,3.46,0,0,1,.34,1.67q-.08.65-.24,2T861,46.77a18.43,18.43,0,0,0-.24,2,26.56,26.56,0,0,1,7.16-7A15.86,15.86,0,0,1,877,38.75Z"/><path class="cls-2" d="M905.62,105.34q0-2.32-2.11-6A13.06,13.06,0,0,1,901.4,93q0-3,3.1-6.05a10.77,10.77,0,0,1,8-3,9.37,9.37,0,0,1,4.62.92A22.56,22.56,0,0,1,919,95a26,26,0,0,1-1.23,6.94,41.58,41.58,0,0,1-6.36,13.33q-4,5.24-12.42,11.68h-.14q-.73,0-2-1.54a4.36,4.36,0,0,1-1.28-2.55,20.78,20.78,0,0,1,2.48-2.29,26.47,26.47,0,0,0,5-6.25A17.35,17.35,0,0,0,905.62,105.34Z"/><path class="cls-2" d="M681,164.23a41.78,41.78,0,0,1,7.92.48,42.41,42.41,0,0,1,8.64,2.34,34.41,34.41,0,0,1,8.07,4.32,20.39,20.39,0,0,1,5.93,7,23,23,0,0,1,2.57,10,24.64,24.64,0,0,1-4.48,15,28,28,0,0,1-11.91,10.32q-1.14.48-.52,1.47a169.76,169.76,0,0,0,17.17,23.95,63,63,0,0,0,11.34,10.2q6,4.18,11,4a4.13,4.13,0,0,1,.67,2.29,5.77,5.77,0,0,1-.48,2.63,28.29,28.29,0,0,1-4.47.47A48.14,48.14,0,0,1,719,257.48a31,31,0,0,1-10.62-4.72,56.13,56.13,0,0,1-7.57-6.29,62.64,62.64,0,0,1-6.4-7.86q-2.14-2.81-4.9-6.62t-4.22-5.84q-1.46-2-3.29-4.29a28.5,28.5,0,0,0-3.1-3.35,7.41,7.41,0,0,0-2.45-1.5,9,9,0,0,0-3.49-.3q-2.31.09-2.22,2.55l.81,20.4q.34,8.68,1.64,12.25.5,1.72,5,2.63a30.57,30.57,0,0,0,6.48.83q.58,0,.68,2.44a8.13,8.13,0,0,1-.19,2.47q-15.95-.24-20.57-.05-3.91.16-8.74.56l-7.72.67-2.88.4a5,5,0,0,1-.54-2.59q-.09-2.31.34-2.33a24.77,24.77,0,0,0,5.53-1.16q3.65-1.09,4.18-2.41.76-2.64.35-13.2l-2.17-54.68a56.82,56.82,0,0,0-1.34-11.83q-.48-1.14-4.36-2.22a21.06,21.06,0,0,0-5.62-1c-.39,0-.61-.7-.66-2.15s.1-2.32.48-2.63q15.35-.17,19.26-.33t10-.54Q676.66,164.4,681,164.23Zm-2,7.32q-6.08.24-8.35,1.34-1.56.79-1.14,15.11l.66,16.63q.13,3.18,2.63,4.1a18.35,18.35,0,0,0,6.84.74l3.76-.15q5.35-.21,9.42-5.44t3.75-13.33Q695.75,170.89,679,171.55Z"/><path class="cls-2" d="M770.92,192.25a26.84,26.84,0,0,1,12.26,2.19,22.92,22.92,0,0,1,8.66,6.47,33.66,33.66,0,0,1,5,8.35,25,25,0,0,1,1.93,8.4q.13,3.18-.93,4t-4.38,1L758.85,224q-1,0-1,.91A28.14,28.14,0,0,0,760.15,235a19.9,19.9,0,0,0,6.78,8.28A17,17,0,0,0,778,246.44a39.49,39.49,0,0,0,4.19-.38,21.68,21.68,0,0,0,3.73-.87q1.72-.57,3-1.06a12.35,12.35,0,0,0,2.62-1.41l1.9-1.31q.56-.38,2.82-2.07a2.37,2.37,0,0,1,.76.84,2.79,2.79,0,0,1,.49,1.43,4.46,4.46,0,0,1-.76,2.78q-2,4-8.22,8.15A26.87,26.87,0,0,1,774.35,257a29.31,29.31,0,0,1-22.07-8.47,31.22,31.22,0,0,1-10-22.28q-.58-14.61,7.52-24.06T770.92,192.25Zm-.75,6.69a10.23,10.23,0,0,0-6.14,2.27,13.66,13.66,0,0,0-4,5.08,27.67,27.67,0,0,0-1.88,5.51,17.68,17.68,0,0,0-.48,4.29c0,.68.33,1,.91,1l23.43-.93q1.3-.05,1.22-2.22a18.76,18.76,0,0,0-3.8-10.14Q775.81,198.72,770.17,198.94Z"/><path class="cls-2" d="M843.83,189.5a29.29,29.29,0,0,1,16.68,4.12,30.34,30.34,0,0,1,15.2,25.19q.59,14.9-9.08,25.06a33.2,33.2,0,0,1-23.55,10.71A33.57,33.57,0,0,1,832.72,253q-.58,0-.5,2l.39,9.84q.36,9,1.67,13,.19,1.15,3.92,2.09a22.14,22.14,0,0,0,5,.89q.43,0,.59,2.08a13.13,13.13,0,0,1,0,2.68q-1,0-7.76-.13t-9.93,0q-3.62.14-10.18.84t-7.72.74a5.19,5.19,0,0,1-.54-2.66q-.08-2.1.35-2.11a20.21,20.21,0,0,0,5.24-1.29q3.5-1.23,3.89-2.4a52.62,52.62,0,0,0,.46-10.45l-2.19-55.26q-.28-6.94-2.69-9.31a6.53,6.53,0,0,0-3.26-2,17.42,17.42,0,0,0-3.5-.66c-1-.06-1.46-.18-1.46-.38q-.17-4.19.7-4.37a111.25,111.25,0,0,0,21.39-4.9q2.58-.82,2.72-.83.58,0,.7,3a7.94,7.94,0,0,1-.22,1.75,29,29,0,0,1,6.3-3.65A20.8,20.8,0,0,1,843.83,189.5Zm-3.17,7.8a10.93,10.93,0,0,0-7.63,3.06,9.57,9.57,0,0,0-2.67,7.49l1.18,29.8a8.9,8.9,0,0,0,4.21,7.44,14.06,14.06,0,0,0,8.5,2.49q6.65-.26,11-6.52t3.88-17.25q-.46-11.72-5.4-19.27T840.66,197.31Z"/><path class="cls-2" d="M912.82,186.63q9-.36,13.64,4.17t5.12,16l1.13,28.5a6.61,6.61,0,0,0,1.48,4.36,4.35,4.35,0,0,0,3.53,1.38,9,9,0,0,0,4.84-2.08c.59.17.9.69.93,1.56a8.6,8.6,0,0,1-.7,4.37,35.86,35.86,0,0,1-5.64,3.85,15.09,15.09,0,0,1-6.87,2.16,10.57,10.57,0,0,1-6.61-2.2,11.87,11.87,0,0,1-4.41-5.19c-.09.1-.44.43-1,1s-1.45,1.24-2.53,2.06A42.83,42.83,0,0,1,912,249a23.09,23.09,0,0,1-4.84,2.15,21,21,0,0,1-5.68,1q-7.23.29-11.95-3.51t-5-10.74a13.34,13.34,0,0,1,1.4-6.57,17.28,17.28,0,0,1,3.78-5.15,29.63,29.63,0,0,1,6.07-4.08,59.49,59.49,0,0,1,6.62-3.09q2.78-1.05,7.14-2.53t6.07-2.12a2.28,2.28,0,0,0,1.21-2.37l-.31-8q-.2-5.06-2.63-7.86a7.56,7.56,0,0,0-6.33-2.65,8.78,8.78,0,0,0-6.69,2.95q-2.36,2.78-2.16,7.69a4.69,4.69,0,0,1-2,4.35,9,9,0,0,1-4.86,1.57q-5.35.21-7.66-3.17-.28-6.94,9-13.39A36.3,36.3,0,0,1,912.82,186.63Zm-4.31,55.8a11.23,11.23,0,0,0,6.65-2.29q2.74-2.14,2.64-4.74l-.58-14.75c-.67.32-2.07.86-4.21,1.62s-3.78,1.41-4.92,1.93a39.27,39.27,0,0,0-4,2.19,8.72,8.72,0,0,0-3.27,3.32,8,8,0,0,0-.92,4.09q.18,4.63,2.58,6.71A8.32,8.32,0,0,0,908.51,242.43Z"/><path class="cls-2" d="M975.29,227.61q.35,8.83,1.67,13,.33,1,4,1.94a21.29,21.29,0,0,0,5,.89q.57,0,.73,2.07a8.19,8.19,0,0,1-.11,2.83q-1-.11-7.76-.27t-9.93,0q-3.62.14-10.18.84t-7.57.88q-.6-.56-.69-2.73t.49-2.19a21,21,0,0,0,5.16-1.29q3.57-1.23,3.82-2.25a47.29,47.29,0,0,0,.59-10.6l-.93-23.58q-.27-6.8-2.68-9.17a8,8,0,0,0-3.41-2,15.24,15.24,0,0,0-3.51-.73c-1-.06-1.46-.18-1.46-.38q-.17-4.19.7-4.37a111,111,0,0,0,11.65-2.2,113.66,113.66,0,0,0,11.33-3.06,8.6,8.6,0,0,0,1.15-.34c.48,0,.88.3,1.2,1a2.66,2.66,0,0,1,.35,1.58,124.12,124.12,0,0,0-.66,12.49Zm-17.44-59.94a8.82,8.82,0,0,1-2.86-6.26,9,9,0,0,1,17.94-.71,8.82,8.82,0,0,1-2.35,6.47,8.91,8.91,0,0,1-12.73.5Z"/><path class="cls-2" d="M1033.6,181.84q8-.31,12.05,4.3.49,12.3-6.46,12.57-2.6.1-5.76-2.67a9.06,9.06,0,0,0-6.33-2.65q-4.49.18-6.83,4.83a19.26,19.26,0,0,0-2.16,9.57l.72,18.08a60.57,60.57,0,0,0,1.53,13q.33,1,3.92,1.95a20.46,20.46,0,0,0,4.89.89c.29,0,.48.68.59,2.08a15.11,15.11,0,0,1,0,2.82q-1.17-.1-7.69-.27t-9.85,0q-3.47.14-10,.83t-7.72.88q-.6-.56-.69-2.72t.49-2.19a20.18,20.18,0,0,0,5.24-1.29q3.5-1.23,3.75-2.25a47.36,47.36,0,0,0,.59-10.6l-.93-23.58q-.27-6.8-2.68-9.17a7,7,0,0,0-3.34-2,16.55,16.55,0,0,0-3.51-.73c-.92-.06-1.38-.18-1.39-.38q-.17-4.19.55-4.37,6.63-.84,23.12-5.26a8.66,8.66,0,0,1,1.15-.33c.38,0,.74.31,1.05,1a3.46,3.46,0,0,1,.43,1.65q0,.65-.14,2c-.06.92-.14,1.89-.25,2.91a18.51,18.51,0,0,0-.14,2,26.59,26.59,0,0,1,6.81-7.3A15.85,15.85,0,0,1,1033.6,181.84Z"/><path class="cls-2" d="M1065.44,246.93q-.09-2.32-2.41-5.92a13.05,13.05,0,0,1-2.42-6.21q-.12-3,2.8-6.2a10.77,10.77,0,0,1,7.84-3.35,9.37,9.37,0,0,1,4.66.68,22.57,22.57,0,0,1,2.43,10,26,26,0,0,1-.88,7,41.6,41.6,0,0,1-5.69,13.63q-3.7,5.43-11.83,12.28h-.14q-.73,0-2.08-1.44a4.35,4.35,0,0,1-1.4-2.48,20.79,20.79,0,0,1,2.37-2.41,26.55,26.55,0,0,0,4.67-6.49A17.35,17.35,0,0,0,1065.44,246.93Z"/><path class="cls-2" d="M265.77,338q.27-10.85,9.58-18.08A31.63,31.63,0,0,1,296.09,313a50.82,50.82,0,0,1,7.08.61q3,.51,8.42,2t7.41,2a129.14,129.14,0,0,1,1.18,22.33,1.58,1.58,0,0,1-1.77,1.26q-3.91-.1-4.16-1.41-.7-6.68-5.89-13.18t-12.86-6.7q-6.66-.17-10.3,3.51t-3.8,10a16.31,16.31,0,0,0,.4,4.14,10.22,10.22,0,0,0,1.93,3.89q1.47,1.92,2.38,3.17a17.22,17.22,0,0,0,3.54,3.2q2.63,1.95,3.55,2.7t4.27,2.93a43.59,43.59,0,0,0,4.06,2.49,53.26,53.26,0,0,0,4.77,3.23q3.92,2.49,5.48,3.61t4.54,3.81a20.94,20.94,0,0,1,4.29,5,29.75,29.75,0,0,1,2.39,5.93,24.41,24.41,0,0,1,1,7.63q-.29,11.58-9.82,18.87a33.47,33.47,0,0,1-21.83,7q-8.68-.22-26.52-4.72a126.08,126.08,0,0,1-2.06-13.16,98.34,98.34,0,0,1-.83-10.37c.11-.77.9-1.14,2.34-1.1q3.76.09,4.17,1.26a28.17,28.17,0,0,0,1.88,5.77,42.07,42.07,0,0,0,3.81,6.76,19,19,0,0,0,6.66,6,20.35,20.35,0,0,0,9.57,2.49,16.21,16.21,0,0,0,11.39-3.77q4.59-3.94,4.79-12a12.61,12.61,0,0,0-.82-4.8,16.77,16.77,0,0,0-2.07-4,21.18,21.18,0,0,0-3.53-3.56q-2.34-1.94-3.91-3t-4.63-2.94q-3.07-1.89-4.35-2.64a10,10,0,0,0-1.56-1.2q-4.13-2.71-6.27-4.21a70.12,70.12,0,0,1-5.46-4.41,28.66,28.66,0,0,1-5-5.41,27.38,27.38,0,0,1-3-6.16A21.78,21.78,0,0,1,265.77,338Z"/><path class="cls-2" d="M362.27,347.35a26.84,26.84,0,0,1,12.09,3,22.9,22.9,0,0,1,8.22,7A33.65,33.65,0,0,1,387,366a25,25,0,0,1,1.38,8.51q-.08,3.18-1.19,4t-4.43.68l-34.59-.87q-1,0-1,.84a28.17,28.17,0,0,0,1.63,10.18A19.92,19.92,0,0,0,355,398a17,17,0,0,0,10.84,3.89,39.57,39.57,0,0,0,4.2-.11,21.68,21.68,0,0,0,3.78-.63q1.75-.46,3.06-.86a12.41,12.41,0,0,0,2.71-1.24l2-1.18q.59-.35,2.94-1.88a2.4,2.4,0,0,1,.7.89,2.79,2.79,0,0,1,.4,1.46,4.45,4.45,0,0,1-.94,2.73q-2.27,3.85-8.73,7.6a26.86,26.86,0,0,1-14.43,3.55A29.32,29.32,0,0,1,340,402.32a31.22,31.22,0,0,1-8.55-22.88q.37-14.62,9.06-23.52T362.27,347.35ZM361.09,354a10.23,10.23,0,0,0-6.27,1.87,13.66,13.66,0,0,0-4.32,4.81,27.61,27.61,0,0,0-2.23,5.37,17.66,17.66,0,0,0-.76,4.25c0,.68.26,1,.84,1l23.44.59q1.3,0,1.36-2.14A18.77,18.77,0,0,0,370,359.42Q366.73,354.12,361.09,354Z"/><path class="cls-2" d="M443,349.38q18.67.47,17.92,30.14l-.35,13.75a60.65,60.65,0,0,0,.69,13q.26,1,3.93,2.2a22.14,22.14,0,0,0,5,1.21c.29,0,.44.71.45,2.11a8.22,8.22,0,0,1-.29,2.82q-.86-.17-7.58-.77t-10-.69q-3.47-.09-9.64.19t-7.47.39q-.57-.59-.51-2.76t.63-2.16a17.19,17.19,0,0,0,4.88-1q3.29-1,3.6-2a41.55,41.55,0,0,0,1.42-10.54L446,381.6q.3-12-2.83-16.87t-10.23-5a13.4,13.4,0,0,0-8.17,2.33q-3.54,2.45-3.61,5.34l-.63,24.89a60.73,60.73,0,0,0,.68,13.05q.26,1,3.78,2.19a20.86,20.86,0,0,0,4.68,1.2c.38,0,.58.72.6,2.11a8.23,8.23,0,0,1-.29,2.82q-1.16-.18-7.58-.77t-9.76-.68q-3.47-.09-10.07.18t-7.76.38c-.38-.4-.55-1.32-.51-2.76s.25-2.17.63-2.16a20.19,20.19,0,0,0,5.31-1q3.57-1,3.89-2a47.24,47.24,0,0,0,1.28-10.54l.59-23.59q.17-6.8-2.08-9.32a7,7,0,0,0-3.2-2.25,16.52,16.52,0,0,0-3.45-1q-1.37-.18-1.36-.47.11-4.2.83-4.32,6.67-.41,23.41-3.76a1,1,0,0,1,.37-.21,1.38,1.38,0,0,1,.44-.06h.36c.38,0,.71.36,1,1a4.41,4.41,0,0,1,.39,1.6,49.32,49.32,0,0,0-.71,5.2,1.13,1.13,0,0,0,.13.73,2.16,2.16,0,0,0,.73-.42,32.09,32.09,0,0,1,9.05-5.85A25.33,25.33,0,0,1,443,349.38Z"/><path class="cls-2" d="M512.78,350.85a24.89,24.89,0,0,1,10.51,2.29q.72,0,.78-2.3l.34-13.6a50.53,50.53,0,0,0-.62-9.86q-.67-2.33-7.47-2.5l-1.16,0q-.87,0-.81-2.34c0-1.54.35-2.31.93-2.29q4.35-.33,8.5-.95t6.84-1.28q2.7-.66,4.67-1.33l3-1a7.26,7.26,0,0,1,1.17-.33h.29a1.56,1.56,0,0,1,1.14.83,2.62,2.62,0,0,1,.54,1.53,55.43,55.43,0,0,0-1.79,13.57L538,394.93a53,53,0,0,0,.6,10.73,2.13,2.13,0,0,0,1.41,1.63,8.88,8.88,0,0,0,2.73.79c1,.12,1.88.22,2.74.29l1.45.11a3,3,0,0,1,.25,1.74q-.07,2.9-.94,2.87-2,.1-5.15.45t-6.1.79q-3,.43-5.67.87t-6,1.08q-.87,0-.81-2.48l.06-2.46a.65.65,0,0,0-.2-.58c-.14-.1-.27-.1-.36,0a24.16,24.16,0,0,1-15.19,5,28,28,0,0,1-20.19-9.12q-8.47-8.83-8.14-21.85A34,34,0,0,1,489,360.46Q499.17,350.51,512.78,350.85Zm-1.48,6.91A12.67,12.67,0,0,0,499.56,364q-4.07,6.41-4.35,17.41-.31,12.3,4,19.29a14.22,14.22,0,0,0,12.42,7.19,12,12,0,0,0,8-2.33,8,8,0,0,0,3.2-6.36l.77-30.39a10.05,10.05,0,0,0-.43-3.05,13.44,13.44,0,0,0-1.65-3.44,9.23,9.23,0,0,0-3.83-3.14A15.37,15.37,0,0,0,511.3,357.76Z"/><path class="cls-2" d="M613.48,342.67l-1.37,54.41a42.58,42.58,0,0,0,1,11.61q.68,1.9,9.79,2.13l5.35.13q11.29.29,17.3-2.6,2.34-1.1,5.34-4.93a30.51,30.51,0,0,0,4.71-8.71q.16-.86,2-.82,3.18.08,4,1-.47,1.29-2.25,5.88t-2.71,7q-.93,2.37-2,5.81a40.08,40.08,0,0,0-1.45,5.61q-5.79-.15-23.94-1t-25.54-.79l-19.26.09a3.8,3.8,0,0,1-.37-2.33q.06-2.46.5-2.45a23.88,23.88,0,0,0,5.52-.8q3.64-.85,4.25-2.14,1.09-3,1.35-13.14l1.38-54.7q.22-8.83-.85-12.33-.55-1.17-4-2.34a19.44,19.44,0,0,0-5.18-1.22c-.39,0-.56-.74-.52-2.18a5.85,5.85,0,0,1,.35-2.6q.72,0,8,.64t11.21.72q1.16,0,18.55-.4a7.48,7.48,0,0,1,.38,2.33c0,1.64-.26,2.46-.64,2.45a23.58,23.58,0,0,0-5.24,1Q615.28,329,615,330A53.82,53.82,0,0,0,613.48,342.67Z"/><path class="cls-2" d="M702.93,355.93a31.91,31.91,0,0,1,23,10.06,31,31,0,0,1,9,23.18,33,33,0,1,1-32-33.24Zm-2.05,6.75q-6.8-.17-10.73,6.32A31.11,31.11,0,0,0,686,384.6q-.3,11.72,4.19,20.52t12.88,9q6.8.17,10.8-6.39a30.78,30.78,0,0,0,4.23-15.53,49.65,49.65,0,0,0-1.53-14,25.53,25.53,0,0,0-5.81-10.93A13.42,13.42,0,0,0,700.88,362.68Z"/><path class="cls-2" d="M796.77,367.41q-1.79-4-10-4.16-.43,0-.38-2a5,5,0,0,1,.5-2.59q2,0,7,.61t8.24.64q3.26.08,8.48-.22t7.1-.26a4.2,4.2,0,0,1,.38,2.33Q818,364,817.12,364a17.27,17.27,0,0,0-5.68,1.23,8.4,8.4,0,0,0-5,4L781,419.72a9.85,9.85,0,0,1-1.94,2.41,3.65,3.65,0,0,1-2.49,1.24q-1.45,0-1.71-.91-2.73-6.59-7.43-18.22t-8.12-19.68q-3.42-8-7.8-18.15-1.63-4.09-9.31-4.29-.58,0-.52-2.33a3.35,3.35,0,0,1,.64-2.3q1.3,0,7.66.63t9.83.68q3.47.09,10-.18t7.54-.25a4.71,4.71,0,0,1,.3,2.61c-.08,1.35-.32,2-.7,2a21.28,21.28,0,0,0-5.16.74q-3.28.79-3.32,2.23a2.69,2.69,0,0,0,.25,1.45l13.49,33.65,13.75-28.33Q797.74,369,796.77,367.41Z"/><path class="cls-2" d="M854.3,359.74a26.84,26.84,0,0,1,12.09,3,22.93,22.93,0,0,1,8.22,7,33.68,33.68,0,0,1,4.42,8.65,25,25,0,0,1,1.38,8.51q-.08,3.18-1.19,4t-4.43.68l-34.59-.87q-1,0-1,.84a28.17,28.17,0,0,0,1.63,10.18,19.92,19.92,0,0,0,6.23,8.7,17,17,0,0,0,10.84,3.89,39.31,39.31,0,0,0,4.2-.11,21.48,21.48,0,0,0,3.78-.63q1.75-.46,3.06-.86a12.4,12.4,0,0,0,2.71-1.24l2-1.18q.59-.34,2.94-1.88a2.38,2.38,0,0,1,.7.89,2.79,2.79,0,0,1,.4,1.46,4.46,4.46,0,0,1-.94,2.73q-2.27,3.85-8.74,7.6a26.86,26.86,0,0,1-14.43,3.55,29.32,29.32,0,0,1-21.47-9.88,31.22,31.22,0,0,1-8.55-22.88q.37-14.61,9.06-23.52T854.3,359.74Zm-1.18,6.63a10.23,10.23,0,0,0-6.27,1.87,13.65,13.65,0,0,0-4.32,4.82,27.64,27.64,0,0,0-2.23,5.37,17.65,17.65,0,0,0-.76,4.25q0,1,.84,1l23.44.59q1.3,0,1.36-2.14A18.77,18.77,0,0,0,862,371.81Q858.76,366.51,853.12,366.37Z"/><path class="cls-1" d="M88.32,202.38a3.39,3.39,0,0,1,2.57.9,4.41,4.41,0,0,1,.86,3.08v5.44a1.25,1.25,0,0,0,.25.84.83.83,0,0,0,.66.29,1.72,1.72,0,0,0,.94-.36c.11,0,.17.14.17.3a1.63,1.63,0,0,1-.17.83,6.83,6.83,0,0,1-1.1.69,2.88,2.88,0,0,1-1.32.36,2,2,0,0,1-1.24-.47,2.27,2.27,0,0,1-.8-1l-.21.18c-.12.1-.29.23-.5.37a8,8,0,0,1-.72.44,4.38,4.38,0,0,1-.94.37,4,4,0,0,1-1.09.15,3.3,3.3,0,0,1-2.25-.76,2.62,2.62,0,0,1-.87-2.08,2.54,2.54,0,0,1,.32-1.24,3.32,3.32,0,0,1,.76-1,5.64,5.64,0,0,1,1.19-.73,11.41,11.41,0,0,1,1.28-.54l1.38-.43,1.17-.36a.43.43,0,0,0,.25-.44v-1.52a2.37,2.37,0,0,0-.44-1.52,1.44,1.44,0,0,0-1.19-.55,1.67,1.67,0,0,0-1.3.51,2.07,2.07,0,0,0-.47,1.45.89.89,0,0,1-.41.81,1.72,1.72,0,0,1-.94.26,1.56,1.56,0,0,1-1.43-.66q0-1.32,1.81-2.48A6.92,6.92,0,0,1,88.32,202.38ZM87.08,213a2.14,2.14,0,0,0,1.28-.39,1.09,1.09,0,0,0,.54-.88v-2.82c-.13.06-.4.15-.81.28s-.73.24-1,.33a7.36,7.36,0,0,0-.77.39,1.66,1.66,0,0,0-.65.61,1.51,1.51,0,0,0-.21.77,1.7,1.7,0,0,0,.44,1.3A1.59,1.59,0,0,0,87.08,213Z"/><path class="cls-1" d="M102.32,202.38a5.61,5.61,0,0,1,3.08.87,5.79,5.79,0,0,1,2.07,2.21,5.89,5.89,0,0,1,.7,2.77,6.3,6.3,0,0,1-1.92,4.62,6.09,6.09,0,0,1-4.43,1.92,8.61,8.61,0,0,1-2-.21,6,6,0,0,0-1.3-.21,2.11,2.11,0,0,0-.72.19,2.7,2.7,0,0,1-.55.19,1.36,1.36,0,0,1-.4-.17q-.32-.17-.32-.28c0-.06,0-.22.05-.5s.08-.67.14-1.19a15.72,15.72,0,0,0,.08-1.68V199.67a9.62,9.62,0,0,0-.17-1.88q-.14-.44-1.44-.44H95q-.17,0-.17-.44c0-.29.06-.44.17-.44q.86-.08,1.63-.22t1.28-.28c.34-.09.63-.18.88-.28l.79-.28h.05a.3.3,0,0,1,.22.15.77.77,0,0,1,.14.29,9.62,9.62,0,0,0-.3,2.59V203a.76.76,0,0,0,0,.12c0,.05,0,.08.05.08l.1,0a5.07,5.07,0,0,1,1.12-.55A4,4,0,0,1,102.32,202.38Zm-.61,1.49a2.14,2.14,0,0,0-1.49.52,1.62,1.62,0,0,0-.58,1.24v5.85a1.65,1.65,0,0,0,.73,1.46,3,3,0,0,0,1.72.5,2.35,2.35,0,0,0,2.17-1.3A6.31,6.31,0,0,0,105,209a7.09,7.09,0,0,0-.86-3.75A2.71,2.71,0,0,0,101.71,203.87Z"/><path class="cls-1" d="M116.29,202.38a6.09,6.09,0,0,1,4.43,1.81,5.92,5.92,0,0,1,1.83,4.37,6.29,6.29,0,1,1-6.26-6.18Zm-.36,1.3a2.22,2.22,0,0,0-2,1.26,5.93,5.93,0,0,0-.72,3,8,8,0,0,0,.9,3.89,2.75,2.75,0,0,0,2.5,1.66,2.25,2.25,0,0,0,2-1.27,5.86,5.86,0,0,0,.73-3,9.49,9.49,0,0,0-.36-2.66,4.86,4.86,0,0,0-1.16-2.06A2.56,2.56,0,0,0,115.93,203.67Z"/><path class="cls-1" d="M136.39,205.36v5.46a6.11,6.11,0,0,0,.22,1.93.57.57,0,0,0,.32.22,2.15,2.15,0,0,0,.48.11l.46,0a.52.52,0,0,1,.23,0c.07,0,.11.1.11.25a2.08,2.08,0,0,1-.06.37c0,.17-.09.26-.17.26a6.43,6.43,0,0,0-1,.1l-1.15.19-1,.21-1.1.22q-.19,0-.19-.44v-1.21c0-.09,0-.14-.08-.14a6.14,6.14,0,0,1-1.68,1.24,4.62,4.62,0,0,1-2.18.55,2.89,2.89,0,0,1-1.64-.47,3.33,3.33,0,0,1-1.1-1.21,5.92,5.92,0,0,1-.58-1.6,8.4,8.4,0,0,1-.18-1.74v-3.09a2.62,2.62,0,0,0-.44-1.77,1.53,1.53,0,0,0-.63-.41,2.85,2.85,0,0,0-.66-.17c-.18,0-.28,0-.28-.08q0-.8.14-.83a21.07,21.07,0,0,0,2.26-.33,21.6,21.6,0,0,0,2.18-.5l.11,0,.11,0c.09,0,.16.06.21.19a1,1,0,0,1,.07.3,24.35,24.35,0,0,0-.25,2.43v3.31a5.92,5.92,0,0,0,.61,3.09,2.44,2.44,0,0,0,3.45.4,1.47,1.47,0,0,0,.61-1v-4.55a2.62,2.62,0,0,0-.44-1.77,1.33,1.33,0,0,0-.62-.41,3.05,3.05,0,0,0-.68-.17c-.18,0-.28,0-.28-.08q0-.8.17-.83a29.13,29.13,0,0,0,4.42-.83l.22-.05c.09,0,.17.06.22.19a.51.51,0,0,1,.06.3Q136.39,204.86,136.39,205.36Z"/><path class="cls-1" d="M141.53,204.31h-1.68q-.19,0-.19-.72a.67.67,0,0,1,0-.25,7.75,7.75,0,0,0,2.13-1.46l.79-.81q.43-.46,1-1.17a2,2,0,0,1,.52.07c.17,0,.25.1.25.15v2.71h3.37c.15,0,.22.08.22.25a2.68,2.68,0,0,1-.28,1.21h-3.31V211a2.62,2.62,0,0,0,.47,1.68,1.58,1.58,0,0,0,1.3.58,2.56,2.56,0,0,0,.58-.07,2.88,2.88,0,0,0,.5-.15l.36-.17.19-.08q.11,0,.25.25a.65.65,0,0,1,.11.36,2.53,2.53,0,0,1-1.17.9,4.34,4.34,0,0,1-2,.51,3.48,3.48,0,0,1-2.44-.92,3.69,3.69,0,0,1-1-2.86Z"/><path class="cls-1" d="M164.94,202.38q3.53,0,3.53,5.44v2.84a10.14,10.14,0,0,0,.22,2.48c0,.13.26.26.73.4a4.26,4.26,0,0,0,1,.21c.06,0,.09.13.1.4a2.86,2.86,0,0,1,0,.54l-1.48-.11q-1.28-.08-1.89-.08t-1.86.08l-1.45.11a1,1,0,0,1-.08-.52c0-.28,0-.41.08-.41a3.3,3.3,0,0,0,1-.21c.41-.14.65-.27.7-.4a10.45,10.45,0,0,0,.17-2v-2.7a5.76,5.76,0,0,0-.62-3.16,2.26,2.26,0,0,0-2-.87,2.64,2.64,0,0,0-1.52.47,1.3,1.3,0,0,0-.69,1v4.75a10.14,10.14,0,0,0,.22,2.48c0,.13.28.26.73.4a3.92,3.92,0,0,0,.92.21c.06,0,.09.13.1.4a1.58,1.58,0,0,1,0,.54l-1.45-.11q-1.23-.08-1.86-.08t-1.92.08l-1.48.11a.8.8,0,0,1-.11-.52c0-.28,0-.41.11-.41a3.86,3.86,0,0,0,1-.21c.45-.14.69-.27.73-.4a8.84,8.84,0,0,0,.19-2V199.67a10.89,10.89,0,0,0-.14-1.88q-.14-.44-1.44-.44h-.25q-.17,0-.17-.44c0-.29.06-.44.17-.44q.86-.08,1.63-.22T159,196c.34-.09.63-.18.88-.28l.79-.28h.05a.3.3,0,0,1,.22.15.75.75,0,0,1,.14.29,8.9,8.9,0,0,0-.33,2.59V204c0,.11,0,.17.11.17s.05,0,.11-.08a5.24,5.24,0,0,1,1.7-1.2A5.08,5.08,0,0,1,164.94,202.38Z"/><path class="cls-1" d="M177.81,202.38a5.12,5.12,0,0,1,2.32.51,4.39,4.39,0,0,1,1.6,1.3,6.47,6.47,0,0,1,.88,1.63,4.76,4.76,0,0,1,.3,1.61q0,.61-.21.76a1.57,1.57,0,0,1-.84.15h-6.6c-.13,0-.19.06-.19.17a5.36,5.36,0,0,0,.36,1.93,3.79,3.79,0,0,0,1.23,1.63,3.25,3.25,0,0,0,2.08.69,7.58,7.58,0,0,0,.8,0,4.1,4.1,0,0,0,.72-.14l.58-.18a2.33,2.33,0,0,0,.51-.25l.37-.23.55-.37a.47.47,0,0,1,.14.17.53.53,0,0,1,.08.28.85.85,0,0,1-.17.52A4.48,4.48,0,0,1,180.7,214a5.12,5.12,0,0,1-2.73.75,5.58,5.58,0,0,1-4.14-1.78,6,6,0,0,1-1.74-4.32,6.38,6.38,0,0,1,1.62-4.53A5.35,5.35,0,0,1,177.81,202.38Zm-.19,1.27a2,2,0,0,0-1.19.39,2.61,2.61,0,0,0-.8.94,5.31,5.31,0,0,0-.4,1,3.35,3.35,0,0,0-.12.81c0,.13.05.19.17.19h4.47c.17,0,.25-.14.25-.41a3.57,3.57,0,0,0-.65-2A2,2,0,0,0,177.61,203.65Z"/><path class="cls-1" d="M190.26,202.38a3.39,3.39,0,0,1,2.57.9,4.41,4.41,0,0,1,.86,3.08v5.44a1.25,1.25,0,0,0,.25.84.83.83,0,0,0,.66.29,1.72,1.72,0,0,0,.94-.36c.11,0,.17.14.17.3a1.63,1.63,0,0,1-.17.83,6.83,6.83,0,0,1-1.1.69,2.88,2.88,0,0,1-1.32.36,2,2,0,0,1-1.24-.47,2.27,2.27,0,0,1-.8-1l-.21.18c-.12.1-.29.23-.5.37a8,8,0,0,1-.72.44,4.38,4.38,0,0,1-.94.37,4,4,0,0,1-1.09.15,3.3,3.3,0,0,1-2.25-.76,2.62,2.62,0,0,1-.87-2.08,2.54,2.54,0,0,1,.32-1.24,3.32,3.32,0,0,1,.76-1,5.64,5.64,0,0,1,1.19-.73,11.41,11.41,0,0,1,1.28-.54l1.38-.43,1.17-.36a.43.43,0,0,0,.25-.44v-1.52a2.37,2.37,0,0,0-.44-1.52,1.44,1.44,0,0,0-1.19-.55,1.67,1.67,0,0,0-1.3.51,2.07,2.07,0,0,0-.47,1.45.89.89,0,0,1-.41.81,1.72,1.72,0,0,1-.94.26,1.56,1.56,0,0,1-1.43-.66q0-1.32,1.81-2.48A6.92,6.92,0,0,1,190.26,202.38ZM189,213a2.14,2.14,0,0,0,1.28-.39,1.09,1.09,0,0,0,.54-.88v-2.82c-.13.06-.4.15-.81.28s-.73.24-1,.33a7.36,7.36,0,0,0-.77.39,1.66,1.66,0,0,0-.65.61,1.51,1.51,0,0,0-.21.77,1.7,1.7,0,0,0,.44,1.3A1.59,1.59,0,0,0,189,213Z"/><path class="cls-1" d="M202,210.6a11.32,11.32,0,0,0,.19,2.48q.05.19.68.43a3,3,0,0,0,.84.23q.08,0,.1.39a1.49,1.49,0,0,1,0,.52l-1-.07-1.17-.07-1,0-1,0-1.16.07-1,.07a.77.77,0,0,1-.11-.51c0-.27,0-.4.11-.4a3,3,0,0,0,.92-.23c.41-.16.64-.3.68-.43a9.14,9.14,0,0,0,.22-2V199.56a9.54,9.54,0,0,0-.17-1.88q-.14-.44-1.38-.44h-.28c-.11,0-.17-.11-.17-.33s.06-.44.17-.44q.86-.08,1.63-.22t1.28-.28l.88-.26.59-.21.19-.08H202c.07,0,.15.05.24.17a.86.86,0,0,1,.15.28,8.72,8.72,0,0,0-.33,2.59Z"/><path class="cls-1" d="M210.56,210.66a10.14,10.14,0,0,0,.22,2.48c0,.13.29.26.75.4a4.08,4.08,0,0,0,.94.21c.07,0,.11.13.12.4a1.58,1.58,0,0,1,0,.54l-1.48-.11q-1.28-.08-1.89-.08t-1.95.08l-1.45.11a.81.81,0,0,1-.11-.52c0-.28,0-.41.11-.41a4,4,0,0,0,1-.21c.46-.14.71-.27.75-.4a9.05,9.05,0,0,0,.19-2v-4.5a2.62,2.62,0,0,0-.44-1.77,1.53,1.53,0,0,0-.63-.41,2.85,2.85,0,0,0-.66-.17c-.18,0-.28,0-.28-.08q0-.8.17-.83a29.13,29.13,0,0,0,4.42-.83l.22-.05c.09,0,.17.06.22.19a.5.5,0,0,1,.06.3,23.65,23.65,0,0,0-.22,2.37Zm-2.87-11.55a1.68,1.68,0,0,1-.5-1.21,1.7,1.7,0,0,1,1.71-1.7,1.66,1.66,0,0,1,1.21.5,1.64,1.64,0,0,1,.5,1.2,1.68,1.68,0,0,1-.5,1.21,1.7,1.7,0,0,1-2.43,0Z"/><path class="cls-1" d="M223.23,202.38q3.56,0,3.56,5.66v2.62a11.56,11.56,0,0,0,.19,2.48c0,.13.29.26.76.4a4.25,4.25,0,0,0,1,.21c.06,0,.09.13.1.4a1.53,1.53,0,0,1,0,.54l-1.45-.11q-1.28-.08-1.92-.08t-1.84.08l-1.42.11a.81.81,0,0,1-.11-.52c0-.28,0-.41.11-.41a3.3,3.3,0,0,0,.92-.21c.41-.14.64-.27.68-.4a7.9,7.9,0,0,0,.22-2V208.5a6,6,0,0,0-.62-3.2,2.22,2.22,0,0,0-2-.91,2.56,2.56,0,0,0-1.55.48,1.33,1.33,0,0,0-.66,1v4.75a11.55,11.55,0,0,0,.19,2.48c0,.13.28.26.73.4a4,4,0,0,0,.9.21c.07,0,.12.13.12.4a1.53,1.53,0,0,1,0,.54l-1.45-.11q-1.23-.08-1.86-.08t-1.92.08l-1.48.11a.81.81,0,0,1-.11-.52c0-.28,0-.41.11-.41a3.87,3.87,0,0,0,1-.21c.45-.14.69-.27.73-.4a9.05,9.05,0,0,0,.19-2v-4.5a2.62,2.62,0,0,0-.44-1.77,1.33,1.33,0,0,0-.62-.41,3.08,3.08,0,0,0-.66-.17c-.17,0-.26,0-.26-.08q0-.8.14-.83a39.17,39.17,0,0,0,4.44-.83l.07,0h.15c.07,0,.14.06.19.19a.83.83,0,0,1,.08.3,9.58,9.58,0,0,0-.11,1,.22.22,0,0,0,0,.14.4.4,0,0,0,.14-.08,6.11,6.11,0,0,1,1.7-1.16A4.83,4.83,0,0,1,223.23,202.38Z"/><path class="cls-1" d="M235.87,202.43a8.74,8.74,0,0,1,2.29.36,8.55,8.55,0,0,0,2.21.36h1.57s.1.12.19.36a1.7,1.7,0,0,1,.14.55c0,.26-.05.39-.17.39h-1.79c-.07,0-.11,0-.11.08s.08.26.25.72a3.9,3.9,0,0,1,.25,1.33,4,4,0,0,1-1.37,2.94,4.73,4.73,0,0,1-3.41,1.31,11.49,11.49,0,0,1-1.71-.11,1.48,1.48,0,0,0-.61.51,1.18,1.18,0,0,0-.28.68.57.57,0,0,0,.26.47,1.86,1.86,0,0,0,.81.28c.37.05.68.09.94.11l1.1.06h.41a9.75,9.75,0,0,1,4,.76,2.17,2.17,0,0,1,1.28,2,4.34,4.34,0,0,1-2,3.59,7.54,7.54,0,0,1-4.66,1.52,7.18,7.18,0,0,1-3.52-.77,2.48,2.48,0,0,1-1.5-2.26,2.15,2.15,0,0,1,.79-1.54,4.55,4.55,0,0,1,1.7-1,3.14,3.14,0,0,1-1.32-.84,2,2,0,0,1-.61-1.45q0-1.19,2-2.46a3.65,3.65,0,0,1-1.49-1.42,4,4,0,0,1-.69-2.25,3.72,3.72,0,0,1,1.43-3.09A5.48,5.48,0,0,1,235.87,202.43Zm3.81,14.43q0-1-1.39-1.28a17.51,17.51,0,0,0-3.74-.32l-.14,0-.14.08-.55.23a2.42,2.42,0,0,0-.44.3,1.33,1.33,0,0,0-.37.48,1.6,1.6,0,0,0-.12.66,1.93,1.93,0,0,0,1,1.66,4.3,4.3,0,0,0,2.35.66,4.17,4.17,0,0,0,2.53-.72A2.15,2.15,0,0,0,239.68,216.86Zm-5.91-10.43a4.37,4.37,0,0,0,.55,2.28,1.72,1.72,0,0,0,1.54.92,1.64,1.64,0,0,0,1.5-.79,3.65,3.65,0,0,0,.48-1.95,4.54,4.54,0,0,0-.55-2.37,1.77,1.77,0,0,0-1.6-.91,1.56,1.56,0,0,0-1.46.86A4,4,0,0,0,233.78,206.43Z"/><path class="cls-1" d="M255,210.66a10.14,10.14,0,0,0,.22,2.48c0,.13.29.26.75.4a4.08,4.08,0,0,0,.94.21c.07,0,.11.13.12.4a1.58,1.58,0,0,1,0,.54l-1.48-.11q-1.28-.08-1.89-.08t-1.95.08l-1.45.11a.81.81,0,0,1-.11-.52c0-.28,0-.41.11-.41a4,4,0,0,0,1-.21c.46-.14.71-.27.75-.4a9.05,9.05,0,0,0,.19-2v-4.5a2.62,2.62,0,0,0-.44-1.77,1.53,1.53,0,0,0-.63-.41,2.85,2.85,0,0,0-.66-.17c-.18,0-.28,0-.28-.08q0-.8.17-.83a29.13,29.13,0,0,0,4.42-.83l.22-.05c.09,0,.17.06.22.19a.5.5,0,0,1,.06.3,23.65,23.65,0,0,0-.22,2.37Zm-2.87-11.55a1.68,1.68,0,0,1-.5-1.21,1.7,1.7,0,0,1,1.71-1.7,1.66,1.66,0,0,1,1.21.5,1.64,1.64,0,0,1,.5,1.2,1.68,1.68,0,0,1-.5,1.21,1.7,1.7,0,0,1-2.43,0Z"/><path class="cls-1" d="M267.68,202.38q3.56,0,3.56,5.66v2.62a11.56,11.56,0,0,0,.19,2.48c0,.13.29.26.76.4a4.25,4.25,0,0,0,1,.21c.06,0,.09.13.1.4a1.53,1.53,0,0,1,0,.54l-1.45-.11q-1.28-.08-1.92-.08t-1.84.08l-1.42.11a.81.81,0,0,1-.11-.52c0-.28,0-.41.11-.41a3.3,3.3,0,0,0,.92-.21c.41-.14.64-.27.68-.4a7.9,7.9,0,0,0,.22-2V208.5a6,6,0,0,0-.62-3.2,2.22,2.22,0,0,0-2-.91,2.56,2.56,0,0,0-1.55.48,1.33,1.33,0,0,0-.66,1v4.75a11.55,11.55,0,0,0,.19,2.48c0,.13.28.26.73.4a4,4,0,0,0,.9.21c.07,0,.12.13.12.4a1.53,1.53,0,0,1,0,.54l-1.45-.11q-1.23-.08-1.86-.08t-1.92.08l-1.48.11a.81.81,0,0,1-.11-.52c0-.28,0-.41.11-.41a3.87,3.87,0,0,0,1-.21c.45-.14.69-.27.73-.4a9.05,9.05,0,0,0,.19-2v-4.5a2.62,2.62,0,0,0-.44-1.77,1.33,1.33,0,0,0-.62-.41,3.08,3.08,0,0,0-.66-.17c-.17,0-.26,0-.26-.08q0-.8.14-.83a39.17,39.17,0,0,0,4.44-.83l.07,0h.15c.07,0,.14.06.19.19a.83.83,0,0,1,.08.3,9.58,9.58,0,0,0-.11,1,.22.22,0,0,0,0,.14.4.4,0,0,0,.14-.08,6.11,6.11,0,0,1,1.7-1.16A4.83,4.83,0,0,1,267.68,202.38Z"/><path class="cls-1" d="M276.66,204.31H275q-.19,0-.19-.72a.67.67,0,0,1,0-.25,7.75,7.75,0,0,0,2.13-1.46l.79-.81q.43-.46,1-1.17a2,2,0,0,1,.52.07c.17,0,.25.1.25.15v2.71h3.37c.15,0,.22.08.22.25a2.68,2.68,0,0,1-.28,1.21H279.5V211a2.62,2.62,0,0,0,.47,1.68,1.58,1.58,0,0,0,1.3.58,2.56,2.56,0,0,0,.58-.07,2.88,2.88,0,0,0,.5-.15l.36-.17.19-.08q.11,0,.25.25a.65.65,0,0,1,.11.36,2.53,2.53,0,0,1-1.17.9,4.34,4.34,0,0,1-2,.51,3.48,3.48,0,0,1-2.44-.92,3.69,3.69,0,0,1-1-2.86Z"/><path class="cls-1" d="M290.66,202.38a5.12,5.12,0,0,1,2.32.51,4.39,4.39,0,0,1,1.6,1.3,6.47,6.47,0,0,1,.88,1.63,4.76,4.76,0,0,1,.3,1.61q0,.61-.21.76a1.57,1.57,0,0,1-.84.15h-6.6c-.13,0-.19.06-.19.17a5.36,5.36,0,0,0,.36,1.93,3.79,3.79,0,0,0,1.23,1.63,3.25,3.25,0,0,0,2.08.69,7.58,7.58,0,0,0,.8,0,4.1,4.1,0,0,0,.72-.14l.58-.18a2.33,2.33,0,0,0,.51-.25l.37-.23.55-.37a.47.47,0,0,1,.14.17.53.53,0,0,1,.08.28.85.85,0,0,1-.17.52,4.48,4.48,0,0,1-1.63,1.49,5.12,5.12,0,0,1-2.73.75,5.58,5.58,0,0,1-4.14-1.78,6,6,0,0,1-1.74-4.32,6.38,6.38,0,0,1,1.62-4.53A5.35,5.35,0,0,1,290.66,202.38Zm-.19,1.27a2,2,0,0,0-1.19.39,2.61,2.61,0,0,0-.8.94,5.31,5.31,0,0,0-.4,1,3.35,3.35,0,0,0-.12.81c0,.13.05.19.17.19h4.47c.17,0,.25-.14.25-.41a3.57,3.57,0,0,0-.65-2A2,2,0,0,0,290.46,203.65Z"/><path class="cls-1" d="M305.4,202.38a2.75,2.75,0,0,1,2.26.91q0,2.35-1.33,2.35a1.64,1.64,0,0,1-1.08-.55,1.72,1.72,0,0,0-1.19-.55,1.48,1.48,0,0,0-1.34.87,3.67,3.67,0,0,0-.48,1.81v3.45a11.55,11.55,0,0,0,.19,2.48c0,.13.28.26.73.4a3.92,3.92,0,0,0,.92.21c.06,0,.09.13.1.4a2.77,2.77,0,0,1,0,.54l-1.46-.11q-1.24-.08-1.88-.08t-1.92.08l-1.48.11a.81.81,0,0,1-.11-.52c0-.28,0-.41.11-.41a3.87,3.87,0,0,0,1-.21c.45-.14.69-.27.73-.4a9.05,9.05,0,0,0,.19-2v-4.5a2.62,2.62,0,0,0-.44-1.77,1.33,1.33,0,0,0-.62-.41,3.08,3.08,0,0,0-.66-.17c-.17,0-.26,0-.26-.08q0-.8.14-.83a39.17,39.17,0,0,0,4.44-.83l.22-.05c.07,0,.14.06.19.19a.66.66,0,0,1,.07.32l0,.39q0,.26-.07.55a3.57,3.57,0,0,0,0,.37,5.05,5.05,0,0,1,1.35-1.34A3,3,0,0,1,305.4,202.38Z"/><path class="cls-1" d="M314.73,202.43a8.74,8.74,0,0,1,2.29.36,8.55,8.55,0,0,0,2.21.36h1.57s.1.12.19.36a1.7,1.7,0,0,1,.14.55c0,.26-.05.39-.17.39h-1.79c-.07,0-.11,0-.11.08s.08.26.25.72a3.9,3.9,0,0,1,.25,1.33,4,4,0,0,1-1.37,2.94,4.73,4.73,0,0,1-3.41,1.31,11.49,11.49,0,0,1-1.71-.11,1.48,1.48,0,0,0-.61.51,1.18,1.18,0,0,0-.28.68.57.57,0,0,0,.26.47,1.86,1.86,0,0,0,.81.28c.37.05.68.09.94.11l1.1.06h.41a9.75,9.75,0,0,1,4,.76,2.17,2.17,0,0,1,1.28,2,4.34,4.34,0,0,1-2,3.59,7.54,7.54,0,0,1-4.66,1.52,7.18,7.18,0,0,1-3.52-.77,2.48,2.48,0,0,1-1.5-2.26,2.15,2.15,0,0,1,.79-1.54,4.55,4.55,0,0,1,1.7-1,3.14,3.14,0,0,1-1.32-.84,2,2,0,0,1-.61-1.45q0-1.19,2-2.46a3.65,3.65,0,0,1-1.49-1.42,4,4,0,0,1-.69-2.25,3.72,3.72,0,0,1,1.43-3.09A5.48,5.48,0,0,1,314.73,202.43Zm3.81,14.43q0-1-1.39-1.28a17.51,17.51,0,0,0-3.74-.32l-.14,0-.14.08-.55.23a2.42,2.42,0,0,0-.44.3,1.33,1.33,0,0,0-.37.48,1.6,1.6,0,0,0-.12.66,1.93,1.93,0,0,0,1,1.66,4.3,4.3,0,0,0,2.35.66,4.17,4.17,0,0,0,2.53-.72A2.15,2.15,0,0,0,318.54,216.86Zm-5.91-10.43a4.37,4.37,0,0,0,.55,2.28,1.72,1.72,0,0,0,1.54.92,1.64,1.64,0,0,0,1.5-.79,3.65,3.65,0,0,0,.48-1.95,4.54,4.54,0,0,0-.55-2.37,1.77,1.77,0,0,0-1.6-.91,1.56,1.56,0,0,0-1.46.86A4,4,0,0,0,312.64,206.43Z"/><path class="cls-1" d="M328.57,202.38a5.12,5.12,0,0,1,2.32.51,4.39,4.39,0,0,1,1.6,1.3,6.47,6.47,0,0,1,.88,1.63,4.76,4.76,0,0,1,.3,1.61q0,.61-.21.76a1.57,1.57,0,0,1-.84.15H326c-.13,0-.19.06-.19.17a5.36,5.36,0,0,0,.36,1.93,3.79,3.79,0,0,0,1.23,1.63,3.25,3.25,0,0,0,2.08.69,7.58,7.58,0,0,0,.8,0,4.1,4.1,0,0,0,.72-.14l.58-.18a2.33,2.33,0,0,0,.51-.25l.37-.23.55-.37a.47.47,0,0,1,.14.17.53.53,0,0,1,.08.28.85.85,0,0,1-.17.52,4.48,4.48,0,0,1-1.63,1.49,5.12,5.12,0,0,1-2.73.75,5.58,5.58,0,0,1-4.14-1.78,6,6,0,0,1-1.74-4.32,6.38,6.38,0,0,1,1.62-4.53A5.35,5.35,0,0,1,328.57,202.38Zm-.19,1.27a2,2,0,0,0-1.19.39,2.61,2.61,0,0,0-.8.94,5.31,5.31,0,0,0-.4,1,3.35,3.35,0,0,0-.12.81c0,.13.05.19.17.19h4.47c.17,0,.25-.14.25-.41a3.57,3.57,0,0,0-.65-2A2,2,0,0,0,328.37,203.65Z"/><path class="cls-1" d="M344.25,202.38q3.56,0,3.56,5.66v2.62a11.56,11.56,0,0,0,.19,2.48c0,.13.29.26.76.4a4.25,4.25,0,0,0,1,.21c.06,0,.09.13.1.4a1.53,1.53,0,0,1,0,.54l-1.45-.11q-1.28-.08-1.92-.08t-1.84.08l-1.42.11a.81.81,0,0,1-.11-.52c0-.28,0-.41.11-.41a3.3,3.3,0,0,0,.92-.21c.41-.14.64-.27.68-.4a7.9,7.9,0,0,0,.22-2V208.5a6,6,0,0,0-.62-3.2,2.22,2.22,0,0,0-2-.91,2.56,2.56,0,0,0-1.55.48,1.33,1.33,0,0,0-.66,1v4.75a11.55,11.55,0,0,0,.19,2.48c0,.13.28.26.73.4a4,4,0,0,0,.9.21c.07,0,.12.13.12.4a1.53,1.53,0,0,1,0,.54l-1.45-.11q-1.23-.08-1.86-.08t-1.92.08l-1.48.11a.81.81,0,0,1-.11-.52c0-.28,0-.41.11-.41a3.87,3.87,0,0,0,1-.21c.45-.14.69-.27.73-.4a9.05,9.05,0,0,0,.19-2v-4.5a2.62,2.62,0,0,0-.44-1.77,1.33,1.33,0,0,0-.62-.41,3.08,3.08,0,0,0-.66-.17c-.17,0-.26,0-.26-.08q0-.8.14-.83a39.17,39.17,0,0,0,4.44-.83l.07,0h.15c.07,0,.14.06.19.19a.83.83,0,0,1,.08.3,9.58,9.58,0,0,0-.11,1,.22.22,0,0,0,0,.14.4.4,0,0,0,.14-.08,6.11,6.11,0,0,1,1.7-1.16A4.83,4.83,0,0,1,344.25,202.38Z"/><path class="cls-1" d="M357.28,202.38a5.12,5.12,0,0,1,2.32.51,4.39,4.39,0,0,1,1.6,1.3,6.47,6.47,0,0,1,.88,1.63,4.76,4.76,0,0,1,.3,1.61q0,.61-.21.76a1.57,1.57,0,0,1-.84.15h-6.6c-.13,0-.19.06-.19.17a5.36,5.36,0,0,0,.36,1.93,3.79,3.79,0,0,0,1.23,1.63,3.25,3.25,0,0,0,2.08.69,7.58,7.58,0,0,0,.8,0,4.1,4.1,0,0,0,.72-.14l.58-.18a2.33,2.33,0,0,0,.51-.25l.37-.23.55-.37a.47.47,0,0,1,.14.17.53.53,0,0,1,.08.28.85.85,0,0,1-.17.52,4.48,4.48,0,0,1-1.63,1.49,5.12,5.12,0,0,1-2.73.75,5.58,5.58,0,0,1-4.14-1.78,6,6,0,0,1-1.74-4.32,6.38,6.38,0,0,1,1.62-4.53A5.35,5.35,0,0,1,357.28,202.38Zm-.19,1.27a2,2,0,0,0-1.19.39,2.61,2.61,0,0,0-.8.94,5.31,5.31,0,0,0-.4,1,3.35,3.35,0,0,0-.12.81c0,.13.05.19.17.19h4.47c.17,0,.25-.14.25-.41a3.57,3.57,0,0,0-.65-2A2,2,0,0,0,357.09,203.65Z"/><path class="cls-1" d="M372,202.38a2.75,2.75,0,0,1,2.26.91q0,2.35-1.33,2.35a1.64,1.64,0,0,1-1.08-.55,1.72,1.72,0,0,0-1.19-.55,1.48,1.48,0,0,0-1.34.87,3.67,3.67,0,0,0-.48,1.81v3.45a11.55,11.55,0,0,0,.19,2.48c0,.13.28.26.73.4a3.92,3.92,0,0,0,.92.21c.06,0,.09.13.1.4a2.77,2.77,0,0,1,0,.54l-1.46-.11q-1.24-.08-1.88-.08t-1.92.08l-1.48.11a.81.81,0,0,1-.11-.52c0-.28,0-.41.11-.41a3.87,3.87,0,0,0,1-.21c.45-.14.69-.27.73-.4a9.05,9.05,0,0,0,.19-2v-4.5a2.62,2.62,0,0,0-.44-1.77,1.33,1.33,0,0,0-.62-.41,3.08,3.08,0,0,0-.66-.17c-.17,0-.26,0-.26-.08q0-.8.14-.83a39.17,39.17,0,0,0,4.44-.83l.22-.05c.07,0,.14.06.19.19a.66.66,0,0,1,.07.32l0,.39q0,.26-.07.55a3.57,3.57,0,0,0,0,.37,5.05,5.05,0,0,1,1.35-1.34A3,3,0,0,1,372,202.38Z"/><path class="cls-1" d="M381.88,202.38a3.39,3.39,0,0,1,2.57.9,4.41,4.41,0,0,1,.86,3.08v5.44a1.25,1.25,0,0,0,.25.84.83.83,0,0,0,.66.29,1.72,1.72,0,0,0,.94-.36c.11,0,.17.14.17.3a1.63,1.63,0,0,1-.17.83,6.83,6.83,0,0,1-1.1.69,2.88,2.88,0,0,1-1.32.36,2,2,0,0,1-1.24-.47,2.27,2.27,0,0,1-.8-1l-.21.18c-.12.1-.29.23-.5.37a8,8,0,0,1-.72.44,4.38,4.38,0,0,1-.94.37,4,4,0,0,1-1.09.15A3.3,3.3,0,0,1,377,214a2.62,2.62,0,0,1-.87-2.08,2.54,2.54,0,0,1,.32-1.24,3.32,3.32,0,0,1,.76-1,5.64,5.64,0,0,1,1.19-.73,11.41,11.41,0,0,1,1.28-.54L381,208l1.17-.36a.43.43,0,0,0,.25-.44v-1.52a2.37,2.37,0,0,0-.44-1.52,1.44,1.44,0,0,0-1.19-.55,1.67,1.67,0,0,0-1.3.51,2.07,2.07,0,0,0-.47,1.45.89.89,0,0,1-.41.81,1.72,1.72,0,0,1-.94.26,1.56,1.56,0,0,1-1.43-.66q0-1.32,1.81-2.48A6.92,6.92,0,0,1,381.88,202.38ZM380.64,213a2.14,2.14,0,0,0,1.28-.39,1.09,1.09,0,0,0,.54-.88v-2.82c-.13.06-.4.15-.81.28s-.73.24-1,.33a7.36,7.36,0,0,0-.77.39,1.66,1.66,0,0,0-.65.61,1.51,1.51,0,0,0-.21.77,1.7,1.7,0,0,0,.44,1.3A1.59,1.59,0,0,0,380.64,213Z"/><path class="cls-1" d="M390.44,204.31h-1.68q-.19,0-.19-.72a.67.67,0,0,1,0-.25,7.75,7.75,0,0,0,2.13-1.46l.79-.81q.43-.46,1-1.17a2,2,0,0,1,.52.07c.17,0,.25.1.25.15v2.71h3.37c.15,0,.22.08.22.25a2.68,2.68,0,0,1-.28,1.21h-3.31V211a2.62,2.62,0,0,0,.47,1.68,1.58,1.58,0,0,0,1.3.58,2.56,2.56,0,0,0,.58-.07,2.88,2.88,0,0,0,.5-.15l.36-.17.19-.08q.11,0,.25.25a.65.65,0,0,1,.11.36,2.53,2.53,0,0,1-1.17.9,4.34,4.34,0,0,1-2,.51,3.48,3.48,0,0,1-2.44-.92,3.69,3.69,0,0,1-1-2.86Z"/><path class="cls-1" d="M403.69,210.66a10.14,10.14,0,0,0,.22,2.48c0,.13.29.26.75.4a4.08,4.08,0,0,0,.94.21c.07,0,.11.13.12.4a1.58,1.58,0,0,1,0,.54l-1.48-.11q-1.28-.08-1.89-.08t-1.95.08l-1.45.11a.81.81,0,0,1-.11-.52c0-.28,0-.41.11-.41a4,4,0,0,0,1-.21c.46-.14.71-.27.75-.4a9.05,9.05,0,0,0,.19-2v-4.5a2.62,2.62,0,0,0-.44-1.77,1.53,1.53,0,0,0-.63-.41,2.85,2.85,0,0,0-.66-.17c-.18,0-.28,0-.28-.08q0-.8.17-.83a29.13,29.13,0,0,0,4.42-.83l.22-.05c.09,0,.17.06.22.19a.5.5,0,0,1,.06.3,23.65,23.65,0,0,0-.22,2.37Zm-2.87-11.55a1.68,1.68,0,0,1-.5-1.21,1.7,1.7,0,0,1,1.71-1.7,1.66,1.66,0,0,1,1.21.5,1.64,1.64,0,0,1,.5,1.2,1.68,1.68,0,0,1-.5,1.21,1.7,1.7,0,0,1-2.43,0Z"/><path class="cls-1" d="M413.58,202.38a6.09,6.09,0,0,1,4.43,1.81,5.92,5.92,0,0,1,1.83,4.37,6.29,6.29,0,1,1-6.26-6.18Zm-.36,1.3a2.22,2.22,0,0,0-2,1.26,5.93,5.93,0,0,0-.72,3,8,8,0,0,0,.9,3.89,2.75,2.75,0,0,0,2.5,1.66,2.25,2.25,0,0,0,2-1.27,5.86,5.86,0,0,0,.73-3,9.49,9.49,0,0,0-.36-2.66,4.86,4.86,0,0,0-1.16-2.06A2.56,2.56,0,0,0,413.22,203.67Z"/><path class="cls-1" d="M430.64,202.38q3.56,0,3.56,5.66v2.62a11.56,11.56,0,0,0,.19,2.48c0,.13.29.26.76.4a4.25,4.25,0,0,0,1,.21c.06,0,.09.13.1.4a1.53,1.53,0,0,1,0,.54l-1.45-.11q-1.28-.08-1.92-.08t-1.84.08l-1.42.11a.81.81,0,0,1-.11-.52c0-.28,0-.41.11-.41a3.3,3.3,0,0,0,.92-.21c.41-.14.64-.27.68-.4a7.9,7.9,0,0,0,.22-2V208.5a6,6,0,0,0-.62-3.2,2.22,2.22,0,0,0-2-.91,2.56,2.56,0,0,0-1.55.48,1.33,1.33,0,0,0-.66,1v4.75a11.55,11.55,0,0,0,.19,2.48c0,.13.28.26.73.4a4,4,0,0,0,.9.21c.07,0,.12.13.12.4a1.53,1.53,0,0,1,0,.54l-1.45-.11q-1.23-.08-1.86-.08t-1.92.08l-1.48.11a.81.81,0,0,1-.11-.52c0-.28,0-.41.11-.41a3.87,3.87,0,0,0,1-.21c.45-.14.69-.27.73-.4a9.05,9.05,0,0,0,.19-2v-4.5a2.62,2.62,0,0,0-.44-1.77,1.33,1.33,0,0,0-.62-.41,3.08,3.08,0,0,0-.66-.17c-.17,0-.26,0-.26-.08q0-.8.14-.83a39.17,39.17,0,0,0,4.44-.83l.07,0h.15c.07,0,.14.06.19.19a.83.83,0,0,1,.08.3,9.58,9.58,0,0,0-.11,1,.22.22,0,0,0,0,.14.4.4,0,0,0,.14-.08,6.11,6.11,0,0,1,1.7-1.16A4.83,4.83,0,0,1,430.64,202.38Z"/><path class="cls-1" d="M443.81,202.38a3.39,3.39,0,0,1,2.57.9,4.41,4.41,0,0,1,.86,3.08v5.44a1.25,1.25,0,0,0,.25.84.83.83,0,0,0,.66.29,1.72,1.72,0,0,0,.94-.36c.11,0,.17.14.17.3a1.63,1.63,0,0,1-.17.83,6.83,6.83,0,0,1-1.1.69,2.88,2.88,0,0,1-1.32.36,2,2,0,0,1-1.24-.47,2.27,2.27,0,0,1-.8-1l-.21.18c-.12.1-.29.23-.5.37a8,8,0,0,1-.72.44,4.38,4.38,0,0,1-.94.37,4,4,0,0,1-1.09.15,3.3,3.3,0,0,1-2.25-.76,2.62,2.62,0,0,1-.87-2.08,2.54,2.54,0,0,1,.32-1.24,3.32,3.32,0,0,1,.76-1,5.64,5.64,0,0,1,1.19-.73,11.41,11.41,0,0,1,1.28-.54L443,208l1.17-.36a.43.43,0,0,0,.25-.44v-1.52a2.37,2.37,0,0,0-.44-1.52,1.44,1.44,0,0,0-1.19-.55,1.67,1.67,0,0,0-1.3.51,2.07,2.07,0,0,0-.47,1.45.89.89,0,0,1-.41.81,1.72,1.72,0,0,1-.94.26,1.56,1.56,0,0,1-1.43-.66q0-1.32,1.81-2.48A6.92,6.92,0,0,1,443.81,202.38ZM442.57,213a2.14,2.14,0,0,0,1.28-.39,1.09,1.09,0,0,0,.54-.88v-2.82c-.13.06-.4.15-.81.28s-.73.24-1,.33a7.36,7.36,0,0,0-.77.39,1.66,1.66,0,0,0-.65.61,1.51,1.51,0,0,0-.21.77,1.7,1.7,0,0,0,.44,1.3A1.59,1.59,0,0,0,442.57,213Z"/><path class="cls-1" d="M455.57,210.6a11.32,11.32,0,0,0,.19,2.48q.05.19.68.43a3,3,0,0,0,.84.23q.08,0,.1.39a1.49,1.49,0,0,1,0,.52l-1-.07-1.17-.07-1,0-1,0-1.16.07-1,.07a.77.77,0,0,1-.11-.51c0-.27,0-.4.11-.4a3,3,0,0,0,.92-.23c.41-.16.64-.3.68-.43a9.14,9.14,0,0,0,.22-2V199.56a9.54,9.54,0,0,0-.17-1.88q-.14-.44-1.38-.44h-.28c-.11,0-.17-.11-.17-.33s.06-.44.17-.44q.86-.08,1.63-.22t1.28-.28l.88-.26.59-.21.19-.08h.05c.07,0,.15.05.24.17a.86.86,0,0,1,.15.28,8.72,8.72,0,0,0-.33,2.59Z"/><path class="cls-1" d="M466.85,204.31h-1.68q-.19,0-.19-.72a.67.67,0,0,1,0-.25,7.75,7.75,0,0,0,2.13-1.46l.79-.81q.43-.46,1-1.17a2,2,0,0,1,.52.07c.17,0,.25.1.25.15v2.71h3.37c.15,0,.22.08.22.25a2.68,2.68,0,0,1-.28,1.21h-3.31V211a2.62,2.62,0,0,0,.47,1.68,1.58,1.58,0,0,0,1.3.58,2.56,2.56,0,0,0,.58-.07,2.88,2.88,0,0,0,.5-.15l.36-.17.19-.08q.11,0,.25.25a.65.65,0,0,1,.11.36,2.53,2.53,0,0,1-1.17.9,4.34,4.34,0,0,1-2,.51,3.48,3.48,0,0,1-2.44-.92,3.69,3.69,0,0,1-1-2.86Z"/><path class="cls-1" d="M483.27,202.38a2.75,2.75,0,0,1,2.26.91q0,2.35-1.33,2.35a1.64,1.64,0,0,1-1.08-.55,1.72,1.72,0,0,0-1.19-.55,1.48,1.48,0,0,0-1.34.87,3.67,3.67,0,0,0-.48,1.81v3.45a11.55,11.55,0,0,0,.19,2.48c0,.13.28.26.73.4a3.92,3.92,0,0,0,.92.21c.06,0,.09.13.1.4a2.77,2.77,0,0,1,0,.54l-1.46-.11q-1.24-.08-1.88-.08t-1.92.08l-1.48.11a.81.81,0,0,1-.11-.52c0-.28,0-.41.11-.41a3.87,3.87,0,0,0,1-.21c.45-.14.69-.27.73-.4a9.05,9.05,0,0,0,.19-2v-4.5a2.62,2.62,0,0,0-.44-1.77,1.33,1.33,0,0,0-.62-.41,3.08,3.08,0,0,0-.66-.17c-.17,0-.26,0-.26-.08q0-.8.14-.83a39.17,39.17,0,0,0,4.44-.83l.22-.05c.07,0,.14.06.19.19a.66.66,0,0,1,.07.32l0,.39q0,.26-.07.55a3.57,3.57,0,0,0,0,.37,5.05,5.05,0,0,1,1.35-1.34A3,3,0,0,1,483.27,202.38Z"/><path class="cls-1" d="M493.13,202.38a3.39,3.39,0,0,1,2.57.9,4.41,4.41,0,0,1,.86,3.08v5.44a1.25,1.25,0,0,0,.25.84.83.83,0,0,0,.66.29,1.72,1.72,0,0,0,.94-.36c.11,0,.17.14.17.3a1.63,1.63,0,0,1-.17.83,6.83,6.83,0,0,1-1.1.69,2.88,2.88,0,0,1-1.32.36,2,2,0,0,1-1.24-.47,2.27,2.27,0,0,1-.8-1l-.21.18c-.12.1-.29.23-.5.37a8,8,0,0,1-.72.44,4.38,4.38,0,0,1-.94.37,4,4,0,0,1-1.09.15,3.3,3.3,0,0,1-2.25-.76,2.62,2.62,0,0,1-.87-2.08,2.54,2.54,0,0,1,.32-1.24,3.32,3.32,0,0,1,.76-1,5.64,5.64,0,0,1,1.19-.73,11.41,11.41,0,0,1,1.28-.54l1.38-.43,1.17-.36a.43.43,0,0,0,.25-.44v-1.52a2.37,2.37,0,0,0-.44-1.52,1.44,1.44,0,0,0-1.19-.55,1.67,1.67,0,0,0-1.3.51,2.07,2.07,0,0,0-.47,1.45.89.89,0,0,1-.41.81,1.72,1.72,0,0,1-.94.26,1.56,1.56,0,0,1-1.43-.66q0-1.32,1.81-2.48A6.92,6.92,0,0,1,493.13,202.38ZM491.89,213a2.14,2.14,0,0,0,1.28-.39,1.09,1.09,0,0,0,.54-.88v-2.82c-.13.06-.4.15-.81.28s-.73.24-1,.33a7.36,7.36,0,0,0-.77.39,1.66,1.66,0,0,0-.65.61,1.51,1.51,0,0,0-.21.77,1.7,1.7,0,0,0,.44,1.3A1.59,1.59,0,0,0,491.89,213Z"/><path class="cls-1" d="M512.15,205.36v5.46a6.11,6.11,0,0,0,.22,1.93.57.57,0,0,0,.32.22,2.15,2.15,0,0,0,.48.11l.46,0a.52.52,0,0,1,.23,0c.07,0,.11.1.11.25a2.08,2.08,0,0,1-.06.37c0,.17-.09.26-.17.26a6.43,6.43,0,0,0-1,.1l-1.15.19-1,.21-1.1.22q-.19,0-.19-.44v-1.21c0-.09,0-.14-.08-.14a6.14,6.14,0,0,1-1.68,1.24,4.62,4.62,0,0,1-2.18.55,2.89,2.89,0,0,1-1.64-.47,3.33,3.33,0,0,1-1.1-1.21,5.92,5.92,0,0,1-.58-1.6,8.4,8.4,0,0,1-.18-1.74v-3.09a2.62,2.62,0,0,0-.44-1.77,1.53,1.53,0,0,0-.63-.41,2.85,2.85,0,0,0-.66-.17c-.18,0-.28,0-.28-.08q0-.8.14-.83a21.07,21.07,0,0,0,2.26-.33,21.6,21.6,0,0,0,2.18-.5l.11,0,.11,0c.09,0,.16.06.21.19a1,1,0,0,1,.07.3,24.35,24.35,0,0,0-.25,2.43v3.31a5.92,5.92,0,0,0,.61,3.09,2.44,2.44,0,0,0,3.45.4,1.47,1.47,0,0,0,.61-1v-4.55a2.62,2.62,0,0,0-.44-1.77,1.33,1.33,0,0,0-.62-.41,3.05,3.05,0,0,0-.68-.17c-.18,0-.28,0-.28-.08q0-.8.17-.83a29.13,29.13,0,0,0,4.42-.83l.22-.05c.09,0,.17.06.22.19a.51.51,0,0,1,.06.3Q512.15,204.86,512.15,205.36Z"/><path class="cls-1" d="M524.71,202.38a3,3,0,0,1,1.79.54,3.22,3.22,0,0,1,1.1,1.39,6.5,6.5,0,0,1,2-1.38,6.19,6.19,0,0,1,2.59-.55,3.12,3.12,0,0,1,1.7.44A3,3,0,0,1,535,204a6.5,6.5,0,0,1,.58,1.71,10.46,10.46,0,0,1,.18,2v2.9a11.55,11.55,0,0,0,.19,2.48c0,.13.29.26.75.4a4.07,4.07,0,0,0,.94.21c.06,0,.09.13.1.4a1.56,1.56,0,0,1,0,.54l-1.45-.11q-1.26-.08-1.89-.08t-1.89.08l-1.48.11a1,1,0,0,1-.08-.52c0-.28,0-.41.08-.41a3.73,3.73,0,0,0,1-.21c.44-.14.68-.27.72-.4a8.56,8.56,0,0,0,.19-1.93v-2.81q0-4-2.57-4a2.52,2.52,0,0,0-1.52.44,1.73,1.73,0,0,0-.72.86c0,.06,0,.13,0,.22a.54.54,0,0,0,0,.22,13.38,13.38,0,0,1,.08,1.71v2.92a10.85,10.85,0,0,0,.19,2.37c0,.13.29.26.75.4a4.07,4.07,0,0,0,.94.21c.06,0,.09.13.1.4a1.53,1.53,0,0,1,0,.54l-1.45-.11q-1.26-.08-1.89-.08t-1.89.08l-1.48.11a1,1,0,0,1-.08-.52c0-.28,0-.41.08-.41a3.73,3.73,0,0,0,1-.21c.44-.14.68-.27.72-.4a9,9,0,0,0,.19-2v-2.65a5.85,5.85,0,0,0-.63-3.12,2.1,2.1,0,0,0-1.88-1,2.64,2.64,0,0,0-1.52.47,1.3,1.3,0,0,0-.69,1v4.75a10.14,10.14,0,0,0,.22,2.48c0,.13.28.26.72.4a3.76,3.76,0,0,0,.91.21c.07,0,.12.13.12.4a1.53,1.53,0,0,1,0,.54l-1.45-.11q-1.23-.08-1.86-.08t-1.93.08l-1.46.11a.81.81,0,0,1-.11-.52c0-.28,0-.41.11-.41a4,4,0,0,0,1-.21c.46-.14.71-.27.75-.4a9.05,9.05,0,0,0,.19-2v-4.5a2.62,2.62,0,0,0-.44-1.77,1.33,1.33,0,0,0-.62-.41,3.05,3.05,0,0,0-.68-.17c-.18,0-.28,0-.28-.08q0-.8.17-.83a38.24,38.24,0,0,0,4.42-.83l.08,0h.14c.09,0,.17.06.22.19a.5.5,0,0,1,.06.3,9.29,9.29,0,0,0-.11,1c0,.07,0,.12.05.14a.4.4,0,0,0,.14-.08,6.11,6.11,0,0,1,1.7-1.16A4.83,4.83,0,0,1,524.71,202.38Z"/><path class="cls-1" d="M545.06,202.38a3.39,3.39,0,0,1,2.57.9,4.41,4.41,0,0,1,.86,3.08v5.44a1.25,1.25,0,0,0,.25.84.83.83,0,0,0,.66.29,1.72,1.72,0,0,0,.94-.36c.11,0,.17.14.17.3a1.63,1.63,0,0,1-.17.83,6.83,6.83,0,0,1-1.1.69,2.88,2.88,0,0,1-1.32.36,2,2,0,0,1-1.24-.47,2.27,2.27,0,0,1-.8-1l-.21.18c-.12.1-.29.23-.5.37a8,8,0,0,1-.72.44,4.38,4.38,0,0,1-.94.37,4,4,0,0,1-1.09.15,3.3,3.3,0,0,1-2.25-.76,2.62,2.62,0,0,1-.87-2.08,2.54,2.54,0,0,1,.32-1.24,3.32,3.32,0,0,1,.76-1,5.64,5.64,0,0,1,1.19-.73,11.41,11.41,0,0,1,1.28-.54l1.38-.43,1.17-.36a.43.43,0,0,0,.25-.44v-1.52a2.37,2.37,0,0,0-.44-1.52,1.44,1.44,0,0,0-1.19-.55,1.67,1.67,0,0,0-1.3.51,2.07,2.07,0,0,0-.47,1.45.89.89,0,0,1-.41.81,1.72,1.72,0,0,1-.94.26,1.56,1.56,0,0,1-1.43-.66q0-1.32,1.81-2.48A6.92,6.92,0,0,1,545.06,202.38ZM543.82,213a2.14,2.14,0,0,0,1.28-.39,1.09,1.09,0,0,0,.54-.88v-2.82c-.13.06-.4.15-.81.28s-.73.24-1,.33a7.36,7.36,0,0,0-.77.39,1.66,1.66,0,0,0-.65.61,1.51,1.51,0,0,0-.21.77,1.7,1.7,0,0,0,.44,1.3A1.59,1.59,0,0,0,543.82,213Z"/><path class="cls-1" d="M553.81,215a2.45,2.45,0,0,0-.41-1.15,2.49,2.49,0,0,1-.41-1.2,1.67,1.67,0,0,1,.58-1.16,2.05,2.05,0,0,1,1.52-.58,1.79,1.79,0,0,1,.88.17,4.31,4.31,0,0,1,.39,1.93,4.94,4.94,0,0,1-.22,1.33,7.91,7.91,0,0,1-1.19,2.55,12.33,12.33,0,0,1-2.35,2.25h0q-.14,0-.39-.29a.83.83,0,0,1-.25-.48,4,4,0,0,1,.47-.44,5.07,5.07,0,0,0,.94-1.2A3.31,3.31,0,0,0,553.81,215Z"/><path class="cls-1" d="M35.62,241.68a3.39,3.39,0,0,1,2.57.9,4.41,4.41,0,0,1,.86,3.08v5.44a1.26,1.26,0,0,0,.25.84.83.83,0,0,0,.66.29,1.72,1.72,0,0,0,.94-.36c.11,0,.17.14.17.3a1.63,1.63,0,0,1-.17.83,6.83,6.83,0,0,1-1.1.69,2.87,2.87,0,0,1-1.32.36,2,2,0,0,1-1.24-.47,2.26,2.26,0,0,1-.8-1l-.21.18q-.18.15-.5.37a8.25,8.25,0,0,1-.72.44,4.43,4.43,0,0,1-.94.37,4,4,0,0,1-1.09.15,3.3,3.3,0,0,1-2.25-.76,2.62,2.62,0,0,1-.87-2.08,2.54,2.54,0,0,1,.32-1.24,3.31,3.31,0,0,1,.76-1,5.68,5.68,0,0,1,1.19-.73,11.38,11.38,0,0,1,1.28-.54l1.38-.43,1.17-.36a.43.43,0,0,0,.25-.44V245a2.36,2.36,0,0,0-.44-1.52,1.44,1.44,0,0,0-1.19-.55,1.67,1.67,0,0,0-1.3.51,2.06,2.06,0,0,0-.47,1.45.89.89,0,0,1-.41.81,1.72,1.72,0,0,1-.94.26,1.56,1.56,0,0,1-1.43-.66q0-1.32,1.81-2.48A6.92,6.92,0,0,1,35.62,241.68Zm-1.24,10.6a2.14,2.14,0,0,0,1.28-.39,1.09,1.09,0,0,0,.54-.88v-2.81c-.13.05-.4.15-.81.28s-.73.24-1,.33a7.53,7.53,0,0,0-.77.39,1.66,1.66,0,0,0-.65.61,1.51,1.51,0,0,0-.21.77,1.7,1.7,0,0,0,.44,1.3A1.59,1.59,0,0,0,34.37,252.27Z"/><path class="cls-1" d="M51.6,241.68q3.56,0,3.56,5.66V250a11.57,11.57,0,0,0,.19,2.48q.06.19.76.4a4.19,4.19,0,0,0,1,.21c.06,0,.09.13.1.4a1.54,1.54,0,0,1,0,.54q-.17,0-1.45-.11t-1.92-.08q-.66,0-1.84.08L50.5,254a.81.81,0,0,1-.11-.52c0-.28,0-.41.11-.41a3.26,3.26,0,0,0,.92-.21c.41-.14.64-.27.68-.4a7.92,7.92,0,0,0,.22-2V247.8a6,6,0,0,0-.62-3.2,2.22,2.22,0,0,0-2-.91,2.56,2.56,0,0,0-1.55.48,1.33,1.33,0,0,0-.66,1V250a11.55,11.55,0,0,0,.19,2.48c0,.13.28.26.73.4a3.93,3.93,0,0,0,.9.21c.07,0,.12.13.12.4a1.54,1.54,0,0,1,0,.54L48,253.87q-1.23-.08-1.86-.08t-1.92.08l-1.48.11a.81.81,0,0,1-.11-.52c0-.28,0-.41.11-.41a3.83,3.83,0,0,0,1-.21q.68-.21.73-.4a9.07,9.07,0,0,0,.19-2v-4.5a2.63,2.63,0,0,0-.44-1.77,1.33,1.33,0,0,0-.62-.41,3.14,3.14,0,0,0-.66-.17c-.17,0-.26,0-.26-.08,0-.53,0-.81.14-.83a39.1,39.1,0,0,0,4.44-.83l.07,0h.15c.07,0,.14.06.19.19a.83.83,0,0,1,.08.3,9.55,9.55,0,0,0-.11,1c0,.07,0,.12,0,.14a.4.4,0,0,0,.14-.08,6.11,6.11,0,0,1,1.7-1.16A4.83,4.83,0,0,1,51.6,241.68Z"/><path class="cls-1" d="M65.18,241.62a4.74,4.74,0,0,1,2,.39c.09,0,.14-.15.14-.44V239a9.63,9.63,0,0,0-.17-1.88q-.14-.44-1.44-.44h-.22c-.11,0-.17-.15-.17-.44s.05-.44.17-.44q.83-.08,1.61-.22t1.3-.28c.34-.09.63-.18.88-.28l.57-.21.22-.07h.06c.07,0,.15.05.22.15a.5.5,0,0,1,.11.29,10.55,10.55,0,0,0-.28,2.59V249.9a10.11,10.11,0,0,0,.17,2,.41.41,0,0,0,.28.3,1.72,1.72,0,0,0,.52.14l.52,0H72a.58.58,0,0,1,.05.33q0,.55-.17.55c-.26,0-.58.05-1,.11l-1.16.18-1.08.19L67.5,254q-.17,0-.17-.47v-.47a.12.12,0,0,0,0-.11,0,0,0,0,0-.07,0,4.61,4.61,0,0,1-2.87,1,5.35,5.35,0,0,1-3.89-1.64,5.57,5.57,0,0,1-1.66-4.13,6.47,6.47,0,0,1,1.89-4.68A6,6,0,0,1,65.18,241.62Zm-.25,1.33a2.42,2.42,0,0,0-2.21,1.24,6.46,6.46,0,0,0-.75,3.34,6.66,6.66,0,0,0,.86,3.66,2.71,2.71,0,0,0,2.4,1.31,2.29,2.29,0,0,0,1.52-.48,1.53,1.53,0,0,0,.58-1.23V245a1.92,1.92,0,0,0-.1-.58,2.58,2.58,0,0,0-.33-.65,1.76,1.76,0,0,0-.75-.58A2.93,2.93,0,0,0,64.94,242.95Z"/><path class="cls-1" d="M88.68,241.68q3.53,0,3.53,5.44V250a10.14,10.14,0,0,0,.22,2.48q0,.19.73.4a4.2,4.2,0,0,0,1,.21c.06,0,.09.13.1.4a2.87,2.87,0,0,1,0,.54l-1.48-.11q-1.28-.08-1.89-.08t-1.86.08l-1.45.11a1,1,0,0,1-.08-.52c0-.28,0-.41.08-.41a3.26,3.26,0,0,0,1-.21c.41-.14.65-.27.7-.4a10.46,10.46,0,0,0,.17-2v-2.7a5.76,5.76,0,0,0-.62-3.16,2.26,2.26,0,0,0-2-.87,2.64,2.64,0,0,0-1.52.47,1.3,1.3,0,0,0-.69,1V250a10.14,10.14,0,0,0,.22,2.48q.05.19.73.4a3.87,3.87,0,0,0,.92.21c.06,0,.09.13.1.4a1.59,1.59,0,0,1,0,.54L85,253.87q-1.23-.08-1.86-.08t-1.92.08l-1.48.11a.81.81,0,0,1-.11-.52c0-.28,0-.41.11-.41a3.81,3.81,0,0,0,1-.21c.45-.14.69-.27.73-.4a8.86,8.86,0,0,0,.19-2V239a10.9,10.9,0,0,0-.14-1.88q-.14-.44-1.44-.44h-.25c-.11,0-.17-.15-.17-.44s.06-.44.17-.44q.86-.08,1.63-.22t1.28-.28c.34-.09.63-.18.88-.28l.79-.28h.05a.3.3,0,0,1,.22.15.74.74,0,0,1,.14.29,8.9,8.9,0,0,0-.33,2.59v5.57c0,.11,0,.17.11.17s.05,0,.11-.08a5.26,5.26,0,0,1,1.7-1.2A5.09,5.09,0,0,1,88.68,241.68Z"/><path class="cls-1" d="M101.55,241.68a5.13,5.13,0,0,1,2.32.51,4.38,4.38,0,0,1,1.6,1.3,6.46,6.46,0,0,1,.88,1.63,4.76,4.76,0,0,1,.3,1.61q0,.61-.21.76a1.57,1.57,0,0,1-.84.15H99c-.13,0-.19.05-.19.17a5.36,5.36,0,0,0,.36,1.93,3.79,3.79,0,0,0,1.23,1.63,3.25,3.25,0,0,0,2.08.69,7.58,7.58,0,0,0,.8,0,4.19,4.19,0,0,0,.72-.14l.58-.18a2.38,2.38,0,0,0,.51-.25l.37-.23.55-.37a.46.46,0,0,1,.14.17.53.53,0,0,1,.08.28.85.85,0,0,1-.17.52,4.5,4.5,0,0,1-1.63,1.49,5.13,5.13,0,0,1-2.73.74,5.59,5.59,0,0,1-4.14-1.78,6,6,0,0,1-1.74-4.32,6.38,6.38,0,0,1,1.62-4.53A5.35,5.35,0,0,1,101.55,241.68Zm-.19,1.27a2,2,0,0,0-1.19.39,2.62,2.62,0,0,0-.8.94,5.33,5.33,0,0,0-.4,1,3.36,3.36,0,0,0-.12.81c0,.13.05.19.17.19h4.47c.17,0,.25-.14.25-.41a3.57,3.57,0,0,0-.65-2A2,2,0,0,0,101.35,242.95Z"/><path class="cls-1" d="M116.29,241.68a2.75,2.75,0,0,1,2.26.91q0,2.35-1.33,2.35a1.64,1.64,0,0,1-1.08-.55,1.73,1.73,0,0,0-1.19-.55,1.48,1.48,0,0,0-1.34.87,3.67,3.67,0,0,0-.48,1.81V250a11.55,11.55,0,0,0,.19,2.48c0,.13.28.26.73.4a3.87,3.87,0,0,0,.92.21c.06,0,.09.13.1.4a2.78,2.78,0,0,1,0,.54l-1.46-.11q-1.24-.08-1.88-.08t-1.92.08l-1.48.11a.81.81,0,0,1-.11-.52c0-.28,0-.41.11-.41a3.83,3.83,0,0,0,1-.21q.68-.21.73-.4a9.07,9.07,0,0,0,.19-2v-4.5a2.63,2.63,0,0,0-.44-1.77,1.33,1.33,0,0,0-.62-.41,3.14,3.14,0,0,0-.66-.17c-.17,0-.26,0-.26-.08,0-.53,0-.81.14-.83a39.1,39.1,0,0,0,4.44-.83l.22-.06c.07,0,.14.06.19.19a.66.66,0,0,1,.07.32l0,.39c0,.18,0,.36-.07.55a3.59,3.59,0,0,0,0,.37,5.05,5.05,0,0,1,1.35-1.34A3,3,0,0,1,116.29,241.68Z"/><path class="cls-1" d="M133.94,241.7a5.58,5.58,0,0,1,3.15.91,5.78,5.78,0,0,1,2.7,4.91,6.45,6.45,0,0,1-6.48,6.57,6.42,6.42,0,0,1-2-.39c-.07,0-.11.13-.11.39V256a10,10,0,0,0,.22,2.48q0,.22.73.43a4.24,4.24,0,0,0,1,.21c.05,0,.09.13.1.4a2.54,2.54,0,0,1,0,.51l-1.48-.08q-1.28-.08-1.89-.08t-1.95.08l-1.48.08a1,1,0,0,1-.08-.51c0-.27,0-.4.08-.4a3.87,3.87,0,0,0,1-.21q.68-.21.76-.43a10,10,0,0,0,.17-2V245.93a2.68,2.68,0,0,0-.44-1.79,1.24,1.24,0,0,0-.61-.4,3.37,3.37,0,0,0-.66-.15c-.18,0-.28,0-.28-.08,0-.53.05-.81.17-.83a21.18,21.18,0,0,0,4.11-.77l.52-.14q.11,0,.11.58a1.49,1.49,0,0,1-.06.33,5.53,5.53,0,0,1,1.23-.65A4,4,0,0,1,133.94,241.7Zm-.66,1.46a2.09,2.09,0,0,0-1.48.52,1.83,1.83,0,0,0-.57,1.41v5.68a1.7,1.7,0,0,0,.75,1.45,2.69,2.69,0,0,0,1.6.54,2.59,2.59,0,0,0,2.14-1.16,5.33,5.33,0,0,0,.87-3.26,7.13,7.13,0,0,0-.88-3.71A2.71,2.71,0,0,0,133.27,243.17Z"/><path class="cls-1" d="M147.38,241.68a3.39,3.39,0,0,1,2.57.9,4.41,4.41,0,0,1,.86,3.08v5.44a1.26,1.26,0,0,0,.25.84.83.83,0,0,0,.66.29,1.72,1.72,0,0,0,.94-.36c.11,0,.17.14.17.3a1.63,1.63,0,0,1-.17.83,6.83,6.83,0,0,1-1.1.69,2.87,2.87,0,0,1-1.32.36,2,2,0,0,1-1.24-.47,2.26,2.26,0,0,1-.8-1l-.21.18q-.18.15-.5.37a8.25,8.25,0,0,1-.72.44,4.43,4.43,0,0,1-.94.37,4,4,0,0,1-1.09.15,3.3,3.3,0,0,1-2.25-.76,2.62,2.62,0,0,1-.87-2.08,2.54,2.54,0,0,1,.32-1.24,3.31,3.31,0,0,1,.76-1,5.68,5.68,0,0,1,1.19-.73,11.38,11.38,0,0,1,1.28-.54l1.38-.43,1.17-.36a.43.43,0,0,0,.25-.44V245a2.36,2.36,0,0,0-.44-1.52,1.44,1.44,0,0,0-1.19-.55,1.67,1.67,0,0,0-1.3.51,2.06,2.06,0,0,0-.47,1.45.89.89,0,0,1-.41.81,1.72,1.72,0,0,1-.94.26,1.56,1.56,0,0,1-1.43-.66q0-1.32,1.81-2.48A6.92,6.92,0,0,1,147.38,241.68Zm-1.24,10.6a2.14,2.14,0,0,0,1.28-.39A1.09,1.09,0,0,0,148,251v-2.81c-.13.05-.4.15-.81.28s-.73.24-1,.33a7.53,7.53,0,0,0-.77.39,1.66,1.66,0,0,0-.65.61,1.51,1.51,0,0,0-.21.77,1.7,1.7,0,0,0,.44,1.3A1.59,1.59,0,0,0,146.14,252.27Z"/><path class="cls-1" d="M162.43,241.68a2.75,2.75,0,0,1,2.26.91q0,2.35-1.33,2.35a1.64,1.64,0,0,1-1.08-.55,1.73,1.73,0,0,0-1.19-.55,1.48,1.48,0,0,0-1.34.87,3.67,3.67,0,0,0-.48,1.81V250a11.55,11.55,0,0,0,.19,2.48c0,.13.28.26.73.4a3.87,3.87,0,0,0,.92.21c.06,0,.09.13.1.4a2.78,2.78,0,0,1,0,.54l-1.46-.11q-1.24-.08-1.88-.08t-1.92.08l-1.48.11a.81.81,0,0,1-.11-.52c0-.28,0-.41.11-.41a3.83,3.83,0,0,0,1-.21q.68-.21.73-.4a9.07,9.07,0,0,0,.19-2v-4.5a2.63,2.63,0,0,0-.44-1.77,1.33,1.33,0,0,0-.62-.41,3.14,3.14,0,0,0-.66-.17c-.17,0-.26,0-.26-.08,0-.53,0-.81.14-.83a39.1,39.1,0,0,0,4.44-.83l.22-.06c.07,0,.14.06.19.19a.66.66,0,0,1,.07.32l0,.39c0,.18,0,.36-.07.55a3.59,3.59,0,0,0,0,.37,5.05,5.05,0,0,1,1.35-1.34A3,3,0,0,1,162.43,241.68Z"/><path class="cls-1" d="M168.09,243.61h-1.68q-.19,0-.19-.72a.68.68,0,0,1,0-.25,7.73,7.73,0,0,0,2.13-1.46l.79-.81q.43-.46,1-1.17a2,2,0,0,1,.52.07q.25.07.25.15v2.7h3.37c.15,0,.22.08.22.25a2.68,2.68,0,0,1-.28,1.21h-3.31v6.65a2.62,2.62,0,0,0,.47,1.68,1.58,1.58,0,0,0,1.3.58,2.62,2.62,0,0,0,.58-.07,2.88,2.88,0,0,0,.5-.15l.36-.17.19-.08c.07,0,.16.06.25.25a.65.65,0,0,1,.11.36,2.53,2.53,0,0,1-1.17.9,4.36,4.36,0,0,1-2,.51,3.48,3.48,0,0,1-2.44-.92,3.69,3.69,0,0,1-1-2.86Z"/><path class="cls-1" d="M179.39,242q.61,0,1.74-.08t1.41-.08a1.84,1.84,0,0,1,.06.5c0,.26,0,.39-.11.39a3,3,0,0,0-.87.21q-.59.21-.62.46v.17q.05.44,2.57,6.29.22-.5,1.08-2.72t1-2.55a2.59,2.59,0,0,0,.17-.86.87.87,0,0,0-.44-.68,2.27,2.27,0,0,0-1.32-.32c-.07,0-.11-.14-.11-.41a.69.69,0,0,1,.11-.47q.33,0,1.35.08t1.68.08q.58,0,1.42-.08t1.23-.08a.79.79,0,0,1,.11.44c0,.29,0,.44-.11.44a3.5,3.5,0,0,0-1.12.28,1.52,1.52,0,0,0-1,.83l-5,12.2q-1.71,4-4.11,4a1.49,1.49,0,0,1-1.1-.39,1.29,1.29,0,0,1,.14-2,3.65,3.65,0,0,0,3.78-2.26q.66-1.66.75-1.88l-4-9.38a3.57,3.57,0,0,0-.33-.63,1.67,1.67,0,0,0-.81-.62,2.62,2.62,0,0,0-.9-.21c-.07,0-.11-.13-.11-.39s0-.46.08-.5l1.48.08Q178.72,242,179.39,242Z"/><path class="cls-1" d="M201.72,241.65a11.73,11.73,0,0,1,3.2.47,15.68,15.68,0,0,1,.3,3.09c0,.15-.12.22-.36.22q-.61,0-.66-.22a3.34,3.34,0,0,0-.81-1.64,2.16,2.16,0,0,0-1.67-.68,2,2,0,0,0-1.26.36,1.22,1.22,0,0,0-.46,1,1.62,1.62,0,0,0,.15.7,1.73,1.73,0,0,0,.5.59,7.09,7.09,0,0,0,.61.44c.17.11.44.26.79.44l.28.14.41.22.46.25.44.26a5.07,5.07,0,0,1,.48.32l.43.33a2.14,2.14,0,0,1,.41.39l.33.43a1.75,1.75,0,0,1,.29.5,5.28,5.28,0,0,1,.15.52,2.62,2.62,0,0,1,.07.59,3.25,3.25,0,0,1-1.34,2.75,5.24,5.24,0,0,1-3.24,1,9.21,9.21,0,0,1-3.56-.77,11.1,11.1,0,0,1-.28-1.53,13.42,13.42,0,0,1-.14-1.59.59.59,0,0,1,.39-.14c.42,0,.64.07.66.22a3.05,3.05,0,0,0,1.09,1.86,3,3,0,0,0,1.89.7,2,2,0,0,0,1.27-.39,1.34,1.34,0,0,0,.5-1.13,1.81,1.81,0,0,0-.07-.51,1.34,1.34,0,0,0-.26-.47l-.32-.39a2,2,0,0,0-.5-.37l-.55-.32-.69-.36-.7-.37a6.42,6.42,0,0,1-2-1.48,3.19,3.19,0,0,1,.63-4.57A5.32,5.32,0,0,1,201.72,241.65Z"/><path class="cls-1" d="M213.27,241.68a5.13,5.13,0,0,1,2.32.51,4.38,4.38,0,0,1,1.6,1.3,6.46,6.46,0,0,1,.88,1.63,4.76,4.76,0,0,1,.3,1.61q0,.61-.21.76a1.57,1.57,0,0,1-.84.15h-6.6c-.13,0-.19.05-.19.17a5.36,5.36,0,0,0,.36,1.93,3.79,3.79,0,0,0,1.23,1.63,3.25,3.25,0,0,0,2.08.69,7.58,7.58,0,0,0,.8,0,4.19,4.19,0,0,0,.72-.14l.58-.18a2.38,2.38,0,0,0,.51-.25l.37-.23.55-.37a.46.46,0,0,1,.14.17.53.53,0,0,1,.08.28.85.85,0,0,1-.17.52,4.5,4.5,0,0,1-1.63,1.49,5.13,5.13,0,0,1-2.73.74,5.59,5.59,0,0,1-4.14-1.78,6,6,0,0,1-1.74-4.32,6.38,6.38,0,0,1,1.62-4.53A5.35,5.35,0,0,1,213.27,241.68Zm-.19,1.27a2,2,0,0,0-1.19.39,2.62,2.62,0,0,0-.8.94,5.33,5.33,0,0,0-.4,1,3.36,3.36,0,0,0-.12.81c0,.13.05.19.17.19h4.47c.17,0,.25-.14.25-.41a3.57,3.57,0,0,0-.65-2A2,2,0,0,0,213.07,242.95Z"/><path class="cls-1" d="M228,241.68a2.75,2.75,0,0,1,2.26.91q0,2.35-1.33,2.35a1.64,1.64,0,0,1-1.08-.55,1.73,1.73,0,0,0-1.19-.55,1.48,1.48,0,0,0-1.34.87,3.67,3.67,0,0,0-.48,1.81V250a11.55,11.55,0,0,0,.19,2.48c0,.13.28.26.73.4a3.87,3.87,0,0,0,.92.21c.06,0,.09.13.1.4a2.78,2.78,0,0,1,0,.54l-1.46-.11q-1.24-.08-1.88-.08t-1.92.08l-1.48.11a.81.81,0,0,1-.11-.52c0-.28,0-.41.11-.41a3.83,3.83,0,0,0,1-.21q.68-.21.73-.4a9.07,9.07,0,0,0,.19-2v-4.5a2.63,2.63,0,0,0-.44-1.77,1.33,1.33,0,0,0-.62-.41,3.14,3.14,0,0,0-.66-.17c-.17,0-.26,0-.26-.08,0-.53,0-.81.14-.83a39.1,39.1,0,0,0,4.44-.83l.22-.06c.07,0,.14.06.19.19a.66.66,0,0,1,.07.32l0,.39c0,.18,0,.36-.07.55a3.59,3.59,0,0,0,0,.37,5.05,5.05,0,0,1,1.35-1.34A3,3,0,0,1,228,241.68Z"/><path class="cls-1" d="M237,250a10.14,10.14,0,0,0,.22,2.48q.06.19.75.4a4,4,0,0,0,.94.21c.07,0,.11.13.12.4a1.59,1.59,0,0,1,0,.54l-1.48-.11q-1.28-.08-1.89-.08t-1.95.08l-1.45.11a.81.81,0,0,1-.11-.52c0-.28,0-.41.11-.41a4,4,0,0,0,1-.21c.46-.14.71-.27.75-.4a9.07,9.07,0,0,0,.19-2v-4.5a2.63,2.63,0,0,0-.44-1.77,1.53,1.53,0,0,0-.63-.41,2.9,2.9,0,0,0-.66-.17c-.18,0-.28,0-.28-.08,0-.53.06-.81.17-.83a20.94,20.94,0,0,0,2.24-.33,21.66,21.66,0,0,0,2.18-.5l.22-.06c.09,0,.17.06.22.19a.5.5,0,0,1,.06.3,23.64,23.64,0,0,0-.22,2.37Zm-2.87-11.55a1.68,1.68,0,0,1-.5-1.21,1.71,1.71,0,0,1,3.42,0,1.68,1.68,0,0,1-.5,1.21,1.7,1.7,0,0,1-2.43,0Z"/><path class="cls-1" d="M246.29,241.68a5.13,5.13,0,0,1,2.32.51,4.38,4.38,0,0,1,1.6,1.3,6.46,6.46,0,0,1,.88,1.63,4.76,4.76,0,0,1,.3,1.61q0,.61-.21.76a1.57,1.57,0,0,1-.84.15h-6.6c-.13,0-.19.05-.19.17a5.36,5.36,0,0,0,.36,1.93,3.79,3.79,0,0,0,1.23,1.63,3.25,3.25,0,0,0,2.08.69,7.58,7.58,0,0,0,.8,0,4.19,4.19,0,0,0,.72-.14l.58-.18a2.38,2.38,0,0,0,.51-.25l.37-.23.55-.37a.46.46,0,0,1,.14.17.53.53,0,0,1,.08.28.85.85,0,0,1-.17.52,4.5,4.5,0,0,1-1.63,1.49,5.13,5.13,0,0,1-2.73.74,5.59,5.59,0,0,1-4.14-1.78,6,6,0,0,1-1.74-4.32,6.38,6.38,0,0,1,1.62-4.53A5.35,5.35,0,0,1,246.29,241.68Zm-.19,1.27a2,2,0,0,0-1.19.39,2.62,2.62,0,0,0-.8.94,5.33,5.33,0,0,0-.4,1,3.36,3.36,0,0,0-.12.81c0,.13.05.19.17.19h4.47c.17,0,.25-.14.25-.41a3.57,3.57,0,0,0-.65-2A2,2,0,0,0,246.1,242.95Z"/><path class="cls-1" d="M257.45,241.65a11.73,11.73,0,0,1,3.2.47,15.68,15.68,0,0,1,.3,3.09c0,.15-.12.22-.36.22q-.61,0-.66-.22a3.34,3.34,0,0,0-.81-1.64,2.16,2.16,0,0,0-1.67-.68,2,2,0,0,0-1.26.36,1.22,1.22,0,0,0-.46,1,1.62,1.62,0,0,0,.15.7,1.73,1.73,0,0,0,.5.59,7.09,7.09,0,0,0,.61.44c.17.11.44.26.79.44l.28.14.41.22.46.25.44.26a5.07,5.07,0,0,1,.48.32l.43.33a2.14,2.14,0,0,1,.41.39l.33.43a1.75,1.75,0,0,1,.29.5,5.28,5.28,0,0,1,.15.52,2.62,2.62,0,0,1,.07.59,3.25,3.25,0,0,1-1.34,2.75,5.24,5.24,0,0,1-3.24,1,9.21,9.21,0,0,1-3.56-.77,11.1,11.1,0,0,1-.28-1.53,13.42,13.42,0,0,1-.14-1.59.59.59,0,0,1,.39-.14c.42,0,.64.07.66.22a3.05,3.05,0,0,0,1.09,1.86,3,3,0,0,0,1.89.7,2,2,0,0,0,1.27-.39,1.34,1.34,0,0,0,.5-1.13,1.81,1.81,0,0,0-.07-.51,1.34,1.34,0,0,0-.26-.47l-.32-.39a2,2,0,0,0-.5-.37l-.55-.32-.69-.36-.7-.37a6.42,6.42,0,0,1-2-1.48,3.19,3.19,0,0,1,.63-4.57A5.32,5.32,0,0,1,257.45,241.65Z"/><path class="cls-1" d="M265.12,254.32a2.46,2.46,0,0,0-.41-1.15,2.48,2.48,0,0,1-.41-1.2,1.67,1.67,0,0,1,.58-1.16,2.06,2.06,0,0,1,1.52-.58,1.8,1.8,0,0,1,.88.17,4.31,4.31,0,0,1,.39,1.93,4.93,4.93,0,0,1-.22,1.33,7.91,7.91,0,0,1-1.19,2.55,12.36,12.36,0,0,1-2.35,2.25h0q-.14,0-.39-.29a.83.83,0,0,1-.25-.48,4.14,4.14,0,0,1,.47-.44,5,5,0,0,0,.94-1.2A3.31,3.31,0,0,0,265.12,254.32Z"/><path class="cls-1" d="M279.29,235.72q.8,0,1.85,0t1.88,0a9,9,0,0,1,1.64.15,6.68,6.68,0,0,1,1.63.54,5.84,5.84,0,0,1,1.43,1,4.36,4.36,0,0,1,1,1.45,4.69,4.69,0,0,1,.4,2,5.26,5.26,0,0,1-.68,2.54,5.81,5.81,0,0,1-2,2.11,5.61,5.61,0,0,1-3.08.87,3.43,3.43,0,0,1-1.16-.21,1.65,1.65,0,0,1-.8-.51.59.59,0,0,1-.1-.28,1.27,1.27,0,0,1,0-.41c0-.13,0-.19.08-.19a3.86,3.86,0,0,0,1.55.28,2.44,2.44,0,0,0,2.1-1.09,4.63,4.63,0,0,0,.77-2.75,5.07,5.07,0,0,0-.75-2.92,2.6,2.6,0,0,0-2.29-1.08,4.5,4.5,0,0,0-1.6.19q-.33.17-.33,2.87V250a8.61,8.61,0,0,0,.22,2.35q.08.33.92.54a5.77,5.77,0,0,0,1.23.21c.07,0,.11.16.11.47a1.54,1.54,0,0,1-.06.47q-3-.17-3.92-.17t-1.67,0l-1.48.07-.55.05a.94.94,0,0,1-.08-.5c0-.29,0-.44.08-.44a4.76,4.76,0,0,0,1.06-.18q.7-.18.81-.43a10.92,10.92,0,0,0,.17-2.51V239.5a10.82,10.82,0,0,0-.17-2.26q-.08-.22-.81-.46a4,4,0,0,0-1.06-.24c-.07,0-.11-.14-.11-.41s0-.44.11-.5Q278.52,235.72,279.29,235.72Z"/><path class="cls-1" d="M303,244.66v5.46a6.12,6.12,0,0,0,.22,1.93.57.57,0,0,0,.32.22,2.2,2.2,0,0,0,.48.11l.46,0a.5.5,0,0,1,.23,0c.07,0,.11.1.11.25a2.09,2.09,0,0,1-.06.37c0,.17-.09.26-.17.26a6.3,6.3,0,0,0-1,.1l-1.15.19-1,.21-1.1.22c-.13,0-.19-.15-.19-.44v-1.21c0-.09,0-.14-.08-.14a6.16,6.16,0,0,1-1.68,1.24,4.63,4.63,0,0,1-2.18.55,2.89,2.89,0,0,1-1.64-.47,3.32,3.32,0,0,1-1.1-1.21,5.93,5.93,0,0,1-.58-1.6,8.41,8.41,0,0,1-.18-1.74v-3.09a2.63,2.63,0,0,0-.44-1.77,1.53,1.53,0,0,0-.63-.41,2.9,2.9,0,0,0-.66-.17c-.18,0-.28,0-.28-.08,0-.53,0-.81.14-.83a20.58,20.58,0,0,0,2.26-.33,21.66,21.66,0,0,0,2.18-.5l.11,0,.11,0c.09,0,.16.06.21.19a1,1,0,0,1,.07.3,24.35,24.35,0,0,0-.25,2.43V248a5.92,5.92,0,0,0,.61,3.09,2.44,2.44,0,0,0,3.45.4,1.47,1.47,0,0,0,.61-1v-4.55a2.63,2.63,0,0,0-.44-1.77,1.33,1.33,0,0,0-.62-.41,3.11,3.11,0,0,0-.68-.17c-.18,0-.28,0-.28-.08,0-.53.06-.81.17-.83a20.94,20.94,0,0,0,2.24-.33,21.66,21.66,0,0,0,2.18-.5l.22-.06c.09,0,.17.06.22.19a.51.51,0,0,1,.06.3Q303,244.16,303,244.66Z"/><path class="cls-1" d="M311,241.65a11.73,11.73,0,0,1,3.2.47,15.68,15.68,0,0,1,.3,3.09c0,.15-.12.22-.36.22q-.61,0-.66-.22a3.34,3.34,0,0,0-.81-1.64,2.16,2.16,0,0,0-1.67-.68,2,2,0,0,0-1.26.36,1.22,1.22,0,0,0-.46,1,1.62,1.62,0,0,0,.15.7,1.73,1.73,0,0,0,.5.59,7.09,7.09,0,0,0,.61.44c.17.11.44.26.79.44l.28.14.41.22.46.25.44.26a5.07,5.07,0,0,1,.48.32l.43.33a2.14,2.14,0,0,1,.41.39l.33.43a1.75,1.75,0,0,1,.29.5,5.28,5.28,0,0,1,.15.52,2.62,2.62,0,0,1,.07.59,3.25,3.25,0,0,1-1.34,2.75,5.24,5.24,0,0,1-3.24,1,9.21,9.21,0,0,1-3.56-.77,11.1,11.1,0,0,1-.28-1.53,13.42,13.42,0,0,1-.14-1.59.59.59,0,0,1,.39-.14c.42,0,.64.07.66.22a3.05,3.05,0,0,0,1.09,1.86,3,3,0,0,0,1.89.7,2,2,0,0,0,1.27-.39,1.34,1.34,0,0,0,.5-1.13,1.81,1.81,0,0,0-.07-.51,1.34,1.34,0,0,0-.26-.47l-.32-.39a2,2,0,0,0-.5-.37l-.55-.32-.69-.36-.7-.37a6.42,6.42,0,0,1-2-1.48,3.19,3.19,0,0,1,.63-4.57A5.32,5.32,0,0,1,311,241.65Z"/><path class="cls-1" d="M321.37,241.65a11.73,11.73,0,0,1,3.2.47,15.68,15.68,0,0,1,.3,3.09c0,.15-.12.22-.36.22q-.61,0-.66-.22a3.34,3.34,0,0,0-.81-1.64,2.16,2.16,0,0,0-1.67-.68,2,2,0,0,0-1.26.36,1.22,1.22,0,0,0-.46,1,1.62,1.62,0,0,0,.15.7,1.73,1.73,0,0,0,.5.59,7.09,7.09,0,0,0,.61.44c.17.11.44.26.79.44l.28.14.41.22.46.25.44.26a5.07,5.07,0,0,1,.48.32l.43.33a2.14,2.14,0,0,1,.41.39l.33.43a1.75,1.75,0,0,1,.29.5,5.28,5.28,0,0,1,.15.52,2.62,2.62,0,0,1,.07.59,3.25,3.25,0,0,1-1.34,2.75,5.24,5.24,0,0,1-3.24,1,9.21,9.21,0,0,1-3.56-.77,11.1,11.1,0,0,1-.28-1.53,13.42,13.42,0,0,1-.14-1.59.59.59,0,0,1,.39-.14c.42,0,.64.07.66.22a3.05,3.05,0,0,0,1.09,1.86,3,3,0,0,0,1.89.7,2,2,0,0,0,1.27-.39,1.34,1.34,0,0,0,.5-1.13,1.81,1.81,0,0,0-.07-.51,1.34,1.34,0,0,0-.26-.47L322,250a2,2,0,0,0-.5-.37l-.55-.32-.69-.36-.7-.37a6.42,6.42,0,0,1-2-1.48,3.19,3.19,0,0,1,.63-4.57A5.32,5.32,0,0,1,321.37,241.65Z"/><path class="cls-1" d="M330.21,242q.61,0,1.74-.08t1.41-.08a1.84,1.84,0,0,1,.06.5c0,.26,0,.39-.11.39a3,3,0,0,0-.87.21q-.59.21-.62.46v.17q.05.44,2.57,6.29.22-.5,1.08-2.72t1-2.55a2.59,2.59,0,0,0,.17-.86.87.87,0,0,0-.44-.68,2.27,2.27,0,0,0-1.32-.32c-.07,0-.11-.14-.11-.41a.69.69,0,0,1,.11-.47q.33,0,1.35.08t1.68.08q.58,0,1.42-.08t1.23-.08a.79.79,0,0,1,.11.44c0,.29,0,.44-.11.44a3.5,3.5,0,0,0-1.12.28,1.52,1.52,0,0,0-1,.83l-5,12.2q-1.71,4-4.11,4a1.49,1.49,0,0,1-1.1-.39,1.29,1.29,0,0,1,.14-2,3.65,3.65,0,0,0,3.78-2.26q.66-1.66.75-1.88l-4-9.38a3.57,3.57,0,0,0-.33-.63,1.67,1.67,0,0,0-.81-.62,2.62,2.62,0,0,0-.9-.21c-.07,0-.11-.13-.11-.39s0-.46.08-.5l1.48.08Q329.55,242,330.21,242Z"/><path class="cls-1" d="M351.8,235.72q.8,0,1.85,0t1.88,0a9,9,0,0,1,1.64.15,6.68,6.68,0,0,1,1.63.54,5.84,5.84,0,0,1,1.43,1,4.36,4.36,0,0,1,1,1.45,4.69,4.69,0,0,1,.4,2,5.26,5.26,0,0,1-.68,2.54,5.81,5.81,0,0,1-2,2.11,5.61,5.61,0,0,1-3.08.87,3.43,3.43,0,0,1-1.16-.21,1.65,1.65,0,0,1-.8-.51.59.59,0,0,1-.1-.28,1.27,1.27,0,0,1,0-.41c0-.13,0-.19.08-.19a3.86,3.86,0,0,0,1.55.28,2.44,2.44,0,0,0,2.1-1.09,4.63,4.63,0,0,0,.77-2.75,5.07,5.07,0,0,0-.75-2.92,2.6,2.6,0,0,0-2.29-1.08,4.5,4.5,0,0,0-1.6.19q-.33.17-.33,2.87V250a8.61,8.61,0,0,0,.22,2.35q.08.33.92.54a5.77,5.77,0,0,0,1.23.21c.07,0,.11.16.11.47a1.54,1.54,0,0,1-.06.47q-3-.17-3.92-.17t-1.67,0l-1.48.07-.55.05a.94.94,0,0,1-.08-.5c0-.29,0-.44.08-.44a4.76,4.76,0,0,0,1.06-.18q.7-.18.81-.43a10.92,10.92,0,0,0,.17-2.51V239.5a10.82,10.82,0,0,0-.17-2.26q-.08-.22-.81-.46a4,4,0,0,0-1.06-.24c-.07,0-.11-.14-.11-.41s0-.44.11-.5Q351,235.72,351.8,235.72Z"/><path class="cls-1" d="M369.63,241.68a6.08,6.08,0,0,1,4.43,1.81,5.92,5.92,0,0,1,1.83,4.37,6.29,6.29,0,1,1-6.26-6.18Zm-.36,1.3a2.22,2.22,0,0,0-2,1.26,5.93,5.93,0,0,0-.72,3,8,8,0,0,0,.9,3.89,2.75,2.75,0,0,0,2.5,1.66,2.25,2.25,0,0,0,2-1.27,5.87,5.87,0,0,0,.73-3,9.5,9.5,0,0,0-.36-2.66,4.87,4.87,0,0,0-1.16-2.06A2.56,2.56,0,0,0,369.28,243Z"/><path class="cls-1" d="M385.2,241.7a5.58,5.58,0,0,1,3.15.91,5.78,5.78,0,0,1,2.7,4.91,6.45,6.45,0,0,1-6.48,6.57,6.42,6.42,0,0,1-2-.39c-.07,0-.11.13-.11.39V256a10,10,0,0,0,.22,2.48q0,.22.73.43a4.24,4.24,0,0,0,1,.21c.05,0,.09.13.1.4a2.54,2.54,0,0,1,0,.51l-1.48-.08q-1.28-.08-1.89-.08t-1.95.08l-1.48.08a1,1,0,0,1-.08-.51c0-.27,0-.4.08-.4a3.87,3.87,0,0,0,1-.21q.68-.21.76-.43a10,10,0,0,0,.17-2V245.93a2.68,2.68,0,0,0-.44-1.79,1.24,1.24,0,0,0-.61-.4,3.37,3.37,0,0,0-.66-.15c-.18,0-.28,0-.28-.08,0-.53.05-.81.17-.83a21.18,21.18,0,0,0,4.11-.77l.52-.14q.11,0,.11.58a1.49,1.49,0,0,1-.06.33,5.53,5.53,0,0,1,1.23-.65A4,4,0,0,1,385.2,241.7Zm-.66,1.46a2.09,2.09,0,0,0-1.48.52,1.83,1.83,0,0,0-.57,1.41v5.68a1.7,1.7,0,0,0,.75,1.45,2.69,2.69,0,0,0,1.6.54,2.59,2.59,0,0,0,2.14-1.16,5.33,5.33,0,0,0,.87-3.26,7.13,7.13,0,0,0-.88-3.71A2.71,2.71,0,0,0,384.54,243.17Z"/><path class="cls-1" d="M396.07,251a1.8,1.8,0,0,1,.54,1.3,1.85,1.85,0,0,1-.54,1.31,1.71,1.71,0,0,1-1.28.57,1.78,1.78,0,0,1-1.32-.57,1.82,1.82,0,0,1-.55-1.31,1.78,1.78,0,0,1,.55-1.3,1.81,1.81,0,0,1,1.32-.55A1.73,1.73,0,0,1,396.07,251Z"/></svg>