<svg id="Layer_1" data-name="Layer 1" xmlns="http://www.w3.org/2000/svg" viewBox="0 0 695.07 425.2"><defs><style>.cls-1{fill:#fff;stroke:#1928eb;stroke-miterlimit:10;stroke-width:1.2px;}</style></defs><title>title</title><path class="cls-1" d="M41.63,1.15A41.75,41.75,0,0,1,49.51,2,42.42,42.42,0,0,1,58,4.78a34.39,34.39,0,0,1,7.84,4.71,20.39,20.39,0,0,1,5.57,7.29,23,23,0,0,1,2.07,10.15A24.64,24.64,0,0,1,68.3,41.66a28,28,0,0,1-12.4,9.72q-1.16.42-.59,1.44a169.73,169.73,0,0,0,16,24.77A63,63,0,0,0,82.09,88.34q5.82,4.48,10.74,4.52a4.13,4.13,0,0,1,.56,2.32,5.76,5.76,0,0,1-.6,2.6A28.43,28.43,0,0,1,88.3,98a48.12,48.12,0,0,1-13.37-1.87,31,31,0,0,1-10.37-5.24,56.18,56.18,0,0,1-7.24-6.66,62.66,62.66,0,0,1-6-8.17q-2-2.91-4.57-6.85t-3.92-6q-1.36-2.11-3.07-4.45a28.48,28.48,0,0,0-2.93-3.5,7.38,7.38,0,0,0-2.37-1.62A9,9,0,0,0,31,53.16q-2.32,0-2.34,2.44L28.44,76q-.09,8.69,1,12.32.42,1.74,4.82,2.87a30.57,30.57,0,0,0,6.43,1.15q.58,0,.55,2.47A8.16,8.16,0,0,1,41,97.27Q25,96.24,20.42,96.2q-3.91,0-8.76.13l-7.75.29L1,96.87A5,5,0,0,1,.6,94.26q0-2.31.46-2.31a24.78,24.78,0,0,0,5.58-.89q3.7-.9,4.29-2.2.89-2.6,1-13.16L12.48,21A56.76,56.76,0,0,0,11.72,9.1Q11.3,7.94,7.48,6.67A21.05,21.05,0,0,0,1.92,5.39q-.58,0-.56-2.18T2,.61q15.34.59,19.25.62t10.06,0Q37.28,1.11,41.63,1.15ZM39.24,8.36q-6.08-.06-8.41.93-1.6.71-1.88,15L28.78,41q0,3.19,2.42,4.22A18.35,18.35,0,0,0,38,46.28l3.76,0q5.35.05,9.67-5t4.4-13.13Q56,8.53,39.24,8.36Z"/><path class="cls-1" d="M130,33.58a26.85,26.85,0,0,1,12.13,2.8,22.91,22.91,0,0,1,8.33,6.89,33.66,33.66,0,0,1,4.55,8.59,25,25,0,0,1,1.51,8.48q0,3.19-1.12,4t-4.42.75l-34.6-.34q-1,0-1,.86a28.18,28.18,0,0,0,1.78,10.15,19.91,19.91,0,0,0,6.36,8.6,17,17,0,0,0,10.89,3.73,39.76,39.76,0,0,0,4.2-.18,21.7,21.7,0,0,0,3.77-.69q1.74-.49,3-.91A12.46,12.46,0,0,0,148.14,85l2-1.21q.58-.35,2.91-1.92a2.37,2.37,0,0,1,.71.88,2.79,2.79,0,0,1,.42,1.45,4.45,4.45,0,0,1-.89,2.74q-2.21,3.89-8.62,7.73a26.85,26.85,0,0,1-14.37,3.77,29.32,29.32,0,0,1-21.62-9.55,31.22,31.22,0,0,1-8.9-22.74q.14-14.62,8.7-23.66T130,33.58ZM129,40.23a10.24,10.24,0,0,0-6.25,2,13.66,13.66,0,0,0-4.25,4.88,27.62,27.62,0,0,0-2.15,5.41,17.7,17.7,0,0,0-.69,4.26c0,.68.28,1,.86,1l23.45.23q1.3,0,1.32-2.16A18.76,18.76,0,0,0,138,45.53Q134.61,40.29,129,40.23Z"/><path class="cls-1" d="M210.82,34.38a15.64,15.64,0,0,1,9.38,2.92,16.91,16.91,0,0,1,5.72,7.37,34.17,34.17,0,0,1,10.64-7.13,32.52,32.52,0,0,1,13.63-2.76,16.44,16.44,0,0,1,8.88,2.4,16,16,0,0,1,5.73,6.5,34.06,34.06,0,0,1,3,9,55.27,55.27,0,0,1,.84,10.5l-.15,15.2a60.51,60.51,0,0,0,.88,13q.28,1,3.89,2.14a21.25,21.25,0,0,0,4.91,1.13c.29,0,.45.71.49,2.1a8.21,8.21,0,0,1-.24,2.82q-1-.16-7.59-.65t-9.91-.53q-3.47,0-9.92.34t-7.75.5a5.41,5.41,0,0,1-.41-2.75q0-2.17.46-2.17a19.47,19.47,0,0,0,5.22-1q3.48-1.05,3.78-2.06a45.06,45.06,0,0,0,1.11-10.12l.15-14.76q.21-21-13.25-21.12a13.19,13.19,0,0,0-8,2.24q-3.21,2.29-3.81,4.45c0,.29,0,.68-.08,1.16a2.81,2.81,0,0,0,.06,1.16,70.75,70.75,0,0,1,.34,9l-.15,15.34A56.92,56.92,0,0,0,229.51,91q.28,1,3.89,2.14a21.3,21.3,0,0,0,4.91,1.13c.29,0,.45.71.49,2.1a8.2,8.2,0,0,1-.24,2.82q-1-.16-7.59-.65T221,98q-3.47,0-9.92.34t-7.75.5a5.4,5.4,0,0,1-.41-2.76q0-2.17.46-2.17a19.47,19.47,0,0,0,5.22-1q3.48-1,3.78-2.06a47.36,47.36,0,0,0,1.12-10.56l.14-13.9q.11-11.29-3.17-16.39a11,11,0,0,0-9.79-5.16,13.87,13.87,0,0,0-8,2.38q-3.64,2.43-3.67,5.46l-.25,24.9q-.09,8.83,1,13,.28,1,3.74,2.14a19.65,19.65,0,0,0,4.77,1.13q.58,0,.63,2.11a8.2,8.2,0,0,1-.24,2.82q-1.16-.16-7.59-.65t-9.77-.53q-3.62,0-10.14.33t-7.68.5q-.58-.59-.55-2.76t.6-2.17a21,21,0,0,0,5.22-1q3.63-1,3.93-2.06a47.29,47.29,0,0,0,1.12-10.56l.23-23.6q.07-6.8-2.22-9.29a7,7,0,0,0-3.23-2.2,16.26,16.26,0,0,0-3.54-.9c-1-.11-1.44-.25-1.44-.45q0-4.2.91-4.33,6.66-.51,23.2-4.11a.91.91,0,0,1,.44-.21,3.06,3.06,0,0,1,.72-.07c.48,0,.86.35,1.15,1a2.66,2.66,0,0,1,.27,1.59,49.59,49.59,0,0,0-.63,5.21c0,.39.09.63.28.73a2.13,2.13,0,0,0,.73-.43,32.12,32.12,0,0,1,9-6A25.36,25.36,0,0,1,210.82,34.38Z"/><path class="cls-1" d="M315.33,35.42a26.84,26.84,0,0,1,12.13,2.8,22.89,22.89,0,0,1,8.33,6.89,33.65,33.65,0,0,1,4.55,8.59,25,25,0,0,1,1.51,8.48q0,3.19-1.12,4t-4.42.75l-34.6-.34c-.68,0-1,.28-1,.86a28.16,28.16,0,0,0,1.78,10.15,19.91,19.91,0,0,0,6.36,8.6,17,17,0,0,0,10.89,3.73,39.76,39.76,0,0,0,4.2-.18,21.69,21.69,0,0,0,3.77-.69q1.74-.49,3-.91a12.42,12.42,0,0,0,2.69-1.28l2-1.21q.58-.35,2.92-1.93a2.38,2.38,0,0,1,.71.88,2.79,2.79,0,0,1,.42,1.45,4.46,4.46,0,0,1-.89,2.74q-2.21,3.89-8.62,7.73a26.87,26.87,0,0,1-14.37,3.77,29.31,29.31,0,0,1-21.62-9.55A31.22,31.22,0,0,1,285,68q.14-14.62,8.7-23.66T315.33,35.42Zm-1.08,6.65A10.24,10.24,0,0,0,308,44a13.67,13.67,0,0,0-4.25,4.88,27.6,27.6,0,0,0-2.15,5.41,17.7,17.7,0,0,0-.69,4.26q0,1,.86,1l23.45.23q1.3,0,1.32-2.16a18.76,18.76,0,0,0-3.3-10.31Q319.9,42.12,314.25,42.06Z"/><path class="cls-1" d="M396.11,36.22a15.65,15.65,0,0,1,9.38,2.92,16.93,16.93,0,0,1,5.72,7.37,34.15,34.15,0,0,1,10.64-7.13,32.5,32.5,0,0,1,13.63-2.76,16.42,16.42,0,0,1,8.88,2.4,16,16,0,0,1,5.73,6.5,34.06,34.06,0,0,1,3,9,55.27,55.27,0,0,1,.84,10.5l-.15,15.2a60.52,60.52,0,0,0,.88,13q.28,1,3.89,2.14a21.29,21.29,0,0,0,4.91,1.13c.29,0,.45.71.49,2.1a8.21,8.21,0,0,1-.24,2.82q-1-.16-7.59-.65t-9.91-.53q-3.47,0-9.92.34t-7.75.5a5.41,5.41,0,0,1-.41-2.75q0-2.17.46-2.17a19.43,19.43,0,0,0,5.22-1q3.48-1.05,3.78-2.06A45.06,45.06,0,0,0,438.64,83l.15-14.76q.21-21-13.26-21.12a13.19,13.19,0,0,0-8,2.24q-3.21,2.29-3.81,4.45c0,.29,0,.68-.08,1.16a2.81,2.81,0,0,0,.06,1.16,70.76,70.76,0,0,1,.34,9l-.15,15.34a56.92,56.92,0,0,0,.89,12.46q.28,1,3.89,2.14a21.25,21.25,0,0,0,4.91,1.13c.29,0,.45.71.49,2.1a8.21,8.21,0,0,1-.24,2.82q-1-.16-7.59-.65t-9.91-.53q-3.47,0-9.92.34t-7.75.5a5.4,5.4,0,0,1-.41-2.75q0-2.17.46-2.17a19.47,19.47,0,0,0,5.22-1q3.48-1.05,3.78-2.06a47.35,47.35,0,0,0,1.12-10.56l.14-13.9q.11-11.29-3.17-16.39A11,11,0,0,0,386,46.68a13.87,13.87,0,0,0-8,2.38q-3.64,2.43-3.67,5.46l-.25,24.9q-.09,8.83,1,13,.28,1,3.74,2.14a19.7,19.7,0,0,0,4.77,1.13q.58,0,.63,2.11a8.2,8.2,0,0,1-.24,2.82q-1.16-.16-7.59-.65t-9.77-.53q-3.62,0-10.14.33t-7.68.5q-.58-.59-.55-2.76t.6-2.17a21,21,0,0,0,5.22-1q3.63-1,3.93-2.06a47.29,47.29,0,0,0,1.12-10.56l.23-23.6q.07-6.8-2.22-9.29a7,7,0,0,0-3.24-2.2,16.31,16.31,0,0,0-3.54-.9c-1-.1-1.44-.25-1.44-.45q0-4.2.91-4.33,6.66-.51,23.2-4.11a.92.92,0,0,1,.44-.21,3.11,3.11,0,0,1,.72-.07c.48,0,.86.35,1.15,1a2.67,2.67,0,0,1,.27,1.59A49.6,49.6,0,0,0,375,44.4c0,.39.09.63.28.73a2.17,2.17,0,0,0,.73-.43,32.1,32.1,0,0,1,9-6A25.35,25.35,0,0,1,396.11,36.22Z"/><path class="cls-1" d="M507.86,37.32A29.42,29.42,0,0,1,524,42a30.4,30.4,0,0,1,10.74,11.69,30.89,30.89,0,0,1,3.55,14.59,33.05,33.05,0,0,1-10.3,24.15q-10.16,10-23.33,9.83a45.3,45.3,0,0,1-10.56-1.19,31.64,31.64,0,0,0-6.79-1.15,11,11,0,0,0-3.77,1,14.41,14.41,0,0,1-2.91,1,7,7,0,0,1-2.09-.89q-1.66-.88-1.65-1.46c0-.29.11-1.16.32-2.6s.47-3.52.79-6.22a83.36,83.36,0,0,0,.52-8.83L479,22.85a50.53,50.53,0,0,0-.77-9.85q-.7-2.32-7.5-2.39h-1.3q-.87,0-.85-2.32T469.51,6q4.49-.39,8.55-1.07t6.74-1.38q2.69-.7,4.65-1.4T493.6.7h.29a1.56,1.56,0,0,1,1.15.81A4,4,0,0,1,495.74,3,50.6,50.6,0,0,0,494,16.63l-.23,23.16v.15c0,.29,0,.51,0,.65a4.21,4.21,0,0,0,.07.65c0,.29.14.44.29.44a1.16,1.16,0,0,0,.51-.14,26.44,26.44,0,0,1,5.89-2.84A20.69,20.69,0,0,1,507.86,37.32Zm-3.26,7.79a11.21,11.21,0,0,0-7.84,2.67,8.51,8.51,0,0,0-3.1,6.48L493.34,85a8.68,8.68,0,0,0,3.76,7.71,15.69,15.69,0,0,0,9,2.7q7.52.08,11.43-6.69t4-16.46q.12-12.45-4.29-19.73A14.19,14.19,0,0,0,504.59,45.11Z"/><path class="cls-1" d="M576.61,38a26.83,26.83,0,0,1,12.13,2.8,22.9,22.9,0,0,1,8.33,6.89,33.63,33.63,0,0,1,4.55,8.59,25,25,0,0,1,1.51,8.48q0,3.18-1.12,4t-4.42.75L563,69.14q-1,0-1,.86a28.16,28.16,0,0,0,1.78,10.15,19.93,19.93,0,0,0,6.36,8.6A17,17,0,0,0,581,92.48a39.25,39.25,0,0,0,4.2-.18,21.59,21.59,0,0,0,3.77-.69q1.74-.49,3-.91a12.42,12.42,0,0,0,2.69-1.28l2-1.21q.58-.35,2.92-1.93a2.37,2.37,0,0,1,.71.88,2.79,2.79,0,0,1,.42,1.45,4.45,4.45,0,0,1-.89,2.74q-2.21,3.89-8.62,7.73a26.85,26.85,0,0,1-14.37,3.77,29.32,29.32,0,0,1-21.62-9.55,31.22,31.22,0,0,1-8.89-22.75q.14-14.62,8.7-23.66T576.61,38Zm-1.08,6.65a10.23,10.23,0,0,0-6.24,2A13.66,13.66,0,0,0,565,51.5a27.62,27.62,0,0,0-2.15,5.41,17.71,17.71,0,0,0-.69,4.26q0,1,.86,1l23.45.23q1.3,0,1.32-2.16A18.76,18.76,0,0,0,584.53,50Q581.18,44.71,575.53,44.65Z"/><path class="cls-1" d="M652.47,38.75q8,.08,11.82,4.89-.12,12.3-7.07,12.24-2.61,0-5.62-3a9.07,9.07,0,0,0-6.2-3q-4.49,0-7.06,4.49a19.26,19.26,0,0,0-2.63,9.46L635.53,82a60.59,60.59,0,0,0,.88,13q.28,1,3.82,2.14a20.46,20.46,0,0,0,4.84,1.13c.29,0,.45.71.49,2.1a15.09,15.09,0,0,1-.1,2.82q-1.16-.16-7.67-.66t-9.84-.53q-3.47,0-10.06.33t-7.75.5q-.58-.58-.55-2.76t.6-2.17a20.21,20.21,0,0,0,5.29-1q3.56-1.05,3.86-2.06a47.28,47.28,0,0,0,1.12-10.56l.23-23.6q.07-6.8-2.22-9.29a7,7,0,0,0-3.24-2.2,16.55,16.55,0,0,0-3.47-.9c-.92-.1-1.37-.25-1.37-.45q0-4.2.77-4.34,6.66-.51,23.35-4.11a8.54,8.54,0,0,1,1.16-.28q.58,0,1,1a3.46,3.46,0,0,1,.34,1.67q-.08.65-.24,2c-.11.92-.24,1.88-.39,2.89a18.45,18.45,0,0,0-.24,2,26.57,26.57,0,0,1,7.16-7A15.87,15.87,0,0,1,652.47,38.75Z"/><path class="cls-1" d="M681,105.34q0-2.32-2.11-6A13.06,13.06,0,0,1,676.83,93q0-3,3.1-6a10.77,10.77,0,0,1,8-3,9.38,9.38,0,0,1,4.62.91A22.57,22.57,0,0,1,694.47,95a26,26,0,0,1-1.23,6.94,41.57,41.57,0,0,1-6.36,13.33q-4,5.24-12.42,11.68h-.14q-.73,0-2-1.54A4.36,4.36,0,0,1,671,122.9a20.83,20.83,0,0,1,2.48-2.29,26.49,26.49,0,0,0,5-6.25A17.35,17.35,0,0,0,681,105.34Z"/><path class="cls-1" d="M156.51,148.15a41.78,41.78,0,0,1,7.92.48,42.41,42.41,0,0,1,8.64,2.34,34.41,34.41,0,0,1,8.07,4.32,20.39,20.39,0,0,1,5.93,7,23,23,0,0,1,2.57,10,24.64,24.64,0,0,1-4.48,15,28,28,0,0,1-11.91,10.32q-1.14.48-.52,1.47A169.76,169.76,0,0,0,189.9,223a63,63,0,0,0,11.34,10.2q6,4.18,11,4a4.13,4.13,0,0,1,.67,2.29,5.77,5.77,0,0,1-.48,2.63,28.29,28.29,0,0,1-4.47.47,48.14,48.14,0,0,1-13.45-1.21,31,31,0,0,1-10.62-4.72,56.13,56.13,0,0,1-7.57-6.29,62.64,62.64,0,0,1-6.4-7.86q-2.14-2.81-4.9-6.62t-4.22-5.84q-1.46-2-3.29-4.29a28.5,28.5,0,0,0-3.1-3.35,7.41,7.41,0,0,0-2.45-1.5,9,9,0,0,0-3.49-.3q-2.31.09-2.22,2.55l.81,20.4q.34,8.68,1.64,12.25.5,1.72,5,2.63a30.57,30.57,0,0,0,6.48.83q.58,0,.68,2.44a8.13,8.13,0,0,1-.19,2.47q-15.95-.24-20.57-.05-3.91.16-8.74.56l-7.72.67-2.88.4a5,5,0,0,1-.54-2.59q-.09-2.31.34-2.33a24.77,24.77,0,0,0,5.53-1.16q3.65-1.09,4.18-2.41.76-2.64.35-13.2l-2.17-54.68A56.82,56.82,0,0,0,127,157.58q-.48-1.14-4.36-2.22a21.06,21.06,0,0,0-5.62-1c-.39,0-.61-.7-.66-2.15s.1-2.32.48-2.63q15.35-.17,19.26-.33t10-.54Q152.17,148.33,156.51,148.15Zm-2,7.32q-6.08.24-8.35,1.34-1.56.79-1.14,15.11l.66,16.63q.13,3.18,2.63,4.1a18.35,18.35,0,0,0,6.84.74l3.76-.15q5.35-.21,9.42-5.44T172,174.48Q171.26,154.81,154.48,155.48Z"/><path class="cls-1" d="M246.43,176.17a26.84,26.84,0,0,1,12.26,2.19,22.92,22.92,0,0,1,8.66,6.47,33.66,33.66,0,0,1,5,8.35,25,25,0,0,1,1.93,8.4q.13,3.18-.93,4t-4.38,1l-34.57,1.37q-1,0-1,.91a28.14,28.14,0,0,0,2.28,10.05,19.9,19.9,0,0,0,6.78,8.28,17,17,0,0,0,11.06,3.18,39.49,39.49,0,0,0,4.19-.38,21.68,21.68,0,0,0,3.73-.87q1.72-.57,3-1.06a12.35,12.35,0,0,0,2.62-1.41l1.9-1.31q.56-.38,2.82-2.07a2.37,2.37,0,0,1,.76.84,2.79,2.79,0,0,1,.49,1.43,4.46,4.46,0,0,1-.76,2.78q-2,4-8.22,8.15a26.87,26.87,0,0,1-14.17,4.47,29.31,29.31,0,0,1-22.07-8.47,31.22,31.22,0,0,1-10-22.28q-.58-14.61,7.52-24.06T246.43,176.17Zm-.75,6.69a10.23,10.23,0,0,0-6.14,2.27,13.66,13.66,0,0,0-4,5.08,27.67,27.67,0,0,0-1.88,5.51,17.68,17.68,0,0,0-.48,4.29c0,.68.33,1,.91,1l23.43-.93q1.3-.05,1.22-2.22a18.76,18.76,0,0,0-3.8-10.14Q251.32,182.64,245.68,182.87Z"/><path class="cls-1" d="M319.33,173.43A29.29,29.29,0,0,1,336,177.55a30.34,30.34,0,0,1,15.2,25.19q.59,14.9-9.08,25.06a33.2,33.2,0,0,1-23.55,10.71,33.57,33.57,0,0,1-10.35-1.62q-.58,0-.5,2l.39,9.84q.36,9,1.67,13,.19,1.15,3.92,2.09a22.14,22.14,0,0,0,5,.89q.43,0,.59,2.08a13.13,13.13,0,0,1,0,2.68q-1,0-7.76-.13t-9.93,0q-3.62.14-10.18.84t-7.72.74a5.19,5.19,0,0,1-.54-2.66q-.08-2.1.35-2.11a20.21,20.21,0,0,0,5.24-1.29q3.5-1.23,3.89-2.4a52.62,52.62,0,0,0,.46-10.45L291,196.72q-.28-6.94-2.69-9.31a6.53,6.53,0,0,0-3.26-2,17.42,17.42,0,0,0-3.5-.66c-1-.06-1.46-.18-1.46-.38q-.17-4.19.7-4.37a111.25,111.25,0,0,0,21.39-4.9q2.58-.82,2.72-.83.58,0,.7,3a7.94,7.94,0,0,1-.22,1.75,29,29,0,0,1,6.3-3.65A20.8,20.8,0,0,1,319.33,173.43Zm-3.17,7.8a10.93,10.93,0,0,0-7.63,3.06,9.57,9.57,0,0,0-2.67,7.49l1.18,29.8a8.9,8.9,0,0,0,4.21,7.44,14.06,14.06,0,0,0,8.5,2.49q6.65-.26,11-6.52t3.88-17.25q-.46-11.72-5.4-19.27T316.17,181.23Z"/><path class="cls-1" d="M388.32,170.55q9-.36,13.64,4.17t5.12,16l1.13,28.5a6.61,6.61,0,0,0,1.48,4.36,4.35,4.35,0,0,0,3.53,1.38,9,9,0,0,0,4.84-2.08c.59.17.9.69.93,1.56a8.6,8.6,0,0,1-.7,4.37,35.86,35.86,0,0,1-5.64,3.85,15.09,15.09,0,0,1-6.87,2.16,10.57,10.57,0,0,1-6.61-2.2,11.87,11.87,0,0,1-4.41-5.19c-.09.1-.44.43-1,1s-1.45,1.24-2.53,2.06a42.83,42.83,0,0,1-3.67,2.46A23.09,23.09,0,0,1,382.7,235a21,21,0,0,1-5.68,1q-7.23.29-11.95-3.51t-5-10.74a13.34,13.34,0,0,1,1.4-6.57,17.28,17.28,0,0,1,3.78-5.15,29.63,29.63,0,0,1,6.07-4.08,59.49,59.49,0,0,1,6.62-3.09q2.78-1.05,7.14-2.53t6.07-2.12a2.28,2.28,0,0,0,1.21-2.37l-.31-8q-.2-5.06-2.63-7.86a7.56,7.56,0,0,0-6.33-2.65,8.78,8.78,0,0,0-6.69,2.95q-2.36,2.78-2.16,7.69a4.69,4.69,0,0,1-2,4.35,9,9,0,0,1-4.86,1.57q-5.35.21-7.66-3.17-.28-6.94,9-13.39A36.3,36.3,0,0,1,388.32,170.55ZM384,226.35a11.23,11.23,0,0,0,6.65-2.29q2.74-2.14,2.64-4.74l-.58-14.75c-.67.32-2.07.86-4.21,1.62s-3.78,1.41-4.92,1.93a39.27,39.27,0,0,0-4,2.19,8.72,8.72,0,0,0-3.27,3.32,8,8,0,0,0-.92,4.09q.18,4.63,2.58,6.71A8.32,8.32,0,0,0,384,226.35Z"/><path class="cls-1" d="M450.8,211.53q.35,8.83,1.67,13,.33,1,4,1.94a21.29,21.29,0,0,0,5,.89q.57,0,.73,2.07a8.19,8.19,0,0,1-.11,2.83q-1-.11-7.76-.27t-9.93,0q-3.62.14-10.18.84t-7.57.88q-.6-.56-.69-2.73t.49-2.19a21,21,0,0,0,5.16-1.29q3.57-1.23,3.82-2.25a47.29,47.29,0,0,0,.59-10.6L435.06,191q-.27-6.8-2.68-9.17a8,8,0,0,0-3.41-2,15.24,15.24,0,0,0-3.51-.73c-1-.06-1.46-.18-1.46-.38q-.17-4.19.7-4.37a111,111,0,0,0,11.65-2.2,113.66,113.66,0,0,0,11.33-3.06,8.6,8.6,0,0,0,1.15-.34c.48,0,.88.3,1.2,1a2.66,2.66,0,0,1,.35,1.58,124.12,124.12,0,0,0-.66,12.49ZM433.36,151.6a8.82,8.82,0,0,1-2.86-6.26,9,9,0,0,1,17.94-.71,8.82,8.82,0,0,1-2.35,6.47,8.91,8.91,0,0,1-12.73.5Z"/><path class="cls-1" d="M509.11,165.76q8-.31,12.05,4.3.49,12.3-6.46,12.57-2.6.1-5.76-2.67a9.06,9.06,0,0,0-6.33-2.65q-4.49.18-6.83,4.83a19.26,19.26,0,0,0-2.16,9.57l.72,18.08a60.57,60.57,0,0,0,1.53,13q.33,1,3.92,1.95a20.46,20.46,0,0,0,4.89.89c.29,0,.48.68.59,2.08a15.11,15.11,0,0,1,0,2.82q-1.17-.1-7.69-.27t-9.85,0q-3.47.14-10,.83t-7.72.88q-.6-.56-.69-2.72t.49-2.19a20.18,20.18,0,0,0,5.24-1.29q3.5-1.23,3.75-2.25a47.36,47.36,0,0,0,.59-10.6l-.93-23.58q-.27-6.8-2.68-9.17a7,7,0,0,0-3.34-2,16.55,16.55,0,0,0-3.51-.73c-.92-.06-1.38-.18-1.39-.38q-.17-4.19.55-4.37,6.63-.84,23.12-5.26a8.66,8.66,0,0,1,1.15-.33c.38,0,.74.31,1.05,1a3.46,3.46,0,0,1,.43,1.65q0,.65-.14,2c-.06.92-.14,1.89-.25,2.91a18.51,18.51,0,0,0-.14,2,26.59,26.59,0,0,1,6.81-7.3A15.85,15.85,0,0,1,509.11,165.76Z"/><path class="cls-1" d="M541,230.85q-.09-2.32-2.41-5.92a13.05,13.05,0,0,1-2.42-6.21q-.12-3,2.8-6.2a10.77,10.77,0,0,1,7.84-3.35,9.37,9.37,0,0,1,4.66.68,22.57,22.57,0,0,1,2.43,10,26,26,0,0,1-.88,7,41.6,41.6,0,0,1-5.69,13.63q-3.7,5.43-11.83,12.28h-.14q-.73,0-2.08-1.44a4.35,4.35,0,0,1-1.4-2.48,20.79,20.79,0,0,1,2.37-2.41,26.55,26.55,0,0,0,4.67-6.49A17.35,17.35,0,0,0,541,230.85Z"/><path class="cls-1" d="M41.2,338q.27-10.85,9.58-18.08A31.62,31.62,0,0,1,71.52,313a50.68,50.68,0,0,1,7.08.61q3,.51,8.42,2t7.41,2a129.14,129.14,0,0,1,1.18,22.33,1.58,1.58,0,0,1-1.77,1.26q-3.91-.1-4.16-1.41-.7-6.68-5.89-13.18t-12.86-6.7q-6.66-.17-10.3,3.51t-3.8,10a16.31,16.31,0,0,0,.4,4.14,10.22,10.22,0,0,0,1.93,3.89q1.47,1.92,2.38,3.17a17.22,17.22,0,0,0,3.54,3.2q2.63,1.95,3.55,2.7t4.27,2.93A44.07,44.07,0,0,0,77,356a53.49,53.49,0,0,0,4.77,3.23q3.92,2.49,5.48,3.61t4.54,3.81a20.9,20.9,0,0,1,4.29,5,29.72,29.72,0,0,1,2.39,5.92,24.41,24.41,0,0,1,1,7.63q-.29,11.58-9.82,18.87a33.48,33.48,0,0,1-21.83,7q-8.68-.22-26.52-4.72a126.12,126.12,0,0,1-2.06-13.16,98.35,98.35,0,0,1-.83-10.37c.11-.77.9-1.14,2.34-1.1q3.76.1,4.17,1.26a28.17,28.17,0,0,0,1.88,5.77,42.11,42.11,0,0,0,3.81,6.76,19,19,0,0,0,6.66,6,20.34,20.34,0,0,0,9.57,2.49,16.21,16.21,0,0,0,11.39-3.77q4.59-3.94,4.79-12a12.62,12.62,0,0,0-.82-4.8,16.78,16.78,0,0,0-2.07-4,21.18,21.18,0,0,0-3.53-3.56q-2.34-1.94-3.91-3T68,369.85q-3.07-1.89-4.35-2.64a10,10,0,0,0-1.56-1.2q-4.13-2.71-6.27-4.21a69.89,69.89,0,0,1-5.46-4.41,28.66,28.66,0,0,1-5-5.41,27.37,27.37,0,0,1-3-6.16A21.78,21.78,0,0,1,41.2,338Z"/><path class="cls-1" d="M137.7,347.35a26.85,26.85,0,0,1,12.09,3,22.91,22.91,0,0,1,8.22,7,33.68,33.68,0,0,1,4.42,8.65,25,25,0,0,1,1.38,8.51q-.08,3.18-1.19,4t-4.43.68l-34.59-.87q-1,0-1,.84a28.17,28.17,0,0,0,1.63,10.18,19.91,19.91,0,0,0,6.23,8.7,17,17,0,0,0,10.84,3.89,39.57,39.57,0,0,0,4.2-.11,21.59,21.59,0,0,0,3.78-.63q1.75-.46,3.06-.86A12.37,12.37,0,0,0,155,399l2-1.18q.59-.35,2.94-1.88a2.4,2.4,0,0,1,.7.89,2.79,2.79,0,0,1,.4,1.46,4.45,4.45,0,0,1-.94,2.73q-2.27,3.85-8.73,7.6a26.86,26.86,0,0,1-14.43,3.55,29.31,29.31,0,0,1-21.47-9.88,31.22,31.22,0,0,1-8.55-22.88q.37-14.62,9.06-23.52T137.7,347.35ZM136.52,354a10.22,10.22,0,0,0-6.27,1.87,13.66,13.66,0,0,0-4.32,4.81,27.56,27.56,0,0,0-2.23,5.37,17.65,17.65,0,0,0-.76,4.25q0,1,.84,1l23.44.59q1.3,0,1.36-2.14a18.77,18.77,0,0,0-3.14-10.36Q142.16,354.12,136.52,354Z"/><path class="cls-1" d="M218.45,349.38q18.67.47,17.92,30.14L236,393.27a60.66,60.66,0,0,0,.69,13.05q.26,1,3.93,2.2a22.25,22.25,0,0,0,5,1.21c.29,0,.44.71.45,2.11a8.22,8.22,0,0,1-.29,2.82q-.86-.17-7.58-.77t-10-.69q-3.47-.09-9.64.19t-7.47.39q-.57-.59-.51-2.76t.63-2.16a17.26,17.26,0,0,0,4.88-1q3.29-1,3.6-2a41.55,41.55,0,0,0,1.42-10.54l.35-13.75q.3-12-2.83-16.87t-10.23-5a13.4,13.4,0,0,0-8.17,2.33q-3.54,2.45-3.61,5.34l-.63,24.89a60.72,60.72,0,0,0,.68,13q.26,1,3.78,2.19a20.86,20.86,0,0,0,4.68,1.2q.58,0,.6,2.12a8.22,8.22,0,0,1-.29,2.82q-1.16-.18-7.58-.77t-9.76-.68q-3.47-.09-10.07.18t-7.76.38c-.38-.4-.55-1.32-.51-2.76s.25-2.17.63-2.16a20.24,20.24,0,0,0,5.31-1q3.57-1,3.89-2a47.25,47.25,0,0,0,1.28-10.54l.59-23.59q.17-6.8-2.08-9.32a7,7,0,0,0-3.2-2.25,16.64,16.64,0,0,0-3.45-1q-1.37-.18-1.36-.47.11-4.2.83-4.32,6.67-.41,23.41-3.75a.94.94,0,0,1,.37-.21,1.4,1.4,0,0,1,.44-.06h.36c.38,0,.71.36,1,1a4.42,4.42,0,0,1,.39,1.6,49.32,49.32,0,0,0-.71,5.2,1.13,1.13,0,0,0,.13.73,2.12,2.12,0,0,0,.73-.42,32.13,32.13,0,0,1,9.05-5.85A25.34,25.34,0,0,1,218.45,349.38Z"/><path class="cls-1" d="M288.21,350.85a24.89,24.89,0,0,1,10.51,2.29q.72,0,.78-2.3l.34-13.6a50.53,50.53,0,0,0-.62-9.86q-.67-2.33-7.47-2.5l-1.16,0q-.87,0-.81-2.34t.93-2.29q4.35-.33,8.5-.94t6.84-1.28q2.7-.65,4.67-1.33l3-1a7.33,7.33,0,0,1,1.17-.33h.29a1.56,1.56,0,0,1,1.14.83,2.62,2.62,0,0,1,.54,1.53,55.43,55.43,0,0,0-1.79,13.57l-1.6,63.68a53,53,0,0,0,.6,10.73,2.13,2.13,0,0,0,1.41,1.63,8.85,8.85,0,0,0,2.73.79c1,.12,1.88.22,2.74.29l1.45.11a3,3,0,0,1,.25,1.74q-.07,2.9-.94,2.87-2,.09-5.15.45t-6.1.79q-3,.43-5.67.87t-6,1.08q-.87,0-.81-2.48l.06-2.46a.65.65,0,0,0-.2-.58c-.14-.1-.27-.1-.36,0a24.16,24.16,0,0,1-15.19,5A28,28,0,0,1,262,406.59q-8.47-8.83-8.14-21.85a34,34,0,0,1,10.53-24.28Q274.6,350.5,288.21,350.85Zm-1.48,6.91A12.67,12.67,0,0,0,275,364q-4.07,6.41-4.35,17.41-.31,12.3,4,19.29a14.22,14.22,0,0,0,12.42,7.19,12,12,0,0,0,8-2.33,8,8,0,0,0,3.2-6.36l.77-30.39a10,10,0,0,0-.43-3.05,13.45,13.45,0,0,0-1.65-3.44,9.23,9.23,0,0,0-3.83-3.14A15.39,15.39,0,0,0,286.73,357.76Z"/><path class="cls-1" d="M388.91,342.67l-1.37,54.41a42.57,42.57,0,0,0,1,11.61q.68,1.9,9.79,2.13l5.35.13q11.29.28,17.3-2.61,2.34-1.1,5.34-4.93A30.53,30.53,0,0,0,431,394.7q.16-.87,2-.82,3.18.08,4,1-.47,1.29-2.25,5.88t-2.71,7q-.93,2.37-2,5.81a40.09,40.09,0,0,0-1.45,5.61q-5.79-.15-23.94-1t-25.54-.79l-19.26.09a3.8,3.8,0,0,1-.37-2.33q.06-2.46.5-2.45a23.82,23.82,0,0,0,5.52-.8q3.64-.85,4.25-2.14,1.09-3,1.35-13.14l1.38-54.7q.22-8.83-.85-12.33-.55-1.17-4-2.35a19.43,19.43,0,0,0-5.18-1.22c-.39,0-.56-.74-.52-2.19a5.85,5.85,0,0,1,.35-2.6q.72,0,8,.64t11.21.72q1.16,0,18.55-.4a7.48,7.48,0,0,1,.38,2.33c0,1.64-.26,2.46-.64,2.45a23.56,23.56,0,0,0-5.24,1q-3.94,1.06-4.25,2.07A53.83,53.83,0,0,0,388.91,342.67Z"/><path class="cls-1" d="M478.36,355.93a31.91,31.91,0,0,1,23,10.06,31,31,0,0,1,9,23.18,32.79,32.79,0,0,1-65.56-1.65,31.19,31.19,0,0,1,10.06-22.77A31.72,31.72,0,0,1,478.36,355.93Zm-2.05,6.75q-6.8-.17-10.73,6.32a31.11,31.11,0,0,0-4.16,15.61q-.3,11.72,4.19,20.52t12.88,9q6.8.17,10.8-6.39a30.78,30.78,0,0,0,4.23-15.53,49.65,49.65,0,0,0-1.53-14,25.53,25.53,0,0,0-5.81-10.93A13.43,13.43,0,0,0,476.31,362.68Z"/><path class="cls-1" d="M572.2,367.41q-1.79-4-10-4.16-.43,0-.38-2a5,5,0,0,1,.5-2.59q2,.05,7,.61t8.24.64q3.26.08,8.48-.22t7.1-.26a4.2,4.2,0,0,1,.38,2.33q-.06,2.32-.93,2.29a17.26,17.26,0,0,0-5.68,1.23,8.4,8.4,0,0,0-5,4L556.4,419.72a9.83,9.83,0,0,1-1.94,2.41,3.66,3.66,0,0,1-2.49,1.24q-1.45,0-1.71-.91-2.73-6.59-7.43-18.22t-8.12-19.68q-3.42-8-7.8-18.15-1.63-4.09-9.31-4.29-.58,0-.52-2.33a3.35,3.35,0,0,1,.64-2.3q1.3,0,7.66.63t9.83.68q3.47.09,10-.18t7.54-.24A4.71,4.71,0,0,1,553,361c-.08,1.35-.32,2-.7,2a21.27,21.27,0,0,0-5.16.74q-3.28.79-3.32,2.23a2.69,2.69,0,0,0,.25,1.45l13.49,33.65,13.75-28.33Q573.17,369,572.2,367.41Z"/><path class="cls-1" d="M629.73,359.74a26.84,26.84,0,0,1,12.09,3,22.93,22.93,0,0,1,8.22,7,33.65,33.65,0,0,1,4.42,8.65,25,25,0,0,1,1.38,8.51q-.08,3.18-1.19,4t-4.43.68l-34.59-.87q-1,0-1,.84a28.17,28.17,0,0,0,1.63,10.18,19.92,19.92,0,0,0,6.23,8.7,17,17,0,0,0,10.84,3.89,39.57,39.57,0,0,0,4.2-.11,21.66,21.66,0,0,0,3.78-.63q1.75-.46,3.06-.86a12.39,12.39,0,0,0,2.71-1.24l2-1.18q.59-.35,2.94-1.88a2.37,2.37,0,0,1,.7.89,2.8,2.8,0,0,1,.4,1.46,4.46,4.46,0,0,1-.94,2.73q-2.27,3.85-8.74,7.6A26.86,26.86,0,0,1,629,424.59a29.31,29.31,0,0,1-21.47-9.88,31.22,31.22,0,0,1-8.55-22.88q.37-14.62,9.06-23.52T629.73,359.74Zm-1.18,6.63a10.23,10.23,0,0,0-6.27,1.87,13.65,13.65,0,0,0-4.32,4.81,27.67,27.67,0,0,0-2.23,5.37,17.66,17.66,0,0,0-.76,4.25q0,1,.84,1l23.44.59q1.3,0,1.36-2.14a18.77,18.77,0,0,0-3.14-10.36Q634.19,366.51,628.55,366.37Z"/></svg>