<svg id="Layer_1" data-name="Layer 1" xmlns="http://www.w3.org/2000/svg" viewBox="0 0 1094.93 427.76"><defs><style>.cls-1{fill:#fff;stroke:#1928eb;stroke-miterlimit:10;stroke-width:1.2px;}</style></defs><title>title</title><path class="cls-1" d="M14.21,166.74q-1.25-8.6-2.89-11.87-.74-1.06-4.33-1.64a19.44,19.44,0,0,0-5.31-.33c-.38.06-.68-.63-.88-2.07a5.85,5.85,0,0,1-.09-2.62q.71-.1,8-.72t11.16-1.18q1.15-.17,18.21-3.52a7.45,7.45,0,0,1,.76,2.23c.24,1.63.16,2.46-.22,2.52a23.59,23.59,0,0,0-5,1.89q-3.7,1.71-3.84,2.75A53.77,53.77,0,0,0,30.49,165l7.8,53.87a53.63,53.63,0,0,0,3.16,12.71q.43,1,4.24,1.51a22.22,22.22,0,0,0,5.1.36q.57-.08,1,2.64a6.41,6.41,0,0,1,0,2q-17.32,1.63-18.32,1.78-2.87.41-6,1t-6.9,1.36l-6,1.24a2.83,2.83,0,0,1-.86-1.92q-.4-2.72.18-2.81A23,23,0,0,0,19,237q3.51-1.53,3.77-2.74a50.77,50.77,0,0,0-.6-12.2Z"/><path class="cls-1" d="M128.68,130l41,70.72q3,5.42,5.81,9.84,1.17,2,5.08,2.77a19.27,19.27,0,0,0,5.63.5q.57-.08.95,2.5a4.88,4.88,0,0,1,0,2.19q-17.31,1.63-18.18,1.76t-18.5,3.56a4.09,4.09,0,0,1-1-2.57c-.2-1.38-.11-2.11.27-2.16a18.65,18.65,0,0,0,4.6-1.54q2.89-1.29,3.29-2.52a4.12,4.12,0,0,0,.16-1.92q-.41-2.86-4.15-9.49L146.74,191a1.6,1.6,0,0,0-1.09-.43q-4.63.38-12.36,1.5T117,194.85c-.57.08-.83.32-.78.7l-3.51,14.11q-1.65,7.85-1.37,9.71a3.23,3.23,0,0,0,2,2.64,14.49,14.49,0,0,0,4.74.92,25,25,0,0,0,4.47.08q.45.08.72,1.94a9.48,9.48,0,0,1,.11,2.76q-.72.1-6.79.55t-9.8,1q-3.73.54-8.76,1.63l-7.16,1.55a3.08,3.08,0,0,1-.88-2.07q-.37-2.58-.09-2.62a21,21,0,0,0,5.34-2q3.62-1.77,4.39-3.49a68.9,68.9,0,0,0,3.83-12l17.31-68.33q2-9.07,3.8-11.08a3.7,3.7,0,0,1,2.29-1.36A2.37,2.37,0,0,1,128.68,130Zm-9.47,55.79q5.07-.3,10.38-1.06,5-.73,11.69-2.13l.2-.61-15-27.08-7.6,30.36C118.9,185.61,119,185.79,119.21,185.76Z"/><path class="cls-1" d="M233.35,146.7a15.64,15.64,0,0,1,9.72,1.44,16.92,16.92,0,0,1,6.78,6.41,34.15,34.15,0,0,1,9.42-8.68,32.49,32.49,0,0,1,13.05-4.82,16.43,16.43,0,0,1,9.14,1,16,16,0,0,1,6.66,5.55,34.07,34.07,0,0,1,4.29,8.45,55.46,55.46,0,0,1,2.44,10.25l2.18,15q1.27,8.74,2.87,12.75.43,1,4.17,1.52a21.27,21.27,0,0,0,5,.37c.29,0,.55.63.8,2a8.2,8.2,0,0,1,.19,2.82q-1,0-7.61.52t-9.87,1q-3.44.5-9.75,1.85t-7.58,1.68a5.43,5.43,0,0,1-.82-2.66q-.31-2.15.12-2.21a19.43,19.43,0,0,0,5-1.82q3.28-1.57,3.42-2.62a45,45,0,0,0-.45-10.17l-2.12-14.61q-3-20.77-16.33-18.84a13.18,13.18,0,0,0-7.55,3.43q-2.82,2.75-3.08,5c0,.29.07.67.09,1.16a2.86,2.86,0,0,0,.24,1.14,71.21,71.21,0,0,1,1.72,8.82l2.2,15.19a56.72,56.72,0,0,0,2.79,12.18q.43,1,4.17,1.52a21.29,21.29,0,0,0,5,.37c.29,0,.55.63.8,2a8.2,8.2,0,0,1,.19,2.82q-1,0-7.61.52t-9.87,1q-3.44.5-9.75,1.85t-7.58,1.68a5.42,5.42,0,0,1-.82-2.66q-.31-2.15.12-2.21a19.43,19.43,0,0,0,5-1.82q3.28-1.57,3.42-2.62a47.28,47.28,0,0,0-.51-10.6l-2-13.75q-1.62-11.18-5.64-15.71a11,11,0,0,0-10.47-3.6,13.86,13.86,0,0,0-7.53,3.58q-3.23,3-2.79,6l3.57,24.64q1.27,8.74,3,12.73.43,1,4,1.54a19.64,19.64,0,0,0,4.88.39q.57-.08.95,2a8.2,8.2,0,0,1,.19,2.82q-1.17,0-7.6.52t-9.73,1q-3.58.52-10,1.88t-7.51,1.67c-.44-.33-.76-1.21-1-2.64s-.12-2.18.26-2.23a21,21,0,0,0,5-1.82q3.42-1.59,3.57-2.64a47.27,47.27,0,0,0-.51-10.6L200.44,174q-1-6.73-3.62-8.84a7,7,0,0,0-3.53-1.68,16.37,16.37,0,0,0-3.63-.35q-1.46.07-1.5-.22-.6-4.15.24-4.42,6.51-1.53,22.3-7.62a.94.94,0,0,1,.4-.28,3,3,0,0,1,.71-.17c.48-.07.91.21,1.29.84a2.68,2.68,0,0,1,.52,1.54,48.94,48.94,0,0,0,.17,5.24c.05.38.18.61.39.67a2.12,2.12,0,0,0,.65-.53,32.11,32.11,0,0,1,7.94-7.29A25.35,25.35,0,0,1,233.35,146.7Z"/><path class="cls-1" d="M351.41,98.3q2.58-.37,19.65-3.72a6.69,6.69,0,0,1,.59,2.55c.14,1.35.08,2-.21,2.08a16,16,0,0,0-5,1.75q-2.72,1.42-2.43,3.42a9.06,9.06,0,0,0,1.83,3.54L385,133.51q.82.62,1.39-.49,4.83-10.06,9.15-20.63t3.95-13.15q-.23-1.58-3.05-2.41a17,17,0,0,0-7.12-.21c-.38.06-.67-.58-.86-1.92a5,5,0,0,1,.06-2.64q14.59-1.24,17.32-1.63,3.29-.48,5.92-1t5.39-1.15l4.32-1a9.63,9.63,0,0,1,.62,2.25q.33,2.29-.24,2.38a20.16,20.16,0,0,0-5.76,2.15,11.8,11.8,0,0,0-5,4.24q-3.26,6.76-11.48,25.73t-8,20.83l3.24,22.35a55.43,55.43,0,0,0,3,12.73q.43,1,4.26,1.65a20.38,20.38,0,0,0,5,.52q.57-.08.9,2.21a7.61,7.61,0,0,1,0,2.33l-5.51.36q-3.62.23-6.65.52t-5.89.71q-3.87.56-10.47,2t-8.16,1.77a3.35,3.35,0,0,1-.9-2.21q-.33-2.29.1-2.35a19.76,19.76,0,0,0,5.13-1.91q3.41-1.66,3.68-2.87.54-4.32-.68-12.77l-3.07-21.2a9,9,0,0,0-1.34-2.66q-1.23-1.94-4.14-5.84t-5.07-6.73l-7-9.15-7.21-9.34q-5.28-7.13-8.88-8.81a14.54,14.54,0,0,0-4.49-1.18,17.35,17.35,0,0,0-4.2-.2c-.29,0-.52-.41-.71-1.36a4.4,4.4,0,0,1-.07-2Q335.93,100.54,351.41,98.3Z"/><path class="cls-1" d="M463.87,113.32a31.92,31.92,0,0,1,24.35,6.05A31,31,0,0,1,501,140.7a32.79,32.79,0,0,1-64.9,9.4A31.18,31.18,0,0,1,442.22,126,31.72,31.72,0,0,1,463.87,113.32Zm-.89,7q-6.74,1-9.52,8A31.16,31.16,0,0,0,452,144.44q1.68,11.6,7.58,19.53t14.21,6.72q6.73-1,9.58-8.12a30.8,30.8,0,0,0,1.55-16A49.7,49.7,0,0,0,481.05,133a25.54,25.54,0,0,0-7.56-9.8A13.43,13.43,0,0,0,463,120.32Z"/><path class="cls-1" d="M569,113.89l4.11,28.37q1,6.88,2.6,9.86a3,3,0,0,0,1.81.91,11.27,11.27,0,0,0,2.59.21,21.56,21.56,0,0,0,2.38-.2,2.68,2.68,0,0,1,1.24,0q.59.06.76,1.21a11.15,11.15,0,0,1,0,2c-.06.94-.28,1.43-.66,1.49a33.31,33.31,0,0,0-5,1.24q-3,.95-5.8,1.86t-5.29,1.86q-2.5.94-5.56,2c-.67.1-1.11-.62-1.33-2.15l-.91-6.3c-.17-.46-.34-.68-.54-.65a32.26,32.26,0,0,1-7.8,7.71,24.24,24.24,0,0,1-10.9,4.5,15.17,15.17,0,0,1-8.88-1.2,17.49,17.49,0,0,1-6.64-5.47,31.12,31.12,0,0,1-4.21-7.87,44.24,44.24,0,0,1-2.24-8.89l-2.32-16q-1-6.73-3.62-8.84a8,8,0,0,0-3.61-1.67,15.25,15.25,0,0,0-3.56-.36q-1.46.07-1.5-.22-.6-4.15.09-4.4a109.25,109.25,0,0,0,11.5-3.42,113.86,113.86,0,0,0,10.94-4.22,2.35,2.35,0,0,0,.55-.23,2.45,2.45,0,0,1,.55-.23c.48-.07.88.21,1.22.85a5.16,5.16,0,0,1,.59,1.52q.12,9.93.54,12.79L532.54,137q1.62,11.18,5.48,15.59t10.88,3.4a11.36,11.36,0,0,0,7.33-3.91q2.75-3.25,2.37-5.83l-3.42-23.64q-1-6.73-3.62-8.84A7,7,0,0,0,548,112.1a16.35,16.35,0,0,0-3.63-.35q-1.45.07-1.49-.22-.6-4.15.24-4.42a111.36,111.36,0,0,0,11.36-3.4,113.74,113.74,0,0,0,10.95-4.22,8.41,8.41,0,0,0,1.1-.45c.48-.07.91.21,1.29.84a2.68,2.68,0,0,1,.52,1.53Q568.6,111.32,569,113.89Z"/><path class="cls-1" d="M625.62,89.89q7.88-1.14,12.43,3,1.76,12.18-5.11,13.17-2.58.37-6-2.06a9.07,9.07,0,0,0-6.58-2q-4.44.64-6.29,5.52a19.26,19.26,0,0,0-1.15,9.75l2.59,17.91A60.59,60.59,0,0,0,618.38,148q.43,1,4.1,1.53a20.43,20.43,0,0,0,5,.38c.29,0,.55.63.8,2a15.15,15.15,0,0,1,.33,2.8q-1.17,0-7.68.53t-9.8,1q-3.44.5-9.89,1.87t-7.58,1.68q-.66-.49-1-2.64t.26-2.23a20.19,20.19,0,0,0,5.07-1.83q3.35-1.58,3.5-2.63a47.16,47.16,0,0,0-.51-10.6l-3.38-23.35q-1-6.73-3.62-8.84a7,7,0,0,0-3.54-1.68,16.55,16.55,0,0,0-3.56-.36q-1.38.06-1.42-.23-.6-4.15.09-4.4Q592,99.44,608,93.33a8.74,8.74,0,0,1,1.11-.45c.38-.06.76.23,1.15.86a3.46,3.46,0,0,1,.6,1.6q0,.66.08,2c0,.92.05,1.89.06,2.92a18,18,0,0,0,.07,2,26.5,26.5,0,0,1,6-8A15.86,15.86,0,0,1,625.62,89.89Z"/><path class="cls-1" d="M764.54,107.81q.27,1.86-.54,11.42t-1.87,10.29q-11.59,7.82-32.37,10.83-18.91,2.74-34.25-9.23a46.66,46.66,0,0,1-18.12-31.17,49.78,49.78,0,0,1,8.56-36.86,44.57,44.57,0,0,1,31.42-19.4,159.3,159.3,0,0,1,34.37-1q.45.08,2.22,9.26t2.1,11.47q.31,2.15-3.13,2.65a4.66,4.66,0,0,1-2.09-.28,20.18,20.18,0,0,0-2.84-5,37.18,37.18,0,0,0-5.4-5.51,22,22,0,0,0-9.7-4.37A38.79,38.79,0,0,0,719,50.63q-14,2-20.17,14.77T695,94.33q2.61,18.05,13.24,29.31t26.67,8.94q12.75-1.85,19-10.95a19.81,19.81,0,0,0,2.59-5.86q1-3.58,1.47-6t.74-2.45Q763.78,106.6,764.54,107.81Z"/><path class="cls-1" d="M813.58,62.67Q831.92,60,836,88.24L838.15,103q1.27,8.74,3,12.73.29,1,4.1,1.53a22.21,22.21,0,0,0,5.1.36q.43-.06.8,2a15.21,15.21,0,0,1,.33,2.8q-1,0-7.75.54t-9.88,1q-3.58.52-9.61,1.83t-7.44,1.66a5.43,5.43,0,0,1-.82-2.66q-.31-2.15.12-2.21a17.29,17.29,0,0,0,4.79-1.79q3.07-1.54,3.35-2.61a54.92,54.92,0,0,0-.65-10.58l-2-14q-1.72-11.89-5.6-15.94t-10.9-3a13.86,13.86,0,0,0-7.53,3.58q-3.23,3-2.79,6l3.57,24.64q1.27,8.74,3,12.73.43,1,4.1,1.53a20.45,20.45,0,0,0,5,.38c.29,0,.55.63.8,2a8.2,8.2,0,0,1,.19,2.82q-1.17,0-7.61.52t-9.73,1q-3.44.5-9.89,1.87t-7.58,1.68q-.66-.49-1-2.64t.26-2.23a20.18,20.18,0,0,0,5.07-1.83q3.35-1.58,3.49-2.63a46.61,46.61,0,0,0-.49-10.46l-8.63-59.6a57,57,0,0,0-2.13-9.64q-1-2.19-7.78-1.21l-1.29.19q-.86.12-1.19-2.17t.53-2.42q4.38-1.07,8.29-2.37t6.46-2.4q2.55-1.1,4.38-2.1t3.88-2l.29,0a1.56,1.56,0,0,1,1.26.62,4,4,0,0,1,.93,1.4,46.66,46.66,0,0,0,.23,13.72l4.19,28.94q.13.86.7.78c.09,0,.27-.18.51-.51a27.57,27.57,0,0,1,7.91-7.51A26.68,26.68,0,0,1,813.58,62.67Z"/><path class="cls-1" d="M881.27,96.75q1.27,8.74,3,12.73.43,1,4.17,1.52a21.29,21.29,0,0,0,5,.37q.57-.08.95,2a8.25,8.25,0,0,1,.19,2.82q-1,0-7.75.54t-9.87,1q-3.59.52-10,1.89t-7.44,1.66c-.44-.33-.76-1.21-1-2.64s-.12-2.18.26-2.23a21,21,0,0,0,5-1.82q3.42-1.59,3.57-2.64a47.4,47.4,0,0,0-.51-10.6L863.48,78q-1-6.73-3.62-8.84a8,8,0,0,0-3.61-1.67,15.25,15.25,0,0,0-3.56-.36q-1.45.07-1.49-.22-.6-4.15.23-4.42a111.07,111.07,0,0,0,11.36-3.4,113.82,113.82,0,0,0,10.95-4.22,8.61,8.61,0,0,0,1.1-.45c.48-.07.91.21,1.29.84a2.68,2.68,0,0,1,.52,1.53,124.49,124.49,0,0,0,.64,12.49ZM857.69,39A8.83,8.83,0,0,1,854.19,33a8.57,8.57,0,0,1,1.68-6.61,9,9,0,0,1,16.09,4,8.83,8.83,0,0,1-1.67,6.68A8.91,8.91,0,0,1,857.69,39Z"/><path class="cls-1" d="M923.63,90.32q1.29,8.88,2.87,12.75.43,1,3.83,1.71a15.82,15.82,0,0,0,4.54.58c.29,0,.55.6.79,1.93a8,8,0,0,1,.18,2.75l-5.42.42q-3.4.27-6.14.52t-5.18.6q-2.72.39-5.42.93t-6,1.23l-5.39,1.15a4.07,4.07,0,0,1-1-2.57q-.3-2.08.27-2.16a15.47,15.47,0,0,0,4.62-1.91q3-1.68,3.19-2.73a47.91,47.91,0,0,0-.39-10.77l-8.63-59.6a50.45,50.45,0,0,0-2.27-9.62q-1-2.19-7.49-1.26l-1.43.21c-.57.08-.94-.45-1.11-1.59q-.33-2.29.53-2.42,4.38-1.07,8.29-2.37t6.46-2.4q2.55-1.1,4.39-2t2.92-1.52l.94-.57.29,0a1.73,1.73,0,0,1,1.34.68,4.43,4.43,0,0,1,1,1.32,45.77,45.77,0,0,0,.23,13.72Z"/><path class="cls-1" d="M967,40.16a24.9,24.9,0,0,1,10.75.49q.71-.1.38-2.4l-1.95-13.47a50.44,50.44,0,0,0-2.27-9.62q-1-2.19-7.78-1.21l-1.15.17q-.86.12-1.19-2.17t.53-2.42q4.24-1.05,8.21-2.36T979,4.77q2.55-1.1,4.38-2.1l2.78-1.5a7.45,7.45,0,0,1,1.09-.52l.29,0a1.56,1.56,0,0,1,1.26.62,2.62,2.62,0,0,1,.79,1.42,55.39,55.39,0,0,0,.52,13.67l9.13,63a53,53,0,0,0,2.4,10.48,2.13,2.13,0,0,0,1.66,1.37,8.85,8.85,0,0,0,2.83.32c1,0,1.89-.1,2.75-.18l1.45-.14a3.05,3.05,0,0,1,.54,1.68q.42,2.87-.45,3-2,.44-5,1.31T999.56,99q-2.87.93-5.44,1.81t-5.77,2.08q-.86.12-1.21-2.31l-.35-2.44a.65.65,0,0,0-.3-.54c-.16-.07-.28-.06-.36.05A24.15,24.15,0,0,1,972,105.11a28,28,0,0,1-21.43-5.6q-9.83-7.28-11.7-20.17a34,34,0,0,1,6.3-25.71Q953.51,42.11,967,40.16Zm-.29,7.06a12.67,12.67,0,0,0-10.53,8.11q-2.94,7-1.36,17.9,1.76,12.18,7.19,18.34a14.22,14.22,0,0,0,13.45,5A12,12,0,0,0,983,92.92,8,8,0,0,0,985,86.11L980.69,56a10.06,10.06,0,0,0-.94-2.94A13.47,13.47,0,0,0,977.54,50a9.24,9.24,0,0,0-4.3-2.45A15.38,15.38,0,0,0,966.69,47.23Z"/><path class="cls-1" d="M1028.1,98.6q-.33-2.29-3-5.63A13,13,0,0,1,1022,87q-.44-3,2.14-6.45a10.77,10.77,0,0,1,7.44-4.15,9.37,9.37,0,0,1,4.71.2,22.58,22.58,0,0,1,3.46,9.74,25.92,25.92,0,0,1-.15,7,41.57,41.57,0,0,1-4.24,14.14q-3.11,5.79-10.49,13.44l-.14,0c-.48.07-1.22-.34-2.22-1.21a4.36,4.36,0,0,1-1.65-2.32,21.07,21.07,0,0,1,2.1-2.65,26.47,26.47,0,0,0,4-6.94A17.34,17.34,0,0,0,1028.1,98.6Z"/><path class="cls-1" d="M29.8,394.46,19,340.82q-1.72-8.51-3.34-11.44-.74-1.47-4.49-1.75a22.79,22.79,0,0,0-5.88.15q-.57.11-1-2a3.93,3.93,0,0,1,.05-2.67q9.45-1.46,19-3.38,7.24-1.46,12.19-2.53t8.5-1.79a42.89,42.89,0,0,1,21.2,1.11,21.33,21.33,0,0,1,9.41,6,22,22,0,0,1,5.37,10.88,17,17,0,0,1-1.06,10.11,23.38,23.38,0,0,1-4.36,7.3,23.92,23.92,0,0,1-4,3.39q-1.05.65-.4,1,5.42-.21,13.21,5.09a22.79,22.79,0,0,1,9.74,14.94,23.36,23.36,0,0,1-5.94,21.43q-8.4,9.23-24.75,12.38l-20.18,3.93-18.76,4.38q-.51-.34-.88-2.18-.49-2.41-.06-2.5a23.91,23.91,0,0,0,5.21-2q3.36-1.64,3.67-3Q31.81,404.39,29.8,394.46Zm25.76-39.91q9.9-4.36,7.55-16-3.87-19.16-20.19-15.86Q36.26,324,34,325.23a1.45,1.45,0,0,0-.82,1.79l2.47,13.68L39,357.31q.29,1.42,8.8-.3A28.62,28.62,0,0,0,55.57,354.55Zm20.54,25.69q-1.83-9.08-8.06-14t-17.44-2.61A60.05,60.05,0,0,0,42,366.16q-1,.94-.56,3.07l5.33,26.39q1.2,6,3.19,7t9.37-.41a29.6,29.6,0,0,0,6-1.87,30.89,30.89,0,0,0,6-3.57,13,13,0,0,0,4.56-6.68A19.32,19.32,0,0,0,76.11,380.24Z"/><path class="cls-1" d="M158.57,340.26l5.67,28.1q1.38,6.81,3.14,9.7a3,3,0,0,0,1.86.81,11.27,11.27,0,0,0,2.6.07,21.64,21.64,0,0,0,2.37-.33,2.68,2.68,0,0,1,1.23-.1c.4,0,.67.41.83,1.16a11,11,0,0,1,.1,2c0,.94-.2,1.44-.58,1.52a33.25,33.25,0,0,0-4.94,1.51q-3,1.12-5.69,2.18T160,389q-2.44,1.08-5.45,2.28-1,.2-1.45-2.07L151.83,383q-.29-.68-.57-.62a32.28,32.28,0,0,1-7.37,8.13,24.24,24.24,0,0,1-10.64,5.1,15.16,15.16,0,0,1-8.93-.71,17.46,17.46,0,0,1-6.94-5.1,31.06,31.06,0,0,1-4.64-7.63,44.19,44.19,0,0,1-2.73-8.75l-3.21-15.89q-1.35-6.67-4.1-8.62A8,8,0,0,0,99,347.4a15.27,15.27,0,0,0-3.58-.16c-1,.1-1.47.05-1.51-.14q-.83-4.11-.15-4.4a109.23,109.23,0,0,0,11.29-4.05,113.86,113.86,0,0,0,10.69-4.82,2.36,2.36,0,0,0,.54-.26,2.42,2.42,0,0,1,.54-.26c.47-.1.89.17,1.26.78a5.19,5.19,0,0,1,.67,1.49q.67,9.91,1.24,12.75l3.44,17q2.23,11.07,6.33,15.26t11,2.79a11.36,11.36,0,0,0,7.1-4.31q2.56-3.4,2-6l-4.73-23.41q-1.35-6.67-4.11-8.62a7,7,0,0,0-3.62-1.48,16.35,16.35,0,0,0-3.65-.15c-1,.1-1.46.05-1.5-.14q-.83-4.11,0-4.43a111.26,111.26,0,0,0,11.15-4,113.78,113.78,0,0,0,10.7-4.82,8.57,8.57,0,0,0,1.08-.51c.47-.1.92.16,1.34.76a2.67,2.67,0,0,1,.6,1.5Q158.05,337.71,158.57,340.26Z"/><path class="cls-1" d="M182.46,329.82l-8.66,1.75q-1,.2-1.74-3.49a3.64,3.64,0,0,1-.12-1.31,40.48,40.48,0,0,0,9.41-9.73q1.47-2.21,3.2-5t4-7.08a10.29,10.29,0,0,1,2.77-.19q1.35.1,1.43.52l2.81,13.91q3.69-.74,10.3-2l7-1.35q1.14-.23,1.39,1a14.05,14.05,0,0,1-.16,6.53l-17,3.44,6.9,34.2q1.15,5.68,4.16,8.17a8.28,8.28,0,0,0,7.27,1.63,13.75,13.75,0,0,0,2.91-1,15.45,15.45,0,0,0,2.4-1.3c.6-.42,1.16-.83,1.67-1.22a4.64,4.64,0,0,1,.91-.63q.54-.25,1.54,1t.94,1.73q-.45,2.16-5.1,5.83A22.81,22.81,0,0,1,211,380a18.25,18.25,0,0,1-13.52-2.22q-6.14-3.71-8.14-13.64Z"/><path class="cls-1" d="M260.18,292q-1.72-8.51-3.54-11.69-.8-1-4.42-1.4a19.43,19.43,0,0,0-5.32,0c-.38.08-.71-.6-1-2a5.83,5.83,0,0,1-.23-2.61q.71-.14,8-1.16t11.08-1.79q1.13-.23,18-4.52a7.48,7.48,0,0,1,.88,2.19q.49,2.41-.08,2.53a23.61,23.61,0,0,0-4.88,2.17q-3.6,1.91-3.69,3a53.79,53.79,0,0,0,1.38,12.72l10.77,53.35A53.76,53.76,0,0,0,291,355.18q.48.94,4.32,1.27a22.22,22.22,0,0,0,5.11.08q.57-.11,1.11,2.58a6.41,6.41,0,0,1,.12,2q-17.2,2.59-18.19,2.79-2.84.57-5.93,1.34T270.67,367l-6,1.57a2.82,2.82,0,0,1-1-1.87q-.54-2.69,0-2.81a23.11,23.11,0,0,0,5.12-2.07q3.42-1.72,3.61-2.95a50.74,50.74,0,0,0-1.27-12.15Z"/><path class="cls-1" d="M372.44,248.94l44.81,68.34q3.27,5.25,6.35,9.5,1.28,2,5.23,2.49a19.27,19.27,0,0,0,5.65.19q.57-.11,1.08,2.44a4.86,4.86,0,0,1,.15,2.19q-17.2,2.59-18.05,2.76t-18.27,4.57a4.08,4.08,0,0,1-1.1-2.51c-.28-1.37-.23-2.1.15-2.17a18.61,18.61,0,0,0,4.51-1.8q2.81-1.45,3.15-2.7a4.14,4.14,0,0,0,.05-1.93q-.57-2.84-4.67-9.25l-7.63-12.19a1.6,1.6,0,0,0-1.11-.37q-4.6.63-12.26,2.18t-16.09,3.69c-.57.11-.81.36-.74.74l-2.73,14.29q-1.21,7.92-.83,9.77a3.23,3.23,0,0,0,2.13,2.52,14.49,14.49,0,0,0,4.78.66,25,25,0,0,0,4.47-.16q.45.06.83,1.9a9.48,9.48,0,0,1,.26,2.75q-.71.14-6.75.92t-9.74,1.52q-3.69.75-8.66,2.12l-7.07,1.94a3.08,3.08,0,0,1-1-2q-.52-2.55-.23-2.61a21,21,0,0,0,5.22-2.31q3.52-2,4.2-3.73a68.88,68.88,0,0,0,3.16-12.16l13.5-69.18q1.54-9.17,3.19-11.28a3.69,3.69,0,0,1,2.21-1.48A2.37,2.37,0,0,1,372.44,248.94Zm-6.37,56.22q5-.58,10.3-1.64,5-1,11.55-2.77l.17-.62-16.51-26.2-5.91,30.73C365.75,305,365.88,305.2,366.07,305.17Z"/><path class="cls-1" d="M477.87,259.85a15.64,15.64,0,0,1,9.78.91,16.92,16.92,0,0,1,7.12,6,34.13,34.13,0,0,1,8.93-9.19,32.5,32.5,0,0,1,12.77-5.53,16.42,16.42,0,0,1,9.18.51,16,16,0,0,1,7,5.17,34.11,34.11,0,0,1,4.76,8.2,55.24,55.24,0,0,1,3,10.1l3,14.9a60.57,60.57,0,0,0,3.57,12.57q.48.94,4.25,1.28a21.34,21.34,0,0,0,5,.09q.43-.09.91,2a8.23,8.23,0,0,1,.35,2.81q-1,.06-7.57.94t-9.81,1.54q-3.41.69-9.63,2.39t-7.48,2.1a5.42,5.42,0,0,1-1-2.61q-.43-2.13,0-2.21a19.42,19.42,0,0,0,4.89-2.1q3.19-1.75,3.27-2.8a45,45,0,0,0-1-10.13l-2.92-14.47q-4.15-20.57-17.35-17.91a13.19,13.19,0,0,0-7.35,3.85q-2.66,2.9-2.8,5.14c.06.28.11.67.16,1.15a2.82,2.82,0,0,0,.3,1.12,71,71,0,0,1,2.2,8.71l3,15a56.89,56.89,0,0,0,3.46,12q.48.94,4.25,1.28a21.34,21.34,0,0,0,5,.09q.43-.09.91,2a8.23,8.23,0,0,1,.35,2.81q-1,.06-7.57.94T501.09,320q-3.41.69-9.63,2.39t-7.48,2.1a5.42,5.42,0,0,1-1-2.61q-.43-2.13,0-2.21a19.44,19.44,0,0,0,4.89-2.1q3.19-1.75,3.27-2.8a47.25,47.25,0,0,0-1.1-10.56l-2.75-13.62q-2.23-11.07-6.5-15.38a11,11,0,0,0-10.65-3,13.86,13.86,0,0,0-7.32,4q-3.06,3.13-2.46,6.11l4.93,24.41q1.75,8.66,3.71,12.54.48.94,4.1,1.31a19.69,19.69,0,0,0,4.9.12q.57-.11,1.05,1.93a8.23,8.23,0,0,1,.35,2.81q-1.17.09-7.56.94t-9.66,1.51q-3.55.72-9.85,2.43T445,332.37c-.46-.3-.83-1.16-1.11-2.58s-.24-2.17.14-2.24a21,21,0,0,0,4.89-2.1q3.33-1.78,3.42-2.83a47.25,47.25,0,0,0-1.1-10.56l-4.67-23.13q-1.35-6.67-4.1-8.62a7,7,0,0,0-3.62-1.48,16.39,16.39,0,0,0-3.65-.15c-1,.1-1.47.05-1.51-.14q-.83-4.11,0-4.43,6.41-1.88,21.84-8.84a.92.92,0,0,1,.38-.3,3.08,3.08,0,0,1,.69-.21c.47-.1.92.16,1.33.76a2.67,2.67,0,0,1,.6,1.5,49.13,49.13,0,0,0,.46,5.22c.08.38.22.6.43.65s.3-.21.62-.57a32.11,32.11,0,0,1,7.52-7.72A25.36,25.36,0,0,1,477.87,259.85Z"/><path class="cls-1" d="M685.95,280.28q1.36-7.55.63-11.65-.41-1.84-4.29-3.57a29,29,0,0,0-6.16-2.14q-.57-.1-.27-2.18a4.88,4.88,0,0,1,.83-2.57q15.06,3.74,17.77,4.23,3.7.67,9.64,1.22t7.36.81a6.05,6.05,0,0,1-.12,2.33c-.29,1.62-.63,2.39-1,2.32a27.78,27.78,0,0,0-6.32,0q-4.33.33-5.94,1.95-2.26,3.56-3.69,11.54l-9.71,54q-.92,5.13-3,20-.67.47-3.24,0-2.28-.41-4-4.1l-43.17-85.43-10.38,57.7q-1.54,8.55-1,11.89.4,1.84,4.75,3.87a30,30,0,0,0,6.19,2.36c.29.05.33.75.14,2.08a7.9,7.9,0,0,1-.7,2.67q-16.94-3.93-17.66-4.06-3.84-.69-9.54-1.35t-7.57-.85a3.64,3.64,0,0,1-.13-2.53c.27-1.52.6-2.25,1-2.18a27.44,27.44,0,0,0,6.68.1q4.25-.34,5.78-2.27,2-2.74,3.58-11.71l10-55.85q1.38-7.69.3-10.68-.39-1.1-4.58-2.74a37.64,37.64,0,0,0-6.19-2q-.57-.1-.26-2.25t1-2.62q14.83,3.41,16.83,3.76,4.7.85,13,1.59a150.23,150.23,0,0,0,7.17,17q5.39,11.34,15,30.05t13,25.8A41.48,41.48,0,0,0,679,319Z"/><path class="cls-1" d="M745.85,303A31.92,31.92,0,0,1,767,316.42a31,31,0,0,1,5.41,24.29,32.79,32.79,0,0,1-64.54-11.61,31.18,31.18,0,0,1,13.41-21A31.72,31.72,0,0,1,745.85,303Zm-3.06,6.36q-6.7-1.21-11.57,4.61a31.14,31.14,0,0,0-6.49,14.79q-2.08,11.54,1,20.92t11.36,10.87q6.69,1.2,11.65-4.67a30.79,30.79,0,0,0,6.54-14.71,49.73,49.73,0,0,0,.62-14.08,25.54,25.54,0,0,0-4.08-11.69A13.42,13.42,0,0,0,742.79,309.33Z"/><path class="cls-1" d="M792.35,321.63l-8.69-1.56q-1-.18-.33-3.88a3.61,3.61,0,0,1,.37-1.26A40.5,40.5,0,0,0,796,309.35q2.18-1.52,4.82-3.47t6.29-5.12a10.33,10.33,0,0,1,2.64.84c.81.39,1.19.73,1.14,1l-2.51,14q3.7.67,10.32,1.93l7,1.34q1.14.21.91,1.49a14.06,14.06,0,0,1-2.55,6L807,324.27l-6.18,34.34q-1,5.7.86,9.13a8.28,8.28,0,0,0,6.16,4.2,13.69,13.69,0,0,0,3.06.18,15.45,15.45,0,0,0,2.71-.32c.71-.17,1.38-.34,2-.52a4.57,4.57,0,0,1,1.07-.25q.59,0,1.05,1.51a3.4,3.4,0,0,1,.24,2q-1.21,1.84-6.89,3.54a22.81,22.81,0,0,1-10.66.8,18.26,18.26,0,0,1-11.75-7q-4.34-5.71-2.55-15.68Z"/><path class="cls-1" d="M889.39,297.32q2.56.46,19.82,2.68a6.73,6.73,0,0,1-.25,2.6c-.29,1.32-.57,2-.86,1.9a16,16,0,0,0-5.31.07q-3,.49-3.39,2.48A9.08,9.08,0,0,0,900,311l10.13,30.36q.58.84,1.48,0,7.76-8,15.21-16.68t7.9-11.23q.28-1.57-2.14-3.25a17,17,0,0,0-6.69-2.45q-.57-.1-.21-2.1a5,5,0,0,1,.89-2.49q14.24,3.44,16.94,3.93,3.28.59,5.94.92t5.48.62l4.41.43a9.64,9.64,0,0,1-.12,2.33q-.41,2.28-1,2.18a20.17,20.17,0,0,0-6.14.22,11.79,11.79,0,0,0-6.1,2.43q-5.23,5.38-19,20.77t-14.13,17.24l-4,22.23a55.33,55.33,0,0,0-1.17,13q.1,1,3.52,2.91a20.35,20.35,0,0,0,4.56,2.07q.57.1.16,2.38a7.59,7.59,0,0,1-.7,2.23l-5.34-1.4q-3.51-.92-6.48-1.61t-5.82-1.19q-3.85-.69-10.55-1.46t-8.29-.9a3.35,3.35,0,0,1-.16-2.38q.41-2.28.84-2.2a19.76,19.76,0,0,0,5.48-.19q3.76-.5,4.4-1.56,1.88-3.93,3.39-12.33l3.79-21.09a9.09,9.09,0,0,0-.43-2.94q-.56-2.23-2.08-6.85t-2.68-8q-1.16-3.37-3.77-10.9l-3.88-11.14q-2.75-8.44-5.64-11.16a14.54,14.54,0,0,0-3.88-2.54,17.35,17.35,0,0,0-3.92-1.51c-.28-.05-.37-.55-.24-1.51a4.41,4.41,0,0,1,.57-2Q874,294.55,889.39,297.32Z"/><path class="cls-1" d="M991.33,347.13a31.92,31.92,0,0,1,21.19,13.45,31,31,0,0,1,5.41,24.29,32.79,32.79,0,0,1-64.54-11.61,31.18,31.18,0,0,1,13.41-21A31.72,31.72,0,0,1,991.33,347.13Zm-3.06,6.36q-6.7-1.21-11.57,4.61a31.15,31.15,0,0,0-6.49,14.79q-2.08,11.54,1,20.92t11.36,10.87q6.7,1.2,11.65-4.67a30.78,30.78,0,0,0,6.54-14.71,49.73,49.73,0,0,0,.62-14.08,25.54,25.54,0,0,0-4.07-11.69A13.43,13.43,0,0,0,988.28,353.5Z"/><path class="cls-1" d="M1090.86,380.93l-5.08,28.21q-1.23,6.84-.66,10.18a3,3,0,0,0,1.43,1.44,11.26,11.26,0,0,0,2.39,1,21.4,21.4,0,0,0,2.33.57,2.69,2.69,0,0,1,1.19.36c.36.16.48.63.34,1.38a11.15,11.15,0,0,1-.63,1.87q-.53,1.3-1.1,1.2a33.22,33.22,0,0,0-5.15-.41q-3.16-.05-6.09-.07t-5.61.09q-2.67.11-5.9.11-1-.18-.59-2.46l1.13-6.27c0-.49-.11-.76-.3-.79a32.26,32.26,0,0,1-9.84,4.85A24.24,24.24,0,0,1,1047,423a15.17,15.17,0,0,1-8-3.95,17.47,17.47,0,0,1-4.57-7.29,31.06,31.06,0,0,1-1.5-8.8,44.19,44.19,0,0,1,.69-9.14l2.87-16q1.2-6.7-.64-9.53a8,8,0,0,0-2.89-2.73,15.29,15.29,0,0,0-3.27-1.47c-.93-.26-1.38-.49-1.35-.68q.74-4.13,1.48-4.15a109.31,109.31,0,0,0,12,.39,113.41,113.41,0,0,0,11.72-.54,2.29,2.29,0,0,0,.6,0,2.47,2.47,0,0,1,.6,0c.47.08.77.48.89,1.19a5.18,5.18,0,0,1,.07,1.63q-3,9.46-3.54,12.31l-3.08,17.1q-2,11.11.26,16.52t9.24,6.66a11.37,11.37,0,0,0,8.19-1.39q3.63-2.21,4.09-4.78l4.23-23.51q1.2-6.7-.64-9.53a7,7,0,0,0-2.82-2.71,16.44,16.44,0,0,0-3.34-1.48q-1.4-.4-1.35-.68.74-4.13,1.62-4.12a111.08,111.08,0,0,0,11.85.37,113.44,113.44,0,0,0,11.72-.54,8.36,8.36,0,0,0,1.19-.08c.47.08.79.49,1,1.2a2.66,2.66,0,0,1,0,1.62Q1091.32,378.36,1090.86,380.93Z"/></svg>