<svg id="Layer_1" data-name="Layer 1" xmlns="http://www.w3.org/2000/svg" viewBox="0 0 493.83 347.63"><defs><style>.cls-1{fill:#1928eb;}</style></defs><title>pull-quote-2-narrow</title><path class="cls-1" d="M58.51,97.69A4.46,4.46,0,0,1,58.83,96a5,5,0,0,1,.83-1.42,9,9,0,0,1,1-1,6.9,6.9,0,0,1,.92-.68,1.53,1.53,0,0,1,.48-.22,1,1,0,0,1,.52.23,1.13,1.13,0,0,1,.42.49,5.37,5.37,0,0,0-1.44,1.25,4.29,4.29,0,0,0-.7,1.12,2.06,2.06,0,0,0-.14.65,2.09,2.09,0,0,0,.7,1.17,2.1,2.1,0,0,1,.7,1.2,1.23,1.23,0,0,1-.65,1,2.68,2.68,0,0,1-1.49.45,2.12,2.12,0,0,1-1-.22A4.21,4.21,0,0,1,58.51,97.69Zm4.85-.07a4.46,4.46,0,0,1,.32-1.71,5,5,0,0,1,.83-1.42,9,9,0,0,1,1-1,6.93,6.93,0,0,1,.92-.68,1.54,1.54,0,0,1,.48-.22,1,1,0,0,1,.52.23,1.13,1.13,0,0,1,.42.49,5.62,5.62,0,0,0-1.46,1.25,4.17,4.17,0,0,0-.71,1.12,2.06,2.06,0,0,0-.14.65,2.09,2.09,0,0,0,.7,1.17,2.1,2.1,0,0,1,.7,1.2,1.23,1.23,0,0,1-.65,1,2.63,2.63,0,0,1-1.46.45,2.19,2.19,0,0,1-1-.22A4.25,4.25,0,0,1,63.35,97.62Z"/><path class="cls-1" d="M71.84,103.58l-2,0q-.23,0-.24-.86a.81.81,0,0,1,0-.3,9.3,9.3,0,0,0,2.53-1.8q.42-.44.93-1t1.19-1.43a2.37,2.37,0,0,1,.63.07q.3.08.3.18l0,3.25,2.41,0h1.64q.27,0,.27.3a3.22,3.22,0,0,1-.31,1.47l-4,.06.11,8a3.15,3.15,0,0,0,.59,2,1.9,1.9,0,0,0,1.57.68,3.15,3.15,0,0,0,.7-.09,3.51,3.51,0,0,0,.6-.19l.43-.21.23-.1c.09,0,.19.08.3.29s.16.36.14.43a3,3,0,0,1-1.4,1.1,5.23,5.23,0,0,1-2.37.65,4.19,4.19,0,0,1-3-1.07A4.44,4.44,0,0,1,72,111.61Z"/><path class="cls-1" d="M92.7,101q4.25-.06,4.34,6.48l0,3.42a12.19,12.19,0,0,0,.31,3c0,.15.32.31.89.47a5.08,5.08,0,0,0,1.15.23c.07,0,.11.16.12.48a3.41,3.41,0,0,1,0,.65q-.23,0-1.78-.11t-2.28-.07q-.83,0-2.24.13l-1.74.16a1.24,1.24,0,0,1-.11-.63q0-.5.09-.5a4,4,0,0,0,1.14-.26q.74-.26.84-.49a12.58,12.58,0,0,0,.17-2.43l0-3.25a6.93,6.93,0,0,0-.8-3.79,2.72,2.72,0,0,0-2.39-1,3.18,3.18,0,0,0-1.82.59,1.57,1.57,0,0,0-.81,1.27l.08,5.71a12.19,12.19,0,0,0,.31,3q.07.23.89.47a4.69,4.69,0,0,0,1.12.23c.07,0,.11.16.12.48a1.87,1.87,0,0,1,0,.65l-1.74-.11q-1.48-.08-2.24-.07t-2.3.13l-1.78.16a1,1,0,0,1-.14-.63q0-.5.13-.5a4.64,4.64,0,0,0,1.21-.27c.54-.17.83-.34.87-.49a10.62,10.62,0,0,0,.2-2.39l-.19-13.81a13.05,13.05,0,0,0-.2-2.26c-.12-.35-.69-.52-1.73-.51H82q-.2,0-.21-.53c0-.35.06-.53.19-.53q1-.11,2-.29t1.54-.35q.61-.17,1.06-.35l.94-.34h.07a.36.36,0,0,1,.27.18.91.91,0,0,1,.17.35,10.7,10.7,0,0,0-.36,3.13l.09,6.71c0,.13,0,.2.14.2s.07,0,.13-.1a6.31,6.31,0,0,1,2-1.47A6.12,6.12,0,0,1,92.7,101Z"/><path class="cls-1" d="M107.42,110.72a12.19,12.19,0,0,0,.31,3q.07.23.9.47a4.87,4.87,0,0,0,1.13.23c.09,0,.14.16.16.48a1.87,1.87,0,0,1,0,.65q-.23,0-1.78-.11t-2.28-.07q-.83,0-2.34.13t-1.74.16a1,1,0,0,1-.14-.63q0-.5.13-.5a4.82,4.82,0,0,0,1.19-.27q.83-.26.89-.49a10.87,10.87,0,0,0,.2-2.43l-.08-5.41a3.15,3.15,0,0,0-.56-2.12,1.84,1.84,0,0,0-.77-.49,3.47,3.47,0,0,0-.8-.19c-.22,0-.33-.05-.33-.1q0-1,.19-1a25.6,25.6,0,0,0,2.68-.44A26.14,26.14,0,0,0,107,101l.26-.07c.11,0,.2.07.27.23a.61.61,0,0,1,.07.36,28.26,28.26,0,0,0-.23,2.86Zm-3.64-13.85a2,2,0,0,1-.62-1.45,2.06,2.06,0,0,1,4.12-.06,2,2,0,0,1-.58,1.47,2,2,0,0,1-2.92,0Z"/><path class="cls-1" d="M117.09,100.6a14.11,14.11,0,0,1,3.86.51,18.9,18.9,0,0,1,.42,3.71c0,.18-.14.27-.43.27q-.73,0-.8-.25a4,4,0,0,0-1-2,2.59,2.59,0,0,0-2-.79,2.38,2.38,0,0,0-1.5.45,1.47,1.47,0,0,0-.53,1.24,2,2,0,0,0,.19.84,2.07,2.07,0,0,0,.61.71,8.11,8.11,0,0,0,.74.52q.32.2,1,.52a2.13,2.13,0,0,0,.33.16l.5.26.55.29.54.31a6,6,0,0,1,.59.37l.52.39a2.63,2.63,0,0,1,.5.46l.41.51a2.13,2.13,0,0,1,.36.59,6.2,6.2,0,0,1,.19.63,3,3,0,0,1,.09.71,3.91,3.91,0,0,1-1.56,3.33,6.3,6.3,0,0,1-3.88,1.27,11.09,11.09,0,0,1-4.29-.87,13.27,13.27,0,0,1-.36-1.84,16.17,16.17,0,0,1-.19-1.91.71.71,0,0,1,.46-.17q.76,0,.8.25a3.66,3.66,0,0,0,1.34,2.22,3.54,3.54,0,0,0,2.29.82,2.42,2.42,0,0,0,1.52-.49,1.62,1.62,0,0,0,.58-1.37,2.21,2.21,0,0,0-.09-.61,1.65,1.65,0,0,0-.32-.56l-.39-.46a2.42,2.42,0,0,0-.6-.44l-.67-.37-.84-.42-.85-.44a7.72,7.72,0,0,1-2.38-1.74,3.83,3.83,0,0,1,.69-5.5A6.4,6.4,0,0,1,117.09,100.6Z"/><path class="cls-1" d="M137.49,110.31a12.19,12.19,0,0,0,.31,3q.07.23.9.47a4.9,4.9,0,0,0,1.13.23c.09,0,.14.16.16.48a1.86,1.86,0,0,1,0,.65q-.23,0-1.78-.11t-2.28-.07q-.83,0-2.34.13t-1.74.16a1,1,0,0,1-.14-.63q0-.5.13-.5a4.82,4.82,0,0,0,1.19-.27q.83-.26.89-.49a10.87,10.87,0,0,0,.2-2.43l-.08-5.41a3.15,3.15,0,0,0-.56-2.12,1.84,1.84,0,0,0-.77-.49,3.47,3.47,0,0,0-.8-.19c-.22,0-.33-.05-.33-.09q0-1,.19-1a25.54,25.54,0,0,0,2.68-.44,26.07,26.07,0,0,0,2.61-.63l.26-.07c.11,0,.2.08.27.23a.61.61,0,0,1,.07.36,28.26,28.26,0,0,0-.23,2.86Zm-3.64-13.85a2,2,0,0,1-.62-1.45,2,2,0,0,1,.58-1.45,2.08,2.08,0,0,1,2.92,0,2,2,0,0,1,.62,1.44,2,2,0,0,1-.58,1.47,2,2,0,0,1-2.92,0Z"/><path class="cls-1" d="M147.16,100.18a14.12,14.12,0,0,1,3.86.51,18.9,18.9,0,0,1,.42,3.71c0,.18-.14.27-.43.27q-.73,0-.8-.25a4,4,0,0,0-1-2,2.59,2.59,0,0,0-2-.79,2.38,2.38,0,0,0-1.5.45,1.48,1.48,0,0,0-.53,1.24,2,2,0,0,0,.19.84,2.06,2.06,0,0,0,.61.71,8.07,8.07,0,0,0,.74.52q.32.19,1,.52a2.14,2.14,0,0,0,.33.16l.5.26.55.29.54.31a6.25,6.25,0,0,1,.59.37l.52.39a2.63,2.63,0,0,1,.5.46l.41.51a2.13,2.13,0,0,1,.36.59,6.19,6.19,0,0,1,.19.63,3,3,0,0,1,.09.71,3.91,3.91,0,0,1-1.56,3.33,6.3,6.3,0,0,1-3.88,1.27,11.1,11.1,0,0,1-4.29-.87,13.27,13.27,0,0,1-.36-1.84,16.18,16.18,0,0,1-.19-1.91.71.71,0,0,1,.46-.17q.76,0,.8.25a3.66,3.66,0,0,0,1.34,2.22,3.54,3.54,0,0,0,2.29.82,2.42,2.42,0,0,0,1.52-.49,1.62,1.62,0,0,0,.58-1.37,2.22,2.22,0,0,0-.09-.61,1.65,1.65,0,0,0-.32-.56l-.39-.46a2.43,2.43,0,0,0-.6-.44l-.67-.37L146,109l-.85-.44a7.71,7.71,0,0,1-2.38-1.74,3.83,3.83,0,0,1,.69-5.5A6.4,6.4,0,0,1,147.16,100.18Z"/><path class="cls-1" d="M172.37,99.87q4.28-.06,4.38,6.75l0,3.15a13.89,13.89,0,0,0,.27,3c0,.15.35.31.92.47a5.09,5.09,0,0,0,1.15.23c.07,0,.11.16.12.48a1.86,1.86,0,0,1,0,.65q-.2,0-1.74-.11t-2.31-.07q-.8,0-2.21.13l-1.71.16a1,1,0,0,1-.14-.63q0-.5.13-.5a4,4,0,0,0,1.11-.26c.5-.17.76-.34.81-.49a9.55,9.55,0,0,0,.23-2.43l0-3.15a7.21,7.21,0,0,0-.8-3.84,2.67,2.67,0,0,0-2.39-1.06,3.07,3.07,0,0,0-1.85.61,1.6,1.6,0,0,0-.78,1.26l.08,5.71a13.89,13.89,0,0,0,.27,3q.07.23.89.47a4.78,4.78,0,0,0,1.08.23c.09,0,.14.16.16.48a1.86,1.86,0,0,1,0,.65l-1.74-.11q-1.48-.08-2.24-.07t-2.31.13l-1.78.16a1,1,0,0,1-.14-.63q0-.5.13-.5a4.63,4.63,0,0,0,1.21-.27c.54-.17.83-.34.87-.49a10.87,10.87,0,0,0,.2-2.43l-.08-5.41a3.15,3.15,0,0,0-.56-2.12,1.6,1.6,0,0,0-.75-.49,3.77,3.77,0,0,0-.8-.19c-.21,0-.32-.05-.32-.1,0-.64,0-1,.15-1a47,47,0,0,0,5.33-1.07l.08-.05.1,0h.08c.09,0,.17.08.24.23a1,1,0,0,1,.1.36,11.47,11.47,0,0,0-.12,1.2c0,.09,0,.14,0,.17a.49.49,0,0,0,.16-.1,7.36,7.36,0,0,1,2-1.42A5.81,5.81,0,0,1,172.37,99.87Z"/><path class="cls-1" d="M188.75,99.64a7.32,7.32,0,0,1,5.36,2.1,7.12,7.12,0,0,1,2.28,5.23,7.52,7.52,0,0,1-15,.21,7.15,7.15,0,0,1,2.1-5.31A7.27,7.27,0,0,1,188.75,99.64Zm-.41,1.57a2.67,2.67,0,0,0-2.4,1.54,7.14,7.14,0,0,0-.81,3.61,9.69,9.69,0,0,0,1.14,4.67,3.31,3.31,0,0,0,3,2,2.71,2.71,0,0,0,2.42-1.56,7.06,7.06,0,0,0,.83-3.6,11.43,11.43,0,0,0-.48-3.2,5.85,5.85,0,0,0-1.43-2.45A3.08,3.08,0,0,0,188.34,101.21Z"/><path class="cls-1" d="M200.38,101.8l-2,0q-.23,0-.24-.86a.81.81,0,0,1,0-.3,9.3,9.3,0,0,0,2.53-1.8q.42-.44.93-1t1.19-1.43a2.38,2.38,0,0,1,.63.07q.3.08.3.18l0,3.25,2.41,0h1.64q.27,0,.27.3a3.22,3.22,0,0,1-.31,1.47l-4,.05.11,8a3.15,3.15,0,0,0,.59,2,1.9,1.9,0,0,0,1.57.68,3.13,3.13,0,0,0,.7-.09,3.5,3.5,0,0,0,.59-.19l.43-.21.23-.1c.09,0,.19.08.3.29s.16.36.14.43a3,3,0,0,1-1.4,1.1,5.23,5.23,0,0,1-2.37.65,4.19,4.19,0,0,1-3-1.07,4.44,4.44,0,0,1-1.26-3.42Z"/><path class="cls-1" d="M227,90.71a6.54,6.54,0,0,1,2.31.32,2.32,2.32,0,0,1,1.22.83,3.72,3.72,0,0,1-.16,1.85,1.19,1.19,0,0,1-1.2.83,1.29,1.29,0,0,1-1-.53q-.46-.54-1-1.08a1.53,1.53,0,0,0-1.17-.53,1.77,1.77,0,0,0-1.48.88,5.58,5.58,0,0,0-.82,2.1,13.49,13.49,0,0,0-.21,2.69l0,1.53s0,.06.07.1a.19.19,0,0,0,.13.06l3.65-.05a.26.26,0,0,1,.17,0,.36.36,0,0,1,0,.2,3.42,3.42,0,0,1-.38,1.53l-3.45,0a.18.18,0,0,0-.2.2l.1,7.4a12.65,12.65,0,0,0,.31,3q.07.23.89.47a4.7,4.7,0,0,0,1.12.23c.07,0,.11.16.12.48a1.87,1.87,0,0,1,0,.65q-.2,0-1.73-.11t-2.33-.07q-.8,0-2.26.13L218,114a.63.63,0,0,1-.14-.36,2,2,0,0,1,0-.51c0-.17.06-.25.13-.25a4.45,4.45,0,0,0,1.16-.26c.53-.17.81-.34.86-.49a11,11,0,0,0,.26-2.73l-.11-7.64c0-.15-.07-.23-.2-.23l-2,0s-.07-.07-.07-.2a1.77,1.77,0,0,1,.45-1,1.34,1.34,0,0,1,1.05-.61H220a.18.18,0,0,0,.2-.2v-.33a9,9,0,0,1,2-6A6.21,6.21,0,0,1,227,90.71Z"/><path class="cls-1" d="M237.09,99a7.32,7.32,0,0,1,5.36,2.1,7.12,7.12,0,0,1,2.28,5.23,7.52,7.52,0,0,1-15,.21,7.15,7.15,0,0,1,2.1-5.31A7.27,7.27,0,0,1,237.09,99Zm-.41,1.57a2.67,2.67,0,0,0-2.4,1.54,7.14,7.14,0,0,0-.81,3.61,9.69,9.69,0,0,0,1.14,4.67,3.31,3.31,0,0,0,3,2,2.71,2.71,0,0,0,2.42-1.56,7.06,7.06,0,0,0,.83-3.6,11.43,11.43,0,0,0-.48-3.2A5.85,5.85,0,0,0,239,101.5,3.08,3.08,0,0,0,236.68,100.54Z"/><path class="cls-1" d="M256.48,98.7a3.31,3.31,0,0,1,2.74,1.06q0,2.82-1.55,2.84a2,2,0,0,1-1.3-.65,2.08,2.08,0,0,0-1.44-.64,1.78,1.78,0,0,0-1.6,1.07,4.42,4.42,0,0,0-.55,2.18l.06,4.15a13.89,13.89,0,0,0,.27,3q.07.23.89.47a4.7,4.7,0,0,0,1.12.23c.07,0,.11.16.12.48a3.41,3.41,0,0,1,0,.65l-1.76-.11q-1.5-.08-2.26-.07t-2.31.13l-1.77.16A1,1,0,0,1,247,113q0-.5.13-.5a4.63,4.63,0,0,0,1.21-.27c.54-.17.83-.34.87-.49a10.87,10.87,0,0,0,.2-2.43l-.08-5.41a3.15,3.15,0,0,0-.56-2.12,1.6,1.6,0,0,0-.75-.49,3.78,3.78,0,0,0-.8-.19c-.21,0-.32-.05-.32-.1,0-.64,0-1,.15-1A47.1,47.1,0,0,0,252.37,99l.26-.07c.09,0,.17.08.24.23a.81.81,0,0,1,.09.38q0,.15,0,.47t-.07.66a4.2,4.2,0,0,0,0,.45,6.09,6.09,0,0,1,1.6-1.63A3.63,3.63,0,0,1,256.48,98.7Z"/><path class="cls-1" d="M289.5,100.77a1,1,0,0,0-.28-.68,1.46,1.46,0,0,0-.68-.39,6.08,6.08,0,0,0-.77-.16,4.79,4.79,0,0,0-.68,0H287q-.13,0-.16-.5t.08-.6q.43,0,1.76.08c.88.05,1.59.08,2.13.07s1.06,0,1.77-.12,1.24-.12,1.58-.12a2.1,2.1,0,0,1,.07.56c0,.33,0,.5-.13.5a3.78,3.78,0,0,0-1.31.43,2,2,0,0,0-1.13,1l-4.75,11.79a1.31,1.31,0,0,1-.44.49,1.14,1.14,0,0,1-.64.22.42.42,0,0,1-.44-.23L281.18,104l-3.43,8.71a1.8,1.8,0,0,1-.37.47,1,1,0,0,1-.71.28.49.49,0,0,1-.47-.23q-.79-1.71-1.87-4.17t-2-4.34q-.89-1.88-2-4.09a1.52,1.52,0,0,0-.87-.65,3.21,3.21,0,0,0-1.07-.22c-.09,0-.13-.18-.14-.53s0-.5.13-.57.78,0,1.68.08,1.6.08,2.11.07,1.26-.05,2.26-.13l1.73-.12a1.83,1.83,0,0,1,.07.6c0,.29,0,.44-.09.47a3.94,3.94,0,0,0-1.14.25c-.47.16-.71.4-.7.71q0,.07,3.43,7.59.35-.93.82-2.12l.71-1.8.48-1.25q.24-.63.34-1a1.81,1.81,0,0,0,.09-.42,2.42,2.42,0,0,0-.45-1.32,1.58,1.58,0,0,0-.74-.52,2.65,2.65,0,0,0-1.2-.18c-.09,0-.13-.16-.14-.48s0-.52.13-.58q.36,0,1.64.08t2.08.07q.73,0,2.16-.13t1.69-.12a1.62,1.62,0,0,1,.06.61c0,.32,0,.48-.11.48q-1.69,0-1.68,1.19,0,.63,3.22,7.33.51-1.4,1.27-3.29t1.11-2.8A4.46,4.46,0,0,0,289.5,100.77Z"/><path class="cls-1" d="M306.91,98q4.25-.06,4.34,6.48l0,3.42a12.19,12.19,0,0,0,.31,3c0,.15.32.31.89.47a5.09,5.09,0,0,0,1.15.23c.07,0,.11.16.12.48a3.41,3.41,0,0,1,0,.65q-.23,0-1.78-.11t-2.28-.07q-.83,0-2.24.13l-1.74.16a1.24,1.24,0,0,1-.11-.63q0-.5.09-.5a4,4,0,0,0,1.14-.26q.74-.26.84-.49a12.58,12.58,0,0,0,.17-2.43l0-3.25a6.93,6.93,0,0,0-.8-3.79,2.72,2.72,0,0,0-2.39-1,3.18,3.18,0,0,0-1.82.59,1.57,1.57,0,0,0-.81,1.27l.08,5.71a12.19,12.19,0,0,0,.31,3q.07.23.89.47a4.7,4.7,0,0,0,1.12.23c.07,0,.11.16.12.48a1.86,1.86,0,0,1,0,.65l-1.74-.11q-1.48-.08-2.24-.07t-2.3.13l-1.78.16a1,1,0,0,1-.14-.63q0-.5.13-.5a4.65,4.65,0,0,0,1.21-.27c.54-.17.83-.34.87-.49a10.62,10.62,0,0,0,.2-2.39l-.19-13.81a13.05,13.05,0,0,0-.2-2.26q-.17-.53-1.73-.51h-.3q-.2,0-.21-.53t.19-.53q1-.11,2-.29t1.54-.35q.61-.17,1.06-.35l.94-.35h.07a.36.36,0,0,1,.27.18.91.91,0,0,1,.17.35,10.7,10.7,0,0,0-.36,3.13l.09,6.71c0,.13,0,.2.14.2s.07,0,.13-.1a6.31,6.31,0,0,1,2-1.47A6.12,6.12,0,0,1,306.91,98Z"/><path class="cls-1" d="M321.63,107.77a12.19,12.19,0,0,0,.31,3q.07.23.9.47a4.9,4.9,0,0,0,1.13.23c.09,0,.14.16.16.48a1.86,1.86,0,0,1,0,.65q-.23,0-1.78-.11T320,112.4q-.83,0-2.34.13t-1.74.16a1,1,0,0,1-.14-.63q0-.5.13-.5a4.82,4.82,0,0,0,1.19-.27q.83-.26.89-.49a10.87,10.87,0,0,0,.2-2.43l-.08-5.41a3.15,3.15,0,0,0-.56-2.12,1.84,1.84,0,0,0-.77-.49,3.48,3.48,0,0,0-.8-.19c-.22,0-.33-.05-.33-.09q0-1,.19-1a25.54,25.54,0,0,0,2.68-.44,26.07,26.07,0,0,0,2.61-.63l.26-.07c.11,0,.2.08.27.23a.61.61,0,0,1,.07.36,28.26,28.26,0,0,0-.23,2.86ZM318,93.92a2,2,0,0,1-.62-1.45,2,2,0,0,1,.58-1.45,2.08,2.08,0,0,1,2.92,0,2,2,0,0,1,.62,1.44,2,2,0,0,1-.58,1.47,2,2,0,0,1-2.92,0Z"/><path class="cls-1" d="M327.84,100l-2,0q-.23,0-.24-.86a.81.81,0,0,1,0-.3,9.3,9.3,0,0,0,2.53-1.8q.42-.44.93-1t1.19-1.43a2.37,2.37,0,0,1,.63.07q.3.08.3.18l0,3.25,2.41,0h1.64q.27,0,.27.3a3.22,3.22,0,0,1-.31,1.47l-4,.06.11,8a3.15,3.15,0,0,0,.59,2,1.9,1.9,0,0,0,1.57.68,3.15,3.15,0,0,0,.7-.09,3.51,3.51,0,0,0,.6-.19l.43-.21.23-.1c.09,0,.19.08.3.29s.16.36.14.43a3,3,0,0,1-1.4,1.1,5.23,5.23,0,0,1-2.37.65,4.19,4.19,0,0,1-3-1.07,4.44,4.44,0,0,1-1.26-3.42Z"/><path class="cls-1" d="M344.64,97.49a6.16,6.16,0,0,1,2.8.58,5.26,5.26,0,0,1,1.95,1.53,7.72,7.72,0,0,1,1.09,1.94,5.75,5.75,0,0,1,.39,1.94q0,.73-.24.92a1.88,1.88,0,0,1-1,.2l-7.94.11c-.16,0-.23.07-.23.2a6.47,6.47,0,0,0,.46,2.32,4.56,4.56,0,0,0,1.5,1.94,3.91,3.91,0,0,0,2.52.8,9,9,0,0,0,1-.06,5,5,0,0,0,.86-.18l.69-.23a2.85,2.85,0,0,0,.61-.31l.44-.29.66-.46a.55.55,0,0,1,.17.2.64.64,0,0,1,.1.33,1,1,0,0,1-.19.63,5.41,5.41,0,0,1-1.93,1.82,6.17,6.17,0,0,1-3.28.94,6.72,6.72,0,0,1-5-2.07,7.16,7.16,0,0,1-2.16-5.17,7.68,7.68,0,0,1,1.87-5.47A6.43,6.43,0,0,1,344.64,97.49ZM344.43,99a2.35,2.35,0,0,0-1.42.48,3.13,3.13,0,0,0-.95,1.14,6.3,6.3,0,0,0-.46,1.25,4,4,0,0,0-.14,1q0,.23.2.23L347,103q.3,0,.29-.5a4.31,4.31,0,0,0-.81-2.35A2.38,2.38,0,0,0,344.43,99Z"/><path class="cls-1" d="M369,97.18a6.71,6.71,0,0,1,3.8,1,7,7,0,0,1,3.34,5.86,7.77,7.77,0,0,1-7.69,8,7.71,7.71,0,0,1-2.36-.43q-.13,0-.13.47l0,2.26a12,12,0,0,0,.31,3q0,.27.89.5a5.09,5.09,0,0,0,1.15.23q.1,0,.12.48a3,3,0,0,1,0,.61l-1.78-.07q-1.54-.08-2.28-.07t-2.34.13l-1.77.12a1.2,1.2,0,0,1-.11-.61c0-.32,0-.48.09-.48a4.64,4.64,0,0,0,1.21-.27q.81-.26.91-.53a12.17,12.17,0,0,0,.17-2.39l-.18-12.68a3.23,3.23,0,0,0-.56-2.15,1.5,1.5,0,0,0-.74-.47,4,4,0,0,0-.8-.17c-.22,0-.33-.05-.33-.09q0-1,.19-1a25.56,25.56,0,0,0,4.93-1l.63-.17c.09,0,.14.23.14.7a1.81,1.81,0,0,1-.06.4,6.64,6.64,0,0,1,1.47-.8A4.77,4.77,0,0,1,369,97.18ZM368.22,99a2.51,2.51,0,0,0-1.77.66,2.2,2.2,0,0,0-.66,1.7l.09,6.84a2,2,0,0,0,.92,1.73,3.23,3.23,0,0,0,1.93.62,3.12,3.12,0,0,0,2.55-1.43,6.41,6.41,0,0,0,1-3.93,8.59,8.59,0,0,0-1.12-4.45A3.27,3.27,0,0,0,368.22,99Z"/><path class="cls-1" d="M385,96.93a6.16,6.16,0,0,1,2.8.58A5.26,5.26,0,0,1,389.75,99a7.75,7.75,0,0,1,1.09,1.94,5.75,5.75,0,0,1,.39,1.94q0,.73-.24.92a1.89,1.89,0,0,1-1,.2l-7.94.11c-.15,0-.23.07-.23.2a6.47,6.47,0,0,0,.46,2.32,4.56,4.56,0,0,0,1.5,1.94,3.91,3.91,0,0,0,2.52.8,9.1,9.1,0,0,0,1-.06,5,5,0,0,0,.86-.18l.69-.23a2.84,2.84,0,0,0,.61-.31l.44-.29.66-.46a.55.55,0,0,1,.17.2.64.64,0,0,1,.1.33,1,1,0,0,1-.19.63,5.41,5.41,0,0,1-1.93,1.82,6.17,6.17,0,0,1-3.28.94,6.72,6.72,0,0,1-5-2.07,7.16,7.16,0,0,1-2.16-5.17,7.68,7.68,0,0,1,1.87-5.47A6.43,6.43,0,0,1,385,96.93Zm-.21,1.53a2.35,2.35,0,0,0-1.42.48,3.13,3.13,0,0,0-.95,1.14,6.3,6.3,0,0,0-.46,1.25,4,4,0,0,0-.14,1q0,.23.2.23l5.38-.07q.3,0,.29-.5a4.31,4.31,0,0,0-.81-2.35A2.38,2.38,0,0,0,384.8,98.46Z"/><path class="cls-1" d="M400.52,96.72a7.32,7.32,0,0,1,5.36,2.1,7.12,7.12,0,0,1,2.28,5.23,7.52,7.52,0,0,1-15,.21,7.15,7.15,0,0,1,2.1-5.31A7.27,7.27,0,0,1,400.52,96.72Zm-.41,1.57a2.67,2.67,0,0,0-2.4,1.54,7.14,7.14,0,0,0-.81,3.61,9.69,9.69,0,0,0,1.14,4.67,3.31,3.31,0,0,0,3,2,2.71,2.71,0,0,0,2.42-1.56,7.06,7.06,0,0,0,.83-3.6,11.43,11.43,0,0,0-.48-3.2,5.85,5.85,0,0,0-1.43-2.45A3.08,3.08,0,0,0,400.11,98.28Z"/><path class="cls-1" d="M419.25,96.49a6.71,6.71,0,0,1,3.8,1,7,7,0,0,1,3.34,5.86,7.77,7.77,0,0,1-7.69,8,7.7,7.7,0,0,1-2.36-.43q-.13,0-.13.47l0,2.26a12,12,0,0,0,.31,3q0,.27.89.5a5.09,5.09,0,0,0,1.15.23q.1,0,.12.48a3,3,0,0,1,0,.61l-1.78-.08q-1.54-.08-2.28-.07t-2.34.13l-1.77.12a1.2,1.2,0,0,1-.11-.61c0-.32,0-.48.09-.48a4.64,4.64,0,0,0,1.21-.27c.54-.17.84-.35.91-.53a12.17,12.17,0,0,0,.17-2.39l-.18-12.68a3.23,3.23,0,0,0-.56-2.15,1.49,1.49,0,0,0-.74-.47,4,4,0,0,0-.8-.17c-.22,0-.33-.05-.33-.09q0-1,.19-1a25.56,25.56,0,0,0,4.93-1l.63-.17c.09,0,.14.23.14.7a1.81,1.81,0,0,1-.06.4,6.63,6.63,0,0,1,1.47-.8A4.77,4.77,0,0,1,419.25,96.49Zm-.77,1.77a2.51,2.51,0,0,0-1.77.66,2.2,2.2,0,0,0-.66,1.7l.09,6.84a2,2,0,0,0,.92,1.73,3.23,3.23,0,0,0,1.93.62,3.12,3.12,0,0,0,2.55-1.43,6.42,6.42,0,0,0,1-3.93,8.59,8.59,0,0,0-1.12-4.45A3.27,3.27,0,0,0,418.48,98.26Z"/><path class="cls-1" d="M434.37,106.14a13.57,13.57,0,0,0,.27,3q.07.23.82.5a3.61,3.61,0,0,0,1,.27c.07,0,.11.15.12.46a1.84,1.84,0,0,1,0,.63l-1.25-.07-1.41-.06q-.63,0-1.2,0c-.42,0-.84,0-1.26.05l-1.39.1-1.26.1a.94.94,0,0,1-.14-.61c0-.32,0-.48.13-.48a3.56,3.56,0,0,0,1.11-.3c.5-.19.76-.37.81-.53a11,11,0,0,0,.23-2.46l-.19-13.81a11.54,11.54,0,0,0-.23-2.25q-.17-.53-1.67-.51h-.33q-.2,0-.21-.4t.19-.53q1-.11,2-.29t1.54-.35q.61-.17,1.06-.33l.71-.26.23-.1H434c.09,0,.18.06.29.2a1,1,0,0,1,.19.33,10.52,10.52,0,0,0-.36,3.13Z"/><path class="cls-1" d="M445.4,96.1a6.16,6.16,0,0,1,2.8.58,5.26,5.26,0,0,1,1.95,1.53,7.75,7.75,0,0,1,1.09,1.94,5.75,5.75,0,0,1,.39,1.94q0,.73-.24.92a1.88,1.88,0,0,1-1,.2l-7.94.11c-.15,0-.23.07-.23.2a6.47,6.47,0,0,0,.46,2.32,4.55,4.55,0,0,0,1.5,1.94,3.91,3.91,0,0,0,2.52.8,9,9,0,0,0,1-.06,5,5,0,0,0,.86-.18l.69-.23a2.85,2.85,0,0,0,.61-.31l.44-.29.66-.46a.56.56,0,0,1,.17.2.64.64,0,0,1,.1.33,1,1,0,0,1-.19.63,5.41,5.41,0,0,1-1.93,1.82,6.17,6.17,0,0,1-3.28.94,6.72,6.72,0,0,1-5-2.07,7.16,7.16,0,0,1-2.16-5.17,7.68,7.68,0,0,1,1.87-5.47A6.43,6.43,0,0,1,445.4,96.1Zm-.21,1.53a2.35,2.35,0,0,0-1.42.48,3.13,3.13,0,0,0-.95,1.14,6.34,6.34,0,0,0-.46,1.25,4,4,0,0,0-.14,1q0,.23.2.23l5.38-.07q.3,0,.29-.5a4.31,4.31,0,0,0-.81-2.35A2.38,2.38,0,0,0,445.18,97.63Z"/><path class="cls-1" d="M7.39,154.67a7.32,7.32,0,0,1,5.36,2.09A7.11,7.11,0,0,1,15,162a7.22,7.22,0,0,1-2.09,5.31,7.22,7.22,0,0,1-5.29,2.27,7.28,7.28,0,0,1-5.38-2.11,7.48,7.48,0,0,1-.18-10.56A7.27,7.27,0,0,1,7.39,154.67ZM7,156.24a2.67,2.67,0,0,0-2.4,1.55,7.14,7.14,0,0,0-.81,3.62,9.7,9.7,0,0,0,1.15,4.66A3.31,3.31,0,0,0,8,168a2.7,2.7,0,0,0,2.42-1.57,7.06,7.06,0,0,0,.82-3.6,11.39,11.39,0,0,0-.48-3.2,5.87,5.87,0,0,0-1.43-2.45A3.08,3.08,0,0,0,7,156.24Z"/><path class="cls-1" d="M26.78,154.37a3.31,3.31,0,0,1,2.74,1.05q0,2.82-1.55,2.85a2,2,0,0,1-1.3-.64,2.08,2.08,0,0,0-1.44-.64,1.78,1.78,0,0,0-1.59,1.07,4.42,4.42,0,0,0-.55,2.18l.06,4.15a14,14,0,0,0,.28,3c0,.15.34.31.89.47a4.68,4.68,0,0,0,1.12.23c.07,0,.11.16.12.48a3.56,3.56,0,0,1,0,.65l-1.76-.11Q22.3,169,21.53,169t-2.3.14l-1.77.16a1,1,0,0,1-.14-.63c0-.33,0-.5.13-.5a4.67,4.67,0,0,0,1.21-.27q.81-.26.87-.5a10.79,10.79,0,0,0,.2-2.43l-.08-5.41a3.16,3.16,0,0,0-.56-2.12,1.61,1.61,0,0,0-.76-.49,3.77,3.77,0,0,0-.8-.19q-.32,0-.32-.09c0-.64,0-1,.15-1a47,47,0,0,0,5.33-1.08l.26-.07c.09,0,.17.08.24.23a.82.82,0,0,1,.09.38c0,.1,0,.26,0,.47s0,.43-.07.67a3.63,3.63,0,0,0,0,.45,6.08,6.08,0,0,1,1.6-1.64A3.63,3.63,0,0,1,26.78,154.37Z"/><path class="cls-1" d="M38.53,150.44a4.42,4.42,0,0,1,.32-1.72,5,5,0,0,1,.82-1.42,9.08,9.08,0,0,1,1-1,7.07,7.07,0,0,1,.92-.68,1.52,1.52,0,0,1,.48-.22,1,1,0,0,1,.52.22,1.15,1.15,0,0,1,.42.49,5.39,5.39,0,0,0-1.44,1.25,4.33,4.33,0,0,0-.7,1.12,2.09,2.09,0,0,0-.14.65,2.11,2.11,0,0,0,.7,1.17,2.09,2.09,0,0,1,.7,1.2,1.23,1.23,0,0,1-.65,1A2.69,2.69,0,0,1,40,153a2.12,2.12,0,0,1-1-.22A4.21,4.21,0,0,1,38.53,150.44Zm4.85-.08a4.5,4.5,0,0,1,.32-1.72,5,5,0,0,1,.82-1.42,9,9,0,0,1,1-1,6.83,6.83,0,0,1,.92-.68,1.52,1.52,0,0,1,.48-.22,1,1,0,0,1,.52.22,1.15,1.15,0,0,1,.42.49,5.67,5.67,0,0,0-1.46,1.25,4.24,4.24,0,0,0-.71,1.12,1.4,1.4,0,0,0,.56,1.82,2.09,2.09,0,0,1,.7,1.2,1.23,1.23,0,0,1-.65,1,2.62,2.62,0,0,1-1.45.45,2.19,2.19,0,0,1-1-.22A4.24,4.24,0,0,1,43.37,150.36Z"/><path class="cls-1" d="M51.88,156.31l-2,0c-.15,0-.24-.28-.24-.86a.84.84,0,0,1,0-.3,9.29,9.29,0,0,0,2.53-1.8c.28-.29.59-.62.93-1s.73-.85,1.19-1.43a2.35,2.35,0,0,1,.63.07c.2.05.3.11.3.18l.05,3.25,2.41,0h1.64q.26,0,.27.29a3.25,3.25,0,0,1-.31,1.47l-4,.06.13,8a3.15,3.15,0,0,0,.6,2,1.9,1.9,0,0,0,1.57.67,3.11,3.11,0,0,0,.69-.09,3.53,3.53,0,0,0,.6-.19l.43-.21a1,1,0,0,1,.23-.1c.09,0,.19.07.3.29s.16.36.14.43a3,3,0,0,1-1.39,1.1,5.22,5.22,0,0,1-2.36.65,4.19,4.19,0,0,1-3-1.07A4.44,4.44,0,0,1,52,164.34Z"/><path class="cls-1" d="M72.73,153.66q4.25-.07,4.35,6.47l.05,3.42a12.21,12.21,0,0,0,.31,3c0,.15.32.31.89.47a5.07,5.07,0,0,0,1.15.23c.07,0,.11.16.12.48a3.56,3.56,0,0,1,0,.65q-.23,0-1.78-.1t-2.28-.06q-.83,0-2.24.13l-1.74.16a1.22,1.22,0,0,1-.11-.63c0-.33,0-.5.09-.5a4,4,0,0,0,1.14-.27q.74-.26.84-.49a12.64,12.64,0,0,0,.16-2.43l0-3.25a6.94,6.94,0,0,0-.81-3.79,2.72,2.72,0,0,0-2.39-1,3.18,3.18,0,0,0-1.82.59,1.57,1.57,0,0,0-.81,1.27l.09,5.71a12.22,12.22,0,0,0,.31,3q.07.23.89.47a4.71,4.71,0,0,0,1.12.23c.07,0,.11.16.12.48a1.93,1.93,0,0,1,0,.65l-1.75-.11q-1.48-.08-2.24-.06t-2.3.14l-1.78.16a1,1,0,0,1-.14-.63c0-.33,0-.5.13-.5a4.65,4.65,0,0,0,1.21-.27q.81-.26.87-.5a10.59,10.59,0,0,0,.2-2.39l-.21-13.81a13,13,0,0,0-.2-2.26c-.12-.35-.69-.52-1.73-.5H62c-.13,0-.2-.17-.21-.53s.06-.53.19-.53c.68-.08,1.34-.18,2-.3s1.13-.24,1.54-.36.76-.23,1.06-.35l.94-.35h.07a.36.36,0,0,1,.27.18.91.91,0,0,1,.17.35,10.69,10.69,0,0,0-.35,3.13l.11,6.71q0,.2.13.2s.07,0,.13-.1a6.34,6.34,0,0,1,2-1.48A6.13,6.13,0,0,1,72.73,153.66Z"/><path class="cls-1" d="M87.47,163.39a12.22,12.22,0,0,0,.31,3q.07.23.9.47a4.87,4.87,0,0,0,1.13.23c.09,0,.14.16.16.48a1.93,1.93,0,0,1,0,.65c-.16,0-.75-.05-1.78-.11s-1.79-.07-2.28-.06-1.33.05-2.34.14-1.59.14-1.74.16a1,1,0,0,1-.14-.63c0-.33,0-.5.13-.5a4.81,4.81,0,0,0,1.19-.27q.82-.26.89-.5a10.91,10.91,0,0,0,.19-2.43L84,158.6a3.16,3.16,0,0,0-.56-2.12,1.83,1.83,0,0,0-.77-.49,3.49,3.49,0,0,0-.8-.19c-.22,0-.33,0-.33-.09,0-.64.05-1,.18-1a25.45,25.45,0,0,0,2.68-.44,25.9,25.9,0,0,0,2.61-.64l.27-.07c.11,0,.2.07.27.23a.6.6,0,0,1,.07.36q-.23,2.13-.22,2.86ZM83.8,149.55a2,2,0,0,1-.62-1.45,2,2,0,0,1,.57-1.45A2.06,2.06,0,0,1,87.3,148a2,2,0,0,1-.58,1.47,2,2,0,0,1-2.92,0Z"/><path class="cls-1" d="M97.11,153.24a14.12,14.12,0,0,1,3.86.5,18.84,18.84,0,0,1,.42,3.71c0,.18-.14.27-.43.27q-.73,0-.8-.25a4,4,0,0,0-1-2,2.59,2.59,0,0,0-2-.78,2.38,2.38,0,0,0-1.5.46,1.47,1.47,0,0,0-.53,1.24,1.93,1.93,0,0,0,.2.84,2.06,2.06,0,0,0,.61.7,8,8,0,0,0,.74.52q.32.19,1,.52a2.2,2.2,0,0,0,.33.16l.5.26.55.29.54.31a6.11,6.11,0,0,1,.59.37l.52.39a2.59,2.59,0,0,1,.51.46l.41.51a2.11,2.11,0,0,1,.36.59,5.94,5.94,0,0,1,.19.63,3.1,3.1,0,0,1,.09.71,3.91,3.91,0,0,1-1.56,3.33,6.3,6.3,0,0,1-3.88,1.27,11.1,11.1,0,0,1-4.3-.86,13.17,13.17,0,0,1-.36-1.84,16.43,16.43,0,0,1-.2-1.91.71.71,0,0,1,.46-.17c.51,0,.78.08.8.25A3.66,3.66,0,0,0,94.51,166a3.54,3.54,0,0,0,2.29.81,2.41,2.41,0,0,0,1.52-.49,1.63,1.63,0,0,0,.58-1.37,2.18,2.18,0,0,0-.09-.61,1.62,1.62,0,0,0-.32-.56l-.39-.46a2.45,2.45,0,0,0-.61-.44l-.67-.37-.84-.42-.85-.44a7.74,7.74,0,0,1-2.39-1.74,3.83,3.83,0,0,1,.68-5.51A6.4,6.4,0,0,1,97.11,153.24Z"/><path class="cls-1" d="M117.54,162.92a12.22,12.22,0,0,0,.31,3q.07.23.9.47a4.87,4.87,0,0,0,1.13.23c.09,0,.14.16.16.48a1.88,1.88,0,0,1,0,.65q-.23,0-1.78-.11t-2.28-.06q-.83,0-2.34.14c-1,.08-1.59.14-1.74.16a1,1,0,0,1-.14-.63c0-.33,0-.5.13-.5a4.82,4.82,0,0,0,1.19-.27q.82-.26.89-.5a10.92,10.92,0,0,0,.19-2.43l-.08-5.41a3.16,3.16,0,0,0-.56-2.12,1.83,1.83,0,0,0-.77-.49,3.49,3.49,0,0,0-.8-.19q-.33,0-.33-.09,0-1,.18-1a25.31,25.31,0,0,0,2.68-.44,26.12,26.12,0,0,0,2.62-.64l.26-.07c.11,0,.2.07.27.23a.62.62,0,0,1,.07.36,28.07,28.07,0,0,0-.22,2.86Zm-3.67-13.84a2,2,0,0,1-.62-1.45,2,2,0,0,1,.57-1.45,2.06,2.06,0,0,1,3.54,1.39,2,2,0,0,1-.57,1.47,2,2,0,0,1-2.92,0Z"/><path class="cls-1" d="M127.18,152.78a14.11,14.11,0,0,1,3.86.5,18.83,18.83,0,0,1,.42,3.71c0,.18-.14.27-.43.27-.49,0-.75-.08-.8-.25a4,4,0,0,0-1-2,2.59,2.59,0,0,0-2-.78,2.38,2.38,0,0,0-1.5.46,1.48,1.48,0,0,0-.53,1.24,1.93,1.93,0,0,0,.2.84,2.07,2.07,0,0,0,.61.7,8.29,8.29,0,0,0,.74.52q.32.19,1,.52a2.16,2.16,0,0,0,.34.16l.5.26.55.29.54.31a6.12,6.12,0,0,1,.59.37l.52.39a2.65,2.65,0,0,1,.51.46l.41.51a2.15,2.15,0,0,1,.36.59q.1.28.19.63a3.21,3.21,0,0,1,.09.71,3.91,3.91,0,0,1-1.56,3.33,6.3,6.3,0,0,1-3.88,1.27,11.09,11.09,0,0,1-4.3-.86,13.18,13.18,0,0,1-.36-1.84,16.43,16.43,0,0,1-.2-1.91.71.71,0,0,1,.46-.17c.51,0,.78.08.8.25a3.67,3.67,0,0,0,1.35,2.22,3.54,3.54,0,0,0,2.29.81,2.42,2.42,0,0,0,1.52-.49,1.63,1.63,0,0,0,.58-1.37,2.17,2.17,0,0,0-.09-.61,1.62,1.62,0,0,0-.32-.56l-.39-.46a2.42,2.42,0,0,0-.6-.44l-.67-.37-.84-.42-.85-.44a7.7,7.7,0,0,1-2.38-1.74,3.83,3.83,0,0,1,.68-5.51A6.4,6.4,0,0,1,127.18,152.78Z"/><path class="cls-1" d="M152.4,152.42q4.28-.07,4.39,6.74l0,3.15a13.86,13.86,0,0,0,.28,3q.07.23.92.47a5.1,5.1,0,0,0,1.15.23c.07,0,.11.16.12.48a1.93,1.93,0,0,1,0,.65c-.13,0-.71-.06-1.75-.11s-1.8-.07-2.31-.06-1.27.05-2.21.13l-1.71.16a1,1,0,0,1-.14-.63c0-.33,0-.5.13-.5a4,4,0,0,0,1.11-.27c.49-.17.76-.34.8-.49a9.52,9.52,0,0,0,.23-2.43l0-3.15a7.23,7.23,0,0,0-.81-3.84,2.67,2.67,0,0,0-2.39-1.06,3.07,3.07,0,0,0-1.85.61,1.59,1.59,0,0,0-.78,1.26l.09,5.71a14,14,0,0,0,.28,3c0,.15.34.31.89.47a4.75,4.75,0,0,0,1.08.23c.09,0,.14.16.16.48a1.88,1.88,0,0,1,0,.65l-1.74-.11q-1.48-.08-2.24-.06t-2.31.14l-1.77.16a1,1,0,0,1-.14-.63c0-.33,0-.5.13-.5a4.63,4.63,0,0,0,1.21-.27q.81-.26.87-.5a10.91,10.91,0,0,0,.19-2.43l-.08-5.41a3.16,3.16,0,0,0-.56-2.12,1.6,1.6,0,0,0-.75-.49,3.79,3.79,0,0,0-.8-.19q-.32,0-.32-.09c0-.64,0-1,.15-1a47.1,47.1,0,0,0,5.33-1.08l.08-.05.1,0h.08c.09,0,.17.08.24.23a1,1,0,0,1,.11.36,11.37,11.37,0,0,0-.12,1.2c0,.09,0,.14,0,.17a.49.49,0,0,0,.16-.1,7.39,7.39,0,0,1,2-1.43A5.82,5.82,0,0,1,152.4,152.42Z"/><path class="cls-1" d="M168.77,152.16a7.32,7.32,0,0,1,5.36,2.09,7.11,7.11,0,0,1,2.29,5.23,7.52,7.52,0,0,1-15,.23,7.15,7.15,0,0,1,2.09-5.31A7.27,7.27,0,0,1,168.77,152.16Zm-.41,1.57a2.67,2.67,0,0,0-2.4,1.55,7.14,7.14,0,0,0-.81,3.62,9.7,9.7,0,0,0,1.15,4.66,3.31,3.31,0,0,0,3,1.95,2.7,2.7,0,0,0,2.42-1.56,7.06,7.06,0,0,0,.82-3.6,11.39,11.39,0,0,0-.48-3.2,5.87,5.87,0,0,0-1.43-2.45A3.08,3.08,0,0,0,168.37,153.73Z"/><path class="cls-1" d="M180.4,154.31l-2,0c-.16,0-.24-.28-.25-.86a.85.85,0,0,1,0-.3,9.28,9.28,0,0,0,2.53-1.8c.28-.29.59-.62.93-1s.73-.85,1.19-1.43a2.36,2.36,0,0,1,.63.07c.2.05.3.11.3.18l.05,3.25,2.41,0h1.64q.26,0,.27.29a3.25,3.25,0,0,1-.31,1.47l-4,.06.13,8a3.15,3.15,0,0,0,.6,2,1.9,1.9,0,0,0,1.57.67,3.15,3.15,0,0,0,.7-.09,3.58,3.58,0,0,0,.59-.19l.43-.21.23-.1c.09,0,.19.08.3.29s.16.36.14.43q-.19.47-1.39,1.1a5.22,5.22,0,0,1-2.36.65,4.19,4.19,0,0,1-3-1.07,4.44,4.44,0,0,1-1.27-3.42Z"/><path class="cls-1" d="M207,143.17a6.54,6.54,0,0,1,2.31.31,2.32,2.32,0,0,1,1.22.83,3.74,3.74,0,0,1-.15,1.85,1.19,1.19,0,0,1-1.2.83,1.3,1.3,0,0,1-1-.53q-.46-.54-1-1.08a1.53,1.53,0,0,0-1.17-.53,1.77,1.77,0,0,0-1.48.89,5.61,5.61,0,0,0-.81,2.1,13.74,13.74,0,0,0-.21,2.69l0,1.53s0,.06.07.1a.19.19,0,0,0,.13.06l3.65-.06a.27.27,0,0,1,.17,0,.36.36,0,0,1,0,.2,3.4,3.4,0,0,1-.37,1.53l-3.45.05a.18.18,0,0,0-.2.2l.12,7.4a12.79,12.79,0,0,0,.31,3c0,.15.34.31.89.47a4.67,4.67,0,0,0,1.12.23c.07,0,.11.16.12.48a1.88,1.88,0,0,1,0,.65q-.2,0-1.73-.11t-2.32-.06q-.8,0-2.26.13l-1.72.16a.61.61,0,0,1-.14-.36,1.9,1.9,0,0,1,0-.51c0-.17.06-.25.13-.25a4.46,4.46,0,0,0,1.16-.27q.79-.26.86-.49a11,11,0,0,0,.26-2.73l-.12-7.64c0-.15-.07-.23-.2-.23l-2,0s-.07-.07-.07-.2a1.77,1.77,0,0,1,.45-1,1.33,1.33,0,0,1,1.05-.61H200a.18.18,0,0,0,.2-.2v-.33a9,9,0,0,1,2-6A6.21,6.21,0,0,1,207,143.17Z"/><path class="cls-1" d="M217.11,151.41a7.32,7.32,0,0,1,5.36,2.09,7.11,7.11,0,0,1,2.29,5.23,7.57,7.57,0,1,1-7.65-7.32ZM216.7,153a2.68,2.68,0,0,0-2.4,1.55,7.14,7.14,0,0,0-.81,3.62,9.68,9.68,0,0,0,1.15,4.66,3.31,3.31,0,0,0,3,1.95,2.71,2.71,0,0,0,2.42-1.57,7.06,7.06,0,0,0,.82-3.6,11.38,11.38,0,0,0-.48-3.2,5.86,5.86,0,0,0-1.43-2.45A3.08,3.08,0,0,0,216.7,153Z"/><path class="cls-1" d="M236.51,151.11a3.31,3.31,0,0,1,2.74,1.05q0,2.82-1.55,2.85a2,2,0,0,1-1.3-.64,2.08,2.08,0,0,0-1.44-.64,1.78,1.78,0,0,0-1.59,1.07,4.42,4.42,0,0,0-.55,2.18l.06,4.15a13.86,13.86,0,0,0,.28,3q.07.23.89.47a4.7,4.7,0,0,0,1.12.23c.07,0,.11.16.12.48a3.56,3.56,0,0,1,0,.65l-1.76-.11q-1.5-.08-2.26-.06t-2.31.14l-1.77.16a1,1,0,0,1-.14-.63c0-.33,0-.5.13-.5a4.62,4.62,0,0,0,1.21-.27q.81-.26.87-.49a10.91,10.91,0,0,0,.19-2.43l-.08-5.41a3.16,3.16,0,0,0-.56-2.12,1.6,1.6,0,0,0-.75-.49,3.8,3.8,0,0,0-.8-.19q-.32,0-.32-.09,0-1,.15-1a47.23,47.23,0,0,0,5.33-1.08l.27-.07c.09,0,.17.08.24.23a.79.79,0,0,1,.09.38l0,.47c0,.21,0,.43-.07.67s0,.38,0,.45a6.1,6.1,0,0,1,1.6-1.64A3.64,3.64,0,0,1,236.51,151.11Z"/><path class="cls-1" d="M255.81,150.81a8,8,0,0,1,3.15.53,5.32,5.32,0,0,1,2,1.25,4.11,4.11,0,0,1-.35,1.88,1.22,1.22,0,0,1-1.13.76,1.49,1.49,0,0,1-1-.32,3.78,3.78,0,0,1-.8-1.08,2.41,2.41,0,0,0-2.25-1.49,2.55,2.55,0,0,0-2.25,1.48,7.1,7.1,0,0,0-.79,3.65,6.72,6.72,0,0,0,1.3,4.41,3.92,3.92,0,0,0,3.14,1.4,9,9,0,0,0,1-.06,4.91,4.91,0,0,0,.86-.18l.7-.23a2.86,2.86,0,0,0,.61-.31l.45-.29.66-.46a.55.55,0,0,1,.17.2.66.66,0,0,1,.1.33,1,1,0,0,1-.19.63,5.42,5.42,0,0,1-1.93,1.82,6.1,6.1,0,0,1-3.24.95,6.71,6.71,0,0,1-5.06-2.08,7.33,7.33,0,0,1-2.16-5.25,7.54,7.54,0,0,1,1.91-5.26A6.68,6.68,0,0,1,255.81,150.81Z"/><path class="cls-1" d="M269.52,160.56a12.22,12.22,0,0,0,.31,3q.07.23.9.47a4.86,4.86,0,0,0,1.13.23c.09,0,.14.16.16.48a1.93,1.93,0,0,1,0,.65c-.16,0-.75-.05-1.78-.11s-1.79-.07-2.28-.06-1.33.05-2.34.14-1.59.14-1.74.16a1,1,0,0,1-.14-.63c0-.33,0-.5.13-.5a4.79,4.79,0,0,0,1.19-.27q.83-.26.89-.5a10.79,10.79,0,0,0,.2-2.43l-.08-5.41a3.16,3.16,0,0,0-.56-2.12,1.86,1.86,0,0,0-.77-.49,3.5,3.5,0,0,0-.8-.19c-.22,0-.33,0-.33-.09,0-.64.05-1,.18-1a25.45,25.45,0,0,0,2.68-.44,25.9,25.9,0,0,0,2.61-.64l.27-.07c.11,0,.2.07.27.23a.6.6,0,0,1,.07.36q-.23,2.13-.22,2.86Zm-3.67-13.84a2,2,0,0,1-.62-1.45,2.06,2.06,0,0,1,4.12-.06,2,2,0,0,1-.58,1.47,2,2,0,0,1-2.92,0Z"/><path class="cls-1" d="M279.17,150.41a14.12,14.12,0,0,1,3.86.5,18.82,18.82,0,0,1,.42,3.71c0,.18-.14.27-.43.27-.49,0-.75-.08-.8-.25a4,4,0,0,0-1-2,2.6,2.6,0,0,0-2-.78,2.38,2.38,0,0,0-1.5.46,1.47,1.47,0,0,0-.53,1.24,1.93,1.93,0,0,0,.2.84,2.06,2.06,0,0,0,.61.7,8,8,0,0,0,.74.52q.32.19,1,.52a2.2,2.2,0,0,0,.33.16l.5.26.55.29.54.31a5.82,5.82,0,0,1,.59.37l.52.39a2.65,2.65,0,0,1,.51.46l.41.51a2.14,2.14,0,0,1,.36.59,5.94,5.94,0,0,1,.19.63,3.1,3.1,0,0,1,.09.71,3.91,3.91,0,0,1-1.56,3.33,6.31,6.31,0,0,1-3.88,1.27,11.09,11.09,0,0,1-4.3-.86,13.11,13.11,0,0,1-.36-1.84,15.9,15.9,0,0,1-.2-1.91.71.71,0,0,1,.46-.17c.51,0,.78.08.8.25a3.66,3.66,0,0,0,1.35,2.22,3.54,3.54,0,0,0,2.29.81,2.41,2.41,0,0,0,1.52-.49,1.62,1.62,0,0,0,.58-1.37,2.25,2.25,0,0,0-.09-.61,1.65,1.65,0,0,0-.32-.56l-.39-.46a2.45,2.45,0,0,0-.61-.44l-.67-.37-.84-.42-.85-.44a7.7,7.7,0,0,1-2.38-1.74,3.83,3.83,0,0,1,.68-5.51A6.4,6.4,0,0,1,279.17,150.41Z"/><path class="cls-1" d="M292.59,150.3a10.51,10.51,0,0,1,2.76.39,10.24,10.24,0,0,0,2.66.39l1.89,0s.12.14.24.43a2,2,0,0,1,.18.66q0,.47-.19.47l-2.16,0c-.09,0-.13,0-.13.1s.1.31.31.86a4.72,4.72,0,0,1,.32,1.59,4.79,4.79,0,0,1-1.59,3.56,5.69,5.69,0,0,1-4.08,1.64,13.72,13.72,0,0,1-2.06-.1,1.78,1.78,0,0,0-.72.63,1.41,1.41,0,0,0-.32.82.68.68,0,0,0,.32.56,2.23,2.23,0,0,0,1,.32q.67.09,1.13.12l1.33,0h.5a11.73,11.73,0,0,1,4.88.84,2.61,2.61,0,0,1,1.58,2.42,5.22,5.22,0,0,1-2.32,4.35,9.08,9.08,0,0,1-5.58,1.91,8.63,8.63,0,0,1-4.25-.86,3,3,0,0,1-1.85-2.69,2.59,2.59,0,0,1,.92-1.87,5.48,5.48,0,0,1,2-1.29,3.79,3.79,0,0,1-1.61-1,2.42,2.42,0,0,1-.76-1.73q0-1.43,2.41-3a4.4,4.4,0,0,1-1.82-1.68,4.88,4.88,0,0,1-.87-2.69,4.48,4.48,0,0,1,1.67-3.75A6.6,6.6,0,0,1,292.59,150.3Zm4.85,17.29q0-1.16-1.7-1.52a21.09,21.09,0,0,0-4.5-.31l-.17,0-.16.1c-.29.11-.51.21-.66.29a3,3,0,0,0-.53.37,1.65,1.65,0,0,0-.44.59,2,2,0,0,0-.14.8,2.33,2.33,0,0,0,1.29,2,5.17,5.17,0,0,0,2.83.75,5,5,0,0,0,3-.91A2.59,2.59,0,0,0,297.44,167.59Zm-7.3-12.44a5.24,5.24,0,0,0,.71,2.73,2.07,2.07,0,0,0,1.88,1.08,2,2,0,0,0,1.79-1,4.41,4.41,0,0,0,.54-2.35,5.47,5.47,0,0,0-.71-2.84,2.12,2.12,0,0,0-1.94-1.07,1.87,1.87,0,0,0-1.74,1.06A4.79,4.79,0,0,0,290.14,155.16Z"/><path class="cls-1" d="M309.23,150a6.16,6.16,0,0,1,2.8.57,5.26,5.26,0,0,1,1.95,1.53,7.78,7.78,0,0,1,1.09,1.94,5.77,5.77,0,0,1,.39,1.94q0,.73-.23.92a1.89,1.89,0,0,1-1,.2l-7.94.12q-.23,0-.23.2a6.45,6.45,0,0,0,.47,2.32,4.57,4.57,0,0,0,1.51,1.94,3.9,3.9,0,0,0,2.52.79,9,9,0,0,0,1-.06,4.93,4.93,0,0,0,.86-.18l.7-.23a2.87,2.87,0,0,0,.61-.31l.44-.29.66-.46a.54.54,0,0,1,.17.2.64.64,0,0,1,.11.33,1,1,0,0,1-.19.63,5.43,5.43,0,0,1-1.93,1.82,6.16,6.16,0,0,1-3.27.95,6.72,6.72,0,0,1-5-2.06,7.16,7.16,0,0,1-2.17-5.16,7.68,7.68,0,0,1,1.86-5.47A6.44,6.44,0,0,1,309.23,150Zm-.21,1.53a2.34,2.34,0,0,0-1.42.49,3.12,3.12,0,0,0-.95,1.14,6.36,6.36,0,0,0-.46,1.25,4.15,4.15,0,0,0-.13,1c0,.16.07.23.2.23l5.38-.08c.2,0,.3-.17.29-.5a4.31,4.31,0,0,0-.82-2.35A2.38,2.38,0,0,0,309,151.51Z"/><path class="cls-1" d="M328.09,149.68q4.28-.07,4.39,6.74l0,3.15a14,14,0,0,0,.28,3q.07.23.92.47a5.07,5.07,0,0,0,1.15.23c.07,0,.11.16.12.48a1.88,1.88,0,0,1,0,.65q-.2,0-1.74-.11c-1-.05-1.8-.07-2.31-.06s-1.27.05-2.21.13l-1.71.16a1,1,0,0,1-.14-.63c0-.33,0-.5.13-.5a4,4,0,0,0,1.11-.27c.5-.17.76-.34.81-.49a9.53,9.53,0,0,0,.23-2.43l0-3.15a7.19,7.19,0,0,0-.81-3.84,2.67,2.67,0,0,0-2.39-1.06,3.07,3.07,0,0,0-1.85.61,1.59,1.59,0,0,0-.78,1.26l.09,5.71a14,14,0,0,0,.28,3q.07.23.89.47a4.8,4.8,0,0,0,1.08.23c.09,0,.14.16.16.48a1.93,1.93,0,0,1,0,.65l-1.74-.11q-1.48-.08-2.24-.06t-2.3.14l-1.78.16a1,1,0,0,1-.14-.63c0-.33,0-.5.13-.5a4.65,4.65,0,0,0,1.21-.27q.81-.26.87-.5a10.79,10.79,0,0,0,.2-2.43l-.08-5.41a3.16,3.16,0,0,0-.56-2.12,1.61,1.61,0,0,0-.76-.49,3.77,3.77,0,0,0-.8-.19q-.32,0-.32-.09,0-1,.15-1a47,47,0,0,0,5.33-1.08l.08-.05.1,0h.08c.09,0,.17.08.24.23a1,1,0,0,1,.11.36,11.38,11.38,0,0,0-.12,1.2c0,.09,0,.14,0,.17a.49.49,0,0,0,.16-.1,7.33,7.33,0,0,1,2-1.43A5.82,5.82,0,0,1,328.09,149.68Z"/><path class="cls-1" d="M344.43,149.36a5.72,5.72,0,0,1,2.43.43q.16,0,.16-.53l0-3.12a11.66,11.66,0,0,0-.23-2.25q-.18-.53-1.73-.5h-.27c-.13,0-.2-.17-.21-.53s.06-.53.19-.53c.66-.08,1.31-.18,1.94-.3s1.15-.24,1.55-.36.76-.23,1.06-.35l.68-.26.26-.09h.07a.36.36,0,0,1,.27.18.61.61,0,0,1,.14.35,12.64,12.64,0,0,0-.28,3.13l.23,14.61a12.13,12.13,0,0,0,.24,2.45.49.49,0,0,0,.34.36,2,2,0,0,0,.63.16l.63,0h.33a.68.68,0,0,1,.07.4q0,.66-.19.67-.47,0-1.18.15l-1.39.24-1.29.25-1.37.3c-.13,0-.2-.19-.21-.56v-.56a.15.15,0,0,0-.05-.13s-.06,0-.08,0a5.54,5.54,0,0,1-3.43,1.28,6.43,6.43,0,0,1-4.71-1.9,6.7,6.7,0,0,1-2.07-4.93,7.79,7.79,0,0,1,2.19-5.66A7.27,7.27,0,0,1,344.43,149.36Zm-.27,1.6a2.91,2.91,0,0,0-2.63,1.54,7.76,7.76,0,0,0-.83,4,8,8,0,0,0,1.1,4.38,3.26,3.26,0,0,0,2.91,1.53,2.76,2.76,0,0,0,1.82-.61,1.84,1.84,0,0,0,.67-1.49l-.11-7a2.24,2.24,0,0,0-.13-.7,3.14,3.14,0,0,0-.41-.77,2.12,2.12,0,0,0-.91-.68A3.53,3.53,0,0,0,344.16,151Z"/><path class="cls-1" d="M361.37,149.17a6.16,6.16,0,0,1,2.8.57,5.27,5.27,0,0,1,1.95,1.53,7.72,7.72,0,0,1,1.09,1.94,5.73,5.73,0,0,1,.4,1.94c0,.49-.07.79-.24.92a1.88,1.88,0,0,1-1,.2l-7.93.12c-.16,0-.23.07-.23.2a6.45,6.45,0,0,0,.47,2.32,4.57,4.57,0,0,0,1.51,1.94,3.9,3.9,0,0,0,2.52.79,9.11,9.11,0,0,0,1-.06,4.93,4.93,0,0,0,.86-.18l.69-.23a2.83,2.83,0,0,0,.61-.31l.45-.29.66-.46a.54.54,0,0,1,.17.2.66.66,0,0,1,.1.33,1,1,0,0,1-.19.63,5.41,5.41,0,0,1-1.93,1.82,6.15,6.15,0,0,1-3.27.95,6.72,6.72,0,0,1-5-2.06,7.16,7.16,0,0,1-2.17-5.16,7.68,7.68,0,0,1,1.86-5.47A6.44,6.44,0,0,1,361.37,149.17Zm-.21,1.53a2.34,2.34,0,0,0-1.42.49,3.12,3.12,0,0,0-.95,1.14,6.46,6.46,0,0,0-.46,1.25,4.07,4.07,0,0,0-.13,1c0,.16.07.23.2.23l5.38-.08c.2,0,.3-.17.29-.5a4.31,4.31,0,0,0-.82-2.34A2.38,2.38,0,0,0,361.17,150.7Z"/><path class="cls-1" d="M379.11,148.89a3.31,3.31,0,0,1,2.74,1.05q0,2.82-1.55,2.85a2,2,0,0,1-1.3-.64,2.08,2.08,0,0,0-1.44-.64,1.78,1.78,0,0,0-1.59,1.07,4.42,4.42,0,0,0-.55,2.18l.06,4.15a13.86,13.86,0,0,0,.28,3q.07.23.89.47a4.7,4.7,0,0,0,1.12.23c.07,0,.11.16.12.48a3.56,3.56,0,0,1,0,.65l-1.76-.11q-1.5-.08-2.26-.06t-2.3.14l-1.78.16a1,1,0,0,1-.14-.63c0-.33,0-.5.13-.5a4.64,4.64,0,0,0,1.21-.27q.81-.26.87-.49a10.79,10.79,0,0,0,.2-2.43l-.08-5.41a3.16,3.16,0,0,0-.56-2.12,1.61,1.61,0,0,0-.76-.49,3.77,3.77,0,0,0-.8-.19q-.32,0-.32-.09,0-1,.15-1a47.06,47.06,0,0,0,5.33-1.08l.27-.07c.09,0,.17.08.24.23a.79.79,0,0,1,.09.38l0,.47c0,.21,0,.43-.07.67s0,.38,0,.45a6.1,6.1,0,0,1,1.6-1.64A3.64,3.64,0,0,1,379.11,148.89Z"/><path class="cls-1" d="M400.34,148.59a6.72,6.72,0,0,1,3.8,1,7,7,0,0,1,3.34,5.86,7.77,7.77,0,0,1-7.68,8,7.72,7.72,0,0,1-2.37-.43c-.09,0-.13.16-.12.47l0,2.26a12,12,0,0,0,.31,3q0,.26.89.5a5.1,5.1,0,0,0,1.15.23c.07,0,.11.16.12.48a2.9,2.9,0,0,1,0,.61l-1.78-.07q-1.55-.08-2.28-.06t-2.34.14l-1.77.13a1.17,1.17,0,0,1-.11-.61c0-.32,0-.48.09-.48a4.66,4.66,0,0,0,1.21-.27q.81-.26.9-.53a12.13,12.13,0,0,0,.16-2.39l-.2-12.68a3.23,3.23,0,0,0-.56-2.15,1.5,1.5,0,0,0-.74-.47,4,4,0,0,0-.8-.17c-.22,0-.33,0-.33-.09,0-.64.05-1,.18-1a25.47,25.47,0,0,0,4.93-1l.63-.18c.09,0,.14.23.14.7a1.81,1.81,0,0,1-.06.4,6.65,6.65,0,0,1,1.46-.8A4.77,4.77,0,0,1,400.34,148.59Zm-.77,1.77a2.52,2.52,0,0,0-1.77.66,2.2,2.2,0,0,0-.65,1.7l.11,6.84a2,2,0,0,0,.92,1.73,3.22,3.22,0,0,0,1.94.62,3.12,3.12,0,0,0,2.55-1.43,6.42,6.42,0,0,0,1-3.93,8.59,8.59,0,0,0-1.13-4.45A3.27,3.27,0,0,0,399.57,150.36Z"/><path class="cls-1" d="M416.35,148.31a6.16,6.16,0,0,1,2.8.57,5.24,5.24,0,0,1,1.95,1.53,7.72,7.72,0,0,1,1.09,1.94,5.73,5.73,0,0,1,.4,1.94c0,.49-.07.79-.24.92a1.88,1.88,0,0,1-1,.2l-7.93.12c-.16,0-.23.07-.23.2a6.45,6.45,0,0,0,.47,2.32,4.57,4.57,0,0,0,1.51,1.94,3.9,3.9,0,0,0,2.52.79,9.11,9.11,0,0,0,1-.06,4.91,4.91,0,0,0,.86-.18l.7-.23a2.88,2.88,0,0,0,.61-.31l.44-.29.66-.46a.54.54,0,0,1,.17.2.66.66,0,0,1,.1.33,1,1,0,0,1-.19.63,5.4,5.4,0,0,1-1.93,1.82,6.16,6.16,0,0,1-3.27.95,6.72,6.72,0,0,1-5-2.06,7.15,7.15,0,0,1-2.17-5.16,7.68,7.68,0,0,1,1.86-5.47A6.44,6.44,0,0,1,416.35,148.31Zm-.21,1.53a2.34,2.34,0,0,0-1.42.49,3.12,3.12,0,0,0-.95,1.14,6.46,6.46,0,0,0-.46,1.25,4.07,4.07,0,0,0-.13,1c0,.16.07.23.2.23l5.38-.08c.2,0,.3-.17.29-.5a4.31,4.31,0,0,0-.82-2.34A2.38,2.38,0,0,0,416.14,149.84Z"/><path class="cls-1" d="M431.86,148.07a7.32,7.32,0,0,1,5.36,2.09,7.11,7.11,0,0,1,2.29,5.23,7.57,7.57,0,1,1-7.65-7.32Zm-.41,1.57a2.68,2.68,0,0,0-2.4,1.55,7.16,7.16,0,0,0-.81,3.62,9.7,9.7,0,0,0,1.15,4.66,3.31,3.31,0,0,0,3,1.95,2.71,2.71,0,0,0,2.42-1.57,7.06,7.06,0,0,0,.82-3.6,11.39,11.39,0,0,0-.48-3.2,5.87,5.87,0,0,0-1.43-2.45A3.08,3.08,0,0,0,431.45,149.64Z"/><path class="cls-1" d="M450.59,147.81a6.72,6.72,0,0,1,3.8,1,7,7,0,0,1,3.35,5.86,7.77,7.77,0,0,1-7.68,8,7.72,7.72,0,0,1-2.37-.43c-.09,0-.13.16-.12.47l0,2.26a12,12,0,0,0,.31,3q0,.26.89.5a5.08,5.08,0,0,0,1.15.23c.07,0,.11.16.12.48a2.9,2.9,0,0,1,0,.61l-1.78-.07q-1.55-.08-2.28-.06t-2.34.14q-1.51.12-1.77.13a1.17,1.17,0,0,1-.11-.61c0-.32,0-.48.09-.48a4.65,4.65,0,0,0,1.21-.27q.81-.26.9-.53a12.13,12.13,0,0,0,.16-2.39L444,153a3.23,3.23,0,0,0-.56-2.15,1.5,1.5,0,0,0-.74-.47,4,4,0,0,0-.8-.17c-.22,0-.33,0-.33-.09,0-.64.05-1,.18-1a25.5,25.5,0,0,0,4.93-1l.63-.18c.09,0,.14.23.14.69a1.81,1.81,0,0,1-.06.4,6.65,6.65,0,0,1,1.46-.8A4.77,4.77,0,0,1,450.59,147.81Zm-.77,1.77a2.51,2.51,0,0,0-1.77.66,2.2,2.2,0,0,0-.65,1.7l.11,6.84a2,2,0,0,0,.92,1.73,3.22,3.22,0,0,0,1.94.62,3.12,3.12,0,0,0,2.55-1.43,6.42,6.42,0,0,0,1-3.93,8.58,8.58,0,0,0-1.13-4.45A3.27,3.27,0,0,0,449.83,149.58Z"/><path class="cls-1" d="M465.73,157.44a13.54,13.54,0,0,0,.28,3c0,.15.32.32.82.5a3.64,3.64,0,0,0,1,.27q.1,0,.12.46a1.85,1.85,0,0,1,0,.63l-1.25-.06-1.41-.06q-.63,0-1.2,0c-.42,0-.84,0-1.26.05l-1.39.1-1.26.1a1,1,0,0,1-.14-.61c0-.32,0-.48.13-.48a3.57,3.57,0,0,0,1.11-.3q.74-.29.8-.53a11,11,0,0,0,.23-2.46l-.21-13.81a11.67,11.67,0,0,0-.23-2.25c-.12-.35-.67-.52-1.67-.51h-.33q-.2,0-.21-.4c0-.35.06-.53.19-.53q1-.12,2-.3c.62-.12,1.13-.24,1.54-.36s.76-.23,1.06-.33l.71-.26.23-.1h.07c.09,0,.19.06.29.19a1,1,0,0,1,.19.33,10.44,10.44,0,0,0-.35,3.13Z"/><path class="cls-1" d="M476.74,147.37a6.16,6.16,0,0,1,2.8.57,5.26,5.26,0,0,1,1.95,1.53,7.72,7.72,0,0,1,1.09,1.94,5.73,5.73,0,0,1,.4,1.94c0,.49-.07.79-.24.92a1.88,1.88,0,0,1-1,.2l-7.93.12c-.16,0-.23.07-.23.2a6.45,6.45,0,0,0,.47,2.32,4.57,4.57,0,0,0,1.51,1.94,3.91,3.91,0,0,0,2.52.79,9.07,9.07,0,0,0,1-.06,5,5,0,0,0,.86-.18l.69-.23a2.83,2.83,0,0,0,.61-.31l.45-.29.66-.46a.54.54,0,0,1,.17.2.66.66,0,0,1,.1.33,1,1,0,0,1-.19.63,5.41,5.41,0,0,1-1.93,1.82,6.16,6.16,0,0,1-3.27.95,6.72,6.72,0,0,1-5-2.06A7.16,7.16,0,0,1,470,155a7.68,7.68,0,0,1,1.86-5.47A6.44,6.44,0,0,1,476.74,147.37Zm-.21,1.53a2.34,2.34,0,0,0-1.42.49,3.12,3.12,0,0,0-.95,1.14,6.46,6.46,0,0,0-.46,1.25,4.07,4.07,0,0,0-.13,1c0,.16.07.23.2.23l5.38-.08c.2,0,.29-.17.29-.5a4.31,4.31,0,0,0-.82-2.34A2.38,2.38,0,0,0,476.53,148.9Z"/><path class="cls-1" d="M8,220.44q2.2.44,3.61.67t3.65.51l3.59.47a11,11,0,0,0,2.31,0l-.2,5.12a1.28,1.28,0,0,1-.92.08c-.17,0-.27-.1-.3-.22a4.79,4.79,0,0,0-.81-2.64,3.65,3.65,0,0,0-2.25-1q-3-.5-3.27,0a11.6,11.6,0,0,0-.8,3l-1.93,11.83a11.29,11.29,0,0,0-.17,2.9q0,.23.81.62a5.26,5.26,0,0,0,1.11.43c.09,0,.1.22,0,.61a1.76,1.76,0,0,1-.15.51l-1.25-.3-1.52-.35q-.7-.15-1.36-.25-.88-.15-2.46-.3L3.78,242a.77.77,0,0,1,0-.55c.06-.39.14-.58.23-.57a5.27,5.27,0,0,0,1.27,0c.58-.06.92-.17,1-.34a10.48,10.48,0,0,0,.71-2.68L8.88,226a9.12,9.12,0,0,0,.22-3.23q-.17-.6-3-1.07a3.65,3.65,0,0,0-2.46.25A4.92,4.92,0,0,0,2,224.18c0,.13-.16.18-.36.14a1.11,1.11,0,0,1-.81-.4L2.25,219a11,11,0,0,0,2.21.7Z"/><path class="cls-1" d="M29.31,231.2A6.15,6.15,0,0,1,32,232.26a5.26,5.26,0,0,1,1.65,1.85,7.74,7.74,0,0,1,.73,2.1,5.74,5.74,0,0,1,0,2q-.12.72-.39.86a1.89,1.89,0,0,1-1,0l-7.83-1.28c-.15,0-.24,0-.26.16a6.46,6.46,0,0,0,.05,2.36,4.56,4.56,0,0,0,1.14,2.17,3.91,3.91,0,0,0,2.34,1.22,8.91,8.91,0,0,0,1,.11,5,5,0,0,0,.88,0l.72-.1a2.85,2.85,0,0,0,.65-.2l.49-.21.73-.34a.56.56,0,0,1,.13.22.63.63,0,0,1,0,.34,1,1,0,0,1-.3.59,5.42,5.42,0,0,1-2.22,1.45,6.16,6.16,0,0,1-3.39.35A6.72,6.72,0,0,1,22.54,243a7.16,7.16,0,0,1-1.23-5.47,7.68,7.68,0,0,1,2.79-5.06A6.43,6.43,0,0,1,29.31,231.2Zm-.48,1.47a2.35,2.35,0,0,0-1.48.23,3.13,3.13,0,0,0-1.13,1,6.4,6.4,0,0,0-.68,1.15,4.09,4.09,0,0,0-.3.94c0,.15,0,.24.16.26l5.31.87c.2,0,.32-.12.38-.44a4.32,4.32,0,0,0-.39-2.45A2.38,2.38,0,0,0,28.83,232.67Z"/><path class="cls-1" d="M41.32,243.19a13.62,13.62,0,0,0-.25,3c0,.16.26.37.72.64a3.6,3.6,0,0,0,1,.44c.07,0,.08.17,0,.48a1.85,1.85,0,0,1-.15.61l-1.22-.28L40,247.75c-.41-.09-.8-.17-1.17-.23s-.83-.12-1.25-.17l-1.39-.14L35,247.09a.93.93,0,0,1,0-.63q.08-.47.21-.45a3.56,3.56,0,0,0,1.14-.1q.78-.16.89-.38a11,11,0,0,0,.66-2.38l2.23-13.63a11.53,11.53,0,0,0,.17-2.26q-.08-.55-1.55-.79l-.33-.05q-.2,0-.13-.43c.06-.35.15-.51.28-.49q1,.07,2,.05t1.58-.08c.42,0,.79-.09,1.1-.14l.74-.13.25-.06h.07c.09,0,.17.1.25.24a1,1,0,0,1,.13.36,10.46,10.46,0,0,0-.9,3Z"/><path class="cls-1" d="M51.32,244.82a13.56,13.56,0,0,0-.25,3q0,.24.72.64a3.64,3.64,0,0,0,1,.44q.1,0,0,.48a1.85,1.85,0,0,1-.15.61l-1.22-.28L50,249.39q-.62-.13-1.17-.23c-.42-.07-.83-.12-1.25-.17l-1.39-.14L45,248.73a.93.93,0,0,1,0-.63c.05-.32.12-.47.21-.45a3.54,3.54,0,0,0,1.14-.1q.78-.16.89-.38a11,11,0,0,0,.66-2.38l2.23-13.63a11.45,11.45,0,0,0,.17-2.26q-.08-.55-1.55-.79l-.33-.05q-.2,0-.13-.43c.06-.35.15-.51.28-.49q1,.07,2,.05t1.58-.08q.63-.07,1.1-.14l.74-.13.25-.06h.07c.09,0,.17.09.25.24a1,1,0,0,1,.13.36,10.48,10.48,0,0,0-.9,3Z"/><path class="cls-1" d="M64.65,233.17a4.46,4.46,0,0,1,.62-1.63,5,5,0,0,1,1.06-1.26,8.93,8.93,0,0,1,1.2-.83,7.07,7.07,0,0,1,1-.51,1.53,1.53,0,0,1,.51-.14,1,1,0,0,1,.47.31,1.15,1.15,0,0,1,.33.56,5.37,5.37,0,0,0-1.64,1,4.31,4.31,0,0,0-.88,1,1.39,1.39,0,0,0,.23,1.89,2.09,2.09,0,0,1,.48,1.31,1.23,1.23,0,0,1-.82.91,2.68,2.68,0,0,1-1.54.19,2.13,2.13,0,0,1-.91-.38A4.22,4.22,0,0,1,64.65,233.17Z"/><path class="cls-1" d="M76.7,238.94A6.17,6.17,0,0,1,79.35,240,5.26,5.26,0,0,1,81,241.84a7.75,7.75,0,0,1,.73,2.1,5.77,5.77,0,0,1,0,2q-.12.72-.39.86a1.88,1.88,0,0,1-1,0l-7.83-1.28c-.15,0-.24,0-.26.16a6.46,6.46,0,0,0,.05,2.36,4.56,4.56,0,0,0,1.14,2.17,3.91,3.91,0,0,0,2.34,1.22,9.16,9.16,0,0,0,1,.11,4.92,4.92,0,0,0,.88,0l.72-.1a2.86,2.86,0,0,0,.65-.2l.49-.21.73-.34a.56.56,0,0,1,.13.22.64.64,0,0,1,0,.34,1,1,0,0,1-.3.59,5.41,5.41,0,0,1-2.22,1.45,6.17,6.17,0,0,1-3.39.35,6.72,6.72,0,0,1-4.57-2.92,7.16,7.16,0,0,1-1.23-5.47,7.68,7.68,0,0,1,2.79-5.06A6.44,6.44,0,0,1,76.7,238.94Zm-.48,1.47a2.34,2.34,0,0,0-1.48.23,3.13,3.13,0,0,0-1.13,1,6.31,6.31,0,0,0-.68,1.15,4,4,0,0,0-.3.94c0,.15,0,.24.16.26l5.31.87c.2,0,.32-.12.38-.44a4.32,4.32,0,0,0-.39-2.45A2.38,2.38,0,0,0,76.22,240.41Z"/><path class="cls-1" d="M95.32,242a3.59,3.59,0,0,1,2,1,3.87,3.87,0,0,1,1,1.87,7.82,7.82,0,0,1,2.66-1.25,7.46,7.46,0,0,1,3.19-.15,3.76,3.76,0,0,1,1.93.85,3.65,3.65,0,0,1,1.07,1.67,7.82,7.82,0,0,1,.36,2.14,12.68,12.68,0,0,1-.18,2.41l-.56,3.44a13.87,13.87,0,0,0-.25,3q0,.24.81.62a4.89,4.89,0,0,0,1.07.43q.1,0,0,.49a1.88,1.88,0,0,1-.15.63q-.22-.07-1.7-.41t-2.23-.46q-.79-.13-2.26-.27l-1.77-.16a1.24,1.24,0,0,1,0-.64q.08-.49.18-.48a4.48,4.48,0,0,0,1.22-.05c.55-.08.86-.19.93-.34a10.43,10.43,0,0,0,.6-2.26l.54-3.34q.78-4.75-2.27-5.25a3,3,0,0,0-1.89.23,2.08,2.08,0,0,0-1,.88q0,.1-.06.26a.62.62,0,0,0,0,.26,16.4,16.4,0,0,1-.23,2l-.57,3.47a13.06,13.06,0,0,0-.23,2.86q0,.24.81.62a4.89,4.89,0,0,0,1.07.43c.07,0,.08.18,0,.49a1.9,1.9,0,0,1-.15.63q-.22-.07-1.7-.41t-2.23-.46q-.79-.13-2.26-.27l-1.78-.16a1.25,1.25,0,0,1,0-.64c.05-.33.11-.49.18-.48a4.46,4.46,0,0,0,1.22-.05c.55-.08.86-.19.93-.34a10.84,10.84,0,0,0,.62-2.35l.51-3.15a7,7,0,0,0-.15-3.83,2.53,2.53,0,0,0-2-1.51,3.18,3.18,0,0,0-1.89.26,1.56,1.56,0,0,0-1,1.11L88.83,251a12.17,12.17,0,0,0-.22,3c0,.16.28.36.77.61a4.49,4.49,0,0,0,1,.42c.09,0,.11.18.07.5a1.91,1.91,0,0,1-.15.63l-1.7-.41q-1.44-.34-2.2-.46T84.14,255l-1.76-.15a1,1,0,0,1,0-.64q.08-.49.21-.47a4.79,4.79,0,0,0,1.22-.05q.86-.11,1-.33a10.9,10.9,0,0,0,.62-2.35l.87-5.34a3.16,3.16,0,0,0-.18-2.18,1.61,1.61,0,0,0-.66-.61,3.79,3.79,0,0,0-.77-.33c-.22-.06-.32-.11-.31-.15q.16-.95.36-1a46,46,0,0,0,5.4-.13.21.21,0,0,1,.11,0h.17c.11,0,.18.11.22.27a.61.61,0,0,1,0,.37,11.2,11.2,0,0,0-.32,1.16c0,.09,0,.15,0,.17a.5.5,0,0,0,.18-.07,7.37,7.37,0,0,1,2.24-1A5.81,5.81,0,0,1,95.32,242Z"/><path class="cls-1" d="M130.5,247.72q4.23.69,3.13,7.41l-.51,3.11a13.88,13.88,0,0,0-.25,3q0,.24.82.62a5.08,5.08,0,0,0,1.09.43c.07,0,.08.18,0,.49a1.88,1.88,0,0,1-.15.63q-.19-.07-1.7-.41t-2.26-.47q-.79-.13-2.2-.26l-1.71-.14a1,1,0,0,1,0-.64c.05-.33.12-.48.21-.47a3.94,3.94,0,0,0,1.14-.07c.52-.08.81-.2.88-.34a9.51,9.51,0,0,0,.65-2.35l.51-3.11a7.2,7.2,0,0,0-.12-3.92,2.67,2.67,0,0,0-2.17-1.46,3.08,3.08,0,0,0-1.93.27,1.6,1.6,0,0,0-1,1.1l-.92,5.64a13.87,13.87,0,0,0-.25,3q0,.24.79.62a4.78,4.78,0,0,0,1,.42q.13,0,.07.5a1.88,1.88,0,0,1-.15.63l-1.7-.41q-1.44-.34-2.2-.46t-2.29-.27l-1.78-.16a1,1,0,0,1,0-.64q.08-.49.21-.47a4.61,4.61,0,0,0,1.24-.05c.56-.08.88-.19.95-.33a10.84,10.84,0,0,0,.62-2.35l.87-5.34a3.15,3.15,0,0,0-.18-2.18,1.6,1.6,0,0,0-.66-.61,3.83,3.83,0,0,0-.75-.33c-.21-.06-.3-.1-.3-.15q.16-.95.33-1a47.15,47.15,0,0,0,5.44-.12l.09,0h.18c.09,0,.15.1.19.27a1,1,0,0,1,0,.38,11.31,11.31,0,0,0-.32,1.16c0,.09,0,.14,0,.17a.49.49,0,0,0,.18-.07,7.34,7.34,0,0,1,2.24-1A5.82,5.82,0,0,1,130.5,247.72Z"/><path class="cls-1" d="M146.66,250.36a7.32,7.32,0,0,1,4.91,3,7.12,7.12,0,0,1,1.33,5.55,7.52,7.52,0,0,1-14.84-2.42,7.15,7.15,0,0,1,3-4.86A7.27,7.27,0,0,1,146.66,250.36Zm-.68,1.47a2.68,2.68,0,0,0-2.64,1.1,7.14,7.14,0,0,0-1.43,3.42,9.68,9.68,0,0,0,.31,4.79,3.31,3.31,0,0,0,2.64,2.45,2.71,2.71,0,0,0,2.66-1.11,7.07,7.07,0,0,0,1.45-3.4,11.43,11.43,0,0,0,.09-3.23,5.87,5.87,0,0,0-1-2.67A3.08,3.08,0,0,0,146,251.83Z"/><path class="cls-1" d="M170.27,254.22a4.08,4.08,0,0,1,2.87,1.56,5.32,5.32,0,0,1,.42,3.82l-1.05,6.46a1.51,1.51,0,0,0,.13,1,1,1,0,0,0,.73.47,2.07,2.07,0,0,0,1.18-.24c.12.07.17.2.14.39a2,2,0,0,1-.36,1,8.22,8.22,0,0,1-1.44.6,3.46,3.46,0,0,1-1.64.17,2.42,2.42,0,0,1-1.38-.8,2.72,2.72,0,0,1-.75-1.37l-.28.17c-.16.1-.38.21-.66.35a9.68,9.68,0,0,1-.94.39,5.31,5.31,0,0,1-1.19.26,4.84,4.84,0,0,1-1.32,0,4,4,0,0,1-2.52-1.34,3.16,3.16,0,0,1-.63-2.64,3.06,3.06,0,0,1,.62-1.41,3.93,3.93,0,0,1,1.08-1,6.81,6.81,0,0,1,1.55-.64,13.57,13.57,0,0,1,1.63-.39l1.72-.24,1.46-.2a.52.52,0,0,0,.38-.48l.29-1.8a2.85,2.85,0,0,0-.23-1.89,1.74,1.74,0,0,0-1.3-.89,2,2,0,0,0-1.64.35,2.48,2.48,0,0,0-.84,1.63,1.08,1.08,0,0,1-.65.89,2.06,2.06,0,0,1-1.17.13,1.87,1.87,0,0,1-1.58-1.06q.26-1.57,2.63-2.6A8.33,8.33,0,0,1,170.27,254.22Zm-3.53,12.34a2.57,2.57,0,0,0,1.6-.21,1.31,1.31,0,0,0,.81-.94l.55-3.34q-.25.06-1,.17t-1.2.21a9.19,9.19,0,0,0-1,.31,2,2,0,0,0-.89.6,1.82,1.82,0,0,0-.4.88,2,2,0,0,0,.27,1.63A1.91,1.91,0,0,0,166.74,266.56Z"/><path class="cls-1" d="M189.25,257.32q4.23.69,3.13,7.41l-.51,3.11a13.87,13.87,0,0,0-.25,3c0,.16.29.37.82.62a5.07,5.07,0,0,0,1.09.43c.07,0,.08.18,0,.49a1.91,1.91,0,0,1-.15.63q-.19-.07-1.7-.41t-2.26-.47q-.79-.13-2.2-.26l-1.71-.14a1,1,0,0,1,0-.64c.05-.33.12-.48.21-.47a4,4,0,0,0,1.14-.07c.52-.08.81-.2.88-.34a9.55,9.55,0,0,0,.65-2.35l.51-3.11a7.2,7.2,0,0,0-.12-3.92,2.67,2.67,0,0,0-2.17-1.46,3.07,3.07,0,0,0-1.93.27,1.6,1.6,0,0,0-1,1.1l-.92,5.64a13.87,13.87,0,0,0-.25,3q0,.24.79.62a4.76,4.76,0,0,0,1,.42q.13,0,.07.5a1.91,1.91,0,0,1-.15.63l-1.7-.41q-1.44-.34-2.2-.46t-2.29-.27l-1.77-.16a1,1,0,0,1,0-.64q.08-.49.21-.47a4.64,4.64,0,0,0,1.24-.05c.56-.08.88-.19.95-.33a10.84,10.84,0,0,0,.62-2.35l.87-5.34a3.16,3.16,0,0,0-.18-2.18,1.61,1.61,0,0,0-.66-.61,3.82,3.82,0,0,0-.75-.32c-.21-.06-.3-.1-.29-.15q.16-.95.32-1a47.11,47.11,0,0,0,5.44-.12l.09,0h.18c.09,0,.15.1.19.27a1,1,0,0,1,0,.38,11.21,11.21,0,0,0-.32,1.16c0,.09,0,.14,0,.17a.5.5,0,0,0,.18-.07,7.36,7.36,0,0,1,2.24-1A5.81,5.81,0,0,1,189.25,257.32Z"/><path class="cls-1" d="M205.39,259.89a5.71,5.71,0,0,1,2.32.85q.16,0,.25-.5l.5-3.08a11.53,11.53,0,0,0,.17-2.26q-.08-.55-1.62-.8l-.26,0q-.2,0-.11-.56c.06-.35.15-.51.28-.49q1,.06,2,.05c.64,0,1.17,0,1.59-.08s.79-.1,1.1-.16l.71-.14.28,0h.07c.09,0,.16.09.23.22a.61.61,0,0,1,.07.37,12.74,12.74,0,0,0-.83,3l-2.35,14.42a12.17,12.17,0,0,0-.2,2.46.49.49,0,0,0,.27.41,2,2,0,0,0,.6.27l.62.15.32.07a.68.68,0,0,1,0,.4q-.11.66-.3.62c-.31,0-.7,0-1.18-.06h-1.41l-1.32,0-1.41.06c-.13,0-.17-.22-.11-.59l.09-.56a.15.15,0,0,0,0-.14s-.06,0-.08,0a5.54,5.54,0,0,1-3.61.66,6.43,6.43,0,0,1-4.3-2.7,6.7,6.7,0,0,1-1.17-5.22,7.78,7.78,0,0,1,3.15-5.19A7.27,7.27,0,0,1,205.39,259.89Zm-.55,1.52a2.91,2.91,0,0,0-2.86,1,7.78,7.78,0,0,0-1.53,3.82,8,8,0,0,0,.31,4.51,3.26,3.26,0,0,0,2.6,2,2.76,2.76,0,0,0,1.9-.28,1.84,1.84,0,0,0,.93-1.35l1.12-6.88a2.29,2.29,0,0,0,0-.71,3.12,3.12,0,0,0-.27-.83,2.12,2.12,0,0,0-.77-.83A3.52,3.52,0,0,0,204.84,261.41Z"/><path class="cls-1" d="M227.91,263.6a14.12,14.12,0,0,1,3.71,1.18,18.93,18.93,0,0,1-.24,3.73c0,.18-.19.24-.47.19-.48-.08-.73-.21-.74-.39a4,4,0,0,0-.65-2.11,2.59,2.59,0,0,0-1.85-1.13,2.38,2.38,0,0,0-1.56.18,1.47,1.47,0,0,0-.74,1.12,1.94,1.94,0,0,0,0,.86,2.08,2.08,0,0,0,.47.8,8.11,8.11,0,0,0,.64.64q.28.25.85.68a2.1,2.1,0,0,0,.3.22l.45.34.49.38.47.4a5.89,5.89,0,0,1,.51.47l.44.48a2.66,2.66,0,0,1,.42.54l.31.57a2.17,2.17,0,0,1,.25.65,6.39,6.39,0,0,1,.08.65,3.06,3.06,0,0,1,0,.72,3.91,3.91,0,0,1-2.12,3,6.3,6.3,0,0,1-4,.57,11.08,11.08,0,0,1-4.08-1.61,13.13,13.13,0,0,1,0-1.87,15.84,15.84,0,0,1,.14-1.91.7.7,0,0,1,.49-.09c.5.08.75.21.74.39a3.67,3.67,0,0,0,.93,2.42,3.54,3.54,0,0,0,2.11,1.2,2.41,2.41,0,0,0,1.58-.21,1.61,1.61,0,0,0,.81-1.25,2.22,2.22,0,0,0,0-.62,1.63,1.63,0,0,0-.22-.61l-.3-.52a2.4,2.4,0,0,0-.52-.54l-.59-.48-.75-.56-.76-.58a7.7,7.7,0,0,1-2-2.13,3.84,3.84,0,0,1,1.64-5.3A6.4,6.4,0,0,1,227.91,263.6Z"/><path class="cls-1" d="M241.61,265.87a6.16,6.16,0,0,1,2.65,1.06,5.26,5.26,0,0,1,1.65,1.85,7.74,7.74,0,0,1,.73,2.1,5.74,5.74,0,0,1,0,2q-.12.72-.39.86a1.89,1.89,0,0,1-1,0l-7.83-1.28c-.15,0-.24,0-.26.16a6.44,6.44,0,0,0,.05,2.36,4.55,4.55,0,0,0,1.14,2.17,3.9,3.9,0,0,0,2.34,1.22,9.22,9.22,0,0,0,1,.11,4.94,4.94,0,0,0,.88,0l.72-.1a2.85,2.85,0,0,0,.65-.2l.49-.21.73-.34a.55.55,0,0,1,.13.22.64.64,0,0,1,0,.34,1,1,0,0,1-.3.59,5.41,5.41,0,0,1-2.22,1.45,6.17,6.17,0,0,1-3.39.35,6.72,6.72,0,0,1-4.57-2.92,7.16,7.16,0,0,1-1.23-5.47,7.69,7.69,0,0,1,2.79-5.06A6.44,6.44,0,0,1,241.61,265.87Zm-.48,1.47a2.34,2.34,0,0,0-1.48.23,3.13,3.13,0,0,0-1.13,1,6.36,6.36,0,0,0-.68,1.15,4,4,0,0,0-.3.94c0,.15,0,.24.16.26l5.31.87q.3,0,.38-.44a4.32,4.32,0,0,0-.39-2.45A2.38,2.38,0,0,0,241.14,267.34Z"/><path class="cls-1" d="M260.24,268.91q4.23.69,3.13,7.41l-.51,3.11a13.88,13.88,0,0,0-.25,3c0,.16.29.37.82.62a5.1,5.1,0,0,0,1.09.43c.07,0,.08.18,0,.49a1.91,1.91,0,0,1-.15.63q-.19-.07-1.7-.41t-2.26-.47q-.79-.13-2.19-.26l-1.71-.14a1,1,0,0,1,0-.64q.08-.49.21-.47a3.94,3.94,0,0,0,1.14-.07c.52-.08.81-.2.88-.34a9.55,9.55,0,0,0,.65-2.35l.51-3.11a7.19,7.19,0,0,0-.12-3.92,2.67,2.67,0,0,0-2.17-1.46,3.07,3.07,0,0,0-1.93.27,1.59,1.59,0,0,0-1,1.1l-.92,5.64a14,14,0,0,0-.25,3q0,.24.79.62a4.77,4.77,0,0,0,1,.42c.09,0,.11.18.07.5a1.91,1.91,0,0,1-.15.63l-1.7-.41q-1.44-.34-2.2-.46t-2.29-.27l-1.77-.16a1,1,0,0,1,0-.64c.05-.33.12-.48.21-.47a4.64,4.64,0,0,0,1.24-.05q.84-.11.95-.33a10.84,10.84,0,0,0,.62-2.35l.87-5.34a3.16,3.16,0,0,0-.18-2.18,1.61,1.61,0,0,0-.66-.61,3.85,3.85,0,0,0-.75-.33c-.21-.06-.3-.1-.3-.15.1-.63.21-1,.33-1a47,47,0,0,0,5.44-.12l.09,0h.18c.09,0,.15.1.19.27a1,1,0,0,1,0,.38,11.24,11.24,0,0,0-.32,1.16.26.26,0,0,0,0,.17.5.5,0,0,0,.18-.07,7.36,7.36,0,0,1,2.24-1A5.81,5.81,0,0,1,260.24,268.91Z"/><path class="cls-1" d="M276.38,271.48a5.72,5.72,0,0,1,2.32.85q.16,0,.25-.5l.5-3.08a11.53,11.53,0,0,0,.17-2.26q-.08-.55-1.62-.8l-.26,0q-.2,0-.11-.56t.28-.49q1,.06,2,.05c.64,0,1.17,0,1.59-.08s.79-.09,1.1-.16l.71-.14.28,0h.07c.09,0,.17.09.23.22a.61.61,0,0,1,.08.37,12.73,12.73,0,0,0-.83,3l-2.35,14.42a12.17,12.17,0,0,0-.2,2.46.49.49,0,0,0,.27.41,2,2,0,0,0,.6.27l.61.15.33.07a.69.69,0,0,1,0,.4c-.07.44-.17.64-.3.62q-.46,0-1.18-.06h-1.41l-1.32,0-1.41.06q-.2,0-.11-.59l.09-.56a.15.15,0,0,0,0-.14s-.06,0-.08,0A5.54,5.54,0,0,1,273,286a6.43,6.43,0,0,1-4.3-2.7,6.7,6.7,0,0,1-1.17-5.22,7.78,7.78,0,0,1,3.15-5.19A7.27,7.27,0,0,1,276.38,271.48Zm-.55,1.52a2.91,2.91,0,0,0-2.86,1,7.78,7.78,0,0,0-1.53,3.82,8,8,0,0,0,.31,4.51,3.26,3.26,0,0,0,2.6,2,2.76,2.76,0,0,0,1.9-.28,1.84,1.84,0,0,0,.93-1.35l1.12-6.88a2.29,2.29,0,0,0,0-.71,3.09,3.09,0,0,0-.27-.83,2.12,2.12,0,0,0-.77-.83A3.52,3.52,0,0,0,275.83,273Z"/><path class="cls-1" d="M295.08,277l-2-.33q-.23,0-.09-.89a.81.81,0,0,1,.08-.29,9.28,9.28,0,0,0,2.81-1.32l1.09-.81q.59-.46,1.42-1.2a2.36,2.36,0,0,1,.61.18c.19.09.28.16.27.23l-.52,3.21,2.37.4,1.62.28q.26,0,.21.34a3.22,3.22,0,0,1-.56,1.39l-3.93-.64-1.29,7.9a3.15,3.15,0,0,0,.23,2.09,1.9,1.9,0,0,0,1.43.94,3.17,3.17,0,0,0,.7,0,3.54,3.54,0,0,0,.62-.08l.46-.13.25-.06q.13,0,.25.34a.78.78,0,0,1,.06.45,3,3,0,0,1-1.57.84,5.23,5.23,0,0,1-2.44.22,4.19,4.19,0,0,1-2.72-1.57,4.45,4.45,0,0,1-.64-3.59Z"/><path class="cls-1" d="M316.07,278q4.19.69,3.14,7.14l-.55,3.38a12.17,12.17,0,0,0-.22,3c0,.16.26.36.79.62a5.11,5.11,0,0,0,1.09.43c.07,0,.08.18,0,.49a3.62,3.62,0,0,1-.12.64q-.22-.07-1.73-.42t-2.23-.46q-.82-.13-2.23-.26l-1.74-.15a1.25,1.25,0,0,1,0-.64c.05-.33.11-.49.18-.48a4,4,0,0,0,1.17-.06c.52-.08.82-.2.91-.34a12.56,12.56,0,0,0,.59-2.36l.52-3.21a6.93,6.93,0,0,0-.12-3.87,2.72,2.72,0,0,0-2.17-1.42,3.18,3.18,0,0,0-1.89.26,1.57,1.57,0,0,0-1,1.11l-.92,5.64a12.16,12.16,0,0,0-.22,3q0,.24.79.62a4.71,4.71,0,0,0,1.06.43q.1,0,0,.49a1.88,1.88,0,0,1-.15.63l-1.7-.41q-1.44-.34-2.2-.46t-2.29-.27l-1.77-.16a1,1,0,0,1,0-.64c.05-.33.12-.48.21-.47a4.64,4.64,0,0,0,1.24-.05c.56-.08.88-.19.95-.33a10.64,10.64,0,0,0,.61-2.32l2.23-13.63a13,13,0,0,0,.2-2.25q-.08-.55-1.62-.8l-.29,0q-.2,0-.11-.56c.06-.35.15-.51.28-.49q1,.07,2,.05t1.58-.08q.63-.06,1.1-.16l1-.17h.07c.09,0,.16.09.23.22a.94.94,0,0,1,.11.37,10.7,10.7,0,0,0-.9,3l-1.08,6.62c0,.13,0,.2.1.22s.07,0,.15-.08a6.3,6.3,0,0,1,2.25-1.1A6.12,6.12,0,0,1,316.07,278Z"/><path class="cls-1" d="M331.35,280.52a6.15,6.15,0,0,1,2.65,1.06,5.25,5.25,0,0,1,1.65,1.85,7.74,7.74,0,0,1,.73,2.1,5.74,5.74,0,0,1,0,2q-.12.72-.39.86a1.89,1.89,0,0,1-1,0l-7.83-1.28c-.15,0-.24,0-.26.16a6.44,6.44,0,0,0,.05,2.36,4.56,4.56,0,0,0,1.14,2.17,3.9,3.9,0,0,0,2.34,1.22,8.93,8.93,0,0,0,1,.11,5,5,0,0,0,.88,0l.72-.1a2.83,2.83,0,0,0,.65-.2l.49-.21.73-.34a.55.55,0,0,1,.13.22.64.64,0,0,1,0,.34,1,1,0,0,1-.3.59,5.41,5.41,0,0,1-2.22,1.45,6.16,6.16,0,0,1-3.39.35,6.72,6.72,0,0,1-4.57-2.92,7.16,7.16,0,0,1-1.23-5.47,7.69,7.69,0,0,1,2.79-5.06A6.44,6.44,0,0,1,331.35,280.52Zm-.48,1.47a2.35,2.35,0,0,0-1.48.23,3.13,3.13,0,0,0-1.13,1,6.4,6.4,0,0,0-.68,1.15,4,4,0,0,0-.3.94q0,.23.16.26l5.31.87q.3,0,.38-.44a4.32,4.32,0,0,0-.39-2.45A2.38,2.38,0,0,0,330.88,282Z"/><path class="cls-1" d="M350,283.56a3.59,3.59,0,0,1,2,1,3.87,3.87,0,0,1,1,1.87,7.83,7.83,0,0,1,2.66-1.25,7.45,7.45,0,0,1,3.19-.15,3.77,3.77,0,0,1,1.93.85,3.67,3.67,0,0,1,1.07,1.67,7.83,7.83,0,0,1,.36,2.14,12.6,12.6,0,0,1-.17,2.41l-.56,3.44a14,14,0,0,0-.25,3q0,.24.81.62a4.88,4.88,0,0,0,1.07.43c.07,0,.08.18,0,.49a1.88,1.88,0,0,1-.15.63c-.15,0-.72-.18-1.7-.41s-1.73-.38-2.23-.46-1.28-.17-2.26-.27l-1.78-.16a1.25,1.25,0,0,1,0-.64c.05-.33.11-.49.18-.48a4.48,4.48,0,0,0,1.22-.05q.83-.12.93-.34a10.31,10.31,0,0,0,.6-2.26l.55-3.34q.78-4.75-2.27-5.25a3,3,0,0,0-1.89.23,2.07,2.07,0,0,0-1,.88q0,.1-.06.26a.64.64,0,0,0,0,.26,16.36,16.36,0,0,1-.23,2l-.57,3.47a13.06,13.06,0,0,0-.23,2.86q0,.24.81.62a4.87,4.87,0,0,0,1.07.43c.07,0,.08.18,0,.49a1.91,1.91,0,0,1-.15.63q-.22-.07-1.7-.41t-2.23-.46q-.79-.13-2.26-.27l-1.77-.15a1.24,1.24,0,0,1,0-.64q.08-.49.18-.48a4.46,4.46,0,0,0,1.22-.05c.55-.08.86-.19.93-.34a10.84,10.84,0,0,0,.62-2.35l.51-3.15a7,7,0,0,0-.15-3.83,2.53,2.53,0,0,0-2-1.51,3.18,3.18,0,0,0-1.89.26,1.56,1.56,0,0,0-1,1.11l-.92,5.64a12.22,12.22,0,0,0-.22,3q0,.24.77.61a4.5,4.5,0,0,0,1,.42c.09,0,.11.18.07.5a1.91,1.91,0,0,1-.15.63l-1.7-.41q-1.44-.34-2.2-.46t-2.31-.28l-1.76-.15a1,1,0,0,1,0-.64c.05-.33.12-.48.21-.47a4.79,4.79,0,0,0,1.22-.05q.86-.11,1-.33a10.84,10.84,0,0,0,.62-2.35l.87-5.34a3.16,3.16,0,0,0-.18-2.18,1.61,1.61,0,0,0-.66-.61,3.79,3.79,0,0,0-.77-.33c-.22-.06-.32-.11-.31-.15q.16-.95.36-1a45.85,45.85,0,0,0,5.4-.13.22.22,0,0,1,.11,0H345c.11,0,.18.11.22.27a.61.61,0,0,1,0,.37,11.52,11.52,0,0,0-.32,1.16c0,.09,0,.15,0,.17a.5.5,0,0,0,.18-.07,7.37,7.37,0,0,1,2.24-1A5.81,5.81,0,0,1,350,283.56Z"/><path class="cls-1" d="M381.32,288.68a4.08,4.08,0,0,1,2.87,1.56,5.31,5.31,0,0,1,.42,3.82l-1.05,6.46a1.52,1.52,0,0,0,.13,1,1,1,0,0,0,.73.47,2.08,2.08,0,0,0,1.18-.24c.12.07.17.2.14.39a2,2,0,0,1-.36,1,8.22,8.22,0,0,1-1.44.61,3.46,3.46,0,0,1-1.64.17,2.42,2.42,0,0,1-1.38-.8,2.71,2.71,0,0,1-.75-1.37l-.28.17c-.16.1-.38.21-.66.35a9.78,9.78,0,0,1-.94.39,5.28,5.28,0,0,1-1.19.26,4.83,4.83,0,0,1-1.32,0,4,4,0,0,1-2.52-1.34,3.16,3.16,0,0,1-.63-2.64,3.06,3.06,0,0,1,.62-1.41,4,4,0,0,1,1.09-1,6.81,6.81,0,0,1,1.55-.64,13.61,13.61,0,0,1,1.63-.39l1.72-.24,1.46-.2a.52.52,0,0,0,.38-.48l.29-1.8a2.85,2.85,0,0,0-.23-1.89,1.73,1.73,0,0,0-1.3-.89,2,2,0,0,0-1.64.35,2.49,2.49,0,0,0-.84,1.63,1.08,1.08,0,0,1-.65.89,2.06,2.06,0,0,1-1.17.13,1.87,1.87,0,0,1-1.58-1.06q.26-1.57,2.63-2.6A8.33,8.33,0,0,1,381.32,288.68ZM377.79,301a2.57,2.57,0,0,0,1.6-.21,1.31,1.31,0,0,0,.81-.94l.55-3.34q-.25.06-1,.17t-1.19.21a9,9,0,0,0-1,.31,2,2,0,0,0-.89.6,1.82,1.82,0,0,0-.4.88,2,2,0,0,0,.27,1.63A1.91,1.91,0,0,0,377.79,301Z"/><path class="cls-1" d="M400.87,301.9a13.56,13.56,0,0,0-.25,3c0,.16.26.37.72.64a3.62,3.62,0,0,0,1,.44q.1,0,0,.48a1.82,1.82,0,0,1-.15.61l-1.22-.28-1.38-.31c-.41-.09-.8-.17-1.17-.23s-.83-.12-1.25-.17l-1.39-.14-1.26-.12a.94.94,0,0,1,0-.63q.08-.47.21-.45a3.57,3.57,0,0,0,1.14-.1c.52-.1.82-.23.89-.38a11,11,0,0,0,.66-2.38l2.23-13.63a11.53,11.53,0,0,0,.17-2.26q-.08-.55-1.55-.79l-.33-.05q-.2,0-.13-.43t.28-.49q1,.07,2,.05t1.58-.08c.42,0,.79-.09,1.1-.14l.75-.13.25-.06h.07c.09,0,.17.1.25.24a1,1,0,0,1,.13.36,10.45,10.45,0,0,0-.9,3Z"/><path class="cls-1" d="M411,303.62a12.16,12.16,0,0,0-.22,3q0,.24.81.62a4.83,4.83,0,0,0,1.07.43c.09,0,.11.18.07.5a1.88,1.88,0,0,1-.15.63q-.22-.07-1.73-.42t-2.23-.46q-.82-.13-2.33-.28t-1.74-.15a1,1,0,0,1,0-.64c.05-.33.12-.48.21-.47a4.8,4.8,0,0,0,1.22-.05q.86-.11,1-.33a10.84,10.84,0,0,0,.62-2.35l.87-5.34a3.15,3.15,0,0,0-.18-2.18,1.85,1.85,0,0,0-.67-.61,3.52,3.52,0,0,0-.75-.33c-.22-.06-.32-.11-.31-.15q.16-.95.36-1a25.42,25.42,0,0,0,2.72,0,26,26,0,0,0,2.69-.17l.27,0c.11,0,.18.11.23.27a.61.61,0,0,1,0,.37,28.5,28.5,0,0,0-.72,2.78Zm-1.17-14.27a2,2,0,0,1-.35-1.54,2,2,0,0,1,2.36-1.68,2,2,0,0,1,1.35.83,2,2,0,0,1,.36,1.52,2,2,0,0,1-.83,1.35,2,2,0,0,1-2.88-.47Z"/><path class="cls-1" d="M427.65,296.25q4.23.69,3.13,7.41l-.51,3.11a13.87,13.87,0,0,0-.25,3q0,.24.82.62a5.08,5.08,0,0,0,1.09.43c.07,0,.08.18,0,.49a1.88,1.88,0,0,1-.15.63q-.19-.07-1.7-.41t-2.26-.47q-.79-.13-2.2-.26l-1.71-.14a1,1,0,0,1,0-.64c.05-.33.12-.48.21-.47a3.94,3.94,0,0,0,1.14-.07c.52-.08.81-.2.88-.34a9.51,9.51,0,0,0,.65-2.35l.51-3.11a7.2,7.2,0,0,0-.12-3.92,2.67,2.67,0,0,0-2.17-1.46,3.08,3.08,0,0,0-1.93.27,1.6,1.6,0,0,0-1,1.1l-.92,5.64a13.88,13.88,0,0,0-.25,3q0,.24.79.62a4.78,4.78,0,0,0,1,.42c.09,0,.11.18.07.5a1.88,1.88,0,0,1-.15.63L421,310q-1.44-.34-2.2-.46t-2.29-.27l-1.78-.16a1,1,0,0,1,0-.64q.08-.49.21-.47a4.63,4.63,0,0,0,1.24-.05c.56-.08.88-.19.95-.33a10.84,10.84,0,0,0,.62-2.35l.87-5.34a3.15,3.15,0,0,0-.18-2.18,1.6,1.6,0,0,0-.66-.61,3.8,3.8,0,0,0-.75-.33c-.21-.06-.3-.1-.3-.15q.16-.95.33-1a47,47,0,0,0,5.44-.12l.09,0h.18c.09,0,.15.1.19.27a1,1,0,0,1,0,.38,11.35,11.35,0,0,0-.32,1.16.25.25,0,0,0,0,.17.5.5,0,0,0,.18-.07,7.36,7.36,0,0,1,2.24-1A5.81,5.81,0,0,1,427.65,296.25Z"/><path class="cls-1" d="M449.75,302.11q-.72.29-2.32,1.14a23.55,23.55,0,0,0-3,1.87q.78,1.17,2,3t2,3.08a15.83,15.83,0,0,0,1.09,1.56,4.17,4.17,0,0,0,1.15.86,4,4,0,0,0,1.05.44c.09,0,.1.21,0,.58a1.94,1.94,0,0,1-.11.45l-3.81-.79q-.62-.1-1.27-.17l-1.42-.15-1.24-.12a.9.9,0,0,1,0-.61c0-.31.12-.45.21-.44a2.38,2.38,0,0,0,.78,0c.3-.05.46-.13.48-.24s0-.07,0-.07l-3.91-6.12-.41,0-.33,2a13.58,13.58,0,0,0-.22,3q0,.24.81.62a4.82,4.82,0,0,0,1.11.43c.07,0,.08.18,0,.49a1.91,1.91,0,0,1-.15.63q-.22-.07-1.72-.42t-2.25-.47q-.79-.13-2.29-.27l-1.77-.16a1,1,0,0,1,0-.64c.05-.33.12-.48.21-.47a4.64,4.64,0,0,0,1.24-.05q.84-.11.95-.33a10.84,10.84,0,0,0,.62-2.35l2.22-13.6a13.13,13.13,0,0,0,.2-2.25q-.08-.55-1.62-.8l-.29,0c-.13,0-.17-.21-.11-.56s.15-.51.28-.49q1,.07,2,.05t1.58-.08q.63-.06,1.1-.16l1-.18h.07c.09,0,.17.09.23.22a.94.94,0,0,1,.11.37,10.71,10.71,0,0,0-.9,3l-1.79,10.94a3,3,0,0,0,1-.2q.79-.51,1.7-1.05l1.32-.78q.41-.24.83-.52a2.9,2.9,0,0,0,.56-.46.79.79,0,0,0,.18-.37q.06-.36-.67-.56a3.27,3.27,0,0,1-.72-.23,1.49,1.49,0,0,1,0-.59c0-.23.1-.35.19-.36l3.18.52q.88.14,3.5.44a.52.52,0,0,1,.11.39,1.49,1.49,0,0,1-.1.49c-.06.15-.12.22-.19.21A4.36,4.36,0,0,0,449.75,302.11Z"/><path class="cls-1" d="M71.74,201.22a7.32,7.32,0,0,1,5.33,2.17,7.12,7.12,0,0,1,2.21,5.26,7.52,7.52,0,0,1-15,0,7.15,7.15,0,0,1,2.17-5.28A7.27,7.27,0,0,1,71.74,201.22Zm-.43,1.56a2.67,2.67,0,0,0-2.42,1.51,7.14,7.14,0,0,0-.86,3.6,9.68,9.68,0,0,0,1.08,4.68,3.31,3.31,0,0,0,3,2A2.71,2.71,0,0,0,74.55,213a7.06,7.06,0,0,0,.88-3.59,11.41,11.41,0,0,0-.43-3.2,5.86,5.86,0,0,0-1.39-2.47A3.08,3.08,0,0,0,71.31,202.78Z"/><path class="cls-1" d="M91.14,201.22a3.31,3.31,0,0,1,2.72,1.1q0,2.82-1.59,2.82a2,2,0,0,1-1.29-.66,2.08,2.08,0,0,0-1.43-.66,1.78,1.78,0,0,0-1.61,1,4.42,4.42,0,0,0-.58,2.17v4.15a13.89,13.89,0,0,0,.23,3q.07.23.88.48a4.69,4.69,0,0,0,1.11.25c.07,0,.1.16.12.48a3.51,3.51,0,0,1,0,.65l-1.76-.13q-1.49-.1-2.26-.1t-2.31.1l-1.78.13a1,1,0,0,1-.13-.63q0-.5.13-.5a4.64,4.64,0,0,0,1.21-.25q.81-.25.88-.48a10.87,10.87,0,0,0,.23-2.42v-5.41a3.16,3.16,0,0,0-.53-2.12,1.6,1.6,0,0,0-.75-.5,3.82,3.82,0,0,0-.8-.2c-.21,0-.32-.05-.32-.1,0-.64.05-1,.17-1a47,47,0,0,0,5.35-1l.27-.07c.09,0,.17.08.23.23a.8.8,0,0,1,.08.38l0,.46q0,.32-.08.66a4.26,4.26,0,0,0,0,.45A6.09,6.09,0,0,1,89,201.94,3.64,3.64,0,0,1,91.14,201.22Z"/><path class="cls-1" d="M102.94,197.47a4.46,4.46,0,0,1,.35-1.71,5,5,0,0,1,.85-1.41,9,9,0,0,1,1-1,7,7,0,0,1,.93-.66,1.54,1.54,0,0,1,.48-.22,1,1,0,0,1,.51.23,1.14,1.14,0,0,1,.42.5,5.38,5.38,0,0,0-1.46,1.23,4.32,4.32,0,0,0-.71,1.11,1.39,1.39,0,0,0,.53,1.83,2.1,2.1,0,0,1,.68,1.21,1.23,1.23,0,0,1-.66,1,2.68,2.68,0,0,1-1.49.43,2.12,2.12,0,0,1-1-.23A4.21,4.21,0,0,1,102.94,197.47Zm4.85,0a4.46,4.46,0,0,1,.35-1.71,5,5,0,0,1,.85-1.41,9,9,0,0,1,1-1,7,7,0,0,1,.93-.66,1.54,1.54,0,0,1,.48-.22,1,1,0,0,1,.51.23,1.14,1.14,0,0,1,.42.5,5.64,5.64,0,0,0-1.48,1.23,4.19,4.19,0,0,0-.73,1.11,1.39,1.39,0,0,0,.53,1.83,2.1,2.1,0,0,1,.68,1.21,1.23,1.23,0,0,1-.66,1,2.62,2.62,0,0,1-1.46.43,2.19,2.19,0,0,1-1-.23A4.24,4.24,0,0,1,107.79,197.47Z"/><path class="cls-1" d="M116.2,203.55h-2q-.23,0-.23-.86a.82.82,0,0,1,0-.3,9.29,9.29,0,0,0,2.56-1.76l.95-1q.51-.55,1.21-1.41a2.37,2.37,0,0,1,.63.08c.2.06.3.12.3.18v3.25l2.41,0,1.64,0c.18,0,.27.1.27.3a3.23,3.23,0,0,1-.33,1.46h-4v8a3.15,3.15,0,0,0,.56,2,1.9,1.9,0,0,0,1.56.7,3.14,3.14,0,0,0,.7-.08,3.52,3.52,0,0,0,.6-.18l.43-.2.23-.1q.13,0,.3.3t.13.43a3,3,0,0,1-1.41,1.08,5.23,5.23,0,0,1-2.37.61,4.19,4.19,0,0,1-2.94-1.11,4.44,4.44,0,0,1-1.21-3.44Z"/><path class="cls-1" d="M137.09,201.22q4.25,0,4.25,6.54v3.42a12.19,12.19,0,0,0,.27,3q0,.23.88.48a5.09,5.09,0,0,0,1.15.25c.07,0,.1.16.12.48a3.51,3.51,0,0,1,0,.65q-.23,0-1.78-.13t-2.27-.1q-.83,0-2.24.1l-1.74.13a1.24,1.24,0,0,1-.1-.63q0-.5.1-.5a4,4,0,0,0,1.15-.25q.75-.25.85-.48a12.58,12.58,0,0,0,.2-2.42v-3.25a6.93,6.93,0,0,0-.75-3.8,2.72,2.72,0,0,0-2.37-1,3.18,3.18,0,0,0-1.83.56,1.57,1.57,0,0,0-.83,1.26v5.71a12.19,12.19,0,0,0,.27,3q.07.23.88.48a4.69,4.69,0,0,0,1.11.25c.07,0,.1.16.12.48a1.89,1.89,0,0,1,0,.65l-1.74-.13q-1.48-.1-2.24-.1t-2.31.1l-1.78.13a1,1,0,0,1-.13-.63q0-.5.13-.5a4.64,4.64,0,0,0,1.21-.25q.81-.25.88-.48a10.7,10.7,0,0,0,.23-2.39V198a13.12,13.12,0,0,0-.17-2.26q-.17-.53-1.73-.53h-.3q-.2,0-.2-.53c0-.35.07-.53.2-.53q1-.1,2-.27t1.54-.33q.61-.17,1.06-.33l.95-.33h.07a.36.36,0,0,1,.27.18.92.92,0,0,1,.17.35,10.7,10.7,0,0,0-.4,3.12v6.71c0,.13,0,.2.13.2s.07,0,.13-.1a6.32,6.32,0,0,1,2-1.44A6.12,6.12,0,0,1,137.09,201.22Z"/><path class="cls-1" d="M151.68,211.18a12.19,12.19,0,0,0,.27,3q.07.23.9.48a4.88,4.88,0,0,0,1.13.25c.09,0,.14.16.15.48a1.89,1.89,0,0,1,0,.65q-.23,0-1.78-.13t-2.27-.1q-.83,0-2.34.1t-1.74.13a1,1,0,0,1-.13-.63q0-.5.13-.5a4.81,4.81,0,0,0,1.2-.25q.83-.25.9-.48a10.87,10.87,0,0,0,.23-2.42v-5.41a3.16,3.16,0,0,0-.53-2.12,1.85,1.85,0,0,0-.76-.5,3.52,3.52,0,0,0-.8-.2c-.22,0-.33-.05-.33-.1q0-1,.2-1a25.43,25.43,0,0,0,2.69-.4,26,26,0,0,0,2.62-.6l.27-.07c.11,0,.2.08.27.23a.61.61,0,0,1,.07.37,28.38,28.38,0,0,0-.27,2.86Zm-3.45-13.9a2,2,0,0,1-.6-1.46,2,2,0,0,1,2.06-2,2,2,0,0,1,1.46.6,2,2,0,0,1,.6,1.44,2,2,0,0,1-.6,1.46,2,2,0,0,1-2.92,0Z"/><path class="cls-1" d="M161.48,201.19a14.12,14.12,0,0,1,3.85.56,18.89,18.89,0,0,1,.37,3.72c0,.18-.14.27-.43.27q-.73,0-.8-.27a4,4,0,0,0-1-2,2.6,2.6,0,0,0-2-.81,2.38,2.38,0,0,0-1.51.43,1.47,1.47,0,0,0-.55,1.23,1.93,1.93,0,0,0,.18.85,2.06,2.06,0,0,0,.6.71,8.09,8.09,0,0,0,.73.53q.31.2.95.53a2.11,2.11,0,0,0,.33.17l.5.27.55.3.53.32a6.07,6.07,0,0,1,.58.38l.51.4a2.63,2.63,0,0,1,.5.46l.4.51a2.14,2.14,0,0,1,.35.6,6.37,6.37,0,0,1,.18.63,3.11,3.11,0,0,1,.08.71,3.91,3.91,0,0,1-1.61,3.3,6.3,6.3,0,0,1-3.9,1.21,11.09,11.09,0,0,1-4.28-.93,13.21,13.21,0,0,1-.33-1.84,16.16,16.16,0,0,1-.17-1.91.7.7,0,0,1,.46-.17q.76,0,.8.27a3.66,3.66,0,0,0,1.31,2.24,3.54,3.54,0,0,0,2.27.85,2.41,2.41,0,0,0,1.53-.46,1.62,1.62,0,0,0,.6-1.36,2.2,2.2,0,0,0-.08-.61,1.64,1.64,0,0,0-.32-.56l-.38-.46a2.41,2.41,0,0,0-.6-.45l-.66-.38-.83-.43-.85-.45a7.71,7.71,0,0,1-2.36-1.78,3.84,3.84,0,0,1,.76-5.5A6.4,6.4,0,0,1,161.48,201.19Z"/><path class="cls-1" d="M181.75,211.18a12.19,12.19,0,0,0,.27,3q.07.23.9.48a4.88,4.88,0,0,0,1.13.25c.09,0,.14.16.15.48a1.89,1.89,0,0,1,0,.65q-.23,0-1.78-.13t-2.27-.1q-.83,0-2.34.1T176,216a1,1,0,0,1-.13-.63q0-.5.13-.5a4.81,4.81,0,0,0,1.2-.25q.83-.25.9-.48a10.87,10.87,0,0,0,.23-2.42v-5.41a3.16,3.16,0,0,0-.53-2.12,1.85,1.85,0,0,0-.76-.5,3.52,3.52,0,0,0-.8-.2c-.22,0-.33-.05-.33-.1q0-1,.2-1a25.43,25.43,0,0,0,2.69-.4,26,26,0,0,0,2.62-.6l.27-.07c.11,0,.2.08.27.23a.61.61,0,0,1,.07.37,28.38,28.38,0,0,0-.27,2.86Zm-3.45-13.9a2,2,0,0,1-.6-1.46,2,2,0,0,1,2.06-2,2,2,0,0,1,1.46.6,2,2,0,0,1,.6,1.44,2,2,0,0,1-.6,1.46,2,2,0,0,1-2.92,0Z"/><path class="cls-1" d="M191.55,201.19a14.12,14.12,0,0,1,3.85.56,18.89,18.89,0,0,1,.37,3.72c0,.18-.14.27-.43.27q-.73,0-.8-.27a4,4,0,0,0-1-2,2.6,2.6,0,0,0-2-.81,2.38,2.38,0,0,0-1.51.43,1.47,1.47,0,0,0-.55,1.23,1.93,1.93,0,0,0,.18.85,2.06,2.06,0,0,0,.6.71,8.09,8.09,0,0,0,.73.53q.31.2.95.53a2.11,2.11,0,0,0,.33.17l.5.27.55.3.53.32a6.07,6.07,0,0,1,.58.38l.51.4a2.63,2.63,0,0,1,.5.46l.4.51a2.14,2.14,0,0,1,.35.6,6.37,6.37,0,0,1,.18.63,3.11,3.11,0,0,1,.08.71,3.91,3.91,0,0,1-1.61,3.3,6.3,6.3,0,0,1-3.9,1.21,11.09,11.09,0,0,1-4.28-.93,13.21,13.21,0,0,1-.33-1.84,16.16,16.16,0,0,1-.17-1.91.7.7,0,0,1,.46-.17q.76,0,.8.27a3.66,3.66,0,0,0,1.31,2.24,3.54,3.54,0,0,0,2.27.85,2.41,2.41,0,0,0,1.53-.46,1.62,1.62,0,0,0,.6-1.36,2.2,2.2,0,0,0-.08-.61,1.64,1.64,0,0,0-.32-.56l-.38-.46a2.41,2.41,0,0,0-.6-.45l-.66-.38-.83-.43-.85-.45a7.71,7.71,0,0,1-2.36-1.78,3.84,3.84,0,0,1,.76-5.5A6.4,6.4,0,0,1,191.55,201.19Z"/><path class="cls-1" d="M216.77,201.22q4.28,0,4.28,6.81v3.15a13.89,13.89,0,0,0,.23,3q.07.23.91.48a5.09,5.09,0,0,0,1.15.25c.07,0,.1.16.12.48a1.89,1.89,0,0,1,0,.65q-.2,0-1.74-.13t-2.31-.1q-.8,0-2.21.1l-1.71.13a1,1,0,0,1-.13-.63q0-.5.13-.5a4,4,0,0,0,1.11-.25q.75-.25.81-.48a9.54,9.54,0,0,0,.27-2.42v-3.15a7.21,7.21,0,0,0-.75-3.85,2.67,2.67,0,0,0-2.37-1.1,3.07,3.07,0,0,0-1.86.58,1.6,1.6,0,0,0-.8,1.25v5.71a13.89,13.89,0,0,0,.23,3q.07.23.88.48a4.78,4.78,0,0,0,1.08.25c.09,0,.14.16.15.48a1.89,1.89,0,0,1,0,.65l-1.74-.13q-1.48-.1-2.24-.1t-2.31.1l-1.78.13a1,1,0,0,1-.13-.63q0-.5.13-.5a4.64,4.64,0,0,0,1.21-.25q.81-.25.88-.48a10.87,10.87,0,0,0,.23-2.42v-5.41a3.16,3.16,0,0,0-.53-2.12,1.6,1.6,0,0,0-.75-.5,3.82,3.82,0,0,0-.8-.2c-.21,0-.32-.05-.32-.1,0-.64.05-1,.17-1a47,47,0,0,0,5.35-1l.08,0,.1,0h.08c.09,0,.17.08.23.23a1,1,0,0,1,.1.37,11.29,11.29,0,0,0-.13,1.2.26.26,0,0,0,0,.17.5.5,0,0,0,.17-.1,7.36,7.36,0,0,1,2-1.39A5.81,5.81,0,0,1,216.77,201.22Z"/><path class="cls-1" d="M233.15,201.22a7.32,7.32,0,0,1,5.33,2.17,7.12,7.12,0,0,1,2.21,5.26,7.52,7.52,0,0,1-15,0,7.15,7.15,0,0,1,2.17-5.28A7.27,7.27,0,0,1,233.15,201.22Zm-.43,1.56a2.67,2.67,0,0,0-2.42,1.51,7.14,7.14,0,0,0-.86,3.6,9.68,9.68,0,0,0,1.08,4.68,3.31,3.31,0,0,0,3,2A2.71,2.71,0,0,0,236,213a7.06,7.06,0,0,0,.88-3.59,11.41,11.41,0,0,0-.43-3.2,5.86,5.86,0,0,0-1.39-2.47A3.08,3.08,0,0,0,232.71,202.78Z"/><path class="cls-1" d="M244.74,203.55h-2q-.23,0-.23-.86a.82.82,0,0,1,0-.3,9.29,9.29,0,0,0,2.56-1.76l.95-1q.51-.55,1.21-1.41a2.37,2.37,0,0,1,.63.08c.2.06.3.12.3.18v3.25l2.41,0,1.64,0c.18,0,.27.1.27.3a3.23,3.23,0,0,1-.33,1.46h-4v8a3.15,3.15,0,0,0,.56,2,1.9,1.9,0,0,0,1.56.7,3.14,3.14,0,0,0,.7-.08,3.52,3.52,0,0,0,.6-.18l.43-.2.23-.1q.13,0,.3.3t.13.43a3,3,0,0,1-1.41,1.08,5.23,5.23,0,0,1-2.37.61A4.19,4.19,0,0,1,246,215a4.44,4.44,0,0,1-1.21-3.44Z"/><path class="cls-1" d="M271.52,192.82a6.54,6.54,0,0,1,2.31.35A2.32,2.32,0,0,1,275,194a3.73,3.73,0,0,1-.18,1.84,1.19,1.19,0,0,1-1.21.81,1.29,1.29,0,0,1-1-.55q-.45-.55-.95-1.1a1.53,1.53,0,0,0-1.16-.55,1.77,1.77,0,0,0-1.49.86,5.58,5.58,0,0,0-.85,2.09,13.56,13.56,0,0,0-.25,2.69v1.53s0,.06.07.1a.19.19,0,0,0,.13.07h3.65a.27.27,0,0,1,.17,0,.35.35,0,0,1,0,.2,3.41,3.41,0,0,1-.4,1.53h-3.45a.18.18,0,0,0-.2.2v7.4a12.68,12.68,0,0,0,.27,3q.07.23.88.48a4.69,4.69,0,0,0,1.11.25c.07,0,.1.16.12.48a1.89,1.89,0,0,1,0,.65q-.2,0-1.73-.13t-2.32-.1q-.8,0-2.26.1l-1.73.13a.63.63,0,0,1-.13-.37,2,2,0,0,1,0-.51c0-.17.07-.25.13-.25a4.45,4.45,0,0,0,1.16-.25q.8-.25.86-.48a11,11,0,0,0,.3-2.72v-7.64c0-.15-.07-.23-.2-.23h-2s-.07-.07-.07-.2a1.77,1.77,0,0,1,.46-1,1.33,1.33,0,0,1,1.06-.6h.53a.18.18,0,0,0,.2-.2v-.33a9,9,0,0,1,2.08-6A6.21,6.21,0,0,1,271.52,192.82Z"/><path class="cls-1" d="M281.49,201.22a7.32,7.32,0,0,1,5.33,2.17,7.12,7.12,0,0,1,2.21,5.26,7.52,7.52,0,0,1-15,0,7.15,7.15,0,0,1,2.17-5.28A7.27,7.27,0,0,1,281.49,201.22Zm-.43,1.56a2.67,2.67,0,0,0-2.42,1.51,7.14,7.14,0,0,0-.86,3.6,9.68,9.68,0,0,0,1.08,4.68,3.31,3.31,0,0,0,3,2,2.71,2.71,0,0,0,2.44-1.53,7.06,7.06,0,0,0,.88-3.59,11.41,11.41,0,0,0-.43-3.2,5.86,5.86,0,0,0-1.39-2.47A3.08,3.08,0,0,0,281.06,202.78Z"/><path class="cls-1" d="M300.89,201.22a3.31,3.31,0,0,1,2.72,1.1q0,2.82-1.59,2.82a2,2,0,0,1-1.29-.66,2.08,2.08,0,0,0-1.43-.66,1.78,1.78,0,0,0-1.61,1,4.42,4.42,0,0,0-.58,2.17v4.15a13.89,13.89,0,0,0,.23,3q.07.23.88.48a4.69,4.69,0,0,0,1.11.25c.07,0,.1.16.12.48a3.51,3.51,0,0,1,0,.65l-1.76-.13q-1.49-.1-2.26-.1t-2.31.1l-1.78.13a1,1,0,0,1-.13-.63q0-.5.13-.5a4.64,4.64,0,0,0,1.21-.25q.81-.25.88-.48a10.87,10.87,0,0,0,.23-2.42v-5.41a3.16,3.16,0,0,0-.53-2.12,1.6,1.6,0,0,0-.75-.5,3.82,3.82,0,0,0-.8-.2c-.21,0-.32-.05-.32-.1,0-.64.05-1,.17-1a47,47,0,0,0,5.35-1l.27-.07c.09,0,.17.08.23.23a.8.8,0,0,1,.08.38l0,.46q0,.32-.08.66a4.26,4.26,0,0,0,0,.45,6.09,6.09,0,0,1,1.63-1.61A3.64,3.64,0,0,1,300.89,201.22Z"/><path class="cls-1" d="M323.91,201.22a3.59,3.59,0,0,1,2.16.65,3.88,3.88,0,0,1,1.33,1.68,7.82,7.82,0,0,1,2.42-1.66,7.46,7.46,0,0,1,3.12-.66,3.77,3.77,0,0,1,2,.53,3.67,3.67,0,0,1,1.33,1.48,7.84,7.84,0,0,1,.7,2.06,12.67,12.67,0,0,1,.22,2.41v3.49a13.89,13.89,0,0,0,.23,3q.07.23.9.48a4.88,4.88,0,0,0,1.13.25c.07,0,.1.16.12.48a1.89,1.89,0,0,1,0,.65q-.23,0-1.74-.13t-2.27-.1q-.8,0-2.27.1l-1.78.13a1.24,1.24,0,0,1-.1-.63q0-.5.1-.5a4.46,4.46,0,0,0,1.2-.25q.8-.25.86-.48a10.35,10.35,0,0,0,.23-2.32v-3.39q0-4.81-3.09-4.81a3,3,0,0,0-1.83.53,2.07,2.07,0,0,0-.86,1c0,.07,0,.16,0,.27a.64.64,0,0,0,0,.27,16.23,16.23,0,0,1,.1,2.06v3.52a13,13,0,0,0,.23,2.86q.07.23.9.48a4.88,4.88,0,0,0,1.13.25c.07,0,.1.16.12.48a1.89,1.89,0,0,1,0,.65q-.23,0-1.74-.13t-2.27-.1q-.8,0-2.27.1l-1.78.13a1.24,1.24,0,0,1-.1-.63q0-.5.1-.5a4.46,4.46,0,0,0,1.2-.25q.8-.25.86-.48a10.87,10.87,0,0,0,.23-2.42v-3.19a7,7,0,0,0-.76-3.75,2.53,2.53,0,0,0-2.26-1.16,3.18,3.18,0,0,0-1.83.56,1.57,1.57,0,0,0-.83,1.26v5.71a12.19,12.19,0,0,0,.27,3q.07.23.86.48a4.51,4.51,0,0,0,1.1.25c.09,0,.14.16.15.48a1.89,1.89,0,0,1,0,.65l-1.74-.13q-1.48-.1-2.24-.1t-2.32.1l-1.76.13a1,1,0,0,1-.13-.63q0-.5.13-.5a4.81,4.81,0,0,0,1.2-.25q.83-.25.9-.48a10.87,10.87,0,0,0,.23-2.42v-5.41a3.16,3.16,0,0,0-.53-2.12,1.6,1.6,0,0,0-.75-.5,3.77,3.77,0,0,0-.81-.2c-.22,0-.33-.05-.33-.1q0-1,.2-1a46,46,0,0,0,5.31-1,.21.21,0,0,1,.1,0l.17,0c.11,0,.2.08.27.23a.61.61,0,0,1,.07.37,11.29,11.29,0,0,0-.13,1.2c0,.09,0,.14.07.17a.5.5,0,0,0,.17-.1,7.36,7.36,0,0,1,2-1.39A5.81,5.81,0,0,1,323.91,201.22Z"/><path class="cls-1" d="M348.23,201.22a6.16,6.16,0,0,1,2.79.61,5.26,5.26,0,0,1,1.93,1.56,7.74,7.74,0,0,1,1.06,2,5.73,5.73,0,0,1,.37,1.94q0,.73-.25.91a1.88,1.88,0,0,1-1,.18h-7.94c-.16,0-.23.07-.23.2a6.45,6.45,0,0,0,.43,2.32,4.56,4.56,0,0,0,1.48,2,3.91,3.91,0,0,0,2.51.83,9,9,0,0,0,1,0,4.94,4.94,0,0,0,.86-.17l.7-.22a2.85,2.85,0,0,0,.61-.3l.45-.28.66-.45a.55.55,0,0,1,.17.2.64.64,0,0,1,.1.33,1,1,0,0,1-.2.63,5.41,5.41,0,0,1-2,1.79,6.16,6.16,0,0,1-3.29.9,6.72,6.72,0,0,1-5-2.14,7.16,7.16,0,0,1-2.09-5.2,7.68,7.68,0,0,1,1.94-5.45A6.44,6.44,0,0,1,348.23,201.22Zm-.23,1.53a2.35,2.35,0,0,0-1.43.46,3.13,3.13,0,0,0-1,1.13,6.35,6.35,0,0,0-.48,1.25,4.06,4.06,0,0,0-.15,1c0,.16.07.23.2.23h5.38q.3,0,.3-.5a4.31,4.31,0,0,0-.78-2.36A2.38,2.38,0,0,0,348,202.75Z"/><path class="cls-1" d="M367.09,201.22q4.28,0,4.28,6.81v3.15a13.89,13.89,0,0,0,.23,3q.07.23.91.48a5.09,5.09,0,0,0,1.15.25c.07,0,.1.16.12.48a1.89,1.89,0,0,1,0,.65q-.2,0-1.74-.13t-2.31-.1q-.8,0-2.21.1l-1.71.13a1,1,0,0,1-.13-.63q0-.5.13-.5a4,4,0,0,0,1.11-.25q.75-.25.81-.48a9.54,9.54,0,0,0,.27-2.42v-3.15a7.21,7.21,0,0,0-.75-3.85,2.67,2.67,0,0,0-2.37-1.1,3.07,3.07,0,0,0-1.86.58,1.6,1.6,0,0,0-.8,1.25v5.71a13.89,13.89,0,0,0,.23,3q.07.23.88.48a4.78,4.78,0,0,0,1.08.25c.09,0,.14.16.15.48a1.89,1.89,0,0,1,0,.65l-1.74-.13q-1.48-.1-2.24-.1t-2.31.1l-1.78.13a1,1,0,0,1-.13-.63q0-.5.13-.5a4.64,4.64,0,0,0,1.21-.25q.81-.25.88-.48a10.87,10.87,0,0,0,.23-2.42v-5.41a3.16,3.16,0,0,0-.53-2.12,1.6,1.6,0,0,0-.75-.5,3.82,3.82,0,0,0-.8-.2c-.21,0-.32-.05-.32-.1,0-.64.05-1,.17-1a47,47,0,0,0,5.35-1l.08,0,.1,0h.08c.09,0,.17.08.23.23a1,1,0,0,1,.1.37,11.29,11.29,0,0,0-.13,1.2.26.26,0,0,0,0,.17.5.5,0,0,0,.17-.1,7.36,7.36,0,0,1,2-1.39A5.81,5.81,0,0,1,367.09,201.22Z"/><path class="cls-1" d="M114,334.88h-2q-.23,0-.23-.86a.82.82,0,0,1,0-.3,9.29,9.29,0,0,0,2.56-1.76l.95-1q.51-.55,1.21-1.41a2.37,2.37,0,0,1,.63.08q.3.08.3.18v3.25l2.41,0,1.64,0c.18,0,.27.1.27.3a3.23,3.23,0,0,1-.33,1.46h-4v8a3.15,3.15,0,0,0,.56,2,1.9,1.9,0,0,0,1.56.7,3.15,3.15,0,0,0,.7-.08,3.53,3.53,0,0,0,.6-.18l.43-.2.23-.1q.13,0,.3.3t.13.43a3,3,0,0,1-1.41,1.08,5.23,5.23,0,0,1-2.37.61,4.19,4.19,0,0,1-2.94-1.11,4.44,4.44,0,0,1-1.21-3.44Z"/><path class="cls-1" d="M131.56,332.56a7.32,7.32,0,0,1,5.33,2.17A7.12,7.12,0,0,1,139.1,340a7.52,7.52,0,0,1-15,0,7.15,7.15,0,0,1,2.17-5.28A7.27,7.27,0,0,1,131.56,332.56Zm-.43,1.56a2.67,2.67,0,0,0-2.42,1.51,7.14,7.14,0,0,0-.86,3.6,9.68,9.68,0,0,0,1.08,4.68,3.31,3.31,0,0,0,3,2,2.71,2.71,0,0,0,2.44-1.53,7.06,7.06,0,0,0,.88-3.59,11.41,11.41,0,0,0-.43-3.2,5.86,5.86,0,0,0-1.39-2.47A3.08,3.08,0,0,0,131.13,334.12Z"/><path class="cls-1" d="M154.29,342.45a13.61,13.61,0,0,0,.23,3q.07.23.81.51a3.63,3.63,0,0,0,1,.28c.07,0,.1.16.12.46a1.81,1.81,0,0,1,0,.63l-1.25-.08-1.41-.08q-.63,0-1.2,0t-1.26,0l-1.39.08-1.26.08a.94.94,0,0,1-.13-.61c0-.32,0-.48.13-.48a3.55,3.55,0,0,0,1.11-.28q.75-.28.81-.51a11,11,0,0,0,.27-2.46V329.17a11.58,11.58,0,0,0-.2-2.26q-.17-.53-1.66-.53h-.33q-.2,0-.2-.4c0-.35.07-.53.2-.53q1-.1,2-.27t1.54-.33q.61-.17,1.06-.32l.71-.25.23-.1h.07c.09,0,.18.07.28.2a1,1,0,0,1,.18.33,10.5,10.5,0,0,0-.4,3.12Z"/><path class="cls-1" d="M164.56,342.52a12.19,12.19,0,0,0,.27,3q.07.23.9.48a4.88,4.88,0,0,0,1.13.25c.09,0,.14.16.15.48a1.89,1.89,0,0,1,0,.65q-.23,0-1.78-.13t-2.27-.1q-.83,0-2.34.1t-1.74.13a1,1,0,0,1-.13-.63q0-.5.13-.5A4.81,4.81,0,0,0,160,346q.83-.25.9-.48a10.87,10.87,0,0,0,.23-2.42v-5.41a3.16,3.16,0,0,0-.53-2.12,1.85,1.85,0,0,0-.76-.5,3.49,3.49,0,0,0-.8-.2c-.22,0-.33-.05-.33-.1q0-1,.2-1a25.56,25.56,0,0,0,2.69-.4,26,26,0,0,0,2.62-.6l.27-.07c.11,0,.2.08.27.23a.61.61,0,0,1,.07.37,28.37,28.37,0,0,0-.27,2.86Zm-3.45-13.9a2,2,0,0,1-.6-1.46,2,2,0,0,1,2.06-2,2,2,0,0,1,1.46.6,2,2,0,0,1,.6,1.44,2,2,0,0,1-.6,1.46,2,2,0,0,1-2.92,0Z"/><path class="cls-1" d="M174.36,332.52a14.11,14.11,0,0,1,3.85.56,18.89,18.89,0,0,1,.37,3.72c0,.18-.14.27-.43.27q-.73,0-.8-.27a4,4,0,0,0-1-2,2.6,2.6,0,0,0-2-.81,2.38,2.38,0,0,0-1.51.43,1.47,1.47,0,0,0-.55,1.23,1.93,1.93,0,0,0,.18.85,2.06,2.06,0,0,0,.6.71,8.14,8.14,0,0,0,.73.53q.31.2.95.53a2.13,2.13,0,0,0,.33.17l.5.27.55.3.53.32a6.07,6.07,0,0,1,.58.38l.51.4a2.63,2.63,0,0,1,.5.46l.4.51a2.14,2.14,0,0,1,.35.6,6.35,6.35,0,0,1,.18.63,3.11,3.11,0,0,1,.08.71,3.91,3.91,0,0,1-1.61,3.3,6.3,6.3,0,0,1-3.9,1.21,11.09,11.09,0,0,1-4.28-.93,13.22,13.22,0,0,1-.33-1.84,16.17,16.17,0,0,1-.17-1.91.7.7,0,0,1,.46-.17q.76,0,.8.27a3.66,3.66,0,0,0,1.31,2.24,3.54,3.54,0,0,0,2.27.85,2.41,2.41,0,0,0,1.53-.46,1.62,1.62,0,0,0,.6-1.36,2.2,2.2,0,0,0-.08-.61,1.63,1.63,0,0,0-.32-.56l-.38-.46a2.41,2.41,0,0,0-.6-.45l-.66-.38-.83-.43-.85-.45a7.72,7.72,0,0,1-2.36-1.78,3.84,3.84,0,0,1,.76-5.5A6.4,6.4,0,0,1,174.36,332.52Z"/><path class="cls-1" d="M183.37,334.88h-2q-.23,0-.23-.86a.82.82,0,0,1,0-.3A9.29,9.29,0,0,0,183.7,332l.95-1q.51-.55,1.21-1.41a2.37,2.37,0,0,1,.63.08q.3.08.3.18v3.25l2.41,0,1.64,0c.18,0,.27.1.27.3a3.23,3.23,0,0,1-.33,1.46h-4v8a3.15,3.15,0,0,0,.56,2,1.9,1.9,0,0,0,1.56.7,3.15,3.15,0,0,0,.7-.08,3.53,3.53,0,0,0,.6-.18l.43-.2.23-.1q.13,0,.3.3t.13.43a3,3,0,0,1-1.41,1.08,5.23,5.23,0,0,1-2.37.61,4.19,4.19,0,0,1-2.94-1.11,4.44,4.44,0,0,1-1.21-3.44Z"/><path class="cls-1" d="M200.21,332.56a6.16,6.16,0,0,1,2.79.61,5.26,5.26,0,0,1,1.93,1.56,7.73,7.73,0,0,1,1.06,2,5.73,5.73,0,0,1,.37,1.94q0,.73-.25.91a1.89,1.89,0,0,1-1,.18h-7.94c-.16,0-.23.07-.23.2a6.45,6.45,0,0,0,.43,2.32,4.56,4.56,0,0,0,1.48,2,3.91,3.91,0,0,0,2.51.83,9,9,0,0,0,1,0,4.94,4.94,0,0,0,.86-.17l.7-.22a2.85,2.85,0,0,0,.61-.3l.45-.28.66-.45a.55.55,0,0,1,.17.2.64.64,0,0,1,.1.33,1,1,0,0,1-.2.63,5.41,5.41,0,0,1-2,1.79,6.16,6.16,0,0,1-3.29.9,6.72,6.72,0,0,1-5-2.14,7.16,7.16,0,0,1-2.09-5.2,7.68,7.68,0,0,1,1.94-5.45A6.44,6.44,0,0,1,200.21,332.56Zm-.23,1.53a2.35,2.35,0,0,0-1.43.46,3.13,3.13,0,0,0-1,1.13,6.35,6.35,0,0,0-.48,1.25,4.06,4.06,0,0,0-.15,1q0,.23.2.23h5.38q.3,0,.3-.5a4.31,4.31,0,0,0-.78-2.36A2.38,2.38,0,0,0,200,334.08Z"/><path class="cls-1" d="M219.08,332.56q4.28,0,4.28,6.81v3.15a13.89,13.89,0,0,0,.23,3q.07.23.91.48a5.09,5.09,0,0,0,1.15.25c.07,0,.1.16.12.48a1.89,1.89,0,0,1,0,.65q-.2,0-1.74-.13t-2.31-.1q-.8,0-2.21.1l-1.71.13a1,1,0,0,1-.13-.63q0-.5.13-.5a4,4,0,0,0,1.11-.25q.75-.25.81-.48a9.55,9.55,0,0,0,.27-2.42v-3.15a7.21,7.21,0,0,0-.75-3.85,2.67,2.67,0,0,0-2.37-1.1,3.07,3.07,0,0,0-1.86.58,1.6,1.6,0,0,0-.8,1.25v5.71a13.89,13.89,0,0,0,.23,3q.07.23.88.48a4.78,4.78,0,0,0,1.08.25c.09,0,.14.16.15.48a1.89,1.89,0,0,1,0,.65l-1.74-.13q-1.48-.1-2.24-.1t-2.31.1l-1.78.13a1,1,0,0,1-.13-.63q0-.5.13-.5a4.64,4.64,0,0,0,1.21-.25q.81-.25.88-.48a10.87,10.87,0,0,0,.23-2.42v-5.41a3.16,3.16,0,0,0-.53-2.12,1.6,1.6,0,0,0-.75-.5,3.79,3.79,0,0,0-.8-.2c-.21,0-.32-.05-.32-.1,0-.64.05-1,.17-1a47,47,0,0,0,5.35-1l.08,0,.1,0h.08c.09,0,.17.08.23.23a1,1,0,0,1,.1.37,11.28,11.28,0,0,0-.13,1.2.26.26,0,0,0,0,.17.5.5,0,0,0,.17-.1,7.36,7.36,0,0,1,2-1.39A5.81,5.81,0,0,1,219.08,332.56Z"/><path class="cls-1" d="M237.16,334.88h-2q-.23,0-.23-.86a.82.82,0,0,1,0-.3,9.29,9.29,0,0,0,2.56-1.76l.95-1q.51-.55,1.21-1.41a2.37,2.37,0,0,1,.63.08q.3.08.3.18v3.25l2.41,0,1.64,0c.18,0,.27.1.27.3a3.23,3.23,0,0,1-.33,1.46h-4v8a3.15,3.15,0,0,0,.56,2,1.9,1.9,0,0,0,1.56.7,3.15,3.15,0,0,0,.7-.08,3.53,3.53,0,0,0,.6-.18l.43-.2.23-.1q.13,0,.3.3t.13.43a3,3,0,0,1-1.41,1.08,5.23,5.23,0,0,1-2.37.61,4.19,4.19,0,0,1-2.94-1.11,4.44,4.44,0,0,1-1.21-3.44Z"/><path class="cls-1" d="M254.7,332.56a7.32,7.32,0,0,1,5.33,2.17,7.12,7.12,0,0,1,2.21,5.26,7.52,7.52,0,0,1-15,0,7.15,7.15,0,0,1,2.17-5.28A7.27,7.27,0,0,1,254.7,332.56Zm-.43,1.56a2.67,2.67,0,0,0-2.42,1.51,7.14,7.14,0,0,0-.86,3.6,9.68,9.68,0,0,0,1.08,4.68,3.31,3.31,0,0,0,3,2,2.71,2.71,0,0,0,2.44-1.53,7.06,7.06,0,0,0,.88-3.59,11.41,11.41,0,0,0-.43-3.2,5.86,5.86,0,0,0-1.39-2.47A3.08,3.08,0,0,0,254.26,334.12Z"/><path class="cls-1" d="M271.28,328.8a4.46,4.46,0,0,1,.35-1.71,5,5,0,0,1,.85-1.41,9,9,0,0,1,1-1,7,7,0,0,1,.93-.66,1.53,1.53,0,0,1,.48-.22,1,1,0,0,1,.51.23,1.14,1.14,0,0,1,.42.5,5.38,5.38,0,0,0-1.46,1.23,4.31,4.31,0,0,0-.71,1.11,1.39,1.39,0,0,0,.53,1.83,2.1,2.1,0,0,1,.68,1.21,1.23,1.23,0,0,1-.66,1,2.68,2.68,0,0,1-1.49.43,2.13,2.13,0,0,1-1-.23A4.21,4.21,0,0,1,271.28,328.8Zm4.85,0a4.46,4.46,0,0,1,.35-1.71,5,5,0,0,1,.85-1.41,9,9,0,0,1,1-1,7,7,0,0,1,.93-.66,1.53,1.53,0,0,1,.48-.22,1,1,0,0,1,.51.23,1.14,1.14,0,0,1,.42.5,5.63,5.63,0,0,0-1.48,1.23,4.19,4.19,0,0,0-.73,1.11,1.39,1.39,0,0,0,.53,1.83,2.1,2.1,0,0,1,.68,1.21,1.23,1.23,0,0,1-.66,1,2.63,2.63,0,0,1-1.46.43,2.19,2.19,0,0,1-1-.23A4.24,4.24,0,0,1,276.13,328.8Z"/><path class="cls-1" d="M287.26,347.13q-1,0-2.12,0t-1.76.12l-.66,0a.87.87,0,0,1-.1-.53q0-.56.1-.56A5.48,5.48,0,0,0,284,346q.83-.22,1-.51a12.06,12.06,0,0,0,.23-3V329.93a10.53,10.53,0,0,0-.23-2.72q-.1-.37-.93-.6a5.24,5.24,0,0,0-1.33-.23q-.13,0-.13-.5a.9.9,0,0,1,.13-.6q2.16.13,4.38.13,1.56,0,5.26-.1t5.46-.13q.13,1,.53,2.77t.43,1.94a1,1,0,0,1-.7.17c-.24,0-.4-.08-.46-.23a4.17,4.17,0,0,0-4.25-3h-1.73q-2.46,0-2.52.43a14.91,14.91,0,0,0-.17,2.69v5.21q0,.2,1.46.2h1.83a8.44,8.44,0,0,0,2.29-.17q.36-.17.56-1.16.1-.5.2-.83c0-.15.2-.23.53-.23a.9.9,0,0,1,.63.17v6.28a1,1,0,0,1-.63.13q-.43,0-.53-.27a10.51,10.51,0,0,0-.42-1.33,2,2,0,0,0-.23-.46l-.28-.2a9.14,9.14,0,0,0-3.05-.27q-2.36,0-2.36.27v5.21a8.09,8.09,0,0,0,.37,2.76q.13.33,1.2.63a6.66,6.66,0,0,0,1.43.3q.17,0,.17.56a1,1,0,0,1-.1.53Q288,347.13,287.26,347.13Z"/><path class="cls-1" d="M304.68,343.81a2.16,2.16,0,0,1,.65,1.56,2.22,2.22,0,0,1-.65,1.58,2.06,2.06,0,0,1-1.54.68,2.15,2.15,0,0,1-1.59-.68,2.19,2.19,0,0,1-.66-1.58,2.13,2.13,0,0,1,.66-1.56,2.17,2.17,0,0,1,1.59-.66A2.08,2.08,0,0,1,304.68,343.81Z"/><path class="cls-1" d="M311.91,325.45q.6,0,4.25-.2a2.2,2.2,0,0,1,.07.53c0,.38,0,.56-.13.56a5.72,5.72,0,0,0-1.2.25q-.9.25-.93.51a12.07,12.07,0,0,0-.27,2.92v7.64a9.12,9.12,0,0,0,1.48,5.46,4.78,4.78,0,0,0,4.1,2,5.31,5.31,0,0,0,4.1-1.68q1.54-1.68,1.54-5.56v-8.1a6.77,6.77,0,0,0-.33-2.66,2.29,2.29,0,0,0-1.18-.58,5.91,5.91,0,0,0-1.41-.28c-.09,0-.14-.15-.15-.46a1.07,1.07,0,0,1,.08-.6q3.59.23,4.18.23.83,0,2.21-.12t1.71-.12a2,2,0,0,1,.07.53c0,.35,0,.53-.13.53a6.36,6.36,0,0,0-1.43.25,2.16,2.16,0,0,0-1.26.68,7.43,7.43,0,0,0-.37,2.76v7.8a14.08,14.08,0,0,1-.63,4.47,7,7,0,0,1-1.79,3,7.25,7.25,0,0,1-2.64,1.58,10.53,10.53,0,0,1-3.37.5,8.25,8.25,0,0,1-6.28-2.41q-2.29-2.41-2.29-7.75V329.9a9.18,9.18,0,0,0-.27-2.79q-.13-.27-.93-.51a4.46,4.46,0,0,0-1.2-.25q-.13,0-.13-.5a1,1,0,0,1,.1-.6Z"/><path class="cls-1" d="M336,343.81a2.16,2.16,0,0,1,.65,1.56,2.22,2.22,0,0,1-.65,1.58,2.06,2.06,0,0,1-1.54.68,2.15,2.15,0,0,1-1.59-.68,2.19,2.19,0,0,1-.66-1.58,2.13,2.13,0,0,1,.66-1.56,2.17,2.17,0,0,1,1.59-.66A2.08,2.08,0,0,1,336,343.81Z"/><path class="cls-1" d="M341.41,342.48V329.93a10.53,10.53,0,0,0-.23-2.72q-.1-.37-.93-.6a5.24,5.24,0,0,0-1.33-.23q-.13,0-.13-.5a.9.9,0,0,1,.13-.6q2.19.1,4.42.1l2.86,0,2,0a9.84,9.84,0,0,1,4.71,1.21,4.9,4.9,0,0,1,1.84,1.78,5,5,0,0,1,.71,2.69,3.89,3.89,0,0,1-.7,2.22,5.37,5.37,0,0,1-1.31,1.44,5.5,5.5,0,0,1-1,.58q-.27.1-.13.2a5.38,5.38,0,0,1,2.74,1.74,5.23,5.23,0,0,1,1.51,3.8,5.36,5.36,0,0,1-2.31,4.55,10,10,0,0,1-6.13,1.66l-4.71,0-4.42.13a.87.87,0,0,1-.1-.53q0-.56.1-.56a5.48,5.48,0,0,0,1.26-.22q.83-.22,1-.51A12.06,12.06,0,0,0,341.41,342.48Zm7.6-7.8a2.93,2.93,0,0,0,2.42-3.25q0-4.48-3.82-4.48a8.88,8.88,0,0,0-2.12.17.33.33,0,0,0-.27.37l-.07,3.19v3.88q0,.33,2,.33A6.56,6.56,0,0,0,349,334.68Zm3.45,6.71a5.2,5.2,0,0,0-1.18-3.5,4.75,4.75,0,0,0-3.8-1.38,13.78,13.78,0,0,0-2.06.17.72.72,0,0,0-.27.66v6.18q0,1.39.4,1.73a4.16,4.16,0,0,0,2.13.33,6.8,6.8,0,0,0,1.43-.15,7.1,7.1,0,0,0,1.51-.53A3,3,0,0,0,352,343.6,4.44,4.44,0,0,0,352.47,341.39Z"/><path class="cls-1" d="M362.52,343.81a2.16,2.16,0,0,1,.65,1.56,2.22,2.22,0,0,1-.65,1.58,2.06,2.06,0,0,1-1.54.68,2.15,2.15,0,0,1-1.59-.68,2.19,2.19,0,0,1-.66-1.58,2.13,2.13,0,0,1,.66-1.56,2.17,2.17,0,0,1,1.59-.66A2.08,2.08,0,0,1,362.52,343.81Z"/><path class="cls-1" d="M369.75,325.45q.6,0,4.25-.2a2.2,2.2,0,0,1,.07.53c0,.38,0,.56-.13.56a5.72,5.72,0,0,0-1.2.25q-.9.25-.93.51a12.07,12.07,0,0,0-.27,2.92v7.64a9.12,9.12,0,0,0,1.48,5.46,4.78,4.78,0,0,0,4.1,2,5.31,5.31,0,0,0,4.1-1.68q1.54-1.68,1.54-5.56v-8.1a6.77,6.77,0,0,0-.33-2.66,2.29,2.29,0,0,0-1.18-.58,5.91,5.91,0,0,0-1.41-.28c-.09,0-.14-.15-.15-.46a1.07,1.07,0,0,1,.08-.6q3.59.23,4.18.23.83,0,2.21-.12t1.71-.12a2,2,0,0,1,.07.53c0,.35,0,.53-.13.53a6.36,6.36,0,0,0-1.43.25,2.16,2.16,0,0,0-1.26.68,7.43,7.43,0,0,0-.37,2.76v7.8a14.08,14.08,0,0,1-.63,4.47,7,7,0,0,1-1.79,3,7.25,7.25,0,0,1-2.64,1.58,10.53,10.53,0,0,1-3.37.5,8.25,8.25,0,0,1-6.28-2.41q-2.29-2.41-2.29-7.75V329.9a9.18,9.18,0,0,0-.27-2.79q-.13-.27-.93-.51a4.46,4.46,0,0,0-1.2-.25q-.13,0-.13-.5a1,1,0,0,1,.1-.6Z"/><path class="cls-1" d="M393.88,343.81a2.16,2.16,0,0,1,.65,1.56,2.22,2.22,0,0,1-.65,1.58,2.06,2.06,0,0,1-1.54.68,2.15,2.15,0,0,1-1.59-.68,2.19,2.19,0,0,1-.66-1.58,2.13,2.13,0,0,1,.66-1.56,2.17,2.17,0,0,1,1.59-.66A2.08,2.08,0,0,1,393.88,343.81Z"/><path class="cls-1" d="M152.73,5a10,10,0,0,0,.19-2.8c-.06-.19-.33-.41-.83-.66A4.48,4.48,0,0,0,151,1.09c-.09,0-.1-.19,0-.51a1.35,1.35,0,0,1,.16-.58l1.8.4c1.09.25,1.93.42,2.52.52l4.23.5a1.7,1.7,0,0,1,0,.54c-.06.37-.14.55-.22.54a5.38,5.38,0,0,0-1.22.07q-.93.12-1,.33a12.34,12.34,0,0,0-.74,2.84l-2,12.32a12.28,12.28,0,0,0-.19,3q0,.24.82.62a5.06,5.06,0,0,0,1.09.43c.09,0,.1.23,0,.64a1.45,1.45,0,0,1-.14.45l-4.13-.89q-.65-.11-1.38-.2l-1.6-.18-1.41-.15a.64.64,0,0,1-.06-.48c.07-.41.15-.61.23-.6a5.28,5.28,0,0,0,1.27,0q.87-.09,1-.34a11.6,11.6,0,0,0,.72-2.71Z"/><path class="cls-1" d="M162.21,11.6l-2-.33q-.23,0-.09-.89a.82.82,0,0,1,.08-.29A9.29,9.29,0,0,0,163,8.78L164.11,8q.6-.46,1.43-1.19a2.35,2.35,0,0,1,.61.19c.19.09.28.16.27.23l-.53,3.21,2.37.41,1.62.29c.17,0,.25.14.21.34a3.23,3.23,0,0,1-.57,1.39l-3.93-.65-1.31,7.89a3.15,3.15,0,0,0,.23,2.09,1.9,1.9,0,0,0,1.43.94,3.15,3.15,0,0,0,.7,0,3.51,3.51,0,0,0,.62-.08l.46-.13.25-.06q.13,0,.25.34a.79.79,0,0,1,.06.45,3,3,0,0,1-1.57.83,5.23,5.23,0,0,1-2.44.22,4.19,4.19,0,0,1-2.72-1.58,4.44,4.44,0,0,1-.63-3.59Z"/><path class="cls-1" d="M177.57,5.46A4.45,4.45,0,0,1,177,7.1a5,5,0,0,1-1.07,1.25,10,10,0,0,1-1.18.83,6.38,6.38,0,0,1-1,.51,1.54,1.54,0,0,1-.51.13,1,1,0,0,1-.47-.31,1.13,1.13,0,0,1-.33-.56A5.22,5.22,0,0,0,174,8a4.52,4.52,0,0,0,.89-1,2,2,0,0,0,.25-.61,2.08,2.08,0,0,0-.49-1.28,2.07,2.07,0,0,1-.49-1.31,1.21,1.21,0,0,1,.83-.87,2.76,2.76,0,0,1,1.56-.18,2.07,2.07,0,0,1,.88.38A4.21,4.21,0,0,1,177.57,5.46Z"/><path class="cls-1" d="M183.48,12.74a14.13,14.13,0,0,1,3.71,1.19,18.94,18.94,0,0,1-.25,3.73c0,.17-.19.24-.47.19-.48-.08-.73-.21-.74-.39a4,4,0,0,0-.64-2.11,2.59,2.59,0,0,0-1.85-1.13,2.38,2.38,0,0,0-1.56.18,1.47,1.47,0,0,0-.74,1.12,1.93,1.93,0,0,0,0,.87,2.06,2.06,0,0,0,.47.8,8.25,8.25,0,0,0,.63.64c.19.17.47.39.85.68a2.14,2.14,0,0,0,.3.22l.45.34.49.38.47.4a6.05,6.05,0,0,1,.51.47l.44.48a2.6,2.6,0,0,1,.42.54l.31.57a2.17,2.17,0,0,1,.25.65c0,.2.06.41.08.65a3.11,3.11,0,0,1,0,.72,3.91,3.91,0,0,1-2.13,3,6.3,6.3,0,0,1-4,.56,11.1,11.1,0,0,1-4.07-1.62,13.32,13.32,0,0,1,0-1.87,16,16,0,0,1,.15-1.91A.7.7,0,0,1,177,22c.5.08.75.21.74.39a3.67,3.67,0,0,0,.93,2.43A3.54,3.54,0,0,0,180.74,26a2.41,2.41,0,0,0,1.58-.21,1.62,1.62,0,0,0,.81-1.25,2.23,2.23,0,0,0,0-.62,1.63,1.63,0,0,0-.22-.61l-.3-.52a2.44,2.44,0,0,0-.52-.54l-.59-.48-.75-.56-.76-.58a7.71,7.71,0,0,1-2-2.14,3.54,3.54,0,0,1-.43-2.48,3.56,3.56,0,0,1,2.08-2.82A6.4,6.4,0,0,1,183.48,12.74Z"/><path class="cls-1" d="M205,16.34a7.32,7.32,0,0,1,4.9,3,7.12,7.12,0,0,1,1.32,5.55,7.52,7.52,0,0,1-14.84-2.46,7.15,7.15,0,0,1,3-4.85A7.27,7.27,0,0,1,205,16.34Zm-.68,1.47a2.67,2.67,0,0,0-2.64,1.09,7.14,7.14,0,0,0-1.44,3.41,9.69,9.69,0,0,0,.3,4.79,3.31,3.31,0,0,0,2.64,2.46,2.71,2.71,0,0,0,2.66-1.11,7.06,7.06,0,0,0,1.45-3.39,11.36,11.36,0,0,0,.1-3.23,5.86,5.86,0,0,0-1-2.67A3.08,3.08,0,0,0,204.36,17.81Z"/><path class="cls-1" d="M227.92,22.38q-.72.28-2.32,1.13a23.39,23.39,0,0,0-3,1.86q.78,1.17,2,3t1.95,3.08a15.62,15.62,0,0,0,1.09,1.56,4.21,4.21,0,0,0,1.15.86,4,4,0,0,0,1.05.44q.13,0,0,.58a2,2,0,0,1-.11.45l-3.81-.8q-.62-.1-1.27-.18l-1.42-.15L222,34.16a.91.91,0,0,1,0-.61q.08-.46.21-.44a2.37,2.37,0,0,0,.78,0c.3-.05.46-.13.48-.24s0-.07,0-.07l-3.9-6.13-.41,0-.34,2a13.46,13.46,0,0,0-.23,3q0,.24.81.62a4.81,4.81,0,0,0,1.11.44c.07,0,.08.18,0,.49a1.88,1.88,0,0,1-.15.63q-.22-.07-1.71-.42T216.36,33q-.79-.13-2.29-.28l-1.77-.16a1,1,0,0,1,0-.64q.08-.49.21-.47a4.64,4.64,0,0,0,1.24,0q.84-.11.95-.33a10.86,10.86,0,0,0,.63-2.35l2.25-13.59a13.09,13.09,0,0,0,.2-2.25q-.08-.55-1.62-.81l-.29,0q-.2,0-.11-.56c.06-.35.15-.51.28-.49q1,.07,2,.06t1.58-.08c.42,0,.79-.09,1.1-.15l1-.17h.07c.09,0,.17.09.23.22a.91.91,0,0,1,.11.37,10.74,10.74,0,0,0-.9,3l-1.81,10.94a3,3,0,0,0,1-.2q.79-.51,1.7-1l1.32-.77c.27-.16.55-.33.83-.52a3,3,0,0,0,.56-.46.79.79,0,0,0,.18-.37q.06-.36-.66-.56a3.26,3.26,0,0,1-.72-.24,1.46,1.46,0,0,1,0-.59c0-.23.1-.35.19-.36l3.18.53q.88.15,3.49.44a.52.52,0,0,1,.1.39,1.51,1.51,0,0,1-.1.49c-.06.15-.12.22-.18.2A4.36,4.36,0,0,0,227.92,22.38Z"/><path class="cls-1" d="M241.32,22.35a4.07,4.07,0,0,1,2.87,1.57,5.31,5.31,0,0,1,.41,3.82l-1.07,6.45a1.52,1.52,0,0,0,.13,1,1,1,0,0,0,.73.47,2.08,2.08,0,0,0,1.19-.24c.12.07.17.2.14.39a2,2,0,0,1-.36,1,8.27,8.27,0,0,1-1.45.6,3.45,3.45,0,0,1-1.64.17,2.42,2.42,0,0,1-1.38-.8,2.71,2.71,0,0,1-.75-1.37l-.28.17q-.24.15-.66.34a9.84,9.84,0,0,1-.94.38,5.37,5.37,0,0,1-1.19.26,4.84,4.84,0,0,1-1.32,0,4,4,0,0,1-2.52-1.34,3.16,3.16,0,0,1-.62-2.64,3.05,3.05,0,0,1,.62-1.41,4,4,0,0,1,1.09-1,6.81,6.81,0,0,1,1.55-.64,13.7,13.7,0,0,1,1.63-.39q.67-.11,1.72-.24l1.46-.2a.52.52,0,0,0,.38-.48l.3-1.8a2.85,2.85,0,0,0-.23-1.89,1.73,1.73,0,0,0-1.3-.89,2,2,0,0,0-1.64.35,2.48,2.48,0,0,0-.84,1.63,1.08,1.08,0,0,1-.65.89,2.06,2.06,0,0,1-1.17.13A1.87,1.87,0,0,1,234,25.57q.26-1.57,2.63-2.59A8.32,8.32,0,0,1,241.32,22.35Zm-3.56,12.33a2.58,2.58,0,0,0,1.6-.21,1.31,1.31,0,0,0,.81-.94l.55-3.34q-.25.06-1,.17t-1.2.21a9,9,0,0,0-1,.31,2,2,0,0,0-.89.59,1.82,1.82,0,0,0-.4.88,2,2,0,0,0,.27,1.63A1.91,1.91,0,0,0,237.77,34.68Z"/><path class="cls-1" d="M253,24.62q.72.12,2.08.24t1.69.18a2.25,2.25,0,0,1,0,.6c0,.31-.12.45-.21.44a3.62,3.62,0,0,0-1.07.07q-.75.13-.83.42l0,.2q0,.53,1.81,8,.36-.55,1.81-3t1.68-2.83a3.12,3.12,0,0,0,.36-1,1,1,0,0,0-.39-.89,2.73,2.73,0,0,0-1.51-.64q-.13,0,0-.51a.84.84,0,0,1,.22-.54q.39.06,1.59.36t2,.43q.69.11,1.7.18c.68,0,1.17.09,1.47.14a1,1,0,0,1,0,.55q-.09.52-.22.5a4.21,4.21,0,0,0-1.38.11,1.83,1.83,0,0,0-1.29.8l-8.39,13.49q-2.82,4.45-5.67,4a1.8,1.8,0,0,1-1.23-.68,1.55,1.55,0,0,1,.55-2.3q3.41.56,4.93-1.94l1.25-2.08L251,26.94a4.37,4.37,0,0,0-.27-.82,2,2,0,0,0-.84-.9,3.15,3.15,0,0,0-1-.42c-.09,0-.11-.17-.06-.48s.12-.54.2-.57l1.74.39Q252.25,24.49,253,24.62Z"/><path class="cls-1" d="M275.79,30.41l-2-.33q-.23,0-.09-.89a.83.83,0,0,1,.08-.29,9.3,9.3,0,0,0,2.81-1.32l1.09-.81q.6-.46,1.43-1.19a2.37,2.37,0,0,1,.61.19c.19.09.28.16.27.23l-.53,3.21,2.37.41,1.62.28c.17,0,.25.14.21.34a3.23,3.23,0,0,1-.57,1.39L279.16,31l-1.31,7.89a3.16,3.16,0,0,0,.23,2.09,1.9,1.9,0,0,0,1.43.94,3.13,3.13,0,0,0,.7,0,3.52,3.52,0,0,0,.62-.08l.46-.13.25-.06q.13,0,.25.34a.78.78,0,0,1,.06.45,3,3,0,0,1-1.57.83,5.24,5.24,0,0,1-2.44.22,4.19,4.19,0,0,1-2.72-1.58,4.44,4.44,0,0,1-.63-3.59Z"/><path class="cls-1" d="M293.47,31a7.32,7.32,0,0,1,4.9,3,7.12,7.12,0,0,1,1.32,5.55,7.52,7.52,0,0,1-14.84-2.46,7.15,7.15,0,0,1,3-4.85A7.27,7.27,0,0,1,293.47,31Zm-.68,1.47a2.67,2.67,0,0,0-2.64,1.09A7.14,7.14,0,0,0,288.71,37a9.69,9.69,0,0,0,.3,4.79,3.31,3.31,0,0,0,2.64,2.46,2.71,2.71,0,0,0,2.66-1.11,7.06,7.06,0,0,0,1.45-3.39,11.36,11.36,0,0,0,.1-3.23,5.85,5.85,0,0,0-1-2.67A3.08,3.08,0,0,0,292.79,32.45Z"/><path class="cls-1" d="M315.54,34.6a14.11,14.11,0,0,1,3.71,1.19,18.94,18.94,0,0,1-.25,3.73c0,.17-.19.24-.47.19q-.72-.12-.74-.39a4,4,0,0,0-.64-2.11,2.59,2.59,0,0,0-1.85-1.13,2.38,2.38,0,0,0-1.56.18,1.47,1.47,0,0,0-.74,1.12,1.94,1.94,0,0,0,0,.86,2.07,2.07,0,0,0,.47.8,8.08,8.08,0,0,0,.63.64q.28.25.85.68a2.13,2.13,0,0,0,.3.22l.45.34.49.38.47.4a6.21,6.21,0,0,1,.51.47l.44.48a2.65,2.65,0,0,1,.42.54l.31.57a2.17,2.17,0,0,1,.25.65,6.45,6.45,0,0,1,.08.65,3.11,3.11,0,0,1,0,.72,3.91,3.91,0,0,1-2.13,3,6.3,6.3,0,0,1-4,.56,11.1,11.1,0,0,1-4.07-1.62,13.29,13.29,0,0,1,0-1.87,16.17,16.17,0,0,1,.15-1.91.7.7,0,0,1,.48-.09c.5.08.75.21.74.39a3.67,3.67,0,0,0,.93,2.43,3.54,3.54,0,0,0,2.11,1.21,2.41,2.41,0,0,0,1.58-.21,1.62,1.62,0,0,0,.81-1.25,2.22,2.22,0,0,0,0-.62,1.63,1.63,0,0,0-.22-.61l-.3-.52a2.4,2.4,0,0,0-.52-.54l-.59-.48-.75-.56-.76-.58a7.73,7.73,0,0,1-2-2.14,3.84,3.84,0,0,1,1.65-5.3A6.4,6.4,0,0,1,315.54,34.6Z"/><path class="cls-1" d="M329.4,36.93a4.08,4.08,0,0,1,2.87,1.57,5.31,5.31,0,0,1,.41,3.82l-1.07,6.45a1.51,1.51,0,0,0,.13,1,1,1,0,0,0,.73.47,2.07,2.07,0,0,0,1.18-.24q.18.1.14.39a2,2,0,0,1-.36,1A8.19,8.19,0,0,1,332,52a3.46,3.46,0,0,1-1.64.17,2.42,2.42,0,0,1-1.38-.8,2.73,2.73,0,0,1-.75-1.37l-.28.17c-.16.1-.38.21-.66.34a9.93,9.93,0,0,1-.94.38,5.33,5.33,0,0,1-1.19.26,4.83,4.83,0,0,1-1.32,0,4,4,0,0,1-2.52-1.34,3.16,3.16,0,0,1-.62-2.64,3.06,3.06,0,0,1,.62-1.41,4,4,0,0,1,1.09-1,6.82,6.82,0,0,1,1.55-.63,13.66,13.66,0,0,1,1.63-.39l1.72-.24,1.46-.2a.52.52,0,0,0,.38-.48l.3-1.8a2.85,2.85,0,0,0-.23-1.89,1.73,1.73,0,0,0-1.3-.89,2,2,0,0,0-1.64.35,2.49,2.49,0,0,0-.84,1.63,1.08,1.08,0,0,1-.65.88,2.07,2.07,0,0,1-1.17.13A1.87,1.87,0,0,1,322,40.15q.26-1.57,2.63-2.59A8.33,8.33,0,0,1,329.4,36.93Zm-3.56,12.33a2.58,2.58,0,0,0,1.6-.21,1.31,1.31,0,0,0,.81-.94l.55-3.34q-.25.06-1,.17c-.52.07-.92.14-1.2.21a9.17,9.17,0,0,0-1,.31,2,2,0,0,0-.89.59,1.82,1.82,0,0,0-.4.88,2,2,0,0,0,.27,1.63A1.91,1.91,0,0,0,325.84,49.26Z"/><path class="cls-1" d="M341.11,39.2q.72.12,2.08.24t1.69.18a2.21,2.21,0,0,1,0,.6c0,.31-.12.45-.21.44a3.63,3.63,0,0,0-1.07.07c-.5.09-.77.23-.83.42l0,.2q0,.54,1.81,8,.36-.55,1.81-3T348,43.47a3.12,3.12,0,0,0,.36-1,1,1,0,0,0-.39-.89,2.74,2.74,0,0,0-1.51-.64q-.13,0,0-.51a.84.84,0,0,1,.22-.54q.39.07,1.59.36t2,.43q.69.11,1.7.18c.68,0,1.17.09,1.47.14a1,1,0,0,1,0,.55c-.06.35-.13.52-.22.5a4.2,4.2,0,0,0-1.38.11,1.83,1.83,0,0,0-1.29.8l-8.39,13.49q-2.82,4.45-5.67,4a1.79,1.79,0,0,1-1.23-.68,1.55,1.55,0,0,1,.55-2.3q3.41.56,4.93-1.94L342,53.45,339,41.52a4.31,4.31,0,0,0-.27-.82,2,2,0,0,0-.84-.9,3.13,3.13,0,0,0-1-.42c-.09,0-.11-.17-.06-.48s.12-.54.2-.57l1.74.39Q340.32,39.07,341.11,39.2Z"/><path class="cls-1" d="M463.3,89.47a4.46,4.46,0,0,1-.33,1.71,5,5,0,0,1-.83,1.42,9,9,0,0,1-1,1,6.9,6.9,0,0,1-.92.68,1.53,1.53,0,0,1-.48.22,1,1,0,0,1-.52-.23,1.13,1.13,0,0,1-.42-.49,5.37,5.37,0,0,0,1.44-1.25,4.29,4.29,0,0,0,.7-1.12,2.06,2.06,0,0,0,.14-.65,2.09,2.09,0,0,0-.7-1.17,2.1,2.1,0,0,1-.7-1.2,1.23,1.23,0,0,1,.65-1,2.68,2.68,0,0,1,1.49-.45,2.12,2.12,0,0,1,1,.22A4.21,4.21,0,0,1,463.3,89.47Zm-4.85.07a4.46,4.46,0,0,1-.32,1.71,5,5,0,0,1-.83,1.42,9,9,0,0,1-1,1,6.93,6.93,0,0,1-.92.68,1.54,1.54,0,0,1-.48.22,1,1,0,0,1-.52-.23,1.13,1.13,0,0,1-.42-.49,5.62,5.62,0,0,0,1.46-1.25,4.17,4.17,0,0,0,.71-1.12,2.06,2.06,0,0,0,.14-.65,2.09,2.09,0,0,0-.7-1.17,2.1,2.1,0,0,1-.7-1.2,1.23,1.23,0,0,1,.65-1A2.63,2.63,0,0,1,457,87a2.19,2.19,0,0,1,1,.22A4.25,4.25,0,0,1,458.45,89.53Z"/><path class="cls-1" d="M385.62,195a4.46,4.46,0,0,1-.35,1.71,5,5,0,0,1-.85,1.41,9,9,0,0,1-1,1,7,7,0,0,1-.93.66,1.54,1.54,0,0,1-.48.22,1,1,0,0,1-.51-.23,1.14,1.14,0,0,1-.42-.5A5.38,5.38,0,0,0,382.5,198a4.32,4.32,0,0,0,.71-1.11,1.39,1.39,0,0,0-.53-1.83,2.1,2.1,0,0,1-.68-1.21,1.23,1.23,0,0,1,.66-1,2.68,2.68,0,0,1,1.49-.43,2.12,2.12,0,0,1,1,.23A4.21,4.21,0,0,1,385.62,195Zm-4.85,0a4.46,4.46,0,0,1-.35,1.71,5,5,0,0,1-.85,1.41,9,9,0,0,1-1,1,7,7,0,0,1-.93.66,1.54,1.54,0,0,1-.48.22,1,1,0,0,1-.51-.23,1.14,1.14,0,0,1-.42-.5,5.64,5.64,0,0,0,1.48-1.23,4.19,4.19,0,0,0,.73-1.11,1.39,1.39,0,0,0-.53-1.83,2.1,2.1,0,0,1-.68-1.21,1.23,1.23,0,0,1,.66-1,2.62,2.62,0,0,1,1.46-.43,2.19,2.19,0,0,1,1,.23A4.24,4.24,0,0,1,380.77,195Z"/><path class="cls-1" d="M493.83,140.85a4.42,4.42,0,0,1-.32,1.72,5,5,0,0,1-.82,1.42,9.08,9.08,0,0,1-1,1,7.07,7.07,0,0,1-.92.68,1.52,1.52,0,0,1-.48.22,1,1,0,0,1-.52-.22,1.15,1.15,0,0,1-.42-.49,5.39,5.39,0,0,0,1.44-1.25,4.33,4.33,0,0,0,.7-1.12,2.09,2.09,0,0,0,.14-.65,2.11,2.11,0,0,0-.7-1.17,2.09,2.09,0,0,1-.7-1.2,1.23,1.23,0,0,1,.65-1,2.69,2.69,0,0,1,1.49-.45,2.12,2.12,0,0,1,1,.22A4.21,4.21,0,0,1,493.83,140.85Z"/><path class="cls-1" d="M484.46,145.28a5.67,5.67,0,0,0,1.46-1.25,4.24,4.24,0,0,0,.71-1.12,1.4,1.4,0,0,0-.56-1.82,2.09,2.09,0,0,1-.7-1.2,1.23,1.23,0,0,1,.65-1,2.62,2.62,0,0,1,1.45-.45,2.19,2.19,0,0,1,1,.22,4.24,4.24,0,0,1,.5,2.32,4.5,4.5,0,0,1-.32,1.72,5,5,0,0,1-.82,1.42,9,9,0,0,1-1,1,6.83,6.83,0,0,1-.92.68,1.52,1.52,0,0,1-.48.22,1,1,0,0,1-.52-.22"/><path class="cls-1" d="M401.31,326.31A4.46,4.46,0,0,1,401,328a5,5,0,0,1-.85,1.41,9,9,0,0,1-1,1,7,7,0,0,1-.93.66,1.53,1.53,0,0,1-.48.22,1,1,0,0,1-.51-.23,1.14,1.14,0,0,1-.42-.5,5.38,5.38,0,0,0,1.46-1.23,4.31,4.31,0,0,0,.71-1.11,1.39,1.39,0,0,0-.53-1.83,2.1,2.1,0,0,1-.68-1.21,1.23,1.23,0,0,1,.66-1,2.68,2.68,0,0,1,1.49-.43,2.13,2.13,0,0,1,1,.23A4.21,4.21,0,0,1,401.31,326.31Z"/><path class="cls-1" d="M391.88,330.6a5.63,5.63,0,0,0,1.48-1.23,4.19,4.19,0,0,0,.73-1.11,1.39,1.39,0,0,0-.53-1.83,2.1,2.1,0,0,1-.68-1.21,1.23,1.23,0,0,1,.66-1,2.63,2.63,0,0,1,1.46-.43,2.19,2.19,0,0,1,1,.23,4.24,4.24,0,0,1,.46,2.32,4.46,4.46,0,0,1-.35,1.71,5,5,0,0,1-.85,1.41,9,9,0,0,1-1,1,7,7,0,0,1-.93.66,1.53,1.53,0,0,1-.48.22,1,1,0,0,1-.51-.23,1.14,1.14,0,0,1-.42-.5"/></svg>