<svg id="Layer_1" data-name="Layer 1" xmlns="http://www.w3.org/2000/svg" viewBox="0 0 953.48 222.35"><defs><style>.cls-1{fill:#1928eb;}</style></defs><title>pull-quote-2</title><path class="cls-1" d="M2.58,14.63a9.91,9.91,0,0,0-.3-2.79q-.13-.26-.94-.5a4.46,4.46,0,0,0-1.2-.23c-.09,0-.13-.16-.14-.5A1.3,1.3,0,0,1,.06,10l1.84.07q1.68.08,2.58.06L8.72,9.9a1.67,1.67,0,0,1,.11.53c0,.38,0,.56-.12.57a5.41,5.41,0,0,0-1.19.28q-.89.28-1,.51a12.33,12.33,0,0,0-.22,2.93L6.5,27.2a12.4,12.4,0,0,0,.34,3q.07.23.92.47a5.1,5.1,0,0,0,1.15.23q.13,0,.14.63A1.47,1.47,0,0,1,9,32l-4.22-.14q-.67,0-1.39.05L1.77,32l-1.41.1a.65.65,0,0,1-.14-.46c0-.42,0-.63.13-.63a5.3,5.3,0,0,0,1.24-.25c.56-.16.88-.33.94-.51a11.61,11.61,0,0,0,.23-2.79Z"/><path class="cls-1" d="M13.08,19.47l-2,0c-.15,0-.24-.28-.24-.86a.83.83,0,0,1,0-.3,9.29,9.29,0,0,0,2.53-1.8l.93-1q.51-.55,1.19-1.43a2.38,2.38,0,0,1,.63.07c.2.05.3.11.3.18l0,3.25,2.41,0h1.64q.27,0,.27.3a3.22,3.22,0,0,1-.31,1.47l-4,.06.11,8a3.15,3.15,0,0,0,.59,2,1.9,1.9,0,0,0,1.57.68,3.16,3.16,0,0,0,.7-.09,3.52,3.52,0,0,0,.6-.19l.43-.21a1,1,0,0,1,.23-.1c.09,0,.19.08.3.29a.79.79,0,0,1,.14.43,3.05,3.05,0,0,1-1.4,1.1,5.23,5.23,0,0,1-2.37.65,4.19,4.19,0,0,1-3-1.07,4.44,4.44,0,0,1-1.26-3.42Z"/><path class="cls-1" d="M27.11,10.71a4.46,4.46,0,0,1-.33,1.71A5,5,0,0,1,26,13.85a10,10,0,0,1-1,1,6.4,6.4,0,0,1-.9.68,1.52,1.52,0,0,1-.48.22,1,1,0,0,1-.52-.23,1.13,1.13,0,0,1-.42-.49,5.23,5.23,0,0,0,1.44-1.27,4.57,4.57,0,0,0,.7-1.14,2.08,2.08,0,0,0,.14-.65,2.08,2.08,0,0,0-.71-1.17,2.08,2.08,0,0,1-.71-1.2,1.21,1.21,0,0,1,.67-1,2.76,2.76,0,0,1,1.51-.45,2.07,2.07,0,0,1,.93.22A4.21,4.21,0,0,1,27.11,10.71Z"/><path class="cls-1" d="M34.21,16.82a14.13,14.13,0,0,1,3.86.51A18.9,18.9,0,0,1,38.49,21c0,.18-.14.27-.43.27-.49,0-.75-.08-.8-.25a4,4,0,0,0-1-2,2.59,2.59,0,0,0-2-.79,2.38,2.38,0,0,0-1.5.45A1.48,1.48,0,0,0,32.2,20a2,2,0,0,0,.2.84,2.05,2.05,0,0,0,.61.71,8.11,8.11,0,0,0,.74.52c.21.13.53.3,1,.52a2.09,2.09,0,0,0,.34.16l.5.26.55.29.54.31a6.13,6.13,0,0,1,.59.37l.52.39a2.64,2.64,0,0,1,.5.46l.41.51a2.15,2.15,0,0,1,.36.59,6,6,0,0,1,.19.63,3.1,3.1,0,0,1,.09.71,3.91,3.91,0,0,1-1.56,3.33,6.3,6.3,0,0,1-3.88,1.27A11.09,11.09,0,0,1,29.53,31a13,13,0,0,1-.36-1.84A16.23,16.23,0,0,1,29,27.25a.71.71,0,0,1,.46-.17c.51,0,.78.08.8.25a3.66,3.66,0,0,0,1.34,2.22,3.54,3.54,0,0,0,2.29.82,2.42,2.42,0,0,0,1.52-.49A1.61,1.61,0,0,0,36,28.52a2.18,2.18,0,0,0-.09-.61,1.65,1.65,0,0,0-.32-.56l-.39-.46a2.43,2.43,0,0,0-.6-.44l-.67-.37-.84-.42-.85-.44a7.71,7.71,0,0,1-2.38-1.74A3.54,3.54,0,0,1,29,21.11,3.56,3.56,0,0,1,30.51,18,6.4,6.4,0,0,1,34.21,16.82Z"/><path class="cls-1" d="M56.08,16.55a7.33,7.33,0,0,1,5.36,2.1,7.12,7.12,0,0,1,2.28,5.23,7.54,7.54,0,0,1-12.78,5.46,7.19,7.19,0,0,1-2.26-5.25,7.15,7.15,0,0,1,2.1-5.31A7.27,7.27,0,0,1,56.08,16.55Zm-.41,1.57a2.67,2.67,0,0,0-2.4,1.54,7.15,7.15,0,0,0-.81,3.61,9.69,9.69,0,0,0,1.14,4.67,3.31,3.31,0,0,0,3,2A2.71,2.71,0,0,0,59,28.33a7.05,7.05,0,0,0,.83-3.6,11.4,11.4,0,0,0-.48-3.2A5.85,5.85,0,0,0,58,19.08,3.08,3.08,0,0,0,55.67,18.12Z"/><path class="cls-1" d="M79.65,18.45Q79,18.86,77.57,20A23.4,23.4,0,0,0,75,22.33q1,1,2.46,2.66t2.46,2.69A15.86,15.86,0,0,0,81.23,29a4.19,4.19,0,0,0,1.29.65,4,4,0,0,0,1.12.25q.13,0,.14.56a1.87,1.87,0,0,1,0,.47l-3.89-.11q-.63,0-1.28.05l-1.43.1-1.24.1a.9.9,0,0,1-.14-.6c0-.31,0-.47.13-.47a2.38,2.38,0,0,0,.76-.16q.43-.16.43-.32s0-.07,0-.07l-4.92-5.34-.4.11,0,2.06a13.45,13.45,0,0,0,.31,3c0,.15.35.31.9.47a4.81,4.81,0,0,0,1.17.23c.07,0,.11.16.12.48a1.86,1.86,0,0,1,0,.65q-.23,0-1.76-.11t-2.29-.07q-.8,0-2.3.13l-1.78.16a1,1,0,0,1-.14-.63c0-.33,0-.5.13-.5a4.64,4.64,0,0,0,1.21-.27q.81-.26.87-.49a11,11,0,0,0,.2-2.43l-.19-13.78a13.05,13.05,0,0,0-.2-2.26q-.17-.53-1.73-.51h-.3c-.13,0-.2-.17-.21-.53s.06-.53.19-.53c.69-.08,1.34-.17,2-.29s1.13-.24,1.54-.35.76-.23,1.06-.35L71.41,8h.07a.36.36,0,0,1,.27.18.91.91,0,0,1,.17.35,10.67,10.67,0,0,0-.36,3.13l.15,11.09a3,3,0,0,0,1-.38q.69-.64,1.49-1.33l1.16-1q.36-.3.72-.66a3,3,0,0,0,.47-.55.78.78,0,0,0,.11-.4c0-.24-.25-.39-.75-.44a3.28,3.28,0,0,1-.75-.11,1.46,1.46,0,0,1-.11-.58c0-.23,0-.36.13-.38l3.22,0q.9,0,3.52-.18a.52.52,0,0,1,.17.36,1.51,1.51,0,0,1,0,.5q0,.23-.15.23A4.35,4.35,0,0,0,79.65,18.45Z"/><path class="cls-1" d="M92.84,16a4.08,4.08,0,0,1,3.1,1A5.31,5.31,0,0,1,97,20.77l.09,6.54a1.51,1.51,0,0,0,.31,1,1,1,0,0,0,.8.34,2.07,2.07,0,0,0,1.12-.45c.13,0,.2.16.21.36a2,2,0,0,1-.19,1,8.23,8.23,0,0,1-1.32.85,3.47,3.47,0,0,1-1.59.45,2.42,2.42,0,0,1-1.5-.54,2.7,2.7,0,0,1-1-1.21l-.25.22q-.21.19-.59.46a10,10,0,0,1-.86.54,5.34,5.34,0,0,1-1.12.46,4.82,4.82,0,0,1-1.31.2,4,4,0,0,1-2.72-.88,3.15,3.15,0,0,1-1.08-2.49,3.06,3.06,0,0,1,.36-1.5,4,4,0,0,1,.9-1.16,6.8,6.8,0,0,1,1.42-.9,13.71,13.71,0,0,1,1.54-.67c.43-.15,1-.33,1.65-.54l1.4-.45a.52.52,0,0,0,.29-.54l0-1.83A2.86,2.86,0,0,0,93,18.23a1.74,1.74,0,0,0-1.44-.64,2,2,0,0,0-1.55.64A2.48,2.48,0,0,0,89.51,20,1.08,1.08,0,0,1,89,21a2.07,2.07,0,0,1-1.12.33,1.87,1.87,0,0,1-1.74-.77q0-1.59,2.13-3A8.32,8.32,0,0,1,92.84,16ZM91.52,28.81a2.58,2.58,0,0,0,1.54-.49,1.32,1.32,0,0,0,.63-1.07l0-3.39c-.15.07-.48.18-1,.35s-.88.3-1.14.41a9.19,9.19,0,0,0-.92.48,2,2,0,0,0-.77.74,1.84,1.84,0,0,0-.24.93,2,2,0,0,0,.55,1.55A1.91,1.91,0,0,0,91.52,28.81Z"/><path class="cls-1" d="M104.77,16.21q.73,0,2.09-.13t1.69-.12a2.32,2.32,0,0,1,.07.6c0,.31,0,.47-.13.47a3.63,3.63,0,0,0-1,.26c-.47.17-.72.36-.74.56V18q.07.53,3.19,7.53.25-.6,1.25-3.29t1.15-3.09a3.15,3.15,0,0,0,.19-1,1,1,0,0,0-.54-.81,2.74,2.74,0,0,0-1.6-.36c-.09,0-.13-.16-.14-.5a.83.83,0,0,1,.13-.57c.27,0,.81,0,1.63.08s1.5.08,2,.07,1,0,1.71-.12,1.17-.12,1.48-.12a1,1,0,0,1,.14.53c0,.35,0,.53-.12.53a4.2,4.2,0,0,0-1.34.35,1.84,1.84,0,0,0-1.13,1L108.86,33q-2,4.88-4.88,4.92a1.8,1.8,0,0,1-1.33-.45,1.55,1.55,0,0,1,.13-2.36q3.45,0,4.51-2.79l.87-2.27-5-11.22a4.36,4.36,0,0,0-.41-.76,2,2,0,0,0-1-.73,3.14,3.14,0,0,0-1.08-.23c-.09,0-.13-.15-.14-.46s0-.55.09-.6l1.78.08Q104,16.22,104.77,16.21Z"/><path class="cls-1" d="M128.19,17.88l-2,0c-.15,0-.24-.28-.24-.86a.83.83,0,0,1,0-.3,9.31,9.31,0,0,0,2.53-1.8q.42-.44.93-1t1.19-1.43a2.37,2.37,0,0,1,.63.07c.2.05.3.11.3.18l0,3.25L134,16h1.64q.27,0,.27.3a3.22,3.22,0,0,1-.31,1.47l-4,.06.11,8a3.15,3.15,0,0,0,.59,2,1.9,1.9,0,0,0,1.57.68,3.13,3.13,0,0,0,.7-.09,3.48,3.48,0,0,0,.6-.19l.43-.21a1,1,0,0,1,.23-.1c.09,0,.19.08.3.29a.79.79,0,0,1,.14.43,3.05,3.05,0,0,1-1.4,1.1,5.23,5.23,0,0,1-2.37.65,4.19,4.19,0,0,1-3-1.07,4.45,4.45,0,0,1-1.26-3.42Z"/><path class="cls-1" d="M145.7,15.31a7.33,7.33,0,0,1,5.36,2.1,7.12,7.12,0,0,1,2.28,5.23,7.52,7.52,0,0,1-15,.21,7.15,7.15,0,0,1,2.1-5.31A7.27,7.27,0,0,1,145.7,15.31Zm-.41,1.57a2.67,2.67,0,0,0-2.4,1.54,7.15,7.15,0,0,0-.81,3.61,9.69,9.69,0,0,0,1.14,4.67,3.31,3.31,0,0,0,3,2,2.71,2.71,0,0,0,2.42-1.56,7.05,7.05,0,0,0,.83-3.6,11.4,11.4,0,0,0-.48-3.2,5.85,5.85,0,0,0-1.43-2.45A3.08,3.08,0,0,0,145.29,16.88Z"/><path class="cls-1" d="M168.06,15a14.11,14.11,0,0,1,3.86.51,18.9,18.9,0,0,1,.42,3.71c0,.18-.14.27-.43.27-.49,0-.75-.08-.8-.25a4,4,0,0,0-1-2,2.59,2.59,0,0,0-2-.79,2.38,2.38,0,0,0-1.5.45,1.47,1.47,0,0,0-.53,1.24,1.93,1.93,0,0,0,.19.84,2.08,2.08,0,0,0,.61.71,8.11,8.11,0,0,0,.74.52c.21.13.53.3,1,.52a2.09,2.09,0,0,0,.34.16l.5.26.55.29.54.31a6.13,6.13,0,0,1,.59.37l.52.39a2.65,2.65,0,0,1,.5.46l.41.51a2.15,2.15,0,0,1,.36.59,5.94,5.94,0,0,1,.19.63,3.1,3.1,0,0,1,.09.71,3.91,3.91,0,0,1-1.56,3.33A6.3,6.3,0,0,1,167.67,30a11.09,11.09,0,0,1-4.29-.87,13,13,0,0,1-.36-1.84,16.23,16.23,0,0,1-.19-1.91.71.71,0,0,1,.46-.17c.51,0,.78.08.8.25a3.66,3.66,0,0,0,1.34,2.22,3.54,3.54,0,0,0,2.29.82,2.42,2.42,0,0,0,1.52-.49,1.61,1.61,0,0,0,.58-1.37,2.18,2.18,0,0,0-.09-.61,1.65,1.65,0,0,0-.32-.56L169,25a2.42,2.42,0,0,0-.6-.44l-.67-.37-.84-.42-.85-.44a7.71,7.71,0,0,1-2.38-1.74,3.54,3.54,0,0,1-.86-2.36,3.56,3.56,0,0,1,1.55-3.14A6.4,6.4,0,0,1,168.06,15Z"/><path class="cls-1" d="M182.11,14.81a4.08,4.08,0,0,1,3.1,1,5.3,5.3,0,0,1,1.08,3.69l.09,6.54a1.51,1.51,0,0,0,.31,1,1,1,0,0,0,.8.34,2.08,2.08,0,0,0,1.12-.45c.13,0,.2.16.21.36a2,2,0,0,1-.19,1,8.32,8.32,0,0,1-1.32.85,3.45,3.45,0,0,1-1.59.45,2.42,2.42,0,0,1-1.5-.54,2.72,2.72,0,0,1-1-1.22l-.25.22q-.21.19-.59.46a9.61,9.61,0,0,1-.86.54,5.26,5.26,0,0,1-1.12.46,4.82,4.82,0,0,1-1.31.2,4,4,0,0,1-2.72-.88,3.15,3.15,0,0,1-1.08-2.49,3.06,3.06,0,0,1,.36-1.5,4,4,0,0,1,.9-1.16,6.8,6.8,0,0,1,1.42-.9,13.66,13.66,0,0,1,1.54-.67q.64-.22,1.65-.54l1.41-.45a.52.52,0,0,0,.29-.54l0-1.83A2.85,2.85,0,0,0,182.3,17a1.73,1.73,0,0,0-1.44-.64,2,2,0,0,0-1.55.64,2.49,2.49,0,0,0-.54,1.75,1.07,1.07,0,0,1-.48,1,2.06,2.06,0,0,1-1.12.33,1.87,1.87,0,0,1-1.74-.77q0-1.59,2.13-3A8.33,8.33,0,0,1,182.11,14.81Zm-1.32,12.77a2.57,2.57,0,0,0,1.54-.49A1.31,1.31,0,0,0,183,26l0-3.39q-.23.1-1,.35c-.5.16-.87.3-1.14.41a9,9,0,0,0-.92.48,2,2,0,0,0-.77.74,1.84,1.84,0,0,0-.24.93,2.05,2.05,0,0,0,.55,1.55A1.91,1.91,0,0,0,180.79,27.58Z"/><path class="cls-1" d="M194,15c.49,0,1.18,0,2.09-.13s1.47-.12,1.69-.12a2.32,2.32,0,0,1,.07.6c0,.31,0,.47-.13.47a3.62,3.62,0,0,0-1,.26q-.71.26-.74.56v.2q.07.53,3.19,7.53.25-.6,1.25-3.29T201.58,18a3.15,3.15,0,0,0,.19-1,1,1,0,0,0-.54-.81,2.74,2.74,0,0,0-1.6-.36c-.09,0-.13-.16-.14-.5a.83.83,0,0,1,.13-.57c.27,0,.81,0,1.63.08s1.5.08,2,.07,1,0,1.71-.12,1.17-.12,1.48-.12a1,1,0,0,1,.14.53c0,.35,0,.53-.12.53a4.22,4.22,0,0,0-1.34.35A1.83,1.83,0,0,0,204,17l-5.87,14.76q-2,4.88-4.88,4.92a1.8,1.8,0,0,1-1.33-.45A1.55,1.55,0,0,1,192,33.9q3.45,0,4.51-2.79l.87-2.27-5-11.22a4.35,4.35,0,0,0-.41-.76,2,2,0,0,0-1-.73,3.14,3.14,0,0,0-1.08-.23c-.09,0-.13-.15-.14-.46s0-.55.09-.6l1.78.07Q193.24,15,194,15Z"/><path class="cls-1" d="M215.08,10.6a4.46,4.46,0,0,1,.32-1.71,5,5,0,0,1,.83-1.42,8.94,8.94,0,0,1,1-1,6.8,6.8,0,0,1,.92-.68,1.53,1.53,0,0,1,.48-.22,1,1,0,0,1,.52.23,1.13,1.13,0,0,1,.42.49,5.35,5.35,0,0,0-1.44,1.25,4.3,4.3,0,0,0-.7,1.12,2.09,2.09,0,0,0-.14.65,2.1,2.1,0,0,0,.7,1.17,2.1,2.1,0,0,1,.7,1.2,1.23,1.23,0,0,1-.65,1,2.68,2.68,0,0,1-1.49.45,2.13,2.13,0,0,1-1-.22A4.21,4.21,0,0,1,215.08,10.6Zm4.85-.07a4.46,4.46,0,0,1,.33-1.71,5,5,0,0,1,.83-1.42,9.09,9.09,0,0,1,1-1A6.78,6.78,0,0,1,223,5.7a1.53,1.53,0,0,1,.48-.22,1,1,0,0,1,.52.23,1.13,1.13,0,0,1,.42.49A5.63,5.63,0,0,0,223,7.44a4.19,4.19,0,0,0-.71,1.12,2.08,2.08,0,0,0-.14.65,2.1,2.1,0,0,0,.7,1.17,2.1,2.1,0,0,1,.7,1.2,1.23,1.23,0,0,1-.65,1,2.63,2.63,0,0,1-1.46.45,2.19,2.19,0,0,1-1-.22A4.25,4.25,0,0,1,219.93,10.54Z"/><path class="cls-1" d="M228.42,16.5l-2,0c-.15,0-.24-.28-.24-.86a.83.83,0,0,1,0-.3,9.3,9.3,0,0,0,2.53-1.79l.93-1q.51-.55,1.19-1.43a2.37,2.37,0,0,1,.63.07c.2.05.3.11.3.18l0,3.25,2.41,0h1.64q.27,0,.27.3a3.22,3.22,0,0,1-.31,1.47l-4,.05.11,8a3.15,3.15,0,0,0,.59,2,1.9,1.9,0,0,0,1.57.68,3.16,3.16,0,0,0,.7-.09,3.54,3.54,0,0,0,.6-.19l.43-.21a1,1,0,0,1,.23-.1c.09,0,.19.08.3.29a.79.79,0,0,1,.14.43,3.05,3.05,0,0,1-1.4,1.1,5.23,5.23,0,0,1-2.37.65,4.19,4.19,0,0,1-3-1.07,4.44,4.44,0,0,1-1.26-3.42Z"/><path class="cls-1" d="M249.28,13.88q4.25-.06,4.34,6.48l0,3.42a12.29,12.29,0,0,0,.31,3c0,.15.32.31.89.47a5.1,5.1,0,0,0,1.15.23c.07,0,.11.16.12.48a3.33,3.33,0,0,1,0,.65q-.23,0-1.78-.11t-2.28-.07q-.83,0-2.24.13l-1.74.16a1.25,1.25,0,0,1-.11-.63q0-.5.09-.5a4,4,0,0,0,1.14-.26q.74-.26.84-.49a12.43,12.43,0,0,0,.17-2.43l0-3.25a6.93,6.93,0,0,0-.8-3.79,2.72,2.72,0,0,0-2.39-1,3.18,3.18,0,0,0-1.82.59,1.57,1.57,0,0,0-.81,1.27l.08,5.71a12.09,12.09,0,0,0,.31,3c0,.15.34.31.89.47a4.69,4.69,0,0,0,1.12.23c.07,0,.11.16.12.48a1.87,1.87,0,0,1,0,.65l-1.74-.11q-1.48-.08-2.24-.07t-2.3.13l-1.78.16a1,1,0,0,1-.14-.63c0-.33,0-.5.13-.5a4.65,4.65,0,0,0,1.21-.27q.81-.26.87-.49a10.68,10.68,0,0,0,.2-2.39l-.19-13.81a13.05,13.05,0,0,0-.2-2.26Q240.46,8,238.9,8h-.3c-.13,0-.2-.17-.21-.53s.06-.53.19-.53c.69-.08,1.34-.17,2-.29s1.13-.24,1.54-.35.76-.23,1.06-.35l.94-.35h.07a.36.36,0,0,1,.27.18.91.91,0,0,1,.17.35,10.67,10.67,0,0,0-.36,3.13l.09,6.71c0,.13,0,.2.14.2s.07,0,.13-.1a6.31,6.31,0,0,1,2-1.47A6.12,6.12,0,0,1,249.28,13.88Z"/><path class="cls-1" d="M264,23.64a12.09,12.09,0,0,0,.31,3c0,.15.35.31.9.47a4.87,4.87,0,0,0,1.13.23c.09,0,.14.16.16.48a1.87,1.87,0,0,1,0,.65q-.23,0-1.78-.11t-2.28-.07q-.83,0-2.34.13t-1.74.16a1,1,0,0,1-.14-.63c0-.33,0-.5.13-.5a4.79,4.79,0,0,0,1.19-.27q.83-.26.89-.49a11,11,0,0,0,.2-2.43l-.08-5.41a3.15,3.15,0,0,0-.56-2.12,1.84,1.84,0,0,0-.77-.49,3.47,3.47,0,0,0-.8-.19c-.22,0-.33-.05-.33-.1q0-1,.19-1a25.62,25.62,0,0,0,2.68-.44,26.11,26.11,0,0,0,2.62-.63l.26-.07c.11,0,.2.08.27.23a.6.6,0,0,1,.07.36,27.86,27.86,0,0,0-.22,2.86ZM260.35,9.8a2,2,0,0,1-.62-1.45,2.06,2.06,0,0,1,4.12-.06,2,2,0,0,1-.58,1.47,2,2,0,0,1-2.92,0Z"/><path class="cls-1" d="M273.66,13.51a14.12,14.12,0,0,1,3.86.51,18.9,18.9,0,0,1,.42,3.71c0,.18-.14.27-.43.27-.49,0-.75-.08-.8-.25a4,4,0,0,0-1-2,2.59,2.59,0,0,0-2-.79,2.38,2.38,0,0,0-1.5.45,1.47,1.47,0,0,0-.53,1.24,1.93,1.93,0,0,0,.19.84,2.08,2.08,0,0,0,.61.71,8.12,8.12,0,0,0,.74.52c.21.13.53.3,1,.52a2.09,2.09,0,0,0,.34.16l.5.26.55.29.54.31a6.23,6.23,0,0,1,.59.37l.52.39a2.65,2.65,0,0,1,.5.46l.41.51a2.15,2.15,0,0,1,.36.59,6.44,6.44,0,0,1,.19.63,3,3,0,0,1,.09.71,3.91,3.91,0,0,1-1.56,3.33,6.3,6.3,0,0,1-3.88,1.27,11.1,11.1,0,0,1-4.3-.87,13.58,13.58,0,0,1-.36-1.84,16.12,16.12,0,0,1-.19-1.91.7.7,0,0,1,.46-.17c.51,0,.78.08.8.25A3.66,3.66,0,0,0,271,26.25a3.54,3.54,0,0,0,2.29.82,2.42,2.42,0,0,0,1.52-.49,1.61,1.61,0,0,0,.58-1.37,2.18,2.18,0,0,0-.09-.61A1.65,1.65,0,0,0,275,24l-.39-.46a2.43,2.43,0,0,0-.6-.44l-.67-.37-.84-.42-.85-.44a7.72,7.72,0,0,1-2.38-1.74,3.55,3.55,0,0,1-.86-2.36A3.56,3.56,0,0,1,270,14.66,6.41,6.41,0,0,1,273.66,13.51Z"/><path class="cls-1" d="M294.07,23.23a12.29,12.29,0,0,0,.31,3q.07.23.9.47a4.9,4.9,0,0,0,1.13.23c.09,0,.14.16.15.48a1.86,1.86,0,0,1,0,.65q-.23,0-1.78-.11t-2.28-.07q-.83,0-2.34.13t-1.74.16a1,1,0,0,1-.14-.63c0-.33,0-.5.13-.5a4.82,4.82,0,0,0,1.19-.27c.55-.17.85-.34.89-.49a10.76,10.76,0,0,0,.2-2.43l-.07-5.41a3.15,3.15,0,0,0-.56-2.12,1.85,1.85,0,0,0-.77-.49,3.49,3.49,0,0,0-.8-.19c-.22,0-.33-.05-.33-.09q0-1,.19-1a25.58,25.58,0,0,0,2.68-.44,26.09,26.09,0,0,0,2.62-.63l.27-.07c.11,0,.2.08.27.23a.62.62,0,0,1,.07.36,28.66,28.66,0,0,0-.23,2.86ZM290.42,9.38a2,2,0,0,1-.62-1.45,2,2,0,0,1,.58-1.45,2.08,2.08,0,0,1,2.92,0,2,2,0,0,1,.62,1.44,2,2,0,0,1-.58,1.47,2,2,0,0,1-2.92,0Z"/><path class="cls-1" d="M303.73,13.1a14.12,14.12,0,0,1,3.86.51,18.9,18.9,0,0,1,.42,3.71q0,.27-.43.27c-.49,0-.75-.08-.8-.25a4,4,0,0,0-1-2,2.59,2.59,0,0,0-2-.79,2.38,2.38,0,0,0-1.5.45,1.47,1.47,0,0,0-.53,1.24,1.93,1.93,0,0,0,.19.84,2.08,2.08,0,0,0,.61.71,8.07,8.07,0,0,0,.74.52c.21.13.53.3,1,.52a2.1,2.1,0,0,0,.34.16l.5.26.55.29.54.31a6.17,6.17,0,0,1,.59.37l.52.39a2.64,2.64,0,0,1,.5.46l.41.51a2.15,2.15,0,0,1,.36.59,6,6,0,0,1,.19.63,3.1,3.1,0,0,1,.09.71,3.91,3.91,0,0,1-1.56,3.33,6.3,6.3,0,0,1-3.88,1.27,11.11,11.11,0,0,1-4.3-.87,13.33,13.33,0,0,1-.36-1.84,16.23,16.23,0,0,1-.19-1.91.71.71,0,0,1,.46-.17c.51,0,.78.08.8.25a3.66,3.66,0,0,0,1.34,2.22,3.54,3.54,0,0,0,2.29.82,2.42,2.42,0,0,0,1.52-.49,1.61,1.61,0,0,0,.58-1.37,2.18,2.18,0,0,0-.09-.61,1.66,1.66,0,0,0-.32-.56l-.39-.46a2.43,2.43,0,0,0-.6-.44l-.67-.37-.84-.42-.85-.44a7.71,7.71,0,0,1-2.38-1.74,3.55,3.55,0,0,1-.86-2.36A3.56,3.56,0,0,1,300,14.25,6.41,6.41,0,0,1,303.73,13.1Z"/><path class="cls-1" d="M328.95,12.78q4.28-.06,4.38,6.75l0,3.15a13.83,13.83,0,0,0,.27,3c0,.15.35.31.92.47a5.09,5.09,0,0,0,1.15.23c.07,0,.11.16.12.48a1.86,1.86,0,0,1,0,.65q-.2,0-1.74-.11t-2.31-.07q-.8,0-2.21.13l-1.71.16a1,1,0,0,1-.14-.63c0-.33,0-.5.13-.5a4,4,0,0,0,1.11-.26c.5-.17.76-.34.81-.49A9.59,9.59,0,0,0,330,23.3l0-3.15a7.22,7.22,0,0,0-.8-3.84,2.67,2.67,0,0,0-2.39-1.06,3.07,3.07,0,0,0-1.85.61,1.6,1.6,0,0,0-.78,1.26l.08,5.71a14,14,0,0,0,.27,3q.07.23.89.47a4.8,4.8,0,0,0,1.08.23c.09,0,.14.16.15.48a1.86,1.86,0,0,1,0,.65l-1.74-.11q-1.48-.08-2.24-.07t-2.31.13l-1.77.16a1,1,0,0,1-.14-.63c0-.33,0-.5.13-.5a4.61,4.61,0,0,0,1.21-.27c.54-.17.83-.34.87-.49a10.76,10.76,0,0,0,.2-2.43L320.65,18a3.15,3.15,0,0,0-.56-2.12,1.61,1.61,0,0,0-.75-.49,3.77,3.77,0,0,0-.8-.19q-.32,0-.32-.1,0-1,.15-1a47.06,47.06,0,0,0,5.33-1.07l.08-.05.1,0H324c.09,0,.17.08.23.23a1,1,0,0,1,.11.36,11.58,11.58,0,0,0-.12,1.2c0,.09,0,.14,0,.17a.49.49,0,0,0,.16-.1,7.33,7.33,0,0,1,2-1.42A5.81,5.81,0,0,1,328.95,12.78Z"/><path class="cls-1" d="M345.32,12.56a7.32,7.32,0,0,1,5.36,2.1A7.12,7.12,0,0,1,353,19.89a7.52,7.52,0,0,1-15,.21,7.15,7.15,0,0,1,2.1-5.31A7.27,7.27,0,0,1,345.32,12.56Zm-.41,1.57a2.67,2.67,0,0,0-2.4,1.54,7.13,7.13,0,0,0-.81,3.61,9.69,9.69,0,0,0,1.14,4.67,3.31,3.31,0,0,0,3,2,2.71,2.71,0,0,0,2.42-1.56,7.05,7.05,0,0,0,.83-3.6,11.4,11.4,0,0,0-.48-3.2,5.85,5.85,0,0,0-1.43-2.45A3.08,3.08,0,0,0,344.91,14.12Z"/><path class="cls-1" d="M357,14.72l-2,0c-.16,0-.24-.28-.24-.86a.79.79,0,0,1,0-.3,9.29,9.29,0,0,0,2.53-1.8l.93-1q.51-.56,1.19-1.43a2.38,2.38,0,0,1,.63.07c.2.05.3.11.3.18l0,3.25,2.41,0h1.64q.26,0,.27.3a3.22,3.22,0,0,1-.31,1.47l-4,.06.11,8a3.15,3.15,0,0,0,.59,2,1.9,1.9,0,0,0,1.57.68,3.14,3.14,0,0,0,.7-.09,3.48,3.48,0,0,0,.6-.19l.43-.21.23-.1c.09,0,.19.08.3.29s.16.36.14.43a3,3,0,0,1-1.4,1.1,5.22,5.22,0,0,1-2.37.65,4.19,4.19,0,0,1-3-1.07,4.44,4.44,0,0,1-1.26-3.42Z"/><path class="cls-1" d="M383.58,3.63a6.54,6.54,0,0,1,2.31.32,2.32,2.32,0,0,1,1.22.83A3.72,3.72,0,0,1,387,6.62a1.19,1.19,0,0,1-1.2.83,1.29,1.29,0,0,1-1-.53q-.46-.54-1-1.08a1.53,1.53,0,0,0-1.17-.53,1.77,1.77,0,0,0-1.48.88,5.58,5.58,0,0,0-.82,2.1,13.42,13.42,0,0,0-.21,2.69l0,1.53s0,.06.07.1a.18.18,0,0,0,.13.06l3.65-.05a.27.27,0,0,1,.17,0,.36.36,0,0,1,0,.2,3.41,3.41,0,0,1-.38,1.53l-3.45,0a.18.18,0,0,0-.2.2l.1,7.4a12.75,12.75,0,0,0,.31,3q.07.23.89.47a4.69,4.69,0,0,0,1.12.23c.07,0,.11.16.12.48a1.86,1.86,0,0,1,0,.65q-.2,0-1.73-.11t-2.33-.07q-.8,0-2.26.13L374.6,27a.63.63,0,0,1-.14-.36,2,2,0,0,1,0-.51c0-.17.06-.25.13-.25a4.45,4.45,0,0,0,1.16-.26c.53-.17.81-.34.86-.49a11,11,0,0,0,.26-2.73l-.11-7.64c0-.15-.07-.23-.2-.23l-2,0s-.07-.07-.07-.2a1.77,1.77,0,0,1,.45-1,1.34,1.34,0,0,1,1.05-.61h.53a.18.18,0,0,0,.2-.2v-.33a9,9,0,0,1,2-6A6.2,6.2,0,0,1,383.58,3.63Z"/><path class="cls-1" d="M393.66,11.89A7.33,7.33,0,0,1,399,14a7.12,7.12,0,0,1,2.28,5.23,7.52,7.52,0,0,1-15,.21,7.15,7.15,0,0,1,2.1-5.31A7.27,7.27,0,0,1,393.66,11.89Zm-.41,1.57a2.67,2.67,0,0,0-2.4,1.54,7.15,7.15,0,0,0-.81,3.61,9.69,9.69,0,0,0,1.14,4.67,3.31,3.31,0,0,0,3,2,2.71,2.71,0,0,0,2.42-1.56,7.05,7.05,0,0,0,.83-3.6,11.4,11.4,0,0,0-.48-3.2,5.85,5.85,0,0,0-1.43-2.45A3.08,3.08,0,0,0,393.25,13.46Z"/><path class="cls-1" d="M413.06,11.62a3.32,3.32,0,0,1,2.74,1.06q0,2.82-1.56,2.84a2,2,0,0,1-1.3-.65,2.08,2.08,0,0,0-1.44-.64,1.78,1.78,0,0,0-1.6,1.07,4.43,4.43,0,0,0-.55,2.18l.06,4.15a13.83,13.83,0,0,0,.27,3c0,.15.34.31.89.47a4.69,4.69,0,0,0,1.12.23c.07,0,.11.16.12.48a3.33,3.33,0,0,1,0,.65L410,26.34q-1.49-.08-2.26-.07t-2.3.13l-1.78.16a1,1,0,0,1-.14-.63c0-.33,0-.5.13-.5a4.64,4.64,0,0,0,1.21-.27q.81-.26.87-.49a11,11,0,0,0,.2-2.43l-.08-5.41a3.15,3.15,0,0,0-.56-2.12,1.6,1.6,0,0,0-.75-.49,3.76,3.76,0,0,0-.8-.19q-.32,0-.32-.1,0-1,.15-1a47.09,47.09,0,0,0,5.33-1.07l.26-.07c.09,0,.17.08.24.23a.79.79,0,0,1,.09.38c0,.1,0,.26,0,.47s0,.43-.07.66a4.1,4.1,0,0,0,0,.45,6.07,6.07,0,0,1,1.6-1.63A3.63,3.63,0,0,1,413.06,11.62Z"/><path class="cls-1" d="M446.08,13.69a1,1,0,0,0-.28-.68,1.46,1.46,0,0,0-.69-.39,6.06,6.06,0,0,0-.77-.16,4.79,4.79,0,0,0-.68,0h-.13c-.09,0-.14-.16-.16-.5s0-.53.08-.6q.43,0,1.76.08t2.13.07q.7,0,1.78-.12c.72-.08,1.24-.12,1.58-.12a2.18,2.18,0,0,1,.07.56c0,.33,0,.5-.13.5a3.76,3.76,0,0,0-1.3.43,2,2,0,0,0-1.13,1l-4.75,11.79A1.3,1.3,0,0,1,443,26a1.14,1.14,0,0,1-.64.22.42.42,0,0,1-.44-.23l-4.18-9.11-3.43,8.71a1.8,1.8,0,0,1-.37.47,1,1,0,0,1-.71.28.49.49,0,0,1-.47-.23Q432,24.45,430.9,22t-2-4.34q-.89-1.88-2-4.09a1.53,1.53,0,0,0-.87-.65,3.2,3.2,0,0,0-1.07-.22c-.09,0-.13-.18-.14-.53s0-.5.13-.57.78,0,1.68.08,1.6.08,2.11.07,1.26-.05,2.26-.13l1.72-.12a1.8,1.8,0,0,1,.07.6c0,.29,0,.44-.09.47a3.93,3.93,0,0,0-1.14.25c-.47.16-.71.4-.7.71q0,.07,3.42,7.59.35-.93.82-2.12l.71-1.8.48-1.25c.16-.42.27-.74.34-1a1.71,1.71,0,0,0,.09-.42,2.43,2.43,0,0,0-.45-1.32,1.58,1.58,0,0,0-.74-.52,2.65,2.65,0,0,0-1.2-.18c-.09,0-.13-.16-.14-.48s0-.52.13-.58c.24,0,.79,0,1.64.08s1.55.08,2.08.07,1.21,0,2.16-.13,1.51-.12,1.69-.12a1.63,1.63,0,0,1,.06.61c0,.32,0,.48-.11.48q-1.69,0-1.68,1.19,0,.63,3.22,7.33.51-1.4,1.27-3.29t1.11-2.8A4.5,4.5,0,0,0,446.08,13.69Z"/><path class="cls-1" d="M463.48,10.93q4.25-.06,4.34,6.48l0,3.42a12.29,12.29,0,0,0,.31,3c0,.15.32.31.89.47a5.08,5.08,0,0,0,1.15.23c.07,0,.11.16.12.48a3.33,3.33,0,0,1,0,.65q-.23,0-1.78-.11t-2.28-.07q-.83,0-2.24.13l-1.74.16a1.23,1.23,0,0,1-.11-.63c0-.33,0-.5.09-.5a4,4,0,0,0,1.14-.26q.74-.26.84-.49a12.43,12.43,0,0,0,.17-2.43l0-3.25a6.93,6.93,0,0,0-.8-3.79,2.72,2.72,0,0,0-2.39-1,3.18,3.18,0,0,0-1.82.59,1.57,1.57,0,0,0-.81,1.27l.08,5.71a12.09,12.09,0,0,0,.31,3c0,.15.34.31.89.47a4.69,4.69,0,0,0,1.12.23c.07,0,.11.16.12.48a1.86,1.86,0,0,1,0,.65l-1.74-.11q-1.48-.08-2.24-.07t-2.3.13l-1.78.16a1,1,0,0,1-.14-.63c0-.33,0-.5.13-.5a4.64,4.64,0,0,0,1.21-.27q.81-.26.87-.49a10.68,10.68,0,0,0,.2-2.39L455,7.79a13,13,0,0,0-.2-2.26Q454.66,5,453.1,5h-.3c-.13,0-.2-.17-.21-.53s.06-.53.19-.53c.69-.08,1.34-.17,2-.29s1.13-.24,1.54-.35.76-.23,1.06-.35l.94-.34h.07a.36.36,0,0,1,.27.18.91.91,0,0,1,.17.35,10.67,10.67,0,0,0-.36,3.13l.09,6.71c0,.13,0,.2.14.2s.07,0,.13-.1a6.31,6.31,0,0,1,2-1.47A6.13,6.13,0,0,1,463.48,10.93Z"/><path class="cls-1" d="M478.2,20.68a12.09,12.09,0,0,0,.31,3c0,.15.35.31.9.47a4.9,4.9,0,0,0,1.13.23c.09,0,.14.16.16.48a1.86,1.86,0,0,1,0,.65q-.23,0-1.78-.11t-2.28-.07q-.83,0-2.34.13t-1.74.16a1,1,0,0,1-.14-.63c0-.33,0-.5.13-.5a4.8,4.8,0,0,0,1.19-.27q.83-.26.89-.49a11,11,0,0,0,.2-2.43l-.08-5.41a3.15,3.15,0,0,0-.56-2.12,1.84,1.84,0,0,0-.77-.49,3.51,3.51,0,0,0-.8-.19c-.22,0-.33-.05-.33-.09,0-.64.05-1,.19-1a25.68,25.68,0,0,0,2.68-.44,26.09,26.09,0,0,0,2.62-.63l.26-.07c.11,0,.2.08.27.23a.6.6,0,0,1,.07.36,27.87,27.87,0,0,0-.22,2.86ZM474.55,6.84a2,2,0,0,1-.62-1.45,2,2,0,0,1,2-2.07,2,2,0,0,1,1.47.58,2,2,0,0,1,.62,1.44,2,2,0,0,1-.58,1.47,2,2,0,0,1-2.92,0Z"/><path class="cls-1" d="M484.41,13l-2,0c-.16,0-.24-.28-.24-.86a.79.79,0,0,1,0-.3A9.29,9.29,0,0,0,484.7,10q.42-.44.93-1t1.19-1.43a2.36,2.36,0,0,1,.63.07c.2.05.3.11.3.18l0,3.25,2.41,0h1.64q.26,0,.27.3a3.22,3.22,0,0,1-.31,1.47l-4,.05.11,8a3.15,3.15,0,0,0,.59,2,1.9,1.9,0,0,0,1.57.68,3.14,3.14,0,0,0,.7-.09,3.48,3.48,0,0,0,.6-.19l.43-.21.23-.1c.09,0,.19.08.3.29s.16.36.14.43a3,3,0,0,1-1.4,1.1,5.23,5.23,0,0,1-2.37.65,4.19,4.19,0,0,1-3-1.07A4.45,4.45,0,0,1,484.52,21Z"/><path class="cls-1" d="M501.22,10.41A6.15,6.15,0,0,1,504,11,5.25,5.25,0,0,1,506,12.51a7.72,7.72,0,0,1,1.09,1.94,5.77,5.77,0,0,1,.39,1.94c0,.49-.07.79-.24.92a1.89,1.89,0,0,1-1,.2l-7.94.11c-.15,0-.23.07-.23.2a6.45,6.45,0,0,0,.46,2.32,4.55,4.55,0,0,0,1.5,1.94,3.91,3.91,0,0,0,2.52.8,9.08,9.08,0,0,0,1-.06,5,5,0,0,0,.86-.18l.69-.23a2.83,2.83,0,0,0,.61-.31l.45-.29.66-.46a.56.56,0,0,1,.17.2.62.62,0,0,1,.1.33,1,1,0,0,1-.19.63,5.42,5.42,0,0,1-1.93,1.82,6.17,6.17,0,0,1-3.28.94,6.72,6.72,0,0,1-5-2.07A7.16,7.16,0,0,1,494.45,18a7.67,7.67,0,0,1,1.87-5.47A6.43,6.43,0,0,1,501.22,10.41ZM501,11.94a2.35,2.35,0,0,0-1.42.48,3.13,3.13,0,0,0-.95,1.14,6.35,6.35,0,0,0-.46,1.25,4,4,0,0,0-.14,1c0,.16.07.23.2.23l5.38-.07c.2,0,.29-.17.29-.5a4.31,4.31,0,0,0-.81-2.35A2.38,2.38,0,0,0,501,11.94Z"/><path class="cls-1" d="M525.57,10.1a6.71,6.71,0,0,1,3.8,1,7,7,0,0,1,2.49,2.62,7.07,7.07,0,0,1,.84,3.24A7.77,7.77,0,0,1,525,25a7.71,7.71,0,0,1-2.36-.43c-.09,0-.13.16-.13.47l0,2.26a11.9,11.9,0,0,0,.31,3q0,.26.89.5a5.08,5.08,0,0,0,1.15.23q.1,0,.12.48a2.9,2.9,0,0,1,0,.61l-1.78-.07Q521.69,32,521,32t-2.34.13l-1.77.12a1.19,1.19,0,0,1-.11-.61q0-.48.09-.48a4.65,4.65,0,0,0,1.21-.27q.81-.26.91-.53a12.24,12.24,0,0,0,.17-2.39l-.18-12.68a3.24,3.24,0,0,0-.56-2.15,1.51,1.51,0,0,0-.74-.47,4,4,0,0,0-.8-.17c-.22,0-.33-.05-.33-.09,0-.64.05-1,.19-1a25.55,25.55,0,0,0,4.94-1l.63-.17c.09,0,.14.23.14.7a1.82,1.82,0,0,1-.06.4,6.64,6.64,0,0,1,1.47-.8A4.76,4.76,0,0,1,525.57,10.1Zm-.77,1.77a2.51,2.51,0,0,0-1.77.66,2.2,2.2,0,0,0-.66,1.7l.09,6.84a2,2,0,0,0,.92,1.73,3.22,3.22,0,0,0,1.93.62A3.12,3.12,0,0,0,527.88,22a6.41,6.41,0,0,0,1-3.93,8.6,8.6,0,0,0-1.12-4.45A3.27,3.27,0,0,0,524.8,11.87Z"/><path class="cls-1" d="M541.58,9.85a6.15,6.15,0,0,1,2.8.58A5.27,5.27,0,0,1,546.33,12a7.78,7.78,0,0,1,1.09,1.94,5.72,5.72,0,0,1,.39,1.94c0,.49-.07.79-.24.92a1.88,1.88,0,0,1-1,.2l-7.93.11c-.16,0-.23.07-.23.2a6.49,6.49,0,0,0,.46,2.32,4.58,4.58,0,0,0,1.51,1.94,3.91,3.91,0,0,0,2.52.8,9.12,9.12,0,0,0,1-.06,5,5,0,0,0,.86-.18l.69-.23a2.87,2.87,0,0,0,.61-.31l.44-.29.66-.46a.54.54,0,0,1,.17.2.66.66,0,0,1,.1.33,1,1,0,0,1-.19.63,5.4,5.4,0,0,1-1.93,1.82,6.16,6.16,0,0,1-3.27.94,6.72,6.72,0,0,1-5-2.07,7.16,7.16,0,0,1-2.16-5.17A7.68,7.68,0,0,1,536.68,12,6.44,6.44,0,0,1,541.58,9.85Zm-.21,1.53a2.35,2.35,0,0,0-1.42.48A3.13,3.13,0,0,0,539,13a6.24,6.24,0,0,0-.46,1.25,4.06,4.06,0,0,0-.13,1c0,.16.07.23.2.23l5.38-.07q.3,0,.29-.5a4.32,4.32,0,0,0-.81-2.35A2.38,2.38,0,0,0,541.37,11.38Z"/><path class="cls-1" d="M557.09,9.63a7.33,7.33,0,0,1,5.36,2.1A7.12,7.12,0,0,1,564.73,17a7.52,7.52,0,0,1-15,.21,7.15,7.15,0,0,1,2.1-5.31A7.27,7.27,0,0,1,557.09,9.63Zm-.41,1.57a2.67,2.67,0,0,0-2.4,1.54,7.15,7.15,0,0,0-.81,3.61A9.69,9.69,0,0,0,554.61,21a3.31,3.31,0,0,0,3,2,2.71,2.71,0,0,0,2.42-1.56,7.05,7.05,0,0,0,.83-3.6,11.4,11.4,0,0,0-.48-3.2A5.85,5.85,0,0,0,559,12.16,3.08,3.08,0,0,0,556.68,11.2Z"/><path class="cls-1" d="M575.83,9.41a6.72,6.72,0,0,1,3.8,1A7,7,0,0,1,583,16.32a7.77,7.77,0,0,1-7.69,8,7.7,7.7,0,0,1-2.36-.43c-.09,0-.13.16-.13.47l0,2.26a12,12,0,0,0,.31,3c0,.18.32.34.89.5a5.08,5.08,0,0,0,1.15.23q.1,0,.12.48a2.9,2.9,0,0,1,0,.61l-1.78-.07q-1.54-.08-2.28-.07t-2.34.13l-1.78.12a1.2,1.2,0,0,1-.11-.61c0-.32,0-.48.09-.48a4.65,4.65,0,0,0,1.21-.27q.81-.26.91-.53a12.09,12.09,0,0,0,.17-2.39l-.18-12.68a3.21,3.21,0,0,0-.56-2.15,1.49,1.49,0,0,0-.74-.47,4,4,0,0,0-.8-.17c-.22,0-.33-.05-.33-.09q0-1,.19-1a25.53,25.53,0,0,0,4.93-1l.63-.17c.09,0,.14.23.14.7a1.81,1.81,0,0,1-.06.4,6.63,6.63,0,0,1,1.47-.8A4.77,4.77,0,0,1,575.83,9.41Zm-.77,1.77a2.51,2.51,0,0,0-1.77.66,2.19,2.19,0,0,0-.66,1.7l.1,6.84a2,2,0,0,0,.92,1.73,3.23,3.23,0,0,0,1.94.62,3.12,3.12,0,0,0,2.55-1.43,6.42,6.42,0,0,0,1-3.93A8.58,8.58,0,0,0,578,12.91,3.27,3.27,0,0,0,575.05,11.18Z"/><path class="cls-1" d="M590.94,19.06a13.51,13.51,0,0,0,.27,3c0,.15.32.32.82.5a3.62,3.62,0,0,0,1,.27c.07,0,.11.15.12.46a1.79,1.79,0,0,1,0,.63l-1.25-.07-1.41-.06q-.63,0-1.2,0t-1.26.05l-1.39.1-1.26.1a1,1,0,0,1-.14-.61c0-.32,0-.48.13-.48a3.55,3.55,0,0,0,1.11-.3c.5-.19.76-.37.81-.53a11,11,0,0,0,.23-2.46l-.19-13.81a11.54,11.54,0,0,0-.23-2.25q-.18-.53-1.67-.51h-.33q-.2,0-.21-.4c0-.35.06-.53.19-.53q1-.11,2-.29t1.54-.35c.41-.12.76-.23,1.06-.33l.71-.26.23-.1h.07c.09,0,.18.06.29.2a1,1,0,0,1,.19.33,10.55,10.55,0,0,0-.36,3.13Z"/><path class="cls-1" d="M602,9a6.16,6.16,0,0,1,2.8.58,5.24,5.24,0,0,1,1.95,1.53,7.72,7.72,0,0,1,1.09,1.94A5.77,5.77,0,0,1,608.2,15c0,.49-.07.79-.24.92a1.89,1.89,0,0,1-1,.2l-7.94.11c-.15,0-.23.07-.23.2a6.45,6.45,0,0,0,.46,2.32,4.55,4.55,0,0,0,1.5,1.94,3.91,3.91,0,0,0,2.52.8,9,9,0,0,0,1-.06,4.93,4.93,0,0,0,.86-.18l.7-.23a2.81,2.81,0,0,0,.61-.31l.45-.29.66-.46a.57.57,0,0,1,.17.2.62.62,0,0,1,.1.33,1,1,0,0,1-.19.63,5.42,5.42,0,0,1-1.93,1.82,6.17,6.17,0,0,1-3.28.94,6.72,6.72,0,0,1-5-2.07,7.16,7.16,0,0,1-2.16-5.17,7.68,7.68,0,0,1,1.87-5.47A6.43,6.43,0,0,1,602,9Zm-.21,1.53a2.35,2.35,0,0,0-1.42.48,3.13,3.13,0,0,0-.95,1.14,6.35,6.35,0,0,0-.46,1.25,4,4,0,0,0-.14,1c0,.16.07.23.2.23l5.38-.07c.2,0,.3-.17.29-.5a4.29,4.29,0,0,0-.81-2.35A2.38,2.38,0,0,0,601.76,10.54Z"/><path class="cls-1" d="M635.76,8.55a7.32,7.32,0,0,1,5.36,2.1,7.12,7.12,0,0,1,2.28,5.23,7.52,7.52,0,0,1-15,.21,7.15,7.15,0,0,1,2.1-5.31A7.27,7.27,0,0,1,635.76,8.55Zm-.41,1.57a2.67,2.67,0,0,0-2.4,1.54,7.13,7.13,0,0,0-.81,3.61,9.69,9.69,0,0,0,1.14,4.67,3.31,3.31,0,0,0,3,2,2.71,2.71,0,0,0,2.42-1.56,7.07,7.07,0,0,0,.83-3.6,11.47,11.47,0,0,0-.48-3.2,5.85,5.85,0,0,0-1.43-2.45A3.07,3.07,0,0,0,635.35,10.11Z"/><path class="cls-1" d="M655.16,8.28a3.31,3.31,0,0,1,2.74,1.06q0,2.82-1.55,2.84a2,2,0,0,1-1.3-.65,2.08,2.08,0,0,0-1.44-.64A1.78,1.78,0,0,0,652,12a4.41,4.41,0,0,0-.55,2.18l.06,4.15a14,14,0,0,0,.27,3q.07.23.89.47a4.71,4.71,0,0,0,1.12.23c.07,0,.11.16.12.48a3.33,3.33,0,0,1,0,.65L652.14,23q-1.5-.08-2.26-.07t-2.31.13l-1.77.16a1,1,0,0,1-.14-.63c0-.33,0-.5.13-.5a4.64,4.64,0,0,0,1.21-.27c.54-.17.83-.34.87-.49a10.76,10.76,0,0,0,.2-2.43L648,13.49a3.15,3.15,0,0,0-.56-2.12,1.61,1.61,0,0,0-.75-.49,3.76,3.76,0,0,0-.8-.19q-.32,0-.32-.1,0-1,.15-1A47.11,47.11,0,0,0,651,8.54l.27-.07q.13,0,.23.23a.82.82,0,0,1,.09.38c0,.1,0,.25,0,.47s0,.43-.07.67a4.31,4.31,0,0,0,0,.45A6.1,6.1,0,0,1,653.07,9,3.63,3.63,0,0,1,655.16,8.28Z"/><path class="cls-1" d="M167.31,57.73a4.5,4.5,0,0,1,.32-1.72,5,5,0,0,1,.82-1.42,9.1,9.1,0,0,1,1-1,7.08,7.08,0,0,1,.92-.68,1.54,1.54,0,0,1,.48-.22,1,1,0,0,1,.52.22,1.15,1.15,0,0,1,.42.49,5.37,5.37,0,0,0-1.44,1.25,4.33,4.33,0,0,0-.7,1.12,1.39,1.39,0,0,0,.56,1.82,2.09,2.09,0,0,1,.7,1.2,1.23,1.23,0,0,1-.65,1,2.69,2.69,0,0,1-1.49.45,2.12,2.12,0,0,1-1-.22A4.22,4.22,0,0,1,167.31,57.73Zm4.85-.08a4.42,4.42,0,0,1,.32-1.72,5,5,0,0,1,.82-1.42,9.1,9.1,0,0,1,1-1,7.09,7.09,0,0,1,.92-.68,1.54,1.54,0,0,1,.48-.22,1,1,0,0,1,.52.22,1.15,1.15,0,0,1,.42.49,5.6,5.6,0,0,0-1.46,1.25,4.19,4.19,0,0,0-.71,1.12,1.39,1.39,0,0,0,.56,1.82,2.09,2.09,0,0,1,.7,1.2,1.23,1.23,0,0,1-.65,1,2.63,2.63,0,0,1-1.46.45,2.2,2.2,0,0,1-1-.22A4.26,4.26,0,0,1,172.15,57.65Z"/><path class="cls-1" d="M180.66,63.6l-2,0q-.23,0-.25-.86a.85.85,0,0,1,0-.3,9.28,9.28,0,0,0,2.53-1.8q.42-.44.93-1t1.19-1.43a2.37,2.37,0,0,1,.63.07c.2.05.3.11.3.18l.05,3.25,2.41,0h1.64c.18,0,.27.1.27.29a3.22,3.22,0,0,1-.31,1.47l-4,.06.12,8a3.15,3.15,0,0,0,.6,2,1.89,1.89,0,0,0,1.57.67,3.15,3.15,0,0,0,.7-.09,3.51,3.51,0,0,0,.59-.19l.43-.21.23-.1c.09,0,.19.07.3.29a.78.78,0,0,1,.14.43,3.05,3.05,0,0,1-1.39,1.1,5.24,5.24,0,0,1-2.36.65A4.18,4.18,0,0,1,182,75a4.44,4.44,0,0,1-1.27-3.42Z"/><path class="cls-1" d="M201.51,60.95q4.25-.07,4.35,6.47l.05,3.42a12.22,12.22,0,0,0,.31,3c0,.15.32.31.89.47a5.08,5.08,0,0,0,1.15.23c.07,0,.11.16.12.48a3.56,3.56,0,0,1,0,.65c-.16,0-.75-.05-1.78-.11s-1.79-.07-2.28-.06-1.3.05-2.24.13l-1.74.16a1.24,1.24,0,0,1-.11-.63c0-.33,0-.5.09-.5a4,4,0,0,0,1.14-.27q.74-.26.84-.49a12.64,12.64,0,0,0,.16-2.43l0-3.25a6.94,6.94,0,0,0-.81-3.79,2.72,2.72,0,0,0-2.39-1,3.18,3.18,0,0,0-1.82.59,1.56,1.56,0,0,0-.81,1.27l.09,5.71a12.22,12.22,0,0,0,.31,3c0,.15.34.31.89.47a4.68,4.68,0,0,0,1.12.23c.07,0,.11.16.12.48a1.88,1.88,0,0,1,0,.65l-1.74-.11q-1.48-.08-2.24-.06t-2.3.14l-1.77.16a1,1,0,0,1-.14-.63c0-.33,0-.5.13-.5a4.64,4.64,0,0,0,1.21-.27q.81-.26.87-.49a10.82,10.82,0,0,0,.2-2.39l-.21-13.81a13.2,13.2,0,0,0-.2-2.26q-.18-.53-1.73-.5h-.3c-.13,0-.2-.17-.21-.53s.06-.53.19-.53c.69-.08,1.34-.18,2-.3s1.13-.24,1.54-.36.76-.23,1.06-.35l.94-.35h.07a.36.36,0,0,1,.27.18.94.94,0,0,1,.17.35,10.69,10.69,0,0,0-.35,3.13l.1,6.71c0,.13,0,.2.14.2s.06,0,.13-.1a6.32,6.32,0,0,1,2-1.48A6.12,6.12,0,0,1,201.51,60.95Z"/><path class="cls-1" d="M216.25,70.68a12.22,12.22,0,0,0,.31,3q.07.23.9.47a4.84,4.84,0,0,0,1.13.23c.09,0,.14.16.16.48a1.88,1.88,0,0,1,0,.65q-.23,0-1.78-.11t-2.28-.06q-.83,0-2.34.14c-1,.08-1.59.14-1.74.16a1,1,0,0,1-.14-.63c0-.33,0-.5.13-.5a4.84,4.84,0,0,0,1.19-.27q.82-.26.89-.5a10.91,10.91,0,0,0,.19-2.43l-.08-5.41a3.16,3.16,0,0,0-.56-2.12,1.83,1.83,0,0,0-.77-.49,3.48,3.48,0,0,0-.8-.19q-.33,0-.33-.09,0-1,.18-1a25.44,25.44,0,0,0,2.68-.44,26,26,0,0,0,2.61-.64l.27-.07q.16,0,.27.23a.6.6,0,0,1,.07.36q-.23,2.13-.22,2.86Zm-3.67-13.84a2,2,0,0,1-.62-1.45,2,2,0,0,1,.57-1.45,2.06,2.06,0,0,1,3.54,1.39,2,2,0,0,1-.58,1.47,2,2,0,0,1-2.92,0Z"/><path class="cls-1" d="M225.89,60.54a14.12,14.12,0,0,1,3.86.5,18.84,18.84,0,0,1,.42,3.71c0,.18-.14.27-.43.27q-.73,0-.8-.25a4,4,0,0,0-1-2,2.59,2.59,0,0,0-2-.78,2.38,2.38,0,0,0-1.5.46,1.47,1.47,0,0,0-.53,1.24,1.93,1.93,0,0,0,.2.84,2.06,2.06,0,0,0,.61.7,8,8,0,0,0,.74.52c.21.13.53.3,1,.52a2.16,2.16,0,0,0,.34.16l.5.26.55.29.54.31a6.15,6.15,0,0,1,.59.37l.52.39a2.6,2.6,0,0,1,.51.46l.41.51a2.1,2.1,0,0,1,.36.59,5.92,5.92,0,0,1,.19.63A3.1,3.1,0,0,1,231,71a3.91,3.91,0,0,1-1.56,3.33,6.3,6.3,0,0,1-3.88,1.27,11.1,11.1,0,0,1-4.3-.86,13.18,13.18,0,0,1-.36-1.84,16.43,16.43,0,0,1-.2-1.91.71.71,0,0,1,.46-.17c.51,0,.78.08.8.25a3.66,3.66,0,0,0,1.35,2.22,3.54,3.54,0,0,0,2.29.81,2.42,2.42,0,0,0,1.52-.49,1.63,1.63,0,0,0,.58-1.37,2.18,2.18,0,0,0-.09-.61,1.62,1.62,0,0,0-.32-.56l-.39-.46a2.42,2.42,0,0,0-.6-.44l-.67-.37-.84-.42-.85-.44a7.74,7.74,0,0,1-2.39-1.74,3.83,3.83,0,0,1,.68-5.51A6.4,6.4,0,0,1,225.89,60.54Z"/><path class="cls-1" d="M246.32,70.21a12.22,12.22,0,0,0,.31,3q.07.23.9.47a4.88,4.88,0,0,0,1.13.23c.09,0,.14.16.16.48a1.93,1.93,0,0,1,0,.65c-.16,0-.75-.05-1.78-.11s-1.79-.07-2.28-.06-1.33.05-2.34.14-1.59.14-1.74.16a1,1,0,0,1-.14-.63c0-.33,0-.5.13-.5a4.81,4.81,0,0,0,1.19-.27q.82-.26.89-.5a10.91,10.91,0,0,0,.19-2.43l-.08-5.41a3.16,3.16,0,0,0-.56-2.12,1.84,1.84,0,0,0-.77-.49,3.49,3.49,0,0,0-.8-.19c-.22,0-.33,0-.33-.09,0-.64.05-1,.18-1a25.47,25.47,0,0,0,2.68-.44,25.91,25.91,0,0,0,2.61-.64l.27-.07c.11,0,.2.07.27.23a.6.6,0,0,1,.07.36q-.23,2.13-.22,2.86Zm-3.67-13.84a2,2,0,0,1-.62-1.45,2,2,0,0,1,.57-1.45,2.06,2.06,0,0,1,3.54,1.39,2,2,0,0,1-.58,1.47,2,2,0,0,1-2.92,0Z"/><path class="cls-1" d="M256,60.07a14.12,14.12,0,0,1,3.86.5,18.84,18.84,0,0,1,.42,3.71c0,.18-.14.27-.43.27q-.73,0-.8-.25a4,4,0,0,0-1-2,2.59,2.59,0,0,0-2-.78,2.38,2.38,0,0,0-1.5.46,1.47,1.47,0,0,0-.53,1.24,1.93,1.93,0,0,0,.2.84,2.06,2.06,0,0,0,.61.7,8,8,0,0,0,.74.52q.32.19,1,.52a2.16,2.16,0,0,0,.33.16l.5.26.55.29.54.31a6.17,6.17,0,0,1,.59.37l.52.39a2.6,2.6,0,0,1,.51.46l.41.51a2.1,2.1,0,0,1,.36.59,5.93,5.93,0,0,1,.19.63,3.1,3.1,0,0,1,.09.71,3.91,3.91,0,0,1-1.56,3.33,6.3,6.3,0,0,1-3.88,1.27,11.1,11.1,0,0,1-4.3-.86,13.17,13.17,0,0,1-.36-1.84,16.43,16.43,0,0,1-.2-1.91.71.71,0,0,1,.46-.17c.51,0,.78.08.8.25a3.66,3.66,0,0,0,1.35,2.22,3.53,3.53,0,0,0,2.29.81,2.41,2.41,0,0,0,1.52-.49,1.62,1.62,0,0,0,.58-1.37,2.25,2.25,0,0,0-.09-.61,1.65,1.65,0,0,0-.32-.56l-.39-.46a2.44,2.44,0,0,0-.61-.44l-.67-.37-.84-.42-.85-.44a7.74,7.74,0,0,1-2.39-1.74,3.83,3.83,0,0,1,.68-5.51A6.4,6.4,0,0,1,256,60.07Z"/><path class="cls-1" d="M281.18,59.71q4.28-.07,4.39,6.74l0,3.15a13.86,13.86,0,0,0,.28,3q.07.23.92.47a5.09,5.09,0,0,0,1.15.23c.07,0,.11.16.12.48a1.93,1.93,0,0,1,0,.65c-.13,0-.71-.06-1.75-.11s-1.8-.07-2.31-.06-1.27.05-2.21.13l-1.71.16a1,1,0,0,1-.14-.63c0-.33,0-.5.13-.5a4,4,0,0,0,1.11-.27c.49-.17.76-.34.8-.49a9.52,9.52,0,0,0,.23-2.43l0-3.15a7.23,7.23,0,0,0-.81-3.84A2.67,2.67,0,0,0,279,62.17a3.07,3.07,0,0,0-1.85.61,1.59,1.59,0,0,0-.78,1.26l.09,5.71a14,14,0,0,0,.28,3c0,.15.34.31.89.47a4.76,4.76,0,0,0,1.08.23c.09,0,.14.16.16.48a1.88,1.88,0,0,1,0,.65L277,74.45q-1.48-.08-2.24-.06t-2.3.14l-1.77.16a1,1,0,0,1-.14-.63c0-.33,0-.5.13-.5a4.64,4.64,0,0,0,1.21-.27q.81-.26.87-.49a10.91,10.91,0,0,0,.19-2.43L272.89,65a3.16,3.16,0,0,0-.56-2.12,1.59,1.59,0,0,0-.75-.49,3.8,3.8,0,0,0-.8-.19q-.32,0-.32-.09c0-.64,0-1,.15-1A47,47,0,0,0,275.93,60l.08-.05.1,0h.08c.09,0,.17.08.24.23a1,1,0,0,1,.11.36,11.38,11.38,0,0,0-.12,1.2c0,.09,0,.14,0,.17a.5.5,0,0,0,.16-.1,7.39,7.39,0,0,1,2-1.43A5.82,5.82,0,0,1,281.18,59.71Z"/><path class="cls-1" d="M297.55,59.46a7.32,7.32,0,0,1,5.36,2.09,7.11,7.11,0,0,1,2.29,5.23,7.52,7.52,0,0,1-15,.23,7.15,7.15,0,0,1,2.09-5.31A7.27,7.27,0,0,1,297.55,59.46ZM297.15,61a2.67,2.67,0,0,0-2.4,1.55,7.14,7.14,0,0,0-.81,3.62,9.7,9.7,0,0,0,1.15,4.66,3.31,3.31,0,0,0,3,1.95,2.71,2.71,0,0,0,2.42-1.57,7.06,7.06,0,0,0,.82-3.6,11.39,11.39,0,0,0-.48-3.2A5.87,5.87,0,0,0,299.45,62,3.08,3.08,0,0,0,297.15,61Z"/><path class="cls-1" d="M309.18,61.6l-2,0q-.23,0-.25-.86a.85.85,0,0,1,0-.3,9.28,9.28,0,0,0,2.53-1.8q.42-.44.93-1t1.19-1.43a2.37,2.37,0,0,1,.63.07c.2.05.3.11.3.18l.05,3.25,2.41,0h1.64c.18,0,.27.1.27.29a3.22,3.22,0,0,1-.31,1.47l-4,.06.12,8a3.15,3.15,0,0,0,.6,2,1.89,1.89,0,0,0,1.57.67,3.15,3.15,0,0,0,.7-.09,3.51,3.51,0,0,0,.59-.19l.43-.21.23-.1c.09,0,.19.07.3.29a.78.78,0,0,1,.14.43,3.05,3.05,0,0,1-1.39,1.1,5.24,5.24,0,0,1-2.36.65,4.18,4.18,0,0,1-3-1.07,4.44,4.44,0,0,1-1.27-3.42Z"/><path class="cls-1" d="M335.79,50.46a6.54,6.54,0,0,1,2.31.31,2.32,2.32,0,0,1,1.22.83,3.74,3.74,0,0,1-.15,1.85,1.19,1.19,0,0,1-1.2.83,1.29,1.29,0,0,1-1-.53q-.46-.54-1-1.08a1.53,1.53,0,0,0-1.17-.53,1.77,1.77,0,0,0-1.48.89,5.55,5.55,0,0,0-.81,2.1,13.59,13.59,0,0,0-.21,2.69l0,1.53s0,.06.07.1a.19.19,0,0,0,.13.06l3.65-.06a.27.27,0,0,1,.17,0,.36.36,0,0,1,0,.2,3.41,3.41,0,0,1-.37,1.53l-3.45.05a.18.18,0,0,0-.2.2l.12,7.4a12.58,12.58,0,0,0,.31,3q.07.23.89.47a4.7,4.7,0,0,0,1.12.23c.07,0,.11.16.12.48a1.93,1.93,0,0,1,0,.65q-.2,0-1.73-.11t-2.33-.06q-.8,0-2.26.13l-1.72.16a.64.64,0,0,1-.14-.36,2,2,0,0,1,0-.51q0-.25.13-.25a4.45,4.45,0,0,0,1.16-.27q.79-.26.86-.49a11,11,0,0,0,.26-2.73L329,61.56c0-.15-.07-.23-.2-.23l-2,0s-.07-.07-.07-.2a1.77,1.77,0,0,1,.45-1,1.33,1.33,0,0,1,1.05-.61h.53a.18.18,0,0,0,.2-.2V59a9,9,0,0,1,2-6A6.21,6.21,0,0,1,335.79,50.46Z"/><path class="cls-1" d="M345.89,58.7a7.32,7.32,0,0,1,5.36,2.09A7.11,7.11,0,0,1,353.54,66a7.57,7.57,0,1,1-7.65-7.32Zm-.41,1.57a2.67,2.67,0,0,0-2.4,1.55,7.14,7.14,0,0,0-.81,3.62,9.68,9.68,0,0,0,1.15,4.66,3.31,3.31,0,0,0,3,1.95,2.71,2.71,0,0,0,2.42-1.57,7.06,7.06,0,0,0,.82-3.6,11.39,11.39,0,0,0-.48-3.2,5.85,5.85,0,0,0-1.43-2.45A3.08,3.08,0,0,0,345.48,60.27Z"/><path class="cls-1" d="M365.28,58.4A3.32,3.32,0,0,1,368,59.45q0,2.82-1.55,2.85a2,2,0,0,1-1.3-.64,2.08,2.08,0,0,0-1.44-.64,1.78,1.78,0,0,0-1.59,1.07,4.41,4.41,0,0,0-.55,2.18l.06,4.15a13.86,13.86,0,0,0,.28,3q.07.23.89.47a4.67,4.67,0,0,0,1.12.23c.07,0,.11.16.12.48a3.56,3.56,0,0,1,0,.65l-1.76-.11q-1.5-.08-2.26-.06t-2.31.14l-1.77.16a1,1,0,0,1-.14-.63c0-.33,0-.5.13-.5a4.64,4.64,0,0,0,1.21-.27q.81-.26.87-.49a10.91,10.91,0,0,0,.19-2.43l-.08-5.41a3.16,3.16,0,0,0-.56-2.12,1.59,1.59,0,0,0-.75-.49,3.8,3.8,0,0,0-.8-.19q-.32,0-.32-.09c0-.64,0-1,.15-1a47,47,0,0,0,5.33-1.08l.27-.07c.09,0,.17.08.24.23a.79.79,0,0,1,.09.38l0,.47c0,.21,0,.43-.07.67s0,.38,0,.45a6.1,6.1,0,0,1,1.6-1.64A3.63,3.63,0,0,1,365.28,58.4Z"/><path class="cls-1" d="M388.31,58a3.59,3.59,0,0,1,2.17.61,3.89,3.89,0,0,1,1.35,1.66,7.81,7.81,0,0,1,2.4-1.7,7.44,7.44,0,0,1,3.11-.71,3.77,3.77,0,0,1,2.05.5,3.67,3.67,0,0,1,1.35,1.46,7.84,7.84,0,0,1,.73,2,12.75,12.75,0,0,1,.25,2.4l.05,3.49a14,14,0,0,0,.28,3q.07.23.9.47a4.88,4.88,0,0,0,1.13.23c.07,0,.11.16.12.48a1.93,1.93,0,0,1,0,.65q-.23,0-1.74-.11t-2.28-.06q-.8,0-2.27.14l-1.78.16a1.24,1.24,0,0,1-.11-.63c0-.33,0-.5.09-.5a4.46,4.46,0,0,0,1.19-.27q.79-.26.86-.49a10.32,10.32,0,0,0,.2-2.33l-.05-3.39q-.08-4.81-3.16-4.77a3,3,0,0,0-1.82.56,2.08,2.08,0,0,0-.85,1,2.38,2.38,0,0,1,0,.27.64.64,0,0,0,0,.27,16.57,16.57,0,0,1,.13,2.06l.05,3.52a13,13,0,0,0,.28,2.85q.07.23.9.47a4.88,4.88,0,0,0,1.13.23c.07,0,.11.16.12.48a1.93,1.93,0,0,1,0,.65q-.23,0-1.75-.11T391,72.58q-.8,0-2.27.14l-1.77.16a1.24,1.24,0,0,1-.11-.63c0-.33,0-.5.09-.5a4.46,4.46,0,0,0,1.19-.27q.79-.26.86-.49a10.91,10.91,0,0,0,.19-2.43l0-3.19a7,7,0,0,0-.82-3.74,2.53,2.53,0,0,0-2.28-1.13,3.18,3.18,0,0,0-1.82.59,1.56,1.56,0,0,0-.81,1.27l.09,5.71a12.22,12.22,0,0,0,.31,3q.07.23.87.47a4.51,4.51,0,0,0,1.1.23c.09,0,.14.16.16.48a1.88,1.88,0,0,1,0,.65l-1.74-.11q-1.48-.08-2.24-.06t-2.32.14l-1.76.16a1,1,0,0,1-.14-.63c0-.33,0-.5.13-.5a4.83,4.83,0,0,0,1.19-.27c.55-.17.85-.34.89-.5a10.79,10.79,0,0,0,.2-2.43L380,63.29a3.16,3.16,0,0,0-.56-2.12,1.61,1.61,0,0,0-.75-.49,3.75,3.75,0,0,0-.82-.19q-.33,0-.33-.09,0-1,.18-1a46,46,0,0,0,5.3-1.08.21.21,0,0,1,.1-.05l.17,0c.11,0,.2.07.27.23a.62.62,0,0,1,.07.36,11.37,11.37,0,0,0-.12,1.2c0,.09,0,.14.07.16a.5.5,0,0,0,.16-.1,7.38,7.38,0,0,1,2-1.43A5.82,5.82,0,0,1,388.31,58Z"/><path class="cls-1" d="M412.62,57.66a6.16,6.16,0,0,1,2.8.57,5.26,5.26,0,0,1,1.95,1.53,7.71,7.71,0,0,1,1.09,1.94,5.73,5.73,0,0,1,.4,1.94c0,.49-.07.79-.24.92a1.88,1.88,0,0,1-1,.2l-7.93.12c-.16,0-.23.07-.23.2a6.45,6.45,0,0,0,.47,2.32,4.58,4.58,0,0,0,1.51,1.94,3.91,3.91,0,0,0,2.52.79,9,9,0,0,0,1-.06,5,5,0,0,0,.86-.18l.69-.23a2.83,2.83,0,0,0,.61-.31l.45-.29.66-.46a.54.54,0,0,1,.17.2.66.66,0,0,1,.1.33,1,1,0,0,1-.19.63,5.41,5.41,0,0,1-1.93,1.82,6.16,6.16,0,0,1-3.27.95,6.72,6.72,0,0,1-5-2.06,7.16,7.16,0,0,1-2.17-5.16,7.68,7.68,0,0,1,1.86-5.47A6.44,6.44,0,0,1,412.62,57.66Zm-.21,1.53a2.34,2.34,0,0,0-1.42.49,3.12,3.12,0,0,0-.95,1.14,6.47,6.47,0,0,0-.46,1.25,4.07,4.07,0,0,0-.13,1c0,.16.07.23.2.23l5.38-.08c.2,0,.29-.17.29-.5a4.31,4.31,0,0,0-.82-2.34A2.38,2.38,0,0,0,412.41,59.2Z"/><path class="cls-1" d="M431.48,57.37q4.28-.07,4.39,6.74l0,3.15a14,14,0,0,0,.28,3q.07.23.92.47a5.08,5.08,0,0,0,1.15.23c.07,0,.11.16.12.48a1.88,1.88,0,0,1,0,.65q-.2,0-1.74-.11c-1-.05-1.8-.07-2.31-.06S433,72,432.09,72l-1.71.16a1,1,0,0,1-.14-.63c0-.33,0-.5.13-.5a4,4,0,0,0,1.11-.27c.5-.17.76-.34.81-.49a9.53,9.53,0,0,0,.23-2.43l0-3.15a7.2,7.2,0,0,0-.81-3.84,2.67,2.67,0,0,0-2.39-1.06,3.07,3.07,0,0,0-1.85.61,1.59,1.59,0,0,0-.78,1.26l.09,5.71a14,14,0,0,0,.28,3q.07.23.89.47a4.79,4.79,0,0,0,1.08.23c.09,0,.14.16.16.48a1.93,1.93,0,0,1,0,.65l-1.74-.11Q425.87,72,425.1,72t-2.3.14l-1.78.16a1,1,0,0,1-.14-.63c0-.33,0-.5.13-.5a4.65,4.65,0,0,0,1.21-.27q.81-.26.87-.49a10.79,10.79,0,0,0,.2-2.43l-.08-5.41a3.16,3.16,0,0,0-.56-2.12,1.61,1.61,0,0,0-.76-.49,3.77,3.77,0,0,0-.8-.19q-.32,0-.32-.09,0-1,.15-1a47,47,0,0,0,5.33-1.08l.08-.05.1,0h.08c.09,0,.17.08.24.23a1,1,0,0,1,.11.36,11.38,11.38,0,0,0-.12,1.2c0,.09,0,.14,0,.17a.5.5,0,0,0,.16-.1A7.33,7.33,0,0,1,429,58,5.82,5.82,0,0,1,431.48,57.37Z"/><path class="cls-1" d="M466.13,56.83a7.32,7.32,0,0,1,5.36,2.09,7.11,7.11,0,0,1,2.29,5.23,7.57,7.57,0,1,1-7.65-7.32Zm-.41,1.57a2.67,2.67,0,0,0-2.4,1.55,7.14,7.14,0,0,0-.81,3.62,9.68,9.68,0,0,0,1.15,4.66,3.31,3.31,0,0,0,3,1.95,2.71,2.71,0,0,0,2.42-1.57,7.06,7.06,0,0,0,.82-3.6,11.39,11.39,0,0,0-.48-3.2A5.85,5.85,0,0,0,468,59.36,3.07,3.07,0,0,0,465.73,58.4Z"/><path class="cls-1" d="M485.53,56.53a3.31,3.31,0,0,1,2.74,1.05q0,2.82-1.55,2.85a2,2,0,0,1-1.3-.64,2.08,2.08,0,0,0-1.44-.64,1.78,1.78,0,0,0-1.59,1.07,4.41,4.41,0,0,0-.55,2.18l.06,4.15a13.86,13.86,0,0,0,.28,3q.07.23.89.47a4.71,4.71,0,0,0,1.12.23c.07,0,.11.16.12.48a3.56,3.56,0,0,1,0,.65l-1.76-.11q-1.5-.08-2.26-.06t-2.31.14l-1.77.16a1,1,0,0,1-.14-.63c0-.33,0-.5.13-.5a4.63,4.63,0,0,0,1.21-.27q.81-.26.87-.49a10.91,10.91,0,0,0,.19-2.43l-.08-5.41a3.16,3.16,0,0,0-.56-2.12,1.59,1.59,0,0,0-.75-.49,3.79,3.79,0,0,0-.8-.19q-.32,0-.32-.09c0-.64,0-1,.15-1a47,47,0,0,0,5.33-1.08l.27-.07c.09,0,.17.08.24.23a.79.79,0,0,1,.09.38l0,.47c0,.21,0,.43-.07.67s0,.38,0,.45a6.1,6.1,0,0,1,1.6-1.64A3.63,3.63,0,0,1,485.53,56.53Z"/><path class="cls-1" d="M497.27,52.6a4.5,4.5,0,0,1,.32-1.72,5,5,0,0,1,.82-1.42,9,9,0,0,1,1-1,7,7,0,0,1,.92-.68,1.54,1.54,0,0,1,.48-.22,1,1,0,0,1,.52.22,1.15,1.15,0,0,1,.42.49,5.37,5.37,0,0,0-1.44,1.25,4.33,4.33,0,0,0-.7,1.12,2.07,2.07,0,0,0-.14.65,2.09,2.09,0,0,0,.7,1.17,2.09,2.09,0,0,1,.7,1.2,1.23,1.23,0,0,1-.65,1,2.68,2.68,0,0,1-1.49.45,2.12,2.12,0,0,1-1-.22A4.22,4.22,0,0,1,497.27,52.6Zm4.85-.08a4.42,4.42,0,0,1,.32-1.72,5,5,0,0,1,.82-1.42,9.1,9.1,0,0,1,1-1,7.08,7.08,0,0,1,.92-.68,1.54,1.54,0,0,1,.48-.22,1,1,0,0,1,.52.22,1.15,1.15,0,0,1,.42.49,5.6,5.6,0,0,0-1.46,1.25,4.19,4.19,0,0,0-.71,1.12,2.09,2.09,0,0,0-.14.65,2.11,2.11,0,0,0,.7,1.17,2.09,2.09,0,0,1,.7,1.2,1.23,1.23,0,0,1-.65,1,2.63,2.63,0,0,1-1.46.45,2.2,2.2,0,0,1-1-.22A4.26,4.26,0,0,1,502.12,52.52Z"/><path class="cls-1" d="M510.62,58.46l-2,0q-.23,0-.25-.86a.85.85,0,0,1,0-.3,9.28,9.28,0,0,0,2.53-1.8q.42-.44.93-1T513,53.11a2.37,2.37,0,0,1,.63.07c.2.05.3.11.3.18l.05,3.25,2.41,0h1.64c.18,0,.27.1.27.29a3.22,3.22,0,0,1-.31,1.47l-4,.06.12,8a3.15,3.15,0,0,0,.6,2,1.89,1.89,0,0,0,1.57.67A3.15,3.15,0,0,0,517,69a3.51,3.51,0,0,0,.59-.19l.43-.21.23-.1c.09,0,.19.08.3.29a.78.78,0,0,1,.14.43,3.05,3.05,0,0,1-1.39,1.1A5.24,5.24,0,0,1,515,71a4.18,4.18,0,0,1-3-1.07,4.44,4.44,0,0,1-1.27-3.42Z"/><path class="cls-1" d="M531.48,55.82q4.25-.07,4.35,6.47l.05,3.42a12.22,12.22,0,0,0,.31,3c0,.15.32.31.89.47a5.08,5.08,0,0,0,1.15.23c.07,0,.11.16.12.48a3.56,3.56,0,0,1,0,.65c-.16,0-.75-.05-1.78-.11s-1.79-.07-2.28-.06-1.3.05-2.24.13l-1.74.16a1.24,1.24,0,0,1-.11-.63c0-.33,0-.5.09-.5a4,4,0,0,0,1.14-.27c.49-.17.78-.34.84-.49a12.48,12.48,0,0,0,.16-2.43l0-3.25a6.93,6.93,0,0,0-.81-3.79,2.72,2.72,0,0,0-2.39-1,3.18,3.18,0,0,0-1.82.59,1.56,1.56,0,0,0-.81,1.27l.09,5.71a12.22,12.22,0,0,0,.31,3c0,.15.34.31.89.47a4.68,4.68,0,0,0,1.12.23c.07,0,.11.16.12.48a1.88,1.88,0,0,1,0,.65l-1.74-.11q-1.48-.08-2.24-.06t-2.3.14l-1.77.16a1,1,0,0,1-.14-.63c0-.33,0-.5.13-.5a4.63,4.63,0,0,0,1.21-.27q.81-.26.87-.49a10.82,10.82,0,0,0,.2-2.39L523,52.69a13.2,13.2,0,0,0-.2-2.26q-.18-.53-1.73-.5h-.3c-.13,0-.2-.17-.21-.53s.06-.53.19-.53c.69-.08,1.34-.18,2-.3s1.13-.24,1.54-.36.76-.23,1.06-.35l.94-.35h.07a.36.36,0,0,1,.27.18.94.94,0,0,1,.17.35,10.69,10.69,0,0,0-.35,3.13l.1,6.71c0,.13,0,.2.14.2s.06,0,.13-.1a6.32,6.32,0,0,1,2-1.48A6.12,6.12,0,0,1,531.48,55.82Z"/><path class="cls-1" d="M546.21,65.55a12.22,12.22,0,0,0,.31,3q.07.23.9.47a4.88,4.88,0,0,0,1.13.23c.09,0,.14.16.16.48a1.93,1.93,0,0,1,0,.65q-.23,0-1.78-.11t-2.28-.06q-.83,0-2.34.14t-1.74.16a1,1,0,0,1-.14-.63q0-.5.12-.5a4.81,4.81,0,0,0,1.19-.27q.83-.26.89-.5a10.79,10.79,0,0,0,.2-2.43l-.08-5.41a3.16,3.16,0,0,0-.56-2.12,1.85,1.85,0,0,0-.77-.49,3.5,3.5,0,0,0-.8-.19c-.22,0-.33,0-.33-.09q0-1,.18-1a25.47,25.47,0,0,0,2.68-.44,26.12,26.12,0,0,0,2.62-.64l.26-.07c.11,0,.2.07.27.23a.62.62,0,0,1,.07.36,28.07,28.07,0,0,0-.22,2.86Zm-3.67-13.84a2,2,0,0,1-.62-1.45,2,2,0,0,1,2-2.07,2,2,0,0,1,1.47.57,2,2,0,0,1,.62,1.43,2,2,0,0,1-.57,1.47,2,2,0,0,1-2.92,0Z"/><path class="cls-1" d="M555.86,55.4a14.12,14.12,0,0,1,3.86.5,18.83,18.83,0,0,1,.42,3.71c0,.18-.14.27-.43.27-.49,0-.75-.08-.8-.25a4,4,0,0,0-1-2,2.6,2.6,0,0,0-2-.78,2.38,2.38,0,0,0-1.5.46,1.48,1.48,0,0,0-.53,1.24,1.93,1.93,0,0,0,.2.84,2.07,2.07,0,0,0,.61.7,8.29,8.29,0,0,0,.74.52q.32.19,1,.52a2.15,2.15,0,0,0,.33.16l.5.26.55.29.54.31a5.81,5.81,0,0,1,.59.37l.52.39a2.66,2.66,0,0,1,.51.46l.41.51a2.15,2.15,0,0,1,.36.59q.1.28.19.63a3.21,3.21,0,0,1,.09.71,3.91,3.91,0,0,1-1.56,3.33,6.3,6.3,0,0,1-3.88,1.27,11.09,11.09,0,0,1-4.3-.86,13.11,13.11,0,0,1-.36-1.84,15.9,15.9,0,0,1-.2-1.91.71.71,0,0,1,.46-.17c.51,0,.78.08.8.25a3.67,3.67,0,0,0,1.35,2.22,3.54,3.54,0,0,0,2.29.81,2.41,2.41,0,0,0,1.52-.49,1.62,1.62,0,0,0,.58-1.37,2.25,2.25,0,0,0-.09-.61,1.65,1.65,0,0,0-.32-.56l-.39-.46a2.42,2.42,0,0,0-.6-.44l-.67-.37-.84-.42-.85-.44a7.7,7.7,0,0,1-2.38-1.74,3.83,3.83,0,0,1,.68-5.51A6.4,6.4,0,0,1,555.86,55.4Z"/><path class="cls-1" d="M576.28,65.08a12.22,12.22,0,0,0,.31,3q.07.23.9.47a4.88,4.88,0,0,0,1.13.23c.09,0,.14.16.16.48a1.93,1.93,0,0,1,0,.65c-.16,0-.75-.05-1.78-.11s-1.79-.07-2.28-.06-1.33.05-2.34.14-1.59.14-1.74.16a1,1,0,0,1-.14-.63c0-.33,0-.5.13-.5a4.8,4.8,0,0,0,1.19-.27q.83-.26.89-.5a10.91,10.91,0,0,0,.19-2.43l-.08-5.41a3.16,3.16,0,0,0-.56-2.12,1.85,1.85,0,0,0-.77-.49,3.49,3.49,0,0,0-.8-.19c-.22,0-.33,0-.33-.09,0-.64.05-1,.18-1a25.47,25.47,0,0,0,2.68-.44,25.88,25.88,0,0,0,2.61-.64l.27-.07c.11,0,.2.07.27.23a.6.6,0,0,1,.07.36q-.23,2.13-.22,2.86Zm-3.67-13.84a2,2,0,0,1-.62-1.45,2.06,2.06,0,0,1,4.12-.06,2,2,0,0,1-.58,1.47,2,2,0,0,1-2.92,0Z"/><path class="cls-1" d="M585.93,54.94a14.12,14.12,0,0,1,3.86.5,18.84,18.84,0,0,1,.42,3.71c0,.18-.14.27-.43.27q-.73,0-.8-.25a4,4,0,0,0-1-2,2.6,2.6,0,0,0-2-.78,2.38,2.38,0,0,0-1.5.46,1.47,1.47,0,0,0-.53,1.24,1.93,1.93,0,0,0,.2.84,2.06,2.06,0,0,0,.61.7,8,8,0,0,0,.74.52q.32.19,1,.52a2.16,2.16,0,0,0,.33.16l.5.26.55.29.54.31a5.83,5.83,0,0,1,.59.37l.52.39a2.6,2.6,0,0,1,.51.46l.41.51a2.1,2.1,0,0,1,.36.59,5.93,5.93,0,0,1,.19.63,3.1,3.1,0,0,1,.09.71,3.91,3.91,0,0,1-1.56,3.33A6.29,6.29,0,0,1,585.57,70a11.1,11.1,0,0,1-4.3-.86,13.18,13.18,0,0,1-.36-1.84,15.91,15.91,0,0,1-.2-1.91.7.7,0,0,1,.46-.17c.51,0,.78.08.8.25a3.66,3.66,0,0,0,1.35,2.22,3.53,3.53,0,0,0,2.29.81,2.41,2.41,0,0,0,1.52-.49,1.62,1.62,0,0,0,.58-1.37,2.25,2.25,0,0,0-.09-.61,1.65,1.65,0,0,0-.32-.56L586.9,65a2.44,2.44,0,0,0-.61-.44l-.67-.37-.84-.42-.85-.44a7.74,7.74,0,0,1-2.39-1.74,3.84,3.84,0,0,1,.68-5.51A6.4,6.4,0,0,1,585.93,54.94Z"/><path class="cls-1" d="M611.14,54.58q4.28-.07,4.39,6.74l0,3.15a14,14,0,0,0,.28,3q.07.23.92.47a5.08,5.08,0,0,0,1.15.23c.07,0,.11.16.12.48a1.88,1.88,0,0,1,0,.65q-.2,0-1.74-.11T614,69.11q-.8,0-2.21.13L610,69.4a1,1,0,0,1-.14-.63c0-.33,0-.5.13-.5a4,4,0,0,0,1.11-.27c.5-.17.76-.34.81-.49a9.53,9.53,0,0,0,.23-2.43l0-3.15a7.2,7.2,0,0,0-.81-3.84A2.67,2.67,0,0,0,608.92,57a3.07,3.07,0,0,0-1.85.61,1.6,1.6,0,0,0-.78,1.26l.09,5.71a13.86,13.86,0,0,0,.28,3q.07.23.89.47a4.78,4.78,0,0,0,1.08.23c.09,0,.14.16.16.48a1.93,1.93,0,0,1,0,.65L607,69.32q-1.48-.08-2.24-.06t-2.3.14l-1.78.16a1,1,0,0,1-.14-.63c0-.33,0-.5.13-.5a4.65,4.65,0,0,0,1.21-.27q.81-.26.87-.49a10.79,10.79,0,0,0,.2-2.43l-.08-5.41a3.16,3.16,0,0,0-.56-2.12,1.61,1.61,0,0,0-.76-.49,3.77,3.77,0,0,0-.8-.19q-.32,0-.32-.09,0-1,.15-1a47,47,0,0,0,5.33-1.08l.08-.05.1,0h.08c.09,0,.17.08.24.23a1,1,0,0,1,.1.36,11.74,11.74,0,0,0-.11,1.2.27.27,0,0,0,0,.17.5.5,0,0,0,.17-.1,7.32,7.32,0,0,1,2-1.43A5.82,5.82,0,0,1,611.14,54.58Z"/><path class="cls-1" d="M627.52,54.32a7.32,7.32,0,0,1,5.36,2.09,7.11,7.11,0,0,1,2.29,5.23,7.52,7.52,0,0,1-15,.23,7.15,7.15,0,0,1,2.09-5.31A7.27,7.27,0,0,1,627.52,54.32Zm-.41,1.57a2.67,2.67,0,0,0-2.4,1.55,7.14,7.14,0,0,0-.81,3.62,9.7,9.7,0,0,0,1.15,4.66,3.31,3.31,0,0,0,3,1.95,2.7,2.7,0,0,0,2.42-1.57,7.06,7.06,0,0,0,.82-3.6,11.39,11.39,0,0,0-.48-3.2,5.87,5.87,0,0,0-1.43-2.45A3.08,3.08,0,0,0,627.11,55.89Z"/><path class="cls-1" d="M639.15,56.46l-2,0q-.23,0-.25-.86a.83.83,0,0,1,0-.3,9.3,9.3,0,0,0,2.53-1.8q.42-.44.93-1t1.19-1.43a2.37,2.37,0,0,1,.63.07c.2.05.3.11.3.18l.05,3.25,2.41,0h1.64c.18,0,.27.1.27.29a3.22,3.22,0,0,1-.31,1.47l-4,.06.12,8a3.15,3.15,0,0,0,.6,2,1.89,1.89,0,0,0,1.57.67,3.13,3.13,0,0,0,.7-.09,3.51,3.51,0,0,0,.59-.19l.43-.21.23-.1c.09,0,.19.07.3.29a.78.78,0,0,1,.14.43,3.05,3.05,0,0,1-1.39,1.1,5.23,5.23,0,0,1-2.36.65,4.18,4.18,0,0,1-3-1.07,4.44,4.44,0,0,1-1.27-3.42Z"/><path class="cls-1" d="M665.76,45.32a6.54,6.54,0,0,1,2.31.31,2.32,2.32,0,0,1,1.22.83,3.74,3.74,0,0,1-.15,1.85,1.19,1.19,0,0,1-1.2.83,1.29,1.29,0,0,1-1-.53q-.46-.54-1-1.08a1.53,1.53,0,0,0-1.17-.53,1.77,1.77,0,0,0-1.48.89,5.55,5.55,0,0,0-.81,2.1,13.59,13.59,0,0,0-.21,2.69l0,1.53s0,.06.07.1a.19.19,0,0,0,.13.06l3.65-.06a.27.27,0,0,1,.17,0,.36.36,0,0,1,0,.2,3.41,3.41,0,0,1-.37,1.53l-3.45.05a.18.18,0,0,0-.2.2l.12,7.4a12.58,12.58,0,0,0,.31,3q.07.23.89.47a4.71,4.71,0,0,0,1.12.23c.07,0,.11.16.12.48a1.93,1.93,0,0,1,0,.65q-.2,0-1.73-.11t-2.33-.06q-.8,0-2.26.13l-1.72.16a.64.64,0,0,1-.14-.36,2,2,0,0,1,0-.51q0-.25.13-.25a4.45,4.45,0,0,0,1.16-.27q.79-.26.86-.49a11,11,0,0,0,.26-2.73L659,56.42c0-.15-.07-.23-.2-.23l-2,0s-.07-.07-.07-.2a1.77,1.77,0,0,1,.45-1,1.33,1.33,0,0,1,1.05-.61h.53a.18.18,0,0,0,.2-.2V53.9a9,9,0,0,1,2-6A6.2,6.2,0,0,1,665.76,45.32Z"/><path class="cls-1" d="M675.85,53.57a7.32,7.32,0,0,1,5.36,2.09,7.11,7.11,0,0,1,2.29,5.23,7.52,7.52,0,0,1-15,.23,7.15,7.15,0,0,1,2.09-5.31A7.27,7.27,0,0,1,675.85,53.57Zm-.41,1.57a2.67,2.67,0,0,0-2.4,1.55,7.14,7.14,0,0,0-.81,3.62A9.7,9.7,0,0,0,673.39,65a3.31,3.31,0,0,0,3,1.95,2.7,2.7,0,0,0,2.42-1.57,7.06,7.06,0,0,0,.82-3.6,11.39,11.39,0,0,0-.48-3.2,5.87,5.87,0,0,0-1.43-2.45A3.08,3.08,0,0,0,675.45,55.14Z"/><path class="cls-1" d="M695.25,53.27A3.31,3.31,0,0,1,698,54.32q0,2.82-1.55,2.85a2,2,0,0,1-1.3-.64,2.08,2.08,0,0,0-1.44-.64A1.78,1.78,0,0,0,692.1,57a4.41,4.41,0,0,0-.55,2.18l.06,4.15a13.86,13.86,0,0,0,.28,3q.07.23.89.47a4.71,4.71,0,0,0,1.12.23c.07,0,.11.16.12.48a3.56,3.56,0,0,1,0,.65L692.26,68q-1.5-.08-2.26-.06t-2.31.14l-1.77.16a1,1,0,0,1-.14-.63c0-.33,0-.5.13-.5a4.64,4.64,0,0,0,1.21-.27q.81-.26.87-.49a10.91,10.91,0,0,0,.19-2.43l-.08-5.41a3.16,3.16,0,0,0-.56-2.12,1.59,1.59,0,0,0-.75-.49,3.8,3.8,0,0,0-.8-.19q-.32,0-.32-.09c0-.64,0-1,.15-1a47,47,0,0,0,5.33-1.08l.27-.07c.09,0,.17.08.24.23a.79.79,0,0,1,.09.38l0,.47c0,.21,0,.43-.07.67s0,.38,0,.45a6.11,6.11,0,0,1,1.6-1.64A3.63,3.63,0,0,1,695.25,53.27Z"/><path class="cls-1" d="M714.56,53a8,8,0,0,1,3.15.53,5.28,5.28,0,0,1,2,1.25,4.11,4.11,0,0,1-.35,1.88,1.23,1.23,0,0,1-1.13.76,1.48,1.48,0,0,1-1-.32,3.77,3.77,0,0,1-.8-1.08,2.4,2.4,0,0,0-2.25-1.49A2.56,2.56,0,0,0,711.9,56a7.1,7.1,0,0,0-.79,3.65A6.73,6.73,0,0,0,712.4,64a3.92,3.92,0,0,0,3.14,1.4,9,9,0,0,0,1-.06,5,5,0,0,0,.86-.18l.69-.23a2.89,2.89,0,0,0,.61-.31l.44-.29.66-.46a.54.54,0,0,1,.17.2.64.64,0,0,1,.11.33,1,1,0,0,1-.19.63,5.43,5.43,0,0,1-1.93,1.82,6.1,6.1,0,0,1-3.24.95,6.72,6.72,0,0,1-5.06-2.08,7.32,7.32,0,0,1-2.16-5.25,7.55,7.55,0,0,1,1.91-5.26A6.69,6.69,0,0,1,714.56,53Z"/><path class="cls-1" d="M728.26,62.72a12.22,12.22,0,0,0,.31,3q.07.23.9.47a4.88,4.88,0,0,0,1.13.23c.09,0,.14.16.16.48a1.88,1.88,0,0,1,0,.65q-.23,0-1.78-.11t-2.28-.06q-.83,0-2.34.14c-1,.08-1.59.14-1.74.16a1,1,0,0,1-.14-.63c0-.33,0-.5.13-.5a4.84,4.84,0,0,0,1.19-.27q.82-.26.89-.5a10.91,10.91,0,0,0,.19-2.43l-.08-5.41a3.16,3.16,0,0,0-.56-2.12,1.83,1.83,0,0,0-.77-.49,3.48,3.48,0,0,0-.8-.19q-.33,0-.33-.09,0-1,.18-1a25.41,25.41,0,0,0,2.68-.44,26.19,26.19,0,0,0,2.61-.64l.26-.07c.11,0,.2.07.27.23a.62.62,0,0,1,.07.36,28.07,28.07,0,0,0-.22,2.86Zm-3.67-13.84a2,2,0,0,1-.62-1.45,2,2,0,0,1,.57-1.45,2.08,2.08,0,0,1,2.92,0,2,2,0,0,1,.62,1.43,2,2,0,0,1-.57,1.47,2,2,0,0,1-2.92,0Z"/><path class="cls-1" d="M737.91,52.57a14.13,14.13,0,0,1,3.86.5,18.84,18.84,0,0,1,.42,3.71c0,.18-.14.27-.43.27q-.73,0-.8-.25a4,4,0,0,0-1-2,2.59,2.59,0,0,0-2-.78,2.38,2.38,0,0,0-1.5.46,1.48,1.48,0,0,0-.53,1.24,1.93,1.93,0,0,0,.2.84,2.07,2.07,0,0,0,.61.7,8.29,8.29,0,0,0,.74.52q.32.19,1,.52a2.15,2.15,0,0,0,.34.16l.5.26.55.29.54.31a6.15,6.15,0,0,1,.59.37l.52.39a2.6,2.6,0,0,1,.51.46l.41.51a2.15,2.15,0,0,1,.36.59q.1.28.19.63A3.21,3.21,0,0,1,743,63a3.91,3.91,0,0,1-1.56,3.33,6.3,6.3,0,0,1-3.88,1.27,11.09,11.09,0,0,1-4.3-.86,13.17,13.17,0,0,1-.36-1.84,16.43,16.43,0,0,1-.2-1.91.71.71,0,0,1,.46-.17c.51,0,.78.08.8.25a3.67,3.67,0,0,0,1.35,2.22,3.54,3.54,0,0,0,2.29.81,2.42,2.42,0,0,0,1.52-.49,1.63,1.63,0,0,0,.58-1.37,2.18,2.18,0,0,0-.09-.61,1.62,1.62,0,0,0-.32-.56l-.39-.46a2.42,2.42,0,0,0-.6-.44l-.67-.37-.84-.42-.85-.44a7.72,7.72,0,0,1-2.38-1.74,3.83,3.83,0,0,1,.68-5.51A6.4,6.4,0,0,1,737.91,52.57Z"/><path class="cls-1" d="M751.33,52.46a10.51,10.51,0,0,1,2.76.39,10.25,10.25,0,0,0,2.66.39l1.89,0s.12.14.24.43a2,2,0,0,1,.18.66c0,.31-.06.47-.19.47l-2.16,0c-.09,0-.13,0-.13.1s.1.31.31.86a4.72,4.72,0,0,1,.32,1.59,4.79,4.79,0,0,1-1.59,3.56,5.69,5.69,0,0,1-4.08,1.64,13.7,13.7,0,0,1-2.06-.1,1.78,1.78,0,0,0-.72.63,1.41,1.41,0,0,0-.32.82.68.68,0,0,0,.32.56,2.23,2.23,0,0,0,1,.32c.44.06.82.1,1.13.12l1.33,0h.5a11.73,11.73,0,0,1,4.88.84,2.61,2.61,0,0,1,1.58,2.42,5.22,5.22,0,0,1-2.32,4.35,9.07,9.07,0,0,1-5.58,1.91,8.64,8.64,0,0,1-4.25-.86,3,3,0,0,1-1.85-2.69,2.59,2.59,0,0,1,.92-1.87,5.48,5.48,0,0,1,2-1.29,3.79,3.79,0,0,1-1.61-1,2.42,2.42,0,0,1-.76-1.73q0-1.43,2.41-3a4.4,4.4,0,0,1-1.82-1.68,4.88,4.88,0,0,1-.87-2.69,4.48,4.48,0,0,1,1.67-3.75A6.6,6.6,0,0,1,751.33,52.46Zm4.85,17.29q0-1.16-1.7-1.52a21.08,21.08,0,0,0-4.5-.31l-.17,0-.16.1c-.29.11-.51.21-.66.29a2.93,2.93,0,0,0-.53.37,1.64,1.64,0,0,0-.44.59,2,2,0,0,0-.14.8,2.33,2.33,0,0,0,1.29,2,5.17,5.17,0,0,0,2.83.75,5,5,0,0,0,3-.91A2.59,2.59,0,0,0,756.18,69.75Zm-7.3-12.44a5.24,5.24,0,0,0,.71,2.73,2.07,2.07,0,0,0,1.88,1.08,2,2,0,0,0,1.79-1,4.41,4.41,0,0,0,.54-2.35A5.47,5.47,0,0,0,753.1,55a2.12,2.12,0,0,0-1.94-1.07,1.87,1.87,0,0,0-1.74,1.06A4.79,4.79,0,0,0,748.89,57.31Z"/><path class="cls-1" d="M768,52.14a6.16,6.16,0,0,1,2.8.57,5.26,5.26,0,0,1,1.95,1.53,7.72,7.72,0,0,1,1.09,1.94,5.73,5.73,0,0,1,.4,1.94c0,.49-.07.79-.24.92a1.88,1.88,0,0,1-1,.2l-7.93.12c-.16,0-.23.07-.23.2a6.45,6.45,0,0,0,.47,2.32,4.58,4.58,0,0,0,1.51,1.94,3.91,3.91,0,0,0,2.52.79,9,9,0,0,0,1-.06,5,5,0,0,0,.86-.18l.69-.23a2.83,2.83,0,0,0,.61-.31l.45-.29.66-.46a.54.54,0,0,1,.17.2.66.66,0,0,1,.1.33,1,1,0,0,1-.19.63,5.41,5.41,0,0,1-1.93,1.82,6.16,6.16,0,0,1-3.27.95,6.72,6.72,0,0,1-5-2.06,7.16,7.16,0,0,1-2.17-5.16,7.68,7.68,0,0,1,1.86-5.47A6.44,6.44,0,0,1,768,52.14Zm-.21,1.53a2.35,2.35,0,0,0-1.42.49,3.14,3.14,0,0,0-.95,1.14,6.47,6.47,0,0,0-.46,1.25,4.07,4.07,0,0,0-.13,1c0,.16.07.23.2.23l5.38-.08c.2,0,.29-.17.29-.5a4.31,4.31,0,0,0-.82-2.34A2.38,2.38,0,0,0,767.76,53.67Z"/><path class="cls-1" d="M786.84,51.84q4.28-.07,4.39,6.74l0,3.15a13.86,13.86,0,0,0,.28,3q.07.23.92.47a5.08,5.08,0,0,0,1.15.23c.07,0,.11.16.12.48a1.93,1.93,0,0,1,0,.65c-.13,0-.71-.06-1.75-.11s-1.8-.07-2.31-.06-1.27.05-2.21.13l-1.71.16a1,1,0,0,1-.14-.63c0-.33,0-.5.13-.5a4,4,0,0,0,1.11-.27c.49-.17.76-.34.8-.49a9.52,9.52,0,0,0,.23-2.43l0-3.15a7.23,7.23,0,0,0-.81-3.84,2.67,2.67,0,0,0-2.39-1.06,3.07,3.07,0,0,0-1.85.61,1.6,1.6,0,0,0-.78,1.26l.09,5.71a13.86,13.86,0,0,0,.28,3c0,.15.34.31.89.47a4.75,4.75,0,0,0,1.08.23c.09,0,.14.16.16.48a1.88,1.88,0,0,1,0,.65l-1.74-.11q-1.48-.08-2.24-.06t-2.31.14l-1.77.16a1,1,0,0,1-.14-.63c0-.33,0-.5.13-.5a4.63,4.63,0,0,0,1.21-.27q.81-.26.87-.49a10.91,10.91,0,0,0,.19-2.43l-.08-5.41A3.16,3.16,0,0,0,778,55a1.59,1.59,0,0,0-.75-.49,3.79,3.79,0,0,0-.8-.19q-.32,0-.32-.09c0-.64,0-1,.15-1a47.07,47.07,0,0,0,5.33-1.08l.08-.05.1,0h.08c.09,0,.17.08.24.23a1,1,0,0,1,.1.36,11.73,11.73,0,0,0-.11,1.2.27.27,0,0,0,0,.17.49.49,0,0,0,.17-.1,7.34,7.34,0,0,1,2-1.43A5.82,5.82,0,0,1,786.84,51.84Z"/><path class="cls-1" d="M803.18,51.52a5.7,5.7,0,0,1,2.43.43q.17,0,.16-.53l0-3.12a11.36,11.36,0,0,0-.23-2.25c-.12-.35-.69-.52-1.73-.5h-.27c-.13,0-.2-.17-.21-.53s.06-.53.19-.53q1-.12,1.94-.3t1.55-.36c.41-.12.76-.23,1.06-.35l.68-.26.26-.09H809a.36.36,0,0,1,.27.18.61.61,0,0,1,.14.35,12.74,12.74,0,0,0-.28,3.13l.23,14.61a12.27,12.27,0,0,0,.24,2.45.49.49,0,0,0,.34.36,2,2,0,0,0,.63.16l.63,0h.33a.7.7,0,0,1,.07.4c0,.44-.06.67-.19.67-.31,0-.7.08-1.18.15l-1.39.24-1.29.25-1.37.3c-.13,0-.2-.19-.21-.56v-.56a.15.15,0,0,0-.05-.13s-.06,0-.08,0a5.55,5.55,0,0,1-3.44,1.28,6.43,6.43,0,0,1-4.71-1.9,6.7,6.7,0,0,1-2.07-4.93,7.78,7.78,0,0,1,2.19-5.66A7.27,7.27,0,0,1,803.18,51.52Zm-.28,1.6a2.91,2.91,0,0,0-2.63,1.54,7.78,7.78,0,0,0-.83,4,8,8,0,0,0,1.1,4.38,3.26,3.26,0,0,0,2.91,1.53,2.76,2.76,0,0,0,1.82-.61,1.84,1.84,0,0,0,.67-1.49l-.11-7a2.36,2.36,0,0,0-.13-.7,3.14,3.14,0,0,0-.41-.77,2.13,2.13,0,0,0-.91-.68A3.53,3.53,0,0,0,802.9,53.12Z"/><path class="cls-1" d="M820.12,51.32a6.16,6.16,0,0,1,2.8.57,5.26,5.26,0,0,1,1.95,1.53A7.78,7.78,0,0,1,826,55.37a5.77,5.77,0,0,1,.39,1.94q0,.73-.23.92a1.89,1.89,0,0,1-1,.2l-7.94.12q-.23,0-.23.2a6.45,6.45,0,0,0,.47,2.32A4.57,4.57,0,0,0,818.92,63a3.91,3.91,0,0,0,2.52.79,9,9,0,0,0,1-.06,4.94,4.94,0,0,0,.86-.18l.7-.23a2.88,2.88,0,0,0,.61-.31l.44-.29.66-.46a.54.54,0,0,1,.17.2.64.64,0,0,1,.11.33,1,1,0,0,1-.19.63,5.43,5.43,0,0,1-1.93,1.82,6.16,6.16,0,0,1-3.27.95,6.72,6.72,0,0,1-5-2.06A7.16,7.16,0,0,1,813.36,59a7.69,7.69,0,0,1,1.86-5.47A6.44,6.44,0,0,1,820.12,51.32Zm-.21,1.53a2.35,2.35,0,0,0-1.42.49,3.12,3.12,0,0,0-.95,1.14,6.36,6.36,0,0,0-.46,1.25,4.05,4.05,0,0,0-.13,1c0,.16.07.23.2.23l5.38-.08c.2,0,.29-.17.29-.5A4.31,4.31,0,0,0,822,54,2.38,2.38,0,0,0,819.91,52.86Z"/><path class="cls-1" d="M837.85,51a3.31,3.31,0,0,1,2.74,1.05q0,2.82-1.55,2.85a2,2,0,0,1-1.3-.64,2.08,2.08,0,0,0-1.44-.64,1.78,1.78,0,0,0-1.59,1.07,4.42,4.42,0,0,0-.55,2.18l.06,4.15a14,14,0,0,0,.28,3c0,.15.34.31.89.47a4.67,4.67,0,0,0,1.12.23c.07,0,.11.16.12.48a3.56,3.56,0,0,1,0,.65l-1.76-.11q-1.49-.08-2.26-.06t-2.3.14l-1.77.16a1,1,0,0,1-.14-.63c0-.33,0-.5.13-.5a4.64,4.64,0,0,0,1.21-.27q.81-.26.87-.49a10.91,10.91,0,0,0,.19-2.43l-.08-5.41a3.16,3.16,0,0,0-.56-2.12,1.59,1.59,0,0,0-.75-.49,3.79,3.79,0,0,0-.8-.19q-.32,0-.32-.09c0-.64,0-1,.15-1a47,47,0,0,0,5.33-1.08l.26-.07c.09,0,.17.08.24.23a.82.82,0,0,1,.09.38c0,.1,0,.26,0,.47s0,.43-.07.67a3.64,3.64,0,0,0,0,.45,6.08,6.08,0,0,1,1.6-1.64A3.63,3.63,0,0,1,837.85,51Z"/><path class="cls-1" d="M859.08,50.75a6.72,6.72,0,0,1,3.8,1,7,7,0,0,1,3.35,5.86,7.77,7.77,0,0,1-7.68,8,7.72,7.72,0,0,1-2.37-.43c-.09,0-.13.16-.12.47l0,2.26a11.94,11.94,0,0,0,.31,3q0,.26.89.5a5.07,5.07,0,0,0,1.15.23q.1,0,.12.48a3.11,3.11,0,0,1,0,.61l-1.78-.07q-1.54-.08-2.27-.06t-2.34.14c-1,.08-1.6.12-1.78.13a1.22,1.22,0,0,1-.11-.61q0-.48.09-.48a4.64,4.64,0,0,0,1.21-.27c.54-.17.84-.35.9-.53a12,12,0,0,0,.16-2.39l-.2-12.68a3.22,3.22,0,0,0-.56-2.15,1.5,1.5,0,0,0-.74-.47,4,4,0,0,0-.8-.17q-.33,0-.33-.09,0-1,.18-1a25.49,25.49,0,0,0,4.93-1l.63-.18c.09,0,.14.23.14.7a1.78,1.78,0,0,1-.06.4,6.64,6.64,0,0,1,1.46-.8A4.77,4.77,0,0,1,859.08,50.75Zm-.77,1.77a2.51,2.51,0,0,0-1.77.66,2.2,2.2,0,0,0-.65,1.7l.11,6.84a2,2,0,0,0,.92,1.73,3.23,3.23,0,0,0,1.94.62,3.13,3.13,0,0,0,2.55-1.43,6.42,6.42,0,0,0,1-3.93,8.59,8.59,0,0,0-1.13-4.45A3.27,3.27,0,0,0,858.32,52.52Z"/><path class="cls-1" d="M875.09,50.47a6.16,6.16,0,0,1,2.8.57,5.26,5.26,0,0,1,1.95,1.53,7.78,7.78,0,0,1,1.09,1.94,5.77,5.77,0,0,1,.39,1.94q0,.73-.23.92a1.89,1.89,0,0,1-1,.2l-7.94.12q-.23,0-.23.2a6.45,6.45,0,0,0,.47,2.32,4.57,4.57,0,0,0,1.51,1.94,3.91,3.91,0,0,0,2.52.79,9,9,0,0,0,1-.06,5,5,0,0,0,.86-.18l.69-.23a2.84,2.84,0,0,0,.61-.31l.44-.29.66-.46a.55.55,0,0,1,.17.2.64.64,0,0,1,.11.33,1,1,0,0,1-.19.63,5.43,5.43,0,0,1-1.93,1.82,6.16,6.16,0,0,1-3.27.95,6.72,6.72,0,0,1-5-2.06,7.16,7.16,0,0,1-2.17-5.16,7.68,7.68,0,0,1,1.86-5.47A6.43,6.43,0,0,1,875.09,50.47ZM874.89,52a2.35,2.35,0,0,0-1.42.49,3.12,3.12,0,0,0-.95,1.14,6.36,6.36,0,0,0-.46,1.25,4.05,4.05,0,0,0-.13,1c0,.16.07.23.2.23l5.38-.08c.2,0,.29-.17.29-.5a4.31,4.31,0,0,0-.82-2.35A2.38,2.38,0,0,0,874.89,52Z"/><path class="cls-1" d="M890.61,50.23A7.32,7.32,0,0,1,896,52.32a7.11,7.11,0,0,1,2.29,5.23,7.52,7.52,0,0,1-15,.23,7.15,7.15,0,0,1,2.09-5.31A7.28,7.28,0,0,1,890.61,50.23Zm-.41,1.57a2.67,2.67,0,0,0-2.4,1.55A7.14,7.14,0,0,0,887,57a9.7,9.7,0,0,0,1.15,4.66,3.31,3.31,0,0,0,3,1.95A2.71,2.71,0,0,0,893.6,62a7.06,7.06,0,0,0,.82-3.6,11.39,11.39,0,0,0-.48-3.2,5.85,5.85,0,0,0-1.43-2.45A3.08,3.08,0,0,0,890.2,51.79Z"/><path class="cls-1" d="M909.34,50a6.72,6.72,0,0,1,3.8,1,7,7,0,0,1,3.35,5.86,7.77,7.77,0,0,1-7.68,8,7.72,7.72,0,0,1-2.37-.43c-.09,0-.13.16-.12.47l0,2.26a11.94,11.94,0,0,0,.31,3q0,.26.89.5a5.07,5.07,0,0,0,1.15.23q.1,0,.12.48a3.11,3.11,0,0,1,0,.61L907,71.92q-1.54-.08-2.28-.06t-2.34.14c-1,.08-1.6.12-1.78.13a1.22,1.22,0,0,1-.11-.61q0-.48.09-.48a4.64,4.64,0,0,0,1.21-.27c.54-.17.84-.35.9-.53a12,12,0,0,0,.16-2.39l-.2-12.68a3.22,3.22,0,0,0-.56-2.15,1.49,1.49,0,0,0-.74-.47,4,4,0,0,0-.8-.17q-.33,0-.33-.09,0-1,.18-1a25.49,25.49,0,0,0,4.93-1l.63-.18c.09,0,.14.23.14.7a1.78,1.78,0,0,1-.06.4,6.64,6.64,0,0,1,1.46-.8A4.77,4.77,0,0,1,909.34,50Zm-.77,1.77a2.51,2.51,0,0,0-1.77.66,2.2,2.2,0,0,0-.65,1.7l.11,6.84a2,2,0,0,0,.92,1.73,3.23,3.23,0,0,0,1.94.62,3.12,3.12,0,0,0,2.55-1.43,6.43,6.43,0,0,0,1-3.93,8.61,8.61,0,0,0-1.13-4.45A3.27,3.27,0,0,0,908.57,51.74Z"/><path class="cls-1" d="M924.47,59.6a13.66,13.66,0,0,0,.28,3q.07.23.82.5a3.62,3.62,0,0,0,1,.27c.07,0,.11.15.12.46a1.79,1.79,0,0,1,0,.63l-1.25-.06L924,64.32q-.63,0-1.2,0t-1.26.05l-1.39.1-1.26.1a.93.93,0,0,1-.14-.61c0-.32,0-.48.13-.48a3.53,3.53,0,0,0,1.11-.3q.74-.29.8-.53a10.93,10.93,0,0,0,.23-2.46l-.21-13.81a11.67,11.67,0,0,0-.23-2.25q-.18-.53-1.67-.51h-.33q-.2,0-.21-.4c0-.35.06-.53.19-.53q1-.12,2-.3t1.54-.36c.41-.12.76-.23,1.06-.33l.71-.26.23-.1h.07c.09,0,.18.06.29.19a1,1,0,0,1,.19.33,10.51,10.51,0,0,0-.35,3.13Z"/><path class="cls-1" d="M935.48,49.53a6.16,6.16,0,0,1,2.8.57,5.26,5.26,0,0,1,1.95,1.53,7.78,7.78,0,0,1,1.09,1.94,5.77,5.77,0,0,1,.39,1.94q0,.73-.23.92a1.89,1.89,0,0,1-1,.2l-7.94.12q-.23,0-.23.2a6.45,6.45,0,0,0,.47,2.32,4.57,4.57,0,0,0,1.51,1.94,3.91,3.91,0,0,0,2.52.79,9,9,0,0,0,1-.06,4.92,4.92,0,0,0,.86-.18l.7-.23a2.88,2.88,0,0,0,.61-.31l.44-.29.66-.46a.54.54,0,0,1,.17.2.64.64,0,0,1,.11.33,1,1,0,0,1-.19.63,5.43,5.43,0,0,1-1.93,1.82,6.16,6.16,0,0,1-3.27.95,6.72,6.72,0,0,1-5-2.06,7.15,7.15,0,0,1-2.17-5.16,7.68,7.68,0,0,1,1.86-5.47A6.44,6.44,0,0,1,935.48,49.53Zm-.21,1.53a2.35,2.35,0,0,0-1.42.49,3.12,3.12,0,0,0-.95,1.14,6.36,6.36,0,0,0-.46,1.25,4.05,4.05,0,0,0-.13,1c0,.16.07.23.2.23l5.38-.08c.2,0,.3-.17.29-.5a4.31,4.31,0,0,0-.82-2.35A2.38,2.38,0,0,0,935.27,51.06Z"/><path class="cls-1" d="M78.9,80.63q2.2.44,3.61.67t3.65.51l3.59.47a11,11,0,0,0,2.31,0l-.2,5.12a1.29,1.29,0,0,1-.92.08q-.26,0-.3-.22a4.79,4.79,0,0,0-.81-2.64,3.65,3.65,0,0,0-2.26-1q-3-.5-3.27,0a11.6,11.6,0,0,0-.8,3L81.57,98.54a11.34,11.34,0,0,0-.17,2.9q0,.23.81.62a5.29,5.29,0,0,0,1.11.43q.13,0,0,.61a1.73,1.73,0,0,1-.15.51l-1.25-.3L80.43,103q-.7-.15-1.36-.25-.88-.14-2.46-.3l-1.94-.18a.76.76,0,0,1,0-.55q.1-.59.23-.57a5.28,5.28,0,0,0,1.27,0q.87-.09,1-.34a10.44,10.44,0,0,0,.71-2.68L79.79,86.2A9.15,9.15,0,0,0,80,83q-.17-.6-3-1.07a3.65,3.65,0,0,0-2.46.25,4.91,4.91,0,0,0-1.64,2.21c0,.13-.16.18-.36.14a1.12,1.12,0,0,1-.81-.4l1.44-4.88a11,11,0,0,0,2.21.7Z"/><path class="cls-1" d="M100.21,91.39a6.15,6.15,0,0,1,2.65,1.06,5.26,5.26,0,0,1,1.65,1.85,7.81,7.81,0,0,1,.73,2.1,5.74,5.74,0,0,1,0,2q-.12.72-.39.86a1.89,1.89,0,0,1-1,0L96,98c-.15,0-.24,0-.26.16a6.46,6.46,0,0,0,.05,2.36A4.56,4.56,0,0,0,97,102.67a3.91,3.91,0,0,0,2.34,1.22,9,9,0,0,0,1,.11,4.93,4.93,0,0,0,.88,0l.72-.1a2.85,2.85,0,0,0,.65-.2l.49-.21.73-.34a.55.55,0,0,1,.13.22.63.63,0,0,1,0,.34,1,1,0,0,1-.3.59,5.43,5.43,0,0,1-2.22,1.45,6.16,6.16,0,0,1-3.39.35,6.72,6.72,0,0,1-4.57-2.92,7.16,7.16,0,0,1-1.23-5.47A7.68,7.68,0,0,1,95,92.66,6.43,6.43,0,0,1,100.21,91.39Zm-.48,1.47a2.35,2.35,0,0,0-1.48.23,3.13,3.13,0,0,0-1.13,1,6.41,6.41,0,0,0-.68,1.15,4.1,4.1,0,0,0-.3.94c0,.15,0,.24.16.26l5.31.87c.2,0,.32-.12.38-.44a4.3,4.3,0,0,0-.39-2.45A2.38,2.38,0,0,0,99.73,92.86Z"/><path class="cls-1" d="M112.22,103.38a13.56,13.56,0,0,0-.25,3q0,.24.72.64a3.61,3.61,0,0,0,1,.44c.06,0,.08.17,0,.48a1.82,1.82,0,0,1-.15.61l-1.22-.28-1.38-.31c-.41-.09-.8-.16-1.17-.23s-.83-.12-1.25-.17l-1.39-.14-1.26-.12a.94.94,0,0,1,0-.63c.05-.32.12-.47.21-.45a3.56,3.56,0,0,0,1.14-.1q.78-.16.88-.38a10.91,10.91,0,0,0,.66-2.38L111,89.71a11.52,11.52,0,0,0,.17-2.26q-.08-.55-1.55-.79l-.33-.05c-.13,0-.18-.16-.13-.43s.15-.51.28-.49c.69,0,1.35.06,2,.05s1.15,0,1.58-.08.79-.09,1.1-.14l.74-.13.25-.06h.06q.13,0,.25.24a1,1,0,0,1,.13.36,10.46,10.46,0,0,0-.9,3Z"/><path class="cls-1" d="M122.22,105a13.68,13.68,0,0,0-.25,3q0,.24.72.64a3.61,3.61,0,0,0,1,.44q.1,0,0,.48a1.87,1.87,0,0,1-.15.61l-1.22-.28-1.38-.31q-.62-.13-1.17-.23c-.42-.07-.83-.12-1.25-.17l-1.39-.14-1.26-.12a.94.94,0,0,1,0-.63c.05-.32.12-.47.21-.45a3.55,3.55,0,0,0,1.14-.1q.78-.16.89-.38a11,11,0,0,0,.66-2.38L121,91.35a11.52,11.52,0,0,0,.17-2.26q-.08-.55-1.55-.79l-.33-.05c-.13,0-.17-.16-.13-.43s.15-.51.28-.49q1,.07,2,.05t1.58-.08q.63-.06,1.1-.14l.74-.13L125,87h.07c.09,0,.17.09.25.24a1,1,0,0,1,.13.36,10.46,10.46,0,0,0-.9,3Z"/><path class="cls-1" d="M135.55,93.36a4.48,4.48,0,0,1,.62-1.63,5,5,0,0,1,1.06-1.26,8.81,8.81,0,0,1,1.2-.83,7,7,0,0,1,1-.51A1.55,1.55,0,0,1,140,89a1,1,0,0,1,.47.31,1.15,1.15,0,0,1,.33.56,5.38,5.38,0,0,0-1.64,1,4.3,4.3,0,0,0-.88,1,2.05,2.05,0,0,0-.25.62,2.09,2.09,0,0,0,.48,1.27,2.09,2.09,0,0,1,.48,1.31,1.23,1.23,0,0,1-.82.91,2.69,2.69,0,0,1-1.54.19,2.12,2.12,0,0,1-.91-.38A4.22,4.22,0,0,1,135.55,93.36Z"/><path class="cls-1" d="M147.6,99.13a6.18,6.18,0,0,1,2.65,1.06A5.27,5.27,0,0,1,151.9,102a7.74,7.74,0,0,1,.73,2.1,5.74,5.74,0,0,1,0,2q-.12.72-.39.86a1.89,1.89,0,0,1-1,0l-7.83-1.28c-.15,0-.24,0-.26.16a6.46,6.46,0,0,0,.05,2.36,4.56,4.56,0,0,0,1.14,2.17,3.9,3.9,0,0,0,2.34,1.22,9.08,9.08,0,0,0,1,.11,4.89,4.89,0,0,0,.88,0l.72-.1a2.88,2.88,0,0,0,.65-.2l.49-.21.73-.34a.57.57,0,0,1,.13.22.65.65,0,0,1,0,.34,1,1,0,0,1-.3.59,5.42,5.42,0,0,1-2.22,1.45,6.16,6.16,0,0,1-3.39.35,6.73,6.73,0,0,1-4.57-2.92,7.16,7.16,0,0,1-1.23-5.47,7.68,7.68,0,0,1,2.79-5.06A6.43,6.43,0,0,1,147.6,99.13Zm-.48,1.47a2.35,2.35,0,0,0-1.48.23,3.12,3.12,0,0,0-1.13,1,6.26,6.26,0,0,0-.68,1.15,4,4,0,0,0-.3.94c0,.15,0,.24.16.26L149,105c.2,0,.32-.12.38-.44a4.3,4.3,0,0,0-.39-2.45A2.38,2.38,0,0,0,147.12,100.6Z"/><path class="cls-1" d="M166.22,102.17a3.6,3.6,0,0,1,2,1,3.87,3.87,0,0,1,1,1.87,7.83,7.83,0,0,1,2.66-1.25,7.45,7.45,0,0,1,3.19-.15,3.76,3.76,0,0,1,1.93.85,3.66,3.66,0,0,1,1.07,1.67,7.83,7.83,0,0,1,.36,2.14,12.76,12.76,0,0,1-.18,2.41l-.56,3.44a14,14,0,0,0-.25,3q0,.24.81.62a4.86,4.86,0,0,0,1.07.43c.07,0,.08.18,0,.49a1.91,1.91,0,0,1-.15.63q-.23-.07-1.7-.41t-2.23-.46q-.79-.13-2.26-.27l-1.77-.16a1.25,1.25,0,0,1,0-.64c.05-.33.11-.49.18-.48a4.46,4.46,0,0,0,1.22-.05c.55-.08.86-.19.93-.34a10.54,10.54,0,0,0,.6-2.26l.54-3.34q.78-4.75-2.27-5.25a3,3,0,0,0-1.89.23,2.08,2.08,0,0,0-1,.88,2.36,2.36,0,0,1-.06.26.63.63,0,0,0,0,.26,16.4,16.4,0,0,1-.23,2l-.57,3.47a13.12,13.12,0,0,0-.23,2.86q0,.24.81.62a4.89,4.89,0,0,0,1.07.43c.07,0,.08.18,0,.49a2,2,0,0,1-.15.63q-.23-.07-1.7-.41t-2.23-.46q-.79-.13-2.26-.27l-1.78-.16a1.23,1.23,0,0,1,0-.64c.05-.33.11-.49.18-.48a4.47,4.47,0,0,0,1.22-.05c.55-.08.86-.19.93-.34a10.79,10.79,0,0,0,.62-2.35l.51-3.15a7,7,0,0,0-.15-3.83,2.53,2.53,0,0,0-2-1.51,3.18,3.18,0,0,0-1.89.26,1.57,1.57,0,0,0-1,1.11l-.92,5.64a12.13,12.13,0,0,0-.22,3c0,.16.28.36.78.61a4.46,4.46,0,0,0,1,.42c.09,0,.11.18.07.5a1.9,1.9,0,0,1-.15.63l-1.7-.41q-1.44-.34-2.2-.46t-2.31-.28l-1.76-.15a1,1,0,0,1,0-.64q.08-.49.21-.47a4.81,4.81,0,0,0,1.22-.05q.86-.11,1-.33a11,11,0,0,0,.62-2.35l.87-5.34a3.17,3.17,0,0,0-.18-2.18,1.61,1.61,0,0,0-.66-.61,3.75,3.75,0,0,0-.77-.33q-.32-.09-.31-.15.16-.95.36-1a45.91,45.91,0,0,0,5.4-.13.22.22,0,0,1,.11,0h.17c.11,0,.18.11.22.27a.6.6,0,0,1,0,.37,10.86,10.86,0,0,0-.32,1.16c0,.09,0,.15,0,.17a.51.51,0,0,0,.18-.07,7.37,7.37,0,0,1,2.24-1A5.81,5.81,0,0,1,166.22,102.17Z"/><path class="cls-1" d="M201.4,107.91q4.23.69,3.13,7.41l-.51,3.11a13.75,13.75,0,0,0-.25,3q0,.24.82.62a5.1,5.1,0,0,0,1.09.43c.07,0,.08.18,0,.49a1.9,1.9,0,0,1-.15.63q-.19-.07-1.7-.41c-1-.23-1.76-.39-2.26-.47s-1.26-.17-2.2-.26l-1.71-.14a1,1,0,0,1,0-.64c.05-.33.12-.48.21-.47a4,4,0,0,0,1.14-.07c.52-.08.81-.2.88-.34a9.51,9.51,0,0,0,.65-2.35l.51-3.11a7.21,7.21,0,0,0-.12-3.92,2.67,2.67,0,0,0-2.17-1.46,3.07,3.07,0,0,0-1.93.27,1.59,1.59,0,0,0-1,1.1l-.92,5.64a14,14,0,0,0-.25,3q0,.24.79.62a4.76,4.76,0,0,0,1,.42q.13,0,.07.5a1.9,1.9,0,0,1-.15.63l-1.7-.41q-1.44-.34-2.2-.46t-2.29-.27l-1.78-.16a1,1,0,0,1,0-.64q.08-.49.21-.47a4.63,4.63,0,0,0,1.24-.05q.84-.11.95-.33a10.89,10.89,0,0,0,.62-2.35l.87-5.34a3.15,3.15,0,0,0-.18-2.18,1.59,1.59,0,0,0-.66-.61,3.83,3.83,0,0,0-.75-.33c-.21-.06-.3-.1-.3-.15q.16-.95.33-1a47.05,47.05,0,0,0,5.44-.12l.09,0h.18c.09,0,.15.1.19.27a1,1,0,0,1,0,.38,11.61,11.61,0,0,0-.32,1.16.25.25,0,0,0,0,.17.5.5,0,0,0,.18-.07,7.34,7.34,0,0,1,2.24-1A5.81,5.81,0,0,1,201.4,107.91Z"/><path class="cls-1" d="M217.56,110.55a7.32,7.32,0,0,1,4.91,3,7.12,7.12,0,0,1,1.33,5.55A7.52,7.52,0,0,1,209,116.68a7.14,7.14,0,0,1,3-4.86A7.27,7.27,0,0,1,217.56,110.55Zm-.68,1.47a2.68,2.68,0,0,0-2.64,1.1,7.14,7.14,0,0,0-1.43,3.42,9.68,9.68,0,0,0,.31,4.79,3.31,3.31,0,0,0,2.64,2.45,2.71,2.71,0,0,0,2.65-1.11,7.08,7.08,0,0,0,1.45-3.4A11.39,11.39,0,0,0,220,116a5.86,5.86,0,0,0-1-2.67A3.07,3.07,0,0,0,216.88,112Z"/><path class="cls-1" d="M241.17,114.41A4.08,4.08,0,0,1,244,116a5.31,5.31,0,0,1,.42,3.82l-1.05,6.46a1.52,1.52,0,0,0,.13,1,1,1,0,0,0,.73.47,2.07,2.07,0,0,0,1.18-.24c.13.07.17.2.14.39a2,2,0,0,1-.36,1,8.27,8.27,0,0,1-1.45.61,3.46,3.46,0,0,1-1.64.17,2.42,2.42,0,0,1-1.38-.8,2.71,2.71,0,0,1-.75-1.37l-.28.17q-.24.15-.66.35a9.6,9.6,0,0,1-.94.39,5.28,5.28,0,0,1-1.19.26,4.84,4.84,0,0,1-1.32,0,4,4,0,0,1-2.52-1.34,3.16,3.16,0,0,1-.63-2.64,3,3,0,0,1,.62-1.41,3.93,3.93,0,0,1,1.08-1,6.81,6.81,0,0,1,1.55-.64,13.7,13.7,0,0,1,1.63-.39l1.72-.24,1.46-.2a.52.52,0,0,0,.38-.48l.29-1.8a2.85,2.85,0,0,0-.23-1.89,1.74,1.74,0,0,0-1.3-.89,2,2,0,0,0-1.64.35,2.48,2.48,0,0,0-.84,1.63,1.08,1.08,0,0,1-.65.89,2.06,2.06,0,0,1-1.16.13,1.87,1.87,0,0,1-1.58-1.06q.26-1.57,2.63-2.6A8.33,8.33,0,0,1,241.17,114.41Zm-3.53,12.34a2.57,2.57,0,0,0,1.6-.21,1.31,1.31,0,0,0,.81-.94l.55-3.34c-.16,0-.51.1-1,.17s-.92.14-1.2.21a9.11,9.11,0,0,0-1,.31,2,2,0,0,0-.89.6,1.82,1.82,0,0,0-.4.88,2,2,0,0,0,.27,1.63A1.91,1.91,0,0,0,237.64,126.75Z"/><path class="cls-1" d="M260.15,117.51q4.23.69,3.13,7.41l-.51,3.11a14,14,0,0,0-.25,3q0,.24.82.62a5.06,5.06,0,0,0,1.09.43c.07,0,.08.18,0,.49a1.92,1.92,0,0,1-.15.63q-.19-.07-1.7-.41t-2.26-.47q-.79-.13-2.2-.26l-1.71-.14a1,1,0,0,1,0-.64q.08-.49.21-.47a4,4,0,0,0,1.14-.07q.78-.13.88-.34a9.59,9.59,0,0,0,.65-2.35l.51-3.11a7.19,7.19,0,0,0-.12-3.92,2.67,2.67,0,0,0-2.17-1.46,3.07,3.07,0,0,0-1.93.27,1.6,1.6,0,0,0-1,1.1l-.92,5.64a13.75,13.75,0,0,0-.25,3q0,.24.79.62a4.77,4.77,0,0,0,1,.42q.13,0,.07.5a1.91,1.91,0,0,1-.15.63l-1.7-.41q-1.44-.34-2.2-.46t-2.29-.27l-1.77-.16a1,1,0,0,1,0-.64c.05-.33.13-.48.21-.47a4.64,4.64,0,0,0,1.24-.05q.84-.11.95-.33a10.89,10.89,0,0,0,.62-2.35l.87-5.34a3.15,3.15,0,0,0-.18-2.18,1.62,1.62,0,0,0-.66-.61,3.87,3.87,0,0,0-.76-.32c-.21-.06-.3-.1-.29-.15q.16-.95.32-1a47.14,47.14,0,0,0,5.44-.12l.09,0h.18c.09,0,.15.1.19.27a1.05,1.05,0,0,1,0,.38,11.59,11.59,0,0,0-.32,1.16c0,.09,0,.14,0,.17a.49.49,0,0,0,.18-.07,7.38,7.38,0,0,1,2.24-1A5.81,5.81,0,0,1,260.15,117.51Z"/><path class="cls-1" d="M276.29,120.07a5.71,5.71,0,0,1,2.32.85c.11,0,.19-.15.25-.5l.5-3.08a11.54,11.54,0,0,0,.17-2.26q-.08-.55-1.62-.8l-.26,0q-.2,0-.11-.56t.28-.49c.67,0,1.32.06,2,.05s1.17,0,1.59-.08.79-.1,1.1-.16l.71-.14.28,0h.07c.09,0,.16.09.23.22a.61.61,0,0,1,.07.37,12.69,12.69,0,0,0-.83,3l-2.36,14.42a12.17,12.17,0,0,0-.2,2.46.49.49,0,0,0,.27.41,2,2,0,0,0,.6.27l.62.15.32.07a.69.69,0,0,1,0,.4c-.07.44-.17.64-.3.62-.31,0-.7,0-1.18-.06h-1.41l-1.31,0-1.41.06q-.2,0-.11-.59l.09-.56a.15.15,0,0,0,0-.14s-.06,0-.08,0a5.54,5.54,0,0,1-3.61.66,6.43,6.43,0,0,1-4.3-2.7,6.7,6.7,0,0,1-1.17-5.22,7.79,7.79,0,0,1,3.15-5.19A7.27,7.27,0,0,1,276.29,120.07Zm-.55,1.52a2.91,2.91,0,0,0-2.86,1,7.78,7.78,0,0,0-1.53,3.82,8,8,0,0,0,.31,4.51,3.26,3.26,0,0,0,2.6,2,2.75,2.75,0,0,0,1.89-.28,1.84,1.84,0,0,0,.93-1.35l1.12-6.88a2.32,2.32,0,0,0,0-.71,3.15,3.15,0,0,0-.27-.83,2.14,2.14,0,0,0-.77-.83A3.52,3.52,0,0,0,275.74,121.6Z"/><path class="cls-1" d="M298.82,123.79a14.14,14.14,0,0,1,3.71,1.18,19.09,19.09,0,0,1-.24,3.73q0,.26-.47.19-.72-.12-.74-.39a4,4,0,0,0-.65-2.11,2.6,2.6,0,0,0-1.85-1.13,2.38,2.38,0,0,0-1.56.18,1.47,1.47,0,0,0-.74,1.12,1.91,1.91,0,0,0,0,.86,2.05,2.05,0,0,0,.47.8,8.15,8.15,0,0,0,.64.64c.19.17.47.39.85.68a2,2,0,0,0,.3.22l.45.34.49.38.47.4a6,6,0,0,1,.51.47l.45.48a2.74,2.74,0,0,1,.42.54l.31.57a2.16,2.16,0,0,1,.25.65,6.38,6.38,0,0,1,.08.65,3.06,3.06,0,0,1,0,.72,3.91,3.91,0,0,1-2.12,3,6.3,6.3,0,0,1-4,.57,11.08,11.08,0,0,1-4.08-1.61,12.85,12.85,0,0,1,0-1.87,15.68,15.68,0,0,1,.14-1.91.7.7,0,0,1,.49-.09c.5.08.75.21.74.39a3.67,3.67,0,0,0,.94,2.42,3.53,3.53,0,0,0,2.11,1.2,2.41,2.41,0,0,0,1.58-.21,1.62,1.62,0,0,0,.81-1.25,2.15,2.15,0,0,0,0-.62,1.59,1.59,0,0,0-.22-.61l-.3-.52a2.37,2.37,0,0,0-.52-.54l-.59-.48-.75-.56-.76-.58a7.73,7.73,0,0,1-2-2.13,3.84,3.84,0,0,1,1.64-5.3A6.4,6.4,0,0,1,298.82,123.79Z"/><path class="cls-1" d="M312.51,126.06a6.15,6.15,0,0,1,2.65,1.06,5.26,5.26,0,0,1,1.65,1.85,7.75,7.75,0,0,1,.73,2.1,5.74,5.74,0,0,1,0,2q-.12.72-.39.86a1.89,1.89,0,0,1-1,0l-7.83-1.28c-.15,0-.24,0-.26.16a6.42,6.42,0,0,0,.05,2.36,4.56,4.56,0,0,0,1.14,2.17,3.9,3.9,0,0,0,2.34,1.22,9.1,9.1,0,0,0,1,.11,4.92,4.92,0,0,0,.88,0l.72-.1a2.82,2.82,0,0,0,.65-.2l.49-.21.73-.34a.55.55,0,0,1,.13.22.63.63,0,0,1,0,.34,1,1,0,0,1-.3.59,5.41,5.41,0,0,1-2.22,1.45,6.16,6.16,0,0,1-3.39.35,6.72,6.72,0,0,1-4.57-2.92,7.16,7.16,0,0,1-1.23-5.47,7.69,7.69,0,0,1,2.79-5.06A6.44,6.44,0,0,1,312.51,126.06Zm-.47,1.47a2.35,2.35,0,0,0-1.48.23,3.15,3.15,0,0,0-1.13,1,6.5,6.5,0,0,0-.68,1.15,4.09,4.09,0,0,0-.3.94c0,.15,0,.24.16.26l5.31.87c.2,0,.32-.12.38-.44a4.32,4.32,0,0,0-.39-2.45A2.38,2.38,0,0,0,312,127.53Z"/><path class="cls-1" d="M331.14,129.1q4.23.69,3.13,7.41l-.51,3.11a14,14,0,0,0-.25,3q0,.24.82.62a5.1,5.1,0,0,0,1.09.43c.07,0,.08.18,0,.49a1.92,1.92,0,0,1-.15.63c-.13,0-.7-.18-1.7-.41s-1.76-.39-2.26-.47-1.26-.17-2.2-.26l-1.71-.14a1,1,0,0,1,0-.64q.08-.49.21-.47a4,4,0,0,0,1.14-.07q.78-.13.88-.34a9.6,9.6,0,0,0,.65-2.35l.51-3.11a7.19,7.19,0,0,0-.12-3.92,2.67,2.67,0,0,0-2.17-1.46,3.07,3.07,0,0,0-1.93.27,1.59,1.59,0,0,0-1,1.1l-.92,5.64a14,14,0,0,0-.25,3q0,.24.79.62a4.79,4.79,0,0,0,1,.42c.09,0,.11.18.07.5a1.92,1.92,0,0,1-.15.63l-1.7-.41q-1.44-.34-2.2-.46t-2.29-.27L318.2,142a1,1,0,0,1,0-.64q.08-.49.21-.47a4.64,4.64,0,0,0,1.24-.05c.56-.08.88-.19.95-.33a10.89,10.89,0,0,0,.62-2.35l.87-5.34a3.15,3.15,0,0,0-.18-2.18,1.6,1.6,0,0,0-.66-.61,3.88,3.88,0,0,0-.75-.33c-.21-.06-.3-.1-.3-.15.1-.63.21-1,.33-1a47,47,0,0,0,5.44-.12l.09,0h.18c.09,0,.15.1.19.27a1.05,1.05,0,0,1,0,.38,11.63,11.63,0,0,0-.32,1.16.27.27,0,0,0,0,.17.49.49,0,0,0,.18-.07,7.38,7.38,0,0,1,2.24-1A5.81,5.81,0,0,1,331.14,129.1Z"/><path class="cls-1" d="M347.28,131.67a5.71,5.71,0,0,1,2.32.85c.11,0,.19-.15.25-.5l.5-3.08a11.54,11.54,0,0,0,.17-2.26q-.08-.55-1.62-.8l-.26,0q-.2,0-.11-.56c.06-.35.15-.51.28-.49q1,.06,2,.05t1.59-.08c.42,0,.79-.09,1.1-.16l.71-.14.28,0h.07c.09,0,.16.09.23.22a.61.61,0,0,1,.07.37,12.69,12.69,0,0,0-.83,3l-2.36,14.42a12.17,12.17,0,0,0-.2,2.46.49.49,0,0,0,.27.41,2,2,0,0,0,.6.27l.62.15.32.07a.69.69,0,0,1,0,.4c-.07.44-.17.64-.3.62q-.46,0-1.18-.06h-1.41l-1.31,0-1.41.06q-.2,0-.11-.59l.09-.56a.14.14,0,0,0,0-.14s-.06,0-.08,0a5.54,5.54,0,0,1-3.61.66,6.43,6.43,0,0,1-4.3-2.7,6.69,6.69,0,0,1-1.17-5.22,7.78,7.78,0,0,1,3.15-5.19A7.27,7.27,0,0,1,347.28,131.67Zm-.55,1.52a2.91,2.91,0,0,0-2.86,1,7.78,7.78,0,0,0-1.53,3.82,8,8,0,0,0,.31,4.51,3.26,3.26,0,0,0,2.6,2,2.76,2.76,0,0,0,1.9-.28,1.85,1.85,0,0,0,.93-1.35l1.12-6.88a2.32,2.32,0,0,0,0-.71,3.09,3.09,0,0,0-.27-.83,2.11,2.11,0,0,0-.77-.83A3.51,3.51,0,0,0,346.73,133.19Z"/><path class="cls-1" d="M366,137.14l-2-.33q-.23,0-.09-.89a.83.83,0,0,1,.08-.29,9.29,9.29,0,0,0,2.81-1.32l1.09-.81q.59-.46,1.42-1.2a2.35,2.35,0,0,1,.61.18c.19.09.28.16.27.23l-.52,3.21,2.37.4,1.62.28c.18,0,.25.14.21.34a3.23,3.23,0,0,1-.56,1.39l-3.93-.64-1.29,7.9a3.15,3.15,0,0,0,.23,2.09,1.9,1.9,0,0,0,1.43.94,3.16,3.16,0,0,0,.7,0,3.54,3.54,0,0,0,.62-.08l.46-.13.25-.06q.13,0,.25.34a.77.77,0,0,1,.06.45,3,3,0,0,1-1.57.84,5.23,5.23,0,0,1-2.44.22,4.19,4.19,0,0,1-2.72-1.57,4.45,4.45,0,0,1-.64-3.59Z"/><path class="cls-1" d="M387,138.22q4.2.69,3.14,7.14l-.55,3.38a12.13,12.13,0,0,0-.22,3c0,.16.26.36.79.62a5.14,5.14,0,0,0,1.09.43c.07,0,.08.18,0,.49a3.73,3.73,0,0,1-.12.64c-.15,0-.73-.19-1.73-.42s-1.75-.39-2.23-.46-1.29-.18-2.23-.26l-1.74-.15a1.26,1.26,0,0,1,0-.64c.05-.33.11-.49.18-.48a4,4,0,0,0,1.17-.06q.78-.13.91-.34a12.49,12.49,0,0,0,.59-2.36l.53-3.21a6.94,6.94,0,0,0-.12-3.87,2.72,2.72,0,0,0-2.17-1.42,3.18,3.18,0,0,0-1.89.26,1.57,1.57,0,0,0-1,1.11l-.92,5.64a12.21,12.21,0,0,0-.22,3q0,.24.79.62a4.7,4.7,0,0,0,1.06.43c.07,0,.08.18,0,.49a1.91,1.91,0,0,1-.15.63l-1.7-.41q-1.44-.34-2.2-.46t-2.29-.27L374,151.1a1,1,0,0,1,0-.64q.08-.49.21-.47a4.64,4.64,0,0,0,1.24-.05q.84-.11.95-.33a10.7,10.7,0,0,0,.62-2.32l2.23-13.63a13,13,0,0,0,.2-2.26q-.08-.55-1.62-.8l-.29,0c-.13,0-.17-.21-.11-.56s.15-.51.28-.49q1,.07,2,.05t1.58-.08c.42,0,.79-.1,1.1-.16l1-.17h.06c.09,0,.16.09.23.22a.93.93,0,0,1,.11.37,10.77,10.77,0,0,0-.9,3l-1.08,6.62c0,.13,0,.2.1.22s.07,0,.15-.08a6.3,6.3,0,0,1,2.25-1.1A6.12,6.12,0,0,1,387,138.22Z"/><path class="cls-1" d="M402.25,140.71a6.15,6.15,0,0,1,2.65,1.06,5.25,5.25,0,0,1,1.65,1.85,7.75,7.75,0,0,1,.73,2.1,5.74,5.74,0,0,1,0,2q-.12.72-.39.86a1.89,1.89,0,0,1-1,0l-7.83-1.28c-.15,0-.24,0-.26.16a6.42,6.42,0,0,0,.05,2.36A4.56,4.56,0,0,0,399,152a3.9,3.9,0,0,0,2.34,1.22,9,9,0,0,0,1,.11,5,5,0,0,0,.88,0l.72-.1a2.8,2.8,0,0,0,.65-.2l.49-.21.73-.34a.55.55,0,0,1,.13.22.63.63,0,0,1,0,.34,1,1,0,0,1-.3.59,5.41,5.41,0,0,1-2.22,1.45,6.16,6.16,0,0,1-3.39.35,6.72,6.72,0,0,1-4.57-2.92,7.16,7.16,0,0,1-1.23-5.47A7.69,7.69,0,0,1,397,142,6.44,6.44,0,0,1,402.25,140.71Zm-.47,1.47a2.35,2.35,0,0,0-1.48.23,3.14,3.14,0,0,0-1.13,1,6.51,6.51,0,0,0-.68,1.15,4.1,4.1,0,0,0-.3.94q0,.23.16.26l5.31.87c.2,0,.32-.12.38-.44a4.32,4.32,0,0,0-.39-2.45A2.38,2.38,0,0,0,401.78,142.18Z"/><path class="cls-1" d="M420.87,143.75a3.59,3.59,0,0,1,2,1,3.87,3.87,0,0,1,1,1.87,7.84,7.84,0,0,1,2.66-1.25,7.45,7.45,0,0,1,3.19-.15,3.77,3.77,0,0,1,1.93.85,3.66,3.66,0,0,1,1.07,1.67,7.83,7.83,0,0,1,.36,2.14,12.61,12.61,0,0,1-.18,2.41l-.56,3.44a13.9,13.9,0,0,0-.25,3q0,.24.81.62a4.87,4.87,0,0,0,1.07.43c.07,0,.08.18,0,.49a1.9,1.9,0,0,1-.15.63c-.15,0-.72-.18-1.7-.41s-1.73-.38-2.23-.46-1.28-.18-2.26-.27l-1.78-.16a1.23,1.23,0,0,1,0-.64c.05-.33.11-.49.18-.48a4.46,4.46,0,0,0,1.22-.05c.55-.08.86-.19.93-.34a10.31,10.31,0,0,0,.6-2.26l.54-3.34q.78-4.75-2.27-5.25a3,3,0,0,0-1.89.23,2.07,2.07,0,0,0-1,.88,2.36,2.36,0,0,1-.06.26.63.63,0,0,0,0,.26,16.4,16.4,0,0,1-.23,2l-.57,3.47a13,13,0,0,0-.23,2.86q0,.24.81.62a4.86,4.86,0,0,0,1.07.43c.06,0,.08.18,0,.49a1.9,1.9,0,0,1-.15.63q-.22-.07-1.7-.41t-2.23-.46q-.79-.13-2.26-.27l-1.78-.16a1.23,1.23,0,0,1,0-.64c.05-.33.11-.49.18-.48a4.47,4.47,0,0,0,1.22-.05c.55-.08.86-.19.93-.34a10.79,10.79,0,0,0,.62-2.35l.51-3.15a7,7,0,0,0-.15-3.83,2.53,2.53,0,0,0-2-1.51,3.17,3.17,0,0,0-1.89.26,1.57,1.57,0,0,0-1,1.11l-.92,5.64a12.23,12.23,0,0,0-.22,3q0,.24.78.61a4.5,4.5,0,0,0,1,.42c.09,0,.11.18.07.5a1.9,1.9,0,0,1-.15.63l-1.7-.41q-1.44-.34-2.2-.46t-2.31-.28l-1.76-.15a1,1,0,0,1,0-.64c.05-.33.12-.48.21-.47a4.81,4.81,0,0,0,1.22-.05q.86-.11,1-.33a10.78,10.78,0,0,0,.62-2.35l.87-5.34a3.16,3.16,0,0,0-.18-2.18,1.61,1.61,0,0,0-.66-.61,3.79,3.79,0,0,0-.77-.33c-.22-.06-.32-.11-.31-.15q.16-.95.36-1a45.9,45.9,0,0,0,5.4-.13.22.22,0,0,1,.11,0h.17c.11,0,.18.11.22.27a.6.6,0,0,1,0,.37,11.41,11.41,0,0,0-.32,1.16c0,.09,0,.15,0,.17A.5.5,0,0,0,416,145a7.36,7.36,0,0,1,2.24-1A5.81,5.81,0,0,1,420.87,143.75Z"/><path class="cls-1" d="M452.22,148.87a4.08,4.08,0,0,1,2.87,1.56,5.31,5.31,0,0,1,.42,3.82l-1.05,6.46a1.52,1.52,0,0,0,.13,1,1,1,0,0,0,.73.47,2.07,2.07,0,0,0,1.18-.24c.12.07.17.2.14.39a2,2,0,0,1-.36,1,8.18,8.18,0,0,1-1.44.61,3.46,3.46,0,0,1-1.64.17,2.42,2.42,0,0,1-1.38-.8,2.73,2.73,0,0,1-.75-1.37l-.28.17c-.16.1-.38.21-.66.35a9.76,9.76,0,0,1-.94.39,5.33,5.33,0,0,1-1.19.26,4.83,4.83,0,0,1-1.32,0,4,4,0,0,1-2.52-1.34,3.15,3.15,0,0,1-.63-2.64,3.07,3.07,0,0,1,.62-1.41,3.93,3.93,0,0,1,1.09-1,6.78,6.78,0,0,1,1.55-.64,13.6,13.6,0,0,1,1.63-.39l1.72-.24,1.46-.2a.52.52,0,0,0,.38-.48l.29-1.8a2.85,2.85,0,0,0-.23-1.89,1.73,1.73,0,0,0-1.3-.89,2,2,0,0,0-1.64.35,2.48,2.48,0,0,0-.84,1.63,1.07,1.07,0,0,1-.65.89,2.07,2.07,0,0,1-1.17.13,1.87,1.87,0,0,1-1.57-1.06q.25-1.57,2.63-2.6A8.33,8.33,0,0,1,452.22,148.87Zm-3.53,12.34a2.58,2.58,0,0,0,1.6-.21,1.31,1.31,0,0,0,.81-.94l.55-3.34q-.25.06-1,.17t-1.19.21a9,9,0,0,0-1,.31,2,2,0,0,0-.89.59,1.82,1.82,0,0,0-.39.88,2,2,0,0,0,.27,1.63A1.91,1.91,0,0,0,448.69,161.21Z"/><path class="cls-1" d="M471.77,162.09a13.68,13.68,0,0,0-.25,3c0,.16.26.37.72.64a3.6,3.6,0,0,0,1,.44q.1,0,0,.48a1.81,1.81,0,0,1-.15.61l-1.21-.28-1.38-.31q-.62-.13-1.18-.23c-.41-.07-.83-.12-1.25-.17l-1.39-.14-1.26-.12a.94.94,0,0,1,0-.63c.05-.32.12-.47.21-.45a3.56,3.56,0,0,0,1.14-.1q.78-.16.89-.38a11,11,0,0,0,.66-2.38l2.23-13.63a11.54,11.54,0,0,0,.17-2.26q-.08-.55-1.55-.79l-.33-.05c-.13,0-.18-.16-.13-.43s.15-.51.28-.49c.69,0,1.35.06,2,.05s1.16,0,1.58-.08.79-.09,1.1-.14l.74-.13.25-.06h.07q.13,0,.25.24a1,1,0,0,1,.13.36,10.46,10.46,0,0,0-.9,3Z"/><path class="cls-1" d="M481.9,163.81a12.21,12.21,0,0,0-.22,3q0,.24.81.62a4.84,4.84,0,0,0,1.07.43c.09,0,.11.18.07.5a1.86,1.86,0,0,1-.15.63c-.15,0-.73-.19-1.73-.42s-1.75-.39-2.23-.46-1.32-.18-2.33-.28-1.59-.15-1.74-.15a1,1,0,0,1,0-.64q.08-.49.21-.47a4.81,4.81,0,0,0,1.22-.05q.86-.11,1-.33a10.89,10.89,0,0,0,.62-2.35l.87-5.34a3.15,3.15,0,0,0-.18-2.18,1.84,1.84,0,0,0-.67-.61,3.52,3.52,0,0,0-.76-.32q-.32-.09-.31-.15.16-.95.36-1a25.41,25.41,0,0,0,2.72,0,26,26,0,0,0,2.69-.17l.27,0c.11,0,.18.11.22.27a.6.6,0,0,1,0,.37q-.6,2.05-.72,2.78Zm-1.17-14.27a2,2,0,0,1-.35-1.54,2,2,0,0,1,2.36-1.68,2,2,0,0,1,1.35.83,2,2,0,0,1,.36,1.52,2,2,0,0,1-.82,1.35,2,2,0,0,1-2.88-.47Z"/><path class="cls-1" d="M498.55,156.43q4.23.69,3.13,7.41l-.51,3.11a13.75,13.75,0,0,0-.25,3q0,.24.82.62a5.08,5.08,0,0,0,1.09.43c.07,0,.08.18,0,.49a1.9,1.9,0,0,1-.15.63q-.19-.07-1.7-.41c-1-.23-1.76-.39-2.26-.47s-1.26-.17-2.2-.26l-1.71-.14a1,1,0,0,1,0-.64c.05-.33.12-.48.21-.47a4,4,0,0,0,1.14-.07c.52-.08.81-.2.88-.34a9.51,9.51,0,0,0,.65-2.35l.51-3.11a7.21,7.21,0,0,0-.12-3.92,2.67,2.67,0,0,0-2.17-1.46,3.07,3.07,0,0,0-1.93.27,1.59,1.59,0,0,0-1,1.1l-.92,5.64a14,14,0,0,0-.25,3q0,.24.79.62a4.76,4.76,0,0,0,1,.42c.09,0,.11.18.07.5a1.9,1.9,0,0,1-.15.63l-1.7-.41q-1.44-.34-2.2-.46t-2.29-.27l-1.78-.16a1,1,0,0,1,0-.64q.08-.49.21-.47a4.64,4.64,0,0,0,1.24-.05q.84-.11.95-.33a10.89,10.89,0,0,0,.62-2.35l.87-5.34a3.15,3.15,0,0,0-.18-2.18,1.59,1.59,0,0,0-.66-.61,3.78,3.78,0,0,0-.75-.33c-.21-.06-.3-.1-.3-.15q.16-.95.33-1a47,47,0,0,0,5.44-.12l.09,0h.18c.09,0,.15.1.19.27a1,1,0,0,1,0,.38,11.61,11.61,0,0,0-.32,1.16.25.25,0,0,0,0,.17.5.5,0,0,0,.18-.07,7.36,7.36,0,0,1,2.24-1A5.81,5.81,0,0,1,498.55,156.43Z"/><path class="cls-1" d="M520.65,162.3q-.72.29-2.32,1.14a23.57,23.57,0,0,0-3,1.87q.79,1.17,2,3t2,3.08a15.86,15.86,0,0,0,1.09,1.56,4.2,4.2,0,0,0,1.15.86,4,4,0,0,0,1.05.44c.09,0,.1.21,0,.58a2,2,0,0,1-.11.45l-3.81-.79q-.62-.1-1.27-.17L516,174.2l-1.24-.12a.91.91,0,0,1,0-.61q.07-.46.21-.44a2.38,2.38,0,0,0,.78,0c.3-.05.46-.13.48-.24s0-.07,0-.07l-3.91-6.12-.41,0-.33,2a13.53,13.53,0,0,0-.22,3q0,.24.81.62a4.8,4.8,0,0,0,1.11.43c.07,0,.08.18,0,.49a1.92,1.92,0,0,1-.15.63q-.23-.07-1.72-.41t-2.24-.47q-.79-.13-2.29-.27l-1.78-.16a1,1,0,0,1,0-.64c.05-.33.12-.48.21-.47a4.64,4.64,0,0,0,1.24-.05q.84-.11.95-.33a10.79,10.79,0,0,0,.62-2.35l2.22-13.6a13,13,0,0,0,.2-2.25q-.08-.55-1.62-.8l-.29,0q-.2,0-.11-.56c.06-.35.15-.51.28-.49.69,0,1.35.06,2,.05s1.16,0,1.58-.08.79-.09,1.1-.16l1-.18h.06c.09,0,.17.09.23.22a1,1,0,0,1,.11.37,10.64,10.64,0,0,0-.9,3l-1.79,10.94a3,3,0,0,0,1-.2q.79-.51,1.7-1.05l1.32-.78q.41-.24.83-.52a2.91,2.91,0,0,0,.56-.46.79.79,0,0,0,.18-.37q.06-.36-.67-.56a3.32,3.32,0,0,1-.72-.23,1.52,1.52,0,0,1,0-.59c0-.23.1-.35.19-.36l3.18.52q.88.14,3.49.44a.52.52,0,0,1,.11.39,1.49,1.49,0,0,1-.1.49c-.06.15-.12.22-.19.21A4.35,4.35,0,0,0,520.65,162.3Z"/><path class="cls-1" d="M535.88,164.89l-2-.33q-.23,0-.09-.89a.83.83,0,0,1,.08-.29,9.3,9.3,0,0,0,2.81-1.32l1.09-.81q.59-.46,1.42-1.2a2.36,2.36,0,0,1,.61.18c.19.09.28.16.27.23l-.52,3.21,2.37.4,1.62.28c.18,0,.25.14.21.34a3.21,3.21,0,0,1-.56,1.39l-3.93-.64-1.29,7.9a3.15,3.15,0,0,0,.23,2.09,1.9,1.9,0,0,0,1.43.94,3.14,3.14,0,0,0,.7,0,3.54,3.54,0,0,0,.62-.08l.46-.13.24-.06c.09,0,.17.11.25.34a.78.78,0,0,1,.06.45,3,3,0,0,1-1.57.84A5.23,5.23,0,0,1,538,178a4.19,4.19,0,0,1-2.72-1.57,4.45,4.45,0,0,1-.64-3.59Z"/><path class="cls-1" d="M553.57,165.42a7.32,7.32,0,0,1,4.91,3,7.12,7.12,0,0,1,1.33,5.55A7.52,7.52,0,0,1,545,171.55a7.14,7.14,0,0,1,3-4.86A7.27,7.27,0,0,1,553.57,165.42Zm-.68,1.47a2.68,2.68,0,0,0-2.64,1.1,7.14,7.14,0,0,0-1.43,3.42,9.68,9.68,0,0,0,.31,4.79,3.31,3.31,0,0,0,2.64,2.45,2.71,2.71,0,0,0,2.65-1.11,7.08,7.08,0,0,0,1.45-3.4,11.39,11.39,0,0,0,.09-3.23,5.86,5.86,0,0,0-1-2.67A3.08,3.08,0,0,0,552.89,166.89Z"/><path class="cls-1" d="M574.4,178.85a13.68,13.68,0,0,0-.25,3c0,.16.26.37.72.64a3.61,3.61,0,0,0,1,.44c.07,0,.08.17,0,.48a1.87,1.87,0,0,1-.15.61l-1.22-.28-1.38-.31q-.62-.13-1.18-.23c-.41-.07-.83-.12-1.25-.17l-1.39-.14-1.26-.12a.92.92,0,0,1,0-.63c.05-.32.12-.47.21-.45a3.55,3.55,0,0,0,1.14-.1q.78-.16.89-.38a11,11,0,0,0,.66-2.38l2.23-13.63a11.54,11.54,0,0,0,.17-2.26q-.08-.55-1.55-.79l-.33-.05c-.13,0-.18-.16-.13-.43s.15-.51.28-.49c.69,0,1.35.06,2,.05s1.16,0,1.58-.08.79-.09,1.1-.14l.74-.13.25-.06h.07q.13,0,.25.24a1,1,0,0,1,.13.36,10.46,10.46,0,0,0-.9,3Z"/><path class="cls-1" d="M584.53,180.57a12.21,12.21,0,0,0-.22,3q0,.24.81.62a4.89,4.89,0,0,0,1.07.43q.13,0,.07.5a1.9,1.9,0,0,1-.15.63q-.22-.07-1.73-.42t-2.23-.46c-.55-.09-1.32-.18-2.33-.28s-1.59-.15-1.74-.15a1,1,0,0,1,0-.64q.08-.49.21-.47a4.82,4.82,0,0,0,1.22-.05q.86-.11,1-.33a10.79,10.79,0,0,0,.62-2.35l.87-5.34a3.15,3.15,0,0,0-.18-2.18,1.86,1.86,0,0,0-.67-.61,3.54,3.54,0,0,0-.75-.33c-.22-.06-.32-.11-.31-.15q.16-.95.36-1a25.54,25.54,0,0,0,2.72,0,26.15,26.15,0,0,0,2.69-.17l.27,0c.11,0,.19.11.23.27a.63.63,0,0,1,0,.37,28.13,28.13,0,0,0-.72,2.78Zm-1.17-14.27a2,2,0,0,1-.36-1.54,2,2,0,0,1,2.36-1.68,2,2,0,0,1,1.7,2.35,2,2,0,0,1-.83,1.35,2,2,0,0,1-2.88-.47Z"/><path class="cls-1" d="M595.81,172.28a14.12,14.12,0,0,1,3.71,1.18,19.08,19.08,0,0,1-.24,3.73c0,.18-.19.24-.47.19q-.72-.12-.74-.39a4,4,0,0,0-.65-2.11,2.6,2.6,0,0,0-1.85-1.13,2.38,2.38,0,0,0-1.56.18,1.47,1.47,0,0,0-.74,1.12,1.91,1.91,0,0,0,0,.87,2.06,2.06,0,0,0,.47.8,8.14,8.14,0,0,0,.64.64c.19.16.47.39.85.68a2,2,0,0,0,.3.22l.45.34.49.38.47.4a6.06,6.06,0,0,1,.51.47l.45.48a2.72,2.72,0,0,1,.42.54l.31.57a2.16,2.16,0,0,1,.25.65,6.38,6.38,0,0,1,.08.65,3.17,3.17,0,0,1,0,.72,3.91,3.91,0,0,1-2.12,3,6.3,6.3,0,0,1-4,.57,11.07,11.07,0,0,1-4.08-1.61,12.84,12.84,0,0,1,0-1.87,16.1,16.1,0,0,1,.14-1.91.71.71,0,0,1,.49-.09c.5.08.75.21.74.39a3.67,3.67,0,0,0,.94,2.42,3.53,3.53,0,0,0,2.11,1.2,2.41,2.41,0,0,0,1.58-.21,1.62,1.62,0,0,0,.81-1.25,2.15,2.15,0,0,0,0-.62,1.6,1.6,0,0,0-.22-.61l-.3-.52a2.37,2.37,0,0,0-.52-.54l-.59-.48-.75-.56-.76-.58a7.73,7.73,0,0,1-2-2.13,3.84,3.84,0,0,1,1.64-5.3A6.4,6.4,0,0,1,595.81,172.28Z"/><path class="cls-1" d="M604.32,176.06l-2-.33q-.23,0-.09-.89a.8.8,0,0,1,.08-.29,9.29,9.29,0,0,0,2.81-1.32l1.09-.81c.4-.31.87-.7,1.42-1.2a2.34,2.34,0,0,1,.61.18c.19.09.28.16.27.23l-.53,3.21,2.37.4,1.62.28c.17,0,.24.14.21.34a3.23,3.23,0,0,1-.56,1.39l-3.93-.64-1.29,7.9a3.15,3.15,0,0,0,.23,2.09,1.9,1.9,0,0,0,1.43.94,3.13,3.13,0,0,0,.7,0,3.5,3.5,0,0,0,.62-.08l.46-.13.25-.06q.13,0,.25.34a.78.78,0,0,1,.06.45,3,3,0,0,1-1.57.84,5.23,5.23,0,0,1-2.44.22,4.19,4.19,0,0,1-2.72-1.57A4.45,4.45,0,0,1,603,184Z"/><path class="cls-1" d="M621.32,176.48a6.18,6.18,0,0,1,2.65,1.06,5.28,5.28,0,0,1,1.65,1.85,7.75,7.75,0,0,1,.73,2.1,5.74,5.74,0,0,1,0,2q-.12.72-.39.86a1.89,1.89,0,0,1-1,0l-7.83-1.28c-.15,0-.24,0-.26.16a6.46,6.46,0,0,0,.05,2.36,4.56,4.56,0,0,0,1.14,2.17,3.91,3.91,0,0,0,2.34,1.22,9.14,9.14,0,0,0,1,.11,4.94,4.94,0,0,0,.88,0l.72-.1a2.85,2.85,0,0,0,.65-.2l.49-.21.73-.34a.55.55,0,0,1,.13.22.65.65,0,0,1,0,.34,1,1,0,0,1-.3.59,5.41,5.41,0,0,1-2.22,1.45,6.16,6.16,0,0,1-3.39.35,6.73,6.73,0,0,1-4.57-2.92,7.16,7.16,0,0,1-1.23-5.47,7.68,7.68,0,0,1,2.79-5.06A6.43,6.43,0,0,1,621.32,176.48Zm-.48,1.47a2.34,2.34,0,0,0-1.48.23,3.11,3.11,0,0,0-1.13,1,6.27,6.27,0,0,0-.68,1.15,4,4,0,0,0-.3.94c0,.15,0,.24.16.26l5.31.87q.3,0,.38-.44a4.32,4.32,0,0,0-.39-2.45A2.38,2.38,0,0,0,620.84,178Z"/><path class="cls-1" d="M639.94,179.52q4.23.69,3.13,7.41l-.51,3.11a13.75,13.75,0,0,0-.25,3q0,.24.82.62a5.06,5.06,0,0,0,1.09.43c.06,0,.08.18,0,.49a1.9,1.9,0,0,1-.15.63q-.19-.07-1.7-.41c-1-.23-1.76-.39-2.26-.47s-1.26-.17-2.19-.26l-1.71-.14a1,1,0,0,1,0-.64c.05-.33.13-.48.21-.47a4,4,0,0,0,1.14-.07c.52-.08.81-.2.88-.34a9.51,9.51,0,0,0,.65-2.35l.51-3.11a7.19,7.19,0,0,0-.12-3.92,2.67,2.67,0,0,0-2.17-1.46,3.08,3.08,0,0,0-1.93.27,1.6,1.6,0,0,0-1,1.1l-.92,5.64a13.9,13.9,0,0,0-.25,3q0,.24.79.62a4.72,4.72,0,0,0,1,.42q.13,0,.07.5a1.9,1.9,0,0,1-.15.63l-1.7-.41q-1.44-.34-2.2-.46t-2.29-.27l-1.78-.16a1,1,0,0,1,0-.64c.05-.33.12-.48.21-.47a4.64,4.64,0,0,0,1.24-.05q.84-.11.95-.33a10.79,10.79,0,0,0,.62-2.35l.87-5.34a3.16,3.16,0,0,0-.18-2.18,1.61,1.61,0,0,0-.66-.61,3.81,3.81,0,0,0-.75-.32c-.21-.06-.3-.1-.29-.15q.16-.95.32-1a47.11,47.11,0,0,0,5.44-.12l.09,0H635c.09,0,.15.1.19.27a1,1,0,0,1,0,.38,10.84,10.84,0,0,0-.32,1.16c0,.09,0,.14,0,.17a.5.5,0,0,0,.18-.07,7.36,7.36,0,0,1,2.24-1A5.81,5.81,0,0,1,639.94,179.52Z"/><path class="cls-1" d="M657.41,184.73l-2-.33q-.23,0-.09-.89a.82.82,0,0,1,.08-.29,9.3,9.3,0,0,0,2.81-1.32l1.09-.81q.59-.46,1.42-1.2a2.36,2.36,0,0,1,.61.18c.19.09.28.16.27.23l-.52,3.21,2.37.4,1.62.28c.17,0,.25.14.21.34a3.21,3.21,0,0,1-.56,1.39l-3.93-.64-1.29,7.9a3.15,3.15,0,0,0,.23,2.09,1.9,1.9,0,0,0,1.43.94,3.14,3.14,0,0,0,.7,0,3.52,3.52,0,0,0,.62-.08l.46-.13.24-.06c.09,0,.17.11.25.34a.78.78,0,0,1,.06.45,3,3,0,0,1-1.57.84,5.24,5.24,0,0,1-2.44.22,4.19,4.19,0,0,1-2.72-1.57,4.44,4.44,0,0,1-.64-3.59Z"/><path class="cls-1" d="M675.09,185.26a7.33,7.33,0,0,1,4.91,3,7.11,7.11,0,0,1,1.33,5.55,7.57,7.57,0,1,1-6.24-8.55Zm-.68,1.47a2.67,2.67,0,0,0-2.63,1.1,7.14,7.14,0,0,0-1.43,3.42,9.68,9.68,0,0,0,.31,4.79,3.31,3.31,0,0,0,2.64,2.45,2.71,2.71,0,0,0,2.66-1.11,7.06,7.06,0,0,0,1.45-3.4,11.47,11.47,0,0,0,.09-3.23,5.88,5.88,0,0,0-1-2.67A3.08,3.08,0,0,0,674.41,186.73Z"/><path class="cls-1" d="M692.06,184.23a4.51,4.51,0,0,1,.62-1.63,5,5,0,0,1,1.06-1.26,9.06,9.06,0,0,1,1.2-.83,7,7,0,0,1,1-.51,1.53,1.53,0,0,1,.51-.14,1,1,0,0,1,.47.31,1.14,1.14,0,0,1,.33.56,5.41,5.41,0,0,0-1.64,1,4.29,4.29,0,0,0-.88,1,2.11,2.11,0,0,0-.25.61,2.08,2.08,0,0,0,.48,1.27,2.1,2.1,0,0,1,.48,1.31,1.23,1.23,0,0,1-.82.91,2.68,2.68,0,0,1-1.54.19,2.13,2.13,0,0,1-.91-.38A4.24,4.24,0,0,1,692.06,184.23Zm4.79.78a4.44,4.44,0,0,1,.62-1.63,5,5,0,0,1,1.06-1.26,9.06,9.06,0,0,1,1.2-.83,7,7,0,0,1,1-.51,1.53,1.53,0,0,1,.51-.14,1,1,0,0,1,.47.31,1.15,1.15,0,0,1,.33.56,5.6,5.6,0,0,0-1.66,1,4.16,4.16,0,0,0-.9,1,2.05,2.05,0,0,0-.25.61,2.09,2.09,0,0,0,.48,1.27,2.09,2.09,0,0,1,.48,1.31,1.23,1.23,0,0,1-.82.91,2.63,2.63,0,0,1-1.51.19,2.2,2.2,0,0,1-.95-.39A4.24,4.24,0,0,1,696.85,185Z"/><path class="cls-1" d="M704.88,204.9q-1-.16-2.11-.29t-1.76-.17l-.66-.07a.88.88,0,0,1,0-.54c.06-.37.13-.55.19-.54a5.48,5.48,0,0,0,1.28,0c.57-.05.91-.17,1-.35a12.09,12.09,0,0,0,.72-2.94l2-12.39a10.47,10.47,0,0,0,.21-2.72c0-.25-.3-.5-.82-.74a5.23,5.23,0,0,0-1.27-.44c-.09,0-.11-.19-.05-.51a.89.89,0,0,1,.23-.57q2.11.48,4.3.84,1.54.28,5.21.75t5.41.75q0,1,.08,2.82t.11,2a1,1,0,0,1-.71.05c-.24,0-.38-.14-.42-.3a4.17,4.17,0,0,0-3.72-3.6l-1.71-.28q-2.43-.4-2.56,0a14.72,14.72,0,0,0-.6,2.63l-.84,5.14q0,.2,1.41.43l1.67.27.13,0a8.46,8.46,0,0,0,2.29.21c.26-.07.51-.42.75-1.06.12-.32.23-.58.33-.79s.23-.2.56-.14a.91.91,0,0,1,.6.27l-1,6.19a1,1,0,0,1-.64,0c-.29,0-.45-.16-.48-.35a10.29,10.29,0,0,0-.2-1.38,2,2,0,0,0-.15-.5l-.25-.24a9.13,9.13,0,0,0-3-.75q-2.33-.38-2.37-.12l-.84,5.14a8.09,8.09,0,0,0-.08,2.78c.05.23.41.5,1.08.82a6.66,6.66,0,0,0,1.36.53c.11,0,.13.21.07.58a1,1,0,0,1-.18.51Q705.6,205,704.88,204.9Z"/><path class="cls-1" d="M722.61,204.43a2.16,2.16,0,0,1,.39,1.64,2.22,2.22,0,0,1-.89,1.45,2.06,2.06,0,0,1-1.63.42A2.15,2.15,0,0,1,719,207a2.19,2.19,0,0,1-.4-1.66,2.14,2.14,0,0,1,.91-1.43,2.18,2.18,0,0,1,1.68-.4A2.08,2.08,0,0,1,722.61,204.43Z"/><path class="cls-1" d="M732.7,187.47q.59.1,4.23.49a2.22,2.22,0,0,1,0,.54q-.09.56-.22.54a5.71,5.71,0,0,0-1.22.05c-.62.07-.95.19-1,.36a12,12,0,0,0-.73,2.84l-1.23,7.54a9.12,9.12,0,0,0,.58,5.63,4.78,4.78,0,0,0,3.72,2.68,5.31,5.31,0,0,0,4.32-1q1.79-1.41,2.42-5.24l1.3-8a6.75,6.75,0,0,0,.1-2.68,2.3,2.3,0,0,0-1.07-.76,5.94,5.94,0,0,0-1.35-.51c-.09,0-.11-.17-.07-.48a1.1,1.1,0,0,1,.18-.58q3.5.81,4.09.9.82.13,2.2.24t1.71.16a1.86,1.86,0,0,1,0,.53c-.06.35-.13.52-.22.5a6.37,6.37,0,0,0-1.45,0,2.16,2.16,0,0,0-1.36.47,7.43,7.43,0,0,0-.8,2.66l-1.26,7.7a14,14,0,0,1-1.34,4.31,7,7,0,0,1-2.24,2.63,7.26,7.26,0,0,1-2.86,1.13,10.53,10.53,0,0,1-3.41-.05,8.25,8.25,0,0,1-5.8-3.39q-1.87-2.74-1-8l1.17-7.14a9.16,9.16,0,0,0,.19-2.8q-.09-.28-.83-.66a4.48,4.48,0,0,0-1.14-.44c-.09,0-.11-.19-.05-.51s.12-.52.19-.57Z"/><path class="cls-1" d="M753.56,209.48a2.16,2.16,0,0,1,.39,1.64,2.22,2.22,0,0,1-.89,1.45,2.06,2.06,0,0,1-1.63.42,2.15,2.15,0,0,1-1.46-.93,2.19,2.19,0,0,1-.4-1.66,2.14,2.14,0,0,1,.91-1.43,2.18,2.18,0,0,1,1.68-.4A2.08,2.08,0,0,1,753.56,209.48Z"/><path class="cls-1" d="M759.07,209l2-12.39a10.58,10.58,0,0,0,.21-2.72q0-.38-.82-.74a5.23,5.23,0,0,0-1.27-.44c-.09,0-.1-.19-.05-.51a.9.9,0,0,1,.23-.57q2.14.45,4.34.81l2.82.44,2,.3a9.83,9.83,0,0,1,4.46,2,4.9,4.9,0,0,1,1.53,2.05,5,5,0,0,1,.27,2.77,3.88,3.88,0,0,1-1,2.08,5.34,5.34,0,0,1-1.53,1.21,5.5,5.5,0,0,1-1.12.4q-.28.06-.16.18a5.37,5.37,0,0,1,2.42,2.16,5.23,5.23,0,0,1,.88,4,5.36,5.36,0,0,1-3,4.12,10,10,0,0,1-6.31.65l-4.65-.79-4.38-.58a.87.87,0,0,1,0-.54q.09-.56.19-.54a5.5,5.5,0,0,0,1.28,0c.57-.05.91-.17,1-.35A12.09,12.09,0,0,0,759.07,209Zm11.09.7a5.19,5.19,0,0,0-.6-3.65,4.74,4.74,0,0,0-3.53-2,13.76,13.76,0,0,0-2.06-.17.73.73,0,0,0-.37.61l-1,6.09c-.15.92-.11,1.51.12,1.77a4.15,4.15,0,0,0,2,.67,6.79,6.79,0,0,0,1.43.08,7.1,7.1,0,0,0,1.58-.28,3,3,0,0,0,1.52-1.06A4.44,4.44,0,0,0,770.16,209.74Zm-2.33-7.18a2.93,2.93,0,0,0,2.92-2.82q.72-4.42-3-5a8.88,8.88,0,0,0-2.12-.18.33.33,0,0,0-.32.32l-.58,3.14-.63,3.83q-.05.33,1.91.65A6.55,6.55,0,0,0,767.83,202.56Z"/><path class="cls-1" d="M779.69,213.75a2.16,2.16,0,0,1,.39,1.64,2.23,2.23,0,0,1-.89,1.45,2.06,2.06,0,0,1-1.63.42,2.15,2.15,0,0,1-1.46-.93,2.18,2.18,0,0,1-.4-1.66,2.13,2.13,0,0,1,.91-1.43,2.17,2.17,0,0,1,1.68-.4A2.08,2.08,0,0,1,779.69,213.75Z"/><path class="cls-1" d="M789.78,196.79q.59.1,4.23.49a2.12,2.12,0,0,1,0,.53c-.06.37-.13.55-.22.54a5.75,5.75,0,0,0-1.22.05q-.93.1-1,.36a12,12,0,0,0-.73,2.84l-1.23,7.54a9.13,9.13,0,0,0,.58,5.63,4.78,4.78,0,0,0,3.72,2.68,5.3,5.3,0,0,0,4.32-1q1.8-1.41,2.42-5.24l1.31-8a6.77,6.77,0,0,0,.1-2.67,2.29,2.29,0,0,0-1.07-.76,5.89,5.89,0,0,0-1.35-.51c-.09,0-.11-.17-.07-.48a1.06,1.06,0,0,1,.18-.58q3.5.81,4.09.9.82.13,2.2.24t1.71.16a1.93,1.93,0,0,1,0,.53c-.06.35-.13.52-.22.5a6.36,6.36,0,0,0-1.45,0,2.15,2.15,0,0,0-1.35.47,7.43,7.43,0,0,0-.8,2.66l-1.26,7.7a14.13,14.13,0,0,1-1.34,4.31,7,7,0,0,1-2.25,2.63,7.24,7.24,0,0,1-2.86,1.13,10.53,10.53,0,0,1-3.41-.05,8.25,8.25,0,0,1-5.81-3.39q-1.87-2.74-1-8l1.17-7.14a9.22,9.22,0,0,0,.19-2.8q-.09-.28-.84-.66a4.45,4.45,0,0,0-1.14-.44c-.09,0-.1-.19-.05-.51s.12-.52.19-.57Z"/><path class="cls-1" d="M810.64,218.8a2.16,2.16,0,0,1,.39,1.64,2.23,2.23,0,0,1-.89,1.45,2.06,2.06,0,0,1-1.63.42,2.15,2.15,0,0,1-1.46-.93,2.18,2.18,0,0,1-.4-1.66,2.13,2.13,0,0,1,.91-1.43,2.17,2.17,0,0,1,1.68-.4A2.08,2.08,0,0,1,810.64,218.8Z"/><path class="cls-1" d="M620.64,2.54a4.46,4.46,0,0,1-.32,1.71,5,5,0,0,1-.83,1.42,8.94,8.94,0,0,1-1,1,6.8,6.8,0,0,1-.92.68,1.53,1.53,0,0,1-.48.22,1,1,0,0,1-.52-.23,1.13,1.13,0,0,1-.42-.49,5.35,5.35,0,0,0,1.44-1.25,4.3,4.3,0,0,0,.7-1.12,2.09,2.09,0,0,0,.14-.65,2.1,2.1,0,0,0-.7-1.17,2.1,2.1,0,0,1-.7-1.2,1.23,1.23,0,0,1,.65-1A2.68,2.68,0,0,1,619.14,0a2.13,2.13,0,0,1,1,.22A4.21,4.21,0,0,1,620.64,2.54Zm-4.85.07a4.46,4.46,0,0,1-.33,1.71,5,5,0,0,1-.83,1.42,9.09,9.09,0,0,1-1,1,6.78,6.78,0,0,1-.92.68,1.53,1.53,0,0,1-.48.22,1,1,0,0,1-.52-.23,1.13,1.13,0,0,1-.42-.49,5.63,5.63,0,0,0,1.46-1.25,4.19,4.19,0,0,0,.71-1.12,2.08,2.08,0,0,0,.14-.65,2.1,2.1,0,0,0-.7-1.17,2.1,2.1,0,0,1-.7-1.2,1.23,1.23,0,0,1,.65-1A2.63,2.63,0,0,1,614.3.07a2.19,2.19,0,0,1,1,.22A4.25,4.25,0,0,1,615.79,2.6Z"/><path class="cls-1" d="M448.48,50.85a4.5,4.5,0,0,1-.32,1.72,5,5,0,0,1-.82,1.42,9.1,9.1,0,0,1-1,1,7.08,7.08,0,0,1-.92.68,1.54,1.54,0,0,1-.48.22,1,1,0,0,1-.52-.22,1.15,1.15,0,0,1-.42-.49A5.37,5.37,0,0,0,445.41,54a4.33,4.33,0,0,0,.7-1.12,2.09,2.09,0,0,0,.14-.65,2.11,2.11,0,0,0-.7-1.17,2.09,2.09,0,0,1-.7-1.2,1.23,1.23,0,0,1,.65-1,2.69,2.69,0,0,1,1.49-.45,2.12,2.12,0,0,1,1,.22A4.22,4.22,0,0,1,448.48,50.85Zm-4.85.08a4.42,4.42,0,0,1-.32,1.72,5,5,0,0,1-.82,1.42,9.1,9.1,0,0,1-1,1,7.09,7.09,0,0,1-.92.68,1.54,1.54,0,0,1-.48.22,1,1,0,0,1-.52-.22,1.15,1.15,0,0,1-.42-.49A5.6,5.6,0,0,0,440.58,54a4.19,4.19,0,0,0,.71-1.12,2.09,2.09,0,0,0,.14-.65,2.11,2.11,0,0,0-.7-1.17,2.09,2.09,0,0,1-.7-1.2,1.23,1.23,0,0,1,.65-1,2.63,2.63,0,0,1,1.46-.45,2.2,2.2,0,0,1,1,.22A4.26,4.26,0,0,1,443.63,50.93Z"/><path class="cls-1" d="M953.48,43a4.5,4.5,0,0,1-.32,1.72,5,5,0,0,1-.82,1.42,9,9,0,0,1-1,1,7,7,0,0,1-.92.68,1.54,1.54,0,0,1-.48.22,1,1,0,0,1-.52-.22,1.15,1.15,0,0,1-.42-.49,5.37,5.37,0,0,0,1.44-1.25,4.33,4.33,0,0,0,.7-1.12,2.07,2.07,0,0,0,.14-.65,2.09,2.09,0,0,0-.7-1.17,2.09,2.09,0,0,1-.7-1.2,1.23,1.23,0,0,1,.65-1,2.68,2.68,0,0,1,1.49-.45,2.12,2.12,0,0,1,1,.22A4.22,4.22,0,0,1,953.48,43Zm-4.85.08a4.42,4.42,0,0,1-.32,1.72,5,5,0,0,1-.82,1.42,9.1,9.1,0,0,1-1,1,7.08,7.08,0,0,1-.92.68,1.54,1.54,0,0,1-.48.22,1,1,0,0,1-.52-.22,1.15,1.15,0,0,1-.42-.49,5.6,5.6,0,0,0,1.46-1.25,4.19,4.19,0,0,0,.71-1.12,2.09,2.09,0,0,0,.14-.65,2.11,2.11,0,0,0-.7-1.17,2.09,2.09,0,0,1-.7-1.2,1.23,1.23,0,0,1,.65-1,2.63,2.63,0,0,1,1.46-.45,2.2,2.2,0,0,1,1,.22A4.26,4.26,0,0,1,948.63,43.1Z"/><path class="cls-1" d="M821.82,203.83a4.51,4.51,0,0,1-.62,1.63,5,5,0,0,1-1.06,1.26,9.06,9.06,0,0,1-1.2.83,7,7,0,0,1-1,.51,1.53,1.53,0,0,1-.51.14,1,1,0,0,1-.47-.31,1.14,1.14,0,0,1-.33-.56,5.41,5.41,0,0,0,1.64-1,4.29,4.29,0,0,0,.88-1,2.11,2.11,0,0,0,.25-.61,2.08,2.08,0,0,0-.48-1.27,2.1,2.1,0,0,1-.48-1.31,1.23,1.23,0,0,1,.82-.91,2.68,2.68,0,0,1,1.54-.19,2.13,2.13,0,0,1,.91.38A4.24,4.24,0,0,1,821.82,203.83Zm-4.79-.78a4.44,4.44,0,0,1-.62,1.63,5,5,0,0,1-1.06,1.26,9.06,9.06,0,0,1-1.2.83,7,7,0,0,1-1,.51,1.53,1.53,0,0,1-.51.14,1,1,0,0,1-.47-.31,1.15,1.15,0,0,1-.33-.56,5.6,5.6,0,0,0,1.66-1,4.16,4.16,0,0,0,.9-1,2.05,2.05,0,0,0,.25-.61,2.09,2.09,0,0,0-.48-1.27,2.09,2.09,0,0,1-.48-1.31,1.23,1.23,0,0,1,.82-.91,2.63,2.63,0,0,1,1.51-.19,2.2,2.2,0,0,1,.95.39A4.24,4.24,0,0,1,817,203.05Z"/></svg>