<svg id="Layer_1" data-name="Layer 1" xmlns="http://www.w3.org/2000/svg" viewBox="0 0 965.23 363.11"><defs><style>.cls-1{fill:#fff;stroke:#1928eb;stroke-miterlimit:10;stroke-width:1.3px;}</style></defs><title>title</title><path class="cls-1" d="M148.74,164.2q1.32-9.28.6-13.17-.44-1.32-4-3a21,21,0,0,0-5.4-2q-.62-.09-.29-2.41c.23-1.65.47-2.56.71-2.74q.77.11,8.52,1.68t11.92,2.16q1.24.18,19.93,1.88a8.05,8.05,0,0,1,.11,2.54q-.37,2.63-1,2.54a25.47,25.47,0,0,0-5.74.45q-4.35.65-4.82,1.69a58,58,0,0,0-3.17,13.44l-8.25,58.17a57.93,57.93,0,0,0-.58,14.12q.15,1.13,3.94,2.85a24,24,0,0,0,5.17,1.92q.62.09.2,3a6.94,6.94,0,0,1-.62,2.12q-18.43-3.56-19.52-3.71-3.1-.44-6.52-.77t-7.56-.68l-6.63-.55a3,3,0,0,1-.31-2.25q.42-2.94,1-2.85a24.93,24.93,0,0,0,6-.26q4.1-.52,4.74-1.7a54.7,54.7,0,0,0,3.08-12.82Z"/><path class="cls-1" d="M245.43,156.76q.77.11,15.29,1.22.78,4.53,4.07,16.91t8.11,30.19q4.81,17.81,7.61,29.25c0,.21.11.33.42.38a.41.41,0,0,0,.53-.4q18.24-30.71,29.27-50.61l8.11-17.16q4.57,1.12,12.62,2.26,6,.86,18.52,1.84a4.54,4.54,0,0,1,.11,2.54q-.37,2.63-1,2.54l-.31,0a12.72,12.72,0,0,0-7.93,1.4q-2.56,1.38-3.2,8.07-1.33,13.86-6.89,64.2a41.27,41.27,0,0,0,.46,14.58q.42,1.48,4,3.17A21,21,0,0,0,340.3,269c.41.06.49,1,.22,2.87a7.54,7.54,0,0,1-.64,2.28q-18.43-3.56-18.9-3.63-3.1-.44-6.52-.77t-7.56-.68l-6.63-.55a3.32,3.32,0,0,1-.29-2.41q.4-2.78,1-2.7a18.51,18.51,0,0,0,5.09-.3,9.8,9.8,0,0,0,4.65-1.63,8.76,8.76,0,0,0,2.31-5.2l1.23-8.66,5.12-47.25q.74-9.68-.5-9.85-.46-.07-.91.82l-39.77,67.9q-3.47,5.51-6.71,5a5.18,5.18,0,0,1-1.5-.53l-22.85-88.14q-6.55,38.37-12.26,68.65a17.18,17.18,0,0,0-.22,4.86q.53,1.81,5.73,4.13a33.8,33.8,0,0,0,7.05,2.58c.41.06.49,1,.22,2.87a7.55,7.55,0,0,1-.64,2.28q-18.43-3.56-19.36-3.69-4.18-.59-11.13-1.1t-8.5-.73a3.62,3.62,0,0,1-.27-2.56c.25-1.75.58-2.6,1-2.54a31.27,31.27,0,0,0,8-.45q5.48-.8,6.6-3.17,1.79-2.59,3.17-10.12,2-11.71,4.79-27.65t4.8-27.17q2-11.24,2.38-14a15,15,0,0,0,.15-4.4q-.29-1.3-4.85-3.05a35.29,35.29,0,0,0-6.58-2c-.41-.06-.49-1-.25-2.72a3.33,3.33,0,0,1,.95-2.23l7.89,1.67Q241.41,156.19,245.43,156.76Z"/><path class="cls-1" d="M387.17,210.63a29,29,0,0,1,12.59,4.7,24.75,24.75,0,0,1,7.94,8.54,36.34,36.34,0,0,1,3.66,9.83,26.9,26.9,0,0,1,.42,9.29q-.48,3.41-1.76,4.09t-4.84.18l-37-5.24c-.72-.1-1.13.16-1.21.77a30.35,30.35,0,0,0,.47,11.11A21.49,21.49,0,0,0,373,264a18.39,18.39,0,0,0,11.13,5.52,42.59,42.59,0,0,0,4.52.4,23.23,23.23,0,0,0,4.13-.2q1.93-.28,3.39-.54a13.39,13.39,0,0,0,3.06-1l2.28-1q.67-.3,3.39-1.65a2.55,2.55,0,0,1,.64,1,3,3,0,0,1,.25,1.61,4.8,4.8,0,0,1-1.35,2.81q-2.91,3.85-10.31,7.06a29,29,0,0,1-15.91,2,31.64,31.64,0,0,1-21.79-13.27,33.7,33.7,0,0,1-6.31-25.59q2.21-15.62,12.65-24.09T387.17,210.63Zm-2.09,7a11,11,0,0,0-7,1.22,14.73,14.73,0,0,0-5.23,4.62,29.93,29.93,0,0,0-3.07,5.48,19.08,19.08,0,0,0-1.34,4.46q-.15,1.08.77,1.21l25.06,3.55q1.39.2,1.72-2.12a20.25,20.25,0,0,0-2.08-11.5Q391.11,218.45,385.07,217.59Z"/><path class="cls-1" d="M455.39,220.3q9.59,1.36,13.67,7.07t2.35,17.93l-4.32,30.48a7.12,7.12,0,0,0,.72,4.92,4.69,4.69,0,0,0,3.48,2.15,9.74,9.74,0,0,0,5.54-1.26q.88.44.69,1.83a9.29,9.29,0,0,1-1.59,4.51,38.75,38.75,0,0,1-6.74,3,16.28,16.28,0,0,1-7.71,1,11.4,11.4,0,0,1-6.59-3.62,12.81,12.81,0,0,1-3.67-6.36q-.18.13-1.3.84t-3.08,1.69a46,46,0,0,1-4.37,1.9,25,25,0,0,1-5.56,1.34,22.71,22.71,0,0,1-6.23,0q-7.74-1.1-12-6t-3.22-12.37a14.4,14.4,0,0,1,2.77-6.71,18.68,18.68,0,0,1,5-4.73,32,32,0,0,1,7.23-3.16,64.27,64.27,0,0,1,7.62-2q3.16-.58,8.08-1.3t6.86-1.08a2.46,2.46,0,0,0,1.74-2.28l1.21-8.51q.77-5.41-1.27-8.86a8.16,8.16,0,0,0-6.21-4,9.47,9.47,0,0,0-7.68,1.83q-3,2.49-3.78,7.75a5.07,5.07,0,0,1-3,4.23,9.71,9.71,0,0,1-5.47.72q-5.73-.81-7.52-4.85,1.05-7.43,12.11-12.49A39.19,39.19,0,0,1,455.39,220.3ZM440,278.72a12.12,12.12,0,0,0,7.5-1.15q3.32-1.74,3.72-4.52l2.24-15.78q-1.15.31-4.78.9t-5.6,1.1a42.79,42.79,0,0,0-4.64,1.55,9.42,9.42,0,0,0-4.12,2.89,8.6,8.6,0,0,0-1.77,4.17q-.7,5,1.44,7.62A9,9,0,0,0,440,278.72Z"/><path class="cls-1" d="M543.41,232.78q20,2.83,15.46,34.54L556.79,282q-1.34,9.44-.89,14.08.16,1.13,3.94,2.85a24,24,0,0,0,5.17,1.92q.46.07.22,2.32a8.88,8.88,0,0,1-.66,3q-.91-.29-8-1.77t-10.69-2q-3.71-.53-10.35-1t-8.05-.51q-.53-.71-.2-3c.22-1.55.53-2.29.95-2.23a18.6,18.6,0,0,0,5.35-.43q3.64-.67,4.11-1.71a44.8,44.8,0,0,0,2.84-11.12l2.08-14.7q1.82-12.84-.94-18.44t-10.34-6.67a14.46,14.46,0,0,0-9,1.48q-4.1,2.18-4.54,5.27l-3.77,26.61Q512.6,285.38,513,290q.16,1.13,3.78,2.82a22.48,22.48,0,0,0,4.86,1.87q.62.09.38,2.34a8.93,8.93,0,0,1-.66,3q-1.22-.33-8-1.77T503,296.33q-3.71-.53-10.82-1.06t-8.36-.55q-.53-.71-.2-3t.95-2.23a21.79,21.79,0,0,0,5.81-.36q4-.62,4.42-1.66a51,51,0,0,0,2.68-11.14l3.58-25.22q1-7.27-1.07-10.25a7.53,7.53,0,0,0-3.15-2.81,17.9,17.9,0,0,0-3.58-1.45c-1-.24-1.43-.46-1.4-.67q.64-4.49,1.43-4.53,7.2.39,25.57-1.11a1,1,0,0,1,.42-.18,1.49,1.49,0,0,1,.47,0l.39.06c.41.06.72.47.93,1.24a4.74,4.74,0,0,1,.22,1.77,53.28,53.28,0,0,0-1.41,5.48,1.22,1.22,0,0,0,0,.8,2.31,2.31,0,0,0,.84-.35,34.64,34.64,0,0,1,10.44-5.15A27.35,27.35,0,0,1,543.41,232.78Z"/><path class="cls-1" d="M620.86,290.95l8.29-58.48q1.32-9.28.72-12.84-.22-1.77-3.94-3.4a24.66,24.66,0,0,0-6-2q-.62-.09-.29-2.41.31-2.17,1-2.7,10.15,1.91,20.51,3.38,7.89,1.12,13.31,1.81t9.29,1.24a46.3,46.3,0,0,1,21.17,8.76,23,23,0,0,1,7.41,9.49,23.7,23.7,0,0,1,1.55,13,18.3,18.3,0,0,1-4.72,9.9,25.23,25.23,0,0,1-7.07,5.86,25.78,25.78,0,0,1-5.26,2q-1.31.29-.75.84,5.59,1.74,11.61,9.93a24.59,24.59,0,0,1,4.53,18.71,25.21,25.21,0,0,1-13.76,19.67q-11.87,6.36-29.64,3.69l-21.95-3.27-20.66-2.3a4.08,4.08,0,0,1-.11-2.54q.37-2.63.84-2.56a25.77,25.77,0,0,0,6-.17q4-.46,4.83-1.76Q619.32,301.77,620.86,290.95Zm52.24,2.2q1.4-9.9-3.18-17.1t-16.8-8.93a65,65,0,0,0-9.7-.59c-.9.4-1.46,1.37-1.68,2.92l-4.08,28.77q-.92,6.5.72,8.31,1.79,1.83,9.68,3a32,32,0,0,0,6.75.25,33.39,33.39,0,0,0,7.39-1.48,14.06,14.06,0,0,0,7-5.16A20.86,20.86,0,0,0,673.1,293.14Zm-11.66-33.53q11.64-.87,13.44-13.56,3-20.89-14.83-23.41-7.27-1-10-.63a1.57,1.57,0,0,0-1.48,1.53l-2.42,14.81-2.57,18.1q-.22,1.55,9.06,2.86A30.86,30.86,0,0,0,661.44,259.61Z"/><path class="cls-1" d="M726.54,305.77q-1.36,9.59-.89,14.08.15,1.13,3.45,2.94a17.1,17.1,0,0,0,4.53,2c.31,0,.39.79.24,2.24a8.53,8.53,0,0,1-.65,2.91l-5.75-1.21q-3.6-.75-6.52-1.32t-5.55-.94q-2.94-.42-5.9-.68t-6.55-.53l-5.93-.45c-.36-.47-.43-1.45-.21-3s.52-2.21.94-2.16a16.72,16.72,0,0,0,5.37-.58q3.67-.82,4.13-1.86A51.87,51.87,0,0,0,710.1,306l9.13-64.36a54.66,54.66,0,0,0,.56-10.65q-.43-2.58-7.38-3.57l-1.55-.22q-.93-.13-.67-2,.35-2.47,1.28-2.34,4.86.22,9.3.06t7.41-.53q3-.37,5.16-.77t3.49-.69l1.15-.31.31,0c.41.06.81.43,1.18,1.11a4.82,4.82,0,0,1,.63,1.67,49.39,49.39,0,0,0-3.92,14.28Z"/><path class="cls-1" d="M784.28,266.93q9.59,1.36,13.67,7.07t2.35,17.93L796,322.4a7.13,7.13,0,0,0,.72,4.92,4.69,4.69,0,0,0,3.48,2.15,9.75,9.75,0,0,0,5.54-1.27c.59.3.82.9.69,1.83a9.28,9.28,0,0,1-1.59,4.51,38.77,38.77,0,0,1-6.74,3,16.28,16.28,0,0,1-7.71,1,11.4,11.4,0,0,1-6.59-3.62,12.81,12.81,0,0,1-3.67-6.36q-.18.13-1.3.84t-3.08,1.69a46.15,46.15,0,0,1-4.37,1.9,25,25,0,0,1-5.56,1.34,22.7,22.7,0,0,1-6.23,0q-7.74-1.1-12-6t-3.22-12.37a14.4,14.4,0,0,1,2.77-6.71,18.68,18.68,0,0,1,5-4.73,32.06,32.06,0,0,1,7.23-3.16,64.37,64.37,0,0,1,7.62-2q3.16-.58,8.08-1.3t6.86-1.08a2.46,2.46,0,0,0,1.74-2.28l1.21-8.51q.77-5.41-1.27-8.86a8.16,8.16,0,0,0-6.21-4,9.47,9.47,0,0,0-7.68,1.83q-3,2.49-3.78,7.75a5.07,5.07,0,0,1-3,4.23,9.71,9.71,0,0,1-5.47.72q-5.73-.81-7.52-4.85,1.05-7.43,12.11-12.49A39.19,39.19,0,0,1,784.28,266.93ZM768.9,325.35a12.12,12.12,0,0,0,7.5-1.15q3.32-1.74,3.72-4.52l2.24-15.78q-1.15.31-4.78.9t-5.6,1.1a42.86,42.86,0,0,0-4.64,1.55,9.43,9.43,0,0,0-4.12,2.89,8.61,8.61,0,0,0-1.77,4.17q-.7,5,1.44,7.62A9,9,0,0,0,768.9,325.35Z"/><path class="cls-1" d="M855,277a37.72,37.72,0,0,1,14.23,4.78q6,3.62,8.36,7.26a19.31,19.31,0,0,1-3,8.49,5.76,5.76,0,0,1-5.83,2.72,7,7,0,0,1-4.5-2.22,17.77,17.77,0,0,1-2.91-5.62q-2.55-7.62-9.36-8.59-6.65-.94-11.55,5.23t-6.35,16.38q-2,13.92,2.8,21.46a18.44,18.44,0,0,0,13.59,8.79,42.46,42.46,0,0,0,4.52.4,23.24,23.24,0,0,0,4.13-.2q1.93-.28,3.39-.54a13.4,13.4,0,0,0,3.06-1l2.28-1q.67-.3,3.39-1.65a2.56,2.56,0,0,1,.64,1,3,3,0,0,1,.25,1.61,4.8,4.8,0,0,1-1.34,2.81q-2.91,3.85-10.31,7.06a28.7,28.7,0,0,1-15.75,2,31.61,31.61,0,0,1-22-13.38,34.48,34.48,0,0,1-6.18-26,35.52,35.52,0,0,1,12.74-23Q840,274.83,855,277Z"/><path class="cls-1" d="M952.21,301.31q-3.36,1.42-10.81,5.57A110.4,110.4,0,0,0,927.57,316q3.8,5.43,9.52,14.13t9.49,14.29a75.23,75.23,0,0,0,5.29,7.22,19.75,19.75,0,0,0,5.52,3.94,19,19,0,0,0,5,2q.62.09.25,2.72a9.15,9.15,0,0,1-.46,2.14q-16.91-3.19-18-3.34-2.94-.42-6-.69t-6.71-.56l-5.86-.44c-.35-.47-.43-1.43-.22-2.87s.51-2.14.93-2.08a11.2,11.2,0,0,0,3.66-.19q2.11-.41,2.22-1.19c0-.21,0-.32-.11-.33l-19-28.42-1.92.2-1.36,9.59q-1.27,10.08-.74,14.1.16,1.13,3.86,2.84a22.71,22.71,0,0,0,5.25,1.93q.46.07.22,2.32a8.91,8.91,0,0,1-.66,3q-1.06-.31-8.11-1.78t-10.61-2q-3.71-.53-10.82-1.06t-8.36-.55q-.53-.71-.2-3t.95-2.23a21.82,21.82,0,0,0,5.81-.36q4-.62,4.42-1.66a51,51,0,0,0,2.68-11.14l9.1-64.2a61.73,61.73,0,0,0,.72-10.63q-.43-2.58-7.69-3.62l-1.39-.2q-.93-.13-.58-2.61t1.28-2.34q4.86.21,9.3.06t7.41-.53q3-.37,5.17-.85t4.63-.92l.31,0c.41.06.78.4,1.12,1a4.32,4.32,0,0,1,.54,1.73,50.32,50.32,0,0,0-3.92,14.28l-7.33,51.67q3.84-.4,4.88-1,3.67-2.48,7.91-5.11t6.14-3.79q1.9-1.15,3.83-2.53a13.8,13.8,0,0,0,2.61-2.23,3.7,3.7,0,0,0,.8-1.78q.24-1.7-3.19-2.58a15.37,15.37,0,0,1-3.4-1,7,7,0,0,1-.08-2.77q.23-1.62.87-1.69l15,2.13q4.18.59,16.49,1.71a2.44,2.44,0,0,1,.53,1.81,7,7,0,0,1-.41,2.31q-.39,1.05-.85,1A20.51,20.51,0,0,0,952.21,301.31Z"/><path class="cls-1" d="M660.26,87.52q9.66.77,14.08,6.22t3.44,17.75l-2.45,30.68a7.13,7.13,0,0,0,1,4.86A4.69,4.69,0,0,0,680,149a9.75,9.75,0,0,0,5.46-1.6c.61.26.87.85.8,1.79a9.3,9.3,0,0,1-1.31,4.6,38.74,38.74,0,0,1-6.54,3.4,16.28,16.28,0,0,1-7.64,1.43,11.41,11.41,0,0,1-6.8-3.21,12.82,12.82,0,0,1-4.06-6.12q-.17.14-1.25.92t-3,1.88a46.25,46.25,0,0,1-4.25,2.17,25,25,0,0,1-5.46,1.68,22.69,22.69,0,0,1-6.22.37q-7.79-.62-12.35-5.3t-4-12.15a14.38,14.38,0,0,1,2.35-6.87,18.65,18.65,0,0,1,4.71-5,32,32,0,0,1,7-3.59,64.29,64.29,0,0,1,7.48-2.46q3.12-.77,8-1.79t6.78-1.5a2.46,2.46,0,0,0,1.6-2.38l.68-8.57q.44-5.45-1.81-8.77a8.16,8.16,0,0,0-6.45-3.65,9.48,9.48,0,0,0-7.55,2.3q-2.88,2.67-3.3,8a5.07,5.07,0,0,1-2.7,4.41,9.72,9.72,0,0,1-5.41,1.06q-5.77-.46-7.8-4.38.6-7.48,11.32-13.2A39.19,39.19,0,0,1,660.26,87.52Zm-11.79,59.25a12.11,12.11,0,0,0,7.42-1.6q3.21-1.94,3.44-4.74l1.27-15.89q-1.13.38-4.72,1.19t-5.52,1.44a42.58,42.58,0,0,0-4.53,1.83,9.43,9.43,0,0,0-3.94,3.13,8.62,8.62,0,0,0-1.52,4.27q-.4,5,1.91,7.52A9,9,0,0,0,648.47,146.77Z"/><path class="cls-1" d="M731.43,93.2a37.72,37.72,0,0,1,14.5,3.9q6.24,3.24,8.79,6.74a19.31,19.31,0,0,1-2.49,8.66,5.76,5.76,0,0,1-5.65,3.08,7,7,0,0,1-4.62-1.94,17.66,17.66,0,0,1-3.25-5.43q-3-7.45-9.87-8-6.7-.54-11.21,5.92t-5.33,16.74q-1.12,14,4.1,21.25a18.44,18.44,0,0,0,14.1,7.94,42.5,42.5,0,0,0,4.54.13,23.23,23.23,0,0,0,4.11-.46q1.91-.39,3.35-.75a13.39,13.39,0,0,0,3-1.17l2.21-1.16q.65-.34,3.28-1.85a2.57,2.57,0,0,1,.7,1,3,3,0,0,1,.34,1.59,4.8,4.8,0,0,1-1.17,2.88q-2.67,4-9.86,7.68a28.7,28.7,0,0,1-15.6,3,31.61,31.61,0,0,1-22.79-12,34.47,34.47,0,0,1-7.76-25.54,35.52,35.52,0,0,1,11.3-23.78Q716.33,92,731.43,93.2Z"/><path class="cls-1" d="M162.06,35.19q.75-9.35-.2-13.18-.53-1.29-4.17-2.76a21,21,0,0,0-5.51-1.62c-.42,0-.56-.83-.44-2.39s.31-2.59.54-2.78q.78.06,8.61,1.16t12,1.43q1.24.1,20,.66a8.09,8.09,0,0,1,.27,2.53c-.14,1.77-.42,2.63-.84,2.6a25.44,25.44,0,0,0-5.71.8q-4.3.91-4.7,2a58,58,0,0,0-2.34,13.61l-4.68,58.56a57.91,57.91,0,0,0,.28,14.13q.22,1.12,4.1,2.6a24,24,0,0,0,5.28,1.6q.62,0,.39,3a7,7,0,0,1-.48,2.16q-18.62-2.43-19.71-2.51-3.12-.25-6.55-.37t-7.59-.21L144,116a3,3,0,0,1-.45-2.23q.23-3,.86-2.91a25,25,0,0,0,5.93-.62q4.06-.77,4.63-2a54.74,54.74,0,0,0,2.29-13Z"/><path class="cls-1" d="M234.24,46q.93-11.68,11.39-18.92a34.14,34.14,0,0,1,22.76-6.25A54.74,54.74,0,0,1,276,21.87q3.23.73,9,2.67t7.87,2.59a139.43,139.43,0,0,1,0,24.14,1.7,1.7,0,0,1-2,1.25q-4.21-.34-4.41-1.76-.36-7.24-5.58-14.55t-13.47-8q-7.17-.57-11.3,3.17T251.33,42a17.63,17.63,0,0,0,.19,4.48,11,11,0,0,0,1.85,4.3q1.47,2.16,2.38,3.56A18.45,18.45,0,0,0,259.38,58q2.72,2.26,3.67,3.11t4.43,3.41a47.65,47.65,0,0,0,4.23,2.92,57.59,57.59,0,0,0,4.95,3.77q4.08,2.91,5.7,4.22T287,79.81a22.54,22.54,0,0,1,4.33,5.68A32,32,0,0,1,293.58,92a26.29,26.29,0,0,1,.59,8.28q-1,12.46-11.69,19.76a36.14,36.14,0,0,1-23.93,6.24q-9.35-.75-28.31-6.65a136.83,136.83,0,0,1-1.44-14.3,106.27,106.27,0,0,1-.28-11.23q.25-1.23,2.59-1,4,.32,4.42,1.61a30.43,30.43,0,0,0,1.69,6.33,45.39,45.39,0,0,0,3.71,7.51,20.55,20.55,0,0,0,6.82,6.81,22,22,0,0,0,10.17,3.24,17.5,17.5,0,0,0,12.5-3.39q5.17-4,5.87-12.7a13.57,13.57,0,0,0-.6-5.22,18,18,0,0,0-2-4.39,22.77,22.77,0,0,0-3.59-4q-2.41-2.23-4-3.46t-4.82-3.44q-3.2-2.21-4.53-3.11a10.75,10.75,0,0,0-1.61-1.38q-4.3-3.16-6.51-4.91T243,67.44a31,31,0,0,1-5.07-6.13,29.6,29.6,0,0,1-2.83-6.81A23.51,23.51,0,0,1,234.24,46Z"/><path class="cls-1" d="M338.47,61.82q9.65.77,14.08,6.22T356,85.79l-2.45,30.68a7.13,7.13,0,0,0,1,4.86,4.69,4.69,0,0,0,3.61,1.93,9.75,9.75,0,0,0,5.46-1.6c.61.26.87.85.8,1.79a9.28,9.28,0,0,1-1.31,4.6,38.67,38.67,0,0,1-6.54,3.4,16.27,16.27,0,0,1-7.64,1.43,11.4,11.4,0,0,1-6.8-3.21,12.81,12.81,0,0,1-4.06-6.12c-.11.1-.53.4-1.25.92s-1.71,1.14-3,1.88a46,46,0,0,1-4.25,2.17,25,25,0,0,1-5.46,1.68,22.74,22.74,0,0,1-6.22.36q-7.79-.62-12.35-5.3t-4-12.15a14.39,14.39,0,0,1,2.35-6.87,18.63,18.63,0,0,1,4.71-5,32.08,32.08,0,0,1,7-3.59,64.22,64.22,0,0,1,7.49-2.46q3.12-.77,8-1.79t6.78-1.5a2.46,2.46,0,0,0,1.6-2.38l.68-8.57q.44-5.45-1.81-8.77A8.16,8.16,0,0,0,332,68.51a9.48,9.48,0,0,0-7.55,2.3q-2.88,2.67-3.3,8a5.06,5.06,0,0,1-2.7,4.41A9.7,9.7,0,0,1,313,84.24q-5.77-.46-7.8-4.38.6-7.48,11.32-13.2A39.19,39.19,0,0,1,338.47,61.82Zm-11.79,59.25a12.11,12.11,0,0,0,7.42-1.6q3.21-1.94,3.44-4.74l1.27-15.89q-1.13.38-4.72,1.19t-5.52,1.44A43,43,0,0,0,324,103.3a9.43,9.43,0,0,0-3.93,3.13,8.62,8.62,0,0,0-1.52,4.27q-.4,5,1.91,7.52A9,9,0,0,0,326.68,121.07Z"/><path class="cls-1" d="M392.7,67.72q3.42.27,9.85.32t8,.17a10.51,10.51,0,0,1,.09,2.83c-.12,1.46-.38,2.16-.8,2.13a17,17,0,0,0-5,.78q-3.44.9-3.71,2.29l-.07.93q.11,2.52,11.65,36.67,1.47-2.7,7.3-14.86t6.76-14a14.7,14.7,0,0,0,1.32-4.75q.16-2-2.19-4t-7.33-2.39c-.42,0-.56-.83-.44-2.39a3.92,3.92,0,0,1,.84-2.6q1.87.15,7.59,1.08T436,71.18q3.27.26,8.06.17t7,.09a4.47,4.47,0,0,1,.42,2.54q-.2,2.49-.82,2.44a19.78,19.78,0,0,0-6.43,1.05q-4.25,1.23-5.75,4.24l-34,66.57q-11.48,22-25,20.89a8.45,8.45,0,0,1-6.05-2.68,7.3,7.3,0,0,1,1.66-11q16.2,1.29,22.36-11.07,4.49-9,5.05-10.26L383.93,79.4a20.22,20.22,0,0,0-1.58-3.73A9.39,9.39,0,0,0,378,71.8a14.79,14.79,0,0,0-5-1.57c-.42,0-.57-.77-.45-2.23q.2-2.49.69-2.77.93.07,8.29,1.13T392.7,67.72Z"/><path class="cls-1" d="M498.6,121.48l4.7-58.88q.75-9.34-.07-12.86-.33-1.75-4.14-3.15A24.67,24.67,0,0,0,493,45q-.63,0-.44-2.39c.12-1.45.4-2.37.85-2.75Q503.61,41.15,514,42q7.94.64,13.4,1t9.35.67a46.3,46.3,0,0,1,21.66,7.45,23,23,0,0,1,8,9A23.69,23.69,0,0,1,568.78,73a18.3,18.3,0,0,1-4.1,10.17A25.25,25.25,0,0,1,558,89.46a25.77,25.77,0,0,1-5.12,2.33q-1.28.37-.7.88,5.69,1.39,12.2,9.2a24.59,24.59,0,0,1,5.66,18.4,25.21,25.21,0,0,1-12.53,20.47q-11.46,7.08-29.36,5.49L506,144.33l-20.77-1a4.07,4.07,0,0,1-.27-2.53c.14-1.76.37-2.64.68-2.61a25.79,25.79,0,0,0,6-.54q4-.7,4.71-2.05Q497.73,132.38,498.6,121.48Zm52.28-1q.8-10-4.22-16.87t-17.32-7.89a64.89,64.89,0,0,0-9.72,0q-1.31.68-1.49,3l-2.31,29q-.52,6.54,1.22,8.25,1.9,1.72,9.85,2.35a32,32,0,0,0,6.75-.17,33.33,33.33,0,0,0,7.29-1.93,14.07,14.07,0,0,0,6.72-5.58A20.88,20.88,0,0,0,550.88,120.48ZM537.19,87.72q11.57-1.58,12.59-14.36,1.68-21-16.23-22.46-7.32-.59-10,0a1.57,1.57,0,0,0-1.38,1.61l-1.51,14.93-1.46,18.22Q519,87.21,528.4,88A30.85,30.85,0,0,0,537.19,87.72Z"/><path class="cls-1" d="M605,129.82q-.77,9.66,0,14.1.22,1.12,3.62,2.72a17.1,17.1,0,0,0,4.65,1.7c.31,0,.43.77.37,2.22a8.53,8.53,0,0,1-.47,2.94l-5.81-.86q-3.64-.53-6.59-.92t-5.59-.6q-3-.24-5.93-.32t-6.57-.13l-5.95-.08c-.38-.45-.51-1.42-.39-2.93s.39-2.24.8-2.21a16.69,16.69,0,0,0,5.32-.91q3.61-1,4-2.11A51.91,51.91,0,0,0,588.6,131l5.17-64.79a54.62,54.62,0,0,0-.09-10.67q-.58-2.55-7.59-3.11l-1.56-.12q-.93-.07-.79-1.94.2-2.49,1.13-2.42,4.86-.08,9.29-.51t7.37-1q2.94-.55,5.1-1.08t3.44-.9l1.13-.38.31,0c.41,0,.83.38,1.25,1a4.81,4.81,0,0,1,.73,1.63,49.43,49.43,0,0,0-3,14.49Z"/><path class="cls-1" d="M830,111.57q-3.27,1.62-10.45,6.22a110.38,110.38,0,0,0-13.25,9.91q4.13,5.19,10.36,13.52T827,154.91a75.27,75.27,0,0,0,5.72,6.88,19.74,19.74,0,0,0,5.75,3.59,19.06,19.06,0,0,0,5.12,1.66q.62,0,.41,2.7a9.33,9.33,0,0,1-.33,2.17q-17.07-2.15-18.16-2.23-3-.24-6-.32t-6.73-.15l-5.87-.08c-.38-.45-.52-1.4-.4-2.85s.38-2.16.8-2.13a11.2,11.2,0,0,0,3.64-.42q2.08-.54,2.14-1.32c0-.21,0-.32-.13-.32l-20.71-27.2-1.91.32-.77,9.66q-.66,10.14.13,14.12.22,1.12,4,2.59a22.73,22.73,0,0,0,5.36,1.6c.31,0,.43.79.37,2.3a8.91,8.91,0,0,1-.48,3q-1.08-.24-8.21-1.28T780,165.89q-3.74-.3-10.86-.4t-8.38,0q-.57-.67-.39-3t.81-2.29a21.79,21.79,0,0,0,5.78-.71q3.91-.86,4.31-1.93a51,51,0,0,0,2-11.28l5.16-64.64a61.53,61.53,0,0,0,.07-10.65q-.58-2.55-7.9-3.14l-1.4-.11q-.93-.07-.74-2.57t1.13-2.42q4.87-.08,9.29-.51t7.37-1q2.94-.55,5.11-1.16t4.56-1.2l.31,0c.41,0,.81.35,1.18,1a4.31,4.31,0,0,1,.65,1.7A50.36,50.36,0,0,0,795,76l-4.15,52a14.13,14.13,0,0,0,4.81-1.34q3.51-2.7,7.58-5.59t5.9-4.15q1.83-1.27,3.67-2.76a13.71,13.71,0,0,0,2.46-2.39A3.68,3.68,0,0,0,816,110q.14-1.71-3.34-2.38a15.34,15.34,0,0,1-3.46-.83,6.94,6.94,0,0,1-.25-2.76q.13-1.63.77-1.74l15.11,1.21q4.2.34,16.56.7A2.43,2.43,0,0,1,842,106a7,7,0,0,1-.26,2.33q-.32,1.07-.79,1A20.52,20.52,0,0,0,830,111.57Z"/><path class="cls-1" d="M863,175.5q.2-2.49-1.82-6.65a14.08,14.08,0,0,1-1.79-7q.26-3.27,3.79-6.28A11.62,11.62,0,0,1,872,153a10.12,10.12,0,0,1,4.91,1.33,24.37,24.37,0,0,1,1.31,11.08,28.07,28.07,0,0,1-1.84,7.38,44.93,44.93,0,0,1-7.85,13.87q-4.66,5.35-14.25,11.64h-.16q-.78-.06-2.05-1.81a4.71,4.71,0,0,1-1.18-2.84,22.79,22.79,0,0,1,2.85-2.28,28.62,28.62,0,0,0,5.84-6.35A18.74,18.74,0,0,0,863,175.5Z"/><path class="cls-1" d="M18.87,23.36q.71-9.35-.25-13.18-.53-1.29-4.18-2.75A21,21,0,0,0,8.92,5.83q-.63,0-.45-2.38C8.6,1.79,8.77.86,9,.67q.78.06,8.61,1.12t12,1.38q1.25.09,20,.58a8.06,8.06,0,0,1,.28,2.53q-.2,2.65-.82,2.6a25.45,25.45,0,0,0-5.7.82q-4.3.93-4.7,2a58,58,0,0,0-2.29,13.62L32,83.9A58,58,0,0,0,32.32,98q.23,1.12,4.11,2.58a23.91,23.91,0,0,0,5.29,1.58q.62,0,.4,3a7,7,0,0,1-.48,2.16Q23,105,21.92,104.92q-3.12-.24-6.56-.34t-7.58-.18l-6.65-.11A3,3,0,0,1,.67,102c.15-2,.43-2.94.85-2.91a24.94,24.94,0,0,0,5.93-.65q4.06-.79,4.62-2a54.81,54.81,0,0,0,2.24-13Z"/><path class="cls-1" d="M103.65,2.69a30.76,30.76,0,0,1,10.7,2.46q4.16,2,5.38,4.4a17.52,17.52,0,0,1-1.51,8.58,5.6,5.6,0,0,1-6,3.39,6.1,6.1,0,0,1-4.56-2.93q-1.91-2.73-4-5.48a7.18,7.18,0,0,0-5.26-3q-4.21-.32-7.32,3.52a26.27,26.27,0,0,0-4.72,9.51,63.74,63.74,0,0,0-2.13,12.53l-.54,7.17c0,.1.08.27.28.49a.89.89,0,0,0,.6.36L101.68,45a1.25,1.25,0,0,1,.77.21,1.65,1.65,0,0,1,.08.95,16.07,16.07,0,0,1-2.41,7L83.92,52a.83.83,0,0,0-1,.86L80.28,87.57q-.7,9.19.18,14.12.23,1.12,4,2.57a22.1,22.1,0,0,0,5.13,1.56c.31,0,.44.79.37,2.3a8.91,8.91,0,0,1-.46,3q-.92-.23-8.05-1.24t-10.87-1.3q-3.74-.28-10.63-.34t-8.15,0a3,3,0,0,1-.49-1.76,9.24,9.24,0,0,1,.18-2.42c.16-.77.4-1.14.71-1.12a20.93,20.93,0,0,0,5.54-.75q3.83-.88,4.22-2a51.75,51.75,0,0,0,2.37-12.67L67,51.77c.05-.73-.23-1.11-.85-1.16l-9.35-.71c-.21,0-.29-.33-.24-1q.13-1.71,2.52-4.35a6.28,6.28,0,0,1,5.2-2.43l2.49.19a.83.83,0,0,0,1-.86l.12-1.56q1.24-16.36,11.87-27.3T103.65,2.69Z"/></svg>