<svg id="Layer_1" data-name="Layer 1" xmlns="http://www.w3.org/2000/svg" viewBox="0 0 1490.15 821.78"><defs><style>.cls-1{fill:#fff;stroke:#1928eb;stroke-miterlimit:10;stroke-width:1.2px;}.cls-2{fill:#1928eb;}</style></defs><title>zine-title-2</title><path class="cls-1" d="M237.07,167.55q-4.33.35-9.22,1t-7.61,1.13l-2.87.38a3.78,3.78,0,0,1-.62-2.27q-.2-2.45.23-2.49a23.88,23.88,0,0,0,5.41-1.38q3.53-1.23,4-2.58.76-3.11-.06-13.21l-4.44-54.54q-.71-8.66-2-11.75-.56-1.55-4.25-2.27a22.84,22.84,0,0,0-5.85-.54q-.58,0-.75-2.12a3.94,3.94,0,0,1,.37-2.64q9.42-.19,19.09-1,6.79-.41,22.83-2.3T275,68.45q.93,4.28,3.29,11.86t2.56,8.29q-.66.78-3,1a2,2,0,0,1-2.1-.84Q270,76.27,256.31,77.39l-7.5.61q-10.68.87-10.81,2.77a65.2,65.2,0,0,0,.23,11.75l1.85,22.65q.07.87,6.42.35l7.36-.6.58,0q8.37-.68,9.9-1.53t2-5.25q.26-2.2.57-3.68c0-.68.78-1.08,2.23-1.2a3.92,3.92,0,0,1,2.8.5L274.18,131q-.53.63-2.69.8-1.88.15-2.4-1a45.59,45.59,0,0,0-2.27-5.62,8.44,8.44,0,0,0-1.17-1.94l-1.3-.77q-2-1-13.37-.07-10.25.83-10.15,2l1.85,22.65q.63,7.79,2.56,11.85.69,1.4,5.42,2.32A29.1,29.1,0,0,0,257,162c.48,0,.79.76.92,2.39a4.2,4.2,0,0,1-.25,2.34Q240.25,167.29,237.07,167.55Z"/><path class="cls-1" d="M321.95,96.88a31.92,31.92,0,0,1,23.93,7.56,31,31,0,0,1,11.46,22.09,33,33,0,1,1-35.38-29.65Zm-1.32,6.93q-6.78.55-10,7.42a31.14,31.14,0,0,0-2.48,16q1,11.69,6.35,20t13.76,7.59q6.78-.55,10.07-7.5a30.79,30.79,0,0,0,2.55-15.89,49.69,49.69,0,0,0-3-13.77,25.54,25.54,0,0,0-6.93-10.26A13.43,13.43,0,0,0,320.62,103.81Z"/><path class="cls-1" d="M404.77,90.13q7.93-.65,12.22,3.8,1,12.27-5.93,12.83-2.6.21-5.86-2.43a9.06,9.06,0,0,0-6.44-2.38q-4.47.36-6.63,5.12a19.26,19.26,0,0,0-1.75,9.66l1.47,18a60.64,60.64,0,0,0,2.07,12.9q.37,1,4,1.78a20.44,20.44,0,0,0,4.92.69c.29,0,.51.66.67,2.05a15.12,15.12,0,0,1,.16,2.82q-1.17-.05-7.69,0t-9.85.37q-3.46.28-10,1.25t-7.67,1.21c-.42-.35-.68-1.25-.8-2.69s0-2.18.4-2.21a20.21,20.21,0,0,0,5.18-1.51q3.45-1.37,3.65-2.4a47.28,47.28,0,0,0,.15-10.62l-1.92-23.52q-.55-6.78-3.06-9a7,7,0,0,0-3.42-1.9,16.62,16.62,0,0,0-3.53-.58q-1.38,0-1.41-.32-.34-4.18.37-4.39,6.59-1.12,22.88-6.22a9,9,0,0,1,1.13-.38c.38,0,.75.28,1.09.93a3.49,3.49,0,0,1,.5,1.63q0,.66-.05,2c0,.92-.06,1.89-.13,2.92a18.72,18.72,0,0,0-.06,2,26.55,26.55,0,0,1,6.5-7.57A15.86,15.86,0,0,1,404.77,90.13Z"/><path class="cls-1" d="M469.31,128.3l-4.44-54.54q-.71-8.66-2-11.75-.56-1.55-4.25-2.27a22.81,22.81,0,0,0-5.85-.54q-.58,0-.75-2.12a3.94,3.94,0,0,1,.37-2.64q9.56-.34,19.22-1.13,7.36-.6,12.4-1.08t8.65-.78A42.89,42.89,0,0,1,513.6,55a21.32,21.32,0,0,1,8.64,7.07,22,22,0,0,1,4.05,11.43A17,17,0,0,1,524,83.46a23.42,23.42,0,0,1-5.19,6.74,23.89,23.89,0,0,1-4.34,2.89q-1.12.53-.51.91,5.41.43,12.52,6.6a22.79,22.79,0,0,1,7.91,16A23.36,23.36,0,0,1,526,137.18q-9.43,8.18-26,9.38l-20.5,1.53-19.14,2.14a3.79,3.79,0,0,1-.62-2.27q-.2-2.45.23-2.49a23.87,23.87,0,0,0,5.41-1.38q3.53-1.23,4-2.58Q470.13,138.4,469.31,128.3Zm30.28-36.6q10.34-3.16,9.38-15-1.59-19.48-18.18-18.13-6.79.55-9.18,1.47a1.45,1.45,0,0,0-1,1.68l.84,13.88,1.38,16.88q.12,1.44,8.77.74A28.61,28.61,0,0,0,499.59,91.7ZM517,119.62q-.75-9.23-6.36-14.8t-17-4.64a60.1,60.1,0,0,0-8.89,1.45c-.73.55-1,1.54-.92,3L486,131.44q.49,6.06,2.34,7.36t9.35.69a29.61,29.61,0,0,0,6.15-1.15,30.86,30.86,0,0,0,6.38-2.84,13,13,0,0,0,5.31-6.1A19.33,19.33,0,0,0,517,119.62Z"/><path class="cls-1" d="M567.85,120.13q.73,8.95,2.07,12.9.37,1,3.72,1.95a15.83,15.83,0,0,0,4.5.87c.29,0,.51.64.67,2a7.86,7.86,0,0,1,0,2.76l-5.44.08q-3.41.06-6.16.14t-5.21.28q-2.74.22-5.47.59t-6,.86l-5.45.81a4.09,4.09,0,0,1-.79-2.62q-.17-2.09.41-2.14a15.45,15.45,0,0,0,4.73-1.62q3.15-1.49,3.35-2.52a48,48,0,0,0,.28-10.77l-4.89-60a50.54,50.54,0,0,0-1.67-9.74q-.91-2.25-7.4-1.72l-1.44.12q-.87.07-1-1.66c-.13-1.54.1-2.33.68-2.38q4.44-.8,8.42-1.85t6.59-2q2.61-.94,4.51-1.75t3-1.33l1-.51.29,0c.38,0,.82.22,1.3.77a4.45,4.45,0,0,1,.91,1.38,45.74,45.74,0,0,0-.63,13.7Z"/><path class="cls-1" d="M612.1,73.24q8.94-.73,13.8,3.6t5.78,15.72L634,121a6.61,6.61,0,0,0,1.66,4.29,4.35,4.35,0,0,0,3.59,1.23,9,9,0,0,0,4.75-2.28q.89.22,1,1.52a8.61,8.61,0,0,1-.51,4.4,35.9,35.9,0,0,1-5.48,4.08,15.09,15.09,0,0,1-6.77,2.44,10.58,10.58,0,0,1-6.69-1.92,11.88,11.88,0,0,1-4.62-5q-.13.16-1,1t-2.44,2.16a42.59,42.59,0,0,1-3.56,2.61,23,23,0,0,1-4.75,2.35,21,21,0,0,1-5.63,1.26q-7.22.59-12.08-3T586,125.62a13.35,13.35,0,0,1,1.13-6.63,17.31,17.31,0,0,1,3.56-5.3,29.69,29.69,0,0,1,5.89-4.33,59.45,59.45,0,0,1,6.48-3.36q2.74-1.17,7-2.82t6-2.38a2.28,2.28,0,0,0,1.11-2.41l-.65-7.94q-.41-5-3-7.75a7.56,7.56,0,0,0-6.44-2.38,8.78,8.78,0,0,0-6.56,3.22q-2.24,2.87-1.83,7.77a4.69,4.69,0,0,1-1.82,4.43,9,9,0,0,1-4.79,1.77q-5.34.44-7.78-2.85-.57-6.93,8.39-13.76A36.31,36.31,0,0,1,612.1,73.24Zm-2,55.93a11.22,11.22,0,0,0,6.54-2.57q2.65-2.25,2.44-4.85L617.9,107q-1,.52-4.14,1.79T608.93,111a39.67,39.67,0,0,0-3.87,2.35,8.73,8.73,0,0,0-3.13,3.45,8,8,0,0,0-.75,4.13q.38,4.62,2.86,6.59A8.32,8.32,0,0,0,610.12,129.17Z"/><path class="cls-1" d="M678,67.87a34.92,34.92,0,0,1,13.84,1.41q6.19,2,9,4.86a17.89,17.89,0,0,1-1,8.29,5.34,5.34,0,0,1-4.71,3.65A6.49,6.49,0,0,1,690.69,85a16.46,16.46,0,0,1-3.78-4.49Q683,74.14,676.7,74.66t-9.37,7.08q-3.17,6.58-2.39,16.1,1.06,13,6.91,18.83a17.08,17.08,0,0,0,14.07,5.17,39.14,39.14,0,0,0,4.17-.56,21.53,21.53,0,0,0,3.69-1q1.69-.64,3-1.19a12.4,12.4,0,0,0,2.56-1.52l1.85-1.38q.55-.41,2.73-2.18a2.39,2.39,0,0,1,.79.81,2.8,2.8,0,0,1,.55,1.41,4.45,4.45,0,0,1-.64,2.81q-1.85,4.07-7.88,8.48a26.59,26.59,0,0,1-13.82,5,29.28,29.28,0,0,1-22.62-7.6,32,32,0,0,1-10.89-22.21,32.92,32.92,0,0,1,6.81-23.43Q664,69,678,67.87Z"/><path class="cls-1" d="M770.88,70q-2.75,2-8.63,7.24a102.43,102.43,0,0,0-10.65,11q4.55,4.13,11.49,10.83t11.5,11a69.59,69.59,0,0,0,6.25,5.45,18.27,18.27,0,0,0,5.79,2.43,17.64,17.64,0,0,0,4.93.76c.38,0,.64.77.78,2.41a8.44,8.44,0,0,1,0,2q-15.93.57-16.94.65-2.74.22-5.54.6t-6.17.87l-5.38.8a3.93,3.93,0,0,1-.79-2.55q-.16-2,.41-2.07a10.38,10.38,0,0,0,3.27-.92c1.21-.54,1.8-1,1.76-1.52,0-.19-.07-.29-.17-.28l-23-21.8-1.7.57.73,8.95q.9,9.37,2.21,12.89.37,1,4.07,1.77a21.1,21.1,0,0,0,5.14.67q.43,0,.67,2.05a8.21,8.21,0,0,1,0,2.83q-1-.06-7.69,0t-10,.38q-3.46.28-10,1.25t-7.67,1.21q-.62-.53-.8-2.69t.4-2.21a20.16,20.16,0,0,0,5.18-1.51q3.45-1.37,3.65-2.4a47.4,47.4,0,0,0,.15-10.62l-4.88-59.88a57.32,57.32,0,0,0-1.52-9.75q-.91-2.25-7.69-1.7l-1.3.11q-.87.07-1.05-2.24c-.13-1.54.1-2.33.68-2.38q4.44-.8,8.42-1.85t6.59-2q2.61-.94,4.5-1.82t4-1.78l.29,0a1.56,1.56,0,0,1,1.22.7,4,4,0,0,1,.84,1.46,46.64,46.64,0,0,0-.63,13.7l3.93,48.19a13.1,13.1,0,0,0,4.2-1.94q2.81-3,6.1-6.23t4.77-4.67q1.48-1.43,2.95-3.07a12.71,12.71,0,0,0,1.9-2.55,3.44,3.44,0,0,0,.36-1.77q-.13-1.59-3.4-1.68a14.31,14.31,0,0,1-3.29-.24,6.46,6.46,0,0,1-.64-2.49q-.12-1.51.44-1.71l14-1.14q3.9-.32,15.25-1.82a2.26,2.26,0,0,1,.85,1.53,6.54,6.54,0,0,1,.1,2.17q-.13,1-.57,1.06A19,19,0,0,0,770.88,70Z"/><path class="cls-1" d="M827.05,73.16A49.57,49.57,0,0,1,838,37q12.65-15.85,32.42-17.46,12.7-1,33.91,2.61.45.11,2,9.49t1.71,11.12q.14,1.73-2.74,2a5.2,5.2,0,0,1-3.25-.61,26.12,26.12,0,0,0-1.55-3.94,28.65,28.65,0,0,0-3.3-4.89,21.17,21.17,0,0,0-5.48-4.86,29,29,0,0,0-8.39-3.17,37.81,37.81,0,0,0-11.75-.71q-14.14,1.15-21.16,13.05t-5.58,29.5a55.53,55.53,0,0,0,5.31,19.68,39.45,39.45,0,0,0,13,15.35,28.3,28.3,0,0,0,19.23,5.19q9.09-.74,13.63-3.87a3.78,3.78,0,0,0,1.17-3.44l-1-10.38-.08-1q-.71-8.66-2-11.61-.73-1.83-4.48-2.39a27.8,27.8,0,0,0-6.2-.37q-.58,0-.75-2a4.09,4.09,0,0,1,.36-2.72q1.59-.13,8.76-.28t11.5-.5l17.39-2.29a7.81,7.81,0,0,1,.63,2.42c.13,1.64,0,2.47-.38,2.5a18.68,18.68,0,0,0-3.75,1.18,37.77,37.77,0,0,0-4.14,1.79q-1.78,1.31-1,10.69.25,3,.57,6.05t.34,3.31a12.44,12.44,0,0,0,1.09,4.41,12.43,12.43,0,0,1,.9,2.11q.17,2-2.89,3.72-5.56,3.07-8.22,4.3a76.78,76.78,0,0,1-10.26,3.3,93.81,93.81,0,0,1-17,2.84q-19,1.55-33.54-11.5A47.28,47.28,0,0,1,827.05,73.16Z"/><path class="cls-1" d="M956.43,88.76q.72,8.8,2.21,12.89.37,1,4.07,1.77a21.28,21.28,0,0,0,5,.68c.38,0,.66.65.82,2a8.18,8.18,0,0,1,0,2.83q-1-.06-7.76.05t-9.92.37q-3.61.29-10.14,1.26t-7.53,1.19q-.63-.53-.8-2.69t.4-2.21a21,21,0,0,0,5.11-1.5q3.52-1.38,3.73-2.41a47.34,47.34,0,0,0,.15-10.62l-1.92-23.52q-.55-6.78-3.06-9a8,8,0,0,0-3.5-1.89,15.24,15.24,0,0,0-3.53-.58c-1,0-1.46-.12-1.48-.32q-.34-4.18.51-4.4A111.16,111.16,0,0,0,940.34,50a113.79,113.79,0,0,0,11.19-3.53,8.76,8.76,0,0,0,1.13-.38c.48,0,.89.27,1.24.92a2.67,2.67,0,0,1,.42,1.56,123.63,123.63,0,0,0-.14,12.5ZM936.5,29.6a8.81,8.81,0,0,1-3.11-6.14A8.58,8.58,0,0,1,935.47,17a9,9,0,0,1,15.81,5,8.83,8.83,0,0,1-2.08,6.56,8.91,8.91,0,0,1-12.7,1Z"/><path class="cls-1" d="M1012.78,40.6q7.93-.65,12.22,3.8,1,12.27-5.93,12.83-2.6.21-5.86-2.43a9.06,9.06,0,0,0-6.44-2.38q-4.47.36-6.63,5.12a19.25,19.25,0,0,0-1.76,9.66l1.47,18a60.58,60.58,0,0,0,2.07,12.9q.37,1,4,1.78a20.46,20.46,0,0,0,4.92.69c.29,0,.51.66.67,2.05a15,15,0,0,1,.16,2.82q-1.17-.05-7.69,0t-9.85.37q-3.46.28-10,1.25t-7.67,1.21q-.63-.53-.8-2.7t.4-2.21a20.2,20.2,0,0,0,5.18-1.51q3.45-1.37,3.65-2.4A47.35,47.35,0,0,0,985,88.9l-1.92-23.52q-.55-6.78-3.06-9a7,7,0,0,0-3.42-1.9,16.62,16.62,0,0,0-3.53-.58c-.92,0-1.39-.13-1.41-.32q-.34-4.18.37-4.39Q978.67,48,995,42.92a8.8,8.8,0,0,1,1.13-.38c.38,0,.75.28,1.09.93a3.48,3.48,0,0,1,.5,1.63c0,.44,0,1.12-.05,2S997.56,49,997.5,50a18.54,18.54,0,0,0-.06,2,26.59,26.59,0,0,1,6.5-7.57A15.85,15.85,0,0,1,1012.78,40.6Z"/><path class="cls-1" d="M1061.15,79.94q.73,8.95,2.07,12.9.37,1,3.72,1.95a15.85,15.85,0,0,0,4.5.87c.29,0,.51.64.67,2a7.89,7.89,0,0,1,0,2.76l-5.44.08q-3.41.06-6.16.14t-5.21.28q-2.74.22-5.47.59t-6,.85l-5.45.81a4.09,4.09,0,0,1-.8-2.62q-.17-2.09.41-2.14a15.5,15.5,0,0,0,4.73-1.62q3.15-1.49,3.35-2.52a48,48,0,0,0,.28-10.77l-4.89-60a50.54,50.54,0,0,0-1.67-9.74q-.91-2.25-7.4-1.72l-1.44.12q-.87.07-1-1.66c-.13-1.54.1-2.33.68-2.38q4.43-.8,8.42-1.85t6.59-2q2.61-.94,4.51-1.75t3-1.33l1-.51.29,0c.38,0,.82.22,1.3.77a4.42,4.42,0,0,1,.91,1.38,45.74,45.74,0,0,0-.63,13.7Z"/><path class="cls-1" d="M1098.61,33.46a61.56,61.56,0,0,1,16.94,1.09,82.25,82.25,0,0,1,2.9,16c.06.77-.53,1.21-1.78,1.31q-3.18.26-3.56-.87a17.54,17.54,0,0,0-5-8.24,11.31,11.31,0,0,0-9-2.82,10.38,10.38,0,0,0-6.41,2.41,6.42,6.42,0,0,0-1.95,5.53,8.43,8.43,0,0,0,1.09,3.62,9,9,0,0,0,2.85,2.89,35.74,35.74,0,0,0,3.36,2q1.44.75,4.3,2a9.34,9.34,0,0,0,1.5.6l2.26,1,2.49,1.1,2.42,1.18a26.13,26.13,0,0,1,2.66,1.45q.77.52,2.38,1.55a11.48,11.48,0,0,1,2.33,1.84q.72.81,1.91,2.09a9.37,9.37,0,0,1,1.73,2.47,27.6,27.6,0,0,1,1,2.68,13.4,13.4,0,0,1,.61,3.07,17.06,17.06,0,0,1-5.83,14.93A27.47,27.47,0,0,1,1101.34,99a48.36,48.36,0,0,1-18.94-2.52,58,58,0,0,1-2.09-7.89,70.79,70.79,0,0,1-1.4-8.24,3.07,3.07,0,0,1,2-.89q3.32-.27,3.56.87a16,16,0,0,0,6.49,9.27,15.43,15.43,0,0,0,10.18,2.87,10.52,10.52,0,0,0,6.47-2.56,7.06,7.06,0,0,0,2.12-6.13,9.59,9.59,0,0,0-.58-2.64,7.09,7.09,0,0,0-1.57-2.34L1105.72,77a10.48,10.48,0,0,0-2.76-1.74q-2-1-3-1.42l-3.76-1.58q-2.78-1.15-3.84-1.65a33.67,33.67,0,0,1-10.87-6.88,15.47,15.47,0,0,1-4.45-10q-.72-8.8,5.82-14.13A27.91,27.91,0,0,1,1098.61,33.46Z"/><path class="cls-1" d="M77.73,481.65,74.86,427q-.46-8.67-1.63-11.8-.52-1.57-4.19-2.39a22.82,22.82,0,0,0-5.83-.71q-.58,0-.69-2.14a3.93,3.93,0,0,1,.44-2.63q9.56-.07,19.25-.58,7.37-.39,12.43-.72t8.67-.53a42.91,42.91,0,0,1,20.8,4.2,21.33,21.33,0,0,1,8.43,7.31,21.94,21.94,0,0,1,3.72,11.55,17,17,0,0,1-2.53,9.85,23.35,23.35,0,0,1-5.38,6.59,23.86,23.86,0,0,1-4.42,2.77q-1.14.5-.53.9,5.39.59,12.32,7a22.79,22.79,0,0,1,7.45,16.21,23.36,23.36,0,0,1-9,20.33q-9.66,7.9-26.29,8.63l-20.53.93-19.2,1.59a3.79,3.79,0,0,1-.56-2.29q-.13-2.46.3-2.48a23.85,23.85,0,0,0,5.45-1.23q3.56-1.13,4.07-2.46Q78.25,491.77,77.73,481.65ZM109,445.94q10.43-2.87,9.81-14.72-1-19.52-17.65-18.64-6.8.36-9.21,1.21a1.45,1.45,0,0,0-1.07,1.65l.44,13.89.89,16.91q.08,1.45,8.75,1A28.65,28.65,0,0,0,109,445.94Zm16.57,28.41q-.49-9.25-5.93-15t-16.87-5.13a60.18,60.18,0,0,0-8.92,1.19q-1.12.79-1,3l1.41,26.89q.32,6.07,2.13,7.43t9.33,1a29.63,29.63,0,0,0,6.18-1,30.91,30.91,0,0,0,6.46-2.66,13,13,0,0,0,5.49-5.94A19.34,19.34,0,0,0,125.61,474.35Z"/><path class="cls-1" d="M178.67,433A26.84,26.84,0,0,1,191,435a22.91,22.91,0,0,1,8.74,6.35,33.66,33.66,0,0,1,5.07,8.29,25,25,0,0,1,2,8.37q.17,3.18-.88,4t-4.37,1L167,464.93q-1,.05-1,.92a28.15,28.15,0,0,0,2.41,10,19.9,19.9,0,0,0,6.88,8.19,17,17,0,0,0,11.1,3,39.44,39.44,0,0,0,4.18-.44,21.57,21.57,0,0,0,3.72-.92q1.71-.6,3-1.1a12.32,12.32,0,0,0,2.61-1.44l1.89-1.33q.56-.39,2.79-2.1a2.39,2.39,0,0,1,.77.83,2.8,2.8,0,0,1,.51,1.42,4.45,4.45,0,0,1-.72,2.79q-2,4-8.12,8.25a26.86,26.86,0,0,1-14.11,4.66,29.31,29.31,0,0,1-22.17-8.19,31.22,31.22,0,0,1-10.3-22.15q-.77-14.6,7.21-24.15T178.67,433Zm-.66,6.7a10.23,10.23,0,0,0-6.11,2.35,13.64,13.64,0,0,0-3.93,5.14,27.59,27.59,0,0,0-1.81,5.53,17.61,17.61,0,0,0-.43,4.3q.05,1,.92,1l23.42-1.23q1.3-.07,1.19-2.24a18.75,18.75,0,0,0-3.94-10.08Q183.65,439.41,178,439.7Z"/><path class="cls-1" d="M243.15,429.61a34.93,34.93,0,0,1,13.79,1.81q6.13,2.21,8.89,5.11a17.91,17.91,0,0,1-1.23,8.26,5.34,5.34,0,0,1-4.82,3.51,6.48,6.48,0,0,1-4.49-1.21,16.42,16.42,0,0,1-3.65-4.59q-3.68-6.47-10-6.14T232,443.17q-3.36,6.48-2.86,16,.68,13,6.36,19a17.09,17.09,0,0,0,13.92,5.58,39.44,39.44,0,0,0,4.18-.44,21.57,21.57,0,0,0,3.72-.92q1.71-.6,3-1.1a12.32,12.32,0,0,0,2.61-1.44l1.89-1.33q.56-.39,2.79-2.1a2.39,2.39,0,0,1,.77.83,2.8,2.8,0,0,1,.51,1.42,4.45,4.45,0,0,1-.72,2.79q-2,4-8.12,8.25a26.59,26.59,0,0,1-14,4.65,29.29,29.29,0,0,1-22.39-8.25,32,32,0,0,1-10.24-22.51A32.92,32.92,0,0,1,221,440.42Q229.13,430.35,243.15,429.61Z"/><path class="cls-1" d="M305.31,426.35q9-.47,13.69,4t5.33,15.88l1.5,28.48a6.61,6.61,0,0,0,1.53,4.34,4.35,4.35,0,0,0,3.55,1.33,9,9,0,0,0,4.82-2.14q.88.24,1,1.54a8.61,8.61,0,0,1-.64,4.38,35.86,35.86,0,0,1-5.59,3.92,15.08,15.08,0,0,1-6.84,2.24,10.56,10.56,0,0,1-6.63-2.12,11.88,11.88,0,0,1-4.47-5.13q-.14.15-1,1t-2.5,2.09a42.6,42.6,0,0,1-3.64,2.51,23.11,23.11,0,0,1-4.81,2.21,21,21,0,0,1-5.67,1.1q-7.23.38-12-3.36T277.72,478a13.36,13.36,0,0,1,1.32-6.59,17.29,17.29,0,0,1,3.71-5.2,29.64,29.64,0,0,1,6-4.16,59.47,59.47,0,0,1,6.57-3.17q2.77-1.09,7.11-2.62t6-2.2a2.28,2.28,0,0,0,1.18-2.38l-.42-8q-.27-5.06-2.73-7.83a7.56,7.56,0,0,0-6.37-2.57,8.78,8.78,0,0,0-6.65,3q-2.32,2.81-2.06,7.72a4.69,4.69,0,0,1-1.95,4.38,9,9,0,0,1-4.84,1.63q-5.35.28-7.7-3.08-.36-6.94,8.79-13.51A36.31,36.31,0,0,1,305.31,426.35Zm-3.59,55.85a11.23,11.23,0,0,0,6.62-2.38q2.71-2.17,2.58-4.77l-.77-14.75q-1,.49-4.19,1.67t-4.9,2a39.46,39.46,0,0,0-3.94,2.24,8.72,8.72,0,0,0-3.23,3.36,8,8,0,0,0-.87,4.1q.24,4.63,2.67,6.67A8.33,8.33,0,0,0,301.72,482.2Z"/><path class="cls-1" d="M404.29,436.81l1.5,28.62q.36,6.94,1.69,10.06a3,3,0,0,0,1.72,1.07,11.24,11.24,0,0,0,2.56.45,21.49,21.49,0,0,0,2.39,0,2.68,2.68,0,0,1,1.24.08c.39.08.61.5.65,1.27a11,11,0,0,1-.19,2q-.22,1.39-.79,1.42a33.28,33.28,0,0,0-5.11.78q-3.08.67-5.95,1.33t-5.44,1.37q-2.57.71-5.72,1.46-1,.05-1.13-2.26l-.33-6.36c-.12-.48-.28-.71-.47-.7a32.33,32.33,0,0,1-8.48,7,24.24,24.24,0,0,1-11.27,3.49,15.16,15.16,0,0,1-8.73-2,17.45,17.45,0,0,1-6.12-6.06,31.08,31.08,0,0,1-3.48-8.23,44.17,44.17,0,0,1-1.42-9.06l-.85-16.19q-.36-6.79-2.8-9.13a8,8,0,0,0-3.44-2,15.25,15.25,0,0,0-3.52-.68q-1.45-.07-1.47-.36-.22-4.19.5-4.37a109.23,109.23,0,0,0,11.76-2.36,113.28,113.28,0,0,0,11.28-3.2,2.35,2.35,0,0,0,.57-.18,2.44,2.44,0,0,1,.57-.17q.72,0,1.14,1a5.17,5.17,0,0,1,.44,1.57q-.79,9.9-.63,12.79l.91,17.35q.59,11.28,4,16t10.52,4.38a11.37,11.37,0,0,0,7.66-3.23q3-3,2.89-5.59l-1.25-23.85q-.36-6.79-2.8-9.13a7,7,0,0,0-3.37-2,16.34,16.34,0,0,0-3.59-.68q-1.45-.07-1.47-.36-.22-4.19.64-4.38a111.39,111.39,0,0,0,11.62-2.35,113.14,113.14,0,0,0,11.28-3.2,8.12,8.12,0,0,0,1.14-.35c.48,0,.89.29,1.21,1a2.66,2.66,0,0,1,.37,1.58Q404.15,434.21,404.29,436.81Z"/><path class="cls-1" d="M444.08,418.92a61.54,61.54,0,0,1,16.9,1.58,82.2,82.2,0,0,1,2.44,16.11c0,.77-.57,1.19-1.82,1.25q-3.18.17-3.53-1a17.54,17.54,0,0,0-4.72-8.38,11.31,11.31,0,0,0-8.93-3.08,10.39,10.39,0,0,0-6.48,2.22,6.42,6.42,0,0,0-2.1,5.47,8.39,8.39,0,0,0,1,3.64,9,9,0,0,0,2.76,3,35.86,35.86,0,0,0,3.3,2.15q1.42.79,4.24,2.1a9.35,9.35,0,0,0,1.48.65l2.23,1,2.45,1.18,2.38,1.25a26,26,0,0,1,2.62,1.53q.75.54,2.33,1.62a11.44,11.44,0,0,1,2.27,1.91q.7.83,1.85,2.15a9.33,9.33,0,0,1,1.65,2.52,27.72,27.72,0,0,1,.94,2.71,13.47,13.47,0,0,1,.53,3.09,17.06,17.06,0,0,1-6.26,14.75,27.46,27.46,0,0,1-16.71,6.17,48.36,48.36,0,0,1-18.86-3.07,57.77,57.77,0,0,1-1.87-7.95,70.74,70.74,0,0,1-1.16-8.27,3.07,3.07,0,0,1,2-.83q3.32-.17,3.53,1a16,16,0,0,0,6.22,9.46,15.43,15.43,0,0,0,10.1,3.17,10.52,10.52,0,0,0,6.54-2.37,7.06,7.06,0,0,0,2.29-6.06,9.57,9.57,0,0,0-.5-2.65,7.08,7.08,0,0,0-1.5-2.39l-1.77-1.94a10.52,10.52,0,0,0-2.71-1.82q-2-1.05-3-1.51l-3.71-1.69q-2.75-1.23-3.79-1.76a33.65,33.65,0,0,1-10.67-7.2,15.47,15.47,0,0,1-4.16-10.15q-.46-8.82,6.23-14A27.91,27.91,0,0,1,444.08,418.92Z"/><path class="cls-1" d="M503.07,416a26.84,26.84,0,0,1,12.28,2,22.92,22.92,0,0,1,8.74,6.35,33.66,33.66,0,0,1,5.07,8.29,25,25,0,0,1,2,8.37q.17,3.18-.88,4t-4.37,1l-34.55,1.81q-1,.05-1,.92a28.14,28.14,0,0,0,2.41,10,19.92,19.92,0,0,0,6.88,8.19,17,17,0,0,0,11.1,3,39.44,39.44,0,0,0,4.18-.44,21.57,21.57,0,0,0,3.72-.92q1.71-.6,3-1.1a12.35,12.35,0,0,0,2.61-1.44l1.89-1.33q.56-.39,2.79-2.1a2.4,2.4,0,0,1,.77.83,2.81,2.81,0,0,1,.51,1.42,4.45,4.45,0,0,1-.72,2.79q-2,4-8.12,8.25a26.86,26.86,0,0,1-14.11,4.66,29.31,29.31,0,0,1-22.17-8.19,31.22,31.22,0,0,1-10.3-22.15q-.77-14.6,7.21-24.15T503.07,416Zm-.66,6.7A10.23,10.23,0,0,0,496.3,425a13.66,13.66,0,0,0-3.93,5.14,27.59,27.59,0,0,0-1.81,5.53,17.61,17.61,0,0,0-.43,4.3q.05,1,.92,1l23.42-1.23q1.3-.07,1.19-2.24a18.75,18.75,0,0,0-3.94-10.08Q508,422.37,502.41,422.66Z"/><path class="cls-1" d="M590.25,475q-4.33.23-9.24.7t-7.63.91l-2.88.3a3.78,3.78,0,0,1-.56-2.29q-.13-2.46.3-2.48a23.85,23.85,0,0,0,5.45-1.23q3.56-1.13,4.07-2.46.85-3.09.32-13.21l-2.87-54.65q-.46-8.67-1.63-11.8-.52-1.57-4.19-2.39a22.83,22.83,0,0,0-5.83-.71q-.58,0-.69-2.14a3.93,3.93,0,0,1,.44-2.63q9.43.08,19.11-.42,6.8-.21,22.89-1.64t23.75-1.83q.8,4.31,2.95,11.95t2.32,8.36q-.69.76-3,.88-1.59.08-2.08-.91-5.45-12.62-19.18-11.89l-7.52.4q-10.7.56-10.89,2.46a65.32,65.32,0,0,0-.11,11.75l1.19,22.7q0,.87,6.41.53l7.37-.39.58,0q8.38-.44,9.94-1.25t2.19-5.19q.32-2.19.68-3.66.09-1,2.26-1.13a3.93,3.93,0,0,1,2.78.58l1.44,27.32q-.55.61-2.72.72-1.88.1-2.37-1a45.49,45.49,0,0,0-2.11-5.69,8.41,8.41,0,0,0-1.12-2l-1.27-.8q-1.94-1.06-13.36-.46-10.27.54-10.2,1.7l1.19,22.7q.41,7.81,2.22,11.92.65,1.42,5.35,2.47a29,29,0,0,0,6.29,1q.72,0,.85,2.42a4.2,4.2,0,0,1-.31,2.34Q593.43,474.85,590.25,475Z"/><path class="cls-1" d="M674.09,407a26.84,26.84,0,0,1,12.28,2,22.91,22.91,0,0,1,8.74,6.35,33.64,33.64,0,0,1,5.08,8.29,25,25,0,0,1,2,8.37q.17,3.18-.88,4t-4.37,1l-34.55,1.81q-1,.05-1,.92a28.15,28.15,0,0,0,2.41,10,19.9,19.9,0,0,0,6.88,8.19,17,17,0,0,0,11.1,3,39.49,39.49,0,0,0,4.18-.44,21.54,21.54,0,0,0,3.72-.92q1.71-.6,3-1.1a12.35,12.35,0,0,0,2.61-1.44l1.89-1.33q.56-.39,2.79-2.1a2.37,2.37,0,0,1,.77.83,2.79,2.79,0,0,1,.51,1.42,4.45,4.45,0,0,1-.72,2.79q-2,4-8.12,8.25a26.86,26.86,0,0,1-14.11,4.66,29.31,29.31,0,0,1-22.17-8.19,31.22,31.22,0,0,1-10.3-22.15q-.77-14.6,7.21-24.15T674.09,407Zm-.66,6.7a10.23,10.23,0,0,0-6.11,2.35,13.64,13.64,0,0,0-3.93,5.13,27.69,27.69,0,0,0-1.81,5.53,17.66,17.66,0,0,0-.43,4.3q.05,1,.92,1l23.42-1.23q1.3-.07,1.19-2.24a18.76,18.76,0,0,0-3.94-10.09Q679.06,413.39,673.43,413.68Z"/><path class="cls-1" d="M754.76,402.74a15.64,15.64,0,0,1,9.54,2.33,16.92,16.92,0,0,1,6.17,7,34.16,34.16,0,0,1,10.17-7.78,32.49,32.49,0,0,1,13.44-3.61,16.42,16.42,0,0,1,9,1.85,16,16,0,0,1,6.12,6.13,34,34,0,0,1,3.51,8.8,55.21,55.21,0,0,1,1.49,10.43l.8,15.18a60.64,60.64,0,0,0,1.7,13q.34,1,4,1.89a21.32,21.32,0,0,0,5,.83c.29,0,.49.68.62,2.07a8.21,8.21,0,0,1-.07,2.83q-1-.09-7.62-.18t-9.92.09q-3.47.18-9.88,1t-7.7,1a5.41,5.41,0,0,1-.58-2.72q-.11-2.17.32-2.19a19.46,19.46,0,0,0,5.15-1.36q3.41-1.27,3.65-2.29a45,45,0,0,0,.48-10.17L799.35,432q-1.1-21-14.55-20.26a13.19,13.19,0,0,0-7.83,2.73q-3.06,2.48-3.52,4.68c0,.29,0,.68,0,1.16a2.84,2.84,0,0,0,.13,1.15,70.74,70.74,0,0,1,.9,8.94l.8,15.32a57,57,0,0,0,1.67,12.38q.34,1,4,1.89a21.27,21.27,0,0,0,5,.83c.29,0,.49.68.62,2.07a8.24,8.24,0,0,1-.07,2.83q-1-.09-7.62-.18t-9.93.09q-3.47.18-9.88,1t-7.7,1a5.41,5.41,0,0,1-.58-2.72q-.11-2.17.32-2.19a19.47,19.47,0,0,0,5.15-1.36q3.41-1.27,3.65-2.29a47.25,47.25,0,0,0,.46-10.61l-.73-13.88q-.59-11.28-4.18-16.16a11,11,0,0,0-10.1-4.54,13.86,13.86,0,0,0-7.82,2.88q-3.49,2.65-3.33,5.68l1.31,24.86q.46,8.82,1.84,13,.34,1,3.87,1.9a19.64,19.64,0,0,0,4.83.83q.58,0,.76,2.06a8.24,8.24,0,0,1-.07,2.83q-1.17-.08-7.62-.18t-9.78.08q-3.62.19-10.1,1t-7.63,1q-.61-.55-.72-2.72t.46-2.2a21,21,0,0,0,5.15-1.36q3.55-1.27,3.79-2.3a47.31,47.31,0,0,0,.46-10.61l-1.24-23.56q-.36-6.79-2.8-9.13a7,7,0,0,0-3.37-2,16.4,16.4,0,0,0-3.59-.68q-1.45-.07-1.47-.36-.22-4.19.64-4.38,6.62-.92,22.9-5.55a.93.93,0,0,1,.42-.24,3,3,0,0,1,.72-.11c.48,0,.88.29,1.21,1a2.67,2.67,0,0,1,.37,1.58,49.29,49.29,0,0,0-.3,5.23c0,.39.13.62.33.71a2.16,2.16,0,0,0,.7-.47,32.08,32.08,0,0,1,8.57-6.54A25.33,25.33,0,0,1,754.76,402.74Z"/><path class="cls-1" d="M857.5,440.83q.46,8.82,1.84,13,.34,1,4,1.89a21.26,21.26,0,0,0,5,.83q.57,0,.76,2.06a8.22,8.22,0,0,1-.07,2.83q-1-.09-7.76-.17t-9.92.09q-3.62.19-10.17,1t-7.56,1q-.61-.55-.72-2.72t.46-2.2a21,21,0,0,0,5.15-1.36q3.55-1.27,3.79-2.3a47.25,47.25,0,0,0,.46-10.61l-1.24-23.56q-.36-6.79-2.8-9.13a8,8,0,0,0-3.44-2,15.27,15.27,0,0,0-3.52-.69q-1.45-.07-1.47-.36-.22-4.19.64-4.38a111.28,111.28,0,0,0,11.62-2.35,113.45,113.45,0,0,0,11.28-3.2,8.54,8.54,0,0,0,1.14-.35c.48,0,.88.29,1.21,1a2.66,2.66,0,0,1,.37,1.58,124.11,124.11,0,0,0-.5,12.49Zm-18.21-59.71a8.82,8.82,0,0,1-2.94-6.22,8.9,8.9,0,0,1,8.5-9.36,8.89,8.89,0,0,1,9.43,8.42,8.82,8.82,0,0,1-2.27,6.5,8.91,8.91,0,0,1-12.72.67Z"/><path class="cls-1" d="M920.14,394.06q18.65-1,20.21,28.66l.72,13.73a60.64,60.64,0,0,0,1.7,13q.34,1,4.09,1.89a22.16,22.16,0,0,0,5,.82c.29,0,.49.68.62,2.07a8.21,8.21,0,0,1-.07,2.83q-.88-.1-7.62-.18t-10.07.09q-3.47.18-9.59.94t-7.41,1q-.61-.55-.72-2.72t.46-2.2a17.17,17.17,0,0,0,4.79-1.34q3.2-1.26,3.43-2.28a41.59,41.59,0,0,0,.6-10.61L925.58,426q-.63-12-4.13-16.6t-10.59-4.23a13.4,13.4,0,0,0-8,3q-3.33,2.71-3.18,5.6L901,438.55a60.72,60.72,0,0,0,1.7,13q.34,1,3.94,1.89a20.82,20.82,0,0,0,4.75.84c.38,0,.64.67.76,2.06a8.21,8.21,0,0,1-.07,2.83q-1.17-.08-7.62-.18t-9.78.08q-3.47.18-10,1t-7.7,1c-.41-.37-.65-1.27-.72-2.72s.08-2.18.46-2.2a20.21,20.21,0,0,0,5.22-1.36q3.48-1.27,3.72-2.3a47.24,47.24,0,0,0,.46-10.61l-1.24-23.56q-.36-6.79-2.8-9.13a7,7,0,0,0-3.37-2,16.54,16.54,0,0,0-3.52-.68q-1.38-.07-1.4-.36-.22-4.19.5-4.37,6.62-.93,23-5.56a1,1,0,0,1,.35-.24,1.37,1.37,0,0,1,.43-.09l.36,0c.38,0,.74.3,1.06,1a4.41,4.41,0,0,1,.52,1.57,48.85,48.85,0,0,0-.31,5.24,1.13,1.13,0,0,0,.18.71,2.13,2.13,0,0,0,.7-.47,32.1,32.1,0,0,1,8.57-6.54A25.32,25.32,0,0,1,920.14,394.06Z"/><path class="cls-1" d="M985.3,434.12q.46,8.82,1.84,12.95.34,1,4,1.89a21.27,21.27,0,0,0,5,.83c.38,0,.64.67.76,2.06a8.26,8.26,0,0,1-.07,2.83q-1-.09-7.76-.17t-9.93.09q-3.62.19-10.17,1t-7.56,1c-.41-.37-.65-1.27-.72-2.72s.08-2.18.46-2.2a20.92,20.92,0,0,0,5.15-1.36q3.56-1.27,3.79-2.3a47.25,47.25,0,0,0,.46-10.61L969.3,413.8q-.36-6.79-2.8-9.13a8,8,0,0,0-3.44-2,15.25,15.25,0,0,0-3.52-.69q-1.45-.07-1.47-.36-.22-4.19.64-4.38a110.82,110.82,0,0,0,11.62-2.35,113.15,113.15,0,0,0,11.28-3.2,8.53,8.53,0,0,0,1.14-.35c.48,0,.88.29,1.21,1a2.66,2.66,0,0,1,.37,1.58,124.23,124.23,0,0,0-.5,12.49Zm-18.21-59.71a8.82,8.82,0,0,1-2.94-6.22,8.9,8.9,0,0,1,8.5-9.36,8.67,8.67,0,0,1,6.5,2.27,8.58,8.58,0,0,1,2.93,6.15,8.82,8.82,0,0,1-2.27,6.5,8.91,8.91,0,0,1-12.72.67Z"/><path class="cls-1" d="M1024.21,388.44a61.51,61.51,0,0,1,16.9,1.58,82.27,82.27,0,0,1,2.44,16.11c0,.77-.57,1.19-1.82,1.26q-3.18.17-3.53-1a17.54,17.54,0,0,0-4.72-8.38,11.31,11.31,0,0,0-8.93-3.08,10.4,10.4,0,0,0-6.48,2.22,6.42,6.42,0,0,0-2.1,5.47,8.38,8.38,0,0,0,1,3.64,9,9,0,0,0,2.76,3,35.69,35.69,0,0,0,3.3,2.15q1.42.8,4.24,2.1a9.32,9.32,0,0,0,1.48.65l2.23,1,2.45,1.18,2.38,1.25a26.06,26.06,0,0,1,2.62,1.53q.75.54,2.33,1.62a11.44,11.44,0,0,1,2.27,1.91q.7.83,1.85,2.15a9.35,9.35,0,0,1,1.66,2.52,27.89,27.89,0,0,1,.94,2.71,13.46,13.46,0,0,1,.53,3.09,17.06,17.06,0,0,1-6.26,14.75,27.47,27.47,0,0,1-16.71,6.17,48.38,48.38,0,0,1-18.86-3.07,57.9,57.9,0,0,1-1.87-7.95,70.73,70.73,0,0,1-1.16-8.27,3.07,3.07,0,0,1,2-.83q3.32-.17,3.53,1a16,16,0,0,0,6.22,9.46,15.43,15.43,0,0,0,10.1,3.17,10.53,10.53,0,0,0,6.54-2.37,7.06,7.06,0,0,0,2.29-6.06,9.55,9.55,0,0,0-.5-2.66,7.09,7.09,0,0,0-1.5-2.39l-1.77-1.94a10.52,10.52,0,0,0-2.71-1.81q-2-1.05-3-1.51l-3.71-1.69q-2.75-1.23-3.79-1.76a33.68,33.68,0,0,1-10.67-7.2A15.47,15.47,0,0,1,1002,408q-.46-8.82,6.23-14A27.91,27.91,0,0,1,1024.21,388.44Z"/><path class="cls-1" d="M1100.84,384.56a15.65,15.65,0,0,1,9.54,2.33,16.93,16.93,0,0,1,6.17,7,34.17,34.17,0,0,1,10.17-7.78,32.5,32.5,0,0,1,13.44-3.6,16.42,16.42,0,0,1,9,1.85,16,16,0,0,1,6.12,6.13,34.09,34.09,0,0,1,3.51,8.8,55.23,55.23,0,0,1,1.49,10.43l.8,15.18a60.63,60.63,0,0,0,1.7,13q.34,1,4,1.89a21.39,21.39,0,0,0,5,.83c.29,0,.49.68.62,2.07a8.21,8.21,0,0,1-.07,2.83q-1-.09-7.62-.18t-9.92.09q-3.47.18-9.88,1t-7.7,1a5.41,5.41,0,0,1-.58-2.72q-.11-2.17.32-2.19a19.46,19.46,0,0,0,5.15-1.36q3.41-1.27,3.65-2.29a45,45,0,0,0,.48-10.17l-.77-14.75q-1.1-21-14.55-20.25a13.19,13.19,0,0,0-7.83,2.73q-3.06,2.48-3.52,4.68c0,.29,0,.68,0,1.16a2.82,2.82,0,0,0,.13,1.15,70.75,70.75,0,0,1,.9,8.94l.81,15.32a57,57,0,0,0,1.67,12.38q.34,1,4,1.89a21.34,21.34,0,0,0,5,.83c.29,0,.49.68.62,2.07a8.21,8.21,0,0,1-.07,2.83q-1-.09-7.62-.18t-9.93.09q-3.47.18-9.88,1t-7.7,1a5.39,5.39,0,0,1-.58-2.72q-.11-2.17.32-2.19a19.45,19.45,0,0,0,5.15-1.36q3.41-1.27,3.65-2.29a47.3,47.3,0,0,0,.46-10.61l-.73-13.88q-.59-11.28-4.18-16.16a11,11,0,0,0-10.1-4.54,13.85,13.85,0,0,0-7.82,2.88q-3.48,2.65-3.33,5.68l1.31,24.86q.46,8.82,1.84,13,.34,1,3.87,1.9a19.68,19.68,0,0,0,4.83.83c.38,0,.64.67.76,2.06a8.21,8.21,0,0,1-.07,2.83q-1.17-.08-7.62-.18t-9.78.08q-3.62.19-10.1,1t-7.63,1c-.41-.37-.65-1.27-.72-2.72s.08-2.18.46-2.2a21,21,0,0,0,5.15-1.36q3.56-1.27,3.79-2.3a47.25,47.25,0,0,0,.46-10.61l-1.24-23.56q-.36-6.79-2.8-9.13a7,7,0,0,0-3.37-2,16.33,16.33,0,0,0-3.59-.68q-1.45-.07-1.47-.36-.22-4.19.64-4.38,6.62-.93,22.9-5.55a.93.93,0,0,1,.42-.24,3,3,0,0,1,.72-.11c.48,0,.88.29,1.21,1a2.66,2.66,0,0,1,.37,1.58,49,49,0,0,0-.3,5.23c0,.39.13.62.33.71a2.14,2.14,0,0,0,.7-.47,32.1,32.1,0,0,1,8.57-6.54A25.34,25.34,0,0,1,1100.84,384.56Z"/><path class="cls-1" d="M657,553.55q-.35-8.68-1.64-12.1-.63-1.13-4.14-2.08a19.45,19.45,0,0,0-5.25-.88q-.58,0-.67-2.15a5.83,5.83,0,0,1,.19-2.62q.72,0,8,.11t11.23,0q1.15,0,18.48-1.61a7.45,7.45,0,0,1,.52,2.3c.07,1.64-.09,2.47-.48,2.48a23.59,23.59,0,0,0-5.16,1.36q-3.86,1.32-4.11,2.34a53.76,53.76,0,0,0-.65,12.78l2.17,54.39a53.75,53.75,0,0,0,1.82,13q.33,1,4.06,1.94a22.11,22.11,0,0,0,5,.89c.38,0,.62.89.69,2.73a6.45,6.45,0,0,1-.21,2q-17.39-.18-18.4-.14-2.9.11-6.07.39t-7,.64l-6.13.61a2.82,2.82,0,0,1-.66-2c-.07-1.83.08-2.76.47-2.77a23.14,23.14,0,0,0,5.38-1.23q3.65-1.16,4-2.33a50.74,50.74,0,0,0,.67-12.2Z"/><path class="cls-1" d="M716.61,562.61a61.54,61.54,0,0,1,16.88,1.79,82.19,82.19,0,0,1,2.24,16.14c0,.77-.58,1.18-1.83,1.23q-3.18.13-3.52-1a17.53,17.53,0,0,0-4.61-8.44,11.31,11.31,0,0,0-8.89-3.2,10.39,10.39,0,0,0-6.51,2.14,6.42,6.42,0,0,0-2.17,5.45,8.42,8.42,0,0,0,.94,3.66,9,9,0,0,0,2.73,3,35.6,35.6,0,0,0,3.28,2.19q1.41.81,4.21,2.15a9.38,9.38,0,0,0,1.48.67l2.22,1.07,2.44,1.21,2.37,1.28a25.76,25.76,0,0,1,2.6,1.56q.75.55,2.31,1.65a11.48,11.48,0,0,1,2.25,1.94q.68.84,1.82,2.17a9.33,9.33,0,0,1,1.62,2.54,27.79,27.79,0,0,1,.91,2.72,13.49,13.49,0,0,1,.48,3.09,17.06,17.06,0,0,1-6.44,14.67,27.46,27.46,0,0,1-16.79,6,48.38,48.38,0,0,1-18.82-3.31,57.91,57.91,0,0,1-1.77-8,70.93,70.93,0,0,1-1.05-8.29,3.07,3.07,0,0,1,2-.8q3.33-.13,3.52,1a16,16,0,0,0,6.1,9.54,15.43,15.43,0,0,0,10.06,3.29,10.51,10.51,0,0,0,6.57-2.29,7.06,7.06,0,0,0,2.37-6,9.54,9.54,0,0,0-.47-2.66,7.06,7.06,0,0,0-1.47-2.4l-1.74-2a10.51,10.51,0,0,0-2.68-1.85q-2-1.08-3-1.55t-3.69-1.74q-2.73-1.27-3.77-1.81a33.65,33.65,0,0,1-10.58-7.33,15.47,15.47,0,0,1-4-10.2q-.35-8.82,6.4-13.87A27.91,27.91,0,0,1,716.61,562.61Z"/><path class="cls-1" d="M854.43,545.53q-.3-7.66-1.91-11.51-.79-1.71-5-2.55a29.05,29.05,0,0,0-6.48-.76q-.58,0-.74-2.07a4.89,4.89,0,0,1,.26-2.69q15.51.4,18.26.29,3.76-.15,9.67-.89t7.36-.8a6,6,0,0,1,.38,2.3q.1,2.46-.48,2.48a27.8,27.8,0,0,0-6.18,1.33q-4.15,1.25-5.38,3.18-1.44,4-1.11,12.07l2.19,54.82q.21,5.21,1.39,20.23-.56.6-3.16.71-2.31.09-4.76-3.14l-60.61-74.08L800.51,603q.35,8.68,1.63,11.82.79,1.71,5.47,2.75a30,30,0,0,0,6.56,1c.29,0,.48.66.59,2a7.88,7.88,0,0,1-.11,2.76q-17.39-.18-18.12-.15-3.91.16-9.6.75t-7.57.81a3.63,3.63,0,0,1-.68-2.44q-.09-2.31.49-2.34a27.42,27.42,0,0,0,6.54-1.35q4.08-1.25,5.15-3.46,1.32-3.1,1-12.21l-2.26-56.7q-.31-7.81-2-10.5-.62-1-5.07-1.68a37.81,37.81,0,0,0-6.47-.61q-.58,0-.74-2.14t.4-2.77q15.22.12,17.24,0,4.77-.19,13-1.24a150.06,150.06,0,0,0,10.67,15q7.71,9.91,21.11,26.11t18.28,22.38a41.27,41.27,0,0,0,.05-5.94Z"/><path class="cls-1" d="M917.82,554.74a31.92,31.92,0,0,1,23.59,8.55,31,31,0,0,1,10.53,22.54,33,33,0,1,1-34.12-31.09Zm-1.61,6.87q-6.8.27-10.3,7a31.13,31.13,0,0,0-3.14,15.84q.47,11.72,5.51,20.21t13.44,8.16q6.8-.27,10.37-7.08A30.79,30.79,0,0,0,935.3,590a49.72,49.72,0,0,0-2.44-13.88,25.55,25.55,0,0,0-6.5-10.54A13.43,13.43,0,0,0,916.21,561.61Z"/><path class="cls-1" d="M967.25,562.91l-8.82.35q-1,0-1.16-3.72a3.6,3.6,0,0,1,.09-1.31,40.47,40.47,0,0,0,10.83-8.11q1.8-2,4-4.43t5-6.36a10.35,10.35,0,0,1,2.76.25q1.32.31,1.33.74l.56,14.18q3.76-.15,10.49-.35l7.16-.21q1.16,0,1.21,1.26a14.07,14.07,0,0,1-1.19,6.42l-17.36.69,1.39,34.86q.23,5.79,2.81,8.72a8.28,8.28,0,0,0,6.92,2.77,13.73,13.73,0,0,0,3-.48,15.26,15.26,0,0,0,2.57-.9c.66-.32,1.28-.63,1.84-.94a4.61,4.61,0,0,1,1-.47q.57-.17,1.35,1.25t.65,1.86q-.79,2.06-6,4.95A22.79,22.79,0,0,1,987.52,617a18.26,18.26,0,0,1-13-4.33q-5.48-4.63-5.88-14.76Z"/><path class="cls-1" d="M1057.61,518q6.36-.25,22.4-1.4t24.28-1.47q.75,4.32,2.8,12t2.22,8.39q-.7.75-3,.84-1.59.06-2.06-.93-5.29-12.68-19-12.14l-7.52.3q-10.71.43-10.92,2.32a59.81,59.81,0,0,0-.4,11.75l.91,22.71q0,.87,6.4.61l7.52-.3.58,0q8.39-.33,10-1.12t2.26-5.16q.35-2.19.72-3.65c.07-.68.83-1,2.27-1.11a3.93,3.93,0,0,1,2.78.61l1.09,27.34q-.56.6-2.73.69-1.88.07-2.36-1.06a45.69,45.69,0,0,0-2-5.71,8.51,8.51,0,0,0-1.09-2l-1.26-.82q-1.93-1.08-13.35-.63-10.41.41-10.37,1.57l.89,22.42q.32,8,1.77,11.67.8,1.85,9.91,1.49l5.35-.21q11.28-.45,17.09-3.72,2.27-1.25,5-5.27a30.47,30.47,0,0,0,4.13-9q.11-.87,2-.95,3.18-.13,4.08.71-.38,1.32-1.86,6t-2.25,7.12q-.77,2.42-1.65,5.93a40,40,0,0,0-1.08,5.69q-5.79.23-24,.52t-25.54.87l-19.21,1.35a3.78,3.78,0,0,1-.53-2.3q-.1-2.46.34-2.48a23.85,23.85,0,0,0,5.46-1.16q3.58-1.08,4.11-2.41.89-3.08.49-13.2L1050,538q-.35-8.68-1.49-11.82-.5-1.57-4.15-2.44a22.88,22.88,0,0,0-5.83-.78q-.58,0-.67-2.15a3.93,3.93,0,0,1,.47-2.63Q1047.92,518.41,1057.61,518Z"/><path class="cls-1" d="M1171.09,544.64q18.66-.74,19.84,28.91l.55,13.74a60.61,60.61,0,0,0,1.53,13q.33,1,4.06,1.94a22.16,22.16,0,0,0,5,.89c.29,0,.48.68.59,2.08a8.24,8.24,0,0,1-.1,2.83q-.87-.11-7.62-.28t-10.07,0q-3.47.14-9.6.82t-7.43.88q-.6-.56-.69-2.73t.49-2.19a17.22,17.22,0,0,0,4.8-1.28q3.21-1.21,3.46-2.24a41.56,41.56,0,0,0,.74-10.61l-.55-13.74q-.48-12-3.92-16.65t-10.53-4.36a13.4,13.4,0,0,0-8,2.85q-3.37,2.67-3.25,5.56l1,24.88a60.6,60.6,0,0,0,1.53,13q.33,1,3.92,1.94a20.81,20.81,0,0,0,4.74.9q.58,0,.73,2.07a8.22,8.22,0,0,1-.1,2.83q-1.16-.1-7.62-.28t-9.78,0q-3.47.14-10,.83t-7.71.89c-.4-.37-.63-1.28-.69-2.72s.1-2.18.49-2.19a20.21,20.21,0,0,0,5.24-1.29q3.5-1.23,3.75-2.25a47.26,47.26,0,0,0,.59-10.6l-.94-23.58q-.27-6.8-2.68-9.17a7,7,0,0,0-3.34-2,16.54,16.54,0,0,0-3.51-.73q-1.38-.09-1.39-.38-.17-4.19.55-4.37,6.63-.84,23.12-5.27a1,1,0,0,1,.35-.23,1.37,1.37,0,0,1,.43-.09h.36c.38,0,.74.31,1.05,1a4.44,4.44,0,0,1,.5,1.57,49.2,49.2,0,0,0-.37,5.23,1.14,1.14,0,0,0,.17.72,2.14,2.14,0,0,0,.71-.46,32.06,32.06,0,0,1,8.65-6.43A25.31,25.31,0,0,1,1171.09,544.64Z"/><path class="cls-1" d="M1272.1,556.26l1.14,28.64q.28,6.94,1.56,10.08a3,3,0,0,0,1.71,1.09,11.22,11.22,0,0,0,2.55.48,21.48,21.48,0,0,0,2.39,0,2.69,2.69,0,0,1,1.24.1c.39.08.6.51.63,1.28a11,11,0,0,1-.21,2c-.16.93-.43,1.39-.81,1.41a33.38,33.38,0,0,0-5.11.71q-3.09.63-6,1.25t-5.45,1.3q-2.58.68-5.74,1.39-1,0-1.11-2.27l-.25-6.36c-.12-.48-.27-.71-.46-.71a32.31,32.31,0,0,1-8.56,6.86,24.24,24.24,0,0,1-11.31,3.35,15.17,15.17,0,0,1-8.71-2.12,17.47,17.47,0,0,1-6-6.13,31,31,0,0,1-3.37-8.27,44.15,44.15,0,0,1-1.3-9.08l-.65-16.2q-.27-6.8-2.68-9.17a8,8,0,0,0-3.41-2,15.23,15.23,0,0,0-3.51-.73q-1.45-.08-1.46-.38-.17-4.19.55-4.37a109.25,109.25,0,0,0,11.79-2.21,113.65,113.65,0,0,0,11.32-3.06,2.33,2.33,0,0,0,.57-.17,2.39,2.39,0,0,1,.57-.17c.48,0,.86.3,1.13,1a5.19,5.19,0,0,1,.42,1.58q-.91,9.89-.79,12.78l.69,17.36q.45,11.28,3.83,16.07t10.47,4.51a11.37,11.37,0,0,0,7.7-3.13q3.07-2.95,3-5.55l-1-23.87q-.27-6.8-2.68-9.17a7,7,0,0,0-3.34-2,16.34,16.34,0,0,0-3.58-.73q-1.45-.08-1.46-.38-.17-4.19.7-4.37a110.88,110.88,0,0,0,11.65-2.2,113.65,113.65,0,0,0,11.32-3.06,8.47,8.47,0,0,0,1.15-.34c.48,0,.88.3,1.2,1a2.68,2.68,0,0,1,.35,1.58Q1272,553.66,1272.1,556.26Z"/><path class="cls-1" d="M1328.31,501.72a28.49,28.49,0,0,1,10.11,1.12q4,1.36,5.43,3.48a16.22,16.22,0,0,1-.48,8.06,5.19,5.19,0,0,1-5.14,3.75,5.65,5.65,0,0,1-4.51-2.21q-2-2.31-4.31-4.61a6.66,6.66,0,0,0-5.16-2.18q-3.91.16-6.36,4a24.32,24.32,0,0,0-3.33,9.26,59.11,59.11,0,0,0-.62,11.76l.26,6.65c0,.1.1.24.31.42a.82.82,0,0,0,.59.27l15.91-.63a1.16,1.16,0,0,1,.73.12,1.53,1.53,0,0,1,.18.86,14.89,14.89,0,0,1-1.47,6.72l-15,.6a.77.77,0,0,0-.83.9l1.29,32.26a55.39,55.39,0,0,0,1.68,13q.33,1,3.92,1.95a20.43,20.43,0,0,0,4.89.89c.29,0,.48.68.59,2.08a8.24,8.24,0,0,1-.1,2.83q-.87-.11-7.55-.28t-10.14,0q-3.47.14-9.82.83t-7.5.88a2.73,2.73,0,0,1-.64-1.57,8.62,8.62,0,0,1-.09-2.24c.06-.73.24-1.1.53-1.11a19.41,19.41,0,0,0,5-1.29q3.43-1.22,3.68-2.25a48,48,0,0,0,.83-11.91l-1.33-33.27c0-.67-.33-1-.91-1l-8.68.35c-.2,0-.3-.28-.33-.86q-.06-1.59,1.86-4.28a5.82,5.82,0,0,1,4.53-2.79l2.32-.09a.77.77,0,0,0,.83-.9l-.06-1.45q-.61-15.19,8-26.4T1328.31,501.72Z"/><path class="cls-2" d="M247.93,739.72l10.29,23.45q.74,1.79,1.47,3.27a2.21,2.21,0,0,0,1.49,1,6.05,6.05,0,0,0,1.74.35q.18,0,.21.81a1.53,1.53,0,0,1-.07.68l-5.72-.09-5.88.46a1.28,1.28,0,0,1-.21-.83c0-.44,0-.66.16-.66a5.83,5.83,0,0,0,1.49-.32q.94-.3,1.11-.67a1.3,1.3,0,0,0,.12-.59,10.45,10.45,0,0,0-1-3.1l-1.72-4.17a.49.49,0,0,0-.32-.17q-1.45,0-3.9,0t-5.16.3c-.18,0-.27.07-.27.19L240.19,764a12.88,12.88,0,0,0-.77,3,1,1,0,0,0,.53.89,4.54,4.54,0,0,0,1.44.45,7.83,7.83,0,0,0,1.39.18q.14,0,.16.63a3,3,0,0,1-.06.86q-.23,0-2.14-.07t-3.09,0q-1.18,0-2.78.2l-2.28.23a1,1,0,0,1-.2-.67q0-.82.06-.82a6.56,6.56,0,0,0,1.73-.44,2.8,2.8,0,0,0,1.49-.93,21.52,21.52,0,0,0,1.61-3.59l7.77-20.67a9.85,9.85,0,0,1,1.57-3.32,1.16,1.16,0,0,1,.76-.34A.74.74,0,0,1,247.93,739.72Zm-4.89,17q1.59.08,3.27,0t3.71-.26l.08-.18-3.74-9-3.42,9.19C242.95,756.7,243,756.76,243,756.76Z"/><path class="cls-2" d="M304.06,751.24a1.31,1.31,0,0,0-.39-.92,2,2,0,0,0-.95-.51,8.19,8.19,0,0,0-1.05-.19,6.42,6.42,0,0,0-.93,0h-.18q-.18,0-.23-.67c0-.45,0-.73.09-.82q.59,0,2.41.06t2.91,0q1,0,2.42-.21t2.15-.21a2.86,2.86,0,0,1,.12.77q0,.68-.16.69a5.16,5.16,0,0,0-1.77.63,2.77,2.77,0,0,0-1.52,1.43l-6.19,16.22a1.79,1.79,0,0,1-.59.68,1.56,1.56,0,0,1-.87.32.57.57,0,0,1-.6-.3l-5.94-12.33-4.47,12a2.46,2.46,0,0,1-.5.65,1.37,1.37,0,0,1-1,.39.67.67,0,0,1-.64-.3q-1.12-2.32-2.66-5.66t-2.8-5.88q-1.26-2.55-2.9-5.53a2.08,2.08,0,0,0-1.21-.87,4.38,4.38,0,0,0-1.46-.27c-.12,0-.19-.24-.2-.72s0-.68.16-.78q.45,0,2.29.06t2.88,0q1,0,3.08-.24t2.35-.21a2.49,2.49,0,0,1,.12.81c0,.39,0,.61-.12.64a5.37,5.37,0,0,0-1.55.37q-1,.35-.94,1,0,.09,4.87,10.28.46-1.29,1.06-2.92l.92-2.48.62-1.72q.31-.87.43-1.31a2.5,2.5,0,0,0,.12-.57,3.31,3.31,0,0,0-.65-1.79,2.15,2.15,0,0,0-1-.69,3.61,3.61,0,0,0-1.64-.22c-.12,0-.19-.21-.2-.65s0-.7.16-.8q.5,0,2.25.06t2.84,0q1,0,2.94-.23t2.31-.21a2.19,2.19,0,0,1,.09.84q0,.66-.14.66-2.31.07-2.26,1.66,0,.86,4.59,9.93.66-1.93,1.65-4.52t1.44-3.86A6.07,6.07,0,0,0,304.06,751.24Z"/><path class="cls-2" d="M323.18,747.17a10,10,0,0,1,7.37,2.73A9.72,9.72,0,0,1,333.8,757a10.35,10.35,0,1,1-10.62-9.82Zm-.52,2.15a3.65,3.65,0,0,0-3.24,2.17,9.76,9.76,0,0,0-1,5,13.22,13.22,0,0,0,1.68,6.34,4.52,4.52,0,0,0,4.19,2.59,3.7,3.7,0,0,0,3.26-2.19,9.64,9.64,0,0,0,1-4.93,15.58,15.58,0,0,0-.73-4.36,8,8,0,0,0-2-3.32A4.2,4.2,0,0,0,322.66,749.32Z"/><path class="cls-2" d="M349.67,746.31a4.52,4.52,0,0,1,3.77,1.38q.12,3.85-2.05,3.92a2.7,2.7,0,0,1-1.8-.85,2.84,2.84,0,0,0-2-.84,2.43,2.43,0,0,0-2.15,1.5,6,6,0,0,0-.7,3l.18,5.67a19,19,0,0,0,.45,4.07q.1.31,1.22.62a6.41,6.41,0,0,0,1.53.29c.09,0,.15.21.18.65a4.73,4.73,0,0,1,0,.88q-.36,0-2.41-.1t-3.09,0q-1.09,0-3.15.24t-2.42.26a1.33,1.33,0,0,1-.21-.86q0-.68.16-.68a6.37,6.37,0,0,0,1.64-.39q1.1-.38,1.18-.7a14.85,14.85,0,0,0,.21-3.32l-.24-7.39a4.31,4.31,0,0,0-.82-2.88,2.2,2.2,0,0,0-1-.65,5.25,5.25,0,0,0-1.1-.24c-.29,0-.43-.06-.44-.12,0-.87,0-1.33.18-1.37a64.54,64.54,0,0,0,7.25-1.6l.36-.1c.12,0,.23.1.33.31a1.08,1.08,0,0,1,.13.52q0,.21,0,.64c0,.29,0,.59-.08.91a5.85,5.85,0,0,0,0,.61,8.34,8.34,0,0,1,2.15-2.27A5,5,0,0,1,349.67,746.31Z"/><path class="cls-2" d="M375.39,748.52q-.89.57-2.81,2.13a32.12,32.12,0,0,0-3.5,3.29q1.36,1.36,3.43,3.56t3.43,3.61a21.78,21.78,0,0,0,1.87,1.8,5.74,5.74,0,0,0,1.77.85,5.54,5.54,0,0,0,1.53.31c.12,0,.19.25.21.76a2.66,2.66,0,0,1,0,.64l-5.31-.05q-.86,0-1.74.1l-1.95.18-1.7.17a1.23,1.23,0,0,1-.21-.81c0-.42,0-.64.16-.64a3.23,3.23,0,0,0,1-.24c.39-.15.58-.3.58-.45s0-.09,0-.09l-6.86-7.17-.54.15.09,2.81a18.54,18.54,0,0,0,.49,4.07q.1.31,1.25.62a6.63,6.63,0,0,0,1.6.29c.09,0,.15.21.18.65a2.58,2.58,0,0,1,0,.89q-.32,0-2.41-.1t-3.13,0q-1.09,0-3.15.24t-2.42.26a1.33,1.33,0,0,1-.21-.86q0-.68.16-.68a6.37,6.37,0,0,0,1.64-.39q1.1-.38,1.18-.7a14.85,14.85,0,0,0,.21-3.32l-.61-18.81a17.91,17.91,0,0,0-.33-3.07q-.25-.72-2.38-.65h-.41q-.27,0-.3-.72t.25-.73q1.4-.18,2.66-.45t2.09-.52q.83-.25,1.44-.5l1.28-.5h.09a.49.49,0,0,1,.37.24,1.25,1.25,0,0,1,.24.47,14.64,14.64,0,0,0-.41,4.28l.49,15.14A4.1,4.1,0,0,0,366,754q.92-.89,2-1.86l1.57-1.39q.49-.42,1-.92a4,4,0,0,0,.63-.77,1.08,1.08,0,0,0,.14-.55q0-.5-1-.58a4.53,4.53,0,0,1-1-.12,2,2,0,0,1-.16-.79c0-.32,0-.49.16-.53l4.4-.14q1.22,0,4.8-.34a.7.7,0,0,1,.24.49,2,2,0,0,1,0,.68c0,.21-.1.32-.19.32A6,6,0,0,0,375.39,748.52Z"/><path class="cls-2" d="M395.38,744.83a9.22,9.22,0,0,1,5.1,1.26,9.52,9.52,0,0,1,3.52,3.52,9.67,9.67,0,0,1,1.3,4.52,10.35,10.35,0,0,1-2.9,7.7,10,10,0,0,1-7.17,3.39,14.22,14.22,0,0,1-3.32-.23,10,10,0,0,0-2.14-.27,3.43,3.43,0,0,0-1.17.36,4.51,4.51,0,0,1-.9.35,2.2,2.2,0,0,1-.67-.25q-.53-.25-.54-.44c0-.09,0-.36.06-.82s.1-1.11.16-2a26,26,0,0,0,0-2.77l-.6-18.5a15.82,15.82,0,0,0-.37-3.07q-.25-.72-2.38-.65H383q-.27,0-.3-.72t.25-.73q1.4-.18,2.66-.45t2.09-.52q.83-.25,1.44-.5l1.28-.5h.09a.49.49,0,0,1,.37.24,1.25,1.25,0,0,1,.24.47,15.87,15.87,0,0,0-.36,4.28l.24,7.25V746a1.31,1.31,0,0,0,0,.2c0,.09,0,.14.1.13a.36.36,0,0,0,.16-.05,8.31,8.31,0,0,1,1.81-1A6.53,6.53,0,0,1,395.38,744.83Zm-.92,2.48a3.52,3.52,0,0,0-2.42.94,2.67,2.67,0,0,0-.89,2.07l.31,9.61a2.72,2.72,0,0,0,1.28,2.36,4.92,4.92,0,0,0,2.86.72,3.86,3.86,0,0,0,3.49-2.25,10.38,10.38,0,0,0,1-5.21,11.65,11.65,0,0,0-1.61-6.12A4.45,4.45,0,0,0,394.47,747.31Z"/><path class="cls-2" d="M418.33,744.09a10,10,0,0,1,7.37,2.73,9.72,9.72,0,0,1,3.25,7.09,10.27,10.27,0,0,1-20.54.67,9.77,9.77,0,0,1,2.74-7.3A9.94,9.94,0,0,1,418.33,744.09Zm-.52,2.15a3.65,3.65,0,0,0-3.24,2.17,9.76,9.76,0,0,0-1,5,13.21,13.21,0,0,0,1.68,6.34,4.53,4.53,0,0,0,4.19,2.59,3.7,3.7,0,0,0,3.26-2.19,9.64,9.64,0,0,0,1-4.94,15.57,15.57,0,0,0-.73-4.36,8,8,0,0,0-2-3.32A4.2,4.2,0,0,0,417.81,746.24Z"/><path class="cls-2" d="M441.78,743.33a10,10,0,0,1,7.37,2.73,9.72,9.72,0,0,1,3.25,7.09,10.27,10.27,0,0,1-20.54.67,9.77,9.77,0,0,1,2.74-7.3A9.94,9.94,0,0,1,441.78,743.33Zm-.52,2.15a3.65,3.65,0,0,0-3.24,2.17,9.76,9.76,0,0,0-1,5,13.23,13.23,0,0,0,1.68,6.34,4.52,4.52,0,0,0,4.19,2.59,3.7,3.7,0,0,0,3.26-2.19,9.64,9.64,0,0,0,1-4.94,15.58,15.58,0,0,0-.73-4.36,8,8,0,0,0-2-3.32A4.21,4.21,0,0,0,441.26,745.48Z"/><path class="cls-2" d="M474,745.32q-.89.57-2.81,2.13a32,32,0,0,0-3.5,3.29q1.36,1.36,3.43,3.57t3.43,3.61a21.55,21.55,0,0,0,1.87,1.8,5.74,5.74,0,0,0,1.77.85,5.54,5.54,0,0,0,1.53.31c.12,0,.19.25.21.76a2.66,2.66,0,0,1,0,.64l-5.31-.05q-.86,0-1.74.1l-1.95.18-1.7.17a1.23,1.23,0,0,1-.21-.81c0-.42,0-.64.16-.64a3.24,3.24,0,0,0,1-.24c.39-.15.58-.3.58-.45s0-.09,0-.09l-6.86-7.17-.54.15.09,2.81a18.52,18.52,0,0,0,.5,4.07q.1.31,1.25.62a6.63,6.63,0,0,0,1.6.29c.09,0,.15.21.18.65a2.58,2.58,0,0,1,0,.89q-.32,0-2.41-.1t-3.13,0q-1.09,0-3.15.24t-2.42.26a1.33,1.33,0,0,1-.21-.86q0-.68.16-.68a6.33,6.33,0,0,0,1.64-.39q1.1-.37,1.18-.7a14.85,14.85,0,0,0,.21-3.32l-.61-18.81a17.85,17.85,0,0,0-.33-3.08q-.25-.72-2.38-.65h-.41q-.27,0-.3-.72t.25-.73q1.4-.18,2.66-.45t2.09-.52q.83-.25,1.44-.5l1.28-.5h.09a.49.49,0,0,1,.37.24,1.25,1.25,0,0,1,.24.47,14.62,14.62,0,0,0-.41,4.28l.49,15.14a4.1,4.1,0,0,0,1.34-.54q.92-.89,2-1.86l1.57-1.39q.48-.42,1-.92a4,4,0,0,0,.63-.77,1.08,1.08,0,0,0,.14-.55q0-.5-1-.58a4.48,4.48,0,0,1-1-.12,2,2,0,0,1-.16-.79c0-.32,0-.49.16-.53l4.4-.14q1.22,0,4.8-.34a.71.71,0,0,1,.24.49,2,2,0,0,1,0,.68c0,.21-.1.32-.19.32A6,6,0,0,0,474,745.32Z"/><path class="cls-2" d="M504,741.31a9.22,9.22,0,0,1,5.1,1.26,9.53,9.53,0,0,1,3.52,3.52,9.67,9.67,0,0,1,1.3,4.52,10.35,10.35,0,0,1-2.9,7.7,10,10,0,0,1-7.17,3.39,14.21,14.21,0,0,1-3.32-.23,10,10,0,0,0-2.14-.27,3.43,3.43,0,0,0-1.17.36,4.53,4.53,0,0,1-.9.35,2.2,2.2,0,0,1-.67-.25c-.35-.17-.53-.32-.54-.44s0-.36.06-.82.1-1.11.16-2a25.91,25.91,0,0,0,0-2.77l-.6-18.5a15.86,15.86,0,0,0-.37-3.07q-.25-.72-2.38-.65h-.41q-.27,0-.3-.72t.25-.73q1.4-.18,2.66-.45t2.09-.52q.83-.25,1.44-.5L499,730h.09a.49.49,0,0,1,.37.24,1.25,1.25,0,0,1,.24.47,15.88,15.88,0,0,0-.36,4.28l.24,7.25v.25a1.33,1.33,0,0,0,0,.2c0,.09,0,.14.1.13a.36.36,0,0,0,.16-.05,8.31,8.31,0,0,1,1.81-1A6.5,6.5,0,0,1,504,741.31Zm-.92,2.48a3.52,3.52,0,0,0-2.42.94,2.67,2.67,0,0,0-.89,2.07l.31,9.61a2.72,2.72,0,0,0,1.28,2.36,4.92,4.92,0,0,0,2.86.72,3.85,3.85,0,0,0,3.49-2.25,10.38,10.38,0,0,0,1-5.21,11.66,11.66,0,0,0-1.6-6.12A4.45,4.45,0,0,0,503.05,743.79Z"/><path class="cls-2" d="M521.54,741.19q1,0,2.85-.23t2.31-.21a3,3,0,0,1,.12.81c0,.42,0,.64-.16.64a4.94,4.94,0,0,0-1.42.39q-1,.37-1,.78v.27q.11.72,4.55,10.2.34-.83,1.62-4.52t1.5-4.25a4.26,4.26,0,0,0,.23-1.41,1.43,1.43,0,0,0-.76-1.09,3.73,3.73,0,0,0-2.19-.45q-.18,0-.2-.67a1.14,1.14,0,0,1,.16-.78q.54,0,2.23.06t2.77,0q1,0,2.33-.21t2-.2a1.29,1.29,0,0,1,.21.72q0,.73-.16.73a5.77,5.77,0,0,0-1.82.51,2.5,2.5,0,0,0-1.52,1.41l-7.65,20.31q-2.6,6.71-6.54,6.84a2.46,2.46,0,0,1-1.83-.58,2.12,2.12,0,0,1,.12-3.23q4.71-.15,6.09-3.92,1-2.76,1.12-3.12l-7.12-15.2a6,6,0,0,0-.58-1,2.73,2.73,0,0,0-1.37-1,4.28,4.28,0,0,0-1.48-.29c-.12,0-.19-.21-.2-.63s0-.76.11-.82,1,0,2.43.06S520.81,741.22,521.54,741.19Z"/><path class="cls-2" d="M554.76,753.23l-.56-17.13a14.36,14.36,0,0,0-.44-3.71q-.15-.49-1.3-.78a7.16,7.16,0,0,0-1.82-.26q-.18,0-.2-.67a1.24,1.24,0,0,1,.15-.82q3,0,6-.06,2.31-.07,3.9-.15l2.72-.11a13.4,13.4,0,0,1,3.28.3,13.54,13.54,0,0,1,3.21,1.14,6.69,6.69,0,0,1,2.59,2.34,6.88,6.88,0,0,1,1.09,3.64,5.31,5.31,0,0,1-.85,3.07,7.35,7.35,0,0,1-1.73,2,7.51,7.51,0,0,1-1.4.84q-.36.15-.17.28a7.34,7.34,0,0,1,3.82,2.26,7.14,7.14,0,0,1,2.23,5.12,7.32,7.32,0,0,1-2.95,6.31,13.63,13.63,0,0,1-8.29,2.54l-6.44.16-6,.38a1.18,1.18,0,0,1-.16-.72q0-.77.11-.77a7.53,7.53,0,0,0,1.71-.35q1.12-.33,1.29-.75A16.42,16.42,0,0,0,554.76,753.23Zm10-11q3.28-.83,3.17-4.55-.2-6.12-5.41-6a12.1,12.1,0,0,0-2.89.32.46.46,0,0,0-.35.51l.05,4.35.17,5.3q0,.45,2.73.37A9,9,0,0,0,564.8,742.24Zm5,9a7.11,7.11,0,0,0-1.76-4.73q-1.67-1.83-5.25-1.71a18.92,18.92,0,0,0-2.8.32,1,1,0,0,0-.33.92l.27,8.43q.06,1.9.62,2.34a5.67,5.67,0,0,0,2.92.36,9.31,9.31,0,0,0,1.94-.27,9.77,9.77,0,0,0,2-.79,4.08,4.08,0,0,0,1.76-1.83A6.05,6.05,0,0,0,569.81,751.25Z"/><path class="cls-2" d="M586.37,752.25a16.69,16.69,0,0,0,.5,4.07q.1.31,1.25.62a6.7,6.7,0,0,0,1.55.29c.12,0,.2.21.23.65a2.59,2.59,0,0,1,0,.89q-.32,0-2.43-.1t-3.11,0q-1.13,0-3.19.24t-2.37.26a1.33,1.33,0,0,1-.21-.86q0-.68.16-.68a6.59,6.59,0,0,0,1.62-.39q1.12-.38,1.2-.7a14.83,14.83,0,0,0,.21-3.32l-.24-7.39a4.31,4.31,0,0,0-.82-2.88,2.53,2.53,0,0,0-1.06-.65,4.83,4.83,0,0,0-1.1-.24c-.3,0-.46-.06-.46-.12,0-.87,0-1.33.23-1.37a34.92,34.92,0,0,0,3.65-.66,35.56,35.56,0,0,0,3.55-.93l.36-.1q.23,0,.37.3a.84.84,0,0,1,.11.5,39,39,0,0,0-.24,3.91ZM581,733.43a2.77,2.77,0,0,1-.88-2,2.69,2.69,0,0,1,.75-2,2.85,2.85,0,0,1,4-.13,2.68,2.68,0,0,1,.88,1.95,2.76,2.76,0,0,1-.75,2,2.8,2.8,0,0,1-4,.13Z"/><path class="cls-2" d="M600.25,751.71a18.58,18.58,0,0,0,.45,4.07q.1.31,1.13.67a5,5,0,0,0,1.4.34c.09,0,.15.21.18.63a2.46,2.46,0,0,1,0,.86l-1.7-.06-1.93-.05q-.86,0-1.63,0t-1.72.1l-1.9.17-1.72.17a1.28,1.28,0,0,1-.21-.83c0-.44,0-.66.16-.66a4.86,4.86,0,0,0,1.51-.44q1-.42,1.09-.74a15,15,0,0,0,.25-3.37L595,733.73a15.82,15.82,0,0,0-.37-3.07q-.25-.72-2.29-.65h-.45q-.27,0-.29-.54,0-.73.25-.73,1.4-.18,2.66-.45t2.09-.52q.83-.25,1.44-.48l1-.37.31-.15h.09q.18,0,.39.26a1.4,1.4,0,0,1,.26.44,14.33,14.33,0,0,0-.41,4.28Z"/><path class="cls-2" d="M618.14,737.65a9.17,9.17,0,0,1,5.22,1.33,9.5,9.5,0,0,1,4.7,7.92A10.61,10.61,0,0,1,617.76,758a10.51,10.51,0,0,1-3.24-.53q-.18,0-.16.64l.1,3.08a16.37,16.37,0,0,0,.5,4.07q.06.36,1.22.66a7,7,0,0,0,1.57.29q.14,0,.18.65a4.06,4.06,0,0,1,0,.84q-.32,0-2.43-.06t-3.11,0q-1.13,0-3.19.24t-2.42.21a1.64,1.64,0,0,1-.16-.83q0-.66.11-.66a6.35,6.35,0,0,0,1.64-.39q1.1-.37,1.22-.74a16.45,16.45,0,0,0,.17-3.27l-.56-17.32a4.4,4.4,0,0,0-.82-2.92,2,2,0,0,0-1-.62,5.46,5.46,0,0,0-1.1-.21c-.3,0-.46-.06-.46-.12,0-.87,0-1.33.23-1.37a34.94,34.94,0,0,0,6.71-1.49l.85-.25c.12,0,.19.31.21.95a2.51,2.51,0,0,1-.07.55,9.06,9.06,0,0,1,2-1.13A6.53,6.53,0,0,1,618.14,737.65Zm-1,2.44a3.43,3.43,0,0,0-2.4.94,3,3,0,0,0-.85,2.34l.3,9.34a2.79,2.79,0,0,0,1.3,2.34,4.41,4.41,0,0,0,2.66.8,4.26,4.26,0,0,0,3.45-2,8.76,8.76,0,0,0,1.25-5.39,11.72,11.72,0,0,0-1.65-6.05A4.46,4.46,0,0,0,617.13,740.09Z"/><path class="cls-2" d="M645.53,736.72q5.8-.19,6.09,8.74l.15,4.67a16.66,16.66,0,0,0,.5,4.07q.05.32,1.22.62a6.94,6.94,0,0,0,1.58.29c.09,0,.15.22.18.65a4.78,4.78,0,0,1,0,.89q-.32,0-2.43-.1t-3.11,0q-1.13,0-3.06.24l-2.37.26a1.69,1.69,0,0,1-.16-.86c0-.45,0-.68.11-.68a5.42,5.42,0,0,0,1.55-.39q1-.37,1.13-.69a17.16,17.16,0,0,0,.17-3.32l-.14-4.44q-.12-3.76-1.19-5.16a3.71,3.71,0,0,0-3.29-1.32A4.34,4.34,0,0,0,640,741a2.14,2.14,0,0,0-1.08,1.76l.25,7.8a16.67,16.67,0,0,0,.49,4.07q.1.31,1.22.62a6.45,6.45,0,0,0,1.53.29c.09,0,.15.22.18.65a2.61,2.61,0,0,1,0,.89q-.37,0-2.39-.1t-3.06,0q-1.09,0-3.15.24t-2.42.26a1.33,1.33,0,0,1-.21-.86q0-.68.16-.68a6.32,6.32,0,0,0,1.64-.39q1.1-.38,1.18-.7a14.56,14.56,0,0,0,.21-3.27l-.61-18.86a18,18,0,0,0-.33-3.08q-.25-.72-2.38-.65h-.41q-.27,0-.3-.72t.25-.73q1.4-.18,2.66-.45t2.09-.52q.83-.25,1.44-.5l1.28-.5h.09a.49.49,0,0,1,.37.24,1.25,1.25,0,0,1,.24.47,14.63,14.63,0,0,0-.41,4.28l.3,9.16c0,.18.07.27.19.27s.09,0,.18-.14a8.64,8.64,0,0,1,2.72-2.06A8.37,8.37,0,0,1,645.53,736.72Z"/><path class="cls-2" d="M666.67,736a8.41,8.41,0,0,1,3.84.71,7.2,7.2,0,0,1,2.7,2,10.56,10.56,0,0,1,1.54,2.63,7.82,7.82,0,0,1,.58,2.64q0,1-.3,1.26a2.6,2.6,0,0,1-1.37.29l-10.83.35q-.32,0-.31.28a8.82,8.82,0,0,0,.69,3.15,6.24,6.24,0,0,0,2.1,2.61,5.34,5.34,0,0,0,3.46,1,12.45,12.45,0,0,0,1.31-.11,6.8,6.8,0,0,0,1.17-.26l.94-.33a3.89,3.89,0,0,0,.83-.43l.6-.41.89-.64a.75.75,0,0,1,.24.26.87.87,0,0,1,.15.45,1.4,1.4,0,0,1-.24.87A7.39,7.39,0,0,1,672,755a8.41,8.41,0,0,1-4.45,1.37,9.19,9.19,0,0,1-6.9-2.7,9.78,9.78,0,0,1-3.09-7,10.5,10.5,0,0,1,2.41-7.52A8.79,8.79,0,0,1,666.67,736Zm-.25,2.1a3.2,3.2,0,0,0-1.93.7,4.29,4.29,0,0,0-1.27,1.58,8.72,8.72,0,0,0-.6,1.72,5.56,5.56,0,0,0-.16,1.34q0,.32.28.31l7.34-.24q.41,0,.39-.69a5.88,5.88,0,0,0-1.17-3.18A3.25,3.25,0,0,0,666.42,738.13Z"/><path class="cls-2" d="M692.43,735.2q5.85-.19,6.15,9.1l.14,4.31a19,19,0,0,0,.45,4.07q.1.31,1.27.62a7,7,0,0,0,1.58.29c.09,0,.15.21.18.65a2.58,2.58,0,0,1,0,.89q-.27,0-2.39-.1t-3.16,0q-1.09,0-3,.23l-2.33.26a1.33,1.33,0,0,1-.21-.86q0-.68.16-.68a5.43,5.43,0,0,0,1.51-.39q1-.37,1.09-.69a13,13,0,0,0,.26-3.32l-.14-4.31q-.12-3.76-1.19-5.23a3.65,3.65,0,0,0-3.29-1.39,4.2,4.2,0,0,0-2.51.88,2.18,2.18,0,0,0-1,1.74l.25,7.8a19,19,0,0,0,.45,4.07q.1.31,1.22.62a6.52,6.52,0,0,0,1.48.29c.12,0,.2.21.23.65a2.59,2.59,0,0,1,0,.89q-.36,0-2.39-.1t-3.06,0q-1.09,0-3.15.24t-2.42.26a1.33,1.33,0,0,1-.21-.86q0-.68.16-.68a6.33,6.33,0,0,0,1.64-.39q1.1-.37,1.18-.7a14.81,14.81,0,0,0,.21-3.32l-.24-7.39a4.31,4.31,0,0,0-.82-2.88,2.19,2.19,0,0,0-1-.65,5.26,5.26,0,0,0-1.1-.24c-.29,0-.43-.06-.44-.12q0-1.31.18-1.37a64.53,64.53,0,0,0,7.25-1.6.29.29,0,0,1,.11-.07l.14,0h.11c.12,0,.23.1.33.31a1.38,1.38,0,0,1,.15.49A15.31,15.31,0,0,0,686,738a.36.36,0,0,0,.05.23.69.69,0,0,0,.22-.14,10.05,10.05,0,0,1,2.73-2A7.93,7.93,0,0,1,692.43,735.2Z"/><path class="cls-2" d="M714.07,734.5a5.57,5.57,0,0,1,4.26,1.34q1.45,1.43,1.57,5l.29,8.93a2.07,2.07,0,0,0,.45,1.37,1.36,1.36,0,0,0,1.1.44,2.83,2.83,0,0,0,1.52-.64q.27.08.29.49a2.7,2.7,0,0,1-.23,1.37,11.31,11.31,0,0,1-1.78,1.19,4.73,4.73,0,0,1-2.16.66,3.31,3.31,0,0,1-2.07-.71,3.72,3.72,0,0,1-1.37-1.63l-.33.3q-.29.26-.8.64a13.48,13.48,0,0,1-1.16.76,7.19,7.19,0,0,1-1.52.66,6.6,6.6,0,0,1-1.78.31,5.41,5.41,0,0,1-3.74-1.13,4.31,4.31,0,0,1-1.54-3.38,4.18,4.18,0,0,1,.46-2.06,5.43,5.43,0,0,1,1.2-1.6,9.32,9.32,0,0,1,1.91-1.26,18.49,18.49,0,0,1,2.08-1q.87-.32,2.24-.78t1.91-.65a.71.71,0,0,0,.38-.74L715.2,740a3.89,3.89,0,0,0-.81-2.47,2.37,2.37,0,0,0-2-.84,2.75,2.75,0,0,0-2.1.91,3.39,3.39,0,0,0-.69,2.41,1.47,1.47,0,0,1-.64,1.36,2.81,2.81,0,0,1-1.53.48,2.56,2.56,0,0,1-2.39-1q-.07-2.18,2.84-4.18A11.38,11.38,0,0,1,714.07,734.5ZM712.59,752a3.52,3.52,0,0,0,2.09-.7,1.79,1.79,0,0,0,.84-1.48l-.15-4.62q-.31.15-1.32.5c-.67.23-1.19.43-1.55.59a12.22,12.22,0,0,0-1.25.68,2.74,2.74,0,0,0-1,1,2.49,2.49,0,0,0-.3,1.28,2.8,2.8,0,0,0,.79,2.11A2.61,2.61,0,0,0,712.59,752Z"/><path class="cls-2" d="M741,723.91q.82,0,6.25-.47a2.09,2.09,0,0,1,.09.81c0,.42,0,.64-.14.64a5,5,0,0,0-1.62.37q-.9.35-.88,1a2.86,2.86,0,0,0,.45,1.17l5.09,8.64q.23.22.45-.11,1.85-3,3.57-6.11t1.69-4q0-.5-.87-.86a5.31,5.31,0,0,0-2.21-.31q-.18,0-.2-.63a1.57,1.57,0,0,1,.11-.82q4.59.12,5.45.1,1,0,1.88-.11l1.72-.17,1.38-.16a3,3,0,0,1,.11.72c0,.48,0,.73-.16.73a6.29,6.29,0,0,0-1.87.47,3.69,3.69,0,0,0-1.71,1.14q-1.25,2-4.47,7.61t-3.2,6.21l.23,7.07a17.36,17.36,0,0,0,.49,4.07q.1.31,1.27.66a6.38,6.38,0,0,0,1.53.34q.18,0,.2.72a2.39,2.39,0,0,1-.07.73l-1.73-.08q-1.14-.05-2.09-.07c-.64,0-1.26,0-1.86,0q-1.22,0-3.33.24l-2.6.27a1.05,1.05,0,0,1-.21-.72c0-.48,0-.73.11-.73a6.2,6.2,0,0,0,1.67-.42q1.12-.4,1.25-.77a16.17,16.17,0,0,0,.23-4l-.22-6.71a2.84,2.84,0,0,0-.32-.87q-.32-.65-1.08-2L744,735.32l-1.87-3.09-1.92-3.16a8.82,8.82,0,0,0-2.46-3.05,4.58,4.58,0,0,0-1.36-.52,5.49,5.49,0,0,0-1.3-.21q-.14,0-.17-.45a1.39,1.39,0,0,1,0-.64Q736.08,724.07,741,723.91Z"/><path class="cls-2" d="M775.21,732.51a5.57,5.57,0,0,1,4.26,1.34q1.45,1.43,1.57,5l.29,8.93a2.07,2.07,0,0,0,.45,1.37,1.36,1.36,0,0,0,1.1.44,2.83,2.83,0,0,0,1.52-.64q.27.08.29.49a2.7,2.7,0,0,1-.23,1.37,11.26,11.26,0,0,1-1.78,1.19,4.72,4.72,0,0,1-2.16.66,3.31,3.31,0,0,1-2.07-.71,3.72,3.72,0,0,1-1.37-1.63l-.33.3q-.29.26-.8.64a13.64,13.64,0,0,1-1.16.76,7.21,7.21,0,0,1-1.52.66,6.6,6.6,0,0,1-1.78.31,5.42,5.42,0,0,1-3.74-1.13,4.31,4.31,0,0,1-1.54-3.38,4.18,4.18,0,0,1,.46-2.06,5.41,5.41,0,0,1,1.2-1.6,9.33,9.33,0,0,1,1.91-1.26,18.6,18.6,0,0,1,2.08-1q.87-.32,2.24-.78t1.91-.65a.71.71,0,0,0,.38-.74l-.08-2.49a3.9,3.9,0,0,0-.81-2.47,2.36,2.36,0,0,0-2-.84,2.75,2.75,0,0,0-2.1.91,3.39,3.39,0,0,0-.69,2.41,1.47,1.47,0,0,1-.64,1.36,2.81,2.81,0,0,1-1.53.48,2.56,2.56,0,0,1-2.39-1q-.07-2.18,2.84-4.18A11.38,11.38,0,0,1,775.21,732.51ZM773.73,750a3.52,3.52,0,0,0,2.09-.7,1.79,1.79,0,0,0,.84-1.48l-.15-4.62q-.31.15-1.32.5c-.67.23-1.19.43-1.55.59a12.22,12.22,0,0,0-1.25.68,2.74,2.74,0,0,0-1,1,2.49,2.49,0,0,0-.3,1.28,2.8,2.8,0,0,0,.79,2.11A2.61,2.61,0,0,0,773.73,750Z"/><path class="cls-2" d="M801.47,731.66q5.8-.19,6.09,8.74l.15,4.67a16.69,16.69,0,0,0,.5,4.07q.05.32,1.22.62a7,7,0,0,0,1.58.29c.09,0,.15.21.18.65a4.75,4.75,0,0,1,0,.88q-.32,0-2.43-.1t-3.11,0q-1.13,0-3.06.24l-2.37.26a1.7,1.7,0,0,1-.16-.86q0-.68.11-.68a5.45,5.45,0,0,0,1.55-.39q1-.37,1.13-.7A17.2,17.2,0,0,0,803,746l-.14-4.44q-.12-3.76-1.19-5.16a3.72,3.72,0,0,0-3.29-1.32,4.34,4.34,0,0,0-2.47.85,2.14,2.14,0,0,0-1.08,1.76l.25,7.8a16.67,16.67,0,0,0,.49,4.07q.1.31,1.22.62a6.41,6.41,0,0,0,1.53.29c.09,0,.15.21.18.65a2.61,2.61,0,0,1,0,.89q-.36,0-2.39-.1t-3.06,0q-1.09,0-3.15.24t-2.42.26a1.33,1.33,0,0,1-.21-.86q0-.68.16-.68a6.36,6.36,0,0,0,1.64-.39q1.1-.38,1.18-.7a14.6,14.6,0,0,0,.21-3.27l-.61-18.86a17.93,17.93,0,0,0-.33-3.07q-.25-.72-2.38-.65h-.41q-.27,0-.3-.72t.25-.73q1.4-.18,2.66-.45t2.09-.52q.83-.25,1.44-.5l1.28-.5h.09a.49.49,0,0,1,.37.24,1.26,1.26,0,0,1,.24.47,14.61,14.61,0,0,0-.41,4.28l.3,9.16c0,.18.07.27.19.27s.09,0,.18-.14a8.64,8.64,0,0,1,2.72-2.06A8.38,8.38,0,0,1,801.47,731.66Z"/><path class="cls-2" d="M841.85,733.8a1.31,1.31,0,0,0-.39-.92,2,2,0,0,0-.95-.51,8.38,8.38,0,0,0-1-.19,6.72,6.72,0,0,0-.93,0h-.18q-.18,0-.23-.67c0-.45,0-.73.09-.82q.59,0,2.41.06t2.91,0q1,0,2.42-.21t2.15-.21a2.83,2.83,0,0,1,.12.77q0,.68-.16.69a5.18,5.18,0,0,0-1.77.62,2.78,2.78,0,0,0-1.52,1.43l-6.19,16.22a1.79,1.79,0,0,1-.59.68,1.55,1.55,0,0,1-.87.32.57.57,0,0,1-.6-.3l-5.94-12.33-4.47,12a2.47,2.47,0,0,1-.5.65,1.37,1.37,0,0,1-1,.4.67.67,0,0,1-.65-.3q-1.12-2.32-2.66-5.66t-2.8-5.88q-1.26-2.55-2.9-5.53a2.08,2.08,0,0,0-1.21-.87A4.37,4.37,0,0,0,813,733c-.12,0-.19-.24-.2-.72s0-.68.16-.78q.45,0,2.29.06t2.88,0q1,0,3.08-.23t2.35-.21a2.48,2.48,0,0,1,.12.81q0,.59-.12.64A5.37,5.37,0,0,0,822,733c-.64.23-1,.56-.94,1q0,.09,4.87,10.28.46-1.29,1.06-2.92l.92-2.48q.31-.85.63-1.72t.43-1.31a2.5,2.5,0,0,0,.12-.57,3.31,3.31,0,0,0-.65-1.79,2.15,2.15,0,0,0-1-.69,3.61,3.61,0,0,0-1.64-.22c-.12,0-.19-.21-.2-.65s0-.7.16-.8q.5,0,2.25.06t2.84,0q1,0,2.94-.23t2.31-.21a2.18,2.18,0,0,1,.1.84c0,.44,0,.66-.14.66q-2.31.07-2.26,1.66,0,.86,4.59,9.93.66-1.93,1.65-4.52t1.44-3.86A6.11,6.11,0,0,0,841.85,733.8Z"/><path class="cls-2" d="M861,729.73a10,10,0,0,1,7.37,2.73,9.72,9.72,0,0,1,3.25,7.09,10.27,10.27,0,0,1-20.54.67,9.77,9.77,0,0,1,2.74-7.3A9.93,9.93,0,0,1,861,729.73Zm-.52,2.15a3.65,3.65,0,0,0-3.24,2.17,9.77,9.77,0,0,0-1,5,13.22,13.22,0,0,0,1.68,6.34,4.52,4.52,0,0,0,4.19,2.59,3.7,3.7,0,0,0,3.26-2.19,9.65,9.65,0,0,0,1-4.94,15.6,15.6,0,0,0-.73-4.36,8,8,0,0,0-2-3.31A4.2,4.2,0,0,0,860.45,731.89Z"/><path class="cls-2" d="M889,728.83q5.85-.19,6.15,9.1l.14,4.31a19,19,0,0,0,.45,4.07q.1.31,1.27.62a7,7,0,0,0,1.58.29c.09,0,.15.22.18.65a2.58,2.58,0,0,1,0,.89q-.27,0-2.39-.1t-3.16,0q-1.09,0-3,.23l-2.33.26a1.33,1.33,0,0,1-.21-.86q0-.68.16-.68a5.39,5.39,0,0,0,1.51-.39q1-.37,1.09-.69a13,13,0,0,0,.26-3.32l-.14-4.31q-.12-3.76-1.19-5.23a3.65,3.65,0,0,0-3.29-1.39,4.2,4.2,0,0,0-2.51.88,2.18,2.18,0,0,0-1,1.74l.25,7.8a19,19,0,0,0,.45,4.07q.1.31,1.22.62a6.58,6.58,0,0,0,1.48.29c.12,0,.2.21.23.65a2.58,2.58,0,0,1,0,.89q-.37,0-2.39-.1t-3.06,0q-1.09,0-3.15.24t-2.42.26a1.33,1.33,0,0,1-.21-.86q0-.68.16-.68a6.33,6.33,0,0,0,1.64-.39q1.1-.37,1.18-.7a14.86,14.86,0,0,0,.21-3.32l-.24-7.39a4.31,4.31,0,0,0-.82-2.88,2.19,2.19,0,0,0-1-.65,5.13,5.13,0,0,0-1.1-.24c-.29,0-.43-.06-.43-.12q0-1.31.18-1.37a64.62,64.62,0,0,0,7.25-1.6.3.3,0,0,1,.11-.07l.14,0h.11c.12,0,.23.1.33.31a1.38,1.38,0,0,1,.15.49,15.26,15.26,0,0,0-.13,1.64.36.36,0,0,0,.05.23.69.69,0,0,0,.22-.14,10,10,0,0,1,2.73-2A7.94,7.94,0,0,1,889,728.83Z"/><path class="cls-2" d="M659.23,788.12a8.44,8.44,0,0,1,5.24,1.28,4.63,4.63,0,0,1,2.05,3.84A6.84,6.84,0,0,1,665,798a20.65,20.65,0,0,1-4.75,4,65.75,65.75,0,0,0,6.16,7.88q2.38-3.53,2.35-4.34a.6.6,0,0,0-.45-.6,3.26,3.26,0,0,0-1-.15h-.61a1.63,1.63,0,0,1-.16-.72q0-.45.12-.55l4.17-.14q.86,0,5-.34.23.13.25.72t-.29.83a7.49,7.49,0,0,0-1.58.3,4.59,4.59,0,0,0-1.48.61,5.92,5.92,0,0,0-.91,1.19q-.74,1.09-1.82,2.64t-1.87,2.53a7,7,0,0,0,.59.62l.68.66.61.55a4,4,0,0,0,.7.52,4.62,4.62,0,0,0,.62.27,1.77,1.77,0,0,0,.66.11,2.29,2.29,0,0,0,1.54-.82,5.55,5.55,0,0,0,1.07-1.44,1.29,1.29,0,0,1,.78.29q.42.3.43.58a6.45,6.45,0,0,1-.49.92,15.86,15.86,0,0,1-1,1.42,5.93,5.93,0,0,1-1.68,1.44,4.57,4.57,0,0,1-2.22.66,5.48,5.48,0,0,1-2.7-.64,7.21,7.21,0,0,1-2-1.39l-.66-.71a11.47,11.47,0,0,1-7.7,3.25,10.26,10.26,0,0,1-6.43-1.7,6.52,6.52,0,0,1-2.7-5.45,7.09,7.09,0,0,1,.52-3,7.5,7.5,0,0,1,1.71-2.51,21.44,21.44,0,0,1,2.12-1.86,26,26,0,0,1,2.44-1.6,6.43,6.43,0,0,1-.38-.58l-.41-.64-.36-.6-.38-.67q-.1-.18-.34-.67a5,5,0,0,1-.32-.76q-.08-.27-.25-.72a4,4,0,0,1-.23-.79c0-.23-.08-.48-.12-.77a8.43,8.43,0,0,1-.07-.88,6,6,0,0,1,2-4.87A7.75,7.75,0,0,1,659.23,788.12Zm4.13,25.19a32.66,32.66,0,0,1-2.71-3.22q-1.73-2.26-3-4l-1.24-1.73a9.35,9.35,0,0,0-2.44,2.55,6.37,6.37,0,0,0-.77,3.59,5.16,5.16,0,0,0,1.67,4,5.55,5.55,0,0,0,3.85,1.24,5.62,5.62,0,0,0,2.54-.74A6.75,6.75,0,0,0,663.36,813.31Zm-4-23.2a2.72,2.72,0,0,0-2.23,1.12,3.93,3.93,0,0,0-.73,2.52q.07,2.18,2.47,6.18a10.72,10.72,0,0,0,2.89-2.61,5.62,5.62,0,0,0,.82-3.45,4.54,4.54,0,0,0-.92-2.62A2.61,2.61,0,0,0,659.39,790.11Z"/><path class="cls-2" d="M713.63,792.39a11,11,0,0,0-.57-3.61q-.24-.54-1.55-.81a9.09,9.09,0,0,0-2-.25q-.18,0-.23-.65a1.54,1.54,0,0,1,.09-.84q4.86.16,5.72.13,1.18,0,3-.26t2.31-.23a1.89,1.89,0,0,1,.11.72c0,.51,0,.77-.16.78a8.65,8.65,0,0,0-1.94.4,3,3,0,0,0-1.69,1,10.6,10.6,0,0,0-.38,3.78l.56,17.18q.05,1.63.39,6.34a1.65,1.65,0,0,1-1,.21q-.73,0-1.48-1L696,791.92l.6,18.36a12.58,12.58,0,0,0,.48,3.71q.24.54,1.71.88a9.46,9.46,0,0,0,2.05.32c.09,0,.15.21.18.63a2.45,2.45,0,0,1,0,.86l-5.68-.09q-1.22,0-3,.21l-2.37.24a1.14,1.14,0,0,1-.21-.76q0-.73.16-.73a8.63,8.63,0,0,0,2.05-.41,2.47,2.47,0,0,0,1.62-1.07,10.37,10.37,0,0,0,.33-3.82l-.58-17.77a7.4,7.4,0,0,0-.61-3.29q-.19-.31-1.58-.54a11.9,11.9,0,0,0-2-.21q-.18,0-.23-.67a1.27,1.27,0,0,1,.13-.87q4.77.07,5.4.05,1.5,0,4.07-.36a47,47,0,0,0,3.31,4.72q2.39,3.12,6.55,8.23t5.68,7.05a13.13,13.13,0,0,0,0-1.86Z"/><path class="cls-2" d="M738.51,795.26q5.85-.19,6.15,9.1l.14,4.31a19,19,0,0,0,.45,4.07q.1.31,1.27.62a7,7,0,0,0,1.58.29q.14,0,.18.65a2.58,2.58,0,0,1,0,.89q-.27,0-2.39-.1t-3.16,0q-1.09,0-3,.23l-2.33.26a1.33,1.33,0,0,1-.21-.86c0-.45,0-.68.16-.68a5.43,5.43,0,0,0,1.51-.39q1-.37,1.09-.69a13,13,0,0,0,.26-3.32l-.14-4.31q-.12-3.76-1.19-5.23a3.65,3.65,0,0,0-3.29-1.39,4.21,4.21,0,0,0-2.51.88,2.18,2.18,0,0,0-1,1.74l.25,7.8a19,19,0,0,0,.45,4.07q.1.31,1.22.62a6.55,6.55,0,0,0,1.48.29c.12,0,.2.21.23.65a2.59,2.59,0,0,1,0,.89q-.36,0-2.39-.1t-3.06,0q-1.09,0-3.15.24t-2.42.26a1.33,1.33,0,0,1-.21-.86c0-.45,0-.68.16-.68a6.37,6.37,0,0,0,1.64-.39q1.1-.38,1.18-.7a14.81,14.81,0,0,0,.21-3.32l-.24-7.39a4.32,4.32,0,0,0-.82-2.88,2.21,2.21,0,0,0-1-.65,5.26,5.26,0,0,0-1.1-.24c-.29,0-.43-.06-.44-.12q0-1.31.18-1.37a64.37,64.37,0,0,0,7.25-1.6.3.3,0,0,1,.11-.07l.14,0h.11c.12,0,.23.1.33.31a1.38,1.38,0,0,1,.15.5,15.31,15.31,0,0,0-.13,1.64.35.35,0,0,0,.05.22.68.68,0,0,0,.22-.14,10,10,0,0,1,2.73-2A7.93,7.93,0,0,1,738.51,795.26Z"/><path class="cls-2" d="M759.92,794.57a8.4,8.4,0,0,1,3.84.71,7.19,7.19,0,0,1,2.7,2A10.51,10.51,0,0,1,768,800a7.82,7.82,0,0,1,.58,2.64q0,1-.3,1.26a2.58,2.58,0,0,1-1.37.29l-10.83.35c-.21,0-.31.1-.31.28a8.81,8.81,0,0,0,.69,3.15,6.24,6.24,0,0,0,2.1,2.61,5.34,5.34,0,0,0,3.46,1,12.22,12.22,0,0,0,1.31-.11,6.8,6.8,0,0,0,1.17-.26l.94-.33a3.91,3.91,0,0,0,.83-.44l.6-.41.89-.64a.74.74,0,0,1,.24.27.88.88,0,0,1,.15.45,1.4,1.4,0,0,1-.24.87,7.4,7.4,0,0,1-2.6,2.53,8.41,8.41,0,0,1-4.45,1.37,9.18,9.18,0,0,1-6.9-2.7,9.78,9.78,0,0,1-3.09-7,10.5,10.5,0,0,1,2.41-7.52A8.79,8.79,0,0,1,759.92,794.57Zm-.25,2.09a3.2,3.2,0,0,0-1.93.7,4.28,4.28,0,0,0-1.26,1.58,8.73,8.73,0,0,0-.6,1.72,5.57,5.57,0,0,0-.16,1.35c0,.21.1.31.28.31l7.34-.24c.27,0,.4-.24.39-.69a5.88,5.88,0,0,0-1.17-3.18A3.25,3.25,0,0,0,759.67,796.66Z"/><path class="cls-2" d="M785.68,793.73q5.85-.19,6.15,9.1l.14,4.31a19,19,0,0,0,.45,4.07q.1.31,1.27.62a7,7,0,0,0,1.57.29c.09,0,.15.21.18.65a2.58,2.58,0,0,1,0,.89q-.27,0-2.39-.1t-3.16,0q-1.09,0-3,.23l-2.33.26a1.33,1.33,0,0,1-.21-.86c0-.45,0-.68.16-.68a5.42,5.42,0,0,0,1.51-.39q1-.37,1.09-.69a13,13,0,0,0,.26-3.32l-.14-4.31q-.12-3.76-1.19-5.23a3.65,3.65,0,0,0-3.29-1.39,4.21,4.21,0,0,0-2.51.88,2.18,2.18,0,0,0-1,1.74l.25,7.8a19,19,0,0,0,.45,4.07q.1.31,1.22.62a6.52,6.52,0,0,0,1.48.29q.18,0,.23.65a2.58,2.58,0,0,1,0,.89q-.36,0-2.39-.1t-3.06,0q-1.09,0-3.15.24t-2.42.26a1.33,1.33,0,0,1-.21-.86c0-.45,0-.68.16-.68a6.36,6.36,0,0,0,1.64-.39q1.1-.38,1.18-.7a14.84,14.84,0,0,0,.21-3.32l-.24-7.39a4.31,4.31,0,0,0-.82-2.88,2.2,2.2,0,0,0-1-.65,5.26,5.26,0,0,0-1.1-.24c-.29,0-.43-.06-.44-.12q0-1.31.18-1.37a64.37,64.37,0,0,0,7.25-1.6.3.3,0,0,1,.11-.07l.13,0h.11c.12,0,.23.1.33.31a1.38,1.38,0,0,1,.15.5,15.39,15.39,0,0,0-.13,1.64.35.35,0,0,0,.05.22.68.68,0,0,0,.22-.14,10.05,10.05,0,0,1,2.73-2A7.93,7.93,0,0,1,785.68,793.73Z"/><path class="cls-2" d="M812.62,792.86q5.85-.19,6.15,9.1l.14,4.31a19,19,0,0,0,.45,4.07q.1.31,1.27.62a7,7,0,0,0,1.57.29c.09,0,.15.21.18.65a2.58,2.58,0,0,1,0,.89q-.27,0-2.39-.1t-3.16,0q-1.09,0-3,.23l-2.33.26a1.33,1.33,0,0,1-.21-.86c0-.45,0-.68.16-.68a5.4,5.4,0,0,0,1.51-.39q1-.37,1.09-.69a13,13,0,0,0,.26-3.32l-.14-4.31q-.12-3.76-1.19-5.23a3.65,3.65,0,0,0-3.29-1.39,4.21,4.21,0,0,0-2.51.88,2.18,2.18,0,0,0-1,1.74l.25,7.8a19,19,0,0,0,.45,4.07q.1.31,1.22.62a6.58,6.58,0,0,0,1.48.29q.18,0,.23.65a2.58,2.58,0,0,1,0,.89q-.36,0-2.39-.1t-3.06,0q-1.09,0-3.15.24t-2.42.26a1.33,1.33,0,0,1-.21-.86c0-.45,0-.68.16-.68a6.32,6.32,0,0,0,1.64-.39q1.1-.37,1.18-.7a14.83,14.83,0,0,0,.21-3.32l-.24-7.39a4.31,4.31,0,0,0-.82-2.88,2.2,2.2,0,0,0-1-.65,5.14,5.14,0,0,0-1.1-.24c-.29,0-.43-.06-.44-.12q0-1.31.18-1.37a64.21,64.21,0,0,0,7.25-1.6.29.29,0,0,1,.11-.07l.13,0h.11c.12,0,.23.1.33.31a1.37,1.37,0,0,1,.15.49,15.39,15.39,0,0,0-.13,1.64.36.36,0,0,0,.05.23.69.69,0,0,0,.22-.14,10,10,0,0,1,2.73-2A7.92,7.92,0,0,1,812.62,792.86Z"/><path class="cls-2" d="M834.25,792.16a5.57,5.57,0,0,1,4.26,1.34q1.45,1.43,1.57,5l.29,8.93a2.07,2.07,0,0,0,.45,1.37,1.36,1.36,0,0,0,1.1.44,2.83,2.83,0,0,0,1.52-.64c.18.06.28.22.29.49a2.7,2.7,0,0,1-.23,1.37,11.35,11.35,0,0,1-1.78,1.19,4.72,4.72,0,0,1-2.16.66,3.31,3.31,0,0,1-2.07-.71,3.72,3.72,0,0,1-1.37-1.63l-.33.3q-.29.26-.8.64a13.57,13.57,0,0,1-1.16.76,7.19,7.19,0,0,1-1.52.66,6.6,6.6,0,0,1-1.78.31,5.41,5.41,0,0,1-3.74-1.13,4.31,4.31,0,0,1-1.54-3.38,4.18,4.18,0,0,1,.46-2.06,5.42,5.42,0,0,1,1.2-1.6,9.3,9.3,0,0,1,1.91-1.26,18.85,18.85,0,0,1,2.08-1q.87-.32,2.24-.78t1.91-.65a.71.71,0,0,0,.38-.74l-.08-2.49a3.9,3.9,0,0,0-.81-2.47,2.37,2.37,0,0,0-2-.84,2.75,2.75,0,0,0-2.1.91,3.39,3.39,0,0,0-.69,2.41,1.47,1.47,0,0,1-.64,1.36,2.81,2.81,0,0,1-1.53.48,2.56,2.56,0,0,1-2.39-1q-.07-2.18,2.84-4.18A11.36,11.36,0,0,1,834.25,792.16Zm-1.48,17.47a3.52,3.52,0,0,0,2.09-.7,1.79,1.79,0,0,0,.84-1.48l-.15-4.62q-.31.15-1.32.5t-1.55.59a12.22,12.22,0,0,0-1.25.68,2.75,2.75,0,0,0-1,1,2.51,2.51,0,0,0-.3,1.28,2.8,2.8,0,0,0,.79,2.11A2.61,2.61,0,0,0,832.78,809.63Z"/><path class="cls-2" d="M850.55,792.08q1,0,2.85-.23t2.31-.21a3,3,0,0,1,.12.81c0,.42,0,.64-.16.64a5,5,0,0,0-1.42.39q-1,.37-1,.78v.27q.11.72,4.55,10.2.34-.83,1.62-4.52t1.5-4.25a4.27,4.27,0,0,0,.23-1.41,1.43,1.43,0,0,0-.76-1.09,3.74,3.74,0,0,0-2.19-.45q-.18,0-.2-.67a1.14,1.14,0,0,1,.16-.78q.54,0,2.23.06t2.77,0q1,0,2.33-.21t2-.2a1.29,1.29,0,0,1,.2.72q0,.73-.16.73a5.75,5.75,0,0,0-1.82.51,2.5,2.5,0,0,0-1.52,1.41l-7.65,20.31q-2.6,6.71-6.54,6.84a2.46,2.46,0,0,1-1.83-.58,2.12,2.12,0,0,1,.12-3.23q4.71-.15,6.09-3.92,1-2.76,1.12-3.12l-7.12-15.2a6,6,0,0,0-.58-1,2.73,2.73,0,0,0-1.37-1,4.3,4.3,0,0,0-1.48-.29c-.12,0-.19-.21-.2-.63s0-.76.11-.82,1,0,2.43.06S849.83,792.1,850.55,792.08Z"/><path class="cls-2" d="M879.43,790.69a5.57,5.57,0,0,1,4.26,1.34q1.45,1.43,1.57,5l.29,8.93a2.07,2.07,0,0,0,.45,1.37,1.36,1.36,0,0,0,1.1.44,2.83,2.83,0,0,0,1.52-.64c.18.06.28.22.29.49a2.7,2.7,0,0,1-.23,1.37,11.35,11.35,0,0,1-1.78,1.19,4.73,4.73,0,0,1-2.16.66,3.31,3.31,0,0,1-2.06-.71,3.72,3.72,0,0,1-1.37-1.63l-.33.3q-.29.26-.8.64a13.25,13.25,0,0,1-1.16.76,7.2,7.2,0,0,1-1.52.66,6.6,6.6,0,0,1-1.78.31,5.42,5.42,0,0,1-3.74-1.13,4.31,4.31,0,0,1-1.54-3.38,4.18,4.18,0,0,1,.45-2.06,5.44,5.44,0,0,1,1.2-1.6,9.29,9.29,0,0,1,1.91-1.26,18.45,18.45,0,0,1,2.08-1q.87-.32,2.24-.78t1.91-.65a.71.71,0,0,0,.38-.74l-.08-2.49a3.89,3.89,0,0,0-.81-2.47,2.37,2.37,0,0,0-2-.84,2.75,2.75,0,0,0-2.1.91,3.39,3.39,0,0,0-.69,2.41,1.47,1.47,0,0,1-.64,1.36,2.8,2.8,0,0,1-1.53.48,2.56,2.56,0,0,1-2.39-1q-.07-2.18,2.84-4.18A11.38,11.38,0,0,1,879.43,790.69ZM878,808.16a3.52,3.52,0,0,0,2.09-.7,1.79,1.79,0,0,0,.84-1.48l-.15-4.62q-.31.15-1.32.5t-1.55.59a12.27,12.27,0,0,0-1.25.68,2.74,2.74,0,0,0-1,1,2.5,2.5,0,0,0-.3,1.28,2.8,2.8,0,0,0,.79,2.11A2.61,2.61,0,0,0,878,808.16Z"/><path class="cls-2" d="M917,779.58,927.27,803q.74,1.79,1.47,3.27a2.21,2.21,0,0,0,1.49,1,6.06,6.06,0,0,0,1.74.35c.12,0,.19.26.21.81a1.53,1.53,0,0,1-.07.68l-5.72-.09-5.88.46a1.28,1.28,0,0,1-.21-.83q0-.66.16-.66a5.88,5.88,0,0,0,1.49-.32q.94-.3,1.11-.67a1.3,1.3,0,0,0,.12-.59,10.44,10.44,0,0,0-1-3.1l-1.72-4.16a.49.49,0,0,0-.32-.17q-1.45,0-3.9,0t-5.16.3c-.18,0-.27.07-.27.19l-1.59,4.27a12.88,12.88,0,0,0-.77,3,1,1,0,0,0,.53.89,4.53,4.53,0,0,0,1.44.45,7.64,7.64,0,0,0,1.39.18q.14,0,.16.63a3,3,0,0,1-.06.86q-.23,0-2.13-.07t-3.09,0q-1.18,0-2.78.2l-2.28.23a1,1,0,0,1-.2-.67c0-.54,0-.82.06-.82a6.59,6.59,0,0,0,1.73-.44,2.81,2.81,0,0,0,1.49-.93,21.48,21.48,0,0,0,1.61-3.59L914.1,783a9.89,9.89,0,0,1,1.57-3.32,1.16,1.16,0,0,1,.76-.34A.74.74,0,0,1,917,779.58Zm-4.89,17q1.59.08,3.27,0t3.71-.26l.08-.18-3.74-9L912,796.44C912,796.56,912,796.62,912.09,796.62Z"/><path class="cls-2" d="M949.46,788.42a4.91,4.91,0,0,1,3,.79,5.31,5.31,0,0,1,1.89,2.23,10.69,10.69,0,0,1,3.24-2.37,10.18,10.18,0,0,1,4.23-1,5.15,5.15,0,0,1,2.81.63,5,5,0,0,1,1.88,2,10.7,10.7,0,0,1,1,2.78,17.29,17.29,0,0,1,.4,3.28l.15,4.76a19,19,0,0,0,.45,4.07q.1.31,1.25.62a6.73,6.73,0,0,0,1.55.29c.09,0,.15.21.18.65a2.58,2.58,0,0,1,0,.89q-.32,0-2.39-.1t-3.11,0q-1.09,0-3.1.24t-2.42.26a1.69,1.69,0,0,1-.16-.86q0-.68.11-.68a6.1,6.1,0,0,0,1.62-.39q1.08-.37,1.16-.7a14.09,14.09,0,0,0,.22-3.18l-.15-4.62q-.21-6.57-4.43-6.44a4.14,4.14,0,0,0-2.47.81,2.84,2.84,0,0,0-1.13,1.44c0,.09,0,.21,0,.36a.88.88,0,0,0,0,.36,22.05,22.05,0,0,1,.23,2.81l.16,4.8a17.85,17.85,0,0,0,.44,3.89q.1.31,1.25.62a6.7,6.7,0,0,0,1.55.29q.13,0,.18.65a2.58,2.58,0,0,1,0,.89q-.32,0-2.39-.1t-3.11,0q-1.09,0-3.1.24l-2.42.26a1.69,1.69,0,0,1-.16-.86q0-.68.11-.68a6.11,6.11,0,0,0,1.62-.39q1.08-.37,1.16-.7a14.84,14.84,0,0,0,.21-3.32l-.14-4.35a9.62,9.62,0,0,0-1.21-5.09,3.45,3.45,0,0,0-3.13-1.49,4.35,4.35,0,0,0-2.47.85,2.14,2.14,0,0,0-1.08,1.76l.25,7.8a16.69,16.69,0,0,0,.5,4.07q.1.31,1.2.62a6.18,6.18,0,0,0,1.51.29c.12,0,.2.21.23.65a2.58,2.58,0,0,1,0,.89q-.37,0-2.39-.1t-3.06,0q-1.13,0-3.17.24t-2.4.26a1.33,1.33,0,0,1-.21-.86c0-.45,0-.68.16-.68a6.6,6.6,0,0,0,1.62-.39q1.12-.38,1.2-.7a14.86,14.86,0,0,0,.21-3.32l-.24-7.39a4.32,4.32,0,0,0-.82-2.88,2.2,2.2,0,0,0-1-.65,5.11,5.11,0,0,0-1.12-.24c-.3,0-.46-.06-.46-.12q0-1.31.23-1.37a62.91,62.91,0,0,0,7.21-1.6.3.3,0,0,1,.13-.07l.23,0c.15,0,.28.1.37.3a.84.84,0,0,1,.11.5,15.28,15.28,0,0,0-.13,1.64c0,.12,0,.2.1.22a.66.66,0,0,0,.22-.14,10,10,0,0,1,2.73-2A7.93,7.93,0,0,1,949.46,788.42Z"/><path class="cls-2" d="M993.33,791.9l.29,9a10.05,10.05,0,0,0,.47,3.16.94.94,0,0,0,.53.35,3.57,3.57,0,0,0,.8.16,6.67,6.67,0,0,0,.75,0,.83.83,0,0,1,.39,0c.12,0,.19.16.19.4a3.44,3.44,0,0,1-.07.62q-.08.43-.26.44a10.37,10.37,0,0,0-1.6.21l-1.87.38q-.9.19-1.71.4t-1.8.42c-.21,0-.33-.23-.34-.72l-.06-2c0-.15-.08-.22-.14-.22a10.11,10.11,0,0,1-2.7,2.13,7.59,7.59,0,0,1-3.55,1,4.75,4.75,0,0,1-2.72-.68,5.47,5.47,0,0,1-1.88-1.94,9.72,9.72,0,0,1-1-2.6,13.83,13.83,0,0,1-.39-2.85l-.16-5.08a4.32,4.32,0,0,0-.82-2.88,2.53,2.53,0,0,0-1.06-.65,4.79,4.79,0,0,0-1.1-.24c-.3,0-.46-.06-.46-.12q0-1.31.18-1.37a34.31,34.31,0,0,0,3.7-.67,35.27,35.27,0,0,0,3.55-.93l.18-.05.18-.05c.15,0,.27.1.35.31a1.61,1.61,0,0,1,.13.5q-.31,3.1-.28,4l.18,5.44a9.71,9.71,0,0,0,1.16,5,4,4,0,0,0,5.69.47,2.42,2.42,0,0,0,.94-1.73l-.24-7.48a4.32,4.32,0,0,0-.82-2.88,2.2,2.2,0,0,0-1-.65,5.1,5.1,0,0,0-1.12-.24c-.3,0-.46-.06-.46-.12q0-1.31.23-1.37a34.92,34.92,0,0,0,3.65-.66,35.29,35.29,0,0,0,3.56-.93l.36-.1q.23,0,.37.31a.84.84,0,0,1,.11.5Q993.3,791.08,993.33,791.9Z"/><path class="cls-2" d="M1008.73,786.5a11,11,0,0,1,4.31.65,7.27,7.27,0,0,1,2.75,1.66,5.62,5.62,0,0,1-.44,2.58,1.67,1.67,0,0,1-1.53,1.07,2,2,0,0,1-1.4-.41,5.2,5.2,0,0,1-1.11-1.46,3.29,3.29,0,0,0-3.1-2,3.49,3.49,0,0,0-3,2.07,9.71,9.71,0,0,0-1,5q.13,4.08,1.87,6a5.35,5.35,0,0,0,4.33,1.83,12.22,12.22,0,0,0,1.31-.11,6.79,6.79,0,0,0,1.17-.26l.94-.33a3.9,3.9,0,0,0,.83-.44l.6-.41.89-.64a.74.74,0,0,1,.24.27.88.88,0,0,1,.15.45,1.4,1.4,0,0,1-.24.87,7.39,7.39,0,0,1-2.6,2.53,8.33,8.33,0,0,1-4.4,1.37,9.18,9.18,0,0,1-7-2.72,10,10,0,0,1-3.07-7.12,10.31,10.31,0,0,1,2.49-7.23A9.14,9.14,0,0,1,1008.73,786.5Z"/><path class="cls-2" d="M1034,785.68q5.8-.19,6.09,8.74l.15,4.67a16.69,16.69,0,0,0,.49,4.07q.06.32,1.22.62a7,7,0,0,0,1.58.29c.09,0,.15.21.18.65a4.72,4.72,0,0,1,0,.88q-.32,0-2.43-.1t-3.11,0q-1.13,0-3.06.24l-2.37.26a1.7,1.7,0,0,1-.16-.86c0-.45,0-.68.11-.68a5.45,5.45,0,0,0,1.55-.39q1-.37,1.13-.7a17.16,17.16,0,0,0,.17-3.32l-.14-4.44q-.12-3.76-1.19-5.16a3.72,3.72,0,0,0-3.29-1.32,4.35,4.35,0,0,0-2.47.85,2.14,2.14,0,0,0-1.08,1.76l.25,7.8a16.69,16.69,0,0,0,.5,4.07q.1.31,1.22.62a6.41,6.41,0,0,0,1.53.29c.09,0,.15.21.18.65a2.58,2.58,0,0,1,0,.89q-.37,0-2.39-.1t-3.06,0q-1.09,0-3.15.24t-2.42.26a1.33,1.33,0,0,1-.21-.86c0-.45,0-.68.16-.68a6.37,6.37,0,0,0,1.64-.39q1.1-.38,1.18-.7a14.57,14.57,0,0,0,.21-3.27l-.61-18.86a18,18,0,0,0-.33-3.07q-.25-.72-2.38-.65h-.41q-.27,0-.3-.72c0-.48.07-.73.25-.73q1.4-.18,2.66-.45t2.09-.52q.83-.25,1.44-.5l1.28-.5h.09a.49.49,0,0,1,.37.24,1.24,1.24,0,0,1,.24.47,14.62,14.62,0,0,0-.41,4.28l.3,9.16c0,.18.07.27.19.27s.09,0,.18-.14a8.63,8.63,0,0,1,2.72-2.06A8.36,8.36,0,0,1,1034,785.68Z"/><path class="cls-2" d="M1054.35,798.63a16.69,16.69,0,0,0,.49,4.07q.1.31,1.25.62a6.7,6.7,0,0,0,1.55.29c.12,0,.2.21.23.65a2.58,2.58,0,0,1,0,.89q-.32,0-2.43-.1t-3.11,0q-1.13,0-3.19.24t-2.37.26a1.33,1.33,0,0,1-.21-.86c0-.45,0-.68.16-.68a6.59,6.59,0,0,0,1.62-.39q1.12-.38,1.2-.7a14.84,14.84,0,0,0,.21-3.32l-.24-7.39a4.32,4.32,0,0,0-.82-2.88,2.54,2.54,0,0,0-1.06-.65,4.79,4.79,0,0,0-1.1-.24c-.3,0-.46-.06-.46-.12q0-1.31.23-1.37a34.69,34.69,0,0,0,3.65-.66,35,35,0,0,0,3.55-.93l.36-.1q.23,0,.37.31a.84.84,0,0,1,.11.5,39,39,0,0,0-.24,3.91ZM1049,779.81a2.76,2.76,0,0,1-.88-2,2.79,2.79,0,0,1,2.72-2.88,2.72,2.72,0,0,1,2,.75,2.68,2.68,0,0,1,.88,1.95,2.76,2.76,0,0,1-.75,2,2.79,2.79,0,0,1-4,.13Z"/><path class="cls-2" d="M1069.19,784.54a8.4,8.4,0,0,1,3.84.71,7.18,7.18,0,0,1,2.7,2,10.54,10.54,0,0,1,1.54,2.63,7.84,7.84,0,0,1,.58,2.63q0,1-.3,1.26a2.59,2.59,0,0,1-1.37.29l-10.83.35q-.32,0-.31.28a8.82,8.82,0,0,0,.69,3.15,6.23,6.23,0,0,0,2.1,2.61,5.33,5.33,0,0,0,3.46,1,12.46,12.46,0,0,0,1.31-.11,6.8,6.8,0,0,0,1.17-.26l.94-.33a3.86,3.86,0,0,0,.83-.44l.6-.41.89-.64a.74.74,0,0,1,.24.26.88.88,0,0,1,.15.45,1.4,1.4,0,0,1-.24.87,7.39,7.39,0,0,1-2.6,2.53,8.41,8.41,0,0,1-4.45,1.37,9.19,9.19,0,0,1-6.9-2.7,9.78,9.78,0,0,1-3.09-7,10.5,10.5,0,0,1,2.41-7.52A8.79,8.79,0,0,1,1069.19,784.54Zm-.25,2.09a3.2,3.2,0,0,0-1.93.7,4.28,4.28,0,0,0-1.27,1.58,8.64,8.64,0,0,0-.6,1.72A5.54,5.54,0,0,0,1065,792c0,.21.1.31.28.31l7.34-.24c.27,0,.4-.24.39-.69a5.88,5.88,0,0,0-1.17-3.18A3.25,3.25,0,0,0,1068.94,786.63Z"/><path class="cls-1" d="M86.91,298.48q.11,1.88-1.48,11.33t-2.72,10.1q-12.2,6.84-33.15,8.12-19.07,1.16-33.37-12A46.65,46.65,0,0,1,.71,283.43a49.77,49.77,0,0,1,11.58-36,44.57,44.57,0,0,1,32.92-16.73,159.34,159.34,0,0,1,34.34,1.82q.44.12,1.44,9.41t1.14,11.61q.13,2.17-3.34,2.38a4.65,4.65,0,0,1-2.06-.46,20.19,20.19,0,0,0-2.42-5.22,37.08,37.08,0,0,0-4.93-5.94,22,22,0,0,0-9.31-5.16,38.77,38.77,0,0,0-13.86-1.4q-14.16.86-21.32,13t-6.16,28.51q1.11,18.21,10.77,30.31t25.84,11.11q12.86-.79,19.88-9.34a19.81,19.81,0,0,0,3.06-5.62q1.31-3.49,2-5.85t.94-2.38Q86.25,297.21,86.91,298.48Z"/><path class="cls-1" d="M124.93,258.45a31.92,31.92,0,0,1,23.77,8,31,31,0,0,1,11,22.32A32.5,32.5,0,0,1,129,323.31a31.71,31.71,0,0,1-23.85-8.12,32.59,32.59,0,0,1-2.88-45.95A31.72,31.72,0,0,1,124.93,258.45Zm-1.46,6.91q-6.79.41-10.15,7.22a31.13,31.13,0,0,0-2.8,15.91q.71,11.7,5.94,20.09t13.61,7.87q6.79-.41,10.21-7.29a30.79,30.79,0,0,0,2.88-15.84,49.71,49.71,0,0,0-2.73-13.83,25.53,25.53,0,0,0-6.73-10.39A13.42,13.42,0,0,0,123.47,265.35Z"/><path class="cls-1" d="M212.78,253.08q18.64-1.14,20.45,28.48l.84,13.73a60.65,60.65,0,0,0,1.81,12.94q.35,1,4.1,1.85a22.24,22.24,0,0,0,5.05.78q.43,0,.63,2.06a8.21,8.21,0,0,1,0,2.83q-.88-.09-7.62-.12t-10.07.18q-3.47.21-9.58,1t-7.41,1q-.61-.54-.75-2.71t.45-2.2a17.23,17.23,0,0,0,4.77-1.38q3.19-1.28,3.41-2.31a41.58,41.58,0,0,0,.51-10.62l-.84-13.73q-.73-12-4.27-16.56t-10.62-4.14a13.4,13.4,0,0,0-7.94,3q-3.31,2.74-3.14,5.63L194,297.74a60.65,60.65,0,0,0,1.81,12.94q.35,1,4,1.86a20.87,20.87,0,0,0,4.76.8q.58,0,.78,2.06a8.22,8.22,0,0,1,0,2.83q-1.17-.07-7.62-.12t-9.78.16q-3.47.21-10,1t-7.7,1q-.61-.54-.75-2.71t.45-2.2A20.22,20.22,0,0,0,175.1,314q3.47-1.3,3.7-2.33a47.31,47.31,0,0,0,.37-10.61l-1.44-23.55q-.41-6.79-2.88-9.11a7,7,0,0,0-3.38-2,16.59,16.59,0,0,0-3.52-.66c-.92,0-1.39-.15-1.4-.35q-.26-4.19.46-4.38,6.61-1,23-5.75a1,1,0,0,1,.35-.24,1.38,1.38,0,0,1,.43-.1l.36,0q.58,0,1.07,1a4.4,4.4,0,0,1,.53,1.56,49.32,49.32,0,0,0-.26,5.24,1.14,1.14,0,0,0,.19.71,2.14,2.14,0,0,0,.7-.48,32.08,32.08,0,0,1,8.52-6.61A25.33,25.33,0,0,1,212.78,253.08Z"/><path class="cls-1" d="M273.46,249.23a61.47,61.47,0,0,1,16.91,1.43,82.24,82.24,0,0,1,2.58,16.09c0,.77-.56,1.19-1.81,1.27q-3.18.19-3.54-.94a17.56,17.56,0,0,0-4.79-8.34,11.32,11.32,0,0,0-9-3A10.39,10.39,0,0,0,267.4,258a6.42,6.42,0,0,0-2.06,5.49,8.42,8.42,0,0,0,1,3.64,9,9,0,0,0,2.79,2.95,35.65,35.65,0,0,0,3.32,2.12q1.42.78,4.26,2.06a9.31,9.31,0,0,0,1.49.63l2.24,1,2.46,1.15,2.4,1.23a26,26,0,0,1,2.63,1.51q.76.53,2.35,1.6a11.53,11.53,0,0,1,2.29,1.89q.7.83,1.87,2.13a9.35,9.35,0,0,1,1.68,2.51,27.51,27.51,0,0,1,1,2.7,13.48,13.48,0,0,1,.55,3.08,17.07,17.07,0,0,1-6.13,14.81,27.47,27.47,0,0,1-16.66,6.31A48.35,48.35,0,0,1,256,311.94,58,58,0,0,1,254,304a70.73,70.73,0,0,1-1.23-8.27,3.08,3.08,0,0,1,2-.85q3.32-.2,3.54.95a16,16,0,0,0,6.3,9.4,15.44,15.44,0,0,0,10.12,3.08,10.53,10.53,0,0,0,6.52-2.43,7.06,7.06,0,0,0,2.24-6.08,9.54,9.54,0,0,0-.52-2.65,7.1,7.1,0,0,0-1.52-2.37l-1.79-1.92a10.49,10.49,0,0,0-2.72-1.79q-2-1-3-1.49t-3.73-1.66q-2.76-1.21-3.8-1.72a33.7,33.7,0,0,1-10.73-7.1A15.47,15.47,0,0,1,251.46,269q-.54-8.81,6.11-14A27.9,27.9,0,0,1,273.46,249.23Z"/><path class="cls-1" d="M331.17,289.37q.54,8.81,1.95,12.93.35,1,4,1.86a21.41,21.41,0,0,0,5,.78q.58,0,.78,2.05a8.2,8.2,0,0,1,0,2.83q-1-.08-7.77-.11t-9.92.17q-3.61.22-10.16,1.06t-7.55,1q-.61-.54-.75-2.71t.45-2.2a21,21,0,0,0,5.14-1.4q3.54-1.3,3.77-2.33a47.34,47.34,0,0,0,.37-10.61L315,269.18q-.41-6.79-2.88-9.11a8.07,8.07,0,0,0-3.46-2,15.29,15.29,0,0,0-3.52-.66q-1.45-.05-1.47-.34-.26-4.19.6-4.39a110.42,110.42,0,0,0,11.6-2.45,113.51,113.51,0,0,0,11.26-3.3,8.38,8.38,0,0,0,1.14-.36q.72,0,1.22.94a2.67,2.67,0,0,1,.39,1.57,124,124,0,0,0-.4,12.5Zm-18.72-59.55a8.82,8.82,0,0,1-3-6.2,9,9,0,0,1,17.92-1.09,8.82,8.82,0,0,1-2.21,6.52,8.91,8.91,0,0,1-12.71.78Z"/><path class="cls-1" d="M378.64,242.67A24.86,24.86,0,0,1,389.31,244q.72,0,.58-2.36l-.83-13.58a50.43,50.43,0,0,0-1.47-9.77q-.86-2.26-7.65-1.85l-1.16.07q-.87.05-1-2.26t.73-2.37q4.31-.7,8.38-1.67t6.7-1.86q2.63-.89,4.54-1.73l2.9-1.26a7.21,7.21,0,0,1,1.13-.43l.29,0a1.56,1.56,0,0,1,1.2.72,2.63,2.63,0,0,1,.67,1.48,55.44,55.44,0,0,0-.62,13.67l3.88,63.58a53.07,53.07,0,0,0,1.52,10.64,2.14,2.14,0,0,0,1.54,1.5,8.87,8.87,0,0,0,2.79.55q1.45.06,2.76,0l1.45,0a3,3,0,0,1,.4,1.71c.12,1.93-.11,2.91-.69,2.94q-2,.27-5.09.89t-6,1.31q-2.93.69-5.57,1.35T394.75,307q-.87.05-1-2.4l-.15-2.46a.65.65,0,0,0-.25-.56c-.15-.09-.27-.08-.36,0a24.16,24.16,0,0,1-14.7,6.26,28.05,28.05,0,0,1-20.9-7.35q-9.19-8.07-10-21.07a34,34,0,0,1,8.4-25.1Q365.06,243.5,378.64,242.67Zm-.88,7a12.67,12.67,0,0,0-11.16,7.21q-3.5,6.74-2.83,17.72.75,12.28,5.65,18.87a14.22,14.22,0,0,0,13,6.1,12,12,0,0,0,7.79-3,8,8,0,0,0,2.64-6.62L391,259.61a10.06,10.06,0,0,0-.69-3,13.53,13.53,0,0,0-1.94-3.29,9.26,9.26,0,0,0-4.09-2.8A15.39,15.39,0,0,0,377.77,249.68Z"/><path class="cls-1" d="M450.91,238.55a26.82,26.82,0,0,1,12.3,1.93,22.92,22.92,0,0,1,8.8,6.28,33.66,33.66,0,0,1,5.14,8.24,25,25,0,0,1,2.1,8.35q.19,3.18-.84,4t-4.36,1.06l-34.53,2.11q-1,.06-1,.93a28.13,28.13,0,0,0,2.5,10,19.9,19.9,0,0,0,7,8.13,17,17,0,0,0,11.13,2.95,39.18,39.18,0,0,0,4.18-.47,21.45,21.45,0,0,0,3.71-1q1.7-.61,3-1.12a12.37,12.37,0,0,0,2.59-1.46l1.88-1.35q.55-.39,2.77-2.13a2.37,2.37,0,0,1,.78.82,2.8,2.8,0,0,1,.52,1.42,4.45,4.45,0,0,1-.7,2.8q-1.93,4-8,8.32a26.86,26.86,0,0,1-14.07,4.77,29.32,29.32,0,0,1-22.24-8A31.22,31.22,0,0,1,423,273.18q-.89-14.59,7-24.21T450.91,238.55Zm-.61,6.71a10.23,10.23,0,0,0-6.09,2.4,13.64,13.64,0,0,0-3.89,5.17,27.72,27.72,0,0,0-1.76,5.55,17.7,17.7,0,0,0-.39,4.3q.06,1,.93,1l23.41-1.43q1.3-.08,1.17-2.25a18.77,18.77,0,0,0-4-10.05Q455.94,244.91,450.3,245.26Z"/><path class="cls-1" d="M526.62,233.93q7.95-.48,12.14,4,.75,12.28-6.19,12.71-2.6.16-5.81-2.55a9.06,9.06,0,0,0-6.39-2.51q-4.48.27-6.73,5a19.26,19.26,0,0,0-2,9.62l1.1,18.06a60.59,60.59,0,0,0,1.81,12.94q.35,1,4,1.86a20.55,20.55,0,0,0,4.91.79c.29,0,.5.67.63,2.06a15.11,15.11,0,0,1,.1,2.82q-1.17-.08-7.69-.11t-9.85.17q-3.47.21-10,1t-7.69,1q-.61-.54-.75-2.71t.45-2.2a20.21,20.21,0,0,0,5.21-1.41q3.47-1.3,3.7-2.33a47.34,47.34,0,0,0,.37-10.61l-1.44-23.55q-.41-6.79-2.88-9.11a7,7,0,0,0-3.38-2,16.6,16.6,0,0,0-3.52-.66c-.92,0-1.39-.15-1.4-.35q-.26-4.19.46-4.38,6.61-1,23-5.75a8.79,8.79,0,0,1,1.14-.36c.38,0,.74.29,1.07,1a3.48,3.48,0,0,1,.46,1.64q0,.65-.09,2t-.18,2.91a18.66,18.66,0,0,0-.1,2,26.55,26.55,0,0,1,6.65-7.44A15.86,15.86,0,0,1,526.62,233.93Z"/><path class="cls-1" d="M574.78,274.5q.54,8.81,1.95,12.93.35,1,4,1.86a21.41,21.41,0,0,0,5,.78q.58,0,.78,2.05a8.22,8.22,0,0,1,0,2.83q-1-.08-7.77-.11t-9.92.17q-3.61.22-10.16,1.06t-7.55,1q-.61-.54-.75-2.71t.45-2.2a21,21,0,0,0,5.14-1.4q3.54-1.3,3.77-2.33a47.34,47.34,0,0,0,.37-10.61l-1.44-23.55q-.41-6.79-2.88-9.11a8.06,8.06,0,0,0-3.46-2,15.29,15.29,0,0,0-3.52-.66q-1.45-.05-1.47-.34-.26-4.19.6-4.39a110.57,110.57,0,0,0,11.6-2.45,113.51,113.51,0,0,0,11.26-3.3,8.4,8.4,0,0,0,1.14-.36q.72,0,1.22.94a2.67,2.67,0,0,1,.39,1.57,124,124,0,0,0-.4,12.5Zm-18.72-59.55a8.82,8.82,0,0,1-3-6.2A9,9,0,0,1,571,207.65a8.82,8.82,0,0,1-2.21,6.52,8.91,8.91,0,0,1-12.71.78Z"/><path class="cls-1" d="M637,227.19q18.64-1.14,20.45,28.48l.84,13.73a60.59,60.59,0,0,0,1.81,12.94q.35,1,4.1,1.85a22.24,22.24,0,0,0,5.05.78c.29,0,.5.67.63,2.06a8.23,8.23,0,0,1,0,2.83q-.88-.09-7.62-.12t-10.07.18q-3.47.21-9.58,1t-7.41,1q-.61-.54-.75-2.71t.45-2.2a17.25,17.25,0,0,0,4.77-1.38q3.18-1.28,3.41-2.31a41.6,41.6,0,0,0,.51-10.62L642.73,259q-.73-12-4.27-16.56t-10.62-4.14a13.4,13.4,0,0,0-7.94,3q-3.31,2.74-3.14,5.63l1.52,24.85a60.58,60.58,0,0,0,1.81,12.94q.35,1,4,1.86a20.87,20.87,0,0,0,4.76.8q.58,0,.78,2.06a8.23,8.23,0,0,1,0,2.83q-1.17-.07-7.62-.12t-9.78.16q-3.47.21-10,1t-7.7,1q-.61-.54-.75-2.71t.45-2.2a20.21,20.21,0,0,0,5.21-1.41q3.47-1.3,3.7-2.33a47.34,47.34,0,0,0,.37-10.61L602,251.66q-.41-6.79-2.88-9.11a7,7,0,0,0-3.38-2,16.6,16.6,0,0,0-3.52-.66c-.92,0-1.39-.15-1.4-.35q-.26-4.19.46-4.38,6.61-1,23-5.75a.94.94,0,0,1,.35-.24,1.37,1.37,0,0,1,.43-.1l.36,0c.38,0,.74.29,1.07.95a4.4,4.4,0,0,1,.53,1.56,49.32,49.32,0,0,0-.26,5.24,1.13,1.13,0,0,0,.19.71,2.14,2.14,0,0,0,.7-.48,32.1,32.1,0,0,1,8.52-6.61A25.33,25.33,0,0,1,637,227.19Z"/><path class="cls-1" d="M701.76,223.53a45.84,45.84,0,0,1,12.11,1.15,44.64,44.64,0,0,0,11.67,1.17l8.24-.5q.29,0,1.13,1.82a8.88,8.88,0,0,1,.9,2.84c.08,1.35-.17,2-.74,2.08l-9.39.57c-.39,0-.57.18-.55.47q0,.15,1.53,3.68a20.49,20.49,0,0,1,1.72,6.86q.52,8.53-6.21,15.83a24.81,24.81,0,0,1-17.43,8,60.08,60.08,0,0,1-9,0,7.77,7.77,0,0,0-3,2.87,6.17,6.17,0,0,0-1.23,3.63,3,3,0,0,0,1.52,2.37,9.73,9.73,0,0,0,4.35,1.19q2.91.26,4.95.28t5.8-.06l2.17-.13q14.47-.45,21.41,2.68t7.37,10.21q.8,10.83-9.26,19.42a39.55,39.55,0,0,1-23.93,9.44,37.62,37.62,0,0,1-18.67-2.92q-8.13-3.71-8.6-11.37-.26-4.19,3.62-8.34a24,24,0,0,1,8.55-6,16.49,16.49,0,0,1-7.21-4,10.53,10.53,0,0,1-3.64-7.39q-.38-6.21,9.91-13.51-4.31-1.62-8.26-7a21.29,21.29,0,0,1-4.33-11.56q-.63-10.26,6.53-16.64T701.76,223.53Zm24.55,74.35q-.31-5.06-7.71-6.27t-19.68-.47a2.33,2.33,0,0,0-.71.19,6.53,6.53,0,0,0-.7.48q-1.84.84-2.81,1.4a12.38,12.38,0,0,0-2.21,1.73,7,7,0,0,0-1.8,2.65,8.41,8.41,0,0,0-.44,3.51q.32,5.2,6,8.33a22.57,22.57,0,0,0,12.49,2.72q8.09-.5,13-4.56T726.32,297.88Zm-34.26-52.73a22.91,22.91,0,0,0,3.62,11.74,9,9,0,0,0,8.39,4.35q5.34-.33,7.62-4.6a19.19,19.19,0,0,0,1.91-10.34q-.47-7.66-3.65-12.25a9.26,9.26,0,0,0-8.67-4.26,8.17,8.17,0,0,0-7.38,4.95A21,21,0,0,0,692.06,245.15Z"/><path class="cls-1" d="M787.86,186.94q1.59-.1,17.43-1.93a25,25,0,0,1,.38,2.73q.19,1.88-.38,2.05a14.16,14.16,0,0,0-2.3.36,8.05,8.05,0,0,0-2.88,1.48,3.37,3.37,0,0,0-1.48,3.06q.17,2.75,3.07,7.5l31.73,54.19q.48.7,1.11.29a2.19,2.19,0,0,0,.88-1l9.3-21.16-17.37-30.27q-4.87-8.55-8.12-11.83a10.18,10.18,0,0,0-4-2.22,12.5,12.5,0,0,0-4.61-.73q-.58,0-.73-2.42a3.78,3.78,0,0,1,.29-2.34q18.26-.24,19.13-.3,1.16-.07,17-1.91a10.9,10.9,0,0,1,.53,2.72q.19,1.88-.24,2a13,13,0,0,0-2.66.45,7.27,7.27,0,0,0-2.73,1.54,3.37,3.37,0,0,0-1.27,2.91q.14,2.31,3.06,7.35l9.92,17.52,7.46-18q2.28-5.36,2.12-8.11t-3.76-3.47a21.49,21.49,0,0,0-6.21-.71q-.58,0-.7-2a5,5,0,0,1,.27-2.63q12.77.09,15.95-.1t6-.51q2.66-.3,5.69-.71l4.89-.66a9.14,9.14,0,0,1,.45,2.66q.11,1.81-.31,2a17.28,17.28,0,0,0-5.19,1.62,11.66,11.66,0,0,0-4.8,3.34q-3,3.81-7.41,14.09l-9.24,22,15.76,27.75q1,1.39,1.83-.84,2.47-7,11.79-30.16t10.19-25.57q2.27-5.65,2.11-8.25t-3.7-3.55a19.06,19.06,0,0,0-5.85-.8q-.58,0-.77-2a3.73,3.73,0,0,1,.35-2.63q12.77.09,16-.11t5.84-.5q2.59-.3,5.47-.7l4.89-.66a11.15,11.15,0,0,1,.46,2.87c.07,1.16-.09,1.75-.47,1.77a15.6,15.6,0,0,0-4.91,1.53,13.69,13.69,0,0,0-4.67,3.11q-3.63,4.72-7.54,14.24l-28.81,72.1a9.74,9.74,0,0,1-2.46,3.63,4.67,4.67,0,0,1-2.6,1.32,2,2,0,0,1-1.48-.49l-19.8-34.47L835.21,276a10.53,10.53,0,0,1-2.46,3.7,3.61,3.61,0,0,1-2.46,1.24,2,2,0,0,1-1.48-.49l-42.93-73.67a78.38,78.38,0,0,0-8.28-12.11,8,8,0,0,0-4.11-2.07,16.39,16.39,0,0,0-4.6-.59q-.58,0-.72-2.28a4.14,4.14,0,0,1,.28-2.48Q786.84,187,787.86,186.94Z"/><path class="cls-1" d="M961.69,207.37a31.91,31.91,0,0,1,23.77,8,31,31,0,0,1,11,22.32,33,33,0,1,1-34.78-30.36Zm-1.46,6.91q-6.79.41-10.15,7.22a31.14,31.14,0,0,0-2.8,15.91q.71,11.7,5.94,20.09t13.61,7.87q6.79-.41,10.21-7.29a30.78,30.78,0,0,0,2.88-15.84,49.72,49.72,0,0,0-2.73-13.83A25.54,25.54,0,0,0,970.46,218,13.42,13.42,0,0,0,960.23,214.28Z"/><path class="cls-1" d="M1049.54,202a15.63,15.63,0,0,1,9.56,2.25,16.92,16.92,0,0,1,6.23,6.94,34.12,34.12,0,0,1,10.11-7.87,32.48,32.48,0,0,1,13.41-3.72,16.42,16.42,0,0,1,9,1.77,16,16,0,0,1,6.17,6.08,34.1,34.1,0,0,1,3.58,8.77,55.28,55.28,0,0,1,1.58,10.42l.93,15.17a60.63,60.63,0,0,0,1.8,12.94q.35,1,4,1.86a21.4,21.4,0,0,0,5,.78q.43,0,.63,2.06a8.21,8.21,0,0,1,0,2.83q-1-.08-7.62-.12t-9.92.17q-3.47.21-9.87,1t-7.7,1a5.4,5.4,0,0,1-.6-2.72q-.13-2.17.3-2.19a19.44,19.44,0,0,0,5.14-1.4q3.4-1.29,3.63-2.32a45,45,0,0,0,.39-10.18l-.9-14.74q-1.28-20.95-14.72-20.13a13.18,13.18,0,0,0-7.81,2.8q-3,2.51-3.48,4.71,0,.44,0,1.16a2.82,2.82,0,0,0,.14,1.15,70.69,70.69,0,0,1,1,8.93l.94,15.32a56.91,56.91,0,0,0,1.77,12.37q.35,1,4,1.86a21.29,21.29,0,0,0,5,.78c.29,0,.5.67.63,2.06a8.23,8.23,0,0,1,0,2.83q-1-.08-7.62-.11t-9.92.17q-3.47.21-9.87,1t-7.69,1a5.4,5.4,0,0,1-.6-2.72q-.13-2.17.3-2.19a19.48,19.48,0,0,0,5.14-1.4q3.4-1.3,3.63-2.32a47.31,47.31,0,0,0,.37-10.61l-.85-13.87q-.69-11.27-4.32-16.12a11,11,0,0,0-10.13-4.46,13.86,13.86,0,0,0-7.8,2.94q-3.46,2.68-3.28,5.71l1.52,24.85q.54,8.81,1.95,12.93.35,1,3.88,1.87a19.68,19.68,0,0,0,4.83.79c.38,0,.64.66.78,2.05a8.22,8.22,0,0,1,0,2.83q-1.17-.08-7.62-.12t-9.78.16q-3.61.22-10.09,1.05t-7.62,1q-.61-.54-.75-2.71t.45-2.2a21,21,0,0,0,5.14-1.4q3.54-1.3,3.77-2.33a47.32,47.32,0,0,0,.37-10.61l-1.44-23.55q-.41-6.79-2.88-9.11a7,7,0,0,0-3.38-2,16.35,16.35,0,0,0-3.59-.65q-1.45-.05-1.47-.34-.26-4.19.6-4.39,6.61-1,22.85-5.75a1,1,0,0,1,.42-.24,3,3,0,0,1,.72-.12q.72,0,1.22.94a2.67,2.67,0,0,1,.39,1.57,49.46,49.46,0,0,0-.26,5.24c0,.39.13.62.33.71a2.15,2.15,0,0,0,.7-.48,32.08,32.08,0,0,1,8.52-6.61A25.33,25.33,0,0,1,1049.54,202Z"/><path class="cls-1" d="M1154.59,195.6q9-.55,13.72,3.88t5.46,15.84l1.74,28.47a6.6,6.6,0,0,0,1.57,4.33,4.35,4.35,0,0,0,3.56,1.31,9,9,0,0,0,4.8-2.18q.88.24,1,1.54a8.6,8.6,0,0,1-.6,4.39,35.81,35.81,0,0,1-5.56,4,15.07,15.07,0,0,1-6.82,2.3,10.57,10.57,0,0,1-6.65-2.06,11.87,11.87,0,0,1-4.52-5.09c-.09.1-.43.44-1,1s-1.42,1.27-2.48,2.11a42.78,42.78,0,0,1-3.62,2.54,23.15,23.15,0,0,1-4.79,2.25,21.07,21.07,0,0,1-5.66,1.14q-7.23.44-12-3.25t-5.22-10.63a13.34,13.34,0,0,1,1.27-6.6,17.27,17.27,0,0,1,3.67-5.23,29.6,29.6,0,0,1,6-4.21,59.43,59.43,0,0,1,6.55-3.23q2.76-1.11,7.09-2.68t6-2.25a2.28,2.28,0,0,0,1.16-2.39l-.49-7.95q-.31-5.06-2.8-7.81a7.56,7.56,0,0,0-6.39-2.51,8.79,8.79,0,0,0-6.63,3.09q-2.3,2.83-2,7.74a4.69,4.69,0,0,1-1.91,4.39,9,9,0,0,1-4.83,1.67q-5.35.33-7.73-3-.42-6.93,8.67-13.58A36.29,36.29,0,0,1,1154.59,195.6Zm-3.12,55.88a11.22,11.22,0,0,0,6.6-2.43q2.69-2.19,2.54-4.8l-.9-14.74q-1,.5-4.17,1.71t-4.88,2a39.57,39.57,0,0,0-3.92,2.27,8.75,8.75,0,0,0-3.2,3.39,8,8,0,0,0-.84,4.11q.28,4.63,2.73,6.65A8.33,8.33,0,0,0,1151.47,251.48Z"/><path class="cls-1" d="M1236.8,190.58q18.64-1.14,20.45,28.48l.84,13.73a60.59,60.59,0,0,0,1.81,12.94q.35,1,4.1,1.85a22.24,22.24,0,0,0,5.05.78c.29,0,.5.67.63,2.06a8.21,8.21,0,0,1,0,2.83q-.88-.09-7.62-.12t-10.07.18q-3.47.21-9.58,1t-7.41,1q-.61-.54-.75-2.71t.45-2.2a17.26,17.26,0,0,0,4.77-1.38q3.18-1.28,3.41-2.31a41.6,41.6,0,0,0,.51-10.62l-.84-13.73q-.73-12-4.27-16.56t-10.62-4.14a13.4,13.4,0,0,0-7.94,3q-3.31,2.74-3.14,5.63l1.52,24.85a60.57,60.57,0,0,0,1.81,12.94q.35,1,4,1.86a20.82,20.82,0,0,0,4.76.8q.58,0,.78,2.06a8.22,8.22,0,0,1,0,2.83q-1.17-.07-7.62-.11t-9.78.16q-3.47.21-10,1t-7.7,1q-.61-.54-.75-2.71t.45-2.2a20.21,20.21,0,0,0,5.21-1.41q3.47-1.3,3.7-2.33a47.34,47.34,0,0,0,.37-10.61l-1.44-23.55q-.41-6.79-2.88-9.11a7,7,0,0,0-3.38-2,16.54,16.54,0,0,0-3.52-.66c-.92,0-1.39-.15-1.4-.35q-.26-4.19.46-4.38,6.61-1,23-5.75a.94.94,0,0,1,.35-.24,1.37,1.37,0,0,1,.43-.1l.36,0c.38,0,.74.29,1.07.95a4.4,4.4,0,0,1,.53,1.56,49.65,49.65,0,0,0-.26,5.24,1.13,1.13,0,0,0,.19.71,2.13,2.13,0,0,0,.7-.48,32.1,32.1,0,0,1,8.52-6.61A25.33,25.33,0,0,1,1236.8,190.58Z"/><path class="cls-1" d="M1302.31,230.09q.54,8.81,1.95,12.93.35,1,4,1.86a21.36,21.36,0,0,0,5,.78q.58,0,.78,2.06a8.22,8.22,0,0,1,0,2.83q-1-.08-7.77-.11t-9.92.17q-3.61.22-10.16,1.06t-7.55,1q-.61-.54-.75-2.71t.45-2.2a21,21,0,0,0,5.14-1.4q3.54-1.31,3.77-2.33a47.34,47.34,0,0,0,.37-10.61l-1.44-23.55q-.41-6.79-2.88-9.11a8.06,8.06,0,0,0-3.46-2,15.19,15.19,0,0,0-3.52-.66q-1.45-.05-1.47-.34-.26-4.19.6-4.39A110.88,110.88,0,0,0,1287,191a113.8,113.8,0,0,0,11.26-3.3,8.33,8.33,0,0,0,1.14-.36q.72,0,1.22.94a2.67,2.67,0,0,1,.39,1.57,124,124,0,0,0-.4,12.5Zm-18.72-59.55a8.82,8.82,0,0,1-3-6.2,9,9,0,0,1,17.92-1.09,8.82,8.82,0,0,1-2.21,6.52,8.91,8.91,0,0,1-12.71.78Z"/><path class="cls-1" d="M1340.83,184.08a61.51,61.51,0,0,1,16.91,1.43,82.23,82.23,0,0,1,2.58,16.08c0,.77-.56,1.2-1.81,1.27q-3.18.19-3.54-.94a17.56,17.56,0,0,0-4.79-8.34,11.32,11.32,0,0,0-9-3,10.4,10.4,0,0,0-6.46,2.28,6.43,6.43,0,0,0-2.06,5.49,8.42,8.42,0,0,0,1,3.64,9,9,0,0,0,2.79,2.95,35.42,35.42,0,0,0,3.32,2.12q1.42.78,4.26,2.06a9.29,9.29,0,0,0,1.49.63l2.24,1,2.46,1.15,2.4,1.23a26,26,0,0,1,2.63,1.51q.76.53,2.35,1.6a11.48,11.48,0,0,1,2.29,1.89q.7.83,1.87,2.13a9.36,9.36,0,0,1,1.68,2.51,27.48,27.48,0,0,1,1,2.7,13.49,13.49,0,0,1,.55,3.08,17.07,17.07,0,0,1-6.13,14.81,27.47,27.47,0,0,1-16.66,6.31,48.38,48.38,0,0,1-18.89-2.91,58,58,0,0,1-1.93-7.93,70.67,70.67,0,0,1-1.23-8.27,3.07,3.07,0,0,1,2-.84q3.32-.2,3.54.94a16,16,0,0,0,6.3,9.41,15.44,15.44,0,0,0,10.12,3.08,10.53,10.53,0,0,0,6.52-2.43,7.06,7.06,0,0,0,2.24-6.08,9.52,9.52,0,0,0-.52-2.65,7.1,7.1,0,0,0-1.52-2.37l-1.79-1.92a10.47,10.47,0,0,0-2.72-1.79q-2-1-3-1.49l-3.73-1.66q-2.76-1.21-3.8-1.73a33.7,33.7,0,0,1-10.73-7.1,15.47,15.47,0,0,1-4.24-10.11q-.54-8.81,6.11-14A27.91,27.91,0,0,1,1340.83,184.08Z"/><path class="cls-1" d="M1417.42,179.55a15.63,15.63,0,0,1,9.56,2.25,16.92,16.92,0,0,1,6.23,6.94,34.12,34.12,0,0,1,10.11-7.87,32.48,32.48,0,0,1,13.41-3.72,16.43,16.43,0,0,1,9,1.77,16,16,0,0,1,6.17,6.08,34,34,0,0,1,3.58,8.77,55.2,55.2,0,0,1,1.58,10.42l.93,15.17a60.6,60.6,0,0,0,1.8,12.94q.35,1,4,1.86a21.35,21.35,0,0,0,5,.78q.43,0,.63,2.06a8.22,8.22,0,0,1,0,2.83q-1-.08-7.62-.12t-9.92.17q-3.47.21-9.87,1t-7.7,1a5.4,5.4,0,0,1-.6-2.72q-.13-2.17.3-2.19a19.51,19.51,0,0,0,5.14-1.4q3.4-1.3,3.63-2.32a45,45,0,0,0,.39-10.18l-.9-14.74q-1.28-20.95-14.72-20.13a13.19,13.19,0,0,0-7.81,2.8q-3,2.51-3.48,4.71,0,.44,0,1.16a2.81,2.81,0,0,0,.14,1.15,70.69,70.69,0,0,1,1,8.93l.94,15.32a57,57,0,0,0,1.77,12.37q.35,1,4,1.86a21.4,21.4,0,0,0,5,.78c.29,0,.5.67.63,2.06a8.24,8.24,0,0,1,0,2.83q-1-.08-7.62-.12t-9.92.17q-3.47.21-9.87,1t-7.7,1a5.41,5.41,0,0,1-.6-2.72q-.13-2.17.3-2.19a19.45,19.45,0,0,0,5.14-1.4q3.4-1.29,3.63-2.32a47.28,47.28,0,0,0,.37-10.61l-.85-13.87q-.69-11.27-4.32-16.12a11,11,0,0,0-10.13-4.46,13.86,13.86,0,0,0-7.8,2.94q-3.46,2.68-3.28,5.71l1.52,24.85q.54,8.81,1.95,12.93.35,1,3.88,1.87a19.64,19.64,0,0,0,4.83.79q.57,0,.78,2.06a8.22,8.22,0,0,1,0,2.83q-1.17-.07-7.62-.12t-9.78.16q-3.61.22-10.09,1.05t-7.62,1q-.61-.54-.75-2.71t.45-2.2a21,21,0,0,0,5.14-1.4q3.54-1.31,3.77-2.33a47.31,47.31,0,0,0,.37-10.61L1382.37,204q-.41-6.79-2.88-9.11a7,7,0,0,0-3.38-2,16.4,16.4,0,0,0-3.59-.65q-1.45-.05-1.47-.34-.26-4.19.6-4.39,6.61-1,22.85-5.75a.94.94,0,0,1,.42-.24,3,3,0,0,1,.72-.12q.72,0,1.22.94a2.67,2.67,0,0,1,.39,1.57,49.32,49.32,0,0,0-.26,5.24c0,.39.13.62.33.71a2.14,2.14,0,0,0,.7-.48,32.07,32.07,0,0,1,8.52-6.61A25.33,25.33,0,0,1,1417.42,179.55Z"/></svg>