<svg id="Layer_1" data-name="Layer 1" xmlns="http://www.w3.org/2000/svg" viewBox="0 0 332.33 25.2"><defs><style>.cls-1{fill:#1928eb;}</style></defs><title>title</title><path class="cls-1" d="M9.39,2.87,15,16.52q.4,1,.8,1.9a1.26,1.26,0,0,0,.84.62,3.44,3.44,0,0,0,1,.23c.07,0,.11.16.11.47a.89.89,0,0,1,0,.39L14.37,20l-3.4.18a.74.74,0,0,1-.11-.48c0-.25,0-.38.1-.38a3.33,3.33,0,0,0,.86-.16c.37-.11.58-.23.65-.37a.74.74,0,0,0,.08-.34,6,6,0,0,0-.51-1.8l-.93-2.42a.29.29,0,0,0-.18-.1q-.84,0-2.25,0t-3,.1c-.1,0-.16,0-.16.11l-1,2.44a7.41,7.41,0,0,0-.48,1.7.58.58,0,0,0,.29.52,2.63,2.63,0,0,0,.83.28,4.48,4.48,0,0,0,.8.13c.05,0,.08.14.08.37a1.73,1.73,0,0,1,0,.5l-1.23-.07q-1.1-.07-1.78-.07t-1.61.08l-1.32.1A.55.55,0,0,1,0,19.86c0-.31,0-.47,0-.47a3.81,3.81,0,0,0,1-.23,1.62,1.62,0,0,0,.87-.52,12.49,12.49,0,0,0,1-2L7.68,4.81a5.7,5.7,0,0,1,1-1.89.66.66,0,0,1,.44-.19A.43.43,0,0,1,9.39,2.87ZM6.32,12.61q.92.07,1.88.06t2.14-.09l.05-.1-2-5.21L6.27,12.5C6.27,12.57,6.29,12.61,6.32,12.61Z"/><path class="cls-1" d="M28,8.43q3.37,0,3.41,5.33l0,2.48a10.85,10.85,0,0,0,.2,2.35c0,.12.28.25.72.37a3.93,3.93,0,0,0,.9.19c.05,0,.08.13.09.38a1.52,1.52,0,0,1,0,.51l-1.37-.09q-1.21-.07-1.82-.06T28.34,20L27,20.09a.76.76,0,0,1-.11-.5c0-.26,0-.39.1-.39a3.09,3.09,0,0,0,.87-.2q.59-.2.64-.38a7.51,7.51,0,0,0,.2-1.91l0-2.48a5.67,5.67,0,0,0-.61-3,2.1,2.1,0,0,0-1.87-.85,2.42,2.42,0,0,0-1.46.47,1.26,1.26,0,0,0-.62,1l0,4.49a10.88,10.88,0,0,0,.2,2.35c0,.12.27.25.7.37a3.67,3.67,0,0,0,.85.19c.07,0,.11.13.12.38a1.48,1.48,0,0,1,0,.51L24.6,20q-1.16-.07-1.76-.06T21,20l-1.4.11a.76.76,0,0,1-.11-.5c0-.26,0-.39.1-.39a3.65,3.65,0,0,0,1-.2c.43-.13.66-.26.69-.38a8.55,8.55,0,0,0,.17-1.91l0-4.26A2.48,2.48,0,0,0,21,10.83a1.26,1.26,0,0,0-.59-.39,3.08,3.08,0,0,0-.63-.15c-.17,0-.25,0-.25-.08,0-.5,0-.77.12-.78a37.11,37.11,0,0,0,4.2-.81l.07,0H24c.07,0,.13.06.18.18A.81.81,0,0,1,24.3,9a8.6,8.6,0,0,0-.1.94c0,.07,0,.11,0,.13a.38.38,0,0,0,.13-.08A5.77,5.77,0,0,1,26,8.91,4.58,4.58,0,0,1,28,8.43Z"/><path class="cls-1" d="M46.15,8.3a3.21,3.21,0,0,1,2.44.83A4.18,4.18,0,0,1,49.41,12l0,5.15a1.19,1.19,0,0,0,.24.8.78.78,0,0,0,.63.27,1.63,1.63,0,0,0,.89-.35c.1,0,.16.13.16.29a1.55,1.55,0,0,1-.15.78,6.48,6.48,0,0,1-1,.66,2.74,2.74,0,0,1-1.25.35,1.91,1.91,0,0,1-1.18-.44,2.14,2.14,0,0,1-.76-1l-.2.17q-.17.15-.47.36a7.7,7.7,0,0,1-.68.42,4.19,4.19,0,0,1-.89.36,3.74,3.74,0,0,1-1,.15,3.12,3.12,0,0,1-2.13-.7,2.49,2.49,0,0,1-.84-2A2.39,2.39,0,0,1,41,16.2a3.11,3.11,0,0,1,.71-.91,5.32,5.32,0,0,1,1.12-.7,10.82,10.82,0,0,1,1.21-.52l1.3-.41,1.11-.35a.41.41,0,0,0,.23-.42V11.45A2.24,2.24,0,0,0,46.29,10a1.37,1.37,0,0,0-1.13-.51,1.58,1.58,0,0,0-1.22.49,2,2,0,0,0-.43,1.37.84.84,0,0,1-.39.77,1.63,1.63,0,0,1-.89.25,1.47,1.47,0,0,1-1.36-.62q0-1.25,1.69-2.36A6.55,6.55,0,0,1,46.15,8.3Zm-1.1,10A2,2,0,0,0,46.26,18a1,1,0,0,0,.5-.84l0-2.66c-.12.05-.38.14-.77.27s-.69.23-.9.32a7.1,7.1,0,0,0-.73.37,1.58,1.58,0,0,0-.61.58,1.44,1.44,0,0,0-.19.73A1.61,1.61,0,0,0,44,18,1.5,1.5,0,0,0,45,18.34Z"/><path class="cls-1" d="M60.39,8.19A2.61,2.61,0,0,1,62.54,9q0,2.22-1.24,2.23a1.56,1.56,0,0,1-1-.52,1.63,1.63,0,0,0-1.13-.51,1.4,1.4,0,0,0-1.26.83,3.47,3.47,0,0,0-.45,1.71l0,3.27a10.86,10.86,0,0,0,.2,2.35c0,.12.27.25.7.37a3.66,3.66,0,0,0,.88.19q.08,0,.09.38a2.71,2.71,0,0,1,0,.51l-1.39-.09q-1.17-.07-1.78-.07t-1.82.09L53,19.9a.77.77,0,0,1-.11-.5c0-.26,0-.39.1-.39a3.66,3.66,0,0,0,1-.2c.43-.13.66-.26.69-.38a8.55,8.55,0,0,0,.17-1.91l0-4.26a2.49,2.49,0,0,0-.43-1.67,1.27,1.27,0,0,0-.59-.39,2.9,2.9,0,0,0-.63-.15c-.17,0-.25,0-.25-.08q0-.76.12-.78a37,37,0,0,0,4.2-.81l.21-.05c.07,0,.13.06.18.18a.63.63,0,0,1,.07.3l0,.37c0,.17,0,.34-.06.52a3.53,3.53,0,0,0,0,.35,4.79,4.79,0,0,1,1.27-1.28A2.86,2.86,0,0,1,60.39,8.19Z"/><path class="cls-1" d="M65.77,10H64.17Q64,10,64,9.32a.64.64,0,0,1,0-.24,7.31,7.31,0,0,0,2-1.4l.74-.78q.4-.43.95-1.12a1.83,1.83,0,0,1,.5.06c.16,0,.24.09.24.14l0,2.56h3.19c.14,0,.21.08.21.23a2.54,2.54,0,0,1-.25,1.15l-3.13,0,0,6.3A2.47,2.47,0,0,0,69,17.85a1.49,1.49,0,0,0,1.23.54,2.53,2.53,0,0,0,.55-.07,2.83,2.83,0,0,0,.47-.15l.34-.16.18-.08c.07,0,.15.06.24.23s.12.29.11.34a2.41,2.41,0,0,1-1.1.86,4.11,4.11,0,0,1-1.86.5A3.3,3.3,0,0,1,66.78,19a3.5,3.5,0,0,1-1-2.7Z"/><path class="cls-1" d="M78.35,15.9a9.54,9.54,0,0,0,.23,2.35q.05.18.71.37a3.88,3.88,0,0,0,.89.19q.1,0,.12.38a1.5,1.5,0,0,1,0,.51l-1.4-.09q-1.21-.07-1.79-.07t-1.84.09l-1.37.11a.76.76,0,0,1-.11-.5c0-.26,0-.39.1-.39a3.81,3.81,0,0,0,.94-.2c.43-.13.67-.26.7-.38a8.55,8.55,0,0,0,.17-1.91l0-4.26a2.48,2.48,0,0,0-.43-1.67,1.45,1.45,0,0,0-.6-.39A2.83,2.83,0,0,0,74,9.9c-.17,0-.26,0-.26-.08q0-.76.15-.78A19.85,19.85,0,0,0,76,8.71,20.55,20.55,0,0,0,78,8.22l.21-.05c.09,0,.16.06.21.18a.49.49,0,0,1,.06.29,22.31,22.31,0,0,0-.19,2.25ZM75.56,5a1.59,1.59,0,0,1-.48-1.15,1.55,1.55,0,0,1,.46-1.14,1.62,1.62,0,0,1,2.78,1.12A1.59,1.59,0,0,1,77.86,5a1.61,1.61,0,0,1-2.3,0Z"/><path class="cls-1" d="M86,8a11.09,11.09,0,0,1,3,.42,14.84,14.84,0,0,1,.31,2.92c0,.14-.11.21-.34.21-.38,0-.59-.07-.63-.21a3.17,3.17,0,0,0-.78-1.55A2,2,0,0,0,86,9.16a1.88,1.88,0,0,0-1.19.35,1.16,1.16,0,0,0-.42,1,1.51,1.51,0,0,0,.15.67,1.62,1.62,0,0,0,.47.56,6,6,0,0,0,.58.41c.17.1.42.24.75.41l.26.13.39.21.43.23.42.24a4.64,4.64,0,0,1,.46.3l.41.31a2,2,0,0,1,.39.36l.32.4a1.72,1.72,0,0,1,.28.47,5.16,5.16,0,0,1,.15.5,2.45,2.45,0,0,1,.07.56,3.08,3.08,0,0,1-1.25,2.61,5,5,0,0,1-3.06,1,8.73,8.73,0,0,1-3.37-.71A10.44,10.44,0,0,1,82,17.66a12.54,12.54,0,0,1-.14-1.5A.55.55,0,0,1,82.2,16q.6,0,.63.2a2.88,2.88,0,0,0,1,1.76,2.79,2.79,0,0,0,1.79.65,1.9,1.9,0,0,0,1.2-.37,1.28,1.28,0,0,0,.46-1.07,1.75,1.75,0,0,0-.07-.48,1.29,1.29,0,0,0-.25-.44l-.3-.36a1.9,1.9,0,0,0-.47-.35l-.52-.3-.65-.33-.67-.35a6.07,6.07,0,0,1-1.87-1.38,2.79,2.79,0,0,1-.67-1.86,2.8,2.8,0,0,1,1.24-2.46A5,5,0,0,1,86,8Z"/><path class="cls-1" d="M93.11,9.79H91.51c-.12,0-.18-.23-.19-.68a.64.64,0,0,1,0-.24,7.31,7.31,0,0,0,2-1.4l.74-.78q.4-.43.95-1.12a1.83,1.83,0,0,1,.5.06c.16,0,.24.09.24.14l0,2.56H99c.14,0,.21.08.21.23a2.54,2.54,0,0,1-.25,1.15l-3.13,0,0,6.29a2.47,2.47,0,0,0,.46,1.59,1.49,1.49,0,0,0,1.23.54,2.47,2.47,0,0,0,.55-.07,2.84,2.84,0,0,0,.47-.15l.34-.16.18-.08c.07,0,.15.06.24.23s.12.29.11.34a2.4,2.4,0,0,1-1.1.86,4.11,4.11,0,0,1-1.86.5,3.29,3.29,0,0,1-2.32-.86,3.5,3.5,0,0,1-1-2.7Z"/><path class="cls-1" d="M113.85,7.83a5.28,5.28,0,0,1,3,.84,5.47,5.47,0,0,1,2.59,4.63,6.11,6.11,0,0,1-6.09,6.26,6.09,6.09,0,0,1-1.86-.35c-.07,0-.1.12-.1.37v1.78a9.44,9.44,0,0,0,.23,2.35c0,.14.25.27.69.4a4.11,4.11,0,0,0,.9.19c.05,0,.08.13.09.38a2.38,2.38,0,0,1,0,.48l-1.4-.07q-1.22-.07-1.79-.07t-1.84.09l-1.4.09a.94.94,0,0,1-.08-.48c0-.25,0-.38.08-.38a3.61,3.61,0,0,0,1-.2c.43-.13.67-.27.72-.41a9.4,9.4,0,0,0,.14-1.88l-.07-10a2.54,2.54,0,0,0-.43-1.7,1.18,1.18,0,0,0-.58-.37,3.14,3.14,0,0,0-.63-.14c-.17,0-.26,0-.26-.08q0-.76.15-.79A20,20,0,0,0,110.74,8l.5-.13q.1,0,.11.55a1.49,1.49,0,0,1,0,.31,5.28,5.28,0,0,1,1.16-.62A3.77,3.77,0,0,1,113.85,7.83Zm-.62,1.39a2,2,0,0,0-1.39.51,1.73,1.73,0,0,0-.53,1.34l0,5.38a1.61,1.61,0,0,0,.72,1.37,2.53,2.53,0,0,0,1.52.5,2.45,2.45,0,0,0,2-1.11,5,5,0,0,0,.8-3.09,6.75,6.75,0,0,0-.86-3.51A2.57,2.57,0,0,0,113.23,9.22Z"/><path class="cls-1" d="M128.74,7.7a2.61,2.61,0,0,1,2.15.85q0,2.22-1.24,2.23a1.56,1.56,0,0,1-1-.52,1.64,1.64,0,0,0-1.13-.51,1.4,1.4,0,0,0-1.26.83,3.47,3.47,0,0,0-.45,1.71l0,3.27a10.87,10.87,0,0,0,.2,2.35c0,.12.27.25.7.37a3.61,3.61,0,0,0,.88.19c.05,0,.08.13.09.38a2.7,2.7,0,0,1,0,.51l-1.39-.09q-1.17-.07-1.78-.07t-1.82.09l-1.4.11a.76.76,0,0,1-.11-.5c0-.26,0-.39.1-.39a3.65,3.65,0,0,0,1-.2q.64-.2.69-.38a8.55,8.55,0,0,0,.17-1.91l0-4.26a2.48,2.48,0,0,0-.43-1.67,1.26,1.26,0,0,0-.59-.39,3,3,0,0,0-.63-.15c-.17,0-.25,0-.25-.08q0-.76.12-.78a37.11,37.11,0,0,0,4.2-.81l.21-.05c.07,0,.13.06.18.18a.63.63,0,0,1,.07.3l0,.37c0,.17,0,.34-.06.52a3.53,3.53,0,0,0,0,.35,4.79,4.79,0,0,1,1.27-1.28A2.86,2.86,0,0,1,128.74,7.7Z"/><path class="cls-1" d="M138.49,7.63a5.76,5.76,0,0,1,4.21,1.68,5.6,5.6,0,0,1,1.77,4.13,5.92,5.92,0,0,1-11.83.09,5.63,5.63,0,0,1,1.68-4.17A5.72,5.72,0,0,1,138.49,7.63Zm-.33,1.23a2.1,2.1,0,0,0-1.9,1.2,5.62,5.62,0,0,0-.66,2.84,7.61,7.61,0,0,0,.88,3.68,2.61,2.61,0,0,0,2.38,1.55,2.13,2.13,0,0,0,1.91-1.22,5.56,5.56,0,0,0,.67-2.83,9,9,0,0,0-.36-2.52A4.6,4.6,0,0,0,140,9.63,2.42,2.42,0,0,0,138.16,8.86Z"/><path class="cls-1" d="M148.25,11.58a2.49,2.49,0,0,0-.43-1.67,1.27,1.27,0,0,0-.58-.39,2.79,2.79,0,0,0-.63-.15c-.17,0-.26,0-.26-.08q0-.76.15-.79a20,20,0,0,0,2.11-.33,20.52,20.52,0,0,0,2.06-.49l.21-.05c.09,0,.16.06.21.18a.48.48,0,0,1,.05.29q-.2,1.78-.19,2.25l0,6.27A10,10,0,0,1,149.89,22,6.84,6.84,0,0,1,148,23.9,6.35,6.35,0,0,1,146,25a.68.68,0,0,1-.4-.49s0-.06,0-.12a.18.18,0,0,1,0-.12,2.58,2.58,0,0,0,.57-.36q.23-.2.53-.5a3.61,3.61,0,0,0,.58-.84,7.89,7.89,0,0,0,.51-1.25,9.71,9.71,0,0,0,.37-1.77,17.24,17.24,0,0,0,.13-2.31Zm-.13-7.12a1.59,1.59,0,0,1-.48-1.15,1.55,1.55,0,0,1,.46-1.14,1.62,1.62,0,0,1,2.78,1.12,1.59,1.59,0,0,1-.46,1.15,1.61,1.61,0,0,1-2.3,0Z"/><path class="cls-1" d="M159,7.48a4.84,4.84,0,0,1,2.2.47,4.14,4.14,0,0,1,1.52,1.22,6.07,6.07,0,0,1,.85,1.54,4.52,4.52,0,0,1,.3,1.53c0,.38-.06.62-.19.72a1.48,1.48,0,0,1-.8.15l-6.24,0c-.12,0-.18.05-.18.16a5.09,5.09,0,0,0,.35,1.83A3.58,3.58,0,0,0,158,16.66a3.07,3.07,0,0,0,2,.64,7.28,7.28,0,0,0,.76,0,4,4,0,0,0,.68-.14l.55-.17a2.27,2.27,0,0,0,.48-.24l.35-.22.52-.36a.42.42,0,0,1,.13.16.5.5,0,0,1,.08.26.8.8,0,0,1-.15.5,4.25,4.25,0,0,1-1.53,1.42,4.84,4.84,0,0,1-2.58.72,5.29,5.29,0,0,1-3.93-1.66,5.63,5.63,0,0,1-1.68-4.08,6,6,0,0,1,1.5-4.29A5.06,5.06,0,0,1,159,7.48Zm-.17,1.2a1.84,1.84,0,0,0-1.12.37,2.46,2.46,0,0,0-.75.89,4.94,4.94,0,0,0-.37,1,3.17,3.17,0,0,0-.11.77c0,.12.05.18.16.18l4.23,0c.16,0,.23-.13.23-.39a3.39,3.39,0,0,0-.63-1.85A1.87,1.87,0,0,0,158.86,8.68Z"/><path class="cls-1" d="M171,7.39a6.31,6.31,0,0,1,2.47.44,4.17,4.17,0,0,1,1.56,1,3.22,3.22,0,0,1-.29,1.48,1,1,0,0,1-.9.59,1.17,1.17,0,0,1-.8-.25,2.93,2.93,0,0,1-.62-.86,1.89,1.89,0,0,0-1.76-1.19,2,2,0,0,0-1.78,1.15,5.58,5.58,0,0,0-.65,2.87,5.29,5.29,0,0,0,1,3.48,3.09,3.09,0,0,0,2.46,1.12,7,7,0,0,0,.76,0,3.86,3.86,0,0,0,.68-.14l.55-.17a2.22,2.22,0,0,0,.48-.24l.35-.22L175,16a.44.44,0,0,1,.13.16.51.51,0,0,1,.08.26.8.8,0,0,1-.15.5,4.26,4.26,0,0,1-1.53,1.42,4.8,4.8,0,0,1-2.56.72,5.28,5.28,0,0,1-4-1.67,5.76,5.76,0,0,1-1.66-4.14,5.94,5.94,0,0,1,1.54-4.13A5.27,5.27,0,0,1,171,7.39Z"/><path class="cls-1" d="M178.5,9.17h-1.59q-.18,0-.19-.68a.64.64,0,0,1,0-.24,7.29,7.29,0,0,0,2-1.4l.74-.78q.4-.43.95-1.12a1.83,1.83,0,0,1,.5.06c.16,0,.24.09.24.14l0,2.56h3.19c.14,0,.21.08.21.23a2.55,2.55,0,0,1-.25,1.15l-3.13,0,0,6.3a2.47,2.47,0,0,0,.46,1.59,1.49,1.49,0,0,0,1.23.54,2.47,2.47,0,0,0,.55-.07,2.74,2.74,0,0,0,.47-.15l.34-.16.18-.08c.07,0,.15.06.24.23s.12.29.11.34a2.41,2.41,0,0,1-1.1.86,4.12,4.12,0,0,1-1.86.5,3.29,3.29,0,0,1-2.32-.86,3.5,3.5,0,0,1-1-2.7Z"/><path class="cls-1" d="M198.77,7.19a5.31,5.31,0,0,1,2.92.8,5.47,5.47,0,0,1,2,2.08,5.57,5.57,0,0,1,.69,2.62,6,6,0,0,1-1.78,4.39,5.76,5.76,0,0,1-4.18,1.85,8.24,8.24,0,0,1-1.91-.18,5.64,5.64,0,0,0-1.23-.19,2,2,0,0,0-.68.19,2.71,2.71,0,0,1-.52.19,1.25,1.25,0,0,1-.38-.15c-.2-.1-.3-.19-.3-.26s0-.21,0-.47.07-.64.12-1.12a14.55,14.55,0,0,0,.07-1.59l-.08-10.66a9.1,9.1,0,0,0-.17-1.78q-.13-.42-1.36-.41h-.24c-.1,0-.16-.14-.16-.42s0-.42.15-.42q.81-.08,1.54-.22t1.21-.27q.48-.13.83-.27l.74-.27h.05a.28.28,0,0,1,.21.14.73.73,0,0,1,.13.27,9.15,9.15,0,0,0-.27,2.46l0,4.18v0c0,.05,0,.09,0,.12a.69.69,0,0,0,0,.12c0,.05,0,.08.05.08l.09,0a4.8,4.8,0,0,1,1.05-.53A3.75,3.75,0,0,1,198.77,7.19Zm-.56,1.41a2,2,0,0,0-1.41.51,1.54,1.54,0,0,0-.54,1.18l0,5.54a1.57,1.57,0,0,0,.7,1.38,2.83,2.83,0,0,0,1.64.46,2.22,2.22,0,0,0,2-1.24,6,6,0,0,0,.67-3,6.71,6.71,0,0,0-.83-3.55A2.56,2.56,0,0,0,198.21,8.61Z"/><path class="cls-1" d="M208.89,7.38q.57,0,1.65-.09t1.33-.09a1.75,1.75,0,0,1,.06.47q0,.37-.1.37a2.82,2.82,0,0,0-.82.2c-.37.13-.57.28-.58.43v.16q.06.42,2.47,5.94.21-.47,1-2.58t.92-2.42A2.44,2.44,0,0,0,215,9a.82.82,0,0,0-.42-.64A2.16,2.16,0,0,0,213.28,8c-.07,0-.11-.13-.11-.39a.66.66,0,0,1,.1-.44c.21,0,.63,0,1.28.07s1.18.07,1.59.07.81,0,1.35-.09.92-.08,1.16-.09a.74.74,0,0,1,.11.42c0,.28,0,.42-.1.42a3.32,3.32,0,0,0-1.06.27,1.44,1.44,0,0,0-.9.79L212,20.63q-1.59,3.83-3.87,3.84a1.41,1.41,0,0,1-1-.36,1.22,1.22,0,0,1,.12-1.86,3.46,3.46,0,0,0,3.56-2.17l.69-1.78L207.6,9.45a3.41,3.41,0,0,0-.32-.6,1.57,1.57,0,0,0-.77-.58,2.47,2.47,0,0,0-.85-.19c-.07,0-.11-.12-.11-.37s0-.44.07-.47l1.4.07Q208.26,7.38,208.89,7.38Z"/><path class="cls-1" d="M230.72,5l.07,9.82a7.65,7.65,0,0,0,.25,2.09q.13.34,1.78.33h1a7,7,0,0,0,3.11-.57,3,3,0,0,0,.93-.92,5.56,5.56,0,0,0,.8-1.6c0-.11.14-.16.36-.16a1.12,1.12,0,0,1,.73.15l-.37,1.07-.45,1.27q-.15.43-.33,1.06a7.1,7.1,0,0,0-.23,1q-1,0-4.32,0t-4.61,0l-3.47.13a.67.67,0,0,1-.08-.42c0-.3,0-.44.08-.44a4.31,4.31,0,0,0,1-.18c.43-.12.68-.25.75-.41a9.53,9.53,0,0,0,.17-2.38l-.07-9.87a7.94,7.94,0,0,0-.23-2.22c-.07-.14-.31-.27-.73-.4a3.5,3.5,0,0,0-.94-.19c-.07,0-.11-.13-.11-.39a1,1,0,0,1,0-.47l1.45.07q1.32.07,2,.06l3.34-.18a1.34,1.34,0,0,1,.08.42c0,.3,0,.44-.1.45a4.24,4.24,0,0,0-.94.22q-.7.21-.76.4A9.72,9.72,0,0,0,230.72,5Z"/><path class="cls-1" d="M252.73,9.62l0,5.17a5.78,5.78,0,0,0,.22,1.83.55.55,0,0,0,.3.21,2,2,0,0,0,.46.1l.43,0a.48.48,0,0,1,.22,0c.07,0,.11.09.11.23a2,2,0,0,1-.05.35c0,.17-.08.25-.15.25a6,6,0,0,0-.93.1l-1.08.19-1,.2-1,.22c-.12,0-.18-.14-.19-.42V17c0-.09,0-.13-.08-.13A5.82,5.82,0,0,1,248.4,18a4.37,4.37,0,0,1-2.06.54,2.73,2.73,0,0,1-1.56-.43A3.16,3.16,0,0,1,243.73,17a5.64,5.64,0,0,1-.56-1.51,8,8,0,0,1-.18-1.64l0-2.93a2.49,2.49,0,0,0-.43-1.67,1.46,1.46,0,0,0-.6-.39,2.79,2.79,0,0,0-.63-.15c-.17,0-.26,0-.26-.08,0-.5,0-.77.13-.79a19.66,19.66,0,0,0,2.14-.33A20.49,20.49,0,0,0,245.37,7l.1,0,.1,0c.09,0,.15.06.2.18a1,1,0,0,1,.07.29,22.7,22.7,0,0,0-.22,2.3l0,3.13a5.58,5.58,0,0,0,.6,2.92,2.31,2.31,0,0,0,3.27.36,1.39,1.39,0,0,0,.57-1l0-4.31a2.49,2.49,0,0,0-.43-1.67,1.26,1.26,0,0,0-.59-.39,2.87,2.87,0,0,0-.64-.15c-.17,0-.26,0-.26-.08q0-.76.15-.78a20.37,20.37,0,0,0,2.11-.33A20.52,20.52,0,0,0,252.45,7l.21-.05c.09,0,.16.06.21.18a.49.49,0,0,1,.05.29Q252.73,9.15,252.73,9.62Z"/><path class="cls-1" d="M266.89,1.11l2.85,0q2.12,0,5.77-.3c.05,0,.11.13.17.34a1.89,1.89,0,0,1,.1.52q0,.1-2.42,3.74t-4.77,7.21l-2.38,3.6a1.06,1.06,0,0,0-.15.39q0,.26.37.26l5,0a4.19,4.19,0,0,0,4.18-3.14c0-.09.15-.13.34-.13a1,1,0,0,1,.73.2q-1.1,3.53-1.25,4.45l-13.24.1a1,1,0,0,1-.21-.68.72.72,0,0,1,.1-.44l9.71-14.73-5,0a6.35,6.35,0,0,0-1.57.22,2,2,0,0,0-1,.67,4.44,4.44,0,0,0-.59.94,11.17,11.17,0,0,0-.46,1.32c0,.09-.14.13-.31.13-.45,0-.73-.06-.84-.18q.63-3.27.78-4.66a13.73,13.73,0,0,0,1.92.13Q266.37,1.11,266.89,1.11Z"/><path class="cls-1" d="M286.85,6.55q3.34,0,3.38,5.12l0,2.69a9.54,9.54,0,0,0,.23,2.35c0,.12.25.25.69.37a4,4,0,0,0,.9.19c.05,0,.08.13.09.38a2.8,2.8,0,0,1,0,.51l-1.4-.09Q289.54,18,289,18t-1.76.09l-1.37.11a1,1,0,0,1-.08-.5c0-.26,0-.39.08-.39a3.09,3.09,0,0,0,.9-.2c.39-.13.61-.26.66-.38a9.94,9.94,0,0,0,.14-1.91l0-2.56a5.46,5.46,0,0,0-.61-3A2.14,2.14,0,0,0,285,8.47a2.5,2.5,0,0,0-1.43.45,1.23,1.23,0,0,0-.65,1l0,4.49a9.54,9.54,0,0,0,.23,2.35c0,.12.27.25.7.37a3.68,3.68,0,0,0,.88.19c.05,0,.08.13.09.38a1.53,1.53,0,0,1,0,.51l-1.37-.09q-1.16-.07-1.76-.07t-1.82.09l-1.4.11a.77.77,0,0,1-.11-.5c0-.26,0-.39.1-.39a3.68,3.68,0,0,0,1-.2c.42-.13.66-.26.69-.38a8.46,8.46,0,0,0,.17-1.88L280.22,4a10.26,10.26,0,0,0-.14-1.78q-.13-.42-1.36-.41h-.24c-.1,0-.16-.14-.16-.42s0-.42.15-.42Q279.28.94,280,.8t1.21-.27q.48-.13.83-.27L282.8,0h.05a.28.28,0,0,1,.21.14.73.73,0,0,1,.13.27,8.42,8.42,0,0,0-.3,2.46l0,5.28q0,.16.11.16s.05,0,.1-.08a5,5,0,0,1,1.6-1.15A4.81,4.81,0,0,1,286.85,6.55Z"/><path class="cls-1" d="M299.16,6.46a3.21,3.21,0,0,1,2.44.83,4.19,4.19,0,0,1,.83,2.91l0,5.15a1.19,1.19,0,0,0,.24.79.78.78,0,0,0,.63.27,1.63,1.63,0,0,0,.89-.35c.1,0,.16.13.16.29a1.55,1.55,0,0,1-.15.79,6.48,6.48,0,0,1-1,.66,2.72,2.72,0,0,1-1.25.35,1.91,1.91,0,0,1-1.18-.44,2.14,2.14,0,0,1-.76-1l-.2.17q-.17.15-.47.36a7.71,7.71,0,0,1-.68.42,4.19,4.19,0,0,1-.89.36,3.78,3.78,0,0,1-1,.15,3.11,3.11,0,0,1-2.13-.7,2.48,2.48,0,0,1-.84-2,2.39,2.39,0,0,1,.29-1.18,3.12,3.12,0,0,1,.71-.91,5.36,5.36,0,0,1,1.12-.7,10.82,10.82,0,0,1,1.21-.52l1.3-.41,1.11-.35a.41.41,0,0,0,.23-.42V9.62a2.24,2.24,0,0,0-.43-1.43,1.37,1.37,0,0,0-1.13-.51,1.58,1.58,0,0,0-1.22.49,2,2,0,0,0-.43,1.37.84.84,0,0,1-.39.77,1.63,1.63,0,0,1-.89.25,1.48,1.48,0,0,1-1.36-.62q0-1.25,1.69-2.36A6.54,6.54,0,0,1,299.16,6.46Zm-1.1,10a2,2,0,0,0,1.21-.37,1,1,0,0,0,.5-.84l0-2.66q-.18.08-.77.27t-.9.32a7.3,7.3,0,0,0-.73.37,1.59,1.59,0,0,0-.61.58,1.44,1.44,0,0,0-.19.73,1.61,1.61,0,0,0,.43,1.22A1.5,1.5,0,0,0,298.05,16.5Z"/><path class="cls-1" d="M314.29,6.36q3.37,0,3.41,5.33l0,2.48a10.85,10.85,0,0,0,.2,2.35c0,.12.28.25.72.37a4.11,4.11,0,0,0,.9.19c.05,0,.08.13.09.38a1.52,1.52,0,0,1,0,.51l-1.37-.09q-1.21-.07-1.82-.07t-1.74.09l-1.34.11a.76.76,0,0,1-.11-.5c0-.26,0-.39.1-.39a3.13,3.13,0,0,0,.87-.2q.59-.2.64-.38a7.52,7.52,0,0,0,.2-1.91l0-2.48a5.67,5.67,0,0,0-.61-3,2.1,2.1,0,0,0-1.87-.85,2.42,2.42,0,0,0-1.46.47,1.26,1.26,0,0,0-.62,1l0,4.49a10.86,10.86,0,0,0,.2,2.35q.05.18.7.38a3.78,3.78,0,0,0,.85.19q.1,0,.12.38a1.47,1.47,0,0,1,0,.51l-1.37-.09q-1.16-.07-1.76-.07t-1.82.09l-1.4.12a.77.77,0,0,1-.11-.5c0-.26,0-.39.1-.39a3.62,3.62,0,0,0,1-.2q.64-.2.69-.38a8.56,8.56,0,0,0,.17-1.91l0-4.26a2.49,2.49,0,0,0-.43-1.67,1.27,1.27,0,0,0-.59-.39,3,3,0,0,0-.63-.15q-.25,0-.25-.08c0-.51,0-.77.12-.79a37,37,0,0,0,4.2-.81l.07,0h.14c.07,0,.13.06.18.18a.8.8,0,0,1,.08.29,8.6,8.6,0,0,0-.1.94c0,.07,0,.11,0,.13a.38.38,0,0,0,.13-.08,5.79,5.79,0,0,1,1.6-1.11A4.55,4.55,0,0,1,314.29,6.36Z"/><path class="cls-1" d="M326.26,6.32a8.28,8.28,0,0,1,2.17.32,8.06,8.06,0,0,0,2.09.32H332s.1.11.18.34a1.61,1.61,0,0,1,.13.52c0,.24,0,.37-.15.37h-1.7c-.07,0-.1,0-.1.08s.08.24.24.68a3.69,3.69,0,0,1,.24,1.25A3.78,3.78,0,0,1,329.59,13a4.48,4.48,0,0,1-3.22,1.26,11,11,0,0,1-1.62-.09,1.39,1.39,0,0,0-.57.49,1.11,1.11,0,0,0-.26.64.54.54,0,0,0,.25.44,1.76,1.76,0,0,0,.77.25q.52.07.89.1l1,0h.39a9.22,9.22,0,0,1,3.83.69,2.05,2.05,0,0,1,1.23,1.91,4.1,4.1,0,0,1-1.86,3.41,7.14,7.14,0,0,1-4.4,1.47,6.79,6.79,0,0,1-3.34-.71,2.34,2.34,0,0,1-1.44-2.13,2,2,0,0,1,.73-1.47,4.32,4.32,0,0,1,1.6-1,3,3,0,0,1-1.26-.79,1.9,1.9,0,0,1-.59-1.37q0-1.12,1.92-2.34a3.46,3.46,0,0,1-1.42-1.34,3.84,3.84,0,0,1-.67-2.12,3.53,3.53,0,0,1,1.34-2.94A5.2,5.2,0,0,1,326.26,6.32ZM330,20q0-.92-1.33-1.21a16.5,16.5,0,0,0-3.54-.27l-.13,0-.13.08-.52.23a2.26,2.26,0,0,0-.42.29,1.27,1.27,0,0,0-.35.46,1.51,1.51,0,0,0-.11.63,1.82,1.82,0,0,0,1,1.56,4.07,4.07,0,0,0,2.23.61,3.94,3.94,0,0,0,2.38-.7A2,2,0,0,0,330,20Zm-5.66-9.83a4.13,4.13,0,0,0,.54,2.15,1.62,1.62,0,0,0,1.47.87,1.55,1.55,0,0,0,1.42-.75,3.46,3.46,0,0,0,.44-1.84,4.29,4.29,0,0,0-.54-2.24,1.67,1.67,0,0,0-1.52-.85,1.47,1.47,0,0,0-1.38.82A3.8,3.8,0,0,0,324.3,10.12Z"/></svg>