<?xml version="1.0" encoding="utf-8"?>
<!-- Generator: Adobe Illustrator 21.1.0, SVG Export Plug-In . SVG Version: 6.00 Build 0)  -->
<svg version="1.1" id="Layer_1" xmlns="http://www.w3.org/2000/svg" xmlns:xlink="http://www.w3.org/1999/xlink" x="0px" y="0px"
	 viewBox="0 0 339.3 25.2" style="enable-background:new 0 0 339.3 25.2;" xml:space="preserve">
<style type="text/css">
	.st0{fill:#1928EB;}
</style>
<title>title</title>
<path class="st0" d="M9.4,2.9L15,16.5c0.3,0.7,0.5,1.3,0.8,1.9c0.2,0.3,0.5,0.5,0.8,0.6c0.3,0.1,0.7,0.2,1,0.2
	c0.1,0,0.1,0.2,0.1,0.5c0,0.1,0,0.3,0,0.4L14.4,20L11,20.2c-0.1-0.1-0.1-0.3-0.1-0.5c0-0.2,0-0.4,0.1-0.4c0.3,0,0.6-0.1,0.9-0.2
	c0.4-0.1,0.6-0.2,0.6-0.4c0.1-0.1,0.1-0.2,0.1-0.3c-0.1-0.6-0.2-1.2-0.5-1.8l-0.9-2.4c0-0.1-0.1-0.1-0.2-0.1c-0.6,0-1.3,0-2.2,0
	s-1.9,0-3,0.1c-0.1,0-0.2,0-0.2,0.1l-1,2.4c-0.2,0.5-0.4,1.1-0.5,1.7c0,0.2,0.1,0.4,0.3,0.5c0.3,0.1,0.5,0.2,0.8,0.3
	c0.3,0.1,0.5,0.1,0.8,0.1C6,19.4,6,19.6,6,19.8c0,0.2,0,0.3,0,0.5l-1.2-0.1c-0.7,0-1.3-0.1-1.8-0.1s-1,0-1.6,0.1l-1.3,0.1
	C0,20.2,0,20,0,19.9c0-0.3,0-0.5,0-0.5c0.3,0,0.7-0.1,1-0.2c0.3-0.1,0.6-0.3,0.9-0.5c0.4-0.6,0.7-1.3,1-2L7.7,4.8
	c0.2-0.7,0.6-1.3,1-1.9C8.8,2.8,9,2.7,9.1,2.7C9.2,2.7,9.3,2.8,9.4,2.9z M6.3,12.6c0.6,0,1.2,0.1,1.9,0.1s1.4,0,2.1-0.1l0.1-0.1
	l-2-5.2l-2.1,5.2C6.3,12.6,6.3,12.6,6.3,12.6z"/>
<path class="st0" d="M28,8.4c2.2,0,3.4,1.8,3.4,5.3v2.5c0,0.8,0,1.6,0.2,2.4c0,0.1,0.3,0.2,0.7,0.4c0.3,0.1,0.6,0.2,0.9,0.2
	c0,0,0.1,0.1,0.1,0.4c0,0.2,0,0.3,0,0.5L32,20c-0.8,0-1.4-0.1-1.8-0.1c-0.4,0-1,0-1.8,0.1L27,20.1c-0.1-0.1-0.1-0.3-0.1-0.5
	c0-0.3,0-0.4,0.1-0.4c0.3,0,0.6-0.1,0.9-0.2c0.4-0.1,0.6-0.3,0.6-0.4c0.1-0.6,0.2-1.3,0.2-1.9v-2.5c0.1-1-0.1-2.1-0.6-3
	c-0.4-0.6-1.1-0.9-1.9-0.9c-0.5,0-1,0.2-1.5,0.5c-0.4,0.2-0.6,0.6-0.6,1v4.5c0,0.8,0,1.6,0.2,2.4c0,0.1,0.3,0.2,0.7,0.4
	c0.3,0.1,0.6,0.2,0.9,0.2c0.1,0,0.1,0.1,0.1,0.4c0,0.2,0,0.3,0,0.5L24.6,20c-0.8,0-1.4-0.1-1.8-0.1c-0.4,0-1,0-1.8,0.1l-1.4,0.1
	c-0.1-0.1-0.1-0.3-0.1-0.5c0-0.3,0-0.4,0.1-0.4c0.3,0,0.7-0.1,1-0.2c0.4-0.1,0.7-0.3,0.7-0.4c0.1-0.6,0.2-1.3,0.2-1.9v-4.3
	c0-0.6-0.1-1.2-0.5-1.6c-0.2-0.2-0.4-0.3-0.6-0.4c-0.2-0.1-0.4-0.1-0.6-0.1c-0.2,0-0.2,0-0.2-0.1c0-0.5,0-0.8,0.1-0.8
	c1.4-0.2,2.8-0.5,4.2-0.8h0.1H24c0.1,0,0.1,0.1,0.2,0.2c0,0.1,0.1,0.1,0.1,0.2c-0.1,0.3-0.1,0.6-0.1,0.9c0,0.1,0,0.1,0,0.1
	c0,0,0.1,0,0.1-0.1c0.5-0.5,1.1-0.8,1.7-1.1C26.6,8.6,27.3,8.4,28,8.4z"/>
<path class="st0" d="M46.2,8.3c0.9-0.1,1.8,0.2,2.4,0.8c0.6,0.8,0.9,1.8,0.8,2.9v5.1c0,0.3,0.1,0.6,0.2,0.8c0.2,0.2,0.4,0.3,0.6,0.3
	c0.3,0,0.6-0.1,0.9-0.4c0.1,0,0.2,0.1,0.2,0.3c0,0.3,0,0.5-0.2,0.8c-0.3,0.3-0.6,0.5-1,0.7c-0.4,0.2-0.8,0.3-1.2,0.4
	c-0.4,0-0.8-0.2-1.2-0.4c-0.3-0.2-0.6-0.6-0.8-1l-0.2,0.2c-0.1,0.1-0.3,0.2-0.5,0.4c-0.2,0.2-0.4,0.3-0.7,0.4
	c-0.3,0.2-0.6,0.3-0.9,0.4c-0.3,0.1-0.7,0.1-1,0.1c-0.8,0-1.5-0.2-2.1-0.7c-0.6-0.5-0.9-1.2-0.8-2c0-0.4,0.1-0.7,0.2-1.1
	c0.2-0.3,0.4-0.7,0.7-0.9c0.3-0.3,0.7-0.5,1.1-0.7c0.4-0.2,0.8-0.4,1.2-0.5l1.3-0.4l1.1-0.4c0.2-0.1,0.3-0.2,0.2-0.4v-1.4
	c0-0.5-0.1-1-0.4-1.4c-0.3-0.3-0.7-0.5-1.1-0.5c-0.5,0-0.9,0.2-1.2,0.5c-0.3,0.4-0.5,0.9-0.4,1.4c0,0.3-0.1,0.6-0.4,0.8
	c-0.3,0.2-0.6,0.3-0.9,0.2c-0.5,0.1-1.1-0.2-1.4-0.6c0-0.8,0.6-1.6,1.7-2.4C43.6,8.7,44.9,8.3,46.2,8.3z M45.1,18.3
	c0.4,0,0.8-0.1,1.2-0.3c0.3-0.2,0.5-0.5,0.5-0.8v-2.7c-0.1,0.1-0.4,0.1-0.8,0.3s-0.7,0.2-0.9,0.3c-0.3,0.1-0.5,0.2-0.7,0.4
	c-0.3,0.1-0.5,0.3-0.6,0.6c-0.1,0.2-0.2,0.5-0.2,0.7c0,0.5,0.1,0.9,0.4,1.2C44.3,18.2,44.6,18.4,45.1,18.3L45.1,18.3z"/>
<path class="st0" d="M60.4,8.2C61.2,8.1,62,8.4,62.5,9c0,1.5-0.4,2.2-1.2,2.2c-0.4,0-0.7-0.2-1-0.5c-0.3-0.3-0.7-0.5-1.1-0.5
	c-0.5,0-1,0.3-1.3,0.8c-0.3,0.5-0.5,1.1-0.5,1.7V16c0,0.8,0,1.6,0.2,2.4c0,0.1,0.3,0.2,0.7,0.4c0.3,0.1,0.6,0.2,0.9,0.2
	c0.1,0,0.1,0.1,0.1,0.4c0,0.2,0,0.3,0,0.5l-1.4-0.1c-0.8,0-1.4-0.1-1.8-0.1s-1,0-1.8,0.1L53,19.9c-0.1-0.1-0.1-0.3-0.1-0.5
	c0-0.3,0-0.4,0.1-0.4c0.3,0,0.7-0.1,1-0.2c0.4-0.1,0.7-0.3,0.7-0.4c0.1-0.6,0.2-1.3,0.2-1.9v-4.3c0.1-0.6-0.1-1.2-0.4-1.7
	c-0.2-0.2-0.4-0.3-0.6-0.4c-0.2-0.1-0.4-0.1-0.6-0.1c-0.2,0-0.2,0-0.2-0.1c0-0.5,0-0.8,0.1-0.8c1.4-0.2,2.8-0.5,4.2-0.8l0.2-0.1
	c0.1,0,0.1,0.1,0.2,0.2c0,0.1,0.1,0.2,0.1,0.3v0.4c0,0.2,0,0.3-0.1,0.5c0,0.1,0,0.2,0,0.4c0.3-0.5,0.8-0.9,1.3-1.3
	C59.4,8.4,59.9,8.2,60.4,8.2z"/>
<path class="st0" d="M65.8,10h-1.6C64.1,10,64,9.8,64,9.3c0-0.1,0-0.2,0-0.2c0.7-0.4,1.4-0.8,2-1.4l0.7-0.8c0.3-0.3,0.6-0.7,0.9-1.1
	c0.2,0,0.3,0,0.5,0.1c0.2,0,0.2,0.1,0.2,0.1v2.6h3.2c0.1,0,0.2,0.1,0.2,0.2c0,0.4-0.1,0.8-0.2,1.1h-3.1v6.3c0,0.6,0.2,1.2,0.6,1.6
	c0.3,0.4,0.8,0.6,1.2,0.5c0.2,0,0.4,0,0.6-0.1c0.2,0,0.3-0.1,0.5-0.1l0.3-0.2l0.2-0.1c0.1,0,0.2,0.1,0.2,0.2s0.1,0.3,0.1,0.3
	c-0.3,0.4-0.7,0.7-1.1,0.9c-0.6,0.3-1.2,0.5-1.9,0.5c-0.9,0-1.7-0.3-2.4-0.9c-0.7-0.7-1.1-1.7-1-2.7L65.8,10z"/>
<path class="st0" d="M78.3,15.9c0,0.8,0.1,1.6,0.2,2.4c0,0.1,0.3,0.2,0.7,0.4c0.3,0.1,0.6,0.2,0.9,0.2c0.1,0,0.1,0.1,0.1,0.4
	c0,0.2,0,0.3,0,0.5l-1.4-0.1c-0.8,0-1.4-0.1-1.8-0.1s-1,0-1.8,0.1l-1.4,0.1c-0.1-0.1-0.1-0.3-0.1-0.5c0-0.3,0-0.4,0.1-0.4
	c0.3,0,0.6-0.1,0.9-0.2c0.4-0.1,0.7-0.3,0.7-0.4c0.1-0.6,0.2-1.3,0.2-1.9v-4.3c0.1-0.6-0.1-1.2-0.4-1.7c-0.2-0.2-0.4-0.3-0.6-0.4
	C74.5,10,74.2,9.9,74,9.9c-0.2,0-0.3,0-0.3-0.1c0-0.5,0.1-0.8,0.2-0.8C74.6,9,75.3,8.9,76,8.7c0.7-0.1,1.3-0.3,2-0.5l0.2-0.1
	c0.1,0,0.2,0.1,0.2,0.2c0,0.1,0.1,0.2,0.1,0.3c-0.1,0.7-0.2,1.5-0.2,2.2L78.3,15.9z M75.6,5c-0.3-0.3-0.5-0.7-0.5-1.2
	c0-0.4,0.2-0.8,0.5-1.1c0.6-0.6,1.7-0.7,2.3,0c0.3,0.3,0.5,0.7,0.5,1.1c0,0.4-0.2,0.9-0.5,1.2C77.2,5.6,76.2,5.6,75.6,5
	C75.6,5,75.6,5,75.6,5z"/>
<path class="st0" d="M86,8c1,0,2,0.1,3,0.4c0.2,1,0.3,1.9,0.3,2.9c0,0.1-0.1,0.2-0.3,0.2c-0.4,0-0.6-0.1-0.6-0.2
	c-0.1-0.6-0.4-1.1-0.8-1.6c-0.4-0.4-1-0.7-1.6-0.6c-0.4,0-0.8,0.1-1.2,0.4c-0.3,0.2-0.5,0.6-0.4,1c0,0.2,0,0.5,0.2,0.7
	c0.1,0.2,0.3,0.4,0.5,0.6c0.2,0.1,0.4,0.3,0.6,0.4c0.2,0.1,0.4,0.2,0.8,0.4l0.3,0.1l0.4,0.2l0.4,0.2l0.4,0.2
	c0.2,0.1,0.3,0.2,0.5,0.3l0.4,0.3c0.1,0.1,0.3,0.2,0.4,0.4l0.3,0.4c0.1,0.1,0.2,0.3,0.3,0.5c0.1,0.2,0.1,0.3,0.2,0.5
	c0,0.2,0.1,0.4,0.1,0.6c0,1-0.4,2-1.2,2.6c-0.9,0.7-2,1-3.1,1c-1.2,0-2.3-0.3-3.4-0.7c-0.1-0.5-0.2-1-0.2-1.5
	c-0.1-0.5-0.1-1-0.1-1.5c0.1-0.1,0.2-0.1,0.3-0.2c0.4,0,0.6,0.1,0.6,0.2c0.1,0.7,0.5,1.3,1,1.8c0.5,0.4,1.1,0.6,1.8,0.6
	c0.4,0,0.9-0.1,1.2-0.4c0.3-0.3,0.5-0.7,0.5-1.1c0-0.2,0-0.3-0.1-0.5c-0.1-0.2-0.1-0.3-0.2-0.4l-0.3-0.4c-0.1-0.1-0.3-0.3-0.5-0.4
	l-0.5-0.3L85,14.9l-0.7-0.4c-0.7-0.3-1.3-0.8-1.9-1.4c-0.4-0.5-0.7-1.2-0.7-1.9c0-1,0.4-1.9,1.2-2.5C83.9,8.3,85,8,86,8z"/>
<path class="st0" d="M93.1,9.8h-1.6c-0.1,0-0.2-0.2-0.2-0.7c0-0.1,0-0.2,0-0.2c0.7-0.4,1.4-0.8,2-1.4l0.7-0.8
	C94.3,6.4,94.6,6,95,5.6c0.2,0,0.3,0,0.5,0.1c0.2,0,0.2,0.1,0.2,0.1v2.6H99c0.1,0,0.2,0.1,0.2,0.2c0,0.4-0.1,0.8-0.2,1.1h-3.1V16
	c0,0.6,0.1,1.1,0.5,1.6c0.3,0.4,0.8,0.6,1.2,0.5c0.2,0,0.4,0,0.6-0.1c0.2,0,0.3-0.1,0.5-0.1l0.3-0.2l0.2-0.1c0.1,0,0.2,0.1,0.2,0.2
	s0.1,0.3,0.1,0.3c-0.3,0.4-0.7,0.7-1.1,0.9c-0.6,0.3-1.2,0.5-1.9,0.5c-0.9,0-1.7-0.3-2.3-0.9c-0.7-0.7-1.1-1.7-1-2.7L93.1,9.8z"/>
<path class="st0" d="M113.8,7.8c1.1,0,2.1,0.3,3,0.8c1.6,1,2.6,2.7,2.6,4.6c0.1,3.4-2.6,6.2-6,6.3c0,0-0.1,0-0.1,0
	c-0.6,0-1.3-0.1-1.9-0.4c-0.1,0-0.1,0.1-0.1,0.4v1.8c0,0.8,0.1,1.6,0.2,2.4c0,0.1,0.2,0.3,0.7,0.4c0.3,0.1,0.6,0.2,0.9,0.2
	c0.1,0,0.1,0.1,0.1,0.4c0,0.2,0,0.3,0,0.5l-1.4-0.1c-0.8,0-1.4-0.1-1.8-0.1c-0.4,0-1,0-1.8,0.1l-1.4,0.1c-0.1-0.2-0.1-0.3-0.1-0.5
	c0-0.2,0-0.4,0.1-0.4c0.3,0,0.7-0.1,1-0.2c0.4-0.1,0.7-0.3,0.7-0.4c0.1-0.6,0.2-1.3,0.1-1.9l-0.1-10c0.1-0.6-0.1-1.2-0.4-1.7
	c-0.2-0.2-0.4-0.3-0.6-0.4c-0.2-0.1-0.4-0.1-0.6-0.1c-0.2,0-0.3,0-0.3-0.1c0-0.5,0.1-0.8,0.2-0.8c1.3-0.1,2.6-0.4,3.8-0.8l0.5-0.1
	c0.1,0,0.1,0.2,0.1,0.6c0,0.1,0,0.2,0,0.3c0.4-0.3,0.7-0.5,1.2-0.6C112.9,7.9,113.4,7.8,113.8,7.8z M113.2,9.2c-0.5,0-1,0.2-1.4,0.5
	c-0.4,0.3-0.6,0.8-0.5,1.3v5.4c0,0.5,0.3,1.1,0.7,1.4c0.4,0.3,1,0.5,1.5,0.5c0.8,0,1.6-0.4,2-1.1c0.6-0.9,0.9-2,0.8-3.1
	c0-1.2-0.3-2.4-0.9-3.5C115.1,9.8,114.2,9.2,113.2,9.2z"/>
<path class="st0" d="M128.7,7.7c0.8-0.1,1.6,0.2,2.1,0.9c0,1.5-0.4,2.2-1.2,2.2c-0.4,0-0.7-0.2-1-0.5c-0.3-0.3-0.7-0.5-1.1-0.5
	c-0.5,0-1,0.3-1.3,0.8c-0.3,0.5-0.5,1.1-0.4,1.7v3.3c0,0.8,0,1.6,0.2,2.4c0,0.1,0.3,0.2,0.7,0.4c0.3,0.1,0.6,0.2,0.9,0.2
	c0.1,0,0.1,0.1,0.1,0.4c0,0.2,0,0.3,0,0.5l-1.4-0.1c-0.8,0-1.4-0.1-1.8-0.1c-0.4,0-1,0-1.8,0.1l-1.4,0.1c-0.1-0.1-0.1-0.3-0.1-0.5
	c0-0.3,0-0.4,0.1-0.4c0.3,0,0.7-0.1,1-0.2c0.4-0.1,0.7-0.3,0.7-0.4c0.1-0.6,0.2-1.3,0.2-1.9v-4.3c0.1-0.6-0.1-1.2-0.4-1.7
	c-0.2-0.2-0.4-0.3-0.6-0.4c-0.2-0.1-0.4-0.1-0.6-0.1c-0.2,0-0.2,0-0.2-0.1c0-0.5,0-0.8,0.1-0.8c1.4-0.2,2.8-0.5,4.2-0.8l0.2-0.1
	c0.1,0,0.1,0.1,0.2,0.2c0,0.1,0.1,0.2,0.1,0.3v0.4c0,0.2,0,0.3-0.1,0.5c0,0.1,0,0.2,0,0.4c0.3-0.5,0.8-0.9,1.3-1.3
	C127.7,7.9,128.2,7.7,128.7,7.7z"/>
<path class="st0" d="M138.5,7.6c1.6,0,3.1,0.6,4.2,1.7c1.1,1.1,1.8,2.6,1.8,4.1c-0.1,3.3-2.8,5.8-6.1,5.7c-3.1-0.1-5.6-2.6-5.7-5.6
	c0-1.6,0.6-3.1,1.7-4.2C135.4,8.2,136.9,7.6,138.5,7.6z M138.2,8.9c-0.8,0-1.6,0.5-1.9,1.2c-0.5,0.9-0.7,1.9-0.7,2.8
	c0,1.3,0.3,2.5,0.9,3.7c0.4,0.9,1.4,1.5,2.4,1.5c0.8,0,1.6-0.5,1.9-1.2c0.5-0.9,0.7-1.8,0.7-2.8c0-0.9-0.1-1.7-0.4-2.5
	c-0.2-0.7-0.6-1.4-1.1-1.9C139.5,9.1,138.9,8.8,138.2,8.9z"/>
<path class="st0" d="M148.2,11.6c0.1-0.6-0.1-1.2-0.4-1.7c-0.2-0.2-0.4-0.3-0.6-0.4c-0.2-0.1-0.4-0.1-0.6-0.1c-0.2,0-0.3,0-0.3-0.1
	c0-0.5,0.1-0.8,0.1-0.8c0.7-0.1,1.4-0.2,2.1-0.3c0.7-0.1,1.4-0.3,2.1-0.5l0.2-0.1c0.1,0,0.2,0.1,0.2,0.2c0,0.1,0.1,0.2,0.1,0.3
	c-0.1,1.2-0.2,1.9-0.2,2.2v6.3c0.2,1.9-0.2,3.7-1.1,5.4c-0.5,0.8-1.1,1.4-1.9,1.9c-0.6,0.5-1.3,0.9-2,1.1c-0.2-0.1-0.4-0.3-0.4-0.5
	c0,0,0-0.1,0-0.1c0,0,0-0.1,0-0.1c0.2-0.1,0.4-0.2,0.6-0.4c0.2-0.1,0.3-0.3,0.5-0.5c0.2-0.3,0.4-0.5,0.6-0.8
	c0.2-0.4,0.4-0.8,0.5-1.2c0.2-0.6,0.3-1.2,0.4-1.8c0.1-0.8,0.1-1.5,0.1-2.3L148.2,11.6z M148.1,4.5c-0.3-0.3-0.5-0.7-0.5-1.2
	c0-0.4,0.2-0.8,0.5-1.1c0.6-0.6,1.7-0.7,2.3,0c0.3,0.3,0.5,0.7,0.5,1.1c0,0.4-0.2,0.8-0.5,1.2C149.8,5.1,148.8,5.1,148.1,4.5
	C148.1,4.5,148.1,4.4,148.1,4.5L148.1,4.5z"/>
<path class="st0" d="M159,7.5c0.8,0,1.5,0.1,2.2,0.5c0.6,0.3,1.1,0.7,1.5,1.2c0.4,0.5,0.6,1,0.9,1.5c0.2,0.5,0.3,1,0.3,1.5
	c0,0.4-0.1,0.6-0.2,0.7c-0.2,0.1-0.5,0.2-0.8,0.1h-6.2c-0.1,0-0.2,0.1-0.2,0.2c0,0.6,0.1,1.2,0.4,1.8c0.2,0.6,0.7,1.2,1.2,1.6
	c0.6,0.4,1.3,0.7,2,0.6c0.3,0,0.5,0,0.8,0c0.2,0,0.5-0.1,0.7-0.1L162,17c0.2-0.1,0.3-0.1,0.5-0.2l0.4-0.2l0.5-0.4
	c0.1,0,0.1,0.1,0.1,0.2c0.1,0.1,0.1,0.2,0.1,0.3c0,0.2,0,0.4-0.1,0.5c-0.4,0.6-0.9,1.1-1.5,1.4c-0.8,0.5-1.7,0.7-2.6,0.7
	c-1.5,0-2.9-0.6-3.9-1.7c-1.1-1.1-1.7-2.5-1.7-4.1c-0.1-1.6,0.5-3.1,1.5-4.3C156.1,8.1,157.5,7.5,159,7.5z M158.8,8.7
	c-0.4,0-0.8,0.1-1.1,0.4c-0.3,0.2-0.6,0.5-0.8,0.9c-0.2,0.3-0.3,0.7-0.4,1c-0.1,0.3-0.1,0.5-0.1,0.8c0,0.1,0.1,0.2,0.2,0.2h4.2
	c0.2,0,0.2-0.1,0.2-0.4c0-0.7-0.2-1.3-0.6-1.9C160.1,9.1,159.5,8.7,158.8,8.7L158.8,8.7z"/>
<path class="st0" d="M171,7.4c0.8,0,1.7,0.1,2.5,0.4c0.6,0.2,1.1,0.6,1.6,1c0,0.5-0.1,1-0.3,1.5c-0.2,0.4-0.5,0.6-0.9,0.6
	c-0.3,0-0.6-0.1-0.8-0.2c-0.3-0.2-0.5-0.5-0.6-0.9c-0.3-0.7-1-1.2-1.8-1.2c-0.8,0-1.5,0.5-1.8,1.1c-0.5,0.9-0.7,1.9-0.6,2.9
	c-0.1,1.2,0.3,2.5,1,3.5c0.6,0.7,1.5,1.1,2.5,1.1c0.3,0,0.5,0,0.8,0c0.2,0,0.5-0.1,0.7-0.1l0.6-0.2c0.2-0.1,0.3-0.1,0.5-0.2l0.4-0.2
	L175,16c0.1,0,0.1,0.1,0.1,0.2c0,0.1,0.1,0.2,0.1,0.3c0,0.2,0,0.4-0.1,0.5c-0.4,0.6-0.9,1.1-1.5,1.4c-0.8,0.5-1.7,0.7-2.6,0.7
	c-1.5,0-3-0.6-4-1.7c-1.1-1.1-1.7-2.6-1.7-4.1c0-1.5,0.5-3,1.5-4.1C167.9,8,169.4,7.3,171,7.4z"/>
<path class="st0" d="M178.5,9.2h-1.6c-0.1,0-0.2-0.2-0.2-0.7c0-0.1,0-0.2,0-0.2c0.7-0.4,1.4-0.8,2-1.4l0.7-0.8
	c0.3-0.3,0.6-0.7,0.9-1.1c0.2,0,0.3,0,0.5,0.1c0.2,0,0.2,0.1,0.2,0.1v2.6h3.2c0.1,0,0.2,0.1,0.2,0.2c0,0.4-0.1,0.8-0.2,1.1h-3.1v6.3
	c0,0.6,0.1,1.1,0.5,1.6c0.3,0.4,0.8,0.6,1.2,0.5c0.2,0,0.4,0,0.6-0.1c0.2,0,0.3-0.1,0.5-0.1l0.3-0.2l0.2-0.1c0.1,0,0.1,0.1,0.2,0.2
	s0.1,0.3,0.1,0.3c-0.3,0.4-0.7,0.7-1.1,0.9c-0.6,0.3-1.2,0.5-1.9,0.5c-0.9,0-1.7-0.3-2.3-0.9c-0.7-0.7-1.1-1.7-1-2.7L178.5,9.2z"/>
<path class="st0" d="M198.8,7.2c1,0,2,0.3,2.9,0.8c0.8,0.5,1.5,1.2,2,2.1c0.4,0.8,0.7,1.7,0.7,2.6c0,1.6-0.6,3.2-1.8,4.4
	c-1.1,1.2-2.6,1.8-4.2,1.9c-0.6,0-1.3,0-1.9-0.2c-0.4-0.1-0.8-0.2-1.2-0.2c-0.2,0-0.5,0.1-0.7,0.2c-0.2,0.1-0.3,0.1-0.5,0.2
	c-0.1,0-0.3-0.1-0.4-0.1c-0.2-0.1-0.3-0.2-0.3-0.3s0-0.2,0-0.5s0.1-0.6,0.1-1.1c0.1-0.5,0.1-1.1,0.1-1.6l-0.1-10.7
	c0-0.6-0.1-1.2-0.2-1.8c-0.1-0.3-0.5-0.4-1.4-0.4h-0.2c-0.1,0-0.2-0.1-0.2-0.4s0-0.4,0.1-0.4c0.5-0.1,1.1-0.1,1.5-0.2
	c0.5-0.1,0.9-0.2,1.2-0.3c0.3-0.1,0.6-0.2,0.8-0.3l0.7-0.3h0.1c0.1,0,0.2,0.1,0.2,0.1c0.1,0.1,0.1,0.2,0.1,0.3
	c-0.2,0.8-0.3,1.6-0.3,2.5v4.2l0,0c0,0.1,0,0.1,0,0.1c0,0,0,0.1,0,0.1c0,0.1,0,0.1,0.1,0.1h0.1c0.3-0.2,0.7-0.4,1.1-0.5
	C197.8,7.3,198.3,7.2,198.8,7.2z M198.2,8.6c-0.5,0-1,0.2-1.4,0.5c-0.3,0.3-0.5,0.7-0.5,1.2v5.5c0,0.6,0.2,1.1,0.7,1.4
	c0.5,0.3,1.1,0.5,1.6,0.5c0.8,0,1.6-0.5,2-1.2c0.5-0.9,0.7-2,0.7-3c0.1-1.2-0.2-2.5-0.8-3.6C200,9.1,199.1,8.6,198.2,8.6L198.2,8.6z
	"/>
<path class="st0" d="M208.9,7.4c0.4,0,0.9,0,1.6-0.1c0.7-0.1,1.2-0.1,1.3-0.1c0,0.2,0.1,0.3,0.1,0.5c0,0.2,0,0.4-0.1,0.4
	c-0.3,0-0.6,0.1-0.8,0.2c-0.4,0.1-0.6,0.3-0.6,0.4v0.2c0,0.3,0.9,2.3,2.5,5.9c0.1-0.3,0.5-1.2,1-2.6c0.5-1.4,0.8-2.2,0.9-2.4
	c0.1-0.2,0.2-0.5,0.2-0.8c0-0.3-0.2-0.5-0.4-0.6c-0.4-0.3-0.8-0.4-1.3-0.4c-0.1,0-0.1-0.1-0.1-0.4c0-0.2,0-0.3,0.1-0.4
	c0.2,0,0.6,0,1.3,0.1s1.2,0.1,1.6,0.1s0.8,0,1.4-0.1s0.9-0.1,1.2-0.1c0.1,0.1,0.1,0.3,0.1,0.4c0,0.3,0,0.4-0.1,0.4
	c-0.4,0-0.7,0.1-1.1,0.3c-0.4,0.1-0.7,0.4-0.9,0.8L212,20.6c-1.1,2.6-2.3,3.8-3.9,3.8c-0.4,0-0.7-0.1-1-0.4c-0.5-0.5-0.5-1.2,0-1.7
	c0,0,0.1-0.1,0.2-0.1c1.5,0.2,3-0.7,3.6-2.2l0.7-1.8l-3.9-8.8c-0.1-0.2-0.2-0.4-0.3-0.6c-0.2-0.3-0.5-0.5-0.8-0.6
	c-0.3-0.1-0.6-0.2-0.9-0.2c-0.1,0-0.1-0.1-0.1-0.4s0-0.4,0.1-0.5l1.4,0.1C207.8,7.4,208.5,7.4,208.9,7.4z"/>
<path class="st0" d="M230.7,5l0.1,9.8c0,0.7,0.1,1.4,0.2,2.1c0.1,0.2,0.7,0.3,1.8,0.3h1c1.1,0,2.1-0.1,3.1-0.6
	c0.4-0.2,0.7-0.5,0.9-0.9c0.4-0.5,0.6-1,0.8-1.6c0-0.1,0.1-0.2,0.4-0.2c0.3,0,0.5,0,0.7,0.1l-0.4,1.1l-0.4,1.3
	c-0.1,0.3-0.2,0.6-0.3,1.1c-0.1,0.3-0.2,0.7-0.2,1c-0.7,0-2.1,0-4.3,0c-2.2,0-3.8,0-4.6,0l-3.5,0.1c-0.1-0.1-0.1-0.3-0.1-0.4
	c0-0.3,0-0.4,0.1-0.4c0.3,0,0.7-0.1,1-0.2c0.4-0.1,0.7-0.2,0.8-0.4c0.2-0.8,0.2-1.6,0.2-2.4L227.8,5c0-0.7,0-1.5-0.2-2.2
	c-0.1-0.1-0.3-0.3-0.7-0.4c-0.3-0.1-0.6-0.2-0.9-0.2c-0.1,0-0.1-0.1-0.1-0.4c0-0.2,0-0.3,0-0.5l1.4,0.1c0.9,0,1.5,0.1,2,0.1l3.3-0.2
	c0,0.1,0.1,0.3,0.1,0.4c0,0.3,0,0.4-0.1,0.4c-0.3,0-0.6,0.1-0.9,0.2c-0.5,0.1-0.7,0.3-0.8,0.4C230.7,3.5,230.7,4.2,230.7,5z"/>
<path class="st0" d="M252.7,9.6v5.2c0,0.6,0,1.2,0.2,1.8c0.1,0.1,0.2,0.2,0.3,0.2c0.1,0.1,0.3,0.1,0.5,0.1h0.4c0.1,0,0.1,0,0.2,0
	c0.1,0,0.1,0.1,0.1,0.2c0,0.1,0,0.2-0.1,0.4c0,0.2-0.1,0.2-0.1,0.2c-0.3,0-0.6,0-0.9,0.1l-1.1,0.2l-1,0.2l-1,0.2
	c-0.1,0-0.2-0.1-0.2-0.4V17c0-0.1,0-0.1-0.1-0.1c-0.5,0.5-1,0.8-1.6,1.1c-0.6,0.3-1.3,0.5-2.1,0.5c-0.6,0-1.1-0.1-1.6-0.4
	c-0.4-0.3-0.8-0.7-1.1-1.1c-0.3-0.5-0.4-1-0.6-1.5c-0.1-0.5-0.2-1.1-0.2-1.6v-2.9c0.1-0.6-0.1-1.2-0.4-1.7c-0.2-0.2-0.4-0.3-0.6-0.4
	c-0.2-0.1-0.4-0.1-0.6-0.1c-0.2,0-0.3,0-0.3-0.1c0-0.5,0-0.8,0.1-0.8c0.7-0.1,1.4-0.2,2.1-0.3c0.7-0.1,1.4-0.3,2-0.5h0.1h0.1
	c0.1,0,0.1,0.1,0.2,0.2c0,0.1,0.1,0.2,0.1,0.3c-0.1,0.8-0.2,1.5-0.2,2.3v3.1c-0.1,1,0.1,2,0.6,2.9c0.8,1,2.2,1.2,3.2,0.4
	c0,0,0,0,0,0c0.3-0.2,0.5-0.6,0.6-1v-4.3c0.1-0.6-0.1-1.2-0.4-1.7c-0.2-0.2-0.4-0.3-0.6-0.4c-0.2-0.1-0.4-0.1-0.6-0.1
	c-0.2,0-0.3,0-0.3-0.1c0-0.5,0.1-0.8,0.1-0.8c0.7-0.1,1.4-0.2,2.1-0.3c0.7-0.1,1.4-0.3,2-0.5l0.2-0.1c0.1,0,0.2,0.1,0.2,0.2
	c0,0.1,0.1,0.2,0.1,0.3C252.8,8.6,252.7,9.3,252.7,9.6z"/>
<path class="st0" d="M266.9,1.1h2.9c1.4,0,3.3-0.1,5.8-0.3c0,0,0.1,0.1,0.2,0.3c0.1,0.2,0.1,0.3,0.1,0.5c0,0.1-0.8,1.3-2.4,3.7
	s-3.2,4.8-4.8,7.2l-2.4,3.6c-0.1,0.1-0.1,0.3-0.1,0.4c0,0.2,0.1,0.3,0.4,0.3h5c2,0.1,3.7-1.2,4.2-3.1c0-0.1,0.1-0.1,0.3-0.1
	c0.3,0,0.5,0,0.7,0.2c-0.7,2.4-1.1,3.8-1.2,4.4l-13.2,0.1c-0.2-0.2-0.2-0.4-0.2-0.7c0-0.2,0-0.3,0.1-0.4l9.7-14.7h-5
	c-0.5,0-1.1,0.1-1.6,0.2c-0.4,0.1-0.7,0.3-1,0.7c-0.2,0.3-0.4,0.6-0.6,0.9c-0.2,0.4-0.3,0.9-0.5,1.3c0,0.1-0.1,0.1-0.3,0.1
	c-0.5,0-0.7-0.1-0.8-0.2c0.4-2.2,0.7-3.7,0.8-4.7c0.6,0.1,1.3,0.1,1.9,0.1C265.8,1.1,266.5,1.1,266.9,1.1z"/>
<path class="st0" d="M286.9,6.6c2.2,0,3.4,1.7,3.4,5.1v2.7c0,0.8,0.1,1.6,0.2,2.4c0,0.1,0.2,0.2,0.7,0.4c0.3,0.1,0.6,0.2,0.9,0.2
	c0,0,0.1,0.1,0.1,0.4c0,0.2,0,0.3,0,0.5l-1.4-0.1c-0.8,0-1.4-0.1-1.7-0.1s-0.9,0-1.8,0.1l-1.4,0.1c-0.1-0.2-0.1-0.3-0.1-0.5
	c0-0.3,0-0.4,0.1-0.4c0.3,0,0.6-0.1,0.9-0.2c0.4-0.1,0.6-0.3,0.7-0.4c0.1-0.6,0.2-1.3,0.1-1.9v-2.6c0.1-1-0.1-2.1-0.6-3
	c-0.5-0.6-1.2-0.9-2-0.8c-0.5,0-1,0.2-1.4,0.4c-0.4,0.2-0.6,0.6-0.6,1v4.5c0,0.8,0.1,1.6,0.2,2.4c0,0.1,0.3,0.2,0.7,0.4
	c0.3,0.1,0.6,0.2,0.9,0.2c0,0,0.1,0.1,0.1,0.4c0,0.2,0,0.3,0,0.5l-1.4-0.1c-0.8,0-1.4-0.1-1.8-0.1c-0.4,0-1,0-1.8,0.1l-1.4,0.1
	c-0.1-0.1-0.1-0.3-0.1-0.5c0-0.3,0-0.4,0.1-0.4c0.3,0,0.7-0.1,1-0.2c0.4-0.1,0.7-0.3,0.7-0.4c0.1-0.6,0.2-1.2,0.2-1.9L280.2,4
	c0-0.6,0-1.2-0.1-1.8c-0.1-0.3-0.5-0.4-1.4-0.4h-0.2c-0.1,0-0.2-0.1-0.2-0.4s0-0.4,0.1-0.4c0.5,0,1-0.1,1.5-0.2s0.9-0.2,1.2-0.3
	c0.3-0.1,0.6-0.2,0.8-0.3l0.8-0.3h0c0.1,0,0.2,0.1,0.2,0.1c0.1,0.1,0.1,0.2,0.1,0.3c-0.2,0.8-0.3,1.6-0.3,2.5v5.3
	c0,0.1,0,0.2,0.1,0.2c0.1,0,0,0,0.1-0.1c0.5-0.5,1-0.9,1.6-1.2C285.4,6.7,286.1,6.6,286.9,6.6z"/>
<path class="st0" d="M299.2,6.5c0.9-0.1,1.8,0.2,2.4,0.8c0.6,0.8,0.9,1.9,0.8,2.9v5.2c0,0.3,0.1,0.6,0.2,0.8
	c0.2,0.2,0.4,0.3,0.6,0.3c0.3,0,0.6-0.1,0.9-0.4c0.1,0,0.2,0.1,0.2,0.3c0,0.3,0,0.5-0.1,0.8c-0.3,0.3-0.6,0.5-1,0.7
	c-0.4,0.2-0.8,0.3-1.2,0.4c-0.4,0-0.8-0.2-1.2-0.4c-0.3-0.2-0.6-0.6-0.8-1l-0.2,0.2c-0.1,0.1-0.3,0.2-0.5,0.4
	c-0.2,0.2-0.4,0.3-0.7,0.4c-0.3,0.2-0.6,0.3-0.9,0.4c-0.3,0.1-0.7,0.1-1,0.1c-0.8,0-1.5-0.2-2.1-0.7c-0.6-0.5-0.9-1.2-0.8-2
	c0-0.4,0.1-0.8,0.3-1.2c0.2-0.3,0.4-0.7,0.7-0.9c0.3-0.3,0.7-0.5,1.1-0.7c0.4-0.2,0.8-0.4,1.2-0.5l1.3-0.4l1.1-0.4
	c0.2-0.1,0.3-0.2,0.2-0.4V9.6c0-0.5-0.1-1-0.4-1.4c-0.3-0.3-0.7-0.5-1.1-0.5c-0.5,0-0.9,0.2-1.2,0.5c-0.3,0.4-0.5,0.9-0.4,1.4
	c0,0.3-0.1,0.6-0.4,0.8c-0.3,0.2-0.6,0.3-0.9,0.2c-0.5,0.1-1.1-0.2-1.4-0.6c0-0.8,0.6-1.6,1.7-2.4C296.7,6.9,297.9,6.5,299.2,6.5z
	 M298.1,16.5c0.4,0,0.9-0.1,1.2-0.4c0.3-0.2,0.5-0.5,0.5-0.8v-2.7c-0.1,0.1-0.4,0.1-0.8,0.3c-0.4,0.1-0.7,0.2-0.9,0.3
	c-0.3,0.1-0.5,0.2-0.7,0.4c-0.3,0.1-0.5,0.3-0.6,0.6c-0.1,0.2-0.2,0.5-0.2,0.7c0,0.4,0.1,0.9,0.4,1.2
	C297.3,16.4,297.7,16.5,298.1,16.5L298.1,16.5z"/>
<path class="st0" d="M314.3,6.4c2.2,0,3.4,1.8,3.4,5.3v2.5c0,0.8,0,1.6,0.2,2.4c0,0.1,0.3,0.2,0.7,0.4c0.3,0.1,0.6,0.2,0.9,0.2
	c0,0,0.1,0.1,0.1,0.4c0,0.2,0,0.3,0,0.5l-1.4-0.1c-0.8,0-1.4-0.1-1.8-0.1s-1,0-1.7,0.1l-1.3,0.1c-0.1-0.1-0.1-0.3-0.1-0.5
	c0-0.3,0-0.4,0.1-0.4c0.3,0,0.6-0.1,0.9-0.2c0.4-0.1,0.6-0.3,0.6-0.4c0.1-0.6,0.2-1.3,0.2-1.9v-2.5c0.1-1-0.1-2.1-0.6-3
	c-0.4-0.6-1.1-0.9-1.9-0.9c-0.5,0-1,0.2-1.5,0.5c-0.4,0.2-0.6,0.6-0.6,1v4.5c0,0.8,0,1.6,0.2,2.3c0,0.1,0.3,0.2,0.7,0.4
	c0.3,0.1,0.6,0.2,0.9,0.2c0.1,0,0.1,0.1,0.1,0.4c0,0.2,0,0.3,0,0.5L311,18c-0.8,0-1.4-0.1-1.8-0.1c-0.4,0-1,0-1.8,0.1l-1.4,0.1
	c-0.1-0.1-0.1-0.3-0.1-0.5c0-0.3,0-0.4,0.1-0.4c0.3,0,0.7-0.1,1-0.2c0.4-0.1,0.7-0.3,0.7-0.4c0.1-0.6,0.2-1.3,0.2-1.9v-4.3
	c0.1-0.6-0.1-1.2-0.4-1.7c-0.2-0.2-0.4-0.3-0.6-0.4c-0.2-0.1-0.4-0.1-0.6-0.1c-0.2,0-0.2,0-0.2-0.1c0-0.5,0-0.8,0.1-0.8
	c1.4-0.2,2.8-0.5,4.2-0.8h0.1h0.1c0.1,0,0.1,0.1,0.2,0.2c0,0.1,0.1,0.2,0.1,0.3c-0.1,0.3-0.1,0.6-0.1,0.9c0,0.1,0,0.1,0,0.1
	c0,0,0.1,0,0.1-0.1c0.5-0.5,1-0.8,1.6-1.1C313,6.6,313.6,6.4,314.3,6.4z"/>
<path class="st0" d="M326.3,6.3c0.7,0,1.5,0.1,2.2,0.3c0.7,0.2,1.4,0.3,2.1,0.3h1.5c0,0,0.1,0.1,0.2,0.3c0.1,0.2,0.1,0.3,0.1,0.5
	c0,0.2,0,0.4-0.1,0.4h-1.7c-0.1,0-0.1,0-0.1,0.1s0.1,0.2,0.2,0.7c0.2,0.4,0.2,0.8,0.2,1.2c0,1.1-0.5,2.1-1.2,2.8
	c-0.9,0.8-2,1.3-3.2,1.3c-0.5,0-1.1,0-1.6-0.1c-0.2,0.1-0.4,0.3-0.6,0.5c-0.2,0.2-0.2,0.4-0.3,0.6c0,0.2,0.1,0.3,0.2,0.4
	c0.2,0.1,0.5,0.2,0.8,0.2c0.3,0,0.6,0.1,0.9,0.1h1h0.4c1.3,0,2.6,0.2,3.8,0.7c0.8,0.3,1.2,1.1,1.2,1.9c0,1.4-0.7,2.7-1.9,3.4
	c-1.3,1-2.8,1.5-4.4,1.5c-1.2,0.1-2.3-0.2-3.3-0.7c-0.9-0.4-1.4-1.2-1.4-2.1c0-0.6,0.3-1.1,0.7-1.5c0.5-0.4,1-0.8,1.6-1
	c-0.5-0.2-0.9-0.4-1.3-0.8c-0.4-0.4-0.6-0.9-0.6-1.4c0-0.7,0.6-1.5,1.9-2.3c-0.6-0.3-1.1-0.8-1.4-1.3c-0.4-0.6-0.7-1.4-0.7-2.1
	c-0.1-1.1,0.4-2.2,1.3-2.9C323.9,6.6,325,6.3,326.3,6.3z M330,20c0-0.6-0.4-1-1.3-1.2c-1.2-0.2-2.4-0.3-3.5-0.3H325l-0.1,0.1
	l-0.5,0.2c-0.2,0.1-0.3,0.2-0.4,0.3c-0.2,0.1-0.3,0.3-0.4,0.5c-0.1,0.2-0.1,0.4-0.1,0.6c0,0.7,0.4,1.3,1,1.6
	c0.7,0.4,1.4,0.6,2.2,0.6c0.8,0,1.7-0.2,2.4-0.7C329.7,21.3,330,20.7,330,20z M324.3,10.2c0,0.8,0.2,1.5,0.5,2.1
	c0.3,0.5,0.9,0.9,1.5,0.9c0.6,0,1.1-0.3,1.4-0.8c0.3-0.6,0.5-1.2,0.4-1.8c0-0.8-0.2-1.6-0.5-2.2c-0.3-0.5-0.9-0.9-1.5-0.8
	c-0.6,0-1.1,0.3-1.4,0.8C324.5,8.9,324.3,9.5,324.3,10.2L324.3,10.2z"/>
<path class="st0" d="M337.8,14.9c0.4,0.4,0.6,0.9,0.6,1.4c0,0.5-0.2,1-0.6,1.4c-0.4,0.4-0.9,0.6-1.4,0.6c-0.5,0-1.1-0.2-1.4-0.6
	c-0.4-0.4-0.6-0.9-0.6-1.4c0-0.5,0.2-1,0.6-1.4c0.4-0.4,0.9-0.6,1.4-0.6C337,14.3,337.5,14.5,337.8,14.9z"/>
</svg>
