<?xml version="1.0" encoding="utf-8"?>
<!-- Generator: Adobe Illustrator 21.1.0, SVG Export Plug-In . SVG Version: 6.00 Build 0)  -->
<svg version="1.1" id="Layer_1" xmlns="http://www.w3.org/2000/svg" xmlns:xlink="http://www.w3.org/1999/xlink" x="0px" y="0px"
	 viewBox="0 0 881.6 203.8" style="enable-background:new 0 0 881.6 203.8;" xml:space="preserve">
<style type="text/css">
	.st0{fill:#FFFFFF;stroke:#1928EB;stroke-width:1.2;stroke-miterlimit:10;}
</style>
<title>title</title>
<path class="st0" d="M106,88.3l-8.8,1.2c-0.7,0.1-1.2-1.1-1.5-3.6c-0.1-0.4-0.1-0.9,0-1.3c3.8-2.5,7.2-5.6,10-9.1
	c1.1-1.4,2.2-3,3.5-4.8c1.3-1.8,2.7-4.1,4.4-6.8c0.9-0.1,1.9-0.1,2.8,0c0.9,0.1,1.4,0.3,1.4,0.6l2,14c2.4-0.3,5.8-0.8,10.2-1.3
	l7.1-0.9c0.8-0.1,1.2,0.3,1.3,1.1c0.3,2.2,0.1,4.4-0.6,6.5l-17.2,2.4l4.8,34.6c0.5,3.8,1.8,6.6,3.7,8.4c1.9,1.8,4.6,2.6,7.2,2.1
	c1-0.1,2-0.4,3-0.8c0.9-0.3,1.7-0.7,2.5-1.1c0.6-0.4,1.2-0.8,1.7-1.1c0.3-0.2,0.6-0.4,0.9-0.6c0.4-0.1,0.9,0.2,1.5,1.1
	c0.6,0.9,0.9,1.5,0.8,1.8c-0.4,1.4-2.2,3.3-5.4,5.5c-2.9,2.1-6.3,3.5-9.9,4.1c-4.7,0.8-9.5-0.3-13.4-3c-3.9-2.7-6.4-7.4-7.3-14.1
	L106,88.3z"/>
<path class="st0" d="M178.8,67.9c8.6-1.4,17.4,0.9,24.3,6.2c7,5,11.6,12.8,12.7,21.4c2.5,17.8-9.8,34.2-27.6,36.8
	c-0.1,0-0.2,0-0.3,0c-8.6,1.4-17.5-0.9-24.4-6.2c-14.3-10.8-17.2-31.2-6.4-45.6C162.3,73.4,170.1,68.9,178.8,67.9z M177.9,74.9
	c-4.5,0.6-7.7,3.3-9.6,8c-1.9,5.1-2.5,10.7-1.6,16.1c1.1,7.7,3.6,14.3,7.5,19.6c3.9,5.3,8.6,7.6,14.2,6.8c4.5-0.6,7.7-3.3,9.6-8.1
	c2-5.1,2.5-10.6,1.6-16c-0.6-4.7-1.9-9.3-3.8-13.6c-1.7-3.8-4.2-7.2-7.5-9.8C185.4,75.4,181.6,74.3,177.9,74.9z"/>
<path class="st0" d="M574.7,116.8c-0.1,6,0.1,10.3,0.8,13c0.2,0.7,1.3,1.4,3.5,2.3c1.4,0.6,2.9,1.1,4.4,1.3c0.3,0,0.4,0.7,0.5,2
	c0.1,0.9,0,1.9-0.3,2.8l-5.4-0.5c-2.3-0.2-4.3-0.3-6.1-0.5s-3.6-0.2-5.2-0.2c-1.8,0-3.7,0-5.5,0c-1.8,0-3.9,0.1-6.1,0.2l-5.5,0.3
	c-0.5-0.8-0.7-1.8-0.5-2.7c0-1.4,0.2-2.1,0.6-2.1c1.7-0.1,3.3-0.5,4.9-1.1c2.2-0.8,3.4-1.5,3.6-2.2c0.9-3.5,1.3-7.1,1.4-10.7
	l1.1-60.2c0.1-3.3-0.1-6.6-0.7-9.9c-0.5-1.6-2.8-2.4-7.2-2.5h-1.5c-0.6,0-0.9-0.6-0.8-1.8c0-1.5,0.3-2.3,0.9-2.3
	c3-0.2,5.8-0.6,8.6-1c2.7-0.4,5-0.9,6.8-1.3c1.8-0.4,3.3-0.9,4.7-1.3c1.3-0.4,2.4-0.7,3.1-1l1-0.4h0.3c0.4,0,0.8,0.3,1.2,0.9
	c0.3,0.4,0.6,0.9,0.8,1.5c-1.3,4.4-2,9-2,13.6L574.7,116.8z"/>
<path class="st0" d="M623.4,74.5c6,0.1,10.5,1.8,13.4,5s4.3,8.6,4.2,16.2l-0.5,28.5c-0.1,1.6,0.3,3.2,1.2,4.4c0.8,1,2.1,1.6,3.4,1.6
	c1.8-0.1,3.6-0.7,5-1.8c0.6,0.2,0.9,0.7,0.8,1.6c0.1,1.5-0.3,3-1,4.3c-1.8,1.4-3.8,2.5-5.9,3.5c-2.2,1.1-4.6,1.7-7,1.8
	c-2.4-0.1-4.7-1-6.5-2.6c-1.9-1.4-3.3-3.3-4.1-5.4c-0.1,0.1-0.5,0.4-1.1,0.9s-1.5,1.2-2.6,1.9c-1.2,0.8-2.5,1.6-3.8,2.2
	c-1.6,0.8-3.3,1.4-5,1.9c-1.9,0.5-3.8,0.7-5.7,0.7c-4.8-0.1-8.7-1.5-11.7-4.2s-4.4-6.4-4.4-11c0-2.3,0.6-4.5,1.8-6.5
	c1-1.9,2.4-3.5,4.1-4.9c1.9-1.5,4-2.7,6.3-3.7c2.2-1,4.5-1.9,6.8-2.7c1.9-0.6,4.3-1.3,7.3-2.1c3-0.8,5-1.4,6.2-1.8
	c0.9-0.4,1.4-1.3,1.3-2.3l0.2-8c0.1-3.4-0.7-6-2.2-8c-1.5-1.9-3.8-3-6.2-3c-2.5-0.2-5,0.7-6.8,2.6c-1.7,1.8-2.5,4.3-2.6,7.6
	c0.1,1.7-0.7,3.3-2.2,4.2c-1.5,0.9-3.2,1.3-5,1.3c-3.6-0.1-6.1-1.3-7.5-3.6c0.1-4.6,3.3-8.9,9.7-12.8
	C609.4,76.4,616.3,74.4,623.4,74.5z M615.9,130c2.4,0.1,4.8-0.6,6.8-1.9c1.9-1.3,2.9-2.9,2.9-4.6l0.3-14.8c-0.7,0.3-2.1,0.7-4.3,1.4
	c-2.2,0.6-3.9,1.2-5,1.6c-1.4,0.6-2.8,1.3-4.1,2c-1.4,0.7-2.6,1.8-3.5,3.1c-0.7,1.2-1.1,2.6-1.2,4c-0.1,3.1,0.7,5.4,2.2,6.8
	C611.6,129.2,613.7,130,615.9,130L615.9,130z"/>
<path class="st0" d="M666.7,85.5l-8.8-0.2c-0.7,0-1-1.3-0.9-3.8c0-0.4,0-0.9,0.2-1.3c4.2-1.8,8-4.4,11.3-7.5
	c1.3-1.2,2.7-2.6,4.2-4.2s3.3-3.6,5.4-6.1c0.9,0,1.8,0.2,2.7,0.4c0.9,0.3,1.3,0.5,1.3,0.8L681.8,78c2.5,0,6,0.1,10.5,0.3l7.2,0.2
	c0.8,0,1.1,0.4,1.1,1.3c0,2.2-0.6,4.4-1.6,6.3l-17.4-0.3l-0.7,34.9c-0.1,3.9,0.7,6.8,2.3,8.9c1.6,2.1,4.1,3.2,6.8,3.2
	c1,0,2-0.1,3-0.3c0.9-0.2,1.8-0.4,2.6-0.8c0.7-0.3,1.3-0.6,1.9-0.8c0.3-0.2,0.7-0.3,1-0.4c0.4-0.1,0.8,0.4,1.3,1.3s0.6,1.6,0.5,1.9
	c-0.6,1.3-2.7,2.9-6.2,4.6c-3.2,1.6-6.8,2.5-10.4,2.5c-4.7,0-9.3-1.8-12.7-5.1c-3.5-3.3-5.1-8.3-5-15.1L666.7,85.5z"/>
<path class="st0" d="M738.8,76.7c4.2,0,8.4,1,12.1,2.9c3.3,1.6,6.1,4,8.3,7c1.9,2.6,3.4,5.6,4.5,8.6c1,2.7,1.5,5.6,1.4,8.5
	c0,2.1-0.4,3.5-1.2,4c-0.7,0.5-2.2,0.8-4.4,0.7l-34.6-0.6c-0.7,0-1,0.3-1,0.8c-0.1,3.5,0.5,6.9,1.7,10.2c1.3,3.4,3.4,6.4,6.3,8.7
	c3.1,2.5,6.9,3.8,10.9,3.8c1.4,0,2.8,0,4.2-0.1c1.3-0.1,2.5-0.3,3.8-0.6c1.2-0.3,2.2-0.6,3.1-0.9c0.9-0.3,1.9-0.7,2.7-1.2l2-1.2
	c0.4-0.2,1.4-0.9,2.9-1.9c0.3,0.2,0.5,0.5,0.7,0.9c0.3,0.4,0.4,0.9,0.4,1.5c0,1-0.3,1.9-0.9,2.7c-1.5,2.6-4.4,5.1-8.7,7.7
	c-4.4,2.5-9.4,3.8-14.4,3.6c-8.2-0.1-16-3.6-21.5-9.7c-5.9-6.1-9-14.3-8.7-22.8c0.2-9.7,3.2-17.6,8.9-23.6
	C723,79.5,730.2,76.6,738.8,76.7z M737.7,83.3c-2.2-0.1-4.4,0.6-6.3,1.9c-1.8,1.2-3.3,2.9-4.3,4.8c-0.9,1.7-1.7,3.5-2.2,5.4
	c-0.4,1.4-0.7,2.8-0.7,4.3c0,0.7,0.3,1,0.8,1l23.5,0.4c0.9,0,1.3-0.7,1.3-2.2c0-3.7-1.1-7.3-3.2-10.3
	C744.4,85.2,741.4,83.4,737.7,83.3z"/>
<path class="st0" d="M344.5,37.1c5.7-0.1,11.3,1.5,16.1,4.6c4.6,2.8,8.3,6.8,10.9,11.6c2.4,4.5,3.7,9.5,3.7,14.6
	c0.1,9.1-3.5,17.9-10.1,24.2c-6.7,6.7-14.5,10.1-23.2,10.1c-3.6,0.1-7.1-0.3-10.6-1.1c-2.2-0.6-4.5-1-6.8-1.1
	c-1.3,0.1-2.6,0.4-3.8,1c-0.9,0.4-1.9,0.8-2.9,1c-0.7-0.2-1.5-0.5-2.1-0.9c-1.1-0.6-1.7-1.1-1.7-1.4c0-0.3,0.1-1.2,0.3-2.6
	s0.4-3.5,0.7-6.2c0.3-2.9,0.4-5.9,0.4-8.8v-59c0-3.3-0.3-6.6-0.9-9.8c-0.5-1.5-3-2.3-7.5-2.3h-1.3c-0.6,0-0.9-0.8-0.9-2.3
	s0.3-2.3,0.9-2.3c3-0.3,5.8-0.7,8.5-1.2s4.9-1,6.7-1.5c1.8-0.5,3.3-1,4.6-1.5c1.3-0.5,2.7-1,4.1-1.4h0.3c0.5,0.1,0.9,0.4,1.2,0.8
	c0.3,0.4,0.6,1,0.7,1.5c-1.1,4.4-1.7,9-1.6,13.6v24c0,0.2,0,0.4,0.1,0.7c0,0.3,0.1,0.4,0.3,0.4c0.2,0,0.4-0.1,0.5-0.1
	c1.8-1.2,3.8-2.2,5.9-2.9C339.5,37.6,342,37.1,344.5,37.1z M341.3,44.9c-2.9-0.1-5.7,0.9-7.8,2.8c-1.9,1.6-3,4-3,6.5v30.7
	c-0.2,3.1,1.3,6,3.8,7.7c2.7,1.8,5.8,2.7,9,2.6c5,0,8.8-2.3,11.4-6.8s3.8-10,3.8-16.5c0-8.3-1.5-14.9-4.5-19.7
	C351.5,47.6,346.6,44.8,341.3,44.9z"/>
<path class="st0" d="M413.3,37.1c4.2-0.1,8.4,0.8,12.2,2.7c3.3,1.6,6.2,3.9,8.4,6.8c1.9,2.6,3.5,5.5,4.6,8.5c1,2.7,1.6,5.6,1.6,8.5
	c0,2.1-0.4,3.5-1.1,4c-0.7,0.5-2.2,0.8-4.4,0.8H400c-0.7,0-1,0.3-1,0.9c0,3.5,0.6,6.9,1.9,10.1c1.3,3.4,3.6,6.3,6.4,8.5
	c3.1,2.4,7,3.7,10.9,3.6c1.4,0,2.8-0.1,4.2-0.2c1.3-0.1,2.5-0.4,3.8-0.7c1.2-0.3,2.2-0.7,3-0.9c0.9-0.3,1.8-0.8,2.7-1.3l2-1.2
	c0.4-0.2,1.4-0.9,2.9-2c0.3,0.2,0.6,0.5,0.7,0.9c0.3,0.4,0.4,0.9,0.4,1.4c0,1-0.3,2-0.9,2.8c-1.4,2.6-4.3,5.2-8.5,7.8
	c-4.3,2.6-9.3,4-14.3,3.9c-8.2,0.1-16.1-3.3-21.7-9.3c-6-6-9.3-14.2-9.1-22.7c0-9.7,2.8-17.7,8.5-23.7S404.6,37.1,413.3,37.1z
	 M412.3,43.7c-2.2,0-4.4,0.7-6.2,2c-1.8,1.3-3.2,3-4.2,4.9c-0.9,1.7-1.6,3.6-2.1,5.4c-0.4,1.4-0.6,2.8-0.6,4.3c0,0.7,0.3,1,0.9,1
	h23.5c0.9,0,1.3-0.7,1.3-2.2c-0.1-3.7-1.3-7.2-3.4-10.2C419.1,45.5,416,43.7,412.3,43.7L412.3,43.7z"/>
</svg>
