<svg id="Layer_1" data-name="Layer 1" xmlns="http://www.w3.org/2000/svg" viewBox="0 0 881.6 203.8"><defs><style>.cls-1{fill:#fff;stroke:#1928eb;stroke-miterlimit:10;stroke-width:1.2px;}</style></defs><title>title</title><path class="cls-1" d="M11,151.16l-8.75,1.22q-1,.14-1.53-3.59a3.58,3.58,0,0,1,0-1.31,40.48,40.48,0,0,0,10-9.14q1.6-2.12,3.49-4.8t4.38-6.83a10.28,10.28,0,0,1,2.77,0c.9.12,1.36.32,1.4.61l2,14Q28.36,140.83,35,140l7.11-.92c.76-.11,1.21.27,1.33,1.13a14.07,14.07,0,0,1-.55,6.51l-17.21,2.41,4.84,34.55q.8,5.73,3.66,8.4a8.27,8.27,0,0,0,7.16,2.07,13.75,13.75,0,0,0,3-.78,15.35,15.35,0,0,0,2.47-1.15c.63-.38,1.21-.75,1.74-1.12a4.56,4.56,0,0,1,.94-.57q.55-.22,1.47,1.11t.83,1.78q-.58,2.13-5.44,5.51A22.81,22.81,0,0,1,36.48,203a18.25,18.25,0,0,1-13.36-3q-5.91-4.07-7.31-14.11Z"/><path class="cls-1" d="M83.81,130.73a31.92,31.92,0,0,1,24.33,6.17,31,31,0,0,1,12.71,21.39A32.5,32.5,0,0,1,93,195.08a31.71,31.71,0,0,1-24.41-6.23,32.59,32.59,0,0,1-6.45-45.58A31.72,31.72,0,0,1,83.81,130.73Zm-.92,7q-6.74.94-9.55,8a31.14,31.14,0,0,0-1.55,16.08q1.63,11.61,7.49,19.56t14.18,6.79q6.74-.94,9.61-8.07a30.78,30.78,0,0,0,1.63-16,49.67,49.67,0,0,0-3.8-13.57,25.53,25.53,0,0,0-7.52-9.84A13.43,13.43,0,0,0,82.89,137.73Z"/><path class="cls-1" d="M690.64,104.52q-.17,9,.77,13,.27,1,3.5,2.31a15.83,15.83,0,0,0,4.39,1.31c.29,0,.44.68.47,2a7.9,7.9,0,0,1-.27,2.75l-5.42-.46q-3.4-.28-6.14-.48t-5.21-.24q-2.75-.05-5.5,0t-6.09.25l-5.51.26a4.08,4.08,0,0,1-.53-2.69q0-2.1.62-2.09a15.49,15.49,0,0,0,4.87-1.14q3.28-1.17,3.59-2.18a48,48,0,0,0,1.36-10.69l1.12-60.21a50.43,50.43,0,0,0-.69-9.86q-.68-2.33-7.19-2.45l-1.45,0q-.87,0-.84-1.75c0-1.54.33-2.31.91-2.3q4.49-.35,8.56-1t6.76-1.32q2.69-.67,4.66-1.29t3.13-1l1-.42h.29q.58,0,1.21.89a4.4,4.4,0,0,1,.77,1.46,45.78,45.78,0,0,0-2,13.57Z"/><path class="cls-1" d="M739.35,62.28q9,.17,13.37,5t4.19,16.22L756.38,112a6.61,6.61,0,0,0,1.22,4.44A4.34,4.34,0,0,0,761,118a9,9,0,0,0,5-1.79q.86.31.84,1.61a8.61,8.61,0,0,1-1,4.33,35.86,35.86,0,0,1-5.86,3.51,15.09,15.09,0,0,1-7,1.75,10.58,10.58,0,0,1-6.47-2.58,11.87,11.87,0,0,1-4.1-5.43q-.15.14-1.1.92t-2.64,1.91a43,43,0,0,1-3.81,2.25,23.14,23.14,0,0,1-5,1.86,21,21,0,0,1-5.73.69q-7.24-.13-11.72-4.2t-4.36-11a13.34,13.34,0,0,1,1.79-6.48,17.3,17.3,0,0,1,4.07-4.92,29.71,29.71,0,0,1,6.29-3.72,59.65,59.65,0,0,1,6.78-2.7q2.84-.89,7.28-2.11t6.19-1.77a2.28,2.28,0,0,0,1.34-2.29l.15-8q.09-5.07-2.17-8a7.57,7.57,0,0,0-6.17-3,8.78,8.78,0,0,0-6.85,2.55q-2.51,2.63-2.6,7.55A4.69,4.69,0,0,1,722,83.17a9,9,0,0,1-4.95,1.28q-5.36-.1-7.46-3.61.13-6.95,9.72-12.85A36.31,36.31,0,0,1,739.35,62.28Zm-7.55,55.46a11.22,11.22,0,0,0,6.77-1.9q2.86-2,2.91-4.58l.27-14.76q-1,.42-4.3,1.37t-5,1.64a39.63,39.63,0,0,0-4.09,2,8.73,8.73,0,0,0-3.46,3.12,8,8,0,0,0-1.16,4q-.09,4.63,2.19,6.85A8.33,8.33,0,0,0,731.81,117.74Z"/><path class="cls-1" d="M782.59,73.22l-8.83-.16q-1,0-.94-3.78A3.6,3.6,0,0,1,773,68a40.47,40.47,0,0,0,11.29-7.46q1.92-1.85,4.21-4.19t5.4-6.05a10.29,10.29,0,0,1,2.74.41q1.3.39,1.29.82l-.26,14.18q3.76.07,10.49.27l7.16.21q1.16,0,1.13,1.32a14.08,14.08,0,0,1-1.56,6.34l-17.37-.32-.65,34.88q-.11,5.79,2.3,8.87a8.27,8.27,0,0,0,6.75,3.17,13.74,13.74,0,0,0,3-.31,15.42,15.42,0,0,0,2.62-.75c.68-.28,1.31-.56,1.9-.83a4.61,4.61,0,0,1,1-.42q.58-.13,1.28,1.33t.54,1.89q-.91,2-6.24,4.59a22.82,22.82,0,0,1-10.4,2.49,18.26,18.26,0,0,1-12.72-5.09q-5.2-4.95-5-15.08Z"/><path class="cls-1" d="M854.71,64.42a26.82,26.82,0,0,1,12.11,2.9,22.91,22.91,0,0,1,8.27,7,33.66,33.66,0,0,1,4.47,8.63,25,25,0,0,1,1.44,8.5q-.06,3.19-1.16,4t-4.43.71l-34.59-.64q-1,0-1,.85a28.14,28.14,0,0,0,1.69,10.17,19.91,19.91,0,0,0,6.28,8.66,17,17,0,0,0,10.86,3.82,39.44,39.44,0,0,0,4.2-.14,21.56,21.56,0,0,0,3.78-.65q1.75-.47,3.06-.88a12.43,12.43,0,0,0,2.7-1.25l2-1.19q.58-.35,2.93-1.9a2.38,2.38,0,0,1,.71.88,2.81,2.81,0,0,1,.41,1.46,4.46,4.46,0,0,1-.92,2.73q-2.24,3.87-8.68,7.66a26.86,26.86,0,0,1-14.4,3.64,29.32,29.32,0,0,1-21.54-9.74,31.22,31.22,0,0,1-8.7-22.82q.27-14.62,8.91-23.58T854.71,64.42Zm-1.14,6.64A10.24,10.24,0,0,0,847.31,73,13.64,13.64,0,0,0,843,77.82a27.71,27.71,0,0,0-2.2,5.39,17.68,17.68,0,0,0-.73,4.26q0,1,.85,1l23.45.44q1.3,0,1.34-2.15a18.76,18.76,0,0,0-3.21-10.34Q859.22,71.17,853.57,71.06Z"/><path class="cls-1" d="M344.53,37.08a29.43,29.43,0,0,1,16.14,4.56,30.4,30.4,0,0,1,10.86,11.58,30.89,30.89,0,0,1,3.69,14.55A33,33,0,0,1,365.16,92q-10.06,10.06-23.23,10.06A45.4,45.4,0,0,1,331.35,101a31.66,31.66,0,0,0-6.8-1.09,11,11,0,0,0-3.76,1,14.34,14.34,0,0,1-2.9,1,7,7,0,0,1-2.1-.87q-1.67-.87-1.67-1.45c0-.29.09-1.16.29-2.61s.43-3.52.72-6.23a83.3,83.3,0,0,0,.43-8.83V22.9a50.47,50.47,0,0,0-.87-9.84q-.73-2.31-7.53-2.32h-1.3q-.87,0-.87-2.32t.87-2.32q4.49-.44,8.54-1.16t6.73-1.45q2.68-.72,4.63-1.45T329.91.6h.29a1.56,1.56,0,0,1,1.16.8,4,4,0,0,1,.72,1.52,50.62,50.62,0,0,0-1.59,13.61v24a4.16,4.16,0,0,0,.07.65c0,.29.14.43.29.43a1.17,1.17,0,0,0,.51-.14,26.43,26.43,0,0,1,5.86-2.9A20.73,20.73,0,0,1,344.53,37.08Zm-3.19,7.82a11.21,11.21,0,0,0-7.82,2.75,8.51,8.51,0,0,0-3,6.51V84.86a8.68,8.68,0,0,0,3.84,7.67,15.71,15.71,0,0,0,9,2.61q7.52,0,11.36-6.8t3.84-16.5q0-12.45-4.49-19.69A14.19,14.19,0,0,0,341.34,44.9Z"/><path class="cls-1" d="M413.29,37.08a26.83,26.83,0,0,1,12.16,2.68,22.92,22.92,0,0,1,8.4,6.8,33.68,33.68,0,0,1,4.63,8.54,25,25,0,0,1,1.59,8.47q0,3.19-1.09,4t-4.42.8H400q-1,0-1,.87a28.14,28.14,0,0,0,1.88,10.13,19.91,19.91,0,0,0,6.44,8.54,17,17,0,0,0,10.93,3.62,39.49,39.49,0,0,0,4.2-.22,21.59,21.59,0,0,0,3.76-.72q1.74-.51,3-.94a12.39,12.39,0,0,0,2.68-1.3l2-1.23q.58-.36,2.9-2a2.39,2.39,0,0,1,.72.87,2.79,2.79,0,0,1,.43,1.45,4.46,4.46,0,0,1-.87,2.75q-2.17,3.91-8.54,7.82a26.85,26.85,0,0,1-14.33,3.91,29.32,29.32,0,0,1-21.71-9.34,31.22,31.22,0,0,1-9.12-22.66q0-14.62,8.47-23.74T413.29,37.08Zm-1,6.66a10.23,10.23,0,0,0-6.22,2,13.65,13.65,0,0,0-4.2,4.92,27.65,27.65,0,0,0-2.1,5.43,17.68,17.68,0,0,0-.65,4.27q0,1,.87,1h23.45q1.3,0,1.3-2.17A18.76,18.76,0,0,0,421.32,49Q417.92,43.74,412.28,43.74Z"/></svg>