<svg id="Layer_1" data-name="Layer 1" xmlns="http://www.w3.org/2000/svg" viewBox="0 0 1173.61 275.51"><defs><style>.cls-1{fill:#fff;stroke:#1414ef;stroke-miterlimit:10;stroke-width:1.12px;}</style></defs><title>chapter-title</title><path class="cls-1" d="M103.23,120.62q.09,2.25-2,13.5t-3.47,12Q83,154,58,155.06q-22.8,1-39.58-15.12A55.72,55.72,0,0,1,.62,100.72Q-.41,76.19,15.26,58A53.24,53.24,0,0,1,54.95,38.71a190.3,190.3,0,0,1,41,2.94q.53.15,1.51,11.27t1.1,13.89q.11,2.59-4,2.77A5.55,5.55,0,0,1,92,69a24.11,24.11,0,0,0-2.77-6.29,44.24,44.24,0,0,0-5.76-7.2q-3.8-4-11-6.37a46.3,46.3,0,0,0-16.53-2q-16.93.71-25.75,15.11t-8,33.91q.92,21.77,12.18,36.44T65,146.46q15.38-.65,24-10.7a23.66,23.66,0,0,0,3.79-6.65q1.64-4.13,2.48-6.94t1.18-2.82Q102.47,119.09,103.23,120.62Z"/><path class="cls-1" d="M149.53,73.66a38.12,38.12,0,0,1,28.21,10.15,37.06,37.06,0,0,1,12.64,26.9A38.82,38.82,0,0,1,153,151.23,37.88,37.88,0,0,1,124.68,141a37.47,37.47,0,0,1-12.56-27,37.25,37.25,0,0,1,10.16-27.95A37.89,37.89,0,0,1,149.53,73.66Zm-1.9,8.21q-8.12.34-12.28,8.39t-3.7,18.93q.59,14,6.64,24.12T154.36,143q8.12-.34,12.36-8.48a36.74,36.74,0,0,0,3.79-18.85,59.37,59.37,0,0,0-2.95-16.58,30.52,30.52,0,0,0-7.8-12.57A16,16,0,0,0,147.63,81.88Z"/><path class="cls-1" d="M254.57,69.23q22.29-.94,23.78,34.48l.69,16.41q.45,10.54,1.87,15.5.4,1.2,4.86,2.3a26.52,26.52,0,0,0,6,1c.35,0,.58.81.71,2.48a9.81,9.81,0,0,1-.12,3.38q-1-.13-9.1-.31t-12,0q-4.15.18-11.47,1t-8.87,1.07q-.72-.66-.83-3.25c-.07-1.73.12-2.6.58-2.62a20.6,20.6,0,0,0,5.73-1.54q3.83-1.46,4.13-2.68a49.65,49.65,0,0,0,.85-12.67l-.69-16.41q-.6-14.34-4.73-19.88t-12.59-5.18a16,16,0,0,0-9.55,3.43q-4,3.2-3.87,6.65l1.25,29.72q.45,10.54,1.87,15.5.4,1.2,4.68,2.31a25,25,0,0,0,5.67,1.06c.46,0,.75.81.88,2.47a9.79,9.79,0,0,1-.12,3.38q-1.39-.12-9.1-.31t-11.68,0q-4.15.17-12,1t-9.21,1.08q-.72-.66-.83-3.25t.58-2.62a24.16,24.16,0,0,0,6.25-1.56q4.18-1.47,4.47-2.7a56.44,56.44,0,0,0,.68-12.66l-1.19-28.16q-.34-8.12-3.23-10.94a8.35,8.35,0,0,0-4-2.43,19.75,19.75,0,0,0-4.19-.86c-1.1-.07-1.65-.22-1.66-.45q-.21-5,.65-5.22,7.91-1,27.6-6.36a1.12,1.12,0,0,1,.42-.28,1.67,1.67,0,0,1,.52-.11l.43,0c.46,0,.88.37,1.26,1.16a5.26,5.26,0,0,1,.6,1.88,58.72,58.72,0,0,0-.43,6.25,1.36,1.36,0,0,0,.21.86,2.54,2.54,0,0,0,.84-.56,38.29,38.29,0,0,1,10.32-7.7A30.27,30.27,0,0,1,254.57,69.23Z"/><path class="cls-1" d="M309.5,79,299,79.47q-1.21.05-1.4-4.44a4.28,4.28,0,0,1,.11-1.56,48.35,48.35,0,0,0,12.92-9.72q2.15-2.33,4.71-5.3t6-7.61a12.34,12.34,0,0,1,3.3.29q1.57.37,1.6.88l.71,16.93q4.49-.19,12.53-.44l8.56-.27q1.38-.06,1.45,1.5A16.79,16.79,0,0,1,348,77.4l-20.73.88,1.76,41.64q.29,6.91,3.38,10.41a9.88,9.88,0,0,0,8.27,3.29,16.3,16.3,0,0,0,3.61-.59,18.28,18.28,0,0,0,3.07-1.08q1.18-.57,2.2-1.13a5.44,5.44,0,0,1,1.19-.57q.68-.2,1.62,1.49t.79,2.22q-.93,2.46-7.1,5.92a27.24,27.24,0,0,1-12.22,3.72,21.8,21.8,0,0,1-15.53-5.14q-6.55-5.52-7.06-17.62Z"/><path class="cls-1" d="M394.85,63.31A32.06,32.06,0,0,1,409.5,65.9a27.38,27.38,0,0,1,10.36,7.7,40.19,40.19,0,0,1,6,10,29.81,29.81,0,0,1,2.33,10q.16,3.8-1.1,4.8t-5.23,1.17l-41.29,1.74q-1.21.05-1.17,1.09a33.6,33.6,0,0,0,2.76,12,23.79,23.79,0,0,0,8.12,9.87A20.34,20.34,0,0,0,403.47,128a47.31,47.31,0,0,0,5-.47,25.66,25.66,0,0,0,4.46-1.05q2-.69,3.58-1.28a14.74,14.74,0,0,0,3.13-1.69L421.9,122q.67-.46,3.36-2.48a2.85,2.85,0,0,1,.91,1,3.35,3.35,0,0,1,.59,1.71,5.32,5.32,0,0,1-.9,3.33q-2.39,4.77-9.8,9.76a32.09,32.09,0,0,1-16.91,5.39q-15,.63-26.38-10a37.3,37.3,0,0,1-12-26.58q-.74-17.45,8.91-28.76T394.85,63.31Zm-.87,8A12.22,12.22,0,0,0,386.65,74a16.31,16.31,0,0,0-4.76,6.09,33.14,33.14,0,0,0-2.23,6.58,21.17,21.17,0,0,0-.56,5.13q.05,1.21,1.09,1.17l28-1.18q1.55-.07,1.44-2.66A22.41,22.41,0,0,0,405,77.07Q400.71,71,394,71.31Z"/><path class="cls-1" d="M435.77,65a4.9,4.9,0,0,1,.57-2.79q19,.23,20.43.18t20.69-1.91a6,6,0,0,1,.45,2.4q.13,3.11-.56,3.14a13.19,13.19,0,0,0-4.8,1.15q-2.38,1.05-2.31,2.78a3.78,3.78,0,0,0,1,2l11.53,14.92q1.14-1.78,4.39-6.59t4.79-7.47a8.55,8.55,0,0,0,1.47-4,2.29,2.29,0,0,0-1.55-1.92,8.53,8.53,0,0,0-3.15-.82c-1.1-.07-2.25-.1-3.46-.11a5.64,5.64,0,0,1-2-.17q-.69,0-.81-2.74a4,4,0,0,1,.57-2.79q18.87.24,20.08.19T521,58.68a10.15,10.15,0,0,1,.46,2.75q.12,2.77-.23,2.78-11.69,1.88-15,6.17L488.85,92.57a3.07,3.07,0,0,0-.29,1.4,2.34,2.34,0,0,0,.76,1.7l20.65,26a20.09,20.09,0,0,0,14.7,7.86q.52,0,.64,2.92a4.58,4.58,0,0,1-.58,2.62q-2.6-.07-6.33-.25t-6.76-.23q-3,0-6.49.1-3.8.16-7.08.47t-7.32.83q-4,.52-7,.81a14.93,14.93,0,0,1-.44-2.23q-.15-3.63.37-3.65a11.81,11.81,0,0,0,5-1.42q2.54-1.32,2.47-3a2.69,2.69,0,0,0-.39-1l-13.17-16.75-10.24,15.66a5.07,5.07,0,0,0-1.08,3.16,2.52,2.52,0,0,0,.68,1.7,4.27,4.27,0,0,0,2,1,19.42,19.42,0,0,0,2.36.51q1,.13,3,.31c1.33.12,2.11.17,2.34.16s.56,1,.64,2.92c.06,1.5-.13,2.49-.57,3q-2.6-.06-6.15-.26t-6.5-.25q-2.95,0-6.23.09t-6.21.43q-2.93.3-6.54.8t-6.2.78a12,12,0,0,1-.47-2.92q-.12-2.94.57-3,11.16-2.2,14.75-7.2l17.54-23.24a3.09,3.09,0,0,0,.29-1.4,2.14,2.14,0,0,0-.57-1.19L450,73.62a14.5,14.5,0,0,0-6.23-4.15A18.32,18.32,0,0,0,436.58,68Q435.89,68,435.77,65Z"/><path class="cls-1" d="M543.07,69.17l-10.54.44q-1.21.05-1.4-4.44a4.27,4.27,0,0,1,.11-1.56,48.37,48.37,0,0,0,12.92-9.72q2.15-2.33,4.71-5.3t6-7.61a12.35,12.35,0,0,1,3.3.29q1.57.37,1.59.88l.71,16.93Q565,58.9,573,58.65l8.56-.27q1.38-.06,1.45,1.5a16.79,16.79,0,0,1-1.41,7.68l-20.73.88,1.76,41.64q.29,6.91,3.38,10.41a9.88,9.88,0,0,0,8.27,3.29,16.37,16.37,0,0,0,3.61-.59,18.3,18.3,0,0,0,3.07-1.08q1.18-.57,2.2-1.13a5.42,5.42,0,0,1,1.19-.57q.68-.2,1.62,1.49c.62,1.13.88,1.87.79,2.22q-.93,2.47-7.11,5.92a27.24,27.24,0,0,1-12.22,3.72,21.81,21.81,0,0,1-15.53-5.14q-6.55-5.52-7.06-17.62Z"/><path class="cls-1" d="M669.29,70.42l1.44,34.21q.35,8.29,1.89,12a3.59,3.59,0,0,0,2,1.3,13.34,13.34,0,0,0,3.05.56,25.4,25.4,0,0,0,2.86.05,3.18,3.18,0,0,1,1.48.11c.46.1.72.61.76,1.53a13.21,13.21,0,0,1-.25,2.35c-.19,1.11-.51,1.67-1,1.68a39.6,39.6,0,0,0-6.11.86q-3.69.76-7.12,1.51t-6.51,1.57q-3.08.82-6.85,1.67-1.21.05-1.33-2.71l-.32-7.6q-.21-.85-.55-.84a38.56,38.56,0,0,1-10.21,8.22,28.94,28.94,0,0,1-13.5,4,18.12,18.12,0,0,1-10.4-2.5,20.86,20.86,0,0,1-7.23-7.31,37.12,37.12,0,0,1-4.05-9.87,52.8,52.8,0,0,1-1.58-10.84L605,81.1q-.34-8.12-3.23-10.94a9.62,9.62,0,0,0-4.08-2.42,18.19,18.19,0,0,0-4.19-.86c-1.16-.06-1.74-.21-1.75-.45q-.21-5,.64-5.22a130.32,130.32,0,0,0,14.08-2.67A136,136,0,0,0,620,54.85a2.8,2.8,0,0,0,.68-.2,2.91,2.91,0,0,1,.68-.2c.58,0,1,.36,1.35,1.15a6.14,6.14,0,0,1,.51,1.88q-1.06,11.82-.91,15.27l.88,20.73q.57,13.48,4.62,19.19T640.32,118a13.58,13.58,0,0,0,9.19-3.76q3.66-3.53,3.53-6.64l-1.2-28.51q-.34-8.12-3.23-10.94a8.34,8.34,0,0,0-4-2.43,19.49,19.49,0,0,0-4.28-.86q-1.73-.1-1.75-.45-.21-5,.82-5.23a133,133,0,0,0,13.91-2.66,135.72,135.72,0,0,0,13.52-3.69,10.2,10.2,0,0,0,1.37-.4c.57,0,1.05.36,1.43,1.15a3.19,3.19,0,0,1,.43,1.89Q669.16,67.32,669.29,70.42Z"/><path class="cls-1" d="M725.17,49.37q10.71-.45,16.3,4.94t6.17,19l1.44,34a7.89,7.89,0,0,0,1.78,5.2,5.19,5.19,0,0,0,4.22,1.64,10.78,10.78,0,0,0,5.78-2.49c.7.2,1.07.82,1.12,1.86a10.3,10.3,0,0,1-.82,5.23,43,43,0,0,1-6.73,4.61,18,18,0,0,1-8.2,2.59,12.62,12.62,0,0,1-7.9-2.61,14.19,14.19,0,0,1-5.28-6.18q-.17.18-1.25,1.18t-3,2.46a50.58,50.58,0,0,1-4.37,3,27.66,27.66,0,0,1-5.77,2.58,25.18,25.18,0,0,1-6.78,1.24q-8.64.36-14.28-4.16t-6-12.81a15.94,15.94,0,0,1,1.66-7.86,20.64,20.64,0,0,1,4.5-6.16A35.41,35.41,0,0,1,705,91.76a71,71,0,0,1,7.89-3.71q3.32-1.26,8.53-3t7.25-2.56a2.72,2.72,0,0,0,1.44-2.83l-.4-9.5q-.25-6-3.17-9.38a9,9,0,0,0-7.57-3.14,10.49,10.49,0,0,0-8,3.54q-2.81,3.32-2.55,9.19A5.6,5.6,0,0,1,706,75.54a10.73,10.73,0,0,1-5.8,1.89q-6.39.27-9.16-3.77-.35-8.29,10.66-16A43.36,43.36,0,0,1,725.17,49.37Zm-5,66.67a13.4,13.4,0,0,0,7.93-2.76q3.27-2.56,3.14-5.67L730.52,90q-1.19.57-5,1.94t-5.87,2.32a47.1,47.1,0,0,0-4.74,2.62,10.42,10.42,0,0,0-3.9,4,9.51,9.51,0,0,0-1.09,4.89q.23,5.53,3.11,8A9.94,9.94,0,0,0,720.2,116Z"/><path class="cls-1" d="M799.21,97.82q.45,10.71,1.87,15.5.4,1.2,4.35,2.5a18.93,18.93,0,0,0,5.33,1.25q.52,0,.71,2.39a9.4,9.4,0,0,1-.12,3.29l-6.5-.16q-4.07-.09-7.36-.12t-6.23.09q-3.28.14-6.56.45t-7.24.74l-6.55.71q-.72-.66-.83-3.17c-.07-1.67.12-2.51.58-2.53A18.5,18.5,0,0,0,776.4,117q3.82-1.63,4.12-2.86a57.36,57.36,0,0,0,.84-12.84l-3-71.87a60.36,60.36,0,0,0-1.53-11.71q-1-2.72-8.76-2.4l-1.73.07q-1,0-1.12-2-.12-2.76.92-2.81,5.33-.74,10.13-1.81t8-2.07q3.16-1,5.46-1.87t3.66-1.45l1.19-.57h.35c.46,0,1,.31,1.51,1a5.32,5.32,0,0,1,1,1.69A54.65,54.65,0,0,0,796,21.81Z"/><path class="cls-1" d="M850.88,96q.45,10.54,2,15.49.4,1.2,4.77,2.31a25.44,25.44,0,0,0,5.93,1c.46,0,.75.81.88,2.47a9.81,9.81,0,0,1-.12,3.38q-1.22-.12-9.27-.3t-11.86,0q-4.32.18-12.16,1t-9,1.07q-.72-.66-.83-3.25t.58-2.62A25.07,25.07,0,0,0,828,115q4.26-1.48,4.56-2.7a56.45,56.45,0,0,0,.68-12.66L832,71.52q-.34-8.12-3.23-10.94a9.63,9.63,0,0,0-4.08-2.42,18.2,18.2,0,0,0-4.19-.86c-1.16-.07-1.74-.21-1.75-.45q-.21-5,.82-5.23A133,133,0,0,0,833.5,49,136,136,0,0,0,847,45.27a10.14,10.14,0,0,0,1.37-.4c.58,0,1.05.36,1.43,1.15a3.19,3.19,0,0,1,.43,1.89,148.7,148.7,0,0,0-.76,14.92Zm-21-71.54A10.53,10.53,0,0,1,826.43,17,10.63,10.63,0,0,1,836.7,5.9a10.35,10.35,0,0,1,7.73,2.79,10.25,10.25,0,0,1,3.43,7.38,10.54,10.54,0,0,1-2.79,7.73,10.65,10.65,0,0,1-15.2.64Z"/><path class="cls-1" d="M895.23,109.35c0,.35.31.62.9.83a3.91,3.91,0,0,0,1.22.29l16.76-.71q12.78-.54,16.71-14.2.45-1.75,3-1.86t3.43,1.24L935,117l-58.74,2.48q-3.54-1.93-3.62-3.83a1,1,0,0,1,.14-.7l37.36-62-18.33.43a12.33,12.33,0,0,0-3.26.57,15.56,15.56,0,0,0-2.72,1.15,10.13,10.13,0,0,0-2.26,1.74,12.13,12.13,0,0,0-1.65,2q-.57.89-1.29,2.22c-.48.88-.83,1.57-1,2s-.47,1.12-.78,1.94a7.69,7.69,0,0,0-.46,1.4q-.48,1.06-4.28,1.22c-1.27.05-1.91,0-1.92-.26q0-.86.83-8.95t1-13.28q10.24.61,16.46.34l21.08-.89a181.16,181.16,0,0,0,21.71-2.3,14.72,14.72,0,0,1,.52,4.13l-37.26,60.42A5.32,5.32,0,0,0,895.23,109.35Z"/><path class="cls-1" d="M977.17,90.66q.45,10.54,2,15.49.4,1.2,4.77,2.31a25.44,25.44,0,0,0,5.93,1c.46,0,.75.81.88,2.47a9.82,9.82,0,0,1-.12,3.38q-1.22-.12-9.27-.3t-11.86,0q-4.32.18-12.16,1t-9,1.07q-.72-.66-.83-3.25t.58-2.62a25.12,25.12,0,0,0,6.17-1.56q4.26-1.48,4.56-2.7a56.45,56.45,0,0,0,.68-12.66l-1.19-28.16q-.34-8.12-3.23-10.94A9.62,9.62,0,0,0,951,52.82a18.18,18.18,0,0,0-4.19-.86c-1.16-.07-1.74-.21-1.75-.45q-.21-5,.82-5.23a132.67,132.67,0,0,0,13.91-2.66,136.23,136.23,0,0,0,13.52-3.69,10.14,10.14,0,0,0,1.37-.4c.58,0,1.05.36,1.43,1.15a3.19,3.19,0,0,1,.43,1.89,148.69,148.69,0,0,0-.76,14.92Zm-21-71.54a10.54,10.54,0,0,1-3.43-7.47A10.24,10.24,0,0,1,955.52,4a10.72,10.72,0,0,1,18.63,6.74,10.54,10.54,0,0,1-2.79,7.73,10.65,10.65,0,0,1-15.2.64Z"/><path class="cls-1" d="M1052.55,35.56q22.29-.94,23.78,34.48l.69,16.41q.45,10.54,1.87,15.5.4,1.2,4.86,2.3a26.52,26.52,0,0,0,6,1c.35,0,.58.81.71,2.48a9.81,9.81,0,0,1-.12,3.38q-1-.13-9.1-.31t-12,0q-4.15.18-11.47,1t-8.87,1.07q-.72-.66-.83-3.25t.58-2.62a20.58,20.58,0,0,0,5.73-1.54q3.83-1.46,4.13-2.68a49.65,49.65,0,0,0,.85-12.67l-.69-16.41q-.6-14.34-4.73-19.88t-12.59-5.18a16,16,0,0,0-9.55,3.43q-4,3.2-3.87,6.65l1.25,29.72Q1029.62,99,1031,104q.39,1.2,4.68,2.31a25,25,0,0,0,5.67,1.06c.46,0,.75.81.88,2.47a9.79,9.79,0,0,1-.12,3.38q-1.39-.12-9.1-.31t-11.68,0q-4.15.17-12,1t-9.21,1.08q-.72-.66-.83-3.25c-.07-1.73.12-2.6.58-2.62a24.14,24.14,0,0,0,6.25-1.56q4.18-1.47,4.47-2.7a56.5,56.5,0,0,0,.68-12.66L1010.14,64q-.34-8.12-3.23-10.94a8.36,8.36,0,0,0-4-2.43,19.75,19.75,0,0,0-4.19-.86q-1.65-.1-1.66-.45-.21-5,.65-5.22,7.91-1,27.6-6.36a1.12,1.12,0,0,1,.42-.28,1.67,1.67,0,0,1,.52-.11l.43,0c.46,0,.88.37,1.26,1.16a5.26,5.26,0,0,1,.6,1.88,58.89,58.89,0,0,0-.43,6.25,1.36,1.36,0,0,0,.21.86,2.54,2.54,0,0,0,.84-.56,38.29,38.29,0,0,1,10.32-7.7A30.27,30.27,0,0,1,1052.55,35.56Z"/><path class="cls-1" d="M1130,32.64a54.84,54.84,0,0,1,14.43,1.64,53.25,53.25,0,0,0,13.92,1.66l9.85-.42q.35,0,1.3,2.19a10.63,10.63,0,0,1,1,3.42q.1,2.42-.93,2.46l-11.23.47c-.46,0-.68.2-.67.55q0,.17,1.75,4.43a24.48,24.48,0,0,1,1.9,8.23q.43,10.19-7.78,18.76t-21,9.11a71.48,71.48,0,0,1-10.74-.24,9.31,9.31,0,0,0-3.67,3.36,7.38,7.38,0,0,0-1.55,4.31,3.56,3.56,0,0,0,1.77,2.87,11.64,11.64,0,0,0,5.17,1.51q3.48.37,5.9.44t6.93.05l2.59-.11q17.3-.21,25.51,3.68t8.57,12.36q.72,13-11.49,23a47.25,47.25,0,0,1-28.79,10.73q-12.61.7-22.23-3.91t-10-13.77q-.21-5,4.52-9.88a28.62,28.62,0,0,1,10.35-7,19.7,19.7,0,0,1-8.51-4.92,12.58,12.58,0,0,1-4.18-8.91q-.31-7.43,12.14-15.92-5.11-2-9.71-8.5a25.44,25.44,0,0,1-4.91-13.9q-.52-12.26,8.17-19.73T1130,32.64ZM1157.62,122q-.25-6-9.06-7.67t-23.49-1a2.81,2.81,0,0,0-.86.21,7.73,7.73,0,0,0-.84.55q-2.21,1-3.39,1.61a14.87,14.87,0,0,0-2.68,2,8.39,8.39,0,0,0-2.21,3.12,10,10,0,0,0-.6,4.18q.26,6.22,7,10.09a27,27,0,0,0,14.86,3.53q9.67-.41,15.62-5.16T1157.62,122Zm-39.73-63.75q.36,8.47,4.06,14.11t9.92,5.38q6.39-.27,9.21-5.32a22.92,22.92,0,0,0,2.51-12.31q-.39-9.16-4.08-14.71a11.06,11.06,0,0,0-10.26-5.28,9.76,9.76,0,0,0-8.93,5.74A25.1,25.1,0,0,0,1117.89,58.24Z"/><path class="cls-1" d="M237.24,190.75q-.84-12.94,9.46-22.53a37.79,37.79,0,0,1,23.93-10.47,60.71,60.71,0,0,1,8.49,0q3.66.28,10.23,1.5t9,1.58a154.38,154.38,0,0,1,3.79,26.44,1.88,1.88,0,0,1-2,1.69q-4.66.3-5.1-1.23-1.55-7.87-8.43-15t-16-6.59q-7.94.51-11.87,5.27t-3.45,12.35a19.48,19.48,0,0,0,.92,4.88A12.17,12.17,0,0,0,259,193q2,2.13,3.17,3.52a20.53,20.53,0,0,0,4.55,3.43q3.34,2,4.51,2.83t5.4,3a52.74,52.74,0,0,0,5.1,2.53,63.7,63.7,0,0,0,6,3.34q4.93,2.54,6.91,3.71a70.65,70.65,0,0,1,5.81,4,24.94,24.94,0,0,1,5.64,5.53,35.54,35.54,0,0,1,3.47,6.79,29.08,29.08,0,0,1,2,9q.89,13.81-9.66,23.5a40,40,0,0,1-25.22,10.64q-10.35.67-32.06-2.78a151,151,0,0,1-3.86-15.43,116.86,116.86,0,0,1-2.09-12.25q.08-1.39,2.67-1.56,4.49-.29,5.09,1.06a33.7,33.7,0,0,0,2.86,6.66,50.32,50.32,0,0,0,5.26,7.63,22.75,22.75,0,0,0,8.56,6.38,24.3,24.3,0,0,0,11.65,1.93,19.36,19.36,0,0,0,13.15-5.7q5-5.18,4.41-14.84a15.05,15.05,0,0,0-1.49-5.62,20.06,20.06,0,0,0-2.89-4.49,25.27,25.27,0,0,0-4.58-3.86q-3-2.06-5-3.14t-5.83-3q-3.85-1.92-5.46-2.68a11.78,11.78,0,0,0-2-1.26q-5.21-2.78-7.9-4.34a83.69,83.69,0,0,1-7-4.66,34.19,34.19,0,0,1-6.53-5.9,32.72,32.72,0,0,1-4.18-7A26,26,0,0,1,237.24,190.75Z"/><path class="cls-1" d="M353,191.57a32,32,0,0,1,14.7,2.25,27.39,27.39,0,0,1,10.53,7.46,40.29,40.29,0,0,1,6.18,9.82,29.85,29.85,0,0,1,2.55,10q.25,3.8-1,4.83t-5.2,1.29l-41.24,2.67q-1.21.08-1.14,1.11a33.61,33.61,0,0,0,3,11.93,23.77,23.77,0,0,0,8.34,9.68,20.34,20.34,0,0,0,13.31,3.47,47.23,47.23,0,0,0,5-.58,25.78,25.78,0,0,0,4.43-1.15q2-.74,3.55-1.36a14.86,14.86,0,0,0,3.09-1.76l2.23-1.62q.66-.47,3.3-2.55a2.85,2.85,0,0,1,.93,1,3.34,3.34,0,0,1,.63,1.69,5.31,5.31,0,0,1-.82,3.35q-2.29,4.83-9.58,10a32.08,32.08,0,0,1-16.78,5.77q-15,1-26.6-9.45a37.29,37.29,0,0,1-12.62-26.3q-1.13-17.43,8.26-29T353,191.57Zm-.69,8a12.22,12.22,0,0,0-7.26,2.9,16.29,16.29,0,0,0-4.62,6.19,33,33,0,0,0-2.08,6.63,21.14,21.14,0,0,0-.45,5.14q.08,1.21,1.11,1.14l28-1.81q1.55-.1,1.39-2.69a22.42,22.42,0,0,0-4.85-12Q359.07,199.15,352.35,199.59Z"/><path class="cls-1" d="M449.33,185.34q22.26-1.44,24.55,33.93l1.06,16.39q.68,10.53,2.21,15.45.42,1.19,4.91,2.2a26.5,26.5,0,0,0,6,.91c.35,0,.6.8.77,2.46a9.83,9.83,0,0,1,0,3.38q-1-.11-9.1-.1t-12,.26q-4.14.27-11.44,1.26t-8.84,1.27q-.74-.65-.9-3.23c-.11-1.73.06-2.6.52-2.63a20.58,20.58,0,0,0,5.7-1.67q3.8-1.55,4.07-2.78a49.71,49.71,0,0,0,.56-12.69l-1.06-16.39q-.93-14.32-5.18-19.76t-12.71-4.9a16,16,0,0,0-9.47,3.65q-3.95,3.29-3.72,6.74l1.92,29.68q.68,10.53,2.21,15.45.42,1.19,4.73,2.21a24.88,24.88,0,0,0,5.69.93q.69,0,.94,2.45a9.83,9.83,0,0,1,0,3.38q-1.39-.08-9.1-.1t-11.68.24q-4.14.27-12,1.29t-9.19,1.29q-.74-.65-.9-3.23t.52-2.63a24.13,24.13,0,0,0,6.21-1.7q4.14-1.57,4.41-2.8a56.46,56.46,0,0,0,.39-12.68l-1.82-28.13q-.52-8.11-3.48-10.87a8.35,8.35,0,0,0-4-2.34,19.82,19.82,0,0,0-4.21-.77c-1.1,0-1.66-.18-1.67-.41q-.33-5,.53-5.23,7.89-1.2,27.45-7a1.12,1.12,0,0,1,.41-.29,1.67,1.67,0,0,1,.51-.12l.43,0c.46,0,.89.35,1.29,1.13a5.25,5.25,0,0,1,.64,1.86,59.11,59.11,0,0,0-.29,6.26,1.36,1.36,0,0,0,.23.85,2.56,2.56,0,0,0,.83-.57,38.31,38.31,0,0,1,10.14-7.93A30.27,30.27,0,0,1,449.33,185.34Z"/><path class="cls-1" d="M504.46,193.9l-10.52.68q-1.21.08-1.5-4.41a4.27,4.27,0,0,1,.07-1.56,48.36,48.36,0,0,0,12.69-10q2.1-2.38,4.59-5.41t5.82-7.74a12.29,12.29,0,0,1,3.31.22q1.58.33,1.62.85l1.09,16.91q4.48-.29,12.51-.72l8.55-.47q1.38-.09,1.48,1.46a16.79,16.79,0,0,1-1.23,7.7l-20.71,1.34,2.69,41.59q.45,6.9,3.61,10.34a9.88,9.88,0,0,0,8.34,3.1,16.34,16.34,0,0,0,3.6-.67,18.35,18.35,0,0,0,3-1.15q1.17-.6,2.18-1.18a5.44,5.44,0,0,1,1.17-.6q.68-.21,1.65,1.45t.83,2.2q-.88,2.49-7,6.08a27.25,27.25,0,0,1-12.13,4,21.81,21.81,0,0,1-15.65-4.79q-6.67-5.37-7.45-17.45Z"/><path class="cls-1" d="M588.13,228.33q.68,10.53,2.39,15.44.42,1.19,4.82,2.2a25.42,25.42,0,0,0,6,.91q.69,0,.94,2.45a9.79,9.79,0,0,1,0,3.38q-1.22-.1-9.28-.09t-11.85.25q-4.31.28-12.13,1.31t-9,1.28q-.74-.65-.9-3.23t.52-2.63a25.08,25.08,0,0,0,6.13-1.7q4.23-1.57,4.5-2.8a56.52,56.52,0,0,0,.39-12.67l-1.82-28.13q-.52-8.11-3.48-10.87a9.61,9.61,0,0,0-4.14-2.33,18.21,18.21,0,0,0-4.21-.77c-1.16,0-1.74-.17-1.76-.41q-.33-5,.7-5.24a132.72,132.72,0,0,0,13.84-3,135.6,135.6,0,0,0,13.43-4,10.18,10.18,0,0,0,1.36-.43c.57,0,1.06.34,1.46,1.12a3.18,3.18,0,0,1,.47,1.88A147.9,147.9,0,0,0,586,195.2Zm-22.62-71.05a10.54,10.54,0,0,1-3.6-7.39,10.72,10.72,0,0,1,21.4-1.39,10.54,10.54,0,0,1-2.61,7.79,10.65,10.65,0,0,1-15.19,1Z"/><path class="cls-1" d="M662.26,171.55a18.68,18.68,0,0,1,11.43,2.64,20.21,20.21,0,0,1,7.46,8.27,40.78,40.78,0,0,1,12-9.44,38.83,38.83,0,0,1,16-4.5A19.62,19.62,0,0,1,720,170.58a19.07,19.07,0,0,1,7.4,7.23,40.74,40.74,0,0,1,4.32,10.46,66,66,0,0,1,1.93,12.44l1.17,18.12q.68,10.53,2.21,15.45.42,1.19,4.82,2.2a25.43,25.43,0,0,0,5.95.91c.34,0,.6.8.77,2.46a9.79,9.79,0,0,1,0,3.38q-1.22-.1-9.1-.1t-11.85.25q-4.14.27-11.79,1.28T706.58,246a6.47,6.47,0,0,1-.73-3.25q-.17-2.59.35-2.62a23.2,23.2,0,0,0,6.13-1.7q4.06-1.56,4.32-2.79a53.79,53.79,0,0,0,.43-12.16l-1.14-17.6q-1.62-25-17.67-24a15.76,15.76,0,0,0-9.31,3.38q-3.62,3-4.14,5.64c0,.35,0,.81,0,1.39a3.35,3.35,0,0,0,.18,1.38,84.36,84.36,0,0,1,1.21,10.66l1.18,18.29q.64,9.84,2.17,14.76.42,1.19,4.82,2.2a25.42,25.42,0,0,0,6,.91c.34,0,.6.8.77,2.46a9.79,9.79,0,0,1,0,3.38q-1.22-.1-9.1-.1t-11.85.25q-4.14.27-11.79,1.28T659.13,249a6.47,6.47,0,0,1-.73-3.25q-.17-2.59.35-2.62a23.23,23.23,0,0,0,6.13-1.7q4.06-1.56,4.32-2.79a56.59,56.59,0,0,0,.39-12.67l-1.07-16.56q-.87-13.46-5.23-19.24t-12.12-5.28a16.56,16.56,0,0,0-9.3,3.55q-4.12,3.22-3.89,6.84L639.9,225q.68,10.53,2.39,15.44.42,1.19,4.65,2.21a23.48,23.48,0,0,0,5.78.93q.69,0,.94,2.45a9.83,9.83,0,0,1,0,3.38q-1.39-.08-9.1-.1t-11.68.24q-4.32.28-12,1.3t-9.1,1.28q-.74-.65-.9-3.23t.52-2.63a25.07,25.07,0,0,0,6.13-1.7q4.23-1.57,4.5-2.8a56.53,56.53,0,0,0,.39-12.68l-1.82-28.13q-.52-8.11-3.48-10.87a8.35,8.35,0,0,0-4.05-2.34,19.56,19.56,0,0,0-4.29-.76c-1.16,0-1.74-.17-1.76-.41q-.33-5,.7-5.24,7.89-1.2,27.27-7a1.12,1.12,0,0,1,.5-.29,3.66,3.66,0,0,1,.86-.14c.57,0,1.06.34,1.46,1.12a3.18,3.18,0,0,1,.47,1.88,59.23,59.23,0,0,0-.29,6.26c0,.46.16.74.4.84a2.56,2.56,0,0,0,.83-.57,38.32,38.32,0,0,1,10.14-7.93A30.27,30.27,0,0,1,662.26,171.55Z"/><path class="cls-1" d="M786.84,163.48a32,32,0,0,1,14.7,2.25,27.38,27.38,0,0,1,10.53,7.46,40.25,40.25,0,0,1,6.18,9.82,29.83,29.83,0,0,1,2.55,10q.25,3.8-1,4.83t-5.2,1.29l-41.24,2.67q-1.21.08-1.14,1.11a33.59,33.59,0,0,0,3,11.93,23.76,23.76,0,0,0,8.34,9.68A20.34,20.34,0,0,0,796.91,228a47.1,47.1,0,0,0,5-.58,25.74,25.74,0,0,0,4.43-1.15q2-.74,3.55-1.36a14.87,14.87,0,0,0,3.09-1.76l2.23-1.62q.66-.47,3.3-2.55a2.85,2.85,0,0,1,.93,1,3.34,3.34,0,0,1,.63,1.69,5.31,5.31,0,0,1-.82,3.35q-2.29,4.83-9.58,10a32.08,32.08,0,0,1-16.78,5.77q-15,1-26.6-9.45A37.29,37.29,0,0,1,753.66,205q-1.13-17.43,8.26-29T786.84,163.48Zm-.69,8a12.21,12.21,0,0,0-7.26,2.9,16.27,16.27,0,0,0-4.62,6.19,33,33,0,0,0-2.08,6.63,21.13,21.13,0,0,0-.45,5.14q.08,1.21,1.11,1.14l28-1.81q1.55-.1,1.39-2.69a22.42,22.42,0,0,0-4.85-12Q792.87,171.06,786.14,171.5Z"/><path class="cls-1" d="M883.12,157.25q22.26-1.44,24.55,33.93l1.06,16.39q.68,10.53,2.21,15.45.42,1.19,4.91,2.2a26.47,26.47,0,0,0,6,.91c.35,0,.6.8.77,2.46a9.83,9.83,0,0,1,0,3.38q-1-.11-9.1-.1t-12,.26q-4.14.27-11.44,1.26t-8.84,1.27q-.74-.65-.9-3.23c-.11-1.73.06-2.6.52-2.63a20.57,20.57,0,0,0,5.7-1.67q3.8-1.55,4.07-2.78a49.71,49.71,0,0,0,.56-12.69l-1.06-16.39q-.93-14.32-5.18-19.76t-12.71-4.9a16,16,0,0,0-9.47,3.65q-3.95,3.29-3.72,6.74l1.92,29.68q.68,10.53,2.21,15.45.42,1.19,4.73,2.21a24.87,24.87,0,0,0,5.69.93c.46,0,.77.79.94,2.45a9.83,9.83,0,0,1,0,3.38q-1.39-.08-9.1-.1t-11.68.24q-4.14.27-12,1.29t-9.19,1.29q-.74-.65-.9-3.23t.52-2.63a24.15,24.15,0,0,0,6.21-1.7q4.14-1.57,4.41-2.8a56.52,56.52,0,0,0,.39-12.67l-1.82-28.13q-.52-8.11-3.48-10.87a8.34,8.34,0,0,0-4.05-2.34,19.74,19.74,0,0,0-4.21-.77c-1.1,0-1.66-.18-1.67-.41q-.33-5,.53-5.23,7.89-1.2,27.45-7a1.12,1.12,0,0,1,.41-.29,1.65,1.65,0,0,1,.51-.12l.43,0c.46,0,.89.35,1.29,1.13a5.24,5.24,0,0,1,.64,1.86,59.12,59.12,0,0,0-.29,6.26,1.36,1.36,0,0,0,.23.85,2.56,2.56,0,0,0,.83-.57,38.32,38.32,0,0,1,10.14-7.93A30.27,30.27,0,0,1,883.12,157.25Z"/><path class="cls-1" d="M938.26,165.81l-10.52.68q-1.21.08-1.5-4.41a4.28,4.28,0,0,1,.07-1.56,48.35,48.35,0,0,0,12.69-10q2.1-2.38,4.59-5.41t5.82-7.74a12.31,12.31,0,0,1,3.31.22q1.58.33,1.62.85l1.09,16.91q4.48-.29,12.51-.72l8.55-.47q1.38-.09,1.48,1.46a16.79,16.79,0,0,1-1.23,7.7L956,164.66l2.69,41.59q.45,6.9,3.62,10.34a9.88,9.88,0,0,0,8.34,3.1,16.34,16.34,0,0,0,3.6-.67,18.35,18.35,0,0,0,3-1.15q1.17-.6,2.18-1.18a5.43,5.43,0,0,1,1.17-.6q.68-.21,1.65,1.45t.83,2.2q-.88,2.49-7,6.08a27.25,27.25,0,0,1-12.13,4A21.81,21.81,0,0,1,948.42,225q-6.67-5.37-7.45-17.45Z"/><path class="cls-1" d="M1016,148.47a73.53,73.53,0,0,1,20.21,1.64,98.25,98.25,0,0,1,3.15,19.2q.09,1.38-2.15,1.53-3.8.25-4.23-1.11a21,21,0,0,0-5.75-9.94,13.52,13.52,0,0,0-10.71-3.55q-5,.32-7.71,2.75a7.67,7.67,0,0,0-2.43,6.57,10.07,10.07,0,0,0,1.23,4.34,10.77,10.77,0,0,0,3.35,3.51,42.59,42.59,0,0,0,4,2.51q1.7.93,5.1,2.44a11,11,0,0,0,1.78.75l2.68,1.21,2.95,1.37,2.87,1.46a31,31,0,0,1,3.15,1.79q.91.64,2.81,1.9a13.63,13.63,0,0,1,2.74,2.25q.84,1,2.24,2.54a11.18,11.18,0,0,1,2,3,33.14,33.14,0,0,1,1.16,3.22,16.15,16.15,0,0,1,.67,3.68q.7,10.87-7.26,17.71t-19.87,7.61a57.77,57.77,0,0,1-22.57-3.39A68.86,68.86,0,0,1,993,214a84.42,84.42,0,0,1-1.51-9.87,3.67,3.67,0,0,1,2.36-1q4-.26,4.23,1.11a19.1,19.1,0,0,0,7.57,11.21,18.44,18.44,0,0,0,12.1,3.63,12.57,12.57,0,0,0,7.78-2.93,8.43,8.43,0,0,0,2.65-7.28,11.39,11.39,0,0,0-.64-3.16,8.49,8.49,0,0,0-1.83-2.83l-2.14-2.29a12.52,12.52,0,0,0-3.26-2.13q-2.42-1.23-3.58-1.76t-4.46-2q-3.3-1.43-4.55-2a40.22,40.22,0,0,1-12.85-8.44,18.48,18.48,0,0,1-5.11-12.06q-.68-10.52,7.23-16.76A33.34,33.34,0,0,1,1016,148.47Z"/></svg>