<svg id="Layer_1" data-name="Layer 1" xmlns="http://www.w3.org/2000/svg" viewBox="0 0 324.3 93.06"><defs><style>.cls-1{fill:#fff;stroke:#1928eb;stroke-miterlimit:10;stroke-width:0.45px;}</style></defs><title>part</title><path class="cls-1" d="M70.86,36.12q.82-.27,1.88-.66t1.91-.67a9.67,9.67,0,0,1,1.73-.39,7.16,7.16,0,0,1,1.85,0,6.28,6.28,0,0,1,1.79.49A4.7,4.7,0,0,1,81.55,36a5,5,0,0,1,1.07,1.87,5.65,5.65,0,0,1,.16,2.83,6.25,6.25,0,0,1-1.38,2.84,6,6,0,0,1-2.86,1.92,3.71,3.71,0,0,1-1.26.18,1.78,1.78,0,0,1-1-.25.65.65,0,0,1-.19-.25,1.38,1.38,0,0,1-.15-.42c0-.14,0-.21,0-.23a4.17,4.17,0,0,0,1.67-.23,2.63,2.63,0,0,0,1.78-1.82,5,5,0,0,0-.13-3.07,5.45,5.45,0,0,0-1.74-2.75,2.79,2.79,0,0,0-2.71-.33,4.87,4.87,0,0,0-1.57.73q-.28.28.62,3l3.3,10.09a9.22,9.22,0,0,0,1,2.33q.19.31,1.13.24a6.33,6.33,0,0,0,1.33-.2q.11,0,.27.44a1.71,1.71,0,0,1,.1.5q-3.17.85-4.07,1.14t-1.7.6l-1.49.56-.55.24a1,1,0,0,1-.25-.48c-.1-.3-.12-.46-.06-.48a5.08,5.08,0,0,0,1-.54q.66-.42.69-.71A11.79,11.79,0,0,0,74,51.21L70.46,40.53a11.67,11.67,0,0,0-.93-2.26q-.16-.2-1-.19a4.33,4.33,0,0,0-1.17.12c-.08,0-.16-.1-.25-.39s-.11-.46-.05-.55Q70.07,36.38,70.86,36.12Z"/><path class="cls-1" d="M90.67,36.4a3.65,3.65,0,0,1,2.93.06,4.75,4.75,0,0,1,1.91,2.86l1.82,5.57a1.36,1.36,0,0,0,.54.78.89.89,0,0,0,.78.07,1.85,1.85,0,0,0,.84-.68c.13,0,.22.09.27.26a1.78,1.78,0,0,1,.11.9,7.37,7.37,0,0,1-.9,1.08,3.09,3.09,0,0,1-1.24.81A2.17,2.17,0,0,1,96.29,48a2.44,2.44,0,0,1-1.16-.78l-.15.25q-.13.22-.38.55a8.45,8.45,0,0,1-.59.69,4.71,4.71,0,0,1-.84.7A4.29,4.29,0,0,1,92.1,50a3.55,3.55,0,0,1-2.56,0A2.83,2.83,0,0,1,88,48.1a2.74,2.74,0,0,1-.09-1.38,3.54,3.54,0,0,1,.46-1.23,6.08,6.08,0,0,1,1-1.15,12.27,12.27,0,0,1,1.13-1q.49-.36,1.27-.9l1.08-.76a.47.47,0,0,0,.11-.54l-.51-1.55a2.55,2.55,0,0,0-1-1.41A1.55,1.55,0,0,0,90,38a1.8,1.8,0,0,0-1.16,1,2.22,2.22,0,0,0,0,1.64,1,1,0,0,1-.15,1,1.85,1.85,0,0,1-.87.58,1.67,1.67,0,0,1-1.69-.2q-.44-1.36,1-3.15A7.45,7.45,0,0,1,90.67,36.4Zm2.28,11.27a2.3,2.3,0,0,0,1.18-.83,1.18,1.18,0,0,0,.26-1.08l-.94-2.88q-.17.15-.74.56t-.86.66a8.18,8.18,0,0,0-.66.65,1.79,1.79,0,0,0-.46.84,1.64,1.64,0,0,0,0,.86,1.83,1.83,0,0,0,.89,1.18A1.71,1.71,0,0,0,92.94,47.66Z"/><path class="cls-1" d="M106.07,31.36a3,3,0,0,1,2.62.17q.79,2.4-.57,2.84a1.76,1.76,0,0,1-1.29-.2,1.86,1.86,0,0,0-1.4-.17,1.59,1.59,0,0,0-1.08,1.34,4,4,0,0,0,.11,2l1.16,3.53a12.45,12.45,0,0,0,1,2.48c.08.12.38.17.88.16a4.19,4.19,0,0,0,1-.1q.08,0,.23.38a3.05,3.05,0,0,1,.17.56l-1.53.38q-1.3.33-1.95.54t-1.94.73l-1.47.61q-.15-.08-.29-.5c-.09-.28-.1-.44,0-.46a4.17,4.17,0,0,0,1-.55q.62-.44.61-.65a9.69,9.69,0,0,0-.48-2.13l-1.51-4.61a2.82,2.82,0,0,0-1-1.66,1.43,1.43,0,0,0-.77-.22,3.38,3.38,0,0,0-.73.05c-.19,0-.28,0-.3,0q-.27-.82-.14-.89a42.36,42.36,0,0,0,4.27-2.33l.21-.13q.11,0,.26.13a.73.73,0,0,1,.18.3l.09.41c0,.19.08.38.11.59a3.68,3.68,0,0,0,.08.4,5.46,5.46,0,0,1,.94-1.82A3.26,3.26,0,0,1,106.07,31.36Z"/><path class="cls-1" d="M112.52,31.44l-1.72.56q-.2.06-.44-.67a.73.73,0,0,1-.05-.26A8.34,8.34,0,0,0,112,28.86q.25-.49.53-1.1t.64-1.54a2.1,2.1,0,0,1,.56-.1c.19,0,.29,0,.31.07l.91,2.77,2.05-.66,1.4-.44c.15,0,.25,0,.31.18a2.87,2.87,0,0,1,.12,1.34l-3.39,1.11,2.23,6.81a2.83,2.83,0,0,0,1,1.57,1.7,1.7,0,0,0,1.52.16,2.81,2.81,0,0,0,.57-.27,3.1,3.1,0,0,0,.46-.32l.31-.29a.91.91,0,0,1,.17-.15q.1-.07.34.17c.16.16.23.27.23.33a2.73,2.73,0,0,1-.9,1.31A4.69,4.69,0,0,1,119.55,41a3.75,3.75,0,0,1-2.81-.13,4,4,0,0,1-2-2.59Z"/><path class="cls-1" d="M130.07,16.74q1.93-.55,3.15-1t3.11-1.1l3-1.11a9.89,9.89,0,0,0,1.86-.92l2,4.15a1.14,1.14,0,0,1-.7.45c-.15,0-.26,0-.33,0a4.28,4.28,0,0,0-1.73-1.76,3.27,3.27,0,0,0-2.21.11q-2.63.86-2.58,1.38a10.42,10.42,0,0,0,.62,2.74l3.34,10.2a10.14,10.14,0,0,0,1.06,2.37c.06.13.36.18.9.16a4.75,4.75,0,0,0,1.06-.11c.08,0,.17.13.28.47a1.55,1.55,0,0,1,.09.47l-1.12.27-1.36.35q-.62.17-1.18.36-.76.25-2.08.77l-1.62.65a.69.69,0,0,1-.26-.42c-.11-.34-.13-.52-.05-.55a4.78,4.78,0,0,0,1-.54q.66-.43.67-.69a9.41,9.41,0,0,0-.54-2.42l-3.34-10.23a8.16,8.16,0,0,0-1.15-2.66q-.38-.41-2.84.4a3.27,3.27,0,0,0-1.85,1.22,4.4,4.4,0,0,0-.39,2.43c0,.12-.06.21-.23.26a1,1,0,0,1-.81,0L124.93,18a9.9,9.9,0,0,0,2-.35Z"/><path class="cls-1" d="M154.9,15.39q3.62-1.18,5.44,4.38l1,2.91a10.9,10.9,0,0,0,1.06,2.47c.06.13.36.18.88.16a4.56,4.56,0,0,0,1-.11q.08,0,.23.38a3,3,0,0,1,.17.56q-.21,0-1.55.38t-2,.55q-.71.23-1.88.71l-1.45.6a1.1,1.1,0,0,1-.26-.51q-.14-.42-.05-.45a3.56,3.56,0,0,0,.91-.53c.38-.28.57-.5.59-.65a11.32,11.32,0,0,0-.5-2.12l-.91-2.77a6.21,6.21,0,0,0-1.69-3,2.43,2.43,0,0,0-2.31-.23,2.84,2.84,0,0,0-1.4,1,1.4,1.4,0,0,0-.36,1.3l1.59,4.86a10.9,10.9,0,0,0,1.06,2.47q.12.18.88.17a4.2,4.2,0,0,0,1-.1q.08,0,.23.38a1.68,1.68,0,0,1,.14.57l-1.52.37q-1.29.33-1.94.54t-1.94.73l-1.47.61q-.15-.08-.29-.5c-.09-.28-.1-.44,0-.46a4.15,4.15,0,0,0,1-.55q.62-.44.61-.65a9.58,9.58,0,0,0-.47-2.1L146.84,15a11.7,11.7,0,0,0-.77-1.88q-.29-.41-1.62,0l-.25.08q-.17.05-.32-.4c-.1-.3-.09-.47,0-.51q.85-.37,1.59-.77t1.22-.71q.48-.31.81-.58l.71-.55.06,0a.32.32,0,0,1,.28.08.82.82,0,0,1,.24.25,9.59,9.59,0,0,0,.53,2.77l1.87,5.71c0,.11.09.16.17.13s0,0,.08-.12a5.66,5.66,0,0,1,1.33-1.8A5.48,5.48,0,0,1,154.9,15.39Z"/><path class="cls-1" d="M170.56,10.27a3,3,0,0,1,2.62.17q.79,2.4-.57,2.85a1.77,1.77,0,0,1-1.29-.21,1.86,1.86,0,0,0-1.4-.17,1.59,1.59,0,0,0-1.08,1.34,3.94,3.94,0,0,0,.11,2l1.16,3.53a12.45,12.45,0,0,0,1,2.48c.08.12.38.17.88.16a4.2,4.2,0,0,0,1-.1c.06,0,.13.11.23.38a3.22,3.22,0,0,1,.17.56l-1.54.38q-1.3.33-1.95.54t-1.94.73l-1.47.61q-.15-.08-.29-.5c-.09-.28-.1-.44,0-.46a4.18,4.18,0,0,0,1-.55q.62-.44.61-.65a9.75,9.75,0,0,0-.48-2.13l-1.51-4.61a2.83,2.83,0,0,0-1-1.66,1.43,1.43,0,0,0-.77-.22,3.39,3.39,0,0,0-.73.05c-.18,0-.28,0-.29,0q-.27-.82-.14-.89a42.14,42.14,0,0,0,4.27-2.33l.21-.13c.08,0,.16,0,.26.13a.72.72,0,0,1,.18.3l.09.41c0,.19.08.38.11.59a3.77,3.77,0,0,0,.08.4,5.49,5.49,0,0,1,.94-1.82A3.26,3.26,0,0,1,170.56,10.27Z"/><path class="cls-1" d="M180.51,7a5.51,5.51,0,0,1,2.54-.25,4.71,4.71,0,0,1,2.07.79,6.88,6.88,0,0,1,1.45,1.37,5.13,5.13,0,0,1,.85,1.55q.2.62,0,.85a1.68,1.68,0,0,1-.81.44L179.91,14c-.13,0-.18.12-.14.23a5.77,5.77,0,0,0,1,1.86,4.1,4.1,0,0,0,1.8,1.26,3.51,3.51,0,0,0,2.37,0,8,8,0,0,0,.8-.31,4.41,4.41,0,0,0,.69-.38l.53-.38a2.49,2.49,0,0,0,.44-.43l.3-.36.44-.57a.49.49,0,0,1,.2.12.6.6,0,0,1,.18.25.92.92,0,0,1,0,.59,4.84,4.84,0,0,1-1.17,2.07,5.51,5.51,0,0,1-2.55,1.68,6,6,0,0,1-4.83-.44,6.41,6.41,0,0,1-3.23-3.84,6.88,6.88,0,0,1,.14-5.17A5.76,5.76,0,0,1,180.51,7Zm.23,1.36a2.1,2.1,0,0,0-1.08.79,2.8,2.8,0,0,0-.51,1.23,5.71,5.71,0,0,0-.06,1.19,3.64,3.64,0,0,0,.15.88c0,.13.12.18.23.14l4.58-1.5q.25-.08.12-.51a3.86,3.86,0,0,0-1.32-1.79A2.13,2.13,0,0,0,180.74,8.38Z"/><path class="cls-1" d="M193.12,2.89a5.51,5.51,0,0,1,2.54-.25,4.71,4.71,0,0,1,2.07.79,6.88,6.88,0,0,1,1.45,1.37A5.11,5.11,0,0,1,200,6.35q.2.62,0,.85a1.69,1.69,0,0,1-.81.44l-6.75,2.21c-.13,0-.18.12-.14.23a5.78,5.78,0,0,0,1,1.86,4.09,4.09,0,0,0,1.8,1.26,3.5,3.5,0,0,0,2.37,0,8.2,8.2,0,0,0,.8-.31,4.43,4.43,0,0,0,.69-.38l.53-.38a2.54,2.54,0,0,0,.44-.43l.3-.36.44-.57a.47.47,0,0,1,.2.12.58.58,0,0,1,.18.25.92.92,0,0,1,0,.59A4.82,4.82,0,0,1,200,13.82a5.52,5.52,0,0,1-2.55,1.68,6,6,0,0,1-4.83-.44,6.41,6.41,0,0,1-3.23-3.84A6.88,6.88,0,0,1,189.51,6,5.76,5.76,0,0,1,193.12,2.89Zm.23,1.37a2.1,2.1,0,0,0-1.08.79,2.8,2.8,0,0,0-.5,1.23,5.71,5.71,0,0,0-.06,1.19,3.63,3.63,0,0,0,.15.88c0,.13.12.18.23.14L196.65,7c.17-.06.21-.22.12-.51a3.85,3.85,0,0,0-1.32-1.79A2.13,2.13,0,0,0,193.35,4.26Z"/><path class="cls-1" d="M203.51.45a1.89,1.89,0,0,1,1,1.13,2,2,0,0,1-.11,1.54,1.82,1.82,0,0,1-1.12,1A1.9,1.9,0,0,1,201.71,4a2,2,0,0,1-1-1.17,1.86,1.86,0,0,1,.14-1.5,2,2,0,0,1,1.18-1A1.89,1.89,0,0,1,203.51.45Zm2.85,8.72a1.94,1.94,0,0,1,1,1.15,2,2,0,0,1-.11,1.52,1.84,1.84,0,0,1-1.12,1,1.92,1.92,0,0,1-1.55-.14,2,2,0,0,1-1-1.16,1.91,1.91,0,0,1,.13-1.51,1.94,1.94,0,0,1,1.17-1A1.86,1.86,0,0,1,206.36,9.16Z"/><path class="cls-1" d="M4.21,72.81l5.09-.75a10,10,0,0,1,7.9,1.71A9.42,9.42,0,0,1,20.88,80a10,10,0,0,1-1.67,7.5,9.92,9.92,0,0,1-7.06,4q-.62.09-2.44.3t-2.61.33l-3.89.7a.78.78,0,0,1-.16-.46q-.07-.5,0-.51a4.9,4.9,0,0,0,1.09-.36q.71-.3.79-.58a10.78,10.78,0,0,0-.19-2.71L3.1,77.09a9.38,9.38,0,0,0-.56-2.38c-.09-.21-.39-.34-.9-.41a4.69,4.69,0,0,0-1.21,0c-.08,0-.14-.13-.18-.42a.8.8,0,0,1,0-.55Q2.24,73.1,4.21,72.81Zm2.18,3.52L8.1,87.86A4.82,4.82,0,0,0,8.74,90q.54.4,3.66-.06,6-.88,4.7-9.47a9.62,9.62,0,0,0-2.43-5.35,5.3,5.3,0,0,0-4.91-1.62l-.15,0q-2.82.42-3.11.94A3.27,3.27,0,0,0,6.39,76.33Z"/><path class="cls-1" d="M28.33,75.72a5.51,5.51,0,0,1,2.55.18A4.71,4.71,0,0,1,32.8,77a6.89,6.89,0,0,1,1.2,1.6,5.11,5.11,0,0,1,.58,1.67q.1.65-.1.84a1.69,1.69,0,0,1-.87.29l-7,1c-.14,0-.2.09-.18.21a5.78,5.78,0,0,0,.69,2,4.09,4.09,0,0,0,1.57,1.54,3.5,3.5,0,0,0,2.33.41,8.27,8.27,0,0,0,.85-.17,4.41,4.41,0,0,0,.74-.26l.59-.28a2.59,2.59,0,0,0,.51-.35l.36-.31.53-.48a.49.49,0,0,1,.17.15.57.57,0,0,1,.13.28.92.92,0,0,1-.09.58,4.85,4.85,0,0,1-1.5,1.84,5.51,5.51,0,0,1-2.79,1.23,6,6,0,0,1-4.69-1.24,6.41,6.41,0,0,1-2.53-4.33,6.88,6.88,0,0,1,1-5.08A5.76,5.76,0,0,1,28.33,75.72Zm0,1.38a2.1,2.1,0,0,0-1.2.6,2.81,2.81,0,0,0-.71,1.13A5.75,5.75,0,0,0,26.16,80a3.68,3.68,0,0,0,0,.89c0,.14.09.2.21.18l4.76-.71c.18,0,.24-.19.2-.48a3.85,3.85,0,0,0-1-2A2.13,2.13,0,0,0,28.33,77.11Z"/><path class="cls-1" d="M41.75,73.73a7.18,7.18,0,0,1,2.85.1,4.75,4.75,0,0,1,1.92.87,3.69,3.69,0,0,1-.09,1.71,1.1,1.1,0,0,1-.92.81,1.33,1.33,0,0,1-.94-.16,3.37,3.37,0,0,1-.84-.87,2.15,2.15,0,0,0-2.17-1.06,2.29,2.29,0,0,0-1.82,1.58,6.35,6.35,0,0,0-.27,3.33,6,6,0,0,0,1.67,3.77,3.51,3.51,0,0,0,3,.87,8,8,0,0,0,.85-.17,4.42,4.42,0,0,0,.74-.26l.59-.28a2.53,2.53,0,0,0,.5-.35l.36-.31.53-.48a.49.49,0,0,1,.17.15.58.58,0,0,1,.13.28.91.91,0,0,1-.09.58,4.84,4.84,0,0,1-1.5,1.84,5.46,5.46,0,0,1-2.76,1.22,6,6,0,0,1-4.74-1.25,6.56,6.56,0,0,1-2.53-4.4,6.76,6.76,0,0,1,1.08-4.89A6,6,0,0,1,41.75,73.73Z"/><path class="cls-1" d="M54.94,80.74a12.23,12.23,0,0,0,.6,2.62q.09.2.79.35a3.26,3.26,0,0,0,.93.12c.06,0,.11.12.16.4a1.61,1.61,0,0,1,0,.57l-1.11.09L55.09,85,54,85.11c-.37.06-.74.12-1.11.19l-1.22.26-1.11.24a.84.84,0,0,1-.2-.53c0-.28,0-.43.05-.44a3.17,3.17,0,0,0,.95-.4c.42-.23.63-.42.65-.56a9.88,9.88,0,0,0-.09-2.21L50.14,69.43a10.33,10.33,0,0,0-.47-2q-.22-.45-1.54-.25l-.29,0q-.18,0-.23-.33t.11-.5q.9-.22,1.7-.49t1.32-.5q.52-.23.9-.42l.6-.31.19-.12h.06a.36.36,0,0,1,.28.14A.91.91,0,0,1,53,65,9.38,9.38,0,0,0,53,67.8Z"/><path class="cls-1" d="M63.67,70.49a3.65,3.65,0,0,1,2.88.55,4.76,4.76,0,0,1,1.4,3.14L68.81,80a1.35,1.35,0,0,0,.4.86A.89.89,0,0,0,70,81a1.86,1.86,0,0,0,.94-.53c.12,0,.2.12.22.3a1.76,1.76,0,0,1,0,.91,7.35,7.35,0,0,1-1.07.91,3.09,3.09,0,0,1-1.35.59,2.17,2.17,0,0,1-1.4-.3,2.44,2.44,0,0,1-1-1l-.19.22q-.17.19-.47.48a8.56,8.56,0,0,1-.7.58,4.71,4.71,0,0,1-.94.55,4.34,4.34,0,0,1-1.14.33,3.55,3.55,0,0,1-2.52-.45A2.82,2.82,0,0,1,59,81.57a2.75,2.75,0,0,1,.14-1.37,3.56,3.56,0,0,1,.66-1.13,6.1,6.1,0,0,1,1.15-1,12.52,12.52,0,0,1,1.28-.78l1.4-.67,1.19-.57a.47.47,0,0,0,.2-.51L64.82,74a2.56,2.56,0,0,0-.71-1.55,1.55,1.55,0,0,0-1.35-.4,1.8,1.8,0,0,0-1.3.75,2.23,2.23,0,0,0-.27,1.62,1,1,0,0,1-.31.93,1.85,1.85,0,0,1-1,.43,1.68,1.68,0,0,1-1.63-.48q-.21-1.41,1.53-2.93A7.45,7.45,0,0,1,63.67,70.49ZM64,82a2.31,2.31,0,0,0,1.31-.61,1.18,1.18,0,0,0,.43-1l-.45-3c-.13.08-.4.22-.82.42s-.74.37-1,.5a7.88,7.88,0,0,0-.76.53,1.79,1.79,0,0,0-.6.75,1.64,1.64,0,0,0-.1.86,1.83,1.83,0,0,0,.68,1.31A1.71,1.71,0,0,0,64,82Z"/><path class="cls-1" d="M79.71,68.11a3,3,0,0,1,2.55.61q.37,2.5-1,2.71A1.76,1.76,0,0,1,80,71a1.86,1.86,0,0,0-1.35-.4,1.59,1.59,0,0,0-1.29,1.14,4,4,0,0,0-.23,2l.54,3.68a12.46,12.46,0,0,0,.6,2.62q.09.2.84.31a4.17,4.17,0,0,0,1,.07c.06,0,.11.13.17.41a3.1,3.1,0,0,1,.07.58l-1.58.11q-1.34.11-2,.21t-2,.39l-1.56.35a.88.88,0,0,1-.2-.54c0-.29,0-.45.05-.46a4.14,4.14,0,0,0,1-.38q.69-.33.72-.54a9.77,9.77,0,0,0-.11-2.18L74,73.59a2.83,2.83,0,0,0-.75-1.81,1.43,1.43,0,0,0-.73-.34,3.4,3.4,0,0,0-.73-.07c-.19,0-.29,0-.29,0-.08-.57-.08-.87,0-.9a42.23,42.23,0,0,0,4.6-1.58l.23-.09c.08,0,.16,0,.24.17a.72.72,0,0,1,.12.33c0,.09,0,.23,0,.42s0,.39,0,.6a3.66,3.66,0,0,0,0,.4A5.45,5.45,0,0,1,77.95,69,3.26,3.26,0,0,1,79.71,68.11Z"/><path class="cls-1" d="M90.58,75.51a10.91,10.91,0,0,0,.63,2.61q.09.2.86.31a4.36,4.36,0,0,0,1,.07q.12,0,.2.41a1.69,1.69,0,0,1,0,.58l-1.59.12q-1.38.11-2,.21t-2.06.4q-1.33.29-1.53.35a.87.87,0,0,1-.2-.54q-.07-.44.05-.46a4.29,4.29,0,0,0,1-.38q.7-.33.73-.54a9.71,9.71,0,0,0-.11-2.18l-.71-4.79a2.83,2.83,0,0,0-.75-1.81,1.65,1.65,0,0,0-.74-.34,3.13,3.13,0,0,0-.73-.07c-.2,0-.3,0-.31,0q-.13-.85,0-.91A31.46,31.46,0,0,0,89,66.91l.23-.09c.1,0,.19,0,.27.17a.55.55,0,0,1,.11.31,25.45,25.45,0,0,0,.14,2.56ZM85.7,63.66A1.81,1.81,0,0,1,85,62.44a1.84,1.84,0,0,1,3.65-.54,1.81,1.81,0,0,1-.34,1.37,1.83,1.83,0,0,1-2.59.38Z"/><path class="cls-1" d="M102.78,64.69q3.79-.56,4.69,5.47l.41,2.79a12.41,12.41,0,0,0,.6,2.62q.09.2.87.31a4.51,4.51,0,0,0,1,.07c.06,0,.11.13.17.41a1.69,1.69,0,0,1,0,.58q-.18,0-1.56.11t-2.06.21q-.71.1-1.94.38l-1.5.34a.87.87,0,0,1-.2-.54c0-.29,0-.45.05-.46a3.55,3.55,0,0,0,1-.37c.42-.21.64-.39.66-.53a8.59,8.59,0,0,0-.08-2.18l-.41-2.79a6.45,6.45,0,0,0-1.17-3.31,2.39,2.39,0,0,0-2.25-.66,2.75,2.75,0,0,0-1.57.76A1.43,1.43,0,0,0,99,69.1l.75,5.06a12.48,12.48,0,0,0,.6,2.62c.06.13.34.23.84.31a4.25,4.25,0,0,0,1,.08q.12,0,.2.41a1.71,1.71,0,0,1,0,.58l-1.56.11q-1.32.11-2,.21t-2,.39l-1.56.35a.87.87,0,0,1-.2-.54q-.07-.44.05-.46a4.13,4.13,0,0,0,1-.38q.69-.33.72-.54a9.71,9.71,0,0,0-.11-2.18L96,70.32a2.82,2.82,0,0,0-.75-1.81,1.44,1.44,0,0,0-.73-.34,3.42,3.42,0,0,0-.73-.07c-.19,0-.29,0-.29,0-.08-.57-.08-.87,0-.9a42,42,0,0,0,4.6-1.58l.07-.05.09,0h.07c.08,0,.16,0,.24.17a.91.91,0,0,1,.14.31,10,10,0,0,0,0,1.08c0,.08,0,.13.05.14a.44.44,0,0,0,.13-.11,6.59,6.59,0,0,1,1.63-1.5A5.21,5.21,0,0,1,102.78,64.69Z"/><path class="cls-1" d="M116.26,62.75a9.42,9.42,0,0,1,2.5,0,9.18,9.18,0,0,0,2.41,0l1.68-.25s.13.11.26.35a1.84,1.84,0,0,1,.23.57c0,.27,0,.42-.12.44l-1.91.28c-.08,0-.11,0-.1.11s.13.26.38.73a4.23,4.23,0,0,1,.47,1.37,4.3,4.3,0,0,1-1,3.35,5.1,5.1,0,0,1-3.42,1.94,12.32,12.32,0,0,1-1.84.15,1.6,1.6,0,0,0-.57.64,1.27,1.27,0,0,0-.19.76.61.61,0,0,0,.35.46,2,2,0,0,0,.91.17q.6,0,1,0l1.19-.12.44-.07a10.49,10.49,0,0,1,4.43.17,2.34,2.34,0,0,1,1.69,2,4.68,4.68,0,0,1-1.55,4.14,8.13,8.13,0,0,1-4.73,2.35,7.73,7.73,0,0,1-3.87-.27,2.67,2.67,0,0,1-2-2.17,2.31,2.31,0,0,1,.59-1.77,4.91,4.91,0,0,1,1.64-1.39,3.39,3.39,0,0,1-1.55-.69,2.16,2.16,0,0,1-.87-1.45q-.19-1.26,1.79-2.94a3.94,3.94,0,0,1-1.81-1.28A4.38,4.38,0,0,1,111.66,68a4,4,0,0,1,1-3.52A5.91,5.91,0,0,1,116.26,62.75Zm-1.6,4.6a4.71,4.71,0,0,0,.95,2.34,1.85,1.85,0,0,0,1.79.74,1.77,1.77,0,0,0,1.48-1.08,3.93,3.93,0,0,0,.21-2.15,4.88,4.88,0,0,0-1-2.44,1.9,1.9,0,0,0-1.85-.72,1.68,1.68,0,0,0-1.42,1.14A4.31,4.31,0,0,0,114.66,67.35Zm7.94,10.18q-.15-1-1.69-1.15a18.92,18.92,0,0,0-4,.25l-.14.05-.13.11q-.36.2-.55.34a2.54,2.54,0,0,0-.42.39,1.43,1.43,0,0,0-.32.57,1.72,1.72,0,0,0,0,.73,2.08,2.08,0,0,0,1.38,1.6,4.64,4.64,0,0,0,2.6.34,4.49,4.49,0,0,0,2.58-1.16A2.32,2.32,0,0,0,122.6,77.53Z"/><path class="cls-1" d="M138.06,59.46a6.56,6.56,0,0,1,5,1.23,6.37,6.37,0,0,1,2.65,4.37,6.78,6.78,0,1,1-7.65-5.6Zm-.18,1.44a2.39,2.39,0,0,0-1.95,1.66,6.39,6.39,0,0,0-.29,3.3,8.67,8.67,0,0,0,1.57,4,3,3,0,0,0,2.92,1.37,2.42,2.42,0,0,0,2-1.67,6.31,6.31,0,0,0,.31-3.29,10.19,10.19,0,0,0-.8-2.78,5.24,5.24,0,0,0-1.56-2A2.76,2.76,0,0,0,137.88,60.9Z"/><path class="cls-1" d="M159.94,59.47l.86,5.82a6.57,6.57,0,0,0,.54,2,.62.62,0,0,0,.37.19,2.28,2.28,0,0,0,.53,0l.49,0a.55.55,0,0,1,.25,0c.08,0,.13.09.16.25a2.25,2.25,0,0,1,0,.41q0,.29-.13.31a6.85,6.85,0,0,0-1,.26l-1.19.39-1.08.39-1.14.41q-.21,0-.28-.44l-.19-1.29c0-.09-.07-.14-.11-.13a6.64,6.64,0,0,1-1.6,1.59,5,5,0,0,1-2.24.93,3.11,3.11,0,0,1-1.82-.24A3.58,3.58,0,0,1,151,69.18a6.35,6.35,0,0,1-.87-1.61,9,9,0,0,1-.47-1.82l-.49-3.29a2.83,2.83,0,0,0-.75-1.81,1.65,1.65,0,0,0-.74-.34,3.1,3.1,0,0,0-.73-.07c-.2,0-.3,0-.31,0q-.13-.85,0-.9a22.33,22.33,0,0,0,2.36-.71,23.21,23.21,0,0,0,2.25-.87l.11,0,.11,0c.1,0,.18,0,.25.17a1.06,1.06,0,0,1,.12.31q0,2,.12,2.63l.52,3.53a6.37,6.37,0,0,0,1.13,3.2,2.62,2.62,0,0,0,3.74-.12,1.58,1.58,0,0,0,.48-1.2l-.72-4.85a2.82,2.82,0,0,0-.75-1.81,1.42,1.42,0,0,0-.73-.34,3.37,3.37,0,0,0-.75-.07q-.3,0-.31,0-.13-.85,0-.91a22.72,22.72,0,0,0,2.33-.71,23.32,23.32,0,0,0,2.25-.87l.23-.09c.1,0,.19,0,.27.17a.55.55,0,0,1,.11.31Q159.87,58.94,159.94,59.47Z"/><path class="cls-1" d="M171.86,54.45a3,3,0,0,1,2.56.61q.37,2.5-1,2.71a1.77,1.77,0,0,1-1.24-.42,1.86,1.86,0,0,0-1.35-.4,1.6,1.6,0,0,0-1.29,1.14,4,4,0,0,0-.23,2l.54,3.68a12.46,12.46,0,0,0,.6,2.62c.06.13.34.23.84.31a4.22,4.22,0,0,0,1,.07c.06,0,.11.13.17.41a3.1,3.1,0,0,1,.07.58l-1.58.11q-1.34.11-2,.21t-2,.39l-1.56.35a.87.87,0,0,1-.2-.54c0-.29,0-.45.05-.46a4.13,4.13,0,0,0,1-.38q.69-.33.72-.54a9.72,9.72,0,0,0-.11-2.18l-.71-4.79a2.83,2.83,0,0,0-.75-1.81,1.43,1.43,0,0,0-.73-.34,3.36,3.36,0,0,0-.73-.07c-.19,0-.29,0-.29,0-.08-.57-.08-.87,0-.9a42.12,42.12,0,0,0,4.61-1.58l.23-.09c.08,0,.16,0,.24.18a.72.72,0,0,1,.12.33q0,.13,0,.42c0,.19,0,.39,0,.6a3.51,3.51,0,0,0,0,.4,5.43,5.43,0,0,1,1.23-1.64A3.25,3.25,0,0,1,171.86,54.45Z"/><path class="cls-1" d="M182.75,51.4a4.68,4.68,0,0,1,1.3-4,6.5,6.5,0,0,1,4-2.13,10.45,10.45,0,0,1,1.46-.13q.63,0,1.77.11l1.57.14a26.56,26.56,0,0,1,1,4.48.32.32,0,0,1-.31.32q-.8.12-.89-.14A5.24,5.24,0,0,0,191,47.6a3.38,3.38,0,0,0-2.84-.9,2.74,2.74,0,0,0-2,1.07,2.91,2.91,0,0,0-.42,2.17,3.36,3.36,0,0,0,.23.82,2.11,2.11,0,0,0,.53.72l.59.56a3.58,3.58,0,0,0,.83.52l.81.42q.21.12,1,.44a9,9,0,0,0,.91.36,10.82,10.82,0,0,0,1.08.49q.88.37,1.24.54c.24.12.59.32,1.05.61a4.27,4.27,0,0,1,1,.87,6.17,6.17,0,0,1,.69,1.11,5,5,0,0,1,.46,1.51,4.83,4.83,0,0,1-1.32,4.16,6.88,6.88,0,0,1-4.17,2.18,27.64,27.64,0,0,1-5.53,0,25.94,25.94,0,0,1-.88-2.59,20.23,20.23,0,0,1-.53-2.07c0-.16.14-.26.44-.3.51-.08.81,0,.89.11a5.73,5.73,0,0,0,.58,1.1,8.62,8.62,0,0,0,1,1.23,3.92,3.92,0,0,0,1.56,1,4.17,4.17,0,0,0,2,.17,3.32,3.32,0,0,0,2.17-1.16,3.19,3.19,0,0,0,.55-2.61,2.58,2.58,0,0,0-.33-.94,3.5,3.5,0,0,0-.56-.73,4.4,4.4,0,0,0-.84-.6q-.54-.31-.9-.47l-1-.43-1-.38a2,2,0,0,0-.36-.19l-1.42-.63a14.39,14.39,0,0,1-1.26-.7,5.85,5.85,0,0,1-1.2-.92,5.62,5.62,0,0,1-.82-1.14A4.47,4.47,0,0,1,182.75,51.4Z"/><path class="cls-1" d="M202.91,49.85a5.51,5.51,0,0,1,2.55.18,4.71,4.71,0,0,1,1.91,1.13,6.93,6.93,0,0,1,1.2,1.6,5.12,5.12,0,0,1,.58,1.67q.1.65-.1.84a1.69,1.69,0,0,1-.87.29l-7,1c-.14,0-.2.09-.18.21a5.76,5.76,0,0,0,.69,2,4.09,4.09,0,0,0,1.56,1.54,3.5,3.5,0,0,0,2.33.41,8.07,8.07,0,0,0,.84-.17,4.45,4.45,0,0,0,.74-.26l.59-.28a2.55,2.55,0,0,0,.5-.35l.36-.31.53-.48a.48.48,0,0,1,.17.15.58.58,0,0,1,.13.28.91.91,0,0,1-.09.58,4.84,4.84,0,0,1-1.5,1.84A5.52,5.52,0,0,1,205,63a6,6,0,0,1-4.69-1.24,6.41,6.41,0,0,1-2.54-4.33,6.88,6.88,0,0,1,1-5.08A5.76,5.76,0,0,1,202.91,49.85Zm0,1.38a2.1,2.1,0,0,0-1.2.6A2.79,2.79,0,0,0,201,53a5.69,5.69,0,0,0-.26,1.17,3.63,3.63,0,0,0,0,.89c0,.14.09.2.21.18l4.76-.71c.18,0,.24-.19.2-.48a3.85,3.85,0,0,0-1-2A2.13,2.13,0,0,0,202.9,51.24Z"/><path class="cls-1" d="M219.62,47.38q3.79-.56,4.69,5.47l.41,2.79a12.33,12.33,0,0,0,.6,2.62c.06.13.35.23.87.31a4.56,4.56,0,0,0,1,.07c.06,0,.11.13.17.41a1.68,1.68,0,0,1,0,.58q-.18,0-1.56.11t-2.06.21q-.71.1-1.94.38l-1.5.34a.87.87,0,0,1-.2-.54c0-.29,0-.45.05-.46a3.53,3.53,0,0,0,1-.37c.42-.21.64-.39.66-.53a8.5,8.5,0,0,0-.08-2.18l-.41-2.79a6.45,6.45,0,0,0-1.17-3.31,2.39,2.39,0,0,0-2.25-.66,2.75,2.75,0,0,0-1.57.76,1.43,1.43,0,0,0-.54,1.21l.75,5.06a12.4,12.4,0,0,0,.6,2.62c.06.13.34.23.84.31a4.31,4.31,0,0,0,1,.08q.12,0,.2.41a1.69,1.69,0,0,1,0,.58l-1.56.11q-1.32.11-2,.21t-2,.39l-1.56.35a.87.87,0,0,1-.2-.54c0-.29,0-.45.05-.46a4.14,4.14,0,0,0,1-.38q.69-.33.72-.54a9.71,9.71,0,0,0-.11-2.18L212.88,53a2.82,2.82,0,0,0-.75-1.81,1.43,1.43,0,0,0-.73-.34,3.4,3.4,0,0,0-.73-.07c-.19,0-.29,0-.29,0q-.13-.85,0-.9a42,42,0,0,0,4.6-1.58l.07-.05.09,0h.07c.08,0,.16,0,.24.18a.87.87,0,0,1,.14.31,10,10,0,0,0,0,1.08.25.25,0,0,0,0,.14.46.46,0,0,0,.14-.11,6.58,6.58,0,0,1,1.63-1.5A5.21,5.21,0,0,1,219.62,47.38Z"/><path class="cls-1" d="M229.49,48l-1.79.27c-.14,0-.24-.22-.32-.73a.78.78,0,0,1,0-.27,8.3,8.3,0,0,0,2-1.89q.33-.44.71-1T231,43a2.08,2.08,0,0,1,.57,0c.18,0,.28.06.29.12l.43,2.88,2.13-.3,1.46-.2c.16,0,.25.05.28.23A2.88,2.88,0,0,1,236,47l-3.53.52,1,7.09a2.82,2.82,0,0,0,.77,1.72,1.7,1.7,0,0,0,1.47.41,2.81,2.81,0,0,0,.61-.17,3.17,3.17,0,0,0,.5-.24l.36-.23.19-.12c.07,0,.18,0,.3.23s.19.3.17.36q-.12.44-1.11,1.14a4.68,4.68,0,0,1-2,.86,3.75,3.75,0,0,1-2.75-.6,4,4,0,0,1-1.52-2.88Z"/><path class="cls-1" d="M244.61,52.69a11,11,0,0,0,.63,2.61q.09.2.86.31a4.37,4.37,0,0,0,1,.07c.08,0,.14.12.2.41a1.69,1.69,0,0,1,0,.58l-1.59.12q-1.38.11-2,.21t-2.06.4l-1.53.35a.87.87,0,0,1-.2-.54q-.07-.44.05-.46a4.3,4.3,0,0,0,1-.38q.7-.33.73-.54a9.77,9.77,0,0,0-.11-2.18l-.71-4.79A2.83,2.83,0,0,0,240.2,47a1.66,1.66,0,0,0-.74-.34,3.13,3.13,0,0,0-.73-.07c-.2,0-.3,0-.31,0q-.13-.85,0-.91a23,23,0,0,0,2.33-.71,23.24,23.24,0,0,0,2.25-.87l.23-.09c.1,0,.19,0,.27.17a.54.54,0,0,1,.11.31q0,1.92.14,2.56Zm-4.88-11.85a1.81,1.81,0,0,1-.72-1.22,1.83,1.83,0,0,1,1.55-2.08,1.78,1.78,0,0,1,1.37.34,1.76,1.76,0,0,1,.72,1.2,1.81,1.81,0,0,1-.34,1.37,1.83,1.83,0,0,1-2.59.38Z"/><path class="cls-1" d="M256.81,41.87a3.21,3.21,0,0,1,2,.29,3.48,3.48,0,0,1,1.4,1.31,7,7,0,0,1,1.93-1.79,6.67,6.67,0,0,1,2.68-1,3.38,3.38,0,0,1,1.88.2A3.3,3.3,0,0,1,268.06,42a7,7,0,0,1,.89,1.73,11.32,11.32,0,0,1,.51,2.1l.46,3.09a12.48,12.48,0,0,0,.6,2.62c.06.13.34.23.86.31a4.37,4.37,0,0,0,1,.07c.06,0,.11.13.17.41a1.73,1.73,0,0,1,0,.58L271,53q-1.35.11-2,.21t-2,.39l-1.56.35a1.09,1.09,0,0,1-.17-.55c0-.29,0-.45,0-.45a4,4,0,0,0,1-.38q.67-.33.7-.54a9.31,9.31,0,0,0-.1-2.09l-.44-3q-.63-4.26-3.37-3.86a2.71,2.71,0,0,0-1.55.71,1.85,1.85,0,0,0-.63,1,2.28,2.28,0,0,1,0,.24.55.55,0,0,0,0,.23,14.48,14.48,0,0,1,.36,1.81l.46,3.12a11.58,11.58,0,0,0,.58,2.5c.06.13.34.23.86.31a4.37,4.37,0,0,0,1,.07c.06,0,.11.13.17.41a1.66,1.66,0,0,1,0,.58l-1.56.11q-1.35.11-2,.21t-2,.39l-1.55.35a1.1,1.1,0,0,1-.17-.55c0-.29,0-.45,0-.45a4,4,0,0,0,1-.38c.45-.22.68-.4.7-.54a9.77,9.77,0,0,0-.11-2.18l-.42-2.82A6.31,6.31,0,0,0,257.25,45a2.26,2.26,0,0,0-2.15-.73,2.85,2.85,0,0,0-1.54.74,1.4,1.4,0,0,0-.57,1.23l.75,5.06a11,11,0,0,0,.63,2.61c.06.13.34.24.83.31a4,4,0,0,0,1,.08c.08,0,.14.12.2.41a1.73,1.73,0,0,1,0,.58l-1.56.11q-1.32.11-2,.21t-2,.39l-1.54.35a.87.87,0,0,1-.2-.54q-.07-.44.05-.46a4.28,4.28,0,0,0,1-.38q.7-.33.73-.54a9.78,9.78,0,0,0-.11-2.18l-.71-4.79a2.83,2.83,0,0,0-.75-1.81,1.44,1.44,0,0,0-.73-.34,3.33,3.33,0,0,0-.75-.07c-.2,0-.3,0-.31,0q-.13-.85,0-.91a41.15,41.15,0,0,0,4.58-1.58.2.2,0,0,1,.08-.06l.14,0c.1,0,.19,0,.27.17a.54.54,0,0,1,.11.32,10.43,10.43,0,0,0,0,1.08c0,.08,0,.13.08.14a.45.45,0,0,0,.13-.11,6.59,6.59,0,0,1,1.63-1.5A5.19,5.19,0,0,1,256.81,41.87Z"/><path class="cls-1" d="M278.34,38.67a5.51,5.51,0,0,1,2.55.18A4.71,4.71,0,0,1,282.81,40a6.94,6.94,0,0,1,1.2,1.6,5.12,5.12,0,0,1,.58,1.67q.1.65-.1.84a1.69,1.69,0,0,1-.87.29l-7,1c-.14,0-.2.09-.18.21a5.78,5.78,0,0,0,.69,2,4.09,4.09,0,0,0,1.57,1.54,3.5,3.5,0,0,0,2.33.41,8,8,0,0,0,.84-.17,4.4,4.4,0,0,0,.74-.26l.59-.28a2.53,2.53,0,0,0,.5-.35l.36-.31.53-.48a.48.48,0,0,1,.17.15.58.58,0,0,1,.13.28.91.91,0,0,1-.09.58,4.83,4.83,0,0,1-1.5,1.84,5.51,5.51,0,0,1-2.79,1.23,6,6,0,0,1-4.69-1.24,6.41,6.41,0,0,1-2.54-4.33,6.88,6.88,0,0,1,1-5.08A5.76,5.76,0,0,1,278.34,38.67Zm0,1.38a2.1,2.1,0,0,0-1.2.6,2.79,2.79,0,0,0-.7,1.13,5.69,5.69,0,0,0-.26,1.17,3.63,3.63,0,0,0,0,.89c0,.14.09.2.21.18l4.76-.71c.18,0,.24-.19.2-.48a3.86,3.86,0,0,0-1-2A2.13,2.13,0,0,0,278.34,40.06Z"/><path class="cls-1" d="M295.06,36.2q3.79-.56,4.69,5.47l.41,2.79a12.41,12.41,0,0,0,.6,2.62q.09.2.87.31a4.58,4.58,0,0,0,1,.07c.06,0,.11.13.17.41a1.67,1.67,0,0,1,0,.58c-.12,0-.64,0-1.56.11s-1.61.15-2.06.21-1.12.2-1.94.38l-1.5.34a.86.86,0,0,1-.2-.54c0-.29,0-.45.05-.46a3.53,3.53,0,0,0,1-.37q.63-.32.66-.53a8.54,8.54,0,0,0-.08-2.18l-.41-2.79a6.45,6.45,0,0,0-1.17-3.31,2.39,2.39,0,0,0-2.25-.66,2.75,2.75,0,0,0-1.57.76,1.43,1.43,0,0,0-.54,1.21l.75,5.06a12.48,12.48,0,0,0,.6,2.62c.06.13.34.23.84.31a4.31,4.31,0,0,0,1,.08c.08,0,.14.12.2.41a1.7,1.7,0,0,1,0,.58l-1.56.11q-1.32.11-2,.21t-2,.39l-1.56.35a.87.87,0,0,1-.2-.54c0-.29,0-.45.05-.46a4.14,4.14,0,0,0,1-.38q.69-.33.72-.54a9.71,9.71,0,0,0-.11-2.18l-.71-4.79a2.82,2.82,0,0,0-.75-1.81,1.43,1.43,0,0,0-.73-.34,3.38,3.38,0,0,0-.73-.07c-.19,0-.29,0-.29,0q-.13-.85,0-.9a42,42,0,0,0,4.6-1.58l.07-.05.09,0h.07c.08,0,.16,0,.24.18a.89.89,0,0,1,.14.31,10.13,10.13,0,0,0,0,1.08c0,.08,0,.13.05.14a.45.45,0,0,0,.13-.11,6.6,6.6,0,0,1,1.63-1.5A5.21,5.21,0,0,1,295.06,36.2Z"/><path class="cls-1" d="M304.93,36.84l-1.79.27c-.14,0-.24-.22-.32-.73a.72.72,0,0,1,0-.27,8.35,8.35,0,0,0,2-1.89q.33-.44.71-1t.89-1.41a2.08,2.08,0,0,1,.57,0c.18,0,.28.06.29.12l.43,2.88,2.13-.3,1.46-.2c.16,0,.25.05.28.23a2.88,2.88,0,0,1-.1,1.34l-3.53.52,1,7.09a2.82,2.82,0,0,0,.77,1.72,1.7,1.7,0,0,0,1.47.41,2.79,2.79,0,0,0,.61-.17,3.17,3.17,0,0,0,.5-.24l.36-.23.19-.12c.07,0,.18,0,.3.23s.18.3.17.36q-.12.44-1.11,1.14a4.69,4.69,0,0,1-2,.85,3.75,3.75,0,0,1-2.75-.6A4,4,0,0,1,306,44Z"/><path class="cls-1" d="M318.3,32.72a12.65,12.65,0,0,1,3.49,0,16.79,16.79,0,0,1,.81,3.25c0,.16-.09.25-.35.29-.43.06-.68,0-.74-.13a3.61,3.61,0,0,0-1.13-1.62,2.32,2.32,0,0,0-1.89-.46,2.14,2.14,0,0,0-1.28.58,1.32,1.32,0,0,0-.32,1.16,1.7,1.7,0,0,0,.27.73,1.86,1.86,0,0,0,.62.55,7.39,7.39,0,0,0,.72.37q.3.13.91.35l.32.1.47.17.53.19.51.21a5.34,5.34,0,0,1,.56.26l.51.29a2.38,2.38,0,0,1,.5.35l.42.4a1.92,1.92,0,0,1,.39.48,5.59,5.59,0,0,1,.24.53,2.68,2.68,0,0,1,.17.62,3.5,3.5,0,0,1-1,3.14,5.65,5.65,0,0,1-3.3,1.59,9.92,9.92,0,0,1-3.92-.26,11.84,11.84,0,0,1-.54-1.59,14.49,14.49,0,0,1-.4-1.67.63.63,0,0,1,.39-.21q.68-.1.74.13a3.27,3.27,0,0,0,1.46,1.81,3.17,3.17,0,0,0,2.13.45,2.16,2.16,0,0,0,1.29-.61,1.45,1.45,0,0,0,.35-1.28,1.9,1.9,0,0,0-.15-.53,1.43,1.43,0,0,0-.35-.46l-.4-.36a2.14,2.14,0,0,0-.59-.32l-.64-.25-.79-.27-.81-.29a6.89,6.89,0,0,1-2.32-1.26,3.44,3.44,0,0,1,0-5A5.74,5.74,0,0,1,318.3,32.72Z"/></svg>