<?xml version="1.0" encoding="utf-8"?>
<!-- Generator: Adobe Illustrator 21.1.0, SVG Export Plug-In . SVG Version: 6.00 Build 0)  -->
<svg version="1.1" xmlns="http://www.w3.org/2000/svg" xmlns:xlink="http://www.w3.org/1999/xlink" x="0px" y="0px"
	 viewBox="0 0 334.5 84.6" style="enable-background:new 0 0 334.5 84.6;" xml:space="preserve">
<style type="text/css">
	.st0{fill:url(#SVGID_1_);}
	.st1{fill:url(#SVGID_2_);}
	.st2{fill:#FEF9F9;}
	.st3{fill:#F8EDF4;}
	.st4{fill:#FFFFFF;}
	.st5{fill:#FAEFE6;}
	.st6{fill:#2F3390;}
	.st7{fill:#FFFFFF;stroke:#2F3390;stroke-width:1.2;stroke-miterlimit:10;}
	.st8{fill:#232DAF;}
	.st9{fill:#1928EB;}
	.st10{fill:#FDC7C9;}
	.st11{fill:#FEEA80;}
	.st12{fill:#EB7975;}
	.st13{fill:#606060;}
	.st14{fill:none;}
	.st15{fill:#0624FF;}
	.st16{fill:none;stroke:#2F3390;stroke-width:1.5;stroke-miterlimit:10;}
	.st17{fill:none;stroke:#2F3390;stroke-width:1.5;stroke-linejoin:bevel;stroke-miterlimit:10;}
	.st18{fill:#FFFFFF;stroke:#2F3390;stroke-width:1.2587;stroke-miterlimit:10;}
	.st19{fill:#FFFFFF;stroke:#2F3390;stroke-width:2;stroke-miterlimit:10;}
	.st20{fill:none;stroke:#2F3390;stroke-width:3.025;stroke-miterlimit:10;}
	.st21{fill:none;stroke:#2F3390;stroke-width:3.025;stroke-linejoin:bevel;stroke-miterlimit:10;}
	.st22{fill:none;stroke:#2F3390;stroke-width:15;stroke-miterlimit:10;}
	.st23{fill:#EB7975;stroke:#FAEFE6;stroke-width:1.4;stroke-miterlimit:10;}
	.st24{fill:#2F3380;}
	.st25{fill:#00FF00;}
	.st26{fill:#FEF9F9;stroke:#1928EB;stroke-width:3;stroke-linecap:round;stroke-linejoin:round;stroke-miterlimit:10;}
	.st27{fill:#FFFFFF;stroke:#1414EF;stroke-width:1.5;stroke-miterlimit:10;}
	.st28{fill:#FFFFFF;stroke:#1928EB;stroke-width:1.3;stroke-miterlimit:10;}
	.st29{fill:#FFFFFF;stroke:#1928EB;stroke-width:1.6;stroke-miterlimit:10;}
	.st30{fill:#FFFFFF;stroke:#1414EF;stroke-width:1.75;stroke-miterlimit:10;}
	.st31{fill:#1414EF;}
</style>
<g id="Layer_1">
	<g>
		<g>
			<path class="st9" d="M51,1c0.6,0,1.2,0,2-0.1c0.8,0,1.4-0.1,2-0.1c0.6,0,1.2,0,1.8,0.1c0.6,0.1,1.2,0.3,1.8,0.6
				c0.6,0.3,1.1,0.6,1.6,1C60.6,3,61,3.5,61.3,4.2c0.3,0.6,0.4,1.3,0.5,2.1c0,0.9-0.2,1.8-0.7,2.7c-0.5,0.9-1.2,1.7-2.2,2.3
				c-1,0.6-2.1,1-3.3,1c-0.4,0-0.8-0.1-1.3-0.2c-0.4-0.1-0.7-0.3-0.9-0.5c0,0-0.1-0.1-0.1-0.3c0-0.2,0-0.3,0-0.4
				c0-0.1,0-0.2,0.1-0.2c0.5,0.2,1,0.3,1.7,0.3c1,0,1.7-0.4,2.2-1.2c0.5-0.8,0.8-1.8,0.8-3c0-1.3-0.3-2.4-0.8-3.1
				c-0.5-0.8-1.4-1.1-2.5-1.1c-0.8,0-1.4,0.1-1.7,0.2c-0.2,0.1-0.3,1.2-0.3,3.1l0.1,10.6c0,1.2,0.1,2,0.3,2.5c0.1,0.2,0.4,0.4,1,0.6
				c0.6,0.1,1,0.2,1.3,0.2c0.1,0,0.1,0.2,0.1,0.5c0,0.2,0,0.4-0.1,0.5c-2.2-0.1-3.6-0.1-4.2-0.1c-0.5,0-1.1,0-1.8,0.1
				c-0.7,0-1.2,0.1-1.6,0.1l-0.6,0.1c-0.1-0.1-0.1-0.3-0.1-0.5c0-0.3,0-0.5,0.1-0.5c0.3,0,0.6-0.1,1.1-0.2c0.5-0.1,0.8-0.3,0.9-0.5
				c0.1-0.4,0.2-1.3,0.1-2.7L49.3,5.1c0-1.1-0.1-1.9-0.2-2.4c-0.1-0.2-0.4-0.3-0.9-0.5C47.7,2.1,47.3,2,47.1,2C47,2,47,1.8,47,1.5
				c0-0.3,0-0.5,0.1-0.5C49.2,1,50.5,1.1,51,1z"/>
			<path class="st9" d="M69.9,7.2c1.2,0,2.2,0.3,2.8,0.9c0.6,0.6,0.9,1.7,1,3.3l0.1,5.9c0,0.4,0.1,0.7,0.3,0.9
				c0.2,0.2,0.4,0.3,0.7,0.3c0.3,0,0.6-0.1,1-0.4c0.1,0,0.2,0.1,0.2,0.3c0,0.4-0.1,0.7-0.2,0.9c-0.3,0.2-0.7,0.5-1.2,0.8
				c-0.5,0.3-1,0.4-1.4,0.4c-0.5,0-0.9-0.2-1.3-0.5c-0.4-0.3-0.7-0.7-0.9-1.1c0,0-0.1,0.1-0.2,0.2c-0.1,0.1-0.3,0.2-0.5,0.4
				c-0.2,0.2-0.5,0.3-0.8,0.5c-0.3,0.2-0.6,0.3-1,0.4c-0.4,0.1-0.8,0.2-1.2,0.2c-1,0-1.8-0.3-2.4-0.8c-0.6-0.5-1-1.3-1-2.2
				c0-0.5,0.1-0.9,0.3-1.3c0.2-0.4,0.5-0.8,0.8-1c0.3-0.3,0.7-0.5,1.3-0.8c0.5-0.3,1-0.5,1.4-0.6c0.4-0.1,0.9-0.3,1.5-0.5
				c0.6-0.2,1-0.3,1.3-0.4c0.2-0.1,0.3-0.2,0.3-0.5l0-1.6c0-0.7-0.2-1.2-0.5-1.6c-0.3-0.4-0.8-0.6-1.3-0.6c-0.6,0-1.1,0.2-1.4,0.6
				c-0.3,0.4-0.5,0.9-0.5,1.6c0,0.4-0.1,0.7-0.4,0.9c-0.3,0.2-0.6,0.3-1,0.3c-0.7,0-1.3-0.2-1.6-0.7c0-1,0.6-1.9,1.9-2.7
				C67.1,7.7,68.4,7.3,69.9,7.2z M68.7,18.7c0.5,0,1-0.2,1.4-0.4c0.4-0.3,0.6-0.6,0.6-1l0-3c-0.1,0.1-0.4,0.2-0.9,0.3
				c-0.4,0.1-0.8,0.3-1,0.4c-0.2,0.1-0.5,0.2-0.8,0.4s-0.5,0.4-0.7,0.7c-0.1,0.3-0.2,0.5-0.2,0.8c0,0.6,0.2,1.1,0.5,1.4
				C67.7,18.5,68.2,18.7,68.7,18.7z"/>
			<path class="st9" d="M86.1,7.1c1.1,0,1.9,0.3,2.4,1c0,1.7-0.4,2.5-1.4,2.5c-0.4,0-0.7-0.2-1.2-0.6c-0.4-0.4-0.9-0.6-1.3-0.6
				c-0.6,0-1.1,0.3-1.4,1c-0.3,0.6-0.5,1.3-0.5,2l0,3.7c0,1.2,0.1,2.1,0.2,2.7c0,0.1,0.3,0.3,0.8,0.4s0.8,0.2,1,0.2
				c0.1,0,0.1,0.1,0.1,0.4c0,0.3,0,0.5,0,0.6c-0.2,0-0.7-0.1-1.6-0.1c-0.9,0-1.6-0.1-2-0.1c-0.5,0-1.2,0-2.1,0.1
				c-0.9,0.1-1.4,0.1-1.6,0.1c-0.1-0.1-0.1-0.3-0.1-0.6c0-0.3,0-0.4,0.1-0.4c0.2,0,0.6-0.1,1.1-0.2c0.5-0.2,0.7-0.3,0.8-0.4
				c0.1-0.6,0.2-1.3,0.2-2.2l-0.1-4.8c0-0.9-0.2-1.6-0.5-1.9c-0.2-0.2-0.4-0.3-0.7-0.4s-0.5-0.2-0.7-0.2c-0.2,0-0.3,0-0.3-0.1
				c0-0.6,0-0.9,0.1-0.9c0.9-0.1,2.5-0.4,4.8-0.9c0.1,0,0.2-0.1,0.2-0.1c0.1,0,0.1,0.1,0.2,0.2c0.1,0.1,0.1,0.3,0.1,0.3s0,0.2,0,0.4
				c0,0.2,0,0.4-0.1,0.6s0,0.3,0,0.4c0.4-0.5,0.8-1,1.4-1.5C84.8,7.3,85.4,7.1,86.1,7.1z"/>
			<path class="st9" d="M92.2,9.1l-1.8,0c-0.1,0-0.2-0.3-0.2-0.8c0-0.1,0-0.2,0-0.3c0.8-0.4,1.5-0.9,2.3-1.6
				c0.3-0.3,0.5-0.6,0.8-0.9c0.3-0.3,0.7-0.8,1.1-1.3c0.2,0,0.4,0,0.6,0.1c0.2,0,0.3,0.1,0.3,0.2l0,2.9c0.5,0,1.2,0,2.2,0
				c0.9,0,1.4,0,1.5,0c0.2,0,0.2,0.1,0.2,0.3c0,0.5-0.1,0.9-0.3,1.3l-3.6,0l0.1,7.2c0,0.8,0.2,1.4,0.5,1.8c0.3,0.4,0.8,0.6,1.4,0.6
				c0.2,0,0.4,0,0.6-0.1c0.2-0.1,0.4-0.1,0.5-0.2c0.1-0.1,0.3-0.1,0.4-0.2c0.1-0.1,0.2-0.1,0.2-0.1c0.1,0,0.2,0.1,0.3,0.3
				c0.1,0.2,0.1,0.3,0.1,0.4c-0.1,0.3-0.5,0.6-1.3,1c-0.7,0.4-1.4,0.6-2.1,0.6c-1,0-1.9-0.3-2.6-1c-0.7-0.7-1.1-1.7-1.1-3.1
				L92.2,9.1z"/>
			<path class="st9" d="M110.5,17.3c-1.9-1.9-2.8-4.3-2.9-7.1s0.9-5.2,2.7-7.2c1.8-2,4.1-3,6.7-3c2.6,0,4.9,0.9,6.8,2.9
				c1.9,1.9,2.9,4.3,2.9,7.1c0,2.8-0.9,5.2-2.7,7.1c-1.8,2-4.1,3-6.7,3C114.7,20.2,112.4,19.2,110.5,17.3z M116.6,1.5
				c-1.7,0-3,0.8-3.9,2.4c-0.9,1.6-1.3,3.4-1.3,5.6c0,1.5,0.2,2.9,0.7,4.2c0.4,1.3,1.1,2.5,2.1,3.5c1,1,2.2,1.4,3.5,1.4
				c1.7,0,3-0.8,3.9-2.4c0.9-1.6,1.3-3.5,1.3-5.6c0-1.5-0.2-3-0.6-4.3s-1.1-2.5-2.1-3.4C119.2,1.9,118,1.4,116.6,1.5z"/>
			<path class="st9" d="M138.3,6.4c2.6,0,3.9,2,3.9,6l0,2.8c0,1.2,0.1,2.1,0.2,2.7c0,0.1,0.3,0.3,0.8,0.4c0.5,0.1,0.8,0.2,1,0.2
				c0.1,0,0.1,0.1,0.1,0.4s0,0.5,0,0.6c-0.1,0-0.6-0.1-1.6-0.1c-0.9,0-1.6-0.1-2.1-0.1c-0.5,0-1.1,0-2,0.1c-0.8,0.1-1.4,0.1-1.5,0.1
				c-0.1-0.1-0.1-0.3-0.1-0.6c0-0.3,0-0.4,0.1-0.4c0.2,0,0.5-0.1,1-0.2c0.4-0.2,0.7-0.3,0.7-0.4c0.2-0.6,0.2-1.3,0.2-2.2l0-2.8
				c0-1.6-0.3-2.8-0.7-3.4c-0.5-0.6-1.2-1-2.1-1c-0.6,0-1.2,0.2-1.7,0.5s-0.7,0.7-0.7,1.1l0.1,5.1c0,1.2,0.1,2.1,0.2,2.7
				c0,0.1,0.3,0.3,0.8,0.4c0.5,0.1,0.8,0.2,1,0.2c0.1,0,0.1,0.1,0.1,0.4c0,0.3,0,0.5,0,0.6c-0.2,0-0.7-0.1-1.6-0.1
				c-0.9,0-1.6-0.1-2-0.1c-0.5,0-1.2,0-2.1,0.1c-0.9,0.1-1.4,0.1-1.6,0.1c-0.1-0.1-0.1-0.3-0.1-0.6c0-0.3,0-0.4,0.1-0.4
				c0.2,0,0.6-0.1,1.1-0.2c0.5-0.2,0.7-0.3,0.8-0.4c0.1-0.6,0.2-1.3,0.2-2.2l-0.1-4.8c0-0.9-0.2-1.6-0.5-1.9
				c-0.2-0.2-0.4-0.3-0.7-0.4c-0.3-0.1-0.5-0.2-0.7-0.2c-0.2,0-0.3,0-0.3-0.1c0-0.6,0-0.9,0.1-0.9c0.9-0.1,2.5-0.4,4.8-0.9
				c0,0,0,0,0.1,0s0.1,0,0.1,0c0,0,0.1,0,0.1,0c0.1,0,0.1,0.1,0.2,0.2c0.1,0.1,0.1,0.2,0.1,0.3c-0.1,0.6-0.1,0.9-0.1,1.1
				c0,0.1,0,0.1,0,0.1c0,0,0.1,0,0.1-0.1c0.5-0.5,1.1-0.9,1.8-1.3C136.8,6.6,137.5,6.4,138.3,6.4z"/>
			<path class="st9" d="M152.3,6.3c0.9,0,1.8,0.2,2.5,0.5c0.7,0.4,1.3,0.8,1.7,1.4c0.4,0.6,0.7,1.1,1,1.7c0.2,0.6,0.3,1.2,0.3,1.7
				c0,0.4-0.1,0.7-0.2,0.8c-0.1,0.1-0.4,0.2-0.9,0.2l-7.1,0.1c-0.1,0-0.2,0.1-0.2,0.2c0,0.7,0.1,1.4,0.4,2.1
				c0.3,0.7,0.7,1.2,1.3,1.7s1.4,0.7,2.3,0.7c0.3,0,0.6,0,0.9-0.1c0.3,0,0.5-0.1,0.8-0.2c0.2-0.1,0.4-0.1,0.6-0.2s0.4-0.2,0.5-0.3
				c0.2-0.1,0.3-0.2,0.4-0.3c0.1-0.1,0.3-0.2,0.6-0.4c0,0,0.1,0.1,0.2,0.2s0.1,0.2,0.1,0.3c0,0.2-0.1,0.4-0.2,0.6
				c-0.3,0.5-0.9,1.1-1.7,1.6c-0.9,0.5-1.8,0.8-2.9,0.8c-1.7,0-3.2-0.6-4.5-1.9c-1.3-1.3-1.9-2.8-1.9-4.6c0-2,0.5-3.6,1.7-4.9
				C149.1,6.9,150.5,6.3,152.3,6.3z M152.1,7.6c-0.5,0-0.9,0.1-1.3,0.4c-0.4,0.3-0.7,0.6-0.9,1s-0.3,0.8-0.4,1.1s-0.1,0.6-0.1,0.9
				c0,0.1,0.1,0.2,0.2,0.2l4.8-0.1c0.2,0,0.3-0.2,0.3-0.4c0-0.7-0.2-1.4-0.7-2.1C153.5,8,152.9,7.6,152.1,7.6z"/>
			<path class="st9" d="M163,7.1c0.4,0.4,0.6,0.8,0.6,1.4c0,0.5-0.2,1-0.6,1.4c-0.4,0.4-0.8,0.6-1.4,0.6c-0.6,0-1-0.2-1.4-0.6
				s-0.6-0.9-0.6-1.4c0-0.5,0.2-1,0.6-1.4c0.4-0.4,0.9-0.6,1.4-0.6C162.1,6.5,162.6,6.7,163,7.1z M163.1,16.2
				c0.4,0.4,0.6,0.9,0.6,1.4c0,0.5-0.2,1-0.6,1.4s-0.8,0.6-1.4,0.6c-0.6,0-1-0.2-1.4-0.6c-0.4-0.4-0.6-0.9-0.6-1.4
				c0-0.5,0.2-1,0.6-1.4c0.4-0.4,0.9-0.6,1.4-0.6C162.2,15.6,162.7,15.8,163.1,16.2z"/>
		</g>
		<g>
			<path class="st9" d="M4.1,29.1c0.2,0,1.4,0.1,3.6,0.2c0,0.1,0,0.3,0,0.6c0,0.3-0.1,0.4-0.1,0.4c-0.1,0-0.3,0-0.5,0
				c-0.2,0-0.4,0.1-0.6,0.2C6.2,30.6,6,30.8,6,31.1c0,0.4,0.1,0.9,0.4,1.6l4.5,12.1c0,0.1,0.1,0.1,0.2,0.1c0.1,0,0.2-0.1,0.2-0.2
				l2.6-4L11.5,34c-0.5-1.3-0.9-2.2-1.2-2.7c-0.2-0.2-0.4-0.4-0.7-0.6c-0.3-0.2-0.6-0.3-0.9-0.3c-0.1,0-0.1-0.2-0.1-0.5
				c0-0.3,0.1-0.4,0.1-0.5c2.5,0.4,3.8,0.6,3.9,0.6c0.2,0,1.3,0.1,3.5,0.2c0,0.1,0,0.3,0,0.6c0,0.3-0.1,0.4-0.1,0.4
				c-0.2,0-0.4,0-0.6,0c-0.2,0-0.4,0.1-0.6,0.2c-0.2,0.1-0.3,0.3-0.4,0.5c0,0.3,0.1,0.8,0.4,1.6l1.4,3.9l2.1-3.4
				c0.4-0.7,0.7-1.2,0.7-1.6c0-0.4-0.2-0.6-0.6-0.8c-0.5-0.2-0.9-0.3-1.2-0.4c-0.1,0-0.1-0.2-0.1-0.4c0-0.3,0.1-0.5,0.1-0.5
				c1.7,0.3,2.8,0.5,3.2,0.5c0.5,0,0.9,0.1,1.2,0.1c0.4,0,0.8,0,1.2,0.1c0.4,0,0.8,0,1,0c0,0.1,0,0.3,0,0.6c0,0.2-0.1,0.4-0.1,0.4
				c-0.2,0-0.6,0-1.1,0.1c-0.5,0.1-0.9,0.3-1.1,0.5c-0.5,0.4-1.2,1.3-2,2.6L17,39.4l2.2,6.2c0.1,0.2,0.2,0.2,0.4-0.1
				c0.5-0.9,1.6-2.8,3.4-5.7c1.8-2.9,2.8-4.5,3-4.8c0.4-0.7,0.7-1.2,0.7-1.6c0-0.4-0.2-0.6-0.6-0.8c-0.5-0.2-0.8-0.3-1.2-0.4
				c-0.1,0-0.1-0.2-0.1-0.4c0-0.3,0.1-0.5,0.2-0.5c1.7,0.3,2.8,0.5,3.2,0.5c0.4,0,0.8,0.1,1.2,0.1c0.4,0,0.7,0,1.1,0
				c0.4,0,0.7,0,1,0c0,0.1,0,0.3,0,0.6c0,0.2-0.1,0.4-0.2,0.3c-0.2,0-0.6,0-1,0.1c-0.5,0.1-0.8,0.3-1.1,0.5c-0.6,0.6-1.3,1.4-2,2.6
				l-8.3,13.6c-0.2,0.3-0.4,0.5-0.6,0.6c-0.2,0.1-0.4,0.2-0.6,0.2c-0.1,0-0.2-0.1-0.3-0.2l-2.8-7.7l-4.1,6.1
				c-0.2,0.3-0.4,0.5-0.6,0.7c-0.2,0.1-0.4,0.2-0.5,0.2c-0.1,0-0.2-0.1-0.3-0.2L3,33.1c-0.4-1.2-0.8-2.1-1.3-2.7
				c-0.1-0.2-0.4-0.4-0.8-0.6c-0.4-0.2-0.7-0.3-0.9-0.3C0,29.5,0,29.3,0,29c0-0.3,0.1-0.4,0.1-0.5C2.6,28.9,4,29.1,4.1,29.1z"/>
			<path class="st9" d="M41.9,39.7c2.5,0.3,3.6,2.4,3.1,6.2l-0.3,3c-0.1,1.2-0.2,2.1-0.1,2.7c0,0.1,0.3,0.3,0.7,0.5
				c0.5,0.2,0.8,0.3,1,0.3c0.1,0,0.1,0.2,0.1,0.4c0,0.3,0,0.5-0.1,0.6c-0.1,0-0.7-0.1-1.6-0.3s-1.6-0.3-2-0.3
				c-0.5-0.1-1.2-0.1-2-0.1c-0.8,0-1.4,0-1.6-0.1c-0.1-0.1-0.1-0.3,0-0.6c0-0.3,0.1-0.4,0.1-0.4c0.2,0,0.6,0,1-0.1
				c0.5-0.1,0.7-0.2,0.8-0.3c0.2-0.6,0.3-1.3,0.4-2.1l0.3-2.9c0.2-1.6,0.1-2.8-0.3-3.5c-0.4-0.7-1-1.1-2-1.2c-0.6-0.1-1.2,0-1.7,0.3
				c-0.5,0.3-0.8,0.6-0.9,1L36.5,48c-0.1,1.2-0.2,2.1-0.1,2.7c0,0.1,0.3,0.3,0.7,0.5c0.5,0.2,0.8,0.3,1,0.3c0.1,0,0.1,0.2,0.1,0.4
				c0,0.3-0.1,0.5-0.1,0.6c-0.2,0-0.7-0.1-1.5-0.3c-0.9-0.2-1.5-0.3-2-0.3c-0.5-0.1-1.2-0.1-2.1-0.1c-0.9,0-1.4-0.1-1.6-0.1
				c-0.1-0.1-0.1-0.3-0.1-0.6c0-0.3,0.1-0.4,0.2-0.4c0.2,0,0.6,0,1.1-0.1c0.5-0.1,0.8-0.2,0.8-0.3c0.2-0.6,0.3-1.3,0.4-2.1L34.7,36
				c0.1-0.8,0.1-1.5,0.1-2c-0.1-0.3-0.6-0.5-1.5-0.6l-0.3,0c-0.1,0-0.2-0.2-0.1-0.5s0.1-0.5,0.2-0.5c0.6,0,1.2,0,1.8,0
				c0.6,0,1-0.1,1.4-0.1c0.4-0.1,0.7-0.1,1-0.2s0.6-0.1,0.9-0.2l0.1,0c0.1,0,0.2,0.1,0.2,0.2c0.1,0.1,0.1,0.2,0.1,0.3
				C38.2,33,38,33.9,37.9,35l-0.7,6c0,0.1,0,0.2,0.1,0.2c0,0,0.1,0,0.1-0.1c0.5-0.4,1.1-0.8,2-1.1C40.3,39.7,41.1,39.6,41.9,39.7z"
				/>
			<path class="st9" d="M55.6,41.2c0.9,0.1,1.7,0.4,2.4,0.8c0.7,0.4,1.2,1,1.6,1.6s0.6,1.2,0.8,1.8c0.2,0.6,0.2,1.2,0.1,1.8
				c0,0.4-0.2,0.7-0.3,0.8c-0.2,0.1-0.5,0.1-0.9,0.1l-7.1-0.8c-0.1,0-0.2,0-0.2,0.2c-0.1,0.7,0,1.4,0.2,2.1c0.2,0.7,0.6,1.3,1.1,1.9
				c0.6,0.6,1.3,0.9,2.2,1c0.3,0,0.6,0,0.9,0c0.3,0,0.5,0,0.8-0.1c0.2,0,0.5-0.1,0.6-0.1c0.2,0,0.4-0.1,0.6-0.2
				c0.2-0.1,0.3-0.2,0.4-0.2c0.1,0,0.3-0.2,0.6-0.3c0,0,0.1,0.1,0.1,0.2s0.1,0.2,0.1,0.3c0,0.2-0.1,0.4-0.2,0.5
				c-0.4,0.5-1,1-1.9,1.4c-0.9,0.4-1.9,0.6-3,0.5c-1.7-0.2-3.1-1-4.2-2.4c-1.1-1.4-1.6-3-1.4-4.8c0.2-2,1-3.5,2.3-4.7
				C52.3,41.4,53.9,41,55.6,41.2z M55.3,42.5c-0.5-0.1-0.9,0-1.3,0.3c-0.4,0.2-0.7,0.5-1,0.9s-0.4,0.7-0.6,1.1
				c-0.1,0.3-0.2,0.6-0.2,0.9c0,0.1,0,0.2,0.2,0.2l4.8,0.5c0.2,0,0.3-0.1,0.3-0.4c0.1-0.7-0.1-1.4-0.5-2.2
				C56.6,43,56,42.6,55.3,42.5z"/>
			<path class="st9" d="M71.4,42.9c1.1,0.1,1.9,0.5,2.3,1.2c-0.2,1.7-0.7,2.5-1.7,2.4c-0.4,0-0.7-0.3-1.1-0.7
				c-0.4-0.4-0.8-0.7-1.2-0.7c-0.6-0.1-1.1,0.2-1.5,0.8c-0.4,0.6-0.7,1.2-0.7,1.9l-0.4,3.7c-0.1,1.2-0.2,2.1-0.1,2.7
				c0,0.1,0.3,0.3,0.7,0.5c0.5,0.2,0.8,0.3,1,0.3c0.1,0,0.1,0.2,0.1,0.4c0,0.3,0,0.5-0.1,0.6c-0.2,0-0.7-0.1-1.6-0.3
				c-0.9-0.2-1.5-0.3-2-0.3c-0.5-0.1-1.2-0.1-2.1-0.1c-0.9,0-1.4-0.1-1.6-0.1c-0.1-0.1-0.1-0.3-0.1-0.6c0-0.3,0.1-0.4,0.2-0.4
				c0.2,0,0.6,0,1.1-0.1c0.5-0.1,0.8-0.2,0.8-0.3c0.2-0.6,0.4-1.3,0.4-2.1l0.5-4.8c0.1-0.9,0-1.6-0.3-1.9c-0.1-0.2-0.3-0.4-0.6-0.5
				c-0.3-0.1-0.5-0.2-0.7-0.3s-0.3-0.1-0.3-0.1c0.1-0.6,0.1-0.9,0.2-0.9c0.9,0,2.5-0.1,4.9-0.4c0.1,0,0.2,0,0.2,0
				c0.1,0,0.1,0.1,0.2,0.2c0,0.1,0.1,0.3,0,0.3c0,0.1-0.1,0.2-0.1,0.4c0,0.2-0.1,0.4-0.1,0.6c-0.1,0.2-0.1,0.3-0.1,0.4
				c0.4-0.5,0.9-0.9,1.6-1.3C70.1,43,70.8,42.8,71.4,42.9z"/>
			<path class="st9" d="M81.8,44.1c0.9,0.1,1.7,0.4,2.4,0.8c0.7,0.4,1.2,1,1.6,1.6c0.4,0.6,0.6,1.2,0.8,1.8c0.2,0.6,0.2,1.2,0.1,1.8
				c0,0.4-0.2,0.7-0.3,0.8c-0.2,0.1-0.5,0.1-0.9,0.1l-7.1-0.8c-0.1,0-0.2,0-0.2,0.2c-0.1,0.7,0,1.4,0.2,2.1c0.2,0.7,0.6,1.3,1.1,1.9
				c0.6,0.6,1.3,0.9,2.1,1c0.3,0,0.6,0,0.9,0c0.3,0,0.5,0,0.8-0.1c0.2,0,0.5-0.1,0.6-0.1c0.2,0,0.4-0.1,0.6-0.2s0.3-0.2,0.4-0.2
				c0.1,0,0.3-0.2,0.6-0.3c0,0,0.1,0.1,0.1,0.2c0,0.1,0.1,0.2,0.1,0.3c0,0.2-0.1,0.4-0.2,0.5c-0.4,0.5-1,1-1.9,1.4
				c-0.9,0.4-1.9,0.6-3,0.5c-1.7-0.2-3.1-1-4.2-2.4c-1.1-1.4-1.6-3-1.4-4.8c0.2-2,1-3.5,2.3-4.7C78.5,44.3,80.1,43.9,81.8,44.1z
				 M81.5,45.4c-0.5-0.1-0.9,0-1.3,0.3c-0.4,0.2-0.7,0.5-1,0.9c-0.2,0.4-0.4,0.7-0.6,1.1c-0.1,0.3-0.2,0.6-0.2,0.9
				c0,0.1,0,0.2,0.2,0.2l4.8,0.5c0.2,0,0.3-0.1,0.3-0.4c0.1-0.7-0.1-1.4-0.5-2.2C82.8,45.9,82.2,45.5,81.5,45.4z"/>
			<path class="st9" d="M103.8,40.1c1.4,0.2,2.5,0.6,3.3,1.3c0.8,0.7,1.1,1.6,1,2.7c-0.1,1.2-0.6,2.2-1.4,2.9
				c-0.8,0.8-2,1.5-3.5,2.1c0.8,1.8,1.9,3.7,3.3,5.7c1.2-1.4,1.9-2.2,1.9-2.6c0-0.2-0.1-0.3-0.2-0.4c-0.2-0.1-0.4-0.2-0.6-0.2
				c-0.2,0-0.4-0.1-0.4-0.1c0-0.1-0.1-0.3,0-0.5c0-0.2,0.1-0.3,0.1-0.3l2.7,0.3c0.4,0,1.5,0.1,3.3,0.2c0.1,0.1,0.1,0.2,0.1,0.5
				c0,0.3-0.1,0.5-0.3,0.5c-0.2,0-0.6,0-1.1,0c-0.5,0.1-0.8,0.1-1,0.3c-0.1,0-0.3,0.3-0.7,0.7c-0.4,0.4-0.9,0.9-1.4,1.5
				c-0.6,0.6-1,1.1-1.4,1.5c0,0.1,0.1,0.2,0.3,0.5c0.2,0.2,0.3,0.4,0.4,0.5c0.1,0.1,0.2,0.2,0.3,0.4c0.2,0.2,0.3,0.3,0.4,0.4
				c0.1,0.1,0.2,0.2,0.4,0.2c0.1,0.1,0.3,0.1,0.4,0.1c0.3,0,0.7-0.1,1.1-0.4c0.4-0.3,0.7-0.6,0.8-0.8c0.2,0,0.3,0.1,0.5,0.3
				c0.2,0.2,0.2,0.3,0.2,0.4c-0.1,0.1-0.2,0.3-0.4,0.6c-0.2,0.2-0.5,0.5-0.8,0.8c-0.3,0.3-0.7,0.6-1.2,0.8c-0.5,0.2-1,0.3-1.5,0.2
				c-0.6-0.1-1.2-0.3-1.7-0.7c-0.5-0.4-0.9-0.7-1.2-1.1l-0.4-0.5c-1.6,1.1-3.4,1.6-5.3,1.4c-1.7-0.2-3-0.8-4-1.7
				c-1-0.9-1.4-2.2-1.2-3.8c0.1-0.7,0.3-1.3,0.6-1.9s0.8-1.1,1.3-1.5c0.6-0.4,1.1-0.8,1.5-1c0.5-0.3,1-0.5,1.7-0.8
				c0,0-0.1-0.2-0.2-0.4c-0.1-0.3-0.2-0.4-0.2-0.5c0-0.1-0.1-0.2-0.2-0.4C99.1,47.2,99,47,99,47c0-0.1-0.1-0.2-0.2-0.5
				c-0.1-0.2-0.1-0.4-0.1-0.5c0-0.1,0-0.3-0.1-0.5c0-0.2-0.1-0.4-0.1-0.5c0-0.1,0-0.3,0-0.5c0-0.2,0-0.4,0-0.6
				c0.1-1.3,0.7-2.3,1.7-3C101.2,40.2,102.4,39.9,103.8,40.1z M104.1,56.8c-0.4-0.5-0.9-1.3-1.5-2.3c-0.6-1.1-1.1-2-1.6-2.9
				l-0.6-1.2c-0.8,0.4-1.4,0.9-1.8,1.4c-0.4,0.5-0.7,1.3-0.8,2.3c-0.1,1.2,0.1,2.1,0.7,2.8c0.6,0.7,1.4,1.1,2.4,1.2
				c0.6,0.1,1.1,0,1.7-0.2C103.2,57.5,103.7,57.2,104.1,56.8z M103.7,41.4c-0.6-0.1-1.1,0.1-1.6,0.5c-0.4,0.4-0.6,0.9-0.7,1.6
				c-0.1,0.9,0.2,2.4,1,4.2c0.9-0.5,1.7-0.9,2.1-1.4c0.5-0.5,0.7-1.2,0.9-2.2c0.1-0.6,0-1.2-0.4-1.8
				C104.8,41.8,104.3,41.4,103.7,41.4z"/>
			<path class="st9" d="M126.4,42.5c0.2,0,1.4,0.1,3.6,0.2c0,0.1,0,0.3,0,0.6c0,0.3-0.1,0.4-0.1,0.4c-0.1,0-0.3,0-0.5,0
				c-0.2,0-0.4,0.1-0.6,0.2c-0.2,0.1-0.4,0.3-0.4,0.6c0,0.4,0.1,0.9,0.4,1.6l4.5,12.1c0,0.1,0.1,0.1,0.2,0.1c0.1,0,0.2-0.1,0.2-0.2
				l2.6-4l-2.5-6.7c-0.5-1.3-0.9-2.2-1.2-2.7c-0.2-0.2-0.4-0.4-0.7-0.6c-0.3-0.2-0.6-0.3-0.9-0.3c-0.1,0-0.1-0.2-0.1-0.5
				c0-0.3,0.1-0.4,0.1-0.5c2.5,0.4,3.8,0.6,3.9,0.6c0.2,0,1.3,0.1,3.5,0.2c0,0.1,0,0.3,0,0.6c0,0.3-0.1,0.4-0.1,0.4
				c-0.2,0-0.4,0-0.6,0c-0.2,0-0.4,0.1-0.6,0.2c-0.2,0.1-0.3,0.3-0.4,0.5c0,0.3,0.1,0.8,0.4,1.6l1.4,3.9l2.1-3.4
				c0.4-0.7,0.7-1.2,0.7-1.6c0-0.4-0.2-0.6-0.6-0.8c-0.5-0.2-0.9-0.3-1.2-0.4c-0.1,0-0.1-0.2-0.1-0.4c0-0.3,0.1-0.4,0.1-0.5
				c1.7,0.3,2.8,0.5,3.2,0.5c0.5,0,0.9,0.1,1.2,0.1c0.4,0,0.8,0,1.2,0.1c0.4,0,0.8,0,1,0c0,0.1,0,0.3,0,0.6c0,0.2-0.1,0.4-0.1,0.4
				c-0.2,0-0.6,0-1.1,0.1c-0.5,0.1-0.9,0.3-1.1,0.5c-0.5,0.4-1.2,1.3-2,2.6l-2.6,4.1l2.2,6.2c0.1,0.2,0.2,0.2,0.4-0.1
				c0.5-0.9,1.6-2.8,3.4-5.7c1.8-2.9,2.8-4.5,3-4.8c0.4-0.7,0.7-1.2,0.7-1.6c0-0.4-0.2-0.6-0.6-0.8s-0.8-0.3-1.2-0.4
				c-0.1,0-0.1-0.2-0.1-0.4c0-0.3,0.1-0.5,0.2-0.5c1.7,0.3,2.8,0.5,3.2,0.5c0.4,0,0.8,0.1,1.2,0.1c0.4,0,0.7,0,1.1,0
				c0.4,0,0.7,0,1,0c0,0.1,0,0.3,0,0.6c0,0.2-0.1,0.4-0.2,0.3c-0.2,0-0.6,0-1,0.1c-0.5,0.1-0.8,0.3-1.1,0.5c-0.6,0.6-1.3,1.4-2,2.6
				l-8.3,13.6c-0.2,0.3-0.4,0.5-0.6,0.6c-0.2,0.1-0.4,0.2-0.6,0.2c-0.1,0-0.2-0.1-0.3-0.2l-2.8-7.7l-4.1,6.1
				c-0.2,0.3-0.4,0.5-0.6,0.7c-0.2,0.1-0.4,0.2-0.5,0.2c-0.1,0-0.2-0.1-0.3-0.2l-6.1-16.4c-0.4-1.2-0.8-2.1-1.3-2.7
				c-0.1-0.2-0.4-0.4-0.8-0.6c-0.4-0.2-0.7-0.3-0.9-0.3c-0.1,0-0.1-0.2-0.1-0.5c0-0.3,0.1-0.4,0.1-0.5
				C125,42.3,126.3,42.5,126.4,42.5z"/>
			<path class="st9" d="M164.2,53.1c2.5,0.3,3.6,2.4,3.1,6.2l-0.3,3c-0.1,1.2-0.1,2.1-0.1,2.7c0,0.1,0.2,0.3,0.7,0.5
				c0.5,0.2,0.8,0.3,1,0.3c0.1,0,0.1,0.2,0.1,0.4c0,0.3,0,0.5-0.1,0.6c-0.1,0-0.7-0.1-1.6-0.3c-0.9-0.2-1.6-0.3-2-0.3
				c-0.5-0.1-1.2-0.1-2-0.1s-1.4-0.1-1.6-0.1c-0.1-0.1-0.1-0.3,0-0.6c0-0.3,0.1-0.4,0.1-0.4c0.2,0,0.6,0,1-0.1
				c0.5-0.1,0.7-0.2,0.8-0.3c0.2-0.6,0.3-1.3,0.4-2.1l0.3-2.9c0.2-1.6,0.1-2.8-0.3-3.5c-0.4-0.7-1-1.1-2-1.2c-0.6-0.1-1.2,0-1.7,0.3
				s-0.8,0.6-0.9,1l-0.6,5.1c-0.1,1.2-0.2,2.1-0.1,2.7c0,0.1,0.3,0.3,0.7,0.5c0.5,0.2,0.8,0.3,1,0.3c0.1,0,0.1,0.2,0.1,0.4
				c0,0.3-0.1,0.5-0.1,0.6c-0.2,0-0.7-0.1-1.5-0.3c-0.9-0.2-1.5-0.3-2-0.3c-0.5-0.1-1.2-0.1-2.1-0.1c-0.9,0-1.4-0.1-1.6-0.1
				c-0.1-0.1-0.1-0.3-0.1-0.6c0-0.3,0.1-0.4,0.2-0.4c0.2,0,0.6,0,1.1-0.1c0.5-0.1,0.8-0.2,0.8-0.3c0.2-0.6,0.3-1.3,0.4-2.1l1.3-12.3
				c0.1-0.8,0.1-1.5,0.1-2c-0.1-0.3-0.6-0.5-1.5-0.6l-0.3,0c-0.1,0-0.2-0.2-0.1-0.5c0-0.3,0.1-0.5,0.2-0.5c0.6,0,1.2,0,1.8,0
				c0.6,0,1-0.1,1.4-0.1c0.4-0.1,0.7-0.1,1-0.2c0.3-0.1,0.6-0.1,0.9-0.2l0.1,0c0.1,0,0.2,0.1,0.2,0.2c0.1,0.1,0.1,0.2,0.1,0.3
				c-0.3,0.7-0.5,1.7-0.7,2.7l-0.7,6c0,0.1,0,0.2,0.1,0.2c0,0,0.1,0,0.1-0.1c0.5-0.4,1.1-0.8,2-1.1C162.6,53.1,163.4,53,164.2,53.1z
				"/>
			<path class="st9" d="M175,54.6c0.4,0,1.1,0.1,1.9,0.1c0.8,0,1.3,0.1,1.5,0.1c0,0.1,0,0.3,0,0.5c0,0.3-0.1,0.4-0.2,0.4
				c-0.2,0-0.5,0-1,0.1c-0.4,0.1-0.7,0.2-0.7,0.4l0,0.2c0,0.3,0.7,2.7,2,7c0.2-0.3,0.7-1.3,1.5-2.8c0.8-1.5,1.2-2.4,1.4-2.6
				c0.2-0.3,0.2-0.6,0.3-0.9c0-0.3-0.1-0.5-0.4-0.8c-0.3-0.3-0.8-0.4-1.4-0.5c-0.1,0-0.1-0.2-0.1-0.5c0-0.3,0.1-0.4,0.2-0.5
				c0.2,0,0.7,0.1,1.4,0.2c0.7,0.1,1.3,0.2,1.8,0.3c0.4,0,0.9,0.1,1.5,0.1c0.6,0,1,0,1.3,0.1c0.1,0.1,0.1,0.3,0.1,0.5
				c0,0.3-0.1,0.5-0.2,0.5c-0.3,0-0.7,0-1.2,0.2c-0.5,0.1-0.9,0.4-1.1,0.8L176.8,70c-1.5,2.7-3.2,4-4.9,3.8
				c-0.5-0.1-0.9-0.2-1.1-0.5c-0.2-0.3-0.3-0.6-0.3-1c0.1-0.5,0.3-0.9,0.7-1.1c2,0.2,3.5-0.4,4.3-2c0.6-1.1,0.9-1.8,1-1.9l-3.2-10.5
				c-0.1-0.4-0.2-0.6-0.3-0.7c-0.2-0.3-0.4-0.6-0.8-0.8c-0.4-0.2-0.7-0.3-0.9-0.3c-0.1,0-0.1-0.2-0.1-0.4c0-0.3,0.1-0.5,0.1-0.5
				c0.1,0,0.6,0.1,1.6,0.3C173.8,54.4,174.5,54.5,175,54.6z"/>
			<path class="st9" d="M198.2,50.4c0.2,0,1.4,0.1,3.6,0.2c0,0.1,0,0.3,0,0.6c0,0.3-0.1,0.4-0.1,0.4c-0.1,0-0.3,0-0.5,0
				c-0.2,0-0.4,0.1-0.6,0.2c-0.2,0.1-0.4,0.3-0.4,0.6c0,0.4,0.1,0.9,0.4,1.6l4.5,12.1c0,0.1,0.1,0.1,0.2,0.1c0.1,0,0.2-0.1,0.2-0.2
				l2.6-4l-2.5-6.7c-0.5-1.3-0.9-2.2-1.2-2.7c-0.2-0.2-0.4-0.4-0.7-0.6c-0.3-0.2-0.6-0.3-0.9-0.3c-0.1,0-0.1-0.2-0.1-0.5
				c0-0.3,0.1-0.4,0.1-0.5c2.5,0.4,3.8,0.6,3.9,0.6c0.2,0,1.3,0.1,3.5,0.2c0,0.1,0,0.3,0,0.6c0,0.3-0.1,0.4-0.1,0.4
				c-0.2,0-0.4,0-0.6,0c-0.2,0-0.4,0.1-0.6,0.2c-0.2,0.1-0.3,0.3-0.4,0.5c0,0.3,0.1,0.8,0.4,1.6l1.4,3.9l2.1-3.4
				c0.4-0.7,0.7-1.2,0.7-1.6c0-0.4-0.2-0.6-0.6-0.8c-0.5-0.2-0.9-0.3-1.2-0.4c-0.1,0-0.1-0.2-0.1-0.4c0-0.3,0.1-0.5,0.1-0.5
				c1.7,0.3,2.8,0.5,3.2,0.5c0.5,0,0.9,0.1,1.2,0.1c0.4,0,0.8,0,1.2,0.1c0.4,0,0.8,0,1,0c0,0.1,0,0.3,0,0.6c0,0.2-0.1,0.4-0.1,0.4
				c-0.2,0-0.6,0-1.1,0.1c-0.5,0.1-0.9,0.3-1.1,0.5c-0.5,0.4-1.2,1.3-2,2.6l-2.6,4.1l2.2,6.2c0.1,0.2,0.2,0.2,0.4-0.1
				c0.5-0.9,1.6-2.8,3.4-5.7c1.8-2.9,2.8-4.5,3-4.8c0.4-0.7,0.7-1.2,0.7-1.6c0-0.4-0.2-0.6-0.6-0.8c-0.5-0.2-0.8-0.3-1.2-0.4
				c-0.1,0-0.1-0.2-0.1-0.4c0-0.3,0.1-0.5,0.2-0.5c1.7,0.3,2.8,0.5,3.2,0.5c0.4,0,0.8,0.1,1.2,0.1s0.7,0,1.1,0c0.4,0,0.7,0,1,0
				c0,0.1,0,0.3,0,0.6c0,0.2-0.1,0.4-0.2,0.3c-0.2,0-0.6,0-1,0.1c-0.5,0.1-0.8,0.3-1.1,0.5c-0.6,0.6-1.3,1.4-2,2.6L213.1,71
				c-0.2,0.3-0.4,0.5-0.6,0.6c-0.2,0.1-0.4,0.2-0.6,0.2c-0.1,0-0.2-0.1-0.3-0.2l-2.8-7.7l-4.1,6.1c-0.2,0.3-0.4,0.5-0.6,0.7
				c-0.2,0.1-0.4,0.2-0.5,0.2c-0.1,0-0.2-0.1-0.3-0.2l-6.1-16.4c-0.4-1.2-0.8-2.1-1.3-2.7c-0.1-0.2-0.4-0.4-0.8-0.6
				c-0.4-0.2-0.7-0.3-0.9-0.3c-0.1,0-0.1-0.2-0.1-0.5c0-0.3,0.1-0.4,0.1-0.5C196.8,50.2,198.1,50.4,198.2,50.4z"/>
			<path class="st9" d="M232.4,60.6c0.9,0.1,1.7,0.4,2.4,0.8c0.7,0.4,1.2,1,1.6,1.6c0.4,0.6,0.6,1.2,0.8,1.8
				c0.2,0.6,0.2,1.2,0.1,1.8c0,0.4-0.2,0.7-0.3,0.8c-0.2,0.1-0.5,0.1-0.9,0.1l-7.1-0.8c-0.1,0-0.2,0-0.2,0.2c-0.1,0.7,0,1.4,0.2,2.1
				c0.2,0.7,0.6,1.3,1.1,1.9c0.6,0.6,1.3,0.9,2.2,1c0.3,0,0.6,0,0.9,0c0.3,0,0.5,0,0.8-0.1s0.5-0.1,0.6-0.1c0.2,0,0.4-0.1,0.6-0.2
				s0.3-0.2,0.4-0.2c0.1,0,0.3-0.2,0.6-0.3c0,0,0.1,0.1,0.1,0.2c0,0.1,0.1,0.2,0.1,0.3c0,0.2-0.1,0.4-0.2,0.5c-0.4,0.5-1,1-1.9,1.4
				c-0.9,0.4-1.9,0.6-3,0.5c-1.7-0.2-3.1-1-4.2-2.4s-1.6-3-1.4-4.8c0.2-2,1-3.5,2.3-4.7C229.1,60.8,230.6,60.4,232.4,60.6z
				 M232,61.9c-0.5-0.1-0.9,0-1.3,0.3c-0.4,0.2-0.7,0.5-1,0.9c-0.2,0.4-0.4,0.7-0.6,1.1c-0.1,0.3-0.2,0.6-0.2,0.9
				c0,0.1,0,0.2,0.2,0.2l4.8,0.5c0.2,0,0.3-0.1,0.3-0.4c0.1-0.7-0.1-1.4-0.5-2.2C233.4,62.4,232.8,62,232,61.9z"/>
			<path class="st9" d="M246.5,60.7c0.2-1.5,0.9-2.7,2.3-3.5c1.4-0.9,2.8-1.2,4.4-1.1c0.6,0.1,1,0.1,1.4,0.2c0.4,0.1,1,0.3,1.7,0.6
				c0.7,0.3,1.2,0.4,1.5,0.5c0.1,1.4,0,2.9-0.1,4.6c-0.1,0.2-0.2,0.2-0.4,0.2c-0.5-0.1-0.8-0.2-0.8-0.4c0-0.9-0.3-1.9-1-2.8
				c-0.6-0.9-1.5-1.5-2.5-1.6c-0.9-0.1-1.6,0.1-2.2,0.5c-0.5,0.5-0.9,1.1-1,2c0,0.3,0,0.6,0,0.9c0,0.3,0.1,0.6,0.3,0.8
				c0.2,0.3,0.3,0.5,0.4,0.7c0.1,0.2,0.3,0.4,0.7,0.7c0.3,0.3,0.6,0.5,0.7,0.6c0.1,0.1,0.4,0.3,0.8,0.7c0.4,0.3,0.7,0.5,0.8,0.6
				c0.1,0.1,0.4,0.4,0.9,0.7c0.5,0.4,0.9,0.7,1.1,0.8c0.2,0.2,0.5,0.5,0.9,0.9c0.4,0.4,0.6,0.8,0.8,1.1c0.2,0.3,0.3,0.8,0.4,1.3
				c0.1,0.5,0.1,1,0.1,1.6c-0.2,1.6-1,2.8-2.3,3.7c-1.4,0.9-2.9,1.2-4.6,1.1c-1.2-0.1-3-0.6-5.3-1.4c-0.1-0.7-0.2-1.6-0.2-2.7
				c0-1.1,0-1.8,0-2.1c0-0.2,0.2-0.2,0.5-0.2c0.5,0.1,0.8,0.2,0.8,0.3c0,0.4,0.1,0.8,0.3,1.2c0.2,0.4,0.4,0.9,0.7,1.4
				c0.3,0.5,0.7,1,1.3,1.3c0.5,0.4,1.2,0.6,1.9,0.7c0.9,0.1,1.7-0.1,2.4-0.6c0.7-0.5,1.1-1.3,1.2-2.4c0-0.3,0-0.7-0.1-1
				c-0.1-0.3-0.2-0.6-0.4-0.8c-0.1-0.2-0.4-0.5-0.7-0.8c-0.3-0.3-0.5-0.5-0.7-0.7c-0.2-0.2-0.5-0.4-0.9-0.7
				c-0.4-0.3-0.7-0.5-0.8-0.6c-0.1-0.1-0.2-0.2-0.3-0.3c-0.5-0.4-0.9-0.7-1.2-1c-0.3-0.2-0.6-0.6-1-1c-0.4-0.4-0.7-0.8-0.9-1.2
				c-0.2-0.4-0.4-0.8-0.5-1.3C246.4,61.8,246.4,61.3,246.5,60.7z"/>
			<path class="st9" d="M261.8,65.9l-1.8-0.2c-0.1,0-0.2-0.3-0.1-0.8c0-0.1,0-0.2,0.1-0.3c0.8-0.3,1.6-0.7,2.4-1.3
				c0.3-0.2,0.6-0.5,0.9-0.8s0.7-0.7,1.2-1.1c0.2,0,0.4,0.1,0.6,0.1c0.2,0.1,0.3,0.1,0.2,0.2l-0.3,2.9c0.5,0.1,1.2,0.1,2.1,0.2
				c0.9,0.1,1.4,0.2,1.5,0.2c0.2,0,0.2,0.1,0.2,0.3c-0.1,0.5-0.2,0.9-0.4,1.3l-3.5-0.4l-0.8,7.1c-0.1,0.8,0,1.4,0.3,1.9
				c0.3,0.5,0.7,0.7,1.3,0.8c0.2,0,0.4,0,0.6,0c0.2,0,0.4-0.1,0.5-0.1c0.1,0,0.3-0.1,0.4-0.1c0.1,0,0.2-0.1,0.2-0.1
				c0.1,0,0.2,0.1,0.2,0.3c0.1,0.2,0.1,0.3,0.1,0.4c-0.1,0.3-0.6,0.5-1.4,0.8c-0.8,0.3-1.5,0.4-2.2,0.3c-1-0.1-1.9-0.5-2.5-1.3
				c-0.6-0.7-0.9-1.8-0.7-3.2L261.8,65.9z"/>
			<path class="st9" d="M277.1,65.5c1.2,0.1,2.1,0.6,2.6,1.3c0.5,0.7,0.7,1.8,0.6,3.4l-0.6,5.8c0,0.4,0,0.7,0.2,0.9
				c0.2,0.2,0.4,0.4,0.7,0.4c0.3,0,0.6-0.1,1-0.3c0.1,0.1,0.2,0.2,0.1,0.3c0,0.4-0.1,0.7-0.3,0.9c-0.3,0.2-0.7,0.4-1.3,0.6
				c-0.5,0.2-1,0.3-1.5,0.2c-0.5,0-0.9-0.3-1.3-0.6c-0.4-0.4-0.6-0.8-0.7-1.2c0,0-0.1,0.1-0.2,0.2c-0.1,0.1-0.3,0.2-0.6,0.3
				c-0.2,0.1-0.5,0.3-0.8,0.4c-0.3,0.1-0.7,0.2-1,0.3s-0.8,0.1-1.2,0c-1-0.1-1.8-0.5-2.3-1.1c-0.6-0.6-0.8-1.4-0.7-2.3
				c0.1-0.5,0.2-0.9,0.5-1.3c0.3-0.4,0.6-0.7,0.9-0.9c0.3-0.2,0.8-0.4,1.4-0.6c0.6-0.2,1-0.3,1.4-0.4c0.4-0.1,0.9-0.2,1.5-0.3
				c0.6-0.1,1.1-0.2,1.3-0.2c0.2-0.1,0.3-0.2,0.3-0.4l0.2-1.6c0.1-0.7,0-1.2-0.3-1.7s-0.7-0.7-1.2-0.7c-0.6-0.1-1.1,0.1-1.5,0.4
				s-0.6,0.8-0.7,1.5c0,0.4-0.2,0.7-0.5,0.8s-0.7,0.2-1,0.2c-0.7-0.1-1.2-0.4-1.5-0.9c0.1-0.9,0.8-1.8,2.2-2.4
				C274.3,65.6,275.7,65.3,277.1,65.5z M274.6,76.7c0.5,0.1,1,0,1.4-0.3s0.6-0.5,0.7-0.9l0.3-3c-0.1,0-0.4,0.1-0.9,0.2
				c-0.5,0.1-0.8,0.2-1.1,0.2c-0.2,0.1-0.5,0.2-0.9,0.3c-0.3,0.1-0.6,0.3-0.8,0.6s-0.3,0.5-0.3,0.8c-0.1,0.6,0,1.1,0.3,1.4
				C273.7,76.4,274.1,76.6,274.6,76.7z"/>
			<path class="st9" d="M293.3,67.3c1.1,0.1,1.9,0.5,2.3,1.2c-0.2,1.7-0.7,2.5-1.7,2.4c-0.4,0-0.7-0.3-1.1-0.7
				c-0.4-0.4-0.8-0.7-1.2-0.7c-0.6-0.1-1.1,0.2-1.5,0.8c-0.4,0.6-0.7,1.2-0.7,1.9l-0.4,3.7c-0.1,1.2-0.2,2.1-0.1,2.7
				c0,0.1,0.3,0.3,0.7,0.5s0.8,0.3,1,0.3c0.1,0,0.1,0.2,0.1,0.4c0,0.3,0,0.5-0.1,0.6c-0.2,0-0.7-0.1-1.6-0.3c-0.9-0.2-1.5-0.3-2-0.3
				c-0.5-0.1-1.2-0.1-2.1-0.1c-0.9,0-1.4-0.1-1.6-0.1c-0.1-0.1-0.1-0.3-0.1-0.6c0-0.3,0.1-0.4,0.2-0.4c0.2,0,0.6,0,1.1-0.1
				c0.5-0.1,0.8-0.2,0.8-0.3c0.2-0.6,0.4-1.3,0.4-2.1l0.5-4.8c0.1-0.9,0-1.6-0.3-1.9c-0.1-0.2-0.3-0.4-0.6-0.5
				c-0.3-0.1-0.5-0.2-0.7-0.3c-0.2,0-0.3-0.1-0.3-0.1c0.1-0.6,0.1-0.9,0.2-0.9c0.9,0,2.5-0.1,4.9-0.4c0.1,0,0.2,0,0.2,0
				c0.1,0,0.1,0.1,0.2,0.2c0,0.1,0.1,0.3,0,0.3c0,0.1,0,0.2-0.1,0.4c0,0.2-0.1,0.4-0.1,0.6c-0.1,0.2-0.1,0.3-0.1,0.4
				c0.4-0.5,0.9-0.9,1.6-1.3C292,67.3,292.6,67.2,293.3,67.3z"/>
			<path class="st9" d="M299.1,70l-1.8-0.2c-0.1,0-0.2-0.3-0.1-0.8c0-0.1,0-0.2,0.1-0.3c0.8-0.3,1.6-0.7,2.4-1.3
				c0.3-0.2,0.6-0.5,0.9-0.8c0.3-0.3,0.7-0.7,1.2-1.1c0.2,0,0.4,0.1,0.6,0.1c0.2,0.1,0.3,0.1,0.2,0.2l-0.3,2.9
				c0.5,0.1,1.2,0.1,2.1,0.2c0.9,0.1,1.4,0.2,1.5,0.2c0.2,0,0.2,0.1,0.2,0.3c-0.1,0.5-0.2,0.9-0.4,1.3l-3.5-0.4l-0.8,7.1
				c-0.1,0.8,0,1.4,0.3,1.9c0.3,0.5,0.7,0.7,1.3,0.8c0.2,0,0.4,0,0.6,0c0.2,0,0.4-0.1,0.5-0.1c0.1,0,0.3-0.1,0.4-0.1
				c0.1,0,0.2-0.1,0.2-0.1c0.1,0,0.2,0.1,0.2,0.3c0.1,0.2,0.1,0.3,0.1,0.4c-0.1,0.3-0.6,0.5-1.4,0.8c-0.8,0.3-1.5,0.4-2.2,0.3
				c-1-0.1-1.9-0.5-2.5-1.3c-0.6-0.7-0.9-1.8-0.7-3.2L299.1,70z"/>
			<path class="st9" d="M314.3,69.6c0.9,0.1,1.7,0.4,2.4,0.8s1.2,1,1.6,1.6c0.4,0.6,0.6,1.2,0.8,1.8c0.2,0.6,0.2,1.2,0.1,1.8
				c0,0.4-0.2,0.7-0.3,0.8c-0.2,0.1-0.5,0.1-0.9,0.1l-7.1-0.8c-0.1,0-0.2,0-0.2,0.2c-0.1,0.7,0,1.4,0.2,2.1c0.2,0.7,0.6,1.3,1.1,1.9
				c0.6,0.6,1.3,0.9,2.2,1c0.3,0,0.6,0,0.9,0s0.5,0,0.8-0.1c0.2,0,0.5-0.1,0.6-0.1c0.2,0,0.4-0.1,0.6-0.2s0.3-0.2,0.4-0.2
				c0.1,0,0.3-0.2,0.6-0.3c0,0,0.1,0.1,0.1,0.2c0,0.1,0.1,0.2,0.1,0.3c0,0.2-0.1,0.4-0.2,0.5c-0.4,0.5-1,1-1.9,1.4
				c-0.9,0.4-1.9,0.6-3,0.5c-1.7-0.2-3.1-1-4.2-2.4s-1.6-3-1.4-4.8c0.2-2,1-3.5,2.3-4.7C311,69.8,312.5,69.4,314.3,69.6z M314,70.9
				c-0.5-0.1-0.9,0-1.3,0.3c-0.4,0.2-0.7,0.5-1,0.9c-0.2,0.4-0.4,0.7-0.6,1.1c-0.1,0.3-0.2,0.6-0.2,0.9c0,0.1,0,0.2,0.2,0.2l4.8,0.5
				c0.2,0,0.3-0.1,0.3-0.4c0.1-0.7-0.1-1.4-0.5-2.2C315.3,71.4,314.7,71,314,70.9z"/>
			<path class="st9" d="M328.1,71c0.8,0.1,1.6,0.3,2.1,0.7c0.1,0,0.2-0.1,0.2-0.5l0.3-2.8c0.1-0.7,0.1-1.4,0-2
				c-0.1-0.3-0.6-0.5-1.5-0.6l-0.2,0c-0.1,0-0.2-0.2-0.1-0.5c0-0.3,0.1-0.5,0.2-0.5c0.6,0,1.2,0,1.8,0c0.6,0,1-0.1,1.4-0.1
				c0.4-0.1,0.7-0.1,1-0.2c0.3-0.1,0.5-0.1,0.6-0.2c0.1,0,0.2-0.1,0.2,0l0.1,0c0.1,0,0.2,0.1,0.2,0.2c0.1,0.1,0.1,0.2,0.1,0.3
				c-0.3,0.7-0.5,1.7-0.6,2.7l-1.4,13c-0.1,0.9-0.1,1.6-0.1,2.2c0,0.1,0.1,0.3,0.3,0.4c0.2,0.1,0.3,0.2,0.5,0.2
				c0.2,0,0.4,0.1,0.6,0.1c0.2,0,0.3,0,0.3,0c0,0,0,0.2,0,0.4c0,0.4-0.1,0.6-0.2,0.6c-0.3,0-0.6,0-1.1,0c-0.4,0-0.9,0-1.3,0.1
				c-0.4,0-0.8,0.1-1.2,0.1c-0.4,0-0.8,0.1-1.3,0.1c-0.1,0-0.2-0.2-0.1-0.5l0.1-0.5c0-0.1,0-0.1,0-0.1c0,0-0.1,0-0.1,0
				c-1,0.6-2.1,0.9-3.2,0.8c-1.6-0.2-2.9-0.9-4-2.2c-1.1-1.3-1.5-2.8-1.3-4.6c0.2-2,1.1-3.5,2.6-4.8C324.6,71.3,326.2,70.8,328.1,71
				z M327.7,72.4c-1-0.1-1.9,0.2-2.5,1.1c-0.6,0.8-1,2-1.2,3.5c-0.2,1.7,0,3,0.5,4c0.5,1,1.3,1.6,2.4,1.7c0.7,0.1,1.2,0,1.7-0.3
				c0.5-0.3,0.7-0.7,0.8-1.2l0.7-6.2c0-0.2,0-0.4,0-0.6c0-0.2-0.1-0.5-0.3-0.7c-0.1-0.3-0.4-0.5-0.7-0.7
				C328.6,72.6,328.2,72.5,327.7,72.4z"/>
		</g>
	</g>
</g>
<g id="Layer_2">
</g>
</svg>
