<svg id="Layer_1" data-name="Layer 1" xmlns="http://www.w3.org/2000/svg" viewBox="0 0 380.43 112.08"><defs><style>.cls-1{fill:#fff;stroke:#1928eb;stroke-miterlimit:10;stroke-width:0.45px;}</style></defs><title>part</title><path class="cls-1" d="M124,8.8q.86-.09,2-.26t2-.27a9.72,9.72,0,0,1,1.78,0,7.16,7.16,0,0,1,1.81.39,6.28,6.28,0,0,1,1.65.85,4.7,4.7,0,0,1,1.26,1.43,5.07,5.07,0,0,1,.66,2.05,5.65,5.65,0,0,1-.43,2.8,6.25,6.25,0,0,1-1.94,2.5,6,6,0,0,1-3.19,1.29,3.7,3.7,0,0,1-1.27-.09,1.78,1.78,0,0,1-.92-.45.63.63,0,0,1-.14-.28,1.35,1.35,0,0,1-.06-.44c0-.14,0-.21.07-.22a4.16,4.16,0,0,0,1.69.11A2.63,2.63,0,0,0,131,16.77a5,5,0,0,0,.5-3,5.45,5.45,0,0,0-1.14-3,2.8,2.8,0,0,0-2.58-.88,4.85,4.85,0,0,0-1.69.4q-.34.22,0,3.11l1.16,10.55a9.29,9.29,0,0,0,.51,2.49q.13.34,1.05.47a6.29,6.29,0,0,0,1.34.08c.08,0,.14.16.17.49a1.68,1.68,0,0,1,0,.51q-3.27.18-4.22.28t-1.78.24l-1.57.25-.58.12a1,1,0,0,1-.15-.52c0-.31,0-.48,0-.48a5.06,5.06,0,0,0,1.12-.32q.73-.27.82-.55a11.76,11.76,0,0,0-.12-2.71L122.66,13a11.69,11.69,0,0,0-.44-2.4q-.12-.23-.93-.39a4.32,4.32,0,0,0-1.17-.13q-.12,0-.17-.43t.06-.54Q123.13,8.89,124,8.8Z"/><path class="cls-1" d="M143.29,13.14a3.65,3.65,0,0,1,2.85.66A4.76,4.76,0,0,1,147.42,17l.64,5.82a1.36,1.36,0,0,0,.37.87.89.89,0,0,0,.74.23,1.85,1.85,0,0,0,1-.49c.12,0,.19.13.21.31a1.76,1.76,0,0,1-.08.91,7.29,7.29,0,0,1-1.1.87,3.1,3.1,0,0,1-1.37.54,2.17,2.17,0,0,1-1.39-.36,2.44,2.44,0,0,1-1-1l-.2.22c-.12.12-.28.28-.49.46a8.65,8.65,0,0,1-.72.56,4.71,4.71,0,0,1-1,.51,4.3,4.3,0,0,1-1.15.29,3.55,3.55,0,0,1-2.5-.55A2.83,2.83,0,0,1,138.23,24a2.75,2.75,0,0,1,.19-1.37,3.54,3.54,0,0,1,.7-1.11,6.09,6.09,0,0,1,1.19-.92,12.25,12.25,0,0,1,1.31-.73l1.43-.62,1.21-.52a.47.47,0,0,0,.21-.5l-.18-1.63a2.55,2.55,0,0,0-.65-1.57,1.55,1.55,0,0,0-1.34-.45,1.8,1.8,0,0,0-1.33.7,2.22,2.22,0,0,0-.33,1.61,1,1,0,0,1-.35.92,1.85,1.85,0,0,1-1,.39,1.68,1.68,0,0,1-1.62-.54q-.16-1.42,1.64-2.87A7.46,7.46,0,0,1,143.29,13.14Zm-.08,11.49a2.31,2.31,0,0,0,1.33-.56,1.18,1.18,0,0,0,.47-1l-.33-3q-.2.11-.84.39t-1,.47a7.9,7.9,0,0,0-.78.5,1.79,1.79,0,0,0-.62.73,1.64,1.64,0,0,0-.13.85,1.83,1.83,0,0,0,.63,1.34A1.71,1.71,0,0,0,143.2,24.63Z"/><path class="cls-1" d="M159.4,11.37a3,3,0,0,1,2.53.71q.28,2.51-1.14,2.67a1.76,1.76,0,0,1-1.22-.46,1.86,1.86,0,0,0-1.34-.45,1.59,1.59,0,0,0-1.33,1.09,4,4,0,0,0-.3,2L157,20.6a12.48,12.48,0,0,0,.5,2.64q.08.2.83.34a4.2,4.2,0,0,0,1,.11c.06,0,.11.13.15.42a3.07,3.07,0,0,1,0,.58l-1.58.05q-1.34.06-2,.13t-2,.31l-1.57.29a.88.88,0,0,1-.18-.55q0-.44.07-.46a4.15,4.15,0,0,0,1.05-.34c.47-.2.71-.37.74-.51a9.76,9.76,0,0,0,0-2.18l-.53-4.82a2.83,2.83,0,0,0-.68-1.84,1.43,1.43,0,0,0-.71-.37,3.38,3.38,0,0,0-.73-.1c-.19,0-.29,0-.29-.06q-.09-.86.05-.9a42.13,42.13,0,0,0,4.66-1.41l.23-.08c.08,0,.16.05.23.18a.72.72,0,0,1,.11.33c0,.09,0,.23,0,.42s0,.39,0,.6a3.67,3.67,0,0,0,0,.4,5.46,5.46,0,0,1,1.29-1.59A3.26,3.26,0,0,1,159.4,11.37Z"/><path class="cls-1" d="M165.69,12.77l-1.8.2q-.21,0-.29-.75a.74.74,0,0,1,0-.27,8.32,8.32,0,0,0,2.1-1.82l.75-1q.4-.54.94-1.37a2.11,2.11,0,0,1,.57,0c.18,0,.28.07.28.13l.32,2.9,2.14-.22,1.46-.15c.16,0,.25.06.27.24a2.89,2.89,0,0,1-.15,1.33l-3.55.39.78,7.12a2.83,2.83,0,0,0,.7,1.75,1.7,1.7,0,0,0,1.46.47,2.81,2.81,0,0,0,.61-.14,3.18,3.18,0,0,0,.51-.22l.37-.22.2-.11c.08,0,.17.05.29.24s.17.31.16.37q-.13.43-1.15,1.1a4.69,4.69,0,0,1-2.05.78,3.75,3.75,0,0,1-2.72-.7,4,4,0,0,1-1.41-2.94Z"/><path class="cls-1" d="M185.89,2q2-.15,3.27-.28t3.27-.43l3.21-.46a9.88,9.88,0,0,0,2-.52l1.06,4.46a1.15,1.15,0,0,1-.78.29c-.16,0-.26,0-.31-.12a4.28,4.28,0,0,0-1.33-2.08,3.27,3.27,0,0,0-2.19-.34q-2.75.3-2.81.82a10.39,10.39,0,0,0,0,2.81l1.17,10.67a10.19,10.19,0,0,0,.55,2.54q.05.2.85.34a4.74,4.74,0,0,0,1.06.11c.08,0,.14.16.18.52a1.53,1.53,0,0,1,0,.48l-1.15,0-1.4.06-1.23.1q-.8.09-2.19.33l-1.72.31a.69.69,0,0,1-.17-.46q-.06-.53.06-.54a4.71,4.71,0,0,0,1.08-.33c.49-.19.75-.37.79-.54a9.42,9.42,0,0,0,0-2.48L188,6.59a8.16,8.16,0,0,0-.58-2.84q-.29-.48-2.86-.19a3.26,3.26,0,0,0-2.06.81,4.41,4.41,0,0,0-.89,2.3q0,.18-.28.21a1,1,0,0,1-.79-.15l.07-4.55a9.88,9.88,0,0,0,2.07.07Z"/><path class="cls-1" d="M219.57,7a.86.86,0,0,0-.3-.58,1.3,1.3,0,0,0-.64-.29,5.39,5.39,0,0,0-.7-.07,4.34,4.34,0,0,0-.61,0h-.12q-.12,0-.18-.43c0-.29,0-.47,0-.54q.38,0,1.58-.08t1.9-.12q.62-.07,1.57-.26t1.39-.24a1.86,1.86,0,0,1,.11.5q0,.44-.07.46a3.39,3.39,0,0,0-1.13.5,1.82,1.82,0,0,0-.92,1l-3.23,10.91a1.17,1.17,0,0,1-.35.47,1,1,0,0,1-.56.26.38.38,0,0,1-.41-.17l-4.5-7.76-2.32,8.06a1.63,1.63,0,0,1-.29.45.9.9,0,0,1-.61.31.44.44,0,0,1-.44-.16q-.85-1.46-2-3.56T204.63,12q-1-1.6-2.17-3.47a1.36,1.36,0,0,0-.83-.51,2.85,2.85,0,0,0-1-.1c-.08,0-.14-.14-.17-.46s0-.45.06-.52.7,0,1.5-.08,1.43-.07,1.89-.12,1.12-.15,2-.31l1.53-.26a1.66,1.66,0,0,1,.12.53q0,.38,0,.42a3.54,3.54,0,0,0-1,.32q-.61.28-.57.69s1.24,2.2,3.7,6.47q.23-.86.55-2l.48-1.67L211,9.86q.16-.58.22-.88a1.65,1.65,0,0,0,0-.38,2.17,2.17,0,0,0-.51-1.14,1.41,1.41,0,0,0-.7-.4A2.37,2.37,0,0,0,209,7q-.12,0-.17-.42c0-.29,0-.46.06-.53s.71,0,1.47-.07,1.38-.06,1.86-.11,1.07-.15,1.91-.3l1.5-.25a1.47,1.47,0,0,1,.1.54c0,.29,0,.43-.06.44q-1.51.16-1.39,1.2a47.69,47.69,0,0,0,3.5,6.26q.34-1.29.85-3t.75-2.59A4,4,0,0,0,219.57,7Z"/><path class="cls-1" d="M231.86,3.42a6.55,6.55,0,0,1,5,1.42A6.36,6.36,0,0,1,239.3,9.3a6.46,6.46,0,0,1-1.42,4.91,6.74,6.74,0,0,1-12-3.44,6.4,6.4,0,0,1,1.42-4.91A6.51,6.51,0,0,1,231.86,3.42Zm-.23,1.43a2.39,2.39,0,0,0-2,1.58,6.4,6.4,0,0,0-.42,3.29,8.67,8.67,0,0,0,1.42,4.06,3,3,0,0,0,2.87,1.48,2.42,2.42,0,0,0,2-1.6,6.32,6.32,0,0,0,.43-3.28,10.23,10.23,0,0,0-.7-2.81,5.25,5.25,0,0,0-1.48-2.07A2.76,2.76,0,0,0,231.63,4.85Z"/><path class="cls-1" d="M244,3a1.89,1.89,0,0,1,.73,1.31,2,2,0,0,1-.42,1.48,1.82,1.82,0,0,1-1.31.77,1.9,1.9,0,0,1-1.49-.46,2,2,0,0,1-.75-1.35,1.87,1.87,0,0,1,.44-1.44,2,2,0,0,1,1.36-.73A1.89,1.89,0,0,1,244,3Zm1,9.12a1.94,1.94,0,0,1,.73,1.33,2,2,0,0,1-.42,1.47,1.84,1.84,0,0,1-1.31.76,1.92,1.92,0,0,1-1.49-.45,2,2,0,0,1-.75-1.34,1.91,1.91,0,0,1,.44-1.45,1.94,1.94,0,0,1,1.35-.75A1.86,1.86,0,0,1,245,12.12Z"/><path class="cls-1" d="M11.29,39.89l6,15.66q.43,1.19.86,2.18a1.45,1.45,0,0,0,.94.73,4,4,0,0,0,1.13.28q.12,0,.11.54a1,1,0,0,1-.06.45l-3.74-.23-3.87.13a.84.84,0,0,1-.11-.55c0-.29,0-.43.12-.43a3.8,3.8,0,0,0,1-.17q.63-.17.75-.41a.85.85,0,0,0,.09-.39A6.84,6.84,0,0,0,14,55.62l-1-2.78a.33.33,0,0,0-.21-.12q-.95-.07-2.56-.09t-3.39,0q-.18,0-.18.12L5.5,55.55a8.46,8.46,0,0,0-.59,1.93.66.66,0,0,0,.32.6,3,3,0,0,0,.93.34,5.08,5.08,0,0,0,.9.16c.06,0,.09.16.08.42a1.94,1.94,0,0,1-.07.56l-1.4-.11q-1.25-.1-2-.11t-1.83.05l-1.5.08A.64.64,0,0,1,.23,59q0-.53.07-.53a4.31,4.31,0,0,0,1.15-.24,1.83,1.83,0,0,0,1-.57,14.17,14.17,0,0,0,1.16-2.3L9.3,42.07a6.46,6.46,0,0,1,1.13-2.13.76.76,0,0,1,.51-.2A.49.49,0,0,1,11.29,39.89Zm-3.71,11q1,.1,2.14.12T12.16,51l.06-.12-2.19-6L7.52,50.79C7.52,50.87,7.54,50.91,7.58,50.91Z"/><path class="cls-1" d="M31.26,55.51l.14-11.24a9.44,9.44,0,0,0-.18-2.44q-.09-.33-.83-.55a4.68,4.68,0,0,0-1.19-.22q-.12,0-.11-.45a.81.81,0,0,1,.13-.53q2,.11,4,.14l2.56,0h1.78a8.82,8.82,0,0,1,4.21,1.14A4.38,4.38,0,0,1,43.36,43,4.51,4.51,0,0,1,44,45.42a3.48,3.48,0,0,1-.65,2,4.82,4.82,0,0,1-1.19,1.28,4.9,4.9,0,0,1-.94.51q-.24.09-.12.18A4.82,4.82,0,0,1,43.5,51a4.68,4.68,0,0,1,1.31,3.42,4.8,4.8,0,0,1-2.12,4,8.93,8.93,0,0,1-5.5,1.42L33,59.76l-4,.07a.77.77,0,0,1-.08-.48q0-.51.1-.5a4.88,4.88,0,0,0,1.13-.18q.74-.18.87-.45A10.8,10.8,0,0,0,31.26,55.51Zm9.91-.86a4.66,4.66,0,0,0-1-3.15,4.25,4.25,0,0,0-3.39-1.28,12.4,12.4,0,0,0-1.85.13.65.65,0,0,0-.25.59l-.07,5.53q0,1.25.34,1.55a3.72,3.72,0,0,0,1.9.32,6.13,6.13,0,0,0,1.28-.12,6.36,6.36,0,0,0,1.36-.46,2.68,2.68,0,0,0,1.2-1.14A4,4,0,0,0,41.17,54.66Zm-3-6a2.63,2.63,0,0,0,2.21-2.89q0-4-3.37-4.06a8,8,0,0,0-1.9.12.3.3,0,0,0-.24.32L34.75,45l0,3.48q0,.3,1.78.32A5.86,5.86,0,0,0,38.16,48.61Z"/><path class="cls-1" d="M55.52,46.93a3,3,0,0,1,2.43,1q0,2.53-1.46,2.51a1.77,1.77,0,0,1-1.15-.61,1.86,1.86,0,0,0-1.27-.61,1.59,1.59,0,0,0-1.45.92,4,4,0,0,0-.54,1.94l0,3.72a12.43,12.43,0,0,0,.17,2.68q.06.21.78.44a4.21,4.21,0,0,0,1,.24c.06,0,.09.15.1.43a3.1,3.1,0,0,1,0,.58L52.47,60q-1.34-.11-2-.11T48.38,60l-1.59.1a.87.87,0,0,1-.11-.57q0-.45.12-.44a4.15,4.15,0,0,0,1.09-.21q.73-.21.79-.42a9.71,9.71,0,0,0,.23-2.17L49,51.42a2.83,2.83,0,0,0-.45-1.91,1.43,1.43,0,0,0-.66-.45,3.38,3.38,0,0,0-.71-.19c-.19,0-.28-.05-.28-.09q0-.86.16-.89a42.13,42.13,0,0,0,4.8-.83l.24-.06c.08,0,.15.07.21.21a.72.72,0,0,1,.07.34L52.3,48q0,.28-.08.59a3.73,3.73,0,0,0,0,.4,5.45,5.45,0,0,1,1.47-1.42A3.26,3.26,0,0,1,55.52,46.93Z"/><path class="cls-1" d="M65.08,56a10.94,10.94,0,0,0,.2,2.68q.06.21.8.44a4.36,4.36,0,0,0,1,.24c.08,0,.12.15.13.43a1.68,1.68,0,0,1-.05.58l-1.59-.14q-1.38-.11-2-.11t-2.1.06l-1.56.1a.87.87,0,0,1-.11-.57q0-.45.12-.44A4.32,4.32,0,0,0,61,59q.75-.21.81-.42A9.72,9.72,0,0,0,62,56.43l.06-4.85a2.83,2.83,0,0,0-.45-1.91,1.65,1.65,0,0,0-.68-.45,3.15,3.15,0,0,0-.71-.19c-.2,0-.3-.05-.3-.09q0-.86.19-.89a22.92,22.92,0,0,0,2.41-.33,23.29,23.29,0,0,0,2.35-.51l.24-.06q.15,0,.24.21a.55.55,0,0,1,.05.33,25.55,25.55,0,0,0-.27,2.55ZM62.14,43.49a1.81,1.81,0,0,1-.52-1.31,1.84,1.84,0,0,1,3.69,0,1.81,1.81,0,0,1-.55,1.3,1.83,1.83,0,0,1-2.62,0Z"/><path class="cls-1" d="M75.21,47.17a5.51,5.51,0,0,1,2.49.58,4.71,4.71,0,0,1,1.71,1.42,6.91,6.91,0,0,1,.93,1.77,5.11,5.11,0,0,1,.31,1.74q0,.65-.23.81a1.69,1.69,0,0,1-.91.15l-7.1-.09c-.14,0-.21.06-.21.18a5.78,5.78,0,0,0,.36,2.09,4.09,4.09,0,0,0,1.3,1.77,3.5,3.5,0,0,0,2.24.77,8.16,8.16,0,0,0,.86,0,4.46,4.46,0,0,0,.77-.14l.63-.19a2.55,2.55,0,0,0,.55-.26l.4-.25.6-.39a.49.49,0,0,1,.15.18.57.57,0,0,1,.09.3.92.92,0,0,1-.19.56,4.84,4.84,0,0,1-1.77,1.58,5.52,5.52,0,0,1-3,.77,6,6,0,0,1-4.43-2A6.41,6.41,0,0,1,69,53.85,6.88,6.88,0,0,1,70.78,49,5.76,5.76,0,0,1,75.21,47.17ZM75,48.54a2.1,2.1,0,0,0-1.28.4,2.8,2.8,0,0,0-.87,1A5.71,5.71,0,0,0,72.38,51a3.67,3.67,0,0,0-.14.88q0,.21.18.21l4.82.06q.27,0,.27-.44a3.85,3.85,0,0,0-.67-2.12A2.13,2.13,0,0,0,75,48.54Z"/><path class="cls-1" d="M91,39.85a5.86,5.86,0,0,1,2.06.34,2.08,2.08,0,0,1,1.08.77,3.34,3.34,0,0,1-.18,1.65,1.07,1.07,0,0,1-1.09.71,1.16,1.16,0,0,1-.9-.5q-.4-.5-.84-1a1.37,1.37,0,0,0-1-.5,1.58,1.58,0,0,0-1.35.76,5,5,0,0,0-.78,1.86,12.13,12.13,0,0,0-.25,2.41l0,1.37s0,0,.06.09a.17.17,0,0,0,.12.06l3.27,0a.23.23,0,0,1,.15,0,.31.31,0,0,1,0,.18,3.06,3.06,0,0,1-.37,1.36l-3.09,0a.16.16,0,0,0-.18.18l-.08,6.63a11.39,11.39,0,0,0,.2,2.68q.06.21.78.44a4.2,4.2,0,0,0,1,.23c.06,0,.09.15.1.43a1.68,1.68,0,0,1-.05.58q-.18,0-1.54-.14t-2.08-.12q-.71,0-2,.06l-1.55.1a.57.57,0,0,1-.11-.33,1.79,1.79,0,0,1,0-.46c0-.15.06-.22.12-.22a4,4,0,0,0,1-.21q.72-.21.78-.42a9.83,9.83,0,0,0,.3-2.43l.09-6.84q0-.21-.18-.21l-1.78,0s-.06-.06-.06-.18a1.59,1.59,0,0,1,.43-.86,1.2,1.2,0,0,1,1-.52h.48a.16.16,0,0,0,.18-.18v-.3A8.09,8.09,0,0,1,86.54,42,5.56,5.56,0,0,1,91,39.85Z"/><path class="cls-1" d="M118.63,60c.08,0,.12.19.11.57a1.32,1.32,0,0,1-.06.42l-3.77-.23h-1.25l-1.44.06-1.26.06a.58.58,0,0,1-.11-.42c0-.38,0-.56.13-.56a4.72,4.72,0,0,0,1.12-.19q.76-.2.85-.44a10.39,10.39,0,0,0,.27-2.49l.06-5.11-.06-.12q-2.79-.09-3.92-.11a35.49,35.49,0,0,0-4.1.1l-.06,5a11,11,0,0,0,.23,2.68q.06.21.81.44a4.54,4.54,0,0,0,1,.24c.08,0,.12.19.11.57a1.33,1.33,0,0,1-.06.42l-3.77-.23h-1.25l-1.44.06-1.26.06a.58.58,0,0,1-.11-.42c0-.38,0-.56.13-.56a4.73,4.73,0,0,0,1.12-.19q.76-.2.85-.44a10.41,10.41,0,0,0,.27-2.49l.14-11.47a9,9,0,0,0-.21-2.5q-.12-.24-.83-.47a4,4,0,0,0-1.07-.24q-.12,0-.11-.45a1.19,1.19,0,0,1,.07-.53l1.65.11q1.5.11,2.3.12l3.81-.13a1.51,1.51,0,0,1,.08.48c0,.34,0,.5-.13.5a4.86,4.86,0,0,0-1.07.22q-.81.23-.87.44a11,11,0,0,0-.27,2.61l-.05,4.34.06.09q2.91.1,4,.11t3.92,0a.17.17,0,0,0,.06-.12l.06-4.43a8.94,8.94,0,0,0-.21-2.5q-.12-.24-.83-.47a4,4,0,0,0-1.07-.24q-.12,0-.11-.45a1.2,1.2,0,0,1,.07-.53l1.65.11q1.5.11,2.3.12l3.81-.13a1.51,1.51,0,0,1,.08.48c0,.34,0,.5-.13.5a4.82,4.82,0,0,0-1.07.22c-.54.15-.83.3-.87.44a11,11,0,0,0-.27,2.61l-.14,11.18a11,11,0,0,0,.23,2.68q.06.21.81.44A4.57,4.57,0,0,0,118.63,60Z"/><path class="cls-1" d="M126.11,56.73a11,11,0,0,0,.2,2.68q.06.21.8.44a4.35,4.35,0,0,0,1,.24q.12,0,.13.43a1.66,1.66,0,0,1-.05.58L126.61,61q-1.38-.11-2-.11t-2.1.06l-1.56.1a.87.87,0,0,1-.11-.57c0-.3,0-.45.12-.44a4.31,4.31,0,0,0,1.07-.21q.75-.21.81-.42A9.69,9.69,0,0,0,123,57.2l.06-4.85a2.83,2.83,0,0,0-.45-1.91A1.65,1.65,0,0,0,122,50a3.16,3.16,0,0,0-.71-.19c-.2,0-.3-.05-.3-.09,0-.57.07-.87.19-.89a22.92,22.92,0,0,0,2.41-.33,23.27,23.27,0,0,0,2.35-.51l.24-.06q.15,0,.23.21a.55.55,0,0,1,.06.33,25.66,25.66,0,0,0-.27,2.55Zm-2.94-12.48a1.81,1.81,0,0,1-.52-1.31,1.76,1.76,0,0,1,.55-1.29A1.84,1.84,0,0,1,126.34,43a1.81,1.81,0,0,1-.55,1.3,1.83,1.83,0,0,1-2.62,0Z"/><path class="cls-1" d="M135,47.89a12.65,12.65,0,0,1,3.44.55,16.82,16.82,0,0,1,.29,3.33c0,.16-.13.24-.39.23-.44,0-.67-.09-.71-.25a3.61,3.61,0,0,0-.85-1.78,2.32,2.32,0,0,0-1.79-.75,2.13,2.13,0,0,0-1.36.37,1.32,1.32,0,0,0-.5,1.09,1.73,1.73,0,0,0,.15.76,1.85,1.85,0,0,0,.53.65,7.42,7.42,0,0,0,.65.48c.19.12.47.28.84.49a2,2,0,0,0,.3.15l.44.24.49.27L137,54a5.28,5.28,0,0,1,.52.35l.46.36a2.35,2.35,0,0,1,.44.42l.35.47a1.93,1.93,0,0,1,.31.54,5.62,5.62,0,0,1,.16.57,2.73,2.73,0,0,1,.07.64,3.51,3.51,0,0,1-1.48,2.94,5.64,5.64,0,0,1-3.51,1,9.93,9.93,0,0,1-3.82-.88,11.91,11.91,0,0,1-.28-1.65,14.54,14.54,0,0,1-.13-1.71.63.63,0,0,1,.42-.14c.46,0,.69.09.71.25a3.28,3.28,0,0,0,1.15,2,3.17,3.17,0,0,0,2,.78,2.16,2.16,0,0,0,1.37-.4,1.45,1.45,0,0,0,.55-1.21,1.93,1.93,0,0,0-.07-.55,1.46,1.46,0,0,0-.28-.51l-.34-.42a2.13,2.13,0,0,0-.53-.41l-.59-.35-.74-.4-.75-.41a6.91,6.91,0,0,1-2.09-1.62,3.43,3.43,0,0,1,.75-4.91A5.74,5.74,0,0,1,135,47.89Z"/><path class="cls-1" d="M143,50.1l-1.81,0c-.14,0-.21-.26-.2-.78a.76.76,0,0,1,0-.27,8.32,8.32,0,0,0,2.31-1.55l.86-.87q.47-.48,1.1-1.25a2.11,2.11,0,0,1,.56.08c.18.05.27.11.27.17l0,2.91,2.15,0,1.47,0c.16,0,.24.09.23.27a2.88,2.88,0,0,1-.31,1.3l-3.57,0L146,57.31a2.82,2.82,0,0,0,.48,1.82,1.7,1.7,0,0,0,1.39.64,2.83,2.83,0,0,0,.63-.07,3.18,3.18,0,0,0,.54-.16l.39-.17.21-.09c.08,0,.17.07.26.27a.7.7,0,0,1,.11.39,2.73,2.73,0,0,1-1.28,1,4.68,4.68,0,0,1-2.13.52,3.75,3.75,0,0,1-2.62-1,4,4,0,0,1-1-3.09Z"/><path class="cls-1" d="M158.76,48.22a6.56,6.56,0,0,1,4.75,2A6.37,6.37,0,0,1,165.43,55,6.73,6.73,0,0,1,152,54.8a6.4,6.4,0,0,1,2-4.7A6.51,6.51,0,0,1,158.76,48.22Zm-.4,1.39a2.39,2.39,0,0,0-2.19,1.33,6.39,6.39,0,0,0-.81,3.22,8.67,8.67,0,0,0,.91,4.2,3,3,0,0,0,2.67,1.82,2.42,2.42,0,0,0,2.2-1.34,6.32,6.32,0,0,0,.83-3.2,10.19,10.19,0,0,0-.35-2.87,5.24,5.24,0,0,0-1.22-2.23A2.76,2.76,0,0,0,158.36,49.61Z"/><path class="cls-1" d="M176.13,48.44a3,3,0,0,1,2.43,1q0,2.53-1.46,2.51a1.77,1.77,0,0,1-1.15-.61,1.86,1.86,0,0,0-1.27-.61,1.59,1.59,0,0,0-1.45.92,4,4,0,0,0-.54,1.94l0,3.72a12.48,12.48,0,0,0,.17,2.68c0,.14.3.29.78.44a4.23,4.23,0,0,0,1,.24c.06,0,.09.15.1.43a3.09,3.09,0,0,1,0,.58l-1.57-.14q-1.34-.11-2-.11t-2.07.06l-1.59.1a.87.87,0,0,1-.11-.57c0-.3,0-.45.12-.44a4.15,4.15,0,0,0,1.09-.21q.73-.21.79-.42a9.69,9.69,0,0,0,.24-2.17l.06-4.85a2.83,2.83,0,0,0-.45-1.91,1.44,1.44,0,0,0-.66-.45,3.36,3.36,0,0,0-.71-.19q-.28,0-.28-.09c0-.57.06-.87.16-.89a42,42,0,0,0,4.8-.83l.24-.06c.08,0,.15.07.21.21a.7.7,0,0,1,.07.34l0,.42c0,.19,0,.39-.08.59a3.93,3.93,0,0,0,0,.4,5.43,5.43,0,0,1,1.48-1.42A3.25,3.25,0,0,1,176.13,48.44Z"/><path class="cls-1" d="M183.69,48.83c.44,0,1.06,0,1.87-.07s1.32-.07,1.52-.07a2,2,0,0,1,.05.54c0,.28,0,.42-.12.41a3.24,3.24,0,0,0-.94.21q-.64.21-.67.48v.18q.05.48,2.68,6.81.24-.53,1.2-2.91t1.11-2.74a2.81,2.81,0,0,0,.19-.92.94.94,0,0,0-.47-.73,2.45,2.45,0,0,0-1.42-.36c-.08,0-.12-.15-.11-.45a.74.74,0,0,1,.13-.5q.36,0,1.46.11t1.81.11c.42,0,.93,0,1.53-.07s1-.08,1.32-.07a.85.85,0,0,1,.11.48c0,.32,0,.48-.12.47a3.77,3.77,0,0,0-1.21.28,1.65,1.65,0,0,0-1,.88L186.95,64q-1.9,4.32-4.48,4.28a1.61,1.61,0,0,1-1.18-.43,1.39,1.39,0,0,1,.17-2.11q3.09,0,4.1-2.39l.83-2-4.21-10.16a3.9,3.9,0,0,0-.35-.69,1.78,1.78,0,0,0-.87-.68,2.82,2.82,0,0,0-1-.24c-.08,0-.12-.14-.11-.42s0-.5.09-.53l1.59.11Q183,48.82,183.69,48.83Z"/><path class="cls-1" d="M209.62,48.86a6.55,6.55,0,0,1,4.75,2,6.38,6.38,0,0,1,1.92,4.74,6.73,6.73,0,0,1-13.47-.17,6.4,6.4,0,0,1,2-4.7A6.51,6.51,0,0,1,209.62,48.86Zm-.4,1.39A2.39,2.39,0,0,0,207,51.57a6.39,6.39,0,0,0-.81,3.22,8.67,8.67,0,0,0,.92,4.2,3,3,0,0,0,2.67,1.82,2.42,2.42,0,0,0,2.2-1.34,6.3,6.3,0,0,0,.83-3.2,10.15,10.15,0,0,0-.35-2.87,5.24,5.24,0,0,0-1.22-2.23A2.76,2.76,0,0,0,209.22,50.25Z"/><path class="cls-1" d="M226.85,41.55a5.86,5.86,0,0,1,2.06.34,2.08,2.08,0,0,1,1.08.77,3.32,3.32,0,0,1-.19,1.65,1.07,1.07,0,0,1-1.09.71,1.16,1.16,0,0,1-.9-.5q-.39-.5-.83-1a1.37,1.37,0,0,0-1-.5,1.58,1.58,0,0,0-1.35.76,5,5,0,0,0-.78,1.86,12.09,12.09,0,0,0-.25,2.4l0,1.37s0,0,.06.09a.17.17,0,0,0,.12.06l3.27,0a.25.25,0,0,1,.15,0,.32.32,0,0,1,0,.18,3.06,3.06,0,0,1-.37,1.36l-3.09,0a.16.16,0,0,0-.18.18l-.08,6.63a11.36,11.36,0,0,0,.2,2.68q.06.21.78.44a4.23,4.23,0,0,0,1,.24c.06,0,.09.15.1.43a1.66,1.66,0,0,1-.05.58q-.18,0-1.54-.14t-2.08-.12q-.71,0-2,.06l-1.55.1a.57.57,0,0,1-.12-.33,1.81,1.81,0,0,1,0-.46c0-.15.06-.22.12-.22a4,4,0,0,0,1-.21q.72-.21.78-.42a9.83,9.83,0,0,0,.3-2.43l.08-6.84c0-.14-.06-.21-.18-.21l-1.78,0s-.06-.06-.06-.18a1.59,1.59,0,0,1,.43-.86,1.2,1.2,0,0,1,1-.52h.48a.16.16,0,0,0,.18-.18v-.3a8.09,8.09,0,0,1,1.92-5.33A5.56,5.56,0,0,1,226.85,41.55Z"/><path class="cls-1" d="M252.8,57.13a16.42,16.42,0,0,1-.48,2.3,5.16,5.16,0,0,1-.71,2,16,16,0,0,1-6.91,1.16,8.93,8.93,0,0,1-6.65-3,9.58,9.58,0,0,1-2.68-6.9,10.22,10.22,0,0,1,2.92-7.2,9.16,9.16,0,0,1,7-2.93,32.67,32.67,0,0,1,7,.89,8.49,8.49,0,0,1,.15,1.95q.06,1.92.06,2.39t-.72.44a1,1,0,0,1-.41-.12,4.16,4.16,0,0,0-.42-1.1,7.67,7.67,0,0,0-.92-1.29,4.53,4.53,0,0,0-1.83-1.2,8,8,0,0,0-2.82-.5,5.16,5.16,0,0,0-4.56,2.35,10.09,10.09,0,0,0-1.69,5.75,10.76,10.76,0,0,0,1.75,6.37A5.94,5.94,0,0,0,246,61.21a5.44,5.44,0,0,0,4.21-1.61,4.07,4.07,0,0,0,.71-1.11q.32-.69.49-1.17c.11-.31.19-.47.23-.47Q252.69,56.86,252.8,57.13Z"/><path class="cls-1" d="M260,58.41a11,11,0,0,0,.2,2.68q.06.21.8.44a4.34,4.34,0,0,0,1,.24c.08,0,.12.15.13.43a1.66,1.66,0,0,1-.05.58l-1.59-.14q-1.38-.11-2-.11t-2.1.06l-1.56.1a.87.87,0,0,1-.11-.57c0-.3,0-.45.13-.44a4.34,4.34,0,0,0,1.07-.21q.75-.21.81-.42a9.69,9.69,0,0,0,.24-2.17L257,54a2.83,2.83,0,0,0-.45-1.91,1.66,1.66,0,0,0-.68-.45,3.15,3.15,0,0,0-.71-.19q-.3,0-.3-.09c0-.57.07-.87.19-.89a22.92,22.92,0,0,0,2.41-.33,23.16,23.16,0,0,0,2.36-.51l.24-.06c.1,0,.18.07.24.21a.55.55,0,0,1,.06.33A25.25,25.25,0,0,0,260,52.7ZM257,45.93a1.81,1.81,0,0,1-.52-1.31,1.76,1.76,0,0,1,.55-1.29,1.84,1.84,0,0,1,3.14,1.33,1.81,1.81,0,0,1-.55,1.3,1.83,1.83,0,0,1-2.62,0Z"/><path class="cls-1" d="M265.7,51.64l-1.81,0c-.14,0-.2-.26-.2-.78a.74.74,0,0,1,0-.27A8.34,8.34,0,0,0,266,49l.86-.87q.47-.48,1.1-1.25a2.1,2.1,0,0,1,.56.08c.18.05.27.11.27.17l0,2.91,2.16,0,1.47,0c.16,0,.24.09.24.27a2.88,2.88,0,0,1-.31,1.3l-3.57,0-.09,7.16a2.82,2.82,0,0,0,.48,1.82,1.7,1.7,0,0,0,1.39.64,2.83,2.83,0,0,0,.63-.07,3.19,3.19,0,0,0,.54-.16l.39-.17.21-.09c.08,0,.17.07.26.27s.13.33.11.39a2.72,2.72,0,0,1-1.28,1,4.68,4.68,0,0,1-2.13.52,3.75,3.75,0,0,1-2.62-1,4,4,0,0,1-1-3.09Z"/><path class="cls-1" d="M279.89,58.66a11,11,0,0,0,.2,2.68q.06.21.8.44a4.35,4.35,0,0,0,1,.24c.08,0,.12.15.13.43A1.66,1.66,0,0,1,282,63l-1.59-.14q-1.38-.11-2-.11t-2.1.06l-1.56.1a.87.87,0,0,1-.11-.57c0-.3,0-.45.13-.44a4.31,4.31,0,0,0,1.07-.21q.75-.21.81-.42a9.69,9.69,0,0,0,.24-2.17l.06-4.85a2.83,2.83,0,0,0-.45-1.91,1.66,1.66,0,0,0-.68-.45,3.15,3.15,0,0,0-.71-.19q-.3,0-.3-.09c0-.57.07-.87.19-.89a22.92,22.92,0,0,0,2.41-.33,23.32,23.32,0,0,0,2.36-.51l.24-.06c.1,0,.18.07.24.21a.55.55,0,0,1,.06.33,25.25,25.25,0,0,0-.27,2.55ZM277,46.18a1.81,1.81,0,0,1-.52-1.31,1.76,1.76,0,0,1,.55-1.29,1.84,1.84,0,0,1,3.14,1.33,1.81,1.81,0,0,1-.55,1.3,1.83,1.83,0,0,1-2.62,0Z"/><path class="cls-1" d="M287.68,61.37c0,.06,0,.11.15.15a.64.64,0,0,0,.21.06l2.88,0a3,3,0,0,0,3-2.28q.09-.3.52-.29a.63.63,0,0,1,.58.24l-.58,3.77-10.11-.13q-.59-.36-.59-.69a.17.17,0,0,1,0-.12l7-10.29-3.15-.1a2.11,2.11,0,0,0-.57.07,2.63,2.63,0,0,0-.48.17,1.74,1.74,0,0,0-.4.28,2.07,2.07,0,0,0-.3.32l-.24.37-.2.34-.15.33a1.31,1.31,0,0,0-.09.24c-.06.12-.31.17-.75.17-.22,0-.33,0-.33-.06s.08-.61.23-1.53.25-1.68.3-2.27q1.75.2,2.82.21l3.63,0a31,31,0,0,0,3.75-.19,2.49,2.49,0,0,1,.05.71l-7,10A.92.92,0,0,0,287.68,61.37Z"/><path class="cls-1" d="M303.14,50a5.5,5.5,0,0,1,2.49.58A4.71,4.71,0,0,1,307.34,52a6.92,6.92,0,0,1,.93,1.77,5.13,5.13,0,0,1,.3,1.74c0,.44-.08.71-.23.81a1.69,1.69,0,0,1-.91.15l-7.1-.09c-.14,0-.21.06-.21.18a5.76,5.76,0,0,0,.36,2.08,4.09,4.09,0,0,0,1.3,1.77,3.5,3.5,0,0,0,2.24.77,8,8,0,0,0,.86,0,4.43,4.43,0,0,0,.78-.14l.63-.19a2.55,2.55,0,0,0,.55-.26l.4-.25.6-.39a.48.48,0,0,1,.15.18.57.57,0,0,1,.09.3.91.91,0,0,1-.19.56,4.85,4.85,0,0,1-1.77,1.58,5.52,5.52,0,0,1-3,.77,6,6,0,0,1-4.43-2,6.41,6.41,0,0,1-1.82-4.68,6.88,6.88,0,0,1,1.8-4.85A5.76,5.76,0,0,1,303.14,50Zm-.23,1.36a2.1,2.1,0,0,0-1.28.4,2.8,2.8,0,0,0-.87,1,5.72,5.72,0,0,0-.45,1.11,3.62,3.62,0,0,0-.14.88q0,.21.18.21l4.82.06c.18,0,.27-.15.27-.44a3.85,3.85,0,0,0-.67-2.12A2.13,2.13,0,0,0,302.92,51.39Z"/><path class="cls-1" d="M320,50.24q3.83,0,3.76,6.14l0,2.82a12.42,12.42,0,0,0,.17,2.68q.06.21.81.44a4.56,4.56,0,0,0,1,.24c.06,0,.09.15.1.43a1.69,1.69,0,0,1-.05.58q-.18,0-1.56-.14t-2.07-.12q-.71,0-2,.06l-1.53.1a.87.87,0,0,1-.11-.57c0-.3,0-.45.13-.44a3.55,3.55,0,0,0,1-.21c.45-.14.69-.28.73-.42a8.49,8.49,0,0,0,.27-2.17l0-2.82a6.46,6.46,0,0,0-.62-3.46,2.39,2.39,0,0,0-2.11-1,2.75,2.75,0,0,0-1.67.5,1.43,1.43,0,0,0-.73,1.11l-.06,5.11a12.48,12.48,0,0,0,.17,2.68c0,.14.3.29.78.44a4.3,4.3,0,0,0,1,.23c.08,0,.12.15.13.43a1.7,1.7,0,0,1-.05.58L316,63.33q-1.32-.11-2-.11t-2.07.06l-1.59.1a.87.87,0,0,1-.11-.57c0-.3,0-.45.13-.44a4.16,4.16,0,0,0,1.09-.21q.73-.21.79-.42a9.69,9.69,0,0,0,.24-2.17l.06-4.85a2.83,2.83,0,0,0-.45-1.91,1.44,1.44,0,0,0-.66-.45,3.39,3.39,0,0,0-.71-.19c-.19,0-.28-.05-.28-.09,0-.57.06-.87.16-.89a41.85,41.85,0,0,0,4.8-.83l.07,0h.16c.08,0,.15.07.21.21a.91.91,0,0,1,.09.33,9.76,9.76,0,0,0-.13,1.07.24.24,0,0,0,0,.15.46.46,0,0,0,.15-.09,6.6,6.6,0,0,1,1.84-1.23A5.2,5.2,0,0,1,320,50.24Z"/><path class="cls-1" d="M332.82,50.37a12.63,12.63,0,0,1,3.44.55,16.86,16.86,0,0,1,.29,3.33q0,.24-.39.23c-.44,0-.67-.09-.71-.25a3.6,3.6,0,0,0-.85-1.78,2.32,2.32,0,0,0-1.79-.75,2.14,2.14,0,0,0-1.36.37,1.32,1.32,0,0,0-.5,1.09,1.73,1.73,0,0,0,.15.76,1.87,1.87,0,0,0,.53.65,7.57,7.57,0,0,0,.65.48c.19.12.47.28.84.49a1.86,1.86,0,0,0,.3.15l.44.24.49.27.47.29a5.39,5.39,0,0,1,.52.35l.46.36a2.35,2.35,0,0,1,.44.42l.35.47a1.94,1.94,0,0,1,.31.54,5.74,5.74,0,0,1,.16.57,2.79,2.79,0,0,1,.07.64,3.51,3.51,0,0,1-1.48,2.94,5.65,5.65,0,0,1-3.51,1,9.93,9.93,0,0,1-3.83-.88A11.94,11.94,0,0,1,328,61.3a14.57,14.57,0,0,1-.13-1.71.64.64,0,0,1,.42-.14c.46,0,.69.09.71.25a3.28,3.28,0,0,0,1.15,2,3.17,3.17,0,0,0,2,.78,2.16,2.16,0,0,0,1.37-.4,1.45,1.45,0,0,0,.55-1.21,2,2,0,0,0-.07-.55,1.46,1.46,0,0,0-.28-.51l-.34-.42a2.15,2.15,0,0,0-.53-.41l-.59-.35-.74-.4-.75-.41a6.89,6.89,0,0,1-2.09-1.62,3.43,3.43,0,0,1,.75-4.91A5.73,5.73,0,0,1,332.82,50.37Z"/><path class="cls-1" d="M348.88,50.6q3.8,0,3.73,5.9l0,3.06a10.92,10.92,0,0,0,.2,2.68q0,.21.78.44a4.57,4.57,0,0,0,1,.24c.06,0,.09.15.1.43a3.08,3.08,0,0,1,0,.58l-1.59-.14q-1.38-.11-2-.11t-2,.06l-1.56.1a1.11,1.11,0,0,1-.08-.57c0-.3,0-.45.09-.45a3.55,3.55,0,0,0,1-.21q.67-.21.76-.42a11.22,11.22,0,0,0,.21-2.17l0-2.91a6.2,6.2,0,0,0-.63-3.41,2.43,2.43,0,0,0-2.11-1,2.85,2.85,0,0,0-1.64.48,1.4,1.4,0,0,0-.76,1.12l-.06,5.11a10.92,10.92,0,0,0,.2,2.68q.06.21.78.44a4.22,4.22,0,0,0,1,.23c.06,0,.09.15.1.43a1.67,1.67,0,0,1-.05.58l-1.56-.14q-1.32-.11-2-.11t-2.07.06l-1.59.1a.87.87,0,0,1-.11-.57c0-.3,0-.45.13-.44a4.16,4.16,0,0,0,1.09-.21q.73-.21.79-.42a9.6,9.6,0,0,0,.24-2.14l.15-12.37a11.67,11.67,0,0,0-.12-2q-.14-.48-1.54-.49h-.27q-.18,0-.17-.48t.18-.47q.92-.08,1.76-.22t1.38-.28q.55-.14,1-.29l.85-.29h.06c.08,0,.16.06.24.17a.84.84,0,0,1,.15.31,9.56,9.56,0,0,0-.39,2.79l-.08,6q0,.18.12.18s.06,0,.12-.09a5.66,5.66,0,0,1,1.84-1.27A5.48,5.48,0,0,1,348.88,50.6Z"/><path class="cls-1" d="M361.83,59.68a11,11,0,0,0,.2,2.68q.06.21.8.44a4.35,4.35,0,0,0,1,.24c.08,0,.12.15.13.43a1.66,1.66,0,0,1-.05.58l-1.59-.14q-1.38-.11-2-.11t-2.1.06l-1.56.1a.87.87,0,0,1-.11-.57c0-.3,0-.45.13-.44a4.34,4.34,0,0,0,1.07-.21q.75-.21.81-.42a9.69,9.69,0,0,0,.24-2.17l.06-4.85a2.83,2.83,0,0,0-.45-1.91,1.66,1.66,0,0,0-.68-.45,3.15,3.15,0,0,0-.71-.19q-.3,0-.3-.09c0-.57.07-.87.19-.89a22.92,22.92,0,0,0,2.41-.33,23.32,23.32,0,0,0,2.36-.51l.24-.06c.1,0,.18.07.24.21a.55.55,0,0,1,.06.33A25.25,25.25,0,0,0,361.9,54ZM358.89,47.2a1.81,1.81,0,0,1-.52-1.31,1.76,1.76,0,0,1,.55-1.29,1.84,1.84,0,0,1,3.14,1.33,1.81,1.81,0,0,1-.55,1.3,1.83,1.83,0,0,1-2.62,0Z"/><path class="cls-1" d="M374,50.94a6,6,0,0,1,3.38,1,6.22,6.22,0,0,1,2.85,5.33,7,7,0,0,1-7.07,7,6.91,6.91,0,0,1-2.11-.44c-.08,0-.12.14-.12.41l0,2a10.68,10.68,0,0,0,.2,2.68q0,.24.78.47a4.53,4.53,0,0,0,1,.24c.06,0,.09.15.1.43a2.7,2.7,0,0,1,0,.55l-1.59-.11c-.92-.07-1.6-.11-2-.11s-1.19,0-2.1.06l-1.59.07a1.06,1.06,0,0,1-.08-.55c0-.29,0-.43.09-.43a4.12,4.12,0,0,0,1.09-.21q.73-.21.82-.45a10.82,10.82,0,0,0,.21-2.14l.14-11.36a2.89,2.89,0,0,0-.45-1.94,1.34,1.34,0,0,0-.65-.44,3.59,3.59,0,0,0-.71-.17c-.2,0-.3-.05-.3-.09q0-.86.19-.89a22.84,22.84,0,0,0,4.44-.78L371,51q.12,0,.11.63a1.61,1.61,0,0,1-.06.36,6,6,0,0,1,1.33-.68A4.26,4.26,0,0,1,374,50.94Zm-.73,1.57a2.25,2.25,0,0,0-1.6.54,2,2,0,0,0-.63,1.51l-.08,6.12a1.83,1.83,0,0,0,.78,1.57,2.89,2.89,0,0,0,1.72.6,2.8,2.8,0,0,0,2.32-1.22,5.76,5.76,0,0,0,1-3.5,7.69,7.69,0,0,0-.9-4A2.92,2.92,0,0,0,373.25,52.51Z"/><path class="cls-1" d="M40.2,107.1a10.87,10.87,0,0,0,.45,2.65q.08.2.83.37a4.39,4.39,0,0,0,1,.14c.08,0,.13.13.17.42a1.66,1.66,0,0,1,0,.58H41.09q-1.38,0-2,.07t-2.08.26l-1.55.24a.88.88,0,0,1-.16-.55c0-.3,0-.45.08-.45a4.32,4.32,0,0,0,1-.31q.72-.28.77-.49a9.79,9.79,0,0,0,0-2.18L36.8,103a2.82,2.82,0,0,0-.63-1.86,1.65,1.65,0,0,0-.72-.39,3.11,3.11,0,0,0-.73-.12c-.2,0-.3,0-.3-.07q-.07-.86.11-.9a22.76,22.76,0,0,0,2.37-.55,23.17,23.17,0,0,0,2.3-.72l.23-.08c.1,0,.18.06.25.19a.56.56,0,0,1,.08.32,25.43,25.43,0,0,0,0,2.57ZM36.13,94.94a1.81,1.81,0,0,1-.64-1.26,1.83,1.83,0,0,1,1.69-2,1.78,1.78,0,0,1,1.35.43,1.76,1.76,0,0,1,.64,1.25,1.81,1.81,0,0,1-.43,1.35,1.83,1.83,0,0,1-2.61.21Z"/><path class="cls-1" d="M53.1,97.11q3.82-.31,4.31,5.77l.23,2.81a12.42,12.42,0,0,0,.42,2.65q.08.2.85.36a4.54,4.54,0,0,0,1,.14c.06,0,.11.14.14.42a1.71,1.71,0,0,1,0,.58q-.18,0-1.57,0t-2.07.08q-.71.06-2,.25l-1.52.24a.88.88,0,0,1-.16-.55q0-.44.08-.45a3.5,3.5,0,0,0,1-.3c.43-.18.66-.35.69-.49a8.58,8.58,0,0,0,.06-2.18l-.23-2.82a6.46,6.46,0,0,0-.94-3.38,2.39,2.39,0,0,0-2.2-.81,2.76,2.76,0,0,0-1.62.65,1.43,1.43,0,0,0-.62,1.17l.41,5.1a12.42,12.42,0,0,0,.42,2.65q.08.2.82.37a4.28,4.28,0,0,0,1,.14c.08,0,.13.13.17.42a1.71,1.71,0,0,1,0,.58H50.25q-1.33,0-2,.07t-2.05.25l-1.58.25a.88.88,0,0,1-.16-.55q0-.44.08-.45a4.14,4.14,0,0,0,1.06-.31q.71-.28.75-.49a9.8,9.8,0,0,0,0-2.18L46,102.28a2.82,2.82,0,0,0-.63-1.86,1.42,1.42,0,0,0-.7-.39,3.39,3.39,0,0,0-.73-.12c-.19,0-.29,0-.29-.07,0-.57,0-.87.08-.9a42.08,42.08,0,0,0,4.7-1.27l.07-.05.09,0h.07c.08,0,.15.06.22.19a.91.91,0,0,1,.11.32,10.23,10.23,0,0,0,0,1.08.24.24,0,0,0,0,.15.43.43,0,0,0,.14-.1,6.59,6.59,0,0,1,1.72-1.39A5.21,5.21,0,0,1,53.1,97.11Z"/><path class="cls-1" d="M69.4,97.89,67.59,98q-.21,0-.27-.75a.73.73,0,0,1,0-.27,8.31,8.31,0,0,0,2.16-1.75q.35-.42.77-.94t1-1.35a2.13,2.13,0,0,1,.57,0c.18,0,.27.08.28.14l.23,2.9,2.15-.16,1.47-.1q.24,0,.26.25A2.88,2.88,0,0,1,76,97.36l-3.56.29.57,7.14a2.83,2.83,0,0,0,.65,1.77,1.7,1.7,0,0,0,1.44.51,2.84,2.84,0,0,0,.62-.12,3.13,3.13,0,0,0,.52-.21l.37-.21.2-.1q.12,0,.29.25t.15.38q-.15.43-1.18,1.06a4.69,4.69,0,0,1-2.07.72,3.75,3.75,0,0,1-2.7-.78,4,4,0,0,1-1.33-3Z"/><path class="cls-1" d="M87.88,94.32q3.79-.3,4.26,5.53l.25,3.05a10.88,10.88,0,0,0,.45,2.65q0,.21.82.37a4.55,4.55,0,0,0,1,.14c.06,0,.11.14.14.42a3.25,3.25,0,0,1,0,.58h-1.6q-1.38,0-2,.07t-2,.25l-1.55.24a1.11,1.11,0,0,1-.13-.56q0-.44.05-.45a3.54,3.54,0,0,0,1-.3q.65-.28.72-.49a11.3,11.3,0,0,0,0-2.18l-.23-2.9a6.2,6.2,0,0,0-.94-3.34A2.43,2.43,0,0,0,86,96.65a2.85,2.85,0,0,0-1.59.63,1.4,1.4,0,0,0-.65,1.19l.41,5.1a10.93,10.93,0,0,0,.45,2.65c0,.14.32.26.82.37a4.18,4.18,0,0,0,1,.14q.09,0,.14.42a1.68,1.68,0,0,1,0,.58H85q-1.33,0-2,.07t-2.05.25l-1.58.25a.87.87,0,0,1-.16-.55c0-.3,0-.45.08-.45a4.17,4.17,0,0,0,1.06-.31q.71-.28.75-.49a9.61,9.61,0,0,0,0-2.15L80.15,92a11.7,11.7,0,0,0-.31-2q-.19-.46-1.58-.35l-.27,0c-.12,0-.19-.14-.22-.46s0-.48.14-.49q.91-.16,1.73-.38T81,88q.54-.19.92-.37l.82-.36h.06a.32.32,0,0,1,.25.14.84.84,0,0,1,.17.3,9.57,9.57,0,0,0-.13,2.81l.48,6c0,.12.05.17.13.17s.06,0,.11-.1a5.67,5.67,0,0,1,1.72-1.44A5.48,5.48,0,0,1,87.88,94.32Z"/><path class="cls-1" d="M101.7,93.21a5.51,5.51,0,0,1,2.53.35,4.72,4.72,0,0,1,1.83,1.25,6.91,6.91,0,0,1,1.09,1.67,5.09,5.09,0,0,1,.47,1.71q.05.65-.16.83a1.69,1.69,0,0,1-.89.24l-7.08.57c-.14,0-.2.08-.19.19a5.75,5.75,0,0,0,.55,2,4.09,4.09,0,0,0,1.46,1.64,3.5,3.5,0,0,0,2.3.56,8.16,8.16,0,0,0,.86-.11,4.42,4.42,0,0,0,.76-.21l.61-.24a2.5,2.5,0,0,0,.53-.31l.38-.28.56-.45a.49.49,0,0,1,.16.17.57.57,0,0,1,.11.29.92.92,0,0,1-.13.58,4.85,4.85,0,0,1-1.62,1.74,5.51,5.51,0,0,1-2.87,1,6,6,0,0,1-4.6-1.55,6.41,6.41,0,0,1-2.24-4.49,6.88,6.88,0,0,1,1.34-5A5.76,5.76,0,0,1,101.7,93.21Zm-.1,1.38a2.1,2.1,0,0,0-1.24.52,2.8,2.8,0,0,0-.78,1.08,5.65,5.65,0,0,0-.34,1.15,3.64,3.64,0,0,0-.06.89c0,.14.08.2.19.19l4.8-.39q.27,0,.23-.47a3.84,3.84,0,0,0-.87-2A2.13,2.13,0,0,0,101.6,94.59Z"/><path class="cls-1" d="M118.77,85.45q.53,0,3.78-.48a2,2,0,0,1,.1.47c0,.34,0,.51-.08.51a5.09,5.09,0,0,0-1,.31q-.78.29-.79.53a10.85,10.85,0,0,0,0,2.63l.55,6.82A8.18,8.18,0,0,0,123,101a4.28,4.28,0,0,0,3.81,1.53,4.75,4.75,0,0,0,3.54-1.79q1.26-1.61,1-5.07l-.58-7.23a6.08,6.08,0,0,0-.49-2.35,2.06,2.06,0,0,0-1.09-.43,5.27,5.27,0,0,0-1.28-.15q-.12,0-.17-.4a1,1,0,0,1,0-.54q3.22,0,3.75-.09.74-.06,2-.26t1.52-.23a1.71,1.71,0,0,1,.1.47c0,.32,0,.48-.08.48a5.67,5.67,0,0,0-1.26.32,1.93,1.93,0,0,0-1.08.7,6.67,6.67,0,0,0-.13,2.49l.56,7a12.6,12.6,0,0,1-.24,4,6.24,6.24,0,0,1-1.39,2.77,6.49,6.49,0,0,1-2.24,1.6,9.44,9.44,0,0,1-3,.69,7.39,7.39,0,0,1-5.77-1.7q-2.22-2-2.6-6.75l-.52-6.46a8.22,8.22,0,0,0-.44-2.47q-.14-.23-.87-.39a4,4,0,0,0-1.08-.14q-.12,0-.15-.44a.92.92,0,0,1,0-.54Z"/><path class="cls-1" d="M147.06,89.56q3.82-.31,4.31,5.77l.23,2.81a12.28,12.28,0,0,0,.42,2.65q.07.2.85.36a4.58,4.58,0,0,0,1,.14c.06,0,.11.14.14.42a1.68,1.68,0,0,1,0,.58c-.12,0-.64,0-1.57,0s-1.61,0-2.07.08-1.13.12-2,.25l-1.52.24a.87.87,0,0,1-.16-.55c0-.3,0-.45.08-.45a3.55,3.55,0,0,0,1-.3q.65-.28.69-.49a8.53,8.53,0,0,0,.06-2.18l-.23-2.81a6.46,6.46,0,0,0-.94-3.38,2.39,2.39,0,0,0-2.2-.81,2.75,2.75,0,0,0-1.62.65,1.43,1.43,0,0,0-.62,1.17l.41,5.1a12.44,12.44,0,0,0,.42,2.65q.08.2.82.37a4.3,4.3,0,0,0,1,.14c.08,0,.13.13.17.42a1.67,1.67,0,0,1,0,.58h-1.56q-1.33,0-2,.07t-2.05.25l-1.58.25a.88.88,0,0,1-.16-.55q0-.44.08-.45a4.16,4.16,0,0,0,1.06-.31q.71-.28.75-.49a9.74,9.74,0,0,0,0-2.18L140,94.73a2.83,2.83,0,0,0-.63-1.86,1.43,1.43,0,0,0-.7-.39,3.44,3.44,0,0,0-.73-.12c-.19,0-.29,0-.29-.07q-.07-.86.08-.9a42.11,42.11,0,0,0,4.7-1.27l.07-.05.09,0h.07c.08,0,.15.06.22.19a.93.93,0,0,1,.11.32,10.23,10.23,0,0,0,0,1.08c0,.08,0,.13,0,.15a.44.44,0,0,0,.14-.1,6.58,6.58,0,0,1,1.72-1.39A5.21,5.21,0,0,1,147.06,89.56Z"/><path class="cls-1" d="M161,97.39a10.93,10.93,0,0,0,.45,2.65q.08.2.83.37a4.39,4.39,0,0,0,1,.14c.08,0,.14.13.17.42a1.66,1.66,0,0,1,0,.58h-1.59q-1.38,0-2,.07t-2.08.26l-1.55.24a.88.88,0,0,1-.16-.55c0-.3,0-.45.08-.45a4.32,4.32,0,0,0,1-.31q.72-.28.77-.49a9.73,9.73,0,0,0,0-2.18l-.39-4.83a2.82,2.82,0,0,0-.63-1.86,1.65,1.65,0,0,0-.72-.39,3.13,3.13,0,0,0-.73-.12c-.2,0-.3,0-.3-.07,0-.57,0-.87.11-.9a23,23,0,0,0,2.37-.55,23.25,23.25,0,0,0,2.3-.72l.23-.08c.1,0,.18.06.25.19a.56.56,0,0,1,.08.32,25.64,25.64,0,0,0,0,2.57Zm-4.08-12.15a1.81,1.81,0,0,1-.64-1.26,1.76,1.76,0,0,1,.43-1.33,1.84,1.84,0,0,1,3.24,1,1.81,1.81,0,0,1-.43,1.35,1.83,1.83,0,0,1-2.61.21Z"/><path class="cls-1" d="M166.05,90.12l-1.81.15c-.14,0-.23-.24-.27-.75a.72.72,0,0,1,0-.27,8.36,8.36,0,0,0,2.16-1.75q.35-.42.77-.94c.28-.35.61-.8,1-1.35a2.09,2.09,0,0,1,.57,0c.18,0,.27.08.28.14l.23,2.9,2.15-.16,1.47-.1c.16,0,.25.07.26.25a2.88,2.88,0,0,1-.19,1.33l-3.56.29.57,7.14a2.82,2.82,0,0,0,.65,1.77,1.7,1.7,0,0,0,1.44.51,2.86,2.86,0,0,0,.62-.12,3.2,3.2,0,0,0,.52-.21l.37-.21.2-.11c.08,0,.17.06.29.25s.17.31.15.38q-.15.43-1.18,1.06a4.67,4.67,0,0,1-2.07.72,3.75,3.75,0,0,1-2.7-.78,4,4,0,0,1-1.33-3Z"/><path class="cls-1" d="M180.92,86.84a5.51,5.51,0,0,1,2.53.35,4.71,4.71,0,0,1,1.83,1.25,7,7,0,0,1,1.09,1.67,5.13,5.13,0,0,1,.46,1.71c0,.44,0,.71-.16.83a1.68,1.68,0,0,1-.89.24l-7.08.57q-.21,0-.19.19a5.75,5.75,0,0,0,.55,2,4.08,4.08,0,0,0,1.46,1.64,3.49,3.49,0,0,0,2.3.56,7.91,7.91,0,0,0,.86-.11,4.42,4.42,0,0,0,.76-.21l.61-.24a2.51,2.51,0,0,0,.53-.31l.38-.28.56-.45a.47.47,0,0,1,.16.17.57.57,0,0,1,.11.29.92.92,0,0,1-.13.58A4.85,4.85,0,0,1,185,99.06a5.51,5.51,0,0,1-2.87,1,6,6,0,0,1-4.6-1.55,6.41,6.41,0,0,1-2.24-4.49,6.88,6.88,0,0,1,1.34-5A5.76,5.76,0,0,1,180.92,86.84Zm-.1,1.38a2.1,2.1,0,0,0-1.24.52,2.8,2.8,0,0,0-.78,1.08,5.72,5.72,0,0,0-.34,1.15,3.6,3.6,0,0,0-.06.89c0,.14.08.2.2.19l4.8-.39c.18,0,.25-.17.23-.47a3.84,3.84,0,0,0-.87-2A2.13,2.13,0,0,0,180.82,88.22Z"/><path class="cls-1" d="M194.73,85.67a5.11,5.11,0,0,1,2.2.24c.1,0,.13-.17.11-.49l-.22-2.79a10.32,10.32,0,0,0-.34-2q-.19-.46-1.58-.35l-.24,0c-.12,0-.19-.14-.22-.46s0-.48.14-.49q.88-.16,1.71-.38c.55-.14,1-.28,1.37-.41s.67-.25.93-.37l.59-.27.23-.09h.06a.32.32,0,0,1,.25.14.55.55,0,0,1,.14.3,11.36,11.36,0,0,0-.07,2.81l1,13a10.81,10.81,0,0,0,.36,2.18.43.43,0,0,0,.32.3,1.8,1.8,0,0,0,.57.1H203s.07.15.09.35c0,.4,0,.6-.13.61q-.41.06-1,.2l-1.23.29-1.14.3-1.21.35q-.18,0-.22-.49l0-.5a.13.13,0,0,0-.05-.11.05.05,0,0,0-.07,0,5,5,0,0,1-3,1.34,5.75,5.75,0,0,1-4.32-1.43,6,6,0,0,1-2.13-4.29,7,7,0,0,1,1.63-5.19A6.51,6.51,0,0,1,194.73,85.67Zm-.15,1.44a2.6,2.6,0,0,0-2.26,1.52,7,7,0,0,0-.51,3.65A7.17,7.17,0,0,0,193,96.14a2.92,2.92,0,0,0,2.69,1.2,2.47,2.47,0,0,0,1.59-.65,1.65,1.65,0,0,0,.52-1.37l-.5-6.22a2.08,2.08,0,0,0-.15-.61,2.78,2.78,0,0,0-.41-.67,1.9,1.9,0,0,0-.85-.56A3.16,3.16,0,0,0,194.58,87.11Z"/><path class="cls-1" d="M210.49,83a4.68,4.68,0,0,1,1.57-3.9,6.49,6.49,0,0,1,4.08-1.86,10.54,10.54,0,0,1,1.46,0q.63,0,1.76.23l1.56.25a26.57,26.57,0,0,1,.72,4.54.32.32,0,0,1-.33.3q-.8.06-.88-.2a5.23,5.23,0,0,0-1.49-2.56,3.37,3.37,0,0,0-2.77-1.09,2.74,2.74,0,0,0-2,.94,2.91,2.91,0,0,0-.56,2.13,3.34,3.34,0,0,0,.17.84,2.09,2.09,0,0,0,.48.75l.56.6a3.52,3.52,0,0,0,.79.58l.78.47q.2.13.94.51a8.75,8.75,0,0,0,.88.42,11.08,11.08,0,0,0,1,.56q.85.42,1.2.62t1,.68a4.23,4.23,0,0,1,1,.93,6.14,6.14,0,0,1,.62,1.16,5,5,0,0,1,.36,1.54,4.83,4.83,0,0,1-1.6,4.07,6.88,6.88,0,0,1-4.31,1.9A27.64,27.64,0,0,1,212,97a25.53,25.53,0,0,1-.7-2.64,20.13,20.13,0,0,1-.39-2.1q0-.24.46-.28c.51,0,.81,0,.88.17a5.83,5.83,0,0,0,.51,1.14,8.53,8.53,0,0,0,.92,1.3,3.91,3.91,0,0,0,1.49,1.07,4.17,4.17,0,0,0,2,.3,3.33,3.33,0,0,0,2.25-1,3.2,3.2,0,0,0,.72-2.56,2.58,2.58,0,0,0-.27-1,3.47,3.47,0,0,0-.51-.76,4.45,4.45,0,0,0-.8-.65q-.52-.34-.86-.53l-1-.5-.95-.45a2.07,2.07,0,0,0-.34-.21L214,87.58a14.31,14.31,0,0,1-1.21-.78,5.88,5.88,0,0,1-1.14-1,5.6,5.6,0,0,1-.74-1.19A4.45,4.45,0,0,1,210.49,83Z"/><path class="cls-1" d="M226.51,85.26l-1.81.15c-.14,0-.23-.24-.27-.75a.73.73,0,0,1,0-.27,8.35,8.35,0,0,0,2.16-1.75q.35-.42.77-.94t1-1.35a2.12,2.12,0,0,1,.57,0c.18,0,.27.08.28.14l.23,2.9,2.15-.16,1.47-.1c.16,0,.24.07.26.25a2.88,2.88,0,0,1-.19,1.33l-3.56.29.57,7.14a2.82,2.82,0,0,0,.65,1.77,1.7,1.7,0,0,0,1.44.51,2.84,2.84,0,0,0,.62-.12,3.16,3.16,0,0,0,.52-.21l.37-.21.2-.11c.08,0,.17.06.29.25s.16.31.15.38q-.14.43-1.18,1.06a4.68,4.68,0,0,1-2.07.72,3.75,3.75,0,0,1-2.7-.78,4,4,0,0,1-1.33-3Z"/><path class="cls-1" d="M241.52,82a3.65,3.65,0,0,1,2.83.74,4.76,4.76,0,0,1,1.18,3.23l.47,5.84a1.36,1.36,0,0,0,.34.88.89.89,0,0,0,.74.25,1.85,1.85,0,0,0,1-.47c.12,0,.19.13.2.31a1.77,1.77,0,0,1-.11.9,7.35,7.35,0,0,1-1.12.84,3.1,3.1,0,0,1-1.39.5,2.16,2.16,0,0,1-1.37-.4,2.43,2.43,0,0,1-.95-1l-.21.21c-.12.12-.29.27-.5.44a8.54,8.54,0,0,1-.73.54,4.71,4.71,0,0,1-1,.48,4.3,4.3,0,0,1-1.16.26,3.55,3.55,0,0,1-2.48-.62,2.83,2.83,0,0,1-1.11-2.16,2.75,2.75,0,0,1,.23-1.36,3.57,3.57,0,0,1,.73-1.09,6.11,6.11,0,0,1,1.21-.89,12.4,12.4,0,0,1,1.33-.69l1.44-.58,1.23-.49a.47.47,0,0,0,.23-.5l-.13-1.63a2.55,2.55,0,0,0-.6-1.59,1.55,1.55,0,0,0-1.32-.49,1.8,1.8,0,0,0-1.35.66,2.22,2.22,0,0,0-.38,1.6,1,1,0,0,1-.37.91,1.85,1.85,0,0,1-1,.36,1.68,1.68,0,0,1-1.6-.59q-.11-1.42,1.73-2.82A7.45,7.45,0,0,1,241.52,82Zm-.42,11.49a2.3,2.3,0,0,0,1.34-.53,1.18,1.18,0,0,0,.5-1l-.24-3q-.2.11-.85.37c-.43.17-.76.32-1,.44a8,8,0,0,0-.8.48,1.79,1.79,0,0,0-.64.71,1.64,1.64,0,0,0-.16.85,1.83,1.83,0,0,0,.59,1.35A1.71,1.71,0,0,0,241.1,93.45Z"/><path class="cls-1" d="M250.88,83.3l-1.81.15c-.14,0-.23-.24-.27-.75a.72.72,0,0,1,0-.27A8.35,8.35,0,0,0,251,80.67q.35-.42.77-.94t1-1.35a2.11,2.11,0,0,1,.57,0c.18,0,.27.08.28.14l.23,2.9L256,81.3l1.47-.1c.16,0,.24.07.26.25a2.87,2.87,0,0,1-.19,1.33l-3.56.29.57,7.14a2.82,2.82,0,0,0,.65,1.77,1.7,1.7,0,0,0,1.44.51,2.86,2.86,0,0,0,.62-.12,3.24,3.24,0,0,0,.52-.21l.37-.21.2-.11q.12,0,.29.25c.12.19.17.31.15.38q-.15.43-1.18,1.06a4.67,4.67,0,0,1-2.07.72,3.75,3.75,0,0,1-2.7-.78,4,4,0,0,1-1.33-3Z"/><path class="cls-1" d="M265.75,80a5.52,5.52,0,0,1,2.53.35,4.71,4.71,0,0,1,1.83,1.25,6.94,6.94,0,0,1,1.09,1.67,5.11,5.11,0,0,1,.46,1.71c0,.44,0,.71-.16.83a1.68,1.68,0,0,1-.89.24l-7.08.57c-.14,0-.2.08-.19.19a5.75,5.75,0,0,0,.55,2,4.08,4.08,0,0,0,1.46,1.64,3.49,3.49,0,0,0,2.3.56,7.91,7.91,0,0,0,.86-.11,4.47,4.47,0,0,0,.76-.21l.61-.24a2.56,2.56,0,0,0,.53-.31l.38-.28.56-.45a.47.47,0,0,1,.16.17.57.57,0,0,1,.11.29.91.91,0,0,1-.13.58,4.83,4.83,0,0,1-1.62,1.74,5.51,5.51,0,0,1-2.87,1,6,6,0,0,1-4.6-1.55,6.41,6.41,0,0,1-2.24-4.49,6.88,6.88,0,0,1,1.34-5A5.76,5.76,0,0,1,265.75,80Zm-.1,1.38a2.1,2.1,0,0,0-1.24.52,2.79,2.79,0,0,0-.78,1.08,5.72,5.72,0,0,0-.34,1.15,3.6,3.6,0,0,0-.06.89c0,.14.08.2.19.19l4.8-.39c.18,0,.25-.17.23-.47a3.84,3.84,0,0,0-.87-2A2.13,2.13,0,0,0,265.65,81.4Z"/><path class="cls-1" d="M277.72,79a12.64,12.64,0,0,1,3.48.23,16.78,16.78,0,0,1,.59,3.29c0,.16-.11.25-.37.27q-.65.05-.73-.18a3.62,3.62,0,0,0-1-1.69,2.32,2.32,0,0,0-1.85-.58,2.14,2.14,0,0,0-1.32.49,1.32,1.32,0,0,0-.4,1.14,1.72,1.72,0,0,0,.22.74,1.84,1.84,0,0,0,.58.59,7.42,7.42,0,0,0,.69.42q.3.16.88.41a1.91,1.91,0,0,0,.31.12l.46.2.51.23.5.24a5.23,5.23,0,0,1,.54.3l.49.32a2.37,2.37,0,0,1,.48.38l.39.43a1.88,1.88,0,0,1,.35.51,5.5,5.5,0,0,1,.21.55,2.78,2.78,0,0,1,.12.63,3.5,3.5,0,0,1-1.2,3.06,5.64,5.64,0,0,1-3.39,1.36,9.92,9.92,0,0,1-3.89-.52,12,12,0,0,1-.43-1.62,14.77,14.77,0,0,1-.29-1.69.63.63,0,0,1,.4-.18q.68-.05.73.18a3.28,3.28,0,0,0,1.33,1.91,3.16,3.16,0,0,0,2.09.59,2.16,2.16,0,0,0,1.33-.52,1.45,1.45,0,0,0,.44-1.26,1.92,1.92,0,0,0-.12-.54,1.44,1.44,0,0,0-.32-.48l-.37-.39a2.13,2.13,0,0,0-.57-.36l-.62-.29-.77-.33-.79-.34a6.9,6.9,0,0,1-2.23-1.42,3.43,3.43,0,0,1,.29-5A5.74,5.74,0,0,1,277.72,79Z"/></svg>