<?xml version="1.0" encoding="utf-8"?>
<!-- Generator: Adobe Illustrator 21.1.0, SVG Export Plug-In . SVG Version: 6.00 Build 0)  -->
<svg version="1.1" xmlns="http://www.w3.org/2000/svg" xmlns:xlink="http://www.w3.org/1999/xlink" x="0px" y="0px"
	 viewBox="0 0 729.6 267.5" style="enable-background:new 0 0 729.6 267.5;" xml:space="preserve">
<style type="text/css">
	.st0{fill:#F8EDF4;}
	.st1{fill:#FFFFFF;}
	.st2{fill:#FAEFE6;}
	.st3{fill:#1414EF;}
	.st4{fill:#FFFFFF;stroke:#1414EF;stroke-width:1.2;stroke-miterlimit:10;}
	.st5{fill:#EB7975;}
	.st6{fill:#606060;}
	.st7{fill:none;}
	.st8{fill:none;stroke:#1414EF;stroke-width:1.5;stroke-miterlimit:10;}
	.st9{fill:none;stroke:#1414EF;stroke-width:1.5;stroke-linejoin:bevel;stroke-miterlimit:10;}
	.st10{fill:#FFFFFF;stroke:#1414EF;stroke-width:1.2587;stroke-miterlimit:10;}
	.st11{fill:#FFFFFF;stroke:#1414EF;stroke-width:2;stroke-miterlimit:10;}
	.st12{fill:none;stroke:#1414EF;stroke-width:3.025;stroke-miterlimit:10;}
	.st13{fill:none;stroke:#1414EF;stroke-width:3.025;stroke-linejoin:bevel;stroke-miterlimit:10;}
	.st14{fill:none;stroke:#1414EF;stroke-width:15;stroke-miterlimit:10;}
	.st15{fill:#EB7975;stroke:#FAEFE6;stroke-width:1.4;stroke-miterlimit:10;}
</style>
<g id="Layer_1">
	<g>
		<g>
			<path class="st3" d="M19.3,6c1.1,0.9,1.6,2.3,1.6,4s-0.5,3.1-1.6,4c-1.1,0.9-2.6,1.4-4.5,1.4H12v6.1H8.9V4.6h6
				C16.7,4.6,18.2,5,19.3,6z M14.8,12.6c1,0,1.7-0.3,2.2-0.8c0.5-0.5,0.7-1.1,0.7-1.9S17.5,8.5,17,8c-0.5-0.5-1.2-0.8-2.2-0.8H12
				v5.4H14.8z"/>
			<path class="st3" d="M28.5,14.1c1,0,2.2,0.2,3.5,0.5v-1.2c0-0.9-0.2-1.5-0.5-2c-0.4-0.4-0.9-0.6-1.7-0.6s-1.4,0.2-1.9,0.5
				s-0.6,0.8-0.6,1.4h-3.4c0-1.4,0.5-2.5,1.5-3.1c1-0.6,2.4-1,4.3-1c2.6,0,4.3,0.9,5,2.7c0.3,0.6,0.4,1.4,0.4,2.2v8h-2.7l-0.2-1.7
				c-0.8,1.4-2.1,2.1-3.7,2.1c-1.6,0-2.9-0.4-3.8-1.2c-0.8-0.8-1.2-1.7-1.2-2.9c0-1.2,0.5-2.1,1.4-2.7S26.9,14.1,28.5,14.1z
				 M31.9,16.5c-1-0.3-2-0.4-2.9-0.4c-1.7,0-2.5,0.6-2.5,1.7c0,0.5,0.2,0.9,0.6,1.2c0.4,0.3,1,0.5,1.8,0.5c0.8,0,1.5-0.3,2.1-0.8
				C31.6,18.1,31.9,17.3,31.9,16.5z"/>
			<path class="st3" d="M42.8,11.3c0.8-1.8,1.9-2.7,3.4-2.7c0.3,0,0.7,0.1,1.1,0.2l-0.1,3.1c-0.5-0.1-1-0.2-1.4-0.2
				c-2,0-3.1,1.4-3.1,4.2v5.5h-3.1V8.8h3.1V11.3z"/>
			<path class="st3" d="M57.9,21.1c-1.1,0.5-2,0.7-2.7,0.7c-0.7,0-1.2-0.1-1.7-0.2c-0.5-0.2-0.9-0.4-1.3-0.7
				c-0.8-0.7-1.2-1.7-1.2-2.9v-7.1h-1.8V8.8H51V5.5h3.1v3.3h3.4v2.1h-3.4v7c0,1,0.5,1.6,1.5,1.6c0.5,0,1.2-0.1,1.9-0.4L57.9,21.1z"
				/>
			<path class="st3" d="M70.4,18.6H80v2.8H67.3v-2.9c0-2,0.7-3.5,2.2-4.4c0.5-0.3,1-0.6,1.7-0.8l3.5-1.3c0.8-0.3,1.3-0.7,1.7-1.1
				c0.4-0.4,0.5-1,0.5-1.7c0-0.7-0.2-1.2-0.7-1.7s-1.1-0.7-2-0.7c-0.9,0-1.6,0.2-2.1,0.6s-0.9,1-1,1.8h-3.4c0-1.6,0.7-2.9,1.9-3.9
				c1.1-0.8,2.6-1.3,4.5-1.3c1.8,0,3.2,0.5,4.3,1.4c1.2,1,1.7,2.2,1.7,3.6s-0.4,2.5-1.1,3.4s-1.8,1.5-3.3,2.1L72.3,16
				c-0.7,0.3-1.2,0.6-1.5,0.9c-0.3,0.3-0.5,0.7-0.5,1.2V18.6z"/>
			<path class="st4" d="M32.9,41.9l17.3,43.3c0.8,2.2,1.7,4.2,2.5,6c0.3,0.8,1.2,1.5,2.6,2c1.4,0.5,2.5,0.7,3.1,0.7
				c0.2,0,0.3,0.5,0.3,1.5c0,0.7-0.1,1.1-0.2,1.2c-6.6-0.3-10.1-0.5-10.4-0.5c-0.4,0-4,0.2-10.7,0.5c-0.2-0.2-0.3-0.7-0.3-1.5
				c0-0.8,0.1-1.2,0.3-1.2c0.7,0,1.6-0.2,2.7-0.5c1.2-0.3,1.8-0.7,2.1-1.2c0.2-0.3,0.2-0.7,0.2-1.1c0-1.1-0.5-3-1.6-5.7l-2.9-7.7
				c-0.2-0.2-0.4-0.3-0.6-0.3c-1.8-0.1-4.1-0.2-7.1-0.2c-3,0-6.1,0.1-9.4,0.2c-0.3,0-0.5,0.1-0.5,0.3l-3.1,7.7
				c-1,2.9-1.6,4.7-1.6,5.4s0.3,1.3,0.9,1.7c0.5,0.3,1.4,0.6,2.6,0.9c1.2,0.3,2.1,0.4,2.5,0.4c0.2,0.1,0.2,0.4,0.2,1.2
				c0,0.7-0.1,1.2-0.2,1.6c-0.3,0-1.6-0.1-3.9-0.2c-2.3-0.2-4.2-0.2-5.6-0.2c-1.4,0-3.1,0.1-5.1,0.2c-2,0.1-3.3,0.2-4.2,0.3
				c-0.2-0.2-0.3-0.6-0.3-1.2c0-1,0.1-1.5,0.2-1.5c0.7,0,1.7-0.2,3.2-0.7c1.5-0.5,2.4-1,2.8-1.6c1-1.7,2.1-3.8,3.1-6.4L27.4,48
				c1.3-3.3,2.3-5.3,3.1-5.9c0.4-0.4,0.9-0.6,1.4-0.6C32.3,41.5,32.6,41.6,32.9,41.9z M23,72.6c1.9,0.2,3.9,0.2,5.9,0.2
				c1.9,0,4.2-0.1,6.8-0.2l0.2-0.3l-6.3-16.5l-6.8,16.5C22.8,72.5,22.9,72.6,23,72.6z"/>
			<path class="st4" d="M87.3,84.6V53.4c0-3.3-0.2-5.6-0.6-6.8c-0.2-0.6-0.9-1.1-2.3-1.5c-1.4-0.4-2.5-0.6-3.3-0.6
				c-0.2,0-0.3-0.4-0.3-1.2c0-0.8,0.1-1.3,0.3-1.5c3.6,0.2,7.3,0.2,11,0.2c2.8,0,5.2,0,7.1,0c1.9,0,3.6,0,5,0c2,0,4,0.2,5.9,0.7
				c2,0.5,3.9,1.3,5.8,2.3c1.9,1,3.4,2.5,4.6,4.4c1.2,1.9,1.8,4.2,1.8,6.7c0,2-0.6,3.8-1.7,5.5c-1.2,1.7-2.2,2.9-3.3,3.6
				c-1,0.7-1.9,1.2-2.6,1.4c-0.4,0.2-0.6,0.3-0.3,0.5c2,0.3,4.3,1.8,6.8,4.3c2.5,2.6,3.8,5.7,3.8,9.5c0,4.7-1.9,8.5-5.7,11.3
				c-3.8,2.8-8.9,4.2-15.2,4.1l-11.7-0.1l-11,0.3c-0.2-0.2-0.2-0.6-0.2-1.3c0-0.9,0.1-1.4,0.2-1.4c0.7,0,1.8-0.2,3.1-0.5
				c1.4-0.4,2.2-0.8,2.4-1.3C87.1,91,87.3,88.5,87.3,84.6z M106.2,65.2c4-0.9,6-3.6,6-8.1c0-7.4-3.2-11.2-9.5-11.2
				c-2.6,0-4.4,0.1-5.3,0.4c-0.4,0.1-0.7,0.4-0.7,0.9l-0.2,7.9v9.7c0,0.6,1.7,0.8,5,0.8C103.6,65.7,105.1,65.5,106.2,65.2z
				 M114.8,81.9c0-3.5-1-6.4-2.9-8.7c-2-2.3-5.1-3.4-9.5-3.4c-1.6,0-3.3,0.1-5.1,0.4c-0.4,0.3-0.7,0.8-0.7,1.7v15.4
				c0,2.3,0.3,3.7,1,4.3c0.7,0.6,2.5,0.8,5.3,0.8c1.2,0,2.4-0.1,3.6-0.4c1.2-0.2,2.4-0.7,3.8-1.3c1.3-0.6,2.5-1.7,3.3-3.2
				C114.3,85.9,114.8,84,114.8,81.9z"/>
			<path class="st4" d="M153.5,59.9c3,0,5.3,0.9,6.8,2.7c0,4.7-1.3,7-4,7c-1,0-2.1-0.5-3.2-1.7c-1.2-1.1-2.3-1.7-3.6-1.7
				c-1.7,0-3,0.9-4,2.6c-1,1.7-1.4,3.5-1.4,5.4v10.3c0,3.4,0.2,5.8,0.6,7.4c0.1,0.4,0.8,0.8,2.2,1.2c1.3,0.4,2.3,0.6,2.8,0.6
				c0.2,0,0.3,0.4,0.3,1.2c0,0.8,0,1.3,0,1.6c-0.4-0.1-1.9-0.2-4.4-0.3s-4.4-0.2-5.6-0.2c-1.3,0-3.2,0.1-5.7,0.2
				c-2.5,0.2-4,0.3-4.4,0.3c-0.2-0.2-0.3-0.7-0.3-1.6s0.1-1.2,0.3-1.2c0.7,0,1.7-0.2,3-0.6c1.3-0.4,2.1-0.8,2.2-1.2
				c0.4-1.7,0.6-3.7,0.6-6V72.6c0-2.6-0.4-4.3-1.3-5.3c-0.4-0.5-1.1-1-1.9-1.2c-0.8-0.3-1.5-0.4-2-0.5c-0.5-0.1-0.8-0.1-0.8-0.2
				c0-1.6,0.1-2.4,0.4-2.5c2.5-0.2,7-1,13.3-2.5c0.4-0.1,0.6-0.2,0.7-0.2c0.2,0,0.4,0.2,0.6,0.6c0.2,0.4,0.2,0.7,0.2,1
				c0,0.2-0.1,0.6-0.1,1.2c-0.1,0.5-0.1,1.1-0.2,1.7c-0.1,0.6-0.1,1-0.1,1.1c1-1.5,2.3-2.8,4-4C150,60.5,151.8,59.9,153.5,59.9z"/>
			<path class="st4" d="M179.5,84.7c0,3.4,0.2,5.8,0.7,7.4c0.1,0.4,0.9,0.8,2.2,1.2c1.4,0.4,2.3,0.6,2.8,0.6c0.2,0,0.3,0.4,0.4,1.2
				c0,0.8,0,1.3-0.1,1.6c-0.4-0.1-1.9-0.2-4.4-0.3c-2.6-0.2-4.4-0.2-5.7-0.2c-1.4,0-3.3,0.1-5.8,0.2c-2.5,0.2-4,0.3-4.3,0.3
				c-0.2-0.2-0.3-0.7-0.3-1.6s0.1-1.2,0.3-1.2c0.6,0,1.6-0.2,3-0.6c1.4-0.4,2.1-0.8,2.2-1.2c0.4-1.7,0.6-3.7,0.6-6V72.6
				c0-2.6-0.4-4.3-1.3-5.3c-0.5-0.5-1.1-1-1.9-1.2c-0.8-0.3-1.4-0.4-2-0.5c-0.6-0.1-0.8-0.1-0.8-0.2c0-1.6,0.2-2.4,0.5-2.5
				c1.5-0.1,3.8-0.4,6.7-1c2.9-0.5,5.1-1,6.5-1.5c0.1,0,0.3-0.1,0.7-0.2c0.3,0,0.5,0.2,0.7,0.6c0.2,0.4,0.2,0.7,0.2,0.9
				c-0.4,3.5-0.7,5.9-0.7,7.1V84.7z M170.9,50.1c-1-1-1.5-2.2-1.5-3.6c0-1.4,0.5-2.6,1.5-3.6s2.2-1.5,3.6-1.5c1.4,0,2.6,0.5,3.6,1.5
				s1.5,2.2,1.5,3.6c0,1.4-0.5,2.6-1.5,3.6c-1,1-2.2,1.5-3.6,1.5C173.2,51.7,171.9,51.1,170.9,50.1z"/>
			<path class="st4" d="M206.6,59.9c2.6,0,4.9,0.5,6.9,1.5c2,1,3.6,2.3,4.8,3.9c1.2,1.6,2,3.2,2.6,4.9c0.6,1.7,0.9,3.3,0.9,4.8
				c0,1.2-0.2,2-0.6,2.3c-0.4,0.3-1.3,0.5-2.5,0.5H199c-0.4,0-0.6,0.2-0.6,0.5c0,2,0.4,3.9,1.1,5.8c0.7,1.9,1.9,3.5,3.7,4.9
				c1.7,1.4,3.8,2.1,6.2,2.1c0.8,0,1.6,0,2.4-0.1c0.8-0.1,1.5-0.2,2.1-0.4c0.7-0.2,1.2-0.4,1.7-0.5c0.5-0.2,1-0.4,1.5-0.7
				c0.5-0.3,0.9-0.6,1.1-0.7c0.2-0.1,0.8-0.5,1.7-1.1c0.1,0.1,0.2,0.2,0.4,0.5c0.2,0.3,0.2,0.6,0.2,0.8c0,0.6-0.2,1.1-0.5,1.6
				c-0.8,1.5-2.5,3-4.9,4.5c-2.4,1.5-5.2,2.2-8.2,2.2c-4.8,0-8.9-1.8-12.4-5.3c-3.5-3.6-5.2-7.9-5.2-12.9c0-5.6,1.6-10.1,4.8-13.5
				S201.6,59.9,206.6,59.9z M206,63.7c-1.3,0-2.5,0.4-3.6,1.2c-1,0.8-1.8,1.7-2.4,2.8c-0.6,1.1-1,2.1-1.2,3.1
				c-0.2,1-0.4,1.8-0.4,2.4c0,0.4,0.2,0.6,0.5,0.6h13.4c0.5,0,0.7-0.4,0.7-1.2c0-1.9-0.6-3.9-1.9-5.9
				C209.8,64.7,208.1,63.7,206,63.7z"/>
			<path class="st4" d="M249.2,39c2.3,0,4.2,0.3,5.7,0.9s2.5,1.3,3,2.1c0.2,1.7,0.1,3.2-0.5,4.6c-0.5,1.4-1.5,2-3,2
				c-0.9,0-1.8-0.5-2.5-1.4s-1.5-1.8-2.4-2.7c-0.8-0.9-1.8-1.4-2.9-1.4c-1.5,0-2.7,0.7-3.7,2.1c-1,1.4-1.7,3.2-2.1,5.2
				c-0.4,2-0.6,4.3-0.6,6.7V61c0,0.1,0.1,0.1,0.2,0.2c0.1,0.1,0.2,0.2,0.3,0.2h9.1c0.2,0,0.4,0,0.4,0.1c0.1,0.1,0.1,0.2,0.1,0.5
				c0,1.2-0.3,2.5-1,3.8h-8.6c-0.3,0-0.5,0.2-0.5,0.5v18.4c0,3.3,0.2,5.7,0.7,7.4c0.1,0.4,0.8,0.8,2.2,1.2c1.3,0.4,2.3,0.6,2.8,0.6
				c0.2,0,0.3,0.4,0.3,1.2c0,0.8,0,1.3-0.1,1.6c-0.3-0.1-1.8-0.2-4.3-0.3s-4.5-0.2-5.8-0.2c-1.3,0-3.2,0.1-5.6,0.2
				c-2.4,0.2-3.9,0.3-4.3,0.3c-0.2-0.2-0.3-0.5-0.3-0.9c-0.1-0.4-0.1-0.9,0-1.3c0.1-0.4,0.2-0.6,0.3-0.6c0.6,0,1.6-0.2,2.9-0.6
				c1.3-0.4,2-0.8,2.1-1.2c0.5-1.9,0.7-4.2,0.7-6.8v-19c0-0.4-0.2-0.6-0.5-0.6h-5c-0.1,0-0.2-0.2-0.2-0.5c0-0.6,0.4-1.4,1.2-2.4
				c0.8-1,1.7-1.5,2.6-1.5h1.3c0.3,0,0.5-0.2,0.5-0.5v-0.8c0-5.8,1.7-10.7,5.2-14.9C240.4,41.1,244.5,39,249.2,39z"/>
			<path class="st4" d="M325.1,94c0.2,0,0.3,0.5,0.3,1.6c0,0.4-0.1,0.8-0.2,1.2c-6.6-0.3-10.1-0.5-10.5-0.5c-1.1,0-2.3,0-3.5,0.1
				c-1.2,0.1-2.5,0.1-4,0.2c-1.5,0.1-2.6,0.2-3.5,0.2c-0.2-0.2-0.3-0.6-0.3-1.2c0-1,0.1-1.6,0.3-1.6c0.7,0,1.7-0.2,3.1-0.6
				c1.4-0.4,2.2-0.8,2.4-1.2c0.4-1.7,0.7-4,0.7-6.9V71l-0.2-0.3c-5.2-0.1-8.8-0.2-10.9-0.2c-7.6,0.1-11.4,0.2-11.4,0.4v13.8
				c0,3,0.2,5.5,0.7,7.4c0.1,0.4,0.9,0.8,2.3,1.2s2.4,0.6,2.9,0.6c0.2,0,0.3,0.5,0.3,1.6c0,0.4-0.1,0.8-0.2,1.2
				c-6.6-0.3-10.1-0.5-10.5-0.5c-1.1,0-2.3,0-3.5,0.1c-1.2,0.1-2.5,0.1-4,0.2c-1.5,0.1-2.6,0.2-3.5,0.2c-0.2-0.2-0.3-0.6-0.3-1.2
				c0-1,0.1-1.6,0.3-1.6c0.7,0,1.7-0.2,3.1-0.6c1.4-0.4,2.2-0.8,2.4-1.2c0.4-1.7,0.7-4,0.7-6.9V53.3c0-3.3-0.2-5.6-0.7-6.9
				c-0.2-0.4-1-0.9-2.3-1.3c-1.3-0.4-2.3-0.6-3-0.6c-0.2,0-0.3-0.4-0.3-1.2c0-0.9,0.1-1.4,0.2-1.5c0.3,0,1.8,0.1,4.6,0.2
				c2.8,0.2,4.9,0.2,6.4,0.2c0.4,0,4-0.2,10.6-0.5c0.2,0.5,0.2,0.9,0.2,1.3c0,0.9-0.1,1.4-0.3,1.4c-0.5,0-1.5,0.2-3,0.7
				c-1.5,0.4-2.3,0.9-2.4,1.2c-0.4,1.7-0.7,4.1-0.7,7.3v12.1l0.2,0.2c5.4,0.1,9.1,0.2,11.2,0.2c2.3,0,5.9-0.1,10.9-0.2
				c0.1-0.1,0.2-0.2,0.2-0.3V53.3c0-3.3-0.2-5.6-0.7-6.9c-0.2-0.4-1-0.9-2.3-1.3c-1.3-0.4-2.3-0.6-3-0.6c-0.2,0-0.3-0.4-0.3-1.2
				c0-0.9,0.1-1.4,0.2-1.5c0.3,0,1.8,0.1,4.6,0.2c2.8,0.2,4.9,0.2,6.4,0.2c0.4,0,4-0.2,10.6-0.5c0.2,0.5,0.2,0.9,0.2,1.3
				c0,0.9-0.1,1.4-0.3,1.4c-0.5,0-1.5,0.2-3,0.7c-1.5,0.4-2.3,0.9-2.4,1.2c-0.4,1.7-0.7,4.1-0.7,7.3v31.1c0,3,0.2,5.5,0.7,7.4
				c0.1,0.4,0.9,0.8,2.3,1.2S324.6,94,325.1,94z"/>
			<path class="st4" d="M344.9,84.7c0,3.4,0.2,5.8,0.7,7.4c0.1,0.4,0.9,0.8,2.2,1.2c1.4,0.4,2.3,0.6,2.8,0.6c0.2,0,0.3,0.4,0.4,1.2
				c0,0.8,0,1.3-0.1,1.6c-0.4-0.1-1.9-0.2-4.4-0.3c-2.6-0.2-4.4-0.2-5.7-0.2c-1.4,0-3.3,0.1-5.8,0.2c-2.5,0.2-4,0.3-4.3,0.3
				c-0.2-0.2-0.3-0.7-0.3-1.6s0.1-1.2,0.3-1.2c0.6,0,1.6-0.2,3-0.6c1.4-0.4,2.1-0.8,2.2-1.2c0.4-1.7,0.6-3.7,0.6-6V72.6
				c0-2.6-0.4-4.3-1.3-5.3c-0.5-0.5-1.1-1-1.9-1.2c-0.8-0.3-1.4-0.4-2-0.5c-0.6-0.1-0.8-0.1-0.8-0.2c0-1.6,0.2-2.4,0.5-2.5
				c1.5-0.1,3.8-0.4,6.7-1c2.9-0.5,5.1-1,6.5-1.5c0.1,0,0.3-0.1,0.7-0.2c0.3,0,0.5,0.2,0.7,0.6c0.2,0.4,0.2,0.7,0.2,0.9
				c-0.4,3.5-0.7,5.9-0.7,7.1V84.7z M336.3,50.1c-1-1-1.5-2.2-1.5-3.6c0-1.4,0.5-2.6,1.5-3.6s2.2-1.5,3.6-1.5c1.4,0,2.6,0.5,3.6,1.5
				s1.5,2.2,1.5,3.6c0,1.4-0.5,2.6-1.5,3.6c-1,1-2.2,1.5-3.6,1.5C338.5,51.7,337.3,51.1,336.3,50.1z"/>
			<path class="st4" d="M368.5,59.8c3.1,0,6.3,0.5,9.6,1.4c0.6,2.5,0.9,5.6,0.9,9.3c0,0.4-0.4,0.7-1.1,0.7c-1.2,0-1.9-0.2-2-0.7
				c-0.4-1.9-1.2-3.6-2.4-4.9c-1.2-1.3-2.9-2-5-2c-1.6,0-2.8,0.4-3.8,1.1c-0.9,0.7-1.4,1.7-1.4,3.1c0,0.8,0.2,1.5,0.5,2.1
				c0.3,0.6,0.8,1.2,1.5,1.8c0.7,0.6,1.3,1,1.8,1.3s1.3,0.8,2.4,1.3c0.4,0.2,0.7,0.4,0.8,0.4c0.1,0.1,0.5,0.3,1.2,0.7
				c0.7,0.4,1.2,0.6,1.4,0.7c0.2,0.1,0.6,0.4,1.3,0.8c0.7,0.4,1.2,0.7,1.4,1c0.3,0.2,0.7,0.6,1.3,1c0.6,0.4,1,0.8,1.2,1.2
				c0.2,0.3,0.6,0.8,1,1.3c0.4,0.5,0.7,1,0.9,1.5c0.2,0.5,0.3,1,0.5,1.6c0.1,0.6,0.2,1.2,0.2,1.8c0,3.5-1.3,6.2-4,8.2
				c-2.7,2-5.9,3-9.7,3c-3.4,0-7-0.8-10.7-2.3c-0.3-0.9-0.6-2.5-0.8-4.6c-0.3-2.1-0.4-3.7-0.4-4.8c0.3-0.3,0.7-0.4,1.2-0.4
				c1.3,0,1.9,0.2,2,0.7c0.4,2.3,1.5,4.2,3.3,5.6c1.7,1.4,3.6,2.1,5.7,2.1c1.5,0,2.8-0.4,3.8-1.2c1-0.8,1.5-1.9,1.5-3.4
				c0-0.5-0.1-1.1-0.2-1.5c-0.1-0.5-0.4-0.9-0.8-1.4c-0.4-0.5-0.7-0.9-1-1.2c-0.2-0.3-0.7-0.7-1.5-1.1c-0.7-0.4-1.3-0.8-1.7-1
				c-0.4-0.2-1-0.5-2.1-1.1c-1-0.5-1.7-0.9-2.1-1.1c-2.5-1.3-4.5-2.8-5.9-4.4c-1.4-1.6-2.1-3.6-2.1-5.9c0-3.4,1.3-5.9,4-7.8
				C361.9,60.7,365,59.8,368.5,59.8z"/>
			<path class="st4" d="M390,65.7h-5c-0.4,0-0.6-0.7-0.6-2.1c0-0.4,0-0.6,0.1-0.7c2.2-1,4.3-2.4,6.4-4.4c0.7-0.7,1.5-1.5,2.4-2.4
				c0.9-0.9,1.9-2.1,3-3.5c0.5,0,1.1,0.1,1.6,0.2c0.5,0.1,0.7,0.3,0.7,0.5v8.1c1.4,0,3.4,0,6,0c2.6,0,3.9,0,4.1,0
				c0.4,0,0.7,0.2,0.7,0.7c0,1.3-0.3,2.5-0.8,3.6h-9.9v19.9c0,2.2,0.5,3.9,1.4,5c0.9,1.2,2.2,1.7,3.9,1.7c0.5,0,1.1-0.1,1.7-0.2
				c0.6-0.1,1.1-0.3,1.5-0.5c0.4-0.2,0.7-0.3,1.1-0.5c0.3-0.2,0.5-0.2,0.6-0.2c0.2-0.1,0.5,0.2,0.7,0.7c0.3,0.6,0.4,0.9,0.3,1.1
				c-0.3,0.8-1.5,1.7-3.5,2.7c-2,1-4,1.5-5.9,1.5c-2.9,0-5.3-0.9-7.3-2.8c-2-1.8-3-4.7-3-8.6V65.7z"/>
			<path class="st4" d="M432.8,59.9c5.2,0,9.6,1.8,13.3,5.4c3.7,3.6,5.5,8,5.5,13.1s-1.8,9.5-5.4,13.1c-3.6,3.6-8,5.5-13.3,5.5
				s-9.7-1.8-13.3-5.5c-3.6-3.6-5.5-8-5.5-13.1c0-5.2,1.8-9.6,5.4-13.1C423.2,61.7,427.6,59.9,432.8,59.9z M431.8,63.8
				c-2.6,0-4.6,1.3-6,3.8c-1.4,2.5-2.1,5.5-2.1,9c0,4.5,0.9,8.3,2.7,11.6c1.8,3.3,4.3,5,7.5,5c2.6,0,4.6-1.3,6.1-3.8
				c1.5-2.5,2.2-5.5,2.2-8.9c0-2.9-0.4-5.5-1.1-8c-0.7-2.5-1.9-4.5-3.5-6.2C435.9,64.6,434,63.8,431.8,63.8z"/>
			<path class="st4" d="M480.3,59.9c3,0,5.3,0.9,6.8,2.7c0,4.7-1.3,7-4,7c-1,0-2.1-0.5-3.2-1.7c-1.2-1.1-2.3-1.7-3.6-1.7
				c-1.7,0-3,0.9-4,2.6c-1,1.7-1.4,3.5-1.4,5.4v10.3c0,3.4,0.2,5.8,0.6,7.4c0.1,0.4,0.8,0.8,2.2,1.2c1.3,0.4,2.3,0.6,2.8,0.6
				c0.2,0,0.3,0.4,0.3,1.2c0,0.8,0,1.3,0,1.6c-0.4-0.1-1.9-0.2-4.4-0.3s-4.4-0.2-5.6-0.2c-1.3,0-3.2,0.1-5.7,0.2
				c-2.5,0.2-4,0.3-4.4,0.3c-0.2-0.2-0.3-0.7-0.3-1.6s0.1-1.2,0.3-1.2c0.7,0,1.7-0.2,3-0.6c1.3-0.4,2.1-0.8,2.2-1.2
				c0.4-1.7,0.6-3.7,0.6-6V72.6c0-2.6-0.4-4.3-1.3-5.3c-0.4-0.5-1.1-1-1.9-1.2c-0.8-0.3-1.5-0.4-2-0.5c-0.5-0.1-0.8-0.1-0.8-0.2
				c0-1.6,0.1-2.4,0.4-2.5c2.5-0.2,7-1,13.3-2.5c0.4-0.1,0.6-0.2,0.7-0.2c0.2,0,0.4,0.2,0.6,0.6c0.2,0.4,0.2,0.7,0.2,1
				c0,0.2-0.1,0.6-0.1,1.2c-0.1,0.5-0.1,1.1-0.2,1.7c-0.1,0.6-0.1,1-0.1,1.1c1-1.5,2.3-2.8,4-4C476.8,60.5,478.5,59.9,480.3,59.9z"
				/>
			<path class="st4" d="M500.4,60.7c1.2,0,2.9-0.1,5.2-0.2c2.3-0.2,3.7-0.2,4.2-0.2c0.1,0.4,0.2,0.9,0.2,1.5c0,0.8-0.1,1.2-0.3,1.2
				c-0.6,0-1.4,0.2-2.6,0.6c-1.2,0.4-1.8,0.9-1.9,1.4v0.5c0.1,0.9,2.7,7.2,7.7,18.8c0.4-1,1.5-3.7,3.2-8.1c1.7-4.4,2.7-7,3-7.6
				c0.3-0.9,0.5-1.8,0.5-2.6c0-0.7-0.4-1.4-1.3-2c-0.9-0.6-2.2-1-4-1c-0.2,0-0.3-0.4-0.3-1.2c0-0.7,0.1-1.2,0.3-1.4
				c0.7,0,2,0.1,4,0.2c2,0.2,3.7,0.2,5,0.2c1.2,0,2.6-0.1,4.3-0.2c1.7-0.2,2.9-0.2,3.7-0.2c0.2,0.3,0.3,0.8,0.3,1.3
				c0,0.9-0.1,1.3-0.3,1.3c-0.8,0-1.9,0.3-3.3,0.8c-1.5,0.6-2.4,1.4-2.9,2.5L510,102.7c-3.4,8-7.5,12.1-12.3,12.1
				c-1.4,0-2.5-0.4-3.3-1.2c-0.8-0.8-1.2-1.7-1.2-2.6c0-1.4,0.5-2.5,1.6-3.2c5.7,0,9.5-2.3,11.3-6.8c1.3-3.3,2.1-5.2,2.2-5.6
				l-12.1-28.1c-0.4-1-0.8-1.6-1-1.9c-0.6-0.8-1.4-1.4-2.4-1.9c-1.1-0.4-2-0.6-2.7-0.6c-0.2,0-0.3-0.4-0.3-1.2
				c0-0.9,0.1-1.4,0.2-1.5c0.3,0,1.8,0.1,4.4,0.2C497.1,60.7,499.1,60.7,500.4,60.7z"/>
			<path class="st4" d="M25.9,134.9c5.2,0,9.6,1.8,13.3,5.4c3.7,3.6,5.5,8,5.5,13.1s-1.8,9.5-5.4,13.1c-3.6,3.6-8,5.5-13.3,5.5
				s-9.7-1.8-13.3-5.5c-3.6-3.6-5.5-8-5.5-13.1c0-5.2,1.8-9.6,5.4-13.1C16.2,136.7,20.7,134.9,25.9,134.9z M24.8,138.8
				c-2.6,0-4.6,1.3-6,3.8c-1.4,2.5-2.1,5.5-2.1,9c0,4.5,0.9,8.3,2.7,11.6c1.8,3.3,4.3,5,7.5,5c2.6,0,4.6-1.3,6.1-3.8
				c1.5-2.5,2.2-5.5,2.2-8.9c0-2.9-0.4-5.5-1.1-8c-0.7-2.5-1.9-4.5-3.5-6.2C28.9,139.6,27,138.8,24.8,138.8z"/>
			<path class="st4" d="M72.7,114c2.3,0,4.2,0.3,5.7,0.9s2.5,1.3,3,2.1c0.2,1.7,0.1,3.2-0.5,4.6c-0.5,1.4-1.5,2-3,2
				c-0.9,0-1.8-0.5-2.5-1.4s-1.5-1.8-2.4-2.7c-0.8-0.9-1.8-1.4-2.9-1.4c-1.5,0-2.7,0.7-3.7,2.1c-1,1.4-1.7,3.2-2.1,5.2
				c-0.4,2-0.6,4.3-0.6,6.7v3.8c0,0.1,0.1,0.1,0.2,0.2c0.1,0.1,0.2,0.2,0.3,0.2h9.1c0.2,0,0.4,0,0.4,0.1c0.1,0.1,0.1,0.2,0.1,0.5
				c0,1.2-0.3,2.5-1,3.8h-8.6c-0.3,0-0.5,0.2-0.5,0.5v18.4c0,3.3,0.2,5.7,0.7,7.4c0.1,0.4,0.8,0.8,2.2,1.2c1.3,0.4,2.3,0.6,2.8,0.6
				c0.2,0,0.3,0.4,0.3,1.2c0,0.8,0,1.3-0.1,1.6c-0.3-0.1-1.8-0.2-4.3-0.3s-4.5-0.2-5.8-0.2c-1.3,0-3.2,0.1-5.6,0.2
				c-2.4,0.2-3.9,0.3-4.3,0.3c-0.2-0.2-0.3-0.5-0.3-0.9c-0.1-0.4-0.1-0.9,0-1.3c0.1-0.4,0.2-0.6,0.3-0.6c0.6,0,1.6-0.2,2.9-0.6
				c1.3-0.4,2-0.8,2.1-1.2c0.5-1.9,0.7-4.2,0.7-6.8v-19c0-0.4-0.2-0.6-0.5-0.6h-5c-0.1,0-0.2-0.2-0.2-0.5c0-0.6,0.4-1.4,1.2-2.4
				c0.8-1,1.7-1.5,2.6-1.5h1.3c0.3,0,0.5-0.2,0.5-0.5v-0.8c0-5.8,1.7-10.7,5.2-14.9C63.9,116.1,68,114,72.7,114z"/>
			<path class="st4" d="M143.6,156.4c0,0.7-0.4,2.9-1.2,6.4c-0.8,3.6-1.5,5.4-1.9,5.7c-4.8,2.3-11.2,3.5-19.2,3.5
				c-7.3,0-13.5-2.7-18.6-8c-5.1-5.3-7.7-11.7-7.7-19.1c0-7.8,2.6-14.5,7.8-20.1c5.2-5.6,11.7-8.4,19.3-8.4c6.2,0,12.7,0.7,19.5,2.2
				c0.2,0.1,0.3,1.9,0.5,5.4c0.2,3.6,0.2,5.8,0.2,6.7c0,0.8-0.7,1.2-2,1.2c-0.3,0-0.7-0.1-1.2-0.3c-0.2-1-0.6-2-1.2-3.1
				c-0.6-1-1.4-2.2-2.6-3.6c-1.2-1.3-2.9-2.4-5.1-3.3c-2.3-0.9-4.9-1.3-7.8-1.3c-5.4,0-9.6,2.2-12.6,6.7c-3,4.5-4.5,9.8-4.5,16
				c0,6.9,1.7,12.8,5.1,17.6c3.4,4.8,8.2,7.2,14.3,7.2c4.9,0,8.8-1.5,11.6-4.6c0.7-0.8,1.4-1.8,1.9-3.1c0.6-1.3,1-2.4,1.3-3.3
				c0.3-0.9,0.5-1.3,0.6-1.3C142.3,155.7,143.4,155.9,143.6,156.4z"/>
			<path class="st4" d="M162.7,159.7c0,3.4,0.2,5.8,0.7,7.4c0.1,0.4,0.9,0.8,2.2,1.2c1.4,0.4,2.3,0.6,2.8,0.6c0.2,0,0.3,0.4,0.4,1.2
				c0,0.8,0,1.3-0.1,1.6c-0.4-0.1-1.9-0.2-4.4-0.3c-2.6-0.2-4.4-0.2-5.7-0.2c-1.4,0-3.3,0.1-5.8,0.2c-2.5,0.2-4,0.3-4.3,0.3
				c-0.2-0.2-0.3-0.7-0.3-1.6s0.1-1.2,0.3-1.2c0.6,0,1.6-0.2,3-0.6c1.4-0.4,2.1-0.8,2.2-1.2c0.4-1.7,0.6-3.7,0.6-6v-13.5
				c0-2.6-0.4-4.3-1.3-5.3c-0.5-0.5-1.1-1-1.9-1.2c-0.8-0.3-1.4-0.4-2-0.5c-0.6-0.1-0.8-0.1-0.8-0.2c0-1.6,0.2-2.4,0.5-2.5
				c1.5-0.1,3.8-0.4,6.7-1c2.9-0.5,5.1-1,6.5-1.5c0.1,0,0.3-0.1,0.7-0.2c0.3,0,0.5,0.2,0.7,0.6c0.2,0.4,0.2,0.7,0.2,0.9
				c-0.4,3.5-0.7,5.9-0.7,7.1V159.7z M154.1,125.1c-1-1-1.5-2.2-1.5-3.6c0-1.4,0.5-2.6,1.5-3.6s2.2-1.5,3.6-1.5
				c1.4,0,2.6,0.5,3.6,1.5s1.5,2.2,1.5,3.6c0,1.4-0.5,2.6-1.5,3.6c-1,1-2.2,1.5-3.6,1.5C156.3,126.7,155.1,126.1,154.1,125.1z"/>
			<path class="st4" d="M177.6,140.7h-5c-0.4,0-0.6-0.7-0.6-2.1c0-0.4,0-0.6,0.1-0.7c2.2-1,4.3-2.4,6.4-4.4c0.7-0.7,1.5-1.5,2.4-2.4
				c0.9-0.9,1.9-2.1,3-3.5c0.5,0,1.1,0.1,1.6,0.2c0.5,0.1,0.7,0.3,0.7,0.5v8.1c1.4,0,3.4,0,6,0c2.6,0,3.9,0,4.1,0
				c0.4,0,0.7,0.2,0.7,0.7c0,1.3-0.3,2.5-0.8,3.6h-9.9v19.9c0,2.2,0.5,3.9,1.4,5c0.9,1.2,2.2,1.7,3.9,1.7c0.5,0,1.1-0.1,1.7-0.2
				c0.6-0.1,1.1-0.3,1.5-0.5c0.4-0.2,0.7-0.3,1.1-0.5c0.3-0.2,0.5-0.2,0.6-0.2c0.2-0.1,0.5,0.2,0.7,0.7c0.3,0.6,0.4,0.9,0.3,1.1
				c-0.3,0.8-1.5,1.7-3.5,2.7c-2,1-4,1.5-5.9,1.5c-2.9,0-5.3-0.9-7.3-2.8c-2-1.8-3-4.7-3-8.6V140.7z"/>
			<path class="st4" d="M216.4,159.7c0,3.4,0.2,5.8,0.7,7.4c0.1,0.4,0.9,0.8,2.2,1.2c1.4,0.4,2.3,0.6,2.8,0.6c0.2,0,0.3,0.4,0.4,1.2
				c0,0.8,0,1.3-0.1,1.6c-0.4-0.1-1.9-0.2-4.4-0.3c-2.6-0.2-4.4-0.2-5.7-0.2c-1.4,0-3.3,0.1-5.8,0.2c-2.5,0.2-4,0.3-4.3,0.3
				c-0.2-0.2-0.3-0.7-0.3-1.6s0.1-1.2,0.3-1.2c0.6,0,1.6-0.2,3-0.6c1.4-0.4,2.1-0.8,2.2-1.2c0.4-1.7,0.6-3.7,0.6-6v-13.5
				c0-2.6-0.4-4.3-1.3-5.3c-0.5-0.5-1.1-1-1.9-1.2c-0.8-0.3-1.4-0.4-2-0.5c-0.6-0.1-0.8-0.1-0.8-0.2c0-1.6,0.2-2.4,0.5-2.5
				c1.5-0.1,3.8-0.4,6.7-1c2.9-0.5,5.1-1,6.5-1.5c0.1,0,0.3-0.1,0.7-0.2c0.3,0,0.5,0.2,0.7,0.6c0.2,0.4,0.2,0.7,0.2,0.9
				c-0.4,3.5-0.7,5.9-0.7,7.1V159.7z M207.8,125.1c-1-1-1.5-2.2-1.5-3.6c0-1.4,0.5-2.6,1.5-3.6s2.2-1.5,3.6-1.5
				c1.4,0,2.6,0.5,3.6,1.5s1.5,2.2,1.5,3.6c0,1.4-0.5,2.6-1.5,3.6c-1,1-2.2,1.5-3.6,1.5C210,126.7,208.8,126.1,207.8,125.1z"/>
			<path class="st4" d="M237.3,167c0,0.2,0.1,0.3,0.4,0.4c0.3,0.1,0.5,0.2,0.6,0.2h8c4.1,0,6.8-2.1,8.3-6.4c0.2-0.5,0.6-0.8,1.4-0.8
				c0.8,0,1.3,0.2,1.6,0.7l-1.5,10.5h-28.1c-1.1-0.7-1.7-1.3-1.7-1.9c0-0.2,0-0.3,0.1-0.3l19.1-28.8l-8.8-0.2
				c-0.6,0-1.1,0.1-1.6,0.2c-0.5,0.1-0.9,0.3-1.3,0.5c-0.4,0.2-0.8,0.5-1.1,0.8c-0.4,0.3-0.6,0.6-0.8,0.9c-0.2,0.3-0.4,0.6-0.7,1
				s-0.4,0.7-0.5,1c-0.1,0.2-0.2,0.5-0.4,0.9c-0.2,0.4-0.2,0.6-0.2,0.7c-0.2,0.3-0.9,0.5-2.1,0.5c-0.6,0-0.9-0.1-0.9-0.2
				c0-0.3,0.2-1.7,0.6-4.3c0.4-2.6,0.6-4.7,0.7-6.3c3.2,0.3,5.9,0.5,7.8,0.5h10.1c3.3,0,6.8-0.2,10.4-0.7c0.1,0.3,0.2,0.9,0.2,2
				l-19,28.1C237.5,166.4,237.3,166.8,237.3,167z"/>
			<path class="st4" d="M279,134.9c2.6,0,4.9,0.5,6.9,1.5c2,1,3.6,2.3,4.8,3.9c1.2,1.6,2,3.2,2.6,4.9c0.6,1.7,0.9,3.3,0.9,4.8
				c0,1.2-0.2,2-0.6,2.3c-0.4,0.3-1.3,0.5-2.5,0.5h-19.7c-0.4,0-0.6,0.2-0.6,0.5c0,2,0.4,3.9,1.1,5.8c0.7,1.9,1.9,3.5,3.7,4.9
				c1.7,1.4,3.8,2.1,6.2,2.1c0.8,0,1.6,0,2.4-0.1c0.8-0.1,1.5-0.2,2.1-0.4c0.7-0.2,1.2-0.4,1.7-0.5c0.5-0.2,1-0.4,1.5-0.7
				c0.5-0.3,0.9-0.6,1.1-0.7c0.2-0.1,0.8-0.5,1.7-1.1c0.1,0.1,0.2,0.2,0.4,0.5c0.2,0.3,0.2,0.6,0.2,0.8c0,0.6-0.2,1.1-0.5,1.6
				c-0.8,1.5-2.5,3-4.9,4.5c-2.4,1.5-5.2,2.2-8.2,2.2c-4.8,0-8.9-1.8-12.4-5.3c-3.5-3.6-5.2-7.9-5.2-12.9c0-5.6,1.6-10.1,4.8-13.5
				S274.1,134.9,279,134.9z M278.4,138.7c-1.3,0-2.5,0.4-3.6,1.2c-1,0.8-1.8,1.7-2.4,2.8c-0.6,1.1-1,2.1-1.2,3.1
				c-0.2,1-0.4,1.8-0.4,2.4c0,0.4,0.2,0.6,0.5,0.6h13.4c0.5,0,0.7-0.4,0.7-1.2c0-1.9-0.6-3.9-1.9-5.9
				C282.3,139.7,280.6,138.7,278.4,138.7z"/>
			<path class="st4" d="M325.1,134.9c7.1,0,10.7,5.6,10.7,16.9v7.8c0,3.4,0.2,5.8,0.6,7.4c0.1,0.4,0.9,0.8,2.3,1.2
				c1.4,0.4,2.4,0.6,2.8,0.6c0.2,0,0.3,0.4,0.3,1.2c0,0.8,0,1.3-0.1,1.6c-0.3-0.1-1.8-0.2-4.3-0.3s-4.5-0.2-5.7-0.2
				c-1.3,0-3.2,0.1-5.5,0.2c-2.3,0.2-3.8,0.3-4.3,0.3c-0.2-0.2-0.3-0.7-0.3-1.6s0.1-1.2,0.3-1.2c0.6,0,1.5-0.2,2.8-0.6
				s1.9-0.8,2-1.2c0.4-1.7,0.7-3.7,0.7-6v-7.8c0-4.6-0.6-7.8-1.9-9.6s-3.2-2.7-5.9-2.7c-1.8,0-3.3,0.5-4.6,1.4c-1.3,1-2,2-2,3.1
				v14.2c0,3.4,0.2,5.8,0.6,7.4c0.1,0.4,0.8,0.8,2.2,1.2c1.3,0.4,2.2,0.6,2.7,0.6c0.2,0,0.3,0.4,0.4,1.2c0,0.8,0,1.3-0.1,1.6
				c-0.4-0.1-1.9-0.2-4.3-0.3c-2.5-0.2-4.3-0.2-5.6-0.2c-1.3,0-3.2,0.1-5.7,0.2c-2.5,0.2-4,0.3-4.4,0.3c-0.2-0.2-0.3-0.7-0.3-1.6
				s0.1-1.2,0.3-1.2c0.7,0,1.7-0.2,3-0.6c1.3-0.4,2.1-0.8,2.2-1.2c0.4-1.7,0.6-3.7,0.6-6v-13.5c0-2.6-0.4-4.3-1.3-5.3
				c-0.4-0.5-1.1-1-1.9-1.2c-0.8-0.3-1.5-0.4-2-0.5c-0.5-0.1-0.8-0.1-0.8-0.2c0-1.6,0.1-2.4,0.4-2.5c2.5-0.2,7-1,13.3-2.5
				c0.1-0.1,0.1-0.1,0.2-0.1c0.1,0,0.2,0,0.2,0c0.1,0,0.2,0,0.2,0c0.2,0,0.4,0.2,0.6,0.6c0.2,0.4,0.2,0.7,0.2,0.9
				c-0.2,1.5-0.3,2.5-0.3,3c0,0.2,0,0.4,0.1,0.4c0.1,0,0.2-0.1,0.4-0.2c1.3-1.3,3-2.5,5.1-3.5C320.9,135.4,323,134.9,325.1,134.9z"
				/>
			<path class="st4" d="M359.8,134.8c3.1,0,6.3,0.5,9.6,1.4c0.6,2.5,0.9,5.6,0.9,9.3c0,0.4-0.4,0.7-1.1,0.7c-1.2,0-1.9-0.2-2-0.7
				c-0.4-1.9-1.2-3.6-2.4-4.9c-1.2-1.3-2.9-2-5-2c-1.6,0-2.8,0.4-3.8,1.1c-0.9,0.7-1.4,1.7-1.4,3.1c0,0.8,0.2,1.5,0.5,2.1
				c0.3,0.6,0.8,1.2,1.5,1.8c0.7,0.6,1.3,1,1.8,1.3s1.3,0.8,2.4,1.3c0.4,0.2,0.7,0.4,0.8,0.4c0.1,0.1,0.5,0.3,1.2,0.7
				c0.7,0.4,1.2,0.6,1.4,0.7c0.2,0.1,0.6,0.4,1.3,0.8c0.7,0.4,1.2,0.7,1.4,1c0.3,0.2,0.7,0.6,1.3,1c0.6,0.4,1,0.8,1.2,1.2
				c0.2,0.3,0.6,0.8,1,1.3c0.4,0.5,0.7,1,0.9,1.5c0.2,0.5,0.3,1,0.5,1.6c0.1,0.6,0.2,1.2,0.2,1.8c0,3.5-1.3,6.2-4,8.2
				c-2.7,2-5.9,3-9.7,3c-3.4,0-7-0.8-10.7-2.3c-0.3-0.9-0.6-2.5-0.8-4.6c-0.3-2.1-0.4-3.7-0.4-4.8c0.3-0.3,0.7-0.4,1.2-0.4
				c1.3,0,1.9,0.2,2,0.7c0.4,2.3,1.5,4.2,3.3,5.6c1.7,1.4,3.6,2.1,5.7,2.1c1.5,0,2.8-0.4,3.8-1.2c1-0.8,1.5-1.9,1.5-3.4
				c0-0.5-0.1-1.1-0.2-1.5c-0.1-0.5-0.4-0.9-0.8-1.4c-0.4-0.5-0.7-0.9-1-1.2c-0.2-0.3-0.7-0.7-1.5-1.1c-0.7-0.4-1.3-0.8-1.7-1
				c-0.4-0.2-1-0.5-2.1-1.1c-1-0.5-1.7-0.9-2.1-1.1c-2.5-1.3-4.5-2.8-5.9-4.4c-1.4-1.6-2.1-3.6-2.1-5.9c0-3.4,1.3-5.9,4-7.8
				C353.2,135.7,356.3,134.8,359.8,134.8z"/>
			<path class="st4" d="M403.6,134.9c7,0,10.6,5.4,10.6,16.3v8.5c0,3.4,0.2,5.8,0.7,7.4c0.1,0.4,0.8,0.8,2.2,1.2s2.4,0.6,2.8,0.6
				c0.2,0,0.3,0.4,0.3,1.2c0,0.8,0,1.3,0,1.6c-0.4-0.1-1.9-0.2-4.4-0.3c-2.6-0.2-4.4-0.2-5.7-0.2c-1.4,0-3.2,0.1-5.6,0.2
				s-3.8,0.3-4.3,0.3c-0.2-0.2-0.2-0.7-0.2-1.6s0.1-1.2,0.2-1.2c0.7,0,1.6-0.2,2.9-0.6s1.9-0.8,2.1-1.2c0.3-1.7,0.5-3.7,0.5-6V153
				c0-4.6-0.6-7.7-1.9-9.5c-1.2-1.7-3.2-2.6-5.9-2.6c-1.7,0-3.2,0.5-4.5,1.4c-1.4,0.9-2.1,2-2.1,3.1v14.2c0,3.4,0.2,5.8,0.7,7.4
				c0.1,0.4,0.8,0.8,2.2,1.2c1.3,0.4,2.3,0.6,2.8,0.6c0.2,0,0.3,0.4,0.3,1.2c0,0.8,0,1.3-0.1,1.6c-0.4-0.1-1.9-0.2-4.3-0.3
				c-2.5-0.2-4.3-0.2-5.6-0.2c-1.3,0-3.2,0.1-5.7,0.2c-2.5,0.2-4,0.3-4.4,0.3c-0.2-0.2-0.3-0.7-0.3-1.6s0.1-1.2,0.3-1.2
				c0.7,0,1.7-0.2,3-0.6s2.1-0.8,2.2-1.2c0.4-1.7,0.6-3.6,0.6-5.9v-34.4c0-2.2-0.1-4.1-0.4-5.6c-0.3-0.9-1.7-1.3-4.3-1.3h-0.7
				c-0.3,0-0.5-0.4-0.5-1.3c0-0.9,0.2-1.3,0.5-1.3c1.7-0.2,3.3-0.4,4.9-0.7c1.5-0.3,2.8-0.5,3.8-0.8c1-0.3,1.9-0.5,2.6-0.8
				c0.7-0.3,1.5-0.5,2.4-0.8h0.2c0.2,0,0.4,0.2,0.7,0.5c0.2,0.3,0.4,0.6,0.4,0.9c-0.7,2.1-1,4.7-1,7.8v16.7c0,0.3,0.1,0.5,0.3,0.5
				c0.1,0,0.2-0.1,0.3-0.2c1.2-1.3,2.9-2.5,5.1-3.6S401.4,134.9,403.6,134.9z"/>
			<path class="st4" d="M439,159.7c0,3.4,0.2,5.8,0.7,7.4c0.1,0.4,0.9,0.8,2.2,1.2c1.4,0.4,2.3,0.6,2.8,0.6c0.2,0,0.3,0.4,0.4,1.2
				c0,0.8,0,1.3-0.1,1.6c-0.4-0.1-1.9-0.2-4.4-0.3c-2.6-0.2-4.4-0.2-5.7-0.2c-1.4,0-3.3,0.1-5.8,0.2c-2.5,0.2-4,0.3-4.3,0.3
				c-0.2-0.2-0.3-0.7-0.3-1.6s0.1-1.2,0.3-1.2c0.6,0,1.6-0.2,3-0.6c1.4-0.4,2.1-0.8,2.2-1.2c0.4-1.7,0.6-3.7,0.6-6v-13.5
				c0-2.6-0.4-4.3-1.3-5.3c-0.5-0.5-1.1-1-1.9-1.2c-0.8-0.3-1.4-0.4-2-0.5c-0.6-0.1-0.8-0.1-0.8-0.2c0-1.6,0.2-2.4,0.5-2.5
				c1.5-0.1,3.8-0.4,6.7-1c2.9-0.5,5.1-1,6.5-1.5c0.1,0,0.3-0.1,0.7-0.2c0.3,0,0.5,0.2,0.7,0.6c0.2,0.4,0.2,0.7,0.2,0.9
				c-0.4,3.5-0.7,5.9-0.7,7.1V159.7z M430.5,125.1c-1-1-1.5-2.2-1.5-3.6c0-1.4,0.5-2.6,1.5-3.6s2.2-1.5,3.6-1.5
				c1.4,0,2.6,0.5,3.6,1.5s1.5,2.2,1.5,3.6c0,1.4-0.5,2.6-1.5,3.6c-1,1-2.2,1.5-3.6,1.5C432.7,126.7,431.4,126.1,430.5,125.1z"/>
			<path class="st4" d="M471.7,135c3.5,0,6.7,0.9,9.4,2.7c2.8,1.8,4.8,4,6.1,6.6c1.3,2.6,2,5.3,2,8.1c0,5.7-1.9,10.4-5.7,14.1
				c-3.8,3.7-8.4,5.6-13.7,5.6c-1.6,0-3.6-0.4-5.9-1.2c-0.2,0-0.3,0.4-0.3,1.2v5.6c0,3.4,0.2,5.9,0.7,7.4c0.1,0.4,0.8,0.9,2.2,1.3
				s2.4,0.6,2.9,0.6c0.2,0,0.3,0.4,0.3,1.2c0,0.8,0,1.3,0,1.5c-0.4,0-1.9-0.1-4.4-0.2c-2.6-0.2-4.4-0.2-5.7-0.2
				c-1.4,0-3.3,0.1-5.8,0.2c-2.5,0.2-4,0.2-4.4,0.2c-0.2-0.2-0.2-0.7-0.2-1.5c0-0.8,0.1-1.2,0.2-1.2c0.7,0,1.7-0.2,3-0.6
				s2.1-0.8,2.3-1.3c0.3-1.6,0.5-3.6,0.5-5.9v-31.6c0-2.6-0.4-4.4-1.3-5.4c-0.4-0.6-1-1-1.8-1.2c-0.8-0.2-1.4-0.4-2-0.5
				s-0.8-0.1-0.8-0.2c0-1.6,0.2-2.4,0.5-2.5c4.6-0.4,8.7-1.2,12.3-2.3c1-0.3,1.5-0.4,1.6-0.4c0.2,0,0.3,0.6,0.3,1.7
				c0,0.2-0.1,0.6-0.2,1c0.9-0.7,2.1-1.3,3.7-1.9C468.8,135.3,470.3,135,471.7,135z M469.7,139.4c-1.8,0-3.3,0.5-4.4,1.6
				c-1.1,1-1.7,2.5-1.7,4.2v17c0,1.8,0.7,3.3,2.2,4.3c1.5,1.1,3.1,1.6,4.8,1.6c2.5,0,4.7-1.2,6.4-3.5c1.7-2.3,2.6-5.6,2.6-9.7
				c0-4.5-0.9-8.2-2.6-11.1C475.2,140.9,472.8,139.4,469.7,139.4z"/>
			<path class="st4" d="M525.7,159.7c0,3.4,0.2,5.8,0.7,7.4c0.1,0.4,0.9,0.8,2.2,1.2c1.4,0.4,2.3,0.6,2.8,0.6c0.2,0,0.3,0.4,0.4,1.2
				c0,0.8,0,1.3-0.1,1.6c-0.4-0.1-1.9-0.2-4.4-0.3c-2.6-0.2-4.4-0.2-5.7-0.2c-1.4,0-3.3,0.1-5.8,0.2c-2.5,0.2-4,0.3-4.3,0.3
				c-0.2-0.2-0.3-0.7-0.3-1.6s0.1-1.2,0.3-1.2c0.6,0,1.6-0.2,3-0.6c1.4-0.4,2.1-0.8,2.2-1.2c0.4-1.7,0.6-3.7,0.6-6v-13.5
				c0-2.6-0.4-4.3-1.3-5.3c-0.5-0.5-1.1-1-1.9-1.2c-0.8-0.3-1.4-0.4-2-0.5c-0.6-0.1-0.8-0.1-0.8-0.2c0-1.6,0.2-2.4,0.5-2.5
				c1.5-0.1,3.8-0.4,6.7-1c2.9-0.5,5.1-1,6.5-1.5c0.1,0,0.3-0.1,0.7-0.2c0.3,0,0.5,0.2,0.7,0.6c0.2,0.4,0.2,0.7,0.2,0.9
				c-0.4,3.5-0.7,5.9-0.7,7.1V159.7z M517.1,125.1c-1-1-1.5-2.2-1.5-3.6c0-1.4,0.5-2.6,1.5-3.6s2.2-1.5,3.6-1.5
				c1.4,0,2.6,0.5,3.6,1.5s1.5,2.2,1.5,3.6c0,1.4-0.5,2.6-1.5,3.6c-1,1-2.2,1.5-3.6,1.5C519.3,126.7,518.1,126.1,517.1,125.1z"/>
			<path class="st4" d="M562.8,134.9c7.1,0,10.7,5.6,10.7,16.9v7.8c0,3.4,0.2,5.8,0.6,7.4c0.1,0.4,0.9,0.8,2.3,1.2
				c1.4,0.4,2.4,0.6,2.8,0.6c0.2,0,0.3,0.4,0.3,1.2c0,0.8,0,1.3-0.1,1.6c-0.3-0.1-1.8-0.2-4.3-0.3s-4.5-0.2-5.7-0.2
				c-1.3,0-3.2,0.1-5.5,0.2c-2.3,0.2-3.8,0.3-4.3,0.3c-0.2-0.2-0.3-0.7-0.3-1.6s0.1-1.2,0.3-1.2c0.6,0,1.5-0.2,2.8-0.6
				s1.9-0.8,2-1.2c0.4-1.7,0.7-3.7,0.7-6v-7.8c0-4.6-0.6-7.8-1.9-9.6s-3.2-2.7-5.9-2.7c-1.8,0-3.3,0.5-4.6,1.4c-1.3,1-2,2-2,3.1
				v14.2c0,3.4,0.2,5.8,0.6,7.4c0.1,0.4,0.8,0.8,2.2,1.2c1.3,0.4,2.2,0.6,2.7,0.6c0.2,0,0.3,0.4,0.4,1.2c0,0.8,0,1.3-0.1,1.6
				c-0.4-0.1-1.9-0.2-4.3-0.3c-2.5-0.2-4.3-0.2-5.6-0.2c-1.3,0-3.2,0.1-5.7,0.2c-2.5,0.2-4,0.3-4.4,0.3c-0.2-0.2-0.3-0.7-0.3-1.6
				s0.1-1.2,0.3-1.2c0.7,0,1.7-0.2,3-0.6c1.3-0.4,2.1-0.8,2.2-1.2c0.4-1.7,0.6-3.7,0.6-6v-13.5c0-2.6-0.4-4.3-1.3-5.3
				c-0.4-0.5-1.1-1-1.9-1.2c-0.8-0.3-1.5-0.4-2-0.5c-0.5-0.1-0.8-0.1-0.8-0.2c0-1.6,0.1-2.4,0.4-2.5c2.5-0.2,7-1,13.3-2.5
				c0.1-0.1,0.1-0.1,0.2-0.1c0.1,0,0.2,0,0.2,0c0.1,0,0.2,0,0.2,0c0.2,0,0.4,0.2,0.6,0.6c0.2,0.4,0.2,0.7,0.2,0.9
				c-0.2,1.5-0.3,2.5-0.3,3c0,0.2,0,0.4,0.1,0.4c0.1,0,0.2-0.1,0.4-0.2c1.3-1.3,3-2.5,5.1-3.5C558.6,135.4,560.7,134.9,562.8,134.9z
				"/>
			<path class="st4" d="M606.1,140.7h-5c-0.4,0-0.6-0.7-0.6-2.1c0-0.4,0-0.6,0.1-0.7c2.2-1,4.3-2.4,6.4-4.4c0.7-0.7,1.5-1.5,2.4-2.4
				c0.9-0.9,1.9-2.1,3-3.5c0.5,0,1.1,0.1,1.6,0.2c0.5,0.1,0.7,0.3,0.7,0.5v8.1c1.4,0,3.4,0,6,0c2.6,0,3.9,0,4.1,0
				c0.4,0,0.7,0.2,0.7,0.7c0,1.3-0.3,2.5-0.8,3.6h-9.9v19.9c0,2.2,0.5,3.9,1.4,5c0.9,1.2,2.2,1.7,3.9,1.7c0.5,0,1.1-0.1,1.7-0.2
				c0.6-0.1,1.1-0.3,1.5-0.5c0.4-0.2,0.7-0.3,1.1-0.5c0.3-0.2,0.5-0.2,0.6-0.2c0.2-0.1,0.5,0.2,0.7,0.7c0.3,0.6,0.4,0.9,0.3,1.1
				c-0.3,0.8-1.5,1.7-3.5,2.7c-2,1-4,1.5-5.9,1.5c-2.9,0-5.3-0.9-7.3-2.8c-2-1.8-3-4.7-3-8.6V140.7z"/>
			<path class="st4" d="M657.2,134.9c7,0,10.6,5.4,10.6,16.3v8.5c0,3.4,0.2,5.8,0.7,7.4c0.1,0.4,0.8,0.8,2.2,1.2s2.4,0.6,2.8,0.6
				c0.2,0,0.3,0.4,0.3,1.2c0,0.8,0,1.3,0,1.6c-0.4-0.1-1.9-0.2-4.4-0.3c-2.6-0.2-4.4-0.2-5.7-0.2c-1.4,0-3.2,0.1-5.6,0.2
				s-3.8,0.3-4.3,0.3c-0.2-0.2-0.2-0.7-0.2-1.6s0.1-1.2,0.2-1.2c0.7,0,1.6-0.2,2.9-0.6s1.9-0.8,2.1-1.2c0.3-1.7,0.5-3.7,0.5-6V153
				c0-4.6-0.6-7.7-1.9-9.5c-1.2-1.7-3.2-2.6-5.9-2.6c-1.7,0-3.2,0.5-4.5,1.4c-1.4,0.9-2.1,2-2.1,3.1v14.2c0,3.4,0.2,5.8,0.7,7.4
				c0.1,0.4,0.8,0.8,2.2,1.2c1.3,0.4,2.3,0.6,2.8,0.6c0.2,0,0.3,0.4,0.3,1.2c0,0.8,0,1.3-0.1,1.6c-0.4-0.1-1.9-0.2-4.3-0.3
				c-2.5-0.2-4.3-0.2-5.6-0.2c-1.3,0-3.2,0.1-5.7,0.2c-2.5,0.2-4,0.3-4.4,0.3c-0.2-0.2-0.3-0.7-0.3-1.6s0.1-1.2,0.3-1.2
				c0.7,0,1.7-0.2,3-0.6s2.1-0.8,2.2-1.2c0.4-1.7,0.6-3.6,0.6-5.9v-34.4c0-2.2-0.1-4.1-0.4-5.6c-0.3-0.9-1.7-1.3-4.3-1.3h-0.7
				c-0.3,0-0.5-0.4-0.5-1.3c0-0.9,0.2-1.3,0.5-1.3c1.7-0.2,3.3-0.4,4.9-0.7c1.5-0.3,2.8-0.5,3.8-0.8c1-0.3,1.9-0.5,2.6-0.8
				c0.7-0.3,1.5-0.5,2.4-0.8h0.2c0.2,0,0.4,0.2,0.7,0.5c0.2,0.3,0.4,0.6,0.4,0.9c-0.7,2.1-1,4.7-1,7.8v16.7c0,0.3,0.1,0.5,0.3,0.5
				c0.1,0,0.2-0.1,0.3-0.2c1.2-1.3,2.9-2.5,5.1-3.6S655,134.9,657.2,134.9z"/>
			<path class="st4" d="M694.9,134.9c2.6,0,4.9,0.5,6.9,1.5c2,1,3.6,2.3,4.8,3.9c1.2,1.6,2,3.2,2.6,4.9c0.6,1.7,0.9,3.3,0.9,4.8
				c0,1.2-0.2,2-0.6,2.3c-0.4,0.3-1.3,0.5-2.5,0.5h-19.7c-0.4,0-0.6,0.2-0.6,0.5c0,2,0.4,3.9,1.1,5.8c0.7,1.9,1.9,3.5,3.7,4.9
				c1.7,1.4,3.8,2.1,6.2,2.1c0.8,0,1.6,0,2.4-0.1c0.8-0.1,1.5-0.2,2.1-0.4c0.7-0.2,1.2-0.4,1.7-0.5c0.5-0.2,1-0.4,1.5-0.7
				c0.5-0.3,0.9-0.6,1.1-0.7c0.2-0.1,0.8-0.5,1.7-1.1c0.1,0.1,0.2,0.2,0.4,0.5c0.2,0.3,0.2,0.6,0.2,0.8c0,0.6-0.2,1.1-0.5,1.6
				c-0.8,1.5-2.5,3-4.9,4.5c-2.4,1.5-5.2,2.2-8.2,2.2c-4.8,0-8.9-1.8-12.4-5.3c-3.5-3.6-5.2-7.9-5.2-12.9c0-5.6,1.6-10.1,4.8-13.5
				S689.9,134.9,694.9,134.9z M694.3,138.7c-1.3,0-2.5,0.4-3.6,1.2c-1,0.8-1.8,1.7-2.4,2.8c-0.6,1.1-1,2.1-1.2,3.1
				c-0.2,1-0.4,1.8-0.4,2.4c0,0.4,0.2,0.6,0.5,0.6h13.4c0.5,0,0.7-0.4,0.7-1.2c0-1.9-0.6-3.9-1.9-5.9
				C698.2,139.7,696.5,138.7,694.3,138.7z"/>
			<path class="st4" d="M19.6,192.2c1,0,4.5-0.2,10.6-0.5c0.1,0.4,0.2,0.9,0.2,1.3c0,0.9-0.1,1.4-0.3,1.4c-0.5,0-1.5,0.2-3,0.6
				s-2.3,0.8-2.3,1.3c-0.4,1.7-0.7,4.1-0.7,7.3v19c0,5.7,1.2,10.2,3.7,13.6c2.5,3.4,5.9,5.1,10.2,5.1c4.2,0,7.6-1.4,10.2-4.2
				c2.6-2.8,3.8-7.4,3.8-13.8v-20.2c0-3.4-0.3-5.6-0.8-6.6c-0.3-0.5-1.3-1-2.9-1.4c-1.6-0.5-2.8-0.7-3.5-0.7c-0.2,0-0.3-0.4-0.4-1.2
				c0-0.8,0-1.3,0.2-1.5c5.9,0.4,9.4,0.6,10.4,0.6c1.4,0,3.2-0.1,5.5-0.3c2.3-0.2,3.7-0.3,4.3-0.3c0.1,0.4,0.2,0.8,0.2,1.3
				c0,0.9-0.1,1.3-0.3,1.3c-0.8,0-2,0.2-3.6,0.6c-1.6,0.4-2.6,1-3.1,1.7c-0.6,1.4-0.9,3.7-0.9,6.9V223c0,4.3-0.5,8-1.6,11.1
				c-1,3.1-2.5,5.6-4.5,7.4c-1.9,1.8-4.1,3.1-6.6,3.9c-2.5,0.8-5.2,1.2-8.4,1.2c-6.6,0-11.8-2-15.6-6c-3.8-4-5.7-10.4-5.7-19.3v-18
				c0-3.5-0.2-5.8-0.7-6.9c-0.2-0.4-1-0.9-2.3-1.3c-1.3-0.4-2.3-0.6-3-0.6c-0.2,0-0.3-0.4-0.3-1.2s0.1-1.3,0.2-1.5
				C15.6,192.1,19.2,192.2,19.6,192.2z"/>
			<path class="st4" d="M96.2,209.9c7.1,0,10.7,5.6,10.7,16.9v7.8c0,3.4,0.2,5.8,0.6,7.4c0.1,0.4,0.9,0.8,2.3,1.2
				c1.4,0.4,2.4,0.6,2.8,0.6c0.2,0,0.3,0.4,0.3,1.2c0,0.8,0,1.3-0.1,1.6c-0.3-0.1-1.8-0.2-4.3-0.3s-4.5-0.2-5.7-0.2
				c-1.3,0-3.2,0.1-5.5,0.2c-2.3,0.2-3.8,0.3-4.3,0.3c-0.2-0.2-0.3-0.7-0.3-1.6s0.1-1.2,0.3-1.2c0.6,0,1.5-0.2,2.8-0.6
				s1.9-0.8,2-1.2c0.4-1.7,0.7-3.7,0.7-6v-7.8c0-4.6-0.6-7.8-1.9-9.6s-3.2-2.7-5.9-2.7c-1.8,0-3.3,0.5-4.6,1.4c-1.3,1-2,2-2,3.1
				v14.2c0,3.4,0.2,5.8,0.6,7.4c0.1,0.4,0.8,0.8,2.2,1.2c1.3,0.4,2.2,0.6,2.7,0.6c0.2,0,0.3,0.4,0.4,1.2c0,0.8,0,1.3-0.1,1.6
				c-0.4-0.1-1.9-0.2-4.3-0.3c-2.5-0.2-4.3-0.2-5.6-0.2c-1.3,0-3.2,0.1-5.7,0.2c-2.5,0.2-4,0.3-4.4,0.3c-0.2-0.2-0.3-0.7-0.3-1.6
				s0.1-1.2,0.3-1.2c0.7,0,1.7-0.2,3-0.6c1.3-0.4,2.1-0.8,2.2-1.2c0.4-1.7,0.6-3.7,0.6-6v-13.5c0-2.6-0.4-4.3-1.3-5.3
				c-0.4-0.5-1.1-1-1.9-1.2c-0.8-0.3-1.5-0.4-2-0.5c-0.5-0.1-0.8-0.1-0.8-0.2c0-1.6,0.1-2.4,0.4-2.5c2.5-0.2,7-1,13.3-2.5
				c0.1-0.1,0.1-0.1,0.2-0.1c0.1,0,0.2,0,0.2,0c0.1,0,0.2,0,0.2,0c0.2,0,0.4,0.2,0.6,0.6c0.2,0.4,0.2,0.7,0.2,0.9
				c-0.2,1.5-0.3,2.5-0.3,3c0,0.2,0,0.4,0.1,0.4c0.1,0,0.2-0.1,0.4-0.2c1.3-1.3,3-2.5,5.1-3.5C91.9,210.4,94,209.9,96.2,209.9z"/>
			<path class="st4" d="M132.1,234.7c0,3.4,0.2,5.8,0.7,7.4c0.1,0.4,0.9,0.8,2.2,1.2c1.4,0.4,2.3,0.6,2.8,0.6c0.2,0,0.3,0.4,0.4,1.2
				c0,0.8,0,1.3-0.1,1.6c-0.4-0.1-1.9-0.2-4.4-0.3c-2.6-0.2-4.4-0.2-5.7-0.2c-1.4,0-3.3,0.1-5.8,0.2c-2.5,0.2-4,0.3-4.3,0.3
				c-0.2-0.2-0.3-0.7-0.3-1.6s0.1-1.2,0.3-1.2c0.6,0,1.6-0.2,3-0.6c1.4-0.4,2.1-0.8,2.2-1.2c0.4-1.7,0.6-3.7,0.6-6v-13.5
				c0-2.6-0.4-4.3-1.3-5.3c-0.5-0.5-1.1-1-1.9-1.2c-0.8-0.3-1.4-0.4-2-0.5c-0.6-0.1-0.8-0.1-0.8-0.2c0-1.6,0.2-2.4,0.5-2.5
				c1.5-0.1,3.8-0.4,6.7-1c2.9-0.5,5.1-1,6.5-1.5c0.1,0,0.3-0.1,0.7-0.2c0.3,0,0.5,0.2,0.7,0.6c0.2,0.4,0.2,0.7,0.2,0.9
				c-0.4,3.5-0.7,5.9-0.7,7.1V234.7z M123.5,200.1c-1-1-1.5-2.2-1.5-3.6c0-1.4,0.5-2.6,1.5-3.6s2.2-1.5,3.6-1.5
				c1.4,0,2.6,0.5,3.6,1.5s1.5,2.2,1.5,3.6c0,1.4-0.5,2.6-1.5,3.6c-1,1-2.2,1.5-3.6,1.5C125.7,201.7,124.5,201.1,123.5,200.1z"/>
			<path class="st4" d="M147,215.7h-5c-0.4,0-0.6-0.7-0.6-2.1c0-0.4,0-0.6,0.1-0.7c2.2-1,4.3-2.4,6.4-4.4c0.7-0.7,1.5-1.5,2.4-2.4
				c0.9-0.9,1.9-2.1,3-3.5c0.5,0,1.1,0.1,1.6,0.2c0.5,0.1,0.7,0.3,0.7,0.5v8.1c1.4,0,3.4,0,6,0c2.6,0,3.9,0,4.1,0
				c0.4,0,0.7,0.2,0.7,0.7c0,1.3-0.3,2.5-0.8,3.6h-9.9v19.9c0,2.2,0.5,3.9,1.4,5c0.9,1.2,2.2,1.7,3.9,1.7c0.5,0,1.1-0.1,1.7-0.2
				c0.6-0.1,1.1-0.3,1.5-0.5c0.4-0.2,0.7-0.3,1.1-0.5c0.3-0.2,0.5-0.2,0.6-0.2c0.2-0.1,0.5,0.2,0.7,0.7c0.3,0.6,0.4,0.9,0.3,1.1
				c-0.3,0.8-1.5,1.7-3.5,2.7c-2,1-4,1.5-5.9,1.5c-2.9,0-5.3-0.9-7.3-2.8c-2-1.8-3-4.7-3-8.6V215.7z"/>
			<path class="st4" d="M188,209.9c2.6,0,4.9,0.5,6.9,1.5c2,1,3.6,2.3,4.8,3.9c1.2,1.6,2,3.2,2.6,4.9c0.6,1.7,0.9,3.3,0.9,4.8
				c0,1.2-0.2,2-0.6,2.3c-0.4,0.3-1.3,0.5-2.5,0.5h-19.7c-0.4,0-0.6,0.2-0.6,0.5c0,2,0.4,3.9,1.1,5.8c0.7,1.9,1.9,3.5,3.7,4.9
				c1.7,1.4,3.8,2.1,6.2,2.1c0.8,0,1.6,0,2.4-0.1c0.8-0.1,1.5-0.2,2.1-0.4c0.7-0.2,1.2-0.4,1.7-0.5c0.5-0.2,1-0.4,1.5-0.7
				c0.5-0.3,0.9-0.6,1.1-0.7c0.2-0.1,0.8-0.5,1.7-1.1c0.1,0.1,0.2,0.2,0.4,0.5c0.2,0.3,0.2,0.6,0.2,0.8c0,0.6-0.2,1.1-0.5,1.6
				c-0.8,1.5-2.5,3-4.9,4.5c-2.4,1.5-5.2,2.2-8.2,2.2c-4.8,0-8.9-1.8-12.4-5.3c-3.5-3.6-5.2-7.9-5.2-12.9c0-5.6,1.6-10.1,4.8-13.5
				S183.1,209.9,188,209.9z M187.4,213.7c-1.3,0-2.5,0.4-3.6,1.2c-1,0.8-1.8,1.7-2.4,2.8c-0.6,1.1-1,2.1-1.2,3.1
				c-0.2,1-0.4,1.8-0.4,2.4c0,0.4,0.2,0.6,0.5,0.6h13.4c0.5,0,0.7-0.4,0.7-1.2c0-1.9-0.6-3.9-1.9-5.9
				C191.3,214.7,189.6,213.7,187.4,213.7z"/>
			<path class="st4" d="M225.7,209.8c2.4,0,4.4,0.4,6,1.2c0.3,0,0.4-0.4,0.4-1.3v-7.8c0-2.1-0.2-4-0.5-5.6c-0.3-0.9-1.7-1.3-4.3-1.3
				h-0.7c-0.3,0-0.5-0.4-0.5-1.3c0-0.9,0.2-1.3,0.5-1.3c1.7-0.2,3.3-0.4,4.8-0.7c1.6-0.3,2.9-0.5,3.9-0.8c1-0.3,1.9-0.5,2.6-0.8
				c0.7-0.3,1.3-0.5,1.7-0.6c0.4-0.1,0.6-0.2,0.7-0.2h0.2c0.2,0,0.4,0.2,0.7,0.5c0.2,0.3,0.3,0.6,0.3,0.9c-0.6,2.1-0.8,4.7-0.8,7.8
				v36.3c0,2.5,0.2,4.6,0.5,6.1c0.1,0.4,0.3,0.7,0.8,0.9c0.5,0.2,1,0.4,1.6,0.4c0.5,0.1,1.1,0.1,1.6,0.1c0.5,0,0.8,0,0.8,0
				c0.1,0.1,0.2,0.4,0.2,1c0,1.1-0.2,1.7-0.5,1.7c-0.8,0.1-1.8,0.2-2.9,0.3c-1.2,0.2-2.3,0.3-3.5,0.5c-1.1,0.2-2.2,0.4-3.2,0.6
				c-1,0.2-2.2,0.4-3.4,0.7c-0.3,0-0.5-0.5-0.5-1.4v-1.4c0-0.2,0-0.3-0.1-0.3c-0.1-0.1-0.2-0.1-0.2,0c-2.6,2-5.5,3.1-8.6,3.1
				c-4.5,0-8.3-1.6-11.6-4.9c-3.3-3.3-5-7.4-5-12.4c0-5.5,1.9-10.1,5.7-14S220.5,209.8,225.7,209.8z M225,213.7
				c-2.9,0-5.1,1.2-6.6,3.7s-2.2,5.8-2.2,10c0,4.7,0.9,8.3,2.6,10.9c1.7,2.6,4.1,3.9,7.2,3.9c1.9,0,3.4-0.5,4.5-1.4
				c1.2-1,1.7-2.2,1.7-3.7v-17.3c0-0.5-0.1-1.1-0.3-1.7c-0.2-0.6-0.5-1.3-1-1.9c-0.5-0.7-1.2-1.3-2.2-1.7
				C227.6,214,226.4,213.7,225,213.7z"/>
			<path class="st4" d="M268.2,206c0-4.1,1.7-7.6,5.2-10.5c3.5-2.8,7.4-4.3,11.7-4.3c1.5,0,2.9,0.1,4,0.2c1.2,0.2,2.8,0.5,4.8,1
				c2.1,0.5,3.5,0.9,4.3,1c0.7,3.7,1,8,1,12.7c-0.1,0.5-0.4,0.7-1,0.7c-1.5,0-2.3-0.2-2.4-0.7c-0.3-2.5-1.5-5-3.6-7.4
				c-2-2.4-4.5-3.6-7.4-3.6c-2.5,0-4.5,0.7-5.8,2.1c-1.4,1.4-2,3.4-2,5.8c0,0.8,0.1,1.6,0.3,2.4c0.2,0.7,0.6,1.5,1.2,2.2
				c0.6,0.7,1,1.3,1.4,1.8c0.4,0.5,1,1.1,2.1,1.8c1,0.7,1.7,1.2,2.1,1.5c0.4,0.3,1.2,0.8,2.5,1.6c1.3,0.8,2.1,1.3,2.4,1.4
				c0.3,0.3,1.3,0.9,2.8,1.8c1.5,0.9,2.6,1.6,3.2,2c0.6,0.4,1.5,1.1,2.6,2.1c1.2,1,2,1.9,2.5,2.8c0.5,0.9,1,2,1.4,3.3
				c0.4,1.4,0.7,2.8,0.7,4.3c0,4.4-1.8,8-5.3,10.9c-3.6,2.9-7.7,4.3-12.4,4.3c-3.3,0-8.4-0.8-15.2-2.3c-0.5-2-1-4.5-1.4-7.5
				c-0.4-3-0.6-5-0.6-5.9c0.1-0.4,0.5-0.7,1.3-0.7c1.4,0,2.2,0.2,2.4,0.7c0.2,1,0.6,2.1,1.2,3.3c0.5,1.2,1.3,2.5,2.3,3.8
				c1,1.3,2.3,2.5,3.9,3.3c1.6,0.9,3.5,1.3,5.5,1.3c2.6,0,4.7-0.8,6.4-2.3c1.7-1.5,2.6-3.9,2.6-6.9c0-0.9-0.2-1.8-0.5-2.7
				c-0.4-0.9-0.8-1.6-1.2-2.2c-0.5-0.6-1.2-1.3-2.1-2c-0.9-0.7-1.7-1.3-2.3-1.7c-0.6-0.4-1.5-0.9-2.7-1.6c-1.2-0.7-2-1.2-2.5-1.4
				c-0.2-0.2-0.5-0.4-0.9-0.7c-1.6-1-2.8-1.8-3.6-2.3c-0.8-0.5-1.9-1.4-3.2-2.4s-2.3-2.1-2.9-3c-0.7-0.9-1.3-2.1-1.8-3.5
				C268.5,209,268.2,207.6,268.2,206z"/>
			<path class="st4" d="M311.3,215.7h-5c-0.4,0-0.6-0.7-0.6-2.1c0-0.4,0-0.6,0.1-0.7c2.2-1,4.3-2.4,6.4-4.4c0.7-0.7,1.5-1.5,2.4-2.4
				c0.9-0.9,1.9-2.1,3-3.5c0.5,0,1.1,0.1,1.6,0.2c0.5,0.1,0.7,0.3,0.7,0.5v8.1c1.4,0,3.4,0,6,0c2.6,0,3.9,0,4.1,0
				c0.4,0,0.7,0.2,0.7,0.7c0,1.3-0.3,2.5-0.8,3.6h-9.9v19.9c0,2.2,0.5,3.9,1.4,5c0.9,1.2,2.2,1.7,3.9,1.7c0.5,0,1.1-0.1,1.7-0.2
				c0.6-0.1,1.1-0.3,1.5-0.5c0.4-0.2,0.7-0.3,1.1-0.5c0.3-0.2,0.5-0.2,0.6-0.2c0.2-0.1,0.5,0.2,0.7,0.7c0.3,0.6,0.4,0.9,0.3,1.1
				c-0.3,0.8-1.5,1.7-3.5,2.7c-2,1-4,1.5-5.9,1.5c-2.9,0-5.3-0.9-7.3-2.8c-2-1.8-3-4.7-3-8.6V215.7z"/>
			<path class="st4" d="M352.8,209.9c3.4,0,6,0.9,7.7,2.7c1.7,1.8,2.6,4.9,2.6,9.2v16.3c0,1.1,0.2,1.9,0.7,2.5
				c0.5,0.6,1.2,0.9,2,0.9s1.8-0.4,2.8-1.1c0.3,0.1,0.5,0.4,0.5,0.9c0,1.1-0.2,1.9-0.5,2.5c-0.8,0.7-1.9,1.4-3.3,2.1
				c-1.4,0.7-2.7,1.1-4,1.1c-1.3,0-2.5-0.5-3.7-1.4c-1.2-0.9-2-2-2.4-3.1c-0.1,0.1-0.3,0.2-0.6,0.5c-0.4,0.3-0.9,0.7-1.5,1.1
				c-0.6,0.4-1.3,0.9-2.1,1.3c-0.8,0.4-1.7,0.8-2.8,1.1c-1.1,0.3-2.2,0.5-3.3,0.5c-2.8,0-5-0.8-6.7-2.3c-1.7-1.5-2.6-3.6-2.6-6.2
				c0-1.3,0.3-2.6,1-3.7c0.6-1.2,1.4-2.1,2.3-2.9c0.9-0.7,2.1-1.5,3.6-2.2c1.5-0.7,2.8-1.3,3.8-1.6c1.1-0.4,2.5-0.8,4.1-1.3
				c1.7-0.5,2.9-0.9,3.5-1.1c0.5-0.2,0.7-0.7,0.7-1.3v-4.5c0-1.9-0.4-3.4-1.3-4.5c-0.9-1.1-2.1-1.7-3.6-1.7c-1.7,0-2.9,0.5-3.9,1.5
				c-0.9,1-1.4,2.5-1.4,4.3c0,1.1-0.4,1.9-1.2,2.4s-1.8,0.8-2.8,0.8c-2,0-3.5-0.7-4.3-2c0-2.6,1.8-5.1,5.4-7.4
				C345,211.1,348.8,209.9,352.8,209.9z M349,241.6c1.5,0,2.8-0.4,3.8-1.2c1.1-0.8,1.6-1.7,1.6-2.6v-8.4c-0.4,0.2-1.2,0.4-2.4,0.8
				c-1.2,0.4-2.2,0.7-2.8,1c-0.7,0.3-1.4,0.7-2.3,1.2c-0.9,0.5-1.5,1.1-1.9,1.8s-0.6,1.5-0.6,2.3c0,1.8,0.4,3.1,1.3,3.9
				C346.5,241.2,347.7,241.6,349,241.6z"/>
			<path class="st4" d="M377.5,215.7h-5c-0.4,0-0.6-0.7-0.6-2.1c0-0.4,0-0.6,0.1-0.7c2.2-1,4.3-2.4,6.4-4.4c0.7-0.7,1.5-1.5,2.4-2.4
				c0.9-0.9,1.9-2.1,3-3.5c0.5,0,1.1,0.1,1.6,0.2c0.5,0.1,0.7,0.3,0.7,0.5v8.1c1.4,0,3.4,0,6,0c2.6,0,3.9,0,4.1,0
				c0.4,0,0.7,0.2,0.7,0.7c0,1.3-0.3,2.5-0.8,3.6h-9.9v19.9c0,2.2,0.5,3.9,1.4,5c0.9,1.2,2.2,1.7,3.9,1.7c0.5,0,1.1-0.1,1.7-0.2
				c0.6-0.1,1.1-0.3,1.5-0.5c0.4-0.2,0.7-0.3,1.1-0.5c0.3-0.2,0.5-0.2,0.6-0.2c0.2-0.1,0.5,0.2,0.7,0.7c0.3,0.6,0.4,0.9,0.3,1.1
				c-0.3,0.8-1.5,1.7-3.5,2.7c-2,1-4,1.5-5.9,1.5c-2.9,0-5.3-0.9-7.3-2.8c-2-1.8-3-4.7-3-8.6V215.7z"/>
			<path class="st4" d="M418.6,209.9c2.6,0,4.9,0.5,6.9,1.5c2,1,3.6,2.3,4.8,3.9c1.2,1.6,2,3.2,2.6,4.9c0.6,1.7,0.9,3.3,0.9,4.8
				c0,1.2-0.2,2-0.6,2.3c-0.4,0.3-1.3,0.5-2.5,0.5H411c-0.4,0-0.6,0.2-0.6,0.5c0,2,0.4,3.9,1.1,5.8c0.7,1.9,1.9,3.5,3.7,4.9
				c1.7,1.4,3.8,2.1,6.2,2.1c0.8,0,1.6,0,2.4-0.1c0.8-0.1,1.5-0.2,2.1-0.4c0.7-0.2,1.2-0.4,1.7-0.5c0.5-0.2,1-0.4,1.5-0.7
				c0.5-0.3,0.9-0.6,1.1-0.7c0.2-0.1,0.8-0.5,1.7-1.1c0.1,0.1,0.2,0.2,0.4,0.5c0.2,0.3,0.2,0.6,0.2,0.8c0,0.6-0.2,1.1-0.5,1.6
				c-0.8,1.5-2.5,3-4.9,4.5c-2.4,1.5-5.2,2.2-8.2,2.2c-4.8,0-8.9-1.8-12.4-5.3c-3.5-3.6-5.2-7.9-5.2-12.9c0-5.6,1.6-10.1,4.8-13.5
				S413.6,209.9,418.6,209.9z M418,213.7c-1.3,0-2.5,0.4-3.6,1.2c-1,0.8-1.8,1.7-2.4,2.8c-0.6,1.1-1,2.1-1.2,3.1
				c-0.2,1-0.4,1.8-0.4,2.4c0,0.4,0.2,0.6,0.5,0.6h13.4c0.5,0,0.7-0.4,0.7-1.2c0-1.9-0.6-3.9-1.9-5.9
				C421.9,214.7,420.2,213.7,418,213.7z"/>
			<path class="st4" d="M451.2,209.8c3.1,0,6.3,0.5,9.6,1.4c0.6,2.5,0.9,5.6,0.9,9.3c0,0.4-0.4,0.7-1.1,0.7c-1.2,0-1.9-0.2-2-0.7
				c-0.4-1.9-1.2-3.6-2.4-4.9c-1.2-1.3-2.9-2-5-2c-1.6,0-2.8,0.4-3.8,1.1c-0.9,0.7-1.4,1.7-1.4,3.1c0,0.8,0.2,1.5,0.5,2.1
				c0.3,0.6,0.8,1.2,1.5,1.8c0.7,0.6,1.3,1,1.8,1.3s1.3,0.8,2.4,1.3c0.4,0.2,0.7,0.4,0.8,0.4c0.1,0.1,0.5,0.3,1.2,0.7
				c0.7,0.4,1.2,0.6,1.4,0.7c0.2,0.1,0.6,0.4,1.3,0.8c0.7,0.4,1.2,0.7,1.4,1c0.3,0.2,0.7,0.6,1.3,1c0.6,0.4,1,0.8,1.2,1.2
				c0.2,0.3,0.6,0.8,1,1.3c0.4,0.5,0.7,1,0.9,1.5c0.2,0.5,0.3,1,0.5,1.6c0.1,0.6,0.2,1.2,0.2,1.8c0,3.5-1.3,6.2-4,8.2
				c-2.7,2-5.9,3-9.7,3c-3.4,0-7-0.8-10.7-2.3c-0.3-0.9-0.6-2.5-0.8-4.6c-0.3-2.1-0.4-3.7-0.4-4.8c0.3-0.3,0.7-0.4,1.2-0.4
				c1.3,0,1.9,0.2,2,0.7c0.4,2.3,1.5,4.2,3.3,5.6c1.7,1.4,3.6,2.1,5.7,2.1c1.5,0,2.8-0.4,3.8-1.2c1-0.8,1.5-1.9,1.5-3.4
				c0-0.5-0.1-1.1-0.2-1.5c-0.1-0.5-0.4-0.9-0.8-1.4c-0.4-0.5-0.7-0.9-1-1.2c-0.2-0.3-0.7-0.7-1.5-1.1c-0.7-0.4-1.3-0.8-1.7-1
				c-0.4-0.2-1-0.5-2.1-1.1c-1-0.5-1.7-0.9-2.1-1.1c-2.5-1.3-4.5-2.8-5.9-4.4c-1.4-1.6-2.1-3.6-2.1-5.9c0-3.4,1.3-5.9,4-7.8
				C444.5,210.7,447.6,209.8,451.2,209.8z"/>
		</g>
	</g>
</g>
<g id="Layer_2">
</g>
</svg>
