<?xml version="1.0" encoding="utf-8"?>
<!-- Generator: Adobe Illustrator 21.1.0, SVG Export Plug-In . SVG Version: 6.00 Build 0)  -->
<svg version="1.1" xmlns="http://www.w3.org/2000/svg" xmlns:xlink="http://www.w3.org/1999/xlink" x="0px" y="0px"
	 viewBox="0 0 516.7 192.5" style="enable-background:new 0 0 516.7 192.5;" xml:space="preserve">
<style type="text/css">
	.st0{fill:#F8EDF4;}
	.st1{fill:#FFFFFF;}
	.st2{fill:#FAEFE6;}
	.st3{fill:#1414EF;}
	.st4{fill:#FFFFFF;stroke:#1414EF;stroke-width:1.2;stroke-miterlimit:10;}
	.st5{fill:#EB7975;}
	.st6{fill:#606060;}
	.st7{fill:none;}
	.st8{fill:none;stroke:#1414EF;stroke-width:1.5;stroke-miterlimit:10;}
	.st9{fill:none;stroke:#1414EF;stroke-width:1.5;stroke-linejoin:bevel;stroke-miterlimit:10;}
	.st10{fill:#FFFFFF;stroke:#1414EF;stroke-width:1.2587;stroke-miterlimit:10;}
	.st11{fill:#FFFFFF;stroke:#1414EF;stroke-width:2;stroke-miterlimit:10;}
	.st12{fill:none;stroke:#1414EF;stroke-width:3.025;stroke-miterlimit:10;}
	.st13{fill:none;stroke:#1414EF;stroke-width:3.025;stroke-linejoin:bevel;stroke-miterlimit:10;}
	.st14{fill:none;stroke:#1414EF;stroke-width:15;stroke-miterlimit:10;}
	.st15{fill:#EB7975;stroke:#FAEFE6;stroke-width:1.4;stroke-miterlimit:10;}
</style>
<g id="Layer_1">
	<g>
		<g>
			<path class="st3" d="M21.5,6c1.1,0.9,1.6,2.3,1.6,4s-0.5,3.1-1.6,4c-1.1,0.9-2.6,1.4-4.5,1.4h-2.9v6.1h-3.1V4.6h6
				C19,4.6,20.5,5,21.5,6z M17.1,12.6c1,0,1.7-0.3,2.2-0.8c0.5-0.5,0.7-1.1,0.7-1.9s-0.2-1.4-0.7-2c-0.5-0.5-1.2-0.8-2.2-0.8h-2.9
				v5.4H17.1z"/>
			<path class="st3" d="M30.7,14.1c1,0,2.2,0.2,3.5,0.5v-1.2c0-0.9-0.2-1.5-0.5-2c-0.4-0.4-0.9-0.6-1.7-0.6s-1.4,0.2-1.9,0.5
				s-0.6,0.8-0.6,1.4h-3.4c0-1.4,0.5-2.5,1.5-3.1c1-0.6,2.4-1,4.3-1c2.6,0,4.3,0.9,5,2.7c0.3,0.6,0.4,1.4,0.4,2.2v8h-2.7l-0.2-1.7
				c-0.8,1.4-2.1,2.1-3.7,2.1c-1.6,0-2.9-0.4-3.8-1.2c-0.8-0.8-1.2-1.7-1.2-2.9c0-1.2,0.5-2.1,1.4-2.7S29.1,14.1,30.7,14.1z
				 M34.2,16.5c-1-0.3-2-0.4-2.9-0.4c-1.7,0-2.5,0.6-2.5,1.7c0,0.5,0.2,0.9,0.6,1.2c0.4,0.3,1,0.5,1.8,0.5c0.8,0,1.5-0.3,2.1-0.8
				C33.9,18.1,34.2,17.3,34.2,16.5z"/>
			<path class="st3" d="M45.1,11.3c0.8-1.8,1.9-2.7,3.4-2.7c0.3,0,0.7,0.1,1.1,0.2l-0.1,3.1c-0.5-0.1-1-0.2-1.4-0.2
				c-2,0-3.1,1.4-3.1,4.2v5.5H42V8.8h3.1V11.3z"/>
			<path class="st3" d="M60.2,21.1c-1.1,0.5-2,0.7-2.7,0.7c-0.7,0-1.2-0.1-1.7-0.2c-0.5-0.2-0.9-0.4-1.3-0.7
				c-0.8-0.7-1.2-1.7-1.2-2.9v-7.1h-1.8V8.8h1.8V5.5h3.1v3.3h3.4v2.1h-3.4v7c0,1,0.5,1.6,1.5,1.6c0.5,0,1.2-0.1,1.9-0.4L60.2,21.1z"
				/>
			<path class="st3" d="M69.1,5.8c1.3-0.2,2.4-0.7,3.4-1.4h2.3v17h-3.1V8.1c-0.9,0.4-1.8,0.6-2.7,0.6V5.8z"/>
			<path class="st4" d="M12.5,42.2c0.6,0,3.9-0.2,10-0.5c0.1,0.3,0.1,0.9,0.1,1.6c0,0.7-0.1,1.1-0.3,1.2c-0.4,0-0.8,0-1.3,0.1
				c-0.5,0.1-1.1,0.3-1.7,0.7c-0.6,0.4-1,1-1,1.7c0,1,0.5,2.5,1.5,4.4l16.2,32c0.2,0.3,0.4,0.3,0.6,0.2c0.2-0.1,0.4-0.3,0.5-0.5
				l6-11.7l-8.8-17.8c-1.7-3.4-3.1-5.7-4.2-7c-0.5-0.5-1.2-1-2.2-1.4c-1-0.4-1.8-0.6-2.6-0.6c-0.2,0-0.3-0.5-0.3-1.4
				c0-0.7,0.1-1.2,0.2-1.3c6.9,0.3,10.6,0.5,10.9,0.5c0.4,0,3.7-0.2,9.7-0.5c0.1,0.3,0.2,0.9,0.2,1.6c0,0.7,0,1.1-0.2,1.2
				c-0.5,0-1,0.1-1.5,0.2c-0.5,0.1-1.1,0.4-1.6,0.8c-0.6,0.4-0.8,1-0.8,1.6c0,0.9,0.5,2.3,1.5,4.3l5,10.3l4.9-10
				c1-2,1.5-3.5,1.5-4.5c0-1-0.7-1.7-2-2.1s-2.5-0.6-3.5-0.6c-0.2,0-0.3-0.4-0.3-1.2c0-0.8,0.1-1.3,0.2-1.5c4.8,0.3,7.9,0.5,9.1,0.5
				c1.3,0,2.4,0,3.4-0.1c1-0.1,2.1-0.1,3.3-0.2c1.2-0.1,2.1-0.2,2.8-0.2c0.1,0.3,0.2,0.8,0.2,1.5c0,0.7-0.1,1.1-0.2,1.1
				c-0.7,0-1.7,0.2-3,0.7c-1.3,0.5-2.3,1.1-2.8,1.7c-1.2,1.4-2.8,4-4.7,7.8l-6,12.2l8,16.4c0.3,0.6,0.7,0.4,1.1-0.4
				C61.4,80.2,64,74.6,68,66c4.1-8.6,6.3-13.3,6.7-14.2c1-2.1,1.5-3.6,1.5-4.6s-0.7-1.7-2-2.1c-1.3-0.4-2.4-0.7-3.3-0.7
				c-0.2,0-0.3-0.4-0.4-1.2c0-0.8,0.1-1.3,0.3-1.5c4.8,0.3,7.9,0.5,9.1,0.5s2.4,0,3.3-0.1c1-0.1,2-0.1,3.1-0.2
				c1.1-0.1,2-0.2,2.8-0.2c0.1,0.4,0.2,0.9,0.2,1.7c0,0.7-0.1,1-0.3,1c-0.7,0-1.6,0.2-2.9,0.7c-1.2,0.5-2.2,1-2.8,1.6
				c-1.5,1.7-3.1,4.3-4.8,7.8L59.8,94.6c-0.4,0.9-1,1.5-1.5,2s-1.1,0.7-1.5,0.7c-0.3,0-0.6-0.1-0.8-0.3L45.8,76.6l-9.4,18
				c-0.4,0.9-0.9,1.6-1.5,2c-0.6,0.5-1.1,0.7-1.4,0.6c-0.3,0-0.6-0.1-0.8-0.3L10.7,53.5c-1.5-3.1-3-5.5-4.3-7.2
				c-0.4-0.5-1.2-1-2.3-1.3c-1.1-0.3-1.9-0.5-2.6-0.5c-0.2,0-0.3-0.4-0.3-1.3c0-0.8,0.1-1.2,0.2-1.4C8.4,42.1,12.1,42.2,12.5,42.2z"
				/>
			<path class="st4" d="M119.2,59.9c7,0,10.6,5.4,10.6,16.3v8.5c0,3.4,0.2,5.8,0.7,7.4c0.1,0.4,0.8,0.8,2.2,1.2s2.4,0.6,2.8,0.6
				c0.2,0,0.3,0.4,0.3,1.2c0,0.8,0,1.3,0,1.6c-0.4-0.1-1.9-0.2-4.4-0.3c-2.6-0.2-4.4-0.2-5.7-0.2c-1.4,0-3.2,0.1-5.6,0.2
				s-3.8,0.3-4.3,0.3c-0.2-0.2-0.2-0.7-0.2-1.6s0.1-1.2,0.2-1.2c0.7,0,1.6-0.2,2.9-0.6s1.9-0.8,2.1-1.2c0.3-1.7,0.5-3.7,0.5-6V78
				c0-4.6-0.6-7.7-1.9-9.5c-1.2-1.7-3.2-2.6-5.9-2.6c-1.7,0-3.2,0.5-4.5,1.4c-1.4,0.9-2.1,2-2.1,3.1v14.2c0,3.4,0.2,5.8,0.7,7.4
				c0.1,0.4,0.8,0.8,2.2,1.2c1.3,0.4,2.3,0.6,2.8,0.6c0.2,0,0.3,0.4,0.3,1.2c0,0.8,0,1.3-0.1,1.6c-0.4-0.1-1.9-0.2-4.3-0.3
				c-2.5-0.2-4.3-0.2-5.6-0.2c-1.3,0-3.2,0.1-5.7,0.2c-2.5,0.2-4,0.3-4.4,0.3c-0.2-0.2-0.3-0.7-0.3-1.6s0.1-1.2,0.3-1.2
				c0.7,0,1.7-0.2,3-0.6s2.1-0.8,2.2-1.2c0.4-1.7,0.6-3.6,0.6-5.9V51.8c0-2.2-0.1-4.1-0.4-5.6c-0.3-0.9-1.7-1.3-4.3-1.3h-0.7
				c-0.3,0-0.5-0.4-0.5-1.3c0-0.9,0.2-1.3,0.5-1.3c1.7-0.2,3.3-0.4,4.9-0.7c1.5-0.3,2.8-0.5,3.8-0.8c1-0.3,1.9-0.5,2.6-0.8
				c0.7-0.3,1.5-0.5,2.4-0.8h0.2c0.2,0,0.4,0.2,0.7,0.5c0.2,0.3,0.4,0.6,0.4,0.9c-0.7,2.1-1,4.7-1,7.8v16.7c0,0.3,0.1,0.5,0.3,0.5
				c0.1,0,0.2-0.1,0.3-0.2c1.2-1.3,2.9-2.5,5.1-3.6S117,59.9,119.2,59.9z"/>
			<path class="st4" d="M156.8,59.9c2.6,0,4.9,0.5,6.9,1.5c2,1,3.6,2.3,4.8,3.9c1.2,1.6,2,3.2,2.6,4.9c0.6,1.7,0.9,3.3,0.9,4.8
				c0,1.2-0.2,2-0.6,2.3c-0.4,0.3-1.3,0.5-2.5,0.5h-19.7c-0.4,0-0.6,0.2-0.6,0.5c0,2,0.4,3.9,1.1,5.8c0.7,1.9,1.9,3.5,3.7,4.9
				c1.7,1.4,3.8,2.1,6.2,2.1c0.8,0,1.6,0,2.4-0.1c0.8-0.1,1.5-0.2,2.1-0.4c0.7-0.2,1.2-0.4,1.7-0.5c0.5-0.2,1-0.4,1.5-0.7
				c0.5-0.3,0.9-0.6,1.1-0.7c0.2-0.1,0.8-0.5,1.7-1.1c0.1,0.1,0.2,0.2,0.4,0.5c0.2,0.3,0.2,0.6,0.2,0.8c0,0.6-0.2,1.1-0.5,1.6
				c-0.8,1.5-2.5,3-4.9,4.5c-2.4,1.5-5.2,2.2-8.2,2.2c-4.8,0-8.9-1.8-12.4-5.3c-3.5-3.6-5.2-7.9-5.2-12.9c0-5.6,1.6-10.1,4.8-13.5
				S151.9,59.9,156.8,59.9z M156.3,63.7c-1.3,0-2.5,0.4-3.6,1.2c-1,0.8-1.8,1.7-2.4,2.8c-0.6,1.1-1,2.1-1.2,3.1
				c-0.2,1-0.4,1.8-0.4,2.4c0,0.4,0.2,0.6,0.5,0.6h13.4c0.5,0,0.7-0.4,0.7-1.2c0-1.9-0.6-3.9-1.9-5.9
				C160.1,64.7,158.4,63.7,156.3,63.7z"/>
			<path class="st4" d="M200.1,59.9c3,0,5.3,0.9,6.8,2.7c0,4.7-1.3,7-4,7c-1,0-2.1-0.5-3.2-1.7c-1.2-1.1-2.3-1.7-3.6-1.7
				c-1.7,0-3,0.9-4,2.6c-1,1.7-1.4,3.5-1.4,5.4v10.3c0,3.4,0.2,5.8,0.6,7.4c0.1,0.4,0.8,0.8,2.2,1.2c1.3,0.4,2.3,0.6,2.8,0.6
				c0.2,0,0.3,0.4,0.3,1.2c0,0.8,0,1.3,0,1.6c-0.4-0.1-1.9-0.2-4.4-0.3s-4.4-0.2-5.6-0.2c-1.3,0-3.2,0.1-5.7,0.2
				c-2.5,0.2-4,0.3-4.4,0.3c-0.2-0.2-0.3-0.7-0.3-1.6s0.1-1.2,0.3-1.2c0.7,0,1.7-0.2,3-0.6c1.3-0.4,2.1-0.8,2.2-1.2
				c0.4-1.7,0.6-3.7,0.6-6V72.6c0-2.6-0.4-4.3-1.3-5.3c-0.4-0.5-1.1-1-1.9-1.2c-0.8-0.3-1.5-0.4-2-0.5c-0.5-0.1-0.8-0.1-0.8-0.2
				c0-1.6,0.1-2.4,0.4-2.5c2.5-0.2,7-1,13.3-2.5c0.4-0.1,0.6-0.2,0.7-0.2c0.2,0,0.4,0.2,0.6,0.6c0.2,0.4,0.2,0.7,0.2,1
				c0,0.2-0.1,0.6-0.1,1.2c-0.1,0.5-0.1,1.1-0.2,1.7c-0.1,0.6-0.1,1-0.1,1.1c1-1.5,2.3-2.8,4-4C196.6,60.5,198.4,59.9,200.1,59.9z"
				/>
			<path class="st4" d="M228.4,59.9c2.6,0,4.9,0.5,6.9,1.5c2,1,3.6,2.3,4.8,3.9c1.2,1.6,2,3.2,2.6,4.9c0.6,1.7,0.9,3.3,0.9,4.8
				c0,1.2-0.2,2-0.6,2.3c-0.4,0.3-1.3,0.5-2.5,0.5h-19.7c-0.4,0-0.6,0.2-0.6,0.5c0,2,0.4,3.9,1.1,5.8c0.7,1.9,1.9,3.5,3.7,4.9
				c1.7,1.4,3.8,2.1,6.2,2.1c0.8,0,1.6,0,2.4-0.1c0.8-0.1,1.5-0.2,2.1-0.4c0.7-0.2,1.2-0.4,1.7-0.5c0.5-0.2,1-0.4,1.5-0.7
				c0.5-0.3,0.9-0.6,1.1-0.7c0.2-0.1,0.8-0.5,1.7-1.1c0.1,0.1,0.2,0.2,0.4,0.5c0.2,0.3,0.2,0.6,0.2,0.8c0,0.6-0.2,1.1-0.5,1.6
				c-0.8,1.5-2.5,3-4.9,4.5c-2.4,1.5-5.2,2.2-8.2,2.2c-4.8,0-8.9-1.8-12.4-5.3c-3.5-3.6-5.2-7.9-5.2-12.9c0-5.6,1.6-10.1,4.8-13.5
				S223.4,59.9,228.4,59.9z M227.8,63.7c-1.3,0-2.5,0.4-3.6,1.2c-1,0.8-1.8,1.7-2.4,2.8c-0.6,1.1-1,2.1-1.2,3.1
				c-0.2,1-0.4,1.8-0.4,2.4c0,0.4,0.2,0.6,0.5,0.6h13.4c0.5,0,0.7-0.4,0.7-1.2c0-1.9-0.6-3.9-1.9-5.9
				C231.7,64.7,230,63.7,227.8,63.7z"/>
			<path class="st4" d="M286.1,42.2c4,0,7.1,0.9,9.5,2.6c2.3,1.8,3.5,4.1,3.5,7.1c0,3.4-1,6.2-3.1,8.6c-2.1,2.3-5,4.7-8.9,7
				c2.8,4.6,6.4,9.5,10.7,14.7c3-4.2,4.5-6.8,4.5-7.8c0-0.5-0.3-0.9-0.8-1.1c-0.5-0.2-1.1-0.3-1.8-0.3c-0.7,0-1.1,0-1.1,0
				c-0.2-0.3-0.2-0.8-0.2-1.3c0-0.5,0.1-0.9,0.2-1h7.6c1,0,4.1-0.1,9.1-0.3c0.3,0.2,0.4,0.6,0.4,1.3c0,0.9-0.2,1.4-0.6,1.5
				c-0.7,0-1.6,0.2-2.9,0.5c-1.3,0.3-2.2,0.6-2.7,1c-0.2,0.1-0.8,0.8-1.7,2.1c-0.9,1.3-2.1,2.9-3.5,4.7c-1.4,1.8-2.6,3.3-3.6,4.5
				c0.1,0.2,0.5,0.6,1,1.2c0.6,0.6,1,1,1.2,1.2c0.2,0.2,0.6,0.6,1.1,1c0.5,0.5,0.9,0.8,1.2,1c0.3,0.2,0.7,0.4,1.1,0.5
				s0.8,0.2,1.2,0.2c0.9,0,1.9-0.5,2.9-1.4c1-0.9,1.6-1.8,2-2.6c0.4,0,0.9,0.2,1.4,0.6c0.5,0.4,0.7,0.7,0.7,1.1
				c-0.2,0.4-0.5,0.9-1,1.7c-0.5,0.7-1.1,1.6-1.9,2.5c-0.8,1-1.8,1.8-3.1,2.5c-1.3,0.7-2.7,1.1-4.1,1.1c-1.7,0-3.3-0.4-4.9-1.3
				c-1.6-0.9-2.8-1.8-3.6-2.6l-1.2-1.3c-4.1,3.6-8.9,5.5-14.2,5.5c-4.7,0-8.5-1.2-11.6-3.5c-3.1-2.3-4.6-5.7-4.6-10.1
				c0-1.9,0.4-3.7,1.1-5.4c0.7-1.7,1.8-3.1,3.3-4.5c1.4-1.3,2.8-2.4,4-3.3c1.2-0.9,2.7-1.8,4.5-2.8c-0.1-0.1-0.3-0.4-0.7-1.1
				c-0.4-0.7-0.6-1.1-0.7-1.2c-0.1-0.1-0.3-0.5-0.6-1.1c-0.3-0.6-0.6-1-0.7-1.2c-0.1-0.2-0.3-0.6-0.6-1.2c-0.3-0.6-0.5-1.1-0.5-1.4
				c-0.1-0.3-0.2-0.8-0.4-1.3c-0.2-0.5-0.3-1-0.4-1.4c-0.1-0.4-0.1-0.9-0.2-1.4c-0.1-0.5-0.1-1.1-0.1-1.6c0-3.6,1.3-6.6,3.8-8.8
				C279.2,43.3,282.3,42.2,286.1,42.2z M292.2,88.3c-1.2-1.2-2.7-3.2-4.8-6c-2-2.8-3.7-5.3-5.2-7.5l-2.1-3.2c-2,1.4-3.5,2.9-4.6,4.5
				c-1.1,1.6-1.6,3.8-1.6,6.5c0,3.3,0.9,5.8,2.8,7.4c1.9,1.7,4.2,2.5,6.9,2.5c1.5,0,3.1-0.4,4.7-1.2
				C289.9,90.5,291.2,89.5,292.2,88.3z M286.3,45.9c-1.8,0-3.1,0.6-4.1,1.9c-1,1.3-1.5,2.8-1.5,4.5c0,2.6,1.4,6.4,4.1,11.4
				c2.5-1.5,4.3-3.1,5.4-4.6c1.1-1.5,1.7-3.6,1.7-6.2c0-1.8-0.5-3.4-1.5-4.8C289.4,46.6,288,45.9,286.3,45.9z"/>
			<path class="st4" d="M347.7,42.2c0.6,0,3.9-0.2,10-0.5c0.1,0.3,0.1,0.9,0.1,1.6c0,0.7-0.1,1.1-0.3,1.2c-0.4,0-0.8,0-1.3,0.1
				c-0.5,0.1-1.1,0.3-1.7,0.7c-0.6,0.4-1,1-1,1.7c0,1,0.5,2.5,1.5,4.4l16.2,32c0.2,0.3,0.4,0.3,0.6,0.2c0.2-0.1,0.4-0.3,0.5-0.5
				l6-11.7l-8.8-17.8c-1.7-3.4-3.1-5.7-4.2-7c-0.5-0.5-1.2-1-2.2-1.4c-1-0.4-1.8-0.6-2.6-0.6c-0.2,0-0.3-0.5-0.3-1.4
				c0-0.7,0.1-1.2,0.2-1.3c6.9,0.3,10.6,0.5,10.9,0.5c0.4,0,3.7-0.2,9.7-0.5c0.1,0.3,0.2,0.9,0.2,1.6c0,0.7,0,1.1-0.2,1.2
				c-0.5,0-1,0.1-1.5,0.2c-0.5,0.1-1.1,0.4-1.6,0.8c-0.6,0.4-0.8,1-0.8,1.6c0,0.9,0.5,2.3,1.5,4.3l5,10.3l4.9-10
				c1-2,1.5-3.5,1.5-4.5c0-1-0.7-1.7-2-2.1s-2.5-0.6-3.5-0.6c-0.2,0-0.3-0.4-0.3-1.2c0-0.8,0.1-1.3,0.2-1.5c4.8,0.3,7.9,0.5,9.1,0.5
				c1.3,0,2.4,0,3.4-0.1c1-0.1,2.1-0.1,3.3-0.2c1.2-0.1,2.1-0.2,2.8-0.2c0.1,0.3,0.2,0.8,0.2,1.5c0,0.7-0.1,1.1-0.2,1.1
				c-0.7,0-1.7,0.2-3,0.7c-1.3,0.5-2.3,1.1-2.8,1.7c-1.2,1.4-2.8,4-4.7,7.8l-6,12.2l8,16.4c0.3,0.6,0.7,0.4,1.1-0.4
				c1.1-2.6,3.7-8.2,7.8-16.8c4.1-8.6,6.3-13.3,6.7-14.2c1-2.1,1.5-3.6,1.5-4.6s-0.7-1.7-2-2.1c-1.3-0.4-2.4-0.7-3.3-0.7
				c-0.2,0-0.3-0.4-0.4-1.2c0-0.8,0.1-1.3,0.3-1.5c4.8,0.3,7.9,0.5,9.1,0.5s2.4,0,3.3-0.1c1-0.1,2-0.1,3.1-0.2
				c1.1-0.1,2-0.2,2.8-0.2c0.1,0.4,0.2,0.9,0.2,1.7c0,0.7-0.1,1-0.3,1c-0.7,0-1.6,0.2-2.9,0.7c-1.2,0.5-2.2,1-2.8,1.6
				c-1.5,1.7-3.1,4.3-4.8,7.8l-18.9,40.1c-0.4,0.9-1,1.5-1.5,2s-1.1,0.7-1.5,0.7c-0.3,0-0.6-0.1-0.8-0.3L381,76.6l-9.4,18
				c-0.4,0.9-0.9,1.6-1.5,2c-0.6,0.5-1.1,0.7-1.4,0.6c-0.3,0-0.6-0.1-0.8-0.3l-21.9-43.5c-1.5-3.1-3-5.5-4.3-7.2
				c-0.4-0.5-1.2-1-2.3-1.3c-1.1-0.3-1.9-0.5-2.6-0.5c-0.2,0-0.3-0.4-0.3-1.3c0-0.8,0.1-1.2,0.2-1.4
				C343.6,42.1,347.3,42.2,347.7,42.2z"/>
			<path class="st4" d="M454.3,59.9c7,0,10.6,5.4,10.6,16.3v8.5c0,3.4,0.2,5.8,0.7,7.4c0.1,0.4,0.8,0.8,2.2,1.2s2.4,0.6,2.8,0.6
				c0.2,0,0.3,0.4,0.3,1.2c0,0.8,0,1.3,0,1.6c-0.4-0.1-1.9-0.2-4.4-0.3c-2.6-0.2-4.4-0.2-5.7-0.2c-1.4,0-3.2,0.1-5.6,0.2
				s-3.8,0.3-4.3,0.3c-0.2-0.2-0.2-0.7-0.2-1.6s0.1-1.2,0.2-1.2c0.7,0,1.6-0.2,2.9-0.6s1.9-0.8,2.1-1.2c0.3-1.7,0.5-3.7,0.5-6V78
				c0-4.6-0.6-7.7-1.9-9.5c-1.2-1.7-3.2-2.6-5.9-2.6c-1.7,0-3.2,0.5-4.5,1.4c-1.4,0.9-2.1,2-2.1,3.1v14.2c0,3.4,0.2,5.8,0.7,7.4
				c0.1,0.4,0.8,0.8,2.2,1.2c1.3,0.4,2.3,0.6,2.8,0.6c0.2,0,0.3,0.4,0.3,1.2c0,0.8,0,1.3-0.1,1.6c-0.4-0.1-1.9-0.2-4.3-0.3
				c-2.5-0.2-4.3-0.2-5.6-0.2c-1.3,0-3.2,0.1-5.7,0.2c-2.5,0.2-4,0.3-4.4,0.3c-0.2-0.2-0.3-0.7-0.3-1.6s0.1-1.2,0.3-1.2
				c0.7,0,1.7-0.2,3-0.6s2.1-0.8,2.2-1.2c0.4-1.7,0.6-3.6,0.6-5.9V51.8c0-2.2-0.1-4.1-0.4-5.6c-0.3-0.9-1.7-1.3-4.3-1.3H428
				c-0.3,0-0.5-0.4-0.5-1.3c0-0.9,0.2-1.3,0.5-1.3c1.7-0.2,3.3-0.4,4.9-0.7c1.5-0.3,2.8-0.5,3.8-0.8c1-0.3,1.9-0.5,2.6-0.8
				c0.7-0.3,1.5-0.5,2.4-0.8h0.2c0.2,0,0.4,0.2,0.7,0.5c0.2,0.3,0.4,0.6,0.4,0.9c-0.7,2.1-1,4.7-1,7.8v16.7c0,0.3,0.1,0.5,0.3,0.5
				c0.1,0,0.2-0.1,0.3-0.2c1.2-1.3,2.9-2.5,5.1-3.6S452.1,59.9,454.3,59.9z"/>
			<path class="st4" d="M483.9,60.7c1.2,0,2.9-0.1,5.2-0.2c2.3-0.2,3.7-0.2,4.2-0.2c0.1,0.4,0.2,0.9,0.2,1.5c0,0.8-0.1,1.2-0.3,1.2
				c-0.6,0-1.4,0.2-2.6,0.6c-1.2,0.4-1.8,0.9-1.9,1.4v0.5c0.1,0.9,2.7,7.2,7.7,18.8c0.4-1,1.5-3.7,3.2-8.1c1.7-4.4,2.7-7,3-7.6
				c0.3-0.9,0.5-1.8,0.5-2.6c0-0.7-0.4-1.4-1.3-2c-0.9-0.6-2.2-1-4-1c-0.2,0-0.3-0.4-0.3-1.2c0-0.7,0.1-1.2,0.3-1.4
				c0.7,0,2,0.1,4,0.2c2,0.2,3.7,0.2,5,0.2c1.2,0,2.6-0.1,4.3-0.2c1.7-0.2,2.9-0.2,3.7-0.2c0.2,0.3,0.3,0.8,0.3,1.3
				c0,0.9-0.1,1.3-0.3,1.3c-0.8,0-1.9,0.3-3.3,0.8c-1.5,0.6-2.4,1.4-2.9,2.5l-15.1,36.5c-3.4,8-7.5,12.1-12.3,12.1
				c-1.4,0-2.5-0.4-3.3-1.2c-0.8-0.8-1.2-1.7-1.2-2.6c0-1.4,0.5-2.5,1.6-3.2c5.7,0,9.5-2.3,11.3-6.8c1.3-3.3,2.1-5.2,2.2-5.6
				l-12.1-28.1c-0.4-1-0.8-1.6-1-1.9c-0.6-0.8-1.4-1.4-2.4-1.9c-1.1-0.4-2-0.6-2.7-0.6c-0.2,0-0.3-0.4-0.3-1.2
				c0-0.9,0.1-1.4,0.2-1.5c0.3,0,1.8,0.1,4.4,0.2C480.6,60.7,482.6,60.7,483.9,60.7z"/>
			<path class="st4" d="M12.5,117.2c0.6,0,3.9-0.2,10-0.5c0.1,0.3,0.1,0.9,0.1,1.6c0,0.7-0.1,1.1-0.3,1.2c-0.4,0-0.8,0-1.3,0.1
				c-0.5,0.1-1.1,0.3-1.7,0.7c-0.6,0.4-1,1-1,1.7c0,1,0.5,2.5,1.5,4.4l16.2,32c0.2,0.3,0.4,0.3,0.6,0.2c0.2-0.1,0.4-0.3,0.5-0.5
				l6-11.7l-8.8-17.8c-1.7-3.4-3.1-5.7-4.2-7c-0.5-0.5-1.2-1-2.2-1.4c-1-0.4-1.8-0.6-2.6-0.6c-0.2,0-0.3-0.5-0.3-1.4
				c0-0.7,0.1-1.2,0.2-1.3c6.9,0.3,10.6,0.5,10.9,0.5c0.4,0,3.7-0.2,9.7-0.5c0.1,0.3,0.2,0.9,0.2,1.6c0,0.7,0,1.1-0.2,1.2
				c-0.5,0-1,0.1-1.5,0.2c-0.5,0.1-1.1,0.4-1.6,0.8c-0.6,0.4-0.8,1-0.8,1.6c0,0.9,0.5,2.3,1.5,4.3l5,10.3l4.9-10
				c1-2,1.5-3.5,1.5-4.5c0-1-0.7-1.7-2-2.1s-2.5-0.6-3.5-0.6c-0.2,0-0.3-0.4-0.3-1.2c0-0.8,0.1-1.3,0.2-1.5c4.8,0.3,7.9,0.5,9.1,0.5
				c1.3,0,2.4,0,3.4-0.1c1-0.1,2.1-0.1,3.3-0.2c1.2-0.1,2.1-0.2,2.8-0.2c0.1,0.3,0.2,0.8,0.2,1.5c0,0.7-0.1,1.1-0.2,1.1
				c-0.7,0-1.7,0.2-3,0.7c-1.3,0.5-2.3,1.1-2.8,1.7c-1.2,1.4-2.8,4-4.7,7.8l-6,12.2l8,16.4c0.3,0.6,0.7,0.4,1.1-0.4
				c1.1-2.6,3.7-8.2,7.8-16.8c4.1-8.6,6.3-13.3,6.7-14.2c1-2.1,1.5-3.6,1.5-4.6s-0.7-1.7-2-2.1c-1.3-0.4-2.4-0.7-3.3-0.7
				c-0.2,0-0.3-0.4-0.4-1.2c0-0.8,0.1-1.3,0.3-1.5c4.8,0.3,7.9,0.5,9.1,0.5s2.4,0,3.3-0.1c1-0.1,2-0.1,3.1-0.2
				c1.1-0.1,2-0.2,2.8-0.2c0.1,0.4,0.2,0.9,0.2,1.7c0,0.7-0.1,1-0.3,1c-0.7,0-1.6,0.2-2.9,0.7c-1.2,0.5-2.2,1-2.8,1.6
				c-1.5,1.7-3.1,4.3-4.8,7.8l-18.9,40.1c-0.4,0.9-1,1.5-1.5,2s-1.1,0.7-1.5,0.7c-0.3,0-0.6-0.1-0.8-0.3l-10.1-20.3l-9.4,18
				c-0.4,0.9-0.9,1.6-1.5,2c-0.6,0.5-1.1,0.7-1.4,0.6c-0.3,0-0.6-0.1-0.8-0.3l-21.9-43.5c-1.5-3.1-3-5.5-4.3-7.2
				c-0.4-0.5-1.2-1-2.3-1.3c-1.1-0.3-1.9-0.5-2.6-0.5c-0.2,0-0.3-0.4-0.3-1.3c0-0.8,0.1-1.2,0.2-1.4
				C8.4,117.1,12.1,117.2,12.5,117.2z"/>
			<path class="st4" d="M109.1,134.9c2.6,0,4.9,0.5,6.9,1.5c2,1,3.6,2.3,4.8,3.9c1.2,1.6,2,3.2,2.6,4.9c0.6,1.7,0.9,3.3,0.9,4.8
				c0,1.2-0.2,2-0.6,2.3c-0.4,0.3-1.3,0.5-2.5,0.5h-19.7c-0.4,0-0.6,0.2-0.6,0.5c0,2,0.4,3.9,1.1,5.8c0.7,1.9,1.9,3.5,3.7,4.9
				c1.7,1.4,3.8,2.1,6.2,2.1c0.8,0,1.6,0,2.4-0.1c0.8-0.1,1.5-0.2,2.1-0.4c0.7-0.2,1.2-0.4,1.7-0.5c0.5-0.2,1-0.4,1.5-0.7
				c0.5-0.3,0.9-0.6,1.1-0.7c0.2-0.1,0.8-0.5,1.7-1.1c0.1,0.1,0.2,0.2,0.4,0.5c0.2,0.3,0.2,0.6,0.2,0.8c0,0.6-0.2,1.1-0.5,1.6
				c-0.8,1.5-2.5,3-4.9,4.5c-2.4,1.5-5.2,2.2-8.2,2.2c-4.8,0-8.9-1.8-12.4-5.3c-3.5-3.6-5.2-7.9-5.2-12.9c0-5.6,1.6-10.1,4.8-13.5
				S104.1,134.9,109.1,134.9z M108.5,138.7c-1.3,0-2.5,0.4-3.6,1.2c-1,0.8-1.8,1.7-2.4,2.8c-0.6,1.1-1,2.1-1.2,3.1
				c-0.2,1-0.4,1.8-0.4,2.4c0,0.4,0.2,0.6,0.5,0.6h13.4c0.5,0,0.7-0.4,0.7-1.2c0-1.9-0.6-3.9-1.9-5.9
				C112.4,139.7,110.7,138.7,108.5,138.7z"/>
			<path class="st4" d="M146.4,131c0-4.1,1.7-7.6,5.2-10.5c3.5-2.8,7.4-4.3,11.7-4.3c1.5,0,2.9,0.1,4,0.2c1.2,0.2,2.8,0.5,4.8,1
				c2.1,0.5,3.5,0.9,4.3,1c0.7,3.7,1,8,1,12.7c-0.1,0.5-0.4,0.7-1,0.7c-1.5,0-2.3-0.2-2.4-0.7c-0.3-2.5-1.5-5-3.6-7.4
				c-2-2.4-4.5-3.6-7.4-3.6c-2.5,0-4.5,0.7-5.8,2.1c-1.4,1.4-2,3.4-2,5.8c0,0.8,0.1,1.6,0.3,2.4c0.2,0.7,0.6,1.5,1.2,2.2
				c0.6,0.7,1,1.3,1.4,1.8c0.4,0.5,1,1.1,2.1,1.8c1,0.7,1.7,1.2,2.1,1.5c0.4,0.3,1.2,0.8,2.5,1.6c1.3,0.8,2.1,1.3,2.4,1.4
				c0.3,0.3,1.3,0.9,2.8,1.8c1.5,0.9,2.6,1.6,3.2,2c0.6,0.4,1.5,1.1,2.6,2.1c1.2,1,2,1.9,2.5,2.8c0.5,0.9,1,2,1.4,3.3
				c0.4,1.4,0.7,2.8,0.7,4.3c0,4.4-1.8,8-5.3,10.9c-3.6,2.9-7.7,4.3-12.4,4.3c-3.3,0-8.4-0.8-15.2-2.3c-0.5-2-1-4.5-1.4-7.5
				c-0.4-3-0.6-5-0.6-5.9c0.1-0.4,0.5-0.7,1.3-0.7c1.4,0,2.2,0.2,2.4,0.7c0.2,1,0.6,2.1,1.2,3.3c0.5,1.2,1.3,2.5,2.3,3.8
				c1,1.3,2.3,2.5,3.9,3.3c1.6,0.9,3.5,1.3,5.5,1.3c2.6,0,4.7-0.8,6.4-2.3c1.7-1.5,2.6-3.9,2.6-6.9c0-0.9-0.2-1.8-0.5-2.7
				c-0.4-0.9-0.8-1.6-1.2-2.2c-0.5-0.6-1.2-1.3-2.1-2c-0.9-0.7-1.7-1.3-2.3-1.7c-0.6-0.4-1.5-0.9-2.7-1.6c-1.2-0.7-2-1.2-2.5-1.4
				c-0.2-0.2-0.5-0.4-0.9-0.7c-1.6-1-2.8-1.8-3.6-2.3c-0.8-0.5-1.9-1.4-3.2-2.4s-2.3-2.1-2.9-3c-0.7-0.9-1.3-2.1-1.8-3.5
				C146.6,134,146.4,132.6,146.4,131z"/>
			<path class="st4" d="M189.4,140.7h-5c-0.4,0-0.6-0.7-0.6-2.1c0-0.4,0-0.6,0.1-0.7c2.2-1,4.3-2.4,6.4-4.4c0.7-0.7,1.5-1.5,2.4-2.4
				c0.9-0.9,1.9-2.1,3-3.5c0.5,0,1.1,0.1,1.6,0.2c0.5,0.1,0.7,0.3,0.7,0.5v8.1c1.4,0,3.4,0,6,0c2.6,0,3.9,0,4.1,0
				c0.4,0,0.7,0.2,0.7,0.7c0,1.3-0.3,2.5-0.8,3.6h-9.9v19.9c0,2.2,0.5,3.9,1.4,5c0.9,1.2,2.2,1.7,3.9,1.7c0.5,0,1.1-0.1,1.7-0.2
				c0.6-0.1,1.1-0.3,1.5-0.5c0.4-0.2,0.7-0.3,1.1-0.5c0.3-0.2,0.5-0.2,0.6-0.2c0.2-0.1,0.5,0.2,0.7,0.7c0.3,0.6,0.4,0.9,0.3,1.1
				c-0.3,0.8-1.5,1.7-3.5,2.7c-2,1-4,1.5-5.9,1.5c-2.9,0-5.3-0.9-7.3-2.8c-2-1.8-3-4.7-3-8.6V140.7z"/>
			<path class="st4" d="M230.9,134.9c3.4,0,6,0.9,7.7,2.7c1.7,1.8,2.6,4.9,2.6,9.2v16.3c0,1.1,0.2,1.9,0.7,2.5
				c0.5,0.6,1.2,0.9,2,0.9s1.8-0.4,2.8-1.1c0.3,0.1,0.5,0.4,0.5,0.9c0,1.1-0.2,1.9-0.5,2.5c-0.8,0.7-1.9,1.4-3.3,2.1
				c-1.4,0.7-2.7,1.1-4,1.1c-1.3,0-2.5-0.5-3.7-1.4c-1.2-0.9-2-2-2.4-3.1c-0.1,0.1-0.3,0.2-0.6,0.5c-0.4,0.3-0.9,0.7-1.5,1.1
				c-0.6,0.4-1.3,0.9-2.1,1.3c-0.8,0.4-1.7,0.8-2.8,1.1c-1.1,0.3-2.2,0.5-3.3,0.5c-2.8,0-5-0.8-6.7-2.3c-1.7-1.5-2.6-3.6-2.6-6.2
				c0-1.3,0.3-2.6,1-3.7c0.6-1.2,1.4-2.1,2.3-2.9c0.9-0.7,2.1-1.5,3.6-2.2c1.5-0.7,2.8-1.3,3.8-1.6c1.1-0.4,2.5-0.8,4.1-1.3
				c1.7-0.5,2.9-0.9,3.5-1.1c0.5-0.2,0.7-0.7,0.7-1.3v-4.5c0-1.9-0.4-3.4-1.3-4.5c-0.9-1.1-2.1-1.7-3.6-1.7c-1.7,0-2.9,0.5-3.9,1.5
				c-0.9,1-1.4,2.5-1.4,4.3c0,1.1-0.4,1.9-1.2,2.4s-1.8,0.8-2.8,0.8c-2,0-3.5-0.7-4.3-2c0-2.6,1.8-5.1,5.4-7.4
				C223.1,136.1,226.9,134.9,230.9,134.9z M227.1,166.6c1.5,0,2.8-0.4,3.8-1.2c1.1-0.8,1.6-1.7,1.6-2.6v-8.4
				c-0.4,0.2-1.2,0.4-2.4,0.8c-1.2,0.4-2.2,0.7-2.8,1c-0.7,0.3-1.4,0.7-2.3,1.2c-0.9,0.5-1.5,1.1-1.9,1.8s-0.6,1.5-0.6,2.3
				c0,1.8,0.4,3.1,1.3,3.9C224.6,166.2,225.8,166.6,227.1,166.6z"/>
			<path class="st4" d="M275.1,134.9c3,0,5.3,0.9,6.8,2.7c0,4.7-1.3,7-4,7c-1,0-2.1-0.5-3.2-1.7c-1.2-1.1-2.3-1.7-3.6-1.7
				c-1.7,0-3,0.9-4,2.6c-1,1.7-1.4,3.5-1.4,5.4v10.3c0,3.4,0.2,5.8,0.6,7.4c0.1,0.4,0.8,0.8,2.2,1.2c1.3,0.4,2.3,0.6,2.8,0.6
				c0.2,0,0.3,0.4,0.3,1.2c0,0.8,0,1.3,0,1.6c-0.4-0.1-1.9-0.2-4.4-0.3s-4.4-0.2-5.6-0.2c-1.3,0-3.2,0.1-5.7,0.2
				c-2.5,0.2-4,0.3-4.4,0.3c-0.2-0.2-0.3-0.7-0.3-1.6s0.1-1.2,0.3-1.2c0.7,0,1.7-0.2,3-0.6c1.3-0.4,2.1-0.8,2.2-1.2
				c0.4-1.7,0.6-3.7,0.6-6v-13.5c0-2.6-0.4-4.3-1.3-5.3c-0.4-0.5-1.1-1-1.9-1.2c-0.8-0.3-1.5-0.4-2-0.5c-0.5-0.1-0.8-0.1-0.8-0.2
				c0-1.6,0.1-2.4,0.4-2.5c2.5-0.2,7-1,13.3-2.5c0.4-0.1,0.6-0.2,0.7-0.2c0.2,0,0.4,0.2,0.6,0.6c0.2,0.4,0.2,0.7,0.2,1
				c0,0.2-0.1,0.6-0.1,1.2c-0.1,0.5-0.1,1.1-0.2,1.7c-0.1,0.6-0.1,1-0.1,1.1c1-1.5,2.3-2.8,4-4C271.6,135.5,273.3,134.9,275.1,134.9
				z"/>
			<path class="st4" d="M291.2,140.7h-5c-0.4,0-0.6-0.7-0.6-2.1c0-0.4,0-0.6,0.1-0.7c2.2-1,4.3-2.4,6.4-4.4c0.7-0.7,1.5-1.5,2.4-2.4
				c0.9-0.9,1.9-2.1,3-3.5c0.5,0,1.1,0.1,1.6,0.2c0.5,0.1,0.7,0.3,0.7,0.5v8.1c1.4,0,3.4,0,6,0c2.6,0,3.9,0,4.1,0
				c0.4,0,0.7,0.2,0.7,0.7c0,1.3-0.3,2.5-0.8,3.6h-9.9v19.9c0,2.2,0.5,3.9,1.4,5c0.9,1.2,2.2,1.7,3.9,1.7c0.5,0,1.1-0.1,1.7-0.2
				c0.6-0.1,1.1-0.3,1.5-0.5c0.4-0.2,0.7-0.3,1.1-0.5c0.3-0.2,0.5-0.2,0.6-0.2c0.2-0.1,0.5,0.2,0.7,0.7c0.3,0.6,0.4,0.9,0.3,1.1
				c-0.3,0.8-1.5,1.7-3.5,2.7c-2,1-4,1.5-5.9,1.5c-2.9,0-5.3-0.9-7.3-2.8c-2-1.8-3-4.7-3-8.6V140.7z"/>
			<path class="st4" d="M332.2,134.9c2.6,0,4.9,0.5,6.9,1.5c2,1,3.6,2.3,4.8,3.9c1.2,1.6,2,3.2,2.6,4.9c0.6,1.7,0.9,3.3,0.9,4.8
				c0,1.2-0.2,2-0.6,2.3c-0.4,0.3-1.3,0.5-2.5,0.5h-19.7c-0.4,0-0.6,0.2-0.6,0.5c0,2,0.4,3.9,1.1,5.8c0.7,1.9,1.9,3.5,3.7,4.9
				c1.7,1.4,3.8,2.1,6.2,2.1c0.8,0,1.6,0,2.4-0.1c0.8-0.1,1.5-0.2,2.1-0.4c0.7-0.2,1.2-0.4,1.7-0.5c0.5-0.2,1-0.4,1.5-0.7
				c0.5-0.3,0.9-0.6,1.1-0.7c0.2-0.1,0.8-0.5,1.7-1.1c0.1,0.1,0.2,0.2,0.4,0.5c0.2,0.3,0.2,0.6,0.2,0.8c0,0.6-0.2,1.1-0.5,1.6
				c-0.8,1.5-2.5,3-4.9,4.5c-2.4,1.5-5.2,2.2-8.2,2.2c-4.8,0-8.9-1.8-12.4-5.3c-3.5-3.6-5.2-7.9-5.2-12.9c0-5.6,1.6-10.1,4.8-13.5
				S327.3,134.9,332.2,134.9z M331.7,138.7c-1.3,0-2.5,0.4-3.6,1.2c-1,0.8-1.8,1.7-2.4,2.8c-0.6,1.1-1,2.1-1.2,3.1
				c-0.2,1-0.4,1.8-0.4,2.4c0,0.4,0.2,0.6,0.5,0.6H338c0.5,0,0.7-0.4,0.7-1.2c0-1.9-0.6-3.9-1.9-5.9
				C335.5,139.7,333.8,138.7,331.7,138.7z"/>
			<path class="st4" d="M369.9,134.8c2.4,0,4.4,0.4,6,1.2c0.3,0,0.4-0.4,0.4-1.3v-7.8c0-2.1-0.2-4-0.5-5.6c-0.3-0.9-1.7-1.3-4.3-1.3
				h-0.7c-0.3,0-0.5-0.4-0.5-1.3c0-0.9,0.2-1.3,0.5-1.3c1.7-0.2,3.3-0.4,4.8-0.7c1.6-0.3,2.9-0.5,3.9-0.8c1-0.3,1.9-0.5,2.6-0.8
				c0.7-0.3,1.3-0.5,1.7-0.6c0.4-0.1,0.6-0.2,0.7-0.2h0.2c0.2,0,0.4,0.2,0.7,0.5c0.2,0.3,0.3,0.6,0.3,0.9c-0.6,2.1-0.8,4.7-0.8,7.8
				v36.3c0,2.5,0.2,4.6,0.5,6.1c0.1,0.4,0.3,0.7,0.8,0.9c0.5,0.2,1,0.4,1.6,0.4c0.5,0.1,1.1,0.1,1.6,0.1c0.5,0,0.8,0,0.8,0
				c0.1,0.1,0.2,0.4,0.2,1c0,1.1-0.2,1.7-0.5,1.7c-0.8,0.1-1.8,0.2-2.9,0.3c-1.2,0.2-2.3,0.3-3.5,0.5c-1.1,0.2-2.2,0.4-3.2,0.6
				c-1,0.2-2.2,0.4-3.4,0.7c-0.3,0-0.5-0.5-0.5-1.4v-1.4c0-0.2,0-0.3-0.1-0.3c-0.1-0.1-0.2-0.1-0.2,0c-2.6,2-5.5,3.1-8.6,3.1
				c-4.5,0-8.3-1.6-11.6-4.9c-3.3-3.3-5-7.4-5-12.4c0-5.5,1.9-10.1,5.7-14S364.7,134.8,369.9,134.8z M369.2,138.7
				c-2.9,0-5.1,1.2-6.6,3.7s-2.2,5.8-2.2,10c0,4.7,0.9,8.3,2.6,10.9c1.7,2.6,4.1,3.9,7.2,3.9c1.9,0,3.4-0.5,4.5-1.4
				c1.2-1,1.7-2.2,1.7-3.7v-17.3c0-0.5-0.1-1.1-0.3-1.7c-0.2-0.6-0.5-1.3-1-1.9c-0.5-0.7-1.2-1.3-2.2-1.7
				C371.8,139,370.6,138.7,369.2,138.7z"/>
		</g>
	</g>
</g>
<g id="Layer_2">
</g>
</svg>
