<?xml version="1.0" encoding="utf-8"?>
<!-- Generator: Adobe Illustrator 21.1.0, SVG Export Plug-In . SVG Version: 6.00 Build 0)  -->
<svg version="1.1" xmlns="http://www.w3.org/2000/svg" xmlns:xlink="http://www.w3.org/1999/xlink" x="0px" y="0px"
	 viewBox="0 0 724.8 192.5" style="enable-background:new 0 0 724.8 192.5;" xml:space="preserve">
<style type="text/css">
	.st0{fill:#F8EDF4;}
	.st1{fill:#FFFFFF;}
	.st2{fill:#FAEFE6;}
	.st3{fill:#1414EF;}
	.st4{fill:#FFFFFF;stroke:#1414EF;stroke-width:1.2;stroke-miterlimit:10;}
	.st5{fill:#EB7975;}
	.st6{fill:#606060;}
	.st7{fill:none;}
	.st8{fill:none;stroke:#1414EF;stroke-width:1.5;stroke-miterlimit:10;}
	.st9{fill:none;stroke:#1414EF;stroke-width:1.5;stroke-linejoin:bevel;stroke-miterlimit:10;}
	.st10{fill:#FFFFFF;stroke:#1414EF;stroke-width:1.2587;stroke-miterlimit:10;}
	.st11{fill:#FFFFFF;stroke:#1414EF;stroke-width:2;stroke-miterlimit:10;}
	.st12{fill:none;stroke:#1414EF;stroke-width:3.025;stroke-miterlimit:10;}
	.st13{fill:none;stroke:#1414EF;stroke-width:3.025;stroke-linejoin:bevel;stroke-miterlimit:10;}
	.st14{fill:none;stroke:#1414EF;stroke-width:15;stroke-miterlimit:10;}
	.st15{fill:#EB7975;stroke:#FAEFE6;stroke-width:1.4;stroke-miterlimit:10;}
</style>
<g id="Layer_1">
	<g>
		<path class="st3" d="M14.8,6c1.1,0.9,1.6,2.3,1.6,4s-0.5,3.1-1.6,4c-1.1,0.9-2.6,1.4-4.5,1.4H7.5v6.1H4.4V4.6h6
			C12.3,4.6,13.7,5,14.8,6z M10.3,12.6c1,0,1.7-0.3,2.2-0.8c0.5-0.5,0.7-1.1,0.7-1.9S13,8.5,12.5,8c-0.5-0.5-1.2-0.8-2.2-0.8H7.5
			v5.4H10.3z"/>
		<path class="st3" d="M24,14.1c1,0,2.2,0.2,3.5,0.5v-1.2c0-0.9-0.2-1.5-0.5-2c-0.4-0.4-0.9-0.6-1.7-0.6s-1.4,0.2-1.9,0.5
			s-0.6,0.8-0.6,1.4h-3.4c0-1.4,0.5-2.5,1.5-3.1c1-0.6,2.4-1,4.3-1c2.6,0,4.3,0.9,5,2.7c0.3,0.6,0.4,1.4,0.4,2.2v8h-2.7l-0.2-1.7
			c-0.8,1.4-2.1,2.1-3.7,2.1c-1.6,0-2.9-0.4-3.8-1.2c-0.8-0.8-1.2-1.7-1.2-2.9c0-1.2,0.5-2.1,1.4-2.7S22.4,14.1,24,14.1z M27.5,16.5
			c-1-0.3-2-0.4-2.9-0.4c-1.7,0-2.5,0.6-2.5,1.7c0,0.5,0.2,0.9,0.6,1.2c0.4,0.3,1,0.5,1.8,0.5c0.8,0,1.5-0.3,2.1-0.8
			C27.2,18.1,27.4,17.3,27.5,16.5z"/>
		<path class="st3" d="M38.3,11.3c0.8-1.8,1.9-2.7,3.4-2.7c0.3,0,0.7,0.1,1.1,0.2l-0.1,3.1c-0.5-0.1-1-0.2-1.4-0.2
			c-2,0-3.1,1.4-3.1,4.2v5.5h-3.1V8.8h3.1V11.3z"/>
		<path class="st3" d="M53.5,21.1c-1.1,0.5-2,0.7-2.7,0.7c-0.7,0-1.2-0.1-1.7-0.2c-0.5-0.2-0.9-0.4-1.3-0.7
			c-0.8-0.7-1.2-1.7-1.2-2.9v-7.1h-1.8V8.8h1.8V5.5h3.1v3.3H53v2.1h-3.4v7c0,1,0.5,1.6,1.5,1.6c0.5,0,1.2-0.1,1.9-0.4L53.5,21.1z"/>
		<path class="st3" d="M69.3,7c-1.9,0-3,0.7-3.3,2.2h-3.2c0.2-1.7,0.8-2.9,2-3.8c1.1-0.8,2.6-1.2,4.4-1.2c1.9,0,3.4,0.4,4.5,1.3
			c1.2,0.9,1.8,2,1.8,3.4c0,0.9-0.2,1.6-0.7,2.2s-1.2,1.1-2.1,1.4c1,0.3,1.8,0.9,2.5,1.5s0.9,1.5,0.9,2.4c0,0.9-0.2,1.6-0.5,2.3
			c-0.3,0.6-0.8,1.2-1.4,1.6c-1.2,1-2.9,1.4-4.9,1.4c-1.9,0-3.5-0.5-4.8-1.5c-1.5-1.1-2.2-2.5-2.2-4.2h3.3c0.1,0.9,0.4,1.6,1.1,2.1
			c0.7,0.5,1.5,0.8,2.6,0.8c1.1,0,1.9-0.2,2.5-0.7s0.9-1.1,0.9-1.8c0-0.7-0.3-1.3-0.8-1.7s-1.4-0.6-2.6-0.6h-2.2v-2.4h1.9
			c1,0,1.8-0.2,2.3-0.6c0.6-0.4,0.8-1,0.8-1.7S72,8.1,71.5,7.7C71.1,7.2,70.3,7,69.3,7z"/>
		<path class="st4" d="M14.5,42.1h14.3c9,0,16,2.6,21,7.9c5,5.3,7.6,11.5,7.6,18.7c0,7.9-2.5,14.6-7.6,20c-5.1,5.4-12.1,8.1-21,8.1
			c-1.2,0-3.4-0.1-6.8-0.2c-3.4-0.1-5.8-0.2-7.3-0.2l-11,0.3c-0.2-0.2-0.2-0.6-0.2-1.3c0-0.9,0.1-1.4,0.2-1.4c0.7,0,1.8-0.2,3.1-0.5
			c1.4-0.4,2.2-0.8,2.4-1.3c0.4-1.2,0.6-3.7,0.6-7.5V53.4c0-3.3-0.2-5.6-0.6-6.8C9,46,8.2,45.5,6.8,45.1c-1.4-0.4-2.5-0.6-3.3-0.6
			c-0.2,0-0.3-0.4-0.3-1.2c0-0.8,0.1-1.3,0.3-1.5C7.2,42,10.8,42.1,14.5,42.1z M19.1,52.7V85c0,3.1,0.3,5.1,0.9,6.1
			c0.9,0.9,4.2,1.3,10.1,1.3c11.2,0,16.8-8,16.8-24.1c0-6.2-1.5-11.4-4.5-15.7c-3-4.3-7.3-6.4-12.8-6.4h-0.4c-5.3,0-8.3,0.4-8.9,1.3
			C19.4,48.5,19.1,50.2,19.1,52.7z"/>
		<path class="st4" d="M78.8,59.9c2.6,0,4.9,0.5,6.9,1.5c2,1,3.6,2.3,4.8,3.9c1.2,1.6,2,3.2,2.6,4.9c0.6,1.7,0.9,3.3,0.9,4.8
			c0,1.2-0.2,2-0.6,2.3c-0.4,0.3-1.3,0.5-2.5,0.5H71.2c-0.4,0-0.6,0.2-0.6,0.5c0,2,0.4,3.9,1.1,5.8c0.7,1.9,1.9,3.5,3.7,4.9
			c1.7,1.4,3.8,2.1,6.2,2.1c0.8,0,1.6,0,2.4-0.1c0.8-0.1,1.5-0.2,2.1-0.4c0.7-0.2,1.2-0.4,1.7-0.5c0.5-0.2,1-0.4,1.5-0.7
			c0.5-0.3,0.9-0.6,1.1-0.7c0.2-0.1,0.8-0.5,1.7-1.1c0.1,0.1,0.2,0.2,0.4,0.5c0.2,0.3,0.2,0.6,0.2,0.8c0,0.6-0.2,1.1-0.5,1.6
			c-0.8,1.5-2.5,3-4.9,4.5c-2.4,1.5-5.2,2.2-8.2,2.2c-4.8,0-8.9-1.8-12.4-5.3c-3.5-3.6-5.2-7.9-5.2-12.9c0-5.6,1.6-10.1,4.8-13.5
			S73.8,59.9,78.8,59.9z M78.2,63.7c-1.3,0-2.5,0.4-3.6,1.2c-1,0.8-1.8,1.7-2.4,2.8c-0.6,1.1-1,2.1-1.2,3.1c-0.2,1-0.4,1.8-0.4,2.4
			c0,0.4,0.2,0.6,0.5,0.6h13.4c0.5,0,0.7-0.4,0.7-1.2c0-1.9-0.6-3.9-1.9-5.9C82.1,64.7,80.4,63.7,78.2,63.7z"/>
		<path class="st4" d="M115.6,59.9c2.9,0,5.5,0.5,7.8,1.4c2.3,1,3.9,2,4.9,3.2c0,1.9-0.3,3.4-1,4.7c-0.6,1.2-1.6,1.9-2.8,1.9
			c-1,0-1.9-0.3-2.5-0.8c-0.6-0.5-1.3-1.5-1.9-2.7c-1.3-2.5-3.1-3.8-5.5-3.8c-2.4,0-4.3,1.2-5.7,3.6s-2.1,5.4-2.1,9
			c0,5,1,8.6,3.1,11c2,2.4,4.6,3.6,7.8,3.6c0.8,0,1.6,0,2.4-0.1c0.8-0.1,1.5-0.2,2.1-0.4c0.7-0.2,1.2-0.4,1.7-0.5
			c0.5-0.2,1-0.4,1.5-0.7c0.5-0.3,0.9-0.6,1.1-0.7c0.2-0.1,0.8-0.5,1.7-1.1c0.1,0.1,0.2,0.2,0.4,0.5c0.2,0.3,0.2,0.6,0.2,0.8
			c0,0.6-0.2,1.1-0.5,1.6c-0.8,1.5-2.5,3-4.9,4.5c-2.4,1.5-5.1,2.2-8.1,2.2c-4.9,0-9.1-1.8-12.5-5.4c-3.4-3.6-5.2-8-5.2-13.1
			c0-5,1.7-9.3,5-13C106,61.8,110.3,59.9,115.6,59.9z"/>
		<path class="st4" d="M148.2,84.5c0,3.4,0.2,5.9,0.6,7.4c0.1,0.4,0.8,0.8,2,1.3c1.2,0.5,2.1,0.7,2.5,0.7c0.2,0,0.3,0.4,0.3,1.2
			c0,0.8,0,1.3-0.1,1.6c-0.8-0.1-1.8-0.1-3.1-0.2c-1.3-0.1-2.5-0.2-3.5-0.2c-1-0.1-2-0.1-3-0.1c-1,0-2.1,0-3.1,0.1
			c-1,0.1-2.2,0.1-3.5,0.2c-1.3,0.1-2.3,0.2-3.1,0.2c-0.2-0.2-0.3-0.7-0.3-1.5c0-0.8,0.1-1.2,0.3-1.2c0.6,0,1.5-0.2,2.8-0.7
			c1.2-0.5,1.9-0.9,2-1.3c0.4-1.9,0.7-4,0.7-6.1V51.5c0-2.1-0.2-4-0.5-5.6c-0.3-0.9-1.7-1.3-4.1-1.3h-0.8c-0.3,0-0.5-0.3-0.5-1
			c0-0.9,0.2-1.3,0.5-1.3c1.7-0.2,3.3-0.4,4.9-0.7c1.5-0.3,2.8-0.5,3.8-0.8c1-0.3,1.9-0.5,2.6-0.8c0.7-0.2,1.3-0.5,1.8-0.6l0.6-0.2
			h0.2c0.2,0,0.5,0.2,0.7,0.5c0.2,0.3,0.4,0.6,0.5,0.8c-0.7,2.1-1,4.7-1,7.8V84.5z"/>
		<path class="st4" d="M175.5,59.9c3.4,0,6,0.9,7.7,2.7c1.7,1.8,2.6,4.9,2.6,9.2v16.3c0,1.1,0.2,1.9,0.7,2.5c0.5,0.6,1.2,0.9,2,0.9
			s1.8-0.4,2.8-1.1c0.3,0.1,0.5,0.4,0.5,0.9c0,1.1-0.2,1.9-0.5,2.5c-0.8,0.7-1.9,1.4-3.3,2.1c-1.4,0.7-2.7,1.1-4,1.1
			c-1.3,0-2.5-0.5-3.7-1.4c-1.2-0.9-2-2-2.4-3.1c-0.1,0.1-0.3,0.2-0.6,0.5c-0.4,0.3-0.9,0.7-1.5,1.1c-0.6,0.4-1.3,0.9-2.1,1.3
			c-0.8,0.4-1.7,0.8-2.8,1.1c-1.1,0.3-2.2,0.5-3.3,0.5c-2.8,0-5-0.8-6.7-2.3c-1.7-1.5-2.6-3.6-2.6-6.2c0-1.3,0.3-2.6,1-3.7
			c0.6-1.2,1.4-2.1,2.3-2.9c0.9-0.7,2.1-1.5,3.6-2.2c1.5-0.7,2.8-1.3,3.8-1.6c1.1-0.4,2.5-0.8,4.1-1.3c1.7-0.5,2.9-0.9,3.5-1.1
			c0.5-0.2,0.7-0.7,0.7-1.3v-4.5c0-1.9-0.4-3.4-1.3-4.5c-0.9-1.1-2.1-1.7-3.6-1.7c-1.7,0-2.9,0.5-3.9,1.5c-0.9,1-1.4,2.5-1.4,4.3
			c0,1.1-0.4,1.9-1.2,2.4s-1.8,0.8-2.8,0.8c-2,0-3.5-0.7-4.3-2c0-2.6,1.8-5.1,5.4-7.4C167.8,61.1,171.6,59.9,175.5,59.9z
			 M171.8,91.6c1.5,0,2.8-0.4,3.8-1.2c1.1-0.8,1.6-1.7,1.6-2.6v-8.4c-0.4,0.2-1.2,0.4-2.4,0.8c-1.2,0.4-2.2,0.7-2.8,1
			c-0.7,0.3-1.4,0.7-2.3,1.2c-0.9,0.5-1.5,1.1-1.9,1.8s-0.6,1.5-0.6,2.3c0,1.8,0.4,3.1,1.3,3.9C169.3,91.2,170.4,91.6,171.8,91.6z"
			/>
		<path class="st4" d="M219.7,59.9c3,0,5.3,0.9,6.8,2.7c0,4.7-1.3,7-4,7c-1,0-2.1-0.5-3.2-1.7c-1.2-1.1-2.3-1.7-3.6-1.7
			c-1.7,0-3,0.9-4,2.6c-1,1.7-1.4,3.5-1.4,5.4v10.3c0,3.4,0.2,5.8,0.6,7.4c0.1,0.4,0.8,0.8,2.2,1.2c1.3,0.4,2.3,0.6,2.8,0.6
			c0.2,0,0.3,0.4,0.3,1.2c0,0.8,0,1.3,0,1.6c-0.4-0.1-1.9-0.2-4.4-0.3s-4.4-0.2-5.6-0.2c-1.3,0-3.2,0.1-5.7,0.2
			c-2.5,0.2-4,0.3-4.4,0.3c-0.2-0.2-0.3-0.7-0.3-1.6s0.1-1.2,0.3-1.2c0.7,0,1.7-0.2,3-0.6c1.3-0.4,2.1-0.8,2.2-1.2
			c0.4-1.7,0.6-3.7,0.6-6V72.6c0-2.6-0.4-4.3-1.3-5.3c-0.4-0.5-1.1-1-1.9-1.2c-0.8-0.3-1.5-0.4-2-0.5c-0.5-0.1-0.8-0.1-0.8-0.2
			c0-1.6,0.1-2.4,0.4-2.5c2.5-0.2,7-1,13.3-2.5c0.4-0.1,0.6-0.2,0.7-0.2c0.2,0,0.4,0.2,0.6,0.6c0.2,0.4,0.2,0.7,0.2,1
			c0,0.2-0.1,0.6-0.1,1.2c-0.1,0.5-0.1,1.1-0.2,1.7c-0.1,0.6-0.1,1-0.1,1.1c1-1.5,2.3-2.8,4-4C216.2,60.5,218,59.9,219.7,59.9z"/>
		<path class="st4" d="M245.7,84.7c0,3.4,0.2,5.8,0.7,7.4c0.1,0.4,0.9,0.8,2.2,1.2c1.4,0.4,2.3,0.6,2.8,0.6c0.2,0,0.3,0.4,0.4,1.2
			c0,0.8,0,1.3-0.1,1.6c-0.4-0.1-1.9-0.2-4.4-0.3c-2.6-0.2-4.4-0.2-5.7-0.2c-1.4,0-3.3,0.1-5.8,0.2c-2.5,0.2-4,0.3-4.3,0.3
			c-0.2-0.2-0.3-0.7-0.3-1.6s0.1-1.2,0.3-1.2c0.6,0,1.6-0.2,3-0.6c1.4-0.4,2.1-0.8,2.2-1.2c0.4-1.7,0.6-3.7,0.6-6V72.6
			c0-2.6-0.4-4.3-1.3-5.3c-0.5-0.5-1.1-1-1.9-1.2c-0.8-0.3-1.4-0.4-2-0.5c-0.6-0.1-0.8-0.1-0.8-0.2c0-1.6,0.2-2.4,0.5-2.5
			c1.5-0.1,3.8-0.4,6.7-1c2.9-0.5,5.1-1,6.5-1.5c0.1,0,0.3-0.1,0.7-0.2c0.3,0,0.5,0.2,0.7,0.6c0.2,0.4,0.2,0.7,0.2,0.9
			c-0.4,3.5-0.7,5.9-0.7,7.1V84.7z M237.2,50.1c-1-1-1.5-2.2-1.5-3.6c0-1.4,0.5-2.6,1.5-3.6s2.2-1.5,3.6-1.5c1.4,0,2.6,0.5,3.6,1.5
			s1.5,2.2,1.5,3.6c0,1.4-0.5,2.6-1.5,3.6c-1,1-2.2,1.5-3.6,1.5C239.4,51.7,238.1,51.2,237.2,50.1z"/>
		<path class="st4" d="M282.8,59.9c7.1,0,10.7,5.6,10.7,16.9v7.8c0,3.4,0.2,5.8,0.6,7.4c0.1,0.4,0.9,0.8,2.3,1.2
			c1.4,0.4,2.4,0.6,2.8,0.6c0.2,0,0.3,0.4,0.3,1.2c0,0.8,0,1.3-0.1,1.6c-0.3-0.1-1.8-0.2-4.3-0.3s-4.5-0.2-5.7-0.2
			c-1.3,0-3.2,0.1-5.5,0.2c-2.3,0.2-3.8,0.3-4.3,0.3c-0.2-0.2-0.3-0.7-0.3-1.6s0.1-1.2,0.3-1.2c0.6,0,1.5-0.2,2.8-0.6s1.9-0.8,2-1.2
			c0.4-1.7,0.7-3.7,0.7-6v-7.8c0-4.6-0.6-7.8-1.9-9.6s-3.2-2.7-5.9-2.7c-1.8,0-3.3,0.5-4.6,1.4c-1.3,1-2,2-2,3.1v14.2
			c0,3.4,0.2,5.8,0.6,7.4c0.1,0.4,0.8,0.8,2.2,1.2c1.3,0.4,2.2,0.6,2.7,0.6c0.2,0,0.3,0.4,0.4,1.2c0,0.8,0,1.3-0.1,1.6
			c-0.4-0.1-1.9-0.2-4.3-0.3c-2.5-0.2-4.3-0.2-5.6-0.2c-1.3,0-3.2,0.1-5.7,0.2c-2.5,0.2-4,0.3-4.4,0.3c-0.2-0.2-0.3-0.7-0.3-1.6
			s0.1-1.2,0.3-1.2c0.7,0,1.7-0.2,3-0.6c1.3-0.4,2.1-0.8,2.2-1.2c0.4-1.7,0.6-3.7,0.6-6V72.6c0-2.6-0.4-4.3-1.3-5.3
			c-0.4-0.5-1.1-1-1.9-1.2c-0.8-0.3-1.5-0.4-2-0.5c-0.5-0.1-0.8-0.1-0.8-0.2c0-1.6,0.1-2.4,0.4-2.5c2.5-0.2,7-1,13.3-2.5
			c0.1-0.1,0.1-0.1,0.2-0.1c0.1,0,0.2,0,0.2,0c0.1,0,0.2,0,0.2,0c0.2,0,0.4,0.2,0.6,0.6c0.2,0.4,0.2,0.7,0.2,0.9
			c-0.2,1.5-0.3,2.5-0.3,3c0,0.2,0,0.4,0.1,0.4c0.1,0,0.2-0.1,0.4-0.2c1.3-1.3,3-2.5,5.1-3.5C278.6,60.4,280.7,59.9,282.8,59.9z"/>
		<path class="st4" d="M319.9,60.1c2,0,4.3,0.4,6.9,1.1c2.6,0.7,4.8,1.1,6.6,1.1h4.7c0.1,0,0.3,0.4,0.6,1.1c0.3,0.7,0.4,1.3,0.4,1.7
			c0,0.8-0.2,1.2-0.5,1.2h-5.4c-0.2,0-0.3,0.1-0.3,0.2c0,0.1,0.2,0.8,0.7,2.1c0.5,1.4,0.7,2.7,0.7,4c0,3.2-1.4,6.2-4.1,8.8
			c-2.7,2.6-6.1,3.9-10.2,3.9c-2,0-3.7-0.1-5.1-0.3c-0.7,0.3-1.3,0.8-1.8,1.5c-0.6,0.7-0.8,1.4-0.8,2c0,0.6,0.3,1,0.8,1.4
			c0.5,0.4,1.3,0.7,2.4,0.8s2,0.3,2.8,0.3c0.8,0.1,1.9,0.1,3.3,0.2c0.6,0,1,0,1.2,0c5.5,0.2,9.5,0.9,12.1,2.3
			c2.6,1.4,3.8,3.4,3.8,6.1c0.1,4.1-1.9,7.7-5.9,10.7c-4,3-8.7,4.5-14,4.5c-4,0.1-7.5-0.7-10.5-2.3c-3-1.6-4.5-3.9-4.5-6.8
			c0-1.6,0.8-3.1,2.4-4.6c1.6-1.5,3.3-2.5,5.1-3.1c-1.4-0.4-2.8-1.3-4-2.5c-1.2-1.2-1.8-2.7-1.8-4.3c0-2.4,2-4.8,6.1-7.4
			c-1.6-0.7-3.1-2.1-4.5-4.3c-1.4-2.1-2.1-4.4-2.1-6.7c0-3.9,1.4-7,4.3-9.3C312.2,61.2,315.7,60.1,319.9,60.1z M331.3,103.3
			c0-1.9-1.4-3.2-4.2-3.8c-2.8-0.6-6.5-1-11.2-1c-0.1,0-0.2,0-0.4,0.1c-0.1,0.1-0.2,0.1-0.4,0.2c-0.7,0.3-1.3,0.5-1.7,0.7
			c-0.4,0.2-0.8,0.5-1.3,0.9s-0.9,0.9-1.1,1.4c-0.2,0.5-0.4,1.2-0.4,2c0,2,1,3.6,3.1,5c2.1,1.3,4.4,2,7,2c3.1,0,5.6-0.7,7.6-2.1
			C330.3,107.2,331.3,105.4,331.3,103.3z M313.6,72.1c0,2.7,0.5,5,1.7,6.8c1.1,1.8,2.6,2.8,4.6,2.8c2,0,3.5-0.8,4.5-2.4
			c1-1.6,1.4-3.5,1.4-5.8c0-2.9-0.6-5.3-1.7-7.1c-1.1-1.8-2.7-2.7-4.8-2.7c-2,0-3.4,0.9-4.4,2.6C314,67.9,313.6,69.9,313.6,72.1z"/>
		<path class="st4" d="M368.3,89.1c-5.2-5.5-7.8-12-7.8-19.7c0-7.7,2.6-14.3,7.8-19.8c5.2-5.5,11.4-8.2,18.7-8.2
			c7.3,0,13.5,2.7,18.7,8.2c5.2,5.5,7.8,12.1,7.8,19.8c0,7.7-2.6,14.3-7.8,19.7c-5.2,5.5-11.4,8.2-18.7,8.2
			C379.7,97.3,373.5,94.5,368.3,89.1z M385.8,45.4c-4.7,0-8.4,2.2-10.9,6.5c-2.5,4.3-3.8,9.5-3.8,15.7c0,4.1,0.6,8.1,1.7,11.8
			s3,7,5.7,9.7c2.7,2.7,5.9,4.1,9.7,4.1c4.7,0,8.3-2.2,10.9-6.6c2.6-4.4,3.8-9.6,3.8-15.7c0-4.2-0.6-8.2-1.7-11.9
			c-1.1-3.7-3-6.9-5.7-9.6C393,46.7,389.7,45.4,385.8,45.4z"/>
		<path class="st4" d="M454.1,68.8v16.4c0,2.6,0.2,4.6,0.7,5.8c0.2,0.3,0.5,0.5,1,0.7c0.5,0.2,1,0.3,1.4,0.3c0.5,0.1,1,0.1,1.4,0.1
			s0.6,0,0.7,0.1c0.2,0.1,0.3,0.3,0.3,0.7c0,0.2-0.1,0.6-0.2,1.1c-0.1,0.5-0.3,0.8-0.5,0.8c-0.8,0-1.7,0.1-2.9,0.3
			c-1.2,0.2-2.3,0.4-3.4,0.6c-1.1,0.2-2.1,0.4-3.1,0.6c-1,0.2-2.1,0.4-3.3,0.7c-0.4,0-0.6-0.4-0.6-1.3V92c-0.1-0.3-0.1-0.4-0.2-0.4
			c-1.3,1.4-2.9,2.6-5,3.7c-2.1,1.1-4.3,1.7-6.5,1.7c-1.9,0-3.5-0.5-4.9-1.4c-1.4-0.9-2.5-2.1-3.3-3.6c-0.8-1.5-1.4-3.1-1.7-4.8
			c-0.4-1.7-0.5-3.4-0.5-5.2v-9.3c0-2.6-0.4-4.3-1.3-5.3c-0.5-0.5-1.1-1-1.9-1.2c-0.8-0.3-1.4-0.4-2-0.5c-0.6-0.1-0.8-0.1-0.8-0.2
			c0-1.6,0.1-2.4,0.4-2.5c1.6-0.1,3.9-0.4,6.8-1c2.9-0.5,5.1-1,6.5-1.5c0.1,0,0.2,0,0.3-0.1c0.2-0.1,0.3-0.1,0.3-0.1
			c0.3,0,0.5,0.2,0.6,0.6c0.1,0.4,0.2,0.7,0.2,0.9c-0.5,3.7-0.7,6.2-0.7,7.3v9.9c0,4.3,0.6,7.4,1.8,9.3c1.2,1.9,3.2,2.8,5.9,2.8
			c1.8,0,3.2-0.5,4.5-1.6c1.2-1.1,1.8-2.1,1.8-3.1V72.6c0-2.6-0.4-4.3-1.3-5.3c-0.4-0.5-1.1-1-1.9-1.2c-0.8-0.3-1.5-0.4-2-0.5
			c-0.6-0.1-0.8-0.1-0.8-0.2c0-1.6,0.2-2.4,0.5-2.5c1.5-0.1,3.8-0.4,6.7-1c2.9-0.5,5.1-1,6.5-1.5c0.1,0,0.3-0.1,0.7-0.2
			c0.3,0,0.5,0.2,0.7,0.6c0.2,0.4,0.2,0.7,0.2,0.9C454.3,65.5,454.1,67.9,454.1,68.8z"/>
		<path class="st4" d="M488.1,59.9c3,0,5.3,0.9,6.8,2.7c0,4.7-1.3,7-4,7c-1,0-2.1-0.5-3.2-1.7c-1.2-1.1-2.3-1.7-3.6-1.7
			c-1.7,0-3,0.9-4,2.6c-1,1.7-1.4,3.5-1.4,5.4v10.3c0,3.4,0.2,5.8,0.6,7.4c0.1,0.4,0.8,0.8,2.2,1.2c1.3,0.4,2.3,0.6,2.8,0.6
			c0.2,0,0.3,0.4,0.3,1.2c0,0.8,0,1.3,0,1.6c-0.4-0.1-1.9-0.2-4.4-0.3s-4.4-0.2-5.6-0.2c-1.3,0-3.2,0.1-5.7,0.2
			c-2.5,0.2-4,0.3-4.4,0.3c-0.2-0.2-0.3-0.7-0.3-1.6s0.1-1.2,0.3-1.2c0.7,0,1.7-0.2,3-0.6c1.3-0.4,2.1-0.8,2.2-1.2
			c0.4-1.7,0.6-3.7,0.6-6V72.6c0-2.6-0.4-4.3-1.3-5.3c-0.4-0.5-1.1-1-1.9-1.2c-0.8-0.3-1.5-0.4-2-0.5c-0.5-0.1-0.8-0.1-0.8-0.2
			c0-1.6,0.1-2.4,0.4-2.5c2.5-0.2,7-1,13.3-2.5c0.4-0.1,0.6-0.2,0.7-0.2c0.2,0,0.4,0.2,0.6,0.6c0.2,0.4,0.2,0.7,0.2,1
			c0,0.2-0.1,0.6-0.1,1.2c-0.1,0.5-0.1,1.1-0.2,1.7c-0.1,0.6-0.1,1-0.1,1.1c1-1.5,2.3-2.8,4-4C484.6,60.5,486.3,59.9,488.1,59.9z"/>
		<path class="st4" d="M3.7,131c0-4.1,1.7-7.6,5.2-10.5c3.5-2.8,7.4-4.3,11.7-4.3c1.5,0,2.9,0.1,4,0.2c1.2,0.2,2.8,0.5,4.8,1
			c2.1,0.5,3.5,0.9,4.3,1c0.7,3.7,1,8,1,12.7c-0.1,0.5-0.4,0.7-1,0.7c-1.5,0-2.3-0.2-2.4-0.7c-0.3-2.5-1.5-5-3.6-7.4
			c-2-2.4-4.5-3.6-7.4-3.6c-2.5,0-4.5,0.7-5.8,2.1c-1.4,1.4-2,3.4-2,5.8c0,0.8,0.1,1.6,0.3,2.4c0.2,0.7,0.6,1.5,1.2,2.2
			c0.6,0.7,1,1.3,1.4,1.8c0.4,0.5,1,1.1,2.1,1.8c1,0.7,1.7,1.2,2.1,1.5c0.4,0.3,1.2,0.8,2.5,1.6c1.3,0.8,2.1,1.3,2.4,1.4
			c0.3,0.3,1.3,0.9,2.8,1.8c1.5,0.9,2.6,1.6,3.2,2c0.6,0.4,1.5,1.1,2.6,2.1c1.2,1,2,1.9,2.5,2.8c0.5,0.9,1,2,1.4,3.3
			c0.4,1.4,0.7,2.8,0.7,4.3c0,4.4-1.8,8-5.3,10.9c-3.6,2.9-7.7,4.3-12.4,4.3c-3.3,0-8.4-0.8-15.2-2.3c-0.5-2-1-4.5-1.4-7.5
			c-0.4-3-0.6-5-0.6-5.9c0.1-0.4,0.5-0.7,1.3-0.7c1.4,0,2.2,0.2,2.4,0.7c0.2,1,0.6,2.1,1.2,3.3c0.5,1.2,1.3,2.5,2.3,3.8
			c1,1.3,2.3,2.5,3.9,3.3c1.6,0.9,3.5,1.3,5.5,1.3c2.6,0,4.7-0.8,6.4-2.3c1.7-1.5,2.6-3.9,2.6-6.9c0-0.9-0.2-1.8-0.5-2.7
			c-0.4-0.9-0.8-1.6-1.2-2.2c-0.5-0.6-1.2-1.3-2.1-2c-0.9-0.7-1.7-1.3-2.3-1.7c-0.6-0.4-1.5-0.9-2.7-1.6c-1.2-0.7-2-1.2-2.5-1.4
			c-0.2-0.2-0.5-0.4-0.9-0.7c-1.6-1-2.8-1.8-3.6-2.3c-0.8-0.5-1.9-1.4-3.2-2.4s-2.3-2.1-2.9-3c-0.7-0.9-1.3-2.1-1.8-3.5
			C4,134,3.7,132.6,3.7,131z"/>
		<path class="st4" d="M58.9,134.9c2.6,0,4.9,0.5,6.9,1.5c2,1,3.6,2.3,4.8,3.9c1.2,1.6,2,3.2,2.6,4.9c0.6,1.7,0.9,3.3,0.9,4.8
			c0,1.2-0.2,2-0.6,2.3c-0.4,0.3-1.3,0.5-2.5,0.5H51.3c-0.4,0-0.6,0.2-0.6,0.5c0,2,0.4,3.9,1.1,5.8c0.7,1.9,1.9,3.5,3.7,4.9
			c1.7,1.4,3.8,2.1,6.2,2.1c0.8,0,1.6,0,2.4-0.1c0.8-0.1,1.5-0.2,2.1-0.4c0.7-0.2,1.2-0.4,1.7-0.5c0.5-0.2,1-0.4,1.5-0.7
			c0.5-0.3,0.9-0.6,1.1-0.7c0.2-0.1,0.8-0.5,1.7-1.1c0.1,0.1,0.2,0.2,0.4,0.5c0.2,0.3,0.2,0.6,0.2,0.8c0,0.6-0.2,1.1-0.5,1.6
			c-0.8,1.5-2.5,3-4.9,4.5c-2.4,1.5-5.2,2.2-8.2,2.2c-4.8,0-8.9-1.8-12.4-5.3c-3.5-3.6-5.2-7.9-5.2-12.9c0-5.6,1.6-10.1,4.8-13.5
			S54,134.9,58.9,134.9z M58.3,138.7c-1.3,0-2.5,0.4-3.6,1.2c-1,0.8-1.8,1.7-2.4,2.8c-0.6,1.1-1,2.1-1.2,3.1c-0.2,1-0.4,1.8-0.4,2.4
			c0,0.4,0.2,0.6,0.5,0.6h13.4c0.5,0,0.7-0.4,0.7-1.2c0-1.9-0.6-3.9-1.9-5.9C62.2,139.7,60.5,138.7,58.3,138.7z"/>
		<path class="st4" d="M105,134.9c7.1,0,10.7,5.6,10.7,16.9v7.8c0,3.4,0.2,5.8,0.6,7.4c0.1,0.4,0.9,0.8,2.3,1.2
			c1.4,0.4,2.4,0.6,2.8,0.6c0.2,0,0.3,0.4,0.3,1.2c0,0.8,0,1.3-0.1,1.6c-0.3-0.1-1.8-0.2-4.3-0.3s-4.5-0.2-5.7-0.2
			c-1.3,0-3.2,0.1-5.5,0.2c-2.3,0.2-3.8,0.3-4.3,0.3c-0.2-0.2-0.3-0.7-0.3-1.6s0.1-1.2,0.3-1.2c0.6,0,1.5-0.2,2.8-0.6s1.9-0.8,2-1.2
			c0.4-1.7,0.7-3.7,0.7-6v-7.8c0-4.6-0.6-7.8-1.9-9.6s-3.2-2.7-5.9-2.7c-1.8,0-3.3,0.5-4.6,1.4c-1.3,1-2,2-2,3.1v14.2
			c0,3.4,0.2,5.8,0.6,7.4c0.1,0.4,0.8,0.8,2.2,1.2c1.3,0.4,2.2,0.6,2.7,0.6c0.2,0,0.3,0.4,0.4,1.2c0,0.8,0,1.3-0.1,1.6
			c-0.4-0.1-1.9-0.2-4.3-0.3c-2.5-0.2-4.3-0.2-5.6-0.2c-1.3,0-3.2,0.1-5.7,0.2c-2.5,0.2-4,0.3-4.4,0.3c-0.2-0.2-0.3-0.7-0.3-1.6
			s0.1-1.2,0.3-1.2c0.7,0,1.7-0.2,3-0.6c1.3-0.4,2.1-0.8,2.2-1.2c0.4-1.7,0.6-3.7,0.6-6v-13.5c0-2.6-0.4-4.3-1.3-5.3
			c-0.4-0.5-1.1-1-1.9-1.2c-0.8-0.3-1.5-0.4-2-0.5c-0.5-0.1-0.8-0.1-0.8-0.2c0-1.6,0.1-2.4,0.4-2.5c2.5-0.2,7-1,13.3-2.5
			c0.1-0.1,0.1-0.1,0.2-0.1c0.1,0,0.2,0,0.2,0c0.1,0,0.2,0,0.2,0c0.2,0,0.4,0.2,0.6,0.6c0.2,0.4,0.2,0.7,0.2,0.9
			c-0.2,1.5-0.3,2.5-0.3,3c0,0.2,0,0.4,0.1,0.4c0.1,0,0.2-0.1,0.4-0.2c1.3-1.3,3-2.5,5.1-3.5C100.8,135.4,102.9,134.9,105,134.9z"/>
		<path class="st4" d="M131,140.7h-5c-0.4,0-0.6-0.7-0.6-2.1c0-0.4,0-0.6,0.1-0.7c2.2-1,4.3-2.4,6.4-4.4c0.7-0.7,1.5-1.5,2.4-2.4
			c0.9-0.9,1.9-2.1,3-3.5c0.5,0,1.1,0.1,1.6,0.2c0.5,0.1,0.7,0.3,0.7,0.5v8.1c1.4,0,3.4,0,6,0c2.6,0,3.9,0,4.1,0
			c0.4,0,0.7,0.2,0.7,0.7c0,1.3-0.3,2.5-0.8,3.6h-9.9v19.9c0,2.2,0.5,3.9,1.4,5c0.9,1.2,2.2,1.7,3.9,1.7c0.5,0,1.1-0.1,1.7-0.2
			c0.6-0.1,1.1-0.3,1.5-0.5c0.4-0.2,0.7-0.3,1.1-0.5c0.3-0.2,0.5-0.2,0.6-0.2c0.2-0.1,0.5,0.2,0.7,0.7c0.3,0.6,0.4,0.9,0.3,1.1
			c-0.3,0.8-1.5,1.7-3.5,2.7c-2,1-4,1.5-5.9,1.5c-2.9,0-5.3-0.9-7.3-2.8c-2-1.8-3-4.7-3-8.6V140.7z"/>
		<path class="st4" d="M169.9,159.7c0,3.4,0.2,5.8,0.7,7.4c0.1,0.4,0.9,0.8,2.2,1.2c1.4,0.4,2.3,0.6,2.8,0.6c0.2,0,0.3,0.4,0.4,1.2
			c0,0.8,0,1.3-0.1,1.6c-0.4-0.1-1.9-0.2-4.4-0.3c-2.6-0.2-4.4-0.2-5.7-0.2c-1.4,0-3.3,0.1-5.8,0.2c-2.5,0.2-4,0.3-4.3,0.3
			c-0.2-0.2-0.3-0.7-0.3-1.6s0.1-1.2,0.3-1.2c0.6,0,1.6-0.2,3-0.6c1.4-0.4,2.1-0.8,2.2-1.2c0.4-1.7,0.6-3.7,0.6-6v-13.5
			c0-2.6-0.4-4.3-1.3-5.3c-0.5-0.5-1.1-1-1.9-1.2c-0.8-0.3-1.4-0.4-2-0.5c-0.6-0.1-0.8-0.1-0.8-0.2c0-1.6,0.2-2.4,0.5-2.5
			c1.5-0.1,3.8-0.4,6.7-1c2.9-0.5,5.1-1,6.5-1.5c0.1,0,0.3-0.1,0.7-0.2c0.3,0,0.5,0.2,0.7,0.6c0.2,0.4,0.2,0.7,0.2,0.9
			c-0.4,3.5-0.7,5.9-0.7,7.1V159.7z M161.3,125.1c-1-1-1.5-2.2-1.5-3.6c0-1.4,0.5-2.6,1.5-3.6s2.2-1.5,3.6-1.5
			c1.4,0,2.6,0.5,3.6,1.5s1.5,2.2,1.5,3.6c0,1.4-0.5,2.6-1.5,3.6c-1,1-2.2,1.5-3.6,1.5C163.5,126.7,162.3,126.2,161.3,125.1z"/>
		<path class="st4" d="M207,134.9c2.1,0,3.9,0.5,5.4,1.6s2.6,2.5,3.3,4.2c1.6-1.7,3.6-3,6-4.1c2.4-1.1,5-1.7,7.8-1.7
			c2,0,3.7,0.4,5.1,1.3c1.4,0.9,2.5,2.1,3.3,3.7c0.8,1.6,1.4,3.3,1.7,5.1c0.4,1.8,0.5,3.8,0.5,6v8.7c0,3.4,0.2,5.8,0.6,7.4
			c0.1,0.4,0.9,0.8,2.2,1.2c1.4,0.4,2.3,0.6,2.8,0.6c0.2,0,0.3,0.4,0.3,1.2c0,0.8,0,1.3-0.1,1.6c-0.4-0.1-1.8-0.2-4.3-0.3
			c-2.5-0.2-4.4-0.2-5.7-0.2c-1.3,0-3.2,0.1-5.7,0.2c-2.5,0.2-3.9,0.3-4.4,0.3c-0.2-0.2-0.2-0.7-0.2-1.6s0.1-1.2,0.2-1.2
			c0.7,0,1.7-0.2,3-0.6c1.3-0.4,2-0.8,2.1-1.2c0.4-1.7,0.6-3.6,0.6-5.8v-8.4c0-8-2.6-12-7.7-12c-1.8,0-3.3,0.4-4.5,1.3
			c-1.2,0.9-1.9,1.7-2.1,2.6c0,0.2,0,0.4,0,0.7c0,0.3,0,0.5,0,0.7c0.2,1.2,0.2,2.9,0.2,5.1v8.8c0,3.1,0.2,5.5,0.6,7.1
			c0.1,0.4,0.9,0.8,2.2,1.2c1.4,0.4,2.3,0.6,2.8,0.6c0.2,0,0.3,0.4,0.3,1.2c0,0.8,0,1.3-0.1,1.6c-0.4-0.1-1.8-0.2-4.3-0.3
			c-2.5-0.2-4.4-0.2-5.7-0.2c-1.3,0-3.2,0.1-5.7,0.2c-2.5,0.2-3.9,0.3-4.4,0.3c-0.2-0.2-0.2-0.7-0.2-1.6s0.1-1.2,0.2-1.2
			c0.7,0,1.7-0.2,3-0.6c1.3-0.4,2-0.8,2.1-1.2c0.4-1.7,0.6-3.7,0.6-6v-7.9c0-4.3-0.6-7.4-1.9-9.3c-1.3-1.9-3.1-2.9-5.6-2.9
			c-1.7,0-3.2,0.5-4.5,1.4c-1.4,0.9-2.1,2-2.1,3.1v14.2c0,3.4,0.2,5.8,0.7,7.4c0.1,0.4,0.8,0.8,2.1,1.2c1.3,0.4,2.2,0.6,2.7,0.6
			c0.2,0,0.3,0.4,0.4,1.2c0,0.8,0,1.3-0.1,1.6c-0.4-0.1-1.9-0.2-4.3-0.3c-2.5-0.2-4.3-0.2-5.6-0.2c-1.4,0-3.3,0.1-5.8,0.2
			s-3.9,0.3-4.4,0.3c-0.2-0.2-0.3-0.7-0.3-1.6s0.1-1.2,0.3-1.2c0.6,0,1.6-0.2,3-0.6c1.4-0.4,2.1-0.8,2.2-1.2c0.4-1.7,0.6-3.7,0.6-6
			v-13.5c0-2.6-0.4-4.3-1.3-5.3c-0.4-0.5-1.1-1-1.9-1.2c-0.8-0.3-1.5-0.4-2-0.5c-0.6-0.1-0.8-0.1-0.8-0.2c0-1.6,0.2-2.4,0.5-2.5
			c2.5-0.2,6.9-1,13.2-2.5c0.1-0.1,0.1-0.1,0.2-0.1c0.1,0,0.2,0,0.4,0c0.3,0,0.5,0.2,0.7,0.6c0.2,0.4,0.2,0.7,0.2,0.9
			c-0.2,1.5-0.3,2.5-0.3,3c0,0.2,0.1,0.4,0.2,0.4c0.1,0,0.2-0.1,0.4-0.2c1.3-1.3,3-2.5,5.1-3.5C202.7,135.4,204.8,134.9,207,134.9z"
			/>
		<path class="st4" d="M266.6,134.9c2.6,0,4.9,0.5,6.9,1.5c2,1,3.6,2.3,4.8,3.9c1.2,1.6,2,3.2,2.6,4.9c0.6,1.7,0.9,3.3,0.9,4.8
			c0,1.2-0.2,2-0.6,2.3c-0.4,0.3-1.3,0.5-2.5,0.5H259c-0.4,0-0.6,0.2-0.6,0.5c0,2,0.4,3.9,1.1,5.8c0.7,1.9,1.9,3.5,3.7,4.9
			c1.7,1.4,3.8,2.1,6.2,2.1c0.8,0,1.6,0,2.4-0.1c0.8-0.1,1.5-0.2,2.1-0.4c0.7-0.2,1.2-0.4,1.7-0.5c0.5-0.2,1-0.4,1.5-0.7
			c0.5-0.3,0.9-0.6,1.1-0.7c0.2-0.1,0.8-0.5,1.7-1.1c0.1,0.1,0.2,0.2,0.4,0.5c0.2,0.3,0.2,0.6,0.2,0.8c0,0.6-0.2,1.1-0.5,1.6
			c-0.8,1.5-2.5,3-4.9,4.5c-2.4,1.5-5.2,2.2-8.2,2.2c-4.8,0-8.9-1.8-12.4-5.3c-3.5-3.6-5.2-7.9-5.2-12.9c0-5.6,1.6-10.1,4.8-13.5
			S261.7,134.9,266.6,134.9z M266,138.7c-1.3,0-2.5,0.4-3.6,1.2c-1,0.8-1.8,1.7-2.4,2.8c-0.6,1.1-1,2.1-1.2,3.1
			c-0.2,1-0.4,1.8-0.4,2.4c0,0.4,0.2,0.6,0.5,0.6h13.4c0.5,0,0.7-0.4,0.7-1.2c0-1.9-0.6-3.9-1.9-5.9
			C269.9,139.7,268.2,138.7,266,138.7z"/>
		<path class="st4" d="M312.7,134.9c7.1,0,10.7,5.6,10.7,16.9v7.8c0,3.4,0.2,5.8,0.6,7.4c0.1,0.4,0.9,0.8,2.3,1.2
			c1.4,0.4,2.4,0.6,2.8,0.6c0.2,0,0.3,0.4,0.3,1.2c0,0.8,0,1.3-0.1,1.6c-0.3-0.1-1.8-0.2-4.3-0.3s-4.5-0.2-5.7-0.2
			c-1.3,0-3.2,0.1-5.5,0.2c-2.3,0.2-3.8,0.3-4.3,0.3c-0.2-0.2-0.3-0.7-0.3-1.6s0.1-1.2,0.3-1.2c0.6,0,1.5-0.2,2.8-0.6s1.9-0.8,2-1.2
			c0.4-1.7,0.7-3.7,0.7-6v-7.8c0-4.6-0.6-7.8-1.9-9.6s-3.2-2.7-5.9-2.7c-1.8,0-3.3,0.5-4.6,1.4c-1.3,1-2,2-2,3.1v14.2
			c0,3.4,0.2,5.8,0.6,7.4c0.1,0.4,0.8,0.8,2.2,1.2c1.3,0.4,2.2,0.6,2.7,0.6c0.2,0,0.3,0.4,0.4,1.2c0,0.8,0,1.3-0.1,1.6
			c-0.4-0.1-1.9-0.2-4.3-0.3c-2.5-0.2-4.3-0.2-5.6-0.2c-1.3,0-3.2,0.1-5.7,0.2c-2.5,0.2-4,0.3-4.4,0.3c-0.2-0.2-0.3-0.7-0.3-1.6
			s0.1-1.2,0.3-1.2c0.7,0,1.7-0.2,3-0.6c1.3-0.4,2.1-0.8,2.2-1.2c0.4-1.7,0.6-3.7,0.6-6v-13.5c0-2.6-0.4-4.3-1.3-5.3
			c-0.4-0.5-1.1-1-1.9-1.2c-0.8-0.3-1.5-0.4-2-0.5c-0.5-0.1-0.8-0.1-0.8-0.2c0-1.6,0.1-2.4,0.4-2.5c2.5-0.2,7-1,13.3-2.5
			c0.1-0.1,0.1-0.1,0.2-0.1c0.1,0,0.2,0,0.2,0c0.1,0,0.2,0,0.2,0c0.2,0,0.4,0.2,0.6,0.6c0.2,0.4,0.2,0.7,0.2,0.9
			c-0.2,1.5-0.3,2.5-0.3,3c0,0.2,0,0.4,0.1,0.4c0.1,0,0.2-0.1,0.4-0.2c1.3-1.3,3-2.5,5.1-3.5C308.5,135.4,310.6,134.9,312.7,134.9z"
			/>
		<path class="st4" d="M338.7,140.7h-5c-0.4,0-0.6-0.7-0.6-2.1c0-0.4,0-0.6,0.1-0.7c2.2-1,4.3-2.4,6.4-4.4c0.7-0.7,1.5-1.5,2.4-2.4
			c0.9-0.9,1.9-2.1,3-3.5c0.5,0,1.1,0.1,1.6,0.2c0.5,0.1,0.7,0.3,0.7,0.5v8.1c1.4,0,3.4,0,6,0c2.6,0,3.9,0,4.1,0
			c0.4,0,0.7,0.2,0.7,0.7c0,1.3-0.3,2.5-0.8,3.6h-9.9v19.9c0,2.2,0.5,3.9,1.4,5c0.9,1.2,2.2,1.7,3.9,1.7c0.5,0,1.1-0.1,1.7-0.2
			c0.6-0.1,1.1-0.3,1.5-0.5c0.4-0.2,0.7-0.3,1.1-0.5c0.3-0.2,0.5-0.2,0.6-0.2c0.2-0.1,0.5,0.2,0.7,0.7c0.3,0.6,0.4,0.9,0.3,1.1
			c-0.3,0.8-1.5,1.7-3.5,2.7c-2,1-4,1.5-5.9,1.5c-2.9,0-5.3-0.9-7.3-2.8c-2-1.8-3-4.7-3-8.6V140.7z"/>
		<path class="st4" d="M376.3,134.8c3.1,0,6.3,0.5,9.6,1.4c0.6,2.5,0.9,5.6,0.9,9.3c0,0.4-0.4,0.7-1.1,0.7c-1.2,0-1.9-0.2-2-0.7
			c-0.4-1.9-1.2-3.6-2.4-4.9c-1.2-1.3-2.9-2-5-2c-1.6,0-2.8,0.4-3.8,1.1c-0.9,0.7-1.4,1.7-1.4,3.1c0,0.8,0.2,1.5,0.5,2.1
			c0.3,0.6,0.8,1.2,1.5,1.8c0.7,0.6,1.3,1,1.8,1.3s1.3,0.8,2.4,1.3c0.4,0.2,0.7,0.4,0.8,0.4c0.1,0.1,0.5,0.3,1.2,0.7
			c0.7,0.4,1.2,0.6,1.4,0.7c0.2,0.1,0.6,0.4,1.3,0.8c0.7,0.4,1.2,0.7,1.4,1c0.3,0.2,0.7,0.6,1.3,1c0.6,0.4,1,0.8,1.2,1.2
			c0.2,0.3,0.6,0.8,1,1.3c0.4,0.5,0.7,1,0.9,1.5c0.2,0.5,0.3,1,0.5,1.6c0.1,0.6,0.2,1.2,0.2,1.8c0,3.5-1.3,6.2-4,8.2
			c-2.7,2-5.9,3-9.7,3c-3.4,0-7-0.8-10.7-2.3c-0.3-0.9-0.6-2.5-0.8-4.6c-0.3-2.1-0.4-3.7-0.4-4.8c0.3-0.3,0.7-0.4,1.2-0.4
			c1.3,0,1.9,0.2,2,0.7c0.4,2.3,1.5,4.2,3.3,5.6c1.7,1.4,3.6,2.1,5.7,2.1c1.5,0,2.8-0.4,3.8-1.2c1-0.8,1.5-1.9,1.5-3.4
			c0-0.5-0.1-1.1-0.2-1.5c-0.1-0.5-0.4-0.9-0.8-1.4c-0.4-0.5-0.7-0.9-1-1.2c-0.2-0.3-0.7-0.7-1.5-1.1c-0.7-0.4-1.3-0.8-1.7-1
			c-0.4-0.2-1-0.5-2.1-1.1c-1-0.5-1.7-0.9-2.1-1.1c-2.5-1.3-4.5-2.8-5.9-4.4c-1.4-1.6-2.1-3.6-2.1-5.9c0-3.4,1.3-5.9,4-7.8
			C369.7,135.7,372.8,134.8,376.3,134.8z"/>
	</g>
</g>
<g id="Layer_2">
</g>
</svg>
