<svg id="Layer_1" data-name="Layer 1" xmlns="http://www.w3.org/2000/svg" viewBox="0 0 562.13 79.32"><defs><style>.cls-1{fill:#1928eb;}</style></defs><title>title</title><path class="cls-1" d="M449.07,28.47q.15,0,.23.71a1.69,1.69,0,0,1,0,.55l-4.9.31q-.77.09-1.61.22l-1.85.3-1.62.28a.76.76,0,0,1-.21-.52q-.08-.73.07-.75a6.14,6.14,0,0,0,1.41-.43q.95-.38,1-.7a13.57,13.57,0,0,0-.05-3.26l-.73-6.61-.09-.15q-3.62.32-5.08.48a46.25,46.25,0,0,0-5.28.78l.71,6.42a14.34,14.34,0,0,0,.73,3.42q.11.26,1.12.44a5.93,5.93,0,0,0,1.36.14c.1,0,.18.23.23.71a1.72,1.72,0,0,1,0,.55l-4.9.31q-.77.08-1.61.22l-1.85.3-1.62.28a.75.75,0,0,1-.21-.52q-.08-.73.07-.75a6.15,6.15,0,0,0,1.41-.43q.95-.38,1-.7a13.57,13.57,0,0,0-.05-3.26L425.12,12a11.66,11.66,0,0,0-.66-3.19q-.19-.29-1.14-.48a5.18,5.18,0,0,0-1.41-.14q-.15,0-.22-.56a1.56,1.56,0,0,1,0-.7l2.14-.12q2-.1,3-.21l4.89-.77a2,2,0,0,1,.18.6q.07.65-.08.67a6.3,6.3,0,0,0-1.35.46c-.67.28-1,.51-1,.7a14.34,14.34,0,0,0,.07,3.41l.62,5.61.09.11q3.77-.34,5.23-.5,1.61-.18,5.06-.64a.22.22,0,0,0,.06-.16l-.63-5.72a11.66,11.66,0,0,0-.66-3.19q-.19-.29-1.14-.48a5.19,5.19,0,0,0-1.42-.14c-.1,0-.18-.18-.22-.56a1.55,1.55,0,0,1,0-.7l2.15-.12q2-.1,3-.21l4.89-.78a2,2,0,0,1,.18.6q.07.65-.08.67a6.3,6.3,0,0,0-1.35.46q-1,.42-1,.7a14.34,14.34,0,0,0,.07,3.41l1.6,14.45a14.33,14.33,0,0,0,.73,3.42q.11.26,1.12.44A5.92,5.92,0,0,0,449.07,28.47Z"/><path class="cls-1" d="M11.65,52,21.9,71.18q.74,1.47,1.46,2.67a1.87,1.87,0,0,0,1.33.78,5.13,5.13,0,0,0,1.49.18q.15,0,.23.67a1.3,1.3,0,0,1,0,.58l-4.85.3-5,.78a1.09,1.09,0,0,1-.23-.69c0-.37,0-.56.09-.57a5,5,0,0,0,1.24-.37q.78-.32.9-.64a1.11,1.11,0,0,0,.06-.51,8.88,8.88,0,0,0-1-2.56l-1.73-3.41a.43.43,0,0,0-.28-.12q-1.23.06-3.3.28T8,69.14c-.15,0-.22.08-.21.18L6.68,73a11,11,0,0,0-.45,2.57.86.86,0,0,0,.51.72A3.86,3.86,0,0,0,8,76.62a6.65,6.65,0,0,0,1.19.06q.12,0,.17.52a2.51,2.51,0,0,1,0,.74L7.53,78q-1.62.06-2.62.17t-2.34.35L.65,78.9a.82.82,0,0,1-.22-.56q-.08-.69,0-.7a5.59,5.59,0,0,0,1.44-.49,2.38,2.38,0,0,0,1.2-.89,18.36,18.36,0,0,0,1.13-3.15l5.23-18a8.37,8.37,0,0,1,1.11-2.91,1,1,0,0,1,.62-.34A.63.63,0,0,1,11.65,52Zm-3,14.75q1.35,0,2.77-.19t3.13-.46l.06-.16L10.83,58.6l-2.3,8C8.54,66.7,8.57,66.75,8.62,66.74Z"/><path class="cls-1" d="M39.73,57.36q4.94-.54,5.8,7.31l.4,3.64a16.15,16.15,0,0,0,.65,3.42q.11.26,1.11.44a5.9,5.9,0,0,0,1.35.14c.08,0,.14.17.2.54a2.17,2.17,0,0,1,0,.75q-.23,0-2,.07t-2.67.18q-.92.1-2.53.39l-2,.37a1.13,1.13,0,0,1-.23-.71q-.06-.57.09-.59a4.59,4.59,0,0,0,1.25-.43q.83-.38.88-.66a11,11,0,0,0,0-2.83l-.4-3.64a8.36,8.36,0,0,0-1.35-4.35,3.1,3.1,0,0,0-2.88-1,3.56,3.56,0,0,0-2.07.91,1.85,1.85,0,0,0-.76,1.54l.72,6.59A16.15,16.15,0,0,0,36,72.89q.11.26,1.08.44a5.54,5.54,0,0,0,1.28.15c.1,0,.18.17.23.54a2.18,2.18,0,0,1,0,.75q-.31,0-2,.07T34,75q-.92.1-2.65.41t-2,.38a1.13,1.13,0,0,1-.23-.71q-.06-.57.09-.59a5.36,5.36,0,0,0,1.37-.44q.91-.39,1-.67a12.59,12.59,0,0,0,0-2.82l-.69-6.24a3.66,3.66,0,0,0-.88-2.38,1.86,1.86,0,0,0-.92-.48,4.38,4.38,0,0,0-.94-.13c-.25,0-.37,0-.38-.07q-.12-1.11.07-1.17a54.63,54.63,0,0,0,6-1.83.25.25,0,0,1,.09-.07l.11,0H34c.1,0,.2.07.3.24a1.17,1.17,0,0,1,.16.41,13.1,13.1,0,0,0,0,1.4.3.3,0,0,0,.06.19.57.57,0,0,0,.18-.14,8.52,8.52,0,0,1,2.18-1.87A6.74,6.74,0,0,1,39.73,57.36Z"/><path class="cls-1" d="M61,51.93a11.57,11.57,0,0,0-.66-3.18q-.19-.29-1.14-.48a5.18,5.18,0,0,0-1.41-.14q-.15,0-.22-.56a1.56,1.56,0,0,1,0-.7l2.14-.12q1.95-.1,3-.21.31,0,4.88-.77a2,2,0,0,1,.18.6c0,.43,0,.66-.08.67a6.26,6.26,0,0,0-1.35.46q-1,.42-1,.7a14.34,14.34,0,0,0,.06,3.4L66.9,66a14.31,14.31,0,0,0,.72,3.41q.11.26,1.11.44a5.89,5.89,0,0,0,1.35.14c.1,0,.18.23.23.71a1.74,1.74,0,0,1,0,.54l-4.89.3q-.77.08-1.6.21l-1.85.3-1.62.27a.75.75,0,0,1-.21-.52q-.08-.73.07-.74a6.14,6.14,0,0,0,1.41-.43q.95-.37,1-.69a13.45,13.45,0,0,0,0-3.25Z"/><path class="cls-1" d="M83.64,52.54q4.94-.54,5.8,7.31l.4,3.64a16.15,16.15,0,0,0,.65,3.42q.11.26,1.11.44a5.9,5.9,0,0,0,1.35.14c.08,0,.14.17.2.54a2.17,2.17,0,0,1,0,.75q-.23,0-2,.07T88.47,69q-.92.1-2.53.39l-2,.37a1.13,1.13,0,0,1-.23-.71q-.06-.57.09-.59a4.57,4.57,0,0,0,1.25-.43q.83-.38.88-.66a11,11,0,0,0,0-2.83l-.4-3.64a8.36,8.36,0,0,0-1.35-4.35,3.1,3.1,0,0,0-2.88-1,3.56,3.56,0,0,0-2.07.91,1.85,1.85,0,0,0-.76,1.54l.72,6.59a16.15,16.15,0,0,0,.65,3.42q.11.26,1.08.44a5.54,5.54,0,0,0,1.28.15c.1,0,.18.17.23.54a2.18,2.18,0,0,1,0,.75l-2,.07q-1.72.07-2.6.17t-2.65.41q-1.73.31-2,.38a1.13,1.13,0,0,1-.23-.71q-.06-.57.09-.59a5.36,5.36,0,0,0,1.37-.44q.91-.39,1-.67a12.59,12.59,0,0,0,0-2.82l-.69-6.24a3.66,3.66,0,0,0-.88-2.38,1.86,1.86,0,0,0-.92-.48,4.4,4.4,0,0,0-.94-.13c-.25,0-.37,0-.38-.08q-.12-1.11.07-1.17a54.66,54.66,0,0,0,6-1.83.25.25,0,0,1,.09-.07l.11,0h.1c.1,0,.2.07.3.24a1.17,1.17,0,0,1,.16.41,13.1,13.1,0,0,0,0,1.4.3.3,0,0,0,.06.19.57.57,0,0,0,.18-.14,8.52,8.52,0,0,1,2.18-1.87A6.74,6.74,0,0,1,83.64,52.54Z"/><path class="cls-1" d="M96.39,53.86l-2.34.26q-.27,0-.38-1a1,1,0,0,1,0-.35,10.78,10.78,0,0,0,2.73-2.35q.44-.55,1-1.25t1.22-1.78a2.73,2.73,0,0,1,.74,0c.24,0,.36.1.37.17l.41,3.75,2.78-.29,1.9-.19q.31,0,.35.31a3.74,3.74,0,0,1-.2,1.73l-4.6.5,1,9.23a3.66,3.66,0,0,0,.91,2.26,2.2,2.2,0,0,0,1.89.61,3.66,3.66,0,0,0,.79-.18,4.11,4.11,0,0,0,.67-.29l.47-.28a1.21,1.21,0,0,1,.26-.14q.15-.05.38.31t.21.48q-.17.56-1.49,1.42a6.07,6.07,0,0,1-2.66,1,4.86,4.86,0,0,1-3.53-.91,5.16,5.16,0,0,1-1.83-3.81Z"/><path class="cls-1" d="M118.89,48.67a3.84,3.84,0,0,1,3.28.92q.36,3.26-1.48,3.46a2.29,2.29,0,0,1-1.58-.6,2.41,2.41,0,0,0-1.73-.59,2.06,2.06,0,0,0-1.72,1.41,5.12,5.12,0,0,0-.4,2.58l.53,4.79a16.19,16.19,0,0,0,.65,3.42q.11.26,1.08.44a5.43,5.43,0,0,0,1.31.15c.08,0,.14.17.2.54a4,4,0,0,1,.06.75q-.31,0-2,.07t-2.62.17q-.92.1-2.65.41t-2,.38a1.13,1.13,0,0,1-.23-.71q-.06-.57.09-.59a5.37,5.37,0,0,0,1.37-.44q.91-.39,1-.67a12.56,12.56,0,0,0,0-2.82l-.69-6.24a3.66,3.66,0,0,0-.88-2.38,1.85,1.85,0,0,0-.92-.48,4.39,4.39,0,0,0-.94-.13c-.25,0-.37,0-.38-.07q-.12-1.11.06-1.17a54.56,54.56,0,0,0,6-1.83l.3-.11c.1,0,.2.07.3.24a.93.93,0,0,1,.14.43q0,.17,0,.54c0,.25,0,.5,0,.78a4.92,4.92,0,0,0,0,.52,7.07,7.07,0,0,1,1.67-2.06A4.22,4.22,0,0,1,118.89,48.67Z"/><path class="cls-1" d="M133.18,47.11a8.49,8.49,0,0,1,6.42,1.83,8.25,8.25,0,0,1,3.21,5.79,8.79,8.79,0,1,1-9.63-7.62Zm-.3,1.85a3.1,3.1,0,0,0-2.6,2,8.29,8.29,0,0,0-.54,4.26,11.24,11.24,0,0,0,1.84,5.26,3.84,3.84,0,0,0,3.72,1.92,3.14,3.14,0,0,0,2.62-2.07,8.19,8.19,0,0,0,.56-4.25,13.21,13.21,0,0,0-.9-3.64,6.79,6.79,0,0,0-1.92-2.68A3.57,3.57,0,0,0,132.89,49Z"/><path class="cls-1" d="M152.95,44.86a6.62,6.62,0,0,1,2.85.23q.19,0,.12-.63l-.4-3.6a13.42,13.42,0,0,0-.52-2.58q-.26-.59-2.06-.39l-.31,0q-.23,0-.3-.59t.16-.64q1.14-.24,2.21-.55t1.76-.58q.69-.27,1.18-.52l.75-.37.3-.13h.08a.42.42,0,0,1,.33.18.7.7,0,0,1,.2.39,14.73,14.73,0,0,0,0,3.64l1.85,16.85a14.13,14.13,0,0,0,.54,2.81.57.57,0,0,0,.43.38,2.35,2.35,0,0,0,.75.11l.73,0,.38,0c.06,0,.1.2.13.45q.08.77-.15.79-.53.1-1.34.3l-1.58.43-1.46.43-1.55.5q-.23,0-.3-.63l-.07-.65a.17.17,0,0,0-.07-.15s-.07,0-.1,0a6.43,6.43,0,0,1-3.83,1.85A7.46,7.46,0,0,1,148,60.49,7.77,7.77,0,0,1,145.11,55,9,9,0,0,1,147,48.24,8.44,8.44,0,0,1,152.95,44.86Zm-.14,1.88a3.37,3.37,0,0,0-2.87,2.06,9,9,0,0,0-.52,4.75,9.29,9.29,0,0,0,1.74,4.94,3.78,3.78,0,0,0,3.53,1.45,3.2,3.2,0,0,0,2-.9,2.13,2.13,0,0,0,.62-1.79l-.88-8a2.67,2.67,0,0,0-.22-.79,3.6,3.6,0,0,0-.56-.85,2.46,2.46,0,0,0-1.12-.69A4.09,4.09,0,0,0,152.8,46.74Z"/><path class="cls-1" d="M181.83,46l.83,7.58a8.54,8.54,0,0,0,.6,2.65.8.8,0,0,0,.47.26,3,3,0,0,0,.69.08,5.7,5.7,0,0,0,.64,0,.71.71,0,0,1,.33,0c.1,0,.17.12.19.33a2.89,2.89,0,0,1,0,.53c0,.25-.09.38-.19.39A8.83,8.83,0,0,0,184,58l-1.56.44q-.75.22-1.42.45t-1.5.47q-.27,0-.34-.58L179,57.11c0-.12-.09-.18-.14-.18a8.59,8.59,0,0,1-2.15,2A6.45,6.45,0,0,1,173.8,60a4,4,0,0,1-2.35-.4,4.65,4.65,0,0,1-1.72-1.52,8.26,8.26,0,0,1-1-2.13,11.76,11.76,0,0,1-.51-2.39l-.47-4.29a3.66,3.66,0,0,0-.88-2.38,2.14,2.14,0,0,0-.94-.48,4.07,4.07,0,0,0-.94-.13q-.39,0-.4-.07-.12-1.11.07-1.17a29.11,29.11,0,0,0,3.09-.8,30.27,30.27,0,0,0,2.95-1l.15-.06.15-.05q.19,0,.32.24a1.36,1.36,0,0,1,.14.41q-.06,2.64,0,3.41l.5,4.6a8.26,8.26,0,0,0,1.31,4.2,3.4,3.4,0,0,0,4.85,0,2,2,0,0,0,.68-1.53l-.69-6.32a3.66,3.66,0,0,0-.88-2.38,1.86,1.86,0,0,0-.92-.48,4.33,4.33,0,0,0-1-.13c-.26,0-.39,0-.4-.07q-.12-1.11.1-1.17a29.6,29.6,0,0,0,3.05-.8,30.25,30.25,0,0,0,2.95-1l.3-.11q.19,0,.34.23a.71.71,0,0,1,.12.41Q181.76,45.26,181.83,46Z"/><path class="cls-1" d="M194.52,40.37a9.29,9.29,0,0,1,3.69.27,6.15,6.15,0,0,1,2.44,1.22,4.77,4.77,0,0,1-.2,2.21,1.42,1.42,0,0,1-1.23,1,1.73,1.73,0,0,1-1.21-.25,4.39,4.39,0,0,1-1-1.16,2.79,2.79,0,0,0-2.76-1.48,3,3,0,0,0-2.44,2,8.24,8.24,0,0,0-.52,4.3,7.81,7.81,0,0,0,2,5A4.55,4.55,0,0,0,197,54.67a10.46,10.46,0,0,0,1.1-.18,5.72,5.72,0,0,0,1-.3l.78-.34a3.3,3.3,0,0,0,.67-.42L201,53l.71-.6a.62.62,0,0,1,.22.21.75.75,0,0,1,.16.37,1.18,1.18,0,0,1-.15.75,6.28,6.28,0,0,1-2,2.32,7.07,7.07,0,0,1-3.64,1.45,7.79,7.79,0,0,1-6.07-1.85,8.5,8.5,0,0,1-3.06-5.83,8.76,8.76,0,0,1,1.64-6.28A7.76,7.76,0,0,1,194.52,40.37Z"/><path class="cls-1" d="M205.85,41.84l-2.34.26q-.27,0-.38-1a1,1,0,0,1,0-.35,10.77,10.77,0,0,0,2.73-2.35q.44-.55,1-1.25t1.22-1.78a2.74,2.74,0,0,1,.74,0c.24,0,.36.1.37.17l.41,3.75,2.78-.29,1.9-.19q.31,0,.34.31a3.74,3.74,0,0,1-.2,1.73l-4.6.5,1,9.23a3.66,3.66,0,0,0,.91,2.26,2.2,2.2,0,0,0,1.89.61,3.67,3.67,0,0,0,.79-.18,4.11,4.11,0,0,0,.67-.29l.47-.28a1.21,1.21,0,0,1,.26-.14c.1,0,.23.07.38.31s.23.4.21.48q-.17.56-1.49,1.42a6.07,6.07,0,0,1-2.66,1,4.86,4.86,0,0,1-3.53-.91,5.16,5.16,0,0,1-1.83-3.81Z"/><path class="cls-1" d="M225.21,48.63A14.2,14.2,0,0,0,225.9,52q.11.26,1.1.44a5.66,5.66,0,0,0,1.33.14c.1,0,.18.17.23.54a2.18,2.18,0,0,1,0,.75q-.27,0-2.07.07t-2.64.17q-1,.11-2.69.41t-2,.37a1.13,1.13,0,0,1-.23-.71q-.06-.57.09-.59a5.57,5.57,0,0,0,1.35-.44q.93-.39,1-.67a12.56,12.56,0,0,0,0-2.82l-.69-6.24a3.66,3.66,0,0,0-.88-2.38,2.14,2.14,0,0,0-.94-.48,4.07,4.07,0,0,0-.94-.13c-.26,0-.39,0-.4-.07q-.12-1.11.1-1.17a29.57,29.57,0,0,0,3.05-.8,30.2,30.2,0,0,0,2.95-1l.3-.11c.13,0,.24.06.34.23a.71.71,0,0,1,.12.41,33.27,33.27,0,0,0,.06,3.33ZM219.47,33a2.35,2.35,0,0,1-.87-1.61,2.37,2.37,0,0,1,2.12-2.62,2.31,2.31,0,0,1,1.76.5,2.28,2.28,0,0,1,.87,1.59,2.35,2.35,0,0,1-.5,1.76,2.37,2.37,0,0,1-3.37.37Z"/><path class="cls-1" d="M237.67,35.64a8.49,8.49,0,0,1,6.42,1.83,8.25,8.25,0,0,1,3.21,5.79,8.79,8.79,0,1,1-9.63-7.62Zm-.3,1.85a3.1,3.1,0,0,0-2.6,2,8.29,8.29,0,0,0-.54,4.26,11.24,11.24,0,0,0,1.84,5.26A3.84,3.84,0,0,0,239.78,51a3.14,3.14,0,0,0,2.62-2.07,8.19,8.19,0,0,0,.56-4.25,13.21,13.21,0,0,0-.9-3.64,6.79,6.79,0,0,0-1.92-2.68A3.57,3.57,0,0,0,237.37,37.49Z"/><path class="cls-1" d="M261.35,33q4.94-.54,5.8,7.31l.4,3.64a16.15,16.15,0,0,0,.65,3.42q.11.26,1.11.44a5.87,5.87,0,0,0,1.35.14c.08,0,.14.17.19.54a2.19,2.19,0,0,1,0,.75q-.23,0-2,.07t-2.67.18q-.92.1-2.53.39l-2,.37a1.13,1.13,0,0,1-.23-.71q-.06-.57.09-.59a4.58,4.58,0,0,0,1.25-.43q.83-.38.88-.66a11.05,11.05,0,0,0,0-2.83l-.4-3.64a8.36,8.36,0,0,0-1.35-4.35,3.1,3.1,0,0,0-2.88-1A3.57,3.57,0,0,0,257,37a1.85,1.85,0,0,0-.76,1.54l.72,6.59a16.19,16.19,0,0,0,.65,3.42q.11.26,1.08.44a5.55,5.55,0,0,0,1.28.15c.1,0,.18.17.23.54a2.17,2.17,0,0,1,0,.75q-.31,0-2,.07t-2.6.17q-.92.1-2.65.41t-2,.38a1.13,1.13,0,0,1-.23-.71q-.06-.57.09-.59a5.38,5.38,0,0,0,1.37-.44q.91-.39,1-.67a12.56,12.56,0,0,0,0-2.82L252.34,40a3.66,3.66,0,0,0-.88-2.38,1.86,1.86,0,0,0-.92-.48,4.41,4.41,0,0,0-.94-.13c-.25,0-.37,0-.38-.07q-.12-1.11.06-1.17a54.56,54.56,0,0,0,6-1.83.26.26,0,0,1,.09-.07l.11,0h.1c.1,0,.2.07.3.24a1.17,1.17,0,0,1,.16.41,13.05,13.05,0,0,0,0,1.4.31.31,0,0,0,.06.19.57.57,0,0,0,.18-.14,8.54,8.54,0,0,1,2.18-1.87A6.75,6.75,0,0,1,261.35,33Z"/><path class="cls-1" d="M289.74,29.92a7.83,7.83,0,0,1,4.4.74,8.09,8.09,0,0,1,3.21,2.75,8.22,8.22,0,0,1,1.4,3.74,8.79,8.79,0,0,1-2,6.71,8.49,8.49,0,0,1-5.85,3.34,12.05,12.05,0,0,1-2.83,0,8.44,8.44,0,0,0-1.83-.09,2.93,2.93,0,0,0-1,.38,3.82,3.82,0,0,1-.74.35,1.86,1.86,0,0,1-.58-.17q-.47-.18-.48-.33c0-.08,0-.31,0-.7s0-.94,0-1.67a22.08,22.08,0,0,0-.14-2.35L281.67,27a13.42,13.42,0,0,0-.52-2.58q-.26-.59-2.06-.39l-.34,0q-.23,0-.3-.59t.16-.64q1.17-.24,2.23-.55t1.74-.58q.69-.27,1.18-.52l1-.5h.08a.42.42,0,0,1,.33.18,1.06,1.06,0,0,1,.23.38,13.48,13.48,0,0,0,0,3.65L286.1,31v0l0,.17a1.15,1.15,0,0,0,0,.17c0,.07.05.11.09.11a.31.31,0,0,0,.13-.05,7,7,0,0,1,1.47-.94A5.51,5.51,0,0,1,289.74,29.92Zm-.62,2.16a3,3,0,0,0-2,1,2.27,2.27,0,0,0-.61,1.81l.89,8.12a2.31,2.31,0,0,0,1.24,1.92,4.18,4.18,0,0,0,2.47.43,3.28,3.28,0,0,0,2.81-2.13,8.82,8.82,0,0,0,.54-4.48,9.9,9.9,0,0,0-1.76-5.08A3.78,3.78,0,0,0,289.12,32.08Z"/><path class="cls-1" d="M304.61,28.68q.84-.09,2.4-.38T309,28a2.58,2.58,0,0,1,.15.68c0,.36,0,.54-.09.55a4.2,4.2,0,0,0-1.17.42q-.79.38-.79.73l0,.23q.14.6,4.52,8.34.23-.72,1.08-3.94t1-3.69a3.63,3.63,0,0,0,.1-1.21,1.21,1.21,0,0,0-.72-.87,3.17,3.17,0,0,0-1.89-.24q-.15,0-.22-.56a1,1,0,0,1,.08-.67q.46-.05,1.89-.09t2.35-.14q.8-.09,2-.33t1.69-.3a1.09,1.09,0,0,1,.22.6q.07.61-.09.63a4.88,4.88,0,0,0-1.51.55,2.13,2.13,0,0,0-1.19,1.29l-5.15,17.69q-1.76,5.85-5.09,6.22a2.08,2.08,0,0,1-1.59-.37,1.8,1.8,0,0,1-.11-2.74q4-.44,4.9-3.72.67-2.4.75-2.72l-7-12.41a5,5,0,0,0-.56-.83,2.32,2.32,0,0,0-1.22-.74A3.64,3.64,0,0,0,300,30.2c-.1,0-.17-.16-.21-.52s0-.64,0-.7l2.06-.11Q303.69,28.78,304.61,28.68Z"/><path class="cls-1" d="M336.28,21.87,337,28a.24.24,0,0,0,.08.17.51.51,0,0,0,.14.08h0l.31,0q.8-.09,1.85-1.52,2.7-3.63,5.9-8.4a2.1,2.1,0,0,0,.49-1.22c0-.25-.33-.4-.9-.44a8.25,8.25,0,0,0-1.43,0q-.15,0-.24-.42a2,2,0,0,1,0-.71q4.28-.24,4.66-.28.73-.08,1.43-.2l1.52-.26,1.35-.24a1.61,1.61,0,0,1,.13.64q0,.5-.08.51a6,6,0,0,0-3.69,2l-6.23,8.9a.75.75,0,0,0,.19,1.06l10.13,9.66a3.92,3.92,0,0,0,2,1,6.29,6.29,0,0,0,1.75.2q.19,0,.27.71a1.19,1.19,0,0,1-.06.55q-4.62.27-5.27.35-1.23.13-2.92.42l-2.38.4a1.09,1.09,0,0,1-.23-.69c0-.37,0-.56.09-.57a3,3,0,0,0,1-.39q.62-.34.59-.65a7.36,7.36,0,0,0-1.25-1.49q-1.23-1.3-3.35-3.3t-4.17-3.71a1.41,1.41,0,0,0-.86-.06q-.61.07-.56.53l.62,5.67a13.92,13.92,0,0,0,.71,3.33q.11.26,1.11.44a5.9,5.9,0,0,0,1.35.14q.15,0,.23.71a1.72,1.72,0,0,1,0,.54l-4.89.3q-.77.08-1.6.21l-1.85.3-1.62.27a.75.75,0,0,1-.21-.52q-.08-.73.07-.74a6.14,6.14,0,0,0,1.41-.43q.95-.37,1-.69a13.47,13.47,0,0,0,0-3.25l-1.62-14.78a11.59,11.59,0,0,0-.66-3.18q-.19-.29-1.14-.48a5.16,5.16,0,0,0-1.41-.14q-.15,0-.22-.56a1.55,1.55,0,0,1,0-.7l2.14-.12q1.95-.1,3-.21l4.88-.77a2,2,0,0,1,.18.6q.07.65-.08.67a6.29,6.29,0,0,0-1.35.46q-1,.42-1,.7A14.32,14.32,0,0,0,336.28,21.87Z"/><path class="cls-1" d="M365.44,33.24a14.17,14.17,0,0,0,.68,3.41q.11.26,1.1.44a5.65,5.65,0,0,0,1.33.14c.1,0,.18.17.23.54a2.16,2.16,0,0,1,0,.75q-.27,0-2.06.07t-2.64.17q-1,.11-2.69.41t-2,.37a1.13,1.13,0,0,1-.23-.71q-.06-.57.09-.59a5.57,5.57,0,0,0,1.35-.44q.93-.39,1-.67a12.56,12.56,0,0,0,0-2.82l-.69-6.24A3.66,3.66,0,0,0,360,25.7a2.14,2.14,0,0,0-.94-.48,4.07,4.07,0,0,0-.94-.13q-.39,0-.4-.07-.12-1.11.1-1.17a29.54,29.54,0,0,0,3.05-.8,30.16,30.16,0,0,0,2.95-1l.3-.11q.19,0,.34.23a.71.71,0,0,1,.12.41,33.16,33.16,0,0,0,.06,3.33ZM359.7,17.65a2.35,2.35,0,0,1-.87-1.61,2.28,2.28,0,0,1,.51-1.74,2.39,2.39,0,0,1,4.24,1.22,2.35,2.35,0,0,1-.5,1.76,2.37,2.37,0,0,1-3.37.37Z"/><path class="cls-1" d="M381.77,19.82a4.16,4.16,0,0,1,2.57.47,4.5,4.5,0,0,1,1.74,1.77,9.07,9.07,0,0,1,2.58-2.22,8.65,8.65,0,0,1,3.52-1.16,4.38,4.38,0,0,1,2.42.35,4.26,4.26,0,0,1,1.72,1.54,9.08,9.08,0,0,1,1.06,2.29,14.68,14.68,0,0,1,.55,2.75l.44,4A16.12,16.12,0,0,0,399,33q.11.26,1.09.44a5.67,5.67,0,0,0,1.33.14c.08,0,.14.17.19.54a2.16,2.16,0,0,1,0,.75q-.27,0-2,.07t-2.64.17q-.92.1-2.61.4l-2,.38a1.43,1.43,0,0,1-.19-.71q-.06-.57.05-.59a5.16,5.16,0,0,0,1.35-.44q.89-.39.93-.66a12,12,0,0,0,0-2.71l-.43-3.91q-.61-5.55-4.17-5.16a3.51,3.51,0,0,0-2,.84,2.4,2.4,0,0,0-.87,1.3c0,.08,0,.18,0,.31a.74.74,0,0,0,.05.3,18.91,18.91,0,0,1,.38,2.36l.45,4.06a15.21,15.21,0,0,0,.63,3.26q.11.26,1.1.44a5.67,5.67,0,0,0,1.33.14c.08,0,.14.17.19.54a2.18,2.18,0,0,1,0,.75q-.27,0-2,.07t-2.64.17q-.92.1-2.61.4l-2,.38a1.44,1.44,0,0,1-.19-.72q-.06-.57.05-.59a5.16,5.16,0,0,0,1.35-.44q.89-.39.93-.66a12.55,12.55,0,0,0,0-2.82l-.4-3.68A8.17,8.17,0,0,0,382.18,24a2.93,2.93,0,0,0-2.75-1.05,3.69,3.69,0,0,0-2,.88,1.82,1.82,0,0,0-.8,1.56l.72,6.59a14.2,14.2,0,0,0,.68,3.41q.11.26,1.06.45a5.22,5.22,0,0,0,1.3.15c.1,0,.18.17.23.54a2.17,2.17,0,0,1,0,.75l-2,.07q-1.72.07-2.6.17t-2.67.41q-1.71.3-2,.38a1.13,1.13,0,0,1-.23-.71q-.06-.57.09-.59a5.57,5.57,0,0,0,1.35-.44q.93-.39,1-.67a12.55,12.55,0,0,0,0-2.82l-.69-6.24a3.66,3.66,0,0,0-.88-2.38,1.85,1.85,0,0,0-.92-.48,4.34,4.34,0,0,0-1-.13q-.39,0-.4-.07-.12-1.11.1-1.17a53.36,53.36,0,0,0,6-1.82.25.25,0,0,1,.11-.07l.19,0c.13,0,.24.06.34.23a.71.71,0,0,1,.12.41,13.34,13.34,0,0,0,0,1.4c0,.1,0,.16.1.18a.58.58,0,0,0,.18-.14,8.52,8.52,0,0,1,2.18-1.87A6.74,6.74,0,0,1,381.77,19.82Z"/><path class="cls-1" d="M410,28.35a14.2,14.2,0,0,0,.68,3.41q.11.26,1.1.44a5.67,5.67,0,0,0,1.33.14c.1,0,.18.17.23.54a2.18,2.18,0,0,1,0,.75q-.27,0-2.07.07t-2.64.17q-1,.1-2.69.41t-2,.37a1.13,1.13,0,0,1-.23-.71q-.06-.57.09-.59a5.57,5.57,0,0,0,1.35-.44q.93-.39,1-.67a12.59,12.59,0,0,0,0-2.82l-.69-6.24a3.66,3.66,0,0,0-.88-2.38,2.14,2.14,0,0,0-.94-.48,4.07,4.07,0,0,0-.94-.13c-.26,0-.39,0-.4-.07q-.12-1.11.1-1.17a29.73,29.73,0,0,0,3.05-.8,30.2,30.2,0,0,0,2.95-1l.3-.11c.13,0,.24.06.34.23a.71.71,0,0,1,.12.41,33.27,33.27,0,0,0,.06,3.33ZM404.3,12.76a2.34,2.34,0,0,1-.87-1.61,2.37,2.37,0,0,1,2.12-2.62,2.31,2.31,0,0,1,1.76.5,2.28,2.28,0,0,1,.87,1.59,2.35,2.35,0,0,1-.5,1.76,2.37,2.37,0,0,1-3.37.37Z"/><path class="cls-1" d="M458.32,11.42a4.73,4.73,0,0,1,3.7.85q1.32,1.11,1.66,4.14L464.5,24a1.76,1.76,0,0,0,.47,1.13,1.16,1.16,0,0,0,1,.3,2.4,2.4,0,0,0,1.25-.64c.16,0,.25.17.28.4a2.29,2.29,0,0,1-.1,1.17,9.55,9.55,0,0,1-1.43,1.13,4,4,0,0,1-1.78.7,2.81,2.81,0,0,1-1.79-.46,3.16,3.16,0,0,1-1.27-1.29l-.26.28q-.23.24-.63.59a11.26,11.26,0,0,1-.93.72,6.15,6.15,0,0,1-1.25.66,5.61,5.61,0,0,1-1.49.38,4.6,4.6,0,0,1-3.24-.71,3.66,3.66,0,0,1-1.52-2.76,3.55,3.55,0,0,1,.25-1.77,4.61,4.61,0,0,1,.91-1.44,7.92,7.92,0,0,1,1.54-1.2,16,16,0,0,1,1.7-.94q.72-.33,1.85-.8l1.57-.68a.61.61,0,0,0,.28-.65L459.63,16a3.31,3.31,0,0,0-.84-2,2,2,0,0,0-1.73-.58,2.34,2.34,0,0,0-1.72.91,2.88,2.88,0,0,0-.43,2.08,1.25,1.25,0,0,1-.45,1.19,2.4,2.4,0,0,1-1.26.51,2.17,2.17,0,0,1-2.09-.7q-.2-1.84,2.13-3.72A9.66,9.66,0,0,1,458.32,11.42Zm-.11,14.89a3,3,0,0,0,1.72-.73,1.52,1.52,0,0,0,.61-1.31l-.43-3.91q-.26.14-1.09.51t-1.27.6a10.59,10.59,0,0,0-1,.65,2.32,2.32,0,0,0-.81.94,2.12,2.12,0,0,0-.17,1.1,2.37,2.37,0,0,0,.81,1.73A2.22,2.22,0,0,0,458.21,26.32Z"/><path class="cls-1" d="M480.5,9q4.94-.54,5.8,7.31l.4,3.64a16.15,16.15,0,0,0,.65,3.42q.11.26,1.11.44a5.88,5.88,0,0,0,1.35.14c.08,0,.14.17.2.54a2.19,2.19,0,0,1,0,.75q-.23,0-2,.07t-2.67.18q-.92.1-2.53.39l-2,.37a1.13,1.13,0,0,1-.23-.71q-.06-.57.09-.59A4.58,4.58,0,0,0,482,24.5q.83-.38.88-.66a11,11,0,0,0,0-2.83l-.4-3.64A8.36,8.36,0,0,0,481.08,13a3.1,3.1,0,0,0-2.88-1,3.57,3.57,0,0,0-2.07.91,1.85,1.85,0,0,0-.76,1.54l.72,6.59a16.15,16.15,0,0,0,.65,3.42q.11.26,1.08.44a5.55,5.55,0,0,0,1.28.15c.1,0,.18.17.23.54a2.18,2.18,0,0,1,0,.75q-.31,0-2,.07t-2.6.17q-.92.1-2.65.41t-2,.38a1.13,1.13,0,0,1-.23-.71q-.06-.57.09-.59a5.36,5.36,0,0,0,1.37-.44q.91-.39,1-.67a12.56,12.56,0,0,0,0-2.82l-.69-6.24a3.66,3.66,0,0,0-.88-2.38,1.86,1.86,0,0,0-.92-.48,4.39,4.39,0,0,0-.94-.13c-.25,0-.37,0-.38-.08q-.12-1.11.07-1.17a54.7,54.7,0,0,0,6-1.83.25.25,0,0,1,.09-.07l.11,0h.1c.1,0,.2.07.3.24a1.17,1.17,0,0,1,.16.41,13,13,0,0,0,0,1.4c0,.1,0,.17.06.19a.58.58,0,0,0,.18-.14A8.52,8.52,0,0,1,477.65,10,6.74,6.74,0,0,1,480.5,9Z"/><path class="cls-1" d="M498.78,7a4.73,4.73,0,0,1,3.7.85q1.32,1.11,1.66,4.14l.83,7.54a1.76,1.76,0,0,0,.47,1.13,1.16,1.16,0,0,0,1,.3,2.4,2.4,0,0,0,1.25-.64c.16,0,.25.17.28.4a2.29,2.29,0,0,1-.1,1.17A9.53,9.53,0,0,1,506.39,23a4,4,0,0,1-1.78.7,2.81,2.81,0,0,1-1.79-.46,3.16,3.16,0,0,1-1.27-1.29l-.26.28q-.23.24-.63.59a11.38,11.38,0,0,1-.93.72,6.19,6.19,0,0,1-1.25.66,5.6,5.6,0,0,1-1.49.38,4.6,4.6,0,0,1-3.24-.71,3.66,3.66,0,0,1-1.52-2.76,3.56,3.56,0,0,1,.25-1.77,4.61,4.61,0,0,1,.91-1.44,7.92,7.92,0,0,1,1.54-1.2,15.91,15.91,0,0,1,1.7-.94q.72-.33,1.85-.8l1.57-.68a.61.61,0,0,0,.28-.65l-.23-2.11a3.31,3.31,0,0,0-.84-2,2,2,0,0,0-1.73-.59,2.34,2.34,0,0,0-1.72.91,2.88,2.88,0,0,0-.43,2.08,1.25,1.25,0,0,1-.45,1.19,2.39,2.39,0,0,1-1.26.51,2.17,2.17,0,0,1-2.09-.7q-.2-1.84,2.13-3.72A9.66,9.66,0,0,1,498.78,7Zm-.11,14.89a3,3,0,0,0,1.72-.73,1.52,1.52,0,0,0,.61-1.31l-.43-3.91q-.26.14-1.09.51t-1.27.6a10.58,10.58,0,0,0-1,.65,2.32,2.32,0,0,0-.81.94,2.13,2.13,0,0,0-.17,1.1,2.37,2.37,0,0,0,.81,1.73A2.22,2.22,0,0,0,498.67,21.88Z"/><path class="cls-1" d="M525.62,8.22l.83,7.58a8.53,8.53,0,0,0,.6,2.65.8.8,0,0,0,.47.26,3,3,0,0,0,.69.08,5.76,5.76,0,0,0,.64,0,.71.71,0,0,1,.33,0c.1,0,.17.12.19.33a2.89,2.89,0,0,1,0,.53c0,.25-.09.38-.19.39a8.82,8.82,0,0,0-1.34.28l-1.56.44q-.75.22-1.42.45t-1.5.47q-.27,0-.34-.58l-.19-1.68c0-.12-.08-.18-.14-.18a8.59,8.59,0,0,1-2.15,2,6.45,6.45,0,0,1-2.94,1.1,4,4,0,0,1-2.35-.4,4.65,4.65,0,0,1-1.72-1.52,8.27,8.27,0,0,1-1-2.13,11.76,11.76,0,0,1-.51-2.39l-.47-4.29a3.66,3.66,0,0,0-.88-2.38,2.14,2.14,0,0,0-.94-.48,4,4,0,0,0-.94-.13c-.26,0-.39,0-.4-.07q-.12-1.11.07-1.17a29.14,29.14,0,0,0,3.09-.8,30.26,30.26,0,0,0,2.95-1l.15-.06.15-.05c.13,0,.23.06.32.24a1.35,1.35,0,0,1,.14.41q-.06,2.64,0,3.41l.5,4.6a8.26,8.26,0,0,0,1.31,4.2,3.4,3.4,0,0,0,4.85,0,2.05,2.05,0,0,0,.68-1.53l-.69-6.32A3.66,3.66,0,0,0,521,8a1.86,1.86,0,0,0-.92-.48,4.35,4.35,0,0,0-1-.13c-.26,0-.39,0-.4-.07q-.12-1.11.1-1.17a29.63,29.63,0,0,0,3.05-.8,30.25,30.25,0,0,0,2.95-1l.3-.11q.19,0,.34.23a.71.71,0,0,1,.12.41Q525.55,7.53,525.62,8.22Z"/><path class="cls-1" d="M537.93,2.68a7.14,7.14,0,0,1,3.29.36,6.1,6.1,0,0,1,2.42,1.56,9,9,0,0,1,1.47,2.12,6.66,6.66,0,0,1,.67,2.19q.09.84-.17,1.08a2.19,2.19,0,0,1-1.15.34l-9.15,1q-.27,0-.24.26a7.47,7.47,0,0,0,.79,2.63,5.3,5.3,0,0,0,2,2.07,4.53,4.53,0,0,0,3,.64,10.53,10.53,0,0,0,1.1-.18,5.7,5.7,0,0,0,1-.3l.78-.34a3.32,3.32,0,0,0,.67-.42l.48-.38.71-.6a.63.63,0,0,1,.22.21.74.74,0,0,1,.16.37,1.18,1.18,0,0,1-.15.75,6.27,6.27,0,0,1-2,2.32A7.15,7.15,0,0,1,540,19.81,7.8,7.8,0,0,1,534,18,8.31,8.31,0,0,1,531,12.25a8.92,8.92,0,0,1,1.55-6.53A7.47,7.47,0,0,1,537.93,2.68Zm-.07,1.79a2.72,2.72,0,0,0-1.59.72,3.63,3.63,0,0,0-1,1.42,7.35,7.35,0,0,0-.4,1.5,4.75,4.75,0,0,0,0,1.15c0,.18.11.26.26.24l6.2-.68q.35,0,.28-.61a5,5,0,0,0-1.2-2.62A2.76,2.76,0,0,0,537.86,4.47Z"/><path class="cls-1" d="M558.39.44a3.84,3.84,0,0,1,3.28.92q.36,3.26-1.48,3.46a2.29,2.29,0,0,1-1.58-.6,2.41,2.41,0,0,0-1.73-.58A2.06,2.06,0,0,0,555.16,5a5.14,5.14,0,0,0-.4,2.58l.53,4.79a16.14,16.14,0,0,0,.65,3.42q.11.26,1.08.44a5.43,5.43,0,0,0,1.31.15c.08,0,.14.17.19.54a4,4,0,0,1,.06.75q-.31,0-2,.07t-2.62.17q-.92.1-2.65.41t-2,.38A1.13,1.13,0,0,1,549,18q-.06-.57.09-.59a5.37,5.37,0,0,0,1.37-.44c.6-.26.92-.48,1-.67a12.53,12.53,0,0,0,0-2.82l-.68-6.24a3.66,3.66,0,0,0-.88-2.38,1.85,1.85,0,0,0-.92-.48,4.39,4.39,0,0,0-.94-.13c-.25,0-.37,0-.38-.08-.08-.74-.06-1.13.06-1.17a54.53,54.53,0,0,0,6-1.83l.3-.11c.1,0,.2.07.3.24a.93.93,0,0,1,.14.43c0,.12,0,.3,0,.54s0,.5,0,.78a4.89,4.89,0,0,0,0,.52,7.07,7.07,0,0,1,1.67-2.06A4.22,4.22,0,0,1,558.39.44Z"/></svg>