<?xml version="1.0" encoding="utf-8"?>
<!-- Generator: Adobe Illustrator 21.1.0, SVG Export Plug-In . SVG Version: 6.00 Build 0)  -->
<svg version="1.1" xmlns="http://www.w3.org/2000/svg" xmlns:xlink="http://www.w3.org/1999/xlink" x="0px" y="0px"
	 viewBox="0 0 1135.7 382.6" style="enable-background:new 0 0 1135.7 382.6;" xml:space="preserve">
<style type="text/css">
	.st0{fill:url(#SVGID_1_);}
	.st1{fill:url(#SVGID_2_);}
	.st2{fill:#FEF9F9;}
	.st3{fill:#F8EDF4;}
	.st4{fill:#FFFFFF;}
	.st5{fill:#FAEFE6;}
	.st6{fill:#2F3390;}
	.st7{fill:#FFFFFF;stroke:#2F3390;stroke-width:1.2;stroke-miterlimit:10;}
	.st8{fill:#232DAF;}
	.st9{fill:#1928EB;}
	.st10{fill:#FDC7C9;}
	.st11{fill:#FEEA80;}
	.st12{fill:#EB7975;}
	.st13{fill:#606060;}
	.st14{fill:none;}
	.st15{fill:#0624FF;}
	.st16{fill:none;stroke:#2F3390;stroke-width:1.5;stroke-miterlimit:10;}
	.st17{fill:none;stroke:#2F3390;stroke-width:1.5;stroke-linejoin:bevel;stroke-miterlimit:10;}
	.st18{fill:#FFFFFF;stroke:#2F3390;stroke-width:1.2587;stroke-miterlimit:10;}
	.st19{fill:#FFFFFF;stroke:#2F3390;stroke-width:2;stroke-miterlimit:10;}
	.st20{fill:none;stroke:#2F3390;stroke-width:3.025;stroke-miterlimit:10;}
	.st21{fill:none;stroke:#2F3390;stroke-width:3.025;stroke-linejoin:bevel;stroke-miterlimit:10;}
	.st22{fill:none;stroke:#2F3390;stroke-width:15;stroke-miterlimit:10;}
	.st23{fill:#EB7975;stroke:#FAEFE6;stroke-width:1.4;stroke-miterlimit:10;}
	.st24{fill:#2F3380;}
	.st25{fill:#00FF00;}
	.st26{fill:#FEF9F9;stroke:#1928EB;stroke-width:3;stroke-linecap:round;stroke-linejoin:round;stroke-miterlimit:10;}
	.st27{fill:#FFFFFF;stroke:#1414EF;stroke-width:1.5;stroke-miterlimit:10;}
	.st28{fill:#FFFFFF;stroke:#1928EB;stroke-width:1.3;stroke-miterlimit:10;}
	.st29{fill:#FFFFFF;stroke:#1928EB;stroke-width:1.6;stroke-miterlimit:10;}
	.st30{fill:#FFFFFF;stroke:#1414EF;stroke-width:1.75;stroke-miterlimit:10;}
	.st31{fill:#1414EF;}
</style>
<g id="Layer_1">
	<g>
		<g>
			<path class="st28" d="M170.6,80.6c-0.1,1.3-1.3,5.3-3.6,11.8s-3.8,9.9-4.7,10.3c-9.5,3.4-21.7,4.3-36.7,2.7
				c-13.7-1.4-24.8-7.7-33.4-18.8c-8.6-11.1-12.1-23.5-10.7-37.4c1.6-14.7,7.8-26.8,18.8-36.3c11-9.5,23.6-13.5,38-11.9
				C150,2.2,162.1,4.9,174.5,9c0.3,0.1,0.3,3.6-0.1,10.3c-0.4,6.7-0.7,10.9-0.9,12.6c-0.2,1.6-1.5,2.2-4,1.9
				c-0.6-0.1-1.3-0.3-2.1-0.9c-0.2-1.9-0.8-3.9-1.6-6c-0.9-2.1-2.3-4.5-4.2-7.2c-1.9-2.7-4.9-5.1-9-7.2c-4.1-2.1-8.9-3.4-14.5-4
				c-10.2-1.1-18.5,2.3-25,10.1c-6.5,7.8-10.4,17.5-11.7,29.3c-1.4,13.1,0.6,24.4,6.1,34.2c5.4,9.7,13.9,15.2,25.5,16.4
				c9.2,1,16.8-1.2,22.8-6.4c1.5-1.3,2.9-3.1,4.3-5.4c1.3-2.3,2.4-4.3,3.1-5.9c0.7-1.6,1.2-2.4,1.4-2.4
				C168.3,78.9,170.3,79.6,170.6,80.6z"/>
			<path class="st28" d="M218.2,44.8c9.7,1,17.7,5.3,23.9,12.8c6.2,7.5,8.8,16.1,7.7,25.7c-1,9.6-5.3,17.5-12.8,23.6
				c-7.5,6.1-16.2,8.7-26,7.6c-9.8-1-17.8-5.3-23.9-12.9c-6.1-7.6-8.7-16.2-7.6-25.8c1-9.7,5.3-17.6,12.8-23.6
				C199.7,46.2,208.4,43.7,218.2,44.8z M215.4,51.8c-4.9-0.5-8.9,1.4-12.1,5.9c-3.2,4.4-5.1,9.9-5.8,16.4c-0.9,8.4,0,15.9,2.7,22.4
				c2.7,6.6,7.1,10.2,13.1,10.8c4.9,0.5,8.9-1.5,12.2-5.9c3.2-4.5,5.2-9.9,5.9-16.3c0.6-5.4,0.4-10.5-0.4-15.2
				c-0.9-4.8-2.6-8.8-5.3-12.3C223,54.2,219.6,52.3,215.4,51.8z"/>
			<path class="st28" d="M312.7,54.7c13.4,1.4,18.9,12.7,16.7,34l-1.6,14.8c-0.7,6.3-0.8,11-0.4,14.1c0.1,0.7,1.5,1.6,4,2.7
				c2.6,1.1,4.3,1.6,5.2,1.7c0.3,0,0.4,0.8,0.3,2.3c-0.1,1.5-0.3,2.5-0.6,3c-0.6-0.2-3.3-0.7-8.1-1.5c-4.8-0.8-8.4-1.4-10.8-1.6
				c-2.5-0.3-5.9-0.5-10.4-0.6c-4.4-0.2-7.1-0.2-8.1-0.2c-0.4-0.5-0.5-1.5-0.3-3c0.2-1.6,0.5-2.3,0.9-2.3c1.1,0.1,2.9-0.1,5.3-0.6
				c2.4-0.5,3.8-1.1,4-1.9c1.2-3,2-6.8,2.4-11.2l1.6-14.8c0.9-8.6,0.4-14.7-1.6-18.4c-2-3.7-5.5-5.8-10.6-6.3
				c-3.3-0.4-6.3,0.3-9,1.8c-2.7,1.6-4.1,3.4-4.3,5.4l-2.8,26.7c-0.7,6.3-0.8,11-0.4,14.1c0.1,0.7,1.4,1.6,3.9,2.7
				c2.5,1,4.1,1.6,4.9,1.7c0.4,0,0.6,0.8,0.5,2.3c-0.1,1.5-0.3,2.5-0.6,3c-0.8-0.2-3.5-0.7-8.1-1.5c-4.6-0.8-8.1-1.3-10.4-1.6
				c-2.5-0.3-6.1-0.5-10.8-0.7c-4.7-0.2-7.5-0.3-8.4-0.3c-0.4-0.5-0.5-1.5-0.3-3c0.2-1.6,0.5-2.3,0.9-2.3c1.2,0.1,3.2-0.1,5.8-0.6
				c2.6-0.5,4.1-1.1,4.4-1.8c1.1-3,1.8-6.8,2.3-11.2l2.7-25.3c0.5-4.9,0-8.3-1.4-10.2c-0.7-1.1-1.8-2-3.2-2.7
				c-1.4-0.7-2.7-1.1-3.6-1.3c-1-0.2-1.4-0.4-1.4-0.6c0.3-3,0.7-4.5,1.3-4.6c4.8,0.1,13.3-0.6,25.5-2c0.1-0.1,0.3-0.2,0.4-0.2
				c0.2,0,0.3,0,0.5,0c0.2,0,0.3,0,0.4,0c0.4,0,0.7,0.4,1,1.2c0.2,0.8,0.3,1.3,0.3,1.8c-0.7,2.9-1.1,4.7-1.2,5.5
				c0,0.4,0,0.7,0.1,0.8c0.1,0,0.4-0.1,0.8-0.4c2.7-2.2,6.2-4.1,10.2-5.5C304.6,54.8,308.6,54.3,312.7,54.7z"/>
			<path class="st28" d="M360.5,70.8l-9.5-1c-0.7-0.1-0.9-1.5-0.7-4.2c0.1-0.7,0.2-1.2,0.3-1.4c4.3-1.4,8.6-3.8,12.8-7
				c1.5-1.2,3.1-2.6,4.9-4.1c1.8-1.5,3.9-3.5,6.4-6c1,0.1,2,0.3,2.9,0.7c0.9,0.4,1.3,0.7,1.3,1l-1.6,15.2c2.7,0.3,6.4,0.7,11.3,1.3
				c4.8,0.6,7.4,0.9,7.7,0.9c0.8,0.1,1.2,0.6,1.1,1.5c-0.3,2.5-1,4.7-2.3,6.7l-18.6-2l-4,37.4c-0.4,4.1,0.1,7.4,1.6,9.8
				c1.5,2.4,3.9,3.7,7,4c1,0.1,2.1,0.1,3.3,0c1.2-0.1,2.1-0.3,2.9-0.6c0.8-0.2,1.5-0.5,2.1-0.7c0.7-0.2,1-0.4,1.1-0.4
				c0.4-0.1,0.8,0.5,1.2,1.5c0.4,1.1,0.5,1.8,0.4,2.1c-0.8,1.4-3.2,2.8-7.1,4.4c-4,1.5-7.8,2.1-11.4,1.7c-5.4-0.6-9.8-2.8-13.2-6.7
				c-3.4-3.9-4.7-9.4-4-16.7L360.5,70.8z"/>
			<path class="st28" d="M438.9,68c4.9,0.5,9.1,1.9,12.7,4.3c3.6,2.3,6.4,5.1,8.2,8.3c1.9,3.2,3.2,6.4,4,9.7
				c0.8,3.3,1.1,6.4,0.7,9.3c-0.2,2.3-0.8,3.7-1.6,4.1c-0.8,0.5-2.4,0.6-4.8,0.4l-37.1-3.9c-0.7-0.1-1.1,0.2-1.2,0.8
				c-0.4,3.7-0.1,7.4,0.9,11.1c1,3.7,3,7,5.9,9.9c3,2.9,6.8,4.6,11.3,5.1c1.6,0.2,3.1,0.2,4.5,0.2c1.5,0,2.8-0.1,4.1-0.4
				c1.3-0.2,2.4-0.5,3.4-0.7c1-0.2,2-0.6,3-1.1c1-0.5,1.8-0.9,2.2-1.1c0.4-0.2,1.6-0.8,3.3-1.8c0.2,0.1,0.4,0.5,0.7,1
				c0.3,0.6,0.4,1.1,0.3,1.6c-0.1,1.1-0.5,2.1-1.2,2.9c-1.8,2.6-5.2,5.1-10.1,7.4c-4.9,2.3-10.1,3.2-15.8,2.6
				c-9-1-16.4-5.1-22.2-12.5c-5.8-7.4-8.2-15.8-7.2-25.4c1.1-10.5,5-18.6,11.8-24.5C421.5,69.5,429.5,67.1,438.9,68z M437,75.1
				c-2.5-0.3-4.8,0.2-6.9,1.5c-2.1,1.2-3.8,2.8-5.1,4.8c-1.3,2-2.2,3.8-2.9,5.6c-0.7,1.8-1.1,3.3-1.2,4.5c-0.1,0.7,0.2,1.1,0.8,1.2
				l25.2,2.7c0.9,0.1,1.5-0.6,1.6-2.2c0.4-3.6-0.4-7.4-2.5-11.4C444.1,77.7,441.1,75.5,437,75.1z"/>
			<path class="st28" d="M475.2,75c0.1-1,0.4-1.8,0.9-2.4c11.3,1.8,17.4,2.8,18.2,2.9c0.8,0.1,7.1,0.4,18.7,1
				c0.2,0.4,0.2,1.2,0.1,2.2c-0.2,1.9-0.5,2.8-0.9,2.7c-1.5-0.2-2.9,0-4.4,0.4c-1.5,0.4-2.3,1.1-2.4,2.2c-0.1,0.5,0.1,1.2,0.6,1.9
				l8.3,14.9c0.8-1,2.4-2.7,4.8-5.3s4.1-4.6,5.3-6c1.1-1.4,1.8-2.6,1.9-3.4c0.1-0.7-0.3-1.4-1.1-1.9c-0.8-0.6-1.7-0.9-2.7-1.1
				c-1-0.2-2-0.4-3.1-0.6c-1.1-0.2-1.7-0.3-1.8-0.4c-0.4,0-0.5-0.9-0.4-2.6c0.1-1.2,0.4-2,0.9-2.4c11.2,1.8,17.2,2.8,17.9,2.8
				c0.7,0.1,6.1,0.3,16.3,0.8c0.1,0.7,0.1,1.6,0,2.5c-0.2,1.7-0.4,2.5-0.6,2.5c-7.1,0.1-11.9,1.3-14.2,3.5L519,106.7
				c-0.3,0.4-0.4,0.8-0.4,1.2c-0.1,0.6,0.1,1.2,0.5,1.6l15,25.9c2.6,4.7,6.7,7.7,12.1,9c0.3,0,0.4,0.9,0.2,2.7
				c-0.1,0.9-0.4,1.7-0.9,2.3c-1.5-0.3-3.4-0.6-5.6-1.1c-2.2-0.4-4.2-0.8-6-1.1c-1.8-0.3-3.7-0.6-5.8-0.8c-2.3-0.2-4.4-0.4-6.4-0.5
				c-2-0.1-4.2-0.2-6.7-0.2c-2.5-0.1-4.6-0.1-6.3-0.2c-0.1-1.1-0.1-1.7-0.1-2.1c0.2-2.2,0.5-3.2,0.8-3.2c1.4,0.2,3-0.1,4.6-0.6
				c1.6-0.6,2.5-1.4,2.6-2.4c0-0.2,0-0.5-0.2-1l-9.5-16.7l-11.2,12.6c-0.8,0.9-1.3,1.8-1.4,2.7c-0.1,0.6,0.1,1.2,0.4,1.6
				c0.3,0.5,0.9,0.9,1.7,1.2c0.8,0.3,1.5,0.6,2,0.8c0.6,0.2,1.4,0.4,2.6,0.7c1.2,0.3,1.9,0.4,2.1,0.5c0.3,0,0.4,0.9,0.2,2.7
				c-0.1,1.3-0.4,2.2-0.9,2.6c-1.5-0.3-3.4-0.6-5.5-1c-2.1-0.4-4-0.8-5.8-1.1c-1.8-0.3-3.6-0.5-5.6-0.7c-2-0.2-3.8-0.4-5.6-0.4
				c-1.8-0.1-3.8-0.1-6-0.2c-2.2,0-4.1-0.1-5.6-0.1c-0.1-0.8-0.1-1.7,0-2.7c0.2-1.8,0.5-2.6,0.9-2.6c6.8-0.3,11.6-1.8,14.1-4.5
				L502,113c0.2-0.4,0.4-0.8,0.4-1.2c0-0.3-0.1-0.7-0.4-1.1l-15.3-26.1c-1-1.7-2.6-3.2-5-4.5c-2.4-1.4-4.4-2.1-6.2-2.3
				C475.1,77.7,475,76.8,475.2,75z"/>
			<path class="st28" d="M570.6,92.9l-9.5-1c-0.7-0.1-0.9-1.5-0.7-4.2c0.1-0.7,0.2-1.2,0.3-1.4c4.3-1.4,8.6-3.8,12.8-7
				c1.5-1.2,3.1-2.6,4.9-4.1c1.8-1.5,3.9-3.5,6.4-6c1,0.1,2,0.3,2.9,0.7c0.9,0.4,1.3,0.7,1.3,1l-1.6,15.2c2.7,0.3,6.4,0.7,11.3,1.3
				c4.8,0.6,7.4,0.9,7.7,0.9c0.8,0.1,1.2,0.6,1.1,1.5c-0.3,2.5-1,4.7-2.3,6.7l-18.6-2l-4,37.4c-0.4,4.1,0.1,7.4,1.6,9.8
				c1.5,2.4,3.9,3.7,7,4c1,0.1,2.1,0.1,3.3,0c1.2-0.1,2.1-0.3,2.9-0.6c0.8-0.2,1.5-0.5,2.1-0.7c0.7-0.2,1-0.4,1.1-0.4
				c0.4-0.1,0.8,0.5,1.2,1.5c0.4,1.1,0.5,1.8,0.4,2.1c-0.8,1.4-3.2,2.8-7.1,4.4c-4,1.5-7.8,2.1-11.4,1.7c-5.4-0.6-9.8-2.8-13.2-6.7
				c-3.4-3.9-4.7-9.4-4-16.7L570.6,92.9z"/>
			<path class="st28" d="M683.2,110.8l-3.2,30.8c-0.5,5-0.5,8.6,0.1,11c0.3,0.6,0.8,1,1.7,1.4c0.8,0.4,1.7,0.7,2.7,0.9
				c0.9,0.2,1.8,0.3,2.5,0.4c0.8,0.1,1.2,0.2,1.3,0.3c0.4,0.1,0.6,0.6,0.5,1.5c0,0.4-0.2,1.1-0.5,2.1c-0.3,1-0.7,1.4-1.1,1.4
				c-1.5-0.2-3.3-0.2-5.6,0c-2.3,0.1-4.5,0.3-6.6,0.4c-2.1,0.1-4.1,0.3-6,0.5c-1.9,0.2-4,0.4-6.3,0.6c-0.7-0.1-1-0.9-0.8-2.6
				l0.7-6.8c0-0.5-0.2-0.8-0.4-0.8c-2.7,2.3-6.1,4.3-10.2,6c-4.2,1.7-8.4,2.3-12.6,1.8c-3.5-0.4-6.5-1.6-9-3.6
				c-2.5-2-4.3-4.5-5.5-7.5c-1.2-3-2-6.1-2.3-9.4c-0.3-3.3-0.3-6.6,0-9.9l1.8-17.4c0.5-4.9,0-8.3-1.4-10.2c-0.8-1.1-1.9-2-3.3-2.7
				c-1.4-0.7-2.6-1.1-3.6-1.3c-1-0.2-1.5-0.4-1.5-0.6c0.3-3,0.7-4.5,1.3-4.6c3,0.1,7.3-0.1,12.9-0.5c5.6-0.5,9.8-1,12.6-1.5
				c0.1,0,0.3,0,0.6-0.1c0.3-0.1,0.5-0.1,0.6-0.1c0.5,0.1,0.9,0.5,1.1,1.2c0.2,0.8,0.3,1.3,0.2,1.8c-1.7,6.9-2.6,11.5-2.8,13.5
				l-2,18.6c-0.9,8.1-0.3,14,1.6,17.8c1.9,3.8,5.4,5.9,10.5,6.4c3.3,0.3,6.2-0.4,8.7-2.1c2.5-1.8,3.8-3.6,4-5.5l2.7-25.6
				c0.5-4.9,0-8.3-1.4-10.2c-0.7-1.1-1.8-2-3.2-2.7c-1.4-0.7-2.7-1.1-3.7-1.3c-1-0.2-1.5-0.4-1.5-0.6c0.3-3,0.8-4.5,1.4-4.6
				c2.9,0.1,7.2-0.1,12.8-0.5c5.6-0.5,9.8-1,12.6-1.5c0.1,0,0.5,0,1.3-0.2c0.5,0.1,0.9,0.5,1.1,1.2c0.2,0.8,0.3,1.3,0.1,1.7
				C684.3,104.5,683.4,108.9,683.2,110.8z"/>
			<path class="st28" d="M736,99.4c6.4,0.7,11.1,2.9,13.9,6.6c2.9,3.7,3.9,9.7,3,17.8l-3.2,30.6c-0.2,2.1,0.1,3.7,0.9,4.9
				c0.8,1.2,2,1.9,3.6,2c1.6,0.2,3.4-0.3,5.5-1.5c0.6,0.3,0.8,0.9,0.8,1.8c-0.2,2.1-0.7,3.6-1.4,4.6c-1.7,1.1-3.9,2.2-6.6,3.2
				c-2.7,1.1-5.3,1.5-7.7,1.2c-2.4-0.3-4.6-1.4-6.7-3.4c-2.1-2-3.4-4.1-3.9-6.2c-0.1,0.1-0.5,0.4-1.3,0.9c-0.7,0.5-1.7,1.1-3,1.8
				c-1.3,0.7-2.7,1.4-4.3,2.1c-1.6,0.7-3.4,1.2-5.5,1.5c-2.1,0.4-4.2,0.4-6.2,0.2c-5.2-0.5-9.3-2.4-12.2-5.6
				c-3-3.2-4.2-7.3-3.7-12.2c0.3-2.5,1.1-4.8,2.5-6.8c1.4-2,3-3.7,4.8-4.9c1.8-1.2,4.2-2.4,7.1-3.4c2.9-1,5.5-1.8,7.5-2.3
				c2.1-0.5,4.8-1,8-1.6c3.3-0.6,5.5-1,6.8-1.3c1-0.3,1.5-1.1,1.7-2.3l0.9-8.5c0.4-3.6-0.1-6.6-1.6-8.8c-1.4-2.2-3.6-3.5-6.4-3.8
				c-3.1-0.3-5.6,0.4-7.6,2.1c-2,1.7-3.1,4.4-3.5,7.9c-0.2,2.1-1.2,3.5-2.8,4.3c-1.7,0.8-3.5,1.1-5.4,0.9c-3.8-0.4-6.4-1.9-7.7-4.6
				c0.5-5,4.4-9.3,11.7-12.9C721.1,100,728.5,98.6,736,99.4z M722.7,158.3c2.8,0.3,5.3-0.2,7.5-1.4c2.2-1.2,3.4-2.8,3.6-4.7
				l1.7-15.8c-0.8,0.2-2.3,0.6-4.7,1.1c-2.4,0.5-4.3,0.9-5.6,1.3c-1.3,0.4-2.8,1-4.6,1.7c-1.8,0.8-3.1,1.8-4,3
				c-0.9,1.3-1.5,2.7-1.6,4.2c-0.3,3.3,0.2,5.8,1.7,7.6C718,157.1,720.1,158.1,722.7,158.3z"/>
			<path class="st28" d="M795.7,152.5c-0.7,6.4-0.8,11.1-0.4,14.1c0.1,0.7,1.3,1.7,3.6,2.8c2.2,1.1,3.8,1.7,4.6,1.8
				c0.3,0,0.4,0.8,0.3,2.2c-0.1,1.5-0.3,2.4-0.5,2.9c-1.4-0.3-3.4-0.6-5.8-1c-2.4-0.4-4.6-0.8-6.6-1.1c-2-0.3-3.8-0.6-5.6-0.7
				c-2-0.2-3.9-0.4-5.9-0.5c-2-0.1-4.2-0.2-6.6-0.3c-2.4-0.1-4.4-0.2-5.9-0.2c-0.4-0.5-0.5-1.4-0.3-2.9c0.2-1.5,0.4-2.2,0.9-2.2
				c1.1,0.1,2.9-0.1,5.3-0.8c2.4-0.6,3.8-1.3,4.1-2c1.2-3.5,2-7.3,2.5-11.4l6.8-64.6c0.4-3.9,0.5-7.5,0.2-10.7
				c-0.3-1.7-2.8-2.8-7.5-3.3l-1.6-0.2c-0.6-0.1-0.9-0.7-0.7-2c0.2-1.7,0.6-2.5,1.2-2.4c3.2,0,6.3-0.1,9.3-0.3
				c3-0.2,5.4-0.5,7.4-0.8c2-0.3,3.7-0.6,5.1-1c1.4-0.3,2.6-0.6,3.5-0.8l1.1-0.4l0.3,0c0.4,0,0.8,0.4,1.2,1.1s0.6,1.2,0.7,1.6
				c-1.7,3.8-2.8,8.6-3.4,14.4L795.7,152.5z"/>
			<path class="st28" d="M842.1,157.7c-0.7,6.3-0.7,11-0.2,14.1c0.1,0.7,1.4,1.6,4,2.7c2.5,1.1,4.2,1.6,5.2,1.7
				c0.4,0,0.6,0.8,0.5,2.3c-0.1,1.5-0.3,2.5-0.6,3c-0.7-0.2-3.5-0.7-8.2-1.5c-4.8-0.8-8.3-1.3-10.6-1.6c-2.6-0.3-6.3-0.5-11-0.7
				c-4.7-0.2-7.5-0.3-8.2-0.2c-0.4-0.5-0.5-1.5-0.3-3c0.2-1.6,0.5-2.3,0.9-2.3c1.1,0.1,3-0.1,5.7-0.6c2.7-0.5,4.1-1.1,4.4-1.8
				c1.1-3,1.8-6.8,2.3-11.2l2.7-25.3c0.5-4.9,0-8.3-1.4-10.2c-0.8-1.1-1.9-2-3.3-2.7c-1.4-0.7-2.6-1.1-3.6-1.3
				c-1-0.2-1.5-0.4-1.5-0.6c0.3-3,0.8-4.5,1.4-4.6c2.9,0.1,7.2-0.1,12.8-0.5c5.6-0.5,9.8-1,12.6-1.5c0.1,0,0.5,0,1.3-0.2
				c0.5,0.1,0.9,0.5,1.1,1.2c0.2,0.8,0.3,1.3,0.1,1.7c-1.5,6.5-2.4,11-2.7,13.2L842.1,157.7z M832.8,91c-1.7-2.1-2.4-4.5-2.1-7.1
				c0.3-2.6,1.4-4.8,3.5-6.5c2.1-1.7,4.4-2.4,7.1-2.1c2.7,0.3,4.9,1.5,6.5,3.5c1.7,2.1,2.4,4.4,2.1,7.1c-0.3,2.6-1.5,4.8-3.5,6.5
				c-2.1,1.7-4.4,2.4-7.1,2.2C836.7,94.3,834.5,93.1,832.8,91z"/>
			<path class="st28" d="M880,175.6c0,0.3,0.2,0.6,0.7,0.9c0.5,0.3,0.8,0.4,1.1,0.4l15.1,1.6c7.7,0.8,13.3-2.7,16.8-10.5
				c0.4-1,1.4-1.4,2.9-1.3c1.5,0.2,2.5,0.7,2.9,1.6l-4.9,19.4l-52.8-5.6c-1.9-1.5-2.9-2.8-2.7-3.9c0-0.3,0.1-0.5,0.2-0.6l41.6-50.4
				l-16.4-2c-1-0.1-2-0.1-3,0.1c-1,0.2-1.8,0.4-2.6,0.7c-0.8,0.3-1.5,0.7-2.3,1.3c-0.7,0.6-1.3,1.1-1.7,1.5
				c-0.4,0.5-0.9,1.1-1.4,1.8c-0.5,0.7-1,1.3-1.2,1.7c-0.3,0.4-0.6,0.9-1,1.6c-0.4,0.7-0.6,1.1-0.6,1.2c-0.4,0.6-1.7,0.8-4,0.5
				c-1.1-0.1-1.7-0.3-1.7-0.5c0.1-0.5,0.7-3.1,1.9-7.9c1.2-4.7,2.1-8.7,2.7-11.7c6,1.3,10.9,2.1,14.7,2.5l19,2
				c6.2,0.7,12.8,0.9,19.7,0.8c0.2,0.5,0.1,1.8-0.1,3.8l-41.3,49.1C880.5,174.5,880.1,175.1,880,175.6z"/>
			<path class="st28" d="M955.7,169.7c-0.7,6.3-0.7,11-0.2,14.1c0.1,0.7,1.4,1.6,4,2.7c2.5,1.1,4.2,1.6,5.2,1.7
				c0.4,0,0.6,0.8,0.5,2.3c-0.1,1.5-0.3,2.5-0.6,3c-0.7-0.2-3.5-0.7-8.2-1.5c-4.8-0.8-8.3-1.3-10.6-1.6c-2.6-0.3-6.3-0.5-11-0.7
				c-4.7-0.2-7.5-0.3-8.2-0.2c-0.4-0.5-0.5-1.5-0.3-3c0.2-1.6,0.5-2.3,0.9-2.3c1.1,0.1,3-0.1,5.7-0.6c2.7-0.5,4.1-1.1,4.4-1.8
				c1.1-3,1.8-6.8,2.3-11.2l2.7-25.3c0.5-4.9,0-8.3-1.4-10.2c-0.8-1.1-1.9-2-3.3-2.7c-1.4-0.7-2.6-1.1-3.6-1.3
				c-1-0.2-1.5-0.4-1.5-0.6c0.3-3,0.8-4.5,1.4-4.6c2.9,0.1,7.2-0.1,12.8-0.5c5.6-0.5,9.8-1,12.6-1.5c0.1,0,0.5,0,1.3-0.2
				c0.5,0.1,0.9,0.5,1.1,1.2c0.2,0.8,0.3,1.3,0.1,1.7c-1.5,6.5-2.4,11-2.7,13.2L955.7,169.7z M946.4,103c-1.7-2.1-2.4-4.5-2.1-7.1
				c0.3-2.6,1.4-4.8,3.5-6.5c2.1-1.7,4.4-2.4,7.1-2.1c2.7,0.3,4.9,1.5,6.5,3.5c1.7,2.1,2.4,4.4,2.1,7.1c-0.3,2.6-1.5,4.8-3.5,6.5
				c-2.1,1.7-4.4,2.4-7.1,2.2C950.3,106.3,948.1,105.1,946.4,103z"/>
			<path class="st28" d="M1030.4,130.5c13.4,1.4,18.9,12.7,16.7,34l-1.6,14.8c-0.7,6.3-0.8,11-0.4,14.1c0.1,0.7,1.5,1.6,4,2.7
				c2.6,1.1,4.3,1.6,5.2,1.7c0.3,0,0.4,0.8,0.3,2.3c-0.1,1.5-0.3,2.5-0.6,3c-0.6-0.2-3.3-0.7-8.1-1.5c-4.8-0.8-8.4-1.4-10.8-1.6
				c-2.5-0.3-5.9-0.5-10.4-0.6c-4.4-0.2-7.1-0.2-8.1-0.2c-0.4-0.5-0.5-1.5-0.3-3c0.2-1.6,0.5-2.3,0.9-2.3c1.1,0.1,2.9-0.1,5.3-0.6
				c2.4-0.5,3.8-1.1,4-1.9c1.2-3,2-6.8,2.4-11.2l1.6-14.8c0.9-8.6,0.4-14.7-1.6-18.4c-2-3.7-5.5-5.8-10.6-6.3
				c-3.3-0.3-6.3,0.3-9,1.8c-2.7,1.6-4.1,3.4-4.3,5.4l-2.8,26.7c-0.7,6.3-0.8,11-0.4,14.1c0.1,0.7,1.4,1.6,3.9,2.7
				c2.5,1,4.1,1.6,4.9,1.7c0.4,0,0.6,0.8,0.5,2.3c-0.1,1.5-0.3,2.5-0.6,3c-0.8-0.2-3.5-0.7-8.1-1.5c-4.6-0.8-8.1-1.3-10.4-1.6
				c-2.5-0.3-6.1-0.5-10.8-0.7c-4.7-0.2-7.5-0.3-8.4-0.3c-0.4-0.5-0.5-1.5-0.3-3c0.2-1.6,0.5-2.3,0.9-2.3c1.2,0.1,3.2-0.1,5.8-0.6
				c2.6-0.5,4.1-1.1,4.4-1.8c1.1-3,1.8-6.8,2.3-11.2l2.7-25.3c0.5-4.9,0-8.3-1.4-10.2c-0.7-1.1-1.8-2-3.3-2.7
				c-1.4-0.7-2.7-1.1-3.6-1.3c-1-0.2-1.4-0.4-1.4-0.6c0.3-3,0.7-4.5,1.3-4.6c4.8,0.1,13.3-0.6,25.5-2c0.1-0.1,0.3-0.2,0.4-0.2
				c0.2,0,0.3,0,0.5,0c0.2,0,0.3,0,0.4,0c0.4,0,0.7,0.4,1,1.2c0.2,0.8,0.3,1.3,0.3,1.8c-0.7,2.9-1.1,4.7-1.2,5.5
				c0,0.4,0,0.7,0.1,0.8c0.1,0,0.4-0.1,0.8-0.4c2.7-2.2,6.2-4.1,10.2-5.5S1026.4,130,1030.4,130.5z"/>
			<path class="st28" d="M1100,138.1c3.7,0.4,8,1.5,12.7,3.4c4.7,1.9,8.8,3,12.2,3.3l8.9,0.9c0.2,0,0.5,0.7,0.9,2.1
				c0.4,1.4,0.5,2.5,0.4,3.2c-0.2,1.5-0.5,2.1-1.2,2.1l-10.1-1.1c-0.4,0-0.6,0.1-0.7,0.4c0,0.1,0.3,1.5,1,4.2
				c0.7,2.7,0.9,5.2,0.6,7.6c-0.6,6.1-3.8,11.4-9.4,15.7c-5.6,4.4-12.3,6.2-20,5.4c-3.7-0.4-6.9-0.9-9.6-1.6
				c-1.3,0.4-2.5,1.2-3.7,2.5c-1.2,1.3-1.8,2.5-2,3.6c-0.1,1,0.3,2,1.2,2.8c0.9,0.8,2.4,1.5,4.4,2c2,0.5,3.8,0.9,5.2,1.2
				c1.4,0.3,3.5,0.6,6.2,1c1.1,0.1,1.9,0.2,2.3,0.2c10.3,1.4,17.8,3.6,22.3,6.7c4.5,3,6.6,7.1,6,12.2c-0.7,7.8-5.2,14.1-13.3,19
				c-8.2,4.9-17.2,6.8-27.2,5.8c-7.6-0.7-14-2.8-19.4-6.4c-5.3-3.6-7.7-8.1-7.1-13.6c0.3-3,2.1-5.7,5.3-8.2s6.6-4.1,10.2-4.9
				c-2.6-1.1-4.9-3-7-5.5c-2-2.6-2.9-5.4-2.6-8.5c0.5-4.5,4.8-8.7,13-12.6c-2.9-1.7-5.4-4.6-7.5-8.9c-2.2-4.3-3-8.6-2.5-13.1
				c0.8-7.4,4.1-12.9,9.9-16.6C1085.4,138.7,1092.2,137.3,1100,138.1z M1112.9,221.7c0.4-3.6-2-6.3-7.1-8.1
				c-5.1-1.7-12.1-3.1-20.9-4c-0.2,0-0.5,0-0.8,0.1c-0.2,0.1-0.5,0.2-0.8,0.4c-1.4,0.4-2.5,0.7-3.2,1c-0.8,0.3-1.7,0.8-2.7,1.4
				c-1,0.7-1.8,1.5-2.4,2.5c-0.6,1-0.9,2.2-1.1,3.7c-0.4,3.7,1.2,7,4.9,9.9c3.7,2.9,7.9,4.6,12.8,5.1c5.8,0.6,10.7-0.2,14.6-2.5
				C1110.2,228.9,1112.4,225.7,1112.9,221.7z M1085.8,159.4c-0.5,5.1,0,9.5,1.8,13.1c1.7,3.7,4.4,5.7,8.2,6.1
				c3.8,0.4,6.8-0.8,8.9-3.5c2.1-2.8,3.4-6.3,3.9-10.7c0.6-5.5,0-10.1-1.7-13.7c-1.7-3.6-4.5-5.7-8.5-6.1c-3.7-0.4-6.6,0.9-8.7,3.9
				C1087.5,151.7,1086.2,155.3,1085.8,159.4z"/>
		</g>
		<g>
			<path class="st28" d="M1.1,309.3c-1.4-7.7,0.7-14.8,6.2-21.2c5.5-6.4,12.3-10.4,20.4-11.8c2.9-0.5,5.4-0.8,7.6-0.9s5.3,0,9.3,0.3
				c4,0.3,6.8,0.5,8.3,0.5c2.5,6.8,4.5,14.5,6,23.4c0,1-0.6,1.5-1.6,1.7c-2.8,0.5-4.3,0.3-4.7-0.6c-1.5-4.6-4.5-8.8-9.1-12.7
				c-4.6-3.8-9.6-5.3-15-4.3c-4.7,0.8-8.1,2.8-10.1,5.9c-2,3.1-2.7,6.9-1.9,11.4c0.3,1.5,0.7,3,1.3,4.3c0.6,1.3,1.6,2.6,2.9,3.7
				c1.3,1.1,2.4,2.1,3.2,2.8c0.8,0.8,2.3,1.6,4.4,2.6c2.1,1,3.6,1.7,4.3,2.1c0.8,0.4,2.5,1.1,5.1,2.2c2.7,1.1,4.3,1.6,4.8,1.8
				c0.7,0.4,2.6,1.2,5.7,2.4c3.1,1.2,5.3,2.1,6.6,2.6c1.3,0.6,3.1,1.6,5.6,3c2.5,1.5,4.4,2.9,5.6,4.4c1.3,1.5,2.5,3.4,3.8,5.8
				c1.3,2.4,2.2,5,2.7,7.9c1.5,8.2-0.7,15.6-6.3,22.1c-5.7,6.5-12.9,10.5-21.6,12.1c-6.2,1.1-15.8,1.3-29.1,0.7
				c-1.6-3.5-3.2-8-5-13.5c-1.8-5.5-2.8-9.1-3.1-10.8c0-0.8,0.7-1.4,2.2-1.7c2.7-0.5,4.2-0.3,4.7,0.4c0.7,1.8,1.8,3.7,3.2,5.7
				c1.4,2,3.2,4.1,5.5,6.3c2.2,2.2,5,3.8,8.3,4.9c3.3,1.1,6.9,1.2,10.7,0.6c4.8-0.9,8.6-3,11.2-6.4c2.7-3.4,3.5-8,2.5-13.8
				c-0.3-1.7-0.9-3.4-1.9-4.9c-1-1.5-2-2.8-3-3.7c-1.1-1-2.6-2-4.5-3c-1.9-1-3.5-1.8-4.8-2.3c-1.3-0.5-3.1-1.2-5.5-2.1
				c-2.4-0.9-4.2-1.5-5.2-1.9c-0.4-0.3-1-0.6-1.9-0.9c-3.3-1.3-5.8-2.4-7.5-3.1c-1.7-0.8-4-1.9-6.7-3.5c-2.8-1.6-4.9-3.1-6.5-4.6
				c-1.5-1.5-3-3.5-4.5-5.9C2.6,315,1.6,312.3,1.1,309.3z"/>
			<path class="st28" d="M105.1,298.5c4.8-0.9,9.3-0.7,13.4,0.6c4.1,1.2,7.5,3.1,10.2,5.6c2.7,2.5,4.8,5.3,6.5,8.2
				c1.7,2.9,2.8,5.8,3.3,8.7c0.4,2.3,0.3,3.7-0.4,4.4c-0.7,0.7-2.2,1.3-4.5,1.7l-36.8,6.5c-0.7,0.1-1,0.5-0.9,1.1
				c0.7,3.7,2,7.2,3.9,10.4c2,3.3,4.8,5.9,8.5,7.9c3.7,2,7.8,2.6,12.3,1.8c1.5-0.3,3-0.6,4.4-1c1.4-0.4,2.7-0.9,3.9-1.5
				c1.2-0.6,2.2-1.1,3.1-1.6c0.9-0.5,1.7-1.1,2.6-1.9c0.9-0.8,1.5-1.3,1.8-1.7c0.4-0.3,1.3-1.2,2.7-2.6c0.2,0.1,0.5,0.3,0.9,0.8
				c0.4,0.5,0.6,0.9,0.7,1.5c0.2,1.1,0.1,2.2-0.4,3.1c-1,3-3.6,6.3-7.6,9.9c-4,3.6-8.9,5.9-14.5,6.9c-8.9,1.6-17.2-0.4-24.8-5.8
				c-7.6-5.5-12.3-12.9-14-22.4c-1.8-10.4-0.3-19.3,4.5-26.8C88.9,304.7,95.9,300.1,105.1,298.5z M105.3,305.7
				c-2.5,0.4-4.5,1.5-6.2,3.3c-1.7,1.8-2.9,3.8-3.5,6c-0.7,2.2-1.1,4.3-1.2,6.2c-0.1,1.9-0.1,3.4,0.1,4.7c0.1,0.7,0.5,1,1.1,0.9
				l24.9-4.4c0.9-0.2,1.2-1,1-2.6c-0.6-3.6-2.5-7-5.6-10.3C112.8,306.3,109.3,305,105.3,305.7z"/>
			<path class="st28" d="M191,283.2c13.2-2.3,21.7,7,25.4,28l2.6,14.6c1.1,6.3,2.3,10.8,3.5,13.7c0.3,0.7,1.9,1.2,4.6,1.5
				c2.8,0.3,4.6,0.4,5.5,0.2c0.3-0.1,0.6,0.7,0.9,2.1c0.3,1.5,0.4,2.5,0.3,3c-0.6,0-3.4,0.3-8.2,0.8c-4.8,0.5-8.4,1-10.8,1.4
				c-2.5,0.4-5.8,1.2-10.1,2.3c-4.3,1.1-6.9,1.8-7.8,2c-0.5-0.3-0.9-1.3-1.1-2.8s-0.2-2.3,0.2-2.4c1.1-0.2,2.8-0.9,4.9-2.1
				c2.2-1.2,3.3-2.1,3.4-2.9c0.3-3.2,0-7-0.8-11.4l-2.6-14.6c-1.5-8.5-3.7-14.3-6.6-17.2c-2.9-3-6.9-4-11.9-3.1
				c-3.3,0.6-6,2-8.1,4.2c-2.1,2.2-3,4.4-2.7,6.4l4.7,26.5c1.1,6.3,2.3,10.8,3.5,13.7c0.3,0.7,1.8,1.2,4.5,1.5
				c2.6,0.3,4.4,0.4,5.2,0.3c0.4-0.1,0.8,0.6,1.1,2.1c0.3,1.5,0.4,2.5,0.3,3c-0.8,0-3.6,0.3-8.2,0.8c-4.6,0.5-8.1,1-10.5,1.4
				c-2.5,0.4-6,1.2-10.6,2.4c-4.6,1.1-7.3,1.8-8.1,2.1c-0.5-0.3-0.9-1.3-1.1-2.8s-0.2-2.3,0.2-2.4c1.2-0.2,3-0.9,5.4-2.1
				c2.4-1.2,3.6-2.2,3.7-3c0.2-3.2-0.1-7-0.9-11.4l-4.4-25.1c-0.9-4.8-2.3-8-4.2-9.4c-1-0.9-2.3-1.4-3.9-1.7
				c-1.6-0.2-2.9-0.3-3.9-0.3c-1,0.1-1.5,0-1.5-0.2c-0.5-3-0.5-4.6,0-4.8c4.6-1.2,12.6-4.2,24-9c0.1-0.1,0.2-0.2,0.3-0.3
				c0.1-0.1,0.3-0.1,0.4-0.2c0.2,0,0.3,0,0.4-0.1c0.4-0.1,0.8,0.2,1.3,0.9c0.4,0.7,0.7,1.2,0.8,1.6c0.1,2.9,0.2,4.8,0.4,5.6
				c0.1,0.4,0.2,0.7,0.3,0.7c0.1,0,0.3-0.2,0.7-0.6c2-2.9,4.8-5.6,8.3-8.1C183.2,285.6,187,283.9,191,283.2z"/>
			<path class="st28" d="M241.4,285.4l-9.4,1.7c-0.7,0.1-1.3-1.1-1.8-3.8c-0.1-0.7-0.2-1.2-0.1-1.4c3.8-2.6,7.2-6,10.4-10.3
				c1.1-1.6,2.3-3.3,3.6-5.3c1.3-2,2.8-4.5,4.5-7.5c1-0.2,2-0.2,3-0.1c1,0.1,1.5,0.3,1.5,0.6l2.7,15.1c2.7-0.5,6.4-1.1,11.2-1.9
				c4.8-0.8,7.3-1.2,7.6-1.3c0.8-0.1,1.3,0.2,1.5,1.2c0.4,2.5,0.3,4.8-0.3,7l-18.5,3.3l6.6,37.1c0.7,4.1,2.2,7.1,4.3,8.9
				c2.1,1.8,4.7,2.5,7.8,1.9c1-0.2,2.1-0.5,3.2-1c1.1-0.5,2-0.9,2.6-1.3c0.7-0.4,1.3-0.9,1.8-1.3c0.6-0.4,0.9-0.6,1-0.7
				c0.4-0.2,0.9,0.2,1.6,1.1c0.7,0.9,1,1.6,1,1.9c-0.4,1.5-2.2,3.6-5.7,6.2c-3.4,2.6-6.9,4.2-10.5,4.8c-5.3,0.9-10.2,0-14.5-2.7
				c-4.4-2.8-7.2-7.7-8.4-14.9L241.4,285.4z"/>
			<path class="st28" d="M319.9,308c1.1,6.3,2.3,10.8,3.7,13.6c0.3,0.7,1.8,1.2,4.5,1.5c2.7,0.3,4.5,0.4,5.4,0.2
				c0.4-0.1,0.8,0.6,1.1,2.1c0.3,1.5,0.4,2.5,0.3,3c-0.7,0-3.5,0.3-8.3,0.8c-4.8,0.5-8.4,1-10.6,1.4c-2.6,0.5-6.2,1.2-10.8,2.4
				c-4.6,1.1-7.3,1.8-8,2c-0.5-0.3-0.9-1.3-1.1-2.8s-0.2-2.3,0.2-2.4c1.1-0.2,2.9-0.9,5.3-2.1c2.4-1.2,3.7-2.2,3.8-3
				c0.2-3.2-0.1-7-0.9-11.4l-4.4-25.1c-0.9-4.8-2.3-8-4.2-9.4c-1.1-0.9-2.4-1.4-3.9-1.7c-1.5-0.3-2.8-0.3-3.9-0.3
				c-1,0.1-1.6,0-1.6-0.2c-0.5-3-0.5-4.6,0.1-4.8c2.8-0.7,6.9-2.1,12.1-4.1c5.3-2,9.1-3.6,11.7-4.9c0.1,0,0.5-0.2,1.2-0.5
				c0.5-0.1,1,0.2,1.4,0.9c0.4,0.7,0.6,1.2,0.6,1.6c0.3,6.7,0.7,11.2,1.1,13.4L319.9,308z M292.5,246.4c-2.2-1.6-3.5-3.7-4-6.3
				c-0.5-2.6,0.1-5,1.6-7.2s3.6-3.5,6.3-4c2.7-0.5,5.1,0.1,7.3,1.6c2.2,1.5,3.5,3.6,4,6.2c0.5,2.6-0.1,5-1.6,7.3
				c-1.5,2.2-3.6,3.6-6.3,4C297.1,248.5,294.7,248,292.5,246.4z"/>
			<path class="st28" d="M380.8,249.6c3.9-0.7,7.4-0.3,10.5,1.2c3.1,1.5,5.6,3.7,7.5,6.7c2.4-3.6,5.7-6.8,9.9-9.7
				c4.1-2.9,8.8-4.7,13.9-5.6c3.7-0.7,7-0.4,9.9,0.8c2.9,1.2,5.4,3.1,7.4,5.8c2,2.7,3.6,5.6,4.9,9c1.3,3.3,2.3,7,3,11l2.9,16.2
				c1.1,6.3,2.3,10.8,3.5,13.7c0.3,0.7,1.8,1.2,4.5,1.5c2.7,0.3,4.5,0.4,5.4,0.2c0.3-0.1,0.6,0.7,0.9,2.1c0.3,1.5,0.4,2.5,0.3,3
				c-0.7,0-3.5,0.3-8.2,0.8c-4.7,0.5-8.3,1-10.6,1.4c-2.5,0.4-5.9,1.2-10.5,2.3c-4.5,1.1-7.2,1.8-8.1,2.1c-0.4-0.4-0.7-1.3-1-2.8
				s-0.3-2.3,0.1-2.4c1.2-0.2,3-0.9,5.3-2.1c2.3-1.2,3.5-2.2,3.6-2.9c0.2-3.2-0.1-6.9-0.8-11l-2.8-15.7
				c-2.6-14.9-8.7-21.5-18.3-19.8c-3.4,0.6-6.1,1.9-8,4c-2,2-3,3.9-3.2,5.5c0.1,0.3,0.1,0.7,0.1,1.2c0,0.5,0.1,0.9,0.3,1.2
				c0.7,2.2,1.4,5.4,2.2,9.5l2.9,16.3c1,5.8,2.2,10.2,3.4,13c0.3,0.7,1.8,1.2,4.5,1.5c2.7,0.3,4.5,0.4,5.4,0.2
				c0.3-0.1,0.6,0.7,0.9,2.1c0.3,1.5,0.4,2.5,0.3,3c-0.7,0-3.5,0.3-8.2,0.8c-4.7,0.5-8.3,1-10.6,1.4c-2.5,0.4-5.9,1.2-10.5,2.3
				c-4.5,1.1-7.2,1.8-8.1,2.1c-0.4-0.4-0.7-1.3-1-2.8s-0.3-2.3,0.1-2.4c1.2-0.2,3-0.9,5.3-2.1c2.3-1.2,3.5-2.2,3.6-2.9
				c0.2-3.2-0.1-7-0.9-11.4l-2.6-14.8c-1.4-8-3.6-13.6-6.6-16.8c-3-3.2-6.8-4.3-11.4-3.5c-3.1,0.5-5.7,1.9-8,4.1
				c-2.3,2.2-3.2,4.4-2.8,6.5l4.7,26.5c1.1,6.3,2.3,10.8,3.7,13.6c0.3,0.7,1.8,1.2,4.4,1.5c2.6,0.3,4.4,0.4,5.3,0.3
				c0.4-0.1,0.8,0.6,1.1,2.1c0.3,1.5,0.4,2.5,0.3,3c-0.8,0-3.6,0.3-8.2,0.8c-4.6,0.5-8.1,1-10.5,1.4c-2.6,0.5-6.1,1.2-10.7,2.4
				c-4.6,1.1-7.2,1.8-8,2.1c-0.5-0.3-0.9-1.3-1.1-2.8s-0.2-2.3,0.2-2.4c1.1-0.2,2.9-0.9,5.3-2.1c2.4-1.2,3.7-2.2,3.8-3
				c0.2-3.2-0.1-7-0.9-11.4l-4.4-25.1c-0.9-4.8-2.3-8-4.2-9.4c-1-0.9-2.3-1.4-3.9-1.7c-1.6-0.2-2.9-0.3-3.9-0.3
				c-1,0.1-1.6,0-1.6-0.2c-0.5-3-0.5-4.6,0.1-4.8c4.6-1.2,12.6-4.2,23.8-9c0.1-0.1,0.2-0.2,0.4-0.3c0.2-0.1,0.4-0.2,0.8-0.2
				c0.5-0.1,1,0.2,1.4,0.9c0.4,0.7,0.6,1.2,0.6,1.6c0.1,2.9,0.2,4.8,0.4,5.6c0.1,0.4,0.2,0.7,0.4,0.7c0.1,0,0.3-0.2,0.7-0.6
				c2-2.9,4.8-5.6,8.3-8.1C373.1,251.9,376.8,250.3,380.8,249.6z"/>
			<path class="st28" d="M491.9,229.9c4.8-0.9,9.3-0.7,13.4,0.6c4.1,1.2,7.5,3.1,10.2,5.6c2.7,2.5,4.8,5.3,6.5,8.2
				c1.7,2.9,2.8,5.8,3.3,8.7c0.4,2.3,0.3,3.7-0.4,4.4c-0.7,0.7-2.2,1.3-4.5,1.7l-36.8,6.5c-0.7,0.1-1,0.5-0.9,1.1
				c0.7,3.7,2,7.2,3.9,10.4c2,3.3,4.8,5.9,8.5,7.9c3.7,2,7.8,2.6,12.3,1.8c1.5-0.3,3-0.6,4.4-1c1.4-0.4,2.7-0.9,3.9-1.5
				c1.2-0.6,2.2-1.1,3.1-1.6c0.9-0.5,1.7-1.1,2.6-1.9c0.9-0.8,1.5-1.3,1.8-1.7c0.4-0.3,1.3-1.2,2.7-2.6c0.2,0.1,0.5,0.3,0.9,0.8
				c0.4,0.5,0.6,0.9,0.7,1.5c0.2,1.1,0.1,2.2-0.4,3.1c-1,3-3.6,6.3-7.6,9.9c-4,3.6-8.9,5.9-14.5,6.9c-8.9,1.6-17.2-0.4-24.8-5.8
				c-7.6-5.5-12.3-12.9-14-22.4c-1.8-10.4-0.3-19.3,4.5-26.8C475.6,236.1,482.7,231.5,491.9,229.9z M492.1,237.1
				c-2.5,0.4-4.5,1.5-6.2,3.3c-1.7,1.8-2.9,3.8-3.5,6c-0.7,2.2-1.1,4.3-1.2,6.2c-0.1,1.9-0.1,3.4,0.1,4.7c0.1,0.7,0.5,1,1.1,0.9
				l24.9-4.4c0.9-0.2,1.2-1,1-2.6c-0.6-3.6-2.5-7-5.6-10.3C499.6,237.7,496.1,236.4,492.1,237.1z"/>
			<path class="st28" d="M577.8,214.7c13.2-2.3,21.7,7,25.4,28l2.6,14.6c1.1,6.3,2.3,10.8,3.5,13.7c0.3,0.7,1.9,1.2,4.6,1.5
				c2.8,0.3,4.6,0.4,5.5,0.2c0.3-0.1,0.6,0.7,0.9,2.1c0.3,1.5,0.4,2.5,0.3,3c-0.6,0-3.4,0.3-8.2,0.8c-4.8,0.5-8.4,1-10.8,1.4
				c-2.5,0.4-5.8,1.2-10.1,2.3c-4.3,1.1-6.9,1.8-7.8,2c-0.5-0.3-0.9-1.3-1.1-2.8s-0.2-2.3,0.2-2.4c1.1-0.2,2.8-0.9,4.9-2.1
				c2.2-1.2,3.3-2.1,3.4-2.9c0.3-3.2,0-7-0.8-11.4l-2.6-14.6c-1.5-8.5-3.7-14.3-6.6-17.2c-2.9-3-6.9-4-11.9-3.1
				c-3.3,0.6-6,2-8.1,4.2c-2.1,2.2-3,4.4-2.7,6.4l4.7,26.5c1.1,6.3,2.3,10.8,3.5,13.7c0.3,0.7,1.8,1.2,4.5,1.5
				c2.6,0.3,4.4,0.4,5.2,0.3c0.4-0.1,0.8,0.6,1.1,2.1c0.3,1.5,0.4,2.5,0.3,3c-0.8,0-3.6,0.3-8.2,0.8c-4.6,0.5-8.1,1-10.5,1.4
				c-2.5,0.4-6,1.2-10.6,2.4c-4.6,1.1-7.3,1.8-8.1,2.1c-0.5-0.3-0.9-1.3-1.1-2.8s-0.2-2.3,0.2-2.4c1.2-0.2,3-0.9,5.4-2.1
				c2.4-1.2,3.6-2.2,3.7-3c0.2-3.2-0.1-7-0.9-11.4l-4.4-25.1c-0.9-4.8-2.3-8-4.2-9.4c-1-0.9-2.3-1.4-3.9-1.7
				c-1.6-0.2-2.9-0.3-3.9-0.3c-1,0.1-1.5,0-1.5-0.2c-0.5-3-0.5-4.6,0-4.8c4.6-1.2,12.6-4.2,24-9c0.1-0.1,0.2-0.2,0.3-0.3
				c0.1-0.1,0.3-0.1,0.4-0.2c0.2,0,0.3,0,0.4-0.1c0.4-0.1,0.8,0.2,1.3,0.9c0.4,0.7,0.7,1.2,0.8,1.6c0.1,2.9,0.2,4.8,0.4,5.6
				c0.1,0.4,0.2,0.7,0.3,0.7c0.1,0,0.3-0.2,0.7-0.6c2-2.9,4.8-5.6,8.3-8.1C570,217,573.8,215.4,577.8,214.7z"/>
			<path class="st28" d="M628.1,216.8l-9.4,1.7c-0.7,0.1-1.3-1.1-1.8-3.8c-0.1-0.7-0.2-1.2-0.1-1.4c3.8-2.6,7.2-6,10.4-10.3
				c1.1-1.6,2.3-3.3,3.6-5.3c1.3-2,2.8-4.5,4.5-7.5c1-0.2,2-0.2,3-0.1c1,0.1,1.5,0.3,1.5,0.6l2.7,15.1c2.7-0.5,6.4-1.1,11.2-1.9
				c4.8-0.8,7.3-1.2,7.6-1.3c0.8-0.1,1.3,0.2,1.5,1.2c0.4,2.5,0.3,4.8-0.3,7L644,214l6.6,37.1c0.7,4.1,2.2,7.1,4.3,8.9
				c2.1,1.8,4.7,2.5,7.8,1.9c1-0.2,2.1-0.5,3.2-1c1.1-0.5,2-0.9,2.6-1.3c0.7-0.4,1.3-0.9,1.8-1.3s0.9-0.6,1-0.7
				c0.4-0.2,0.9,0.2,1.6,1.1c0.7,0.9,1,1.6,1,1.9c-0.4,1.5-2.2,3.6-5.7,6.2c-3.4,2.6-6.9,4.2-10.5,4.8c-5.3,0.9-10.2,0-14.5-2.7
				c-4.4-2.8-7.2-7.7-8.4-14.9L628.1,216.8z"/>
			<path class="st28" d="M696.2,193.5c5.7-1,11.8-1.2,18.3-0.5c1.8,4.4,3.4,10.1,4.7,16.9c0.1,0.8-0.5,1.3-1.8,1.6
				c-2.3,0.4-3.6,0.2-3.9-0.6c-1.4-3.5-3.4-6.2-6.2-8.3c-2.8-2.1-6.1-2.8-10-2.1c-3,0.5-5.2,1.6-6.6,3.2c-1.5,1.6-2,3.7-1.5,6.1
				c0.3,1.4,0.8,2.7,1.5,3.8c0.8,1.1,1.9,2,3.4,2.8c1.5,0.8,2.7,1.4,3.8,1.9c1.1,0.4,2.7,1,4.8,1.7c0.8,0.3,1.3,0.5,1.7,0.5
				c0.2,0.1,1.1,0.3,2.5,0.8c1.5,0.5,2.4,0.8,2.8,0.9c0.4,0.1,1.3,0.5,2.7,1c1.4,0.5,2.4,1,3,1.3c0.6,0.3,1.5,0.8,2.7,1.4
				c1.2,0.6,2.1,1.2,2.7,1.7c0.6,0.5,1.3,1.2,2.3,2.1c0.9,0.8,1.6,1.7,2.1,2.5c0.5,0.8,0.9,1.7,1.4,2.8c0.4,1,0.8,2.1,1,3.2
				c1.1,6.5-0.4,12-4.7,16.6c-4.3,4.6-10,7.6-17.1,8.8c-6.4,1.1-13.2,0.9-20.6-0.8c-0.8-1.7-1.8-4.4-3.1-8.3c-1.2-3.9-2-6.8-2.3-8.7
				c0.5-0.6,1.2-1,2-1.2c2.4-0.4,3.7-0.2,3.9,0.6c1.6,4.2,4.2,7.3,7.9,9.3c3.7,2,7.4,2.7,11.2,2.1c2.9-0.5,5.1-1.6,6.7-3.4
				c1.6-1.8,2.1-4,1.7-6.8c-0.2-1-0.5-2-0.9-2.8c-0.4-0.8-1.1-1.6-1.9-2.4c-0.9-0.7-1.6-1.4-2.2-1.8c-0.6-0.5-1.6-1-3.1-1.6
				c-1.5-0.6-2.7-1-3.4-1.2c-0.7-0.2-2.1-0.7-4.2-1.3c-2.1-0.6-3.5-1.1-4.3-1.4c-5.2-1.6-9.3-3.7-12.4-6.3c-3.1-2.6-5-6-5.8-10.3
				c-1.1-6.3,0.5-11.5,4.8-15.8C684.2,197.4,689.6,194.7,696.2,193.5z"/>
		</g>
	</g>
</g>
<g id="Layer_2">
</g>
</svg>
