<svg id="Layer_1" data-name="Layer 1" xmlns="http://www.w3.org/2000/svg" viewBox="0 0 982.51 808.17"><defs><style>.cls-1{fill:#1928eb;}.cls-2{fill:#fff;stroke:#1928eb;stroke-miterlimit:10;stroke-width:1.6px;}</style></defs><title>title</title><path class="cls-1" d="M111.53,399.84,127,428.76q1.12,2.21,2.19,4a2.83,2.83,0,0,0,2,1.18,7.74,7.74,0,0,0,2.25.28c.15,0,.27.32.35,1a2,2,0,0,1,0,.88q-7,.41-7.31.45T119,437.76a1.65,1.65,0,0,1-.35-1q-.09-.84.14-.86a7.47,7.47,0,0,0,1.87-.56q1.17-.48,1.35-1a1.66,1.66,0,0,0,.09-.77,13.34,13.34,0,0,0-1.53-3.86l-2.61-5.15a.64.64,0,0,0-.43-.19q-1.86.09-5,.43t-6.56.9q-.35,0-.32.27l-1.6,5.61a16.48,16.48,0,0,0-.68,3.87,1.3,1.3,0,0,0,.76,1.08A5.82,5.82,0,0,0,106,437a10,10,0,0,0,1.79.1q.18,0,.26.79a3.81,3.81,0,0,1,0,1.11q-.29,0-2.73.12t-3.94.26q-1.5.16-3.53.53l-2.89.52a1.24,1.24,0,0,1-.33-.84q-.11-1,0-1.05a8.41,8.41,0,0,0,2.17-.73,3.59,3.59,0,0,0,1.81-1.34,27.66,27.66,0,0,0,1.7-4.74l7.89-27.16q.95-3.61,1.68-4.39a1.48,1.48,0,0,1,.94-.51A1,1,0,0,1,111.53,399.84ZM107,422.07q2,0,4.18-.28t4.71-.69l.09-.24-5.66-11.06-3.47,12.07C106.83,422,106.88,422.08,107,422.07Z"/><path class="cls-1" d="M153.86,407.93q7.45-.82,8.75,11l.6,5.48a24.29,24.29,0,0,0,1,5.15q.16.39,1.68.66a8.89,8.89,0,0,0,2,.21c.12,0,.21.26.29.81a3.3,3.3,0,0,1,0,1.14q-.35,0-3.06.1t-4,.27q-1.39.15-3.82.59t-2.95.56a1.71,1.71,0,0,1-.35-1.07q-.1-.87.14-.89a6.9,6.9,0,0,0,1.89-.65q1.25-.57,1.32-1a16.67,16.67,0,0,0,0-4.26l-.6-5.48q-.53-4.79-2-6.55a4.67,4.67,0,0,0-4.34-1.45,5.37,5.37,0,0,0-3.12,1.37,2.79,2.79,0,0,0-1.15,2.32l1.09,9.93a24.29,24.29,0,0,0,1,5.15q.16.39,1.62.67a8.36,8.36,0,0,0,1.92.23q.23,0,.35.81a3.3,3.3,0,0,1,0,1.14q-.47,0-3.06.1t-3.92.25q-1.39.15-4,.61t-3.06.57a1.71,1.71,0,0,1-.35-1.07q-.1-.87.14-.89a8.11,8.11,0,0,0,2.06-.66q1.37-.59,1.44-1a19,19,0,0,0-.06-4.26l-1-9.41q-.3-2.71-1.33-3.59a2.8,2.8,0,0,0-1.39-.72,6.62,6.62,0,0,0-1.42-.19q-.56,0-.57-.11-.18-1.67.1-1.76a82.35,82.35,0,0,0,9.1-2.75.38.38,0,0,1,.13-.1l.17,0,.14,0c.15,0,.3.1.45.36a1.76,1.76,0,0,1,.24.62,19.79,19.79,0,0,0,0,2.1.46.46,0,0,0,.09.28.86.86,0,0,0,.27-.21,12.86,12.86,0,0,1,3.28-2.81A10.16,10.16,0,0,1,153.86,407.93Z"/><path class="cls-1" d="M185.88,399.74a17.47,17.47,0,0,0-1-4.8q-.28-.44-1.71-.72A7.79,7.79,0,0,0,181,394q-.23,0-.33-.84a2.34,2.34,0,0,1,0-1.05q.29,0,3.22-.18t4.49-.32q.46-.05,7.35-1.16a3,3,0,0,1,.27.9c.07.65,0,1-.12,1a9.49,9.49,0,0,0-2,.69q-1.51.63-1.58,1a21.54,21.54,0,0,0,.1,5.13L194.81,421a21.55,21.55,0,0,0,1.09,5.14q.16.39,1.68.66a8.89,8.89,0,0,0,2,.21q.23,0,.35,1.07a2.57,2.57,0,0,1,0,.82q-7,.41-7.37.46-1.16.13-2.42.32l-2.78.45-2.44.41a1.14,1.14,0,0,1-.32-.78q-.12-1.1.11-1.12a9.27,9.27,0,0,0,2.12-.64q1.43-.57,1.55-1a20.32,20.32,0,0,0-.07-4.9Z"/><path class="cls-1" d="M220.06,400.66q7.45-.82,8.75,11l.6,5.48a24.29,24.29,0,0,0,1,5.15q.16.39,1.68.66a8.9,8.9,0,0,0,2,.21c.12,0,.21.26.29.81a3.29,3.29,0,0,1,0,1.14q-.35,0-3.06.1t-4,.27q-1.39.15-3.82.59t-2.95.56a1.7,1.7,0,0,1-.35-1.07q-.1-.87.14-.89a6.93,6.93,0,0,0,1.89-.65q1.25-.57,1.32-1a16.65,16.65,0,0,0,0-4.26l-.6-5.48q-.53-4.79-2-6.55a4.67,4.67,0,0,0-4.34-1.45,5.38,5.38,0,0,0-3.12,1.37,2.79,2.79,0,0,0-1.15,2.32l1.09,9.93a24.32,24.32,0,0,0,1,5.15q.16.39,1.62.67a8.36,8.36,0,0,0,1.92.23q.23,0,.35.81a3.3,3.3,0,0,1,0,1.14q-.47,0-3.06.1t-3.92.25q-1.39.15-4,.61t-3.06.57a1.71,1.71,0,0,1-.35-1.07q-.1-.87.14-.89a8.11,8.11,0,0,0,2.06-.66q1.37-.59,1.44-1a19,19,0,0,0-.06-4.26l-1-9.41q-.3-2.71-1.33-3.59a2.8,2.8,0,0,0-1.39-.72,6.62,6.62,0,0,0-1.42-.19q-.56,0-.57-.11-.18-1.67.1-1.76A82.36,82.36,0,0,0,211,402a.37.37,0,0,1,.14-.1.55.55,0,0,1,.17,0l.14,0c.15,0,.3.1.45.36a1.77,1.77,0,0,1,.24.62,19.84,19.84,0,0,0,0,2.1c0,.15,0,.25.09.28a.87.87,0,0,0,.27-.21,12.86,12.86,0,0,1,3.28-2.81A10.17,10.17,0,0,1,220.06,400.66Z"/><path class="cls-1" d="M239.28,402.64l-3.52.39q-.4,0-.57-1.46a1.43,1.43,0,0,1,0-.53,16.25,16.25,0,0,0,4.11-3.55q.67-.83,1.46-1.88t1.84-2.69a4.14,4.14,0,0,1,1.11,0c.36.06.54.15.55.26l.62,5.66,4.19-.43,2.86-.28q.46-.05.52.47a5.65,5.65,0,0,1-.3,2.6l-6.93.76,1.53,13.91a5.51,5.51,0,0,0,1.37,3.41,3.32,3.32,0,0,0,2.85.91,5.5,5.5,0,0,0,1.2-.28,6.21,6.21,0,0,0,1-.43l.71-.43a1.84,1.84,0,0,1,.39-.22q.22-.08.58.46t.31.73q-.26.85-2.25,2.15a9.16,9.16,0,0,1-4,1.52,7.33,7.33,0,0,1-5.32-1.37q-2.32-1.7-2.76-5.74Z"/><path class="cls-1" d="M273.2,394.82a5.8,5.8,0,0,1,4.94,1.39q.54,4.91-2.23,5.21a3.45,3.45,0,0,1-2.38-.91,3.64,3.64,0,0,0-2.61-.88,3.11,3.11,0,0,0-2.6,2.13,7.73,7.73,0,0,0-.6,3.89l.79,7.22a24.32,24.32,0,0,0,1,5.15q.16.39,1.62.67a8.21,8.21,0,0,0,2,.22c.12,0,.21.26.29.81a6,6,0,0,1,.09,1.13q-.47,0-3.09.1t-3.94.26q-1.39.15-4,.61t-3.06.57a1.71,1.71,0,0,1-.35-1.07q-.1-.87.14-.89a8.09,8.09,0,0,0,2.06-.66q1.37-.59,1.44-1a19,19,0,0,0-.06-4.26l-1-9.41q-.3-2.71-1.33-3.59a2.8,2.8,0,0,0-1.39-.72,6.6,6.6,0,0,0-1.42-.19q-.56,0-.57-.11-.18-1.67.1-1.76a82.34,82.34,0,0,0,9.1-2.75,3.56,3.56,0,0,1,.45-.17c.15,0,.3.1.45.36a1.39,1.39,0,0,1,.22.65c0,.18,0,.45,0,.82s0,.76,0,1.17a7.5,7.5,0,0,0,0,.79,10.66,10.66,0,0,1,2.52-3.11A6.36,6.36,0,0,1,273.2,394.82Z"/><path class="cls-1" d="M294.75,392.46a12.81,12.81,0,0,1,9.68,2.76,12.45,12.45,0,0,1,4.84,8.73,13.16,13.16,0,0,1-26.15,2.87,12.51,12.51,0,0,1,2.77-9.59A12.72,12.72,0,0,1,294.75,392.46Zm-.45,2.8a4.68,4.68,0,0,0-3.93,3.09,12.49,12.49,0,0,0-.81,6.43,16.94,16.94,0,0,0,2.77,7.93q2.26,3.26,5.6,2.89a4.73,4.73,0,0,0,4-3.12,12.34,12.34,0,0,0,.85-6.4,20,20,0,0,0-1.36-5.49,10.25,10.25,0,0,0-2.9-4A5.39,5.39,0,0,0,294.3,395.25Z"/><path class="cls-1" d="M324.54,389.07a10,10,0,0,1,4.3.35q.29,0,.19-1l-.6-5.43a20.24,20.24,0,0,0-.78-3.89q-.39-.89-3.1-.59l-.46.05q-.35,0-.45-.89t.25-1q1.71-.36,3.33-.83t2.65-.88q1-.41,1.78-.78l1.14-.56a2.91,2.91,0,0,1,.45-.19h.12a.63.63,0,0,1,.5.27,1.06,1.06,0,0,1,.3.58,22.22,22.22,0,0,0,0,5.49l2.79,25.4a21.28,21.28,0,0,0,.82,4.23.85.85,0,0,0,.65.57,3.55,3.55,0,0,0,1.13.17l1.11,0,.58,0q.13.1.19.68.13,1.16-.22,1.19-.8.15-2,.46t-2.38.64l-2.21.65q-1,.32-2.34.75-.35,0-.45-.94l-.11-1a.26.26,0,0,0-.11-.22c-.06,0-.11,0-.14,0a9.69,9.69,0,0,1-5.77,2.79,11.25,11.25,0,0,1-8.52-2.54,11.72,11.72,0,0,1-4.41-8.25,13.62,13.62,0,0,1,2.88-10.22A12.72,12.72,0,0,1,324.54,389.07Zm-.22,2.83A5.08,5.08,0,0,0,320,395a13.6,13.6,0,0,0-.79,7.16q.54,4.91,2.63,7.45a5.7,5.7,0,0,0,5.32,2.19,4.83,4.83,0,0,0,3.06-1.36,3.22,3.22,0,0,0,.93-2.7l-1.33-12.12a4,4,0,0,0-.34-1.19,5.42,5.42,0,0,0-.84-1.28,3.71,3.71,0,0,0-1.69-1A6.16,6.16,0,0,0,324.33,391.9Z"/><path class="cls-1" d="M368.09,390.72l1.25,11.43a12.86,12.86,0,0,0,.91,4,1.2,1.2,0,0,0,.71.39,4.51,4.51,0,0,0,1,.12,8.58,8.58,0,0,0,1,0,1.07,1.07,0,0,1,.5,0c.16,0,.25.19.29.49a4.42,4.42,0,0,1,0,.79c0,.38-.13.57-.29.59a13.37,13.37,0,0,0-2,.43l-2.35.67q-1.13.33-2.15.67t-2.26.72q-.41,0-.51-.88l-.28-2.54c-.06-.19-.13-.28-.21-.27a12.94,12.94,0,0,1-3.24,3,9.72,9.72,0,0,1-4.43,1.66,6.09,6.09,0,0,1-3.54-.6,7,7,0,0,1-2.59-2.29,12.49,12.49,0,0,1-1.58-3.22,17.72,17.72,0,0,1-.77-3.6l-.71-6.47q-.3-2.71-1.33-3.59a3.23,3.23,0,0,0-1.42-.72,6.11,6.11,0,0,0-1.42-.19c-.39,0-.59,0-.6-.11q-.18-1.67.1-1.76a43.84,43.84,0,0,0,4.66-1.21,45.61,45.61,0,0,0,4.45-1.54,1,1,0,0,0,.22-.08,1,1,0,0,1,.22-.08c.19,0,.35.1.48.36a2.07,2.07,0,0,1,.21.62q-.09,4,0,5.14l.76,6.93q.49,4.5,2,6.33a5.13,5.13,0,0,0,7.31,0,3.09,3.09,0,0,0,1-2.3l-1-9.53q-.3-2.71-1.33-3.59a2.8,2.8,0,0,0-1.39-.72,6.55,6.55,0,0,0-1.45-.19q-.58,0-.6-.11-.18-1.67.16-1.77a44.53,44.53,0,0,0,4.6-1.21,45.5,45.5,0,0,0,4.45-1.54,3.34,3.34,0,0,0,.45-.17c.19,0,.36.1.51.35a1.07,1.07,0,0,1,.19.62Q368,389.68,368.09,390.72Z"/><path class="cls-1" d="M387.22,382.31a14,14,0,0,1,5.57.41,9.26,9.26,0,0,1,3.68,1.85,7.17,7.17,0,0,1-.31,3.33,2.14,2.14,0,0,1-1.85,1.52,2.6,2.6,0,0,1-1.82-.38,6.59,6.59,0,0,1-1.57-1.76,4.2,4.2,0,0,0-4.16-2.23,4.47,4.47,0,0,0-3.68,2.95,12.42,12.42,0,0,0-.78,6.48q.57,5.2,3,7.47a6.85,6.85,0,0,0,5.7,1.92,15.73,15.73,0,0,0,1.66-.27,8.64,8.64,0,0,0,1.47-.45l1.17-.51a5,5,0,0,0,1-.64l.73-.58,1.07-.91a1,1,0,0,1,.33.31,1.12,1.12,0,0,1,.24.56,1.79,1.79,0,0,1-.23,1.14,9.47,9.47,0,0,1-3.06,3.49,10.67,10.67,0,0,1-5.49,2.18,11.75,11.75,0,0,1-9.16-2.79,12.82,12.82,0,0,1-4.62-8.78,13.2,13.2,0,0,1,2.47-9.47A11.7,11.7,0,0,1,387.22,382.31Z"/><path class="cls-1" d="M404.31,384.52l-3.52.39q-.41,0-.57-1.46a1.46,1.46,0,0,1,0-.53,16.25,16.25,0,0,0,4.11-3.55q.67-.83,1.46-1.88t1.84-2.69a4.15,4.15,0,0,1,1.11,0q.54.09.55.26l.62,5.66,4.19-.43L417,380q.46-.05.52.47a5.64,5.64,0,0,1-.3,2.6l-6.93.76,1.53,13.91a5.51,5.51,0,0,0,1.37,3.41,3.32,3.32,0,0,0,2.85.91,5.52,5.52,0,0,0,1.2-.28,6.17,6.17,0,0,0,1-.43l.71-.43a1.85,1.85,0,0,1,.39-.22q.22-.08.58.46t.31.73q-.26.85-2.25,2.15a9.16,9.16,0,0,1-4,1.52,7.33,7.33,0,0,1-5.32-1.37q-2.32-1.7-2.76-5.74Z"/><path class="cls-1" d="M433.49,394.76a21.34,21.34,0,0,0,1,5.15q.16.39,1.65.67a8.56,8.56,0,0,0,2,.22q.23,0,.35.81a3.28,3.28,0,0,1,0,1.14q-.41,0-3.11.11t-4,.26q-1.44.16-4.05.62t-3,.56a1.71,1.71,0,0,1-.35-1.07q-.1-.87.14-.89a8.43,8.43,0,0,0,2-.66q1.4-.59,1.47-1a19,19,0,0,0-.06-4.26l-1-9.41q-.3-2.71-1.33-3.59a3.23,3.23,0,0,0-1.42-.72,6.11,6.11,0,0,0-1.42-.19c-.39,0-.59,0-.6-.11q-.18-1.67.16-1.77a44.66,44.66,0,0,0,4.6-1.21,45.61,45.61,0,0,0,4.45-1.54,3.4,3.4,0,0,0,.45-.17c.19,0,.36.1.51.35a1.07,1.07,0,0,1,.19.62,49.84,49.84,0,0,0,.08,5Zm-8.66-23.5a3.54,3.54,0,0,1-1.32-2.43,3.44,3.44,0,0,1,.76-2.63,3.6,3.6,0,0,1,6.4,1.84,3.54,3.54,0,0,1-.76,2.65,3.58,3.58,0,0,1-5.08.56Z"/><path class="cls-1" d="M452.27,375.17a12.81,12.81,0,0,1,9.68,2.76,12.45,12.45,0,0,1,4.84,8.73,13.16,13.16,0,0,1-26.15,2.87,12.51,12.51,0,0,1,2.77-9.59A12.72,12.72,0,0,1,452.27,375.17Zm-.45,2.8a4.68,4.68,0,0,0-3.93,3.09,12.49,12.49,0,0,0-.81,6.43,16.94,16.94,0,0,0,2.77,7.93q2.26,3.26,5.6,2.89a4.73,4.73,0,0,0,4-3.12,12.35,12.35,0,0,0,.85-6.4,20,20,0,0,0-1.36-5.49,10.24,10.24,0,0,0-2.9-4A5.39,5.39,0,0,0,451.82,378Z"/><path class="cls-1" d="M488,371.25q7.45-.82,8.75,11l.6,5.48a24.32,24.32,0,0,0,1,5.15q.16.39,1.68.66a8.89,8.89,0,0,0,2,.21c.12,0,.21.26.29.81a3.28,3.28,0,0,1,0,1.14q-.35,0-3.06.1t-4,.27q-1.39.15-3.82.59t-2.95.56a1.71,1.71,0,0,1-.35-1.07q-.1-.87.14-.89a6.9,6.9,0,0,0,1.89-.65q1.25-.57,1.32-1a16.67,16.67,0,0,0,0-4.26l-.6-5.48q-.53-4.79-2-6.55a4.67,4.67,0,0,0-4.34-1.45,5.38,5.38,0,0,0-3.12,1.37,2.79,2.79,0,0,0-1.15,2.32l1.09,9.93a24.28,24.28,0,0,0,1,5.15q.16.39,1.62.67a8.36,8.36,0,0,0,1.92.23q.23,0,.35.81a3.3,3.3,0,0,1,0,1.14q-.47,0-3.06.1t-3.92.25q-1.39.15-4,.61t-3.06.57a1.71,1.71,0,0,1-.35-1.07q-.1-.87.14-.89a8.11,8.11,0,0,0,2.06-.66q1.37-.59,1.44-1a19,19,0,0,0-.06-4.26l-1-9.41q-.3-2.71-1.33-3.59a2.8,2.8,0,0,0-1.39-.72,6.62,6.62,0,0,0-1.42-.19q-.56,0-.57-.11-.18-1.67.1-1.76a82.27,82.27,0,0,0,9.1-2.75.38.38,0,0,1,.13-.1l.17,0,.14,0c.15,0,.3.1.45.36a1.76,1.76,0,0,1,.24.62,19.79,19.79,0,0,0,0,2.1.46.46,0,0,0,.09.28.86.86,0,0,0,.27-.21,12.87,12.87,0,0,1,3.28-2.81A10.16,10.16,0,0,1,488,371.25Z"/><path class="cls-2" d="M80.82,90.49q-.8,1.87-6.93,10.21t-7.52,8.42q-15.08.67-35.9-8.26-19-8.13-26.33-27.79A50.35,50.35,0,0,1,5,34.16Q13.76,13.78,33.65,5.05A48.11,48.11,0,0,1,73.5,4.89a172,172,0,0,1,32.22,18.42q.37.33-3.17,9.78T98,44.83q-.92,2.15-4.37.67a5,5,0,0,1-1.76-1.44,21.81,21.81,0,0,0,.2-6.21,40,40,0,0,0-1.87-8.12,23.76,23.76,0,0,0-6.47-9.49,41.88,41.88,0,0,0-12.69-8.08Q57,6.14,44.17,14.41T24.4,38.91Q16.63,57,20.07,73.36T39.6,96.61q12.78,5.48,23.7.64A21.37,21.37,0,0,0,69,93.32q3-2.72,4.73-4.69t2.06-1.83Q80.8,89,80.82,90.49Z"/><path class="cls-2" d="M136.9,70.34a34.45,34.45,0,0,1,19,19.29,33.49,33.49,0,0,1-.22,26.86,35.08,35.08,0,0,1-46.31,18.39,34.22,34.22,0,0,1-19.05-19.4,33.86,33.86,0,0,1,.32-26.9,33.66,33.66,0,0,1,19.2-18.79A34.23,34.23,0,0,1,136.9,70.34Zm-4.76,5.95q-6.75-2.9-13.29,2a33.61,33.61,0,0,0-10.42,14q-5,11.63-4,22.25t9.3,14.19q6.75,2.89,13.39-2.08a33.23,33.23,0,0,0,10.46-13.88,53.65,53.65,0,0,0,4.08-14.66,27.55,27.55,0,0,0-1.44-13.29A14.49,14.49,0,0,0,132.13,76.29Z"/><path class="cls-2" d="M224.2,107.8q18.52,7.95,5.89,37.38l-5.85,13.64q-3.76,8.76-4.54,13.35-.15,1.13,3.06,3.78a23.94,23.94,0,0,0,4.49,3.2c.29.12.15.89-.39,2.3a8.85,8.85,0,0,1-1.42,2.71q-.8-.51-7.29-3.81t-9.79-4.71q-3.45-1.48-9.73-3.67t-7.64-2.6q-.33-.82.6-3t1.5-1.91a18.6,18.6,0,0,0,5.27,1q3.69.31,4.41-.57a44.84,44.84,0,0,0,5.65-10l5.85-13.64q5.11-11.92,3.92-18t-8.23-9.14a14.46,14.46,0,0,0-9.12-.94q-4.52,1-5.76,3.91l-10.6,24.7q-3.76,8.76-4.54,13.35-.15,1.13,2.91,3.71a22.56,22.56,0,0,0,4.2,3.08q.57.25-.25,2.36a8.91,8.91,0,0,1-1.42,2.71q-1.09-.64-7.29-3.81t-9.51-4.59q-3.45-1.48-10.17-3.85T150.49,152q-.33-.82.6-3t1.5-1.91a21.84,21.84,0,0,0,5.7,1.17q4,.43,4.7-.45a51.09,51.09,0,0,0,5.5-10l10-23.41q2.89-6.75,1.65-10.18a7.53,7.53,0,0,0-2.31-3.54,17.86,17.86,0,0,0-3.08-2.34q-1.31-.73-1.18-1,1.79-4.16,2.57-4,6.85,2.26,25,5.61a1,1,0,0,1,.45-.06,1.53,1.53,0,0,1,.46.11l.36.15c.38.16.57.64.57,1.44a4.76,4.76,0,0,1-.25,1.76,53.3,53.3,0,0,0-2.79,4.92,1.23,1.23,0,0,0-.16.78,2.32,2.32,0,0,0,.9-.12,34.59,34.59,0,0,1,11.42-2.24A27.34,27.34,0,0,1,224.2,107.8Z"/><path class="cls-2" d="M265.12,137.26l-8.76-3.76q-1-.43.6-4.16a3.86,3.86,0,0,1,.7-1.23A43.72,43.72,0,0,0,272,125.24q2.66-1.06,5.91-2.48t7.86-3.85a11.1,11.1,0,0,1,2.57,1.53c.76.61,1.08,1.06,1,1.34l-6,14.07q3.73,1.6,10.38,4.54l7.08,3.12q1.15.49.59,1.79a15.18,15.18,0,0,1-4.15,5.7l-17.23-7.39-14.85,34.61Q262.6,184,263.75,188a8.92,8.92,0,0,0,5.46,5.91,14.75,14.75,0,0,0,3.17.93,16.6,16.6,0,0,0,2.92.32c.79,0,1.54,0,2.24-.06a5,5,0,0,1,1.19,0c.42.07.67.69.74,1.85a3.67,3.67,0,0,1-.23,2.11q-1.73,1.64-8.1,2a24.62,24.62,0,0,1-11.41-1.75,19.7,19.7,0,0,1-10.64-10.26q-3.18-7.06,1.14-17.11Z"/><path class="cls-2" d="M340.8,157.83a29,29,0,0,1,10.92,7.83A24.75,24.75,0,0,1,357.15,176a36.28,36.28,0,0,1,1,10.44,27,27,0,0,1-2,9.08q-1.36,3.16-2.77,3.49t-4.72-1.09l-34.32-14.72q-1-.43-1.37.43a30.38,30.38,0,0,0-2.45,10.85,21.5,21.5,0,0,0,2.75,11.21,18.39,18.39,0,0,0,9.3,8.24,42.39,42.39,0,0,0,4.26,1.57,23.21,23.21,0,0,0,4,.88q1.94.24,3.42.36a13.42,13.42,0,0,0,3.21-.15l2.46-.39q.73-.11,3.7-.71a2.55,2.55,0,0,1,.35,1.17,3,3,0,0,1-.19,1.62,4.8,4.8,0,0,1-2,2.36q-3.82,3-11.8,4.12a29,29,0,0,1-15.88-2.22A31.64,31.64,0,0,1,296.49,204a33.7,33.7,0,0,1,.59-26.35q6.22-14.5,18.5-19.95T340.8,157.83ZM337,164a11,11,0,0,0-7-.64,14.73,14.73,0,0,0-6.26,3.1,29.89,29.89,0,0,0-4.39,4.49,19.16,19.16,0,0,0-2.46,4q-.43,1,.43,1.38l23.26,10q1.29.55,2.22-1.6a20.25,20.25,0,0,0,1-11.64Q342.56,166.4,337,164Z"/><path class="cls-2" d="M373.45,175.24a4.44,4.44,0,0,1,1.56-2.05q15.42,7.64,16.57,8.13t17.6,6.53a5.39,5.39,0,0,1-.58,2.13q-1.11,2.59-1.68,2.34a11.89,11.89,0,0,0-4.36-.94q-2.35-.07-3,1.36a3.41,3.41,0,0,0,0,2l3.56,16.66q1.62-1,6.16-3.65t6.82-4.21a7.72,7.72,0,0,0,2.78-2.72,2.07,2.07,0,0,0-.51-2.18,7.71,7.71,0,0,0-2.25-1.9q-1.31-.73-2.78-1.45a5.09,5.09,0,0,1-1.56-.92q-.58-.25.41-2.54a3.61,3.61,0,0,1,1.56-2.05q15.28,7.57,16.29,8t15.3,5.54a9.15,9.15,0,0,1-.7,2.42q-1,2.3-1.27,2.17-10.26-3-14.61-.83l-22.86,11.28a2.76,2.76,0,0,0-.78,1,2.12,2.12,0,0,0,0,1.68l6.68,29.22a18.16,18.16,0,0,0,8.9,12.15q.43.18-.62,2.63a4.15,4.15,0,0,1-1.5,1.91q-2.09-1.07-5.06-2.68t-5.41-2.83q-2.45-1.22-5.32-2.45-3.16-1.36-5.95-2.38t-6.29-2.19q-3.5-1.16-6-2.06a13.44,13.44,0,0,1,.51-2q1.29-3,1.72-2.83a10.66,10.66,0,0,0,4.59.78q2.58-.08,3.2-1.52a2.41,2.41,0,0,0,.08-1l-4.18-18.79L376,235.84A4.57,4.57,0,0,0,373.9,238a2.28,2.28,0,0,0-.11,1.65,3.86,3.86,0,0,0,1.25,1.64,17.6,17.6,0,0,0,1.72,1.33q.73.48,2.29,1.41t1.85,1q.43.18-.62,2.63-.8,1.87-1.62,2.19-2.09-1.07-4.91-2.62t-5.2-2.74q-2.38-1.19-5.11-2.36t-5.23-2.08q-2.51-.9-5.64-1.91t-5.35-1.79a10.8,10.8,0,0,1,.76-2.57q1-2.44,1.62-2.19,9.95,2.57,14.83-.1l23.37-12.07a2.81,2.81,0,0,0,.78-1,1.93,1.93,0,0,0,0-1.19l-6.9-29.49a13.11,13.11,0,0,0-3.45-5.82,16.58,16.58,0,0,0-5.24-4Q372.4,177.68,373.45,175.24Z"/><path class="cls-2" d="M459.25,220.55l-8.76-3.76q-1-.43.6-4.17a3.88,3.88,0,0,1,.7-1.23,43.71,43.71,0,0,0,14.32-2.87q2.66-1.06,5.91-2.48t7.86-3.85a11.1,11.1,0,0,1,2.57,1.53c.76.61,1.08,1.06,1,1.34l-6,14.07q3.73,1.6,10.38,4.54l7.08,3.12q1.15.49.59,1.79a15.18,15.18,0,0,1-4.15,5.7L474,226.89,459.2,261.5q-2.47,5.75-1.32,9.81a8.93,8.93,0,0,0,5.46,5.91,14.81,14.81,0,0,0,3.17.94,16.59,16.59,0,0,0,2.92.32c.79,0,1.54,0,2.24-.06a5,5,0,0,1,1.19,0q.63.11.74,1.85a3.66,3.66,0,0,1-.23,2.11q-1.73,1.64-8.1,2a24.64,24.64,0,0,1-11.41-1.75,19.71,19.71,0,0,1-10.64-10.26q-3.18-7.06,1.14-17.11Z"/><path class="cls-2" d="M561.59,270.92l-12.2,28.43q-3,6.89-3.16,10.54a3.25,3.25,0,0,0,1.16,1.86,12.15,12.15,0,0,0,2.27,1.65,23.28,23.28,0,0,0,2.31,1.16c.72.31,1.1.53,1.16.67q.51.39,0,1.54a11.85,11.85,0,0,1-1.12,1.81c-.58.83-1.07,1.16-1.45,1a36,36,0,0,0-5.31-1.68q-3.3-.82-6.39-1.55T533,315.08q-2.83-.54-6.24-1.31-1-.43,0-2.73l2.71-6.32q.16-.78-.12-.9a34.88,34.88,0,0,1-11.53,2.7,26.16,26.16,0,0,1-12.58-2,16.37,16.37,0,0,1-7.5-6.11,18.84,18.84,0,0,1-3-8.78,33.54,33.54,0,0,1,.56-9.62,47.63,47.63,0,0,1,2.95-9.45l6.9-16.08q2.89-6.75,1.65-10.18a8.67,8.67,0,0,0-2.38-3.57,16.45,16.45,0,0,0-3.08-2.34q-1.38-.76-1.25-1,1.79-4.16,2.57-4a117.77,117.77,0,0,0,12.51,3.33A122.39,122.39,0,0,0,527.53,239a2.53,2.53,0,0,0,.64.1,2.61,2.61,0,0,1,.64.1c.48.21.69.7.65,1.47a5.59,5.59,0,0,1-.32,1.73q-5.48,9.21-6.71,12.08L515,271.68q-4.81,11.2-3.74,17.44t8.1,9.26a12.26,12.26,0,0,0,9,.53q4.36-1.45,5.47-4L544,271.18q2.89-6.75,1.64-10.18a7.53,7.53,0,0,0-2.31-3.54,17.6,17.6,0,0,0-3.15-2.37q-1.38-.76-1.25-1,1.79-4.16,2.71-3.94A119.85,119.85,0,0,0,554,253.37a122.42,122.42,0,0,0,12.45,2.28,9.12,9.12,0,0,0,1.27.21q.72.31.72,1.5a2.87,2.87,0,0,1-.39,1.7Q562.7,268.33,561.59,270.92Z"/><path class="cls-2" d="M615.34,275.62q8.9,3.82,11.35,10.39t-2.42,17.92l-12.14,28.29a7.13,7.13,0,0,0-.59,4.93,4.69,4.69,0,0,0,2.8,3,9.73,9.73,0,0,0,5.68.23q.74.66.18,1.95a9.28,9.28,0,0,1-2.71,3.94,38.68,38.68,0,0,1-7.28,1.13,16.27,16.27,0,0,1-7.69-1.09,11.4,11.4,0,0,1-5.41-5.21,12.8,12.8,0,0,1-1.88-7.1q-.21.08-1.48.47t-3.42.83a45.87,45.87,0,0,1-4.72.7,25,25,0,0,1-5.71-.16,22.77,22.77,0,0,1-6-1.64q-7.18-3.08-10-9t.13-12.78a14.41,14.41,0,0,1,4.42-5.75,18.63,18.63,0,0,1,6.07-3.26,32,32,0,0,1,7.81-1.16,64.44,64.44,0,0,1,7.88.06q3.2.27,8.13.85t6.9.75a2.46,2.46,0,0,0,2.28-1.74l3.39-7.9q2.15-5,1.09-8.88a8.17,8.17,0,0,0-4.94-5.52,9.48,9.48,0,0,0-7.89-.24q-3.58,1.61-5.67,6.49a5.07,5.07,0,0,1-4,3.31,9.71,9.71,0,0,1-5.47-.73q-5.32-2.28-6-6.65,3-6.89,15-8.89A39.19,39.19,0,0,1,615.34,275.62ZM585.23,328a12.11,12.11,0,0,0,7.54.85q3.66-.81,4.77-3.39l6.28-14.65q-1.19,0-4.85-.38t-5.69-.4a42.92,42.92,0,0,0-4.88.29,9.42,9.42,0,0,0-4.73,1.71,8.6,8.6,0,0,0-2.8,3.56q-2,4.6-.6,7.73A9,9,0,0,0,585.23,328Z"/><path class="cls-2" d="M656.72,344q-3.82,8.91-4.54,13.36-.15,1.13,2.56,3.73a17.09,17.09,0,0,0,3.86,3.1c.29.12.17.87-.36,2.23a8.52,8.52,0,0,1-1.39,2.63l-5.23-2.67q-3.28-1.67-5.95-3t-5.11-2.36q-2.73-1.17-5.52-2.2t-6.18-2.23l-5.61-2q-.33-.82.57-2.9t1.47-1.84a16.73,16.73,0,0,0,5.33.84q3.75.17,4.47-.72a51.8,51.8,0,0,0,5.71-10.13l25.63-59.73a54.5,54.5,0,0,0,3.33-10.13q.26-2.6-6.19-5.38l-1.44-.62q-.86-.37-.12-2.09,1-2.3,1.85-1.93,4.63,1.48,9,2.49t7.29,1.43q3,.42,5.18.61t3.55.25H690l.29.12c.38.16.67.63.85,1.39a4.79,4.79,0,0,1,.17,1.77,49.43,49.43,0,0,0-7.51,12.76Z"/><path class="cls-2" d="M699.53,362.74q-3.76,8.76-4.4,13.42-.15,1.13,3,3.75a23,23,0,0,0,4.42,3.17q.57.24-.25,2.36a8.88,8.88,0,0,1-1.42,2.71q-.94-.58-7.44-3.87t-9.65-4.65q-3.59-1.54-10.31-3.91T665.69,373q-.33-.82.6-3t1.5-1.91a22.7,22.7,0,0,0,5.63,1.14q4.05.46,4.77-.42a51,51,0,0,0,5.5-10.05l10-23.41q2.89-6.75,1.64-10.18a8.68,8.68,0,0,0-2.38-3.57,16.48,16.48,0,0,0-3.08-2.34q-1.38-.76-1.25-1,1.79-4.16,2.71-3.94a120.21,120.21,0,0,0,12.37,3.27,122.71,122.71,0,0,0,12.45,2.28,9.09,9.09,0,0,0,1.27.21c.48.21.72.71.72,1.5a2.87,2.87,0,0,1-.39,1.7,134,134,0,0,0-6.45,11.86Zm10.85-66.5a9.51,9.51,0,0,1,.13-7.43,9.6,9.6,0,0,1,12.69-5,9.36,9.36,0,0,1,5.21,5.3,9.26,9.26,0,0,1-.09,7.35,9.52,9.52,0,0,1-5.3,5.21,9.62,9.62,0,0,1-12.64-5.42Z"/><path class="cls-2" d="M730.44,391c-.12.29,0,.63.41,1a3.53,3.53,0,0,0,.88.72l13.93,6q10.62,4.56,19.16-5,1-1.25,3.13-.36t2.31,2.35l-10.41,17.13L711,391.82q-2.13-3-1.46-4.53c.12-.29.25-.46.39-.51l54.67-35.88-15.1-6.82a11.07,11.07,0,0,0-2.88-.81,14,14,0,0,0-2.67-.12,9.15,9.15,0,0,0-2.52.53,10.93,10.93,0,0,0-2.11,1c-.54.33-1.18.77-1.92,1.3s-1.29,1-1.64,1.25-.82.73-1.4,1.27a7,7,0,0,0-.92,1q-.8.68-4-.68c-1.05-.45-1.54-.77-1.46-1q.31-.72,4.18-7t6-10.43q8.1,4.49,13.27,6.71L769,344.61a163.48,163.48,0,0,0,18.58,6.61,13.26,13.26,0,0,1-1.19,3.57l-54,34.65A4.79,4.79,0,0,0,730.44,391Z"/><path class="cls-2" d="M804.49,407.78q-3.76,8.76-4.4,13.42-.15,1.13,3,3.75a23,23,0,0,0,4.42,3.17c.38.16.3,1-.25,2.36a8.89,8.89,0,0,1-1.42,2.71q-.94-.58-7.43-3.87t-9.65-4.65q-3.59-1.54-10.31-3.91t-7.78-2.66q-.33-.82.6-3t1.5-1.91a22.62,22.62,0,0,0,5.63,1.14q4.05.46,4.77-.42a51.11,51.11,0,0,0,5.5-10.05l10-23.41q2.89-6.75,1.65-10.18a8.7,8.7,0,0,0-2.38-3.57,16.41,16.41,0,0,0-3.08-2.34q-1.38-.76-1.25-1,1.79-4.16,2.71-3.94a119.65,119.65,0,0,0,12.37,3.27,122.71,122.71,0,0,0,12.45,2.28,9.31,9.31,0,0,0,1.27.21q.72.31.72,1.5a2.89,2.89,0,0,1-.39,1.7,133.73,133.73,0,0,0-6.45,11.86Zm10.85-66.5a9.52,9.52,0,0,1,.13-7.43,9.26,9.26,0,0,1,5.26-5.14,9.69,9.69,0,0,1,12.54,12.78A9.52,9.52,0,0,1,828,346.7a9.62,9.62,0,0,1-12.64-5.42Z"/><path class="cls-2" d="M887.45,392.36q18.52,7.95,5.89,37.38l-5.85,13.64q-3.76,8.76-4.54,13.35-.15,1.13,3.06,3.78a24,24,0,0,0,4.49,3.2q.43.18-.39,2.3a8.83,8.83,0,0,1-1.42,2.71q-.8-.51-7.29-3.81t-9.79-4.71q-3.45-1.48-9.73-3.67t-7.64-2.6q-.33-.82.6-3t1.5-1.91a18.57,18.57,0,0,0,5.27,1q3.69.31,4.41-.57a44.85,44.85,0,0,0,5.65-10l5.85-13.64q5.11-11.92,3.92-18t-8.23-9.14a14.46,14.46,0,0,0-9.12-.94q-4.52,1-5.76,3.91l-10.6,24.7q-3.76,8.76-4.54,13.35-.15,1.13,2.91,3.72a22.5,22.5,0,0,0,4.21,3.08q.57.25-.25,2.36a8.9,8.9,0,0,1-1.42,2.71q-1.09-.64-7.29-3.81t-9.51-4.59q-3.45-1.48-10.16-3.85t-7.93-2.72q-.33-.82.6-3t1.5-1.91a21.85,21.85,0,0,0,5.7,1.17q4,.43,4.7-.45a51.13,51.13,0,0,0,5.5-10.05l10-23.41q2.89-6.75,1.64-10.18a7.52,7.52,0,0,0-2.31-3.54,17.87,17.87,0,0,0-3.08-2.34q-1.31-.73-1.18-1,1.79-4.16,2.57-4,6.85,2.26,25,5.61a1,1,0,0,1,.45-.06,1.53,1.53,0,0,1,.46.11l.36.15c.38.16.57.64.57,1.44a4.73,4.73,0,0,1-.25,1.76,53.43,53.43,0,0,0-2.79,4.92,1.23,1.23,0,0,0-.16.78,2.36,2.36,0,0,0,.9-.12,34.59,34.59,0,0,1,11.42-2.24A27.34,27.34,0,0,1,887.45,392.36Z"/><path class="cls-2" d="M951.66,420.25a49.53,49.53,0,0,1,11.12,7A48.15,48.15,0,0,0,973.46,434l8.18,3.51c.19.08.26.85.2,2.3a9.59,9.59,0,0,1-.51,3.18q-.86,2-1.72,1.64l-9.33-4c-.38-.16-.64-.1-.76.18q-.06.15-.31,4.29a22.11,22.11,0,0,1-1.67,7.45q-3.64,8.48-13.67,12.24T933.21,464a64.72,64.72,0,0,1-8.66-4.39,8.39,8.39,0,0,0-4.3,1.3,6.65,6.65,0,0,0-2.94,2.9,3.21,3.21,0,0,0,.32,3,10.52,10.52,0,0,0,3.62,3.25q2.69,1.66,4.64,2.67t5.62,2.75l2.15.92q14.17,6.59,19.34,13t2.15,13.42q-4.48,10.83-18.35,14.23a42.69,42.69,0,0,1-27.65-2.51,40.61,40.61,0,0,1-16.58-11.87q-6-7.53-2.77-15.13,1.79-4.17,7.54-6.29a25.83,25.83,0,0,1,11.17-1.67,17.82,17.82,0,0,1-5-7.34,11.36,11.36,0,0,1,.08-8.89q2.65-6.17,16.11-8.22-3.37-3.65-4.58-10.72a23,23,0,0,1,1.43-13.24q4.37-10.2,14.37-12.88T951.66,420.25Zm-12.41,83.6q2.16-5-4.39-9.79t-18.75-10a2.52,2.52,0,0,0-.78-.16,6.75,6.75,0,0,0-.9.12q-2.18-.09-3.4,0a13.45,13.45,0,0,0-3,.59,7.59,7.59,0,0,0-3,1.68,9.07,9.07,0,0,0-2.12,3.17q-2.22,5.17,1.76,11a24.34,24.34,0,0,0,10.73,8.68q8,3.45,14.74,1.9T939.25,503.85Zm-7.44-67.46a24.73,24.73,0,0,0-2.21,13.08q.81,6,6,8.26t9.58-.73a20.71,20.71,0,0,0,6.86-9q3.27-7.61,2.43-13.58a10,10,0,0,0-6.3-8.31,8.81,8.81,0,0,0-9.52,1.19A22.68,22.68,0,0,0,931.81,436.38Z"/><path class="cls-2" d="M117.61,739.44q-4.26-10.92,2-22a34.14,34.14,0,0,1,17.75-15.55,54.8,54.8,0,0,1,7.3-2.34q3.23-.75,9.23-1.5t8.21-1.1a139.3,139.3,0,0,1,10.48,21.74,1.7,1.7,0,0,1-1.24,2q-3.93,1.53-4.73.33-3.48-6.35-11.37-10.66t-15.6-1.3q-6.7,2.61-8.79,7.79t.4,11.58a17.63,17.63,0,0,0,2.13,4,11,11,0,0,0,3.54,3.06q2.27,1.3,3.7,2.17a18.55,18.55,0,0,0,4.86,1.71q3.43.85,4.66,1.2t5.47,1.14a47.5,47.5,0,0,0,5.08.79,57.46,57.46,0,0,0,6.1,1.23q4.94.84,7,1.31t6.11,1.9a22.56,22.56,0,0,1,6.37,3.22,32,32,0,0,1,4.84,4.9,26.31,26.31,0,0,1,4.14,7.19q4.54,11.65-1.9,22.88a36.13,36.13,0,0,1-18.81,16.05q-8.74,3.4-28.38,6.36a136.56,136.56,0,0,1-7.54-12.24,105.53,105.53,0,0,1-5.15-10q-.31-1.22,1.88-2.07,3.78-1.47,4.68-.48a30.36,30.36,0,0,0,4.28,5,45.52,45.52,0,0,0,6.61,5.14,20.57,20.57,0,0,0,9.11,3.16,22,22,0,0,0,10.56-1.52,17.49,17.49,0,0,0,9.77-8.5q2.92-5.83-.25-14a13.58,13.58,0,0,0-2.82-4.44,18.07,18.07,0,0,0-3.72-3.08,22.81,22.81,0,0,0-5-2.08q-3.14-1-5.14-1.35t-5.84-1q-3.84-.6-5.43-.82a10.77,10.77,0,0,0-2.06-.54q-5.25-1-8-1.58a75.28,75.28,0,0,1-7.28-2.11,30.9,30.9,0,0,1-7.24-3.3,29.56,29.56,0,0,1-5.51-4.89A23.53,23.53,0,0,1,117.61,739.44Z"/><path class="cls-2" d="M217.59,708.53a29,29,0,0,1,13.28-2.07A24.74,24.74,0,0,1,242,710a36.3,36.3,0,0,1,8,6.77,26.94,26.94,0,0,1,4.92,7.89q1.25,3.2.47,4.43t-4.13,2.53l-34.79,13.56q-1,.4-.68,1.27a30.34,30.34,0,0,0,5.86,9.45,21.49,21.49,0,0,0,9.83,6.07,18.39,18.39,0,0,0,12.41-.64,42.53,42.53,0,0,0,4.14-1.86,23.23,23.23,0,0,0,3.5-2.2q1.55-1.19,2.69-2.14a13.41,13.41,0,0,0,2.18-2.36l1.48-2q.44-.59,2.15-3.1a2.56,2.56,0,0,1,1.07.59,3,3,0,0,1,1,1.29,4.81,4.81,0,0,1,.2,3.11q-.65,4.78-5.53,11.21a29,29,0,0,1-12.88,9.55,31.64,31.64,0,0,1-25.5-.88,33.7,33.7,0,0,1-18.05-19.21q-5.73-14.7-.79-27.2T217.59,708.53Zm1.59,7.09a11,11,0,0,0-5.47,4.48,14.71,14.71,0,0,0-2.29,6.6,29.86,29.86,0,0,0,0,6.28,19.1,19.1,0,0,0,1,4.55q.4,1,1.27.68L237.31,729q1.31-.51.46-2.69a20.25,20.25,0,0,0-7.45-9Q224.85,713.41,219.18,715.62Z"/><path class="cls-2" d="M298.82,676.87q18.78-7.32,30.41,22.53l5.39,13.83q3.46,8.88,6.13,12.71.69.91,4.83.55a24,24,0,0,0,5.45-.87c.29-.11.73.53,1.33,1.91a8.86,8.86,0,0,1,.89,2.92q-.93.19-7.87,2.4t-10.29,3.51q-3.49,1.36-9.51,4.21t-7.27,3.5q-.81-.36-1.66-2.54t-.27-2.41a18.63,18.63,0,0,0,4.45-3q2.85-2.37,2.74-3.5a44.89,44.89,0,0,0-3-11.08l-5.39-13.83q-4.71-12.08-9.86-15.61t-12.28-.75a14.47,14.47,0,0,0-7.16,5.72q-2.5,3.91-1.37,6.82l9.76,25q3.46,8.88,6.13,12.71.69.91,4.68.61a22.54,22.54,0,0,0,5.16-.75q.58-.23,1.48,1.86a8.88,8.88,0,0,1,.89,2.92q-1.22.31-7.87,2.4t-10,3.39q-3.49,1.36-9.95,4.38t-7.56,3.62q-.81-.36-1.66-2.54t-.27-2.41a21.82,21.82,0,0,0,4.89-3.16q3.14-2.48,3-3.61a51.07,51.07,0,0,0-3.12-11l-9.25-23.73q-2.67-6.84-6-8.41a7.53,7.53,0,0,0-4.13-.91,17.89,17.89,0,0,0-3.83.49q-1.44.4-1.55.1-1.65-4.22-1-4.65,6.47-3.19,21.74-13.5a1,1,0,0,1,.28-.36,1.51,1.51,0,0,1,.41-.24l.36-.14c.39-.15.86.06,1.42.62a4.78,4.78,0,0,1,1.06,1.43,53.08,53.08,0,0,0,1.46,5.47c.15.39.29.61.43.67a2.3,2.3,0,0,0,.56-.72,34.68,34.68,0,0,1,6.57-9.6A27.34,27.34,0,0,1,298.82,676.87Z"/><path class="cls-2" d="M348.65,669.19l-8.88,3.46q-1,.4-2.49-3.39a3.84,3.84,0,0,1-.37-1.37,43.73,43.73,0,0,0,8.2-12.08q1.15-2.63,2.48-5.91t2.9-8.26a11.14,11.14,0,0,1,2.91-.71q1.45-.15,1.62.29l5.56,14.27q3.78-1.47,10.58-4l7.24-2.74q1.16-.45,1.67.86a15.17,15.17,0,0,1,1,7l-17.47,6.81,13.67,35.09q2.27,5.82,5.94,7.92a8.93,8.93,0,0,0,8,.39,14.79,14.79,0,0,0,2.92-1.56,16.63,16.63,0,0,0,2.31-1.82c.56-.56,1.08-1.09,1.55-1.61a4.87,4.87,0,0,1,.85-.83q.52-.37,1.82.8t1.32,1.67q-.08,2.38-4.34,7.14a24.61,24.61,0,0,1-9.36,6.75,19.7,19.7,0,0,1-14.78.14q-7.22-2.8-11.19-13Z"/><path class="cls-2" d="M391.24,621a9.52,9.52,0,0,1-5.12-5.38,9.69,9.69,0,0,1,18.05-7,9.52,9.52,0,0,1-.12,7.43,9.62,9.62,0,0,1-12.81,5Zm38.88,55q3.46,8.88,6.27,12.65.69.91,4.75.58a23,23,0,0,0,5.38-.84q.58-.23,1.48,1.86a8.86,8.86,0,0,1,.89,2.92q-1.08.25-8,2.45t-10.14,3.45q-3.64,1.42-10.09,4.44t-7.42,3.56q-.81-.36-1.66-2.54t-.27-2.41a22.65,22.65,0,0,0,4.81-3.13q3.21-2.51,3.11-3.64a51.14,51.14,0,0,0-3.12-11l-9.25-23.73q-2.67-6.84-6-8.41a8.69,8.69,0,0,0-4.2-.88,16.44,16.44,0,0,0-3.83.49q-1.51.42-1.63.13-1.65-4.22-.83-4.71a120,120,0,0,0,11.11-6.34,122.57,122.57,0,0,0,10.48-7.1A9.18,9.18,0,0,0,413,633c.48-.19,1,0,1.56.56a2.88,2.88,0,0,1,.92,1.49,133.94,133.94,0,0,0,3.71,13Z"/><path class="cls-2" d="M478.48,606.86A16.88,16.88,0,0,1,489,606a18.26,18.26,0,0,1,8.69,5.08,36.85,36.85,0,0,1,7.79-11.42,35.06,35.06,0,0,1,12.55-8.24,17.73,17.73,0,0,1,9.86-1.16,17.25,17.25,0,0,1,8.35,4.21,36.77,36.77,0,0,1,6.58,7.84,59.58,59.58,0,0,1,5.06,10.19l6,15.29q3.46,8.88,6.13,12.71.69.91,4.75.58a23,23,0,0,0,5.38-.84c.29-.11.73.53,1.33,1.91a8.89,8.89,0,0,1,.89,2.92q-1.08.25-7.87,2.4t-10.14,3.45q-3.5,1.36-9.8,4.32T537,658.86a5.84,5.84,0,0,1-1.51-2.6q-.85-2.18-.41-2.35a21,21,0,0,0,4.82-3.13q3.07-2.45,3-3.59a48.65,48.65,0,0,0-3-10.59l-5.79-14.85q-8.23-21.11-21.76-15.83a14.24,14.24,0,0,0-7.1,5.45q-2.29,3.58-2,6,.17.44.38,1.19a3,3,0,0,0,.53,1.14,76.31,76.31,0,0,1,4,8.86l6,15.43A61.49,61.49,0,0,0,520,656.1q.69.91,4.75.58a23,23,0,0,0,5.38-.84c.29-.11.73.53,1.33,1.91a8.83,8.83,0,0,1,.89,2.92q-1.08.25-7.87,2.4t-10.14,3.45q-3.49,1.36-9.8,4.32t-7.56,3.62a5.83,5.83,0,0,1-1.51-2.6q-.85-2.18-.41-2.35a21,21,0,0,0,4.81-3.13q3.07-2.45,3-3.59a51.07,51.07,0,0,0-3.12-11l-5.45-14q-4.43-11.36-9.76-15.15t-11.88-1.24a15,15,0,0,0-7,5.6q-2.68,3.9-1.48,7l9.76,25q3.46,8.88,6.27,12.65.69.91,4.61.64a21.24,21.24,0,0,0,5.23-.78q.58-.23,1.48,1.86a8.89,8.89,0,0,1,.89,2.92q-1.22.31-7.87,2.4t-10,3.39q-3.64,1.42-10,4.41t-7.49,3.59q-.81-.36-1.66-2.54t-.27-2.41a22.68,22.68,0,0,0,4.82-3.13q3.21-2.51,3.11-3.64a51.13,51.13,0,0,0-3.12-11l-9.25-23.73q-2.67-6.84-6-8.41a7.53,7.53,0,0,0-4.13-.91,17.65,17.65,0,0,0-3.91.52c-1,.28-1.55.33-1.63.13q-1.65-4.22-.83-4.71,6.47-3.19,21.59-13.45a1,1,0,0,1,.35-.39,3.36,3.36,0,0,1,.7-.36q.73-.28,1.56.56a2.89,2.89,0,0,1,.92,1.49,53.18,53.18,0,0,0,1.46,5.47c.15.39.34.6.58.61a2.33,2.33,0,0,0,.56-.72,34.65,34.65,0,0,1,6.57-9.6A27.35,27.35,0,0,1,478.48,606.86Z"/><path class="cls-2" d="M583.59,565.9a29,29,0,0,1,13.28-2.07A24.74,24.74,0,0,1,608,567.38a36.35,36.35,0,0,1,8,6.77A27,27,0,0,1,620.9,582q1.25,3.2.47,4.43T617.24,589l-34.79,13.56q-1,.4-.68,1.27a30.35,30.35,0,0,0,5.86,9.45,21.49,21.49,0,0,0,9.83,6.06,18.39,18.39,0,0,0,12.41-.64,42.53,42.53,0,0,0,4.14-1.86,23.23,23.23,0,0,0,3.5-2.2q1.55-1.19,2.69-2.14a13.36,13.36,0,0,0,2.18-2.36l1.48-2q.44-.59,2.15-3.1a2.57,2.57,0,0,1,1.07.59,3,3,0,0,1,1,1.29,4.81,4.81,0,0,1,.2,3.11q-.65,4.78-5.53,11.21a29,29,0,0,1-12.88,9.55,31.64,31.64,0,0,1-25.5-.88,33.7,33.7,0,0,1-18.05-19.21q-5.73-14.7-.79-27.2T583.59,565.9Zm1.59,7.09a11,11,0,0,0-5.47,4.48,14.71,14.71,0,0,0-2.29,6.6,29.86,29.86,0,0,0,0,6.28,19.09,19.09,0,0,0,1,4.55q.4,1,1.27.68l23.58-9.19q1.31-.51.46-2.69a20.25,20.25,0,0,0-7.45-9Q590.86,570.78,585.18,573Z"/><path class="cls-2" d="M664.83,534.24q18.78-7.32,30.41,22.53l5.39,13.83q3.46,8.88,6.13,12.71.69.91,4.83.55A24,24,0,0,0,717,583q.44-.17,1.33,1.91a8.86,8.86,0,0,1,.89,2.92q-.93.19-7.87,2.4t-10.29,3.51q-3.49,1.36-9.51,4.21t-7.27,3.5q-.81-.36-1.66-2.54t-.27-2.41a18.64,18.64,0,0,0,4.45-3q2.85-2.37,2.74-3.5a44.9,44.9,0,0,0-3-11.08l-5.39-13.83q-4.71-12.08-9.86-15.61t-12.28-.75a14.47,14.47,0,0,0-7.16,5.72q-2.5,3.91-1.37,6.82l9.76,25q3.46,8.88,6.13,12.71.69.91,4.68.61a22.51,22.51,0,0,0,5.16-.75q.58-.23,1.48,1.86a8.89,8.89,0,0,1,.89,2.92q-1.22.31-7.87,2.4t-10,3.39q-3.49,1.36-9.95,4.38t-7.56,3.62q-.81-.36-1.66-2.54t-.27-2.41a21.84,21.84,0,0,0,4.89-3.16q3.14-2.48,3-3.61a51.08,51.08,0,0,0-3.12-11L636.88,571q-2.67-6.84-6-8.41a7.54,7.54,0,0,0-4.13-.91,17.86,17.86,0,0,0-3.83.49q-1.44.4-1.55.1-1.65-4.22-1-4.65,6.47-3.19,21.74-13.5a1,1,0,0,1,.28-.36,1.51,1.51,0,0,1,.41-.24l.36-.14c.39-.15.86.06,1.42.62a4.75,4.75,0,0,1,1.06,1.43,53.35,53.35,0,0,0,1.46,5.47c.15.39.29.61.43.67a2.29,2.29,0,0,0,.56-.72,34.66,34.66,0,0,1,6.57-9.6A27.34,27.34,0,0,1,664.83,534.24Z"/><path class="cls-2" d="M714.66,526.56,705.78,530q-1,.4-2.49-3.39a3.85,3.85,0,0,1-.37-1.37,43.73,43.73,0,0,0,8.2-12.08q1.15-2.63,2.48-5.91t2.9-8.26a11.13,11.13,0,0,1,2.91-.71q1.45-.15,1.62.29l5.56,14.27q3.78-1.47,10.58-4l7.24-2.74q1.16-.45,1.67.86a15.17,15.17,0,0,1,1,7l-17.47,6.81,13.67,35.09q2.27,5.82,5.94,7.92a8.93,8.93,0,0,0,8,.39,14.79,14.79,0,0,0,2.92-1.56,16.63,16.63,0,0,0,2.31-1.82c.56-.56,1.08-1.09,1.55-1.61a4.87,4.87,0,0,1,.85-.83q.52-.37,1.82.8t1.32,1.67q-.08,2.38-4.34,7.14a24.61,24.61,0,0,1-9.36,6.75,19.7,19.7,0,0,1-14.78.14q-7.22-2.8-11.19-13Z"/><path class="cls-2" d="M776.87,490.41a66.47,66.47,0,0,1,17.85-4.11,88.88,88.88,0,0,1,8,15.68q.45,1.17-1.44,1.9-3.21,1.25-3.95.2a19,19,0,0,0-7.67-7,12.21,12.21,0,0,0-10.2-.13,11.22,11.22,0,0,0-5.89,4.47,6.93,6.93,0,0,0-.3,6.32,9.07,9.07,0,0,0,2.25,3.4,9.74,9.74,0,0,0,3.84,2.11,38.47,38.47,0,0,0,4.11,1.08q1.72.34,5.06.71a10.12,10.12,0,0,0,1.74.16l2.64.31,2.91.37,2.87.48a28.19,28.19,0,0,1,3.2.68c.64.2,1.62.49,2.94.87a12.36,12.36,0,0,1,3,1.19q1,.62,2.63,1.58a10.06,10.06,0,0,1,2.55,2,29.74,29.74,0,0,1,1.88,2.45,14.57,14.57,0,0,1,1.58,3A18.42,18.42,0,0,1,815,545.41q-5,8.07-15,12a52.2,52.2,0,0,1-20.37,3.24,62.52,62.52,0,0,1-4.6-7.51,76.31,76.31,0,0,1-4-8.09,3.32,3.32,0,0,1,1.75-1.52q3.35-1.3,3.95-.2a17.25,17.25,0,0,0,9.58,7.59,16.66,16.66,0,0,0,11.42-.17,11.36,11.36,0,0,0,5.9-4.65,7.62,7.62,0,0,0,.29-7,10.29,10.29,0,0,0-1.41-2.55,7.66,7.66,0,0,0-2.35-1.94l-2.47-1.39a11.35,11.35,0,0,0-3.39-.94q-2.42-.4-3.56-.54l-4.38-.47q-3.23-.33-4.48-.52A36.35,36.35,0,0,1,768.48,527a16.69,16.69,0,0,1-7.7-9q-3.46-8.88,1.66-16.41A30.13,30.13,0,0,1,776.87,490.41Z"/><path class="cls-1" d="M226.14,466.88a11.81,11.81,0,0,1,6.48,1.83,12.19,12.19,0,0,1,4.36,4.65,12.39,12.39,0,0,1,1.48,5.84,13.26,13.26,0,0,1-4,9.73,12.8,12.8,0,0,1-9.32,4,18.2,18.2,0,0,1-4.24-.44,12.73,12.73,0,0,0-2.73-.44,4.4,4.4,0,0,0-1.51.41,5.77,5.77,0,0,1-1.16.41,2.8,2.8,0,0,1-.84-.35q-.67-.35-.67-.58c0-.12,0-.46.12-1s.17-1.41.29-2.5a33.35,33.35,0,0,0,.17-3.54v-23.7a20.24,20.24,0,0,0-.35-3.95q-.29-.93-3-.93h-.52q-.35,0-.35-.93t.35-.93q1.8-.17,3.43-.46t2.7-.58q1.07-.29,1.86-.58l1.66-.58h.12a.63.63,0,0,1,.46.32,1.6,1.6,0,0,1,.29.61,20.28,20.28,0,0,0-.64,5.46v9.61a1.67,1.67,0,0,0,0,.26c0,.12.06.17.12.17a.47.47,0,0,0,.2-.06,10.59,10.59,0,0,1,2.35-1.16A8.32,8.32,0,0,1,226.14,466.88ZM224.86,470a4.5,4.5,0,0,0-3.14,1.1,3.42,3.42,0,0,0-1.22,2.61v12.31a3.48,3.48,0,0,0,1.54,3.08,6.31,6.31,0,0,0,3.63,1,4.94,4.94,0,0,0,4.56-2.73,13.29,13.29,0,0,0,1.54-6.62,14.92,14.92,0,0,0-1.8-7.9A5.69,5.69,0,0,0,224.86,470Z"/><path class="cls-1" d="M248.63,467.47q1.28,0,3.66-.17t3-.17a3.91,3.91,0,0,1,.12,1c0,.54-.08.81-.23.81a6.34,6.34,0,0,0-1.83.44q-1.25.44-1.31,1v.35q.12.93,5.4,13.24.46-1,2.27-5.72t2.09-5.37a5.45,5.45,0,0,0,.35-1.8,1.83,1.83,0,0,0-.93-1.42,4.78,4.78,0,0,0-2.79-.67q-.23,0-.23-.87a1.46,1.46,0,0,1,.23-1q.7,0,2.85.17t3.54.17q1.22,0,3-.17t2.58-.17a1.66,1.66,0,0,1,.23.93c0,.62-.08.93-.23.93a7.37,7.37,0,0,0-2.35.58,3.21,3.21,0,0,0-2,1.74L255.37,497q-3.6,8.48-8.65,8.48a3.14,3.14,0,0,1-2.32-.81,2.71,2.71,0,0,1,.29-4.12q6,0,8-4.76,1.39-3.48,1.57-3.95l-8.48-19.75a7.53,7.53,0,0,0-.7-1.34,3.49,3.49,0,0,0-1.71-1.31,5.49,5.49,0,0,0-1.89-.44c-.15,0-.23-.27-.23-.81s.06-1,.17-1,1.27.06,3.11.17S247.7,467.47,248.63,467.47Z"/><path class="cls-1" d="M297.21,462.47v9.35a.35.35,0,0,0,.09.26.75.75,0,0,0,.2.15H298q1.22,0,3-2,4.65-5,10.22-11.62a3.18,3.18,0,0,0,.93-1.74q0-.58-1.28-.81a12.45,12.45,0,0,0-2.15-.23q-.23,0-.29-.67a3,3,0,0,1,.06-1.07q6.45.35,7,.35,1.1,0,2.18-.06l2.32-.15,2.06-.15a2.45,2.45,0,0,1,.09,1c0,.5-.09.76-.2.76q-4.07.47-5.87,2.44l-10.8,12.31a1.13,1.13,0,0,0,.12,1.63L319,488.37a5.91,5.91,0,0,0,2.82,1.86,9.47,9.47,0,0,0,2.58.58c.19,0,.29.37.29,1.1a1.79,1.79,0,0,1-.17.81q-7-.35-8-.35-1.86,0-4.44.15l-3.63.2a1.64,1.64,0,0,1-.23-1.07c0-.56.08-.84.23-.84a4.49,4.49,0,0,0,1.63-.41q1-.41,1-.87a11.1,11.1,0,0,0-1.63-2.44q-1.63-2.15-4.47-5.49t-5.63-6.24a2.12,2.12,0,0,0-1.28-.23q-.93,0-.93.7v8.6a20.94,20.94,0,0,0,.52,5.11q.12.41,1.6.84a8.89,8.89,0,0,0,2,.44c.15,0,.23.37.23,1.1a2.58,2.58,0,0,1-.12.81q-7-.35-7.38-.35-1.16,0-2.44.06l-2.82.15-2.47.15a1.13,1.13,0,0,1-.23-.81c0-.73.08-1.1.23-1.1a9.26,9.26,0,0,0,2.18-.41q1.48-.41,1.66-.87a20.33,20.33,0,0,0,.46-4.88V462.24a17.48,17.48,0,0,0-.46-4.88q-.23-.46-1.63-.9a7.79,7.79,0,0,0-2.09-.44q-.23,0-.23-.87a2.35,2.35,0,0,1,.12-1q.29,0,3.22.17t4.5.17q.46,0,7.43-.35a3,3,0,0,1,.17.93q0,1-.23,1a9.46,9.46,0,0,0-2.09.46q-1.57.47-1.68.87A21.59,21.59,0,0,0,297.21,462.47Z"/><path class="cls-1" d="M339,484.31a21.33,21.33,0,0,0,.46,5.23q.12.41,1.57.84a8.54,8.54,0,0,0,2,.44c.15,0,.24.28.26.84a3.3,3.3,0,0,1-.09,1.13q-.41-.06-3.11-.23t-4-.17q-1.45,0-4.09.17t-3,.23a1.71,1.71,0,0,1-.23-1.1q0-.87.23-.87a8.41,8.41,0,0,0,2.09-.44q1.45-.44,1.57-.84a19,19,0,0,0,.41-4.24v-9.47q0-2.73-.93-3.72a3.22,3.22,0,0,0-1.34-.87,6.12,6.12,0,0,0-1.39-.35q-.58-.06-.58-.17,0-1.68.35-1.74a44.59,44.59,0,0,0,4.7-.7,45.62,45.62,0,0,0,4.59-1,3.43,3.43,0,0,0,.46-.12c.19,0,.35.14.46.41a1.07,1.07,0,0,1,.12.64,49.75,49.75,0,0,0-.46,5ZM333,460a3.54,3.54,0,0,1-1-2.56,3.57,3.57,0,0,1,3.6-3.57,3.57,3.57,0,0,1,3.6,3.57,3.54,3.54,0,0,1-1,2.56,3.58,3.58,0,0,1-5.11,0Z"/><path class="cls-1" d="M365.71,466.88a6.28,6.28,0,0,1,3.78,1.13,6.79,6.79,0,0,1,2.32,2.93,13.7,13.7,0,0,1,4.24-2.9,13,13,0,0,1,5.46-1.16,6.59,6.59,0,0,1,3.57.93,6.41,6.41,0,0,1,2.32,2.58,13.66,13.66,0,0,1,1.22,3.6,22.14,22.14,0,0,1,.38,4.21v6.1a24.3,24.3,0,0,0,.41,5.23q.12.41,1.57.84a8.54,8.54,0,0,0,2,.44c.12,0,.18.28.2.84a3.3,3.3,0,0,1-.09,1.13q-.41-.06-3-.23t-4-.17q-1.39,0-4,.17t-3.11.23a2.17,2.17,0,0,1-.17-1.1q0-.87.17-.87a7.79,7.79,0,0,0,2.09-.44q1.39-.44,1.51-.84a18.06,18.06,0,0,0,.41-4.07v-5.92q0-8.42-5.4-8.42a5.29,5.29,0,0,0-3.19.93,3.63,3.63,0,0,0-1.51,1.8c0,.12,0,.27,0,.46a1.14,1.14,0,0,0,0,.46,28.37,28.37,0,0,1,.17,3.6v6.16a22.86,22.86,0,0,0,.41,5q.12.41,1.57.84a8.54,8.54,0,0,0,2,.44c.12,0,.18.28.2.84a3.3,3.3,0,0,1-.09,1.13q-.41-.06-3-.23t-4-.17q-1.39,0-4,.17t-3.11.23a2.17,2.17,0,0,1-.17-1.1q0-.87.17-.87a7.79,7.79,0,0,0,2.09-.44q1.39-.44,1.51-.84a19,19,0,0,0,.41-4.24v-5.58q0-4.53-1.34-6.56a4.42,4.42,0,0,0-3.95-2,5.56,5.56,0,0,0-3.19,1,2.74,2.74,0,0,0-1.45,2.21v10a21.33,21.33,0,0,0,.46,5.23q.12.41,1.51.84a7.88,7.88,0,0,0,1.92.44c.15,0,.24.28.26.84a3.31,3.31,0,0,1-.09,1.13q-.47-.06-3-.23t-3.92-.17q-1.45,0-4.07.17t-3.08.23a1.71,1.71,0,0,1-.23-1.1q0-.87.23-.87a8.41,8.41,0,0,0,2.09-.44q1.45-.44,1.57-.84a19,19,0,0,0,.41-4.24v-9.47q0-2.73-.93-3.72a2.8,2.8,0,0,0-1.31-.87,6.55,6.55,0,0,0-1.42-.35q-.58-.06-.58-.17,0-1.68.35-1.74a80.49,80.49,0,0,0,9.29-1.74.37.37,0,0,1,.17-.09,1.23,1.23,0,0,1,.29,0c.19,0,.35.14.46.41a1.07,1.07,0,0,1,.12.64,19.79,19.79,0,0,0-.23,2.09c0,.16,0,.25.12.29a.86.86,0,0,0,.29-.17,12.87,12.87,0,0,1,3.57-2.44A10.17,10.17,0,0,1,365.71,466.88Z"/><path class="cls-1" d="M406.67,484.31a21.33,21.33,0,0,0,.46,5.23q.12.41,1.57.84a8.54,8.54,0,0,0,2,.44c.15,0,.24.28.26.84a3.3,3.3,0,0,1-.09,1.13q-.41-.06-3.11-.23t-4-.17q-1.45,0-4.09.17t-3,.23a1.71,1.71,0,0,1-.23-1.1q0-.87.23-.87a8.41,8.41,0,0,0,2.09-.44q1.45-.44,1.57-.84a19,19,0,0,0,.41-4.24v-9.47q0-2.73-.93-3.72a3.22,3.22,0,0,0-1.34-.87,6.12,6.12,0,0,0-1.39-.35q-.58-.06-.58-.17,0-1.68.35-1.74a44.59,44.59,0,0,0,4.7-.7,45.62,45.62,0,0,0,4.59-1,3.43,3.43,0,0,0,.46-.12c.19,0,.35.14.46.41a1.07,1.07,0,0,1,.12.64,49.75,49.75,0,0,0-.46,5Zm-6-24.31a3.54,3.54,0,0,1-1-2.56,3.57,3.57,0,0,1,3.6-3.57,3.57,3.57,0,0,1,3.6,3.57,3.54,3.54,0,0,1-1,2.56,3.58,3.58,0,0,1-5.11,0Z"/><path class="cls-1" d="M464.61,490.81c.15,0,.23.37.23,1.1a2.58,2.58,0,0,1-.12.81q-7-.35-7.38-.35-1.16,0-2.44.06l-2.82.15-2.47.15a1.13,1.13,0,0,1-.23-.81c0-.73.08-1.1.23-1.1a9.26,9.26,0,0,0,2.18-.41q1.48-.41,1.66-.87a20.36,20.36,0,0,0,.46-4.88v-10l-.12-.23q-5.46-.12-7.67-.12-8,.12-8,.29v9.7a21.54,21.54,0,0,0,.52,5.23q.12.41,1.6.84a8.89,8.89,0,0,0,2,.44c.15,0,.23.37.23,1.1a2.58,2.58,0,0,1-.12.81q-7-.35-7.38-.35-1.16,0-2.44.06l-2.82.15-2.47.15a1.13,1.13,0,0,1-.23-.81c0-.73.08-1.1.23-1.1a9.26,9.26,0,0,0,2.18-.41q1.48-.41,1.66-.87a20.33,20.33,0,0,0,.46-4.88V462.24a17.48,17.48,0,0,0-.46-4.88q-.23-.46-1.63-.9a7.79,7.79,0,0,0-2.09-.44q-.23,0-.23-.87a2.35,2.35,0,0,1,.12-1q.29,0,3.22.17t4.5.17q.46,0,7.43-.35a3,3,0,0,1,.17.93q0,1-.23,1a9.46,9.46,0,0,0-2.09.46q-1.57.47-1.68.87a21.59,21.59,0,0,0-.46,5.11V471l.12.17q5.69.12,7.9.12,2.44,0,7.67-.12a.33.33,0,0,0,.12-.23v-8.65a17.51,17.51,0,0,0-.46-4.88q-.23-.46-1.63-.9a7.79,7.79,0,0,0-2.09-.44q-.23,0-.23-.87a2.34,2.34,0,0,1,.12-1q.29,0,3.22.17t4.5.17q.46,0,7.43-.35a3,3,0,0,1,.17.93q0,1-.23,1a9.47,9.47,0,0,0-2.09.46q-1.57.47-1.68.87a21.56,21.56,0,0,0-.46,5.11v21.84a21.53,21.53,0,0,0,.52,5.23q.12.41,1.6.84A8.89,8.89,0,0,0,464.61,490.81Z"/><path class="cls-1" d="M481,466.88a7.13,7.13,0,0,1,5.4,1.89q1.8,1.89,1.8,6.48v11.44a2.65,2.65,0,0,0,.52,1.77,1.74,1.74,0,0,0,1.39.61,3.62,3.62,0,0,0,2-.76c.23.08.35.29.35.64a3.45,3.45,0,0,1-.35,1.74,14.38,14.38,0,0,1-2.32,1.45,6.06,6.06,0,0,1-2.79.75,4.24,4.24,0,0,1-2.61-1,4.76,4.76,0,0,1-1.68-2.15l-.44.38q-.38.32-1,.78a17.1,17.1,0,0,1-1.51.93,9.26,9.26,0,0,1-2,.78,8.43,8.43,0,0,1-2.29.32,6.93,6.93,0,0,1-4.73-1.6,5.52,5.52,0,0,1-1.83-4.38,5.36,5.36,0,0,1,.67-2.61,6.94,6.94,0,0,1,1.6-2,11.91,11.91,0,0,1,2.5-1.54,24,24,0,0,1,2.7-1.13q1.13-.38,2.9-.9t2.47-.76a.91.91,0,0,0,.52-.93v-3.19a5,5,0,0,0-.93-3.19,3,3,0,0,0-2.5-1.16,3.52,3.52,0,0,0-2.73,1.07,4.34,4.34,0,0,0-1,3,1.88,1.88,0,0,1-.87,1.71,3.61,3.61,0,0,1-2,.55,3.28,3.28,0,0,1-3-1.39q0-2.79,3.8-5.23A14.57,14.57,0,0,1,481,466.88Zm-2.61,22.3a4.5,4.5,0,0,0,2.7-.81,2.3,2.3,0,0,0,1.13-1.86v-5.92q-.41.17-1.71.58t-2,.7a15.86,15.86,0,0,0-1.63.81,3.51,3.51,0,0,0-1.36,1.28,3.2,3.2,0,0,0-.44,1.63,3.58,3.58,0,0,0,.93,2.73A3.34,3.34,0,0,0,478.39,489.19Z"/><path class="cls-1" d="M514.64,466.88q7.49,0,7.49,11.91v5.52a24.3,24.3,0,0,0,.41,5.23q.12.41,1.6.84a8.89,8.89,0,0,0,2,.44c.12,0,.18.28.2.84a3.3,3.3,0,0,1-.09,1.13q-.35-.06-3-.23t-4-.17q-1.39,0-3.86.17t-3,.23a1.71,1.71,0,0,1-.23-1.1q0-.87.23-.87a6.9,6.9,0,0,0,1.95-.44q1.31-.44,1.42-.84a16.68,16.68,0,0,0,.46-4.24v-5.52q0-4.82-1.31-6.74a4.67,4.67,0,0,0-4.15-1.92,5.38,5.38,0,0,0-3.25,1,2.79,2.79,0,0,0-1.39,2.18v10a24.3,24.3,0,0,0,.41,5.23q.12.41,1.54.84a8.35,8.35,0,0,0,1.89.44c.15,0,.24.28.26.84a3.31,3.31,0,0,1-.09,1.13q-.47-.06-3-.23t-3.92-.17q-1.39,0-4,.17t-3.11.23a1.71,1.71,0,0,1-.23-1.1q0-.87.23-.87a8.1,8.1,0,0,0,2.12-.44q1.42-.44,1.54-.84a19,19,0,0,0,.41-4.24v-9.47q0-2.73-.93-3.72a2.8,2.8,0,0,0-1.31-.87,6.63,6.63,0,0,0-1.39-.35q-.55-.06-.55-.17,0-1.68.29-1.74a82.35,82.35,0,0,0,9.35-1.74.37.37,0,0,1,.15-.09l.17,0h.15c.15,0,.29.14.41.41a1.77,1.77,0,0,1,.17.64,19.79,19.79,0,0,0-.23,2.09.46.46,0,0,0,.06.29.86.86,0,0,0,.29-.17,12.87,12.87,0,0,1,3.57-2.44A10.17,10.17,0,0,1,514.64,466.88Z"/><path class="cls-1" d="M542.36,466.88a7.13,7.13,0,0,1,5.4,1.89q1.8,1.89,1.8,6.48v11.44a2.65,2.65,0,0,0,.52,1.77,1.74,1.74,0,0,0,1.39.61,3.62,3.62,0,0,0,2-.76c.23.08.35.29.35.64a3.45,3.45,0,0,1-.35,1.74,14.38,14.38,0,0,1-2.32,1.45,6.06,6.06,0,0,1-2.79.75,4.24,4.24,0,0,1-2.61-1,4.76,4.76,0,0,1-1.68-2.15l-.44.38q-.38.32-1,.78a17.1,17.1,0,0,1-1.51.93,9.26,9.26,0,0,1-2,.78,8.43,8.43,0,0,1-2.29.32,6.93,6.93,0,0,1-4.73-1.6,5.52,5.52,0,0,1-1.83-4.38,5.36,5.36,0,0,1,.67-2.61,6.94,6.94,0,0,1,1.6-2,11.91,11.91,0,0,1,2.5-1.54,24,24,0,0,1,2.7-1.13q1.13-.38,2.9-.9t2.47-.76a.91.91,0,0,0,.52-.93v-3.19a5,5,0,0,0-.93-3.19,3,3,0,0,0-2.5-1.16,3.52,3.52,0,0,0-2.73,1.07,4.34,4.34,0,0,0-1,3,1.88,1.88,0,0,1-.87,1.71,3.61,3.61,0,0,1-2,.55,3.28,3.28,0,0,1-3-1.39q0-2.79,3.8-5.23A14.57,14.57,0,0,1,542.36,466.88Zm-2.61,22.3a4.5,4.5,0,0,0,2.7-.81,2.3,2.3,0,0,0,1.13-1.86v-5.92q-.41.17-1.71.58t-2,.7a15.86,15.86,0,0,0-1.63.81,3.51,3.51,0,0,0-1.36,1.28,3.2,3.2,0,0,0-.44,1.63,3.58,3.58,0,0,0,.93,2.73A3.34,3.34,0,0,0,539.75,489.19Z"/><path class="cls-1" d="M582.39,473.16v11.5a12.89,12.89,0,0,0,.46,4.07,1.21,1.21,0,0,0,.67.46,4.52,4.52,0,0,0,1,.23,8.64,8.64,0,0,0,1,.06,1.07,1.07,0,0,1,.49.06c.15,0,.23.21.23.52a4.44,4.44,0,0,1-.12.78c-.08.37-.19.55-.35.55a13.33,13.33,0,0,0-2.06.2l-2.41.41q-1.16.2-2.21.44t-2.32.46q-.41,0-.41-.93v-2.56q-.06-.29-.17-.29a13,13,0,0,1-3.54,2.61A9.72,9.72,0,0,1,568,492.9a6.09,6.09,0,0,1-3.46-1,7,7,0,0,1-2.32-2.56A12.49,12.49,0,0,1,561,486a17.75,17.75,0,0,1-.38-3.66v-6.5q0-2.73-.93-3.72a3.23,3.23,0,0,0-1.34-.87,6.12,6.12,0,0,0-1.39-.35q-.58-.06-.58-.17,0-1.68.29-1.74a43.84,43.84,0,0,0,4.76-.7,45.61,45.61,0,0,0,4.59-1,.94.94,0,0,0,.23-.06l.23-.06c.19,0,.34.14.44.41a2.07,2.07,0,0,1,.15.64q-.52,3.95-.52,5.11v7q0,4.53,1.28,6.5a5.13,5.13,0,0,0,7.26.84,3.09,3.09,0,0,0,1.28-2.18v-9.58q0-2.73-.93-3.72a2.8,2.8,0,0,0-1.31-.87,6.56,6.56,0,0,0-1.42-.35q-.58-.06-.58-.17,0-1.68.35-1.74a44.59,44.59,0,0,0,4.7-.7,45.62,45.62,0,0,0,4.59-1,3.45,3.45,0,0,0,.46-.12c.19,0,.35.14.46.41a1.07,1.07,0,0,1,.12.64Q582.39,472.11,582.39,473.16Z"/><path class="cls-1" d="M601.75,466.88a10.77,10.77,0,0,1,4.88,1.07,9.2,9.2,0,0,1,3.37,2.73,13.51,13.51,0,0,1,1.86,3.43,10,10,0,0,1,.64,3.4q0,1.28-.44,1.6a3.3,3.3,0,0,1-1.77.32H596.4q-.41,0-.41.35a11.29,11.29,0,0,0,.75,4.07,8,8,0,0,0,2.58,3.43,6.84,6.84,0,0,0,4.39,1.45,15.81,15.81,0,0,0,1.68-.09,8.64,8.64,0,0,0,1.51-.29l1.22-.38a5,5,0,0,0,1.07-.52L610,487l1.16-.78a1,1,0,0,1,.29.35,1.12,1.12,0,0,1,.17.58,1.79,1.79,0,0,1-.35,1.1,9.47,9.47,0,0,1-3.43,3.14,10.77,10.77,0,0,1-5.75,1.57,11.76,11.76,0,0,1-8.71-3.75,12.53,12.53,0,0,1-3.66-9.09,13.44,13.44,0,0,1,3.4-9.52A11.26,11.26,0,0,1,601.75,466.88Zm-.41,2.67a4.11,4.11,0,0,0-2.5.81,5.48,5.48,0,0,0-1.68,2,11.1,11.1,0,0,0-.84,2.18,7.1,7.1,0,0,0-.26,1.71q0,.41.35.41h9.41q.52,0,.52-.87a7.52,7.52,0,0,0-1.37-4.12A4.16,4.16,0,0,0,601.34,469.56Z"/><path class="cls-1" d="M632.77,466.88a5.79,5.79,0,0,1,4.76,1.92q0,4.94-2.79,4.94a3.46,3.46,0,0,1-2.27-1.16,3.64,3.64,0,0,0-2.5-1.16,3.11,3.11,0,0,0-2.82,1.83,7.72,7.72,0,0,0-1,3.8v7.26a24.3,24.3,0,0,0,.41,5.23q.12.41,1.54.84a8.2,8.2,0,0,0,1.95.44c.12,0,.18.28.2.84a6,6,0,0,1,0,1.13q-.47-.06-3.08-.23t-3.95-.17q-1.39,0-4,.17t-3.11.23a1.71,1.71,0,0,1-.23-1.1q0-.87.23-.87a8.1,8.1,0,0,0,2.12-.44q1.42-.44,1.54-.84a19,19,0,0,0,.41-4.24v-9.47q0-2.73-.93-3.72a2.8,2.8,0,0,0-1.31-.87,6.63,6.63,0,0,0-1.39-.35q-.55-.06-.55-.17,0-1.68.29-1.74a82.35,82.35,0,0,0,9.35-1.74l.46-.12c.15,0,.29.14.41.41a1.39,1.39,0,0,1,.15.67q0,.26-.09.81t-.15,1.16a7.57,7.57,0,0,0-.09.78,10.66,10.66,0,0,1,2.85-2.82A6.36,6.36,0,0,1,632.77,466.88Z"/></svg>