<?xml version="1.0" encoding="utf-8"?>
<!-- Generator: Adobe Illustrator 21.1.0, SVG Export Plug-In . SVG Version: 6.00 Build 0)  -->
<svg version="1.1" xmlns="http://www.w3.org/2000/svg" xmlns:xlink="http://www.w3.org/1999/xlink" x="0px" y="0px"
	 viewBox="0 0 982.5 808.2" style="enable-background:new 0 0 982.5 808.2;" xml:space="preserve">
<style type="text/css">
	.st0{fill:url(#SVGID_1_);}
	.st1{fill:url(#SVGID_2_);}
	.st2{fill:#FEF9F9;}
	.st3{fill:#F8EDF4;}
	.st4{fill:#FFFFFF;}
	.st5{fill:#FAEFE6;}
	.st6{fill:#2F3390;}
	.st7{fill:#FFFFFF;stroke:#2F3390;stroke-width:1.2;stroke-miterlimit:10;}
	.st8{fill:#232DAF;}
	.st9{fill:#1928EB;}
	.st10{fill:#FDC7C9;}
	.st11{fill:#FEEA80;}
	.st12{fill:#EB7975;}
	.st13{fill:#606060;}
	.st14{fill:none;}
	.st15{fill:#0624FF;}
	.st16{fill:none;stroke:#2F3390;stroke-width:1.5;stroke-miterlimit:10;}
	.st17{fill:none;stroke:#2F3390;stroke-width:1.5;stroke-linejoin:bevel;stroke-miterlimit:10;}
	.st18{fill:#FFFFFF;stroke:#2F3390;stroke-width:1.2587;stroke-miterlimit:10;}
	.st19{fill:#FFFFFF;stroke:#2F3390;stroke-width:2;stroke-miterlimit:10;}
	.st20{fill:none;stroke:#2F3390;stroke-width:3.025;stroke-miterlimit:10;}
	.st21{fill:none;stroke:#2F3390;stroke-width:3.025;stroke-linejoin:bevel;stroke-miterlimit:10;}
	.st22{fill:none;stroke:#2F3390;stroke-width:15;stroke-miterlimit:10;}
	.st23{fill:#EB7975;stroke:#FAEFE6;stroke-width:1.4;stroke-miterlimit:10;}
	.st24{fill:#2F3380;}
	.st25{fill:#00FF00;}
	.st26{fill:#FEF9F9;stroke:#1928EB;stroke-width:3;stroke-linecap:round;stroke-linejoin:round;stroke-miterlimit:10;}
	.st27{fill:#FFFFFF;stroke:#1414EF;stroke-width:1.5;stroke-miterlimit:10;}
	.st28{fill:#FFFFFF;stroke:#1928EB;stroke-width:1.3;stroke-miterlimit:10;}
	.st29{fill:#FFFFFF;stroke:#1928EB;stroke-width:1.6;stroke-miterlimit:10;}
	.st30{fill:#FFFFFF;stroke:#1414EF;stroke-width:1.75;stroke-miterlimit:10;}
	.st31{fill:#1414EF;}
</style>
<g id="Layer_1">
	<g>
		<g>
			<path class="st29" d="M80.8,90.5c-0.5,1.2-2.8,4.6-6.9,10.2c-4.1,5.6-6.6,8.4-7.5,8.4c-10.1,0.4-22-2.3-35.9-8.3
				C17.8,95.4,9.1,86.2,4.1,73.1C-0.8,60-0.5,47,5,34.2c5.8-13.6,15.4-23.3,28.6-29.1c13.3-5.8,26.5-5.9,39.9-0.2
				c10.8,4.6,21.6,10.8,32.2,18.4c0.2,0.2-0.8,3.5-3.2,9.8c-2.4,6.3-3.9,10.2-4.5,11.7c-0.6,1.4-2.1,1.7-4.4,0.7
				c-0.6-0.2-1.2-0.7-1.8-1.4c0.4-1.9,0.4-4,0.2-6.2c-0.2-2.2-0.8-5-1.9-8.1c-1-3.2-3.2-6.3-6.5-9.5c-3.3-3.2-7.5-5.9-12.7-8.1
				c-9.4-4-18.3-3.3-26.9,2.2C35.6,19.9,29,28.1,24.4,38.9c-5.2,12.1-6.6,23.5-4.3,34.4c2.3,10.9,8.8,18.7,19.5,23.3
				c8.5,3.7,16.4,3.9,23.7,0.6c1.8-0.8,3.7-2.1,5.7-3.9c2-1.8,3.5-3.4,4.7-4.7c1.2-1.3,1.9-1.9,2.1-1.8
				C79.1,88.2,80.8,89.5,80.8,90.5z"/>
			<path class="st29" d="M136.9,70.3c9,3.9,15.3,10.3,19,19.3c3.7,9,3.6,18-0.2,26.9s-10.2,15.2-19.2,18.8c-9,3.6-18,3.5-27.1-0.4
				c-9.1-3.9-15.4-10.4-19.1-19.4c-3.6-9-3.5-18,0.3-26.9c3.9-9,10.3-15.3,19.2-18.8C118.8,66.3,127.8,66.4,136.9,70.3z M132.1,76.3
				c-4.5-1.9-8.9-1.3-13.3,2c-4.4,3.3-7.8,7.9-10.4,14c-3.3,7.8-4.7,15.2-4,22.2c0.6,7.1,3.7,11.8,9.3,14.2c4.5,1.9,9,1.2,13.4-2.1
				c4.4-3.3,7.9-7.9,10.5-13.9c2.1-5,3.5-9.9,4.1-14.7c0.6-4.8,0.1-9.2-1.4-13.3C138.6,80.8,136,77.9,132.1,76.3z"/>
			<path class="st29" d="M224.2,107.8c12.3,5.3,14.3,17.8,5.9,37.4l-5.9,13.6c-2.5,5.8-4,10.3-4.5,13.4c-0.1,0.8,0.9,2,3.1,3.8
				s3.6,2.8,4.5,3.2c0.3,0.1,0.2,0.9-0.4,2.3c-0.5,1.4-1,2.3-1.4,2.7c-0.5-0.3-3-1.6-7.3-3.8c-4.3-2.2-7.6-3.8-9.8-4.7
				c-2.3-1-5.5-2.2-9.7-3.7c-4.2-1.5-6.7-2.3-7.6-2.6c-0.2-0.5,0-1.5,0.6-3c0.6-1.4,1.1-2.1,1.5-1.9c1.1,0.5,2.8,0.8,5.3,1
				c2.5,0.2,3.9,0,4.4-0.6c2-2.5,3.9-5.9,5.6-10l5.9-13.6c3.4-7.9,4.7-14,3.9-18c-0.8-4.1-3.5-7.1-8.2-9.1c-3.1-1.3-6.1-1.6-9.1-0.9
				c-3,0.7-4.9,2-5.8,3.9l-10.6,24.7c-2.5,5.8-4,10.3-4.5,13.4c-0.1,0.8,0.9,2,2.9,3.7c2,1.7,3.4,2.7,4.2,3.1c0.4,0.2,0.3,1-0.2,2.4
				c-0.5,1.4-1,2.3-1.4,2.7c-0.7-0.4-3.2-1.7-7.3-3.8c-4.1-2.1-7.3-3.6-9.5-4.6c-2.3-1-5.7-2.3-10.2-3.9c-4.5-1.6-7.1-2.5-7.9-2.7
				c-0.2-0.5,0-1.5,0.6-3c0.6-1.4,1.1-2.1,1.5-1.9c1.1,0.5,3,0.9,5.7,1.2c2.7,0.3,4.2,0.1,4.7-0.5c1.9-2.6,3.7-5.9,5.5-10l10-23.4
				c1.9-4.5,2.5-7.9,1.6-10.2c-0.4-1.3-1.1-2.5-2.3-3.5c-1.2-1.1-2.2-1.9-3.1-2.3c-0.9-0.5-1.3-0.8-1.2-1c1.2-2.8,2-4.1,2.6-4
				c4.6,1.5,12.9,3.4,25,5.6c0.1-0.1,0.3-0.1,0.5-0.1c0.2,0,0.3,0.1,0.5,0.1c0.1,0.1,0.3,0.1,0.4,0.2c0.4,0.2,0.6,0.6,0.6,1.4
				c0,0.8-0.1,1.4-0.2,1.8c-1.5,2.5-2.5,4.2-2.8,4.9c-0.2,0.4-0.2,0.6-0.2,0.8c0.1,0,0.4,0,0.9-0.1c3.3-1.3,7.1-2.1,11.4-2.2
				C216.4,105.5,220.5,106.2,224.2,107.8z"/>
			<path class="st29" d="M265.1,137.3l-8.8-3.8c-0.7-0.3-0.5-1.7,0.6-4.2c0.3-0.7,0.5-1.1,0.7-1.2c4.6-0.1,9.3-1,14.3-2.9
				c1.8-0.7,3.7-1.5,5.9-2.5c2.2-0.9,4.8-2.2,7.9-3.9c1,0.4,1.8,0.9,2.6,1.5c0.8,0.6,1.1,1.1,1,1.3l-6,14.1
				c2.5,1.1,5.9,2.6,10.4,4.5c4.4,2,6.8,3,7.1,3.1c0.8,0.3,1,0.9,0.6,1.8c-1,2.3-2.4,4.2-4.1,5.7l-17.2-7.4l-14.8,34.6
				c-1.6,3.8-2.1,7.1-1.3,9.8c0.8,2.7,2.6,4.7,5.5,5.9c1,0.4,2,0.7,3.2,0.9c1.2,0.2,2.1,0.3,2.9,0.3c0.8,0,1.5,0,2.2-0.1
				s1.1,0,1.2,0c0.4,0.1,0.7,0.7,0.7,1.8c0.1,1.2,0,1.9-0.2,2.1c-1.2,1.1-3.9,1.8-8.1,2c-4.3,0.3-8.1-0.3-11.4-1.7
				c-5-2.1-8.5-5.6-10.6-10.3c-2.1-4.7-1.7-10.4,1.1-17.1L265.1,137.3z"/>
			<path class="st29" d="M340.8,157.8c4.5,1.9,8.1,4.5,10.9,7.8c2.8,3.3,4.6,6.7,5.4,10.3c0.8,3.6,1.2,7.1,1,10.4
				c-0.2,3.4-0.9,6.4-2,9.1c-0.9,2.1-1.8,3.3-2.8,3.5c-0.9,0.2-2.5-0.1-4.7-1.1l-34.3-14.7c-0.7-0.3-1.1-0.1-1.4,0.4
				c-1.5,3.4-2.3,7.1-2.4,10.9c-0.2,3.8,0.8,7.5,2.8,11.2c2,3.7,5.1,6.4,9.3,8.2c1.4,0.6,2.9,1.1,4.3,1.6c1.4,0.4,2.7,0.7,4,0.9
				c1.3,0.2,2.4,0.3,3.4,0.4c1,0.1,2.1,0,3.2-0.2c1.2-0.2,2-0.3,2.5-0.4c0.5-0.1,1.7-0.3,3.7-0.7c0.2,0.2,0.3,0.6,0.3,1.2
				c0.1,0.6,0,1.1-0.2,1.6c-0.5,1.1-1.1,1.8-2,2.4c-2.5,2-6.5,3.3-11.8,4.1s-10.6,0-15.9-2.2c-8.3-3.6-14.2-9.7-17.6-18.5
				s-3.2-17.5,0.6-26.4c4.1-9.7,10.3-16.3,18.5-19.9S332.2,154.1,340.8,157.8z M337,164c-2.3-1-4.6-1.2-7-0.6
				c-2.4,0.6-4.5,1.6-6.3,3.1c-1.8,1.5-3.2,3-4.4,4.5c-1.1,1.5-2,2.8-2.5,4c-0.3,0.7-0.1,1.1,0.4,1.4l23.3,10
				c0.9,0.4,1.6-0.2,2.2-1.6c1.4-3.3,1.8-7.2,1-11.6C342.9,168.6,340.7,165.6,337,164z"/>
			<path class="st29" d="M373.5,175.2c0.4-1,0.9-1.6,1.6-2.1c10.3,5.1,15.8,7.8,16.6,8.1c0.8,0.3,6.6,2.5,17.6,6.5
				c0,0.5-0.2,1.2-0.6,2.1c-0.7,1.7-1.3,2.5-1.7,2.3c-1.3-0.6-2.8-0.9-4.4-0.9c-1.6,0-2.6,0.4-3,1.4c-0.2,0.5-0.2,1.2,0,2l3.6,16.7
				c1.1-0.7,3.1-1.9,6.2-3.7c3-1.8,5.3-3.2,6.8-4.2c1.5-1,2.5-1.9,2.8-2.7c0.3-0.7,0.1-1.4-0.5-2.2c-0.6-0.8-1.4-1.4-2.2-1.9
				c-0.9-0.5-1.8-1-2.8-1.4c-1-0.5-1.5-0.8-1.6-0.9c-0.4-0.2-0.2-1,0.4-2.5c0.5-1.1,1-1.8,1.6-2.1c10.2,5,15.6,7.7,16.3,8
				c0.7,0.3,5.8,2.1,15.3,5.5c-0.1,0.8-0.3,1.6-0.7,2.4c-0.7,1.5-1.1,2.3-1.3,2.2c-6.8-2-11.7-2.3-14.6-0.8l-22.9,11.3
				c-0.4,0.3-0.6,0.6-0.8,1c-0.2,0.6-0.3,1.1,0,1.7l6.7,29.2c1.1,5.3,4.1,9.3,8.9,12.2c0.3,0.1,0.1,1-0.6,2.6
				c-0.4,0.9-0.9,1.5-1.5,1.9c-1.4-0.7-3.1-1.6-5.1-2.7s-3.8-2-5.4-2.8c-1.6-0.8-3.4-1.6-5.3-2.5c-2.1-0.9-4.1-1.7-5.9-2.4
				c-1.9-0.7-4-1.4-6.3-2.2c-2.3-0.8-4.3-1.5-6-2.1c0.2-1,0.4-1.7,0.5-2c0.9-2,1.4-3,1.7-2.8c1.3,0.6,2.9,0.8,4.6,0.8
				c1.7-0.1,2.8-0.6,3.2-1.5c0.1-0.2,0.1-0.5,0.1-1l-4.2-18.8l-14.5,8.8c-1,0.6-1.7,1.3-2.1,2.2c-0.2,0.6-0.3,1.1-0.1,1.7
				c0.2,0.5,0.6,1.1,1.3,1.6c0.7,0.6,1.2,1,1.7,1.3c0.5,0.3,1.2,0.8,2.3,1.4c1,0.6,1.7,1,1.8,1c0.3,0.1,0.1,1-0.6,2.6
				c-0.5,1.2-1.1,2-1.6,2.2c-1.4-0.7-3-1.6-4.9-2.6c-1.9-1-3.6-1.9-5.2-2.7c-1.6-0.8-3.3-1.6-5.1-2.4c-1.8-0.8-3.6-1.5-5.2-2.1
				c-1.7-0.6-3.5-1.2-5.6-1.9c-2.1-0.7-3.9-1.3-5.4-1.8c0.1-0.8,0.4-1.7,0.8-2.6c0.7-1.6,1.2-2.4,1.6-2.2c6.6,1.7,11.6,1.7,14.8-0.1
				l23.4-12.1c0.4-0.3,0.6-0.6,0.8-1c0.1-0.3,0.1-0.7,0-1.2l-6.9-29.5c-0.4-1.9-1.6-3.8-3.5-5.8c-1.9-2-3.6-3.3-5.2-4
				C372.6,177.8,372.8,176.9,373.5,175.2z"/>
			<path class="st29" d="M459.3,220.6l-8.8-3.8c-0.7-0.3-0.5-1.7,0.6-4.2c0.3-0.7,0.5-1.1,0.7-1.2c4.6-0.1,9.3-1,14.3-2.9
				c1.8-0.7,3.7-1.5,5.9-2.5c2.2-0.9,4.8-2.2,7.9-3.9c1,0.4,1.8,0.9,2.6,1.5c0.8,0.6,1.1,1.1,1,1.3l-6,14.1
				c2.5,1.1,5.9,2.6,10.4,4.5c4.4,2,6.8,3,7.1,3.1c0.8,0.3,1,0.9,0.6,1.8c-1,2.3-2.4,4.2-4.1,5.7l-17.2-7.4l-14.8,34.6
				c-1.6,3.8-2.1,7.1-1.3,9.8c0.8,2.7,2.6,4.7,5.5,5.9c1,0.4,2,0.7,3.2,0.9c1.2,0.2,2.1,0.3,2.9,0.3c0.8,0,1.5,0,2.2-0.1
				s1.1,0,1.2,0c0.4,0.1,0.7,0.7,0.7,1.8c0.1,1.2,0,1.9-0.2,2.1c-1.2,1.1-3.9,1.8-8.1,2c-4.3,0.3-8.1-0.3-11.4-1.7
				c-5-2.1-8.5-5.6-10.6-10.3c-2.1-4.7-1.7-10.4,1.1-17.1L459.3,220.6z"/>
			<path class="st29" d="M561.6,270.9l-12.2,28.4c-2,4.6-3,8.1-3.2,10.5c0.1,0.6,0.5,1.2,1.2,1.9c0.7,0.6,1.4,1.2,2.3,1.7
				c0.8,0.5,1.6,0.9,2.3,1.2c0.7,0.3,1.1,0.5,1.2,0.7c0.3,0.3,0.3,0.8,0,1.5c-0.2,0.4-0.5,1-1.1,1.8c-0.6,0.8-1.1,1.2-1.4,1
				c-1.3-0.6-3.1-1.1-5.3-1.7c-2.2-0.5-4.3-1.1-6.4-1.6c-2.1-0.5-4-0.9-5.9-1.3c-1.9-0.4-4-0.8-6.2-1.3c-0.7-0.3-0.7-1.2,0-2.7
				l2.7-6.3c0.1-0.5,0.1-0.8-0.1-0.9c-3.2,1.4-7.1,2.3-11.5,2.7c-4.5,0.4-8.7-0.3-12.6-2c-3.3-1.4-5.8-3.4-7.5-6.1
				c-1.7-2.7-2.8-5.6-3-8.8c-0.3-3.2-0.1-6.4,0.6-9.6c0.6-3.2,1.6-6.4,2.9-9.4l6.9-16.1c1.9-4.5,2.5-7.9,1.6-10.2
				c-0.5-1.3-1.2-2.5-2.4-3.6c-1.1-1.1-2.2-1.8-3.1-2.3c-0.9-0.5-1.3-0.9-1.3-1c1.2-2.8,2-4.1,2.6-4c2.9,1,7,2.1,12.5,3.3
				c5.5,1.2,9.6,2,12.5,2.3c0.1,0,0.3,0.1,0.6,0.1c0.3,0,0.5,0.1,0.6,0.1c0.5,0.2,0.7,0.7,0.6,1.5c-0.1,0.8-0.2,1.4-0.3,1.7
				c-3.7,6.1-5.9,10.2-6.7,12.1l-7.4,17.2c-3.2,7.5-4.5,13.3-3.7,17.4c0.7,4.2,3.4,7.2,8.1,9.3c3.1,1.3,6,1.5,9,0.5
				c2.9-1,4.7-2.3,5.5-4l10.2-23.7c1.9-4.5,2.5-7.9,1.6-10.2c-0.4-1.3-1.1-2.5-2.3-3.5c-1.2-1.1-2.2-1.9-3.1-2.4
				c-0.9-0.5-1.3-0.9-1.2-1c1.2-2.8,2.1-4.1,2.7-3.9c2.8,1,6.9,2,12.4,3.3c5.5,1.2,9.6,2,12.5,2.3c0.1,0,0.5,0.1,1.3,0.2
				c0.5,0.2,0.7,0.7,0.7,1.5c0,0.8-0.1,1.4-0.4,1.7C564.5,265.2,562.3,269.2,561.6,270.9z"/>
			<path class="st29" d="M615.3,275.6c5.9,2.5,9.7,6,11.4,10.4c1.6,4.4,0.8,10.4-2.4,17.9l-12.1,28.3c-0.8,1.9-1,3.6-0.6,4.9
				s1.4,2.4,2.8,3c1.4,0.6,3.3,0.7,5.7,0.2c0.5,0.4,0.6,1.1,0.2,1.9c-0.8,1.9-1.7,3.2-2.7,3.9c-1.9,0.5-4.4,0.9-7.3,1.1
				c-2.9,0.2-5.5-0.1-7.7-1.1c-2.2-0.9-4-2.7-5.4-5.2c-1.4-2.5-2-4.9-1.9-7.1c-0.1,0.1-0.6,0.2-1.5,0.5c-0.8,0.3-2,0.5-3.4,0.8
				c-1.4,0.3-3,0.5-4.7,0.7c-1.7,0.2-3.6,0.1-5.7-0.2c-2.1-0.3-4.1-0.8-6-1.6c-4.8-2.1-8.1-5-10-9c-1.9-3.9-1.8-8.2,0.1-12.8
				c1-2.3,2.5-4.2,4.4-5.8c2-1.5,4-2.6,6.1-3.3c2.1-0.6,4.7-1,7.8-1.2c3.1-0.1,5.7-0.1,7.9,0.1c2.1,0.2,4.8,0.5,8.1,0.9
				c3.3,0.4,5.6,0.6,6.9,0.8c1,0,1.8-0.6,2.3-1.7l3.4-7.9c1.4-3.3,1.8-6.3,1.1-8.9c-0.7-2.6-2.4-4.4-4.9-5.5
				c-2.9-1.2-5.5-1.3-7.9-0.2c-2.4,1.1-4.3,3.2-5.7,6.5c-0.8,1.9-2.1,3-4,3.3c-1.8,0.3-3.6,0-5.5-0.7c-3.5-1.5-5.5-3.7-6-6.7
				c2-4.6,7-7.6,15-8.9C601,271.8,608.5,272.7,615.3,275.6z M585.2,328c2.6,1.1,5.1,1.4,7.5,0.9c2.4-0.5,4-1.7,4.8-3.4l6.3-14.6
				c-0.8,0-2.4-0.1-4.9-0.4c-2.4-0.3-4.3-0.4-5.7-0.4c-1.4,0-3,0.1-4.9,0.3c-1.9,0.2-3.5,0.8-4.7,1.7c-1.3,0.9-2.2,2.1-2.8,3.6
				c-1.3,3.1-1.5,5.6-0.6,7.7C581.2,325.4,582.8,327,585.2,328z"/>
			<path class="st29" d="M656.7,344c-2.5,5.9-4.1,10.4-4.5,13.4c-0.1,0.8,0.8,2,2.6,3.7c1.8,1.7,3.1,2.8,3.9,3.1
				c0.3,0.1,0.2,0.9-0.4,2.2c-0.5,1.4-1,2.2-1.4,2.6c-1.3-0.7-3-1.6-5.2-2.7c-2.2-1.1-4.2-2.1-5.9-3c-1.8-0.9-3.5-1.7-5.1-2.4
				c-1.8-0.8-3.7-1.5-5.5-2.2c-1.9-0.7-3.9-1.4-6.2-2.2c-2.3-0.8-4.1-1.5-5.6-2c-0.2-0.5,0-1.5,0.6-2.9c0.6-1.4,1.1-2,1.5-1.8
				c1.1,0.5,2.8,0.7,5.3,0.8c2.5,0.1,4-0.1,4.5-0.7c2.2-3,4.1-6.4,5.7-10.1l25.6-59.7c1.6-3.6,2.7-7,3.3-10.1
				c0.2-1.7-1.9-3.5-6.2-5.4l-1.4-0.6c-0.6-0.2-0.6-0.9-0.1-2.1c0.7-1.5,1.3-2.2,1.8-1.9c3.1,1,6.1,1.8,9,2.5
				c2.9,0.7,5.3,1.1,7.3,1.4c2,0.3,3.7,0.5,5.2,0.6c1.5,0.1,2.7,0.2,3.5,0.2h1.2l0.3,0.1c0.4,0.2,0.7,0.6,0.9,1.4s0.2,1.4,0.2,1.8
				c-2.7,3.1-5.2,7.4-7.5,12.8L656.7,344z"/>
			<path class="st29" d="M699.5,362.7c-2.5,5.8-4,10.3-4.4,13.4c-0.1,0.8,0.9,2,3,3.7c2.1,1.7,3.6,2.8,4.4,3.2
				c0.4,0.2,0.3,1-0.2,2.4c-0.5,1.4-1,2.3-1.4,2.7c-0.6-0.4-3.1-1.7-7.4-3.9c-4.3-2.2-7.5-3.7-9.7-4.7c-2.4-1-5.8-2.3-10.3-3.9
				c-4.5-1.6-7.1-2.5-7.8-2.7c-0.2-0.5,0-1.5,0.6-3s1.1-2.1,1.5-1.9c1.1,0.5,2.9,0.8,5.6,1.1c2.7,0.3,4.3,0.2,4.8-0.4
				c1.9-2.6,3.7-5.9,5.5-10.1l10-23.4c1.9-4.5,2.5-7.9,1.6-10.2c-0.5-1.3-1.2-2.5-2.4-3.6c-1.1-1.1-2.2-1.8-3.1-2.3
				c-0.9-0.5-1.3-0.9-1.2-1c1.2-2.8,2.1-4.1,2.7-3.9c2.8,1,6.9,2,12.4,3.3c5.5,1.2,9.6,2,12.5,2.3c0.1,0,0.5,0.1,1.3,0.2
				c0.5,0.2,0.7,0.7,0.7,1.5c0,0.8-0.1,1.4-0.4,1.7c-3.4,5.8-5.5,9.8-6.4,11.9L699.5,362.7z M710.4,296.2c-1-2.5-0.9-5,0.1-7.4
				c1-2.4,2.8-4.2,5.3-5.1c2.5-1,4.9-0.9,7.4,0.1c2.5,1.1,4.2,2.8,5.2,5.3c1,2.5,1,4.9-0.1,7.4c-1,2.4-2.8,4.2-5.3,5.2
				c-2.5,1-5,1-7.5-0.1C713.1,300.5,711.3,298.8,710.4,296.2z"/>
			<path class="st29" d="M730.4,391c-0.1,0.3,0,0.6,0.4,1c0.4,0.4,0.7,0.6,0.9,0.7l13.9,6c7.1,3,13.5,1.4,19.2-5
				c0.7-0.8,1.7-1,3.1-0.4c1.4,0.6,2.2,1.4,2.3,2.4l-10.4,17.1L711,391.8c-1.4-2-1.9-3.5-1.5-4.5c0.1-0.3,0.3-0.5,0.4-0.5l54.7-35.9
				l-15.1-6.8c-1-0.4-1.9-0.7-2.9-0.8c-1-0.1-1.9-0.2-2.7-0.1c-0.8,0-1.7,0.2-2.5,0.5c-0.9,0.3-1.6,0.6-2.1,1
				c-0.5,0.3-1.2,0.8-1.9,1.3c-0.7,0.5-1.3,1-1.6,1.3c-0.4,0.3-0.8,0.7-1.4,1.3c-0.6,0.5-0.9,0.9-0.9,1c-0.5,0.5-1.9,0.2-4-0.7
				c-1.1-0.5-1.5-0.8-1.5-1c0.2-0.5,1.6-2.8,4.2-7c2.6-4.2,4.6-7.6,6-10.4c5.4,3,9.8,5.2,13.3,6.7l17.5,7.5
				c5.7,2.5,11.9,4.7,18.6,6.6c0,0.6-0.4,1.8-1.2,3.6l-54,34.7C731.3,390.1,730.6,390.6,730.4,391z"/>
			<path class="st29" d="M804.5,407.8c-2.5,5.8-4,10.3-4.4,13.4c-0.1,0.8,0.9,2,3,3.7c2.1,1.7,3.6,2.8,4.4,3.2
				c0.4,0.2,0.3,1-0.2,2.4c-0.5,1.4-1,2.3-1.4,2.7c-0.6-0.4-3.1-1.7-7.4-3.9c-4.3-2.2-7.5-3.7-9.7-4.7c-2.4-1-5.8-2.3-10.3-3.9
				c-4.5-1.6-7.1-2.5-7.8-2.7c-0.2-0.5,0-1.5,0.6-3c0.6-1.4,1.1-2.1,1.5-1.9c1.1,0.5,2.9,0.8,5.6,1.1c2.7,0.3,4.3,0.2,4.8-0.4
				c1.9-2.6,3.7-5.9,5.5-10.1l10-23.4c1.9-4.5,2.5-7.9,1.6-10.2c-0.5-1.3-1.2-2.5-2.4-3.6c-1.1-1.1-2.2-1.8-3.1-2.3
				c-0.9-0.5-1.3-0.9-1.3-1c1.2-2.8,2.1-4.1,2.7-3.9c2.8,1,6.9,2,12.4,3.3c5.5,1.2,9.6,2,12.5,2.3c0.1,0,0.5,0.1,1.3,0.2
				c0.5,0.2,0.7,0.7,0.7,1.5c0,0.8-0.1,1.4-0.4,1.7c-3.4,5.8-5.5,9.8-6.4,11.9L804.5,407.8z M815.3,341.3c-1-2.5-0.9-5,0.1-7.4
				c1-2.4,2.8-4.2,5.3-5.1c2.5-1,4.9-0.9,7.4,0.1c2.5,1.1,4.2,2.8,5.2,5.3c1,2.5,1,4.9-0.1,7.4c-1,2.4-2.8,4.2-5.3,5.2
				c-2.5,1-5,1-7.5-0.1C818,345.6,816.3,343.8,815.3,341.3z"/>
			<path class="st29" d="M887.4,392.4c12.3,5.3,14.3,17.8,5.9,37.4l-5.9,13.6c-2.5,5.8-4,10.3-4.5,13.4c-0.1,0.8,0.9,2,3.1,3.8
				c2.1,1.8,3.6,2.8,4.5,3.2c0.3,0.1,0.2,0.9-0.4,2.3c-0.5,1.4-1,2.3-1.4,2.7c-0.5-0.3-3-1.6-7.3-3.8c-4.3-2.2-7.6-3.8-9.8-4.7
				c-2.3-1-5.5-2.2-9.7-3.7c-4.2-1.5-6.7-2.3-7.6-2.6c-0.2-0.5,0-1.5,0.6-3c0.6-1.4,1.1-2.1,1.5-1.9c1.1,0.5,2.8,0.8,5.3,1
				c2.5,0.2,3.9,0,4.4-0.6c2-2.5,3.9-5.9,5.6-10l5.9-13.6c3.4-7.9,4.7-14,3.9-18c-0.8-4.1-3.5-7.1-8.2-9.1c-3.1-1.3-6.1-1.6-9.1-0.9
				c-3,0.7-4.9,2-5.8,3.9l-10.6,24.7c-2.5,5.8-4,10.3-4.5,13.4c-0.1,0.8,0.9,2,2.9,3.7c2,1.7,3.4,2.7,4.2,3.1c0.4,0.2,0.3,1-0.2,2.4
				c-0.5,1.4-1,2.3-1.4,2.7c-0.7-0.4-3.2-1.7-7.3-3.8c-4.1-2.1-7.3-3.6-9.5-4.6c-2.3-1-5.7-2.3-10.2-3.9c-4.5-1.6-7.1-2.5-7.9-2.7
				c-0.2-0.5,0-1.5,0.6-3c0.6-1.4,1.1-2.1,1.5-1.9c1.1,0.5,3,0.9,5.7,1.2c2.7,0.3,4.2,0.1,4.7-0.5c1.9-2.6,3.7-5.9,5.5-10.1l10-23.4
				c1.9-4.5,2.5-7.9,1.6-10.2c-0.4-1.3-1.1-2.5-2.3-3.5c-1.2-1.1-2.2-1.9-3.1-2.3c-0.9-0.5-1.3-0.8-1.2-1c1.2-2.8,2-4.1,2.6-4
				c4.6,1.5,12.9,3.4,25,5.6c0.1-0.1,0.3-0.1,0.5-0.1c0.2,0,0.3,0.1,0.5,0.1c0.1,0.1,0.3,0.1,0.4,0.2c0.4,0.2,0.6,0.6,0.6,1.4
				s-0.1,1.4-0.2,1.8c-1.5,2.5-2.5,4.2-2.8,4.9c-0.2,0.4-0.2,0.6-0.2,0.8c0.1,0,0.4,0,0.9-0.1c3.3-1.3,7.1-2.1,11.4-2.2
				C879.7,390,883.7,390.8,887.4,392.4z"/>
			<path class="st29" d="M951.7,420.2c3.4,1.5,7.1,3.8,11.1,7c4,3.2,7.5,5.4,10.7,6.8l8.2,3.5c0.2,0.1,0.3,0.8,0.2,2.3
				c-0.1,1.4-0.2,2.5-0.5,3.2c-0.6,1.3-1.1,1.9-1.7,1.6l-9.3-4c-0.4-0.2-0.6-0.1-0.8,0.2c0,0.1-0.1,1.5-0.3,4.3
				c-0.2,2.8-0.7,5.2-1.7,7.4c-2.4,5.7-7,9.7-13.7,12.2c-6.7,2.5-13.6,2.3-20.7-0.8c-3.4-1.5-6.3-2.9-8.7-4.4
				c-1.4,0-2.8,0.4-4.3,1.3c-1.5,0.9-2.5,1.8-2.9,2.9c-0.4,1-0.3,2,0.3,3c0.6,1.1,1.8,2.1,3.6,3.3c1.8,1.1,3.3,2,4.6,2.7
				c1.3,0.7,3.2,1.6,5.6,2.8c1.1,0.5,1.8,0.8,2.2,0.9c9.4,4.4,15.9,8.7,19.3,13c3.4,4.3,4.2,8.7,2.1,13.4c-3,7.2-9.1,12-18.3,14.2
				c-9.2,2.3-18.5,1.4-27.7-2.5c-7-2.9-12.6-6.9-16.6-11.9c-4-5-5-10.1-2.8-15.1c1.2-2.8,3.7-4.9,7.5-6.3c3.8-1.4,7.6-2,11.2-1.7
				c-2.2-1.8-3.8-4.3-5-7.3c-1.2-3.1-1.2-6,0.1-8.9c1.8-4.1,7.1-6.9,16.1-8.2c-2.2-2.4-3.8-6-4.6-10.7c-0.8-4.7-0.3-9.1,1.4-13.2
				c2.9-6.8,7.7-11.1,14.4-12.9C937.6,416.5,944.5,417.2,951.7,420.2z M939.2,503.8c1.4-3.4,0-6.6-4.4-9.8
				c-4.4-3.2-10.6-6.5-18.7-10c-0.2-0.1-0.5-0.1-0.8-0.2c-0.2,0-0.5,0.1-0.9,0.1c-1.5-0.1-2.6-0.1-3.4,0c-0.8,0-1.8,0.2-3,0.6
				c-1.2,0.3-2.2,0.9-3,1.7c-0.8,0.8-1.5,1.8-2.1,3.2c-1.5,3.4-0.9,7.1,1.8,11c2.6,3.9,6.2,6.8,10.7,8.7c5.4,2.3,10.3,2.9,14.7,1.9
				C934.6,510,937.6,507.6,939.2,503.8z M931.8,436.4c-2,4.7-2.8,9.1-2.2,13.1c0.5,4,2.5,6.8,6,8.3c3.5,1.5,6.7,1.3,9.6-0.7
				c2.8-2,5.1-5,6.9-9c2.2-5.1,3-9.6,2.4-13.6c-0.6-4-2.7-6.8-6.3-8.3c-3.4-1.5-6.6-1.1-9.5,1.2
				C935.7,429.5,933.5,432.6,931.8,436.4z"/>
		</g>
		<g>
			<path class="st29" d="M117.6,739.4c-2.8-7.3-2.2-14.6,2-22c4.2-7.4,10.1-12.6,17.8-15.6c2.7-1.1,5.2-1.8,7.3-2.3
				c2.2-0.5,5.2-1,9.2-1.5c4-0.5,6.7-0.9,8.2-1.1c3.7,6.1,7.2,13.4,10.5,21.7c0.1,0.9-0.3,1.6-1.2,2c-2.6,1-4.2,1.1-4.7,0.3
				c-2.3-4.2-6.1-7.8-11.4-10.7c-5.3-2.9-10.5-3.3-15.6-1.3c-4.5,1.7-7.4,4.3-8.8,7.8c-1.4,3.5-1.3,7.3,0.4,11.6
				c0.6,1.5,1.3,2.8,2.1,4c0.8,1.2,2,2.2,3.5,3.1c1.5,0.9,2.7,1.6,3.7,2.2c1,0.6,2.6,1.2,4.9,1.7c2.3,0.6,3.8,1,4.7,1.2
				c0.8,0.2,2.6,0.6,5.5,1.1c2.8,0.5,4.5,0.8,5.1,0.8c0.8,0.3,2.8,0.7,6.1,1.2c3.3,0.6,5.6,1,7,1.3c1.4,0.3,3.4,0.9,6.1,1.9
				c2.7,1,4.8,2,6.4,3.2c1.5,1.2,3.1,2.8,4.8,4.9c1.7,2.1,3.1,4.5,4.1,7.2c3,7.8,2.4,15.4-1.9,22.9c-4.3,7.5-10.6,12.8-18.8,16.1
				c-5.8,2.3-15.3,4.4-28.4,6.4c-2.2-3.2-4.7-7.2-7.5-12.2c-2.8-5-4.5-8.3-5.1-10c-0.2-0.8,0.4-1.5,1.9-2.1c2.5-1,4.1-1.1,4.7-0.5
				c1.1,1.6,2.5,3.2,4.3,5c1.8,1.7,4,3.4,6.6,5.1c2.6,1.7,5.7,2.8,9.1,3.2c3.4,0.4,7-0.1,10.6-1.5c4.6-1.8,7.8-4.6,9.8-8.5
				c1.9-3.9,1.9-8.6-0.3-14c-0.6-1.6-1.6-3.1-2.8-4.4c-1.2-1.3-2.5-2.3-3.7-3.1c-1.2-0.7-2.9-1.4-5-2.1c-2.1-0.6-3.8-1.1-5.1-1.4
				c-1.3-0.3-3.3-0.6-5.8-1c-2.6-0.4-4.4-0.7-5.4-0.8c-0.4-0.2-1.1-0.4-2.1-0.5c-3.5-0.6-6.2-1.2-8-1.6c-1.8-0.4-4.3-1.1-7.3-2.1
				c-3-1-5.4-2.1-7.2-3.3c-1.8-1.2-3.6-2.8-5.5-4.9C120.2,744.7,118.7,742.3,117.6,739.4z"/>
			<path class="st29" d="M217.6,708.5c4.6-1.8,9-2.5,13.3-2.1c4.3,0.4,8,1.6,11.1,3.6s5.8,4.2,8,6.8c2.2,2.5,3.9,5.2,4.9,7.9
				c0.8,2.1,1,3.6,0.5,4.4c-0.5,0.8-1.9,1.7-4.1,2.5l-34.8,13.6c-0.7,0.3-0.9,0.7-0.7,1.3c1.4,3.5,3.3,6.6,5.9,9.5
				c2.5,2.8,5.8,4.8,9.8,6.1c4,1.2,8.1,1,12.4-0.6c1.5-0.6,2.8-1.2,4.1-1.9c1.3-0.7,2.5-1.4,3.5-2.2c1-0.8,1.9-1.5,2.7-2.1
				c0.8-0.6,1.5-1.4,2.2-2.4c0.7-0.9,1.2-1.6,1.5-2c0.3-0.4,1-1.4,2.1-3.1c0.2,0,0.6,0.2,1.1,0.6c0.5,0.4,0.8,0.8,1,1.3
				c0.4,1.1,0.5,2.1,0.2,3.1c-0.4,3.2-2.3,6.9-5.5,11.2c-3.3,4.3-7.5,7.5-12.9,9.5c-8.4,3.3-16.9,3-25.5-0.9
				c-8.6-3.9-14.6-10.3-18.1-19.2c-3.8-9.8-4.1-18.9-0.8-27.2C202.8,717.8,208.9,711.9,217.6,708.5z M219.2,715.6
				c-2.3,0.9-4.2,2.4-5.5,4.5c-1.3,2.1-2.1,4.3-2.3,6.6c-0.2,2.3-0.2,4.4,0,6.3c0.2,1.9,0.6,3.4,1,4.6c0.3,0.7,0.7,0.9,1.3,0.7
				l23.6-9.2c0.9-0.3,1-1.2,0.5-2.7c-1.3-3.4-3.8-6.4-7.5-9C226.7,714.7,223,714.1,219.2,715.6z"/>
			<path class="st29" d="M298.8,676.9c12.5-4.9,22.7,2.6,30.4,22.5l5.4,13.8c2.3,5.9,4.3,10.2,6.1,12.7c0.5,0.6,2.1,0.8,4.8,0.6
				c2.8-0.2,4.6-0.5,5.4-0.9c0.3-0.1,0.7,0.5,1.3,1.9c0.6,1.4,0.9,2.4,0.9,2.9c-0.6,0.1-3.2,0.9-7.9,2.4c-4.6,1.5-8.1,2.6-10.3,3.5
				c-2.3,0.9-5.5,2.3-9.5,4.2c-4,1.9-6.4,3.1-7.3,3.5c-0.5-0.2-1.1-1.1-1.7-2.5c-0.6-1.5-0.7-2.3-0.3-2.4c1.1-0.4,2.6-1.4,4.5-3
				c1.9-1.6,2.8-2.7,2.7-3.5c-0.4-3.2-1.4-6.9-3-11.1l-5.4-13.8c-3.1-8.1-6.4-13.3-9.9-15.6c-3.4-2.4-7.5-2.6-12.3-0.7
				c-3.1,1.2-5.5,3.1-7.2,5.7c-1.7,2.6-2.1,4.9-1.4,6.8l9.8,25c2.3,5.9,4.3,10.2,6.1,12.7c0.5,0.6,2,0.8,4.7,0.6
				c2.7-0.2,4.4-0.4,5.2-0.8c0.4-0.2,0.9,0.5,1.5,1.9c0.6,1.4,0.9,2.4,0.9,2.9c-0.8,0.2-3.4,1-7.9,2.4c-4.4,1.4-7.8,2.5-10,3.4
				c-2.3,0.9-5.6,2.4-9.9,4.4c-4.3,2-6.8,3.2-7.6,3.6c-0.5-0.2-1.1-1.1-1.7-2.5c-0.6-1.5-0.7-2.3-0.3-2.4c1.2-0.5,2.8-1.5,4.9-3.2
				c2.1-1.7,3.1-2.9,3-3.6c-0.5-3.2-1.5-6.9-3.1-11l-9.2-23.7c-1.8-4.6-3.8-7.4-6-8.4c-1.2-0.7-2.5-1-4.1-0.9
				c-1.6,0.1-2.9,0.2-3.8,0.5c-1,0.3-1.5,0.3-1.6,0.1c-1.1-2.8-1.4-4.4-1-4.7c4.3-2.1,11.6-6.6,21.7-13.5c0.1-0.1,0.2-0.3,0.3-0.4
				c0.1-0.1,0.3-0.2,0.4-0.2s0.3-0.1,0.4-0.1c0.4-0.2,0.9,0.1,1.4,0.6c0.6,0.6,0.9,1,1.1,1.4c0.7,2.9,1.2,4.7,1.5,5.5
				c0.2,0.4,0.3,0.6,0.4,0.7c0.1,0,0.3-0.3,0.6-0.7c1.4-3.2,3.6-6.4,6.6-9.6C291.7,680.7,295,678.3,298.8,676.9z"/>
			<path class="st29" d="M348.7,669.2l-8.9,3.5c-0.7,0.3-1.5-0.9-2.5-3.4c-0.3-0.7-0.4-1.1-0.4-1.4c3.2-3.3,5.9-7.3,8.2-12.1
				c0.8-1.8,1.6-3.7,2.5-5.9c0.9-2.2,1.8-4.9,2.9-8.3c1-0.4,1.9-0.6,2.9-0.7c1-0.1,1.5,0,1.6,0.3l5.6,14.3c2.5-1,6.1-2.3,10.6-4
				c4.5-1.7,6.9-2.6,7.2-2.7c0.8-0.3,1.3,0,1.7,0.9c0.9,2.3,1.3,4.7,1,7l-17.5,6.8l13.7,35.1c1.5,3.9,3.5,6.5,5.9,7.9
				c2.4,1.4,5.1,1.5,8,0.4c1-0.4,1.9-0.9,2.9-1.6c1-0.7,1.7-1.3,2.3-1.8c0.6-0.6,1.1-1.1,1.6-1.6c0.5-0.5,0.8-0.8,0.8-0.8
				c0.3-0.2,1,0,1.8,0.8c0.9,0.8,1.3,1.3,1.3,1.7c-0.1,1.6-1.5,4-4.3,7.1c-2.8,3.2-6,5.4-9.4,6.8c-5,2-10,2-14.8,0.1
				c-4.8-1.9-8.5-6.2-11.2-13L348.7,669.2z"/>
			<path class="st29" d="M391.2,621c-2.4-1.1-4.2-2.9-5.1-5.4c-1-2.5-0.9-4.9,0.2-7.4s2.9-4.1,5.4-5.1c2.5-1,5-0.9,7.4,0.1
				c2.4,1.1,4.1,2.8,5.1,5.3c1,2.5,0.9,5-0.1,7.4c-1,2.5-2.8,4.2-5.4,5.2C396.2,622.2,393.7,622.1,391.2,621z M430.1,676
				c2.3,5.9,4.4,10.1,6.3,12.6c0.5,0.6,2,0.8,4.8,0.6c2.7-0.2,4.5-0.5,5.4-0.8c0.4-0.2,0.9,0.5,1.5,1.9c0.6,1.4,0.9,2.4,0.9,2.9
				c-0.7,0.2-3.4,1-8,2.5c-4.6,1.5-8,2.6-10.1,3.4c-2.4,0.9-5.8,2.4-10.1,4.4c-4.3,2-6.8,3.2-7.4,3.6c-0.5-0.2-1.1-1.1-1.7-2.5
				c-0.6-1.5-0.7-2.3-0.3-2.4c1.1-0.4,2.7-1.5,4.8-3.1c2.1-1.7,3.2-2.9,3.1-3.6c-0.5-3.2-1.5-6.9-3.1-11l-9.2-23.7
				c-1.8-4.6-3.8-7.4-6-8.4c-1.3-0.6-2.7-0.9-4.2-0.9c-1.5,0-2.8,0.2-3.8,0.5c-1,0.3-1.5,0.3-1.6,0.1c-1.1-2.8-1.4-4.4-0.8-4.7
				c2.6-1.3,6.3-3.4,11.1-6.3c4.8-3,8.3-5.3,10.5-7.1c0.1,0,0.4-0.3,1.1-0.7c0.5-0.2,1,0,1.6,0.6c0.6,0.6,0.9,1.1,0.9,1.5
				c1.6,6.5,2.9,10.8,3.7,13L430.1,676z"/>
			<path class="st29" d="M478.5,606.9c3.7-1.4,7.2-1.7,10.6-0.8c3.4,0.9,6.3,2.6,8.7,5.1c1.7-4,4.3-7.8,7.8-11.4
				c3.5-3.6,7.7-6.4,12.5-8.2c3.5-1.4,6.8-1.7,9.9-1.2c3.1,0.6,5.9,2,8.3,4.2c2.5,2.2,4.7,4.8,6.6,7.8c1.9,3,3.6,6.4,5.1,10.2
				l6,15.3c2.3,5.9,4.3,10.2,6.1,12.7c0.5,0.6,2,0.8,4.8,0.6c2.7-0.2,4.5-0.5,5.4-0.8c0.3-0.1,0.7,0.5,1.3,1.9
				c0.6,1.4,0.9,2.4,0.9,2.9c-0.7,0.2-3.3,1-7.9,2.4c-4.5,1.4-7.9,2.6-10.1,3.4c-2.3,0.9-5.6,2.3-9.8,4.3c-4.2,2-6.7,3.2-7.6,3.6
				c-0.4-0.3-0.9-1.1-1.5-2.6c-0.6-1.5-0.7-2.2-0.4-2.4c1.2-0.5,2.8-1.5,4.8-3.1c2-1.6,3-2.8,3-3.6c-0.5-3.2-1.4-6.7-3-10.6
				l-5.8-14.9c-5.5-14.1-12.7-19.4-21.8-15.8c-3.2,1.2-5.6,3.1-7.1,5.4c-1.5,2.4-2.2,4.4-2,6c0.1,0.3,0.2,0.7,0.4,1.2
				c0.1,0.5,0.3,0.9,0.5,1.1c1.1,2,2.4,5,4,8.9l6,15.4c2.2,5.5,4.1,9.6,5.9,12.1c0.5,0.6,2,0.8,4.8,0.6c2.7-0.2,4.5-0.5,5.4-0.8
				c0.3-0.1,0.7,0.5,1.3,1.9c0.6,1.4,0.9,2.4,0.9,2.9c-0.7,0.2-3.3,1-7.9,2.4c-4.5,1.4-7.9,2.6-10.1,3.4c-2.3,0.9-5.6,2.3-9.8,4.3
				c-4.2,2-6.7,3.2-7.6,3.6c-0.4-0.3-0.9-1.1-1.5-2.6c-0.6-1.5-0.7-2.2-0.4-2.4c1.2-0.5,2.8-1.5,4.8-3.1c2-1.6,3-2.8,3-3.6
				c-0.5-3.2-1.5-6.9-3.1-11l-5.4-14c-3-7.6-6.2-12.6-9.8-15.1c-3.6-2.5-7.5-2.9-11.9-1.2c-2.9,1.1-5.3,3-7,5.6
				c-1.8,2.6-2.3,4.9-1.5,7l9.8,25c2.3,5.9,4.4,10.1,6.3,12.6c0.5,0.6,2,0.8,4.6,0.6c2.6-0.2,4.4-0.4,5.2-0.8
				c0.4-0.2,0.9,0.5,1.5,1.9c0.6,1.4,0.9,2.4,0.9,2.9c-0.8,0.2-3.4,1-7.9,2.4c-4.4,1.4-7.8,2.5-10,3.4c-2.4,0.9-5.8,2.4-10,4.4
				s-6.8,3.2-7.5,3.6c-0.5-0.2-1.1-1.1-1.7-2.5c-0.6-1.5-0.7-2.3-0.3-2.4c1.1-0.4,2.7-1.5,4.8-3.1c2.1-1.7,3.2-2.9,3.1-3.6
				c-0.5-3.2-1.5-6.9-3.1-11l-9.2-23.7c-1.8-4.6-3.8-7.4-6-8.4c-1.2-0.7-2.5-1-4.1-0.9c-1.6,0.1-2.9,0.2-3.9,0.5
				c-1,0.3-1.5,0.3-1.6,0.1c-1.1-2.8-1.4-4.4-0.8-4.7c4.3-2.1,11.5-6.6,21.6-13.4c0.1-0.1,0.2-0.3,0.4-0.4c0.2-0.1,0.4-0.2,0.7-0.4
				c0.5-0.2,1,0,1.6,0.6c0.6,0.6,0.9,1.1,0.9,1.5c0.7,2.9,1.2,4.7,1.5,5.5c0.2,0.4,0.3,0.6,0.6,0.6c0.1,0,0.3-0.3,0.6-0.7
				c1.4-3.2,3.6-6.4,6.6-9.6C471.3,610.7,474.7,608.3,478.5,606.9z"/>
			<path class="st29" d="M583.6,565.9c4.6-1.8,9-2.5,13.3-2.1c4.3,0.4,8,1.6,11.1,3.6s5.8,4.2,8,6.8c2.2,2.5,3.9,5.2,4.9,7.9
				c0.8,2.1,1,3.6,0.5,4.4c-0.5,0.8-1.9,1.7-4.1,2.5l-34.8,13.6c-0.7,0.3-0.9,0.7-0.7,1.3c1.4,3.5,3.3,6.6,5.9,9.5
				c2.5,2.8,5.8,4.8,9.8,6.1c4,1.2,8.1,1,12.4-0.6c1.5-0.6,2.8-1.2,4.1-1.9c1.3-0.7,2.5-1.4,3.5-2.2c1-0.8,1.9-1.5,2.7-2.1
				c0.8-0.6,1.5-1.4,2.2-2.4c0.7-0.9,1.2-1.6,1.5-2c0.3-0.4,1-1.4,2.1-3.1c0.2,0,0.6,0.2,1.1,0.6c0.5,0.4,0.8,0.8,1,1.3
				c0.4,1.1,0.5,2.1,0.2,3.1c-0.4,3.2-2.3,6.9-5.5,11.2c-3.2,4.3-7.5,7.5-12.9,9.5c-8.4,3.3-16.9,3-25.5-0.9
				c-8.6-3.9-14.6-10.3-18.1-19.2c-3.8-9.8-4.1-18.9-0.8-27.2C568.8,575.2,574.9,569.3,583.6,565.9z M585.2,573
				c-2.3,0.9-4.2,2.4-5.5,4.5c-1.3,2.1-2.1,4.3-2.3,6.6c-0.2,2.3-0.2,4.4,0,6.3c0.2,1.9,0.6,3.4,1,4.6c0.3,0.7,0.7,0.9,1.3,0.7
				l23.6-9.2c0.9-0.3,1-1.2,0.5-2.7c-1.3-3.4-3.8-6.4-7.5-9C592.7,572.1,589,571.5,585.2,573z"/>
			<path class="st29" d="M664.8,534.2c12.5-4.9,22.7,2.6,30.4,22.5l5.4,13.8c2.3,5.9,4.3,10.2,6.1,12.7c0.5,0.6,2.1,0.8,4.8,0.6
				c2.8-0.2,4.6-0.5,5.4-0.9c0.3-0.1,0.7,0.5,1.3,1.9c0.6,1.4,0.9,2.4,0.9,2.9c-0.6,0.1-3.2,0.9-7.9,2.4s-8.1,2.6-10.3,3.5
				c-2.3,0.9-5.5,2.3-9.5,4.2s-6.4,3.1-7.3,3.5c-0.5-0.2-1.1-1.1-1.7-2.5c-0.6-1.5-0.7-2.3-0.3-2.4c1.1-0.4,2.6-1.4,4.5-3
				c1.9-1.6,2.8-2.7,2.7-3.5c-0.4-3.2-1.4-6.9-3-11.1l-5.4-13.8c-3.1-8.1-6.4-13.3-9.9-15.6c-3.4-2.4-7.5-2.6-12.3-0.7
				c-3.1,1.2-5.5,3.1-7.2,5.7c-1.7,2.6-2.1,4.9-1.4,6.8l9.8,25c2.3,5.9,4.3,10.2,6.1,12.7c0.5,0.6,2,0.8,4.7,0.6
				c2.7-0.2,4.4-0.4,5.2-0.8c0.4-0.2,0.9,0.5,1.5,1.9c0.6,1.4,0.9,2.4,0.9,2.9c-0.8,0.2-3.4,1-7.9,2.4c-4.4,1.4-7.8,2.5-10,3.4
				c-2.3,0.9-5.6,2.4-9.9,4.4c-4.3,2-6.8,3.2-7.6,3.6c-0.5-0.2-1.1-1.1-1.7-2.5c-0.6-1.5-0.7-2.3-0.3-2.4c1.2-0.5,2.8-1.5,4.9-3.2
				c2.1-1.7,3.1-2.9,3-3.6c-0.5-3.2-1.5-6.9-3.1-11l-9.2-23.7c-1.8-4.6-3.8-7.4-6-8.4c-1.2-0.7-2.5-1-4.1-0.9
				c-1.6,0.1-2.9,0.2-3.8,0.5c-1,0.3-1.5,0.3-1.6,0.1c-1.1-2.8-1.4-4.4-1-4.7c4.3-2.1,11.6-6.6,21.7-13.5c0.1-0.1,0.2-0.3,0.3-0.4
				c0.1-0.1,0.3-0.2,0.4-0.2c0.1-0.1,0.3-0.1,0.4-0.1c0.4-0.2,0.9,0.1,1.4,0.6c0.6,0.6,0.9,1,1.1,1.4c0.7,2.9,1.2,4.7,1.5,5.5
				c0.2,0.4,0.3,0.6,0.4,0.7c0.1,0,0.3-0.3,0.6-0.7c1.4-3.2,3.6-6.4,6.6-9.6S661,535.7,664.8,534.2z"/>
			<path class="st29" d="M714.7,526.6l-8.9,3.5c-0.7,0.3-1.5-0.9-2.5-3.4c-0.3-0.7-0.4-1.1-0.4-1.4c3.2-3.3,5.9-7.3,8.2-12.1
				c0.8-1.8,1.6-3.7,2.5-5.9c0.9-2.2,1.8-4.9,2.9-8.3c1-0.4,1.9-0.6,2.9-0.7c1-0.1,1.5,0,1.6,0.3l5.6,14.3c2.5-1,6.1-2.3,10.6-4
				c4.5-1.7,6.9-2.6,7.2-2.7c0.8-0.3,1.3,0,1.7,0.9c0.9,2.3,1.3,4.7,1,7l-17.5,6.8l13.7,35.1c1.5,3.9,3.5,6.5,5.9,7.9
				c2.4,1.4,5.1,1.5,8,0.4c1-0.4,1.9-0.9,2.9-1.6c1-0.7,1.7-1.3,2.3-1.8c0.6-0.6,1.1-1.1,1.6-1.6c0.5-0.5,0.8-0.8,0.8-0.8
				c0.3-0.2,1,0,1.8,0.8c0.9,0.8,1.3,1.3,1.3,1.7c-0.1,1.6-1.5,4-4.3,7.1c-2.8,3.2-6,5.4-9.4,6.7c-5,2-10,2-14.8,0.1
				c-4.8-1.9-8.5-6.2-11.2-13L714.7,526.6z"/>
			<path class="st29" d="M776.9,490.4c5.4-2.1,11.4-3.5,17.9-4.1c2.7,4,5.3,9.2,8,15.7c0.3,0.8-0.2,1.4-1.4,1.9
				c-2.1,0.8-3.5,0.9-3.9,0.2c-2-3.1-4.6-5.5-7.7-7c-3.1-1.5-6.5-1.6-10.2-0.1c-2.8,1.1-4.8,2.6-5.9,4.5c-1.1,1.9-1.2,4-0.3,6.3
				c0.5,1.4,1.3,2.5,2.2,3.4c1,0.9,2.2,1.6,3.8,2.1c1.6,0.5,3,0.9,4.1,1.1c1.1,0.2,2.8,0.5,5.1,0.7c0.8,0.1,1.4,0.2,1.7,0.2
				c0.2,0,1.1,0.1,2.6,0.3c1.5,0.2,2.5,0.3,2.9,0.4c0.4,0.1,1.4,0.2,2.9,0.5c1.5,0.3,2.6,0.5,3.2,0.7c0.6,0.2,1.6,0.5,2.9,0.9
				c1.3,0.4,2.3,0.8,3,1.2c0.7,0.4,1.5,0.9,2.6,1.6c1.1,0.6,1.9,1.3,2.6,2c0.6,0.7,1.2,1.5,1.9,2.5c0.6,0.9,1.2,1.9,1.6,3
				c2.4,6.1,1.9,11.9-1.4,17.2c-3.3,5.4-8.3,9.4-15,12c-6,2.3-12.8,3.4-20.4,3.2c-1.1-1.5-2.7-4-4.6-7.5c-1.9-3.5-3.3-6.2-4-8.1
				c0.4-0.7,1-1.2,1.8-1.5c2.2-0.9,3.5-0.9,3.9-0.2c2.4,3.8,5.6,6.3,9.6,7.6c4,1.3,7.8,1.2,11.4-0.2c2.7-1.1,4.7-2.6,5.9-4.6
				c1.2-2,1.3-4.4,0.3-7c-0.4-1-0.9-1.8-1.4-2.6c-0.6-0.7-1.3-1.4-2.3-1.9c-1-0.6-1.8-1-2.5-1.4c-0.6-0.4-1.8-0.7-3.4-0.9
				c-1.6-0.3-2.8-0.4-3.6-0.5c-0.8-0.1-2.2-0.2-4.4-0.5c-2.2-0.2-3.6-0.4-4.5-0.5c-5.4-0.6-9.8-1.8-13.4-3.8c-3.5-1.9-6.1-4.9-7.7-9
				c-2.3-5.9-1.8-11.4,1.7-16.4C765.8,496.6,770.7,492.8,776.9,490.4z"/>
		</g>
	</g>
</g>
<g id="Layer_2">
</g>
</svg>
