<svg id="Layer_1" data-name="Layer 1" xmlns="http://www.w3.org/2000/svg" viewBox="0 0 606.35 162.17"><defs><style>.cls-1{fill:#fff;}</style></defs><title>subtitle</title><path class="cls-1" d="M67.57,12a4.69,4.69,0,0,1,1.83-3.78,6.5,6.5,0,0,1,4.2-1.58,10.44,10.44,0,0,1,1.46.07q.63.08,1.74.35l1.54.35A26.48,26.48,0,0,1,78.74,12a.32.32,0,0,1-.35.27q-.8,0-.86-.26a5.23,5.23,0,0,0-1.31-2.66,3.38,3.38,0,0,0-2.69-1.28,2.74,2.74,0,0,0-2.09.8,2.91,2.91,0,0,0-.7,2.09,3.37,3.37,0,0,0,.11.85,2.1,2.1,0,0,0,.43.78l.51.63a3.53,3.53,0,0,0,.75.63l.75.53q.19.15.9.57a9.07,9.07,0,0,0,.85.48,10.72,10.72,0,0,0,1,.63q.82.48,1.15.7t1,.75a4.29,4.29,0,0,1,.92,1,6.07,6.07,0,0,1,.53,1.2,5,5,0,0,1,.26,1.56A4.83,4.83,0,0,1,78,25.22a6.88,6.88,0,0,1-4.43,1.6,27.67,27.67,0,0,1-5.48-.77,26,26,0,0,1-.52-2.68,20,20,0,0,1-.25-2.12q0-.24.47-.24.77,0,.87.23a5.78,5.78,0,0,0,.43,1.17,8.63,8.63,0,0,0,.83,1.36,3.91,3.91,0,0,0,1.41,1.17,4.18,4.18,0,0,0,2,.44,3.33,3.33,0,0,0,2.31-.86A3.2,3.2,0,0,0,76.51,22a2.59,2.59,0,0,0-.21-1,3.43,3.43,0,0,0-.46-.8,4.33,4.33,0,0,0-.75-.7q-.5-.38-.82-.58l-1-.57-.91-.51a2,2,0,0,0-.33-.23l-1.32-.82q-.45-.29-1.15-.86a5.87,5.87,0,0,1-1.07-1.07,5.61,5.61,0,0,1-.65-1.24A4.48,4.48,0,0,1,67.57,12Z"/><path class="cls-1" d="M90.37,13.21a6,6,0,0,1,3.4.94,6.23,6.23,0,0,1,3,5.26,7,7,0,0,1-6.9,7.16,6.9,6.9,0,0,1-2.12-.39c-.08,0-.12.14-.11.42l0,2a10.69,10.69,0,0,0,.27,2.67q0,.24.79.45a4.52,4.52,0,0,0,1,.21q.09,0,.11.43a2.66,2.66,0,0,1,0,.55l-1.59-.07q-1.38-.07-2-.07t-2.09.11L82.52,33a1.06,1.06,0,0,1-.1-.55q0-.43.08-.43a4.14,4.14,0,0,0,1.08-.24q.73-.23.81-.47a10.81,10.81,0,0,0,.15-2.14l-.13-11.36a2.89,2.89,0,0,0-.5-1.93,1.34,1.34,0,0,0-.66-.42,3.57,3.57,0,0,0-.72-.16c-.2,0-.3,0-.3-.09q0-.86.17-.89a22.86,22.86,0,0,0,4.42-.88l.56-.16q.12,0,.13.62a1.69,1.69,0,0,1-.06.36,5.92,5.92,0,0,1,1.31-.71A4.26,4.26,0,0,1,90.37,13.21Zm-.69,1.58a2.25,2.25,0,0,0-1.58.58,2,2,0,0,0-.59,1.52L87.58,23a1.83,1.83,0,0,0,.82,1.55,2.89,2.89,0,0,0,1.73.56,2.79,2.79,0,0,0,2.29-1.28,5.74,5.74,0,0,0,.9-3.52,7.68,7.68,0,0,0-1-4A2.93,2.93,0,0,0,89.68,14.8Z"/><path class="cls-1" d="M105.32,13a5.51,5.51,0,0,1,2.5.52,4.7,4.7,0,0,1,1.74,1.38,6.92,6.92,0,0,1,1,1.74,5.13,5.13,0,0,1,.35,1.73q0,.65-.21.82a1.69,1.69,0,0,1-.9.17l-7.1.08c-.14,0-.21.06-.21.18a5.77,5.77,0,0,0,.41,2.08,4.09,4.09,0,0,0,1.34,1.74,3.5,3.5,0,0,0,2.25.72,8,8,0,0,0,.86-.06,4.42,4.42,0,0,0,.77-.16l.62-.2a2.53,2.53,0,0,0,.55-.27l.4-.26.59-.41a.48.48,0,0,1,.15.18.57.57,0,0,1,.09.3.91.91,0,0,1-.17.57,4.84,4.84,0,0,1-1.73,1.63,5.51,5.51,0,0,1-2.93.84,6,6,0,0,1-4.48-1.86,6.41,6.41,0,0,1-1.93-4.63,6.88,6.88,0,0,1,1.68-4.9A5.76,5.76,0,0,1,105.32,13Zm-.19,1.37a2.1,2.1,0,0,0-1.27.43,2.8,2.8,0,0,0-.85,1,5.73,5.73,0,0,0-.42,1.12,3.63,3.63,0,0,0-.12.88q0,.21.18.21l4.82-.06c.18,0,.27-.15.26-.45a3.85,3.85,0,0,0-.72-2.1A2.13,2.13,0,0,0,105.13,14.38Z"/><path class="cls-1" d="M119.34,12.84a3.65,3.65,0,0,1,2.78.93,4.76,4.76,0,0,1,1,3.3l.07,5.86a1.36,1.36,0,0,0,.28.9.89.89,0,0,0,.72.3,1.85,1.85,0,0,0,1-.4c.12,0,.18.15.18.32a1.77,1.77,0,0,1-.17.89,7.33,7.33,0,0,1-1.18.76,3.1,3.1,0,0,1-1.42.4,2.17,2.17,0,0,1-1.34-.49,2.44,2.44,0,0,1-.87-1.09l-.22.2q-.19.17-.53.41a8.63,8.63,0,0,1-.77.48,4.73,4.73,0,0,1-1,.41,4.31,4.31,0,0,1-1.17.18,3.55,3.55,0,0,1-2.43-.79,2.82,2.82,0,0,1-1-2.23,2.74,2.74,0,0,1,.33-1.34,3.55,3.55,0,0,1,.81-1,6.1,6.1,0,0,1,1.27-.8,12.28,12.28,0,0,1,1.38-.6l1.48-.48,1.26-.4a.47.47,0,0,0,.26-.48l0-1.63a2.55,2.55,0,0,0-.49-1.63,1.55,1.55,0,0,0-1.29-.58,1.8,1.8,0,0,0-1.39.57,2.23,2.23,0,0,0-.49,1.57,1,1,0,0,1-.44.88,1.85,1.85,0,0,1-1,.29,1.68,1.68,0,0,1-1.55-.69q0-1.43,1.92-2.7A7.45,7.45,0,0,1,119.34,12.84Zm-1.2,11.43a2.3,2.3,0,0,0,1.38-.43,1.17,1.17,0,0,0,.57-1l0-3q-.21.09-.87.31t-1,.37a8,8,0,0,0-.83.43,1.79,1.79,0,0,0-.69.66,1.64,1.64,0,0,0-.21.83,1.83,1.83,0,0,0,.49,1.39A1.71,1.71,0,0,0,118.14,24.27Z"/><path class="cls-1" d="M139.9,14.59Q139.31,15,138,16a21,21,0,0,0-2.34,2.11q.87.91,2.2,2.38t2.2,2.41a14.22,14.22,0,0,0,1.2,1.21,3.75,3.75,0,0,0,1.15.58,3.61,3.61,0,0,0,1,.23c.08,0,.12.17.13.5a1.78,1.78,0,0,1,0,.42l-3.48-.11-1.14,0-1.28.09-1.11.09a.8.8,0,0,1-.12-.53c0-.28,0-.42.11-.42a2.11,2.11,0,0,0,.68-.14q.39-.14.38-.29s0-.06,0-.06l-4.4-4.79-.36.09,0,1.84a12.16,12.16,0,0,0,.27,2.67q.06.21.81.42a4.34,4.34,0,0,0,1,.21c.06,0,.1.14.11.43a1.71,1.71,0,0,1,0,.58l-1.58-.1q-1.37-.07-2.05-.07t-2.06.11l-1.59.14a.88.88,0,0,1-.13-.56q0-.45.11-.45a4.15,4.15,0,0,0,1.08-.24q.73-.23.78-.44a9.71,9.71,0,0,0,.18-2.17l-.15-12.34a11.74,11.74,0,0,0-.17-2q-.16-.47-1.55-.46h-.27c-.12,0-.18-.16-.18-.47s.05-.48.17-.48q.92-.1,1.75-.26t1.38-.31q.55-.15.95-.31l.84-.31h.06a.32.32,0,0,1,.24.16.83.83,0,0,1,.15.31,9.57,9.57,0,0,0-.32,2.8l.12,9.93a2.68,2.68,0,0,0,.89-.34q.62-.57,1.34-1.19l1-.89q.32-.27.65-.59a2.65,2.65,0,0,0,.42-.5.69.69,0,0,0,.1-.36c0-.22-.23-.35-.67-.39a2.93,2.93,0,0,1-.67-.1,1.31,1.31,0,0,1-.1-.52c0-.21,0-.32.12-.34l2.88,0q.8,0,3.15-.16a.47.47,0,0,1,.15.33,1.35,1.35,0,0,1,0,.45c0,.14-.07.21-.13.21A3.9,3.9,0,0,0,139.9,14.59Z"/><path class="cls-1" d="M151.47,21.38a10.93,10.93,0,0,0,.27,2.67c0,.14.31.28.81.42a4.37,4.37,0,0,0,1,.21c.08,0,.13.14.14.43a1.71,1.71,0,0,1,0,.58l-1.59-.1q-1.38-.07-2-.07t-2.09.11l-1.56.14a.87.87,0,0,1-.12-.56c0-.3,0-.45.11-.45a4.31,4.31,0,0,0,1.07-.24q.74-.23.8-.44a9.77,9.77,0,0,0,.18-2.17l-.06-4.85a2.82,2.82,0,0,0-.5-1.9,1.65,1.65,0,0,0-.69-.44,3.12,3.12,0,0,0-.72-.17c-.2,0-.3,0-.3-.09q0-.86.17-.89a22.91,22.91,0,0,0,2.4-.38,23.15,23.15,0,0,0,2.34-.56l.24-.06q.15,0,.24.21a.55.55,0,0,1,.06.33q-.22,1.91-.21,2.56ZM148.24,9a1.81,1.81,0,0,1-.55-1.3,1.84,1.84,0,0,1,3.69,0,1.81,1.81,0,0,1-.52,1.31,1.83,1.83,0,0,1-2.62,0Z"/><path class="cls-1" d="M165.63,12.3q3.83,0,3.91,6l0,2.82a12.48,12.48,0,0,0,.24,2.67q.06.21.82.42a4.56,4.56,0,0,0,1,.21c.06,0,.1.14.11.43a1.7,1.7,0,0,1,0,.58q-.18,0-1.56-.1t-2.07-.06q-.71,0-2,.11l-1.53.14a.86.86,0,0,1-.13-.56c0-.3,0-.45.11-.45a3.53,3.53,0,0,0,1-.23c.44-.15.68-.3.72-.44a8.55,8.55,0,0,0,.21-2.17l0-2.82a6.45,6.45,0,0,0-.71-3.44,2.39,2.39,0,0,0-2.14-1A2.75,2.75,0,0,0,162,15a1.43,1.43,0,0,0-.7,1.12l.06,5.11a12.49,12.49,0,0,0,.24,2.67c0,.14.31.28.79.42a4.27,4.27,0,0,0,1,.21c.08,0,.13.14.14.43a1.71,1.71,0,0,1,0,.58l-1.56-.1q-1.33-.07-2-.07c-.48,0-1.17,0-2.06.11l-1.59.14a.87.87,0,0,1-.12-.56c0-.3,0-.45.11-.45a4.17,4.17,0,0,0,1.08-.24q.73-.23.78-.44a9.71,9.71,0,0,0,.18-2.17L158.19,17a2.83,2.83,0,0,0-.5-1.9,1.43,1.43,0,0,0-.67-.44,3.4,3.4,0,0,0-.72-.17c-.19,0-.28,0-.28-.09,0-.57,0-.87.14-.89a42.12,42.12,0,0,0,4.78-.95l.07,0,.09,0h.07q.12,0,.21.21a.91.91,0,0,1,.09.33,10,10,0,0,0-.11,1.07.24.24,0,0,0,0,.15.45.45,0,0,0,.15-.09,6.58,6.58,0,0,1,1.81-1.27A5.2,5.2,0,0,1,165.63,12.3Z"/><path class="cls-1" d="M179.86,12.19a9.42,9.42,0,0,1,2.47.36,9.15,9.15,0,0,0,2.38.36l1.7,0s.11.13.21.38a1.82,1.82,0,0,1,.16.59c0,.28-.05.42-.17.42l-1.93,0c-.08,0-.12,0-.12.09s.09.28.28.77a4.24,4.24,0,0,1,.28,1.42,4.3,4.3,0,0,1-1.44,3.18A5.09,5.09,0,0,1,180,21.22a12.3,12.3,0,0,1-1.84-.1,1.61,1.61,0,0,0-.65.56,1.27,1.27,0,0,0-.29.73.61.61,0,0,0,.29.5,2,2,0,0,0,.88.29q.6.08,1,.11l1.19,0h.45a10.5,10.5,0,0,1,4.36.77,2.34,2.34,0,0,1,1.41,2.17,4.68,4.68,0,0,1-2.09,3.89,8.13,8.13,0,0,1-5,1.69,7.72,7.72,0,0,1-3.8-.79,2.67,2.67,0,0,1-1.65-2.42,2.31,2.31,0,0,1,.83-1.68,4.91,4.91,0,0,1,1.82-1.15,3.39,3.39,0,0,1-1.44-.89,2.16,2.16,0,0,1-.67-1.55q0-1.28,2.17-2.67a3.94,3.94,0,0,1-1.62-1.51,4.38,4.38,0,0,1-.77-2.41,4,4,0,0,1,1.51-3.35A5.91,5.91,0,0,1,179.86,12.19Zm4.29,15.5q0-1-1.52-1.36a18.88,18.88,0,0,0-4-.29l-.15,0-.15.09q-.39.15-.59.26a2.54,2.54,0,0,0-.47.33,1.44,1.44,0,0,0-.4.52,1.74,1.74,0,0,0-.12.72,2.08,2.08,0,0,0,1.15,1.77,4.63,4.63,0,0,0,2.54.68,4.49,4.49,0,0,0,2.71-.81A2.32,2.32,0,0,0,184.15,27.69Zm-6.49-11.16a4.7,4.7,0,0,0,.62,2.45,1.85,1.85,0,0,0,1.68,1,1.77,1.77,0,0,0,1.61-.87,3.94,3.94,0,0,0,.5-2.1,4.89,4.89,0,0,0-.62-2.55,1.9,1.9,0,0,0-1.74-1,1.68,1.68,0,0,0-1.56.94A4.31,4.31,0,0,0,177.65,16.52Z"/><path class="cls-1" d="M215.07,14a.85.85,0,0,0-.24-.61,1.3,1.3,0,0,0-.61-.35,5.4,5.4,0,0,0-.69-.14,4.28,4.28,0,0,0-.61,0h-.12c-.08,0-.12-.15-.14-.44s0-.48.07-.54q.39,0,1.58.07t1.9.07c.42,0,.95,0,1.59-.11s1.11-.1,1.41-.11a1.94,1.94,0,0,1,.07.5q0,.45-.11.45a3.37,3.37,0,0,0-1.17.39,1.82,1.82,0,0,0-1,.92l-4.28,10.55a1.17,1.17,0,0,1-.4.44,1,1,0,0,1-.58.2.37.37,0,0,1-.39-.2l-3.72-8.16-3.09,7.8a1.58,1.58,0,0,1-.34.42.9.9,0,0,1-.64.25.44.44,0,0,1-.42-.2q-.7-1.54-1.67-3.74t-1.76-3.89q-.79-1.69-1.83-3.67a1.37,1.37,0,0,0-.78-.59,2.86,2.86,0,0,0-1-.2q-.12,0-.12-.47t.11-.51c.2,0,.7,0,1.5.07s1.43.07,1.89.07,1.13,0,2-.11l1.54-.11a1.63,1.63,0,0,1,.07.53c0,.26,0,.4-.08.42a3.52,3.52,0,0,0-1,.22c-.43.14-.64.35-.63.63q0,.06,3.05,6.8.32-.84.74-1.9l.63-1.61.43-1.12q.22-.57.3-.85a1.57,1.57,0,0,0,.08-.37,2.16,2.16,0,0,0-.4-1.18,1.41,1.41,0,0,0-.66-.47,2.37,2.37,0,0,0-1.07-.17c-.08,0-.12-.14-.12-.43s0-.46.11-.52.71,0,1.47.07,1.38.07,1.86.07,1.08,0,1.93-.11l1.51-.11a1.42,1.42,0,0,1,.05.55c0,.29,0,.43-.1.43q-1.51,0-1.5,1.06a47.65,47.65,0,0,0,2.87,6.57q.46-1.25,1.14-2.94t1-2.51A4,4,0,0,0,215.07,14Z"/><path class="cls-1" d="M226.94,20.49a11,11,0,0,0,.27,2.67q.06.21.81.42a4.37,4.37,0,0,0,1,.21c.08,0,.13.14.14.43a1.71,1.71,0,0,1,0,.58l-1.59-.1q-1.38-.07-2-.07t-2.09.11l-1.56.14a.87.87,0,0,1-.13-.56c0-.3,0-.45.11-.45a4.33,4.33,0,0,0,1.07-.24q.74-.23.8-.44a9.71,9.71,0,0,0,.18-2.17l-.06-4.85a2.83,2.83,0,0,0-.5-1.9,1.66,1.66,0,0,0-.69-.44,3.11,3.11,0,0,0-.72-.17c-.2,0-.3,0-.3-.09q0-.86.17-.89a22.85,22.85,0,0,0,2.4-.38,23.29,23.29,0,0,0,2.34-.56l.24-.06c.1,0,.18.07.24.21a.55.55,0,0,1,.06.33,25.6,25.6,0,0,0-.21,2.56ZM223.7,8.09a1.81,1.81,0,0,1-.55-1.3,1.76,1.76,0,0,1,.52-1.3,1.84,1.84,0,0,1,3.17,1.26,1.82,1.82,0,0,1-.52,1.31,1.83,1.83,0,0,1-2.62,0Z"/><path class="cls-1" d="M233.12,13.58l-1.81,0c-.14,0-.21-.25-.22-.77a.73.73,0,0,1,0-.27,8.34,8.34,0,0,0,2.27-1.6l.84-.89q.45-.5,1.07-1.28a2.12,2.12,0,0,1,.57.07c.18,0,.27.1.27.16l0,2.91h3.63c.16,0,.24.09.24.26a2.88,2.88,0,0,1-.28,1.31l-3.57,0,.08,7.16a2.82,2.82,0,0,0,.53,1.81,1.7,1.7,0,0,0,1.4.61,2.83,2.83,0,0,0,.62-.08,3.24,3.24,0,0,0,.53-.17l.38-.18.21-.09c.08,0,.17.07.27.26s.14.32.12.38a2.72,2.72,0,0,1-1.25,1,4.68,4.68,0,0,1-2.12.57,3.75,3.75,0,0,1-2.64-1,4,4,0,0,1-1.12-3.06Z"/><path class="cls-1" d="M252.41,11.27q3.8,0,3.87,5.81l0,3.06a10.92,10.92,0,0,0,.27,2.67q0,.21.79.42a4.56,4.56,0,0,0,1,.21c.06,0,.1.14.11.43a3.23,3.23,0,0,1,0,.58l-1.59-.1q-1.38-.07-2-.07t-2,.11l-1.56.14a1.1,1.1,0,0,1-.1-.56c0-.3,0-.45.08-.45a3.56,3.56,0,0,0,1-.23q.67-.23.75-.44a11.25,11.25,0,0,0,.15-2.17l0-2.91a6.22,6.22,0,0,0-.71-3.4,2.43,2.43,0,0,0-2.14-.91,2.84,2.84,0,0,0-1.63.52,1.4,1.4,0,0,0-.73,1.14l.06,5.11a10.92,10.92,0,0,0,.27,2.67q.06.21.79.42a4.23,4.23,0,0,0,1,.21c.06,0,.1.14.11.43a1.71,1.71,0,0,1,0,.58l-1.56-.1q-1.32-.07-2-.07t-2.07.11l-1.59.14a.86.86,0,0,1-.13-.56c0-.3,0-.45.11-.45A4.17,4.17,0,0,0,244,23.4q.73-.23.78-.44a9.59,9.59,0,0,0,.18-2.14l-.15-12.37a11.67,11.67,0,0,0-.17-2Q244.53,6,243.13,6h-.27q-.18,0-.18-.47t.17-.48q.92-.1,1.75-.26T246,4.45q.55-.15.95-.31l.84-.31h.06a.32.32,0,0,1,.24.16.83.83,0,0,1,.15.31,9.59,9.59,0,0,0-.32,2.8l.07,6c0,.12,0,.18.12.18s.06,0,.12-.09A5.65,5.65,0,0,1,250,11.88,5.48,5.48,0,0,1,252.41,11.27Z"/><path class="cls-1" d="M278.66,4.48,285.08,20q.46,1.18.92,2.16a1.45,1.45,0,0,0,1,.7,4,4,0,0,0,1.13.25q.12,0,.13.53a1,1,0,0,1-.05.45l-3.75-.13-3.86.22a.83.83,0,0,1-.12-.55c0-.29,0-.43.11-.43a3.81,3.81,0,0,0,1-.19q.62-.19.74-.42a.84.84,0,0,0,.08-.39,6.85,6.85,0,0,0-.59-2l-1.07-2.75a.33.33,0,0,0-.21-.12q-1,0-2.56,0t-3.39.13c-.12,0-.18,0-.18.12l-1.1,2.78a8.43,8.43,0,0,0-.54,1.94.66.66,0,0,0,.33.59,3,3,0,0,0,.94.32,5.08,5.08,0,0,0,.91.14c.06,0,.09.16.09.42a1.92,1.92,0,0,1-.05.57l-1.4-.07q-1.25-.07-2-.07t-1.83.1l-1.5.12a.63.63,0,0,1-.12-.44q0-.53.05-.54a4.3,4.3,0,0,0,1.14-.27,1.84,1.84,0,0,0,1-.59,14.08,14.08,0,0,0,1.1-2.33L276.72,6.7a6.46,6.46,0,0,1,1.07-2.15.76.76,0,0,1,.5-.21A.49.49,0,0,1,278.66,4.48Zm-3.44,11.1q1,.08,2.14.06t2.44-.12l.06-.12-2.33-5.92-2.37,6Q275.16,15.58,275.22,15.58Z"/><path class="cls-1" d="M297.39,10.68a5.11,5.11,0,0,1,2.18.39c.1,0,.15-.16.14-.48l0-2.79a10.27,10.27,0,0,0-.2-2q-.15-.47-1.55-.46h-.24q-.18,0-.18-.47t.17-.48q.89-.1,1.74-.26t1.39-.31q.55-.15.95-.31l.61-.23.24-.08h.06c.08,0,.16.05.24.16a.54.54,0,0,1,.12.31,11.43,11.43,0,0,0-.26,2.8l.15,13.08a10.84,10.84,0,0,0,.21,2.2.44.44,0,0,0,.3.32,1.81,1.81,0,0,0,.57.14l.57,0h.3s.06.16.06.36q0,.59-.17.6-.42,0-1.05.13l-1.25.21-1.16.22L300,24q-.18,0-.18-.5V23a.13.13,0,0,0,0-.12s-.06,0-.07,0A5,5,0,0,1,296.66,24a5.75,5.75,0,0,1-4.21-1.72,6,6,0,0,1-1.84-4.42,7,7,0,0,1,2-5.06A6.51,6.51,0,0,1,297.39,10.68Zm-.25,1.43a2.6,2.6,0,0,0-2.36,1.37,7,7,0,0,0-.76,3.61A7.19,7.19,0,0,0,295,21a2.92,2.92,0,0,0,2.6,1.38,2.47,2.47,0,0,0,1.63-.54,1.65,1.65,0,0,0,.61-1.33l-.07-6.24a2.07,2.07,0,0,0-.11-.62,2.78,2.78,0,0,0-.37-.69,1.9,1.9,0,0,0-.81-.61A3.16,3.16,0,0,0,297.14,12.11Z"/><path class="cls-1" d="M315.78,10.52a3,3,0,0,1,2.45,1q0,2.53-1.4,2.54a1.77,1.77,0,0,1-1.17-.58,1.86,1.86,0,0,0-1.29-.58,1.59,1.59,0,0,0-1.43,1,4,4,0,0,0-.5,2l0,3.72a12.49,12.49,0,0,0,.24,2.67c0,.14.31.28.79.42a4.19,4.19,0,0,0,1,.21c.06,0,.1.14.11.43a3.23,3.23,0,0,1,0,.58l-1.58-.1q-1.34-.07-2-.07t-2.07.11l-1.59.14a.87.87,0,0,1-.13-.56c0-.3,0-.45.11-.45a4.16,4.16,0,0,0,1.08-.24q.72-.23.78-.44a9.71,9.71,0,0,0,.18-2.17l-.06-4.85a2.83,2.83,0,0,0-.5-1.9,1.44,1.44,0,0,0-.67-.44,3.37,3.37,0,0,0-.72-.17c-.19,0-.28,0-.28-.09q0-.86.14-.89a42.1,42.1,0,0,0,4.78-.95l.24-.06c.08,0,.15.07.21.21a.71.71,0,0,1,.08.34l0,.42c0,.19,0,.39-.07.6a4,4,0,0,0,0,.4,5.45,5.45,0,0,1,1.44-1.46A3.25,3.25,0,0,1,315.78,10.52Z"/><path class="cls-1" d="M326.17,19.32a11,11,0,0,0,.27,2.67q.06.21.81.42a4.36,4.36,0,0,0,1,.21c.08,0,.13.14.14.43a1.71,1.71,0,0,1,0,.58l-1.59-.1q-1.38-.07-2-.07t-2.09.11l-1.56.14a.87.87,0,0,1-.13-.56c0-.3,0-.45.11-.45a4.31,4.31,0,0,0,1.07-.24q.74-.23.8-.44a9.71,9.71,0,0,0,.18-2.17L323.05,15a2.84,2.84,0,0,0-.5-1.9,1.66,1.66,0,0,0-.69-.44,3.13,3.13,0,0,0-.72-.17c-.2,0-.3,0-.3-.09q0-.86.17-.89a22.86,22.86,0,0,0,2.4-.38,23.25,23.25,0,0,0,2.34-.56l.24-.06c.1,0,.18.07.24.21a.55.55,0,0,1,.06.33,25.6,25.6,0,0,0-.21,2.56Zm-3.24-12.4a1.8,1.8,0,0,1-.55-1.3,1.76,1.76,0,0,1,.52-1.3,1.84,1.84,0,0,1,3.17,1.26,1.82,1.82,0,0,1-.52,1.31,1.83,1.83,0,0,1-2.62,0Z"/><path class="cls-1" d="M336.84,10.27a3.65,3.65,0,0,1,2.78.93,4.75,4.75,0,0,1,1,3.3l.07,5.86a1.35,1.35,0,0,0,.28.9.89.89,0,0,0,.72.3,1.85,1.85,0,0,0,1-.4c.12,0,.18.15.18.32a1.77,1.77,0,0,1-.17.89,7.43,7.43,0,0,1-1.18.76,3.1,3.1,0,0,1-1.42.4,2.17,2.17,0,0,1-1.34-.49,2.43,2.43,0,0,1-.87-1.09l-.22.2q-.19.17-.53.41a8.53,8.53,0,0,1-.77.48,4.73,4.73,0,0,1-1,.41,4.31,4.31,0,0,1-1.17.18,3.55,3.55,0,0,1-2.43-.79,2.82,2.82,0,0,1-1-2.23,2.74,2.74,0,0,1,.33-1.34,3.56,3.56,0,0,1,.81-1,6.1,6.1,0,0,1,1.27-.8,12.32,12.32,0,0,1,1.38-.6l1.48-.48,1.26-.4a.47.47,0,0,0,.26-.48l0-1.63a2.56,2.56,0,0,0-.5-1.63,1.55,1.55,0,0,0-1.28-.58,1.81,1.81,0,0,0-1.39.57,2.23,2.23,0,0,0-.49,1.57,1,1,0,0,1-.44.88,1.85,1.85,0,0,1-1,.29,1.68,1.68,0,0,1-1.55-.69q0-1.43,1.92-2.7A7.46,7.46,0,0,1,336.84,10.27Zm-1.2,11.43a2.3,2.3,0,0,0,1.38-.43,1.18,1.18,0,0,0,.57-1l0-3q-.21.09-.87.31t-1,.37a8.16,8.16,0,0,0-.83.43,1.8,1.8,0,0,0-.69.66,1.63,1.63,0,0,0-.21.83,1.83,1.83,0,0,0,.49,1.39A1.71,1.71,0,0,0,335.64,21.71Z"/><path class="cls-1" d="M354.67,10.06q3.83,0,3.91,6l0,2.82a12.42,12.42,0,0,0,.24,2.67q.06.21.82.42a4.54,4.54,0,0,0,1,.21c.06,0,.1.14.11.43a1.73,1.73,0,0,1,0,.58q-.18,0-1.56-.1t-2.07-.06q-.71,0-2,.11l-1.53.14a.87.87,0,0,1-.13-.56c0-.3,0-.45.11-.45a3.56,3.56,0,0,0,1-.23c.44-.15.68-.3.72-.44a8.51,8.51,0,0,0,.21-2.17l0-2.82a6.45,6.45,0,0,0-.71-3.44,2.39,2.39,0,0,0-2.14-1,2.75,2.75,0,0,0-1.66.54,1.43,1.43,0,0,0-.7,1.12l.06,5.11a12.49,12.49,0,0,0,.24,2.67c0,.14.3.28.79.42a4.28,4.28,0,0,0,1,.21c.08,0,.13.14.14.43a1.74,1.74,0,0,1,0,.58l-1.56-.1q-1.32-.07-2-.07t-2.07.11l-1.59.14a.87.87,0,0,1-.13-.56c0-.3,0-.45.11-.45a4.16,4.16,0,0,0,1.08-.24q.73-.23.78-.44a9.71,9.71,0,0,0,.18-2.17l-.06-4.85a2.83,2.83,0,0,0-.5-1.9,1.44,1.44,0,0,0-.67-.44,3.38,3.38,0,0,0-.72-.17c-.19,0-.28,0-.28-.09q0-.86.14-.89A42,42,0,0,0,350,10.3l.07,0,.09,0h.07c.08,0,.15.07.21.21a.9.9,0,0,1,.09.33,10,10,0,0,0-.11,1.07.24.24,0,0,0,0,.15.46.46,0,0,0,.15-.09,6.55,6.55,0,0,1,1.81-1.27A5.2,5.2,0,0,1,354.67,10.06Z"/><path class="cls-1" d="M369.47,9.89a3.65,3.65,0,0,1,2.78.93,4.75,4.75,0,0,1,1,3.3l.07,5.86a1.35,1.35,0,0,0,.28.9.89.89,0,0,0,.72.3,1.85,1.85,0,0,0,1-.4c.12,0,.18.15.18.32a1.77,1.77,0,0,1-.17.89,7.43,7.43,0,0,1-1.18.76,3.1,3.1,0,0,1-1.42.4,2.17,2.17,0,0,1-1.34-.49,2.44,2.44,0,0,1-.87-1.09l-.22.2q-.19.17-.53.41a8.55,8.55,0,0,1-.77.48,4.73,4.73,0,0,1-1,.41,4.32,4.32,0,0,1-1.17.18,3.55,3.55,0,0,1-2.43-.79,2.82,2.82,0,0,1-1-2.23,2.74,2.74,0,0,1,.33-1.34,3.56,3.56,0,0,1,.81-1,6.07,6.07,0,0,1,1.27-.8,12.32,12.32,0,0,1,1.38-.6l1.48-.48,1.26-.4a.47.47,0,0,0,.26-.48l0-1.63a2.56,2.56,0,0,0-.5-1.63,1.55,1.55,0,0,0-1.29-.58,1.8,1.8,0,0,0-1.39.57,2.23,2.23,0,0,0-.49,1.57,1,1,0,0,1-.44.88,1.85,1.85,0,0,1-1,.29,1.67,1.67,0,0,1-1.55-.7q0-1.43,1.91-2.7A7.46,7.46,0,0,1,369.47,9.89Zm-1.2,11.43a2.3,2.3,0,0,0,1.38-.43,1.18,1.18,0,0,0,.57-1l0-3q-.21.09-.87.31t-1,.37a8.11,8.11,0,0,0-.83.43,1.79,1.79,0,0,0-.69.66,1.63,1.63,0,0,0-.21.83,1.83,1.83,0,0,0,.49,1.39A1.71,1.71,0,0,0,368.26,21.32Z"/><path class="cls-1" d="M388.46,3.3q.53,0,4.1-.23a1.39,1.39,0,0,1,.05.53c0,.28,0,.42-.1.42a3.29,3.29,0,0,0-1.07.22q-.59.22-.59.63a1.87,1.87,0,0,0,.28.77l3.22,5.73q.15.15.3-.06,1.26-1.92,2.42-4a8,8,0,0,0,1.16-2.57q0-.33-.56-.57A3.5,3.5,0,0,0,396.23,4q-.12,0-.12-.41a1,1,0,0,1,.08-.54q3,.14,3.57.14t1.23,0L402.12,3,403,3a2,2,0,0,1,.07.47q0,.48-.11.48a4.15,4.15,0,0,0-1.23.28,2.43,2.43,0,0,0-1.14.73q-.85,1.29-3,4.93a22.89,22.89,0,0,0-2.18,4l.05,4.64a11.37,11.37,0,0,0,.27,2.67q.06.21.82.45a4.17,4.17,0,0,0,1,.24c.08,0,.12.16.12.47a1.6,1.6,0,0,1-.05.48l-1.13-.08-1.37-.07-1.22,0q-.8,0-2.18.11l-1.71.14a.69.69,0,0,1-.12-.47c0-.32,0-.48.08-.48a4,4,0,0,0,1.1-.25q.74-.25.83-.49a10.63,10.63,0,0,0,.21-2.62L392,14.2a1.89,1.89,0,0,0-.2-.58q-.2-.43-.68-1.3l-.85-1.51-1.18-2.05-1.21-2.1a5.77,5.77,0,0,0-1.57-2,3,3,0,0,0-.88-.36,3.57,3.57,0,0,0-.85-.15c-.06,0-.1-.1-.11-.3a.9.9,0,0,1,0-.42Q385.25,3.34,388.46,3.3Z"/><path class="cls-1" d="M414.92,11.23q-.4-.8-2.09-.78-.09,0-.09-.41a1,1,0,0,1,.08-.54q.42,0,1.44.07t1.7.07q.67,0,1.74-.11t1.46-.11a.86.86,0,0,1,.09.47q0,.48-.17.48a3.54,3.54,0,0,0-1.16.3,1.72,1.72,0,0,0-1,.86l-4.84,10.55a2,2,0,0,1-.38.51.75.75,0,0,1-.5.27c-.2,0-.32-.06-.36-.17q-.61-1.33-1.66-3.68t-1.82-4q-.76-1.63-1.74-3.67-.37-.83-1.94-.81-.12,0-.12-.47a.69.69,0,0,1,.11-.48c.18,0,.7,0,1.58.07s1.55.07,2,.07,1.16,0,2.05-.11l1.54-.11a1,1,0,0,1,.08.53q0,.42-.13.42a4.37,4.37,0,0,0-1.05.19c-.44.12-.67.29-.66.48a.55.55,0,0,0,.06.3l3,6.8,2.61-5.92Q415.13,11.55,414.92,11.23Z"/><path class="cls-1" d="M427.58,9.2a5.52,5.52,0,0,1,2.5.52,4.71,4.71,0,0,1,1.74,1.38,6.89,6.89,0,0,1,1,1.74,5.14,5.14,0,0,1,.35,1.73c0,.44-.07.71-.21.82a1.69,1.69,0,0,1-.9.17l-7.11.08c-.14,0-.21.06-.21.18a5.78,5.78,0,0,0,.41,2.08,4.08,4.08,0,0,0,1.34,1.74,3.5,3.5,0,0,0,2.25.72,8,8,0,0,0,.86-.06,4.44,4.44,0,0,0,.77-.16L431,20a2.53,2.53,0,0,0,.55-.27l.4-.26.59-.41a.47.47,0,0,1,.15.18.57.57,0,0,1,.09.3.91.91,0,0,1-.17.57,4.83,4.83,0,0,1-1.73,1.63,5.52,5.52,0,0,1-2.93.84,6,6,0,0,1-4.48-1.86A6.41,6.41,0,0,1,421.51,16a6.88,6.88,0,0,1,1.68-4.9A5.76,5.76,0,0,1,427.58,9.2Zm-.19,1.37a2.1,2.1,0,0,0-1.27.43,2.79,2.79,0,0,0-.85,1,5.78,5.78,0,0,0-.42,1.12,3.68,3.68,0,0,0-.12.88q0,.21.18.21l4.82-.06c.18,0,.27-.15.26-.45a3.85,3.85,0,0,0-.72-2.1A2.13,2.13,0,0,0,427.39,10.57Z"/><path class="cls-1" d="M437.11,11.17l-1.81,0c-.14,0-.21-.25-.22-.77a.73.73,0,0,1,0-.27,8.34,8.34,0,0,0,2.27-1.6l.84-.89q.45-.5,1.07-1.28a2.13,2.13,0,0,1,.57.07c.18,0,.27.1.27.16l0,2.91h3.63c.16,0,.24.09.24.26a2.88,2.88,0,0,1-.28,1.31l-3.57,0,.08,7.16a2.82,2.82,0,0,0,.53,1.81,1.7,1.7,0,0,0,1.4.61,2.84,2.84,0,0,0,.63-.08,3.22,3.22,0,0,0,.53-.17l.38-.18.21-.09c.08,0,.17.07.27.26s.14.33.12.39a2.72,2.72,0,0,1-1.25,1,4.68,4.68,0,0,1-2.12.57,3.75,3.75,0,0,1-2.64-1,4,4,0,0,1-1.12-3.06Z"/><path class="cls-1" d="M448.43,11l-1.81,0c-.14,0-.21-.25-.22-.77a.73.73,0,0,1,0-.27,8.32,8.32,0,0,0,2.27-1.6l.84-.89Q450,7,450.6,6.26a2.11,2.11,0,0,1,.57.07c.18,0,.27.1.27.16l0,2.91h3.63c.16,0,.24.09.24.26a2.88,2.88,0,0,1-.28,1.31l-3.57,0,.08,7.16A2.82,2.82,0,0,0,452.1,20a1.7,1.7,0,0,0,1.4.61,2.83,2.83,0,0,0,.63-.08,3.22,3.22,0,0,0,.53-.17l.38-.18.21-.09c.08,0,.17.07.27.26s.14.32.12.38a2.72,2.72,0,0,1-1.25,1,4.68,4.68,0,0,1-2.12.57,3.75,3.75,0,0,1-2.64-1,4,4,0,0,1-1.12-3.06Z"/><path class="cls-1" d="M464.09,8.77a5.52,5.52,0,0,1,2.5.52,4.71,4.71,0,0,1,1.74,1.38,6.89,6.89,0,0,1,1,1.74,5.14,5.14,0,0,1,.35,1.73c0,.44-.07.71-.21.82a1.69,1.69,0,0,1-.9.17l-7.1.08c-.14,0-.21.06-.21.18a5.79,5.79,0,0,0,.41,2.08A4.09,4.09,0,0,0,463,19.22a3.5,3.5,0,0,0,2.25.72,8.09,8.09,0,0,0,.86-.05,4.44,4.44,0,0,0,.77-.16l.62-.2a2.53,2.53,0,0,0,.55-.27l.4-.26.59-.41a.47.47,0,0,1,.15.18.57.57,0,0,1,.09.3.91.91,0,0,1-.17.57,4.83,4.83,0,0,1-1.73,1.63,5.52,5.52,0,0,1-2.93.84,6,6,0,0,1-4.48-1.86A6.41,6.41,0,0,1,458,15.59a6.88,6.88,0,0,1,1.68-4.9A5.76,5.76,0,0,1,464.09,8.77Zm-.19,1.37a2.1,2.1,0,0,0-1.27.43,2.79,2.79,0,0,0-.85,1,5.77,5.77,0,0,0-.42,1.12,3.68,3.68,0,0,0-.12.88q0,.21.18.21l4.82-.06c.18,0,.27-.15.26-.45a3.85,3.85,0,0,0-.72-2.1A2.13,2.13,0,0,0,463.9,10.14Z"/><path class="cls-1" d="M483.41,2.18,486.32,2q.28.83,1.25,3.06t2.4,5.44q1.42,3.21,2.28,5.28s0,.06.09.06a.08.08,0,0,0,.09-.09q2.54-6.3,4-10.36l1-3.46q.89.08,2.44.06,1.16,0,3.54-.19a.86.86,0,0,1,.09.47q0,.51-.11.51h-.06a2.42,2.42,0,0,0-1.45.49q-.44.33-.37,1.61.15,2.64.56,12.27a7.84,7.84,0,0,0,.51,2.73q.12.27.84.48a4,4,0,0,0,1,.21q.12,0,.13.53a1.44,1.44,0,0,1-.05.45l-3.66-.14-1.25,0-1.44.09-1.26.09a.63.63,0,0,1-.12-.44q0-.53.11-.54a3.53,3.53,0,0,0,.95-.2,1.87,1.87,0,0,0,.83-.44,1.67,1.67,0,0,0,.29-1l0-1.66-.4-9q-.14-1.84-.38-1.84c-.06,0-.11.06-.15.18l-5.52,13.92q-.49,1.14-1.12,1.14a1,1,0,0,1-.3-.06L484.28,5.68q-.12,7.4-.32,13.26a3.27,3.27,0,0,0,.1.92c.1.22.5.42,1.2.61a6.41,6.41,0,0,0,1.4.28q.12,0,.13.53a1.44,1.44,0,0,1-.05.45L483,21.6q-.8,0-2.12.11t-1.62.11a.69.69,0,0,1-.12-.47q0-.51.11-.51a6,6,0,0,0,1.48-.31q1-.31,1.15-.79a5.52,5.52,0,0,0,.3-2q0-2.26.1-5.34t.12-5.25q0-2.17,0-2.71a2.82,2.82,0,0,0-.1-.83q-.09-.24-1-.43A6.74,6.74,0,0,0,480,3c-.08,0-.12-.17-.12-.5A.64.64,0,0,1,480,2l1.53.09Q482.64,2.19,483.41,2.18Z"/><path class="cls-1" d="M513.77,8.19a6.56,6.56,0,0,1,4.79,1.89,6.38,6.38,0,0,1,2,4.69,6.73,6.73,0,0,1-13.47.16A6.4,6.4,0,0,1,509,10.17,6.51,6.51,0,0,1,513.77,8.19Zm-.37,1.4A2.39,2.39,0,0,0,511.24,11a6.4,6.4,0,0,0-.74,3.23,8.68,8.68,0,0,0,1,4.18,3,3,0,0,0,2.71,1.75,2.42,2.42,0,0,0,2.17-1.39,6.31,6.31,0,0,0,.75-3.22,10.2,10.2,0,0,0-.42-2.86,5.25,5.25,0,0,0-1.27-2.2A2.76,2.76,0,0,0,513.4,9.59Z"/><path class="cls-1" d="M532.76,8q3.83,0,3.91,6l0,2.82a12.42,12.42,0,0,0,.24,2.67q.06.21.82.42a4.53,4.53,0,0,0,1,.21c.06,0,.1.14.11.43a1.73,1.73,0,0,1,0,.58q-.18,0-1.56-.1T535.23,21q-.71,0-2,.11l-1.53.14a.87.87,0,0,1-.13-.56c0-.3,0-.45.11-.45a3.56,3.56,0,0,0,1-.23c.44-.15.68-.3.72-.44a8.5,8.5,0,0,0,.21-2.17l0-2.82a6.45,6.45,0,0,0-.71-3.44,2.39,2.39,0,0,0-2.14-1,2.75,2.75,0,0,0-1.66.54,1.43,1.43,0,0,0-.7,1.12l.06,5.11a12.49,12.49,0,0,0,.24,2.67c0,.14.31.28.79.42a4.28,4.28,0,0,0,1,.21c.08,0,.13.14.14.43a1.74,1.74,0,0,1,0,.58l-1.56-.1q-1.32-.07-2-.07t-2.07.11l-1.59.14a.87.87,0,0,1-.13-.56c0-.3,0-.45.11-.45a4.16,4.16,0,0,0,1.08-.24q.73-.23.78-.44a9.71,9.71,0,0,0,.18-2.17l-.06-4.85a2.83,2.83,0,0,0-.5-1.9,1.44,1.44,0,0,0-.67-.44,3.38,3.38,0,0,0-.72-.17c-.19,0-.28,0-.28-.09q0-.86.14-.89a42,42,0,0,0,4.78-.95l.07,0,.09,0h.07c.08,0,.15.07.21.21a.9.9,0,0,1,.09.33,10,10,0,0,0-.11,1.07.24.24,0,0,0,0,.15.46.46,0,0,0,.15-.09,6.58,6.58,0,0,1,1.81-1.27A5.2,5.2,0,0,1,532.76,8Z"/><path class="cls-1" d="M546.15,7.77a12.64,12.64,0,0,1,3.45.46,16.8,16.8,0,0,1,.37,3.33c0,.16-.13.24-.38.24-.44,0-.67-.07-.72-.23a3.6,3.6,0,0,0-.9-1.76,2.32,2.32,0,0,0-1.81-.71,2.13,2.13,0,0,0-1.35.4,1.32,1.32,0,0,0-.48,1.11,1.72,1.72,0,0,0,.17.76,1.85,1.85,0,0,0,.54.63,7.35,7.35,0,0,0,.66.47c.19.12.47.27.85.47a2,2,0,0,0,.3.15l.45.23.49.26.48.28a5.44,5.44,0,0,1,.52.34l.46.35a2.33,2.33,0,0,1,.45.41l.36.46a1.93,1.93,0,0,1,.32.53,5.48,5.48,0,0,1,.17.56,2.73,2.73,0,0,1,.08.64,3.51,3.51,0,0,1-1.41,3,5.64,5.64,0,0,1-3.48,1.13,9.93,9.93,0,0,1-3.84-.79,11.81,11.81,0,0,1-.32-1.65,14.47,14.47,0,0,1-.17-1.71.63.63,0,0,1,.42-.15c.46,0,.69.07.72.23a3.28,3.28,0,0,0,1.2,2,3.17,3.17,0,0,0,2,.73,2.15,2.15,0,0,0,1.36-.43,1.45,1.45,0,0,0,.52-1.23,2,2,0,0,0-.08-.55,1.45,1.45,0,0,0-.29-.5l-.35-.41a2.13,2.13,0,0,0-.54-.4l-.6-.33-.75-.38-.76-.39a6.92,6.92,0,0,1-2.13-1.57,3.18,3.18,0,0,1-.77-2.12,3.19,3.19,0,0,1,1.39-2.81A5.74,5.74,0,0,1,546.15,7.77Z"/><path class="cls-1" d="M559.34,7.65a3.65,3.65,0,0,1,2.78.93,4.75,4.75,0,0,1,1,3.3l.07,5.86a1.35,1.35,0,0,0,.28.9.89.89,0,0,0,.72.3,1.85,1.85,0,0,0,1-.4c.12,0,.18.15.18.32a1.77,1.77,0,0,1-.17.89,7.43,7.43,0,0,1-1.18.76,3.1,3.1,0,0,1-1.42.4,2.17,2.17,0,0,1-1.34-.49,2.44,2.44,0,0,1-.87-1.09l-.22.2c-.13.11-.3.25-.53.41a8.55,8.55,0,0,1-.77.48,4.73,4.73,0,0,1-1,.41,4.31,4.31,0,0,1-1.17.18,3.55,3.55,0,0,1-2.43-.79,2.82,2.82,0,0,1-1-2.23,2.74,2.74,0,0,1,.33-1.34,3.56,3.56,0,0,1,.81-1,6.1,6.1,0,0,1,1.27-.8,12.32,12.32,0,0,1,1.38-.6l1.48-.48,1.26-.4a.47.47,0,0,0,.26-.48l0-1.63a2.56,2.56,0,0,0-.5-1.63A1.55,1.55,0,0,0,558.23,9a1.81,1.81,0,0,0-1.39.57,2.23,2.23,0,0,0-.49,1.57,1,1,0,0,1-.44.88,1.85,1.85,0,0,1-1,.29,1.68,1.68,0,0,1-1.55-.69q0-1.43,1.92-2.7A7.46,7.46,0,0,1,559.34,7.65Zm-1.2,11.43a2.3,2.3,0,0,0,1.38-.43,1.18,1.18,0,0,0,.57-1l0-3q-.21.09-.87.31t-1,.37a8.11,8.11,0,0,0-.83.43,1.8,1.8,0,0,0-.69.66,1.63,1.63,0,0,0-.21.83,1.83,1.83,0,0,0,.49,1.39A1.71,1.71,0,0,0,558.14,19.08Z"/><path class="cls-1" d="M572.73,16.35A12.18,12.18,0,0,0,573,19q.06.21.73.45a3.26,3.26,0,0,0,.91.24c.06,0,.1.14.11.42a1.58,1.58,0,0,1,0,.57l-1.12-.06-1.26-.06-1.07,0-1.13,0-1.25.09-1.13.09a.83.83,0,0,1-.12-.55c0-.29,0-.43.11-.43a3.18,3.18,0,0,0,1-.26q.67-.26.72-.47a9.86,9.86,0,0,0,.21-2.2l-.15-12.37a10.35,10.35,0,0,0-.2-2Q569.14,2,567.8,2h-.3c-.12,0-.18-.12-.18-.35s.05-.48.17-.48q.92-.1,1.75-.26t1.38-.31q.55-.15.95-.29l.64-.23.21-.09h.06c.08,0,.16.06.25.18a.91.91,0,0,1,.17.3,9.42,9.42,0,0,0-.32,2.8Z"/><path class="cls-1" d="M588.12,9.18q-.4-.8-2.09-.78-.09,0-.09-.41a1,1,0,0,1,.08-.54q.42,0,1.44.07t1.69.07q.67,0,1.74-.11t1.46-.11a.86.86,0,0,1,.09.47q0,.48-.17.48a3.54,3.54,0,0,0-1.16.3,1.72,1.72,0,0,0-1,.86L585.28,20a2,2,0,0,1-.38.51.75.75,0,0,1-.5.27c-.2,0-.32-.06-.36-.17q-.61-1.33-1.66-3.68t-1.82-4q-.76-1.63-1.74-3.67-.37-.83-1.94-.81-.12,0-.12-.47a.69.69,0,0,1,.11-.48c.18,0,.7,0,1.58.07s1.55.07,2,.07,1.16,0,2.05-.11l1.54-.11a1,1,0,0,1,.08.53q0,.42-.13.42a4.37,4.37,0,0,0-1.05.19c-.44.12-.67.29-.66.48a.55.55,0,0,0,.06.3l3,6.8L588,10.28Q588.34,9.51,588.12,9.18Z"/><path class="cls-1" d="M600.79,7.16a5.51,5.51,0,0,1,2.5.52A4.71,4.71,0,0,1,605,9.05a6.89,6.89,0,0,1,1,1.74,5.14,5.14,0,0,1,.35,1.73c0,.44-.07.71-.21.82a1.69,1.69,0,0,1-.9.17l-7.1.08c-.14,0-.21.06-.21.18a5.78,5.78,0,0,0,.41,2.08,4.08,4.08,0,0,0,1.34,1.74,3.5,3.5,0,0,0,2.25.72,8.08,8.08,0,0,0,.86-.06,4.45,4.45,0,0,0,.77-.16l.62-.2a2.53,2.53,0,0,0,.55-.27l.4-.26.59-.41a.47.47,0,0,1,.15.18.57.57,0,0,1,.09.3.91.91,0,0,1-.17.57,4.83,4.83,0,0,1-1.73,1.63,5.52,5.52,0,0,1-2.93.84,6,6,0,0,1-4.48-1.86A6.41,6.41,0,0,1,594.71,14a6.88,6.88,0,0,1,1.68-4.9A5.76,5.76,0,0,1,600.79,7.16Zm-.19,1.37a2.1,2.1,0,0,0-1.27.43,2.79,2.79,0,0,0-.85,1,5.78,5.78,0,0,0-.42,1.12,3.68,3.68,0,0,0-.12.88q0,.21.18.21l4.82-.06c.18,0,.27-.15.26-.45a3.86,3.86,0,0,0-.72-2.1A2.13,2.13,0,0,0,600.59,8.53Z"/><path class="cls-1" d="M18.47,39.54a3.65,3.65,0,0,1,2.64,1.26,4.76,4.76,0,0,1,.55,3.4L21,50a1.35,1.35,0,0,0,.17.93.89.89,0,0,0,.67.39,1.85,1.85,0,0,0,1-.27c.11.05.16.17.14.34a1.77,1.77,0,0,1-.28.87,7.33,7.33,0,0,1-1.26.61,3.1,3.1,0,0,1-1.46.23,2.17,2.17,0,0,1-1.27-.65,2.45,2.45,0,0,1-.74-1.19l-.24.17q-.21.14-.58.34a8.63,8.63,0,0,1-.82.39,4.72,4.72,0,0,1-1,.29,4.29,4.29,0,0,1-1.19,0,3.55,3.55,0,0,1-2.32-1.08,2.83,2.83,0,0,1-.69-2.33,2.73,2.73,0,0,1,.49-1.29,3.55,3.55,0,0,1,.92-.93,6.08,6.08,0,0,1,1.36-.64,12.27,12.27,0,0,1,1.44-.43l1.53-.3,1.3-.25a.47.47,0,0,0,.32-.44l.18-1.63a2.55,2.55,0,0,0-.29-1.68,1.55,1.55,0,0,0-1.21-.73,1.8,1.8,0,0,0-1.45.39,2.23,2.23,0,0,0-.67,1.5,1,1,0,0,1-.54.82,1.85,1.85,0,0,1-1,.17A1.68,1.68,0,0,1,12,42.78q.16-1.42,2.23-2.45A7.46,7.46,0,0,1,18.47,39.54ZM15.9,50.74a2.31,2.31,0,0,0,1.42-.26A1.18,1.18,0,0,0,18,49.6l.33-3q-.22.07-.9.2T16.37,47a8,8,0,0,0-.87.32,1.79,1.79,0,0,0-.77.57,1.64,1.64,0,0,0-.31.8,1.83,1.83,0,0,0,.32,1.44A1.7,1.7,0,0,0,15.9,50.74Z"/><path class="cls-1" d="M34.07,41.25a6,6,0,0,1,3.19,1.29,6.24,6.24,0,0,1,2,2.61,6.35,6.35,0,0,1,.43,3.05A6.79,6.79,0,0,1,37,52.93a6.55,6.55,0,0,1-5,1.53A9.34,9.34,0,0,1,29.95,54a6.5,6.5,0,0,0-1.36-.37,2.26,2.26,0,0,0-.79.12,3,3,0,0,1-.61.14,1.42,1.42,0,0,1-.41-.22c-.21-.14-.32-.25-.31-.33s0-.23.12-.53.17-.71.29-1.25a17.19,17.19,0,0,0,.29-1.79l1.32-12.06a10.34,10.34,0,0,0,0-2q-.1-.49-1.48-.64l-.27,0q-.18,0-.12-.49t.23-.45q.93,0,1.77,0T30,33.87q.56-.09,1-.19l.88-.2H32c.08,0,.15.07.22.19a.8.8,0,0,1,.11.33,10.39,10.39,0,0,0-.63,2.74l-.52,4.73v.16a.86.86,0,0,0,0,.13c0,.06,0,.09,0,.1l.11,0a5.43,5.43,0,0,1,1.26-.46A4.25,4.25,0,0,1,34.07,41.25Zm-.83,1.52a2.3,2.3,0,0,0-1.66.39,1.75,1.75,0,0,0-.77,1.26l-.69,6.26a1.78,1.78,0,0,0,.61,1.65,3.23,3.23,0,0,0,1.79.73A2.53,2.53,0,0,0,35,51.94a6.8,6.8,0,0,0,1.15-3.28,7.65,7.65,0,0,0-.47-4.12A2.91,2.91,0,0,0,33.24,42.78Z"/><path class="cls-1" d="M49.63,43a6.55,6.55,0,0,1,4.53,2.46,6.37,6.37,0,0,1,1.45,4.9,6.75,6.75,0,0,1-12,3.44,6.69,6.69,0,0,1,1-9.4A6.51,6.51,0,0,1,49.63,43Zm-.54,1.35a2.39,2.39,0,0,0-2.3,1.11,6.39,6.39,0,0,0-1.12,3.12,8.67,8.67,0,0,0,.5,4.27,3,3,0,0,0,2.48,2.07A2.42,2.42,0,0,0,51,53.75a6.32,6.32,0,0,0,1.13-3.11A10.19,10.19,0,0,0,52,47.75a5.26,5.26,0,0,0-1-2.34A2.76,2.76,0,0,0,49.1,44.31Z"/><path class="cls-1" d="M71.41,48.58l-.64,5.85a6.63,6.63,0,0,0,0,2.09.62.62,0,0,0,.31.27,2.29,2.29,0,0,0,.5.17l.48.08a.54.54,0,0,1,.25.06c.08,0,.11.12.09.28a2.31,2.31,0,0,1-.1.39q-.09.27-.21.26A6.88,6.88,0,0,0,71,58l-1.25.07-1.15.1-1.21.11q-.21,0-.16-.5l.14-1.3c0-.1,0-.15-.07-.16a6.64,6.64,0,0,1-1.95,1.13,5,5,0,0,1-2.4.33,3.11,3.11,0,0,1-1.7-.7,3.59,3.59,0,0,1-1-1.43,6.37,6.37,0,0,1-.43-1.78,9.06,9.06,0,0,1,0-1.88l.36-3.31a2.83,2.83,0,0,0-.27-1.94,1.66,1.66,0,0,0-.63-.52,3.12,3.12,0,0,0-.69-.26c-.19,0-.29-.08-.29-.12.06-.57.14-.86.25-.87A22.44,22.44,0,0,0,61,44.93a23.32,23.32,0,0,0,2.39-.28l.12,0,.12,0q.15,0,.2.23a1.07,1.07,0,0,1,0,.33q-.49,2-.55,2.57L63,51.3a6.38,6.38,0,0,0,.29,3.38,2.63,2.63,0,0,0,3.65.83,1.58,1.58,0,0,0,.77-1l.54-4.88A2.82,2.82,0,0,0,68,47.66a1.43,1.43,0,0,0-.62-.52,3.37,3.37,0,0,0-.71-.26c-.2,0-.29-.08-.29-.12.06-.57.15-.86.28-.87a22.77,22.77,0,0,0,2.43-.09,23.21,23.21,0,0,0,2.39-.28l.24,0c.1,0,.17.09.21.23a.55.55,0,0,1,0,.33Q71.47,48,71.41,48.58Z"/><path class="cls-1" d="M77.64,48.13l-1.8-.2c-.14,0-.18-.28-.12-.79a.72.72,0,0,1,.06-.26,8.33,8.33,0,0,0,2.45-1.32l.94-.78q.51-.44,1.22-1.14a2.11,2.11,0,0,1,.55.14c.17.07.25.13.25.19l-.32,2.9,2.14.25,1.46.18c.16,0,.23.11.21.29a2.88,2.88,0,0,1-.44,1.27l-3.55-.39-.78,7.12a2.82,2.82,0,0,0,.3,1.86,1.7,1.7,0,0,0,1.32.77,2.83,2.83,0,0,0,.63,0,3.15,3.15,0,0,0,.55-.1l.4-.14.22-.07c.08,0,.16.09.24.29a.7.7,0,0,1,.08.4,2.73,2.73,0,0,1-1.36.82,4.69,4.69,0,0,1-2.17.31,3.75,3.75,0,0,1-2.51-1.28,4,4,0,0,1-.74-3.18Z"/><path class="cls-1" d="M98.66,57.25a12.23,12.23,0,0,0-.08,2.68c0,.14.25.32.67.54a3.26,3.26,0,0,0,.87.35c.06,0,.08.15.06.43a1.59,1.59,0,0,1-.11.56l-1.1-.2-1.25-.21-1.06-.15-1.13-.09L94.3,61.1l-1.13,0a.85.85,0,0,1-.06-.56q0-.43.17-.42a3.18,3.18,0,0,0,1-.14q.69-.18.77-.38a9.88,9.88,0,0,0,.48-2.16L96.89,45.1a10.27,10.27,0,0,0,0-2q-.1-.49-1.42-.63l-.3,0q-.18,0-.14-.37t.23-.45q.93,0,1.77,0t1.41-.14l1-.18.66-.15.22-.07h.06q.12,0,.23.2a.89.89,0,0,1,.13.31,9.41,9.41,0,0,0-.66,2.74Z"/><path class="cls-1" d="M108.4,58.38a11,11,0,0,0-.06,2.69q0,.21.75.52a4.4,4.4,0,0,0,1,.33c.08,0,.11.16.09.44a1.67,1.67,0,0,1-.11.57l-1.57-.29q-1.37-.24-2-.31t-2.09-.14l-1.56-.05a.87.87,0,0,1-.06-.57c0-.3.09-.44.17-.43A4.29,4.29,0,0,0,104,61q.76-.14.85-.34a9.73,9.73,0,0,0,.44-2.13l.53-4.82a2.83,2.83,0,0,0-.26-1.94,1.66,1.66,0,0,0-.63-.52,3.16,3.16,0,0,0-.69-.25c-.2,0-.29-.08-.29-.12.06-.57.15-.86.27-.87a22.76,22.76,0,0,0,2.43-.09,23.32,23.32,0,0,0,2.39-.28l.24,0c.1,0,.17.09.21.23a.55.55,0,0,1,0,.33,25.44,25.44,0,0,0-.52,2.52Zm-1.72-12.7a1.81,1.81,0,0,1-.39-1.36,1.84,1.84,0,0,1,3.67.4,1.81,1.81,0,0,1-.67,1.24,1.83,1.83,0,0,1-2.6-.29Z"/><path class="cls-1" d="M124.59,53.07q-.3-.84-2-1c-.06,0-.07-.15,0-.42a1,1,0,0,1,.15-.52c.28,0,.75.11,1.42.25s1.23.22,1.67.27,1,.08,1.74.1,1.2,0,1.46.07a.86.86,0,0,1,0,.48q-.05.47-.23.45a3.55,3.55,0,0,0-1.18.15,1.72,1.72,0,0,0-1.1.73l-6.08,9.89A2,2,0,0,1,120,64a.75.75,0,0,1-.53.21c-.2,0-.31-.09-.33-.22q-.45-1.39-1.21-3.86t-1.32-4.17q-.56-1.71-1.28-3.85-.26-.87-1.83-1-.12,0-.07-.49a.68.68,0,0,1,.17-.46q.27,0,1.56.26t2,.31q.71.08,2,.14l1.55.08a1,1,0,0,1,0,.54q-.06.41-.18.4a4.35,4.35,0,0,0-1.07.06c-.46.07-.7.2-.72.4a.56.56,0,0,0,0,.3L121,59.71l3.3-5.56Q124.76,53.42,124.59,53.07Z"/><path class="cls-1" d="M135.63,61.37a11,11,0,0,0-.06,2.69q0,.21.75.52a4.36,4.36,0,0,0,1,.33q.12,0,.09.44a1.64,1.64,0,0,1-.11.57l-1.57-.29q-1.37-.24-2-.31t-2.09-.14L130,65.13a.87.87,0,0,1-.06-.57q0-.44.17-.43a4.29,4.29,0,0,0,1.09-.1q.76-.14.85-.34a9.73,9.73,0,0,0,.44-2.13l.53-4.82a2.83,2.83,0,0,0-.26-1.94,1.66,1.66,0,0,0-.63-.52,3.11,3.11,0,0,0-.69-.25c-.2,0-.29-.08-.29-.12.06-.57.15-.86.27-.87a22.86,22.86,0,0,0,2.43-.09,23.31,23.31,0,0,0,2.39-.28l.24,0c.1,0,.17.09.21.23a.55.55,0,0,1,0,.33q-.44,1.87-.52,2.52Zm-1.72-12.7a1.81,1.81,0,0,1-.39-1.36,1.76,1.76,0,0,1,.67-1.23,1.87,1.87,0,0,1,2.6.29,1.76,1.76,0,0,1,.39,1.34,1.81,1.81,0,0,1-.67,1.24,1.83,1.83,0,0,1-2.6-.29Z"/><path class="cls-1" d="M150.78,54.06q3.81.42,3.15,6.48l-.31,2.81a12.39,12.39,0,0,0-.08,2.68q0,.21.77.52a4.56,4.56,0,0,0,1,.33c.06,0,.08.15.06.44a1.69,1.69,0,0,1-.11.57q-.17,0-1.54-.29t-2-.31q-.71-.08-2-.13l-1.54,0a.87.87,0,0,1-.06-.57c0-.3.09-.44.17-.43a3.55,3.55,0,0,0,1-.11c.46-.1.72-.22.77-.35a8.46,8.46,0,0,0,.47-2.13l.31-2.81a6.44,6.44,0,0,0-.29-3.5,2.39,2.39,0,0,0-2-1.21,2.75,2.75,0,0,0-1.71.34,1.43,1.43,0,0,0-.83,1l-.56,5.08a12.46,12.46,0,0,0-.08,2.68q0,.21.74.51A4.28,4.28,0,0,0,147,66c.08,0,.11.16.09.44A1.7,1.7,0,0,1,147,67l-1.54-.29q-1.31-.23-2-.31t-2.06-.14l-1.59-.05a.88.88,0,0,1-.06-.57c0-.3.09-.44.17-.43a4.14,4.14,0,0,0,1.1-.1q.75-.14.83-.34a9.67,9.67,0,0,0,.44-2.13l.53-4.82a2.83,2.83,0,0,0-.26-1.94,1.44,1.44,0,0,0-.62-.52,3.41,3.41,0,0,0-.69-.25c-.19,0-.28-.08-.27-.12.06-.57.14-.86.25-.87a42,42,0,0,0,4.86-.36l.08,0h.16c.08,0,.14.09.18.23a.89.89,0,0,1,.05.33,9.83,9.83,0,0,0-.23,1.05.24.24,0,0,0,0,.15.44.44,0,0,0,.16-.07,6.59,6.59,0,0,1,2-1A5.2,5.2,0,0,1,150.78,54.06Z"/><path class="cls-1" d="M164.92,55.67a9.4,9.4,0,0,1,2.41.65,9.18,9.18,0,0,0,2.32.64l1.69.19s.09.14.16.41a1.81,1.81,0,0,1,.08.61q0,.41-.22.39l-1.92-.21c-.08,0-.12,0-.13.08s.06.29.18.8a4.21,4.21,0,0,1,.11,1.45,4.3,4.3,0,0,1-1.81,3,5.1,5.1,0,0,1-3.8,1,12.3,12.3,0,0,1-1.82-.32,1.61,1.61,0,0,0-.71.48,1.27,1.27,0,0,0-.37.69.61.61,0,0,0,.22.53,2,2,0,0,0,.84.39q.58.15,1,.23l1.18.19.44,0A10.49,10.49,0,0,1,169,68.19a2.34,2.34,0,0,1,1.14,2.32,4.67,4.67,0,0,1-2.55,3.61,8.13,8.13,0,0,1-5.17,1.08A7.72,7.72,0,0,1,158.74,74a2.67,2.67,0,0,1-1.34-2.6,2.31,2.31,0,0,1,1-1.56,4.93,4.93,0,0,1,1.94-.92A3.39,3.39,0,0,1,159,67.81a2.16,2.16,0,0,1-.48-1.62q.14-1.27,2.48-2.39a3.94,3.94,0,0,1-1.43-1.7,4.38,4.38,0,0,1-.47-2.49,4,4,0,0,1,1.9-3.14A5.91,5.91,0,0,1,164.92,55.67Zm2.38,15.9q.11-1-1.34-1.54a18.86,18.86,0,0,0-4-.78h-.15l-.16.07c-.27.07-.47.13-.62.19a2.51,2.51,0,0,0-.51.27,1.44,1.44,0,0,0-.46.47,1.73,1.73,0,0,0-.21.7,2.08,2.08,0,0,0,.93,1.9,4.63,4.63,0,0,0,2.43,1,4.49,4.49,0,0,0,2.79-.47A2.32,2.32,0,0,0,167.3,71.58Zm-5.1-11.86a4.71,4.71,0,0,0,.32,2.5,1.85,1.85,0,0,0,1.54,1.17,1.77,1.77,0,0,0,1.7-.67,3.94,3.94,0,0,0,.75-2,4.88,4.88,0,0,0-.31-2.61,1.9,1.9,0,0,0-1.61-1.16,1.68,1.68,0,0,0-1.67.74A4.33,4.33,0,0,0,162.2,59.71Z"/><path class="cls-1" d="M185.66,66.86a11,11,0,0,0-.06,2.69q0,.21.75.52a4.38,4.38,0,0,0,1,.33q.12,0,.09.44a1.67,1.67,0,0,1-.11.57l-1.57-.29q-1.37-.24-2-.31t-2.09-.14l-1.57-.05A.88.88,0,0,1,180,70q0-.44.17-.43a4.32,4.32,0,0,0,1.09-.1q.76-.14.84-.34a9.67,9.67,0,0,0,.44-2.13l.53-4.82a2.83,2.83,0,0,0-.26-1.94,1.66,1.66,0,0,0-.63-.52,3.14,3.14,0,0,0-.69-.25c-.19,0-.29-.08-.29-.12.06-.57.15-.86.27-.87a22.77,22.77,0,0,0,2.43-.09,23.15,23.15,0,0,0,2.39-.28l.24,0c.1,0,.17.09.21.23a.55.55,0,0,1,0,.33,25.64,25.64,0,0,0-.51,2.52Zm-1.72-12.7a1.81,1.81,0,0,1-.39-1.36,1.83,1.83,0,0,1,2-1.62,1.82,1.82,0,0,1,1.63,2,1.81,1.81,0,0,1-.67,1.24,1.83,1.83,0,0,1-2.6-.29Z"/><path class="cls-1" d="M200.81,59.55Q204.62,60,204,66l-.31,2.81a12.46,12.46,0,0,0-.08,2.68q0,.21.77.52a4.57,4.57,0,0,0,1,.33c.06,0,.08.15.06.44a1.66,1.66,0,0,1-.11.57c-.12,0-.63-.13-1.54-.29s-1.59-.26-2-.31-1.13-.09-2-.13l-1.54,0a.87.87,0,0,1-.06-.57c0-.3.09-.44.17-.43a3.55,3.55,0,0,0,1-.11c.46-.1.72-.22.77-.35a8.47,8.47,0,0,0,.47-2.13l.31-2.81a6.45,6.45,0,0,0-.29-3.5,2.39,2.39,0,0,0-2-1.21,2.75,2.75,0,0,0-1.71.34,1.43,1.43,0,0,0-.83,1l-.56,5.08a12.53,12.53,0,0,0-.08,2.68c0,.14.27.31.74.51a4.32,4.32,0,0,0,.94.33q.12,0,.09.44a1.67,1.67,0,0,1-.11.57l-1.54-.29q-1.31-.23-2-.31t-2.06-.14l-1.59-.06a.87.87,0,0,1-.06-.57c0-.3.09-.44.17-.43a4.12,4.12,0,0,0,1.1-.1q.75-.14.83-.34a9.68,9.68,0,0,0,.44-2.13l.53-4.82a2.83,2.83,0,0,0-.26-1.94,1.43,1.43,0,0,0-.62-.52,3.39,3.39,0,0,0-.69-.26c-.18,0-.28-.08-.27-.12q.1-.86.25-.87a42.15,42.15,0,0,0,4.86-.36l.08,0h.16c.08,0,.14.08.18.23a.91.91,0,0,1,.05.33,9.93,9.93,0,0,0-.24,1.05.25.25,0,0,0,0,.15.44.44,0,0,0,.16-.07,6.61,6.61,0,0,1,2-1A5.2,5.2,0,0,1,200.81,59.55Z"/><path class="cls-1" d="M222.26,59.63,221,70.75a8.75,8.75,0,0,0,0,2.39q.11.4,2,.61l1.09.12a8,8,0,0,0,3.59-.23,3.4,3.4,0,0,0,1.18-.92A6.26,6.26,0,0,0,230,71c0-.12.18-.16.43-.13a1.28,1.28,0,0,1,.81.27l-.56,1.17L230,73.69q-.23.47-.52,1.15a8.33,8.33,0,0,0-.39,1.12q-1.18-.13-4.88-.63t-5.21-.6L215,74.42a.77.77,0,0,1,0-.48c0-.33.08-.5.14-.49a4.92,4.92,0,0,0,1.14-.07q.76-.11.91-.36a10.74,10.74,0,0,0,.5-2.67l1.23-11.17a9.06,9.06,0,0,0,0-2.54c-.06-.17-.32-.35-.78-.55a4,4,0,0,0-1-.34c-.08,0-.1-.16-.07-.46a1.2,1.2,0,0,1,.12-.53l1.63.27q1.48.25,2.28.34l3.8.24a1.53,1.53,0,0,1,0,.48q-.06.5-.17.49a4.86,4.86,0,0,0-1.09.12q-.82.15-.91.35A11.11,11.11,0,0,0,222.26,59.63Z"/><path class="cls-1" d="M240.77,63.94a3.65,3.65,0,0,1,2.64,1.26,4.75,4.75,0,0,1,.55,3.4l-.64,5.82a1.35,1.35,0,0,0,.17.93.89.89,0,0,0,.67.39,1.85,1.85,0,0,0,1-.27c.11.05.16.17.14.34a1.78,1.78,0,0,1-.28.87,7.33,7.33,0,0,1-1.26.61,3.1,3.1,0,0,1-1.46.23,2.18,2.18,0,0,1-1.28-.65,2.45,2.45,0,0,1-.74-1.19l-.24.17q-.21.14-.58.34a8.51,8.51,0,0,1-.82.39,4.7,4.7,0,0,1-1,.29,4.3,4.3,0,0,1-1.19,0,3.54,3.54,0,0,1-2.32-1.08,2.82,2.82,0,0,1-.69-2.33,2.73,2.73,0,0,1,.49-1.29,3.55,3.55,0,0,1,.93-.93,6.06,6.06,0,0,1,1.36-.64,12.31,12.31,0,0,1,1.44-.43l1.53-.3,1.3-.25a.47.47,0,0,0,.32-.44l.18-1.63a2.56,2.56,0,0,0-.29-1.68,1.55,1.55,0,0,0-1.21-.73,1.8,1.8,0,0,0-1.45.39,2.22,2.22,0,0,0-.67,1.5,1,1,0,0,1-.54.82,1.85,1.85,0,0,1-1,.17,1.68,1.68,0,0,1-1.46-.88q.16-1.42,2.23-2.45A7.46,7.46,0,0,1,240.77,63.94Zm-2.58,11.2a2.3,2.3,0,0,0,1.42-.26,1.18,1.18,0,0,0,.68-.88l.33-3c-.14,0-.45.11-.9.2s-.81.17-1.06.24a7.93,7.93,0,0,0-.87.32,1.79,1.79,0,0,0-.77.57,1.64,1.64,0,0,0-.31.8,1.83,1.83,0,0,0,.32,1.44A1.71,1.71,0,0,0,238.19,75.14Z"/><path class="cls-1" d="M257.48,65.77A3,3,0,0,1,259.8,67q-.28,2.51-1.69,2.36a1.77,1.77,0,0,1-1.09-.72,1.86,1.86,0,0,0-1.21-.73,1.6,1.6,0,0,0-1.54.77,4,4,0,0,0-.73,1.88l-.41,3.69a12.54,12.54,0,0,0-.09,2.68q0,.21.74.51a4.21,4.21,0,0,0,1,.33c.06,0,.08.15.06.44a3,3,0,0,1-.08.57l-1.55-.29q-1.32-.24-2-.31t-2.06-.14l-1.6-.06a.88.88,0,0,1-.06-.57q0-.44.17-.43a4.15,4.15,0,0,0,1.1-.1q.75-.14.83-.34a9.67,9.67,0,0,0,.44-2.13l.53-4.82a2.83,2.83,0,0,0-.27-1.94,1.44,1.44,0,0,0-.62-.52,3.39,3.39,0,0,0-.69-.25c-.18,0-.27-.08-.27-.12.06-.57.14-.86.25-.87a42,42,0,0,0,4.86-.36l.24,0q.12,0,.18.23a.71.71,0,0,1,0,.35l-.09.41c0,.19-.09.38-.14.58a3.86,3.86,0,0,0-.09.39,5.45,5.45,0,0,1,1.61-1.27A3.26,3.26,0,0,1,257.48,65.77Z"/><path class="cls-1" d="M268.5,67a5.51,5.51,0,0,1,2.42.82,4.71,4.71,0,0,1,1.56,1.58,6.89,6.89,0,0,1,.76,1.85,5.13,5.13,0,0,1,.13,1.76q-.07.65-.31.79a1.69,1.69,0,0,1-.92.06l-7.06-.78c-.14,0-.21,0-.23.16a5.77,5.77,0,0,0,.16,2.11,4.08,4.08,0,0,0,1.12,1.89,3.5,3.5,0,0,0,2.15,1,8.06,8.06,0,0,0,.86,0,4.43,4.43,0,0,0,.78-.06l.64-.12a2.53,2.53,0,0,0,.58-.21l.43-.21.64-.33a.47.47,0,0,1,.13.19.57.57,0,0,1,.06.31.92.92,0,0,1-.24.54,4.83,4.83,0,0,1-1.92,1.4,5.51,5.51,0,0,1-3,.48A6,6,0,0,1,263,77.85,6.41,6.41,0,0,1,261.64,73a6.88,6.88,0,0,1,2.26-4.66A5.76,5.76,0,0,1,268.5,67Zm-.36,1.34a2.11,2.11,0,0,0-1.32.27,2.8,2.8,0,0,0-1,.91,5.8,5.8,0,0,0-.55,1.06,3.68,3.68,0,0,0-.23.86c0,.14,0,.21.16.23l4.79.53c.18,0,.28-.12.31-.41a3.85,3.85,0,0,0-.47-2.17A2.13,2.13,0,0,0,268.14,68.32Z"/><path class="cls-1" d="M282.89,68.5a5.12,5.12,0,0,1,2.11.65q.15,0,.2-.46l.3-2.78a10.34,10.34,0,0,0,0-2q-.1-.49-1.49-.64l-.24,0c-.12,0-.16-.18-.13-.49s.11-.47.23-.45q.9,0,1.75,0t1.42-.14q.56-.09,1-.19l.63-.15.24,0H289c.08,0,.15.07.22.19a.54.54,0,0,1,.08.32,11.42,11.42,0,0,0-.6,2.75l-1.43,13a10.81,10.81,0,0,0-.06,2.21.44.44,0,0,0,.26.36,1.81,1.81,0,0,0,.54.21l.56.11.29,0a.61.61,0,0,1,0,.36q-.07.59-.24.57-.42,0-1.06,0l-1.26.06-1.17.08-1.25.12c-.12,0-.16-.19-.12-.52l.06-.5a.13.13,0,0,0,0-.12.05.05,0,0,0-.07,0,5,5,0,0,1-3.19.76,5.76,5.76,0,0,1-4-2.22,6,6,0,0,1-1.29-4.61,7,7,0,0,1,2.57-4.79A6.51,6.51,0,0,1,282.89,68.5Zm-.42,1.39A2.6,2.6,0,0,0,280,71a7,7,0,0,0-1.19,3.49,7.18,7.18,0,0,0,.49,4,2.92,2.92,0,0,0,2.42,1.69,2.47,2.47,0,0,0,1.68-.34,1.64,1.64,0,0,0,.77-1.25l.68-6.21a2.08,2.08,0,0,0,0-.63,2.77,2.77,0,0,0-.28-.73,1.9,1.9,0,0,0-.73-.71A3.17,3.17,0,0,0,282.46,69.89Z"/><path class="cls-1" d="M299.18,70.35a6.55,6.55,0,0,1,4.53,2.46,6.37,6.37,0,0,1,1.45,4.9,6.73,6.73,0,0,1-13.39-1.47,6.4,6.4,0,0,1,2.45-4.49A6.51,6.51,0,0,1,299.18,70.35Zm-.54,1.35a2.4,2.4,0,0,0-2.31,1.11,6.4,6.4,0,0,0-1.12,3.12,8.67,8.67,0,0,0,.5,4.27,3,3,0,0,0,2.48,2.07,2.42,2.42,0,0,0,2.32-1.12A6.31,6.31,0,0,0,301.66,78a10.23,10.23,0,0,0-.07-2.89,5.26,5.26,0,0,0-1-2.34A2.76,2.76,0,0,0,298.65,71.7Z"/><path class="cls-1" d="M308.83,85.11a2.65,2.65,0,0,0-.31-1.28,2.69,2.69,0,0,1-.3-1.33,1.8,1.8,0,0,1,.76-1.17,2.21,2.21,0,0,1,1.69-.44,1.92,1.92,0,0,1,.93.28,4.64,4.64,0,0,1,.19,2.11,5.37,5.37,0,0,1-.39,1.39,8.55,8.55,0,0,1-1.57,2.59A13.34,13.34,0,0,1,307,89.4h0q-.15,0-.38-.36a.9.9,0,0,1-.21-.55,4.34,4.34,0,0,1,.55-.42,5.43,5.43,0,0,0,1.15-1.18A3.56,3.56,0,0,0,308.83,85.11Z"/><path class="cls-1" d="M6.66,128.13a3.65,3.65,0,0,1,2.72,1.09,4.76,4.76,0,0,1,.78,3.35l-.26,5.85a1.35,1.35,0,0,0,.23.92.89.89,0,0,0,.7.34,1.86,1.86,0,0,0,1-.34c.12,0,.17.16.16.33a1.76,1.76,0,0,1-.22.88,7.34,7.34,0,0,1-1.22.69,3.1,3.1,0,0,1-1.44.32A2.17,2.17,0,0,1,7.82,141,2.44,2.44,0,0,1,7,139.87l-.23.18q-.2.16-.55.38a8.71,8.71,0,0,1-.79.44,4.8,4.8,0,0,1-1,.36,4.31,4.31,0,0,1-1.18.11,3.55,3.55,0,0,1-2.38-.92A2.82,2.82,0,0,1,0,138.13a2.74,2.74,0,0,1,.4-1.32,3.55,3.55,0,0,1,.86-1,6.08,6.08,0,0,1,1.31-.73A12.15,12.15,0,0,1,4,134.57l1.51-.4,1.28-.33a.47.47,0,0,0,.29-.46l.07-1.63a2.55,2.55,0,0,0-.4-1.65,1.55,1.55,0,0,0-1.25-.65,1.8,1.8,0,0,0-1.42.49,2.22,2.22,0,0,0-.57,1.54,1,1,0,0,1-.48.86,1.84,1.84,0,0,1-1,.24,1.68,1.68,0,0,1-1.51-.78q.06-1.43,2.06-2.59A7.45,7.45,0,0,1,6.66,128.13ZM4.82,139.48a2.31,2.31,0,0,0,1.4-.36,1.18,1.18,0,0,0,.62-.92l.13-3q-.21.08-.89.26t-1,.31a8.06,8.06,0,0,0-.85.38,1.79,1.79,0,0,0-.73.62,1.64,1.64,0,0,0-.26.82A1.83,1.83,0,0,0,3.63,139,1.71,1.71,0,0,0,4.82,139.48Z"/><path class="cls-1" d="M24.47,128.91q3.83.17,3.56,6.26L27.91,138a12.48,12.48,0,0,0,.09,2.68q.05.21.8.47a4.57,4.57,0,0,0,1,.27c.06,0,.09.15.08.44a1.69,1.69,0,0,1-.07.58q-.18,0-1.55-.19T26.22,142q-.71,0-2,0l-1.54.05a.87.87,0,0,1-.09-.57q0-.45.14-.44a3.55,3.55,0,0,0,1-.18c.45-.13.7-.26.75-.4a8.56,8.56,0,0,0,.33-2.16l.12-2.82a6.46,6.46,0,0,0-.52-3.48A2.39,2.39,0,0,0,22.36,131a2.75,2.75,0,0,0-1.69.45,1.43,1.43,0,0,0-.76,1.08l-.22,5.11a12.48,12.48,0,0,0,.09,2.68q0,.21.77.46a4.26,4.26,0,0,0,1,.27q.12,0,.11.44a1.71,1.71,0,0,1-.07.58L20,141.87q-1.32-.15-2-.18t-2.07,0l-1.59,0a.87.87,0,0,1-.09-.57q0-.45.14-.44a4.14,4.14,0,0,0,1.09-.17c.49-.13.76-.26.81-.4a9.71,9.71,0,0,0,.3-2.16l.21-4.84a2.82,2.82,0,0,0-.39-1.92,1.43,1.43,0,0,0-.65-.48,3.41,3.41,0,0,0-.71-.21c-.19,0-.28-.06-.28-.1q0-.86.19-.88a42.15,42.15,0,0,0,4.82-.68l.08,0H20c.08,0,.15.08.2.22a.91.91,0,0,1,.08.33,10.16,10.16,0,0,0-.17,1.06c0,.08,0,.13,0,.15a.44.44,0,0,0,.15-.08,6.59,6.59,0,0,1,1.88-1.17A5.21,5.21,0,0,1,24.47,128.91Z"/><path class="cls-1" d="M39.7,129.52a5.12,5.12,0,0,1,2.15.51q.15,0,.17-.47l.12-2.79a10.42,10.42,0,0,0-.09-2q-.13-.48-1.52-.54h-.24c-.12,0-.17-.17-.16-.48s.08-.47.2-.47q.9,0,1.75-.16c.57-.07,1-.15,1.41-.24s.69-.17,1-.26l.62-.2.24-.06h.06a.32.32,0,0,1,.23.17.53.53,0,0,1,.11.32,11.37,11.37,0,0,0-.42,2.78l-.57,13.07a11,11,0,0,0,.08,2.21.44.44,0,0,0,.28.34,1.81,1.81,0,0,0,.56.17l.56.07.3,0a.62.62,0,0,1,0,.36c0,.4-.08.59-.2.59-.28,0-.63,0-1.06.07l-1.26.14-1.17.16-1.24.2c-.12,0-.17-.18-.16-.51l0-.5a.13.13,0,0,0,0-.12.05.05,0,0,0-.07,0,5,5,0,0,1-3.14,1,5.76,5.76,0,0,1-4.11-2,6,6,0,0,1-1.59-4.52,7,7,0,0,1,2.25-4.94A6.51,6.51,0,0,1,39.7,129.52Zm-.33,1.41a2.6,2.6,0,0,0-2.43,1.23,7,7,0,0,0-1,3.56,7.17,7.17,0,0,0,.75,4,2.92,2.92,0,0,0,2.52,1.52,2.47,2.47,0,0,0,1.66-.45,1.64,1.64,0,0,0,.68-1.29l.27-6.24a2.09,2.09,0,0,0-.08-.63,2.8,2.8,0,0,0-.33-.71,1.88,1.88,0,0,0-.77-.66A3.15,3.15,0,0,0,39.37,130.93Z"/><path class="cls-1" d="M62.88,130.59a7.19,7.19,0,0,1,2.78.64,4.73,4.73,0,0,1,1.72,1.22,3.67,3.67,0,0,1-.41,1.66,1.1,1.1,0,0,1-1.05.62,1.33,1.33,0,0,1-.89-.34,3.39,3.39,0,0,1-.66-1,2.15,2.15,0,0,0-1.93-1.45,2.29,2.29,0,0,0-2.09,1.2,6.36,6.36,0,0,0-.9,3.22,6,6,0,0,0,.93,4,3.51,3.51,0,0,0,2.74,1.41,8,8,0,0,0,.86,0,4.39,4.39,0,0,0,.78-.11l.63-.17a2.52,2.52,0,0,0,.56-.24l.41-.23.61-.38a.49.49,0,0,1,.14.18.57.57,0,0,1,.08.3.91.91,0,0,1-.2.56,4.84,4.84,0,0,1-1.82,1.53,5.46,5.46,0,0,1-2.95.67,6,6,0,0,1-4.42-2.13,6.56,6.56,0,0,1-1.65-4.8,6.76,6.76,0,0,1,2-4.6A6,6,0,0,1,62.88,130.59Z"/><path class="cls-1" d="M77,131.21a6.55,6.55,0,0,1,4.68,2.15,6.37,6.37,0,0,1,1.77,4.79A6.73,6.73,0,0,1,70,137.57a6.4,6.4,0,0,1,2.15-4.64A6.52,6.52,0,0,1,77,131.21Zm-.45,1.38a2.39,2.39,0,0,0-2.23,1.26,6.39,6.39,0,0,0-.91,3.19,8.68,8.68,0,0,0,.78,4.23,3,3,0,0,0,2.61,1.9,2.42,2.42,0,0,0,2.24-1.27,6.32,6.32,0,0,0,.93-3.17,10.24,10.24,0,0,0-.26-2.88,5.24,5.24,0,0,0-1.15-2.27A2.75,2.75,0,0,0,76.59,132.59Z"/><path class="cls-1" d="M87.84,138.71a8,8,0,0,1,.15-1q.14-.71.34-.7l12.62.55q.18,0,.17.27a7.34,7.34,0,0,1-.34,1.53.34.34,0,0,1-.08.13.14.14,0,0,1-.11,0l0,0L88,139l-.12-.06A.36.36,0,0,1,87.84,138.71Z"/><path class="cls-1" d="M112.65,125.25a5.87,5.87,0,0,1,2.05.4,2.08,2.08,0,0,1,1.05.81,3.33,3.33,0,0,1-.24,1.64,1.07,1.07,0,0,1-1.12.68,1.16,1.16,0,0,1-.88-.53q-.38-.51-.8-1a1.37,1.37,0,0,0-1-.54,1.58,1.58,0,0,0-1.37.71,5,5,0,0,0-.84,1.84,12.2,12.2,0,0,0-.33,2.4l-.06,1.37s0,.05.06.09a.17.17,0,0,0,.12.06l3.27.14a.24.24,0,0,1,.15,0,.31.31,0,0,1,0,.18,3,3,0,0,1-.42,1.35l-3.09-.14a.16.16,0,0,0-.19.17l-.29,6.62a11.39,11.39,0,0,0,.12,2.68q0,.21.77.46a4.2,4.2,0,0,0,1,.27q.09,0,.08.44a1.69,1.69,0,0,1-.07.58q-.18,0-1.54-.19t-2.08-.18q-.71,0-2,0l-1.55.05a.57.57,0,0,1-.1-.33,1.8,1.8,0,0,1,0-.46c0-.15.07-.22.13-.22a4,4,0,0,0,1-.18q.72-.19.79-.4a9.85,9.85,0,0,0,.37-2.42l.3-6.83c0-.14,0-.21-.17-.22l-1.78-.08s-.06-.06-.05-.18a1.59,1.59,0,0,1,.45-.84,1.2,1.2,0,0,1,1-.49l.47,0a.16.16,0,0,0,.19-.17v-.3a8.09,8.09,0,0,1,2.09-5.26A5.56,5.56,0,0,1,112.65,125.25Z"/><path class="cls-1" d="M121.84,133.18a6.56,6.56,0,0,1,4.68,2.15,6.38,6.38,0,0,1,1.77,4.79,6.73,6.73,0,0,1-13.45-.59A6.4,6.4,0,0,1,117,134.9,6.51,6.51,0,0,1,121.84,133.18Zm-.45,1.38a2.39,2.39,0,0,0-2.23,1.26,6.39,6.39,0,0,0-.91,3.19,8.67,8.67,0,0,0,.78,4.23,3,3,0,0,0,2.61,1.9,2.42,2.42,0,0,0,2.24-1.27,6.32,6.32,0,0,0,.93-3.17,10.21,10.21,0,0,0-.26-2.88,5.25,5.25,0,0,0-1.15-2.27A2.76,2.76,0,0,0,121.4,134.56Z"/><path class="cls-1" d="M143.94,137.36l-.26,5.88a6.55,6.55,0,0,0,.15,2.09.62.62,0,0,0,.33.25,2.28,2.28,0,0,0,.51.14l.49.05a.55.55,0,0,1,.25,0q.12,0,.11.27a2.37,2.37,0,0,1-.08.4q-.07.28-.19.27a6.89,6.89,0,0,0-1.06.06L143,147l-1.14.17-1.2.19q-.21,0-.19-.48l.06-1.31c0-.1,0-.15-.08-.15a6.64,6.64,0,0,1-1.87,1.26,5,5,0,0,1-2.37.49,3.12,3.12,0,0,1-1.75-.58,3.58,3.58,0,0,1-1.13-1.36,6.39,6.39,0,0,1-.55-1.75,9.07,9.07,0,0,1-.11-1.88l.15-3.33a2.83,2.83,0,0,0-.39-1.92,1.66,1.66,0,0,0-.66-.48,3.1,3.1,0,0,0-.71-.21c-.2,0-.29-.06-.29-.1q0-.86.19-.88a22.48,22.48,0,0,0,2.45-.25,23.47,23.47,0,0,0,2.37-.43l.12,0,.12,0c.1,0,.17.08.21.22a1,1,0,0,1,.06.33q-.36,2-.38,2.6l-.16,3.56a6.36,6.36,0,0,0,.51,3.35,2.62,2.62,0,0,0,3.69.59,1.58,1.58,0,0,0,.7-1.08l.21-4.9a2.83,2.83,0,0,0-.39-1.92,1.45,1.45,0,0,0-.65-.48,3.38,3.38,0,0,0-.72-.21c-.2,0-.29-.06-.29-.1q0-.86.22-.88a22.78,22.78,0,0,0,2.42-.25,23.5,23.5,0,0,0,2.37-.43l.24,0c.1,0,.18.08.23.22a.54.54,0,0,1,0,.33Q144,136.82,143.94,137.36Z"/><path class="cls-1" d="M158.21,134.77q3.83.17,3.56,6.26l-.12,2.82a12.41,12.41,0,0,0,.09,2.68c0,.14.3.3.8.47a4.54,4.54,0,0,0,1,.27c.06,0,.09.15.08.44a1.69,1.69,0,0,1-.07.58q-.18,0-1.55-.19c-.92-.1-1.6-.16-2.06-.18s-1.14,0-2,0l-1.54.05a.87.87,0,0,1-.09-.57q0-.45.14-.44a3.56,3.56,0,0,0,1-.18c.45-.13.7-.26.75-.4a8.47,8.47,0,0,0,.33-2.16l.12-2.82a6.45,6.45,0,0,0-.52-3.48,2.39,2.39,0,0,0-2.08-1.07,2.75,2.75,0,0,0-1.68.45,1.43,1.43,0,0,0-.76,1.08l-.22,5.11a12.47,12.47,0,0,0,.09,2.68c0,.14.29.29.77.47a4.26,4.26,0,0,0,1,.27q.12,0,.11.44a1.7,1.7,0,0,1-.07.58l-1.55-.19q-1.32-.15-2-.18t-2.07,0l-1.59,0A.87.87,0,0,1,148,147c0-.3.06-.44.14-.44a4.14,4.14,0,0,0,1.09-.18c.49-.13.76-.26.81-.4a9.67,9.67,0,0,0,.3-2.16l.21-4.84a2.83,2.83,0,0,0-.39-1.92,1.44,1.44,0,0,0-.65-.47,3.38,3.38,0,0,0-.71-.21c-.19,0-.28-.06-.28-.1,0-.57.09-.87.19-.88a42.15,42.15,0,0,0,4.82-.68l.08,0h.16c.08,0,.15.08.2.22a.89.89,0,0,1,.08.33,9.91,9.91,0,0,0-.17,1.06c0,.08,0,.13,0,.15a.45.45,0,0,0,.15-.08,6.57,6.57,0,0,1,1.88-1.17A5.2,5.2,0,0,1,158.21,134.77Z"/><path class="cls-1" d="M173.44,135.38a5.11,5.11,0,0,1,2.15.51q.15,0,.17-.47l.12-2.79a10.34,10.34,0,0,0-.09-2q-.13-.48-1.52-.54H174q-.18,0-.16-.48t.2-.47q.9,0,1.75-.16c.57-.07,1-.15,1.41-.24s.69-.17,1-.25l.62-.2.24-.06h.06a.32.32,0,0,1,.23.17.55.55,0,0,1,.1.32,11.37,11.37,0,0,0-.42,2.78l-.57,13.07a10.93,10.93,0,0,0,.08,2.21.44.44,0,0,0,.28.34,1.81,1.81,0,0,0,.56.17l.56.07.29,0a.62.62,0,0,1,0,.36c0,.4-.09.59-.21.59q-.42,0-1.06.07l-1.26.14-1.17.16-1.24.2q-.18,0-.16-.51l0-.5a.13.13,0,0,0,0-.12.05.05,0,0,0-.07,0,5,5,0,0,1-3.14,1,5.76,5.76,0,0,1-4.11-2,6,6,0,0,1-1.59-4.52,7,7,0,0,1,2.26-4.94A6.51,6.51,0,0,1,173.44,135.38Zm-.33,1.41a2.6,2.6,0,0,0-2.43,1.23,7,7,0,0,0-1,3.56,7.18,7.18,0,0,0,.75,4,2.92,2.92,0,0,0,2.52,1.52,2.48,2.48,0,0,0,1.66-.45,1.65,1.65,0,0,0,.68-1.29l.27-6.24a2.07,2.07,0,0,0-.08-.63,2.78,2.78,0,0,0-.33-.71,1.91,1.91,0,0,0-.77-.66A3.16,3.16,0,0,0,173.11,136.79Z"/><path class="cls-1" d="M188,145a11,11,0,0,0,.12,2.68c0,.14.29.3.78.47a4.35,4.35,0,0,0,1,.27q.12,0,.11.44a1.66,1.66,0,0,1-.07.58l-1.58-.19q-1.38-.15-2-.18t-2.1,0l-1.56.05a.87.87,0,0,1-.09-.57c0-.3.06-.44.14-.44a4.29,4.29,0,0,0,1.08-.18c.5-.13.77-.26.82-.4a9.67,9.67,0,0,0,.3-2.16l.21-4.84a2.82,2.82,0,0,0-.39-1.92,1.66,1.66,0,0,0-.66-.48,3.11,3.11,0,0,0-.71-.21c-.2,0-.29-.06-.29-.1,0-.57.1-.87.22-.88a22.92,22.92,0,0,0,2.42-.25,23.53,23.53,0,0,0,2.37-.43l.24,0c.1,0,.17.08.23.22a.54.54,0,0,1,0,.33,25.34,25.34,0,0,0-.35,2.54Zm-2.54-12.56a1.81,1.81,0,0,1-.48-1.33,1.76,1.76,0,0,1,.59-1.27,1.87,1.87,0,0,1,2.61.11,1.76,1.76,0,0,1,.48,1.31,1.81,1.81,0,0,1-.59,1.28,1.83,1.83,0,0,1-2.61-.11Z"/><path class="cls-1" d="M202.65,136.72q3.83.17,3.56,6.26l-.12,2.82a12.41,12.41,0,0,0,.09,2.68c0,.14.3.3.8.47a4.54,4.54,0,0,0,1,.27c.06,0,.09.15.08.44a1.69,1.69,0,0,1-.07.58q-.18,0-1.55-.19c-.92-.1-1.61-.16-2.06-.18s-1.14,0-2,0l-1.54.05a.87.87,0,0,1-.09-.57q0-.45.14-.44a3.54,3.54,0,0,0,1-.18c.45-.13.7-.26.75-.4a8.48,8.48,0,0,0,.33-2.16l.12-2.82a6.46,6.46,0,0,0-.52-3.47,2.39,2.39,0,0,0-2.08-1.07,2.75,2.75,0,0,0-1.69.45,1.43,1.43,0,0,0-.76,1.08l-.22,5.11a12.48,12.48,0,0,0,.09,2.68c0,.14.29.29.77.47a4.29,4.29,0,0,0,1,.26q.12,0,.11.44a1.69,1.69,0,0,1-.07.58l-1.55-.19q-1.32-.15-2-.18t-2.07,0l-1.6,0a.88.88,0,0,1-.09-.57c0-.3.06-.44.14-.44a4.16,4.16,0,0,0,1.09-.18c.49-.13.76-.26.81-.4a9.66,9.66,0,0,0,.3-2.16L195,141a2.83,2.83,0,0,0-.39-1.92,1.44,1.44,0,0,0-.65-.47,3.37,3.37,0,0,0-.71-.21c-.19,0-.28-.06-.28-.1,0-.57.09-.87.19-.88a42.08,42.08,0,0,0,4.82-.68l.08,0h.16c.08,0,.15.08.2.22a.89.89,0,0,1,.08.33,9.89,9.89,0,0,0-.17,1.06.23.23,0,0,0,0,.15.46.46,0,0,0,.15-.08,6.58,6.58,0,0,1,1.88-1.17A5.21,5.21,0,0,1,202.65,136.72Z"/><path class="cls-1" d="M216.86,137.4a9.42,9.42,0,0,1,2.45.49,9.19,9.19,0,0,0,2.36.49l1.69.07s.1.13.19.4a1.85,1.85,0,0,1,.12.6q0,.42-.2.41l-1.93-.08c-.08,0-.12,0-.12.08s.08.28.23.78a4.23,4.23,0,0,1,.21,1.44,4.3,4.3,0,0,1-1.61,3.1,5.1,5.1,0,0,1-3.73,1.25,12.28,12.28,0,0,1-1.84-.2,1.59,1.59,0,0,0-.68.52,1.27,1.27,0,0,0-.33.71.61.61,0,0,0,.26.52,2,2,0,0,0,.86.33q.59.12,1,.16l1.19.11.45,0a10.51,10.51,0,0,1,4.32,1,2.34,2.34,0,0,1,1.29,2.24,4.67,4.67,0,0,1-2.31,3.77,8.13,8.13,0,0,1-5.09,1.41,7.72,7.72,0,0,1-3.75-1,2.67,2.67,0,0,1-1.51-2.51,2.31,2.31,0,0,1,.92-1.63,4.93,4.93,0,0,1,1.88-1,3.39,3.39,0,0,1-1.39-1,2.17,2.17,0,0,1-.58-1.59q.06-1.28,2.31-2.55a3.94,3.94,0,0,1-1.54-1.6,4.39,4.39,0,0,1-.64-2.45,4,4,0,0,1,1.69-3.26A5.91,5.91,0,0,1,216.86,137.4Zm3.42,15.71q0-1-1.44-1.45a18.86,18.86,0,0,0-4-.52l-.15,0-.15.08q-.39.13-.61.23a2.5,2.5,0,0,0-.49.31,1.44,1.44,0,0,0-.42.5,1.73,1.73,0,0,0-.17.71,2.08,2.08,0,0,0,1.05,1.83,4.63,4.63,0,0,0,2.49.82,4.49,4.49,0,0,0,2.75-.65A2.32,2.32,0,0,0,220.28,153.11Zm-5.86-11.5a4.68,4.68,0,0,0,.49,2.48,1.84,1.84,0,0,0,1.62,1.07,1.76,1.76,0,0,0,1.66-.78,3.94,3.94,0,0,0,.61-2.07,4.88,4.88,0,0,0-.48-2.58,1.9,1.9,0,0,0-1.68-1.06,1.68,1.68,0,0,0-1.62.85A4.32,4.32,0,0,0,214.42,141.61Z"/><path class="cls-1" d="M252,151.14c.08,0,.11.19.09.57a1.32,1.32,0,0,1-.08.41l-3.76-.34-1.25,0H245.6l-1.27,0a.58.58,0,0,1-.1-.42c0-.38.06-.56.14-.56a4.74,4.74,0,0,0,1.12-.16q.77-.17.87-.41a10.43,10.43,0,0,0,.35-2.48l.22-5.11-.05-.12q-2.79-.18-3.92-.23a35.53,35.53,0,0,0-4.11,0l-.22,5a11,11,0,0,0,.15,2.69q0,.21.8.47a4.55,4.55,0,0,0,1,.27c.08,0,.11.19.09.57a1.31,1.31,0,0,1-.08.41l-3.76-.34-1.25,0h-1.44l-1.26,0a.58.58,0,0,1-.1-.42c0-.38.07-.56.14-.56a4.69,4.69,0,0,0,1.12-.16c.51-.12.8-.25.87-.41a10.43,10.43,0,0,0,.35-2.48l.5-11.46a9,9,0,0,0-.13-2.51q-.11-.24-.81-.5a4,4,0,0,0-1.06-.27c-.08,0-.11-.15-.1-.45a1.19,1.19,0,0,1,.08-.53l1.64.16q1.49.16,2.3.19h3.81a1.5,1.5,0,0,1,.07.48c0,.34-.06.5-.14.5a4.84,4.84,0,0,0-1.08.19q-.81.2-.88.41a11,11,0,0,0-.35,2.6l-.19,4.34.06.09q2.91.19,4,.24t3.92.11a.17.17,0,0,0,.07-.12l.19-4.43a9,9,0,0,0-.13-2.5c-.07-.16-.34-.33-.81-.5a4,4,0,0,0-1.06-.27q-.12,0-.1-.45a1.21,1.21,0,0,1,.08-.53l1.65.16q1.5.15,2.3.19H253a1.5,1.5,0,0,1,.07.48c0,.34-.06.5-.14.5a4.84,4.84,0,0,0-1.08.19q-.81.2-.88.41a11,11,0,0,0-.35,2.6l-.49,11.17a11,11,0,0,0,.15,2.69c0,.14.3.3.8.47A4.53,4.53,0,0,0,252,151.14Z"/><path class="cls-1" d="M262,139.32a6.56,6.56,0,0,1,4.68,2.15,6.37,6.37,0,0,1,1.77,4.79,6.73,6.73,0,0,1-13.45-.59,6.4,6.4,0,0,1,2.15-4.64A6.52,6.52,0,0,1,262,139.32Zm-.45,1.38a2.39,2.39,0,0,0-2.23,1.26,6.4,6.4,0,0,0-.91,3.19,8.66,8.66,0,0,0,.78,4.23,3,3,0,0,0,2.61,1.9,2.42,2.42,0,0,0,2.24-1.27,6.31,6.31,0,0,0,.93-3.17,10.24,10.24,0,0,0-.26-2.88,5.26,5.26,0,0,0-1.15-2.27A2.76,2.76,0,0,0,261.6,140.7Z"/><path class="cls-1" d="M281,140.15a3.22,3.22,0,0,1,1.9.66,3.48,3.48,0,0,1,1.12,1.55,7,7,0,0,1,2.23-1.39,6.67,6.67,0,0,1,2.82-.47,3.37,3.37,0,0,1,1.8.56,3.29,3.29,0,0,1,1.13,1.37,7,7,0,0,1,.54,1.87,11.3,11.3,0,0,1,.1,2.16l-.14,3.12a12.47,12.47,0,0,0,.09,2.68q0,.21.78.47a4.36,4.36,0,0,0,1,.27c.06,0,.09.15.08.44a1.69,1.69,0,0,1-.07.58l-1.55-.19q-1.35-.15-2-.18t-2,0l-1.6,0a1.11,1.11,0,0,1-.06-.57q0-.45.11-.44a4,4,0,0,0,1.08-.18q.72-.19.79-.4a9.24,9.24,0,0,0,.3-2.07l.13-3q.19-4.31-2.57-4.43a2.71,2.71,0,0,0-1.65.4,1.86,1.86,0,0,0-.81.89c0,.06,0,.14,0,.24a.57.57,0,0,0,0,.24,14.48,14.48,0,0,1,0,1.85l-.14,3.15a11.74,11.74,0,0,0,.1,2.56q.05.21.78.47a4.37,4.37,0,0,0,1,.27c.06,0,.09.15.08.44a1.66,1.66,0,0,1-.07.58l-1.55-.19q-1.35-.15-2-.18t-2,0l-1.59,0a1.11,1.11,0,0,1-.06-.57c0-.3,0-.44.11-.44a4,4,0,0,0,1.08-.18q.72-.19.79-.4a9.67,9.67,0,0,0,.3-2.16l.13-2.85a6.31,6.31,0,0,0-.54-3.39,2.27,2.27,0,0,0-2-1.13,2.84,2.84,0,0,0-1.66.43,1.4,1.4,0,0,0-.79,1.1l-.22,5.11a11,11,0,0,0,.12,2.68q.05.21.75.46a4,4,0,0,0,1,.27q.12,0,.11.44a1.69,1.69,0,0,1-.07.58l-1.55-.19q-1.32-.15-2-.18t-2.08,0l-1.58.05a.87.87,0,0,1-.09-.57c0-.3.06-.44.14-.44a4.33,4.33,0,0,0,1.08-.18q.75-.19.82-.4a9.67,9.67,0,0,0,.3-2.16l.21-4.84a2.83,2.83,0,0,0-.39-1.92,1.44,1.44,0,0,0-.65-.47,3.33,3.33,0,0,0-.72-.21c-.2,0-.29-.06-.29-.1,0-.57.1-.87.22-.88a41,41,0,0,0,4.79-.68.18.18,0,0,1,.09,0h.15q.15,0,.23.22a.54.54,0,0,1,0,.33,10.18,10.18,0,0,0-.17,1.06c0,.08,0,.13.05.15a.46.46,0,0,0,.15-.08,6.58,6.58,0,0,1,1.88-1.17A5.21,5.21,0,0,1,281,140.15Z"/><path class="cls-1" d="M302.18,150a11,11,0,0,0,.12,2.68q.05.21.78.47a4.35,4.35,0,0,0,1,.27c.08,0,.12.15.12.44a1.69,1.69,0,0,1-.07.58l-1.58-.19q-1.38-.15-2-.18t-2.1,0l-1.56.05a.87.87,0,0,1-.09-.57c0-.3.06-.44.14-.44a4.34,4.34,0,0,0,1.08-.18c.5-.13.77-.26.82-.4a9.67,9.67,0,0,0,.3-2.16l.21-4.84a2.83,2.83,0,0,0-.39-1.92,1.65,1.65,0,0,0-.66-.48,3.13,3.13,0,0,0-.71-.21c-.2,0-.29-.06-.29-.1,0-.57.1-.87.22-.88a22.76,22.76,0,0,0,2.42-.25,23.42,23.42,0,0,0,2.37-.43l.24,0c.1,0,.17.08.23.22a.55.55,0,0,1,0,.33q-.32,1.89-.35,2.54Zm-2.54-12.56a1.81,1.81,0,0,1-.48-1.33,1.83,1.83,0,0,1,1.92-1.75,1.83,1.83,0,0,1,1.76,1.91,1.81,1.81,0,0,1-.59,1.28,1.83,1.83,0,0,1-2.61-.11Z"/><path class="cls-1" d="M313.19,141.56a5.51,5.51,0,0,1,2.47.66,4.71,4.71,0,0,1,1.66,1.47,6.93,6.93,0,0,1,.87,1.79,5.12,5.12,0,0,1,.25,1.75q0,.65-.26.81a1.68,1.68,0,0,1-.91.12l-7.1-.31c-.14,0-.21.05-.22.17a5.76,5.76,0,0,0,.3,2.1,4.09,4.09,0,0,0,1.24,1.81,3.5,3.5,0,0,0,2.21.84,8,8,0,0,0,.86,0,4.46,4.46,0,0,0,.78-.11l.63-.17a2.52,2.52,0,0,0,.56-.24L317,152l.61-.37a.47.47,0,0,1,.14.18.57.57,0,0,1,.08.3.91.91,0,0,1-.2.56,4.83,4.83,0,0,1-1.82,1.53,5.51,5.51,0,0,1-3,.67,6,6,0,0,1-4.37-2.11,6.41,6.41,0,0,1-1.67-4.73,6.88,6.88,0,0,1,2-4.79A5.76,5.76,0,0,1,313.19,141.56Zm-.27,1.36a2.1,2.1,0,0,0-1.29.36,2.77,2.77,0,0,0-.9,1,5.68,5.68,0,0,0-.48,1.09,3.65,3.65,0,0,0-.17.87q0,.21.17.22l4.81.21c.18,0,.27-.14.29-.43a3.85,3.85,0,0,0-.61-2.14A2.13,2.13,0,0,0,312.92,142.92Z"/><path class="cls-1" d="M346.74,155.29c.08,0,.11.19.09.57a1.34,1.34,0,0,1-.08.41l-3.76-.34-1.25,0h-1.45l-1.27,0a.58.58,0,0,1-.1-.42q0-.56.14-.56a4.71,4.71,0,0,0,1.12-.16q.77-.17.87-.41a10.39,10.39,0,0,0,.35-2.48l.22-5.11-.05-.12q-2.79-.18-3.92-.23a35.5,35.5,0,0,0-4.1,0l-.22,5a11,11,0,0,0,.15,2.68q0,.21.8.47a4.55,4.55,0,0,0,1,.27c.08,0,.11.19.09.57a1.34,1.34,0,0,1-.08.41l-3.76-.34-1.25,0h-1.44l-1.26,0a.58.58,0,0,1-.1-.42c0-.38.06-.56.14-.56a4.74,4.74,0,0,0,1.12-.16c.51-.12.8-.25.87-.41a10.39,10.39,0,0,0,.35-2.48l.5-11.46a8.92,8.92,0,0,0-.13-2.5q-.11-.24-.81-.5a4,4,0,0,0-1.06-.27q-.12,0-.1-.45a1.19,1.19,0,0,1,.08-.53l1.64.16q1.49.15,2.3.19h3.81a1.53,1.53,0,0,1,.07.48c0,.34-.06.5-.14.5a4.86,4.86,0,0,0-1.08.19q-.81.2-.88.41a11.12,11.12,0,0,0-.35,2.6l-.19,4.34.06.09q2.91.19,4,.24t3.92.11a.17.17,0,0,0,.06-.12l.19-4.43a8.92,8.92,0,0,0-.13-2.5c-.07-.16-.34-.33-.81-.5a4,4,0,0,0-1.06-.27c-.08,0-.11-.15-.1-.45a1.21,1.21,0,0,1,.08-.53l1.65.16q1.5.15,2.3.19h3.81a1.53,1.53,0,0,1,.07.48c0,.34-.06.5-.14.5a4.84,4.84,0,0,0-1.08.19q-.81.2-.88.41a11.05,11.05,0,0,0-.35,2.6l-.49,11.17a11,11,0,0,0,.15,2.68c0,.14.3.3.8.47A4.53,4.53,0,0,0,346.74,155.29Z"/><path class="cls-1" d="M356.74,143.47a6.56,6.56,0,0,1,4.68,2.15,6.38,6.38,0,0,1,1.77,4.79,6.73,6.73,0,0,1-13.45-.59,6.4,6.4,0,0,1,2.15-4.64A6.52,6.52,0,0,1,356.74,143.47Zm-.45,1.38a2.39,2.39,0,0,0-2.23,1.26,6.38,6.38,0,0,0-.91,3.19,8.66,8.66,0,0,0,.78,4.23,3,3,0,0,0,2.61,1.9,2.42,2.42,0,0,0,2.24-1.27,6.32,6.32,0,0,0,.93-3.17,10.21,10.21,0,0,0-.26-2.88,5.25,5.25,0,0,0-1.15-2.27A2.76,2.76,0,0,0,356.29,144.85Z"/><path class="cls-1" d="M378.83,147.65l-.26,5.88a6.58,6.58,0,0,0,.15,2.09.62.62,0,0,0,.33.25,2.3,2.3,0,0,0,.52.14l.49.05a.55.55,0,0,1,.25,0c.08,0,.11.11.11.27a2.13,2.13,0,0,1-.08.4c0,.19-.11.28-.19.27a6.85,6.85,0,0,0-1.06.06l-1.24.15-1.14.17-1.2.19q-.21,0-.19-.48l.06-1.31c0-.1,0-.15-.08-.15a6.65,6.65,0,0,1-1.87,1.26,5,5,0,0,1-2.37.49,3.11,3.11,0,0,1-1.74-.58,3.58,3.58,0,0,1-1.13-1.36,6.39,6.39,0,0,1-.55-1.75,9.07,9.07,0,0,1-.11-1.88l.15-3.33a2.83,2.83,0,0,0-.39-1.92,1.66,1.66,0,0,0-.66-.48,3.12,3.12,0,0,0-.71-.21c-.2,0-.29-.06-.29-.1,0-.57.09-.87.19-.88a22.47,22.47,0,0,0,2.45-.25,23.36,23.36,0,0,0,2.37-.43l.12,0,.12,0q.15,0,.21.22a1,1,0,0,1,.06.33q-.36,2-.38,2.6l-.16,3.56a6.36,6.36,0,0,0,.51,3.35,2.62,2.62,0,0,0,3.69.59,1.58,1.58,0,0,0,.7-1.08l.21-4.9a2.83,2.83,0,0,0-.39-1.92,1.44,1.44,0,0,0-.65-.48,3.38,3.38,0,0,0-.72-.21c-.2,0-.29-.06-.29-.1q0-.86.22-.88a22.9,22.9,0,0,0,2.42-.25,23.53,23.53,0,0,0,2.37-.43l.24,0c.1,0,.18.08.23.22a.54.54,0,0,1,0,.33Q378.86,147.12,378.83,147.65Z"/><path class="cls-1" d="M388.23,144.82a12.63,12.63,0,0,1,3.42.66,16.76,16.76,0,0,1,.18,3.34q0,.24-.4.22c-.43,0-.67-.11-.7-.27a3.61,3.61,0,0,0-.8-1.81,2.32,2.32,0,0,0-1.76-.81,2.13,2.13,0,0,0-1.37.33,1.32,1.32,0,0,0-.54,1.08,1.71,1.71,0,0,0,.13.76,1.84,1.84,0,0,0,.51.66,7.2,7.2,0,0,0,.63.5c.18.13.46.3.82.51a2,2,0,0,0,.29.16l.43.26.48.29.46.3a5.28,5.28,0,0,1,.5.36l.45.38a2.33,2.33,0,0,1,.43.44l.34.48a1.94,1.94,0,0,1,.29.55,5.56,5.56,0,0,1,.14.57,2.71,2.71,0,0,1,0,.64,3.5,3.5,0,0,1-1.57,2.89,5.64,5.64,0,0,1-3.54.93,9.93,9.93,0,0,1-3.79-1,11.83,11.83,0,0,1-.22-1.66,14.7,14.7,0,0,1-.08-1.71.64.64,0,0,1,.42-.13c.45,0,.69.11.7.27a3.28,3.28,0,0,0,1.09,2.06,3.16,3.16,0,0,0,2,.85,2.16,2.16,0,0,0,1.38-.36,1.45,1.45,0,0,0,.59-1.19,1.91,1.91,0,0,0-.05-.55,1.43,1.43,0,0,0-.26-.52l-.32-.43a2.15,2.15,0,0,0-.52-.42l-.58-.37-.73-.42-.74-.43a6.91,6.91,0,0,1-2-1.68,3.43,3.43,0,0,1,.9-4.89A5.74,5.74,0,0,1,388.23,144.82Z"/><path class="cls-1" d="M401.26,145.42a5.51,5.51,0,0,1,2.47.66,4.71,4.71,0,0,1,1.66,1.47,7,7,0,0,1,.87,1.79,5.14,5.14,0,0,1,.25,1.75q0,.65-.26.81a1.68,1.68,0,0,1-.91.12l-7.1-.31c-.14,0-.21.05-.21.17a5.76,5.76,0,0,0,.29,2.1,4.09,4.09,0,0,0,1.24,1.81,3.5,3.5,0,0,0,2.21.84,8.15,8.15,0,0,0,.86,0,4.4,4.4,0,0,0,.78-.11l.63-.17a2.54,2.54,0,0,0,.56-.24l.41-.23.61-.38a.46.46,0,0,1,.14.18.57.57,0,0,1,.08.3.91.91,0,0,1-.2.56,4.84,4.84,0,0,1-1.82,1.53,5.51,5.51,0,0,1-3,.67,6,6,0,0,1-4.37-2.11,6.41,6.41,0,0,1-1.67-4.73,6.88,6.88,0,0,1,2-4.79A5.76,5.76,0,0,1,401.26,145.42Zm-.27,1.36a2.1,2.1,0,0,0-1.29.36,2.79,2.79,0,0,0-.9,1,5.69,5.69,0,0,0-.48,1.09,3.69,3.69,0,0,0-.17.87c0,.14.05.21.17.22l4.81.21q.27,0,.29-.43a3.85,3.85,0,0,0-.61-2.14A2.13,2.13,0,0,0,401,146.78Z"/><path class="cls-1" d="M420.48,139.83q.86,0,2,0t2,0a9.65,9.65,0,0,1,1.76.24,7.17,7.17,0,0,1,1.73.66,6.24,6.24,0,0,1,1.5,1.09,4.69,4.69,0,0,1,1,1.61,5.08,5.08,0,0,1,.34,2.13,5.66,5.66,0,0,1-.85,2.7,6.24,6.24,0,0,1-2.3,2.18,6,6,0,0,1-3.35.79,3.69,3.69,0,0,1-1.24-.28,1.77,1.77,0,0,1-.84-.59.65.65,0,0,1-.09-.3,1.36,1.36,0,0,1,0-.45c0-.14.06-.21.1-.2a4.15,4.15,0,0,0,1.65.37,2.63,2.63,0,0,0,2.31-1.07,5,5,0,0,0,1-2.92,5.45,5.45,0,0,0-.66-3.18,2.8,2.8,0,0,0-2.42-1.27,4.85,4.85,0,0,0-1.73.13q-.36.16-.49,3.07l-.46,10.6a9.27,9.27,0,0,0,.13,2.54c0,.24.37.45,1,.62a6.26,6.26,0,0,0,1.31.28q.12,0,.1.51a1.68,1.68,0,0,1-.08.5q-3.26-.32-4.21-.36c-.53,0-1.14,0-1.8,0h-1.59l-.6,0a1,1,0,0,1-.07-.54c0-.32,0-.47.11-.47a5.07,5.07,0,0,0,1.15-.14q.77-.16.9-.42a11.69,11.69,0,0,0,.3-2.69l.49-11.23a11.59,11.59,0,0,0-.07-2.44q-.08-.24-.85-.53a4.33,4.33,0,0,0-1.13-.3c-.08,0-.11-.15-.1-.45s.06-.47.14-.53Q419.64,139.8,420.48,139.83Z"/><path class="cls-1" d="M442,147.2a3,3,0,0,1,2.39,1.09q-.11,2.52-1.54,2.46a1.77,1.77,0,0,1-1.13-.65,1.86,1.86,0,0,0-1.25-.65,1.59,1.59,0,0,0-1.48.87,4,4,0,0,0-.61,1.92l-.16,3.71a12.47,12.47,0,0,0,.09,2.68c0,.14.29.29.77.47a4.19,4.19,0,0,0,1,.27c.06,0,.09.15.08.44a3.16,3.16,0,0,1,0,.58l-1.57-.19q-1.33-.15-2-.18t-2.07,0l-1.59,0a.87.87,0,0,1-.09-.57c0-.3.06-.44.14-.44a4.14,4.14,0,0,0,1.09-.18q.74-.19.81-.4a9.67,9.67,0,0,0,.3-2.16l.21-4.84a2.84,2.84,0,0,0-.39-1.92,1.44,1.44,0,0,0-.65-.47,3.38,3.38,0,0,0-.71-.21c-.19,0-.28-.06-.28-.1q0-.86.19-.88a41.94,41.94,0,0,0,4.82-.68l.24,0c.08,0,.15.08.2.22a.71.71,0,0,1,.06.34l-.06.41q0,.28-.1.59a3.53,3.53,0,0,0-.06.4,5.42,5.42,0,0,1,1.52-1.38A3.25,3.25,0,0,1,442,147.2Z"/><path class="cls-1" d="M453.06,147.69a5.51,5.51,0,0,1,2.47.66,4.72,4.72,0,0,1,1.66,1.47,7,7,0,0,1,.87,1.79,5.11,5.11,0,0,1,.25,1.75c0,.44-.1.71-.26.81a1.68,1.68,0,0,1-.91.12L450,154c-.14,0-.21.05-.22.17a5.78,5.78,0,0,0,.29,2.1,4.09,4.09,0,0,0,1.24,1.81,3.5,3.5,0,0,0,2.21.84,8.15,8.15,0,0,0,.86,0,4.4,4.4,0,0,0,.78-.11l.63-.17a2.52,2.52,0,0,0,.56-.24l.41-.23.61-.37a.46.46,0,0,1,.14.18.57.57,0,0,1,.08.3.91.91,0,0,1-.2.56,4.84,4.84,0,0,1-1.82,1.53,5.51,5.51,0,0,1-3,.67,6,6,0,0,1-4.37-2.11,6.41,6.41,0,0,1-1.67-4.73,6.88,6.88,0,0,1,2-4.79A5.77,5.77,0,0,1,453.06,147.69Zm-.27,1.36a2.1,2.1,0,0,0-1.29.36,2.79,2.79,0,0,0-.9,1,5.64,5.64,0,0,0-.48,1.09,3.65,3.65,0,0,0-.17.87q0,.21.17.22l4.81.21c.18,0,.27-.14.29-.43a3.85,3.85,0,0,0-.61-2.14A2.13,2.13,0,0,0,452.79,149Z"/><path class="cls-1" d="M465.67,148.21a12.65,12.65,0,0,1,3.42.66,16.77,16.77,0,0,1,.18,3.34q0,.24-.4.22c-.43,0-.67-.11-.7-.27a3.61,3.61,0,0,0-.8-1.81,2.32,2.32,0,0,0-1.77-.81,2.13,2.13,0,0,0-1.37.33,1.32,1.32,0,0,0-.54,1.08,1.71,1.71,0,0,0,.13.76,1.85,1.85,0,0,0,.51.66,7.27,7.27,0,0,0,.63.5q.27.19.82.51a1.9,1.9,0,0,0,.29.16l.43.26.48.29.46.3a5.19,5.19,0,0,1,.5.36l.44.38a2.34,2.34,0,0,1,.43.44l.34.48a2,2,0,0,1,.29.55,5.61,5.61,0,0,1,.14.57,2.71,2.71,0,0,1,0,.64,3.5,3.5,0,0,1-1.57,2.89,5.65,5.65,0,0,1-3.54.93,9.92,9.92,0,0,1-3.79-1,11.84,11.84,0,0,1-.22-1.66,14.69,14.69,0,0,1-.08-1.71.64.64,0,0,1,.42-.13c.45,0,.69.11.7.27a3.29,3.29,0,0,0,1.09,2.06,3.17,3.17,0,0,0,2,.85A2.16,2.16,0,0,0,466,160a1.45,1.45,0,0,0,.59-1.19,1.91,1.91,0,0,0-.05-.55,1.43,1.43,0,0,0-.26-.52l-.32-.43a2.15,2.15,0,0,0-.52-.42l-.58-.37-.73-.42-.74-.43a6.91,6.91,0,0,1-2-1.68,3.43,3.43,0,0,1,.9-4.89A5.74,5.74,0,0,1,465.67,148.21Z"/><path class="cls-1" d="M477.45,148.73a12.6,12.6,0,0,1,3.42.66,16.76,16.76,0,0,1,.18,3.34q0,.24-.4.22c-.44,0-.67-.11-.7-.27a3.6,3.6,0,0,0-.8-1.81,2.32,2.32,0,0,0-1.76-.81,2.13,2.13,0,0,0-1.37.33,1.32,1.32,0,0,0-.54,1.08,1.72,1.72,0,0,0,.13.76,1.83,1.83,0,0,0,.51.66,7.5,7.5,0,0,0,.63.5c.18.13.46.3.83.51a1.9,1.9,0,0,0,.29.16l.43.26.48.29.46.3a5.23,5.23,0,0,1,.5.36l.45.38a2.27,2.27,0,0,1,.43.44l.34.48a2,2,0,0,1,.29.55,5.6,5.6,0,0,1,.14.57,2.71,2.71,0,0,1,0,.64,3.5,3.5,0,0,1-1.57,2.89,5.64,5.64,0,0,1-3.54.93,9.93,9.93,0,0,1-3.79-1,11.82,11.82,0,0,1-.22-1.66,14.87,14.87,0,0,1-.07-1.71.63.63,0,0,1,.42-.13c.46,0,.69.11.7.27a3.28,3.28,0,0,0,1.09,2.06,3.17,3.17,0,0,0,2,.85,2.16,2.16,0,0,0,1.38-.36,1.45,1.45,0,0,0,.59-1.19,1.94,1.94,0,0,0,0-.55,1.44,1.44,0,0,0-.26-.52l-.32-.43a2.15,2.15,0,0,0-.52-.42l-.58-.37-.73-.42-.74-.43a6.9,6.9,0,0,1-2-1.68,3.43,3.43,0,0,1,.9-4.89A5.73,5.73,0,0,1,477.45,148.73Z"/><path class="cls-1" d="M130.8,100.15a3.65,3.65,0,0,1,2.76,1,4.75,4.75,0,0,1,.92,3.31v5.86a1.36,1.36,0,0,0,.27.91.89.89,0,0,0,.71.31,1.85,1.85,0,0,0,1-.39q.18.06.18.33a1.77,1.77,0,0,1-.18.89,7.35,7.35,0,0,1-1.19.74,3.1,3.1,0,0,1-1.43.39,2.17,2.17,0,0,1-1.34-.51,2.43,2.43,0,0,1-.86-1.1l-.22.19q-.19.16-.54.4a8.55,8.55,0,0,1-.77.48,4.72,4.72,0,0,1-1,.4,4.32,4.32,0,0,1-1.17.16,3.55,3.55,0,0,1-2.42-.82,2.83,2.83,0,0,1-.94-2.24,2.75,2.75,0,0,1,.34-1.34,3.57,3.57,0,0,1,.82-1,6.08,6.08,0,0,1,1.28-.79,12.26,12.26,0,0,1,1.38-.58l1.49-.46,1.26-.39a.47.47,0,0,0,.27-.48v-1.64a2.55,2.55,0,0,0-.48-1.63,1.55,1.55,0,0,0-1.28-.59,1.8,1.8,0,0,0-1.4.55,2.23,2.23,0,0,0-.5,1.56,1,1,0,0,1-.45.88,1.85,1.85,0,0,1-1,.28,1.68,1.68,0,0,1-1.55-.71q0-1.43,1.95-2.68A7.46,7.46,0,0,1,130.8,100.15Zm-1.34,11.42a2.3,2.3,0,0,0,1.38-.42,1.18,1.18,0,0,0,.58-1v-3q-.21.09-.88.3t-1,.36a8.12,8.12,0,0,0-.83.42,1.8,1.8,0,0,0-.7.65,1.64,1.64,0,0,0-.22.83,1.83,1.83,0,0,0,.48,1.4A1.71,1.71,0,0,0,129.46,111.57Z"/><path class="cls-1" d="M147.76,102.24h-1.81c-.14,0-.21-.26-.21-.77a.75.75,0,0,1,0-.27,8.32,8.32,0,0,0,2.29-1.58l.85-.88q.46-.49,1.08-1.26a2.11,2.11,0,0,1,.56.07c.18,0,.27.1.27.16v2.91h3.63c.16,0,.24.09.24.27a2.88,2.88,0,0,1-.3,1.31h-3.57v7.16a2.82,2.82,0,0,0,.51,1.81,1.7,1.7,0,0,0,1.4.62,2.81,2.81,0,0,0,.63-.07,3.18,3.18,0,0,0,.54-.16l.39-.18.21-.09c.08,0,.17.07.27.27s.14.33.12.39a2.73,2.73,0,0,1-1.26,1,4.69,4.69,0,0,1-2.12.55,3.75,3.75,0,0,1-2.63-1,4,4,0,0,1-1.08-3.08Z"/><path class="cls-1" d="M164.07,100.15a6.55,6.55,0,0,1,4.77,1.95,6.37,6.37,0,0,1,2,4.71,6.73,6.73,0,0,1-13.47,0,6.4,6.4,0,0,1,1.95-4.73A6.51,6.51,0,0,1,164.07,100.15Zm-.39,1.4a2.39,2.39,0,0,0-2.17,1.35,6.39,6.39,0,0,0-.77,3.23,8.67,8.67,0,0,0,1,4.19,3,3,0,0,0,2.69,1.78,2.42,2.42,0,0,0,2.18-1.37,6.32,6.32,0,0,0,.79-3.21,10.19,10.19,0,0,0-.39-2.87,5.25,5.25,0,0,0-1.25-2.21A2.76,2.76,0,0,0,163.68,101.55Z"/><path class="cls-1" d="M192,102.41a.86.86,0,0,0-.24-.61,1.31,1.31,0,0,0-.61-.36,5.42,5.42,0,0,0-.68-.15,4.3,4.3,0,0,0-.61,0h-.12c-.08,0-.12-.15-.13-.45s0-.48.07-.54q.39,0,1.58.09t1.9.09c.42,0,.95,0,1.59-.09s1.12-.09,1.41-.09a1.89,1.89,0,0,1,.06.51c0,.3,0,.45-.12.45a3.38,3.38,0,0,0-1.17.37,1.82,1.82,0,0,0-1,.91L189.48,113a1.16,1.16,0,0,1-.4.43,1,1,0,0,1-.58.19.37.37,0,0,1-.39-.21l-3.63-8.21L181.3,113a1.59,1.59,0,0,1-.34.42.9.9,0,0,1-.64.24.44.44,0,0,1-.42-.21q-.68-1.55-1.62-3.76t-1.71-3.91q-.77-1.69-1.78-3.69a1.37,1.37,0,0,0-.77-.59,2.87,2.87,0,0,0-1-.21q-.12,0-.12-.48t.12-.51q.3,0,1.5.09t1.89.09q.68,0,2-.09l1.55-.09a1.62,1.62,0,0,1,.06.54c0,.26,0,.4-.09.42a3.53,3.53,0,0,0-1,.21q-.64.21-.64.62s1,2.32,3,6.84q.33-.83.76-1.89l.65-1.61.45-1.11q.22-.56.31-.85a1.61,1.61,0,0,0,.09-.37,2.17,2.17,0,0,0-.39-1.19,1.41,1.41,0,0,0-.65-.48,2.37,2.37,0,0,0-1.07-.18c-.08,0-.12-.14-.12-.43s0-.46.12-.52.71,0,1.47.09,1.38.09,1.86.09,1.08,0,1.93-.09l1.52-.09a1.42,1.42,0,0,1,0,.55c0,.29,0,.43-.1.43q-1.52,0-1.52,1a47.72,47.72,0,0,0,2.79,6.6q.47-1.25,1.17-2.93t1-2.5A4,4,0,0,0,192,102.41Z"/><path class="cls-1" d="M208.2,100.15q3.83,0,3.83,6.09v2.82a12.4,12.4,0,0,0,.21,2.68q.06.21.82.43a4.55,4.55,0,0,0,1,.22c.06,0,.09.14.1.43a1.7,1.7,0,0,1,0,.58q-.18,0-1.56-.12t-2.07-.09q-.71,0-2,.09l-1.53.12a.87.87,0,0,1-.12-.56c0-.3,0-.45.12-.45a3.55,3.55,0,0,0,1-.22c.45-.15.69-.29.73-.43a8.5,8.5,0,0,0,.24-2.17v-2.82a6.45,6.45,0,0,0-.67-3.45,2.39,2.39,0,0,0-2.13-1,2.75,2.75,0,0,0-1.66.52,1.43,1.43,0,0,0-.71,1.11v5.11a12.46,12.46,0,0,0,.21,2.68c0,.14.3.28.79.43a4.29,4.29,0,0,0,1,.22c.08,0,.12.14.13.43a1.71,1.71,0,0,1,0,.58l-1.56-.12q-1.32-.09-2-.09t-2.07.09l-1.59.12a.88.88,0,0,1-.12-.56c0-.3,0-.45.12-.45a4.15,4.15,0,0,0,1.08-.22q.73-.22.79-.43a9.7,9.7,0,0,0,.21-2.17v-4.85a2.83,2.83,0,0,0-.48-1.9,1.43,1.43,0,0,0-.67-.45,3.38,3.38,0,0,0-.71-.18c-.19,0-.28,0-.28-.09q0-.86.15-.89a42.07,42.07,0,0,0,4.79-.89l.07,0h.16c.08,0,.15.07.21.21a.91.91,0,0,1,.09.33,10,10,0,0,0-.12,1.07.24.24,0,0,0,0,.15.45.45,0,0,0,.15-.09,6.59,6.59,0,0,1,1.83-1.25A5.2,5.2,0,0,1,208.2,100.15Z"/><path class="cls-1" d="M230.6,100.15a6.55,6.55,0,0,1,4.77,1.95,6.37,6.37,0,0,1,2,4.71,6.73,6.73,0,0,1-13.47,0,6.4,6.4,0,0,1,1.95-4.73A6.51,6.51,0,0,1,230.6,100.15Zm-.39,1.4A2.39,2.39,0,0,0,228,102.9a6.39,6.39,0,0,0-.77,3.23,8.67,8.67,0,0,0,1,4.19,3,3,0,0,0,2.69,1.78,2.42,2.42,0,0,0,2.18-1.37,6.32,6.32,0,0,0,.79-3.21,10.19,10.19,0,0,0-.39-2.87,5.25,5.25,0,0,0-1.25-2.21A2.76,2.76,0,0,0,230.21,101.55Z"/><path class="cls-1" d="M249.59,100.15q3.83,0,3.83,6.09v2.82a12.4,12.4,0,0,0,.21,2.68q.06.21.82.43a4.55,4.55,0,0,0,1,.22c.06,0,.09.14.1.43a1.7,1.7,0,0,1,0,.58q-.18,0-1.56-.12t-2.07-.09q-.71,0-2,.09l-1.53.12a.87.87,0,0,1-.12-.56c0-.3,0-.45.12-.45a3.55,3.55,0,0,0,1-.22c.45-.15.69-.29.73-.43a8.5,8.5,0,0,0,.24-2.17v-2.82a6.45,6.45,0,0,0-.67-3.45,2.39,2.39,0,0,0-2.13-1,2.75,2.75,0,0,0-1.66.52,1.43,1.43,0,0,0-.71,1.11v5.11a12.46,12.46,0,0,0,.21,2.68c0,.14.3.28.79.43a4.29,4.29,0,0,0,1,.22c.08,0,.12.14.13.43a1.71,1.71,0,0,1,0,.58l-1.56-.12q-1.32-.09-2-.09t-2.07.09l-1.59.12a.88.88,0,0,1-.12-.56c0-.3,0-.45.12-.45a4.15,4.15,0,0,0,1.08-.22q.73-.22.79-.43a9.7,9.7,0,0,0,.21-2.17v-4.85a2.83,2.83,0,0,0-.48-1.9,1.43,1.43,0,0,0-.67-.45,3.38,3.38,0,0,0-.71-.18c-.19,0-.28,0-.28-.09q0-.86.15-.89a42.07,42.07,0,0,0,4.79-.89l.07,0h.16c.08,0,.15.07.21.21a.91.91,0,0,1,.09.33,10,10,0,0,0-.12,1.07.24.24,0,0,0,0,.15.45.45,0,0,0,.15-.09,6.59,6.59,0,0,1,1.83-1.25A5.2,5.2,0,0,1,249.59,100.15Z"/><path class="cls-1" d="M267,102.24h-1.81c-.14,0-.21-.26-.21-.77a.75.75,0,0,1,0-.27,8.32,8.32,0,0,0,2.29-1.58l.85-.88q.46-.49,1.08-1.26a2.11,2.11,0,0,1,.56.07c.18,0,.27.1.27.16v2.91h3.63c.16,0,.24.09.24.27a2.88,2.88,0,0,1-.3,1.31h-3.57v7.16a2.82,2.82,0,0,0,.51,1.81,1.7,1.7,0,0,0,1.4.62,2.81,2.81,0,0,0,.63-.07,3.18,3.18,0,0,0,.54-.16l.39-.18.21-.09c.08,0,.17.07.27.27s.14.33.12.39a2.73,2.73,0,0,1-1.26,1,4.69,4.69,0,0,1-2.12.55,3.75,3.75,0,0,1-2.63-1,4,4,0,0,1-1.08-3.08Z"/><path class="cls-1" d="M286.31,100.15q3.8,0,3.8,5.86v3.06a10.91,10.91,0,0,0,.24,2.68q0,.21.79.43a4.57,4.57,0,0,0,1,.22c.06,0,.09.14.1.43a3.11,3.11,0,0,1,0,.58l-1.59-.12q-1.38-.09-2-.09t-2,.09l-1.56.12a1.11,1.11,0,0,1-.09-.56c0-.3,0-.45.09-.45a3.55,3.55,0,0,0,1-.22q.67-.22.76-.43a11.24,11.24,0,0,0,.18-2.17v-2.91a6.2,6.2,0,0,0-.67-3.4,2.43,2.43,0,0,0-2.12-.94,2.85,2.85,0,0,0-1.64.51,1.4,1.4,0,0,0-.74,1.13v5.11a10.91,10.91,0,0,0,.24,2.68q.06.21.79.43a4.23,4.23,0,0,0,1,.22c.06,0,.09.14.1.43a1.67,1.67,0,0,1,0,.58l-1.56-.12q-1.32-.09-2-.09t-2.07.09l-1.59.12a.87.87,0,0,1-.12-.56c0-.3,0-.45.12-.45a4.16,4.16,0,0,0,1.08-.22q.73-.22.79-.43a9.61,9.61,0,0,0,.21-2.14V97.24a11.66,11.66,0,0,0-.15-2q-.15-.47-1.55-.48h-.27q-.18,0-.18-.48t.18-.48q.92-.09,1.75-.24t1.38-.3q.55-.15,1-.3l.85-.3h.06a.32.32,0,0,1,.24.16.83.83,0,0,1,.15.31,9.57,9.57,0,0,0-.36,2.79v6c0,.12,0,.18.12.18s.06,0,.12-.09a5.66,5.66,0,0,1,1.83-1.29A5.48,5.48,0,0,1,286.31,100.15Z"/><path class="cls-1" d="M300.78,100.15a5.51,5.51,0,0,1,2.5.55,4.7,4.7,0,0,1,1.72,1.4,6.92,6.92,0,0,1,1,1.75,5.13,5.13,0,0,1,.33,1.74q0,.65-.22.82a1.69,1.69,0,0,1-.91.16H298q-.21,0-.21.18a5.77,5.77,0,0,0,.39,2.08,4.09,4.09,0,0,0,1.32,1.75,3.5,3.5,0,0,0,2.25.74,8.06,8.06,0,0,0,.86,0,4.43,4.43,0,0,0,.77-.15l.62-.19a2.53,2.53,0,0,0,.55-.27l.4-.25.59-.4a.47.47,0,0,1,.15.18.58.58,0,0,1,.09.3.91.91,0,0,1-.18.56,4.84,4.84,0,0,1-1.75,1.6,5.52,5.52,0,0,1-2.94.8,6,6,0,0,1-4.46-1.92,6.41,6.41,0,0,1-1.87-4.65,6.88,6.88,0,0,1,1.74-4.88A5.76,5.76,0,0,1,300.78,100.15Zm-.21,1.37a2.1,2.1,0,0,0-1.28.42,2.8,2.8,0,0,0-.86,1,5.75,5.75,0,0,0-.43,1.12,3.65,3.65,0,0,0-.13.88q0,.21.18.21h4.82c.18,0,.27-.15.27-.45a3.85,3.85,0,0,0-.7-2.11A2.13,2.13,0,0,0,300.57,101.52Z"/><path class="cls-1" d="M321.43,93.72q2,.07,3.29.07t3.3-.07l3.24-.1a9.89,9.89,0,0,0,2.05-.3l.57,4.55a1.15,1.15,0,0,1-.8.21c-.16,0-.26,0-.3-.15a4.29,4.29,0,0,0-1.1-2.21,3.27,3.27,0,0,0-2.14-.58q-2.76,0-2.88.51a10.37,10.37,0,0,0-.27,2.79v10.73a10.12,10.12,0,0,0,.27,2.59q0,.21.8.43a4.75,4.75,0,0,0,1,.22q.12,0,.12.54a1.54,1.54,0,0,1-.06.48l-1.14-.09-1.4-.09-1.23,0q-.8,0-2.21.09l-1.74.12a.69.69,0,0,1-.12-.48q0-.53.12-.54a4.73,4.73,0,0,0,1.12-.21q.76-.21.85-.45a9.41,9.41,0,0,0,.24-2.47V98.52a8.15,8.15,0,0,0-.27-2.88q-.24-.51-2.82-.51a3.27,3.27,0,0,0-2.14.58,4.4,4.4,0,0,0-1.13,2.19c0,.12-.12.18-.3.18a1,1,0,0,1-.77-.24l.56-4.52a9.89,9.89,0,0,0,2.05.3Z"/><path class="cls-1" d="M342.43,100.15a5.51,5.51,0,0,1,2.5.55,4.7,4.7,0,0,1,1.72,1.4,6.92,6.92,0,0,1,1,1.75,5.13,5.13,0,0,1,.33,1.74q0,.65-.22.82a1.69,1.69,0,0,1-.91.16H339.7q-.21,0-.21.18a5.77,5.77,0,0,0,.39,2.08,4.09,4.09,0,0,0,1.32,1.75,3.5,3.5,0,0,0,2.25.74,8.06,8.06,0,0,0,.86,0,4.43,4.43,0,0,0,.77-.15l.62-.19a2.53,2.53,0,0,0,.55-.27l.4-.25.59-.4a.47.47,0,0,1,.15.18.58.58,0,0,1,.09.3.91.91,0,0,1-.18.56,4.84,4.84,0,0,1-1.75,1.6,5.52,5.52,0,0,1-2.94.8,6,6,0,0,1-4.46-1.92,6.41,6.41,0,0,1-1.87-4.65A6.88,6.88,0,0,1,338,102,5.76,5.76,0,0,1,342.43,100.15Zm-.21,1.37a2.1,2.1,0,0,0-1.28.42,2.8,2.8,0,0,0-.86,1,5.75,5.75,0,0,0-.43,1.12,3.65,3.65,0,0,0-.13.88q0,.21.18.21h4.82c.18,0,.27-.15.27-.45a3.85,3.85,0,0,0-.7-2.11A2.13,2.13,0,0,0,342.22,101.52Z"/><path class="cls-1" d="M350.36,100.75a.85.85,0,0,1,.12-.48l3.51.18,3.57-.18a1,1,0,0,1,.06.42q0,.54-.12.54a2.27,2.27,0,0,0-.83.16c-.28.11-.42.26-.42.46a.65.65,0,0,0,.15.36l1.87,2.65.8-1.1q.59-.8.88-1.25a1.48,1.48,0,0,0,.28-.68.39.39,0,0,0-.25-.34,1.46,1.46,0,0,0-.54-.16l-.59,0a1,1,0,0,1-.34,0q-.12,0-.12-.48a.69.69,0,0,1,.12-.48l3.45.18,3.09-.18a1.76,1.76,0,0,1,.06.48q0,.48-.06.48a4.08,4.08,0,0,0-2.62,1l-3.15,3.69a.52.52,0,0,0-.06.24.4.4,0,0,0,.12.3L362.7,111a3.45,3.45,0,0,0,2.47,1.46c.06,0,.09.17.09.51a.79.79,0,0,1-.12.45l-1.08-.09-1.16-.09c-.35,0-.72,0-1.12,0s-.84,0-1.22,0l-1.26.09-1.2.09A2.56,2.56,0,0,1,358,113q0-.62.09-.62a2,2,0,0,0,.86-.21q.45-.21.45-.51a.45.45,0,0,0-.06-.18l-2.14-3-1.87,2.62a.87.87,0,0,0-.21.54.44.44,0,0,0,.1.3.73.73,0,0,0,.34.19l.4.1.5.07.4,0q.09,0,.09.51a.75.75,0,0,1-.12.51l-1.06-.09-1.11-.09q-.51,0-1.07,0t-1.07,0l-1.13.09-1.07.09a2.06,2.06,0,0,1-.06-.51q0-.51.12-.51a4,4,0,0,0,2.59-1.13l3.18-3.86a.53.53,0,0,0,.06-.24.37.37,0,0,0-.09-.21l-3.42-4.64a2.5,2.5,0,0,0-1-.76,3.15,3.15,0,0,0-1.22-.31C350.4,101.25,350.36,101.09,350.36,100.75Z"/><path class="cls-1" d="M374.19,100.15a3.65,3.65,0,0,1,2.76,1,4.75,4.75,0,0,1,.92,3.31v5.86a1.36,1.36,0,0,0,.27.91.89.89,0,0,0,.71.31,1.85,1.85,0,0,0,1-.39q.18.06.18.33a1.77,1.77,0,0,1-.18.89,7.35,7.35,0,0,1-1.19.74,3.1,3.1,0,0,1-1.43.39,2.17,2.17,0,0,1-1.34-.51,2.43,2.43,0,0,1-.86-1.1l-.22.19q-.19.16-.54.4a8.55,8.55,0,0,1-.77.48,4.72,4.72,0,0,1-1,.4,4.32,4.32,0,0,1-1.17.16,3.55,3.55,0,0,1-2.42-.82,2.83,2.83,0,0,1-.94-2.24,2.75,2.75,0,0,1,.34-1.34,3.57,3.57,0,0,1,.82-1,6.08,6.08,0,0,1,1.28-.79,12.26,12.26,0,0,1,1.38-.58l1.49-.46,1.26-.39a.47.47,0,0,0,.27-.48v-1.64a2.55,2.55,0,0,0-.48-1.63,1.55,1.55,0,0,0-1.28-.59,1.8,1.8,0,0,0-1.4.55,2.23,2.23,0,0,0-.5,1.56,1,1,0,0,1-.45.88,1.85,1.85,0,0,1-1,.28,1.68,1.68,0,0,1-1.55-.71q0-1.43,1.95-2.68A7.46,7.46,0,0,1,374.19,100.15Zm-1.34,11.42a2.3,2.3,0,0,0,1.38-.42,1.18,1.18,0,0,0,.58-1v-3q-.21.09-.88.3t-1,.36a8.12,8.12,0,0,0-.83.42,1.8,1.8,0,0,0-.7.65,1.64,1.64,0,0,0-.22.83,1.83,1.83,0,0,0,.48,1.4A1.71,1.71,0,0,0,372.86,111.57Z"/><path class="cls-1" d="M387.15,100.12a12.63,12.63,0,0,1,3.45.51,16.81,16.81,0,0,1,.33,3.33q0,.24-.39.24c-.44,0-.67-.08-.71-.24a3.61,3.61,0,0,0-.88-1.77,2.33,2.33,0,0,0-1.8-.73,2.13,2.13,0,0,0-1.35.39,1.32,1.32,0,0,0-.49,1.1,1.73,1.73,0,0,0,.16.76,1.85,1.85,0,0,0,.54.64,7.38,7.38,0,0,0,.65.48c.19.12.47.28.85.48a1.92,1.92,0,0,0,.3.15l.45.24.49.27.48.28a5.34,5.34,0,0,1,.52.34l.46.36a2.35,2.35,0,0,1,.45.42l.36.46a1.92,1.92,0,0,1,.31.54,5.62,5.62,0,0,1,.16.56,2.73,2.73,0,0,1,.07.64,3.5,3.5,0,0,1-1.44,3,5.64,5.64,0,0,1-3.49,1.08,9.93,9.93,0,0,1-3.83-.83,11.84,11.84,0,0,1-.3-1.65,14.52,14.52,0,0,1-.15-1.71.63.63,0,0,1,.42-.15c.46,0,.69.08.71.24a3.28,3.28,0,0,0,1.17,2,3.17,3.17,0,0,0,2,.76,2.16,2.16,0,0,0,1.37-.42,1.45,1.45,0,0,0,.54-1.22,1.93,1.93,0,0,0-.07-.55,1.45,1.45,0,0,0-.28-.51l-.34-.42a2.14,2.14,0,0,0-.54-.4l-.59-.34L386,108l-.76-.4a6.91,6.91,0,0,1-2.11-1.59,3.43,3.43,0,0,1,.68-4.92A5.73,5.73,0,0,1,387.15,100.12Z"/><path class="cls-1" d="M396,107.17a8.14,8.14,0,0,1,.1-1c.07-.48.17-.71.31-.71H409c.12,0,.18.09.18.27a7.28,7.28,0,0,1-.27,1.55.34.34,0,0,1-.07.13.14.14,0,0,1-.1,0l0,0H396.13l-.12-.06A.36.36,0,0,1,396,107.17Z"/><path class="cls-1" d="M416.16,93.79l2.91-.18q.27.83,1.22,3.08t2.33,5.47q1.38,3.23,2.21,5.31s0,.06.09.06a.08.08,0,0,0,.09-.09q2.62-6.27,4.16-10.32l1.07-3.45q.89.09,2.44.09,1.16,0,3.54-.15a.86.86,0,0,1,.09.48q0,.51-.12.51h-.06a2.42,2.42,0,0,0-1.46.48q-.45.33-.39,1.61.12,2.65.42,12.28a7.84,7.84,0,0,0,.48,2.73q.12.27.83.49a4,4,0,0,0,1,.22q.12,0,.12.54a1.45,1.45,0,0,1-.06.45l-3.66-.18-1.25,0-1.44.07-1.26.07a.63.63,0,0,1-.12-.45c0-.36,0-.54.12-.54a3.52,3.52,0,0,0,1-.19,1.87,1.87,0,0,0,.83-.43,1.66,1.66,0,0,0,.3-1v-1.67l-.3-9q-.12-1.84-.36-1.84c-.06,0-.11.06-.15.18l-5.68,13.85q-.51,1.13-1.13,1.13a1,1,0,0,1-.3-.06L417,97.3q-.21,7.4-.48,13.26a3.28,3.28,0,0,0,.09.92q.15.33,1.19.62a6.42,6.42,0,0,0,1.4.3q.12,0,.12.54a1.45,1.45,0,0,1-.06.45l-3.75-.18q-.8,0-2.13.09t-1.62.09a.69.69,0,0,1-.12-.48q0-.51.12-.51a5.94,5.94,0,0,0,1.49-.3q1-.3,1.16-.77a5.53,5.53,0,0,0,.33-2q.06-2.26.16-5.34t.18-5.25q.07-2.17.07-2.71a2.84,2.84,0,0,0-.09-.83q-.09-.24-1-.45a6.74,6.74,0,0,0-1.29-.21c-.08,0-.12-.17-.12-.51a.63.63,0,0,1,.12-.45l1.53.1Q415.39,93.79,416.16,93.79Z"/><path class="cls-1" d="M445.82,100.15a5.51,5.51,0,0,1,2.5.55,4.7,4.7,0,0,1,1.72,1.4,6.92,6.92,0,0,1,1,1.75,5.13,5.13,0,0,1,.33,1.74q0,.65-.22.82a1.69,1.69,0,0,1-.91.16h-7.11q-.21,0-.21.18a5.77,5.77,0,0,0,.39,2.08,4.09,4.09,0,0,0,1.32,1.75,3.5,3.5,0,0,0,2.25.74,8.06,8.06,0,0,0,.86,0,4.43,4.43,0,0,0,.77-.15l.62-.19a2.53,2.53,0,0,0,.55-.27l.4-.25.59-.4a.47.47,0,0,1,.15.18.58.58,0,0,1,.09.3.91.91,0,0,1-.18.56,4.84,4.84,0,0,1-1.75,1.6,5.52,5.52,0,0,1-2.94.8,6,6,0,0,1-4.46-1.92,6.41,6.41,0,0,1-1.87-4.65A6.88,6.88,0,0,1,441.4,102,5.76,5.76,0,0,1,445.82,100.15Zm-.21,1.37a2.1,2.1,0,0,0-1.28.42,2.8,2.8,0,0,0-.86,1,5.75,5.75,0,0,0-.43,1.12,3.65,3.65,0,0,0-.13.88q0,.21.18.21h4.82c.18,0,.27-.15.27-.45a3.85,3.85,0,0,0-.7-2.11A2.13,2.13,0,0,0,445.61,101.52Z"/><path class="cls-1" d="M453.75,100.75a.85.85,0,0,1,.12-.48l3.51.18,3.57-.18a1,1,0,0,1,.06.42q0,.54-.12.54a2.27,2.27,0,0,0-.83.16c-.28.11-.42.26-.42.46a.65.65,0,0,0,.15.36l1.87,2.65.8-1.1q.59-.8.88-1.25a1.48,1.48,0,0,0,.28-.68.39.39,0,0,0-.25-.34,1.46,1.46,0,0,0-.54-.16l-.59,0a1,1,0,0,1-.34,0q-.12,0-.12-.48a.69.69,0,0,1,.12-.48l3.45.18,3.09-.18a1.76,1.76,0,0,1,.06.48q0,.48-.06.48a4.08,4.08,0,0,0-2.62,1l-3.15,3.69a.52.52,0,0,0-.06.24.4.4,0,0,0,.12.3l3.36,4.61a3.45,3.45,0,0,0,2.47,1.46c.06,0,.09.17.09.51a.79.79,0,0,1-.12.45l-1.08-.09-1.16-.09c-.35,0-.72,0-1.12,0s-.84,0-1.22,0l-1.26.09-1.2.09a2.56,2.56,0,0,1-.06-.39q0-.62.09-.62a2,2,0,0,0,.86-.21q.45-.21.45-.51a.45.45,0,0,0-.06-.18l-2.14-3-1.87,2.62a.87.87,0,0,0-.21.54.44.44,0,0,0,.1.3.73.73,0,0,0,.34.19l.4.1.5.07.4,0q.09,0,.09.51a.75.75,0,0,1-.12.51l-1.06-.09-1.11-.09q-.51,0-1.07,0t-1.07,0l-1.13.09-1.07.09a2.06,2.06,0,0,1-.06-.51q0-.51.12-.51a4,4,0,0,0,2.59-1.13l3.18-3.86a.53.53,0,0,0,.06-.24.37.37,0,0,0-.09-.21l-3.42-4.64a2.5,2.5,0,0,0-1-.76,3.15,3.15,0,0,0-1.22-.31C453.79,101.25,453.75,101.09,453.75,100.75Z"/><path class="cls-1" d="M476.63,109.07a11,11,0,0,0,.24,2.68q.06.21.8.43a4.38,4.38,0,0,0,1,.22c.08,0,.12.14.13.43a1.67,1.67,0,0,1,0,.58l-1.59-.12q-1.38-.09-2-.09t-2.1.09l-1.56.12a.88.88,0,0,1-.12-.56c0-.3,0-.45.12-.45a4.31,4.31,0,0,0,1.07-.22q.74-.22.8-.43a9.7,9.7,0,0,0,.21-2.17v-4.85a2.83,2.83,0,0,0-.48-1.9,1.65,1.65,0,0,0-.68-.45,3.13,3.13,0,0,0-.71-.18c-.2,0-.3,0-.3-.09q0-.86.18-.89a31.54,31.54,0,0,0,4.76-.89l.24-.06q.15,0,.24.21a.55.55,0,0,1,.06.33,25.63,25.63,0,0,0-.24,2.56Zm-3.09-12.44a1.81,1.81,0,0,1-.54-1.31,1.76,1.76,0,0,1,.54-1.29,1.84,1.84,0,0,1,3.15,1.29,1.81,1.81,0,0,1-.54,1.31,1.83,1.83,0,0,1-2.62,0Z"/><path class="cls-1" d="M487.56,100.15a7.18,7.18,0,0,1,2.81.52,4.74,4.74,0,0,1,1.77,1.14,3.68,3.68,0,0,1-.34,1.68,1.1,1.1,0,0,1-1,.67,1.33,1.33,0,0,1-.91-.3,3.37,3.37,0,0,1-.7-1,2.15,2.15,0,0,0-2-1.37,2.29,2.29,0,0,0-2,1.29,6.35,6.35,0,0,0-.76,3.26,6,6,0,0,0,1.1,4,3.51,3.51,0,0,0,2.79,1.29,8.06,8.06,0,0,0,.86,0,4.43,4.43,0,0,0,.77-.15l.62-.19a2.53,2.53,0,0,0,.55-.27l.4-.25.59-.4a.47.47,0,0,1,.15.18.58.58,0,0,1,.09.3.91.91,0,0,1-.18.56,4.84,4.84,0,0,1-1.75,1.6,5.46,5.46,0,0,1-2.91.8,6,6,0,0,1-4.5-1.93,6.56,6.56,0,0,1-1.86-4.73,6.76,6.76,0,0,1,1.78-4.68A6,6,0,0,1,487.56,100.15Z"/><path class="cls-1" d="M501.74,100.15a6.55,6.55,0,0,1,4.77,1.95,6.37,6.37,0,0,1,2,4.71,6.73,6.73,0,0,1-13.47,0,6.4,6.4,0,0,1,1.95-4.73A6.51,6.51,0,0,1,501.74,100.15Zm-.39,1.4a2.39,2.39,0,0,0-2.17,1.35,6.39,6.39,0,0,0-.77,3.23,8.67,8.67,0,0,0,1,4.19,3,3,0,0,0,2.69,1.78,2.42,2.42,0,0,0,2.18-1.37,6.32,6.32,0,0,0,.79-3.21,10.19,10.19,0,0,0-.39-2.87,5.25,5.25,0,0,0-1.25-2.21A2.76,2.76,0,0,0,501.35,101.55Z"/><path class="cls-1" d="M525.71,100.15a6,6,0,0,1,3.31.94,6.24,6.24,0,0,1,2.23,2.38,6.34,6.34,0,0,1,.76,3,6.79,6.79,0,0,1-2.07,5,6.56,6.56,0,0,1-4.77,2.07,9.33,9.33,0,0,1-2.17-.22,6.49,6.49,0,0,0-1.4-.22,2.26,2.26,0,0,0-.77.21,2.92,2.92,0,0,1-.59.21,1.42,1.42,0,0,1-.43-.18c-.23-.12-.34-.22-.34-.3s0-.24.06-.54.09-.72.15-1.28a17.05,17.05,0,0,0,.09-1.81V97.24a10.43,10.43,0,0,0-.18-2q-.15-.47-1.55-.48h-.27q-.18,0-.18-.48t.18-.48q.92-.09,1.75-.24t1.38-.3q.55-.15,1-.3l.85-.3h.06a.32.32,0,0,1,.24.16.83.83,0,0,1,.15.31,10.37,10.37,0,0,0-.33,2.79v4.92a.91.91,0,0,0,0,.13c0,.06,0,.09.06.09l.1,0a5.41,5.41,0,0,1,1.2-.59A4.27,4.27,0,0,1,525.71,100.15Zm-.65,1.61a2.3,2.3,0,0,0-1.61.56,1.75,1.75,0,0,0-.62,1.34V110a1.78,1.78,0,0,0,.79,1.58,3.23,3.23,0,0,0,1.86.54,2.53,2.53,0,0,0,2.33-1.4,6.81,6.81,0,0,0,.79-3.39,7.64,7.64,0,0,0-.92-4A2.91,2.91,0,0,0,525.06,101.76Z"/><path class="cls-1" d="M541.37,100.15a6.55,6.55,0,0,1,4.77,1.95,6.37,6.37,0,0,1,2,4.71,6.73,6.73,0,0,1-13.47,0,6.4,6.4,0,0,1,1.95-4.73A6.51,6.51,0,0,1,541.37,100.15Zm-.39,1.4a2.39,2.39,0,0,0-2.17,1.35,6.39,6.39,0,0,0-.77,3.23,8.67,8.67,0,0,0,1,4.19,3,3,0,0,0,2.69,1.78,2.42,2.42,0,0,0,2.18-1.37,6.32,6.32,0,0,0,.79-3.21,10.19,10.19,0,0,0-.39-2.87,5.25,5.25,0,0,0-1.25-2.21A2.76,2.76,0,0,0,541,101.55Z"/><path class="cls-1" d="M559.34,100.15a3,3,0,0,1,2.44,1q0,2.53-1.43,2.53a1.77,1.77,0,0,1-1.16-.59,1.86,1.86,0,0,0-1.28-.59,1.59,1.59,0,0,0-1.44.94,4,4,0,0,0-.52,1.95v3.72a12.46,12.46,0,0,0,.21,2.68c0,.14.3.28.79.43a4.21,4.21,0,0,0,1,.22c.06,0,.09.14.1.43a3.11,3.11,0,0,1,0,.58l-1.58-.12q-1.34-.09-2-.09t-2.07.09l-1.59.12a.88.88,0,0,1-.12-.56c0-.3,0-.45.12-.45a4.15,4.15,0,0,0,1.08-.22q.73-.22.79-.43a9.7,9.7,0,0,0,.21-2.17v-4.85a2.83,2.83,0,0,0-.48-1.9,1.43,1.43,0,0,0-.67-.45,3.38,3.38,0,0,0-.71-.18c-.19,0-.28,0-.28-.09q0-.86.15-.89a42.07,42.07,0,0,0,4.79-.89l.24-.06c.08,0,.15.07.21.21a.71.71,0,0,1,.07.34l0,.42q0,.28-.07.59a3.69,3.69,0,0,0,0,.4,5.45,5.45,0,0,1,1.46-1.44A3.26,3.26,0,0,1,559.34,100.15Z"/><path class="cls-1" d="M571,100.09a5.11,5.11,0,0,1,2.17.42q.15,0,.15-.48V97.24a10.35,10.35,0,0,0-.18-2q-.15-.47-1.55-.48h-.24q-.18,0-.18-.48t.18-.48q.89-.09,1.74-.24t1.4-.3q.55-.15,1-.3l.61-.22.24-.07h.06a.32.32,0,0,1,.24.16.54.54,0,0,1,.12.31,11.39,11.39,0,0,0-.3,2.79V109a10.87,10.87,0,0,0,.18,2.2.44.44,0,0,0,.3.33,1.81,1.81,0,0,0,.56.15l.57,0h.3a.62.62,0,0,1,.06.36q0,.59-.18.59-.42,0-1.05.12l-1.25.19-1.16.21-1.23.25q-.18,0-.18-.51v-.51a.13.13,0,0,0,0-.12.05.05,0,0,0-.07,0,5,5,0,0,1-3.09,1.1,5.76,5.76,0,0,1-4.19-1.77,6,6,0,0,1-1.78-4.44,7,7,0,0,1,2-5A6.51,6.51,0,0,1,571,100.09Zm-.27,1.43a2.6,2.6,0,0,0-2.38,1.34,7,7,0,0,0-.8,3.6,7.17,7.17,0,0,0,.92,3.94,2.92,2.92,0,0,0,2.59,1.41,2.47,2.47,0,0,0,1.64-.52,1.65,1.65,0,0,0,.62-1.32v-6.24a2.06,2.06,0,0,0-.1-.62,2.77,2.77,0,0,0-.36-.7,1.91,1.91,0,0,0-.8-.62A3.16,3.16,0,0,0,570.75,101.52Z"/><path class="cls-1" d="M586.8,100.15a5.51,5.51,0,0,1,2.5.55,4.7,4.7,0,0,1,1.72,1.4,6.92,6.92,0,0,1,1,1.75,5.13,5.13,0,0,1,.33,1.74q0,.65-.22.82a1.69,1.69,0,0,1-.91.16h-7.11q-.21,0-.21.18a5.77,5.77,0,0,0,.39,2.08,4.09,4.09,0,0,0,1.32,1.75,3.5,3.5,0,0,0,2.25.74,8.06,8.06,0,0,0,.86,0,4.43,4.43,0,0,0,.77-.15l.62-.19a2.53,2.53,0,0,0,.55-.27l.4-.25.59-.4a.47.47,0,0,1,.15.18.58.58,0,0,1,.09.3.91.91,0,0,1-.18.56,4.84,4.84,0,0,1-1.75,1.6,5.52,5.52,0,0,1-2.94.8,6,6,0,0,1-4.46-1.92,6.41,6.41,0,0,1-1.87-4.65,6.88,6.88,0,0,1,1.74-4.88A5.76,5.76,0,0,1,586.8,100.15Zm-.21,1.37a2.1,2.1,0,0,0-1.28.42,2.8,2.8,0,0,0-.86,1,5.75,5.75,0,0,0-.43,1.12,3.65,3.65,0,0,0-.13.88q0,.21.18.21h4.82c.18,0,.27-.15.27-.45a3.85,3.85,0,0,0-.7-2.11A2.13,2.13,0,0,0,586.59,101.52Z"/><path class="cls-1" d="M603.29,100.15a3,3,0,0,1,2.44,1q0,2.53-1.43,2.53a1.77,1.77,0,0,1-1.16-.59,1.86,1.86,0,0,0-1.28-.59,1.59,1.59,0,0,0-1.44.94,4,4,0,0,0-.52,1.95v3.72a12.46,12.46,0,0,0,.21,2.68c0,.14.3.28.79.43a4.21,4.21,0,0,0,1,.22c.06,0,.09.14.1.43a3.11,3.11,0,0,1,0,.58l-1.58-.12q-1.34-.09-2-.09t-2.07.09l-1.59.12a.88.88,0,0,1-.12-.56c0-.3,0-.45.12-.45a4.15,4.15,0,0,0,1.08-.22q.73-.22.79-.43a9.7,9.7,0,0,0,.21-2.17v-4.85a2.83,2.83,0,0,0-.48-1.9,1.43,1.43,0,0,0-.67-.45,3.38,3.38,0,0,0-.71-.18c-.19,0-.28,0-.28-.09q0-.86.15-.89a42.07,42.07,0,0,0,4.79-.89l.24-.06c.08,0,.15.07.21.21a.71.71,0,0,1,.07.34l0,.42q0,.28-.07.59a3.69,3.69,0,0,0,0,.4,5.45,5.45,0,0,1,1.46-1.44A3.26,3.26,0,0,1,603.29,100.15Z"/></svg>