<?xml version="1.0" encoding="utf-8"?>
<!-- Generator: Adobe Illustrator 21.1.0, SVG Export Plug-In . SVG Version: 6.00 Build 0)  -->
<svg version="1.1" id="Layer_1" xmlns="http://www.w3.org/2000/svg" xmlns:xlink="http://www.w3.org/1999/xlink" x="0px" y="0px"
	 viewBox="0 0 606.3 163.8" style="enable-background:new 0 0 606.3 163.8;" xml:space="preserve">
<style type="text/css">
	.st0{fill:#FFFFFF;}
</style>
<title>subtitle</title>
<path class="st0" d="M67.6,12c0-1.5,0.7-2.9,1.8-3.8c1.2-1,2.7-1.6,4.2-1.6c0.5,0,1,0,1.5,0.1c0.4,0.1,1,0.2,1.7,0.3l1.5,0.3
	c0.3,1.5,0.4,3.1,0.4,4.6c0,0.2-0.2,0.3-0.3,0.3c-0.5,0-0.8-0.1-0.9-0.3c-0.2-1-0.6-1.9-1.3-2.7c-0.7-0.8-1.6-1.3-2.7-1.3
	c-0.8,0-1.5,0.2-2.1,0.8c-0.5,0.6-0.7,1.3-0.7,2.1c0,0.3,0,0.6,0.1,0.9c0.1,0.3,0.2,0.6,0.4,0.8l0.5,0.6c0.2,0.2,0.5,0.5,0.8,0.6
	l0.8,0.5c0.1,0.1,0.4,0.3,0.9,0.6c0.3,0.2,0.6,0.3,0.8,0.5c0.3,0.2,0.7,0.4,1,0.6c0.5,0.3,0.9,0.6,1.2,0.7s0.6,0.4,1,0.8
	c0.4,0.3,0.7,0.6,0.9,1c0.2,0.4,0.4,0.8,0.5,1.2c0.2,0.5,0.3,1,0.3,1.6c0,1.5-0.7,3-1.9,3.9c-1.2,1-2.8,1.6-4.4,1.6
	c-1.8-0.1-3.7-0.3-5.5-0.8c-0.2-0.9-0.4-1.8-0.5-2.7c-0.1-0.7-0.2-1.4-0.2-2.1c0-0.2,0.2-0.2,0.5-0.2c0.5,0,0.8,0.1,0.9,0.2
	c0.1,0.4,0.2,0.8,0.4,1.2c0.2,0.5,0.5,0.9,0.8,1.4c0.4,0.5,0.9,0.9,1.4,1.2c0.6,0.3,1.3,0.5,2,0.4c0.9,0,1.7-0.3,2.3-0.9
	c0.6-0.7,1-1.6,0.9-2.5c0-0.3-0.1-0.7-0.2-1c-0.1-0.3-0.3-0.6-0.5-0.8c-0.2-0.3-0.5-0.5-0.8-0.7c-0.3-0.3-0.6-0.4-0.8-0.6l-1-0.6
	l-0.9-0.5c-0.1-0.1-0.2-0.2-0.3-0.2l-1.3-0.8c-0.3-0.2-0.7-0.5-1.2-0.9c-0.4-0.3-0.8-0.7-1.1-1.1c-0.3-0.4-0.5-0.8-0.7-1.2
	C67.7,13.1,67.6,12.6,67.6,12z"/>
<path class="st0" d="M90.4,13.2c1.2,0,2.4,0.3,3.4,0.9c1.8,1.1,3,3.1,3,5.3c0.1,3.9-3,7.1-6.8,7.2c0,0,0,0-0.1,0
	c-0.7,0-1.4-0.1-2.1-0.4c-0.1,0-0.1,0.1-0.1,0.4v2c0,0.9,0.1,1.8,0.3,2.7c0,0.2,0.3,0.3,0.8,0.5c0.3,0.1,0.7,0.2,1,0.2
	c0.1,0,0.1,0.1,0.1,0.4c0,0.2,0,0.4,0,0.5l-1.6-0.1c-0.9,0-1.6-0.1-2-0.1s-1.1,0-2.1,0.1L82.5,33c-0.1-0.2-0.1-0.4-0.1-0.5
	c0-0.3,0-0.4,0.1-0.4c0.4,0,0.7-0.1,1.1-0.2c0.5-0.2,0.8-0.3,0.8-0.5c0.1-0.7,0.2-1.4,0.2-2.1l-0.1-11.4c0.1-0.7-0.1-1.4-0.5-1.9
	c-0.2-0.2-0.4-0.3-0.7-0.4c-0.2-0.1-0.5-0.1-0.7-0.2c-0.2,0-0.3,0-0.3-0.1c0-0.6,0.1-0.9,0.2-0.9c1.5-0.1,3-0.4,4.4-0.9l0.6-0.2
	c0.1,0,0.1,0.2,0.1,0.6c0,0.1,0,0.2-0.1,0.4c0.4-0.3,0.8-0.5,1.3-0.7C89.3,13.3,89.8,13.2,90.4,13.2z M89.7,14.8
	c-0.6,0-1.1,0.2-1.6,0.6c-0.4,0.4-0.6,1-0.6,1.5l0.1,6.1c0,0.6,0.3,1.2,0.8,1.5c0.5,0.4,1.1,0.6,1.7,0.6c0.9,0,1.8-0.5,2.3-1.3
	c0.7-1,1-2.3,0.9-3.5c0-1.4-0.3-2.8-1-4C91.8,15.4,90.8,14.8,89.7,14.8L89.7,14.8z"/>
<path class="st0" d="M105.3,13c0.9,0,1.7,0.2,2.5,0.5c0.7,0.3,1.3,0.8,1.7,1.4c0.4,0.5,0.8,1.1,1,1.7c0.2,0.6,0.3,1.1,0.3,1.7
	c0,0.4-0.1,0.7-0.2,0.8c-0.3,0.1-0.6,0.2-0.9,0.2l-7.1,0.1c-0.1,0-0.2,0.1-0.2,0.2c0,0.7,0.1,1.4,0.4,2.1c0.3,0.7,0.7,1.3,1.3,1.7
	c0.6,0.5,1.4,0.7,2.2,0.7c0.3,0,0.6,0,0.9-0.1c0.3,0,0.5-0.1,0.8-0.2l0.6-0.2c0.2-0.1,0.4-0.2,0.6-0.3l0.4-0.3l0.6-0.4
	c0.1,0,0.1,0.1,0.2,0.2c0.1,0.1,0.1,0.2,0.1,0.3c0,0.2-0.1,0.4-0.2,0.6c-0.4,0.7-1,1.2-1.7,1.6c-0.9,0.5-1.9,0.8-2.9,0.8
	c-1.7,0-3.3-0.6-4.5-1.9c-1.2-1.2-1.9-2.9-1.9-4.6c-0.1-1.8,0.5-3.5,1.7-4.9C102.1,13.7,103.7,13,105.3,13z M105.1,14.4
	c-0.5,0-0.9,0.2-1.3,0.4c-0.4,0.3-0.6,0.6-0.8,1c-0.2,0.4-0.3,0.7-0.4,1.1c-0.1,0.3-0.1,0.6-0.1,0.9c0,0.1,0.1,0.2,0.2,0.2l4.8-0.1
	c0.2,0,0.3-0.1,0.3-0.5c0-0.8-0.3-1.5-0.7-2.1C106.6,14.7,105.9,14.4,105.1,14.4L105.1,14.4z"/>
<path class="st0" d="M119.3,12.8c1-0.1,2,0.2,2.8,0.9c0.7,0.9,1.1,2.1,1,3.3l0.1,5.9c0,0.3,0.1,0.6,0.3,0.9c0.2,0.2,0.4,0.3,0.7,0.3
	c0.4,0,0.7-0.2,1-0.4c0.1,0,0.2,0.1,0.2,0.3c0,0.3,0,0.6-0.2,0.9c-0.4,0.3-0.8,0.5-1.2,0.8c-0.4,0.2-0.9,0.4-1.4,0.4
	c-0.5,0-1-0.2-1.3-0.5c-0.4-0.3-0.7-0.6-0.9-1.1l-0.2,0.2c-0.1,0.1-0.3,0.2-0.5,0.4c-0.2,0.2-0.5,0.3-0.8,0.5
	c-0.3,0.2-0.7,0.3-1,0.4c-0.4,0.1-0.8,0.2-1.2,0.2c-0.9,0-1.7-0.2-2.4-0.8c-0.7-0.6-1-1.4-1-2.2c0-0.5,0.1-0.9,0.3-1.3
	c0.2-0.4,0.5-0.7,0.8-1c0.4-0.3,0.8-0.6,1.3-0.8c0.4-0.2,0.9-0.4,1.4-0.6l1.5-0.5l1.3-0.4c0.2-0.1,0.3-0.3,0.3-0.5v-1.6
	c0-0.6-0.1-1.2-0.5-1.6c-0.3-0.4-0.8-0.6-1.3-0.6c-0.5,0-1,0.2-1.4,0.6c-0.4,0.4-0.5,1-0.5,1.6c0,0.4-0.1,0.7-0.4,0.9
	c-0.3,0.2-0.6,0.3-1,0.3c-0.6,0.1-1.2-0.2-1.6-0.7c0-1,0.6-1.9,1.9-2.7C116.5,13.3,117.9,12.9,119.3,12.8z M118.1,24.3
	c0.5,0,1-0.1,1.4-0.4c0.4-0.2,0.6-0.6,0.6-1v-3c-0.1,0.1-0.4,0.2-0.9,0.3c-0.4,0.1-0.8,0.3-1,0.4c-0.3,0.1-0.6,0.3-0.8,0.4
	c-0.3,0.2-0.5,0.4-0.7,0.7c-0.1,0.3-0.2,0.5-0.2,0.8c0,0.5,0.1,1,0.5,1.4C117.3,24.1,117.7,24.3,118.1,24.3z"/>
<path class="st0" d="M139.9,14.6c-0.4,0.3-1,0.7-1.9,1.4c-0.8,0.6-1.6,1.3-2.3,2.1c0.6,0.6,1.3,1.4,2.2,2.4c0.9,1,1.6,1.8,2.2,2.4
	c0.4,0.4,0.8,0.8,1.2,1.2c0.3,0.3,0.7,0.5,1.1,0.6c0.3,0.1,0.7,0.2,1,0.2c0.1,0,0.1,0.2,0.1,0.5c0,0.1,0,0.3,0,0.4l-3.5-0.1h-1.1
	l-1.3,0.1l-1.1,0.1c-0.1-0.2-0.1-0.3-0.1-0.5c0-0.3,0-0.4,0.1-0.4c0.2,0,0.5-0.1,0.7-0.1c0.3-0.1,0.4-0.2,0.4-0.3c0-0.2,0-0.1,0-0.1
	l-4.4-4.8l-0.4,0.1v1.8c0,0.9,0.1,1.8,0.3,2.7c0,0.1,0.3,0.3,0.8,0.4c0.3,0.1,0.7,0.2,1,0.2c0.1,0,0.1,0.1,0.1,0.4
	c0,0.2,0,0.4,0,0.6l-1.6-0.1c-0.9,0-1.6-0.1-2.1-0.1s-1.1,0-2.1,0.1l-1.6,0.1c-0.1-0.2-0.2-0.4-0.1-0.6c0-0.3,0-0.5,0.1-0.5
	c0.4,0,0.7-0.1,1.1-0.2c0.5-0.2,0.7-0.3,0.8-0.4c0.1-0.7,0.2-1.4,0.2-2.2l-0.1-12.3c0-0.7-0.1-1.3-0.2-2c-0.1-0.3-0.6-0.5-1.6-0.5
	h-0.3c-0.1,0-0.2-0.2-0.2-0.5s0.1-0.5,0.2-0.5c0.6-0.1,1.2-0.2,1.8-0.3s1-0.2,1.4-0.3c0.4-0.1,0.7-0.2,0.9-0.3l0.8-0.3h0.1
	c0.1,0,0.2,0.1,0.2,0.2c0.1,0.1,0.1,0.2,0.1,0.3c-0.2,0.9-0.4,1.9-0.3,2.8l0.1,9.9c0.3-0.1,0.6-0.2,0.9-0.3c0.4-0.4,0.9-0.8,1.3-1.2
	l1-0.9c0.2-0.2,0.4-0.4,0.6-0.6c0.2-0.1,0.3-0.3,0.4-0.5c0.1-0.1,0.1-0.2,0.1-0.4c0-0.2-0.2-0.4-0.7-0.4c-0.2,0-0.5,0-0.7-0.1
	c-0.1-0.2-0.1-0.3-0.1-0.5c0-0.2,0-0.3,0.1-0.3h2.9c0.5,0,1.6-0.1,3.1-0.2c0.1,0.1,0.1,0.2,0.1,0.3c0,0.1,0,0.3,0,0.4
	c0,0.1-0.1,0.2-0.1,0.2C141.2,14,140.5,14.2,139.9,14.6z"/>
<path class="st0" d="M151.5,21.4c0,0.9,0.1,1.8,0.3,2.7c0,0.1,0.3,0.3,0.8,0.4c0.3,0.1,0.7,0.2,1,0.2c0.1,0,0.1,0.1,0.1,0.4
	c0,0.2,0,0.4,0,0.6l-1.6-0.1c-0.9,0-1.6-0.1-2-0.1s-1.1,0-2.1,0.1l-1.6,0.1c-0.1-0.2-0.1-0.4-0.1-0.6c0-0.3,0-0.5,0.1-0.5
	c0.4,0,0.7-0.1,1.1-0.2c0.5-0.2,0.8-0.3,0.8-0.4c0.1-0.7,0.2-1.4,0.2-2.2l-0.1-4.9c0.1-0.7-0.1-1.3-0.5-1.9
	c-0.2-0.2-0.4-0.4-0.7-0.4c-0.2-0.1-0.5-0.1-0.7-0.2c-0.2,0-0.3,0-0.3-0.1c0-0.6,0.1-0.9,0.2-0.9c0.8-0.1,1.6-0.2,2.4-0.4
	c0.8-0.1,1.6-0.3,2.3-0.6l0.2-0.1c0.1,0,0.2,0.1,0.2,0.2c0.1,0.1,0.1,0.2,0.1,0.3c-0.1,1.3-0.2,2.1-0.2,2.6L151.5,21.4z M148.2,9
	c-0.4-0.3-0.6-0.8-0.6-1.3c0-1,0.8-1.8,1.8-1.8s1.8,0.8,1.8,1.8c0,0.5-0.2,1-0.5,1.3C150.2,9.7,149,9.7,148.2,9
	C148.3,9,148.3,9,148.2,9L148.2,9z"/>
<path class="st0" d="M165.6,12.3c2.6,0,3.9,2,3.9,6v2.8c0,0.9,0.1,1.8,0.2,2.7c0,0.1,0.3,0.3,0.8,0.4c0.3,0.1,0.7,0.2,1,0.2
	c0.1,0,0.1,0.1,0.1,0.4c0,0.2,0,0.4,0,0.6c-0.1,0-0.6,0-1.6-0.1s-1.6-0.1-2.1-0.1c-0.5,0-1.1,0-2,0.1l-1.5,0.1
	c-0.1-0.2-0.2-0.4-0.1-0.6c0-0.3,0-0.5,0.1-0.5c0.3,0,0.7-0.1,1-0.2c0.4-0.1,0.7-0.3,0.7-0.4c0.2-0.7,0.2-1.4,0.2-2.2v-2.8
	c0.1-1.2-0.2-2.4-0.7-3.4c-0.5-0.7-1.3-1.1-2.1-1c-0.6,0-1.1,0.2-1.6,0.6c-0.4,0.2-0.7,0.7-0.7,1.1l0.1,5.1c0,0.9,0.1,1.8,0.2,2.7
	c0,0.1,0.3,0.3,0.8,0.4c0.3,0.1,0.7,0.2,1,0.2c0.1,0,0.1,0.1,0.1,0.4c0,0.2,0,0.4,0,0.6l-1.6-0.1c-0.9,0-1.6-0.1-2-0.1
	c-0.5,0-1.2,0-2.1,0.1l-1.6,0.1c-0.1-0.2-0.1-0.4-0.1-0.6c0-0.3,0-0.5,0.1-0.5c0.4,0,0.7-0.1,1.1-0.2c0.5-0.2,0.7-0.3,0.8-0.4
	c0.1-0.7,0.2-1.4,0.2-2.2l-0.2-4.8c0.1-0.7-0.1-1.3-0.5-1.9c-0.2-0.2-0.4-0.4-0.7-0.4c-0.2-0.1-0.5-0.1-0.7-0.2
	c-0.2,0-0.3,0-0.3-0.1c0-0.6,0-0.9,0.1-0.9c1.6-0.2,3.2-0.5,4.8-0.9h0.1h0.1h0.1c0.1,0,0.1,0.1,0.2,0.2c0.1,0.1,0.1,0.2,0.1,0.3
	c-0.1,0.4-0.1,0.7-0.1,1.1c0,0,0,0.1,0,0.1c0.1,0,0.1-0.1,0.1-0.1c0.5-0.5,1.1-1,1.8-1.3C164,12.6,164.8,12.3,165.6,12.3z"/>
<path class="st0" d="M179.9,12.2c0.8,0,1.7,0.1,2.5,0.4c0.8,0.2,1.6,0.3,2.4,0.4h1.7c0,0,0.1,0.1,0.2,0.4c0.1,0.2,0.1,0.4,0.2,0.6
	c0,0.3-0.1,0.4-0.2,0.4h-1.9c-0.1,0-0.1,0-0.1,0.1s0.1,0.3,0.3,0.8c0.2,0.5,0.3,0.9,0.3,1.4c0,1.2-0.5,2.4-1.4,3.2
	c-1,1-2.3,1.5-3.7,1.5c-0.6,0-1.2,0-1.8-0.1c-0.3,0.1-0.5,0.3-0.6,0.6c-0.2,0.2-0.3,0.5-0.3,0.7c0,0.2,0.1,0.4,0.3,0.5
	c0.3,0.2,0.6,0.3,0.9,0.3c0.4,0.1,0.7,0.1,1,0.1h1.2h0.4c1.5-0.1,3,0.2,4.4,0.8c0.9,0.4,1.4,1.2,1.4,2.2c0,1.6-0.8,3-2.1,3.9
	c-1.4,1.1-3.2,1.7-5,1.7c-1.3,0.1-2.6-0.2-3.8-0.8c-1-0.4-1.6-1.4-1.6-2.4c0-0.7,0.3-1.3,0.8-1.7c0.5-0.5,1.1-0.9,1.8-1.1
	c-0.5-0.2-1-0.5-1.4-0.9c-0.4-0.4-0.7-1-0.7-1.5c0-0.9,0.7-1.7,2.2-2.7c-0.7-0.3-1.2-0.9-1.6-1.5c-0.5-0.7-0.8-1.5-0.8-2.4
	c-0.1-1.3,0.5-2.5,1.5-3.4C177.2,12.6,178.5,12.2,179.9,12.2z M184.1,27.7c0-0.7-0.5-1.1-1.5-1.4c-1.3-0.2-2.7-0.3-4-0.3h-0.1
	l-0.1,0.1c-0.3,0.1-0.5,0.2-0.6,0.3c-0.2,0.1-0.3,0.2-0.5,0.3c-0.2,0.1-0.3,0.3-0.4,0.5c-0.1,0.2-0.1,0.5-0.1,0.7
	c0,0.8,0.5,1.4,1.1,1.8c0.8,0.5,1.6,0.7,2.5,0.7c1,0,1.9-0.3,2.7-0.8C183.8,29.2,184.2,28.5,184.1,27.7z M177.7,16.5
	c0,0.9,0.2,1.7,0.6,2.5c0.3,0.6,1,1,1.7,1c0.7,0,1.3-0.3,1.6-0.9c0.4-0.6,0.5-1.4,0.5-2.1c0-0.9-0.2-1.8-0.6-2.6c-0.3-0.6-1-1-1.7-1
	c-0.7,0-1.3,0.3-1.6,0.9C177.8,15.1,177.6,15.8,177.7,16.5L177.7,16.5z"/>
<path class="st0" d="M215.1,14c0-0.2-0.1-0.4-0.2-0.6c-0.2-0.2-0.4-0.3-0.6-0.4c-0.2-0.1-0.5-0.1-0.7-0.1c-0.2,0-0.4,0-0.6,0h-0.1
	c-0.1,0-0.1-0.1-0.1-0.4s0-0.5,0.1-0.5c0.3,0,0.8,0,1.6,0.1c0.8,0,1.4,0.1,1.9,0.1c0.4,0,0.9,0,1.6-0.1s1.1-0.1,1.4-0.1
	c0,0.2,0.1,0.3,0.1,0.5c0,0.3,0,0.4-0.1,0.4c-0.4,0.1-0.8,0.2-1.2,0.4c-0.4,0.2-0.8,0.5-1,0.9l-4.3,10.6c-0.1,0.2-0.2,0.3-0.4,0.4
	c-0.2,0.1-0.4,0.2-0.6,0.2c-0.2,0-0.3-0.1-0.4-0.2l-3.7-8.2l-3.1,7.8c-0.1,0.2-0.2,0.3-0.3,0.4c-0.2,0.2-0.4,0.3-0.6,0.2
	c-0.2,0-0.3-0.1-0.4-0.2c-0.5-1-1-2.3-1.7-3.7c-0.6-1.5-1.2-2.8-1.8-3.9c-0.5-1.1-1.1-2.3-1.8-3.7c-0.2-0.3-0.5-0.5-0.8-0.6
	c-0.3-0.1-0.7-0.2-1-0.2c-0.1,0-0.1-0.2-0.1-0.5s0-0.5,0.1-0.5c0.2,0,0.7,0,1.5,0.1s1.4,0.1,1.9,0.1s1.1,0,2-0.1l1.5-0.1
	c0.1,0.2,0.1,0.4,0.1,0.5c0,0.3,0,0.4-0.1,0.4c-0.3,0-0.7,0.1-1,0.2c-0.4,0.1-0.6,0.4-0.6,0.6c0,0,1,2.3,3.1,6.8
	c0.2-0.6,0.5-1.2,0.7-1.9l0.6-1.6l0.4-1.1c0.1-0.4,0.2-0.7,0.3-0.9c0-0.1,0.1-0.2,0.1-0.4c0-0.4-0.2-0.8-0.4-1.2
	c-0.2-0.2-0.4-0.4-0.7-0.5c-0.3-0.1-0.7-0.2-1.1-0.2c-0.1,0-0.1-0.1-0.1-0.4s0-0.5,0.1-0.5s0.7,0,1.5,0.1s1.4,0.1,1.9,0.1
	s1.1,0,1.9-0.1l1.5-0.1c0.1,0.2,0.1,0.4,0.1,0.6c0,0.3,0,0.4-0.1,0.4c-1,0-1.5,0.4-1.5,1.1c0.8,2.3,1.7,4.5,2.9,6.6
	c0.3-0.8,0.7-1.8,1.1-2.9c0.5-1.1,0.8-2,1-2.5C214.9,14.8,215,14.4,215.1,14z"/>
<path class="st0" d="M226.9,20.5c0,0.9,0.1,1.8,0.3,2.7c0,0.1,0.3,0.3,0.8,0.4c0.3,0.1,0.7,0.2,1,0.2c0.1,0,0.1,0.1,0.1,0.4
	c0,0.2,0,0.4,0,0.6l-1.6-0.1c-0.9,0-1.6-0.1-2-0.1s-1.1,0-2.1,0.1l-1.6,0.1c-0.1-0.2-0.2-0.4-0.1-0.6c0-0.3,0-0.5,0.1-0.5
	c0.4,0,0.7-0.1,1.1-0.2c0.5-0.2,0.8-0.3,0.8-0.4c0.1-0.7,0.2-1.4,0.2-2.2l-0.1-4.9c0.1-0.7-0.1-1.3-0.5-1.9
	c-0.2-0.2-0.4-0.4-0.7-0.4c-0.2-0.1-0.5-0.1-0.7-0.2c-0.2,0-0.3,0-0.3-0.1c0-0.6,0.1-0.9,0.2-0.9c0.8-0.1,1.6-0.2,2.4-0.4
	c0.8-0.1,1.6-0.3,2.3-0.6l0.2-0.1c0.1,0,0.2,0.1,0.2,0.2c0.1,0.1,0.1,0.2,0.1,0.3c-0.1,0.8-0.2,1.7-0.2,2.6L226.9,20.5z M223.7,8.1
	c-0.4-0.3-0.6-0.8-0.6-1.3c0-0.5,0.2-1,0.5-1.3c0.7-0.7,1.9-0.8,2.6-0.1c0.4,0.3,0.6,0.8,0.6,1.3c0,0.5-0.2,1-0.5,1.3
	C225.6,8.8,224.5,8.8,223.7,8.1C223.7,8.1,223.7,8.1,223.7,8.1L223.7,8.1z"/>
<path class="st0" d="M233.1,13.6h-1.8c-0.1,0-0.2-0.2-0.2-0.8c0-0.1,0-0.2,0-0.3c0.8-0.4,1.6-0.9,2.3-1.6l0.8-0.9
	c0.3-0.3,0.7-0.8,1.1-1.3c0.2,0,0.4,0,0.6,0.1c0.2,0,0.3,0.1,0.3,0.2v2.9h3.6c0.2,0,0.2,0.1,0.2,0.3c0,0.5-0.1,0.9-0.3,1.3h-3.6
	l0.1,7.2c0,0.6,0.2,1.3,0.5,1.8c0.3,0.4,0.9,0.6,1.4,0.6c0.2,0,0.4,0,0.6-0.1c0.2,0,0.4-0.1,0.5-0.2l0.4-0.2l0.2-0.1
	c0.1,0,0.2,0.1,0.3,0.3s0.1,0.3,0.1,0.4c-0.3,0.5-0.7,0.8-1.2,1c-0.7,0.4-1.4,0.6-2.1,0.6c-1,0-1.9-0.3-2.6-1
	c-0.8-0.8-1.2-1.9-1.1-3.1L233.1,13.6z"/>
<path class="st0" d="M252.4,11.3c2.5,0,3.8,1.9,3.9,5.8v3.1c0,0.9,0.1,1.8,0.3,2.7c0,0.1,0.3,0.3,0.8,0.4c0.3,0.1,0.7,0.2,1,0.2
	c0.1,0,0.1,0.1,0.1,0.4c0,0.2,0,0.4,0,0.6l-1.6-0.1c-0.9,0-1.6-0.1-2-0.1s-1.1,0-2,0.1l-1.6,0.1c-0.1-0.2-0.1-0.4-0.1-0.6
	c0-0.3,0-0.5,0.1-0.5c0.3,0,0.7-0.1,1-0.2c0.4-0.2,0.7-0.3,0.8-0.4c0.1-0.7,0.2-1.4,0.1-2.2v-2.9c0.1-1.2-0.2-2.4-0.7-3.4
	c-0.5-0.6-1.3-1-2.1-0.9c-0.6,0-1.2,0.2-1.6,0.5c-0.4,0.2-0.7,0.7-0.7,1.1l0.1,5.1c0,0.9,0.1,1.8,0.3,2.7c0,0.1,0.3,0.3,0.8,0.4
	c0.3,0.1,0.7,0.2,1,0.2c0.1,0,0.1,0.1,0.1,0.4c0,0.2,0,0.4,0,0.6l-1.6-0.1c-0.9,0-1.5-0.1-2-0.1c-0.5,0-1.1,0-2.1,0.1l-1.6,0.1
	c-0.1-0.2-0.2-0.4-0.1-0.6c0-0.3,0-0.5,0.1-0.5c0.4,0,0.7-0.1,1-0.2c0.5-0.2,0.7-0.3,0.8-0.4c0.1-0.7,0.2-1.4,0.2-2.1l-0.1-12.4
	c0-0.7-0.1-1.3-0.2-2c-0.1-0.3-0.6-0.4-1.5-0.4h-0.3c-0.1,0-0.2-0.2-0.2-0.5c0-0.3,0.1-0.5,0.2-0.5c0.6-0.1,1.2-0.2,1.8-0.3
	s1-0.2,1.4-0.3c0.4-0.1,0.7-0.2,0.9-0.3l0.8-0.3h0.1c0.1,0,0.2,0.1,0.2,0.2c0.1,0.1,0.1,0.2,0.1,0.3c-0.2,0.9-0.4,1.9-0.3,2.8l0.1,6
	c0,0.1,0,0.2,0.1,0.2s0.1,0,0.1-0.1c0.5-0.5,1.1-1,1.8-1.3C250.7,11.5,251.6,11.3,252.4,11.3z"/>
<path class="st0" d="M278.7,4.5l6.4,15.5c0.3,0.8,0.6,1.5,0.9,2.2c0.2,0.4,0.6,0.6,1,0.7c0.4,0.1,0.7,0.2,1.1,0.2
	c0.1,0,0.1,0.2,0.1,0.5c0,0.2,0,0.3,0,0.5l-3.8-0.1l-3.9,0.2c-0.1-0.2-0.1-0.4-0.1-0.5c0-0.3,0-0.4,0.1-0.4c0.3,0,0.7-0.1,1-0.2
	c0.4-0.1,0.7-0.3,0.7-0.4c0.1-0.1,0.1-0.3,0.1-0.4c-0.1-0.7-0.3-1.4-0.6-2l-1.1-2.8c-0.1-0.1-0.1-0.1-0.2-0.1c-0.7,0-1.5,0-2.6,0
	c-1,0-2.2,0-3.4,0.1c-0.1,0-0.2,0-0.2,0.1l-1.1,2.8c-0.3,0.6-0.4,1.3-0.5,1.9c0,0.2,0.1,0.5,0.3,0.6c0.3,0.2,0.6,0.3,0.9,0.3
	c0.3,0.1,0.6,0.1,0.9,0.1c0.1,0,0.1,0.2,0.1,0.4c0,0.2,0,0.4,0,0.6l-1.4-0.1c-0.8,0-1.5-0.1-2-0.1s-1.1,0-1.8,0.1l-1.5,0.1
	c-0.1-0.1-0.1-0.3-0.1-0.4c0-0.4,0-0.5,0-0.5c0.4,0,0.8-0.1,1.1-0.3c0.4-0.1,0.7-0.3,1-0.6c0.4-0.7,0.8-1.5,1.1-2.3l5.3-13.6
	c0.2-0.8,0.6-1.5,1.1-2.2c0.1-0.1,0.3-0.2,0.5-0.2C278.4,4.3,278.6,4.4,278.7,4.5z M275.2,15.6c0.7,0.1,1.4,0.1,2.1,0.1
	c0.8,0,1.6-0.1,2.4-0.1l0.1-0.1l-2.3-5.9L275.2,15.6C275.2,15.5,275.2,15.6,275.2,15.6z"/>
<path class="st0" d="M297.4,10.7c0.7,0,1.5,0.1,2.2,0.4c0.1,0,0.1-0.2,0.1-0.5V7.8c0-0.7-0.1-1.3-0.2-2c-0.1-0.3-0.6-0.5-1.5-0.5
	h-0.2c-0.1,0-0.2-0.2-0.2-0.5c0-0.3,0.1-0.5,0.2-0.5c0.6-0.1,1.2-0.2,1.7-0.3s1-0.2,1.4-0.3c0.4-0.1,0.7-0.2,1-0.3l0.6-0.2l0.2-0.1
	h0.1c0.1,0,0.2,0,0.2,0.2c0.1,0.1,0.1,0.2,0.1,0.3c-0.2,0.9-0.3,1.9-0.3,2.8l0.1,13.1c0,0.7,0.1,1.5,0.2,2.2c0,0.2,0.2,0.3,0.3,0.3
	c0.2,0.1,0.4,0.1,0.6,0.1h0.6h0.3c0,0,0.1,0.2,0.1,0.4c0,0.4-0.1,0.6-0.2,0.6c-0.3,0-0.6,0-1,0.1l-1.2,0.2l-1.2,0.2L300,24
	c-0.1,0-0.2-0.2-0.2-0.5V23c0,0,0-0.1,0-0.1c0,0-0.1,0-0.1,0c-0.9,0.7-2,1.1-3.1,1.1c-1.6,0-3.1-0.6-4.2-1.7
	c-1.2-1.2-1.9-2.8-1.8-4.4c0-1.9,0.7-3.7,2-5.1C293.8,11.5,295.6,10.7,297.4,10.7z M297.1,12.1c-1,0-1.9,0.5-2.4,1.4
	c-0.6,1.1-0.8,2.4-0.8,3.6c-0.1,1.4,0.3,2.7,1,3.9c0.6,0.9,1.5,1.4,2.6,1.4c0.6,0,1.2-0.2,1.6-0.5c0.4-0.3,0.6-0.8,0.6-1.3l-0.1-6.2
	c0-0.2,0-0.4-0.1-0.6c-0.1-0.2-0.2-0.5-0.4-0.7c-0.2-0.3-0.5-0.5-0.8-0.6C298.1,12.2,297.6,12.1,297.1,12.1z"/>
<path class="st0" d="M315.8,10.5c0.9-0.1,1.8,0.3,2.5,1c0,1.7-0.5,2.5-1.4,2.5c-0.4,0-0.9-0.2-1.2-0.6c-0.3-0.4-0.8-0.6-1.3-0.6
	c-0.6,0-1.2,0.4-1.4,1c-0.3,0.6-0.5,1.3-0.5,2v3.7c0,0.9,0.1,1.8,0.2,2.7c0,0.1,0.3,0.3,0.8,0.4c0.3,0.1,0.7,0.2,1,0.2
	c0.1,0,0.1,0.1,0.1,0.4c0,0.2,0,0.4,0,0.6l-1.6-0.1c-0.9,0-1.6-0.1-2-0.1s-1.1,0-2.1,0.1l-1.6,0.1c-0.1-0.2-0.2-0.4-0.1-0.6
	c0-0.3,0-0.5,0.1-0.5c0.4,0,0.7-0.1,1.1-0.2c0.5-0.2,0.7-0.3,0.8-0.4c0.1-0.7,0.2-1.4,0.2-2.2l-0.1-4.9c0.1-0.7-0.1-1.3-0.5-1.9
	c-0.2-0.2-0.4-0.4-0.7-0.4c-0.2-0.1-0.5-0.1-0.7-0.2c-0.2,0-0.3,0-0.3-0.1c0-0.6,0-0.9,0.1-0.9c1.6-0.2,3.2-0.5,4.8-0.9l0.2-0.1
	c0.1,0,0.1,0.1,0.2,0.2c0.1,0.1,0.1,0.2,0.1,0.3v0.4c0,0.2,0,0.4-0.1,0.6c0,0.1,0,0.3,0,0.4c0.4-0.6,0.9-1.1,1.4-1.5
	C314.5,10.9,315.1,10.6,315.8,10.5z"/>
<path class="st0" d="M326.2,19.3c0,0.9,0.1,1.8,0.3,2.7c0,0.1,0.3,0.3,0.8,0.4c0.3,0.1,0.7,0.2,1,0.2c0.1,0,0.1,0.1,0.1,0.4
	c0,0.2,0,0.4,0,0.6l-1.6-0.1c-0.9,0-1.6-0.1-2-0.1s-1.1,0-2.1,0.1l-1.6,0.1c-0.1-0.2-0.2-0.4-0.1-0.6c0-0.3,0-0.5,0.1-0.5
	c0.4,0,0.7-0.1,1.1-0.2c0.5-0.2,0.8-0.3,0.8-0.4c0.1-0.7,0.2-1.4,0.2-2.2L323,15c0.1-0.7-0.1-1.3-0.5-1.9c-0.2-0.2-0.4-0.4-0.7-0.4
	c-0.2-0.1-0.5-0.1-0.7-0.2c-0.2,0-0.3,0-0.3-0.1c0-0.6,0.1-0.9,0.2-0.9c0.8-0.1,1.6-0.2,2.4-0.4c0.8-0.1,1.6-0.3,2.3-0.6l0.2-0.1
	c0.1,0,0.2,0.1,0.2,0.2c0.1,0.1,0.1,0.2,0.1,0.3c-0.1,0.8-0.2,1.7-0.2,2.6L326.2,19.3z M322.9,6.9c-0.4-0.3-0.6-0.8-0.5-1.3
	c0-0.5,0.2-1,0.5-1.3c0.7-0.7,1.9-0.8,2.6-0.1c0.4,0.3,0.6,0.8,0.6,1.3c0,0.5-0.2,1-0.5,1.3C324.8,7.6,323.7,7.6,322.9,6.9
	C323,6.9,322.9,6.9,322.9,6.9L322.9,6.9z"/>
<path class="st0" d="M336.8,10.3c1-0.1,2,0.2,2.8,0.9c0.7,0.9,1.1,2.1,1,3.3l0.1,5.9c0,0.3,0.1,0.6,0.3,0.9c0.2,0.2,0.4,0.3,0.7,0.3
	c0.4,0,0.7-0.2,1-0.4c0.1,0,0.2,0.1,0.2,0.3c0,0.3,0,0.6-0.2,0.9c-0.4,0.3-0.8,0.5-1.2,0.8c-0.4,0.2-0.9,0.4-1.4,0.4
	c-0.5,0-1-0.2-1.3-0.5c-0.4-0.3-0.7-0.6-0.9-1.1l-0.2,0.2c-0.1,0.1-0.3,0.2-0.5,0.4c-0.2,0.2-0.5,0.3-0.8,0.5
	c-0.3,0.2-0.7,0.3-1,0.4c-0.4,0.1-0.8,0.2-1.2,0.2c-0.9,0-1.7-0.2-2.4-0.8c-0.7-0.6-1-1.4-1-2.2c0-0.5,0.1-0.9,0.3-1.3
	c0.2-0.4,0.5-0.7,0.8-1c0.4-0.3,0.8-0.6,1.3-0.8c0.4-0.2,0.9-0.4,1.4-0.6l1.5-0.5l1.3-0.4c0.2-0.1,0.3-0.3,0.3-0.5v-1.6
	c0-0.6-0.2-1.2-0.5-1.6c-0.3-0.4-0.8-0.6-1.3-0.6c-0.5,0-1,0.2-1.4,0.6c-0.4,0.4-0.5,1-0.5,1.6c0,0.4-0.1,0.7-0.4,0.9
	c-0.3,0.2-0.6,0.3-1,0.3c-0.6,0.1-1.2-0.2-1.5-0.7c0-1,0.6-1.9,1.9-2.7C334,10.8,335.4,10.3,336.8,10.3z M335.6,21.7
	c0.5,0,1-0.1,1.4-0.4c0.4-0.2,0.6-0.6,0.6-1v-3c-0.1,0.1-0.4,0.2-0.9,0.3c-0.4,0.1-0.8,0.3-1,0.4c-0.3,0.1-0.6,0.3-0.8,0.4
	c-0.3,0.2-0.5,0.4-0.7,0.7c-0.1,0.3-0.2,0.5-0.2,0.8c0,0.5,0.1,1,0.5,1.4C334.8,21.6,335.2,21.7,335.6,21.7L335.6,21.7z"/>
<path class="st0" d="M354.7,10.1c2.6,0,3.9,2,3.9,6v2.8c0,0.9,0.1,1.8,0.2,2.7c0,0.1,0.3,0.3,0.8,0.4c0.3,0.1,0.7,0.2,1,0.2
	c0.1,0,0.1,0.1,0.1,0.4c0,0.2,0,0.4,0,0.6c-0.1,0-0.6,0-1.6-0.1c-0.9-0.1-1.6-0.1-2.1-0.1c-0.5,0-1.1,0-2,0.1l-1.5,0.1
	c-0.1-0.2-0.2-0.4-0.1-0.6c0-0.3,0-0.5,0.1-0.5c0.3,0,0.7-0.1,1-0.2c0.4-0.1,0.7-0.3,0.7-0.4c0.2-0.7,0.2-1.4,0.2-2.2v-2.8
	c0.1-1.2-0.2-2.4-0.7-3.4c-0.5-0.7-1.3-1.1-2.1-1c-0.6,0-1.2,0.2-1.7,0.5c-0.4,0.2-0.7,0.7-0.7,1.1l0.1,5.1c0,0.9,0.1,1.8,0.2,2.7
	c0,0.1,0.3,0.3,0.8,0.4c0.3,0.1,0.7,0.2,1,0.2c0.1,0,0.1,0.1,0.1,0.4c0,0.2,0,0.4,0,0.6l-1.6-0.1c-0.9,0-1.5-0.1-2-0.1
	s-1.1,0-2.1,0.1l-1.6,0.1c-0.1-0.2-0.2-0.4-0.1-0.6c0-0.3,0-0.5,0.1-0.5c0.4,0,0.7-0.1,1.1-0.2c0.5-0.2,0.7-0.3,0.8-0.4
	c0.1-0.7,0.2-1.4,0.2-2.2l-0.1-4.9c0.1-0.7-0.1-1.3-0.5-1.9c-0.2-0.2-0.4-0.4-0.7-0.4c-0.2-0.1-0.5-0.1-0.7-0.2
	c-0.2,0-0.3,0-0.3-0.1c0-0.6,0-0.9,0.1-0.9c1.6-0.2,3.2-0.5,4.8-0.8h0.1h0.1h0.1c0.1,0,0.1,0.1,0.2,0.2c0.1,0.1,0.1,0.2,0.1,0.3
	c-0.1,0.4-0.1,0.7-0.1,1.1c0,0,0,0.1,0,0.1c0.1,0,0.1-0.1,0.1-0.1c0.5-0.5,1.1-1,1.8-1.3C353.1,10.3,353.9,10.1,354.7,10.1z"/>
<path class="st0" d="M369.5,9.9c1-0.1,2,0.2,2.8,0.9c0.7,0.9,1.1,2.1,1,3.3l0.1,5.9c0,0.3,0.1,0.6,0.3,0.9c0.2,0.2,0.4,0.3,0.7,0.3
	c0.4,0,0.7-0.2,1-0.4c0.1,0,0.2,0.1,0.2,0.3c0,0.3,0,0.6-0.2,0.9c-0.4,0.3-0.8,0.5-1.2,0.8c-0.4,0.2-0.9,0.4-1.4,0.4
	c-0.5,0-1-0.2-1.3-0.5c-0.4-0.3-0.7-0.6-0.9-1.1l-0.2,0.2c-0.1,0.1-0.3,0.2-0.5,0.4c-0.2,0.2-0.5,0.3-0.8,0.5
	c-0.3,0.2-0.7,0.3-1,0.4c-0.4,0.1-0.8,0.2-1.2,0.2c-0.9,0-1.7-0.2-2.4-0.8c-0.7-0.6-1-1.4-1-2.2c0-0.5,0.1-0.9,0.3-1.3
	c0.2-0.4,0.5-0.7,0.8-1c0.4-0.3,0.8-0.6,1.3-0.8c0.4-0.2,0.9-0.4,1.4-0.6l1.5-0.5l1.3-0.4c0.2-0.1,0.3-0.3,0.3-0.5v-1.6
	c0-0.6-0.2-1.2-0.5-1.6c-0.3-0.4-0.8-0.6-1.3-0.6c-0.5,0-1,0.2-1.4,0.6c-0.4,0.4-0.5,1-0.5,1.6c0,0.4-0.1,0.7-0.4,0.9
	c-0.3,0.2-0.6,0.3-1,0.3c-0.6,0.1-1.2-0.2-1.5-0.7c0-1,0.6-1.9,1.9-2.7C366.6,10.4,368,9.9,369.5,9.9z M368.3,21.3
	c0.5,0,1-0.1,1.4-0.4c0.4-0.2,0.6-0.6,0.6-1v-3c-0.1,0.1-0.4,0.2-0.9,0.3c-0.4,0.1-0.8,0.3-1,0.4c-0.3,0.1-0.6,0.3-0.8,0.4
	c-0.3,0.2-0.5,0.4-0.7,0.7c-0.1,0.3-0.2,0.5-0.2,0.8c0,0.5,0.1,1,0.5,1.4C367.4,21.2,367.8,21.3,368.3,21.3L368.3,21.3z"/>
<path class="st0" d="M388.5,3.3c0.4,0,1.7-0.1,4.1-0.2c0.1,0.2,0.1,0.4,0,0.5c0,0.3,0,0.4-0.1,0.4c-0.4,0-0.7,0.1-1.1,0.2
	c-0.4,0.1-0.6,0.4-0.6,0.6c0,0.3,0.1,0.5,0.3,0.8l3.2,5.7c0.1,0.1,0.2,0.1,0.3-0.1c0.8-1.3,1.6-2.6,2.4-4c0.5-0.8,0.9-1.7,1.2-2.6
	c0-0.2-0.2-0.4-0.6-0.6c-0.5-0.2-1-0.2-1.4-0.2c-0.1,0-0.1-0.1-0.1-0.4c0-0.2,0-0.4,0.1-0.5c2,0.1,3.2,0.1,3.6,0.1
	c0.4,0,0.8,0,1.2,0l1.1-0.2h0.9c0,0.2,0.1,0.3,0.1,0.5c0,0.3,0,0.5-0.1,0.5c-0.4,0-0.8,0.1-1.2,0.3c-0.4,0.1-0.8,0.4-1.1,0.7
	c-0.6,0.9-1.6,2.5-3,4.9c-0.9,1.3-1.6,2.6-2.2,4l0,4.6c0,0.9,0.1,1.8,0.3,2.7c0,0.1,0.3,0.3,0.8,0.5c0.3,0.1,0.7,0.2,1,0.2
	c0.1,0,0.1,0.2,0.1,0.5c0,0.2,0,0.3,0,0.5l-1.1-0.1l-1.4-0.1h-1.2c-0.5,0-1.3,0-2.2,0.1l-1.7,0.1c-0.1-0.1-0.1-0.3-0.1-0.5
	c0-0.3,0-0.5,0.1-0.5c0.4,0,0.7-0.1,1.1-0.2c0.5-0.2,0.8-0.3,0.8-0.5c0.2-0.9,0.2-1.7,0.2-2.6l-0.1-4.4c0-0.2-0.1-0.4-0.2-0.6
	c-0.1-0.3-0.4-0.7-0.7-1.3l-0.9-1.5l-1.2-2.1l-1.2-2.1c-0.4-0.8-0.9-1.5-1.6-2c-0.3-0.2-0.6-0.3-0.9-0.4c-0.3-0.1-0.6-0.1-0.9-0.2
	c-0.1,0-0.1-0.1-0.1-0.3c0-0.1,0-0.3,0-0.4C385,3.4,386.3,3.3,388.5,3.3z"/>
<path class="st0" d="M414.9,11.2c-0.3-0.5-1-0.8-2.1-0.8c-0.1,0-0.1-0.1-0.1-0.4c0-0.2,0-0.4,0.1-0.5c0.3,0,0.8,0,1.4,0.1
	s1.2,0.1,1.7,0.1c0.4,0,1,0,1.7-0.1c0.7-0.1,1.2-0.1,1.5-0.1c0.1,0.1,0.1,0.3,0.1,0.5c0,0.3-0.1,0.5-0.2,0.5c-0.4,0-0.8,0.1-1.2,0.3
	c-0.4,0.1-0.8,0.5-1,0.9l-4.8,10.6c-0.1,0.2-0.2,0.4-0.4,0.5c-0.1,0.2-0.3,0.2-0.5,0.3c-0.2,0-0.3-0.1-0.4-0.2
	c-0.4-0.9-1-2.1-1.7-3.7c-0.7-1.6-1.3-2.9-1.8-4c-0.5-1.1-1.1-2.3-1.7-3.7c-0.2-0.6-0.9-0.8-1.9-0.8c-0.1,0-0.1-0.2-0.1-0.5
	c0-0.2,0-0.3,0.1-0.5c0.2,0,0.7,0,1.6,0.1s1.5,0.1,2,0.1s1.2,0,2-0.1l1.5-0.1c0.1,0.2,0.1,0.3,0.1,0.5c0,0.3,0,0.4-0.1,0.4
	c-0.4,0-0.7,0.1-1,0.2c-0.4,0.1-0.7,0.3-0.7,0.5c0,0.1,0,0.2,0.1,0.3l3,6.8l2.6-5.9C415,11.8,415.1,11.4,414.9,11.2z"/>
<path class="st0" d="M427.6,9.2c0.9,0,1.7,0.2,2.5,0.5c0.7,0.3,1.3,0.8,1.7,1.4c0.4,0.5,0.8,1.1,1,1.7c0.2,0.6,0.3,1.1,0.4,1.7
	c0,0.4-0.1,0.7-0.2,0.8c-0.3,0.1-0.6,0.2-0.9,0.2l-7.1,0.1c-0.1,0-0.2,0.1-0.2,0.2c0,0.7,0.1,1.4,0.4,2.1c0.3,0.7,0.7,1.3,1.3,1.7
	c0.6,0.5,1.4,0.7,2.2,0.7c0.3,0,0.6,0,0.9-0.1c0.3,0,0.5-0.1,0.8-0.2L431,20c0.2-0.1,0.4-0.2,0.5-0.3l0.4-0.3l0.6-0.4
	c0.1,0,0.1,0.1,0.1,0.2c0.1,0.1,0.1,0.2,0.1,0.3c0,0.2-0.1,0.4-0.2,0.6c-0.4,0.7-1,1.2-1.7,1.6c-0.9,0.5-1.9,0.8-2.9,0.8
	c-1.7,0-3.3-0.6-4.5-1.9c-1.3-1.2-2-2.9-2-4.7c-0.1-1.8,0.5-3.5,1.7-4.9C424.3,9.9,425.9,9.2,427.6,9.2z M427.4,10.6
	c-0.5,0-0.9,0.2-1.3,0.4c-0.4,0.3-0.7,0.6-0.9,1c-0.2,0.4-0.3,0.7-0.4,1.1c-0.1,0.3-0.1,0.6-0.1,0.9c0,0.1,0.1,0.2,0.2,0.2l4.8-0.1
	c0.2,0,0.3-0.1,0.3-0.4c0-0.8-0.3-1.5-0.7-2.1C428.9,10.9,428.2,10.6,427.4,10.6L427.4,10.6z"/>
<path class="st0" d="M437.1,11.2h-1.8c-0.1,0-0.2-0.2-0.2-0.8c0-0.1,0-0.2,0-0.3c0.8-0.4,1.6-0.9,2.3-1.6l0.8-0.9
	c0.3-0.3,0.7-0.8,1.1-1.3c0.2,0,0.4,0,0.6,0.1c0.2,0,0.3,0.1,0.3,0.2v2.9h3.6c0.2,0,0.2,0.1,0.2,0.3c0,0.5-0.1,0.9-0.3,1.3h-3.6
	l0.1,7.2c0,0.6,0.2,1.3,0.5,1.8c0.3,0.4,0.9,0.6,1.4,0.6c0.2,0,0.4,0,0.6-0.1c0.2,0,0.4-0.1,0.5-0.2l0.4-0.2l0.2-0.1
	c0.1,0,0.2,0.1,0.3,0.3s0.1,0.3,0.1,0.4c-0.3,0.5-0.7,0.8-1.2,1c-0.7,0.4-1.4,0.6-2.1,0.6c-1,0-1.9-0.3-2.6-1
	c-0.8-0.8-1.2-1.9-1.1-3.1L437.1,11.2z"/>
<path class="st0" d="M448.4,11h-1.8c-0.1,0-0.2-0.2-0.2-0.8c0-0.1,0-0.2,0-0.3c0.8-0.4,1.6-0.9,2.3-1.6l0.8-0.9
	c0.3-0.3,0.7-0.7,1.1-1.2c0.2,0,0.4,0,0.6,0.1c0.2,0,0.3,0.1,0.3,0.2v2.9h3.6c0.2,0,0.2,0.1,0.2,0.3c0,0.5-0.1,0.9-0.3,1.3h-3.6
	l0.1,7.2c0,0.7,0.2,1.3,0.6,1.9c0.3,0.4,0.9,0.6,1.4,0.6c0.2,0,0.4,0,0.6-0.1c0.2,0,0.4-0.1,0.5-0.2l0.4-0.2l0.2-0.1
	c0.1,0,0.2,0.1,0.3,0.3s0.1,0.3,0.1,0.4c-0.3,0.5-0.7,0.8-1.2,1c-0.7,0.4-1.4,0.6-2.1,0.6c-1,0-1.9-0.3-2.6-1
	c-0.8-0.8-1.2-1.9-1.1-3.1L448.4,11z"/>
<path class="st0" d="M464.1,8.8c0.9,0,1.7,0.2,2.5,0.5c0.7,0.3,1.3,0.8,1.7,1.4c0.4,0.5,0.8,1.1,1,1.7c0.2,0.6,0.3,1.1,0.4,1.7
	c0,0.4-0.1,0.7-0.2,0.8c-0.3,0.1-0.6,0.2-0.9,0.2l-7.1,0.1c-0.1,0-0.2,0.1-0.2,0.2c0,0.7,0.1,1.4,0.4,2.1c0.3,0.7,0.7,1.3,1.3,1.7
	c0.6,0.5,1.4,0.7,2.2,0.7c0.3,0,0.6,0,0.9,0c0.3,0,0.5-0.1,0.8-0.2l0.6-0.2c0.2-0.1,0.4-0.2,0.5-0.3l0.4-0.3l0.6-0.4
	c0.1,0,0.1,0.1,0.1,0.2c0.1,0.1,0.1,0.2,0.1,0.3c0,0.2-0.1,0.4-0.2,0.6c-0.4,0.7-1,1.2-1.7,1.6c-0.9,0.5-1.9,0.8-2.9,0.8
	c-1.7,0-3.3-0.6-4.5-1.9c-1.3-1.2-2-2.9-2-4.7c-0.1-1.8,0.5-3.5,1.7-4.9C460.8,9.4,462.4,8.7,464.1,8.8z M463.9,10.1
	c-0.5,0-0.9,0.2-1.3,0.4c-0.4,0.3-0.7,0.6-0.9,1c-0.2,0.4-0.3,0.7-0.4,1.1c-0.1,0.3-0.1,0.6-0.1,0.9c0,0.1,0.1,0.2,0.2,0.2l4.8-0.1
	c0.2,0,0.3-0.1,0.3-0.4c0-0.8-0.3-1.5-0.7-2.1C465.4,10.5,464.7,10.1,463.9,10.1z"/>
<path class="st0" d="M483.4,2.2l2.9-0.2c0.2,0.6,0.6,1.6,1.2,3.1s1.4,3.3,2.4,5.4c0.9,2.1,1.7,3.9,2.3,5.3c0.9,2.1,0,0.1,0.1,0.1
	c0,0,0.1,0,0.1-0.1c0,0,0,0,0,0c1.7-4.2,3-7.7,4-10.4l1-3.5C498,2,498.8,2,499.9,2c0.8,0,2-0.1,3.5-0.2c0.1,0.1,0.1,0.3,0.1,0.5
	c0,0.3,0,0.5-0.1,0.5h-0.1c-0.5,0-1,0.2-1.5,0.5c-0.3,0.2-0.4,0.8-0.4,1.6c0.1,1.8,0.3,5.8,0.6,12.3c0,0.9,0.2,1.9,0.5,2.7
	c0.1,0.2,0.4,0.3,0.8,0.5c0.3,0.1,0.7,0.2,1,0.2c0.1,0,0.1,0.2,0.1,0.5c0,0.2,0,0.3,0,0.5l-3.7-0.1h-1.2l-1.4,0.1l-1.3,0.1
	c-0.1-0.1-0.1-0.3-0.1-0.4c0-0.4,0-0.5,0.1-0.5c0.3,0,0.6-0.1,1-0.2c0.3-0.1,0.6-0.2,0.8-0.4c0.2-0.3,0.3-0.6,0.3-1v-1.7l-0.4-9
	c-0.1-1.2-0.2-1.8-0.4-1.8c-0.1,0-0.1,0.1-0.1,0.2l-5.5,13.9c-0.3,0.8-0.7,1.1-1.1,1.1c-0.1,0-0.2,0-0.3-0.1l-6.8-16
	c-0.1,4.9-0.2,9.4-0.3,13.3c0,0.3,0,0.6,0.1,0.9c0.1,0.2,0.5,0.4,1.2,0.6c0.5,0.1,0.9,0.2,1.4,0.3c0.1,0,0.1,0.2,0.1,0.5
	c0,0.2,0,0.3,0,0.5l-3.7-0.1c-0.5,0-1.2,0-2.1,0.1s-1.4,0.1-1.6,0.1c-0.1-0.1-0.1-0.3-0.1-0.5c0-0.3,0-0.5,0.1-0.5
	c0.5,0,1-0.1,1.5-0.3c0.7-0.2,1.1-0.5,1.1-0.8c0.2-0.6,0.3-1.3,0.3-2c0-1.5,0-3.3,0.1-5.3c0.1-2.1,0.1-3.8,0.1-5.2
	c0-1.4,0-2.3,0-2.7c0-0.3,0-0.6-0.1-0.8c-0.1-0.2-0.4-0.3-1-0.4C480.9,3.1,480.4,3,480,3c-0.1,0-0.1-0.2-0.1-0.5
	c0-0.2,0-0.4,0.1-0.5l1.5,0.1C482.3,2.2,482.9,2.2,483.4,2.2z"/>
<path class="st0" d="M513.8,8.2c1.8,0,3.5,0.6,4.8,1.9c1.3,1.2,2,2.9,2,4.7c0,3.7-2.9,6.8-6.7,6.8c-3.7,0-6.8-2.9-6.8-6.7
	c-0.1-1.8,0.6-3.5,1.9-4.8C510.2,8.9,512,8.2,513.8,8.2z M513.4,9.6c-0.9,0-1.8,0.6-2.2,1.4c-0.5,1-0.8,2.1-0.7,3.2
	c0,1.5,0.3,2.9,1,4.2c0.5,1.1,1.5,1.7,2.7,1.8c0.9,0,1.8-0.5,2.2-1.4c0.5-1,0.8-2.1,0.8-3.2c0-1-0.1-1.9-0.4-2.9
	c-0.2-0.8-0.7-1.6-1.3-2.2C514.9,9.9,514.2,9.6,513.4,9.6z"/>
<path class="st0" d="M532.8,8c2.6,0,3.9,2,3.9,6v2.8c0,0.9,0.1,1.8,0.2,2.7c0,0.1,0.3,0.3,0.8,0.4c0.3,0.1,0.7,0.2,1,0.2
	c0.1,0,0.1,0.1,0.1,0.4c0,0.2,0,0.4,0,0.6c-0.1,0-0.6,0-1.6-0.1c-0.9-0.1-1.6-0.1-2,0c-0.5,0-1.1,0-2,0.1l-1.5,0.1
	c-0.1-0.2-0.2-0.4-0.1-0.6c0-0.3,0-0.5,0.1-0.5c0.3,0,0.7-0.1,1-0.2c0.4-0.1,0.7-0.3,0.7-0.4c0.2-0.7,0.2-1.4,0.2-2.2v-2.8
	c0.1-1.2-0.2-2.4-0.7-3.4c-0.5-0.7-1.3-1.1-2.1-1c-0.6,0-1.2,0.2-1.7,0.5c-0.4,0.2-0.7,0.7-0.7,1.1l0.1,5.1c0,0.9,0.1,1.8,0.2,2.7
	c0,0.1,0.3,0.3,0.8,0.4c0.3,0.1,0.7,0.2,1,0.2c0.1,0,0.1,0.1,0.1,0.4c0,0.2,0,0.4,0,0.6l-1.6-0.1c-0.9,0-1.5-0.1-2-0.1
	c-0.5,0-1.1,0-2.1,0.1l-1.6,0.1c-0.1-0.2-0.2-0.4-0.1-0.6c0-0.3,0-0.5,0.1-0.5c0.4,0,0.7-0.1,1.1-0.2c0.5-0.2,0.7-0.3,0.8-0.4
	c0.1-0.7,0.2-1.4,0.2-2.2l-0.1-4.9c0.1-0.7-0.1-1.3-0.5-1.9c-0.2-0.2-0.4-0.4-0.7-0.4c-0.2-0.1-0.5-0.1-0.7-0.2
	c-0.2,0-0.3,0-0.3-0.1c0-0.6,0-0.9,0.1-0.9c1.6-0.2,3.2-0.5,4.8-0.9h0.1h0.1h0.1c0.1,0,0.2,0.1,0.2,0.2c0.1,0.1,0.1,0.2,0.1,0.3
	c-0.1,0.4-0.1,0.7-0.1,1.1c0,0,0,0.1,0,0.1c0.1,0,0.1-0.1,0.2-0.1c0.5-0.5,1.1-1,1.8-1.3C531.2,8.2,532,8,532.8,8z"/>
<path class="st0" d="M546.2,7.8c1.2,0,2.3,0.1,3.5,0.5c0.2,1.1,0.4,2.2,0.4,3.3c0,0.2-0.1,0.2-0.4,0.2c-0.4,0-0.7-0.1-0.7-0.2
	c-0.1-0.7-0.4-1.3-0.9-1.8c-0.5-0.5-1.1-0.7-1.8-0.7c-0.5,0-1,0.1-1.3,0.4c-0.3,0.3-0.5,0.7-0.5,1.1c0,0.3,0.1,0.5,0.2,0.8
	c0.1,0.2,0.3,0.5,0.5,0.6c0.2,0.2,0.4,0.3,0.7,0.5c0.2,0.1,0.5,0.3,0.8,0.5c0.1,0.1,0.2,0.1,0.3,0.1l0.5,0.2l0.5,0.3l0.5,0.3
	c0.2,0.1,0.4,0.2,0.5,0.3l0.5,0.4c0.2,0.1,0.3,0.3,0.5,0.4l0.4,0.5c0.1,0.2,0.2,0.3,0.3,0.5c0.1,0.2,0.1,0.4,0.2,0.6
	c0.1,0.2,0.1,0.4,0.1,0.6c0.1,1.2-0.5,2.3-1.4,3c-1,0.8-2.2,1.2-3.5,1.1c-1.3,0-2.6-0.3-3.8-0.8c-0.1-0.5-0.3-1.1-0.3-1.6
	c-0.1-0.6-0.1-1.1-0.2-1.7c0.1-0.1,0.3-0.2,0.4-0.1c0.5,0,0.7,0.1,0.7,0.2c0.1,0.8,0.6,1.5,1.2,2c0.6,0.5,1.3,0.7,2,0.7
	c0.5,0,1-0.1,1.4-0.4c0.4-0.3,0.6-0.8,0.5-1.2c0-0.2,0-0.4-0.1-0.5c-0.1-0.2-0.2-0.4-0.3-0.5l-0.3-0.4c-0.2-0.2-0.3-0.3-0.5-0.4
	l-0.6-0.3l-0.8-0.4l-0.8-0.4c-0.8-0.4-1.5-0.9-2.1-1.6c-0.5-0.6-0.8-1.3-0.8-2.1c-0.1-1.1,0.5-2.2,1.4-2.8
	C543.7,8.1,544.9,7.8,546.2,7.8z"/>
<path class="st0" d="M559.3,7.7c1-0.1,2,0.2,2.8,0.9c0.7,0.9,1.1,2.1,1,3.3l0.1,5.9c0,0.3,0.1,0.6,0.3,0.9c0.2,0.2,0.4,0.3,0.7,0.3
	c0.4,0,0.7-0.2,1-0.4c0.1,0,0.2,0.1,0.2,0.3c0,0.3,0,0.6-0.2,0.9c-0.4,0.3-0.8,0.5-1.2,0.8c-0.4,0.2-0.9,0.4-1.4,0.4
	c-0.5,0-1-0.2-1.3-0.5c-0.4-0.3-0.7-0.6-0.9-1.1l-0.2,0.2c-0.1,0.1-0.3,0.2-0.5,0.4c-0.2,0.2-0.5,0.3-0.8,0.5
	c-0.3,0.2-0.7,0.3-1,0.4c-0.4,0.1-0.8,0.2-1.2,0.2c-0.9,0-1.7-0.2-2.4-0.8c-0.7-0.6-1-1.4-1-2.2c0-0.5,0.1-0.9,0.3-1.3
	c0.2-0.4,0.5-0.7,0.8-1c0.4-0.3,0.8-0.6,1.3-0.8c0.4-0.2,0.9-0.4,1.4-0.6l1.5-0.5l1.3-0.4c0.2-0.1,0.3-0.3,0.3-0.5v-1.6
	c0-0.6-0.2-1.2-0.5-1.6c-0.3-0.4-0.8-0.7-1.3-0.6c-0.5,0-1,0.2-1.4,0.6c-0.4,0.4-0.5,1-0.5,1.6c0,0.4-0.1,0.7-0.4,0.9
	c-0.3,0.2-0.6,0.3-1,0.3c-0.6,0.1-1.2-0.2-1.5-0.7c0-1,0.6-1.9,1.9-2.7C556.5,8.1,557.9,7.7,559.3,7.7z M558.1,19.1
	c0.5,0,1-0.1,1.4-0.4c0.4-0.2,0.6-0.6,0.6-1v-3c-0.1,0.1-0.4,0.2-0.9,0.3c-0.4,0.1-0.8,0.3-1,0.4c-0.3,0.1-0.6,0.3-0.8,0.4
	c-0.3,0.2-0.5,0.4-0.7,0.7c-0.1,0.3-0.2,0.5-0.2,0.8c0,0.5,0.1,1,0.5,1.4C557.3,18.9,557.7,19.1,558.1,19.1z"/>
<path class="st0" d="M572.7,16.4c0,0.9,0.1,1.8,0.3,2.6c0,0.1,0.3,0.3,0.7,0.5c0.3,0.1,0.6,0.2,0.9,0.2c0.1,0,0.1,0.1,0.1,0.4
	c0,0.2,0,0.4,0,0.6l-1.1-0.1l-1.3-0.1h-1.1h-1.1l-1.2,0.1l-1.1,0.1c-0.1-0.2-0.1-0.4-0.1-0.5c0-0.3,0-0.4,0.1-0.4
	c0.3,0,0.7-0.1,1-0.3c0.4-0.2,0.7-0.3,0.7-0.5c0.2-0.7,0.2-1.5,0.2-2.2l-0.2-12.4c0-0.7-0.1-1.3-0.2-2c-0.1-0.3-0.7-0.5-1.6-0.5
	h-0.3c-0.1,0-0.2-0.1-0.2-0.4s0-0.5,0.2-0.5c0.6-0.1,1.2-0.2,1.8-0.3c0.6-0.1,1-0.2,1.4-0.3s0.7-0.2,1-0.3l0.6-0.2l0.2-0.1h0.1
	c0.1,0,0.2,0.1,0.2,0.2c0.1,0.1,0.1,0.2,0.2,0.3c-0.2,0.9-0.4,1.9-0.3,2.8L572.7,16.4z"/>
<path class="st0" d="M588.1,9.2c-0.3-0.5-1-0.8-2.1-0.8c-0.1,0-0.1-0.1-0.1-0.4c0-0.2,0-0.4,0.1-0.5c0.3,0,0.8,0,1.4,0.1
	c0.7,0,1.2,0.1,1.7,0.1c0.4,0,1,0,1.7-0.1c0.7-0.1,1.2-0.1,1.5-0.1c0.1,0.1,0.1,0.3,0.1,0.5c0,0.3-0.1,0.5-0.2,0.5
	c-0.4,0-0.8,0.1-1.2,0.3c-0.4,0.1-0.8,0.5-1,0.9L585.3,20c-0.1,0.2-0.2,0.4-0.4,0.5c-0.1,0.2-0.3,0.2-0.5,0.3
	c-0.2,0-0.3-0.1-0.4-0.2c-0.4-0.9-1-2.1-1.7-3.7c-0.7-1.6-1.3-2.9-1.8-4c-0.5-1.1-1.1-2.3-1.7-3.7c-0.2-0.6-0.9-0.8-1.9-0.8
	c-0.1,0-0.1-0.2-0.1-0.5c0-0.2,0-0.3,0.1-0.5c0.2,0,0.7,0,1.6,0.1s1.5,0.1,2,0.1s1.2,0,2-0.1l1.5-0.1c0.1,0.2,0.1,0.3,0.1,0.5
	c0,0.3,0,0.4-0.1,0.4c-0.4,0-0.7,0.1-1,0.2c-0.4,0.1-0.7,0.3-0.7,0.5c0,0.1,0,0.2,0.1,0.3l3,6.8l2.7-5.9
	C588.2,9.8,588.3,9.4,588.1,9.2z"/>
<path class="st0" d="M600.8,7.2c0.9,0,1.7,0.2,2.5,0.5c0.7,0.3,1.3,0.8,1.7,1.4c0.4,0.5,0.8,1.1,1,1.7c0.2,0.6,0.3,1.1,0.3,1.7
	c0,0.4-0.1,0.7-0.2,0.8c-0.3,0.1-0.6,0.2-0.9,0.2l-7.1,0.1c-0.1,0-0.2,0.1-0.2,0.2c0,0.7,0.1,1.4,0.4,2.1c0.3,0.7,0.7,1.3,1.3,1.7
	c0.6,0.5,1.4,0.7,2.2,0.7c0.3,0,0.6,0,0.9-0.1c0.3,0,0.5-0.1,0.8-0.2l0.6-0.2c0.2-0.1,0.4-0.2,0.5-0.3l0.4-0.3l0.6-0.4
	c0.1,0,0.1,0.1,0.2,0.2c0.1,0.1,0.1,0.2,0.1,0.3c0,0.2-0.1,0.4-0.2,0.6c-0.4,0.7-1,1.2-1.7,1.6c-0.9,0.5-1.9,0.8-2.9,0.8
	c-1.7,0-3.3-0.6-4.5-1.9c-1.2-1.2-1.9-2.9-1.9-4.6c-0.1-1.8,0.5-3.5,1.7-4.9C597.5,7.8,599.1,7.1,600.8,7.2z M600.6,8.5
	c-0.5,0-0.9,0.2-1.3,0.4c-0.4,0.3-0.7,0.6-0.8,1c-0.2,0.4-0.3,0.7-0.4,1.1c-0.1,0.3-0.1,0.6-0.1,0.9c0,0.1,0.1,0.2,0.2,0.2l4.8-0.1
	c0.2,0,0.3-0.1,0.3-0.4c0-0.8-0.3-1.5-0.7-2.1C602.1,8.9,601.4,8.5,600.6,8.5L600.6,8.5z"/>
<path class="st0" d="M18.5,39.5c1,0,2,0.5,2.6,1.3c0.6,1,0.8,2.2,0.5,3.4L21,50c-0.1,0.3,0,0.7,0.2,0.9c0.2,0.2,0.4,0.4,0.7,0.4
	c0.4,0,0.7-0.1,1-0.3c0.1,0,0.2,0.2,0.1,0.3c0,0.3-0.1,0.6-0.3,0.9c-0.4,0.2-0.8,0.4-1.3,0.6c-0.5,0.2-1,0.3-1.5,0.2
	c-0.5-0.1-0.9-0.3-1.3-0.7c-0.4-0.3-0.6-0.7-0.7-1.2l-0.2,0.2c-0.1,0.1-0.3,0.2-0.6,0.3c-0.3,0.1-0.5,0.3-0.8,0.4
	c-0.3,0.1-0.7,0.2-1,0.3c-0.4,0.1-0.8,0.1-1.2,0c-0.9-0.1-1.7-0.4-2.3-1.1c-0.6-0.6-0.8-1.5-0.7-2.3c0.1-0.5,0.2-0.9,0.5-1.3
	c0.2-0.4,0.6-0.7,0.9-0.9c0.4-0.3,0.9-0.5,1.4-0.6c0.5-0.2,1-0.3,1.4-0.4l1.5-0.3l1.3-0.2c0.2-0.1,0.3-0.2,0.3-0.4l0.2-1.6
	c0.1-0.6,0-1.2-0.3-1.7c-0.3-0.4-0.7-0.7-1.2-0.7c-0.5-0.1-1,0.1-1.4,0.4c-0.4,0.4-0.6,0.9-0.7,1.5c0,0.3-0.2,0.7-0.5,0.8
	c-0.3,0.1-0.7,0.2-1,0.2c-0.6,0-1.2-0.3-1.5-0.8c0.1-0.9,0.8-1.8,2.2-2.5C15.5,39.7,17,39.4,18.5,39.5z M15.9,50.7
	c0.5,0.1,1,0,1.4-0.3c0.4-0.2,0.6-0.5,0.7-0.9l0.3-3c-0.1,0-0.4,0.1-0.9,0.2C17,46.9,16.6,47,16.4,47c-0.3,0.1-0.6,0.2-0.9,0.3
	c-0.3,0.1-0.6,0.3-0.8,0.6c-0.2,0.2-0.3,0.5-0.3,0.8c-0.1,0.5,0,1,0.3,1.4C15,50.5,15.4,50.7,15.9,50.7z"/>
<path class="st0" d="M34.1,41.2c1.2,0.1,2.3,0.6,3.2,1.3c0.9,0.7,1.6,1.6,2,2.6c0.4,1,0.5,2,0.4,3c-0.2,1.9-1.2,3.6-2.7,4.7
	c-1.4,1.2-3.2,1.7-5,1.5c-0.7-0.1-1.4-0.2-2-0.5c-0.4-0.2-0.9-0.3-1.4-0.4c-0.3,0-0.5,0-0.8,0.1c-0.2,0.1-0.4,0.1-0.6,0.1
	c-0.1-0.1-0.3-0.1-0.4-0.2c-0.2-0.1-0.3-0.2-0.3-0.3s0-0.2,0.1-0.5s0.2-0.7,0.3-1.2c0.1-0.6,0.2-1.2,0.3-1.8l1.3-12.1
	c0.1-0.7,0.1-1.3,0-2c-0.1-0.3-0.6-0.5-1.5-0.6h-0.3c-0.1,0-0.2-0.2-0.1-0.5c0-0.3,0.1-0.5,0.2-0.5c0.6,0,1.2,0,1.8,0
	c0.6,0,1-0.1,1.4-0.3c0.4-0.1,0.7-0.1,1-0.2l0.9-0.2H32c0.1,0,0.2,0.1,0.2,0.2c0.1,0.1,0.1,0.2,0.1,0.3c-0.3,0.9-0.5,1.8-0.6,2.7
	l-0.5,4.7v0.2c0,0,0,0.1,0,0.1c0,0.1,0,0.1,0,0.1h0.1c0.4-0.2,0.8-0.4,1.3-0.5C33,41.3,33.6,41.2,34.1,41.2z M33.2,42.8
	c-0.6-0.1-1.2,0.1-1.7,0.4c-0.4,0.3-0.7,0.7-0.8,1.3l-0.7,6.3c-0.1,0.6,0.1,1.2,0.6,1.7c0.5,0.4,1.1,0.7,1.8,0.7
	c1,0.1,1.9-0.3,2.5-1.1c0.7-1,1.1-2.1,1.2-3.3c0.2-1.4,0.1-2.8-0.5-4.1C35.3,43.5,34.3,42.9,33.2,42.8L33.2,42.8z"/>
<path class="st0" d="M49.6,43c1.8,0.2,3.4,1.1,4.5,2.5c1.1,1.4,1.7,3.1,1.5,4.9c-0.4,3.7-3.8,6.4-7.5,6c-1.8-0.2-3.4-1.1-4.5-2.5
	c-2.3-2.9-1.9-7.1,1-9.4C46,43.3,47.8,42.7,49.6,43z M49.1,44.3c-0.9-0.1-1.8,0.3-2.3,1.1c-0.6,0.9-1,2-1.1,3.1
	c-0.2,1.4,0,2.9,0.5,4.3c0.4,1.1,1.3,1.9,2.5,2.1c0.9,0.1,1.9-0.4,2.3-1.2c0.6-0.9,1-2,1.1-3.1c0.1-1,0.1-1.9-0.1-2.9
	c-0.1-0.9-0.5-1.7-1-2.3C50.5,44.8,49.9,44.4,49.1,44.3L49.1,44.3z"/>
<path class="st0" d="M71.4,48.6l-0.6,5.8c-0.1,0.7-0.1,1.4,0,2.1c0.1,0.1,0.2,0.2,0.3,0.3c0.2,0.1,0.3,0.1,0.5,0.2l0.5,0.1
	c0.1,0,0.2,0,0.2,0.1c0.1,0,0.1,0.1,0.1,0.3c0,0.1-0.1,0.3-0.1,0.4C72.2,58,72.2,58,72.1,58c-0.4,0-0.7,0-1.1,0l-1.2,0.1l-1.2,0.1
	l-1.2,0.1c-0.1,0-0.2-0.2-0.2-0.5l0.1-1.3c0-0.1,0-0.2-0.1-0.2c-0.6,0.5-1.2,0.9-1.9,1.1c-0.8,0.3-1.6,0.4-2.4,0.3
	c-0.6-0.1-1.2-0.3-1.7-0.7c-0.4-0.4-0.8-0.9-1-1.4c-0.2-0.6-0.4-1.2-0.4-1.8c-0.1-0.6-0.1-1.3,0-1.9l0.4-3.3c0.1-0.7,0-1.3-0.3-1.9
	c-0.2-0.2-0.4-0.4-0.6-0.5c-0.2-0.1-0.5-0.2-0.7-0.3c-0.2,0-0.3-0.1-0.3-0.1c0.1-0.6,0.1-0.9,0.2-0.9c0.8,0,1.6,0,2.5,0
	c0.8-0.1,1.6-0.1,2.4-0.3h0.1h0.1c0.1,0,0.2,0.1,0.2,0.2c0,0.1,0,0.2,0,0.3c-0.3,1.3-0.5,2.2-0.5,2.6L63,51.3
	c-0.2,1.1-0.1,2.3,0.3,3.4c0.8,1.2,2.4,1.6,3.6,0.8c0,0,0,0,0,0c0.4-0.2,0.7-0.6,0.8-1l0.5-4.9c0.2-0.7,0.1-1.4-0.2-2
	c-0.2-0.2-0.4-0.4-0.6-0.5c-0.2-0.1-0.5-0.2-0.7-0.3c-0.2,0-0.3-0.1-0.3-0.1c0.1-0.6,0.2-0.9,0.3-0.9c0.8,0,1.6,0,2.4-0.1
	c0.8-0.1,1.6-0.1,2.4-0.3h0.2c0.1,0,0.2,0.1,0.2,0.2c0,0.1,0,0.2,0,0.3C71.6,47.4,71.5,48.2,71.4,48.6z"/>
<path class="st0" d="M77.6,48.1l-1.8-0.2c-0.1,0-0.2-0.3-0.1-0.8c0-0.1,0-0.2,0.1-0.3c0.9-0.3,1.7-0.7,2.4-1.3l0.9-0.8
	c0.3-0.3,0.7-0.7,1.2-1.1c0.2,0,0.4,0.1,0.6,0.1c0.2,0.1,0.2,0.1,0.2,0.2l-0.3,2.9l2.1,0.2l1.5,0.2c0.2,0,0.2,0.1,0.2,0.3
	c0,0.5-0.2,0.9-0.4,1.3l-3.6-0.4l-0.8,7.1c-0.1,0.6,0,1.3,0.3,1.9c0.3,0.5,0.8,0.7,1.3,0.8c0.2,0,0.4,0,0.6,0c0.2,0,0.4-0.1,0.6-0.1
	l0.4-0.1l0.2-0.1c0.1,0,0.2,0.1,0.2,0.3c0.1,0.1,0.1,0.3,0.1,0.4c-0.4,0.4-0.8,0.7-1.4,0.8c-0.7,0.3-1.4,0.4-2.2,0.3
	c-1-0.1-1.9-0.5-2.5-1.3c-0.7-0.9-1-2.1-0.7-3.2L77.6,48.1z"/>
<path class="st0" d="M98.7,57.2c-0.1,0.9-0.2,1.8-0.1,2.7c0,0.1,0.2,0.3,0.7,0.5c0.3,0.2,0.6,0.3,0.9,0.3c0.1,0,0.1,0.2,0.1,0.4
	c0,0.2,0,0.4-0.1,0.6L99,61.6l-1.2-0.2l-1.1-0.2l-1.1-0.1l-1.2-0.1h-1.1c-0.1-0.2-0.1-0.4-0.1-0.6c0-0.3,0.1-0.4,0.2-0.4
	c0.3,0,0.7,0,1-0.1c0.5-0.1,0.7-0.2,0.8-0.4c0.2-0.7,0.4-1.4,0.5-2.2l1.4-12.3c0.1-0.7,0.1-1.3,0-2c-0.1-0.3-0.5-0.5-1.4-0.6h-0.3
	c-0.1,0-0.2-0.1-0.1-0.4s0.1-0.4,0.2-0.5c0.6,0,1.2,0,1.8,0s1,0,1.4-0.1l1-0.2l0.7-0.2l0.2-0.1h0.1c0.1,0,0.2,0.1,0.2,0.2
	c0.1,0.1,0.1,0.2,0.1,0.3c-0.4,0.9-0.6,1.8-0.7,2.7L98.7,57.2z"/>
<path class="st0" d="M108.4,58.4c-0.1,0.9-0.2,1.8-0.1,2.7c0,0.1,0.2,0.3,0.8,0.5c0.3,0.1,0.7,0.3,1,0.3c0.1,0,0.1,0.2,0.1,0.4
	c0,0.2,0,0.4-0.1,0.6l-1.6-0.3c-0.9-0.2-1.6-0.3-2-0.3c-0.4,0-1.1-0.1-2.1-0.1l-1.6,0c-0.1-0.2-0.1-0.4-0.1-0.6
	c0-0.3,0.1-0.4,0.2-0.4c0.4,0,0.7-0.1,1-0.1c0.5-0.1,0.8-0.2,0.8-0.3c0.2-0.7,0.4-1.4,0.4-2.1l0.5-4.8c0.1-0.7,0.1-1.3-0.3-1.9
	c-0.2-0.2-0.4-0.4-0.6-0.5c-0.2-0.1-0.5-0.2-0.7-0.2c-0.2,0-0.3-0.1-0.3-0.1c0.1-0.6,0.2-0.9,0.3-0.9c0.8,0,1.6,0,2.4-0.1
	c0.8-0.1,1.6-0.1,2.4-0.3h0.2c0.1,0,0.2,0.1,0.2,0.2c0,0.1,0,0.2,0,0.3c-0.2,0.8-0.4,1.7-0.5,2.5L108.4,58.4z M106.7,45.7
	c-0.3-0.4-0.4-0.9-0.4-1.4c0.1-1,1-1.7,2-1.6c1,0.1,1.7,1,1.6,2c0,0.5-0.3,0.9-0.7,1.2C108.5,46.6,107.4,46.5,106.7,45.7
	C106.7,45.7,106.7,45.7,106.7,45.7L106.7,45.7z"/>
<path class="st0" d="M124.6,53.1c-0.2-0.6-0.9-0.9-2-1c-0.1,0-0.1-0.2,0-0.4c0-0.2,0.1-0.4,0.2-0.5c0.3,0,0.8,0.1,1.4,0.2
	s1.2,0.2,1.7,0.3s1,0.1,1.7,0.1c0.7,0,1.2,0,1.5,0.1c0,0.2,0,0.3,0,0.5c0,0.3-0.1,0.5-0.2,0.5c-0.4,0-0.8,0-1.2,0.2
	c-0.4,0.1-0.8,0.4-1.1,0.7l-6.1,9.9c-0.1,0.2-0.3,0.3-0.4,0.5c-0.1,0.1-0.3,0.2-0.5,0.2c-0.2,0-0.3-0.1-0.3-0.2
	c-0.3-0.9-0.7-2.2-1.2-3.9c-0.5-1.6-0.9-3-1.3-4.2c-0.4-1.1-0.8-2.4-1.3-3.8c-0.2-0.6-0.8-0.9-1.8-1c-0.1,0-0.1-0.2-0.1-0.5
	c0-0.2,0.1-0.3,0.2-0.5c0.2,0,0.7,0.1,1.6,0.3s1.5,0.3,2,0.3c0.5,0.1,1.1,0.1,2,0.1l1.6,0.1c0,0.2,0,0.4,0,0.5
	c0,0.3-0.1,0.4-0.2,0.4c-0.4,0-0.7,0-1.1,0.1c-0.5,0.1-0.7,0.2-0.7,0.4c0,0.1,0,0.2,0,0.3l2.3,7.1l3.3-5.6
	C124.6,53.7,124.7,53.3,124.6,53.1z"/>
<path class="st0" d="M135.6,61.4c-0.1,0.9-0.2,1.8-0.1,2.7c0,0.1,0.2,0.3,0.8,0.5c0.3,0.2,0.7,0.3,1,0.3c0.1,0,0.1,0.1,0.1,0.4
	c0,0.2,0,0.4-0.1,0.6l-1.6-0.3c-0.9-0.2-1.6-0.3-2-0.3c-0.4,0-1.1-0.1-2.1-0.1l-1.6-0.1c-0.1-0.2-0.1-0.4-0.1-0.6
	c0-0.3,0.1-0.4,0.2-0.4c0.4,0,0.7,0,1.1-0.1c0.5-0.1,0.8-0.2,0.9-0.3c0.2-0.7,0.4-1.4,0.4-2.1l0.5-4.8c0.1-0.7,0.1-1.3-0.3-1.9
	c-0.2-0.2-0.4-0.4-0.6-0.5c-0.2-0.1-0.5-0.2-0.7-0.2c-0.2,0-0.3-0.1-0.3-0.1c0.1-0.6,0.1-0.9,0.3-0.9c0.8,0,1.6,0,2.4-0.1
	c0.8-0.1,1.6-0.1,2.4-0.3h0.2c0.1,0,0.2,0.1,0.2,0.2c0,0.1,0,0.2,0,0.3c-0.3,1.2-0.5,2.1-0.5,2.5L135.6,61.4z M133.9,48.7
	c-0.3-0.4-0.4-0.9-0.4-1.4c0-0.5,0.3-0.9,0.7-1.2c0.8-0.6,2-0.5,2.6,0.3c0.3,0.4,0.5,0.9,0.4,1.3c0,0.5-0.3,0.9-0.7,1.2
	C135.7,49.6,134.6,49.5,133.9,48.7C133.9,48.7,133.9,48.7,133.9,48.7L133.9,48.7z"/>
<path class="st0" d="M150.8,54.1c2.5,0.3,3.6,2.4,3.1,6.5l-0.3,2.8c-0.1,0.9-0.2,1.8-0.1,2.7c0,0.1,0.3,0.3,0.8,0.5
	c0.3,0.1,0.7,0.3,1,0.3c0.1,0,0.1,0.2,0.1,0.4c0,0.2,0,0.4-0.1,0.6c-0.1,0-0.6-0.1-1.5-0.3c-0.9-0.2-1.6-0.3-2-0.3
	c-0.5-0.1-1.1-0.1-2-0.1h-1.5c-0.1-0.2-0.1-0.4-0.1-0.6c0-0.3,0.1-0.4,0.2-0.4c0.3,0,0.7,0,1-0.1c0.5-0.1,0.7-0.2,0.8-0.3
	c0.2-0.7,0.4-1.4,0.5-2.1l0.3-2.8c0.2-1.2,0.1-2.4-0.3-3.5c-0.4-0.7-1.2-1.2-2-1.2c-0.6-0.1-1.2,0-1.7,0.3c-0.4,0.2-0.7,0.6-0.8,1
	l-0.6,5.1c-0.1,0.9-0.1,1.8-0.1,2.7c0,0.1,0.2,0.3,0.7,0.5c0.3,0.1,0.6,0.3,0.9,0.3c0.1,0,0.1,0.2,0.1,0.4c0,0.2,0,0.4-0.1,0.6
	l-1.5-0.3c-0.9-0.2-1.5-0.3-2-0.3c-0.5-0.1-1.1-0.1-2.1-0.1l-1.6-0.1c-0.1-0.2-0.1-0.4-0.1-0.6c0-0.3,0.1-0.4,0.2-0.4
	c0.4,0,0.7,0,1.1-0.1c0.5-0.1,0.8-0.2,0.8-0.3c0.2-0.7,0.4-1.4,0.4-2.1l0.5-4.8c0.1-0.7,0.1-1.3-0.3-1.9c-0.2-0.2-0.4-0.4-0.6-0.5
	c-0.2-0.1-0.5-0.2-0.7-0.2c-0.2,0-0.3-0.1-0.3-0.1c0.1-0.6,0.1-0.9,0.2-0.9c1.6,0,3.2-0.1,4.9-0.4h0.1h0.2c0.1,0,0.1,0.1,0.2,0.2
	c0,0.1,0.1,0.2,0.1,0.3c-0.1,0.3-0.2,0.7-0.2,1c0,0,0,0.1,0,0.2c0.1,0,0.1,0,0.2-0.1c0.6-0.4,1.3-0.8,2-1
	C149.2,54.1,150,54,150.8,54.1z"/>
<path class="st0" d="M164.9,55.7c0.8,0.1,1.6,0.3,2.4,0.7c0.7,0.3,1.5,0.5,2.3,0.6l1.7,0.2c0,0,0.1,0.1,0.2,0.4
	c0.1,0.2,0.1,0.4,0.1,0.6c0,0.3-0.1,0.4-0.2,0.4l-1.9-0.2c-0.1,0-0.1,0-0.1,0.1s0.1,0.3,0.2,0.8c0.1,0.5,0.2,1,0.1,1.5
	c-0.2,1.2-0.8,2.3-1.8,3c-1.1,0.8-2.5,1.2-3.8,1c-0.6-0.1-1.2-0.2-1.8-0.3c-0.3,0.1-0.5,0.3-0.7,0.5c-0.2,0.2-0.3,0.4-0.4,0.7
	c0,0.2,0.1,0.4,0.2,0.5c0.2,0.2,0.5,0.3,0.8,0.4c0.4,0.1,0.7,0.2,1,0.2l1.2,0.2h0.4c1.5,0.1,2.9,0.6,4.2,1.3
	c0.8,0.5,1.3,1.4,1.1,2.3c-0.2,1.6-1.1,2.9-2.6,3.6c-1.6,0.9-3.4,1.3-5.2,1.1c-1.3-0.1-2.6-0.5-3.7-1.2c-0.9-0.5-1.4-1.5-1.3-2.6
	c0.1-0.6,0.5-1.2,1-1.6c0.6-0.4,1.2-0.8,1.9-0.9c-0.5-0.2-1-0.6-1.3-1.1c-0.4-0.5-0.5-1-0.5-1.6c0.1-0.8,0.9-1.6,2.5-2.4
	c-0.6-0.4-1.1-1-1.4-1.7c-0.4-0.8-0.6-1.6-0.5-2.5c0.1-1.3,0.8-2.5,1.9-3.1C162.2,55.8,163.6,55.5,164.9,55.7z M167.3,71.6
	c0.1-0.7-0.4-1.2-1.3-1.5c-1.3-0.4-2.6-0.7-4-0.8h-0.1l-0.2,0.1c-0.3,0.1-0.5,0.1-0.6,0.2c-0.2,0.1-0.4,0.2-0.5,0.3
	c-0.2,0.1-0.3,0.3-0.5,0.5c-0.1,0.2-0.2,0.5-0.2,0.7c-0.1,0.8,0.3,1.5,0.9,1.9c0.7,0.6,1.5,0.9,2.4,1c1,0.1,1.9,0,2.8-0.5
	C166.7,73,167.2,72.4,167.3,71.6L167.3,71.6z M162.2,59.7c-0.1,0.8,0,1.7,0.3,2.5c0.3,0.6,0.8,1.1,1.5,1.2c0.6,0.1,1.3-0.1,1.7-0.7
	c0.4-0.6,0.7-1.3,0.8-2c0.1-0.9,0-1.8-0.3-2.6c-0.3-0.7-0.9-1.1-1.6-1.2c-0.7-0.1-1.3,0.2-1.7,0.7C162.5,58.3,162.3,59,162.2,59.7z"
	/>
<path class="st0" d="M185.7,66.9c-0.1,0.9-0.2,1.8-0.1,2.7c0,0.1,0.3,0.3,0.8,0.5c0.3,0.1,0.7,0.3,1,0.3c0.1,0,0.1,0.1,0.1,0.4
	c0,0.2,0,0.4-0.1,0.6l-1.6-0.3c-0.9-0.2-1.6-0.3-2-0.3c-0.4,0-1.1-0.1-2.1-0.1l-1.6-0.1c-0.1-0.2-0.1-0.4-0.1-0.6
	c0-0.3,0.1-0.4,0.2-0.4c0.4,0,0.7,0,1.1-0.1c0.5-0.1,0.8-0.2,0.8-0.3c0.2-0.7,0.4-1.4,0.4-2.1l0.5-4.8c0.1-0.7,0.1-1.3-0.3-1.9
	c-0.2-0.2-0.4-0.4-0.6-0.5c-0.2-0.1-0.5-0.2-0.7-0.2c-0.2,0-0.3-0.1-0.3-0.1c0.1-0.6,0.1-0.9,0.3-0.9c0.8,0,1.6,0,2.4-0.1
	c0.8-0.1,1.6-0.1,2.4-0.3h0.2c0.1,0,0.2,0.1,0.2,0.2c0,0.1,0,0.2,0,0.3c-0.2,0.8-0.4,1.7-0.5,2.5L185.7,66.9z M183.9,54.2
	c-0.3-0.4-0.4-0.9-0.4-1.4c0.1-1,1-1.7,2-1.6c1,0.1,1.7,1,1.6,2c0,0,0,0,0,0c0,0.5-0.3,0.9-0.7,1.2
	C185.7,55.1,184.6,54.9,183.9,54.2C183.9,54.2,183.9,54.1,183.9,54.2L183.9,54.2z"/>
<path class="st0" d="M200.8,59.5c2.5,0.3,3.6,2.5,3.2,6.5l-0.3,2.8c-0.1,0.9-0.1,1.8-0.1,2.7c0,0.1,0.3,0.3,0.8,0.5
	c0.3,0.1,0.7,0.3,1,0.3c0.1,0,0.1,0.2,0.1,0.4c0,0.2,0,0.4-0.1,0.6c-0.1,0-0.6-0.1-1.5-0.3s-1.6-0.3-2-0.3s-1.1-0.1-2-0.1h-1.5
	c-0.1-0.2-0.1-0.4-0.1-0.6c0-0.3,0.1-0.4,0.2-0.4c0.3,0,0.7,0,1-0.1c0.5-0.1,0.7-0.2,0.8-0.3c0.2-0.7,0.4-1.4,0.5-2.1l0.3-2.8
	c0.2-1.2,0.1-2.4-0.3-3.5c-0.4-0.7-1.2-1.2-2-1.2c-0.6-0.1-1.2,0-1.7,0.3c-0.4,0.2-0.7,0.6-0.8,1l-0.6,5.1c-0.1,0.9-0.1,1.8-0.1,2.7
	c0,0.1,0.3,0.3,0.7,0.5c0.3,0.1,0.6,0.3,0.9,0.3c0.1,0,0.1,0.1,0.1,0.4c0,0.2,0,0.4-0.1,0.6l-1.5-0.3c-0.9-0.2-1.5-0.3-2-0.3
	c-0.5-0.1-1.1-0.1-2.1-0.1l-1.6-0.1c-0.1-0.2-0.1-0.4-0.1-0.6c0-0.3,0.1-0.4,0.2-0.4c0.4,0,0.7,0,1.1-0.1c0.5-0.1,0.8-0.2,0.8-0.3
	c0.2-0.7,0.4-1.4,0.4-2.1l0.5-4.8c0.1-0.7,0.1-1.3-0.3-1.9c-0.2-0.2-0.4-0.4-0.6-0.5c-0.2-0.1-0.5-0.2-0.7-0.3
	c-0.2,0-0.3-0.1-0.3-0.1c0.1-0.6,0.2-0.9,0.2-0.9c1.6,0,3.2-0.1,4.9-0.4h0.1h0.2c0.1,0,0.1,0.1,0.2,0.2c0,0.1,0.1,0.2,0.1,0.3
	c-0.1,0.3-0.2,0.7-0.2,1c0,0,0,0.1,0,0.2c0.1,0,0.1,0,0.2-0.1c0.6-0.4,1.3-0.8,2-1C199.3,59.6,200.1,59.5,200.8,59.5z"/>
<path class="st0" d="M222.3,59.6L221,70.8c-0.1,0.8-0.1,1.6,0,2.4c0.1,0.3,0.7,0.5,2,0.6l1.1,0.1c1.2,0.2,2.4,0.1,3.6-0.2
	c0.5-0.2,0.9-0.5,1.2-0.9c0.5-0.5,0.9-1.1,1.1-1.7c0-0.1,0.2-0.2,0.4-0.1c0.3,0,0.6,0.1,0.8,0.3l-0.6,1.2l-0.7,1.4
	c-0.2,0.3-0.3,0.7-0.5,1.2c-0.2,0.4-0.3,0.7-0.4,1.1c-0.8-0.1-2.4-0.3-4.9-0.6c-2.5-0.3-4.2-0.5-5.2-0.6l-4-0.3
	c-0.1-0.2-0.1-0.3,0-0.5c0-0.3,0.1-0.5,0.1-0.5c0.4,0,0.8,0,1.1-0.1c0.5-0.1,0.8-0.2,0.9-0.4c0.3-0.9,0.4-1.8,0.5-2.7l1.2-11.2
	c0.1-0.8,0.1-1.7,0-2.5c-0.1-0.2-0.3-0.3-0.8-0.5c-0.3-0.2-0.7-0.3-1-0.3c-0.1,0-0.1-0.2-0.1-0.5c0-0.2,0-0.4,0.1-0.5l1.6,0.3
	c1,0.2,1.7,0.3,2.3,0.3l3.8,0.2c0,0.2,0,0.3,0,0.5c0,0.3-0.1,0.5-0.2,0.5c-0.4,0-0.7,0-1.1,0.1c-0.5,0.1-0.9,0.2-0.9,0.3
	C222.5,57.9,222.3,58.8,222.3,59.6z"/>
<path class="st0" d="M240.8,63.9c1,0,2,0.5,2.6,1.3c0.6,1,0.8,2.2,0.6,3.4l-0.6,5.8c-0.1,0.3,0,0.7,0.2,0.9c0.2,0.2,0.4,0.4,0.7,0.4
	c0.4,0,0.7-0.1,1-0.3c0.1,0.1,0.2,0.2,0.1,0.3c0,0.3-0.1,0.6-0.3,0.9c-0.4,0.2-0.8,0.4-1.3,0.6c-0.5,0.2-1,0.3-1.5,0.2
	c-0.5-0.1-0.9-0.3-1.3-0.7c-0.4-0.3-0.6-0.7-0.7-1.2l-0.2,0.2c-0.1,0.1-0.3,0.2-0.6,0.3c-0.3,0.1-0.5,0.3-0.8,0.4
	c-0.3,0.1-0.7,0.2-1,0.3c-0.4,0.1-0.8,0.1-1.2,0c-0.9-0.1-1.7-0.4-2.3-1.1c-0.6-0.6-0.8-1.5-0.7-2.3c0.1-0.5,0.2-0.9,0.5-1.3
	c0.2-0.4,0.6-0.7,0.9-0.9c0.4-0.3,0.9-0.5,1.4-0.6c0.5-0.2,1-0.3,1.4-0.4l1.5-0.3l1.3-0.2c0.2-0.1,0.3-0.2,0.3-0.4l0.2-1.6
	c0.1-0.6,0-1.2-0.3-1.7c-0.3-0.4-0.7-0.7-1.2-0.7c-0.5-0.1-1,0.1-1.4,0.4c-0.4,0.4-0.6,0.9-0.7,1.5c0,0.3-0.2,0.7-0.5,0.8
	c-0.3,0.1-0.7,0.2-1,0.2c-0.6,0-1.2-0.3-1.5-0.9c0.1-0.9,0.8-1.8,2.2-2.4C237.9,64,239.3,63.8,240.8,63.9z M238.2,75.1
	c0.5,0.1,1,0,1.4-0.3c0.4-0.2,0.6-0.5,0.7-0.9l0.3-3c-0.1,0-0.4,0.1-0.9,0.2s-0.8,0.2-1.1,0.2c-0.3,0.1-0.6,0.2-0.9,0.3
	c-0.3,0.1-0.6,0.3-0.8,0.6c-0.2,0.2-0.3,0.5-0.3,0.8c-0.1,0.5,0,1,0.3,1.4C237.3,74.9,237.7,75.1,238.2,75.1z"/>
<path class="st0" d="M257.5,65.8c0.9,0,1.8,0.5,2.3,1.2c-0.2,1.7-0.8,2.5-1.7,2.4c-0.4-0.1-0.8-0.3-1.1-0.7
	c-0.3-0.4-0.7-0.7-1.2-0.7c-0.6-0.1-1.2,0.2-1.5,0.8c-0.4,0.6-0.7,1.2-0.7,1.9l-0.4,3.7c-0.1,0.9-0.2,1.8-0.1,2.7
	c0,0.1,0.2,0.3,0.7,0.5c0.3,0.2,0.7,0.3,1,0.3c0.1,0,0.1,0.2,0.1,0.4c0,0.2,0,0.4-0.1,0.6l-1.6-0.3c-0.9-0.2-1.5-0.3-2-0.3
	c-0.5,0-1.1-0.1-2.1-0.1l-1.6-0.1c-0.1-0.2-0.1-0.4-0.1-0.6c0-0.3,0.1-0.4,0.2-0.4c0.4,0,0.7,0,1.1-0.1c0.5-0.1,0.8-0.2,0.8-0.3
	c0.2-0.7,0.4-1.4,0.4-2.1l0.5-4.8c0.1-0.7,0-1.3-0.3-1.9c-0.2-0.2-0.4-0.4-0.6-0.5c-0.2-0.1-0.5-0.2-0.7-0.2c-0.2,0-0.3-0.1-0.3-0.1
	c0.1-0.6,0.1-0.9,0.2-0.9c1.6,0,3.2-0.1,4.9-0.4h0.2c0.1,0,0.1,0.1,0.2,0.2c0,0.1,0,0.2,0,0.3l-0.1,0.4c0,0.2-0.1,0.4-0.1,0.6
	c0,0.1-0.1,0.3-0.1,0.4c0.5-0.5,1-1,1.6-1.3C256.1,65.9,256.8,65.7,257.5,65.8z"/>
<path class="st0" d="M268.5,67c0.9,0.1,1.7,0.4,2.4,0.8c0.6,0.4,1.2,0.9,1.6,1.6c0.3,0.6,0.6,1.2,0.8,1.8c0.1,0.6,0.2,1.2,0.1,1.8
	c0,0.4-0.2,0.7-0.3,0.8c-0.3,0.1-0.6,0.1-0.9,0.1l-7.1-0.8c-0.1,0-0.2,0-0.2,0.2c-0.1,0.7,0,1.4,0.2,2.1c0.2,0.7,0.6,1.4,1.1,1.9
	c0.6,0.6,1.3,0.9,2.1,1c0.3,0,0.6,0,0.9,0c0.3,0,0.5,0,0.8-0.1l0.6-0.1c0.2,0,0.4-0.1,0.6-0.2l0.4-0.2l0.6-0.3
	c0.1,0.1,0.1,0.1,0.1,0.2c0,0.1,0.1,0.2,0.1,0.3c0,0.2-0.1,0.4-0.2,0.5c-0.5,0.6-1.2,1.1-1.9,1.4c-0.9,0.4-2,0.6-3,0.5
	c-1.7-0.2-3.2-1-4.2-2.4c-1.1-1.4-1.6-3.1-1.4-4.8c0.1-1.8,0.9-3.5,2.3-4.7C265.2,67.2,266.8,66.8,268.5,67z M268.1,68.3
	c-0.5-0.1-0.9,0-1.3,0.3c-0.4,0.2-0.7,0.5-1,0.9c-0.2,0.3-0.4,0.7-0.5,1.1c-0.1,0.3-0.2,0.6-0.2,0.9c0,0.1,0,0.2,0.2,0.2l4.8,0.5
	c0.2,0,0.3-0.1,0.3-0.4c0.1-0.8-0.1-1.5-0.5-2.2C269.5,68.9,268.9,68.4,268.1,68.3L268.1,68.3z"/>
<path class="st0" d="M282.9,68.5c0.7,0.1,1.5,0.3,2.1,0.7c0.1,0,0.2-0.2,0.2-0.5l0.3-2.8c0.1-0.7,0.1-1.3,0-2
	c-0.1-0.3-0.6-0.5-1.5-0.6h-0.2c-0.1,0-0.2-0.2-0.1-0.5s0.1-0.5,0.2-0.5c0.6,0,1.2,0,1.8,0c0.6,0,1,0,1.4-0.1c0.4-0.1,0.7-0.1,1-0.2
	l0.6-0.2h0.2h0.1c0.1,0,0.1,0.1,0.2,0.2c0.1,0.1,0.1,0.2,0.1,0.3c-0.3,0.9-0.5,1.8-0.6,2.8l-1.4,13c-0.1,0.7-0.1,1.5-0.1,2.2
	c0,0.2,0.1,0.3,0.3,0.4c0.2,0.1,0.3,0.2,0.5,0.2l0.6,0.1h0.3c0,0.1,0,0.2,0,0.4c0,0.4-0.1,0.6-0.2,0.6c-0.3,0-0.6,0-1.1,0l-1.3,0.1
	l-1.2,0.1l-1.2,0.1c-0.1,0-0.2-0.2-0.1-0.5l0.1-0.5c0,0,0-0.1,0-0.1c0,0-0.1,0-0.1,0c-0.9,0.6-2.1,0.9-3.2,0.8c-1.6-0.2-3-1-4-2.2
	c-1.1-1.3-1.5-3-1.3-4.6c0.2-1.9,1.1-3.6,2.6-4.8C279.2,68.9,281,68.3,282.9,68.5z M282.5,69.9c-1-0.1-1.9,0.3-2.5,1.1
	c-0.7,1-1.1,2.2-1.2,3.5c-0.2,1.4-0.1,2.7,0.5,4c0.4,1,1.4,1.6,2.4,1.7c0.6,0.1,1.2,0,1.7-0.3c0.4-0.3,0.7-0.7,0.8-1.2l0.7-6.2
	c0-0.2,0-0.4,0-0.6c-0.1-0.3-0.2-0.5-0.3-0.7c-0.2-0.3-0.4-0.5-0.7-0.7C283.4,70.1,282.9,69.9,282.5,69.9L282.5,69.9z"/>
<path class="st0" d="M299.2,70.3c1.8,0.2,3.4,1.1,4.5,2.5c1.1,1.4,1.7,3.1,1.5,4.9c-0.4,3.7-3.7,6.4-7.4,6c-3.7-0.4-6.4-3.7-6-7.4
	c0.2-1.8,1-3.4,2.5-4.5C295.6,70.6,297.4,70.1,299.2,70.3z M298.6,71.7c-0.9-0.1-1.8,0.3-2.3,1.1c-0.6,0.9-1,2-1.1,3.1
	c-0.2,1.4,0,2.9,0.5,4.3c0.4,1.1,1.3,1.9,2.5,2.1c0.9,0.1,1.8-0.3,2.3-1.1c0.7-0.9,1.1-2,1.1-3.1c0.1-1,0.1-1.9-0.1-2.9
	c-0.1-0.9-0.5-1.7-1-2.3C300.1,72.2,299.4,71.8,298.6,71.7L298.6,71.7z"/>
<path class="st0" d="M308.8,85.1c0-0.4-0.1-0.9-0.3-1.3c-0.2-0.4-0.3-0.9-0.3-1.3c0.1-0.5,0.4-0.9,0.8-1.2c0.5-0.4,1.1-0.5,1.7-0.4
	c0.3,0,0.6,0.1,0.9,0.3c0.2,0.7,0.3,1.4,0.2,2.1c-0.1,0.5-0.2,0.9-0.4,1.4c-0.4,0.9-0.9,1.8-1.6,2.6c-0.8,0.8-1.8,1.6-2.8,2.1l0,0
	c-0.1,0-0.2-0.1-0.4-0.4c-0.1-0.2-0.2-0.3-0.2-0.6c0.2-0.2,0.4-0.3,0.5-0.4c0.4-0.3,0.8-0.7,1.1-1.2
	C308.5,86.4,308.8,85.8,308.8,85.1z"/>
<path class="st0" d="M6.7,128.1c1,0,2,0.4,2.7,1.1c0.7,1,0.9,2.2,0.8,3.4l-0.3,5.9c0,0.3,0,0.7,0.2,0.9c0.2,0.2,0.4,0.3,0.7,0.3
	c0.4,0,0.7-0.1,1-0.3c0.1,0,0.2,0.2,0.2,0.3c0,0.3-0.1,0.6-0.2,0.9c-0.4,0.3-0.8,0.5-1.2,0.7c-0.4,0.2-0.9,0.3-1.4,0.3
	c-0.5,0-0.9-0.2-1.3-0.6c-0.4-0.3-0.7-0.7-0.8-1.1L6.8,140c-0.1,0.1-0.3,0.2-0.6,0.4c-0.3,0.2-0.5,0.3-0.8,0.4
	c-0.3,0.2-0.7,0.3-1,0.4c-0.4,0.1-0.8,0.1-1.2,0.1c-0.9,0-1.7-0.3-2.4-0.9c-0.6-0.6-0.9-1.4-0.9-2.3c0-0.5,0.2-0.9,0.4-1.3
	c0.2-0.4,0.5-0.7,0.9-1c0.4-0.3,0.8-0.5,1.3-0.7c0.5-0.2,0.9-0.4,1.4-0.5l1.5-0.4l1.3-0.3c0.2-0.1,0.3-0.3,0.3-0.5l0.1-1.6
	c0.1-0.6-0.1-1.2-0.4-1.6c-0.3-0.4-0.8-0.6-1.2-0.6c-0.5-0.1-1,0.1-1.4,0.5c-0.4,0.4-0.6,1-0.6,1.5c0,0.4-0.2,0.7-0.5,0.9
	c-0.3,0.2-0.7,0.3-1,0.2c-0.6,0-1.2-0.3-1.5-0.8c0-1,0.7-1.8,2.1-2.6C3.8,128.5,5.2,128.1,6.7,128.1z M4.8,139.5
	c0.5,0,1-0.1,1.4-0.4c0.3-0.2,0.6-0.5,0.6-0.9l0.1-3c-0.1,0.1-0.4,0.1-0.9,0.3c-0.5,0.1-0.8,0.2-1,0.3c-0.3,0.1-0.6,0.2-0.8,0.4
	c-0.3,0.1-0.5,0.4-0.7,0.6c-0.2,0.2-0.2,0.5-0.3,0.8c-0.1,0.5,0.1,1,0.4,1.4C3.9,139.3,4.4,139.5,4.8,139.5z"/>
<path class="st0" d="M24.5,128.9c2.6,0.1,3.7,2.2,3.6,6.3l-0.1,2.8c-0.1,0.9,0,1.8,0.1,2.7c0,0.1,0.3,0.3,0.8,0.5
	c0.3,0.1,0.7,0.2,1,0.3c0.1,0,0.1,0.1,0.1,0.4c0,0.2,0,0.4-0.1,0.6c-0.1,0-0.6-0.1-1.5-0.2c-0.9-0.1-1.6-0.2-2-0.2c-0.5,0-1.1,0-2,0
	l-1.5,0.1c-0.1-0.2-0.1-0.4-0.1-0.6c0-0.3,0-0.4,0.1-0.4c0.3,0,0.7-0.1,1-0.2c0.5-0.1,0.7-0.3,0.8-0.4c0.2-0.7,0.3-1.4,0.3-2.2
	l0.1-2.8c0.2-1.2,0-2.4-0.5-3.5c-0.5-0.7-1.2-1-2-1c-0.6,0-1.2,0.1-1.7,0.4c-0.4,0.2-0.7,0.6-0.8,1.1l-0.2,5.1
	c-0.1,0.9,0,1.8,0.1,2.7c0,0.1,0.3,0.3,0.8,0.5c0.3,0.1,0.7,0.2,1,0.3c0.1,0,0.1,0.1,0.1,0.4c0,0.2,0,0.4-0.1,0.6l-1.6-0.2
	c-0.9-0.1-1.5-0.2-2-0.2s-1.1,0-2.1,0h-1.6c-0.1-0.2-0.1-0.4-0.1-0.6c0-0.3,0-0.4,0.1-0.4c0.4,0,0.7-0.1,1.1-0.2
	c0.5-0.1,0.8-0.3,0.8-0.4c0.2-0.7,0.3-1.4,0.3-2.2l0.2-4.8c0.1-0.7,0-1.3-0.4-1.9c-0.2-0.2-0.4-0.4-0.6-0.5
	c-0.2-0.1-0.5-0.2-0.7-0.2c-0.2,0-0.3-0.1-0.3-0.1c0-0.6,0.1-0.9,0.2-0.9c1.6-0.1,3.2-0.4,4.8-0.7h0.1H20c0.1,0,0.1,0.1,0.2,0.2
	c0,0.1,0.1,0.2,0.1,0.3c-0.1,0.4-0.1,0.7-0.2,1.1c0,0.1,0,0.1,0,0.1c0.1,0,0.1,0,0.1-0.1c0.6-0.5,1.2-0.9,1.9-1.2
	C22.9,129,23.7,128.9,24.5,128.9z"/>
<path class="st0" d="M39.7,129.5c0.7,0,1.5,0.2,2.2,0.5c0.1,0,0.2-0.2,0.2-0.5l0.1-2.8c0-0.7,0-1.3-0.1-2c-0.1-0.3-0.6-0.5-1.5-0.5
	h-0.2c-0.1,0-0.2-0.2-0.2-0.5s0.1-0.5,0.2-0.5c0.6,0,1.2-0.1,1.8-0.2c0.6-0.1,1-0.2,1.4-0.2s0.7-0.2,1-0.3l0.6-0.2l0.2-0.1h0.1
	c0.1,0,0.2,0.1,0.2,0.2c0.1,0.1,0.1,0.2,0.1,0.3c-0.3,0.9-0.4,1.8-0.4,2.8l-0.6,13.1c0,0.7,0,1.5,0.1,2.2c0,0.2,0.1,0.3,0.3,0.3
	c0.2,0.1,0.4,0.1,0.6,0.2l0.6,0.1h0.3c0,0.1,0,0.2,0,0.4c0,0.4-0.1,0.6-0.2,0.6c-0.3,0-0.6,0-1.1,0.1l-1.3,0.1l-1.2,0.2l-1.2,0.2
	c-0.1,0-0.2-0.2-0.2-0.5V142c0,0,0-0.1,0-0.1c0,0-0.1,0-0.1,0c-0.9,0.7-2,1-3.1,1c-1.6-0.1-3.1-0.8-4.1-2c-1.1-1.2-1.7-2.9-1.6-4.5
	c0.1-1.9,0.9-3.7,2.2-4.9C36.1,130.1,37.9,129.4,39.7,129.5z M39.4,130.9c-1-0.1-1.9,0.4-2.4,1.2c-0.6,1.1-1,2.3-1,3.6
	c-0.1,1.4,0.1,2.8,0.8,4c0.5,0.9,1.5,1.5,2.5,1.5c0.6,0.1,1.2-0.1,1.7-0.4c0.4-0.3,0.7-0.8,0.7-1.3l0.3-6.2c0-0.2,0-0.4-0.1-0.6
	c-0.1-0.3-0.2-0.5-0.3-0.7c-0.2-0.3-0.5-0.5-0.8-0.7C40.2,131.1,39.8,130.9,39.4,130.9L39.4,130.9z"/>
<path class="st0" d="M62.9,130.6c1,0,1.9,0.2,2.8,0.6c0.7,0.3,1.2,0.7,1.7,1.2c0,0.6-0.1,1.1-0.4,1.7c-0.2,0.4-0.6,0.6-1.1,0.6
	c-0.3,0-0.6-0.1-0.9-0.3c-0.3-0.3-0.5-0.6-0.7-1c-0.3-0.8-1.1-1.4-1.9-1.4c-0.9,0-1.7,0.4-2.1,1.2c-0.6,1-0.9,2.1-0.9,3.2
	c-0.2,1.4,0.2,2.8,0.9,4c0.6,0.9,1.7,1.4,2.7,1.4c0.3,0,0.6,0,0.9,0c0.3,0,0.5-0.1,0.8-0.1l0.6-0.2c0.2-0.1,0.4-0.1,0.6-0.2l0.4-0.2
	l0.6-0.4c0.1,0,0.1,0.1,0.1,0.2c0.1,0.1,0.1,0.2,0.1,0.3c0,0.2-0.1,0.4-0.2,0.6c-0.5,0.7-1.1,1.2-1.8,1.5c-0.9,0.5-1.9,0.7-3,0.7
	c-1.7,0-3.3-0.8-4.4-2.1c-1.2-1.3-1.8-3-1.7-4.8c0.1-1.7,0.8-3.4,2-4.6C59.4,131.1,61.1,130.5,62.9,130.6z"/>
<path class="st0" d="M77,131.2c1.8,0,3.5,0.8,4.7,2.1c1.2,1.3,1.9,3,1.8,4.8c-0.2,3.7-3.3,6.6-7,6.4c-3.7-0.2-6.6-3.3-6.4-7l0,0
	c0-1.8,0.8-3.5,2.2-4.6C73.5,131.7,75.2,131.1,77,131.2z M76.6,132.6c-0.9,0-1.8,0.4-2.2,1.3c-0.6,1-0.9,2.1-0.9,3.2
	c-0.1,1.5,0.2,2.9,0.8,4.2c0.4,1.1,1.4,1.8,2.6,1.9c0.9,0,1.8-0.5,2.2-1.3c0.6-1,0.9-2,0.9-3.2c0.1-1,0-1.9-0.3-2.9
	c-0.2-0.8-0.6-1.6-1.2-2.3C78.1,133,77.4,132.6,76.6,132.6L76.6,132.6z"/>
<path class="st0" d="M87.8,138.7c0-0.3,0.1-0.7,0.2-1c0.1-0.5,0.2-0.7,0.3-0.7l12.6,0.6c0.1,0,0.2,0.1,0.2,0.3
	c-0.1,0.5-0.2,1-0.3,1.5c0,0,0,0.1-0.1,0.1c0,0-0.1,0-0.1,0l0,0L88,139l-0.1-0.1C87.8,138.9,87.8,138.8,87.8,138.7z"/>
<path class="st0" d="M112.7,125.2c0.7,0,1.4,0.1,2.1,0.4c0.4,0.1,0.8,0.4,1.1,0.8c0.1,0.6,0,1.1-0.2,1.6c-0.2,0.5-0.6,0.7-1.1,0.7
	c-0.4,0-0.7-0.2-0.9-0.5c-0.3-0.3-0.5-0.7-0.8-1c-0.2-0.3-0.6-0.5-1-0.5c-0.5,0-1.1,0.3-1.4,0.7c-0.4,0.5-0.7,1.2-0.8,1.8
	c-0.2,0.8-0.3,1.6-0.3,2.4l-0.1,1.4c0,0,0,0.1,0.1,0.1c0,0,0.1,0.1,0.1,0.1l3.3,0.1c0,0,0.1,0,0.2,0c0,0.1,0,0.1,0,0.2
	c0,0.5-0.2,0.9-0.4,1.4l-3.1-0.1c-0.1,0-0.2,0-0.2,0.1c0,0,0,0,0,0l-0.3,6.6c-0.1,0.9,0,1.8,0.1,2.7c0,0.1,0.3,0.3,0.8,0.5
	c0.3,0.1,0.7,0.2,1,0.3c0.1,0,0.1,0.1,0.1,0.4c0,0.2,0,0.4-0.1,0.6c-0.1,0-0.6-0.1-1.5-0.2c-0.9-0.1-1.6-0.2-2.1-0.2
	c-0.5,0-1.1,0-2,0l-1.6,0.1c-0.1-0.1-0.1-0.2-0.1-0.3c0-0.2,0-0.3,0-0.5c0-0.1,0.1-0.2,0.1-0.2c0.3,0,0.7-0.1,1-0.2
	c0.5-0.1,0.7-0.3,0.8-0.4c0.2-0.8,0.3-1.6,0.4-2.4l0.3-6.8c0-0.1,0-0.2-0.2-0.2l-1.8-0.1c0,0-0.1-0.1-0.1-0.2
	c0.1-0.3,0.2-0.6,0.4-0.8c0.2-0.3,0.6-0.5,1-0.5h0.5c0.1,0,0.2,0,0.2-0.1c0,0,0,0,0,0v-0.3c0-1.9,0.8-3.8,2.1-5.3
	C109.3,125.9,110.9,125.2,112.7,125.2z"/>
<path class="st0" d="M121.8,133.2c1.8,0,3.5,0.8,4.7,2.1c1.2,1.3,1.9,3,1.8,4.8c-0.2,3.7-3.3,6.6-7,6.4c-3.7-0.2-6.6-3.3-6.4-7
	c0-1.8,0.8-3.5,2.2-4.6C118.3,133.7,120.1,133.1,121.8,133.2z M121.4,134.6c-0.9,0-1.8,0.4-2.2,1.3c-0.6,1-0.9,2.1-0.9,3.2
	c-0.1,1.5,0.2,2.9,0.8,4.2c0.4,1.1,1.4,1.8,2.6,1.9c0.9,0,1.8-0.5,2.2-1.3c0.6-1,0.9-2,0.9-3.2c0.1-1,0-1.9-0.3-2.9
	c-0.2-0.8-0.6-1.6-1.2-2.3C122.9,135,122.2,134.6,121.4,134.6L121.4,134.6z"/>
<path class="st0" d="M143.9,137.4l-0.3,5.9c-0.1,0.7,0,1.4,0.1,2.1c0.1,0.1,0.2,0.2,0.3,0.2c0.2,0.1,0.3,0.1,0.5,0.1l0.5,0.1
	c0.1,0,0.2,0,0.2,0c0.1,0,0.1,0.1,0.1,0.3c0,0.1,0,0.3-0.1,0.4c0,0.2-0.1,0.3-0.2,0.3c-0.4,0-0.7,0-1.1,0.1L143,147l-1.1,0.2
	l-1.2,0.2c-0.1,0-0.2-0.2-0.2-0.5l0.1-1.3c0-0.1,0-0.1-0.1-0.1c-0.5,0.5-1.2,0.9-1.9,1.3c-0.7,0.4-1.6,0.5-2.4,0.5
	c-0.6,0-1.2-0.2-1.8-0.6c-0.5-0.4-0.9-0.8-1.1-1.4c-0.3-0.6-0.5-1.1-0.6-1.8c-0.1-0.6-0.1-1.3-0.1-1.9l0.1-3.3
	c0.1-0.7,0-1.3-0.4-1.9c-0.2-0.2-0.4-0.4-0.7-0.5c-0.2-0.1-0.5-0.2-0.7-0.2c-0.2,0-0.3-0.1-0.3-0.1c0-0.6,0.1-0.9,0.2-0.9
	c0.8,0,1.6-0.1,2.4-0.2c0.8-0.1,1.6-0.2,2.4-0.4h0.1h0.1c0.1,0,0.2,0.1,0.2,0.2c0,0.1,0.1,0.2,0.1,0.3c-0.2,1.3-0.4,2.2-0.4,2.6
	l-0.2,3.6c-0.1,1.1,0,2.3,0.5,3.4c0.8,1.2,2.5,1.5,3.7,0.6c0,0,0,0,0,0c0.4-0.2,0.6-0.6,0.7-1.1l0.2-4.9c0.1-0.7,0-1.3-0.4-1.9
	c-0.2-0.2-0.4-0.4-0.6-0.5c-0.2-0.1-0.5-0.2-0.7-0.2c-0.2,0-0.3-0.1-0.3-0.1c0-0.6,0.1-0.9,0.2-0.9c0.8,0,1.6-0.1,2.4-0.2
	c0.8-0.1,1.6-0.2,2.4-0.4h0.2c0.1,0,0.2,0.1,0.2,0.2c0,0.1,0,0.2,0,0.3C144.1,136.2,144,137,143.9,137.4z"/>
<path class="st0" d="M158.2,134.8c2.6,0.1,3.7,2.2,3.6,6.3l-0.1,2.8c-0.1,0.9,0,1.8,0.1,2.7c0,0.1,0.3,0.3,0.8,0.5
	c0.3,0.1,0.7,0.2,1,0.3c0.1,0,0.1,0.1,0.1,0.4c0,0.2,0,0.4-0.1,0.6c-0.1,0-0.6-0.1-1.6-0.2c-0.9-0.1-1.6-0.2-2.1-0.2s-1.1,0-2,0
	l-1.5,0.1c-0.1-0.2-0.1-0.4-0.1-0.6c0-0.3,0-0.4,0.1-0.4c0.3,0,0.7-0.1,1-0.2c0.4-0.1,0.7-0.3,0.8-0.4c0.2-0.7,0.3-1.4,0.3-2.2
	l0.1-2.8c0.2-1.2,0-2.4-0.5-3.5c-0.5-0.7-1.2-1.1-2.1-1.1c-0.6,0-1.2,0.1-1.7,0.4c-0.4,0.2-0.7,0.6-0.8,1.1l-0.2,5.1
	c-0.1,0.9,0,1.8,0.1,2.7c0,0.1,0.3,0.3,0.8,0.5c0.3,0.1,0.7,0.2,1,0.3c0.1,0,0.1,0.1,0.1,0.4c0,0.2,0,0.4-0.1,0.6l-1.6-0.2
	c-0.9-0.1-1.5-0.2-2-0.2c-0.5,0-1.1,0-2.1,0h-1.6c-0.1-0.2-0.1-0.4-0.1-0.6c0-0.3,0.1-0.4,0.1-0.4c0.4,0,0.7-0.1,1.1-0.2
	c0.5-0.1,0.8-0.3,0.8-0.4c0.2-0.7,0.3-1.4,0.3-2.2l0.2-4.8c0.1-0.7,0-1.3-0.4-1.9c-0.2-0.2-0.4-0.4-0.6-0.5
	c-0.2-0.1-0.5-0.2-0.7-0.2c-0.2,0-0.3-0.1-0.3-0.1c0-0.6,0.1-0.9,0.2-0.9c1.6-0.1,3.2-0.4,4.8-0.7h0.1h0.2c0.1,0,0.1,0.1,0.2,0.2
	c0,0.1,0.1,0.2,0.1,0.3c-0.1,0.4-0.1,0.7-0.2,1.1c0,0.1,0,0.1,0,0.1c0.1,0,0.1,0,0.1-0.1c0.6-0.5,1.2-0.9,1.9-1.2
	C156.6,134.9,157.4,134.7,158.2,134.8z"/>
<path class="st0" d="M173.4,135.4c0.7,0,1.5,0.2,2.1,0.5c0.1,0,0.2-0.2,0.2-0.5l0.1-2.8c0-0.7,0-1.3-0.1-2c-0.1-0.3-0.6-0.5-1.5-0.5
	H174c-0.1,0-0.2-0.2-0.2-0.5c0-0.3,0.1-0.5,0.2-0.5c0.6,0,1.2-0.1,1.8-0.2c0.6-0.1,1-0.1,1.4-0.2s0.7-0.2,1-0.2l0.6-0.2l0.2-0.1h0.1
	c0.1,0,0.2,0.1,0.2,0.2c0.1,0.1,0.1,0.2,0.1,0.3c-0.3,0.9-0.4,1.8-0.4,2.8l-0.6,13.1c0,0.7,0,1.5,0.1,2.2c0,0.2,0.1,0.3,0.3,0.3
	c0.2,0.1,0.4,0.1,0.6,0.2l0.6,0.1h0.3c0,0.1,0,0.2,0,0.4c0,0.4-0.1,0.6-0.2,0.6c-0.3,0-0.6,0-1.1,0.1l-1.3,0.1l-1.2,0.2l-1.2,0.2
	c-0.1,0-0.2-0.2-0.2-0.5v-0.5c0,0,0-0.1,0-0.1c0,0-0.1,0-0.1,0c-0.9,0.7-2,1-3.1,1c-1.6-0.1-3.1-0.8-4.1-2c-1.1-1.2-1.7-2.9-1.6-4.5
	c0.1-1.9,0.9-3.7,2.3-4.9C169.8,136,171.6,135.3,173.4,135.4z M173.1,136.8c-1-0.1-1.9,0.4-2.4,1.2c-0.6,1.1-1,2.3-1,3.6
	c-0.1,1.4,0.1,2.8,0.8,4c0.5,0.9,1.5,1.5,2.5,1.5c0.6,0.1,1.2-0.1,1.7-0.4c0.4-0.3,0.7-0.8,0.7-1.3l0.3-6.2c0-0.2,0-0.4-0.1-0.6
	c-0.1-0.3-0.2-0.5-0.3-0.7c-0.2-0.3-0.5-0.5-0.8-0.7C174,136.9,173.6,136.8,173.1,136.8L173.1,136.8z"/>
<path class="st0" d="M188,145c-0.1,0.9,0,1.8,0.1,2.7c0,0.1,0.3,0.3,0.8,0.5c0.3,0.1,0.7,0.2,1,0.3c0.1,0,0.1,0.1,0.1,0.4
	c0,0.2,0,0.4-0.1,0.6l-1.6-0.2c-0.9-0.1-1.6-0.2-2-0.2s-1.1,0-2.1,0l-1.6,0.1c-0.1-0.2-0.1-0.4-0.1-0.6c0-0.3,0.1-0.4,0.1-0.4
	c0.4,0,0.7-0.1,1.1-0.2c0.5-0.1,0.8-0.3,0.8-0.4c0.2-0.7,0.3-1.4,0.3-2.2l0.2-4.8c0.1-0.7,0-1.3-0.4-1.9c-0.2-0.2-0.4-0.4-0.7-0.5
	c-0.2-0.1-0.5-0.2-0.7-0.2c-0.2,0-0.3-0.1-0.3-0.1c0-0.6,0.1-0.9,0.2-0.9c0.8,0,1.6-0.1,2.4-0.2c0.8-0.1,1.6-0.2,2.4-0.4h0.2
	c0.1,0,0.2,0.1,0.2,0.2c0,0.1,0,0.2,0,0.3c-0.2,0.8-0.3,1.7-0.4,2.5L188,145z M185.5,132.4c-0.3-0.4-0.5-0.8-0.5-1.3
	c0-0.5,0.2-0.9,0.6-1.3c0.8-0.7,1.9-0.6,2.6,0.1c0.3,0.4,0.5,0.8,0.5,1.3c0,0.5-0.2,1-0.6,1.3C187.3,133.2,186.2,133.2,185.5,132.4
	C185.5,132.4,185.5,132.4,185.5,132.4L185.5,132.4z"/>
<path class="st0" d="M202.6,136.7c2.6,0.1,3.7,2.2,3.6,6.3l-0.1,2.8c-0.1,0.9,0,1.8,0.1,2.7c0,0.1,0.3,0.3,0.8,0.5
	c0.3,0.1,0.7,0.2,1,0.3c0.1,0,0.1,0.1,0.1,0.4c0,0.2,0,0.4-0.1,0.6c-0.1,0-0.6-0.1-1.6-0.2c-0.9-0.1-1.6-0.2-2.1-0.2s-1.1,0-2,0
	l-1.5,0.1c-0.1-0.2-0.1-0.4-0.1-0.6c0-0.3,0-0.4,0.1-0.4c0.3,0,0.7-0.1,1-0.2c0.4-0.1,0.7-0.3,0.8-0.4c0.2-0.7,0.3-1.4,0.3-2.2
	l0.1-2.8c0.2-1.2,0-2.4-0.5-3.5c-0.5-0.7-1.2-1.1-2.1-1.1c-0.6,0-1.2,0.1-1.7,0.4c-0.4,0.2-0.7,0.6-0.8,1.1l-0.2,5.1
	c-0.1,0.9,0,1.8,0.1,2.7c0,0.1,0.3,0.3,0.8,0.5c0.3,0.1,0.7,0.2,1,0.3c0.1,0,0.1,0.1,0.1,0.4c0,0.2,0,0.4-0.1,0.6l-1.6-0.2
	c-0.9-0.1-1.5-0.2-2-0.2c-0.5,0-1.1,0-2.1,0h-1.6c-0.1-0.2-0.1-0.4-0.1-0.6c0-0.3,0.1-0.4,0.1-0.4c0.4,0,0.7-0.1,1.1-0.2
	c0.5-0.1,0.8-0.3,0.8-0.4c0.2-0.7,0.3-1.4,0.3-2.2l0.3-4.8c0.1-0.7,0-1.3-0.4-1.9c-0.2-0.2-0.4-0.4-0.6-0.5
	c-0.2-0.1-0.5-0.2-0.7-0.2c-0.2,0-0.3-0.1-0.3-0.1c0-0.6,0.1-0.9,0.2-0.9c1.6-0.1,3.2-0.4,4.8-0.7h0.1h0.2c0.1,0,0.1,0.1,0.2,0.2
	c0,0.1,0.1,0.2,0.1,0.3c-0.1,0.3-0.1,0.7-0.2,1.1c0,0,0,0.1,0,0.1c0.1,0,0.1,0,0.1-0.1c0.6-0.5,1.2-0.9,1.9-1.2
	C201.1,136.9,201.9,136.7,202.6,136.7z"/>
<path class="st0" d="M216.9,137.4c0.8,0.1,1.7,0.2,2.4,0.5c0.8,0.3,1.6,0.4,2.4,0.5l1.7,0.1c0,0,0.1,0.1,0.2,0.4
	c0.1,0.2,0.1,0.4,0.1,0.6c0,0.3-0.1,0.4-0.2,0.4l-1.9-0.1c-0.1,0-0.1,0-0.1,0.1s0.1,0.3,0.2,0.8c0.2,0.5,0.2,1,0.2,1.4
	c-0.1,1.2-0.7,2.3-1.6,3.1c-1,0.9-2.4,1.3-3.7,1.2c-0.6,0-1.2-0.1-1.8-0.2c-0.3,0.1-0.5,0.3-0.7,0.5c-0.2,0.2-0.3,0.4-0.3,0.7
	c0,0.2,0.1,0.4,0.3,0.5c0.3,0.2,0.6,0.3,0.9,0.3c0.4,0.1,0.7,0.1,1,0.2l1.2,0.1h0.4c1.5,0,3,0.4,4.3,1c0.8,0.4,1.3,1.3,1.3,2.2
	c-0.1,1.6-1,3-2.3,3.8c-1.5,1-3.3,1.5-5.1,1.4c-1.3,0-2.6-0.4-3.8-1c-1-0.5-1.6-1.4-1.5-2.5c0.1-0.6,0.4-1.2,0.9-1.6
	c0.5-0.5,1.2-0.8,1.9-1c-0.5-0.2-1-0.6-1.4-1c-0.4-0.4-0.6-1-0.6-1.6c0-0.9,0.8-1.7,2.3-2.6c-0.7-0.4-1.2-0.9-1.5-1.6
	c-0.4-0.7-0.7-1.6-0.6-2.4c0-1.3,0.6-2.5,1.7-3.3C214.2,137.6,215.5,137.3,216.9,137.4z M220.3,153.1c0-0.7-0.5-1.1-1.4-1.4
	c-1.3-0.3-2.7-0.5-4-0.5h-0.1l-0.1,0.1c-0.3,0.1-0.5,0.2-0.6,0.2c-0.2,0.1-0.3,0.2-0.5,0.3c-0.2,0.1-0.3,0.3-0.4,0.5
	c-0.1,0.2-0.2,0.5-0.2,0.7c0,0.8,0.4,1.5,1.1,1.8c0.7,0.5,1.6,0.8,2.5,0.8c1,0.1,1.9-0.1,2.8-0.6
	C219.8,154.6,220.2,153.9,220.3,153.1z M214.4,141.6c-0.1,0.9,0.1,1.7,0.5,2.5c0.3,0.6,0.9,1.1,1.6,1.1c0.7,0.1,1.3-0.2,1.7-0.8
	c0.4-0.6,0.6-1.3,0.6-2.1c0.1-0.9-0.1-1.8-0.5-2.6c-0.3-0.6-1-1.1-1.7-1.1c-0.7-0.1-1.3,0.3-1.6,0.9
	C214.6,140.2,214.4,140.9,214.4,141.6z"/>
<path class="st0" d="M252,151.1c0.1,0,0.1,0.2,0.1,0.6c0,0.1,0,0.3-0.1,0.4l-3.8-0.3H247h-1.4h-1.3c-0.1-0.1-0.1-0.3-0.1-0.4
	c0-0.4,0.1-0.6,0.1-0.6c0.4,0,0.8-0.1,1.1-0.2c0.5-0.1,0.8-0.2,0.9-0.4c0.2-0.8,0.3-1.6,0.4-2.5l0.2-5.1l-0.1-0.1
	c-1.9-0.1-3.2-0.2-3.9-0.2c-1.4-0.1-2.7-0.1-4.1,0l-0.2,5c-0.1,0.9,0,1.8,0.1,2.7c0,0.1,0.3,0.3,0.8,0.5c0.3,0.1,0.7,0.2,1,0.3
	c0.1,0,0.1,0.2,0.1,0.6c0,0.1,0,0.3-0.1,0.4l-3.8-0.3h-1.2h-1.4h-1.3c-0.1-0.1-0.1-0.3-0.1-0.4c0-0.4,0.1-0.6,0.1-0.6
	c0.4,0,0.8-0.1,1.1-0.2c0.5-0.1,0.8-0.2,0.9-0.4c0.2-0.8,0.3-1.6,0.4-2.5l0.5-11.5c0.1-0.8,0-1.7-0.1-2.5c-0.1-0.2-0.3-0.3-0.8-0.5
	c-0.3-0.1-0.7-0.2-1.1-0.3c-0.1,0-0.1-0.1-0.1-0.4c0-0.2,0-0.4,0.1-0.5l1.6,0.2c1,0.1,1.8,0.2,2.3,0.2h3.8c0,0.2,0.1,0.3,0.1,0.5
	c0,0.3-0.1,0.5-0.1,0.5c-0.4,0-0.7,0.1-1.1,0.2c-0.5,0.1-0.8,0.3-0.9,0.4c-0.2,0.8-0.3,1.7-0.4,2.6l-0.2,4.3l0.1,0.1
	c1.9,0.1,3.3,0.2,4,0.2c0.7,0,2,0.1,3.9,0.1c0,0,0.1-0.1,0.1-0.1l0.2-4.4c0.1-0.8,0-1.7-0.1-2.5c-0.1-0.2-0.3-0.3-0.8-0.5
	c-0.3-0.1-0.7-0.2-1.1-0.3c-0.1,0-0.1-0.1-0.1-0.4c0-0.2,0-0.4,0.1-0.5l1.6,0.2c1,0.1,1.8,0.2,2.3,0.2h3.9c0,0.2,0.1,0.3,0.1,0.5
	c0,0.3-0.1,0.5-0.1,0.5c-0.4,0-0.7,0.1-1.1,0.2c-0.5,0.1-0.8,0.3-0.9,0.4c-0.2,0.8-0.3,1.7-0.4,2.6l-0.5,11.2
	c-0.1,0.9,0,1.8,0.1,2.7c0,0.1,0.3,0.3,0.8,0.5C251.4,151.1,251.7,151.1,252,151.1z"/>
<path class="st0" d="M262,139.3c1.8,0,3.5,0.8,4.7,2.1c1.2,1.3,1.9,3,1.8,4.8c-0.2,3.7-3.3,6.6-7,6.4c-3.7-0.2-6.6-3.3-6.4-7
	c0-1.8,0.8-3.5,2.2-4.6C258.5,139.8,260.2,139.2,262,139.3z M261.5,140.7c-0.9,0-1.8,0.4-2.2,1.3c-0.6,1-0.9,2.1-0.9,3.2
	c-0.1,1.5,0.2,2.9,0.8,4.2c0.4,1.1,1.4,1.8,2.6,1.9c0.9,0,1.8-0.5,2.2-1.3c0.6-1,0.9-2,0.9-3.2c0-1,0-1.9-0.3-2.9
	c-0.2-0.8-0.6-1.6-1.1-2.3C263.1,141.1,262.4,140.7,261.5,140.7L261.5,140.7z"/>
<path class="st0" d="M281,140.1c0.7,0,1.4,0.2,1.9,0.7c0.5,0.4,0.9,0.9,1.1,1.6c0.6-0.6,1.4-1.1,2.2-1.4c0.9-0.4,1.9-0.5,2.8-0.5
	c0.6,0,1.3,0.2,1.8,0.6c0.5,0.3,0.9,0.8,1.1,1.4c0.3,0.6,0.4,1.2,0.5,1.9c0.1,0.7,0.1,1.4,0.1,2.2l-0.1,3.1c-0.1,0.9,0,1.8,0.1,2.7
	c0,0.1,0.3,0.3,0.8,0.5c0.3,0.1,0.7,0.2,1,0.3c0.1,0,0.1,0.1,0.1,0.4c0,0.2,0,0.4-0.1,0.6l-1.5-0.2c-0.9-0.1-1.6-0.2-2-0.2
	c-0.4,0-1.1,0-2,0h-1.6c-0.1-0.2-0.1-0.4-0.1-0.6c0-0.3,0-0.4,0.1-0.4c0.4,0,0.7-0.1,1.1-0.2c0.5-0.1,0.7-0.3,0.8-0.4
	c0.2-0.7,0.3-1.4,0.3-2.1l0.1-3c0.1-2.9-0.7-4.3-2.6-4.4c-0.6,0-1.2,0.1-1.6,0.4c-0.4,0.2-0.6,0.5-0.8,0.9c0,0.1,0,0.1,0,0.2
	c0,0.1,0,0.2,0,0.2c0,0.6,0,1.2,0,1.9l-0.1,3.1c-0.1,0.9,0,1.7,0.1,2.6c0,0.1,0.3,0.3,0.8,0.5c0.3,0.1,0.7,0.2,1,0.3
	c0.1,0,0.1,0.1,0.1,0.4c0,0.2,0,0.4-0.1,0.6l-1.5-0.2c-0.9-0.1-1.6-0.2-2-0.2c-0.4,0-1.1,0-2,0h-1.6c-0.1-0.2-0.1-0.4-0.1-0.6
	c0-0.3,0-0.4,0.1-0.4c0.4,0,0.7-0.1,1.1-0.2c0.5-0.1,0.7-0.3,0.8-0.4c0.2-0.7,0.3-1.4,0.3-2.2l0.1-2.9c0.1-1.2-0.1-2.3-0.5-3.4
	c-0.4-0.7-1.2-1.1-2-1.1c-0.6,0-1.2,0.1-1.7,0.4c-0.4,0.2-0.7,0.6-0.8,1.1l-0.2,5.1c-0.1,0.9,0,1.8,0.1,2.7c0,0.1,0.3,0.3,0.8,0.5
	c0.3,0.1,0.7,0.2,1,0.3c0.1,0,0.1,0.1,0.1,0.4c0,0.2,0,0.4-0.1,0.6l-1.5-0.2c-0.9-0.1-1.5-0.2-2-0.2c-0.5,0-1.1,0-2.1,0l-1.6,0.1
	c-0.1-0.2-0.1-0.4-0.1-0.6c0-0.3,0.1-0.4,0.1-0.4c0.4,0,0.7-0.1,1.1-0.2c0.5-0.1,0.8-0.3,0.8-0.4c0.2-0.7,0.3-1.4,0.3-2.2l0.2-4.8
	c0.1-0.7,0-1.3-0.4-1.9c-0.2-0.2-0.4-0.4-0.6-0.5c-0.2-0.1-0.5-0.2-0.7-0.2c-0.2,0-0.3-0.1-0.3-0.1c0-0.6,0.1-0.9,0.2-0.9
	c1.6-0.1,3.2-0.4,4.8-0.7c0,0,0.1,0,0.1,0h0.1c0.1,0,0.2,0.1,0.2,0.2c0,0.1,0,0.2,0,0.3c-0.1,0.4-0.1,0.7-0.2,1.1c0,0.1,0,0.1,0,0.1
	c0.1,0,0.1,0,0.1-0.1c0.6-0.5,1.2-0.9,1.9-1.2C279.5,140.3,280.2,140.1,281,140.1z"/>
<path class="st0" d="M302.2,150c-0.1,0.9,0,1.8,0.1,2.7c0,0.1,0.3,0.3,0.8,0.5c0.3,0.1,0.7,0.2,1,0.3c0.1,0,0.1,0.1,0.1,0.4
	c0,0.2,0,0.4-0.1,0.6l-1.6-0.2c-0.9-0.1-1.6-0.2-2-0.2s-1.1,0-2.1,0l-1.6,0.1c-0.1-0.2-0.1-0.4-0.1-0.6c0-0.3,0.1-0.4,0.1-0.4
	c0.4,0,0.7-0.1,1.1-0.2c0.5-0.1,0.8-0.3,0.8-0.4c0.2-0.7,0.3-1.4,0.3-2.2l0.2-4.8c0.1-0.7,0-1.3-0.4-1.9c-0.2-0.2-0.4-0.4-0.7-0.5
	c-0.2-0.1-0.5-0.2-0.7-0.2c-0.2,0-0.3-0.1-0.3-0.1c0-0.6,0.1-0.9,0.2-0.9c0.8,0,1.6-0.1,2.4-0.2c0.8-0.1,1.6-0.2,2.4-0.4h0.2
	c0.1,0,0.2,0.1,0.2,0.2c0,0.1,0,0.2,0,0.3c-0.2,1.3-0.3,2.1-0.4,2.5L302.2,150z M299.6,137.4c-0.3-0.4-0.5-0.8-0.5-1.3
	c0-1,0.9-1.8,1.9-1.8c0,0,0,0,0,0c1,0,1.8,0.9,1.8,1.9c0,0,0,0,0,0c0,0.5-0.2,1-0.6,1.3C301.5,138.2,300.4,138.2,299.6,137.4
	C299.7,137.5,299.6,137.4,299.6,137.4L299.6,137.4z"/>
<path class="st0" d="M313.2,141.6c0.9,0,1.7,0.2,2.5,0.7c0.7,0.4,1.2,0.9,1.7,1.5c0.4,0.6,0.7,1.2,0.9,1.8c0.2,0.6,0.3,1.2,0.2,1.8
	c0,0.4-0.1,0.7-0.3,0.8c-0.3,0.1-0.6,0.2-0.9,0.1l-7.1-0.3c-0.1,0-0.2,0.1-0.2,0.2c0,0.7,0.1,1.4,0.3,2.1c0.2,0.7,0.7,1.3,1.2,1.8
	c0.6,0.5,1.4,0.8,2.2,0.8c0.3,0,0.6,0,0.9,0c0.3,0,0.5-0.1,0.8-0.1l0.6-0.2c0.2-0.1,0.4-0.1,0.6-0.2l0.5-0.2l0.6-0.4
	c0.1,0,0.1,0.1,0.1,0.2c0.1,0.1,0.1,0.2,0.1,0.3c0,0.2-0.1,0.4-0.2,0.6c-0.5,0.7-1.1,1.2-1.8,1.5c-0.9,0.5-2,0.7-3,0.7
	c-1.7-0.1-3.3-0.8-4.4-2.1c-1.2-1.3-1.8-3-1.7-4.7c0-1.8,0.7-3.5,2-4.8C309.9,142.1,311.5,141.5,313.2,141.6z M312.9,142.9
	c-0.5,0-0.9,0.1-1.3,0.4c-0.4,0.3-0.7,0.6-0.9,1c-0.2,0.3-0.4,0.7-0.5,1.1c-0.1,0.3-0.1,0.6-0.2,0.9c0,0.1,0.1,0.2,0.2,0.2l4.8,0.2
	c0.2,0,0.3-0.1,0.3-0.4c0-0.8-0.2-1.5-0.6-2.1C314.4,143.4,313.7,143,312.9,142.9z"/>
<path class="st0" d="M346.7,155.3c0.1,0,0.1,0.2,0.1,0.6c0,0.1,0,0.3-0.1,0.4l-3.8-0.3h-1.2h-1.5H339c-0.1-0.1-0.1-0.3-0.1-0.4
	c0-0.4,0-0.6,0.1-0.6c0.4,0,0.8-0.1,1.1-0.2c0.5-0.1,0.8-0.2,0.9-0.4c0.2-0.8,0.3-1.6,0.4-2.5l0.2-5.1l0-0.1
	c-1.9-0.1-3.2-0.2-3.9-0.2c-1.4-0.1-2.7-0.1-4.1,0l-0.2,5c-0.1,0.9,0,1.8,0.1,2.7c0,0.1,0.3,0.3,0.8,0.5c0.3,0.1,0.7,0.2,1,0.3
	c0.1,0,0.1,0.2,0.1,0.6c0,0.1,0,0.3-0.1,0.4l-3.8-0.3h-1.2h-1.4h-1.3c-0.1-0.1-0.1-0.3-0.1-0.4c0-0.4,0.1-0.6,0.1-0.6
	c0.4,0,0.8-0.1,1.1-0.2c0.5-0.1,0.8-0.2,0.9-0.4c0.2-0.8,0.3-1.6,0.4-2.5l0.5-11.5c0.1-0.8,0-1.7-0.1-2.5c-0.1-0.2-0.3-0.3-0.8-0.5
	c-0.3-0.1-0.7-0.2-1.1-0.3c-0.1,0-0.1-0.1-0.1-0.4c0-0.2,0-0.4,0.1-0.5l1.6,0.2c1,0.1,1.8,0.2,2.3,0.2h3.8c0,0.2,0.1,0.3,0.1,0.5
	c0,0.3-0.1,0.5-0.1,0.5c-0.4,0-0.7,0.1-1.1,0.2c-0.5,0.1-0.8,0.3-0.9,0.4c-0.2,0.8-0.3,1.7-0.4,2.6l-0.2,4.3l0.1,0.1
	c1.9,0.1,3.3,0.2,4,0.2c0.7,0,2,0.1,3.9,0.1c0,0,0.1-0.1,0.1-0.1l0.2-4.4c0.1-0.8,0-1.7-0.1-2.5c-0.1-0.2-0.3-0.3-0.8-0.5
	c-0.3-0.1-0.7-0.2-1.1-0.3c-0.1,0-0.1-0.1-0.1-0.4c0-0.2,0-0.4,0.1-0.5l1.6,0.2c1,0.1,1.8,0.2,2.3,0.2h3.8c0,0.2,0.1,0.3,0.1,0.5
	c0,0.3-0.1,0.5-0.1,0.5c-0.4,0-0.7,0.1-1.1,0.2c-0.5,0.1-0.8,0.3-0.9,0.4c-0.2,0.8-0.3,1.7-0.4,2.6l-0.5,11.2
	c-0.1,0.9,0,1.8,0.1,2.7c0,0.1,0.3,0.3,0.8,0.5C346,155.2,346.4,155.3,346.7,155.3z"/>
<path class="st0" d="M356.7,143.5c1.8,0,3.5,0.8,4.7,2.1c1.2,1.3,1.9,3,1.8,4.8c-0.2,3.7-3.3,6.6-7,6.4c-3.7-0.2-6.6-3.3-6.4-7l0,0
	c0-1.8,0.8-3.5,2.1-4.6C353.2,144,355,143.4,356.7,143.5z M356.3,144.9c-0.9,0-1.8,0.4-2.2,1.3c-0.6,1-0.9,2.1-0.9,3.2
	c-0.1,1.5,0.2,2.9,0.8,4.2c0.4,1.1,1.4,1.8,2.6,1.9c0.9,0,1.8-0.5,2.2-1.3c0.6-1,0.9-2,0.9-3.2c0.1-1,0-1.9-0.3-2.9
	c-0.2-0.8-0.6-1.6-1.1-2.3C357.8,145.2,357.1,144.9,356.3,144.9L356.3,144.9z"/>
<path class="st0" d="M378.8,147.6l-0.3,5.9c-0.1,0.7,0,1.4,0.1,2.1c0.1,0.1,0.2,0.2,0.3,0.2c0.2,0.1,0.3,0.1,0.5,0.1l0.5,0.1
	c0.1,0,0.2,0,0.2,0c0.1,0,0.1,0.1,0.1,0.3c0,0.1,0,0.3-0.1,0.4c0,0.2-0.1,0.3-0.2,0.3c-0.4,0-0.7,0-1.1,0.1l-1.2,0.1l-1.1,0.2
	l-1.2,0.2c-0.1,0-0.2-0.2-0.2-0.5l0.1-1.3c0-0.1,0-0.1-0.1-0.1c-0.5,0.5-1.2,0.9-1.9,1.3c-0.7,0.4-1.6,0.5-2.4,0.5
	c-0.6,0-1.2-0.2-1.7-0.6c-0.5-0.4-0.9-0.8-1.1-1.4c-0.3-0.6-0.5-1.1-0.5-1.8c-0.1-0.6-0.1-1.3-0.1-1.9l0.1-3.3
	c0.1-0.7,0-1.3-0.4-1.9c-0.2-0.2-0.4-0.4-0.7-0.5c-0.2-0.1-0.5-0.2-0.7-0.2c-0.2,0-0.3-0.1-0.3-0.1c0-0.6,0.1-0.9,0.2-0.9
	c0.8,0,1.6-0.1,2.5-0.2c0.8-0.1,1.6-0.2,2.4-0.4h0.1h0.1c0.1,0,0.2,0.1,0.2,0.2c0,0.1,0.1,0.2,0.1,0.3c-0.2,1.3-0.4,2.2-0.4,2.6
	l-0.2,3.6c-0.1,1.1,0,2.3,0.5,3.4c0.8,1.2,2.5,1.5,3.7,0.6c0,0,0,0,0,0c0.4-0.2,0.6-0.6,0.7-1.1l0.2-4.9c0.1-0.7,0-1.3-0.4-1.9
	c-0.2-0.2-0.4-0.4-0.6-0.5c-0.2-0.1-0.5-0.2-0.7-0.2c-0.2,0-0.3-0.1-0.3-0.1c0-0.6,0.1-0.9,0.2-0.9c0.8,0,1.6-0.1,2.4-0.2
	c0.8-0.1,1.6-0.2,2.4-0.4h0.2c0.1,0,0.2,0.1,0.2,0.2c0,0.1,0,0.2,0,0.3C379,146.5,378.8,147.3,378.8,147.6z"/>
<path class="st0" d="M388.2,144.8c1.2,0.1,2.3,0.3,3.4,0.7c0.2,1.1,0.2,2.2,0.2,3.3c0,0.2-0.1,0.2-0.4,0.2c-0.4,0-0.7-0.1-0.7-0.3
	c-0.1-0.7-0.4-1.3-0.8-1.8c-0.4-0.5-1.1-0.8-1.8-0.8c-0.5,0-1,0.1-1.4,0.3c-0.3,0.3-0.5,0.7-0.5,1.1c0,0.3,0,0.5,0.1,0.8
	c0.1,0.3,0.3,0.5,0.5,0.7c0.2,0.2,0.4,0.3,0.6,0.5c0.2,0.1,0.5,0.3,0.8,0.5c0.1,0.1,0.2,0.1,0.3,0.2l0.4,0.3l0.5,0.3l0.5,0.3
	c0.2,0.1,0.3,0.2,0.5,0.4l0.5,0.4c0.2,0.1,0.3,0.3,0.4,0.4l0.3,0.5c0.1,0.2,0.2,0.4,0.3,0.6c0.1,0.2,0.1,0.4,0.1,0.6
	c0,0.2,0,0.4,0,0.6c0,1.2-0.6,2.2-1.6,2.9c-1,0.7-2.3,1-3.5,0.9c-1.3-0.1-2.6-0.4-3.8-1c-0.1-0.5-0.2-1.1-0.2-1.7
	c-0.1-0.6-0.1-1.1-0.1-1.7c0.1-0.1,0.3-0.1,0.4-0.1c0.5,0,0.7,0.1,0.7,0.3c0.1,0.8,0.5,1.5,1.1,2.1c0.5,0.5,1.3,0.8,2,0.9
	c0.5,0,1-0.1,1.4-0.4c0.4-0.3,0.6-0.7,0.6-1.2c0-0.2,0-0.4,0-0.6c-0.1-0.2-0.1-0.4-0.3-0.5l-0.3-0.4c-0.2-0.2-0.3-0.3-0.5-0.4
	l-0.6-0.4l-0.7-0.4l-0.7-0.4c-0.8-0.4-1.4-1-2-1.7c-1.1-1.5-0.8-3.7,0.8-4.8c0,0,0.1-0.1,0.1-0.1C385.9,145,387,144.7,388.2,144.8z"
	/>
<path class="st0" d="M401.3,145.4c0.9,0,1.7,0.2,2.5,0.7c0.7,0.4,1.2,0.9,1.7,1.5c0.4,0.6,0.7,1.2,0.9,1.8c0.2,0.6,0.3,1.2,0.2,1.8
	c0,0.4-0.1,0.7-0.3,0.8c-0.3,0.1-0.6,0.2-0.9,0.1l-7.1-0.3c-0.1,0-0.2,0.1-0.2,0.2c0,0.7,0.1,1.4,0.3,2.1c0.2,0.7,0.7,1.3,1.2,1.8
	c0.6,0.5,1.4,0.8,2.2,0.8c0.3,0,0.6,0,0.9,0c0.3,0,0.5-0.1,0.8-0.1l0.6-0.2c0.2-0.1,0.4-0.1,0.6-0.2l0.4-0.2l0.6-0.4
	c0.1,0,0.1,0.1,0.1,0.2c0.1,0.1,0.1,0.2,0.1,0.3c0,0.2-0.1,0.4-0.2,0.6c-0.5,0.7-1.1,1.2-1.8,1.5c-0.9,0.5-2,0.7-3,0.7
	c-1.7-0.1-3.3-0.8-4.4-2.1c-1.2-1.3-1.8-3-1.7-4.7c0-1.8,0.7-3.5,2-4.8C398,145.9,399.6,145.3,401.3,145.4z M401,146.8
	c-0.5,0-0.9,0.1-1.3,0.4c-0.4,0.3-0.7,0.6-0.9,1c-0.2,0.3-0.4,0.7-0.5,1.1c-0.1,0.3-0.1,0.6-0.2,0.9c0,0.1,0,0.2,0.2,0.2l4.8,0.2
	c0.2,0,0.3-0.1,0.3-0.4c0-0.8-0.2-1.5-0.6-2.1C402.5,147.3,401.8,146.8,401,146.8L401,146.8z"/>
<path class="st0" d="M420.5,139.8c0.6,0,1.2,0,2,0s1.4,0,2,0c0.6,0,1.2,0.1,1.8,0.2c0.6,0.1,1.2,0.4,1.7,0.7
	c0.6,0.3,1.1,0.7,1.5,1.1c0.4,0.5,0.8,1,1,1.6c0.3,0.7,0.4,1.4,0.3,2.1c-0.1,1-0.3,1.9-0.9,2.7c-0.6,0.9-1.4,1.7-2.3,2.2
	c-1,0.6-2.2,0.9-3.4,0.8c-0.4,0-0.8-0.1-1.2-0.3c-0.3-0.1-0.6-0.3-0.8-0.6c-0.1-0.1-0.1-0.2-0.1-0.3c0-0.1,0-0.3,0-0.4
	c0-0.1,0.1-0.2,0.1-0.2c0.5,0.2,1.1,0.4,1.6,0.4c0.9,0.1,1.8-0.3,2.3-1.1c0.6-0.8,1-1.9,1-2.9c0.1-1.1-0.1-2.2-0.7-3.2
	c-0.5-0.8-1.4-1.3-2.4-1.3c-0.6-0.1-1.2,0-1.7,0.1c-0.2,0.1-0.4,1.1-0.5,3.1l-0.5,10.6c-0.1,0.8,0,1.7,0.1,2.5c0,0.2,0.4,0.4,1,0.6
	c0.4,0.1,0.9,0.2,1.3,0.3c0.1,0,0.1,0.2,0.1,0.5c0,0.2,0,0.3-0.1,0.5c-2.2-0.2-3.6-0.3-4.2-0.4c-0.5,0-1.1,0-1.8,0h-1.6h-0.6
	c-0.1-0.2-0.1-0.4-0.1-0.5c0-0.3,0-0.5,0.1-0.5c0.4,0,0.8,0,1.1-0.1c0.5-0.1,0.8-0.2,0.9-0.4c0.2-0.9,0.3-1.8,0.3-2.7l0.5-11.2
	c0.1-0.8,0-1.6-0.1-2.4c-0.1-0.2-0.3-0.3-0.9-0.5c-0.4-0.2-0.7-0.3-1.1-0.3c-0.1,0-0.1-0.1-0.1-0.4s0.1-0.5,0.1-0.5
	C418.6,139.7,419.9,139.8,420.5,139.8z"/>
<path class="st0" d="M442,147.2c0.9,0,1.8,0.4,2.4,1.1c-0.1,1.7-0.6,2.5-1.5,2.5c-0.4-0.1-0.8-0.3-1.1-0.6c-0.3-0.4-0.8-0.6-1.2-0.6
	c-0.6,0-1.2,0.3-1.5,0.9c-0.4,0.6-0.6,1.2-0.6,1.9l-0.2,3.7c-0.1,0.9,0,1.8,0.1,2.7c0,0.1,0.3,0.3,0.8,0.5c0.3,0.1,0.7,0.2,1,0.3
	c0.1,0,0.1,0.1,0.1,0.4c0,0.2,0,0.4,0,0.6l-1.6-0.2c-0.9-0.1-1.6-0.2-2-0.2s-1.1,0-2.1,0h-1.6c-0.1-0.2-0.1-0.4-0.1-0.6
	c0-0.3,0.1-0.4,0.1-0.4c0.4,0,0.7-0.1,1.1-0.2c0.5-0.1,0.8-0.3,0.8-0.4c0.2-0.7,0.3-1.4,0.3-2.2l0.2-4.8c0.1-0.7,0-1.3-0.4-1.9
	c-0.2-0.2-0.4-0.4-0.6-0.5c-0.2-0.1-0.5-0.2-0.7-0.2c-0.2,0-0.3-0.1-0.3-0.1c0-0.6,0.1-0.9,0.2-0.9c1.6-0.1,3.2-0.4,4.8-0.7h0.2
	c0.1,0,0.1,0.1,0.2,0.2c0,0.1,0.1,0.2,0.1,0.3l-0.1,0.4c0,0.2,0,0.4-0.1,0.6c0,0.1,0,0.3-0.1,0.4c0.4-0.6,0.9-1,1.5-1.4
	C440.7,147.4,441.3,147.2,442,147.2z"/>
<path class="st0" d="M453.1,147.7c0.9,0,1.7,0.2,2.5,0.7c0.7,0.4,1.2,0.9,1.7,1.5c0.4,0.6,0.7,1.2,0.9,1.8c0.2,0.6,0.3,1.2,0.2,1.8
	c0,0.4-0.1,0.7-0.3,0.8c-0.3,0.1-0.6,0.2-0.9,0.1L450,154c-0.1,0-0.2,0.1-0.2,0.2c0,0.7,0.1,1.4,0.3,2.1c0.2,0.7,0.7,1.3,1.2,1.8
	c0.6,0.5,1.4,0.8,2.2,0.8c0.3,0,0.6,0,0.9,0c0.3,0,0.5-0.1,0.8-0.1l0.6-0.2c0.2-0.1,0.4-0.1,0.6-0.2l0.4-0.2l0.6-0.4
	c0.1,0,0.1,0.1,0.1,0.2c0.1,0.1,0.1,0.2,0.1,0.3c0,0.2-0.1,0.4-0.2,0.6c-0.5,0.7-1.1,1.2-1.8,1.5c-0.9,0.5-2,0.7-3,0.7
	c-1.7-0.1-3.3-0.8-4.4-2.1c-1.2-1.3-1.8-3-1.7-4.7c0-1.8,0.7-3.5,2-4.8C449.7,148.2,451.4,147.6,453.1,147.7z M452.8,149.1
	c-0.5,0-0.9,0.1-1.3,0.4c-0.4,0.3-0.7,0.6-0.9,1c-0.2,0.3-0.4,0.7-0.5,1.1c-0.1,0.3-0.1,0.6-0.2,0.9c0,0.1,0.1,0.2,0.2,0.2l4.8,0.2
	c0.2,0,0.3-0.1,0.3-0.4c0-0.8-0.2-1.5-0.6-2.1C454.3,149.5,453.6,149,452.8,149.1L452.8,149.1z"/>
<path class="st0" d="M465.7,148.2c1.2,0.1,2.3,0.3,3.4,0.7c0.2,1.1,0.2,2.2,0.2,3.3c0,0.2-0.1,0.2-0.4,0.2c-0.4,0-0.7-0.1-0.7-0.3
	c-0.1-0.7-0.4-1.3-0.8-1.8c-0.4-0.5-1.1-0.8-1.8-0.8c-0.5,0-1,0.1-1.4,0.3c-0.3,0.3-0.5,0.7-0.5,1.1c0,0.3,0,0.5,0.1,0.8
	c0.1,0.3,0.3,0.5,0.5,0.7c0.2,0.2,0.4,0.3,0.6,0.5c0.2,0.1,0.5,0.3,0.8,0.5c0.1,0.1,0.2,0.1,0.3,0.2l0.4,0.3l0.5,0.3l0.5,0.3
	c0.2,0.1,0.3,0.2,0.5,0.4l0.4,0.4c0.2,0.1,0.3,0.3,0.4,0.4l0.3,0.5c0.1,0.2,0.2,0.4,0.3,0.6c0.1,0.2,0.1,0.4,0.1,0.6
	c0,0.2,0,0.4,0,0.6c0,1.2-0.6,2.2-1.6,2.9c-1,0.7-2.3,1-3.5,0.9c-1.3-0.1-2.6-0.4-3.8-1c-0.1-0.5-0.2-1.1-0.2-1.7
	c-0.1-0.6-0.1-1.1-0.1-1.7c0.1-0.1,0.3-0.1,0.4-0.1c0.5,0,0.7,0.1,0.7,0.3c0.1,0.8,0.5,1.5,1.1,2.1c0.5,0.5,1.3,0.8,2,0.9
	c0.5,0.1,1,0,1.4-0.3c0.4-0.3,0.6-0.7,0.6-1.2c0-0.2,0-0.4,0-0.6c-0.1-0.2-0.1-0.4-0.3-0.5l-0.3-0.4c-0.2-0.2-0.3-0.3-0.5-0.4
	l-0.6-0.4l-0.7-0.4l-0.7-0.4c-0.8-0.4-1.4-1-2-1.7c-1.1-1.5-0.8-3.7,0.8-4.8c0,0,0.1-0.1,0.1-0.1
	C463.3,148.5,464.5,148.1,465.7,148.2z"/>
<path class="st0" d="M477.5,148.7c1.2,0.1,2.3,0.3,3.4,0.7c0.2,1.1,0.2,2.2,0.2,3.3c0,0.2-0.1,0.2-0.4,0.2c-0.4,0-0.7-0.1-0.7-0.3
	c-0.1-0.7-0.4-1.3-0.8-1.8c-0.4-0.5-1.1-0.8-1.8-0.8c-0.5,0-1,0.1-1.4,0.3c-0.3,0.3-0.5,0.7-0.5,1.1c0,0.3,0,0.5,0.1,0.8
	c0.1,0.3,0.3,0.5,0.5,0.7c0.2,0.2,0.4,0.3,0.6,0.5c0.2,0.1,0.5,0.3,0.8,0.5c0.1,0.1,0.2,0.1,0.3,0.2l0.4,0.3l0.5,0.3l0.5,0.3
	c0.2,0.1,0.3,0.2,0.5,0.4l0.5,0.4c0.2,0.1,0.3,0.3,0.4,0.4l0.3,0.5c0.1,0.2,0.2,0.4,0.3,0.6c0.1,0.2,0.1,0.4,0.1,0.6
	c0,0.2,0,0.4,0,0.6c0,1.2-0.6,2.2-1.6,2.9c-1,0.7-2.3,1-3.5,0.9c-1.3-0.1-2.6-0.4-3.8-1c-0.1-0.5-0.2-1.1-0.2-1.7
	c-0.1-0.6-0.1-1.1-0.1-1.7c0.1-0.1,0.3-0.1,0.4-0.1c0.5,0,0.7,0.1,0.7,0.3c0.1,0.8,0.5,1.5,1.1,2.1c0.5,0.5,1.3,0.8,2,0.9
	c0.5,0,1-0.1,1.4-0.4c0.4-0.3,0.6-0.7,0.6-1.2c0-0.2,0-0.4,0-0.6c-0.1-0.2-0.1-0.4-0.3-0.5l-0.3-0.4c-0.2-0.2-0.3-0.3-0.5-0.4
	l-0.6-0.4l-0.7-0.4l-0.7-0.4c-0.8-0.4-1.4-1-2-1.7c-1.1-1.5-0.8-3.7,0.8-4.8c0,0,0.1-0.1,0.1-0.1C475.1,149,476.3,148.7,477.5,148.7
	z"/>
<path class="st0" d="M130.8,100.2c1-0.1,2,0.3,2.8,1c0.7,0.9,1,2.1,0.9,3.3v5.9c0,0.3,0.1,0.6,0.3,0.9c0.2,0.2,0.4,0.3,0.7,0.3
	c0.4,0,0.7-0.2,1-0.4c0.1,0,0.2,0.1,0.2,0.3c0,0.3,0,0.6-0.2,0.9c-0.4,0.3-0.8,0.5-1.2,0.7c-0.4,0.2-0.9,0.4-1.4,0.4
	c-0.5,0-1-0.2-1.3-0.5c-0.4-0.3-0.7-0.7-0.9-1.1l-0.2,0.2c-0.1,0.1-0.3,0.2-0.5,0.4c-0.2,0.2-0.5,0.3-0.8,0.5
	c-0.3,0.2-0.7,0.3-1,0.4c-0.4,0.1-0.8,0.2-1.2,0.2c-0.9,0-1.7-0.3-2.4-0.8c-0.6-0.6-1-1.4-0.9-2.2c0-0.5,0.1-0.9,0.3-1.3
	c0.2-0.4,0.5-0.7,0.8-1c0.4-0.3,0.8-0.6,1.3-0.8c0.4-0.2,0.9-0.4,1.4-0.6l1.5-0.5l1.3-0.4c0.2-0.1,0.3-0.3,0.3-0.5v-1.6
	c0-0.6-0.1-1.2-0.5-1.6c-0.3-0.4-0.8-0.6-1.3-0.6c-0.5,0-1,0.2-1.4,0.6c-0.4,0.4-0.5,1-0.5,1.6c0,0.4-0.2,0.7-0.4,0.9
	c-0.3,0.2-0.6,0.3-1,0.3c-0.6,0.1-1.2-0.2-1.6-0.7c0-1,0.7-1.8,1.9-2.7C127.9,100.6,129.3,100.2,130.8,100.2z M129.5,111.6
	c0.5,0,1-0.1,1.4-0.4c0.4-0.2,0.6-0.6,0.6-1v-3c-0.1,0.1-0.4,0.2-0.9,0.3c-0.4,0.1-0.8,0.3-1,0.4c-0.3,0.1-0.6,0.3-0.8,0.4
	c-0.3,0.1-0.5,0.4-0.7,0.7c-0.1,0.3-0.2,0.5-0.2,0.8c0,0.5,0.1,1,0.5,1.4C128.6,111.4,129,111.6,129.5,111.6z"/>
<path class="st0" d="M147.8,102.2h-1.8c-0.1,0-0.2-0.3-0.2-0.8c0-0.1,0-0.2,0-0.3c0.8-0.4,1.6-0.9,2.3-1.6l0.9-0.9
	c0.3-0.3,0.7-0.7,1.1-1.3c0.2,0,0.4,0,0.6,0.1c0.2,0,0.3,0.1,0.3,0.2v2.9h3.6c0.2,0,0.2,0.1,0.2,0.3c0,0.5-0.1,0.9-0.3,1.3h-3.6v7.2
	c0,0.6,0.1,1.3,0.5,1.8c0.3,0.4,0.9,0.6,1.4,0.6c0.2,0,0.4,0,0.6-0.1c0.2,0,0.4-0.1,0.5-0.2l0.4-0.2l0.2-0.1c0.1,0,0.2,0.1,0.3,0.3
	s0.1,0.3,0.1,0.4c-0.3,0.5-0.7,0.8-1.3,1c-0.7,0.3-1.4,0.5-2.1,0.6c-1,0-1.9-0.3-2.6-1c-0.8-0.8-1.2-1.9-1.1-3.1L147.8,102.2z"/>
<path class="st0" d="M164.1,100.2c1.8,0,3.5,0.7,4.8,1.9c1.3,1.2,2,2.9,2,4.7c0,3.7-3,6.7-6.7,6.7s-6.7-3-6.7-6.7
	c0-1.8,0.7-3.5,1.9-4.7C160.6,100.8,162.3,100.1,164.1,100.2z M163.7,101.6c-0.9,0-1.8,0.5-2.2,1.3c-0.5,1-0.8,2.1-0.8,3.2
	c0,1.5,0.3,2.9,1,4.2c0.5,1.1,1.5,1.8,2.7,1.8c0.9,0,1.8-0.5,2.2-1.4c0.5-1,0.8-2.1,0.8-3.2c0-1-0.1-1.9-0.4-2.9
	c-0.2-0.8-0.7-1.6-1.2-2.2C165.2,101.9,164.5,101.5,163.7,101.6L163.7,101.6z"/>
<path class="st0" d="M192,102.4c0-0.2-0.1-0.4-0.2-0.6c-0.2-0.2-0.4-0.3-0.6-0.4c-0.2-0.1-0.5-0.1-0.7-0.2c-0.2,0-0.4,0-0.6,0h-0.1
	c-0.1,0-0.1-0.2-0.1-0.4s0-0.5,0.1-0.5c0.3,0,0.8,0,1.6,0.1c0.8,0.1,1.4,0.1,1.9,0.1c0.4,0,0.9,0,1.6-0.1s1.1-0.1,1.4-0.1
	c0,0.2,0.1,0.3,0.1,0.5c0,0.3,0,0.4-0.1,0.4c-0.4,0.1-0.8,0.2-1.2,0.4c-0.4,0.2-0.8,0.5-1,0.9l-4.5,10.5c-0.1,0.2-0.2,0.3-0.4,0.4
	c-0.2,0.1-0.4,0.2-0.6,0.2c-0.2,0-0.3-0.1-0.4-0.2l-3.6-8.2l-3.2,7.8c-0.1,0.2-0.2,0.3-0.3,0.4c-0.2,0.2-0.4,0.2-0.6,0.2
	c-0.2,0-0.3-0.1-0.4-0.2c-0.5-1-1-2.3-1.6-3.8c-0.6-1.5-1.2-2.8-1.7-3.9c-0.5-1.1-1.1-2.4-1.8-3.7c-0.2-0.3-0.4-0.5-0.8-0.6
	c-0.3-0.1-0.7-0.2-1-0.2c-0.1,0-0.1-0.2-0.1-0.5c0-0.3,0-0.5,0.1-0.5c0.2,0,0.7,0,1.5,0.1c0.8,0.1,1.4,0.1,1.9,0.1
	c0.5,0,1.1,0,2-0.1l1.6-0.1c0.1,0.2,0.1,0.4,0.1,0.5c0,0.3,0,0.4-0.1,0.4c-0.3,0-0.7,0.1-1,0.2c-0.4,0.1-0.6,0.3-0.6,0.6
	c0,0.4,1,2.3,3,6.8c0.2-0.6,0.5-1.2,0.8-1.9l0.6-1.6l0.4-1.1c0.1-0.4,0.2-0.7,0.3-0.8c0-0.1,0.1-0.2,0.1-0.4c0-0.4-0.1-0.8-0.4-1.2
	c-0.2-0.2-0.4-0.4-0.6-0.5c-0.3-0.1-0.7-0.2-1.1-0.2c-0.1,0-0.1-0.1-0.1-0.4s0-0.5,0.1-0.5s0.7,0,1.5,0.1s1.4,0.1,1.9,0.1
	s1.1,0,1.9-0.1l1.5-0.1c0,0.2,0,0.4,0,0.6c0,0.3,0,0.4-0.1,0.4c-1,0-1.5,0.3-1.5,1c0.8,2.3,1.7,4.5,2.8,6.6c0.3-0.8,0.7-1.8,1.2-2.9
	c0.5-1.1,0.8-2,1-2.5C191.8,103.1,191.9,102.8,192,102.4z"/>
<path class="st0" d="M208.2,100.2c2.6,0,3.8,2,3.8,6.1v2.8c0,0.9,0,1.8,0.2,2.7c0,0.1,0.3,0.3,0.8,0.4c0.3,0.1,0.7,0.2,1,0.2
	c0.1,0,0.1,0.1,0.1,0.4c0,0.2,0,0.4,0,0.6c-0.1,0-0.6,0-1.6-0.1c-0.9-0.1-1.6-0.1-2.1-0.1c-0.5,0-1.1,0-2,0.1l-1.5,0.1
	c-0.1-0.2-0.1-0.4-0.1-0.6c0-0.3,0-0.4,0.1-0.4c0.3,0,0.7-0.1,1-0.2c0.4-0.2,0.7-0.3,0.7-0.4c0.2-0.7,0.3-1.4,0.2-2.2v-2.8
	c0.1-1.2-0.1-2.4-0.7-3.4c-0.5-0.7-1.3-1.1-2.1-1c-0.6,0-1.2,0.2-1.7,0.5c-0.4,0.2-0.7,0.6-0.7,1.1v5.1c0,0.9,0,1.8,0.2,2.7
	c0,0.1,0.3,0.3,0.8,0.4c0.3,0.1,0.7,0.2,1,0.2c0.1,0,0.1,0.1,0.1,0.4c0,0.2,0,0.4,0,0.6l-1.6-0.1c-0.9-0.1-1.5-0.1-2-0.1
	c-0.5,0-1.1,0-2.1,0.1l-1.6,0.1c-0.1-0.2-0.1-0.4-0.1-0.6c0-0.3,0-0.4,0.1-0.4c0.4,0,0.7-0.1,1.1-0.2c0.5-0.1,0.7-0.3,0.8-0.4
	c0.2-0.7,0.2-1.4,0.2-2.2v-4.8c0.1-0.7-0.1-1.3-0.5-1.9c-0.2-0.2-0.4-0.4-0.7-0.4c-0.2-0.1-0.5-0.1-0.7-0.2c-0.2,0-0.3,0-0.3-0.1
	c0-0.6,0.1-0.9,0.1-0.9c1.6-0.2,3.2-0.5,4.8-0.9h0.1h0.2c0.1,0,0.1,0.1,0.2,0.2c0.1,0.1,0.1,0.2,0.1,0.3c-0.1,0.4-0.1,0.7-0.1,1.1
	c0,0,0,0.1,0,0.2c0.1,0,0.1-0.1,0.1-0.1c0.5-0.5,1.2-0.9,1.8-1.2C206.7,100.4,207.4,100.2,208.2,100.2z"/>
<path class="st0" d="M230.6,100.2c1.8,0,3.5,0.7,4.8,1.9c1.3,1.2,2,2.9,2,4.7c0,3.7-3,6.7-6.7,6.7s-6.7-3-6.7-6.7
	c0-1.8,0.7-3.5,1.9-4.7C227.1,100.8,228.8,100.1,230.6,100.2z M230.2,101.6c-0.9,0-1.8,0.5-2.2,1.3c-0.5,1-0.8,2.1-0.8,3.2
	c0,1.5,0.3,2.9,1,4.2c0.5,1.1,1.5,1.8,2.7,1.8c0.9,0,1.8-0.5,2.2-1.4c0.5-1,0.8-2.1,0.8-3.2c0-1-0.1-1.9-0.4-2.9
	c-0.2-0.8-0.7-1.6-1.2-2.2C231.7,101.9,231,101.5,230.2,101.6z"/>
<path class="st0" d="M249.6,100.2c2.6,0,3.8,2,3.8,6.1v2.8c0,0.9,0,1.8,0.2,2.7c0,0.1,0.3,0.3,0.8,0.4c0.3,0.1,0.7,0.2,1,0.2
	c0.1,0,0.1,0.1,0.1,0.4c0,0.2,0,0.4,0,0.6c-0.1,0-0.6,0-1.6-0.1c-0.9-0.1-1.6-0.1-2.1-0.1c-0.5,0-1.1,0-2,0.1l-1.5,0.1
	c-0.1-0.2-0.1-0.4-0.1-0.6c0-0.3,0-0.4,0.1-0.4c0.3,0,0.7-0.1,1-0.2c0.4-0.2,0.7-0.3,0.7-0.4c0.2-0.7,0.3-1.4,0.2-2.2v-2.8
	c0.1-1.2-0.1-2.4-0.7-3.4c-0.5-0.7-1.3-1.1-2.1-1c-0.6,0-1.2,0.2-1.7,0.5c-0.4,0.2-0.7,0.6-0.7,1.1v5.1c0,0.9,0,1.8,0.2,2.7
	c0,0.1,0.3,0.3,0.8,0.4c0.3,0.1,0.7,0.2,1,0.2c0.1,0,0.1,0.1,0.1,0.4c0,0.2,0,0.4,0,0.6l-1.6-0.1c-0.9-0.1-1.5-0.1-2-0.1
	s-1.1,0-2.1,0.1l-1.6,0.1c-0.1-0.2-0.1-0.4-0.1-0.6c0-0.3,0-0.4,0.1-0.4c0.4,0,0.7-0.1,1.1-0.2c0.5-0.1,0.8-0.3,0.8-0.4
	c0.2-0.7,0.2-1.4,0.2-2.2v-4.8c0.1-0.7-0.1-1.3-0.5-1.9c-0.2-0.2-0.4-0.4-0.7-0.4c-0.2-0.1-0.5-0.1-0.7-0.2c-0.2,0-0.3,0-0.3-0.1
	c0-0.6,0.1-0.9,0.1-0.9c1.6-0.2,3.2-0.5,4.8-0.9h0.1h0.2c0.1,0,0.1,0.1,0.2,0.2c0.1,0.1,0.1,0.2,0.1,0.3c-0.1,0.4-0.1,0.7-0.1,1.1
	c0,0,0,0.1,0,0.2c0.1,0,0.1-0.1,0.1-0.1c0.5-0.5,1.2-0.9,1.8-1.2C248.1,100.4,248.8,100.2,249.6,100.2z"/>
<path class="st0" d="M267,102.2h-1.8c-0.1,0-0.2-0.3-0.2-0.8c0-0.1,0-0.2,0-0.3c0.8-0.4,1.6-0.9,2.3-1.6l0.9-0.9
	c0.3-0.3,0.7-0.7,1.1-1.3c0.2,0,0.4,0,0.6,0.1c0.2,0,0.3,0.1,0.3,0.2v2.9h3.6c0.2,0,0.2,0.1,0.2,0.3c0,0.5-0.1,0.9-0.3,1.3H270v7.2
	c0,0.6,0.1,1.3,0.5,1.8c0.3,0.4,0.9,0.6,1.4,0.6c0.2,0,0.4,0,0.6-0.1c0.2,0,0.4-0.1,0.5-0.2l0.4-0.2l0.2-0.1c0.1,0,0.2,0.1,0.3,0.3
	s0.1,0.3,0.1,0.4c-0.3,0.5-0.7,0.8-1.3,1c-0.7,0.3-1.4,0.5-2.1,0.6c-1,0-1.9-0.3-2.6-1c-0.8-0.8-1.2-1.9-1.1-3.1L267,102.2z"/>
<path class="st0" d="M286.3,100.2c2.5,0,3.8,2,3.8,5.9v3.1c0,0.9,0,1.8,0.2,2.7c0,0.1,0.3,0.3,0.8,0.4c0.3,0.1,0.7,0.2,1,0.2
	c0.1,0,0.1,0.1,0.1,0.4c0,0.2,0,0.4,0,0.6l-1.6-0.1c-0.9-0.1-1.6-0.1-2-0.1s-1.1,0-2,0.1l-1.6,0.1c-0.1-0.2-0.1-0.4-0.1-0.6
	c0-0.3,0-0.4,0.1-0.4c0.3,0,0.7-0.1,1-0.2c0.4-0.1,0.7-0.3,0.8-0.4c0.1-0.7,0.2-1.4,0.2-2.2v-2.9c0.1-1.2-0.1-2.4-0.7-3.4
	c-0.5-0.7-1.3-1-2.1-0.9c-0.6,0-1.2,0.2-1.6,0.5c-0.4,0.2-0.7,0.7-0.7,1.1v5.1c0,0.9,0,1.8,0.2,2.7c0,0.1,0.3,0.3,0.8,0.4
	c0.3,0.1,0.7,0.2,1,0.2c0.1,0,0.1,0.1,0.1,0.4c0,0.2,0,0.4,0,0.6l-1.6-0.1c-0.9-0.1-1.5-0.1-2-0.1c-0.5,0-1.1,0-2.1,0.1l-1.6,0.1
	c-0.1-0.2-0.1-0.4-0.1-0.6c0-0.3,0-0.4,0.1-0.4c0.4,0,0.7-0.1,1.1-0.2c0.5-0.1,0.8-0.3,0.8-0.4c0.1-0.7,0.2-1.4,0.2-2.1V97.2
	c0-0.7,0-1.3-0.1-2c-0.1-0.3-0.6-0.5-1.5-0.5h-0.3c-0.1,0-0.2-0.2-0.2-0.5c0-0.3,0.1-0.5,0.2-0.5c0.6-0.1,1.2-0.1,1.8-0.2
	c0.6-0.1,1-0.2,1.4-0.3c0.4-0.1,0.7-0.2,1-0.3l0.9-0.3h0.1c0.1,0,0.2,0.1,0.2,0.2c0.1,0.1,0.1,0.2,0.1,0.3c-0.3,0.9-0.4,1.8-0.4,2.8
	v6c0,0.1,0,0.2,0.1,0.2s0.1,0,0.1-0.1c0.5-0.5,1.1-1,1.8-1.3C284.7,100.4,285.5,100.2,286.3,100.2z"/>
<path class="st0" d="M300.8,100.2c0.9,0,1.7,0.2,2.5,0.6c0.7,0.3,1.3,0.8,1.7,1.4c0.4,0.5,0.8,1.1,1,1.8c0.2,0.6,0.3,1.1,0.3,1.7
	c0,0.4-0.1,0.7-0.2,0.8c-0.3,0.1-0.6,0.2-0.9,0.2H298c-0.1,0-0.2,0.1-0.2,0.2c0,0.7,0.1,1.4,0.4,2.1c0.3,0.7,0.7,1.3,1.3,1.8
	c0.6,0.5,1.4,0.8,2.2,0.7c0.3,0,0.6,0,0.9,0c0.3,0,0.5-0.1,0.8-0.2l0.6-0.2c0.2-0.1,0.4-0.2,0.5-0.3l0.4-0.2l0.6-0.4
	c0.1,0,0.1,0.1,0.1,0.2c0.1,0.1,0.1,0.2,0.1,0.3c0,0.2-0.1,0.4-0.2,0.6c-0.4,0.7-1,1.2-1.8,1.6c-0.9,0.5-1.9,0.8-2.9,0.8
	c-1.7,0-3.3-0.7-4.5-1.9c-1.2-1.2-1.9-2.9-1.9-4.7c-0.1-1.8,0.5-3.5,1.7-4.9C297.5,100.8,299.1,100.1,300.8,100.2z M300.6,101.5
	c-0.5,0-0.9,0.1-1.3,0.4c-0.4,0.3-0.7,0.6-0.9,1c-0.2,0.4-0.3,0.7-0.4,1.1c-0.1,0.3-0.1,0.6-0.1,0.9c0,0.1,0.1,0.2,0.2,0.2h4.8
	c0.2,0,0.3-0.2,0.3-0.4c0-0.8-0.3-1.5-0.7-2.1C302.1,101.9,301.3,101.5,300.6,101.5z"/>
<path class="st0" d="M321.4,93.7c1.3,0,2.4,0.1,3.3,0.1c0.9,0,2,0,3.3-0.1l3.2-0.1c0.7,0,1.4-0.1,2-0.3l0.6,4.6
	c-0.2,0.2-0.5,0.2-0.8,0.2c-0.2,0-0.3,0-0.3-0.2c-0.1-0.8-0.5-1.6-1.1-2.2c-0.6-0.4-1.4-0.6-2.1-0.6c-1.8,0-2.8,0.2-2.9,0.5
	c-0.2,0.9-0.3,1.9-0.3,2.8v10.7c0,0.9,0.1,1.7,0.3,2.6c0,0.1,0.3,0.3,0.8,0.4c0.3,0.1,0.7,0.2,1,0.2c0.1,0,0.1,0.2,0.1,0.5
	c0,0.2,0,0.3-0.1,0.5l-1.1-0.1l-1.4-0.1h-1.2c-0.5,0-1.3,0-2.2,0.1l-1.7,0.1c-0.1-0.1-0.1-0.3-0.1-0.5c0-0.4,0-0.5,0.1-0.5
	c0.4,0,0.8-0.1,1.1-0.2c0.5-0.1,0.8-0.3,0.9-0.4c0.2-0.8,0.3-1.6,0.2-2.5V98.5c0.1-1,0-1.9-0.3-2.9c-0.2-0.3-1.1-0.5-2.8-0.5
	c-0.8-0.1-1.5,0.1-2.1,0.6c-0.6,0.6-1,1.4-1.1,2.2c0,0.1-0.1,0.2-0.3,0.2c-0.3,0-0.6-0.1-0.8-0.2l0.6-4.5c0.7,0.2,1.4,0.3,2,0.3
	L321.4,93.7z"/>
<path class="st0" d="M342.4,100.2c0.9,0,1.7,0.2,2.5,0.6c0.7,0.3,1.3,0.8,1.7,1.4c0.4,0.5,0.8,1.1,1,1.8c0.2,0.6,0.3,1.1,0.3,1.7
	c0,0.4-0.1,0.7-0.2,0.8c-0.3,0.1-0.6,0.2-0.9,0.2h-7.1c-0.1,0-0.2,0.1-0.2,0.2c0,0.7,0.1,1.4,0.4,2.1c0.3,0.7,0.7,1.3,1.3,1.8
	c0.6,0.5,1.4,0.8,2.2,0.7c0.3,0,0.6,0,0.9,0c0.3,0,0.5-0.1,0.8-0.2l0.6-0.2c0.2-0.1,0.4-0.2,0.5-0.3l0.4-0.2l0.6-0.4
	c0.1,0,0.1,0.1,0.1,0.2c0.1,0.1,0.1,0.2,0.1,0.3c0,0.2-0.1,0.4-0.2,0.6c-0.4,0.7-1,1.2-1.8,1.6c-0.9,0.5-1.9,0.8-2.9,0.8
	c-1.7,0-3.3-0.7-4.5-1.9c-1.2-1.2-1.9-2.9-1.9-4.7c-0.1-1.8,0.5-3.6,1.7-4.9C339.1,100.8,340.8,100.1,342.4,100.2z M342.2,101.5
	c-0.5,0-0.9,0.1-1.3,0.4c-0.4,0.3-0.7,0.6-0.9,1c-0.2,0.4-0.3,0.7-0.4,1.1c-0.1,0.3-0.1,0.6-0.1,0.9c0,0.1,0.1,0.2,0.2,0.2h4.8
	c0.2,0,0.3-0.2,0.3-0.4c0-0.8-0.3-1.5-0.7-2.1C343.7,101.9,343,101.5,342.2,101.5z"/>
<path class="st0" d="M350.4,100.8c0-0.2,0-0.3,0.1-0.5l3.5,0.2l3.6-0.2c0,0.1,0.1,0.3,0.1,0.4c0,0.4,0,0.5-0.1,0.5
	c-0.3,0-0.6,0.1-0.8,0.2c-0.3,0.1-0.4,0.3-0.4,0.5c0,0.1,0.1,0.3,0.1,0.4l1.9,2.7l0.8-1.1c0.4-0.5,0.7-1,0.9-1.2
	c0.1-0.2,0.2-0.4,0.3-0.7c0-0.2-0.1-0.3-0.2-0.3c-0.2-0.1-0.4-0.1-0.5-0.2h-0.6c-0.1,0-0.2,0-0.3,0c-0.1,0-0.1-0.2-0.1-0.5
	c0-0.2,0-0.3,0.1-0.5l3.5,0.2l3.1-0.2c0,0.2,0.1,0.3,0.1,0.5c0,0.3,0,0.5-0.1,0.5c-1,0-1.9,0.4-2.6,1l-3.1,3.7
	c0,0.1-0.1,0.2-0.1,0.2c0,0.1,0,0.2,0.1,0.3l3.4,4.4c0.6,0.8,1.5,1.4,2.5,1.5c0.1,0,0.1,0.2,0.1,0.5c0,0.2,0,0.3-0.1,0.4l-1.1-0.1
	l-1.2-0.1c-0.4,0-0.7,0-1.1,0s-0.8,0-1.2,0l-1.3,0.1l-1.2,0.1c0-0.1-0.1-0.3-0.1-0.4c0-0.4,0-0.6,0.1-0.6c0.3,0,0.6-0.1,0.9-0.2
	c0.3-0.1,0.5-0.3,0.5-0.5c0-0.1,0-0.1-0.1-0.2l-2.1-3l-1.9,2.6c-0.1,0.2-0.2,0.3-0.2,0.5c0,0.1,0,0.2,0.1,0.3
	c0.1,0.1,0.2,0.2,0.3,0.2l0.4,0.1l0.5,0.1h0.4c0.1,0,0.1,0.2,0.1,0.5c0,0.2,0,0.4-0.1,0.5l-1.1-0.1l-1.1-0.1c-0.3,0-0.7,0-1.1,0
	c-0.4,0-0.7,0-1.1,0l-1.1,0.1l-1.1,0.1c0-0.2-0.1-0.3-0.1-0.5c0-0.3,0-0.5,0.1-0.5c1,0,1.9-0.5,2.6-1.1l3.2-3.9
	c0-0.1,0.1-0.2,0.1-0.2c0-0.1,0-0.2-0.1-0.2l-3.4-4.6c-0.3-0.3-0.6-0.6-1-0.8c-0.4-0.2-0.8-0.3-1.2-0.3
	C350.4,101.2,350.4,101.1,350.4,100.8z"/>
<path class="st0" d="M374.2,100.2c1-0.1,2,0.3,2.8,1c0.7,0.9,1,2.1,0.9,3.3v5.9c0,0.3,0.1,0.6,0.3,0.9c0.2,0.2,0.4,0.3,0.7,0.3
	c0.4,0,0.7-0.2,1-0.4c0.1,0,0.2,0.1,0.2,0.3c0,0.3,0,0.6-0.2,0.9c-0.4,0.3-0.8,0.5-1.2,0.7c-0.4,0.2-0.9,0.4-1.4,0.4
	c-0.5,0-1-0.2-1.3-0.5c-0.4-0.3-0.7-0.7-0.9-1.1l-0.2,0.2c-0.1,0.1-0.3,0.2-0.5,0.4c-0.2,0.2-0.5,0.3-0.8,0.5
	c-0.3,0.2-0.7,0.3-1,0.4c-0.4,0.1-0.8,0.2-1.2,0.2c-0.9,0-1.7-0.3-2.4-0.8c-0.6-0.6-1-1.4-0.9-2.2c0-0.5,0.1-0.9,0.3-1.3
	c0.2-0.4,0.5-0.7,0.8-1c0.4-0.3,0.8-0.6,1.3-0.8c0.4-0.2,0.9-0.4,1.4-0.6l1.5-0.5l1.3-0.4c0.2-0.1,0.3-0.3,0.3-0.5v-1.6
	c0-0.6-0.1-1.2-0.5-1.6c-0.3-0.4-0.8-0.6-1.3-0.6c-0.5,0-1,0.2-1.4,0.6c-0.4,0.4-0.5,1-0.5,1.6c0,0.4-0.2,0.7-0.5,0.9
	c-0.3,0.2-0.6,0.3-1,0.3c-0.6,0.1-1.2-0.2-1.5-0.7c0-1,0.7-1.8,2-2.7C371.3,100.6,372.7,100.2,374.2,100.2z M372.9,111.6
	c0.5,0,1-0.1,1.4-0.4c0.4-0.2,0.6-0.6,0.6-1v-3c-0.1,0.1-0.4,0.2-0.9,0.3c-0.4,0.1-0.8,0.3-1,0.4c-0.3,0.1-0.6,0.3-0.8,0.4
	c-0.3,0.1-0.5,0.4-0.7,0.7c-0.1,0.3-0.2,0.5-0.2,0.8c0,0.5,0.1,1,0.5,1.4C372,111.4,372.4,111.6,372.9,111.6L372.9,111.6z"/>
<path class="st0" d="M387.1,100.1c1.2,0,2.3,0.2,3.5,0.5c0.2,1.1,0.3,2.2,0.3,3.3c0,0.2-0.1,0.2-0.4,0.2c-0.4,0-0.7-0.1-0.7-0.2
	c-0.1-0.7-0.4-1.3-0.9-1.8c-0.5-0.5-1.1-0.8-1.8-0.7c-0.5,0-1,0.1-1.4,0.4c-0.3,0.3-0.5,0.7-0.5,1.1c0,0.3,0,0.5,0.2,0.8
	c0.1,0.3,0.3,0.5,0.5,0.6c0.2,0.2,0.4,0.3,0.6,0.5c0.2,0.1,0.5,0.3,0.9,0.5c0.1,0.1,0.2,0.1,0.3,0.2l0.5,0.2l0.5,0.3l0.5,0.3
	c0.2,0.1,0.4,0.2,0.5,0.3l0.5,0.4c0.2,0.1,0.3,0.3,0.5,0.4l0.4,0.5c0.1,0.2,0.2,0.3,0.3,0.5c0.1,0.2,0.1,0.4,0.2,0.6
	c0,0.2,0.1,0.4,0.1,0.6c0.1,1.2-0.5,2.3-1.4,3c-1,0.7-2.2,1.1-3.5,1.1c-1.3,0-2.6-0.3-3.8-0.8c-0.1-0.5-0.2-1.1-0.3-1.7
	c-0.1-0.6-0.1-1.1-0.1-1.7c0.1-0.1,0.3-0.2,0.4-0.2c0.5,0,0.7,0.1,0.7,0.2c0.1,0.8,0.5,1.5,1.2,2c0.6,0.5,1.3,0.7,2,0.8
	c0.5,0,1-0.1,1.4-0.4c0.4-0.3,0.6-0.7,0.5-1.2c0-0.2,0-0.4-0.1-0.6c-0.1-0.2-0.2-0.4-0.3-0.5l-0.3-0.4c-0.2-0.2-0.3-0.3-0.5-0.4
	l-0.6-0.3L386,108l-0.8-0.4c-0.8-0.4-1.5-0.9-2.1-1.6c-1.2-1.5-0.9-3.6,0.5-4.8c0,0,0.1-0.1,0.1-0.1
	C384.8,100.4,386,100.1,387.1,100.1z"/>
<path class="st0" d="M396,107.2c0-0.3,0-0.7,0.1-1c0.1-0.5,0.2-0.7,0.3-0.7H409c0.1,0,0.2,0.1,0.2,0.3c0,0.5-0.1,1-0.3,1.6
	c0,0,0,0.1-0.1,0.1c0,0-0.1,0-0.1,0l0,0h-12.6l-0.1-0.1C396,107.3,396,107.2,396,107.2z"/>
<path class="st0" d="M416.2,93.8l2.9-0.2c0.2,0.6,0.6,1.6,1.2,3.1c0.6,1.5,1.4,3.3,2.3,5.5c0.9,2.2,1.7,3.9,2.2,5.3
	c0.8,2.1,0,0.1,0.1,0.1c0,0,0.1,0,0.1-0.1c0,0,0,0,0,0c1.7-4.2,3.1-7.6,4.2-10.3l1.1-3.4c0.6,0.1,1.4,0.1,2.4,0.1
	c0.8,0,2-0.1,3.5-0.2c0.1,0.1,0.1,0.3,0.1,0.5c0,0.3,0,0.5-0.1,0.5h-0.1c-0.5,0-1,0.2-1.5,0.5c-0.3,0.2-0.4,0.8-0.4,1.6
	c0.1,1.8,0.2,5.9,0.4,12.3c0,0.9,0.2,1.9,0.5,2.7c0.1,0.2,0.4,0.3,0.8,0.5c0.3,0.1,0.7,0.2,1,0.2c0.1,0,0.1,0.2,0.1,0.5
	c0,0.2,0,0.3-0.1,0.4l-3.7-0.2h-1.2l-1.4,0.1l-1.3,0.1c-0.1-0.1-0.1-0.3-0.1-0.4c0-0.4,0-0.5,0.1-0.5c0.3,0,0.7-0.1,1-0.2
	c0.3-0.1,0.6-0.2,0.8-0.4c0.2-0.3,0.3-0.6,0.3-1v-1.7l-0.3-9c-0.1-1.2-0.2-1.8-0.4-1.8c-0.1,0-0.1,0.1-0.1,0.2l-5.7,13.8
	c-0.3,0.8-0.7,1.1-1.1,1.1c-0.1,0-0.2,0-0.3-0.1l-6.7-16c-0.1,4.9-0.3,9.4-0.5,13.3c0,0.3,0,0.6,0.1,0.9c0.1,0.2,0.5,0.4,1.2,0.6
	c0.5,0.2,0.9,0.3,1.4,0.3c0.1,0,0.1,0.2,0.1,0.5c0,0.2,0,0.3-0.1,0.4l-3.8-0.2c-0.5,0-1.2,0-2.1,0.1c-0.9,0.1-1.4,0.1-1.6,0.1
	c-0.1-0.1-0.1-0.3-0.1-0.5c0-0.3,0-0.5,0.1-0.5c0.5,0,1-0.1,1.5-0.3c0.7-0.2,1.1-0.5,1.2-0.8c0.2-0.6,0.3-1.3,0.3-2
	c0-1.5,0.1-3.3,0.2-5.3s0.1-3.8,0.2-5.2c0-1.4,0.1-2.3,0.1-2.7c0-0.3,0-0.6-0.1-0.8c-0.1-0.2-0.4-0.3-1-0.4
	c-0.4-0.1-0.9-0.2-1.3-0.2c-0.1,0-0.1-0.2-0.1-0.5c0-0.2,0-0.3,0.1-0.4l1.5,0.1C415,93.8,415.6,93.8,416.2,93.8z"/>
<path class="st0" d="M445.8,100.2c0.9,0,1.7,0.2,2.5,0.6c0.7,0.3,1.3,0.8,1.7,1.4c0.4,0.5,0.8,1.1,1,1.8c0.2,0.6,0.3,1.1,0.3,1.7
	c0,0.4-0.1,0.7-0.2,0.8c-0.3,0.1-0.6,0.2-0.9,0.2h-7.1c-0.1,0-0.2,0.1-0.2,0.2c0,0.7,0.1,1.4,0.4,2.1c0.3,0.7,0.7,1.3,1.3,1.8
	c0.6,0.5,1.4,0.8,2.2,0.7c0.3,0,0.6,0,0.9,0c0.3,0,0.5-0.1,0.8-0.2l0.6-0.2c0.2-0.1,0.4-0.2,0.5-0.3l0.4-0.2l0.6-0.4
	c0.1,0,0.1,0.1,0.1,0.2c0.1,0.1,0.1,0.2,0.1,0.3c0,0.2-0.1,0.4-0.2,0.6c-0.4,0.7-1,1.2-1.8,1.6c-0.9,0.5-1.9,0.8-2.9,0.8
	c-1.7,0-3.3-0.7-4.5-1.9c-1.2-1.2-1.9-2.9-1.9-4.7c-0.1-1.8,0.5-3.6,1.7-4.9C442.5,100.8,444.1,100.1,445.8,100.2z M445.6,101.5
	c-0.5,0-0.9,0.1-1.3,0.4c-0.4,0.3-0.7,0.6-0.9,1c-0.2,0.4-0.3,0.7-0.4,1.1c-0.1,0.3-0.1,0.6-0.1,0.9c0,0.1,0.1,0.2,0.2,0.2h4.8
	c0.2,0,0.3-0.2,0.3-0.4c0-0.8-0.3-1.5-0.7-2.1C447.1,101.9,446.4,101.5,445.6,101.5L445.6,101.5z"/>
<path class="st0" d="M453.8,100.8c0-0.2,0-0.3,0.1-0.5l3.5,0.2l3.6-0.2c0,0.1,0.1,0.3,0.1,0.4c0,0.4,0,0.5-0.1,0.5
	c-0.3,0-0.6,0.1-0.8,0.2c-0.3,0.1-0.4,0.3-0.4,0.5c0,0.1,0.1,0.3,0.1,0.4l1.9,2.7l0.8-1.1c0.4-0.5,0.7-1,0.9-1.2
	c0.1-0.2,0.2-0.4,0.3-0.7c0-0.2-0.1-0.3-0.2-0.3c-0.2-0.1-0.4-0.1-0.5-0.2h-0.6c-0.1,0-0.2,0-0.3,0c-0.1,0-0.1-0.2-0.1-0.5
	c0-0.2,0-0.3,0.1-0.5l3.5,0.2l3.1-0.2c0,0.2,0.1,0.3,0.1,0.5c0,0.3,0,0.5-0.1,0.5c-1,0-1.9,0.4-2.6,1l-3.1,3.7
	c0,0.1-0.1,0.2-0.1,0.2c0,0.1,0,0.2,0.1,0.3l3.4,4.6c0.6,0.8,1.5,1.4,2.5,1.5c0.1,0,0.1,0.2,0.1,0.5c0,0.2,0,0.3-0.1,0.4l-1.1-0.1
	l-1.2-0.1c-0.4,0-0.7,0-1.1,0s-0.8,0-1.2,0l-1.3,0.1l-1.2,0.1c0-0.1-0.1-0.3-0.1-0.4c0-0.4,0-0.6,0.1-0.6c0.3,0,0.6-0.1,0.9-0.2
	c0.3-0.1,0.5-0.3,0.5-0.5c0-0.1,0-0.1-0.1-0.2l-2.1-3l-1.9,2.6c-0.1,0.2-0.2,0.3-0.2,0.5c0,0.1,0,0.2,0.1,0.3
	c0.1,0.1,0.2,0.2,0.3,0.2l0.4,0.1l0.5,0.1h0.4c0.1,0,0.1,0.2,0.1,0.5c0,0.2,0,0.4-0.1,0.5l-1.1-0.1l-1.1-0.1c-0.3,0-0.7,0-1.1,0
	c-0.4,0-0.7,0-1.1,0l-1.1,0.1l-1.1,0.1c0-0.2-0.1-0.3-0.1-0.5c0-0.3,0-0.5,0.1-0.5c1,0,1.9-0.5,2.6-1.1l3.2-3.9
	c0-0.1,0.1-0.2,0.1-0.2c0-0.1,0-0.2-0.1-0.2l-3.4-4.6c-0.3-0.3-0.6-0.6-1-0.8c-0.4-0.2-0.8-0.3-1.2-0.3
	C453.8,101.2,453.8,101.1,453.8,100.8z"/>
<path class="st0" d="M476.6,109.1c0,0.9,0.1,1.8,0.2,2.7c0,0.1,0.3,0.3,0.8,0.4c0.3,0.1,0.7,0.2,1,0.2c0.1,0,0.1,0.1,0.1,0.4
	c0,0.2,0,0.4,0,0.6l-1.6-0.1c-0.9-0.1-1.6-0.1-2-0.1s-1.1,0-2.1,0.1l-1.6,0.1c-0.1-0.2-0.1-0.4-0.1-0.6c0-0.3,0-0.4,0.1-0.4
	c0.4,0,0.7-0.1,1.1-0.2c0.5-0.1,0.8-0.3,0.8-0.4c0.2-0.7,0.2-1.4,0.2-2.2v-4.8c0.1-0.7-0.1-1.3-0.5-1.9c-0.2-0.2-0.4-0.4-0.7-0.4
	c-0.2-0.1-0.5-0.1-0.7-0.2c-0.2,0-0.3,0-0.3-0.1c0-0.6,0.1-0.9,0.2-0.9c1.6-0.2,3.2-0.5,4.8-0.9l0.2-0.1c0.1,0,0.2,0.1,0.2,0.2
	c0.1,0.1,0.1,0.2,0.1,0.3c-0.1,0.8-0.2,1.7-0.2,2.6L476.6,109.1z M473.5,96.6c-0.4-0.3-0.5-0.8-0.5-1.3c0-0.5,0.2-1,0.5-1.3
	c0.7-0.7,1.9-0.7,2.6,0c0.4,0.3,0.5,0.8,0.5,1.3c0,0.5-0.2,1-0.5,1.3C475.4,97.4,474.3,97.4,473.5,96.6
	C473.6,96.7,473.5,96.6,473.5,96.6L473.5,96.6z"/>
<path class="st0" d="M487.6,100.2c1,0,1.9,0.2,2.8,0.5c0.7,0.2,1.3,0.6,1.8,1.1c0,0.6-0.1,1.2-0.3,1.7c-0.2,0.4-0.6,0.7-1,0.7
	c-0.3,0-0.7-0.1-0.9-0.3c-0.3-0.3-0.5-0.6-0.7-1c-0.3-0.8-1.1-1.4-2-1.4c-0.9,0-1.6,0.5-2,1.3c-0.5,1-0.8,2.1-0.8,3.3
	c-0.1,1.4,0.3,2.8,1.1,4c0.7,0.8,1.7,1.3,2.8,1.3c0.3,0,0.6,0,0.9,0c0.3,0,0.5-0.1,0.8-0.2l0.6-0.2c0.2-0.1,0.4-0.2,0.5-0.3l0.4-0.2
	l0.6-0.4c0.1,0,0.1,0.1,0.1,0.2c0.1,0.1,0.1,0.2,0.1,0.3c0,0.2-0.1,0.4-0.2,0.6c-0.4,0.7-1,1.2-1.8,1.6c-0.9,0.5-1.9,0.8-2.9,0.8
	c-1.7,0-3.3-0.7-4.5-1.9c-1.2-1.3-1.9-3-1.9-4.7c0-1.7,0.6-3.4,1.8-4.7C484.1,100.8,485.8,100.1,487.6,100.2z"/>
<path class="st0" d="M501.7,100.2c1.8,0,3.5,0.7,4.8,1.9c1.3,1.2,2,2.9,2,4.7c0,3.7-3,6.7-6.7,6.7c-3.7,0-6.7-3-6.7-6.7
	c0-1.8,0.7-3.5,2-4.7C498.2,100.8,500,100.1,501.7,100.2z M501.3,101.6c-0.9,0-1.8,0.5-2.2,1.3c-0.5,1-0.8,2.1-0.8,3.2
	c0,1.5,0.3,2.9,1,4.2c0.5,1.1,1.5,1.8,2.7,1.8c0.9,0,1.8-0.5,2.2-1.4c0.5-1,0.8-2.1,0.8-3.2c0-1-0.1-1.9-0.4-2.9
	c-0.2-0.8-0.7-1.6-1.2-2.2C502.9,101.9,502.1,101.5,501.3,101.6L501.3,101.6z"/>
<path class="st0" d="M525.7,100.2c1.2,0,2.3,0.3,3.3,0.9c0.9,0.6,1.7,1.4,2.2,2.4c0.5,0.9,0.8,2,0.8,3c0,1.9-0.7,3.7-2.1,5
	c-1.2,1.3-3,2.1-4.8,2.1c-0.7,0-1.5-0.1-2.2-0.2c-0.5-0.1-0.9-0.2-1.4-0.2c-0.3,0-0.5,0.1-0.8,0.2c-0.2,0.1-0.4,0.2-0.6,0.2
	c-0.2,0-0.3-0.1-0.4-0.2c-0.2-0.1-0.3-0.2-0.3-0.3s0-0.2,0.1-0.5s0.1-0.7,0.2-1.3c0.1-0.6,0.1-1.2,0.1-1.8V97.2c0-0.7-0.1-1.3-0.2-2
	c-0.1-0.3-0.6-0.5-1.5-0.5h-0.3c-0.1,0-0.2-0.2-0.2-0.5c0-0.3,0.1-0.5,0.2-0.5c0.6-0.1,1.2-0.1,1.8-0.2c0.6-0.1,1-0.2,1.4-0.3
	c0.4-0.1,0.7-0.2,1-0.3l0.8-0.3h0.1c0.1,0,0.2,0.1,0.2,0.2c0.1,0.1,0.1,0.2,0.2,0.3c-0.2,0.9-0.3,1.8-0.3,2.8v4.9c0,0,0,0.1,0,0.1
	c0,0.1,0,0.1,0.1,0.1h0.1c0.4-0.2,0.8-0.4,1.2-0.6C524.7,100.3,525.2,100.2,525.7,100.2z M525.1,101.8c-0.6,0-1.2,0.2-1.6,0.6
	c-0.4,0.3-0.6,0.8-0.6,1.3v6.3c0,0.6,0.3,1.2,0.8,1.6c0.6,0.4,1.2,0.6,1.9,0.5c1,0,1.9-0.5,2.3-1.4c0.6-1,0.8-2.2,0.8-3.4
	c0.1-1.4-0.3-2.8-0.9-4C527.2,102.4,526.2,101.7,525.1,101.8z"/>
<path class="st0" d="M541.4,100.2c1.8,0,3.5,0.7,4.8,1.9c1.3,1.2,2,2.9,2,4.7c0,3.7-3,6.7-6.7,6.7s-6.7-3-6.7-6.7
	c0-1.8,0.7-3.5,2-4.7C537.9,100.8,539.6,100.1,541.4,100.2z M541,101.6c-0.9,0-1.8,0.5-2.2,1.3c-0.5,1-0.8,2.1-0.8,3.2
	c0,1.5,0.3,2.9,1,4.2c0.5,1.1,1.5,1.8,2.7,1.8c0.9,0,1.8-0.5,2.2-1.4c0.5-1,0.8-2.1,0.8-3.2c0-1-0.1-1.9-0.4-2.9
	c-0.2-0.8-0.7-1.6-1.2-2.2C542.5,101.9,541.8,101.5,541,101.6L541,101.6z"/>
<path class="st0" d="M559.3,100.2c0.9-0.1,1.8,0.3,2.4,1c0,1.7-0.5,2.5-1.4,2.5c-0.4,0-0.9-0.3-1.2-0.6c-0.3-0.4-0.8-0.6-1.3-0.6
	c-0.6,0-1.2,0.4-1.4,0.9c-0.3,0.6-0.5,1.3-0.5,1.9v3.7c0,0.9,0,1.8,0.2,2.7c0,0.1,0.3,0.3,0.8,0.4c0.3,0.1,0.7,0.2,1,0.2
	c0.1,0,0.1,0.1,0.1,0.4c0,0.2,0,0.4,0,0.6l-1.6-0.1c-0.9-0.1-1.6-0.1-2-0.1s-1.1,0-2.1,0.1l-1.6,0.1c-0.1-0.2-0.1-0.4-0.1-0.6
	c0-0.3,0-0.4,0.1-0.4c0.4,0,0.7-0.1,1.1-0.2c0.5-0.1,0.8-0.3,0.8-0.4c0.2-0.7,0.2-1.4,0.2-2.2v-4.8c0.1-0.7-0.1-1.3-0.5-1.9
	c-0.2-0.2-0.4-0.4-0.7-0.4c-0.2-0.1-0.5-0.1-0.7-0.2c-0.2,0-0.3,0-0.3-0.1c0-0.6,0.1-0.9,0.2-0.9c1.6-0.2,3.2-0.5,4.8-0.9l0.2-0.1
	c0.1,0,0.2,0.1,0.2,0.2c0.1,0.1,0.1,0.2,0.1,0.3v0.4c0,0.2,0,0.4-0.1,0.6c0,0.1,0,0.3,0,0.4c0.4-0.6,0.9-1.1,1.5-1.4
	C558.1,100.4,558.7,100.2,559.3,100.2z"/>
<path class="st0" d="M571,100.1c0.7,0,1.5,0.1,2.2,0.4c0.1,0,0.2-0.2,0.2-0.5v-2.8c0-0.7-0.1-1.3-0.2-2c-0.1-0.3-0.6-0.5-1.5-0.5
	h-0.2c-0.1,0-0.2-0.2-0.2-0.5c0-0.3,0.1-0.5,0.2-0.5c0.6-0.1,1.2-0.1,1.7-0.2c0.6-0.1,1-0.2,1.4-0.3c0.4-0.1,0.7-0.2,1-0.3l0.6-0.2
	l0.2-0.1h0.1c0.1,0,0.2,0.1,0.2,0.2c0.1,0.1,0.1,0.2,0.1,0.3c-0.2,0.9-0.3,1.9-0.3,2.8V109c0,0.7,0,1.5,0.2,2.2
	c0,0.2,0.1,0.3,0.3,0.3c0.2,0.1,0.4,0.1,0.6,0.2h0.6h0.3c0.1,0.1,0.1,0.2,0.1,0.4c0,0.4-0.1,0.6-0.2,0.6c-0.3,0-0.6,0-1,0.1
	l-1.2,0.2l-1.2,0.2l-1.2,0.2c-0.1,0-0.2-0.2-0.2-0.5v-0.5c0,0,0-0.1,0-0.1c0,0-0.1,0-0.1,0c-0.9,0.7-2,1.1-3.1,1.1
	c-1.6,0-3.1-0.6-4.2-1.8c-1.2-1.2-1.8-2.8-1.8-4.4c0-1.9,0.7-3.7,2-5C567.5,100.8,569.2,100.1,571,100.1z M570.7,101.5
	c-1,0-1.9,0.5-2.4,1.3c-0.6,1.1-0.9,2.4-0.8,3.6c-0.1,1.4,0.2,2.7,0.9,3.9c0.5,0.9,1.5,1.4,2.6,1.4c0.6,0,1.2-0.2,1.6-0.5
	c0.4-0.3,0.6-0.8,0.6-1.3v-6.2c0-0.2,0-0.4-0.1-0.6c-0.1-0.2-0.2-0.5-0.4-0.7c-0.2-0.3-0.5-0.5-0.8-0.6
	C571.6,101.6,571.2,101.5,570.7,101.5L570.7,101.5z"/>
<path class="st0" d="M586.8,100.2c0.9,0,1.7,0.2,2.5,0.6c0.7,0.3,1.3,0.8,1.7,1.4c0.4,0.5,0.8,1.1,1,1.8c0.2,0.6,0.3,1.1,0.3,1.7
	c0,0.4-0.1,0.7-0.2,0.8c-0.3,0.1-0.6,0.2-0.9,0.2h-7.1c-0.1,0-0.2,0.1-0.2,0.2c0,0.7,0.1,1.4,0.4,2.1c0.3,0.7,0.7,1.3,1.3,1.8
	c0.6,0.5,1.4,0.8,2.2,0.7c0.3,0,0.6,0,0.9,0c0.3,0,0.5-0.1,0.8-0.2l0.6-0.2c0.2-0.1,0.4-0.2,0.5-0.3l0.4-0.2l0.6-0.4
	c0.1,0,0.1,0.1,0.2,0.2c0.1,0.1,0.1,0.2,0.1,0.3c0,0.2-0.1,0.4-0.2,0.6c-0.4,0.7-1,1.2-1.8,1.6c-0.9,0.5-1.9,0.8-2.9,0.8
	c-1.7,0-3.3-0.7-4.5-1.9c-1.2-1.2-1.9-2.9-1.9-4.7c-0.1-1.8,0.5-3.5,1.7-4.9C583.5,100.8,585.1,100.1,586.8,100.2z M586.6,101.5
	c-0.5,0-0.9,0.1-1.3,0.4c-0.4,0.3-0.7,0.6-0.9,1c-0.2,0.4-0.3,0.7-0.4,1.1c-0.1,0.3-0.1,0.6-0.1,0.9c0,0.1,0.1,0.2,0.2,0.2h4.8
	c0.2,0,0.3-0.2,0.3-0.4c0-0.8-0.3-1.5-0.7-2.1C588.1,101.9,587.4,101.5,586.6,101.5L586.6,101.5z"/>
<path class="st0" d="M603.3,100.2c0.9-0.1,1.8,0.3,2.4,1c0,1.7-0.5,2.5-1.4,2.5c-0.4,0-0.9-0.3-1.2-0.6c-0.3-0.4-0.8-0.6-1.3-0.6
	c-0.6,0-1.2,0.4-1.4,0.9c-0.3,0.6-0.5,1.3-0.5,1.9v3.7c0,0.9,0,1.8,0.2,2.7c0,0.1,0.3,0.3,0.8,0.4c0.3,0.1,0.7,0.2,1,0.2
	c0.1,0,0.1,0.1,0.1,0.4c0,0.2,0,0.4,0,0.6l-1.6-0.1c-0.9-0.1-1.6-0.1-2-0.1s-1.1,0-2.1,0.1l-1.6,0.1c-0.1-0.2-0.1-0.4-0.1-0.6
	c0-0.3,0-0.4,0.1-0.4c0.4,0,0.7-0.1,1.1-0.2c0.5-0.1,0.8-0.3,0.8-0.4c0.2-0.7,0.2-1.4,0.2-2.2v-4.8c0.1-0.7-0.1-1.3-0.5-1.9
	c-0.2-0.2-0.4-0.4-0.7-0.4c-0.2-0.1-0.5-0.1-0.7-0.2c-0.2,0-0.3,0-0.3-0.1c0-0.6,0.1-0.9,0.2-0.9c1.6-0.2,3.2-0.5,4.8-0.9l0.2-0.1
	c0.1,0,0.2,0.1,0.2,0.2c0.1,0.1,0.1,0.2,0.1,0.3v0.4c0,0.2,0,0.4-0.1,0.6c0,0.1,0,0.3,0,0.4c0.4-0.6,0.9-1.1,1.5-1.4
	C602.1,100.4,602.7,100.2,603.3,100.2z"/>
<path class="st0" d="M488.6,159.3c0.4,0.4,0.6,0.9,0.6,1.4c0,0.5-0.2,1-0.6,1.4c-0.4,0.4-0.9,0.6-1.4,0.6c-0.5,0-1.1-0.2-1.4-0.6
	c-0.4-0.4-0.6-0.9-0.6-1.4c0-0.5,0.2-1,0.6-1.4c0.4-0.4,0.9-0.6,1.4-0.6C487.7,158.7,488.2,158.9,488.6,159.3z"/>
</svg>
