<svg id="Layer_1" data-name="Layer 1" xmlns="http://www.w3.org/2000/svg" viewBox="0 0 931.73 355.14"><defs><style>.cls-1{fill:#fff;stroke:#1928eb;stroke-miterlimit:10;stroke-width:1.6px;}</style></defs><title>title</title><path class="cls-1" d="M1.28,136.88A64.12,64.12,0,0,1,13.87,89.6Q29.52,68.54,55,65.57q16.37-1.91,44,1.85.58.12,3,12.19t2.7,14.3q.26,2.23-3.46,2.67A6.72,6.72,0,0,1,97,95.94a33.84,33.84,0,0,0-2.19-5,37.06,37.06,0,0,0-4.49-6.17,27.39,27.39,0,0,0-7.3-6A37.47,37.47,0,0,0,72,75,48.9,48.9,0,0,0,56.8,74.6Q38.57,76.73,30,92.43t-5.9,38.4A71.83,71.83,0,0,0,31.89,156,51.06,51.06,0,0,0,49.4,175.3a36.61,36.61,0,0,0,25.1,5.84q11.72-1.37,17.44-5.61a4.89,4.89,0,0,0,1.36-4.5l-1.75-13.37-.15-1.3q-1.3-11.16-3.06-14.92-1-2.33-5.9-2.89a36,36,0,0,0-8-.19q-.75.09-1.06-2.61t.34-3.53q2-.24,11.32-.75t14.85-1.17l22.38-3.74a10.11,10.11,0,0,1,.93,3.1c.25,2.11.12,3.19-.38,3.25a24,24,0,0,0-4.8,1.69,49,49,0,0,0-5.27,2.5q-2.25,1.77-.84,13.86.45,3.91,1,7.8t.59,4.27a16.12,16.12,0,0,0,1.6,5.66,16,16,0,0,1,1.25,2.68q.3,2.61-3.57,4.94-7.05,4.22-10.43,5.93A99,99,0,0,1,89.22,187a121.31,121.31,0,0,1-21.83,4.43Q42.84,194.26,23.51,178A61.16,61.16,0,0,1,1.28,136.88Z"/><path class="cls-1" d="M169.24,151.24q1.32,11.35,3.44,16.57.52,1.26,5.34,2.11a27.56,27.56,0,0,0,6.49.66q.74-.09,1.15,2.6a10.63,10.63,0,0,1,.14,3.66q-1.32,0-10,.42t-12.81.93q-4.65.54-13,2.09t-9.68,1.88q-.83-.66-1.16-3.45t.42-2.88a27.14,27.14,0,0,0,6.53-2.18q4.49-1.94,4.71-3.28a61.24,61.24,0,0,0-.28-13.73l-3.53-30.32q-1-8.74-4.36-11.56a10.41,10.41,0,0,0-4.6-2.29,19.74,19.74,0,0,0-4.59-.6q-1.88,0-1.93-.34-.63-5.39.47-5.71a143.63,143.63,0,0,0,14.81-4A146.69,146.69,0,0,0,161,96.77a10.91,10.91,0,0,0,1.44-.55c.62-.07,1.17.31,1.64,1.13a3.45,3.45,0,0,1,.61,2,160.57,160.57,0,0,0,.38,16.17ZM140.83,75.65a11.41,11.41,0,0,1-4.3-7.79,11.51,11.51,0,0,1,10.2-12.78,11.21,11.21,0,0,1,8.58,2.39,11.1,11.1,0,0,1,4.29,7.7,11.41,11.41,0,0,1-2.39,8.58,11.53,11.53,0,0,1-16.37,1.91Z"/><path class="cls-1" d="M247.82,97.4q-3-4.74-13.61-3.5c-.37,0-.66-.8-.86-2.54a6.45,6.45,0,0,1,.17-3.41q2.6-.3,9.09-.49t10.67-.68q4.19-.49,10.82-1.83t9-1.62a5.45,5.45,0,0,1,.9,2.91q.35,3-.77,3.11a22.36,22.36,0,0,0-7,2.61q-4.45,2.31-5.71,6l-23.41,69.28a12.72,12.72,0,0,1-2,3.44,4.73,4.73,0,0,1-3,2q-1.86.22-2.36-.86-4.7-7.94-12.84-22t-14-23.73q-5.84-9.69-13.29-21.83-2.84-4.95-12.7-3.8-.75.09-1.09-2.89a4.34,4.34,0,0,1,.4-3.06q1.67-.19,9.92-.59t12.71-.92q4.46-.52,12.77-2.05t9.61-1.69q.65.68.86,3.29c.14,1.75,0,2.64-.53,2.7a27.53,27.53,0,0,0-6.47,1.89q-4.05,1.6-3.84,3.46a3.48,3.48,0,0,0,.59,1.82l23.4,40.64,12.45-38.78Q249.36,99.3,247.82,97.4Z"/><path class="cls-1" d="M321.6,133.49q1.32,11.35,3.44,16.57.52,1.26,5.34,2.11a27.56,27.56,0,0,0,6.49.66q.74-.09,1.15,2.6a10.6,10.6,0,0,1,.14,3.66q-1.32,0-10,.42t-12.81.93q-4.65.54-13,2.09t-9.68,1.88q-.83-.66-1.16-3.45t.42-2.88a27.14,27.14,0,0,0,6.53-2.18q4.49-1.94,4.71-3.28a61.24,61.24,0,0,0-.28-13.73l-3.53-30.32q-1-8.74-4.36-11.56a10.41,10.41,0,0,0-4.6-2.29,19.73,19.73,0,0,0-4.59-.6q-1.88,0-1.93-.34-.63-5.39.47-5.71a143.76,143.76,0,0,0,14.81-4A146.82,146.82,0,0,0,313.36,79a11,11,0,0,0,1.44-.55c.62-.07,1.17.31,1.64,1.13a3.45,3.45,0,0,1,.61,2,160.73,160.73,0,0,0,.38,16.17ZM293.18,57.9a11.41,11.41,0,0,1-4.3-7.79,11.51,11.51,0,0,1,10.2-12.78,11.51,11.51,0,0,1,12.87,10.1A11.41,11.41,0,0,1,309.55,56a11.53,11.53,0,0,1-16.37,1.91Z"/><path class="cls-1" d="M398.61,68q24-2.8,28.44,35.34L429.11,121q1.32,11.35,3.25,16.59.52,1.26,5.43,2.1a28.71,28.71,0,0,0,6.58.65c.37,0,.69.83,1,2.62a10.63,10.63,0,0,1,.14,3.66q-1.14-.06-9.85.39t-13,.95q-4.46.52-12.3,2t-9.49,1.86q-.83-.66-1.16-3.45t.42-2.88a22.28,22.28,0,0,0,6.07-2.12q4-1.88,4.24-3.23a53.77,53.77,0,0,0-.09-13.75l-2.06-17.67q-1.8-15.44-6.7-21.09t-14-4.59a17.33,17.33,0,0,0-10,4.47q-4.08,3.78-3.65,7.5l3.73,32q1.32,11.35,3.25,16.59.52,1.26,5.24,2.12a27,27,0,0,0,6.21.69c.49-.06.88.81,1.15,2.6a10.63,10.63,0,0,1,.14,3.66q-1.51,0-9.85.39t-12.62.91q-4.46.52-12.86,2.06t-9.86,1.9q-.83-.66-1.16-3.45t.42-2.88a26.13,26.13,0,0,0,6.63-2.19q4.39-1.93,4.62-3.27a61.24,61.24,0,0,0-.28-13.73l-3.53-30.32q-1-8.74-4.36-11.56a9,9,0,0,0-4.51-2.3,21.41,21.41,0,0,0-4.59-.6c-1.19,0-1.8-.1-1.83-.35q-.63-5.39.28-5.69,8.47-1.74,29.3-9.07a1.22,1.22,0,0,1,.43-.33,1.8,1.8,0,0,1,.55-.16l.46-.05c.49-.06,1,.33,1.45,1.15a5.69,5.69,0,0,1,.8,2,63.63,63.63,0,0,0,0,6.78,1.47,1.47,0,0,0,.29.91,2.78,2.78,0,0,0,.87-.67A41.49,41.49,0,0,1,384.77,73,32.77,32.77,0,0,1,398.61,68Z"/><path class="cls-1" d="M482,58.61a59.31,59.31,0,0,1,15.72.62,57.74,57.74,0,0,0,15.16.68l10.6-1.24q.37,0,1.58,2.27a11.48,11.48,0,0,1,1.36,3.61q.3,2.61-.81,2.73L513.52,68.7c-.5.06-.72.27-.68.65q0,.19,2.24,4.64a26.48,26.48,0,0,1,2.71,8.73q1.28,11-6.9,20.88T489,115.12a77.44,77.44,0,0,1-11.62.6,10.07,10.07,0,0,0-3.69,3.92,8,8,0,0,0-1.33,4.77,3.85,3.85,0,0,0,2.14,3,12.59,12.59,0,0,0,5.7,1.22q3.78.13,6.41,0t7.48-.5l2.79-.33q18.66-1.61,27.85,1.94t10.24,12.66q1.81,13.93-10.57,25.74A51.18,51.18,0,0,1,494.11,182q-13.56,1.77-24.32-2.44T457.87,165.5q-.63-5.4,4.09-11a31,31,0,0,1,10.62-8.4,21.36,21.36,0,0,1-9.59-4.63,13.62,13.62,0,0,1-5.23-9.29q-.93-8,11.84-18.16-5.68-1.79-11.16-8.41A27.55,27.55,0,0,1,452,91q-1.54-13.21,7.24-22T482,58.61ZM471,87.23q1.06,9.12,5.51,14.91t11.14,5q6.88-.8,9.52-6.48a24.82,24.82,0,0,0,1.73-13.49q-1.15-9.86-5.58-15.56a12,12,0,0,0-11.5-4.88,10.56,10.56,0,0,0-9.19,6.92A27.19,27.19,0,0,0,471,87.23Zm48,65.67q-.76-6.51-10.4-7.55t-25.45.8a3,3,0,0,0-.91.29,8.3,8.3,0,0,0-.87.67q-2.31,1.21-3.54,2a16.07,16.07,0,0,0-2.74,2.39,9.09,9.09,0,0,0-2.13,3.55,10.89,10.89,0,0,0-.32,4.56q.78,6.7,8.37,10.34a29.19,29.19,0,0,0,16.33,2.62q10.42-1.21,16.46-6.82T519,152.91Z"/><path class="cls-1" d="M586.61,31q-1.3-11.16-3.31-15.45-.92-1.4-5.54-2.28a25.15,25.15,0,0,0-6.86-.61q-.75.09-1.07-2.7-.35-3,0-3.39.93-.11,10.39-.64t14.48-1.12q1.49-.17,23.68-3.89a9.65,9.65,0,0,1,.9,2.91q.37,3.16-.38,3.25a30.56,30.56,0,0,0-6.52,2.27q-4.85,2.08-5.07,3.42-.82,5.94.42,16.54l8.15,69.94a69.5,69.5,0,0,0,3.62,16.55q.52,1.26,5.43,2.1a28.71,28.71,0,0,0,6.58.65q.74-.09,1.16,3.45a8.32,8.32,0,0,1-.07,2.65q-22.45,1.48-23.75,1.64-3.72.43-7.79,1.1t-9,1.52l-7.85,1.39a3.66,3.66,0,0,1-1-2.52q-.41-3.53.33-3.62a29.87,29.87,0,0,0,6.82-2.11q4.59-1.85,5-3.41a65.56,65.56,0,0,0-.33-15.8Z"/><path class="cls-1" d="M694.93,33.42q24-2.8,28.44,35.34l2.06,17.67q1.32,11.35,3.25,16.59.52,1.26,5.43,2.1a28.71,28.71,0,0,0,6.58.65c.37,0,.69.83,1,2.62a10.63,10.63,0,0,1,.14,3.66q-1.14-.06-9.85.39t-13,.95q-4.46.52-12.3,2t-9.49,1.86q-.83-.66-1.16-3.45t.42-2.88a22.28,22.28,0,0,0,6.07-2.12q4-1.88,4.24-3.23a53.81,53.81,0,0,0-.09-13.75l-2.06-17.67q-1.8-15.44-6.7-21.09t-14-4.59a17.34,17.34,0,0,0-10,4.47q-4.08,3.78-3.65,7.5l3.73,32q1.32,11.35,3.25,16.59.52,1.26,5.24,2.12a27,27,0,0,0,6.21.69q.74-.09,1.15,2.6a10.63,10.63,0,0,1,.14,3.66q-1.51,0-9.85.39t-12.62.91q-4.46.52-12.86,2.06t-9.87,1.9q-.83-.66-1.16-3.45T644,117a26.15,26.15,0,0,0,6.63-2.19q4.39-1.93,4.61-3.27a61.24,61.24,0,0,0-.28-13.73l-3.53-30.32q-1-8.74-4.36-11.56a9,9,0,0,0-4.51-2.3,21.41,21.41,0,0,0-4.59-.6c-1.2,0-1.8-.1-1.83-.35q-.63-5.39.28-5.69,8.47-1.74,29.3-9.07a1.21,1.21,0,0,1,.43-.33,1.8,1.8,0,0,1,.55-.16l.46-.05c.49-.06,1,.33,1.45,1.15a5.72,5.72,0,0,1,.8,2,63.82,63.82,0,0,0,0,6.78,1.47,1.47,0,0,0,.29.91,2.77,2.77,0,0,0,.87-.67,41.49,41.49,0,0,1,10.53-9.15A32.78,32.78,0,0,1,694.93,33.42Z"/><path class="cls-1" d="M755,39.61,743.7,40.94q-1.3.15-1.87-4.68a4.63,4.63,0,0,1,0-1.7A52.42,52.42,0,0,0,755,23q2.13-2.7,4.66-6.1t5.87-8.7a13.33,13.33,0,0,1,3.59.05q1.73.27,1.79.83L773,27.34q4.83-.56,13.5-1.48l9.22-1q1.49-.17,1.68,1.5a18.19,18.19,0,0,1-.91,8.4l-22.32,2.6,5.22,44.83q.87,7.44,4.48,11a10.7,10.7,0,0,0,9.2,2.89,17.71,17.71,0,0,0,3.85-.92,19.83,19.83,0,0,0,3.23-1.41q1.23-.71,2.29-1.4a5.92,5.92,0,0,1,1.24-.71q.72-.27,1.87,1.48t1,2.33q-.81,2.74-7.2,7a29.51,29.51,0,0,1-12.9,5,23.62,23.62,0,0,1-17.19-4.31q-7.52-5.44-9-18.46Z"/><path class="cls-1" d="M849.88,15.37a41.29,41.29,0,0,1,31.28,8.71,40.13,40.13,0,0,1,15.81,28,40.75,40.75,0,0,1-8.74,31A42.46,42.46,0,0,1,812.7,61.93a40.35,40.35,0,0,1,8.74-31Q832.21,17.43,849.88,15.37Zm-1.4,9q-8.75,1-12.59,10T833.4,55.18q1.75,15.07,9.1,25.52t18.14,9.2q8.74-1,12.67-10.15a39.82,39.82,0,0,0,2.59-20.66,64.3,64.3,0,0,0-4.51-17.67A33,33,0,0,0,862,28.47,17.37,17.37,0,0,0,848.48,24.39Z"/><path class="cls-1" d="M332.92,191.33q9.92-.19,17.4-1.09a47.84,47.84,0,0,0,1.79,5.49q1.18,3.07,3,7.25t3.52,7.8q1.66,3.62,4.58,9.28t4.77,9.37q1.85,3.71,5.45,10.48t5.35,10.1q1.75,3.34,5.74,10.75t5.35,10.2a45.81,45.81,0,0,0,1.72-7.71l8.08-47q1.66-10.89,1.6-13.89t-5.81-5.13q-5.76-2.14-8.56-2.08c-.25,0-.38-.37-.4-1.12q-.07-3.55,1.22-4.52,15.74.44,21.92.32,7.68-.15,21.89-1.18.11,5.62-1.2,5.64-2.06,0-7.74,1.93t-7.88,4.37Q412,205,410.2,216l-12.66,71.42q-1.19,6.2-2.41,16t-1.39,10.33q-.74.76-3.36.81-2.06,0-4.76-4-41.43-79-50.82-99.41L321,288.4a78.54,78.54,0,0,0-1.61,13.52q.07,3.75,5.73,5.7t8.28,1.9c.25,0,.38.31.39.93a10.34,10.34,0,0,1-1,4.7q-17.43-.6-21.74-.51-2.06,0-22.08,1.37a3.34,3.34,0,0,1-.4-1.49,6.49,6.49,0,0,1,.24-1.88,15.33,15.33,0,0,1,.53-1.6c.18-.44.33-.66.46-.66a35.65,35.65,0,0,0,8.67-1.85q5.87-1.8,7.68-4.64,2-3.6,4.37-15.82l12.84-71.8a71.92,71.92,0,0,0,1.22-14.07q-.05-2.62-5.23-4.11a29.38,29.38,0,0,0-8-1.44q-.56,0-.58-1.11-.07-3.55,1.22-4.52Q326.93,191.44,332.92,191.33Z"/><path class="cls-1" d="M465.91,229.19q9-.17,14.6,4.3a14,14,0,0,1,5.74,11q.17,8.8-8.57,17a64.58,64.58,0,0,1-18.77,12.54q-10,4.32-16,4.43-.75,0-.66,4.32.35,18,12.33,17.74a17.12,17.12,0,0,0,8.56-2.79,33,33,0,0,0,6.37-4.71l3.21-3.34q.37,0,1.72,1.75a5.6,5.6,0,0,1,1.36,2.5q-2.34,4.92-11.1,12.11t-17,7.35q-11.61.23-17.75-7.43t-6.42-21.7A56.23,56.23,0,0,1,429.31,259a61.56,61.56,0,0,1,16.07-21.2Q455.43,229.4,465.91,229.19Zm-1.7,9q-6.74.13-13.73,11.6t-6.82,19.89a.66.66,0,0,0,.76.73q7.68-.15,16.12-8.84t8.28-17.11a8.46,8.46,0,0,0-1.21-4.57A3.72,3.72,0,0,0,464.22,238.22Z"/><path class="cls-1" d="M550.73,227.54a16.12,16.12,0,0,1,14.57,7.68,34,34,0,0,1,5.42,18.53q.4,20.78-15.62,39.26t-31.2,18.78a13,13,0,0,1-7.34-1.73l-4.38,25.37a22.64,22.64,0,0,0-.47,4.69q.09,4.68,3.48,5.36a32.17,32.17,0,0,0,7.88.6c.5,0,.76.55.78,1.67a8.66,8.66,0,0,1-.67,4.13l-13.86.27q-11.61.41-25.06,2.17a1.51,1.51,0,0,1-.78-1.48q-.07-3.56.85-4.51,5.8-.11,8.37-3.16,1.27-1.9,2.45-8.66l12-68.79-7.91,7.46a7.74,7.74,0,0,1-1.59-4.65,2.86,2.86,0,0,1,.9-2.08q8.43-9.16,10.28-10.88L513.86,229a38,38,0,0,1,8.41-1.1,27.17,27.17,0,0,1,8.64,1.14q-2,10.53-2.22,11.09a15.62,15.62,0,0,0,2.11-2.1q1.74-1.9,2.75-2.86t3.13-2.59a22.29,22.29,0,0,1,4-2.51,32.13,32.13,0,0,1,4.56-1.68A20.75,20.75,0,0,1,550.73,227.54Zm-7.8,12.89a14.72,14.72,0,0,0-8.73,3.54,32.26,32.26,0,0,0-7.52,8.39L520,291.83q-1.87,10.15,6.38,10,6-.12,12.22-7.17a54.24,54.24,0,0,0,10.13-18.18,62.4,62.4,0,0,0,3.69-22,20.77,20.77,0,0,0-2.45-10.16A7.42,7.42,0,0,0,542.93,240.43Z"/><path class="cls-1" d="M633.12,225.94q9.17-.18,15.61,3.07l-9.93,57.7a14.6,14.6,0,0,0-.48,4.5q.09,4.68,2,4.64t5-2.63a51.11,51.11,0,0,0,5.06-4.69c1.29-1.4,2.23-2.41,2.84-3.05q.37,0,1.72,1.75a5.61,5.61,0,0,1,1.36,2.5q-2,4.53-11.47,12.4t-16.23,8a7.46,7.46,0,0,1-6-2.6,10.64,10.64,0,0,1-2.48-7.16,38,38,0,0,1,.63-6.19q.5-3,.67-3.95a56,56,0,0,1-3.72,6q-2.1,2.95-5.12,6.47a25.26,25.26,0,0,1-6.82,5.66,16,16,0,0,1-7.54,2.21,16.89,16.89,0,0,1-14.66-7.21q-5.48-7.38-5.7-18.81-.26-13.1,7.26-26.55a67.38,67.38,0,0,1,20.63-22.6Q618.88,226.22,633.12,225.94ZM624,236.42q-10.67.21-19.25,16.58t-8.3,30.6q.28,14.6,8,14.46,6.36-.12,13.31-13.75a99.15,99.15,0,0,0,9.47-28.09l3.21-18Q628.63,236.33,624,236.42Z"/><path class="cls-1" d="M689.47,224.84a7.47,7.47,0,0,1,6,2.6,11,11,0,0,1,2.48,7.35,71.54,71.54,0,0,1-1.1,11.07q-.17.75-.34,1.88t-.59,3.57q-.42,2.44-.92,5.64,4-8.51,14.3-20.6t17.46-12.23q12.73-.25,13.05,16.23.13,6.74-2.41,20.28L733,284.87a14.63,14.63,0,0,0-.47,4.5q.09,4.68,2,4.64t5-2.63a51.23,51.23,0,0,0,5.06-4.69q1.93-2.1,2.66-3,.56,0,1.81,1.74a5.77,5.77,0,0,1,1.27,2.5q-2,4.53-11.37,12.4t-16.33,8a7.27,7.27,0,0,1-5.76-2.6q-2.4-2.67-2.49-7.54a64.83,64.83,0,0,1,1.46-11.83l4.91-26.69A66.69,66.69,0,0,0,722,249.12q-.15-7.86-4.65-7.78-3.37.07-9.31,7.77a107.74,107.74,0,0,0-11.51,19.42,82.78,82.78,0,0,0-7.25,21.87l-3.41,17.3a27.93,27.93,0,0,1-8,1.09A36.63,36.63,0,0,1,669,308l10.1-58.26a38.19,38.19,0,0,0,.63-6q-.09-4.49-2-4.46-2.25,0-6.2,3.68a43.17,43.17,0,0,0-5.6,5.92q-.56,0-1.82-1.84a6.19,6.19,0,0,1-1.27-2.6q2-4.34,11.1-11.92T689.47,224.84Z"/><path class="cls-1" d="M776.76,205.91q.33-2.25,12.69-2.5a24.53,24.53,0,0,1,4.69.28l-4.24,22.56,16.85-.33c.87,0,1.33.85,1.36,2.6a12.2,12.2,0,0,1-1.93,6.78l-17.79.35L780,284a14.6,14.6,0,0,0-.47,4.5q.09,4.68,2,4.64t5-2.63a51.07,51.07,0,0,0,5.06-4.69q1.93-2.1,2.84-3.05.37,0,1.72,1.75a5.6,5.6,0,0,1,1.36,2.5q-2,4.53-11.46,12.4t-16.23,8a7.46,7.46,0,0,1-6-2.6q-2.4-2.67-2.49-7.54a59.64,59.64,0,0,1,1.46-11.83L771.36,236l-12,.23q-.56,0-.6-2.24a11.85,11.85,0,0,1,.76-4.14,9,9,0,0,1,1.53-3l12-.23Z"/><path class="cls-1" d="M811.45,284.46l14.83-85.14a50.15,50.15,0,0,0,1-8.26q-.07-3.74-10.37-3.54-.56,0-.59-1.3a5.32,5.32,0,0,1,1.42-4,83.65,83.65,0,0,0,14.37-2.81,128.45,128.45,0,0,0,13-4.09q1.51.72,1.57,3.72,0,1.5-2.51,15.41L828.65,283a24.89,24.89,0,0,0-.29,4.5q.09,4.68,2,4.64,1.69,0,4.82-2.62a51,51,0,0,0,5.06-4.69q1.93-2.1,2.84-3.05.37,0,1.72,1.75a5.6,5.6,0,0,1,1.36,2.5q-2,4.53-11.46,12.4t-16.23,8a7.19,7.19,0,0,1-5.86-2.6q-2.3-2.67-2.39-7.54A66.52,66.52,0,0,1,811.45,284.46Z"/><path class="cls-1" d="M907.79,220.59q9.17-.18,15.61,3.07l-9.93,57.7a14.6,14.6,0,0,0-.48,4.5q.09,4.68,2,4.64t5-2.63a51.07,51.07,0,0,0,5.06-4.69q1.93-2.1,2.84-3.05.37,0,1.72,1.75a5.6,5.6,0,0,1,1.36,2.5q-2,4.53-11.47,12.4t-16.23,8a7.46,7.46,0,0,1-6-2.6,10.64,10.64,0,0,1-2.48-7.16,38,38,0,0,1,.63-6.19q.5-3,.67-3.95a55.7,55.7,0,0,1-3.72,6q-2.1,2.95-5.12,6.47a25.25,25.25,0,0,1-6.82,5.66,16,16,0,0,1-7.54,2.21A16.89,16.89,0,0,1,858.26,298q-5.48-7.38-5.7-18.81-.25-13.1,7.26-26.55A67.4,67.4,0,0,1,880.44,230Q893.56,220.87,907.79,220.59Zm-9.16,10.48q-10.67.21-19.25,16.58t-8.3,30.6q.28,14.6,8,14.46,6.36-.12,13.31-13.75a99.14,99.14,0,0,0,9.47-28.09l3.21-18Q903.31,231,898.63,231.07Z"/></svg>