<svg id="Layer_1" data-name="Layer 1" xmlns="http://www.w3.org/2000/svg" viewBox="0 0 1195.55 340.81"><defs><style>.cls-1{fill:#fff;stroke:#1928eb;stroke-miterlimit:10;stroke-width:1.56px;}</style></defs><title>title</title><path class="cls-1" d="M1.28,136.88A64.12,64.12,0,0,1,13.87,89.6Q29.52,68.54,55,65.57q16.37-1.91,44,1.85.58.12,3,12.19t2.7,14.3q.26,2.23-3.46,2.67A6.72,6.72,0,0,1,97,95.94a33.84,33.84,0,0,0-2.19-5,37.06,37.06,0,0,0-4.49-6.17,27.39,27.39,0,0,0-7.3-6A37.47,37.47,0,0,0,72,75,48.9,48.9,0,0,0,56.8,74.6Q38.57,76.73,30,92.43t-5.9,38.4A71.83,71.83,0,0,0,31.89,156,51.06,51.06,0,0,0,49.4,175.3a36.61,36.61,0,0,0,25.1,5.84q11.72-1.37,17.44-5.61a4.89,4.89,0,0,0,1.36-4.5l-1.75-13.37-.15-1.3q-1.3-11.16-3.06-14.92-1-2.33-5.9-2.89a36,36,0,0,0-8-.19q-.75.09-1.06-2.61t.34-3.53q2-.24,11.32-.75t14.85-1.17l22.38-3.74a10.11,10.11,0,0,1,.93,3.1c.25,2.11.12,3.19-.38,3.25a24,24,0,0,0-4.8,1.69,49,49,0,0,0-5.27,2.5q-2.25,1.77-.84,13.86.45,3.91,1,7.8t.59,4.27a16.12,16.12,0,0,0,1.6,5.66,16,16,0,0,1,1.25,2.68q.3,2.61-3.57,4.94-7.05,4.22-10.43,5.93A99,99,0,0,1,89.22,187a121.31,121.31,0,0,1-21.83,4.43Q42.84,194.26,23.51,178A61.16,61.16,0,0,1,1.28,136.88Z"/><path class="cls-1" d="M169.24,151.24q1.32,11.35,3.44,16.57.52,1.26,5.34,2.11a27.56,27.56,0,0,0,6.49.66q.74-.09,1.15,2.6a10.63,10.63,0,0,1,.14,3.66q-1.32,0-10,.42t-12.81.93q-4.65.54-13,2.09t-9.68,1.88q-.83-.66-1.16-3.45t.42-2.88a27.14,27.14,0,0,0,6.53-2.18q4.49-1.94,4.71-3.28a61.24,61.24,0,0,0-.28-13.73l-3.53-30.32q-1-8.74-4.36-11.56a10.41,10.41,0,0,0-4.6-2.29,19.74,19.74,0,0,0-4.59-.6q-1.88,0-1.93-.34-.63-5.39.47-5.71a143.63,143.63,0,0,0,14.81-4A146.69,146.69,0,0,0,161,96.77a10.91,10.91,0,0,0,1.44-.55c.62-.07,1.17.31,1.64,1.13a3.45,3.45,0,0,1,.61,2,160.57,160.57,0,0,0,.38,16.17ZM140.83,75.65a11.41,11.41,0,0,1-4.3-7.79,11.51,11.51,0,0,1,10.2-12.78,11.21,11.21,0,0,1,8.58,2.39,11.1,11.1,0,0,1,4.29,7.7,11.41,11.41,0,0,1-2.39,8.58,11.53,11.53,0,0,1-16.37,1.91Z"/><path class="cls-1" d="M247.82,97.4q-3-4.74-13.61-3.5c-.37,0-.66-.8-.86-2.54a6.45,6.45,0,0,1,.17-3.41q2.6-.3,9.09-.49t10.67-.68q4.19-.49,10.82-1.83t9-1.62a5.45,5.45,0,0,1,.9,2.91q.35,3-.77,3.11a22.36,22.36,0,0,0-7,2.61q-4.45,2.31-5.71,6l-23.41,69.28a12.72,12.72,0,0,1-2,3.44,4.73,4.73,0,0,1-3,2q-1.86.22-2.36-.86-4.7-7.94-12.84-22t-14-23.73q-5.84-9.69-13.29-21.83-2.84-4.95-12.7-3.8-.75.09-1.09-2.89a4.34,4.34,0,0,1,.4-3.06q1.67-.19,9.92-.59t12.71-.92q4.46-.52,12.77-2.05t9.61-1.69q.65.68.86,3.29c.14,1.75,0,2.64-.53,2.7a27.53,27.53,0,0,0-6.47,1.89q-4.05,1.6-3.84,3.46a3.48,3.48,0,0,0,.59,1.82l23.4,40.64,12.45-38.78Q249.36,99.3,247.82,97.4Z"/><path class="cls-1" d="M321.6,133.49q1.32,11.35,3.44,16.57.52,1.26,5.34,2.11a27.56,27.56,0,0,0,6.49.66q.74-.09,1.15,2.6a10.6,10.6,0,0,1,.14,3.66q-1.32,0-10,.42t-12.81.93q-4.65.54-13,2.09t-9.68,1.88q-.83-.66-1.16-3.45t.42-2.88a27.14,27.14,0,0,0,6.53-2.18q4.49-1.94,4.71-3.28a61.24,61.24,0,0,0-.28-13.73l-3.53-30.32q-1-8.74-4.36-11.56a10.41,10.41,0,0,0-4.6-2.29,19.73,19.73,0,0,0-4.59-.6q-1.88,0-1.93-.34-.63-5.39.47-5.71a143.76,143.76,0,0,0,14.81-4A146.82,146.82,0,0,0,313.36,79a11,11,0,0,0,1.44-.55c.62-.07,1.17.31,1.64,1.13a3.45,3.45,0,0,1,.61,2,160.73,160.73,0,0,0,.38,16.17ZM293.18,57.9a11.41,11.41,0,0,1-4.3-7.79,11.51,11.51,0,0,1,10.2-12.78,11.51,11.51,0,0,1,12.87,10.1A11.41,11.41,0,0,1,309.55,56a11.53,11.53,0,0,1-16.37,1.91Z"/><path class="cls-1" d="M398.61,68q24-2.8,28.44,35.34L429.11,121q1.32,11.35,3.25,16.59.52,1.26,5.43,2.1a28.71,28.71,0,0,0,6.58.65c.37,0,.69.83,1,2.62a10.63,10.63,0,0,1,.14,3.66q-1.14-.06-9.85.39t-13,.95q-4.46.52-12.3,2t-9.49,1.86q-.83-.66-1.16-3.45t.42-2.88a22.28,22.28,0,0,0,6.07-2.12q4-1.88,4.24-3.23a53.77,53.77,0,0,0-.09-13.75l-2.06-17.67q-1.8-15.44-6.7-21.09t-14-4.59a17.33,17.33,0,0,0-10,4.47q-4.08,3.78-3.65,7.5l3.73,32q1.32,11.35,3.25,16.59.52,1.26,5.24,2.12a27,27,0,0,0,6.21.69c.49-.06.88.81,1.15,2.6a10.63,10.63,0,0,1,.14,3.66q-1.51,0-9.85.39t-12.62.91q-4.46.52-12.86,2.06t-9.86,1.9q-.83-.66-1.16-3.45t.42-2.88a26.13,26.13,0,0,0,6.63-2.19q4.39-1.93,4.62-3.27a61.24,61.24,0,0,0-.28-13.73l-3.53-30.32q-1-8.74-4.36-11.56a9,9,0,0,0-4.51-2.3,21.41,21.41,0,0,0-4.59-.6c-1.19,0-1.8-.1-1.83-.35q-.63-5.39.28-5.69,8.47-1.74,29.3-9.07a1.22,1.22,0,0,1,.43-.33,1.8,1.8,0,0,1,.55-.16l.46-.05c.49-.06,1,.33,1.45,1.15a5.69,5.69,0,0,1,.8,2,63.63,63.63,0,0,0,0,6.78,1.47,1.47,0,0,0,.29.91,2.78,2.78,0,0,0,.87-.67A41.49,41.49,0,0,1,384.77,73,32.77,32.77,0,0,1,398.61,68Z"/><path class="cls-1" d="M482,58.61a59.31,59.31,0,0,1,15.72.62,57.74,57.74,0,0,0,15.16.68l10.6-1.24q.37,0,1.58,2.27a11.48,11.48,0,0,1,1.36,3.61q.3,2.61-.81,2.73L513.52,68.7c-.5.06-.72.27-.68.65q0,.19,2.24,4.64a26.48,26.48,0,0,1,2.71,8.73q1.28,11-6.9,20.88T489,115.12a77.44,77.44,0,0,1-11.62.6,10.07,10.07,0,0,0-3.69,3.92,8,8,0,0,0-1.33,4.77,3.85,3.85,0,0,0,2.14,3,12.59,12.59,0,0,0,5.7,1.22q3.78.13,6.41,0t7.48-.5l2.79-.33q18.66-1.61,27.85,1.94t10.24,12.66q1.81,13.93-10.57,25.74A51.18,51.18,0,0,1,494.11,182q-13.56,1.77-24.32-2.44T457.87,165.5q-.63-5.4,4.09-11a31,31,0,0,1,10.62-8.4,21.36,21.36,0,0,1-9.59-4.63,13.62,13.62,0,0,1-5.23-9.29q-.93-8,11.84-18.16-5.68-1.79-11.16-8.41A27.55,27.55,0,0,1,452,91q-1.54-13.21,7.24-22T482,58.61ZM471,87.23q1.06,9.12,5.51,14.91t11.14,5q6.88-.8,9.52-6.48a24.82,24.82,0,0,0,1.73-13.49q-1.15-9.86-5.58-15.56a12,12,0,0,0-11.5-4.88,10.56,10.56,0,0,0-9.19,6.92A27.19,27.19,0,0,0,471,87.23Zm48,65.67q-.76-6.51-10.4-7.55t-25.45.8a3,3,0,0,0-.91.29,8.3,8.3,0,0,0-.87.67q-2.31,1.21-3.54,2a16.07,16.07,0,0,0-2.74,2.39,9.09,9.09,0,0,0-2.13,3.55,10.89,10.89,0,0,0-.32,4.56q.78,6.7,8.37,10.34a29.19,29.19,0,0,0,16.33,2.62q10.42-1.21,16.46-6.82T519,152.91Z"/><path class="cls-1" d="M586.61,31q-1.3-11.16-3.31-15.45-.92-1.4-5.54-2.28a25.15,25.15,0,0,0-6.86-.61q-.75.09-1.07-2.7-.35-3,0-3.39.93-.11,10.39-.64t14.48-1.12q1.49-.17,23.68-3.89a9.65,9.65,0,0,1,.9,2.91q.37,3.16-.38,3.25a30.56,30.56,0,0,0-6.52,2.27q-4.85,2.08-5.07,3.42-.82,5.94.42,16.54l8.15,69.94a69.5,69.5,0,0,0,3.62,16.55q.52,1.26,5.43,2.1a28.71,28.71,0,0,0,6.58.65q.74-.09,1.16,3.45a8.32,8.32,0,0,1-.07,2.65q-22.45,1.48-23.75,1.64-3.72.43-7.79,1.1t-9,1.52l-7.85,1.39a3.66,3.66,0,0,1-1-2.52q-.41-3.53.33-3.62a29.87,29.87,0,0,0,6.82-2.11q4.59-1.85,5-3.41a65.56,65.56,0,0,0-.33-15.8Z"/><path class="cls-1" d="M694.93,33.42q24-2.8,28.44,35.34l2.06,17.67q1.32,11.35,3.25,16.59.52,1.26,5.43,2.1a28.71,28.71,0,0,0,6.58.65c.37,0,.69.83,1,2.62a10.63,10.63,0,0,1,.14,3.66q-1.14-.06-9.85.39t-13,.95q-4.46.52-12.3,2t-9.49,1.86q-.83-.66-1.16-3.45t.42-2.88a22.28,22.28,0,0,0,6.07-2.12q4-1.88,4.24-3.23a53.81,53.81,0,0,0-.09-13.75l-2.06-17.67q-1.8-15.44-6.7-21.09t-14-4.59a17.34,17.34,0,0,0-10,4.47q-4.08,3.78-3.65,7.5l3.73,32q1.32,11.35,3.25,16.59.52,1.26,5.24,2.12a27,27,0,0,0,6.21.69q.74-.09,1.15,2.6a10.63,10.63,0,0,1,.14,3.66q-1.51,0-9.85.39t-12.62.91q-4.46.52-12.86,2.06t-9.87,1.9q-.83-.66-1.16-3.45T644,117a26.15,26.15,0,0,0,6.63-2.19q4.39-1.93,4.61-3.27a61.24,61.24,0,0,0-.28-13.73l-3.53-30.32q-1-8.74-4.36-11.56a9,9,0,0,0-4.51-2.3,21.41,21.41,0,0,0-4.59-.6c-1.2,0-1.8-.1-1.83-.35q-.63-5.39.28-5.69,8.47-1.74,29.3-9.07a1.21,1.21,0,0,1,.43-.33,1.8,1.8,0,0,1,.55-.16l.46-.05c.49-.06,1,.33,1.45,1.15a5.72,5.72,0,0,1,.8,2,63.82,63.82,0,0,0,0,6.78,1.47,1.47,0,0,0,.29.91,2.77,2.77,0,0,0,.87-.67,41.49,41.49,0,0,1,10.53-9.15A32.78,32.78,0,0,1,694.93,33.42Z"/><path class="cls-1" d="M755,39.61,743.7,40.94q-1.3.15-1.87-4.68a4.63,4.63,0,0,1,0-1.7A52.42,52.42,0,0,0,755,23q2.13-2.7,4.66-6.1t5.87-8.7a13.33,13.33,0,0,1,3.59.05q1.73.27,1.79.83L773,27.34q4.83-.56,13.5-1.48l9.22-1q1.49-.17,1.68,1.5a18.19,18.19,0,0,1-.91,8.4l-22.32,2.6,5.22,44.83q.87,7.44,4.48,11a10.7,10.7,0,0,0,9.2,2.89,17.71,17.71,0,0,0,3.85-.92,19.83,19.83,0,0,0,3.23-1.41q1.23-.71,2.29-1.4a5.92,5.92,0,0,1,1.24-.71q.72-.27,1.87,1.48t1,2.33q-.81,2.74-7.2,7a29.51,29.51,0,0,1-12.9,5,23.62,23.62,0,0,1-17.19-4.31q-7.52-5.44-9-18.46Z"/><path class="cls-1" d="M849.88,15.37a41.29,41.29,0,0,1,31.28,8.71,40.13,40.13,0,0,1,15.81,28,40.75,40.75,0,0,1-8.74,31A42.46,42.46,0,0,1,812.7,61.93a40.35,40.35,0,0,1,8.74-31Q832.21,17.43,849.88,15.37Zm-1.4,9q-8.75,1-12.59,10T833.4,55.18q1.75,15.07,9.1,25.52t18.14,9.2q8.74-1,12.67-10.15a39.82,39.82,0,0,0,2.59-20.66,64.3,64.3,0,0,0-4.51-17.67A33,33,0,0,0,862,28.47,17.37,17.37,0,0,0,848.48,24.39Z"/><path class="cls-1" d="M607.9,162.54q9.9.72,17.42.52a47.84,47.84,0,0,0,1.28,5.63q.9,3.16,2.36,7.5t2.79,8.09q1.32,3.76,3.71,9.66t3.89,9.77q1.5,3.87,4.46,10.94t4.39,10.56q1.44,3.48,4.72,11.24t4.38,10.65a45.81,45.81,0,0,0,2.43-7.52l12.38-46q2.66-10.69,2.88-13.68t-5.31-5.65q-5.53-2.66-8.33-2.86c-.25,0-.35-.4-.29-1.15q.26-3.55,1.63-4.39,15.63,1.9,21.8,2.35,7.66.56,21.91.85-.41,5.6-1.72,5.51-2.06-.15-7.88,1.21t-8.25,3.62q-3.12,4.09-6,15l-19.2,69.95q-1.76,6.07-3.87,15.68t-2.34,10.16q-.8.69-3.42.5-2.06-.15-4.37-4.45-34-82.48-41.42-103.68L587,258.09a78.54,78.54,0,0,0-2.85,13.31q-.27,3.74,5.18,6.2t8.07,2.66c.25,0,.35.34.31,1a10.34,10.34,0,0,1-1.46,4.59q-17.3-2.2-21.6-2.52-2.06-.15-22.11-.68a3.34,3.34,0,0,1-.26-1.52,6.49,6.49,0,0,1,.42-1.85,15.33,15.33,0,0,1,.68-1.55c.22-.42.39-.63.51-.62a35.65,35.65,0,0,0,8.81-1q6-1.25,8.08-3.91,2.31-3.4,5.82-15.35L596,186.46a71.92,71.92,0,0,0,2.52-13.9q.19-2.61-4.83-4.58a29.38,29.38,0,0,0-7.82-2.17q-.56,0-.48-1.16.26-3.55,1.64-4.39Q601.92,162.11,607.9,162.54Z"/><path class="cls-1" d="M736.82,212.54q9,.66,14.14,5.64a14,14,0,0,1,4.7,11.52q-.64,8.78-10.1,16.16a64.58,64.58,0,0,1-19.85,10.75q-10.39,3.37-16.36,2.93-.75-.05-1.06,4.24-1.31,17.93,10.64,18.81a17.12,17.12,0,0,0,8.78-2,33,33,0,0,0,6.78-4.1l3.51-3q.37,0,1.55,1.9a5.6,5.6,0,0,1,1.12,2.62q-2.78,4.68-12.17,11t-17.6,5.75q-11.58-.85-17-9t-4.38-22.2a56.23,56.23,0,0,1,8.1-24.66,61.56,61.56,0,0,1,18-19.62Q726.36,211.78,736.82,212.54Zm-2.52,8.83q-6.73-.49-14.74,10.28t-8.63,19.18a.66.66,0,0,0,.69.8q7.66.56,16.87-7.31T738.32,228a8.46,8.46,0,0,0-.79-4.66A3.72,3.72,0,0,0,734.3,221.37Z"/><path class="cls-1" d="M821.43,218.73a16.12,16.12,0,0,1,13.8,9,34,34,0,0,1,3.68,19q-1.52,20.73-19.19,37.65t-32.8,15.81a13,13,0,0,1-7.15-2.4l-6.7,24.86a22.64,22.64,0,0,0-.9,4.63q-.34,4.67,3,5.66a32.17,32.17,0,0,0,7.79,1.32c.5,0,.71.62.62,1.74a8.66,8.66,0,0,1-1,4.05l-13.82-1q-11.6-.66-25.15-.15a1.51,1.51,0,0,1-.64-1.55q.26-3.55,1.26-4.41,5.79.42,8.62-2.37,1.44-1.77,3.24-8.4l18.26-67.39-8.56,6.7a7.74,7.74,0,0,1-1.15-4.78,2.86,2.86,0,0,1,1.08-2q9.24-8.34,11.24-9.88l7.68-28a38,38,0,0,1,8.47-.32,27.17,27.17,0,0,1,8.5,1.94q-3,10.3-3.23,10.84a15.62,15.62,0,0,0,2.3-1.9q1.91-1.74,3-2.6t3.36-2.29a22.29,22.29,0,0,1,4.19-2.13,32.13,32.13,0,0,1,4.69-1.25A20.75,20.75,0,0,1,821.43,218.73Zm-9,12.11a14.72,14.72,0,0,0-9,2.72,32.26,32.26,0,0,0-8.26,7.66L784.84,279.9q-2.8,9.94,5.42,10.54,6,.44,12.83-6a54.24,54.24,0,0,0,11.77-17.16,62.4,62.4,0,0,0,5.71-21.55,20.77,20.77,0,0,0-1.5-10.34A7.42,7.42,0,0,0,812.47,230.85Z"/><path class="cls-1" d="M903.61,224.75q9.15.67,15.26,4.5l-15.22,56.53a14.6,14.6,0,0,0-.89,4.44q-.34,4.67,1.53,4.81t5.23-2.15a51.11,51.11,0,0,0,5.47-4.2c1.41-1.27,2.44-2.2,3.11-2.78q.37,0,1.55,1.9a5.61,5.61,0,0,1,1.12,2.62q-2.38,4.33-12.56,11.29t-16.9,6.46a7.46,7.46,0,0,1-5.69-3.14,10.64,10.64,0,0,1-1.81-7.36,38,38,0,0,1,1.2-6.11q.78-2.94,1-3.87a56,56,0,0,1-4.26,5.6q-2.36,2.74-5.69,6a25.26,25.26,0,0,1-7.31,5,16,16,0,0,1-7.71,1.5,16.89,16.89,0,0,1-13.93-8.53q-4.78-7.86-3.94-19.25,1-13.07,9.68-25.77a67.38,67.38,0,0,1,22.63-20.59Q889.41,223.71,903.61,224.75Zm-10.09,9.59q-10.65-.78-20.7,14.73t-11.09,29.7q-1.07,14.57,6.59,15.13,6.35.47,14.53-12.46a99.15,99.15,0,0,0,12-27.1l4.86-17.67Q898.19,234.68,893.52,234.34Z"/><path class="cls-1" d="M959.83,228.86a7.47,7.47,0,0,1,5.69,3.14,11,11,0,0,1,1.79,7.55,71.54,71.54,0,0,1-2.11,10.92q-.24.74-.51,1.84t-.91,3.5q-.65,2.4-1.44,5.53,4.72-8.1,16.14-19.19T997,231.58q12.7.93,11.5,17.37-.49,6.72-4.28,20l-6.62,23.74a14.63,14.63,0,0,0-.89,4.44q-.34,4.67,1.53,4.81t5.23-2.15a51.23,51.23,0,0,0,5.47-4.2q2.11-1.91,2.93-2.79.56,0,1.64,1.9a5.77,5.77,0,0,1,1,2.61q-2.39,4.33-12.47,11.29t-17,6.45a7.27,7.27,0,0,1-5.5-3.12q-2.14-2.88-1.78-7.74a64.83,64.83,0,0,1,2.54-11.64l7.36-26.13A66.69,66.69,0,0,0,989.95,256q.57-7.84-3.91-8.17-3.36-.25-10,6.87A107.74,107.74,0,0,0,962.79,273a82.78,82.78,0,0,0-9.24,21.1l-5,16.91a27.93,27.93,0,0,1-8.1.35,36.63,36.63,0,0,1-8.71-1.58l15.45-57.08a38.19,38.19,0,0,0,1.18-5.92q.33-4.48-1.54-4.62-2.24-.16-6.52,3.09a43.17,43.17,0,0,0-6.12,5.37q-.56,0-1.64-2a6.19,6.19,0,0,1-1-2.7q2.37-4.14,12.15-10.85T959.83,228.86Z"/><path class="cls-1" d="M1048.49,218.08q.54-2.21,12.87-1.31a24.53,24.53,0,0,1,4.64.72l-6.31,22.07,16.81,1.23q1.3.1,1.12,2.71a12.2,12.2,0,0,1-2.55,6.57l-17.74-1.3-12.85,47.32a14.6,14.6,0,0,0-.89,4.44q-.34,4.67,1.53,4.81t5.23-2.15a51.07,51.07,0,0,0,5.47-4.2q2.11-1.91,3.11-2.78.37,0,1.55,1.9a5.6,5.6,0,0,1,1.12,2.62q-2.38,4.33-12.56,11.29t-16.9,6.46a7.46,7.46,0,0,1-5.68-3.14q-2.14-2.88-1.78-7.74a59.64,59.64,0,0,1,2.54-11.64l13.12-48.42-12-.87q-.56,0-.4-2.28a11.85,11.85,0,0,1,1.14-4,9,9,0,0,1,1.81-2.87l12,.88Z"/><path class="cls-1" d="M1075.77,299.5l22.63-83.41a50.15,50.15,0,0,0,1.72-8.14q.27-3.73-10-4.49-.56,0-.46-1.35a5.32,5.32,0,0,1,1.78-3.81,83.65,83.65,0,0,0,14.57-1.47,128.45,128.45,0,0,0,13.35-2.87q1.44.86,1.22,3.84-.11,1.5-3.92,15.11L1093,299.64a24.89,24.89,0,0,0-.7,4.46q-.34,4.67,1.53,4.81,1.68.12,5-2.17a51,51,0,0,0,5.47-4.2q2.11-1.91,3.11-2.78.37,0,1.55,1.9a5.6,5.6,0,0,1,1.12,2.62q-2.38,4.33-12.56,11.29t-16.9,6.46a7.19,7.19,0,0,1-5.59-3.13q-2-2.87-1.69-7.73A66.52,66.52,0,0,1,1075.77,299.5Z"/><path class="cls-1" d="M1177.6,244.81q9.15.67,15.26,4.5l-15.22,56.53a14.6,14.6,0,0,0-.89,4.44q-.34,4.67,1.53,4.81t5.23-2.15a51.07,51.07,0,0,0,5.47-4.2q2.11-1.91,3.11-2.78.37,0,1.55,1.9a5.6,5.6,0,0,1,1.12,2.62q-2.38,4.33-12.56,11.29t-16.9,6.46a7.46,7.46,0,0,1-5.69-3.14,10.64,10.64,0,0,1-1.81-7.36,38,38,0,0,1,1.2-6.11q.78-2.94,1-3.87a55.7,55.7,0,0,1-4.26,5.6q-2.36,2.74-5.69,6a25.25,25.25,0,0,1-7.31,5,16,16,0,0,1-7.71,1.5,16.89,16.89,0,0,1-13.93-8.53q-4.78-7.86-3.94-19.25,1-13.07,9.68-25.77a67.4,67.4,0,0,1,22.63-20.59Q1163.41,243.77,1177.6,244.81Zm-10.09,9.59q-10.65-.78-20.7,14.73t-11.09,29.7q-1.07,14.57,6.59,15.13,6.35.47,14.52-12.46a99.14,99.14,0,0,0,12-27.1l4.86-17.67Q1172.18,254.74,1167.51,254.39Z"/></svg>