<svg id="Layer_1" data-name="Layer 1" xmlns="http://www.w3.org/2000/svg" viewBox="0 0 629.53 153.98"><defs><style>.cls-1{fill:#1414ef;}.cls-2{fill:#fff;stroke:#1414ef;stroke-miterlimit:10;stroke-width:1.2px;}</style></defs><title>title</title><path class="cls-1" d="M7,15.47H9.91V17H2.28V15.47H5.13V6.27L2.85,7.66,2,6.23,5.67,4H7Z"/><path class="cls-1" d="M13.2,15.49a8.62,8.62,0,0,1-1.19-5,8.66,8.66,0,0,1,1.19-5,4,4,0,0,1,3.47-1.71,4,4,0,0,1,3.47,1.7,8.62,8.62,0,0,1,1.19,5,8.66,8.66,0,0,1-1.19,5,4,4,0,0,1-3.47,1.7A4,4,0,0,1,13.2,15.49Zm5.57-1.08a8.65,8.65,0,0,0,.67-3.91,8.53,8.53,0,0,0-.67-3.88A2.22,2.22,0,0,0,16.67,5.4a2.22,2.22,0,0,0-2.09,1.23,8.53,8.53,0,0,0-.67,3.88,8.66,8.66,0,0,0,.67,3.9,2.21,2.21,0,0,0,2.09,1.25A2.22,2.22,0,0,0,18.77,14.42Z"/><path class="cls-2" d="M51,1.45q2.4,0,5.53-.12t5.62-.12a26.87,26.87,0,0,1,4.92.45A19.91,19.91,0,0,1,72,3.26a17.47,17.47,0,0,1,4.3,2.85,13.07,13.07,0,0,1,3.06,4.34,14.06,14.06,0,0,1,1.2,5.87,15.73,15.73,0,0,1-2,7.6,17.37,17.37,0,0,1-6.11,6.32,16.79,16.79,0,0,1-9.21,2.6,10.26,10.26,0,0,1-3.47-.62,4.93,4.93,0,0,1-2.4-1.53,1.77,1.77,0,0,1-.29-.83,3.78,3.78,0,0,1,0-1.24c.05-.38.14-.58.25-.58a11.58,11.58,0,0,0,4.63.83,7.3,7.3,0,0,0,6.28-3.26,13.87,13.87,0,0,0,2.31-8.22q0-5.53-2.23-8.76T61.37,5.41A13.52,13.52,0,0,0,56.58,6q-1,.5-1,8.59V44.07a25.8,25.8,0,0,0,.66,7q.25,1,2.77,1.61a17.43,17.43,0,0,0,3.68.62q.33,0,.33,1.4a4.66,4.66,0,0,1-.17,1.4q-9.09-.5-11.73-.5-2.23,0-5,.12L41.7,56l-1.65.17a2.84,2.84,0,0,1-.25-1.49q0-1.32.25-1.32a14.09,14.09,0,0,0,3.18-.54q2.11-.54,2.44-1.28.5-1.49.5-7.52V12.76A32.47,32.47,0,0,0,45.67,6q-.25-.66-2.44-1.36a12,12,0,0,0-3.18-.7q-.33,0-.33-1.24t.33-1.49Q48.73,1.45,51,1.45Z"/><path class="cls-2" d="M109.12,19.29q4.54,0,6.77,2.73,0,7-4,7a4.91,4.91,0,0,1-3.22-1.65,5.17,5.17,0,0,0-3.55-1.65,4.43,4.43,0,0,0-4,2.6,11,11,0,0,0-1.45,5.41V44.07a34.6,34.6,0,0,0,.58,7.44q.16.58,2.19,1.2a11.67,11.67,0,0,0,2.77.62c.17,0,.26.4.29,1.2a8.63,8.63,0,0,1,0,1.61q-.66-.08-4.38-.33t-5.62-.25q-2,0-5.74.25t-4.42.33A2.42,2.42,0,0,1,85,54.57q0-1.24.33-1.24a11.52,11.52,0,0,0,3-.62q2-.62,2.19-1.2a27,27,0,0,0,.58-6V32q0-3.88-1.32-5.29a4,4,0,0,0-1.86-1.24,9.41,9.41,0,0,0-2-.5c-.52-.05-.78-.14-.78-.25q0-2.4.41-2.48a117.21,117.21,0,0,0,13.3-2.48,5,5,0,0,1,.66-.17c.22,0,.41.19.58.58a2,2,0,0,1,.21,1q0,.37-.12,1.16T100,24a10.5,10.5,0,0,0-.12,1.12,15.16,15.16,0,0,1,4-4A9.05,9.05,0,0,1,109.12,19.29Z"/><path class="cls-2" d="M136.65,19.29a15.31,15.31,0,0,1,6.94,1.53,13.07,13.07,0,0,1,4.79,3.88A19.21,19.21,0,0,1,151,29.58a14.24,14.24,0,0,1,.91,4.83q0,1.82-.62,2.27a4.69,4.69,0,0,1-2.52.45H129.05q-.58,0-.58.5a16.06,16.06,0,0,0,1.07,5.78,11.36,11.36,0,0,0,3.68,4.87,9.72,9.72,0,0,0,6.24,2.07,22.66,22.66,0,0,0,2.4-.12,12.37,12.37,0,0,0,2.15-.41q1-.29,1.73-.54a7.09,7.09,0,0,0,1.53-.74l1.12-.7q.33-.21,1.65-1.12a1.36,1.36,0,0,1,.41.5,1.6,1.6,0,0,1,.25.83,2.54,2.54,0,0,1-.5,1.57,13.45,13.45,0,0,1-4.87,4.46,15.33,15.33,0,0,1-8.18,2.23A16.73,16.73,0,0,1,124.76,51,17.82,17.82,0,0,1,119.55,38q0-8.34,4.83-13.55A16,16,0,0,1,136.65,19.29Zm-.58,3.8a5.84,5.84,0,0,0-3.55,1.16,7.79,7.79,0,0,0-2.4,2.81,15.76,15.76,0,0,0-1.2,3.1,10.08,10.08,0,0,0-.37,2.44c0,.39.17.58.5.58h13.38q.74,0,.74-1.24a10.71,10.71,0,0,0-1.94-5.87A5.92,5.92,0,0,0,136.07,23.09Z"/><path class="cls-2" d="M169.2,19.21a35.14,35.14,0,0,1,9.58,1.4,46.9,46.9,0,0,1,.91,9.25q0,.66-1.07.66-1.82,0-2-.66a10,10,0,0,0-2.44-4.92,6.46,6.46,0,0,0-5-2A5.93,5.93,0,0,0,165.44,24a3.67,3.67,0,0,0-1.36,3.06,4.8,4.8,0,0,0,.45,2.11A5.16,5.16,0,0,0,166,30.94a20.3,20.3,0,0,0,1.82,1.32q.78.5,2.35,1.32A5.35,5.35,0,0,0,171,34l1.24.66,1.36.74,1.32.78a15.09,15.09,0,0,1,1.45,1l1.28,1a6.5,6.5,0,0,1,1.24,1.16q.37.5,1,1.28a5.32,5.32,0,0,1,.87,1.49,15.68,15.68,0,0,1,.45,1.57,7.67,7.67,0,0,1,.21,1.78,9.74,9.74,0,0,1-4,8.22,15.67,15.67,0,0,1-9.71,3,27.59,27.59,0,0,1-10.66-2.31,33,33,0,0,1-.83-4.58,40.35,40.35,0,0,1-.41-4.75,1.75,1.75,0,0,1,1.16-.41q1.9,0,2,.66a9.12,9.12,0,0,0,3.26,5.58,8.81,8.81,0,0,0,5.66,2.11,6,6,0,0,0,3.8-1.16,4,4,0,0,0,1.49-3.39,5.44,5.44,0,0,0-.21-1.53,4.06,4.06,0,0,0-.79-1.4l-1-1.16a6,6,0,0,0-1.49-1.12q-1.12-.66-1.65-1L166,41.14q-1.53-.78-2.11-1.12A19.22,19.22,0,0,1,158,35.61,8.83,8.83,0,0,1,156,29.7a8.87,8.87,0,0,1,4-7.77A15.92,15.92,0,0,1,169.2,19.21Z"/><path class="cls-2" d="M199.44,19.21a35.13,35.13,0,0,1,9.58,1.4,46.89,46.89,0,0,1,.91,9.25c0,.44-.36.66-1.07.66q-1.82,0-2-.66a10,10,0,0,0-2.44-4.92,6.46,6.46,0,0,0-5-2A5.93,5.93,0,0,0,195.68,24a3.67,3.67,0,0,0-1.36,3.06,4.81,4.81,0,0,0,.45,2.11,5.16,5.16,0,0,0,1.49,1.78,20.23,20.23,0,0,0,1.82,1.32q.78.5,2.35,1.32a5.4,5.4,0,0,0,.83.41l1.24.66,1.36.74,1.32.78a15,15,0,0,1,1.45,1l1.28,1a6.52,6.52,0,0,1,1.24,1.16q.37.5,1,1.28a5.32,5.32,0,0,1,.87,1.49,15.67,15.67,0,0,1,.45,1.57,7.67,7.67,0,0,1,.21,1.78,9.74,9.74,0,0,1-4,8.22,15.67,15.67,0,0,1-9.71,3,27.59,27.59,0,0,1-10.66-2.31,33.09,33.09,0,0,1-.83-4.58,40.35,40.35,0,0,1-.41-4.75,1.75,1.75,0,0,1,1.16-.41q1.9,0,2,.66a9.12,9.12,0,0,0,3.26,5.58,8.81,8.81,0,0,0,5.66,2.11,6,6,0,0,0,3.8-1.16,4,4,0,0,0,1.49-3.39,5.44,5.44,0,0,0-.21-1.53,4.05,4.05,0,0,0-.79-1.4l-.95-1.16A6,6,0,0,0,200,43.17q-1.12-.66-1.65-1l-2.07-1.07q-1.53-.78-2.11-1.12a19.21,19.21,0,0,1-5.87-4.42,8.83,8.83,0,0,1-2.06-5.91,8.87,8.87,0,0,1,4-7.77A15.92,15.92,0,0,1,199.44,19.21Z"/><path class="cls-2" d="M244.71,1.45q2.4,0,5.53-.12t5.62-.12a26.87,26.87,0,0,1,4.92.45,19.91,19.91,0,0,1,4.87,1.61,17.47,17.47,0,0,1,4.3,2.85A13.08,13.08,0,0,1,273,10.45a14.07,14.07,0,0,1,1.2,5.87,15.72,15.72,0,0,1-2,7.6,17.37,17.37,0,0,1-6.11,6.32,16.79,16.79,0,0,1-9.21,2.6,10.26,10.26,0,0,1-3.47-.62,4.93,4.93,0,0,1-2.4-1.53,1.77,1.77,0,0,1-.29-.83,3.78,3.78,0,0,1,0-1.24c.05-.38.14-.58.25-.58a11.58,11.58,0,0,0,4.63.83,7.3,7.3,0,0,0,6.28-3.26,13.87,13.87,0,0,0,2.31-8.22q0-5.53-2.23-8.76T255,5.41a13.52,13.52,0,0,0-4.79.58q-1,.5-1,8.59V44.07a25.8,25.8,0,0,0,.66,7q.25,1,2.77,1.61a17.43,17.43,0,0,0,3.68.62c.22,0,.33.47.33,1.4a4.66,4.66,0,0,1-.17,1.4q-9.09-.5-11.73-.5-2.23,0-5,.12l-4.42.21-1.65.17a2.84,2.84,0,0,1-.25-1.49q0-1.32.25-1.32a14.09,14.09,0,0,0,3.18-.54q2.11-.54,2.44-1.28.5-1.49.5-7.52V12.76a32.48,32.48,0,0,0-.5-6.77q-.25-.66-2.44-1.36a12,12,0,0,0-3.18-.7q-.33,0-.33-1.24t.33-1.49Q242.4,1.45,244.71,1.45Z"/><path class="cls-2" d="M302.79,19.29q4.54,0,6.77,2.73,0,7-4,7a4.92,4.92,0,0,1-3.22-1.65,5.17,5.17,0,0,0-3.55-1.65,4.43,4.43,0,0,0-4,2.6,11,11,0,0,0-1.45,5.41V44.07a34.56,34.56,0,0,0,.58,7.44q.16.58,2.19,1.2a11.68,11.68,0,0,0,2.77.62c.17,0,.26.4.29,1.2a8.59,8.59,0,0,1,0,1.61q-.66-.08-4.38-.33t-5.62-.25q-2,0-5.74.25t-4.42.33a2.42,2.42,0,0,1-.33-1.57q0-1.24.33-1.24a11.52,11.52,0,0,0,3-.62q2-.62,2.19-1.2a27,27,0,0,0,.58-6V32q0-3.88-1.32-5.29a4,4,0,0,0-1.86-1.24,9.4,9.4,0,0,0-2-.5c-.52-.05-.78-.14-.78-.25q0-2.4.41-2.48a117.19,117.19,0,0,0,13.3-2.48,5,5,0,0,1,.66-.17c.22,0,.41.19.58.58a2,2,0,0,1,.21,1q0,.37-.12,1.16T293.66,24a10.5,10.5,0,0,0-.12,1.12,15.16,15.16,0,0,1,4-4A9.05,9.05,0,0,1,302.79,19.29Z"/><path class="cls-2" d="M331,19.29A15.32,15.32,0,0,1,338,20.82a13.07,13.07,0,0,1,4.79,3.88,19.2,19.2,0,0,1,2.64,4.87,14.24,14.24,0,0,1,.91,4.83q0,1.82-.62,2.27a4.69,4.69,0,0,1-2.52.45H323.44q-.58,0-.58.5a16.07,16.07,0,0,0,1.07,5.78,11.36,11.36,0,0,0,3.68,4.87,9.72,9.72,0,0,0,6.24,2.07,22.64,22.64,0,0,0,2.4-.12,12.38,12.38,0,0,0,2.15-.41q1-.29,1.73-.54a7.08,7.08,0,0,0,1.53-.74l1.12-.7q.33-.21,1.65-1.12a1.36,1.36,0,0,1,.41.5,1.6,1.6,0,0,1,.25.83,2.53,2.53,0,0,1-.5,1.57,13.45,13.45,0,0,1-4.87,4.46,15.32,15.32,0,0,1-8.18,2.23A16.73,16.73,0,0,1,319.14,51,17.82,17.82,0,0,1,313.94,38q0-8.34,4.83-13.55A16,16,0,0,1,331,19.29Zm-.58,3.8a5.84,5.84,0,0,0-3.55,1.16,7.79,7.79,0,0,0-2.4,2.81,15.76,15.76,0,0,0-1.2,3.1,10.09,10.09,0,0,0-.37,2.44c0,.39.17.58.5.58h13.38q.74,0,.74-1.24a10.71,10.71,0,0,0-1.94-5.87A5.92,5.92,0,0,0,330.46,23.09Z"/><path class="cls-2" d="M363.59,19.21a35.13,35.13,0,0,1,9.58,1.4,46.93,46.93,0,0,1,.91,9.25q0,.66-1.07.66-1.82,0-2-.66a10,10,0,0,0-2.44-4.92,6.46,6.46,0,0,0-5-2A5.93,5.93,0,0,0,359.83,24a3.67,3.67,0,0,0-1.36,3.06,4.81,4.81,0,0,0,.45,2.11,5.16,5.16,0,0,0,1.49,1.78,20.44,20.44,0,0,0,1.82,1.32q.78.5,2.35,1.32a5.35,5.35,0,0,0,.83.41l1.24.66,1.36.74,1.32.78a15.13,15.13,0,0,1,1.45,1l1.28,1a6.5,6.5,0,0,1,1.24,1.16q.37.5,1,1.28a5.34,5.34,0,0,1,.87,1.49,15.81,15.81,0,0,1,.45,1.57,7.7,7.7,0,0,1,.21,1.78,9.74,9.74,0,0,1-4,8.22,15.67,15.67,0,0,1-9.71,3,27.59,27.59,0,0,1-10.66-2.31,32.94,32.94,0,0,1-.83-4.58,40.35,40.35,0,0,1-.41-4.75,1.75,1.75,0,0,1,1.16-.41q1.9,0,2,.66a9.12,9.12,0,0,0,3.26,5.58,8.81,8.81,0,0,0,5.66,2.11,6,6,0,0,0,3.8-1.16,4,4,0,0,0,1.49-3.39,5.44,5.44,0,0,0-.21-1.53,4.05,4.05,0,0,0-.78-1.4l-1-1.16a6,6,0,0,0-1.49-1.12q-1.11-.66-1.65-1l-2.07-1.07q-1.53-.78-2.11-1.12a19.21,19.21,0,0,1-5.87-4.42,8.83,8.83,0,0,1-2.07-5.91,8.87,8.87,0,0,1,4-7.77A15.92,15.92,0,0,1,363.59,19.21Z"/><path class="cls-2" d="M393.83,19.21a35.14,35.14,0,0,1,9.58,1.4,46.9,46.9,0,0,1,.91,9.25q0,.66-1.07.66-1.82,0-2-.66a10,10,0,0,0-2.44-4.92,6.46,6.46,0,0,0-5-2A5.93,5.93,0,0,0,390.07,24a3.67,3.67,0,0,0-1.36,3.06,4.8,4.8,0,0,0,.45,2.11,5.16,5.16,0,0,0,1.49,1.78,20.3,20.3,0,0,0,1.82,1.32q.78.5,2.35,1.32a5.35,5.35,0,0,0,.83.41l1.24.66,1.36.74,1.32.78a15.09,15.09,0,0,1,1.45,1l1.28,1a6.5,6.5,0,0,1,1.24,1.16q.37.5,1,1.28a5.32,5.32,0,0,1,.87,1.49,15.68,15.68,0,0,1,.45,1.57,7.67,7.67,0,0,1,.21,1.78,9.74,9.74,0,0,1-4,8.22,15.67,15.67,0,0,1-9.71,3,27.59,27.59,0,0,1-10.66-2.31,33,33,0,0,1-.83-4.58,40.35,40.35,0,0,1-.41-4.75,1.75,1.75,0,0,1,1.16-.41q1.9,0,2,.66a9.12,9.12,0,0,0,3.26,5.58,8.81,8.81,0,0,0,5.66,2.11,6,6,0,0,0,3.8-1.16,4,4,0,0,0,1.49-3.39,5.44,5.44,0,0,0-.21-1.53,4.06,4.06,0,0,0-.79-1.4l-1-1.16a6,6,0,0,0-1.49-1.12q-1.12-.66-1.65-1l-2.07-1.07q-1.53-.78-2.11-1.12a19.22,19.22,0,0,1-5.87-4.42,8.83,8.83,0,0,1-2.07-5.91,8.87,8.87,0,0,1,4-7.77A15.92,15.92,0,0,1,393.83,19.21Z"/><path class="cls-2" d="M50.46,80.61q1.49,0,11.4-.5A3.83,3.83,0,0,1,62,81.6c0,.77-.12,1.16-.29,1.16a9.14,9.14,0,0,0-3,.58q-1.65.58-1.65,1.73a5.19,5.19,0,0,0,.74,2.15l8.76,16q.41.41.83-.17,3.55-5.29,6.86-10.91t3.3-7.1q0-.91-1.53-1.61a9.71,9.71,0,0,0-4-.7q-.33,0-.33-1.16a2.85,2.85,0,0,1,.25-1.49q8.34.5,9.91.5,1.9,0,3.43-.08t3.14-.21l2.52-.21a5.48,5.48,0,0,1,.17,1.32c0,.88-.11,1.32-.33,1.32a11.48,11.48,0,0,0-3.43.74,6.72,6.72,0,0,0-3.18,2Q81.77,89,75.58,99.08t-6.2,11.11v12.89a31.6,31.6,0,0,0,.66,7.44q.16.58,2.27,1.28a11.59,11.59,0,0,0,2.77.7q.33,0,.33,1.32a4.29,4.29,0,0,1-.17,1.32l-3.14-.25q-2.07-.17-3.8-.25t-3.39-.08q-2.23,0-6.07.25t-4.75.33a1.91,1.91,0,0,1-.33-1.32q0-1.32.25-1.32a11.26,11.26,0,0,0,3.06-.66q2.06-.66,2.31-1.32a29.48,29.48,0,0,0,.66-7.27V111a5.18,5.18,0,0,0-.54-1.61q-.54-1.2-1.86-3.64t-2.31-4.21l-3.22-5.74-3.3-5.87q-2.4-4.46-4.3-5.7a8.27,8.27,0,0,0-2.44-1,9.87,9.87,0,0,0-2.35-.46c-.17,0-.26-.27-.29-.83a2.52,2.52,0,0,1,.12-1.16Q41.54,80.61,50.46,80.61Z"/><path class="cls-2" d="M104.55,98.29a18.21,18.21,0,0,1,13.26,5.41,17.7,17.7,0,0,1,5.49,13.09,18.75,18.75,0,0,1-32,13.14,18.6,18.6,0,0,1,0-26.27A18.1,18.1,0,0,1,104.55,98.29Zm-1.07,3.88a6.65,6.65,0,0,0-6,3.76,17.76,17.76,0,0,0-2.15,9A24.09,24.09,0,0,0,98,126.54q2.68,5,7.48,5a6.73,6.73,0,0,0,6.07-3.8,17.57,17.57,0,0,0,2.19-8.92,28.36,28.36,0,0,0-1.07-8,14.56,14.56,0,0,0-3.47-6.16A7.66,7.66,0,0,0,103.47,102.17Z"/><path class="cls-2" d="M163.86,107.21v16.36a18.3,18.3,0,0,0,.66,5.78,1.71,1.71,0,0,0,.95.66,6.4,6.4,0,0,0,1.45.33,12.27,12.27,0,0,0,1.36.08,1.52,1.52,0,0,1,.7.08c.22.06.33.3.33.74a6.29,6.29,0,0,1-.17,1.12c-.11.52-.28.79-.5.79a19,19,0,0,0-2.93.29l-3.43.58q-1.65.29-3.14.62t-3.3.66q-.58,0-.58-1.32v-3.63q-.08-.41-.25-.41a18.45,18.45,0,0,1-5,3.72,13.84,13.84,0,0,1-6.53,1.65,8.65,8.65,0,0,1-4.92-1.41,10,10,0,0,1-3.3-3.63,17.76,17.76,0,0,1-1.73-4.79,25.19,25.19,0,0,1-.54-5.21V111q0-3.88-1.32-5.29a4.59,4.59,0,0,0-1.9-1.24,8.69,8.69,0,0,0-2-.5c-.55-.05-.83-.14-.83-.25q0-2.4.41-2.48a62.32,62.32,0,0,0,6.77-1,64.74,64.74,0,0,0,6.53-1.49,1.34,1.34,0,0,0,.33-.08,1.4,1.4,0,0,1,.33-.08q.41,0,.62.58a2.93,2.93,0,0,1,.21.91q-.74,5.62-.74,7.27v9.91q0,6.44,1.82,9.25t5.87,2.81a6.48,6.48,0,0,0,4.46-1.61,4.4,4.4,0,0,0,1.82-3.1V111q0-3.88-1.32-5.29a4,4,0,0,0-1.86-1.24,9.31,9.31,0,0,0-2-.5c-.55-.05-.83-.14-.83-.25q0-2.4.5-2.48a63.42,63.42,0,0,0,6.69-1A64.77,64.77,0,0,0,163,98.79a4.79,4.79,0,0,0,.66-.17q.41,0,.66.58a1.53,1.53,0,0,1,.17.91Q163.86,105.73,163.86,107.21Z"/><path class="cls-2" d="M200.62,98.29q10.66,0,10.66,16.94v7.85a34.56,34.56,0,0,0,.58,7.44q.16.58,2.27,1.2a12.65,12.65,0,0,0,2.85.62c.17,0,.26.4.29,1.2a4.69,4.69,0,0,1-.12,1.61q-.5-.08-4.34-.33t-5.74-.25q-2,0-5.49.25t-4.25.33a2.42,2.42,0,0,1-.33-1.57q0-1.24.33-1.24a9.82,9.82,0,0,0,2.77-.62q1.86-.62,2-1.2a23.72,23.72,0,0,0,.66-6v-7.85q0-6.86-1.86-9.58T195,104.32a7.65,7.65,0,0,0-4.63,1.45,4,4,0,0,0-2,3.1v14.21a34.6,34.6,0,0,0,.58,7.44q.16.58,2.19,1.2a11.88,11.88,0,0,0,2.69.62c.22,0,.34.4.37,1.2a4.67,4.67,0,0,1-.12,1.61q-.66-.08-4.34-.33t-5.58-.25q-2,0-5.74.25t-4.42.33a2.42,2.42,0,0,1-.33-1.57q0-1.24.33-1.24a11.52,11.52,0,0,0,3-.62q2-.62,2.19-1.2a27,27,0,0,0,.58-6V111q0-3.88-1.32-5.29a4,4,0,0,0-1.86-1.24,9.41,9.41,0,0,0-2-.5c-.52-.05-.79-.14-.79-.25q0-2.4.41-2.48a117.19,117.19,0,0,0,13.3-2.48.54.54,0,0,1,.21-.12.79.79,0,0,1,.25,0h.21c.22,0,.41.19.58.58a2.52,2.52,0,0,1,.25.91,28.17,28.17,0,0,0-.33,3,.65.65,0,0,0,.08.41,1.23,1.23,0,0,0,.41-.25,18.32,18.32,0,0,1,5.08-3.47A14.46,14.46,0,0,1,200.62,98.29Z"/><path class="cls-2" d="M237.64,98.46a26.18,26.18,0,0,1,6.86,1.07,25.46,25.46,0,0,0,6.61,1.07h4.71c.11,0,.3.36.58,1.07a5.09,5.09,0,0,1,.41,1.65q0,1.16-.5,1.16h-5.37c-.22,0-.33.08-.33.25s.25.77.74,2.15a11.7,11.7,0,0,1,.74,4,12,12,0,0,1-4.09,8.8,14.15,14.15,0,0,1-10.2,3.92,34.17,34.17,0,0,1-5.12-.33,4.43,4.43,0,0,0-1.82,1.53,3.52,3.52,0,0,0-.83,2,1.7,1.7,0,0,0,.78,1.4,5.54,5.54,0,0,0,2.44.83q1.65.25,2.81.33t3.3.17h1.24q8.26.25,12.1,2.27a6.5,6.5,0,0,1,3.84,6.07q.08,6.2-5.95,10.74a22.57,22.57,0,0,1-14,4.54,21.47,21.47,0,0,1-10.53-2.31q-4.5-2.4-4.5-6.77a6.43,6.43,0,0,1,2.35-4.63,13.66,13.66,0,0,1,5.08-3.14,9.43,9.43,0,0,1-4-2.52,6,6,0,0,1-1.82-4.34q0-3.55,6.11-7.35a10.94,10.94,0,0,1-4.46-4.25,12.15,12.15,0,0,1-2.07-6.73,11.15,11.15,0,0,1,4.3-9.25A16.42,16.42,0,0,1,237.64,98.46ZM249,141.66q0-2.89-4.17-3.84a52.47,52.47,0,0,0-11.19-1,1.34,1.34,0,0,0-.41.08,3.62,3.62,0,0,0-.41.25q-1.08.41-1.65.7a7.12,7.12,0,0,0-1.32.91,4,4,0,0,0-1.12,1.45,4.8,4.8,0,0,0-.37,2q0,3,3.14,5a12.87,12.87,0,0,0,7,2A12.48,12.48,0,0,0,246.1,147,6.44,6.44,0,0,0,249,141.66Zm-17.68-31.23a13.07,13.07,0,0,0,1.65,6.82,5.13,5.13,0,0,0,4.63,2.77,4.91,4.91,0,0,0,4.5-2.35,11,11,0,0,0,1.45-5.82,13.57,13.57,0,0,0-1.65-7.1,5.28,5.28,0,0,0-4.79-2.73,4.66,4.66,0,0,0-4.38,2.56A12,12,0,0,0,231.36,110.43Z"/><path class="cls-2" d="M279.44,94.33a13,13,0,0,1,5.2-10.45,18.05,18.05,0,0,1,11.73-4.25,28.87,28.87,0,0,1,4,.25q1.74.25,4.83,1t4.25,1a73.67,73.67,0,0,1,1,12.72.9.9,0,0,1-1,.74q-2.23,0-2.4-.74a14.52,14.52,0,0,0-3.55-7.43,9.38,9.38,0,0,0-7.44-3.64,7.62,7.62,0,0,0-5.82,2.15,8.09,8.09,0,0,0-2,5.78,9.3,9.3,0,0,0,.29,2.35,5.82,5.82,0,0,0,1.16,2.19q.87,1.08,1.4,1.78a9.82,9.82,0,0,0,2.07,1.78q1.53,1.08,2.07,1.49t2.48,1.61a24.9,24.9,0,0,0,2.35,1.36,30.34,30.34,0,0,0,2.77,1.78q2.27,1.36,3.18,2t2.64,2.11a11.91,11.91,0,0,1,2.52,2.81,17,17,0,0,1,1.45,3.35,13.92,13.92,0,0,1,.66,4.34A13.41,13.41,0,0,1,308,131.34a19.11,19.11,0,0,1-12.35,4.3q-5,0-15.2-2.31a72.22,72.22,0,0,1-1.36-7.48,55.93,55.93,0,0,1-.62-5.91q.08-.66,1.32-.66,2.15,0,2.4.66a16,16,0,0,0,1.16,3.26,24.06,24.06,0,0,0,2.27,3.8,10.89,10.89,0,0,0,3.88,3.3,11.62,11.62,0,0,0,5.49,1.28,9.25,9.25,0,0,0,6.44-2.31Q304,127,304,122.33a7.2,7.2,0,0,0-.54-2.73,9.52,9.52,0,0,0-1.24-2.23,12.07,12.07,0,0,0-2.07-2q-1.36-1.07-2.27-1.65t-2.69-1.61l-2.52-1.45a5.66,5.66,0,0,0-.91-.66q-2.4-1.49-3.64-2.31a39.85,39.85,0,0,1-3.18-2.44,16.34,16.34,0,0,1-2.93-3,15.62,15.62,0,0,1-1.78-3.47A12.43,12.43,0,0,1,279.44,94.33Z"/><path class="cls-2" d="M335.45,98.29a20,20,0,0,1,7.81,1.45,13.18,13.18,0,0,1,4.92,3.18,10.21,10.21,0,0,1-1,4.67,3,3,0,0,1-2.85,1.86,3.7,3.7,0,0,1-2.52-.83,9.37,9.37,0,0,1-1.94-2.73q-1.9-3.8-5.54-3.8t-5.66,3.59a17.66,17.66,0,0,0-2.11,9q0,7.44,3.06,11a9.75,9.75,0,0,0,7.77,3.59,22.66,22.66,0,0,0,2.4-.12,12.37,12.37,0,0,0,2.15-.41q1-.29,1.73-.54a7.1,7.1,0,0,0,1.53-.74l1.12-.7q.33-.21,1.65-1.12a1.36,1.36,0,0,1,.41.5,1.6,1.6,0,0,1,.25.83,2.54,2.54,0,0,1-.5,1.57,13.46,13.46,0,0,1-4.87,4.46,15.17,15.17,0,0,1-8.1,2.23,16.71,16.71,0,0,1-12.52-5.37,18.24,18.24,0,0,1-5.16-13.14,18.78,18.78,0,0,1,5-13A16.64,16.64,0,0,1,335.45,98.29Z"/><path class="cls-2" d="M380.64,98.29q10.57,0,10.57,16.28v8.51a30.34,30.34,0,0,0,.66,7.44q.08.58,2.19,1.2a12.65,12.65,0,0,0,2.85.62c.17,0,.26.4.29,1.2a8.63,8.63,0,0,1,0,1.61q-.58-.08-4.42-.33t-5.66-.25q-2.07,0-5.58.25t-4.34.33a3.09,3.09,0,0,1-.25-1.57q0-1.24.25-1.24a9.87,9.87,0,0,0,2.85-.62q1.86-.62,2.11-1.2a31.29,31.29,0,0,0,.5-6v-8.1q0-6.86-1.86-9.46t-5.91-2.6a7.91,7.91,0,0,0-4.54,1.4,3.9,3.9,0,0,0-2.07,3.14v14.21a30.34,30.34,0,0,0,.66,7.44q.16.58,2.19,1.2a11.68,11.68,0,0,0,2.77.62c.17,0,.26.4.29,1.2a4.69,4.69,0,0,1-.12,1.61q-.66-.08-4.34-.33t-5.58-.25q-2,0-5.74.25t-4.42.33a2.42,2.42,0,0,1-.33-1.57q0-1.24.33-1.24a11.52,11.52,0,0,0,3-.62q2-.62,2.19-1.2a26.56,26.56,0,0,0,.58-5.95V90.19a32.61,32.61,0,0,0-.41-5.62q-.41-1.32-4.3-1.32h-.74q-.5,0-.5-1.32t.5-1.32q2.56-.25,4.87-.66t3.84-.83q1.53-.41,2.64-.83t2.35-.83h.17a.89.89,0,0,1,.66.46,2.27,2.27,0,0,1,.41.87,26.62,26.62,0,0,0-1,7.77v16.69c0,.33.11.5.33.5.05,0,.17-.08.33-.25A15.73,15.73,0,0,1,374,99.9,15.23,15.23,0,0,1,380.64,98.29Z"/><path class="cls-2" d="M420,98.29a18.21,18.21,0,0,1,13.26,5.41,17.7,17.7,0,0,1,5.49,13.09A18.84,18.84,0,1,1,420,98.29ZM419,102.17a6.65,6.65,0,0,0-6,3.76,17.76,17.76,0,0,0-2.15,9,24.09,24.09,0,0,0,2.69,11.65q2.68,5,7.48,5a6.73,6.73,0,0,0,6.07-3.8,17.57,17.57,0,0,0,2.19-8.92,28.36,28.36,0,0,0-1.07-8,14.56,14.56,0,0,0-3.47-6.16A7.66,7.66,0,0,0,419,102.17Z"/><path class="cls-2" d="M457.63,122.91a33.9,33.9,0,0,0,.58,7.44q.16.58,2,1.28a9,9,0,0,0,2.52.7q.25,0,.29,1.16a4.5,4.5,0,0,1-.12,1.57l-3.1-.21-3.51-.21q-1.57-.08-3-.08-1.57,0-3.14.08l-3.47.21-3.14.21a2.33,2.33,0,0,1-.33-1.53c0-.8.11-1.2.33-1.2a8.83,8.83,0,0,0,2.77-.7q1.86-.7,2-1.28a27.38,27.38,0,0,0,.66-6.11V89.86a28.76,28.76,0,0,0-.5-5.62q-.41-1.32-4.13-1.32h-.83q-.5,0-.5-1,0-1.32.5-1.32,2.56-.25,4.87-.66t3.84-.83q1.53-.41,2.64-.78t1.78-.62l.58-.25h.17c.22,0,.45.17.7.5a2.54,2.54,0,0,1,.45.83,26.11,26.11,0,0,0-1,7.77Z"/><path class="cls-2" d="M485,98.29q5.12,0,7.68,2.69t2.56,9.21v16.28A3.77,3.77,0,0,0,496,129a2.48,2.48,0,0,0,2,.87,5.15,5.15,0,0,0,2.81-1.07c.33.11.5.41.5.91a4.91,4.91,0,0,1-.5,2.48,20.43,20.43,0,0,1-3.3,2.07,8.61,8.61,0,0,1-4,1.07,6,6,0,0,1-3.72-1.41,6.78,6.78,0,0,1-2.4-3.06l-.62.54q-.54.46-1.49,1.12a24.47,24.47,0,0,1-2.15,1.32,13.18,13.18,0,0,1-2.81,1.12,12,12,0,0,1-3.26.45,9.86,9.86,0,0,1-6.73-2.27,7.85,7.85,0,0,1-2.6-6.24,7.61,7.61,0,0,1,.95-3.72,9.87,9.87,0,0,1,2.27-2.85,16.92,16.92,0,0,1,3.55-2.19,33.8,33.8,0,0,1,3.84-1.61q1.61-.54,4.13-1.28t3.51-1.07a1.3,1.3,0,0,0,.74-1.32v-4.54a7.09,7.09,0,0,0-1.32-4.54,4.31,4.31,0,0,0-3.55-1.65,5,5,0,0,0-3.88,1.53,6.18,6.18,0,0,0-1.4,4.34,2.68,2.68,0,0,1-1.24,2.44,5.14,5.14,0,0,1-2.81.78q-3.06,0-4.3-2,0-4,5.41-7.43A20.72,20.72,0,0,1,485,98.29ZM481.26,130a6.4,6.4,0,0,0,3.84-1.16,3.27,3.27,0,0,0,1.61-2.64v-8.43q-.58.25-2.44.83t-2.85,1a22.51,22.51,0,0,0-2.31,1.16,5,5,0,0,0-1.94,1.82,4.55,4.55,0,0,0-.62,2.31,5.09,5.09,0,0,0,1.32,3.88A4.75,4.75,0,0,0,481.26,130Z"/><path class="cls-2" d="M529.18,98.29q4.54,0,6.77,2.73,0,7-4,7a4.92,4.92,0,0,1-3.22-1.65,5.17,5.17,0,0,0-3.55-1.65,4.43,4.43,0,0,0-4,2.6,11,11,0,0,0-1.45,5.41v10.33a34.56,34.56,0,0,0,.58,7.44q.16.58,2.19,1.2a11.68,11.68,0,0,0,2.77.62c.17,0,.26.4.29,1.2a8.6,8.6,0,0,1,0,1.61q-.66-.08-4.38-.33t-5.62-.25q-2,0-5.74.25t-4.42.33a2.42,2.42,0,0,1-.33-1.57q0-1.24.33-1.24a11.52,11.52,0,0,0,3-.62q2-.62,2.19-1.2a27,27,0,0,0,.58-6V111q0-3.88-1.32-5.29a4,4,0,0,0-1.86-1.24,9.41,9.41,0,0,0-2-.5c-.52-.05-.78-.14-.78-.25q0-2.4.41-2.48a117.17,117.17,0,0,0,13.3-2.48,5,5,0,0,1,.66-.17c.22,0,.41.19.58.58a2,2,0,0,1,.21,1q0,.37-.12,1.16T520,103a10.64,10.64,0,0,0-.12,1.12,15.17,15.17,0,0,1,4-4A9.05,9.05,0,0,1,529.18,98.29Z"/><path class="cls-2" d="M554,98.21a35.13,35.13,0,0,1,9.58,1.4,46.93,46.93,0,0,1,.91,9.25c0,.44-.36.66-1.07.66q-1.82,0-2-.66a10,10,0,0,0-2.44-4.92,6.46,6.46,0,0,0-5-2A5.93,5.93,0,0,0,550.2,103a3.67,3.67,0,0,0-1.36,3.06,4.82,4.82,0,0,0,.45,2.11,5.16,5.16,0,0,0,1.49,1.78,20.37,20.37,0,0,0,1.82,1.32q.78.5,2.35,1.32a5.4,5.4,0,0,0,.83.41l1.24.66,1.36.74,1.32.78a15.09,15.09,0,0,1,1.45,1l1.28,1a6.52,6.52,0,0,1,1.24,1.16q.37.5,1,1.28a5.34,5.34,0,0,1,.87,1.49,15.8,15.8,0,0,1,.45,1.57,7.7,7.7,0,0,1,.21,1.78,9.74,9.74,0,0,1-4,8.22,15.67,15.67,0,0,1-9.71,3,27.59,27.59,0,0,1-10.66-2.31,33,33,0,0,1-.83-4.58,40.35,40.35,0,0,1-.41-4.75,1.75,1.75,0,0,1,1.16-.41q1.9,0,2,.66a9.12,9.12,0,0,0,3.26,5.58,8.81,8.81,0,0,0,5.66,2.11,6,6,0,0,0,3.8-1.16,4,4,0,0,0,1.49-3.39,5.44,5.44,0,0,0-.21-1.53,4,4,0,0,0-.78-1.4l-.95-1.16a6,6,0,0,0-1.49-1.12q-1.12-.66-1.65-1l-2.07-1.07q-1.53-.78-2.11-1.12a19.21,19.21,0,0,1-5.87-4.42,9.54,9.54,0,0,1,1.9-13.67A15.92,15.92,0,0,1,554,98.21Z"/></svg>