<svg id="Layer_1" data-name="Layer 1" xmlns="http://www.w3.org/2000/svg" viewBox="0 0 629.53 156.39"><defs><style>.cls-1{fill:#1414ef;}.cls-2{fill:#fff;stroke:#1414ef;stroke-miterlimit:10;stroke-width:1.2px;}</style></defs><title>title-5-narrow</title><path class="cls-1" d="M19.06,9.71a3.6,3.6,0,0,1,1.44,1.46A4.5,4.5,0,0,1,21,13.34a4.31,4.31,0,0,1-.56,2.22,3.81,3.81,0,0,1-1.61,1.49,5.33,5.33,0,0,1-2.44.53A6.92,6.92,0,0,1,14,17.15a5.64,5.64,0,0,1-2-1.15l.67-1.41A5.78,5.78,0,0,0,16.41,16a2.79,2.79,0,0,0,2-.69,2.58,2.58,0,0,0,.72-2,2.49,2.49,0,0,0-2.65-2.65,3.53,3.53,0,0,0-2.83,1.33H12.45V4.39h8V5.93H14.34V10a3.88,3.88,0,0,1,2.57-.85A4.33,4.33,0,0,1,19.06,9.71Z"/><path class="cls-2" d="M39.27,29.7A28.29,28.29,0,0,1,47.2,9.63,25.45,25.45,0,0,1,66.45,1.2q7.27,0,19.17,3.06.25.08.7,5.49t.45,6.4q0,1-1.65,1a3,3,0,0,1-1.82-.5,15,15,0,0,0-.7-2.31,16.36,16.36,0,0,0-1.65-2.93,12.1,12.1,0,0,0-2.89-3A16.52,16.52,0,0,0,73.43,6.2a21.59,21.59,0,0,0-6.65-.95,14.6,14.6,0,0,0-12.64,6.44Q49.6,18.14,49.6,28.21A31.68,31.68,0,0,0,51.7,39.66,22.52,22.52,0,0,0,58.4,49a16.15,16.15,0,0,0,10.7,3.84q5.2,0,7.93-1.57a2.16,2.16,0,0,0,.83-1.9l-.08-5.95v-.58a25.11,25.11,0,0,0-.58-6.69q-.33-1.07-2.44-1.57a15.89,15.89,0,0,0-3.51-.5q-.33,0-.33-1.2a2.33,2.33,0,0,1,.33-1.53q.91,0,5,.25t6.57.25l10-.5a4.44,4.44,0,0,1,.25,1.4c0,.94-.11,1.4-.33,1.4a10.55,10.55,0,0,0-2.19.5,21.57,21.57,0,0,0-2.44.83q-1.07.66-1.07,6,0,1.74,0,3.47t0,1.9a7.12,7.12,0,0,0,.41,2.56,7,7,0,0,1,.41,1.24q0,1.16-1.82,2-3.31,1.49-4.87,2.07a43.71,43.71,0,0,1-6,1.4,53.54,53.54,0,0,1-9.79.83,24.55,24.55,0,0,1-18.55-8.1A27,27,0,0,1,39.27,29.7Z"/><path class="cls-2" d="M112.14,44.57A30.37,30.37,0,0,0,112.8,52q.16.58,2.23,1.2a12.15,12.15,0,0,0,2.81.62c.22,0,.34.4.37,1.2a4.7,4.7,0,0,1-.12,1.61q-.58-.08-4.42-.33T108,56.05q-2.07,0-5.82.25t-4.34.33a2.42,2.42,0,0,1-.33-1.57q0-1.24.33-1.24a12,12,0,0,0,3-.62q2.06-.62,2.23-1.2a27,27,0,0,0,.58-6V32.51q0-3.88-1.32-5.29A4.6,4.6,0,0,0,100.4,26a8.68,8.68,0,0,0-2-.5c-.55-.05-.83-.14-.83-.25q0-2.4.5-2.48a63.43,63.43,0,0,0,6.69-1,64.84,64.84,0,0,0,6.53-1.49,4.81,4.81,0,0,0,.66-.17q.41,0,.66.58a1.52,1.52,0,0,1,.17.91,70.79,70.79,0,0,0-.66,7.1ZM103.54,10a5,5,0,0,1-1.49-3.63,4.89,4.89,0,0,1,1.49-3.59,5.12,5.12,0,0,1,8.76,3.59A5,5,0,0,1,110.81,10a5.09,5.09,0,0,1-7.27,0Z"/><path class="cls-2" d="M152.7,25q-1.07-2.23-5.78-2.23-.25,0-.25-1.16a2.85,2.85,0,0,1,.25-1.49q1.16,0,4,.25t4.71.25q1.86,0,4.83-.25t4-.25a2.4,2.4,0,0,1,.25,1.32q0,1.32-.5,1.32a9.84,9.84,0,0,0-3.22.79,4.79,4.79,0,0,0-2.81,2.35l-13.8,29.16a5.6,5.6,0,0,1-1.07,1.4,2.09,2.09,0,0,1-1.4.74q-.83,0-1-.5-1.65-3.72-4.5-10.29t-4.92-11.11q-2.07-4.54-4.71-10.24-1-2.31-5.37-2.31-.33,0-.33-1.32a1.91,1.91,0,0,1,.33-1.32q.74,0,4.38.25t5.62.25q2,0,5.7-.25t4.3-.25a2.69,2.69,0,0,1,.21,1.49q0,1.16-.37,1.16a12.12,12.12,0,0,0-2.93.5q-1.86.5-1.86,1.32a1.54,1.54,0,0,0,.17.83l8.18,19L152.28,28Q153.28,25.9,152.7,25Z"/><path class="cls-2" d="M183.18,44.57a30.37,30.37,0,0,0,.66,7.44q.16.58,2.23,1.2a12.16,12.16,0,0,0,2.81.62c.22,0,.34.4.37,1.2a4.68,4.68,0,0,1-.12,1.61q-.58-.08-4.42-.33t-5.66-.25q-2.07,0-5.82.25t-4.34.33a2.42,2.42,0,0,1-.33-1.57q0-1.24.33-1.24a12,12,0,0,0,3-.62q2.06-.62,2.23-1.2a27,27,0,0,0,.58-6V32.51q0-3.88-1.32-5.29a4.59,4.59,0,0,0-1.9-1.24,8.69,8.69,0,0,0-2-.5c-.55-.05-.83-.14-.83-.25q0-2.4.5-2.48a63.44,63.44,0,0,0,6.69-1,64.8,64.8,0,0,0,6.53-1.49,4.77,4.77,0,0,0,.66-.17q.41,0,.66.58a1.52,1.52,0,0,1,.17.91,70.79,70.79,0,0,0-.66,7.1ZM174.59,10a5,5,0,0,1-1.49-3.63,4.89,4.89,0,0,1,1.49-3.59,5.12,5.12,0,0,1,8.76,3.59A5,5,0,0,1,181.86,10a5.09,5.09,0,0,1-7.27,0Z"/><path class="cls-2" d="M220.28,19.79q10.66,0,10.66,16.94v7.85a34.6,34.6,0,0,0,.58,7.44q.16.58,2.27,1.2a12.66,12.66,0,0,0,2.85.62c.17,0,.26.4.29,1.2a4.66,4.66,0,0,1-.12,1.61q-.5-.08-4.34-.33t-5.74-.25q-2,0-5.49.25t-4.25.33a2.42,2.42,0,0,1-.33-1.57q0-1.24.33-1.24a9.82,9.82,0,0,0,2.77-.62q1.86-.62,2-1.2a23.75,23.75,0,0,0,.66-6V38.13q0-6.86-1.86-9.58t-5.91-2.73A7.65,7.65,0,0,0,210,27.26a4,4,0,0,0-2,3.1V44.57a34.6,34.6,0,0,0,.58,7.44q.16.58,2.19,1.2a11.88,11.88,0,0,0,2.68.62c.22,0,.34.4.37,1.2a4.7,4.7,0,0,1-.12,1.61q-.66-.08-4.34-.33t-5.58-.25q-2,0-5.74.25t-4.42.33a2.42,2.42,0,0,1-.33-1.57q0-1.24.33-1.24a11.52,11.52,0,0,0,3-.62q2-.62,2.19-1.2a27,27,0,0,0,.58-6V32.51q0-3.88-1.32-5.29A4,4,0,0,0,196.28,26a9.41,9.41,0,0,0-2-.5c-.52-.05-.78-.14-.78-.25q0-2.4.41-2.48a117.21,117.21,0,0,0,13.3-2.48.54.54,0,0,1,.21-.12.79.79,0,0,1,.25,0h.21c.22,0,.41.19.58.58a2.52,2.52,0,0,1,.25.91,28.17,28.17,0,0,0-.33,3,.65.65,0,0,0,.08.41,1.23,1.23,0,0,0,.41-.25A18.31,18.31,0,0,1,214,21.27,14.46,14.46,0,0,1,220.28,19.79Z"/><path class="cls-2" d="M257.29,20A26.18,26.18,0,0,1,264.14,21a25.46,25.46,0,0,0,6.61,1.07h4.71c.11,0,.3.36.58,1.07a5.08,5.08,0,0,1,.41,1.65q0,1.16-.5,1.16h-5.37c-.22,0-.33.08-.33.25s.25.77.74,2.15a11.69,11.69,0,0,1,.74,4,12,12,0,0,1-4.09,8.8,14.16,14.16,0,0,1-10.2,3.92,34.18,34.18,0,0,1-5.12-.33,4.44,4.44,0,0,0-1.82,1.53,3.52,3.52,0,0,0-.83,2,1.7,1.7,0,0,0,.79,1.4,5.54,5.54,0,0,0,2.44.83q1.65.25,2.81.33T259,51h1.24q8.26.25,12.1,2.27a6.5,6.5,0,0,1,3.84,6.07q.08,6.2-5.95,10.74a22.58,22.58,0,0,1-14,4.54,21.47,21.47,0,0,1-10.53-2.31q-4.5-2.4-4.5-6.77a6.43,6.43,0,0,1,2.35-4.63,13.67,13.67,0,0,1,5.08-3.14,9.43,9.43,0,0,1-4-2.52,6,6,0,0,1-1.82-4.34q0-3.55,6.11-7.35a10.94,10.94,0,0,1-4.46-4.25,12.15,12.15,0,0,1-2.07-6.73,11.15,11.15,0,0,1,4.3-9.25A16.42,16.42,0,0,1,257.29,20Zm11.4,43.21q0-2.89-4.17-3.84a52.47,52.47,0,0,0-11.19-1,1.34,1.34,0,0,0-.41.08,3.67,3.67,0,0,0-.41.25q-1.08.41-1.65.7a7.13,7.13,0,0,0-1.32.91,4,4,0,0,0-1.12,1.45,4.8,4.8,0,0,0-.37,2q0,3,3.14,5a12.87,12.87,0,0,0,7,2,12.48,12.48,0,0,0,7.56-2.15A6.44,6.44,0,0,0,268.69,63.16ZM251,31.93a13.07,13.07,0,0,0,1.65,6.82,5.13,5.13,0,0,0,4.63,2.77,4.91,4.91,0,0,0,4.5-2.35,11,11,0,0,0,1.45-5.82,13.57,13.57,0,0,0-1.65-7.1,5.28,5.28,0,0,0-4.79-2.73,4.66,4.66,0,0,0-4.38,2.56A12,12,0,0,0,251,31.93Z"/><path class="cls-2" d="M304.54,13.18a24.89,24.89,0,0,0-.66-6.94q-.33-.66-2.31-1.28a11.09,11.09,0,0,0-3-.62q-.33,0-.33-1.24a3.33,3.33,0,0,1,.17-1.49q.41,0,4.58.25t6.4.25q.66,0,10.57-.5a4.26,4.26,0,0,1,.25,1.32q0,1.4-.33,1.4a13.46,13.46,0,0,0-3,.66q-2.23.66-2.4,1.24a30.65,30.65,0,0,0-.66,7.27V44.57a30.64,30.64,0,0,0,.74,7.44q.16.58,2.27,1.2a12.65,12.65,0,0,0,2.85.62c.22,0,.33.52.33,1.57a3.67,3.67,0,0,1-.17,1.16q-9.91-.5-10.49-.5-1.65,0-3.47.08l-4,.21-3.51.21a1.61,1.61,0,0,1-.33-1.16c0-1,.11-1.57.33-1.57a13.19,13.19,0,0,0,3.1-.58q2.11-.58,2.35-1.24a28.94,28.94,0,0,0,.66-6.94Z"/><path class="cls-2" d="M351.88,19.79q10.66,0,10.66,16.94v7.85a34.6,34.6,0,0,0,.58,7.44q.16.58,2.27,1.2a12.65,12.65,0,0,0,2.85.62c.17,0,.26.4.29,1.2a4.67,4.67,0,0,1-.12,1.61q-.5-.08-4.34-.33t-5.74-.25q-2,0-5.49.25t-4.25.33a2.42,2.42,0,0,1-.33-1.57q0-1.24.33-1.24a9.82,9.82,0,0,0,2.77-.62q1.86-.62,2-1.2a23.75,23.75,0,0,0,.66-6V38.13q0-6.86-1.86-9.58t-5.91-2.73a7.65,7.65,0,0,0-4.63,1.45,4,4,0,0,0-2,3.1V44.57a34.56,34.56,0,0,0,.58,7.44q.16.58,2.19,1.2a11.89,11.89,0,0,0,2.69.62c.22,0,.34.4.37,1.2a4.7,4.7,0,0,1-.12,1.61q-.66-.08-4.34-.33t-5.58-.25q-2,0-5.74.25t-4.42.33a2.42,2.42,0,0,1-.33-1.57q0-1.24.33-1.24a11.52,11.52,0,0,0,3-.62q2-.62,2.19-1.2a27,27,0,0,0,.58-6V32.51q0-3.88-1.32-5.29A4,4,0,0,0,327.88,26a9.4,9.4,0,0,0-2-.5c-.52-.05-.78-.14-.78-.25q0-2.4.41-2.48a117.19,117.19,0,0,0,13.3-2.48.54.54,0,0,1,.21-.12.79.79,0,0,1,.25,0h.21c.22,0,.41.19.58.58a2.51,2.51,0,0,1,.25.91,28.12,28.12,0,0,0-.33,3,.65.65,0,0,0,.08.41,1.23,1.23,0,0,0,.41-.25,18.31,18.31,0,0,1,5.08-3.47A14.46,14.46,0,0,1,351.88,19.79Z"/><path class="cls-2" d="M377.9,25.57h-5q-.58,0-.58-2.15a2,2,0,0,1,.08-.74,23.11,23.11,0,0,0,6.36-4.38q1.07-1.07,2.35-2.44t3-3.51a5.89,5.89,0,0,1,1.57.21c.5.14.74.29.74.46v8.1l6,0,4.09,0q.66,0,.66.74a8,8,0,0,1-.83,3.63h-9.91V45.48a7.84,7.84,0,0,0,1.4,5,4.72,4.72,0,0,0,3.88,1.74,7.79,7.79,0,0,0,1.74-.21,8.77,8.77,0,0,0,1.49-.45c.38-.17.74-.33,1.07-.5a2.6,2.6,0,0,1,.58-.25q.33-.08.74.74t.33,1.07q-.5,1.16-3.51,2.68a13,13,0,0,1-5.91,1.53,10.42,10.42,0,0,1-7.31-2.77q-3-2.77-3-8.55Z"/><path class="cls-2" d="M420.7,19.79A18.21,18.21,0,0,1,434,25.2a17.7,17.7,0,0,1,5.49,13.09,18.71,18.71,0,0,1-37.42,0,17.8,17.8,0,0,1,5.41-13.14A18.1,18.1,0,0,1,420.7,19.79Zm-1.07,3.88a6.65,6.65,0,0,0-6,3.76,17.77,17.77,0,0,0-2.15,9A24.09,24.09,0,0,0,414.13,48q2.68,5,7.48,5a6.74,6.74,0,0,0,6.07-3.8,17.58,17.58,0,0,0,2.19-8.92,28.37,28.37,0,0,0-1.07-8,14.57,14.57,0,0,0-3.47-6.16A7.66,7.66,0,0,0,419.62,23.67Z"/><path class="cls-2" d="M57.28,80.94q4.38,0,7.68-.33A21.12,21.12,0,0,0,65.71,83q.5,1.36,1.28,3.22t1.49,3.47q.7,1.61,1.94,4.13t2,4.17q.78,1.65,2.31,4.67l2.27,4.5q.74,1.49,2.44,4.79t2.27,4.54a20.15,20.15,0,0,0,.83-3.39l4-20.65a49.51,49.51,0,0,0,.83-6.11q0-1.32-2.52-2.31a11.63,11.63,0,0,0-3.76-1c-.11,0-.17-.17-.17-.5q0-1.57.58-2,6.94.33,9.67.33,3.39,0,9.67-.33,0,2.48-.58,2.48a14.41,14.41,0,0,0-3.43.79,8.08,8.08,0,0,0-3.51,1.86,20.2,20.2,0,0,0-2.15,6.77L85,123.9q-.58,2.73-1.2,7t-.7,4.54a2.25,2.25,0,0,1-1.49.33q-.91,0-2.07-1.82Q61.91,98.79,57.94,89.7l-6.77,34a34.6,34.6,0,0,0-.83,5.95q0,1.65,2.48,2.56a12,12,0,0,0,3.63.91c.11,0,.17.14.17.41a4.56,4.56,0,0,1-.5,2.07q-7.68-.41-9.58-.41-.91,0-9.75.41a1.48,1.48,0,0,1-.17-.66,2.85,2.85,0,0,1,.12-.83,6.71,6.71,0,0,1,.25-.7c.08-.19.15-.29.21-.29a15.76,15.76,0,0,0,3.84-.74,6,6,0,0,0,3.43-2,29,29,0,0,0,2.06-6.94l6.28-31.56a31.72,31.72,0,0,0,.66-6.2q0-1.16-2.27-1.86a13,13,0,0,0-3.51-.7q-.25,0-.25-.5,0-1.57.58-2Q54.64,80.94,57.28,80.94Z"/><path class="cls-2" d="M114.17,98.79a9.7,9.7,0,0,1,6.4,2,6.18,6.18,0,0,1,2.44,4.92q0,3.88-3.92,7.43a28.49,28.49,0,0,1-8.39,5.37,20.22,20.22,0,0,1-7.1,1.82q-.33,0-.33,1.9,0,7.93,5.29,7.93a7.56,7.56,0,0,0,3.8-1.16,14.58,14.58,0,0,0,2.85-2l1.45-1.45q.16,0,.74.78a2.47,2.47,0,0,1,.58,1.12q-1.08,2.15-5,5.25t-7.56,3.1q-5.12,0-7.77-3.43T95,122.75a24.81,24.81,0,0,1,2.77-11.11,27.14,27.14,0,0,1,7.27-9.21A14.48,14.48,0,0,1,114.17,98.79Zm-.83,4q-3,0-6.15,5T104,116.47a.29.29,0,0,0,.33.33q3.39,0,7.19-3.76t3.8-7.48a3.73,3.73,0,0,0-.5-2A1.64,1.64,0,0,0,113.35,102.75Z"/><path class="cls-2" d="M149.9,98.79a7.11,7.11,0,0,1,6.36,3.51,15,15,0,0,1,2.23,8.22q0,9.17-7.23,17.18t-13.92,8a5.72,5.72,0,0,1-3.22-.83L132,146a9.94,9.94,0,0,0-.25,2.06q0,2.06,1.49,2.4a14.23,14.23,0,0,0,3.47.33c.22,0,.33.25.33.74a3.83,3.83,0,0,1-.33,1.82h-6.11q-5.12.08-11.07.74a.67.67,0,0,1-.33-.66,3.08,3.08,0,0,1,.41-2,4.7,4.7,0,0,0,3.72-1.32,11.9,11.9,0,0,0,1.16-3.8l5.87-30.24-3.55,3.22a3.42,3.42,0,0,1-.66-2.07,1.26,1.26,0,0,1,.41-.91q3.8-4,4.63-4.71l2.48-12.56a16.7,16.7,0,0,1,3.72-.41,12,12,0,0,1,3.8.58q-1,4.63-1.07,4.87a6.85,6.85,0,0,0,1-.91q.78-.82,1.24-1.24t1.4-1.12a9.83,9.83,0,0,1,1.78-1.07,14.15,14.15,0,0,1,2-.7A9.14,9.14,0,0,1,149.9,98.79Zm-3.55,5.62a6.5,6.5,0,0,0-3.88,1.49,14.23,14.23,0,0,0-3.39,3.63l-3.3,17.35q-.91,4.46,2.73,4.46,2.64,0,5.45-3.06a23.93,23.93,0,0,0,4.63-7.93,27.53,27.53,0,0,0,1.82-9.67,9.16,9.16,0,0,0-1-4.5A3.27,3.27,0,0,0,146.35,104.41Z"/><path class="cls-2" d="M186.25,98.79a14.51,14.51,0,0,1,6.86,1.49l-4.87,25.36a6.44,6.44,0,0,0-.25,2q0,2.07.83,2.06a4.14,4.14,0,0,0,2.23-1.12,22.65,22.65,0,0,0,2.27-2l1.28-1.32c.11,0,.36.26.74.79a2.47,2.47,0,0,1,.58,1.12q-.91,2-5.16,5.37t-7.23,3.39a3.29,3.29,0,0,1-2.6-1.2,4.7,4.7,0,0,1-1-3.18,16.73,16.73,0,0,1,.33-2.73q.25-1.32.33-1.74a24.58,24.58,0,0,1-1.69,2.6q-1,1.28-2.31,2.81a11.12,11.12,0,0,1-3.06,2.44,7,7,0,0,1-3.35.91,7.45,7.45,0,0,1-6.4-3.3,14,14,0,0,1-2.35-8.34,23,23,0,0,1,3.43-11.65,29.72,29.72,0,0,1,9.29-9.79A21.56,21.56,0,0,1,186.25,98.79Zm-4.13,4.54q-4.71,0-8.63,7.15t-3.92,13.42q0,6.44,3.39,6.44,2.81,0,6-5.95a43.75,43.75,0,0,0,4.42-12.31l1.57-7.93A3.72,3.72,0,0,0,182.12,103.33Z"/><path class="cls-2" d="M211.12,98.79a3.29,3.29,0,0,1,2.6,1.2,4.84,4.84,0,0,1,1,3.26,31.61,31.61,0,0,1-.58,4.87c-.06.22-.11.5-.17.83s-.15.85-.29,1.57-.29,1.54-.45,2.48a42.71,42.71,0,0,1,6.49-9q4.67-5.24,7.81-5.25,5.62,0,5.62,7.27a48.2,48.2,0,0,1-1.24,8.92l-2.15,10.66a6.46,6.46,0,0,0-.25,2q0,2.07.83,2.06a4.14,4.14,0,0,0,2.23-1.12,22.59,22.59,0,0,0,2.27-2q.87-.91,1.2-1.32c.17,0,.43.26.78.79a2.54,2.54,0,0,1,.54,1.12q-.91,2-5.12,5.37T225,135.88a3.21,3.21,0,0,1-2.52-1.2,5,5,0,0,1-1-3.35,28.56,28.56,0,0,1,.74-5.2l2.4-11.73a29.47,29.47,0,0,0,.66-4.63q0-3.47-2-3.47-1.49,0-4.17,3.35a47.52,47.52,0,0,0-5.25,8.47,36.52,36.52,0,0,0-3.39,9.58l-1.65,7.6a12.3,12.3,0,0,1-3.55.41,16.14,16.14,0,0,1-3.88-.41l5-25.61a16.77,16.77,0,0,0,.33-2.64q0-2-.83-2a5,5,0,0,0-2.77,1.57,19,19,0,0,0-2.52,2.56q-.25,0-.78-.83a2.74,2.74,0,0,1-.54-1.16q.91-1.9,5-5.16T211.12,98.79Z"/><path class="cls-2" d="M249.78,91.19q.16-1,5.62-1a10.76,10.76,0,0,1,2.07.17l-2.07,9.91h7.44q.58,0,.58,1.16a5.39,5.39,0,0,1-.91,3h-7.85l-4.13,21.23a6.46,6.46,0,0,0-.25,2q0,2.07.83,2.06a4.13,4.13,0,0,0,2.23-1.12,22.55,22.55,0,0,0,2.27-2l1.28-1.32c.11,0,.36.26.74.79a2.47,2.47,0,0,1,.58,1.12q-.91,2-5.16,5.37t-7.23,3.39a3.29,3.29,0,0,1-2.6-1.2,5,5,0,0,1-1-3.35,26.34,26.34,0,0,1,.74-5.2l4.21-21.73h-5.29q-.25,0-.25-1a5.23,5.23,0,0,1,.37-1.82,4,4,0,0,1,.7-1.32H248Z"/><path class="cls-2" d="M264.41,126.13l7.27-37.42a22.24,22.24,0,0,0,.5-3.63q0-1.65-4.54-1.65c-.17,0-.25-.19-.25-.58a2.34,2.34,0,0,1,.66-1.73A36.87,36.87,0,0,0,274.4,80a56.84,56.84,0,0,0,5.78-1.69q.66.33.66,1.65,0,.66-1.24,6.77L272,125.64a11.05,11.05,0,0,0-.17,2q0,2.07.83,2.06a4.14,4.14,0,0,0,2.15-1.12,22.55,22.55,0,0,0,2.27-2l1.28-1.32c.11,0,.36.26.74.79a2.47,2.47,0,0,1,.58,1.12q-.91,2-5.16,5.37t-7.23,3.39a3.17,3.17,0,0,1-2.56-1.2,5.1,5.1,0,0,1-1-3.35A29.32,29.32,0,0,1,264.41,126.13Z"/><path class="cls-2" d="M307.45,98.79a14.51,14.51,0,0,1,6.86,1.49l-4.87,25.36a6.46,6.46,0,0,0-.25,2q0,2.07.83,2.06a4.13,4.13,0,0,0,2.23-1.12,22.55,22.55,0,0,0,2.27-2l1.28-1.32c.11,0,.36.26.74.79a2.47,2.47,0,0,1,.58,1.12q-.91,2-5.16,5.37t-7.23,3.39a3.29,3.29,0,0,1-2.6-1.2,4.7,4.7,0,0,1-1-3.18,16.68,16.68,0,0,1,.33-2.73q.25-1.32.33-1.74a24.82,24.82,0,0,1-1.69,2.6q-1,1.28-2.31,2.81a11.14,11.14,0,0,1-3.06,2.44,7,7,0,0,1-3.35.91,7.45,7.45,0,0,1-6.4-3.3,14,14,0,0,1-2.35-8.34A23,23,0,0,1,286,112.5a29.73,29.73,0,0,1,9.29-9.79A21.56,21.56,0,0,1,307.45,98.79Zm-4.13,4.54q-4.71,0-8.63,7.15t-3.92,13.42q0,6.44,3.39,6.44,2.81,0,6-5.95a43.73,43.73,0,0,0,4.42-12.31l1.57-7.93A3.72,3.72,0,0,0,303.32,103.33Z"/></svg>