<svg id="Layer_1" data-name="Layer 1" xmlns="http://www.w3.org/2000/svg" viewBox="0 0 629.53 77.8"><defs><style>.cls-1{fill:#fff;stroke-width:1.2px;}.cls-1,.cls-3{stroke:#1414ef;stroke-miterlimit:10;}.cls-2{fill:#1414ef;}.cls-3{fill:#feea80;stroke-width:1.3px;}</style></defs><title>title</title><path class="cls-1" d="M55.77,2.31q5.58.21,9.13.21t9.17-.21q5.62-.21,9-.29a27.44,27.44,0,0,0,5.7-.83l1.57,12.64a3.19,3.19,0,0,1-2.23.58c-.44,0-.72-.14-.83-.41q-1.16-4.54-3.06-6.16T78.28,6.24q-7.68,0-8,1.4a28.86,28.86,0,0,0-.74,7.77V45.23a28.18,28.18,0,0,0,.74,7.19q.08.58,2.23,1.2a13.15,13.15,0,0,0,2.89.62q.33,0,.33,1.49A4.31,4.31,0,0,1,75.56,57l-3.18-.25q-2.11-.17-3.88-.25t-3.43-.08q-2.23,0-6.15.25T54.08,57a1.91,1.91,0,0,1-.33-1.32q0-1.49.33-1.49a13.19,13.19,0,0,0,3.1-.58q2.11-.58,2.35-1.24a26.1,26.1,0,0,0,.66-6.86V15.66q0-6.86-.74-8-.66-1.4-7.85-1.4-4,0-5.95,1.61t-3.14,6.07q-.08.5-.83.5a2.78,2.78,0,0,1-2.15-.66L41.11,1.2a27.41,27.41,0,0,0,5.7.83Q50.2,2.11,55.77,2.31Z"/><path class="cls-1" d="M106.83,20.2a18.21,18.21,0,0,1,13.26,5.41,17.7,17.7,0,0,1,5.49,13.09,18.75,18.75,0,0,1-32,13.14,17.9,17.9,0,0,1-5.45-13.14,17.8,17.8,0,0,1,5.41-13.14A18.1,18.1,0,0,1,106.83,20.2Zm-1.07,3.88a6.65,6.65,0,0,0-6,3.76,17.77,17.77,0,0,0-2.15,9,24.09,24.09,0,0,0,2.69,11.65q2.68,5,7.48,5a6.73,6.73,0,0,0,6.07-3.8A17.57,17.57,0,0,0,116,40.69a28.36,28.36,0,0,0-1.07-8,14.57,14.57,0,0,0-3.47-6.16A7.66,7.66,0,0,0,105.76,24.08Z"/><path class="cls-1" d="M153.67,44.9V13.67a26.17,26.17,0,0,0-.58-6.77q-.25-.91-2.31-1.49a13,13,0,0,0-3.3-.58q-.33,0-.33-1.24a2.25,2.25,0,0,1,.33-1.49q5.45.25,11,.25,4.21,0,7.1,0t5,0a24.47,24.47,0,0,1,11.73,3,12.17,12.17,0,0,1,4.59,4.42,12.53,12.53,0,0,1,1.78,6.69,9.68,9.68,0,0,1-1.73,5.54,13.35,13.35,0,0,1-3.26,3.59A13.58,13.58,0,0,1,181,27q-.66.25-.33.5,3.06.5,6.82,4.34a13,13,0,0,1,3.76,9.46,13.33,13.33,0,0,1-5.74,11.32q-5.74,4.21-15.24,4.13l-11.73-.08-11,.33a2.16,2.16,0,0,1-.25-1.32q0-1.4.25-1.4a13.59,13.59,0,0,0,3.14-.54q2.06-.54,2.4-1.28Q153.67,50.69,153.67,44.9Zm18.92-19.41q6-1.32,6-8.1,0-11.15-9.5-11.15a22.1,22.1,0,0,0-5.29.41.83.83,0,0,0-.66.91L163,15.49v9.67q0,.83,5,.83A16.34,16.34,0,0,0,172.59,25.49Zm8.59,16.69a12.94,12.94,0,0,0-2.93-8.72Q175.32,30,168.79,30a34.4,34.4,0,0,0-5.12.41A1.8,1.8,0,0,0,163,32.1V47.46q0,3.47,1,4.3t5.29.83a17,17,0,0,0,3.55-.37,17.66,17.66,0,0,0,3.76-1.32,7.44,7.44,0,0,0,3.3-3.22A11,11,0,0,0,181.18,42.18Z"/><path class="cls-1" d="M212.66,20.2a15.32,15.32,0,0,1,6.94,1.53,13.07,13.07,0,0,1,4.79,3.88A19.21,19.21,0,0,1,227,30.49a14.24,14.24,0,0,1,.91,4.83q0,1.82-.62,2.27a4.69,4.69,0,0,1-2.52.45H205.06q-.58,0-.58.5a16.06,16.06,0,0,0,1.07,5.78,11.36,11.36,0,0,0,3.68,4.87,9.72,9.72,0,0,0,6.24,2.07,22.66,22.66,0,0,0,2.4-.12,12.37,12.37,0,0,0,2.15-.41q1-.29,1.73-.54a7.09,7.09,0,0,0,1.53-.74l1.12-.7q.33-.21,1.65-1.12a1.36,1.36,0,0,1,.41.5,1.6,1.6,0,0,1,.25.83,2.54,2.54,0,0,1-.5,1.57A13.46,13.46,0,0,1,221.33,55a15.33,15.33,0,0,1-8.18,2.23,16.73,16.73,0,0,1-12.39-5.33A17.82,17.82,0,0,1,195.56,39q0-8.34,4.83-13.55A16,16,0,0,1,212.66,20.2Zm-.58,3.8a5.84,5.84,0,0,0-3.55,1.16,7.79,7.79,0,0,0-2.4,2.81,15.78,15.78,0,0,0-1.2,3.1,10.1,10.1,0,0,0-.37,2.44c0,.39.17.58.5.58h13.38q.74,0,.74-1.24A10.71,10.71,0,0,0,217.25,27,5.92,5.92,0,0,0,212.08,24Z"/><path class="cls-1" d="M264.71,13.92V45a24.28,24.28,0,0,0,.74,6.61q.41,1.08,5.62,1.07h3.06q6.44,0,9.83-1.74a9.48,9.48,0,0,0,3-2.89,17.4,17.4,0,0,0,2.56-5q.08-.5,1.16-.5A3.55,3.55,0,0,1,293,43q-.25.74-1.2,3.39l-1.45,4q-.5,1.36-1.07,3.35A22.79,22.79,0,0,0,288.5,57q-3.31,0-13.67-.25t-14.58-.08l-11,.33a2.16,2.16,0,0,1-.25-1.32q0-1.4.25-1.4a13.59,13.59,0,0,0,3.14-.54q2.06-.54,2.4-1.28.58-1.73.58-7.52V13.67a25.3,25.3,0,0,0-.66-7q-.33-.66-2.31-1.28a11.09,11.09,0,0,0-3-.62q-.33,0-.33-1.24A3.33,3.33,0,0,1,249.26,2q.41,0,4.58.25t6.4.25q.66,0,10.57-.5a4.25,4.25,0,0,1,.25,1.32c0,.94-.11,1.4-.33,1.4a13.46,13.46,0,0,0-3,.66q-2.23.66-2.4,1.24A30.67,30.67,0,0,0,264.71,13.92Z"/><path class="cls-1" d="M314.61,20.2q5.12,0,7.68,2.69t2.56,9.21V48.37a3.77,3.77,0,0,0,.74,2.52,2.48,2.48,0,0,0,2,.87,5.15,5.15,0,0,0,2.81-1.07c.33.11.5.41.5.91a4.91,4.91,0,0,1-.5,2.48,20.44,20.44,0,0,1-3.3,2.07,8.61,8.61,0,0,1-4,1.07,6,6,0,0,1-3.72-1.41,6.77,6.77,0,0,1-2.4-3.06l-.62.54q-.54.46-1.49,1.12a24.47,24.47,0,0,1-2.15,1.32,13.18,13.18,0,0,1-2.81,1.12,12,12,0,0,1-3.26.45A9.86,9.86,0,0,1,299.94,55a7.85,7.85,0,0,1-2.6-6.24,7.61,7.61,0,0,1,.95-3.72,9.88,9.88,0,0,1,2.27-2.85A16.92,16.92,0,0,1,304.11,40,33.8,33.8,0,0,1,308,38.42q1.61-.54,4.13-1.28t3.51-1.07a1.3,1.3,0,0,0,.74-1.32V30.2A7.09,7.09,0,0,0,315,25.65,4.31,4.31,0,0,0,311.47,24a5,5,0,0,0-3.88,1.53,6.18,6.18,0,0,0-1.4,4.34,2.68,2.68,0,0,1-1.24,2.44,5.14,5.14,0,0,1-2.81.78q-3.06,0-4.3-2,0-4,5.41-7.43A20.72,20.72,0,0,1,314.61,20.2Zm-3.72,31.72a6.4,6.4,0,0,0,3.84-1.16,3.27,3.27,0,0,0,1.61-2.64V39.7q-.58.25-2.44.83t-2.85,1a22.54,22.54,0,0,0-2.31,1.16,5,5,0,0,0-1.94,1.82,4.55,4.55,0,0,0-.62,2.31,5.09,5.09,0,0,0,1.32,3.88A4.75,4.75,0,0,0,310.89,51.92Z"/><path class="cls-1" d="M339.39,26h-5q-.58,0-.58-2.15a2.06,2.06,0,0,1,.08-.74,23.1,23.1,0,0,0,6.36-4.38q1.07-1.07,2.35-2.44t3-3.51a5.88,5.88,0,0,1,1.57.21c.5.14.74.29.74.46v8.1l6,0,4.09,0q.66,0,.66.74a8,8,0,0,1-.83,3.63H347.9V45.89a7.84,7.84,0,0,0,1.4,5,4.72,4.72,0,0,0,3.88,1.74,7.79,7.79,0,0,0,1.73-.21,8.77,8.77,0,0,0,1.49-.45q.58-.25,1.07-.5a2.59,2.59,0,0,1,.58-.25q.33-.08.74.74t.33,1.07q-.5,1.16-3.51,2.68a13,13,0,0,1-5.91,1.53,10.42,10.42,0,0,1-7.31-2.77q-3-2.77-3-8.55Z"/><path class="cls-1" d="M380.45,20.2a15.32,15.32,0,0,1,6.94,1.53,13.07,13.07,0,0,1,4.79,3.88,19.21,19.21,0,0,1,2.64,4.87,14.24,14.24,0,0,1,.91,4.83q0,1.82-.62,2.27a4.69,4.69,0,0,1-2.52.45H372.85q-.58,0-.58.5a16.06,16.06,0,0,0,1.07,5.78A11.36,11.36,0,0,0,377,49.2a9.72,9.72,0,0,0,6.24,2.07,22.66,22.66,0,0,0,2.4-.12,12.37,12.37,0,0,0,2.15-.41q1-.29,1.73-.54a7.09,7.09,0,0,0,1.53-.74l1.12-.7q.33-.21,1.65-1.12a1.36,1.36,0,0,1,.41.5,1.6,1.6,0,0,1,.25.83,2.54,2.54,0,0,1-.5,1.57A13.46,13.46,0,0,1,389.12,55a15.33,15.33,0,0,1-8.18,2.23,16.73,16.73,0,0,1-12.39-5.33A17.82,17.82,0,0,1,363.35,39q0-8.34,4.83-13.55A16,16,0,0,1,380.45,20.2Zm-.58,3.8a5.84,5.84,0,0,0-3.55,1.16,7.79,7.79,0,0,0-2.4,2.81,15.78,15.78,0,0,0-1.2,3.1,10.1,10.1,0,0,0-.37,2.44c0,.39.17.58.5.58h13.38q.74,0,.74-1.24A10.71,10.71,0,0,0,385,27,5.92,5.92,0,0,0,379.87,24Z"/><path class="cls-2" d="M7,16.3H9.91v1.57H2.28V16.3H5.13V7.09L2.85,8.49,2,7.06,5.67,4.82H7Z"/><path class="cls-2" d="M12.26,4.82H21.1V6.24l-6,11.63H13L19,6.39H12.26Z"/><path class="cls-3" d="M573.58,37.51,312.75,73.36a17.75,17.75,0,0,1-20-15.22h0a17.75,17.75,0,0,1,15.22-20L568.82,2.32a17.75,17.75,0,0,1,20,15.22h0A17.75,17.75,0,0,1,573.58,37.51Z"/><path class="cls-2" d="M331.71,45a7.83,7.83,0,0,1,2.46,0,5.35,5.35,0,0,1,4.29,3.73l-2.85,1a4.41,4.41,0,0,0-1.43-1.75,2.75,2.75,0,0,0-2-.45,3.06,3.06,0,0,0-2.36,1.69,6.74,6.74,0,0,0-.47,4.14,7.32,7.32,0,0,0,1.5,3.84,2.91,2.91,0,0,0,2.74,1.06,3.4,3.4,0,0,0,2.3-1.13,2.68,2.68,0,0,0,.52-2.13l3-.43a4.92,4.92,0,0,1-1,4.15,6.65,6.65,0,0,1-4.23,2,6,6,0,0,1-5.07-1.4,8.86,8.86,0,0,1-2.63-5.55,8.6,8.6,0,0,1,1-6.07A6,6,0,0,1,331.71,45Z"/><path class="cls-2" d="M346,46.75a6.33,6.33,0,0,1,2.19.05,4.52,4.52,0,0,1,1.88.86,6.21,6.21,0,0,1,2.25,4.28,6.14,6.14,0,0,1-1,4.69,5.18,5.18,0,0,1-3.64,2,5.33,5.33,0,0,1-4.12-.92,6.09,6.09,0,0,1-2.25-4.23,6.16,6.16,0,0,1,1-4.74A5.33,5.33,0,0,1,346,46.75Zm3.58,5.56a4.37,4.37,0,0,0-1.08-2.58,2.35,2.35,0,0,0-2.07-.61,2.62,2.62,0,0,0-1.9,1.19,4,4,0,0,0-.4,2.8,4.31,4.31,0,0,0,1.1,2.58,2.36,2.36,0,0,0,2.07.61,2.6,2.6,0,0,0,1.89-1.19A4,4,0,0,0,349.59,52.31Z"/><path class="cls-2" d="M365.12,46.49a3.91,3.91,0,0,1,3.48-3,3.86,3.86,0,0,1,3.33.92,5.62,5.62,0,0,1,1.59,3.47l1,6.6-2.76.4-1-6.6a2.69,2.69,0,0,0-.88-1.81,2.25,2.25,0,0,0-1.79-.39,2.15,2.15,0,0,0-1.65,1.21,5.14,5.14,0,0,0-.33,3l.76,5.3-2.74.4-1-6.6a2.69,2.69,0,0,0-.88-1.81,2.25,2.25,0,0,0-1.79-.39,2.35,2.35,0,0,0-1.73,1.25,4.87,4.87,0,0,0-.4,3l.75,5.23-2.74.4L354.77,45.8l2.39-.35.58,1.91A3.77,3.77,0,0,1,361,44.59a4.09,4.09,0,0,1,2.45.31A4,4,0,0,1,365.12,46.49Z"/><path class="cls-2" d="M376.2,39a1.58,1.58,0,0,1,.27-1.24,2,2,0,0,1,2.5-.36,1.76,1.76,0,0,1,.34,2.35,2,2,0,0,1-2.5.36A1.58,1.58,0,0,1,376.2,39Zm.85,3.58,2.74-.4,1.63,11.32-2.74.4Z"/><path class="cls-2" d="M387.42,43.08a4.15,4.15,0,0,1,6.6-1.85,5.84,5.84,0,0,1,1.58,3.47l1,6.6-2.74.4-1-6.6a2.69,2.69,0,0,0-.88-1.81,2.25,2.25,0,0,0-1.79-.39,2.35,2.35,0,0,0-1.73,1.25,4.87,4.87,0,0,0-.4,3l.75,5.23-2.74.4-1.63-11.29,2.39-.35Z"/><path class="cls-2" d="M400.86,45.95a3.69,3.69,0,0,1-1.79-2.71,3.65,3.65,0,0,1,1-3.18,5.09,5.09,0,0,1,3-1.55,6.18,6.18,0,0,1,3.11.24,3.09,3.09,0,0,1,.83-2.3,3.52,3.52,0,0,1,2.18-1.15l.24,2.65q-2,.29-1.88,1.62a3.5,3.5,0,0,1,1.18,2.06,4,4,0,0,1-.12,1.93,3.79,3.79,0,0,1-.89,1.42,5.31,5.31,0,0,1-3.23,1.61,5.91,5.91,0,0,1-2.12,0,1.13,1.13,0,0,0-.77,1.25q.15,1,1.92.79l3.79-.55q3.86-.56,4.25,2.14a3.85,3.85,0,0,1-.2,1.84,4.8,4.8,0,0,1-1.09,1.73,7.63,7.63,0,0,1-4.57,2.18,8.24,8.24,0,0,1-4.7-.48A3.2,3.2,0,0,1,399,53a2.22,2.22,0,0,1,.4-1.75,3.06,3.06,0,0,1,1.57-1,2.44,2.44,0,0,1-1.67-1.87,1.93,1.93,0,0,1,.32-1.43A2.87,2.87,0,0,1,400.86,45.95Zm2.8,4.58q-2.17.41-1.95,2a1.44,1.44,0,0,0,1.1,1.13,4.71,4.71,0,0,0,2.24.16A7.32,7.32,0,0,0,407,53.3a4,4,0,0,0,1.12-.73,2,2,0,0,0,.8-1.82.9.9,0,0,0-.39-.64,1.22,1.22,0,0,0-.89-.14Zm2.43-8.33a2.26,2.26,0,0,0-.74-1.46,2,2,0,0,0-1.68-.36,2,2,0,0,0-1.88,2.44,2.21,2.21,0,0,0,.78,1.46,2.13,2.13,0,0,0,1.71.37,2,2,0,0,0,1.5-.83A2.3,2.3,0,0,0,406.08,42.2Z"/><path class="cls-2" d="M426.29,35.85q-.66-1.92-3.07-1.57a3.15,3.15,0,0,0-1.78.74,1.4,1.4,0,0,0-.5,1.25,1.36,1.36,0,0,0,.58,1,4.17,4.17,0,0,0,1.44.52l3.46.8a6.83,6.83,0,0,1,2.82,1.27,3.56,3.56,0,0,1,1.26,2.34,3.93,3.93,0,0,1-1.07,3.46,7,7,0,0,1-4.2,1.83,6.43,6.43,0,0,1-4.24-.64,4.83,4.83,0,0,1-2.39-3.55l2.72-.39A2.27,2.27,0,0,0,423.6,45a5.92,5.92,0,0,0,1.56-.06,3.47,3.47,0,0,0,1.7-.73,1.45,1.45,0,0,0,.63-1.4,1.66,1.66,0,0,0-.62-1.17,4.24,4.24,0,0,0-1.56-.59l-3.17-.75a7.94,7.94,0,0,1-2.9-1.19,3.38,3.38,0,0,1-1.29-2.38,3.55,3.55,0,0,1,1-3.19,6.54,6.54,0,0,1,3.87-1.72,6,6,0,0,1,4.1.61A4.78,4.78,0,0,1,429,35.46Z"/><path class="cls-2" d="M442.33,36.28a6.37,6.37,0,0,1,.55,1.75,10.54,10.54,0,0,1,.12,1.48l-7.3,1.05a4,4,0,0,0,1,2.13,2.23,2.23,0,0,0,2,.58,1.83,1.83,0,0,0,1.81-1.78l2.76-.4a4.09,4.09,0,0,1-1.17,2.9A5.18,5.18,0,0,1,439,45.49a5,5,0,0,1-4-1.09,6.24,6.24,0,0,1-2.18-4.12,6.17,6.17,0,0,1,.93-4.59,5,5,0,0,1,3.51-2.12,4.43,4.43,0,0,1,3.89,1.12A5.21,5.21,0,0,1,442.33,36.28Zm-4.67-.54a2.29,2.29,0,0,0-1.7,1,3.43,3.43,0,0,0-.49,2.05l4.81-.69a2.57,2.57,0,0,0-1.52-2.3A2.3,2.3,0,0,0,437.67,35.75Z"/><path class="cls-2" d="M448.19,33.87a3.55,3.55,0,0,1,3-2.31A4.79,4.79,0,0,1,455,32.63a6.17,6.17,0,0,1,2.21,4.14,6.14,6.14,0,0,1-1,4.62,4.76,4.76,0,0,1-3.33,2.09,3.62,3.62,0,0,1-3.2-.8l.93,6.41-2.74.4-2.43-16.8,2.25-.33Zm3.86,7.2a2.74,2.74,0,0,0,1-.36,2.67,2.67,0,0,0,.85-.79,3.67,3.67,0,0,0,.55-2.75,3.85,3.85,0,0,0-1.17-2.45,2.51,2.51,0,0,0-2.09-.65,2.73,2.73,0,0,0-1.79.93,2.59,2.59,0,0,0-.5,2l.29,2a2.26,2.26,0,0,0,1,1.66A2.62,2.62,0,0,0,452,41.07Z"/><path class="cls-2" d="M467.59,40.75a7.2,7.2,0,0,1-2.33,1,5.19,5.19,0,0,1-1.58,0,3.52,3.52,0,0,1-1.26-.46A3.37,3.37,0,0,1,461,38.79l-.91-6.32-1.58.23-.27-1.84,1.58-.23-.43-3,2.74-.4.43,3,3.07-.44.27,1.84-3.07.44.9,6.23a1.21,1.21,0,0,0,1.53,1.2,5.64,5.64,0,0,0,1.69-.62Z"/><path class="cls-2" d="M478,31.13a6.37,6.37,0,0,1,.55,1.75,10.54,10.54,0,0,1,.12,1.48l-7.3,1.05a4,4,0,0,0,1,2.13,2.23,2.23,0,0,0,2,.58,1.83,1.83,0,0,0,1.81-1.78L479,36a4.09,4.09,0,0,1-1.17,2.9,5.18,5.18,0,0,1-3.08,1.49,5,5,0,0,1-4-1.09,6.24,6.24,0,0,1-2.18-4.12,6.17,6.17,0,0,1,.93-4.59A5,5,0,0,1,473,28.42a4.43,4.43,0,0,1,3.89,1.12A5.21,5.21,0,0,1,478,31.13Zm-4.67-.54a2.29,2.29,0,0,0-1.7,1,3.43,3.43,0,0,0-.49,2.05L476,33a2.57,2.57,0,0,0-1.52-2.3A2.3,2.3,0,0,0,473.33,30.6Z"/><path class="cls-2" d="M491.47,28.24a3.91,3.91,0,0,1,3.48-3,3.86,3.86,0,0,1,3.33.92,5.62,5.62,0,0,1,1.59,3.47l1,6.6-2.76.4-1-6.6a2.69,2.69,0,0,0-.88-1.81,2.25,2.25,0,0,0-1.79-.39A2.15,2.15,0,0,0,492.79,29a5.14,5.14,0,0,0-.33,3l.76,5.3-2.74.4-1-6.6a2.69,2.69,0,0,0-.88-1.81,2.25,2.25,0,0,0-1.79-.39,2.35,2.35,0,0,0-1.73,1.25,4.87,4.87,0,0,0-.4,3l.75,5.23-2.74.4-1.63-11.29,2.39-.35.58,1.91a3.77,3.77,0,0,1,3.25-2.77,4.09,4.09,0,0,1,2.45.31A4,4,0,0,1,491.47,28.24Z"/><path class="cls-2" d="M512.85,24.32a6.31,6.31,0,0,1,2,4.07A6.44,6.44,0,0,1,514,33a4.73,4.73,0,0,1-3.41,2.18,3.52,3.52,0,0,1-2-.28A3.8,3.8,0,0,1,507,33.35l-.39,2-1.79.26-2.3-15.94,2.74-.4.88,6.06a3.55,3.55,0,0,1,2.95-2.18A4.59,4.59,0,0,1,512.85,24.32Zm-6.23,4.6.21,1.49A2.75,2.75,0,0,0,508,32.24a2.61,2.61,0,0,0,2,.47,2.4,2.4,0,0,0,1.75-1.24,3.93,3.93,0,0,0,.42-2.66A3.87,3.87,0,0,0,511,26.4a2.45,2.45,0,0,0-2.08-.66,2.64,2.64,0,0,0-1.82,1A2.76,2.76,0,0,0,506.63,28.92Z"/><path class="cls-2" d="M526.63,24.11a6.37,6.37,0,0,1,.55,1.75,10.54,10.54,0,0,1,.12,1.48L520,28.39a4,4,0,0,0,1,2.13,2.23,2.23,0,0,0,2,.58,1.83,1.83,0,0,0,1.81-1.78l2.76-.4a4.09,4.09,0,0,1-1.17,2.9,5.18,5.18,0,0,1-3.08,1.49,5,5,0,0,1-4-1.09,6.24,6.24,0,0,1-2.18-4.12,6.17,6.17,0,0,1,.93-4.59,5,5,0,0,1,3.51-2.12,4.43,4.43,0,0,1,3.89,1.12A5.21,5.21,0,0,1,526.63,24.11ZM522,23.58a2.29,2.29,0,0,0-1.7,1,3.43,3.43,0,0,0-.49,2.05l4.81-.69a2.57,2.57,0,0,0-1.52-2.3A2.3,2.3,0,0,0,522,23.58Z"/><path class="cls-2" d="M532.82,22.36q.67-2.59,2.71-2.88a4.06,4.06,0,0,1,1,0l.35,2.75a6.15,6.15,0,0,0-1.3,0q-2.74.4-2.19,4.18l.71,4.95-2.74.4-1.63-11.32,2.74-.4Z"/><path class="cls-2" d="M553.44,13.08l1.38,9.55,2.63-.38.34,2.35-2.63.38.48,3.35-2.72.39-.48-3.35-7.64,1.1-.3-2.07,6.29-10.94Zm-5.69,10.86,4.53-.65-.83-5.76Z"/></svg>