<svg id="Layer_1" data-name="Layer 1" xmlns="http://www.w3.org/2000/svg" viewBox="0 0 629.53 237.62"><defs><style>.cls-1{fill:#1414ef;}.cls-2,.cls-3{fill:#fff;stroke:#1414ef;stroke-miterlimit:10;}.cls-2{stroke-width:1.2px;}.cls-3{stroke-width:1.3px;}</style></defs><title>title</title><path class="cls-1" d="M19,11.92a3.69,3.69,0,0,1,1.43,1.47A4.5,4.5,0,0,1,21,15.56a4.41,4.41,0,0,1-.55,2.2,3.89,3.89,0,0,1-1.53,1.52,4.46,4.46,0,0,1-2.2.55A4.47,4.47,0,0,1,13,18.16a7.5,7.5,0,0,1-1.31-4.73,10.31,10.31,0,0,1,.61-3.75,5.1,5.1,0,0,1,1.78-2.39,4.7,4.7,0,0,1,2.78-.82,6.37,6.37,0,0,1,2.24.41A5.7,5.7,0,0,1,21,8L20.3,9.45A5.43,5.43,0,0,0,16.89,8a2.75,2.75,0,0,0-2.46,1.4,7.54,7.54,0,0,0-.87,4v.06a3.15,3.15,0,0,1,1.32-1.51,4,4,0,0,1,2.07-.55A4.14,4.14,0,0,1,19,11.92Zm-.6,5.61a2.72,2.72,0,0,0,.69-1.94,2.66,2.66,0,0,0-.69-1.93,2.44,2.44,0,0,0-1.84-.72A2.52,2.52,0,0,0,14,15.6a2.62,2.62,0,0,0,.73,1.93,2.57,2.57,0,0,0,1.92.74A2.39,2.39,0,0,0,18.45,17.53Z"/><path class="cls-2" d="M51.84,4.34q.41,0,8.1-.5.74,2.31,3.39,8.55t6.48,15.2q3.84,9,6.16,14.75c0,.11.08.17.25.17a.22.22,0,0,0,.25-.25Q83.73,24.83,88,13.59L91,4q2.48.25,6.77.25,3.22,0,9.83-.41a2.4,2.4,0,0,1,.25,1.32c0,.94-.11,1.4-.33,1.4h-.17a6.72,6.72,0,0,0-4,1.32q-1.24.91-1.07,4.46.33,7.35,1.16,34.12a21.82,21.82,0,0,0,1.32,7.6q.33.74,2.31,1.36a11.1,11.1,0,0,0,2.81.62q.33,0,.33,1.49a4,4,0,0,1-.17,1.24l-10.16-.5q-1.65,0-3.47.08l-4,.21-3.51.21a1.76,1.76,0,0,1-.33-1.24q0-1.49.33-1.49a9.76,9.76,0,0,0,2.64-.54,5.18,5.18,0,0,0,2.31-1.2,4.63,4.63,0,0,0,.83-2.89V46.8l-.83-25.11q-.33-5.12-1-5.12-.25,0-.41.5L76.63,55.56q-1.41,3.14-3.14,3.14a2.74,2.74,0,0,1-.83-.17L54.15,14.09q-.58,20.57-1.32,36.85a9.11,9.11,0,0,0,.25,2.56q.41.91,3.3,1.73a17.84,17.84,0,0,0,3.88.83c.22,0,.33.5.33,1.49a4,4,0,0,1-.17,1.24q-9.91-.5-10.41-.5-2.23,0-5.91.25t-4.5.25a1.91,1.91,0,0,1-.33-1.32q0-1.4.33-1.4a16.51,16.51,0,0,0,4.13-.83q2.81-.82,3.22-2.15a15.38,15.38,0,0,0,.91-5.54q.16-6.28.45-14.83t.5-14.58q.21-6,.21-7.52a7.89,7.89,0,0,0-.25-2.31Q48.54,7.65,46,7.07a18.71,18.71,0,0,0-3.59-.58c-.22,0-.33-.47-.33-1.4a1.76,1.76,0,0,1,.33-1.24l4.25.29Q49.69,4.34,51.84,4.34Z"/><path class="cls-2" d="M149.45,30.94V47.3a18.32,18.32,0,0,0,.66,5.78,1.71,1.71,0,0,0,1,.66,6.41,6.41,0,0,0,1.45.33,12.26,12.26,0,0,0,1.36.08,1.52,1.52,0,0,1,.7.08c.22.06.33.3.33.74a6.31,6.31,0,0,1-.17,1.12c-.11.52-.28.79-.5.79a19,19,0,0,0-2.93.29l-3.43.58q-1.65.29-3.14.62t-3.3.66q-.58,0-.58-1.32V54.07q-.08-.41-.25-.41a18.44,18.44,0,0,1-5,3.72A13.84,13.84,0,0,1,129,59a8.65,8.65,0,0,1-4.92-1.41,10,10,0,0,1-3.3-3.63,17.76,17.76,0,0,1-1.74-4.79,25.26,25.26,0,0,1-.54-5.21V34.74q0-3.88-1.32-5.29a4.6,4.6,0,0,0-1.9-1.24,8.67,8.67,0,0,0-2-.5c-.55-.05-.83-.14-.83-.25q0-2.4.41-2.48a62.33,62.33,0,0,0,6.77-1,64.77,64.77,0,0,0,6.53-1.49,1.34,1.34,0,0,0,.33-.08,1.41,1.41,0,0,1,.33-.08q.41,0,.62.58a3,3,0,0,1,.21.91q-.74,5.62-.74,7.27V41q0,6.44,1.82,9.25t5.87,2.81a6.49,6.49,0,0,0,4.46-1.61,4.4,4.4,0,0,0,1.82-3.1V34.74q0-3.88-1.32-5.29a4,4,0,0,0-1.86-1.24,9.31,9.31,0,0,0-2-.5c-.55-.05-.83-.14-.83-.25q0-2.4.5-2.48a63.43,63.43,0,0,0,6.69-1,64.79,64.79,0,0,0,6.53-1.49,4.77,4.77,0,0,0,.66-.17q.41,0,.66.58a1.52,1.52,0,0,1,.17.91Q149.45,29.46,149.45,30.94Z"/><path class="cls-2" d="M177,22a20,20,0,0,1,7.81,1.45,13.18,13.18,0,0,1,4.92,3.18,10.21,10.21,0,0,1-1,4.67,3,3,0,0,1-2.85,1.86,3.7,3.7,0,0,1-2.52-.83,9.38,9.38,0,0,1-1.94-2.73q-1.9-3.8-5.54-3.8t-5.66,3.59a17.66,17.66,0,0,0-2.11,9q0,7.44,3.06,11a9.75,9.75,0,0,0,7.77,3.59,22.67,22.67,0,0,0,2.4-.12,12.37,12.37,0,0,0,2.15-.41q1-.29,1.74-.54a7.11,7.11,0,0,0,1.53-.74l1.12-.7q.33-.21,1.65-1.12a1.37,1.37,0,0,1,.41.5,1.6,1.6,0,0,1,.25.83,2.54,2.54,0,0,1-.5,1.57,13.46,13.46,0,0,1-4.87,4.46,15.18,15.18,0,0,1-8.1,2.23,16.71,16.71,0,0,1-12.52-5.37A18.24,18.24,0,0,1,159,40.52a18.78,18.78,0,0,1,5-13A16.64,16.64,0,0,1,177,22Z"/><path class="cls-2" d="M222.15,22q10.57,0,10.57,16.28V46.8a30.36,30.36,0,0,0,.66,7.44q.08.58,2.19,1.2a12.65,12.65,0,0,0,2.85.62c.17,0,.26.4.29,1.2a8.59,8.59,0,0,1,0,1.61q-.58-.08-4.42-.33t-5.66-.25q-2.07,0-5.58.25t-4.34.33a3.08,3.08,0,0,1-.25-1.57q0-1.24.25-1.24a9.86,9.86,0,0,0,2.85-.62q1.86-.62,2.11-1.2a31.34,31.34,0,0,0,.5-6v-8.1q0-6.86-1.86-9.46T216.37,28a7.91,7.91,0,0,0-4.54,1.4,3.9,3.9,0,0,0-2.07,3.14V46.8a30.34,30.34,0,0,0,.66,7.44q.16.58,2.19,1.2a11.68,11.68,0,0,0,2.77.62c.17,0,.26.4.29,1.2a4.66,4.66,0,0,1-.12,1.61q-.66-.08-4.34-.33t-5.58-.25q-2,0-5.74.25t-4.42.33a2.42,2.42,0,0,1-.33-1.57q0-1.24.33-1.24a11.52,11.52,0,0,0,3-.62q2-.62,2.19-1.2a26.56,26.56,0,0,0,.58-5.95V13.92a32.56,32.56,0,0,0-.41-5.62Q200.43,7,196.54,7h-.74q-.5,0-.5-1.32t.5-1.32q2.56-.25,4.87-.66t3.84-.83Q206,2.44,207.16,2t2.35-.83h.17a.89.89,0,0,1,.66.46,2.28,2.28,0,0,1,.41.87,26.62,26.62,0,0,0-1,7.77V27q0,.5.33.5c.05,0,.17-.08.33-.25a15.74,15.74,0,0,1,5.08-3.59A15.22,15.22,0,0,1,222.15,22Z"/><path class="cls-2" d="M272.63,4.34q.41,0,8.1-.5.74,2.31,3.39,8.55t6.49,15.2q3.84,9,6.15,14.75c0,.11.08.17.25.17a.22.22,0,0,0,.25-.25q7.27-17.43,11.57-28.67l3-9.58q2.48.25,6.77.25,3.22,0,9.83-.41a2.41,2.41,0,0,1,.25,1.32q0,1.4-.33,1.4h-.17a6.72,6.72,0,0,0-4,1.32q-1.24.91-1.07,4.46.33,7.35,1.16,34.12a21.83,21.83,0,0,0,1.32,7.6q.33.74,2.31,1.36a11.09,11.09,0,0,0,2.81.62q.33,0,.33,1.49a4,4,0,0,1-.17,1.24l-10.16-.5q-1.65,0-3.47.08l-4,.21-3.51.21a1.76,1.76,0,0,1-.33-1.24q0-1.49.33-1.49a9.76,9.76,0,0,0,2.64-.54,5.17,5.17,0,0,0,2.31-1.2,4.63,4.63,0,0,0,.83-2.89V46.8l-.83-25.11q-.33-5.12-1-5.12-.25,0-.41.5l-15.78,38.5Q296,58.7,294.28,58.7a2.74,2.74,0,0,1-.83-.17L274.94,14.09q-.58,20.57-1.32,36.85a9.13,9.13,0,0,0,.25,2.56q.41.91,3.3,1.73a17.85,17.85,0,0,0,3.88.83q.33,0,.33,1.49a4,4,0,0,1-.17,1.24q-9.91-.5-10.41-.5-2.23,0-5.91.25t-4.5.25a1.91,1.91,0,0,1-.33-1.32q0-1.4.33-1.4a16.52,16.52,0,0,0,4.13-.83q2.81-.82,3.22-2.15a15.36,15.36,0,0,0,.91-5.54q.16-6.28.45-14.83t.5-14.58q.21-6,.21-7.52a7.89,7.89,0,0,0-.25-2.31q-.25-.66-2.77-1.24a18.71,18.71,0,0,0-3.59-.58c-.22,0-.33-.47-.33-1.4a1.76,1.76,0,0,1,.33-1.24l4.25.29Q270.48,4.34,272.63,4.34Z"/><path class="cls-2" d="M353.53,22a18.21,18.21,0,0,1,13.26,5.41,17.7,17.7,0,0,1,5.49,13.09,18.71,18.71,0,0,1-37.42,0,17.8,17.8,0,0,1,5.41-13.14A18.1,18.1,0,0,1,353.53,22Zm-1.07,3.88a6.65,6.65,0,0,0-6,3.76,17.77,17.77,0,0,0-2.15,9A24.09,24.09,0,0,0,347,50.27q2.68,5,7.48,5a6.74,6.74,0,0,0,6.07-3.8,17.58,17.58,0,0,0,2.19-8.92,28.37,28.37,0,0,0-1.07-8,14.57,14.57,0,0,0-3.47-6.16A7.66,7.66,0,0,0,352.46,25.9Z"/><path class="cls-2" d="M401,22q4.54,0,6.77,2.73,0,7-4,7a4.92,4.92,0,0,1-3.22-1.65A5.17,5.17,0,0,0,397,28.46a4.43,4.43,0,0,0-4,2.6,11,11,0,0,0-1.45,5.41V46.8a34.56,34.56,0,0,0,.58,7.44q.16.58,2.19,1.2a11.68,11.68,0,0,0,2.77.62c.17,0,.26.4.29,1.2a8.59,8.59,0,0,1,0,1.61q-.66-.08-4.38-.33t-5.62-.25q-2,0-5.74.25t-4.42.33a2.42,2.42,0,0,1-.33-1.57q0-1.24.33-1.24a11.52,11.52,0,0,0,3-.62q2-.62,2.19-1.2a27,27,0,0,0,.58-6V34.74q0-3.88-1.32-5.29a4,4,0,0,0-1.86-1.24,9.4,9.4,0,0,0-2-.5c-.52-.05-.78-.14-.78-.25q0-2.4.41-2.48a117.19,117.19,0,0,0,13.3-2.48,5,5,0,0,1,.66-.17c.22,0,.41.19.58.58a2,2,0,0,1,.21,1q0,.37-.12,1.16t-.21,1.65a10.5,10.5,0,0,0-.12,1.12,15.16,15.16,0,0,1,4-4A9.05,9.05,0,0,1,401,22Z"/><path class="cls-2" d="M429.21,22a15.32,15.32,0,0,1,6.94,1.53,13.07,13.07,0,0,1,4.79,3.88,19.2,19.2,0,0,1,2.64,4.87,14.24,14.24,0,0,1,.91,4.83q0,1.82-.62,2.27a4.69,4.69,0,0,1-2.52.45H421.61q-.58,0-.58.5a16.07,16.07,0,0,0,1.07,5.78A11.36,11.36,0,0,0,425.78,51,9.72,9.72,0,0,0,432,53.08a22.64,22.64,0,0,0,2.4-.12,12.38,12.38,0,0,0,2.15-.41q1-.29,1.73-.54a7.08,7.08,0,0,0,1.53-.74l1.12-.7q.33-.21,1.65-1.12a1.36,1.36,0,0,1,.41.5,1.6,1.6,0,0,1,.25.83,2.53,2.53,0,0,1-.5,1.57,13.45,13.45,0,0,1-4.87,4.46A15.32,15.32,0,0,1,429.7,59a16.73,16.73,0,0,1-12.39-5.33,17.82,17.82,0,0,1-5.21-12.93q0-8.34,4.83-13.55A16,16,0,0,1,429.21,22Zm-.58,3.8A5.84,5.84,0,0,0,425.08,27a7.79,7.79,0,0,0-2.4,2.81,15.76,15.76,0,0,0-1.2,3.1,10.09,10.09,0,0,0-.37,2.44c0,.39.17.58.5.58H435q.74,0,.74-1.24a10.71,10.71,0,0,0-1.94-5.87A5.92,5.92,0,0,0,428.63,25.82Z"/><path class="cls-2" d="M55.35,83.13q5.58.21,9.13.21t9.17-.21q5.62-.21,9-.29a27.43,27.43,0,0,0,5.7-.83l1.57,12.64a3.19,3.19,0,0,1-2.23.58c-.44,0-.72-.14-.83-.41q-1.16-4.54-3.06-6.16t-5.95-1.61q-7.68,0-8,1.4a28.85,28.85,0,0,0-.74,7.77v29.82a28.18,28.18,0,0,0,.74,7.19q.08.58,2.23,1.2a13.15,13.15,0,0,0,2.89.62c.22,0,.33.5.33,1.49a4.32,4.32,0,0,1-.17,1.32L72,137.62q-2.11-.17-3.88-.25t-3.43-.08q-2.23,0-6.15.25t-4.83.33a1.91,1.91,0,0,1-.33-1.32q0-1.49.33-1.49a13.19,13.19,0,0,0,3.1-.58q2.11-.58,2.35-1.24a26.09,26.09,0,0,0,.66-6.86V96.48q0-6.86-.74-8-.66-1.4-7.85-1.4-4,0-5.95,1.61t-3.14,6.07q-.08.5-.83.5a2.77,2.77,0,0,1-2.15-.66L40.69,82a27.41,27.41,0,0,0,5.7.83Q49.78,82.93,55.35,83.13Z"/><path class="cls-2" d="M121.24,101q10.57,0,10.57,16.28v8.51a30.34,30.34,0,0,0,.66,7.44q.08.58,2.19,1.2a12.65,12.65,0,0,0,2.85.62c.17,0,.26.4.29,1.2a8.63,8.63,0,0,1,0,1.61q-.58-.08-4.42-.33t-5.66-.25q-2.07,0-5.58.25t-4.34.33a3.09,3.09,0,0,1-.25-1.57q0-1.24.25-1.24a9.87,9.87,0,0,0,2.85-.62q1.86-.62,2.11-1.2a31.29,31.29,0,0,0,.5-6v-8.1q0-6.86-1.86-9.46t-5.91-2.6a7.91,7.91,0,0,0-4.54,1.4,3.9,3.9,0,0,0-2.07,3.14V125.8a30.34,30.34,0,0,0,.66,7.44q.16.58,2.19,1.2a11.68,11.68,0,0,0,2.77.62c.17,0,.26.4.29,1.2a4.69,4.69,0,0,1-.12,1.61q-.66-.08-4.34-.33t-5.58-.25q-2,0-5.74.25t-4.42.33a2.42,2.42,0,0,1-.33-1.57q0-1.24.33-1.24a11.52,11.52,0,0,0,3-.62q2-.62,2.19-1.2a26.56,26.56,0,0,0,.58-5.95V92.92a32.61,32.61,0,0,0-.41-5.62Q99.51,86,95.63,86h-.74q-.5,0-.5-1.32t.5-1.32q2.56-.25,4.87-.66t3.84-.83q1.53-.41,2.64-.83t2.35-.83h.17a.89.89,0,0,1,.66.46,2.27,2.27,0,0,1,.41.87,26.62,26.62,0,0,0-1,7.77V106c0,.33.11.5.33.5.05,0,.17-.08.33-.25a15.73,15.73,0,0,1,5.08-3.59A15.23,15.23,0,0,1,121.24,101Z"/><path class="cls-2" d="M159.32,101q5.12,0,7.68,2.69t2.56,9.21v16.28a3.77,3.77,0,0,0,.74,2.52,2.48,2.48,0,0,0,2,.87,5.15,5.15,0,0,0,2.81-1.07c.33.11.5.41.5.91a4.91,4.91,0,0,1-.5,2.48,20.43,20.43,0,0,1-3.3,2.07,8.61,8.61,0,0,1-4,1.07,6,6,0,0,1-3.72-1.41,6.78,6.78,0,0,1-2.4-3.06l-.62.54q-.54.46-1.49,1.12a24.47,24.47,0,0,1-2.15,1.32,13.18,13.18,0,0,1-2.81,1.12,12,12,0,0,1-3.26.45,9.86,9.86,0,0,1-6.73-2.27,7.85,7.85,0,0,1-2.6-6.24,7.61,7.61,0,0,1,.95-3.72,9.87,9.87,0,0,1,2.27-2.85,16.92,16.92,0,0,1,3.55-2.19,33.8,33.8,0,0,1,3.84-1.61q1.61-.54,4.13-1.28t3.51-1.07a1.3,1.3,0,0,0,.74-1.32V111a7.09,7.09,0,0,0-1.32-4.54,4.31,4.31,0,0,0-3.55-1.65,5,5,0,0,0-3.88,1.53,6.18,6.18,0,0,0-1.4,4.34,2.68,2.68,0,0,1-1.24,2.44,5.14,5.14,0,0,1-2.81.78q-3.06,0-4.3-2,0-4,5.41-7.43A20.72,20.72,0,0,1,159.32,101Zm-3.72,31.72a6.4,6.4,0,0,0,3.84-1.16,3.27,3.27,0,0,0,1.61-2.64v-8.43q-.58.25-2.44.83t-2.85,1a22.51,22.51,0,0,0-2.31,1.16,5,5,0,0,0-1.94,1.82,4.55,4.55,0,0,0-.62,2.31,5.09,5.09,0,0,0,1.32,3.88A4.75,4.75,0,0,0,155.6,132.74Z"/><path class="cls-2" d="M206.33,101Q217,101,217,118v7.85a34.56,34.56,0,0,0,.58,7.44q.16.58,2.27,1.2a12.65,12.65,0,0,0,2.85.62c.17,0,.26.4.29,1.2a4.7,4.7,0,0,1-.12,1.61q-.5-.08-4.34-.33t-5.74-.25q-2,0-5.49.25t-4.25.33a2.42,2.42,0,0,1-.33-1.57q0-1.24.33-1.24a9.82,9.82,0,0,0,2.77-.62q1.86-.62,2-1.2a23.72,23.72,0,0,0,.66-6v-7.85q0-6.86-1.86-9.58T200.71,107a7.65,7.65,0,0,0-4.63,1.45,4,4,0,0,0-2,3.1V125.8a34.56,34.56,0,0,0,.58,7.44q.16.58,2.19,1.2a11.88,11.88,0,0,0,2.69.62c.22,0,.34.4.37,1.2a4.68,4.68,0,0,1-.12,1.61q-.66-.08-4.34-.33t-5.58-.25q-2,0-5.74.25t-4.42.33a2.42,2.42,0,0,1-.33-1.57q0-1.24.33-1.24a11.52,11.52,0,0,0,3-.62q2-.62,2.19-1.2a27,27,0,0,0,.58-6V113.74q0-3.88-1.32-5.29a4,4,0,0,0-1.86-1.24,9.41,9.41,0,0,0-2-.5c-.52-.05-.78-.14-.78-.25q0-2.4.41-2.48a117.17,117.17,0,0,0,13.3-2.48.54.54,0,0,1,.21-.12.78.78,0,0,1,.25,0h.21c.22,0,.41.19.58.58a2.51,2.51,0,0,1,.25.91,28.12,28.12,0,0,0-.33,3,.65.65,0,0,0,.08.41,1.22,1.22,0,0,0,.41-.25,18.32,18.32,0,0,1,5.08-3.47A14.46,14.46,0,0,1,206.33,101Z"/><path class="cls-2" d="M274.9,83l17.35,43.29q1.24,3.3,2.48,6a4,4,0,0,0,2.64,2,11,11,0,0,0,3.14.74q.33,0,.33,1.49a2.77,2.77,0,0,1-.17,1.24q-9.91-.5-10.41-.5t-10.74.5a2.33,2.33,0,0,1-.33-1.53c0-.8.11-1.2.33-1.2a10.65,10.65,0,0,0,2.73-.5q1.74-.5,2.06-1.16a2.36,2.36,0,0,0,.25-1.07,19,19,0,0,0-1.57-5.7l-2.89-7.68a.91.91,0,0,0-.58-.33q-2.65-.16-7.1-.17t-9.42.25c-.33,0-.5.11-.5.33l-3.14,7.68a23.45,23.45,0,0,0-1.57,5.37,1.84,1.84,0,0,0,.91,1.65,8.27,8.27,0,0,0,2.6.91,14.26,14.26,0,0,0,2.52.41q.25.08.25,1.16a5.41,5.41,0,0,1-.17,1.57q-.41,0-3.88-.25t-5.62-.25q-2.15,0-5.08.21l-4.17.29a1.76,1.76,0,0,1-.33-1.24q0-1.49.17-1.49a11.94,11.94,0,0,0,3.18-.7,5.1,5.1,0,0,0,2.77-1.61,39.3,39.3,0,0,0,3.14-6.44l15.37-37.18q1.9-5,3.06-5.95a2.11,2.11,0,0,1,1.4-.58A1.35,1.35,0,0,1,274.9,83ZM265,113.74q2.89.25,5.95.25,2.89,0,6.77-.25l.17-.33-6.28-16.52-6.77,16.52C264.82,113.63,264.87,113.74,265,113.74Z"/><path class="cls-2" d="M50.52,162.17H64.81q13.46,0,21,7.93a26.18,26.18,0,0,1,7.56,18.67q0,11.9-7.64,20t-21,8.05q-1.74,0-6.82-.17t-7.31-.17l-11,.33a2.15,2.15,0,0,1-.25-1.32q0-1.4.25-1.4a13.59,13.59,0,0,0,3.14-.54q2.06-.54,2.4-1.28.58-1.73.58-7.52V173.49a26.16,26.16,0,0,0-.58-6.77q-.25-.91-2.31-1.49a13,13,0,0,0-3.3-.58q-.33,0-.33-1.24a2.25,2.25,0,0,1,.33-1.49Q45,162.17,50.52,162.17Zm4.54,10.57v32.38q0,4.63.91,6.11,1.32,1.32,10.08,1.32,16.77,0,16.77-24.12,0-9.25-4.5-15.7t-12.85-6.44h-.41q-7.93,0-8.92,1.32Q55.06,169.11,55.06,172.75Z"/><path class="cls-2" d="M116.53,180a18.21,18.21,0,0,1,13.26,5.41,17.7,17.7,0,0,1,5.49,13.09,18.75,18.75,0,0,1-32,13.14,18.6,18.6,0,0,1,0-26.27A18.1,18.1,0,0,1,116.53,180Zm-1.07,3.88a6.65,6.65,0,0,0-6,3.76,17.77,17.77,0,0,0-2.15,9A24.09,24.09,0,0,0,110,208.27q2.68,5,7.48,5a6.74,6.74,0,0,0,6.07-3.8,17.58,17.58,0,0,0,2.19-8.92,28.37,28.37,0,0,0-1.07-8,14.57,14.57,0,0,0-3.47-6.16A7.66,7.66,0,0,0,115.45,183.9Z"/><path class="cls-2" d="M157.5,180a20,20,0,0,1,7.81,1.45,13.18,13.18,0,0,1,4.92,3.18,10.21,10.21,0,0,1-1,4.67,3,3,0,0,1-2.85,1.86,3.7,3.7,0,0,1-2.52-.83,9.38,9.38,0,0,1-1.94-2.73q-1.9-3.8-5.54-3.8t-5.66,3.59a17.66,17.66,0,0,0-2.11,9q0,7.44,3.06,11a9.75,9.75,0,0,0,7.77,3.59,22.67,22.67,0,0,0,2.4-.12,12.37,12.37,0,0,0,2.15-.41q1-.29,1.74-.54a7.11,7.11,0,0,0,1.53-.74l1.12-.7q.33-.21,1.65-1.12a1.37,1.37,0,0,1,.41.5,1.6,1.6,0,0,1,.25.83,2.54,2.54,0,0,1-.5,1.57,13.46,13.46,0,0,1-4.87,4.46,15.18,15.18,0,0,1-8.1,2.23,16.71,16.71,0,0,1-12.52-5.37,18.24,18.24,0,0,1-5.16-13.14,18.78,18.78,0,0,1,5-13A16.64,16.64,0,0,1,157.5,180Z"/><path class="cls-2" d="M211.78,188.94V205.3a18.3,18.3,0,0,0,.66,5.78,1.71,1.71,0,0,0,.95.66,6.4,6.4,0,0,0,1.45.33,12.27,12.27,0,0,0,1.36.08,1.52,1.52,0,0,1,.7.08c.22.06.33.3.33.74a6.29,6.29,0,0,1-.17,1.12c-.11.52-.28.79-.5.79a19,19,0,0,0-2.93.29l-3.43.58q-1.65.29-3.14.62t-3.3.66q-.58,0-.58-1.32v-3.63q-.08-.41-.25-.41a18.45,18.45,0,0,1-5,3.72,13.84,13.84,0,0,1-6.53,1.65,8.65,8.65,0,0,1-4.92-1.41,10,10,0,0,1-3.3-3.63,17.76,17.76,0,0,1-1.73-4.79,25.19,25.19,0,0,1-.54-5.21v-9.25q0-3.88-1.32-5.29a4.59,4.59,0,0,0-1.9-1.24,8.69,8.69,0,0,0-2-.5c-.55-.05-.83-.14-.83-.25q0-2.4.41-2.48a62.32,62.32,0,0,0,6.77-1,64.74,64.74,0,0,0,6.53-1.49,1.34,1.34,0,0,0,.33-.08,1.4,1.4,0,0,1,.33-.08q.41,0,.62.58a2.93,2.93,0,0,1,.21.91q-.74,5.62-.74,7.27V199q0,6.44,1.82,9.25t5.87,2.81a6.48,6.48,0,0,0,4.46-1.61,4.4,4.4,0,0,0,1.82-3.1V192.74q0-3.88-1.32-5.29a4,4,0,0,0-1.86-1.24,9.31,9.31,0,0,0-2-.5c-.55-.05-.83-.14-.83-.25q0-2.4.5-2.48a63.42,63.42,0,0,0,6.69-1,64.77,64.77,0,0,0,6.53-1.49,4.79,4.79,0,0,0,.66-.17q.41,0,.66.58a1.53,1.53,0,0,1,.17.91Q211.78,187.46,211.78,188.94Z"/><path class="cls-2" d="M248.54,180a8.93,8.93,0,0,1,5.37,1.61,9.67,9.67,0,0,1,3.3,4.17,19.48,19.48,0,0,1,6-4.13A18.56,18.56,0,0,1,271,180a9.38,9.38,0,0,1,5.08,1.32,9.12,9.12,0,0,1,3.3,3.68,19.43,19.43,0,0,1,1.73,5.12,31.46,31.46,0,0,1,.54,6v8.67a34.6,34.6,0,0,0,.58,7.44q.17.58,2.23,1.2a12.14,12.14,0,0,0,2.81.62c.17,0,.26.4.29,1.2a4.7,4.7,0,0,1-.12,1.61q-.58-.08-4.34-.33t-5.66-.25q-2,0-5.66.25t-4.42.33a3.08,3.08,0,0,1-.25-1.57q0-1.24.25-1.24a11.09,11.09,0,0,0,3-.62q2-.62,2.15-1.2a25.69,25.69,0,0,0,.58-5.78V198q0-12-7.68-12a7.52,7.52,0,0,0-4.54,1.32,5.16,5.16,0,0,0-2.15,2.56q0,.25,0,.66a1.61,1.61,0,0,0,0,.66,40.41,40.41,0,0,1,.25,5.12v8.76a32.5,32.5,0,0,0,.58,7.1q.17.58,2.23,1.2a12.14,12.14,0,0,0,2.81.62c.17,0,.26.4.29,1.2a4.7,4.7,0,0,1-.12,1.61q-.58-.08-4.34-.33t-5.66-.25q-2,0-5.66.25t-4.42.33a3.08,3.08,0,0,1-.25-1.57q0-1.24.25-1.24a11.09,11.09,0,0,0,3-.62q2-.62,2.15-1.2a27,27,0,0,0,.58-6v-7.93q0-6.44-1.9-9.33a6.29,6.29,0,0,0-5.62-2.89,7.91,7.91,0,0,0-4.54,1.4,3.9,3.9,0,0,0-2.07,3.14V204.8a30.36,30.36,0,0,0,.66,7.44q.16.58,2.15,1.2a11.21,11.21,0,0,0,2.73.62c.22,0,.34.4.37,1.2a4.7,4.7,0,0,1-.12,1.61q-.66-.08-4.34-.33t-5.58-.25q-2.07,0-5.78.25t-4.38.33a2.42,2.42,0,0,1-.33-1.57q0-1.24.33-1.24a12,12,0,0,0,3-.62q2.06-.62,2.23-1.2a27,27,0,0,0,.58-6V192.74q0-3.88-1.32-5.29a4,4,0,0,0-1.86-1.24,9.31,9.31,0,0,0-2-.5c-.55-.05-.83-.14-.83-.25q0-2.4.5-2.48a114.56,114.56,0,0,0,13.22-2.48.54.54,0,0,1,.25-.12,1.75,1.75,0,0,1,.41,0q.41,0,.66.58a1.53,1.53,0,0,1,.17.91,28.17,28.17,0,0,0-.33,3c0,.22.05.36.17.41a1.23,1.23,0,0,0,.41-.25,18.31,18.31,0,0,1,5.08-3.47A14.46,14.46,0,0,1,248.54,180Z"/><path class="cls-2" d="M308.19,180a15.32,15.32,0,0,1,6.94,1.53,13.07,13.07,0,0,1,4.79,3.88,19.2,19.2,0,0,1,2.64,4.87,14.24,14.24,0,0,1,.91,4.83q0,1.82-.62,2.27a4.69,4.69,0,0,1-2.52.45H300.59q-.58,0-.58.5a16.07,16.07,0,0,0,1.07,5.78,11.36,11.36,0,0,0,3.68,4.87,9.72,9.72,0,0,0,6.24,2.07,22.64,22.64,0,0,0,2.4-.12,12.38,12.38,0,0,0,2.15-.41q1-.29,1.73-.54a7.08,7.08,0,0,0,1.53-.74l1.12-.7q.33-.21,1.65-1.12a1.36,1.36,0,0,1,.41.5,1.6,1.6,0,0,1,.25.83,2.53,2.53,0,0,1-.5,1.57,13.45,13.45,0,0,1-4.87,4.46,15.32,15.32,0,0,1-8.18,2.23,16.73,16.73,0,0,1-12.39-5.33,17.82,17.82,0,0,1-5.21-12.93q0-8.34,4.83-13.55A16,16,0,0,1,308.19,180Zm-.58,3.8a5.84,5.84,0,0,0-3.55,1.16,7.79,7.79,0,0,0-2.4,2.81,15.76,15.76,0,0,0-1.2,3.1,10.09,10.09,0,0,0-.37,2.44c0,.39.17.58.5.58H314q.74,0,.74-1.24a10.71,10.71,0,0,0-1.94-5.87A5.92,5.92,0,0,0,307.61,183.82Z"/><path class="cls-2" d="M354.29,180q10.66,0,10.66,16.94v7.85a34.56,34.56,0,0,0,.58,7.44q.16.58,2.27,1.2a12.65,12.65,0,0,0,2.85.62c.17,0,.26.4.29,1.2a4.69,4.69,0,0,1-.12,1.61q-.5-.08-4.34-.33t-5.74-.25q-2,0-5.49.25t-4.25.33a2.42,2.42,0,0,1-.33-1.57q0-1.24.33-1.24a9.82,9.82,0,0,0,2.77-.62q1.86-.62,2-1.2a23.72,23.72,0,0,0,.66-6v-7.85q0-6.86-1.86-9.58T348.67,186A7.65,7.65,0,0,0,344,187.5a4,4,0,0,0-2,3.1V204.8a34.6,34.6,0,0,0,.58,7.44q.16.58,2.19,1.2a11.88,11.88,0,0,0,2.69.62c.22,0,.34.4.37,1.2a4.67,4.67,0,0,1-.12,1.61q-.66-.08-4.34-.33t-5.58-.25q-2,0-5.74.25t-4.42.33a2.42,2.42,0,0,1-.33-1.57q0-1.24.33-1.24a11.52,11.52,0,0,0,3-.62q2-.62,2.19-1.2a27,27,0,0,0,.58-6V192.74q0-3.88-1.32-5.29a4,4,0,0,0-1.86-1.24,9.41,9.41,0,0,0-2-.5c-.52-.05-.79-.14-.79-.25q0-2.4.41-2.48a117.19,117.19,0,0,0,13.3-2.48.54.54,0,0,1,.21-.12.79.79,0,0,1,.25,0h.21c.22,0,.41.19.58.58a2.52,2.52,0,0,1,.25.91,28.17,28.17,0,0,0-.33,3,.65.65,0,0,0,.08.41,1.23,1.23,0,0,0,.41-.25,18.32,18.32,0,0,1,5.08-3.47A14.46,14.46,0,0,1,354.29,180Z"/><path class="cls-2" d="M380.31,185.8h-5q-.58,0-.58-2.15a2.07,2.07,0,0,1,.08-.74,23.1,23.1,0,0,0,6.36-4.38q1.07-1.07,2.35-2.44t3-3.51a5.88,5.88,0,0,1,1.57.21c.5.14.74.29.74.46v8.1l6,0,4.09,0q.66,0,.66.74a8,8,0,0,1-.83,3.63h-9.91v19.91a7.84,7.84,0,0,0,1.4,5,4.72,4.72,0,0,0,3.88,1.74,7.78,7.78,0,0,0,1.73-.21,8.77,8.77,0,0,0,1.49-.45q.58-.25,1.07-.5a2.58,2.58,0,0,1,.58-.25q.33-.08.74.74c.28.55.38.91.33,1.07q-.5,1.16-3.51,2.68a13,13,0,0,1-5.91,1.53,10.42,10.42,0,0,1-7.31-2.77q-3-2.77-3-8.55Z"/><path class="cls-3" d="M506.14,112.27,312.7,159.84a17.75,17.75,0,0,1-21.46-13h0a17.75,17.75,0,0,1,13-21.46L497.71,77.78a17.75,17.75,0,0,1,21.46,13h0A17.75,17.75,0,0,1,506.14,112.27Z"/><path class="cls-1" d="M326.39,129l3.37-.82,8.47,13.6-2.85.7-1.81-2.94-5.49,1.34-.27,3.45L325,145Zm1.88,9.68,4.15-1-3.61-5.86Z"/><path class="cls-1" d="M341.26,131.32a4.14,4.14,0,0,1,6.38-2.48,5.83,5.83,0,0,1,1.91,3.3l1.58,6.47-2.69.66-1.58-6.47a2.69,2.69,0,0,0-1-1.71,2.24,2.24,0,0,0-1.82-.22,2.35,2.35,0,0,0-1.6,1.41,4.87,4.87,0,0,0-.11,3.07l1.25,5.13-2.69.66-2.71-11.07,2.35-.57Z"/><path class="cls-1" d="M361.85,134.18a3.43,3.43,0,0,1-2.65,2.8,4.7,4.7,0,0,1-4-.75,6.44,6.44,0,0,1-2.53-3.92,6.36,6.36,0,0,1,.38-4.56,4.56,4.56,0,0,1,3.08-2.42,3.55,3.55,0,0,1,3.53.9l-1.45-5.92,2.71-.66,3.82,15.63-2.21.54Zm-4.57-6.56A2.44,2.44,0,0,0,355.6,129a3.87,3.87,0,0,0-.16,2.66,3.92,3.92,0,0,0,1.39,2.31,2.51,2.51,0,0,0,3.76-.74,2.8,2.8,0,0,0,.31-2.2l-.35-1.44a2.86,2.86,0,0,0-1.27-1.74A2.54,2.54,0,0,0,357.28,127.62Z"/><path class="cls-1" d="M369.55,124.69q.42-2.64,2.42-3.13a4.06,4.06,0,0,1,1-.08l.61,2.7a6.15,6.15,0,0,0-1.29.17q-2.69.66-1.78,4.37l1.19,4.85-2.69.66-2.71-11.1,2.69-.66Z"/><path class="cls-1" d="M385.12,121.75a6.38,6.38,0,0,1,.71,1.68,10.52,10.52,0,0,1,.26,1.46l-7.15,1.75a4,4,0,0,0,1.2,2,2.22,2.22,0,0,0,2.07.39,1.83,1.83,0,0,0,1.63-1.94l2.71-.66a4.09,4.09,0,0,1-.89,3,5.18,5.18,0,0,1-2.92,1.78,5,5,0,0,1-4.06-.7,6.23,6.23,0,0,1-2.57-3.89,6.16,6.16,0,0,1,.48-4.66,5,5,0,0,1,3.29-2.45,4.42,4.42,0,0,1,4,.74A5.21,5.21,0,0,1,385.12,121.75Zm-4.69-.08a2.29,2.29,0,0,0-1.6,1.18,3.43,3.43,0,0,0-.29,2.09l4.72-1.15a2.56,2.56,0,0,0-1.73-2.14A2.3,2.3,0,0,0,380.43,121.67Z"/><path class="cls-1" d="M392.66,121.6a13.18,13.18,0,0,1,3.16-.31l-.27-1.09a2.72,2.72,0,0,0-.89-1.61,1.94,1.94,0,0,0-1.66-.18,2.78,2.78,0,0,0-1.53.82,1.44,1.44,0,0,0-.28,1.34l-2.94.72a3.08,3.08,0,0,1,.66-3.06,7.16,7.16,0,0,1,3.52-1.75q3.42-.84,5,1.31a5.16,5.16,0,0,1,.82,1.85l1.72,7-2.35.57-.57-1.43a3.66,3.66,0,0,1-2.84,2.6,5,5,0,0,1-3.58-.23,3.39,3.39,0,0,1-1.72-2.27,2.79,2.79,0,0,1,.63-2.66A5.92,5.92,0,0,1,392.66,121.6Zm3.58,1.4a9.9,9.9,0,0,0-2.6.25q-2.19.53-1.83,2a1.41,1.41,0,0,0,.76.94,2.46,2.46,0,0,0,1.71.05,2.5,2.5,0,0,0,1.64-1.19A2.81,2.81,0,0,0,396.23,123Z"/><path class="cls-1" d="M409.46,108.67l3.37-.82,8.47,13.6-2.85.7-1.81-2.94-5.49,1.34-.27,3.45-2.85.7Zm1.88,9.68,4.15-1-3.61-5.86Z"/><path class="cls-1" d="M424.44,111.27q.42-2.64,2.42-3.13a4.06,4.06,0,0,1,1-.08l.61,2.7a6.15,6.15,0,0,0-1.29.17q-2.69.66-1.78,4.37l1.19,4.85-2.69.66-2.71-11.1,2.69-.66Z"/><path class="cls-1" d="M433.92,108.95q.42-2.64,2.42-3.13a4.06,4.06,0,0,1,1-.08l.61,2.7a6.15,6.15,0,0,0-1.29.17q-2.69.66-1.78,4.37l1.19,4.85-2.69.66-2.71-11.1,2.69-.66Z"/><path class="cls-1" d="M449.75,112.37a3.61,3.61,0,0,1-2.83,3q-2.94.72-4.44-1.35a5,5,0,0,1-.82-1.85l-1.73-7.06,2.69-.66,1.66,6.79a2.31,2.31,0,0,0,.92,1.5,1.78,1.78,0,0,0,1.42.22,3.47,3.47,0,0,0,1.23-.53,2.56,2.56,0,0,0,.75-.87,4.18,4.18,0,0,0,.25-2.84l-1.34-5.47,2.69-.66,2.71,11.1-2.69.66Z"/><path class="cls-1" d="M464.09,100.63a6.3,6.3,0,0,1,2.43,3.85,6.44,6.44,0,0,1-.43,4.65,4.72,4.72,0,0,1-3.18,2.49,3.52,3.52,0,0,1-2-.09,3.8,3.8,0,0,1-1.77-1.35l-.19,2.08-1.75.43L453.35,97l2.69-.66,1.45,5.95a3.55,3.55,0,0,1,2.72-2.45A4.59,4.59,0,0,1,464.09,100.63Zm-5.75,5.17.36,1.46A2.75,2.75,0,0,0,460,109a2.61,2.61,0,0,0,2,.28,2.4,2.4,0,0,0,1.63-1.4,3.92,3.92,0,0,0,.16-2.68,3.87,3.87,0,0,0-1.37-2.29,2.44,2.44,0,0,0-2.13-.46,2.64,2.64,0,0,0-1.71,1.21A2.76,2.76,0,0,0,458.34,105.8Z"/><path class="cls-1" d="M467.34,93.63,470,93l3.82,15.63-2.69.66Z"/><path class="cls-1" d="M480.15,100.2a13.18,13.18,0,0,1,3.16-.31L483,98.79a2.72,2.72,0,0,0-.89-1.61,1.94,1.94,0,0,0-1.66-.18,2.78,2.78,0,0,0-1.53.82,1.44,1.44,0,0,0-.28,1.34l-2.94.72a3.08,3.08,0,0,1,.66-3.06,7.16,7.16,0,0,1,3.52-1.75q3.42-.84,5,1.31a5.16,5.16,0,0,1,.82,1.85l1.72,7-2.35.57-.57-1.43a3.66,3.66,0,0,1-2.84,2.6,5,5,0,0,1-3.58-.23,3.39,3.39,0,0,1-1.72-2.27,2.79,2.79,0,0,1,.63-2.66A5.92,5.92,0,0,1,480.15,100.2Zm3.58,1.4a9.9,9.9,0,0,0-2.6.25q-2.19.53-1.83,2a1.41,1.41,0,0,0,.76.94,2.46,2.46,0,0,0,1.71.05,2.5,2.5,0,0,0,1.64-1.19A2.81,2.81,0,0,0,483.72,101.6Z"/></svg>