<svg id="Layer_1" data-name="Layer 1" xmlns="http://www.w3.org/2000/svg" viewBox="0 0 629.53 237.62"><defs><style>.cls-1{fill:#1414ef;}.cls-2{fill:#fff;stroke:#1414ef;stroke-miterlimit:10;}</style></defs><title>title--narrow-hover</title><path class="cls-1" d="M7,18.16H9.91v1.57H2.28V18.16H5.13V9L2.85,10.34,2,8.91,5.67,6.67H7Z"/><path class="cls-1" d="M20,8.18a7.49,7.49,0,0,1,1.31,4.73,10.18,10.18,0,0,1-.62,3.75,5.18,5.18,0,0,1-1.78,2.39,4.69,4.69,0,0,1-2.79.82,6.29,6.29,0,0,1-2.23-.41A5.68,5.68,0,0,1,12,18.31l.67-1.41a5.53,5.53,0,0,0,3.41,1.43,2.75,2.75,0,0,0,2.46-1.4,7.54,7.54,0,0,0,.87-4v0a3.16,3.16,0,0,1-1.32,1.49A4,4,0,0,1,16,15a4.14,4.14,0,0,1-2.09-.53A3.66,3.66,0,0,1,12.48,13,4.5,4.5,0,0,1,12,10.78a4.35,4.35,0,0,1,.56-2.2,4,4,0,0,1,1.53-1.52,4.44,4.44,0,0,1,2.21-.55A4.47,4.47,0,0,1,20,8.18Zm-1.74,4.48A2.59,2.59,0,0,0,19,10.75a2.63,2.63,0,0,0-.72-1.94,2.56,2.56,0,0,0-1.91-.73,2.42,2.42,0,0,0-1.84.73,2.69,2.69,0,0,0-.69,1.94,2.67,2.67,0,0,0,.69,1.92,2.42,2.42,0,0,0,1.84.73A2.57,2.57,0,0,0,18.26,12.66Z"/><path class="cls-1" d="M62.71,4a23.78,23.78,0,0,1,4.5.45A24.2,24.2,0,0,1,72.09,6a19.61,19.61,0,0,1,4.5,2.64,11.62,11.62,0,0,1,3.22,4.13,13.11,13.11,0,0,1,1.24,5.78A14.06,14.06,0,0,1,78.16,27a16,16,0,0,1-7,5.62q-.66.25-.33.83a96.85,96.85,0,0,0,9.25,14,35.92,35.92,0,0,0,6.24,6.07,10.53,10.53,0,0,0,6.15,2.52,2.36,2.36,0,0,1,.33,1.32,3.28,3.28,0,0,1-.33,1.49,16.08,16.08,0,0,1-2.56.17,27.45,27.45,0,0,1-7.64-1,17.64,17.64,0,0,1-5.95-2.93,32,32,0,0,1-4.17-3.76,35.69,35.69,0,0,1-3.47-4.63Q67.5,45.07,66,42.84l-2.27-3.43Q63,38.21,62,36.89a16.21,16.21,0,0,0-1.69-2A4.22,4.22,0,0,0,58.91,34a5.16,5.16,0,0,0-2-.25q-1.32,0-1.32,1.4V46.8a25.8,25.8,0,0,0,.66,7q.25,1,2.77,1.61a17.43,17.43,0,0,0,3.68.62q.33,0,.33,1.4a4.66,4.66,0,0,1-.17,1.4q-9.09-.5-11.73-.5-2.23,0-5,.12l-4.42.21-1.65.17a2.84,2.84,0,0,1-.25-1.49q0-1.32.25-1.32a14.09,14.09,0,0,0,3.18-.54q2.11-.54,2.44-1.28.5-1.49.5-7.52V15.49a32.47,32.47,0,0,0-.5-6.77q-.25-.66-2.44-1.36a12,12,0,0,0-3.18-.7q-.33,0-.33-1.24t.33-1.49q8.76.25,11,.25t5.74-.08Q60.23,4,62.71,4ZM61.39,8.14a13.52,13.52,0,0,0-4.79.58q-.91.41-1,8.59v9.5a2.32,2.32,0,0,0,1.4,2.4,10.46,10.46,0,0,0,3.88.58H63a7.1,7.1,0,0,0,5.49-2.89A11.27,11.27,0,0,0,71,19.38Q71,8.14,61.39,8.14Z"/><path class="cls-1" d="M110,22a15.31,15.31,0,0,1,6.94,1.53,13.07,13.07,0,0,1,4.79,3.88,19.23,19.23,0,0,1,2.64,4.87,14.24,14.24,0,0,1,.91,4.83q0,1.82-.62,2.27a4.69,4.69,0,0,1-2.52.45H102.37q-.58,0-.58.5a16,16,0,0,0,1.07,5.78A11.36,11.36,0,0,0,106.54,51a9.72,9.72,0,0,0,6.24,2.07,22.67,22.67,0,0,0,2.4-.12,12.37,12.37,0,0,0,2.15-.41q1-.29,1.74-.54a7.11,7.11,0,0,0,1.53-.74l1.12-.7q.33-.21,1.65-1.12a1.37,1.37,0,0,1,.41.5,1.6,1.6,0,0,1,.25.83,2.54,2.54,0,0,1-.5,1.57,13.46,13.46,0,0,1-4.87,4.46A15.33,15.33,0,0,1,110.47,59,16.73,16.73,0,0,1,98.07,53.7a17.82,17.82,0,0,1-5.2-12.93q0-8.34,4.83-13.55A16,16,0,0,1,110,22Zm-.58,3.8A5.84,5.84,0,0,0,105.84,27a7.79,7.79,0,0,0-2.4,2.81,15.79,15.79,0,0,0-1.2,3.1,10.11,10.11,0,0,0-.37,2.44c0,.39.17.58.5.58h13.38q.74,0,.74-1.24a10.71,10.71,0,0,0-1.94-5.87A5.92,5.92,0,0,0,109.39,25.82Z"/><path class="cls-1" d="M156.07,22a8.92,8.92,0,0,1,5.37,1.61,9.66,9.66,0,0,1,3.3,4.17,19.48,19.48,0,0,1,6-4.13A18.55,18.55,0,0,1,178.54,22a9.38,9.38,0,0,1,5.08,1.32,9.12,9.12,0,0,1,3.3,3.68,19.44,19.44,0,0,1,1.73,5.12,31.5,31.5,0,0,1,.54,6V46.8a34.6,34.6,0,0,0,.58,7.44q.16.58,2.23,1.2a12.15,12.15,0,0,0,2.81.62c.17,0,.26.4.29,1.2a4.69,4.69,0,0,1-.12,1.61q-.58-.08-4.34-.33T185,58.29q-2,0-5.66.25t-4.42.33a3.08,3.08,0,0,1-.25-1.57q0-1.24.25-1.24a11.08,11.08,0,0,0,3-.62q2-.62,2.15-1.2a25.72,25.72,0,0,0,.58-5.78V40q0-12-7.68-12a7.52,7.52,0,0,0-4.54,1.32,5.16,5.16,0,0,0-2.15,2.56c0,.17,0,.39,0,.66a1.61,1.61,0,0,0,0,.66,40.4,40.4,0,0,1,.25,5.12v8.76a32.5,32.5,0,0,0,.58,7.1q.16.58,2.23,1.2a12.15,12.15,0,0,0,2.81.62c.17,0,.26.4.29,1.2a4.7,4.7,0,0,1-.12,1.61q-.58-.08-4.34-.33t-5.66-.25q-2,0-5.66.25t-4.42.33a3.08,3.08,0,0,1-.25-1.57q0-1.24.25-1.24a11.08,11.08,0,0,0,3-.62q2-.62,2.15-1.2a27,27,0,0,0,.58-6V40.28q0-6.44-1.9-9.33A6.29,6.29,0,0,0,150.37,28a7.91,7.91,0,0,0-4.54,1.4,3.9,3.9,0,0,0-2.07,3.14V46.8a30.36,30.36,0,0,0,.66,7.44q.16.58,2.15,1.2a11.21,11.21,0,0,0,2.73.62c.22,0,.34.4.37,1.2a4.7,4.7,0,0,1-.12,1.61q-.66-.08-4.34-.33t-5.58-.25q-2.07,0-5.78.25t-4.38.33a2.42,2.42,0,0,1-.33-1.57q0-1.24.33-1.24a12,12,0,0,0,3-.62q2.06-.62,2.23-1.2a27,27,0,0,0,.58-6V34.74q0-3.88-1.32-5.29a4,4,0,0,0-1.86-1.24,9.31,9.31,0,0,0-2-.5c-.55-.05-.83-.14-.83-.25q0-2.4.5-2.48a114.55,114.55,0,0,0,13.22-2.48.53.53,0,0,1,.25-.12,1.74,1.74,0,0,1,.41,0q.41,0,.66.58a1.53,1.53,0,0,1,.17.91,28.23,28.23,0,0,0-.33,3c0,.22.05.36.17.41a1.23,1.23,0,0,0,.41-.25,18.31,18.31,0,0,1,5.08-3.47A14.46,14.46,0,0,1,156.07,22Z"/><path class="cls-1" d="M214.28,22a15.32,15.32,0,0,1,6.94,1.53A13.07,13.07,0,0,1,226,27.43a19.21,19.21,0,0,1,2.64,4.87,14.24,14.24,0,0,1,.91,4.83q0,1.82-.62,2.27a4.69,4.69,0,0,1-2.52.45H206.68q-.58,0-.58.5a16.06,16.06,0,0,0,1.07,5.78A11.36,11.36,0,0,0,210.85,51a9.72,9.72,0,0,0,6.24,2.07,22.66,22.66,0,0,0,2.4-.12,12.37,12.37,0,0,0,2.15-.41q1-.29,1.73-.54a7.1,7.1,0,0,0,1.53-.74l1.12-.7q.33-.21,1.65-1.12a1.36,1.36,0,0,1,.41.5,1.6,1.6,0,0,1,.25.83,2.54,2.54,0,0,1-.5,1.57A13.46,13.46,0,0,1,223,56.8,15.33,15.33,0,0,1,214.77,59a16.73,16.73,0,0,1-12.39-5.33,17.82,17.82,0,0,1-5.2-12.93q0-8.34,4.83-13.55A16,16,0,0,1,214.28,22Zm-.58,3.8A5.84,5.84,0,0,0,210.15,27a7.79,7.79,0,0,0-2.4,2.81,15.79,15.79,0,0,0-1.2,3.1,10.11,10.11,0,0,0-.37,2.44c0,.39.17.58.5.58h13.38q.74,0,.74-1.24a10.71,10.71,0,0,0-1.94-5.87A5.92,5.92,0,0,0,213.7,25.82Z"/><path class="cls-1" d="M260.38,22a8.93,8.93,0,0,1,5.37,1.61A9.67,9.67,0,0,1,269,27.8a19.48,19.48,0,0,1,6-4.13A18.56,18.56,0,0,1,282.85,22a9.38,9.38,0,0,1,5.08,1.32,9.12,9.12,0,0,1,3.3,3.68A19.43,19.43,0,0,1,293,32.14a31.46,31.46,0,0,1,.54,6V46.8a34.6,34.6,0,0,0,.58,7.44q.17.58,2.23,1.2a12.14,12.14,0,0,0,2.81.62c.17,0,.26.4.29,1.2a4.7,4.7,0,0,1-.12,1.61q-.58-.08-4.34-.33t-5.66-.25q-2,0-5.66.25t-4.42.33a3.08,3.08,0,0,1-.25-1.57q0-1.24.25-1.24a11.09,11.09,0,0,0,3-.62q2-.62,2.15-1.2a25.69,25.69,0,0,0,.58-5.78V40q0-12-7.68-12a7.52,7.52,0,0,0-4.54,1.32,5.16,5.16,0,0,0-2.15,2.56q0,.25,0,.66a1.61,1.61,0,0,0,0,.66,40.41,40.41,0,0,1,.25,5.12v8.76a32.5,32.5,0,0,0,.58,7.1q.17.58,2.23,1.2a12.14,12.14,0,0,0,2.81.62c.17,0,.26.4.29,1.2a4.7,4.7,0,0,1-.12,1.61q-.58-.08-4.34-.33t-5.66-.25q-2,0-5.66.25t-4.42.33a3.08,3.08,0,0,1-.25-1.57q0-1.24.25-1.24a11.09,11.09,0,0,0,3-.62q2-.62,2.15-1.2a27,27,0,0,0,.58-6V40.28q0-6.44-1.9-9.33A6.29,6.29,0,0,0,254.67,28a7.91,7.91,0,0,0-4.54,1.4,3.9,3.9,0,0,0-2.07,3.14V46.8a30.36,30.36,0,0,0,.66,7.44q.16.58,2.15,1.2a11.21,11.21,0,0,0,2.73.62c.22,0,.34.4.37,1.2a4.7,4.7,0,0,1-.12,1.61q-.66-.08-4.34-.33t-5.58-.25q-2.07,0-5.78.25t-4.38.33a2.42,2.42,0,0,1-.33-1.57q0-1.24.33-1.24a12,12,0,0,0,3-.62q2.06-.62,2.23-1.2a27,27,0,0,0,.58-6V34.74q0-3.88-1.32-5.29a4,4,0,0,0-1.86-1.24,9.31,9.31,0,0,0-2-.5c-.55-.05-.83-.14-.83-.25q0-2.4.5-2.48a114.56,114.56,0,0,0,13.22-2.48.54.54,0,0,1,.25-.12,1.75,1.75,0,0,1,.41,0q.41,0,.66.58a1.53,1.53,0,0,1,.17.91,28.17,28.17,0,0,0-.33,3c0,.22.05.36.17.41A1.23,1.23,0,0,0,249,27a18.31,18.31,0,0,1,5.08-3.47A14.46,14.46,0,0,1,260.38,22Z"/><path class="cls-1" d="M320.55,22a16.8,16.8,0,0,1,9.21,2.6,17.35,17.35,0,0,1,6.2,6.61,17.62,17.62,0,0,1,2.11,8.3,18.86,18.86,0,0,1-5.74,13.84,18.21,18.21,0,0,1-13.26,5.74,25.87,25.87,0,0,1-6-.62,18.11,18.11,0,0,0-3.88-.62,6.29,6.29,0,0,0-2.15.58,8.22,8.22,0,0,1-1.65.58,4,4,0,0,1-1.2-.5q-1-.5-1-.83t.17-1.49q.16-1.24.41-3.55a47.54,47.54,0,0,0,.25-5V13.92a28.74,28.74,0,0,0-.5-5.62Q303.12,7,299.24,7h-.74q-.5,0-.5-1.32t.5-1.32q2.56-.25,4.87-.66t3.84-.83q1.53-.41,2.64-.83t2.35-.83h.17a.89.89,0,0,1,.66.46,2.28,2.28,0,0,1,.41.87,28.86,28.86,0,0,0-.91,7.77V24a2.39,2.39,0,0,0,0,.37c0,.17.08.25.17.25a.66.66,0,0,0,.29-.08,15.11,15.11,0,0,1,3.35-1.65A11.84,11.84,0,0,1,320.55,22Zm-1.82,4.46A6.4,6.4,0,0,0,314.27,28a4.86,4.86,0,0,0-1.74,3.72V49.28a5,5,0,0,0,2.19,4.38,9,9,0,0,0,5.16,1.49,7,7,0,0,0,6.49-3.88,18.91,18.91,0,0,0,2.19-9.42q0-7.1-2.56-11.24A8.1,8.1,0,0,0,318.74,26.48Z"/><path class="cls-1" d="M359.79,22a15.32,15.32,0,0,1,6.94,1.53,13.07,13.07,0,0,1,4.79,3.88,19.21,19.21,0,0,1,2.64,4.87,14.24,14.24,0,0,1,.91,4.83q0,1.82-.62,2.27a4.69,4.69,0,0,1-2.52.45H352.19q-.58,0-.58.5a16.06,16.06,0,0,0,1.07,5.78A11.36,11.36,0,0,0,356.37,51a9.72,9.72,0,0,0,6.24,2.07A22.66,22.66,0,0,0,365,53a12.37,12.37,0,0,0,2.15-.41q1-.29,1.73-.54a7.1,7.1,0,0,0,1.53-.74l1.12-.7q.33-.21,1.65-1.12a1.36,1.36,0,0,1,.41.5,1.6,1.6,0,0,1,.25.83,2.54,2.54,0,0,1-.5,1.57,13.46,13.46,0,0,1-4.87,4.46A15.33,15.33,0,0,1,360.29,59,16.73,16.73,0,0,1,347.9,53.7a17.82,17.82,0,0,1-5.2-12.93q0-8.34,4.83-13.55A16,16,0,0,1,359.79,22Zm-.58,3.8A5.84,5.84,0,0,0,355.66,27a7.79,7.79,0,0,0-2.4,2.81,15.79,15.79,0,0,0-1.2,3.1,10.11,10.11,0,0,0-.37,2.44c0,.39.17.58.5.58h13.38q.74,0,.74-1.24a10.71,10.71,0,0,0-1.94-5.87A5.92,5.92,0,0,0,359.22,25.82Z"/><path class="cls-1" d="M403.08,22q4.54,0,6.77,2.73,0,7-4,7a4.91,4.91,0,0,1-3.22-1.65,5.17,5.17,0,0,0-3.55-1.65,4.43,4.43,0,0,0-4,2.6,11,11,0,0,0-1.45,5.41V46.8a34.6,34.6,0,0,0,.58,7.44q.16.58,2.19,1.2a11.67,11.67,0,0,0,2.77.62c.17,0,.26.4.29,1.2a8.63,8.63,0,0,1,0,1.61q-.66-.08-4.38-.33t-5.62-.25q-2,0-5.74.25t-4.42.33a2.42,2.42,0,0,1-.33-1.57q0-1.24.33-1.24a11.52,11.52,0,0,0,3-.62q2-.62,2.19-1.2a27,27,0,0,0,.58-6V34.74q0-3.88-1.32-5.29a4,4,0,0,0-1.86-1.24,9.41,9.41,0,0,0-2-.5c-.52-.05-.78-.14-.78-.25q0-2.4.41-2.48a117.21,117.21,0,0,0,13.3-2.48,5,5,0,0,1,.66-.17c.22,0,.41.19.58.58a2,2,0,0,1,.21,1q0,.37-.12,1.16T394,26.69a10.5,10.5,0,0,0-.12,1.12,15.16,15.16,0,0,1,4-4A9.05,9.05,0,0,1,403.08,22Z"/><path class="cls-1" d="M416.39,59.86a7.32,7.32,0,0,0-1.24-3.43,7.45,7.45,0,0,1-1.24-3.59,5,5,0,0,1,1.74-3.47,6.14,6.14,0,0,1,4.54-1.74,5.34,5.34,0,0,1,2.64.5A12.88,12.88,0,0,1,424,53.91a14.81,14.81,0,0,1-.66,4,23.73,23.73,0,0,1-3.55,7.64,37.06,37.06,0,0,1-7,6.73h-.08q-.41,0-1.16-.87a2.49,2.49,0,0,1-.74-1.45,11.93,11.93,0,0,1,1.4-1.32A15.15,15.15,0,0,0,415,65,9.9,9.9,0,0,0,416.39,59.86Z"/><path class="cls-1" d="M62.71,83a23.78,23.78,0,0,1,4.5.45A24.2,24.2,0,0,1,72.09,85a19.61,19.61,0,0,1,4.5,2.64,11.62,11.62,0,0,1,3.22,4.13,13.11,13.11,0,0,1,1.24,5.78A14.06,14.06,0,0,1,78.16,106a16,16,0,0,1-7,5.62q-.66.25-.33.83a96.85,96.85,0,0,0,9.25,14,35.92,35.92,0,0,0,6.24,6.07,10.53,10.53,0,0,0,6.15,2.52,2.36,2.36,0,0,1,.33,1.32,3.28,3.28,0,0,1-.33,1.49,16.08,16.08,0,0,1-2.56.17,27.45,27.45,0,0,1-7.64-1,17.64,17.64,0,0,1-5.95-2.93,32,32,0,0,1-4.17-3.76,35.69,35.69,0,0,1-3.47-4.63q-1.16-1.65-2.64-3.88l-2.27-3.43q-.79-1.2-1.78-2.52a16.21,16.21,0,0,0-1.69-2,4.22,4.22,0,0,0-1.36-.91,5.16,5.16,0,0,0-2-.25q-1.32,0-1.32,1.4V125.8a25.8,25.8,0,0,0,.66,7q.25,1,2.77,1.61a17.43,17.43,0,0,0,3.68.62q.33,0,.33,1.4a4.66,4.66,0,0,1-.17,1.4q-9.09-.5-11.73-.5-2.23,0-5,.12l-4.42.21-1.65.17a2.84,2.84,0,0,1-.25-1.49q0-1.32.25-1.32a14.09,14.09,0,0,0,3.18-.54q2.11-.54,2.44-1.28.5-1.49.5-7.52V94.49a32.47,32.47,0,0,0-.5-6.77q-.25-.66-2.44-1.36a12,12,0,0,0-3.18-.7q-.33,0-.33-1.24t.33-1.49q8.76.25,11,.25t5.74-.08Q60.23,83,62.71,83Zm-1.32,4.13a13.52,13.52,0,0,0-4.79.58q-.91.41-1,8.59v9.5a2.32,2.32,0,0,0,1.4,2.4,10.46,10.46,0,0,0,3.88.58H63a7.1,7.1,0,0,0,5.49-2.89A11.27,11.27,0,0,0,71,98.38Q71,87.14,61.39,87.14Z"/><path class="cls-1" d="M110,101a15.31,15.31,0,0,1,6.94,1.53,13.07,13.07,0,0,1,4.79,3.88,19.23,19.23,0,0,1,2.64,4.87,14.24,14.24,0,0,1,.91,4.83q0,1.82-.62,2.27a4.69,4.69,0,0,1-2.52.45H102.37q-.58,0-.58.5a16,16,0,0,0,1.07,5.78,11.36,11.36,0,0,0,3.68,4.87,9.72,9.72,0,0,0,6.24,2.07,22.67,22.67,0,0,0,2.4-.12,12.37,12.37,0,0,0,2.15-.41q1-.29,1.74-.54a7.11,7.11,0,0,0,1.53-.74l1.12-.7q.33-.21,1.65-1.12a1.37,1.37,0,0,1,.41.5,1.6,1.6,0,0,1,.25.83,2.54,2.54,0,0,1-.5,1.57,13.46,13.46,0,0,1-4.87,4.46,15.33,15.33,0,0,1-8.18,2.23,16.73,16.73,0,0,1-12.39-5.33,17.82,17.82,0,0,1-5.2-12.93q0-8.34,4.83-13.55A16,16,0,0,1,110,101Zm-.58,3.8a5.84,5.84,0,0,0-3.55,1.16,7.79,7.79,0,0,0-2.4,2.81,15.79,15.79,0,0,0-1.2,3.1,10.11,10.11,0,0,0-.37,2.44c0,.39.17.58.5.58h13.38q.74,0,.74-1.24a10.71,10.71,0,0,0-1.94-5.87A5.92,5.92,0,0,0,109.39,104.82Z"/><path class="cls-1" d="M151.61,101.1a16.71,16.71,0,0,1,9.42,2.73,17.3,17.3,0,0,1,8.1,14.71,19.33,19.33,0,0,1-19.41,19.66,19.16,19.16,0,0,1-5.87-1.16c-.22,0-.33.39-.33,1.16v5.62a29.77,29.77,0,0,0,.66,7.44q.08.66,2.19,1.28a12.67,12.67,0,0,0,2.85.62c.17,0,.26.4.29,1.2a7.44,7.44,0,0,1,0,1.53q-.58,0-4.42-.25t-5.66-.25q-2.07,0-5.82.25t-4.42.25a3,3,0,0,1-.25-1.53q0-1.2.25-1.2a11.53,11.53,0,0,0,3-.62q2-.62,2.27-1.28a30,30,0,0,0,.5-5.95V113.74q0-4-1.32-5.37a3.72,3.72,0,0,0-1.82-1.2,9.87,9.87,0,0,0-2-.45c-.55-.05-.83-.14-.83-.25q0-2.4.5-2.48a63.51,63.51,0,0,0,12.31-2.31q1.49-.41,1.57-.41.33,0,.33,1.74a4.53,4.53,0,0,1-.17,1,16.53,16.53,0,0,1,3.68-1.94A11.85,11.85,0,0,1,151.61,101.1Zm-2,4.38a6.24,6.24,0,0,0-4.42,1.57,5.47,5.47,0,0,0-1.69,4.21v17a5.08,5.08,0,0,0,2.23,4.34,8,8,0,0,0,4.79,1.61,7.76,7.76,0,0,0,6.4-3.47q2.6-3.47,2.6-9.75a21.35,21.35,0,0,0-2.64-11.11Q154.25,105.48,149.63,105.48Z"/><path class="cls-1" d="M191,101q5.12,0,7.68,2.69t2.56,9.21v16.28a3.77,3.77,0,0,0,.74,2.52,2.48,2.48,0,0,0,2,.87,5.15,5.15,0,0,0,2.81-1.07c.33.11.5.41.5.91a4.91,4.91,0,0,1-.5,2.48,20.45,20.45,0,0,1-3.3,2.07,8.61,8.61,0,0,1-4,1.07,6,6,0,0,1-3.72-1.41,6.77,6.77,0,0,1-2.4-3.06l-.62.54q-.54.46-1.49,1.12a24.46,24.46,0,0,1-2.15,1.32,13.18,13.18,0,0,1-2.81,1.12,12,12,0,0,1-3.26.45,9.86,9.86,0,0,1-6.73-2.27,7.85,7.85,0,0,1-2.6-6.24,7.61,7.61,0,0,1,.95-3.72A9.88,9.88,0,0,1,177,123a16.91,16.91,0,0,1,3.55-2.19,33.8,33.8,0,0,1,3.84-1.61q1.61-.54,4.13-1.28t3.51-1.07a1.3,1.3,0,0,0,.74-1.32V111a7.09,7.09,0,0,0-1.32-4.54,4.31,4.31,0,0,0-3.55-1.65,5,5,0,0,0-3.88,1.53,6.18,6.18,0,0,0-1.4,4.34,2.68,2.68,0,0,1-1.24,2.44,5.14,5.14,0,0,1-2.81.78q-3.06,0-4.3-2,0-4,5.41-7.43A20.72,20.72,0,0,1,191,101Zm-3.72,31.72a6.4,6.4,0,0,0,3.84-1.16,3.27,3.27,0,0,0,1.61-2.64v-8.43q-.58.25-2.44.83t-2.85,1a22.51,22.51,0,0,0-2.31,1.16,5,5,0,0,0-1.94,1.82,4.55,4.55,0,0,0-.62,2.31,5.09,5.09,0,0,0,1.32,3.88A4.75,4.75,0,0,0,187.3,132.74Z"/><path class="cls-1" d="M225.71,125.8a30.37,30.37,0,0,0,.66,7.44q.16.58,2.23,1.2a12.16,12.16,0,0,0,2.81.62c.22,0,.34.4.37,1.2a4.68,4.68,0,0,1-.12,1.61q-.58-.08-4.42-.33t-5.66-.25q-2.07,0-5.82.25t-4.34.33a2.42,2.42,0,0,1-.33-1.57q0-1.24.33-1.24a12,12,0,0,0,3-.62q2.06-.62,2.23-1.2a27,27,0,0,0,.58-6V113.74q0-3.88-1.32-5.29a4.59,4.59,0,0,0-1.9-1.24,8.69,8.69,0,0,0-2-.5c-.55-.05-.83-.14-.83-.25q0-2.4.5-2.48a63.44,63.44,0,0,0,6.69-1,64.8,64.8,0,0,0,6.53-1.49,4.77,4.77,0,0,0,.66-.17q.41,0,.66.58a1.52,1.52,0,0,1,.17.91,70.79,70.79,0,0,0-.66,7.1Zm-8.59-34.57a5,5,0,0,1-1.49-3.63A4.89,4.89,0,0,1,217.12,84a5.12,5.12,0,0,1,8.76,3.59,5,5,0,0,1-1.49,3.63,5.09,5.09,0,0,1-7.27,0Z"/><path class="cls-1" d="M260,101q4.54,0,6.77,2.73,0,7-4,7a4.91,4.91,0,0,1-3.22-1.65,5.17,5.17,0,0,0-3.55-1.65,4.43,4.43,0,0,0-4,2.6,11,11,0,0,0-1.45,5.41V125.8a34.6,34.6,0,0,0,.58,7.44q.16.58,2.19,1.2a11.67,11.67,0,0,0,2.77.62c.17,0,.26.4.29,1.2a8.63,8.63,0,0,1,0,1.61q-.66-.08-4.38-.33t-5.62-.25q-2,0-5.74.25t-4.42.33a2.42,2.42,0,0,1-.33-1.57q0-1.24.33-1.24a11.52,11.52,0,0,0,3-.62q2-.62,2.19-1.2a27,27,0,0,0,.58-6V113.74q0-3.88-1.32-5.29a4,4,0,0,0-1.86-1.24,9.41,9.41,0,0,0-2-.5c-.52-.05-.78-.14-.78-.25q0-2.4.41-2.48a117.21,117.21,0,0,0,13.3-2.48,5,5,0,0,1,.66-.17c.22,0,.41.19.58.58a2,2,0,0,1,.21,1q0,.37-.12,1.16t-.21,1.65a10.5,10.5,0,0,0-.12,1.12,15.16,15.16,0,0,1,4-4A9.05,9.05,0,0,1,260,101Z"/><path class="cls-1" d="M273.3,138.86a7.32,7.32,0,0,0-1.24-3.43,7.45,7.45,0,0,1-1.24-3.59,5,5,0,0,1,1.74-3.47,6.14,6.14,0,0,1,4.54-1.74,5.34,5.34,0,0,1,2.64.5,12.88,12.88,0,0,1,1.16,5.78,14.81,14.81,0,0,1-.66,4,23.73,23.73,0,0,1-3.55,7.64,37.06,37.06,0,0,1-7,6.73h-.08q-.41,0-1.16-.87a2.49,2.49,0,0,1-.74-1.45,11.93,11.93,0,0,1,1.4-1.32A15.15,15.15,0,0,0,271.9,144,9.9,9.9,0,0,0,273.3,138.86Z"/><path class="cls-1" d="M40.74,176.05a13,13,0,0,1,5.21-10.45,18.05,18.05,0,0,1,11.73-4.25,28.87,28.87,0,0,1,4,.25q1.74.25,4.83,1t4.25,1a73.67,73.67,0,0,1,1,12.72.9.9,0,0,1-1,.74q-2.23,0-2.4-.74a14.52,14.52,0,0,0-3.55-7.43,9.38,9.38,0,0,0-7.44-3.64,7.62,7.62,0,0,0-5.82,2.15,8.09,8.09,0,0,0-2,5.78,9.32,9.32,0,0,0,.29,2.35A5.81,5.81,0,0,0,51,177.79q.87,1.08,1.4,1.78a9.8,9.8,0,0,0,2.07,1.78q1.53,1.08,2.06,1.49T59,184.44a25,25,0,0,0,2.35,1.36,30.41,30.41,0,0,0,2.77,1.78q2.27,1.36,3.18,2A33.75,33.75,0,0,1,70,191.67a11.9,11.9,0,0,1,2.52,2.81,17,17,0,0,1,1.45,3.35,13.92,13.92,0,0,1,.66,4.34,13.41,13.41,0,0,1-5.33,10.91,19.11,19.11,0,0,1-12.35,4.3q-5,0-15.2-2.31a72.36,72.36,0,0,1-1.36-7.48,56,56,0,0,1-.62-5.91q.08-.66,1.32-.66,2.15,0,2.4.66a16.07,16.07,0,0,0,1.16,3.26,24,24,0,0,0,2.27,3.8,10.89,10.89,0,0,0,3.88,3.3,11.62,11.62,0,0,0,5.49,1.28A9.25,9.25,0,0,0,62.71,211q2.56-2.31,2.56-6.94a7.19,7.19,0,0,0-.54-2.73,9.53,9.53,0,0,0-1.24-2.23,12.09,12.09,0,0,0-2.07-2q-1.36-1.07-2.27-1.65t-2.68-1.61L54,192.41a5.67,5.67,0,0,0-.91-.66q-2.4-1.49-3.63-2.31A39.76,39.76,0,0,1,46.23,187a16.33,16.33,0,0,1-2.93-3,15.6,15.6,0,0,1-1.78-3.47A12.42,12.42,0,0,1,40.74,176.05Z"/><path class="cls-1" d="M96.9,180a15.31,15.31,0,0,1,6.94,1.53,13.07,13.07,0,0,1,4.79,3.88,19.21,19.21,0,0,1,2.64,4.87,14.24,14.24,0,0,1,.91,4.83q0,1.82-.62,2.27a4.69,4.69,0,0,1-2.52.45H89.3q-.58,0-.58.5a16.06,16.06,0,0,0,1.07,5.78A11.36,11.36,0,0,0,93.47,209a9.72,9.72,0,0,0,6.24,2.07,22.66,22.66,0,0,0,2.4-.12,12.37,12.37,0,0,0,2.15-.41q1-.29,1.73-.54a7.09,7.09,0,0,0,1.53-.74l1.12-.7q.33-.21,1.65-1.12a1.36,1.36,0,0,1,.41.5,1.6,1.6,0,0,1,.25.83,2.54,2.54,0,0,1-.5,1.57,13.45,13.45,0,0,1-4.87,4.46A15.33,15.33,0,0,1,97.39,217,16.73,16.73,0,0,1,85,211.7a17.82,17.82,0,0,1-5.2-12.93q0-8.34,4.83-13.55A16,16,0,0,1,96.9,180Zm-.58,3.8A5.84,5.84,0,0,0,92.77,185a7.79,7.79,0,0,0-2.4,2.81,15.76,15.76,0,0,0-1.2,3.1,10.08,10.08,0,0,0-.37,2.44c0,.39.17.58.5.58h13.38q.74,0,.74-1.24a10.71,10.71,0,0,0-1.94-5.87A5.92,5.92,0,0,0,96.32,183.82Z"/><path class="cls-1" d="M143,180q10.66,0,10.66,16.94v7.85a34.56,34.56,0,0,0,.58,7.44q.16.58,2.27,1.2a12.65,12.65,0,0,0,2.85.62c.17,0,.26.4.29,1.2a4.7,4.7,0,0,1-.12,1.61q-.5-.08-4.34-.33t-5.74-.25q-2,0-5.49.25t-4.25.33a2.42,2.42,0,0,1-.33-1.57q0-1.24.33-1.24a9.82,9.82,0,0,0,2.77-.62q1.86-.62,2-1.2a23.72,23.72,0,0,0,.66-6v-7.85q0-6.86-1.86-9.58T137.38,186a7.65,7.65,0,0,0-4.63,1.45,4,4,0,0,0-2,3.1V204.8a34.56,34.56,0,0,0,.58,7.44q.16.58,2.19,1.2a11.88,11.88,0,0,0,2.69.62c.22,0,.34.4.37,1.2a4.68,4.68,0,0,1-.12,1.61q-.66-.08-4.34-.33t-5.58-.25q-2,0-5.74.25t-4.42.33a2.42,2.42,0,0,1-.33-1.57q0-1.24.33-1.24a11.52,11.52,0,0,0,3-.62q2-.62,2.19-1.2a27,27,0,0,0,.58-6V192.74q0-3.88-1.32-5.29a4,4,0,0,0-1.86-1.24,9.41,9.41,0,0,0-2-.5c-.52-.05-.78-.14-.78-.25q0-2.4.41-2.48a117.17,117.17,0,0,0,13.3-2.48.54.54,0,0,1,.21-.12.78.78,0,0,1,.25,0h.21c.22,0,.41.19.58.58a2.51,2.51,0,0,1,.25.91,28.12,28.12,0,0,0-.33,3,.65.65,0,0,0,.08.41,1.22,1.22,0,0,0,.41-.25,18.32,18.32,0,0,1,5.08-3.47A14.46,14.46,0,0,1,143,180Z"/><path class="cls-1" d="M182.81,179.85a14.2,14.2,0,0,1,6,1.16q.41,0,.41-1.32v-7.77a28.82,28.82,0,0,0-.5-5.62q-.41-1.32-4.3-1.32h-.66q-.5,0-.5-1.32t.5-1.32q2.48-.25,4.83-.66t3.88-.83q1.53-.41,2.64-.83l1.69-.62a4.25,4.25,0,0,1,.66-.21h.17a.89.89,0,0,1,.66.46,1.49,1.49,0,0,1,.33.87,31.62,31.62,0,0,0-.83,7.77v36.35a30.29,30.29,0,0,0,.5,6.11,1.22,1.22,0,0,0,.83.91,5.06,5.06,0,0,0,1.57.41q.83.08,1.57.12l.83,0a1.73,1.73,0,0,1,.17,1q0,1.65-.5,1.65-1.16.08-2.93.33t-3.47.54l-3.22.58q-1.53.29-3.43.7-.5,0-.5-1.41v-1.4a.37.37,0,0,0-.12-.33c-.08-.05-.15-.05-.21,0a13.79,13.79,0,0,1-8.59,3.06A16,16,0,0,1,168.69,212a16.68,16.68,0,0,1-5-12.35,19.37,19.37,0,0,1,5.66-14A18.09,18.09,0,0,1,182.81,179.85Zm-.74,4a7.23,7.23,0,0,0-6.61,3.72q-2.23,3.72-2.23,10,0,7,2.56,10.95A8.11,8.11,0,0,0,183,212.4a6.86,6.86,0,0,0,4.54-1.45,4.58,4.58,0,0,0,1.73-3.68V189.93a5.75,5.75,0,0,0-.29-1.73,7.71,7.71,0,0,0-1-1.94,5.28,5.28,0,0,0-2.23-1.73A8.76,8.76,0,0,0,182.07,183.82Z"/><path class="cls-1" d="M236.76,173.74V204.8a24.28,24.28,0,0,0,.74,6.61q.41,1.08,5.62,1.07h3.06q6.44,0,9.83-1.74a9.49,9.49,0,0,0,3-2.89,17.41,17.41,0,0,0,2.56-5q.08-.5,1.16-.5a3.55,3.55,0,0,1,2.31.5q-.25.74-1.2,3.39l-1.45,4q-.5,1.36-1.07,3.35a22.83,22.83,0,0,0-.74,3.22q-3.3,0-13.67-.25t-14.58-.08l-11,.33a2.16,2.16,0,0,1-.25-1.32q0-1.4.25-1.4a13.6,13.6,0,0,0,3.14-.54q2.06-.54,2.4-1.28.58-1.73.58-7.52V173.49a25.32,25.32,0,0,0-.66-7q-.33-.66-2.31-1.28a11.09,11.09,0,0,0-3-.62q-.33,0-.33-1.24a3.33,3.33,0,0,1,.17-1.49q.41,0,4.58.25t6.4.25q.66,0,10.57-.5a4.26,4.26,0,0,1,.25,1.32q0,1.4-.33,1.4a13.46,13.46,0,0,0-3,.66q-2.23.66-2.4,1.24A30.65,30.65,0,0,0,236.76,173.74Z"/><path class="cls-1" d="M288,180a18.21,18.21,0,0,1,13.26,5.41,17.7,17.7,0,0,1,5.49,13.09A18.84,18.84,0,1,1,288,180Zm-1.07,3.88a6.65,6.65,0,0,0-6,3.76,17.77,17.77,0,0,0-2.15,9,24.09,24.09,0,0,0,2.69,11.65q2.68,5,7.48,5a6.74,6.74,0,0,0,6.07-3.8,17.58,17.58,0,0,0,2.19-8.92,28.37,28.37,0,0,0-1.07-8,14.57,14.57,0,0,0-3.47-6.16A7.66,7.66,0,0,0,286.91,183.9Z"/><path class="cls-1" d="M338.3,185.22q-1.08-2.23-5.78-2.23-.25,0-.25-1.16a2.85,2.85,0,0,1,.25-1.49q1.16,0,4,.25t4.71.25q1.86,0,4.83-.25t4-.25a2.4,2.4,0,0,1,.25,1.32q0,1.32-.5,1.32a9.84,9.84,0,0,0-3.22.79,4.79,4.79,0,0,0-2.81,2.35L330,215.29a5.6,5.6,0,0,1-1.07,1.4,2.09,2.09,0,0,1-1.4.74q-.83,0-1-.5-1.65-3.72-4.5-10.29t-4.92-11.11q-2.07-4.54-4.71-10.24-1-2.31-5.37-2.31-.33,0-.33-1.32a1.91,1.91,0,0,1,.33-1.32q.74,0,4.38.25t5.62.25q2,0,5.7-.25t4.3-.25a2.69,2.69,0,0,1,.21,1.49q0,1.16-.37,1.16a12.12,12.12,0,0,0-2.93.5q-1.86.5-1.86,1.32a1.54,1.54,0,0,0,.17.83l8.18,19,7.44-16.36Q338.88,186.13,338.3,185.22Z"/><path class="cls-1" d="M367.63,180a15.31,15.31,0,0,1,6.94,1.53,13.07,13.07,0,0,1,4.79,3.88A19.21,19.21,0,0,1,382,190.3a14.24,14.24,0,0,1,.91,4.83q0,1.82-.62,2.27a4.69,4.69,0,0,1-2.52.45H360q-.58,0-.58.5a16.06,16.06,0,0,0,1.07,5.78A11.36,11.36,0,0,0,364.2,209a9.72,9.72,0,0,0,6.24,2.07,22.66,22.66,0,0,0,2.4-.12,12.37,12.37,0,0,0,2.15-.41q1-.29,1.73-.54a7.09,7.09,0,0,0,1.53-.74l1.12-.7q.33-.21,1.65-1.12a1.36,1.36,0,0,1,.41.5,1.6,1.6,0,0,1,.25.83,2.54,2.54,0,0,1-.5,1.57,13.45,13.45,0,0,1-4.87,4.46,15.33,15.33,0,0,1-8.18,2.23,16.73,16.73,0,0,1-12.39-5.33,17.82,17.82,0,0,1-5.2-12.93q0-8.34,4.83-13.55A16,16,0,0,1,367.63,180Zm-.58,3.8A5.84,5.84,0,0,0,363.5,185a7.79,7.79,0,0,0-2.4,2.81,15.76,15.76,0,0,0-1.2,3.1,10.08,10.08,0,0,0-.37,2.44c0,.39.17.58.5.58h13.38q.74,0,.74-1.24a10.71,10.71,0,0,0-1.94-5.87A5.92,5.92,0,0,0,367.05,183.82Z"/><rect class="cls-2" x="206.61" y="98.8" width="191.41" height="27.31" rx="13.66" ry="13.66" transform="translate(-9.63 194.5) rotate(-35.14)"/><path class="cls-1" d="M251.75,144.16a3.33,3.33,0,0,1,.65,2.15,3.68,3.68,0,0,1-1,2.18l5.33,2.1-2.28,1.61-4.76-2.26-1.33.94,2.64,3.75-1.75,1.23-6.77-9.61,3.56-2.5a4.83,4.83,0,0,1,3.23-1.05A3.23,3.23,0,0,1,251.75,144.16Zm-2.52,4.39a2.59,2.59,0,0,0,1.14-1.46,1.8,1.8,0,0,0-.32-1.5,1.89,1.89,0,0,0-1.26-.84,2.24,2.24,0,0,0-1.64.5l-1.81,1.27,2.24,3.18Z"/><path class="cls-1" d="M256.47,139.75A4.87,4.87,0,0,1,258,139a3.48,3.48,0,0,1,1.59-.07,4.79,4.79,0,0,1,3,2.15,4.74,4.74,0,0,1,1,3.56,4,4,0,0,1-1.79,2.68,4.11,4.11,0,0,1-3.16.8,4.7,4.7,0,0,1-3-2.13,4.75,4.75,0,0,1-1-3.59A4.11,4.11,0,0,1,256.47,139.75Zm4.4,2.57a3.37,3.37,0,0,0-1.65-1.4,1.81,1.81,0,0,0-1.64.3,2,2,0,0,0-.89,1.48,3.08,3.08,0,0,0,.7,2.07,3.33,3.33,0,0,0,1.66,1.39,1.82,1.82,0,0,0,1.64-.3,2,2,0,0,0,.89-1.48A3.09,3.09,0,0,0,260.87,142.32Z"/><path class="cls-1" d="M266.66,140.35q.75,1,2.22,0a2,2,0,0,0,.75-.9.85.85,0,0,0,0-.83.75.75,0,0,0-.58-.35,2.69,2.69,0,0,0-.93.16l-2,.54q-2.18.62-3.15-.75a2.08,2.08,0,0,1-.21-2.05,4.75,4.75,0,0,1,1.82-2.11,4,4,0,0,1,2.56-.89,2.41,2.41,0,0,1,1.85,1l-1.64,1.16a.88.88,0,0,0-.74-.32,2,2,0,0,0-1,.42,1.85,1.85,0,0,0-.73.86.79.79,0,0,0,.05.75q.37.52,1.42.15l2.15-.56a4.13,4.13,0,0,1,1.8-.19,1.84,1.84,0,0,1,1.25.82,2.33,2.33,0,0,1,.24,2.13,4.47,4.47,0,0,1-1.83,2.31,4.73,4.73,0,0,1-2.75,1A2.55,2.55,0,0,1,265,141.5Z"/><path class="cls-1" d="M276.92,128.57a4.92,4.92,0,0,1,1,1,8.12,8.12,0,0,1,.6,1l-4.65,3.27a3.06,3.06,0,0,0,1.43,1.12,1.72,1.72,0,0,0,1.6-.31,1.42,1.42,0,0,0,.62-1.86l1.76-1.24a3.16,3.16,0,0,1,.21,2.4,4,4,0,0,1-1.6,2.1,3.82,3.82,0,0,1-3.11.64,4.81,4.81,0,0,1-2.94-2.07,4.76,4.76,0,0,1-1-3.48,3.84,3.84,0,0,1,1.68-2.69,3.42,3.42,0,0,1,3.07-.59A4,4,0,0,1,276.92,128.57Zm-3.4,1.26a1.76,1.76,0,0,0-.82,1.29,2.65,2.65,0,0,0,.38,1.58l3.07-2.16a2,2,0,0,0-1.85-1A1.78,1.78,0,0,0,273.52,129.83Z"/><path class="cls-1" d="M285.18,121.87a3,3,0,0,1,1.35-3.28,3,3,0,0,1,2.61-.53,4.34,4.34,0,0,1,2.31,1.83l3,4.21-1.76,1.24-3-4.21a2.08,2.08,0,0,0-1.24-.94,1.74,1.74,0,0,0-1.37.35,1.66,1.66,0,0,0-.71,1.41,4,4,0,0,0,.82,2.17l2.38,3.38-1.75,1.23-3-4.21a2.08,2.08,0,0,0-1.24-.94,1.74,1.74,0,0,0-1.37.35,1.81,1.81,0,0,0-.75,1.46,3.76,3.76,0,0,0,.79,2.24l2.35,3.33-1.75,1.23-5.07-7.2,1.53-1.07,1.07,1.11a2.91,2.91,0,0,1,1.27-3,3.16,3.16,0,0,1,1.8-.64A3.06,3.06,0,0,1,285.18,121.87Z"/><path class="cls-1" d="M296.35,116.44a10.17,10.17,0,0,1,2.18-1.12l-.5-.71a2.1,2.1,0,0,0-1.09-.9,1.5,1.5,0,0,0-1.25.34,2.15,2.15,0,0,0-.87,1,1.11,1.11,0,0,0,.18,1l-1.91,1.35a2.38,2.38,0,0,1-.38-2.39,5.54,5.54,0,0,1,2-2.25q2.22-1.56,4-.47a4,4,0,0,1,1.11,1.1L303,118l-1.53,1.07-.81-.87a2.83,2.83,0,0,1-1.31,2.67,3.86,3.86,0,0,1-2.64.84,2.62,2.62,0,0,1-1.87-1.15,2.15,2.15,0,0,1-.3-2.09A4.57,4.57,0,0,1,296.35,116.44Zm3,0a7.64,7.64,0,0,0-1.8.91q-1.42,1-.75,1.95a1.09,1.09,0,0,0,.81.46,1.9,1.9,0,0,0,1.25-.45,1.93,1.93,0,0,0,.85-1.32A2.17,2.17,0,0,0,299.32,116.43Z"/><path class="cls-1" d="M303.28,109.22a2.58,2.58,0,0,1,.86-2.93,3.15,3.15,0,0,1,.71-.34l1.2,1.77a4.75,4.75,0,0,0-.88.48q-1.75,1.23,0,3.64l2.22,3.16-1.75,1.23L300.52,109l1.75-1.23Z"/><path class="cls-1" d="M307.58,104.06l5.38,4-2.14-6.25,1.78-1.25L315.83,111a5.33,5.33,0,0,1,.26,2.59,2.72,2.72,0,0,1-1.17,1.66,5.29,5.29,0,0,1-2.26.88l-1.08-1.54a3.52,3.52,0,0,0,1.9-.61,1.28,1.28,0,0,0,.56-1,4,4,0,0,0-.22-1.46l-.27-.85-8-5.17Z"/><path class="cls-1" d="M325.42,92.3a3.33,3.33,0,0,1,.65,2.15,3.68,3.68,0,0,1-1,2.18l5.33,2.1-2.28,1.61-4.76-2.26-1.33.94,2.64,3.75L323,104l-6.77-9.61,3.56-2.5A4.83,4.83,0,0,1,323,90.82,3.23,3.23,0,0,1,325.42,92.3Zm-2.52,4.39A2.59,2.59,0,0,0,324,95.23a1.8,1.8,0,0,0-.32-1.5,1.89,1.89,0,0,0-1.26-.84,2.24,2.24,0,0,0-1.64.5L319,94.66l2.24,3.18Z"/><path class="cls-1" d="M334.4,88.11a4.92,4.92,0,0,1,1,1,8.12,8.12,0,0,1,.6,1l-4.65,3.27a3.06,3.06,0,0,0,1.43,1.12,1.72,1.72,0,0,0,1.6-.31,1.42,1.42,0,0,0,.62-1.86l1.76-1.24a3.16,3.16,0,0,1,.21,2.4,4,4,0,0,1-1.6,2.1,3.82,3.82,0,0,1-3.11.64,4.81,4.81,0,0,1-2.94-2.07,4.76,4.76,0,0,1-1-3.48A3.84,3.84,0,0,1,330,88a3.42,3.42,0,0,1,3.07-.59A4,4,0,0,1,334.4,88.11ZM331,89.37a1.76,1.76,0,0,0-.82,1.29,2.65,2.65,0,0,0,.38,1.58l3.07-2.16a2,2,0,0,0-1.85-1A1.78,1.78,0,0,0,331,89.37Z"/><path class="cls-1" d="M336.19,83.93l5.38,4-2.14-6.25,1.78-1.25,3.23,10.44a5.33,5.33,0,0,1,.26,2.59,2.72,2.72,0,0,1-1.17,1.66,5.29,5.29,0,0,1-2.26.88l-1.08-1.54a3.52,3.52,0,0,0,1.9-.61,1.28,1.28,0,0,0,.56-1,4,4,0,0,0-.22-1.46l-.27-.85-8-5.17Z"/><path class="cls-1" d="M349.72,77.32a4.92,4.92,0,0,1,1,1,8.12,8.12,0,0,1,.6,1l-4.65,3.27a3.06,3.06,0,0,0,1.43,1.12,1.72,1.72,0,0,0,1.6-.31,1.42,1.42,0,0,0,.62-1.86l1.76-1.24a3.16,3.16,0,0,1,.21,2.4,4,4,0,0,1-1.6,2.1,3.82,3.82,0,0,1-3.11.64,4.81,4.81,0,0,1-2.94-2.07,4.76,4.76,0,0,1-1-3.48,3.84,3.84,0,0,1,1.68-2.69,3.42,3.42,0,0,1,3.07-.59A4,4,0,0,1,349.72,77.32Zm-3.4,1.26a1.76,1.76,0,0,0-.82,1.29,2.65,2.65,0,0,0,.38,1.58L349,79.3a2,2,0,0,0-1.85-1A1.78,1.78,0,0,0,346.32,78.59Z"/><path class="cls-1" d="M355.12,78.09q.75,1,2.22,0a2,2,0,0,0,.75-.9.85.85,0,0,0,0-.83.75.75,0,0,0-.58-.35,2.69,2.69,0,0,0-.93.16l-2,.54q-2.18.62-3.15-.75a2.08,2.08,0,0,1-.21-2.05A4.75,4.75,0,0,1,353,71.78a4,4,0,0,1,2.56-.89,2.41,2.41,0,0,1,1.85,1L355.8,73a.88.88,0,0,0-.74-.32,2,2,0,0,0-1,.42,1.85,1.85,0,0,0-.73.86.79.79,0,0,0,.05.75q.37.52,1.42.15l2.15-.56a4.13,4.13,0,0,1,1.8-.19,1.84,1.84,0,0,1,1.25.82,2.33,2.33,0,0,1,.24,2.13,4.47,4.47,0,0,1-1.83,2.31,4.73,4.73,0,0,1-2.75,1,2.55,2.55,0,0,1-2.13-1.14Z"/></svg>