<svg id="Layer_1" data-name="Layer 1" xmlns="http://www.w3.org/2000/svg" viewBox="0 0 629.53 77.8"><defs><style>.cls-1,.cls-3{fill:#fff;stroke:#1414ef;stroke-miterlimit:10;}.cls-1{stroke-width:1.2px;}.cls-2{fill:#1414ef;}.cls-3{stroke-width:1.3px;}</style></defs><title>title</title><path class="cls-1" d="M55.77,2.31q5.58.21,9.13.21t9.17-.21q5.62-.21,9-.29a27.44,27.44,0,0,0,5.7-.83l1.57,12.64a3.19,3.19,0,0,1-2.23.58c-.44,0-.72-.14-.83-.41q-1.16-4.54-3.06-6.16T78.28,6.24q-7.68,0-8,1.4a28.86,28.86,0,0,0-.74,7.77V45.23a28.18,28.18,0,0,0,.74,7.19q.08.58,2.23,1.2a13.15,13.15,0,0,0,2.89.62q.33,0,.33,1.49A4.31,4.31,0,0,1,75.56,57l-3.18-.25q-2.11-.17-3.88-.25t-3.43-.08q-2.23,0-6.15.25T54.08,57a1.91,1.91,0,0,1-.33-1.32q0-1.49.33-1.49a13.19,13.19,0,0,0,3.1-.58q2.11-.58,2.35-1.24a26.1,26.1,0,0,0,.66-6.86V15.66q0-6.86-.74-8-.66-1.4-7.85-1.4-4,0-5.95,1.61t-3.14,6.07q-.08.5-.83.5a2.78,2.78,0,0,1-2.15-.66L41.11,1.2a27.41,27.41,0,0,0,5.7.83Q50.2,2.11,55.77,2.31Z"/><path class="cls-1" d="M106.83,20.2a18.21,18.21,0,0,1,13.26,5.41,17.7,17.7,0,0,1,5.49,13.09,18.75,18.75,0,0,1-32,13.14,17.9,17.9,0,0,1-5.45-13.14,17.8,17.8,0,0,1,5.41-13.14A18.1,18.1,0,0,1,106.83,20.2Zm-1.07,3.88a6.65,6.65,0,0,0-6,3.76,17.77,17.77,0,0,0-2.15,9,24.09,24.09,0,0,0,2.69,11.65q2.68,5,7.48,5a6.73,6.73,0,0,0,6.07-3.8A17.57,17.57,0,0,0,116,40.69a28.36,28.36,0,0,0-1.07-8,14.57,14.57,0,0,0-3.47-6.16A7.66,7.66,0,0,0,105.76,24.08Z"/><path class="cls-1" d="M153.67,44.9V13.67a26.17,26.17,0,0,0-.58-6.77q-.25-.91-2.31-1.49a13,13,0,0,0-3.3-.58q-.33,0-.33-1.24a2.25,2.25,0,0,1,.33-1.49q5.45.25,11,.25,4.21,0,7.1,0t5,0a24.47,24.47,0,0,1,11.73,3,12.17,12.17,0,0,1,4.59,4.42,12.53,12.53,0,0,1,1.78,6.69,9.68,9.68,0,0,1-1.73,5.54,13.35,13.35,0,0,1-3.26,3.59A13.58,13.58,0,0,1,181,27q-.66.25-.33.5,3.06.5,6.82,4.34a13,13,0,0,1,3.76,9.46,13.33,13.33,0,0,1-5.74,11.32q-5.74,4.21-15.24,4.13l-11.73-.08-11,.33a2.16,2.16,0,0,1-.25-1.32q0-1.4.25-1.4a13.59,13.59,0,0,0,3.14-.54q2.06-.54,2.4-1.28Q153.67,50.69,153.67,44.9Zm18.92-19.41q6-1.32,6-8.1,0-11.15-9.5-11.15a22.1,22.1,0,0,0-5.29.41.83.83,0,0,0-.66.91L163,15.49v9.67q0,.83,5,.83A16.34,16.34,0,0,0,172.59,25.49Zm8.59,16.69a12.94,12.94,0,0,0-2.93-8.72Q175.32,30,168.79,30a34.4,34.4,0,0,0-5.12.41A1.8,1.8,0,0,0,163,32.1V47.46q0,3.47,1,4.3t5.29.83a17,17,0,0,0,3.55-.37,17.66,17.66,0,0,0,3.76-1.32,7.44,7.44,0,0,0,3.3-3.22A11,11,0,0,0,181.18,42.18Z"/><path class="cls-1" d="M212.66,20.2a15.32,15.32,0,0,1,6.94,1.53,13.07,13.07,0,0,1,4.79,3.88A19.21,19.21,0,0,1,227,30.49a14.24,14.24,0,0,1,.91,4.83q0,1.82-.62,2.27a4.69,4.69,0,0,1-2.52.45H205.06q-.58,0-.58.5a16.06,16.06,0,0,0,1.07,5.78,11.36,11.36,0,0,0,3.68,4.87,9.72,9.72,0,0,0,6.24,2.07,22.66,22.66,0,0,0,2.4-.12,12.37,12.37,0,0,0,2.15-.41q1-.29,1.73-.54a7.09,7.09,0,0,0,1.53-.74l1.12-.7q.33-.21,1.65-1.12a1.36,1.36,0,0,1,.41.5,1.6,1.6,0,0,1,.25.83,2.54,2.54,0,0,1-.5,1.57A13.46,13.46,0,0,1,221.33,55a15.33,15.33,0,0,1-8.18,2.23,16.73,16.73,0,0,1-12.39-5.33A17.82,17.82,0,0,1,195.56,39q0-8.34,4.83-13.55A16,16,0,0,1,212.66,20.2Zm-.58,3.8a5.84,5.84,0,0,0-3.55,1.16,7.79,7.79,0,0,0-2.4,2.81,15.78,15.78,0,0,0-1.2,3.1,10.1,10.1,0,0,0-.37,2.44c0,.39.17.58.5.58h13.38q.74,0,.74-1.24A10.71,10.71,0,0,0,217.25,27,5.92,5.92,0,0,0,212.08,24Z"/><path class="cls-1" d="M264.71,13.92V45a24.28,24.28,0,0,0,.74,6.61q.41,1.08,5.62,1.07h3.06q6.44,0,9.83-1.74a9.48,9.48,0,0,0,3-2.89,17.4,17.4,0,0,0,2.56-5q.08-.5,1.16-.5A3.55,3.55,0,0,1,293,43q-.25.74-1.2,3.39l-1.45,4q-.5,1.36-1.07,3.35A22.79,22.79,0,0,0,288.5,57q-3.31,0-13.67-.25t-14.58-.08l-11,.33a2.16,2.16,0,0,1-.25-1.32q0-1.4.25-1.4a13.59,13.59,0,0,0,3.14-.54q2.06-.54,2.4-1.28.58-1.73.58-7.52V13.67a25.3,25.3,0,0,0-.66-7q-.33-.66-2.31-1.28a11.09,11.09,0,0,0-3-.62q-.33,0-.33-1.24A3.33,3.33,0,0,1,249.26,2q.41,0,4.58.25t6.4.25q.66,0,10.57-.5a4.25,4.25,0,0,1,.25,1.32c0,.94-.11,1.4-.33,1.4a13.46,13.46,0,0,0-3,.66q-2.23.66-2.4,1.24A30.67,30.67,0,0,0,264.71,13.92Z"/><path class="cls-1" d="M314.61,20.2q5.12,0,7.68,2.69t2.56,9.21V48.37a3.77,3.77,0,0,0,.74,2.52,2.48,2.48,0,0,0,2,.87,5.15,5.15,0,0,0,2.81-1.07c.33.11.5.41.5.91a4.91,4.91,0,0,1-.5,2.48,20.44,20.44,0,0,1-3.3,2.07,8.61,8.61,0,0,1-4,1.07,6,6,0,0,1-3.72-1.41,6.77,6.77,0,0,1-2.4-3.06l-.62.54q-.54.46-1.49,1.12a24.47,24.47,0,0,1-2.15,1.32,13.18,13.18,0,0,1-2.81,1.12,12,12,0,0,1-3.26.45A9.86,9.86,0,0,1,299.94,55a7.85,7.85,0,0,1-2.6-6.24,7.61,7.61,0,0,1,.95-3.72,9.88,9.88,0,0,1,2.27-2.85A16.92,16.92,0,0,1,304.11,40,33.8,33.8,0,0,1,308,38.42q1.61-.54,4.13-1.28t3.51-1.07a1.3,1.3,0,0,0,.74-1.32V30.2A7.09,7.09,0,0,0,315,25.65,4.31,4.31,0,0,0,311.47,24a5,5,0,0,0-3.88,1.53,6.18,6.18,0,0,0-1.4,4.34,2.68,2.68,0,0,1-1.24,2.44,5.14,5.14,0,0,1-2.81.78q-3.06,0-4.3-2,0-4,5.41-7.43A20.72,20.72,0,0,1,314.61,20.2Zm-3.72,31.72a6.4,6.4,0,0,0,3.84-1.16,3.27,3.27,0,0,0,1.61-2.64V39.7q-.58.25-2.44.83t-2.85,1a22.54,22.54,0,0,0-2.31,1.16,5,5,0,0,0-1.94,1.82,4.55,4.55,0,0,0-.62,2.31,5.09,5.09,0,0,0,1.32,3.88A4.75,4.75,0,0,0,310.89,51.92Z"/><path class="cls-1" d="M339.39,26h-5q-.58,0-.58-2.15a2.06,2.06,0,0,1,.08-.74,23.1,23.1,0,0,0,6.36-4.38q1.07-1.07,2.35-2.44t3-3.51a5.88,5.88,0,0,1,1.57.21c.5.14.74.29.74.46v8.1l6,0,4.09,0q.66,0,.66.74a8,8,0,0,1-.83,3.63H347.9V45.89a7.84,7.84,0,0,0,1.4,5,4.72,4.72,0,0,0,3.88,1.74,7.79,7.79,0,0,0,1.73-.21,8.77,8.77,0,0,0,1.49-.45q.58-.25,1.07-.5a2.59,2.59,0,0,1,.58-.25q.33-.08.74.74t.33,1.07q-.5,1.16-3.51,2.68a13,13,0,0,1-5.91,1.53,10.42,10.42,0,0,1-7.31-2.77q-3-2.77-3-8.55Z"/><path class="cls-1" d="M380.45,20.2a15.32,15.32,0,0,1,6.94,1.53,13.07,13.07,0,0,1,4.79,3.88,19.21,19.21,0,0,1,2.64,4.87,14.24,14.24,0,0,1,.91,4.83q0,1.82-.62,2.27a4.69,4.69,0,0,1-2.52.45H372.85q-.58,0-.58.5a16.06,16.06,0,0,0,1.07,5.78A11.36,11.36,0,0,0,377,49.2a9.72,9.72,0,0,0,6.24,2.07,22.66,22.66,0,0,0,2.4-.12,12.37,12.37,0,0,0,2.15-.41q1-.29,1.73-.54a7.09,7.09,0,0,0,1.53-.74l1.12-.7q.33-.21,1.65-1.12a1.36,1.36,0,0,1,.41.5,1.6,1.6,0,0,1,.25.83,2.54,2.54,0,0,1-.5,1.57A13.46,13.46,0,0,1,389.12,55a15.33,15.33,0,0,1-8.18,2.23,16.73,16.73,0,0,1-12.39-5.33A17.82,17.82,0,0,1,363.35,39q0-8.34,4.83-13.55A16,16,0,0,1,380.45,20.2Zm-.58,3.8a5.84,5.84,0,0,0-3.55,1.16,7.79,7.79,0,0,0-2.4,2.81,15.78,15.78,0,0,0-1.2,3.1,10.1,10.1,0,0,0-.37,2.44c0,.39.17.58.5.58h13.38q.74,0,.74-1.24A10.71,10.71,0,0,0,385,27,5.92,5.92,0,0,0,379.87,24Z"/><path class="cls-2" d="M7,16.3H9.91v1.57H2.28V16.3H5.13V7.09L2.85,8.49,2,7.06,5.67,4.82H7Z"/><path class="cls-2" d="M12.26,4.82H21.1V6.24l-6,11.63H13L19,6.39H12.26Z"/><path class="cls-3" d="M561.38,38l-232,38.09A17.75,17.75,0,0,1,309,61.46h0a17.75,17.75,0,0,1,14.66-20.38L555.66,3A17.75,17.75,0,0,1,576,17.66h0A17.75,17.75,0,0,1,561.38,38Z"/><path class="cls-2" d="M347.48,45.91a7.83,7.83,0,0,1,2.46-.06,5.34,5.34,0,0,1,4.35,3.65l-2.83,1A4.4,4.4,0,0,0,350,48.79a2.75,2.75,0,0,0-2.05-.42,3.06,3.06,0,0,0-2.33,1.73,6.74,6.74,0,0,0-.4,4.14,7.32,7.32,0,0,0,1.57,3.81,2.91,2.91,0,0,0,2.76,1,3.4,3.4,0,0,0,2.28-1.17,2.68,2.68,0,0,0,.48-2.13l2.94-.48a4.92,4.92,0,0,1-1,4.16,6.65,6.65,0,0,1-4.19,2.09A6,6,0,0,1,345,60.24a8.85,8.85,0,0,1-2.72-5.5,8.59,8.59,0,0,1,.89-6.09A6,6,0,0,1,347.48,45.91Z"/><path class="cls-2" d="M361.8,47.45a6.33,6.33,0,0,1,2.19,0,4.53,4.53,0,0,1,1.89.82,6.2,6.2,0,0,1,2.33,4.23,6.14,6.14,0,0,1-.88,4.71,5.17,5.17,0,0,1-3.6,2.11,5.33,5.33,0,0,1-4.13-.85,6.09,6.09,0,0,1-2.32-4.19,6.15,6.15,0,0,1,.87-4.75A5.33,5.33,0,0,1,361.8,47.45Zm3.67,5.49a4.37,4.37,0,0,0-1.13-2.56,2.34,2.34,0,0,0-2.08-.58A2.62,2.62,0,0,0,360.39,51a4,4,0,0,0-.35,2.8,4.31,4.31,0,0,0,1.14,2.56,2.36,2.36,0,0,0,2.08.58,2.6,2.6,0,0,0,1.87-1.22A4,4,0,0,0,365.48,52.94Z"/><path class="cls-2" d="M380.88,46.85a3.91,3.91,0,0,1,3.43-3.05,3.85,3.85,0,0,1,3.35.86,5.61,5.61,0,0,1,1.65,3.44l1.07,6.58-2.76.45-1.07-6.58a2.69,2.69,0,0,0-.91-1.79,2.24,2.24,0,0,0-1.79-.36,2.15,2.15,0,0,0-1.63,1.24,5.14,5.14,0,0,0-.27,3l.86,5.28-2.73.44L379,49.77A2.69,2.69,0,0,0,378.1,48a2.24,2.24,0,0,0-1.79-.36,2.35,2.35,0,0,0-1.71,1.28,4.87,4.87,0,0,0-.35,3.05l.85,5.21-2.73.44-1.83-11.25,2.39-.39.62,1.9a3.77,3.77,0,0,1,3.2-2.83,4.1,4.1,0,0,1,2.46.27A4,4,0,0,1,380.88,46.85Z"/><path class="cls-2" d="M391.83,39.16a1.58,1.58,0,0,1,.25-1.24,2.05,2.05,0,0,1,2.49-.4,1.76,1.76,0,0,1,.38,2.34,2,2,0,0,1-2.49.4A1.58,1.58,0,0,1,391.83,39.16Zm.91,3.56,2.73-.44,1.83,11.28-2.73.44Z"/><path class="cls-2" d="M403.11,43a4.14,4.14,0,0,1,6.56-2,5.83,5.83,0,0,1,1.64,3.44l1.07,6.58-2.73.44L408.57,45a2.69,2.69,0,0,0-.91-1.79,2.24,2.24,0,0,0-1.79-.36,2.35,2.35,0,0,0-1.71,1.28,4.87,4.87,0,0,0-.35,3.05l.85,5.21-2.73.44L400.1,41.54l2.39-.39Z"/><path class="cls-2" d="M416.58,45.69A3.69,3.69,0,0,1,414.75,43a3.65,3.65,0,0,1,1-3.2,5.09,5.09,0,0,1,3-1.61,6.17,6.17,0,0,1,3.11.18,3.09,3.09,0,0,1,.79-2.31,3.52,3.52,0,0,1,2.16-1.18l.29,2.64q-2,.32-1.85,1.65a3.5,3.5,0,0,1,1.21,2,4,4,0,0,1-.09,1.93,3.79,3.79,0,0,1-.86,1.44,5.31,5.31,0,0,1-3.2,1.66,5.9,5.9,0,0,1-2.12,0,1.13,1.13,0,0,0-.75,1.26q.17,1,1.93.76l3.77-.61q3.84-.62,4.28,2.06a3.84,3.84,0,0,1-.16,1.84,4.8,4.8,0,0,1-1.06,1.75,7.62,7.62,0,0,1-4.53,2.26,8.23,8.23,0,0,1-4.7-.4,3.2,3.2,0,0,1-2.05-2.4,2.22,2.22,0,0,1,.37-1.76,3,3,0,0,1,1.55-1,2.44,2.44,0,0,1-1.7-1.84,1.93,1.93,0,0,1,.29-1.44A2.86,2.86,0,0,1,416.58,45.69Zm2.87,4.52q-2.16.45-1.91,2a1.44,1.44,0,0,0,1.12,1.11,4.71,4.71,0,0,0,2.24.12,7.34,7.34,0,0,0,1.92-.53,4,4,0,0,0,1.1-.75,2,2,0,0,0,.77-1.84.9.9,0,0,0-.4-.64,1.22,1.22,0,0,0-.89-.13Zm2.28-8.37A2.25,2.25,0,0,0,421,40.4a2,2,0,0,0-1.68-.33,2,2,0,0,0-1.83,2.47,2.21,2.21,0,0,0,.81,1.45,2.12,2.12,0,0,0,1.72.34,2,2,0,0,0,1.49-.86A2.3,2.3,0,0,0,421.73,41.84Z"/><path class="cls-2" d="M436.72,31.72l3.43-.56,7.37,14.23-2.89.47-1.57-3.07-5.58.91-.54,3.41-2.89.47Zm1.12,9.8,4.21-.68-3.13-6.12Z"/><path class="cls-2" d="M457.33,41.7a3.61,3.61,0,0,1-3.06,2.8q-3,.49-4.32-1.7a5,5,0,0,1-.67-1.91l-1.17-7.18,2.73-.44,1.12,6.9a2.31,2.31,0,0,0,.8,1.57,1.78,1.78,0,0,0,1.4.33,3.48,3.48,0,0,0,1.27-.43,2.56,2.56,0,0,0,.82-.81,4.18,4.18,0,0,0,.47-2.81l-.9-5.56,2.73-.44L460.4,43.3l-2.73.44Z"/><path class="cls-2" d="M464.93,37.83a3.69,3.69,0,0,1-1.84-2.67,3.65,3.65,0,0,1,1-3.2,5.09,5.09,0,0,1,3-1.61,6.17,6.17,0,0,1,3.11.18,3.09,3.09,0,0,1,.79-2.31A3.52,3.52,0,0,1,473.11,27l.29,2.64q-2,.32-1.85,1.65a3.5,3.5,0,0,1,1.21,2,4,4,0,0,1-.09,1.93,3.79,3.79,0,0,1-.86,1.44,5.31,5.31,0,0,1-3.2,1.66,5.9,5.9,0,0,1-2.12,0,1.13,1.13,0,0,0-.75,1.26q.17,1,1.93.76l3.77-.61q3.84-.62,4.28,2.06a3.84,3.84,0,0,1-.16,1.84,4.8,4.8,0,0,1-1.06,1.75A7.62,7.62,0,0,1,470,47.7a8.23,8.23,0,0,1-4.7-.4,3.2,3.2,0,0,1-2.05-2.4,2.22,2.22,0,0,1,.37-1.76,3,3,0,0,1,1.55-1,2.44,2.44,0,0,1-1.7-1.84,1.93,1.93,0,0,1,.29-1.44A2.86,2.86,0,0,1,464.93,37.83Zm2.87,4.52q-2.16.45-1.91,2A1.44,1.44,0,0,0,467,45.47a4.71,4.71,0,0,0,2.24.12,7.34,7.34,0,0,0,1.92-.53,4,4,0,0,0,1.1-.75,2,2,0,0,0,.77-1.84.9.9,0,0,0-.4-.64,1.22,1.22,0,0,0-.89-.13ZM470.08,34a2.25,2.25,0,0,0-.77-1.44,2,2,0,0,0-1.68-.33,2,2,0,0,0-1.83,2.47,2.21,2.21,0,0,0,.81,1.45,2.12,2.12,0,0,0,1.72.34,2,2,0,0,0,1.49-.86A2.3,2.3,0,0,0,470.08,34Z"/><path class="cls-2" d="M485.33,37.15a3.61,3.61,0,0,1-3.06,2.8q-3,.49-4.32-1.7a5,5,0,0,1-.67-1.91l-1.17-7.18,2.73-.44,1.12,6.9a2.31,2.31,0,0,0,.8,1.57,1.78,1.78,0,0,0,1.4.33,3.48,3.48,0,0,0,1.27-.43,2.56,2.56,0,0,0,.82-.81,4.18,4.18,0,0,0,.47-2.81l-.9-5.56,2.73-.44,1.83,11.28-2.73.44Z"/><path class="cls-2" d="M493.67,34.37q.31,1.59,2.6,1.22a2.58,2.58,0,0,0,1.39-.62,1.1,1.1,0,0,0,.42-1,1,1,0,0,0-.48-.73,3.48,3.48,0,0,0-1.17-.33l-2.6-.48q-2.89-.51-3.24-2.66a2.7,2.7,0,0,1,.91-2.51,6.15,6.15,0,0,1,3.31-1.43,5.24,5.24,0,0,1,3.49.41,3.13,3.13,0,0,1,1.6,2.19l-2.57.42a1.14,1.14,0,0,0-.68-.79,2.53,2.53,0,0,0-1.44-.1,2.4,2.4,0,0,0-1.34.59,1,1,0,0,0-.36.9q.13.81,1.56,1l2.83.56a5.36,5.36,0,0,1,2.21.79,2.38,2.38,0,0,1,1,1.66,3,3,0,0,1-.93,2.62,5.79,5.79,0,0,1-3.44,1.65,6.13,6.13,0,0,1-3.77-.4,3.31,3.31,0,0,1-1.84-2.54Z"/><path class="cls-2" d="M511.2,34.76a7.2,7.2,0,0,1-2.31,1,5.19,5.19,0,0,1-1.57,0,3.53,3.53,0,0,1-1.27-.44,3.37,3.37,0,0,1-1.49-2.44l-1-6.3-1.57.26-.3-1.83,1.57-.26-.48-3,2.73-.44.48,3,3.06-.5.3,1.83-3.06.5,1,6.21a1.21,1.21,0,0,0,1.55,1.17,5.65,5.65,0,0,0,1.68-.65Z"/><path class="cls-2" d="M521.47,30.81l8.59-1.4.41,2.5-11.32,1.84-.42-2.57A4.38,4.38,0,0,1,520,26.93a8.18,8.18,0,0,1,1.38-1l2.89-1.68A3.52,3.52,0,0,0,525.61,23a2.3,2.3,0,0,0,.24-1.55,2,2,0,0,0-.86-1.37,2.53,2.53,0,0,0-1.88-.3,3.17,3.17,0,0,0-1.82.87,2.25,2.25,0,0,0-.6,1.79l-3,.49a4.27,4.27,0,0,1,1.13-3.73,6.66,6.66,0,0,1,3.87-1.79,6,6,0,0,1,4.07.62A4,4,0,0,1,528.79,21a4.59,4.59,0,0,1-.45,3.15,7.09,7.09,0,0,1-2.6,2.36l-2.93,1.71a3.61,3.61,0,0,0-1.18,1,1.56,1.56,0,0,0-.23,1.17Z"/><path class="cls-2" d="M535.35,21.73a14.69,14.69,0,0,1,2.35-.6,5.83,5.83,0,0,1,3.91.52,4,4,0,0,1,1.91,3,5.06,5.06,0,0,1-.94,4,5.88,5.88,0,0,1-3.89,2.22,6,6,0,0,1-4.16-.61A4.59,4.59,0,0,1,532.35,27l2.8-.46a2,2,0,0,0,1.07,1.61,3.46,3.46,0,0,0,2.1.23,2.78,2.78,0,0,0,1.9-1.13,2.75,2.75,0,0,0,.47-2.13q-.37-2.29-3.48-1.79l-4.59.74-.56-7.85,9-1.46.41,2.5-6.37,1Z"/></svg>