<svg id="Layer_1" data-name="Layer 1" xmlns="http://www.w3.org/2000/svg" viewBox="0 0 629.53 158.62"><defs><style>.cls-1{fill:#1414ef;}.cls-2,.cls-3{fill:#fff;stroke:#1414ef;stroke-miterlimit:10;}.cls-2{stroke-width:1.2px;}.cls-3{stroke-width:1.3px;}</style></defs><title>title--narrower</title><path class="cls-1" d="M7,18.11H9.91v1.57H2.28V18.11H5.13V8.91L2.85,10.3,2,8.87,5.67,6.63H7Z"/><path class="cls-1" d="M18.15,18.11H21v1.57H13.39V18.11h2.85V8.91L14,10.3l-.82-1.43,3.63-2.24h1.37Z"/><path class="cls-2" d="M51.41,58.29q-2.48,0-5.29.12t-4.38.29l-1.65.08a2.15,2.15,0,0,1-.25-1.32q0-1.4.25-1.4a13.59,13.59,0,0,0,3.14-.54q2.06-.54,2.4-1.28.58-1.73.58-7.52V15.49a26.16,26.16,0,0,0-.58-6.77q-.25-.91-2.31-1.49A13,13,0,0,0,40,6.65q-.33,0-.33-1.24A2.25,2.25,0,0,1,40,3.93q5.37.33,10.9.33Q54.79,4.34,64,4T77.6,3.68q.33,2.48,1.32,6.9T80,15.41a2.55,2.55,0,0,1-1.73.41c-.61,0-1-.19-1.16-.58Q74.37,7.89,66.53,7.89h-4.3Q56.11,7.89,56,9a37.16,37.16,0,0,0-.41,6.69v13q0,.5,3.63.5h4.54q4.79,0,5.7-.41t1.4-2.89q.25-1.24.5-2.07.08-.58,1.32-.58a2.24,2.24,0,0,1,1.57.41V39.2a2.42,2.42,0,0,1-1.57.33q-1.07,0-1.32-.66a26,26,0,0,0-1-3.3,4.79,4.79,0,0,0-.58-1.16l-.7-.5q-1.07-.66-7.6-.66-5.87,0-5.87.66v13a20.13,20.13,0,0,0,.91,6.86q.33.83,3,1.57a16.6,16.6,0,0,0,3.55.74q.41,0,.41,1.4a2.41,2.41,0,0,1-.25,1.32Q53.22,58.29,51.41,58.29Z"/><path class="cls-2" d="M105.11,22q4.54,0,6.77,2.73,0,7-4,7a4.91,4.91,0,0,1-3.22-1.65,5.17,5.17,0,0,0-3.55-1.65,4.43,4.43,0,0,0-4,2.6,11,11,0,0,0-1.45,5.41V46.8a34.6,34.6,0,0,0,.58,7.44q.16.58,2.19,1.2a11.67,11.67,0,0,0,2.77.62c.17,0,.26.4.29,1.2a8.65,8.65,0,0,1,0,1.61q-.66-.08-4.38-.33t-5.62-.25q-2,0-5.74.25t-4.42.33A2.42,2.42,0,0,1,81,57.29q0-1.24.33-1.24a11.52,11.52,0,0,0,3-.62q2-.62,2.19-1.2a27,27,0,0,0,.58-6V34.74q0-3.88-1.32-5.29a4,4,0,0,0-1.86-1.24,9.41,9.41,0,0,0-2-.5c-.52-.05-.79-.14-.79-.25q0-2.4.41-2.48a117.19,117.19,0,0,0,13.3-2.48,5,5,0,0,1,.66-.17c.22,0,.41.19.58.58a2,2,0,0,1,.21,1q0,.37-.12,1.16T96,26.69a10.64,10.64,0,0,0-.12,1.12,15.17,15.17,0,0,1,4-4A9.05,9.05,0,0,1,105.11,22Z"/><path class="cls-2" d="M133.36,22a15.31,15.31,0,0,1,6.94,1.53,13.07,13.07,0,0,1,4.79,3.88,19.21,19.21,0,0,1,2.64,4.87,14.24,14.24,0,0,1,.91,4.83q0,1.82-.62,2.27a4.69,4.69,0,0,1-2.52.45H125.76q-.58,0-.58.5a16.06,16.06,0,0,0,1.07,5.78A11.36,11.36,0,0,0,129.93,51a9.72,9.72,0,0,0,6.24,2.07,22.66,22.66,0,0,0,2.4-.12,12.37,12.37,0,0,0,2.15-.41q1-.29,1.73-.54a7.09,7.09,0,0,0,1.53-.74l1.12-.7q.33-.21,1.65-1.12a1.36,1.36,0,0,1,.41.5,1.6,1.6,0,0,1,.25.83,2.54,2.54,0,0,1-.5,1.57A13.45,13.45,0,0,1,142,56.8,15.33,15.33,0,0,1,133.86,59a16.73,16.73,0,0,1-12.39-5.33,17.82,17.82,0,0,1-5.2-12.93q0-8.34,4.83-13.55A16,16,0,0,1,133.36,22Zm-.58,3.8A5.84,5.84,0,0,0,129.23,27a7.79,7.79,0,0,0-2.4,2.81,15.76,15.76,0,0,0-1.2,3.1,10.08,10.08,0,0,0-.37,2.44c0,.39.17.58.5.58h13.38q.74,0,.74-1.24a10.71,10.71,0,0,0-1.94-5.87A5.92,5.92,0,0,0,132.78,25.82Z"/><path class="cls-2" d="M169.38,22a15.31,15.31,0,0,1,6.94,1.53,13.07,13.07,0,0,1,4.79,3.88,19.21,19.21,0,0,1,2.64,4.87,14.24,14.24,0,0,1,.91,4.83q0,1.82-.62,2.27a4.69,4.69,0,0,1-2.52.45H161.78q-.58,0-.58.5a16.06,16.06,0,0,0,1.07,5.78A11.36,11.36,0,0,0,166,51a9.72,9.72,0,0,0,6.24,2.07,22.66,22.66,0,0,0,2.4-.12,12.37,12.37,0,0,0,2.15-.41q1-.29,1.73-.54a7.09,7.09,0,0,0,1.53-.74l1.12-.7q.33-.21,1.65-1.12a1.36,1.36,0,0,1,.41.5,1.6,1.6,0,0,1,.25.83,2.54,2.54,0,0,1-.5,1.57,13.45,13.45,0,0,1-4.87,4.46A15.33,15.33,0,0,1,169.88,59a16.73,16.73,0,0,1-12.39-5.33,17.82,17.82,0,0,1-5.2-12.93q0-8.34,4.83-13.55A16,16,0,0,1,169.38,22Zm-.58,3.8A5.84,5.84,0,0,0,165.25,27a7.79,7.79,0,0,0-2.4,2.81,15.76,15.76,0,0,0-1.2,3.1,10.08,10.08,0,0,0-.37,2.44c0,.39.17.58.5.58h13.38q.74,0,.74-1.24A10.71,10.71,0,0,0,174,28.79,5.92,5.92,0,0,0,168.8,25.82Z"/><path class="cls-2" d="M207.05,21.85a14.2,14.2,0,0,1,6,1.16q.41,0,.41-1.32V13.92a28.82,28.82,0,0,0-.5-5.62Q212.59,7,208.71,7H208q-.5,0-.5-1.32t.5-1.32q2.48-.25,4.83-.66t3.88-.83q1.53-.41,2.64-.83l1.69-.62a4.25,4.25,0,0,1,.66-.21h.17a.89.89,0,0,1,.66.46,1.5,1.5,0,0,1,.33.87,31.65,31.65,0,0,0-.83,7.77V46.64a30.25,30.25,0,0,0,.5,6.11,1.22,1.22,0,0,0,.83.91,5.06,5.06,0,0,0,1.57.41c.55.06,1.07.1,1.57.12l.83,0a1.73,1.73,0,0,1,.17,1q0,1.65-.5,1.65-1.16.08-2.93.33t-3.47.54l-3.22.58q-1.53.29-3.43.7-.5,0-.5-1.41v-1.4a.37.37,0,0,0-.12-.33c-.08-.05-.15-.05-.21,0a13.79,13.79,0,0,1-8.59,3.06A16,16,0,0,1,192.93,54a16.68,16.68,0,0,1-5-12.35,19.37,19.37,0,0,1,5.66-14A18.09,18.09,0,0,1,207.05,21.85Zm-.74,4a7.23,7.23,0,0,0-6.61,3.72q-2.23,3.72-2.23,10,0,7,2.56,10.95a8.11,8.11,0,0,0,7.19,3.92A6.87,6.87,0,0,0,211.76,53a4.58,4.58,0,0,0,1.73-3.68V31.93a5.74,5.74,0,0,0-.29-1.73,7.7,7.7,0,0,0-1-1.94A5.28,5.28,0,0,0,210,26.52,8.77,8.77,0,0,0,206.31,25.82Z"/><path class="cls-2" d="M250.1,22a18.21,18.21,0,0,1,13.26,5.41,17.7,17.7,0,0,1,5.49,13.09,18.71,18.71,0,0,1-37.42,0,17.8,17.8,0,0,1,5.41-13.14A18.1,18.1,0,0,1,250.1,22ZM249,25.9a6.65,6.65,0,0,0-6,3.76,17.77,17.77,0,0,0-2.15,9,24.09,24.09,0,0,0,2.69,11.65q2.68,5,7.48,5a6.74,6.74,0,0,0,6.07-3.8,17.58,17.58,0,0,0,2.19-8.92,28.37,28.37,0,0,0-1.07-8,14.57,14.57,0,0,0-3.47-6.16A7.66,7.66,0,0,0,249,25.9Z"/><path class="cls-2" d="M300.32,22a8.92,8.92,0,0,1,5.37,1.61A9.66,9.66,0,0,1,309,27.8a19.48,19.48,0,0,1,6-4.13A18.55,18.55,0,0,1,322.8,22a9.38,9.38,0,0,1,5.08,1.32,9.12,9.12,0,0,1,3.3,3.68,19.44,19.44,0,0,1,1.73,5.12,31.5,31.5,0,0,1,.54,6V46.8a34.6,34.6,0,0,0,.58,7.44q.16.58,2.23,1.2a12.15,12.15,0,0,0,2.81.62c.17,0,.26.4.29,1.2a4.69,4.69,0,0,1-.12,1.61q-.58-.08-4.34-.33t-5.66-.25q-2,0-5.66.25t-4.42.33a3.08,3.08,0,0,1-.25-1.57q0-1.24.25-1.24a11.08,11.08,0,0,0,3-.62q2-.62,2.15-1.2a25.72,25.72,0,0,0,.58-5.78V40q0-12-7.68-12a7.52,7.52,0,0,0-4.54,1.32,5.16,5.16,0,0,0-2.15,2.56c0,.17,0,.39,0,.66a1.61,1.61,0,0,0,0,.66,40.4,40.4,0,0,1,.25,5.12v8.76a32.5,32.5,0,0,0,.58,7.1q.16.58,2.23,1.2a12.15,12.15,0,0,0,2.81.62c.17,0,.26.4.29,1.2a4.7,4.7,0,0,1-.12,1.61q-.58-.08-4.34-.33t-5.66-.25q-2,0-5.66.25t-4.42.33a3.08,3.08,0,0,1-.25-1.57q0-1.24.25-1.24a11.08,11.08,0,0,0,3-.62q2-.62,2.15-1.2a27,27,0,0,0,.58-6V40.28q0-6.44-1.9-9.33A6.29,6.29,0,0,0,294.62,28a7.91,7.91,0,0,0-4.54,1.4A3.9,3.9,0,0,0,288,32.59V46.8a30.36,30.36,0,0,0,.66,7.44q.16.58,2.15,1.2a11.21,11.21,0,0,0,2.73.62c.22,0,.34.4.37,1.2a4.7,4.7,0,0,1-.12,1.61q-.66-.08-4.34-.33t-5.58-.25q-2.07,0-5.78.25t-4.38.33a2.42,2.42,0,0,1-.33-1.57q0-1.24.33-1.24a12,12,0,0,0,3-.62q2.06-.62,2.23-1.2a27,27,0,0,0,.58-6V34.74q0-3.88-1.32-5.29a4,4,0,0,0-1.86-1.24,9.31,9.31,0,0,0-2-.5c-.55-.05-.83-.14-.83-.25q0-2.4.5-2.48a114.55,114.55,0,0,0,13.22-2.48.53.53,0,0,1,.25-.12,1.74,1.74,0,0,1,.41,0q.41,0,.66.58a1.53,1.53,0,0,1,.17.91,28.23,28.23,0,0,0-.33,3c0,.22.05.36.17.41a1.23,1.23,0,0,0,.41-.25A18.31,18.31,0,0,1,294,23.51,14.46,14.46,0,0,1,300.32,22Z"/><path class="cls-2" d="M366.66,15.41A24.89,24.89,0,0,0,366,8.47q-.33-.66-2.31-1.28a11.09,11.09,0,0,0-3-.62q-.33,0-.33-1.24a3.33,3.33,0,0,1,.17-1.49q.41,0,4.58.25t6.4.25q.66,0,10.57-.5a4.26,4.26,0,0,1,.25,1.32c0,.94-.11,1.4-.33,1.4a13.47,13.47,0,0,0-3,.66q-2.23.66-2.4,1.24a30.65,30.65,0,0,0-.66,7.27V46.8a30.67,30.67,0,0,0,.74,7.44q.16.58,2.27,1.2a12.65,12.65,0,0,0,2.85.62c.22,0,.33.52.33,1.57a3.67,3.67,0,0,1-.17,1.16q-9.91-.5-10.49-.5-1.65,0-3.47.08l-4,.21-3.51.21a1.61,1.61,0,0,1-.33-1.16c0-1,.11-1.57.33-1.57a13.19,13.19,0,0,0,3.1-.58q2.11-.58,2.35-1.24a28.94,28.94,0,0,0,.66-6.94Z"/><path class="cls-2" d="M400.45,21.94a35.13,35.13,0,0,1,9.58,1.4,46.93,46.93,0,0,1,.91,9.25q0,.66-1.07.66-1.82,0-2-.66a10,10,0,0,0-2.44-4.92,6.46,6.46,0,0,0-5-2,5.93,5.93,0,0,0-3.76,1.07,3.67,3.67,0,0,0-1.36,3.06,4.81,4.81,0,0,0,.45,2.11,5.16,5.16,0,0,0,1.49,1.78A20.44,20.44,0,0,0,399.09,35q.78.5,2.35,1.32a5.35,5.35,0,0,0,.83.41l1.24.66,1.36.74,1.32.78a15.13,15.13,0,0,1,1.45,1l1.28,1A6.5,6.5,0,0,1,410.16,42q.37.5,1,1.28a5.34,5.34,0,0,1,.87,1.49,15.81,15.81,0,0,1,.45,1.57,7.7,7.7,0,0,1,.21,1.78,9.74,9.74,0,0,1-4,8.22,15.67,15.67,0,0,1-9.71,3A27.59,27.59,0,0,1,388.31,57a32.94,32.94,0,0,1-.83-4.58,40.35,40.35,0,0,1-.41-4.75,1.75,1.75,0,0,1,1.16-.41q1.9,0,2,.66a9.12,9.12,0,0,0,3.26,5.58,8.81,8.81,0,0,0,5.66,2.11,6,6,0,0,0,3.8-1.16,4,4,0,0,0,1.49-3.39,5.44,5.44,0,0,0-.21-1.53,4.05,4.05,0,0,0-.78-1.4l-1-1.16A6,6,0,0,0,401,45.89q-1.11-.66-1.65-1l-2.07-1.07q-1.53-.78-2.11-1.12a19.21,19.21,0,0,1-5.87-4.42,8.83,8.83,0,0,1-2.07-5.91,8.87,8.87,0,0,1,4-7.77A15.92,15.92,0,0,1,400.45,21.94Z"/><path class="cls-2" d="M479.43,15.33a20.12,20.12,0,0,0-.83-6.61q-.41-1-2.77-1.57a16.58,16.58,0,0,0-3.68-.58c-.22,0-.34-.4-.37-1.2A2.79,2.79,0,0,1,472,3.84q8.84.58,10.41.58,2.15,0,5.53-.29t4.21-.29a3.46,3.46,0,0,1,.17,1.32q0,1.4-.33,1.4a15.83,15.83,0,0,0-3.55.62,5.37,5.37,0,0,0-3.14,1.69,19.29,19.29,0,0,0-.91,6.86V47.05q0,3,.33,11.57a3,3,0,0,1-1.82.33q-1.32,0-2.64-1.9L447.38,13.43V46.89a23,23,0,0,0,.66,6.77q.41,1,3.06,1.69a17.08,17.08,0,0,0,3.72.7c.17,0,.26.39.29,1.16a4.52,4.52,0,0,1-.12,1.57q-9.91-.5-10.33-.5-2.23,0-5.49.21l-4.34.29a2.08,2.08,0,0,1-.33-1.4q0-1.32.33-1.32a15.64,15.64,0,0,0,3.76-.62,4.51,4.51,0,0,0,3-1.86q.82-1.73.83-6.94V14.25q0-4.46-.91-6-.33-.58-2.85-1.07a21.53,21.53,0,0,0-3.68-.5q-.33,0-.37-1.24a2.31,2.31,0,0,1,.29-1.57q8.67.41,9.83.41,2.73,0,7.44-.41a85.52,85.52,0,0,0,5.74,8.8q4.17,5.82,11.44,15.37t9.91,13.18a23.74,23.74,0,0,0,.17-3.39Z"/><path class="cls-2" d="M512,22a18.21,18.21,0,0,1,13.26,5.41,17.7,17.7,0,0,1,5.49,13.09,18.71,18.71,0,0,1-37.42,0,17.8,17.8,0,0,1,5.41-13.14A18.1,18.1,0,0,1,512,22Zm-1.07,3.88a6.65,6.65,0,0,0-6,3.76,17.77,17.77,0,0,0-2.15,9,24.09,24.09,0,0,0,2.68,11.65q2.68,5,7.48,5a6.73,6.73,0,0,0,6.07-3.8,17.57,17.57,0,0,0,2.19-8.92,28.37,28.37,0,0,0-1.07-8,14.57,14.57,0,0,0-3.47-6.16A7.66,7.66,0,0,0,510.91,25.9Z"/><path class="cls-2" d="M51.41,137.29q-2.48,0-5.29.12t-4.38.29l-1.65.08a2.15,2.15,0,0,1-.25-1.32q0-1.4.25-1.4a13.59,13.59,0,0,0,3.14-.54q2.06-.54,2.4-1.28.58-1.73.58-7.52V94.49a26.16,26.16,0,0,0-.58-6.77q-.25-.91-2.31-1.49a13,13,0,0,0-3.3-.58q-.33,0-.33-1.24A2.25,2.25,0,0,1,40,82.93q5.37.33,10.9.33Q54.79,83.34,64,83t13.59-.33q.33,2.48,1.32,6.9T80,94.41a2.55,2.55,0,0,1-1.73.41c-.61,0-1-.19-1.16-.58q-2.73-7.35-10.57-7.35h-4.3Q56.11,86.89,56,88a37.16,37.16,0,0,0-.41,6.69v13q0,.5,3.63.5h4.54q4.79,0,5.7-.41t1.4-2.89q.25-1.24.5-2.07.08-.58,1.32-.58a2.24,2.24,0,0,1,1.57.41V118.2a2.42,2.42,0,0,1-1.57.33q-1.07,0-1.32-.66a26,26,0,0,0-1-3.3,4.79,4.79,0,0,0-.58-1.16l-.7-.5q-1.07-.66-7.6-.66-5.87,0-5.87.66v13a20.13,20.13,0,0,0,.91,6.86q.33.83,3,1.57a16.6,16.6,0,0,0,3.55.74q.41,0,.41,1.4a2.41,2.41,0,0,1-.25,1.32Q53.22,137.29,51.41,137.29Z"/><path class="cls-2" d="M99.78,101a15.32,15.32,0,0,1,6.94,1.53,13.07,13.07,0,0,1,4.79,3.88,19.2,19.2,0,0,1,2.64,4.87,14.24,14.24,0,0,1,.91,4.83q0,1.82-.62,2.27a4.69,4.69,0,0,1-2.52.45H92.18q-.58,0-.58.5a16.07,16.07,0,0,0,1.07,5.78A11.36,11.36,0,0,0,96.35,130a9.72,9.72,0,0,0,6.24,2.07A22.64,22.64,0,0,0,105,132a12.38,12.38,0,0,0,2.15-.41q1-.29,1.73-.54a7.08,7.08,0,0,0,1.53-.74l1.12-.7q.33-.21,1.65-1.12a1.36,1.36,0,0,1,.41.5,1.6,1.6,0,0,1,.25.83,2.53,2.53,0,0,1-.5,1.57,13.45,13.45,0,0,1-4.87,4.46,15.32,15.32,0,0,1-8.18,2.23,16.73,16.73,0,0,1-12.39-5.33,17.82,17.82,0,0,1-5.21-12.93q0-8.34,4.83-13.55A16,16,0,0,1,99.78,101Zm-.58,3.8A5.84,5.84,0,0,0,95.65,106a7.79,7.79,0,0,0-2.4,2.81,15.76,15.76,0,0,0-1.2,3.1,10.09,10.09,0,0,0-.37,2.44c0,.39.17.58.5.58h13.38q.74,0,.74-1.24a10.71,10.71,0,0,0-1.94-5.87A5.92,5.92,0,0,0,99.2,104.82Z"/><path class="cls-2" d="M136.22,101q5.12,0,7.68,2.69t2.56,9.21v16.28a3.76,3.76,0,0,0,.74,2.52,2.48,2.48,0,0,0,2,.87A5.15,5.15,0,0,0,152,131.5c.33.11.5.41.5.91a4.91,4.91,0,0,1-.5,2.48,20.43,20.43,0,0,1-3.3,2.07,8.61,8.61,0,0,1-4,1.07,6,6,0,0,1-3.72-1.41,6.77,6.77,0,0,1-2.4-3.06l-.62.54q-.54.46-1.49,1.12a24.48,24.48,0,0,1-2.15,1.32,13.17,13.17,0,0,1-2.81,1.12,12,12,0,0,1-3.26.45,9.86,9.86,0,0,1-6.73-2.27,7.85,7.85,0,0,1-2.6-6.24,7.61,7.61,0,0,1,1-3.72,9.88,9.88,0,0,1,2.27-2.85,16.93,16.93,0,0,1,3.55-2.19,33.8,33.8,0,0,1,3.84-1.61q1.61-.54,4.13-1.28t3.51-1.07a1.3,1.3,0,0,0,.74-1.32V111a7.09,7.09,0,0,0-1.32-4.54,4.31,4.31,0,0,0-3.55-1.65,5,5,0,0,0-3.88,1.53,6.18,6.18,0,0,0-1.4,4.34,2.68,2.68,0,0,1-1.24,2.44,5.14,5.14,0,0,1-2.81.78q-3.06,0-4.3-2,0-4,5.41-7.43A20.72,20.72,0,0,1,136.22,101Zm-3.72,31.72a6.4,6.4,0,0,0,3.84-1.16,3.27,3.27,0,0,0,1.61-2.64v-8.43q-.58.25-2.44.83t-2.85,1a22.56,22.56,0,0,0-2.31,1.16,5,5,0,0,0-1.94,1.82,4.55,4.55,0,0,0-.62,2.31,5.09,5.09,0,0,0,1.32,3.88A4.75,4.75,0,0,0,132.5,132.74Z"/><path class="cls-2" d="M180.41,101q4.54,0,6.77,2.73,0,7-4,7a4.92,4.92,0,0,1-3.22-1.65,5.17,5.17,0,0,0-3.55-1.65,4.43,4.43,0,0,0-4,2.6,11,11,0,0,0-1.45,5.41V125.8a34.56,34.56,0,0,0,.58,7.44q.16.58,2.19,1.2a11.68,11.68,0,0,0,2.77.62c.17,0,.26.4.29,1.2a8.59,8.59,0,0,1,0,1.61q-.66-.08-4.38-.33t-5.62-.25q-2,0-5.74.25t-4.42.33a2.42,2.42,0,0,1-.33-1.57q0-1.24.33-1.24a11.52,11.52,0,0,0,3-.62q2-.62,2.19-1.2a27,27,0,0,0,.58-6V113.74q0-3.88-1.32-5.29a4,4,0,0,0-1.86-1.24,9.4,9.4,0,0,0-2-.5c-.52-.05-.78-.14-.78-.25q0-2.4.41-2.48a117.19,117.19,0,0,0,13.3-2.48,5,5,0,0,1,.66-.17c.22,0,.41.19.58.58a2,2,0,0,1,.21,1q0,.37-.12,1.16t-.21,1.65a10.5,10.5,0,0,0-.12,1.12,15.16,15.16,0,0,1,4-4A9.05,9.05,0,0,1,180.41,101Z"/><rect class="cls-3" x="119.45" y="60.72" width="192.91" height="35.17" rx="17.58" ry="17.58" transform="matrix(0.99, 0.15, -0.15, 0.99, 14.63, -32.31)"/><path class="cls-1" d="M157.54,73.25l6.15,1-.37,2.37-8.87-1.38,2.33-15,2.72.42Z"/><path class="cls-1" d="M170.55,71a13.13,13.13,0,0,1,3,.92l.17-1.11a2.71,2.71,0,0,0-.2-1.81,1.93,1.93,0,0,0-1.46-.81,2.77,2.77,0,0,0-1.71.17,1.43,1.43,0,0,0-.76,1.12l-3-.46a3.06,3.06,0,0,1,1.78-2.56,7.12,7.12,0,0,1,3.9-.27q3.46.54,4.09,3.12a5.14,5.14,0,0,1,0,2l-1.11,7.12L173,78.09l0-1.53a3.64,3.64,0,0,1-3.6,1.3,5,5,0,0,1-3.2-1.58,3.37,3.37,0,0,1-.71-2.74,2.77,2.77,0,0,1,1.59-2.21A5.89,5.89,0,0,1,170.55,71Zm2.75,2.65a9.84,9.84,0,0,0-2.48-.76q-2.21-.34-2.44,1.13a1.4,1.4,0,0,0,.34,1.15,2.45,2.45,0,0,0,1.56.7,2.49,2.49,0,0,0,2-.46A2.8,2.8,0,0,0,173.3,73.65Z"/><path class="cls-1" d="M186.87,78.48a3.41,3.41,0,0,1-3.5,1.56,4.67,4.67,0,0,1-3.34-2.2,6.4,6.4,0,0,1-.82-4.57,6.32,6.32,0,0,1,2.09-4,4.54,4.54,0,0,1,3.75-1,3.53,3.53,0,0,1,2.9,2.18l.93-6,2.74.43-2.46,15.81-2.24-.35Zm-1.69-7.77a2.43,2.43,0,0,0-2.07.63,3.85,3.85,0,0,0-1.16,2.38,3.9,3.9,0,0,0,.39,2.65,2.5,2.5,0,0,0,3.73.76,2.78,2.78,0,0,0,1.12-1.9l.23-1.45a2.85,2.85,0,0,0-.5-2.09A2.52,2.52,0,0,0,185.18,70.71Z"/><path class="cls-1" d="M195.67,66.45a1.57,1.57,0,0,1,.62-1.1,2,2,0,0,1,2.48.39,1.75,1.75,0,0,1-.36,2.33,2,2,0,0,1-2.48-.39A1.57,1.57,0,0,1,195.67,66.45Zm-.24,3.65,2.72.42L196.4,81.74l-2.72-.42Z"/><path class="cls-1" d="M205.13,73.61a4.12,4.12,0,0,1,6.81.16,5.8,5.8,0,0,1,.49,3.76l-1,6.55-2.72-.42,1-6.55a2.67,2.67,0,0,0-.31-2,2.23,2.23,0,0,0-1.58-.9,2.34,2.34,0,0,0-2,.68,4.84,4.84,0,0,0-1.27,2.78l-.81,5.19L201,82.46l1.75-11.2,2.37.37Z"/><path class="cls-1" d="M227,71.18l3.41.53L233,87.44,230.1,87l-.53-3.39L224,82.74l-1.56,3.06-2.88-.45Zm-2,9.61,4.2.65-1.07-6.75Z"/><path class="cls-1" d="M237.81,76.72l1,8.35,3.29-7,2.47.38,1,7.73,3.53-7.67,2.72.42-5.43,10.63-2.67-.42-1-7-3.07,6.39-2.7-.42-2-11.78Z"/><path class="cls-1" d="M257.26,84.52a13.13,13.13,0,0,1,3,.92l.17-1.11a2.71,2.71,0,0,0-.2-1.81,1.93,1.93,0,0,0-1.46-.81,2.77,2.77,0,0,0-1.71.17,1.43,1.43,0,0,0-.76,1.12l-3-.46A3.06,3.06,0,0,1,255.12,80a7.12,7.12,0,0,1,3.9-.27q3.46.54,4.09,3.12a5.14,5.14,0,0,1,0,2L262,92l-2.37-.37,0-1.53a3.64,3.64,0,0,1-3.6,1.3,5,5,0,0,1-3.2-1.58,3.37,3.37,0,0,1-.71-2.74,2.77,2.77,0,0,1,1.59-2.21A5.89,5.89,0,0,1,257.26,84.52ZM260,87.17a9.84,9.84,0,0,0-2.48-.76q-2.21-.34-2.44,1.13a1.4,1.4,0,0,0,.34,1.15,2.45,2.45,0,0,0,1.56.7,2.49,2.49,0,0,0,2-.46A2.8,2.8,0,0,0,260,87.17Z"/><path class="cls-1" d="M273.59,92a3.41,3.41,0,0,1-3.5,1.56,4.67,4.67,0,0,1-3.34-2.2,6.4,6.4,0,0,1-.82-4.57,6.32,6.32,0,0,1,2.09-4,4.54,4.54,0,0,1,3.75-1,3.53,3.53,0,0,1,2.9,2.18l.93-6,2.74.43-2.46,15.81-2.24-.35Zm-1.69-7.77a2.43,2.43,0,0,0-2.07.63,3.85,3.85,0,0,0-1.16,2.38,3.9,3.9,0,0,0,.39,2.65,2.5,2.5,0,0,0,3.73.76,2.78,2.78,0,0,0,1.12-1.9l.23-1.45a2.85,2.85,0,0,0-.5-2.09A2.52,2.52,0,0,0,271.89,84.23Z"/></svg>