<svg id="Layer_1" data-name="Layer 1" xmlns="http://www.w3.org/2000/svg" viewBox="0 0 629.95 196.52"><defs><style>.cls-1{fill:#1414ef;}.cls-2{fill:#fff;}</style></defs><title>title-1</title><path class="cls-1" d="M41.46,4.56h3.07V21.44H41.46Z"/><path class="cls-1" d="M52.64,11a4.59,4.59,0,0,1,7.53-1,6.46,6.46,0,0,1,1.18,4.06v7.38H58.29V14.05a3,3,0,0,0-.68-2.12,2.49,2.49,0,0,0-1.9-.71,2.6,2.6,0,0,0-2.09,1.09,5.4,5.4,0,0,0-.92,3.28v5.85H49.63V8.8h2.68Z"/><path class="cls-1" d="M73.21,21.13a8,8,0,0,1-2.7.68,5.74,5.74,0,0,1-1.73-.23,3.9,3.9,0,0,1-1.31-.7,3.73,3.73,0,0,1-1.2-2.94V10.86H64.5V8.8h1.77V5.47h3.07V8.8h3.43v2.05H69.33v7q0,1.56,1.48,1.56A6.25,6.25,0,0,0,72.77,19Z"/><path class="cls-1" d="M79.68,11.3q1.14-2.73,3.43-2.73a4.53,4.53,0,0,1,1.12.18l-.05,3.07a6.85,6.85,0,0,0-1.43-.16q-3.07,0-3.07,4.24v5.54H76.61V8.78h3.07Z"/><path class="cls-1" d="M92.66,8.46a7,7,0,0,1,2.39.4A5,5,0,0,1,97,10.1a6.87,6.87,0,0,1,1.79,5,6.8,6.8,0,0,1-1.79,5,5.73,5.73,0,0,1-4.32,1.66,5.91,5.91,0,0,1-4.37-1.66,6.75,6.75,0,0,1-1.79-5,6.82,6.82,0,0,1,1.79-5A5.91,5.91,0,0,1,92.66,8.46Zm3,6.66a4.84,4.84,0,0,0-.78-3,2.6,2.6,0,0,0-2.17-1,2.9,2.9,0,0,0-2.27,1,4.42,4.42,0,0,0-.88,3,4.77,4.77,0,0,0,.79,3,2.62,2.62,0,0,0,2.17,1,2.88,2.88,0,0,0,2.26-1A4.42,4.42,0,0,0,95.7,15.12Z"/><path class="cls-1" d="M110.91,19.49a3.8,3.8,0,0,1-3.59,2.31A5.21,5.21,0,0,1,103.26,20a7.13,7.13,0,0,1-1.69-4.89,7,7,0,0,1,1.61-4.81,5.06,5.06,0,0,1,4-1.79,3.94,3.94,0,0,1,3.56,1.9V3.6h3.09V21.44h-2.52Zm-3.2-8.27a2.7,2.7,0,0,0-2.17,1.05,4.29,4.29,0,0,0-.87,2.82,4.35,4.35,0,0,0,.88,2.85,2.79,2.79,0,0,0,4.24.2,3.1,3.1,0,0,0,.91-2.29V14.21a3.18,3.18,0,0,0-.91-2.21A2.81,2.81,0,0,0,107.71,11.22Z"/><path class="cls-1" d="M127.29,19.15a4,4,0,0,1-3.85,2.52q-3.35,0-4.42-2.63a5.61,5.61,0,0,1-.39-2.21V8.78h3.07v7.75a2.56,2.56,0,0,0,.6,1.86,2,2,0,0,0,1.47.61,3.85,3.85,0,0,0,1.47-.25,2.83,2.83,0,0,0,1-.74,4.64,4.64,0,0,0,1-3V8.78h3.07V21.44h-3.07Z"/><path class="cls-1" d="M140.26,8.46a5.44,5.44,0,0,1,2.15.4A5,5,0,0,1,144,9.92a5.08,5.08,0,0,1,1.53,3.15l-3.09.08a2.84,2.84,0,0,0-.77-1.38,1.79,1.79,0,0,0-1.29-.55,3.17,3.17,0,0,0-1.25.22,2.39,2.39,0,0,0-.91.69,4.66,4.66,0,0,0-.88,3,4.36,4.36,0,0,0,.83,2.9,2.56,2.56,0,0,0,2,1,2.29,2.29,0,0,0,1.72-.56,2.11,2.11,0,0,0,.53-1.52h3.09a4.69,4.69,0,0,1-1.38,3.46,5.31,5.31,0,0,1-3.93,1.4A5.48,5.48,0,0,1,136,20a6.91,6.91,0,0,1-1.79-4.86A6.75,6.75,0,0,1,136,10.21,5.63,5.63,0,0,1,140.26,8.46Z"/><path class="cls-1" d="M156.62,21.13a8,8,0,0,1-2.7.68,5.74,5.74,0,0,1-1.73-.23,3.9,3.9,0,0,1-1.31-.7,3.73,3.73,0,0,1-1.2-2.94V10.86h-1.77V8.8h1.77V5.47h3.07V8.8h3.43v2.05h-3.43v7q0,1.56,1.48,1.56a6.25,6.25,0,0,0,1.95-.42Z"/><path class="cls-1" d="M159.92,4.72a1.75,1.75,0,0,1,.49-1.31,2.27,2.27,0,0,1,2.79,0,1.72,1.72,0,0,1,.51,1.31A1.72,1.72,0,0,1,163.21,6a2.27,2.27,0,0,1-2.79,0A1.75,1.75,0,0,1,159.92,4.72Zm.36,4.06h3.07V21.44h-3.07Z"/><path class="cls-1" d="M173.77,8.46a7,7,0,0,1,2.39.4,5,5,0,0,1,1.92,1.24,6.87,6.87,0,0,1,1.79,5,6.8,6.8,0,0,1-1.79,5,5.73,5.73,0,0,1-4.32,1.66,5.91,5.91,0,0,1-4.37-1.66,6.75,6.75,0,0,1-1.79-5,6.82,6.82,0,0,1,1.79-5A5.91,5.91,0,0,1,173.77,8.46Zm3,6.66a4.84,4.84,0,0,0-.78-3,2.6,2.6,0,0,0-2.17-1,2.9,2.9,0,0,0-2.27,1,4.42,4.42,0,0,0-.88,3,4.77,4.77,0,0,0,.79,3,2.62,2.62,0,0,0,2.17,1,2.88,2.88,0,0,0,2.26-1A4.42,4.42,0,0,0,176.82,15.12Z"/><path class="cls-1" d="M186.8,11a4.59,4.59,0,0,1,7.53-1,6.46,6.46,0,0,1,1.18,4.06v7.38h-3.07V14.05a3,3,0,0,0-.68-2.12,2.49,2.49,0,0,0-1.9-.71,2.6,2.6,0,0,0-2.09,1.09,5.4,5.4,0,0,0-.92,3.28v5.85h-3.07V8.8h2.68Z"/><path class="cls-1" d="M199.75,12.94a1.93,1.93,0,0,1-.6-1.46,2,2,0,0,1,.6-1.48,2.08,2.08,0,0,1,1.53-.6,2.17,2.17,0,0,1,1.56.6,2,2,0,0,1,.62,1.48,1.89,1.89,0,0,1-.62,1.46,2.22,2.22,0,0,1-1.56.57A2.13,2.13,0,0,1,199.75,12.94Zm0,7.72a1.93,1.93,0,0,1-.6-1.46,2,2,0,0,1,.6-1.48,2.08,2.08,0,0,1,1.53-.6,2.17,2.17,0,0,1,1.56.6,2,2,0,0,1,.62,1.48,1.89,1.89,0,0,1-.62,1.46,2.22,2.22,0,0,1-1.56.57A2.13,2.13,0,0,1,199.75,20.66Z"/><path class="cls-1" d="M88.23,81.4A46.27,46.27,0,0,1,87,87.8q-1.24,5.33-1.9,5.66-7.19,3.47-19.17,3.47a24.8,24.8,0,0,1-18.59-8,26.62,26.62,0,0,1-7.68-19.08A28.4,28.4,0,0,1,47.5,49.72a25.43,25.43,0,0,1,19.33-8.39,91,91,0,0,1,19.5,2.23q.25.08.5,5.41t.25,6.65q0,1.24-2,1.24a2.66,2.66,0,0,1-1.16-.33,11.53,11.53,0,0,0-1.2-3.06,21.19,21.19,0,0,0-2.6-3.55A12.57,12.57,0,0,0,75,46.66a22.13,22.13,0,0,0-7.85-1.28,14.34,14.34,0,0,0-12.6,6.69,28,28,0,0,0-4.5,16q0,10.41,5.08,17.64T69.48,93q7.35,0,11.65-4.63a11.33,11.33,0,0,0,1.94-3.1q.87-1.94,1.32-3.26T85,80.66Q87.9,80.66,88.23,81.4Z"/><path class="cls-1" d="M111.28,59.92a18.21,18.21,0,0,1,13.26,5.41A17.7,17.7,0,0,1,130,78.43a18.75,18.75,0,0,1-32,13.14,18.6,18.6,0,0,1,0-26.27A18.1,18.1,0,0,1,111.28,59.92Zm-1.07,3.88a6.65,6.65,0,0,0-6,3.76,17.76,17.76,0,0,0-2.15,9,24.09,24.09,0,0,0,2.68,11.65q2.68,5,7.48,5a6.73,6.73,0,0,0,6.07-3.8,17.57,17.57,0,0,0,2.19-8.92,28.34,28.34,0,0,0-1.07-8,14.56,14.56,0,0,0-3.47-6.16A7.66,7.66,0,0,0,110.21,63.81Z"/><path class="cls-1" d="M161.51,59.92q10.66,0,10.66,16.94v7.85a34.6,34.6,0,0,0,.58,7.44q.16.58,2.27,1.2a12.65,12.65,0,0,0,2.85.62c.17,0,.26.4.29,1.2a4.66,4.66,0,0,1-.12,1.61q-.5-.08-4.34-.33T168,96.19q-2,0-5.49.25t-4.25.33a2.42,2.42,0,0,1-.33-1.57q0-1.24.33-1.24a9.82,9.82,0,0,0,2.77-.62q1.86-.62,2-1.2a23.72,23.72,0,0,0,.66-6V78.26q0-6.86-1.86-9.58T155.89,66a7.65,7.65,0,0,0-4.63,1.45,4,4,0,0,0-2,3.1V84.71a34.6,34.6,0,0,0,.58,7.44q.16.58,2.19,1.2a11.88,11.88,0,0,0,2.68.62c.22,0,.34.4.37,1.2a4.69,4.69,0,0,1-.12,1.61q-.66-.08-4.34-.33t-5.58-.25q-2,0-5.74.25t-4.42.33a2.42,2.42,0,0,1-.33-1.57q0-1.24.33-1.24a11.52,11.52,0,0,0,3-.62q2-.62,2.19-1.2a27,27,0,0,0,.58-6V72.64q0-3.88-1.32-5.29a4,4,0,0,0-1.86-1.24,9.41,9.41,0,0,0-2-.5c-.52-.05-.79-.14-.79-.25q0-2.4.41-2.48a117.21,117.21,0,0,0,13.3-2.48.54.54,0,0,1,.21-.12.79.79,0,0,1,.25,0h.21c.22,0,.41.19.58.58a2.52,2.52,0,0,1,.25.91,28.23,28.23,0,0,0-.33,3,.65.65,0,0,0,.08.41,1.23,1.23,0,0,0,.41-.25,18.32,18.32,0,0,1,5.08-3.47A14.47,14.47,0,0,1,161.51,59.92Z"/><path class="cls-1" d="M187.53,65.71h-5q-.58,0-.58-2.15a2,2,0,0,1,.08-.74,23.12,23.12,0,0,0,6.36-4.38q1.07-1.07,2.35-2.44t3-3.51a5.89,5.89,0,0,1,1.57.21c.5.14.74.29.74.46v8.1l6,0,4.09,0q.66,0,.66.74a8,8,0,0,1-.83,3.63H196V85.62a7.85,7.85,0,0,0,1.4,5,4.72,4.72,0,0,0,3.88,1.74,7.79,7.79,0,0,0,1.74-.21,8.75,8.75,0,0,0,1.49-.45c.38-.17.74-.33,1.07-.5a2.62,2.62,0,0,1,.58-.25q.33-.08.74.74t.33,1.07q-.5,1.16-3.51,2.68A13,13,0,0,1,197.86,97a10.42,10.42,0,0,1-7.31-2.77q-3-2.77-3-8.55Z"/><path class="cls-1" d="M228.59,59.92a15.31,15.31,0,0,1,6.94,1.53,13.07,13.07,0,0,1,4.79,3.88A19.21,19.21,0,0,1,243,70.21a14.24,14.24,0,0,1,.91,4.83q0,1.82-.62,2.27a4.69,4.69,0,0,1-2.52.45H221q-.58,0-.58.5A16,16,0,0,0,221.49,84a11.35,11.35,0,0,0,3.68,4.87A9.72,9.72,0,0,0,231.4,91a22.65,22.65,0,0,0,2.4-.12,12.35,12.35,0,0,0,2.15-.41q1-.29,1.74-.54a7.11,7.11,0,0,0,1.53-.74l1.12-.7q.33-.21,1.65-1.12a1.36,1.36,0,0,1,.41.5,1.6,1.6,0,0,1,.25.83,2.54,2.54,0,0,1-.5,1.57,13.46,13.46,0,0,1-4.87,4.46,15.32,15.32,0,0,1-8.18,2.23,16.73,16.73,0,0,1-12.39-5.33,17.82,17.82,0,0,1-5.2-12.93q0-8.34,4.83-13.55A16,16,0,0,1,228.59,59.92Zm-.58,3.8a5.84,5.84,0,0,0-3.55,1.16,7.79,7.79,0,0,0-2.4,2.81,15.76,15.76,0,0,0-1.2,3.1,10.09,10.09,0,0,0-.37,2.44c0,.39.17.58.5.58h13.38q.74,0,.74-1.24a10.71,10.71,0,0,0-1.94-5.87A5.92,5.92,0,0,0,228,63.72Z"/><path class="cls-1" d="M247.37,61.57a2.35,2.35,0,0,1,.33-1.32q9.09.5,9.75.5t9.91-.5a2.83,2.83,0,0,1,.17,1.16q0,1.49-.33,1.49a6.31,6.31,0,0,0-2.31.45q-1.16.46-1.16,1.28a1.81,1.81,0,0,0,.41,1L269.34,73q.58-.82,2.23-3.06T274,66.45a4.08,4.08,0,0,0,.79-1.9,1.09,1.09,0,0,0-.7-1,4.07,4.07,0,0,0-1.49-.45q-.79-.08-1.65-.12a2.7,2.7,0,0,1-1-.12q-.33,0-.33-1.32a1.91,1.91,0,0,1,.33-1.32q9,.5,9.58.5t8.59-.5a4.85,4.85,0,0,1,.17,1.32q0,1.32-.17,1.32-5.62.66-7.27,2.64l-8.76,10.24a1.45,1.45,0,0,0-.17.66,1.12,1.12,0,0,0,.33.83l9.33,12.8a9.6,9.6,0,0,0,6.86,4q.25,0,.25,1.4a2.19,2.19,0,0,1-.33,1.24q-1.24-.08-3-.25t-3.22-.25q-1.45-.08-3.1-.08-1.82,0-3.39.08t-3.51.25q-1.94.16-3.35.25a7.06,7.06,0,0,1-.17-1.07q0-1.74.25-1.74a5.65,5.65,0,0,0,2.4-.58q1.24-.58,1.24-1.4a1.28,1.28,0,0,0-.17-.5l-5.95-8.26-5.21,7.27a2.42,2.42,0,0,0-.58,1.49,1.21,1.21,0,0,0,.29.83,2,2,0,0,0,1,.54,9.52,9.52,0,0,0,1.12.29q.45.08,1.4.21t1.12.12q.25,0,.25,1.4a2.08,2.08,0,0,1-.33,1.4q-1.24-.08-2.93-.25t-3.1-.25q-1.41-.08-3-.08t-3,.08q-1.4.08-3.14.25t-3,.25a5.71,5.71,0,0,1-.17-1.4q0-1.4.33-1.4,5.37-.82,7.19-3.14l8.84-10.74a1.47,1.47,0,0,0,.17-.66,1,1,0,0,0-.25-.58L254,66a6.93,6.93,0,0,0-2.89-2.11A8.76,8.76,0,0,0,247.7,63Q247.37,63,247.37,61.57Z"/><path class="cls-1" d="M298.51,65.71h-5q-.58,0-.58-2.15a2,2,0,0,1,.08-.74,23.12,23.12,0,0,0,6.36-4.38q1.07-1.07,2.35-2.44t3-3.51a5.89,5.89,0,0,1,1.57.21c.5.14.74.29.74.46v8.1l6,0,4.09,0q.66,0,.66.74a8,8,0,0,1-.83,3.63H307V85.62a7.85,7.85,0,0,0,1.4,5,4.72,4.72,0,0,0,3.88,1.74,7.79,7.79,0,0,0,1.74-.21,8.75,8.75,0,0,0,1.49-.45c.38-.17.74-.33,1.07-.5a2.62,2.62,0,0,1,.58-.25q.33-.08.74.74t.33,1.07q-.5,1.16-3.51,2.68A13,13,0,0,1,308.83,97a10.42,10.42,0,0,1-7.31-2.77q-3-2.77-3-8.55Z"/><path class="cls-1" d="M358.73,68.84V85.2a18.32,18.32,0,0,0,.66,5.78,1.72,1.72,0,0,0,1,.66,6.41,6.41,0,0,0,1.45.33,12.26,12.26,0,0,0,1.36.08,1.52,1.52,0,0,1,.7.08c.22.06.33.3.33.74A6.34,6.34,0,0,1,364,94c-.11.52-.28.79-.5.79a19,19,0,0,0-2.93.29l-3.43.58q-1.65.29-3.14.62t-3.3.66q-.58,0-.58-1.32V92q-.08-.41-.25-.41a18.45,18.45,0,0,1-5,3.72,13.84,13.84,0,0,1-6.53,1.65,8.65,8.65,0,0,1-4.92-1.41,10,10,0,0,1-3.3-3.63,17.76,17.76,0,0,1-1.73-4.79,25.19,25.19,0,0,1-.54-5.21V72.64q0-3.88-1.32-5.29a4.58,4.58,0,0,0-1.9-1.24,8.67,8.67,0,0,0-2-.5c-.55-.05-.83-.14-.83-.25q0-2.4.41-2.48a62.33,62.33,0,0,0,6.77-1,64.74,64.74,0,0,0,6.53-1.49,1.33,1.33,0,0,0,.33-.08,1.42,1.42,0,0,1,.33-.08q.41,0,.62.58a3,3,0,0,1,.21.91q-.74,5.62-.74,7.27v9.91q0,6.44,1.82,9.25T343.94,91a6.49,6.49,0,0,0,4.46-1.61,4.4,4.4,0,0,0,1.82-3.1V72.64q0-3.88-1.32-5.29A4,4,0,0,0,347,66.12a9.3,9.3,0,0,0-2-.5c-.55-.05-.83-.14-.83-.25q0-2.4.5-2.48a63.41,63.41,0,0,0,6.69-1,64.87,64.87,0,0,0,6.53-1.49,4.79,4.79,0,0,0,.66-.17q.41,0,.66.58a1.52,1.52,0,0,1,.17.91Q358.73,67.36,358.73,68.84Z"/><path class="cls-1" d="M385.83,59.92q5.12,0,7.68,2.69t2.56,9.21V88.09a3.77,3.77,0,0,0,.74,2.52,2.48,2.48,0,0,0,2,.87,5.15,5.15,0,0,0,2.81-1.07c.33.11.5.41.5.91a4.9,4.9,0,0,1-.5,2.48,20.45,20.45,0,0,1-3.3,2.07,8.61,8.61,0,0,1-4,1.07,6,6,0,0,1-3.72-1.41,6.77,6.77,0,0,1-2.4-3.06l-.62.54q-.54.46-1.49,1.12A24.38,24.38,0,0,1,384,95.45a13.18,13.18,0,0,1-2.81,1.12,12,12,0,0,1-3.26.45,9.86,9.86,0,0,1-6.73-2.27,7.85,7.85,0,0,1-2.6-6.24,7.61,7.61,0,0,1,1-3.72,9.86,9.86,0,0,1,2.27-2.85,16.9,16.9,0,0,1,3.55-2.19,33.79,33.79,0,0,1,3.84-1.61q1.61-.54,4.13-1.28t3.51-1.07a1.3,1.3,0,0,0,.74-1.32V69.92a7.09,7.09,0,0,0-1.32-4.54,4.31,4.31,0,0,0-3.55-1.65,5,5,0,0,0-3.88,1.53,6.18,6.18,0,0,0-1.41,4.34A2.68,2.68,0,0,1,376.16,72a5.14,5.14,0,0,1-2.81.78q-3.06,0-4.3-2,0-4,5.41-7.43A20.72,20.72,0,0,1,385.83,59.92Zm-3.72,31.72A6.4,6.4,0,0,0,386,90.49a3.27,3.27,0,0,0,1.61-2.64V79.42q-.58.25-2.44.83t-2.85,1A22.46,22.46,0,0,0,380,82.39,5,5,0,0,0,378,84.21a4.55,4.55,0,0,0-.62,2.31,5.09,5.09,0,0,0,1.32,3.88A4.75,4.75,0,0,0,382.11,91.65Z"/><path class="cls-1" d="M420.19,84.54a33.9,33.9,0,0,0,.58,7.44q.16.58,2,1.28a9,9,0,0,0,2.52.7q.25,0,.29,1.16a4.5,4.5,0,0,1-.12,1.57l-3.1-.21-3.51-.21q-1.57-.08-3-.08-1.57,0-3.14.08l-3.47.21-3.14.21a2.33,2.33,0,0,1-.33-1.53c0-.8.11-1.2.33-1.2a8.82,8.82,0,0,0,2.77-.7q1.86-.7,2-1.28a27.38,27.38,0,0,0,.66-6.11V51.5a28.76,28.76,0,0,0-.5-5.62q-.41-1.32-4.13-1.32h-.83q-.5,0-.5-1,0-1.32.5-1.32,2.56-.25,4.88-.66t3.84-.83q1.53-.41,2.64-.78t1.78-.62l.58-.25H420c.22,0,.45.17.7.5a2.55,2.55,0,0,1,.45.83,26.11,26.11,0,0,0-1,7.77Z"/><path class="cls-1" d="M444.9,84.71a30.36,30.36,0,0,0,.66,7.44q.16.58,2.23,1.2a12.15,12.15,0,0,0,2.81.62c.22,0,.34.4.37,1.2a4.66,4.66,0,0,1-.12,1.61q-.58-.08-4.42-.33t-5.66-.25q-2.07,0-5.82.25t-4.34.33a2.42,2.42,0,0,1-.33-1.57q0-1.24.33-1.24a12,12,0,0,0,3-.62q2.06-.62,2.23-1.2a27,27,0,0,0,.58-6V72.64q0-3.88-1.32-5.29a4.59,4.59,0,0,0-1.9-1.24,8.69,8.69,0,0,0-2-.5c-.55-.05-.83-.14-.83-.25q0-2.4.5-2.48a63.43,63.43,0,0,0,6.69-1,64.74,64.74,0,0,0,6.53-1.49,4.75,4.75,0,0,0,.66-.17q.41,0,.66.58a1.52,1.52,0,0,1,.17.91,70.85,70.85,0,0,0-.66,7.1ZM436.3,50.13a5,5,0,0,1-1.49-3.63,5.08,5.08,0,0,1,5.12-5.08,5,5,0,0,1,3.64,1.49,4.89,4.89,0,0,1,1.49,3.59,5,5,0,0,1-1.49,3.63,5.09,5.09,0,0,1-7.27,0Z"/><path class="cls-1" d="M465.8,92c0,.17.14.3.41.41a1.88,1.88,0,0,0,.58.17h8q6.11,0,8.26-6.44.25-.82,1.45-.83a1.76,1.76,0,0,1,1.61.66l-1.49,10.49H456.54q-1.65-1-1.65-1.9a.48.48,0,0,1,.08-.33l19.08-28.83-8.76-.17a5.88,5.88,0,0,0-1.57.21,7.46,7.46,0,0,0-1.32.5,4.86,4.86,0,0,0-1.12.78,5.8,5.8,0,0,0-.83.91c-.19.28-.41.62-.66,1s-.43.73-.54,1-.25.52-.41.91a3.69,3.69,0,0,0-.25.66q-.25.5-2.07.5c-.61,0-.91-.05-.91-.17q0-.41.58-4.25t.74-6.32q4.87.5,7.85.5h10.08a86.24,86.24,0,0,0,10.41-.66,7.06,7.06,0,0,1,.17,2l-19,28.09A2.54,2.54,0,0,0,465.8,92Z"/><path class="cls-1" d="M505.29,84.71a30.36,30.36,0,0,0,.66,7.44q.16.58,2.23,1.2A12.15,12.15,0,0,0,511,94c.22,0,.34.4.37,1.2a4.66,4.66,0,0,1-.12,1.61q-.58-.08-4.42-.33t-5.66-.25q-2.07,0-5.82.25t-4.34.33a2.42,2.42,0,0,1-.33-1.57q0-1.24.33-1.24a12,12,0,0,0,3-.62q2.06-.62,2.23-1.2a27,27,0,0,0,.58-6V72.64q0-3.88-1.32-5.29a4.59,4.59,0,0,0-1.9-1.24,8.69,8.69,0,0,0-2-.5c-.55-.05-.83-.14-.83-.25q0-2.4.5-2.48a63.43,63.43,0,0,0,6.69-1,64.74,64.74,0,0,0,6.53-1.49,4.75,4.75,0,0,0,.66-.17q.41,0,.66.58a1.52,1.52,0,0,1,.17.91,70.85,70.85,0,0,0-.66,7.1Zm-8.59-34.57a5,5,0,0,1-1.49-3.63,5.08,5.08,0,0,1,5.12-5.08A5,5,0,0,1,504,42.9a4.89,4.89,0,0,1,1.49,3.59A5,5,0,0,1,504,50.13a5.09,5.09,0,0,1-7.27,0Z"/><path class="cls-1" d="M542.38,59.92Q553,59.92,553,76.86v7.85a34.6,34.6,0,0,0,.58,7.44q.16.58,2.27,1.2a12.65,12.65,0,0,0,2.85.62c.17,0,.26.4.29,1.2a4.66,4.66,0,0,1-.12,1.61q-.5-.08-4.34-.33t-5.74-.25q-2,0-5.49.25t-4.25.33a2.42,2.42,0,0,1-.33-1.57q0-1.24.33-1.24a9.82,9.82,0,0,0,2.77-.62q1.86-.62,2-1.2a23.72,23.72,0,0,0,.66-6V78.26q0-6.86-1.86-9.58T536.76,66a7.65,7.65,0,0,0-4.63,1.45,4,4,0,0,0-2,3.1V84.71a34.6,34.6,0,0,0,.58,7.44q.16.58,2.19,1.2a11.88,11.88,0,0,0,2.68.62c.22,0,.34.4.37,1.2a4.69,4.69,0,0,1-.12,1.61q-.66-.08-4.34-.33t-5.58-.25q-2,0-5.74.25t-4.42.33a2.42,2.42,0,0,1-.33-1.57q0-1.24.33-1.24a11.52,11.52,0,0,0,3-.62q2-.62,2.19-1.2a27,27,0,0,0,.58-6V72.64q0-3.88-1.32-5.29a4,4,0,0,0-1.86-1.24,9.41,9.41,0,0,0-2-.5c-.52-.05-.79-.14-.79-.25q0-2.4.41-2.48a117.21,117.21,0,0,0,13.3-2.48.54.54,0,0,1,.21-.12.79.79,0,0,1,.25,0H530c.22,0,.41.19.58.58a2.52,2.52,0,0,1,.25.91,28.23,28.23,0,0,0-.33,3,.65.65,0,0,0,.08.41,1.23,1.23,0,0,0,.41-.25,18.32,18.32,0,0,1,5.08-3.47A14.47,14.47,0,0,1,542.38,59.92Z"/><path class="cls-1" d="M579.39,60.09a26.17,26.17,0,0,1,6.86,1.07,25.47,25.47,0,0,0,6.61,1.07h4.71c.11,0,.3.36.58,1.07a5.07,5.07,0,0,1,.41,1.65q0,1.16-.5,1.16h-5.37c-.22,0-.33.08-.33.25s.25.77.74,2.15a11.69,11.69,0,0,1,.74,4,12,12,0,0,1-4.09,8.8,14.16,14.16,0,0,1-10.2,3.92,34.19,34.19,0,0,1-5.12-.33,4.43,4.43,0,0,0-1.82,1.53,3.52,3.52,0,0,0-.83,2,1.7,1.7,0,0,0,.79,1.4,5.54,5.54,0,0,0,2.44.83q1.65.25,2.81.33t3.3.17h1.24q8.26.25,12.1,2.27a6.5,6.5,0,0,1,3.84,6.07q.08,6.2-5.95,10.74a22.58,22.58,0,0,1-14,4.54,21.47,21.47,0,0,1-10.53-2.31q-4.5-2.4-4.5-6.77a6.43,6.43,0,0,1,2.35-4.63,13.67,13.67,0,0,1,5.08-3.14,9.43,9.43,0,0,1-4-2.52A6,6,0,0,1,565,91.07q0-3.55,6.11-7.35a10.94,10.94,0,0,1-4.46-4.25,12.15,12.15,0,0,1-2.07-6.73,11.15,11.15,0,0,1,4.3-9.25A16.42,16.42,0,0,1,579.39,60.09Zm11.4,43.21q0-2.89-4.17-3.84a52.46,52.46,0,0,0-11.19-1,1.35,1.35,0,0,0-.41.08,3.8,3.8,0,0,0-.41.25q-1.07.41-1.65.7a7.14,7.14,0,0,0-1.32.91,4,4,0,0,0-1.12,1.45,4.8,4.8,0,0,0-.37,2q0,3,3.14,5a12.87,12.87,0,0,0,7,2,12.48,12.48,0,0,0,7.56-2.15A6.44,6.44,0,0,0,590.79,103.29ZM573.11,72.07a13.07,13.07,0,0,0,1.65,6.82,5.13,5.13,0,0,0,4.63,2.77,4.9,4.9,0,0,0,4.5-2.35,10.94,10.94,0,0,0,1.45-5.82,13.58,13.58,0,0,0-1.65-7.1,5.28,5.28,0,0,0-4.79-2.73,4.66,4.66,0,0,0-4.38,2.56A12,12,0,0,0,573.11,72.07Z"/><path class="cls-1" d="M40.72,135a13,13,0,0,1,5.2-10.45,18.05,18.05,0,0,1,11.73-4.25,28.87,28.87,0,0,1,4,.25q1.73.25,4.83,1t4.25,1a73.77,73.77,0,0,1,1,12.72.9.9,0,0,1-1,.74q-2.23,0-2.4-.74a14.51,14.51,0,0,0-3.55-7.43,9.38,9.38,0,0,0-7.44-3.64,7.62,7.62,0,0,0-5.82,2.15,8.09,8.09,0,0,0-2,5.78,9.28,9.28,0,0,0,.29,2.35A5.8,5.8,0,0,0,51,136.69q.87,1.08,1.4,1.78a9.8,9.8,0,0,0,2.07,1.78q1.53,1.08,2.07,1.49T59,143.34a24.83,24.83,0,0,0,2.35,1.36,30.34,30.34,0,0,0,2.77,1.78q2.27,1.36,3.18,2T70,150.57a11.92,11.92,0,0,1,2.52,2.81,17,17,0,0,1,1.45,3.35,13.9,13.9,0,0,1,.66,4.34A13.42,13.42,0,0,1,69.26,172a19.11,19.11,0,0,1-12.35,4.3q-5,0-15.2-2.31a72.08,72.08,0,0,1-1.36-7.48,55.93,55.93,0,0,1-.62-5.91q.08-.66,1.32-.66,2.15,0,2.4.66a16.05,16.05,0,0,0,1.16,3.26,24.06,24.06,0,0,0,2.27,3.8,10.88,10.88,0,0,0,3.88,3.3,11.62,11.62,0,0,0,5.49,1.28,9.25,9.25,0,0,0,6.44-2.31q2.56-2.31,2.56-6.94a7.2,7.2,0,0,0-.54-2.73A9.59,9.59,0,0,0,63.48,158a12.07,12.07,0,0,0-2.07-2q-1.36-1.07-2.27-1.65t-2.69-1.61l-2.52-1.45a5.65,5.65,0,0,0-.91-.66q-2.4-1.49-3.63-2.31a39.94,39.94,0,0,1-3.18-2.44,16.38,16.38,0,0,1-2.93-3,15.64,15.64,0,0,1-1.78-3.47A12.44,12.44,0,0,1,40.72,135Z"/><path class="cls-1" d="M95.91,138.92a15.31,15.31,0,0,1,6.94,1.53,13.07,13.07,0,0,1,4.79,3.88,19.21,19.21,0,0,1,2.64,4.87,14.24,14.24,0,0,1,.91,4.83q0,1.82-.62,2.27a4.69,4.69,0,0,1-2.52.45H88.31q-.58,0-.58.5A16,16,0,0,0,88.8,163a11.35,11.35,0,0,0,3.68,4.87A9.72,9.72,0,0,0,98.72,170a22.65,22.65,0,0,0,2.4-.12,12.35,12.35,0,0,0,2.15-.41q1-.29,1.74-.54a7.11,7.11,0,0,0,1.53-.74l1.12-.7q.33-.21,1.65-1.12a1.36,1.36,0,0,1,.41.5,1.6,1.6,0,0,1,.25.83,2.54,2.54,0,0,1-.5,1.57,13.46,13.46,0,0,1-4.87,4.46,15.32,15.32,0,0,1-8.18,2.23A16.73,16.73,0,0,1,84,170.6a17.82,17.82,0,0,1-5.2-12.93q0-8.34,4.83-13.55A16,16,0,0,1,95.91,138.92Zm-.58,3.8a5.84,5.84,0,0,0-3.55,1.16,7.79,7.79,0,0,0-2.4,2.81,15.76,15.76,0,0,0-1.2,3.1,10.09,10.09,0,0,0-.37,2.44c0,.39.17.58.5.58h13.38q.74,0,.74-1.24a10.71,10.71,0,0,0-1.94-5.87A5.92,5.92,0,0,0,95.33,142.72Z"/><path class="cls-1" d="M142,138.92q10.66,0,10.66,16.94v7.85a34.6,34.6,0,0,0,.58,7.44q.16.58,2.27,1.2a12.65,12.65,0,0,0,2.85.62c.17,0,.26.4.29,1.2a4.66,4.66,0,0,1-.12,1.61q-.5-.08-4.34-.33t-5.74-.25q-2,0-5.49.25t-4.25.33a2.42,2.42,0,0,1-.33-1.57q0-1.24.33-1.24a9.82,9.82,0,0,0,2.77-.62q1.86-.62,2-1.2a23.72,23.72,0,0,0,.66-6v-7.85q0-6.86-1.86-9.58T136.39,145a7.65,7.65,0,0,0-4.63,1.45,4,4,0,0,0-2,3.1v14.21a34.6,34.6,0,0,0,.58,7.44q.16.58,2.19,1.2a11.88,11.88,0,0,0,2.68.62c.22,0,.34.4.37,1.2a4.69,4.69,0,0,1-.12,1.61q-.66-.08-4.34-.33t-5.58-.25q-2,0-5.74.25t-4.42.33a2.42,2.42,0,0,1-.33-1.57q0-1.24.33-1.24a11.52,11.52,0,0,0,3-.62q2-.62,2.19-1.2a27,27,0,0,0,.58-6V151.64q0-3.88-1.32-5.29a4,4,0,0,0-1.86-1.24,9.41,9.41,0,0,0-2-.5c-.52-.05-.79-.14-.79-.25q0-2.4.41-2.48a117.21,117.21,0,0,0,13.3-2.48.54.54,0,0,1,.21-.12.79.79,0,0,1,.25,0h.21c.22,0,.41.19.58.58a2.52,2.52,0,0,1,.25.91,28.23,28.23,0,0,0-.33,3,.65.65,0,0,0,.08.41,1.23,1.23,0,0,0,.41-.25,18.32,18.32,0,0,1,5.08-3.47A14.47,14.47,0,0,1,142,138.92Z"/><path class="cls-1" d="M168,144.71h-5q-.58,0-.58-2.15a2,2,0,0,1,.08-.74,23.12,23.12,0,0,0,6.36-4.38q1.07-1.07,2.35-2.44t3-3.51a5.89,5.89,0,0,1,1.57.21c.5.14.74.29.74.46v8.1l6,0,4.09,0q.66,0,.66.74a8,8,0,0,1-.83,3.63h-9.91v19.91a7.85,7.85,0,0,0,1.4,5,4.72,4.72,0,0,0,3.88,1.74,7.79,7.79,0,0,0,1.74-.21,8.75,8.75,0,0,0,1.49-.45c.38-.17.74-.33,1.07-.5a2.62,2.62,0,0,1,.58-.25q.33-.08.74.74t.33,1.07q-.5,1.16-3.51,2.68a13,13,0,0,1-5.91,1.53,10.42,10.42,0,0,1-7.31-2.77q-3-2.77-3-8.55Z"/><path class="cls-1" d="M206.86,163.71a30.36,30.36,0,0,0,.66,7.44q.16.58,2.23,1.2a12.15,12.15,0,0,0,2.81.62c.22,0,.34.4.37,1.2a4.66,4.66,0,0,1-.12,1.61q-.58-.08-4.42-.33t-5.66-.25q-2.07,0-5.82.25t-4.34.33a2.42,2.42,0,0,1-.33-1.57q0-1.24.33-1.24a12,12,0,0,0,3-.62q2.06-.62,2.23-1.2a27,27,0,0,0,.58-6V151.64q0-3.88-1.32-5.29a4.59,4.59,0,0,0-1.9-1.24,8.69,8.69,0,0,0-2-.5c-.55-.05-.83-.14-.83-.25q0-2.4.5-2.48a63.43,63.43,0,0,0,6.69-1,64.74,64.74,0,0,0,6.53-1.49,4.75,4.75,0,0,0,.66-.17q.41,0,.66.58a1.52,1.52,0,0,1,.17.91,70.85,70.85,0,0,0-.66,7.1Zm-8.59-34.57a5,5,0,0,1-1.49-3.63,5.08,5.08,0,0,1,5.12-5.08,5,5,0,0,1,3.64,1.49A4.89,4.89,0,0,1,207,125.5a5,5,0,0,1-1.49,3.63,5.09,5.09,0,0,1-7.27,0Z"/><path class="cls-1" d="M244,138.92a8.93,8.93,0,0,1,5.37,1.61,9.66,9.66,0,0,1,3.3,4.17,19.48,19.48,0,0,1,6-4.13,18.55,18.55,0,0,1,7.77-1.65,9.38,9.38,0,0,1,5.08,1.32,9.12,9.12,0,0,1,3.3,3.68,19.41,19.41,0,0,1,1.73,5.12,31.5,31.5,0,0,1,.54,6v8.67a34.6,34.6,0,0,0,.58,7.44q.17.58,2.23,1.2a12.15,12.15,0,0,0,2.81.62c.17,0,.26.4.29,1.2a4.69,4.69,0,0,1-.12,1.61q-.58-.08-4.34-.33t-5.66-.25q-2,0-5.66.25t-4.42.33a3.08,3.08,0,0,1-.25-1.57q0-1.24.25-1.24a11.08,11.08,0,0,0,3-.62q2-.62,2.15-1.2a25.69,25.69,0,0,0,.58-5.78v-8.43q0-12-7.68-12a7.52,7.52,0,0,0-4.54,1.32,5.16,5.16,0,0,0-2.15,2.56q0,.25,0,.66a1.63,1.63,0,0,0,0,.66,40.21,40.21,0,0,1,.25,5.12V164a32.5,32.5,0,0,0,.58,7.1q.17.58,2.23,1.2A12.15,12.15,0,0,0,260,173c.17,0,.26.4.29,1.2a4.69,4.69,0,0,1-.12,1.61q-.58-.08-4.34-.33t-5.66-.25q-2,0-5.66.25t-4.42.33a3.08,3.08,0,0,1-.25-1.57q0-1.24.25-1.24a11.08,11.08,0,0,0,3-.62q2-.62,2.15-1.2a27,27,0,0,0,.58-6v-7.93q0-6.44-1.9-9.33a6.29,6.29,0,0,0-5.62-2.89,7.91,7.91,0,0,0-4.54,1.4,3.9,3.9,0,0,0-2.07,3.14v14.21a30.36,30.36,0,0,0,.66,7.44q.16.58,2.15,1.2a11.22,11.22,0,0,0,2.73.62c.22,0,.34.4.37,1.2a4.69,4.69,0,0,1-.12,1.61q-.66-.08-4.34-.33t-5.58-.25q-2.07,0-5.78.25t-4.38.33a2.42,2.42,0,0,1-.33-1.57q0-1.24.33-1.24a12,12,0,0,0,3-.62q2.06-.62,2.23-1.2a27,27,0,0,0,.58-6V151.64q0-3.88-1.32-5.29a4,4,0,0,0-1.86-1.24,9.31,9.31,0,0,0-2-.5c-.55-.05-.83-.14-.83-.25q0-2.4.5-2.48a114.56,114.56,0,0,0,13.22-2.48.54.54,0,0,1,.25-.12,1.75,1.75,0,0,1,.41,0q.41,0,.66.58a1.52,1.52,0,0,1,.17.91,28.12,28.12,0,0,0-.33,3c0,.22.05.36.17.41a1.23,1.23,0,0,0,.41-.25,18.32,18.32,0,0,1,5.08-3.47A14.47,14.47,0,0,1,244,138.92Z"/><path class="cls-1" d="M303.6,138.92a15.31,15.31,0,0,1,6.94,1.53,13.07,13.07,0,0,1,4.79,3.88,19.21,19.21,0,0,1,2.64,4.87,14.24,14.24,0,0,1,.91,4.83q0,1.82-.62,2.27a4.69,4.69,0,0,1-2.52.45H296q-.58,0-.58.5a16,16,0,0,0,1.07,5.78,11.35,11.35,0,0,0,3.68,4.87,9.72,9.72,0,0,0,6.24,2.07,22.65,22.65,0,0,0,2.4-.12,12.35,12.35,0,0,0,2.15-.41q1-.29,1.74-.54a7.11,7.11,0,0,0,1.53-.74l1.12-.7q.33-.21,1.65-1.12a1.36,1.36,0,0,1,.41.5,1.6,1.6,0,0,1,.25.83,2.54,2.54,0,0,1-.5,1.57,13.46,13.46,0,0,1-4.87,4.46,15.32,15.32,0,0,1-8.18,2.23,16.73,16.73,0,0,1-12.39-5.33,17.82,17.82,0,0,1-5.2-12.93q0-8.34,4.83-13.55A16,16,0,0,1,303.6,138.92Zm-.58,3.8a5.84,5.84,0,0,0-3.55,1.16,7.79,7.79,0,0,0-2.4,2.81,15.76,15.76,0,0,0-1.2,3.1,10.09,10.09,0,0,0-.37,2.44c0,.39.17.58.5.58h13.38q.74,0,.74-1.24a10.71,10.71,0,0,0-1.94-5.87A5.92,5.92,0,0,0,303,142.72Z"/><path class="cls-1" d="M349.7,138.92q10.66,0,10.66,16.94v7.85a34.6,34.6,0,0,0,.58,7.44q.16.58,2.27,1.2a12.65,12.65,0,0,0,2.85.62c.17,0,.26.4.29,1.2a4.66,4.66,0,0,1-.12,1.61q-.5-.08-4.34-.33t-5.74-.25q-2,0-5.49.25t-4.25.33a2.42,2.42,0,0,1-.33-1.57q0-1.24.33-1.24a9.82,9.82,0,0,0,2.77-.62q1.86-.62,2-1.2a23.72,23.72,0,0,0,.66-6v-7.85q0-6.86-1.86-9.58T344.08,145a7.65,7.65,0,0,0-4.63,1.45,4,4,0,0,0-2,3.1v14.21a34.6,34.6,0,0,0,.58,7.44q.16.58,2.19,1.2a11.88,11.88,0,0,0,2.68.62c.22,0,.34.4.37,1.2a4.69,4.69,0,0,1-.12,1.61q-.66-.08-4.34-.33t-5.58-.25q-2,0-5.74.25t-4.42.33a2.42,2.42,0,0,1-.33-1.57q0-1.24.33-1.24a11.52,11.52,0,0,0,3-.62q2-.62,2.19-1.2a27,27,0,0,0,.58-6V151.64q0-3.88-1.32-5.29a4,4,0,0,0-1.86-1.24,9.41,9.41,0,0,0-2-.5c-.52-.05-.79-.14-.79-.25q0-2.4.41-2.48a117.21,117.21,0,0,0,13.3-2.48.54.54,0,0,1,.21-.12.79.79,0,0,1,.25,0h.21c.22,0,.41.19.58.58a2.52,2.52,0,0,1,.25.91,28.23,28.23,0,0,0-.33,3,.65.65,0,0,0,.08.41,1.23,1.23,0,0,0,.41-.25,18.32,18.32,0,0,1,5.08-3.47A14.47,14.47,0,0,1,349.7,138.92Z"/><path class="cls-1" d="M375.72,144.71h-5q-.58,0-.58-2.15a2,2,0,0,1,.08-.74,23.12,23.12,0,0,0,6.36-4.38q1.07-1.07,2.35-2.44t3-3.51a5.89,5.89,0,0,1,1.57.21c.5.14.74.29.74.46v8.1l6,0,4.09,0q.66,0,.66.74a8,8,0,0,1-.83,3.63h-9.91v19.91a7.85,7.85,0,0,0,1.4,5,4.72,4.72,0,0,0,3.88,1.74,7.79,7.79,0,0,0,1.74-.21,8.75,8.75,0,0,0,1.49-.45c.38-.17.74-.33,1.07-.5a2.62,2.62,0,0,1,.58-.25q.33-.08.74.74t.33,1.07Q395,173,392,174.49A13,13,0,0,1,386,176a10.42,10.42,0,0,1-7.31-2.77q-3-2.77-3-8.55Z"/><path class="cls-1" d="M413.31,138.84a35.13,35.13,0,0,1,9.58,1.4,46.85,46.85,0,0,1,.91,9.25q0,.66-1.07.66-1.82,0-2-.66a10,10,0,0,0-2.44-4.92,6.46,6.46,0,0,0-5-2,5.93,5.93,0,0,0-3.76,1.07,3.67,3.67,0,0,0-1.36,3.06,4.8,4.8,0,0,0,.46,2.11,5.15,5.15,0,0,0,1.49,1.78,20.51,20.51,0,0,0,1.82,1.32q.79.5,2.35,1.32a5.4,5.4,0,0,0,.83.41l1.24.66,1.36.74,1.32.78a15.13,15.13,0,0,1,1.45,1l1.28,1a6.46,6.46,0,0,1,1.24,1.16l1,1.28a5.33,5.33,0,0,1,.87,1.49,15.68,15.68,0,0,1,.45,1.57,7.7,7.7,0,0,1,.21,1.78,9.74,9.74,0,0,1-4,8.22,15.67,15.67,0,0,1-9.71,3A27.58,27.58,0,0,1,401.16,174a32.94,32.94,0,0,1-.83-4.58,40.35,40.35,0,0,1-.41-4.75,1.75,1.75,0,0,1,1.16-.41q1.9,0,2,.66a9.12,9.12,0,0,0,3.26,5.58,8.81,8.81,0,0,0,5.66,2.11,6,6,0,0,0,3.8-1.16,4,4,0,0,0,1.49-3.39,5.4,5.4,0,0,0-.21-1.53,4,4,0,0,0-.78-1.4l-1-1.16a6,6,0,0,0-1.49-1.12q-1.11-.66-1.65-1l-2.07-1.07q-1.53-.78-2.11-1.12a19.2,19.2,0,0,1-5.87-4.42,9.54,9.54,0,0,1,1.9-13.67A15.92,15.92,0,0,1,413.31,138.84Z"/><path class="cls-1" d="M18.18,16.26h2.87v1.57H13.42V16.26h2.85V7.06L14,8.44,13.18,7l3.63-2.24h1.37Z"/><rect class="cls-2" x="311.23" y="97.03" width="168.5" height="27.26" rx="13.63" ry="13.63" transform="translate(26.92 -70.48) rotate(10.54)"/><path class="cls-1" d="M462.32,137.47,323.47,111.64a14.13,14.13,0,0,1,5.17-27.78l138.85,25.84a14.13,14.13,0,1,1-5.17,27.78ZM328.45,84.84a13.13,13.13,0,0,0-4.8,25.82L462.5,136.49a13.13,13.13,0,1,0,4.8-25.82Z"/><path class="cls-1" d="M341.86,94.18,341,99,346.46,95l2.91.54-6.12,4.29,4.29,7.43-2.75-.51-3.23-5.71-1.13.79-.74,4-2.14-.4,2.17-11.66Z"/><path class="cls-1" d="M351.29,96a1.23,1.23,0,0,1,.51-.84,1.6,1.6,0,0,1,1.93.36,1.37,1.37,0,0,1-.34,1.81,1.6,1.6,0,0,1-1.93-.36A1.23,1.23,0,0,1,351.29,96ZM351,98.9l2.12.39L351.52,108l-2.12-.39Z"/><path class="cls-1" d="M364.1,103.06a3,3,0,0,1,3.32-1.34,3,3,0,0,1,2.23,1.51,4.37,4.37,0,0,1,.31,3l-.95,5.1-2.14-.4.95-5.1a2.09,2.09,0,0,0-.2-1.55,1.75,1.75,0,0,0-1.22-.74,1.67,1.67,0,0,0-1.52.48,4,4,0,0,0-1,2.12l-.76,4.1-2.12-.39.95-5.1a2.09,2.09,0,0,0-.19-1.55,1.75,1.75,0,0,0-1.22-.74,1.83,1.83,0,0,0-1.59.49,3.8,3.8,0,0,0-1.06,2.15l-.75,4-2.12-.39,1.62-8.73,1.85.34,0,1.55a2.94,2.94,0,0,1,3.09-1.23,3.19,3.19,0,0,1,1.73.84A3.08,3.08,0,0,1,364.1,103.06Z"/><path class="cls-1" d="M374.06,100.28a1.23,1.23,0,0,1,.51-.84,1.6,1.6,0,0,1,1.93.36,1.37,1.37,0,0,1-.34,1.81,1.6,1.6,0,0,1-1.93-.36A1.23,1.23,0,0,1,374.06,100.28Zm-.27,2.85,2.12.39-1.63,8.75-2.12-.39Z"/><path class="cls-1" d="M386.53,102.49l-.91,4.87,5.09.95.91-4.87,2.12.39-2.17,11.66-2.12-.39.92-4.94-5.09-.95-.92,4.94-2.12-.39,2.17-11.66Z"/><path class="cls-1" d="M398.66,111.54a10.27,10.27,0,0,1,2.34.79l.16-.86a2.12,2.12,0,0,0-.12-1.43,1.51,1.51,0,0,0-1.12-.66,2.17,2.17,0,0,0-1.35.09,1.12,1.12,0,0,0-.62.86l-2.32-.43a2.4,2.4,0,0,1,1.45-2,5.58,5.58,0,0,1,3.06-.12q2.7.5,3.14,2.54a4,4,0,0,1,0,1.58l-1,5.55-1.85-.34.06-1.2a2.86,2.86,0,0,1-2.85.94,3.89,3.89,0,0,1-2.47-1.31,2.65,2.65,0,0,1-.49-2.16,2.17,2.17,0,0,1,1.3-1.69A4.61,4.61,0,0,1,398.66,111.54Zm2.09,2.14a7.72,7.72,0,0,0-1.92-.66q-1.73-.32-1.94.83a1.1,1.1,0,0,0,.24.91,1.91,1.91,0,0,0,1.2.59,2,2,0,0,0,1.55-.32A2.19,2.19,0,0,0,400.76,113.67Z"/><path class="cls-1" d="M408.67,111.2a3.23,3.23,0,0,1,5.33.29,4.55,4.55,0,0,1,.3,3l-.95,5.1-2.12-.39.95-5.1a2.09,2.09,0,0,0-.19-1.55,1.75,1.75,0,0,0-1.22-.74,1.83,1.83,0,0,0-1.59.49,3.8,3.8,0,0,0-1.06,2.15l-.75,4-2.12-.39,1.62-8.73,1.85.34Z"/><path class="cls-1" d="M420.17,115.54a10.27,10.27,0,0,1,2.34.79l.16-.86a2.12,2.12,0,0,0-.12-1.43,1.51,1.51,0,0,0-1.12-.66,2.17,2.17,0,0,0-1.35.09,1.12,1.12,0,0,0-.62.86l-2.32-.43a2.4,2.4,0,0,1,1.45-2,5.58,5.58,0,0,1,3.06-.12q2.7.5,3.14,2.54a4,4,0,0,1,0,1.58l-1,5.55-1.85-.34.06-1.2a2.86,2.86,0,0,1-2.85.94,3.89,3.89,0,0,1-2.47-1.31,2.65,2.65,0,0,1-.49-2.16,2.17,2.17,0,0,1,1.3-1.69A4.61,4.61,0,0,1,420.17,115.54Zm2.09,2.14a7.72,7.72,0,0,0-1.92-.66q-1.73-.32-1.94.83a1.1,1.1,0,0,0,.24.91,1.91,1.91,0,0,0,1.2.59,2,2,0,0,0,1.55-.32A2.19,2.19,0,0,0,422.26,117.67Z"/><path class="cls-1" d="M432.85,121.54a2.81,2.81,0,0,1-3,1.25,3,3,0,0,1-2.72-2.38,3.94,3.94,0,0,1,0-1.58l1-5.57,2.12.39-1,5.35a1.8,1.8,0,0,0,.17,1.36,1.39,1.39,0,0,0,.94.61,2.71,2.71,0,0,0,1,0,2,2,0,0,0,.81-.38,3.26,3.26,0,0,0,1.09-1.94l.8-4.31,2.12.39-1.63,8.75-2.12-.39Z"/><path class="cls-1" d="M445.87,119a5,5,0,0,1,0,1.43,8.18,8.18,0,0,1-.28,1.12l-5.64-1a3.09,3.09,0,0,0,.2,1.82,1.73,1.73,0,0,0,1.35.94,1.43,1.43,0,0,0,1.78-.86l2.14.4a3.19,3.19,0,0,1-1.59,1.84,4,4,0,0,1-2.64.33,3.85,3.85,0,0,1-2.66-1.8,4.86,4.86,0,0,1-.58-3.58,4.8,4.8,0,0,1,1.83-3.15,3.87,3.87,0,0,1,3.12-.68,3.45,3.45,0,0,1,2.58,1.8A4,4,0,0,1,445.87,119Zm-3.31-1.56a1.78,1.78,0,0,0-1.51.32,2.68,2.68,0,0,0-.87,1.39l3.72.69a2,2,0,0,0-.54-2.07A1.79,1.79,0,0,0,442.57,117.46Z"/><path class="cls-1" d="M450.78,119.26a2.61,2.61,0,0,1,2.72-1.45,3.16,3.16,0,0,1,.75.27l-.43,2.11a4.79,4.79,0,0,0-1-.29q-2.12-.39-2.67,2.53l-.71,3.83-2.12-.39,1.63-8.75,2.12.39Z"/></svg>