<svg id="Layer_1" data-name="Layer 1" xmlns="http://www.w3.org/2000/svg" viewBox="0 0 892.57 79.7"><defs><style>.cls-1{fill:#fff;stroke-width:1.2px;}.cls-1,.cls-3{stroke:#1414ef;stroke-miterlimit:10;}.cls-2{fill:#1414ef;}.cls-3{fill:#feea80;}</style></defs><title>title</title><path class="cls-1" d="M52.24,4.42q.41,0,8.1-.5.74,2.31,3.39,8.55t6.49,15.2q3.84,9,6.15,14.75c0,.11.08.17.25.17a.22.22,0,0,0,.25-.25q7.27-17.43,11.57-28.67l3-9.58q2.48.25,6.77.25,3.22,0,9.83-.41a2.4,2.4,0,0,1,.25,1.32q0,1.4-.33,1.4h-.17a6.72,6.72,0,0,0-4,1.32q-1.24.91-1.07,4.46.33,7.35,1.16,34.12a21.83,21.83,0,0,0,1.32,7.6q.33.74,2.31,1.36a11.1,11.1,0,0,0,2.81.62q.33,0,.33,1.49a4,4,0,0,1-.17,1.24l-10.16-.5q-1.65,0-3.47.08l-4,.21-3.51.21a1.76,1.76,0,0,1-.33-1.24q0-1.49.33-1.49a9.76,9.76,0,0,0,2.64-.54,5.18,5.18,0,0,0,2.31-1.2A4.63,4.63,0,0,0,95,51.51V46.88l-.83-25.11q-.33-5.12-1-5.12-.25,0-.41.5L77,55.64q-1.41,3.14-3.14,3.14a2.74,2.74,0,0,1-.83-.17L54.56,14.17Q54,34.74,53.23,51a9.11,9.11,0,0,0,.25,2.56q.41.91,3.3,1.73a17.84,17.84,0,0,0,3.88.83q.33,0,.33,1.49a4,4,0,0,1-.17,1.24q-9.91-.5-10.41-.5-2.23,0-5.91.25t-4.5.25a1.91,1.91,0,0,1-.33-1.32q0-1.4.33-1.4a16.52,16.52,0,0,0,4.13-.83q2.81-.82,3.22-2.15a15.37,15.37,0,0,0,.91-5.54q.16-6.28.45-14.83t.5-14.58q.21-6,.21-7.52a7.9,7.9,0,0,0-.25-2.31q-.25-.66-2.77-1.24a18.71,18.71,0,0,0-3.59-.58c-.22,0-.33-.47-.33-1.4a1.76,1.76,0,0,1,.33-1.24l4.25.29Q50.09,4.42,52.24,4.42Z"/><path class="cls-1" d="M132.54,22.1q5.12,0,7.68,2.69T142.79,34V50.27a3.77,3.77,0,0,0,.74,2.52,2.48,2.48,0,0,0,2,.87,5.15,5.15,0,0,0,2.81-1.07c.33.11.5.41.5.91a4.91,4.91,0,0,1-.5,2.48A20.44,20.44,0,0,1,145,58a8.61,8.61,0,0,1-4,1.07,6,6,0,0,1-3.72-1.41,6.77,6.77,0,0,1-2.4-3.06l-.62.54q-.54.46-1.49,1.12a24.47,24.47,0,0,1-2.15,1.32,13.18,13.18,0,0,1-2.81,1.12,12,12,0,0,1-3.26.45,9.86,9.86,0,0,1-6.73-2.27,7.85,7.85,0,0,1-2.6-6.24,7.61,7.61,0,0,1,.95-3.72,9.88,9.88,0,0,1,2.27-2.85,16.92,16.92,0,0,1,3.55-2.19,33.8,33.8,0,0,1,3.84-1.61Q127.5,39.78,130,39T133.53,38a1.3,1.3,0,0,0,.74-1.32V32.1A7.09,7.09,0,0,0,133,27.55a4.31,4.31,0,0,0-3.55-1.65,5,5,0,0,0-3.88,1.53,6.18,6.18,0,0,0-1.4,4.34,2.68,2.68,0,0,1-1.24,2.44,5.14,5.14,0,0,1-2.81.78q-3.06,0-4.3-2,0-4,5.41-7.43A20.72,20.72,0,0,1,132.54,22.1Zm-3.72,31.72a6.4,6.4,0,0,0,3.84-1.16A3.27,3.27,0,0,0,134.28,50V41.6q-.58.25-2.44.83t-2.85,1a22.54,22.54,0,0,0-2.31,1.16,5,5,0,0,0-1.94,1.82,4.55,4.55,0,0,0-.62,2.31,5.09,5.09,0,0,0,1.32,3.88A4.75,4.75,0,0,0,128.83,53.82Z"/><path class="cls-1" d="M187.07,27.64q-1.65,1-5.25,3.72a58.37,58.37,0,0,0-6.57,5.78q2.4,2.56,6,6.69t6,6.77a39.67,39.67,0,0,0,3.3,3.39,10.45,10.45,0,0,0,3.18,1.65,10,10,0,0,0,2.77.66q.33,0,.33,1.4a4.85,4.85,0,0,1-.08,1.16q-9.09-.41-9.67-.41-1.57,0-3.18.08l-3.55.21-3.1.21a2.24,2.24,0,0,1-.33-1.49c0-.77.11-1.16.33-1.16a5.94,5.94,0,0,0,1.9-.37q1.07-.37,1.07-.79c0-.11,0-.17-.08-.17L168.15,41.52l-1,.25v5.12a33.78,33.78,0,0,0,.66,7.44q.16.58,2.23,1.2a12,12,0,0,0,2.89.62c.17,0,.26.4.29,1.2a4.68,4.68,0,0,1-.12,1.61q-.58-.08-4.38-.33t-5.7-.25q-2,0-5.74.25t-4.42.33a2.42,2.42,0,0,1-.33-1.57q0-1.24.33-1.24a11.52,11.52,0,0,0,3-.62q2-.62,2.19-1.2a27,27,0,0,0,.58-6V14a32.61,32.61,0,0,0-.41-5.62q-.41-1.32-4.3-1.32h-.74q-.5,0-.5-1.32t.5-1.32q2.56-.25,4.87-.66t3.84-.83q1.53-.41,2.64-.83t2.35-.83h.17a.89.89,0,0,1,.66.46,2.27,2.27,0,0,1,.41.87,26.62,26.62,0,0,0-1,7.77V38a7.47,7.47,0,0,0,2.48-.91q1.73-1.57,3.76-3.26l2.93-2.44q.91-.74,1.82-1.61a7.33,7.33,0,0,0,1.2-1.36,2,2,0,0,0,.29-1q0-.91-1.86-1.12a8.27,8.27,0,0,1-1.86-.29,3.69,3.69,0,0,1-.25-1.45q0-.87.33-1h8q2.23,0,8.76-.33a1.29,1.29,0,0,1,.41.91,3.72,3.72,0,0,1,0,1.24c-.08.39-.21.58-.37.58A10.85,10.85,0,0,0,187.07,27.64Z"/><path class="cls-1" d="M216.48,46.88a30.37,30.37,0,0,0,.66,7.44q.16.58,2.23,1.2a12.15,12.15,0,0,0,2.81.62c.22,0,.34.4.37,1.2a4.69,4.69,0,0,1-.12,1.61q-.58-.08-4.42-.33t-5.66-.25q-2.07,0-5.82.25t-4.34.33a2.42,2.42,0,0,1-.33-1.57q0-1.24.33-1.24a12,12,0,0,0,3-.62q2.06-.62,2.23-1.2a27,27,0,0,0,.58-6V34.82q0-3.88-1.32-5.29a4.59,4.59,0,0,0-1.9-1.24,8.68,8.68,0,0,0-2-.5c-.55-.05-.83-.14-.83-.25q0-2.4.5-2.48a63.43,63.43,0,0,0,6.69-1,64.79,64.79,0,0,0,6.53-1.49,4.78,4.78,0,0,0,.66-.17q.41,0,.66.58a1.52,1.52,0,0,1,.17.91,70.82,70.82,0,0,0-.66,7.1Zm-8.59-34.57a5,5,0,0,1-1.49-3.63,4.89,4.89,0,0,1,1.49-3.59,5.12,5.12,0,0,1,8.76,3.59,5,5,0,0,1-1.49,3.63,5.09,5.09,0,0,1-7.27,0Z"/><path class="cls-1" d="M253.57,22.1q10.66,0,10.66,16.94v7.85a34.58,34.58,0,0,0,.58,7.44q.16.58,2.27,1.2a12.65,12.65,0,0,0,2.85.62c.17,0,.26.4.29,1.2a4.68,4.68,0,0,1-.12,1.61q-.5-.08-4.34-.33T260,58.37q-2,0-5.49.25t-4.25.33a2.42,2.42,0,0,1-.33-1.57q0-1.24.33-1.24a9.82,9.82,0,0,0,2.77-.62q1.86-.62,2-1.2a23.73,23.73,0,0,0,.66-6V40.44q0-6.86-1.86-9.58T248,28.13a7.65,7.65,0,0,0-4.63,1.45,4,4,0,0,0-2,3.1V46.88a34.58,34.58,0,0,0,.58,7.44q.16.58,2.19,1.2a11.88,11.88,0,0,0,2.69.62c.22,0,.34.4.37,1.2a4.69,4.69,0,0,1-.12,1.61q-.66-.08-4.34-.33t-5.58-.25q-2,0-5.74.25t-4.42.33a2.42,2.42,0,0,1-.33-1.57q0-1.24.33-1.24a11.52,11.52,0,0,0,3-.62q2-.62,2.19-1.2a27,27,0,0,0,.58-6V34.82q0-3.88-1.32-5.29a4,4,0,0,0-1.86-1.24,9.41,9.41,0,0,0-2-.5c-.52-.05-.78-.14-.78-.25q0-2.4.41-2.48a117.19,117.19,0,0,0,13.3-2.48.54.54,0,0,1,.21-.12.79.79,0,0,1,.25,0h.21c.22,0,.41.19.58.58a2.51,2.51,0,0,1,.25.91,28.15,28.15,0,0,0-.33,3,.65.65,0,0,0,.08.41,1.23,1.23,0,0,0,.41-.25,18.32,18.32,0,0,1,5.08-3.47A14.46,14.46,0,0,1,253.57,22.1Z"/><path class="cls-1" d="M290.58,22.27a26.18,26.18,0,0,1,6.86,1.07A25.46,25.46,0,0,0,304,24.41h4.71c.11,0,.3.36.58,1.07a5.08,5.08,0,0,1,.41,1.65q0,1.16-.5,1.16h-5.37c-.22,0-.33.08-.33.25s.25.77.74,2.15a11.7,11.7,0,0,1,.74,4,12,12,0,0,1-4.09,8.8,14.15,14.15,0,0,1-10.2,3.92,34.18,34.18,0,0,1-5.12-.33,4.43,4.43,0,0,0-1.82,1.53,3.52,3.52,0,0,0-.83,2,1.7,1.7,0,0,0,.78,1.4,5.54,5.54,0,0,0,2.44.83q1.65.25,2.81.33t3.3.17h1.24q8.26.25,12.1,2.27a6.5,6.5,0,0,1,3.84,6.07q.08,6.2-5.95,10.74a22.57,22.57,0,0,1-14,4.54,21.47,21.47,0,0,1-10.53-2.31q-4.5-2.4-4.5-6.77a6.43,6.43,0,0,1,2.35-4.63A13.67,13.67,0,0,1,282,60.1a9.43,9.43,0,0,1-4-2.52,6,6,0,0,1-1.82-4.34q0-3.55,6.11-7.35a10.94,10.94,0,0,1-4.46-4.25,12.15,12.15,0,0,1-2.07-6.73,11.15,11.15,0,0,1,4.3-9.25A16.42,16.42,0,0,1,290.58,22.27ZM302,65.47q0-2.89-4.17-3.84a52.47,52.47,0,0,0-11.19-1,1.34,1.34,0,0,0-.41.08,3.67,3.67,0,0,0-.41.25q-1.07.41-1.65.7a7.12,7.12,0,0,0-1.32.91,4,4,0,0,0-1.12,1.45,4.8,4.8,0,0,0-.37,2q0,3,3.14,5a12.87,12.87,0,0,0,7,2,12.48,12.48,0,0,0,7.56-2.15A6.44,6.44,0,0,0,302,65.47ZM284.3,34.25A13.07,13.07,0,0,0,286,41.06a5.13,5.13,0,0,0,4.63,2.77,4.91,4.91,0,0,0,4.5-2.35,11,11,0,0,0,1.45-5.82,13.57,13.57,0,0,0-1.65-7.1,5.28,5.28,0,0,0-4.79-2.73,4.66,4.66,0,0,0-4.38,2.56A12,12,0,0,0,284.3,34.25Z"/><path class="cls-1" d="M379.89,43.58a46.19,46.19,0,0,1-1.24,6.4q-1.24,5.33-1.9,5.66-7.19,3.47-19.17,3.47a24.8,24.8,0,0,1-18.59-8A26.62,26.62,0,0,1,331.31,32a28.4,28.4,0,0,1,7.85-20.12,25.43,25.43,0,0,1,19.33-8.39A91,91,0,0,1,378,5.74q.25.08.5,5.41t.25,6.65q0,1.24-2,1.24a2.65,2.65,0,0,1-1.16-.33,11.53,11.53,0,0,0-1.2-3.06,21.16,21.16,0,0,0-2.6-3.55,12.58,12.58,0,0,0-5.12-3.26,22.13,22.13,0,0,0-7.85-1.28,14.34,14.34,0,0,0-12.6,6.69,28,28,0,0,0-4.5,16q0,10.41,5.08,17.64t14.33,7.23q7.35,0,11.65-4.63a11.33,11.33,0,0,0,1.94-3.1q.87-1.94,1.32-3.26t.62-1.32Q379.56,42.84,379.89,43.58Z"/><path class="cls-1" d="M401.62,22.1q5.12,0,7.68,2.69T411.86,34V50.27a3.77,3.77,0,0,0,.74,2.52,2.48,2.48,0,0,0,2,.87,5.15,5.15,0,0,0,2.81-1.07c.33.11.5.41.5.91a4.91,4.91,0,0,1-.5,2.48,20.44,20.44,0,0,1-3.3,2.07,8.61,8.61,0,0,1-4,1.07,6,6,0,0,1-3.72-1.41,6.77,6.77,0,0,1-2.4-3.06l-.62.54q-.54.46-1.49,1.12a24.47,24.47,0,0,1-2.15,1.32,13.18,13.18,0,0,1-2.81,1.12,12,12,0,0,1-3.26.45A9.86,9.86,0,0,1,387,56.92a7.85,7.85,0,0,1-2.6-6.24A7.61,7.61,0,0,1,385.3,47a9.88,9.88,0,0,1,2.27-2.85,16.92,16.92,0,0,1,3.55-2.19A33.8,33.8,0,0,1,395,40.32q1.61-.54,4.13-1.28T402.61,38a1.3,1.3,0,0,0,.74-1.32V32.1A7.09,7.09,0,0,0,402,27.55a4.31,4.31,0,0,0-3.55-1.65,5,5,0,0,0-3.88,1.53,6.18,6.18,0,0,0-1.4,4.34,2.68,2.68,0,0,1-1.24,2.44,5.14,5.14,0,0,1-2.81.78q-3.06,0-4.3-2,0-4,5.41-7.43A20.72,20.72,0,0,1,401.62,22.1ZM397.9,53.82a6.4,6.4,0,0,0,3.84-1.16A3.27,3.27,0,0,0,403.35,50V41.6q-.58.25-2.44.83t-2.85,1a22.54,22.54,0,0,0-2.31,1.16,5,5,0,0,0-1.94,1.82,4.55,4.55,0,0,0-.62,2.31,5.09,5.09,0,0,0,1.32,3.88A4.75,4.75,0,0,0,397.9,53.82Z"/><path class="cls-1" d="M445.15,1.2a16.27,16.27,0,0,1,5.74.87,5.77,5.77,0,0,1,3,2.11,9.27,9.27,0,0,1-.45,4.58,3,3,0,0,1-3,2,3.22,3.22,0,0,1-2.52-1.36q-1.12-1.36-2.35-2.73a3.8,3.8,0,0,0-2.89-1.36A4.4,4.4,0,0,0,439,7.48a13.9,13.9,0,0,0-2.11,5.21,33.72,33.72,0,0,0-.62,6.69v3.8c0,.06.05.14.17.25a.47.47,0,0,0,.33.17h9.09a.66.66,0,0,1,.41.08.87.87,0,0,1,.08.5,8.5,8.5,0,0,1-1,3.8h-8.59a.44.44,0,0,0-.5.5V46.88a31.59,31.59,0,0,0,.66,7.44q.16.58,2.19,1.2a11.67,11.67,0,0,0,2.77.62c.17,0,.26.4.29,1.2a4.68,4.68,0,0,1-.12,1.61q-.5-.08-4.3-.33t-5.78-.25q-2,0-5.62.25t-4.3.33a1.56,1.56,0,0,1-.33-.91,4.93,4.93,0,0,1,0-1.28c.05-.41.17-.62.33-.62a11.07,11.07,0,0,0,2.89-.62q2-.62,2.15-1.2a27.39,27.39,0,0,0,.74-6.77v-19c0-.38-.17-.58-.5-.58h-5c-.11,0-.17-.17-.17-.5a4.41,4.41,0,0,1,1.16-2.4A3.32,3.32,0,0,1,426,23.59h1.32a.44.44,0,0,0,.5-.5v-.83A22.47,22.47,0,0,1,433,7.4Q438.13,1.2,445.15,1.2Z"/><path class="cls-1" d="M467.38,22.1a15.32,15.32,0,0,1,6.94,1.53,13.07,13.07,0,0,1,4.79,3.88,19.21,19.21,0,0,1,2.64,4.87,14.24,14.24,0,0,1,.91,4.83q0,1.82-.62,2.27a4.69,4.69,0,0,1-2.52.45H459.78q-.58,0-.58.5a16.06,16.06,0,0,0,1.07,5.78,11.36,11.36,0,0,0,3.68,4.87,9.72,9.72,0,0,0,6.24,2.07,22.66,22.66,0,0,0,2.4-.12,12.37,12.37,0,0,0,2.15-.41q1-.29,1.73-.54a7.09,7.09,0,0,0,1.53-.74l1.12-.7q.33-.21,1.65-1.12a1.36,1.36,0,0,1,.41.5,1.6,1.6,0,0,1,.25.83,2.54,2.54,0,0,1-.5,1.57,13.46,13.46,0,0,1-4.87,4.46,15.33,15.33,0,0,1-8.18,2.23,16.73,16.73,0,0,1-12.39-5.33,17.82,17.82,0,0,1-5.2-12.93q0-8.34,4.83-13.55A16,16,0,0,1,467.38,22.1Zm-.58,3.8a5.84,5.84,0,0,0-3.55,1.16,7.79,7.79,0,0,0-2.4,2.81,15.78,15.78,0,0,0-1.2,3.1,10.1,10.1,0,0,0-.37,2.44c0,.39.17.58.5.58h13.38q.74,0,.74-1.24A10.71,10.71,0,0,0,472,28.88,5.92,5.92,0,0,0,466.8,25.9Z"/><path class="cls-1" d="M533.8,4.09l17.35,43.29q1.24,3.3,2.48,6a4,4,0,0,0,2.64,2,11,11,0,0,0,3.14.74q.33,0,.33,1.49a2.78,2.78,0,0,1-.17,1.24q-9.91-.5-10.41-.5t-10.74.5a2.33,2.33,0,0,1-.33-1.53c0-.8.11-1.2.33-1.2a10.65,10.65,0,0,0,2.73-.5q1.73-.5,2.07-1.16a2.36,2.36,0,0,0,.25-1.07,19,19,0,0,0-1.57-5.7L539,40a.91.91,0,0,0-.58-.33q-2.64-.16-7.1-.17t-9.42.25c-.33,0-.5.11-.5.33l-3.14,7.68a23.45,23.45,0,0,0-1.57,5.37,1.84,1.84,0,0,0,.91,1.65,8.27,8.27,0,0,0,2.6.91,14.26,14.26,0,0,0,2.52.41q.25.08.25,1.16a5.41,5.41,0,0,1-.17,1.57q-.41,0-3.88-.25t-5.62-.25q-2.15,0-5.08.21l-4.17.29a1.76,1.76,0,0,1-.33-1.24q0-1.49.17-1.49a11.94,11.94,0,0,0,3.18-.7,5.1,5.1,0,0,0,2.77-1.61A39.26,39.26,0,0,0,513,47.38l15.37-37.18q1.9-5,3.06-5.95a2.11,2.11,0,0,1,1.4-.58A1.35,1.35,0,0,1,533.8,4.09Zm-9.91,30.73q2.89.25,5.95.25,2.89,0,6.77-.25l.17-.33L530.49,18l-6.77,16.52C523.72,34.71,523.77,34.82,523.88,34.82Z"/><path class="cls-1" d="M591.54,22.1Q602.2,22.1,602.2,39v7.85a34.58,34.58,0,0,0,.58,7.44q.16.58,2.27,1.2a12.65,12.65,0,0,0,2.85.62c.17,0,.26.4.29,1.2a4.68,4.68,0,0,1-.12,1.61q-.5-.08-4.34-.33T598,58.37q-2,0-5.49.25t-4.25.33a2.42,2.42,0,0,1-.33-1.57q0-1.24.33-1.24a9.82,9.82,0,0,0,2.77-.62q1.86-.62,2-1.2a23.73,23.73,0,0,0,.66-6V40.44q0-6.86-1.86-9.58t-5.91-2.73a7.65,7.65,0,0,0-4.63,1.45,4,4,0,0,0-2,3.1V46.88a34.58,34.58,0,0,0,.58,7.44q.16.58,2.19,1.2a11.88,11.88,0,0,0,2.69.62c.22,0,.34.4.37,1.2a4.69,4.69,0,0,1-.12,1.61q-.66-.08-4.34-.33t-5.58-.25q-2,0-5.74.25t-4.42.33a2.42,2.42,0,0,1-.33-1.57q0-1.24.33-1.24a11.52,11.52,0,0,0,3-.62q2-.62,2.19-1.2a27,27,0,0,0,.58-6V34.82q0-3.88-1.32-5.29a4,4,0,0,0-1.86-1.24,9.41,9.41,0,0,0-2-.5c-.52-.05-.78-.14-.78-.25q0-2.4.41-2.48a117.19,117.19,0,0,0,13.3-2.48.54.54,0,0,1,.21-.12.79.79,0,0,1,.25,0h.21c.22,0,.41.19.58.58a2.51,2.51,0,0,1,.25.91,28.15,28.15,0,0,0-.33,3,.65.65,0,0,0,.08.41,1.23,1.23,0,0,0,.41-.25,18.32,18.32,0,0,1,5.08-3.47A14.46,14.46,0,0,1,591.54,22.1Z"/><path class="cls-1" d="M631.36,21.94a14.2,14.2,0,0,1,6,1.16q.41,0,.41-1.32V14a28.8,28.8,0,0,0-.5-5.62q-.41-1.32-4.3-1.32h-.66q-.5,0-.5-1.32t.5-1.32q2.48-.25,4.83-.66t3.88-.83q1.53-.41,2.64-.83l1.69-.62a4.26,4.26,0,0,1,.66-.21h.17a.89.89,0,0,1,.66.46,1.5,1.5,0,0,1,.33.87,31.62,31.62,0,0,0-.83,7.77V46.72a30.28,30.28,0,0,0,.5,6.11,1.22,1.22,0,0,0,.83.91,5.06,5.06,0,0,0,1.57.41q.83.08,1.57.12l.83,0a1.73,1.73,0,0,1,.17,1q0,1.65-.5,1.65-1.16.08-2.93.33t-3.47.54l-3.22.58q-1.53.29-3.43.7-.5,0-.5-1.41V56.3a.37.37,0,0,0-.12-.33c-.08-.05-.15-.05-.21,0A13.79,13.79,0,0,1,628.88,59a16,16,0,0,1-11.65-4.92,16.68,16.68,0,0,1-5-12.35,19.37,19.37,0,0,1,5.66-14A18.09,18.09,0,0,1,631.36,21.94Zm-.74,4A7.23,7.23,0,0,0,624,29.62q-2.23,3.72-2.23,10,0,7,2.56,10.95a8.11,8.11,0,0,0,7.19,3.92A6.86,6.86,0,0,0,636.07,53a4.58,4.58,0,0,0,1.73-3.68V32a5.74,5.74,0,0,0-.29-1.73,7.71,7.71,0,0,0-1-1.94,5.28,5.28,0,0,0-2.23-1.73A8.77,8.77,0,0,0,630.62,25.9Z"/><path class="cls-1" d="M673.08,22.1q5.12,0,7.68,2.69T683.33,34V50.27a3.77,3.77,0,0,0,.74,2.52,2.48,2.48,0,0,0,2,.87,5.15,5.15,0,0,0,2.81-1.07c.33.11.5.41.5.91a4.91,4.91,0,0,1-.5,2.48,20.44,20.44,0,0,1-3.3,2.07,8.61,8.61,0,0,1-4,1.07,6,6,0,0,1-3.72-1.41,6.77,6.77,0,0,1-2.4-3.06l-.62.54q-.54.46-1.49,1.12a24.47,24.47,0,0,1-2.15,1.32,13.18,13.18,0,0,1-2.81,1.12,12,12,0,0,1-3.26.45,9.86,9.86,0,0,1-6.73-2.27,7.85,7.85,0,0,1-2.6-6.24,7.61,7.61,0,0,1,.95-3.72A9.88,9.88,0,0,1,659,44.12a16.92,16.92,0,0,1,3.55-2.19,33.8,33.8,0,0,1,3.84-1.61q1.61-.54,4.13-1.28T674.07,38a1.3,1.3,0,0,0,.74-1.32V32.1a7.09,7.09,0,0,0-1.32-4.54,4.31,4.31,0,0,0-3.55-1.65,5,5,0,0,0-3.88,1.53,6.18,6.18,0,0,0-1.4,4.34,2.68,2.68,0,0,1-1.24,2.44,5.14,5.14,0,0,1-2.81.78q-3.06,0-4.3-2,0-4,5.41-7.43A20.72,20.72,0,0,1,673.08,22.1Zm-3.72,31.72a6.4,6.4,0,0,0,3.84-1.16A3.27,3.27,0,0,0,674.82,50V41.6q-.58.25-2.44.83t-2.85,1a22.54,22.54,0,0,0-2.31,1.16,5,5,0,0,0-1.94,1.82,4.55,4.55,0,0,0-.62,2.31A5.09,5.09,0,0,0,666,52.58,4.75,4.75,0,0,0,669.37,53.82Z"/><path class="cls-1" d="M720.09,22.1a8.92,8.92,0,0,1,5.37,1.61,9.66,9.66,0,0,1,3.3,4.17,19.48,19.48,0,0,1,6-4.13,18.56,18.56,0,0,1,7.77-1.65,9.38,9.38,0,0,1,5.08,1.32,9.12,9.12,0,0,1,3.3,3.68,19.44,19.44,0,0,1,1.73,5.12,31.48,31.48,0,0,1,.54,6v8.67a34.58,34.58,0,0,0,.58,7.44q.16.58,2.23,1.2a12.15,12.15,0,0,0,2.81.62c.17,0,.26.4.29,1.2a4.68,4.68,0,0,1-.12,1.61q-.58-.08-4.34-.33T749,58.37q-2,0-5.66.25t-4.42.33a3.08,3.08,0,0,1-.25-1.57q0-1.24.25-1.24a11.09,11.09,0,0,0,3-.62q2-.62,2.15-1.2a25.71,25.71,0,0,0,.58-5.78V40.11q0-12-7.68-12a7.52,7.52,0,0,0-4.54,1.32A5.15,5.15,0,0,0,730.25,32c0,.17,0,.39,0,.66a1.61,1.61,0,0,0,0,.66,40.4,40.4,0,0,1,.25,5.12v8.76a32.49,32.49,0,0,0,.58,7.1q.16.58,2.23,1.2a12.15,12.15,0,0,0,2.81.62c.17,0,.26.4.29,1.2a4.69,4.69,0,0,1-.12,1.61q-.58-.08-4.34-.33t-5.66-.25q-2,0-5.66.25t-4.42.33a3.08,3.08,0,0,1-.25-1.57q0-1.24.25-1.24a11.09,11.09,0,0,0,3-.62q2-.62,2.15-1.2a27,27,0,0,0,.58-6V40.36q0-6.44-1.9-9.33a6.29,6.29,0,0,0-5.62-2.89,7.91,7.91,0,0,0-4.54,1.4,3.9,3.9,0,0,0-2.07,3.14V46.88a30.37,30.37,0,0,0,.66,7.44q.16.58,2.15,1.2a11.21,11.21,0,0,0,2.73.62c.22,0,.34.4.37,1.2a4.69,4.69,0,0,1-.12,1.61q-.66-.08-4.34-.33t-5.58-.25q-2.07,0-5.78.25t-4.38.33a2.42,2.42,0,0,1-.33-1.57q0-1.24.33-1.24a12,12,0,0,0,3-.62q2.06-.62,2.23-1.2a27,27,0,0,0,.58-6V34.82q0-3.88-1.32-5.29a4,4,0,0,0-1.86-1.24,9.31,9.31,0,0,0-2-.5c-.55-.05-.83-.14-.83-.25q0-2.4.5-2.48A114.56,114.56,0,0,0,707,22.6a.53.53,0,0,1,.25-.12,1.75,1.75,0,0,1,.41,0q.41,0,.66.58a1.52,1.52,0,0,1,.17.91,28.17,28.17,0,0,0-.33,3c0,.22.05.36.17.41a1.23,1.23,0,0,0,.41-.25,18.32,18.32,0,0,1,5.08-3.47A14.46,14.46,0,0,1,720.09,22.1Z"/><path class="cls-1" d="M777.51,46.88a30.37,30.37,0,0,0,.66,7.44q.16.58,2.23,1.2a12.15,12.15,0,0,0,2.81.62c.22,0,.34.4.37,1.2a4.69,4.69,0,0,1-.12,1.61q-.58-.08-4.42-.33t-5.66-.25q-2.07,0-5.82.25t-4.34.33a2.42,2.42,0,0,1-.33-1.57q0-1.24.33-1.24a12,12,0,0,0,3-.62q2.06-.62,2.23-1.2a27,27,0,0,0,.58-6V34.82q0-3.88-1.32-5.29a4.59,4.59,0,0,0-1.9-1.24,8.68,8.68,0,0,0-2-.5c-.55-.05-.83-.14-.83-.25q0-2.4.5-2.48a63.43,63.43,0,0,0,6.69-1,64.79,64.79,0,0,0,6.53-1.49,4.78,4.78,0,0,0,.66-.17q.41,0,.66.58a1.52,1.52,0,0,1,.17.91,70.82,70.82,0,0,0-.66,7.1Zm-8.59-34.57a5,5,0,0,1-1.49-3.63,4.89,4.89,0,0,1,1.49-3.59,5.12,5.12,0,0,1,8.76,3.59,5,5,0,0,1-1.49,3.63,5.09,5.09,0,0,1-7.27,0Z"/><path class="cls-1" d="M811.79,22.1q4.54,0,6.77,2.73,0,7-4,7a4.91,4.91,0,0,1-3.22-1.65,5.17,5.17,0,0,0-3.55-1.65,4.43,4.43,0,0,0-4,2.6,11,11,0,0,0-1.45,5.41V46.88a34.58,34.58,0,0,0,.58,7.44q.16.58,2.19,1.2a11.67,11.67,0,0,0,2.77.62c.17,0,.26.4.29,1.2a8.62,8.62,0,0,1,0,1.61q-.66-.08-4.38-.33t-5.62-.25q-2,0-5.74.25t-4.42.33a2.42,2.42,0,0,1-.33-1.57q0-1.24.33-1.24a11.52,11.52,0,0,0,3-.62q2-.62,2.19-1.2a27,27,0,0,0,.58-6V34.82q0-3.88-1.32-5.29a4,4,0,0,0-1.86-1.24,9.41,9.41,0,0,0-2-.5c-.52-.05-.78-.14-.78-.25q0-2.4.41-2.48a117.19,117.19,0,0,0,13.3-2.48,5,5,0,0,1,.66-.17c.22,0,.41.19.58.58a2,2,0,0,1,.21,1q0,.37-.12,1.16t-.21,1.65a10.57,10.57,0,0,0-.12,1.12,15.17,15.17,0,0,1,4-4A9.05,9.05,0,0,1,811.79,22.1Z"/><path class="cls-1" d="M841.78,22.1A18.21,18.21,0,0,1,855,27.51a17.7,17.7,0,0,1,5.49,13.09,18.71,18.71,0,0,1-37.42,0,17.8,17.8,0,0,1,5.41-13.14A18.1,18.1,0,0,1,841.78,22.1ZM840.71,26a6.65,6.65,0,0,0-6,3.76,17.77,17.77,0,0,0-2.15,9,24.09,24.09,0,0,0,2.69,11.65q2.68,5,7.48,5a6.73,6.73,0,0,0,6.07-3.8,17.57,17.57,0,0,0,2.19-8.92,28.36,28.36,0,0,0-1.07-8,14.57,14.57,0,0,0-3.47-6.16A7.66,7.66,0,0,0,840.71,26Z"/><path class="cls-2" d="M20.8,14.26a3.34,3.34,0,0,1,.63,2A3.15,3.15,0,0,1,20.18,19a5.71,5.71,0,0,1-3.53,1,5.71,5.71,0,0,1-3.53-1,3.15,3.15,0,0,1-1.25-2.66,3.33,3.33,0,0,1,.64-2.06,3.22,3.22,0,0,1,1.79-1.17,3.25,3.25,0,0,1-1.55-1.17,3.12,3.12,0,0,1-.56-1.85A3.07,3.07,0,0,1,13.37,7.5a5.16,5.16,0,0,1,3.28-.94,5.16,5.16,0,0,1,3.28.94,3.07,3.07,0,0,1,1.19,2.55,3.17,3.17,0,0,1-.56,1.86A3.13,3.13,0,0,1,19,13.07,3.27,3.27,0,0,1,20.8,14.26Zm-1.2,1.91q0-2.22-2.95-2.22t-2.95,2.22q0,2.2,2.95,2.2T19.6,16.16ZM14.69,8.65A1.91,1.91,0,0,0,14,10.22a2,2,0,0,0,.67,1.61,3,3,0,0,0,2,.56,3,3,0,0,0,2-.56,2,2,0,0,0,.67-1.61,1.91,1.91,0,0,0-.67-1.57,3,3,0,0,0-2-.55A3,3,0,0,0,14.69,8.65Z"/><path class="cls-3" d="M611.06,63.3,436.42,50.44a13.66,13.66,0,0,1-12.6-14.64h0a13.66,13.66,0,0,1,14.64-12.6L613.09,36.06a13.66,13.66,0,0,1,12.6,14.64h0A13.66,13.66,0,0,1,611.06,63.3Z"/><path class="cls-2" d="M454.69,31.36a6,6,0,0,1,1.85.4,4.11,4.11,0,0,1,2.6,3.52l-2.3.24a3.39,3.39,0,0,0-.78-1.55,2.12,2.12,0,0,0-1.46-.68,2.35,2.35,0,0,0-2.06.88,5.19,5.19,0,0,0-1,3,5.63,5.63,0,0,0,.49,3.13,2.24,2.24,0,0,0,1.88,1.25,2.62,2.62,0,0,0,1.92-.46,2.07,2.07,0,0,0,.75-1.51l2.29.17a3.79,3.79,0,0,1-1.48,2.94,5.12,5.12,0,0,1-3.51.81,4.59,4.59,0,0,1-3.57-1.9,6.81,6.81,0,0,1-1-4.6A6.61,6.61,0,0,1,451,32.63,4.59,4.59,0,0,1,454.69,31.36Z"/><path class="cls-2" d="M465.12,35.09a4.87,4.87,0,0,1,1.63.4,3.48,3.48,0,0,1,1.27,1A4.77,4.77,0,0,1,469,40a4.72,4.72,0,0,1-1.5,3.36,4,4,0,0,1-3.07.93,4.1,4.1,0,0,1-2.94-1.38,4.68,4.68,0,0,1-1-3.55A4.73,4.73,0,0,1,462,36,4.1,4.1,0,0,1,465.12,35.09Zm1.76,4.77a3.36,3.36,0,0,0-.38-2.12,1.8,1.8,0,0,0-1.45-.81,2,2,0,0,0-1.63.57,3.07,3.07,0,0,0-.77,2,3.32,3.32,0,0,0,.39,2.12,1.82,1.82,0,0,0,1.45.81,2,2,0,0,0,1.62-.58A3.07,3.07,0,0,0,466.88,39.86Z"/><path class="cls-2" d="M479.51,38.08a3,3,0,0,1,3.11-1.67A3,3,0,0,1,485,37.66a4.32,4.32,0,0,1,.62,2.87l-.39,5.11-2.14-.16.39-5.11a2.07,2.07,0,0,0-.36-1.5,1.73,1.73,0,0,0-1.28-.59,1.65,1.65,0,0,0-1.44.63,4,4,0,0,0-.74,2.19l-.31,4.1L477.19,45l.39-5.11a2.07,2.07,0,0,0-.36-1.5,1.73,1.73,0,0,0-1.28-.59,1.81,1.81,0,0,0-1.51.65,3.75,3.75,0,0,0-.81,2.22l-.31,4.05-2.12-.16.66-8.75,1.85.14.12,1.53a2.9,2.9,0,0,1,2.9-1.54,3.15,3.15,0,0,1,1.79.64A3,3,0,0,1,479.51,38.08Z"/><path class="cls-2" d="M489.08,34.29a1.21,1.21,0,0,1,.41-.88,1.58,1.58,0,0,1,1.93.15,1.36,1.36,0,0,1-.14,1.82,1.58,1.58,0,0,1-1.93-.15A1.21,1.21,0,0,1,489.08,34.29Zm0,2.83,2.12.16L490.59,46l-2.12-.16Z"/><path class="cls-2" d="M496.82,39.24a3.19,3.19,0,0,1,5.26-.29,4.49,4.49,0,0,1,.61,2.87l-.39,5.11-2.12-.16.39-5.11a2.07,2.07,0,0,0-.36-1.5,1.73,1.73,0,0,0-1.28-.59,1.81,1.81,0,0,0-1.51.65,3.75,3.75,0,0,0-.81,2.22l-.31,4.05-2.12-.16.66-8.75,1.85.14Z"/><path class="cls-2" d="M506.43,43.64a2.84,2.84,0,0,1-.89-2.33,2.81,2.81,0,0,1,1.29-2.22,3.91,3.91,0,0,1,2.54-.66,4.75,4.75,0,0,1,2.29.7,2.38,2.38,0,0,1,1-1.59,2.7,2.7,0,0,1,1.83-.5l-.26,2q-1.55-.12-1.68.91a2.69,2.69,0,0,1,.54,1.74,3.11,3.11,0,0,1-.42,1.43,2.91,2.91,0,0,1-.9.92,4.09,4.09,0,0,1-2.69.67,4.54,4.54,0,0,1-1.58-.39.87.87,0,0,0-.78.81q-.06.81,1.31.91l2.93.22q3,.23,2.83,2.31a3,3,0,0,1-.45,1.35,3.69,3.69,0,0,1-1.11,1.12,5.86,5.86,0,0,1-3.8.87A6.33,6.33,0,0,1,505,50.79a2.46,2.46,0,0,1-1.1-2.17,1.71,1.71,0,0,1,.59-1.25,2.35,2.35,0,0,1,1.35-.5,1.88,1.88,0,0,1-.94-1.68,1.48,1.48,0,0,1,.48-1A2.21,2.21,0,0,1,506.43,43.64Zm1.34,3.9q-1.7-.06-1.79,1.15a1.11,1.11,0,0,0,.64,1,3.62,3.62,0,0,0,1.66.5,5.64,5.64,0,0,0,1.53,0,3.11,3.11,0,0,0,1-.36,1.55,1.55,0,0,0,.91-1.24.69.69,0,0,0-.18-.55.94.94,0,0,0-.64-.26ZM511,41.69a1.73,1.73,0,0,0-.32-1.22,1.56,1.56,0,0,0-1.2-.55,1.55,1.55,0,0,0-1.82,1.52,1.7,1.7,0,0,0,.34,1.23,1.63,1.63,0,0,0,1.22.56,1.55,1.55,0,0,0,1.27-.38A1.77,1.77,0,0,0,511,41.69Z"/><path class="cls-2" d="M524,36.82l2.66.2,3,12-2.25-.17-.62-2.58-4.34-.33-1,2.46-2.25-.17Zm-.93,7.53,3.28.25-1.24-5.14Z"/><path class="cls-2" d="M537.63,48a2.78,2.78,0,0,1-2.8,1.55,3,3,0,0,1-2.92-2,3.89,3.89,0,0,1-.15-1.55l.42-5.58,2.12.16-.4,5.36a1.78,1.78,0,0,0,.32,1.32,1.37,1.37,0,0,0,1,.5,2.67,2.67,0,0,0,1-.09,2,2,0,0,0,.76-.46,3.22,3.22,0,0,0,.86-2l.33-4.32,2.12.16-.66,8.77-2.12-.16Z"/><path class="cls-2" d="M544,46.47a2.84,2.84,0,0,1-.89-2.33,2.81,2.81,0,0,1,1.29-2.22,3.91,3.91,0,0,1,2.54-.66,4.75,4.75,0,0,1,2.29.7,2.38,2.38,0,0,1,1-1.59,2.7,2.7,0,0,1,1.83-.5l-.26,2q-1.55-.12-1.68.91a2.69,2.69,0,0,1,.54,1.74,3.11,3.11,0,0,1-.42,1.43,2.91,2.91,0,0,1-.9.92,4.09,4.09,0,0,1-2.69.67,4.54,4.54,0,0,1-1.58-.39.87.87,0,0,0-.78.81q-.06.81,1.31.91l2.93.22q3,.23,2.83,2.31a3,3,0,0,1-.45,1.35,3.69,3.69,0,0,1-1.11,1.12,5.86,5.86,0,0,1-3.8.87,6.33,6.33,0,0,1-3.44-1.15,2.46,2.46,0,0,1-1.1-2.17,1.71,1.71,0,0,1,.59-1.25,2.35,2.35,0,0,1,1.35-.5,1.88,1.88,0,0,1-.94-1.68,1.48,1.48,0,0,1,.48-1A2.21,2.21,0,0,1,544,46.47Zm1.34,3.9q-1.7-.06-1.79,1.15a1.11,1.11,0,0,0,.64,1,3.62,3.62,0,0,0,1.66.5,5.64,5.64,0,0,0,1.53,0,3.11,3.11,0,0,0,1-.36,1.55,1.55,0,0,0,.91-1.24.69.69,0,0,0-.18-.55.94.94,0,0,0-.64-.26Zm3.21-5.85a1.73,1.73,0,0,0-.32-1.22,1.56,1.56,0,0,0-1.2-.55,1.55,1.55,0,0,0-1.82,1.52,1.7,1.7,0,0,0,.34,1.23,1.63,1.63,0,0,0,1.22.56,1.55,1.55,0,0,0,1.27-.38A1.77,1.77,0,0,0,548.56,44.52Z"/><path class="cls-2" d="M559.4,49.64a2.78,2.78,0,0,1-2.8,1.55,3,3,0,0,1-2.92-2,3.89,3.89,0,0,1-.15-1.55l.42-5.58,2.12.16-.4,5.36a1.78,1.78,0,0,0,.32,1.32,1.37,1.37,0,0,0,1,.5,2.67,2.67,0,0,0,1-.09,2,2,0,0,0,.76-.46,3.22,3.22,0,0,0,.86-2l.33-4.32,2.12.16-.66,8.77-2.12-.16Z"/><path class="cls-2" d="M566.14,49.06q-.06,1.25,1.72,1.38a2,2,0,0,0,1.15-.21.84.84,0,0,0,.49-.66.74.74,0,0,0-.22-.63,2.67,2.67,0,0,0-.82-.46l-1.86-.83q-2.07-.9-1.94-2.57a2.08,2.08,0,0,1,1.13-1.72,4.74,4.74,0,0,1,2.73-.47,4,4,0,0,1,2.54.93,2.41,2.41,0,0,1,.81,1.93l-2-.15a.88.88,0,0,0-.36-.72,2,2,0,0,0-1.06-.33,1.84,1.84,0,0,0-1.11.2.79.79,0,0,0-.44.61q0,.63,1,1l2,.93a4.12,4.12,0,0,1,1.51,1,1.84,1.84,0,0,1,.44,1.42,2.33,2.33,0,0,1-1.17,1.79,4.45,4.45,0,0,1-2.87.62,4.71,4.71,0,0,1-2.75-1,2.55,2.55,0,0,1-.92-2.23Z"/><path class="cls-2" d="M579.19,52.51a5.54,5.54,0,0,1-1.91.33,4,4,0,0,1-1.19-.25,2.71,2.71,0,0,1-.87-.55,2.59,2.59,0,0,1-.67-2.1l.37-4.9-1.22-.09.11-1.42,1.22.09.17-2.3,2.12.16-.17,2.3,2.38.18-.11,1.42L577,45.19,576.68,50q-.08,1.08.94,1.16A4.33,4.33,0,0,0,579,51Z"/><path class="cls-2" d="M587.58,51.4l6.68.5-.15,1.94-8.8-.66.15-2a3.37,3.37,0,0,1,1.72-2.95,6.28,6.28,0,0,1,1.21-.49l2.46-.74a2.71,2.71,0,0,0,1.22-.68,1.77,1.77,0,0,0,.46-1.12,1.51,1.51,0,0,0-.4-1.18,2,2,0,0,0-1.35-.56,2.44,2.44,0,0,0-1.52.32,1.73,1.73,0,0,0-.77,1.23l-2.36-.18a3.29,3.29,0,0,1,1.52-2.58,5.13,5.13,0,0,1,3.22-.64,4.6,4.6,0,0,1,2.93,1.2,3.11,3.11,0,0,1,1,2.56,3.53,3.53,0,0,1-.9,2.28,5.46,5.46,0,0,1-2.37,1.3l-2.5.75a2.77,2.77,0,0,0-1.06.53,1.2,1.2,0,0,0-.38.83Z"/><path class="cls-2" d="M596.69,43.18a5.23,5.23,0,0,0,2.45-.78l1.6.12-.89,11.75-2.12-.16.69-9.22a4.19,4.19,0,0,1-1.89.31Z"/></svg>