<svg id="Layer_1" data-name="Layer 1" xmlns="http://www.w3.org/2000/svg" viewBox="0 0 629.53 234.7"><defs><style>.cls-1{fill:#1414ef;}.cls-2,.cls-3{fill:#fff;stroke:#1414ef;stroke-miterlimit:10;}.cls-2{stroke-width:1.2px;}.cls-3{stroke-width:1.3px;}</style></defs><title>title</title><path class="cls-1" d="M20,9.22a7.49,7.49,0,0,1,1.31,4.73,10.18,10.18,0,0,1-.62,3.75,5.18,5.18,0,0,1-1.78,2.39,4.69,4.69,0,0,1-2.79.82,6.29,6.29,0,0,1-2.23-.41A5.68,5.68,0,0,1,12,19.34l.67-1.41a5.53,5.53,0,0,0,3.41,1.43A2.75,2.75,0,0,0,18.55,18a7.54,7.54,0,0,0,.87-4v0a3.16,3.16,0,0,1-1.32,1.49A4,4,0,0,1,16,16a4.14,4.14,0,0,1-2.09-.53A3.66,3.66,0,0,1,12.5,14,4.5,4.5,0,0,1,12,11.82a4.35,4.35,0,0,1,.56-2.2,4,4,0,0,1,1.53-1.52,4.44,4.44,0,0,1,2.21-.55A4.47,4.47,0,0,1,20,9.22ZM18.28,13.7A2.59,2.59,0,0,0,19,11.78a2.63,2.63,0,0,0-.72-1.94,2.56,2.56,0,0,0-1.91-.73,2.42,2.42,0,0,0-1.84.73,2.69,2.69,0,0,0-.69,1.94,2.67,2.67,0,0,0,.69,1.92,2.42,2.42,0,0,0,1.84.73A2.57,2.57,0,0,0,18.28,13.7Z"/><path class="cls-2" d="M51,5.19H65.25q13.46,0,21,7.93A26.18,26.18,0,0,1,93.83,31.8q0,11.9-7.64,20t-21,8.05q-1.74,0-6.82-.17T51,59.47l-11,.33a2.15,2.15,0,0,1-.25-1.32q0-1.4.25-1.4a13.59,13.59,0,0,0,3.14-.54q2.06-.54,2.4-1.28.58-1.73.58-7.52V16.51a26.16,26.16,0,0,0-.58-6.77q-.25-.91-2.31-1.49A13,13,0,0,0,40,7.67q-.33,0-.33-1.24A2.25,2.25,0,0,1,40,4.95Q45.42,5.19,51,5.19ZM55.5,15.77V48.15q0,4.63.91,6.11,1.32,1.32,10.08,1.32,16.77,0,16.77-24.12,0-9.25-4.5-15.7T65.91,9.32H65.5q-7.93,0-8.92,1.32Q55.5,12.13,55.5,15.77Z"/><path class="cls-2" d="M117,23a18.21,18.21,0,0,1,13.26,5.41,17.7,17.7,0,0,1,5.49,13.09,18.75,18.75,0,0,1-32,13.14A17.91,17.91,0,0,1,98.3,41.54a17.8,17.8,0,0,1,5.41-13.14A18.1,18.1,0,0,1,117,23Zm-1.07,3.88a6.65,6.65,0,0,0-6,3.76,17.77,17.77,0,0,0-2.15,9,24.09,24.09,0,0,0,2.69,11.65q2.68,5,7.48,5a6.74,6.74,0,0,0,6.07-3.8,17.58,17.58,0,0,0,2.19-8.92,28.37,28.37,0,0,0-1.07-8,14.57,14.57,0,0,0-3.47-6.16A7.66,7.66,0,0,0,115.89,26.92Z"/><path class="cls-2" d="M167.2,23Q177.85,23,177.85,40v7.85a34.6,34.6,0,0,0,.58,7.44q.16.58,2.27,1.2a12.65,12.65,0,0,0,2.85.62c.17,0,.26.4.29,1.2a4.67,4.67,0,0,1-.12,1.61q-.5-.08-4.34-.33t-5.74-.25q-2,0-5.49.25t-4.25.33a2.42,2.42,0,0,1-.33-1.57q0-1.24.33-1.24a9.82,9.82,0,0,0,2.77-.62q1.86-.62,2-1.2a23.75,23.75,0,0,0,.66-6V41.38q0-6.86-1.86-9.58t-5.91-2.73A7.65,7.65,0,0,0,157,30.51a4,4,0,0,0-2,3.1V47.82a34.56,34.56,0,0,0,.58,7.44q.16.58,2.19,1.2a11.89,11.89,0,0,0,2.69.62c.22,0,.34.4.37,1.2a4.7,4.7,0,0,1-.12,1.61q-.66-.08-4.34-.33t-5.58-.25q-2,0-5.74.25t-4.42.33a2.42,2.42,0,0,1-.33-1.57q0-1.24.33-1.24a11.52,11.52,0,0,0,3-.62q2-.62,2.19-1.2a27,27,0,0,0,.58-6V35.76q0-3.88-1.32-5.29a4,4,0,0,0-1.86-1.24,9.4,9.4,0,0,0-2-.5c-.52-.05-.78-.14-.78-.25q0-2.4.41-2.48a117.19,117.19,0,0,0,13.3-2.48.54.54,0,0,1,.21-.12.79.79,0,0,1,.25,0h.21c.22,0,.41.19.58.58a2.51,2.51,0,0,1,.25.91,28.12,28.12,0,0,0-.33,3,.65.65,0,0,0,.08.41,1.23,1.23,0,0,0,.41-.25,18.31,18.31,0,0,1,5.08-3.47A14.46,14.46,0,0,1,167.2,23Z"/><path class="cls-2" d="M198.67,7.51a11.09,11.09,0,0,1-.87,4.25,12.38,12.38,0,0,1-2.11,3.51,24.5,24.5,0,0,1-2.56,2.52,15.85,15.85,0,0,1-2.27,1.65,3.81,3.81,0,0,1-1.2.54,2.39,2.39,0,0,1-1.28-.58,2.82,2.82,0,0,1-1-1.24,13,13,0,0,0,3.64-3.1,11.3,11.3,0,0,0,1.78-2.81,5.16,5.16,0,0,0,.37-1.61q0-1.07-1.73-2.93t-1.73-3a3,3,0,0,1,1.69-2.48,6.88,6.88,0,0,1,3.76-1.07,5.15,5.15,0,0,1,2.31.58Q198.67,3.54,198.67,7.51Z"/><path class="cls-2" d="M206.6,28.82h-5q-.58,0-.58-2.15a2.07,2.07,0,0,1,.08-.74,23.1,23.1,0,0,0,6.36-4.38q1.07-1.07,2.35-2.44t3-3.51a5.88,5.88,0,0,1,1.57.21c.5.14.74.29.74.46v8.1l6,0,4.09,0q.66,0,.66.74a8,8,0,0,1-.83,3.63h-9.91V48.73a7.84,7.84,0,0,0,1.4,5,4.72,4.72,0,0,0,3.88,1.74,7.78,7.78,0,0,0,1.73-.21,8.77,8.77,0,0,0,1.49-.45q.58-.25,1.07-.5a2.58,2.58,0,0,1,.58-.25q.33-.08.74.74c.28.55.38.91.33,1.07q-.5,1.16-3.51,2.68a13,13,0,0,1-5.91,1.53,10.42,10.42,0,0,1-7.31-2.77q-3-2.77-3-8.55Z"/><path class="cls-2" d="M258.65,5.36q1.49,0,11.4-.5a3.81,3.81,0,0,1,.12,1.49q0,1.16-.29,1.16a9.14,9.14,0,0,0-3,.58q-1.65.58-1.65,1.73A5.18,5.18,0,0,0,266,12l8.76,16q.41.41.83-.17,3.55-5.29,6.86-10.91t3.3-7.1q0-.91-1.53-1.61a9.71,9.71,0,0,0-4-.7q-.33,0-.33-1.16a2.85,2.85,0,0,1,.25-1.49q8.34.5,9.91.5,1.9,0,3.43-.08t3.14-.21l2.52-.21a5.48,5.48,0,0,1,.17,1.32c0,.88-.11,1.32-.33,1.32a11.49,11.49,0,0,0-3.43.74,6.72,6.72,0,0,0-3.18,2q-2.4,3.55-8.59,13.59t-6.2,11.11V47.82a31.6,31.6,0,0,0,.66,7.44q.16.58,2.27,1.28a11.58,11.58,0,0,0,2.77.7c.22,0,.33.44.33,1.32a4.3,4.3,0,0,1-.17,1.32l-3.14-.25q-2.07-.17-3.8-.25t-3.39-.08q-2.23,0-6.07.25t-4.75.33a1.91,1.91,0,0,1-.33-1.32q0-1.32.25-1.32a11.27,11.27,0,0,0,3.06-.66q2.06-.66,2.31-1.32a29.48,29.48,0,0,0,.66-7.27V35.76a5.18,5.18,0,0,0-.54-1.61q-.54-1.2-1.86-3.64t-2.31-4.21l-3.22-5.74L257,14.69q-2.4-4.46-4.3-5.7a8.28,8.28,0,0,0-2.44-1,9.87,9.87,0,0,0-2.35-.46c-.17,0-.26-.27-.29-.83a2.53,2.53,0,0,1,.12-1.16Q249.73,5.36,258.65,5.36Z"/><path class="cls-2" d="M312.73,23A18.21,18.21,0,0,1,326,28.45a17.7,17.7,0,0,1,5.49,13.09,18.71,18.71,0,0,1-37.42,0,17.8,17.8,0,0,1,5.41-13.14A18.1,18.1,0,0,1,312.73,23Zm-1.07,3.88a6.65,6.65,0,0,0-6,3.76,17.77,17.77,0,0,0-2.15,9,24.09,24.09,0,0,0,2.69,11.65q2.68,5,7.48,5a6.74,6.74,0,0,0,6.07-3.8,17.58,17.58,0,0,0,2.19-8.92,28.37,28.37,0,0,0-1.07-8,14.57,14.57,0,0,0-3.47-6.16A7.66,7.66,0,0,0,311.66,26.92Z"/><path class="cls-2" d="M372,32V48.32a18.32,18.32,0,0,0,.66,5.78,1.71,1.71,0,0,0,1,.66,6.41,6.41,0,0,0,1.45.33,12.26,12.26,0,0,0,1.36.08,1.52,1.52,0,0,1,.7.08c.22.06.33.3.33.74a6.31,6.31,0,0,1-.17,1.12c-.11.52-.28.79-.5.79a19,19,0,0,0-2.93.29l-3.43.58q-1.65.29-3.14.62T364,60q-.58,0-.58-1.32V55.09q-.08-.41-.25-.41a18.44,18.44,0,0,1-5,3.72A13.84,13.84,0,0,1,351.64,60a8.65,8.65,0,0,1-4.92-1.41,10,10,0,0,1-3.3-3.63,17.76,17.76,0,0,1-1.74-4.79,25.26,25.26,0,0,1-.54-5.21V35.76q0-3.88-1.32-5.29a4.6,4.6,0,0,0-1.9-1.24,8.67,8.67,0,0,0-2-.5c-.55-.05-.83-.14-.83-.25q0-2.4.41-2.48a62.33,62.33,0,0,0,6.77-1,64.77,64.77,0,0,0,6.53-1.49,1.34,1.34,0,0,0,.33-.08,1.41,1.41,0,0,1,.33-.08q.41,0,.62.58a3,3,0,0,1,.21.91q-.74,5.62-.74,7.27V42q0,6.44,1.82,9.25t5.87,2.81a6.49,6.49,0,0,0,4.46-1.61,4.4,4.4,0,0,0,1.82-3.1V35.76q0-3.88-1.32-5.29a4,4,0,0,0-1.86-1.24,9.31,9.31,0,0,0-2-.5c-.55-.05-.83-.14-.83-.25q0-2.4.5-2.48a63.43,63.43,0,0,0,6.69-1,64.79,64.79,0,0,0,6.53-1.49,4.77,4.77,0,0,0,.66-.17q.41,0,.66.58a1.52,1.52,0,0,1,.17.91Q372,30.47,372,32Z"/><path class="cls-2" d="M410.63,59.31q-2.48,0-5.29.12t-4.38.29l-1.65.08a2.16,2.16,0,0,1-.25-1.32q0-1.4.25-1.4a13.6,13.6,0,0,0,3.14-.54q2.06-.54,2.4-1.28.58-1.73.58-7.52V16.51a26.17,26.17,0,0,0-.58-6.77q-.25-.91-2.31-1.49a13,13,0,0,0-3.3-.58q-.33,0-.33-1.24a2.25,2.25,0,0,1,.33-1.49q5.37.33,10.9.33Q414,5.36,423.23,5t13.59-.33q.33,2.48,1.32,6.9t1.07,4.83a2.55,2.55,0,0,1-1.73.41c-.61,0-1-.19-1.16-.58q-2.73-7.35-10.57-7.35h-4.3q-6.11,0-6.28,1.07a37.21,37.21,0,0,0-.41,6.69v13q0,.5,3.64.5h4.54q4.79,0,5.7-.41t1.4-2.89q.25-1.24.5-2.07.08-.58,1.32-.58a2.24,2.24,0,0,1,1.57.41V40.22a2.42,2.42,0,0,1-1.57.33q-1.07,0-1.32-.66a26.08,26.08,0,0,0-1-3.3,4.83,4.83,0,0,0-.58-1.16l-.7-.5q-1.08-.66-7.6-.66-5.87,0-5.87.66v13a20.14,20.14,0,0,0,.91,6.86q.33.83,3,1.57a16.6,16.6,0,0,0,3.55.74q.41,0,.41,1.4a2.4,2.4,0,0,1-.25,1.32Q412.45,59.3,410.63,59.31Z"/><path class="cls-2" d="M460.44,23a15.32,15.32,0,0,1,6.94,1.53,13.07,13.07,0,0,1,4.79,3.88,19.21,19.21,0,0,1,2.64,4.87,14.24,14.24,0,0,1,.91,4.83q0,1.82-.62,2.27a4.69,4.69,0,0,1-2.52.45H452.84q-.58,0-.58.5a16.06,16.06,0,0,0,1.07,5.78A11.36,11.36,0,0,0,457,52a9.72,9.72,0,0,0,6.24,2.07,22.66,22.66,0,0,0,2.4-.12,12.37,12.37,0,0,0,2.15-.41q1-.29,1.73-.54a7.1,7.1,0,0,0,1.53-.74l1.12-.7q.33-.21,1.65-1.12a1.36,1.36,0,0,1,.41.5,1.6,1.6,0,0,1,.25.83,2.54,2.54,0,0,1-.5,1.57,13.46,13.46,0,0,1-4.87,4.46A15.33,15.33,0,0,1,460.94,60a16.73,16.73,0,0,1-12.39-5.33,17.82,17.82,0,0,1-5.2-12.93q0-8.34,4.83-13.55A16,16,0,0,1,460.44,23Zm-.58,3.8A5.84,5.84,0,0,0,456.31,28a7.79,7.79,0,0,0-2.4,2.81,15.79,15.79,0,0,0-1.2,3.1,10.11,10.11,0,0,0-.37,2.44c0,.39.17.58.5.58h13.38q.74,0,.74-1.24A10.71,10.71,0,0,0,465,29.81,5.92,5.92,0,0,0,459.87,26.84Z"/><path class="cls-2" d="M496.46,23a15.31,15.31,0,0,1,6.94,1.53,13.07,13.07,0,0,1,4.79,3.88,19.23,19.23,0,0,1,2.64,4.87,14.24,14.24,0,0,1,.91,4.83q0,1.82-.62,2.27a4.69,4.69,0,0,1-2.52.45H488.86q-.58,0-.58.5a16,16,0,0,0,1.07,5.78A11.36,11.36,0,0,0,493,52a9.72,9.72,0,0,0,6.24,2.07,22.67,22.67,0,0,0,2.4-.12,12.37,12.37,0,0,0,2.15-.41q1-.29,1.74-.54a7.11,7.11,0,0,0,1.53-.74l1.12-.7q.33-.21,1.65-1.12a1.37,1.37,0,0,1,.41.5,1.6,1.6,0,0,1,.25.83,2.54,2.54,0,0,1-.5,1.57,13.46,13.46,0,0,1-4.87,4.46A15.33,15.33,0,0,1,497,60a16.73,16.73,0,0,1-12.39-5.33,17.82,17.82,0,0,1-5.2-12.93q0-8.34,4.83-13.55A16,16,0,0,1,496.46,23Zm-.58,3.8A5.84,5.84,0,0,0,492.33,28a7.79,7.79,0,0,0-2.4,2.81,15.79,15.79,0,0,0-1.2,3.1,10.11,10.11,0,0,0-.37,2.44c0,.39.17.58.5.58h13.38q.74,0,.74-1.24A10.71,10.71,0,0,0,501,29.81,5.92,5.92,0,0,0,495.88,26.84Z"/><path class="cls-2" d="M529.92,47.66a33.86,33.86,0,0,0,.58,7.44q.16.58,2,1.28a9,9,0,0,0,2.52.7c.17,0,.26.39.29,1.16a4.51,4.51,0,0,1-.12,1.57l-3.1-.21-3.51-.21q-1.57-.08-3-.08-1.57,0-3.14.08l-3.47.21-3.14.21a2.33,2.33,0,0,1-.33-1.53c0-.8.11-1.2.33-1.2a8.83,8.83,0,0,0,2.77-.7q1.86-.7,2-1.28a27.41,27.41,0,0,0,.66-6.11V14.61a28.8,28.8,0,0,0-.5-5.62q-.41-1.32-4.13-1.32h-.83q-.5,0-.5-1,0-1.32.5-1.32,2.56-.25,4.87-.66t3.84-.83q1.53-.41,2.64-.78T529,2.47l.58-.25h.17c.22,0,.45.17.7.5a2.54,2.54,0,0,1,.45.83,26.1,26.1,0,0,0-1,7.77Z"/><path class="cls-2" d="M46.17,126.74V95.51a26.16,26.16,0,0,0-.58-6.77q-.25-.91-2.31-1.49a13,13,0,0,0-3.3-.58q-.33,0-.33-1.24A2.25,2.25,0,0,1,40,83.95q5.45.25,11,.25,4.21,0,7.1,0t5,0a24.47,24.47,0,0,1,11.73,3,12.17,12.17,0,0,1,4.58,4.42,12.53,12.53,0,0,1,1.78,6.69,9.68,9.68,0,0,1-1.74,5.54,13.35,13.35,0,0,1-3.26,3.59,13.59,13.59,0,0,1-2.6,1.45q-.66.25-.33.5,3.05.5,6.82,4.34a13,13,0,0,1,3.76,9.46A13.33,13.33,0,0,1,78,134.42q-5.74,4.21-15.24,4.13L51,138.47l-11,.33a2.15,2.15,0,0,1-.25-1.32q0-1.4.25-1.4a13.59,13.59,0,0,0,3.14-.54q2.06-.54,2.4-1.28Q46.16,132.52,46.17,126.74Zm18.92-19.41q6-1.32,6-8.1,0-11.15-9.5-11.15a22.09,22.09,0,0,0-5.29.41.83.83,0,0,0-.66.91l-.17,7.93V107q0,.83,5,.83A16.34,16.34,0,0,0,65.08,107.33ZM73.68,124a12.94,12.94,0,0,0-2.93-8.72q-2.93-3.43-9.46-3.43a34.4,34.4,0,0,0-5.12.41,1.8,1.8,0,0,0-.66,1.65V129.3q0,3.47,1,4.3t5.29.83a17,17,0,0,0,3.55-.37,17.67,17.67,0,0,0,3.76-1.32,7.44,7.44,0,0,0,3.3-3.22A11,11,0,0,0,73.68,124Z"/><path class="cls-2" d="M104.73,102a15.31,15.31,0,0,1,6.94,1.53,13.07,13.07,0,0,1,4.79,3.88,19.23,19.23,0,0,1,2.64,4.87,14.24,14.24,0,0,1,.91,4.83q0,1.82-.62,2.27a4.69,4.69,0,0,1-2.52.45H97.13q-.58,0-.58.5a16,16,0,0,0,1.07,5.78A11.36,11.36,0,0,0,101.3,131a9.72,9.72,0,0,0,6.24,2.07,22.67,22.67,0,0,0,2.4-.12,12.37,12.37,0,0,0,2.15-.41q1-.29,1.74-.54a7.11,7.11,0,0,0,1.53-.74l1.12-.7q.33-.21,1.65-1.12a1.37,1.37,0,0,1,.41.5,1.6,1.6,0,0,1,.25.83,2.54,2.54,0,0,1-.5,1.57,13.46,13.46,0,0,1-4.87,4.46,15.33,15.33,0,0,1-8.18,2.23,16.73,16.73,0,0,1-12.39-5.33,17.82,17.82,0,0,1-5.2-12.93q0-8.34,4.83-13.55A16,16,0,0,1,104.73,102Zm-.58,3.8A5.84,5.84,0,0,0,100.6,107a7.79,7.79,0,0,0-2.4,2.81,15.79,15.79,0,0,0-1.2,3.1,10.11,10.11,0,0,0-.37,2.44c0,.39.17.58.5.58h13.38q.74,0,.74-1.24a10.71,10.71,0,0,0-1.94-5.87A5.92,5.92,0,0,0,104.15,105.84Z"/><path class="cls-2" d="M128.18,107.82h-5q-.58,0-.58-2.15a2.07,2.07,0,0,1,.08-.74,23.1,23.1,0,0,0,6.36-4.38q1.07-1.07,2.35-2.44t3-3.51a5.88,5.88,0,0,1,1.57.21c.5.14.74.29.74.46v8.1l6,0,4.09,0q.66,0,.66.74a8,8,0,0,1-.83,3.63h-9.91v19.91a7.84,7.84,0,0,0,1.4,5,4.72,4.72,0,0,0,3.88,1.74,7.78,7.78,0,0,0,1.73-.21,8.77,8.77,0,0,0,1.49-.45q.58-.25,1.07-.5a2.58,2.58,0,0,1,.58-.25q.33-.08.74.74c.28.55.38.91.33,1.07q-.5,1.16-3.51,2.68a13,13,0,0,1-5.91,1.53,10.42,10.42,0,0,1-7.31-2.77q-3-2.77-3-8.55Z"/><path class="cls-2" d="M156.67,107.82h-5q-.58,0-.58-2.15a2,2,0,0,1,.08-.74,23.11,23.11,0,0,0,6.36-4.38q1.07-1.07,2.35-2.44t3-3.51a5.89,5.89,0,0,1,1.57.21c.5.14.74.29.74.46v8.1l6,0,4.09,0q.66,0,.66.74a8,8,0,0,1-.83,3.63h-9.91v19.91a7.84,7.84,0,0,0,1.4,5,4.72,4.72,0,0,0,3.88,1.74,7.79,7.79,0,0,0,1.74-.21,8.77,8.77,0,0,0,1.49-.45c.38-.17.74-.33,1.07-.5a2.6,2.6,0,0,1,.58-.25q.33-.08.74.74t.33,1.07q-.5,1.16-3.51,2.68a13,13,0,0,1-5.91,1.53,10.42,10.42,0,0,1-7.31-2.77q-3-2.77-3-8.55Z"/><path class="cls-2" d="M197.31,102a15.31,15.31,0,0,1,6.94,1.53,13.07,13.07,0,0,1,4.79,3.88,19.21,19.21,0,0,1,2.64,4.87,14.24,14.24,0,0,1,.91,4.83q0,1.82-.62,2.27a4.69,4.69,0,0,1-2.52.45H189.71q-.58,0-.58.5a16.06,16.06,0,0,0,1.07,5.78,11.36,11.36,0,0,0,3.68,4.87,9.72,9.72,0,0,0,6.24,2.07,22.66,22.66,0,0,0,2.4-.12,12.37,12.37,0,0,0,2.15-.41q1-.29,1.73-.54a7.09,7.09,0,0,0,1.53-.74l1.12-.7q.33-.21,1.65-1.12a1.36,1.36,0,0,1,.41.5,1.6,1.6,0,0,1,.25.83,2.54,2.54,0,0,1-.5,1.57,13.45,13.45,0,0,1-4.87,4.46A15.33,15.33,0,0,1,197.8,139a16.73,16.73,0,0,1-12.39-5.33,17.82,17.82,0,0,1-5.2-12.93q0-8.34,4.83-13.55A16,16,0,0,1,197.31,102Zm-.58,3.8a5.84,5.84,0,0,0-3.55,1.16,7.79,7.79,0,0,0-2.4,2.81,15.76,15.76,0,0,0-1.2,3.1,10.08,10.08,0,0,0-.37,2.44c0,.39.17.58.5.58h13.38q.74,0,.74-1.24a10.71,10.71,0,0,0-1.94-5.87A5.92,5.92,0,0,0,196.73,105.84Z"/><path class="cls-2" d="M240.18,102q4.54,0,6.77,2.73,0,7-4,7a4.92,4.92,0,0,1-3.22-1.65,5.17,5.17,0,0,0-3.55-1.65,4.43,4.43,0,0,0-4,2.6,11,11,0,0,0-1.45,5.41v10.33a34.56,34.56,0,0,0,.58,7.44q.16.58,2.19,1.2a11.68,11.68,0,0,0,2.77.62c.17,0,.26.4.29,1.2a8.6,8.6,0,0,1,0,1.61q-.66-.08-4.38-.33t-5.62-.25q-2,0-5.74.25t-4.42.33a2.42,2.42,0,0,1-.33-1.57q0-1.24.33-1.24a11.52,11.52,0,0,0,3-.62q2-.62,2.19-1.2a27,27,0,0,0,.58-6V114.76q0-3.88-1.32-5.29a4,4,0,0,0-1.86-1.24,9.41,9.41,0,0,0-2-.5c-.52-.05-.78-.14-.78-.25q0-2.4.41-2.48a117.17,117.17,0,0,0,13.3-2.48,5,5,0,0,1,.66-.17c.22,0,.41.19.58.58a2,2,0,0,1,.21,1q0,.37-.12,1.16t-.21,1.65a10.64,10.64,0,0,0-.12,1.12,15.17,15.17,0,0,1,4-4A9.05,9.05,0,0,1,240.18,102Z"/><path class="cls-2" d="M270.56,84.36q.91,0,10-.5a14.15,14.15,0,0,1,.12,1.57q0,1.07-.29,1.16a8.09,8.09,0,0,0-1.32.12,4.6,4.6,0,0,0-1.69.74,1.92,1.92,0,0,0-.95,1.69,10.39,10.39,0,0,0,1.49,4.38l16.19,32q.25.41.62.21a1.26,1.26,0,0,0,.54-.54l6-11.73-8.84-17.84a34.85,34.85,0,0,0-4.21-7,5.81,5.81,0,0,0-2.19-1.4,7.12,7.12,0,0,0-2.6-.58q-.33,0-.33-1.4a2.16,2.16,0,0,1,.25-1.32q10.41.5,10.9.5.66,0,9.75-.5a6.21,6.21,0,0,1,.21,1.57q0,1.07-.21,1.16a7.46,7.46,0,0,0-1.53.17,4.15,4.15,0,0,0-1.61.79,1.92,1.92,0,0,0-.83,1.61,11.45,11.45,0,0,0,1.49,4.3l5,10.33,4.87-10a11.42,11.42,0,0,0,1.49-4.54q0-1.49-2-2.11a12.27,12.27,0,0,0-3.51-.62q-.33,0-.33-1.16a2.85,2.85,0,0,1,.25-1.49q7.27.5,9.09.5t3.43-.08q1.53-.08,3.26-.21l2.81-.21a5.22,5.22,0,0,1,.17,1.53q0,1-.25,1.12a9.85,9.85,0,0,0-3,.74A6.65,6.65,0,0,0,320,89a41.08,41.08,0,0,0-4.71,7.77l-6,12.23,8,16.36q.5.83,1.07-.41,1.65-3.88,7.77-16.77t6.69-14.21a12.54,12.54,0,0,0,1.49-4.63q0-1.49-2-2.15a10.89,10.89,0,0,0-3.3-.66q-.33,0-.37-1.16a2.13,2.13,0,0,1,.29-1.49q7.27.5,9.13.5t3.35-.08q1.49-.08,3.14-.21l2.81-.21a6.39,6.39,0,0,1,.17,1.65c0,.66-.11,1-.33,1a8.91,8.91,0,0,0-2.85.7,7.81,7.81,0,0,0-2.77,1.61,36.6,36.6,0,0,0-4.79,7.85l-18.92,40.07a5.57,5.57,0,0,1-1.53,2,2.66,2.66,0,0,1-1.53.66,1.13,1.13,0,0,1-.83-.33l-10.08-20.32-9.42,18a6,6,0,0,1-1.53,2,2.06,2.06,0,0,1-1.45.62,1.13,1.13,0,0,1-.83-.33L268.75,95.59a44.74,44.74,0,0,0-4.3-7.19,4.56,4.56,0,0,0-2.27-1.32,9.32,9.32,0,0,0-2.6-.5q-.33,0-.33-1.32a2.37,2.37,0,0,1,.25-1.4Q270,84.36,270.56,84.36Z"/><path class="cls-2" d="M376.8,102q10.57,0,10.57,16.28v8.51a30.34,30.34,0,0,0,.66,7.44q.08.58,2.19,1.2a12.65,12.65,0,0,0,2.85.62c.17,0,.26.4.29,1.2a8.65,8.65,0,0,1,0,1.61q-.58-.08-4.42-.33t-5.66-.25q-2.07,0-5.58.25t-4.34.33a3.08,3.08,0,0,1-.25-1.57q0-1.24.25-1.24a9.87,9.87,0,0,0,2.85-.62q1.86-.62,2.11-1.2a31.25,31.25,0,0,0,.5-6v-8.1q0-6.86-1.86-9.46t-5.91-2.6a7.91,7.91,0,0,0-4.54,1.4,3.9,3.9,0,0,0-2.07,3.14v14.21a30.36,30.36,0,0,0,.66,7.44q.16.58,2.19,1.2a11.67,11.67,0,0,0,2.77.62c.17,0,.26.4.29,1.2a4.7,4.7,0,0,1-.12,1.61q-.66-.08-4.34-.33t-5.58-.25q-2,0-5.74.25t-4.42.33a2.42,2.42,0,0,1-.33-1.57q0-1.24.33-1.24a11.52,11.52,0,0,0,3-.62q2-.62,2.19-1.2a26.56,26.56,0,0,0,.58-5.95V93.94a32.65,32.65,0,0,0-.41-5.62q-.41-1.32-4.3-1.32h-.74q-.5,0-.5-1.32t.5-1.32q2.56-.25,4.87-.66t3.84-.83q1.53-.41,2.64-.83t2.35-.83h.17a.89.89,0,0,1,.66.46,2.26,2.26,0,0,1,.41.87,26.63,26.63,0,0,0-1,7.77V107q0,.5.33.5c.05,0,.17-.08.33-.25a15.74,15.74,0,0,1,5.08-3.59A15.22,15.22,0,0,1,376.8,102Z"/><path class="cls-2" d="M414,102a15.32,15.32,0,0,1,6.94,1.53,13.07,13.07,0,0,1,4.79,3.88,19.21,19.21,0,0,1,2.64,4.87,14.24,14.24,0,0,1,.91,4.83q0,1.82-.62,2.27a4.69,4.69,0,0,1-2.52.45H406.44q-.58,0-.58.5a16.06,16.06,0,0,0,1.07,5.78,11.36,11.36,0,0,0,3.68,4.87,9.72,9.72,0,0,0,6.24,2.07,22.66,22.66,0,0,0,2.4-.12,12.37,12.37,0,0,0,2.15-.41q1-.29,1.73-.54a7.1,7.1,0,0,0,1.53-.74l1.12-.7q.33-.21,1.65-1.12a1.36,1.36,0,0,1,.41.5,1.6,1.6,0,0,1,.25.83,2.54,2.54,0,0,1-.5,1.57,13.46,13.46,0,0,1-4.87,4.46,15.33,15.33,0,0,1-8.18,2.23,16.73,16.73,0,0,1-12.39-5.33,17.82,17.82,0,0,1-5.2-12.93q0-8.34,4.83-13.55A16,16,0,0,1,414,102Zm-.58,3.8a5.84,5.84,0,0,0-3.55,1.16,7.79,7.79,0,0,0-2.4,2.81,15.79,15.79,0,0,0-1.2,3.1,10.11,10.11,0,0,0-.37,2.44c0,.39.17.58.5.58h13.38q.74,0,.74-1.24a10.71,10.71,0,0,0-1.94-5.87A5.92,5.92,0,0,0,413.47,105.84Z"/><path class="cls-2" d="M459.72,102q10.66,0,10.66,16.94v7.85a34.6,34.6,0,0,0,.58,7.44q.16.58,2.27,1.2a12.65,12.65,0,0,0,2.85.62c.17,0,.26.4.29,1.2a4.67,4.67,0,0,1-.12,1.61q-.5-.08-4.34-.33t-5.74-.25q-2,0-5.49.25t-4.25.33a2.42,2.42,0,0,1-.33-1.57q0-1.24.33-1.24a9.82,9.82,0,0,0,2.77-.62q1.86-.62,2-1.2a23.75,23.75,0,0,0,.66-6v-7.85q0-6.86-1.86-9.58t-5.91-2.73a7.65,7.65,0,0,0-4.63,1.45,4,4,0,0,0-2,3.1v14.21a34.56,34.56,0,0,0,.58,7.44q.16.58,2.19,1.2a11.89,11.89,0,0,0,2.69.62c.22,0,.34.4.37,1.2a4.7,4.7,0,0,1-.12,1.61q-.66-.08-4.34-.33t-5.58-.25q-2,0-5.74.25t-4.42.33a2.42,2.42,0,0,1-.33-1.57q0-1.24.33-1.24a11.52,11.52,0,0,0,3-.62q2-.62,2.19-1.2a27,27,0,0,0,.58-6V114.76q0-3.88-1.32-5.29a4,4,0,0,0-1.86-1.24,9.4,9.4,0,0,0-2-.5c-.52-.05-.78-.14-.78-.25q0-2.4.41-2.48a117.19,117.19,0,0,0,13.3-2.48.54.54,0,0,1,.21-.12.79.79,0,0,1,.25,0h.21c.22,0,.41.19.58.58a2.51,2.51,0,0,1,.25.91,28.12,28.12,0,0,0-.33,3,.65.65,0,0,0,.08.41,1.23,1.23,0,0,0,.41-.25,18.31,18.31,0,0,1,5.08-3.47A14.46,14.46,0,0,1,459.72,102Z"/><path class="cls-2" d="M503,84.36q1.49,0,11.4-.5a3.81,3.81,0,0,1,.12,1.49q0,1.16-.29,1.16a9.14,9.14,0,0,0-3,.58q-1.65.58-1.65,1.73a5.18,5.18,0,0,0,.74,2.15l8.76,16q.41.41.83-.17,3.55-5.29,6.86-10.91t3.3-7.1q0-.91-1.53-1.61a9.71,9.71,0,0,0-4-.7q-.33,0-.33-1.16a2.85,2.85,0,0,1,.25-1.49q8.34.5,9.91.5,1.9,0,3.43-.08t3.14-.21l2.52-.21a5.48,5.48,0,0,1,.17,1.32c0,.88-.11,1.32-.33,1.32a11.49,11.49,0,0,0-3.43.74,6.72,6.72,0,0,0-3.18,2q-2.4,3.55-8.59,13.59t-6.2,11.11v12.89a31.6,31.6,0,0,0,.66,7.44q.16.58,2.27,1.28a11.58,11.58,0,0,0,2.77.7c.22,0,.33.44.33,1.32a4.3,4.3,0,0,1-.17,1.32l-3.14-.25q-2.07-.17-3.8-.25t-3.39-.08q-2.23,0-6.07.25t-4.75.33a1.91,1.91,0,0,1-.33-1.32q0-1.32.25-1.32a11.27,11.27,0,0,0,3.06-.66q2.06-.66,2.31-1.32a29.48,29.48,0,0,0,.66-7.27V114.76a5.18,5.18,0,0,0-.54-1.61q-.54-1.2-1.86-3.64t-2.31-4.21l-3.22-5.74-3.3-5.87q-2.4-4.46-4.3-5.7a8.28,8.28,0,0,0-2.44-1,9.87,9.87,0,0,0-2.35-.46c-.17,0-.26-.27-.29-.83a2.53,2.53,0,0,1,.12-1.16Q494,84.36,503,84.36Z"/><path class="cls-2" d="M556.61,102a18.21,18.21,0,0,1,13.26,5.41,17.7,17.7,0,0,1,5.49,13.09A18.84,18.84,0,1,1,556.61,102Zm-1.07,3.88a6.65,6.65,0,0,0-6,3.76,17.76,17.76,0,0,0-2.15,9A24.09,24.09,0,0,0,550,130.29q2.68,5,7.48,5a6.73,6.73,0,0,0,6.07-3.8,17.57,17.57,0,0,0,2.19-8.92,28.36,28.36,0,0,0-1.07-8,14.56,14.56,0,0,0-3.47-6.16A7.66,7.66,0,0,0,555.54,105.92Z"/><path class="cls-2" d="M615.51,111v16.36a18.3,18.3,0,0,0,.66,5.78,1.71,1.71,0,0,0,.95.66,6.4,6.4,0,0,0,1.45.33,12.27,12.27,0,0,0,1.36.08,1.52,1.52,0,0,1,.7.08c.22.06.33.3.33.74a6.29,6.29,0,0,1-.17,1.12c-.11.52-.28.79-.5.79a19,19,0,0,0-2.93.29l-3.43.58q-1.65.29-3.14.62t-3.3.66q-.58,0-.58-1.32v-3.63q-.08-.41-.25-.41a18.45,18.45,0,0,1-5,3.72A13.84,13.84,0,0,1,595.1,139a8.65,8.65,0,0,1-4.92-1.41,10,10,0,0,1-3.3-3.63,17.76,17.76,0,0,1-1.73-4.79,25.19,25.19,0,0,1-.54-5.21v-9.25q0-3.88-1.32-5.29a4.59,4.59,0,0,0-1.9-1.24,8.69,8.69,0,0,0-2-.5c-.55-.05-.83-.14-.83-.25q0-2.4.41-2.48a62.32,62.32,0,0,0,6.77-1,64.74,64.74,0,0,0,6.53-1.49,1.34,1.34,0,0,0,.33-.08,1.4,1.4,0,0,1,.33-.08q.41,0,.62.58a2.93,2.93,0,0,1,.21.91q-.74,5.62-.74,7.27V121q0,6.44,1.82,9.25t5.87,2.81a6.48,6.48,0,0,0,4.46-1.61,4.4,4.4,0,0,0,1.82-3.1V114.76q0-3.88-1.32-5.29a4,4,0,0,0-1.86-1.24,9.31,9.31,0,0,0-2-.5c-.55-.05-.83-.14-.83-.25q0-2.4.5-2.48a63.42,63.42,0,0,0,6.69-1,64.77,64.77,0,0,0,6.53-1.49,4.79,4.79,0,0,0,.66-.17q.41,0,.66.58a1.53,1.53,0,0,1,.17.91Q615.5,109.47,615.51,111Z"/><path class="cls-2" d="M49.22,163.36q.91,0,10-.5a14.42,14.42,0,0,1,.12,1.57q0,1.07-.29,1.16a8.09,8.09,0,0,0-1.32.12,4.59,4.59,0,0,0-1.69.74,1.93,1.93,0,0,0-1,1.69,10.39,10.39,0,0,0,1.49,4.38l16.19,32q.25.41.62.21a1.26,1.26,0,0,0,.54-.54l6-11.73-8.84-17.84a34.8,34.8,0,0,0-4.21-7,5.8,5.8,0,0,0-2.19-1.4,7.12,7.12,0,0,0-2.6-.58q-.33,0-.33-1.4a2.16,2.16,0,0,1,.25-1.32q10.41.5,10.91.5.66,0,9.75-.5a6.21,6.21,0,0,1,.21,1.57q0,1.07-.21,1.16a7.46,7.46,0,0,0-1.53.17,4.15,4.15,0,0,0-1.61.79,1.92,1.92,0,0,0-.83,1.61,11.46,11.46,0,0,0,1.49,4.3l5,10.33,4.87-10a11.42,11.42,0,0,0,1.49-4.54q0-1.49-2-2.11a12.28,12.28,0,0,0-3.51-.62q-.33,0-.33-1.16a2.85,2.85,0,0,1,.25-1.49q7.27.5,9.09.5t3.43-.08q1.53-.08,3.26-.21l2.81-.21a5.24,5.24,0,0,1,.17,1.53q0,1-.25,1.12a9.85,9.85,0,0,0-3,.74A6.65,6.65,0,0,0,98.63,168a41.08,41.08,0,0,0-4.71,7.77l-6,12.23,8,16.36q.5.83,1.07-.41,1.65-3.88,7.77-16.77t6.69-14.21a12.52,12.52,0,0,0,1.49-4.63q0-1.49-2-2.15a10.89,10.89,0,0,0-3.3-.66q-.33,0-.37-1.16a2.13,2.13,0,0,1,.29-1.49q7.27.5,9.13.5t3.35-.08q1.49-.08,3.14-.21l2.81-.21a6.37,6.37,0,0,1,.17,1.65q0,1-.33,1a8.91,8.91,0,0,0-2.85.7,7.8,7.8,0,0,0-2.77,1.61,36.58,36.58,0,0,0-4.79,7.85L96.48,215.74a5.56,5.56,0,0,1-1.53,2,2.66,2.66,0,0,1-1.53.66,1.12,1.12,0,0,1-.83-.33L82.52,197.73l-9.42,18a6,6,0,0,1-1.53,2,2.06,2.06,0,0,1-1.45.62,1.12,1.12,0,0,1-.83-.33L47.41,174.59a44.74,44.74,0,0,0-4.3-7.19,4.56,4.56,0,0,0-2.27-1.32,9.32,9.32,0,0,0-2.6-.5q-.33,0-.33-1.32a2.36,2.36,0,0,1,.25-1.4Q48.64,163.36,49.22,163.36Z"/><path class="cls-2" d="M134.21,181a15.32,15.32,0,0,1,6.94,1.53,13.07,13.07,0,0,1,4.79,3.88,19.21,19.21,0,0,1,2.64,4.87,14.24,14.24,0,0,1,.91,4.83q0,1.82-.62,2.27a4.69,4.69,0,0,1-2.52.45H126.61q-.58,0-.58.5a16.06,16.06,0,0,0,1.07,5.78,11.36,11.36,0,0,0,3.68,4.87A9.72,9.72,0,0,0,137,212.1a22.66,22.66,0,0,0,2.4-.12,12.37,12.37,0,0,0,2.15-.41q1-.29,1.73-.54a7.1,7.1,0,0,0,1.53-.74l1.12-.7q.33-.21,1.65-1.12a1.36,1.36,0,0,1,.41.5,1.6,1.6,0,0,1,.25.83,2.54,2.54,0,0,1-.5,1.57,13.46,13.46,0,0,1-4.87,4.46A15.33,15.33,0,0,1,134.7,218a16.73,16.73,0,0,1-12.39-5.33,17.82,17.82,0,0,1-5.2-12.93q0-8.34,4.83-13.55A16,16,0,0,1,134.21,181Zm-.58,3.8a5.84,5.84,0,0,0-3.55,1.16,7.79,7.79,0,0,0-2.4,2.81,15.79,15.79,0,0,0-1.2,3.1,10.11,10.11,0,0,0-.37,2.44c0,.39.17.58.5.58H140q.74,0,.74-1.24a10.71,10.71,0,0,0-1.94-5.87A5.92,5.92,0,0,0,133.63,184.84Z"/><path class="cls-2" d="M170.64,181q5.12,0,7.68,2.69t2.56,9.21v16.28a3.77,3.77,0,0,0,.74,2.52,2.48,2.48,0,0,0,2,.87,5.15,5.15,0,0,0,2.81-1.07c.33.11.5.41.5.91a4.91,4.91,0,0,1-.5,2.48,20.43,20.43,0,0,1-3.3,2.07,8.61,8.61,0,0,1-4,1.07,6,6,0,0,1-3.72-1.41,6.78,6.78,0,0,1-2.4-3.06l-.62.54q-.54.46-1.49,1.12a24.47,24.47,0,0,1-2.15,1.32,13.18,13.18,0,0,1-2.81,1.12,12,12,0,0,1-3.26.45,9.86,9.86,0,0,1-6.73-2.27,7.85,7.85,0,0,1-2.6-6.24,7.61,7.61,0,0,1,.95-3.72,9.87,9.87,0,0,1,2.27-2.85,16.92,16.92,0,0,1,3.55-2.19,33.8,33.8,0,0,1,3.84-1.61q1.61-.54,4.13-1.28t3.51-1.07a1.3,1.3,0,0,0,.74-1.32V191a7.09,7.09,0,0,0-1.32-4.54,4.31,4.31,0,0,0-3.55-1.65,5,5,0,0,0-3.88,1.53,6.18,6.18,0,0,0-1.4,4.34,2.68,2.68,0,0,1-1.24,2.44,5.14,5.14,0,0,1-2.81.78q-3.06,0-4.3-2,0-4,5.41-7.43A20.72,20.72,0,0,1,170.64,181Zm-3.72,31.72a6.4,6.4,0,0,0,3.84-1.16,3.27,3.27,0,0,0,1.61-2.64v-8.43q-.58.25-2.44.83t-2.85,1a22.51,22.51,0,0,0-2.31,1.16,5,5,0,0,0-1.94,1.82,4.55,4.55,0,0,0-.62,2.31,5.09,5.09,0,0,0,1.32,3.88A4.75,4.75,0,0,0,166.92,212.76Z"/><path class="cls-2" d="M214.84,181q4.54,0,6.77,2.73,0,7-4,7a4.92,4.92,0,0,1-3.22-1.65,5.17,5.17,0,0,0-3.55-1.65,4.43,4.43,0,0,0-4,2.6,11,11,0,0,0-1.45,5.41v10.33a34.56,34.56,0,0,0,.58,7.44q.16.58,2.19,1.2a11.68,11.68,0,0,0,2.77.62c.17,0,.26.4.29,1.2a8.6,8.6,0,0,1,0,1.61q-.66-.08-4.38-.33t-5.62-.25q-2,0-5.74.25t-4.42.33a2.42,2.42,0,0,1-.33-1.57q0-1.24.33-1.24a11.52,11.52,0,0,0,3-.62q2-.62,2.19-1.2a27,27,0,0,0,.58-6V193.76q0-3.88-1.32-5.29a4,4,0,0,0-1.86-1.24,9.41,9.41,0,0,0-2-.5c-.52-.05-.78-.14-.78-.25q0-2.4.41-2.48a117.17,117.17,0,0,0,13.3-2.48,5,5,0,0,1,.66-.17c.22,0,.41.19.58.58a2,2,0,0,1,.21,1q0,.37-.12,1.16t-.21,1.65a10.64,10.64,0,0,0-.12,1.12,15.17,15.17,0,0,1,4-4A9.05,9.05,0,0,1,214.84,181Z"/><path class="cls-2" d="M273.49,163l17.35,43.29q1.24,3.3,2.48,6a4,4,0,0,0,2.64,2,11,11,0,0,0,3.14.74c.22,0,.33.5.33,1.49a2.78,2.78,0,0,1-.17,1.24q-9.91-.5-10.41-.5t-10.74.5a2.33,2.33,0,0,1-.33-1.53c0-.8.11-1.2.33-1.2a10.65,10.65,0,0,0,2.73-.5q1.73-.5,2.06-1.16a2.36,2.36,0,0,0,.25-1.07,19,19,0,0,0-1.57-5.7L278.7,199a.91.91,0,0,0-.58-.33q-2.64-.16-7.1-.17t-9.42.25c-.33,0-.5.11-.5.33L258,206.73a23.46,23.46,0,0,0-1.57,5.37,1.84,1.84,0,0,0,.91,1.65,8.27,8.27,0,0,0,2.6.91,14.26,14.26,0,0,0,2.52.41q.25.08.25,1.16a5.39,5.39,0,0,1-.17,1.57q-.41,0-3.88-.25t-5.62-.25q-2.15,0-5.08.21l-4.17.29a1.76,1.76,0,0,1-.33-1.24c0-1,.05-1.49.17-1.49a11.94,11.94,0,0,0,3.18-.7,5.1,5.1,0,0,0,2.77-1.61,39.26,39.26,0,0,0,3.14-6.44L268,169.14q1.9-5,3.06-5.95a2.11,2.11,0,0,1,1.4-.58A1.35,1.35,0,0,1,273.49,163Zm-9.91,30.73q2.89.25,5.95.25,2.89,0,6.77-.25l.17-.33-6.28-16.52-6.77,16.52C263.41,193.65,263.47,193.76,263.58,193.76Z"/><path class="cls-2" d="M322.4,177.07a13,13,0,0,1,5.2-10.45,18.05,18.05,0,0,1,11.73-4.25,28.87,28.87,0,0,1,4,.25q1.73.25,4.83,1t4.25,1a73.72,73.72,0,0,1,1,12.72.9.9,0,0,1-1,.74q-2.23,0-2.4-.74a14.52,14.52,0,0,0-3.55-7.43,9.38,9.38,0,0,0-7.44-3.64,7.62,7.62,0,0,0-5.82,2.15,8.09,8.09,0,0,0-2,5.78,9.32,9.32,0,0,0,.29,2.35,5.81,5.81,0,0,0,1.16,2.19q.87,1.08,1.4,1.78a9.79,9.79,0,0,0,2.07,1.78q1.53,1.08,2.06,1.49t2.48,1.61a24.9,24.9,0,0,0,2.35,1.36,30.41,30.41,0,0,0,2.77,1.78q2.27,1.36,3.18,2t2.64,2.11a11.91,11.91,0,0,1,2.52,2.81,17,17,0,0,1,1.45,3.35,13.9,13.9,0,0,1,.66,4.34,13.42,13.42,0,0,1-5.33,10.91,19.11,19.11,0,0,1-12.35,4.3q-5,0-15.2-2.31a72.23,72.23,0,0,1-1.36-7.48,56,56,0,0,1-.62-5.91q.08-.66,1.32-.66,2.15,0,2.4.66a16.08,16.08,0,0,0,1.16,3.26,24,24,0,0,0,2.27,3.8,10.88,10.88,0,0,0,3.88,3.3,11.62,11.62,0,0,0,5.49,1.28,9.25,9.25,0,0,0,6.44-2.31q2.56-2.31,2.56-6.94a7.19,7.19,0,0,0-.54-2.73,9.57,9.57,0,0,0-1.24-2.23,12.11,12.11,0,0,0-2.07-2q-1.36-1.07-2.27-1.65t-2.68-1.61l-2.52-1.45a5.68,5.68,0,0,0-.91-.66q-2.4-1.49-3.63-2.31a39.85,39.85,0,0,1-3.18-2.44,16.34,16.34,0,0,1-2.93-3,15.62,15.62,0,0,1-1.78-3.47A12.43,12.43,0,0,1,322.4,177.07Z"/><path class="cls-2" d="M395.18,186.57q-1.65,1-5.25,3.72a58.37,58.37,0,0,0-6.57,5.78q2.4,2.56,6,6.69t6,6.77a39.74,39.74,0,0,0,3.3,3.39,10.45,10.45,0,0,0,3.18,1.65,10.05,10.05,0,0,0,2.77.66q.33,0,.33,1.4a4.85,4.85,0,0,1-.08,1.16q-9.09-.41-9.67-.41-1.57,0-3.18.08l-3.55.21-3.1.21a2.24,2.24,0,0,1-.33-1.49c0-.77.11-1.16.33-1.16a5.94,5.94,0,0,0,1.9-.37c.71-.25,1.07-.51,1.07-.79,0-.11,0-.17-.08-.17l-12.06-13.47-1,.25v5.12a33.75,33.75,0,0,0,.66,7.44q.16.58,2.23,1.2a12,12,0,0,0,2.89.62c.17,0,.26.4.29,1.2a4.7,4.7,0,0,1-.12,1.61q-.58-.08-4.38-.33t-5.7-.25q-2,0-5.74.25t-4.42.33a2.42,2.42,0,0,1-.33-1.57q0-1.24.33-1.24a11.52,11.52,0,0,0,3-.62q2-.62,2.19-1.2a27,27,0,0,0,.58-6V172.94a32.61,32.61,0,0,0-.41-5.62q-.41-1.32-4.3-1.32h-.74q-.5,0-.5-1.32t.5-1.32q2.56-.25,4.87-.66t3.84-.83q1.53-.41,2.64-.83t2.35-.83h.17a.89.89,0,0,1,.66.46,2.27,2.27,0,0,1,.41.87,26.62,26.62,0,0,0-1,7.77V196.9a7.47,7.47,0,0,0,2.48-.91q1.73-1.57,3.76-3.26l2.93-2.44q.91-.74,1.82-1.61a7.34,7.34,0,0,0,1.2-1.36,2,2,0,0,0,.29-1q0-.91-1.86-1.12a8.27,8.27,0,0,1-1.86-.29,3.69,3.69,0,0,1-.25-1.45q0-.87.33-1h8q2.23,0,8.76-.33a1.29,1.29,0,0,1,.41.91,3.72,3.72,0,0,1,0,1.24c-.08.39-.21.58-.37.58A10.85,10.85,0,0,0,395.18,186.57Z"/><path class="cls-2" d="M424.59,205.82a30.36,30.36,0,0,0,.66,7.44q.16.58,2.23,1.2a12.15,12.15,0,0,0,2.81.62c.22,0,.34.4.37,1.2a4.7,4.7,0,0,1-.12,1.61q-.58-.08-4.42-.33t-5.66-.25q-2.07,0-5.82.25t-4.34.33a2.42,2.42,0,0,1-.33-1.57q0-1.24.33-1.24a12,12,0,0,0,3-.62q2.06-.62,2.23-1.2a27,27,0,0,0,.58-6V193.76q0-3.88-1.32-5.29a4.59,4.59,0,0,0-1.9-1.24,8.67,8.67,0,0,0-2-.5c-.55-.05-.83-.14-.83-.25q0-2.4.5-2.48a63.42,63.42,0,0,0,6.69-1,64.77,64.77,0,0,0,6.53-1.49,4.79,4.79,0,0,0,.66-.17q.41,0,.66.58a1.53,1.53,0,0,1,.17.91,70.85,70.85,0,0,0-.66,7.1ZM416,171.25a5,5,0,0,1-1.49-3.63,5.08,5.08,0,0,1,5.12-5.08,5,5,0,0,1,3.64,1.49,4.89,4.89,0,0,1,1.49,3.59,5,5,0,0,1-1.49,3.63,5.09,5.09,0,0,1-7.27,0Z"/><path class="cls-2" d="M458.88,181q4.54,0,6.77,2.73,0,7-4,7a4.92,4.92,0,0,1-3.22-1.65,5.17,5.17,0,0,0-3.55-1.65,4.43,4.43,0,0,0-4,2.6,11,11,0,0,0-1.45,5.41v10.33a34.56,34.56,0,0,0,.58,7.44q.16.58,2.19,1.2a11.68,11.68,0,0,0,2.77.62c.17,0,.26.4.29,1.2a8.6,8.6,0,0,1,0,1.61q-.66-.08-4.38-.33t-5.62-.25q-2,0-5.74.25t-4.42.33a2.42,2.42,0,0,1-.33-1.57q0-1.24.33-1.24a11.52,11.52,0,0,0,3-.62q2-.62,2.19-1.2a27,27,0,0,0,.58-6V193.76q0-3.88-1.32-5.29a4,4,0,0,0-1.86-1.24,9.41,9.41,0,0,0-2-.5c-.52-.05-.78-.14-.78-.25q0-2.4.41-2.48a117.17,117.17,0,0,0,13.3-2.48,5,5,0,0,1,.66-.17c.22,0,.41.19.58.58a2,2,0,0,1,.21,1q0,.37-.12,1.16t-.21,1.65a10.64,10.64,0,0,0-.12,1.12,15.17,15.17,0,0,1,4-4A9.05,9.05,0,0,1,458.88,181Z"/><path class="cls-2" d="M475,186.82h-5q-.58,0-.58-2.15a2,2,0,0,1,.08-.74,23.11,23.11,0,0,0,6.36-4.38q1.07-1.07,2.35-2.44t3-3.51a5.89,5.89,0,0,1,1.57.21c.5.14.74.29.74.46v8.1l6,0,4.09,0q.66,0,.66.74a8,8,0,0,1-.83,3.63H483.5v19.91a7.84,7.84,0,0,0,1.4,5,4.72,4.72,0,0,0,3.88,1.74,7.79,7.79,0,0,0,1.74-.21,8.77,8.77,0,0,0,1.49-.45c.38-.17.74-.33,1.07-.5a2.6,2.6,0,0,1,.58-.25q.33-.08.74.74t.33,1.07q-.5,1.16-3.51,2.68a13,13,0,0,1-5.91,1.53,10.42,10.42,0,0,1-7.31-2.77q-3-2.77-3-8.55Z"/><path class="cls-3" d="M456.24,180.11,63.91,159.18a17.75,17.75,0,0,1-16.77-18.69h0a17.75,17.75,0,0,1,18.69-16.77l392.33,20.93a17.75,17.75,0,0,1,16.77,18.69h0A17.75,17.75,0,0,1,456.24,180.11Z"/><path class="cls-1" d="M90.2,138.05q-.27-2-2.7-2.14a3.15,3.15,0,0,0-1.89.38,1.4,1.4,0,0,0-.73,1.12,1.36,1.36,0,0,0,.38,1.09,4.17,4.17,0,0,0,1.31.79l3.23,1.47a6.83,6.83,0,0,1,2.51,1.79,3.55,3.55,0,0,1,.78,2.54,3.93,3.93,0,0,1-1.72,3.18,7,7,0,0,1-4.47,1,6.42,6.42,0,0,1-4-1.46,4.83,4.83,0,0,1-1.64-3.94L84,144a2.27,2.27,0,0,0,1.82,2.47,5.91,5.91,0,0,0,1.54.25,3.46,3.46,0,0,0,1.81-.38,1.45,1.45,0,0,0,.89-1.24,1.66,1.66,0,0,0-.38-1.27,4.23,4.23,0,0,0-1.41-.89l-3-1.36a7.94,7.94,0,0,1-2.61-1.74,3.37,3.37,0,0,1-.8-2.58,3.55,3.55,0,0,1,1.64-2.92,6.54,6.54,0,0,1,4.13-.93,6,6,0,0,1,3.89,1.4,4.77,4.77,0,0,1,1.43,3.4Z"/><path class="cls-1" d="M99.84,140.05a3.71,3.71,0,0,1,3.54-2,3.93,3.93,0,0,1,3.24,1.56,5.83,5.83,0,0,1,.87,3.71l-.36,6.65-2.76-.15.36-6.65a2.69,2.69,0,0,0-.51-1.94,2.24,2.24,0,0,0-1.68-.74,2.35,2.35,0,0,0-1.94.88,4.87,4.87,0,0,0-1,2.91l-.28,5.27-2.76-.15.87-16.07,2.76.15Z"/><path class="cls-1" d="M120.42,142.41a6.38,6.38,0,0,1,.2,1.82,10.52,10.52,0,0,1-.17,1.47l-7.35-.4a4,4,0,0,0,.56,2.29,2.22,2.22,0,0,0,1.87,1,1.83,1.83,0,0,0,2.12-1.39l2.79.15a4.09,4.09,0,0,1-1.71,2.61,5.18,5.18,0,0,1-3.31.85,5,5,0,0,1-3.68-1.84,6.23,6.23,0,0,1-1.33-4.46,6.16,6.16,0,0,1,1.81-4.32,5,5,0,0,1,3.86-1.39,4.42,4.42,0,0,1,3.59,1.86A5.21,5.21,0,0,1,120.42,142.41ZM116,141a2.29,2.29,0,0,0-1.87.66,3.43,3.43,0,0,0-.88,1.91l4.85.26a2.56,2.56,0,0,0-1-2.55A2.3,2.3,0,0,0,116,141Z"/><path class="cls-1" d="M124.29,135.83a1.58,1.58,0,0,1,.51-1.16,2,2,0,0,1,2.52.14,1.76,1.76,0,0,1-.13,2.37,2,2,0,0,1-2.52-.14A1.58,1.58,0,0,1,124.29,135.83Zm.13,3.67,2.76.15-.62,11.41-2.76-.15Z"/><path class="cls-1" d="M138.77,150a3.43,3.43,0,0,1-3.34,1.91,4.7,4.7,0,0,1-3.56-1.86,6.44,6.44,0,0,1-1.28-4.49,6.36,6.36,0,0,1,1.69-4.25,4.56,4.56,0,0,1,3.65-1.42,3.55,3.55,0,0,1,3.12,1.88l.33-6.09,2.79.15-.87,16.07-2.27-.12Zm-2.48-7.6a2.44,2.44,0,0,0-2,.84,3.87,3.87,0,0,0-.92,2.5,3.92,3.92,0,0,0,.66,2.61,2.51,2.51,0,0,0,3.81.38,2.8,2.8,0,0,0,.93-2l.08-1.48a2.86,2.86,0,0,0-.71-2A2.54,2.54,0,0,0,136.29,142.35Z"/><path class="cls-1" d="M149.74,145.64a13.18,13.18,0,0,1,3.11.61l.06-1.12a2.72,2.72,0,0,0-.38-1.79,1.94,1.94,0,0,0-1.54-.66,2.78,2.78,0,0,0-1.7.34,1.44,1.44,0,0,0-.65,1.2l-3-.16a3.08,3.08,0,0,1,1.52-2.74,7.16,7.16,0,0,1,3.88-.66q3.51.19,4.41,2.7a5.16,5.16,0,0,1,.24,2l-.39,7.24-2.41-.13-.13-1.53a3.66,3.66,0,0,1-3.47,1.67,5,5,0,0,1-3.36-1.26,3.39,3.39,0,0,1-1-2.67,2.79,2.79,0,0,1,1.37-2.37A5.92,5.92,0,0,1,149.74,145.64Zm3,2.37a9.9,9.9,0,0,0-2.56-.51q-2.25-.12-2.33,1.38a1.41,1.41,0,0,0,.46,1.12,2.46,2.46,0,0,0,1.63.55,2.5,2.5,0,0,0,1.91-.66A2.81,2.81,0,0,0,152.76,148Z"/><path class="cls-1" d="M173.82,142.57q-.27-2-2.7-2.14a3.15,3.15,0,0,0-1.89.38,1.4,1.4,0,0,0-.73,1.12,1.36,1.36,0,0,0,.38,1.09,4.17,4.17,0,0,0,1.31.79l3.23,1.47a6.83,6.83,0,0,1,2.51,1.79,3.55,3.55,0,0,1,.78,2.54,3.93,3.93,0,0,1-1.72,3.18,7,7,0,0,1-4.47,1,6.42,6.42,0,0,1-4-1.46,4.83,4.83,0,0,1-1.64-3.94l2.74.15a2.27,2.27,0,0,0,1.82,2.47,5.91,5.91,0,0,0,1.54.25,3.46,3.46,0,0,0,1.81-.38,1.45,1.45,0,0,0,.89-1.24,1.66,1.66,0,0,0-.38-1.27,4.23,4.23,0,0,0-1.41-.89l-3-1.36a7.94,7.94,0,0,1-2.61-1.74,3.37,3.37,0,0,1-.8-2.58,3.55,3.55,0,0,1,1.64-2.92,6.54,6.54,0,0,1,4.13-.93,6,6,0,0,1,3.89,1.4,4.77,4.77,0,0,1,1.43,3.4Z"/><path class="cls-1" d="M185.28,142.51a6.32,6.32,0,0,1,2.13.48,4.52,4.52,0,0,1,1.67,1.21,6.2,6.2,0,0,1,1.37,4.63,6.13,6.13,0,0,1-1.86,4.41,5.17,5.17,0,0,1-4,1.29,5.33,5.33,0,0,1-3.85-1.71,6.09,6.09,0,0,1-1.37-4.58,6.15,6.15,0,0,1,1.86-4.46A5.33,5.33,0,0,1,185.28,142.51Zm2.42,6.14a4.36,4.36,0,0,0-.56-2.74,2.34,2.34,0,0,0-1.91-1,2.61,2.61,0,0,0-2.1.79,4,4,0,0,0-.94,2.66,4.31,4.31,0,0,0,.57,2.74,2.36,2.36,0,0,0,1.91,1,2.6,2.6,0,0,0,2.09-.79A4,4,0,0,0,187.7,148.65Z"/><path class="cls-1" d="M194.3,138.6l2.76.15-.87,16.07-2.76-.15Z"/><path class="cls-1" d="M209.82,147.24a6.38,6.38,0,0,1,.2,1.82,10.52,10.52,0,0,1-.17,1.47l-7.35-.4a4,4,0,0,0,.56,2.29,2.22,2.22,0,0,0,1.87,1A1.83,1.83,0,0,0,207,152l2.79.15a4.09,4.09,0,0,1-1.71,2.61,5.18,5.18,0,0,1-3.31.85,5,5,0,0,1-3.68-1.84,6.23,6.23,0,0,1-1.33-4.46,6.16,6.16,0,0,1,1.81-4.32,5,5,0,0,1,3.86-1.39,4.42,4.42,0,0,1,3.59,1.86A5.21,5.21,0,0,1,209.82,147.24Zm-4.47-1.44a2.29,2.29,0,0,0-1.87.66,3.43,3.43,0,0,0-.88,1.91l4.85.26a2.56,2.56,0,0,0-1-2.55A2.3,2.3,0,0,0,205.35,145.8Z"/><path class="cls-1" d="M213.69,140.66a1.58,1.58,0,0,1,.51-1.16,2,2,0,0,1,2.52.14,1.76,1.76,0,0,1-.13,2.37,2,2,0,0,1-2.52-.14A1.58,1.58,0,0,1,213.69,140.66Zm.13,3.67,2.76.15L216,155.88l-2.76-.15Z"/><path class="cls-1" d="M231.27,147.46a3.91,3.91,0,0,1,4-2.25,3.85,3.85,0,0,1,3.09,1.55,5.61,5.61,0,0,1,.88,3.71l-.36,6.65-2.79-.15.36-6.65a2.69,2.69,0,0,0-.51-1.94,2.24,2.24,0,0,0-1.67-.74,2.15,2.15,0,0,0-1.86.86,5.14,5.14,0,0,0-.91,2.86l-.29,5.34-2.76-.15.36-6.65a2.69,2.69,0,0,0-.51-1.94,2.24,2.24,0,0,0-1.68-.74,2.35,2.35,0,0,0-1.94.88,4.87,4.87,0,0,0-1,2.91l-.28,5.27-2.76-.15.61-11.38,2.41.13.2,2a3.77,3.77,0,0,1,3.73-2.08,4.09,4.09,0,0,1,2.34.78A4,4,0,0,1,231.27,147.46Z"/><path class="cls-1" d="M247,150.89a13.18,13.18,0,0,1,3.11.61l.06-1.12a2.72,2.72,0,0,0-.38-1.79,1.94,1.94,0,0,0-1.54-.66,2.78,2.78,0,0,0-1.7.34,1.44,1.44,0,0,0-.65,1.2l-3-.16a3.08,3.08,0,0,1,1.52-2.74,7.16,7.16,0,0,1,3.88-.66q3.51.19,4.41,2.7a5.16,5.16,0,0,1,.24,2l-.39,7.24-2.41-.13-.13-1.53a3.66,3.66,0,0,1-3.47,1.67,5,5,0,0,1-3.36-1.26,3.39,3.39,0,0,1-1-2.67,2.79,2.79,0,0,1,1.37-2.37A5.92,5.92,0,0,1,247,150.89Zm3,2.37a9.9,9.9,0,0,0-2.56-.51q-2.25-.12-2.33,1.38a1.41,1.41,0,0,0,.46,1.12,2.46,2.46,0,0,0,1.63.55,2.5,2.5,0,0,0,1.91-.66A2.81,2.81,0,0,0,250,153.26Z"/><path class="cls-1" d="M259.78,148.81a4.14,4.14,0,0,1,6.83-.52,5.83,5.83,0,0,1,.87,3.71l-.36,6.65-2.76-.15.36-6.65a2.69,2.69,0,0,0-.51-1.94,2.24,2.24,0,0,0-1.68-.74,2.35,2.35,0,0,0-1.94.88,4.87,4.87,0,0,0-1,2.91l-.28,5.27-2.76-.15.61-11.38,2.41.13Z"/><path class="cls-1" d="M271.87,143.8a1.58,1.58,0,0,1,.51-1.16,2,2,0,0,1,2.52.14,1.76,1.76,0,0,1-.13,2.37,2,2,0,0,1-2.52-.14A1.58,1.58,0,0,1,271.87,143.8Zm.13,3.67,2.76.15L274.15,159l-2.76-.15Z"/><path class="cls-1" d="M300.91,152.39a16.34,16.34,0,0,1-2.84,4.71l.38.37a3.76,3.76,0,0,0,.77.61,2.05,2.05,0,0,0,.91.24,1.28,1.28,0,0,0,1-.36,2,2,0,0,0,.52-1.3l2.51.14a4.94,4.94,0,0,1-1.11,3,3.24,3.24,0,0,1-2.74,1,4.83,4.83,0,0,1-2-.56,8.28,8.28,0,0,1-1.93-1.51,8.2,8.2,0,0,1-5.3,1.57,7.35,7.35,0,0,1-4.38-1.58,4,4,0,0,1-1.65-3.42q.16-3,4.49-3.49l-.36-.37a4.47,4.47,0,0,1-1.51-3.44,3.14,3.14,0,0,1,1.48-2.55,6.16,6.16,0,0,1,3.85-.87,6,6,0,0,1,3.64,1.28,3.07,3.07,0,0,1,1.17,2.6,3.63,3.63,0,0,1-1.11,2.51,7.73,7.73,0,0,1-3.06,1.63l2.83,2.85a15.81,15.81,0,0,0,2.69-4.15Zm-10,.87q-2.83.25-2.93,2a2,2,0,0,0,.77,1.7,3.82,3.82,0,0,0,2.36.8,6,6,0,0,0,3.4-.85ZM294,150a2,2,0,0,0,.65-1.34,1.52,1.52,0,0,0-.47-1.25,2.25,2.25,0,0,0-1.47-.54,2.07,2.07,0,0,0-1.51.42,1.61,1.61,0,0,0-.59,1.18,2.7,2.7,0,0,0,1,2.05l.51.52A5.5,5.5,0,0,0,294,150Z"/><path class="cls-1" d="M317.62,146.13l3.47.19,4.17,15.47-2.93-.16-.88-3.34-5.64-.3-1.25,3.22-2.93-.16Zm-1,9.81,4.26.23-1.75-6.65Z"/><path class="cls-1" d="M331.17,152.66a4.14,4.14,0,0,1,6.83-.52,5.83,5.83,0,0,1,.87,3.71l-.36,6.65-2.76-.15.36-6.65a2.69,2.69,0,0,0-.51-1.94,2.24,2.24,0,0,0-1.68-.74,2.35,2.35,0,0,0-1.94.88,4.87,4.87,0,0,0-1,2.91l-.28,5.27-2.76-.15.61-11.38,2.41.13Z"/><path class="cls-1" d="M347.64,151.27a6.32,6.32,0,0,1,2.13.48,4.52,4.52,0,0,1,1.67,1.21,6.2,6.2,0,0,1,1.37,4.63A6.13,6.13,0,0,1,351,162a5.17,5.17,0,0,1-4,1.29,5.33,5.33,0,0,1-3.85-1.71,6.09,6.09,0,0,1-1.37-4.58,6.15,6.15,0,0,1,1.86-4.46A5.33,5.33,0,0,1,347.64,151.27Zm2.42,6.14a4.36,4.36,0,0,0-.56-2.74,2.34,2.34,0,0,0-1.91-1,2.61,2.61,0,0,0-2.1.79,4,4,0,0,0-.94,2.66,4.31,4.31,0,0,0,.57,2.74,2.36,2.36,0,0,0,1.91,1,2.6,2.6,0,0,0,2.09-.79A4,4,0,0,0,350.06,157.42Z"/><path class="cls-1" d="M359,154.17a4.14,4.14,0,0,1,6.83-.52,5.83,5.83,0,0,1,.87,3.71l-.36,6.65-2.76-.15.36-6.65a2.69,2.69,0,0,0-.51-1.94,2.24,2.24,0,0,0-1.68-.74,2.35,2.35,0,0,0-1.94.88,4.87,4.87,0,0,0-1,2.91l-.28,5.27-2.76-.15.61-11.38,2.41.13Z"/><path class="cls-1" d="M372.4,152.92l2.3,8.35,2.83-8.07,2.81.15-5.08,13.21a6.92,6.92,0,0,1-1.81,2.84,3.52,3.52,0,0,1-2.52.76,6.85,6.85,0,0,1-3-.91l.13-2.44a4.56,4.56,0,0,0,2.42.91,1.66,1.66,0,0,0,1.38-.58,5.16,5.16,0,0,0,.95-1.66l.41-1.08-4-11.63Z"/><path class="cls-1" d="M392.8,156.18a3.91,3.91,0,0,1,4-2.25,3.85,3.85,0,0,1,3.09,1.55,5.61,5.61,0,0,1,.88,3.71l-.36,6.65-2.79-.15L398,159a2.69,2.69,0,0,0-.51-1.94,2.24,2.24,0,0,0-1.67-.74,2.15,2.15,0,0,0-1.86.86,5.14,5.14,0,0,0-.91,2.86l-.29,5.34-2.76-.15.36-6.65a2.69,2.69,0,0,0-.51-1.94,2.24,2.24,0,0,0-1.68-.74,2.35,2.35,0,0,0-1.94.88,4.87,4.87,0,0,0-1,2.91L385,165l-2.76-.15.61-11.38,2.41.13.2,2a3.77,3.77,0,0,1,3.73-2.08,4.09,4.09,0,0,1,2.34.78A4,4,0,0,1,392.8,156.18Z"/><path class="cls-1" d="M409.52,154.61a6.32,6.32,0,0,1,2.13.48,4.52,4.52,0,0,1,1.67,1.21,6.2,6.2,0,0,1,1.37,4.63,6.13,6.13,0,0,1-1.86,4.41,5.17,5.17,0,0,1-4,1.29,5.33,5.33,0,0,1-3.85-1.71,6.09,6.09,0,0,1-1.37-4.58,6.15,6.15,0,0,1,1.86-4.46A5.33,5.33,0,0,1,409.52,154.61Zm2.42,6.14a4.36,4.36,0,0,0-.56-2.74,2.34,2.34,0,0,0-1.91-1,2.61,2.61,0,0,0-2.1.79,4,4,0,0,0-.94,2.66,4.31,4.31,0,0,0,.57,2.74,2.36,2.36,0,0,0,1.91,1,2.6,2.6,0,0,0,2.09-.79A4,4,0,0,0,411.94,160.76Z"/><path class="cls-1" d="M425.35,165.12a3.61,3.61,0,0,1-3.59,2.08q-3-.16-3.85-2.58a5,5,0,0,1-.24-2l.39-7.26,2.76.15-.38,7a2.31,2.31,0,0,0,.45,1.7,1.78,1.78,0,0,0,1.29.62,3.47,3.47,0,0,0,1.34-.15,2.56,2.56,0,0,0,1-.62,4.18,4.18,0,0,0,1.06-2.64l.3-5.62,2.76.15L428,167.33l-2.76-.15Z"/><path class="cls-1" d="M434.09,164.19q0,1.62,2.28,1.74a2.57,2.57,0,0,0,1.48-.31,1.1,1.1,0,0,0,.62-.87,1,1,0,0,0-.31-.82,3.48,3.48,0,0,0-1.07-.57l-2.43-1q-2.71-1.11-2.59-3.29a2.7,2.7,0,0,1,1.43-2.26,6.15,6.15,0,0,1,3.54-.69,5.24,5.24,0,0,1,3.32,1.14,3.13,3.13,0,0,1,1.1,2.48l-2.6-.14a1.14,1.14,0,0,0-.49-.92,2.53,2.53,0,0,0-1.39-.4,2.4,2.4,0,0,0-1.44.29,1,1,0,0,0-.55.8q0,.82,1.32,1.29l2.64,1.15a5.36,5.36,0,0,1,2,1.25,2.39,2.39,0,0,1,.62,1.83,3,3,0,0,1-1.47,2.36,5.79,5.79,0,0,1-3.71.88,6.12,6.12,0,0,1-3.6-1.19,3.31,3.31,0,0,1-1.25-2.87Z"/></svg>