<svg id="Layer_1" data-name="Layer 1" xmlns="http://www.w3.org/2000/svg" viewBox="0 0 892.59 156.62"><defs><style>.cls-1,.cls-3{fill:#fff;stroke:#1414ef;stroke-miterlimit:10;}.cls-1{stroke-width:1.2px;}.cls-2{fill:#1414ef;}</style></defs><title>title</title><path class="cls-1" d="M46.15,15.41a24.87,24.87,0,0,0-.66-6.94q-.33-.66-2.31-1.28a11.09,11.09,0,0,0-3-.62q-.33,0-.33-1.24A3.33,3.33,0,0,1,40,3.84q.41,0,4.58.25t6.4.25q.66,0,10.57-.5a4.25,4.25,0,0,1,.25,1.32c0,.94-.11,1.4-.33,1.4a13.46,13.46,0,0,0-3,.66q-2.23.66-2.4,1.24a30.67,30.67,0,0,0-.66,7.27V46.8a30.64,30.64,0,0,0,.74,7.44q.16.58,2.27,1.2a12.65,12.65,0,0,0,2.85.62c.22,0,.33.52.33,1.57a3.68,3.68,0,0,1-.17,1.16q-9.91-.5-10.49-.5-1.65,0-3.47.08l-4,.21L40,58.78a1.61,1.61,0,0,1-.33-1.16c0-1,.11-1.57.33-1.57a13.19,13.19,0,0,0,3.1-.58q2.11-.58,2.35-1.24a28.92,28.92,0,0,0,.66-6.94Z"/><path class="cls-1" d="M113.81,4,131.16,47.3q1.24,3.3,2.48,6a4,4,0,0,0,2.64,2,11,11,0,0,0,3.14.74q.33,0,.33,1.49a2.78,2.78,0,0,1-.17,1.24q-9.91-.5-10.41-.5t-10.74.5a2.33,2.33,0,0,1-.33-1.53c0-.8.11-1.2.33-1.2a10.65,10.65,0,0,0,2.73-.5q1.73-.5,2.07-1.16a2.36,2.36,0,0,0,.25-1.07,19,19,0,0,0-1.57-5.7L119,39.95a.91.91,0,0,0-.58-.33q-2.64-.16-7.1-.17t-9.42.25c-.33,0-.5.11-.5.33l-3.14,7.68a23.45,23.45,0,0,0-1.57,5.37,1.84,1.84,0,0,0,.91,1.65,8.27,8.27,0,0,0,2.6.91,14.26,14.26,0,0,0,2.52.41q.25.08.25,1.16a5.41,5.41,0,0,1-.17,1.57q-.41,0-3.88-.25t-5.62-.25q-2.15,0-5.08.21l-4.17.29a1.76,1.76,0,0,1-.33-1.24q0-1.49.17-1.49a11.94,11.94,0,0,0,3.18-.7,5.1,5.1,0,0,0,2.77-1.61A39.26,39.26,0,0,0,93,47.3l15.37-37.18q1.9-5,3.06-5.95a2.11,2.11,0,0,1,1.4-.58A1.35,1.35,0,0,1,113.81,4Zm-9.91,30.73q2.89.25,5.95.25,2.89,0,6.77-.25l.17-.33L110.5,17.89l-6.77,16.52C103.73,34.63,103.78,34.74,103.89,34.74Z"/><path class="cls-1" d="M171.55,22a8.92,8.92,0,0,1,5.37,1.61,9.66,9.66,0,0,1,3.3,4.17,19.48,19.48,0,0,1,6-4.13A18.56,18.56,0,0,1,194,22a9.38,9.38,0,0,1,5.08,1.32,9.12,9.12,0,0,1,3.3,3.68,19.44,19.44,0,0,1,1.73,5.12,31.48,31.48,0,0,1,.54,6V46.8a34.58,34.58,0,0,0,.58,7.44q.16.58,2.23,1.2a12.15,12.15,0,0,0,2.81.62c.17,0,.26.4.29,1.2a4.68,4.68,0,0,1-.12,1.61q-.58-.08-4.34-.33t-5.66-.25q-2,0-5.66.25t-4.42.33a3.08,3.08,0,0,1-.25-1.57q0-1.24.25-1.24a11.09,11.09,0,0,0,3-.62q2-.62,2.15-1.2a25.71,25.71,0,0,0,.58-5.78V40q0-12-7.68-12a7.52,7.52,0,0,0-4.54,1.32,5.15,5.15,0,0,0-2.15,2.56c0,.17,0,.39,0,.66a1.61,1.61,0,0,0,0,.66,40.4,40.4,0,0,1,.25,5.12v8.76a32.49,32.49,0,0,0,.58,7.1q.16.58,2.23,1.2a12.15,12.15,0,0,0,2.81.62c.17,0,.26.4.29,1.2a4.69,4.69,0,0,1-.12,1.61q-.58-.08-4.34-.33t-5.66-.25q-2,0-5.66.25t-4.42.33a3.08,3.08,0,0,1-.25-1.57q0-1.24.25-1.24a11.09,11.09,0,0,0,3-.62q2-.62,2.15-1.2a27,27,0,0,0,.58-6V40.28q0-6.44-1.9-9.33A6.29,6.29,0,0,0,165.85,28a7.91,7.91,0,0,0-4.54,1.4,3.9,3.9,0,0,0-2.07,3.14V46.8a30.37,30.37,0,0,0,.66,7.44q.16.58,2.15,1.2a11.21,11.21,0,0,0,2.73.62c.22,0,.34.4.37,1.2a4.69,4.69,0,0,1-.12,1.61q-.66-.08-4.34-.33t-5.58-.25q-2.07,0-5.78.25t-4.38.33a2.42,2.42,0,0,1-.33-1.57q0-1.24.33-1.24a12,12,0,0,0,3-.62q2.06-.62,2.23-1.2a27,27,0,0,0,.58-6V34.74q0-3.88-1.32-5.29a4,4,0,0,0-1.86-1.24,9.31,9.31,0,0,0-2-.5c-.55-.05-.83-.14-.83-.25q0-2.4.5-2.48a114.56,114.56,0,0,0,13.22-2.48.53.53,0,0,1,.25-.12,1.75,1.75,0,0,1,.41,0q.41,0,.66.58a1.52,1.52,0,0,1,.17.91,28.17,28.17,0,0,0-.33,3c0,.22.05.36.17.41a1.23,1.23,0,0,0,.41-.25,18.32,18.32,0,0,1,5.08-3.47A14.46,14.46,0,0,1,171.55,22Z"/><path class="cls-1" d="M242.19,4.34q1.49,0,11.4-.5a3.82,3.82,0,0,1,.12,1.49c0,.77-.12,1.16-.29,1.16a9.13,9.13,0,0,0-3,.58q-1.65.58-1.65,1.73a5.18,5.18,0,0,0,.74,2.15l8.76,16q.41.41.83-.17,3.55-5.29,6.86-10.91t3.3-7.1q0-.91-1.53-1.61a9.71,9.71,0,0,0-4-.7q-.33,0-.33-1.16a2.85,2.85,0,0,1,.25-1.49q8.34.5,9.91.5,1.9,0,3.43-.08t3.14-.21l2.52-.21a5.47,5.47,0,0,1,.17,1.32c0,.88-.11,1.32-.33,1.32a11.49,11.49,0,0,0-3.43.74,6.72,6.72,0,0,0-3.18,2q-2.4,3.55-8.59,13.59t-6.2,11.11V46.8a31.6,31.6,0,0,0,.66,7.44q.16.58,2.27,1.28a11.59,11.59,0,0,0,2.77.7q.33,0,.33,1.32a4.3,4.3,0,0,1-.17,1.32l-3.14-.25q-2.07-.17-3.8-.25t-3.39-.08q-2.23,0-6.07.25t-4.75.33a1.91,1.91,0,0,1-.33-1.32q0-1.32.25-1.32a11.27,11.27,0,0,0,3.06-.66q2.06-.66,2.31-1.32a29.5,29.5,0,0,0,.66-7.27V34.74a5.18,5.18,0,0,0-.54-1.61q-.54-1.2-1.86-3.64t-2.31-4.21l-3.22-5.74-3.3-5.87q-2.4-4.46-4.3-5.7a8.27,8.27,0,0,0-2.44-1,9.87,9.87,0,0,0-2.35-.46c-.17,0-.26-.27-.29-.83a2.53,2.53,0,0,1,.12-1.16Q233.27,4.34,242.19,4.34Z"/><path class="cls-1" d="M304.48,22a18.21,18.21,0,0,1,13.26,5.41,17.7,17.7,0,0,1,5.49,13.09,18.71,18.71,0,0,1-37.42,0,17.8,17.8,0,0,1,5.41-13.14A18.1,18.1,0,0,1,304.48,22Zm-1.07,3.88a6.65,6.65,0,0,0-6,3.76,17.77,17.77,0,0,0-2.15,9,24.09,24.09,0,0,0,2.69,11.65q2.68,5,7.48,5a6.73,6.73,0,0,0,6.07-3.8,17.57,17.57,0,0,0,2.19-8.92,28.36,28.36,0,0,0-1.07-8,14.57,14.57,0,0,0-3.47-6.16A7.66,7.66,0,0,0,303.41,25.9Z"/><path class="cls-1" d="M363.8,30.94V47.3a18.31,18.31,0,0,0,.66,5.78,1.71,1.71,0,0,0,.95.66,6.4,6.4,0,0,0,1.45.33,12.26,12.26,0,0,0,1.36.08,1.52,1.52,0,0,1,.7.08c.22.06.33.3.33.74a6.3,6.3,0,0,1-.17,1.12c-.11.52-.28.79-.5.79a19,19,0,0,0-2.93.29l-3.43.58q-1.65.29-3.14.62t-3.3.66q-.58,0-.58-1.32V54.07q-.08-.41-.25-.41a18.44,18.44,0,0,1-5,3.72A13.84,13.84,0,0,1,343.39,59a8.65,8.65,0,0,1-4.92-1.41,10,10,0,0,1-3.3-3.63,17.76,17.76,0,0,1-1.73-4.79A25.22,25.22,0,0,1,332.9,44V34.74q0-3.88-1.32-5.29a4.59,4.59,0,0,0-1.9-1.24,8.68,8.68,0,0,0-2-.5c-.55-.05-.83-.14-.83-.25q0-2.4.41-2.48a62.33,62.33,0,0,0,6.77-1,64.76,64.76,0,0,0,6.53-1.49,1.34,1.34,0,0,0,.33-.08,1.41,1.41,0,0,1,.33-.08q.41,0,.62.58a2.94,2.94,0,0,1,.21.91q-.74,5.62-.74,7.27V41q0,6.44,1.82,9.25T349,53.08a6.48,6.48,0,0,0,4.46-1.61,4.4,4.4,0,0,0,1.82-3.1V34.74q0-3.88-1.32-5.29a4,4,0,0,0-1.86-1.24,9.31,9.31,0,0,0-2-.5c-.55-.05-.83-.14-.83-.25q0-2.4.5-2.48a63.43,63.43,0,0,0,6.69-1A64.78,64.78,0,0,0,363,22.51a4.78,4.78,0,0,0,.66-.17q.41,0,.66.58a1.52,1.52,0,0,1,.17.91Q363.79,29.46,363.8,30.94Z"/><path class="cls-1" d="M397.75,22q4.54,0,6.77,2.73,0,7-4,7a4.91,4.91,0,0,1-3.22-1.65,5.17,5.17,0,0,0-3.55-1.65,4.43,4.43,0,0,0-4,2.6,11,11,0,0,0-1.45,5.41V46.8a34.58,34.58,0,0,0,.58,7.44q.16.58,2.19,1.2a11.67,11.67,0,0,0,2.77.62c.17,0,.26.4.29,1.2a8.62,8.62,0,0,1,0,1.61q-.66-.08-4.38-.33t-5.62-.25q-2,0-5.74.25t-4.42.33a2.42,2.42,0,0,1-.33-1.57q0-1.24.33-1.24a11.52,11.52,0,0,0,3-.62q2-.62,2.19-1.2a27,27,0,0,0,.58-6V34.74q0-3.88-1.32-5.29a4,4,0,0,0-1.86-1.24,9.41,9.41,0,0,0-2-.5c-.52-.05-.78-.14-.78-.25q0-2.4.41-2.48a117.19,117.19,0,0,0,13.3-2.48,5,5,0,0,1,.66-.17c.22,0,.41.19.58.58a2,2,0,0,1,.21,1q0,.37-.12,1.16t-.21,1.65a10.57,10.57,0,0,0-.12,1.12,15.17,15.17,0,0,1,4-4A9.05,9.05,0,0,1,397.75,22Z"/><path class="cls-1" d="M474.75,43.5a46.19,46.19,0,0,1-1.24,6.4q-1.24,5.33-1.9,5.66Q464.42,59,452.44,59a24.8,24.8,0,0,1-18.59-8,26.62,26.62,0,0,1-7.68-19.08A28.4,28.4,0,0,1,434,11.82a25.43,25.43,0,0,1,19.33-8.39,91,91,0,0,1,19.5,2.23q.25.08.5,5.41t.25,6.65q0,1.24-2,1.24a2.65,2.65,0,0,1-1.16-.33,11.53,11.53,0,0,0-1.2-3.06,21.16,21.16,0,0,0-2.6-3.55,12.58,12.58,0,0,0-5.12-3.26,22.13,22.13,0,0,0-7.85-1.28,14.34,14.34,0,0,0-12.6,6.69,28,28,0,0,0-4.5,16q0,10.41,5.08,17.64T456,55.06q7.35,0,11.65-4.63a11.33,11.33,0,0,0,1.94-3.1q.87-1.94,1.32-3.26t.62-1.32Q474.41,42.75,474.75,43.5Z"/><path class="cls-1" d="M506.14,22q10.57,0,10.57,16.28V46.8a30.35,30.35,0,0,0,.66,7.44q.08.58,2.19,1.2a12.65,12.65,0,0,0,2.85.62c.17,0,.26.4.29,1.2a8.62,8.62,0,0,1,0,1.61q-.58-.08-4.42-.33t-5.66-.25q-2.07,0-5.58.25t-4.34.33a3.08,3.08,0,0,1-.25-1.57q0-1.24.25-1.24a9.86,9.86,0,0,0,2.85-.62q1.86-.62,2.11-1.2a31.29,31.29,0,0,0,.5-6v-8.1q0-6.86-1.86-9.46T500.36,28a7.91,7.91,0,0,0-4.54,1.4,3.9,3.9,0,0,0-2.07,3.14V46.8a30.35,30.35,0,0,0,.66,7.44q.16.58,2.19,1.2a11.67,11.67,0,0,0,2.77.62c.17,0,.26.4.29,1.2a4.68,4.68,0,0,1-.12,1.61q-.66-.08-4.34-.33t-5.58-.25q-2,0-5.74.25t-4.42.33a2.42,2.42,0,0,1-.33-1.57q0-1.24.33-1.24a11.52,11.52,0,0,0,3-.62q2-.62,2.19-1.2a26.56,26.56,0,0,0,.58-5.95V13.92a32.61,32.61,0,0,0-.41-5.62Q484.41,7,480.53,7h-.74q-.5,0-.5-1.32t.5-1.32q2.56-.25,4.87-.66t3.84-.83Q490,2.44,491.14,2t2.35-.83h.17a.89.89,0,0,1,.66.46,2.27,2.27,0,0,1,.41.87,26.62,26.62,0,0,0-1,7.77V27q0,.5.33.5c.05,0,.17-.08.33-.25a15.74,15.74,0,0,1,5.08-3.59A15.22,15.22,0,0,1,506.14,22Z"/><path class="cls-1" d="M541.58,46.8a30.37,30.37,0,0,0,.66,7.44q.16.58,2.23,1.2a12.15,12.15,0,0,0,2.81.62c.22,0,.34.4.37,1.2a4.69,4.69,0,0,1-.12,1.61q-.58-.08-4.42-.33t-5.66-.25q-2.07,0-5.82.25t-4.34.33a2.42,2.42,0,0,1-.33-1.57q0-1.24.33-1.24a12,12,0,0,0,3-.62q2.06-.62,2.23-1.2a27,27,0,0,0,.58-6V34.74q0-3.88-1.32-5.29a4.59,4.59,0,0,0-1.9-1.24,8.68,8.68,0,0,0-2-.5c-.55-.05-.83-.14-.83-.25q0-2.4.5-2.48a63.43,63.43,0,0,0,6.69-1,64.79,64.79,0,0,0,6.53-1.49,4.78,4.78,0,0,0,.66-.17q.41,0,.66.58a1.52,1.52,0,0,1,.17.91,70.82,70.82,0,0,0-.66,7.1ZM533,12.23a5,5,0,0,1-1.49-3.63A4.89,4.89,0,0,1,533,5a5.12,5.12,0,0,1,8.76,3.59,5,5,0,0,1-1.49,3.63,5.09,5.09,0,0,1-7.27,0Z"/><path class="cls-1" d="M566,46.64a33.88,33.88,0,0,0,.58,7.44q.16.58,2,1.28a9,9,0,0,0,2.52.7c.17,0,.26.39.29,1.16a4.5,4.5,0,0,1-.12,1.57l-3.1-.21-3.51-.21q-1.57-.08-3-.08-1.57,0-3.14.08l-3.47.21-3.14.21a2.33,2.33,0,0,1-.33-1.53c0-.8.11-1.2.33-1.2a8.83,8.83,0,0,0,2.77-.7q1.86-.7,2-1.28a27.4,27.4,0,0,0,.66-6.11V13.59a28.8,28.8,0,0,0-.5-5.62q-.41-1.32-4.13-1.32H552q-.5,0-.5-1,0-1.32.5-1.32,2.56-.25,4.87-.66t3.84-.83q1.53-.41,2.64-.78t1.78-.62l.58-.25h.17c.22,0,.45.17.7.5a2.53,2.53,0,0,1,.45.83,26.11,26.11,0,0,0-1,7.77Z"/><path class="cls-1" d="M594.62,21.85a14.2,14.2,0,0,1,6,1.16q.41,0,.41-1.32V13.92a28.8,28.8,0,0,0-.5-5.62Q600.15,7,596.27,7h-.66q-.5,0-.5-1.32t.5-1.32q2.48-.25,4.83-.66t3.88-.83Q605.85,2.44,607,2l1.69-.62a4.26,4.26,0,0,1,.66-.21h.17a.89.89,0,0,1,.66.46,1.5,1.5,0,0,1,.33.87,31.62,31.62,0,0,0-.83,7.77V46.64a30.28,30.28,0,0,0,.5,6.11,1.22,1.22,0,0,0,.83.91,5.06,5.06,0,0,0,1.57.41q.83.08,1.57.12l.83,0a1.73,1.73,0,0,1,.17,1q0,1.65-.5,1.65-1.16.08-2.93.33t-3.47.54l-3.22.58q-1.53.29-3.43.7-.5,0-.5-1.41v-1.4a.37.37,0,0,0-.12-.33c-.08-.05-.15-.05-.21,0a13.79,13.79,0,0,1-8.59,3.06A16,16,0,0,1,580.49,54a16.68,16.68,0,0,1-5-12.35,19.37,19.37,0,0,1,5.66-14A18.09,18.09,0,0,1,594.62,21.85Zm-.74,4a7.23,7.23,0,0,0-6.61,3.72q-2.23,3.72-2.23,10,0,7,2.56,10.95a8.11,8.11,0,0,0,7.19,3.92A6.86,6.86,0,0,0,599.33,53a4.58,4.58,0,0,0,1.73-3.68V31.93a5.74,5.74,0,0,0-.29-1.73,7.71,7.71,0,0,0-1-1.94,5.28,5.28,0,0,0-2.23-1.73A8.77,8.77,0,0,0,593.87,25.82Z"/><path class="cls-1" d="M624.36,59.86a7.33,7.33,0,0,0-1.24-3.43,7.45,7.45,0,0,1-1.24-3.59,5,5,0,0,1,1.73-3.47,6.14,6.14,0,0,1,4.54-1.74,5.34,5.34,0,0,1,2.64.5A12.88,12.88,0,0,1,632,53.91a14.82,14.82,0,0,1-.66,4,23.73,23.73,0,0,1-3.55,7.64,37.06,37.06,0,0,1-7,6.73h-.08q-.41,0-1.16-.87a2.49,2.49,0,0,1-.74-1.45,11.94,11.94,0,0,1,1.4-1.32A15.14,15.14,0,0,0,623,65,9.9,9.9,0,0,0,624.36,59.86Z"/><path class="cls-1" d="M660.21,46.72V15.49a26.17,26.17,0,0,0-.58-6.77q-.25-.91-2.31-1.49a13,13,0,0,0-3.3-.58q-.33,0-.33-1.24A2.25,2.25,0,0,1,654,3.93q5.45.25,11,.25,4.21,0,7.1,0t5,0a24.47,24.47,0,0,1,11.73,3,12.17,12.17,0,0,1,4.59,4.42,12.53,12.53,0,0,1,1.78,6.69,9.68,9.68,0,0,1-1.73,5.54,13.35,13.35,0,0,1-3.26,3.59,13.58,13.58,0,0,1-2.6,1.45q-.66.25-.33.5,3.06.5,6.82,4.34a13,13,0,0,1,3.76,9.46,13.33,13.33,0,0,1-5.74,11.32q-5.74,4.21-15.24,4.13l-11.73-.08-11,.33a2.16,2.16,0,0,1-.25-1.32q0-1.4.25-1.4a13.59,13.59,0,0,0,3.14-.54q2.06-.54,2.4-1.28Q660.21,52.5,660.21,46.72Zm18.92-19.41q6-1.32,6-8.1,0-11.15-9.5-11.15a22.1,22.1,0,0,0-5.29.41.83.83,0,0,0-.66.91l-.17,7.93V27q0,.83,5,.83A16.34,16.34,0,0,0,679.13,27.31ZM687.72,44a12.94,12.94,0,0,0-2.93-8.72q-2.93-3.43-9.46-3.43a34.4,34.4,0,0,0-5.12.41,1.8,1.8,0,0,0-.66,1.65V49.28q0,3.47,1,4.3t5.29.83a17,17,0,0,0,3.55-.37,17.66,17.66,0,0,0,3.76-1.32,7.44,7.44,0,0,0,3.3-3.22A11,11,0,0,0,687.72,44Z"/><path class="cls-1" d="M738.37,30.94V47.3a18.31,18.31,0,0,0,.66,5.78,1.71,1.71,0,0,0,.95.66,6.4,6.4,0,0,0,1.45.33,12.26,12.26,0,0,0,1.36.08,1.52,1.52,0,0,1,.7.08c.22.06.33.3.33.74a6.3,6.3,0,0,1-.17,1.12c-.11.52-.28.79-.5.79a19,19,0,0,0-2.93.29l-3.43.58q-1.65.29-3.14.62t-3.3.66q-.58,0-.58-1.32V54.07q-.08-.41-.25-.41a18.44,18.44,0,0,1-5,3.72A13.84,13.84,0,0,1,718,59,8.65,8.65,0,0,1,713,57.63a10,10,0,0,1-3.3-3.63A17.76,17.76,0,0,1,708,49.2a25.22,25.22,0,0,1-.54-5.21V34.74q0-3.88-1.32-5.29a4.59,4.59,0,0,0-1.9-1.24,8.68,8.68,0,0,0-2-.5c-.55-.05-.83-.14-.83-.25q0-2.4.41-2.48a62.33,62.33,0,0,0,6.77-1,64.76,64.76,0,0,0,6.53-1.49,1.34,1.34,0,0,0,.33-.08,1.41,1.41,0,0,1,.33-.08q.41,0,.62.58a2.94,2.94,0,0,1,.21.91q-.74,5.62-.74,7.27V41q0,6.44,1.82,9.25t5.87,2.81A6.48,6.48,0,0,0,728,51.47a4.4,4.4,0,0,0,1.82-3.1V34.74q0-3.88-1.32-5.29a4,4,0,0,0-1.86-1.24,9.31,9.31,0,0,0-2-.5c-.55-.05-.83-.14-.83-.25q0-2.4.5-2.48A63.43,63.43,0,0,0,731,24a64.78,64.78,0,0,0,6.53-1.49,4.78,4.78,0,0,0,.66-.17q.41,0,.66.58a1.52,1.52,0,0,1,.17.91Q738.36,29.46,738.37,30.94Z"/><path class="cls-1" d="M752.91,27.8h-5q-.58,0-.58-2.15a2.06,2.06,0,0,1,.08-.74,23.1,23.1,0,0,0,6.36-4.38q1.07-1.07,2.35-2.44t3-3.51a5.88,5.88,0,0,1,1.57.21c.5.14.74.29.74.46v8.1l6,0,4.09,0q.66,0,.66.74a8,8,0,0,1-.83,3.63h-9.91V47.71a7.84,7.84,0,0,0,1.4,5,4.72,4.72,0,0,0,3.88,1.74,7.79,7.79,0,0,0,1.73-.21,8.77,8.77,0,0,0,1.49-.45q.58-.25,1.07-.5a2.59,2.59,0,0,1,.58-.25q.33-.08.74.74t.33,1.07q-.5,1.16-3.51,2.68a13,13,0,0,1-5.91,1.53,10.42,10.42,0,0,1-7.31-2.77q-3-2.77-3-8.55Z"/><path class="cls-1" d="M800.66,15.41A24.87,24.87,0,0,0,800,8.47q-.33-.66-2.31-1.28a11.09,11.09,0,0,0-3-.62q-.33,0-.33-1.24a3.33,3.33,0,0,1,.17-1.49q.41,0,4.58.25t6.4.25q.66,0,10.57-.5a4.25,4.25,0,0,1,.25,1.32c0,.94-.11,1.4-.33,1.4a13.46,13.46,0,0,0-3,.66q-2.23.66-2.4,1.24a30.67,30.67,0,0,0-.66,7.27V46.8a30.64,30.64,0,0,0,.74,7.44q.16.58,2.27,1.2a12.65,12.65,0,0,0,2.85.62c.22,0,.33.52.33,1.57a3.68,3.68,0,0,1-.17,1.16q-9.91-.5-10.49-.5-1.65,0-3.47.08l-4,.21-3.51.21a1.61,1.61,0,0,1-.33-1.16c0-1,.11-1.57.33-1.57a13.19,13.19,0,0,0,3.1-.58q2.11-.58,2.35-1.24a28.92,28.92,0,0,0,.66-6.94Z"/><path class="cls-1" d="M69.86,81,87.21,124.3q1.24,3.3,2.48,6a4,4,0,0,0,2.64,2,11,11,0,0,0,3.14.74q.33,0,.33,1.49a2.78,2.78,0,0,1-.17,1.24q-9.91-.5-10.41-.5t-10.74.5a2.33,2.33,0,0,1-.33-1.53c0-.8.11-1.2.33-1.2a10.65,10.65,0,0,0,2.73-.5q1.73-.5,2.07-1.16a2.36,2.36,0,0,0,.25-1.07,19,19,0,0,0-1.57-5.7l-2.89-7.68a.91.91,0,0,0-.58-.33q-2.64-.16-7.1-.17T58,116.7c-.33,0-.5.11-.5.33l-3.14,7.68a23.45,23.45,0,0,0-1.57,5.37,1.84,1.84,0,0,0,.91,1.65,8.27,8.27,0,0,0,2.6.91,14.26,14.26,0,0,0,2.52.41q.25.08.25,1.16a5.41,5.41,0,0,1-.17,1.57q-.41,0-3.88-.25t-5.62-.25q-2.15,0-5.08.21l-4.17.29a1.76,1.76,0,0,1-.33-1.24q0-1.49.17-1.49a11.94,11.94,0,0,0,3.18-.7,5.1,5.1,0,0,0,2.77-1.61A39.26,39.26,0,0,0,49,124.3L64.41,87.12q1.9-5,3.06-5.95a2.11,2.11,0,0,1,1.4-.58A1.35,1.35,0,0,1,69.86,81Zm-9.91,30.73q2.89.25,5.95.25,2.89,0,6.77-.25l.17-.33L66.55,94.89l-6.77,16.52C59.78,111.63,59.83,111.74,59.94,111.74Z"/><path class="cls-1" d="M127.6,99a8.92,8.92,0,0,1,5.37,1.61,9.66,9.66,0,0,1,3.3,4.17,19.48,19.48,0,0,1,6-4.13A18.56,18.56,0,0,1,150.08,99a9.38,9.38,0,0,1,5.08,1.32,9.12,9.12,0,0,1,3.3,3.68,19.44,19.44,0,0,1,1.73,5.12,31.48,31.48,0,0,1,.54,6v8.67a34.58,34.58,0,0,0,.58,7.44q.16.58,2.23,1.2a12.15,12.15,0,0,0,2.81.62c.17,0,.26.4.29,1.2a4.68,4.68,0,0,1-.12,1.61q-.58-.08-4.34-.33t-5.66-.25q-2,0-5.66.25t-4.42.33a3.08,3.08,0,0,1-.25-1.57q0-1.24.25-1.24a11.09,11.09,0,0,0,3-.62q2-.62,2.15-1.2a25.71,25.71,0,0,0,.58-5.78V117q0-12-7.68-12a7.52,7.52,0,0,0-4.54,1.32,5.15,5.15,0,0,0-2.15,2.56c0,.17,0,.39,0,.66a1.61,1.61,0,0,0,0,.66,40.4,40.4,0,0,1,.25,5.12v8.76a32.49,32.49,0,0,0,.58,7.1q.16.58,2.23,1.2a12.15,12.15,0,0,0,2.81.62c.17,0,.26.4.29,1.2a4.69,4.69,0,0,1-.12,1.61q-.58-.08-4.34-.33t-5.66-.25q-2,0-5.66.25t-4.42.33a3.08,3.08,0,0,1-.25-1.57q0-1.24.25-1.24a11.09,11.09,0,0,0,3-.62q2-.62,2.15-1.2a27,27,0,0,0,.58-6v-7.93q0-6.44-1.9-9.33A6.29,6.29,0,0,0,121.9,105a7.91,7.91,0,0,0-4.54,1.4,3.9,3.9,0,0,0-2.07,3.14V123.8a30.37,30.37,0,0,0,.66,7.44q.16.58,2.15,1.2a11.21,11.21,0,0,0,2.73.62c.22,0,.34.4.37,1.2a4.69,4.69,0,0,1-.12,1.61q-.66-.08-4.34-.33t-5.58-.25q-2.07,0-5.78.25t-4.38.33a2.42,2.42,0,0,1-.33-1.57q0-1.24.33-1.24a12,12,0,0,0,3-.62q2.06-.62,2.23-1.2a27,27,0,0,0,.58-6V111.74q0-3.88-1.32-5.29a4,4,0,0,0-1.86-1.24,9.31,9.31,0,0,0-2-.5c-.55-.05-.83-.14-.83-.25q0-2.4.5-2.48a114.56,114.56,0,0,0,13.22-2.48.53.53,0,0,1,.25-.12,1.75,1.75,0,0,1,.41,0q.41,0,.66.58a1.52,1.52,0,0,1,.17.91,28.17,28.17,0,0,0-.33,3c0,.22.05.36.17.41a1.23,1.23,0,0,0,.41-.25,18.32,18.32,0,0,1,5.08-3.47A14.46,14.46,0,0,1,127.6,99Z"/><path class="cls-1" d="M232.52,92.33a20.12,20.12,0,0,0-.83-6.61q-.41-1-2.77-1.57a16.59,16.59,0,0,0-3.68-.58c-.22,0-.34-.4-.37-1.2a2.8,2.8,0,0,1,.21-1.53q8.84.58,10.41.58,2.15,0,5.53-.29t4.21-.29a3.45,3.45,0,0,1,.17,1.32q0,1.4-.33,1.4a15.84,15.84,0,0,0-3.55.62,5.36,5.36,0,0,0-3.14,1.69,19.29,19.29,0,0,0-.91,6.86v31.31q0,3,.33,11.57a3,3,0,0,1-1.82.33q-1.32,0-2.64-1.9L200.47,90.43v33.46a23,23,0,0,0,.66,6.77q.41,1,3.06,1.69a17.08,17.08,0,0,0,3.72.7c.17,0,.26.39.29,1.16a4.5,4.5,0,0,1-.12,1.57q-9.91-.5-10.33-.5-2.23,0-5.49.21l-4.34.29a2.07,2.07,0,0,1-.33-1.4q0-1.32.33-1.32a15.65,15.65,0,0,0,3.76-.62,4.51,4.51,0,0,0,3-1.86q.83-1.73.83-6.94V91.25q0-4.46-.91-6-.33-.58-2.85-1.07a21.53,21.53,0,0,0-3.68-.5q-.33,0-.37-1.24a2.31,2.31,0,0,1,.29-1.57q8.67.41,9.83.41,2.73,0,7.44-.41a85.59,85.59,0,0,0,5.74,8.8q4.17,5.82,11.44,15.37t9.91,13.18a23.7,23.7,0,0,0,.17-3.39Z"/><path class="cls-1" d="M268.46,99a18.21,18.21,0,0,1,13.26,5.41,17.7,17.7,0,0,1,5.49,13.09A18.84,18.84,0,1,1,268.46,99Zm-1.07,3.88a6.65,6.65,0,0,0-6,3.76,17.77,17.77,0,0,0-2.15,9,24.09,24.09,0,0,0,2.69,11.65q2.68,5,7.48,5a6.73,6.73,0,0,0,6.07-3.8,17.57,17.57,0,0,0,2.19-8.92,28.36,28.36,0,0,0-1.07-8,14.57,14.57,0,0,0-3.47-6.16A7.66,7.66,0,0,0,267.39,102.9Z"/><path class="cls-1" d="M296.47,104.8h-5q-.58,0-.58-2.15a2.06,2.06,0,0,1,.08-.74,23.1,23.1,0,0,0,6.36-4.38q1.07-1.07,2.35-2.44t3-3.51a5.88,5.88,0,0,1,1.57.21c.5.14.74.29.74.46v8.1l6,0,4.09,0q.66,0,.66.74a8,8,0,0,1-.83,3.63H305v19.91a7.84,7.84,0,0,0,1.4,5,4.72,4.72,0,0,0,3.88,1.74,7.79,7.79,0,0,0,1.73-.21,8.77,8.77,0,0,0,1.49-.45q.58-.25,1.07-.5a2.59,2.59,0,0,1,.58-.25q.33-.08.74.74t.33,1.07q-.5,1.16-3.51,2.68a13,13,0,0,1-5.91,1.53,10.42,10.42,0,0,1-7.31-2.77q-3-2.77-3-8.55Z"/><path class="cls-1" d="M348.51,81.34q1.49,0,11.4-.5a3.82,3.82,0,0,1,.12,1.49c0,.77-.12,1.16-.29,1.16a9.13,9.13,0,0,0-3,.58q-1.65.58-1.65,1.73a5.18,5.18,0,0,0,.74,2.15l8.76,16q.41.41.83-.17,3.55-5.29,6.86-10.91t3.3-7.1q0-.91-1.53-1.61a9.71,9.71,0,0,0-4-.7q-.33,0-.33-1.16a2.85,2.85,0,0,1,.25-1.49q8.34.5,9.91.5,1.9,0,3.43-.08t3.14-.21l2.52-.21a5.47,5.47,0,0,1,.17,1.32c0,.88-.11,1.32-.33,1.32a11.49,11.49,0,0,0-3.43.74,6.72,6.72,0,0,0-3.18,2q-2.4,3.55-8.59,13.59t-6.2,11.11V123.8a31.6,31.6,0,0,0,.66,7.44q.16.58,2.27,1.28a11.59,11.59,0,0,0,2.77.7q.33,0,.33,1.32a4.3,4.3,0,0,1-.17,1.32l-3.14-.25q-2.07-.17-3.8-.25t-3.39-.08q-2.23,0-6.07.25t-4.75.33a1.91,1.91,0,0,1-.33-1.32q0-1.32.25-1.32a11.27,11.27,0,0,0,3.06-.66q2.06-.66,2.31-1.32a29.5,29.5,0,0,0,.66-7.27V111.74a5.18,5.18,0,0,0-.54-1.61q-.54-1.2-1.86-3.64t-2.31-4.21l-3.22-5.74-3.3-5.87q-2.4-4.46-4.3-5.7a8.27,8.27,0,0,0-2.44-1,9.87,9.87,0,0,0-2.35-.46c-.17,0-.26-.27-.29-.83a2.53,2.53,0,0,1,.12-1.16Q339.59,81.34,348.51,81.34Z"/><path class="cls-1" d="M410.8,99a18.21,18.21,0,0,1,13.26,5.41,17.7,17.7,0,0,1,5.49,13.09A18.84,18.84,0,1,1,410.8,99Zm-1.07,3.88a6.65,6.65,0,0,0-6,3.76,17.77,17.77,0,0,0-2.15,9,24.09,24.09,0,0,0,2.69,11.65q2.68,5,7.48,5a6.73,6.73,0,0,0,6.07-3.8,17.57,17.57,0,0,0,2.19-8.92,28.36,28.36,0,0,0-1.07-8,14.57,14.57,0,0,0-3.47-6.16A7.66,7.66,0,0,0,409.73,102.9Z"/><path class="cls-1" d="M470.12,107.94V124.3a18.31,18.31,0,0,0,.66,5.78,1.71,1.71,0,0,0,.95.66,6.4,6.4,0,0,0,1.45.33,12.26,12.26,0,0,0,1.36.08,1.52,1.52,0,0,1,.7.08c.22.06.33.3.33.74a6.3,6.3,0,0,1-.17,1.12c-.11.52-.28.79-.5.79a19,19,0,0,0-2.93.29l-3.43.58q-1.65.29-3.14.62t-3.3.66q-.58,0-.58-1.32v-3.63q-.08-.41-.25-.41a18.44,18.44,0,0,1-5,3.72,13.84,13.84,0,0,1-6.53,1.65,8.65,8.65,0,0,1-4.92-1.41,10,10,0,0,1-3.3-3.63,17.76,17.76,0,0,1-1.73-4.79,25.22,25.22,0,0,1-.54-5.21v-9.25q0-3.88-1.32-5.29a4.59,4.59,0,0,0-1.9-1.24,8.68,8.68,0,0,0-2-.5c-.55-.05-.83-.14-.83-.25q0-2.4.41-2.48a62.33,62.33,0,0,0,6.77-1,64.76,64.76,0,0,0,6.53-1.49,1.34,1.34,0,0,0,.33-.08,1.41,1.41,0,0,1,.33-.08q.41,0,.62.58a2.94,2.94,0,0,1,.21.91q-.74,5.62-.74,7.27V118q0,6.44,1.82,9.25t5.87,2.81a6.48,6.48,0,0,0,4.46-1.61,4.4,4.4,0,0,0,1.82-3.1V111.74q0-3.88-1.32-5.29a4,4,0,0,0-1.86-1.24,9.31,9.31,0,0,0-2-.5c-.55-.05-.83-.14-.83-.25q0-2.4.5-2.48a63.43,63.43,0,0,0,6.69-1,64.78,64.78,0,0,0,6.53-1.49,4.78,4.78,0,0,0,.66-.17q.41,0,.66.58a1.52,1.52,0,0,1,.17.91Q470.12,106.46,470.12,107.94Z"/><path class="cls-2" d="M7,18.12H9.91v1.57H2.28V18.12H5.13V8.91L2.85,10.3,2,8.88,5.67,6.64H7Z"/><path class="cls-2" d="M21.64,15.47V17H19.73v2.71H17.86V17H12V15.56l6.19-8.93h1.56v8.84Zm-7.78,0h4V9.69Z"/><path class="cls-3" d="M428.87,55.51,267.28,130.15a13.66,13.66,0,0,1-18.12-6.69h0a13.66,13.66,0,0,1,6.69-18.12L417.44,30.7a13.66,13.66,0,0,1,18.12,6.69h0A13.66,13.66,0,0,1,428.87,55.51Z"/><path class="cls-2" d="M274.52,104a6,6,0,0,1,1.81-.55,4.11,4.11,0,0,1,4,1.82l-1.89,1.33a3.39,3.39,0,0,0-1.43-1,2.12,2.12,0,0,0-1.61.11,2.35,2.35,0,0,0-1.37,1.76,5.18,5.18,0,0,0,.56,3.15,5.63,5.63,0,0,0,1.94,2.5,2.24,2.24,0,0,0,2.25.19,2.62,2.62,0,0,0,1.45-1.33,2.06,2.06,0,0,0-.08-1.68l2.08-1a3.78,3.78,0,0,1,.13,3.29,5.11,5.11,0,0,1-2.67,2.41,4.59,4.59,0,0,1-4,.07,6.81,6.81,0,0,1-3.15-3.52,6.61,6.61,0,0,1-.59-4.69A4.58,4.58,0,0,1,274.52,104Z"/><path class="cls-2" d="M285.46,102.24a4.87,4.87,0,0,1,1.63-.44,3.48,3.48,0,0,1,1.57.22,4.77,4.77,0,0,1,2.59,2.66,4.72,4.72,0,0,1,.32,3.67,4,4,0,0,1-2.24,2.3,4.1,4.1,0,0,1-3.24.22,4.68,4.68,0,0,1-2.58-2.63,4.73,4.73,0,0,1-.33-3.7A4.1,4.1,0,0,1,285.46,102.24Zm3.85,3.31a3.36,3.36,0,0,0-1.36-1.67,1.8,1.8,0,0,0-1.66,0,2,2,0,0,0-1.14,1.29,3.07,3.07,0,0,0,.31,2.15,3.31,3.31,0,0,0,1.37,1.66,1.82,1.82,0,0,0,1.66,0,2,2,0,0,0,1.14-1.29A3.07,3.07,0,0,0,289.31,105.55Z"/><path class="cls-2" d="M299.48,97.87a3,3,0,0,1,1.91-3,3,3,0,0,1,2.66-.05A4.32,4.32,0,0,1,306,97.07l2.14,4.66-2,.9L304,98a2.07,2.07,0,0,0-1-1.14,1.73,1.73,0,0,0-1.4.1,1.65,1.65,0,0,0-1,1.25,4,4,0,0,0,.41,2.27l1.72,3.74-1.93.89-2.14-4.66a2.07,2.07,0,0,0-1-1.14,1.73,1.73,0,0,0-1.4.1,1.81,1.81,0,0,0-1,1.3,3.75,3.75,0,0,0,.37,2.33l1.7,3.69-1.93.89-3.66-8,1.69-.78.85,1.28A2.9,2.9,0,0,1,296,97.37a3.15,3.15,0,0,1,1.88-.31A3,3,0,0,1,299.48,97.87Z"/><path class="cls-2" d="M306,89.92a1.21,1.21,0,0,1-.07-1,1.58,1.58,0,0,1,1.76-.81,1.36,1.36,0,0,1,.76,1.66,1.58,1.58,0,0,1-1.76.81A1.21,1.21,0,0,1,306,89.92Zm1.41,2.45,1.93-.89,3.67,8-1.93.89Z"/><path class="cls-2" d="M315.17,90.49a3.19,3.19,0,0,1,4.46-2.81,4.49,4.49,0,0,1,1.92,2.21l2.14,4.66-1.93.89-2.14-4.66a2.07,2.07,0,0,0-1-1.14,1.73,1.73,0,0,0-1.4.1,1.81,1.81,0,0,0-1,1.3,3.75,3.75,0,0,0,.37,2.33l1.7,3.69L316.3,98l-3.66-8,1.69-.78Z"/><path class="cls-2" d="M325.71,89.68a2.84,2.84,0,0,1-1.91-1.6,2.81,2.81,0,0,1,.05-2.57,3.92,3.92,0,0,1,1.9-1.81,4.75,4.75,0,0,1,2.34-.5,2.38,2.38,0,0,1,.11-1.88A2.7,2.7,0,0,1,329.56,80l.75,1.9q-1.41.65-1,1.61a2.69,2.69,0,0,1,1.32,1.26,3.11,3.11,0,0,1,.33,1.45,2.91,2.91,0,0,1-.34,1.24,4.09,4.09,0,0,1-2,1.89,4.54,4.54,0,0,1-1.57.43.87.87,0,0,0-.29,1.09q.34.74,1.59.16l2.67-1.23q2.72-1.25,3.6.65a3,3,0,0,1,.26,1.4,3.69,3.69,0,0,1-.42,1.52,5.86,5.86,0,0,1-2.89,2.6,6.33,6.33,0,0,1-3.57.67,2.46,2.46,0,0,1-2-1.36,1.71,1.71,0,0,1-.09-1.38,2.35,2.35,0,0,1,.94-1.1,1.88,1.88,0,0,1-1.64-1,1.48,1.48,0,0,1-.08-1.12A2.2,2.2,0,0,1,325.71,89.68Zm3.06,2.76q-1.51.77-1,1.87a1.11,1.11,0,0,0,1.06.6,3.62,3.62,0,0,0,1.69-.37,5.64,5.64,0,0,0,1.32-.78,3.11,3.11,0,0,0,.66-.78,1.55,1.55,0,0,0,.19-1.52.69.69,0,0,0-.43-.39.94.94,0,0,0-.69.09Zm0-6.67a1.73,1.73,0,0,0-.87-.91,1.56,1.56,0,0,0-1.31.1,1.54,1.54,0,0,0-.85,2.21,1.7,1.7,0,0,0,.89.91,1.63,1.63,0,0,0,1.34-.1,1.55,1.55,0,0,0,.93-.94A1.77,1.77,0,0,0,328.74,85.78Z"/><path class="cls-2" d="M337.77,75.2l2.43-1.12,8.39,9-2,.94-1.79-2-4,1.82.3,2.64-2,.94Zm2.84,7,3-1.37L340,77Z"/><path class="cls-2" d="M355.1,78.37a2.78,2.78,0,0,1-1.7,2.71,3,3,0,0,1-3.55-.37,3.88,3.88,0,0,1-.89-1.28l-2.34-5.08,1.93-.89,2.25,4.89a1.78,1.78,0,0,0,.92,1,1.37,1.37,0,0,0,1.1,0,2.68,2.68,0,0,0,.86-.58,2,2,0,0,0,.44-.77,3.22,3.22,0,0,0-.23-2.18l-1.81-3.93,1.93-.89,3.67,8-1.93.89Z"/><path class="cls-2" d="M359.94,73.94a2.84,2.84,0,0,1-1.91-1.6,2.81,2.81,0,0,1,.05-2.57A3.92,3.92,0,0,1,360,68a4.75,4.75,0,0,1,2.34-.5,2.38,2.38,0,0,1,.11-1.88,2.7,2.7,0,0,1,1.36-1.32l.75,1.9q-1.41.65-1,1.61A2.69,2.69,0,0,1,364.83,69a3.11,3.11,0,0,1,.33,1.45,2.91,2.91,0,0,1-.34,1.24,4.09,4.09,0,0,1-2,1.89,4.54,4.54,0,0,1-1.57.43.87.87,0,0,0-.29,1.09q.34.74,1.59.16l2.67-1.23q2.72-1.25,3.6.65a3,3,0,0,1,.26,1.4,3.69,3.69,0,0,1-.42,1.52,5.86,5.86,0,0,1-2.89,2.6,6.33,6.33,0,0,1-3.57.67,2.46,2.46,0,0,1-2-1.36,1.71,1.71,0,0,1-.09-1.38,2.35,2.35,0,0,1,.94-1.1,1.88,1.88,0,0,1-1.64-1,1.48,1.48,0,0,1-.08-1.12A2.2,2.2,0,0,1,359.94,73.94ZM363,76.7q-1.51.77-1,1.87a1.11,1.11,0,0,0,1.06.6,3.62,3.62,0,0,0,1.69-.37,5.64,5.64,0,0,0,1.32-.78,3.11,3.11,0,0,0,.66-.78,1.55,1.55,0,0,0,.19-1.52.69.69,0,0,0-.43-.39.94.94,0,0,0-.69.09ZM363,70a1.73,1.73,0,0,0-.87-.91,1.56,1.56,0,0,0-1.31.1,1.54,1.54,0,0,0-.85,2.21,1.7,1.7,0,0,0,.89.91,1.63,1.63,0,0,0,1.34-.1,1.55,1.55,0,0,0,.93-.94A1.77,1.77,0,0,0,363,70Z"/><path class="cls-2" d="M374.92,69.25a2.78,2.78,0,0,1-1.7,2.71,3,3,0,0,1-3.55-.37,3.88,3.88,0,0,1-.89-1.28l-2.34-5.08,1.93-.89,2.25,4.89a1.78,1.78,0,0,0,.92,1,1.37,1.37,0,0,0,1.1,0,2.68,2.68,0,0,0,.86-.58,2,2,0,0,0,.44-.77,3.22,3.22,0,0,0-.23-2.18l-1.81-3.93,1.93-.89,3.67,8-1.93.89Z"/><path class="cls-2" d="M380.54,65.48q.55,1.12,2.18.37a2,2,0,0,0,.9-.74.84.84,0,0,0,.11-.82.74.74,0,0,0-.5-.44,2.68,2.68,0,0,0-.94,0l-2,.18q-2.24.22-2.94-1.31a2.07,2.07,0,0,1,.16-2.05,4.73,4.73,0,0,1,2.16-1.74,4,4,0,0,1,2.67-.41,2.41,2.41,0,0,1,1.64,1.29l-1.82.84a.88.88,0,0,0-.66-.45,2,2,0,0,0-1.09.22,1.84,1.84,0,0,0-.87.71.79.79,0,0,0-.08.74q.26.57,1.36.41l2.21-.16a4.12,4.12,0,0,1,1.8.14,1.83,1.83,0,0,1,1.08,1,2.32,2.32,0,0,1-.15,2.13,4.45,4.45,0,0,1-2.21,1.93,4.71,4.71,0,0,1-2.88.48,2.55,2.55,0,0,1-1.88-1.51Z"/><path class="cls-2" d="M393.61,62.17a5.54,5.54,0,0,1-1.51,1.21,4,4,0,0,1-1.16.35,2.72,2.72,0,0,1-1-.06,2.59,2.59,0,0,1-1.61-1.51l-2.05-4.46-1.11.51-.6-1.3,1.11-.51-1-2.1,1.93-.89,1,2.1,2.16-1,.6,1.3-2.16,1,2,4.39a.93.93,0,0,0,1.39.55,4.34,4.34,0,0,0,1.11-.83Z"/><path class="cls-2" d="M394.47,50.09a5.23,5.23,0,0,0,1.76-1.86l1.46-.67,4.92,10.71-1.93.89-3.86-8.39a4.19,4.19,0,0,1-1.5,1.19Z"/><path class="cls-2" d="M404.34,44.32a5.62,5.62,0,0,1,3.45-.55,2.86,2.86,0,0,1,2.2,1.64,2.34,2.34,0,0,1,.11,1.69,2.87,2.87,0,0,1-1.21,1.54,5.92,5.92,0,0,1,2.39.23,2.52,2.52,0,0,1,1.38,1.35A2.83,2.83,0,0,1,412.5,53a6.33,6.33,0,0,1-2.94,2.38,6.07,6.07,0,0,1-3.67.62,2.85,2.85,0,0,1-2.25-1.65,2.26,2.26,0,0,1,0-1.94A3.51,3.51,0,0,1,405,50.82a4.24,4.24,0,0,1-2.76-.9,2.53,2.53,0,0,1-.61-.85,2.73,2.73,0,0,1,.1-2.62A5.4,5.4,0,0,1,404.34,44.32ZM407,50.71a2.62,2.62,0,0,0-1.58,1.88,1.21,1.21,0,0,0,.12.64,1.13,1.13,0,0,0,.48.52,1.81,1.81,0,0,0,.76.23,4,4,0,0,0,2-.45,4.42,4.42,0,0,0,1.66-1.15,1,1,0,0,0,.25-1.07,1.09,1.09,0,0,0-.65-.61,2.92,2.92,0,0,0-1.06-.12Zm-1.72-1.85,1.45-.09a2.67,2.67,0,0,0,1.2-1,1.32,1.32,0,0,0,.1-1.3A1.29,1.29,0,0,0,407,45.7a3.06,3.06,0,0,0-1.72.32,3.36,3.36,0,0,0-1.37,1,1.17,1.17,0,0,0-.17,1.24Q404,48.92,405.31,48.86Z"/></svg>