<svg id="Layer_1" data-name="Layer 1" xmlns="http://www.w3.org/2000/svg" viewBox="0 0 892.59 77.8"><defs><style>.cls-1,.cls-3{fill:#fff;stroke:#1414ef;stroke-miterlimit:10;}.cls-1{stroke-width:1.2px;}.cls-2{fill:#1414ef;}</style></defs><title>title</title><path class="cls-1" d="M55.77,2.31q5.58.21,9.13.21t9.17-.21q5.62-.21,9-.29a27.44,27.44,0,0,0,5.7-.83l1.57,12.64a3.19,3.19,0,0,1-2.23.58c-.44,0-.72-.14-.83-.41q-1.16-4.54-3.06-6.16T78.28,6.24q-7.68,0-8,1.4a28.86,28.86,0,0,0-.74,7.77V45.23a28.18,28.18,0,0,0,.74,7.19q.08.58,2.23,1.2a13.15,13.15,0,0,0,2.89.62q.33,0,.33,1.49A4.31,4.31,0,0,1,75.56,57l-3.18-.25q-2.11-.17-3.88-.25t-3.43-.08q-2.23,0-6.15.25T54.08,57a1.91,1.91,0,0,1-.33-1.32q0-1.49.33-1.49a13.19,13.19,0,0,0,3.1-.58q2.11-.58,2.35-1.24a26.1,26.1,0,0,0,.66-6.86V15.66q0-6.86-.74-8-.66-1.4-7.85-1.4-4,0-5.95,1.61t-3.14,6.07q-.08.5-.83.5a2.78,2.78,0,0,1-2.15-.66L41.11,1.2a27.41,27.41,0,0,0,5.7.83Q50.2,2.11,55.77,2.31Z"/><path class="cls-1" d="M113.31,20.2a18.21,18.21,0,0,1,13.26,5.41,17.7,17.7,0,0,1,5.49,13.09,18.75,18.75,0,0,1-32,13.14,17.9,17.9,0,0,1-5.45-13.14,17.8,17.8,0,0,1,5.41-13.14A18.1,18.1,0,0,1,113.31,20.2Zm-1.07,3.88a6.65,6.65,0,0,0-6,3.76,17.77,17.77,0,0,0-2.15,9,24.09,24.09,0,0,0,2.69,11.65q2.68,5,7.48,5a6.73,6.73,0,0,0,6.07-3.8,17.57,17.57,0,0,0,2.19-8.92,28.36,28.36,0,0,0-1.07-8,14.57,14.57,0,0,0-3.47-6.16A7.66,7.66,0,0,0,112.24,24.08Z"/><path class="cls-1" d="M160.15,44.9V13.67a26.17,26.17,0,0,0-.58-6.77q-.25-.91-2.31-1.49a13,13,0,0,0-3.3-.58q-.33,0-.33-1.24A2.25,2.25,0,0,1,154,2.11q5.45.25,11,.25,4.21,0,7.1,0t5,0a24.47,24.47,0,0,1,11.73,3,12.17,12.17,0,0,1,4.59,4.42,12.53,12.53,0,0,1,1.78,6.69,9.68,9.68,0,0,1-1.73,5.54,13.35,13.35,0,0,1-3.26,3.59A13.58,13.58,0,0,1,187.5,27q-.66.25-.33.5,3.06.5,6.82,4.34a13,13,0,0,1,3.76,9.46A13.33,13.33,0,0,1,192,52.58q-5.74,4.21-15.24,4.13L165,56.63,154,57a2.16,2.16,0,0,1-.25-1.32q0-1.4.25-1.4a13.59,13.59,0,0,0,3.14-.54q2.06-.54,2.4-1.28Q160.15,50.69,160.15,44.9Zm18.92-19.41q6-1.32,6-8.1,0-11.15-9.5-11.15a22.1,22.1,0,0,0-5.29.41.83.83,0,0,0-.66.91l-.17,7.93v9.67q0,.83,5,.83A16.34,16.34,0,0,0,179.07,25.49Zm8.59,16.69a12.94,12.94,0,0,0-2.93-8.72Q181.8,30,175.27,30a34.4,34.4,0,0,0-5.12.41,1.8,1.8,0,0,0-.66,1.65V47.46q0,3.47,1,4.3t5.29.83a17,17,0,0,0,3.55-.37,17.66,17.66,0,0,0,3.76-1.32,7.44,7.44,0,0,0,3.3-3.22A11,11,0,0,0,187.66,42.18Z"/><path class="cls-1" d="M219.14,20.2a15.32,15.32,0,0,1,6.94,1.53,13.07,13.07,0,0,1,4.79,3.88,19.21,19.21,0,0,1,2.64,4.87,14.24,14.24,0,0,1,.91,4.83q0,1.82-.62,2.27a4.69,4.69,0,0,1-2.52.45H211.54q-.58,0-.58.5A16.06,16.06,0,0,0,212,44.32a11.36,11.36,0,0,0,3.68,4.87,9.72,9.72,0,0,0,6.24,2.07,22.66,22.66,0,0,0,2.4-.12,12.37,12.37,0,0,0,2.15-.41q1-.29,1.73-.54a7.09,7.09,0,0,0,1.53-.74l1.12-.7q.33-.21,1.65-1.12a1.36,1.36,0,0,1,.41.5,1.6,1.6,0,0,1,.25.83,2.54,2.54,0,0,1-.5,1.57A13.46,13.46,0,0,1,227.81,55a15.33,15.33,0,0,1-8.18,2.23,16.73,16.73,0,0,1-12.39-5.33A17.82,17.82,0,0,1,202,39q0-8.34,4.83-13.55A16,16,0,0,1,219.14,20.2Zm-.58,3.8A5.84,5.84,0,0,0,215,25.16a7.79,7.79,0,0,0-2.4,2.81,15.78,15.78,0,0,0-1.2,3.1A10.1,10.1,0,0,0,211,33.5c0,.39.17.58.5.58h13.38q.74,0,.74-1.24A10.71,10.71,0,0,0,223.73,27,5.92,5.92,0,0,0,218.56,24Z"/><path class="cls-1" d="M271.19,13.92V45a24.28,24.28,0,0,0,.74,6.61q.41,1.08,5.62,1.07h3.06q6.44,0,9.83-1.74a9.48,9.48,0,0,0,3-2.89A17.4,17.4,0,0,0,296,43q.08-.5,1.16-.5a3.55,3.55,0,0,1,2.31.5q-.25.74-1.2,3.39l-1.45,4q-.5,1.36-1.07,3.35A22.79,22.79,0,0,0,295,57q-3.31,0-13.67-.25t-14.58-.08l-11,.33a2.16,2.16,0,0,1-.25-1.32q0-1.4.25-1.4a13.59,13.59,0,0,0,3.14-.54q2.06-.54,2.4-1.28.58-1.73.58-7.52V13.67a25.3,25.3,0,0,0-.66-7q-.33-.66-2.31-1.28a11.09,11.09,0,0,0-3-.62q-.33,0-.33-1.24A3.33,3.33,0,0,1,255.74,2q.41,0,4.58.25t6.4.25q.66,0,10.57-.5a4.25,4.25,0,0,1,.25,1.32c0,.94-.11,1.4-.33,1.4a13.46,13.46,0,0,0-3,.66q-2.23.66-2.4,1.24A30.67,30.67,0,0,0,271.19,13.92Z"/><path class="cls-1" d="M321.09,20.2q5.12,0,7.68,2.69t2.56,9.21V48.37a3.77,3.77,0,0,0,.74,2.52,2.48,2.48,0,0,0,2,.87,5.15,5.15,0,0,0,2.81-1.07c.33.11.5.41.5.91a4.91,4.91,0,0,1-.5,2.48,20.44,20.44,0,0,1-3.3,2.07,8.61,8.61,0,0,1-4,1.07,6,6,0,0,1-3.72-1.41,6.77,6.77,0,0,1-2.4-3.06l-.62.54q-.54.46-1.49,1.12a24.47,24.47,0,0,1-2.15,1.32,13.18,13.18,0,0,1-2.81,1.12,12,12,0,0,1-3.26.45A9.86,9.86,0,0,1,306.42,55a7.85,7.85,0,0,1-2.6-6.24,7.61,7.61,0,0,1,.95-3.72A9.88,9.88,0,0,1,307,42.22,16.92,16.92,0,0,1,310.59,40a33.8,33.8,0,0,1,3.84-1.61q1.61-.54,4.13-1.28t3.51-1.07a1.3,1.3,0,0,0,.74-1.32V30.2a7.09,7.09,0,0,0-1.32-4.54A4.31,4.31,0,0,0,317.95,24a5,5,0,0,0-3.88,1.53,6.18,6.18,0,0,0-1.4,4.34,2.68,2.68,0,0,1-1.24,2.44,5.14,5.14,0,0,1-2.81.78q-3.06,0-4.3-2,0-4,5.41-7.43A20.72,20.72,0,0,1,321.09,20.2Zm-3.72,31.72a6.4,6.4,0,0,0,3.84-1.16,3.27,3.27,0,0,0,1.61-2.64V39.7q-.58.25-2.44.83t-2.85,1a22.54,22.54,0,0,0-2.31,1.16,5,5,0,0,0-1.94,1.82,4.55,4.55,0,0,0-.62,2.31A5.09,5.09,0,0,0,314,50.68,4.75,4.75,0,0,0,317.37,51.92Z"/><path class="cls-1" d="M345.87,26h-5q-.58,0-.58-2.15a2.06,2.06,0,0,1,.08-.74,23.1,23.1,0,0,0,6.36-4.38q1.07-1.07,2.35-2.44t3-3.51a5.88,5.88,0,0,1,1.57.21c.5.14.74.29.74.46v8.1l6,0,4.09,0q.66,0,.66.74a8,8,0,0,1-.83,3.63h-9.91V45.89a7.84,7.84,0,0,0,1.4,5,4.72,4.72,0,0,0,3.88,1.74,7.79,7.79,0,0,0,1.73-.21,8.77,8.77,0,0,0,1.49-.45q.58-.25,1.07-.5a2.59,2.59,0,0,1,.58-.25q.33-.08.74.74t.33,1.07q-.5,1.16-3.51,2.68a13,13,0,0,1-5.91,1.53,10.42,10.42,0,0,1-7.31-2.77q-3-2.77-3-8.55Z"/><path class="cls-1" d="M386.93,20.2a15.32,15.32,0,0,1,6.94,1.53,13.07,13.07,0,0,1,4.79,3.88,19.21,19.21,0,0,1,2.64,4.87,14.24,14.24,0,0,1,.91,4.83q0,1.82-.62,2.27a4.69,4.69,0,0,1-2.52.45H379.33q-.58,0-.58.5a16.06,16.06,0,0,0,1.07,5.78,11.36,11.36,0,0,0,3.68,4.87,9.72,9.72,0,0,0,6.24,2.07,22.66,22.66,0,0,0,2.4-.12,12.37,12.37,0,0,0,2.15-.41q1-.29,1.73-.54a7.09,7.09,0,0,0,1.53-.74l1.12-.7q.33-.21,1.65-1.12a1.36,1.36,0,0,1,.41.5A1.6,1.6,0,0,1,401,49a2.54,2.54,0,0,1-.5,1.57A13.46,13.46,0,0,1,395.6,55a15.33,15.33,0,0,1-8.18,2.23A16.73,16.73,0,0,1,375,51.88,17.82,17.82,0,0,1,369.83,39q0-8.34,4.83-13.55A16,16,0,0,1,386.93,20.2Zm-.58,3.8a5.84,5.84,0,0,0-3.55,1.16A7.79,7.79,0,0,0,380.4,28a15.78,15.78,0,0,0-1.2,3.1,10.1,10.1,0,0,0-.37,2.44c0,.39.17.58.5.58h13.38q.74,0,.74-1.24A10.71,10.71,0,0,0,391.51,27,5.92,5.92,0,0,0,386.35,24Z"/><path class="cls-2" d="M7,16.3H9.91v1.57H2.28V16.3H5.13V7.09L2.85,8.49,2,7.06,5.67,4.82H7Z"/><path class="cls-2" d="M12.26,4.82H21.1V6.24l-6,11.63H13L19,6.39H12.26Z"/><path class="cls-3" d="M531.79,51.83,351.16,61.07a13.66,13.66,0,0,1-14.32-13h0a13.66,13.66,0,0,1,13-14.32l180.64-9.24a13.66,13.66,0,0,1,14.32,13h0A13.66,13.66,0,0,1,531.79,51.83Z"/><path class="cls-2" d="M367.61,39.52a6,6,0,0,1,1.89.17,4.11,4.11,0,0,1,3,3.17l-2.25.53a3.39,3.39,0,0,0-1-1.44,2.12,2.12,0,0,0-1.53-.49,2.35,2.35,0,0,0-1.93,1.13,5.18,5.18,0,0,0-.66,3.13,5.63,5.63,0,0,0,.87,3,2.24,2.24,0,0,0,2,1,2.62,2.62,0,0,0,1.84-.7,2.06,2.06,0,0,0,.55-1.59l2.29-.11a3.78,3.78,0,0,1-1.1,3.1,5.11,5.11,0,0,1-3.38,1.24,4.59,4.59,0,0,1-3.78-1.44,6.81,6.81,0,0,1-1.61-4.44,6.61,6.61,0,0,1,1.2-4.58A4.58,4.58,0,0,1,367.61,39.52Z"/><path class="cls-2" d="M378.42,41.93a4.87,4.87,0,0,1,1.67.2,3.48,3.48,0,0,1,1.38.79,4.77,4.77,0,0,1,1.42,3.43,4.72,4.72,0,0,1-1.07,3.52,4,4,0,0,1-2.93,1.3,4.1,4.1,0,0,1-3.09-1,4.68,4.68,0,0,1-1.41-3.4,4.73,4.73,0,0,1,1.07-3.56A4.1,4.1,0,0,1,378.42,41.93Zm2.34,4.51a3.36,3.36,0,0,0-.64-2.05,1.8,1.8,0,0,0-1.54-.62,2,2,0,0,0-1.54.77,3.07,3.07,0,0,0-.51,2.11,3.31,3.31,0,0,0,.65,2.05,1.82,1.82,0,0,0,1.54.62,2,2,0,0,0,1.53-.77A3.07,3.07,0,0,0,380.76,46.44Z"/><path class="cls-2" d="M393.06,43.11a3,3,0,0,1,2.88-2,3,3,0,0,1,2.49.94,4.32,4.32,0,0,1,1,2.77l.25,5.12L397.5,50l-.25-5.12a2.07,2.07,0,0,0-.54-1.45,1.73,1.73,0,0,0-1.34-.43,1.65,1.65,0,0,0-1.35.81,4,4,0,0,0-.47,2.26l.2,4.11-2.13.11-.25-5.12a2.07,2.07,0,0,0-.54-1.45,1.73,1.73,0,0,0-1.34-.43,1.81,1.81,0,0,0-1.41.83,3.75,3.75,0,0,0-.53,2.3l.2,4.06-2.13.11-.43-8.76,1.86-.09.31,1.5A2.9,2.9,0,0,1,390,41.36a3.15,3.15,0,0,1,1.85.41A3,3,0,0,1,393.06,43.11Z"/><path class="cls-2" d="M402.08,38.16a1.21,1.21,0,0,1,.3-.93,1.58,1.58,0,0,1,1.94-.1,1.36,1.36,0,0,1,.09,1.82,1.58,1.58,0,0,1-1.94.1A1.21,1.21,0,0,1,402.08,38.16Zm.39,2.8,2.13-.11.43,8.78-2.13.11Z"/><path class="cls-2" d="M410.37,42.1a3.19,3.19,0,0,1,5.18-.94,4.49,4.49,0,0,1,1,2.77l.25,5.12-2.13.11L414.39,44a2.07,2.07,0,0,0-.54-1.45,1.73,1.73,0,0,0-1.34-.43,1.81,1.81,0,0,0-1.41.83,3.75,3.75,0,0,0-.53,2.3l.2,4.06-2.13.11-.43-8.76,1.86-.09Z"/><path class="cls-2" d="M420.45,45.27a2.84,2.84,0,0,1-1.17-2.2,2.81,2.81,0,0,1,1-2.36,3.92,3.92,0,0,1,2.44-1,4.75,4.75,0,0,1,2.36.41,2.38,2.38,0,0,1,.8-1.7,2.7,2.7,0,0,1,1.75-.72v2q-1.55.08-1.55,1.11a2.69,2.69,0,0,1,.75,1.66,3.11,3.11,0,0,1-.23,1.47,2.91,2.91,0,0,1-.78,1,4.09,4.09,0,0,1-2.59,1,4.54,4.54,0,0,1-1.62-.19.87.87,0,0,0-.68.9q0,.81,1.41.74l2.94-.15q3-.15,3.1,1.94a3,3,0,0,1-.28,1.4,3.69,3.69,0,0,1-1,1.25,5.86,5.86,0,0,1-3.66,1.34,6.33,6.33,0,0,1-3.56-.71,2.46,2.46,0,0,1-1.36-2,1.71,1.71,0,0,1,.43-1.31,2.35,2.35,0,0,1,1.28-.67A1.88,1.88,0,0,1,419.11,47a1.48,1.48,0,0,1,.34-1.07A2.2,2.2,0,0,1,420.45,45.27Zm1.81,3.7q-1.69.16-1.63,1.36a1.11,1.11,0,0,0,.76.95,3.62,3.62,0,0,0,1.7.29,5.64,5.64,0,0,0,1.52-.24,3.11,3.11,0,0,0,.91-.48,1.55,1.55,0,0,0,.75-1.34A.69.69,0,0,0,426,49a.94.94,0,0,0-.67-.17Zm2.46-6.2a1.73,1.73,0,0,0-.46-1.17,1.56,1.56,0,0,0-1.26-.4,1.54,1.54,0,0,0-1.61,1.73,1.7,1.7,0,0,0,.49,1.18,1.63,1.63,0,0,0,1.28.41,1.55,1.55,0,0,0,1.21-.53A1.77,1.77,0,0,0,424.72,42.78Z"/><path class="cls-2" d="M437,36.32l2.67-.13,4.42,11.51-2.25.11-.94-2.48-4.34.22-.7,2.56-2.25.11Zm0,7.59,3.28-.16-1.87-4.95Z"/><path class="cls-2" d="M451.94,45.72a2.78,2.78,0,0,1-2.58,1.88,3,3,0,0,1-3.15-1.67,3.88,3.88,0,0,1-.35-1.52l-.28-5.59,2.13-.11.27,5.37a1.78,1.78,0,0,0,.48,1.27,1.37,1.37,0,0,0,1,.37,2.68,2.68,0,0,0,1-.22,2,2,0,0,0,.7-.55,3.22,3.22,0,0,0,.6-2.11l-.21-4.33,2.13-.11.43,8.78L452,47.3Z"/><path class="cls-2" d="M458.08,43.41a2.84,2.84,0,0,1-1.17-2.2,2.81,2.81,0,0,1,1-2.36,3.92,3.92,0,0,1,2.44-1,4.75,4.75,0,0,1,2.36.41,2.38,2.38,0,0,1,.8-1.7,2.7,2.7,0,0,1,1.75-.72v2Q463.7,38,463.7,39a2.69,2.69,0,0,1,.75,1.66,3.11,3.11,0,0,1-.23,1.47,2.91,2.91,0,0,1-.78,1,4.09,4.09,0,0,1-2.59,1,4.54,4.54,0,0,1-1.62-.19.87.87,0,0,0-.68.9q0,.81,1.41.74l2.94-.15q3-.15,3.1,1.94a3,3,0,0,1-.28,1.4,3.69,3.69,0,0,1-1,1.25,5.86,5.86,0,0,1-3.66,1.34,6.33,6.33,0,0,1-3.56-.71,2.46,2.46,0,0,1-1.36-2,1.71,1.71,0,0,1,.43-1.31,2.35,2.35,0,0,1,1.28-.67,1.88,1.88,0,0,1-1.14-1.55,1.48,1.48,0,0,1,.34-1.07A2.2,2.2,0,0,1,458.08,43.41Zm1.81,3.7q-1.69.16-1.63,1.36a1.11,1.11,0,0,0,.76.95,3.62,3.62,0,0,0,1.7.29,5.64,5.64,0,0,0,1.52-.24,3.11,3.11,0,0,0,.91-.48,1.55,1.55,0,0,0,.75-1.34.69.69,0,0,0-.25-.52A.94.94,0,0,0,463,47Zm2.46-6.2a1.73,1.73,0,0,0-.46-1.17,1.56,1.56,0,0,0-1.26-.4A1.54,1.54,0,0,0,459,41.08a1.7,1.7,0,0,0,.49,1.18,1.63,1.63,0,0,0,1.28.41,1.55,1.55,0,0,0,1.21-.53A1.77,1.77,0,0,0,462.35,40.91Z"/><path class="cls-2" d="M473.73,44.64a2.78,2.78,0,0,1-2.58,1.88A3,3,0,0,1,468,44.85a3.88,3.88,0,0,1-.35-1.52l-.28-5.59,2.13-.11.27,5.37a1.78,1.78,0,0,0,.48,1.27,1.37,1.37,0,0,0,1,.37,2.68,2.68,0,0,0,1-.22,2,2,0,0,0,.7-.55,3.22,3.22,0,0,0,.6-2.11l-.21-4.33,2.13-.11.43,8.78-2.13.11Z"/><path class="cls-2" d="M480.35,43.23q.1,1.24,1.88,1.15a2,2,0,0,0,1.11-.35.84.84,0,0,0,.41-.72.74.74,0,0,0-.3-.6,2.68,2.68,0,0,0-.87-.35l-1.94-.59q-2.16-.63-2.25-2.31a2.07,2.07,0,0,1,.91-1.84,4.73,4.73,0,0,1,2.65-.81,4,4,0,0,1,2.63.61,2.41,2.41,0,0,1,1,1.81l-2,.1a.88.88,0,0,0-.45-.66,2,2,0,0,0-1.09-.2,1.84,1.84,0,0,0-1.08.33.79.79,0,0,0-.36.66q0,.63,1.11.88l2.11.67a4.12,4.12,0,0,1,1.62.8,1.83,1.83,0,0,1,.62,1.35,2.32,2.32,0,0,1-.93,1.93,4.45,4.45,0,0,1-2.77,1,4.71,4.71,0,0,1-2.85-.63,2.55,2.55,0,0,1-1.19-2.1Z"/><path class="cls-2" d="M493.72,45a5.54,5.54,0,0,1-1.85.56,4,4,0,0,1-1.21-.1,2.72,2.72,0,0,1-.93-.44,2.59,2.59,0,0,1-.93-2l-.24-4.9-1.23.06-.07-1.42,1.23-.06-.11-2.31,2.13-.11.11,2.31,2.38-.12.07,1.42-2.38.12.24,4.83q.05,1.08,1.08,1a4.34,4.34,0,0,0,1.34-.36Z"/><path class="cls-2" d="M501.9,42.88l6.69-.33.1,1.95-8.81.44-.1-2a3.37,3.37,0,0,1,1.34-3.14,6.29,6.29,0,0,1,1.14-.63l2.35-1a2.71,2.71,0,0,0,1.12-.82,1.77,1.77,0,0,0,.31-1.16,1.51,1.51,0,0,0-.54-1.12,2,2,0,0,0-1.41-.39,2.44,2.44,0,0,0-1.47.51,1.73,1.73,0,0,0-.61,1.31l-2.36.12a3.28,3.28,0,0,1,1.18-2.75,5.12,5.12,0,0,1,3.11-1,4.6,4.6,0,0,1,3.06.82A3.11,3.11,0,0,1,508.34,36a3.53,3.53,0,0,1-.61,2.37A5.45,5.45,0,0,1,505.54,40L503.15,41a2.77,2.77,0,0,0-1,.65,1.2,1.2,0,0,0-.27.87Z"/><path class="cls-2" d="M513.29,37.13a11.3,11.3,0,0,1,1.85-.25,4.49,4.49,0,0,1,2.95.73,3,3,0,0,1,1.21,2.46,3.89,3.89,0,0,1-1.06,3,4.52,4.52,0,0,1-3.17,1.37,4.63,4.63,0,0,1-3.13-.82,3.53,3.53,0,0,1-1.38-2.71l2.18-.11a1.54,1.54,0,0,0,.68,1.32,2.66,2.66,0,0,0,1.59.35,2.14,2.14,0,0,0,1.55-.7,2.12,2.12,0,0,0,.54-1.59q-.09-1.78-2.5-1.66l-3.57.18.24-6,7-.35.1,1.95-5,.25Z"/></svg>