<svg id="Layer_1" data-name="Layer 1" xmlns="http://www.w3.org/2000/svg" viewBox="0 0 629.92 79.62"><defs><style>.cls-1,.cls-3{fill:#fff;stroke:#1414ef;stroke-miterlimit:10;}.cls-1{stroke-width:1.2px;}.cls-2{fill:#1414ef;}.cls-3{stroke-width:1.3px;}</style></defs><title>title</title><path class="cls-1" d="M47.37,51.18A27.64,27.64,0,0,1,39.6,31.44a27.78,27.78,0,0,1,7.77-19.79,25.36,25.36,0,0,1,37.38,0,27.71,27.71,0,0,1,7.81,19.79,27.56,27.56,0,0,1-7.81,19.75,25.45,25.45,0,0,1-37.38,0ZM64.8,7.48q-7.11,0-10.86,6.48a30.72,30.72,0,0,0-3.76,15.66,40.69,40.69,0,0,0,1.69,11.81,23,23,0,0,0,5.74,9.71,13.22,13.22,0,0,0,9.75,4.09q7,0,10.86-6.57A30.47,30.47,0,0,0,82.07,33a41.84,41.84,0,0,0-1.65-11.94,22.11,22.11,0,0,0-5.7-9.58A13.56,13.56,0,0,0,64.8,7.48Z"/><path class="cls-1" d="M124,22Q134.69,22,134.69,39V46.8a34.58,34.58,0,0,0,.58,7.44q.16.58,2.27,1.2a12.65,12.65,0,0,0,2.85.62c.17,0,.26.4.29,1.2a4.68,4.68,0,0,1-.12,1.61q-.5-.08-4.34-.33t-5.74-.25q-2,0-5.49.25t-4.25.33a2.42,2.42,0,0,1-.33-1.57q0-1.24.33-1.24a9.82,9.82,0,0,0,2.77-.62q1.86-.62,2-1.2a23.73,23.73,0,0,0,.66-6V40.36q0-6.86-1.86-9.58T118.42,28a7.65,7.65,0,0,0-4.63,1.45,4,4,0,0,0-2,3.1V46.8a34.58,34.58,0,0,0,.58,7.44q.16.58,2.19,1.2a11.88,11.88,0,0,0,2.69.62c.22,0,.34.4.37,1.2a4.69,4.69,0,0,1-.12,1.61q-.66-.08-4.34-.33t-5.58-.25q-2,0-5.74.25t-4.42.33a2.42,2.42,0,0,1-.33-1.57q0-1.24.33-1.24a11.52,11.52,0,0,0,3-.62q2-.62,2.19-1.2a27,27,0,0,0,.58-6V34.74q0-3.88-1.32-5.29A4,4,0,0,0,100,28.21a9.41,9.41,0,0,0-2-.5c-.52-.05-.78-.14-.78-.25q0-2.4.41-2.48A117.19,117.19,0,0,0,111,22.51a.54.54,0,0,1,.21-.12.79.79,0,0,1,.25,0h.21c.22,0,.41.19.58.58a2.51,2.51,0,0,1,.25.91,28.15,28.15,0,0,0-.33,3,.65.65,0,0,0,.08.41,1.23,1.23,0,0,0,.41-.25,18.32,18.32,0,0,1,5.08-3.47A14.46,14.46,0,0,1,124,22Z"/><path class="cls-1" d="M163.44,18.05a13,13,0,0,1,5.2-10.45,18.05,18.05,0,0,1,11.73-4.25,28.87,28.87,0,0,1,4,.25q1.74.25,4.83,1t4.25,1a73.7,73.7,0,0,1,1,12.72.9.9,0,0,1-1,.74q-2.23,0-2.4-.74a14.52,14.52,0,0,0-3.55-7.43,9.38,9.38,0,0,0-7.44-3.64,7.62,7.62,0,0,0-5.82,2.15,8.09,8.09,0,0,0-2,5.78,9.31,9.31,0,0,0,.29,2.35,5.82,5.82,0,0,0,1.16,2.19q.87,1.08,1.4,1.78a9.8,9.8,0,0,0,2.07,1.78q1.53,1.08,2.07,1.49t2.48,1.61a24.9,24.9,0,0,0,2.35,1.36,30.37,30.37,0,0,0,2.77,1.78q2.27,1.36,3.18,2t2.64,2.11a11.91,11.91,0,0,1,2.52,2.81,17,17,0,0,1,1.45,3.35,13.91,13.91,0,0,1,.66,4.34A13.41,13.41,0,0,1,192,55.06a19.11,19.11,0,0,1-12.35,4.3q-5,0-15.2-2.31a72.22,72.22,0,0,1-1.36-7.48,56,56,0,0,1-.62-5.91q.08-.66,1.32-.66,2.15,0,2.4.66a16.06,16.06,0,0,0,1.16,3.26,24,24,0,0,0,2.27,3.8,10.89,10.89,0,0,0,3.88,3.3A11.62,11.62,0,0,0,179,55.31,9.25,9.25,0,0,0,185.42,53Q188,50.69,188,46.06a7.19,7.19,0,0,0-.54-2.73,9.54,9.54,0,0,0-1.24-2.23,12.09,12.09,0,0,0-2.07-2q-1.36-1.07-2.27-1.65t-2.68-1.61l-2.52-1.45a5.67,5.67,0,0,0-.91-.66q-2.4-1.49-3.64-2.31A39.85,39.85,0,0,1,168.93,29,16.34,16.34,0,0,1,166,26a15.62,15.62,0,0,1-1.78-3.47A12.43,12.43,0,0,1,163.44,18.05Z"/><path class="cls-1" d="M219,22q5.12,0,7.68,2.69t2.56,9.21V50.19a3.77,3.77,0,0,0,.74,2.52,2.48,2.48,0,0,0,2,.87,5.15,5.15,0,0,0,2.81-1.07c.33.11.5.41.5.91a4.91,4.91,0,0,1-.5,2.48,20.44,20.44,0,0,1-3.3,2.07,8.61,8.61,0,0,1-4,1.07,6,6,0,0,1-3.72-1.41,6.77,6.77,0,0,1-2.4-3.06l-.62.54q-.54.46-1.49,1.12a24.47,24.47,0,0,1-2.15,1.32,13.18,13.18,0,0,1-2.81,1.12,12,12,0,0,1-3.26.45,9.86,9.86,0,0,1-6.73-2.27,7.85,7.85,0,0,1-2.6-6.24,7.61,7.61,0,0,1,.95-3.72A9.88,9.88,0,0,1,205,44a16.92,16.92,0,0,1,3.55-2.19,33.8,33.8,0,0,1,3.84-1.61Q214,39.7,216.52,39T220,37.88a1.3,1.3,0,0,0,.74-1.32V32a7.09,7.09,0,0,0-1.32-4.54,4.31,4.31,0,0,0-3.55-1.65A5,5,0,0,0,212,27.35a6.18,6.18,0,0,0-1.4,4.34,2.68,2.68,0,0,1-1.24,2.44,5.14,5.14,0,0,1-2.81.78q-3.06,0-4.3-2,0-4,5.41-7.43A20.72,20.72,0,0,1,219,22Zm-3.72,31.72a6.4,6.4,0,0,0,3.84-1.16,3.27,3.27,0,0,0,1.61-2.64V41.52q-.58.25-2.44.83t-2.85,1a22.54,22.54,0,0,0-2.31,1.16,5,5,0,0,0-1.94,1.82,4.55,4.55,0,0,0-.62,2.31,5.09,5.09,0,0,0,1.32,3.88A4.75,4.75,0,0,0,215.32,53.74Z"/><path class="cls-1" d="M253.41,46.64a33.88,33.88,0,0,0,.58,7.44q.16.58,2,1.28a9,9,0,0,0,2.52.7c.17,0,.26.39.29,1.16a4.5,4.5,0,0,1-.12,1.57l-3.1-.21-3.51-.21q-1.57-.08-3-.08-1.57,0-3.14.08l-3.47.21-3.14.21a2.33,2.33,0,0,1-.33-1.53c0-.8.11-1.2.33-1.2a8.83,8.83,0,0,0,2.77-.7q1.86-.7,2-1.28a27.4,27.4,0,0,0,.66-6.11V13.59a28.8,28.8,0,0,0-.5-5.62q-.41-1.32-4.13-1.32h-.83q-.5,0-.5-1,0-1.32.5-1.32,2.56-.25,4.87-.66t3.84-.83q1.53-.41,2.64-.78t1.78-.62l.58-.25h.17c.22,0,.45.17.7.5a2.53,2.53,0,0,1,.45.83,26.11,26.11,0,0,0-1,7.77Z"/><path class="cls-1" d="M290.42,22a8.92,8.92,0,0,1,5.37,1.61,9.66,9.66,0,0,1,3.3,4.17,19.48,19.48,0,0,1,6-4.13A18.56,18.56,0,0,1,312.89,22,9.38,9.38,0,0,1,318,23.34a9.12,9.12,0,0,1,3.3,3.68A19.44,19.44,0,0,1,323,32.14a31.48,31.48,0,0,1,.54,6V46.8a34.58,34.58,0,0,0,.58,7.44q.16.58,2.23,1.2a12.15,12.15,0,0,0,2.81.62c.17,0,.26.4.29,1.2a4.68,4.68,0,0,1-.12,1.61q-.58-.08-4.34-.33t-5.66-.25q-2,0-5.66.25t-4.42.33a3.08,3.08,0,0,1-.25-1.57q0-1.24.25-1.24a11.09,11.09,0,0,0,3-.62q2-.62,2.15-1.2a25.71,25.71,0,0,0,.58-5.78V40q0-12-7.68-12a7.52,7.52,0,0,0-4.54,1.32,5.15,5.15,0,0,0-2.15,2.56c0,.17,0,.39,0,.66a1.61,1.61,0,0,0,0,.66,40.4,40.4,0,0,1,.25,5.12v8.76a32.49,32.49,0,0,0,.58,7.1q.16.58,2.23,1.2a12.15,12.15,0,0,0,2.81.62c.17,0,.26.4.29,1.2a4.69,4.69,0,0,1-.12,1.61q-.58-.08-4.34-.33t-5.66-.25q-2,0-5.66.25t-4.42.33a3.08,3.08,0,0,1-.25-1.57q0-1.24.25-1.24a11.09,11.09,0,0,0,3-.62q2-.62,2.15-1.2a27,27,0,0,0,.58-6V40.28q0-6.44-1.9-9.33A6.29,6.29,0,0,0,284.72,28a7.91,7.91,0,0,0-4.54,1.4,3.9,3.9,0,0,0-2.07,3.14V46.8a30.37,30.37,0,0,0,.66,7.44q.16.58,2.15,1.2a11.21,11.21,0,0,0,2.73.62c.22,0,.34.4.37,1.2a4.69,4.69,0,0,1-.12,1.61q-.66-.08-4.34-.33T274,58.29q-2.07,0-5.78.25t-4.38.33a2.42,2.42,0,0,1-.33-1.57q0-1.24.33-1.24a12,12,0,0,0,3-.62q2.06-.62,2.23-1.2a27,27,0,0,0,.58-6V34.74q0-3.88-1.32-5.29a4,4,0,0,0-1.86-1.24,9.31,9.31,0,0,0-2-.5c-.55-.05-.83-.14-.83-.25q0-2.4.5-2.48a114.56,114.56,0,0,0,13.22-2.48.53.53,0,0,1,.25-.12,1.75,1.75,0,0,1,.41,0q.41,0,.66.58a1.52,1.52,0,0,1,.17.91,28.17,28.17,0,0,0-.33,3c0,.22.05.36.17.41A1.23,1.23,0,0,0,279,27a18.32,18.32,0,0,1,5.08-3.47A14.46,14.46,0,0,1,290.42,22Z"/><path class="cls-1" d="M350.48,22q5.12,0,7.68,2.69t2.56,9.21V50.19a3.77,3.77,0,0,0,.74,2.52,2.48,2.48,0,0,0,2,.87,5.15,5.15,0,0,0,2.81-1.07c.33.11.5.41.5.91a4.91,4.91,0,0,1-.5,2.48A20.44,20.44,0,0,1,363,58,8.61,8.61,0,0,1,359,59a6,6,0,0,1-3.72-1.41,6.77,6.77,0,0,1-2.4-3.06l-.62.54q-.54.46-1.49,1.12a24.47,24.47,0,0,1-2.15,1.32,13.18,13.18,0,0,1-2.81,1.12,12,12,0,0,1-3.26.45,9.86,9.86,0,0,1-6.73-2.27,7.85,7.85,0,0,1-2.6-6.24,7.61,7.61,0,0,1,.95-3.72A9.88,9.88,0,0,1,336.43,44,16.92,16.92,0,0,1,340,41.85a33.8,33.8,0,0,1,3.84-1.61Q345.44,39.7,348,39t3.51-1.07a1.3,1.3,0,0,0,.74-1.32V32a7.09,7.09,0,0,0-1.32-4.54,4.31,4.31,0,0,0-3.55-1.65,5,5,0,0,0-3.88,1.53,6.18,6.18,0,0,0-1.4,4.34,2.68,2.68,0,0,1-1.24,2.44,5.14,5.14,0,0,1-2.81.78q-3.06,0-4.3-2,0-4,5.41-7.43A20.72,20.72,0,0,1,350.48,22Zm-3.72,31.72a6.4,6.4,0,0,0,3.84-1.16,3.27,3.27,0,0,0,1.61-2.64V41.52q-.58.25-2.44.83t-2.85,1a22.54,22.54,0,0,0-2.31,1.16,5,5,0,0,0-1.94,1.82,4.55,4.55,0,0,0-.62,2.31,5.09,5.09,0,0,0,1.32,3.88A4.75,4.75,0,0,0,346.76,53.74Z"/><path class="cls-2" d="M12.25,6.63h8.84V8.06L15,19.69H13L19,8.21H12.25Z"/><path class="cls-3" d="M438.31,74.54,218.06,39.86A17.75,17.75,0,0,1,203.3,19.55h0A17.75,17.75,0,0,1,223.62,4.8L443.87,39.48a17.75,17.75,0,0,1,14.75,20.31h0A17.75,17.75,0,0,1,438.31,74.54Z"/><path class="cls-2" d="M244.75,16.86a7.83,7.83,0,0,1,2.36.72,5.34,5.34,0,0,1,3,4.83l-3,.07a4.4,4.4,0,0,0-.84-2.09,2.75,2.75,0,0,0-1.82-1,3.06,3.06,0,0,0-2.76.91A6.74,6.74,0,0,0,240,24.07a7.32,7.32,0,0,0,.3,4.11,2.91,2.91,0,0,0,2.3,1.83,3.4,3.4,0,0,0,2.53-.39,2.68,2.68,0,0,0,1.13-1.88l2.94.47A4.92,4.92,0,0,1,247,31.85a6.65,6.65,0,0,1-4.63.68,6,6,0,0,1-4.42-2.84,8.85,8.85,0,0,1-.86-6.08,8.59,8.59,0,0,1,2.75-5.5A6,6,0,0,1,244.75,16.86Z"/><path class="cls-2" d="M257.87,22.82a6.33,6.33,0,0,1,2.07.7,4.53,4.53,0,0,1,1.54,1.37,6.2,6.2,0,0,1,.88,4.75,6.14,6.14,0,0,1-2.31,4.19,5.17,5.17,0,0,1-4.08.87,5.33,5.33,0,0,1-3.66-2.1,6.09,6.09,0,0,1-.89-4.7,6.15,6.15,0,0,1,2.31-4.24A5.33,5.33,0,0,1,257.87,22.82Zm1.77,6.36a4.37,4.37,0,0,0-.27-2.79,2.34,2.34,0,0,0-1.79-1.2,2.62,2.62,0,0,0-2.17.57,4,4,0,0,0-1.21,2.55,4.31,4.31,0,0,0,.28,2.79,2.36,2.36,0,0,0,1.79,1.2,2.6,2.6,0,0,0,2.16-.57A4,4,0,0,0,259.63,29.18Z"/><path class="cls-2" d="M276.17,28.23a3.91,3.91,0,0,1,4.21-1.82,3.85,3.85,0,0,1,2.91,1.87,5.61,5.61,0,0,1,.49,3.78l-1,6.58L280,38.19l1-6.58a2.69,2.69,0,0,0-.3-2,2.24,2.24,0,0,0-1.59-.91,2.15,2.15,0,0,0-1.94.67,5.14,5.14,0,0,0-1.2,2.75l-.84,5.28L272.43,37l1-6.58a2.69,2.69,0,0,0-.3-2,2.24,2.24,0,0,0-1.59-.91,2.35,2.35,0,0,0-2,.68A4.87,4.87,0,0,0,268.28,31l-.83,5.21-2.73-.44L266.5,24.5l2.39.38v2a3.77,3.77,0,0,1,3.93-1.68,4.1,4.1,0,0,1,2.25,1A4,4,0,0,1,276.17,28.23Z"/><path class="cls-2" d="M289,24.35a1.58,1.58,0,0,1,.63-1.1,2.05,2.05,0,0,1,2.49.4,1.76,1.76,0,0,1-.37,2.34,2,2,0,0,1-2.49-.4A1.58,1.58,0,0,1,289,24.35ZM288.73,28l2.73.44-1.8,11.28-2.73-.44Z"/><path class="cls-2" d="M298.47,31.59a4.14,4.14,0,0,1,6.85.19,5.83,5.83,0,0,1,.48,3.78l-1,6.58L302,41.7l1-6.58a2.69,2.69,0,0,0-.3-2,2.24,2.24,0,0,0-1.59-.91,2.35,2.35,0,0,0-2,.68,4.87,4.87,0,0,0-1.29,2.79L297,40.91l-2.73-.44,1.79-11.26,2.39.38Z"/><path class="cls-2" d="M310.44,38.31a3.69,3.69,0,0,1-.91-3.11,3.65,3.65,0,0,1,1.91-2.74,5.09,5.09,0,0,1,3.36-.58A6.17,6.17,0,0,1,317.69,33a3.09,3.09,0,0,1,1.47-2,3.52,3.52,0,0,1,2.42-.45l-.56,2.6q-2-.32-2.27,1a3.5,3.5,0,0,1,.51,2.31,4,4,0,0,1-.69,1.8,3.79,3.79,0,0,1-1.27,1.09,5.31,5.31,0,0,1-3.56.57,5.9,5.9,0,0,1-2-.68,1.13,1.13,0,0,0-1.1,1q-.17,1,1.59,1.32l3.78.6q3.84.61,3.42,3.3a3.84,3.84,0,0,1-.73,1.7,4.8,4.8,0,0,1-1.55,1.33,7.62,7.62,0,0,1-5,.72,8.23,8.23,0,0,1-4.34-1.85,3.2,3.2,0,0,1-1.2-2.92,2.22,2.22,0,0,1,.9-1.55,3,3,0,0,1,1.8-.51,2.44,2.44,0,0,1-1-2.28,1.93,1.93,0,0,1,.73-1.27A2.86,2.86,0,0,1,310.44,38.31Zm1.31,5.2q-2.19-.25-2.44,1.3a1.44,1.44,0,0,0,.71,1.41,4.71,4.71,0,0,0,2.09.82,7.34,7.34,0,0,0,2,.1,4,4,0,0,0,1.28-.37,2,2,0,0,0,1.31-1.5.9.9,0,0,0-.18-.73,1.22,1.22,0,0,0-.8-.4Zm4.79-7.23a2.25,2.25,0,0,0-.28-1.61,2,2,0,0,0-1.49-.84,2,2,0,0,0-2.52,1.77,2.21,2.21,0,0,0,.31,1.63,2.12,2.12,0,0,0,1.53.86,2,2,0,0,0,1.68-.35A2.3,2.3,0,0,0,316.53,36.28Z"/><path class="cls-2" d="M333.94,31.37l3.43.55,2.54,15.82-2.9-.46-.53-3.41L330.91,43,329.32,46l-2.9-.46Zm-2,9.66,4.22.67-1.06-6.8Z"/><path class="cls-2" d="M350.38,47.31A3.61,3.61,0,0,1,346.6,49q-3-.48-3.57-3a5,5,0,0,1,0-2l1.14-7.18,2.73.44-1.1,6.9a2.31,2.31,0,0,0,.27,1.74,1.78,1.78,0,0,0,1.22.75,3.48,3.48,0,0,0,1.34,0,2.56,2.56,0,0,0,1-.51A4.18,4.18,0,0,0,351,43.63l.89-5.56,2.73.44-1.8,11.28-2.73-.44Z"/><path class="cls-2" d="M358.81,46a3.69,3.69,0,0,1-.91-3.11,3.65,3.65,0,0,1,1.91-2.74,5.09,5.09,0,0,1,3.36-.58,6.17,6.17,0,0,1,2.89,1.15,3.09,3.09,0,0,1,1.47-2,3.52,3.52,0,0,1,2.42-.45l-.56,2.6q-2-.32-2.27,1a3.5,3.5,0,0,1,.51,2.31A4,4,0,0,1,367,46a3.79,3.79,0,0,1-1.27,1.09,5.31,5.31,0,0,1-3.56.57,5.9,5.9,0,0,1-2-.68,1.13,1.13,0,0,0-1.1,1q-.17,1,1.59,1.32l3.78.6q3.84.61,3.42,3.3a3.84,3.84,0,0,1-.73,1.7,4.8,4.8,0,0,1-1.55,1.33,7.62,7.62,0,0,1-5,.72,8.23,8.23,0,0,1-4.34-1.85A3.2,3.2,0,0,1,355,52.2a2.22,2.22,0,0,1,.9-1.55,3,3,0,0,1,1.8-.51,2.44,2.44,0,0,1-1-2.28,1.93,1.93,0,0,1,.73-1.27A2.86,2.86,0,0,1,358.81,46Zm1.31,5.2q-2.19-.25-2.44,1.3a1.44,1.44,0,0,0,.71,1.41,4.71,4.71,0,0,0,2.09.82,7.34,7.34,0,0,0,2,.1,4,4,0,0,0,1.28-.37,2,2,0,0,0,1.31-1.5.9.9,0,0,0-.18-.73,1.22,1.22,0,0,0-.8-.4ZM364.9,44a2.25,2.25,0,0,0-.28-1.61,2,2,0,0,0-1.49-.84,2,2,0,0,0-2.52,1.77,2.21,2.21,0,0,0,.31,1.63,2.12,2.12,0,0,0,1.53.86,2,2,0,0,0,1.68-.35A2.3,2.3,0,0,0,364.9,44Z"/><path class="cls-2" d="M378.39,51.77a3.61,3.61,0,0,1-3.79,1.7q-3-.48-3.57-3a5,5,0,0,1,0-2l1.14-7.18,2.73.44-1.1,6.9a2.31,2.31,0,0,0,.27,1.74,1.78,1.78,0,0,0,1.22.75,3.48,3.48,0,0,0,1.34,0,2.56,2.56,0,0,0,1-.51A4.18,4.18,0,0,0,379,48.09l.89-5.56,2.73.44-1.8,11.28-2.73-.44Z"/><path class="cls-2" d="M387.18,51.75q-.21,1.61,2.09,2a2.58,2.58,0,0,0,1.51-.15,1.1,1.1,0,0,0,.71-.8,1,1,0,0,0-.22-.84,3.48,3.48,0,0,0-1-.68L387.94,50q-2.58-1.38-2.24-3.54a2.7,2.7,0,0,1,1.65-2.1,6.15,6.15,0,0,1,3.59-.32,5.24,5.24,0,0,1,3.18,1.48,3.13,3.13,0,0,1,.84,2.58l-2.57-.41a1.14,1.14,0,0,0-.39-1,2.53,2.53,0,0,0-1.34-.55,2.4,2.4,0,0,0-1.46.14,1,1,0,0,0-.63.74q-.13.81,1.17,1.42l2.51,1.42a5.36,5.36,0,0,1,1.85,1.45,2.38,2.38,0,0,1,.42,1.88,3,3,0,0,1-1.7,2.2,5.79,5.79,0,0,1-3.78.49,6.13,6.13,0,0,1-3.46-1.56,3.31,3.31,0,0,1-.95-3Z"/><path class="cls-2" d="M403.71,57.61a7.2,7.2,0,0,1-2.5.22,5.19,5.19,0,0,1-1.51-.45,3.53,3.53,0,0,1-1.07-.81,3.37,3.37,0,0,1-.65-2.79l1-6.3-1.58-.25.29-1.83,1.58.25.47-3,2.73.44-.47,3,3.06.49-.29,1.83-3.06-.49-1,6.21a1.21,1.21,0,0,0,1.1,1.6,5.65,5.65,0,0,0,1.8-.09Z"/><path class="cls-2" d="M413.36,45.18a6.79,6.79,0,0,0,3.25-.74l2.06.33-2.41,15.13-2.73-.44,1.89-11.86a5.44,5.44,0,0,1-2.48.2Z"/><path class="cls-2" d="M421.63,46.5a6.79,6.79,0,0,0,3.25-.74l2.06.33-2.41,15.13-2.73-.44,1.89-11.86a5.44,5.44,0,0,1-2.48.2Z"/></svg>