<svg id="Layer_1" data-name="Layer 1" xmlns="http://www.w3.org/2000/svg" viewBox="0 0 892.57 156.62"><defs><style>.cls-1{fill:#fff;stroke-width:1.2px;}.cls-1,.cls-3{stroke:#1414ef;stroke-miterlimit:10;}.cls-2{fill:#1414ef;}.cls-3{fill:#feea80;}</style></defs><title>title</title><path class="cls-1" d="M52.24,4.34q.41,0,8.1-.5.74,2.31,3.39,8.55t6.49,15.2q3.84,9,6.15,14.75c0,.11.08.17.25.17a.22.22,0,0,0,.25-.25q7.27-17.43,11.57-28.67L91.4,4q2.48.25,6.77.25,3.22,0,9.83-.41a2.4,2.4,0,0,1,.25,1.32q0,1.4-.33,1.4h-.17a6.72,6.72,0,0,0-4,1.32q-1.24.91-1.07,4.46.33,7.35,1.16,34.12a21.83,21.83,0,0,0,1.32,7.6q.33.74,2.31,1.36a11.1,11.1,0,0,0,2.81.62q.33,0,.33,1.49a4,4,0,0,1-.17,1.24l-10.16-.5q-1.65,0-3.47.08l-4,.21-3.51.21a1.76,1.76,0,0,1-.33-1.24q0-1.49.33-1.49a9.76,9.76,0,0,0,2.64-.54,5.18,5.18,0,0,0,2.31-1.2A4.63,4.63,0,0,0,95,51.43V46.8l-.83-25.11q-.33-5.12-1-5.12-.25,0-.41.5L77,55.56q-1.41,3.14-3.14,3.14a2.74,2.74,0,0,1-.83-.17L54.56,14.09Q54,34.66,53.23,50.93a9.11,9.11,0,0,0,.25,2.56q.41.91,3.3,1.73a17.84,17.84,0,0,0,3.88.83q.33,0,.33,1.49a4,4,0,0,1-.17,1.24q-9.91-.5-10.41-.5-2.23,0-5.91.25t-4.5.25a1.91,1.91,0,0,1-.33-1.32q0-1.4.33-1.4a16.52,16.52,0,0,0,4.13-.83q2.81-.82,3.22-2.15a15.37,15.37,0,0,0,.91-5.54q.16-6.28.45-14.83t.5-14.58q.21-6,.21-7.52a7.9,7.9,0,0,0-.25-2.31q-.25-.66-2.77-1.24a18.71,18.71,0,0,0-3.59-.58c-.22,0-.33-.47-.33-1.4a1.76,1.76,0,0,1,.33-1.24l4.25.29Q50.09,4.34,52.24,4.34Z"/><path class="cls-1" d="M124,22.84q1.82,0,5.2-.25t4.21-.25a5.56,5.56,0,0,1,.17,1.49c0,.77-.11,1.16-.33,1.16a9,9,0,0,0-2.6.62q-1.78.62-1.86,1.36v.5q.16,1.32,7.68,18.84.66-1.49,3.22-8.14t3-7.64a7.76,7.76,0,0,0,.5-2.56,2.6,2.6,0,0,0-1.32-2,6.8,6.8,0,0,0-4-1q-.33,0-.33-1.24a2.08,2.08,0,0,1,.33-1.4q1,0,4,.25t5,.25q1.73,0,4.25-.25t3.68-.25a2.36,2.36,0,0,1,.33,1.32q0,1.32-.33,1.32a10.47,10.47,0,0,0-3.35.83,4.56,4.56,0,0,0-2.85,2.48L133.62,64.81q-5.12,12.06-12.31,12.06a4.47,4.47,0,0,1-3.3-1.16,3.86,3.86,0,0,1,.41-5.87q8.59,0,11.32-6.77,2-5,2.23-5.62L119.9,29.37a10.67,10.67,0,0,0-1-1.9,5,5,0,0,0-2.44-1.86,7.81,7.81,0,0,0-2.68-.62q-.33,0-.33-1.16,0-1.32.25-1.49.5,0,4.42.25T124,22.84Z"/><path class="cls-1" d="M187,4.17q2.4,0,5.53-.12t5.62-.12a26.87,26.87,0,0,1,4.92.45A19.91,19.91,0,0,1,207.93,6a17.47,17.47,0,0,1,4.3,2.85,13.08,13.08,0,0,1,3.06,4.34,14.07,14.07,0,0,1,1.2,5.87,15.72,15.72,0,0,1-2,7.6A17.37,17.37,0,0,1,208.34,33a16.79,16.79,0,0,1-9.21,2.6,10.26,10.26,0,0,1-3.47-.62,4.93,4.93,0,0,1-2.4-1.53,1.78,1.78,0,0,1-.29-.83,3.78,3.78,0,0,1,0-1.24c.05-.38.14-.58.25-.58a11.58,11.58,0,0,0,4.63.83,7.3,7.3,0,0,0,6.28-3.26,13.87,13.87,0,0,0,2.31-8.22q0-5.53-2.23-8.76t-6.86-3.22a13.52,13.52,0,0,0-4.79.58q-1,.5-1,8.59V46.8a25.8,25.8,0,0,0,.66,7q.25,1,2.77,1.61a17.43,17.43,0,0,0,3.68.62q.33,0,.33,1.4a4.65,4.65,0,0,1-.17,1.4q-9.09-.5-11.73-.5-2.23,0-5,.12l-4.42.21-1.65.17a2.84,2.84,0,0,1-.25-1.49q0-1.32.25-1.32a14.09,14.09,0,0,0,3.18-.54q2.11-.54,2.44-1.28.5-1.49.5-7.52V15.49a32.45,32.45,0,0,0-.5-6.77q-.25-.66-2.44-1.36a12,12,0,0,0-3.18-.7q-.33,0-.33-1.24T176,3.93Q184.67,4.17,187,4.17Z"/><path class="cls-1" d="M237.79,22a15.32,15.32,0,0,1,6.94,1.53,13.07,13.07,0,0,1,4.79,3.88,19.21,19.21,0,0,1,2.64,4.87,14.24,14.24,0,0,1,.91,4.83q0,1.82-.62,2.27a4.69,4.69,0,0,1-2.52.45H230.19q-.58,0-.58.5a16.06,16.06,0,0,0,1.07,5.78A11.36,11.36,0,0,0,234.36,51a9.72,9.72,0,0,0,6.24,2.07A22.66,22.66,0,0,0,243,53a12.37,12.37,0,0,0,2.15-.41q1-.29,1.73-.54a7.09,7.09,0,0,0,1.53-.74l1.12-.7q.33-.21,1.65-1.12a1.36,1.36,0,0,1,.41.5,1.6,1.6,0,0,1,.25.83,2.54,2.54,0,0,1-.5,1.57,13.46,13.46,0,0,1-4.87,4.46A15.33,15.33,0,0,1,238.29,59,16.73,16.73,0,0,1,225.9,53.7a17.82,17.82,0,0,1-5.2-12.93q0-8.34,4.83-13.55A16,16,0,0,1,237.79,22Zm-.58,3.8A5.84,5.84,0,0,0,233.66,27a7.79,7.79,0,0,0-2.4,2.81,15.78,15.78,0,0,0-1.2,3.1,10.1,10.1,0,0,0-.37,2.44c0,.39.17.58.5.58h13.38q.74,0,.74-1.24a10.71,10.71,0,0,0-1.94-5.87A5.92,5.92,0,0,0,237.21,25.82Z"/><path class="cls-1" d="M275.55,22a18.21,18.21,0,0,1,13.26,5.41,17.7,17.7,0,0,1,5.49,13.09,18.71,18.71,0,0,1-37.42,0,17.8,17.8,0,0,1,5.41-13.14A18.1,18.1,0,0,1,275.55,22Zm-1.07,3.88a6.65,6.65,0,0,0-6,3.76,17.77,17.77,0,0,0-2.15,9A24.09,24.09,0,0,0,269,50.27q2.68,5,7.48,5a6.73,6.73,0,0,0,6.07-3.8,17.57,17.57,0,0,0,2.19-8.92,28.36,28.36,0,0,0-1.07-8,14.57,14.57,0,0,0-3.47-6.16A7.66,7.66,0,0,0,274.47,25.9Z"/><path class="cls-1" d="M321.32,22.1a16.71,16.71,0,0,1,9.42,2.73,17.31,17.31,0,0,1,8.1,14.71A19.33,19.33,0,0,1,319.42,59.2,19.16,19.16,0,0,1,313.55,58c-.22,0-.33.39-.33,1.16v5.62a29.77,29.77,0,0,0,.66,7.44q.08.66,2.19,1.28a12.67,12.67,0,0,0,2.85.62c.17,0,.26.4.29,1.2a7.42,7.42,0,0,1,0,1.53q-.58,0-4.42-.25t-5.66-.25q-2.07,0-5.82.25t-4.42.25a3,3,0,0,1-.25-1.53q0-1.2.25-1.2a11.54,11.54,0,0,0,3-.62q2-.62,2.27-1.28a30,30,0,0,0,.5-5.95V34.74q0-4-1.32-5.37a3.72,3.72,0,0,0-1.82-1.2,9.87,9.87,0,0,0-2-.45c-.55-.05-.83-.14-.83-.25q0-2.4.5-2.48a63.5,63.5,0,0,0,12.31-2.31q1.49-.41,1.57-.41.33,0,.33,1.74a4.54,4.54,0,0,1-.17,1,16.52,16.52,0,0,1,3.68-1.94A11.86,11.86,0,0,1,321.32,22.1Zm-2,4.38A6.24,6.24,0,0,0,314.91,28a5.47,5.47,0,0,0-1.69,4.21v17a5.08,5.08,0,0,0,2.23,4.34,8,8,0,0,0,4.79,1.61,7.76,7.76,0,0,0,6.4-3.47q2.6-3.47,2.6-9.75A21.35,21.35,0,0,0,326.6,30.9Q324,26.48,319.33,26.48Z"/><path class="cls-1" d="M357.75,46.64a33.88,33.88,0,0,0,.58,7.44q.16.58,2,1.28a9,9,0,0,0,2.52.7c.17,0,.26.39.29,1.16a4.5,4.5,0,0,1-.12,1.57l-3.1-.21-3.51-.21q-1.57-.08-3-.08-1.57,0-3.14.08l-3.47.21-3.14.21a2.33,2.33,0,0,1-.33-1.53c0-.8.11-1.2.33-1.2a8.83,8.83,0,0,0,2.77-.7q1.86-.7,2-1.28a27.4,27.4,0,0,0,.66-6.11V13.59a28.8,28.8,0,0,0-.5-5.62q-.41-1.32-4.13-1.32h-.83q-.5,0-.5-1,0-1.32.5-1.32,2.56-.25,4.87-.66t3.84-.83q1.53-.41,2.64-.78t1.78-.62l.58-.25h.17c.22,0,.45.17.7.5a2.53,2.53,0,0,1,.45.83,26.11,26.11,0,0,0-1,7.77Z"/><path class="cls-1" d="M384.68,22a15.32,15.32,0,0,1,6.94,1.53,13.07,13.07,0,0,1,4.79,3.88,19.21,19.21,0,0,1,2.64,4.87,14.24,14.24,0,0,1,.91,4.83q0,1.82-.62,2.27a4.69,4.69,0,0,1-2.52.45H377.08q-.58,0-.58.5a16.06,16.06,0,0,0,1.07,5.78A11.36,11.36,0,0,0,381.25,51a9.72,9.72,0,0,0,6.24,2.07,22.66,22.66,0,0,0,2.4-.12,12.37,12.37,0,0,0,2.15-.41q1-.29,1.73-.54a7.09,7.09,0,0,0,1.53-.74l1.12-.7q.33-.21,1.65-1.12a1.36,1.36,0,0,1,.41.5,1.6,1.6,0,0,1,.25.83,2.54,2.54,0,0,1-.5,1.57,13.46,13.46,0,0,1-4.87,4.46A15.33,15.33,0,0,1,385.18,59a16.73,16.73,0,0,1-12.39-5.33,17.82,17.82,0,0,1-5.2-12.93q0-8.34,4.83-13.55A16,16,0,0,1,384.68,22Zm-.58,3.8A5.84,5.84,0,0,0,380.55,27a7.79,7.79,0,0,0-2.4,2.81,15.78,15.78,0,0,0-1.2,3.1,10.1,10.1,0,0,0-.37,2.44c0,.39.17.58.5.58h13.38q.74,0,.74-1.24a10.71,10.71,0,0,0-1.94-5.87A5.92,5.92,0,0,0,384.1,25.82Z"/><path class="cls-1" d="M451.1,4,468.45,47.3q1.24,3.3,2.48,6a4,4,0,0,0,2.64,2,11,11,0,0,0,3.14.74q.33,0,.33,1.49a2.78,2.78,0,0,1-.17,1.24q-9.91-.5-10.41-.5t-10.74.5a2.33,2.33,0,0,1-.33-1.53c0-.8.11-1.2.33-1.2a10.65,10.65,0,0,0,2.73-.5q1.73-.5,2.07-1.16a2.36,2.36,0,0,0,.25-1.07,19,19,0,0,0-1.57-5.7l-2.89-7.68a.91.91,0,0,0-.58-.33q-2.64-.16-7.1-.17t-9.42.25c-.33,0-.5.11-.5.33l-3.14,7.68A23.45,23.45,0,0,0,434,53.08a1.84,1.84,0,0,0,.91,1.65,8.27,8.27,0,0,0,2.6.91,14.26,14.26,0,0,0,2.52.41q.25.08.25,1.16a5.41,5.41,0,0,1-.17,1.57q-.41,0-3.88-.25t-5.62-.25q-2.15,0-5.08.21l-4.17.29a1.76,1.76,0,0,1-.33-1.24q0-1.49.17-1.49a11.94,11.94,0,0,0,3.18-.7,5.1,5.1,0,0,0,2.77-1.61,39.26,39.26,0,0,0,3.14-6.44l15.37-37.18q1.9-5,3.06-5.95a2.11,2.11,0,0,1,1.4-.58A1.35,1.35,0,0,1,451.1,4Zm-9.91,30.73q2.89.25,5.95.25,2.89,0,6.77-.25l.17-.33L447.8,17.89,441,34.41C441,34.63,441.08,34.74,441.19,34.74Z"/><path class="cls-1" d="M506,22q4.54,0,6.77,2.73,0,7-4,7a4.91,4.91,0,0,1-3.22-1.65,5.17,5.17,0,0,0-3.55-1.65,4.43,4.43,0,0,0-4,2.6,11,11,0,0,0-1.45,5.41V46.8a34.58,34.58,0,0,0,.58,7.44q.16.58,2.19,1.2a11.67,11.67,0,0,0,2.77.62c.17,0,.26.4.29,1.2a8.62,8.62,0,0,1,0,1.61q-.66-.08-4.38-.33t-5.62-.25q-2,0-5.74.25t-4.42.33a2.42,2.42,0,0,1-.33-1.57q0-1.24.33-1.24a11.52,11.52,0,0,0,3-.62q2-.62,2.19-1.2a27,27,0,0,0,.58-6V34.74q0-3.88-1.32-5.29a4,4,0,0,0-1.86-1.24,9.41,9.41,0,0,0-2-.5c-.52-.05-.78-.14-.78-.25q0-2.4.41-2.48a117.19,117.19,0,0,0,13.3-2.48,5,5,0,0,1,.66-.17c.22,0,.41.19.58.58a2,2,0,0,1,.21,1q0,.37-.12,1.16t-.21,1.65a10.57,10.57,0,0,0-.12,1.12,15.17,15.17,0,0,1,4-4A9.05,9.05,0,0,1,506,22Z"/><path class="cls-1" d="M534.29,22a15.32,15.32,0,0,1,6.94,1.53A13.07,13.07,0,0,1,546,27.43a19.21,19.21,0,0,1,2.64,4.87,14.24,14.24,0,0,1,.91,4.83q0,1.82-.62,2.27a4.69,4.69,0,0,1-2.52.45H526.69q-.58,0-.58.5a16.06,16.06,0,0,0,1.07,5.78A11.36,11.36,0,0,0,530.86,51a9.72,9.72,0,0,0,6.24,2.07,22.66,22.66,0,0,0,2.4-.12,12.37,12.37,0,0,0,2.15-.41q1-.29,1.73-.54a7.09,7.09,0,0,0,1.53-.74l1.12-.7q.33-.21,1.65-1.12a1.36,1.36,0,0,1,.41.5,1.6,1.6,0,0,1,.25.83,2.54,2.54,0,0,1-.5,1.57A13.46,13.46,0,0,1,543,56.8,15.33,15.33,0,0,1,534.79,59,16.73,16.73,0,0,1,522.4,53.7a17.82,17.82,0,0,1-5.2-12.93q0-8.34,4.83-13.55A16,16,0,0,1,534.29,22Zm-.58,3.8A5.84,5.84,0,0,0,530.16,27a7.79,7.79,0,0,0-2.4,2.81,15.78,15.78,0,0,0-1.2,3.1,10.1,10.1,0,0,0-.37,2.44c0,.39.17.58.5.58h13.38q.74,0,.74-1.24a10.71,10.71,0,0,0-1.94-5.87A5.92,5.92,0,0,0,533.71,25.82Z"/><path class="cls-1" d="M578.24,51.18a27.64,27.64,0,0,1-7.77-19.75,27.78,27.78,0,0,1,7.77-19.79,25.36,25.36,0,0,1,37.38,0,27.71,27.71,0,0,1,7.81,19.79,27.56,27.56,0,0,1-7.81,19.75,25.45,25.45,0,0,1-37.38,0Zm17.43-43.7q-7.11,0-10.86,6.48a30.72,30.72,0,0,0-3.76,15.66,40.69,40.69,0,0,0,1.69,11.81,23,23,0,0,0,5.74,9.71,13.22,13.22,0,0,0,9.75,4.09q7,0,10.86-6.57A30.47,30.47,0,0,0,612.94,33a41.84,41.84,0,0,0-1.65-11.94,22.11,22.11,0,0,0-5.7-9.58A13.56,13.56,0,0,0,595.67,7.48Z"/><path class="cls-1" d="M650.45,22.1a16.71,16.71,0,0,1,9.42,2.73A17.31,17.31,0,0,1,668,39.53,19.33,19.33,0,0,1,648.55,59.2,19.16,19.16,0,0,1,642.68,58c-.22,0-.33.39-.33,1.16v5.62a29.77,29.77,0,0,0,.66,7.44q.08.66,2.19,1.28a12.67,12.67,0,0,0,2.85.62c.17,0,.26.4.29,1.2a7.42,7.42,0,0,1,0,1.53q-.58,0-4.42-.25t-5.66-.25q-2.07,0-5.82.25t-4.42.25a3,3,0,0,1-.25-1.53q0-1.2.25-1.2a11.54,11.54,0,0,0,3-.62q2-.62,2.27-1.28a30,30,0,0,0,.5-5.95V34.74q0-4-1.32-5.37a3.72,3.72,0,0,0-1.82-1.2,9.87,9.87,0,0,0-2-.45c-.55-.05-.83-.14-.83-.25q0-2.4.5-2.48a63.5,63.5,0,0,0,12.31-2.31q1.49-.41,1.57-.41.33,0,.33,1.74a4.54,4.54,0,0,1-.17,1A16.52,16.52,0,0,1,646,23.05,11.86,11.86,0,0,1,650.45,22.1Zm-2,4.38A6.24,6.24,0,0,0,644,28a5.47,5.47,0,0,0-1.69,4.21v17a5.08,5.08,0,0,0,2.23,4.34,8,8,0,0,0,4.79,1.61,7.76,7.76,0,0,0,6.4-3.47q2.6-3.47,2.6-9.75a21.35,21.35,0,0,0-2.64-11.11Q653.09,26.48,648.46,26.48Z"/><path class="cls-1" d="M689.44,22a15.32,15.32,0,0,1,6.94,1.53,13.07,13.07,0,0,1,4.79,3.88,19.21,19.21,0,0,1,2.64,4.87,14.24,14.24,0,0,1,.91,4.83q0,1.82-.62,2.27a4.69,4.69,0,0,1-2.52.45H681.84q-.58,0-.58.5a16.06,16.06,0,0,0,1.07,5.78A11.36,11.36,0,0,0,686,51a9.72,9.72,0,0,0,6.24,2.07,22.66,22.66,0,0,0,2.4-.12,12.37,12.37,0,0,0,2.15-.41q1-.29,1.73-.54a7.09,7.09,0,0,0,1.53-.74l1.12-.7q.33-.21,1.65-1.12a1.36,1.36,0,0,1,.41.5,1.6,1.6,0,0,1,.25.83,2.54,2.54,0,0,1-.5,1.57,13.46,13.46,0,0,1-4.87,4.46A15.33,15.33,0,0,1,689.94,59a16.73,16.73,0,0,1-12.39-5.33,17.82,17.82,0,0,1-5.2-12.93q0-8.34,4.83-13.55A16,16,0,0,1,689.44,22Zm-.58,3.8A5.84,5.84,0,0,0,685.31,27a7.79,7.79,0,0,0-2.4,2.81,15.78,15.78,0,0,0-1.2,3.1,10.1,10.1,0,0,0-.37,2.44c0,.39.17.58.5.58h13.38q.74,0,.74-1.24A10.71,10.71,0,0,0,694,28.79,5.92,5.92,0,0,0,688.86,25.82Z"/><path class="cls-1" d="M735.54,22Q746.2,22,746.2,39V46.8a34.58,34.58,0,0,0,.58,7.44q.16.58,2.27,1.2a12.65,12.65,0,0,0,2.85.62c.17,0,.26.4.29,1.2a4.68,4.68,0,0,1-.12,1.61q-.5-.08-4.34-.33T742,58.29q-2,0-5.49.25t-4.25.33a2.42,2.42,0,0,1-.33-1.57q0-1.24.33-1.24a9.82,9.82,0,0,0,2.77-.62q1.86-.62,2-1.2a23.73,23.73,0,0,0,.66-6V40.36q0-6.86-1.86-9.58T729.92,28a7.65,7.65,0,0,0-4.63,1.45,4,4,0,0,0-2,3.1V46.8a34.58,34.58,0,0,0,.58,7.44q.16.58,2.19,1.2a11.88,11.88,0,0,0,2.69.62c.22,0,.34.4.37,1.2a4.69,4.69,0,0,1-.12,1.61q-.66-.08-4.34-.33t-5.58-.25q-2,0-5.74.25t-4.42.33a2.42,2.42,0,0,1-.33-1.57q0-1.24.33-1.24a11.52,11.52,0,0,0,3-.62q2-.62,2.19-1.2a27,27,0,0,0,.58-6V34.74q0-3.88-1.32-5.29a4,4,0,0,0-1.86-1.24,9.41,9.41,0,0,0-2-.5c-.52-.05-.78-.14-.78-.25q0-2.4.41-2.48a117.19,117.19,0,0,0,13.3-2.48.54.54,0,0,1,.21-.12.79.79,0,0,1,.25,0h.21c.22,0,.41.19.58.58a2.51,2.51,0,0,1,.25.91,28.15,28.15,0,0,0-.33,3,.65.65,0,0,0,.08.41,1.23,1.23,0,0,0,.41-.25,18.32,18.32,0,0,1,5.08-3.47A14.46,14.46,0,0,1,735.54,22Z"/><path class="cls-1" d="M790,4.13q5.58.21,9.13.21t9.17-.21q5.62-.21,9-.29A27.44,27.44,0,0,0,823,3l1.57,12.64a3.19,3.19,0,0,1-2.23.58c-.44,0-.72-.14-.83-.41q-1.16-4.54-3.06-6.16t-5.95-1.61q-7.68,0-8,1.4a28.86,28.86,0,0,0-.74,7.77V47.05a28.18,28.18,0,0,0,.74,7.19q.08.58,2.23,1.2a13.15,13.15,0,0,0,2.89.62q.33,0,.33,1.49a4.31,4.31,0,0,1-.17,1.32l-3.18-.25q-2.11-.17-3.88-.25t-3.43-.08q-2.23,0-6.15.25t-4.83.33a1.91,1.91,0,0,1-.33-1.32q0-1.49.33-1.49a13.19,13.19,0,0,0,3.1-.58q2.11-.58,2.35-1.24a26.1,26.1,0,0,0,.66-6.86V17.48q0-6.86-.74-8-.66-1.4-7.85-1.4-4,0-5.95,1.61t-3.14,6.07q-.08.5-.83.5a2.78,2.78,0,0,1-2.15-.66L775.36,3a27.41,27.41,0,0,0,5.7.83Q784.45,3.93,790,4.13Z"/><path class="cls-1" d="M847.56,22a18.21,18.21,0,0,1,13.26,5.41,17.7,17.7,0,0,1,5.49,13.09,18.71,18.71,0,0,1-37.42,0,17.8,17.8,0,0,1,5.41-13.14A18.1,18.1,0,0,1,847.56,22Zm-1.07,3.88a6.65,6.65,0,0,0-6,3.76,17.77,17.77,0,0,0-2.15,9A24.09,24.09,0,0,0,841,50.27q2.68,5,7.48,5a6.73,6.73,0,0,0,6.07-3.8,17.57,17.57,0,0,0,2.19-8.92,28.36,28.36,0,0,0-1.07-8,14.57,14.57,0,0,0-3.47-6.16A7.66,7.66,0,0,0,846.49,25.9Z"/><path class="cls-1" d="M52.24,81.34q.41,0,8.1-.5.74,2.31,3.39,8.55t6.49,15.2q3.84,9,6.15,14.75c0,.11.08.17.25.17a.22.22,0,0,0,.25-.25q7.27-17.43,11.57-28.67l3-9.58q2.48.25,6.77.25,3.22,0,9.83-.41a2.4,2.4,0,0,1,.25,1.32q0,1.4-.33,1.4h-.17a6.72,6.72,0,0,0-4,1.32q-1.24.91-1.07,4.46.33,7.35,1.16,34.12a21.83,21.83,0,0,0,1.32,7.6q.33.74,2.31,1.36a11.1,11.1,0,0,0,2.81.62q.33,0,.33,1.49a4,4,0,0,1-.17,1.24l-10.16-.5q-1.65,0-3.47.08l-4,.21-3.51.21a1.76,1.76,0,0,1-.33-1.24q0-1.49.33-1.49a9.76,9.76,0,0,0,2.64-.54,5.18,5.18,0,0,0,2.31-1.2,4.63,4.63,0,0,0,.83-2.89V123.8l-.83-25.11q-.33-5.12-1-5.12-.25,0-.41.5L77,132.56q-1.41,3.14-3.14,3.14a2.74,2.74,0,0,1-.83-.17L54.56,91.09q-.58,20.57-1.32,36.85a9.11,9.11,0,0,0,.25,2.56q.41.91,3.3,1.73a17.84,17.84,0,0,0,3.88.83q.33,0,.33,1.49a4,4,0,0,1-.17,1.24q-9.91-.5-10.41-.5-2.23,0-5.91.25t-4.5.25a1.91,1.91,0,0,1-.33-1.32q0-1.4.33-1.4a16.52,16.52,0,0,0,4.13-.83q2.81-.82,3.22-2.15a15.37,15.37,0,0,0,.91-5.54q.16-6.28.45-14.83t.5-14.58q.21-6,.21-7.52a7.9,7.9,0,0,0-.25-2.31q-.25-.66-2.77-1.24a18.71,18.71,0,0,0-3.59-.58c-.22,0-.33-.47-.33-1.4a1.76,1.76,0,0,1,.33-1.24l4.25.29Q50.09,81.34,52.24,81.34Z"/><path class="cls-1" d="M133.87,99a18.21,18.21,0,0,1,13.26,5.41,17.7,17.7,0,0,1,5.49,13.09,18.75,18.75,0,0,1-32,13.14,18.6,18.6,0,0,1,0-26.27A18.1,18.1,0,0,1,133.87,99Zm-1.07,3.88a6.65,6.65,0,0,0-6,3.76,17.77,17.77,0,0,0-2.15,9,24.09,24.09,0,0,0,2.69,11.65q2.68,5,7.48,5a6.73,6.73,0,0,0,6.07-3.8,17.57,17.57,0,0,0,2.19-8.92,28.36,28.36,0,0,0-1.07-8,14.57,14.57,0,0,0-3.47-6.16A7.66,7.66,0,0,0,132.79,102.9Z"/><path class="cls-1" d="M187.56,104.22q-1.07-2.23-5.78-2.23-.25,0-.25-1.16a2.85,2.85,0,0,1,.25-1.49q1.16,0,4,.25t4.71.25q1.86,0,4.83-.25t4-.25a2.4,2.4,0,0,1,.25,1.32q0,1.32-.5,1.32a9.84,9.84,0,0,0-3.22.79,4.79,4.79,0,0,0-2.81,2.35l-13.8,29.16a5.6,5.6,0,0,1-1.07,1.4,2.09,2.09,0,0,1-1.4.74q-.83,0-1-.5-1.65-3.72-4.5-10.29t-4.92-11.11q-2.07-4.54-4.71-10.24-1-2.31-5.37-2.31-.33,0-.33-1.32a1.91,1.91,0,0,1,.33-1.32q.74,0,4.38.25t5.62.25q2,0,5.7-.25t4.3-.25a2.69,2.69,0,0,1,.21,1.49q0,1.16-.37,1.16a12.12,12.12,0,0,0-2.93.5q-1.86.5-1.86,1.32a1.54,1.54,0,0,0,.17.83l8.18,19,7.44-16.36Q188.14,105.13,187.56,104.22Z"/><path class="cls-1" d="M220.28,99a15.32,15.32,0,0,1,6.94,1.53,13.07,13.07,0,0,1,4.79,3.88,19.21,19.21,0,0,1,2.64,4.87,14.24,14.24,0,0,1,.91,4.83q0,1.82-.62,2.27a4.69,4.69,0,0,1-2.52.45H212.68q-.58,0-.58.5a16.06,16.06,0,0,0,1.07,5.78,11.36,11.36,0,0,0,3.68,4.87,9.72,9.72,0,0,0,6.24,2.07,22.66,22.66,0,0,0,2.4-.12,12.37,12.37,0,0,0,2.15-.41q1-.29,1.73-.54a7.09,7.09,0,0,0,1.53-.74l1.12-.7q.33-.21,1.65-1.12a1.36,1.36,0,0,1,.41.5,1.6,1.6,0,0,1,.25.83,2.54,2.54,0,0,1-.5,1.57A13.46,13.46,0,0,1,229,133.8a15.33,15.33,0,0,1-8.18,2.23,16.73,16.73,0,0,1-12.39-5.33,17.82,17.82,0,0,1-5.2-12.93q0-8.34,4.83-13.55A16,16,0,0,1,220.28,99Zm-.58,3.8a5.84,5.84,0,0,0-3.55,1.16,7.79,7.79,0,0,0-2.4,2.81,15.78,15.78,0,0,0-1.2,3.1,10.1,10.1,0,0,0-.37,2.44c0,.39.17.58.5.58h13.38q.74,0,.74-1.24a10.71,10.71,0,0,0-1.94-5.87A5.92,5.92,0,0,0,219.7,102.82Z"/><path class="cls-1" d="M266.38,99a8.92,8.92,0,0,1,5.37,1.61,9.66,9.66,0,0,1,3.3,4.17,19.48,19.48,0,0,1,6-4.13A18.56,18.56,0,0,1,288.85,99a9.38,9.38,0,0,1,5.08,1.32,9.12,9.12,0,0,1,3.3,3.68,19.44,19.44,0,0,1,1.73,5.12,31.48,31.48,0,0,1,.54,6v8.67a34.58,34.58,0,0,0,.58,7.44q.16.58,2.23,1.2a12.15,12.15,0,0,0,2.81.62c.17,0,.26.4.29,1.2a4.68,4.68,0,0,1-.12,1.61q-.58-.08-4.34-.33t-5.66-.25q-2,0-5.66.25t-4.42.33a3.08,3.08,0,0,1-.25-1.57q0-1.24.25-1.24a11.09,11.09,0,0,0,3-.62q2-.62,2.15-1.2a25.71,25.71,0,0,0,.58-5.78V117q0-12-7.68-12a7.52,7.52,0,0,0-4.54,1.32,5.15,5.15,0,0,0-2.15,2.56c0,.17,0,.39,0,.66a1.61,1.61,0,0,0,0,.66,40.4,40.4,0,0,1,.25,5.12v8.76a32.49,32.49,0,0,0,.58,7.1q.16.58,2.23,1.2a12.15,12.15,0,0,0,2.81.62c.17,0,.26.4.29,1.2a4.69,4.69,0,0,1-.12,1.61q-.58-.08-4.34-.33t-5.66-.25q-2,0-5.66.25t-4.42.33a3.08,3.08,0,0,1-.25-1.57q0-1.24.25-1.24a11.09,11.09,0,0,0,3-.62q2-.62,2.15-1.2a27,27,0,0,0,.58-6v-7.93q0-6.44-1.9-9.33a6.29,6.29,0,0,0-5.62-2.89,7.91,7.91,0,0,0-4.54,1.4,3.9,3.9,0,0,0-2.07,3.14V123.8a30.37,30.37,0,0,0,.66,7.44q.16.58,2.15,1.2a11.21,11.21,0,0,0,2.73.62c.22,0,.34.4.37,1.2a4.69,4.69,0,0,1-.12,1.61q-.66-.08-4.34-.33t-5.58-.25q-2.07,0-5.78.25t-4.38.33a2.42,2.42,0,0,1-.33-1.57q0-1.24.33-1.24a12,12,0,0,0,3-.62q2.06-.62,2.23-1.2a27,27,0,0,0,.58-6V111.74q0-3.88-1.32-5.29a4,4,0,0,0-1.86-1.24,9.31,9.31,0,0,0-2-.5c-.55-.05-.83-.14-.83-.25q0-2.4.5-2.48a114.56,114.56,0,0,0,13.22-2.48.53.53,0,0,1,.25-.12,1.75,1.75,0,0,1,.41,0q.41,0,.66.58a1.52,1.52,0,0,1,.17.91,28.17,28.17,0,0,0-.33,3c0,.22.05.36.17.41A1.23,1.23,0,0,0,255,104a18.32,18.32,0,0,1,5.08-3.47A14.46,14.46,0,0,1,266.38,99Z"/><path class="cls-1" d="M326,99a15.32,15.32,0,0,1,6.94,1.53,13.07,13.07,0,0,1,4.79,3.88,19.21,19.21,0,0,1,2.64,4.87,14.24,14.24,0,0,1,.91,4.83q0,1.82-.62,2.27a4.69,4.69,0,0,1-2.52.45H318.42q-.58,0-.58.5a16.06,16.06,0,0,0,1.07,5.78A11.36,11.36,0,0,0,322.6,128a9.72,9.72,0,0,0,6.24,2.07,22.66,22.66,0,0,0,2.4-.12,12.37,12.37,0,0,0,2.15-.41q1-.29,1.73-.54a7.09,7.09,0,0,0,1.53-.74l1.12-.7q.33-.21,1.65-1.12a1.36,1.36,0,0,1,.41.5,1.6,1.6,0,0,1,.25.83,2.54,2.54,0,0,1-.5,1.57,13.46,13.46,0,0,1-4.87,4.46,15.33,15.33,0,0,1-8.18,2.23,16.73,16.73,0,0,1-12.39-5.33,17.82,17.82,0,0,1-5.2-12.93q0-8.34,4.83-13.55A16,16,0,0,1,326,99Zm-.58,3.8a5.84,5.84,0,0,0-3.55,1.16,7.79,7.79,0,0,0-2.4,2.81,15.78,15.78,0,0,0-1.2,3.1,10.1,10.1,0,0,0-.37,2.44c0,.39.17.58.5.58h13.38q.74,0,.74-1.24a10.71,10.71,0,0,0-1.94-5.87A5.92,5.92,0,0,0,325.45,102.82Z"/><path class="cls-1" d="M372.12,99q10.66,0,10.66,16.94v7.85a34.58,34.58,0,0,0,.58,7.44q.16.58,2.27,1.2a12.65,12.65,0,0,0,2.85.62c.17,0,.26.4.29,1.2a4.68,4.68,0,0,1-.12,1.61q-.5-.08-4.34-.33t-5.74-.25q-2,0-5.49.25t-4.25.33a2.42,2.42,0,0,1-.33-1.57q0-1.24.33-1.24a9.82,9.82,0,0,0,2.77-.62q1.86-.62,2-1.2a23.73,23.73,0,0,0,.66-6v-7.85q0-6.86-1.86-9.58T366.5,105a7.65,7.65,0,0,0-4.63,1.45,4,4,0,0,0-2,3.1V123.8a34.58,34.58,0,0,0,.58,7.44q.16.58,2.19,1.2a11.88,11.88,0,0,0,2.69.62c.22,0,.34.4.37,1.2a4.69,4.69,0,0,1-.12,1.61q-.66-.08-4.34-.33t-5.58-.25q-2,0-5.74.25t-4.42.33a2.42,2.42,0,0,1-.33-1.57q0-1.24.33-1.24a11.52,11.52,0,0,0,3-.62q2-.62,2.19-1.2a27,27,0,0,0,.58-6V111.74q0-3.88-1.32-5.29a4,4,0,0,0-1.86-1.24,9.41,9.41,0,0,0-2-.5c-.52-.05-.78-.14-.78-.25q0-2.4.41-2.48a117.19,117.19,0,0,0,13.3-2.48.54.54,0,0,1,.21-.12.79.79,0,0,1,.25,0h.21c.22,0,.41.19.58.58a2.51,2.51,0,0,1,.25.91,28.15,28.15,0,0,0-.33,3,.65.65,0,0,0,.08.41,1.23,1.23,0,0,0,.41-.25,18.32,18.32,0,0,1,5.08-3.47A14.46,14.46,0,0,1,372.12,99Z"/><path class="cls-1" d="M398.15,104.8h-5q-.58,0-.58-2.15a2.06,2.06,0,0,1,.08-.74A23.1,23.1,0,0,0,399,97.53q1.07-1.07,2.35-2.44t3-3.51a5.88,5.88,0,0,1,1.57.21c.5.14.74.29.74.46v8.1l6,0,4.09,0q.66,0,.66.74a8,8,0,0,1-.83,3.63h-9.91v19.91a7.84,7.84,0,0,0,1.4,5,4.72,4.72,0,0,0,3.88,1.74,7.79,7.79,0,0,0,1.73-.21,8.77,8.77,0,0,0,1.49-.45q.58-.25,1.07-.5a2.59,2.59,0,0,1,.58-.25q.33-.08.74.74t.33,1.07q-.5,1.16-3.51,2.68a13,13,0,0,1-5.91,1.53,10.42,10.42,0,0,1-7.31-2.77q-3-2.77-3-8.55Z"/><path class="cls-2" d="M7,18.12H9.91v1.57H2.28V18.12H5.13V8.91L2.85,10.3,2,8.88,5.67,6.64H7Z"/><path class="cls-2" d="M19.44,11.94a3.67,3.67,0,0,1,1.43,1.47,4.49,4.49,0,0,1,.51,2.17,4.41,4.41,0,0,1-.55,2.2A3.88,3.88,0,0,1,19.3,19.3a4.45,4.45,0,0,1-2.2.55,4.47,4.47,0,0,1-3.73-1.66,7.49,7.49,0,0,1-1.31-4.73,10.32,10.32,0,0,1,.61-3.75,5.09,5.09,0,0,1,1.78-2.39,4.7,4.7,0,0,1,2.78-.82,6.37,6.37,0,0,1,2.24.41,5.71,5.71,0,0,1,1.91,1.17l-.69,1.41A5.43,5.43,0,0,0,17.28,8a2.75,2.75,0,0,0-2.46,1.4,7.54,7.54,0,0,0-.87,4v.05A3.16,3.16,0,0,1,15.27,12a4,4,0,0,1,2.07-.54A4.14,4.14,0,0,1,19.44,11.94Zm-.6,5.61a2.72,2.72,0,0,0,.69-1.94,2.67,2.67,0,0,0-.69-1.93A2.44,2.44,0,0,0,17,13a2.53,2.53,0,0,0-2.63,2.65,2.62,2.62,0,0,0,.73,1.93,2.57,2.57,0,0,0,1.92.74A2.39,2.39,0,0,0,18.84,17.56Z"/><path class="cls-3" d="M536.93,56.76,361.42,130.14a13.66,13.66,0,0,1-17.86-7.35h0a13.66,13.66,0,0,1,7.35-17.86L526.42,31.55a13.66,13.66,0,0,1,17.86,7.35h0A13.66,13.66,0,0,1,536.93,56.76Z"/><path class="cls-2" d="M369.45,104.72a6,6,0,0,1,1.83-.48,4.11,4.11,0,0,1,3.91,2l-1.94,1.26a3.39,3.39,0,0,0-1.4-1,2.12,2.12,0,0,0-1.61.05,2.35,2.35,0,0,0-1.44,1.71,5.19,5.19,0,0,0,.44,3.17,5.63,5.63,0,0,0,1.85,2.57,2.24,2.24,0,0,0,2.24.27,2.62,2.62,0,0,0,1.5-1.28,2.07,2.07,0,0,0,0-1.68l2.12-.88a3.79,3.79,0,0,1,0,3.29,5.12,5.12,0,0,1-2.76,2.31,4.59,4.59,0,0,1-4-.08,6.81,6.81,0,0,1-3-3.63,6.61,6.61,0,0,1-.42-4.71A4.59,4.59,0,0,1,369.45,104.72Z"/><path class="cls-2" d="M380.44,103.32a4.87,4.87,0,0,1,1.64-.38,3.48,3.48,0,0,1,1.56.28,4.77,4.77,0,0,1,2.5,2.75,4.72,4.72,0,0,1,.18,3.68,4,4,0,0,1-2.32,2.22,4.1,4.1,0,0,1-3.24.1,4.68,4.68,0,0,1-2.48-2.72,4.73,4.73,0,0,1-.2-3.71A4.1,4.1,0,0,1,380.44,103.32Zm3.73,3.45a3.36,3.36,0,0,0-1.3-1.72,1.8,1.8,0,0,0-1.66-.06,2,2,0,0,0-1.19,1.25,3.07,3.07,0,0,0,.23,2.16,3.32,3.32,0,0,0,1.31,1.71,1.82,1.82,0,0,0,1.66.06,2,2,0,0,0,1.18-1.25A3.07,3.07,0,0,0,384.17,106.78Z"/><path class="cls-2" d="M394.62,99.48a3,3,0,0,1,2-2.89,3,3,0,0,1,2.66,0,4.32,4.32,0,0,1,1.85,2.28l2,4.73-2,.83-2-4.73a2.07,2.07,0,0,0-1-1.18,1.73,1.73,0,0,0-1.41,0,1.65,1.65,0,0,0-1,1.22,4,4,0,0,0,.33,2.29l1.58,3.8-2,.82-2-4.73a2.07,2.07,0,0,0-1-1.18,1.73,1.73,0,0,0-1.41,0,1.81,1.81,0,0,0-1.05,1.26,3.75,3.75,0,0,0,.28,2.35l1.56,3.75-2,.82-3.37-8.1,1.72-.71.8,1.31a2.9,2.9,0,0,1,1.89-2.69,3.15,3.15,0,0,1,1.89-.24A3,3,0,0,1,394.62,99.48Z"/><path class="cls-2" d="M401.44,91.77a1.21,1.21,0,0,1,0-1A1.58,1.58,0,0,1,403.2,90a1.36,1.36,0,0,1,.7,1.68,1.58,1.58,0,0,1-1.79.75A1.21,1.21,0,0,1,401.44,91.77Zm1.32,2.5,2-.82,3.38,8.12-2,.82Z"/><path class="cls-2" d="M410.58,92.67A3.19,3.19,0,0,1,415.14,90,4.49,4.49,0,0,1,417,92.32l2,4.73-2,.82-2-4.73A2.07,2.07,0,0,0,414,92a1.73,1.73,0,0,0-1.41,0,1.81,1.81,0,0,0-1.05,1.26,3.75,3.75,0,0,0,.28,2.35l1.56,3.75-2,.82-3.37-8.1,1.72-.71Z"/><path class="cls-2" d="M421.14,92.25a2.84,2.84,0,0,1-1.85-1.67,2.81,2.81,0,0,1,.15-2.56,3.91,3.91,0,0,1,2-1.74,4.75,4.75,0,0,1,2.36-.41,2.38,2.38,0,0,1,.18-1.87,2.7,2.7,0,0,1,1.41-1.27l.68,1.92q-1.43.6-1.09,1.57a2.69,2.69,0,0,1,1.27,1.31,3.11,3.11,0,0,1,.27,1.46,2.91,2.91,0,0,1-.39,1.23A4.09,4.09,0,0,1,424,92a4.54,4.54,0,0,1-1.59.37.87.87,0,0,0-.33,1.08q.31.75,1.58.22l2.72-1.13q2.77-1.15,3.57.78a3,3,0,0,1,.21,1.41,3.69,3.69,0,0,1-.48,1.5,5.86,5.86,0,0,1-3,2.5,6.33,6.33,0,0,1-3.59.54,2.46,2.46,0,0,1-2-1.43,1.71,1.71,0,0,1,0-1.38,2.35,2.35,0,0,1,1-1.06,1.88,1.88,0,0,1-1.6-1.07,1.48,1.48,0,0,1,0-1.13A2.21,2.21,0,0,1,421.14,92.25Zm3,2.88q-1.54.72-1.07,1.84a1.11,1.11,0,0,0,1,.63,3.62,3.62,0,0,0,1.7-.31,5.64,5.64,0,0,0,1.35-.74,3.11,3.11,0,0,0,.69-.76,1.55,1.55,0,0,0,.25-1.51.69.69,0,0,0-.41-.4.94.94,0,0,0-.69.06Zm.21-6.67a1.73,1.73,0,0,0-.83-.94,1.56,1.56,0,0,0-1.32.05,1.55,1.55,0,0,0-.93,2.18,1.7,1.7,0,0,0,.86.94,1.63,1.63,0,0,0,1.35-.05,1.55,1.55,0,0,0,1-.91A1.77,1.77,0,0,0,424.31,88.45Z"/><path class="cls-2" d="M438.16,79.87a1.89,1.89,0,0,0-2.59-.58,2.42,2.42,0,0,0-1.18.89,1.08,1.08,0,0,0-.13,1,1,1,0,0,0,.62.63,3.21,3.21,0,0,0,1.17.11l2.73-.06a5.25,5.25,0,0,1,2.34.4,2.74,2.74,0,0,1,1.39,1.5,3,3,0,0,1-.13,2.78,5.41,5.41,0,0,1-2.78,2.16,4.94,4.94,0,0,1-3.28.33,3.71,3.71,0,0,1-2.45-2.18l2-.81a1.75,1.75,0,0,0,2.08,1.11,4.56,4.56,0,0,0,1.15-.34,2.67,2.67,0,0,0,1.12-.87,1.12,1.12,0,0,0,.2-1.16,1.28,1.28,0,0,0-.68-.75,3.26,3.26,0,0,0-1.27-.14l-2.5,0a6.1,6.1,0,0,1-2.39-.34,2.6,2.6,0,0,1-1.42-1.52,2.73,2.73,0,0,1,.16-2.57,5,5,0,0,1,2.55-2,4.58,4.58,0,0,1,3.17-.33,3.67,3.67,0,0,1,2.12,1.88Z"/><path class="cls-2" d="M450.19,77.13a4.91,4.91,0,0,1,.74,1.2,8.06,8.06,0,0,1,.37,1.08l-5.23,2.18a3,3,0,0,0,1.15,1.4,1.71,1.71,0,0,0,1.62,0,1.41,1.41,0,0,0,1-1.67l2-.83a3.15,3.15,0,0,1-.32,2.38,4,4,0,0,1-2,1.7,3.81,3.81,0,0,1-3.17,0,4.8,4.8,0,0,1-2.41-2.65,4.74,4.74,0,0,1-.19-3.6,3.82,3.82,0,0,1,2.21-2.25,3.41,3.41,0,0,1,3.11.09A4,4,0,0,1,450.19,77.13Zm-3.58.49a1.76,1.76,0,0,0-1.07,1.08,2.64,2.64,0,0,0,0,1.62L449,78.89a2,2,0,0,0-1.57-1.42A1.77,1.77,0,0,0,446.61,77.62Z"/><path class="cls-2" d="M454.09,74.21a2.73,2.73,0,0,1,1.79-2.29,3.68,3.68,0,0,1,3,.06,5.3,5.3,0,0,1,2.6,6.29,3.66,3.66,0,0,1-2.08,2.19,2.78,2.78,0,0,1-2.53,0l1.91,4.6-2,.82-5-12,1.62-.67Zm4.25,4.62a2.11,2.11,0,0,0,.66-.45,2.05,2.05,0,0,0,.48-.75,2.82,2.82,0,0,0-.11-2.15,3,3,0,0,0-1.34-1.6,1.93,1.93,0,0,0-1.68-.08,2.09,2.09,0,0,0-1.15,1,2,2,0,0,0,0,1.59l.6,1.45a1.74,1.74,0,0,0,1.08,1A2,2,0,0,0,458.34,78.84Z"/><path class="cls-2" d="M469.85,75.63a5.54,5.54,0,0,1-1.55,1.15,4,4,0,0,1-1.17.31,2.71,2.71,0,0,1-1-.1,2.59,2.59,0,0,1-1.55-1.56l-1.89-4.53-1.13.47L461,70.05l1.13-.47-.89-2.13,2-.82.89,2.13,2.2-.92.55,1.32-2.2.92,1.86,4.47a.93.93,0,0,0,1.37.6,4.33,4.33,0,0,0,1.14-.79Z"/><path class="cls-2" d="M475.77,66.48a4.91,4.91,0,0,1,.74,1.2,8.06,8.06,0,0,1,.37,1.08l-5.23,2.18a3,3,0,0,0,1.15,1.4,1.71,1.71,0,0,0,1.62,0,1.41,1.41,0,0,0,1-1.67l2-.83a3.15,3.15,0,0,1-.32,2.38,4,4,0,0,1-2,1.7,3.81,3.81,0,0,1-3.17,0,4.8,4.8,0,0,1-2.41-2.65,4.74,4.74,0,0,1-.19-3.6,3.82,3.82,0,0,1,2.21-2.25,3.41,3.41,0,0,1,3.11.09A4,4,0,0,1,475.77,66.48Zm-3.58.49a1.76,1.76,0,0,0-1.07,1.08,2.64,2.64,0,0,0,0,1.62l3.45-1.44A2,2,0,0,0,473,66.82,1.77,1.77,0,0,0,472.19,67Z"/><path class="cls-2" d="M485.25,61.75a3,3,0,0,1,2-2.89,3,3,0,0,1,2.66,0,4.32,4.32,0,0,1,1.85,2.28l2,4.73-2,.83-2-4.73a2.07,2.07,0,0,0-1-1.18,1.73,1.73,0,0,0-1.41,0,1.65,1.65,0,0,0-1,1.22,4,4,0,0,0,.33,2.29l1.58,3.8-2,.82-2-4.73a2.07,2.07,0,0,0-1-1.18,1.73,1.73,0,0,0-1.41,0,1.81,1.81,0,0,0-1.05,1.26,3.75,3.75,0,0,0,.28,2.35l1.56,3.75-2,.82-3.37-8.1,1.72-.71.8,1.31a2.9,2.9,0,0,1,1.89-2.69,3.15,3.15,0,0,1,1.89-.24A3,3,0,0,1,485.25,61.75Z"/><path class="cls-2" d="M500.42,56.21a4.91,4.91,0,0,1,.74,1.2,8.06,8.06,0,0,1,.37,1.08l-5.23,2.18a3,3,0,0,0,1.15,1.4,1.71,1.71,0,0,0,1.62,0,1.41,1.41,0,0,0,1-1.67l2-.83a3.15,3.15,0,0,1-.32,2.38,4,4,0,0,1-2,1.7,3.81,3.81,0,0,1-3.17,0A4.8,4.8,0,0,1,494.15,61a4.74,4.74,0,0,1-.19-3.6,3.82,3.82,0,0,1,2.21-2.25,3.41,3.41,0,0,1,3.11.09A4,4,0,0,1,500.42,56.21Zm-3.58.49a1.76,1.76,0,0,0-1.07,1.08,2.64,2.64,0,0,0,0,1.62L499.24,58a2,2,0,0,0-1.57-1.42A1.77,1.77,0,0,0,496.84,56.71Z"/><path class="cls-2" d="M504.69,53.73a2.57,2.57,0,0,1,1.47-2.67,3.11,3.11,0,0,1,.77-.18l.79,2a4.73,4.73,0,0,0-1,.28q-2,.82-.84,3.54l1.48,3.55-2,.82-3.38-8.12,2-.82Z"/><path class="cls-2" d="M518.28,42.87l2.85,6.85,1.88-.78.7,1.68-1.88.78,1,2.4-2,.81-1-2.4L514.4,54.5,513.78,53l2.6-9.35ZM516.11,52l3.25-1.35-1.72-4.13Z"/></svg>