<svg id="Layer_1" data-name="Layer 1" xmlns="http://www.w3.org/2000/svg" viewBox="0 0 892.62 234.7"><defs><style>.cls-1{fill:#fff;stroke-width:1.2px;}.cls-1,.cls-3{stroke:#1414ef;stroke-miterlimit:10;}.cls-2{fill:#1414ef;}.cls-3{fill:#feea80;}</style></defs><title>title</title><path class="cls-1" d="M51,5.25H65.26q13.46,0,21,7.93a26.18,26.18,0,0,1,7.56,18.67q0,11.9-7.64,20t-21,8.05q-1.74,0-6.82-.17T51,59.52l-11,.33a2.16,2.16,0,0,1-.25-1.32q0-1.4.25-1.4a13.59,13.59,0,0,0,3.14-.54q2.06-.54,2.4-1.28.58-1.73.58-7.52V16.57a26.17,26.17,0,0,0-.58-6.77q-.25-.91-2.31-1.49A13,13,0,0,0,40,7.73q-.33,0-.33-1.24A2.25,2.25,0,0,1,40,5Q45.43,5.25,51,5.25Zm4.54,10.57V48.21q0,4.63.91,6.11,1.32,1.32,10.08,1.32,16.77,0,16.77-24.12,0-9.25-4.5-15.7T65.92,9.38H65.5q-7.93,0-8.92,1.32Q55.51,12.19,55.51,15.82Z"/><path class="cls-1" d="M117,23.09a18.21,18.21,0,0,1,13.26,5.41,17.7,17.7,0,0,1,5.49,13.09,18.75,18.75,0,0,1-32,13.14A17.9,17.9,0,0,1,98.3,41.6a17.8,17.8,0,0,1,5.41-13.14A18.1,18.1,0,0,1,117,23.09ZM115.9,27a6.65,6.65,0,0,0-6,3.76,17.77,17.77,0,0,0-2.15,9,24.09,24.09,0,0,0,2.69,11.65q2.68,5,7.48,5A6.73,6.73,0,0,0,124,52.5a17.57,17.57,0,0,0,2.19-8.92,28.36,28.36,0,0,0-1.07-8,14.57,14.57,0,0,0-3.47-6.16A7.66,7.66,0,0,0,115.9,27Z"/><path class="cls-1" d="M167.2,23.09q10.66,0,10.66,16.94v7.85a34.58,34.58,0,0,0,.58,7.44q.16.58,2.27,1.2a12.65,12.65,0,0,0,2.85.62c.17,0,.26.4.29,1.2a4.68,4.68,0,0,1-.12,1.61q-.5-.08-4.34-.33t-5.74-.25q-2,0-5.49.25t-4.25.33a2.42,2.42,0,0,1-.33-1.57q0-1.24.33-1.24a9.82,9.82,0,0,0,2.77-.62q1.86-.62,2-1.2a23.73,23.73,0,0,0,.66-6V41.43q0-6.86-1.86-9.58t-5.91-2.73A7.65,7.65,0,0,0,157,30.57a4,4,0,0,0-2,3.1V47.88a34.58,34.58,0,0,0,.58,7.44q.16.58,2.19,1.2a11.88,11.88,0,0,0,2.69.62c.22,0,.34.4.37,1.2a4.69,4.69,0,0,1-.12,1.61q-.66-.08-4.34-.33t-5.58-.25q-2,0-5.74.25t-4.42.33a2.42,2.42,0,0,1-.33-1.57q0-1.24.33-1.24a11.52,11.52,0,0,0,3-.62q2-.62,2.19-1.2a27,27,0,0,0,.58-6V35.81q0-3.88-1.32-5.29a4,4,0,0,0-1.86-1.24,9.41,9.41,0,0,0-2-.5c-.52-.05-.78-.14-.78-.25q0-2.4.41-2.48a117.19,117.19,0,0,0,13.3-2.48.54.54,0,0,1,.21-.12.79.79,0,0,1,.25,0h.21c.22,0,.41.19.58.58a2.51,2.51,0,0,1,.25.91,28.15,28.15,0,0,0-.33,3,.65.65,0,0,0,.08.41,1.23,1.23,0,0,0,.41-.25,18.32,18.32,0,0,1,5.08-3.47A14.46,14.46,0,0,1,167.2,23.09Z"/><path class="cls-1" d="M198.68,7.56a11.08,11.08,0,0,1-.87,4.25,12.37,12.37,0,0,1-2.11,3.51,24.5,24.5,0,0,1-2.56,2.52,15.81,15.81,0,0,1-2.27,1.65,3.81,3.81,0,0,1-1.2.54,2.39,2.39,0,0,1-1.28-.58,2.82,2.82,0,0,1-1-1.24,13,13,0,0,0,3.64-3.1,11.3,11.3,0,0,0,1.78-2.81,5.16,5.16,0,0,0,.37-1.61q0-1.07-1.73-2.93t-1.73-3a3,3,0,0,1,1.69-2.48,6.88,6.88,0,0,1,3.76-1.07,5.15,5.15,0,0,1,2.31.58Q198.68,3.6,198.68,7.56Z"/><path class="cls-1" d="M206.61,28.88h-5q-.58,0-.58-2.15a2.06,2.06,0,0,1,.08-.74,23.1,23.1,0,0,0,6.36-4.38q1.07-1.07,2.35-2.44t3-3.51a5.88,5.88,0,0,1,1.57.21c.5.14.74.29.74.46v8.1l6,0,4.09,0q.66,0,.66.74a8,8,0,0,1-.83,3.63h-9.91V48.79a7.84,7.84,0,0,0,1.4,5,4.72,4.72,0,0,0,3.88,1.74,7.79,7.79,0,0,0,1.73-.21,8.77,8.77,0,0,0,1.49-.45q.58-.25,1.07-.5a2.59,2.59,0,0,1,.58-.25q.33-.08.74.74t.33,1.07q-.5,1.16-3.51,2.68a13,13,0,0,1-5.91,1.53,10.42,10.42,0,0,1-7.31-2.77q-3-2.77-3-8.55Z"/><path class="cls-1" d="M258.65,5.41q1.49,0,11.4-.5a3.82,3.82,0,0,1,.12,1.49c0,.77-.12,1.16-.29,1.16a9.13,9.13,0,0,0-3,.58q-1.65.58-1.65,1.73A5.18,5.18,0,0,0,266,12l8.76,16q.41.41.83-.17,3.55-5.29,6.86-10.91t3.3-7.1q0-.91-1.53-1.61a9.71,9.71,0,0,0-4-.7q-.33,0-.33-1.16a2.85,2.85,0,0,1,.25-1.49q8.34.5,9.91.5,1.9,0,3.43-.08t3.14-.21l2.52-.21a5.47,5.47,0,0,1,.17,1.32c0,.88-.11,1.32-.33,1.32a11.49,11.49,0,0,0-3.43.74,6.72,6.72,0,0,0-3.18,2q-2.4,3.55-8.59,13.59T277.57,35V47.88a31.6,31.6,0,0,0,.66,7.44q.16.58,2.27,1.28a11.59,11.59,0,0,0,2.77.7q.33,0,.33,1.32a4.3,4.3,0,0,1-.17,1.32l-3.14-.25q-2.07-.17-3.8-.25t-3.39-.08q-2.23,0-6.07.25t-4.75.33a1.91,1.91,0,0,1-.33-1.32q0-1.32.25-1.32a11.27,11.27,0,0,0,3.06-.66q2.06-.66,2.31-1.32a29.5,29.5,0,0,0,.66-7.27V35.81a5.18,5.18,0,0,0-.54-1.61q-.54-1.2-1.86-3.64t-2.31-4.21l-3.22-5.74L257,14.75q-2.4-4.46-4.3-5.7a8.27,8.27,0,0,0-2.44-1,9.87,9.87,0,0,0-2.35-.46c-.17,0-.26-.27-.29-.83a2.53,2.53,0,0,1,.12-1.16Q249.73,5.41,258.65,5.41Z"/><path class="cls-1" d="M320.95,23.09A18.21,18.21,0,0,1,334.2,28.5,17.7,17.7,0,0,1,339.7,41.6a18.71,18.71,0,0,1-37.42,0,17.8,17.8,0,0,1,5.41-13.14A18.1,18.1,0,0,1,320.95,23.09ZM319.87,27a6.65,6.65,0,0,0-6,3.76,17.77,17.77,0,0,0-2.15,9,24.09,24.09,0,0,0,2.69,11.65q2.68,5,7.48,5a6.73,6.73,0,0,0,6.07-3.8,17.57,17.57,0,0,0,2.19-8.92,28.36,28.36,0,0,0-1.07-8,14.57,14.57,0,0,0-3.47-6.16A7.66,7.66,0,0,0,319.87,27Z"/><path class="cls-1" d="M380.26,32V48.37a18.31,18.31,0,0,0,.66,5.78,1.71,1.71,0,0,0,.95.66,6.4,6.4,0,0,0,1.45.33,12.26,12.26,0,0,0,1.36.08,1.52,1.52,0,0,1,.7.08c.22.06.33.3.33.74a6.3,6.3,0,0,1-.17,1.12c-.11.52-.28.79-.5.79a19,19,0,0,0-2.93.29l-3.43.58q-1.65.29-3.14.62t-3.3.66q-.58,0-.58-1.32V55.15q-.08-.41-.25-.41a18.44,18.44,0,0,1-5,3.72,13.84,13.84,0,0,1-6.53,1.65,8.65,8.65,0,0,1-4.92-1.41,10,10,0,0,1-3.3-3.63,17.76,17.76,0,0,1-1.73-4.79,25.22,25.22,0,0,1-.54-5.21V35.81q0-3.88-1.32-5.29a4.59,4.59,0,0,0-1.9-1.24,8.68,8.68,0,0,0-2-.5c-.55-.05-.83-.14-.83-.25q0-2.4.41-2.48a62.33,62.33,0,0,0,6.77-1A64.76,64.76,0,0,0,357,23.59a1.34,1.34,0,0,0,.33-.08,1.41,1.41,0,0,1,.33-.08q.41,0,.62.58a2.94,2.94,0,0,1,.21.91q-.74,5.62-.74,7.27v9.91q0,6.44,1.82,9.25t5.87,2.81a6.48,6.48,0,0,0,4.46-1.61,4.4,4.4,0,0,0,1.82-3.1V35.81q0-3.88-1.32-5.29a4,4,0,0,0-1.86-1.24,9.31,9.31,0,0,0-2-.5c-.55-.05-.83-.14-.83-.25q0-2.4.5-2.48a63.43,63.43,0,0,0,6.69-1,64.78,64.78,0,0,0,6.53-1.49,4.78,4.78,0,0,0,.66-.17q.41,0,.66.58a1.52,1.52,0,0,1,.17.91Q380.26,30.53,380.26,32Z"/><path class="cls-1" d="M418.84,59.36q-2.48,0-5.29.12t-4.38.29l-1.65.08a2.16,2.16,0,0,1-.25-1.32q0-1.4.25-1.4a13.59,13.59,0,0,0,3.14-.54q2.06-.54,2.4-1.28.58-1.73.58-7.52V16.57a26.17,26.17,0,0,0-.58-6.77q-.25-.91-2.31-1.49a13,13,0,0,0-3.3-.58q-.33,0-.33-1.24A2.25,2.25,0,0,1,407.44,5q5.37.33,10.91.33,3.88.08,13.09-.25T445,4.75q.33,2.48,1.32,6.9t1.07,4.83a2.55,2.55,0,0,1-1.73.41c-.61,0-1-.19-1.16-.58Q441.81,9,434,9h-4.3q-6.11,0-6.28,1.07a37.18,37.18,0,0,0-.41,6.69v13q0,.5,3.64.5h4.54q4.79,0,5.7-.41t1.4-2.89q.25-1.24.5-2.07.08-.58,1.32-.58a2.24,2.24,0,0,1,1.57.41V40.28a2.42,2.42,0,0,1-1.57.33q-1.07,0-1.32-.66a26,26,0,0,0-1-3.3,4.82,4.82,0,0,0-.58-1.16l-.7-.5q-1.07-.66-7.6-.66-5.87,0-5.87.66V48a20.14,20.14,0,0,0,.91,6.86q.33.83,3,1.57a16.6,16.6,0,0,0,3.55.74q.41,0,.41,1.4a2.4,2.4,0,0,1-.25,1.32Q420.66,59.36,418.84,59.36Z"/><path class="cls-1" d="M468.66,23.09a15.32,15.32,0,0,1,6.94,1.53,13.07,13.07,0,0,1,4.79,3.88A19.21,19.21,0,0,1,483,33.38a14.24,14.24,0,0,1,.91,4.83q0,1.82-.62,2.27a4.69,4.69,0,0,1-2.52.45H461.06q-.58,0-.58.5a16.06,16.06,0,0,0,1.07,5.78,11.36,11.36,0,0,0,3.68,4.87,9.72,9.72,0,0,0,6.24,2.07,22.66,22.66,0,0,0,2.4-.12,12.37,12.37,0,0,0,2.15-.41q1-.29,1.73-.54a7.09,7.09,0,0,0,1.53-.74l1.12-.7q.33-.21,1.65-1.12a1.36,1.36,0,0,1,.41.5,1.6,1.6,0,0,1,.25.83,2.54,2.54,0,0,1-.5,1.57,13.46,13.46,0,0,1-4.87,4.46,15.33,15.33,0,0,1-8.18,2.23,16.73,16.73,0,0,1-12.39-5.33,17.82,17.82,0,0,1-5.2-12.93q0-8.34,4.83-13.55A16,16,0,0,1,468.66,23.09Zm-.58,3.8A5.84,5.84,0,0,0,464.53,28a7.79,7.79,0,0,0-2.4,2.81,15.78,15.78,0,0,0-1.2,3.1,10.1,10.1,0,0,0-.37,2.44c0,.39.17.58.5.58h13.38q.74,0,.74-1.24a10.71,10.71,0,0,0-1.94-5.87A5.92,5.92,0,0,0,468.08,26.89Z"/><path class="cls-1" d="M504.68,23.09a15.32,15.32,0,0,1,6.94,1.53,13.07,13.07,0,0,1,4.79,3.88,19.21,19.21,0,0,1,2.64,4.87,14.24,14.24,0,0,1,.91,4.83q0,1.82-.62,2.27a4.69,4.69,0,0,1-2.52.45H497.08q-.58,0-.58.5a16.06,16.06,0,0,0,1.07,5.78,11.36,11.36,0,0,0,3.68,4.87,9.72,9.72,0,0,0,6.24,2.07,22.66,22.66,0,0,0,2.4-.12,12.37,12.37,0,0,0,2.15-.41q1-.29,1.73-.54a7.09,7.09,0,0,0,1.53-.74l1.12-.7q.33-.21,1.65-1.12a1.36,1.36,0,0,1,.41.5,1.6,1.6,0,0,1,.25.83,2.54,2.54,0,0,1-.5,1.57,13.46,13.46,0,0,1-4.87,4.46,15.33,15.33,0,0,1-8.18,2.23,16.73,16.73,0,0,1-12.39-5.33,17.82,17.82,0,0,1-5.2-12.93q0-8.34,4.83-13.55A16,16,0,0,1,504.68,23.09Zm-.58,3.8A5.84,5.84,0,0,0,500.55,28a7.79,7.79,0,0,0-2.4,2.81A15.78,15.78,0,0,0,497,34a10.1,10.1,0,0,0-.37,2.44c0,.39.17.58.5.58h13.38q.74,0,.74-1.24a10.71,10.71,0,0,0-1.94-5.87A5.92,5.92,0,0,0,504.1,26.89Z"/><path class="cls-1" d="M538.14,47.71a33.88,33.88,0,0,0,.58,7.44q.16.58,2,1.28a9,9,0,0,0,2.52.7c.17,0,.26.39.29,1.16a4.5,4.5,0,0,1-.12,1.57l-3.1-.21-3.51-.21q-1.57-.08-3-.08-1.57,0-3.14.08l-3.47.21-3.14.21a2.33,2.33,0,0,1-.33-1.53c0-.8.11-1.2.33-1.2a8.83,8.83,0,0,0,2.77-.7q1.86-.7,2-1.28a27.4,27.4,0,0,0,.66-6.11V14.67A28.8,28.8,0,0,0,529,9q-.41-1.32-4.13-1.32h-.83q-.5,0-.5-1,0-1.32.5-1.32,2.56-.25,4.87-.66t3.84-.83q1.53-.41,2.64-.78t1.78-.62l.58-.25H538c.22,0,.45.17.7.5a2.53,2.53,0,0,1,.45.83,26.11,26.11,0,0,0-1,7.77Z"/><path class="cls-1" d="M46.17,124.79V93.57a26.17,26.17,0,0,0-.58-6.77q-.25-.91-2.31-1.49a13,13,0,0,0-3.3-.58q-.33,0-.33-1.24A2.25,2.25,0,0,1,40,82q5.45.25,11,.25,4.21,0,7.1,0t5,0a24.47,24.47,0,0,1,11.73,3,12.17,12.17,0,0,1,4.59,4.42,12.53,12.53,0,0,1,1.78,6.69,9.68,9.68,0,0,1-1.73,5.54,13.35,13.35,0,0,1-3.26,3.59,13.58,13.58,0,0,1-2.6,1.45q-.66.25-.33.5,3.06.5,6.82,4.34a13,13,0,0,1,3.76,9.46A13.33,13.33,0,0,1,78,132.48q-5.74,4.21-15.24,4.13L51,136.52l-11,.33a2.16,2.16,0,0,1-.25-1.32q0-1.4.25-1.4a13.59,13.59,0,0,0,3.14-.54q2.06-.54,2.4-1.28Q46.17,130.58,46.17,124.79Zm18.92-19.41q6-1.32,6-8.1,0-11.15-9.5-11.15a22.1,22.1,0,0,0-5.29.41.83.83,0,0,0-.66.91l-.17,7.93V105q0,.83,5,.83A16.34,16.34,0,0,0,65.09,105.38Zm8.59,16.69a12.94,12.94,0,0,0-2.93-8.72q-2.93-3.43-9.46-3.43a34.4,34.4,0,0,0-5.12.41,1.8,1.8,0,0,0-.66,1.65v15.37q0,3.47,1,4.3t5.29.83a17,17,0,0,0,3.55-.37,17.66,17.66,0,0,0,3.76-1.32,7.44,7.44,0,0,0,3.3-3.22A11,11,0,0,0,73.68,122.07Z"/><path class="cls-1" d="M105.16,100.09a15.32,15.32,0,0,1,6.94,1.53,13.07,13.07,0,0,1,4.79,3.88,19.21,19.21,0,0,1,2.64,4.87,14.24,14.24,0,0,1,.91,4.83q0,1.82-.62,2.27a4.69,4.69,0,0,1-2.52.45H97.56q-.58,0-.58.5a16.06,16.06,0,0,0,1.07,5.78,11.36,11.36,0,0,0,3.68,4.87,9.72,9.72,0,0,0,6.24,2.07,22.66,22.66,0,0,0,2.4-.12,12.37,12.37,0,0,0,2.15-.41q1-.29,1.73-.54a7.09,7.09,0,0,0,1.53-.74l1.12-.7q.33-.21,1.65-1.12a1.36,1.36,0,0,1,.41.5,1.6,1.6,0,0,1,.25.83,2.54,2.54,0,0,1-.5,1.57,13.46,13.46,0,0,1-4.87,4.46,15.33,15.33,0,0,1-8.18,2.23,16.73,16.73,0,0,1-12.39-5.33,17.82,17.82,0,0,1-5.2-12.93q0-8.34,4.83-13.55A16,16,0,0,1,105.16,100.09Zm-.58,3.8A5.84,5.84,0,0,0,101,105a7.79,7.79,0,0,0-2.4,2.81,15.78,15.78,0,0,0-1.2,3.1,10.1,10.1,0,0,0-.37,2.44c0,.39.17.58.5.58h13.38q.74,0,.74-1.24a10.71,10.71,0,0,0-1.94-5.87A5.92,5.92,0,0,0,104.58,103.89Z"/><path class="cls-1" d="M129,105.88h-5q-.58,0-.58-2.15a2.06,2.06,0,0,1,.08-.74,23.1,23.1,0,0,0,6.36-4.38q1.07-1.07,2.35-2.44t3-3.51a5.88,5.88,0,0,1,1.57.21c.5.14.74.29.74.46v8.1l6,0,4.09,0q.66,0,.66.74a8,8,0,0,1-.83,3.63h-9.91v19.91a7.84,7.84,0,0,0,1.4,5,4.72,4.72,0,0,0,3.88,1.74,7.79,7.79,0,0,0,1.73-.21,8.77,8.77,0,0,0,1.49-.45q.58-.25,1.07-.5a2.59,2.59,0,0,1,.58-.25q.33-.08.74.74t.33,1.07q-.5,1.16-3.51,2.68a13,13,0,0,1-5.91,1.53,10.42,10.42,0,0,1-7.31-2.77q-3-2.77-3-8.55Z"/><path class="cls-1" d="M157.95,105.88h-5q-.58,0-.58-2.15a2.06,2.06,0,0,1,.08-.74,23.1,23.1,0,0,0,6.36-4.38q1.07-1.07,2.35-2.44t3-3.51a5.88,5.88,0,0,1,1.57.21c.5.14.74.29.74.46v8.1l6,0,4.09,0q.66,0,.66.74a8,8,0,0,1-.83,3.63h-9.91v19.91a7.84,7.84,0,0,0,1.4,5,4.72,4.72,0,0,0,3.88,1.74,7.79,7.79,0,0,0,1.73-.21,8.77,8.77,0,0,0,1.49-.45q.58-.25,1.07-.5a2.59,2.59,0,0,1,.58-.25q.33-.08.74.74t.33,1.07q-.5,1.16-3.51,2.68a13,13,0,0,1-5.91,1.53,10.42,10.42,0,0,1-7.31-2.77q-3-2.77-3-8.55Z"/><path class="cls-1" d="M199,100.09a15.32,15.32,0,0,1,6.94,1.53,13.07,13.07,0,0,1,4.79,3.88,19.21,19.21,0,0,1,2.64,4.87,14.24,14.24,0,0,1,.91,4.83q0,1.82-.62,2.27a4.69,4.69,0,0,1-2.52.45H191.41q-.58,0-.58.5a16.06,16.06,0,0,0,1.07,5.78,11.36,11.36,0,0,0,3.68,4.87,9.72,9.72,0,0,0,6.24,2.07,22.66,22.66,0,0,0,2.4-.12,12.37,12.37,0,0,0,2.15-.41q1-.29,1.73-.54a7.09,7.09,0,0,0,1.53-.74l1.12-.7q.33-.21,1.65-1.12a1.36,1.36,0,0,1,.41.5,1.6,1.6,0,0,1,.25.83,2.54,2.54,0,0,1-.5,1.57,13.46,13.46,0,0,1-4.87,4.46,15.33,15.33,0,0,1-8.18,2.23,16.73,16.73,0,0,1-12.39-5.33,17.82,17.82,0,0,1-5.2-12.93q0-8.34,4.83-13.55A16,16,0,0,1,199,100.09Zm-.58,3.8a5.84,5.84,0,0,0-3.55,1.16,7.79,7.79,0,0,0-2.4,2.81,15.78,15.78,0,0,0-1.2,3.1,10.1,10.1,0,0,0-.37,2.44c0,.39.17.58.5.58h13.38q.74,0,.74-1.24a10.71,10.71,0,0,0-1.94-5.87A5.92,5.92,0,0,0,198.43,103.89Z"/><path class="cls-1" d="M242.3,100.09q4.54,0,6.77,2.73,0,7-4,7a4.91,4.91,0,0,1-3.22-1.65,5.17,5.17,0,0,0-3.55-1.65,4.43,4.43,0,0,0-4,2.6,11,11,0,0,0-1.45,5.41v10.33a34.58,34.58,0,0,0,.58,7.44q.16.58,2.19,1.2a11.67,11.67,0,0,0,2.77.62c.17,0,.26.4.29,1.2a8.62,8.62,0,0,1,0,1.61q-.66-.08-4.38-.33t-5.62-.25q-2,0-5.74.25t-4.42.33a2.42,2.42,0,0,1-.33-1.57q0-1.24.33-1.24a11.52,11.52,0,0,0,3-.62q2-.62,2.19-1.2a27,27,0,0,0,.58-6V112.81q0-3.88-1.32-5.29a4,4,0,0,0-1.86-1.24,9.41,9.41,0,0,0-2-.5c-.52-.05-.78-.14-.78-.25q0-2.4.41-2.48a117.19,117.19,0,0,0,13.3-2.48,5,5,0,0,1,.66-.17c.22,0,.41.19.58.58a2,2,0,0,1,.21,1q0,.37-.12,1.16t-.21,1.65a10.57,10.57,0,0,0-.12,1.12,15.17,15.17,0,0,1,4-4A9.05,9.05,0,0,1,242.3,100.09Z"/><path class="cls-1" d="M280.3,82.41q.91,0,10-.5a14.28,14.28,0,0,1,.12,1.57q0,1.07-.29,1.16a8.09,8.09,0,0,0-1.32.12,4.59,4.59,0,0,0-1.69.74,1.92,1.92,0,0,0-.95,1.69,10.39,10.39,0,0,0,1.49,4.38l16.19,32q.25.41.62.21a1.26,1.26,0,0,0,.54-.54l6-11.73-8.84-17.84a34.83,34.83,0,0,0-4.21-7,5.81,5.81,0,0,0-2.19-1.4,7.12,7.12,0,0,0-2.6-.58q-.33,0-.33-1.4a2.16,2.16,0,0,1,.25-1.32q10.41.5,10.91.5.66,0,9.75-.5a6.21,6.21,0,0,1,.21,1.57q0,1.07-.21,1.16a7.46,7.46,0,0,0-1.53.17,4.15,4.15,0,0,0-1.61.79,1.92,1.92,0,0,0-.83,1.61,11.46,11.46,0,0,0,1.49,4.3l5,10.33,4.87-10a11.42,11.42,0,0,0,1.49-4.54q0-1.49-2-2.11a12.27,12.27,0,0,0-3.51-.62q-.33,0-.33-1.16a2.85,2.85,0,0,1,.25-1.49q7.27.5,9.09.5t3.43-.08q1.53-.08,3.26-.21l2.81-.21a5.23,5.23,0,0,1,.17,1.53q0,1-.25,1.12a9.85,9.85,0,0,0-3,.74A6.65,6.65,0,0,0,329.7,87,41.08,41.08,0,0,0,325,94.8L319,107l8,16.36q.5.83,1.07-.41,1.65-3.88,7.77-16.77T342.51,92A12.53,12.53,0,0,0,344,87.37q0-1.49-2-2.15a10.88,10.88,0,0,0-3.3-.66q-.33,0-.37-1.16a2.13,2.13,0,0,1,.29-1.49q7.27.5,9.13.5t3.35-.08q1.49-.08,3.14-.21l2.81-.21a6.38,6.38,0,0,1,.17,1.65q0,1-.33,1a8.91,8.91,0,0,0-2.85.7,7.81,7.81,0,0,0-2.77,1.61,36.59,36.59,0,0,0-4.79,7.85l-18.92,40.07a5.56,5.56,0,0,1-1.53,2,2.66,2.66,0,0,1-1.53.66,1.13,1.13,0,0,1-.83-.33l-10.08-20.32-9.42,18a6,6,0,0,1-1.53,2,2.06,2.06,0,0,1-1.45.62,1.13,1.13,0,0,1-.83-.33L278.48,93.65a44.74,44.74,0,0,0-4.3-7.19,4.56,4.56,0,0,0-2.27-1.32,9.32,9.32,0,0,0-2.6-.5q-.33,0-.33-1.32a2.37,2.37,0,0,1,.25-1.4Q279.72,82.41,280.3,82.41Z"/><path class="cls-1" d="M387,100.09q10.57,0,10.57,16.28v8.51a30.35,30.35,0,0,0,.66,7.44q.08.58,2.19,1.2a12.65,12.65,0,0,0,2.85.62c.17,0,.26.4.29,1.2a8.62,8.62,0,0,1,0,1.61q-.58-.08-4.42-.33t-5.66-.25q-2.07,0-5.58.25t-4.34.33a3.08,3.08,0,0,1-.25-1.57q0-1.24.25-1.24a9.86,9.86,0,0,0,2.85-.62q1.86-.62,2.11-1.2a31.29,31.29,0,0,0,.5-6v-8.1q0-6.86-1.86-9.46t-5.91-2.6a7.91,7.91,0,0,0-4.54,1.4,3.9,3.9,0,0,0-2.07,3.14v14.21a30.35,30.35,0,0,0,.66,7.44q.16.58,2.19,1.2a11.67,11.67,0,0,0,2.77.62c.17,0,.26.4.29,1.2a4.68,4.68,0,0,1-.12,1.61q-.66-.08-4.34-.33t-5.58-.25q-2,0-5.74.25t-4.42.33a2.42,2.42,0,0,1-.33-1.57q0-1.24.33-1.24a11.52,11.52,0,0,0,3-.62q2-.62,2.19-1.2a26.56,26.56,0,0,0,.58-5.95V92a32.61,32.61,0,0,0-.41-5.62q-.41-1.32-4.3-1.32h-.74q-.5,0-.5-1.32t.5-1.32q2.56-.25,4.87-.66t3.84-.83q1.53-.41,2.64-.83t2.35-.83h.17a.89.89,0,0,1,.66.46,2.27,2.27,0,0,1,.41.87,26.62,26.62,0,0,0-1,7.77V105q0,.5.33.5c.05,0,.17-.08.33-.25a15.74,15.74,0,0,1,5.08-3.59A15.22,15.22,0,0,1,387,100.09Z"/><path class="cls-1" d="M424.63,100.09a15.32,15.32,0,0,1,6.94,1.53,13.07,13.07,0,0,1,4.79,3.88,19.21,19.21,0,0,1,2.64,4.87,14.24,14.24,0,0,1,.91,4.83q0,1.82-.62,2.27a4.69,4.69,0,0,1-2.52.45H417q-.58,0-.58.5a16.06,16.06,0,0,0,1.07,5.78,11.36,11.36,0,0,0,3.68,4.87,9.72,9.72,0,0,0,6.24,2.07,22.66,22.66,0,0,0,2.4-.12,12.37,12.37,0,0,0,2.15-.41q1-.29,1.73-.54a7.09,7.09,0,0,0,1.53-.74l1.12-.7q.33-.21,1.65-1.12a1.36,1.36,0,0,1,.41.5,1.6,1.6,0,0,1,.25.83,2.54,2.54,0,0,1-.5,1.57,13.46,13.46,0,0,1-4.87,4.46,15.33,15.33,0,0,1-8.18,2.23,16.73,16.73,0,0,1-12.39-5.33,17.82,17.82,0,0,1-5.2-12.93q0-8.34,4.83-13.55A16,16,0,0,1,424.63,100.09Zm-.58,3.8a5.84,5.84,0,0,0-3.55,1.16,7.79,7.79,0,0,0-2.4,2.81,15.78,15.78,0,0,0-1.2,3.1,10.1,10.1,0,0,0-.37,2.44c0,.39.17.58.5.58h13.38q.74,0,.74-1.24a10.71,10.71,0,0,0-1.94-5.87A5.92,5.92,0,0,0,424,103.89Z"/><path class="cls-1" d="M470.72,100.09q10.66,0,10.66,16.94v7.85a34.58,34.58,0,0,0,.58,7.44q.16.58,2.27,1.2a12.65,12.65,0,0,0,2.85.62c.17,0,.26.4.29,1.2a4.68,4.68,0,0,1-.12,1.61q-.5-.08-4.34-.33t-5.74-.25q-2,0-5.49.25t-4.25.33a2.42,2.42,0,0,1-.33-1.57q0-1.24.33-1.24a9.82,9.82,0,0,0,2.77-.62q1.86-.62,2-1.2a23.73,23.73,0,0,0,.66-6v-7.85q0-6.86-1.86-9.58t-5.91-2.73a7.65,7.65,0,0,0-4.63,1.45,4,4,0,0,0-2,3.1v14.21a34.58,34.58,0,0,0,.58,7.44q.16.58,2.19,1.2a11.88,11.88,0,0,0,2.69.62c.22,0,.34.4.37,1.2a4.69,4.69,0,0,1-.12,1.61q-.66-.08-4.34-.33t-5.58-.25q-2,0-5.74.25t-4.42.33a2.42,2.42,0,0,1-.33-1.57q0-1.24.33-1.24a11.52,11.52,0,0,0,3-.62q2-.62,2.19-1.2a27,27,0,0,0,.58-6V112.81q0-3.88-1.32-5.29a4,4,0,0,0-1.86-1.24,9.41,9.41,0,0,0-2-.5c-.52-.05-.78-.14-.78-.25q0-2.4.41-2.48a117.19,117.19,0,0,0,13.3-2.48.54.54,0,0,1,.21-.12.79.79,0,0,1,.25,0h.21c.22,0,.41.19.58.58a2.51,2.51,0,0,1,.25.91,28.15,28.15,0,0,0-.33,3,.65.65,0,0,0,.08.41,1.23,1.23,0,0,0,.41-.25,18.32,18.32,0,0,1,5.08-3.47A14.46,14.46,0,0,1,470.72,100.09Z"/><path class="cls-1" d="M519.88,82.41q1.49,0,11.4-.5a3.82,3.82,0,0,1,.12,1.49c0,.77-.12,1.16-.29,1.16a9.13,9.13,0,0,0-3,.58q-1.65.58-1.65,1.73a5.18,5.18,0,0,0,.74,2.15L536,105q.41.41.83-.17,3.55-5.29,6.86-10.91t3.3-7.1q0-.91-1.53-1.61a9.71,9.71,0,0,0-4-.7q-.33,0-.33-1.16a2.85,2.85,0,0,1,.25-1.49q8.34.5,9.91.5,1.9,0,3.43-.08t3.14-.21l2.52-.21a5.47,5.47,0,0,1,.17,1.32c0,.88-.11,1.32-.33,1.32a11.49,11.49,0,0,0-3.43.74,6.72,6.72,0,0,0-3.18,2q-2.4,3.55-8.59,13.59T538.8,112v12.89a31.6,31.6,0,0,0,.66,7.44q.16.58,2.27,1.28a11.59,11.59,0,0,0,2.77.7q.33,0,.33,1.32a4.3,4.3,0,0,1-.17,1.32l-3.14-.25q-2.07-.17-3.8-.25t-3.39-.08q-2.23,0-6.07.25t-4.75.33a1.91,1.91,0,0,1-.33-1.32q0-1.32.25-1.32a11.27,11.27,0,0,0,3.06-.66q2.06-.66,2.31-1.32a29.5,29.5,0,0,0,.66-7.27V112.81a5.18,5.18,0,0,0-.54-1.61q-.54-1.2-1.86-3.64t-2.31-4.21l-3.22-5.74-3.3-5.87q-2.4-4.46-4.3-5.7a8.27,8.27,0,0,0-2.44-1,9.87,9.87,0,0,0-2.35-.46c-.17,0-.26-.27-.29-.83a2.53,2.53,0,0,1,.12-1.16Q511,82.41,519.88,82.41Z"/><path class="cls-1" d="M582.17,100.09a18.21,18.21,0,0,1,13.26,5.41,17.7,17.7,0,0,1,5.49,13.09,18.84,18.84,0,1,1-18.75-18.51ZM581.1,104a6.65,6.65,0,0,0-6,3.76,17.77,17.77,0,0,0-2.15,9,24.09,24.09,0,0,0,2.69,11.65q2.68,5,7.48,5a6.73,6.73,0,0,0,6.07-3.8,17.57,17.57,0,0,0,2.19-8.92,28.36,28.36,0,0,0-1.07-8,14.57,14.57,0,0,0-3.47-6.16A7.66,7.66,0,0,0,581.1,104Z"/><path class="cls-1" d="M641.49,109v16.36a18.31,18.31,0,0,0,.66,5.78,1.71,1.71,0,0,0,.95.66,6.4,6.4,0,0,0,1.45.33,12.26,12.26,0,0,0,1.36.08,1.52,1.52,0,0,1,.7.08c.22.06.33.3.33.74a6.3,6.3,0,0,1-.17,1.12c-.11.52-.28.79-.5.79a19,19,0,0,0-2.93.29l-3.43.58q-1.65.29-3.14.62t-3.3.66q-.58,0-.58-1.32v-3.63q-.08-.41-.25-.41a18.44,18.44,0,0,1-5,3.72,13.84,13.84,0,0,1-6.53,1.65,8.65,8.65,0,0,1-4.92-1.41,10,10,0,0,1-3.3-3.63,17.76,17.76,0,0,1-1.73-4.79,25.22,25.22,0,0,1-.54-5.21v-9.25q0-3.88-1.32-5.29a4.59,4.59,0,0,0-1.9-1.24,8.68,8.68,0,0,0-2-.5c-.55-.05-.83-.14-.83-.25q0-2.4.41-2.48a62.33,62.33,0,0,0,6.77-1,64.76,64.76,0,0,0,6.53-1.49,1.34,1.34,0,0,0,.33-.08,1.41,1.41,0,0,1,.33-.08q.41,0,.62.58a2.94,2.94,0,0,1,.21.91q-.74,5.62-.74,7.27v9.91q0,6.44,1.82,9.25t5.87,2.81a6.48,6.48,0,0,0,4.46-1.61,4.4,4.4,0,0,0,1.82-3.1V112.81q0-3.88-1.32-5.29a4,4,0,0,0-1.86-1.24,9.31,9.31,0,0,0-2-.5c-.55-.05-.83-.14-.83-.25q0-2.4.5-2.48a63.43,63.43,0,0,0,6.69-1,64.78,64.78,0,0,0,6.53-1.49,4.78,4.78,0,0,0,.66-.17q.41,0,.66.58a1.52,1.52,0,0,1,.17.91Q641.48,107.53,641.49,109Z"/><path class="cls-1" d="M677.92,82.41q.91,0,10-.5a14.28,14.28,0,0,1,.12,1.57q0,1.07-.29,1.16a8.09,8.09,0,0,0-1.32.12,4.59,4.59,0,0,0-1.69.74,1.92,1.92,0,0,0-.95,1.69,10.39,10.39,0,0,0,1.49,4.38l16.19,32q.25.41.62.21a1.26,1.26,0,0,0,.54-.54l6-11.73-8.84-17.84a34.83,34.83,0,0,0-4.21-7,5.81,5.81,0,0,0-2.19-1.4,7.12,7.12,0,0,0-2.6-.58q-.33,0-.33-1.4a2.16,2.16,0,0,1,.25-1.32q10.41.5,10.91.5.66,0,9.75-.5a6.21,6.21,0,0,1,.21,1.57q0,1.07-.21,1.16a7.46,7.46,0,0,0-1.53.17,4.15,4.15,0,0,0-1.61.79,1.92,1.92,0,0,0-.83,1.61,11.46,11.46,0,0,0,1.49,4.3l5,10.33,4.87-10a11.42,11.42,0,0,0,1.49-4.54q0-1.49-2-2.11a12.27,12.27,0,0,0-3.51-.62q-.33,0-.33-1.16a2.85,2.85,0,0,1,.25-1.49q7.27.5,9.09.5t3.43-.08q1.53-.08,3.26-.21l2.81-.21a5.23,5.23,0,0,1,.17,1.53q0,1-.25,1.12a9.85,9.85,0,0,0-3,.74A6.65,6.65,0,0,0,727.32,87a41.08,41.08,0,0,0-4.71,7.77l-6,12.23,8,16.36q.5.83,1.07-.41,1.65-3.88,7.77-16.77T740.13,92a12.53,12.53,0,0,0,1.49-4.63q0-1.49-2-2.15a10.88,10.88,0,0,0-3.3-.66q-.33,0-.37-1.16a2.13,2.13,0,0,1,.29-1.49q7.27.5,9.13.5t3.35-.08q1.49-.08,3.14-.21l2.81-.21a6.38,6.38,0,0,1,.17,1.65q0,1-.33,1a8.91,8.91,0,0,0-2.85.7,7.81,7.81,0,0,0-2.77,1.61,36.59,36.59,0,0,0-4.79,7.85l-18.92,40.07a5.56,5.56,0,0,1-1.53,2,2.66,2.66,0,0,1-1.53.66,1.13,1.13,0,0,1-.83-.33l-10.08-20.32-9.42,18a6,6,0,0,1-1.53,2,2.06,2.06,0,0,1-1.45.62,1.13,1.13,0,0,1-.83-.33L676.1,93.65a44.74,44.74,0,0,0-4.3-7.19,4.56,4.56,0,0,0-2.27-1.32,9.32,9.32,0,0,0-2.6-.5q-.33,0-.33-1.32a2.37,2.37,0,0,1,.25-1.4Q677.34,82.41,677.92,82.41Z"/><path class="cls-1" d="M774.49,100.09a15.32,15.32,0,0,1,6.94,1.53,13.07,13.07,0,0,1,4.79,3.88,19.21,19.21,0,0,1,2.64,4.87,14.24,14.24,0,0,1,.91,4.83q0,1.82-.62,2.27a4.69,4.69,0,0,1-2.52.45H766.89q-.58,0-.58.5a16.06,16.06,0,0,0,1.07,5.78,11.36,11.36,0,0,0,3.68,4.87,9.72,9.72,0,0,0,6.24,2.07,22.66,22.66,0,0,0,2.4-.12,12.37,12.37,0,0,0,2.15-.41q1-.29,1.73-.54a7.09,7.09,0,0,0,1.53-.74l1.12-.7q.33-.21,1.65-1.12a1.36,1.36,0,0,1,.41.5,1.6,1.6,0,0,1,.25.83,2.54,2.54,0,0,1-.5,1.57,13.46,13.46,0,0,1-4.87,4.46A15.33,15.33,0,0,1,775,137.1a16.73,16.73,0,0,1-12.39-5.33,17.82,17.82,0,0,1-5.2-12.93q0-8.34,4.83-13.55A16,16,0,0,1,774.49,100.09Zm-.58,3.8a5.84,5.84,0,0,0-3.55,1.16,7.79,7.79,0,0,0-2.4,2.81,15.78,15.78,0,0,0-1.2,3.1,10.1,10.1,0,0,0-.37,2.44c0,.39.17.58.5.58h13.38q.74,0,.74-1.24a10.71,10.71,0,0,0-1.94-5.87A5.92,5.92,0,0,0,773.92,103.89Z"/><path class="cls-1" d="M810.93,100.09q5.12,0,7.68,2.69t2.56,9.21v16.28a3.77,3.77,0,0,0,.74,2.52,2.48,2.48,0,0,0,2,.87,5.15,5.15,0,0,0,2.81-1.07c.33.11.5.41.5.91a4.91,4.91,0,0,1-.5,2.48,20.44,20.44,0,0,1-3.3,2.07,8.61,8.61,0,0,1-4,1.07,6,6,0,0,1-3.72-1.41,6.77,6.77,0,0,1-2.4-3.06l-.62.54q-.54.46-1.49,1.12a24.47,24.47,0,0,1-2.15,1.32,13.18,13.18,0,0,1-2.81,1.12,12,12,0,0,1-3.26.45,9.86,9.86,0,0,1-6.73-2.27,7.85,7.85,0,0,1-2.6-6.24,7.61,7.61,0,0,1,.95-3.72,9.88,9.88,0,0,1,2.27-2.85,16.92,16.92,0,0,1,3.55-2.19,33.8,33.8,0,0,1,3.84-1.61q1.61-.54,4.13-1.28t3.51-1.07a1.3,1.3,0,0,0,.74-1.32v-4.54a7.09,7.09,0,0,0-1.32-4.54,4.31,4.31,0,0,0-3.55-1.65,5,5,0,0,0-3.88,1.53,6.18,6.18,0,0,0-1.4,4.34,2.68,2.68,0,0,1-1.24,2.44,5.14,5.14,0,0,1-2.81.78q-3.06,0-4.3-2,0-4,5.41-7.43A20.72,20.72,0,0,1,810.93,100.09Zm-3.72,31.72a6.4,6.4,0,0,0,3.84-1.16,3.27,3.27,0,0,0,1.61-2.64v-8.43q-.58.25-2.44.83t-2.85,1a22.54,22.54,0,0,0-2.31,1.16,5,5,0,0,0-1.94,1.82,4.55,4.55,0,0,0-.62,2.31,5.09,5.09,0,0,0,1.32,3.88A4.75,4.75,0,0,0,807.21,131.82Z"/><path class="cls-1" d="M855.12,100.09q4.54,0,6.77,2.73,0,7-4,7a4.91,4.91,0,0,1-3.22-1.65,5.17,5.17,0,0,0-3.55-1.65,4.43,4.43,0,0,0-4,2.6,11,11,0,0,0-1.45,5.41v10.33a34.58,34.58,0,0,0,.58,7.44q.16.58,2.19,1.2a11.67,11.67,0,0,0,2.77.62c.17,0,.26.4.29,1.2a8.62,8.62,0,0,1,0,1.61q-.66-.08-4.38-.33t-5.62-.25q-2,0-5.74.25t-4.42.33a2.42,2.42,0,0,1-.33-1.57q0-1.24.33-1.24a11.52,11.52,0,0,0,3-.62q2-.62,2.19-1.2a27,27,0,0,0,.58-6V112.81q0-3.88-1.32-5.29a4,4,0,0,0-1.86-1.24,9.41,9.41,0,0,0-2-.5c-.52-.05-.78-.14-.78-.25q0-2.4.41-2.48a117.19,117.19,0,0,0,13.3-2.48,5,5,0,0,1,.66-.17c.22,0,.41.19.58.58a2,2,0,0,1,.21,1q0,.37-.12,1.16t-.21,1.65a10.57,10.57,0,0,0-.12,1.12,15.17,15.17,0,0,1,4-4A9.05,9.05,0,0,1,855.12,100.09Z"/><path class="cls-1" d="M69.88,159.08l17.35,43.29q1.24,3.3,2.48,6a4,4,0,0,0,2.64,2,11,11,0,0,0,3.14.74q.33,0,.33,1.49a2.78,2.78,0,0,1-.17,1.24q-9.91-.5-10.41-.5t-10.74.5a2.33,2.33,0,0,1-.33-1.53c0-.8.11-1.2.33-1.2a10.65,10.65,0,0,0,2.73-.5q1.73-.5,2.07-1.16a2.36,2.36,0,0,0,.25-1.07A19,19,0,0,0,78,202.7L75.09,195a.91.91,0,0,0-.58-.33q-2.64-.16-7.1-.17t-9.42.25c-.33,0-.5.11-.5.33l-3.14,7.68a23.45,23.45,0,0,0-1.57,5.37,1.84,1.84,0,0,0,.91,1.65,8.27,8.27,0,0,0,2.6.91,14.26,14.26,0,0,0,2.52.41q.25.08.25,1.16a5.41,5.41,0,0,1-.17,1.57q-.41,0-3.88-.25t-5.62-.25q-2.15,0-5.08.21l-4.17.29a1.76,1.76,0,0,1-.33-1.24q0-1.49.17-1.49a11.94,11.94,0,0,0,3.18-.7,5.1,5.1,0,0,0,2.77-1.61,39.26,39.26,0,0,0,3.14-6.44L64.43,165.2q1.9-5,3.06-5.95a2.11,2.11,0,0,1,1.4-.58A1.35,1.35,0,0,1,69.88,159.08ZM60,189.81q2.89.25,5.95.25,2.89,0,6.77-.25l.17-.33L66.58,173,59.8,189.48C59.8,189.71,59.86,189.81,60,189.81Z"/><path class="cls-1" d="M118.79,173.13a13,13,0,0,1,5.2-10.45,18.05,18.05,0,0,1,11.73-4.25,28.87,28.87,0,0,1,4,.25q1.74.25,4.83,1t4.25,1a73.7,73.7,0,0,1,1,12.72.9.9,0,0,1-1,.74q-2.23,0-2.4-.74a14.52,14.52,0,0,0-3.55-7.43,9.38,9.38,0,0,0-7.44-3.64,7.62,7.62,0,0,0-5.82,2.15,8.09,8.09,0,0,0-2,5.78,9.31,9.31,0,0,0,.29,2.35,5.82,5.82,0,0,0,1.16,2.19q.87,1.08,1.4,1.78a9.8,9.8,0,0,0,2.07,1.78q1.53,1.08,2.07,1.49t2.48,1.61a24.9,24.9,0,0,0,2.35,1.36,30.37,30.37,0,0,0,2.77,1.78q2.27,1.36,3.18,2t2.64,2.11a11.91,11.91,0,0,1,2.52,2.81A17,17,0,0,1,152,194.9a13.91,13.91,0,0,1,.66,4.34,13.41,13.41,0,0,1-5.33,10.91,19.11,19.11,0,0,1-12.35,4.3q-5,0-15.2-2.31a72.22,72.22,0,0,1-1.36-7.48,56,56,0,0,1-.62-5.91q.08-.66,1.32-.66,2.15,0,2.4.66a16.06,16.06,0,0,0,1.16,3.26,24,24,0,0,0,2.27,3.8,10.89,10.89,0,0,0,3.88,3.3,11.62,11.62,0,0,0,5.49,1.28,9.25,9.25,0,0,0,6.44-2.31q2.56-2.31,2.56-6.94a7.19,7.19,0,0,0-.54-2.73,9.54,9.54,0,0,0-1.24-2.23,12.09,12.09,0,0,0-2.07-2q-1.36-1.07-2.27-1.65t-2.68-1.61L132,189.48a5.67,5.67,0,0,0-.91-.66q-2.4-1.49-3.64-2.31a39.85,39.85,0,0,1-3.18-2.44,16.34,16.34,0,0,1-2.93-3,15.62,15.62,0,0,1-1.78-3.47A12.43,12.43,0,0,1,118.79,173.13Z"/><path class="cls-1" d="M191.57,182.63q-1.65,1-5.25,3.72a58.37,58.37,0,0,0-6.57,5.78q2.4,2.56,6,6.69t6,6.77a39.67,39.67,0,0,0,3.3,3.39,10.45,10.45,0,0,0,3.18,1.65,10,10,0,0,0,2.77.66q.33,0,.33,1.4a4.85,4.85,0,0,1-.08,1.16q-9.09-.41-9.67-.41-1.57,0-3.18.08l-3.55.21-3.1.21a2.24,2.24,0,0,1-.33-1.49c0-.77.11-1.16.33-1.16a5.94,5.94,0,0,0,1.9-.37q1.07-.37,1.07-.79c0-.11,0-.17-.08-.17l-12.06-13.47-1,.25v5.12a33.78,33.78,0,0,0,.66,7.44q.16.58,2.23,1.2a12,12,0,0,0,2.89.62c.17,0,.26.4.29,1.2a4.68,4.68,0,0,1-.12,1.61q-.58-.08-4.38-.33t-5.7-.25q-2,0-5.74.25t-4.42.33a2.42,2.42,0,0,1-.33-1.57q0-1.24.33-1.24a11.52,11.52,0,0,0,3-.62q2-.62,2.19-1.2a27,27,0,0,0,.58-6V169a32.61,32.61,0,0,0-.41-5.62q-.41-1.32-4.3-1.32h-.74q-.5,0-.5-1.32t.5-1.32q2.56-.25,4.87-.66t3.84-.83q1.53-.41,2.64-.83t2.35-.83h.17a.89.89,0,0,1,.66.46,2.27,2.27,0,0,1,.41.87,26.62,26.62,0,0,0-1,7.77V193a7.47,7.47,0,0,0,2.48-.91q1.73-1.57,3.76-3.26l2.93-2.44q.91-.74,1.82-1.61a7.33,7.33,0,0,0,1.2-1.36,2,2,0,0,0,.29-1q0-.91-1.86-1.12a8.27,8.27,0,0,1-1.86-.29,3.69,3.69,0,0,1-.25-1.45q0-.87.33-1h8q2.23,0,8.76-.33a1.29,1.29,0,0,1,.41.91,3.72,3.72,0,0,1,0,1.24c-.08.39-.21.58-.37.58A10.85,10.85,0,0,0,191.57,182.63Z"/><path class="cls-1" d="M221,201.88a30.37,30.37,0,0,0,.66,7.44q.16.58,2.23,1.2a12.15,12.15,0,0,0,2.81.62c.22,0,.34.4.37,1.2a4.69,4.69,0,0,1-.12,1.61q-.58-.08-4.42-.33t-5.66-.25q-2.07,0-5.82.25t-4.34.33a2.42,2.42,0,0,1-.33-1.57q0-1.24.33-1.24a12,12,0,0,0,3-.62q2.06-.62,2.23-1.2a27,27,0,0,0,.58-6V189.81q0-3.88-1.32-5.29a4.59,4.59,0,0,0-1.9-1.24,8.68,8.68,0,0,0-2-.5c-.55-.05-.83-.14-.83-.25q0-2.4.5-2.48a63.43,63.43,0,0,0,6.69-1,64.79,64.79,0,0,0,6.53-1.49,4.78,4.78,0,0,0,.66-.17q.41,0,.66.58a1.52,1.52,0,0,1,.17.91A70.82,70.82,0,0,0,221,186Zm-8.59-34.57a5,5,0,0,1-1.49-3.63,4.89,4.89,0,0,1,1.49-3.59,5.12,5.12,0,0,1,8.76,3.59,5,5,0,0,1-1.49,3.63,5.09,5.09,0,0,1-7.27,0Z"/><path class="cls-1" d="M255.27,177.09q4.54,0,6.77,2.73,0,7-4,7a4.91,4.91,0,0,1-3.22-1.65,5.17,5.17,0,0,0-3.55-1.65,4.43,4.43,0,0,0-4,2.6,11,11,0,0,0-1.45,5.41v10.33a34.58,34.58,0,0,0,.58,7.44q.16.58,2.19,1.2a11.67,11.67,0,0,0,2.77.62c.17,0,.26.4.29,1.2a8.62,8.62,0,0,1,0,1.61q-.66-.08-4.38-.33t-5.62-.25q-2,0-5.74.25t-4.42.33a2.42,2.42,0,0,1-.33-1.57q0-1.24.33-1.24a11.52,11.52,0,0,0,3-.62q2-.62,2.19-1.2a27,27,0,0,0,.58-6V189.81q0-3.88-1.32-5.29a4,4,0,0,0-1.86-1.24,9.41,9.41,0,0,0-2-.5c-.52-.05-.78-.14-.78-.25q0-2.4.41-2.48a117.19,117.19,0,0,0,13.3-2.48,5,5,0,0,1,.66-.17c.22,0,.41.19.58.58a2,2,0,0,1,.21,1q0,.37-.12,1.16t-.21,1.65a10.57,10.57,0,0,0-.12,1.12,15.17,15.17,0,0,1,4-4A9.05,9.05,0,0,1,255.27,177.09Z"/><path class="cls-1" d="M271.38,182.88h-5q-.58,0-.58-2.15a2.06,2.06,0,0,1,.08-.74,23.1,23.1,0,0,0,6.36-4.38q1.07-1.07,2.35-2.44t3-3.51a5.88,5.88,0,0,1,1.57.21c.5.14.74.29.74.46v8.1l6,0,4.09,0q.66,0,.66.74a8,8,0,0,1-.83,3.63h-9.91v19.91a7.84,7.84,0,0,0,1.4,5,4.72,4.72,0,0,0,3.88,1.74,7.79,7.79,0,0,0,1.73-.21,8.77,8.77,0,0,0,1.49-.45q.58-.25,1.07-.5a2.59,2.59,0,0,1,.58-.25q.33-.08.74.74t.33,1.07q-.5,1.16-3.51,2.68a13,13,0,0,1-5.91,1.53,10.42,10.42,0,0,1-7.31-2.77q-3-2.77-3-8.55Z"/><path class="cls-1" d="M304.71,205.1a5.38,5.38,0,0,1,1.61,3.88,5.52,5.52,0,0,1-1.61,3.92,5.12,5.12,0,0,1-3.84,1.69,5.35,5.35,0,0,1-4-1.69,5.45,5.45,0,0,1-1.65-3.92,5.31,5.31,0,0,1,1.65-3.88,5.41,5.41,0,0,1,4-1.65A5.18,5.18,0,0,1,304.71,205.1Zm-5.16-44.69a21.34,21.34,0,0,1,13.09,4.21,13.09,13.09,0,0,1,5.66,11q0,5.29-2.23,8.18a19.47,19.47,0,0,1-6.86,5.2l-1.2.58-1.28.62q-.41.21-1.12.62t-1.12.7q-.41.29-.87.66a4.26,4.26,0,0,0-.7.7,1.81,1.81,0,0,0-.33.74,7.8,7.8,0,0,0-.25,2.4,8,8,0,0,1-.17,2.15,2.35,2.35,0,0,1-2.15.91q-1.16,0-1.16-7.1,0-4.13,1-5.82a11.81,11.81,0,0,1,3.76-3.59,25.24,25.24,0,0,1,2.48-1.4q1.9-1,3.18-1.82a9.46,9.46,0,0,0,2.4-2.31,5.26,5.26,0,0,0,1.12-3.22,5.38,5.38,0,0,0-1.73-4,5.79,5.79,0,0,0-4.13-1.65,17.83,17.83,0,0,0-3.3.41,17.69,17.69,0,0,1-3.3.41,5.26,5.26,0,0,1-3.47-1.24,3.91,3.91,0,0,1-1.49-3.14,10.94,10.94,0,0,1,.5-3.14A9.14,9.14,0,0,1,299.55,160.4Z"/><path class="cls-2" d="M20,9.22a7.49,7.49,0,0,1,1.31,4.73,10.18,10.18,0,0,1-.62,3.75,5.18,5.18,0,0,1-1.78,2.39,4.69,4.69,0,0,1-2.79.82,6.29,6.29,0,0,1-2.23-.41A5.68,5.68,0,0,1,12,19.34l.67-1.41a5.53,5.53,0,0,0,3.41,1.43A2.75,2.75,0,0,0,18.55,18a7.54,7.54,0,0,0,.87-4v0a3.16,3.16,0,0,1-1.32,1.49A4,4,0,0,1,16,16a4.14,4.14,0,0,1-2.09-.53A3.66,3.66,0,0,1,12.5,14,4.5,4.5,0,0,1,12,11.82a4.35,4.35,0,0,1,.56-2.2,4,4,0,0,1,1.53-1.52,4.44,4.44,0,0,1,2.21-.55A4.47,4.47,0,0,1,20,9.22ZM18.28,13.7A2.59,2.59,0,0,0,19,11.78a2.63,2.63,0,0,0-.72-1.94,2.56,2.56,0,0,0-1.91-.73,2.42,2.42,0,0,0-1.84.73,2.69,2.69,0,0,0-.69,1.94,2.67,2.67,0,0,0,.69,1.92,2.42,2.42,0,0,0,1.84.73A2.57,2.57,0,0,0,18.28,13.7Z"/><path class="cls-3" d="M393.61,67.16,235.48,142.4a13.66,13.66,0,0,1-18.19-6.48h0a13.66,13.66,0,0,1,6.48-18.19L381.9,42.49A13.66,13.66,0,0,1,400.09,49h0A13.66,13.66,0,0,1,393.61,67.16Z"/><path class="cls-2" d="M241.92,116.78a6,6,0,0,1,1.81-.57,4.11,4.11,0,0,1,4,1.77l-1.88,1.35a3.39,3.39,0,0,0-1.45-1,2.12,2.12,0,0,0-1.61.13,2.35,2.35,0,0,0-1.35,1.78,5.19,5.19,0,0,0,.59,3.15,5.63,5.63,0,0,0,2,2.48,2.24,2.24,0,0,0,2.25.16,2.62,2.62,0,0,0,1.44-1.35,2.07,2.07,0,0,0-.1-1.68l2.07-1a3.79,3.79,0,0,1,.17,3.29,5.12,5.12,0,0,1-2.65,2.44,4.59,4.59,0,0,1-4,.12,6.81,6.81,0,0,1-3.19-3.48,6.61,6.61,0,0,1-.64-4.69A4.59,4.59,0,0,1,241.92,116.78Z"/><path class="cls-2" d="M252.84,114.86a4.87,4.87,0,0,1,1.62-.46,3.48,3.48,0,0,1,1.57.2,4.77,4.77,0,0,1,2.63,2.63,4.72,4.72,0,0,1,.36,3.67,4,4,0,0,1-2.21,2.33,4.1,4.1,0,0,1-3.24.25,4.68,4.68,0,0,1-2.61-2.6,4.73,4.73,0,0,1-.37-3.7A4.1,4.1,0,0,1,252.84,114.86Zm3.89,3.27a3.36,3.36,0,0,0-1.38-1.65,1.8,1.8,0,0,0-1.66,0,2,2,0,0,0-1.13,1.3,3.07,3.07,0,0,0,.34,2.15,3.32,3.32,0,0,0,1.39,1.65,1.82,1.82,0,0,0,1.66,0,2,2,0,0,0,1.12-1.3A3.07,3.07,0,0,0,256.72,118.13Z"/><path class="cls-2" d="M266.81,110.34a3,3,0,0,1,1.88-3,3,3,0,0,1,2.66-.08,4.32,4.32,0,0,1,2,2.19l2.19,4.63-1.94.92-2.19-4.63a2.07,2.07,0,0,0-1.05-1.13,1.73,1.73,0,0,0-1.4.12,1.65,1.65,0,0,0-.94,1.26,4,4,0,0,0,.44,2.27l1.76,3.72-1.93.91L266,112.9a2.07,2.07,0,0,0-1.05-1.13,1.73,1.73,0,0,0-1.4.12,1.81,1.81,0,0,0-1,1.31,3.75,3.75,0,0,0,.39,2.33l1.74,3.67-1.93.91-3.76-7.93,1.68-.8.86,1.27a2.9,2.9,0,0,1,1.76-2.77,3.15,3.15,0,0,1,1.87-.33A3,3,0,0,1,266.81,110.34Z"/><path class="cls-2" d="M273.26,102.31a1.21,1.21,0,0,1-.08-1,1.58,1.58,0,0,1,1.75-.83,1.36,1.36,0,0,1,.78,1.65A1.58,1.58,0,0,1,274,103,1.21,1.21,0,0,1,273.26,102.31Zm1.43,2.44,1.93-.91,3.76,7.95-1.93.91Z"/><path class="cls-2" d="M282.43,102.78a3.19,3.19,0,0,1,4.43-2.86,4.49,4.49,0,0,1,1.95,2.19l2.19,4.63-1.93.91L286.88,103a2.07,2.07,0,0,0-1.05-1.13,1.73,1.73,0,0,0-1.4.12,1.81,1.81,0,0,0-1,1.31,3.75,3.75,0,0,0,.39,2.33l1.74,3.67-1.93.91-3.76-7.93,1.68-.8Z"/><path class="cls-2" d="M293,101.85a2.84,2.84,0,0,1-1.93-1.58,2.81,2.81,0,0,1,0-2.57,3.91,3.91,0,0,1,1.88-1.83,4.75,4.75,0,0,1,2.34-.53,2.38,2.38,0,0,1,.09-1.88,2.7,2.7,0,0,1,1.34-1.34l.78,1.89q-1.4.66-1,1.62a2.69,2.69,0,0,1,1.33,1.25,3.11,3.11,0,0,1,.34,1.44,2.91,2.91,0,0,1-.33,1.24,4.09,4.09,0,0,1-2,1.91,4.54,4.54,0,0,1-1.57.44.87.87,0,0,0-.28,1.09q.35.73,1.59.15l2.66-1.26q2.71-1.28,3.6.61a3,3,0,0,1,.27,1.4,3.69,3.69,0,0,1-.41,1.52,5.86,5.86,0,0,1-2.87,2.64,6.33,6.33,0,0,1-3.56.71,2.46,2.46,0,0,1-2-1.34,1.71,1.71,0,0,1-.1-1.38A2.35,2.35,0,0,1,294,105a1.88,1.88,0,0,1-1.65-1,1.48,1.48,0,0,1-.09-1.12A2.21,2.21,0,0,1,293,101.85Zm3.09,2.73q-1.5.79-1,1.88a1.11,1.11,0,0,0,1.07.58,3.62,3.62,0,0,0,1.68-.39,5.64,5.64,0,0,0,1.31-.8,3.11,3.11,0,0,0,.65-.79,1.55,1.55,0,0,0,.18-1.52.69.69,0,0,0-.43-.38.94.94,0,0,0-.68.09Zm-.1-6.67a1.73,1.73,0,0,0-.88-.9,1.56,1.56,0,0,0-1.31.11,1.55,1.55,0,0,0-.83,2.22,1.7,1.7,0,0,0,.91.9,1.63,1.63,0,0,0,1.34-.12,1.55,1.55,0,0,0,.92-1A1.77,1.77,0,0,0,295.94,97.91Z"/><path class="cls-2" d="M304.86,87.22l2.41-1.14L315.77,95l-2,1L311.91,94,308,95.91l.33,2.64-2,1Zm2.92,7,3-1.41L307.13,89Z"/><path class="cls-2" d="M322.23,90.2a2.78,2.78,0,0,1-1.67,2.73,3,3,0,0,1-3.55-.33,3.89,3.89,0,0,1-.9-1.27l-2.4-5.06,1.92-.91,2.3,4.86a1.78,1.78,0,0,0,.93,1,1.37,1.37,0,0,0,1.1-.05,2.67,2.67,0,0,0,.85-.59,2,2,0,0,0,.43-.77A3.22,3.22,0,0,0,321,87.6l-1.85-3.92,1.93-.91,3.76,7.95-1.93.91Z"/><path class="cls-2" d="M327,85.71a2.84,2.84,0,0,1-1.93-1.58,2.81,2.81,0,0,1,0-2.57A3.91,3.91,0,0,1,327,79.73a4.75,4.75,0,0,1,2.34-.53,2.38,2.38,0,0,1,.09-1.88A2.7,2.7,0,0,1,330.76,76l.78,1.89q-1.4.66-1,1.62a2.69,2.69,0,0,1,1.33,1.25,3.11,3.11,0,0,1,.34,1.44,2.91,2.91,0,0,1-.33,1.24,4.09,4.09,0,0,1-2,1.91,4.54,4.54,0,0,1-1.57.44.87.87,0,0,0-.28,1.09q.35.73,1.59.15l2.66-1.26q2.71-1.28,3.6.61a3,3,0,0,1,.27,1.4,3.69,3.69,0,0,1-.41,1.52,5.86,5.86,0,0,1-2.87,2.64,6.33,6.33,0,0,1-3.56.71,2.46,2.46,0,0,1-2-1.34,1.71,1.71,0,0,1-.1-1.38,2.35,2.35,0,0,1,.92-1.11,1.88,1.88,0,0,1-1.65-1,1.48,1.48,0,0,1-.09-1.12A2.21,2.21,0,0,1,327,85.71Zm3.09,2.73q-1.5.79-1,1.88a1.11,1.11,0,0,0,1.07.58,3.62,3.62,0,0,0,1.68-.39,5.64,5.64,0,0,0,1.31-.8,3.11,3.11,0,0,0,.65-.79,1.55,1.55,0,0,0,.18-1.52.69.69,0,0,0-.43-.38.94.94,0,0,0-.68.09Zm-.1-6.67a1.73,1.73,0,0,0-.88-.9,1.56,1.56,0,0,0-1.31.11A1.55,1.55,0,0,0,327,83.2a1.7,1.7,0,0,0,.91.9,1.63,1.63,0,0,0,1.34-.12,1.55,1.55,0,0,0,.92-1A1.77,1.77,0,0,0,330,81.77Z"/><path class="cls-2" d="M342,80.85a2.78,2.78,0,0,1-1.67,2.73,3,3,0,0,1-3.55-.33,3.89,3.89,0,0,1-.9-1.27l-2.4-5.06,1.92-.91,2.3,4.86a1.78,1.78,0,0,0,.93,1,1.37,1.37,0,0,0,1.1-.05,2.67,2.67,0,0,0,.85-.59,2,2,0,0,0,.43-.77,3.22,3.22,0,0,0-.25-2.18l-1.85-3.92,1.93-.91,3.76,7.95-1.93.91Z"/><path class="cls-2" d="M347.53,77q.57,1.11,2.18.34a2,2,0,0,0,.89-.75.84.84,0,0,0,.1-.82.74.74,0,0,0-.51-.44,2.67,2.67,0,0,0-.94,0l-2,.2q-2.24.24-3-1.27a2.08,2.08,0,0,1,.14-2.05,4.74,4.74,0,0,1,2.14-1.76,4,4,0,0,1,2.67-.44,2.41,2.41,0,0,1,1.65,1.27l-1.81.86a.88.88,0,0,0-.67-.44,2,2,0,0,0-1.09.24,1.84,1.84,0,0,0-.87.72.79.79,0,0,0-.08.75q.27.57,1.36.39l2.21-.19a4.12,4.12,0,0,1,1.8.11,1.84,1.84,0,0,1,1.09,1,2.33,2.33,0,0,1-.13,2.14,4.45,4.45,0,0,1-2.19,2,4.71,4.71,0,0,1-2.87.51,2.55,2.55,0,0,1-1.9-1.49Z"/><path class="cls-2" d="M360.57,73.55a5.54,5.54,0,0,1-1.5,1.23,4,4,0,0,1-1.15.37,2.71,2.71,0,0,1-1-.05,2.59,2.59,0,0,1-1.62-1.49l-2.1-4.44-1.11.53-.61-1.29,1.11-.53-1-2.09,1.93-.91,1,2.09,2.15-1,.61,1.29-2.15,1,2.07,4.37a.93.93,0,0,0,1.39.54,4.33,4.33,0,0,0,1.1-.84Z"/><path class="cls-2" d="M367.32,68.44l6.05-2.87.83,1.76-8,3.78-.86-1.81a3.37,3.37,0,0,1,0-3.41,6.28,6.28,0,0,1,.81-1L368,63a2.71,2.71,0,0,0,.72-1.19,1.77,1.77,0,0,0-.16-1.19,1.51,1.51,0,0,0-.93-.83,2,2,0,0,0-1.45.18A2.44,2.44,0,0,0,365,61a1.73,1.73,0,0,0-.06,1.45l-2.14,1a3.29,3.29,0,0,1,0-3,5.13,5.13,0,0,1,2.48-2.15,4.6,4.6,0,0,1,3.14-.41,3.11,3.11,0,0,1,2.15,1.72A3.53,3.53,0,0,1,371,62a5.46,5.46,0,0,1-1.42,2.3l-1.8,1.89a2.77,2.77,0,0,0-.66,1,1.2,1.2,0,0,0,.08.91Z"/><path class="cls-2" d="M371.17,56.79a5.23,5.23,0,0,0,1.74-1.88l1.45-.69,5,10.65-1.93.91-4-8.35a4.19,4.19,0,0,1-1.49,1.2Z"/></svg>