<svg id="Layer_1" data-name="Layer 1" xmlns="http://www.w3.org/2000/svg" viewBox="0 0 892.59 79.62"><defs><style>.cls-1{fill:#fff;stroke-width:1.2px;}.cls-1,.cls-3{stroke:#1414ef;stroke-miterlimit:10;}.cls-2{fill:#1414ef;}.cls-3{fill:#feea80;}</style></defs><title>title</title><path class="cls-1" d="M51.35,58.29q-2.48,0-5.29.12t-4.38.29L40,58.78a2.16,2.16,0,0,1-.25-1.32q0-1.4.25-1.4a13.59,13.59,0,0,0,3.14-.54q2.06-.54,2.4-1.28.58-1.73.58-7.52V15.49a26.17,26.17,0,0,0-.58-6.77q-.25-.91-2.31-1.49A13,13,0,0,0,40,6.65q-.33,0-.33-1.24A2.25,2.25,0,0,1,40,3.93q5.37.33,10.91.33Q54.74,4.34,64,4t13.59-.33q.33,2.48,1.32,6.9t1.07,4.83a2.55,2.55,0,0,1-1.73.41c-.61,0-1-.19-1.16-.58Q74.32,7.89,66.47,7.89h-4.3Q56.06,7.89,55.9,9a37.18,37.18,0,0,0-.41,6.69v13q0,.5,3.64.5h4.54q4.79,0,5.7-.41t1.4-2.89q.25-1.24.5-2.07.08-.58,1.32-.58a2.24,2.24,0,0,1,1.57.41V39.2a2.42,2.42,0,0,1-1.57.33q-1.07,0-1.32-.66a26,26,0,0,0-1-3.3,4.82,4.82,0,0,0-.58-1.16l-.7-.5q-1.07-.66-7.6-.66-5.87,0-5.87.66v13a20.14,20.14,0,0,0,.91,6.86q.33.83,3,1.57a16.6,16.6,0,0,0,3.55.74q.41,0,.41,1.4a2.4,2.4,0,0,1-.25,1.32Q53.17,58.29,51.35,58.29Z"/><path class="cls-1" d="M108.44,22q4.54,0,6.77,2.73,0,7-4,7A4.91,4.91,0,0,1,108,30.12a5.17,5.17,0,0,0-3.55-1.65,4.43,4.43,0,0,0-4,2.6A11,11,0,0,0,99,36.48V46.8a34.58,34.58,0,0,0,.58,7.44q.16.58,2.19,1.2a11.67,11.67,0,0,0,2.77.62c.17,0,.26.4.29,1.2a8.62,8.62,0,0,1,0,1.61q-.66-.08-4.38-.33t-5.62-.25q-2,0-5.74.25t-4.42.33a2.42,2.42,0,0,1-.33-1.57q0-1.24.33-1.24a11.52,11.52,0,0,0,3-.62q2-.62,2.19-1.2a27,27,0,0,0,.58-6V34.74q0-3.88-1.32-5.29a4,4,0,0,0-1.86-1.24,9.41,9.41,0,0,0-2-.5c-.52-.05-.78-.14-.78-.25q0-2.4.41-2.48a117.19,117.19,0,0,0,13.3-2.48,5,5,0,0,1,.66-.17c.22,0,.41.19.58.58a2,2,0,0,1,.21,1q0,.37-.12,1.16t-.21,1.65a10.57,10.57,0,0,0-.12,1.12,15.17,15.17,0,0,1,4-4A9.05,9.05,0,0,1,108.44,22Z"/><path class="cls-1" d="M136.69,22a15.32,15.32,0,0,1,6.94,1.53,13.07,13.07,0,0,1,4.79,3.88,19.21,19.21,0,0,1,2.64,4.87,14.24,14.24,0,0,1,.91,4.83q0,1.82-.62,2.27a4.69,4.69,0,0,1-2.52.45H129.09q-.58,0-.58.5a16.06,16.06,0,0,0,1.07,5.78A11.36,11.36,0,0,0,133.26,51a9.72,9.72,0,0,0,6.24,2.07,22.66,22.66,0,0,0,2.4-.12,12.37,12.37,0,0,0,2.15-.41q1-.29,1.73-.54a7.09,7.09,0,0,0,1.53-.74l1.12-.7q.33-.21,1.65-1.12a1.36,1.36,0,0,1,.41.5,1.6,1.6,0,0,1,.25.83,2.54,2.54,0,0,1-.5,1.57,13.46,13.46,0,0,1-4.87,4.46A15.33,15.33,0,0,1,137.19,59,16.73,16.73,0,0,1,124.8,53.7a17.82,17.82,0,0,1-5.2-12.93q0-8.34,4.83-13.55A16,16,0,0,1,136.69,22Zm-.58,3.8A5.84,5.84,0,0,0,132.56,27a7.79,7.79,0,0,0-2.4,2.81,15.78,15.78,0,0,0-1.2,3.1,10.1,10.1,0,0,0-.37,2.44c0,.39.17.58.5.58h13.38q.74,0,.74-1.24a10.71,10.71,0,0,0-1.94-5.87A5.92,5.92,0,0,0,136.11,25.82Z"/><path class="cls-1" d="M172.71,22a15.32,15.32,0,0,1,6.94,1.53,13.07,13.07,0,0,1,4.79,3.88,19.21,19.21,0,0,1,2.64,4.87,14.24,14.24,0,0,1,.91,4.83q0,1.82-.62,2.27a4.69,4.69,0,0,1-2.52.45H165.11q-.58,0-.58.5a16.06,16.06,0,0,0,1.07,5.78A11.36,11.36,0,0,0,169.28,51a9.72,9.72,0,0,0,6.24,2.07,22.66,22.66,0,0,0,2.4-.12,12.37,12.37,0,0,0,2.15-.41q1-.29,1.73-.54a7.09,7.09,0,0,0,1.53-.74l1.12-.7q.33-.21,1.65-1.12a1.36,1.36,0,0,1,.41.5,1.6,1.6,0,0,1,.25.83,2.54,2.54,0,0,1-.5,1.57,13.46,13.46,0,0,1-4.87,4.46A15.33,15.33,0,0,1,173.21,59a16.73,16.73,0,0,1-12.39-5.33,17.82,17.82,0,0,1-5.2-12.93q0-8.34,4.83-13.55A16,16,0,0,1,172.71,22Zm-.58,3.8A5.84,5.84,0,0,0,168.58,27a7.79,7.79,0,0,0-2.4,2.81,15.78,15.78,0,0,0-1.2,3.1,10.1,10.1,0,0,0-.37,2.44c0,.39.17.58.5.58h13.38q.74,0,.74-1.24a10.71,10.71,0,0,0-1.94-5.87A5.92,5.92,0,0,0,172.13,25.82Z"/><path class="cls-1" d="M210.38,21.85a14.2,14.2,0,0,1,6,1.16q.41,0,.41-1.32V13.92a28.8,28.8,0,0,0-.5-5.62Q215.92,7,212,7h-.66q-.5,0-.5-1.32t.5-1.32q2.48-.25,4.83-.66t3.88-.83q1.53-.41,2.64-.83l1.69-.62a4.26,4.26,0,0,1,.66-.21h.17a.89.89,0,0,1,.66.46,1.5,1.5,0,0,1,.33.87,31.62,31.62,0,0,0-.83,7.77V46.64a30.28,30.28,0,0,0,.5,6.11,1.22,1.22,0,0,0,.83.91,5.06,5.06,0,0,0,1.57.41q.83.08,1.57.12l.83,0a1.73,1.73,0,0,1,.17,1q0,1.65-.5,1.65-1.16.08-2.93.33t-3.47.54l-3.22.58q-1.53.29-3.43.7-.5,0-.5-1.41v-1.4a.37.37,0,0,0-.12-.33c-.08-.05-.15-.05-.21,0a13.79,13.79,0,0,1-8.59,3.06A16,16,0,0,1,196.26,54a16.68,16.68,0,0,1-5-12.35,19.37,19.37,0,0,1,5.66-14A18.09,18.09,0,0,1,210.38,21.85Zm-.74,4A7.23,7.23,0,0,0,203,29.54q-2.23,3.72-2.23,10,0,7,2.56,10.95a8.11,8.11,0,0,0,7.19,3.92A6.86,6.86,0,0,0,215.09,53a4.58,4.58,0,0,0,1.73-3.68V31.93a5.74,5.74,0,0,0-.29-1.73,7.71,7.71,0,0,0-1-1.94,5.28,5.28,0,0,0-2.23-1.73A8.77,8.77,0,0,0,209.64,25.82Z"/><path class="cls-1" d="M253.42,22a18.21,18.21,0,0,1,13.26,5.41,17.7,17.7,0,0,1,5.49,13.09,18.71,18.71,0,0,1-37.42,0,17.8,17.8,0,0,1,5.41-13.14A18.1,18.1,0,0,1,253.42,22Zm-1.07,3.88a6.65,6.65,0,0,0-6,3.76,17.77,17.77,0,0,0-2.15,9,24.09,24.09,0,0,0,2.69,11.65q2.68,5,7.48,5a6.73,6.73,0,0,0,6.07-3.8,17.57,17.57,0,0,0,2.19-8.92,28.36,28.36,0,0,0-1.07-8,14.57,14.57,0,0,0-3.47-6.16A7.66,7.66,0,0,0,252.35,25.9Z"/><path class="cls-1" d="M303.65,22A8.92,8.92,0,0,1,309,23.63a9.66,9.66,0,0,1,3.3,4.17,19.48,19.48,0,0,1,6-4.13A18.56,18.56,0,0,1,326.12,22a9.38,9.38,0,0,1,5.08,1.32,9.12,9.12,0,0,1,3.3,3.68,19.44,19.44,0,0,1,1.73,5.12,31.48,31.48,0,0,1,.54,6V46.8a34.58,34.58,0,0,0,.58,7.44q.16.58,2.23,1.2a12.15,12.15,0,0,0,2.81.62c.17,0,.26.4.29,1.2a4.68,4.68,0,0,1-.12,1.61q-.58-.08-4.34-.33t-5.66-.25q-2,0-5.66.25t-4.42.33a3.08,3.08,0,0,1-.25-1.57q0-1.24.25-1.24a11.09,11.09,0,0,0,3-.62q2-.62,2.15-1.2a25.71,25.71,0,0,0,.58-5.78V40q0-12-7.68-12A7.52,7.52,0,0,0,316,29.37a5.15,5.15,0,0,0-2.15,2.56c0,.17,0,.39,0,.66a1.61,1.61,0,0,0,0,.66,40.4,40.4,0,0,1,.25,5.12v8.76a32.49,32.49,0,0,0,.58,7.1q.16.58,2.23,1.2a12.15,12.15,0,0,0,2.81.62c.17,0,.26.4.29,1.2a4.69,4.69,0,0,1-.12,1.61q-.58-.08-4.34-.33t-5.66-.25q-2,0-5.66.25t-4.42.33a3.08,3.08,0,0,1-.25-1.57q0-1.24.25-1.24a11.09,11.09,0,0,0,3-.62q2-.62,2.15-1.2a27,27,0,0,0,.58-6V40.28q0-6.44-1.9-9.33A6.29,6.29,0,0,0,298,28a7.91,7.91,0,0,0-4.54,1.4,3.9,3.9,0,0,0-2.07,3.14V46.8a30.37,30.37,0,0,0,.66,7.44q.16.58,2.15,1.2a11.21,11.21,0,0,0,2.73.62c.22,0,.34.4.37,1.2a4.69,4.69,0,0,1-.12,1.61q-.66-.08-4.34-.33t-5.58-.25q-2.07,0-5.78.25t-4.38.33a2.42,2.42,0,0,1-.33-1.57q0-1.24.33-1.24a12,12,0,0,0,3-.62q2.06-.62,2.23-1.2a27,27,0,0,0,.58-6V34.74q0-3.88-1.32-5.29a4,4,0,0,0-1.86-1.24,9.31,9.31,0,0,0-2-.5c-.55-.05-.83-.14-.83-.25q0-2.4.5-2.48a114.56,114.56,0,0,0,13.22-2.48.53.53,0,0,1,.25-.12,1.75,1.75,0,0,1,.41,0q.41,0,.66.58a1.52,1.52,0,0,1,.17.91,28.17,28.17,0,0,0-.33,3c0,.22.05.36.17.41a1.23,1.23,0,0,0,.41-.25,18.32,18.32,0,0,1,5.08-3.47A14.46,14.46,0,0,1,303.65,22Z"/><path class="cls-1" d="M370,15.41a24.87,24.87,0,0,0-.66-6.94Q369,7.81,367,7.19a11.09,11.09,0,0,0-3-.62q-.33,0-.33-1.24a3.33,3.33,0,0,1,.17-1.49q.41,0,4.58.25t6.4.25q.66,0,10.57-.5a4.25,4.25,0,0,1,.25,1.32c0,.94-.11,1.4-.33,1.4a13.46,13.46,0,0,0-3,.66q-2.23.66-2.4,1.24a30.67,30.67,0,0,0-.66,7.27V46.8a30.64,30.64,0,0,0,.74,7.44q.16.58,2.27,1.2a12.65,12.65,0,0,0,2.85.62c.22,0,.33.52.33,1.57a3.68,3.68,0,0,1-.17,1.16q-9.91-.5-10.49-.5-1.65,0-3.47.08l-4,.21-3.51.21a1.61,1.61,0,0,1-.33-1.16c0-1,.11-1.57.33-1.57a13.19,13.19,0,0,0,3.1-.58q2.11-.58,2.35-1.24A28.92,28.92,0,0,0,370,47.3Z"/><path class="cls-1" d="M403.78,21.94a35.13,35.13,0,0,1,9.58,1.4,46.91,46.91,0,0,1,.91,9.25q0,.66-1.07.66-1.82,0-2-.66a10,10,0,0,0-2.44-4.92,6.46,6.46,0,0,0-5-2A5.93,5.93,0,0,0,400,26.73a3.67,3.67,0,0,0-1.36,3.06,4.81,4.81,0,0,0,.45,2.11,5.16,5.16,0,0,0,1.49,1.78A20.34,20.34,0,0,0,402.42,35q.78.5,2.35,1.32a5.38,5.38,0,0,0,.83.41l1.24.66,1.36.74,1.32.78a15.09,15.09,0,0,1,1.45,1l1.28,1A6.51,6.51,0,0,1,413.49,42q.37.5,1,1.28a5.33,5.33,0,0,1,.87,1.49,15.74,15.74,0,0,1,.45,1.57,7.68,7.68,0,0,1,.21,1.78,9.74,9.74,0,0,1-4,8.22,15.67,15.67,0,0,1-9.71,3A27.59,27.59,0,0,1,391.64,57a33,33,0,0,1-.83-4.58,40.35,40.35,0,0,1-.41-4.75,1.75,1.75,0,0,1,1.16-.41q1.9,0,2,.66a9.12,9.12,0,0,0,3.26,5.58,8.81,8.81,0,0,0,5.66,2.11,6,6,0,0,0,3.8-1.16,4,4,0,0,0,1.49-3.39,5.44,5.44,0,0,0-.21-1.53,4.05,4.05,0,0,0-.78-1.4L405.81,47a6,6,0,0,0-1.49-1.12q-1.12-.66-1.65-1l-2.07-1.07q-1.53-.78-2.11-1.12a19.21,19.21,0,0,1-5.87-4.42,8.83,8.83,0,0,1-2.07-5.91,8.87,8.87,0,0,1,4-7.77A15.92,15.92,0,0,1,403.78,21.94Z"/><path class="cls-1" d="M482.76,15.33a20.12,20.12,0,0,0-.83-6.61q-.41-1-2.77-1.57a16.59,16.59,0,0,0-3.68-.58c-.22,0-.34-.4-.37-1.2a2.8,2.8,0,0,1,.21-1.53q8.84.58,10.41.58,2.15,0,5.53-.29t4.21-.29a3.45,3.45,0,0,1,.17,1.32q0,1.4-.33,1.4a15.84,15.84,0,0,0-3.55.62,5.36,5.36,0,0,0-3.14,1.69,19.29,19.29,0,0,0-.91,6.86V47.05q0,3,.33,11.57a3,3,0,0,1-1.82.33q-1.32,0-2.64-1.9L450.71,13.43V46.89a23,23,0,0,0,.66,6.77q.41,1,3.06,1.69a17.08,17.08,0,0,0,3.72.7c.17,0,.26.39.29,1.16a4.5,4.5,0,0,1-.12,1.57q-9.91-.5-10.33-.5-2.23,0-5.49.21l-4.34.29a2.07,2.07,0,0,1-.33-1.4q0-1.32.33-1.32a15.65,15.65,0,0,0,3.76-.62,4.51,4.51,0,0,0,3-1.86q.83-1.73.83-6.94V14.25q0-4.46-.91-6-.33-.58-2.85-1.07a21.53,21.53,0,0,0-3.68-.5q-.33,0-.37-1.24a2.31,2.31,0,0,1,.29-1.57q8.67.41,9.83.41,2.73,0,7.44-.41a85.59,85.59,0,0,0,5.74,8.8q4.17,5.82,11.44,15.37t9.91,13.18a23.7,23.7,0,0,0,.17-3.39Z"/><path class="cls-1" d="M518.7,22A18.21,18.21,0,0,1,532,27.43a17.7,17.7,0,0,1,5.49,13.09,18.71,18.71,0,0,1-37.42,0,17.8,17.8,0,0,1,5.41-13.14A18.1,18.1,0,0,1,518.7,22Zm-1.07,3.88a6.65,6.65,0,0,0-6,3.76,17.77,17.77,0,0,0-2.15,9,24.09,24.09,0,0,0,2.69,11.65q2.68,5,7.48,5a6.73,6.73,0,0,0,6.07-3.8,17.57,17.57,0,0,0,2.19-8.92,28.36,28.36,0,0,0-1.07-8,14.57,14.57,0,0,0-3.47-6.16A7.66,7.66,0,0,0,517.62,25.9Z"/><path class="cls-1" d="M570.74,58.29q-2.48,0-5.29.12t-4.38.29l-1.65.08a2.16,2.16,0,0,1-.25-1.32q0-1.4.25-1.4a13.59,13.59,0,0,0,3.14-.54q2.06-.54,2.4-1.28.58-1.73.58-7.52V15.49A26.17,26.17,0,0,0,565,8.72q-.25-.91-2.31-1.49a13,13,0,0,0-3.3-.58q-.33,0-.33-1.24a2.25,2.25,0,0,1,.33-1.49q5.37.33,10.91.33,3.88.08,13.09-.25t13.59-.33q.33,2.48,1.32,6.9t1.07,4.83a2.55,2.55,0,0,1-1.73.41c-.61,0-1-.19-1.16-.58q-2.73-7.35-10.57-7.35h-4.3q-6.11,0-6.28,1.07a37.18,37.18,0,0,0-.41,6.69v13q0,.5,3.64.5h4.54q4.79,0,5.7-.41t1.4-2.89q.25-1.24.5-2.07.08-.58,1.32-.58a2.24,2.24,0,0,1,1.57.41V39.2a2.42,2.42,0,0,1-1.57.33q-1.07,0-1.32-.66a26,26,0,0,0-1-3.3,4.82,4.82,0,0,0-.58-1.16l-.7-.5q-1.07-.66-7.6-.66-5.87,0-5.87.66v13a20.14,20.14,0,0,0,.91,6.86q.33.83,3,1.57a16.6,16.6,0,0,0,3.55.74q.41,0,.41,1.4a2.4,2.4,0,0,1-.25,1.32Q572.56,58.29,570.74,58.29Z"/><path class="cls-1" d="M620.56,22a15.32,15.32,0,0,1,6.94,1.53,13.07,13.07,0,0,1,4.79,3.88,19.21,19.21,0,0,1,2.64,4.87,14.24,14.24,0,0,1,.91,4.83q0,1.82-.62,2.27a4.69,4.69,0,0,1-2.52.45H613q-.58,0-.58.5a16.06,16.06,0,0,0,1.07,5.78A11.36,11.36,0,0,0,617.13,51a9.72,9.72,0,0,0,6.24,2.07,22.66,22.66,0,0,0,2.4-.12,12.37,12.37,0,0,0,2.15-.41q1-.29,1.73-.54a7.09,7.09,0,0,0,1.53-.74l1.12-.7q.33-.21,1.65-1.12a1.36,1.36,0,0,1,.41.5,1.6,1.6,0,0,1,.25.83,2.54,2.54,0,0,1-.5,1.57,13.46,13.46,0,0,1-4.87,4.46A15.33,15.33,0,0,1,621.05,59a16.73,16.73,0,0,1-12.39-5.33,17.82,17.82,0,0,1-5.2-12.93q0-8.34,4.83-13.55A16,16,0,0,1,620.56,22Zm-.58,3.8A5.84,5.84,0,0,0,616.43,27a7.79,7.79,0,0,0-2.4,2.81,15.78,15.78,0,0,0-1.2,3.1,10.1,10.1,0,0,0-.37,2.44c0,.39.17.58.5.58h13.38q.74,0,.74-1.24a10.71,10.71,0,0,0-1.94-5.87A5.92,5.92,0,0,0,620,25.82Z"/><path class="cls-1" d="M657,22q5.12,0,7.68,2.69t2.56,9.21V50.19a3.77,3.77,0,0,0,.74,2.52,2.48,2.48,0,0,0,2,.87,5.15,5.15,0,0,0,2.81-1.07c.33.11.5.41.5.91a4.91,4.91,0,0,1-.5,2.48,20.44,20.44,0,0,1-3.3,2.07,8.61,8.61,0,0,1-4,1.07,6,6,0,0,1-3.72-1.41,6.77,6.77,0,0,1-2.4-3.06l-.62.54q-.54.46-1.49,1.12a24.47,24.47,0,0,1-2.15,1.32,13.18,13.18,0,0,1-2.81,1.12,12,12,0,0,1-3.26.45,9.86,9.86,0,0,1-6.73-2.27,7.85,7.85,0,0,1-2.6-6.24,7.61,7.61,0,0,1,.95-3.72A9.88,9.88,0,0,1,642.95,44a16.92,16.92,0,0,1,3.55-2.19,33.8,33.8,0,0,1,3.84-1.61Q652,39.7,654.47,39T658,37.88a1.3,1.3,0,0,0,.74-1.32V32a7.09,7.09,0,0,0-1.32-4.54,4.31,4.31,0,0,0-3.55-1.65A5,5,0,0,0,650,27.35a6.18,6.18,0,0,0-1.4,4.34,2.68,2.68,0,0,1-1.24,2.44,5.14,5.14,0,0,1-2.81.78q-3.06,0-4.3-2,0-4,5.41-7.43A20.72,20.72,0,0,1,657,22Zm-3.72,31.72a6.4,6.4,0,0,0,3.84-1.16,3.27,3.27,0,0,0,1.61-2.64V41.52q-.58.25-2.44.83t-2.85,1a22.54,22.54,0,0,0-2.31,1.16,5,5,0,0,0-1.94,1.82,4.55,4.55,0,0,0-.62,2.31,5.09,5.09,0,0,0,1.32,3.88A4.75,4.75,0,0,0,653.27,53.74Z"/><path class="cls-1" d="M701.19,22q4.54,0,6.77,2.73,0,7-4,7a4.91,4.91,0,0,1-3.22-1.65,5.17,5.17,0,0,0-3.55-1.65,4.43,4.43,0,0,0-4,2.6,11,11,0,0,0-1.45,5.41V46.8a34.58,34.58,0,0,0,.58,7.44q.16.58,2.19,1.2a11.67,11.67,0,0,0,2.77.62c.17,0,.26.4.29,1.2a8.62,8.62,0,0,1,0,1.61q-.66-.08-4.38-.33t-5.62-.25q-2,0-5.74.25t-4.42.33a2.42,2.42,0,0,1-.33-1.57q0-1.24.33-1.24a11.52,11.52,0,0,0,3-.62q2-.62,2.19-1.2a27,27,0,0,0,.58-6V34.74q0-3.88-1.32-5.29A4,4,0,0,0,680,28.21a9.41,9.41,0,0,0-2-.5c-.52-.05-.78-.14-.78-.25q0-2.4.41-2.48a117.19,117.19,0,0,0,13.3-2.48,5,5,0,0,1,.66-.17c.22,0,.41.19.58.58a2,2,0,0,1,.21,1q0,.37-.12,1.16t-.21,1.65a10.57,10.57,0,0,0-.12,1.12,15.17,15.17,0,0,1,4-4A9.05,9.05,0,0,1,701.19,22Z"/><path class="cls-2" d="M7,18.12H9.91v1.57H2.28V18.12H5.13V8.91L2.85,10.3,2,8.88,5.67,6.63H7Z"/><path class="cls-2" d="M18.15,18.12H21v1.57H13.39V18.12h2.85V8.91L14,10.3l-.82-1.43,3.63-2.24h1.37Z"/><path class="cls-3" d="M294.16,46.39,113.42,63.93a13.66,13.66,0,0,1-14.9-12.29h0a13.66,13.66,0,0,1,12.29-14.9L291.55,19.2a13.66,13.66,0,0,1,14.9,12.29h0A13.66,13.66,0,0,1,294.16,46.39Z"/><path class="cls-2" d="M128.4,42.33a6,6,0,0,1,1.89.08,4.11,4.11,0,0,1,3.15,3l-2.22.63a3.39,3.39,0,0,0-1-1.4,2.12,2.12,0,0,0-1.55-.42,2.35,2.35,0,0,0-1.88,1.21,5.19,5.19,0,0,0-.51,3.16,5.63,5.63,0,0,0,1,3,2.24,2.24,0,0,0,2.06.92,2.62,2.62,0,0,0,1.81-.78,2.07,2.07,0,0,0,.48-1.61l2.28-.22a3.79,3.79,0,0,1-1,3.15,5.12,5.12,0,0,1-3.32,1.4,4.59,4.59,0,0,1-3.84-1.27A6.81,6.81,0,0,1,124,48.84a6.61,6.61,0,0,1,1-4.63A4.59,4.59,0,0,1,128.4,42.33Z"/><path class="cls-2" d="M139.32,44.24a4.87,4.87,0,0,1,1.68.12,3.48,3.48,0,0,1,1.41.73A4.77,4.77,0,0,1,144,48.46a4.72,4.72,0,0,1-.91,3.57,4,4,0,0,1-2.87,1.43,4.1,4.1,0,0,1-3.13-.86,4.68,4.68,0,0,1-1.57-3.33,4.73,4.73,0,0,1,.91-3.6A4.1,4.1,0,0,1,139.32,44.24Zm2.54,4.4a3.36,3.36,0,0,0-.74-2,1.8,1.8,0,0,0-1.57-.55,2,2,0,0,0-1.51.84,3.07,3.07,0,0,0-.41,2.13,3.32,3.32,0,0,0,.75,2,1.82,1.82,0,0,0,1.57.55,2,2,0,0,0,1.5-.84A3.07,3.07,0,0,0,141.86,48.64Z"/><path class="cls-2" d="M154,44.75a3,3,0,0,1,2.79-2.17,3,3,0,0,1,2.53.83,4.32,4.32,0,0,1,1.09,2.72l.49,5.1-2.14.2-.49-5.1a2.07,2.07,0,0,0-.61-1.42,1.73,1.73,0,0,0-1.36-.37,1.65,1.65,0,0,0-1.31.87,4,4,0,0,0-.36,2.28l.39,4.1-2.12.2-.49-5.1a2.07,2.07,0,0,0-.61-1.42,1.73,1.73,0,0,0-1.36-.37,1.81,1.81,0,0,0-1.38.89,3.75,3.75,0,0,0-.42,2.33l.39,4-2.12.2-.83-8.73,1.85-.18.38,1.49a2.9,2.9,0,0,1,2.6-2,3.15,3.15,0,0,1,1.87.33A3,3,0,0,1,154,44.75Z"/><path class="cls-2" d="M162.79,39.39a1.21,1.21,0,0,1,.26-.94,1.58,1.58,0,0,1,1.93-.18,1.36,1.36,0,0,1,.17,1.82,1.58,1.58,0,0,1-1.93.18A1.21,1.21,0,0,1,162.79,39.39Zm.52,2.78,2.12-.2.83,8.75-2.12.2Z"/><path class="cls-2" d="M171.25,43a3.19,3.19,0,0,1,5.14-1.18,4.49,4.49,0,0,1,1.09,2.73l.49,5.1-2.12.2-.49-5.1a2.07,2.07,0,0,0-.61-1.42,1.73,1.73,0,0,0-1.36-.37,1.81,1.81,0,0,0-1.38.89,3.75,3.75,0,0,0-.42,2.33l.39,4-2.12.2L169,41.64l1.85-.18Z"/><path class="cls-2" d="M181.47,45.66a2.84,2.84,0,0,1-1.27-2.15,2.81,2.81,0,0,1,.89-2.41A3.91,3.91,0,0,1,183.48,40a4.75,4.75,0,0,1,2.38.3,2.38,2.38,0,0,1,.72-1.74,2.7,2.7,0,0,1,1.72-.8l.09,2q-1.55.15-1.5,1.18a2.69,2.69,0,0,1,.83,1.63,3.11,3.11,0,0,1-.17,1.48,2.91,2.91,0,0,1-.73,1.06,4.09,4.09,0,0,1-2.54,1.11,4.54,4.54,0,0,1-1.63-.12.87.87,0,0,0-.64.93q.08.81,1.44.68l2.93-.28q3-.28,3.18,1.8a3,3,0,0,1-.22,1.41,3.69,3.69,0,0,1-.9,1.29,5.86,5.86,0,0,1-3.59,1.5,6.33,6.33,0,0,1-3.59-.55A2.46,2.46,0,0,1,179.8,51a1.71,1.71,0,0,1,.37-1.33,2.35,2.35,0,0,1,1.25-.73,1.88,1.88,0,0,1-1.21-1.5,1.48,1.48,0,0,1,.3-1.09A2.21,2.21,0,0,1,181.47,45.66Zm2,3.62q-1.68.23-1.57,1.44a1.11,1.11,0,0,0,.8.91,3.62,3.62,0,0,0,1.72.21,5.64,5.64,0,0,0,1.5-.31,3.11,3.11,0,0,0,.88-.52,1.55,1.55,0,0,0,.68-1.37.69.69,0,0,0-.28-.51.94.94,0,0,0-.68-.14ZM185.62,43a1.73,1.73,0,0,0-.52-1.15,1.56,1.56,0,0,0-1.27-.34,1.55,1.55,0,0,0-1.53,1.81,1.7,1.7,0,0,0,.55,1.15,1.63,1.63,0,0,0,1.3.35,1.55,1.55,0,0,0,1.19-.58A1.77,1.77,0,0,0,185.62,43Z"/><path class="cls-2" d="M197.64,36l2.66-.25L205.24,47l-2.25.21-1-2.44-4.33.41L197,47.79l-2.25.21Zm.36,7.58,3.27-.31-2.1-4.86Z"/><path class="cls-2" d="M213,44.67a2.78,2.78,0,0,1-2.49,2,3,3,0,0,1-3.23-1.52,3.89,3.89,0,0,1-.42-1.5l-.53-5.57,2.12-.2.51,5.36a1.78,1.78,0,0,0,.54,1.25,1.37,1.37,0,0,0,1.06.33,2.67,2.67,0,0,0,1-.27,2,2,0,0,0,.67-.58,3.22,3.22,0,0,0,.5-2.13l-.41-4.31,2.12-.2.83,8.75-2.12.2Z"/><path class="cls-2" d="M219,42.08a2.84,2.84,0,0,1-1.27-2.15,2.81,2.81,0,0,1,.89-2.41A3.91,3.91,0,0,1,221,36.45a4.75,4.75,0,0,1,2.38.3A2.38,2.38,0,0,1,224.1,35a2.7,2.7,0,0,1,1.72-.8l.09,2q-1.55.15-1.5,1.18a2.69,2.69,0,0,1,.83,1.63,3.11,3.11,0,0,1-.17,1.48,2.91,2.91,0,0,1-.73,1.06,4.09,4.09,0,0,1-2.54,1.11,4.54,4.54,0,0,1-1.63-.12.87.87,0,0,0-.64.93q.08.81,1.44.68l2.93-.28q3-.28,3.18,1.8a3,3,0,0,1-.22,1.41,3.69,3.69,0,0,1-.9,1.29,5.86,5.86,0,0,1-3.59,1.5,6.33,6.33,0,0,1-3.59-.55,2.46,2.46,0,0,1-1.46-1.95,1.71,1.71,0,0,1,.37-1.33,2.35,2.35,0,0,1,1.25-.73,1.88,1.88,0,0,1-1.21-1.5,1.48,1.48,0,0,1,.3-1.09A2.21,2.21,0,0,1,219,42.08Zm2,3.62q-1.68.23-1.57,1.44a1.11,1.11,0,0,0,.8.91,3.62,3.62,0,0,0,1.72.21,5.64,5.64,0,0,0,1.5-.31,3.11,3.11,0,0,0,.88-.52,1.55,1.55,0,0,0,.68-1.37.69.69,0,0,0-.28-.51.94.94,0,0,0-.68-.14Zm2.17-6.31a1.73,1.73,0,0,0-.52-1.15,1.56,1.56,0,0,0-1.27-.34,1.55,1.55,0,0,0-1.53,1.81,1.7,1.7,0,0,0,.55,1.15,1.63,1.63,0,0,0,1.3.35,1.55,1.55,0,0,0,1.19-.58A1.77,1.77,0,0,0,223.14,39.39Z"/><path class="cls-2" d="M234.69,42.6a2.78,2.78,0,0,1-2.49,2A3,3,0,0,1,229,43.07a3.89,3.89,0,0,1-.42-1.5L228,36l2.12-.2.51,5.36a1.78,1.78,0,0,0,.54,1.25,1.37,1.37,0,0,0,1.06.33,2.67,2.67,0,0,0,1-.27,2,2,0,0,0,.67-.58,3.22,3.22,0,0,0,.5-2.13L234,35.43l2.12-.2L237,44l-2.12.2Z"/><path class="cls-2" d="M241.24,40.88q.15,1.24,1.93,1.07a2,2,0,0,0,1.09-.4.84.84,0,0,0,.37-.73.74.74,0,0,0-.33-.59,2.67,2.67,0,0,0-.88-.31l-2-.5q-2.19-.53-2.35-2.21a2.08,2.08,0,0,1,.83-1.88,4.74,4.74,0,0,1,2.61-.93,4,4,0,0,1,2.66.49,2.41,2.41,0,0,1,1.12,1.76l-2,.19a.88.88,0,0,0-.48-.64,2,2,0,0,0-1.1-.15,1.84,1.84,0,0,0-1.06.38.79.79,0,0,0-.33.67q.06.63,1.15.83l2.14.58a4.12,4.12,0,0,1,1.66.72,1.84,1.84,0,0,1,.68,1.32,2.33,2.33,0,0,1-.85,2,4.45,4.45,0,0,1-2.72,1.09,4.71,4.71,0,0,1-2.88-.5,2.55,2.55,0,0,1-1.28-2Z"/><path class="cls-2" d="M254.68,42.07a5.54,5.54,0,0,1-1.82.65,4,4,0,0,1-1.21,0,2.71,2.71,0,0,1-1-.4,2.59,2.59,0,0,1-1-2l-.47-4.89-1.22.12-.14-1.42,1.22-.12-.22-2.3,2.12-.2.22,2.3,2.37-.23L253.7,35l-2.37.23.46,4.82q.1,1.08,1.13,1a4.33,4.33,0,0,0,1.32-.42Z"/><path class="cls-2" d="M262.76,39.56l6.67-.64.19,1.94-8.79.84-.19-2a3.37,3.37,0,0,1,1.2-3.2,6.28,6.28,0,0,1,1.11-.69l2.3-1.14a2.71,2.71,0,0,0,1.09-.87,1.77,1.77,0,0,0,.26-1.18,1.51,1.51,0,0,0-.59-1.1,2,2,0,0,0-1.43-.33,2.44,2.44,0,0,0-1.44.57,1.73,1.73,0,0,0-.55,1.34l-2.35.22a3.29,3.29,0,0,1,1.06-2.8,5.13,5.13,0,0,1,3.06-1.18,4.6,4.6,0,0,1,3.09.68,3.11,3.11,0,0,1,1.44,2.35,3.53,3.53,0,0,1-.51,2.4,5.46,5.46,0,0,1-2.12,1.68l-2.34,1.17a2.77,2.77,0,0,0-1,.7,1.2,1.2,0,0,0-.23.88Z"/><path class="cls-2" d="M275.16,28.33a5.63,5.63,0,0,1,3.44.62,2.86,2.86,0,0,1,1.54,2.27,2.34,2.34,0,0,1-.45,1.63A2.87,2.87,0,0,1,278,33.91a5.93,5.93,0,0,1,2.18,1,2.52,2.52,0,0,1,.85,1.73A2.83,2.83,0,0,1,280,39.18a6.33,6.33,0,0,1-3.56,1.28,6.07,6.07,0,0,1-3.67-.63,2.85,2.85,0,0,1-1.58-2.3,2.26,2.26,0,0,1,.59-1.84,3.52,3.52,0,0,1,1.87-1,4.24,4.24,0,0,1-2.31-1.76,2.52,2.52,0,0,1-.3-1,2.74,2.74,0,0,1,1-2.44A5.41,5.41,0,0,1,275.16,28.33Zm.43,6.92a2.62,2.62,0,0,0-2.11,1.25,1.2,1.2,0,0,0-.1.64,1.13,1.13,0,0,0,.28.64,1.81,1.81,0,0,0,.64.46,4,4,0,0,0,2.06.24A4.43,4.43,0,0,0,278.3,38a1,1,0,0,0,.59-.93,1.09,1.09,0,0,0-.41-.79,2.92,2.92,0,0,0-1-.46Zm-1-2.31,1.4.39a2.67,2.67,0,0,0,1.47-.58,1.32,1.32,0,0,0,.52-1.19,1.29,1.29,0,0,0-.75-1.06,3.06,3.06,0,0,0-1.73-.26,3.37,3.37,0,0,0-1.64.54,1.17,1.17,0,0,0-.56,1.11Q273.34,32.56,274.57,32.94Z"/></svg>