<svg id="Layer_1" data-name="Layer 1" xmlns="http://www.w3.org/2000/svg" viewBox="0 0 629.53 156.39"><defs><style>.cls-1{fill:#1414ef;}.cls-2,.cls-3{fill:#fff;stroke:#1414ef;stroke-miterlimit:10;}.cls-2{stroke-width:1.2px;}.cls-3{stroke-width:1.3px;}</style></defs><title>title--narrower</title><path class="cls-1" d="M7,16H9.91v1.57H2.28V16H5.13V6.75L2.85,8.14,2,6.72,5.67,4.47H7Z"/><path class="cls-1" d="M20.35,12a3.29,3.29,0,0,1,.6,2,3.28,3.28,0,0,1-1.2,2.69,5,5,0,0,1-3.26,1A7.42,7.42,0,0,1,14,17.25a5.59,5.59,0,0,1-2-1.16l.69-1.41a5.82,5.82,0,0,0,3.72,1.43,3,3,0,0,0,2-.56,2.06,2.06,0,0,0,.68-1.68,2,2,0,0,0-.69-1.64,3.37,3.37,0,0,0-2.1-.55H14.69V10.14H16a3.26,3.26,0,0,0,2.07-.56,2,2,0,0,0,.71-1.66,1.91,1.91,0,0,0-.59-1.51,2.42,2.42,0,0,0-1.67-.53,5.72,5.72,0,0,0-3.63,1.43L12.23,5.9a5.41,5.41,0,0,1,2-1.16,7.23,7.23,0,0,1,2.44-.42,4.44,4.44,0,0,1,2.93.91A3,3,0,0,1,20.64,7.7a3.48,3.48,0,0,1-.54,1.93,3,3,0,0,1-1.5,1.2A3.23,3.23,0,0,1,20.35,12Z"/><path class="cls-2" d="M69.84,1.78,87.19,45.07q1.24,3.3,2.48,6a4,4,0,0,0,2.64,2,11,11,0,0,0,3.14.74q.33,0,.33,1.49a2.78,2.78,0,0,1-.17,1.24q-9.91-.5-10.41-.5t-10.74.5A2.33,2.33,0,0,1,74.13,55c0-.8.11-1.2.33-1.2a10.64,10.64,0,0,0,2.73-.5q1.74-.5,2.07-1.16a2.37,2.37,0,0,0,.25-1.07,19,19,0,0,0-1.57-5.7L75,37.71a.91.91,0,0,0-.58-.33q-2.64-.16-7.1-.17t-9.42.25c-.33,0-.5.11-.5.33l-3.14,7.68a23.45,23.45,0,0,0-1.57,5.37,1.84,1.84,0,0,0,.91,1.65,8.28,8.28,0,0,0,2.6.91,14.25,14.25,0,0,0,2.52.41Q59,53.91,59,55a5.43,5.43,0,0,1-.17,1.57q-.41,0-3.88-.25t-5.62-.25q-2.15,0-5.08.21l-4.17.29a1.76,1.76,0,0,1-.33-1.24q0-1.49.17-1.49a11.93,11.93,0,0,0,3.18-.7,5.09,5.09,0,0,0,2.77-1.61A39.26,39.26,0,0,0,49,45.07L64.38,7.89q1.9-5,3.06-5.95a2.11,2.11,0,0,1,1.4-.58A1.35,1.35,0,0,1,69.84,1.78ZM59.92,32.51q2.89.25,5.95.25,2.89,0,6.77-.25l.17-.33L66.53,15.66,59.76,32.18C59.76,32.4,59.81,32.51,59.92,32.51Z"/><path class="cls-2" d="M117.67,29.7A28.28,28.28,0,0,1,125.6,9.63,25.45,25.45,0,0,1,144.85,1.2q7.27,0,19.17,3.06.25.08.7,5.49t.45,6.4q0,1-1.65,1a3,3,0,0,1-1.82-.5,14.93,14.93,0,0,0-.7-2.31,16.33,16.33,0,0,0-1.65-2.93,12.08,12.08,0,0,0-2.89-3,16.51,16.51,0,0,0-4.63-2.19,21.59,21.59,0,0,0-6.65-.95,14.6,14.6,0,0,0-12.64,6.44Q128,18.14,128,28.21a31.69,31.69,0,0,0,2.11,11.44A22.52,22.52,0,0,0,136.8,49a16.15,16.15,0,0,0,10.7,3.84q5.2,0,7.93-1.57a2.16,2.16,0,0,0,.83-1.9l-.08-5.95v-.58a25.11,25.11,0,0,0-.58-6.69q-.33-1.07-2.44-1.57a15.9,15.9,0,0,0-3.51-.5q-.33,0-.33-1.2a2.34,2.34,0,0,1,.33-1.53q.91,0,5,.25t6.57.25l10-.5a4.45,4.45,0,0,1,.25,1.4c0,.94-.11,1.4-.33,1.4a10.57,10.57,0,0,0-2.19.5,21.54,21.54,0,0,0-2.44.83q-1.08.66-1.07,6,0,1.74,0,3.47t0,1.9a7.13,7.13,0,0,0,.41,2.56,7.07,7.07,0,0,1,.41,1.24q0,1.16-1.82,2-3.31,1.49-4.87,2.07a43.7,43.7,0,0,1-6,1.4,53.54,53.54,0,0,1-9.79.83,24.55,24.55,0,0,1-18.55-8.1A27,27,0,0,1,117.67,29.7Z"/><path class="cls-2" d="M192.77,19.79a15.32,15.32,0,0,1,6.94,1.53,13.07,13.07,0,0,1,4.79,3.88,19.21,19.21,0,0,1,2.64,4.87,14.24,14.24,0,0,1,.91,4.83q0,1.82-.62,2.27a4.69,4.69,0,0,1-2.52.45H185.17q-.58,0-.58.5a16.06,16.06,0,0,0,1.07,5.78,11.36,11.36,0,0,0,3.68,4.87,9.72,9.72,0,0,0,6.24,2.07,22.66,22.66,0,0,0,2.4-.12,12.37,12.37,0,0,0,2.15-.41q1-.29,1.73-.54a7.1,7.1,0,0,0,1.53-.74l1.12-.7q.33-.21,1.65-1.12a1.36,1.36,0,0,1,.41.5,1.6,1.6,0,0,1,.25.83,2.54,2.54,0,0,1-.5,1.57,13.46,13.46,0,0,1-4.87,4.46,15.33,15.33,0,0,1-8.18,2.23,16.73,16.73,0,0,1-12.39-5.33,17.82,17.82,0,0,1-5.2-12.93q0-8.34,4.83-13.55A16,16,0,0,1,192.77,19.79Zm-.58,3.8a5.84,5.84,0,0,0-3.55,1.16,7.79,7.79,0,0,0-2.4,2.81,15.79,15.79,0,0,0-1.2,3.1,10.11,10.11,0,0,0-.37,2.44c0,.39.17.58.5.58h13.38q.74,0,.74-1.24a10.71,10.71,0,0,0-1.94-5.87A5.92,5.92,0,0,0,192.19,23.59Z"/><path class="cls-2" d="M238.86,19.79q10.66,0,10.66,16.94v7.85A34.6,34.6,0,0,0,250.1,52q.16.58,2.27,1.2a12.65,12.65,0,0,0,2.85.62c.17,0,.26.4.29,1.2a4.67,4.67,0,0,1-.12,1.61q-.5-.08-4.34-.33t-5.74-.25q-2,0-5.49.25t-4.25.33a2.42,2.42,0,0,1-.33-1.57q0-1.24.33-1.24a9.82,9.82,0,0,0,2.77-.62q1.86-.62,2-1.2a23.75,23.75,0,0,0,.66-6V38.13q0-6.86-1.86-9.58t-5.91-2.73a7.65,7.65,0,0,0-4.63,1.45,4,4,0,0,0-2,3.1V44.57a34.56,34.56,0,0,0,.58,7.44q.16.58,2.19,1.2a11.89,11.89,0,0,0,2.69.62c.22,0,.34.4.37,1.2a4.7,4.7,0,0,1-.12,1.61q-.66-.08-4.34-.33t-5.58-.25q-2,0-5.74.25t-4.42.33a2.42,2.42,0,0,1-.33-1.57q0-1.24.33-1.24a11.52,11.52,0,0,0,3-.62q2-.62,2.19-1.2a27,27,0,0,0,.58-6V32.51q0-3.88-1.32-5.29A4,4,0,0,0,214.86,26a9.4,9.4,0,0,0-2-.5c-.52-.05-.78-.14-.78-.25q0-2.4.41-2.48a117.19,117.19,0,0,0,13.3-2.48.54.54,0,0,1,.21-.12.79.79,0,0,1,.25,0h.21c.22,0,.41.19.58.58a2.51,2.51,0,0,1,.25.91,28.12,28.12,0,0,0-.33,3A.65.65,0,0,0,227,25a1.23,1.23,0,0,0,.41-.25,18.31,18.31,0,0,1,5.08-3.47A14.46,14.46,0,0,1,238.86,19.79Z"/><path class="cls-2" d="M277,19.79A15.32,15.32,0,0,1,284,21.32a13.07,13.07,0,0,1,4.79,3.88,19.21,19.21,0,0,1,2.64,4.87,14.24,14.24,0,0,1,.91,4.83q0,1.82-.62,2.27a4.69,4.69,0,0,1-2.52.45H269.43q-.58,0-.58.5a16.06,16.06,0,0,0,1.07,5.78,11.36,11.36,0,0,0,3.68,4.87,9.72,9.72,0,0,0,6.24,2.07,22.66,22.66,0,0,0,2.4-.12,12.37,12.37,0,0,0,2.15-.41q1-.29,1.73-.54a7.1,7.1,0,0,0,1.53-.74l1.12-.7q.33-.21,1.65-1.12a1.36,1.36,0,0,1,.41.5,1.6,1.6,0,0,1,.25.83,2.54,2.54,0,0,1-.5,1.57,13.46,13.46,0,0,1-4.87,4.46,15.33,15.33,0,0,1-8.18,2.23,16.73,16.73,0,0,1-12.39-5.33,17.82,17.82,0,0,1-5.2-12.93q0-8.34,4.83-13.55A16,16,0,0,1,277,19.79Zm-.58,3.8a5.84,5.84,0,0,0-3.55,1.16,7.79,7.79,0,0,0-2.4,2.81,15.79,15.79,0,0,0-1.2,3.1,10.11,10.11,0,0,0-.37,2.44c0,.39.17.58.5.58h13.38q.74,0,.74-1.24a10.71,10.71,0,0,0-1.94-5.87A5.92,5.92,0,0,0,276.45,23.59Z"/><path class="cls-2" d="M320.32,19.79q4.54,0,6.77,2.73,0,7-4,7a4.91,4.91,0,0,1-3.22-1.65,5.17,5.17,0,0,0-3.55-1.65,4.43,4.43,0,0,0-4,2.6,11,11,0,0,0-1.45,5.41V44.57a34.6,34.6,0,0,0,.58,7.44q.16.58,2.19,1.2a11.67,11.67,0,0,0,2.77.62c.17,0,.26.4.29,1.2a8.63,8.63,0,0,1,0,1.61q-.66-.08-4.38-.33t-5.62-.25q-2,0-5.74.25t-4.42.33a2.42,2.42,0,0,1-.33-1.57q0-1.24.33-1.24a11.52,11.52,0,0,0,3-.62q2-.62,2.19-1.2a27,27,0,0,0,.58-6V32.51q0-3.88-1.32-5.29A4,4,0,0,0,299.13,26a9.41,9.41,0,0,0-2-.5c-.52-.05-.78-.14-.78-.25q0-2.4.41-2.48a117.21,117.21,0,0,0,13.3-2.48,5,5,0,0,1,.66-.17c.22,0,.41.19.58.58a2,2,0,0,1,.21,1q0,.37-.12,1.16t-.21,1.65a10.5,10.5,0,0,0-.12,1.12,15.16,15.16,0,0,1,4-4A9.05,9.05,0,0,1,320.32,19.79Z"/><path class="cls-2" d="M349,19.79q5.12,0,7.68,2.69t2.56,9.21V48a3.76,3.76,0,0,0,.74,2.52,2.48,2.48,0,0,0,2,.87,5.15,5.15,0,0,0,2.81-1.07c.33.11.5.41.5.91a4.91,4.91,0,0,1-.5,2.48,20.43,20.43,0,0,1-3.3,2.07,8.61,8.61,0,0,1-4,1.07,6,6,0,0,1-3.72-1.41,6.77,6.77,0,0,1-2.4-3.06l-.62.54q-.54.46-1.49,1.12a24.48,24.48,0,0,1-2.15,1.32,13.17,13.17,0,0,1-2.81,1.12,12,12,0,0,1-3.26.45,9.86,9.86,0,0,1-6.73-2.27,7.85,7.85,0,0,1-2.6-6.24,7.61,7.61,0,0,1,1-3.72,9.88,9.88,0,0,1,2.27-2.85,16.93,16.93,0,0,1,3.55-2.19A33.8,33.8,0,0,1,342.34,38q1.61-.54,4.13-1.28T350,35.65a1.3,1.3,0,0,0,.74-1.32V29.78a7.09,7.09,0,0,0-1.32-4.54,4.31,4.31,0,0,0-3.55-1.65A5,5,0,0,0,342,25.12a6.18,6.18,0,0,0-1.4,4.34,2.68,2.68,0,0,1-1.24,2.44,5.14,5.14,0,0,1-2.81.78q-3.06,0-4.3-2,0-4,5.41-7.43A20.72,20.72,0,0,1,349,19.79Zm-3.72,31.72a6.4,6.4,0,0,0,3.84-1.16,3.27,3.27,0,0,0,1.61-2.64V39.28q-.58.25-2.44.83t-2.85,1a22.56,22.56,0,0,0-2.31,1.16,5,5,0,0,0-1.94,1.82,4.55,4.55,0,0,0-.62,2.31,5.09,5.09,0,0,0,1.32,3.88A4.75,4.75,0,0,0,345.27,51.51Z"/><path class="cls-2" d="M373.77,25.57h-5q-.58,0-.58-2.15a2.06,2.06,0,0,1,.08-.74,23.11,23.11,0,0,0,6.36-4.38q1.07-1.07,2.35-2.44t3-3.51a5.88,5.88,0,0,1,1.57.21c.5.14.74.29.74.46v8.1l6,0,4.09,0q.66,0,.66.74a8,8,0,0,1-.83,3.63h-9.91V45.48a7.84,7.84,0,0,0,1.4,5,4.72,4.72,0,0,0,3.88,1.74A7.79,7.79,0,0,0,389.3,52a8.76,8.76,0,0,0,1.49-.45q.58-.25,1.07-.5a2.59,2.59,0,0,1,.58-.25q.33-.08.74.74t.33,1.07q-.5,1.16-3.51,2.68a13,13,0,0,1-5.91,1.53,10.42,10.42,0,0,1-7.31-2.77q-3-2.77-3-8.55Z"/><path class="cls-2" d="M412.6,44.57a30.37,30.37,0,0,0,.66,7.44q.16.58,2.23,1.2a12.15,12.15,0,0,0,2.81.62c.22,0,.34.4.37,1.2a4.7,4.7,0,0,1-.12,1.61q-.58-.08-4.42-.33t-5.66-.25q-2.07,0-5.82.25t-4.34.33a2.42,2.42,0,0,1-.33-1.57q0-1.24.33-1.24a12,12,0,0,0,3-.62q2.06-.62,2.23-1.2a27,27,0,0,0,.58-6V32.51q0-3.88-1.32-5.29a4.6,4.6,0,0,0-1.9-1.24,8.68,8.68,0,0,0-2-.5c-.55-.05-.83-.14-.83-.25q0-2.4.5-2.48a63.43,63.43,0,0,0,6.69-1,64.84,64.84,0,0,0,6.53-1.49,4.81,4.81,0,0,0,.66-.17q.41,0,.66.58a1.52,1.52,0,0,1,.17.91,70.79,70.79,0,0,0-.66,7.1ZM404,10a5,5,0,0,1-1.49-3.63A4.89,4.89,0,0,1,404,2.77a5.12,5.12,0,0,1,8.76,3.59A5,5,0,0,1,411.28,10,5.09,5.09,0,0,1,404,10Z"/><path class="cls-2" d="M441.35,19.79a18.21,18.21,0,0,1,13.26,5.41,17.7,17.7,0,0,1,5.49,13.09,18.71,18.71,0,0,1-37.42,0,17.8,17.8,0,0,1,5.41-13.14A18.1,18.1,0,0,1,441.35,19.79Zm-1.07,3.88a6.65,6.65,0,0,0-6,3.76,17.76,17.76,0,0,0-2.15,9A24.08,24.08,0,0,0,434.78,48q2.68,5,7.48,5a6.73,6.73,0,0,0,6.07-3.8,17.57,17.57,0,0,0,2.19-8.92,28.36,28.36,0,0,0-1.07-8A14.57,14.57,0,0,0,446,26.15,7.66,7.66,0,0,0,440.28,23.67Z"/><path class="cls-2" d="M491.58,19.79q10.66,0,10.66,16.94v7.85a34.56,34.56,0,0,0,.58,7.44q.16.58,2.27,1.2a12.65,12.65,0,0,0,2.85.62c.17,0,.26.4.29,1.2a4.7,4.7,0,0,1-.12,1.61q-.5-.08-4.34-.33T498,56.05q-2,0-5.49.25t-4.25.33a2.42,2.42,0,0,1-.33-1.57q0-1.24.33-1.24a9.82,9.82,0,0,0,2.77-.62q1.86-.62,2-1.2a23.72,23.72,0,0,0,.66-6V38.13q0-6.86-1.86-9.58T486,25.82a7.65,7.65,0,0,0-4.63,1.45,4,4,0,0,0-2,3.1V44.57a34.56,34.56,0,0,0,.58,7.44q.16.58,2.19,1.2a11.88,11.88,0,0,0,2.69.62c.22,0,.34.4.37,1.2a4.68,4.68,0,0,1-.12,1.61q-.66-.08-4.34-.33t-5.58-.25q-2,0-5.74.25t-4.42.33a2.42,2.42,0,0,1-.33-1.57q0-1.24.33-1.24a11.52,11.52,0,0,0,3-.62q2-.62,2.19-1.2a27,27,0,0,0,.58-6V32.51q0-3.88-1.32-5.29A4,4,0,0,0,467.58,26a9.41,9.41,0,0,0-2-.5c-.52-.05-.78-.14-.78-.25q0-2.4.41-2.48a117.17,117.17,0,0,0,13.3-2.48.54.54,0,0,1,.21-.12.78.78,0,0,1,.25,0h.21c.22,0,.41.19.58.58a2.51,2.51,0,0,1,.25.91,28.12,28.12,0,0,0-.33,3,.65.65,0,0,0,.08.41,1.22,1.22,0,0,0,.41-.25,18.32,18.32,0,0,1,5.08-3.47A14.46,14.46,0,0,1,491.58,19.79Z"/><path class="cls-2" d="M69.84,80.78l17.35,43.29q1.24,3.3,2.48,6a4,4,0,0,0,2.64,2,11,11,0,0,0,3.14.74q.33,0,.33,1.49a2.78,2.78,0,0,1-.17,1.24q-9.91-.5-10.41-.5t-10.74.5a2.33,2.33,0,0,1-.33-1.53c0-.8.11-1.2.33-1.2a10.64,10.64,0,0,0,2.73-.5q1.74-.5,2.07-1.16a2.37,2.37,0,0,0,.25-1.07,19,19,0,0,0-1.57-5.7L75,116.71a.91.91,0,0,0-.58-.33q-2.64-.16-7.1-.17t-9.42.25c-.33,0-.5.11-.5.33l-3.14,7.68a23.45,23.45,0,0,0-1.57,5.37,1.84,1.84,0,0,0,.91,1.65,8.28,8.28,0,0,0,2.6.91,14.25,14.25,0,0,0,2.52.41q.25.08.25,1.16a5.43,5.43,0,0,1-.17,1.57q-.41,0-3.88-.25t-5.62-.25q-2.15,0-5.08.21l-4.17.29a1.76,1.76,0,0,1-.33-1.24q0-1.49.17-1.49a11.93,11.93,0,0,0,3.18-.7,5.09,5.09,0,0,0,2.77-1.61A39.26,39.26,0,0,0,49,124.07L64.38,86.89q1.9-5,3.06-5.95a2.11,2.11,0,0,1,1.4-.58A1.35,1.35,0,0,1,69.84,80.78Zm-9.91,30.73q2.89.25,5.95.25,2.89,0,6.77-.25l.17-.33L66.53,94.66l-6.77,16.52C59.76,111.4,59.81,111.51,59.92,111.51Z"/><path class="cls-2" d="M123.39,77.89a16.27,16.27,0,0,1,5.74.87,5.77,5.77,0,0,1,3,2.11,9.27,9.27,0,0,1-.45,4.58,3,3,0,0,1-3,2,3.22,3.22,0,0,1-2.52-1.36q-1.12-1.36-2.35-2.73A3.8,3.8,0,0,0,120.92,82a4.4,4.4,0,0,0-3.72,2.15,13.9,13.9,0,0,0-2.11,5.21,33.72,33.72,0,0,0-.62,6.69v3.8c0,.06.05.14.17.25a.47.47,0,0,0,.33.17h9.09a.66.66,0,0,1,.41.08.87.87,0,0,1,.08.5,8.49,8.49,0,0,1-1,3.8H115a.44.44,0,0,0-.5.5v18.42a31.6,31.6,0,0,0,.66,7.44q.16.58,2.19,1.2a11.67,11.67,0,0,0,2.77.62c.17,0,.26.4.29,1.2a4.67,4.67,0,0,1-.12,1.61q-.5-.08-4.3-.33t-5.78-.25q-2,0-5.62.25t-4.3.33a1.56,1.56,0,0,1-.33-.91,4.93,4.93,0,0,1,0-1.28c.05-.41.17-.62.33-.62a11.08,11.08,0,0,0,2.89-.62q2-.62,2.15-1.2a27.36,27.36,0,0,0,.74-6.77v-19c0-.38-.17-.58-.5-.58h-5c-.11,0-.17-.17-.17-.5a4.41,4.41,0,0,1,1.16-2.4,3.32,3.32,0,0,1,2.64-1.49h1.32a.44.44,0,0,0,.5-.5V99a22.47,22.47,0,0,1,5.16-14.87Q116.37,77.89,123.39,77.89Z"/><path class="cls-2" d="M133.47,104.57h-5q-.58,0-.58-2.15a2.06,2.06,0,0,1,.08-.74,23.11,23.11,0,0,0,6.36-4.38q1.07-1.07,2.35-2.44t3-3.51a5.88,5.88,0,0,1,1.57.21c.5.14.74.29.74.46v8.1l6,0,4.09,0q.66,0,.66.74a8,8,0,0,1-.83,3.63H142v19.91a7.84,7.84,0,0,0,1.4,5,4.72,4.72,0,0,0,3.88,1.74A7.79,7.79,0,0,0,149,131a8.76,8.76,0,0,0,1.49-.45q.58-.25,1.07-.5a2.59,2.59,0,0,1,.58-.25q.33-.08.74.74t.33,1.07q-.5,1.16-3.51,2.68a13,13,0,0,1-5.91,1.53,10.42,10.42,0,0,1-7.31-2.77q-3-2.77-3-8.55Z"/><path class="cls-2" d="M174.53,98.79a15.31,15.31,0,0,1,6.94,1.53,13.07,13.07,0,0,1,4.79,3.88,19.21,19.21,0,0,1,2.64,4.87,14.24,14.24,0,0,1,.91,4.83q0,1.82-.62,2.27a4.69,4.69,0,0,1-2.52.45H166.93q-.58,0-.58.5a16.06,16.06,0,0,0,1.07,5.78,11.36,11.36,0,0,0,3.68,4.87,9.72,9.72,0,0,0,6.24,2.07,22.66,22.66,0,0,0,2.4-.12,12.37,12.37,0,0,0,2.15-.41q1-.29,1.73-.54a7.09,7.09,0,0,0,1.53-.74l1.12-.7q.33-.21,1.65-1.12a1.36,1.36,0,0,1,.41.5,1.6,1.6,0,0,1,.25.83,2.54,2.54,0,0,1-.5,1.57,13.45,13.45,0,0,1-4.87,4.46A15.33,15.33,0,0,1,175,135.8a16.73,16.73,0,0,1-12.39-5.33,17.82,17.82,0,0,1-5.2-12.93q0-8.34,4.83-13.55A16,16,0,0,1,174.53,98.79Zm-.58,3.8a5.84,5.84,0,0,0-3.55,1.16,7.79,7.79,0,0,0-2.4,2.81,15.76,15.76,0,0,0-1.2,3.1,10.08,10.08,0,0,0-.37,2.44c0,.39.17.58.5.58h13.38q.74,0,.74-1.24a10.71,10.71,0,0,0-1.94-5.87A5.92,5.92,0,0,0,174,102.59Z"/><path class="cls-2" d="M217.82,98.79q4.54,0,6.77,2.73,0,7-4,7a4.92,4.92,0,0,1-3.22-1.65,5.17,5.17,0,0,0-3.55-1.65,4.43,4.43,0,0,0-4,2.6,11,11,0,0,0-1.45,5.41v10.33A34.56,34.56,0,0,0,209,131q.16.58,2.19,1.2a11.68,11.68,0,0,0,2.77.62c.17,0,.26.4.29,1.2a8.6,8.6,0,0,1,0,1.61q-.66-.08-4.38-.33t-5.62-.25q-2,0-5.74.25t-4.42.33a2.42,2.42,0,0,1-.33-1.57q0-1.24.33-1.24a11.52,11.52,0,0,0,3-.62q2-.62,2.19-1.2a27,27,0,0,0,.58-6V111.51q0-3.88-1.32-5.29a4,4,0,0,0-1.86-1.24,9.41,9.41,0,0,0-2-.5c-.52-.05-.78-.14-.78-.25q0-2.4.41-2.48a117.17,117.17,0,0,0,13.3-2.48,5,5,0,0,1,.66-.17c.22,0,.41.19.58.58a2,2,0,0,1,.21,1q0,.37-.12,1.16t-.21,1.65a10.64,10.64,0,0,0-.12,1.12,15.17,15.17,0,0,1,4-4A9.05,9.05,0,0,1,217.82,98.79Z"/><rect class="cls-3" x="363.44" y="62.51" width="208.25" height="35.17" rx="17.58" ry="17.58" transform="translate(32.93 -109.98) rotate(13.9)"/><path class="cls-1" d="M405.49,55.73,404,61.86l6.41,1.59,1.52-6.14,2.67.66-3.64,14.7L408.26,72l1.54-6.23-6.41-1.59-1.54,6.23-2.67-.66,3.64-14.7Z"/><path class="cls-1" d="M420.38,68.18a13.13,13.13,0,0,1,2.93,1.18l.27-1.09a2.71,2.71,0,0,0,0-1.82,1.93,1.93,0,0,0-1.38-.93,2.77,2.77,0,0,0-1.72,0,1.43,1.43,0,0,0-.86,1l-2.92-.72a3.06,3.06,0,0,1,2-2.39,7.12,7.12,0,0,1,3.91.08q3.4.84,3.8,3.46a5.14,5.14,0,0,1-.14,2l-1.73,7-2.33-.58.16-1.52a3.64,3.64,0,0,1-3.7,1,5,5,0,0,1-3-1.86,3.37,3.37,0,0,1-.46-2.79,2.77,2.77,0,0,1,1.78-2.06A5.89,5.89,0,0,1,420.38,68.18Zm2.51,2.88a9.84,9.84,0,0,0-2.4-1q-2.17-.54-2.53.91a1.4,1.4,0,0,0,.24,1.18,2.45,2.45,0,0,0,1.49.84,2.49,2.49,0,0,0,2-.29A2.8,2.8,0,0,0,422.89,71.06Z"/><path class="cls-1" d="M433.25,68.82q1.58-2.13,3.58-1.64a4,4,0,0,1,.93.4l-.71,2.66a6.08,6.08,0,0,0-1.21-.44q-2.67-.66-3.59,3l-1.19,4.82L428.39,77l2.73-11,2.67.66Z"/><path class="cls-1" d="M442.67,71.15q1.58-2.13,3.58-1.64a4,4,0,0,1,.93.4l-.71,2.66a6.08,6.08,0,0,0-1.21-.44q-2.67-.66-3.59,3L440.48,80l-2.67-.66,2.73-11,2.67.66Z"/><path class="cls-1" d="M450.74,67.07a1.57,1.57,0,0,1,.71-1,2,2,0,0,1,2.43.6,1.75,1.75,0,0,1-.57,2.29,2,2,0,0,1-2.43-.6A1.57,1.57,0,0,1,450.74,67.07Zm-.56,3.61,2.67.66-2.73,11-2.67-.66Z"/><path class="cls-1" d="M457,80.51q-.34,1.57,1.9,2.13a2.56,2.56,0,0,0,1.51,0,1.09,1.09,0,0,0,.77-.73A1,1,0,0,0,461,81a3.43,3.43,0,0,0-.94-.76l-2.19-1.45q-2.44-1.59-1.92-3.7a2.68,2.68,0,0,1,1.81-1.94,6.12,6.12,0,0,1,3.58,0,5.21,5.21,0,0,1,3,1.74,3.11,3.11,0,0,1,.61,2.63l-2.51-.62a1.14,1.14,0,0,0-.31-1,2.52,2.52,0,0,0-1.28-.65,2.38,2.38,0,0,0-1.46,0,1,1,0,0,0-.69.68q-.2.79,1,1.51l2.36,1.62a5.32,5.32,0,0,1,1.71,1.59,2.37,2.37,0,0,1,.26,1.9,3,3,0,0,1-1.87,2,5.76,5.76,0,0,1-3.79.17,6.09,6.09,0,0,1-3.29-1.84,3.29,3.29,0,0,1-.69-3Z"/><path class="cls-1" d="M476,73.16l5.93,1.47a5.78,5.78,0,0,1,3.5,2.09,3.52,3.52,0,0,1,.59,3.05,3.45,3.45,0,0,1-1.22,2,3.79,3.79,0,0,1-2.24.77,3.87,3.87,0,0,1,1.78,1.63,3.23,3.23,0,0,1,.26,2.43,3.81,3.81,0,0,1-3.61,3,8,8,0,0,1-2.67-.28l-6-1.47ZM477.09,80l3.15.78a2.81,2.81,0,0,0,1.94-.07,1.82,1.82,0,0,0,1-1.26,1.87,1.87,0,0,0-.25-1.57,2.73,2.73,0,0,0-1.67-1l-3.17-.78Zm1.69,7a2.83,2.83,0,0,0,2-.06,2,2,0,0,0,.66-2.78,2.81,2.81,0,0,0-1.71-1l-3.22-.8-.95,3.83Z"/><path class="cls-1" d="M492.21,86a13.13,13.13,0,0,1,2.93,1.18l.27-1.09a2.71,2.71,0,0,0,0-1.82A1.93,1.93,0,0,0,494,83.3a2.77,2.77,0,0,0-1.72,0,1.43,1.43,0,0,0-.86,1l-2.92-.72a3.06,3.06,0,0,1,2-2.39,7.12,7.12,0,0,1,3.91.08q3.4.84,3.8,3.46a5.14,5.14,0,0,1-.14,2l-1.73,7L494,93.22l.16-1.52a3.64,3.64,0,0,1-3.7,1,5,5,0,0,1-3-1.86,3.37,3.37,0,0,1-.46-2.79A2.77,2.77,0,0,1,488.72,86,5.89,5.89,0,0,1,492.21,86Zm2.51,2.88a9.84,9.84,0,0,0-2.4-1q-2.17-.54-2.53.91a1.4,1.4,0,0,0,.24,1.18,2.45,2.45,0,0,0,1.49.84,2.49,2.49,0,0,0,2-.29A2.8,2.8,0,0,0,494.71,88.84Z"/><path class="cls-1" d="M508,94.58a3.59,3.59,0,0,1-3.9,1.37q-2.92-.72-3.28-3.24a5,5,0,0,1,.14-2l1.74-7,2.67.66-1.67,6.75a2.3,2.3,0,0,0,.12,1.75,1.77,1.77,0,0,0,1.15.85,3.46,3.46,0,0,0,1.33.1,2.55,2.55,0,0,0,1.07-.42A4.16,4.16,0,0,0,508.92,91l1.34-5.43,2.67.66-2.73,11-2.67-.66Z"/><path class="cls-1" d="M524.92,92.37a6.34,6.34,0,0,1-.15,1.81,10.45,10.45,0,0,1-.44,1.4l-7.11-1.76a3.94,3.94,0,0,0,.12,2.34,2.21,2.21,0,0,0,1.65,1.3,1.82,1.82,0,0,0,2.33-1l2.69.67a4.07,4.07,0,0,1-2.16,2.23,5.14,5.14,0,0,1-3.39.22,4.92,4.92,0,0,1-3.25-2.49,6.2,6.2,0,0,1-.47-4.61,6.13,6.13,0,0,1,2.57-3.88,4.94,4.94,0,0,1,4-.64,4.4,4.4,0,0,1,3.16,2.49A5.18,5.18,0,0,1,524.92,92.37Zm-4.1-2.24a2.27,2.27,0,0,0-1.95.3,3.41,3.41,0,0,0-1.21,1.71l4.69,1.16a2.55,2.55,0,0,0-.54-2.68A2.28,2.28,0,0,0,520.83,90.13Z"/><path class="cls-1" d="M531.27,93.08q1.58-2.13,3.58-1.64a4,4,0,0,1,.93.4l-.71,2.66a6.08,6.08,0,0,0-1.21-.44q-2.67-.66-3.59,3l-1.19,4.82-2.67-.66,2.73-11,2.67.66Z"/></svg>