<svg id="Layer_1" data-name="Layer 1" xmlns="http://www.w3.org/2000/svg" viewBox="0 0 629.92 79.62"><defs><style>.cls-1{fill:#1414ef;}.cls-2{fill:#fff;stroke:#1414ef;stroke-miterlimit:10;}</style></defs><title>title</title><path class="cls-1" d="M47.37,51.18A27.64,27.64,0,0,1,39.6,31.44a27.78,27.78,0,0,1,7.77-19.79,25.36,25.36,0,0,1,37.38,0,27.71,27.71,0,0,1,7.81,19.79,27.56,27.56,0,0,1-7.81,19.75,25.45,25.45,0,0,1-37.38,0ZM64.8,7.48q-7.11,0-10.86,6.48a30.72,30.72,0,0,0-3.76,15.66,40.69,40.69,0,0,0,1.69,11.81,23,23,0,0,0,5.74,9.71,13.22,13.22,0,0,0,9.75,4.09q7,0,10.86-6.57A30.47,30.47,0,0,0,82.07,33a41.84,41.84,0,0,0-1.65-11.94,22.11,22.11,0,0,0-5.7-9.58A13.56,13.56,0,0,0,64.8,7.48Z"/><path class="cls-1" d="M124,22Q134.69,22,134.69,39V46.8a34.58,34.58,0,0,0,.58,7.44q.16.58,2.27,1.2a12.65,12.65,0,0,0,2.85.62c.17,0,.26.4.29,1.2a4.68,4.68,0,0,1-.12,1.61q-.5-.08-4.34-.33t-5.74-.25q-2,0-5.49.25t-4.25.33a2.42,2.42,0,0,1-.33-1.57q0-1.24.33-1.24a9.82,9.82,0,0,0,2.77-.62q1.86-.62,2-1.2a23.73,23.73,0,0,0,.66-6V40.36q0-6.86-1.86-9.58T118.42,28a7.65,7.65,0,0,0-4.63,1.45,4,4,0,0,0-2,3.1V46.8a34.58,34.58,0,0,0,.58,7.44q.16.58,2.19,1.2a11.88,11.88,0,0,0,2.69.62c.22,0,.34.4.37,1.2a4.69,4.69,0,0,1-.12,1.61q-.66-.08-4.34-.33t-5.58-.25q-2,0-5.74.25t-4.42.33a2.42,2.42,0,0,1-.33-1.57q0-1.24.33-1.24a11.52,11.52,0,0,0,3-.62q2-.62,2.19-1.2a27,27,0,0,0,.58-6V34.74q0-3.88-1.32-5.29A4,4,0,0,0,100,28.21a9.41,9.41,0,0,0-2-.5c-.52-.05-.78-.14-.78-.25q0-2.4.41-2.48A117.19,117.19,0,0,0,111,22.51a.54.54,0,0,1,.21-.12.79.79,0,0,1,.25,0h.21c.22,0,.41.19.58.58a2.51,2.51,0,0,1,.25.91,28.15,28.15,0,0,0-.33,3,.65.65,0,0,0,.08.41,1.23,1.23,0,0,0,.41-.25,18.32,18.32,0,0,1,5.08-3.47A14.46,14.46,0,0,1,124,22Z"/><path class="cls-1" d="M163.44,18.05a13,13,0,0,1,5.2-10.45,18.05,18.05,0,0,1,11.73-4.25,28.87,28.87,0,0,1,4,.25q1.74.25,4.83,1t4.25,1a73.7,73.7,0,0,1,1,12.72.9.9,0,0,1-1,.74q-2.23,0-2.4-.74a14.52,14.52,0,0,0-3.55-7.43,9.38,9.38,0,0,0-7.44-3.64,7.62,7.62,0,0,0-5.82,2.15,8.09,8.09,0,0,0-2,5.78,9.31,9.31,0,0,0,.29,2.35,5.82,5.82,0,0,0,1.16,2.19q.87,1.08,1.4,1.78a9.8,9.8,0,0,0,2.07,1.78q1.53,1.08,2.07,1.49t2.48,1.61a24.9,24.9,0,0,0,2.35,1.36,30.37,30.37,0,0,0,2.77,1.78q2.27,1.36,3.18,2t2.64,2.11a11.91,11.91,0,0,1,2.52,2.81,17,17,0,0,1,1.45,3.35,13.91,13.91,0,0,1,.66,4.34A13.41,13.41,0,0,1,192,55.06a19.11,19.11,0,0,1-12.35,4.3q-5,0-15.2-2.31a72.22,72.22,0,0,1-1.36-7.48,56,56,0,0,1-.62-5.91q.08-.66,1.32-.66,2.15,0,2.4.66a16.06,16.06,0,0,0,1.16,3.26,24,24,0,0,0,2.27,3.8,10.89,10.89,0,0,0,3.88,3.3A11.62,11.62,0,0,0,179,55.31,9.25,9.25,0,0,0,185.42,53Q188,50.69,188,46.06a7.19,7.19,0,0,0-.54-2.73,9.54,9.54,0,0,0-1.24-2.23,12.09,12.09,0,0,0-2.07-2q-1.36-1.07-2.27-1.65t-2.68-1.61l-2.52-1.45a5.67,5.67,0,0,0-.91-.66q-2.4-1.49-3.64-2.31A39.85,39.85,0,0,1,168.93,29,16.34,16.34,0,0,1,166,26a15.62,15.62,0,0,1-1.78-3.47A12.43,12.43,0,0,1,163.44,18.05Z"/><path class="cls-1" d="M219,22q5.12,0,7.68,2.69t2.56,9.21V50.19a3.77,3.77,0,0,0,.74,2.52,2.48,2.48,0,0,0,2,.87,5.15,5.15,0,0,0,2.81-1.07c.33.11.5.41.5.91a4.91,4.91,0,0,1-.5,2.48,20.44,20.44,0,0,1-3.3,2.07,8.61,8.61,0,0,1-4,1.07,6,6,0,0,1-3.72-1.41,6.77,6.77,0,0,1-2.4-3.06l-.62.54q-.54.46-1.49,1.12a24.47,24.47,0,0,1-2.15,1.32,13.18,13.18,0,0,1-2.81,1.12,12,12,0,0,1-3.26.45,9.86,9.86,0,0,1-6.73-2.27,7.85,7.85,0,0,1-2.6-6.24,7.61,7.61,0,0,1,.95-3.72A9.88,9.88,0,0,1,205,44a16.92,16.92,0,0,1,3.55-2.19,33.8,33.8,0,0,1,3.84-1.61Q214,39.7,216.52,39T220,37.88a1.3,1.3,0,0,0,.74-1.32V32a7.09,7.09,0,0,0-1.32-4.54,4.31,4.31,0,0,0-3.55-1.65A5,5,0,0,0,212,27.35a6.18,6.18,0,0,0-1.4,4.34,2.68,2.68,0,0,1-1.24,2.44,5.14,5.14,0,0,1-2.81.78q-3.06,0-4.3-2,0-4,5.41-7.43A20.72,20.72,0,0,1,219,22Zm-3.72,31.72a6.4,6.4,0,0,0,3.84-1.16,3.27,3.27,0,0,0,1.61-2.64V41.52q-.58.25-2.44.83t-2.85,1a22.54,22.54,0,0,0-2.31,1.16,5,5,0,0,0-1.94,1.82,4.55,4.55,0,0,0-.62,2.31,5.09,5.09,0,0,0,1.32,3.88A4.75,4.75,0,0,0,215.32,53.74Z"/><path class="cls-1" d="M253.41,46.64a33.88,33.88,0,0,0,.58,7.44q.16.58,2,1.28a9,9,0,0,0,2.52.7c.17,0,.26.39.29,1.16a4.5,4.5,0,0,1-.12,1.57l-3.1-.21-3.51-.21q-1.57-.08-3-.08-1.57,0-3.14.08l-3.47.21-3.14.21a2.33,2.33,0,0,1-.33-1.53c0-.8.11-1.2.33-1.2a8.83,8.83,0,0,0,2.77-.7q1.86-.7,2-1.28a27.4,27.4,0,0,0,.66-6.11V13.59a28.8,28.8,0,0,0-.5-5.62q-.41-1.32-4.13-1.32h-.83q-.5,0-.5-1,0-1.32.5-1.32,2.56-.25,4.87-.66t3.84-.83q1.53-.41,2.64-.78t1.78-.62l.58-.25h.17c.22,0,.45.17.7.5a2.53,2.53,0,0,1,.45.83,26.11,26.11,0,0,0-1,7.77Z"/><path class="cls-1" d="M290.42,22a8.92,8.92,0,0,1,5.37,1.61,9.66,9.66,0,0,1,3.3,4.17,19.48,19.48,0,0,1,6-4.13A18.56,18.56,0,0,1,312.89,22,9.38,9.38,0,0,1,318,23.34a9.12,9.12,0,0,1,3.3,3.68A19.44,19.44,0,0,1,323,32.14a31.48,31.48,0,0,1,.54,6V46.8a34.58,34.58,0,0,0,.58,7.44q.16.58,2.23,1.2a12.15,12.15,0,0,0,2.81.62c.17,0,.26.4.29,1.2a4.68,4.68,0,0,1-.12,1.61q-.58-.08-4.34-.33t-5.66-.25q-2,0-5.66.25t-4.42.33a3.08,3.08,0,0,1-.25-1.57q0-1.24.25-1.24a11.09,11.09,0,0,0,3-.62q2-.62,2.15-1.2a25.71,25.71,0,0,0,.58-5.78V40q0-12-7.68-12a7.52,7.52,0,0,0-4.54,1.32,5.15,5.15,0,0,0-2.15,2.56c0,.17,0,.39,0,.66a1.61,1.61,0,0,0,0,.66,40.4,40.4,0,0,1,.25,5.12v8.76a32.49,32.49,0,0,0,.58,7.1q.16.58,2.23,1.2a12.15,12.15,0,0,0,2.81.62c.17,0,.26.4.29,1.2a4.69,4.69,0,0,1-.12,1.61q-.58-.08-4.34-.33t-5.66-.25q-2,0-5.66.25t-4.42.33a3.08,3.08,0,0,1-.25-1.57q0-1.24.25-1.24a11.09,11.09,0,0,0,3-.62q2-.62,2.15-1.2a27,27,0,0,0,.58-6V40.28q0-6.44-1.9-9.33A6.29,6.29,0,0,0,284.72,28a7.91,7.91,0,0,0-4.54,1.4,3.9,3.9,0,0,0-2.07,3.14V46.8a30.37,30.37,0,0,0,.66,7.44q.16.58,2.15,1.2a11.21,11.21,0,0,0,2.73.62c.22,0,.34.4.37,1.2a4.69,4.69,0,0,1-.12,1.61q-.66-.08-4.34-.33T274,58.29q-2.07,0-5.78.25t-4.38.33a2.42,2.42,0,0,1-.33-1.57q0-1.24.33-1.24a12,12,0,0,0,3-.62q2.06-.62,2.23-1.2a27,27,0,0,0,.58-6V34.74q0-3.88-1.32-5.29a4,4,0,0,0-1.86-1.24,9.31,9.31,0,0,0-2-.5c-.55-.05-.83-.14-.83-.25q0-2.4.5-2.48a114.56,114.56,0,0,0,13.22-2.48.53.53,0,0,1,.25-.12,1.75,1.75,0,0,1,.41,0q.41,0,.66.58a1.52,1.52,0,0,1,.17.91,28.17,28.17,0,0,0-.33,3c0,.22.05.36.17.41A1.23,1.23,0,0,0,279,27a18.32,18.32,0,0,1,5.08-3.47A14.46,14.46,0,0,1,290.42,22Z"/><path class="cls-1" d="M350.48,22q5.12,0,7.68,2.69t2.56,9.21V50.19a3.77,3.77,0,0,0,.74,2.52,2.48,2.48,0,0,0,2,.87,5.15,5.15,0,0,0,2.81-1.07c.33.11.5.41.5.91a4.91,4.91,0,0,1-.5,2.48A20.44,20.44,0,0,1,363,58,8.61,8.61,0,0,1,359,59a6,6,0,0,1-3.72-1.41,6.77,6.77,0,0,1-2.4-3.06l-.62.54q-.54.46-1.49,1.12a24.47,24.47,0,0,1-2.15,1.32,13.18,13.18,0,0,1-2.81,1.12,12,12,0,0,1-3.26.45,9.86,9.86,0,0,1-6.73-2.27,7.85,7.85,0,0,1-2.6-6.24,7.61,7.61,0,0,1,.95-3.72A9.88,9.88,0,0,1,336.43,44,16.92,16.92,0,0,1,340,41.85a33.8,33.8,0,0,1,3.84-1.61Q345.44,39.7,348,39t3.51-1.07a1.3,1.3,0,0,0,.74-1.32V32a7.09,7.09,0,0,0-1.32-4.54,4.31,4.31,0,0,0-3.55-1.65,5,5,0,0,0-3.88,1.53,6.18,6.18,0,0,0-1.4,4.34,2.68,2.68,0,0,1-1.24,2.44,5.14,5.14,0,0,1-2.81.78q-3.06,0-4.3-2,0-4,5.41-7.43A20.72,20.72,0,0,1,350.48,22Zm-3.72,31.72a6.4,6.4,0,0,0,3.84-1.16,3.27,3.27,0,0,0,1.61-2.64V41.52q-.58.25-2.44.83t-2.85,1a22.54,22.54,0,0,0-2.31,1.16,5,5,0,0,0-1.94,1.82,4.55,4.55,0,0,0-.62,2.31,5.09,5.09,0,0,0,1.32,3.88A4.75,4.75,0,0,0,346.76,53.74Z"/><path class="cls-1" d="M12.25,6.63h8.84V8.06L15,19.69H13L19,8.21H12.25Z"/><path class="cls-2" d="M488.06,44.06,362.42,33.86a13.66,13.66,0,0,1-12.48-14.74h0A13.66,13.66,0,0,1,364.67,6.64L490.32,16.84A13.66,13.66,0,0,1,502.8,31.58h0A13.66,13.66,0,0,1,488.06,44.06Z"/><path class="cls-1" d="M385.75,18.94a3.32,3.32,0,0,1-.88,2.07,3.67,3.67,0,0,1-2.12,1.06l2.74,5-2.77-.23-2.19-4.77-1.62-.14-.38,4.56-2.12-.18,1-11.69,4.32.36a4.81,4.81,0,0,1,3.14,1.26A3.22,3.22,0,0,1,385.75,18.94ZM381,20.68a2.58,2.58,0,0,0,1.81-.38,1.8,1.8,0,0,0,.71-1.35,1.89,1.89,0,0,0-.42-1.45,2.23,2.23,0,0,0-1.58-.67l-2.2-.18L379,20.51Z"/><path class="cls-1" d="M391.29,22.41a10.15,10.15,0,0,1,2.38.54l.07-.86a2.1,2.1,0,0,0-.26-1.39,1.5,1.5,0,0,0-1.17-.54,2.14,2.14,0,0,0-1.32.23,1.11,1.11,0,0,0-.53.91l-2.32-.19A2.37,2.37,0,0,1,389.39,19a5.52,5.52,0,0,1,3-.42q2.7.23,3.34,2.18a4,4,0,0,1,.14,1.55l-.46,5.56-1.85-.15-.06-1.18a2.82,2.82,0,0,1-2.71,1.21,3.85,3.85,0,0,1-2.56-1,2.61,2.61,0,0,1-.7-2.08,2.15,2.15,0,0,1,1.11-1.79A4.56,4.56,0,0,1,391.29,22.41Zm2.27,1.89a7.64,7.64,0,0,0-2-.45q-1.73-.14-1.82,1a1.09,1.09,0,0,0,.33.87,1.89,1.89,0,0,0,1.24.46,1.93,1.93,0,0,0,1.49-.46A2.17,2.17,0,0,0,393.57,24.3Z"/><path class="cls-1" d="M406.87,21.71A3,3,0,0,1,410,20.07a3,3,0,0,1,2.34,1.27,4.32,4.32,0,0,1,.59,2.88l-.43,5.11-2.14-.18L410.8,24a2.07,2.07,0,0,0-.35-1.51,1.73,1.73,0,0,0-1.27-.61,1.65,1.65,0,0,0-1.45.62,4,4,0,0,0-.76,2.18l-.34,4.11-2.12-.18.43-5.11a2.07,2.07,0,0,0-.35-1.51,1.73,1.73,0,0,0-1.27-.61,1.81,1.81,0,0,0-1.51.64,3.75,3.75,0,0,0-.83,2.22l-.34,4.05-2.12-.18.73-8.75,1.85.15.11,1.53a2.9,2.9,0,0,1,2.92-1.52,3.15,3.15,0,0,1,1.79.66A3,3,0,0,1,406.87,21.71Z"/><path class="cls-1" d="M416.48,18a1.22,1.22,0,0,1,.42-.88,1.58,1.58,0,0,1,1.94.16,1.36,1.36,0,0,1-.15,1.82,1.58,1.58,0,0,1-1.94-.16A1.22,1.22,0,0,1,416.48,18Zm0,2.83,2.12.18-.73,8.77-2.12-.18Z"/><path class="cls-1" d="M429.17,19l-.4,4.81,5-4.42,2.92.24-5.59,4.83,5,6.89-2.76-.23-3.75-5.3-1,.89-.33,4-2.14-.18,1-11.69Z"/><path class="cls-1" d="M441.13,26.57a10.15,10.15,0,0,1,2.38.54l.07-.86a2.1,2.1,0,0,0-.26-1.39,1.5,1.5,0,0,0-1.17-.54,2.14,2.14,0,0,0-1.32.23,1.11,1.11,0,0,0-.53.91L438,25.26a2.37,2.37,0,0,1,1.23-2.07,5.52,5.52,0,0,1,3-.42q2.7.23,3.34,2.18a4,4,0,0,1,.14,1.55l-.46,5.56-1.85-.15-.06-1.18a2.82,2.82,0,0,1-2.71,1.21,3.85,3.85,0,0,1-2.56-1,2.61,2.61,0,0,1-.7-2.08A2.15,2.15,0,0,1,438.47,27,4.56,4.56,0,0,1,441.13,26.57Zm2.27,1.89a7.64,7.64,0,0,0-2-.45q-1.73-.14-1.82,1a1.09,1.09,0,0,0,.33.87,1.89,1.89,0,0,0,1.24.46,1.93,1.93,0,0,0,1.49-.46A2.17,2.17,0,0,0,443.41,28.46Z"/><path class="cls-1" d="M451.05,25.48a2.58,2.58,0,0,1,2.53-1.69,3.12,3.12,0,0,1,.76.19l-.21,2.12a4.74,4.74,0,0,0-1-.19q-2.12-.18-2.37,2.76l-.32,3.84-2.12-.18.73-8.77,2.12.18Z"/><path class="cls-1" d="M456.73,21.36a1.22,1.22,0,0,1,.42-.88,1.58,1.58,0,0,1,1.94.16,1.36,1.36,0,0,1-.15,1.82A1.58,1.58,0,0,1,457,22.3,1.22,1.22,0,0,1,456.73,21.36Zm0,2.83,2.12.18-.73,8.77L456,33Z"/><path class="cls-1" d="M470.11,27a3,3,0,0,1,3.13-1.64,3,3,0,0,1,2.34,1.27,4.32,4.32,0,0,1,.59,2.88l-.43,5.11-2.14-.18.43-5.11a2.07,2.07,0,0,0-.35-1.51,1.73,1.73,0,0,0-1.27-.61,1.65,1.65,0,0,0-1.45.62A4,4,0,0,0,470.2,30l-.34,4.11-2.12-.18.43-5.11a2.07,2.07,0,0,0-.35-1.51,1.73,1.73,0,0,0-1.27-.61,1.81,1.81,0,0,0-1.51.64,3.75,3.75,0,0,0-.83,2.22l-.34,4.05-2.12-.18.73-8.75,1.85.15.11,1.53a2.9,2.9,0,0,1,2.92-1.52,3.15,3.15,0,0,1,1.79.66A3,3,0,0,1,470.11,27Z"/></svg>