<svg id="Layer_1" data-name="Layer 1" xmlns="http://www.w3.org/2000/svg" viewBox="0 0 629.53 156.47"><defs><style>.cls-1{fill:#1414ef;}.cls-2{fill:#fff;stroke:#1414ef;stroke-miterlimit:10;}</style></defs><title>title--narrow-hover</title><path class="cls-1" d="M10,16v1.57H1.48V16.13L6,11.2A7.76,7.76,0,0,0,7.24,9.48a3.42,3.42,0,0,0,.39-1.54,1.94,1.94,0,0,0-.57-1.52A2.38,2.38,0,0,0,5.41,5.9,5.82,5.82,0,0,0,1.78,7.33L1.11,5.92a5.63,5.63,0,0,1,2-1.15,7,7,0,0,1,2.39-.43,4.4,4.4,0,0,1,3,.94A3.16,3.16,0,0,1,9.52,7.81,4.9,4.9,0,0,1,9,10a10,10,0,0,1-1.64,2.28L3.89,16Z"/><path class="cls-1" d="M13.2,16A8.62,8.62,0,0,1,12,11a8.67,8.67,0,0,1,1.19-5,4,4,0,0,1,3.47-1.71,4,4,0,0,1,3.47,1.7,8.62,8.62,0,0,1,1.19,5,8.66,8.66,0,0,1-1.19,5,4,4,0,0,1-3.47,1.7A4,4,0,0,1,13.2,16Zm5.57-1.08A8.64,8.64,0,0,0,19.43,11a8.54,8.54,0,0,0-.67-3.88A2.22,2.22,0,0,0,16.67,5.9a2.22,2.22,0,0,0-2.09,1.23A8.54,8.54,0,0,0,13.91,11a8.67,8.67,0,0,0,.67,3.9,2.21,2.21,0,0,0,2.09,1.25A2.22,2.22,0,0,0,18.76,14.93Z"/><path class="cls-1" d="M40.71,15.91A13,13,0,0,1,45.92,5.45,18.05,18.05,0,0,1,57.65,1.2a28.87,28.87,0,0,1,4,.25q1.74.25,4.83,1t4.25,1a73.67,73.67,0,0,1,1,12.72.9.9,0,0,1-1,.74q-2.23,0-2.4-.74A14.52,14.52,0,0,0,64.84,8.8,9.38,9.38,0,0,0,57.4,5.17a7.62,7.62,0,0,0-5.82,2.15,8.09,8.09,0,0,0-2,5.78,9.32,9.32,0,0,0,.29,2.35A5.81,5.81,0,0,0,51,17.64q.87,1.08,1.4,1.78a9.8,9.8,0,0,0,2.07,1.78q1.53,1.08,2.06,1.49T59,24.29a25,25,0,0,0,2.35,1.36,30.41,30.41,0,0,0,2.77,1.78q2.27,1.36,3.18,2A33.75,33.75,0,0,1,70,31.52a11.9,11.9,0,0,1,2.52,2.81,17,17,0,0,1,1.45,3.35A13.92,13.92,0,0,1,74.59,42a13.41,13.41,0,0,1-5.33,10.91,19.11,19.11,0,0,1-12.35,4.3q-5,0-15.2-2.31a72.36,72.36,0,0,1-1.36-7.48,56,56,0,0,1-.62-5.91q.08-.66,1.32-.66,2.15,0,2.4.66a16.07,16.07,0,0,0,1.16,3.26,24,24,0,0,0,2.27,3.8,10.89,10.89,0,0,0,3.88,3.3,11.62,11.62,0,0,0,5.49,1.28,9.25,9.25,0,0,0,6.44-2.31q2.56-2.31,2.56-6.94a7.19,7.19,0,0,0-.54-2.73A9.53,9.53,0,0,0,63.47,39a12.09,12.09,0,0,0-2.07-2Q60,35.9,59.14,35.32t-2.68-1.61l-2.52-1.45A5.67,5.67,0,0,0,53,31.6q-2.4-1.49-3.63-2.31a39.76,39.76,0,0,1-3.18-2.44,16.33,16.33,0,0,1-2.93-3,15.6,15.6,0,0,1-1.78-3.47A12.42,12.42,0,0,1,40.71,15.91Z"/><path class="cls-1" d="M96.31,19.87q5.12,0,7.68,2.69t2.56,9.21V48a3.77,3.77,0,0,0,.74,2.52,2.48,2.48,0,0,0,2,.87,5.15,5.15,0,0,0,2.81-1.07c.33.11.5.41.5.91a4.91,4.91,0,0,1-.5,2.48,20.43,20.43,0,0,1-3.3,2.07,8.61,8.61,0,0,1-4,1.07,6,6,0,0,1-3.72-1.41,6.78,6.78,0,0,1-2.4-3.06l-.62.54q-.54.46-1.49,1.12a24.47,24.47,0,0,1-2.15,1.32,13.18,13.18,0,0,1-2.81,1.12,12,12,0,0,1-3.26.45,9.86,9.86,0,0,1-6.73-2.27A7.85,7.85,0,0,1,79,48.46,7.61,7.61,0,0,1,80,44.74a9.87,9.87,0,0,1,2.27-2.85,16.92,16.92,0,0,1,3.55-2.19,33.8,33.8,0,0,1,3.84-1.61q1.61-.54,4.13-1.28t3.51-1.07A1.3,1.3,0,0,0,98,34.41V29.87a7.09,7.09,0,0,0-1.32-4.54,4.31,4.31,0,0,0-3.55-1.65,5,5,0,0,0-3.88,1.53,6.18,6.18,0,0,0-1.4,4.34A2.68,2.68,0,0,1,86.65,32a5.14,5.14,0,0,1-2.81.78q-3.06,0-4.3-2,0-4,5.41-7.43A20.72,20.72,0,0,1,96.31,19.87ZM92.59,51.59a6.4,6.4,0,0,0,3.84-1.16A3.27,3.27,0,0,0,98,47.79V39.37q-.58.25-2.44.83t-2.85,1a22.51,22.51,0,0,0-2.31,1.16,5,5,0,0,0-1.94,1.82,4.55,4.55,0,0,0-.62,2.31,5.09,5.09,0,0,0,1.32,3.88A4.75,4.75,0,0,0,92.59,51.59Z"/><path class="cls-1" d="M141.88,19.87q10.66,0,10.66,16.94v7.85a34.56,34.56,0,0,0,.58,7.44q.16.58,2.27,1.2a12.65,12.65,0,0,0,2.85.62c.17,0,.26.4.29,1.2a4.7,4.7,0,0,1-.12,1.61q-.5-.08-4.34-.33t-5.74-.25q-2,0-5.49.25t-4.25.33a2.42,2.42,0,0,1-.33-1.57q0-1.24.33-1.24a9.82,9.82,0,0,0,2.77-.62q1.86-.62,2-1.2a23.72,23.72,0,0,0,.66-6V38.21q0-6.86-1.86-9.58t-5.91-2.73a7.65,7.65,0,0,0-4.63,1.45,4,4,0,0,0-2,3.1V44.65a34.56,34.56,0,0,0,.58,7.44q.16.58,2.19,1.2a11.88,11.88,0,0,0,2.69.62c.22,0,.34.4.37,1.2a4.68,4.68,0,0,1-.12,1.61q-.66-.08-4.34-.33t-5.58-.25q-2,0-5.74.25t-4.42.33a2.42,2.42,0,0,1-.33-1.57q0-1.24.33-1.24a11.52,11.52,0,0,0,3-.62q2-.62,2.19-1.2a27,27,0,0,0,.58-6V32.59q0-3.88-1.32-5.29a4,4,0,0,0-1.86-1.24,9.41,9.41,0,0,0-2-.5c-.52-.05-.78-.14-.78-.25q0-2.4.41-2.48a117.17,117.17,0,0,0,13.3-2.48.54.54,0,0,1,.21-.12.78.78,0,0,1,.25,0h.21c.22,0,.41.19.58.58a2.51,2.51,0,0,1,.25.91,28.12,28.12,0,0,0-.33,3,.65.65,0,0,0,.08.41,1.22,1.22,0,0,0,.41-.25,18.32,18.32,0,0,1,5.08-3.47A14.46,14.46,0,0,1,141.88,19.87Z"/><path class="cls-1" d="M180.87,19.87a20,20,0,0,1,7.81,1.45,13.18,13.18,0,0,1,4.92,3.18,10.21,10.21,0,0,1-1,4.67A3,3,0,0,1,189.8,31a3.7,3.7,0,0,1-2.52-.83,9.38,9.38,0,0,1-1.94-2.73q-1.9-3.8-5.54-3.8t-5.66,3.59a17.66,17.66,0,0,0-2.11,9q0,7.44,3.06,11a9.75,9.75,0,0,0,7.77,3.59,22.67,22.67,0,0,0,2.4-.12,12.37,12.37,0,0,0,2.15-.41q1-.29,1.74-.54a7.11,7.11,0,0,0,1.53-.74l1.12-.7q.33-.21,1.65-1.12a1.37,1.37,0,0,1,.41.5,1.6,1.6,0,0,1,.25.83,2.54,2.54,0,0,1-.5,1.57,13.46,13.46,0,0,1-4.87,4.46,15.18,15.18,0,0,1-8.1,2.23,16.71,16.71,0,0,1-12.52-5.37,18.24,18.24,0,0,1-5.16-13.14,18.78,18.78,0,0,1,5-13A16.64,16.64,0,0,1,180.87,19.87Z"/><path class="cls-1" d="M203.84,25.65h-5q-.58,0-.58-2.15a2,2,0,0,1,.08-.74,23.11,23.11,0,0,0,6.36-4.38q1.07-1.07,2.35-2.44t3-3.51a5.89,5.89,0,0,1,1.57.21c.5.14.74.29.74.46v8.1l6,0,4.09,0q.66,0,.66.74a8,8,0,0,1-.83,3.63h-9.91V45.56a7.84,7.84,0,0,0,1.4,5,4.72,4.72,0,0,0,3.88,1.74,7.79,7.79,0,0,0,1.74-.21,8.77,8.77,0,0,0,1.49-.45c.38-.17.74-.33,1.07-.5a2.6,2.6,0,0,1,.58-.25q.33-.08.74.74t.33,1.07q-.5,1.16-3.51,2.68A13,13,0,0,1,214.17,57a10.42,10.42,0,0,1-7.31-2.77q-3-2.77-3-8.55Z"/><path class="cls-1" d="M264.07,28.79V45.15a18.32,18.32,0,0,0,.66,5.78,1.71,1.71,0,0,0,1,.66,6.41,6.41,0,0,0,1.45.33,12.26,12.26,0,0,0,1.36.08,1.52,1.52,0,0,1,.7.08c.22.06.33.3.33.74a6.31,6.31,0,0,1-.17,1.12c-.11.52-.28.79-.5.79a19,19,0,0,0-2.93.29l-3.43.58q-1.65.29-3.14.62t-3.3.66q-.58,0-.58-1.32V51.92q-.08-.41-.25-.41a18.44,18.44,0,0,1-5,3.72,13.84,13.84,0,0,1-6.53,1.65,8.65,8.65,0,0,1-4.92-1.41,10,10,0,0,1-3.3-3.63,17.76,17.76,0,0,1-1.74-4.79,25.26,25.26,0,0,1-.54-5.21V32.59q0-3.88-1.32-5.29a4.6,4.6,0,0,0-1.9-1.24,8.67,8.67,0,0,0-2-.5c-.55-.05-.83-.14-.83-.25q0-2.4.41-2.48a62.33,62.33,0,0,0,6.77-1,64.77,64.77,0,0,0,6.53-1.49,1.34,1.34,0,0,0,.33-.08,1.41,1.41,0,0,1,.33-.08q.41,0,.62.58a3,3,0,0,1,.21.91q-.74,5.62-.74,7.27v9.91q0,6.44,1.82,9.25t5.87,2.81a6.49,6.49,0,0,0,4.46-1.61,4.4,4.4,0,0,0,1.82-3.1V32.59q0-3.88-1.32-5.29a4,4,0,0,0-1.86-1.24,9.31,9.31,0,0,0-2-.5c-.55-.05-.83-.14-.83-.25q0-2.4.5-2.48a63.43,63.43,0,0,0,6.69-1,64.79,64.79,0,0,0,6.53-1.49,4.77,4.77,0,0,0,.66-.17q.41,0,.66.58a1.52,1.52,0,0,1,.17.91Q264.06,27.31,264.07,28.79Z"/><path class="cls-1" d="M291.16,19.87q5.12,0,7.68,2.69t2.56,9.21V48a3.77,3.77,0,0,0,.74,2.52,2.48,2.48,0,0,0,2,.87,5.15,5.15,0,0,0,2.81-1.07c.33.11.5.41.5.91a4.91,4.91,0,0,1-.5,2.48,20.45,20.45,0,0,1-3.3,2.07,8.61,8.61,0,0,1-4,1.07A6,6,0,0,1,296,55.48a6.77,6.77,0,0,1-2.4-3.06l-.62.54q-.54.46-1.49,1.12a24.47,24.47,0,0,1-2.15,1.32,13.18,13.18,0,0,1-2.81,1.12,12,12,0,0,1-3.26.45,9.86,9.86,0,0,1-6.73-2.27,7.85,7.85,0,0,1-2.6-6.24,7.61,7.61,0,0,1,1-3.72,9.89,9.89,0,0,1,2.27-2.85,16.91,16.91,0,0,1,3.55-2.19,33.8,33.8,0,0,1,3.84-1.61q1.61-.54,4.13-1.28t3.51-1.07a1.3,1.3,0,0,0,.74-1.32V29.87a7.09,7.09,0,0,0-1.32-4.54A4.31,4.31,0,0,0,288,23.67a5,5,0,0,0-3.88,1.53,6.18,6.18,0,0,0-1.4,4.34A2.68,2.68,0,0,1,281.5,32a5.14,5.14,0,0,1-2.81.78q-3.06,0-4.3-2,0-4,5.41-7.43A20.72,20.72,0,0,1,291.16,19.87Zm-3.72,31.72a6.4,6.4,0,0,0,3.84-1.16,3.27,3.27,0,0,0,1.61-2.64V39.37q-.58.25-2.44.83t-2.85,1a22.56,22.56,0,0,0-2.31,1.16,5,5,0,0,0-1.94,1.82,4.55,4.55,0,0,0-.62,2.31,5.09,5.09,0,0,0,1.32,3.88A4.75,4.75,0,0,0,287.44,51.59Z"/><path class="cls-1" d="M335.36,19.87q4.54,0,6.77,2.73,0,7-4,7A4.91,4.91,0,0,1,334.95,28a5.17,5.17,0,0,0-3.55-1.65,4.43,4.43,0,0,0-4,2.6,11,11,0,0,0-1.45,5.41V44.65a34.6,34.6,0,0,0,.58,7.44q.16.58,2.19,1.2a11.67,11.67,0,0,0,2.77.62c.17,0,.26.4.29,1.2a8.63,8.63,0,0,1,0,1.61q-.66-.08-4.38-.33t-5.62-.25q-2,0-5.74.25t-4.42.33a2.42,2.42,0,0,1-.33-1.57q0-1.24.33-1.24a11.52,11.52,0,0,0,3-.62q2-.62,2.19-1.2a27,27,0,0,0,.58-6V32.59q0-3.88-1.32-5.29a4,4,0,0,0-1.86-1.24,9.41,9.41,0,0,0-2-.5c-.52-.05-.78-.14-.78-.25q0-2.4.41-2.48a117.21,117.21,0,0,0,13.3-2.48,5,5,0,0,1,.66-.17c.22,0,.41.19.58.58a2,2,0,0,1,.21,1q0,.37-.12,1.16t-.21,1.65a10.5,10.5,0,0,0-.12,1.12,15.16,15.16,0,0,1,4-4A9.05,9.05,0,0,1,335.36,19.87Z"/><path class="cls-1" d="M355.52,20.7q1.82,0,5.2-.25t4.21-.25a5.54,5.54,0,0,1,.17,1.49q0,1.16-.33,1.16a9,9,0,0,0-2.6.62q-1.78.62-1.86,1.36v.5q.16,1.32,7.68,18.84.66-1.49,3.22-8.14t3-7.64a7.75,7.75,0,0,0,.5-2.56,2.6,2.6,0,0,0-1.32-2,6.8,6.8,0,0,0-4-1q-.33,0-.33-1.24a2.08,2.08,0,0,1,.33-1.4q1,0,4,.25t5,.25q1.74,0,4.25-.25t3.68-.25a2.35,2.35,0,0,1,.33,1.32c0,.88-.11,1.32-.33,1.32a10.48,10.48,0,0,0-3.35.83,4.56,4.56,0,0,0-2.85,2.48L365.1,62.66Q360,74.73,352.79,74.73a4.47,4.47,0,0,1-3.3-1.16,3.86,3.86,0,0,1,.41-5.87q8.59,0,11.32-6.77,2-5,2.23-5.62L351.39,27.22a10.69,10.69,0,0,0-1-1.9A5,5,0,0,0,348,23.46a7.81,7.81,0,0,0-2.69-.62q-.33,0-.33-1.16,0-1.32.25-1.49.5,0,4.42.25T355.52,20.7Z"/><path class="cls-1" d="M399.59,22.39a5.24,5.24,0,0,1,1.61,3.84,5.66,5.66,0,0,1-1.61,4,5.07,5.07,0,0,1-3.84,1.74,5.28,5.28,0,0,1-4-1.74,5.59,5.59,0,0,1-1.65-4,5.18,5.18,0,0,1,1.65-3.84,5.48,5.48,0,0,1,4-1.61A5.24,5.24,0,0,1,399.59,22.39Zm0,25.49a5.38,5.38,0,0,1,1.61,3.88,5.52,5.52,0,0,1-1.61,3.92,5.12,5.12,0,0,1-3.84,1.69,5.35,5.35,0,0,1-4-1.69,5.45,5.45,0,0,1-1.65-3.92,5.31,5.31,0,0,1,1.65-3.88,5.41,5.41,0,0,1,4-1.65A5.18,5.18,0,0,1,399.59,47.88Z"/><path class="cls-1" d="M69.88,80.86l17.35,43.29q1.24,3.3,2.48,6a4,4,0,0,0,2.64,2,11,11,0,0,0,3.14.74c.22,0,.33.5.33,1.49a2.78,2.78,0,0,1-.17,1.24q-9.91-.5-10.41-.5t-10.74.5a2.33,2.33,0,0,1-.33-1.53c0-.8.11-1.2.33-1.2a10.65,10.65,0,0,0,2.73-.5q1.73-.5,2.06-1.16a2.36,2.36,0,0,0,.25-1.07,19,19,0,0,0-1.57-5.7l-2.89-7.68a.91.91,0,0,0-.58-.33q-2.64-.16-7.1-.17t-9.42.25c-.33,0-.5.11-.5.33l-3.14,7.68a23.46,23.46,0,0,0-1.57,5.37,1.84,1.84,0,0,0,.91,1.65,8.27,8.27,0,0,0,2.6.91,14.26,14.26,0,0,0,2.52.41q.25.08.25,1.16a5.39,5.39,0,0,1-.17,1.57q-.41,0-3.88-.25t-5.62-.25q-2.15,0-5.08.21l-4.17.29a1.76,1.76,0,0,1-.33-1.24c0-1,.05-1.49.17-1.49a11.94,11.94,0,0,0,3.18-.7,5.1,5.1,0,0,0,2.77-1.61,39.26,39.26,0,0,0,3.14-6.44L64.42,87q1.9-5,3.06-5.95a2.11,2.11,0,0,1,1.4-.58A1.35,1.35,0,0,1,69.88,80.86ZM60,111.59q2.89.25,5.95.25,2.89,0,6.77-.25l.17-.33L66.57,94.74,59.8,111.26C59.8,111.48,59.85,111.59,60,111.59Z"/><path class="cls-1" d="M130.35,81.19q.41,0,8.1-.5.74,2.31,3.39,8.55t6.49,15.2q3.84,9,6.15,14.75c0,.11.08.17.25.17a.22.22,0,0,0,.25-.25q7.27-17.43,11.57-28.67l3-9.58q2.48.25,6.77.25,3.22,0,9.83-.41a2.4,2.4,0,0,1,.25,1.32q0,1.4-.33,1.4h-.17a6.72,6.72,0,0,0-4,1.32q-1.24.91-1.07,4.46.33,7.35,1.16,34.12a21.84,21.84,0,0,0,1.32,7.6q.33.74,2.31,1.36a11.1,11.1,0,0,0,2.81.62c.22,0,.33.5.33,1.49a4,4,0,0,1-.17,1.24l-10.16-.5q-1.65,0-3.47.08l-4,.21-3.51.21a1.76,1.76,0,0,1-.33-1.24q0-1.49.33-1.49a9.76,9.76,0,0,0,2.64-.54,5.17,5.17,0,0,0,2.31-1.2,4.63,4.63,0,0,0,.83-2.89v-4.63l-.83-25.11q-.33-5.12-1-5.12c-.17,0-.3.17-.41.5l-15.78,38.5q-1.41,3.14-3.14,3.14a2.74,2.74,0,0,1-.83-.17l-18.5-44.45q-.58,20.57-1.32,36.85a9.12,9.12,0,0,0,.25,2.56q.41.91,3.3,1.73a17.84,17.84,0,0,0,3.88.83q.33,0,.33,1.49a4,4,0,0,1-.17,1.24q-9.91-.5-10.41-.5-2.23,0-5.91.25t-4.5.25a1.91,1.91,0,0,1-.33-1.32q0-1.4.33-1.4a16.52,16.52,0,0,0,4.13-.83q2.81-.82,3.22-2.15a15.37,15.37,0,0,0,.91-5.54q.16-6.28.45-14.83t.5-14.58q.21-6,.21-7.52a7.9,7.9,0,0,0-.25-2.31q-.25-.66-2.77-1.24a18.71,18.71,0,0,0-3.59-.58c-.22,0-.33-.47-.33-1.4a1.76,1.76,0,0,1,.33-1.24l4.25.29Q128.2,81.19,130.35,81.19Z"/><path class="cls-1" d="M209.93,98.87q5.12,0,7.68,2.69t2.56,9.21V127a3.76,3.76,0,0,0,.74,2.52,2.48,2.48,0,0,0,2,.87,5.15,5.15,0,0,0,2.81-1.07c.33.11.5.41.5.91a4.91,4.91,0,0,1-.5,2.48,20.43,20.43,0,0,1-3.3,2.07,8.61,8.61,0,0,1-4,1.07,6,6,0,0,1-3.72-1.41,6.77,6.77,0,0,1-2.4-3.06l-.62.54q-.54.46-1.49,1.12a24.48,24.48,0,0,1-2.15,1.32,13.17,13.17,0,0,1-2.81,1.12A12,12,0,0,1,202,136a9.86,9.86,0,0,1-6.73-2.27,7.85,7.85,0,0,1-2.6-6.24,7.61,7.61,0,0,1,1-3.72,9.88,9.88,0,0,1,2.27-2.85,16.93,16.93,0,0,1,3.55-2.19,33.8,33.8,0,0,1,3.84-1.61q1.61-.54,4.13-1.28t3.51-1.07a1.3,1.3,0,0,0,.74-1.32v-4.54a7.09,7.09,0,0,0-1.32-4.54,4.31,4.31,0,0,0-3.55-1.65,5,5,0,0,0-3.88,1.53,6.18,6.18,0,0,0-1.4,4.34,2.68,2.68,0,0,1-1.24,2.44,5.14,5.14,0,0,1-2.81.78q-3.06,0-4.3-2,0-4,5.41-7.43A20.72,20.72,0,0,1,209.93,98.87Zm-3.72,31.72a6.4,6.4,0,0,0,3.84-1.16,3.27,3.27,0,0,0,1.61-2.64v-8.43q-.58.25-2.44.83t-2.85,1a22.56,22.56,0,0,0-2.31,1.16,5,5,0,0,0-1.94,1.82,4.55,4.55,0,0,0-.62,2.31,5.09,5.09,0,0,0,1.32,3.88A4.75,4.75,0,0,0,206.21,130.59Z"/><path class="cls-1" d="M256.94,98.87q10.66,0,10.66,16.94v7.85a34.6,34.6,0,0,0,.58,7.44q.16.58,2.27,1.2a12.65,12.65,0,0,0,2.85.62c.17,0,.26.4.29,1.2a4.67,4.67,0,0,1-.12,1.61q-.5-.08-4.34-.33t-5.74-.25q-2,0-5.49.25t-4.25.33a2.42,2.42,0,0,1-.33-1.57q0-1.24.33-1.24a9.82,9.82,0,0,0,2.77-.62q1.86-.62,2-1.2a23.75,23.75,0,0,0,.66-6v-7.85q0-6.86-1.86-9.58t-5.91-2.73a7.65,7.65,0,0,0-4.63,1.45,4,4,0,0,0-2,3.1v14.21a34.56,34.56,0,0,0,.58,7.44q.16.58,2.19,1.2a11.89,11.89,0,0,0,2.69.62c.22,0,.34.4.37,1.2a4.7,4.7,0,0,1-.12,1.61q-.66-.08-4.34-.33t-5.58-.25q-2,0-5.74.25t-4.42.33a2.42,2.42,0,0,1-.33-1.57q0-1.24.33-1.24a11.52,11.52,0,0,0,3-.62q2-.62,2.19-1.2a27,27,0,0,0,.58-6V111.59q0-3.88-1.32-5.29a4,4,0,0,0-1.86-1.24,9.4,9.4,0,0,0-2-.5c-.52-.05-.78-.14-.78-.25q0-2.4.41-2.48a117.19,117.19,0,0,0,13.3-2.48.54.54,0,0,1,.21-.12.79.79,0,0,1,.25,0h.21c.22,0,.41.19.58.58a2.51,2.51,0,0,1,.25.91,28.12,28.12,0,0,0-.33,3,.65.65,0,0,0,.08.41,1.23,1.23,0,0,0,.41-.25,18.31,18.31,0,0,1,5.08-3.47A14.46,14.46,0,0,1,256.94,98.87Z"/><path class="cls-1" d="M292.87,123.65a30.36,30.36,0,0,0,.66,7.44q.16.58,2.23,1.2a12.15,12.15,0,0,0,2.81.62c.22,0,.34.4.37,1.2a4.7,4.7,0,0,1-.12,1.61q-.58-.08-4.42-.33t-5.66-.25q-2.07,0-5.82.25t-4.34.33a2.42,2.42,0,0,1-.33-1.57q0-1.24.33-1.24a12,12,0,0,0,3-.62q2.06-.62,2.23-1.2a27,27,0,0,0,.58-6V111.59q0-3.88-1.32-5.29a4.59,4.59,0,0,0-1.9-1.24,8.67,8.67,0,0,0-2-.5c-.55-.05-.83-.14-.83-.25q0-2.4.5-2.48a63.42,63.42,0,0,0,6.69-1A64.77,64.77,0,0,0,292,99.37a4.79,4.79,0,0,0,.66-.17q.41,0,.66.58a1.53,1.53,0,0,1,.17.91,70.85,70.85,0,0,0-.66,7.1Zm-8.59-34.57a5,5,0,0,1-1.49-3.63,5.08,5.08,0,0,1,5.12-5.08,5,5,0,0,1,3.64,1.49A4.89,4.89,0,0,1,293,85.45a5,5,0,0,1-1.49,3.63,5.09,5.09,0,0,1-7.27,0Z"/><path class="cls-1" d="M326.5,78a16.27,16.27,0,0,1,5.74.87,5.77,5.77,0,0,1,3,2.11,9.27,9.27,0,0,1-.45,4.58,3,3,0,0,1-3,2,3.22,3.22,0,0,1-2.52-1.36q-1.12-1.36-2.35-2.73A3.8,3.8,0,0,0,324,82.1a4.4,4.4,0,0,0-3.72,2.15,13.9,13.9,0,0,0-2.11,5.21,33.72,33.72,0,0,0-.62,6.69v3.8c0,.06.05.14.17.25a.47.47,0,0,0,.33.17h9.09a.66.66,0,0,1,.41.08.87.87,0,0,1,.08.5,8.49,8.49,0,0,1-1,3.8h-8.59a.44.44,0,0,0-.5.5v18.42a31.6,31.6,0,0,0,.66,7.44q.16.58,2.19,1.2a11.67,11.67,0,0,0,2.77.62c.17,0,.26.4.29,1.2a4.67,4.67,0,0,1-.12,1.61q-.5-.08-4.3-.33t-5.78-.25q-2,0-5.62.25t-4.3.33a1.56,1.56,0,0,1-.33-.91,4.93,4.93,0,0,1,0-1.28c.05-.41.17-.62.33-.62a11.08,11.08,0,0,0,2.89-.62q2-.62,2.15-1.2a27.36,27.36,0,0,0,.74-6.77v-19c0-.38-.17-.58-.5-.58h-5c-.11,0-.17-.17-.17-.5a4.41,4.41,0,0,1,1.16-2.4,3.32,3.32,0,0,1,2.64-1.49h1.32a.44.44,0,0,0,.5-.5V99a22.47,22.47,0,0,1,5.16-14.87Q319.47,78,326.5,78Z"/><path class="cls-1" d="M348.72,98.87a15.31,15.31,0,0,1,6.94,1.53,13.07,13.07,0,0,1,4.79,3.88,19.23,19.23,0,0,1,2.64,4.87A14.24,14.24,0,0,1,364,114q0,1.82-.62,2.27a4.69,4.69,0,0,1-2.52.45H341.12q-.58,0-.58.5a16,16,0,0,0,1.07,5.78,11.36,11.36,0,0,0,3.68,4.87,9.72,9.72,0,0,0,6.24,2.07,22.67,22.67,0,0,0,2.4-.12,12.37,12.37,0,0,0,2.15-.41q1-.29,1.74-.54a7.11,7.11,0,0,0,1.53-.74l1.12-.7q.33-.21,1.65-1.12a1.37,1.37,0,0,1,.41.5,1.6,1.6,0,0,1,.25.83,2.54,2.54,0,0,1-.5,1.57,13.46,13.46,0,0,1-4.87,4.46,15.33,15.33,0,0,1-8.18,2.23,16.73,16.73,0,0,1-12.39-5.33,17.82,17.82,0,0,1-5.2-12.93q0-8.34,4.83-13.55A16,16,0,0,1,348.72,98.87Zm-.58,3.8a5.84,5.84,0,0,0-3.55,1.16,7.79,7.79,0,0,0-2.4,2.81,15.79,15.79,0,0,0-1.2,3.1,10.11,10.11,0,0,0-.37,2.44c0,.39.17.58.5.58H354.5q.74,0,.74-1.24a10.71,10.71,0,0,0-1.94-5.87A5.92,5.92,0,0,0,348.14,102.67Z"/><path class="cls-1" d="M381.27,98.79a35.13,35.13,0,0,1,9.58,1.4,46.93,46.93,0,0,1,.91,9.25c0,.44-.36.66-1.07.66q-1.82,0-2-.66a10,10,0,0,0-2.44-4.92,6.46,6.46,0,0,0-5-2,5.93,5.93,0,0,0-3.76,1.07,3.67,3.67,0,0,0-1.36,3.06,4.82,4.82,0,0,0,.45,2.11,5.16,5.16,0,0,0,1.49,1.78,20.37,20.37,0,0,0,1.82,1.32q.78.5,2.35,1.32a5.4,5.4,0,0,0,.83.41l1.24.66,1.36.74,1.32.78a15.09,15.09,0,0,1,1.45,1l1.28,1a6.52,6.52,0,0,1,1.24,1.16q.37.5,1,1.28a5.34,5.34,0,0,1,.87,1.49,15.8,15.8,0,0,1,.45,1.57,7.7,7.7,0,0,1,.21,1.78,9.74,9.74,0,0,1-4,8.22,15.67,15.67,0,0,1-9.71,3,27.59,27.59,0,0,1-10.66-2.31,33,33,0,0,1-.83-4.58,40.35,40.35,0,0,1-.41-4.75,1.75,1.75,0,0,1,1.16-.41q1.9,0,2,.66a9.12,9.12,0,0,0,3.26,5.58,8.81,8.81,0,0,0,5.66,2.11,6,6,0,0,0,3.8-1.16,4,4,0,0,0,1.49-3.39,5.44,5.44,0,0,0-.21-1.53,4,4,0,0,0-.78-1.4l-.95-1.16a6,6,0,0,0-1.49-1.12q-1.12-.66-1.65-1l-2.07-1.07q-1.53-.78-2.11-1.12a19.21,19.21,0,0,1-5.87-4.42,9.54,9.54,0,0,1,1.9-13.67A15.92,15.92,0,0,1,381.27,98.79Z"/><path class="cls-1" d="M402.83,104.65h-5q-.58,0-.58-2.15a2,2,0,0,1,.08-.74,23.11,23.11,0,0,0,6.36-4.38q1.07-1.07,2.35-2.44t3-3.51a5.89,5.89,0,0,1,1.57.21c.5.14.74.29.74.46v8.1l6,0,4.09,0q.66,0,.66.74a8,8,0,0,1-.83,3.63h-9.91v19.91a7.84,7.84,0,0,0,1.4,5,4.72,4.72,0,0,0,3.88,1.74,7.79,7.79,0,0,0,1.74-.21,8.77,8.77,0,0,0,1.49-.45c.38-.17.74-.33,1.07-.5a2.6,2.6,0,0,1,.58-.25q.33-.08.74.74t.33,1.07q-.5,1.16-3.51,2.68a13,13,0,0,1-5.91,1.53,10.42,10.42,0,0,1-7.31-2.77q-3-2.77-3-8.55Z"/><path class="cls-1" d="M445.63,98.87a18.21,18.21,0,0,1,13.26,5.41,17.7,17.7,0,0,1,5.49,13.09,18.84,18.84,0,1,1-18.75-18.51Zm-1.07,3.88a6.65,6.65,0,0,0-6,3.76,17.77,17.77,0,0,0-2.15,9,24.09,24.09,0,0,0,2.69,11.65q2.68,5,7.48,5a6.74,6.74,0,0,0,6.07-3.8,17.58,17.58,0,0,0,2.19-8.92,28.37,28.37,0,0,0-1.07-8,14.57,14.57,0,0,0-3.47-6.16A7.66,7.66,0,0,0,444.55,102.75Z"/><rect class="cls-2" x="122.35" y="60.42" width="486.99" height="27.31" rx="13.66" ry="13.66" transform="translate(13.21 -48.31) rotate(7.69)"/><path class="cls-1" d="M153.64,38.56l1.37,9.2L158.6,40l1.44.19,1.54,8.47,3.93-8.52,2.39.32-5.58,11.11-2.23-.3-1.3-6.87-3.06,6.28-2.23-.3-2.23-12.17Z"/><path class="cls-1" d="M172.26,43.81a4.87,4.87,0,0,1,1.61.5,3.49,3.49,0,0,1,1.21,1,4.79,4.79,0,0,1,.77,3.65,4.74,4.74,0,0,1-1.7,3.28A4,4,0,0,1,171,53a4.11,4.11,0,0,1-2.86-1.56,4.7,4.7,0,0,1-.77-3.61,4.75,4.75,0,0,1,1.71-3.32A4.11,4.11,0,0,1,172.26,43.81Zm1.48,4.88a3.37,3.37,0,0,0-.26-2.15,1.81,1.81,0,0,0-1.41-.89,2,2,0,0,0-1.66.48,3.08,3.08,0,0,0-.89,2,3.33,3.33,0,0,0,.27,2.15,1.82,1.82,0,0,0,1.41.89,2,2,0,0,0,1.66-.48A3.08,3.08,0,0,0,173.74,48.69Z"/><path class="cls-1" d="M180.84,47a2.58,2.58,0,0,1,2.62-1.57,3.13,3.13,0,0,1,.76.23l-.32,2.11a4.72,4.72,0,0,0-1-.24q-2.12-.29-2.51,2.64L179.9,54l-2.12-.29L179,44.94l2.12.29Z"/><path class="cls-1" d="M188.91,50.85l-1.08.68L187.37,55l-2.12-.29,1.66-12.32,2.12.29-.9,6.66,3.86-2.6,2.87.39-4.3,2.71,3.33,6-2.59-.35Z"/><path class="cls-1" d="M197.11,53.59q-.13,1.24,1.65,1.48a2,2,0,0,0,1.16-.14.85.85,0,0,0,.53-.63.74.74,0,0,0-.19-.65,2.67,2.67,0,0,0-.79-.51l-1.81-.94q-2-1-1.79-2.69a2.08,2.08,0,0,1,1.24-1.65,4.75,4.75,0,0,1,2.77-.31,4,4,0,0,1,2.49,1.09,2.41,2.41,0,0,1,.69,2l-2-.27a.88.88,0,0,0-.32-.74,2,2,0,0,0-1-.4,1.85,1.85,0,0,0-1.12.13.79.79,0,0,0-.47.59q-.08.63.93,1.08L201,52a4.13,4.13,0,0,1,1.45,1.08,1.84,1.84,0,0,1,.36,1.45,2.33,2.33,0,0,1-1.28,1.73,4.47,4.47,0,0,1-2.91.45,4.73,4.73,0,0,1-2.7-1.14,2.56,2.56,0,0,1-.79-2.29Z"/><path class="cls-1" d="M208.14,50.34A2.86,2.86,0,0,1,211,49a3,3,0,0,1,2.4,1.4,4.51,4.51,0,0,1,.44,2.91l-.69,5.1L211,58.17l.69-5.1a2.08,2.08,0,0,0-.27-1.53,1.73,1.73,0,0,0-1.24-.67,1.81,1.81,0,0,0-1.55.56,3.76,3.76,0,0,0-.94,2.18l-.55,4L205,57.36,206.7,45l2.12.29Z"/><path class="cls-1" d="M220.86,50.38a4.87,4.87,0,0,1,1.61.5,3.49,3.49,0,0,1,1.21,1,4.79,4.79,0,0,1,.77,3.65,4.74,4.74,0,0,1-1.7,3.28,4,4,0,0,1-3.14.75A4.11,4.11,0,0,1,216.75,58a4.7,4.7,0,0,1-.77-3.61,4.75,4.75,0,0,1,1.71-3.32A4.11,4.11,0,0,1,220.86,50.38Zm1.48,4.88a3.37,3.37,0,0,0-.26-2.15,1.81,1.81,0,0,0-1.41-.89,2,2,0,0,0-1.66.48,3.08,3.08,0,0,0-.89,2,3.33,3.33,0,0,0,.27,2.15,1.82,1.82,0,0,0,1.41.89,2,2,0,0,0,1.66-.48A3.08,3.08,0,0,0,222.33,55.26Z"/><path class="cls-1" d="M229.34,53a2.74,2.74,0,0,1,2.7-1.08,3.7,3.7,0,0,1,2.6,1.59,5.32,5.32,0,0,1-.93,6.77,3.68,3.68,0,0,1-2.91.85,2.79,2.79,0,0,1-2.21-1.27l-.67,5-2.12-.29,1.75-13,1.74.24Zm1.34,6.16a2.12,2.12,0,0,0,.8-.06,2.06,2.06,0,0,0,.79-.4,2.83,2.83,0,0,0,1-1.92,3,3,0,0,0-.35-2.07,1.94,1.94,0,0,0-1.41-.92,2.1,2.1,0,0,0-1.52.32,2,2,0,0,0-.8,1.38L229,57a1.75,1.75,0,0,0,.41,1.44A2,2,0,0,0,230.68,59.13Z"/><path class="cls-1" d="M238.87,59.23q-.13,1.24,1.65,1.48a2,2,0,0,0,1.16-.14.85.85,0,0,0,.53-.63.74.74,0,0,0-.19-.65,2.67,2.67,0,0,0-.79-.51l-1.81-.94q-2-1-1.79-2.69a2.08,2.08,0,0,1,1.24-1.65,4.75,4.75,0,0,1,2.77-.31,4,4,0,0,1,2.49,1.09,2.41,2.41,0,0,1,.69,2l-2-.27a.88.88,0,0,0-.32-.74,2,2,0,0,0-1-.4,1.85,1.85,0,0,0-1.12.13.79.79,0,0,0-.47.59q-.08.63.93,1.08l2,1.05a4.13,4.13,0,0,1,1.45,1.08,1.84,1.84,0,0,1,.36,1.45,2.33,2.33,0,0,1-1.28,1.73,4.47,4.47,0,0,1-2.91.45,4.73,4.73,0,0,1-2.7-1.14A2.56,2.56,0,0,1,236.9,59Z"/><path class="cls-1" d="M252.82,52.07a1.22,1.22,0,0,1,.46-.86,1.58,1.58,0,0,1,1.93.26,1.36,1.36,0,0,1-.24,1.81A1.58,1.58,0,0,1,253,53,1.22,1.22,0,0,1,252.82,52.07Zm-.13,2.83,2.12.29-1.18,8.74-2.12-.29Z"/><path class="cls-1" d="M260.28,57.48a3.2,3.2,0,0,1,5.29,0,4.51,4.51,0,0,1,.44,2.91l-.69,5.1-2.12-.29.69-5.1a2.08,2.08,0,0,0-.27-1.53,1.73,1.73,0,0,0-1.24-.67,1.81,1.81,0,0,0-1.55.56,3.76,3.76,0,0,0-.94,2.18l-.55,4-2.12-.29,1.18-8.72,1.85.25Z"/><path class="cls-1" d="M274.52,54.89l4.7.64a4.49,4.49,0,0,1,2.87,1.32,2.73,2.73,0,0,1,.71,2.31,2.68,2.68,0,0,1-.78,1.61,2.94,2.94,0,0,1-1.67.78,3,3,0,0,1,1.51,1.11,2.51,2.51,0,0,1,.41,1.86,3,3,0,0,1-2.53,2.66,6.24,6.24,0,0,1-2.09,0l-4.72-.64ZM276,60.09l2.5.34a2.18,2.18,0,0,0,1.49-.22,1.41,1.41,0,0,0,.64-1.06,1.45,1.45,0,0,0-.32-1.2,2.12,2.12,0,0,0-1.37-.61L276.39,57Zm1.89,5.23a2.2,2.2,0,0,0,1.54-.21,1.54,1.54,0,0,0,.28-2.2,2.18,2.18,0,0,0-1.41-.62l-2.55-.34-.41,3Z"/><path class="cls-1" d="M288.14,63.4a10.2,10.2,0,0,1,2.36.67l.12-.86a2.1,2.1,0,0,0-.19-1.41,1.5,1.5,0,0,0-1.14-.6,2.15,2.15,0,0,0-1.33.16,1.11,1.11,0,0,0-.58.88l-2.32-.31a2.38,2.38,0,0,1,1.34-2,5.53,5.53,0,0,1,3-.27q2.69.36,3.23,2.36a4,4,0,0,1,.06,1.56L292,69.11l-1.85-.25V67.67a2.83,2.83,0,0,1-2.78,1.07,3.86,3.86,0,0,1-2.51-1.18,2.62,2.62,0,0,1-.59-2.12,2.15,2.15,0,0,1,1.2-1.74A4.57,4.57,0,0,1,288.14,63.4Zm2.18,2a7.64,7.64,0,0,0-1.94-.55q-1.72-.23-1.88.92a1.09,1.09,0,0,0,.28.89,1.9,1.9,0,0,0,1.22.52,1.93,1.93,0,0,0,1.51-.39A2.17,2.17,0,0,0,290.32,65.41Z"/><path class="cls-1" d="M296.73,57.21l2.12.29-1.66,12.32-2.12-.29Z"/><path class="cls-1" d="M305.47,70.71a5.55,5.55,0,0,1-1.93.21,4,4,0,0,1-1.17-.32,2.73,2.73,0,0,1-.84-.61,2.6,2.6,0,0,1-.55-2.14l.66-4.88-1.22-.16.19-1.42,1.22.16.31-2.3,2.12.29-.31,2.3,2.37.32-.19,1.42-2.37-.32-.65,4.81a.94.94,0,0,0,.88,1.22,4.36,4.36,0,0,0,1.39-.11Z"/><path class="cls-1" d="M309.1,59.67a1.22,1.22,0,0,1,.46-.86,1.58,1.58,0,0,1,1.93.26,1.36,1.36,0,0,1-.24,1.81,1.58,1.58,0,0,1-1.93-.26A1.22,1.22,0,0,1,309.1,59.67ZM309,62.5l2.12.29-1.18,8.74-2.12-.29Z"/><path class="cls-1" d="M322.22,66a3,3,0,0,1,3.22-1.49,3,3,0,0,1,2.28,1.39,4.34,4.34,0,0,1,.45,2.91l-.69,5.1-2.14-.29.69-5.1a2.08,2.08,0,0,0-.27-1.53,1.73,1.73,0,0,0-1.24-.67,1.66,1.66,0,0,0-1.48.55,4,4,0,0,0-.88,2.15l-.55,4.09-2.12-.29.69-5.1a2.08,2.08,0,0,0-.27-1.53,1.73,1.73,0,0,0-1.24-.67,1.81,1.81,0,0,0-1.55.56,3.76,3.76,0,0,0-.94,2.18l-.55,4L313.5,72l1.18-8.72,1.85.25,0,1.54a2.91,2.91,0,0,1,3-1.37,3.16,3.16,0,0,1,1.75.75A3.05,3.05,0,0,1,322.22,66Z"/><path class="cls-1" d="M335.18,65.82a4.87,4.87,0,0,1,1.61.5,3.49,3.49,0,0,1,1.21,1,4.79,4.79,0,0,1,.77,3.65,4.74,4.74,0,0,1-1.7,3.28,4,4,0,0,1-3.14.75,4.11,4.11,0,0,1-2.86-1.56,4.7,4.7,0,0,1-.77-3.61A4.75,4.75,0,0,1,332,66.55,4.11,4.11,0,0,1,335.18,65.82Zm1.48,4.88a3.37,3.37,0,0,0-.26-2.15,1.81,1.81,0,0,0-1.41-.89,2,2,0,0,0-1.66.48,3.08,3.08,0,0,0-.89,2,3.33,3.33,0,0,0,.27,2.15,1.82,1.82,0,0,0,1.41.89,2,2,0,0,0,1.66-.48A3.08,3.08,0,0,0,336.66,70.7Z"/><path class="cls-1" d="M343.77,69a2.58,2.58,0,0,1,2.62-1.57,3.13,3.13,0,0,1,.76.23l-.32,2.11a4.72,4.72,0,0,0-1-.24q-2.12-.29-2.51,2.64L342.82,76l-2.12-.29,1.18-8.74,2.12.29Z"/><path class="cls-1" d="M355.79,71.26a4.93,4.93,0,0,1,0,1.41,8.12,8.12,0,0,1-.22,1.12L350,73a3.06,3.06,0,0,0,.29,1.79,1.72,1.72,0,0,0,1.38.86,1.42,1.42,0,0,0,1.72-.94l2.14.29a3.16,3.16,0,0,1-1.48,1.9,4,4,0,0,1-2.6.45,3.82,3.82,0,0,1-2.72-1.65,4.81,4.81,0,0,1-.75-3.52A4.76,4.76,0,0,1,349.59,69a3.84,3.84,0,0,1,3.06-.83,3.42,3.42,0,0,1,2.65,1.66A4,4,0,0,1,355.79,71.26Zm-3.35-1.38a1.76,1.76,0,0,0-1.48.39,2.65,2.65,0,0,0-.79,1.42l3.72.5a2,2,0,0,0-.64-2A1.77,1.77,0,0,0,352.44,69.87Z"/><path class="cls-1" d="M357.29,77.61a1.09,1.09,0,0,1-.24-.89,1.2,1.2,0,0,1,.54-.85,1.63,1.63,0,0,1,1.18-.22,1.44,1.44,0,0,1,1.09.71,2.13,2.13,0,0,1,.26,1.43A3.21,3.21,0,0,1,358.62,80a3.8,3.8,0,0,1-.92.46l-1.47-1a5.93,5.93,0,0,0,1.14-.54,1.77,1.77,0,0,0,.72-.8A1.71,1.71,0,0,1,357.29,77.61Z"/><path class="cls-1" d="M372.56,67.89a6,6,0,0,1,1.83.51,4.13,4.13,0,0,1,2.39,3.68l-2.32.11a3.4,3.4,0,0,0-.69-1.6,2.12,2.12,0,0,0-1.42-.77,2.36,2.36,0,0,0-2.11.76,5.2,5.2,0,0,0-1.22,3,5.65,5.65,0,0,0,.3,3.17,2.24,2.24,0,0,0,1.81,1.37,2.63,2.63,0,0,0,1.95-.35,2.07,2.07,0,0,0,.84-1.47l2.28.31a3.8,3.8,0,0,1-1.66,2.86A5.14,5.14,0,0,1,371,80a4.61,4.61,0,0,1-3.46-2.11,6.83,6.83,0,0,1-.78-4.67,6.64,6.64,0,0,1,2-4.3A4.6,4.6,0,0,1,372.56,67.89Z"/><path class="cls-1" d="M381.26,73.73a2.86,2.86,0,0,1,2.84-1.3,3,3,0,0,1,2.4,1.4,4.51,4.51,0,0,1,.44,2.91l-.69,5.1-2.12-.29.69-5.1a2.08,2.08,0,0,0-.27-1.53,1.73,1.73,0,0,0-1.24-.67,1.81,1.81,0,0,0-1.55.56,3.76,3.76,0,0,0-.94,2.18l-.55,4-2.12-.29,1.66-12.32,2.12.29Z"/><path class="cls-1" d="M390.83,70.71a1.22,1.22,0,0,1,.46-.86,1.58,1.58,0,0,1,1.93.26,1.36,1.36,0,0,1-.24,1.81,1.58,1.58,0,0,1-1.93-.26A1.22,1.22,0,0,1,390.83,70.71Zm-.13,2.83,2.12.29-1.18,8.74-2.12-.29Z"/><path class="cls-1" d="M399.76,74.55a3.78,3.78,0,0,1,1.44.48,3.47,3.47,0,0,1,1,.88,3.54,3.54,0,0,1,.77,2.32L400.83,78a2,2,0,0,0-.4-1,1.25,1.25,0,0,0-.84-.5,2.22,2.22,0,0,0-.88,0,1.67,1.67,0,0,0-.69.39,3.25,3.25,0,0,0-.89,2,3,3,0,0,0,.3,2.08,1.78,1.78,0,0,0,1.3.86A1.59,1.59,0,0,0,400,81.6a1.47,1.47,0,0,0,.51-1l2.14.29a3.27,3.27,0,0,1-1.27,2.26,3.7,3.7,0,0,1-2.84.6,3.82,3.82,0,0,1-2.72-1.65,4.81,4.81,0,0,1-.79-3.52,4.7,4.7,0,0,1,1.7-3.23A3.92,3.92,0,0,1,399.76,74.55Z"/><path class="cls-1" d="M408.3,79.63a10.2,10.2,0,0,1,2.36.67l.12-.86a2.1,2.1,0,0,0-.19-1.41,1.5,1.5,0,0,0-1.14-.6,2.15,2.15,0,0,0-1.33.16,1.11,1.11,0,0,0-.58.88l-2.32-.31a2.38,2.38,0,0,1,1.34-2,5.53,5.53,0,0,1,3-.27q2.69.36,3.23,2.36a4,4,0,0,1,.06,1.56l-.75,5.55-1.85-.25V83.9A2.83,2.83,0,0,1,407.51,85,3.86,3.86,0,0,1,405,83.79a2.62,2.62,0,0,1-.59-2.12,2.15,2.15,0,0,1,1.2-1.74A4.57,4.57,0,0,1,408.3,79.63Zm2.18,2a7.64,7.64,0,0,0-1.94-.55q-1.72-.23-1.88.92a1.09,1.09,0,0,0,.28.89,1.9,1.9,0,0,0,1.22.52,1.93,1.93,0,0,0,1.51-.39A2.17,2.17,0,0,0,410.48,81.64Z"/><path class="cls-1" d="M416.46,82.29a2.85,2.85,0,0,1-.76-2.39,2.82,2.82,0,0,1,1.42-2.15,3.93,3.93,0,0,1,2.58-.51,4.77,4.77,0,0,1,2.25.83,2.39,2.39,0,0,1,1.1-1.53,2.71,2.71,0,0,1,1.86-.39l-.38,2Q423,78,422.81,79a2.7,2.7,0,0,1,.44,1.78,3.12,3.12,0,0,1-.5,1.4,2.93,2.93,0,0,1-1,.87,4.1,4.1,0,0,1-2.74.51,4.56,4.56,0,0,1-1.56-.49.87.87,0,0,0-.83.76q-.11.81,1.26,1l2.93.4q3,.4,2.7,2.48A3,3,0,0,1,423,89a3.71,3.71,0,0,1-1.18,1.06,5.88,5.88,0,0,1-3.85.65,6.36,6.36,0,0,1-3.38-1.35,2.47,2.47,0,0,1-1-2.23,1.71,1.71,0,0,1,.67-1.22,2.36,2.36,0,0,1,1.38-.43,1.88,1.88,0,0,1-.84-1.74,1.49,1.49,0,0,1,.54-1A2.21,2.21,0,0,1,416.46,82.29Zm1.11,4q-1.7-.16-1.86,1a1.11,1.11,0,0,0,.58,1.07,3.63,3.63,0,0,0,1.63.59,5.64,5.64,0,0,0,1.54,0,3.11,3.11,0,0,0,1-.31,1.56,1.56,0,0,0,1-1.18.69.69,0,0,0-.15-.56.94.94,0,0,0-.63-.3Zm3.56-5.67a1.74,1.74,0,0,0-.24-1.24,1.57,1.57,0,0,0-1.17-.62,1.66,1.66,0,0,0-1.32.29,1.68,1.68,0,0,0-.59,1.13,1.71,1.71,0,0,0,.27,1.25,1.64,1.64,0,0,0,1.19.64,1.55,1.55,0,0,0,1.29-.3A1.78,1.78,0,0,0,421.13,80.61Z"/><path class="cls-1" d="M430.31,78.67a4.87,4.87,0,0,1,1.61.5,3.49,3.49,0,0,1,1.21,1,4.79,4.79,0,0,1,.77,3.65,4.74,4.74,0,0,1-1.7,3.28,4,4,0,0,1-3.14.75,4.11,4.11,0,0,1-2.86-1.56,4.7,4.7,0,0,1-.77-3.61,4.75,4.75,0,0,1,1.71-3.32A4.11,4.11,0,0,1,430.31,78.67Zm1.48,4.88a3.37,3.37,0,0,0-.26-2.15,1.81,1.81,0,0,0-1.41-.89,2,2,0,0,0-1.66.48,3.08,3.08,0,0,0-.89,2,3.33,3.33,0,0,0,.27,2.15,1.82,1.82,0,0,0,1.41.89,2,2,0,0,0,1.66-.48A3.08,3.08,0,0,0,431.79,83.55Z"/><path class="cls-1" d="M435.44,88.17a1.09,1.09,0,0,1-.24-.89,1.2,1.2,0,0,1,.54-.85,1.63,1.63,0,0,1,1.18-.22,1.44,1.44,0,0,1,1.09.71,2.13,2.13,0,0,1,.26,1.43,3.21,3.21,0,0,1-1.51,2.23,3.8,3.8,0,0,1-.92.46l-1.47-1a5.93,5.93,0,0,0,1.14-.54,1.77,1.77,0,0,0,.72-.8A1.71,1.71,0,0,1,435.44,88.17Z"/><path class="cls-1" d="M457.8,85.22a12.6,12.6,0,0,1-2.48,3.45l.27.31a2.9,2.9,0,0,0,.55.51,1.59,1.59,0,0,0,.69.24,1,1,0,0,0,.77-.22,1.55,1.55,0,0,0,.48-1l1.92.26A3.82,3.82,0,0,1,459,91a2.5,2.5,0,0,1-2.17.58,3.73,3.73,0,0,1-1.54-.56,6.38,6.38,0,0,1-1.39-1.28,6.33,6.33,0,0,1-4.18.88,5.68,5.68,0,0,1-3.27-1.48,3.12,3.12,0,0,1-1.06-2.74q.32-2.33,3.67-2.41l-.25-.31a3.46,3.46,0,0,1-.95-2.74,2.43,2.43,0,0,1,1.3-1.87,4.75,4.75,0,0,1,3-.43,4.63,4.63,0,0,1,2.72,1.21,2.37,2.37,0,0,1,.74,2.07,2.8,2.8,0,0,1-1,1.86,6,6,0,0,1-2.46,1.07l2,2.37a12.2,12.2,0,0,0,2.33-3Zm-7.72.05q-2.2,0-2.38,1.36a1.56,1.56,0,0,0,.48,1.35,3,3,0,0,0,1.77.76,4.64,4.64,0,0,0,2.67-.44ZM452.65,83a1.51,1.51,0,0,0,.58-1,1.17,1.17,0,0,0-.29-1,1.74,1.74,0,0,0-1.1-.51,1.6,1.6,0,0,0-1.19.23,1.25,1.25,0,0,0-.53.87,2.08,2.08,0,0,0,.64,1.64l.36.43A4.25,4.25,0,0,0,452.65,83Z"/><path class="cls-1" d="M470.64,81.38l4,9,1.12-8.26,2.12.29L476.32,94l-2.15-.29L470,84.46,468.87,93l-2.12-.29,1.57-11.65Z"/><path class="cls-1" d="M487.28,89a4.93,4.93,0,0,1,0,1.41,8.12,8.12,0,0,1-.22,1.12l-5.64-.76a3.06,3.06,0,0,0,.29,1.79,1.72,1.72,0,0,0,1.38.86,1.42,1.42,0,0,0,1.72-.94l2.14.29a3.16,3.16,0,0,1-1.48,1.9,4,4,0,0,1-2.6.45,3.82,3.82,0,0,1-2.72-1.65,4.81,4.81,0,0,1-.75-3.52,4.76,4.76,0,0,1,1.66-3.21,3.84,3.84,0,0,1,3.06-.83,3.42,3.42,0,0,1,2.65,1.66A4,4,0,0,1,487.28,89Zm-3.35-1.38a1.76,1.76,0,0,0-1.48.39,2.65,2.65,0,0,0-.79,1.42l3.72.5a2,2,0,0,0-.64-2A1.77,1.77,0,0,0,483.93,87.64Z"/><path class="cls-1" d="M491.13,87.13l.92,6.47,2.45-5.52,1.92.26.89,6,2.62-6,2.12.29L498,96.94l-2.08-.28L495,91.21l-2.29,5-2.1-.28-1.71-9.12Z"/><path class="cls-1" d="M510,86.7l1.94,5,3.32-4.29,2.5.34L512.72,94l-.65,4.81-2.12-.29.65-4.81-3.08-7.38Z"/><path class="cls-1" d="M521.36,91a4.87,4.87,0,0,1,1.61.5,3.49,3.49,0,0,1,1.21,1,4.79,4.79,0,0,1,.77,3.65,4.74,4.74,0,0,1-1.7,3.28,4,4,0,0,1-3.14.75,4.11,4.11,0,0,1-2.86-1.56,4.7,4.7,0,0,1-.77-3.61,4.75,4.75,0,0,1,1.71-3.32A4.11,4.11,0,0,1,521.36,91Zm1.48,4.88a3.37,3.37,0,0,0-.26-2.15,1.81,1.81,0,0,0-1.41-.89,2,2,0,0,0-1.66.48,3.08,3.08,0,0,0-.89,2,3.33,3.33,0,0,0,.27,2.15,1.82,1.82,0,0,0,1.41.89,2,2,0,0,0,1.66-.48A3.08,3.08,0,0,0,522.84,95.85Z"/><path class="cls-1" d="M529.94,94.13a2.58,2.58,0,0,1,2.62-1.57,3.13,3.13,0,0,1,.76.23L533,94.9a4.72,4.72,0,0,0-1-.24q-2.12-.29-2.51,2.64l-.52,3.82-2.12-.29,1.18-8.74,2.12.29Z"/><path class="cls-1" d="M538,98l-1.08.68-.47,3.45-2.12-.29L536,89.53l2.12.29-.9,6.66,3.86-2.6,2.87.39L539.67,97l3.33,6-2.59-.35Z"/><path class="cls-1" d="M555,92.54a6,6,0,0,1,1.83.51,4.13,4.13,0,0,1,2.39,3.68l-2.32.11a3.4,3.4,0,0,0-.69-1.6,2.12,2.12,0,0,0-1.42-.77,2.36,2.36,0,0,0-2.11.76,5.2,5.2,0,0,0-1.22,3,5.65,5.65,0,0,0,.3,3.17,2.24,2.24,0,0,0,1.81,1.37,2.63,2.63,0,0,0,1.95-.35,2.07,2.07,0,0,0,.84-1.47l2.28.31a3.8,3.8,0,0,1-1.66,2.86,5.14,5.14,0,0,1-3.56.61,4.61,4.61,0,0,1-3.46-2.11,6.83,6.83,0,0,1-.78-4.67,6.64,6.64,0,0,1,2-4.3A4.6,4.6,0,0,1,555,92.54Z"/><path class="cls-1" d="M562.08,93.84a1.22,1.22,0,0,1,.46-.86,1.58,1.58,0,0,1,1.93.26,1.36,1.36,0,0,1-.24,1.81,1.58,1.58,0,0,1-1.93-.26A1.22,1.22,0,0,1,562.08,93.84ZM562,96.68l2.12.29-1.18,8.74-2.12-.29Z"/><path class="cls-1" d="M571.43,106.64a5.55,5.55,0,0,1-1.93.21,4,4,0,0,1-1.17-.32,2.73,2.73,0,0,1-.84-.61,2.6,2.6,0,0,1-.55-2.14l.66-4.88-1.22-.16.19-1.42,1.22.16.31-2.3,2.12.29-.31,2.3,2.37.32-.19,1.42-2.37-.32-.65,4.81a.94.94,0,0,0,.88,1.22,4.36,4.36,0,0,0,1.39-.11Z"/><path class="cls-1" d="M575.83,98.57l1.25,6.57,2.68-6,2.15.29-4.73,9.85a5.34,5.34,0,0,1-1.57,2.07,2.72,2.72,0,0,1-2,.43,5.29,5.29,0,0,1-2.26-.89l.25-1.87a3.52,3.52,0,0,0,1.81.85,1.28,1.28,0,0,0,1.1-.36,4,4,0,0,0,.83-1.22l.38-.81-2.32-9.2Z"/></svg>