<svg id="Layer_1" data-name="Layer 1" xmlns="http://www.w3.org/2000/svg" viewBox="0 0 629.53 156.39"><defs><style>.cls-1{fill:#1414ef;}.cls-2{fill:#fff;stroke-width:1.2px;}.cls-2,.cls-3{stroke:#1414ef;stroke-miterlimit:10;}.cls-3{fill:#feea80;stroke-width:1.3px;}</style></defs><title>title</title><path class="cls-1" d="M7,16H9.91v1.57H2.28V16H5.13V6.75L2.85,8.14,2,6.72,5.67,4.47H7Z"/><path class="cls-1" d="M20.35,12a3.29,3.29,0,0,1,.6,2,3.28,3.28,0,0,1-1.2,2.69,5,5,0,0,1-3.26,1A7.42,7.42,0,0,1,14,17.25a5.59,5.59,0,0,1-2-1.16l.69-1.41a5.82,5.82,0,0,0,3.72,1.43,3,3,0,0,0,2-.56,2.06,2.06,0,0,0,.68-1.68,2,2,0,0,0-.69-1.64,3.37,3.37,0,0,0-2.1-.55H14.69V10.14H16a3.26,3.26,0,0,0,2.07-.56,2,2,0,0,0,.71-1.66,1.91,1.91,0,0,0-.59-1.51,2.42,2.42,0,0,0-1.67-.53,5.72,5.72,0,0,0-3.63,1.43L12.23,5.9a5.41,5.41,0,0,1,2-1.16,7.23,7.23,0,0,1,2.44-.42,4.44,4.44,0,0,1,2.93.91A3,3,0,0,1,20.64,7.7a3.48,3.48,0,0,1-.54,1.93,3,3,0,0,1-1.5,1.2A3.23,3.23,0,0,1,20.35,12Z"/><path class="cls-2" d="M69.84,1.78,87.19,45.07q1.24,3.3,2.48,6a4,4,0,0,0,2.64,2,11,11,0,0,0,3.14.74q.33,0,.33,1.49a2.78,2.78,0,0,1-.17,1.24q-9.91-.5-10.41-.5t-10.74.5A2.33,2.33,0,0,1,74.13,55c0-.8.11-1.2.33-1.2a10.64,10.64,0,0,0,2.73-.5q1.74-.5,2.07-1.16a2.37,2.37,0,0,0,.25-1.07,19,19,0,0,0-1.57-5.7L75,37.71a.91.91,0,0,0-.58-.33q-2.64-.16-7.1-.17t-9.42.25c-.33,0-.5.11-.5.33l-3.14,7.68a23.45,23.45,0,0,0-1.57,5.37,1.84,1.84,0,0,0,.91,1.65,8.28,8.28,0,0,0,2.6.91,14.25,14.25,0,0,0,2.52.41Q59,53.91,59,55a5.43,5.43,0,0,1-.17,1.57q-.41,0-3.88-.25t-5.62-.25q-2.15,0-5.08.21l-4.17.29a1.76,1.76,0,0,1-.33-1.24q0-1.49.17-1.49a11.93,11.93,0,0,0,3.18-.7,5.09,5.09,0,0,0,2.77-1.61A39.26,39.26,0,0,0,49,45.07L64.38,7.89q1.9-5,3.06-5.95a2.11,2.11,0,0,1,1.4-.58A1.35,1.35,0,0,1,69.84,1.78ZM59.92,32.51q2.89.25,5.95.25,2.89,0,6.77-.25l.17-.33L66.53,15.66,59.76,32.18C59.76,32.4,59.81,32.51,59.92,32.51Z"/><path class="cls-2" d="M117.67,29.7A28.28,28.28,0,0,1,125.6,9.63,25.45,25.45,0,0,1,144.85,1.2q7.27,0,19.17,3.06.25.08.7,5.49t.45,6.4q0,1-1.65,1a3,3,0,0,1-1.82-.5,14.93,14.93,0,0,0-.7-2.31,16.33,16.33,0,0,0-1.65-2.93,12.08,12.08,0,0,0-2.89-3,16.51,16.51,0,0,0-4.63-2.19,21.59,21.59,0,0,0-6.65-.95,14.6,14.6,0,0,0-12.64,6.44Q128,18.14,128,28.21a31.69,31.69,0,0,0,2.11,11.44A22.52,22.52,0,0,0,136.8,49a16.15,16.15,0,0,0,10.7,3.84q5.2,0,7.93-1.57a2.16,2.16,0,0,0,.83-1.9l-.08-5.95v-.58a25.11,25.11,0,0,0-.58-6.69q-.33-1.07-2.44-1.57a15.9,15.9,0,0,0-3.51-.5q-.33,0-.33-1.2a2.34,2.34,0,0,1,.33-1.53q.91,0,5,.25t6.57.25l10-.5a4.45,4.45,0,0,1,.25,1.4c0,.94-.11,1.4-.33,1.4a10.57,10.57,0,0,0-2.19.5,21.54,21.54,0,0,0-2.44.83q-1.08.66-1.07,6,0,1.74,0,3.47t0,1.9a7.13,7.13,0,0,0,.41,2.56,7.07,7.07,0,0,1,.41,1.24q0,1.16-1.82,2-3.31,1.49-4.87,2.07a43.7,43.7,0,0,1-6,1.4,53.54,53.54,0,0,1-9.79.83,24.55,24.55,0,0,1-18.55-8.1A27,27,0,0,1,117.67,29.7Z"/><path class="cls-2" d="M192.77,19.79a15.32,15.32,0,0,1,6.94,1.53,13.07,13.07,0,0,1,4.79,3.88,19.21,19.21,0,0,1,2.64,4.87,14.24,14.24,0,0,1,.91,4.83q0,1.82-.62,2.27a4.69,4.69,0,0,1-2.52.45H185.17q-.58,0-.58.5a16.06,16.06,0,0,0,1.07,5.78,11.36,11.36,0,0,0,3.68,4.87,9.72,9.72,0,0,0,6.24,2.07,22.66,22.66,0,0,0,2.4-.12,12.37,12.37,0,0,0,2.15-.41q1-.29,1.73-.54a7.1,7.1,0,0,0,1.53-.74l1.12-.7q.33-.21,1.65-1.12a1.36,1.36,0,0,1,.41.5,1.6,1.6,0,0,1,.25.83,2.54,2.54,0,0,1-.5,1.57,13.46,13.46,0,0,1-4.87,4.46,15.33,15.33,0,0,1-8.18,2.23,16.73,16.73,0,0,1-12.39-5.33,17.82,17.82,0,0,1-5.2-12.93q0-8.34,4.83-13.55A16,16,0,0,1,192.77,19.79Zm-.58,3.8a5.84,5.84,0,0,0-3.55,1.16,7.79,7.79,0,0,0-2.4,2.81,15.79,15.79,0,0,0-1.2,3.1,10.11,10.11,0,0,0-.37,2.44c0,.39.17.58.5.58h13.38q.74,0,.74-1.24a10.71,10.71,0,0,0-1.94-5.87A5.92,5.92,0,0,0,192.19,23.59Z"/><path class="cls-2" d="M238.86,19.79q10.66,0,10.66,16.94v7.85A34.6,34.6,0,0,0,250.1,52q.16.58,2.27,1.2a12.65,12.65,0,0,0,2.85.62c.17,0,.26.4.29,1.2a4.67,4.67,0,0,1-.12,1.61q-.5-.08-4.34-.33t-5.74-.25q-2,0-5.49.25t-4.25.33a2.42,2.42,0,0,1-.33-1.57q0-1.24.33-1.24a9.82,9.82,0,0,0,2.77-.62q1.86-.62,2-1.2a23.75,23.75,0,0,0,.66-6V38.13q0-6.86-1.86-9.58t-5.91-2.73a7.65,7.65,0,0,0-4.63,1.45,4,4,0,0,0-2,3.1V44.57a34.56,34.56,0,0,0,.58,7.44q.16.58,2.19,1.2a11.89,11.89,0,0,0,2.69.62c.22,0,.34.4.37,1.2a4.7,4.7,0,0,1-.12,1.61q-.66-.08-4.34-.33t-5.58-.25q-2,0-5.74.25t-4.42.33a2.42,2.42,0,0,1-.33-1.57q0-1.24.33-1.24a11.52,11.52,0,0,0,3-.62q2-.62,2.19-1.2a27,27,0,0,0,.58-6V32.51q0-3.88-1.32-5.29A4,4,0,0,0,214.86,26a9.4,9.4,0,0,0-2-.5c-.52-.05-.78-.14-.78-.25q0-2.4.41-2.48a117.19,117.19,0,0,0,13.3-2.48.54.54,0,0,1,.21-.12.79.79,0,0,1,.25,0h.21c.22,0,.41.19.58.58a2.51,2.51,0,0,1,.25.91,28.12,28.12,0,0,0-.33,3A.65.65,0,0,0,227,25a1.23,1.23,0,0,0,.41-.25,18.31,18.31,0,0,1,5.08-3.47A14.46,14.46,0,0,1,238.86,19.79Z"/><path class="cls-2" d="M277,19.79A15.32,15.32,0,0,1,284,21.32a13.07,13.07,0,0,1,4.79,3.88,19.21,19.21,0,0,1,2.64,4.87,14.24,14.24,0,0,1,.91,4.83q0,1.82-.62,2.27a4.69,4.69,0,0,1-2.52.45H269.43q-.58,0-.58.5a16.06,16.06,0,0,0,1.07,5.78,11.36,11.36,0,0,0,3.68,4.87,9.72,9.72,0,0,0,6.24,2.07,22.66,22.66,0,0,0,2.4-.12,12.37,12.37,0,0,0,2.15-.41q1-.29,1.73-.54a7.1,7.1,0,0,0,1.53-.74l1.12-.7q.33-.21,1.65-1.12a1.36,1.36,0,0,1,.41.5,1.6,1.6,0,0,1,.25.83,2.54,2.54,0,0,1-.5,1.57,13.46,13.46,0,0,1-4.87,4.46,15.33,15.33,0,0,1-8.18,2.23,16.73,16.73,0,0,1-12.39-5.33,17.82,17.82,0,0,1-5.2-12.93q0-8.34,4.83-13.55A16,16,0,0,1,277,19.79Zm-.58,3.8a5.84,5.84,0,0,0-3.55,1.16,7.79,7.79,0,0,0-2.4,2.81,15.79,15.79,0,0,0-1.2,3.1,10.11,10.11,0,0,0-.37,2.44c0,.39.17.58.5.58h13.38q.74,0,.74-1.24a10.71,10.71,0,0,0-1.94-5.87A5.92,5.92,0,0,0,276.45,23.59Z"/><path class="cls-2" d="M320.32,19.79q4.54,0,6.77,2.73,0,7-4,7a4.91,4.91,0,0,1-3.22-1.65,5.17,5.17,0,0,0-3.55-1.65,4.43,4.43,0,0,0-4,2.6,11,11,0,0,0-1.45,5.41V44.57a34.6,34.6,0,0,0,.58,7.44q.16.58,2.19,1.2a11.67,11.67,0,0,0,2.77.62c.17,0,.26.4.29,1.2a8.63,8.63,0,0,1,0,1.61q-.66-.08-4.38-.33t-5.62-.25q-2,0-5.74.25t-4.42.33a2.42,2.42,0,0,1-.33-1.57q0-1.24.33-1.24a11.52,11.52,0,0,0,3-.62q2-.62,2.19-1.2a27,27,0,0,0,.58-6V32.51q0-3.88-1.32-5.29A4,4,0,0,0,299.13,26a9.41,9.41,0,0,0-2-.5c-.52-.05-.78-.14-.78-.25q0-2.4.41-2.48a117.21,117.21,0,0,0,13.3-2.48,5,5,0,0,1,.66-.17c.22,0,.41.19.58.58a2,2,0,0,1,.21,1q0,.37-.12,1.16t-.21,1.65a10.5,10.5,0,0,0-.12,1.12,15.16,15.16,0,0,1,4-4A9.05,9.05,0,0,1,320.32,19.79Z"/><path class="cls-2" d="M349,19.79q5.12,0,7.68,2.69t2.56,9.21V48a3.76,3.76,0,0,0,.74,2.52,2.48,2.48,0,0,0,2,.87,5.15,5.15,0,0,0,2.81-1.07c.33.11.5.41.5.91a4.91,4.91,0,0,1-.5,2.48,20.43,20.43,0,0,1-3.3,2.07,8.61,8.61,0,0,1-4,1.07,6,6,0,0,1-3.72-1.41,6.77,6.77,0,0,1-2.4-3.06l-.62.54q-.54.46-1.49,1.12a24.48,24.48,0,0,1-2.15,1.32,13.17,13.17,0,0,1-2.81,1.12,12,12,0,0,1-3.26.45,9.86,9.86,0,0,1-6.73-2.27,7.85,7.85,0,0,1-2.6-6.24,7.61,7.61,0,0,1,1-3.72,9.88,9.88,0,0,1,2.27-2.85,16.93,16.93,0,0,1,3.55-2.19A33.8,33.8,0,0,1,342.34,38q1.61-.54,4.13-1.28T350,35.65a1.3,1.3,0,0,0,.74-1.32V29.78a7.09,7.09,0,0,0-1.32-4.54,4.31,4.31,0,0,0-3.55-1.65A5,5,0,0,0,342,25.12a6.18,6.18,0,0,0-1.4,4.34,2.68,2.68,0,0,1-1.24,2.44,5.14,5.14,0,0,1-2.81.78q-3.06,0-4.3-2,0-4,5.41-7.43A20.72,20.72,0,0,1,349,19.79Zm-3.72,31.72a6.4,6.4,0,0,0,3.84-1.16,3.27,3.27,0,0,0,1.61-2.64V39.28q-.58.25-2.44.83t-2.85,1a22.56,22.56,0,0,0-2.31,1.16,5,5,0,0,0-1.94,1.82,4.55,4.55,0,0,0-.62,2.31,5.09,5.09,0,0,0,1.32,3.88A4.75,4.75,0,0,0,345.27,51.51Z"/><path class="cls-2" d="M373.77,25.57h-5q-.58,0-.58-2.15a2.06,2.06,0,0,1,.08-.74,23.11,23.11,0,0,0,6.36-4.38q1.07-1.07,2.35-2.44t3-3.51a5.88,5.88,0,0,1,1.57.21c.5.14.74.29.74.46v8.1l6,0,4.09,0q.66,0,.66.74a8,8,0,0,1-.83,3.63h-9.91V45.48a7.84,7.84,0,0,0,1.4,5,4.72,4.72,0,0,0,3.88,1.74A7.79,7.79,0,0,0,389.3,52a8.76,8.76,0,0,0,1.49-.45q.58-.25,1.07-.5a2.59,2.59,0,0,1,.58-.25q.33-.08.74.74t.33,1.07q-.5,1.16-3.51,2.68a13,13,0,0,1-5.91,1.53,10.42,10.42,0,0,1-7.31-2.77q-3-2.77-3-8.55Z"/><path class="cls-2" d="M412.6,44.57a30.37,30.37,0,0,0,.66,7.44q.16.58,2.23,1.2a12.15,12.15,0,0,0,2.81.62c.22,0,.34.4.37,1.2a4.7,4.7,0,0,1-.12,1.61q-.58-.08-4.42-.33t-5.66-.25q-2.07,0-5.82.25t-4.34.33a2.42,2.42,0,0,1-.33-1.57q0-1.24.33-1.24a12,12,0,0,0,3-.62q2.06-.62,2.23-1.2a27,27,0,0,0,.58-6V32.51q0-3.88-1.32-5.29a4.6,4.6,0,0,0-1.9-1.24,8.68,8.68,0,0,0-2-.5c-.55-.05-.83-.14-.83-.25q0-2.4.5-2.48a63.43,63.43,0,0,0,6.69-1,64.84,64.84,0,0,0,6.53-1.49,4.81,4.81,0,0,0,.66-.17q.41,0,.66.58a1.52,1.52,0,0,1,.17.91,70.79,70.79,0,0,0-.66,7.1ZM404,10a5,5,0,0,1-1.49-3.63A4.89,4.89,0,0,1,404,2.77a5.12,5.12,0,0,1,8.76,3.59A5,5,0,0,1,411.28,10,5.09,5.09,0,0,1,404,10Z"/><path class="cls-2" d="M441.35,19.79a18.21,18.21,0,0,1,13.26,5.41,17.7,17.7,0,0,1,5.49,13.09,18.71,18.71,0,0,1-37.42,0,17.8,17.8,0,0,1,5.41-13.14A18.1,18.1,0,0,1,441.35,19.79Zm-1.07,3.88a6.65,6.65,0,0,0-6,3.76,17.76,17.76,0,0,0-2.15,9A24.08,24.08,0,0,0,434.78,48q2.68,5,7.48,5a6.73,6.73,0,0,0,6.07-3.8,17.57,17.57,0,0,0,2.19-8.92,28.36,28.36,0,0,0-1.07-8A14.57,14.57,0,0,0,446,26.15,7.66,7.66,0,0,0,440.28,23.67Z"/><path class="cls-2" d="M491.58,19.79q10.66,0,10.66,16.94v7.85a34.56,34.56,0,0,0,.58,7.44q.16.58,2.27,1.2a12.65,12.65,0,0,0,2.85.62c.17,0,.26.4.29,1.2a4.7,4.7,0,0,1-.12,1.61q-.5-.08-4.34-.33T498,56.05q-2,0-5.49.25t-4.25.33a2.42,2.42,0,0,1-.33-1.57q0-1.24.33-1.24a9.82,9.82,0,0,0,2.77-.62q1.86-.62,2-1.2a23.72,23.72,0,0,0,.66-6V38.13q0-6.86-1.86-9.58T486,25.82a7.65,7.65,0,0,0-4.63,1.45,4,4,0,0,0-2,3.1V44.57a34.56,34.56,0,0,0,.58,7.44q.16.58,2.19,1.2a11.88,11.88,0,0,0,2.69.62c.22,0,.34.4.37,1.2a4.68,4.68,0,0,1-.12,1.61q-.66-.08-4.34-.33t-5.58-.25q-2,0-5.74.25t-4.42.33a2.42,2.42,0,0,1-.33-1.57q0-1.24.33-1.24a11.52,11.52,0,0,0,3-.62q2-.62,2.19-1.2a27,27,0,0,0,.58-6V32.51q0-3.88-1.32-5.29A4,4,0,0,0,467.58,26a9.41,9.41,0,0,0-2-.5c-.52-.05-.78-.14-.78-.25q0-2.4.41-2.48a117.17,117.17,0,0,0,13.3-2.48.54.54,0,0,1,.21-.12.78.78,0,0,1,.25,0h.21c.22,0,.41.19.58.58a2.51,2.51,0,0,1,.25.91,28.12,28.12,0,0,0-.33,3,.65.65,0,0,0,.08.41,1.22,1.22,0,0,0,.41-.25,18.32,18.32,0,0,1,5.08-3.47A14.46,14.46,0,0,1,491.58,19.79Z"/><path class="cls-2" d="M69.84,80.78l17.35,43.29q1.24,3.3,2.48,6a4,4,0,0,0,2.64,2,11,11,0,0,0,3.14.74q.33,0,.33,1.49a2.78,2.78,0,0,1-.17,1.24q-9.91-.5-10.41-.5t-10.74.5a2.33,2.33,0,0,1-.33-1.53c0-.8.11-1.2.33-1.2a10.64,10.64,0,0,0,2.73-.5q1.74-.5,2.07-1.16a2.37,2.37,0,0,0,.25-1.07,19,19,0,0,0-1.57-5.7L75,116.71a.91.91,0,0,0-.58-.33q-2.64-.16-7.1-.17t-9.42.25c-.33,0-.5.11-.5.33l-3.14,7.68a23.45,23.45,0,0,0-1.57,5.37,1.84,1.84,0,0,0,.91,1.65,8.28,8.28,0,0,0,2.6.91,14.25,14.25,0,0,0,2.52.41q.25.08.25,1.16a5.43,5.43,0,0,1-.17,1.57q-.41,0-3.88-.25t-5.62-.25q-2.15,0-5.08.21l-4.17.29a1.76,1.76,0,0,1-.33-1.24q0-1.49.17-1.49a11.93,11.93,0,0,0,3.18-.7,5.09,5.09,0,0,0,2.77-1.61A39.26,39.26,0,0,0,49,124.07L64.38,86.89q1.9-5,3.06-5.95a2.11,2.11,0,0,1,1.4-.58A1.35,1.35,0,0,1,69.84,80.78Zm-9.91,30.73q2.89.25,5.95.25,2.89,0,6.77-.25l.17-.33L66.53,94.66l-6.77,16.52C59.76,111.4,59.81,111.51,59.92,111.51Z"/><path class="cls-2" d="M123.39,77.89a16.27,16.27,0,0,1,5.74.87,5.77,5.77,0,0,1,3,2.11,9.27,9.27,0,0,1-.45,4.58,3,3,0,0,1-3,2,3.22,3.22,0,0,1-2.52-1.36q-1.12-1.36-2.35-2.73A3.8,3.8,0,0,0,120.92,82a4.4,4.4,0,0,0-3.72,2.15,13.9,13.9,0,0,0-2.11,5.21,33.72,33.72,0,0,0-.62,6.69v3.8c0,.06.05.14.17.25a.47.47,0,0,0,.33.17h9.09a.66.66,0,0,1,.41.08.87.87,0,0,1,.08.5,8.49,8.49,0,0,1-1,3.8H115a.44.44,0,0,0-.5.5v18.42a31.6,31.6,0,0,0,.66,7.44q.16.58,2.19,1.2a11.67,11.67,0,0,0,2.77.62c.17,0,.26.4.29,1.2a4.67,4.67,0,0,1-.12,1.61q-.5-.08-4.3-.33t-5.78-.25q-2,0-5.62.25t-4.3.33a1.56,1.56,0,0,1-.33-.91,4.93,4.93,0,0,1,0-1.28c.05-.41.17-.62.33-.62a11.08,11.08,0,0,0,2.89-.62q2-.62,2.15-1.2a27.36,27.36,0,0,0,.74-6.77v-19c0-.38-.17-.58-.5-.58h-5c-.11,0-.17-.17-.17-.5a4.41,4.41,0,0,1,1.16-2.4,3.32,3.32,0,0,1,2.64-1.49h1.32a.44.44,0,0,0,.5-.5V99a22.47,22.47,0,0,1,5.16-14.87Q116.37,77.89,123.39,77.89Z"/><path class="cls-2" d="M133.47,104.57h-5q-.58,0-.58-2.15a2.06,2.06,0,0,1,.08-.74,23.11,23.11,0,0,0,6.36-4.38q1.07-1.07,2.35-2.44t3-3.51a5.88,5.88,0,0,1,1.57.21c.5.14.74.29.74.46v8.1l6,0,4.09,0q.66,0,.66.74a8,8,0,0,1-.83,3.63H142v19.91a7.84,7.84,0,0,0,1.4,5,4.72,4.72,0,0,0,3.88,1.74A7.79,7.79,0,0,0,149,131a8.76,8.76,0,0,0,1.49-.45q.58-.25,1.07-.5a2.59,2.59,0,0,1,.58-.25q.33-.08.74.74t.33,1.07q-.5,1.16-3.51,2.68a13,13,0,0,1-5.91,1.53,10.42,10.42,0,0,1-7.31-2.77q-3-2.77-3-8.55Z"/><path class="cls-2" d="M174.53,98.79a15.31,15.31,0,0,1,6.94,1.53,13.07,13.07,0,0,1,4.79,3.88,19.21,19.21,0,0,1,2.64,4.87,14.24,14.24,0,0,1,.91,4.83q0,1.82-.62,2.27a4.69,4.69,0,0,1-2.52.45H166.93q-.58,0-.58.5a16.06,16.06,0,0,0,1.07,5.78,11.36,11.36,0,0,0,3.68,4.87,9.72,9.72,0,0,0,6.24,2.07,22.66,22.66,0,0,0,2.4-.12,12.37,12.37,0,0,0,2.15-.41q1-.29,1.73-.54a7.09,7.09,0,0,0,1.53-.74l1.12-.7q.33-.21,1.65-1.12a1.36,1.36,0,0,1,.41.5,1.6,1.6,0,0,1,.25.83,2.54,2.54,0,0,1-.5,1.57,13.45,13.45,0,0,1-4.87,4.46A15.33,15.33,0,0,1,175,135.8a16.73,16.73,0,0,1-12.39-5.33,17.82,17.82,0,0,1-5.2-12.93q0-8.34,4.83-13.55A16,16,0,0,1,174.53,98.79Zm-.58,3.8a5.84,5.84,0,0,0-3.55,1.16,7.79,7.79,0,0,0-2.4,2.81,15.76,15.76,0,0,0-1.2,3.1,10.08,10.08,0,0,0-.37,2.44c0,.39.17.58.5.58h13.38q.74,0,.74-1.24a10.71,10.71,0,0,0-1.94-5.87A5.92,5.92,0,0,0,174,102.59Z"/><path class="cls-2" d="M217.82,98.79q4.54,0,6.77,2.73,0,7-4,7a4.92,4.92,0,0,1-3.22-1.65,5.17,5.17,0,0,0-3.55-1.65,4.43,4.43,0,0,0-4,2.6,11,11,0,0,0-1.45,5.41v10.33A34.56,34.56,0,0,0,209,131q.16.58,2.19,1.2a11.68,11.68,0,0,0,2.77.62c.17,0,.26.4.29,1.2a8.6,8.6,0,0,1,0,1.61q-.66-.08-4.38-.33t-5.62-.25q-2,0-5.74.25t-4.42.33a2.42,2.42,0,0,1-.33-1.57q0-1.24.33-1.24a11.52,11.52,0,0,0,3-.62q2-.62,2.19-1.2a27,27,0,0,0,.58-6V111.51q0-3.88-1.32-5.29a4,4,0,0,0-1.86-1.24,9.41,9.41,0,0,0-2-.5c-.52-.05-.78-.14-.78-.25q0-2.4.41-2.48a117.17,117.17,0,0,0,13.3-2.48,5,5,0,0,1,.66-.17c.22,0,.41.19.58.58a2,2,0,0,1,.21,1q0,.37-.12,1.16t-.21,1.65a10.64,10.64,0,0,0-.12,1.12,15.17,15.17,0,0,1,4-4A9.05,9.05,0,0,1,217.82,98.79Z"/><path class="cls-3" d="M513.57,78.59,276.3,85.37A17.75,17.75,0,0,1,258.08,68.1h0a17.75,17.75,0,0,1,17.27-18.23L512.61,43.1a17.75,17.75,0,0,1,18.23,17.27h0A17.75,17.75,0,0,1,513.57,78.59Z"/><path class="cls-1" d="M298.28,58.87a7.83,7.83,0,0,1,2.45.25,5.35,5.35,0,0,1,3.86,4.17l-2.94.65A4.41,4.41,0,0,0,300.43,62a2.75,2.75,0,0,0-2-.67,3.06,3.06,0,0,0-2.53,1.43,6.74,6.74,0,0,0-.91,4.06,7.32,7.32,0,0,0,1.08,4,2.91,2.91,0,0,0,2.61,1.35,3.4,3.4,0,0,0,2.41-.87,2.68,2.68,0,0,0,.75-2.06l3-.11a4.92,4.92,0,0,1-1.49,4,6.65,6.65,0,0,1-4.42,1.56A6,6,0,0,1,294,72.78a8.86,8.86,0,0,1-2-5.8,8.6,8.6,0,0,1,1.64-5.93A6,6,0,0,1,298.28,58.87Z"/><path class="cls-1" d="M312.31,62.19a6.33,6.33,0,0,1,2.17.29,4.52,4.52,0,0,1,1.78,1.05A6.21,6.21,0,0,1,318,68a6.14,6.14,0,0,1-1.46,4.56,5.18,5.18,0,0,1-3.84,1.64,5.33,5.33,0,0,1-4-1.36A6.09,6.09,0,0,1,307,68.42a6.16,6.16,0,0,1,1.45-4.61A5.33,5.33,0,0,1,312.31,62.19Zm3,5.91a4.37,4.37,0,0,0-.8-2.68,2.35,2.35,0,0,0-2-.83,2.62,2.62,0,0,0-2,1,4,4,0,0,0-.7,2.74,4.31,4.31,0,0,0,.81,2.68,2.36,2.36,0,0,0,2,.83,2.6,2.6,0,0,0,2-1A4,4,0,0,0,315.27,68.09Z"/><path class="cls-1" d="M331.33,64a3.91,3.91,0,0,1,3.78-2.6,3.86,3.86,0,0,1,3.22,1.27,5.62,5.62,0,0,1,1.21,3.62l.24,6.66L337,73l-.24-6.66a2.69,2.69,0,0,0-.68-1.89,2.25,2.25,0,0,0-1.74-.58,2.15,2.15,0,0,0-1.77,1,5.14,5.14,0,0,0-.65,2.94l.19,5.35-2.77.1-.24-6.66a2.69,2.69,0,0,0-.68-1.89,2.25,2.25,0,0,0-1.74-.58,2.35,2.35,0,0,0-1.85,1.05,4.87,4.87,0,0,0-.73,3l.19,5.28-2.77.1-.41-11.4,2.42-.09.38,2a3.77,3.77,0,0,1,3.53-2.41,4.09,4.09,0,0,1,2.4.57A4,4,0,0,1,331.33,64Z"/><path class="cls-1" d="M343.15,57.69a1.58,1.58,0,0,1,.4-1.2,2,2,0,0,1,2.52-.09,1.76,1.76,0,0,1,.09,2.37,2,2,0,0,1-2.52.09A1.58,1.58,0,0,1,343.15,57.69Zm.46,3.65,2.77-.1.41,11.43-2.77.1Z"/><path class="cls-1" d="M353.87,63a4.15,4.15,0,0,1,6.76-1.14,5.84,5.84,0,0,1,1.2,3.62l.24,6.66-2.77.1-.24-6.66a2.69,2.69,0,0,0-.68-1.89,2.25,2.25,0,0,0-1.74-.58,2.35,2.35,0,0,0-1.85,1.05,4.87,4.87,0,0,0-.73,3l.19,5.28-2.77.1-.41-11.4,2.42-.09Z"/><path class="cls-1" d="M366.92,67.26a3.69,3.69,0,0,1-1.49-2.88,3.65,3.65,0,0,1,1.35-3.06A5.09,5.09,0,0,1,370,60.1a6.18,6.18,0,0,1,3.06.57,3.09,3.09,0,0,1,1.07-2.2,3.52,3.52,0,0,1,2.29-.91l0,2.66q-2,.07-2,1.41a3.5,3.5,0,0,1,.95,2.17,4,4,0,0,1-.33,1.9,3.79,3.79,0,0,1-1,1.32,5.31,5.31,0,0,1-3.38,1.25,5.91,5.91,0,0,1-2.1-.28,1.13,1.13,0,0,0-.9,1.16q0,1.06,1.82,1l3.82-.14q3.89-.14,4,2.58a3.85,3.85,0,0,1-.39,1.81A4.8,4.8,0,0,1,375.48,76a7.63,7.63,0,0,1-4.78,1.68,8.24,8.24,0,0,1-4.62-1,3.2,3.2,0,0,1-1.74-2.64,2.22,2.22,0,0,1,.58-1.7,3.06,3.06,0,0,1,1.67-.85,2.44,2.44,0,0,1-1.46-2,1.93,1.93,0,0,1,.47-1.39A2.87,2.87,0,0,1,366.92,67.26Zm2.29,4.85q-2.2.17-2.15,1.75a1.44,1.44,0,0,0,1,1.25,4.71,4.71,0,0,0,2.21.4,7.32,7.32,0,0,0,2-.28,4,4,0,0,0,1.19-.61,2,2,0,0,0,1-1.73.9.9,0,0,0-.32-.68,1.22,1.22,0,0,0-.87-.24Zm3.3-8a2.26,2.26,0,0,0-.58-1.53A2,2,0,0,0,370.3,62a2,2,0,0,0-2.13,2.23,2.21,2.21,0,0,0,.62,1.54,2.13,2.13,0,0,0,1.66.55,2,2,0,0,0,1.58-.67A2.3,2.3,0,0,0,372.51,64.09Z"/><path class="cls-1" d="M388.66,55.91l3.47-.13,5.55,15-2.93.11-1.17-3.25-5.65.2-1,3.32-2.93.11Zm-.11,9.87,4.27-.15-2.35-6.47Z"/><path class="cls-1" d="M407.88,68.39a3.61,3.61,0,0,1-3.39,2.4q-3,.11-4.07-2.23a5.06,5.06,0,0,1-.42-2l-.26-7.27,2.77-.1.25,7a2.31,2.31,0,0,0,.6,1.66,1.78,1.78,0,0,0,1.35.5,3.48,3.48,0,0,0,1.32-.27,2.56,2.56,0,0,0,.91-.7,4.19,4.19,0,0,0,.82-2.73l-.2-5.63,2.77-.1.41,11.43-2.77.1Z"/><path class="cls-1" d="M415.91,65.49a3.69,3.69,0,0,1-1.49-2.88,3.65,3.65,0,0,1,1.35-3.06,5.09,5.09,0,0,1,3.19-1.22,6.18,6.18,0,0,1,3.06.57,3.09,3.09,0,0,1,1.07-2.2,3.52,3.52,0,0,1,2.29-.91l0,2.66q-2,.07-2,1.41a3.5,3.5,0,0,1,.95,2.17,4,4,0,0,1-.33,1.9,3.79,3.79,0,0,1-1,1.32,5.31,5.31,0,0,1-3.38,1.25,5.91,5.91,0,0,1-2.1-.28,1.13,1.13,0,0,0-.9,1.16q0,1.06,1.82,1l3.82-.14q3.89-.14,4,2.58a3.85,3.85,0,0,1-.39,1.81,4.8,4.8,0,0,1-1.27,1.61,7.63,7.63,0,0,1-4.78,1.68,8.24,8.24,0,0,1-4.62-1,3.2,3.2,0,0,1-1.74-2.64,2.22,2.22,0,0,1,.58-1.7,3.06,3.06,0,0,1,1.67-.85,2.44,2.44,0,0,1-1.46-2,1.93,1.93,0,0,1,.47-1.39A2.87,2.87,0,0,1,415.91,65.49Zm2.29,4.85q-2.2.17-2.15,1.75a1.44,1.44,0,0,0,1,1.25,4.71,4.71,0,0,0,2.21.4,7.32,7.32,0,0,0,2-.28,4,4,0,0,0,1.19-.61,2,2,0,0,0,1-1.73.9.9,0,0,0-.32-.68,1.22,1.22,0,0,0-.87-.24Zm3.3-8a2.26,2.26,0,0,0-.58-1.53,2,2,0,0,0-1.63-.54,2,2,0,0,0-2.13,2.23,2.21,2.21,0,0,0,.62,1.54,2.13,2.13,0,0,0,1.66.55A2,2,0,0,0,421,63.9,2.3,2.3,0,0,0,421.5,62.32Z"/><path class="cls-1" d="M436.25,67.37a3.61,3.61,0,0,1-3.39,2.4q-3,.11-4.07-2.23a5.06,5.06,0,0,1-.42-2l-.26-7.27,2.77-.1.25,7a2.31,2.31,0,0,0,.6,1.66,1.78,1.78,0,0,0,1.35.5,3.48,3.48,0,0,0,1.32-.27,2.56,2.56,0,0,0,.91-.7,4.19,4.19,0,0,0,.82-2.73l-.2-5.63,2.77-.1.41,11.43-2.77.1Z"/><path class="cls-1" d="M444.88,65.64q.11,1.62,2.43,1.53a2.58,2.58,0,0,0,1.45-.44,1.1,1.1,0,0,0,.54-.92,1,1,0,0,0-.38-.79,3.46,3.46,0,0,0-1.12-.48l-2.52-.8q-2.8-.86-2.88-3a2.7,2.7,0,0,1,1.22-2.38,6.16,6.16,0,0,1,3.46-1,5.24,5.24,0,0,1,3.41.84,3.13,3.13,0,0,1,1.32,2.37l-2.6.09a1.15,1.15,0,0,0-.57-.87,2.53,2.53,0,0,0-1.42-.28,2.4,2.4,0,0,0-1.41.42,1,1,0,0,0-.47.85q0,.82,1.43,1.17l2.73.91a5.37,5.37,0,0,1,2.09,1.06,2.39,2.39,0,0,1,.78,1.77,3,3,0,0,1-1.25,2.49,5.79,5.79,0,0,1-3.62,1.21,6.13,6.13,0,0,1-3.7-.86,3.31,3.31,0,0,1-1.51-2.75Z"/><path class="cls-1" d="M462.24,68.21a7.2,7.2,0,0,1-2.42.7,5.19,5.19,0,0,1-1.57-.15,3.52,3.52,0,0,1-1.21-.59,3.37,3.37,0,0,1-1.18-2.61l-.23-6.38-1.6.06L454,57.38l1.6-.06-.11-3,2.77-.1.11,3,3.1-.11L461.5,59l-3.1.11.23,6.29q.05,1.41,1.39,1.36a5.64,5.64,0,0,0,1.75-.44Z"/><path class="cls-1" d="M472.92,65.57l8.7-.31.09,2.53-11.47.41-.09-2.6a4.38,4.38,0,0,1,1.8-4.06,8.16,8.16,0,0,1,1.5-.81l3.08-1.31A3.52,3.52,0,0,0,478,58.37a2.3,2.3,0,0,0,.43-1.51,2,2,0,0,0-.69-1.47,2.53,2.53,0,0,0-1.83-.53,3.17,3.17,0,0,0-1.92.63,2.26,2.26,0,0,0-.82,1.7l-3.07.11a4.27,4.27,0,0,1,1.59-3.56,6.67,6.67,0,0,1,4.06-1.3,6,6,0,0,1,4,1.13,4,4,0,0,1,1.69,3.16,4.59,4.59,0,0,1-.84,3.07,7.1,7.1,0,0,1-2.88,2l-3.12,1.33a3.6,3.6,0,0,0-1.3.83,1.56,1.56,0,0,0-.37,1.13Z"/><path class="cls-1" d="M489.87,51.94A7.32,7.32,0,0,1,494.29,53a3.72,3.72,0,0,1,1.83,3.07,3,3,0,0,1-.71,2.08,3.74,3.74,0,0,1-2.22,1.24,7.72,7.72,0,0,1,2.76,1.47,3.28,3.28,0,0,1,1,2.31,3.69,3.69,0,0,1-1.58,3.2,8.24,8.24,0,0,1-4.72,1.39,7.89,7.89,0,0,1-4.71-1.1,3.71,3.71,0,0,1-1.87-3.1,2.94,2.94,0,0,1,.91-2.35,4.58,4.58,0,0,1,2.51-1.16,5.51,5.51,0,0,1-2.86-2.46,3.28,3.28,0,0,1-.31-1.33,3.56,3.56,0,0,1,1.43-3.09A7,7,0,0,1,489.87,51.94Zm0,9a3.4,3.4,0,0,0-2.84,1.46,1.57,1.57,0,0,0-.18.83,1.47,1.47,0,0,0,.31.86,2.35,2.35,0,0,0,.8.65,5.15,5.15,0,0,0,2.66.47,5.75,5.75,0,0,0,2.56-.55q.86-.49.84-1.16a1.42,1.42,0,0,0-.47-1.06,3.79,3.79,0,0,0-1.21-.67Zm-1.14-3.08,1.78.62a3.47,3.47,0,0,0,2-.63,1.72,1.72,0,0,0,.77-1.51,1.68,1.68,0,0,0-.9-1.44,4,4,0,0,0-2.23-.47A4.38,4.38,0,0,0,488,55a1.52,1.52,0,0,0-.82,1.4Q487.19,57.3,488.76,57.88Z"/></svg>