<svg id="Layer_1" data-name="Layer 1" xmlns="http://www.w3.org/2000/svg" viewBox="0 0 892.59 79.7"><defs><style>.cls-1{fill:#fff;stroke-width:1.2px;}.cls-1,.cls-3{stroke:#1414ef;stroke-miterlimit:10;}.cls-2{fill:#1414ef;}.cls-3{fill:#feea80;}</style></defs><title>title</title><path class="cls-1" d="M40.7,18.14A13,13,0,0,1,45.9,7.68,18.05,18.05,0,0,1,57.63,3.43a28.87,28.87,0,0,1,4,.25q1.74.25,4.83,1t4.25,1a73.7,73.7,0,0,1,1,12.72.9.9,0,0,1-1,.74q-2.23,0-2.4-.74A14.52,14.52,0,0,0,64.82,11,9.38,9.38,0,0,0,57.38,7.4a7.62,7.62,0,0,0-5.82,2.15,8.09,8.09,0,0,0-2,5.78,9.31,9.31,0,0,0,.29,2.35A5.82,5.82,0,0,0,51,19.87q.87,1.08,1.4,1.78a9.8,9.8,0,0,0,2.07,1.78Q56,24.5,56.52,24.91T59,26.52a24.9,24.9,0,0,0,2.35,1.36,30.37,30.37,0,0,0,2.77,1.78q2.27,1.36,3.18,2t2.64,2.11a11.91,11.91,0,0,1,2.52,2.81,17,17,0,0,1,1.45,3.35,13.91,13.91,0,0,1,.66,4.34,13.41,13.41,0,0,1-5.33,10.91,19.11,19.11,0,0,1-12.35,4.3q-5,0-15.2-2.31a72.22,72.22,0,0,1-1.36-7.48,56,56,0,0,1-.62-5.91q.08-.66,1.32-.66,2.15,0,2.4.66A16.06,16.06,0,0,0,44.58,47a24,24,0,0,0,2.27,3.8,10.89,10.89,0,0,0,3.88,3.3,11.62,11.62,0,0,0,5.49,1.28,9.25,9.25,0,0,0,6.44-2.31q2.56-2.31,2.56-6.94a7.19,7.19,0,0,0-.54-2.73,9.54,9.54,0,0,0-1.24-2.23,12.09,12.09,0,0,0-2.07-2Q60,38.13,59.12,37.55t-2.68-1.61l-2.52-1.45a5.67,5.67,0,0,0-.91-.66q-2.4-1.49-3.64-2.31a39.85,39.85,0,0,1-3.18-2.44,16.34,16.34,0,0,1-2.93-3,15.62,15.62,0,0,1-1.78-3.47A12.43,12.43,0,0,1,40.7,18.14Z"/><path class="cls-1" d="M96.29,22.1q5.12,0,7.68,2.69T106.54,34V50.27a3.77,3.77,0,0,0,.74,2.52,2.48,2.48,0,0,0,2,.87,5.15,5.15,0,0,0,2.81-1.07c.33.11.5.41.5.91a4.91,4.91,0,0,1-.5,2.48,20.44,20.44,0,0,1-3.3,2.07,8.61,8.61,0,0,1-4,1.07,6,6,0,0,1-3.72-1.41,6.77,6.77,0,0,1-2.4-3.06l-.62.54q-.54.46-1.49,1.12a24.47,24.47,0,0,1-2.15,1.32,13.18,13.18,0,0,1-2.81,1.12,12,12,0,0,1-3.26.45,9.86,9.86,0,0,1-6.73-2.27A7.85,7.85,0,0,1,79,50.69,7.61,7.61,0,0,1,80,47a9.88,9.88,0,0,1,2.27-2.85,16.92,16.92,0,0,1,3.55-2.19,33.8,33.8,0,0,1,3.84-1.61q1.61-.54,4.13-1.28T97.29,38A1.3,1.3,0,0,0,98,36.64V32.1a7.09,7.09,0,0,0-1.32-4.54,4.31,4.31,0,0,0-3.55-1.65,5,5,0,0,0-3.88,1.53,6.18,6.18,0,0,0-1.4,4.34,2.68,2.68,0,0,1-1.24,2.44,5.14,5.14,0,0,1-2.81.78q-3.06,0-4.3-2,0-4,5.41-7.43A20.72,20.72,0,0,1,96.29,22.1ZM92.58,53.82a6.4,6.4,0,0,0,3.84-1.16A3.27,3.27,0,0,0,98,50V41.6q-.58.25-2.44.83t-2.85,1a22.54,22.54,0,0,0-2.31,1.16,5,5,0,0,0-1.94,1.82,4.55,4.55,0,0,0-.62,2.31,5.09,5.09,0,0,0,1.32,3.88A4.75,4.75,0,0,0,92.58,53.82Z"/><path class="cls-1" d="M143.3,22.1Q154,22.1,154,39v7.85a34.58,34.58,0,0,0,.58,7.44q.16.58,2.27,1.2a12.65,12.65,0,0,0,2.85.62c.17,0,.26.4.29,1.2a4.68,4.68,0,0,1-.12,1.61q-.5-.08-4.34-.33t-5.74-.25q-2,0-5.49.25t-4.25.33a2.42,2.42,0,0,1-.33-1.57q0-1.24.33-1.24a9.82,9.82,0,0,0,2.77-.62q1.86-.62,2-1.2a23.73,23.73,0,0,0,.66-6V40.44q0-6.86-1.86-9.58t-5.91-2.73a7.65,7.65,0,0,0-4.63,1.45,4,4,0,0,0-2,3.1V46.88a34.58,34.58,0,0,0,.58,7.44q.16.58,2.19,1.2a11.88,11.88,0,0,0,2.69.62c.22,0,.34.4.37,1.2a4.69,4.69,0,0,1-.12,1.61q-.66-.08-4.34-.33t-5.58-.25q-2,0-5.74.25t-4.42.33a2.42,2.42,0,0,1-.33-1.57q0-1.24.33-1.24a11.52,11.52,0,0,0,3-.62q2-.62,2.19-1.2a27,27,0,0,0,.58-6V34.82q0-3.88-1.32-5.29a4,4,0,0,0-1.86-1.24,9.41,9.41,0,0,0-2-.5c-.52-.05-.78-.14-.78-.25q0-2.4.41-2.48a117.19,117.19,0,0,0,13.3-2.48.54.54,0,0,1,.21-.12.79.79,0,0,1,.25,0h.21c.22,0,.41.19.58.58a2.51,2.51,0,0,1,.25.91,28.15,28.15,0,0,0-.33,3,.65.65,0,0,0,.08.41,1.23,1.23,0,0,0,.41-.25A18.32,18.32,0,0,1,137,23.59,14.46,14.46,0,0,1,143.3,22.1Z"/><path class="cls-1" d="M182.29,22.1a20,20,0,0,1,7.81,1.45A13.18,13.18,0,0,1,195,26.73a10.22,10.22,0,0,1-.95,4.67,3,3,0,0,1-2.85,1.86,3.7,3.7,0,0,1-2.52-.83,9.38,9.38,0,0,1-1.94-2.73q-1.9-3.8-5.54-3.8t-5.66,3.59a17.66,17.66,0,0,0-2.11,9q0,7.44,3.06,11a9.75,9.75,0,0,0,7.77,3.59,22.66,22.66,0,0,0,2.4-.12,12.37,12.37,0,0,0,2.15-.41q1-.29,1.73-.54a7.09,7.09,0,0,0,1.53-.74l1.12-.7q.33-.21,1.65-1.12a1.36,1.36,0,0,1,.41.5,1.6,1.6,0,0,1,.25.83,2.54,2.54,0,0,1-.5,1.57,13.46,13.46,0,0,1-4.87,4.46,15.17,15.17,0,0,1-8.1,2.23,16.71,16.71,0,0,1-12.52-5.37,18.24,18.24,0,0,1-5.16-13.14,18.78,18.78,0,0,1,5-13A16.64,16.64,0,0,1,182.29,22.1Z"/><path class="cls-1" d="M205.26,27.88h-5q-.58,0-.58-2.15a2.06,2.06,0,0,1,.08-.74,23.1,23.1,0,0,0,6.36-4.38q1.07-1.07,2.35-2.44t3-3.51a5.88,5.88,0,0,1,1.57.21c.5.14.74.29.74.46v8.1l6,0,4.09,0q.66,0,.66.74a8,8,0,0,1-.83,3.63h-9.91V47.79a7.84,7.84,0,0,0,1.4,5,4.72,4.72,0,0,0,3.88,1.74,7.79,7.79,0,0,0,1.73-.21,8.77,8.77,0,0,0,1.49-.45q.58-.25,1.07-.5a2.59,2.59,0,0,1,.58-.25q.33-.08.74.74T225,55q-.5,1.16-3.51,2.68a13,13,0,0,1-5.91,1.53,10.42,10.42,0,0,1-7.31-2.77q-3-2.77-3-8.55Z"/><path class="cls-1" d="M265.49,31V47.38a18.31,18.31,0,0,0,.66,5.78,1.71,1.71,0,0,0,.95.66,6.4,6.4,0,0,0,1.45.33,12.26,12.26,0,0,0,1.36.08,1.52,1.52,0,0,1,.7.08c.22.06.33.3.33.74a6.3,6.3,0,0,1-.17,1.12c-.11.52-.28.79-.5.79a19,19,0,0,0-2.93.29l-3.43.58q-1.65.29-3.14.62t-3.3.66q-.58,0-.58-1.32V54.16q-.08-.41-.25-.41a18.44,18.44,0,0,1-5,3.72,13.84,13.84,0,0,1-6.53,1.65,8.65,8.65,0,0,1-4.92-1.41,10,10,0,0,1-3.3-3.63,17.76,17.76,0,0,1-1.73-4.79,25.22,25.22,0,0,1-.54-5.21V34.82q0-3.88-1.32-5.29a4.59,4.59,0,0,0-1.9-1.24,8.68,8.68,0,0,0-2-.5c-.55-.05-.83-.14-.83-.25q0-2.4.41-2.48a62.33,62.33,0,0,0,6.77-1,64.76,64.76,0,0,0,6.53-1.49,1.34,1.34,0,0,0,.33-.08,1.41,1.41,0,0,1,.33-.08q.41,0,.62.58a2.94,2.94,0,0,1,.21.91q-.74,5.62-.74,7.27V41.1q0,6.44,1.82,9.25t5.87,2.81a6.48,6.48,0,0,0,4.46-1.61,4.4,4.4,0,0,0,1.82-3.1V34.82q0-3.88-1.32-5.29a4,4,0,0,0-1.86-1.24,9.31,9.31,0,0,0-2-.5c-.55-.05-.83-.14-.83-.25q0-2.4.5-2.48a63.43,63.43,0,0,0,6.69-1,64.78,64.78,0,0,0,6.53-1.49,4.78,4.78,0,0,0,.66-.17q.41,0,.66.58a1.52,1.52,0,0,1,.17.91Q265.48,29.54,265.49,31Z"/><path class="cls-1" d="M292.58,22.1q5.12,0,7.68,2.69T302.83,34V50.27a3.77,3.77,0,0,0,.74,2.52,2.48,2.48,0,0,0,2,.87,5.15,5.15,0,0,0,2.81-1.07c.33.11.5.41.5.91a4.91,4.91,0,0,1-.5,2.48,20.44,20.44,0,0,1-3.3,2.07,8.61,8.61,0,0,1-4,1.07,6,6,0,0,1-3.72-1.41,6.77,6.77,0,0,1-2.4-3.06l-.62.54q-.54.46-1.49,1.12a24.47,24.47,0,0,1-2.15,1.32,13.18,13.18,0,0,1-2.81,1.12,12,12,0,0,1-3.26.45,9.86,9.86,0,0,1-6.73-2.27,7.85,7.85,0,0,1-2.6-6.24,7.61,7.61,0,0,1,.95-3.72,9.88,9.88,0,0,1,2.27-2.85,16.92,16.92,0,0,1,3.55-2.19,33.8,33.8,0,0,1,3.84-1.61q1.61-.54,4.13-1.28T293.57,38a1.3,1.3,0,0,0,.74-1.32V32.1A7.09,7.09,0,0,0,293,27.55a4.31,4.31,0,0,0-3.55-1.65,5,5,0,0,0-3.88,1.53,6.18,6.18,0,0,0-1.4,4.34,2.68,2.68,0,0,1-1.24,2.44,5.14,5.14,0,0,1-2.81.78q-3.06,0-4.3-2,0-4,5.41-7.43A20.72,20.72,0,0,1,292.58,22.1Zm-3.72,31.72a6.4,6.4,0,0,0,3.84-1.16A3.27,3.27,0,0,0,294.32,50V41.6q-.58.25-2.44.83t-2.85,1a22.54,22.54,0,0,0-2.31,1.16,5,5,0,0,0-1.94,1.82,4.55,4.55,0,0,0-.62,2.31,5.09,5.09,0,0,0,1.32,3.88A4.75,4.75,0,0,0,288.87,53.82Z"/><path class="cls-1" d="M336.78,22.1q4.54,0,6.77,2.73,0,7-4,7a4.91,4.91,0,0,1-3.22-1.65,5.17,5.17,0,0,0-3.55-1.65,4.43,4.43,0,0,0-4,2.6,11,11,0,0,0-1.45,5.41V46.88a34.58,34.58,0,0,0,.58,7.44q.16.58,2.19,1.2a11.67,11.67,0,0,0,2.77.62c.17,0,.26.4.29,1.2a8.62,8.62,0,0,1,0,1.61q-.66-.08-4.38-.33t-5.62-.25q-2,0-5.74.25t-4.42.33a2.42,2.42,0,0,1-.33-1.57q0-1.24.33-1.24a11.52,11.52,0,0,0,3-.62q2-.62,2.19-1.2a27,27,0,0,0,.58-6V34.82q0-3.88-1.32-5.29a4,4,0,0,0-1.86-1.24,9.41,9.41,0,0,0-2-.5c-.52-.05-.78-.14-.78-.25q0-2.4.41-2.48a117.19,117.19,0,0,0,13.3-2.48,5,5,0,0,1,.66-.17c.22,0,.41.19.58.58a2,2,0,0,1,.21,1q0,.37-.12,1.16t-.21,1.65a10.57,10.57,0,0,0-.12,1.12,15.17,15.17,0,0,1,4-4A9.05,9.05,0,0,1,336.78,22.1Z"/><path class="cls-1" d="M356.94,22.93q1.82,0,5.2-.25t4.21-.25a5.56,5.56,0,0,1,.17,1.49c0,.77-.11,1.16-.33,1.16a9,9,0,0,0-2.6.62q-1.78.62-1.86,1.36v.5q.16,1.32,7.68,18.84.66-1.49,3.22-8.14t3-7.64a7.76,7.76,0,0,0,.5-2.56,2.6,2.6,0,0,0-1.32-2,6.8,6.8,0,0,0-4-1q-.33,0-.33-1.24a2.08,2.08,0,0,1,.33-1.4q1,0,4,.25t5,.25q1.73,0,4.25-.25t3.68-.25a2.36,2.36,0,0,1,.33,1.32q0,1.32-.33,1.32a10.47,10.47,0,0,0-3.35.83,4.56,4.56,0,0,0-2.85,2.48L366.52,64.89Q361.4,77,354.21,77a4.47,4.47,0,0,1-3.3-1.16,3.86,3.86,0,0,1,.41-5.87q8.59,0,11.32-6.77,2-5,2.23-5.62L352.81,29.45a10.67,10.67,0,0,0-1-1.9,5,5,0,0,0-2.44-1.86,7.81,7.81,0,0,0-2.68-.62q-.33,0-.33-1.16,0-1.32.25-1.49.5,0,4.42.25T356.94,22.93Z"/><path class="cls-1" d="M401,24.62a5.24,5.24,0,0,1,1.61,3.84,5.66,5.66,0,0,1-1.61,4,5.07,5.07,0,0,1-3.84,1.74,5.28,5.28,0,0,1-4-1.74,5.59,5.59,0,0,1-1.65-4,5.18,5.18,0,0,1,1.65-3.84,5.48,5.48,0,0,1,4-1.61A5.24,5.24,0,0,1,401,24.62Zm0,25.49A5.38,5.38,0,0,1,402.62,54,5.52,5.52,0,0,1,401,57.91a5.12,5.12,0,0,1-3.84,1.69,5.35,5.35,0,0,1-4-1.69A5.45,5.45,0,0,1,391.55,54a5.31,5.31,0,0,1,1.65-3.88,5.41,5.41,0,0,1,4-1.65A5.18,5.18,0,0,1,401,50.11Z"/><path class="cls-1" d="M454.42,4.09l17.35,43.29q1.24,3.3,2.48,6a4,4,0,0,0,2.64,2,11,11,0,0,0,3.14.74q.33,0,.33,1.49a2.78,2.78,0,0,1-.17,1.24q-9.91-.5-10.41-.5t-10.74.5a2.33,2.33,0,0,1-.33-1.53c0-.8.11-1.2.33-1.2a10.65,10.65,0,0,0,2.73-.5q1.73-.5,2.07-1.16a2.36,2.36,0,0,0,.25-1.07,19,19,0,0,0-1.57-5.7L459.63,40a.91.91,0,0,0-.58-.33q-2.64-.16-7.1-.17t-9.42.25c-.33,0-.5.11-.5.33l-3.14,7.68a23.45,23.45,0,0,0-1.57,5.37,1.84,1.84,0,0,0,.91,1.65,8.27,8.27,0,0,0,2.6.91,14.26,14.26,0,0,0,2.52.41q.25.08.25,1.16a5.41,5.41,0,0,1-.17,1.57q-.41,0-3.88-.25t-5.62-.25q-2.15,0-5.08.21l-4.17.29a1.76,1.76,0,0,1-.33-1.24q0-1.49.17-1.49a11.94,11.94,0,0,0,3.18-.7,5.1,5.1,0,0,0,2.77-1.61,39.26,39.26,0,0,0,3.14-6.44L449,10.21q1.9-5,3.06-5.95a2.11,2.11,0,0,1,1.4-.58A1.35,1.35,0,0,1,454.42,4.09Zm-9.91,30.73q2.89.25,5.95.25,2.89,0,6.77-.25l.17-.33L451.12,18l-6.77,16.52C444.34,34.71,444.4,34.82,444.51,34.82Z"/><path class="cls-1" d="M514.9,4.42q.41,0,8.1-.5.74,2.31,3.39,8.55t6.49,15.2q3.84,9,6.15,14.75c0,.11.08.17.25.17a.22.22,0,0,0,.25-.25q7.27-17.43,11.57-28.67l3-9.58q2.48.25,6.77.25,3.22,0,9.83-.41a2.4,2.4,0,0,1,.25,1.32q0,1.4-.33,1.4h-.17a6.72,6.72,0,0,0-4,1.32q-1.24.91-1.07,4.46.33,7.35,1.16,34.12a21.83,21.83,0,0,0,1.32,7.6q.33.74,2.31,1.36a11.1,11.1,0,0,0,2.81.62q.33,0,.33,1.49a4,4,0,0,1-.17,1.24l-10.16-.5q-1.65,0-3.47.08l-4,.21-3.51.21a1.76,1.76,0,0,1-.33-1.24q0-1.49.33-1.49a9.76,9.76,0,0,0,2.64-.54,5.18,5.18,0,0,0,2.31-1.2,4.63,4.63,0,0,0,.83-2.89V46.88l-.83-25.11q-.33-5.12-1-5.12-.25,0-.41.5l-15.78,38.5q-1.41,3.14-3.14,3.14a2.74,2.74,0,0,1-.83-.17L517.21,14.17q-.58,20.57-1.32,36.85a9.11,9.11,0,0,0,.25,2.56q.41.91,3.3,1.73a17.84,17.84,0,0,0,3.88.83q.33,0,.33,1.49a4,4,0,0,1-.17,1.24q-9.91-.5-10.41-.5-2.23,0-5.91.25t-4.5.25a1.91,1.91,0,0,1-.33-1.32q0-1.4.33-1.4a16.52,16.52,0,0,0,4.13-.83q2.81-.82,3.22-2.15a15.37,15.37,0,0,0,.91-5.54q.16-6.28.45-14.83t.5-14.58q.21-6,.21-7.52a7.9,7.9,0,0,0-.25-2.31q-.25-.66-2.77-1.24a18.71,18.71,0,0,0-3.59-.58c-.22,0-.33-.47-.33-1.4a1.76,1.76,0,0,1,.33-1.24l4.25.29Q512.75,4.42,514.9,4.42Z"/><path class="cls-1" d="M595.2,22.1q5.12,0,7.68,2.69T605.44,34V50.27a3.77,3.77,0,0,0,.74,2.52,2.48,2.48,0,0,0,2,.87A5.15,5.15,0,0,0,611,52.58c.33.11.5.41.5.91A4.91,4.91,0,0,1,611,56a20.44,20.44,0,0,1-3.3,2.07,8.61,8.61,0,0,1-4,1.07A6,6,0,0,1,600,57.71a6.77,6.77,0,0,1-2.4-3.06l-.62.54q-.54.46-1.49,1.12a24.47,24.47,0,0,1-2.15,1.32,13.18,13.18,0,0,1-2.81,1.12,12,12,0,0,1-3.26.45,9.86,9.86,0,0,1-6.73-2.27,7.85,7.85,0,0,1-2.6-6.24,7.61,7.61,0,0,1,.95-3.72,9.88,9.88,0,0,1,2.27-2.85,16.92,16.92,0,0,1,3.55-2.19,33.8,33.8,0,0,1,3.84-1.61q1.61-.54,4.13-1.28T596.19,38a1.3,1.3,0,0,0,.74-1.32V32.1a7.09,7.09,0,0,0-1.32-4.54,4.31,4.31,0,0,0-3.55-1.65,5,5,0,0,0-3.88,1.53,6.18,6.18,0,0,0-1.4,4.34,2.68,2.68,0,0,1-1.24,2.44,5.14,5.14,0,0,1-2.81.78q-3.06,0-4.3-2,0-4,5.41-7.43A20.72,20.72,0,0,1,595.2,22.1Zm-3.72,31.72a6.4,6.4,0,0,0,3.84-1.16A3.27,3.27,0,0,0,596.93,50V41.6q-.58.25-2.44.83t-2.85,1a22.54,22.54,0,0,0-2.31,1.16,5,5,0,0,0-1.94,1.82,4.55,4.55,0,0,0-.62,2.31,5.09,5.09,0,0,0,1.32,3.88A4.75,4.75,0,0,0,591.48,53.82Z"/><path class="cls-1" d="M642.2,22.1q10.66,0,10.66,16.94v7.85a34.58,34.58,0,0,0,.58,7.44q.16.58,2.27,1.2a12.65,12.65,0,0,0,2.85.62c.17,0,.26.4.29,1.2a4.68,4.68,0,0,1-.12,1.61q-.5-.08-4.34-.33t-5.74-.25q-2,0-5.49.25t-4.25.33a2.42,2.42,0,0,1-.33-1.57q0-1.24.33-1.24a9.82,9.82,0,0,0,2.77-.62q1.86-.62,2-1.2a23.73,23.73,0,0,0,.66-6V40.44q0-6.86-1.86-9.58t-5.91-2.73A7.65,7.65,0,0,0,632,29.58a4,4,0,0,0-2,3.1V46.88a34.58,34.58,0,0,0,.58,7.44q.16.58,2.19,1.2a11.88,11.88,0,0,0,2.69.62c.22,0,.34.4.37,1.2a4.69,4.69,0,0,1-.12,1.61q-.66-.08-4.34-.33t-5.58-.25q-2,0-5.74.25t-4.42.33a2.42,2.42,0,0,1-.33-1.57q0-1.24.33-1.24a11.52,11.52,0,0,0,3-.62q2-.62,2.19-1.2a27,27,0,0,0,.58-6V34.82q0-3.88-1.32-5.29a4,4,0,0,0-1.86-1.24,9.41,9.41,0,0,0-2-.5c-.52-.05-.78-.14-.78-.25q0-2.4.41-2.48a117.19,117.19,0,0,0,13.3-2.48.54.54,0,0,1,.21-.12.79.79,0,0,1,.25,0h.21c.22,0,.41.19.58.58a2.51,2.51,0,0,1,.25.91,28.15,28.15,0,0,0-.33,3,.65.65,0,0,0,.08.41,1.23,1.23,0,0,0,.41-.25,18.32,18.32,0,0,1,5.08-3.47A14.46,14.46,0,0,1,642.2,22.1Z"/><path class="cls-1" d="M678.14,46.88a30.37,30.37,0,0,0,.66,7.44q.16.58,2.23,1.2a12.15,12.15,0,0,0,2.81.62c.22,0,.34.4.37,1.2a4.69,4.69,0,0,1-.12,1.61q-.58-.08-4.42-.33T674,58.37q-2.07,0-5.82.25t-4.34.33a2.42,2.42,0,0,1-.33-1.57q0-1.24.33-1.24a12,12,0,0,0,3-.62q2.06-.62,2.23-1.2a27,27,0,0,0,.58-6V34.82q0-3.88-1.32-5.29a4.59,4.59,0,0,0-1.9-1.24,8.68,8.68,0,0,0-2-.5c-.55-.05-.83-.14-.83-.25q0-2.4.5-2.48a63.43,63.43,0,0,0,6.69-1,64.79,64.79,0,0,0,6.53-1.49,4.78,4.78,0,0,0,.66-.17q.41,0,.66.58a1.52,1.52,0,0,1,.17.91,70.82,70.82,0,0,0-.66,7.1Zm-8.59-34.57a5,5,0,0,1-1.49-3.63,4.89,4.89,0,0,1,1.49-3.59,5.12,5.12,0,0,1,8.76,3.59,5,5,0,0,1-1.49,3.63,5.09,5.09,0,0,1-7.27,0Z"/><path class="cls-1" d="M711.76,1.2a16.27,16.27,0,0,1,5.74.87,5.77,5.77,0,0,1,3,2.11,9.27,9.27,0,0,1-.45,4.58,3,3,0,0,1-3,2,3.22,3.22,0,0,1-2.52-1.36q-1.12-1.36-2.35-2.73a3.8,3.8,0,0,0-2.89-1.36,4.4,4.4,0,0,0-3.72,2.15,13.9,13.9,0,0,0-2.11,5.21,33.72,33.72,0,0,0-.62,6.69v3.8c0,.06.05.14.17.25a.47.47,0,0,0,.33.17h9.09a.66.66,0,0,1,.41.08.87.87,0,0,1,.08.5,8.5,8.5,0,0,1-1,3.8h-8.59a.44.44,0,0,0-.5.5V46.88a31.59,31.59,0,0,0,.66,7.44q.16.58,2.19,1.2a11.67,11.67,0,0,0,2.77.62c.17,0,.26.4.29,1.2a4.68,4.68,0,0,1-.12,1.61q-.5-.08-4.3-.33t-5.78-.25q-2,0-5.62.25t-4.3.33a1.56,1.56,0,0,1-.33-.91,4.93,4.93,0,0,1,0-1.28c.05-.41.17-.62.33-.62a11.07,11.07,0,0,0,2.89-.62q2-.62,2.15-1.2a27.39,27.39,0,0,0,.74-6.77v-19c0-.38-.17-.58-.5-.58h-5c-.11,0-.17-.17-.17-.5a4.41,4.41,0,0,1,1.16-2.4,3.32,3.32,0,0,1,2.64-1.49h1.32a.44.44,0,0,0,.5-.5v-.83A22.47,22.47,0,0,1,699.58,7.4Q704.74,1.2,711.76,1.2Z"/><path class="cls-1" d="M734,22.1a15.32,15.32,0,0,1,6.94,1.53,13.07,13.07,0,0,1,4.79,3.88,19.21,19.21,0,0,1,2.64,4.87,14.24,14.24,0,0,1,.91,4.83q0,1.82-.62,2.27a4.69,4.69,0,0,1-2.52.45H726.39q-.58,0-.58.5a16.06,16.06,0,0,0,1.07,5.78,11.36,11.36,0,0,0,3.68,4.87,9.72,9.72,0,0,0,6.24,2.07,22.66,22.66,0,0,0,2.4-.12,12.37,12.37,0,0,0,2.15-.41q1-.29,1.73-.54a7.09,7.09,0,0,0,1.53-.74l1.12-.7q.33-.21,1.65-1.12a1.36,1.36,0,0,1,.41.5,1.6,1.6,0,0,1,.25.83,2.54,2.54,0,0,1-.5,1.57,13.46,13.46,0,0,1-4.87,4.46,15.33,15.33,0,0,1-8.18,2.23,16.73,16.73,0,0,1-12.39-5.33,17.82,17.82,0,0,1-5.2-12.93q0-8.34,4.83-13.55A16,16,0,0,1,734,22.1Zm-.58,3.8a5.84,5.84,0,0,0-3.55,1.16,7.79,7.79,0,0,0-2.4,2.81,15.78,15.78,0,0,0-1.2,3.1,10.1,10.1,0,0,0-.37,2.44c0,.39.17.58.5.58h13.38q.74,0,.74-1.24a10.71,10.71,0,0,0-1.94-5.87A5.92,5.92,0,0,0,733.41,25.9Z"/><path class="cls-1" d="M766.54,22a35.13,35.13,0,0,1,9.58,1.4,46.91,46.91,0,0,1,.91,9.25q0,.66-1.07.66-1.82,0-2-.66a10,10,0,0,0-2.44-4.92,6.46,6.46,0,0,0-5-2,5.93,5.93,0,0,0-3.76,1.07,3.67,3.67,0,0,0-1.36,3.06,4.81,4.81,0,0,0,.45,2.11,5.16,5.16,0,0,0,1.49,1.78,20.34,20.34,0,0,0,1.82,1.32q.78.5,2.35,1.32a5.38,5.38,0,0,0,.83.41l1.24.66,1.36.74,1.32.78a15.09,15.09,0,0,1,1.45,1l1.28,1a6.51,6.51,0,0,1,1.24,1.16q.37.5,1,1.28a5.33,5.33,0,0,1,.87,1.49,15.74,15.74,0,0,1,.45,1.57,7.68,7.68,0,0,1,.21,1.78,9.74,9.74,0,0,1-4,8.22,15.67,15.67,0,0,1-9.71,3,27.59,27.59,0,0,1-10.66-2.31,33,33,0,0,1-.83-4.58,40.35,40.35,0,0,1-.41-4.75,1.75,1.75,0,0,1,1.16-.41q1.9,0,2,.66a9.12,9.12,0,0,0,3.26,5.58,8.81,8.81,0,0,0,5.66,2.11,6,6,0,0,0,3.8-1.16,4,4,0,0,0,1.49-3.39,5.44,5.44,0,0,0-.21-1.53,4.05,4.05,0,0,0-.78-1.4l-.95-1.16A6,6,0,0,0,767.07,46q-1.12-.66-1.65-1L763.36,44q-1.53-.78-2.11-1.12a19.21,19.21,0,0,1-5.87-4.42,8.83,8.83,0,0,1-2.07-5.91,8.87,8.87,0,0,1,4-7.77A15.92,15.92,0,0,1,766.54,22Z"/><path class="cls-1" d="M788.1,27.88h-5q-.58,0-.58-2.15a2.06,2.06,0,0,1,.08-.74,23.1,23.1,0,0,0,6.36-4.38q1.07-1.07,2.35-2.44t3-3.51a5.88,5.88,0,0,1,1.57.21c.5.14.74.29.74.46v8.1l6,0,4.09,0q.66,0,.66.74a8,8,0,0,1-.83,3.63h-9.91V47.79a7.84,7.84,0,0,0,1.4,5,4.72,4.72,0,0,0,3.88,1.74,7.79,7.79,0,0,0,1.73-.21,8.77,8.77,0,0,0,1.49-.45q.58-.25,1.07-.5a2.59,2.59,0,0,1,.58-.25q.33-.08.74.74t.33,1.07q-.5,1.16-3.51,2.68a13,13,0,0,1-5.91,1.53,10.42,10.42,0,0,1-7.31-2.77q-3-2.77-3-8.55Z"/><path class="cls-1" d="M830.89,22.1a18.21,18.21,0,0,1,13.26,5.41,17.7,17.7,0,0,1,5.49,13.09,18.71,18.71,0,0,1-37.42,0,17.8,17.8,0,0,1,5.41-13.14A18.1,18.1,0,0,1,830.89,22.1ZM829.82,26a6.65,6.65,0,0,0-6,3.76,17.77,17.77,0,0,0-2.15,9,24.09,24.09,0,0,0,2.69,11.65q2.68,5,7.48,5a6.73,6.73,0,0,0,6.07-3.8,17.57,17.57,0,0,0,2.19-8.92,28.36,28.36,0,0,0-1.07-8,14.57,14.57,0,0,0-3.47-6.16A7.66,7.66,0,0,0,829.82,26Z"/><path class="cls-2" d="M10,18.2v1.57H1.48V18.35L6,13.42A7.76,7.76,0,0,0,7.24,11.7a3.42,3.42,0,0,0,.39-1.54,1.94,1.94,0,0,0-.57-1.52,2.38,2.38,0,0,0-1.65-.52A5.82,5.82,0,0,0,1.78,9.55L1.11,8.14A5.63,5.63,0,0,1,3.07,7a7,7,0,0,1,2.39-.43,4.4,4.4,0,0,1,3,.94A3.16,3.16,0,0,1,9.52,10,4.9,4.9,0,0,1,9,12.18a10,10,0,0,1-1.64,2.28L3.89,18.2Z"/><path class="cls-2" d="M13.2,18.22a8.62,8.62,0,0,1-1.19-5,8.67,8.67,0,0,1,1.19-5,4,4,0,0,1,3.47-1.71,4,4,0,0,1,3.47,1.7,8.62,8.62,0,0,1,1.19,5,8.66,8.66,0,0,1-1.19,5,4,4,0,0,1-3.47,1.7A4,4,0,0,1,13.2,18.22Zm5.57-1.08a8.64,8.64,0,0,0,.67-3.91,8.54,8.54,0,0,0-.67-3.88,2.22,2.22,0,0,0-2.09-1.23,2.22,2.22,0,0,0-2.09,1.23,8.54,8.54,0,0,0-.67,3.88,8.67,8.67,0,0,0,.67,3.9,2.21,2.21,0,0,0,2.09,1.25A2.22,2.22,0,0,0,18.76,17.15Z"/><path class="cls-3" d="M483.82,46.76,293.81,56a13.66,13.66,0,0,1-14.29-13h0a13.66,13.66,0,0,1,13-14.29l190-9.22a13.66,13.66,0,0,1,14.29,13h0A13.66,13.66,0,0,1,483.82,46.76Z"/><path class="cls-2" d="M310,34.8a6,6,0,0,1,1.89.17,4.11,4.11,0,0,1,3,3.18l-2.25.52a3.39,3.39,0,0,0-1-1.45,2.12,2.12,0,0,0-1.53-.5,2.35,2.35,0,0,0-1.94,1.12,5.19,5.19,0,0,0-.67,3.13,5.63,5.63,0,0,0,.87,3,2.24,2.24,0,0,0,2,1,2.62,2.62,0,0,0,1.85-.69,2.07,2.07,0,0,0,.56-1.59l2.29-.11a3.79,3.79,0,0,1-1.11,3.1A5.12,5.12,0,0,1,310.64,47a4.59,4.59,0,0,1-3.77-1.45,6.81,6.81,0,0,1-1.6-4.44,6.61,6.61,0,0,1,1.21-4.58A4.59,4.59,0,0,1,310,34.8Z"/><path class="cls-2" d="M320.83,37.24a4.87,4.87,0,0,1,1.67.2,3.48,3.48,0,0,1,1.37.79,4.77,4.77,0,0,1,1.41,3.44,4.72,4.72,0,0,1-1.08,3.52,4,4,0,0,1-2.94,1.29,4.1,4.1,0,0,1-3.08-1,4.68,4.68,0,0,1-1.41-3.4,4.73,4.73,0,0,1,1.08-3.56A4.1,4.1,0,0,1,320.83,37.24Zm2.33,4.52a3.36,3.36,0,0,0-.64-2.06,1.8,1.8,0,0,0-1.54-.62,2,2,0,0,0-1.55.77,3.07,3.07,0,0,0-.52,2.11,3.32,3.32,0,0,0,.65,2.06,1.82,1.82,0,0,0,1.54.62,2,2,0,0,0,1.54-.77A3.07,3.07,0,0,0,323.16,41.76Z"/><path class="cls-2" d="M335.47,38.45a3,3,0,0,1,2.89-2,3,3,0,0,1,2.48.95,4.32,4.32,0,0,1,1,2.77l.24,5.12-2.15.1-.24-5.12a2.07,2.07,0,0,0-.54-1.45,1.73,1.73,0,0,0-1.34-.43,1.65,1.65,0,0,0-1.35.8,4,4,0,0,0-.47,2.26l.19,4.11-2.13.1-.24-5.12a2.07,2.07,0,0,0-.54-1.45,1.73,1.73,0,0,0-1.34-.43,1.81,1.81,0,0,0-1.42.83,3.75,3.75,0,0,0-.53,2.3l.19,4.06-2.13.1-.41-8.76,1.86-.09.31,1.5a2.9,2.9,0,0,1,2.7-1.88,3.15,3.15,0,0,1,1.85.42A3,3,0,0,1,335.47,38.45Z"/><path class="cls-2" d="M344.51,33.53a1.21,1.21,0,0,1,.3-.93,1.58,1.58,0,0,1,1.94-.09,1.36,1.36,0,0,1,.09,1.82,1.58,1.58,0,0,1-1.94.09A1.21,1.21,0,0,1,344.51,33.53Zm.38,2.8,2.13-.1.41,8.78-2.13.1Z"/><path class="cls-2" d="M352.79,37.49a3.19,3.19,0,0,1,5.19-.93,4.49,4.49,0,0,1,1,2.77l.24,5.12-2.13.1-.24-5.12a2.07,2.07,0,0,0-.54-1.45,1.73,1.73,0,0,0-1.34-.43,1.81,1.81,0,0,0-1.42.83,3.75,3.75,0,0,0-.53,2.3l.19,4.06-2.13.1-.41-8.76,1.86-.09Z"/><path class="cls-2" d="M362.86,40.69a2.84,2.84,0,0,1-1.17-2.2,2.81,2.81,0,0,1,1-2.36,3.91,3.91,0,0,1,2.44-1,4.75,4.75,0,0,1,2.36.41,2.38,2.38,0,0,1,.81-1.7,2.7,2.7,0,0,1,1.76-.71v2q-1.55.07-1.56,1.1a2.69,2.69,0,0,1,.75,1.66,3.11,3.11,0,0,1-.24,1.47,2.91,2.91,0,0,1-.78,1,4.09,4.09,0,0,1-2.59,1,4.54,4.54,0,0,1-1.62-.2.87.87,0,0,0-.68.9q0,.81,1.41.75l2.94-.14q3-.14,3.09,2a3,3,0,0,1-.29,1.4,3.69,3.69,0,0,1-1,1.25,5.86,5.86,0,0,1-3.66,1.33A6.33,6.33,0,0,1,362.3,48a2.46,2.46,0,0,1-1.36-2,1.71,1.71,0,0,1,.44-1.31,2.35,2.35,0,0,1,1.28-.67,1.88,1.88,0,0,1-1.14-1.55,1.48,1.48,0,0,1,.35-1.07A2.21,2.21,0,0,1,362.86,40.69Zm1.8,3.71q-1.69.15-1.64,1.36a1.11,1.11,0,0,0,.76.95,3.62,3.62,0,0,0,1.7.29,5.64,5.64,0,0,0,1.52-.23,3.11,3.11,0,0,0,.91-.48,1.55,1.55,0,0,0,.75-1.34.69.69,0,0,0-.25-.52.94.94,0,0,0-.67-.18Zm2.47-6.2a1.73,1.73,0,0,0-.46-1.17,1.56,1.56,0,0,0-1.26-.4,1.55,1.55,0,0,0-1.62,1.73,1.7,1.7,0,0,0,.49,1.18,1.63,1.63,0,0,0,1.28.41,1.55,1.55,0,0,0,1.21-.53A1.77,1.77,0,0,0,367.14,38.2Z"/><path class="cls-2" d="M383.08,34.84q-.36-1.52-2.24-1.43a2.42,2.42,0,0,0-1.42.44,1.08,1.08,0,0,0-.47.92,1,1,0,0,0,.37.8,3.21,3.21,0,0,0,1.06.5l2.59.87A5.25,5.25,0,0,1,385,38.12a2.74,2.74,0,0,1,.79,1.89,3,3,0,0,1-1.07,2.57,5.41,5.41,0,0,1-3.35,1.09,4.94,4.94,0,0,1-3.2-.81A3.71,3.71,0,0,1,376.65,40l2.11-.1a1.75,1.75,0,0,0,1.58,1.75,4.56,4.56,0,0,0,1.2.07,2.67,2.67,0,0,0,1.35-.43,1.12,1.12,0,0,0,.58-1,1.28,1.28,0,0,0-.39-.94,3.26,3.26,0,0,0-1.15-.57l-2.37-.81a6.1,6.1,0,0,1-2.13-1.13,2.6,2.6,0,0,1-.81-1.91,2.73,2.73,0,0,1,1-2.36,5,5,0,0,1,3.09-1,4.58,4.58,0,0,1,3.09.77,3.67,3.67,0,0,1,1.35,2.49Z"/><path class="cls-2" d="M395.33,36.36a4.91,4.91,0,0,1,.29,1.38,8.06,8.06,0,0,1,0,1.14l-5.66.27a3,3,0,0,0,.6,1.71,1.71,1.71,0,0,0,1.51.6,1.41,1.41,0,0,0,1.51-1.23l2.15-.1a3.15,3.15,0,0,1-1.11,2.13,4,4,0,0,1-2.47.91,3.81,3.81,0,0,1-3-1.13,4.8,4.8,0,0,1-1.37-3.32,4.74,4.74,0,0,1,1-3.45,3.82,3.82,0,0,1,2.85-1.36,3.41,3.41,0,0,1,2.89,1.15A4,4,0,0,1,395.33,36.36Zm-3.53-.76a1.76,1.76,0,0,0-1.38.65,2.64,2.64,0,0,0-.52,1.53l3.73-.18a2,2,0,0,0-1-1.87A1.77,1.77,0,0,0,391.79,35.61Z"/><path class="cls-2" d="M400,35a2.73,2.73,0,0,1,2.46-1.54,3.68,3.68,0,0,1,2.83,1.1,4.74,4.74,0,0,1,1.39,3.33,4.72,4.72,0,0,1-1.08,3.47,3.66,3.66,0,0,1-2.7,1.36,2.78,2.78,0,0,1-2.39-.85l.23,5-2.13.1-.61-13,1.75-.08Zm2.42,5.8a2.11,2.11,0,0,0,.78-.2,2.05,2.05,0,0,0,.71-.54,2.82,2.82,0,0,0,.63-2.06,3,3,0,0,0-.72-2,1.93,1.93,0,0,0-1.55-.65,2.09,2.09,0,0,0-1.44.58,2,2,0,0,0-.54,1.5l.07,1.57a1.74,1.74,0,0,0,.66,1.34A2,2,0,0,0,402.41,40.75Z"/><path class="cls-2" d="M414.32,41.65a5.54,5.54,0,0,1-1.85.56,4,4,0,0,1-1.21-.11,2.71,2.71,0,0,1-.93-.44,2.59,2.59,0,0,1-.93-2l-.23-4.9-1.23.06-.07-1.42,1.23-.06L409,31l2.13-.1.11,2.31,2.38-.11.07,1.42-2.38.11.23,4.83q.05,1.08,1.08,1a4.33,4.33,0,0,0,1.34-.35Z"/><path class="cls-2" d="M423,35.06a4.91,4.91,0,0,1,.29,1.38,8.06,8.06,0,0,1,0,1.14l-5.66.27a3,3,0,0,0,.6,1.71,1.71,1.71,0,0,0,1.51.6,1.41,1.41,0,0,0,1.51-1.23l2.15-.1A3.15,3.15,0,0,1,422.28,41a4,4,0,0,1-2.47.91,3.81,3.81,0,0,1-3-1.13,4.8,4.8,0,0,1-1.37-3.32,4.74,4.74,0,0,1,1-3.45,3.82,3.82,0,0,1,2.85-1.36,3.41,3.41,0,0,1,2.89,1.15A4,4,0,0,1,423,35.06Zm-3.53-.76a1.76,1.76,0,0,0-1.38.65,2.64,2.64,0,0,0-.52,1.53l3.73-.18a2,2,0,0,0-1-1.87A1.77,1.77,0,0,0,419.47,34.31Z"/><path class="cls-2" d="M433.53,33.85a3,3,0,0,1,2.89-2,3,3,0,0,1,2.48.95,4.32,4.32,0,0,1,1,2.77l.24,5.12-2.15.1-.24-5.12a2.07,2.07,0,0,0-.54-1.45,1.73,1.73,0,0,0-1.34-.43,1.65,1.65,0,0,0-1.35.8,4,4,0,0,0-.47,2.26l.19,4.11-2.13.1-.24-5.12a2.07,2.07,0,0,0-.54-1.45A1.73,1.73,0,0,0,430,34a1.81,1.81,0,0,0-1.42.83,3.75,3.75,0,0,0-.53,2.3l.19,4.06-2.13.1-.41-8.76,1.86-.09.31,1.5a2.9,2.9,0,0,1,2.7-1.88,3.15,3.15,0,0,1,1.85.42A3,3,0,0,1,433.53,33.85Z"/><path class="cls-2" d="M449.68,33.81a4.91,4.91,0,0,1,.29,1.38,8.06,8.06,0,0,1,0,1.14l-5.66.27a3,3,0,0,0,.6,1.71,1.71,1.71,0,0,0,1.51.6,1.41,1.41,0,0,0,1.51-1.23l2.15-.1a3.15,3.15,0,0,1-1.11,2.13,4,4,0,0,1-2.47.91,3.81,3.81,0,0,1-3-1.13,4.8,4.8,0,0,1-1.37-3.32,4.74,4.74,0,0,1,1-3.45A3.82,3.82,0,0,1,446,31.36a3.41,3.41,0,0,1,2.89,1.15A4,4,0,0,1,449.68,33.81Zm-3.53-.76a1.76,1.76,0,0,0-1.38.65,2.64,2.64,0,0,0-.52,1.53l3.73-.18a2,2,0,0,0-1-1.87A1.77,1.77,0,0,0,446.14,33.06Z"/><path class="cls-2" d="M454.54,32.93a2.57,2.57,0,0,1,2.29-2,3.11,3.11,0,0,1,.78.09l.06,2.13a4.73,4.73,0,0,0-1-.06q-2.13.1-2,3l.18,3.84-2.13.1-.41-8.78,2.13-.1Z"/><path class="cls-2" d="M471,27.35l.35,7.41,2-.1.09,1.82-2,.1.12,2.6-2.11.1-.12-2.6L463.4,37l-.08-1.6L469,27.45Zm-5.16,7.89,3.52-.17-.21-4.47Z"/></svg>