<svg id="Layer_1" data-name="Layer 1" xmlns="http://www.w3.org/2000/svg" viewBox="0 0 892.59 77.8"><defs><style>.cls-1{fill:#fff;stroke-width:1.2px;}.cls-1,.cls-3{stroke:#1414ef;stroke-miterlimit:10;}.cls-2{fill:#1414ef;}.cls-3{fill:#feea80;}</style></defs><title>title</title><path class="cls-1" d="M55.77,2.31q5.58.21,9.13.21t9.17-.21q5.62-.21,9-.29a27.44,27.44,0,0,0,5.7-.83l1.57,12.64a3.19,3.19,0,0,1-2.23.58c-.44,0-.72-.14-.83-.41q-1.16-4.54-3.06-6.16T78.28,6.24q-7.68,0-8,1.4a28.86,28.86,0,0,0-.74,7.77V45.23a28.18,28.18,0,0,0,.74,7.19q.08.58,2.23,1.2a13.15,13.15,0,0,0,2.89.62q.33,0,.33,1.49A4.31,4.31,0,0,1,75.56,57l-3.18-.25q-2.11-.17-3.88-.25t-3.43-.08q-2.23,0-6.15.25T54.08,57a1.91,1.91,0,0,1-.33-1.32q0-1.49.33-1.49a13.19,13.19,0,0,0,3.1-.58q2.11-.58,2.35-1.24a26.1,26.1,0,0,0,.66-6.86V15.66q0-6.86-.74-8-.66-1.4-7.85-1.4-4,0-5.95,1.61t-3.14,6.07q-.08.5-.83.5a2.78,2.78,0,0,1-2.15-.66L41.11,1.2a27.41,27.41,0,0,0,5.7.83Q50.2,2.11,55.77,2.31Z"/><path class="cls-1" d="M113.31,20.2a18.21,18.21,0,0,1,13.26,5.41,17.7,17.7,0,0,1,5.49,13.09,18.75,18.75,0,0,1-32,13.14,17.9,17.9,0,0,1-5.45-13.14,17.8,17.8,0,0,1,5.41-13.14A18.1,18.1,0,0,1,113.31,20.2Zm-1.07,3.88a6.65,6.65,0,0,0-6,3.76,17.77,17.77,0,0,0-2.15,9,24.09,24.09,0,0,0,2.69,11.65q2.68,5,7.48,5a6.73,6.73,0,0,0,6.07-3.8,17.57,17.57,0,0,0,2.19-8.92,28.36,28.36,0,0,0-1.07-8,14.57,14.57,0,0,0-3.47-6.16A7.66,7.66,0,0,0,112.24,24.08Z"/><path class="cls-1" d="M160.15,44.9V13.67a26.17,26.17,0,0,0-.58-6.77q-.25-.91-2.31-1.49a13,13,0,0,0-3.3-.58q-.33,0-.33-1.24A2.25,2.25,0,0,1,154,2.11q5.45.25,11,.25,4.21,0,7.1,0t5,0a24.47,24.47,0,0,1,11.73,3,12.17,12.17,0,0,1,4.59,4.42,12.53,12.53,0,0,1,1.78,6.69,9.68,9.68,0,0,1-1.73,5.54,13.35,13.35,0,0,1-3.26,3.59A13.58,13.58,0,0,1,187.5,27q-.66.25-.33.5,3.06.5,6.82,4.34a13,13,0,0,1,3.76,9.46A13.33,13.33,0,0,1,192,52.58q-5.74,4.21-15.24,4.13L165,56.63,154,57a2.16,2.16,0,0,1-.25-1.32q0-1.4.25-1.4a13.59,13.59,0,0,0,3.14-.54q2.06-.54,2.4-1.28Q160.15,50.69,160.15,44.9Zm18.92-19.41q6-1.32,6-8.1,0-11.15-9.5-11.15a22.1,22.1,0,0,0-5.29.41.83.83,0,0,0-.66.91l-.17,7.93v9.67q0,.83,5,.83A16.34,16.34,0,0,0,179.07,25.49Zm8.59,16.69a12.94,12.94,0,0,0-2.93-8.72Q181.8,30,175.27,30a34.4,34.4,0,0,0-5.12.41,1.8,1.8,0,0,0-.66,1.65V47.46q0,3.47,1,4.3t5.29.83a17,17,0,0,0,3.55-.37,17.66,17.66,0,0,0,3.76-1.32,7.44,7.44,0,0,0,3.3-3.22A11,11,0,0,0,187.66,42.18Z"/><path class="cls-1" d="M219.14,20.2a15.32,15.32,0,0,1,6.94,1.53,13.07,13.07,0,0,1,4.79,3.88,19.21,19.21,0,0,1,2.64,4.87,14.24,14.24,0,0,1,.91,4.83q0,1.82-.62,2.27a4.69,4.69,0,0,1-2.52.45H211.54q-.58,0-.58.5A16.06,16.06,0,0,0,212,44.32a11.36,11.36,0,0,0,3.68,4.87,9.72,9.72,0,0,0,6.24,2.07,22.66,22.66,0,0,0,2.4-.12,12.37,12.37,0,0,0,2.15-.41q1-.29,1.73-.54a7.09,7.09,0,0,0,1.53-.74l1.12-.7q.33-.21,1.65-1.12a1.36,1.36,0,0,1,.41.5,1.6,1.6,0,0,1,.25.83,2.54,2.54,0,0,1-.5,1.57A13.46,13.46,0,0,1,227.81,55a15.33,15.33,0,0,1-8.18,2.23,16.73,16.73,0,0,1-12.39-5.33A17.82,17.82,0,0,1,202,39q0-8.34,4.83-13.55A16,16,0,0,1,219.14,20.2Zm-.58,3.8A5.84,5.84,0,0,0,215,25.16a7.79,7.79,0,0,0-2.4,2.81,15.78,15.78,0,0,0-1.2,3.1A10.1,10.1,0,0,0,211,33.5c0,.39.17.58.5.58h13.38q.74,0,.74-1.24A10.71,10.71,0,0,0,223.73,27,5.92,5.92,0,0,0,218.56,24Z"/><path class="cls-1" d="M271.19,13.92V45a24.28,24.28,0,0,0,.74,6.61q.41,1.08,5.62,1.07h3.06q6.44,0,9.83-1.74a9.48,9.48,0,0,0,3-2.89A17.4,17.4,0,0,0,296,43q.08-.5,1.16-.5a3.55,3.55,0,0,1,2.31.5q-.25.74-1.2,3.39l-1.45,4q-.5,1.36-1.07,3.35A22.79,22.79,0,0,0,295,57q-3.31,0-13.67-.25t-14.58-.08l-11,.33a2.16,2.16,0,0,1-.25-1.32q0-1.4.25-1.4a13.59,13.59,0,0,0,3.14-.54q2.06-.54,2.4-1.28.58-1.73.58-7.52V13.67a25.3,25.3,0,0,0-.66-7q-.33-.66-2.31-1.28a11.09,11.09,0,0,0-3-.62q-.33,0-.33-1.24A3.33,3.33,0,0,1,255.74,2q.41,0,4.58.25t6.4.25q.66,0,10.57-.5a4.25,4.25,0,0,1,.25,1.32c0,.94-.11,1.4-.33,1.4a13.46,13.46,0,0,0-3,.66q-2.23.66-2.4,1.24A30.67,30.67,0,0,0,271.19,13.92Z"/><path class="cls-1" d="M321.09,20.2q5.12,0,7.68,2.69t2.56,9.21V48.37a3.77,3.77,0,0,0,.74,2.52,2.48,2.48,0,0,0,2,.87,5.15,5.15,0,0,0,2.81-1.07c.33.11.5.41.5.91a4.91,4.91,0,0,1-.5,2.48,20.44,20.44,0,0,1-3.3,2.07,8.61,8.61,0,0,1-4,1.07,6,6,0,0,1-3.72-1.41,6.77,6.77,0,0,1-2.4-3.06l-.62.54q-.54.46-1.49,1.12a24.47,24.47,0,0,1-2.15,1.32,13.18,13.18,0,0,1-2.81,1.12,12,12,0,0,1-3.26.45A9.86,9.86,0,0,1,306.42,55a7.85,7.85,0,0,1-2.6-6.24,7.61,7.61,0,0,1,.95-3.72A9.88,9.88,0,0,1,307,42.22,16.92,16.92,0,0,1,310.59,40a33.8,33.8,0,0,1,3.84-1.61q1.61-.54,4.13-1.28t3.51-1.07a1.3,1.3,0,0,0,.74-1.32V30.2a7.09,7.09,0,0,0-1.32-4.54A4.31,4.31,0,0,0,317.95,24a5,5,0,0,0-3.88,1.53,6.18,6.18,0,0,0-1.4,4.34,2.68,2.68,0,0,1-1.24,2.44,5.14,5.14,0,0,1-2.81.78q-3.06,0-4.3-2,0-4,5.41-7.43A20.72,20.72,0,0,1,321.09,20.2Zm-3.72,31.72a6.4,6.4,0,0,0,3.84-1.16,3.27,3.27,0,0,0,1.61-2.64V39.7q-.58.25-2.44.83t-2.85,1a22.54,22.54,0,0,0-2.31,1.16,5,5,0,0,0-1.94,1.82,4.55,4.55,0,0,0-.62,2.31A5.09,5.09,0,0,0,314,50.68,4.75,4.75,0,0,0,317.37,51.92Z"/><path class="cls-1" d="M345.87,26h-5q-.58,0-.58-2.15a2.06,2.06,0,0,1,.08-.74,23.1,23.1,0,0,0,6.36-4.38q1.07-1.07,2.35-2.44t3-3.51a5.88,5.88,0,0,1,1.57.21c.5.14.74.29.74.46v8.1l6,0,4.09,0q.66,0,.66.74a8,8,0,0,1-.83,3.63h-9.91V45.89a7.84,7.84,0,0,0,1.4,5,4.72,4.72,0,0,0,3.88,1.74,7.79,7.79,0,0,0,1.73-.21,8.77,8.77,0,0,0,1.49-.45q.58-.25,1.07-.5a2.59,2.59,0,0,1,.58-.25q.33-.08.74.74t.33,1.07q-.5,1.16-3.51,2.68a13,13,0,0,1-5.91,1.53,10.42,10.42,0,0,1-7.31-2.77q-3-2.77-3-8.55Z"/><path class="cls-1" d="M386.93,20.2a15.32,15.32,0,0,1,6.94,1.53,13.07,13.07,0,0,1,4.79,3.88,19.21,19.21,0,0,1,2.64,4.87,14.24,14.24,0,0,1,.91,4.83q0,1.82-.62,2.27a4.69,4.69,0,0,1-2.52.45H379.33q-.58,0-.58.5a16.06,16.06,0,0,0,1.07,5.78,11.36,11.36,0,0,0,3.68,4.87,9.72,9.72,0,0,0,6.24,2.07,22.66,22.66,0,0,0,2.4-.12,12.37,12.37,0,0,0,2.15-.41q1-.29,1.73-.54a7.09,7.09,0,0,0,1.53-.74l1.12-.7q.33-.21,1.65-1.12a1.36,1.36,0,0,1,.41.5A1.6,1.6,0,0,1,401,49a2.54,2.54,0,0,1-.5,1.57A13.46,13.46,0,0,1,395.6,55a15.33,15.33,0,0,1-8.18,2.23A16.73,16.73,0,0,1,375,51.88,17.82,17.82,0,0,1,369.83,39q0-8.34,4.83-13.55A16,16,0,0,1,386.93,20.2Zm-.58,3.8a5.84,5.84,0,0,0-3.55,1.16A7.79,7.79,0,0,0,380.4,28a15.78,15.78,0,0,0-1.2,3.1,10.1,10.1,0,0,0-.37,2.44c0,.39.17.58.5.58h13.38q.74,0,.74-1.24A10.71,10.71,0,0,0,391.51,27,5.92,5.92,0,0,0,386.35,24Z"/><path class="cls-2" d="M7,16.3H9.91v1.57H2.28V16.3H5.13V7.09L2.85,8.49,2,7.06,5.67,4.82H7Z"/><path class="cls-2" d="M12.26,4.82H21.1V6.24l-6,11.63H13L19,6.39H12.26Z"/><path class="cls-3" d="M538.73,47.56,349.21,64.05a13.66,13.66,0,0,1-14.78-12.43h0a13.66,13.66,0,0,1,12.43-14.78l189.52-16.5a13.66,13.66,0,0,1,14.78,12.43h0A13.66,13.66,0,0,1,538.73,47.56Z"/><path class="cls-2" d="M364.59,42.28a6,6,0,0,1,1.89.1,4.11,4.11,0,0,1,3.12,3.06l-2.23.61a3.39,3.39,0,0,0-1-1.41,2.12,2.12,0,0,0-1.55-.44,2.35,2.35,0,0,0-1.89,1.19,5.19,5.19,0,0,0-.55,3.15,5.63,5.63,0,0,0,1,3,2.24,2.24,0,0,0,2.06.94,2.62,2.62,0,0,0,1.82-.76,2.07,2.07,0,0,0,.5-1.61l2.28-.2a3.79,3.79,0,0,1-1,3.14,5.12,5.12,0,0,1-3.34,1.36,4.59,4.59,0,0,1-3.83-1.3,6.81,6.81,0,0,1-1.77-4.38,6.61,6.61,0,0,1,1-4.62A4.59,4.59,0,0,1,364.59,42.28Z"/><path class="cls-2" d="M375.49,44.3a4.87,4.87,0,0,1,1.68.14,3.48,3.48,0,0,1,1.4.74,4.77,4.77,0,0,1,1.54,3.38,4.72,4.72,0,0,1-.95,3.56,4,4,0,0,1-2.89,1.41,4.1,4.1,0,0,1-3.12-.89,4.68,4.68,0,0,1-1.54-3.35,4.73,4.73,0,0,1,.94-3.6A4.1,4.1,0,0,1,375.49,44.3Zm2.5,4.42a3.36,3.36,0,0,0-.72-2,1.8,1.8,0,0,0-1.56-.56,2,2,0,0,0-1.51.83,3.07,3.07,0,0,0-.43,2.13,3.32,3.32,0,0,0,.73,2,1.82,1.82,0,0,0,1.56.56,2,2,0,0,0,1.51-.83A3.07,3.07,0,0,0,378,48.72Z"/><path class="cls-2" d="M390.17,44.95A3,3,0,0,1,393,42.8a3,3,0,0,1,2.52.85,4.32,4.32,0,0,1,1.07,2.74L397,51.5l-2.14.18-.44-5.11a2.07,2.07,0,0,0-.59-1.43,1.73,1.73,0,0,0-1.36-.38,1.65,1.65,0,0,0-1.32.86,4,4,0,0,0-.38,2.28l.35,4.1-2.12.18-.44-5.11a2.07,2.07,0,0,0-.59-1.43,1.73,1.73,0,0,0-1.36-.38,1.81,1.81,0,0,0-1.38.88,3.75,3.75,0,0,0-.44,2.32l.35,4L383,52.7,382.26,44l1.85-.16.36,1.49a2.9,2.9,0,0,1,2.62-2,3.15,3.15,0,0,1,1.87.35A3,3,0,0,1,390.17,44.95Z"/><path class="cls-2" d="M399,39.68a1.21,1.21,0,0,1,.26-.94,1.58,1.58,0,0,1,1.93-.17,1.36,1.36,0,0,1,.16,1.82,1.58,1.58,0,0,1-1.93.17A1.21,1.21,0,0,1,399,39.68Zm.49,2.78,2.12-.18.75,8.76-2.12.18Z"/><path class="cls-2" d="M407.44,43.33a3.19,3.19,0,0,1,5.15-1.13,4.49,4.49,0,0,1,1.06,2.74l.44,5.11-2.12.18-.44-5.11a2.07,2.07,0,0,0-.59-1.43,1.73,1.73,0,0,0-1.36-.38,1.81,1.81,0,0,0-1.38.88,3.75,3.75,0,0,0-.44,2.32l.35,4-2.12.18L405.23,42l1.85-.16Z"/><path class="cls-2" d="M417.63,46.13A2.84,2.84,0,0,1,416.38,44a2.81,2.81,0,0,1,.92-2.4,3.91,3.91,0,0,1,2.4-1.06,4.75,4.75,0,0,1,2.37.32,2.38,2.38,0,0,1,.74-1.73,2.7,2.7,0,0,1,1.73-.78l.07,2q-1.55.13-1.51,1.16a2.69,2.69,0,0,1,.81,1.63,3.11,3.11,0,0,1-.18,1.47,2.91,2.91,0,0,1-.74,1.05,4.09,4.09,0,0,1-2.55,1.09,4.54,4.54,0,0,1-1.62-.13.87.87,0,0,0-.65.93q.07.81,1.44.69l2.93-.25q3-.26,3.16,1.83a3,3,0,0,1-.23,1.41,3.69,3.69,0,0,1-.91,1.28A5.86,5.86,0,0,1,420.93,54a6.33,6.33,0,0,1-3.58-.58,2.46,2.46,0,0,1-1.44-2,1.71,1.71,0,0,1,.38-1.33,2.35,2.35,0,0,1,1.25-.71,1.88,1.88,0,0,1-1.2-1.51,1.48,1.48,0,0,1,.31-1.09A2.21,2.21,0,0,1,417.63,46.13Zm1.94,3.64q-1.68.22-1.58,1.42a1.11,1.11,0,0,0,.79.92,3.62,3.62,0,0,0,1.71.23A5.64,5.64,0,0,0,422,52a3.11,3.11,0,0,0,.89-.51,1.55,1.55,0,0,0,.7-1.36.69.69,0,0,0-.27-.51.94.94,0,0,0-.67-.15Zm2.23-6.29a1.73,1.73,0,0,0-.51-1.15A1.56,1.56,0,0,0,420,42a1.55,1.55,0,0,0-1.55,1.79,1.7,1.7,0,0,0,.53,1.16,1.63,1.63,0,0,0,1.3.36,1.55,1.55,0,0,0,1.19-.57A1.77,1.77,0,0,0,421.8,43.48Z"/><path class="cls-2" d="M437.61,39.52q-.42-1.5-2.29-1.34a2.42,2.42,0,0,0-1.4.49,1.08,1.08,0,0,0-.44.93,1,1,0,0,0,.4.79,3.21,3.21,0,0,0,1.08.46l2.62.77a5.25,5.25,0,0,1,2.11,1.1,2.74,2.74,0,0,1,.87,1.86,3,3,0,0,1-1,2.61,5.41,5.41,0,0,1-3.3,1.22,4.94,4.94,0,0,1-3.23-.68,3.71,3.71,0,0,1-1.67-2.83l2.1-.18a1.75,1.75,0,0,0,1.65,1.69,4.56,4.56,0,0,0,1.2,0,2.67,2.67,0,0,0,1.34-.49,1.12,1.12,0,0,0,.54-1,1.28,1.28,0,0,0-.42-.92,3.26,3.26,0,0,0-1.17-.53l-2.4-.72a6.1,6.1,0,0,1-2.17-1,2.6,2.6,0,0,1-.89-1.88,2.73,2.73,0,0,1,.94-2.4,5,5,0,0,1,3-1.15,4.58,4.58,0,0,1,3.12.65,3.67,3.67,0,0,1,1.45,2.44Z"/><path class="cls-2" d="M449.9,40.57a4.91,4.91,0,0,1,.34,1.37,8.06,8.06,0,0,1,0,1.14l-5.65.48a3,3,0,0,0,.67,1.68,1.71,1.71,0,0,0,1.53.54,1.41,1.41,0,0,0,1.47-1.29l2.14-.18a3.15,3.15,0,0,1-1,2.17,4,4,0,0,1-2.43,1,3.81,3.81,0,0,1-3-1,4.8,4.8,0,0,1-1.49-3.26,4.74,4.74,0,0,1,.92-3.48,3.82,3.82,0,0,1,2.79-1.47,3.41,3.41,0,0,1,2.93,1A4,4,0,0,1,449.9,40.57Zm-3.56-.62a1.76,1.76,0,0,0-1.35.7,2.64,2.64,0,0,0-.47,1.55l3.72-.32a2,2,0,0,0-1.06-1.83A1.77,1.77,0,0,0,446.34,39.95Z"/><path class="cls-2" d="M454.5,39a2.73,2.73,0,0,1,2.4-1.64,3.68,3.68,0,0,1,2.87,1,5.3,5.3,0,0,1,.56,6.78,3.66,3.66,0,0,1-2.65,1.46,2.78,2.78,0,0,1-2.42-.75l.42,5-2.12.18-1.11-13,1.75-.15Zm2.64,5.7a2.11,2.11,0,0,0,.77-.23,2.05,2.05,0,0,0,.69-.57,2.82,2.82,0,0,0,.55-2.08,3,3,0,0,0-.79-1.93,1.93,1.93,0,0,0-1.57-.59,2.09,2.09,0,0,0-1.41.64,2,2,0,0,0-.48,1.52L455,43a1.74,1.74,0,0,0,.71,1.32A2,2,0,0,0,457.15,44.68Z"/><path class="cls-2" d="M469.09,45.12a5.54,5.54,0,0,1-1.83.63,4,4,0,0,1-1.21-.06,2.71,2.71,0,0,1-.95-.41,2.59,2.59,0,0,1-1-2l-.42-4.89-1.22.1-.12-1.42,1.22-.1-.2-2.3,2.12-.18.2,2.3,2.37-.2.12,1.42-2.37.2.41,4.82q.09,1.08,1.12,1a4.33,4.33,0,0,0,1.32-.4Z"/><path class="cls-2" d="M477.51,38.21a4.91,4.91,0,0,1,.34,1.37,8.06,8.06,0,0,1,0,1.14l-5.65.48a3,3,0,0,0,.67,1.68,1.71,1.71,0,0,0,1.53.54,1.41,1.41,0,0,0,1.47-1.29l2.14-.18a3.15,3.15,0,0,1-1,2.17,4,4,0,0,1-2.43,1,3.81,3.81,0,0,1-3-1,4.8,4.8,0,0,1-1.49-3.26,4.74,4.74,0,0,1,.92-3.48,3.82,3.82,0,0,1,2.79-1.47,3.41,3.41,0,0,1,2.93,1A4,4,0,0,1,477.51,38.21ZM474,37.59a1.76,1.76,0,0,0-1.35.7,2.64,2.64,0,0,0-.47,1.55l3.72-.32a2,2,0,0,0-1.06-1.83A1.77,1.77,0,0,0,474,37.59Z"/><path class="cls-2" d="M488,36.59a3,3,0,0,1,2.81-2.14,3,3,0,0,1,2.52.85A4.32,4.32,0,0,1,494.37,38l.44,5.11-2.14.18-.44-5.11a2.07,2.07,0,0,0-.59-1.43,1.73,1.73,0,0,0-1.36-.38,1.65,1.65,0,0,0-1.32.86,4,4,0,0,0-.38,2.28l.35,4.1-2.12.18-.44-5.11a2.07,2.07,0,0,0-.59-1.43,1.73,1.73,0,0,0-1.36-.38,1.81,1.81,0,0,0-1.38.88,3.75,3.75,0,0,0-.44,2.32l.35,4-2.12.18-.75-8.74,1.85-.16.36,1.49a2.9,2.9,0,0,1,2.62-2,3.15,3.15,0,0,1,1.87.35A3,3,0,0,1,488,36.59Z"/><path class="cls-2" d="M504.11,35.93a4.91,4.91,0,0,1,.34,1.37,8.06,8.06,0,0,1,0,1.14l-5.65.48a3,3,0,0,0,.67,1.68,1.71,1.71,0,0,0,1.53.54,1.41,1.41,0,0,0,1.47-1.29l2.14-.18a3.15,3.15,0,0,1-1,2.17,4,4,0,0,1-2.43,1,3.81,3.81,0,0,1-3-1,4.8,4.8,0,0,1-1.49-3.26,4.74,4.74,0,0,1,.92-3.48,3.82,3.82,0,0,1,2.79-1.47,3.41,3.41,0,0,1,2.93,1A4,4,0,0,1,504.11,35.93Zm-3.56-.62a1.76,1.76,0,0,0-1.35.7,2.64,2.64,0,0,0-.47,1.55l3.72-.32a2,2,0,0,0-1.06-1.83A1.77,1.77,0,0,0,500.55,35.31Z"/><path class="cls-2" d="M508.94,34.87a2.57,2.57,0,0,1,2.21-2.09,3.11,3.11,0,0,1,.78.06l.15,2.13a4.73,4.73,0,0,0-1,0q-2.12.18-1.87,3.11l.33,3.83-2.12.18-.75-8.76,2.12-.18Z"/><path class="cls-2" d="M525.19,28.66l.63,7.39,2-.17L528,37.7l-2,.17.22,2.59-2.1.18L523.87,38l-5.92.51-.14-1.6,5.32-8.12Zm-4.85,8.08,3.51-.3L523.46,32Z"/></svg>