<svg id="Layer_1" data-name="Layer 1" xmlns="http://www.w3.org/2000/svg" viewBox="0 0 892.59 79.7"><defs><style>.cls-1,.cls-3{fill:#fff;stroke:#1414ef;stroke-miterlimit:10;}.cls-1{stroke-width:1.2px;}.cls-2{fill:#1414ef;}</style></defs><title>title</title><path class="cls-1" d="M69.86,4.09,87.21,47.38q1.24,3.3,2.48,6a4,4,0,0,0,2.64,2,11,11,0,0,0,3.14.74q.33,0,.33,1.49a2.78,2.78,0,0,1-.17,1.24q-9.91-.5-10.41-.5t-10.74.5a2.33,2.33,0,0,1-.33-1.53c0-.8.11-1.2.33-1.2a10.65,10.65,0,0,0,2.73-.5q1.73-.5,2.07-1.16a2.36,2.36,0,0,0,.25-1.07A19,19,0,0,0,78,47.71L75.06,40a.91.91,0,0,0-.58-.33q-2.64-.16-7.1-.17T58,39.78c-.33,0-.5.11-.5.33l-3.14,7.68a23.45,23.45,0,0,0-1.57,5.37,1.84,1.84,0,0,0,.91,1.65,8.27,8.27,0,0,0,2.6.91,14.26,14.26,0,0,0,2.52.41q.25.08.25,1.16a5.41,5.41,0,0,1-.17,1.57q-.41,0-3.88-.25t-5.62-.25q-2.15,0-5.08.21l-4.17.29a1.76,1.76,0,0,1-.33-1.24q0-1.49.17-1.49a11.94,11.94,0,0,0,3.18-.7,5.1,5.1,0,0,0,2.77-1.61A39.26,39.26,0,0,0,49,47.38L64.41,10.21q1.9-5,3.06-5.95a2.11,2.11,0,0,1,1.4-.58A1.35,1.35,0,0,1,69.86,4.09ZM59.94,34.82q2.89.25,5.95.25,2.89,0,6.77-.25l.17-.33L66.55,18,59.78,34.49C59.78,34.71,59.83,34.82,59.94,34.82Z"/><path class="cls-1" d="M117.69,32a28.28,28.28,0,0,1,7.93-20.08,25.45,25.45,0,0,1,19.25-8.43q7.27,0,19.17,3.06.25.08.7,5.49t.45,6.4q0,1-1.65,1a3,3,0,0,1-1.82-.5,15,15,0,0,0-.7-2.31,16.34,16.34,0,0,0-1.65-2.93,12.09,12.09,0,0,0-2.89-3,16.52,16.52,0,0,0-4.63-2.19,21.59,21.59,0,0,0-6.65-.95A14.6,14.6,0,0,0,132.56,14Q128,20.45,128,30.53A31.68,31.68,0,0,0,130.12,42a22.52,22.52,0,0,0,6.69,9.33,16.15,16.15,0,0,0,10.7,3.84q5.2,0,7.93-1.57a2.16,2.16,0,0,0,.83-1.9l-.08-5.95v-.58a25.11,25.11,0,0,0-.58-6.69q-.33-1.07-2.44-1.57a15.9,15.9,0,0,0-3.51-.5q-.33,0-.33-1.2a2.33,2.33,0,0,1,.33-1.53q.91,0,5,.25t6.57.25l10-.5a4.45,4.45,0,0,1,.25,1.4c0,.94-.11,1.4-.33,1.4A10.56,10.56,0,0,0,169,37a21.55,21.55,0,0,0-2.44.83q-1.07.66-1.07,6,0,1.74,0,3.47t0,1.9a7.12,7.12,0,0,0,.41,2.56,7,7,0,0,1,.41,1.24q0,1.16-1.82,2-3.31,1.49-4.87,2.07a43.71,43.71,0,0,1-6,1.4,53.54,53.54,0,0,1-9.79.83,24.55,24.55,0,0,1-18.55-8.1A27,27,0,0,1,117.69,32Z"/><path class="cls-1" d="M192.79,22.1a15.32,15.32,0,0,1,6.94,1.53,13.07,13.07,0,0,1,4.79,3.88,19.21,19.21,0,0,1,2.64,4.87,14.24,14.24,0,0,1,.91,4.83q0,1.82-.62,2.27a4.69,4.69,0,0,1-2.52.45H185.19q-.58,0-.58.5a16.06,16.06,0,0,0,1.07,5.78,11.36,11.36,0,0,0,3.68,4.87,9.72,9.72,0,0,0,6.24,2.07A22.66,22.66,0,0,0,198,53a12.37,12.37,0,0,0,2.15-.41q1-.29,1.73-.54a7.09,7.09,0,0,0,1.53-.74l1.12-.7q.33-.21,1.65-1.12a1.36,1.36,0,0,1,.41.5,1.6,1.6,0,0,1,.25.83,2.54,2.54,0,0,1-.5,1.57,13.46,13.46,0,0,1-4.87,4.46,15.33,15.33,0,0,1-8.18,2.23,16.73,16.73,0,0,1-12.39-5.33,17.82,17.82,0,0,1-5.2-12.93q0-8.34,4.83-13.55A16,16,0,0,1,192.79,22.1Zm-.58,3.8a5.84,5.84,0,0,0-3.55,1.16,7.79,7.79,0,0,0-2.4,2.81,15.78,15.78,0,0,0-1.2,3.1,10.1,10.1,0,0,0-.37,2.44c0,.39.17.58.5.58h13.38q.74,0,.74-1.24a10.71,10.71,0,0,0-1.94-5.87A5.92,5.92,0,0,0,192.21,25.9Z"/><path class="cls-1" d="M238.88,22.1q10.66,0,10.66,16.94v7.85a34.58,34.58,0,0,0,.58,7.44q.16.58,2.27,1.2a12.65,12.65,0,0,0,2.85.62c.17,0,.26.4.29,1.2a4.68,4.68,0,0,1-.12,1.61q-.5-.08-4.34-.33t-5.74-.25q-2,0-5.49.25t-4.25.33a2.42,2.42,0,0,1-.33-1.57q0-1.24.33-1.24a9.82,9.82,0,0,0,2.77-.62q1.86-.62,2-1.2a23.73,23.73,0,0,0,.66-6V40.44q0-6.86-1.86-9.58t-5.91-2.73a7.65,7.65,0,0,0-4.63,1.45,4,4,0,0,0-2,3.1V46.88a34.58,34.58,0,0,0,.58,7.44q.16.58,2.19,1.2a11.88,11.88,0,0,0,2.69.62c.22,0,.34.4.37,1.2a4.69,4.69,0,0,1-.12,1.61q-.66-.08-4.34-.33t-5.58-.25q-2,0-5.74.25t-4.42.33a2.42,2.42,0,0,1-.33-1.57q0-1.24.33-1.24a11.52,11.52,0,0,0,3-.62q2-.62,2.19-1.2a27,27,0,0,0,.58-6V34.82q0-3.88-1.32-5.29a4,4,0,0,0-1.86-1.24,9.41,9.41,0,0,0-2-.5c-.52-.05-.78-.14-.78-.25q0-2.4.41-2.48a117.19,117.19,0,0,0,13.3-2.48.54.54,0,0,1,.21-.12.79.79,0,0,1,.25,0h.21c.22,0,.41.19.58.58a2.51,2.51,0,0,1,.25.91,28.15,28.15,0,0,0-.33,3,.65.65,0,0,0,.08.41,1.23,1.23,0,0,0,.41-.25,18.32,18.32,0,0,1,5.08-3.47A14.46,14.46,0,0,1,238.88,22.1Z"/><path class="cls-1" d="M277.05,22.1A15.32,15.32,0,0,1,284,23.63a13.07,13.07,0,0,1,4.79,3.88,19.21,19.21,0,0,1,2.64,4.87,14.24,14.24,0,0,1,.91,4.83q0,1.82-.62,2.27a4.69,4.69,0,0,1-2.52.45H269.45q-.58,0-.58.5a16.06,16.06,0,0,0,1.07,5.78,11.36,11.36,0,0,0,3.68,4.87,9.72,9.72,0,0,0,6.24,2.07,22.66,22.66,0,0,0,2.4-.12,12.37,12.37,0,0,0,2.15-.41q1-.29,1.73-.54a7.09,7.09,0,0,0,1.53-.74l1.12-.7q.33-.21,1.65-1.12a1.36,1.36,0,0,1,.41.5,1.6,1.6,0,0,1,.25.83,2.54,2.54,0,0,1-.5,1.57,13.46,13.46,0,0,1-4.87,4.46,15.33,15.33,0,0,1-8.18,2.23,16.73,16.73,0,0,1-12.39-5.33A17.82,17.82,0,0,1,260,40.85q0-8.34,4.83-13.55A16,16,0,0,1,277.05,22.1Zm-.58,3.8a5.84,5.84,0,0,0-3.55,1.16,7.79,7.79,0,0,0-2.4,2.81,15.78,15.78,0,0,0-1.2,3.1A10.1,10.1,0,0,0,269,35.4c0,.39.17.58.5.58h13.38q.74,0,.74-1.24a10.71,10.71,0,0,0-1.94-5.87A5.92,5.92,0,0,0,276.47,25.9Z"/><path class="cls-1" d="M320.34,22.1q4.54,0,6.77,2.73,0,7-4,7a4.91,4.91,0,0,1-3.22-1.65,5.17,5.17,0,0,0-3.55-1.65,4.43,4.43,0,0,0-4,2.6,11,11,0,0,0-1.45,5.41V46.88a34.58,34.58,0,0,0,.58,7.44q.16.58,2.19,1.2a11.67,11.67,0,0,0,2.77.62c.17,0,.26.4.29,1.2a8.62,8.62,0,0,1,0,1.61q-.66-.08-4.38-.33t-5.62-.25q-2,0-5.74.25t-4.42.33a2.42,2.42,0,0,1-.33-1.57q0-1.24.33-1.24a11.52,11.52,0,0,0,3-.62q2-.62,2.19-1.2a27,27,0,0,0,.58-6V34.82q0-3.88-1.32-5.29a4,4,0,0,0-1.86-1.24,9.41,9.41,0,0,0-2-.5c-.52-.05-.78-.14-.78-.25q0-2.4.41-2.48a117.19,117.19,0,0,0,13.3-2.48,5,5,0,0,1,.66-.17c.22,0,.41.19.58.58a2,2,0,0,1,.21,1q0,.37-.12,1.16t-.21,1.65a10.57,10.57,0,0,0-.12,1.12,15.17,15.17,0,0,1,4-4A9.05,9.05,0,0,1,320.34,22.1Z"/><path class="cls-1" d="M349,22.1q5.12,0,7.68,2.69T359.25,34V50.27a3.77,3.77,0,0,0,.74,2.52,2.48,2.48,0,0,0,2,.87,5.15,5.15,0,0,0,2.81-1.07c.33.11.5.41.5.91a4.91,4.91,0,0,1-.5,2.48,20.44,20.44,0,0,1-3.3,2.07,8.61,8.61,0,0,1-4,1.07,6,6,0,0,1-3.72-1.41,6.77,6.77,0,0,1-2.4-3.06l-.62.54q-.54.46-1.49,1.12a24.47,24.47,0,0,1-2.15,1.32,13.18,13.18,0,0,1-2.81,1.12,12,12,0,0,1-3.26.45,9.86,9.86,0,0,1-6.73-2.27,7.85,7.85,0,0,1-2.6-6.24,7.61,7.61,0,0,1,.95-3.72A9.88,9.88,0,0,1,335,44.12a16.92,16.92,0,0,1,3.55-2.19,33.8,33.8,0,0,1,3.84-1.61q1.61-.54,4.13-1.28T350,38a1.3,1.3,0,0,0,.74-1.32V32.1a7.09,7.09,0,0,0-1.32-4.54,4.31,4.31,0,0,0-3.55-1.65A5,5,0,0,0,342,27.43a6.18,6.18,0,0,0-1.4,4.34,2.68,2.68,0,0,1-1.24,2.44,5.14,5.14,0,0,1-2.81.78q-3.06,0-4.3-2,0-4,5.41-7.43A20.72,20.72,0,0,1,349,22.1Zm-3.72,31.72a6.4,6.4,0,0,0,3.84-1.16A3.27,3.27,0,0,0,350.74,50V41.6q-.58.25-2.44.83t-2.85,1a22.54,22.54,0,0,0-2.31,1.16,5,5,0,0,0-1.94,1.82,4.55,4.55,0,0,0-.62,2.31,5.09,5.09,0,0,0,1.32,3.88A4.75,4.75,0,0,0,345.29,53.82Z"/><path class="cls-1" d="M373.79,27.88h-5q-.58,0-.58-2.15a2.06,2.06,0,0,1,.08-.74,23.1,23.1,0,0,0,6.36-4.38q1.07-1.07,2.35-2.44t3-3.51a5.88,5.88,0,0,1,1.57.21c.5.14.74.29.74.46v8.1l6,0,4.09,0q.66,0,.66.74a8,8,0,0,1-.83,3.63H382.3V47.79a7.84,7.84,0,0,0,1.4,5,4.72,4.72,0,0,0,3.88,1.74,7.79,7.79,0,0,0,1.73-.21,8.77,8.77,0,0,0,1.49-.45q.58-.25,1.07-.5a2.59,2.59,0,0,1,.58-.25q.33-.08.74.74t.33,1.07q-.5,1.16-3.51,2.68a13,13,0,0,1-5.91,1.53,10.42,10.42,0,0,1-7.31-2.77q-3-2.77-3-8.55Z"/><path class="cls-1" d="M412.62,46.88a30.37,30.37,0,0,0,.66,7.44q.16.58,2.23,1.2a12.15,12.15,0,0,0,2.81.62c.22,0,.34.4.37,1.2a4.69,4.69,0,0,1-.12,1.61q-.58-.08-4.42-.33t-5.66-.25q-2.07,0-5.82.25t-4.34.33a2.42,2.42,0,0,1-.33-1.57q0-1.24.33-1.24a12,12,0,0,0,3-.62q2.06-.62,2.23-1.2a27,27,0,0,0,.58-6V34.82q0-3.88-1.32-5.29a4.59,4.59,0,0,0-1.9-1.24,8.68,8.68,0,0,0-2-.5c-.55-.05-.83-.14-.83-.25q0-2.4.5-2.48a63.43,63.43,0,0,0,6.69-1,64.79,64.79,0,0,0,6.53-1.49,4.78,4.78,0,0,0,.66-.17q.41,0,.66.58a1.52,1.52,0,0,1,.17.91,70.82,70.82,0,0,0-.66,7.1ZM404,12.31a5,5,0,0,1-1.49-3.63A4.89,4.89,0,0,1,404,5.08a5.12,5.12,0,0,1,8.76,3.59,5,5,0,0,1-1.49,3.63,5.09,5.09,0,0,1-7.27,0Z"/><path class="cls-1" d="M441.37,22.1a18.21,18.21,0,0,1,13.26,5.41,17.7,17.7,0,0,1,5.49,13.09,18.71,18.71,0,0,1-37.42,0,17.8,17.8,0,0,1,5.41-13.14A18.1,18.1,0,0,1,441.37,22.1ZM440.3,26a6.65,6.65,0,0,0-6,3.76,17.77,17.77,0,0,0-2.15,9,24.09,24.09,0,0,0,2.69,11.65q2.68,5,7.48,5a6.73,6.73,0,0,0,6.07-3.8,17.57,17.57,0,0,0,2.19-8.92,28.36,28.36,0,0,0-1.07-8A14.57,14.57,0,0,0,446,28.46,7.66,7.66,0,0,0,440.3,26Z"/><path class="cls-1" d="M491.6,22.1q10.66,0,10.66,16.94v7.85a34.58,34.58,0,0,0,.58,7.44q.16.58,2.27,1.2a12.65,12.65,0,0,0,2.85.62c.17,0,.26.4.29,1.2a4.68,4.68,0,0,1-.12,1.61q-.5-.08-4.34-.33T498,58.37q-2,0-5.49.25t-4.25.33a2.42,2.42,0,0,1-.33-1.57q0-1.24.33-1.24a9.82,9.82,0,0,0,2.77-.62q1.86-.62,2-1.2a23.73,23.73,0,0,0,.66-6V40.44q0-6.86-1.86-9.58T486,28.13a7.65,7.65,0,0,0-4.63,1.45,4,4,0,0,0-2,3.1V46.88a34.58,34.58,0,0,0,.58,7.44q.16.58,2.19,1.2a11.88,11.88,0,0,0,2.69.62c.22,0,.34.4.37,1.2a4.69,4.69,0,0,1-.12,1.61q-.66-.08-4.34-.33t-5.58-.25q-2,0-5.74.25t-4.42.33a2.42,2.42,0,0,1-.33-1.57q0-1.24.33-1.24a11.52,11.52,0,0,0,3-.62q2-.62,2.19-1.2a27,27,0,0,0,.58-6V34.82q0-3.88-1.32-5.29a4,4,0,0,0-1.86-1.24,9.41,9.41,0,0,0-2-.5c-.52-.05-.78-.14-.78-.25q0-2.4.41-2.48a117.19,117.19,0,0,0,13.3-2.48.54.54,0,0,1,.21-.12.79.79,0,0,1,.25,0h.21c.22,0,.41.19.58.58a2.51,2.51,0,0,1,.25.91,28.15,28.15,0,0,0-.33,3,.65.65,0,0,0,.08.41,1.23,1.23,0,0,0,.41-.25,18.32,18.32,0,0,1,5.08-3.47A14.46,14.46,0,0,1,491.6,22.1Z"/><path class="cls-1" d="M560.17,4.09l17.35,43.29q1.24,3.3,2.48,6a4,4,0,0,0,2.64,2,11,11,0,0,0,3.14.74q.33,0,.33,1.49a2.78,2.78,0,0,1-.17,1.24q-9.91-.5-10.41-.5t-10.74.5a2.33,2.33,0,0,1-.33-1.53c0-.8.11-1.2.33-1.2a10.65,10.65,0,0,0,2.73-.5q1.73-.5,2.07-1.16a2.36,2.36,0,0,0,.25-1.07,19,19,0,0,0-1.57-5.7L565.37,40a.91.91,0,0,0-.58-.33q-2.64-.16-7.1-.17t-9.42.25c-.33,0-.5.11-.5.33l-3.14,7.68a23.45,23.45,0,0,0-1.57,5.37,1.84,1.84,0,0,0,.91,1.65,8.27,8.27,0,0,0,2.6.91,14.26,14.26,0,0,0,2.52.41q.25.08.25,1.16a5.41,5.41,0,0,1-.17,1.57q-.41,0-3.88-.25t-5.62-.25q-2.15,0-5.08.21l-4.17.29a1.76,1.76,0,0,1-.33-1.24q0-1.49.17-1.49a11.94,11.94,0,0,0,3.18-.7,5.1,5.1,0,0,0,2.77-1.61,39.26,39.26,0,0,0,3.14-6.44l15.37-37.18q1.9-5,3.06-5.95a2.11,2.11,0,0,1,1.4-.58A1.35,1.35,0,0,1,560.17,4.09Zm-9.91,30.73q2.89.25,5.95.25,2.89,0,6.77-.25l.17-.33L556.86,18l-6.77,16.52C550.09,34.71,550.14,34.82,550.25,34.82Z"/><path class="cls-1" d="M614.45,1.2a16.27,16.27,0,0,1,5.74.87,5.77,5.77,0,0,1,3,2.11,9.27,9.27,0,0,1-.45,4.58,3,3,0,0,1-3,2,3.22,3.22,0,0,1-2.52-1.36q-1.12-1.36-2.35-2.73A3.8,3.8,0,0,0,612,5.33a4.4,4.4,0,0,0-3.72,2.15,13.9,13.9,0,0,0-2.11,5.21,33.72,33.72,0,0,0-.62,6.69v3.8c0,.06.05.14.17.25a.47.47,0,0,0,.33.17h9.09a.66.66,0,0,1,.41.08.87.87,0,0,1,.08.5,8.5,8.5,0,0,1-1,3.8H606a.44.44,0,0,0-.5.5V46.88a31.59,31.59,0,0,0,.66,7.44q.16.58,2.19,1.2a11.67,11.67,0,0,0,2.77.62c.17,0,.26.4.29,1.2a4.68,4.68,0,0,1-.12,1.61q-.5-.08-4.3-.33t-5.78-.25q-2,0-5.62.25t-4.3.33A1.56,1.56,0,0,1,591,58a4.93,4.93,0,0,1,0-1.28c.05-.41.17-.62.33-.62a11.07,11.07,0,0,0,2.89-.62q2-.62,2.15-1.2a27.39,27.39,0,0,0,.74-6.77v-19c0-.38-.17-.58-.5-.58h-5c-.11,0-.17-.17-.17-.5a4.41,4.41,0,0,1,1.16-2.4,3.32,3.32,0,0,1,2.64-1.49h1.32a.44.44,0,0,0,.5-.5v-.83A22.47,22.47,0,0,1,602.26,7.4Q607.42,1.2,614.45,1.2Z"/><path class="cls-1" d="M624.52,27.88h-5q-.58,0-.58-2.15A2.06,2.06,0,0,1,619,25a23.1,23.1,0,0,0,6.36-4.38q1.07-1.07,2.35-2.44t3-3.51a5.88,5.88,0,0,1,1.57.21c.5.14.74.29.74.46v8.1l6,0,4.09,0q.66,0,.66.74a8,8,0,0,1-.83,3.63H633V47.79a7.84,7.84,0,0,0,1.4,5,4.72,4.72,0,0,0,3.88,1.74,7.79,7.79,0,0,0,1.73-.21,8.77,8.77,0,0,0,1.49-.45q.58-.25,1.07-.5a2.59,2.59,0,0,1,.58-.25q.33-.08.74.74t.33,1.07q-.5,1.16-3.51,2.68a13,13,0,0,1-5.91,1.53,10.42,10.42,0,0,1-7.31-2.77q-3-2.77-3-8.55Z"/><path class="cls-1" d="M665.58,22.1a15.32,15.32,0,0,1,6.94,1.53,13.07,13.07,0,0,1,4.79,3.88A19.21,19.21,0,0,1,680,32.39a14.24,14.24,0,0,1,.91,4.83q0,1.82-.62,2.27a4.69,4.69,0,0,1-2.52.45H658q-.58,0-.58.5a16.06,16.06,0,0,0,1.07,5.78,11.36,11.36,0,0,0,3.68,4.87,9.72,9.72,0,0,0,6.24,2.07,22.66,22.66,0,0,0,2.4-.12,12.37,12.37,0,0,0,2.15-.41q1-.29,1.73-.54a7.09,7.09,0,0,0,1.53-.74l1.12-.7q.33-.21,1.65-1.12a1.36,1.36,0,0,1,.41.5,1.6,1.6,0,0,1,.25.83,2.54,2.54,0,0,1-.5,1.57,13.46,13.46,0,0,1-4.87,4.46,15.33,15.33,0,0,1-8.18,2.23,16.73,16.73,0,0,1-12.39-5.33,17.82,17.82,0,0,1-5.2-12.93q0-8.34,4.83-13.55A16,16,0,0,1,665.58,22.1ZM665,25.9a5.84,5.84,0,0,0-3.55,1.16,7.79,7.79,0,0,0-2.4,2.81,15.78,15.78,0,0,0-1.2,3.1,10.1,10.1,0,0,0-.37,2.44c0,.39.17.58.5.58h13.38q.74,0,.74-1.24a10.71,10.71,0,0,0-1.94-5.87A5.92,5.92,0,0,0,665,25.9Z"/><path class="cls-1" d="M708.87,22.1q4.54,0,6.77,2.73,0,7-4,7a4.91,4.91,0,0,1-3.22-1.65,5.17,5.17,0,0,0-3.55-1.65,4.43,4.43,0,0,0-4,2.6,11,11,0,0,0-1.45,5.41V46.88a34.58,34.58,0,0,0,.58,7.44q.16.58,2.19,1.2a11.67,11.67,0,0,0,2.77.62c.17,0,.26.4.29,1.2a8.62,8.62,0,0,1,0,1.61q-.66-.08-4.38-.33t-5.62-.25q-2,0-5.74.25t-4.42.33a2.42,2.42,0,0,1-.33-1.57q0-1.24.33-1.24a11.52,11.52,0,0,0,3-.62q2-.62,2.19-1.2a27,27,0,0,0,.58-6V34.82q0-3.88-1.32-5.29a4,4,0,0,0-1.86-1.24,9.41,9.41,0,0,0-2-.5c-.52-.05-.78-.14-.78-.25q0-2.4.41-2.48a117.19,117.19,0,0,0,13.3-2.48,5,5,0,0,1,.66-.17c.22,0,.41.19.58.58a2,2,0,0,1,.21,1q0,.37-.12,1.16t-.21,1.65a10.57,10.57,0,0,0-.12,1.12,15.17,15.17,0,0,1,4-4A9.05,9.05,0,0,1,708.87,22.1Z"/><path class="cls-2" d="M7,18.2H9.91v1.57H2.28V18.2H5.13V9L2.85,10.38,2,9,5.67,6.72H7Z"/><path class="cls-2" d="M20.35,14.21a3.29,3.29,0,0,1,.6,2,3.28,3.28,0,0,1-1.2,2.69,5,5,0,0,1-3.26,1A7.42,7.42,0,0,1,14,19.49a5.59,5.59,0,0,1-2-1.16l.69-1.41a5.82,5.82,0,0,0,3.72,1.43,3,3,0,0,0,2-.56,2.06,2.06,0,0,0,.68-1.68,2,2,0,0,0-.69-1.64,3.37,3.37,0,0,0-2.1-.55H14.69V12.38H16a3.26,3.26,0,0,0,2.07-.56,2,2,0,0,0,.71-1.66,1.91,1.91,0,0,0-.59-1.51,2.42,2.42,0,0,0-1.67-.53,5.72,5.72,0,0,0-3.63,1.43l-.67-1.41a5.41,5.41,0,0,1,2-1.16,7.23,7.23,0,0,1,2.44-.42,4.44,4.44,0,0,1,2.93.91,3,3,0,0,1,1.09,2.46,3.48,3.48,0,0,1-.54,1.93,3,3,0,0,1-1.5,1.2A3.23,3.23,0,0,1,20.35,14.21Z"/><path class="cls-3" d="M508.55,40.38l-177.27,16A13.66,13.66,0,0,1,316.46,44h0a13.66,13.66,0,0,1,12.39-14.82l177.27-16a13.66,13.66,0,0,1,14.82,12.39h0A13.66,13.66,0,0,1,508.55,40.38Z"/><path class="cls-2" d="M346.88,34.24a6,6,0,0,1,1.89.09,4.11,4.11,0,0,1,3.13,3l-2.23.61a3.39,3.39,0,0,0-1-1.4,2.12,2.12,0,0,0-1.55-.43,2.35,2.35,0,0,0-1.89,1.2,5.18,5.18,0,0,0-.54,3.15,5.63,5.63,0,0,0,1,3,2.24,2.24,0,0,0,2.06.93,2.62,2.62,0,0,0,1.82-.77,2.06,2.06,0,0,0,.49-1.61l2.28-.2a3.78,3.78,0,0,1-1,3.14A5.11,5.11,0,0,1,348,46.39a4.59,4.59,0,0,1-3.83-1.29,6.81,6.81,0,0,1-1.78-4.37,6.61,6.61,0,0,1,1-4.62A4.58,4.58,0,0,1,346.88,34.24Z"/><path class="cls-2" d="M357.78,36.23a4.87,4.87,0,0,1,1.68.13,3.48,3.48,0,0,1,1.41.74,4.77,4.77,0,0,1,1.55,3.38,4.72,4.72,0,0,1-.93,3.56,4,4,0,0,1-2.88,1.42,4.1,4.1,0,0,1-3.12-.88,4.68,4.68,0,0,1-1.55-3.34,4.73,4.73,0,0,1,.93-3.6A4.1,4.1,0,0,1,357.78,36.23Zm2.51,4.41a3.36,3.36,0,0,0-.72-2,1.8,1.8,0,0,0-1.56-.56,2,2,0,0,0-1.51.83,3.07,3.07,0,0,0-.43,2.13,3.31,3.31,0,0,0,.73,2,1.82,1.82,0,0,0,1.56.56,2,2,0,0,0,1.5-.83A3.07,3.07,0,0,0,360.29,40.64Z"/><path class="cls-2" d="M372.45,36.83a3,3,0,0,1,2.8-2.15,3,3,0,0,1,2.52.85,4.32,4.32,0,0,1,1.08,2.73l.45,5.1-2.14.19-.45-5.1a2.07,2.07,0,0,0-.6-1.42,1.73,1.73,0,0,0-1.36-.38,1.65,1.65,0,0,0-1.32.86,4,4,0,0,0-.38,2.28l.36,4.1-2.12.19-.45-5.1a2.07,2.07,0,0,0-.6-1.42,1.73,1.73,0,0,0-1.36-.38,1.81,1.81,0,0,0-1.38.88,3.75,3.75,0,0,0-.44,2.32l.36,4-2.12.19-.78-8.74,1.85-.16.37,1.49a2.9,2.9,0,0,1,2.61-2,3.15,3.15,0,0,1,1.87.34A3,3,0,0,1,372.45,36.83Z"/><path class="cls-2" d="M381.28,31.53a1.21,1.21,0,0,1,.26-.94,1.58,1.58,0,0,1,1.93-.17,1.36,1.36,0,0,1,.16,1.82,1.58,1.58,0,0,1-1.93.17A1.21,1.21,0,0,1,381.28,31.53Zm.5,2.78,2.12-.19.78,8.75-2.12.19Z"/><path class="cls-2" d="M389.71,35.15A3.19,3.19,0,0,1,394.86,34a4.49,4.49,0,0,1,1.07,2.73l.45,5.1-2.12.19-.45-5.1a2.07,2.07,0,0,0-.6-1.42,1.73,1.73,0,0,0-1.36-.38,1.81,1.81,0,0,0-1.38.88,3.75,3.75,0,0,0-.44,2.32l.36,4-2.12.19-.78-8.74,1.85-.16Z"/><path class="cls-2" d="M399.91,37.92a2.84,2.84,0,0,1-1.26-2.15,2.81,2.81,0,0,1,.91-2.4,3.92,3.92,0,0,1,2.4-1.06,4.75,4.75,0,0,1,2.37.31,2.38,2.38,0,0,1,.73-1.73,2.7,2.7,0,0,1,1.72-.79l.07,2q-1.55.14-1.51,1.17a2.69,2.69,0,0,1,.82,1.63,3.11,3.11,0,0,1-.18,1.47,2.91,2.91,0,0,1-.74,1.05,4.09,4.09,0,0,1-2.55,1.1,4.54,4.54,0,0,1-1.62-.13.87.87,0,0,0-.64.93q.07.81,1.44.69l2.93-.26q3-.26,3.17,1.82a3,3,0,0,1-.23,1.41,3.69,3.69,0,0,1-.91,1.29,5.86,5.86,0,0,1-3.6,1.48,6.33,6.33,0,0,1-3.58-.57,2.46,2.46,0,0,1-1.44-2,1.71,1.71,0,0,1,.38-1.33,2.35,2.35,0,0,1,1.25-.72,1.88,1.88,0,0,1-1.2-1.51,1.48,1.48,0,0,1,.3-1.09A2.2,2.2,0,0,1,399.91,37.92Zm2,3.63q-1.68.22-1.58,1.43a1.11,1.11,0,0,0,.8.92,3.62,3.62,0,0,0,1.71.22,5.64,5.64,0,0,0,1.5-.3,3.11,3.11,0,0,0,.89-.51,1.55,1.55,0,0,0,.69-1.37.69.69,0,0,0-.27-.51.94.94,0,0,0-.67-.15Zm2.21-6.29a1.73,1.73,0,0,0-.51-1.15,1.56,1.56,0,0,0-1.27-.35,1.54,1.54,0,0,0-1.54,1.79,1.7,1.7,0,0,0,.54,1.16,1.63,1.63,0,0,0,1.3.36,1.55,1.55,0,0,0,1.19-.58A1.77,1.77,0,0,0,404.07,35.26Z"/><path class="cls-2" d="M416.14,28.33l2.66-.24,4.86,11.33-2.25.2-1-2.44-4.33.38-.6,2.59-2.25.2Zm.31,7.58,3.27-.29-2.06-4.87Z"/><path class="cls-2" d="M431.39,37.14a2.78,2.78,0,0,1-2.51,2,3,3,0,0,1-3.22-1.54,3.88,3.88,0,0,1-.41-1.5l-.49-5.57,2.12-.19.48,5.36a1.78,1.78,0,0,0,.53,1.25,1.37,1.37,0,0,0,1.05.33,2.68,2.68,0,0,0,1-.26,2,2,0,0,0,.67-.58,3.22,3.22,0,0,0,.52-2.13L430.76,30l2.12-.19.78,8.75-2.12.19Z"/><path class="cls-2" d="M437.44,34.59a2.84,2.84,0,0,1-1.26-2.15,2.81,2.81,0,0,1,.91-2.4,3.92,3.92,0,0,1,2.4-1.06,4.75,4.75,0,0,1,2.37.31,2.38,2.38,0,0,1,.73-1.73,2.7,2.7,0,0,1,1.72-.79l.07,2q-1.55.14-1.51,1.17a2.69,2.69,0,0,1,.82,1.63,3.11,3.11,0,0,1-.18,1.47,2.91,2.91,0,0,1-.74,1.05,4.09,4.09,0,0,1-2.55,1.1,4.54,4.54,0,0,1-1.62-.13A.87.87,0,0,0,438,36q.07.81,1.44.69l2.93-.26q3-.26,3.17,1.82a3,3,0,0,1-.23,1.41,3.69,3.69,0,0,1-.91,1.29,5.86,5.86,0,0,1-3.6,1.48,6.33,6.33,0,0,1-3.58-.57,2.46,2.46,0,0,1-1.44-2,1.71,1.71,0,0,1,.38-1.33,2.35,2.35,0,0,1,1.25-.72,1.88,1.88,0,0,1-1.2-1.51,1.48,1.48,0,0,1,.3-1.09A2.2,2.2,0,0,1,437.44,34.59Zm2,3.63q-1.68.22-1.58,1.43a1.11,1.11,0,0,0,.8.92,3.62,3.62,0,0,0,1.71.22,5.64,5.64,0,0,0,1.5-.3,3.11,3.11,0,0,0,.89-.51,1.55,1.55,0,0,0,.69-1.37.69.69,0,0,0-.27-.51.94.94,0,0,0-.67-.15Zm2.21-6.29a1.73,1.73,0,0,0-.51-1.15,1.56,1.56,0,0,0-1.27-.35,1.54,1.54,0,0,0-1.54,1.79,1.7,1.7,0,0,0,.54,1.16,1.63,1.63,0,0,0,1.3.36,1.55,1.55,0,0,0,1.19-.58A1.77,1.77,0,0,0,441.6,31.93Z"/><path class="cls-2" d="M453.13,35.21a2.78,2.78,0,0,1-2.51,2,3,3,0,0,1-3.22-1.54,3.88,3.88,0,0,1-.41-1.5l-.49-5.57,2.12-.19.48,5.36a1.78,1.78,0,0,0,.53,1.25,1.37,1.37,0,0,0,1.05.33,2.68,2.68,0,0,0,1-.26,2,2,0,0,0,.67-.58,3.22,3.22,0,0,0,.52-2.13L452.49,28l2.12-.19.78,8.75-2.12.19Z"/><path class="cls-2" d="M459.68,33.54q.15,1.24,1.93,1.08a2,2,0,0,0,1.1-.4.84.84,0,0,0,.38-.73.74.74,0,0,0-.32-.59,2.68,2.68,0,0,0-.88-.32l-2-.51q-2.19-.55-2.33-2.22a2.07,2.07,0,0,1,.84-1.88,4.73,4.73,0,0,1,2.62-.91,4,4,0,0,1,2.65.51,2.41,2.41,0,0,1,1.11,1.77l-2,.18a.88.88,0,0,0-.47-.65,2,2,0,0,0-1.1-.16,1.84,1.84,0,0,0-1.06.37.79.79,0,0,0-.33.67q.06.63,1.14.84l2.14.59a4.12,4.12,0,0,1,1.65.73,1.83,1.83,0,0,1,.67,1.33,2.32,2.32,0,0,1-.86,2,4.45,4.45,0,0,1-2.73,1.08,4.71,4.71,0,0,1-2.87-.51,2.55,2.55,0,0,1-1.27-2.05Z"/><path class="cls-2" d="M473.11,34.81a5.54,5.54,0,0,1-1.83.63,4,4,0,0,1-1.21-.06,2.72,2.72,0,0,1-1-.4,2.59,2.59,0,0,1-1-2l-.43-4.89-1.22.11-.13-1.42,1.22-.11-.2-2.3,2.12-.19.2,2.3,2.37-.21.13,1.42-2.37.21.43,4.82q.1,1.08,1.12,1a4.34,4.34,0,0,0,1.32-.41Z"/><path class="cls-2" d="M478,23.73a5.23,5.23,0,0,0,2.29-1.16l1.6-.14,1,11.74-2.12.19-.82-9.2a4.19,4.19,0,0,1-1.81.61Z"/><path class="cls-2" d="M489.21,21.61a5.62,5.62,0,0,1,3.44.65,2.86,2.86,0,0,1,1.53,2.28,2.34,2.34,0,0,1-.46,1.63,2.87,2.87,0,0,1-1.66,1,5.92,5.92,0,0,1,2.17,1,2.52,2.52,0,0,1,.84,1.74A2.83,2.83,0,0,1,494,32.49a6.33,6.33,0,0,1-3.57,1.26,6.07,6.07,0,0,1-3.66-.65,2.85,2.85,0,0,1-1.56-2.31,2.26,2.26,0,0,1,.61-1.84,3.51,3.51,0,0,1,1.88-1,4.24,4.24,0,0,1-2.3-1.77,2.53,2.53,0,0,1-.29-1,2.73,2.73,0,0,1,1-2.43A5.4,5.4,0,0,1,489.21,21.61Zm.39,6.92a2.62,2.62,0,0,0-2.12,1.24,1.21,1.21,0,0,0-.11.64,1.13,1.13,0,0,0,.27.65,1.81,1.81,0,0,0,.64.47,4,4,0,0,0,2.06.25,4.42,4.42,0,0,0,1.95-.53q.64-.41.6-.92a1.09,1.09,0,0,0-.41-.8,2.92,2.92,0,0,0-1-.47Zm-1-2.32,1.39.4a2.67,2.67,0,0,0,1.47-.57,1.32,1.32,0,0,0,.53-1.19,1.29,1.29,0,0,0-.75-1.07,3.06,3.06,0,0,0-1.73-.27,3.36,3.36,0,0,0-1.64.53,1.17,1.17,0,0,0-.57,1.11Q487.37,25.83,488.59,26.21Z"/></svg>