<svg id="Layer_1" data-name="Layer 1" xmlns="http://www.w3.org/2000/svg" viewBox="0 0 629.53 158.62"><defs><style>.cls-1{fill:#1414ef;}.cls-2{fill:#fff;}</style></defs><title>title-4-narrow</title><path class="cls-1" d="M21.23,15.22v1.52H19.32v2.71H17.45V16.74H11.57V15.31l6.19-8.93h1.56v8.84Zm-7.78,0h4V9.44Z"/><path class="cls-1" d="M45.7,15.41A24.86,24.86,0,0,0,45,8.47q-.33-.66-2.31-1.28a11.08,11.08,0,0,0-3-.62q-.33,0-.33-1.24a3.32,3.32,0,0,1,.17-1.49q.41,0,4.58.25t6.4.25q.66,0,10.57-.5a4.24,4.24,0,0,1,.25,1.32c0,.94-.11,1.4-.33,1.4a13.46,13.46,0,0,0-3,.66q-2.23.66-2.4,1.24A30.68,30.68,0,0,0,55,15.74V46.8a30.64,30.64,0,0,0,.74,7.44q.16.58,2.27,1.2a12.65,12.65,0,0,0,2.85.62c.22,0,.33.52.33,1.57a3.68,3.68,0,0,1-.17,1.16q-9.91-.5-10.49-.5-1.65,0-3.47.08l-4,.21-3.51.21a1.61,1.61,0,0,1-.33-1.16c0-1,.11-1.57.33-1.57a13.19,13.19,0,0,0,3.1-.58q2.11-.58,2.35-1.24a28.91,28.91,0,0,0,.66-6.94Z"/><path class="cls-1" d="M84.61,21.86a14.2,14.2,0,0,1,6,1.16q.41,0,.41-1.32V13.92a28.78,28.78,0,0,0-.5-5.62Q90.15,7,86.27,7h-.66q-.5,0-.5-1.32t.5-1.32q2.48-.25,4.83-.66t3.88-.83Q95.85,2.44,97,2l1.69-.62a4.27,4.27,0,0,1,.66-.21h.17a.89.89,0,0,1,.66.46,1.5,1.5,0,0,1,.33.87,31.62,31.62,0,0,0-.83,7.77V46.64a30.26,30.26,0,0,0,.5,6.11,1.22,1.22,0,0,0,.83.91,5.06,5.06,0,0,0,1.57.41q.82.08,1.57.12l.83,0a1.73,1.73,0,0,1,.17,1q0,1.65-.5,1.65-1.16.08-2.93.33t-3.47.54L95,58.33q-1.53.29-3.43.7-.5,0-.5-1.41v-1.4a.37.37,0,0,0-.12-.33c-.08-.05-.15-.05-.21,0a13.79,13.79,0,0,1-8.59,3.06A16,16,0,0,1,70.49,54a16.68,16.68,0,0,1-5-12.35,19.37,19.37,0,0,1,5.66-14A18.09,18.09,0,0,1,84.61,21.86Zm-.74,4a7.23,7.23,0,0,0-6.61,3.72Q75,33.26,75,39.54q0,7,2.56,10.95a8.11,8.11,0,0,0,7.19,3.92A6.87,6.87,0,0,0,89.32,53a4.58,4.58,0,0,0,1.73-3.68V31.93a5.74,5.74,0,0,0-.29-1.73,7.72,7.72,0,0,0-1-1.94,5.28,5.28,0,0,0-2.23-1.73A8.77,8.77,0,0,0,83.87,25.82Z"/><path class="cls-1" d="M125.92,22a15.32,15.32,0,0,1,6.94,1.53,13.07,13.07,0,0,1,4.79,3.88,19.2,19.2,0,0,1,2.64,4.87,14.24,14.24,0,0,1,.91,4.83q0,1.82-.62,2.27a4.69,4.69,0,0,1-2.52.45H118.32q-.58,0-.58.5a16.07,16.07,0,0,0,1.07,5.78A11.36,11.36,0,0,0,122.49,51a9.72,9.72,0,0,0,6.24,2.07,22.64,22.64,0,0,0,2.4-.12,12.38,12.38,0,0,0,2.15-.41q1-.29,1.73-.54a7.08,7.08,0,0,0,1.53-.74l1.12-.7q.33-.21,1.65-1.12a1.36,1.36,0,0,1,.41.5,1.6,1.6,0,0,1,.25.83,2.53,2.53,0,0,1-.5,1.57,13.45,13.45,0,0,1-4.87,4.46A15.32,15.32,0,0,1,126.42,59,16.73,16.73,0,0,1,114,53.7a17.82,17.82,0,0,1-5.21-12.93q0-8.34,4.83-13.55A16,16,0,0,1,125.92,22Zm-.58,3.8A5.84,5.84,0,0,0,121.79,27a7.79,7.79,0,0,0-2.4,2.81,15.76,15.76,0,0,0-1.2,3.1,10.09,10.09,0,0,0-.37,2.44c0,.39.17.58.5.58H131.7q.74,0,.74-1.24a10.71,10.71,0,0,0-1.94-5.87A5.92,5.92,0,0,0,125.34,25.82Z"/><path class="cls-1" d="M172,22Q182.68,22,182.68,39V46.8a34.56,34.56,0,0,0,.58,7.44q.16.58,2.27,1.2a12.65,12.65,0,0,0,2.85.62c.17,0,.26.4.29,1.2a4.69,4.69,0,0,1-.12,1.61q-.5-.08-4.34-.33t-5.74-.25q-2,0-5.49.25t-4.25.33a2.42,2.42,0,0,1-.33-1.57q0-1.24.33-1.24a9.82,9.82,0,0,0,2.77-.62q1.86-.62,2-1.2a23.72,23.72,0,0,0,.66-6V40.36q0-6.86-1.86-9.58t-5.91-2.73a7.65,7.65,0,0,0-4.63,1.45,4,4,0,0,0-2,3.1V46.8a34.6,34.6,0,0,0,.58,7.44q.16.58,2.19,1.2a11.88,11.88,0,0,0,2.69.62c.22,0,.34.4.37,1.2a4.67,4.67,0,0,1-.12,1.61q-.66-.08-4.34-.33t-5.58-.25q-2,0-5.74.25t-4.42.33a2.42,2.42,0,0,1-.33-1.57q0-1.24.33-1.24a11.52,11.52,0,0,0,3-.62q2-.62,2.19-1.2a27,27,0,0,0,.58-6V34.74q0-3.88-1.32-5.29A4,4,0,0,0,148,28.22a9.41,9.41,0,0,0-2-.5c-.52-.05-.79-.14-.79-.25q0-2.4.41-2.48A117.19,117.19,0,0,0,159,22.52a.54.54,0,0,1,.21-.12.79.79,0,0,1,.25,0h.21c.22,0,.41.19.58.58a2.52,2.52,0,0,1,.25.91,28.17,28.17,0,0,0-.33,3,.65.65,0,0,0,.08.41,1.23,1.23,0,0,0,.41-.25,18.32,18.32,0,0,1,5.08-3.47A14.46,14.46,0,0,1,172,22Z"/><path class="cls-1" d="M198,27.8h-5q-.58,0-.58-2.15a2.07,2.07,0,0,1,.08-.74,23.1,23.1,0,0,0,6.36-4.38q1.07-1.07,2.35-2.44t3-3.51a5.88,5.88,0,0,1,1.57.21c.5.14.74.29.74.46v8.1l6,0,4.09,0q.66,0,.66.74a8,8,0,0,1-.83,3.63h-9.91V47.71a7.84,7.84,0,0,0,1.4,5,4.72,4.72,0,0,0,3.88,1.74,7.78,7.78,0,0,0,1.73-.21,8.77,8.77,0,0,0,1.49-.45q.58-.25,1.07-.5a2.58,2.58,0,0,1,.58-.25q.33-.08.74.74c.28.55.38.91.33,1.07q-.5,1.16-3.51,2.68a13,13,0,0,1-5.91,1.53,10.42,10.42,0,0,1-7.31-2.77q-3-2.77-3-8.55Z"/><path class="cls-1" d="M236.87,46.8a30.36,30.36,0,0,0,.66,7.44q.16.58,2.23,1.2a12.15,12.15,0,0,0,2.81.62c.22,0,.34.4.37,1.2a4.67,4.67,0,0,1-.12,1.61q-.58-.08-4.42-.33t-5.66-.25q-2.07,0-5.82.25t-4.34.33a2.42,2.42,0,0,1-.33-1.57q0-1.24.33-1.24a12,12,0,0,0,3-.62q2.06-.62,2.23-1.2a27,27,0,0,0,.58-6V34.74q0-3.88-1.32-5.29a4.58,4.58,0,0,0-1.9-1.24,8.68,8.68,0,0,0-2-.5c-.55-.05-.83-.14-.83-.25q0-2.4.5-2.48a63.43,63.43,0,0,0,6.69-1A64.74,64.74,0,0,0,236,22.52a4.75,4.75,0,0,0,.66-.17q.41,0,.66.58a1.53,1.53,0,0,1,.17.91,70.85,70.85,0,0,0-.66,7.1Zm-8.59-34.57a5,5,0,0,1-1.49-3.63,5.08,5.08,0,0,1,5.12-5.08A5,5,0,0,1,235.55,5,4.89,4.89,0,0,1,237,8.6a5,5,0,0,1-1.49,3.63,5.09,5.09,0,0,1-7.27,0Z"/><path class="cls-1" d="M251.74,27.8h-5q-.58,0-.58-2.15a2,2,0,0,1,.08-.74,23.11,23.11,0,0,0,6.36-4.38q1.07-1.07,2.35-2.44t3-3.51a5.89,5.89,0,0,1,1.57.21c.5.14.74.29.74.46v8.1l6,0,4.09,0q.66,0,.66.74a8,8,0,0,1-.83,3.63h-9.91V47.71a7.84,7.84,0,0,0,1.4,5,4.72,4.72,0,0,0,3.88,1.74,7.79,7.79,0,0,0,1.74-.21,8.77,8.77,0,0,0,1.49-.45c.38-.17.74-.33,1.07-.5a2.6,2.6,0,0,1,.58-.25q.33-.08.74.74t.33,1.07q-.5,1.16-3.51,2.68a13,13,0,0,1-5.91,1.53,10.42,10.42,0,0,1-7.31-2.77q-3-2.77-3-8.55Z"/><path class="cls-1" d="M284.7,22.85q1.82,0,5.2-.25t4.21-.25a5.54,5.54,0,0,1,.17,1.49q0,1.16-.33,1.16a9,9,0,0,0-2.6.62q-1.78.62-1.86,1.36v.5q.16,1.32,7.68,18.84.66-1.49,3.22-8.14t3-7.64a7.75,7.75,0,0,0,.5-2.56,2.6,2.6,0,0,0-1.32-2,6.8,6.8,0,0,0-4-1q-.33,0-.33-1.24a2.08,2.08,0,0,1,.33-1.4q1,0,4,.25t5,.25q1.74,0,4.25-.25t3.68-.25a2.35,2.35,0,0,1,.33,1.32c0,.88-.11,1.32-.33,1.32a10.48,10.48,0,0,0-3.35.83,4.56,4.56,0,0,0-2.85,2.48L294.29,64.81Q289.16,76.88,282,76.88a4.47,4.47,0,0,1-3.3-1.16,3.86,3.86,0,0,1,.41-5.87q8.59,0,11.32-6.77,2-5,2.23-5.62L280.57,29.37a10.69,10.69,0,0,0-1-1.9,5,5,0,0,0-2.44-1.86,7.81,7.81,0,0,0-2.69-.62q-.33,0-.33-1.16,0-1.32.25-1.49.5,0,4.42.25T284.7,22.85Z"/><path class="cls-1" d="M366.49,4,383.84,47.3q1.24,3.3,2.48,6a4,4,0,0,0,2.64,2,11,11,0,0,0,3.14.74c.22,0,.33.5.33,1.49a2.78,2.78,0,0,1-.17,1.24q-9.91-.5-10.41-.5t-10.74.5a2.33,2.33,0,0,1-.33-1.53c0-.8.11-1.2.33-1.2a10.65,10.65,0,0,0,2.73-.5q1.73-.5,2.06-1.16a2.36,2.36,0,0,0,.25-1.07,19,19,0,0,0-1.57-5.7l-2.89-7.68a.91.91,0,0,0-.58-.33q-2.64-.16-7.1-.17t-9.42.25c-.33,0-.5.11-.5.33L351,47.71a23.46,23.46,0,0,0-1.57,5.37,1.84,1.84,0,0,0,.91,1.65,8.27,8.27,0,0,0,2.6.91,14.26,14.26,0,0,0,2.52.41q.25.08.25,1.16a5.39,5.39,0,0,1-.17,1.57q-.41,0-3.88-.25T346,58.29q-2.15,0-5.08.21l-4.17.29a1.76,1.76,0,0,1-.33-1.24c0-1,.05-1.49.17-1.49a11.94,11.94,0,0,0,3.18-.7,5.1,5.1,0,0,0,2.77-1.61,39.26,39.26,0,0,0,3.14-6.44L361,10.12q1.9-5,3.06-5.95a2.11,2.11,0,0,1,1.4-.58A1.35,1.35,0,0,1,366.49,4Zm-9.91,30.73q2.89.25,5.95.25,2.89,0,6.77-.25l.17-.33-6.28-16.52-6.77,16.52C356.41,34.63,356.47,34.74,356.58,34.74Z"/><path class="cls-1" d="M410.69,21.94a35.14,35.14,0,0,1,9.58,1.4,46.9,46.9,0,0,1,.91,9.25q0,.66-1.07.66-1.82,0-2-.66a10,10,0,0,0-2.44-4.92,6.46,6.46,0,0,0-5-2,5.93,5.93,0,0,0-3.76,1.07,3.67,3.67,0,0,0-1.36,3.06,4.8,4.8,0,0,0,.45,2.11,5.16,5.16,0,0,0,1.49,1.78A20.3,20.3,0,0,0,409.33,35q.78.5,2.35,1.32a5.35,5.35,0,0,0,.83.41l1.24.66,1.36.74,1.32.78a15.09,15.09,0,0,1,1.45,1l1.28,1A6.5,6.5,0,0,1,420.4,42q.37.5,1,1.28a5.32,5.32,0,0,1,.87,1.49,15.68,15.68,0,0,1,.45,1.57,7.67,7.67,0,0,1,.21,1.78,9.74,9.74,0,0,1-4,8.22,15.67,15.67,0,0,1-9.71,3A27.59,27.59,0,0,1,398.55,57a33,33,0,0,1-.83-4.58,40.35,40.35,0,0,1-.41-4.75,1.75,1.75,0,0,1,1.16-.41q1.9,0,2,.66a9.12,9.12,0,0,0,3.26,5.58,8.81,8.81,0,0,0,5.66,2.11,6,6,0,0,0,3.8-1.16,4,4,0,0,0,1.49-3.39,5.44,5.44,0,0,0-.21-1.53,4.06,4.06,0,0,0-.79-1.4l-1-1.16a6,6,0,0,0-1.49-1.12q-1.12-.66-1.65-1l-2.07-1.07q-1.53-.78-2.11-1.12a19.22,19.22,0,0,1-5.87-4.42,8.83,8.83,0,0,1-2.07-5.91,8.87,8.87,0,0,1,4-7.77A15.92,15.92,0,0,1,410.69,21.94Z"/><path class="cls-1" d="M50.49,83.26q3.64,0,12.81-.29t13.88-.29q.33,2.48,1.32,6.9t1.07,4.83a2.55,2.55,0,0,1-1.73.41c-.61,0-1-.19-1.16-.58Q74,86.89,66.11,86.89h-4.3q-6.11,0-6.28,1.07a34.06,34.06,0,0,0-.5,6.69v13q0,.5,3.63.5H63.3q4.79,0,5.7-.41t1.4-2.89q.25-1.24.5-2.07.08-.58,1.32-.58a2.24,2.24,0,0,1,1.57.41V118.2a2.42,2.42,0,0,1-1.57.33q-1.07,0-1.32-.66a26,26,0,0,0-1-3.3,4.83,4.83,0,0,0-.58-1.16l-.7-.5q-1.08-.66-7.6-.66-5.95,0-5.95.66v12.81a22.06,22.06,0,0,0,.74,6.69q.41,1.08,5.62,1.07h3.06q6.44,0,9.83-1.74a9.48,9.48,0,0,0,3-2.89,17.4,17.4,0,0,0,2.56-5q.08-.5,1.16-.5a3.55,3.55,0,0,1,2.31.5q-.25.74-1.2,3.39l-1.45,4q-.5,1.36-1.07,3.35a22.74,22.74,0,0,0-.74,3.22q-3.31,0-13.67-.25t-14.58-.08l-11,.33a2.15,2.15,0,0,1-.25-1.32q0-1.4.25-1.4a13.59,13.59,0,0,0,3.14-.54q2.06-.54,2.4-1.28.58-1.73.58-7.52V94.49a26.16,26.16,0,0,0-.58-6.77q-.25-.91-2.31-1.49a13,13,0,0,0-3.3-.58q-.33,0-.33-1.24a2.25,2.25,0,0,1,.33-1.49Q45,83.26,50.49,83.26Z"/><path class="cls-1" d="M117.35,106.23q-1.07-2.23-5.78-2.23-.25,0-.25-1.16a2.85,2.85,0,0,1,.25-1.49q1.16,0,4,.25t4.71.25q1.86,0,4.83-.25t4-.25a2.4,2.4,0,0,1,.25,1.32q0,1.32-.5,1.32a9.84,9.84,0,0,0-3.22.79,4.79,4.79,0,0,0-2.81,2.35l-13.8,29.16a5.61,5.61,0,0,1-1.07,1.4,2.09,2.09,0,0,1-1.4.74q-.83,0-1-.5-1.65-3.72-4.5-10.29T96.2,116.55Q94.14,112,91.5,106.31q-1-2.31-5.37-2.31-.33,0-.33-1.32a1.91,1.91,0,0,1,.33-1.32q.74,0,4.38.25t5.62.25q2,0,5.7-.25t4.3-.25a2.69,2.69,0,0,1,.21,1.49q0,1.16-.37,1.16a12.11,12.11,0,0,0-2.93.5q-1.86.5-1.86,1.32a1.54,1.54,0,0,0,.17.83l8.18,19,7.44-16.36Q117.93,107.13,117.35,106.23Z"/><path class="cls-1" d="M149.64,101a18.21,18.21,0,0,1,13.26,5.41,17.7,17.7,0,0,1,5.49,13.09,18.75,18.75,0,0,1-32,13.14,18.6,18.6,0,0,1,0-26.27A18.1,18.1,0,0,1,149.64,101Zm-1.07,3.88a6.65,6.65,0,0,0-6,3.76,17.77,17.77,0,0,0-2.15,9,24.09,24.09,0,0,0,2.68,11.65q2.68,5,7.48,5a6.73,6.73,0,0,0,6.07-3.8,17.57,17.57,0,0,0,2.19-8.92,28.37,28.37,0,0,0-1.07-8,14.57,14.57,0,0,0-3.47-6.16A7.66,7.66,0,0,0,148.57,104.9Z"/><path class="cls-1" d="M187.23,125.64a33.9,33.9,0,0,0,.58,7.44q.16.58,2,1.28a9,9,0,0,0,2.52.7q.25,0,.29,1.16a4.5,4.5,0,0,1-.12,1.57l-3.1-.21-3.51-.21q-1.57-.08-3-.08-1.57,0-3.14.08l-3.47.21-3.14.21a2.33,2.33,0,0,1-.33-1.53c0-.8.11-1.2.33-1.2a8.83,8.83,0,0,0,2.77-.7q1.86-.7,2-1.28a27.38,27.38,0,0,0,.66-6.11V92.59a28.76,28.76,0,0,0-.5-5.62q-.41-1.32-4.13-1.32h-.83q-.5,0-.5-1,0-1.32.5-1.32,2.56-.25,4.87-.66t3.84-.83q1.53-.41,2.64-.78t1.78-.62l.58-.25h.17c.22,0,.45.17.7.5a2.54,2.54,0,0,1,.45.83,26.11,26.11,0,0,0-1,7.77Z"/><path class="cls-1" d="M233.33,109.94V126.3a18.3,18.3,0,0,0,.66,5.78,1.71,1.71,0,0,0,.95.66,6.41,6.41,0,0,0,1.45.33,12.25,12.25,0,0,0,1.36.08,1.52,1.52,0,0,1,.7.08c.22.06.33.3.33.74a6.34,6.34,0,0,1-.17,1.12c-.11.52-.28.79-.5.79a19,19,0,0,0-2.93.29l-3.43.58q-1.65.29-3.14.62t-3.3.66q-.58,0-.58-1.32v-3.63q-.08-.41-.25-.41a18.45,18.45,0,0,1-5,3.72,13.84,13.84,0,0,1-6.53,1.65,8.65,8.65,0,0,1-4.92-1.41,10,10,0,0,1-3.3-3.63A17.78,17.78,0,0,1,203,128.2a25.22,25.22,0,0,1-.54-5.21v-9.25q0-3.88-1.32-5.29a4.59,4.59,0,0,0-1.9-1.24,8.68,8.68,0,0,0-2-.5c-.55-.05-.83-.14-.83-.25q0-2.4.41-2.48a62.33,62.33,0,0,0,6.77-1,64.74,64.74,0,0,0,6.53-1.49,1.34,1.34,0,0,0,.33-.08,1.41,1.41,0,0,1,.33-.08q.41,0,.62.58a2.94,2.94,0,0,1,.21.91q-.74,5.62-.74,7.27V120q0,6.44,1.82,9.25t5.87,2.81a6.49,6.49,0,0,0,4.46-1.61,4.4,4.4,0,0,0,1.82-3.1V113.74q0-3.88-1.32-5.29a4,4,0,0,0-1.86-1.24,9.3,9.3,0,0,0-2-.5c-.55-.05-.83-.14-.83-.25q0-2.4.5-2.48a63.42,63.42,0,0,0,6.69-1,64.82,64.82,0,0,0,6.53-1.49,4.81,4.81,0,0,0,.66-.17q.41,0,.66.58a1.52,1.52,0,0,1,.17.91Q233.33,108.46,233.33,109.94Z"/><path class="cls-1" d="M247.87,106.8h-5q-.58,0-.58-2.15a2.06,2.06,0,0,1,.08-.74,23.11,23.11,0,0,0,6.36-4.38q1.07-1.07,2.35-2.44t3-3.51a5.88,5.88,0,0,1,1.57.21c.5.14.74.29.74.46v8.1l6,0,4.09,0q.66,0,.66.74a8,8,0,0,1-.83,3.63h-9.91v19.91a7.84,7.84,0,0,0,1.4,5,4.72,4.72,0,0,0,3.88,1.74,7.79,7.79,0,0,0,1.73-.21,8.76,8.76,0,0,0,1.49-.45q.58-.25,1.07-.5a2.59,2.59,0,0,1,.58-.25q.33-.08.74.74t.33,1.07q-.5,1.16-3.51,2.68a13,13,0,0,1-5.91,1.53,10.42,10.42,0,0,1-7.31-2.77q-3-2.77-3-8.55Z"/><path class="cls-1" d="M286.7,125.8a30.37,30.37,0,0,0,.66,7.44q.16.58,2.23,1.2a12.15,12.15,0,0,0,2.81.62c.22,0,.34.4.37,1.2a4.7,4.7,0,0,1-.12,1.61q-.58-.08-4.42-.33t-5.66-.25q-2.07,0-5.82.25t-4.34.33a2.42,2.42,0,0,1-.33-1.57q0-1.24.33-1.24a12,12,0,0,0,3-.62q2.06-.62,2.23-1.2a27,27,0,0,0,.58-6V113.74q0-3.88-1.32-5.29a4.6,4.6,0,0,0-1.9-1.24,8.68,8.68,0,0,0-2-.5c-.55-.05-.83-.14-.83-.25q0-2.4.5-2.48a63.43,63.43,0,0,0,6.69-1,64.84,64.84,0,0,0,6.53-1.49,4.81,4.81,0,0,0,.66-.17q.41,0,.66.58a1.52,1.52,0,0,1,.17.91,70.79,70.79,0,0,0-.66,7.1Zm-8.59-34.57a5,5,0,0,1-1.49-3.63A4.89,4.89,0,0,1,278.11,84a5.12,5.12,0,0,1,8.76,3.59,5,5,0,0,1-1.49,3.63,5.09,5.09,0,0,1-7.27,0Z"/><path class="cls-1" d="M315.45,101a18.21,18.21,0,0,1,13.26,5.41,17.7,17.7,0,0,1,5.49,13.09A18.84,18.84,0,1,1,315.45,101Zm-1.07,3.88a6.65,6.65,0,0,0-6,3.76,17.76,17.76,0,0,0-2.15,9,24.08,24.08,0,0,0,2.69,11.65q2.68,5,7.48,5a6.73,6.73,0,0,0,6.07-3.8,17.57,17.57,0,0,0,2.19-8.92,28.36,28.36,0,0,0-1.07-8,14.57,14.57,0,0,0-3.47-6.16A7.66,7.66,0,0,0,314.37,104.9Z"/><path class="cls-1" d="M364.24,101q10.66,0,10.66,16.94v7.85a34.56,34.56,0,0,0,.58,7.44q.16.58,2.27,1.2a12.65,12.65,0,0,0,2.85.62c.17,0,.26.4.29,1.2a4.7,4.7,0,0,1-.12,1.61q-.5-.08-4.34-.33t-5.74-.25q-2,0-5.49.25t-4.25.33a2.42,2.42,0,0,1-.33-1.57q0-1.24.33-1.24a9.82,9.82,0,0,0,2.77-.62q1.86-.62,2-1.2a23.72,23.72,0,0,0,.66-6v-7.85q0-6.86-1.86-9.58t-5.91-2.73A7.65,7.65,0,0,0,354,108.5a4,4,0,0,0-2,3.1V125.8a34.56,34.56,0,0,0,.58,7.44q.16.58,2.19,1.2a11.88,11.88,0,0,0,2.69.62c.22,0,.34.4.37,1.2a4.68,4.68,0,0,1-.12,1.61q-.66-.08-4.34-.33t-5.58-.25q-2,0-5.74.25t-4.42.33a2.42,2.42,0,0,1-.33-1.57q0-1.24.33-1.24a11.52,11.52,0,0,0,3-.62q2-.62,2.19-1.2a27,27,0,0,0,.58-6V113.74q0-3.88-1.32-5.29a4,4,0,0,0-1.86-1.24,9.41,9.41,0,0,0-2-.5c-.52-.05-.78-.14-.78-.25q0-2.4.41-2.48a117.17,117.17,0,0,0,13.3-2.48.54.54,0,0,1,.21-.12.78.78,0,0,1,.25,0h.21c.22,0,.41.19.58.58a2.51,2.51,0,0,1,.25.91,28.12,28.12,0,0,0-.33,3,.65.65,0,0,0,.08.41,1.22,1.22,0,0,0,.41-.25,18.32,18.32,0,0,1,5.08-3.47A14.46,14.46,0,0,1,364.24,101Z"/><rect class="cls-2" x="185.31" y="66.57" width="156.87" height="27.26" rx="13.63" ry="13.63" transform="translate(17.02 -42.77) rotate(9.58)"/><path class="cls-1" d="M325.3,104.92,197.49,83.35a14.13,14.13,0,1,1,4.7-27.87L330,77.05a14.13,14.13,0,1,1-4.7,27.87ZM202,56.47a13.13,13.13,0,1,0-4.37,25.9l127.8,21.57A13.13,13.13,0,1,0,329.83,78Z"/><path class="cls-1" d="M213.91,75.43l4.81.81-.31,1.86-6.94-1.17,2-11.7,2.13.36Z"/><path class="cls-1" d="M222.17,66.81a1.23,1.23,0,0,1,.5-.85,1.6,1.6,0,0,1,1.94.33,1.37,1.37,0,0,1-.31,1.82,1.6,1.6,0,0,1-1.94-.33A1.23,1.23,0,0,1,222.17,66.81Zm-.22,2.85,2.13.36-1.48,8.78-2.13-.36Z"/><path class="cls-1" d="M225.75,77.55,231.19,73l-4.54-.77.29-1.73,6.88,1.16-.29,1.73L228.24,78l4.4.74-.29,1.73-6.88-1.16Z"/><path class="cls-1" d="M238.69,76.25A10.26,10.26,0,0,1,241,77l.15-.87a2.12,2.12,0,0,0-.14-1.42,1.51,1.51,0,0,0-1.13-.65,2.17,2.17,0,0,0-1.35.12,1.12,1.12,0,0,0-.61.87l-2.33-.39a2.4,2.4,0,0,1,1.42-2,5.58,5.58,0,0,1,3.06-.17q2.7.46,3.18,2.48a4,4,0,0,1,0,1.58l-.94,5.57-1.86-.31,0-1.2a2.85,2.85,0,0,1-2.84,1,3.89,3.89,0,0,1-2.49-1.27,2.65,2.65,0,0,1-.53-2.16A2.17,2.17,0,0,1,236,76.47,4.61,4.61,0,0,1,238.69,76.25Zm2.13,2.1a7.72,7.72,0,0,0-1.93-.62q-1.73-.29-1.93.86a1.1,1.1,0,0,0,.26.9,1.91,1.91,0,0,0,1.21.57,2,2,0,0,0,1.54-.34A2.19,2.19,0,0,0,240.81,78.35Z"/><path class="cls-1" d="M248.69,75.75a3.23,3.23,0,0,1,5.33.2,4.55,4.55,0,0,1,.35,3L253.5,84l-2.13-.36.86-5.12A2.1,2.1,0,0,0,252,77a1.75,1.75,0,0,0-1.23-.72,1.83,1.83,0,0,0-1.58.51,3.8,3.8,0,0,0-1,2.16L247.5,83l-2.13-.36,1.48-8.76,1.86.31Z"/><path class="cls-1" d="M258.39,72.92a1.23,1.23,0,0,1,.5-.85,1.6,1.6,0,0,1,1.94.33,1.37,1.37,0,0,1-.31,1.82,1.6,1.6,0,0,1-1.94-.33A1.23,1.23,0,0,1,258.39,72.92Zm-.22,2.85,2.13.36-1.48,8.78-2.13-.36Z"/><path class="cls-1" d="M266.08,80.88a10.26,10.26,0,0,1,2.36.75l.15-.87a2.12,2.12,0,0,0-.14-1.42,1.51,1.51,0,0,0-1.13-.65,2.17,2.17,0,0,0-1.35.12,1.12,1.12,0,0,0-.61.87L263,79.29a2.4,2.4,0,0,1,1.42-2,5.58,5.58,0,0,1,3.06-.17q2.7.46,3.18,2.48a4,4,0,0,1,0,1.58l-.94,5.57-1.86-.31,0-1.2a2.85,2.85,0,0,1-2.84,1A3.89,3.89,0,0,1,262.61,85a2.65,2.65,0,0,1-.53-2.16,2.17,2.17,0,0,1,1.27-1.71A4.61,4.61,0,0,1,266.08,80.88Zm2.13,2.1a7.72,7.72,0,0,0-1.93-.62q-1.73-.29-1.93.86a1.1,1.1,0,0,0,.26.9,1.91,1.91,0,0,0,1.21.57,2,2,0,0,0,1.54-.34A2.19,2.19,0,0,0,268.21,83Z"/><path class="cls-1" d="M283.45,76.8a6.11,6.11,0,0,1,1.83.58,4.16,4.16,0,0,1,2.29,3.79l-2.34,0a3.43,3.43,0,0,0-.64-1.64,2.14,2.14,0,0,0-1.41-.82,2.38,2.38,0,0,0-2.16.69,5.25,5.25,0,0,0-1.33,3,5.7,5.7,0,0,0,.2,3.2A2.27,2.27,0,0,0,281.67,87a2.65,2.65,0,0,0,2-.29,2.09,2.09,0,0,0,.89-1.45l2.29.39a3.83,3.83,0,0,1-1.76,2.83,5.18,5.18,0,0,1-3.61.49A4.65,4.65,0,0,1,278,86.75,6.9,6.9,0,0,1,277.4,82a6.7,6.7,0,0,1,2.18-4.27A4.64,4.64,0,0,1,283.45,76.8Z"/><path class="cls-1" d="M291.88,83.27a2.61,2.61,0,0,1,2.7-1.49,3.16,3.16,0,0,1,.75.26l-.4,2.12a4.8,4.8,0,0,0-1-.28q-2.13-.36-2.62,2.58l-.65,3.84-2.13-.36,1.48-8.78,2.13.36Z"/><path class="cls-1" d="M302.07,90.58a2.81,2.81,0,0,1-3,1.3,3,3,0,0,1-2.76-2.34,3.94,3.94,0,0,1,0-1.58l.94-5.59,2.13.36-.91,5.37a1.8,1.8,0,0,0,.2,1.36,1.39,1.39,0,0,0,.95.6,2.71,2.71,0,0,0,1,0,2,2,0,0,0,.81-.39,3.26,3.26,0,0,0,1.05-2l.73-4.33,2.13.36-1.48,8.78-2.13-.36Z"/><path class="cls-1" d="M306.83,91.24l5.44-4.53-4.54-.77.29-1.73,6.88,1.16-.29,1.73-5.29,4.56,4.4.74-.29,1.73L306.54,93Z"/></svg>