<svg id="Layer_1" data-name="Layer 1" xmlns="http://www.w3.org/2000/svg" viewBox="0 0 629.53 237.62"><defs><style>.cls-1{fill:#fff;stroke:#1414ef;stroke-miterlimit:10;stroke-width:1.2px;}.cls-2{fill:#1414ef;}</style></defs><title>title</title><path class="cls-1" d="M45.87,15.64a24.86,24.86,0,0,0-.66-6.94Q44.88,8,42.89,7.42a11.09,11.09,0,0,0-3-.62q-.33,0-.33-1.24a3.33,3.33,0,0,1,.17-1.49q.41,0,4.58.25t6.4.25q.66,0,10.57-.5a4.24,4.24,0,0,1,.25,1.32q0,1.4-.33,1.4a13.46,13.46,0,0,0-3,.66Q56,8.12,55.86,8.7A30.68,30.68,0,0,0,55.2,16V47a30.62,30.62,0,0,0,.74,7.44q.16.58,2.27,1.2a12.65,12.65,0,0,0,2.85.62c.22,0,.33.52.33,1.57A3.68,3.68,0,0,1,61.24,59q-9.91-.5-10.49-.5-1.65,0-3.47.08l-4,.21L39.76,59a1.61,1.61,0,0,1-.33-1.16c0-1,.11-1.57.33-1.57a13.18,13.18,0,0,0,3.1-.58q2.11-.58,2.35-1.24a28.91,28.91,0,0,0,.66-6.94Z"/><path class="cls-1" d="M89.74,1.35a16.27,16.27,0,0,1,5.74.87,5.77,5.77,0,0,1,3,2.11A9.27,9.27,0,0,1,98,8.91a3,3,0,0,1-3,2A3.22,3.22,0,0,1,92.5,9.57Q91.39,8.2,90.15,6.84a3.8,3.8,0,0,0-2.89-1.36,4.4,4.4,0,0,0-3.72,2.15,13.9,13.9,0,0,0-2.11,5.21,33.72,33.72,0,0,0-.62,6.69v3.8c0,.06.05.14.17.25a.47.47,0,0,0,.33.17H90.4a.66.66,0,0,1,.41.08.86.86,0,0,1,.08.5,8.5,8.5,0,0,1-1,3.8H81.31a.44.44,0,0,0-.5.5V47a31.6,31.6,0,0,0,.66,7.44q.16.58,2.19,1.2a11.67,11.67,0,0,0,2.77.62c.17,0,.26.4.29,1.2a4.7,4.7,0,0,1-.12,1.61q-.5-.08-4.3-.33t-5.78-.25q-2,0-5.62.25t-4.3.33a1.56,1.56,0,0,1-.33-.91,4.93,4.93,0,0,1,0-1.28c.05-.41.17-.62.33-.62a11.07,11.07,0,0,0,2.89-.62q2-.62,2.15-1.2a27.39,27.39,0,0,0,.74-6.77v-19c0-.38-.17-.58-.5-.58h-5c-.11,0-.17-.17-.17-.5a4.41,4.41,0,0,1,1.16-2.4,3.32,3.32,0,0,1,2.64-1.49h1.32a.44.44,0,0,0,.5-.5v-.83A22.47,22.47,0,0,1,77.55,7.54Q82.71,1.35,89.74,1.35Z"/><path class="cls-1" d="M118.65,15.64A24.89,24.89,0,0,0,118,8.7q-.33-.66-2.31-1.28a11.09,11.09,0,0,0-3-.62q-.33,0-.33-1.24a3.33,3.33,0,0,1,.17-1.49q.41,0,4.58.25t6.4.25q.66,0,10.57-.5a4.26,4.26,0,0,1,.25,1.32q0,1.4-.33,1.4a13.46,13.46,0,0,0-3,.66q-2.23.66-2.4,1.24A30.65,30.65,0,0,0,128,16V47a30.64,30.64,0,0,0,.74,7.44q.16.58,2.27,1.2a12.65,12.65,0,0,0,2.85.62c.22,0,.33.52.33,1.57A3.67,3.67,0,0,1,134,59q-9.91-.5-10.49-.5-1.65,0-3.47.08l-4,.21-3.51.21a1.61,1.61,0,0,1-.33-1.16c0-1,.11-1.57.33-1.57a13.19,13.19,0,0,0,3.1-.58q2.11-.58,2.35-1.24a28.94,28.94,0,0,0,.66-6.94Z"/><path class="cls-1" d="M157.15,18.28a13,13,0,0,1,5.21-10.45,18.05,18.05,0,0,1,11.73-4.25,28.87,28.87,0,0,1,4,.25q1.74.25,4.83,1t4.25,1a73.67,73.67,0,0,1,1,12.72.9.9,0,0,1-1,.74q-2.23,0-2.4-.74a14.52,14.52,0,0,0-3.55-7.43,9.38,9.38,0,0,0-7.44-3.64A7.62,7.62,0,0,0,168,9.69a8.09,8.09,0,0,0-2,5.78,9.32,9.32,0,0,0,.29,2.35A5.81,5.81,0,0,0,167.43,20q.87,1.08,1.4,1.78a9.8,9.8,0,0,0,2.07,1.78q1.53,1.08,2.06,1.49t2.48,1.61A25,25,0,0,0,177.8,28a30.41,30.41,0,0,0,2.77,1.78q2.27,1.36,3.18,2a33.75,33.75,0,0,1,2.64,2.11,11.9,11.9,0,0,1,2.52,2.81,17,17,0,0,1,1.45,3.35,13.92,13.92,0,0,1,.66,4.34,13.41,13.41,0,0,1-5.33,10.91,19.11,19.11,0,0,1-12.35,4.3q-5,0-15.2-2.31a72.36,72.36,0,0,1-1.36-7.48,56,56,0,0,1-.62-5.91q.08-.66,1.32-.66,2.15,0,2.4.66A16.07,16.07,0,0,0,161,47.16,24,24,0,0,0,163.3,51a10.89,10.89,0,0,0,3.88,3.3,11.62,11.62,0,0,0,5.49,1.28,9.25,9.25,0,0,0,6.44-2.31q2.56-2.31,2.56-6.94a7.19,7.19,0,0,0-.54-2.73,9.53,9.53,0,0,0-1.24-2.23,12.09,12.09,0,0,0-2.07-2q-1.36-1.07-2.27-1.65t-2.68-1.61l-2.52-1.45a5.67,5.67,0,0,0-.91-.66q-2.4-1.49-3.63-2.31a39.76,39.76,0,0,1-3.18-2.44,16.33,16.33,0,0,1-2.93-3,15.6,15.6,0,0,1-1.78-3.47A12.42,12.42,0,0,1,157.15,18.28Z"/><path class="cls-1" d="M212.75,22.25q5.12,0,7.68,2.69T223,34.14V50.42a3.77,3.77,0,0,0,.74,2.52,2.48,2.48,0,0,0,2,.87,5.15,5.15,0,0,0,2.81-1.07c.33.11.5.41.5.91a4.91,4.91,0,0,1-.5,2.48,20.43,20.43,0,0,1-3.3,2.07,8.61,8.61,0,0,1-4,1.07,6,6,0,0,1-3.72-1.41,6.78,6.78,0,0,1-2.4-3.06l-.62.54q-.54.46-1.49,1.12a24.47,24.47,0,0,1-2.15,1.32,13.18,13.18,0,0,1-2.81,1.12,12,12,0,0,1-3.26.45,9.86,9.86,0,0,1-6.73-2.27,7.85,7.85,0,0,1-2.6-6.24,7.61,7.61,0,0,1,.95-3.72,9.87,9.87,0,0,1,2.27-2.85,16.92,16.92,0,0,1,3.55-2.19,33.8,33.8,0,0,1,3.84-1.61q1.61-.54,4.13-1.28t3.51-1.07a1.3,1.3,0,0,0,.74-1.32V32.24a7.09,7.09,0,0,0-1.32-4.54A4.31,4.31,0,0,0,209.61,26a5,5,0,0,0-3.88,1.53,6.18,6.18,0,0,0-1.4,4.34,2.68,2.68,0,0,1-1.24,2.44,5.14,5.14,0,0,1-2.81.78q-3.06,0-4.3-2,0-4,5.41-7.43A20.72,20.72,0,0,1,212.75,22.25ZM209,54a6.4,6.4,0,0,0,3.84-1.16,3.27,3.27,0,0,0,1.61-2.64V41.74q-.58.25-2.44.83t-2.85,1a22.51,22.51,0,0,0-2.31,1.16,5,5,0,0,0-1.94,1.82,4.55,4.55,0,0,0-.62,2.31,5.09,5.09,0,0,0,1.32,3.88A4.75,4.75,0,0,0,209,54Z"/><path class="cls-1" d="M241.58,23.07q1.82,0,5.2-.25t4.21-.25a5.54,5.54,0,0,1,.17,1.49q0,1.16-.33,1.16a9,9,0,0,0-2.6.62q-1.78.62-1.86,1.36v.5q.16,1.32,7.68,18.84.66-1.49,3.22-8.14t3-7.64a7.75,7.75,0,0,0,.5-2.56,2.6,2.6,0,0,0-1.32-2,6.8,6.8,0,0,0-4-1q-.33,0-.33-1.24a2.08,2.08,0,0,1,.33-1.4q1,0,4,.25t5,.25q1.74,0,4.25-.25t3.68-.25a2.35,2.35,0,0,1,.33,1.32c0,.88-.11,1.32-.33,1.32a10.48,10.48,0,0,0-3.35.83,4.56,4.56,0,0,0-2.85,2.48L251.16,65Q246,77.1,238.85,77.1a4.47,4.47,0,0,1-3.3-1.16,3.86,3.86,0,0,1,.41-5.87q8.59,0,11.32-6.77,2-5,2.23-5.62L237.45,29.6a10.69,10.69,0,0,0-1-1.9A5,5,0,0,0,234,25.84a7.81,7.81,0,0,0-2.69-.62q-.33,0-.33-1.16,0-1.32.25-1.49.5,0,4.42.25T241.58,23.07Z"/><path class="cls-1" d="M45.87,125.95V94.72a26.17,26.17,0,0,0-.58-6.77Q45,87,43,86.46a13,13,0,0,0-3.3-.58q-.33,0-.33-1.24a2.25,2.25,0,0,1,.33-1.49q5.45.25,11,.25,4.21,0,7.1,0t5,0a24.47,24.47,0,0,1,11.73,3A12.17,12.17,0,0,1,79,90.76a12.53,12.53,0,0,1,1.78,6.69A9.68,9.68,0,0,1,79.08,103a13.36,13.36,0,0,1-3.26,3.59,13.57,13.57,0,0,1-2.6,1.45q-.66.25-.33.5,3.06.5,6.82,4.34a13,13,0,0,1,3.76,9.46,13.33,13.33,0,0,1-5.74,11.32q-5.74,4.21-15.24,4.13l-11.73-.08-11,.33a2.16,2.16,0,0,1-.25-1.32q0-1.4.25-1.4a13.6,13.6,0,0,0,3.14-.54q2.06-.54,2.4-1.28Q45.87,131.73,45.87,125.95Zm18.92-19.41q6-1.32,6-8.1,0-11.15-9.5-11.15A22.1,22.1,0,0,0,56,87.7a.83.83,0,0,0-.66.91l-.17,7.93v9.67q0,.83,5,.83A16.34,16.34,0,0,0,64.79,106.54Zm8.59,16.69a12.94,12.94,0,0,0-2.93-8.72q-2.93-3.43-9.46-3.43a34.41,34.41,0,0,0-5.12.41,1.8,1.8,0,0,0-.66,1.65v15.37q0,3.47,1,4.3t5.29.83a17,17,0,0,0,3.55-.37,17.65,17.65,0,0,0,3.76-1.32,7.43,7.43,0,0,0,3.3-3.22A11,11,0,0,0,73.38,123.22Z"/><path class="cls-1" d="M102.29,125.87a33.9,33.9,0,0,0,.58,7.44q.16.58,2,1.28a9,9,0,0,0,2.52.7q.25,0,.29,1.16a4.49,4.49,0,0,1-.12,1.57l-3.1-.21L101,137.6q-1.57-.08-3-.08-1.57,0-3.14.08l-3.47.21-3.14.21a2.33,2.33,0,0,1-.33-1.53c0-.8.11-1.2.33-1.2a8.83,8.83,0,0,0,2.77-.7q1.86-.7,2-1.28a27.38,27.38,0,0,0,.66-6.11V92.82a28.8,28.8,0,0,0-.5-5.62q-.41-1.32-4.13-1.32h-.83q-.5,0-.5-1,0-1.32.5-1.32,2.56-.25,4.87-.66T97,82.08q1.53-.41,2.64-.78t1.78-.62l.58-.25h.17c.22,0,.45.17.7.5a2.52,2.52,0,0,1,.45.83,26.12,26.12,0,0,0-1,7.77Z"/><path class="cls-1" d="M129.64,101.25q5.12,0,7.68,2.69t2.56,9.21v16.28a3.76,3.76,0,0,0,.74,2.52,2.48,2.48,0,0,0,2,.87,5.15,5.15,0,0,0,2.81-1.07c.33.11.5.41.5.91a4.91,4.91,0,0,1-.5,2.48,20.43,20.43,0,0,1-3.3,2.07,8.61,8.61,0,0,1-4,1.07,6,6,0,0,1-3.72-1.41,6.77,6.77,0,0,1-2.4-3.06l-.62.54q-.54.46-1.49,1.12a24.48,24.48,0,0,1-2.15,1.32,13.17,13.17,0,0,1-2.81,1.12,12,12,0,0,1-3.26.45,9.86,9.86,0,0,1-6.73-2.27,7.85,7.85,0,0,1-2.6-6.24,7.61,7.61,0,0,1,1-3.72,9.88,9.88,0,0,1,2.27-2.85,16.93,16.93,0,0,1,3.55-2.19,33.8,33.8,0,0,1,3.84-1.61q1.61-.54,4.13-1.28t3.51-1.07a1.3,1.3,0,0,0,.74-1.32v-4.54a7.09,7.09,0,0,0-1.32-4.54A4.31,4.31,0,0,0,126.5,105a5,5,0,0,0-3.88,1.53,6.18,6.18,0,0,0-1.4,4.34,2.68,2.68,0,0,1-1.24,2.44,5.14,5.14,0,0,1-2.81.78q-3.06,0-4.3-2,0-4,5.41-7.43A20.72,20.72,0,0,1,129.64,101.25ZM125.92,133a6.4,6.4,0,0,0,3.84-1.16,3.27,3.27,0,0,0,1.61-2.64v-8.43q-.58.25-2.44.83t-2.85,1a22.56,22.56,0,0,0-2.31,1.16,5,5,0,0,0-1.94,1.82,4.55,4.55,0,0,0-.62,2.31,5.09,5.09,0,0,0,1.32,3.88A4.75,4.75,0,0,0,125.92,133Z"/><path class="cls-1" d="M167.39,101.25a20,20,0,0,1,7.81,1.45,13.18,13.18,0,0,1,4.92,3.18,10.21,10.21,0,0,1-1,4.67,3,3,0,0,1-2.85,1.86,3.7,3.7,0,0,1-2.52-.83,9.38,9.38,0,0,1-1.94-2.73q-1.9-3.8-5.54-3.8t-5.66,3.59a17.66,17.66,0,0,0-2.11,9q0,7.44,3.06,11a9.75,9.75,0,0,0,7.77,3.59,22.67,22.67,0,0,0,2.4-.12,12.37,12.37,0,0,0,2.15-.41q1-.29,1.74-.54a7.11,7.11,0,0,0,1.53-.74l1.12-.7q.33-.21,1.65-1.12a1.37,1.37,0,0,1,.41.5,1.6,1.6,0,0,1,.25.83,2.54,2.54,0,0,1-.5,1.57,13.46,13.46,0,0,1-4.87,4.46,15.18,15.18,0,0,1-8.1,2.23,16.71,16.71,0,0,1-12.52-5.37,18.24,18.24,0,0,1-5.16-13.14,18.78,18.78,0,0,1,5-13A16.64,16.64,0,0,1,167.39,101.25Z"/><path class="cls-1" d="M220.1,106.78q-1.65,1-5.25,3.72a58.32,58.32,0,0,0-6.57,5.78q2.4,2.56,6,6.69t6,6.77a39.67,39.67,0,0,0,3.3,3.39,10.45,10.45,0,0,0,3.18,1.65,10,10,0,0,0,2.77.66q.33,0,.33,1.4a4.88,4.88,0,0,1-.08,1.16q-9.09-.41-9.67-.41-1.57,0-3.18.08l-3.55.21-3.1.21a2.24,2.24,0,0,1-.33-1.49c0-.77.11-1.16.33-1.16a5.94,5.94,0,0,0,1.9-.37q1.07-.37,1.07-.79c0-.11,0-.17-.08-.17l-12.06-13.47-1,.25V126a33.75,33.75,0,0,0,.66,7.44q.16.58,2.23,1.2a12,12,0,0,0,2.89.62c.17,0,.26.4.29,1.2a4.69,4.69,0,0,1-.12,1.61q-.58-.08-4.38-.33t-5.7-.25q-2,0-5.74.25t-4.42.33a2.42,2.42,0,0,1-.33-1.57q0-1.24.33-1.24a11.52,11.52,0,0,0,3-.62q2-.62,2.19-1.2a27,27,0,0,0,.58-6V93.15a32.56,32.56,0,0,0-.41-5.62q-.41-1.32-4.3-1.32h-.74q-.5,0-.5-1.32t.5-1.32q2.56-.25,4.87-.66t3.84-.83q1.53-.41,2.64-.83t2.35-.83h.17a.89.89,0,0,1,.66.46,2.28,2.28,0,0,1,.41.87,26.62,26.62,0,0,0-1,7.77v27.59a7.47,7.47,0,0,0,2.48-.91q1.74-1.57,3.76-3.26l2.93-2.44q.91-.74,1.82-1.61a7.33,7.33,0,0,0,1.2-1.36,2,2,0,0,0,.29-1q0-.91-1.86-1.12a8.26,8.26,0,0,1-1.86-.29,3.69,3.69,0,0,1-.25-1.45q0-.87.33-1h8q2.23,0,8.76-.33a1.29,1.29,0,0,1,.41.91,3.71,3.71,0,0,1,0,1.24c-.08.39-.21.58-.37.58A10.85,10.85,0,0,0,220.1,106.78Z"/><path class="cls-1" d="M240.18,139.08a7.33,7.33,0,0,0-1.24-3.43,7.45,7.45,0,0,1-1.24-3.59,5,5,0,0,1,1.73-3.47,6.14,6.14,0,0,1,4.54-1.74,5.34,5.34,0,0,1,2.64.5,12.88,12.88,0,0,1,1.16,5.78,14.82,14.82,0,0,1-.66,4,23.73,23.73,0,0,1-3.55,7.64,37.08,37.08,0,0,1-7,6.73h-.08q-.41,0-1.16-.87a2.49,2.49,0,0,1-.74-1.45,11.89,11.89,0,0,1,1.4-1.32,15.14,15.14,0,0,0,2.81-3.59A9.9,9.9,0,0,0,240.18,139.08Z"/><path class="cls-1" d="M276,94.64a24.86,24.86,0,0,0-.66-6.94q-.33-.66-2.31-1.28a11.09,11.09,0,0,0-3-.62q-.33,0-.33-1.24a3.33,3.33,0,0,1,.17-1.49q.41,0,4.58.25t6.4.25q.66,0,10.57-.5a4.24,4.24,0,0,1,.25,1.32q0,1.4-.33,1.4a13.46,13.46,0,0,0-3,.66q-2.23.66-2.4,1.24a30.68,30.68,0,0,0-.66,7.27V126a30.62,30.62,0,0,0,.74,7.44q.16.58,2.27,1.2a12.65,12.65,0,0,0,2.85.62c.22,0,.33.52.33,1.57a3.68,3.68,0,0,1-.17,1.16q-9.91-.5-10.49-.5-1.65,0-3.47.08l-4,.21-3.51.21a1.61,1.61,0,0,1-.33-1.16c0-1,.11-1.57.33-1.57a13.18,13.18,0,0,0,3.1-.58q2.11-.58,2.35-1.24a28.91,28.91,0,0,0,.66-6.94Z"/><path class="cls-1" d="M326.09,83.57q.41,0,8.1-.5.74,2.31,3.39,8.55t6.49,15.2q3.84,9,6.15,14.75c0,.11.08.17.25.17a.22.22,0,0,0,.25-.25q7.27-17.43,11.57-28.67l3-9.58q2.48.25,6.77.25,3.22,0,9.83-.41a2.4,2.4,0,0,1,.25,1.32q0,1.4-.33,1.4h-.17a6.72,6.72,0,0,0-4,1.32q-1.24.91-1.07,4.46.33,7.35,1.16,34.12a21.84,21.84,0,0,0,1.32,7.6q.33.74,2.31,1.36a11.1,11.1,0,0,0,2.81.62c.22,0,.33.5.33,1.49a4,4,0,0,1-.17,1.24l-10.16-.5q-1.65,0-3.47.08l-4,.21-3.51.21a1.76,1.76,0,0,1-.33-1.24q0-1.49.33-1.49a9.76,9.76,0,0,0,2.64-.54,5.17,5.17,0,0,0,2.31-1.2,4.63,4.63,0,0,0,.83-2.89V126l-.83-25.11q-.33-5.12-1-5.12c-.17,0-.3.17-.41.5l-15.78,38.5q-1.41,3.14-3.14,3.14a2.74,2.74,0,0,1-.83-.17l-18.5-44.45q-.58,20.57-1.32,36.85a9.12,9.12,0,0,0,.25,2.56q.41.91,3.3,1.73a17.84,17.84,0,0,0,3.88.83q.33,0,.33,1.49a4,4,0,0,1-.17,1.24q-9.91-.5-10.41-.5-2.23,0-5.91.25t-4.5.25a1.91,1.91,0,0,1-.33-1.32q0-1.4.33-1.4a16.52,16.52,0,0,0,4.13-.83q2.81-.82,3.22-2.15a15.37,15.37,0,0,0,.91-5.54q.16-6.28.45-14.83t.5-14.58q.21-6,.21-7.52a7.9,7.9,0,0,0-.25-2.31q-.25-.66-2.77-1.24a18.71,18.71,0,0,0-3.59-.58c-.22,0-.33-.47-.33-1.4a1.76,1.76,0,0,1,.33-1.24l4.25.29Q323.95,83.57,326.09,83.57Z"/><path class="cls-1" d="M406,101.25a15.31,15.31,0,0,1,6.94,1.53,13.07,13.07,0,0,1,4.79,3.88,19.21,19.21,0,0,1,2.64,4.87,14.24,14.24,0,0,1,.91,4.83q0,1.82-.62,2.27a4.69,4.69,0,0,1-2.52.45H398.38q-.58,0-.58.5a16.06,16.06,0,0,0,1.07,5.78,11.36,11.36,0,0,0,3.68,4.87,9.72,9.72,0,0,0,6.24,2.07,22.66,22.66,0,0,0,2.4-.12,12.37,12.37,0,0,0,2.15-.41q1-.29,1.73-.54a7.09,7.09,0,0,0,1.53-.74l1.12-.7q.33-.21,1.65-1.12a1.36,1.36,0,0,1,.41.5,1.6,1.6,0,0,1,.25.83,2.54,2.54,0,0,1-.5,1.57,13.45,13.45,0,0,1-4.87,4.46,15.33,15.33,0,0,1-8.18,2.23,16.73,16.73,0,0,1-12.39-5.33,17.82,17.82,0,0,1-5.2-12.93q0-8.34,4.83-13.55A16,16,0,0,1,406,101.25Zm-.58,3.8a5.84,5.84,0,0,0-3.55,1.16,7.79,7.79,0,0,0-2.4,2.81,15.76,15.76,0,0,0-1.2,3.1,10.08,10.08,0,0,0-.37,2.44c0,.39.17.58.5.58h13.38q.74,0,.74-1.24a10.71,10.71,0,0,0-1.94-5.87A5.92,5.92,0,0,0,405.4,105Z"/><path class="cls-1" d="M442.41,101.25q5.12,0,7.68,2.69t2.56,9.21v16.28a3.76,3.76,0,0,0,.74,2.52,2.48,2.48,0,0,0,2,.87,5.15,5.15,0,0,0,2.81-1.07c.33.11.5.41.5.91a4.91,4.91,0,0,1-.5,2.48,20.43,20.43,0,0,1-3.3,2.07,8.61,8.61,0,0,1-4,1.07,6,6,0,0,1-3.72-1.41,6.77,6.77,0,0,1-2.4-3.06l-.62.54q-.54.46-1.49,1.12a24.48,24.48,0,0,1-2.15,1.32,13.17,13.17,0,0,1-2.81,1.12,12,12,0,0,1-3.26.45,9.86,9.86,0,0,1-6.73-2.27,7.85,7.85,0,0,1-2.6-6.24,7.61,7.61,0,0,1,1-3.72,9.88,9.88,0,0,1,2.27-2.85,16.93,16.93,0,0,1,3.55-2.19,33.8,33.8,0,0,1,3.84-1.61q1.61-.54,4.13-1.28t3.51-1.07a1.3,1.3,0,0,0,.74-1.32v-4.54a7.09,7.09,0,0,0-1.32-4.54,4.31,4.31,0,0,0-3.55-1.65,5,5,0,0,0-3.88,1.53,6.18,6.18,0,0,0-1.4,4.34,2.68,2.68,0,0,1-1.24,2.44,5.14,5.14,0,0,1-2.81.78q-3.06,0-4.3-2,0-4,5.41-7.43A20.72,20.72,0,0,1,442.41,101.25ZM438.7,133a6.4,6.4,0,0,0,3.84-1.16,3.27,3.27,0,0,0,1.61-2.64v-8.43q-.58.25-2.44.83t-2.85,1a22.56,22.56,0,0,0-2.31,1.16,5,5,0,0,0-1.94,1.82,4.55,4.55,0,0,0-.62,2.31,5.09,5.09,0,0,0,1.32,3.88A4.75,4.75,0,0,0,438.7,133Z"/><path class="cls-1" d="M489.42,101.25q10.66,0,10.66,16.94V126a34.6,34.6,0,0,0,.58,7.44q.16.58,2.27,1.2a12.65,12.65,0,0,0,2.85.62c.17,0,.26.4.29,1.2a4.67,4.67,0,0,1-.12,1.61q-.5-.08-4.34-.33t-5.74-.25q-2,0-5.49.25t-4.25.33a2.42,2.42,0,0,1-.33-1.57q0-1.24.33-1.24a9.82,9.82,0,0,0,2.77-.62q1.86-.62,2-1.2a23.75,23.75,0,0,0,.66-6v-7.85q0-6.86-1.86-9.58t-5.91-2.73a7.65,7.65,0,0,0-4.63,1.45,4,4,0,0,0-2,3.1V126a34.56,34.56,0,0,0,.58,7.44q.16.58,2.19,1.2a11.89,11.89,0,0,0,2.69.62c.22,0,.34.4.37,1.2a4.7,4.7,0,0,1-.12,1.61q-.66-.08-4.34-.33t-5.58-.25q-2,0-5.74.25t-4.42.33a2.42,2.42,0,0,1-.33-1.57q0-1.24.33-1.24a11.52,11.52,0,0,0,3-.62q2-.62,2.19-1.2a27,27,0,0,0,.58-6V114q0-3.88-1.32-5.29a4,4,0,0,0-1.86-1.24,9.4,9.4,0,0,0-2-.5c-.52-.05-.78-.14-.78-.25q0-2.4.41-2.48a117.19,117.19,0,0,0,13.3-2.48.54.54,0,0,1,.21-.12.79.79,0,0,1,.25,0H477c.22,0,.41.19.58.58a2.51,2.51,0,0,1,.25.91,28.12,28.12,0,0,0-.33,3,.65.65,0,0,0,.08.41,1.23,1.23,0,0,0,.41-.25,18.31,18.31,0,0,1,5.08-3.47A14.46,14.46,0,0,1,489.42,101.25Z"/><path class="cls-1" d="M45.87,204.95V173.72a26.17,26.17,0,0,0-.58-6.77Q45,166,43,165.46a13,13,0,0,0-3.3-.58q-.33,0-.33-1.24a2.25,2.25,0,0,1,.33-1.49q5.45.25,11,.25,4.21,0,7.1,0t5,0a24.47,24.47,0,0,1,11.73,3A12.17,12.17,0,0,1,79,169.76a12.53,12.53,0,0,1,1.78,6.69A9.68,9.68,0,0,1,79.08,182a13.36,13.36,0,0,1-3.26,3.59,13.57,13.57,0,0,1-2.6,1.45q-.66.25-.33.5,3.06.5,6.82,4.34a13,13,0,0,1,3.76,9.46,13.33,13.33,0,0,1-5.74,11.32q-5.74,4.21-15.24,4.13l-11.73-.08-11,.33a2.16,2.16,0,0,1-.25-1.32q0-1.4.25-1.4a13.6,13.6,0,0,0,3.14-.54q2.06-.54,2.4-1.28Q45.87,210.73,45.87,204.95Zm18.92-19.41q6-1.32,6-8.1,0-11.15-9.5-11.15a22.1,22.1,0,0,0-5.29.41.83.83,0,0,0-.66.91l-.17,7.93v9.67q0,.83,5,.83A16.34,16.34,0,0,0,64.79,185.54Zm8.59,16.69a12.94,12.94,0,0,0-2.93-8.72q-2.93-3.43-9.46-3.43a34.41,34.41,0,0,0-5.12.41,1.8,1.8,0,0,0-.66,1.65v15.37q0,3.47,1,4.3t5.29.83a17,17,0,0,0,3.55-.37,17.65,17.65,0,0,0,3.76-1.32,7.43,7.43,0,0,0,3.3-3.22A11,11,0,0,0,73.38,202.22Z"/><path class="cls-1" d="M102.29,204.87a33.9,33.9,0,0,0,.58,7.44q.16.58,2,1.28a9,9,0,0,0,2.52.7q.25,0,.29,1.16a4.49,4.49,0,0,1-.12,1.57l-3.1-.21L101,216.6q-1.57-.08-3-.08-1.57,0-3.14.08l-3.47.21-3.14.21a2.33,2.33,0,0,1-.33-1.53c0-.8.11-1.2.33-1.2a8.83,8.83,0,0,0,2.77-.7q1.86-.7,2-1.28a27.38,27.38,0,0,0,.66-6.11V171.82a28.8,28.8,0,0,0-.5-5.62q-.41-1.32-4.13-1.32h-.83q-.5,0-.5-1,0-1.32.5-1.32,2.56-.25,4.87-.66t3.84-.83q1.53-.41,2.64-.78t1.78-.62l.58-.25h.17c.22,0,.45.17.7.5a2.52,2.52,0,0,1,.45.83,26.12,26.12,0,0,0-1,7.77Z"/><path class="cls-1" d="M129.64,180.25q5.12,0,7.68,2.69t2.56,9.21v16.28a3.76,3.76,0,0,0,.74,2.52,2.48,2.48,0,0,0,2,.87,5.15,5.15,0,0,0,2.81-1.07c.33.11.5.41.5.91a4.91,4.91,0,0,1-.5,2.48,20.43,20.43,0,0,1-3.3,2.07,8.61,8.61,0,0,1-4,1.07,6,6,0,0,1-3.72-1.41,6.77,6.77,0,0,1-2.4-3.06l-.62.54q-.54.46-1.49,1.12a24.48,24.48,0,0,1-2.15,1.32,13.17,13.17,0,0,1-2.81,1.12,12,12,0,0,1-3.26.45,9.86,9.86,0,0,1-6.73-2.27,7.85,7.85,0,0,1-2.6-6.24,7.61,7.61,0,0,1,1-3.72,9.88,9.88,0,0,1,2.27-2.85,16.93,16.93,0,0,1,3.55-2.19,33.8,33.8,0,0,1,3.84-1.61q1.61-.54,4.13-1.28t3.51-1.07a1.3,1.3,0,0,0,.74-1.32v-4.54a7.09,7.09,0,0,0-1.32-4.54A4.31,4.31,0,0,0,126.5,184a5,5,0,0,0-3.88,1.53,6.18,6.18,0,0,0-1.4,4.34,2.68,2.68,0,0,1-1.24,2.44,5.14,5.14,0,0,1-2.81.78q-3.06,0-4.3-2,0-4,5.41-7.43A20.72,20.72,0,0,1,129.64,180.25ZM125.92,212a6.4,6.4,0,0,0,3.84-1.16,3.27,3.27,0,0,0,1.61-2.64v-8.43q-.58.25-2.44.83t-2.85,1a22.56,22.56,0,0,0-2.31,1.16,5,5,0,0,0-1.94,1.82,4.55,4.55,0,0,0-.62,2.31,5.09,5.09,0,0,0,1.32,3.88A4.75,4.75,0,0,0,125.92,212Z"/><path class="cls-1" d="M167.39,180.25a20,20,0,0,1,7.81,1.45,13.18,13.18,0,0,1,4.92,3.18,10.21,10.21,0,0,1-1,4.67,3,3,0,0,1-2.85,1.86,3.7,3.7,0,0,1-2.52-.83,9.38,9.38,0,0,1-1.94-2.73q-1.9-3.8-5.54-3.8t-5.66,3.59a17.66,17.66,0,0,0-2.11,9q0,7.44,3.06,11a9.75,9.75,0,0,0,7.77,3.59,22.67,22.67,0,0,0,2.4-.12,12.37,12.37,0,0,0,2.15-.41q1-.29,1.74-.54a7.11,7.11,0,0,0,1.53-.74l1.12-.7q.33-.21,1.65-1.12a1.37,1.37,0,0,1,.41.5,1.6,1.6,0,0,1,.25.83,2.54,2.54,0,0,1-.5,1.57,13.46,13.46,0,0,1-4.87,4.46,15.18,15.18,0,0,1-8.1,2.23,16.71,16.71,0,0,1-12.52-5.37,18.24,18.24,0,0,1-5.16-13.14,18.78,18.78,0,0,1,5-13A16.64,16.64,0,0,1,167.39,180.25Z"/><path class="cls-1" d="M220.1,185.78q-1.65,1-5.25,3.72a58.32,58.32,0,0,0-6.57,5.78q2.4,2.56,6,6.69t6,6.77a39.67,39.67,0,0,0,3.3,3.39,10.45,10.45,0,0,0,3.18,1.65,10,10,0,0,0,2.77.66q.33,0,.33,1.4a4.88,4.88,0,0,1-.08,1.16q-9.09-.41-9.67-.41-1.57,0-3.18.08l-3.55.21-3.1.21a2.24,2.24,0,0,1-.33-1.49c0-.77.11-1.16.33-1.16a5.94,5.94,0,0,0,1.9-.37q1.07-.37,1.07-.79c0-.11,0-.17-.08-.17l-12.06-13.47-1,.25V205a33.75,33.75,0,0,0,.66,7.44q.16.58,2.23,1.2a12,12,0,0,0,2.89.62c.17,0,.26.4.29,1.2a4.69,4.69,0,0,1-.12,1.61q-.58-.08-4.38-.33t-5.7-.25q-2,0-5.74.25t-4.42.33a2.42,2.42,0,0,1-.33-1.57q0-1.24.33-1.24a11.52,11.52,0,0,0,3-.62q2-.62,2.19-1.2a27,27,0,0,0,.58-6V172.15a32.56,32.56,0,0,0-.41-5.62q-.41-1.32-4.3-1.32h-.74q-.5,0-.5-1.32t.5-1.32q2.56-.25,4.87-.66t3.84-.83q1.53-.41,2.64-.83t2.35-.83h.17a.89.89,0,0,1,.66.46,2.28,2.28,0,0,1,.41.87,26.62,26.62,0,0,0-1,7.77v27.59a7.47,7.47,0,0,0,2.48-.91q1.74-1.57,3.76-3.26l2.93-2.44q.91-.74,1.82-1.61a7.33,7.33,0,0,0,1.2-1.36,2,2,0,0,0,.29-1q0-.91-1.86-1.12a8.26,8.26,0,0,1-1.86-.29,3.69,3.69,0,0,1-.25-1.45q0-.87.33-1h8q2.23,0,8.76-.33a1.29,1.29,0,0,1,.41.91,3.71,3.71,0,0,1,0,1.24c-.08.39-.21.58-.37.58A10.85,10.85,0,0,0,220.1,185.78Z"/><path class="cls-2" d="M20.07,14.35a3.29,3.29,0,0,1,.6,2,3.28,3.28,0,0,1-1.2,2.69,5,5,0,0,1-3.26,1,7.42,7.42,0,0,1-2.48-.42,5.58,5.58,0,0,1-2-1.16l.69-1.41a5.82,5.82,0,0,0,3.72,1.43,3,3,0,0,0,2-.56,2.06,2.06,0,0,0,.68-1.68,2,2,0,0,0-.69-1.64,3.37,3.37,0,0,0-2.1-.55H14.41V12.53h1.32A3.26,3.26,0,0,0,17.79,12a2,2,0,0,0,.71-1.66,1.92,1.92,0,0,0-.59-1.51,2.42,2.42,0,0,0-1.67-.53A5.72,5.72,0,0,0,12.61,9.7l-.67-1.41a5.41,5.41,0,0,1,2-1.16,7.23,7.23,0,0,1,2.44-.42,4.44,4.44,0,0,1,2.93.91,3,3,0,0,1,1.09,2.46A3.47,3.47,0,0,1,19.82,12a3,3,0,0,1-1.5,1.2A3.22,3.22,0,0,1,20.07,14.35Z"/><path class="cls-2" d="M20,14.22a3.29,3.29,0,0,1,.6,2,3.28,3.28,0,0,1-1.2,2.69,5,5,0,0,1-3.26,1,7.42,7.42,0,0,1-2.48-.42,5.59,5.59,0,0,1-2-1.16l.69-1.41A5.82,5.82,0,0,0,16,18.36a3,3,0,0,0,2-.56,2.06,2.06,0,0,0,.68-1.68A2,2,0,0,0,18,14.48a3.37,3.37,0,0,0-2.1-.55H14.3V12.4h1.32a3.26,3.26,0,0,0,2.07-.56,2,2,0,0,0,.71-1.66,1.91,1.91,0,0,0-.59-1.51,2.42,2.42,0,0,0-1.67-.53A5.72,5.72,0,0,0,12.5,9.57l-.67-1.41a5.41,5.41,0,0,1,2-1.16,7.23,7.23,0,0,1,2.44-.42,4.44,4.44,0,0,1,2.93.91A3,3,0,0,1,20.25,10a3.48,3.48,0,0,1-.54,1.93,3,3,0,0,1-1.5,1.2A3.23,3.23,0,0,1,20,14.22Z"/></svg>