<svg id="Layer_1" data-name="Layer 1" xmlns="http://www.w3.org/2000/svg" viewBox="0 0 629.53 77.8"><defs><style>.cls-1{fill:#fff;stroke-width:1.2px;}.cls-1,.cls-3{stroke:#1414ef;stroke-miterlimit:10;}.cls-2{fill:#1414ef;}.cls-3{fill:#feea80;}</style></defs><title>title</title><path class="cls-1" d="M55.77,2.31q5.58.21,9.13.21t9.17-.21q5.62-.21,9-.29a27.44,27.44,0,0,0,5.7-.83l1.57,12.64a3.19,3.19,0,0,1-2.23.58c-.44,0-.72-.14-.83-.41q-1.16-4.54-3.06-6.16T78.28,6.24q-7.68,0-8,1.4a28.86,28.86,0,0,0-.74,7.77V45.23a28.18,28.18,0,0,0,.74,7.19q.08.58,2.23,1.2a13.15,13.15,0,0,0,2.89.62q.33,0,.33,1.49A4.31,4.31,0,0,1,75.56,57l-3.18-.25q-2.11-.17-3.88-.25t-3.43-.08q-2.23,0-6.15.25T54.08,57a1.91,1.91,0,0,1-.33-1.32q0-1.49.33-1.49a13.19,13.19,0,0,0,3.1-.58q2.11-.58,2.35-1.24a26.1,26.1,0,0,0,.66-6.86V15.66q0-6.86-.74-8-.66-1.4-7.85-1.4-4,0-5.95,1.61t-3.14,6.07q-.08.5-.83.5a2.78,2.78,0,0,1-2.15-.66L41.11,1.2a27.41,27.41,0,0,0,5.7.83Q50.2,2.11,55.77,2.31Z"/><path class="cls-1" d="M106.83,20.2a18.21,18.21,0,0,1,13.26,5.41,17.7,17.7,0,0,1,5.49,13.09,18.75,18.75,0,0,1-32,13.14,17.9,17.9,0,0,1-5.45-13.14,17.8,17.8,0,0,1,5.41-13.14A18.1,18.1,0,0,1,106.83,20.2Zm-1.07,3.88a6.65,6.65,0,0,0-6,3.76,17.77,17.77,0,0,0-2.15,9,24.09,24.09,0,0,0,2.69,11.65q2.68,5,7.48,5a6.73,6.73,0,0,0,6.07-3.8A17.57,17.57,0,0,0,116,40.69a28.36,28.36,0,0,0-1.07-8,14.57,14.57,0,0,0-3.47-6.16A7.66,7.66,0,0,0,105.76,24.08Z"/><path class="cls-1" d="M153.67,44.9V13.67a26.17,26.17,0,0,0-.58-6.77q-.25-.91-2.31-1.49a13,13,0,0,0-3.3-.58q-.33,0-.33-1.24a2.25,2.25,0,0,1,.33-1.49q5.45.25,11,.25,4.21,0,7.1,0t5,0a24.47,24.47,0,0,1,11.73,3,12.17,12.17,0,0,1,4.59,4.42,12.53,12.53,0,0,1,1.78,6.69,9.68,9.68,0,0,1-1.73,5.54,13.35,13.35,0,0,1-3.26,3.59A13.58,13.58,0,0,1,181,27q-.66.25-.33.5,3.06.5,6.82,4.34a13,13,0,0,1,3.76,9.46,13.33,13.33,0,0,1-5.74,11.32q-5.74,4.21-15.24,4.13l-11.73-.08-11,.33a2.16,2.16,0,0,1-.25-1.32q0-1.4.25-1.4a13.59,13.59,0,0,0,3.14-.54q2.06-.54,2.4-1.28Q153.67,50.69,153.67,44.9Zm18.92-19.41q6-1.32,6-8.1,0-11.15-9.5-11.15a22.1,22.1,0,0,0-5.29.41.83.83,0,0,0-.66.91L163,15.49v9.67q0,.83,5,.83A16.34,16.34,0,0,0,172.59,25.49Zm8.59,16.69a12.94,12.94,0,0,0-2.93-8.72Q175.32,30,168.79,30a34.4,34.4,0,0,0-5.12.41A1.8,1.8,0,0,0,163,32.1V47.46q0,3.47,1,4.3t5.29.83a17,17,0,0,0,3.55-.37,17.66,17.66,0,0,0,3.76-1.32,7.44,7.44,0,0,0,3.3-3.22A11,11,0,0,0,181.18,42.18Z"/><path class="cls-1" d="M212.66,20.2a15.32,15.32,0,0,1,6.94,1.53,13.07,13.07,0,0,1,4.79,3.88A19.21,19.21,0,0,1,227,30.49a14.24,14.24,0,0,1,.91,4.83q0,1.82-.62,2.27a4.69,4.69,0,0,1-2.52.45H205.06q-.58,0-.58.5a16.06,16.06,0,0,0,1.07,5.78,11.36,11.36,0,0,0,3.68,4.87,9.72,9.72,0,0,0,6.24,2.07,22.66,22.66,0,0,0,2.4-.12,12.37,12.37,0,0,0,2.15-.41q1-.29,1.73-.54a7.09,7.09,0,0,0,1.53-.74l1.12-.7q.33-.21,1.65-1.12a1.36,1.36,0,0,1,.41.5,1.6,1.6,0,0,1,.25.83,2.54,2.54,0,0,1-.5,1.57A13.46,13.46,0,0,1,221.33,55a15.33,15.33,0,0,1-8.18,2.23,16.73,16.73,0,0,1-12.39-5.33A17.82,17.82,0,0,1,195.56,39q0-8.34,4.83-13.55A16,16,0,0,1,212.66,20.2Zm-.58,3.8a5.84,5.84,0,0,0-3.55,1.16,7.79,7.79,0,0,0-2.4,2.81,15.78,15.78,0,0,0-1.2,3.1,10.1,10.1,0,0,0-.37,2.44c0,.39.17.58.5.58h13.38q.74,0,.74-1.24A10.71,10.71,0,0,0,217.25,27,5.92,5.92,0,0,0,212.08,24Z"/><path class="cls-1" d="M264.71,13.92V45a24.28,24.28,0,0,0,.74,6.61q.41,1.08,5.62,1.07h3.06q6.44,0,9.83-1.74a9.48,9.48,0,0,0,3-2.89,17.4,17.4,0,0,0,2.56-5q.08-.5,1.16-.5A3.55,3.55,0,0,1,293,43q-.25.74-1.2,3.39l-1.45,4q-.5,1.36-1.07,3.35A22.79,22.79,0,0,0,288.5,57q-3.31,0-13.67-.25t-14.58-.08l-11,.33a2.16,2.16,0,0,1-.25-1.32q0-1.4.25-1.4a13.59,13.59,0,0,0,3.14-.54q2.06-.54,2.4-1.28.58-1.73.58-7.52V13.67a25.3,25.3,0,0,0-.66-7q-.33-.66-2.31-1.28a11.09,11.09,0,0,0-3-.62q-.33,0-.33-1.24A3.33,3.33,0,0,1,249.26,2q.41,0,4.58.25t6.4.25q.66,0,10.57-.5a4.25,4.25,0,0,1,.25,1.32c0,.94-.11,1.4-.33,1.4a13.46,13.46,0,0,0-3,.66q-2.23.66-2.4,1.24A30.67,30.67,0,0,0,264.71,13.92Z"/><path class="cls-1" d="M314.61,20.2q5.12,0,7.68,2.69t2.56,9.21V48.37a3.77,3.77,0,0,0,.74,2.52,2.48,2.48,0,0,0,2,.87,5.15,5.15,0,0,0,2.81-1.07c.33.11.5.41.5.91a4.91,4.91,0,0,1-.5,2.48,20.44,20.44,0,0,1-3.3,2.07,8.61,8.61,0,0,1-4,1.07,6,6,0,0,1-3.72-1.41,6.77,6.77,0,0,1-2.4-3.06l-.62.54q-.54.46-1.49,1.12a24.47,24.47,0,0,1-2.15,1.32,13.18,13.18,0,0,1-2.81,1.12,12,12,0,0,1-3.26.45A9.86,9.86,0,0,1,299.94,55a7.85,7.85,0,0,1-2.6-6.24,7.61,7.61,0,0,1,.95-3.72,9.88,9.88,0,0,1,2.27-2.85A16.92,16.92,0,0,1,304.11,40,33.8,33.8,0,0,1,308,38.42q1.61-.54,4.13-1.28t3.51-1.07a1.3,1.3,0,0,0,.74-1.32V30.2A7.09,7.09,0,0,0,315,25.65,4.31,4.31,0,0,0,311.47,24a5,5,0,0,0-3.88,1.53,6.18,6.18,0,0,0-1.4,4.34,2.68,2.68,0,0,1-1.24,2.44,5.14,5.14,0,0,1-2.81.78q-3.06,0-4.3-2,0-4,5.41-7.43A20.72,20.72,0,0,1,314.61,20.2Zm-3.72,31.72a6.4,6.4,0,0,0,3.84-1.16,3.27,3.27,0,0,0,1.61-2.64V39.7q-.58.25-2.44.83t-2.85,1a22.54,22.54,0,0,0-2.31,1.16,5,5,0,0,0-1.94,1.82,4.55,4.55,0,0,0-.62,2.31,5.09,5.09,0,0,0,1.32,3.88A4.75,4.75,0,0,0,310.89,51.92Z"/><path class="cls-1" d="M339.39,26h-5q-.58,0-.58-2.15a2.06,2.06,0,0,1,.08-.74,23.1,23.1,0,0,0,6.36-4.38q1.07-1.07,2.35-2.44t3-3.51a5.88,5.88,0,0,1,1.57.21c.5.14.74.29.74.46v8.1l6,0,4.09,0q.66,0,.66.74a8,8,0,0,1-.83,3.63H347.9V45.89a7.84,7.84,0,0,0,1.4,5,4.72,4.72,0,0,0,3.88,1.74,7.79,7.79,0,0,0,1.73-.21,8.77,8.77,0,0,0,1.49-.45q.58-.25,1.07-.5a2.59,2.59,0,0,1,.58-.25q.33-.08.74.74t.33,1.07q-.5,1.16-3.51,2.68a13,13,0,0,1-5.91,1.53,10.42,10.42,0,0,1-7.31-2.77q-3-2.77-3-8.55Z"/><path class="cls-1" d="M380.45,20.2a15.32,15.32,0,0,1,6.94,1.53,13.07,13.07,0,0,1,4.79,3.88,19.21,19.21,0,0,1,2.64,4.87,14.24,14.24,0,0,1,.91,4.83q0,1.82-.62,2.27a4.69,4.69,0,0,1-2.52.45H372.85q-.58,0-.58.5a16.06,16.06,0,0,0,1.07,5.78A11.36,11.36,0,0,0,377,49.2a9.72,9.72,0,0,0,6.24,2.07,22.66,22.66,0,0,0,2.4-.12,12.37,12.37,0,0,0,2.15-.41q1-.29,1.73-.54a7.09,7.09,0,0,0,1.53-.74l1.12-.7q.33-.21,1.65-1.12a1.36,1.36,0,0,1,.41.5,1.6,1.6,0,0,1,.25.83,2.54,2.54,0,0,1-.5,1.57A13.46,13.46,0,0,1,389.12,55a15.33,15.33,0,0,1-8.18,2.23,16.73,16.73,0,0,1-12.39-5.33A17.82,17.82,0,0,1,363.35,39q0-8.34,4.83-13.55A16,16,0,0,1,380.45,20.2Zm-.58,3.8a5.84,5.84,0,0,0-3.55,1.16,7.79,7.79,0,0,0-2.4,2.81,15.78,15.78,0,0,0-1.2,3.1,10.1,10.1,0,0,0-.37,2.44c0,.39.17.58.5.58h13.38q.74,0,.74-1.24A10.71,10.71,0,0,0,385,27,5.92,5.92,0,0,0,379.87,24Z"/><path class="cls-2" d="M7,16.3H9.91v1.57H2.28V16.3H5.13V7.09L2.85,8.49,2,7.06,5.67,4.82H7Z"/><path class="cls-2" d="M12.26,4.82H21.1V6.24l-6,11.63H13L19,6.39H12.26Z"/><path class="cls-3" d="M548.16,69.89,361.1,35.27a13.66,13.66,0,0,1-10.93-15.92h0A13.66,13.66,0,0,1,366.1,8.42L553.15,43A13.66,13.66,0,0,1,564.08,59h0A13.66,13.66,0,0,1,548.16,69.89Z"/><path class="cls-2" d="M381.73,18.38a6,6,0,0,1,1.8.6,4.11,4.11,0,0,1,2.2,3.78h-2.31a3.39,3.39,0,0,0-.61-1.63,2.12,2.12,0,0,0-1.38-.84,2.35,2.35,0,0,0-2.14.65,5.19,5.19,0,0,0-1.37,2.89,5.63,5.63,0,0,0,.14,3.17,2.24,2.24,0,0,0,1.73,1.45,2.62,2.62,0,0,0,2-.25,2.07,2.07,0,0,0,.91-1.42l2.25.42A3.79,3.79,0,0,1,383.12,30a5.12,5.12,0,0,1-3.58.42,4.59,4.59,0,0,1-3.34-2.28,6.81,6.81,0,0,1-.54-4.69,6.61,6.61,0,0,1,2.23-4.17A4.59,4.59,0,0,1,381.73,18.38Z"/><path class="cls-2" d="M391.7,23.23a4.87,4.87,0,0,1,1.58.58,3.48,3.48,0,0,1,1.16,1.09,4.77,4.77,0,0,1,.58,3.67,4.72,4.72,0,0,1-1.86,3.18,4,4,0,0,1-3.16.59,4.1,4.1,0,0,1-2.77-1.69,4.68,4.68,0,0,1-.59-3.64,4.73,4.73,0,0,1,1.87-3.21A4.1,4.1,0,0,1,391.7,23.23Zm1.23,4.93a3.36,3.36,0,0,0-.15-2.15,1.8,1.8,0,0,0-1.35-1,2,2,0,0,0-1.68.39,3.07,3.07,0,0,0-1,1.94,3.32,3.32,0,0,0,.16,2.15,1.82,1.82,0,0,0,1.35,1,2,2,0,0,0,1.67-.39A3.07,3.07,0,0,0,392.92,28.17Z"/><path class="cls-2" d="M405.67,27.77a3,3,0,0,1,3.28-1.32,3,3,0,0,1,2.2,1.49,4.32,4.32,0,0,1,.3,2.92l-.94,5-2.11-.39.94-5a2.07,2.07,0,0,0-.19-1.53,1.73,1.73,0,0,0-1.2-.73,1.65,1.65,0,0,0-1.5.47,4,4,0,0,0-1,2.09l-.76,4-2.09-.39.94-5a2.07,2.07,0,0,0-.19-1.53,1.73,1.73,0,0,0-1.2-.73,1.81,1.81,0,0,0-1.57.48,3.75,3.75,0,0,0-1,2.12l-.75,4-2.09-.39,1.61-8.62,1.83.34,0,1.53a2.9,2.9,0,0,1,3.05-1.21,3.15,3.15,0,0,1,1.71.83A3,3,0,0,1,405.67,27.77Z"/><path class="cls-2" d="M415.6,25.05a1.21,1.21,0,0,1,.5-.83,1.58,1.58,0,0,1,1.91.36,1.36,1.36,0,0,1-.33,1.79,1.58,1.58,0,0,1-1.91-.36A1.21,1.21,0,0,1,415.6,25.05Zm-.27,2.81,2.09.39-1.61,8.64-2.09-.39Z"/><path class="cls-2" d="M422.75,30.81a3.19,3.19,0,0,1,5.26.28A4.49,4.49,0,0,1,428.3,34l-.94,5-2.09-.39.94-5a2.07,2.07,0,0,0-.19-1.53,1.73,1.73,0,0,0-1.2-.73,1.81,1.81,0,0,0-1.57.48,3.75,3.75,0,0,0-1,2.12l-.75,4-2.09-.39L421,28.94l1.83.34Z"/><path class="cls-2" d="M431.82,36.24a2.84,2.84,0,0,1-.63-2.41,2.81,2.81,0,0,1,1.52-2.07,3.91,3.91,0,0,1,2.6-.38,4.75,4.75,0,0,1,2.2.94,2.38,2.38,0,0,1,1.17-1.47,2.7,2.7,0,0,1,1.87-.29l-.48,2q-1.53-.28-1.77.72a2.69,2.69,0,0,1,.35,1.79,3.11,3.11,0,0,1-.57,1.37,2.91,2.91,0,0,1-1,.81,4.09,4.09,0,0,1-2.75.37,4.54,4.54,0,0,1-1.53-.56.87.87,0,0,0-.87.72q-.15.8,1.2,1.05l2.89.54q2.95.55,2.56,2.61a3,3,0,0,1-.6,1.29,3.69,3.69,0,0,1-1.22,1,5.86,5.86,0,0,1-3.87.45,6.33,6.33,0,0,1-3.3-1.52,2.46,2.46,0,0,1-.86-2.27,1.71,1.71,0,0,1,.72-1.18,2.35,2.35,0,0,1,1.4-.35,1.88,1.88,0,0,1-.75-1.77,1.48,1.48,0,0,1,.58-1A2.21,2.21,0,0,1,431.82,36.24Zm.9,4q-1.68-.24-1.9.95a1.11,1.11,0,0,0,.52,1.1,3.62,3.62,0,0,0,1.59.67,5.64,5.64,0,0,0,1.53.12,3.11,3.11,0,0,0,1-.26,1.55,1.55,0,0,0,1-1.13.69.69,0,0,0-.12-.56.94.94,0,0,0-.61-.33Zm3.83-5.46a1.73,1.73,0,0,0-.18-1.25,1.56,1.56,0,0,0-1.13-.68,1.55,1.55,0,0,0-2,1.31,1.7,1.7,0,0,0,.21,1.26,1.63,1.63,0,0,0,1.16.69,1.55,1.55,0,0,0,1.3-.23A1.77,1.77,0,0,0,436.55,34.8Z"/><path class="cls-2" d="M452.84,35.18q0-1.56-1.85-1.91a2.42,2.42,0,0,0-1.48.1,1.08,1.08,0,0,0-.67.78A1,1,0,0,0,449,35a3.21,3.21,0,0,0,.92.73l2.32,1.44A5.25,5.25,0,0,1,454,38.82a2.74,2.74,0,0,1,.34,2,3,3,0,0,1-1.63,2.26,5.41,5.41,0,0,1-3.51.29,4.94,4.94,0,0,1-2.93-1.52,3.71,3.71,0,0,1-.86-3.17l2.08.39a1.75,1.75,0,0,0,1.14,2.07,4.56,4.56,0,0,0,1.15.34,2.67,2.67,0,0,0,1.42-.11,1.12,1.12,0,0,0,.8-.86,1.28,1.28,0,0,0-.16-1,3.26,3.26,0,0,0-1-.82l-2.12-1.33a6.1,6.1,0,0,1-1.82-1.59,2.6,2.6,0,0,1-.35-2,2.73,2.73,0,0,1,1.54-2.06,5,5,0,0,1,3.24-.29,4.58,4.58,0,0,1,2.83,1.46,3.67,3.67,0,0,1,.75,2.74Z"/><path class="cls-2" d="M464.41,39.47a4.91,4.91,0,0,1,0,1.41,8.06,8.06,0,0,1-.28,1.1l-5.57-1a3,3,0,0,0,.2,1.8,1.71,1.71,0,0,0,1.33.93,1.41,1.41,0,0,0,1.76-.85l2.11.39A3.15,3.15,0,0,1,462.35,45a4,4,0,0,1-2.61.32,3.81,3.81,0,0,1-2.62-1.78,4.8,4.8,0,0,1-.57-3.54,4.74,4.74,0,0,1,1.81-3.11,3.82,3.82,0,0,1,3.08-.67A3.41,3.41,0,0,1,464,38,4,4,0,0,1,464.41,39.47Zm-3.26-1.55a1.76,1.76,0,0,0-1.49.32,2.64,2.64,0,0,0-.86,1.37l3.67.69a2,2,0,0,0-.54-2A1.77,1.77,0,0,0,461.14,37.93Z"/><path class="cls-2" d="M469.27,39.17a2.73,2.73,0,0,1,2.75-.94,3.68,3.68,0,0,1,2.51,1.72,5.3,5.3,0,0,1-1.27,6.69,3.66,3.66,0,0,1-2.94.7A2.78,2.78,0,0,1,468.18,46l-.91,4.9-2.09-.39,2.4-12.83,1.72.32Zm1,6.2a2.11,2.11,0,0,0,.8,0,2.05,2.05,0,0,0,.81-.36A2.82,2.82,0,0,0,473,43.12a3,3,0,0,0-.25-2.08,1.93,1.93,0,0,0-1.36-1,2.09,2.09,0,0,0-1.53.24,2,2,0,0,0-.86,1.34l-.29,1.54a1.74,1.74,0,0,0,.33,1.46A2,2,0,0,0,470.3,45.37Z"/><path class="cls-2" d="M481.69,49a5.54,5.54,0,0,1-1.93.12,4,4,0,0,1-1.15-.38,2.71,2.71,0,0,1-.81-.65,2.59,2.59,0,0,1-.44-2.16l.9-4.83L477,40.86l.26-1.4,1.21.23.42-2.27,2.09.39-.42,2.27,2.34.44-.26,1.4-2.34-.44-.89,4.76a.93.93,0,0,0,.81,1.25,4.33,4.33,0,0,0,1.38,0Z"/><path class="cls-2" d="M491.65,44.56a4.91,4.91,0,0,1,0,1.41,8.06,8.06,0,0,1-.28,1.1l-5.57-1a3,3,0,0,0,.2,1.8,1.71,1.71,0,0,0,1.33.93,1.41,1.41,0,0,0,1.76-.85l2.11.39a3.15,3.15,0,0,1-1.57,1.82,4,4,0,0,1-2.61.32,3.81,3.81,0,0,1-2.62-1.78,4.8,4.8,0,0,1-.57-3.54A4.74,4.74,0,0,1,485.59,42a3.82,3.82,0,0,1,3.08-.67,3.41,3.41,0,0,1,2.55,1.78A4,4,0,0,1,491.65,44.56ZM488.38,43a1.76,1.76,0,0,0-1.49.32A2.64,2.64,0,0,0,486,44.7l3.67.69a2,2,0,0,0-.54-2A1.77,1.77,0,0,0,488.38,43Z"/><path class="cls-2" d="M502.17,45.79a3,3,0,0,1,3.28-1.32,3,3,0,0,1,2.2,1.49,4.32,4.32,0,0,1,.3,2.92l-.94,5-2.11-.39.94-5a2.07,2.07,0,0,0-.19-1.53,1.73,1.73,0,0,0-1.2-.73,1.65,1.65,0,0,0-1.5.47,4,4,0,0,0-1,2.09l-.76,4-2.09-.39.94-5a2.07,2.07,0,0,0-.19-1.53,1.73,1.73,0,0,0-1.2-.73,1.81,1.81,0,0,0-1.57.48,3.75,3.75,0,0,0-1,2.12l-.75,4-2.09-.39,1.61-8.62,1.83.34,0,1.53a2.9,2.9,0,0,1,3.05-1.21,3.15,3.15,0,0,1,1.71.83A3,3,0,0,1,502.17,45.79Z"/><path class="cls-2" d="M517.89,49.46a4.91,4.91,0,0,1,0,1.41,8.06,8.06,0,0,1-.28,1.1l-5.57-1a3,3,0,0,0,.2,1.8,1.71,1.71,0,0,0,1.33.93,1.41,1.41,0,0,0,1.76-.85l2.11.39A3.15,3.15,0,0,1,515.83,55a4,4,0,0,1-2.61.32,3.81,3.81,0,0,1-2.62-1.78A4.8,4.8,0,0,1,510,50a4.74,4.74,0,0,1,1.81-3.11,3.82,3.82,0,0,1,3.08-.67A3.41,3.41,0,0,1,517.47,48,4,4,0,0,1,517.89,49.46Zm-3.26-1.55a1.76,1.76,0,0,0-1.49.32,2.64,2.64,0,0,0-.86,1.37l3.67.69a2,2,0,0,0-.54-2A1.77,1.77,0,0,0,514.63,47.91Z"/><path class="cls-2" d="M522.83,49.72a2.57,2.57,0,0,1,2.69-1.43,3.11,3.11,0,0,1,.74.27l-.43,2.09a4.73,4.73,0,0,0-1-.29q-2.09-.39-2.63,2.5l-.71,3.78-2.09-.39,1.61-8.64,2.09.39Z"/><path class="cls-2" d="M540.14,48.07l-1.36,7.29,2,.37-.33,1.79-2-.37L538,59.71l-2.08-.39.48-2.56-5.84-1.09.29-1.58,7.29-6.41Zm-6.83,6.49,3.46.65.82-4.4Z"/></svg>