<svg id="Layer_1" data-name="Layer 1" xmlns="http://www.w3.org/2000/svg" viewBox="0 0 892.59 156.62"><defs><style>.cls-1{fill:#fff;stroke:#1414ef;stroke-miterlimit:10;stroke-width:1.2px;}.cls-2{fill:#1414ef;}</style></defs><title>title</title><path class="cls-1" d="M62.67,4a23.79,23.79,0,0,1,4.5.45A24.2,24.2,0,0,1,72,6a19.6,19.6,0,0,1,4.5,2.64,11.62,11.62,0,0,1,3.22,4.13A13.11,13.11,0,0,1,81,18.55,14.06,14.06,0,0,1,78.12,27a16,16,0,0,1-7,5.62q-.66.25-.33.83a96.81,96.81,0,0,0,9.25,14,35.91,35.91,0,0,0,6.24,6.07,10.53,10.53,0,0,0,6.15,2.52,2.36,2.36,0,0,1,.33,1.32,3.28,3.28,0,0,1-.33,1.49,16.09,16.09,0,0,1-2.56.17,27.46,27.46,0,0,1-7.64-1,17.64,17.64,0,0,1-5.95-2.93,32,32,0,0,1-4.17-3.76,35.74,35.74,0,0,1-3.47-4.63Q67.46,45.07,66,42.84L63.7,39.41q-.79-1.2-1.78-2.52a16.25,16.25,0,0,0-1.69-2A4.22,4.22,0,0,0,58.87,34a5.16,5.16,0,0,0-2-.25q-1.32,0-1.32,1.4V46.8a25.8,25.8,0,0,0,.66,7q.25,1,2.77,1.61a17.43,17.43,0,0,0,3.68.62q.33,0,.33,1.4a4.65,4.65,0,0,1-.17,1.4q-9.09-.5-11.73-.5-2.23,0-5,.12l-4.42.21L40,58.86a2.84,2.84,0,0,1-.25-1.49q0-1.32.25-1.32a14.09,14.09,0,0,0,3.18-.54q2.11-.54,2.44-1.28.5-1.49.5-7.52V15.49a32.45,32.45,0,0,0-.5-6.77q-.25-.66-2.44-1.36A12,12,0,0,0,40,6.65q-.33,0-.33-1.24T40,3.93q8.76.25,11,.25t5.74-.08Q60.19,4,62.67,4ZM61.35,8.14a13.52,13.52,0,0,0-4.79.58q-.91.41-1,8.59v9.5a2.32,2.32,0,0,0,1.4,2.4,10.46,10.46,0,0,0,3.88.58H63a7.1,7.1,0,0,0,5.49-2.89,11.27,11.27,0,0,0,2.44-7.52Q70.93,8.14,61.35,8.14Z"/><path class="cls-1" d="M113.31,22a15.32,15.32,0,0,1,6.94,1.53A13.07,13.07,0,0,1,125,27.43a19.21,19.21,0,0,1,2.64,4.87,14.24,14.24,0,0,1,.91,4.83q0,1.82-.62,2.27a4.69,4.69,0,0,1-2.52.45H105.71q-.58,0-.58.5a16.06,16.06,0,0,0,1.07,5.78A11.36,11.36,0,0,0,109.88,51a9.72,9.72,0,0,0,6.24,2.07,22.66,22.66,0,0,0,2.4-.12,12.37,12.37,0,0,0,2.15-.41q1-.29,1.73-.54a7.09,7.09,0,0,0,1.53-.74l1.12-.7q.33-.21,1.65-1.12a1.36,1.36,0,0,1,.41.5,1.6,1.6,0,0,1,.25.83,2.54,2.54,0,0,1-.5,1.57A13.46,13.46,0,0,1,122,56.8,15.33,15.33,0,0,1,113.81,59a16.73,16.73,0,0,1-12.39-5.33,17.82,17.82,0,0,1-5.2-12.93q0-8.34,4.83-13.55A16,16,0,0,1,113.31,22Zm-.58,3.8A5.84,5.84,0,0,0,109.18,27a7.79,7.79,0,0,0-2.4,2.81,15.78,15.78,0,0,0-1.2,3.1,10.1,10.1,0,0,0-.37,2.44c0,.39.17.58.5.58H119.1q.74,0,.74-1.24a10.71,10.71,0,0,0-1.94-5.87A5.92,5.92,0,0,0,112.73,25.82Z"/><path class="cls-1" d="M159.41,22a8.92,8.92,0,0,1,5.37,1.61,9.66,9.66,0,0,1,3.3,4.17,19.48,19.48,0,0,1,6-4.13A18.56,18.56,0,0,1,181.88,22,9.38,9.38,0,0,1,187,23.34a9.12,9.12,0,0,1,3.3,3.68A19.44,19.44,0,0,1,192,32.14a31.48,31.48,0,0,1,.54,6V46.8a34.58,34.58,0,0,0,.58,7.44q.16.58,2.23,1.2a12.15,12.15,0,0,0,2.81.62c.17,0,.26.4.29,1.2a4.68,4.68,0,0,1-.12,1.61q-.58-.08-4.34-.33t-5.66-.25q-2,0-5.66.25t-4.42.33a3.08,3.08,0,0,1-.25-1.57q0-1.24.25-1.24a11.09,11.09,0,0,0,3-.62q2-.62,2.15-1.2a25.71,25.71,0,0,0,.58-5.78V40q0-12-7.68-12a7.52,7.52,0,0,0-4.54,1.32,5.15,5.15,0,0,0-2.15,2.56c0,.17,0,.39,0,.66a1.61,1.61,0,0,0,0,.66,40.4,40.4,0,0,1,.25,5.12v8.76a32.49,32.49,0,0,0,.58,7.1q.16.58,2.23,1.2a12.15,12.15,0,0,0,2.81.62c.17,0,.26.4.29,1.2a4.69,4.69,0,0,1-.12,1.61q-.58-.08-4.34-.33t-5.66-.25q-2,0-5.66.25t-4.42.33a3.08,3.08,0,0,1-.25-1.57q0-1.24.25-1.24a11.09,11.09,0,0,0,3-.62q2-.62,2.15-1.2a27,27,0,0,0,.58-6V40.28q0-6.44-1.9-9.33A6.29,6.29,0,0,0,153.71,28a7.91,7.91,0,0,0-4.54,1.4,3.9,3.9,0,0,0-2.07,3.14V46.8a30.37,30.37,0,0,0,.66,7.44q.16.58,2.15,1.2a11.21,11.21,0,0,0,2.73.62c.22,0,.34.4.37,1.2a4.69,4.69,0,0,1-.12,1.61q-.66-.08-4.34-.33T143,58.29q-2.07,0-5.78.25t-4.38.33a2.42,2.42,0,0,1-.33-1.57q0-1.24.33-1.24a12,12,0,0,0,3-.62q2.06-.62,2.23-1.2a27,27,0,0,0,.58-6V34.74q0-3.88-1.32-5.29a4,4,0,0,0-1.86-1.24,9.31,9.31,0,0,0-2-.5c-.55-.05-.83-.14-.83-.25q0-2.4.5-2.48a114.56,114.56,0,0,0,13.22-2.48.53.53,0,0,1,.25-.12,1.75,1.75,0,0,1,.41,0q.41,0,.66.58a1.52,1.52,0,0,1,.17.91,28.17,28.17,0,0,0-.33,3c0,.22.05.36.17.41A1.23,1.23,0,0,0,148,27a18.32,18.32,0,0,1,5.08-3.47A14.46,14.46,0,0,1,159.41,22Z"/><path class="cls-1" d="M219.06,22A15.32,15.32,0,0,1,226,23.55a13.07,13.07,0,0,1,4.79,3.88,19.21,19.21,0,0,1,2.64,4.87,14.24,14.24,0,0,1,.91,4.83q0,1.82-.62,2.27a4.69,4.69,0,0,1-2.52.45H211.46q-.58,0-.58.5A16.06,16.06,0,0,0,212,46.14,11.36,11.36,0,0,0,215.63,51a9.72,9.72,0,0,0,6.24,2.07,22.66,22.66,0,0,0,2.4-.12,12.37,12.37,0,0,0,2.15-.41q1-.29,1.73-.54a7.09,7.09,0,0,0,1.53-.74l1.12-.7q.33-.21,1.65-1.12a1.36,1.36,0,0,1,.41.5,1.6,1.6,0,0,1,.25.83,2.54,2.54,0,0,1-.5,1.57,13.46,13.46,0,0,1-4.87,4.46A15.33,15.33,0,0,1,219.55,59a16.73,16.73,0,0,1-12.39-5.33A17.82,17.82,0,0,1,202,40.77q0-8.34,4.83-13.55A16,16,0,0,1,219.06,22Zm-.58,3.8A5.84,5.84,0,0,0,214.93,27a7.79,7.79,0,0,0-2.4,2.81,15.78,15.78,0,0,0-1.2,3.1,10.1,10.1,0,0,0-.37,2.44c0,.39.17.58.5.58h13.38q.74,0,.74-1.24a10.71,10.71,0,0,0-1.94-5.87A5.92,5.92,0,0,0,218.48,25.82Z"/><path class="cls-1" d="M265.16,22a8.92,8.92,0,0,1,5.37,1.61,9.66,9.66,0,0,1,3.3,4.17,19.48,19.48,0,0,1,6-4.13A18.56,18.56,0,0,1,287.63,22a9.38,9.38,0,0,1,5.08,1.32A9.12,9.12,0,0,1,296,27a19.44,19.44,0,0,1,1.73,5.12,31.48,31.48,0,0,1,.54,6V46.8a34.58,34.58,0,0,0,.58,7.44q.16.58,2.23,1.2a12.15,12.15,0,0,0,2.81.62c.17,0,.26.4.29,1.2a4.68,4.68,0,0,1-.12,1.61q-.58-.08-4.34-.33t-5.66-.25q-2,0-5.66.25t-4.42.33a3.08,3.08,0,0,1-.25-1.57q0-1.24.25-1.24a11.09,11.09,0,0,0,3-.62q2-.62,2.15-1.2a25.71,25.71,0,0,0,.58-5.78V40q0-12-7.68-12a7.52,7.52,0,0,0-4.54,1.32,5.15,5.15,0,0,0-2.15,2.56c0,.17,0,.39,0,.66a1.61,1.61,0,0,0,0,.66,40.4,40.4,0,0,1,.25,5.12v8.76a32.49,32.49,0,0,0,.58,7.1q.16.58,2.23,1.2a12.15,12.15,0,0,0,2.81.62c.17,0,.26.4.29,1.2a4.69,4.69,0,0,1-.12,1.61q-.58-.08-4.34-.33t-5.66-.25q-2,0-5.66.25t-4.42.33a3.08,3.08,0,0,1-.25-1.57q0-1.24.25-1.24a11.09,11.09,0,0,0,3-.62q2-.62,2.15-1.2a27,27,0,0,0,.58-6V40.28q0-6.44-1.9-9.33A6.29,6.29,0,0,0,259.46,28a7.91,7.91,0,0,0-4.54,1.4,3.9,3.9,0,0,0-2.07,3.14V46.8a30.37,30.37,0,0,0,.66,7.44q.16.58,2.15,1.2a11.21,11.21,0,0,0,2.73.62c.22,0,.34.4.37,1.2a4.69,4.69,0,0,1-.12,1.61q-.66-.08-4.34-.33t-5.58-.25q-2.07,0-5.78.25t-4.38.33a2.42,2.42,0,0,1-.33-1.57q0-1.24.33-1.24a12,12,0,0,0,3-.62q2.06-.62,2.23-1.2a27,27,0,0,0,.58-6V34.74q0-3.88-1.32-5.29a4,4,0,0,0-1.86-1.24,9.31,9.31,0,0,0-2-.5c-.55-.05-.83-.14-.83-.25q0-2.4.5-2.48A114.56,114.56,0,0,0,252,22.51a.53.53,0,0,1,.25-.12,1.75,1.75,0,0,1,.41,0q.41,0,.66.58a1.52,1.52,0,0,1,.17.91,28.17,28.17,0,0,0-.33,3c0,.22.05.36.17.41a1.23,1.23,0,0,0,.41-.25,18.32,18.32,0,0,1,5.08-3.47A14.46,14.46,0,0,1,265.16,22Z"/><path class="cls-1" d="M328.93,22a16.8,16.8,0,0,1,9.21,2.6,17.35,17.35,0,0,1,6.2,6.61,17.63,17.63,0,0,1,2.11,8.3,18.86,18.86,0,0,1-5.74,13.84,18.21,18.21,0,0,1-13.26,5.74,25.87,25.87,0,0,1-6-.62,18.11,18.11,0,0,0-3.88-.62,6.29,6.29,0,0,0-2.15.58,8.23,8.23,0,0,1-1.65.58,4,4,0,0,1-1.2-.5q-1-.5-.95-.83t.17-1.49q.16-1.24.41-3.55a47.48,47.48,0,0,0,.25-5V13.92a28.78,28.78,0,0,0-.5-5.62Q311.5,7,307.62,7h-.74q-.5,0-.5-1.32t.5-1.32q2.56-.25,4.87-.66t3.84-.83q1.53-.41,2.64-.83t2.35-.83h.17a.89.89,0,0,1,.66.46,2.27,2.27,0,0,1,.41.87,28.87,28.87,0,0,0-.91,7.77V24a2.38,2.38,0,0,0,0,.37c0,.17.08.25.17.25a.66.66,0,0,0,.29-.08,15.12,15.12,0,0,1,3.35-1.65A11.83,11.83,0,0,1,328.93,22Zm-1.82,4.46A6.4,6.4,0,0,0,322.66,28a4.86,4.86,0,0,0-1.73,3.72V49.28a5,5,0,0,0,2.19,4.38,9,9,0,0,0,5.16,1.49,7,7,0,0,0,6.49-3.88,18.91,18.91,0,0,0,2.19-9.42q0-7.1-2.56-11.24A8.1,8.1,0,0,0,327.12,26.48Z"/><path class="cls-1" d="M368.18,22a15.32,15.32,0,0,1,6.94,1.53,13.07,13.07,0,0,1,4.79,3.88,19.21,19.21,0,0,1,2.64,4.87,14.24,14.24,0,0,1,.91,4.83q0,1.82-.62,2.27a4.69,4.69,0,0,1-2.52.45H360.57q-.58,0-.58.5a16.06,16.06,0,0,0,1.07,5.78A11.36,11.36,0,0,0,364.75,51,9.72,9.72,0,0,0,371,53.08a22.66,22.66,0,0,0,2.4-.12,12.37,12.37,0,0,0,2.15-.41q1-.29,1.73-.54a7.09,7.09,0,0,0,1.53-.74l1.12-.7q.33-.21,1.65-1.12a1.36,1.36,0,0,1,.41.5,1.6,1.6,0,0,1,.25.83,2.54,2.54,0,0,1-.5,1.57,13.46,13.46,0,0,1-4.87,4.46A15.33,15.33,0,0,1,368.67,59a16.73,16.73,0,0,1-12.39-5.33,17.82,17.82,0,0,1-5.2-12.93q0-8.34,4.83-13.55A16,16,0,0,1,368.18,22Zm-.58,3.8A5.84,5.84,0,0,0,364,27a7.79,7.79,0,0,0-2.4,2.81,15.78,15.78,0,0,0-1.2,3.1,10.1,10.1,0,0,0-.37,2.44c0,.39.17.58.5.58H374q.74,0,.74-1.24a10.71,10.71,0,0,0-1.94-5.87A5.92,5.92,0,0,0,367.6,25.82Z"/><path class="cls-1" d="M411.46,22q4.54,0,6.77,2.73,0,7-4,7a4.91,4.91,0,0,1-3.22-1.65,5.17,5.17,0,0,0-3.55-1.65,4.43,4.43,0,0,0-4,2.6A11,11,0,0,0,402,36.48V46.8a34.58,34.58,0,0,0,.58,7.44q.16.58,2.19,1.2a11.67,11.67,0,0,0,2.77.62c.17,0,.26.4.29,1.2a8.62,8.62,0,0,1,0,1.61q-.66-.08-4.38-.33t-5.62-.25q-2,0-5.74.25t-4.42.33a2.42,2.42,0,0,1-.33-1.57q0-1.24.33-1.24a11.52,11.52,0,0,0,3-.62q2-.62,2.19-1.2a27,27,0,0,0,.58-6V34.74q0-3.88-1.32-5.29a4,4,0,0,0-1.86-1.24,9.41,9.41,0,0,0-2-.5c-.52-.05-.78-.14-.78-.25q0-2.4.41-2.48a117.19,117.19,0,0,0,13.3-2.48,5,5,0,0,1,.66-.17c.22,0,.41.19.58.58a2,2,0,0,1,.21,1q0,.37-.12,1.16t-.21,1.65a10.57,10.57,0,0,0-.12,1.12,15.17,15.17,0,0,1,4-4A9.05,9.05,0,0,1,411.46,22Z"/><path class="cls-1" d="M428.15,59.86a7.33,7.33,0,0,0-1.24-3.43,7.45,7.45,0,0,1-1.24-3.59,5,5,0,0,1,1.73-3.47A6.14,6.14,0,0,1,432,47.63a5.34,5.34,0,0,1,2.64.5,12.88,12.88,0,0,1,1.16,5.78,14.82,14.82,0,0,1-.66,4,23.73,23.73,0,0,1-3.55,7.64,37.06,37.06,0,0,1-7,6.73h-.08q-.41,0-1.16-.87a2.49,2.49,0,0,1-.74-1.45,11.94,11.94,0,0,1,1.4-1.32A15.14,15.14,0,0,0,426.75,65,9.9,9.9,0,0,0,428.15,59.86Z"/><path class="cls-1" d="M480.53,4a23.79,23.79,0,0,1,4.5.45A24.2,24.2,0,0,1,489.91,6a19.6,19.6,0,0,1,4.5,2.64,11.62,11.62,0,0,1,3.22,4.13,13.11,13.11,0,0,1,1.24,5.78A14.06,14.06,0,0,1,496,27a16,16,0,0,1-7,5.62q-.66.25-.33.83a96.81,96.81,0,0,0,9.25,14,35.91,35.91,0,0,0,6.24,6.07,10.53,10.53,0,0,0,6.15,2.52,2.36,2.36,0,0,1,.33,1.32,3.28,3.28,0,0,1-.33,1.49,16.09,16.09,0,0,1-2.56.17,27.46,27.46,0,0,1-7.64-1,17.64,17.64,0,0,1-5.95-2.93,32,32,0,0,1-4.17-3.76,35.74,35.74,0,0,1-3.47-4.63q-1.16-1.65-2.64-3.88l-2.27-3.43q-.79-1.2-1.78-2.52a16.25,16.25,0,0,0-1.69-2,4.22,4.22,0,0,0-1.36-.91,5.16,5.16,0,0,0-2-.25q-1.32,0-1.32,1.4V46.8a25.8,25.8,0,0,0,.66,7q.25,1,2.77,1.61a17.43,17.43,0,0,0,3.68.62q.33,0,.33,1.4a4.65,4.65,0,0,1-.17,1.4q-9.09-.5-11.73-.5-2.23,0-5,.12l-4.42.21-1.65.17a2.84,2.84,0,0,1-.25-1.49q0-1.32.25-1.32a14.09,14.09,0,0,0,3.18-.54q2.11-.54,2.44-1.28.5-1.49.5-7.52V15.49a32.45,32.45,0,0,0-.5-6.77q-.25-.66-2.44-1.36a12,12,0,0,0-3.18-.7q-.33,0-.33-1.24t.33-1.49q8.76.25,11,.25t5.74-.08Q478,4,480.53,4Zm-1.32,4.13a13.52,13.52,0,0,0-4.79.58q-.91.41-1,8.59v9.5a2.32,2.32,0,0,0,1.4,2.4,10.46,10.46,0,0,0,3.88.58h2.15a7.1,7.1,0,0,0,5.49-2.89,11.27,11.27,0,0,0,2.44-7.52Q488.79,8.14,479.21,8.14Z"/><path class="cls-1" d="M531.17,22a15.32,15.32,0,0,1,6.94,1.53,13.07,13.07,0,0,1,4.79,3.88,19.21,19.21,0,0,1,2.64,4.87,14.24,14.24,0,0,1,.91,4.83q0,1.82-.62,2.27a4.69,4.69,0,0,1-2.52.45H523.57q-.58,0-.58.5a16.06,16.06,0,0,0,1.07,5.78A11.36,11.36,0,0,0,527.74,51,9.72,9.72,0,0,0,534,53.08a22.66,22.66,0,0,0,2.4-.12,12.37,12.37,0,0,0,2.15-.41q1-.29,1.73-.54a7.09,7.09,0,0,0,1.53-.74l1.12-.7q.33-.21,1.65-1.12a1.36,1.36,0,0,1,.41.5,1.6,1.6,0,0,1,.25.83,2.54,2.54,0,0,1-.5,1.57,13.46,13.46,0,0,1-4.87,4.46A15.33,15.33,0,0,1,531.67,59a16.73,16.73,0,0,1-12.39-5.33,17.82,17.82,0,0,1-5.2-12.93q0-8.34,4.83-13.55A16,16,0,0,1,531.17,22Zm-.58,3.8A5.84,5.84,0,0,0,527,27a7.79,7.79,0,0,0-2.4,2.81,15.78,15.78,0,0,0-1.2,3.1,10.1,10.1,0,0,0-.37,2.44c0,.39.17.58.5.58H537q.74,0,.74-1.24a10.71,10.71,0,0,0-1.94-5.87A5.92,5.92,0,0,0,530.59,25.82Z"/><path class="cls-1" d="M572.81,22.1a16.71,16.71,0,0,1,9.42,2.73,17.31,17.31,0,0,1,8.1,14.71A19.33,19.33,0,0,1,570.91,59.2,19.16,19.16,0,0,1,565,58c-.22,0-.33.39-.33,1.16v5.62a29.77,29.77,0,0,0,.66,7.44q.08.66,2.19,1.28a12.67,12.67,0,0,0,2.85.62c.17,0,.26.4.29,1.2a7.42,7.42,0,0,1,0,1.53q-.58,0-4.42-.25t-5.66-.25q-2.07,0-5.82.25t-4.42.25a3,3,0,0,1-.25-1.53q0-1.2.25-1.2a11.54,11.54,0,0,0,3-.62q2-.62,2.27-1.28a30,30,0,0,0,.5-5.95V34.74q0-4-1.32-5.37a3.72,3.72,0,0,0-1.82-1.2,9.87,9.87,0,0,0-2-.45c-.55-.05-.83-.14-.83-.25q0-2.4.5-2.48A63.5,63.5,0,0,0,563,22.68q1.49-.41,1.57-.41.33,0,.33,1.74a4.54,4.54,0,0,1-.17,1,16.52,16.52,0,0,1,3.68-1.94A11.86,11.86,0,0,1,572.81,22.1Zm-2,4.38A6.24,6.24,0,0,0,566.41,28a5.47,5.47,0,0,0-1.69,4.21v17a5.08,5.08,0,0,0,2.23,4.34,8,8,0,0,0,4.79,1.61,7.76,7.76,0,0,0,6.4-3.47q2.6-3.47,2.6-9.75A21.35,21.35,0,0,0,578.1,30.9Q575.45,26.48,570.83,26.48Z"/><path class="cls-1" d="M612.22,22q5.12,0,7.68,2.69t2.56,9.21V50.19a3.77,3.77,0,0,0,.74,2.52,2.48,2.48,0,0,0,2,.87A5.15,5.15,0,0,0,628,52.5c.33.11.5.41.5.91a4.91,4.91,0,0,1-.5,2.48,20.44,20.44,0,0,1-3.3,2.07,8.61,8.61,0,0,1-4,1.07A6,6,0,0,1,617,57.63a6.77,6.77,0,0,1-2.4-3.06l-.62.54q-.54.46-1.49,1.12a24.47,24.47,0,0,1-2.15,1.32,13.18,13.18,0,0,1-2.81,1.12,12,12,0,0,1-3.26.45,9.86,9.86,0,0,1-6.73-2.27,7.85,7.85,0,0,1-2.6-6.24,7.61,7.61,0,0,1,.95-3.72A9.88,9.88,0,0,1,598.17,44a16.92,16.92,0,0,1,3.55-2.19,33.8,33.8,0,0,1,3.84-1.61q1.61-.54,4.13-1.28t3.51-1.07a1.3,1.3,0,0,0,.74-1.32V32a7.09,7.09,0,0,0-1.32-4.54,4.31,4.31,0,0,0-3.55-1.65,5,5,0,0,0-3.88,1.53,6.18,6.18,0,0,0-1.4,4.34,2.68,2.68,0,0,1-1.24,2.44,5.14,5.14,0,0,1-2.81.78q-3.06,0-4.3-2,0-4,5.41-7.43A20.72,20.72,0,0,1,612.22,22ZM608.5,53.74a6.4,6.4,0,0,0,3.84-1.16A3.27,3.27,0,0,0,614,49.94V41.52q-.58.25-2.44.83t-2.85,1a22.54,22.54,0,0,0-2.31,1.16,5,5,0,0,0-1.94,1.82,4.55,4.55,0,0,0-.62,2.31,5.09,5.09,0,0,0,1.32,3.88A4.75,4.75,0,0,0,608.5,53.74Z"/><path class="cls-1" d="M646.91,46.8a30.37,30.37,0,0,0,.66,7.44q.16.58,2.23,1.2a12.15,12.15,0,0,0,2.81.62c.22,0,.34.4.37,1.2a4.69,4.69,0,0,1-.12,1.61q-.58-.08-4.42-.33t-5.66-.25q-2.07,0-5.82.25t-4.34.33a2.42,2.42,0,0,1-.33-1.57q0-1.24.33-1.24a12,12,0,0,0,3-.62q2.06-.62,2.23-1.2a27,27,0,0,0,.58-6V34.74q0-3.88-1.32-5.29a4.59,4.59,0,0,0-1.9-1.24,8.68,8.68,0,0,0-2-.5c-.55-.05-.83-.14-.83-.25q0-2.4.5-2.48a63.43,63.43,0,0,0,6.69-1,64.79,64.79,0,0,0,6.53-1.49,4.78,4.78,0,0,0,.66-.17q.41,0,.66.58a1.52,1.52,0,0,1,.17.91,70.82,70.82,0,0,0-.66,7.1Zm-8.59-34.57a5,5,0,0,1-1.49-3.63A4.89,4.89,0,0,1,638.32,5a5.12,5.12,0,0,1,8.76,3.59,5,5,0,0,1-1.49,3.63,5.09,5.09,0,0,1-7.27,0Z"/><path class="cls-1" d="M681.2,22q4.54,0,6.77,2.73,0,7-4,7a4.91,4.91,0,0,1-3.22-1.65,5.17,5.17,0,0,0-3.55-1.65,4.43,4.43,0,0,0-4,2.6,11,11,0,0,0-1.45,5.41V46.8a34.58,34.58,0,0,0,.58,7.44q.16.58,2.19,1.2a11.67,11.67,0,0,0,2.77.62c.17,0,.26.4.29,1.2a8.62,8.62,0,0,1,0,1.61q-.66-.08-4.38-.33t-5.62-.25q-2,0-5.74.25t-4.42.33a2.42,2.42,0,0,1-.33-1.57q0-1.24.33-1.24a11.52,11.52,0,0,0,3-.62q2-.62,2.19-1.2a27,27,0,0,0,.58-6V34.74q0-3.88-1.32-5.29A4,4,0,0,0,660,28.21a9.41,9.41,0,0,0-2-.5c-.52-.05-.78-.14-.78-.25q0-2.4.41-2.48A117.19,117.19,0,0,0,671,22.51a5,5,0,0,1,.66-.17c.22,0,.41.19.58.58a2,2,0,0,1,.21,1q0,.37-.12,1.16t-.21,1.65a10.57,10.57,0,0,0-.12,1.12,15.17,15.17,0,0,1,4-4A9.05,9.05,0,0,1,681.2,22Z"/><path class="cls-1" d="M697.89,59.86a7.33,7.33,0,0,0-1.24-3.43,7.45,7.45,0,0,1-1.24-3.59,5,5,0,0,1,1.73-3.47,6.14,6.14,0,0,1,4.54-1.74,5.34,5.34,0,0,1,2.64.5,12.88,12.88,0,0,1,1.16,5.78,14.82,14.82,0,0,1-.66,4,23.73,23.73,0,0,1-3.55,7.64,37.06,37.06,0,0,1-7,6.73h-.08q-.41,0-1.16-.87a2.49,2.49,0,0,1-.74-1.45,11.94,11.94,0,0,1,1.4-1.32A15.14,15.14,0,0,0,696.48,65,9.9,9.9,0,0,0,697.89,59.86Z"/><path class="cls-1" d="M40.7,95.05A13,13,0,0,1,45.9,84.6a18.05,18.05,0,0,1,11.73-4.25,28.87,28.87,0,0,1,4,.25q1.74.25,4.83,1t4.25,1a73.7,73.7,0,0,1,1,12.72.9.9,0,0,1-1,.74q-2.23,0-2.4-.74a14.52,14.52,0,0,0-3.55-7.43,9.38,9.38,0,0,0-7.44-3.64,7.62,7.62,0,0,0-5.82,2.15,8.09,8.09,0,0,0-2,5.78,9.31,9.31,0,0,0,.29,2.35A5.82,5.82,0,0,0,51,96.79q.87,1.08,1.4,1.78a9.8,9.8,0,0,0,2.07,1.78q1.53,1.08,2.07,1.49T59,103.44a24.9,24.9,0,0,0,2.35,1.36,30.37,30.37,0,0,0,2.77,1.78q2.27,1.36,3.18,2t2.64,2.11a11.91,11.91,0,0,1,2.52,2.81,17,17,0,0,1,1.45,3.35,13.91,13.91,0,0,1,.66,4.34,13.41,13.41,0,0,1-5.33,10.91,19.11,19.11,0,0,1-12.35,4.3q-5,0-15.2-2.31a72.22,72.22,0,0,1-1.36-7.48,56,56,0,0,1-.62-5.91Q39.78,120,41,120q2.15,0,2.4.66a16.06,16.06,0,0,0,1.16,3.26,24,24,0,0,0,2.27,3.8,10.89,10.89,0,0,0,3.88,3.3,11.62,11.62,0,0,0,5.49,1.28A9.25,9.25,0,0,0,62.67,130q2.56-2.31,2.56-6.94a7.19,7.19,0,0,0-.54-2.73,9.54,9.54,0,0,0-1.24-2.23,12.09,12.09,0,0,0-2.07-2Q60,115,59.12,114.47t-2.68-1.61l-2.52-1.45a5.67,5.67,0,0,0-.91-.66q-2.4-1.49-3.64-2.31A39.85,39.85,0,0,1,46.19,106a16.34,16.34,0,0,1-2.93-3,15.62,15.62,0,0,1-1.78-3.47A12.43,12.43,0,0,1,40.7,95.05Z"/><path class="cls-1" d="M95.88,99a15.32,15.32,0,0,1,6.94,1.53,13.07,13.07,0,0,1,4.79,3.88,19.21,19.21,0,0,1,2.64,4.87,14.24,14.24,0,0,1,.91,4.83q0,1.82-.62,2.27a4.69,4.69,0,0,1-2.52.45H88.28q-.58,0-.58.5a16.06,16.06,0,0,0,1.07,5.78A11.36,11.36,0,0,0,92.45,128a9.72,9.72,0,0,0,6.24,2.07,22.66,22.66,0,0,0,2.4-.12,12.37,12.37,0,0,0,2.15-.41q1-.29,1.73-.54a7.09,7.09,0,0,0,1.53-.74l1.12-.7q.33-.21,1.65-1.12a1.36,1.36,0,0,1,.41.5,1.6,1.6,0,0,1,.25.83,2.54,2.54,0,0,1-.5,1.57,13.46,13.46,0,0,1-4.87,4.46A15.33,15.33,0,0,1,96.38,136,16.73,16.73,0,0,1,84,130.7a17.82,17.82,0,0,1-5.2-12.93q0-8.34,4.83-13.55A16,16,0,0,1,95.88,99Zm-.58,3.8A5.84,5.84,0,0,0,91.75,104a7.79,7.79,0,0,0-2.4,2.81,15.78,15.78,0,0,0-1.2,3.1,10.1,10.1,0,0,0-.37,2.44c0,.39.17.58.5.58h13.38q.74,0,.74-1.24a10.71,10.71,0,0,0-1.94-5.87A5.92,5.92,0,0,0,95.3,102.82Z"/><path class="cls-1" d="M142,99q10.66,0,10.66,16.94v7.85a34.58,34.58,0,0,0,.58,7.44q.16.58,2.27,1.2a12.65,12.65,0,0,0,2.85.62c.17,0,.26.4.29,1.2a4.68,4.68,0,0,1-.12,1.61q-.5-.08-4.34-.33t-5.74-.25q-2,0-5.49.25t-4.25.33a2.42,2.42,0,0,1-.33-1.57q0-1.24.33-1.24a9.82,9.82,0,0,0,2.77-.62q1.86-.62,2-1.2a23.73,23.73,0,0,0,.66-6v-7.85q0-6.86-1.86-9.58T136.36,105a7.65,7.65,0,0,0-4.63,1.45,4,4,0,0,0-2,3.1V123.8a34.58,34.58,0,0,0,.58,7.44q.16.58,2.19,1.2a11.88,11.88,0,0,0,2.69.62c.22,0,.34.4.37,1.2a4.69,4.69,0,0,1-.12,1.61q-.66-.08-4.34-.33t-5.58-.25q-2,0-5.74.25t-4.42.33a2.42,2.42,0,0,1-.33-1.57q0-1.24.33-1.24a11.52,11.52,0,0,0,3-.62q2-.62,2.19-1.2a27,27,0,0,0,.58-6V111.74q0-3.88-1.32-5.29a4,4,0,0,0-1.86-1.24,9.41,9.41,0,0,0-2-.5c-.52-.05-.78-.14-.78-.25q0-2.4.41-2.48a117.19,117.19,0,0,0,13.3-2.48.54.54,0,0,1,.21-.12.79.79,0,0,1,.25,0h.21c.22,0,.41.19.58.58a2.51,2.51,0,0,1,.25.91,28.15,28.15,0,0,0-.33,3,.65.65,0,0,0,.08.41,1.23,1.23,0,0,0,.41-.25,18.32,18.32,0,0,1,5.08-3.47A14.46,14.46,0,0,1,142,99Z"/><path class="cls-1" d="M181.8,98.85a14.2,14.2,0,0,1,6,1.16q.41,0,.41-1.32V90.92a28.8,28.8,0,0,0-.5-5.62q-.41-1.32-4.3-1.32h-.66q-.5,0-.5-1.32t.5-1.32q2.48-.25,4.83-.66t3.88-.83q1.53-.41,2.64-.83l1.69-.62a4.26,4.26,0,0,1,.66-.21h.17a.89.89,0,0,1,.66.46,1.5,1.5,0,0,1,.33.87,31.62,31.62,0,0,0-.83,7.77v36.35a30.28,30.28,0,0,0,.5,6.11,1.22,1.22,0,0,0,.83.91,5.06,5.06,0,0,0,1.57.41q.83.08,1.57.12l.83,0a1.73,1.73,0,0,1,.17,1q0,1.65-.5,1.65-1.16.08-2.93.33t-3.47.54l-3.22.58q-1.53.29-3.43.7-.5,0-.5-1.41v-1.4a.37.37,0,0,0-.12-.33c-.08-.05-.15-.05-.21,0a13.79,13.79,0,0,1-8.59,3.06A16,16,0,0,1,167.67,131a16.68,16.68,0,0,1-5-12.35,19.37,19.37,0,0,1,5.66-14A18.09,18.09,0,0,1,181.8,98.85Zm-.74,4a7.23,7.23,0,0,0-6.61,3.72q-2.23,3.72-2.23,10,0,7,2.56,10.95A8.11,8.11,0,0,0,182,131.4a6.86,6.86,0,0,0,4.54-1.45,4.58,4.58,0,0,0,1.73-3.68V108.93a5.74,5.74,0,0,0-.29-1.73,7.71,7.71,0,0,0-1-1.94,5.28,5.28,0,0,0-2.23-1.73A8.77,8.77,0,0,0,181.06,102.82Z"/><path class="cls-1" d="M239.13,92.74V123.8a24.28,24.28,0,0,0,.74,6.61q.41,1.08,5.62,1.07h3.06q6.44,0,9.83-1.74a9.48,9.48,0,0,0,3-2.89,17.4,17.4,0,0,0,2.56-5q.08-.5,1.16-.5a3.55,3.55,0,0,1,2.31.5q-.25.74-1.2,3.39l-1.45,4q-.5,1.36-1.07,3.35a22.79,22.79,0,0,0-.74,3.22q-3.31,0-13.67-.25t-14.58-.08l-11,.33a2.16,2.16,0,0,1-.25-1.32q0-1.4.25-1.4a13.59,13.59,0,0,0,3.14-.54q2.06-.54,2.4-1.28.58-1.73.58-7.52V92.49a25.3,25.3,0,0,0-.66-7q-.33-.66-2.31-1.28a11.09,11.09,0,0,0-3-.62q-.33,0-.33-1.24a3.33,3.33,0,0,1,.17-1.49q.41,0,4.58.25t6.4.25q.66,0,10.57-.5a4.25,4.25,0,0,1,.25,1.32c0,.94-.11,1.4-.33,1.4a13.46,13.46,0,0,0-3,.66q-2.23.66-2.4,1.24A30.67,30.67,0,0,0,239.13,92.74Z"/><path class="cls-1" d="M290.35,99a18.21,18.21,0,0,1,13.26,5.41,17.7,17.7,0,0,1,5.49,13.09A18.84,18.84,0,1,1,290.35,99Zm-1.07,3.88a6.65,6.65,0,0,0-6,3.76,17.77,17.77,0,0,0-2.15,9,24.09,24.09,0,0,0,2.69,11.65q2.68,5,7.48,5a6.73,6.73,0,0,0,6.07-3.8,17.57,17.57,0,0,0,2.19-8.92,28.36,28.36,0,0,0-1.07-8,14.57,14.57,0,0,0-3.47-6.16A7.66,7.66,0,0,0,289.28,102.9Z"/><path class="cls-1" d="M344.05,104.22Q343,102,338.27,102q-.25,0-.25-1.16a2.85,2.85,0,0,1,.25-1.49q1.16,0,4,.25t4.71.25q1.86,0,4.83-.25t4-.25a2.4,2.4,0,0,1,.25,1.32q0,1.32-.5,1.32a9.84,9.84,0,0,0-3.22.79,4.79,4.79,0,0,0-2.81,2.35l-13.8,29.16a5.6,5.6,0,0,1-1.07,1.4,2.09,2.09,0,0,1-1.4.74q-.83,0-1-.5-1.65-3.72-4.5-10.29t-4.92-11.11q-2.07-4.54-4.71-10.24-1-2.31-5.37-2.31-.33,0-.33-1.32a1.91,1.91,0,0,1,.33-1.32q.74,0,4.38.25t5.62.25q2,0,5.7-.25t4.3-.25a2.69,2.69,0,0,1,.21,1.49q0,1.16-.37,1.16a12.12,12.12,0,0,0-2.93.5q-1.86.5-1.86,1.32a1.54,1.54,0,0,0,.17.83l8.18,19,7.44-16.36Q344.63,105.13,344.05,104.22Z"/><path class="cls-1" d="M376.77,99a15.32,15.32,0,0,1,6.94,1.53,13.07,13.07,0,0,1,4.79,3.88,19.21,19.21,0,0,1,2.64,4.87,14.24,14.24,0,0,1,.91,4.83q0,1.82-.62,2.27a4.69,4.69,0,0,1-2.52.45H369.17q-.58,0-.58.5a16.06,16.06,0,0,0,1.07,5.78,11.36,11.36,0,0,0,3.68,4.87,9.72,9.72,0,0,0,6.24,2.07A22.66,22.66,0,0,0,382,130a12.37,12.37,0,0,0,2.15-.41q1-.29,1.73-.54a7.09,7.09,0,0,0,1.53-.74l1.12-.7q.33-.21,1.65-1.12a1.36,1.36,0,0,1,.41.5,1.6,1.6,0,0,1,.25.83,2.54,2.54,0,0,1-.5,1.57,13.46,13.46,0,0,1-4.87,4.46,15.33,15.33,0,0,1-8.18,2.23,16.73,16.73,0,0,1-12.39-5.33,17.82,17.82,0,0,1-5.2-12.93q0-8.34,4.83-13.55A16,16,0,0,1,376.77,99Zm-.58,3.8a5.84,5.84,0,0,0-3.55,1.16,7.79,7.79,0,0,0-2.4,2.81,15.78,15.78,0,0,0-1.2,3.1,10.1,10.1,0,0,0-.37,2.44c0,.39.17.58.5.58h13.38q.74,0,.74-1.24a10.71,10.71,0,0,0-1.94-5.87A5.92,5.92,0,0,0,376.19,102.82Z"/><path class="cls-2" d="M7,18.12H9.91v1.57H2.28V18.12H5.13V8.91L2.85,10.3,2,8.88,5.67,6.63H7Z"/><path class="cls-2" d="M20,8.14a7.49,7.49,0,0,1,1.31,4.73,10.18,10.18,0,0,1-.62,3.75A5.18,5.18,0,0,1,18.9,19a4.69,4.69,0,0,1-2.79.82,6.29,6.29,0,0,1-2.23-.41A5.68,5.68,0,0,1,12,18.27l.67-1.41a5.53,5.53,0,0,0,3.41,1.43,2.75,2.75,0,0,0,2.46-1.4,7.54,7.54,0,0,0,.87-4v0a3.16,3.16,0,0,1-1.32,1.49,4,4,0,0,1-2.07.55,4.14,4.14,0,0,1-2.09-.53,3.66,3.66,0,0,1-1.44-1.47A4.5,4.5,0,0,1,12,10.75a4.35,4.35,0,0,1,.56-2.2A4,4,0,0,1,14.05,7a4.44,4.44,0,0,1,2.21-.55A4.47,4.47,0,0,1,20,8.14Zm-1.74,4.48A2.59,2.59,0,0,0,19,10.71a2.63,2.63,0,0,0-.72-1.94A2.56,2.56,0,0,0,16.36,8a2.42,2.42,0,0,0-1.84.73,2.69,2.69,0,0,0-.69,1.94,2.67,2.67,0,0,0,.69,1.92,2.42,2.42,0,0,0,1.84.73A2.57,2.57,0,0,0,18.26,12.63Z"/></svg>