<svg id="Layer_1" data-name="Layer 1" xmlns="http://www.w3.org/2000/svg" viewBox="0 0 892.59 156.62"><defs><style>.cls-1{fill:#1414ef;}</style></defs><title>title</title><path class="cls-1" d="M52.26,4.34q.41,0,8.1-.5.74,2.31,3.39,8.55t6.49,15.2q3.84,9,6.15,14.75c0,.11.08.16.25.16a.22.22,0,0,0,.25-.25q7.27-17.43,11.57-28.67l3-9.58q2.48.25,6.77.25,3.22,0,9.83-.41a2.4,2.4,0,0,1,.25,1.32q0,1.4-.33,1.4h-.17a6.72,6.72,0,0,0-4,1.32q-1.24.91-1.07,4.46.33,7.35,1.16,34.12a21.83,21.83,0,0,0,1.32,7.6q.33.74,2.31,1.36a11.05,11.05,0,0,0,2.81.62c.22,0,.33.5.33,1.49a4,4,0,0,1-.17,1.24l-10.16-.5q-1.65,0-3.47.08l-4,.21-3.51.21a1.76,1.76,0,0,1-.33-1.24q0-1.49.33-1.49a9.76,9.76,0,0,0,2.64-.54,5.17,5.17,0,0,0,2.31-1.2,4.63,4.63,0,0,0,.83-2.89V46.8l-.83-25.12q-.33-5.12-1-5.12c-.17,0-.3.16-.41.5L77,55.56q-1.41,3.14-3.14,3.14a2.75,2.75,0,0,1-.83-.17L54.57,14.09Q54,34.66,53.25,50.93a9.12,9.12,0,0,0,.25,2.56q.41.91,3.3,1.73a17.77,17.77,0,0,0,3.88.83q.33,0,.33,1.49a4,4,0,0,1-.17,1.24q-9.91-.5-10.41-.5-2.23,0-5.91.25t-4.5.25a1.91,1.91,0,0,1-.33-1.32q0-1.4.33-1.4a16.47,16.47,0,0,0,4.13-.83q2.81-.82,3.22-2.15a15.37,15.37,0,0,0,.91-5.54q.16-6.28.45-14.83t.5-14.58q.21-6,.21-7.52A7.91,7.91,0,0,0,49.2,8.3Q49,7.65,46.44,7.07a18.74,18.74,0,0,0-3.59-.58c-.22,0-.33-.47-.33-1.4a1.76,1.76,0,0,1,.33-1.24l4.25.29Q50.11,4.34,52.26,4.34Z"/><path class="cls-1" d="M133.88,22a18.21,18.21,0,0,1,13.26,5.41,17.7,17.7,0,0,1,5.49,13.09,18.75,18.75,0,0,1-32,13.14,17.9,17.9,0,0,1-5.45-13.14,17.8,17.8,0,0,1,5.41-13.13A18.1,18.1,0,0,1,133.88,22Zm-1.07,3.88a6.65,6.65,0,0,0-6,3.76,17.77,17.77,0,0,0-2.15,9,24.07,24.07,0,0,0,2.69,11.65q2.68,5,7.48,5a6.73,6.73,0,0,0,6.07-3.8,17.57,17.57,0,0,0,2.19-8.92,28.35,28.35,0,0,0-1.07-8,14.57,14.57,0,0,0-3.47-6.16A7.66,7.66,0,0,0,132.81,25.9Z"/><path class="cls-1" d="M161.89,27.8h-5q-.58,0-.58-2.15a2.07,2.07,0,0,1,.08-.74,23.11,23.11,0,0,0,6.36-4.38q1.07-1.07,2.35-2.44t3-3.51a5.88,5.88,0,0,1,1.57.21c.5.14.74.29.74.46v8.1l6,0,4.09,0c.44,0,.66.25.66.74a8,8,0,0,1-.83,3.63H170.4V47.71a7.84,7.84,0,0,0,1.4,5,4.72,4.72,0,0,0,3.88,1.74,7.78,7.78,0,0,0,1.73-.21,8.67,8.67,0,0,0,1.49-.46q.58-.25,1.07-.5a2.61,2.61,0,0,1,.58-.25q.33-.08.74.74c.28.55.38.91.33,1.07q-.5,1.16-3.51,2.69a13,13,0,0,1-5.91,1.53,10.42,10.42,0,0,1-7.31-2.77q-3-2.77-3-8.55Z"/><path class="cls-1" d="M213,22q10.57,0,10.57,16.28V46.8a30.35,30.35,0,0,0,.66,7.44q.08.58,2.19,1.2a12.59,12.59,0,0,0,2.85.62q.25,0,.29,1.2a8.62,8.62,0,0,1,0,1.61q-.58-.08-4.42-.33t-5.66-.25q-2.07,0-5.58.25t-4.34.33a3.08,3.08,0,0,1-.25-1.57q0-1.24.25-1.24a9.83,9.83,0,0,0,2.85-.62q1.86-.62,2.11-1.2a31.29,31.29,0,0,0,.5-6v-8.1q0-6.86-1.86-9.46T207.24,28a7.91,7.91,0,0,0-4.54,1.4,3.9,3.9,0,0,0-2.07,3.14V46.8a30.35,30.35,0,0,0,.66,7.44q.16.58,2.19,1.2a11.62,11.62,0,0,0,2.77.62q.25,0,.29,1.2a4.68,4.68,0,0,1-.12,1.61q-.66-.08-4.34-.33t-5.58-.25q-2,0-5.74.25t-4.42.33a2.42,2.42,0,0,1-.33-1.57q0-1.24.33-1.24a11.48,11.48,0,0,0,3-.62q2-.62,2.19-1.2a26.56,26.56,0,0,0,.58-5.95V13.92a32.62,32.62,0,0,0-.41-5.62Q191.3,7,187.42,7h-.74c-.33,0-.5-.44-.5-1.32s.17-1.32.5-1.32q2.56-.25,4.87-.66t3.84-.83Q196.92,2.44,198,2t2.35-.83h.17a.89.89,0,0,1,.66.46,2.27,2.27,0,0,1,.41.87,26.63,26.63,0,0,0-1,7.77V27c0,.33.11.5.33.5.05,0,.17-.08.33-.25a15.75,15.75,0,0,1,5.08-3.59A15.23,15.23,0,0,1,213,22Z"/><path class="cls-1" d="M250.7,22a15.33,15.33,0,0,1,6.94,1.53,13.07,13.07,0,0,1,4.79,3.88,19.25,19.25,0,0,1,2.64,4.88,14.24,14.24,0,0,1,.91,4.83q0,1.82-.62,2.27a4.68,4.68,0,0,1-2.52.46H243.1c-.39,0-.58.16-.58.5a16,16,0,0,0,1.07,5.78A11.35,11.35,0,0,0,247.27,51a9.73,9.73,0,0,0,6.24,2.07,22.67,22.67,0,0,0,2.4-.12,12.28,12.28,0,0,0,2.15-.41q1-.29,1.74-.54a7.16,7.16,0,0,0,1.53-.74l1.12-.7q.33-.21,1.65-1.12a1.37,1.37,0,0,1,.41.5,1.6,1.6,0,0,1,.25.83,2.54,2.54,0,0,1-.5,1.57,13.47,13.47,0,0,1-4.87,4.46A15.34,15.34,0,0,1,251.19,59,16.73,16.73,0,0,1,238.8,53.7a17.82,17.82,0,0,1-5.2-12.93q0-8.34,4.83-13.55A16,16,0,0,1,250.7,22Zm-.58,3.8A5.85,5.85,0,0,0,246.57,27a7.8,7.8,0,0,0-2.4,2.81,15.79,15.79,0,0,0-1.2,3.1,10.09,10.09,0,0,0-.37,2.44q0,.58.5.58h13.38q.74,0,.74-1.24a10.7,10.7,0,0,0-1.94-5.87A5.92,5.92,0,0,0,250.12,25.82Z"/><path class="cls-1" d="M294,22q4.54,0,6.77,2.73,0,7-4,7a4.92,4.92,0,0,1-3.22-1.65A5.17,5.17,0,0,0,290,28.46a4.43,4.43,0,0,0-4,2.6,11,11,0,0,0-1.45,5.41V46.8a34.57,34.57,0,0,0,.58,7.44q.16.58,2.19,1.2a11.62,11.62,0,0,0,2.77.62c.17,0,.26.4.29,1.2a8.58,8.58,0,0,1,0,1.61q-.66-.08-4.38-.33t-5.62-.25q-2,0-5.74.25t-4.42.33a2.42,2.42,0,0,1-.33-1.57q0-1.24.33-1.24a11.48,11.48,0,0,0,3-.62q2-.62,2.19-1.2a27,27,0,0,0,.58-6V34.74q0-3.88-1.32-5.29a4,4,0,0,0-1.86-1.24,9.35,9.35,0,0,0-2-.5c-.52-.05-.78-.14-.78-.25q0-2.39.41-2.48a116.74,116.74,0,0,0,13.3-2.48,5,5,0,0,1,.66-.16c.22,0,.41.19.58.58a2,2,0,0,1,.21.95c0,.25-.07.63-.12,1.16s-.12,1.07-.21,1.65a10.53,10.53,0,0,0-.12,1.12,15.17,15.17,0,0,1,4-4A9.05,9.05,0,0,1,294,22Z"/><path class="cls-1" d="M319.68,46.64a33.9,33.9,0,0,0,.58,7.44q.16.58,2,1.28a9,9,0,0,0,2.52.7c.17,0,.26.39.29,1.16a4.5,4.5,0,0,1-.12,1.57l-3.1-.21-3.51-.21q-1.57-.08-3-.08-1.57,0-3.14.08l-3.47.21-3.14.21a2.33,2.33,0,0,1-.33-1.53q0-1.2.33-1.2a8.82,8.82,0,0,0,2.77-.7q1.86-.7,2-1.28a27.38,27.38,0,0,0,.66-6.11V13.59a28.75,28.75,0,0,0-.5-5.62q-.41-1.32-4.13-1.32h-.83q-.5,0-.5-1c0-.88.17-1.32.5-1.32q2.56-.25,4.87-.66t3.84-.83c1-.27,1.9-.54,2.64-.78s1.33-.46,1.78-.62l.58-.25h.17c.22,0,.45.17.7.5a2.55,2.55,0,0,1,.45.83,26.11,26.11,0,0,0-1,7.77Z"/><path class="cls-1" d="M338.52,22.84q1.82,0,5.2-.25t4.21-.25a5.57,5.57,0,0,1,.17,1.49c0,.77-.11,1.16-.33,1.16a9,9,0,0,0-2.6.62q-1.78.62-1.86,1.36v.5q.16,1.32,7.68,18.84.66-1.49,3.22-8.14t3-7.64a7.76,7.76,0,0,0,.5-2.56,2.6,2.6,0,0,0-1.32-2,6.8,6.8,0,0,0-4-1q-.33,0-.33-1.24a2.08,2.08,0,0,1,.33-1.4q1,0,4,.25t5,.25q1.73,0,4.25-.25t3.68-.25a2.36,2.36,0,0,1,.33,1.32c0,.88-.11,1.32-.33,1.32a10.5,10.5,0,0,0-3.35.83,4.56,4.56,0,0,0-2.85,2.48L348.1,64.81Q343,76.87,335.79,76.87a4.47,4.47,0,0,1-3.3-1.16,3.86,3.86,0,0,1,.41-5.87q8.59,0,11.32-6.77,2-5,2.23-5.62L334.39,29.37a10.7,10.7,0,0,0-1-1.9A5,5,0,0,0,331,25.61a7.83,7.83,0,0,0-2.68-.62q-.33,0-.33-1.16c0-.88.08-1.37.25-1.49q.5,0,4.42.25T338.52,22.84Z"/><path class="cls-1" d="M405.93,15.74V46.8a24.26,24.26,0,0,0,.74,6.61q.41,1.08,5.62,1.07h3.06q6.44,0,9.83-1.74a9.49,9.49,0,0,0,3-2.89,17.41,17.41,0,0,0,2.56-5q.08-.5,1.16-.5a3.55,3.55,0,0,1,2.31.5q-.25.74-1.2,3.39l-1.45,4q-.5,1.37-1.07,3.35a22.71,22.71,0,0,0-.74,3.22q-3.3,0-13.67-.25t-14.58-.08l-11,.33a2.16,2.16,0,0,1-.25-1.32q0-1.4.25-1.4a13.6,13.6,0,0,0,3.14-.54q2.06-.54,2.4-1.28.58-1.73.58-7.52V15.49a25.28,25.28,0,0,0-.66-7q-.33-.66-2.31-1.28a11,11,0,0,0-3-.62q-.33,0-.33-1.24a3.32,3.32,0,0,1,.17-1.49q.41,0,4.58.25t6.4.25q.66,0,10.57-.5a4.24,4.24,0,0,1,.25,1.32q0,1.4-.33,1.4a13.49,13.49,0,0,0-3,.66q-2.23.66-2.4,1.24A30.68,30.68,0,0,0,405.93,15.74Z"/><path class="cls-1" d="M457.15,22a18.21,18.21,0,0,1,13.26,5.41,17.7,17.7,0,0,1,5.49,13.09,18.71,18.71,0,0,1-37.42,0,17.8,17.8,0,0,1,5.41-13.13A18.1,18.1,0,0,1,457.15,22Zm-1.07,3.88a6.65,6.65,0,0,0-6,3.76,17.77,17.77,0,0,0-2.15,9,24.07,24.07,0,0,0,2.69,11.65q2.68,5,7.48,5a6.73,6.73,0,0,0,6.07-3.8,17.57,17.57,0,0,0,2.19-8.92,28.35,28.35,0,0,0-1.07-8,14.57,14.57,0,0,0-3.47-6.16A7.66,7.66,0,0,0,456.08,25.9Z"/><path class="cls-1" d="M510.85,27.22Q509.77,25,505.07,25q-.25,0-.25-1.16a2.84,2.84,0,0,1,.25-1.49q1.16,0,4,.25t4.71.25q1.86,0,4.83-.25t4-.25a2.4,2.4,0,0,1,.25,1.32c0,.88-.17,1.32-.5,1.32a9.84,9.84,0,0,0-3.22.79,4.79,4.79,0,0,0-2.81,2.36l-13.8,29.16a5.61,5.61,0,0,1-1.07,1.4,2.08,2.08,0,0,1-1.4.74q-.83,0-1-.5-1.65-3.72-4.5-10.29T489.7,37.55Q487.63,33,485,27.31,484,25,479.62,25c-.22,0-.33-.44-.33-1.32a1.91,1.91,0,0,1,.33-1.32q.74,0,4.38.25t5.62.25q2,0,5.7-.25t4.3-.25a2.68,2.68,0,0,1,.21,1.49q0,1.16-.37,1.16a12.17,12.17,0,0,0-2.93.5q-1.86.5-1.86,1.32a1.54,1.54,0,0,0,.17.83l8.18,19,7.44-16.36Q511.43,28.13,510.85,27.22Z"/><path class="cls-1" d="M543.56,22a15.33,15.33,0,0,1,6.94,1.53,13.07,13.07,0,0,1,4.79,3.88,19.22,19.22,0,0,1,2.64,4.88,14.24,14.24,0,0,1,.91,4.83q0,1.82-.62,2.27a4.68,4.68,0,0,1-2.52.46H536c-.39,0-.58.16-.58.5a16.07,16.07,0,0,0,1.07,5.78A11.35,11.35,0,0,0,540.13,51a9.72,9.72,0,0,0,6.24,2.07,22.64,22.64,0,0,0,2.4-.12,12.29,12.29,0,0,0,2.15-.41q1-.29,1.73-.54a7.13,7.13,0,0,0,1.53-.74l1.12-.7q.33-.21,1.65-1.12a1.36,1.36,0,0,1,.41.5,1.6,1.6,0,0,1,.25.83,2.53,2.53,0,0,1-.5,1.57,13.46,13.46,0,0,1-4.87,4.46A15.33,15.33,0,0,1,544.06,59a16.73,16.73,0,0,1-12.39-5.33,17.82,17.82,0,0,1-5.21-12.93q0-8.34,4.83-13.55A16,16,0,0,1,543.56,22Zm-.58,3.8A5.84,5.84,0,0,0,539.43,27a7.8,7.8,0,0,0-2.4,2.81,15.76,15.76,0,0,0-1.2,3.1,10.07,10.07,0,0,0-.37,2.44q0,.58.5.58h13.38q.74,0,.74-1.24a10.71,10.71,0,0,0-1.94-5.87A5.92,5.92,0,0,0,543,25.82Z"/><path class="cls-1" d="M591.48,58.29q-2.48,0-5.29.13t-4.38.29l-1.65.08a2.15,2.15,0,0,1-.25-1.32q0-1.4.25-1.4a13.59,13.59,0,0,0,3.14-.54q2.06-.54,2.4-1.28.58-1.73.58-7.52V15.49a26.17,26.17,0,0,0-.58-6.78q-.25-.91-2.31-1.49a13,13,0,0,0-3.3-.58q-.33,0-.33-1.24a2.25,2.25,0,0,1,.33-1.49q5.37.33,10.91.33,3.88.08,13.09-.25t13.59-.33q.33,2.48,1.32,6.9t1.07,4.83a2.56,2.56,0,0,1-1.73.41c-.61,0-1-.19-1.16-.58q-2.73-7.35-10.57-7.35h-4.3Q596.19,7.89,596,9a37.17,37.17,0,0,0-.41,6.69v13q0,.5,3.63.5h4.54q4.79,0,5.7-.41t1.4-2.89q.25-1.24.5-2.06.08-.58,1.32-.58a2.24,2.24,0,0,1,1.57.41V39.2a2.41,2.41,0,0,1-1.57.33q-1.07,0-1.32-.66a26,26,0,0,0-1-3.3,4.83,4.83,0,0,0-.58-1.16l-.7-.5q-1.07-.66-7.6-.66-5.87,0-5.87.66v13a20.14,20.14,0,0,0,.91,6.86q.33.83,3,1.57a16.65,16.65,0,0,0,3.55.74q.41,0,.41,1.4a2.4,2.4,0,0,1-.25,1.32Q593.3,58.29,591.48,58.29Z"/><path class="cls-1" d="M643,22a18.21,18.21,0,0,1,13.26,5.41,17.7,17.7,0,0,1,5.49,13.09,18.71,18.71,0,0,1-37.42,0,17.79,17.79,0,0,1,5.41-13.13A18.1,18.1,0,0,1,643,22ZM642,25.9a6.65,6.65,0,0,0-6,3.76,17.77,17.77,0,0,0-2.15,9,24.08,24.08,0,0,0,2.69,11.65q2.68,5,7.48,5a6.73,6.73,0,0,0,6.07-3.8,17.58,17.58,0,0,0,2.19-8.92,28.37,28.37,0,0,0-1.07-8,14.57,14.57,0,0,0-3.47-6.16A7.66,7.66,0,0,0,642,25.9Z"/><path class="cls-1" d="M690.45,22q4.54,0,6.77,2.73,0,7-4,7A4.92,4.92,0,0,1,690,30.12a5.17,5.17,0,0,0-3.55-1.65,4.43,4.43,0,0,0-4,2.6A11,11,0,0,0,681,36.48V46.8a34.57,34.57,0,0,0,.58,7.44q.16.58,2.19,1.2a11.62,11.62,0,0,0,2.77.62c.17,0,.26.4.29,1.2a8.58,8.58,0,0,1,0,1.61q-.66-.08-4.38-.33t-5.62-.25q-2,0-5.74.25t-4.42.33a2.42,2.42,0,0,1-.33-1.57q0-1.24.33-1.24a11.48,11.48,0,0,0,3-.62q2-.62,2.19-1.2a27,27,0,0,0,.58-6V34.74q0-3.88-1.32-5.29a4,4,0,0,0-1.86-1.24,9.35,9.35,0,0,0-2-.5c-.52-.05-.78-.14-.78-.25q0-2.39.41-2.48a116.74,116.74,0,0,0,13.3-2.48,5,5,0,0,1,.66-.16c.22,0,.41.19.58.58a2,2,0,0,1,.21.95c0,.25-.07.63-.12,1.16s-.12,1.07-.21,1.65a10.53,10.53,0,0,0-.12,1.12,15.17,15.17,0,0,1,4-4A9.05,9.05,0,0,1,690.45,22Z"/><path class="cls-1" d="M84.73,92.33a20.13,20.13,0,0,0-.83-6.61q-.41-1-2.77-1.57a16.59,16.59,0,0,0-3.68-.58c-.22,0-.34-.4-.37-1.2a2.79,2.79,0,0,1,.21-1.53q8.84.58,10.41.58,2.15,0,5.54-.29t4.21-.29a3.44,3.44,0,0,1,.17,1.32q0,1.4-.33,1.4a15.78,15.78,0,0,0-3.55.62,5.36,5.36,0,0,0-3.14,1.69,19.29,19.29,0,0,0-.91,6.86v31.31q0,3,.33,11.57a3,3,0,0,1-1.82.33q-1.32,0-2.64-1.9L52.67,90.43v33.46a23,23,0,0,0,.66,6.78q.41,1,3.06,1.69a17.06,17.06,0,0,0,3.72.7c.17,0,.26.39.29,1.16a4.51,4.51,0,0,1-.12,1.57q-9.91-.5-10.33-.5-2.23,0-5.49.21l-4.34.29a2.07,2.07,0,0,1-.33-1.4q0-1.32.33-1.32a15.6,15.6,0,0,0,3.76-.62,4.5,4.5,0,0,0,3-1.86q.83-1.73.83-6.94V91.25q0-4.46-.91-6-.33-.58-2.85-1.07a21.55,21.55,0,0,0-3.68-.5q-.33,0-.37-1.24a2.31,2.31,0,0,1,.29-1.57q8.67.41,9.83.41,2.73,0,7.44-.41a85.6,85.6,0,0,0,5.74,8.8Q67.38,95.47,74.65,105t9.91,13.18a23.66,23.66,0,0,0,.17-3.39Z"/><path class="cls-1" d="M120.66,99a18.21,18.21,0,0,1,13.26,5.41,17.7,17.7,0,0,1,5.49,13.09,18.75,18.75,0,0,1-32,13.14,18.6,18.6,0,0,1,0-26.27A18.1,18.1,0,0,1,120.66,99Zm-1.07,3.88a6.65,6.65,0,0,0-6,3.76,17.77,17.77,0,0,0-2.15,9,24.08,24.08,0,0,0,2.69,11.65q2.68,5,7.48,5a6.73,6.73,0,0,0,6.07-3.8,17.57,17.57,0,0,0,2.19-8.92,28.35,28.35,0,0,0-1.07-8,14.56,14.56,0,0,0-3.47-6.16A7.66,7.66,0,0,0,119.59,102.9Z"/><path class="cls-1" d="M168.08,99q4.54,0,6.77,2.73,0,7-4,7a4.92,4.92,0,0,1-3.22-1.65,5.17,5.17,0,0,0-3.55-1.65,4.43,4.43,0,0,0-4,2.6,11,11,0,0,0-1.45,5.41V123.8a34.61,34.61,0,0,0,.58,7.44q.16.58,2.19,1.2a11.62,11.62,0,0,0,2.77.62q.25,0,.29,1.2a8.64,8.64,0,0,1,0,1.61q-.66-.08-4.38-.33t-5.62-.25q-2,0-5.74.25t-4.42.33a2.42,2.42,0,0,1-.33-1.57q0-1.24.33-1.24a11.48,11.48,0,0,0,3-.62q2-.62,2.19-1.2a27,27,0,0,0,.58-6V111.74q0-3.88-1.32-5.29a4,4,0,0,0-1.86-1.24,9.37,9.37,0,0,0-2-.5c-.52-.05-.79-.14-.79-.25q0-2.39.41-2.48a116.74,116.74,0,0,0,13.3-2.48,4.92,4.92,0,0,1,.66-.16c.22,0,.41.19.58.58a2,2,0,0,1,.21.95c0,.25-.07.63-.12,1.16s-.12,1.07-.21,1.65a10.67,10.67,0,0,0-.12,1.12,15.19,15.19,0,0,1,4-4A9.05,9.05,0,0,1,168.08,99Z"/><path class="cls-1" d="M184.19,104.8h-5q-.58,0-.58-2.15a2.07,2.07,0,0,1,.08-.74A23.11,23.11,0,0,0,185,97.53q1.07-1.07,2.35-2.44t3-3.51a5.88,5.88,0,0,1,1.57.21c.5.14.74.29.74.46v8.1l6,0,4.09,0c.44,0,.66.25.66.74a8,8,0,0,1-.83,3.63H192.7v19.91a7.84,7.84,0,0,0,1.4,5,4.72,4.72,0,0,0,3.88,1.74,7.78,7.78,0,0,0,1.73-.21,8.67,8.67,0,0,0,1.49-.46q.58-.25,1.07-.5a2.61,2.61,0,0,1,.58-.25q.33-.08.74.74c.28.55.38.91.33,1.07q-.5,1.16-3.51,2.69a13,13,0,0,1-5.91,1.53,10.42,10.42,0,0,1-7.31-2.77q-3-2.77-3-8.55Z"/><path class="cls-1" d="M235.33,99q10.57,0,10.57,16.28v8.51a30.35,30.35,0,0,0,.66,7.44q.08.58,2.19,1.2a12.59,12.59,0,0,0,2.85.62q.25,0,.29,1.2a8.62,8.62,0,0,1,0,1.61q-.58-.08-4.42-.33t-5.66-.25q-2.07,0-5.58.25t-4.34.33a3.08,3.08,0,0,1-.25-1.57q0-1.24.25-1.24a9.83,9.83,0,0,0,2.85-.62q1.86-.62,2.11-1.2a31.29,31.29,0,0,0,.5-6v-8.1q0-6.86-1.86-9.46t-5.91-2.6a7.91,7.91,0,0,0-4.54,1.4,3.9,3.9,0,0,0-2.07,3.14V123.8a30.35,30.35,0,0,0,.66,7.44q.16.58,2.19,1.2a11.62,11.62,0,0,0,2.77.62q.25,0,.29,1.2a4.68,4.68,0,0,1-.12,1.61q-.66-.08-4.34-.33t-5.58-.25q-2,0-5.74.25t-4.42.33a2.42,2.42,0,0,1-.33-1.57q0-1.24.33-1.24a11.48,11.48,0,0,0,3-.62q2-.62,2.19-1.2a26.56,26.56,0,0,0,.58-5.95V90.92A32.62,32.62,0,0,0,214,85.3Q213.6,84,209.72,84H209c-.33,0-.5-.44-.5-1.32s.17-1.32.5-1.32q2.56-.25,4.87-.66t3.84-.83q1.53-.41,2.64-.83t2.35-.83h.17a.89.89,0,0,1,.66.46,2.27,2.27,0,0,1,.41.87,26.63,26.63,0,0,0-1,7.77V104c0,.33.11.5.33.5.05,0,.17-.08.33-.25a15.75,15.75,0,0,1,5.08-3.59A15.23,15.23,0,0,1,235.33,99Z"/><path class="cls-1" d="M289,92.74V106a.5.5,0,0,0,.12.37,1.1,1.1,0,0,0,.29.21h.74q1.73,0,4.3-2.81,6.61-7.1,14.54-16.52a4.51,4.51,0,0,0,1.32-2.48q0-.82-1.82-1.16a17.75,17.75,0,0,0-3.06-.33q-.33,0-.41-1a4.32,4.32,0,0,1,.08-1.53q9.17.5,10,.5,1.57,0,3.1-.08c1-.05,2.12-.12,3.3-.21l2.93-.21a3.48,3.48,0,0,1,.12,1.4c0,.72-.12,1.07-.29,1.07q-5.78.66-8.34,3.47L300.6,104.31a1.61,1.61,0,0,0,.17,2.31l19.33,23a8.4,8.4,0,0,0,4,2.64,13.42,13.42,0,0,0,3.68.83c.28,0,.41.53.41,1.57a2.55,2.55,0,0,1-.25,1.16q-9.91-.5-11.32-.5-2.65,0-6.32.21l-5.16.29a2.33,2.33,0,0,1-.33-1.53q0-1.2.33-1.2a6.37,6.37,0,0,0,2.31-.58q1.4-.58,1.4-1.24a15.83,15.83,0,0,0-2.31-3.47q-2.31-3.06-6.36-7.81t-8-8.88a3,3,0,0,0-1.82-.33q-1.32,0-1.32,1V124a29.81,29.81,0,0,0,.74,7.27q.16.58,2.27,1.2a12.59,12.59,0,0,0,2.85.62c.22,0,.33.53.33,1.57a3.66,3.66,0,0,1-.17,1.16q-9.91-.5-10.49-.5-1.65,0-3.47.08l-4,.21-3.51.21a1.61,1.61,0,0,1-.33-1.16c0-1,.11-1.57.33-1.57a13.14,13.14,0,0,0,3.1-.58q2.11-.58,2.35-1.24a28.94,28.94,0,0,0,.66-6.94V92.41a24.88,24.88,0,0,0-.66-6.94q-.33-.66-2.31-1.28a11.05,11.05,0,0,0-3-.62q-.33,0-.33-1.24a3.33,3.33,0,0,1,.17-1.49q.41,0,4.58.25t6.4.25q.66,0,10.57-.5a4.26,4.26,0,0,1,.25,1.32q0,1.4-.33,1.4a13.5,13.5,0,0,0-3,.66q-2.23.66-2.4,1.24A30.65,30.65,0,0,0,289,92.74Z"/><path class="cls-1" d="M351.65,99a18.21,18.21,0,0,1,13.26,5.41,17.7,17.7,0,0,1,5.49,13.09,18.71,18.71,0,0,1-37.42,0,17.8,17.8,0,0,1,5.41-13.13A18.1,18.1,0,0,1,351.65,99Zm-1.07,3.88a6.65,6.65,0,0,0-6,3.76,17.77,17.77,0,0,0-2.15,9,24.09,24.09,0,0,0,2.68,11.65q2.68,5,7.48,5a6.73,6.73,0,0,0,6.07-3.8,17.58,17.58,0,0,0,2.19-8.92,28.37,28.37,0,0,0-1.07-8,14.57,14.57,0,0,0-3.47-6.16A7.66,7.66,0,0,0,350.58,102.9Z"/><path class="cls-1" d="M399.07,99q4.54,0,6.77,2.73,0,7-4,7a4.92,4.92,0,0,1-3.22-1.65,5.17,5.17,0,0,0-3.55-1.65,4.43,4.43,0,0,0-4,2.6,11,11,0,0,0-1.45,5.41V123.8a34.61,34.61,0,0,0,.58,7.44q.16.58,2.19,1.2a11.61,11.61,0,0,0,2.77.62q.25,0,.29,1.2a8.62,8.62,0,0,1,0,1.61q-.66-.08-4.38-.33t-5.62-.25q-2,0-5.74.25t-4.42.33a2.42,2.42,0,0,1-.33-1.57q0-1.24.33-1.24a11.48,11.48,0,0,0,3-.62q2-.62,2.19-1.2a27,27,0,0,0,.58-6V111.74q0-3.88-1.32-5.29a4,4,0,0,0-1.86-1.24,9.36,9.36,0,0,0-2-.5c-.52-.05-.78-.14-.78-.25q0-2.39.41-2.48a116.76,116.76,0,0,0,13.3-2.48,5,5,0,0,1,.66-.16c.22,0,.41.19.58.58a2,2,0,0,1,.21.95c0,.25-.07.63-.12,1.16s-.12,1.07-.21,1.65a10.53,10.53,0,0,0-.12,1.12,15.18,15.18,0,0,1,4-4A9.05,9.05,0,0,1,399.07,99Z"/><path class="cls-1" d="M427.33,99a15.33,15.33,0,0,1,6.94,1.53,13.07,13.07,0,0,1,4.79,3.88,19.22,19.22,0,0,1,2.64,4.88,14.24,14.24,0,0,1,.91,4.83q0,1.82-.62,2.27a4.68,4.68,0,0,1-2.52.46H419.73c-.39,0-.58.16-.58.5a16.07,16.07,0,0,0,1.07,5.78A11.35,11.35,0,0,0,423.9,128a9.72,9.72,0,0,0,6.24,2.07,22.64,22.64,0,0,0,2.4-.12,12.29,12.29,0,0,0,2.15-.41q1-.29,1.73-.54a7.13,7.13,0,0,0,1.53-.74l1.12-.7q.33-.21,1.65-1.12a1.36,1.36,0,0,1,.41.5,1.6,1.6,0,0,1,.25.83,2.53,2.53,0,0,1-.5,1.57A13.46,13.46,0,0,1,436,133.8a15.33,15.33,0,0,1-8.18,2.23,16.73,16.73,0,0,1-12.39-5.33,17.82,17.82,0,0,1-5.21-12.93q0-8.34,4.83-13.55A16,16,0,0,1,427.33,99Zm-.58,3.8A5.84,5.84,0,0,0,423.2,104a7.8,7.8,0,0,0-2.4,2.81,15.76,15.76,0,0,0-1.2,3.1,10.07,10.07,0,0,0-.37,2.44q0,.58.5.58h13.38q.74,0,.74-1.24a10.71,10.71,0,0,0-1.94-5.87A5.92,5.92,0,0,0,426.75,102.82Z"/><path class="cls-1" d="M463.76,99q5.12,0,7.68,2.69t2.56,9.21v16.28a3.76,3.76,0,0,0,.74,2.52,2.48,2.48,0,0,0,2,.87,5.15,5.15,0,0,0,2.81-1.07q.5.17.5.91a4.91,4.91,0,0,1-.5,2.48,20.5,20.5,0,0,1-3.3,2.06,8.61,8.61,0,0,1-4,1.07,6,6,0,0,1-3.72-1.4,6.78,6.78,0,0,1-2.4-3.06l-.62.54q-.54.45-1.49,1.12a24.72,24.72,0,0,1-2.15,1.32,13.22,13.22,0,0,1-2.81,1.12,12.05,12.05,0,0,1-3.26.45,9.86,9.86,0,0,1-6.73-2.27,7.85,7.85,0,0,1-2.6-6.24,7.62,7.62,0,0,1,1-3.72,9.88,9.88,0,0,1,2.27-2.85,16.93,16.93,0,0,1,3.55-2.19,34.16,34.16,0,0,1,3.84-1.61q1.61-.54,4.13-1.28t3.51-1.07a1.3,1.3,0,0,0,.74-1.32V109a7.1,7.1,0,0,0-1.32-4.54,4.31,4.31,0,0,0-3.55-1.65,5,5,0,0,0-3.88,1.53,6.17,6.17,0,0,0-1.4,4.34,2.68,2.68,0,0,1-1.24,2.44,5.14,5.14,0,0,1-2.81.79q-3.06,0-4.3-2,0-4,5.41-7.44A20.73,20.73,0,0,1,463.76,99ZM460,130.74a6.41,6.41,0,0,0,3.84-1.16,3.27,3.27,0,0,0,1.61-2.64v-8.43c-.39.16-1.2.44-2.44.83s-2.19.72-2.85,1a22.8,22.8,0,0,0-2.31,1.16,5,5,0,0,0-1.94,1.82,4.55,4.55,0,0,0-.62,2.31,5.09,5.09,0,0,0,1.32,3.88A4.75,4.75,0,0,0,460,130.74Z"/><path class="cls-1" d="M7,18.12H9.91v1.57H2.28V18.12H5.13V8.91L2.85,10.3,2,8.88,5.67,6.63H7Z"/><path class="cls-1" d="M19.45,12a3.6,3.6,0,0,1,1.44,1.46,4.49,4.49,0,0,1,.51,2.17,4.31,4.31,0,0,1-.57,2.22,3.81,3.81,0,0,1-1.61,1.49,5.34,5.34,0,0,1-2.44.53,6.92,6.92,0,0,1-2.38-.43,5.64,5.64,0,0,1-2-1.15l.67-1.41a5.78,5.78,0,0,0,3.69,1.43,2.8,2.8,0,0,0,2-.69,2.58,2.58,0,0,0,.72-2A2.49,2.49,0,0,0,16.89,13a3.53,3.53,0,0,0-2.83,1.33H12.84V6.63h8V8.17H14.73v4.11a3.88,3.88,0,0,1,2.57-.85A4.33,4.33,0,0,1,19.45,12Z"/></svg>