<svg id="Layer_1" data-name="Layer 1" xmlns="http://www.w3.org/2000/svg" viewBox="0 0 629.53 77.8"><defs><style>.cls-1,.cls-3{fill:#fff;stroke:#1414ef;stroke-miterlimit:10;}.cls-1{stroke-width:1.2px;}.cls-2{fill:#1414ef;}</style></defs><title>title</title><path class="cls-1" d="M55.77,2.31q5.58.21,9.13.21t9.17-.21q5.62-.21,9-.29a27.44,27.44,0,0,0,5.7-.83l1.57,12.64a3.19,3.19,0,0,1-2.23.58c-.44,0-.72-.14-.83-.41q-1.16-4.54-3.06-6.16T78.28,6.24q-7.68,0-8,1.4a28.86,28.86,0,0,0-.74,7.77V45.23a28.18,28.18,0,0,0,.74,7.19q.08.58,2.23,1.2a13.15,13.15,0,0,0,2.89.62q.33,0,.33,1.49A4.31,4.31,0,0,1,75.56,57l-3.18-.25q-2.11-.17-3.88-.25t-3.43-.08q-2.23,0-6.15.25T54.08,57a1.91,1.91,0,0,1-.33-1.32q0-1.49.33-1.49a13.19,13.19,0,0,0,3.1-.58q2.11-.58,2.35-1.24a26.1,26.1,0,0,0,.66-6.86V15.66q0-6.86-.74-8-.66-1.4-7.85-1.4-4,0-5.95,1.61t-3.14,6.07q-.08.5-.83.5a2.78,2.78,0,0,1-2.15-.66L41.11,1.2a27.41,27.41,0,0,0,5.7.83Q50.2,2.11,55.77,2.31Z"/><path class="cls-1" d="M106.83,20.2a18.21,18.21,0,0,1,13.26,5.41,17.7,17.7,0,0,1,5.49,13.09,18.75,18.75,0,0,1-32,13.14,17.9,17.9,0,0,1-5.45-13.14,17.8,17.8,0,0,1,5.41-13.14A18.1,18.1,0,0,1,106.83,20.2Zm-1.07,3.88a6.65,6.65,0,0,0-6,3.76,17.77,17.77,0,0,0-2.15,9,24.09,24.09,0,0,0,2.69,11.65q2.68,5,7.48,5a6.73,6.73,0,0,0,6.07-3.8A17.57,17.57,0,0,0,116,40.69a28.36,28.36,0,0,0-1.07-8,14.57,14.57,0,0,0-3.47-6.16A7.66,7.66,0,0,0,105.76,24.08Z"/><path class="cls-1" d="M153.67,44.9V13.67a26.17,26.17,0,0,0-.58-6.77q-.25-.91-2.31-1.49a13,13,0,0,0-3.3-.58q-.33,0-.33-1.24a2.25,2.25,0,0,1,.33-1.49q5.45.25,11,.25,4.21,0,7.1,0t5,0a24.47,24.47,0,0,1,11.73,3,12.17,12.17,0,0,1,4.59,4.42,12.53,12.53,0,0,1,1.78,6.69,9.68,9.68,0,0,1-1.73,5.54,13.35,13.35,0,0,1-3.26,3.59A13.58,13.58,0,0,1,181,27q-.66.25-.33.5,3.06.5,6.82,4.34a13,13,0,0,1,3.76,9.46,13.33,13.33,0,0,1-5.74,11.32q-5.74,4.21-15.24,4.13l-11.73-.08-11,.33a2.16,2.16,0,0,1-.25-1.32q0-1.4.25-1.4a13.59,13.59,0,0,0,3.14-.54q2.06-.54,2.4-1.28Q153.67,50.69,153.67,44.9Zm18.92-19.41q6-1.32,6-8.1,0-11.15-9.5-11.15a22.1,22.1,0,0,0-5.29.41.83.83,0,0,0-.66.91L163,15.49v9.67q0,.83,5,.83A16.34,16.34,0,0,0,172.59,25.49Zm8.59,16.69a12.94,12.94,0,0,0-2.93-8.72Q175.32,30,168.79,30a34.4,34.4,0,0,0-5.12.41A1.8,1.8,0,0,0,163,32.1V47.46q0,3.47,1,4.3t5.29.83a17,17,0,0,0,3.55-.37,17.66,17.66,0,0,0,3.76-1.32,7.44,7.44,0,0,0,3.3-3.22A11,11,0,0,0,181.18,42.18Z"/><path class="cls-1" d="M212.66,20.2a15.32,15.32,0,0,1,6.94,1.53,13.07,13.07,0,0,1,4.79,3.88A19.21,19.21,0,0,1,227,30.49a14.24,14.24,0,0,1,.91,4.83q0,1.82-.62,2.27a4.69,4.69,0,0,1-2.52.45H205.06q-.58,0-.58.5a16.06,16.06,0,0,0,1.07,5.78,11.36,11.36,0,0,0,3.68,4.87,9.72,9.72,0,0,0,6.24,2.07,22.66,22.66,0,0,0,2.4-.12,12.37,12.37,0,0,0,2.15-.41q1-.29,1.73-.54a7.09,7.09,0,0,0,1.53-.74l1.12-.7q.33-.21,1.65-1.12a1.36,1.36,0,0,1,.41.5,1.6,1.6,0,0,1,.25.83,2.54,2.54,0,0,1-.5,1.57A13.46,13.46,0,0,1,221.33,55a15.33,15.33,0,0,1-8.18,2.23,16.73,16.73,0,0,1-12.39-5.33A17.82,17.82,0,0,1,195.56,39q0-8.34,4.83-13.55A16,16,0,0,1,212.66,20.2Zm-.58,3.8a5.84,5.84,0,0,0-3.55,1.16,7.79,7.79,0,0,0-2.4,2.81,15.78,15.78,0,0,0-1.2,3.1,10.1,10.1,0,0,0-.37,2.44c0,.39.17.58.5.58h13.38q.74,0,.74-1.24A10.71,10.71,0,0,0,217.25,27,5.92,5.92,0,0,0,212.08,24Z"/><path class="cls-1" d="M264.71,13.92V45a24.28,24.28,0,0,0,.74,6.61q.41,1.08,5.62,1.07h3.06q6.44,0,9.83-1.74a9.48,9.48,0,0,0,3-2.89,17.4,17.4,0,0,0,2.56-5q.08-.5,1.16-.5A3.55,3.55,0,0,1,293,43q-.25.74-1.2,3.39l-1.45,4q-.5,1.36-1.07,3.35A22.79,22.79,0,0,0,288.5,57q-3.31,0-13.67-.25t-14.58-.08l-11,.33a2.16,2.16,0,0,1-.25-1.32q0-1.4.25-1.4a13.59,13.59,0,0,0,3.14-.54q2.06-.54,2.4-1.28.58-1.73.58-7.52V13.67a25.3,25.3,0,0,0-.66-7q-.33-.66-2.31-1.28a11.09,11.09,0,0,0-3-.62q-.33,0-.33-1.24A3.33,3.33,0,0,1,249.26,2q.41,0,4.58.25t6.4.25q.66,0,10.57-.5a4.25,4.25,0,0,1,.25,1.32c0,.94-.11,1.4-.33,1.4a13.46,13.46,0,0,0-3,.66q-2.23.66-2.4,1.24A30.67,30.67,0,0,0,264.71,13.92Z"/><path class="cls-1" d="M314.61,20.2q5.12,0,7.68,2.69t2.56,9.21V48.37a3.77,3.77,0,0,0,.74,2.52,2.48,2.48,0,0,0,2,.87,5.15,5.15,0,0,0,2.81-1.07c.33.11.5.41.5.91a4.91,4.91,0,0,1-.5,2.48,20.44,20.44,0,0,1-3.3,2.07,8.61,8.61,0,0,1-4,1.07,6,6,0,0,1-3.72-1.41,6.77,6.77,0,0,1-2.4-3.06l-.62.54q-.54.46-1.49,1.12a24.47,24.47,0,0,1-2.15,1.32,13.18,13.18,0,0,1-2.81,1.12,12,12,0,0,1-3.26.45A9.86,9.86,0,0,1,299.94,55a7.85,7.85,0,0,1-2.6-6.24,7.61,7.61,0,0,1,.95-3.72,9.88,9.88,0,0,1,2.27-2.85A16.92,16.92,0,0,1,304.11,40,33.8,33.8,0,0,1,308,38.42q1.61-.54,4.13-1.28t3.51-1.07a1.3,1.3,0,0,0,.74-1.32V30.2A7.09,7.09,0,0,0,315,25.65,4.31,4.31,0,0,0,311.47,24a5,5,0,0,0-3.88,1.53,6.18,6.18,0,0,0-1.4,4.34,2.68,2.68,0,0,1-1.24,2.44,5.14,5.14,0,0,1-2.81.78q-3.06,0-4.3-2,0-4,5.41-7.43A20.72,20.72,0,0,1,314.61,20.2Zm-3.72,31.72a6.4,6.4,0,0,0,3.84-1.16,3.27,3.27,0,0,0,1.61-2.64V39.7q-.58.25-2.44.83t-2.85,1a22.54,22.54,0,0,0-2.31,1.16,5,5,0,0,0-1.94,1.82,4.55,4.55,0,0,0-.62,2.31,5.09,5.09,0,0,0,1.32,3.88A4.75,4.75,0,0,0,310.89,51.92Z"/><path class="cls-1" d="M339.39,26h-5q-.58,0-.58-2.15a2.06,2.06,0,0,1,.08-.74,23.1,23.1,0,0,0,6.36-4.38q1.07-1.07,2.35-2.44t3-3.51a5.88,5.88,0,0,1,1.57.21c.5.14.74.29.74.46v8.1l6,0,4.09,0q.66,0,.66.74a8,8,0,0,1-.83,3.63H347.9V45.89a7.84,7.84,0,0,0,1.4,5,4.72,4.72,0,0,0,3.88,1.74,7.79,7.79,0,0,0,1.73-.21,8.77,8.77,0,0,0,1.49-.45q.58-.25,1.07-.5a2.59,2.59,0,0,1,.58-.25q.33-.08.74.74t.33,1.07q-.5,1.16-3.51,2.68a13,13,0,0,1-5.91,1.53,10.42,10.42,0,0,1-7.31-2.77q-3-2.77-3-8.55Z"/><path class="cls-1" d="M380.45,20.2a15.32,15.32,0,0,1,6.94,1.53,13.07,13.07,0,0,1,4.79,3.88,19.21,19.21,0,0,1,2.64,4.87,14.24,14.24,0,0,1,.91,4.83q0,1.82-.62,2.27a4.69,4.69,0,0,1-2.52.45H372.85q-.58,0-.58.5a16.06,16.06,0,0,0,1.07,5.78A11.36,11.36,0,0,0,377,49.2a9.72,9.72,0,0,0,6.24,2.07,22.66,22.66,0,0,0,2.4-.12,12.37,12.37,0,0,0,2.15-.41q1-.29,1.73-.54a7.09,7.09,0,0,0,1.53-.74l1.12-.7q.33-.21,1.65-1.12a1.36,1.36,0,0,1,.41.5,1.6,1.6,0,0,1,.25.83,2.54,2.54,0,0,1-.5,1.57A13.46,13.46,0,0,1,389.12,55a15.33,15.33,0,0,1-8.18,2.23,16.73,16.73,0,0,1-12.39-5.33A17.82,17.82,0,0,1,363.35,39q0-8.34,4.83-13.55A16,16,0,0,1,380.45,20.2Zm-.58,3.8a5.84,5.84,0,0,0-3.55,1.16,7.79,7.79,0,0,0-2.4,2.81,15.78,15.78,0,0,0-1.2,3.1,10.1,10.1,0,0,0-.37,2.44c0,.39.17.58.5.58h13.38q.74,0,.74-1.24A10.71,10.71,0,0,0,385,27,5.92,5.92,0,0,0,379.87,24Z"/><path class="cls-2" d="M7,16.3H9.91v1.57H2.28V16.3H5.13V7.09L2.85,8.49,2,7.06,5.67,4.82H7Z"/><path class="cls-2" d="M12.26,4.82H21.1V6.24l-6,11.63H13L19,6.39H12.26Z"/><path class="cls-3" d="M538.58,71.61l-177-37.08A13.66,13.66,0,0,1,351,18.36h0A13.66,13.66,0,0,1,367.18,7.81l177,37.08a13.66,13.66,0,0,1,10.55,16.18h0A13.66,13.66,0,0,1,538.58,71.61Z"/><path class="cls-2" d="M383,17.89a6,6,0,0,1,1.78.64,4.11,4.11,0,0,1,2.11,3.83l-2.31-.06a3.39,3.39,0,0,0-.57-1.64,2.12,2.12,0,0,0-1.36-.87,2.35,2.35,0,0,0-2.15.6A5.18,5.18,0,0,0,379,23.24a5.63,5.63,0,0,0,.07,3.17,2.24,2.24,0,0,0,1.7,1.49,2.62,2.62,0,0,0,2-.2,2.06,2.06,0,0,0,.94-1.4l2.24.47a3.78,3.78,0,0,1-1.86,2.72,5.11,5.11,0,0,1-3.59.34,4.59,4.59,0,0,1-3.28-2.35,6.81,6.81,0,0,1-.43-4.7,6.61,6.61,0,0,1,2.33-4.12A4.58,4.58,0,0,1,383,17.89Z"/><path class="cls-2" d="M392.8,23a4.87,4.87,0,0,1,1.57.62,3.48,3.48,0,0,1,1.13,1.11,4.77,4.77,0,0,1,.5,3.68,4.72,4.72,0,0,1-1.93,3.13,4,4,0,0,1-3.17.51,4.1,4.1,0,0,1-2.73-1.76,4.68,4.68,0,0,1-.5-3.65,4.73,4.73,0,0,1,1.94-3.17A4.1,4.1,0,0,1,392.8,23Zm1.11,5a3.36,3.36,0,0,0-.1-2.15,1.8,1.8,0,0,0-1.33-1,2,2,0,0,0-1.69.35,3.07,3.07,0,0,0-1,1.91,3.31,3.31,0,0,0,.11,2.15,1.82,1.82,0,0,0,1.33,1,2,2,0,0,0,1.68-.36A3.07,3.07,0,0,0,393.91,27.93Z"/><path class="cls-2" d="M406.65,27.83A3,3,0,0,1,410,26.6a3,3,0,0,1,2.16,1.55,4.32,4.32,0,0,1,.23,2.93l-1.06,5-2.1-.44,1.06-5a2.07,2.07,0,0,0-.16-1.54,1.73,1.73,0,0,0-1.19-.76,1.65,1.65,0,0,0-1.51.44,4,4,0,0,0-1,2.07l-.85,4-2.08-.44,1.06-5a2.07,2.07,0,0,0-.16-1.54,1.73,1.73,0,0,0-1.19-.76,1.81,1.81,0,0,0-1.58.44,3.75,3.75,0,0,0-1.1,2.09l-.84,4-2.08-.44,1.81-8.58,1.82.38-.08,1.53a2.9,2.9,0,0,1,3.08-1.14,3.15,3.15,0,0,1,1.69.87A3,3,0,0,1,406.65,27.83Z"/><path class="cls-2" d="M416.64,25.35a1.21,1.21,0,0,1,.52-.82,1.58,1.58,0,0,1,1.9.4,1.36,1.36,0,0,1-.38,1.78,1.58,1.58,0,0,1-1.9-.4A1.21,1.21,0,0,1,416.64,25.35Zm-.33,2.81,2.08.44-1.82,8.6-2.08-.44Z"/><path class="cls-2" d="M423.65,31.28a3.19,3.19,0,0,1,5.25.41,4.49,4.49,0,0,1,.22,2.92l-1.06,5L426,39.18l1.06-5a2.07,2.07,0,0,0-.16-1.54,1.73,1.73,0,0,0-1.19-.76,1.81,1.81,0,0,0-1.58.44,3.75,3.75,0,0,0-1.1,2.09l-.84,4-2.08-.44,1.81-8.58,1.82.38Z"/><path class="cls-2" d="M432.58,36.91a2.84,2.84,0,0,1-.58-2.43,2.81,2.81,0,0,1,1.57-2,3.92,3.92,0,0,1,2.6-.32,4.75,4.75,0,0,1,2.18,1,2.38,2.38,0,0,1,1.21-1.44,2.7,2.7,0,0,1,1.88-.25l-.53,2q-1.52-.32-1.78.67a2.69,2.69,0,0,1,.3,1.8,3.11,3.11,0,0,1-.6,1.36,2.91,2.91,0,0,1-1,.79,4.09,4.09,0,0,1-2.76.3,4.54,4.54,0,0,1-1.52-.6.87.87,0,0,0-.89.7q-.17.79,1.17,1.08l2.88.61q2.93.62,2.5,2.67a3,3,0,0,1-.63,1.28,3.69,3.69,0,0,1-1.25,1,5.86,5.86,0,0,1-3.88.36,6.33,6.33,0,0,1-3.26-1.59,2.46,2.46,0,0,1-.81-2.29,1.71,1.71,0,0,1,.75-1.16,2.35,2.35,0,0,1,1.4-.32,1.88,1.88,0,0,1-.71-1.79,1.48,1.48,0,0,1,.61-1A2.2,2.2,0,0,1,432.58,36.91Zm.81,4q-1.67-.28-1.92.9A1.11,1.11,0,0,0,432,43a3.62,3.62,0,0,0,1.57.71,5.64,5.64,0,0,0,1.53.16,3.11,3.11,0,0,0,1-.23,1.55,1.55,0,0,0,1.06-1.1.69.69,0,0,0-.11-.57.94.94,0,0,0-.6-.34Zm4-5.37a1.73,1.73,0,0,0-.15-1.25,1.56,1.56,0,0,0-1.11-.71,1.54,1.54,0,0,0-2,1.27,1.7,1.7,0,0,0,.18,1.26,1.63,1.63,0,0,0,1.14.72,1.55,1.55,0,0,0,1.31-.2A1.77,1.77,0,0,0,437.35,35.58Z"/><path class="cls-2" d="M450.91,32.48l2.61.55,1.34,12.25-2.21-.47-.27-2.64-4.25-.9-1.33,2.3-2.21-.47ZM449,39.82l3.21.68-.55-5.26Z"/><path class="cls-2" d="M462.93,45.36a2.78,2.78,0,0,1-3,1.16,3,3,0,0,1-2.62-2.42,3.88,3.88,0,0,1,.05-1.56l1.16-5.47,2.08.44-1.11,5.26a1.78,1.78,0,0,0,.14,1.35,1.37,1.37,0,0,0,.91.63,2.68,2.68,0,0,0,1,0,2,2,0,0,0,.81-.35,3.22,3.22,0,0,0,1.12-1.89l.89-4.24,2.08.44-1.82,8.6-2.08-.44Z"/><path class="cls-2" d="M469.45,44.69a2.84,2.84,0,0,1-.58-2.43,2.81,2.81,0,0,1,1.57-2,3.92,3.92,0,0,1,2.6-.32,4.75,4.75,0,0,1,2.18,1,2.38,2.38,0,0,1,1.21-1.44,2.7,2.7,0,0,1,1.88-.25l-.53,2q-1.52-.32-1.78.67a2.69,2.69,0,0,1,.3,1.8,3.11,3.11,0,0,1-.6,1.36,2.91,2.91,0,0,1-1,.79,4.09,4.09,0,0,1-2.76.3,4.54,4.54,0,0,1-1.52-.6.87.87,0,0,0-.89.7q-.17.79,1.17,1.08l2.88.61q2.93.62,2.5,2.67a3,3,0,0,1-.63,1.28,3.69,3.69,0,0,1-1.25,1,5.86,5.86,0,0,1-3.88.36,6.33,6.33,0,0,1-3.26-1.59,2.46,2.46,0,0,1-.81-2.29,1.71,1.71,0,0,1,.75-1.16,2.35,2.35,0,0,1,1.4-.32,1.88,1.88,0,0,1-.71-1.79,1.48,1.48,0,0,1,.61-1A2.2,2.2,0,0,1,469.45,44.69Zm.81,4q-1.67-.28-1.92.9a1.11,1.11,0,0,0,.49,1.11,3.62,3.62,0,0,0,1.57.71,5.64,5.64,0,0,0,1.53.16,3.11,3.11,0,0,0,1-.23,1.55,1.55,0,0,0,1.06-1.1.69.69,0,0,0-.11-.57.94.94,0,0,0-.6-.34Zm4-5.37a1.73,1.73,0,0,0-.15-1.25,1.56,1.56,0,0,0-1.11-.71,1.54,1.54,0,0,0-2,1.27,1.7,1.7,0,0,0,.18,1.26,1.63,1.63,0,0,0,1.14.72,1.55,1.55,0,0,0,1.31-.2A1.77,1.77,0,0,0,474.21,43.36Z"/><path class="cls-2" d="M484.27,49.87a2.78,2.78,0,0,1-3,1.16,3,3,0,0,1-2.62-2.42,3.88,3.88,0,0,1,.05-1.56l1.16-5.47L482,42l-1.11,5.26a1.78,1.78,0,0,0,.14,1.35,1.37,1.37,0,0,0,.91.63,2.68,2.68,0,0,0,1,0,2,2,0,0,0,.81-.35,3.22,3.22,0,0,0,1.12-1.89l.89-4.24,2.08.44L486,51.86l-2.08-.44Z"/><path class="cls-2" d="M491,50.19q-.22,1.23,1.53,1.59a2,2,0,0,0,1.17-.06.84.84,0,0,0,.58-.59.74.74,0,0,0-.14-.66,2.68,2.68,0,0,0-.75-.56l-1.73-1.07q-1.93-1.16-1.58-2.81a2.07,2.07,0,0,1,1.35-1.55,4.73,4.73,0,0,1,2.77-.11,4,4,0,0,1,2.39,1.26,2.41,2.41,0,0,1,.54,2l-2-.41a.88.88,0,0,0-.26-.76,2,2,0,0,0-1-.47,1.84,1.84,0,0,0-1.13,0,.79.79,0,0,0-.51.55q-.13.62.85,1.14L495,48.94a4.12,4.12,0,0,1,1.36,1.18,1.83,1.83,0,0,1,.25,1.46,2.32,2.32,0,0,1-1.39,1.62,4.45,4.45,0,0,1-2.93.23,4.71,4.71,0,0,1-2.6-1.33,2.55,2.55,0,0,1-.61-2.33Z"/><path class="cls-2" d="M503.5,55.33a5.54,5.54,0,0,1-1.93.07,4,4,0,0,1-1.14-.41,2.72,2.72,0,0,1-.79-.67,2.59,2.59,0,0,1-.39-2.17l1-4.8-1.2-.25.29-1.4,1.2.25.48-2.26,2.08.44-.48,2.26,2.33.49-.29,1.4-2.33-.49-1,4.73a.93.93,0,0,0,.78,1.27,4.34,4.34,0,0,0,1.38,0Z"/><path class="cls-2" d="M512,55.35l6.55,1.38-.4,1.91-8.63-1.82.41-2a3.37,3.37,0,0,1,2.1-2.69,6.29,6.29,0,0,1,1.27-.32l2.54-.4a2.71,2.71,0,0,0,1.3-.51,1.77,1.77,0,0,0,.6-1,1.51,1.51,0,0,0-.24-1.22,2,2,0,0,0-1.26-.74,2.44,2.44,0,0,0-1.55.12,1.73,1.73,0,0,0-.93,1.11l-2.31-.49a3.28,3.28,0,0,1,1.84-2.36,5.12,5.12,0,0,1,3.27-.21,4.6,4.6,0,0,1,2.75,1.58,3.11,3.11,0,0,1,.67,2.67,3.53,3.53,0,0,1-1.2,2.14,5.45,5.45,0,0,1-2.52,1l-2.58.41a2.77,2.77,0,0,0-1.12.38A1.2,1.2,0,0,0,512,55Z"/><path class="cls-2" d="M524.44,52.69a11.3,11.3,0,0,1,1.85.22A4.49,4.49,0,0,1,529,54.37a3,3,0,0,1,.54,2.69,3.89,3.89,0,0,1-1.79,2.63,4.52,4.52,0,0,1-3.41.52,4.63,4.63,0,0,1-2.82-1.59,3.53,3.53,0,0,1-.64-3l2.14.45a1.54,1.54,0,0,0,.32,1.45,2.66,2.66,0,0,0,1.45.75A2.14,2.14,0,0,0,526.4,58a2.12,2.12,0,0,0,.93-1.4q.37-1.75-2-2.25l-3.5-.74,1.78-5.79,6.87,1.45-.4,1.91-4.86-1Z"/></svg>