<svg id="Layer_1" data-name="Layer 1" xmlns="http://www.w3.org/2000/svg" viewBox="0 0 629.53 235.23"><defs><style>.cls-1{fill:#1414ef;}.cls-2,.cls-3{fill:#fff;stroke:#1414ef;stroke-miterlimit:10;}.cls-2{stroke-width:1.2px;}</style></defs><title>title</title><path class="cls-1" d="M7,15.76H9.91v1.57H2.28V15.76H5.13V6.55L2.85,7.94,2,6.52,5.67,4.27H7Z"/><path class="cls-1" d="M21.64,13.11v1.52H19.73v2.71H17.86V14.63H12V13.2l6.19-8.93h1.56v8.84Zm-7.78,0h4V7.33Z"/><path class="cls-2" d="M46.08,13a24.89,24.89,0,0,0-.66-6.94q-.33-.66-2.31-1.28a11.09,11.09,0,0,0-3-.62q-.33,0-.33-1.24A3.33,3.33,0,0,1,40,1.45q.41,0,4.58.25t6.4.25q.66,0,10.57-.5a4.26,4.26,0,0,1,.25,1.32q0,1.4-.33,1.4a13.46,13.46,0,0,0-3,.66q-2.23.66-2.4,1.24a30.65,30.65,0,0,0-.66,7.27V44.41a30.64,30.64,0,0,0,.74,7.44q.16.58,2.27,1.2a12.65,12.65,0,0,0,2.85.62c.22,0,.33.52.33,1.57a3.67,3.67,0,0,1-.17,1.16q-9.91-.5-10.49-.5-1.65,0-3.47.08l-4,.21L40,56.39a1.61,1.61,0,0,1-.33-1.16c0-1,.11-1.57.33-1.57a13.19,13.19,0,0,0,3.1-.58q2.11-.58,2.35-1.24a28.94,28.94,0,0,0,.66-6.94Z"/><path class="cls-2" d="M113.74,1.61,131.09,44.9q1.24,3.3,2.48,6a4,4,0,0,0,2.64,2,11,11,0,0,0,3.14.74c.22,0,.33.5.33,1.49a2.78,2.78,0,0,1-.17,1.24q-9.91-.5-10.41-.5t-10.74.5a2.33,2.33,0,0,1-.33-1.53c0-.8.11-1.2.33-1.2a10.65,10.65,0,0,0,2.73-.5q1.73-.5,2.06-1.16a2.36,2.36,0,0,0,.25-1.07,19,19,0,0,0-1.57-5.7l-2.89-7.68a.91.91,0,0,0-.58-.33q-2.64-.16-7.1-.17t-9.42.25c-.33,0-.5.11-.5.33l-3.14,7.68a23.46,23.46,0,0,0-1.57,5.37,1.84,1.84,0,0,0,.91,1.65,8.27,8.27,0,0,0,2.6.91,14.26,14.26,0,0,0,2.52.41q.25.08.25,1.16a5.39,5.39,0,0,1-.17,1.57q-.41,0-3.88-.25t-5.62-.25q-2.15,0-5.08.21L84,56.39a1.76,1.76,0,0,1-.33-1.24c0-1,.05-1.49.17-1.49A11.94,11.94,0,0,0,87,53a5.1,5.1,0,0,0,2.77-1.61,39.26,39.26,0,0,0,3.14-6.44L108.29,7.73q1.9-5,3.06-5.95a2.11,2.11,0,0,1,1.4-.58A1.35,1.35,0,0,1,113.74,1.61Zm-9.91,30.73q2.89.25,5.95.25,2.89,0,6.77-.25l.17-.33-6.28-16.52L103.66,32C103.66,32.24,103.71,32.34,103.82,32.34Z"/><path class="cls-2" d="M171.49,19.62a8.93,8.93,0,0,1,5.37,1.61,9.66,9.66,0,0,1,3.3,4.17,19.48,19.48,0,0,1,6-4.13A18.56,18.56,0,0,1,194,19.62,9.38,9.38,0,0,1,199,20.94a9.12,9.12,0,0,1,3.3,3.68,19.43,19.43,0,0,1,1.73,5.12,31.47,31.47,0,0,1,.54,6v8.67a34.56,34.56,0,0,0,.58,7.44q.16.58,2.23,1.2a12.14,12.14,0,0,0,2.81.62c.17,0,.26.4.29,1.2a4.67,4.67,0,0,1-.12,1.61q-.58-.08-4.34-.33t-5.66-.25q-2,0-5.66.25t-4.42.33a3.09,3.09,0,0,1-.25-1.57q0-1.24.25-1.24a11.09,11.09,0,0,0,3-.62q2-.62,2.15-1.2a25.69,25.69,0,0,0,.58-5.78V37.63q0-12-7.68-12A7.52,7.52,0,0,0,183.79,27a5.15,5.15,0,0,0-2.15,2.56c0,.17,0,.39,0,.66a1.61,1.61,0,0,0,0,.66,40.41,40.41,0,0,1,.25,5.12v8.76a32.47,32.47,0,0,0,.58,7.1q.16.58,2.23,1.2a12.15,12.15,0,0,0,2.81.62c.17,0,.26.4.29,1.2a4.67,4.67,0,0,1-.12,1.61q-.58-.08-4.34-.33t-5.66-.25q-2,0-5.66.25t-4.42.33a3.09,3.09,0,0,1-.25-1.57q0-1.24.25-1.24a11.09,11.09,0,0,0,3-.62q2-.62,2.15-1.2a27,27,0,0,0,.58-6V37.88q0-6.44-1.9-9.33a6.29,6.29,0,0,0-5.62-2.89,7.91,7.91,0,0,0-4.54,1.4,3.9,3.9,0,0,0-2.06,3.14V44.41a30.37,30.37,0,0,0,.66,7.44q.16.58,2.15,1.2a11.2,11.2,0,0,0,2.73.62c.22,0,.34.4.37,1.2a4.67,4.67,0,0,1-.12,1.61q-.66-.08-4.34-.33T155,55.89q-2.07,0-5.78.25t-4.38.33a2.42,2.42,0,0,1-.33-1.57q0-1.24.33-1.24a12,12,0,0,0,3-.62q2.06-.62,2.23-1.2a27,27,0,0,0,.58-6V32.34q0-3.88-1.32-5.29a4,4,0,0,0-1.86-1.24,9.31,9.31,0,0,0-2-.5c-.55-.05-.83-.14-.83-.25q0-2.4.5-2.48a114.57,114.57,0,0,0,13.22-2.48.53.53,0,0,1,.25-.12,1.75,1.75,0,0,1,.41,0q.41,0,.66.58a1.52,1.52,0,0,1,.17.91,28.12,28.12,0,0,0-.33,3c0,.22.05.36.17.41a1.23,1.23,0,0,0,.41-.25,18.32,18.32,0,0,1,5.08-3.47A14.46,14.46,0,0,1,171.49,19.62Z"/><path class="cls-2" d="M242.12,1.94q1.49,0,11.4-.5a3.8,3.8,0,0,1,.12,1.49q0,1.16-.29,1.16a9.13,9.13,0,0,0-3,.58q-1.65.58-1.65,1.73a5.18,5.18,0,0,0,.74,2.15l8.76,16q.41.41.83-.17,3.55-5.29,6.86-10.91t3.3-7.1q0-.91-1.53-1.61a9.71,9.71,0,0,0-4-.7q-.33,0-.33-1.16a2.85,2.85,0,0,1,.25-1.49q8.34.5,9.91.5,1.9,0,3.43-.08t3.14-.21l2.52-.21a5.46,5.46,0,0,1,.17,1.32c0,.88-.11,1.32-.33,1.32a11.49,11.49,0,0,0-3.43.74,6.72,6.72,0,0,0-3.18,2q-2.4,3.55-8.59,13.59T261,31.52V44.41a31.61,31.61,0,0,0,.66,7.44q.17.58,2.27,1.28a11.58,11.58,0,0,0,2.77.7q.33,0,.33,1.32a4.32,4.32,0,0,1-.17,1.32l-3.14-.25q-2.07-.17-3.8-.25t-3.39-.08q-2.23,0-6.07.25t-4.75.33a1.91,1.91,0,0,1-.33-1.32q0-1.32.25-1.32a11.27,11.27,0,0,0,3.06-.66q2.06-.66,2.31-1.32a29.51,29.51,0,0,0,.66-7.27V32.34a5.17,5.17,0,0,0-.54-1.61q-.54-1.2-1.86-3.64T247,22.89l-3.22-5.74-3.3-5.87q-2.4-4.46-4.3-5.7a8.27,8.27,0,0,0-2.44-1,9.87,9.87,0,0,0-2.35-.46c-.17,0-.26-.27-.29-.83a2.53,2.53,0,0,1,.12-1.16Q233.2,1.94,242.12,1.94Z"/><path class="cls-2" d="M296.2,19.62A18.21,18.21,0,0,1,309.46,25,17.7,17.7,0,0,1,315,38.13a18.71,18.71,0,0,1-37.42,0A17.8,17.8,0,0,1,282.94,25,18.1,18.1,0,0,1,296.2,19.62Zm-1.07,3.88a6.65,6.65,0,0,0-6,3.76,17.77,17.77,0,0,0-2.15,9,24.09,24.09,0,0,0,2.69,11.65q2.68,5,7.48,5a6.74,6.74,0,0,0,6.07-3.8,17.58,17.58,0,0,0,2.19-8.92,28.37,28.37,0,0,0-1.07-8A14.57,14.57,0,0,0,300.83,26,7.66,7.66,0,0,0,295.13,23.51Z"/><path class="cls-2" d="M355.52,28.54V44.9a18.32,18.32,0,0,0,.66,5.78,1.71,1.71,0,0,0,1,.66,6.41,6.41,0,0,0,1.45.33,12.26,12.26,0,0,0,1.36.08,1.52,1.52,0,0,1,.7.08c.22.06.33.3.33.74a6.31,6.31,0,0,1-.17,1.12c-.11.52-.28.79-.5.79a19,19,0,0,0-2.93.29l-3.43.58q-1.65.29-3.14.62t-3.3.66q-.58,0-.58-1.32V51.68q-.08-.41-.25-.41a18.44,18.44,0,0,1-5,3.72,13.84,13.84,0,0,1-6.53,1.65,8.65,8.65,0,0,1-4.92-1.41,10,10,0,0,1-3.3-3.63,17.76,17.76,0,0,1-1.74-4.79,25.26,25.26,0,0,1-.54-5.21V32.34q0-3.88-1.32-5.29a4.6,4.6,0,0,0-1.9-1.24,8.67,8.67,0,0,0-2-.5c-.55-.05-.83-.14-.83-.25q0-2.4.41-2.48a62.33,62.33,0,0,0,6.77-1,64.77,64.77,0,0,0,6.53-1.49,1.34,1.34,0,0,0,.33-.08A1.41,1.41,0,0,1,333,20q.41,0,.62.58a3,3,0,0,1,.21.91q-.74,5.62-.74,7.27v9.91q0,6.44,1.82,9.25t5.87,2.81a6.49,6.49,0,0,0,4.46-1.61A4.4,4.4,0,0,0,347,46V32.34q0-3.88-1.32-5.29a4,4,0,0,0-1.86-1.24,9.31,9.31,0,0,0-2-.5c-.55-.05-.83-.14-.83-.25q0-2.4.5-2.48a63.43,63.43,0,0,0,6.69-1,64.79,64.79,0,0,0,6.53-1.49,4.77,4.77,0,0,0,.66-.17q.41,0,.66.58a1.52,1.52,0,0,1,.17.91Q355.52,27.06,355.52,28.54Z"/><path class="cls-2" d="M389.47,19.62q4.54,0,6.77,2.73,0,7-4,7a4.92,4.92,0,0,1-3.22-1.65,5.17,5.17,0,0,0-3.55-1.65,4.43,4.43,0,0,0-4,2.6,11,11,0,0,0-1.45,5.41V44.41a34.56,34.56,0,0,0,.58,7.44q.16.58,2.19,1.2a11.68,11.68,0,0,0,2.77.62c.17,0,.26.4.29,1.2a8.59,8.59,0,0,1,0,1.61q-.66-.08-4.38-.33t-5.62-.25q-2,0-5.74.25t-4.42.33a2.42,2.42,0,0,1-.33-1.57q0-1.24.33-1.24a11.52,11.52,0,0,0,3-.62q2-.62,2.19-1.2a27,27,0,0,0,.58-6V32.34q0-3.88-1.32-5.29a4,4,0,0,0-1.86-1.24,9.4,9.4,0,0,0-2-.5c-.52-.05-.78-.14-.78-.25q0-2.4.41-2.48a117.19,117.19,0,0,0,13.3-2.48,5,5,0,0,1,.66-.17c.22,0,.41.19.58.58a2,2,0,0,1,.21,1q0,.37-.12,1.16t-.21,1.65a10.5,10.5,0,0,0-.12,1.12,15.16,15.16,0,0,1,4-4A9.05,9.05,0,0,1,389.47,19.62Z"/><path class="cls-2" d="M88.13,120.1a46.19,46.19,0,0,1-1.24,6.4q-1.24,5.33-1.9,5.66-7.19,3.47-19.17,3.47a24.8,24.8,0,0,1-18.59-8,26.63,26.63,0,0,1-7.68-19.08A28.4,28.4,0,0,1,47.4,88.42,25.43,25.43,0,0,1,66.73,80a91,91,0,0,1,19.5,2.23q.25.08.5,5.41T87,94.33q0,1.24-2,1.24a2.65,2.65,0,0,1-1.16-.33,11.54,11.54,0,0,0-1.2-3.06A21.14,21.14,0,0,0,80,88.63a12.57,12.57,0,0,0-5.12-3.26,22.13,22.13,0,0,0-7.85-1.28,14.34,14.34,0,0,0-12.6,6.69,28,28,0,0,0-4.5,16q0,10.41,5.08,17.64t14.33,7.23q7.35,0,11.65-4.63a11.33,11.33,0,0,0,1.94-3.1q.87-1.94,1.32-3.26t.62-1.32Q87.8,119.36,88.13,120.1Z"/><path class="cls-2" d="M119.52,98.62q10.57,0,10.57,16.28v8.51a30.34,30.34,0,0,0,.66,7.44q.08.58,2.19,1.2a12.65,12.65,0,0,0,2.85.62c.17,0,.26.4.29,1.2a8.63,8.63,0,0,1,0,1.61q-.58-.08-4.42-.33t-5.66-.25q-2.07,0-5.58.25t-4.34.33a3.09,3.09,0,0,1-.25-1.57q0-1.24.25-1.24a9.87,9.87,0,0,0,2.85-.62q1.86-.62,2.11-1.2a31.29,31.29,0,0,0,.5-6v-8.1q0-6.86-1.86-9.46t-5.91-2.6a7.91,7.91,0,0,0-4.54,1.4,3.9,3.9,0,0,0-2.07,3.14v14.21a30.34,30.34,0,0,0,.66,7.44q.16.58,2.19,1.2a11.68,11.68,0,0,0,2.77.62c.17,0,.26.4.29,1.2a4.69,4.69,0,0,1-.12,1.61q-.66-.08-4.34-.33t-5.58-.25q-2,0-5.74.25t-4.42.33a2.42,2.42,0,0,1-.33-1.57q0-1.24.33-1.24a11.52,11.52,0,0,0,3-.62q2-.62,2.19-1.2a26.56,26.56,0,0,0,.58-5.95V90.53a32.61,32.61,0,0,0-.41-5.62q-.41-1.32-4.3-1.32h-.74q-.5,0-.5-1.32t.5-1.32q2.56-.25,4.87-.66t3.84-.83q1.53-.41,2.64-.83t2.35-.83H107a.89.89,0,0,1,.66.46,2.27,2.27,0,0,1,.41.87,26.62,26.62,0,0,0-1,7.77v16.69c0,.33.11.5.33.5.05,0,.17-.08.33-.25a15.73,15.73,0,0,1,5.08-3.59A15.23,15.23,0,0,1,119.52,98.62Z"/><path class="cls-2" d="M155,123.41a30.36,30.36,0,0,0,.66,7.44q.16.58,2.23,1.2a12.15,12.15,0,0,0,2.81.62c.22,0,.34.4.37,1.2a4.7,4.7,0,0,1-.12,1.61q-.58-.08-4.42-.33t-5.66-.25q-2.07,0-5.82.25t-4.34.33a2.42,2.42,0,0,1-.33-1.57q0-1.24.33-1.24a12,12,0,0,0,3-.62q2.06-.62,2.23-1.2a27,27,0,0,0,.58-6V111.34q0-3.88-1.32-5.29a4.59,4.59,0,0,0-1.9-1.24,8.67,8.67,0,0,0-2-.5c-.55-.05-.83-.14-.83-.25q0-2.4.5-2.48a63.42,63.42,0,0,0,6.69-1,64.77,64.77,0,0,0,6.53-1.49,4.79,4.79,0,0,0,.66-.17q.41,0,.66.58a1.53,1.53,0,0,1,.17.91,70.85,70.85,0,0,0-.66,7.1Zm-8.59-34.57a5,5,0,0,1-1.49-3.63A5.08,5.08,0,0,1,150,80.12a5,5,0,0,1,3.64,1.49,4.89,4.89,0,0,1,1.49,3.59,5,5,0,0,1-1.49,3.63,5.09,5.09,0,0,1-7.27,0Z"/><path class="cls-2" d="M179.42,123.24a33.86,33.86,0,0,0,.58,7.44q.16.58,2,1.28a9,9,0,0,0,2.52.7c.17,0,.26.39.29,1.16a4.51,4.51,0,0,1-.12,1.57l-3.1-.21-3.51-.21q-1.57-.08-3-.08-1.57,0-3.14.08l-3.47.21-3.14.21a2.33,2.33,0,0,1-.33-1.53c0-.8.11-1.2.33-1.2a8.83,8.83,0,0,0,2.77-.7q1.86-.7,2-1.28a27.41,27.41,0,0,0,.66-6.11V90.2a28.8,28.8,0,0,0-.5-5.62q-.41-1.32-4.13-1.32h-.83q-.5,0-.5-1,0-1.32.5-1.32,2.56-.25,4.87-.66t3.84-.83q1.53-.41,2.64-.78t1.78-.62l.58-.25h.17c.22,0,.45.17.7.5a2.54,2.54,0,0,1,.45.83,26.1,26.1,0,0,0-1,7.77Z"/><path class="cls-2" d="M208,98.46a14.2,14.2,0,0,1,6,1.16q.41,0,.41-1.32V90.53a28.82,28.82,0,0,0-.5-5.62q-.41-1.32-4.3-1.32H209q-.5,0-.5-1.32t.5-1.32q2.48-.25,4.83-.66t3.88-.83q1.53-.41,2.64-.83L222,78a4.25,4.25,0,0,1,.66-.21h.17a.89.89,0,0,1,.66.46,1.5,1.5,0,0,1,.33.87,31.65,31.65,0,0,0-.83,7.77v36.35a30.25,30.25,0,0,0,.5,6.11,1.22,1.22,0,0,0,.83.91,5.06,5.06,0,0,0,1.57.41c.55.06,1.07.1,1.57.12l.83,0a1.73,1.73,0,0,1,.17,1q0,1.65-.5,1.65-1.16.08-2.93.33t-3.47.54l-3.22.58q-1.53.29-3.43.7-.5,0-.5-1.41v-1.4a.37.37,0,0,0-.12-.33c-.08-.05-.15-.05-.21,0a13.79,13.79,0,0,1-8.59,3.06,16,16,0,0,1-11.65-4.92,16.68,16.68,0,0,1-5-12.35,19.37,19.37,0,0,1,5.66-14A18.09,18.09,0,0,1,208,98.46Zm-.74,4a7.23,7.23,0,0,0-6.61,3.72q-2.23,3.72-2.23,10,0,7,2.56,10.95a8.11,8.11,0,0,0,7.19,3.92,6.87,6.87,0,0,0,4.54-1.45,4.58,4.58,0,0,0,1.73-3.68V108.54a5.74,5.74,0,0,0-.29-1.73,7.7,7.7,0,0,0-1-1.94,5.28,5.28,0,0,0-2.23-1.73A8.77,8.77,0,0,0,207.26,102.42Z"/><path class="cls-2" d="M237.74,136.46A7.33,7.33,0,0,0,236.5,133a7.45,7.45,0,0,1-1.24-3.59A5,5,0,0,1,237,126a6.14,6.14,0,0,1,4.54-1.74,5.34,5.34,0,0,1,2.64.5,12.88,12.88,0,0,1,1.16,5.78,14.82,14.82,0,0,1-.66,4,23.73,23.73,0,0,1-3.55,7.64,37.08,37.08,0,0,1-7,6.73H234q-.41,0-1.16-.87a2.49,2.49,0,0,1-.74-1.45,11.89,11.89,0,0,1,1.4-1.32,15.14,15.14,0,0,0,2.81-3.59A9.9,9.9,0,0,0,237.74,136.46Z"/><path class="cls-2" d="M273.6,123.32V92.1a26.17,26.17,0,0,0-.58-6.77q-.25-.91-2.31-1.49a13,13,0,0,0-3.3-.58q-.33,0-.33-1.24a2.25,2.25,0,0,1,.33-1.49q5.45.25,11,.25,4.21,0,7.1,0t5,0a24.47,24.47,0,0,1,11.73,3,12.17,12.17,0,0,1,4.59,4.42,12.53,12.53,0,0,1,1.78,6.69,9.68,9.68,0,0,1-1.73,5.54,13.36,13.36,0,0,1-3.26,3.59,13.57,13.57,0,0,1-2.6,1.45q-.66.25-.33.5,3.06.5,6.82,4.34a13,13,0,0,1,3.76,9.46A13.33,13.33,0,0,1,305.44,131q-5.74,4.21-15.24,4.13l-11.73-.08-11,.33a2.16,2.16,0,0,1-.25-1.32q0-1.4.25-1.4a13.6,13.6,0,0,0,3.14-.54q2.06-.54,2.4-1.28Q273.59,129.11,273.6,123.32Zm18.92-19.41q6-1.32,6-8.1,0-11.15-9.5-11.15a22.1,22.1,0,0,0-5.29.41.83.83,0,0,0-.66.91l-.17,7.93v9.67q0,.83,5,.83A16.34,16.34,0,0,0,292.51,103.91Zm8.59,16.69a12.94,12.94,0,0,0-2.93-8.72q-2.93-3.43-9.46-3.43a34.41,34.41,0,0,0-5.12.41,1.8,1.8,0,0,0-.66,1.65v15.37q0,3.47,1,4.3t5.29.83a17,17,0,0,0,3.55-.37,17.65,17.65,0,0,0,3.76-1.32,7.43,7.43,0,0,0,3.3-3.22A11,11,0,0,0,301.11,120.6Z"/><path class="cls-2" d="M351.75,107.54V123.9a18.32,18.32,0,0,0,.66,5.78,1.71,1.71,0,0,0,1,.66,6.4,6.4,0,0,0,1.45.33,12.28,12.28,0,0,0,1.36.08,1.52,1.52,0,0,1,.7.08c.22.06.33.3.33.74a6.26,6.26,0,0,1-.17,1.12c-.11.52-.28.79-.5.79a19,19,0,0,0-2.93.29l-3.43.58q-1.65.29-3.14.62t-3.3.66q-.58,0-.58-1.32v-3.63c-.06-.28-.14-.41-.25-.41a18.44,18.44,0,0,1-5,3.72,13.84,13.84,0,0,1-6.53,1.65,8.65,8.65,0,0,1-4.92-1.41,10,10,0,0,1-3.3-3.63,17.74,17.74,0,0,1-1.73-4.79,25.22,25.22,0,0,1-.54-5.21v-9.25q0-3.88-1.32-5.29a4.59,4.59,0,0,0-1.9-1.24,8.68,8.68,0,0,0-2-.5c-.55-.05-.83-.14-.83-.25q0-2.4.41-2.48a62.32,62.32,0,0,0,6.77-1,64.77,64.77,0,0,0,6.53-1.49,1.34,1.34,0,0,0,.33-.08,1.41,1.41,0,0,1,.33-.08q.41,0,.62.58a2.94,2.94,0,0,1,.21.91q-.74,5.62-.74,7.27v9.91q0,6.44,1.82,9.25t5.87,2.81a6.48,6.48,0,0,0,4.46-1.61,4.4,4.4,0,0,0,1.82-3.1V111.34q0-3.88-1.32-5.29a4,4,0,0,0-1.86-1.24,9.32,9.32,0,0,0-2-.5c-.55-.05-.83-.14-.83-.25q0-2.4.5-2.48a63.43,63.43,0,0,0,6.69-1,64.74,64.74,0,0,0,6.53-1.49,4.75,4.75,0,0,0,.66-.17q.41,0,.66.58a1.53,1.53,0,0,1,.17.91Q351.75,106.06,351.75,107.54Z"/><path class="cls-2" d="M366.29,104.41h-5q-.58,0-.58-2.15a2,2,0,0,1,.08-.74,23.1,23.1,0,0,0,6.36-4.38q1.07-1.07,2.35-2.44t3-3.51a5.88,5.88,0,0,1,1.57.21c.5.14.74.29.74.46v8.1l6,0,4.09,0q.66,0,.66.74a8,8,0,0,1-.83,3.63H374.8v19.91a7.84,7.84,0,0,0,1.4,5,4.72,4.72,0,0,0,3.88,1.74,7.79,7.79,0,0,0,1.73-.21,8.78,8.78,0,0,0,1.49-.45q.58-.25,1.07-.5a2.59,2.59,0,0,1,.58-.25q.33-.08.74.74t.33,1.07q-.5,1.16-3.51,2.68a13,13,0,0,1-5.91,1.53,10.42,10.42,0,0,1-7.31-2.77q-3-2.77-3-8.55Z"/><path class="cls-2" d="M414,92a24.89,24.89,0,0,0-.66-6.94q-.33-.66-2.31-1.28a11.09,11.09,0,0,0-3-.62q-.33,0-.33-1.24a3.33,3.33,0,0,1,.17-1.49q.41,0,4.58.25t6.4.25q.66,0,10.57-.5a4.26,4.26,0,0,1,.25,1.32c0,.94-.11,1.4-.33,1.4a13.47,13.47,0,0,0-3,.66q-2.23.66-2.4,1.24a30.65,30.65,0,0,0-.66,7.27v31.06a30.67,30.67,0,0,0,.74,7.44q.16.58,2.27,1.2a12.65,12.65,0,0,0,2.85.62c.22,0,.33.52.33,1.57a3.67,3.67,0,0,1-.17,1.16q-9.91-.5-10.49-.5-1.65,0-3.47.08l-4,.21-3.51.21a1.61,1.61,0,0,1-.33-1.16c0-1,.11-1.57.33-1.57a13.19,13.19,0,0,0,3.1-.58q2.11-.58,2.35-1.24a28.94,28.94,0,0,0,.66-6.94Z"/><path class="cls-2" d="M481.7,80.61,499,123.9q1.24,3.3,2.48,6a4,4,0,0,0,2.64,2,11,11,0,0,0,3.14.74q.33,0,.33,1.49a2.79,2.79,0,0,1-.17,1.24q-9.91-.5-10.41-.5t-10.74.5a2.33,2.33,0,0,1-.33-1.53c0-.8.11-1.2.33-1.2a10.65,10.65,0,0,0,2.73-.5q1.73-.5,2.07-1.16a2.37,2.37,0,0,0,.25-1.07,19,19,0,0,0-1.57-5.7l-2.89-7.68a.91.91,0,0,0-.58-.33q-2.64-.16-7.1-.17t-9.42.25c-.33,0-.5.11-.5.33l-3.14,7.68a23.46,23.46,0,0,0-1.57,5.37,1.85,1.85,0,0,0,.91,1.65,8.28,8.28,0,0,0,2.6.91,14.25,14.25,0,0,0,2.52.41q.25.08.25,1.16a5.41,5.41,0,0,1-.17,1.57q-.41,0-3.88-.25t-5.62-.25q-2.15,0-5.08.21l-4.17.29a1.76,1.76,0,0,1-.33-1.24c0-1,.05-1.49.17-1.49A11.93,11.93,0,0,0,455,132a5.09,5.09,0,0,0,2.77-1.61,39.22,39.22,0,0,0,3.14-6.44l15.37-37.18q1.9-5,3.06-5.95a2.11,2.11,0,0,1,1.4-.58A1.36,1.36,0,0,1,481.7,80.61Zm-9.91,30.73q2.89.25,5.95.25,2.89,0,6.77-.25l.17-.33-6.28-16.52L471.62,111C471.62,111.24,471.67,111.34,471.78,111.34Z"/><path class="cls-2" d="M539.45,98.62a8.92,8.92,0,0,1,5.37,1.61,9.66,9.66,0,0,1,3.3,4.17,19.47,19.47,0,0,1,6-4.13,18.55,18.55,0,0,1,7.77-1.65A9.38,9.38,0,0,1,567,99.94a9.11,9.11,0,0,1,3.3,3.68,19.45,19.45,0,0,1,1.74,5.12,31.51,31.51,0,0,1,.54,6v8.67a34.56,34.56,0,0,0,.58,7.44q.16.58,2.23,1.2a12.15,12.15,0,0,0,2.81.62c.17,0,.26.4.29,1.2a4.66,4.66,0,0,1-.12,1.61q-.58-.08-4.34-.33t-5.66-.25q-2,0-5.66.25t-4.42.33a3.08,3.08,0,0,1-.25-1.57q0-1.24.25-1.24a11.09,11.09,0,0,0,3-.62q2-.62,2.15-1.2a25.72,25.72,0,0,0,.58-5.78v-8.43q0-12-7.68-12a7.52,7.52,0,0,0-4.54,1.32,5.15,5.15,0,0,0-2.15,2.56c0,.17,0,.39,0,.66a1.61,1.61,0,0,0,0,.66,40.4,40.4,0,0,1,.25,5.12v8.76a32.47,32.47,0,0,0,.58,7.1q.16.58,2.23,1.2a12.15,12.15,0,0,0,2.81.62c.17,0,.26.4.29,1.2a4.68,4.68,0,0,1-.12,1.61q-.58-.08-4.34-.33t-5.66-.25q-2,0-5.66.25t-4.42.33a3.08,3.08,0,0,1-.25-1.57q0-1.24.25-1.24a11.09,11.09,0,0,0,3-.62q2-.62,2.15-1.2a27,27,0,0,0,.58-6v-7.93q0-6.44-1.9-9.33a6.29,6.29,0,0,0-5.62-2.89,7.91,7.91,0,0,0-4.54,1.4,3.9,3.9,0,0,0-2.06,3.14v14.21a30.37,30.37,0,0,0,.66,7.44q.16.58,2.15,1.2a11.21,11.21,0,0,0,2.73.62c.22,0,.34.4.37,1.2a4.68,4.68,0,0,1-.12,1.61q-.66-.08-4.34-.33t-5.58-.25q-2.07,0-5.78.25t-4.38.33a2.42,2.42,0,0,1-.33-1.57q0-1.24.33-1.24a12,12,0,0,0,3-.62q2.06-.62,2.23-1.2a27,27,0,0,0,.58-6V111.34q0-3.88-1.32-5.29a4,4,0,0,0-1.86-1.24,9.3,9.3,0,0,0-2-.5c-.55-.05-.83-.14-.83-.25q0-2.4.5-2.48a114.55,114.55,0,0,0,13.22-2.48.53.53,0,0,1,.25-.12,1.75,1.75,0,0,1,.41,0q.41,0,.66.58a1.52,1.52,0,0,1,.17.91,28.17,28.17,0,0,0-.33,3c0,.22.05.36.17.41a1.22,1.22,0,0,0,.41-.25,18.32,18.32,0,0,1,5.08-3.47A14.46,14.46,0,0,1,539.45,98.62Z"/><path class="cls-2" d="M84.66,170.93a20.12,20.12,0,0,0-.83-6.61q-.41-1-2.77-1.57a16.59,16.59,0,0,0-3.68-.58c-.22,0-.34-.4-.37-1.2a2.8,2.8,0,0,1,.21-1.53q8.84.58,10.41.58,2.15,0,5.54-.29t4.21-.29a3.44,3.44,0,0,1,.17,1.32c0,.94-.11,1.4-.33,1.4a15.84,15.84,0,0,0-3.55.62,5.36,5.36,0,0,0-3.14,1.69,19.3,19.3,0,0,0-.91,6.86v31.31q0,3,.33,11.57a3,3,0,0,1-1.82.33q-1.32,0-2.64-1.9L52.6,169v33.46a23,23,0,0,0,.66,6.77q.41,1,3.06,1.69a17.09,17.09,0,0,0,3.72.7q.25,0,.29,1.16a4.49,4.49,0,0,1-.12,1.57q-9.91-.5-10.33-.5-2.23,0-5.49.21l-4.34.29a2.07,2.07,0,0,1-.33-1.4q0-1.32.33-1.32a15.65,15.65,0,0,0,3.76-.62,4.51,4.51,0,0,0,3-1.86q.83-1.73.83-6.94V169.86q0-4.46-.91-6-.33-.58-2.85-1.07a21.53,21.53,0,0,0-3.68-.5q-.33,0-.37-1.24a2.31,2.31,0,0,1,.29-1.57q8.67.41,9.83.41,2.73,0,7.44-.41a85.67,85.67,0,0,0,5.74,8.8q4.17,5.82,11.44,15.37t9.91,13.18a23.65,23.65,0,0,0,.17-3.39Z"/><path class="cls-2" d="M117,177.62A18.21,18.21,0,0,1,130.26,183a17.7,17.7,0,0,1,5.49,13.09,18.75,18.75,0,0,1-32,13.14,18.6,18.6,0,0,1,0-26.27A18.1,18.1,0,0,1,117,177.62Zm-1.07,3.88a6.65,6.65,0,0,0-6,3.76,17.76,17.76,0,0,0-2.15,9,24.08,24.08,0,0,0,2.69,11.65q2.68,5,7.48,5A6.73,6.73,0,0,0,124,207a17.57,17.57,0,0,0,2.19-8.92,28.36,28.36,0,0,0-1.07-8,14.57,14.57,0,0,0-3.47-6.16A7.66,7.66,0,0,0,115.92,181.51Z"/><path class="cls-2" d="M145,183.41h-5q-.58,0-.58-2.15a2.07,2.07,0,0,1,.08-.74,23.1,23.1,0,0,0,6.36-4.38q1.07-1.07,2.35-2.44t3-3.51a5.88,5.88,0,0,1,1.57.21c.5.14.74.29.74.46v8.1l6,0,4.09,0q.66,0,.66.74a8,8,0,0,1-.83,3.63h-9.91v19.91a7.84,7.84,0,0,0,1.4,5,4.72,4.72,0,0,0,3.88,1.74,7.78,7.78,0,0,0,1.73-.21,8.77,8.77,0,0,0,1.49-.45q.58-.25,1.07-.5a2.58,2.58,0,0,1,.58-.25q.33-.08.74.74c.28.55.38.91.33,1.07q-.5,1.16-3.51,2.68a13,13,0,0,1-5.91,1.53,10.42,10.42,0,0,1-7.31-2.77q-3-2.77-3-8.55Z"/><path class="cls-2" d="M197,159.94q1.49,0,11.4-.5a3.81,3.81,0,0,1,.12,1.49q0,1.16-.29,1.16a9.14,9.14,0,0,0-3,.58q-1.65.58-1.65,1.73a5.18,5.18,0,0,0,.74,2.15l8.76,16q.41.41.83-.17,3.55-5.29,6.86-10.91t3.3-7.1q0-.91-1.53-1.61a9.71,9.71,0,0,0-4-.7q-.33,0-.33-1.16a2.85,2.85,0,0,1,.25-1.49q8.34.5,9.91.5,1.9,0,3.43-.08t3.14-.21l2.52-.21a5.48,5.48,0,0,1,.17,1.32c0,.88-.11,1.32-.33,1.32a11.49,11.49,0,0,0-3.43.74,6.72,6.72,0,0,0-3.18,2q-2.4,3.55-8.59,13.59T216,189.52v12.89a31.6,31.6,0,0,0,.66,7.44q.16.58,2.27,1.28a11.58,11.58,0,0,0,2.77.7c.22,0,.33.44.33,1.32a4.3,4.3,0,0,1-.17,1.32l-3.14-.25q-2.07-.17-3.8-.25t-3.39-.08q-2.23,0-6.07.25t-4.75.33a1.91,1.91,0,0,1-.33-1.32q0-1.32.25-1.32a11.27,11.27,0,0,0,3.06-.66q2.06-.66,2.31-1.32a29.48,29.48,0,0,0,.66-7.27V190.34a5.18,5.18,0,0,0-.54-1.61q-.54-1.2-1.86-3.64t-2.31-4.21l-3.22-5.74-3.3-5.87q-2.4-4.46-4.3-5.7a8.28,8.28,0,0,0-2.44-1,9.87,9.87,0,0,0-2.35-.46c-.17,0-.26-.27-.29-.83a2.53,2.53,0,0,1,.12-1.16Q188.13,159.94,197,159.94Z"/><path class="cls-2" d="M251.13,177.62A18.21,18.21,0,0,1,264.39,183a17.7,17.7,0,0,1,5.49,13.09,18.84,18.84,0,1,1-18.75-18.51Zm-1.07,3.88a6.65,6.65,0,0,0-6,3.76,17.76,17.76,0,0,0-2.15,9,24.08,24.08,0,0,0,2.69,11.65q2.68,5,7.48,5a6.73,6.73,0,0,0,6.07-3.8,17.57,17.57,0,0,0,2.19-8.92,28.36,28.36,0,0,0-1.07-8,14.57,14.57,0,0,0-3.47-6.16A7.66,7.66,0,0,0,250.06,181.51Z"/><path class="cls-2" d="M310.45,186.54V202.9a18.32,18.32,0,0,0,.66,5.78,1.71,1.71,0,0,0,1,.66,6.4,6.4,0,0,0,1.45.33,12.28,12.28,0,0,0,1.36.08,1.52,1.52,0,0,1,.7.08c.22.06.33.3.33.74a6.26,6.26,0,0,1-.17,1.12c-.11.52-.28.79-.5.79a19,19,0,0,0-2.93.29l-3.43.58q-1.65.29-3.14.62t-3.3.66q-.58,0-.58-1.32v-3.63c-.06-.28-.14-.41-.25-.41a18.44,18.44,0,0,1-5,3.72,13.84,13.84,0,0,1-6.53,1.65,8.65,8.65,0,0,1-4.92-1.41,10,10,0,0,1-3.3-3.63,17.74,17.74,0,0,1-1.73-4.79,25.22,25.22,0,0,1-.54-5.21v-9.25q0-3.88-1.32-5.29a4.59,4.59,0,0,0-1.9-1.24,8.68,8.68,0,0,0-2-.5c-.55-.05-.83-.14-.83-.25q0-2.4.41-2.48a62.32,62.32,0,0,0,6.77-1,64.77,64.77,0,0,0,6.53-1.49,1.34,1.34,0,0,0,.33-.08,1.41,1.41,0,0,1,.33-.08q.41,0,.62.58a2.94,2.94,0,0,1,.21.91q-.74,5.62-.74,7.27v9.91q0,6.44,1.82,9.25t5.87,2.81a6.48,6.48,0,0,0,4.46-1.61,4.4,4.4,0,0,0,1.82-3.1V190.34q0-3.88-1.32-5.29a4,4,0,0,0-1.86-1.24,9.32,9.32,0,0,0-2-.5c-.55-.05-.83-.14-.83-.25q0-2.4.5-2.48a63.43,63.43,0,0,0,6.69-1,64.74,64.74,0,0,0,6.53-1.49,4.75,4.75,0,0,0,.66-.17q.41,0,.66.58a1.53,1.53,0,0,1,.17.91Q310.45,185.06,310.45,186.54Z"/><path class="cls-3" d="M526.72,96.09,383.8,202.17a13.66,13.66,0,0,1-19.1-2.85h0a13.66,13.66,0,0,1,2.85-19.1L510.47,74.14A13.66,13.66,0,0,1,529.57,77h0A13.66,13.66,0,0,1,526.72,96.09Z"/><path class="cls-1" d="M385.55,175.12a6,6,0,0,1,1.66-.91,4.11,4.11,0,0,1,4.26,1l-1.58,1.69a3.39,3.39,0,0,0-1.6-.67,2.12,2.12,0,0,0-1.55.44,2.35,2.35,0,0,0-1,2,5.18,5.18,0,0,0,1.19,3,5.63,5.63,0,0,0,2.41,2.05,2.24,2.24,0,0,0,2.24-.28,2.62,2.62,0,0,0,1.15-1.6,2.06,2.06,0,0,0-.42-1.63l1.84-1.36A3.78,3.78,0,0,1,395,182a5.11,5.11,0,0,1-2.13,2.91,4.59,4.59,0,0,1-3.94.89,6.81,6.81,0,0,1-3.8-2.8,6.61,6.61,0,0,1-1.54-4.47A4.58,4.58,0,0,1,385.55,175.12Z"/><path class="cls-1" d="M395.89,171.13a4.87,4.87,0,0,1,1.5-.76,3.48,3.48,0,0,1,1.58-.1,4.77,4.77,0,0,1,3.08,2.07,4.72,4.72,0,0,1,1.06,3.53,4,4,0,0,1-1.72,2.71,4.1,4.1,0,0,1-3.12.87,4.68,4.68,0,0,1-3.06-2,4.73,4.73,0,0,1-1.08-3.55A4.1,4.1,0,0,1,395.89,171.13Zm4.44,2.46a3.36,3.36,0,0,0-1.67-1.35,1.8,1.8,0,0,0-1.62.34,2,2,0,0,0-.86,1.5,3.07,3.07,0,0,0,.75,2,3.31,3.31,0,0,0,1.68,1.35,1.82,1.82,0,0,0,1.62-.34,2,2,0,0,0,.85-1.49A3.07,3.07,0,0,0,400.33,173.59Z"/><path class="cls-1" d="M408.72,164A3,3,0,0,1,410,160.7a3,3,0,0,1,2.59-.59,4.32,4.32,0,0,1,2.34,1.77l3,4.12-1.73,1.28-3-4.12a2.07,2.07,0,0,0-1.25-.9,1.73,1.73,0,0,0-1.35.38,1.65,1.65,0,0,0-.68,1.42,4,4,0,0,0,.87,2.14l2.45,3.31-1.71,1.27-3-4.12a2.07,2.07,0,0,0-1.25-.9,1.73,1.73,0,0,0-1.35.38,1.81,1.81,0,0,0-.72,1.47,3.75,3.75,0,0,0,.84,2.21l2.41,3.26-1.71,1.27-5.22-7.05,1.49-1.11,1.09,1.08a2.9,2.9,0,0,1,1.19-3.06,3.15,3.15,0,0,1,1.77-.68A3,3,0,0,1,408.72,164Z"/><path class="cls-1" d="M413.49,154.87a1.21,1.21,0,0,1-.27-.94,1.58,1.58,0,0,1,1.56-1.15,1.36,1.36,0,0,1,1.08,1.47,1.58,1.58,0,0,1-1.56,1.15A1.21,1.21,0,0,1,413.49,154.87Zm1.88,2.11,1.71-1.27,5.23,7.07-1.71,1.27Z"/><path class="cls-1" d="M422.58,153.56a3.19,3.19,0,0,1,3.79-3.66,4.49,4.49,0,0,1,2.33,1.77l3,4.12L430,157.07l-3-4.12a2.07,2.07,0,0,0-1.25-.9,1.73,1.73,0,0,0-1.35.38,1.81,1.81,0,0,0-.72,1.47,3.75,3.75,0,0,0,.84,2.21l2.41,3.26-1.71,1.27L420,153.59l1.49-1.11Z"/><path class="cls-1" d="M432.72,150.62a2.84,2.84,0,0,1-2.2-1.18,2.81,2.81,0,0,1-.47-2.52,3.92,3.92,0,0,1,1.49-2.16,4.75,4.75,0,0,1,2.19-1,2.38,2.38,0,0,1-.28-1.86,2.7,2.7,0,0,1,1.06-1.57l1.13,1.7q-1.25.92-.68,1.78a2.69,2.69,0,0,1,1.55,1,3.11,3.11,0,0,1,.62,1.35,2.91,2.91,0,0,1-.08,1.28,4.09,4.09,0,0,1-1.6,2.26,4.54,4.54,0,0,1-1.45.74.87.87,0,0,0-.07,1.13q.48.65,1.59-.16l2.36-1.75q2.41-1.78,3.65-.1a3,3,0,0,1,.54,1.32,3.69,3.69,0,0,1-.11,1.57,5.86,5.86,0,0,1-2.3,3.14A6.33,6.33,0,0,1,436.3,157a2.46,2.46,0,0,1-2.25-.92,1.71,1.71,0,0,1-.37-1.33,2.35,2.35,0,0,1,.69-1.26,1.88,1.88,0,0,1-1.81-.66,1.48,1.48,0,0,1-.31-1.08A2.2,2.2,0,0,1,432.72,150.62Zm3.56,2.08q-1.32,1.07-.6,2a1.11,1.11,0,0,0,1.16.37,3.62,3.62,0,0,0,1.58-.71,5.64,5.64,0,0,0,1.13-1,3.11,3.11,0,0,0,.49-.9,1.55,1.55,0,0,0-.12-1.53.69.69,0,0,0-.5-.29.94.94,0,0,0-.65.22Zm-1.39-6.52a1.73,1.73,0,0,0-1-.72,1.56,1.56,0,0,0-1.27.37,1.54,1.54,0,0,0-.38,2.34,1.7,1.7,0,0,0,1.06.71,1.63,1.63,0,0,0,1.29-.37,1.55,1.55,0,0,0,.71-1.11A1.77,1.77,0,0,0,434.89,146.18Z"/><path class="cls-1" d="M441.57,134l2.15-1.59,10.05,7.13L452,140.85l-2.16-1.55-3.5,2.59.83,2.52-1.81,1.34Zm4.22,6.31,2.64-2-4.3-3.08Z"/><path class="cls-1" d="M459.19,133.54a2.78,2.78,0,0,1-1.11,3,3,3,0,0,1-3.55.36,3.88,3.88,0,0,1-1.13-1.07l-3.33-4.5,1.71-1.27,3.2,4.32a1.78,1.78,0,0,0,1.1.79,1.37,1.37,0,0,0,1.07-.27,2.68,2.68,0,0,0,.72-.74,2,2,0,0,0,.27-.84,3.22,3.22,0,0,0-.67-2.09l-2.58-3.48,1.71-1.27,5.23,7.07-1.71,1.27Z"/><path class="cls-1" d="M463,128.21a2.84,2.84,0,0,1-2.2-1.18,2.81,2.81,0,0,1-.47-2.52,3.92,3.92,0,0,1,1.49-2.16,4.75,4.75,0,0,1,2.19-1,2.38,2.38,0,0,1-.28-1.86,2.7,2.7,0,0,1,1.06-1.57l1.13,1.7q-1.25.92-.68,1.78a2.69,2.69,0,0,1,1.55,1,3.11,3.11,0,0,1,.62,1.35,2.91,2.91,0,0,1-.08,1.28,4.09,4.09,0,0,1-1.6,2.26,4.54,4.54,0,0,1-1.45.74.87.87,0,0,0-.07,1.13q.48.65,1.59-.16l2.36-1.75q2.41-1.78,3.65-.1a3,3,0,0,1,.54,1.32,3.69,3.69,0,0,1-.11,1.57,5.86,5.86,0,0,1-2.3,3.14,6.33,6.33,0,0,1-3.36,1.38,2.46,2.46,0,0,1-2.25-.92,1.71,1.71,0,0,1-.37-1.33,2.35,2.35,0,0,1,.69-1.26,1.88,1.88,0,0,1-1.81-.66,1.48,1.48,0,0,1-.31-1.08A2.2,2.2,0,0,1,463,128.21Zm3.56,2.08q-1.32,1.07-.6,2a1.11,1.11,0,0,0,1.16.37,3.62,3.62,0,0,0,1.58-.71,5.64,5.64,0,0,0,1.13-1,3.11,3.11,0,0,0,.49-.9,1.55,1.55,0,0,0-.12-1.53.69.69,0,0,0-.5-.29.94.94,0,0,0-.65.22Zm-1.39-6.52a1.73,1.73,0,0,0-1-.72,1.56,1.56,0,0,0-1.27.37,1.54,1.54,0,0,0-.38,2.34,1.7,1.7,0,0,0,1.06.71,1.63,1.63,0,0,0,1.29-.37,1.55,1.55,0,0,0,.71-1.11A1.77,1.77,0,0,0,465.18,123.77Z"/><path class="cls-1" d="M476.73,120.56a2.78,2.78,0,0,1-1.11,3,3,3,0,0,1-3.55.36,3.88,3.88,0,0,1-1.13-1.07l-3.33-4.5,1.71-1.27,3.2,4.32a1.78,1.78,0,0,0,1.1.79,1.37,1.37,0,0,0,1.07-.27,2.68,2.68,0,0,0,.72-.74,2,2,0,0,0,.27-.84,3.22,3.22,0,0,0-.67-2.09l-2.58-3.48,1.71-1.27,5.23,7.07-1.71,1.27Z"/><path class="cls-1" d="M481.45,115.72q.77,1,2.21-.08a2,2,0,0,0,.73-.91.84.84,0,0,0-.06-.82.74.74,0,0,0-.58-.33,2.68,2.68,0,0,0-.92.19l-1.95.59q-2.15.67-3.15-.68a2.07,2.07,0,0,1-.26-2,4.73,4.73,0,0,1,1.76-2.14,4,4,0,0,1,2.53-1,2.41,2.41,0,0,1,1.87.93L482,110.66a.88.88,0,0,0-.74-.3,2,2,0,0,0-1,.44,1.84,1.84,0,0,0-.71.87.79.79,0,0,0,.07.75q.38.51,1.41.12l2.13-.61a4.12,4.12,0,0,1,1.79-.23,1.83,1.83,0,0,1,1.26.78,2.32,2.32,0,0,1,.29,2.12,4.45,4.45,0,0,1-1.77,2.34A4.71,4.71,0,0,1,482,118a2.55,2.55,0,0,1-2.15-1.09Z"/><path class="cls-1" d="M493.57,109.81a5.54,5.54,0,0,1-1.23,1.49,4,4,0,0,1-1.06.58,2.72,2.72,0,0,1-1,.15,2.59,2.59,0,0,1-1.88-1.15l-2.92-3.95-1,.73-.85-1.15,1-.73-1.37-1.86,1.71-1.27,1.37,1.86,1.91-1.42.85,1.15-1.91,1.42,2.88,3.89a.93.93,0,0,0,1.47.26,4.34,4.34,0,0,0,.92-1Z"/><path class="cls-1" d="M491.95,97.81a5.23,5.23,0,0,0,1.35-2.19l1.29-1,7,9.47-1.71,1.27L494.39,98a4.19,4.19,0,0,1-1.23,1.47Z"/><path class="cls-1" d="M500.43,90.15a5.62,5.62,0,0,1,3.27-1.24,2.86,2.86,0,0,1,2.49,1.15,2.34,2.34,0,0,1,.45,1.63,2.87,2.87,0,0,1-.87,1.75,5.92,5.92,0,0,1,2.39-.26,2.52,2.52,0,0,1,1.62,1,2.83,2.83,0,0,1,.39,2.72,6.33,6.33,0,0,1-2.39,2.93,6.07,6.07,0,0,1-3.47,1.35,2.85,2.85,0,0,1-2.54-1.15,2.26,2.26,0,0,1-.44-1.89,3.51,3.51,0,0,1,1.09-1.82,4.24,4.24,0,0,1-2.88-.32,2.53,2.53,0,0,1-.77-.71,2.73,2.73,0,0,1-.44-2.58A5.4,5.4,0,0,1,500.43,90.15Zm3.94,5.71A2.62,2.62,0,0,0,503.21,98a1.21,1.21,0,0,0,.25.6A1.13,1.13,0,0,0,504,99a1.81,1.81,0,0,0,.79.07,4,4,0,0,0,1.89-.86,4.42,4.42,0,0,0,1.39-1.46,1,1,0,0,0,0-1.1,1.09,1.09,0,0,0-.76-.47,2.92,2.92,0,0,0-1.06.1Zm-2.07-1.46,1.4-.38a2.67,2.67,0,0,0,1-1.25,1.32,1.32,0,0,0-.17-1.29A1.29,1.29,0,0,0,503.3,91a3.06,3.06,0,0,0-1.62.67,3.36,3.36,0,0,0-1.12,1.3,1.17,1.17,0,0,0,.09,1.25Q501.06,94.71,502.3,94.39Z"/></svg>