<?xml version="1.0" encoding="utf-8"?>
<!-- Generator: Adobe Illustrator 21.1.0, SVG Export Plug-In . SVG Version: 6.00 Build 0)  -->
<svg version="1.1" xmlns="http://www.w3.org/2000/svg" xmlns:xlink="http://www.w3.org/1999/xlink" x="0px" y="0px"
	 viewBox="0 0 892.6 196.5" style="enable-background:new 0 0 892.6 196.5;" xml:space="preserve">
<style type="text/css">
	.st0{fill:#F8EDF4;}
	.st1{fill:#FFFFFF;}
	.st2{fill:#FAEFE6;}
	.st3{fill:#1414EF;}
	.st4{fill:#FFFFFF;stroke:#1414EF;stroke-width:1.2;stroke-miterlimit:10;}
	.st5{fill:#EB7975;}
	.st6{fill:#606060;}
	.st7{fill:none;}
	.st8{fill:none;stroke:#1414EF;stroke-width:1.5;stroke-miterlimit:10;}
	.st9{fill:none;stroke:#1414EF;stroke-width:1.5;stroke-linejoin:bevel;stroke-miterlimit:10;}
	.st10{fill:#FFFFFF;stroke:#1414EF;stroke-width:1.2587;stroke-miterlimit:10;}
	.st11{fill:#FFFFFF;stroke:#1414EF;stroke-width:2;stroke-miterlimit:10;}
	.st12{fill:none;stroke:#1414EF;stroke-width:3.025;stroke-miterlimit:10;}
	.st13{fill:none;stroke:#1414EF;stroke-width:3.025;stroke-linejoin:bevel;stroke-miterlimit:10;}
	.st14{fill:none;stroke:#1414EF;stroke-width:15;stroke-miterlimit:10;}
	.st15{fill:#EB7975;stroke:#FAEFE6;stroke-width:1.4;stroke-miterlimit:10;}
</style>
<g id="Layer_1">
	<g>
		<g>
			<path class="st3" d="M41.5,4.6h3.1v16.9h-3.1V4.6z"/>
			<path class="st3" d="M52.6,11c0.8-1.7,2.2-2.5,4-2.5c1.6,0,2.7,0.5,3.5,1.5c0.8,1,1.2,2.4,1.2,4.1v7.4h-3.1v-7.4
				c0-0.9-0.2-1.6-0.7-2.1c-0.5-0.5-1.1-0.7-1.9-0.7s-1.5,0.4-2.1,1.1c-0.6,0.7-0.9,1.8-0.9,3.3v5.8h-3.1V8.8h2.7L52.6,11z"/>
			<path class="st3" d="M73.2,21.1c-1.1,0.5-2,0.7-2.7,0.7c-0.7,0-1.2-0.1-1.7-0.2c-0.5-0.2-0.9-0.4-1.3-0.7
				c-0.8-0.7-1.2-1.7-1.2-2.9v-7.1h-1.8V8.8h1.8V5.5h3.1v3.3h3.4v2.1h-3.4v7c0,1,0.5,1.6,1.5,1.6c0.5,0,1.2-0.1,1.9-0.4L73.2,21.1z"
				/>
			<path class="st3" d="M79.7,11.3c0.8-1.8,1.9-2.7,3.4-2.7c0.3,0,0.7,0.1,1.1,0.2l-0.1,3.1c-0.5-0.1-1-0.2-1.4-0.2
				c-2,0-3.1,1.4-3.1,4.2v5.5h-3.1V8.8h3.1V11.3z"/>
			<path class="st3" d="M92.7,8.5c0.8,0,1.6,0.1,2.4,0.4c0.7,0.3,1.4,0.7,1.9,1.2c1.2,1.2,1.8,2.9,1.8,5c0,2.1-0.6,3.8-1.8,5
				c-1.1,1.1-2.5,1.7-4.3,1.7s-3.3-0.6-4.4-1.7c-1.2-1.2-1.8-2.9-1.8-5c0-2.2,0.6-3.8,1.8-5C89.4,9,90.8,8.5,92.7,8.5z M95.7,15.1
				c0-1.3-0.3-2.3-0.8-3c-0.5-0.7-1.2-1-2.2-1c-0.9,0-1.7,0.3-2.3,1c-0.6,0.7-0.9,1.7-0.9,3c0,1.3,0.3,2.3,0.8,3
				c0.5,0.7,1.3,1,2.2,1c0.9,0,1.7-0.3,2.3-1C95.4,17.5,95.7,16.5,95.7,15.1z"/>
			<path class="st3" d="M110.9,19.5c-0.8,1.5-2,2.3-3.6,2.3c-1.6,0-3-0.6-4.1-1.8c-1.1-1.3-1.7-2.9-1.7-4.9c0-2,0.5-3.6,1.6-4.8
				c1.1-1.2,2.4-1.8,4-1.8s2.8,0.6,3.6,1.9V3.6h3.1v17.8h-2.5L110.9,19.5z M107.7,11.2c-0.9,0-1.6,0.4-2.2,1.1
				c-0.6,0.7-0.9,1.6-0.9,2.8s0.3,2.1,0.9,2.8c0.6,0.7,1.3,1.1,2.2,1.1c0.7,0,1.4-0.3,2-0.9c0.6-0.6,0.9-1.4,0.9-2.3v-1.6
				c0-0.9-0.3-1.6-0.9-2.2C109.3,11.5,108.6,11.2,107.7,11.2z"/>
			<path class="st3" d="M127.3,19.1c-0.8,1.7-2.1,2.5-3.8,2.5c-2.2,0-3.7-0.9-4.4-2.6c-0.3-0.6-0.4-1.3-0.4-2.2V8.8h3.1v7.7
				c0,0.8,0.2,1.5,0.6,1.9c0.4,0.4,0.9,0.6,1.5,0.6c0.6,0,1.1-0.1,1.5-0.2c0.4-0.2,0.7-0.4,1-0.7c0.6-0.7,1-1.7,1-3V8.8h3.1v12.7
				h-3.1V19.1z"/>
			<path class="st3" d="M140.3,8.5c0.8,0,1.5,0.1,2.1,0.4c0.6,0.3,1.2,0.6,1.6,1.1c0.9,0.8,1.4,1.9,1.5,3.1l-3.1,0.1
				c-0.1-0.6-0.4-1-0.8-1.4c-0.4-0.4-0.8-0.5-1.3-0.5c-0.5,0-0.9,0.1-1.2,0.2c-0.3,0.1-0.7,0.4-0.9,0.7c-0.6,0.7-0.9,1.7-0.9,3
				c0,1.3,0.3,2.2,0.8,2.9c0.6,0.6,1.2,1,2,1c0.8,0,1.4-0.2,1.7-0.6c0.4-0.4,0.5-0.9,0.5-1.5h3.1c0,1.4-0.5,2.5-1.4,3.5
				c-0.9,0.9-2.2,1.4-3.9,1.4c-1.7,0-3.1-0.6-4.2-1.8c-1.2-1.3-1.8-2.9-1.8-4.9c0-2,0.6-3.7,1.8-4.9C137.2,9,138.6,8.5,140.3,8.5z"
				/>
			<path class="st3" d="M156.6,21.1c-1.1,0.5-2,0.7-2.7,0.7c-0.7,0-1.2-0.1-1.7-0.2c-0.5-0.2-0.9-0.4-1.3-0.7
				c-0.8-0.7-1.2-1.7-1.2-2.9v-7.1h-1.8V8.8h1.8V5.5h3.1v3.3h3.4v2.1h-3.4v7c0,1,0.5,1.6,1.5,1.6c0.5,0,1.2-0.1,1.9-0.4L156.6,21.1z
				"/>
			<path class="st3" d="M159.9,4.7c0-0.6,0.2-1,0.5-1.3c0.3-0.3,0.8-0.5,1.4-0.5c0.6,0,1.1,0.2,1.4,0.5c0.3,0.3,0.5,0.8,0.5,1.3
				s-0.2,1-0.5,1.3c-0.3,0.3-0.8,0.5-1.4,0.5c-0.6,0-1.1-0.2-1.4-0.5C160.1,5.7,159.9,5.3,159.9,4.7z M160.3,8.8h3.1v12.7h-3.1V8.8z
				"/>
			<path class="st3" d="M173.8,8.5c0.8,0,1.6,0.1,2.4,0.4c0.7,0.3,1.4,0.7,1.9,1.2c1.2,1.2,1.8,2.9,1.8,5c0,2.1-0.6,3.8-1.8,5
				c-1.1,1.1-2.5,1.7-4.3,1.7s-3.3-0.6-4.4-1.7c-1.2-1.2-1.8-2.9-1.8-5c0-2.2,0.6-3.8,1.8-5C170.5,9,172,8.5,173.8,8.5z M176.8,15.1
				c0-1.3-0.3-2.3-0.8-3c-0.5-0.7-1.2-1-2.2-1c-0.9,0-1.7,0.3-2.3,1c-0.6,0.7-0.9,1.7-0.9,3c0,1.3,0.3,2.3,0.8,3
				c0.5,0.7,1.3,1,2.2,1c0.9,0,1.7-0.3,2.3-1C176.5,17.5,176.8,16.5,176.8,15.1z"/>
			<path class="st3" d="M186.8,11c0.8-1.7,2.2-2.5,4-2.5c1.6,0,2.7,0.5,3.5,1.5c0.8,1,1.2,2.4,1.2,4.1v7.4h-3.1v-7.4
				c0-0.9-0.2-1.6-0.7-2.1c-0.5-0.5-1.1-0.7-1.9-0.7s-1.5,0.4-2.1,1.1c-0.6,0.7-0.9,1.8-0.9,3.3v5.8h-3.1V8.8h2.7L186.8,11z"/>
			<path class="st3" d="M199.7,12.9c-0.4-0.4-0.6-0.9-0.6-1.5c0-0.6,0.2-1.1,0.6-1.5c0.4-0.4,0.9-0.6,1.5-0.6s1.1,0.2,1.6,0.6
				c0.4,0.4,0.6,0.9,0.6,1.5c0,0.6-0.2,1.1-0.6,1.5c-0.4,0.4-0.9,0.6-1.6,0.6S200.1,13.3,199.7,12.9z M199.7,20.7
				c-0.4-0.4-0.6-0.9-0.6-1.5c0-0.6,0.2-1.1,0.6-1.5s0.9-0.6,1.5-0.6s1.1,0.2,1.6,0.6s0.6,0.9,0.6,1.5c0,0.6-0.2,1.1-0.6,1.5
				c-0.4,0.4-0.9,0.6-1.6,0.6S200.1,21,199.7,20.7z"/>
			<path class="st4" d="M88.2,81.4c0,0.7-0.4,2.9-1.2,6.4c-0.8,3.6-1.5,5.4-1.9,5.7c-4.8,2.3-11.2,3.5-19.2,3.5
				c-7.3,0-13.5-2.7-18.6-8c-5.1-5.3-7.7-11.7-7.7-19.1c0-7.8,2.6-14.5,7.8-20.1c5.2-5.6,11.7-8.4,19.3-8.4c6.2,0,12.7,0.7,19.5,2.2
				c0.2,0.1,0.3,1.9,0.5,5.4c0.2,3.6,0.2,5.8,0.2,6.7c0,0.8-0.7,1.2-2,1.2c-0.3,0-0.7-0.1-1.2-0.3c-0.2-1-0.6-2-1.2-3.1
				c-0.6-1-1.4-2.2-2.6-3.6c-1.2-1.3-2.9-2.4-5.1-3.3c-2.3-0.9-4.9-1.3-7.8-1.3c-5.4,0-9.6,2.2-12.6,6.7c-3,4.5-4.5,9.8-4.5,16
				c0,6.9,1.7,12.8,5.1,17.6c3.4,4.8,8.2,7.2,14.3,7.2c4.9,0,8.8-1.5,11.6-4.6c0.7-0.8,1.4-1.8,1.9-3.1c0.6-1.3,1-2.4,1.3-3.3
				c0.3-0.9,0.5-1.3,0.6-1.3C86.9,80.7,88,80.9,88.2,81.4z"/>
			<path class="st4" d="M111.3,59.9c5.2,0,9.6,1.8,13.3,5.4c3.7,3.6,5.5,8,5.5,13.1s-1.8,9.5-5.4,13.1c-3.6,3.6-8,5.5-13.3,5.5
				s-9.7-1.8-13.3-5.5c-3.6-3.6-5.5-8-5.5-13.1c0-5.2,1.8-9.6,5.4-13.1C101.6,61.7,106,59.9,111.3,59.9z M110.2,63.8
				c-2.6,0-4.6,1.3-6,3.8c-1.4,2.5-2.1,5.5-2.1,9c0,4.5,0.9,8.3,2.7,11.6c1.8,3.3,4.3,5,7.5,5c2.6,0,4.6-1.3,6.1-3.8
				c1.5-2.5,2.2-5.5,2.2-8.9c0-2.9-0.4-5.5-1.1-8c-0.7-2.5-1.9-4.5-3.5-6.2C114.3,64.6,112.4,63.8,110.2,63.8z"/>
			<path class="st4" d="M161.5,59.9c7.1,0,10.7,5.6,10.7,16.9v7.8c0,3.4,0.2,5.8,0.6,7.4c0.1,0.4,0.9,0.8,2.3,1.2
				c1.4,0.4,2.4,0.6,2.8,0.6c0.2,0,0.3,0.4,0.3,1.2c0,0.8,0,1.3-0.1,1.6c-0.3-0.1-1.8-0.2-4.3-0.3s-4.5-0.2-5.7-0.2
				c-1.3,0-3.2,0.1-5.5,0.2c-2.3,0.2-3.8,0.3-4.3,0.3c-0.2-0.2-0.3-0.7-0.3-1.6s0.1-1.2,0.3-1.2c0.6,0,1.5-0.2,2.8-0.6
				s1.9-0.8,2-1.2c0.4-1.7,0.7-3.7,0.7-6v-7.8c0-4.6-0.6-7.8-1.9-9.6s-3.2-2.7-5.9-2.7c-1.8,0-3.3,0.5-4.6,1.4c-1.3,1-2,2-2,3.1
				v14.2c0,3.4,0.2,5.8,0.6,7.4c0.1,0.4,0.8,0.8,2.2,1.2c1.3,0.4,2.2,0.6,2.7,0.6c0.2,0,0.3,0.4,0.4,1.2c0,0.8,0,1.3-0.1,1.6
				c-0.4-0.1-1.9-0.2-4.3-0.3c-2.5-0.2-4.3-0.2-5.6-0.2c-1.3,0-3.2,0.1-5.7,0.2c-2.5,0.2-4,0.3-4.4,0.3c-0.2-0.2-0.3-0.7-0.3-1.6
				s0.1-1.2,0.3-1.2c0.7,0,1.7-0.2,3-0.6c1.3-0.4,2.1-0.8,2.2-1.2c0.4-1.7,0.6-3.7,0.6-6V72.6c0-2.6-0.4-4.3-1.3-5.3
				c-0.4-0.5-1.1-1-1.9-1.2c-0.8-0.3-1.5-0.4-2-0.5c-0.5-0.1-0.8-0.1-0.8-0.2c0-1.6,0.1-2.4,0.4-2.5c2.5-0.2,7-1,13.3-2.5
				c0.1-0.1,0.1-0.1,0.2-0.1c0.1,0,0.2,0,0.2,0c0.1,0,0.2,0,0.2,0c0.2,0,0.4,0.2,0.6,0.6c0.2,0.4,0.2,0.7,0.2,0.9
				c-0.2,1.5-0.3,2.5-0.3,3c0,0.2,0,0.4,0.1,0.4c0.1,0,0.2-0.1,0.4-0.2c1.3-1.3,3-2.5,5.1-3.5C157.3,60.4,159.4,59.9,161.5,59.9z"/>
			<path class="st4" d="M187.5,65.7h-5c-0.4,0-0.6-0.7-0.6-2.1c0-0.4,0-0.6,0.1-0.7c2.2-1,4.3-2.4,6.4-4.4c0.7-0.7,1.5-1.5,2.4-2.4
				c0.9-0.9,1.9-2.1,3-3.5c0.5,0,1.1,0.1,1.6,0.2c0.5,0.1,0.7,0.3,0.7,0.5v8.1c1.4,0,3.4,0,6,0c2.6,0,3.9,0,4.1,0
				c0.4,0,0.7,0.2,0.7,0.7c0,1.3-0.3,2.5-0.8,3.6H196v19.9c0,2.2,0.5,3.9,1.4,5c0.9,1.2,2.2,1.7,3.9,1.7c0.5,0,1.1-0.1,1.7-0.2
				c0.6-0.1,1.1-0.3,1.5-0.5c0.4-0.2,0.7-0.3,1.1-0.5c0.3-0.2,0.5-0.2,0.6-0.2c0.2-0.1,0.5,0.2,0.7,0.7c0.3,0.6,0.4,0.9,0.3,1.1
				c-0.3,0.8-1.5,1.7-3.5,2.7c-2,1-4,1.5-5.9,1.5c-2.9,0-5.3-0.9-7.3-2.8c-2-1.8-3-4.7-3-8.6V65.7z"/>
			<path class="st4" d="M228.6,59.9c2.6,0,4.9,0.5,6.9,1.5c2,1,3.6,2.3,4.8,3.9c1.2,1.6,2,3.2,2.6,4.9c0.6,1.7,0.9,3.3,0.9,4.8
				c0,1.2-0.2,2-0.6,2.3c-0.4,0.3-1.3,0.5-2.5,0.5H221c-0.4,0-0.6,0.2-0.6,0.5c0,2,0.4,3.9,1.1,5.8c0.7,1.9,1.9,3.5,3.7,4.9
				c1.7,1.4,3.8,2.1,6.2,2.1c0.8,0,1.6,0,2.4-0.1c0.8-0.1,1.5-0.2,2.1-0.4c0.7-0.2,1.2-0.4,1.7-0.5c0.5-0.2,1-0.4,1.5-0.7
				c0.5-0.3,0.9-0.6,1.1-0.7c0.2-0.1,0.8-0.5,1.7-1.1c0.1,0.1,0.2,0.2,0.4,0.5c0.2,0.3,0.2,0.6,0.2,0.8c0,0.6-0.2,1.1-0.5,1.6
				c-0.8,1.5-2.5,3-4.9,4.5c-2.4,1.5-5.2,2.2-8.2,2.2c-4.8,0-8.9-1.8-12.4-5.3c-3.5-3.6-5.2-7.9-5.2-12.9c0-5.6,1.6-10.1,4.8-13.5
				S223.6,59.9,228.6,59.9z M228,63.7c-1.3,0-2.5,0.4-3.6,1.2c-1,0.8-1.8,1.7-2.4,2.8c-0.6,1.1-1,2.1-1.2,3.1
				c-0.2,1-0.4,1.8-0.4,2.4c0,0.4,0.2,0.6,0.5,0.6h13.4c0.5,0,0.7-0.4,0.7-1.2c0-1.9-0.6-3.9-1.9-5.9
				C231.9,64.7,230.2,63.7,228,63.7z"/>
			<path class="st4" d="M248.1,61.6c0-0.5,0.1-1,0.3-1.3c6.1,0.3,9.3,0.5,9.7,0.5c0.4,0,3.7-0.2,9.9-0.5c0.1,0.2,0.2,0.6,0.2,1.2
				c0,1-0.1,1.5-0.3,1.5c-0.8,0-1.5,0.2-2.3,0.5c-0.8,0.3-1.2,0.7-1.2,1.3c0,0.3,0.1,0.6,0.4,1l5.2,7.4c0.4-0.5,1.1-1.6,2.2-3.1
				c1.1-1.5,1.9-2.6,2.4-3.5s0.8-1.5,0.8-1.9c0-0.4-0.2-0.7-0.7-1c-0.5-0.2-1-0.4-1.5-0.5c-0.5-0.1-1.1-0.1-1.7-0.1
				c-0.6,0-0.9-0.1-1-0.1c-0.2,0-0.3-0.4-0.3-1.3c0-0.7,0.1-1.1,0.3-1.3c6,0.3,9.2,0.5,9.6,0.5c0.4,0,3.2-0.2,8.6-0.5
				c0.1,0.4,0.2,0.8,0.2,1.3c0,0.9-0.1,1.3-0.2,1.3c-3.7,0.4-6.2,1.3-7.3,2.6l-8.8,10.2c-0.1,0.2-0.2,0.4-0.2,0.7
				c0,0.3,0.1,0.6,0.3,0.8l9.3,12.8c1.7,2.3,3.9,3.7,6.9,4c0.2,0,0.2,0.5,0.2,1.4c0,0.5-0.1,0.9-0.3,1.2c-0.8-0.1-1.8-0.1-3-0.2
				c-1.2-0.1-2.3-0.2-3.2-0.2c-1-0.1-2-0.1-3.1-0.1c-1.2,0-2.3,0-3.4,0.1c-1,0.1-2.2,0.1-3.5,0.2c-1.3,0.1-2.4,0.2-3.3,0.2
				c-0.1-0.5-0.2-0.9-0.2-1.1c0-1.2,0.1-1.7,0.2-1.7c0.8,0,1.6-0.2,2.4-0.6c0.8-0.4,1.2-0.9,1.2-1.4c0-0.1-0.1-0.3-0.2-0.5l-5.9-8.3
				l-5.2,7.3c-0.4,0.5-0.6,1-0.6,1.5c0,0.3,0.1,0.6,0.3,0.8c0.2,0.2,0.5,0.4,1,0.5c0.4,0.1,0.8,0.2,1.1,0.3c0.3,0.1,0.8,0.1,1.4,0.2
				c0.6,0.1,1,0.1,1.1,0.1c0.2,0,0.2,0.5,0.2,1.4c0,0.7-0.1,1.2-0.3,1.4c-0.8-0.1-1.8-0.1-2.9-0.2c-1.1-0.1-2.2-0.2-3.1-0.2
				c-0.9-0.1-1.9-0.1-3-0.1c-1,0-2,0-3,0.1c-0.9,0.1-2,0.1-3.1,0.2c-1.2,0.1-2.1,0.2-3,0.2c-0.1-0.4-0.2-0.9-0.2-1.4
				c0-0.9,0.1-1.4,0.3-1.4c3.6-0.5,6-1.6,7.2-3.1l8.8-10.7c0.1-0.2,0.2-0.4,0.2-0.7c0-0.2-0.1-0.4-0.2-0.6L254.7,66
				c-0.6-0.8-1.6-1.5-2.9-2.1c-1.3-0.6-2.5-0.9-3.4-0.9C248.2,63,248.1,62.5,248.1,61.6z"/>
			<path class="st4" d="M299.2,65.7h-5c-0.4,0-0.6-0.7-0.6-2.1c0-0.4,0-0.6,0.1-0.7c2.2-1,4.3-2.4,6.4-4.4c0.7-0.7,1.5-1.5,2.4-2.4
				c0.9-0.9,1.9-2.1,3-3.5c0.5,0,1.1,0.1,1.6,0.2c0.5,0.1,0.7,0.3,0.7,0.5v8.1c1.4,0,3.4,0,6,0c2.6,0,3.9,0,4.1,0
				c0.4,0,0.7,0.2,0.7,0.7c0,1.3-0.3,2.5-0.8,3.6h-9.9v19.9c0,2.2,0.5,3.9,1.4,5c0.9,1.2,2.2,1.7,3.9,1.7c0.5,0,1.1-0.1,1.7-0.2
				c0.6-0.1,1.1-0.3,1.5-0.5c0.4-0.2,0.7-0.3,1.1-0.5c0.3-0.2,0.5-0.2,0.6-0.2c0.2-0.1,0.5,0.2,0.7,0.7c0.3,0.6,0.4,0.9,0.3,1.1
				c-0.3,0.8-1.5,1.7-3.5,2.7c-2,1-4,1.5-5.9,1.5c-2.9,0-5.3-0.9-7.3-2.8c-2-1.8-3-4.7-3-8.6V65.7z"/>
			<path class="st4" d="M359.5,68.8v16.4c0,2.6,0.2,4.6,0.7,5.8c0.2,0.3,0.5,0.5,1,0.7c0.5,0.2,1,0.3,1.4,0.3c0.5,0.1,1,0.1,1.4,0.1
				s0.6,0,0.7,0.1c0.2,0.1,0.3,0.3,0.3,0.7c0,0.2-0.1,0.6-0.2,1.1c-0.1,0.5-0.3,0.8-0.5,0.8c-0.8,0-1.7,0.1-2.9,0.3
				c-1.2,0.2-2.3,0.4-3.4,0.6c-1.1,0.2-2.1,0.4-3.1,0.6c-1,0.2-2.1,0.4-3.3,0.7c-0.4,0-0.6-0.4-0.6-1.3V92c-0.1-0.3-0.1-0.4-0.2-0.4
				c-1.3,1.4-2.9,2.6-5,3.7c-2.1,1.1-4.3,1.7-6.5,1.7c-1.9,0-3.5-0.5-4.9-1.4c-1.4-0.9-2.5-2.1-3.3-3.6c-0.8-1.5-1.4-3.1-1.7-4.8
				c-0.4-1.7-0.5-3.4-0.5-5.2v-9.3c0-2.6-0.4-4.3-1.3-5.3c-0.5-0.5-1.1-1-1.9-1.2c-0.8-0.3-1.4-0.4-2-0.5c-0.6-0.1-0.8-0.1-0.8-0.2
				c0-1.6,0.1-2.4,0.4-2.5c1.6-0.1,3.9-0.4,6.8-1c2.9-0.5,5.1-1,6.5-1.5c0.1,0,0.2,0,0.3-0.1c0.2-0.1,0.3-0.1,0.3-0.1
				c0.3,0,0.5,0.2,0.6,0.6c0.1,0.4,0.2,0.7,0.2,0.9c-0.5,3.7-0.7,6.2-0.7,7.3v9.9c0,4.3,0.6,7.4,1.8,9.3C340,90,342,91,344.7,91
				c1.8,0,3.2-0.5,4.5-1.6c1.2-1.1,1.8-2.1,1.8-3.1V72.6c0-2.6-0.4-4.3-1.3-5.3c-0.4-0.5-1.1-1-1.9-1.2c-0.8-0.3-1.5-0.4-2-0.5
				c-0.6-0.1-0.8-0.1-0.8-0.2c0-1.6,0.2-2.4,0.5-2.5c1.5-0.1,3.8-0.4,6.7-1c2.9-0.5,5.1-1,6.5-1.5c0.1,0,0.3-0.1,0.7-0.2
				c0.3,0,0.5,0.2,0.7,0.6c0.2,0.4,0.2,0.7,0.2,0.9C359.7,65.5,359.5,67.9,359.5,68.8z"/>
			<path class="st4" d="M386.5,59.9c3.4,0,6,0.9,7.7,2.7c1.7,1.8,2.6,4.9,2.6,9.2v16.3c0,1.1,0.2,1.9,0.7,2.5c0.5,0.6,1.2,0.9,2,0.9
				s1.8-0.4,2.8-1.1c0.3,0.1,0.5,0.4,0.5,0.9c0,1.1-0.2,1.9-0.5,2.5c-0.8,0.7-1.9,1.4-3.3,2.1c-1.4,0.7-2.7,1.1-4,1.1
				c-1.3,0-2.5-0.5-3.7-1.4c-1.2-0.9-2-2-2.4-3.1c-0.1,0.1-0.3,0.2-0.6,0.5c-0.4,0.3-0.9,0.7-1.5,1.1c-0.6,0.4-1.3,0.9-2.1,1.3
				c-0.8,0.4-1.7,0.8-2.8,1.1c-1.1,0.3-2.2,0.5-3.3,0.5c-2.8,0-5-0.8-6.7-2.3c-1.7-1.5-2.6-3.6-2.6-6.2c0-1.3,0.3-2.6,1-3.7
				c0.6-1.2,1.4-2.1,2.3-2.9c0.9-0.7,2.1-1.5,3.6-2.2c1.5-0.7,2.8-1.3,3.8-1.6c1.1-0.4,2.5-0.8,4.1-1.3c1.7-0.5,2.9-0.9,3.5-1.1
				c0.5-0.2,0.7-0.7,0.7-1.3v-4.5c0-1.9-0.4-3.4-1.3-4.5c-0.9-1.1-2.1-1.7-3.6-1.7c-1.7,0-2.9,0.5-3.9,1.5c-0.9,1-1.4,2.5-1.4,4.3
				c0,1.1-0.4,1.9-1.2,2.4s-1.8,0.8-2.8,0.8c-2,0-3.5-0.7-4.3-2c0-2.6,1.8-5.1,5.4-7.4C378.8,61.1,382.6,59.9,386.5,59.9z
				 M382.8,91.6c1.5,0,2.8-0.4,3.8-1.2c1.1-0.8,1.6-1.7,1.6-2.6v-8.4c-0.4,0.2-1.2,0.4-2.4,0.8c-1.2,0.4-2.2,0.7-2.8,1
				c-0.7,0.3-1.4,0.7-2.3,1.2c-0.9,0.5-1.5,1.1-1.9,1.8s-0.6,1.5-0.6,2.3c0,1.8,0.4,3.1,1.3,3.9C380.3,91.2,381.5,91.6,382.8,91.6z"
				/>
			<path class="st4" d="M420.9,84.5c0,3.4,0.2,5.9,0.6,7.4c0.1,0.4,0.8,0.8,2,1.3c1.2,0.5,2.1,0.7,2.5,0.7c0.2,0,0.3,0.4,0.3,1.2
				c0,0.8,0,1.3-0.1,1.6c-0.8-0.1-1.8-0.1-3.1-0.2c-1.3-0.1-2.5-0.2-3.5-0.2c-1-0.1-2-0.1-3-0.1c-1,0-2.1,0-3.1,0.1
				c-1,0.1-2.2,0.1-3.5,0.2c-1.3,0.1-2.3,0.2-3.1,0.2c-0.2-0.2-0.3-0.7-0.3-1.5c0-0.8,0.1-1.2,0.3-1.2c0.6,0,1.5-0.2,2.8-0.7
				c1.2-0.5,1.9-0.9,2-1.3c0.4-1.9,0.7-4,0.7-6.1V51.5c0-2.1-0.2-4-0.5-5.6c-0.3-0.9-1.7-1.3-4.1-1.3h-0.8c-0.3,0-0.5-0.3-0.5-1
				c0-0.9,0.2-1.3,0.5-1.3c1.7-0.2,3.3-0.4,4.9-0.7c1.5-0.3,2.8-0.5,3.8-0.8c1-0.3,1.9-0.5,2.6-0.8c0.7-0.2,1.3-0.5,1.8-0.6l0.6-0.2
				h0.2c0.2,0,0.5,0.2,0.7,0.5c0.2,0.3,0.4,0.6,0.5,0.8c-0.7,2.1-1,4.7-1,7.8V84.5z"/>
			<path class="st4" d="M445.6,84.7c0,3.4,0.2,5.8,0.7,7.4c0.1,0.4,0.9,0.8,2.2,1.2c1.4,0.4,2.3,0.6,2.8,0.6c0.2,0,0.3,0.4,0.4,1.2
				c0,0.8,0,1.3-0.1,1.6c-0.4-0.1-1.9-0.2-4.4-0.3c-2.6-0.2-4.4-0.2-5.7-0.2c-1.4,0-3.3,0.1-5.8,0.2c-2.5,0.2-4,0.3-4.3,0.3
				c-0.2-0.2-0.3-0.7-0.3-1.6s0.1-1.2,0.3-1.2c0.6,0,1.6-0.2,3-0.6c1.4-0.4,2.1-0.8,2.2-1.2c0.4-1.7,0.6-3.7,0.6-6V72.6
				c0-2.6-0.4-4.3-1.3-5.3c-0.5-0.5-1.1-1-1.9-1.2c-0.8-0.3-1.4-0.4-2-0.5c-0.6-0.1-0.8-0.1-0.8-0.2c0-1.6,0.2-2.4,0.5-2.5
				c1.5-0.1,3.8-0.4,6.7-1c2.9-0.5,5.1-1,6.5-1.5c0.1,0,0.3-0.1,0.7-0.2c0.3,0,0.5,0.2,0.7,0.6c0.2,0.4,0.2,0.7,0.2,0.9
				c-0.4,3.5-0.7,5.9-0.7,7.1V84.7z M437,50.1c-1-1-1.5-2.2-1.5-3.6c0-1.4,0.5-2.6,1.5-3.6s2.2-1.5,3.6-1.5c1.4,0,2.6,0.5,3.6,1.5
				s1.5,2.2,1.5,3.6c0,1.4-0.5,2.6-1.5,3.6c-1,1-2.2,1.5-3.6,1.5C439.2,51.7,438,51.2,437,50.1z"/>
			<path class="st4" d="M466.5,92c0,0.2,0.1,0.3,0.4,0.4c0.3,0.1,0.5,0.2,0.6,0.2h8c4.1,0,6.8-2.1,8.3-6.4c0.2-0.5,0.6-0.8,1.4-0.8
				c0.8,0,1.3,0.2,1.6,0.7l-1.5,10.5h-28.1c-1.1-0.7-1.7-1.3-1.7-1.9c0-0.2,0-0.3,0.1-0.3l19.1-28.8l-8.8-0.2
				c-0.6,0-1.1,0.1-1.6,0.2c-0.5,0.1-0.9,0.3-1.3,0.5c-0.4,0.2-0.8,0.5-1.1,0.8c-0.4,0.3-0.6,0.6-0.8,0.9c-0.2,0.3-0.4,0.6-0.7,1
				s-0.4,0.7-0.5,1c-0.1,0.2-0.2,0.5-0.4,0.9c-0.2,0.4-0.2,0.6-0.2,0.7c-0.2,0.3-0.9,0.5-2.1,0.5c-0.6,0-0.9-0.1-0.9-0.2
				c0-0.3,0.2-1.7,0.6-4.3c0.4-2.6,0.6-4.7,0.7-6.3c3.2,0.3,5.9,0.5,7.8,0.5h10.1c3.3,0,6.8-0.2,10.4-0.7c0.1,0.3,0.2,0.9,0.2,2
				l-19,28.1C466.7,91.4,466.5,91.8,466.5,92z"/>
			<path class="st4" d="M506,84.7c0,3.4,0.2,5.8,0.7,7.4c0.1,0.4,0.9,0.8,2.2,1.2c1.4,0.4,2.3,0.6,2.8,0.6c0.2,0,0.3,0.4,0.4,1.2
				c0,0.8,0,1.3-0.1,1.6c-0.4-0.1-1.9-0.2-4.4-0.3c-2.6-0.2-4.4-0.2-5.7-0.2c-1.4,0-3.3,0.1-5.8,0.2c-2.5,0.2-4,0.3-4.3,0.3
				c-0.2-0.2-0.3-0.7-0.3-1.6s0.1-1.2,0.3-1.2c0.6,0,1.6-0.2,3-0.6c1.4-0.4,2.1-0.8,2.2-1.2c0.4-1.7,0.6-3.7,0.6-6V72.6
				c0-2.6-0.4-4.3-1.3-5.3c-0.5-0.5-1.1-1-1.9-1.2c-0.8-0.3-1.4-0.4-2-0.5c-0.6-0.1-0.8-0.1-0.8-0.2c0-1.6,0.2-2.4,0.5-2.5
				c1.5-0.1,3.8-0.4,6.7-1c2.9-0.5,5.1-1,6.5-1.5c0.1,0,0.3-0.1,0.7-0.2c0.3,0,0.5,0.2,0.7,0.6c0.2,0.4,0.2,0.7,0.2,0.9
				c-0.4,3.5-0.7,5.9-0.7,7.1V84.7z M497.4,50.1c-1-1-1.5-2.2-1.5-3.6c0-1.4,0.5-2.6,1.5-3.6s2.2-1.5,3.6-1.5c1.4,0,2.6,0.5,3.6,1.5
				s1.5,2.2,1.5,3.6c0,1.4-0.5,2.6-1.5,3.6c-1,1-2.2,1.5-3.6,1.5C499.6,51.7,498.4,51.2,497.4,50.1z"/>
			<path class="st4" d="M543.1,59.9c7.1,0,10.7,5.6,10.7,16.9v7.8c0,3.4,0.2,5.8,0.6,7.4c0.1,0.4,0.9,0.8,2.3,1.2
				c1.4,0.4,2.4,0.6,2.8,0.6c0.2,0,0.3,0.4,0.3,1.2c0,0.8,0,1.3-0.1,1.6c-0.3-0.1-1.8-0.2-4.3-0.3s-4.5-0.2-5.7-0.2
				c-1.3,0-3.2,0.1-5.5,0.2c-2.3,0.2-3.8,0.3-4.3,0.3c-0.2-0.2-0.3-0.7-0.3-1.6s0.1-1.2,0.3-1.2c0.6,0,1.5-0.2,2.8-0.6
				s1.9-0.8,2-1.2c0.4-1.7,0.7-3.7,0.7-6v-7.8c0-4.6-0.6-7.8-1.9-9.6s-3.2-2.7-5.9-2.7c-1.8,0-3.3,0.5-4.6,1.4c-1.3,1-2,2-2,3.1
				v14.2c0,3.4,0.2,5.8,0.6,7.4c0.1,0.4,0.8,0.8,2.2,1.2c1.3,0.4,2.2,0.6,2.7,0.6c0.2,0,0.3,0.4,0.4,1.2c0,0.8,0,1.3-0.1,1.6
				c-0.4-0.1-1.9-0.2-4.3-0.3c-2.5-0.2-4.3-0.2-5.6-0.2c-1.3,0-3.2,0.1-5.7,0.2c-2.5,0.2-4,0.3-4.4,0.3c-0.2-0.2-0.3-0.7-0.3-1.6
				s0.1-1.2,0.3-1.2c0.7,0,1.7-0.2,3-0.6c1.3-0.4,2.1-0.8,2.2-1.2c0.4-1.7,0.6-3.7,0.6-6V72.6c0-2.6-0.4-4.3-1.3-5.3
				c-0.4-0.5-1.1-1-1.9-1.2c-0.8-0.3-1.5-0.4-2-0.5c-0.5-0.1-0.8-0.1-0.8-0.2c0-1.6,0.1-2.4,0.4-2.5c2.5-0.2,7-1,13.3-2.5
				c0.1-0.1,0.1-0.1,0.2-0.1c0.1,0,0.2,0,0.2,0c0.1,0,0.2,0,0.2,0c0.2,0,0.4,0.2,0.6,0.6c0.2,0.4,0.2,0.7,0.2,0.9
				c-0.2,1.5-0.3,2.5-0.3,3c0,0.2,0,0.4,0.1,0.4c0.1,0,0.2-0.1,0.4-0.2c1.3-1.3,3-2.5,5.1-3.5C538.8,60.4,541,59.9,543.1,59.9z"/>
			<path class="st4" d="M580.1,60.1c2,0,4.3,0.4,6.9,1.1c2.6,0.7,4.8,1.1,6.6,1.1h4.7c0.1,0,0.3,0.4,0.6,1.1
				c0.3,0.7,0.4,1.3,0.4,1.7c0,0.8-0.2,1.2-0.5,1.2h-5.4c-0.2,0-0.3,0.1-0.3,0.2c0,0.1,0.2,0.8,0.7,2.1c0.5,1.4,0.7,2.7,0.7,4
				c0,3.2-1.4,6.2-4.1,8.8c-2.7,2.6-6.1,3.9-10.2,3.9c-2,0-3.7-0.1-5.1-0.3c-0.7,0.3-1.3,0.8-1.8,1.5c-0.6,0.7-0.8,1.4-0.8,2
				c0,0.6,0.3,1,0.8,1.4c0.5,0.4,1.3,0.7,2.4,0.8s2,0.3,2.8,0.3c0.8,0.1,1.9,0.1,3.3,0.2c0.6,0,1,0,1.2,0c5.5,0.2,9.5,0.9,12.1,2.3
				c2.6,1.4,3.8,3.4,3.8,6.1c0.1,4.1-1.9,7.7-5.9,10.7c-4,3-8.7,4.5-14,4.5c-4,0.1-7.5-0.7-10.5-2.3c-3-1.6-4.5-3.9-4.5-6.8
				c0-1.6,0.8-3.1,2.4-4.6c1.6-1.5,3.3-2.5,5.1-3.1c-1.4-0.4-2.8-1.3-4-2.5c-1.2-1.2-1.8-2.7-1.8-4.3c0-2.4,2-4.8,6.1-7.4
				c-1.6-0.7-3.1-2.1-4.5-4.3c-1.4-2.1-2.1-4.4-2.1-6.7c0-3.9,1.4-7,4.3-9.3C572.5,61.2,576,60.1,580.1,60.1z M591.5,103.3
				c0-1.9-1.4-3.2-4.2-3.8c-2.8-0.6-6.5-1-11.2-1c-0.1,0-0.2,0-0.4,0.1c-0.1,0.1-0.2,0.1-0.4,0.2c-0.7,0.3-1.3,0.5-1.7,0.7
				c-0.4,0.2-0.8,0.5-1.3,0.9s-0.9,0.9-1.1,1.4c-0.2,0.5-0.4,1.2-0.4,2c0,2,1,3.6,3.1,5c2.1,1.3,4.4,2,7,2c3.1,0,5.6-0.7,7.6-2.1
				C590.5,107.2,591.5,105.4,591.5,103.3z M573.8,72.1c0,2.7,0.5,5,1.7,6.8c1.1,1.8,2.6,2.8,4.6,2.8c2,0,3.5-0.8,4.5-2.4
				c1-1.6,1.4-3.5,1.4-5.8c0-2.9-0.6-5.3-1.7-7.1c-1.1-1.8-2.7-2.7-4.8-2.7c-2,0-3.4,0.9-4.4,2.6C574.3,67.9,573.8,69.9,573.8,72.1z
				"/>
			<path class="st4" d="M40.7,135c0-4.1,1.7-7.6,5.2-10.5c3.5-2.8,7.4-4.3,11.7-4.3c1.5,0,2.9,0.1,4,0.2c1.2,0.2,2.8,0.5,4.8,1
				c2.1,0.5,3.5,0.9,4.3,1c0.7,3.7,1,8,1,12.7c-0.1,0.5-0.4,0.7-1,0.7c-1.5,0-2.3-0.2-2.4-0.7c-0.3-2.5-1.5-5-3.6-7.4
				c-2-2.4-4.5-3.6-7.4-3.6c-2.5,0-4.5,0.7-5.8,2.1c-1.4,1.4-2,3.4-2,5.8c0,0.8,0.1,1.6,0.3,2.4c0.2,0.7,0.6,1.5,1.2,2.2
				c0.6,0.7,1,1.3,1.4,1.8c0.4,0.5,1,1.1,2.1,1.8c1,0.7,1.7,1.2,2.1,1.5c0.4,0.3,1.2,0.8,2.5,1.6c1.3,0.8,2.1,1.3,2.4,1.4
				c0.3,0.3,1.3,0.9,2.8,1.8c1.5,0.9,2.6,1.6,3.2,2c0.6,0.4,1.5,1.1,2.6,2.1c1.2,1,2,1.9,2.5,2.8c0.5,0.9,1,2,1.4,3.3
				c0.4,1.4,0.7,2.8,0.7,4.3c0,4.4-1.8,8-5.3,10.9c-3.6,2.9-7.7,4.3-12.4,4.3c-3.3,0-8.4-0.8-15.2-2.3c-0.5-2-1-4.5-1.4-7.5
				c-0.4-3-0.6-5-0.6-5.9c0.1-0.4,0.5-0.7,1.3-0.7c1.4,0,2.2,0.2,2.4,0.7c0.2,1,0.6,2.1,1.2,3.3c0.5,1.2,1.3,2.5,2.3,3.8
				c1,1.3,2.3,2.5,3.9,3.3c1.6,0.9,3.5,1.3,5.5,1.3c2.6,0,4.7-0.8,6.4-2.3c1.7-1.5,2.6-3.9,2.6-6.9c0-0.9-0.2-1.8-0.5-2.7
				c-0.4-0.9-0.8-1.6-1.2-2.2c-0.5-0.6-1.2-1.3-2.1-2c-0.9-0.7-1.7-1.3-2.3-1.7c-0.6-0.4-1.5-0.9-2.7-1.6c-1.2-0.7-2-1.2-2.5-1.4
				c-0.2-0.2-0.5-0.4-0.9-0.7c-1.6-1-2.8-1.8-3.6-2.3c-0.8-0.5-1.9-1.4-3.2-2.4s-2.3-2.1-2.9-3c-0.7-0.9-1.3-2.1-1.8-3.5
				C41,138,40.7,136.6,40.7,135z"/>
			<path class="st4" d="M95.9,138.9c2.6,0,4.9,0.5,6.9,1.5c2,1,3.6,2.3,4.8,3.9c1.2,1.6,2,3.2,2.6,4.9c0.6,1.7,0.9,3.3,0.9,4.8
				c0,1.2-0.2,2-0.6,2.3c-0.4,0.3-1.3,0.5-2.5,0.5H88.3c-0.4,0-0.6,0.2-0.6,0.5c0,2,0.4,3.9,1.1,5.8c0.7,1.9,1.9,3.5,3.7,4.9
				c1.7,1.4,3.8,2.1,6.2,2.1c0.8,0,1.6,0,2.4-0.1c0.8-0.1,1.5-0.2,2.1-0.4c0.7-0.2,1.2-0.4,1.7-0.5c0.5-0.2,1-0.4,1.5-0.7
				c0.5-0.3,0.9-0.6,1.1-0.7c0.2-0.1,0.8-0.5,1.7-1.1c0.1,0.1,0.2,0.2,0.4,0.5c0.2,0.3,0.2,0.6,0.2,0.8c0,0.6-0.2,1.1-0.5,1.6
				c-0.8,1.5-2.5,3-4.9,4.5c-2.4,1.5-5.2,2.2-8.2,2.2c-4.8,0-8.9-1.8-12.4-5.3c-3.5-3.6-5.2-7.9-5.2-12.9c0-5.6,1.6-10.1,4.8-13.5
				S91,138.9,95.9,138.9z M95.3,142.7c-1.3,0-2.5,0.4-3.6,1.2c-1,0.8-1.8,1.7-2.4,2.8c-0.6,1.1-1,2.1-1.2,3.1
				c-0.2,1-0.4,1.8-0.4,2.4c0,0.4,0.2,0.6,0.5,0.6h13.4c0.5,0,0.7-0.4,0.7-1.2c0-1.9-0.6-3.9-1.9-5.9
				C99.2,143.7,97.5,142.7,95.3,142.7z"/>
			<path class="st4" d="M142,138.9c7.1,0,10.7,5.6,10.7,16.9v7.8c0,3.4,0.2,5.8,0.6,7.4c0.1,0.4,0.9,0.8,2.3,1.2
				c1.4,0.4,2.4,0.6,2.8,0.6c0.2,0,0.3,0.4,0.3,1.2c0,0.8,0,1.3-0.1,1.6c-0.3-0.1-1.8-0.2-4.3-0.3s-4.5-0.2-5.7-0.2
				c-1.3,0-3.2,0.1-5.5,0.2c-2.3,0.2-3.8,0.3-4.3,0.3c-0.2-0.2-0.3-0.7-0.3-1.6s0.1-1.2,0.3-1.2c0.6,0,1.5-0.2,2.8-0.6
				s1.9-0.8,2-1.2c0.4-1.7,0.7-3.7,0.7-6v-7.8c0-4.6-0.6-7.8-1.9-9.6s-3.2-2.7-5.9-2.7c-1.8,0-3.3,0.5-4.6,1.4c-1.3,1-2,2-2,3.1
				v14.2c0,3.4,0.2,5.8,0.6,7.4c0.1,0.4,0.8,0.8,2.2,1.2c1.3,0.4,2.2,0.6,2.7,0.6c0.2,0,0.3,0.4,0.4,1.2c0,0.8,0,1.3-0.1,1.6
				c-0.4-0.1-1.9-0.2-4.3-0.3c-2.5-0.2-4.3-0.2-5.6-0.2c-1.3,0-3.2,0.1-5.7,0.2c-2.5,0.2-4,0.3-4.4,0.3c-0.2-0.2-0.3-0.7-0.3-1.6
				s0.1-1.2,0.3-1.2c0.7,0,1.7-0.2,3-0.6c1.3-0.4,2.1-0.8,2.2-1.2c0.4-1.7,0.6-3.7,0.6-6v-13.5c0-2.6-0.4-4.3-1.3-5.3
				c-0.4-0.5-1.1-1-1.9-1.2c-0.8-0.3-1.5-0.4-2-0.5c-0.5-0.1-0.8-0.1-0.8-0.2c0-1.6,0.1-2.4,0.4-2.5c2.5-0.2,7-1,13.3-2.5
				c0.1-0.1,0.1-0.1,0.2-0.1c0.1,0,0.2,0,0.2,0c0.1,0,0.2,0,0.2,0c0.2,0,0.4,0.2,0.6,0.6c0.2,0.4,0.2,0.7,0.2,0.9
				c-0.2,1.5-0.3,2.5-0.3,3c0,0.2,0,0.4,0.1,0.4c0.1,0,0.2-0.1,0.4-0.2c1.3-1.3,3-2.5,5.1-3.5C137.8,139.4,139.9,138.9,142,138.9z"
				/>
			<path class="st4" d="M168,144.7h-5c-0.4,0-0.6-0.7-0.6-2.1c0-0.4,0-0.6,0.1-0.7c2.2-1,4.3-2.4,6.4-4.4c0.7-0.7,1.5-1.5,2.4-2.4
				c0.9-0.9,1.9-2.1,3-3.5c0.5,0,1.1,0.1,1.6,0.2c0.5,0.1,0.7,0.3,0.7,0.5v8.1c1.4,0,3.4,0,6,0c2.6,0,3.9,0,4.1,0
				c0.4,0,0.7,0.2,0.7,0.7c0,1.3-0.3,2.5-0.8,3.6h-9.9v19.9c0,2.2,0.5,3.9,1.4,5c0.9,1.2,2.2,1.7,3.9,1.7c0.5,0,1.1-0.1,1.7-0.2
				c0.6-0.1,1.1-0.3,1.5-0.5c0.4-0.2,0.7-0.3,1.1-0.5c0.3-0.2,0.5-0.2,0.6-0.2c0.2-0.1,0.5,0.2,0.7,0.7c0.3,0.6,0.4,0.9,0.3,1.1
				c-0.3,0.8-1.5,1.7-3.5,2.7c-2,1-4,1.5-5.9,1.5c-2.9,0-5.3-0.9-7.3-2.8c-2-1.8-3-4.7-3-8.6V144.7z"/>
			<path class="st4" d="M206.9,163.7c0,3.4,0.2,5.8,0.7,7.4c0.1,0.4,0.9,0.8,2.2,1.2c1.4,0.4,2.3,0.6,2.8,0.6c0.2,0,0.3,0.4,0.4,1.2
				c0,0.8,0,1.3-0.1,1.6c-0.4-0.1-1.9-0.2-4.4-0.3c-2.6-0.2-4.4-0.2-5.7-0.2c-1.4,0-3.3,0.1-5.8,0.2c-2.5,0.2-4,0.3-4.3,0.3
				c-0.2-0.2-0.3-0.7-0.3-1.6s0.1-1.2,0.3-1.2c0.6,0,1.6-0.2,3-0.6c1.4-0.4,2.1-0.8,2.2-1.2c0.4-1.7,0.6-3.7,0.6-6v-13.5
				c0-2.6-0.4-4.3-1.3-5.3c-0.5-0.5-1.1-1-1.9-1.2c-0.8-0.3-1.4-0.4-2-0.5c-0.6-0.1-0.8-0.1-0.8-0.2c0-1.6,0.2-2.4,0.5-2.5
				c1.5-0.1,3.8-0.4,6.7-1c2.9-0.5,5.1-1,6.5-1.5c0.1,0,0.3-0.1,0.7-0.2c0.3,0,0.5,0.2,0.7,0.6c0.2,0.4,0.2,0.7,0.2,0.9
				c-0.4,3.5-0.7,5.9-0.7,7.1V163.7z M198.3,129.1c-1-1-1.5-2.2-1.5-3.6c0-1.4,0.5-2.6,1.5-3.6s2.2-1.5,3.6-1.5
				c1.4,0,2.6,0.5,3.6,1.5s1.5,2.2,1.5,3.6c0,1.4-0.5,2.6-1.5,3.6c-1,1-2.2,1.5-3.6,1.5C200.5,130.7,199.3,130.2,198.3,129.1z"/>
			<path class="st4" d="M244,138.9c2.1,0,3.9,0.5,5.4,1.6s2.6,2.5,3.3,4.2c1.6-1.7,3.6-3,6-4.1c2.4-1.1,5-1.7,7.8-1.7
				c2,0,3.7,0.4,5.1,1.3c1.4,0.9,2.5,2.1,3.3,3.7c0.8,1.6,1.4,3.3,1.7,5.1c0.4,1.8,0.5,3.8,0.5,6v8.7c0,3.4,0.2,5.8,0.6,7.4
				c0.1,0.4,0.9,0.8,2.2,1.2c1.4,0.4,2.3,0.6,2.8,0.6c0.2,0,0.3,0.4,0.3,1.2c0,0.8,0,1.3-0.1,1.6c-0.4-0.1-1.8-0.2-4.3-0.3
				c-2.5-0.2-4.4-0.2-5.7-0.2c-1.3,0-3.2,0.1-5.7,0.2c-2.5,0.2-3.9,0.3-4.4,0.3c-0.2-0.2-0.2-0.7-0.2-1.6s0.1-1.2,0.2-1.2
				c0.7,0,1.7-0.2,3-0.6c1.3-0.4,2-0.8,2.1-1.2c0.4-1.7,0.6-3.6,0.6-5.8v-8.4c0-8-2.6-12-7.7-12c-1.8,0-3.3,0.4-4.5,1.3
				c-1.2,0.9-1.9,1.7-2.1,2.6c0,0.2,0,0.4,0,0.7c0,0.3,0,0.5,0,0.7c0.2,1.2,0.2,2.9,0.2,5.1v8.8c0,3.1,0.2,5.5,0.6,7.1
				c0.1,0.4,0.9,0.8,2.2,1.2c1.4,0.4,2.3,0.6,2.8,0.6c0.2,0,0.3,0.4,0.3,1.2c0,0.8,0,1.3-0.1,1.6c-0.4-0.1-1.8-0.2-4.3-0.3
				c-2.5-0.2-4.4-0.2-5.7-0.2c-1.3,0-3.2,0.1-5.7,0.2c-2.5,0.2-3.9,0.3-4.4,0.3c-0.2-0.2-0.2-0.7-0.2-1.6s0.1-1.2,0.2-1.2
				c0.7,0,1.7-0.2,3-0.6c1.3-0.4,2-0.8,2.1-1.2c0.4-1.7,0.6-3.7,0.6-6v-7.9c0-4.3-0.6-7.4-1.9-9.3c-1.3-1.9-3.1-2.9-5.6-2.9
				c-1.7,0-3.2,0.5-4.5,1.4c-1.4,0.9-2.1,2-2.1,3.1v14.2c0,3.4,0.2,5.8,0.7,7.4c0.1,0.4,0.8,0.8,2.1,1.2c1.3,0.4,2.2,0.6,2.7,0.6
				c0.2,0,0.3,0.4,0.4,1.2c0,0.8,0,1.3-0.1,1.6c-0.4-0.1-1.9-0.2-4.3-0.3c-2.5-0.2-4.3-0.2-5.6-0.2c-1.4,0-3.3,0.1-5.8,0.2
				s-3.9,0.3-4.4,0.3c-0.2-0.2-0.3-0.7-0.3-1.6s0.1-1.2,0.3-1.2c0.6,0,1.6-0.2,3-0.6c1.4-0.4,2.1-0.8,2.2-1.2c0.4-1.7,0.6-3.7,0.6-6
				v-13.5c0-2.6-0.4-4.3-1.3-5.3c-0.4-0.5-1.1-1-1.9-1.2c-0.8-0.3-1.5-0.4-2-0.5c-0.6-0.1-0.8-0.1-0.8-0.2c0-1.6,0.2-2.4,0.5-2.5
				c2.5-0.2,6.9-1,13.2-2.5c0.1-0.1,0.1-0.1,0.2-0.1c0.1,0,0.2,0,0.4,0c0.3,0,0.5,0.2,0.7,0.6c0.2,0.4,0.2,0.7,0.2,0.9
				c-0.2,1.5-0.3,2.5-0.3,3c0,0.2,0.1,0.4,0.2,0.4c0.1,0,0.2-0.1,0.4-0.2c1.3-1.3,3-2.5,5.1-3.5C239.7,139.4,241.8,138.9,244,138.9z
				"/>
			<path class="st4" d="M303.6,138.9c2.6,0,4.9,0.5,6.9,1.5c2,1,3.6,2.3,4.8,3.9c1.2,1.6,2,3.2,2.6,4.9c0.6,1.7,0.9,3.3,0.9,4.8
				c0,1.2-0.2,2-0.6,2.3c-0.4,0.3-1.3,0.5-2.5,0.5H296c-0.4,0-0.6,0.2-0.6,0.5c0,2,0.4,3.9,1.1,5.8c0.7,1.9,1.9,3.5,3.7,4.9
				c1.7,1.4,3.8,2.1,6.2,2.1c0.8,0,1.6,0,2.4-0.1c0.8-0.1,1.5-0.2,2.1-0.4c0.7-0.2,1.2-0.4,1.7-0.5c0.5-0.2,1-0.4,1.5-0.7
				c0.5-0.3,0.9-0.6,1.1-0.7c0.2-0.1,0.8-0.5,1.7-1.1c0.1,0.1,0.2,0.2,0.4,0.5c0.2,0.3,0.2,0.6,0.2,0.8c0,0.6-0.2,1.1-0.5,1.6
				c-0.8,1.5-2.5,3-4.9,4.5c-2.4,1.5-5.2,2.2-8.2,2.2c-4.8,0-8.9-1.8-12.4-5.3c-3.5-3.6-5.2-7.9-5.2-12.9c0-5.6,1.6-10.1,4.8-13.5
				S298.6,138.9,303.6,138.9z M303,142.7c-1.3,0-2.5,0.4-3.6,1.2c-1,0.8-1.8,1.7-2.4,2.8c-0.6,1.1-1,2.1-1.2,3.1
				c-0.2,1-0.4,1.8-0.4,2.4c0,0.4,0.2,0.6,0.5,0.6h13.4c0.5,0,0.7-0.4,0.7-1.2c0-1.9-0.6-3.9-1.9-5.9
				C306.9,143.7,305.2,142.7,303,142.7z"/>
			<path class="st4" d="M349.7,138.9c7.1,0,10.7,5.6,10.7,16.9v7.8c0,3.4,0.2,5.8,0.6,7.4c0.1,0.4,0.9,0.8,2.3,1.2
				c1.4,0.4,2.4,0.6,2.8,0.6c0.2,0,0.3,0.4,0.3,1.2c0,0.8,0,1.3-0.1,1.6c-0.3-0.1-1.8-0.2-4.3-0.3s-4.5-0.2-5.7-0.2
				c-1.3,0-3.2,0.1-5.5,0.2c-2.3,0.2-3.8,0.3-4.3,0.3c-0.2-0.2-0.3-0.7-0.3-1.6s0.1-1.2,0.3-1.2c0.6,0,1.5-0.2,2.8-0.6
				s1.9-0.8,2-1.2c0.4-1.7,0.7-3.7,0.7-6v-7.8c0-4.6-0.6-7.8-1.9-9.6s-3.2-2.7-5.9-2.7c-1.8,0-3.3,0.5-4.6,1.4c-1.3,1-2,2-2,3.1
				v14.2c0,3.4,0.2,5.8,0.6,7.4c0.1,0.4,0.8,0.8,2.2,1.2c1.3,0.4,2.2,0.6,2.7,0.6c0.2,0,0.3,0.4,0.4,1.2c0,0.8,0,1.3-0.1,1.6
				c-0.4-0.1-1.9-0.2-4.3-0.3c-2.5-0.2-4.3-0.2-5.6-0.2c-1.3,0-3.2,0.1-5.7,0.2c-2.5,0.2-4,0.3-4.4,0.3c-0.2-0.2-0.3-0.7-0.3-1.6
				s0.1-1.2,0.3-1.2c0.7,0,1.7-0.2,3-0.6c1.3-0.4,2.1-0.8,2.2-1.2c0.4-1.7,0.6-3.7,0.6-6v-13.5c0-2.6-0.4-4.3-1.3-5.3
				c-0.4-0.5-1.1-1-1.9-1.2c-0.8-0.3-1.5-0.4-2-0.5c-0.5-0.1-0.8-0.1-0.8-0.2c0-1.6,0.1-2.4,0.4-2.5c2.5-0.2,7-1,13.3-2.5
				c0.1-0.1,0.1-0.1,0.2-0.1c0.1,0,0.2,0,0.2,0c0.1,0,0.2,0,0.2,0c0.2,0,0.4,0.2,0.6,0.6c0.2,0.4,0.2,0.7,0.2,0.9
				c-0.2,1.5-0.3,2.5-0.3,3c0,0.2,0,0.4,0.1,0.4c0.1,0,0.2-0.1,0.4-0.2c1.3-1.3,3-2.5,5.1-3.5C345.4,139.4,347.5,138.9,349.7,138.9z
				"/>
			<path class="st4" d="M375.7,144.7h-5c-0.4,0-0.6-0.7-0.6-2.1c0-0.4,0-0.6,0.1-0.7c2.2-1,4.3-2.4,6.4-4.4c0.7-0.7,1.5-1.5,2.4-2.4
				c0.9-0.9,1.9-2.1,3-3.5c0.5,0,1.1,0.1,1.6,0.2c0.5,0.1,0.7,0.3,0.7,0.5v8.1c1.4,0,3.4,0,6,0c2.6,0,3.9,0,4.1,0
				c0.4,0,0.7,0.2,0.7,0.7c0,1.3-0.3,2.5-0.8,3.6h-9.9v19.9c0,2.2,0.5,3.9,1.4,5c0.9,1.2,2.2,1.7,3.9,1.7c0.5,0,1.1-0.1,1.7-0.2
				c0.6-0.1,1.1-0.3,1.5-0.5c0.4-0.2,0.7-0.3,1.1-0.5c0.3-0.2,0.5-0.2,0.6-0.2c0.2-0.1,0.5,0.2,0.7,0.7c0.3,0.6,0.4,0.9,0.3,1.1
				c-0.3,0.8-1.5,1.7-3.5,2.7c-2,1-4,1.5-5.9,1.5c-2.9,0-5.3-0.9-7.3-2.8c-2-1.8-3-4.7-3-8.6V144.7z"/>
			<path class="st4" d="M413.3,138.8c3.1,0,6.3,0.5,9.6,1.4c0.6,2.5,0.9,5.6,0.9,9.3c0,0.4-0.4,0.7-1.1,0.7c-1.2,0-1.9-0.2-2-0.7
				c-0.4-1.9-1.2-3.6-2.4-4.9c-1.2-1.3-2.9-2-5-2c-1.6,0-2.8,0.4-3.8,1.1c-0.9,0.7-1.4,1.7-1.4,3.1c0,0.8,0.2,1.5,0.5,2.1
				c0.3,0.6,0.8,1.2,1.5,1.8c0.7,0.6,1.3,1,1.8,1.3s1.3,0.8,2.4,1.3c0.4,0.2,0.7,0.4,0.8,0.4c0.1,0.1,0.5,0.3,1.2,0.7
				c0.7,0.4,1.2,0.6,1.4,0.7c0.2,0.1,0.6,0.4,1.3,0.8c0.7,0.4,1.2,0.7,1.4,1c0.3,0.2,0.7,0.6,1.3,1c0.6,0.4,1,0.8,1.2,1.2
				c0.2,0.3,0.6,0.8,1,1.3c0.4,0.5,0.7,1,0.9,1.5c0.2,0.5,0.3,1,0.5,1.6c0.1,0.6,0.2,1.2,0.2,1.8c0,3.5-1.3,6.2-4,8.2
				c-2.7,2-5.9,3-9.7,3c-3.4,0-7-0.8-10.7-2.3c-0.3-0.9-0.6-2.5-0.8-4.6c-0.3-2.1-0.4-3.7-0.4-4.8c0.3-0.3,0.7-0.4,1.2-0.4
				c1.3,0,1.9,0.2,2,0.7c0.4,2.3,1.5,4.2,3.3,5.6c1.7,1.4,3.6,2.1,5.7,2.1c1.5,0,2.8-0.4,3.8-1.2c1-0.8,1.5-1.9,1.5-3.4
				c0-0.5-0.1-1.1-0.2-1.5c-0.1-0.5-0.4-0.9-0.8-1.4c-0.4-0.5-0.7-0.9-1-1.2c-0.2-0.3-0.7-0.7-1.5-1.1c-0.7-0.4-1.3-0.8-1.7-1
				c-0.4-0.2-1-0.5-2.1-1.1c-1-0.5-1.7-0.9-2.1-1.1c-2.5-1.3-4.5-2.8-5.9-4.4c-1.4-1.6-2.1-3.6-2.1-5.9c0-3.4,1.3-5.9,4-7.8
				C406.7,139.7,409.8,138.8,413.3,138.8z"/>
		</g>
		<g>
			<path class="st3" d="M18.2,16.3h2.9v1.6h-7.6v-1.6h2.9V7.1L14,8.4L13.2,7l3.6-2.2h1.4V16.3z"/>
		</g>
	</g>
</g>
<g id="Layer_2">
</g>
</svg>
