<svg id="Layer_1" data-name="Layer 1" xmlns="http://www.w3.org/2000/svg" viewBox="0 0 892.59 156.62"><defs><style>.cls-1{fill:#fff;stroke-width:1.2px;}.cls-1,.cls-3{stroke:#1414ef;stroke-miterlimit:10;}.cls-2{fill:#1414ef;}.cls-3{fill:#feea80;}</style></defs><title>title</title><path class="cls-1" d="M52.26,4.34q.41,0,8.1-.5.74,2.31,3.39,8.55t6.49,15.2q3.84,9,6.15,14.75c0,.11.08.16.25.16a.22.22,0,0,0,.25-.25q7.27-17.43,11.57-28.67l3-9.58q2.48.25,6.77.25,3.22,0,9.83-.41a2.4,2.4,0,0,1,.25,1.32q0,1.4-.33,1.4h-.17a6.72,6.72,0,0,0-4,1.32q-1.24.91-1.07,4.46.33,7.35,1.16,34.12a21.82,21.82,0,0,0,1.32,7.6q.33.74,2.31,1.36a11.05,11.05,0,0,0,2.81.62q.33,0,.33,1.49a4,4,0,0,1-.17,1.24l-10.16-.5q-1.65,0-3.47.08l-4,.21-3.51.21a1.76,1.76,0,0,1-.33-1.24q0-1.49.33-1.49a9.76,9.76,0,0,0,2.64-.54,5.18,5.18,0,0,0,2.31-1.2,4.63,4.63,0,0,0,.83-2.89V46.8l-.83-25.12q-.33-5.12-1-5.12c-.17,0-.3.16-.41.5L77,55.56q-1.41,3.14-3.14,3.14a2.75,2.75,0,0,1-.83-.17L54.57,14.09Q54,34.66,53.25,50.93a9.11,9.11,0,0,0,.25,2.56q.41.91,3.3,1.73a17.78,17.78,0,0,0,3.88.83q.33,0,.33,1.49a4,4,0,0,1-.17,1.24q-9.91-.5-10.41-.5-2.23,0-5.91.25t-4.5.25a1.91,1.91,0,0,1-.33-1.32q0-1.4.33-1.4a16.47,16.47,0,0,0,4.13-.83q2.81-.82,3.22-2.15a15.37,15.37,0,0,0,.91-5.54q.16-6.28.45-14.83t.5-14.58q.21-6,.21-7.52A7.9,7.9,0,0,0,49.2,8.3Q49,7.65,46.44,7.07a18.74,18.74,0,0,0-3.59-.58c-.22,0-.33-.47-.33-1.4a1.76,1.76,0,0,1,.33-1.24l4.25.29Q50.11,4.34,52.26,4.34Z"/><path class="cls-1" d="M133.88,22a18.21,18.21,0,0,1,13.26,5.41,17.7,17.7,0,0,1,5.49,13.09,18.75,18.75,0,0,1-32,13.14,17.9,17.9,0,0,1-5.45-13.14,17.8,17.8,0,0,1,5.41-13.13A18.1,18.1,0,0,1,133.88,22Zm-1.07,3.88a6.65,6.65,0,0,0-6,3.76,17.77,17.77,0,0,0-2.15,9,24.08,24.08,0,0,0,2.69,11.65q2.68,5,7.48,5a6.73,6.73,0,0,0,6.07-3.8,17.58,17.58,0,0,0,2.19-8.92,28.36,28.36,0,0,0-1.07-8,14.57,14.57,0,0,0-3.47-6.16A7.66,7.66,0,0,0,132.81,25.9Z"/><path class="cls-1" d="M161.89,27.8h-5q-.58,0-.58-2.15a2.06,2.06,0,0,1,.08-.74,23.11,23.11,0,0,0,6.36-4.38q1.07-1.07,2.35-2.44t3-3.51a5.88,5.88,0,0,1,1.57.21c.5.14.74.29.74.46v8.1l6,0,4.09,0c.44,0,.66.25.66.74a8,8,0,0,1-.83,3.63H170.4V47.71a7.84,7.84,0,0,0,1.4,5,4.72,4.72,0,0,0,3.88,1.74,7.79,7.79,0,0,0,1.73-.21,8.67,8.67,0,0,0,1.49-.46q.58-.25,1.07-.5a2.61,2.61,0,0,1,.58-.25q.33-.08.74.74c.27.55.38.91.33,1.07q-.5,1.16-3.51,2.69a13,13,0,0,1-5.91,1.53,10.42,10.42,0,0,1-7.31-2.77q-3-2.77-3-8.55Z"/><path class="cls-1" d="M213,22q10.57,0,10.57,16.28V46.8a30.36,30.36,0,0,0,.66,7.44q.08.58,2.19,1.2a12.59,12.59,0,0,0,2.85.62c.17,0,.26.4.29,1.2a8.61,8.61,0,0,1,0,1.61q-.58-.08-4.42-.33t-5.66-.25q-2.07,0-5.58.25t-4.34.33a3.08,3.08,0,0,1-.25-1.57q0-1.24.25-1.24a9.83,9.83,0,0,0,2.85-.62q1.86-.62,2.11-1.2a31.29,31.29,0,0,0,.5-6v-8.1q0-6.86-1.86-9.46T207.24,28a7.91,7.91,0,0,0-4.54,1.4,3.9,3.9,0,0,0-2.07,3.14V46.8a30.36,30.36,0,0,0,.66,7.44q.16.58,2.19,1.2a11.62,11.62,0,0,0,2.77.62q.25,0,.29,1.2a4.67,4.67,0,0,1-.12,1.61q-.66-.08-4.34-.33t-5.58-.25q-2,0-5.74.25t-4.42.33a2.42,2.42,0,0,1-.33-1.57q0-1.24.33-1.24a11.48,11.48,0,0,0,3-.62q2-.62,2.19-1.2a26.56,26.56,0,0,0,.58-5.95V13.92a32.62,32.62,0,0,0-.41-5.62Q191.3,7,187.42,7h-.74c-.33,0-.5-.44-.5-1.32s.17-1.32.5-1.32q2.56-.25,4.87-.66t3.84-.83Q196.92,2.44,198,2t2.35-.83h.17a.89.89,0,0,1,.66.46,2.27,2.27,0,0,1,.41.87,26.63,26.63,0,0,0-1,7.77V27c0,.33.11.5.33.5.05,0,.17-.08.33-.25a15.75,15.75,0,0,1,5.08-3.59A15.22,15.22,0,0,1,213,22Z"/><path class="cls-1" d="M250.7,22a15.33,15.33,0,0,1,6.94,1.53,13.07,13.07,0,0,1,4.79,3.88,19.24,19.24,0,0,1,2.64,4.88,14.24,14.24,0,0,1,.91,4.83q0,1.82-.62,2.27a4.68,4.68,0,0,1-2.52.46H243.1c-.39,0-.58.16-.58.5a16.06,16.06,0,0,0,1.07,5.78A11.35,11.35,0,0,0,247.27,51a9.72,9.72,0,0,0,6.24,2.07,22.65,22.65,0,0,0,2.4-.12,12.28,12.28,0,0,0,2.15-.41q1-.29,1.73-.54a7.15,7.15,0,0,0,1.53-.74l1.12-.7q.33-.21,1.65-1.12a1.37,1.37,0,0,1,.41.5,1.6,1.6,0,0,1,.25.83,2.54,2.54,0,0,1-.5,1.57,13.47,13.47,0,0,1-4.87,4.46A15.33,15.33,0,0,1,251.19,59,16.73,16.73,0,0,1,238.8,53.7a17.82,17.82,0,0,1-5.2-12.93q0-8.34,4.83-13.55A16,16,0,0,1,250.7,22Zm-.58,3.8A5.85,5.85,0,0,0,246.57,27a7.8,7.8,0,0,0-2.4,2.81,15.78,15.78,0,0,0-1.2,3.1,10.08,10.08,0,0,0-.37,2.44q0,.58.5.58h13.38q.74,0,.74-1.24a10.71,10.71,0,0,0-1.94-5.87A5.92,5.92,0,0,0,250.12,25.82Z"/><path class="cls-1" d="M294,22q4.54,0,6.77,2.73,0,7-4,7a4.92,4.92,0,0,1-3.22-1.65A5.17,5.17,0,0,0,290,28.46a4.43,4.43,0,0,0-4,2.6,11,11,0,0,0-1.45,5.41V46.8a34.59,34.59,0,0,0,.58,7.44q.16.58,2.19,1.2a11.62,11.62,0,0,0,2.77.62c.17,0,.26.4.29,1.2a8.61,8.61,0,0,1,0,1.61q-.66-.08-4.38-.33t-5.62-.25q-2,0-5.74.25t-4.42.33a2.42,2.42,0,0,1-.33-1.57q0-1.24.33-1.24a11.48,11.48,0,0,0,3-.62q2-.62,2.19-1.2a27,27,0,0,0,.58-6V34.74q0-3.88-1.32-5.29a4,4,0,0,0-1.86-1.24,9.36,9.36,0,0,0-2-.5c-.52-.05-.78-.14-.78-.25q0-2.39.41-2.48a116.74,116.74,0,0,0,13.3-2.48,4.94,4.94,0,0,1,.66-.16c.22,0,.41.19.58.58a2,2,0,0,1,.21.95c0,.25-.07.63-.12,1.16s-.12,1.07-.21,1.65a10.6,10.6,0,0,0-.12,1.12,15.18,15.18,0,0,1,4-4A9.05,9.05,0,0,1,294,22Z"/><path class="cls-1" d="M319.68,46.64a33.88,33.88,0,0,0,.58,7.44q.16.58,2,1.28a9,9,0,0,0,2.52.7c.17,0,.26.39.29,1.16a4.5,4.5,0,0,1-.12,1.57l-3.1-.21-3.51-.21q-1.57-.08-3-.08-1.57,0-3.14.08l-3.47.21-3.14.21a2.33,2.33,0,0,1-.33-1.53q0-1.2.33-1.2a8.82,8.82,0,0,0,2.77-.7q1.86-.7,2-1.28a27.39,27.39,0,0,0,.66-6.11V13.59a28.79,28.79,0,0,0-.5-5.62q-.41-1.32-4.13-1.32h-.83q-.5,0-.5-1c0-.88.17-1.32.5-1.32q2.56-.25,4.87-.66t3.84-.83c1-.27,1.9-.54,2.64-.78s1.33-.46,1.78-.62l.58-.25h.17c.22,0,.45.17.7.5a2.54,2.54,0,0,1,.45.83,26.11,26.11,0,0,0-1,7.77Z"/><path class="cls-1" d="M338.52,22.84q1.82,0,5.2-.25t4.21-.25a5.55,5.55,0,0,1,.17,1.49c0,.77-.11,1.16-.33,1.16a9,9,0,0,0-2.6.62q-1.78.62-1.86,1.36v.5q.16,1.32,7.68,18.84.66-1.49,3.22-8.14t3-7.64a7.76,7.76,0,0,0,.5-2.56,2.6,2.6,0,0,0-1.32-2,6.8,6.8,0,0,0-4-1q-.33,0-.33-1.24a2.08,2.08,0,0,1,.33-1.4q1,0,4,.25t5,.25q1.73,0,4.25-.25t3.68-.25a2.35,2.35,0,0,1,.33,1.32c0,.88-.11,1.32-.33,1.32a10.5,10.5,0,0,0-3.35.83,4.56,4.56,0,0,0-2.85,2.48L348.1,64.81Q343,76.87,335.79,76.87a4.47,4.47,0,0,1-3.3-1.16,3.86,3.86,0,0,1,.41-5.87q8.59,0,11.32-6.77,2-5,2.23-5.62L334.39,29.37a10.71,10.71,0,0,0-1-1.9A5,5,0,0,0,331,25.61a7.83,7.83,0,0,0-2.68-.62q-.33,0-.33-1.16c0-.88.08-1.37.25-1.49q.5,0,4.42.25T338.52,22.84Z"/><path class="cls-1" d="M405.93,15.74V46.8a24.28,24.28,0,0,0,.74,6.61q.41,1.08,5.62,1.07h3.06q6.44,0,9.83-1.74a9.49,9.49,0,0,0,3-2.89,17.4,17.4,0,0,0,2.56-5q.08-.5,1.16-.5a3.55,3.55,0,0,1,2.31.5q-.25.74-1.2,3.39l-1.45,4q-.5,1.37-1.07,3.35a22.75,22.75,0,0,0-.74,3.22q-3.31,0-13.67-.25t-14.58-.08l-11,.33a2.15,2.15,0,0,1-.25-1.32q0-1.4.25-1.4a13.59,13.59,0,0,0,3.14-.54q2.06-.54,2.4-1.28.58-1.73.58-7.52V15.49a25.3,25.3,0,0,0-.66-7q-.33-.66-2.31-1.28a11,11,0,0,0-3-.62q-.33,0-.33-1.24a3.33,3.33,0,0,1,.17-1.49q.41,0,4.58.25t6.4.25q.66,0,10.57-.5a4.25,4.25,0,0,1,.25,1.32c0,.94-.11,1.4-.33,1.4a13.5,13.5,0,0,0-3,.66q-2.23.66-2.4,1.24A30.67,30.67,0,0,0,405.93,15.74Z"/><path class="cls-1" d="M457.15,22a18.21,18.21,0,0,1,13.26,5.41,17.7,17.7,0,0,1,5.49,13.09,18.71,18.71,0,0,1-37.42,0,17.8,17.8,0,0,1,5.41-13.13A18.1,18.1,0,0,1,457.15,22Zm-1.07,3.88a6.65,6.65,0,0,0-6,3.76,17.77,17.77,0,0,0-2.15,9,24.08,24.08,0,0,0,2.69,11.65q2.68,5,7.48,5a6.73,6.73,0,0,0,6.07-3.8,17.58,17.58,0,0,0,2.19-8.92,28.36,28.36,0,0,0-1.07-8,14.57,14.57,0,0,0-3.47-6.16A7.66,7.66,0,0,0,456.08,25.9Z"/><path class="cls-1" d="M510.85,27.22Q509.77,25,505.06,25q-.25,0-.25-1.16a2.84,2.84,0,0,1,.25-1.49q1.16,0,4,.25t4.71.25q1.86,0,4.83-.25t4-.25a2.4,2.4,0,0,1,.25,1.32c0,.88-.17,1.32-.5,1.32a9.84,9.84,0,0,0-3.22.79,4.79,4.79,0,0,0-2.81,2.36l-13.8,29.16a5.62,5.62,0,0,1-1.07,1.4,2.09,2.09,0,0,1-1.4.74q-.83,0-1-.5-1.65-3.72-4.5-10.29T489.7,37.55Q487.63,33,485,27.31,484,25,479.62,25c-.22,0-.33-.44-.33-1.32a1.91,1.91,0,0,1,.33-1.32q.74,0,4.38.25t5.62.25q2,0,5.7-.25t4.3-.25a2.69,2.69,0,0,1,.21,1.49q0,1.16-.37,1.16a12.17,12.17,0,0,0-2.93.5q-1.86.5-1.86,1.32a1.54,1.54,0,0,0,.17.83l8.18,19,7.44-16.36Q511.43,28.13,510.85,27.22Z"/><path class="cls-1" d="M543.56,22a15.33,15.33,0,0,1,6.94,1.53,13.07,13.07,0,0,1,4.79,3.88,19.24,19.24,0,0,1,2.64,4.88,14.24,14.24,0,0,1,.91,4.83q0,1.82-.62,2.27a4.68,4.68,0,0,1-2.52.46H536c-.39,0-.58.16-.58.5a16.06,16.06,0,0,0,1.07,5.78A11.35,11.35,0,0,0,540.13,51a9.72,9.72,0,0,0,6.24,2.07,22.65,22.65,0,0,0,2.4-.12,12.28,12.28,0,0,0,2.15-.41q1-.29,1.73-.54a7.15,7.15,0,0,0,1.53-.74l1.12-.7q.33-.21,1.65-1.12a1.37,1.37,0,0,1,.41.5,1.6,1.6,0,0,1,.25.83,2.54,2.54,0,0,1-.5,1.57,13.47,13.47,0,0,1-4.87,4.46A15.33,15.33,0,0,1,544.06,59a16.73,16.73,0,0,1-12.39-5.33,17.82,17.82,0,0,1-5.2-12.93q0-8.34,4.83-13.55A16,16,0,0,1,543.56,22Zm-.58,3.8A5.85,5.85,0,0,0,539.43,27a7.8,7.8,0,0,0-2.4,2.81,15.78,15.78,0,0,0-1.2,3.1,10.08,10.08,0,0,0-.37,2.44q0,.58.5.58h13.38q.74,0,.74-1.24a10.71,10.71,0,0,0-1.94-5.87A5.92,5.92,0,0,0,543,25.82Z"/><path class="cls-1" d="M591.48,58.29q-2.48,0-5.29.13t-4.38.29l-1.65.08a2.15,2.15,0,0,1-.25-1.32q0-1.4.25-1.4a13.59,13.59,0,0,0,3.14-.54q2.06-.54,2.4-1.28.58-1.73.58-7.52V15.49a26.17,26.17,0,0,0-.58-6.78q-.25-.91-2.31-1.49a13,13,0,0,0-3.3-.58q-.33,0-.33-1.24a2.25,2.25,0,0,1,.33-1.49q5.37.33,10.91.33,3.88.08,13.09-.25t13.59-.33q.33,2.48,1.32,6.9t1.07,4.83a2.56,2.56,0,0,1-1.73.41c-.61,0-1-.19-1.16-.58q-2.73-7.35-10.57-7.35h-4.3Q596.19,7.89,596,9a37.19,37.19,0,0,0-.41,6.69v13q0,.5,3.64.5h4.54q4.79,0,5.7-.41t1.4-2.89q.25-1.24.5-2.06.08-.58,1.32-.58a2.24,2.24,0,0,1,1.57.41V39.2a2.41,2.41,0,0,1-1.57.33q-1.07,0-1.32-.66a26.06,26.06,0,0,0-1-3.3,4.84,4.84,0,0,0-.58-1.16l-.7-.5q-1.07-.66-7.6-.66-5.87,0-5.87.66v13a20.14,20.14,0,0,0,.91,6.86q.33.83,3,1.57a16.64,16.64,0,0,0,3.55.74q.41,0,.41,1.4a2.4,2.4,0,0,1-.25,1.32Q593.3,58.29,591.48,58.29Z"/><path class="cls-1" d="M643,22a18.21,18.21,0,0,1,13.26,5.41,17.7,17.7,0,0,1,5.49,13.09,18.71,18.71,0,0,1-37.42,0,17.8,17.8,0,0,1,5.41-13.13A18.1,18.1,0,0,1,643,22ZM642,25.9a6.65,6.65,0,0,0-6,3.76,17.77,17.77,0,0,0-2.15,9,24.08,24.08,0,0,0,2.69,11.65q2.68,5,7.48,5a6.73,6.73,0,0,0,6.07-3.8,17.58,17.58,0,0,0,2.19-8.92,28.36,28.36,0,0,0-1.07-8,14.57,14.57,0,0,0-3.47-6.16A7.66,7.66,0,0,0,642,25.9Z"/><path class="cls-1" d="M690.45,22q4.54,0,6.77,2.73,0,7-4,7A4.92,4.92,0,0,1,690,30.12a5.17,5.17,0,0,0-3.55-1.65,4.43,4.43,0,0,0-4,2.6A11,11,0,0,0,681,36.48V46.8a34.59,34.59,0,0,0,.58,7.44q.16.58,2.19,1.2a11.62,11.62,0,0,0,2.77.62c.17,0,.26.4.29,1.2a8.61,8.61,0,0,1,0,1.61q-.66-.08-4.38-.33t-5.62-.25q-2,0-5.74.25t-4.42.33a2.42,2.42,0,0,1-.33-1.57q0-1.24.33-1.24a11.48,11.48,0,0,0,3-.62q2-.62,2.19-1.2a27,27,0,0,0,.58-6V34.74q0-3.88-1.32-5.29a4,4,0,0,0-1.86-1.24,9.36,9.36,0,0,0-2-.5c-.52-.05-.78-.14-.78-.25q0-2.39.41-2.48a116.74,116.74,0,0,0,13.3-2.48,4.94,4.94,0,0,1,.66-.16c.22,0,.41.19.58.58a2,2,0,0,1,.21.95c0,.25-.07.63-.12,1.16s-.12,1.07-.21,1.65a10.6,10.6,0,0,0-.12,1.12,15.18,15.18,0,0,1,4-4A9.05,9.05,0,0,1,690.45,22Z"/><path class="cls-1" d="M84.73,92.33a20.13,20.13,0,0,0-.83-6.61q-.41-1-2.77-1.57a16.59,16.59,0,0,0-3.68-.58c-.22,0-.34-.4-.37-1.2a2.79,2.79,0,0,1,.21-1.53q8.84.58,10.41.58,2.15,0,5.53-.29t4.21-.29a3.45,3.45,0,0,1,.17,1.32q0,1.4-.33,1.4a15.78,15.78,0,0,0-3.55.62,5.36,5.36,0,0,0-3.14,1.69,19.3,19.3,0,0,0-.91,6.86v31.31q0,3,.33,11.57a3,3,0,0,1-1.82.33q-1.32,0-2.64-1.9L52.67,90.43v33.46a23,23,0,0,0,.66,6.78q.41,1,3.06,1.69a17.06,17.06,0,0,0,3.72.7c.17,0,.26.39.29,1.16a4.5,4.5,0,0,1-.12,1.57q-9.91-.5-10.33-.5-2.23,0-5.49.21l-4.34.29a2.07,2.07,0,0,1-.33-1.4q0-1.32.33-1.32a15.6,15.6,0,0,0,3.76-.62,4.5,4.5,0,0,0,3-1.86q.83-1.73.83-6.94V91.25q0-4.46-.91-6-.33-.58-2.85-1.07a21.56,21.56,0,0,0-3.68-.5q-.33,0-.37-1.24a2.31,2.31,0,0,1,.29-1.57q8.67.41,9.83.41,2.73,0,7.44-.41a85.7,85.7,0,0,0,5.74,8.8Q67.38,95.47,74.65,105t9.91,13.18a23.71,23.71,0,0,0,.17-3.39Z"/><path class="cls-1" d="M120.66,99a18.21,18.21,0,0,1,13.26,5.41,17.7,17.7,0,0,1,5.49,13.09,18.75,18.75,0,0,1-32,13.14,18.6,18.6,0,0,1,0-26.27A18.1,18.1,0,0,1,120.66,99Zm-1.07,3.88a6.65,6.65,0,0,0-6,3.76,17.77,17.77,0,0,0-2.15,9,24.08,24.08,0,0,0,2.69,11.65q2.68,5,7.48,5a6.73,6.73,0,0,0,6.07-3.8,17.58,17.58,0,0,0,2.19-8.92,28.36,28.36,0,0,0-1.07-8,14.57,14.57,0,0,0-3.47-6.16A7.66,7.66,0,0,0,119.59,102.9Z"/><path class="cls-1" d="M168.08,99q4.54,0,6.77,2.73,0,7-4,7a4.92,4.92,0,0,1-3.22-1.65,5.17,5.17,0,0,0-3.55-1.65,4.43,4.43,0,0,0-4,2.6,11,11,0,0,0-1.45,5.41V123.8a34.59,34.59,0,0,0,.58,7.44q.16.58,2.19,1.2a11.62,11.62,0,0,0,2.77.62c.17,0,.26.4.29,1.2a8.61,8.61,0,0,1,0,1.61q-.66-.08-4.38-.33t-5.62-.25q-2,0-5.74.25t-4.42.33a2.42,2.42,0,0,1-.33-1.57q0-1.24.33-1.24a11.48,11.48,0,0,0,3-.62q2-.62,2.19-1.2a27,27,0,0,0,.58-6V111.74q0-3.88-1.32-5.29a4,4,0,0,0-1.86-1.24,9.36,9.36,0,0,0-2-.5c-.52-.05-.78-.14-.78-.25q0-2.39.41-2.48a116.74,116.74,0,0,0,13.3-2.48,4.94,4.94,0,0,1,.66-.16c.22,0,.41.19.58.58a2,2,0,0,1,.21.95c0,.25-.07.63-.12,1.16s-.12,1.07-.21,1.65a10.6,10.6,0,0,0-.12,1.12,15.18,15.18,0,0,1,4-4A9.05,9.05,0,0,1,168.08,99Z"/><path class="cls-1" d="M184.19,104.8h-5q-.58,0-.58-2.15a2.06,2.06,0,0,1,.08-.74A23.11,23.11,0,0,0,185,97.53q1.07-1.07,2.35-2.44t3-3.51a5.88,5.88,0,0,1,1.57.21c.5.14.74.29.74.46v8.1l6,0,4.09,0c.44,0,.66.25.66.74a8,8,0,0,1-.83,3.63H192.7v19.91a7.84,7.84,0,0,0,1.4,5,4.72,4.72,0,0,0,3.88,1.74,7.79,7.79,0,0,0,1.73-.21,8.67,8.67,0,0,0,1.49-.46q.58-.25,1.07-.5a2.61,2.61,0,0,1,.58-.25q.33-.08.74.74c.27.55.38.91.33,1.07q-.5,1.16-3.51,2.69a13,13,0,0,1-5.91,1.53,10.42,10.42,0,0,1-7.31-2.77q-3-2.77-3-8.55Z"/><path class="cls-1" d="M235.33,99q10.57,0,10.57,16.28v8.51a30.36,30.36,0,0,0,.66,7.44q.08.58,2.19,1.2a12.59,12.59,0,0,0,2.85.62c.17,0,.26.4.29,1.2a8.61,8.61,0,0,1,0,1.61q-.58-.08-4.42-.33t-5.66-.25q-2.07,0-5.58.25t-4.34.33a3.08,3.08,0,0,1-.25-1.57q0-1.24.25-1.24a9.83,9.83,0,0,0,2.85-.62q1.86-.62,2.11-1.2a31.29,31.29,0,0,0,.5-6v-8.1q0-6.86-1.86-9.46t-5.91-2.6a7.91,7.91,0,0,0-4.54,1.4,3.9,3.9,0,0,0-2.07,3.14V123.8a30.36,30.36,0,0,0,.66,7.44q.16.58,2.19,1.2a11.62,11.62,0,0,0,2.77.62q.25,0,.29,1.2a4.67,4.67,0,0,1-.12,1.61q-.66-.08-4.34-.33t-5.58-.25q-2,0-5.74.25t-4.42.33a2.42,2.42,0,0,1-.33-1.57q0-1.24.33-1.24a11.48,11.48,0,0,0,3-.62q2-.62,2.19-1.2a26.56,26.56,0,0,0,.58-5.95V90.92A32.62,32.62,0,0,0,214,85.3Q213.6,84,209.72,84H209c-.33,0-.5-.44-.5-1.32s.17-1.32.5-1.32q2.56-.25,4.87-.66t3.84-.83q1.53-.41,2.64-.83t2.35-.83h.17a.89.89,0,0,1,.66.46,2.27,2.27,0,0,1,.41.87,26.63,26.63,0,0,0-1,7.77V104c0,.33.11.5.33.5.05,0,.17-.08.33-.25a15.75,15.75,0,0,1,5.08-3.59A15.22,15.22,0,0,1,235.33,99Z"/><path class="cls-1" d="M289,92.74V106a.5.5,0,0,0,.12.37,1.1,1.1,0,0,0,.29.21h.74q1.73,0,4.3-2.81,6.61-7.1,14.54-16.52a4.51,4.51,0,0,0,1.32-2.48q0-.82-1.82-1.16a17.75,17.75,0,0,0-3.06-.33q-.33,0-.41-1a4.32,4.32,0,0,1,.08-1.53q9.17.5,10,.5,1.57,0,3.1-.08c1-.05,2.12-.12,3.3-.21l2.93-.21a3.49,3.49,0,0,1,.12,1.4c0,.72-.12,1.07-.29,1.07q-5.78.66-8.34,3.47L300.6,104.31a1.61,1.61,0,0,0,.17,2.31l19.33,23a8.4,8.4,0,0,0,4,2.64,13.42,13.42,0,0,0,3.68.83c.27,0,.41.53.41,1.57a2.55,2.55,0,0,1-.25,1.16q-9.91-.5-11.32-.5-2.64,0-6.32.21l-5.16.29a2.33,2.33,0,0,1-.33-1.53q0-1.2.33-1.2a6.38,6.38,0,0,0,2.31-.58q1.4-.58,1.4-1.24a15.81,15.81,0,0,0-2.31-3.47q-2.31-3.06-6.36-7.81t-8-8.88a3,3,0,0,0-1.82-.33q-1.32,0-1.32,1V124a29.81,29.81,0,0,0,.74,7.27q.16.58,2.27,1.2a12.59,12.59,0,0,0,2.85.62c.22,0,.33.53.33,1.57a3.67,3.67,0,0,1-.17,1.16q-9.91-.5-10.49-.5-1.65,0-3.47.08l-4,.21-3.51.21a1.61,1.61,0,0,1-.33-1.16c0-1,.11-1.57.33-1.57a13.14,13.14,0,0,0,3.1-.58q2.11-.58,2.35-1.24a28.93,28.93,0,0,0,.66-6.94V92.41a24.87,24.87,0,0,0-.66-6.94q-.33-.66-2.31-1.28a11,11,0,0,0-3-.62q-.33,0-.33-1.24a3.33,3.33,0,0,1,.17-1.49q.41,0,4.58.25t6.4.25q.66,0,10.57-.5a4.25,4.25,0,0,1,.25,1.32c0,.94-.11,1.4-.33,1.4a13.5,13.5,0,0,0-3,.66q-2.23.66-2.4,1.24A30.67,30.67,0,0,0,289,92.74Z"/><path class="cls-1" d="M351.65,99a18.21,18.21,0,0,1,13.26,5.41,17.7,17.7,0,0,1,5.49,13.09,18.71,18.71,0,0,1-37.42,0,17.8,17.8,0,0,1,5.41-13.13A18.1,18.1,0,0,1,351.65,99Zm-1.07,3.88a6.65,6.65,0,0,0-6,3.76,17.77,17.77,0,0,0-2.15,9,24.08,24.08,0,0,0,2.69,11.65q2.68,5,7.48,5a6.73,6.73,0,0,0,6.07-3.8,17.58,17.58,0,0,0,2.19-8.92,28.36,28.36,0,0,0-1.07-8,14.57,14.57,0,0,0-3.47-6.16A7.66,7.66,0,0,0,350.58,102.9Z"/><path class="cls-1" d="M399.07,99q4.54,0,6.77,2.73,0,7-4,7a4.92,4.92,0,0,1-3.22-1.65,5.17,5.17,0,0,0-3.55-1.65,4.43,4.43,0,0,0-4,2.6,11,11,0,0,0-1.45,5.41V123.8a34.59,34.59,0,0,0,.58,7.44q.16.58,2.19,1.2a11.62,11.62,0,0,0,2.77.62c.17,0,.26.4.29,1.2a8.61,8.61,0,0,1,0,1.61q-.66-.08-4.38-.33t-5.62-.25q-2,0-5.74.25t-4.42.33a2.42,2.42,0,0,1-.33-1.57q0-1.24.33-1.24a11.48,11.48,0,0,0,3-.62q2-.62,2.19-1.2a27,27,0,0,0,.58-6V111.74q0-3.88-1.32-5.29a4,4,0,0,0-1.86-1.24,9.36,9.36,0,0,0-2-.5c-.52-.05-.78-.14-.78-.25q0-2.39.41-2.48a116.74,116.74,0,0,0,13.3-2.48,4.94,4.94,0,0,1,.66-.16c.22,0,.41.19.58.58a2,2,0,0,1,.21.95c0,.25-.07.63-.12,1.16s-.12,1.07-.21,1.65a10.6,10.6,0,0,0-.12,1.12,15.18,15.18,0,0,1,4-4A9.05,9.05,0,0,1,399.07,99Z"/><path class="cls-1" d="M427.33,99a15.33,15.33,0,0,1,6.94,1.53,13.07,13.07,0,0,1,4.79,3.88,19.24,19.24,0,0,1,2.64,4.88,14.24,14.24,0,0,1,.91,4.83q0,1.82-.62,2.27a4.68,4.68,0,0,1-2.52.46H419.73c-.39,0-.58.16-.58.5a16.06,16.06,0,0,0,1.07,5.78A11.35,11.35,0,0,0,423.9,128a9.72,9.72,0,0,0,6.24,2.07,22.65,22.65,0,0,0,2.4-.12,12.28,12.28,0,0,0,2.15-.41q1-.29,1.73-.54a7.15,7.15,0,0,0,1.53-.74l1.12-.7q.33-.21,1.65-1.12a1.37,1.37,0,0,1,.41.5,1.6,1.6,0,0,1,.25.83,2.54,2.54,0,0,1-.5,1.57A13.47,13.47,0,0,1,436,133.8a15.33,15.33,0,0,1-8.18,2.23,16.73,16.73,0,0,1-12.39-5.33,17.82,17.82,0,0,1-5.2-12.93q0-8.34,4.83-13.55A16,16,0,0,1,427.33,99Zm-.58,3.8a5.85,5.85,0,0,0-3.55,1.16,7.8,7.8,0,0,0-2.4,2.81,15.78,15.78,0,0,0-1.2,3.1,10.08,10.08,0,0,0-.37,2.44q0,.58.5.58h13.38q.74,0,.74-1.24a10.71,10.71,0,0,0-1.94-5.87A5.92,5.92,0,0,0,426.75,102.82Z"/><path class="cls-1" d="M463.76,99q5.12,0,7.68,2.69t2.56,9.21v16.28a3.77,3.77,0,0,0,.74,2.52,2.48,2.48,0,0,0,2,.87,5.15,5.15,0,0,0,2.81-1.07q.5.17.5.91a4.92,4.92,0,0,1-.5,2.48,20.51,20.51,0,0,1-3.3,2.06,8.61,8.61,0,0,1-4,1.07,6,6,0,0,1-3.72-1.4,6.78,6.78,0,0,1-2.4-3.06l-.62.54q-.54.45-1.49,1.12a24.7,24.7,0,0,1-2.15,1.32,13.23,13.23,0,0,1-2.81,1.12,12.05,12.05,0,0,1-3.26.45,9.86,9.86,0,0,1-6.73-2.27,7.85,7.85,0,0,1-2.6-6.24,7.62,7.62,0,0,1,.95-3.72,9.88,9.88,0,0,1,2.27-2.85,16.92,16.92,0,0,1,3.55-2.19,34.16,34.16,0,0,1,3.84-1.61q1.61-.54,4.13-1.28t3.51-1.07a1.3,1.3,0,0,0,.74-1.32V109a7.1,7.1,0,0,0-1.32-4.54,4.31,4.31,0,0,0-3.55-1.65,5,5,0,0,0-3.88,1.53,6.18,6.18,0,0,0-1.4,4.34,2.68,2.68,0,0,1-1.24,2.44,5.14,5.14,0,0,1-2.81.79q-3.06,0-4.3-2,0-4,5.41-7.44A20.73,20.73,0,0,1,463.76,99ZM460,130.74a6.41,6.41,0,0,0,3.84-1.16,3.27,3.27,0,0,0,1.61-2.64v-8.43c-.39.16-1.2.44-2.44.83s-2.19.72-2.85,1a22.77,22.77,0,0,0-2.31,1.16,5,5,0,0,0-1.94,1.82,4.55,4.55,0,0,0-.62,2.31,5.09,5.09,0,0,0,1.32,3.88A4.75,4.75,0,0,0,460,130.74Z"/><path class="cls-2" d="M7,18.12H9.91v1.57H2.28V18.12H5.13V8.91L2.85,10.3,2,8.88,5.67,6.63H7Z"/><path class="cls-2" d="M19.45,12a3.6,3.6,0,0,1,1.44,1.46,4.5,4.5,0,0,1,.51,2.17,4.31,4.31,0,0,1-.56,2.22,3.81,3.81,0,0,1-1.61,1.49,5.33,5.33,0,0,1-2.44.53,6.92,6.92,0,0,1-2.38-.43,5.64,5.64,0,0,1-2-1.15l.67-1.41a5.78,5.78,0,0,0,3.69,1.43,2.79,2.79,0,0,0,2-.69,2.58,2.58,0,0,0,.72-2A2.49,2.49,0,0,0,16.89,13a3.53,3.53,0,0,0-2.83,1.33H12.84V6.63h8V8.17H14.73v4.11a3.88,3.88,0,0,1,2.57-.85A4.33,4.33,0,0,1,19.45,12Z"/><path class="cls-3" d="M625,132.63,462.44,51.72a13.66,13.66,0,0,1-6.12-18.32h0a13.66,13.66,0,0,1,18.32-6.12L637.2,108.19a13.66,13.66,0,0,1,6.12,18.32h0A13.66,13.66,0,0,1,625,132.63Z"/><path class="cls-2" d="M486.59,41.34a6,6,0,0,1,1.56,1.07,4.11,4.11,0,0,1,1.07,4.24L487,46a3.39,3.39,0,0,0-.13-1.73,2.12,2.12,0,0,0-1.09-1.18,2.35,2.35,0,0,0-2.24,0,5.19,5.19,0,0,0-2.11,2.41,5.63,5.63,0,0,0-.73,3.08A2.24,2.24,0,0,0,482,50.49a2.62,2.62,0,0,0,1.95.3,2.07,2.07,0,0,0,1.26-1.11l2.05,1a3.79,3.79,0,0,1-2.48,2.16,5.12,5.12,0,0,1-3.56-.58,4.59,4.59,0,0,1-2.58-3.11,6.81,6.81,0,0,1,.77-4.66,6.61,6.61,0,0,1,3.29-3.4A4.59,4.59,0,0,1,486.59,41.34Z"/><path class="cls-2" d="M494.83,48.75a4.87,4.87,0,0,1,1.36,1,3.48,3.48,0,0,1,.81,1.36,4.77,4.77,0,0,1-.45,3.69,4.72,4.72,0,0,1-2.66,2.54,4,4,0,0,1-3.2-.31,4.1,4.1,0,0,1-2.2-2.39,4.68,4.68,0,0,1,.44-3.66,4.73,4.73,0,0,1,2.68-2.58A4.1,4.1,0,0,1,494.83,48.75Zm-.18,5.08a3.36,3.36,0,0,0,.45-2.11,1.8,1.8,0,0,0-1-1.3,2,2,0,0,0-1.72-.08,3.07,3.07,0,0,0-1.48,1.59,3.32,3.32,0,0,0-.44,2.11,1.82,1.82,0,0,0,1,1.3,2,2,0,0,0,1.72.08A3.07,3.07,0,0,0,494.66,53.83Z"/><path class="cls-2" d="M507,57a3,3,0,0,1,3.51-.36,3,3,0,0,1,1.7,2,4.32,4.32,0,0,1-.52,2.89l-2.29,4.59-1.92-1,2.29-4.59A2.07,2.07,0,0,0,510,59a1.73,1.73,0,0,0-1-1,1.65,1.65,0,0,0-1.57,0A4,4,0,0,0,506,59.79l-1.84,3.68-1.91-1,2.29-4.59a2.07,2.07,0,0,0,.24-1.53,1.73,1.73,0,0,0-1-1,1.81,1.81,0,0,0-1.64,0,3.75,3.75,0,0,0-1.59,1.75l-1.82,3.63-1.91-1L500.79,52l1.66.83L502,54.28a2.9,2.9,0,0,1,3.27-.32,3.15,3.15,0,0,1,1.41,1.27A3,3,0,0,1,507,57Z"/><path class="cls-2" d="M517.31,57.08a1.21,1.21,0,0,1,.71-.66,1.58,1.58,0,0,1,1.74.87,1.36,1.36,0,0,1-.82,1.63,1.58,1.58,0,0,1-1.74-.87A1.21,1.21,0,0,1,517.31,57.08Zm-1,2.63,1.91,1-3.93,7.86-1.91-1Z"/><path class="cls-2" d="M522.6,64.58a3.19,3.19,0,0,1,5,1.72,4.49,4.49,0,0,1-.52,2.89l-2.29,4.59-1.91-1,2.29-4.59a2.07,2.07,0,0,0,.24-1.53,1.73,1.73,0,0,0-1-1,1.81,1.81,0,0,0-1.64,0,3.75,3.75,0,0,0-1.59,1.75l-1.82,3.63-1.91-1,3.92-7.85,1.66.83Z"/><path class="cls-2" d="M529.83,72.29a2.84,2.84,0,0,1,.06-2.49,2.81,2.81,0,0,1,2-1.57,3.91,3.91,0,0,1,2.6.35,4.75,4.75,0,0,1,1.86,1.51A2.38,2.38,0,0,1,537.91,69a2.7,2.7,0,0,1,1.88.23l-1,1.78q-1.39-.69-1.9.2a2.69,2.69,0,0,1-.16,1.82,3.11,3.11,0,0,1-.92,1.16,2.91,2.91,0,0,1-1.18.51,4.09,4.09,0,0,1-2.75-.4,4.54,4.54,0,0,1-1.32-1,.87.87,0,0,0-1,.45q-.36.73.86,1.34L533,76.45q2.68,1.34,1.74,3.21a3,3,0,0,1-.93,1.08,3.69,3.69,0,0,1-1.45.62,5.86,5.86,0,0,1-3.84-.63,6.33,6.33,0,0,1-2.75-2.36,2.46,2.46,0,0,1-.2-2.42,1.71,1.71,0,0,1,1-.93,2.35,2.35,0,0,1,1.44,0,1.88,1.88,0,0,1-.23-1.91,1.48,1.48,0,0,1,.83-.77A2.21,2.21,0,0,1,529.83,72.29Zm-.24,4.12q-1.55-.69-2.09.39a1.11,1.11,0,0,0,.2,1.2A3.62,3.62,0,0,0,529,79.08a5.64,5.64,0,0,0,1.44.54,3.11,3.11,0,0,0,1,0,1.55,1.55,0,0,0,1.31-.8.69.69,0,0,0,0-.58.94.94,0,0,0-.5-.48Zm5.19-4.2a1.73,1.73,0,0,0,.17-1.25,1.56,1.56,0,0,0-.9-1,1.55,1.55,0,0,0-2.26.72,1.7,1.7,0,0,0-.15,1.27,1.63,1.63,0,0,0,.92,1,1.55,1.55,0,0,0,1.32.13A1.77,1.77,0,0,0,534.77,72.21Z"/><path class="cls-2" d="M548.69,72.64l2.39,1.19L549.28,86l-2-1,.4-2.62-3.89-1.94-1.87,1.89-2-1ZM545,79.26l2.94,1.47.8-5.23Z"/><path class="cls-2" d="M557.06,88.14a2.78,2.78,0,0,1-3.17.37,3,3,0,0,1-1.93-3A3.89,3.89,0,0,1,552.4,84l2.5-5,1.91,1-2.4,4.81a1.78,1.78,0,0,0-.21,1.34,1.37,1.37,0,0,0,.72.84,2.67,2.67,0,0,0,1,.3,2,2,0,0,0,.88-.14,3.22,3.22,0,0,0,1.56-1.54l1.94-3.88,1.91,1-3.93,7.86-1.91-1Z"/><path class="cls-2" d="M563.55,89.14a2.84,2.84,0,0,1,.06-2.49,2.81,2.81,0,0,1,2-1.57,3.91,3.91,0,0,1,2.6.35,4.75,4.75,0,0,1,1.86,1.51,2.38,2.38,0,0,1,1.53-1.09,2.7,2.7,0,0,1,1.88.23l-1,1.78q-1.39-.69-1.9.2a2.69,2.69,0,0,1-.16,1.82,3.11,3.11,0,0,1-.92,1.16,2.91,2.91,0,0,1-1.18.51,4.09,4.09,0,0,1-2.75-.4,4.54,4.54,0,0,1-1.32-1,.87.87,0,0,0-1,.45q-.36.73.86,1.34l2.63,1.32q2.68,1.34,1.74,3.21a3,3,0,0,1-.93,1.08,3.69,3.69,0,0,1-1.45.62,5.86,5.86,0,0,1-3.84-.63,6.33,6.33,0,0,1-2.75-2.36,2.46,2.46,0,0,1-.2-2.42,1.71,1.71,0,0,1,1-.93,2.35,2.35,0,0,1,1.44,0,1.88,1.88,0,0,1-.23-1.91,1.48,1.48,0,0,1,.83-.77A2.21,2.21,0,0,1,563.55,89.14Zm-.24,4.12q-1.55-.69-2.09.39a1.11,1.11,0,0,0,.2,1.2,3.62,3.62,0,0,0,1.34,1.09,5.64,5.64,0,0,0,1.44.54,3.11,3.11,0,0,0,1,0,1.55,1.55,0,0,0,1.31-.8.69.69,0,0,0,0-.58.94.94,0,0,0-.5-.48Zm5.19-4.2a1.73,1.73,0,0,0,.17-1.25,1.56,1.56,0,0,0-.9-1,1.55,1.55,0,0,0-2.26.72,1.7,1.7,0,0,0-.15,1.27,1.63,1.63,0,0,0,.92,1,1.55,1.55,0,0,0,1.32.13A1.77,1.77,0,0,0,568.49,89.06Z"/><path class="cls-2" d="M576.59,97.9a2.78,2.78,0,0,1-3.17.37,3,3,0,0,1-1.93-3,3.89,3.89,0,0,1,.44-1.49l2.5-5,1.91,1-2.4,4.81a1.78,1.78,0,0,0-.21,1.34,1.37,1.37,0,0,0,.72.84,2.67,2.67,0,0,0,1,.3,2,2,0,0,0,.88-.14,3.22,3.22,0,0,0,1.56-1.54l1.94-3.88,1.91,1-3.93,7.86-1.91-1Z"/><path class="cls-2" d="M583,99.92q-.52,1.13,1.07,1.93a2,2,0,0,0,1.14.24.84.84,0,0,0,.71-.42.74.74,0,0,0,0-.67,2.67,2.67,0,0,0-.58-.73L584,98.79q-1.57-1.61-.82-3.12a2.08,2.08,0,0,1,1.7-1.16,4.74,4.74,0,0,1,2.71.6,4,4,0,0,1,2,1.82,2.41,2.41,0,0,1,0,2.09l-1.79-.9a.88.88,0,0,0-.06-.8,2,2,0,0,0-.86-.71,1.84,1.84,0,0,0-1.1-.24.79.79,0,0,0-.63.4q-.28.57.53,1.32l1.51,1.62a4.12,4.12,0,0,1,1,1.49,1.84,1.84,0,0,1-.13,1.48,2.33,2.33,0,0,1-1.76,1.22,4.45,4.45,0,0,1-2.89-.52,4.71,4.71,0,0,1-2.18-1.95,2.55,2.55,0,0,1,0-2.41Z"/><path class="cls-2" d="M593.82,108a5.54,5.54,0,0,1-1.89-.42,4,4,0,0,1-1-.68,2.71,2.71,0,0,1-.6-.84,2.59,2.59,0,0,1,.17-2.2l2.2-4.39-1.1-.55.64-1.28,1.1.55,1-2.07,1.91,1-1,2.07,2.13,1.07-.64,1.28-2.13-1.07-2.16,4.33a.93.93,0,0,0,.44,1.43,4.33,4.33,0,0,0,1.34.35Z"/><path class="cls-2" d="M602,110.2l6,3-.87,1.74-7.9-3.95.9-1.79a3.37,3.37,0,0,1,2.71-2.08,6.28,6.28,0,0,1,1.31,0l2.56.25a2.71,2.71,0,0,0,1.38-.17,1.77,1.77,0,0,0,.84-.86,1.51,1.51,0,0,0,.08-1.24,2,2,0,0,0-1-1,2.44,2.44,0,0,0-1.53-.28,1.73,1.73,0,0,0-1.18.84l-2.12-1.06a3.29,3.29,0,0,1,2.38-1.82,5.13,5.13,0,0,1,3.22.62,4.6,4.6,0,0,1,2.26,2.22,3.11,3.11,0,0,1,0,2.75,3.53,3.53,0,0,1-1.7,1.76,5.46,5.46,0,0,1-2.68.3l-2.6-.25a2.77,2.77,0,0,0-1.18.08,1.2,1.2,0,0,0-.67.63Z"/><path class="cls-2" d="M618.46,107.25a5.63,5.63,0,0,1,2.59,2.35,2.86,2.86,0,0,1,.1,2.74,2.34,2.34,0,0,1-1.25,1.14,2.87,2.87,0,0,1-2,0,5.93,5.93,0,0,1,1.32,2,2.52,2.52,0,0,1-.19,1.92,2.83,2.83,0,0,1-2.24,1.58,6.33,6.33,0,0,1-3.7-.8,6.07,6.07,0,0,1-2.78-2.48,2.85,2.85,0,0,1-.12-2.79,2.26,2.26,0,0,1,1.48-1.25,3.52,3.52,0,0,1,2.12.14,4.24,4.24,0,0,1-1-2.71,2.52,2.52,0,0,1,.28-1,2.74,2.74,0,0,1,2.1-1.56A5.41,5.41,0,0,1,618.46,107.25Zm-3.3,6.1a2.62,2.62,0,0,0-2.45-.06,1.2,1.2,0,0,0-.43.49,1.13,1.13,0,0,0-.1.69,1.81,1.81,0,0,0,.3.73,4,4,0,0,0,1.62,1.3,4.43,4.43,0,0,0,1.93.57,1,1,0,0,0,1-.47,1.09,1.09,0,0,0,.07-.89,2.92,2.92,0,0,0-.57-.9Zm.36-2.5,1,1.07a2.67,2.67,0,0,0,1.55.29,1.32,1.32,0,0,0,1.07-.73,1.29,1.29,0,0,0-.08-1.3,3.06,3.06,0,0,0-1.33-1.14,3.37,3.37,0,0,0-1.67-.41,1.17,1.17,0,0,0-1.07.65Q614.68,109.87,615.53,110.84Z"/></svg>