<svg id="Layer_1" data-name="Layer 1" xmlns="http://www.w3.org/2000/svg" viewBox="0 0 629.53 237.62"><defs><style>.cls-1{fill:#1414ef;}.cls-2,.cls-3{fill:#fff;stroke:#1414ef;stroke-miterlimit:10;}.cls-2{stroke-width:1.2px;}</style></defs><title>title</title><path class="cls-1" d="M7,18.22H9.91V19.8H2.28V18.22H5.13V9L2.85,10.41,2,9,5.67,6.74H7Z"/><path class="cls-1" d="M19.44,12a3.67,3.67,0,0,1,1.43,1.47,4.49,4.49,0,0,1,.51,2.17,4.41,4.41,0,0,1-.55,2.2A3.88,3.88,0,0,1,19.3,19.4a4.45,4.45,0,0,1-2.2.55,4.47,4.47,0,0,1-3.73-1.66,7.49,7.49,0,0,1-1.31-4.73,10.32,10.32,0,0,1,.61-3.75,5.09,5.09,0,0,1,1.78-2.39,4.7,4.7,0,0,1,2.78-.82A6.37,6.37,0,0,1,19.47,7a5.71,5.71,0,0,1,1.91,1.17l-.69,1.41a5.43,5.43,0,0,0-3.41-1.43,2.75,2.75,0,0,0-2.46,1.4,7.54,7.54,0,0,0-.87,4v.05a3.16,3.16,0,0,1,1.32-1.51,4,4,0,0,1,2.07-.54A4.14,4.14,0,0,1,19.44,12Zm-.6,5.61a2.72,2.72,0,0,0,.69-1.94,2.67,2.67,0,0,0-.69-1.93A2.44,2.44,0,0,0,17,13.07a2.53,2.53,0,0,0-2.63,2.65,2.62,2.62,0,0,0,.73,1.93,2.57,2.57,0,0,0,1.92.74A2.39,2.39,0,0,0,18.84,17.66Z"/><path class="cls-2" d="M52.19,4.34q.41,0,8.1-.5.74,2.31,3.39,8.55t6.48,15.2q3.84,9,6.16,14.75c0,.11.08.17.25.17a.22.22,0,0,0,.25-.25q7.27-17.43,11.57-28.67l3-9.58q2.48.25,6.77.25,3.22,0,9.83-.41a2.4,2.4,0,0,1,.25,1.32c0,.94-.11,1.4-.33,1.4h-.17a6.72,6.72,0,0,0-4,1.32q-1.24.91-1.07,4.46.33,7.35,1.16,34.12a21.82,21.82,0,0,0,1.32,7.6q.33.74,2.31,1.36a11.1,11.1,0,0,0,2.81.62q.33,0,.33,1.49a4,4,0,0,1-.17,1.24l-10.16-.5q-1.65,0-3.47.08l-4,.21-3.51.21a1.76,1.76,0,0,1-.33-1.24q0-1.49.33-1.49a9.76,9.76,0,0,0,2.64-.54,5.18,5.18,0,0,0,2.31-1.2A4.63,4.63,0,0,0,95,51.43V46.8l-.83-25.11q-.33-5.12-1-5.12-.25,0-.41.5L77,55.56q-1.41,3.14-3.14,3.14a2.74,2.74,0,0,1-.83-.17L54.5,14.09q-.58,20.57-1.32,36.85a9.11,9.11,0,0,0,.25,2.56q.41.91,3.3,1.73a17.84,17.84,0,0,0,3.88.83c.22,0,.33.5.33,1.49a4,4,0,0,1-.17,1.24q-9.91-.5-10.41-.5-2.23,0-5.91.25t-4.5.25a1.91,1.91,0,0,1-.33-1.32q0-1.4.33-1.4a16.51,16.51,0,0,0,4.13-.83q2.81-.82,3.22-2.15a15.38,15.38,0,0,0,.91-5.54q.16-6.28.45-14.83t.5-14.58q.21-6,.21-7.52a7.89,7.89,0,0,0-.25-2.31q-.25-.66-2.77-1.24a18.71,18.71,0,0,0-3.59-.58c-.22,0-.33-.47-.33-1.4a1.76,1.76,0,0,1,.33-1.24L47,4.13Q50,4.34,52.19,4.34Z"/><path class="cls-2" d="M124,22.84q1.82,0,5.2-.25t4.21-.25a5.56,5.56,0,0,1,.17,1.49c0,.77-.11,1.16-.33,1.16a9,9,0,0,0-2.6.62q-1.78.62-1.86,1.36v.5q.16,1.32,7.68,18.84.66-1.49,3.22-8.14t3-7.64a7.75,7.75,0,0,0,.5-2.56,2.6,2.6,0,0,0-1.32-2,6.8,6.8,0,0,0-4-1q-.33,0-.33-1.24a2.08,2.08,0,0,1,.33-1.4q1,0,4,.25t5,.25q1.74,0,4.25-.25t3.68-.25a2.36,2.36,0,0,1,.33,1.32c0,.88-.11,1.32-.33,1.32a10.47,10.47,0,0,0-3.35.83,4.56,4.56,0,0,0-2.85,2.48L133.57,64.81q-5.12,12.06-12.31,12.06a4.47,4.47,0,0,1-3.3-1.16,3.86,3.86,0,0,1,.41-5.87q8.59,0,11.32-6.77,2-5,2.23-5.62L119.85,29.37a10.69,10.69,0,0,0-1-1.9,5,5,0,0,0-2.44-1.86,7.81,7.81,0,0,0-2.68-.62q-.33,0-.33-1.16,0-1.32.25-1.49.5,0,4.42.25T124,22.84Z"/><path class="cls-2" d="M186.93,4.17q2.4,0,5.54-.12t5.62-.12a26.87,26.87,0,0,1,4.92.45A19.91,19.91,0,0,1,207.88,6a17.47,17.47,0,0,1,4.3,2.85,13.07,13.07,0,0,1,3.06,4.34,14.06,14.06,0,0,1,1.2,5.87,15.72,15.72,0,0,1-2,7.6A17.36,17.36,0,0,1,208.29,33a16.79,16.79,0,0,1-9.21,2.6,10.26,10.26,0,0,1-3.47-.62,4.93,4.93,0,0,1-2.4-1.53,1.79,1.79,0,0,1-.29-.83,3.78,3.78,0,0,1,0-1.24c.05-.38.14-.58.25-.58a11.58,11.58,0,0,0,4.63.83A7.3,7.3,0,0,0,204,28.34a13.87,13.87,0,0,0,2.31-8.22q0-5.53-2.23-8.76t-6.86-3.22a13.52,13.52,0,0,0-4.79.58q-1,.5-1,8.59V46.8a25.8,25.8,0,0,0,.66,7q.25,1,2.77,1.61a17.42,17.42,0,0,0,3.68.62q.33,0,.33,1.4a4.64,4.64,0,0,1-.17,1.4q-9.09-.5-11.73-.5-2.23,0-5,.12l-4.42.21-1.65.17a2.84,2.84,0,0,1-.25-1.49q0-1.32.25-1.32a14.09,14.09,0,0,0,3.18-.54q2.11-.54,2.44-1.28.5-1.49.5-7.52V15.49a32.42,32.42,0,0,0-.5-6.77q-.25-.66-2.44-1.36a12,12,0,0,0-3.18-.7q-.33,0-.33-1.24t.33-1.49Q184.62,4.17,186.93,4.17Z"/><path class="cls-2" d="M235.58,22a15.32,15.32,0,0,1,6.94,1.53,13.07,13.07,0,0,1,4.79,3.88A19.2,19.2,0,0,1,250,32.3a14.24,14.24,0,0,1,.91,4.83q0,1.82-.62,2.27a4.69,4.69,0,0,1-2.52.45H228q-.58,0-.58.5a16.07,16.07,0,0,0,1.07,5.78A11.36,11.36,0,0,0,232.15,51a9.72,9.72,0,0,0,6.24,2.07,22.64,22.64,0,0,0,2.4-.12,12.38,12.38,0,0,0,2.15-.41q1-.29,1.73-.54a7.08,7.08,0,0,0,1.53-.74l1.12-.7q.33-.21,1.65-1.12a1.36,1.36,0,0,1,.41.5,1.6,1.6,0,0,1,.25.83,2.53,2.53,0,0,1-.5,1.57,13.45,13.45,0,0,1-4.87,4.46A15.32,15.32,0,0,1,236.08,59a16.73,16.73,0,0,1-12.39-5.33,17.82,17.82,0,0,1-5.21-12.93q0-8.34,4.83-13.55A16,16,0,0,1,235.58,22Zm-.58,3.8A5.84,5.84,0,0,0,231.45,27a7.79,7.79,0,0,0-2.4,2.81,15.76,15.76,0,0,0-1.2,3.1,10.09,10.09,0,0,0-.37,2.44c0,.39.17.58.5.58h13.38q.74,0,.74-1.24a10.71,10.71,0,0,0-1.94-5.87A5.92,5.92,0,0,0,235,25.82Z"/><path class="cls-2" d="M273.34,22a18.21,18.21,0,0,1,13.26,5.41,17.7,17.7,0,0,1,5.49,13.09,18.71,18.71,0,0,1-37.42,0,17.8,17.8,0,0,1,5.41-13.14A18.1,18.1,0,0,1,273.34,22Zm-1.07,3.88a6.65,6.65,0,0,0-6,3.76,17.76,17.76,0,0,0-2.15,9,24.08,24.08,0,0,0,2.69,11.65q2.68,5,7.48,5a6.73,6.73,0,0,0,6.07-3.8,17.57,17.57,0,0,0,2.19-8.92,28.36,28.36,0,0,0-1.07-8A14.57,14.57,0,0,0,278,28.38,7.66,7.66,0,0,0,272.26,25.9Z"/><path class="cls-2" d="M319.1,22.1a16.71,16.71,0,0,1,9.42,2.73,17.31,17.31,0,0,1,8.1,14.71A19.33,19.33,0,0,1,317.2,59.2,19.17,19.17,0,0,1,311.34,58c-.22,0-.33.39-.33,1.16v5.62a29.77,29.77,0,0,0,.66,7.44q.08.66,2.19,1.28a12.68,12.68,0,0,0,2.85.62q.25,0,.29,1.2a7.45,7.45,0,0,1,0,1.53q-.58,0-4.42-.25t-5.66-.25q-2.07,0-5.82.25t-4.42.25a3,3,0,0,1-.25-1.53q0-1.2.25-1.2a11.54,11.54,0,0,0,3-.62q2-.62,2.27-1.28a30,30,0,0,0,.5-5.95V34.74q0-4-1.32-5.37a3.72,3.72,0,0,0-1.82-1.2,9.86,9.86,0,0,0-2-.45c-.55-.05-.83-.14-.83-.25q0-2.4.5-2.48a63.51,63.51,0,0,0,12.31-2.31q1.49-.41,1.57-.41.33,0,.33,1.74a4.56,4.56,0,0,1-.17,1,16.52,16.52,0,0,1,3.68-1.94A11.86,11.86,0,0,1,319.1,22.1Zm-2,4.38A6.24,6.24,0,0,0,312.7,28,5.47,5.47,0,0,0,311,32.26v17a5.08,5.08,0,0,0,2.23,4.34A8,8,0,0,0,318,55.23a7.77,7.77,0,0,0,6.4-3.47Q327,48.29,327,42a21.35,21.35,0,0,0-2.64-11.11Q321.75,26.48,317.12,26.48Z"/><path class="cls-2" d="M355.54,46.64a33.86,33.86,0,0,0,.58,7.44q.16.58,2,1.28a9,9,0,0,0,2.52.7c.17,0,.26.39.29,1.16a4.5,4.5,0,0,1-.12,1.57l-3.1-.21-3.51-.21q-1.57-.08-3-.08-1.57,0-3.14.08l-3.47.21-3.14.21a2.33,2.33,0,0,1-.33-1.53c0-.8.11-1.2.33-1.2a8.83,8.83,0,0,0,2.77-.7q1.86-.7,2-1.28a27.41,27.41,0,0,0,.66-6.11V13.59a28.84,28.84,0,0,0-.5-5.62q-.41-1.32-4.13-1.32h-.83q-.5,0-.5-1,0-1.32.5-1.32,2.56-.25,4.87-.66t3.84-.83q1.53-.41,2.64-.78t1.78-.62l.58-.25h.17c.22,0,.45.17.7.5a2.52,2.52,0,0,1,.45.83,26.12,26.12,0,0,0-1,7.77Z"/><path class="cls-2" d="M382.47,22a15.32,15.32,0,0,1,6.94,1.53,13.07,13.07,0,0,1,4.79,3.88,19.2,19.2,0,0,1,2.64,4.87,14.24,14.24,0,0,1,.91,4.83q0,1.82-.62,2.27a4.69,4.69,0,0,1-2.52.45H374.87q-.58,0-.58.5a16.07,16.07,0,0,0,1.07,5.78A11.36,11.36,0,0,0,379,51a9.72,9.72,0,0,0,6.24,2.07,22.64,22.64,0,0,0,2.4-.12,12.38,12.38,0,0,0,2.15-.41q1-.29,1.73-.54a7.08,7.08,0,0,0,1.53-.74l1.12-.7q.33-.21,1.65-1.12a1.36,1.36,0,0,1,.41.5,1.6,1.6,0,0,1,.25.83,2.53,2.53,0,0,1-.5,1.57,13.45,13.45,0,0,1-4.87,4.46A15.32,15.32,0,0,1,383,59a16.73,16.73,0,0,1-12.39-5.33,17.82,17.82,0,0,1-5.21-12.93q0-8.34,4.83-13.55A16,16,0,0,1,382.47,22Zm-.58,3.8A5.84,5.84,0,0,0,378.34,27a7.79,7.79,0,0,0-2.4,2.81,15.76,15.76,0,0,0-1.2,3.1,10.09,10.09,0,0,0-.37,2.44c0,.39.17.58.5.58h13.38q.74,0,.74-1.24a10.71,10.71,0,0,0-1.94-5.87A5.92,5.92,0,0,0,381.89,25.82Z"/><path class="cls-2" d="M69.79,83,87.14,126.3q1.24,3.3,2.48,6a4,4,0,0,0,2.64,2,11,11,0,0,0,3.14.74c.22,0,.33.5.33,1.49a2.78,2.78,0,0,1-.17,1.24q-9.91-.5-10.41-.5t-10.74.5a2.33,2.33,0,0,1-.33-1.53c0-.8.11-1.2.33-1.2a10.65,10.65,0,0,0,2.73-.5q1.73-.5,2.06-1.16a2.36,2.36,0,0,0,.25-1.07,19,19,0,0,0-1.57-5.7L75,118.95a.91.91,0,0,0-.58-.33q-2.64-.16-7.1-.17t-9.42.25c-.33,0-.5.11-.5.33l-3.14,7.68a23.46,23.46,0,0,0-1.57,5.37,1.84,1.84,0,0,0,.91,1.65,8.27,8.27,0,0,0,2.6.91,14.26,14.26,0,0,0,2.52.41q.25.08.25,1.16a5.39,5.39,0,0,1-.17,1.57q-.41,0-3.88-.25t-5.62-.25q-2.15,0-5.08.21l-4.17.29a1.76,1.76,0,0,1-.33-1.24c0-1,.05-1.49.17-1.49a11.94,11.94,0,0,0,3.18-.7,5.1,5.1,0,0,0,2.77-1.61A39.26,39.26,0,0,0,49,126.3L64.34,89.12q1.9-5,3.06-5.95a2.11,2.11,0,0,1,1.4-.58A1.35,1.35,0,0,1,69.79,83Zm-9.91,30.73q2.89.25,5.95.25,2.89,0,6.77-.25l.17-.33L66.48,96.89l-6.77,16.52C59.71,113.63,59.76,113.74,59.87,113.74Z"/><path class="cls-2" d="M124.73,101q4.54,0,6.77,2.73,0,7-4,7a4.91,4.91,0,0,1-3.22-1.65,5.17,5.17,0,0,0-3.55-1.65,4.43,4.43,0,0,0-4,2.6,11,11,0,0,0-1.45,5.41V125.8a34.6,34.6,0,0,0,.58,7.44q.16.58,2.19,1.2a11.67,11.67,0,0,0,2.77.62c.17,0,.26.4.29,1.2a8.65,8.65,0,0,1,0,1.61q-.66-.08-4.38-.33t-5.62-.25q-2,0-5.74.25t-4.42.33a2.42,2.42,0,0,1-.33-1.57q0-1.24.33-1.24a11.52,11.52,0,0,0,3-.62q2-.62,2.19-1.2a27,27,0,0,0,.58-6V113.74q0-3.88-1.32-5.29a4,4,0,0,0-1.86-1.24,9.41,9.41,0,0,0-2-.5c-.52-.05-.79-.14-.79-.25q0-2.4.41-2.48a117.19,117.19,0,0,0,13.3-2.48,5,5,0,0,1,.66-.17c.22,0,.41.19.58.58a2,2,0,0,1,.21,1q0,.37-.12,1.16t-.21,1.65a10.64,10.64,0,0,0-.12,1.12,15.17,15.17,0,0,1,4-4A9.05,9.05,0,0,1,124.73,101Z"/><path class="cls-2" d="M153,101a15.31,15.31,0,0,1,6.94,1.53,13.07,13.07,0,0,1,4.79,3.88,19.23,19.23,0,0,1,2.64,4.87,14.24,14.24,0,0,1,.91,4.83q0,1.82-.62,2.27a4.69,4.69,0,0,1-2.52.45H145.38q-.58,0-.58.5a16,16,0,0,0,1.07,5.78,11.36,11.36,0,0,0,3.68,4.87,9.72,9.72,0,0,0,6.24,2.07,22.67,22.67,0,0,0,2.4-.12,12.37,12.37,0,0,0,2.15-.41q1-.29,1.74-.54a7.11,7.11,0,0,0,1.53-.74l1.12-.7q.33-.21,1.65-1.12a1.37,1.37,0,0,1,.41.5,1.6,1.6,0,0,1,.25.83,2.54,2.54,0,0,1-.5,1.57,13.46,13.46,0,0,1-4.87,4.46,15.33,15.33,0,0,1-8.18,2.23,16.73,16.73,0,0,1-12.39-5.33,17.82,17.82,0,0,1-5.2-12.93q0-8.34,4.83-13.55A16,16,0,0,1,153,101Zm-.58,3.8a5.84,5.84,0,0,0-3.55,1.16,7.79,7.79,0,0,0-2.4,2.81,15.79,15.79,0,0,0-1.2,3.1,10.11,10.11,0,0,0-.37,2.44c0,.39.17.58.5.58h13.38q.74,0,.74-1.24a10.71,10.71,0,0,0-1.94-5.87A5.92,5.92,0,0,0,152.4,104.82Z"/><path class="cls-2" d="M196.93,130.18a29,29,0,0,1,0-39.53,25.36,25.36,0,0,1,37.38,0,28.92,28.92,0,0,1,0,39.53,25.45,25.45,0,0,1-37.38,0Zm17.43-43.7q-7.11,0-10.86,6.48a30.72,30.72,0,0,0-3.76,15.66,40.69,40.69,0,0,0,1.69,11.81,23,23,0,0,0,5.74,9.71,13.22,13.22,0,0,0,9.75,4.09q7,0,10.86-6.57A30.48,30.48,0,0,0,231.63,112,41.86,41.86,0,0,0,230,100.07a22.11,22.11,0,0,0-5.7-9.58A13.56,13.56,0,0,0,214.36,86.48Z"/><path class="cls-2" d="M269.13,101.1a16.71,16.71,0,0,1,9.42,2.73,17.31,17.31,0,0,1,8.1,14.71,19.33,19.33,0,0,1-19.41,19.66,19.17,19.17,0,0,1-5.87-1.16c-.22,0-.33.39-.33,1.16v5.62a29.77,29.77,0,0,0,.66,7.44q.08.66,2.19,1.28a12.67,12.67,0,0,0,2.85.62q.25,0,.29,1.2a7.4,7.4,0,0,1,0,1.53q-.58,0-4.42-.25t-5.66-.25q-2.07,0-5.82.25t-4.42.25a3,3,0,0,1-.25-1.53q0-1.2.25-1.2a11.54,11.54,0,0,0,3-.62q2-.62,2.27-1.28a30,30,0,0,0,.5-5.95V113.74q0-4-1.32-5.37a3.72,3.72,0,0,0-1.82-1.2,9.86,9.86,0,0,0-2-.45c-.55-.05-.83-.14-.83-.25q0-2.4.5-2.48a63.5,63.5,0,0,0,12.31-2.31q1.49-.41,1.57-.41.33,0,.33,1.74a4.56,4.56,0,0,1-.17,1,16.51,16.51,0,0,1,3.68-1.94A11.86,11.86,0,0,1,269.13,101.1Zm-2,4.38a6.24,6.24,0,0,0-4.42,1.57,5.46,5.46,0,0,0-1.69,4.21v17a5.08,5.08,0,0,0,2.23,4.34,8,8,0,0,0,4.79,1.61,7.76,7.76,0,0,0,6.4-3.47q2.6-3.47,2.6-9.75a21.35,21.35,0,0,0-2.64-11.11Q271.78,105.48,267.15,105.48Z"/><path class="cls-2" d="M308.13,101a15.32,15.32,0,0,1,6.94,1.53,13.07,13.07,0,0,1,4.79,3.88,19.2,19.2,0,0,1,2.64,4.87,14.24,14.24,0,0,1,.91,4.83q0,1.82-.62,2.27a4.69,4.69,0,0,1-2.52.45H300.53q-.58,0-.58.5a16.07,16.07,0,0,0,1.07,5.78A11.36,11.36,0,0,0,304.7,130a9.72,9.72,0,0,0,6.24,2.07,22.64,22.64,0,0,0,2.4-.12,12.38,12.38,0,0,0,2.15-.41q1-.29,1.73-.54a7.08,7.08,0,0,0,1.53-.74l1.12-.7q.33-.21,1.65-1.12a1.36,1.36,0,0,1,.41.5,1.6,1.6,0,0,1,.25.83,2.53,2.53,0,0,1-.5,1.57,13.45,13.45,0,0,1-4.87,4.46,15.32,15.32,0,0,1-8.18,2.23,16.73,16.73,0,0,1-12.39-5.33A17.82,17.82,0,0,1,291,119.77q0-8.34,4.83-13.55A16,16,0,0,1,308.13,101Zm-.58,3.8A5.84,5.84,0,0,0,304,106a7.79,7.79,0,0,0-2.4,2.81,15.76,15.76,0,0,0-1.2,3.1,10.09,10.09,0,0,0-.37,2.44c0,.39.17.58.5.58h13.38q.74,0,.74-1.24a10.71,10.71,0,0,0-1.94-5.87A5.92,5.92,0,0,0,307.55,104.82Z"/><path class="cls-2" d="M354.23,101q10.66,0,10.66,16.94v7.85a34.56,34.56,0,0,0,.58,7.44q.16.58,2.27,1.2a12.65,12.65,0,0,0,2.85.62c.17,0,.26.4.29,1.2a4.69,4.69,0,0,1-.12,1.61q-.5-.08-4.34-.33t-5.74-.25q-2,0-5.49.25t-4.25.33a2.42,2.42,0,0,1-.33-1.57q0-1.24.33-1.24a9.82,9.82,0,0,0,2.77-.62q1.86-.62,2-1.2a23.72,23.72,0,0,0,.66-6v-7.85q0-6.86-1.86-9.58T348.61,107A7.65,7.65,0,0,0,344,108.5a4,4,0,0,0-2,3.1V125.8a34.6,34.6,0,0,0,.58,7.44q.16.58,2.19,1.2a11.88,11.88,0,0,0,2.69.62c.22,0,.34.4.37,1.2a4.67,4.67,0,0,1-.12,1.61q-.66-.08-4.34-.33t-5.58-.25q-2,0-5.74.25t-4.42.33a2.42,2.42,0,0,1-.33-1.57q0-1.24.33-1.24a11.52,11.52,0,0,0,3-.62q2-.62,2.19-1.2a27,27,0,0,0,.58-6V113.74q0-3.88-1.32-5.29a4,4,0,0,0-1.86-1.24,9.41,9.41,0,0,0-2-.5c-.52-.05-.79-.14-.79-.25q0-2.4.41-2.48a117.19,117.19,0,0,0,13.3-2.48.54.54,0,0,1,.21-.12.79.79,0,0,1,.25,0h.21c.22,0,.41.19.58.58a2.52,2.52,0,0,1,.25.91,28.17,28.17,0,0,0-.33,3,.65.65,0,0,0,.08.41,1.23,1.23,0,0,0,.41-.25,18.32,18.32,0,0,1,5.08-3.47A14.46,14.46,0,0,1,354.23,101Z"/><path class="cls-2" d="M408.71,83.13q5.58.21,9.13.21t9.17-.21q5.62-.21,9-.29a27.44,27.44,0,0,0,5.7-.83l1.57,12.64a3.19,3.19,0,0,1-2.23.58c-.44,0-.72-.14-.83-.41q-1.16-4.54-3.06-6.16t-5.95-1.61q-7.68,0-8,1.4a28.86,28.86,0,0,0-.74,7.77v29.82a28.19,28.19,0,0,0,.74,7.19q.08.58,2.23,1.2a13.16,13.16,0,0,0,2.89.62q.33,0,.33,1.49a4.3,4.3,0,0,1-.17,1.32l-3.18-.25q-2.11-.17-3.88-.25t-3.43-.08q-2.23,0-6.15.25t-4.83.33a1.91,1.91,0,0,1-.33-1.32q0-1.49.33-1.49a13.19,13.19,0,0,0,3.1-.58q2.11-.58,2.35-1.24a26.11,26.11,0,0,0,.66-6.86V96.48q0-6.86-.74-8-.66-1.4-7.85-1.4-4,0-5.95,1.61t-3.14,6.07q-.08.5-.83.5a2.78,2.78,0,0,1-2.15-.66L394,82a27.41,27.41,0,0,0,5.7.83Q403.13,82.93,408.71,83.13Z"/><path class="cls-2" d="M461.17,101a18.21,18.21,0,0,1,13.26,5.41,17.7,17.7,0,0,1,5.49,13.09A18.84,18.84,0,1,1,461.17,101Zm-1.07,3.88a6.65,6.65,0,0,0-6,3.76,17.76,17.76,0,0,0-2.15,9,24.08,24.08,0,0,0,2.69,11.65q2.68,5,7.48,5a6.73,6.73,0,0,0,6.07-3.8,17.57,17.57,0,0,0,2.19-8.92,28.36,28.36,0,0,0-1.07-8,14.57,14.57,0,0,0-3.47-6.16A7.66,7.66,0,0,0,460.1,104.9Z"/><path class="cls-2" d="M52.19,162.34q.41,0,8.1-.5.74,2.31,3.39,8.55t6.48,15.2q3.84,9,6.16,14.75c0,.11.08.17.25.17a.22.22,0,0,0,.25-.25q7.27-17.43,11.57-28.67l3-9.58q2.48.25,6.77.25,3.22,0,9.83-.41a2.4,2.4,0,0,1,.25,1.32c0,.94-.11,1.4-.33,1.4h-.17a6.72,6.72,0,0,0-4,1.32q-1.24.91-1.07,4.46.33,7.35,1.16,34.12a21.82,21.82,0,0,0,1.32,7.6q.33.74,2.31,1.36a11.1,11.1,0,0,0,2.81.62q.33,0,.33,1.49a4,4,0,0,1-.17,1.24l-10.16-.5q-1.65,0-3.47.08l-4,.21-3.51.21a1.76,1.76,0,0,1-.33-1.24q0-1.49.33-1.49a9.76,9.76,0,0,0,2.64-.54,5.18,5.18,0,0,0,2.31-1.2,4.63,4.63,0,0,0,.83-2.89V204.8l-.83-25.11q-.33-5.12-1-5.12-.25,0-.41.5L77,213.56q-1.41,3.14-3.14,3.14a2.74,2.74,0,0,1-.83-.17L54.5,172.09q-.58,20.57-1.32,36.85a9.11,9.11,0,0,0,.25,2.56q.41.91,3.3,1.73a17.84,17.84,0,0,0,3.88.83c.22,0,.33.5.33,1.49a4,4,0,0,1-.17,1.24q-9.91-.5-10.41-.5-2.23,0-5.91.25t-4.5.25a1.91,1.91,0,0,1-.33-1.32q0-1.4.33-1.4a16.51,16.51,0,0,0,4.13-.83q2.81-.82,3.22-2.15a15.38,15.38,0,0,0,.91-5.54q.16-6.28.45-14.83t.5-14.58q.21-6,.21-7.52a7.89,7.89,0,0,0-.25-2.31q-.25-.66-2.77-1.24a18.71,18.71,0,0,0-3.59-.58c-.22,0-.33-.47-.33-1.4a1.76,1.76,0,0,1,.33-1.24l4.25.29Q50,162.34,52.19,162.34Z"/><path class="cls-2" d="M133.09,180a18.21,18.21,0,0,1,13.26,5.41,17.7,17.7,0,0,1,5.49,13.09,18.75,18.75,0,0,1-32,13.14,18.6,18.6,0,0,1,0-26.27A18.1,18.1,0,0,1,133.09,180ZM132,183.9a6.65,6.65,0,0,0-6,3.76,17.77,17.77,0,0,0-2.15,9,24.09,24.09,0,0,0,2.68,11.65q2.68,5,7.48,5a6.73,6.73,0,0,0,6.07-3.8,17.57,17.57,0,0,0,2.19-8.92,28.37,28.37,0,0,0-1.07-8,14.57,14.57,0,0,0-3.47-6.16A7.66,7.66,0,0,0,132,183.9Z"/><path class="cls-2" d="M183.91,185.22q-1.07-2.23-5.78-2.23-.25,0-.25-1.16a2.85,2.85,0,0,1,.25-1.49q1.16,0,4,.25t4.71.25q1.86,0,4.83-.25t4-.25a2.4,2.4,0,0,1,.25,1.32q0,1.32-.5,1.32a9.84,9.84,0,0,0-3.22.79,4.79,4.79,0,0,0-2.81,2.35l-13.8,29.16a5.61,5.61,0,0,1-1.07,1.4,2.09,2.09,0,0,1-1.4.74q-.83,0-1-.5-1.65-3.72-4.5-10.29t-4.92-11.11q-2.07-4.54-4.71-10.24-1-2.31-5.37-2.31-.33,0-.33-1.32a1.91,1.91,0,0,1,.33-1.32q.74,0,4.38.25t5.62.25q2,0,5.7-.25t4.3-.25a2.69,2.69,0,0,1,.21,1.49q0,1.16-.37,1.16a12.11,12.11,0,0,0-2.93.5q-1.86.5-1.86,1.32a1.54,1.54,0,0,0,.17.83l8.18,19,7.44-16.36Q184.49,186.13,183.91,185.22Z"/><path class="cls-2" d="M214.47,180a15.32,15.32,0,0,1,6.94,1.53,13.07,13.07,0,0,1,4.79,3.88,19.21,19.21,0,0,1,2.64,4.87,14.24,14.24,0,0,1,.91,4.83q0,1.82-.62,2.27a4.69,4.69,0,0,1-2.52.45H206.87q-.58,0-.58.5a16.06,16.06,0,0,0,1.07,5.78A11.36,11.36,0,0,0,211,209a9.72,9.72,0,0,0,6.24,2.07,22.66,22.66,0,0,0,2.4-.12,12.37,12.37,0,0,0,2.15-.41q1-.29,1.73-.54a7.1,7.1,0,0,0,1.53-.74l1.12-.7q.33-.21,1.65-1.12a1.36,1.36,0,0,1,.41.5,1.6,1.6,0,0,1,.25.83,2.54,2.54,0,0,1-.5,1.57,13.46,13.46,0,0,1-4.87,4.46A15.33,15.33,0,0,1,215,217a16.73,16.73,0,0,1-12.39-5.33,17.82,17.82,0,0,1-5.2-12.93q0-8.34,4.83-13.55A16,16,0,0,1,214.47,180Zm-.58,3.8a5.84,5.84,0,0,0-3.55,1.16,7.79,7.79,0,0,0-2.4,2.81,15.79,15.79,0,0,0-1.2,3.1,10.11,10.11,0,0,0-.37,2.44c0,.39.17.58.5.58h13.38q.74,0,.74-1.24a10.71,10.71,0,0,0-1.94-5.87A5.92,5.92,0,0,0,213.89,183.82Z"/><path class="cls-2" d="M260.57,180a8.93,8.93,0,0,1,5.37,1.61,9.67,9.67,0,0,1,3.3,4.17,19.48,19.48,0,0,1,6-4.13A18.56,18.56,0,0,1,283,180a9.38,9.38,0,0,1,5.08,1.32,9.12,9.12,0,0,1,3.3,3.68,19.43,19.43,0,0,1,1.73,5.12,31.46,31.46,0,0,1,.54,6v8.67a34.6,34.6,0,0,0,.58,7.44q.17.58,2.23,1.2a12.14,12.14,0,0,0,2.81.62c.17,0,.26.4.29,1.2a4.7,4.7,0,0,1-.12,1.61q-.58-.08-4.34-.33t-5.66-.25q-2,0-5.66.25t-4.42.33a3.08,3.08,0,0,1-.25-1.57q0-1.24.25-1.24a11.09,11.09,0,0,0,3-.62q2-.62,2.15-1.2a25.69,25.69,0,0,0,.58-5.78V198q0-12-7.68-12a7.52,7.52,0,0,0-4.54,1.32,5.16,5.16,0,0,0-2.15,2.56q0,.25,0,.66a1.61,1.61,0,0,0,0,.66,40.41,40.41,0,0,1,.25,5.12v8.76a32.5,32.5,0,0,0,.58,7.1q.17.58,2.23,1.2a12.14,12.14,0,0,0,2.81.62c.17,0,.26.4.29,1.2a4.7,4.7,0,0,1-.12,1.61q-.58-.08-4.34-.33t-5.66-.25q-2,0-5.66.25t-4.42.33a3.08,3.08,0,0,1-.25-1.57q0-1.24.25-1.24a11.09,11.09,0,0,0,3-.62q2-.62,2.15-1.2a27,27,0,0,0,.58-6v-7.93q0-6.44-1.9-9.33a6.29,6.29,0,0,0-5.62-2.89,7.91,7.91,0,0,0-4.54,1.4,3.9,3.9,0,0,0-2.07,3.14V204.8a30.36,30.36,0,0,0,.66,7.44q.16.58,2.15,1.2a11.21,11.21,0,0,0,2.73.62c.22,0,.34.4.37,1.2a4.7,4.7,0,0,1-.12,1.61q-.66-.08-4.34-.33t-5.58-.25q-2.07,0-5.78.25t-4.38.33a2.42,2.42,0,0,1-.33-1.57q0-1.24.33-1.24a12,12,0,0,0,3-.62q2.06-.62,2.23-1.2a27,27,0,0,0,.58-6V192.74q0-3.88-1.32-5.29a4,4,0,0,0-1.86-1.24,9.31,9.31,0,0,0-2-.5c-.55-.05-.83-.14-.83-.25q0-2.4.5-2.48a114.56,114.56,0,0,0,13.22-2.48.54.54,0,0,1,.25-.12,1.75,1.75,0,0,1,.41,0q.41,0,.66.58a1.53,1.53,0,0,1,.17.91,28.17,28.17,0,0,0-.33,3c0,.22.05.36.17.41a1.23,1.23,0,0,0,.41-.25,18.31,18.31,0,0,1,5.08-3.47A14.46,14.46,0,0,1,260.57,180Z"/><path class="cls-2" d="M320.21,180a15.32,15.32,0,0,1,6.94,1.53,13.07,13.07,0,0,1,4.79,3.88,19.21,19.21,0,0,1,2.64,4.87,14.24,14.24,0,0,1,.91,4.83q0,1.82-.62,2.27a4.69,4.69,0,0,1-2.52.45H312.61q-.58,0-.58.5a16.06,16.06,0,0,0,1.07,5.78,11.36,11.36,0,0,0,3.68,4.87,9.72,9.72,0,0,0,6.24,2.07,22.66,22.66,0,0,0,2.4-.12,12.37,12.37,0,0,0,2.15-.41q1-.29,1.73-.54a7.1,7.1,0,0,0,1.53-.74l1.12-.7q.33-.21,1.65-1.12a1.36,1.36,0,0,1,.41.5,1.6,1.6,0,0,1,.25.83,2.54,2.54,0,0,1-.5,1.57,13.46,13.46,0,0,1-4.87,4.46,15.33,15.33,0,0,1-8.18,2.23,16.73,16.73,0,0,1-12.39-5.33,17.82,17.82,0,0,1-5.2-12.93q0-8.34,4.83-13.55A16,16,0,0,1,320.21,180Zm-.58,3.8a5.84,5.84,0,0,0-3.55,1.16,7.79,7.79,0,0,0-2.4,2.81,15.79,15.79,0,0,0-1.2,3.1,10.11,10.11,0,0,0-.37,2.44c0,.39.17.58.5.58H326q.74,0,.74-1.24a10.71,10.71,0,0,0-1.94-5.87A5.92,5.92,0,0,0,319.63,183.82Z"/><path class="cls-2" d="M366.31,180Q377,180,377,197v7.85a34.6,34.6,0,0,0,.58,7.44q.16.58,2.27,1.2a12.66,12.66,0,0,0,2.85.62c.17,0,.26.4.29,1.2a4.66,4.66,0,0,1-.12,1.61q-.5-.08-4.34-.33t-5.74-.25q-2,0-5.49.25t-4.25.33a2.42,2.42,0,0,1-.33-1.57q0-1.24.33-1.24a9.82,9.82,0,0,0,2.77-.62q1.86-.62,2-1.2a23.75,23.75,0,0,0,.66-6v-7.85q0-6.86-1.86-9.58T360.69,186a7.65,7.65,0,0,0-4.63,1.45,4,4,0,0,0-2,3.1V204.8a34.6,34.6,0,0,0,.58,7.44q.16.58,2.19,1.2a11.88,11.88,0,0,0,2.68.62c.22,0,.34.4.37,1.2a4.7,4.7,0,0,1-.12,1.61q-.66-.08-4.34-.33t-5.58-.25q-2,0-5.74.25t-4.42.33a2.42,2.42,0,0,1-.33-1.57q0-1.24.33-1.24a11.52,11.52,0,0,0,3-.62q2-.62,2.19-1.2a27,27,0,0,0,.58-6V192.74q0-3.88-1.32-5.29a4,4,0,0,0-1.86-1.24,9.41,9.41,0,0,0-2-.5c-.52-.05-.78-.14-.78-.25q0-2.4.41-2.48a117.21,117.21,0,0,0,13.3-2.48.54.54,0,0,1,.21-.12.79.79,0,0,1,.25,0h.21c.22,0,.41.19.58.58a2.52,2.52,0,0,1,.25.91,28.17,28.17,0,0,0-.33,3,.65.65,0,0,0,.08.41,1.23,1.23,0,0,0,.41-.25,18.31,18.31,0,0,1,5.08-3.47A14.46,14.46,0,0,1,366.31,180Z"/><path class="cls-2" d="M392.33,185.8h-5q-.58,0-.58-2.15a2,2,0,0,1,.08-.74,23.1,23.1,0,0,0,6.36-4.38q1.07-1.07,2.35-2.44t3-3.51a5.88,5.88,0,0,1,1.57.21c.5.14.74.29.74.46v8.1l6,0,4.09,0q.66,0,.66.74a8,8,0,0,1-.83,3.63h-9.91v19.91a7.84,7.84,0,0,0,1.4,5,4.72,4.72,0,0,0,3.88,1.74,7.79,7.79,0,0,0,1.73-.21,8.78,8.78,0,0,0,1.49-.45q.58-.25,1.07-.5a2.59,2.59,0,0,1,.58-.25q.33-.08.74.74t.33,1.07q-.5,1.16-3.51,2.68a13,13,0,0,1-5.91,1.53,10.42,10.42,0,0,1-7.31-2.77q-3-2.77-3-8.55Z"/><path class="cls-3" d="M415,108.26,251.61,185.91a13.66,13.66,0,0,1-18.19-6.49h0a13.66,13.66,0,0,1,6.49-18.19L403.27,83.58a13.66,13.66,0,0,1,18.19,6.49h0A13.66,13.66,0,0,1,415,108.26Z"/><path class="cls-1" d="M258.57,159.7a6,6,0,0,1,1.81-.57,4.11,4.11,0,0,1,4,1.77l-1.88,1.35a3.39,3.39,0,0,0-1.44-1,2.12,2.12,0,0,0-1.61.13,2.35,2.35,0,0,0-1.35,1.78,5.18,5.18,0,0,0,.59,3.15,5.63,5.63,0,0,0,2,2.48,2.24,2.24,0,0,0,2.25.16,2.62,2.62,0,0,0,1.44-1.35,2.06,2.06,0,0,0-.1-1.68l2.07-1a3.78,3.78,0,0,1,.17,3.28,5.11,5.11,0,0,1-2.65,2.44,4.59,4.59,0,0,1-4,.11,6.81,6.81,0,0,1-3.19-3.48,6.61,6.61,0,0,1-.64-4.69A4.58,4.58,0,0,1,258.57,159.7Z"/><path class="cls-1" d="M269.48,157.79a4.87,4.87,0,0,1,1.62-.46,3.48,3.48,0,0,1,1.57.2,4.77,4.77,0,0,1,2.62,2.63,4.72,4.72,0,0,1,.36,3.66,4,4,0,0,1-2.21,2.33,4.1,4.1,0,0,1-3.23.25,4.68,4.68,0,0,1-2.61-2.6,4.73,4.73,0,0,1-.37-3.7A4.1,4.1,0,0,1,269.48,157.79Zm3.88,3.27a3.36,3.36,0,0,0-1.38-1.65,1.8,1.8,0,0,0-1.66,0,2,2,0,0,0-1.13,1.3,3.07,3.07,0,0,0,.34,2.15,3.31,3.31,0,0,0,1.39,1.65,1.82,1.82,0,0,0,1.66,0,2,2,0,0,0,1.12-1.3A3.07,3.07,0,0,0,273.37,161.06Z"/><path class="cls-1" d="M283.46,153.27a3,3,0,0,1,1.88-3,3,3,0,0,1,2.66-.08,4.32,4.32,0,0,1,2,2.19l2.19,4.63-1.94.92L288,153.32a2.07,2.07,0,0,0-1.05-1.13,1.73,1.73,0,0,0-1.4.12,1.65,1.65,0,0,0-.94,1.26,4,4,0,0,0,.44,2.27l1.76,3.72-1.92.91-2.19-4.63a2.07,2.07,0,0,0-1.05-1.13,1.73,1.73,0,0,0-1.4.12,1.81,1.81,0,0,0-1,1.31,3.75,3.75,0,0,0,.39,2.33l1.74,3.67-1.92.91-3.75-7.93,1.68-.8.86,1.27a2.9,2.9,0,0,1,1.76-2.77,3.15,3.15,0,0,1,1.87-.33A3,3,0,0,1,283.46,153.27Z"/><path class="cls-1" d="M289.9,145.25a1.21,1.21,0,0,1-.08-1,1.58,1.58,0,0,1,1.75-.83,1.36,1.36,0,0,1,.78,1.65,1.58,1.58,0,0,1-1.75.83A1.21,1.21,0,0,1,289.9,145.25Zm1.43,2.44,1.92-.91,3.76,7.94-1.92.91Z"/><path class="cls-1" d="M299.07,145.73a3.19,3.19,0,0,1,4.43-2.85,4.49,4.49,0,0,1,1.95,2.19l2.19,4.63-1.92.91L303.52,146a2.07,2.07,0,0,0-1.05-1.13,1.73,1.73,0,0,0-1.4.12,1.81,1.81,0,0,0-1,1.31,3.75,3.75,0,0,0,.39,2.33l1.74,3.67-1.92.91-3.75-7.93,1.68-.8Z"/><path class="cls-1" d="M309.59,144.8a2.84,2.84,0,0,1-1.93-1.58,2.81,2.81,0,0,1,0-2.57,3.92,3.92,0,0,1,1.88-1.83,4.75,4.75,0,0,1,2.34-.53,2.38,2.38,0,0,1,.09-1.88,2.7,2.7,0,0,1,1.34-1.34l.77,1.89q-1.4.66-1,1.62a2.69,2.69,0,0,1,1.33,1.25,3.11,3.11,0,0,1,.34,1.44,2.91,2.91,0,0,1-.33,1.24,4.09,4.09,0,0,1-2,1.91,4.54,4.54,0,0,1-1.57.44.87.87,0,0,0-.28,1.09q.35.73,1.59.15l2.66-1.26q2.71-1.28,3.6.61a3,3,0,0,1,.27,1.4,3.69,3.69,0,0,1-.41,1.52,5.86,5.86,0,0,1-2.87,2.63,6.33,6.33,0,0,1-3.56.71,2.46,2.46,0,0,1-2-1.34,1.71,1.71,0,0,1-.1-1.38,2.35,2.35,0,0,1,.92-1.11,1.88,1.88,0,0,1-1.65-1,1.48,1.48,0,0,1-.09-1.12A2.2,2.2,0,0,1,309.59,144.8Zm3.09,2.73q-1.5.79-1,1.88a1.11,1.11,0,0,0,1.07.58,3.62,3.62,0,0,0,1.68-.39,5.64,5.64,0,0,0,1.31-.8,3.11,3.11,0,0,0,.65-.79,1.55,1.55,0,0,0,.18-1.52.69.69,0,0,0-.43-.38.94.94,0,0,0-.68.09Zm-.1-6.67a1.73,1.73,0,0,0-.88-.9,1.56,1.56,0,0,0-1.31.11,1.54,1.54,0,0,0-.83,2.22,1.7,1.7,0,0,0,.9.9,1.63,1.63,0,0,0,1.34-.12,1.55,1.55,0,0,0,.92-1A1.77,1.77,0,0,0,312.58,140.86Z"/><path class="cls-1" d="M321.5,130.18l2.41-1.14L332.4,138l-2,1L328.54,137l-3.93,1.86.33,2.64-2,1Zm2.92,7,3-1.41-3.62-3.86Z"/><path class="cls-1" d="M338.86,133.16a2.78,2.78,0,0,1-1.67,2.72,3,3,0,0,1-3.55-.34,3.88,3.88,0,0,1-.9-1.27l-2.39-5.06,1.92-.91,2.3,4.86a1.78,1.78,0,0,0,.93,1,1.37,1.37,0,0,0,1.1-.05,2.68,2.68,0,0,0,.85-.59,2,2,0,0,0,.43-.77,3.22,3.22,0,0,0-.25-2.18l-1.85-3.91,1.92-.91,3.76,7.94-1.92.91Z"/><path class="cls-1" d="M343.65,128.68a2.84,2.84,0,0,1-1.93-1.58,2.81,2.81,0,0,1,0-2.57,3.92,3.92,0,0,1,1.88-1.83,4.75,4.75,0,0,1,2.34-.53,2.38,2.38,0,0,1,.09-1.88,2.7,2.7,0,0,1,1.34-1.34l.77,1.89q-1.4.66-1,1.62a2.69,2.69,0,0,1,1.33,1.25,3.11,3.11,0,0,1,.34,1.44,2.91,2.91,0,0,1-.33,1.24,4.09,4.09,0,0,1-2,1.91,4.54,4.54,0,0,1-1.57.44.87.87,0,0,0-.28,1.09q.35.73,1.59.15l2.66-1.26q2.71-1.28,3.6.61a3,3,0,0,1,.27,1.4,3.69,3.69,0,0,1-.41,1.52,5.86,5.86,0,0,1-2.87,2.63,6.33,6.33,0,0,1-3.56.71,2.46,2.46,0,0,1-2-1.34,1.71,1.71,0,0,1-.1-1.38,2.35,2.35,0,0,1,.92-1.11,1.88,1.88,0,0,1-1.65-1,1.48,1.48,0,0,1-.09-1.12A2.2,2.2,0,0,1,343.65,128.68Zm3.09,2.73q-1.5.79-1,1.88a1.11,1.11,0,0,0,1.07.58,3.62,3.62,0,0,0,1.68-.39,5.64,5.64,0,0,0,1.31-.8,3.11,3.11,0,0,0,.65-.79,1.55,1.55,0,0,0,.18-1.52.69.69,0,0,0-.43-.38.94.94,0,0,0-.68.09Zm-.1-6.67a1.73,1.73,0,0,0-.88-.9,1.56,1.56,0,0,0-1.31.11,1.54,1.54,0,0,0-.83,2.22,1.7,1.7,0,0,0,.9.9,1.63,1.63,0,0,0,1.34-.12,1.55,1.55,0,0,0,.92-1A1.77,1.77,0,0,0,346.63,124.74Z"/><path class="cls-1" d="M358.58,123.83a2.78,2.78,0,0,1-1.67,2.72,3,3,0,0,1-3.55-.34,3.88,3.88,0,0,1-.9-1.27l-2.39-5.06L352,119l2.3,4.86a1.78,1.78,0,0,0,.93,1,1.37,1.37,0,0,0,1.1-.05,2.68,2.68,0,0,0,.85-.59,2,2,0,0,0,.43-.77,3.22,3.22,0,0,0-.25-2.18l-1.85-3.91,1.92-.91,3.76,7.94-1.92.91Z"/><path class="cls-1" d="M364.15,120q.57,1.11,2.18.35a2,2,0,0,0,.89-.75.84.84,0,0,0,.1-.82.74.74,0,0,0-.51-.44,2.68,2.68,0,0,0-.94,0l-2,.2q-2.24.24-3-1.27a2.07,2.07,0,0,1,.14-2.05,4.73,4.73,0,0,1,2.14-1.76,4,4,0,0,1,2.67-.44,2.41,2.41,0,0,1,1.65,1.27l-1.81.86a.88.88,0,0,0-.67-.44,2,2,0,0,0-1.09.24,1.84,1.84,0,0,0-.87.72.79.79,0,0,0-.08.75q.27.57,1.36.39l2.21-.19a4.12,4.12,0,0,1,1.8.12,1.83,1.83,0,0,1,1.09,1,2.32,2.32,0,0,1-.13,2.14,4.45,4.45,0,0,1-2.19,2,4.71,4.71,0,0,1-2.87.51,2.55,2.55,0,0,1-1.9-1.49Z"/><path class="cls-1" d="M377.19,116.54a5.54,5.54,0,0,1-1.5,1.23,4,4,0,0,1-1.15.37,2.72,2.72,0,0,1-1-.05,2.59,2.59,0,0,1-1.62-1.49l-2.1-4.44-1.11.52-.61-1.29,1.11-.52-1-2.09,1.92-.91,1,2.09,2.15-1,.61,1.29-2.15,1,2.07,4.37a.93.93,0,0,0,1.39.54,4.34,4.34,0,0,0,1.1-.84Z"/><path class="cls-1" d="M383.93,111.43l6.05-2.86.83,1.76-8,3.78-.86-1.81a3.37,3.37,0,0,1,0-3.41,6.29,6.29,0,0,1,.81-1l1.78-1.86a2.71,2.71,0,0,0,.72-1.19,1.77,1.77,0,0,0-.16-1.19,1.51,1.51,0,0,0-.93-.83,2,2,0,0,0-1.45.18,2.44,2.44,0,0,0-1.16,1,1.73,1.73,0,0,0-.06,1.45l-2.14,1a3.28,3.28,0,0,1,0-3A5.12,5.12,0,0,1,382,101.3a4.6,4.6,0,0,1,3.14-.41,3.11,3.11,0,0,1,2.15,1.72,3.53,3.53,0,0,1,.34,2.42,5.45,5.45,0,0,1-1.42,2.3l-1.8,1.89a2.77,2.77,0,0,0-.66,1,1.2,1.2,0,0,0,.08.91Z"/><path class="cls-1" d="M392.26,101.76a11.3,11.3,0,0,1,1.61-.94,4.49,4.49,0,0,1,3-.45,3,3,0,0,1,2.06,1.81,3.89,3.89,0,0,1,.17,3.18,4.52,4.52,0,0,1-2.4,2.47,4.63,4.63,0,0,1-3.21.44,3.53,3.53,0,0,1-2.31-2l2-.93a1.54,1.54,0,0,0,1.13,1,2.66,2.66,0,0,0,1.6-.28A2.14,2.14,0,0,0,397,104.8a2.12,2.12,0,0,0-.11-1.68q-.76-1.61-2.95-.58l-3.23,1.53-2.09-5.68,6.34-3,.83,1.76-4.49,2.12Z"/></svg>