<?xml version="1.0" encoding="utf-8"?>
<!-- Generator: Adobe Illustrator 21.1.0, SVG Export Plug-In . SVG Version: 6.00 Build 0)  -->
<svg version="1.1" xmlns="http://www.w3.org/2000/svg" xmlns:xlink="http://www.w3.org/1999/xlink" x="0px" y="0px"
	 viewBox="0 0 892.6 79.3" style="enable-background:new 0 0 892.6 79.3;" xml:space="preserve">
<style type="text/css">
	.st0{fill:#F8EDF4;}
	.st1{fill:#FFFFFF;}
	.st2{fill:#FAEFE6;}
	.st3{fill:#1414EF;}
	.st4{fill:#FFFFFF;stroke:#1414EF;stroke-width:1.2;stroke-miterlimit:10;}
	.st5{fill:#EB7975;}
	.st6{fill:#606060;}
	.st7{fill:none;}
	.st8{fill:none;stroke:#1414EF;stroke-width:1.5;stroke-miterlimit:10;}
	.st9{fill:none;stroke:#1414EF;stroke-width:1.5;stroke-linejoin:bevel;stroke-miterlimit:10;}
	.st10{fill:#FFFFFF;stroke:#1414EF;stroke-width:1.2587;stroke-miterlimit:10;}
	.st11{fill:#FFFFFF;stroke:#1414EF;stroke-width:2;stroke-miterlimit:10;}
	.st12{fill:none;stroke:#1414EF;stroke-width:3.025;stroke-miterlimit:10;}
	.st13{fill:none;stroke:#1414EF;stroke-width:3.025;stroke-linejoin:bevel;stroke-miterlimit:10;}
	.st14{fill:none;stroke:#1414EF;stroke-width:15;stroke-miterlimit:10;}
	.st15{fill:#EB7975;stroke:#FAEFE6;stroke-width:1.4;stroke-miterlimit:10;}
</style>
<g id="Layer_1">
	<g>
		<path class="st3" d="M39.6,31.6c0-7.8,2.6-14.5,7.9-20.1c5.3-5.6,11.7-8.4,19.2-8.4c4.8,0,11.2,1,19.2,3.1
			c0.2,0.1,0.4,1.9,0.7,5.5c0.3,3.6,0.5,5.7,0.5,6.4s-0.6,1-1.7,1c-0.8,0-1.4-0.2-1.8-0.5c-0.2-0.8-0.4-1.5-0.7-2.3
			c-0.3-0.8-0.9-1.7-1.7-2.9c-0.8-1.2-1.8-2.2-2.9-3c-1.1-0.8-2.7-1.6-4.6-2.2c-2-0.6-4.2-0.9-6.7-0.9c-5.4,0-9.6,2.1-12.6,6.4
			c-3,4.3-4.5,9.8-4.5,16.5c0,4,0.7,7.8,2.1,11.4c1.4,3.7,3.6,6.8,6.7,9.3c3.1,2.6,6.6,3.8,10.7,3.8c3.5,0,6.1-0.5,7.9-1.6
			c0.5-0.4,0.8-1,0.8-1.9l-0.1-5.9v-0.6c0-3.3-0.2-5.5-0.6-6.7c-0.2-0.7-1-1.2-2.4-1.6c-1.4-0.3-2.6-0.5-3.5-0.5
			c-0.2,0-0.3-0.4-0.3-1.2c0-0.8,0.1-1.3,0.3-1.5c0.6,0,2.3,0.1,5,0.2c2.7,0.2,4.9,0.2,6.6,0.2c0.1,0,3.4-0.2,10-0.5
			c0.2,0.5,0.2,1,0.2,1.4c0,0.9-0.1,1.4-0.3,1.4c-0.3,0-1.1,0.2-2.2,0.5c-1.1,0.3-1.9,0.6-2.4,0.8c-0.7,0.4-1.1,2.5-1.1,6
			c0,1.2,0,2.3,0,3.5c0,1.2,0,1.8,0,1.9c0,1,0.1,1.8,0.4,2.6c0.3,0.7,0.4,1.1,0.4,1.2c0,0.8-0.6,1.4-1.8,2c-2.2,1-3.8,1.7-4.9,2.1
			c-1,0.4-3,0.9-6,1.4c-2.9,0.5-6.2,0.8-9.8,0.8c-7.3,0-13.5-2.7-18.5-8.1C42.2,45.4,39.6,39,39.6,31.6z"/>
		<path class="st3" d="M112.5,46.5c0,3.4,0.2,5.8,0.7,7.4c0.1,0.4,0.9,0.8,2.2,1.2c1.4,0.4,2.3,0.6,2.8,0.6c0.2,0,0.3,0.4,0.4,1.2
			c0,0.8,0,1.3-0.1,1.6c-0.4-0.1-1.9-0.2-4.4-0.3c-2.6-0.2-4.4-0.2-5.7-0.2c-1.4,0-3.3,0.1-5.8,0.2c-2.5,0.2-4,0.3-4.3,0.3
			c-0.2-0.2-0.3-0.7-0.3-1.6s0.1-1.2,0.3-1.2c0.6,0,1.6-0.2,3-0.6c1.4-0.4,2.1-0.8,2.2-1.2c0.4-1.7,0.6-3.7,0.6-6V34.4
			c0-2.6-0.4-4.3-1.3-5.3c-0.5-0.5-1.1-1-1.9-1.2c-0.8-0.3-1.4-0.4-2-0.5c-0.6-0.1-0.8-0.1-0.8-0.2c0-1.6,0.2-2.4,0.5-2.5
			c1.5-0.1,3.8-0.4,6.7-1c2.9-0.5,5.1-1,6.5-1.5c0.1,0,0.3-0.1,0.7-0.2c0.3,0,0.5,0.2,0.7,0.6c0.2,0.4,0.2,0.7,0.2,0.9
			c-0.4,3.5-0.7,5.9-0.7,7.1V46.5z M103.9,11.9c-1-1-1.5-2.2-1.5-3.6c0-1.4,0.5-2.6,1.5-3.6s2.2-1.5,3.6-1.5c1.4,0,2.6,0.5,3.6,1.5
			c1,1,1.5,2.2,1.5,3.6c0,1.4-0.5,2.6-1.5,3.6c-1,1-2.2,1.5-3.6,1.5C106.1,13.4,104.9,12.9,103.9,11.9z"/>
		<path class="st3" d="M153.1,26.9c-0.7-1.5-2.6-2.2-5.8-2.2c-0.2,0-0.2-0.4-0.2-1.2s0.1-1.3,0.2-1.5c0.8,0,2.1,0.1,4,0.2
			c1.9,0.2,3.5,0.2,4.7,0.2s2.9-0.1,4.8-0.2c2-0.2,3.3-0.2,4-0.2c0.2,0.2,0.2,0.7,0.2,1.3c0,0.9-0.2,1.3-0.5,1.3
			c-0.8,0-1.8,0.3-3.2,0.8c-1.4,0.5-2.3,1.3-2.8,2.4L144.8,57c-0.2,0.4-0.6,0.9-1.1,1.4c-0.5,0.5-1,0.7-1.4,0.7
			c-0.6,0-0.9-0.2-1-0.5c-1.1-2.5-2.6-5.9-4.5-10.3c-1.9-4.4-3.5-8.1-4.9-11.1c-1.4-3-2.9-6.4-4.7-10.2c-0.7-1.5-2.5-2.3-5.4-2.3
			c-0.2,0-0.3-0.4-0.3-1.3c0-0.7,0.1-1.1,0.3-1.3c0.5,0,2,0.1,4.4,0.2c2.4,0.2,4.3,0.2,5.6,0.2s3.2-0.1,5.7-0.2
			c2.5-0.2,3.9-0.2,4.3-0.2c0.2,0.2,0.2,0.7,0.2,1.5c0,0.8-0.2,1.2-0.4,1.2c-0.7,0-1.7,0.2-2.9,0.5c-1.2,0.3-1.9,0.8-1.9,1.3
			c0,0.4,0.1,0.7,0.2,0.8l8.2,19l7.4-16.4C153.3,28.5,153.5,27.5,153.1,26.9z"/>
		<path class="st3" d="M183.6,46.5c0,3.4,0.2,5.8,0.7,7.4c0.1,0.4,0.9,0.8,2.2,1.2c1.4,0.4,2.3,0.6,2.8,0.6c0.2,0,0.3,0.4,0.4,1.2
			c0,0.8,0,1.3-0.1,1.6c-0.4-0.1-1.9-0.2-4.4-0.3c-2.6-0.2-4.4-0.2-5.7-0.2c-1.4,0-3.3,0.1-5.8,0.2c-2.5,0.2-4,0.3-4.3,0.3
			c-0.2-0.2-0.3-0.7-0.3-1.6s0.1-1.2,0.3-1.2c0.6,0,1.6-0.2,3-0.6c1.4-0.4,2.1-0.8,2.2-1.2c0.4-1.7,0.6-3.7,0.6-6V34.4
			c0-2.6-0.4-4.3-1.3-5.3c-0.5-0.5-1.1-1-1.9-1.2c-0.8-0.3-1.4-0.4-2-0.5c-0.6-0.1-0.8-0.1-0.8-0.2c0-1.6,0.2-2.4,0.5-2.5
			c1.5-0.1,3.8-0.4,6.7-1c2.9-0.5,5.1-1,6.5-1.5c0.1,0,0.3-0.1,0.7-0.2c0.3,0,0.5,0.2,0.7,0.6c0.2,0.4,0.2,0.7,0.2,0.9
			c-0.4,3.5-0.7,5.9-0.7,7.1V46.5z M175,11.9c-1-1-1.5-2.2-1.5-3.6c0-1.4,0.5-2.6,1.5-3.6c1-1,2.2-1.5,3.6-1.5
			c1.4,0,2.6,0.5,3.6,1.5s1.5,2.2,1.5,3.6c0,1.4-0.5,2.6-1.5,3.6c-1,1-2.2,1.5-3.6,1.5C177.2,13.4,176,12.9,175,11.9z"/>
		<path class="st3" d="M220.7,21.7c7.1,0,10.7,5.6,10.7,16.9v7.8c0,3.4,0.2,5.8,0.6,7.4c0.1,0.4,0.9,0.8,2.3,1.2s2.4,0.6,2.8,0.6
			c0.2,0,0.3,0.4,0.3,1.2c0,0.8,0,1.3-0.1,1.6c-0.3-0.1-1.8-0.2-4.3-0.3c-2.6-0.2-4.5-0.2-5.7-0.2c-1.3,0-3.2,0.1-5.5,0.2
			c-2.3,0.2-3.8,0.3-4.3,0.3c-0.2-0.2-0.3-0.7-0.3-1.6s0.1-1.2,0.3-1.2c0.6,0,1.5-0.2,2.8-0.6c1.2-0.4,1.9-0.8,2-1.2
			c0.4-1.7,0.7-3.7,0.7-6V40c0-4.6-0.6-7.8-1.9-9.6c-1.2-1.8-3.2-2.7-5.9-2.7c-1.8,0-3.3,0.5-4.6,1.4c-1.3,1-2,2-2,3.1v14.2
			c0,3.4,0.2,5.8,0.6,7.4c0.1,0.4,0.8,0.8,2.2,1.2c1.3,0.4,2.2,0.6,2.7,0.6c0.2,0,0.3,0.4,0.4,1.2c0,0.8,0,1.3-0.1,1.6
			c-0.4-0.1-1.9-0.2-4.3-0.3c-2.5-0.2-4.3-0.2-5.6-0.2c-1.3,0-3.2,0.1-5.7,0.2c-2.5,0.2-4,0.3-4.4,0.3c-0.2-0.2-0.3-0.7-0.3-1.6
			s0.1-1.2,0.3-1.2c0.7,0,1.7-0.2,3-0.6c1.3-0.4,2.1-0.8,2.2-1.2c0.4-1.7,0.6-3.7,0.6-6V34.4c0-2.6-0.4-4.3-1.3-5.3
			c-0.4-0.5-1.1-1-1.9-1.2c-0.8-0.3-1.5-0.4-2-0.5c-0.5-0.1-0.8-0.1-0.8-0.2c0-1.6,0.1-2.4,0.4-2.5c2.5-0.2,7-1,13.3-2.5
			c0.1-0.1,0.1-0.1,0.2-0.1c0.1,0,0.2,0,0.2,0s0.2,0,0.2,0c0.2,0,0.4,0.2,0.6,0.6c0.2,0.4,0.2,0.7,0.2,0.9c-0.2,1.5-0.3,2.5-0.3,3
			c0,0.2,0,0.4,0.1,0.4c0.1,0,0.2-0.1,0.4-0.2c1.3-1.3,3-2.5,5.1-3.5C216.4,22.2,218.5,21.7,220.7,21.7z"/>
		<path class="st3" d="M257.7,21.9c2,0,4.3,0.4,6.9,1.1c2.6,0.7,4.8,1.1,6.6,1.1h4.7c0.1,0,0.3,0.4,0.6,1.1c0.3,0.7,0.4,1.3,0.4,1.7
			c0,0.8-0.2,1.2-0.5,1.2H271c-0.2,0-0.3,0.1-0.3,0.2c0,0.1,0.2,0.8,0.7,2.1c0.5,1.4,0.7,2.7,0.7,4c0,3.2-1.4,6.2-4.1,8.8
			c-2.7,2.6-6.1,3.9-10.2,3.9c-2,0-3.7-0.1-5.1-0.3c-0.7,0.3-1.3,0.8-1.8,1.5c-0.6,0.7-0.8,1.4-0.8,2c0,0.6,0.3,1,0.8,1.4
			c0.5,0.4,1.3,0.7,2.4,0.8c1.1,0.2,2,0.3,2.8,0.3c0.8,0.1,1.9,0.1,3.3,0.2c0.6,0,1,0,1.2,0c5.5,0.2,9.5,0.9,12.1,2.3
			c2.6,1.4,3.8,3.4,3.8,6.1c0.1,4.1-1.9,7.7-5.9,10.7c-4,3-8.7,4.5-14,4.5c-4,0.1-7.5-0.7-10.5-2.3c-3-1.6-4.5-3.9-4.5-6.8
			c0-1.6,0.8-3.1,2.4-4.6c1.6-1.5,3.3-2.5,5.1-3.1c-1.4-0.4-2.8-1.3-4-2.5c-1.2-1.2-1.8-2.7-1.8-4.3c0-2.4,2-4.8,6.1-7.4
			c-1.6-0.7-3.1-2.1-4.5-4.3c-1.4-2.1-2.1-4.4-2.1-6.7c0-3.9,1.4-7,4.3-9.3C250,23,253.5,21.9,257.7,21.9z M269.1,65.1
			c0-1.9-1.4-3.2-4.2-3.8c-2.8-0.6-6.5-1-11.2-1c-0.1,0-0.2,0-0.4,0.1c-0.1,0.1-0.2,0.1-0.4,0.2c-0.7,0.3-1.3,0.5-1.7,0.7
			c-0.4,0.2-0.8,0.5-1.3,0.9s-0.9,0.9-1.1,1.4c-0.2,0.5-0.4,1.2-0.4,2c0,2,1,3.6,3.1,5c2.1,1.3,4.4,2,7,2c3.1,0,5.6-0.7,7.6-2.1
			C268.1,69,269.1,67.2,269.1,65.1z M251.4,33.8c0,2.7,0.5,5,1.7,6.8c1.1,1.8,2.6,2.8,4.6,2.8c2,0,3.5-0.8,4.5-2.4
			c1-1.6,1.4-3.5,1.4-5.8c0-2.9-0.6-5.3-1.7-7.1c-1.1-1.8-2.7-2.7-4.8-2.7c-2,0-3.4,0.9-4.4,2.6C251.9,29.7,251.4,31.6,251.4,33.8z"
			/>
		<path class="st3" d="M304.9,15.1c0-3.3-0.2-5.6-0.7-6.9c-0.2-0.4-1-0.9-2.3-1.3s-2.3-0.6-3-0.6c-0.2,0-0.3-0.4-0.3-1.2
			c0-0.9,0.1-1.4,0.2-1.5c0.3,0,1.8,0.1,4.6,0.2c2.8,0.2,4.9,0.2,6.4,0.2c0.4,0,4-0.2,10.6-0.5c0.2,0.5,0.2,0.9,0.2,1.3
			c0,0.9-0.1,1.4-0.3,1.4c-0.5,0-1.5,0.2-3,0.7c-1.5,0.4-2.3,0.9-2.4,1.2c-0.4,1.7-0.7,4.1-0.7,7.3v31.1c0,3,0.2,5.5,0.7,7.4
			c0.1,0.4,0.9,0.8,2.3,1.2c1.4,0.4,2.4,0.6,2.8,0.6c0.2,0,0.3,0.5,0.3,1.6c0,0.4-0.1,0.8-0.2,1.2c-6.6-0.3-10.1-0.5-10.5-0.5
			c-1.1,0-2.3,0-3.5,0.1c-1.2,0.1-2.5,0.1-4,0.2c-1.5,0.1-2.6,0.2-3.5,0.2c-0.2-0.2-0.3-0.6-0.3-1.2c0-1,0.1-1.6,0.3-1.6
			c0.7,0,1.7-0.2,3.1-0.6c1.4-0.4,2.2-0.8,2.4-1.2c0.4-1.7,0.7-4,0.7-6.9V15.1z"/>
		<path class="st3" d="M352.3,21.7c7.1,0,10.7,5.6,10.7,16.9v7.8c0,3.4,0.2,5.8,0.6,7.4c0.1,0.4,0.9,0.8,2.3,1.2
			c1.4,0.4,2.4,0.6,2.9,0.6c0.2,0,0.3,0.4,0.3,1.2c0,0.8,0,1.3-0.1,1.6c-0.3-0.1-1.8-0.2-4.3-0.3S360,58,358.7,58
			c-1.3,0-3.2,0.1-5.5,0.2c-2.3,0.2-3.8,0.3-4.3,0.3c-0.2-0.2-0.3-0.7-0.3-1.6s0.1-1.2,0.3-1.2c0.6,0,1.5-0.2,2.8-0.6s1.9-0.8,2-1.2
			c0.4-1.7,0.7-3.7,0.7-6V40c0-4.6-0.6-7.8-1.9-9.6s-3.2-2.7-5.9-2.7c-1.8,0-3.3,0.5-4.6,1.4c-1.3,1-2,2-2,3.1v14.2
			c0,3.4,0.2,5.8,0.6,7.4c0.1,0.4,0.8,0.8,2.2,1.2c1.3,0.4,2.2,0.6,2.7,0.6c0.2,0,0.3,0.4,0.4,1.2c0,0.8,0,1.3-0.1,1.6
			c-0.4-0.1-1.9-0.2-4.3-0.3c-2.5-0.2-4.3-0.2-5.6-0.2c-1.3,0-3.2,0.1-5.7,0.2c-2.5,0.2-4,0.3-4.4,0.3c-0.2-0.2-0.3-0.7-0.3-1.6
			s0.1-1.2,0.3-1.2c0.7,0,1.7-0.2,3-0.6c1.3-0.4,2.1-0.8,2.2-1.2c0.4-1.7,0.6-3.7,0.6-6V34.4c0-2.6-0.4-4.3-1.3-5.3
			c-0.4-0.5-1.1-1-1.9-1.2c-0.8-0.3-1.5-0.4-2-0.5c-0.5-0.1-0.8-0.1-0.8-0.2c0-1.6,0.1-2.4,0.4-2.5c2.5-0.2,7-1,13.3-2.5
			c0.1-0.1,0.1-0.1,0.2-0.1c0.1,0,0.2,0,0.2,0c0.1,0,0.2,0,0.2,0c0.2,0,0.4,0.2,0.6,0.6c0.2,0.4,0.2,0.7,0.2,0.9
			c-0.2,1.5-0.3,2.5-0.3,3c0,0.2,0,0.4,0.1,0.4c0.1,0,0.2-0.1,0.4-0.2c1.3-1.3,3-2.5,5.1-3.5C348,22.2,350.1,21.7,352.3,21.7z"/>
		<path class="st3" d="M378.3,27.5h-5c-0.4,0-0.6-0.7-0.6-2.1c0-0.4,0-0.6,0.1-0.7c2.2-1,4.3-2.4,6.4-4.4c0.7-0.7,1.5-1.5,2.4-2.4
			c0.9-0.9,1.9-2.1,3-3.5c0.5,0,1.1,0.1,1.6,0.2c0.5,0.1,0.7,0.3,0.7,0.5V23c1.4,0,3.4,0,6,0c2.6,0,3.9,0,4.1,0
			c0.4,0,0.7,0.2,0.7,0.7c0,1.3-0.3,2.5-0.8,3.6h-9.9v19.9c0,2.2,0.5,3.9,1.4,5c0.9,1.2,2.2,1.7,3.9,1.7c0.5,0,1.1-0.1,1.7-0.2
			c0.6-0.1,1.1-0.3,1.5-0.5c0.4-0.2,0.7-0.3,1.1-0.5c0.3-0.2,0.5-0.2,0.6-0.2c0.2-0.1,0.5,0.2,0.7,0.7c0.3,0.6,0.4,0.9,0.3,1.1
			c-0.3,0.8-1.5,1.7-3.5,2.7c-2,1-4,1.5-5.9,1.5c-2.9,0-5.3-0.9-7.3-2.8c-2-1.8-3-4.7-3-8.6V27.5z"/>
		<path class="st3" d="M421.1,21.7c5.2,0,9.6,1.8,13.3,5.4c3.7,3.6,5.5,8,5.5,13.1s-1.8,9.5-5.4,13.1c-3.6,3.6-8,5.5-13.3,5.5
			c-5.2,0-9.7-1.8-13.3-5.5s-5.5-8-5.5-13.1c0-5.2,1.8-9.6,5.4-13.1C411.4,23.5,415.8,21.7,421.1,21.7z M420,25.6
			c-2.6,0-4.6,1.3-6,3.8c-1.4,2.5-2.1,5.5-2.1,9c0,4.5,0.9,8.3,2.7,11.6c1.8,3.3,4.3,5,7.5,5c2.6,0,4.6-1.3,6.1-3.8
			c1.5-2.5,2.2-5.5,2.2-8.9c0-2.9-0.4-5.5-1.1-8c-0.7-2.5-1.9-4.5-3.5-6.2C424.1,26.4,422.2,25.6,420,25.6z"/>
		<path class="st3" d="M479.4,3.8c2.9,0,5.5-0.1,7.7-0.3c0.2,0.7,0.4,1.5,0.7,2.4c0.3,0.9,0.8,2,1.3,3.2c0.5,1.2,1,2.4,1.5,3.5
			c0.5,1.1,1.1,2.5,1.9,4.1c0.8,1.7,1.5,3.1,2,4.2c0.5,1.1,1.3,2.7,2.3,4.7c1,2,1.8,3.5,2.3,4.5c0.5,1,1.3,2.6,2.4,4.8
			c1.1,2.2,1.9,3.7,2.3,4.5c0.3-0.7,0.6-1.8,0.8-3.4l4-20.7c0.5-3.2,0.8-5.2,0.8-6.1c0-0.9-0.8-1.7-2.5-2.3c-1.7-0.7-2.9-1-3.8-1
			c-0.1,0-0.2-0.2-0.2-0.5c0-1,0.2-1.7,0.6-2c4.6,0.2,7.8,0.3,9.7,0.3c2.3,0,5.5-0.1,9.7-0.3c0,1.7-0.2,2.5-0.6,2.5
			c-0.6,0-1.7,0.3-3.4,0.8c-1.7,0.5-2.9,1.1-3.5,1.9c-0.8,1.3-1.5,3.5-2.1,6.8l-6.2,31.4c-0.4,1.8-0.8,4.2-1.2,7
			c-0.4,2.9-0.6,4.4-0.7,4.5c-0.2,0.2-0.7,0.3-1.5,0.3c-0.6,0-1.3-0.6-2.1-1.8c-11.7-23.5-18.9-38.2-21.6-44.3l-6.8,34
			c-0.6,2.8-0.8,4.7-0.8,5.9c0,1.1,0.8,2,2.5,2.6c1.7,0.6,2.9,0.9,3.6,0.9c0.1,0,0.2,0.1,0.2,0.4c0,0.7-0.2,1.4-0.5,2.1
			c-5.1-0.3-8.3-0.4-9.6-0.4c-0.6,0-3.9,0.1-9.7,0.4c-0.1-0.2-0.2-0.4-0.2-0.7c0-0.3,0-0.5,0.1-0.8c0.1-0.3,0.2-0.5,0.2-0.7
			c0.1-0.2,0.2-0.3,0.2-0.3c0.8,0,2.1-0.2,3.8-0.7c1.7-0.5,2.9-1.2,3.4-2c0.6-1,1.3-3.4,2.1-6.9l6.3-31.6c0.4-2.2,0.7-4.3,0.7-6.2
			c0-0.8-0.8-1.4-2.3-1.9c-1.5-0.5-2.7-0.7-3.5-0.7c-0.2,0-0.2-0.2-0.2-0.5c0-1,0.2-1.7,0.6-2C474.6,3.7,477.6,3.8,479.4,3.8z"/>
		<path class="st3" d="M536,21.7c2.6,0,4.8,0.7,6.4,2c1.6,1.4,2.4,3,2.4,4.9c0,2.6-1.3,5.1-3.9,7.4c-2.6,2.4-5.4,4.2-8.4,5.4
			c-3,1.2-5.3,1.8-7.1,1.8c-0.2,0-0.3,0.6-0.3,1.9c0,5.3,1.8,7.9,5.3,7.9c1.2,0,2.5-0.4,3.8-1.2c1.3-0.8,2.3-1.4,2.9-2
			s1.1-1.1,1.4-1.4c0.1,0,0.4,0.3,0.7,0.8c0.4,0.5,0.6,0.9,0.6,1.1c-0.7,1.4-2.4,3.2-5,5.2c-2.6,2.1-5.1,3.1-7.6,3.1
			c-3.4,0-6-1.1-7.8-3.4c-1.8-2.3-2.6-5.5-2.6-9.6c0-3.7,0.9-7.4,2.8-11.1c1.8-3.7,4.3-6.8,7.3-9.2C529.9,22.9,533,21.7,536,21.7z
			 M535.2,25.7c-2,0-4,1.7-6.2,5c-2.1,3.3-3.2,6.2-3.2,8.7c0,0.2,0.1,0.3,0.3,0.3c2.3,0,4.7-1.3,7.2-3.8c2.5-2.5,3.8-5,3.8-7.5
			c0-0.8-0.2-1.5-0.5-2C536.4,25.9,535.9,25.7,535.2,25.7z"/>
		<path class="st3" d="M573.5,21.7c2.8,0,4.9,1.2,6.4,3.5c1.5,2.3,2.2,5.1,2.2,8.2c0,6.1-2.4,11.8-7.2,17.2c-4.8,5.3-9.5,8-13.9,8
			c-1.3,0-2.4-0.3-3.2-0.8l-2.1,11.2c-0.2,0.8-0.2,1.5-0.2,2.1c0,1.4,0.5,2.2,1.5,2.4c0.8,0.2,2,0.3,3.5,0.3c0.2,0,0.3,0.2,0.3,0.7
			c0,0.8-0.1,1.4-0.3,1.8h-6.1c-3.4,0.1-7.1,0.3-11.1,0.7c-0.2-0.1-0.3-0.3-0.3-0.7c0-1,0.1-1.7,0.4-2c1.7,0,2.9-0.4,3.7-1.3
			c0.4-0.6,0.8-1.8,1.2-3.8l5.9-30.2l-3.6,3.2c-0.4-0.6-0.7-1.3-0.7-2.1c0-0.3,0.1-0.6,0.4-0.9c2.5-2.6,4.1-4.2,4.6-4.7l2.5-12.6
			c1.2-0.3,2.4-0.4,3.7-0.4c1.4,0,2.6,0.2,3.8,0.6c-0.7,3.1-1,4.7-1.1,4.9c0.1-0.1,0.4-0.4,1-0.9c0.5-0.5,0.9-1,1.2-1.2
			c0.3-0.3,0.8-0.6,1.4-1.1c0.6-0.5,1.2-0.8,1.8-1.1c0.5-0.2,1.2-0.5,2-0.7C571.8,21.8,572.6,21.7,573.5,21.7z M569.9,27.3
			c-1.3,0-2.6,0.5-3.9,1.5s-2.5,2.2-3.4,3.6l-3.3,17.3c-0.6,3,0.3,4.5,2.7,4.5c1.8,0,3.6-1,5.5-3.1c1.9-2,3.4-4.7,4.6-7.9
			c1.2-3.2,1.8-6.5,1.8-9.7c0-1.8-0.3-3.3-1-4.5C572.3,27.9,571.3,27.3,569.9,27.3z"/>
		<path class="st3" d="M609.8,21.7c2.7,0,5,0.5,6.9,1.5l-4.9,25.4c-0.2,0.5-0.2,1.2-0.2,2c0,1.4,0.3,2.1,0.8,2.1
			c0.5,0,1.3-0.4,2.2-1.1c0.9-0.7,1.7-1.4,2.3-2c0.6-0.6,1-1,1.3-1.3c0.1,0,0.4,0.3,0.7,0.8c0.4,0.5,0.6,0.9,0.6,1.1
			c-0.6,1.3-2.3,3.1-5.2,5.4c-2.8,2.3-5.2,3.4-7.2,3.4c-1,0-1.9-0.4-2.6-1.2c-0.7-0.8-1-1.9-1-3.2c0-0.6,0.1-1.5,0.3-2.7
			c0.2-0.9,0.3-1.5,0.3-1.7c-0.5,0.9-1.1,1.7-1.7,2.6c-0.6,0.9-1.4,1.8-2.3,2.8c-0.9,1-1.9,1.8-3.1,2.4c-1.1,0.6-2.2,0.9-3.3,0.9
			c-2.7,0-4.8-1.1-6.4-3.3c-1.6-2.2-2.4-5-2.4-8.3c0-3.9,1.1-7.7,3.4-11.6c2.3-3.9,5.4-7.2,9.3-9.8C601.6,23,605.6,21.7,609.8,21.7z
			 M605.7,26.2c-3.1,0-6,2.4-8.6,7.1c-2.6,4.8-3.9,9.2-3.9,13.4c0,4.3,1.1,6.4,3.4,6.4c1.9,0,3.9-2,6-5.9c2.1-4,3.6-8.1,4.4-12.3
			l1.6-7.9C608,26.5,607.1,26.2,605.7,26.2z"/>
		<path class="st3" d="M634.7,21.7c1,0,1.9,0.4,2.6,1.2c0.7,0.8,1,1.9,1,3.3c0,1-0.2,2.7-0.6,4.9c-0.1,0.2-0.1,0.5-0.2,0.8
			c-0.1,0.3-0.2,0.9-0.3,1.6c-0.1,0.7-0.3,1.5-0.5,2.5c1.2-2.5,3.4-5.5,6.5-9c3.1-3.5,5.7-5.2,7.8-5.2c3.7,0,5.6,2.4,5.6,7.3
			c0,2-0.4,5-1.2,8.9l-2.1,10.7c-0.2,0.5-0.2,1.2-0.2,2c0,1.4,0.3,2.1,0.8,2.1c0.5,0,1.3-0.4,2.2-1.1c0.9-0.7,1.7-1.4,2.3-2
			c0.6-0.6,1-1,1.2-1.3c0.2,0,0.4,0.3,0.8,0.8c0.4,0.5,0.5,0.9,0.5,1.1c-0.6,1.3-2.3,3.1-5.1,5.4c-2.8,2.3-5.2,3.4-7.3,3.4
			c-1,0-1.8-0.4-2.5-1.2c-0.7-0.8-1-1.9-1-3.3c0-1.1,0.2-2.8,0.7-5.2l2.4-11.7c0.4-2.3,0.7-3.8,0.7-4.6c0-2.3-0.7-3.5-2-3.5
			c-1,0-2.4,1.1-4.2,3.3c-1.8,2.2-3.5,5.1-5.2,8.5c-1.7,3.4-2.8,6.6-3.4,9.6l-1.7,7.6c-0.9,0.3-2.1,0.4-3.6,0.4s-2.8-0.1-3.9-0.4
			l5-25.6c0.2-1.2,0.3-2.1,0.3-2.6c0-1.3-0.3-2-0.8-2c-0.7,0-1.6,0.5-2.8,1.6c-1.2,1-2,1.9-2.5,2.6c-0.2,0-0.4-0.3-0.8-0.8
			c-0.4-0.5-0.5-0.9-0.5-1.2c0.6-1.3,2.3-3,5-5.2C630.5,22.8,632.8,21.7,634.7,21.7z"/>
		<path class="st3" d="M673.3,14.1c0.1-0.7,2-1,5.6-1c0.8,0,1.5,0.1,2.1,0.2l-2.1,9.9h7.4c0.4,0,0.6,0.4,0.6,1.2c0,1-0.3,2-0.9,3
			h-7.8l-4.1,21.2c-0.2,0.5-0.2,1.2-0.2,2c0,1.4,0.3,2.1,0.8,2.1c0.6,0,1.3-0.4,2.2-1.1c0.9-0.7,1.7-1.4,2.3-2c0.6-0.6,1-1,1.3-1.3
			c0.1,0,0.4,0.3,0.7,0.8c0.4,0.5,0.6,0.9,0.6,1.1c-0.6,1.3-2.3,3.1-5.2,5.4c-2.8,2.3-5.2,3.4-7.2,3.4c-1,0-1.9-0.4-2.6-1.2
			c-0.7-0.8-1-1.9-1-3.3c0-1.2,0.2-2.9,0.7-5.2l4.2-21.7h-5.3c-0.2,0-0.2-0.3-0.2-1c0-0.5,0.1-1.2,0.4-1.8s0.5-1.1,0.7-1.3h5.3
			L673.3,14.1z"/>
		<path class="st3" d="M688,49l7.3-37.4c0.3-1.7,0.5-2.9,0.5-3.6c0-1.1-1.5-1.7-4.5-1.7c-0.2,0-0.2-0.2-0.2-0.6
			c0-0.7,0.2-1.3,0.7-1.7c1.7-0.1,3.8-0.5,6.4-1.1c2.5-0.6,4.5-1.2,5.8-1.7c0.4,0.2,0.7,0.8,0.7,1.7c0,0.4-0.4,2.7-1.2,6.8
			l-7.6,38.9c-0.1,0.6-0.2,1.3-0.2,2c0,1.4,0.3,2.1,0.8,2.1c0.5,0,1.2-0.4,2.1-1.1c0.9-0.7,1.7-1.4,2.3-2c0.6-0.6,1-1,1.3-1.3
			c0.1,0,0.4,0.3,0.7,0.8c0.4,0.5,0.6,0.9,0.6,1.1c-0.6,1.3-2.3,3.1-5.2,5.4c-2.8,2.3-5.2,3.4-7.2,3.4c-1,0-1.9-0.4-2.6-1.2
			c-0.7-0.8-1-1.9-1-3.3C687.3,53,687.5,51.3,688,49z"/>
		<path class="st3" d="M731,21.7c2.7,0,5,0.5,6.9,1.5L733,48.5c-0.2,0.5-0.2,1.2-0.2,2c0,1.4,0.3,2.1,0.8,2.1c0.5,0,1.3-0.4,2.2-1.1
			c0.9-0.7,1.7-1.4,2.3-2c0.6-0.6,1-1,1.3-1.3c0.1,0,0.4,0.3,0.7,0.8c0.4,0.5,0.6,0.9,0.6,1.1c-0.6,1.3-2.3,3.1-5.2,5.4
			c-2.8,2.3-5.2,3.4-7.2,3.4c-1,0-1.9-0.4-2.6-1.2c-0.7-0.8-1-1.9-1-3.2c0-0.6,0.1-1.5,0.3-2.7c0.2-0.9,0.3-1.5,0.3-1.7
			c-0.5,0.9-1.1,1.7-1.7,2.6c-0.6,0.9-1.4,1.8-2.3,2.8c-0.9,1-1.9,1.8-3.1,2.4c-1.1,0.6-2.2,0.9-3.3,0.9c-2.7,0-4.8-1.1-6.4-3.3
			c-1.6-2.2-2.4-5-2.4-8.3c0-3.9,1.1-7.7,3.4-11.6c2.3-3.9,5.4-7.2,9.3-9.8C722.8,23,726.8,21.7,731,21.7z M726.9,26.2
			c-3.1,0-6,2.4-8.6,7.1c-2.6,4.8-3.9,9.2-3.9,13.4c0,4.3,1.1,6.4,3.4,6.4c1.9,0,3.9-2,6-5.9c2.1-4,3.6-8.1,4.4-12.3l1.6-7.9
			C729.2,26.5,728.3,26.2,726.9,26.2z"/>
	</g>
	<g>
		<path class="st3" d="M19.5,11.6c0.6,0.3,1.1,0.8,1.4,1.5c0.3,0.6,0.5,1.4,0.5,2.2c0,0.8-0.2,1.6-0.6,2.2c-0.4,0.6-0.9,1.1-1.6,1.5
			c-0.7,0.4-1.5,0.5-2.4,0.5c-0.8,0-1.6-0.1-2.4-0.4c-0.8-0.3-1.4-0.7-2-1.1l0.7-1.4c1.2,1,2.4,1.4,3.7,1.4c0.9,0,1.5-0.2,2-0.7
			c0.5-0.5,0.7-1.1,0.7-2c0-0.8-0.2-1.4-0.7-1.9c-0.5-0.5-1.1-0.7-1.9-0.7c-1.1,0-2.1,0.4-2.8,1.3h-1.2V6.3h8v1.5h-6.1V12
			c0.7-0.6,1.5-0.9,2.6-0.9C18.1,11.1,18.9,11.3,19.5,11.6z"/>
	</g>
</g>
<g id="Layer_2">
</g>
</svg>
