<svg id="Layer_1" data-name="Layer 1" xmlns="http://www.w3.org/2000/svg" viewBox="0 0 629.53 79.7"><defs><style>.cls-1{fill:#fff;stroke-width:1.2px;}.cls-1,.cls-3{stroke:#1414ef;stroke-miterlimit:10;}.cls-2{fill:#1414ef;}.cls-3{fill:#feea80;}</style></defs><title>title</title><path class="cls-1" d="M88.2,43.58A46.19,46.19,0,0,1,87,50q-1.24,5.33-1.9,5.66-7.19,3.47-19.17,3.47a24.8,24.8,0,0,1-18.59-8A26.62,26.62,0,0,1,39.62,32,28.4,28.4,0,0,1,47.47,11.9,25.43,25.43,0,0,1,66.8,3.51,91,91,0,0,1,86.3,5.74q.25.08.5,5.41T87,17.8q0,1.24-2,1.24a2.65,2.65,0,0,1-1.16-.33,11.53,11.53,0,0,0-1.2-3.06,21.16,21.16,0,0,0-2.6-3.55A12.58,12.58,0,0,0,75,8.84a22.13,22.13,0,0,0-7.85-1.28,14.34,14.34,0,0,0-12.6,6.69,28,28,0,0,0-4.5,16q0,10.41,5.08,17.64t14.33,7.23q7.35,0,11.65-4.63A11.33,11.33,0,0,0,83,47.42q.87-1.94,1.32-3.26T85,42.84Q87.87,42.84,88.2,43.58Z"/><path class="cls-1" d="M107,46.72a33.88,33.88,0,0,0,.58,7.44q.16.58,2,1.28a9,9,0,0,0,2.52.7c.17,0,.26.39.29,1.16a4.5,4.5,0,0,1-.12,1.57l-3.1-.21-3.51-.21q-1.57-.08-3-.08-1.57,0-3.14.08L96,58.66l-3.14.21a2.33,2.33,0,0,1-.33-1.53c0-.8.11-1.2.33-1.2a8.83,8.83,0,0,0,2.77-.7q1.86-.7,2-1.28A27.4,27.4,0,0,0,98.36,48V13.67a28.8,28.8,0,0,0-.5-5.62q-.41-1.32-4.13-1.32h-.83q-.5,0-.5-1,0-1.32.5-1.32,2.56-.25,4.87-.66t3.84-.83q1.53-.41,2.64-.78T106,1.53l.58-.25h.17c.22,0,.45.17.7.5a2.53,2.53,0,0,1,.45.83,26.11,26.11,0,0,0-1,7.77Z"/><path class="cls-1" d="M135.62,22.1a18.21,18.21,0,0,1,13.26,5.41,17.7,17.7,0,0,1,5.49,13.09,18.75,18.75,0,0,1-32,13.14,17.9,17.9,0,0,1-5.45-13.14,17.8,17.8,0,0,1,5.41-13.14A18.1,18.1,0,0,1,135.62,22.1ZM134.54,26a6.65,6.65,0,0,0-6,3.76,17.77,17.77,0,0,0-2.15,9,24.09,24.09,0,0,0,2.69,11.65q2.68,5,7.48,5a6.73,6.73,0,0,0,6.07-3.8,17.57,17.57,0,0,0,2.19-8.92,28.36,28.36,0,0,0-1.07-8,14.57,14.57,0,0,0-3.47-6.16A7.66,7.66,0,0,0,134.54,26Z"/><path class="cls-1" d="M172.3,22a35.13,35.13,0,0,1,9.58,1.4,46.91,46.91,0,0,1,.91,9.25q0,.66-1.07.66-1.82,0-2-.66a10,10,0,0,0-2.44-4.92,6.46,6.46,0,0,0-5-2,5.93,5.93,0,0,0-3.76,1.07,3.67,3.67,0,0,0-1.36,3.06,4.81,4.81,0,0,0,.45,2.11,5.16,5.16,0,0,0,1.49,1.78,20.34,20.34,0,0,0,1.82,1.32q.78.5,2.35,1.32a5.38,5.38,0,0,0,.83.41l1.24.66,1.36.74L178,39a15.09,15.09,0,0,1,1.45,1l1.28,1A6.51,6.51,0,0,1,182,42.09q.37.5,1,1.28a5.33,5.33,0,0,1,.87,1.49,15.74,15.74,0,0,1,.45,1.57,7.68,7.68,0,0,1,.21,1.78,9.74,9.74,0,0,1-4,8.22,15.67,15.67,0,0,1-9.71,3,27.59,27.59,0,0,1-10.66-2.31,33,33,0,0,1-.83-4.58,40.35,40.35,0,0,1-.41-4.75,1.75,1.75,0,0,1,1.16-.41q1.9,0,2,.66a9.12,9.12,0,0,0,3.26,5.58A8.81,8.81,0,0,0,171,55.72a6,6,0,0,0,3.8-1.16,4,4,0,0,0,1.49-3.39,5.44,5.44,0,0,0-.21-1.53,4.05,4.05,0,0,0-.78-1.4l-.95-1.16A6,6,0,0,0,172.84,46q-1.12-.66-1.65-1L169.12,44q-1.53-.78-2.11-1.12a19.21,19.21,0,0,1-5.87-4.42,8.83,8.83,0,0,1-2.07-5.91,8.87,8.87,0,0,1,4-7.77A15.92,15.92,0,0,1,172.3,22Z"/><path class="cls-1" d="M206,22.1a15.32,15.32,0,0,1,6.94,1.53,13.07,13.07,0,0,1,4.79,3.88,19.21,19.21,0,0,1,2.64,4.87,14.24,14.24,0,0,1,.91,4.83q0,1.82-.62,2.27a4.69,4.69,0,0,1-2.52.45H198.4q-.58,0-.58.5a16.06,16.06,0,0,0,1.07,5.78,11.36,11.36,0,0,0,3.68,4.87,9.72,9.72,0,0,0,6.24,2.07,22.66,22.66,0,0,0,2.4-.12,12.37,12.37,0,0,0,2.15-.41q1-.29,1.73-.54a7.09,7.09,0,0,0,1.53-.74l1.12-.7q.33-.21,1.65-1.12a1.36,1.36,0,0,1,.41.5,1.6,1.6,0,0,1,.25.83,2.54,2.54,0,0,1-.5,1.57,13.46,13.46,0,0,1-4.87,4.46,15.33,15.33,0,0,1-8.18,2.23,16.73,16.73,0,0,1-12.39-5.33,17.82,17.82,0,0,1-5.2-12.93q0-8.34,4.83-13.55A16,16,0,0,1,206,22.1Zm-.58,3.8a5.84,5.84,0,0,0-3.55,1.16,7.79,7.79,0,0,0-2.4,2.81,15.78,15.78,0,0,0-1.2,3.1,10.1,10.1,0,0,0-.37,2.44c0,.39.17.58.5.58h13.38q.74,0,.74-1.24a10.71,10.71,0,0,0-1.94-5.87A5.92,5.92,0,0,0,205.43,25.9Z"/><path class="cls-1" d="M249.29,22.1q4.54,0,6.77,2.73,0,7-4,7a4.91,4.91,0,0,1-3.22-1.65,5.17,5.17,0,0,0-3.55-1.65,4.43,4.43,0,0,0-4,2.6,11,11,0,0,0-1.45,5.41V46.88a34.58,34.58,0,0,0,.58,7.44q.16.58,2.19,1.2a11.67,11.67,0,0,0,2.77.62c.17,0,.26.4.29,1.2a8.62,8.62,0,0,1,0,1.61q-.66-.08-4.38-.33t-5.62-.25q-2,0-5.74.25t-4.42.33a2.42,2.42,0,0,1-.33-1.57q0-1.24.33-1.24a11.52,11.52,0,0,0,3-.62q2-.62,2.19-1.2a27,27,0,0,0,.58-6V34.82q0-3.88-1.32-5.29a4,4,0,0,0-1.86-1.24,9.41,9.41,0,0,0-2-.5c-.52-.05-.78-.14-.78-.25q0-2.4.41-2.48A117.19,117.19,0,0,0,239,22.6a5,5,0,0,1,.66-.17c.22,0,.41.19.58.58a2,2,0,0,1,.21,1q0,.37-.12,1.16t-.21,1.65a10.57,10.57,0,0,0-.12,1.12,15.17,15.17,0,0,1,4-4A9.05,9.05,0,0,1,249.29,22.1Z"/><path class="cls-1" d="M293.14,4.21q5.58.21,9.13.21t9.17-.21q5.62-.21,9-.29a27.44,27.44,0,0,0,5.7-.83l1.57,12.64a3.19,3.19,0,0,1-2.23.58c-.44,0-.72-.14-.83-.41q-1.16-4.54-3.06-6.16t-5.95-1.61q-7.68,0-8,1.4a28.86,28.86,0,0,0-.74,7.77V47.13a28.18,28.18,0,0,0,.74,7.19q.08.58,2.23,1.2a13.15,13.15,0,0,0,2.89.62q.33,0,.33,1.49a4.31,4.31,0,0,1-.17,1.32l-3.18-.25q-2.11-.17-3.88-.25t-3.43-.08q-2.23,0-6.15.25t-4.83.33a1.91,1.91,0,0,1-.33-1.32q0-1.49.33-1.49a13.19,13.19,0,0,0,3.1-.58q2.11-.58,2.35-1.24a26.1,26.1,0,0,0,.66-6.86V17.56q0-6.86-.74-8-.66-1.4-7.85-1.4-4,0-5.95,1.61t-3.14,6.07q-.08.5-.83.5a2.78,2.78,0,0,1-2.15-.66L278.48,3.1a27.41,27.41,0,0,0,5.7.83Q287.57,4,293.14,4.21Z"/><path class="cls-1" d="M343.48,22.1a18.21,18.21,0,0,1,13.26,5.41,17.7,17.7,0,0,1,5.49,13.09,18.71,18.71,0,0,1-37.42,0,17.8,17.8,0,0,1,5.41-13.14A18.1,18.1,0,0,1,343.48,22.1ZM342.41,26a6.65,6.65,0,0,0-6,3.76,17.77,17.77,0,0,0-2.15,9,24.09,24.09,0,0,0,2.69,11.65q2.68,5,7.48,5a6.73,6.73,0,0,0,6.07-3.8,17.57,17.57,0,0,0,2.19-8.92,28.36,28.36,0,0,0-1.07-8,14.57,14.57,0,0,0-3.47-6.16A7.66,7.66,0,0,0,342.41,26Z"/><path class="cls-1" d="M395.72,4.42q.41,0,8.1-.5.74,2.31,3.39,8.55t6.49,15.2q3.84,9,6.15,14.75c0,.11.08.17.25.17a.22.22,0,0,0,.25-.25q7.27-17.43,11.57-28.67l3-9.58q2.48.25,6.77.25,3.22,0,9.83-.41a2.4,2.4,0,0,1,.25,1.32q0,1.4-.33,1.4h-.17a6.72,6.72,0,0,0-4,1.32q-1.24.91-1.07,4.46.33,7.35,1.16,34.12a21.83,21.83,0,0,0,1.32,7.6q.33.74,2.31,1.36a11.1,11.1,0,0,0,2.81.62q.33,0,.33,1.49a4,4,0,0,1-.17,1.24l-10.16-.5q-1.65,0-3.47.08l-4,.21-3.51.21a1.76,1.76,0,0,1-.33-1.24q0-1.49.33-1.49a9.76,9.76,0,0,0,2.64-.54,5.18,5.18,0,0,0,2.31-1.2,4.63,4.63,0,0,0,.83-2.89V46.88l-.83-25.11q-.33-5.12-1-5.12-.25,0-.41.5L420.5,55.64q-1.41,3.14-3.14,3.14a2.74,2.74,0,0,1-.83-.17L398,14.17q-.58,20.57-1.32,36.85a9.11,9.11,0,0,0,.25,2.56q.41.91,3.3,1.73a17.84,17.84,0,0,0,3.88.83q.33,0,.33,1.49a4,4,0,0,1-.17,1.24q-9.91-.5-10.41-.5-2.23,0-5.91.25t-4.5.25a1.91,1.91,0,0,1-.33-1.32q0-1.4.33-1.4a16.52,16.52,0,0,0,4.13-.83q2.81-.82,3.22-2.15a15.37,15.37,0,0,0,.91-5.54q.16-6.28.45-14.83t.5-14.58q.21-6,.21-7.52a7.9,7.9,0,0,0-.25-2.31q-.25-.66-2.77-1.24a18.71,18.71,0,0,0-3.59-.58c-.22,0-.33-.47-.33-1.4a1.76,1.76,0,0,1,.33-1.24l4.25.29Q393.57,4.42,395.72,4.42Z"/><path class="cls-1" d="M466.07,22.93q1.82,0,5.2-.25t4.21-.25a5.56,5.56,0,0,1,.17,1.49c0,.77-.11,1.16-.33,1.16a9,9,0,0,0-2.6.62q-1.78.62-1.86,1.36v.5q.16,1.32,7.68,18.84.66-1.49,3.22-8.14t3-7.64a7.76,7.76,0,0,0,.5-2.56,2.6,2.6,0,0,0-1.32-2,6.8,6.8,0,0,0-4-1q-.33,0-.33-1.24a2.08,2.08,0,0,1,.33-1.4q1,0,4,.25t5,.25q1.73,0,4.25-.25t3.68-.25a2.36,2.36,0,0,1,.33,1.32q0,1.32-.33,1.32a10.47,10.47,0,0,0-3.35.83,4.56,4.56,0,0,0-2.85,2.48L475.65,64.89Q470.53,77,463.34,77A4.47,4.47,0,0,1,460,75.8a3.86,3.86,0,0,1,.41-5.87q8.59,0,11.32-6.77,2-5,2.23-5.62L461.94,29.45a10.67,10.67,0,0,0-1-1.9,5,5,0,0,0-2.44-1.86,7.81,7.81,0,0,0-2.68-.62q-.33,0-.33-1.16,0-1.32.25-1.49.5,0,4.42.25T466.07,22.93Z"/><path class="cls-1" d="M514,22a35.13,35.13,0,0,1,9.58,1.4,46.91,46.91,0,0,1,.91,9.25q0,.66-1.07.66-1.82,0-2-.66A10,10,0,0,0,519,27.76a6.46,6.46,0,0,0-5-2,5.93,5.93,0,0,0-3.76,1.07,3.67,3.67,0,0,0-1.36,3.06,4.81,4.81,0,0,0,.45,2.11,5.16,5.16,0,0,0,1.49,1.78,20.34,20.34,0,0,0,1.82,1.32q.78.5,2.35,1.32a5.38,5.38,0,0,0,.83.41l1.24.66,1.36.74,1.32.78a15.09,15.09,0,0,1,1.45,1l1.28,1a6.51,6.51,0,0,1,1.24,1.16q.37.5,1,1.28a5.33,5.33,0,0,1,.87,1.49,15.74,15.74,0,0,1,.45,1.57,7.68,7.68,0,0,1,.21,1.78,9.74,9.74,0,0,1-4,8.22,15.67,15.67,0,0,1-9.71,3,27.59,27.59,0,0,1-10.66-2.31,33,33,0,0,1-.83-4.58,40.35,40.35,0,0,1-.41-4.75,1.75,1.75,0,0,1,1.16-.41q1.9,0,2,.66A9.12,9.12,0,0,0,507,53.62a8.81,8.81,0,0,0,5.66,2.11,6,6,0,0,0,3.8-1.16A4,4,0,0,0,518,51.18a5.44,5.44,0,0,0-.21-1.53,4.05,4.05,0,0,0-.78-1.4L516,47.09A6,6,0,0,0,514.52,46q-1.12-.66-1.65-1L510.81,44q-1.53-.78-2.11-1.12a19.21,19.21,0,0,1-5.87-4.42,8.83,8.83,0,0,1-2.07-5.91,8.87,8.87,0,0,1,4-7.77A15.92,15.92,0,0,1,514,22Z"/><path class="cls-1" d="M547.69,22.1a15.32,15.32,0,0,1,6.94,1.53,13.07,13.07,0,0,1,4.79,3.88,19.21,19.21,0,0,1,2.64,4.87,14.24,14.24,0,0,1,.91,4.83q0,1.82-.62,2.27a4.69,4.69,0,0,1-2.52.45H540.09q-.58,0-.58.5a16.06,16.06,0,0,0,1.07,5.78,11.36,11.36,0,0,0,3.68,4.87,9.72,9.72,0,0,0,6.24,2.07,22.66,22.66,0,0,0,2.4-.12,12.37,12.37,0,0,0,2.15-.41q1-.29,1.73-.54a7.09,7.09,0,0,0,1.53-.74l1.12-.7q.33-.21,1.65-1.12a1.36,1.36,0,0,1,.41.5,1.6,1.6,0,0,1,.25.83,2.54,2.54,0,0,1-.5,1.57,13.46,13.46,0,0,1-4.87,4.46,15.33,15.33,0,0,1-8.18,2.23,16.73,16.73,0,0,1-12.39-5.33,17.82,17.82,0,0,1-5.2-12.93q0-8.34,4.83-13.55A16,16,0,0,1,547.69,22.1Zm-.58,3.8a5.84,5.84,0,0,0-3.55,1.16,7.79,7.79,0,0,0-2.4,2.81A15.78,15.78,0,0,0,540,33a10.1,10.1,0,0,0-.37,2.44c0,.39.17.58.5.58h13.38q.74,0,.74-1.24a10.71,10.71,0,0,0-1.94-5.87A5.92,5.92,0,0,0,547.11,25.9Z"/><path class="cls-1" d="M581.15,46.72a33.88,33.88,0,0,0,.58,7.44q.16.58,2,1.28a9,9,0,0,0,2.52.7c.17,0,.26.39.29,1.16a4.5,4.5,0,0,1-.12,1.57l-3.1-.21-3.51-.21q-1.57-.08-3-.08-1.57,0-3.14.08l-3.47.21-3.14.21a2.33,2.33,0,0,1-.33-1.53c0-.8.11-1.2.33-1.2a8.83,8.83,0,0,0,2.77-.7q1.86-.7,2-1.28a27.4,27.4,0,0,0,.66-6.11V13.67a28.8,28.8,0,0,0-.5-5.62q-.41-1.32-4.13-1.32h-.83q-.5,0-.5-1,0-1.32.5-1.32,2.56-.25,4.87-.66t3.84-.83q1.53-.41,2.64-.78t1.78-.62l.58-.25H581c.22,0,.45.17.7.5a2.53,2.53,0,0,1,.45.83,26.11,26.11,0,0,0-1,7.77Z"/><path class="cls-1" d="M614.69,1.2a16.27,16.27,0,0,1,5.74.87,5.77,5.77,0,0,1,3,2.11A9.27,9.27,0,0,1,623,8.76a3,3,0,0,1-3,2,3.22,3.22,0,0,1-2.52-1.36q-1.12-1.36-2.35-2.73a3.8,3.8,0,0,0-2.89-1.36,4.4,4.4,0,0,0-3.72,2.15,13.9,13.9,0,0,0-2.11,5.21,33.72,33.72,0,0,0-.62,6.69v3.8c0,.06.05.14.17.25a.47.47,0,0,0,.33.17h9.09a.66.66,0,0,1,.41.08.87.87,0,0,1,.08.5,8.5,8.5,0,0,1-1,3.8h-8.59a.44.44,0,0,0-.5.5V46.88a31.59,31.59,0,0,0,.66,7.44q.16.58,2.19,1.2a11.67,11.67,0,0,0,2.77.62c.17,0,.26.4.29,1.2a4.68,4.68,0,0,1-.12,1.61q-.5-.08-4.3-.33t-5.78-.25q-2,0-5.62.25t-4.3.33a1.56,1.56,0,0,1-.33-.91,4.93,4.93,0,0,1,0-1.28c.05-.41.17-.62.33-.62a11.07,11.07,0,0,0,2.89-.62q2-.62,2.15-1.2a27.39,27.39,0,0,0,.74-6.77v-19c0-.38-.17-.58-.5-.58h-5c-.11,0-.17-.17-.17-.5a4.41,4.41,0,0,1,1.16-2.4,3.32,3.32,0,0,1,2.64-1.49h1.32a.44.44,0,0,0,.5-.5v-.83A22.47,22.47,0,0,1,602.51,7.4Q607.67,1.2,614.69,1.2Z"/><path class="cls-2" d="M7,18.2H9.91v1.57H2.28V18.2H5.13V9L2.85,10.39,2,9,5.67,6.72H7Z"/><path class="cls-2" d="M20.82,14.26a3.34,3.34,0,0,1,.63,2A3.15,3.15,0,0,1,20.2,19a5.71,5.71,0,0,1-3.53,1,5.71,5.71,0,0,1-3.53-1,3.15,3.15,0,0,1-1.25-2.66,3.33,3.33,0,0,1,.64-2.06,3.22,3.22,0,0,1,1.79-1.17,3.25,3.25,0,0,1-1.55-1.17,3.12,3.12,0,0,1-.56-1.85A3.07,3.07,0,0,1,13.39,7.5a5.16,5.16,0,0,1,3.28-.94A5.16,5.16,0,0,1,20,7.5a3.07,3.07,0,0,1,1.19,2.55,3.17,3.17,0,0,1-.56,1.86A3.13,3.13,0,0,1,19,13.07,3.27,3.27,0,0,1,20.82,14.26Zm-1.2,1.91q0-2.22-2.95-2.22t-2.95,2.22q0,2.2,2.95,2.2T19.62,16.17ZM14.71,8.65A1.91,1.91,0,0,0,14,10.22a2,2,0,0,0,.67,1.61,3,3,0,0,0,2,.56,3,3,0,0,0,2-.56,2,2,0,0,0,.67-1.61,1.91,1.91,0,0,0-.67-1.57,3,3,0,0,0-2-.55A3,3,0,0,0,14.71,8.65Z"/><path class="cls-3" d="M317.2,33.33,130.82,71.41a13.66,13.66,0,0,1-16.1-10.66h0a13.66,13.66,0,0,1,10.66-16.1L311.76,6.57a13.66,13.66,0,0,1,16.1,10.66h0A13.66,13.66,0,0,1,317.2,33.33Z"/><path class="cls-2" d="M143.6,48a6,6,0,0,1,1.89-.12,4.11,4.11,0,0,1,3.45,2.68l-2.15.86a3.39,3.39,0,0,0-1.17-1.28A2.12,2.12,0,0,0,144,49.9a2.35,2.35,0,0,0-1.74,1.4,5.19,5.19,0,0,0-.18,3.2,5.63,5.63,0,0,0,1.32,2.88,2.24,2.24,0,0,0,2.15.7,2.62,2.62,0,0,0,1.72-1,2.07,2.07,0,0,0,.31-1.66l2.25-.46a3.79,3.79,0,0,1-.63,3.23A5.12,5.12,0,0,1,146.08,60a4.59,4.59,0,0,1-4-.86A6.81,6.81,0,0,1,139.87,55a6.61,6.61,0,0,1,.5-4.71A4.59,4.59,0,0,1,143.6,48Z"/><path class="cls-2" d="M154.66,48.78a4.87,4.87,0,0,1,1.68-.06,3.48,3.48,0,0,1,1.48.58,4.77,4.77,0,0,1,1.92,3.19,4.72,4.72,0,0,1-.53,3.64,4,4,0,0,1-2.71,1.73,4.1,4.1,0,0,1-3.2-.53,4.68,4.68,0,0,1-1.91-3.15,4.73,4.73,0,0,1,.53-3.68A4.1,4.1,0,0,1,154.66,48.78Zm3,4.11a3.36,3.36,0,0,0-.95-1.94,1.8,1.8,0,0,0-1.62-.38,2,2,0,0,0-1.41,1,3.07,3.07,0,0,0-.19,2.17,3.32,3.32,0,0,0,1,1.93,1.82,1.82,0,0,0,1.62.38,2,2,0,0,0,1.4-1A3.07,3.07,0,0,0,157.65,52.89Z"/><path class="cls-2" d="M169.32,47.74a3,3,0,0,1,2.54-2.45,3,3,0,0,1,2.6.56,4.32,4.32,0,0,1,1.37,2.6l1,5-2.11.43-1-5a2.07,2.07,0,0,0-.75-1.35,1.73,1.73,0,0,0-1.39-.22,1.65,1.65,0,0,0-1.21,1,4,4,0,0,0-.12,2.31l.82,4-2.09.42-1-5a2.07,2.07,0,0,0-.75-1.35,1.73,1.73,0,0,0-1.39-.22,1.81,1.81,0,0,0-1.27,1,3.75,3.75,0,0,0-.18,2.36l.81,4-2.09.42-1.74-8.6,1.82-.37.53,1.44a2.9,2.9,0,0,1,2.38-2.27,3.15,3.15,0,0,1,1.9.13A3,3,0,0,1,169.32,47.74Z"/><path class="cls-2" d="M177.5,41.5a1.21,1.21,0,0,1,.16-1,1.58,1.58,0,0,1,1.9-.39,1.36,1.36,0,0,1,.36,1.79,1.58,1.58,0,0,1-1.9.39A1.21,1.21,0,0,1,177.5,41.5Zm.81,2.71,2.09-.42,1.75,8.62-2.09.42Z"/><path class="cls-2" d="M186.29,44.15a3.19,3.19,0,0,1,5-1.71,4.49,4.49,0,0,1,1.36,2.6l1,5-2.09.42-1-5a2.07,2.07,0,0,0-.75-1.35,1.73,1.73,0,0,0-1.39-.22,1.81,1.81,0,0,0-1.27,1,3.75,3.75,0,0,0-.18,2.36l.81,4-2.09.42-1.74-8.6,1.82-.37Z"/><path class="cls-2" d="M196.73,45.78a2.84,2.84,0,0,1-1.49-2,2.81,2.81,0,0,1,.64-2.49A3.91,3.91,0,0,1,198.14,40a4.75,4.75,0,0,1,2.39,0,2.38,2.38,0,0,1,.54-1.8,2.7,2.7,0,0,1,1.63-1l.3,2q-1.52.31-1.37,1.33a2.69,2.69,0,0,1,1,1.53,3.11,3.11,0,0,1,0,1.49,2.91,2.91,0,0,1-.62,1.13,4.09,4.09,0,0,1-2.41,1.37,4.54,4.54,0,0,1-1.63.05.87.87,0,0,0-.54,1q.16.8,1.51.52l2.88-.58q2.94-.6,3.35,1.46a3,3,0,0,1-.07,1.42,3.69,3.69,0,0,1-.76,1.38,5.86,5.86,0,0,1-3.42,1.87,6.33,6.33,0,0,1-3.63-.17,2.46,2.46,0,0,1-1.65-1.78,1.71,1.71,0,0,1,.23-1.36,2.35,2.35,0,0,1,1.16-.85,1.88,1.88,0,0,1-1.36-1.36,1.48,1.48,0,0,1,.18-1.11A2.21,2.21,0,0,1,196.73,45.78Zm2.35,3.39q-1.65.41-1.41,1.59a1.11,1.11,0,0,0,.89.82,3.62,3.62,0,0,0,1.73,0,5.64,5.64,0,0,0,1.46-.46,3.11,3.11,0,0,0,.83-.61,1.55,1.55,0,0,0,.54-1.44.69.69,0,0,0-.33-.48.94.94,0,0,0-.69-.07Zm1.5-6.5a1.73,1.73,0,0,0-.63-1.09,1.56,1.56,0,0,0-1.3-.21,1.55,1.55,0,0,0-1.33,2,1.7,1.7,0,0,0,.66,1.09,1.63,1.63,0,0,0,1.33.21,1.55,1.55,0,0,0,1.12-.71A1.77,1.77,0,0,0,200.58,42.67Z"/><path class="cls-2" d="M215.82,36.92a1.89,1.89,0,0,0-2.43-1.07,2.42,2.42,0,0,0-1.33.65,1.08,1.08,0,0,0-.33,1,1,1,0,0,0,.49.74,3.21,3.21,0,0,0,1.13.33L216,39a5.25,5.25,0,0,1,2.22.85,2.74,2.74,0,0,1,1.07,1.74,3,3,0,0,1-.67,2.7,5.41,5.41,0,0,1-3.14,1.59,4.94,4.94,0,0,1-3.29-.31,3.71,3.71,0,0,1-2-2.62l2.07-.42A1.75,1.75,0,0,0,214.15,44a4.56,4.56,0,0,0,1.19-.11,2.67,2.67,0,0,0,1.27-.63,1.12,1.12,0,0,0,.42-1.1,1.28,1.28,0,0,0-.53-.87,3.26,3.26,0,0,0-1.22-.39l-2.47-.44a6.1,6.1,0,0,1-2.28-.79,2.6,2.6,0,0,1-1.09-1.77,2.73,2.73,0,0,1,.66-2.49A5,5,0,0,1,213,34a4.58,4.58,0,0,1,3.17.29,3.67,3.67,0,0,1,1.72,2.26Z"/><path class="cls-2" d="M228.15,36.55a4.91,4.91,0,0,1,.5,1.32,8.06,8.06,0,0,1,.16,1.13l-5.56,1.13a3,3,0,0,0,.86,1.59,1.71,1.71,0,0,0,1.58.36A1.41,1.41,0,0,0,227,40.64l2.11-.43a3.15,3.15,0,0,1-.77,2.28,4,4,0,0,1-2.3,1.28,3.81,3.81,0,0,1-3.1-.66A4.8,4.8,0,0,1,221.08,40a4.74,4.74,0,0,1,.51-3.57,3.82,3.82,0,0,1,2.6-1.78,3.41,3.41,0,0,1,3,.69A4,4,0,0,1,228.15,36.55Zm-3.61-.21a1.76,1.76,0,0,0-1.26.85,2.64,2.64,0,0,0-.28,1.6l3.66-.74a2,2,0,0,0-1.26-1.7A1.77,1.77,0,0,0,224.55,36.35Z"/><path class="cls-2" d="M232.54,34.45a2.73,2.73,0,0,1,2.19-1.9,3.68,3.68,0,0,1,3,.65,4.74,4.74,0,0,1,1.88,3.08,4.72,4.72,0,0,1-.54,3.59,3.66,3.66,0,0,1-2.46,1.75,2.78,2.78,0,0,1-2.49-.47l1,4.88-2.09.42L230.4,33.67l1.72-.35Zm3.28,5.36a2.11,2.11,0,0,0,.74-.32,2.05,2.05,0,0,0,.62-.64,2.82,2.82,0,0,0,.3-2.13,3,3,0,0,0-1-1.83,1.93,1.93,0,0,0-1.63-.41,2.09,2.09,0,0,0-1.33.79,2,2,0,0,0-.3,1.56l.31,1.54a1.74,1.74,0,0,0,.86,1.23A2,2,0,0,0,235.82,39.81Z"/><path class="cls-2" d="M247.74,38.88a5.54,5.54,0,0,1-1.75.83,4,4,0,0,1-1.21.08,2.71,2.71,0,0,1-1-.3,2.59,2.59,0,0,1-1.22-1.83l-1-4.81-1.2.24-.28-1.4,1.2-.24-.46-2.26,2.09-.42L243.4,31l2.34-.47L246,32l-2.34.47,1,4.74a.93.93,0,0,0,1.22.86,4.33,4.33,0,0,0,1.27-.55Z"/><path class="cls-2" d="M255.31,31.05a4.91,4.91,0,0,1,.5,1.32A8.06,8.06,0,0,1,256,33.5l-5.56,1.13a3,3,0,0,0,.86,1.59,1.71,1.71,0,0,0,1.58.36,1.41,1.41,0,0,0,1.31-1.44l2.11-.43a3.15,3.15,0,0,1-.77,2.28,4,4,0,0,1-2.3,1.28,3.81,3.81,0,0,1-3.1-.66,4.8,4.8,0,0,1-1.86-3.07,4.74,4.74,0,0,1,.51-3.57,3.82,3.82,0,0,1,2.6-1.78,3.41,3.41,0,0,1,3,.69A4,4,0,0,1,255.31,31.05Zm-3.61-.21a1.76,1.76,0,0,0-1.26.85,2.64,2.64,0,0,0-.28,1.6l3.66-.74a2,2,0,0,0-1.26-1.7A1.77,1.77,0,0,0,251.71,30.84Z"/><path class="cls-2" d="M265.53,28.24a3,3,0,0,1,2.54-2.45,3,3,0,0,1,2.6.56,4.32,4.32,0,0,1,1.37,2.6l1,5L271,34.4l-1-5a2.07,2.07,0,0,0-.75-1.35,1.73,1.73,0,0,0-1.39-.22,1.65,1.65,0,0,0-1.21,1,4,4,0,0,0-.12,2.31l.82,4-2.09.42-1-5a2.07,2.07,0,0,0-.75-1.35A1.73,1.73,0,0,0,262,29a1.81,1.81,0,0,0-1.27,1,3.75,3.75,0,0,0-.18,2.36l.81,4-2.09.42-1.74-8.6,1.82-.37.53,1.44A2.9,2.9,0,0,1,262.29,27a3.15,3.15,0,0,1,1.9.13A3,3,0,0,1,265.53,28.24Z"/><path class="cls-2" d="M281.48,25.75a4.91,4.91,0,0,1,.5,1.32,8.06,8.06,0,0,1,.16,1.13l-5.56,1.13a3,3,0,0,0,.86,1.59,1.71,1.71,0,0,0,1.58.36,1.41,1.41,0,0,0,1.31-1.44l2.11-.43a3.15,3.15,0,0,1-.77,2.28,4,4,0,0,1-2.3,1.28,3.81,3.81,0,0,1-3.1-.66,4.8,4.8,0,0,1-1.86-3.07,4.74,4.74,0,0,1,.51-3.57,3.82,3.82,0,0,1,2.6-1.78,3.41,3.41,0,0,1,3,.69A4,4,0,0,1,281.48,25.75Zm-3.61-.21a1.76,1.76,0,0,0-1.26.85,2.64,2.64,0,0,0-.28,1.6l3.66-.74a2,2,0,0,0-1.26-1.7A1.77,1.77,0,0,0,277.87,25.54Z"/><path class="cls-2" d="M286.16,24.14a2.57,2.57,0,0,1,2-2.33,3.11,3.11,0,0,1,.79,0l.39,2.09a4.73,4.73,0,0,0-1,.09q-2.09.42-1.5,3.31l.76,3.77-2.09.42-1.75-8.62,2.09-.42Z"/><path class="cls-2" d="M301.58,16.11l1.47,7.27,2-.41.36,1.79-2,.41.52,2.55-2.07.42-.52-2.55-5.82,1.18-.32-1.57,4.36-8.67Zm-3.9,8.58,3.45-.7-.89-4.39Z"/></svg>