<svg id="Layer_1" data-name="Layer 1" xmlns="http://www.w3.org/2000/svg" viewBox="0 0 629.53 156.62"><defs><style>.cls-1{fill:#1414ef;}.cls-2{fill:#fff;stroke:#1414ef;stroke-miterlimit:10;stroke-width:1.2px;}</style></defs><title>title</title><path class="cls-1" d="M7,18.12H9.91v1.57H2.28V18.12H5.13V8.91L2.85,10.3,2,8.88,5.67,6.63H7Z"/><path class="cls-1" d="M19.45,12a3.6,3.6,0,0,1,1.44,1.46,4.5,4.5,0,0,1,.51,2.17,4.31,4.31,0,0,1-.56,2.22,3.81,3.81,0,0,1-1.61,1.49,5.33,5.33,0,0,1-2.44.53,6.92,6.92,0,0,1-2.38-.43,5.64,5.64,0,0,1-2-1.15l.67-1.41a5.78,5.78,0,0,0,3.69,1.43,2.79,2.79,0,0,0,2-.69,2.58,2.58,0,0,0,.72-2A2.49,2.49,0,0,0,16.89,13a3.53,3.53,0,0,0-2.83,1.33H12.84V6.63h8V8.17H14.73v4.11a3.88,3.88,0,0,1,2.57-.85A4.33,4.33,0,0,1,19.45,12Z"/><path class="cls-2" d="M52.19,4.33q.41,0,8.1-.5.74,2.31,3.39,8.55t6.48,15.2q3.84,9,6.16,14.75c0,.11.08.17.25.17a.22.22,0,0,0,.25-.25q7.27-17.43,11.57-28.67l3-9.58q2.48.25,6.77.25,3.22,0,9.83-.41a2.4,2.4,0,0,1,.25,1.32c0,.94-.11,1.4-.33,1.4h-.17a6.72,6.72,0,0,0-4,1.32q-1.24.91-1.07,4.46.33,7.35,1.16,34.12a21.82,21.82,0,0,0,1.32,7.6q.33.74,2.31,1.36a11.1,11.1,0,0,0,2.81.62q.33,0,.33,1.49a4,4,0,0,1-.17,1.24l-10.16-.5q-1.65,0-3.47.08l-4,.21-3.51.21a1.76,1.76,0,0,1-.33-1.24q0-1.49.33-1.49a9.76,9.76,0,0,0,2.64-.54,5.18,5.18,0,0,0,2.31-1.2A4.63,4.63,0,0,0,95,51.42V46.79l-.83-25.11q-.33-5.12-1-5.12-.25,0-.41.5L77,55.55q-1.41,3.14-3.14,3.14a2.74,2.74,0,0,1-.83-.17L54.5,14.08q-.58,20.57-1.32,36.85a9.11,9.11,0,0,0,.25,2.56q.41.91,3.3,1.73a17.84,17.84,0,0,0,3.88.83c.22,0,.33.5.33,1.49a4,4,0,0,1-.17,1.24q-9.91-.5-10.41-.5-2.23,0-5.91.25t-4.5.25a1.91,1.91,0,0,1-.33-1.32q0-1.4.33-1.4a16.51,16.51,0,0,0,4.13-.83q2.81-.82,3.22-2.15a15.38,15.38,0,0,0,.91-5.54q.16-6.28.45-14.83t.5-14.58q.21-6,.21-7.52a7.89,7.89,0,0,0-.25-2.31q-.25-.66-2.77-1.24a18.71,18.71,0,0,0-3.59-.58c-.22,0-.33-.47-.33-1.4a1.76,1.76,0,0,1,.33-1.24L47,4.12Q50,4.33,52.19,4.33Z"/><path class="cls-2" d="M132.12,22a18.21,18.21,0,0,1,13.26,5.41,17.7,17.7,0,0,1,5.49,13.09,18.75,18.75,0,0,1-32,13.14,17.9,17.9,0,0,1-5.45-13.14,17.8,17.8,0,0,1,5.41-13.14A18.1,18.1,0,0,1,132.12,22ZM131,25.89a6.65,6.65,0,0,0-6,3.76,17.76,17.76,0,0,0-2.15,9,24.08,24.08,0,0,0,2.69,11.65q2.68,5,7.48,5a6.73,6.73,0,0,0,6.07-3.8,17.57,17.57,0,0,0,2.19-8.92,28.36,28.36,0,0,0-1.07-8,14.57,14.57,0,0,0-3.47-6.16A7.66,7.66,0,0,0,131,25.89Z"/><path class="cls-2" d="M160.13,27.79h-5q-.58,0-.58-2.15a2.07,2.07,0,0,1,.08-.74A23.1,23.1,0,0,0,161,20.52q1.07-1.07,2.35-2.44t3-3.51a5.88,5.88,0,0,1,1.57.21c.5.14.74.29.74.46v8.1l6,0,4.09,0q.66,0,.66.74a8,8,0,0,1-.83,3.63h-9.91V47.7a7.84,7.84,0,0,0,1.4,5,4.72,4.72,0,0,0,3.88,1.74,7.78,7.78,0,0,0,1.73-.21,8.77,8.77,0,0,0,1.49-.45q.58-.25,1.07-.5a2.58,2.58,0,0,1,.58-.25q.33-.08.74.74c.28.55.38.91.33,1.07q-.5,1.16-3.51,2.68a13,13,0,0,1-5.91,1.53,10.42,10.42,0,0,1-7.31-2.77q-3-2.77-3-8.55Z"/><path class="cls-2" d="M211.27,22q10.57,0,10.57,16.28v8.51a30.34,30.34,0,0,0,.66,7.44q.08.58,2.19,1.2a12.65,12.65,0,0,0,2.85.62c.17,0,.26.4.29,1.2a8.63,8.63,0,0,1,0,1.61q-.58-.08-4.42-.33t-5.66-.25q-2.07,0-5.58.25t-4.34.33a3.09,3.09,0,0,1-.25-1.57q0-1.24.25-1.24a9.87,9.87,0,0,0,2.85-.62q1.86-.62,2.11-1.2a31.29,31.29,0,0,0,.5-6V40.1q0-6.86-1.86-9.46T205.48,28a7.91,7.91,0,0,0-4.54,1.4,3.9,3.9,0,0,0-2.07,3.14V46.79a30.34,30.34,0,0,0,.66,7.44q.16.58,2.19,1.2a11.68,11.68,0,0,0,2.77.62c.17,0,.26.4.29,1.2a4.69,4.69,0,0,1-.12,1.61q-.66-.08-4.34-.33t-5.58-.25q-2,0-5.74.25t-4.42.33a2.42,2.42,0,0,1-.33-1.57q0-1.24.33-1.24a11.52,11.52,0,0,0,3-.62q2-.62,2.19-1.2a26.56,26.56,0,0,0,.58-5.95V13.91A32.61,32.61,0,0,0,190,8.29Q189.54,7,185.66,7h-.74q-.5,0-.5-1.32t.5-1.32q2.56-.25,4.87-.66t3.84-.83q1.53-.41,2.64-.83t2.35-.83h.17a.89.89,0,0,1,.66.46,2.27,2.27,0,0,1,.41.87,26.62,26.62,0,0,0-1,7.77V27c0,.33.11.5.33.5.05,0,.17-.08.33-.25a15.73,15.73,0,0,1,5.08-3.59A15.23,15.23,0,0,1,211.27,22Z"/><path class="cls-2" d="M248.94,22a15.31,15.31,0,0,1,6.94,1.53,13.07,13.07,0,0,1,4.79,3.88,19.23,19.23,0,0,1,2.64,4.87,14.24,14.24,0,0,1,.91,4.83q0,1.82-.62,2.27a4.69,4.69,0,0,1-2.52.45H241.34q-.58,0-.58.5a16,16,0,0,0,1.07,5.78A11.36,11.36,0,0,0,245.51,51a9.72,9.72,0,0,0,6.24,2.07,22.67,22.67,0,0,0,2.4-.12,12.37,12.37,0,0,0,2.15-.41q1-.29,1.74-.54a7.11,7.11,0,0,0,1.53-.74l1.12-.7q.33-.21,1.65-1.12a1.37,1.37,0,0,1,.41.5,1.6,1.6,0,0,1,.25.83,2.54,2.54,0,0,1-.5,1.57,13.46,13.46,0,0,1-4.87,4.46A15.33,15.33,0,0,1,249.43,59,16.73,16.73,0,0,1,237,53.69a17.82,17.82,0,0,1-5.2-12.93q0-8.34,4.83-13.55A16,16,0,0,1,248.94,22Zm-.58,3.8A5.84,5.84,0,0,0,244.81,27a7.79,7.79,0,0,0-2.4,2.81,15.79,15.79,0,0,0-1.2,3.1,10.11,10.11,0,0,0-.37,2.44c0,.39.17.58.5.58h13.38q.74,0,.74-1.24a10.71,10.71,0,0,0-1.94-5.87A5.92,5.92,0,0,0,248.36,25.81Z"/><path class="cls-2" d="M292.23,22q4.54,0,6.77,2.73,0,7-4,7a4.92,4.92,0,0,1-3.22-1.65,5.17,5.17,0,0,0-3.55-1.65,4.43,4.43,0,0,0-4,2.6,11,11,0,0,0-1.45,5.41V46.79a34.56,34.56,0,0,0,.58,7.44q.16.58,2.19,1.2a11.68,11.68,0,0,0,2.77.62c.17,0,.26.4.29,1.2a8.59,8.59,0,0,1,0,1.61q-.66-.08-4.38-.33t-5.62-.25q-2,0-5.74.25t-4.42.33a2.42,2.42,0,0,1-.33-1.57q0-1.24.33-1.24a11.52,11.52,0,0,0,3-.62q2-.62,2.19-1.2a27,27,0,0,0,.58-6V34.73q0-3.88-1.32-5.29A4,4,0,0,0,271,28.2a9.4,9.4,0,0,0-2-.5c-.52-.05-.78-.14-.78-.25q0-2.4.41-2.48A117.19,117.19,0,0,0,282,22.5a5,5,0,0,1,.66-.17c.22,0,.41.19.58.58a2,2,0,0,1,.21,1q0,.37-.12,1.16t-.21,1.65a10.5,10.5,0,0,0-.12,1.12,15.16,15.16,0,0,1,4-4A9.05,9.05,0,0,1,292.23,22Z"/><path class="cls-2" d="M317.92,46.63a33.9,33.9,0,0,0,.58,7.44q.16.58,2,1.28A9,9,0,0,0,323,56q.25,0,.29,1.16a4.5,4.5,0,0,1-.12,1.57l-3.1-.21-3.51-.21q-1.57-.08-3-.08-1.57,0-3.14.08l-3.47.21-3.14.21a2.33,2.33,0,0,1-.33-1.53c0-.8.11-1.2.33-1.2a8.83,8.83,0,0,0,2.77-.7q1.86-.7,2-1.28a27.38,27.38,0,0,0,.66-6.11V13.58a28.76,28.76,0,0,0-.5-5.62q-.41-1.32-4.13-1.32h-.83q-.5,0-.5-1,0-1.32.5-1.32,2.56-.25,4.87-.66t3.84-.83q1.53-.41,2.64-.78T317,1.44l.58-.25h.17c.22,0,.45.17.7.5a2.54,2.54,0,0,1,.45.83,26.11,26.11,0,0,0-1,7.77Z"/><path class="cls-2" d="M336.76,22.83q1.82,0,5.2-.25t4.21-.25a5.58,5.58,0,0,1,.17,1.49c0,.77-.11,1.16-.33,1.16a9,9,0,0,0-2.6.62q-1.78.62-1.86,1.36v.5q.16,1.32,7.68,18.84.66-1.49,3.22-8.14t3-7.64a7.76,7.76,0,0,0,.5-2.56,2.6,2.6,0,0,0-1.32-2,6.8,6.8,0,0,0-4-1q-.33,0-.33-1.24a2.08,2.08,0,0,1,.33-1.4q1,0,4,.25t5,.25q1.73,0,4.25-.25t3.68-.25a2.36,2.36,0,0,1,.33,1.32q0,1.32-.33,1.32a10.47,10.47,0,0,0-3.35.83,4.56,4.56,0,0,0-2.85,2.48L346.34,64.8Q341.22,76.86,334,76.86a4.47,4.47,0,0,1-3.3-1.16,3.86,3.86,0,0,1,.41-5.87q8.59,0,11.32-6.77,2-5,2.23-5.62L332.62,29.36a10.66,10.66,0,0,0-1-1.9,5,5,0,0,0-2.44-1.86,7.81,7.81,0,0,0-2.68-.62q-.33,0-.33-1.16,0-1.32.25-1.49.5,0,4.42.25T336.76,22.83Z"/><path class="cls-2" d="M404.17,15.73V46.79a24.26,24.26,0,0,0,.74,6.61q.41,1.08,5.62,1.07h3.06q6.44,0,9.83-1.74a9.48,9.48,0,0,0,3-2.89,17.41,17.41,0,0,0,2.56-5q.08-.5,1.16-.5a3.55,3.55,0,0,1,2.31.5q-.25.74-1.2,3.39l-1.45,4q-.5,1.36-1.07,3.35a22.75,22.75,0,0,0-.74,3.22q-3.3,0-13.67-.25t-14.58-.08l-11,.33a2.16,2.16,0,0,1-.25-1.32q0-1.4.25-1.4a13.6,13.6,0,0,0,3.14-.54q2.06-.54,2.4-1.28.58-1.73.58-7.52V15.48a25.29,25.29,0,0,0-.66-7q-.33-.66-2.31-1.28a11.09,11.09,0,0,0-3-.62q-.33,0-.33-1.24a3.33,3.33,0,0,1,.17-1.49q.41,0,4.58.25t6.4.25q.66,0,10.57-.5a4.24,4.24,0,0,1,.25,1.32q0,1.4-.33,1.4a13.46,13.46,0,0,0-3,.66q-2.23.66-2.4,1.24A30.68,30.68,0,0,0,404.17,15.73Z"/><path class="cls-2" d="M455.39,22a18.21,18.21,0,0,1,13.26,5.41,17.7,17.7,0,0,1,5.49,13.09,18.71,18.71,0,0,1-37.42,0,17.8,17.8,0,0,1,5.41-13.14A18.1,18.1,0,0,1,455.39,22Zm-1.07,3.88a6.65,6.65,0,0,0-6,3.76,17.76,17.76,0,0,0-2.15,9,24.08,24.08,0,0,0,2.69,11.65q2.68,5,7.48,5a6.73,6.73,0,0,0,6.07-3.8,17.57,17.57,0,0,0,2.19-8.92,28.36,28.36,0,0,0-1.07-8A14.57,14.57,0,0,0,460,28.37,7.66,7.66,0,0,0,454.31,25.89Z"/><path class="cls-2" d="M509.09,27.21Q508,25,503.3,25q-.25,0-.25-1.16a2.85,2.85,0,0,1,.25-1.49q1.16,0,4,.25t4.71.25q1.86,0,4.83-.25t4-.25a2.4,2.4,0,0,1,.25,1.32q0,1.32-.5,1.32a9.84,9.84,0,0,0-3.22.79,4.79,4.79,0,0,0-2.81,2.35l-13.8,29.16a5.59,5.59,0,0,1-1.07,1.4,2.08,2.08,0,0,1-1.4.74q-.83,0-1-.5-1.65-3.72-4.5-10.29t-4.92-11.11q-2.07-4.54-4.71-10.24-1-2.31-5.37-2.31-.33,0-.33-1.32a1.91,1.91,0,0,1,.33-1.32q.74,0,4.38.25t5.62.25q2,0,5.7-.25t4.3-.25a2.68,2.68,0,0,1,.21,1.49q0,1.16-.37,1.16a12.12,12.12,0,0,0-2.93.5q-1.86.5-1.86,1.32a1.54,1.54,0,0,0,.17.83l8.18,19,7.44-16.36Q509.67,28.12,509.09,27.21Z"/><path class="cls-2" d="M541.8,22a15.32,15.32,0,0,1,6.94,1.53,13.07,13.07,0,0,1,4.79,3.88,19.2,19.2,0,0,1,2.64,4.87,14.24,14.24,0,0,1,.91,4.83q0,1.82-.62,2.27a4.69,4.69,0,0,1-2.52.45H534.2q-.58,0-.58.5a16.07,16.07,0,0,0,1.07,5.78A11.36,11.36,0,0,0,538.37,51a9.72,9.72,0,0,0,6.24,2.07,22.64,22.64,0,0,0,2.4-.12,12.38,12.38,0,0,0,2.15-.41q1-.29,1.73-.54a7.08,7.08,0,0,0,1.53-.74l1.12-.7q.33-.21,1.65-1.12a1.36,1.36,0,0,1,.41.5,1.6,1.6,0,0,1,.25.83,2.53,2.53,0,0,1-.5,1.57,13.45,13.45,0,0,1-4.87,4.46A15.32,15.32,0,0,1,542.3,59a16.73,16.73,0,0,1-12.39-5.33,17.82,17.82,0,0,1-5.21-12.93q0-8.34,4.83-13.55A16,16,0,0,1,541.8,22Zm-.58,3.8A5.84,5.84,0,0,0,537.67,27a7.79,7.79,0,0,0-2.4,2.81,15.76,15.76,0,0,0-1.2,3.1,10.09,10.09,0,0,0-.37,2.44c0,.39.17.58.5.58h13.38q.74,0,.74-1.24a10.71,10.71,0,0,0-1.94-5.87A5.92,5.92,0,0,0,541.22,25.81Z"/><path class="cls-2" d="M51.28,137.27q-2.48,0-5.29.12t-4.38.29l-1.65.08a2.15,2.15,0,0,1-.25-1.32q0-1.4.25-1.4a13.59,13.59,0,0,0,3.14-.54q2.06-.54,2.4-1.28.58-1.73.58-7.52V94.48a26.16,26.16,0,0,0-.58-6.77q-.25-.91-2.31-1.49a13,13,0,0,0-3.3-.58q-.33,0-.33-1.24a2.25,2.25,0,0,1,.33-1.49q5.37.33,10.9.33,3.88.08,13.09-.25t13.59-.33q.33,2.48,1.32,6.9t1.07,4.83a2.55,2.55,0,0,1-1.73.41c-.61,0-1-.19-1.16-.58q-2.73-7.35-10.57-7.35h-4.3Q56,86.88,55.83,88a37.16,37.16,0,0,0-.41,6.69v13q0,.5,3.63.5h4.54q4.79,0,5.7-.41t1.4-2.89q.25-1.24.5-2.07.08-.58,1.32-.58a2.24,2.24,0,0,1,1.57.41v15.61a2.42,2.42,0,0,1-1.57.33q-1.07,0-1.32-.66a26,26,0,0,0-1-3.3,4.79,4.79,0,0,0-.58-1.16l-.7-.5q-1.07-.66-7.6-.66-5.87,0-5.87.66v13a20.13,20.13,0,0,0,.91,6.86q.33.83,3,1.57a16.6,16.6,0,0,0,3.55.74q.41,0,.41,1.4a2.41,2.41,0,0,1-.25,1.32Q53.1,137.27,51.28,137.27Z"/><path class="cls-2" d="M101.14,101a18.21,18.21,0,0,1,13.26,5.41,17.7,17.7,0,0,1,5.49,13.09,18.55,18.55,0,0,1-18.67,18.59,18.1,18.1,0,0,1-13.3-5.45,18.6,18.6,0,0,1,0-26.27A18.1,18.1,0,0,1,101.14,101Zm-1.07,3.88a6.65,6.65,0,0,0-6,3.76,17.77,17.77,0,0,0-2.15,9,24.09,24.09,0,0,0,2.68,11.65q2.68,5,7.48,5a6.73,6.73,0,0,0,6.07-3.8,17.57,17.57,0,0,0,2.19-8.92,28.37,28.37,0,0,0-1.07-8,14.57,14.57,0,0,0-3.47-6.16A7.66,7.66,0,0,0,100.07,104.89Z"/><path class="cls-2" d="M148.56,101q4.54,0,6.77,2.73,0,7-4,7a4.91,4.91,0,0,1-3.22-1.65,5.17,5.17,0,0,0-3.55-1.65,4.43,4.43,0,0,0-4,2.6,11,11,0,0,0-1.45,5.41v10.33a34.6,34.6,0,0,0,.58,7.44q.16.58,2.19,1.2a11.67,11.67,0,0,0,2.77.62c.17,0,.26.4.29,1.2a8.63,8.63,0,0,1,0,1.61q-.66-.08-4.38-.33t-5.62-.25q-2,0-5.74.25t-4.42.33a2.42,2.42,0,0,1-.33-1.57q0-1.24.33-1.24a11.52,11.52,0,0,0,3-.62q2-.62,2.19-1.2a27,27,0,0,0,.58-6V113.73q0-3.88-1.32-5.29a4,4,0,0,0-1.86-1.24,9.41,9.41,0,0,0-2-.5c-.52-.05-.78-.14-.78-.25q0-2.4.41-2.48a117.21,117.21,0,0,0,13.3-2.48,5,5,0,0,1,.66-.17c.22,0,.41.19.58.58a2,2,0,0,1,.21,1q0,.37-.12,1.16t-.21,1.65a10.5,10.5,0,0,0-.12,1.12,15.16,15.16,0,0,1,4-4A9.05,9.05,0,0,1,148.56,101Z"/><path class="cls-2" d="M222.09,94.31a20.12,20.12,0,0,0-.83-6.61q-.41-1-2.77-1.57a16.59,16.59,0,0,0-3.68-.58c-.22,0-.34-.4-.37-1.2a2.79,2.79,0,0,1,.21-1.53q8.84.58,10.41.58,2.15,0,5.54-.29t4.21-.29a3.44,3.44,0,0,1,.17,1.32q0,1.4-.33,1.4a15.84,15.84,0,0,0-3.55.62A5.36,5.36,0,0,0,228,87.87a19.28,19.28,0,0,0-.91,6.86V126q0,3,.33,11.57a3,3,0,0,1-1.82.33q-1.32,0-2.64-1.9L190,92.41v33.46a23,23,0,0,0,.66,6.77q.41,1,3.06,1.69a17.08,17.08,0,0,0,3.72.7q.25,0,.29,1.16a4.51,4.51,0,0,1-.12,1.57q-9.91-.5-10.33-.5-2.23,0-5.49.21l-4.34.29a2.07,2.07,0,0,1-.33-1.4q0-1.32.33-1.32a15.65,15.65,0,0,0,3.76-.62,4.51,4.51,0,0,0,3-1.86q.83-1.73.83-6.94V93.24q0-4.46-.91-6-.33-.58-2.85-1.07a21.53,21.53,0,0,0-3.68-.5q-.33,0-.37-1.24a2.31,2.31,0,0,1,.29-1.57q8.67.41,9.83.41,2.73,0,7.44-.41a85.5,85.5,0,0,0,5.74,8.8Q204.74,97.45,212,107t9.91,13.18a23.65,23.65,0,0,0,.17-3.39Z"/><path class="cls-2" d="M254.64,101a18.21,18.21,0,0,1,13.26,5.41,17.7,17.7,0,0,1,5.49,13.09A18.84,18.84,0,1,1,254.64,101Zm-1.07,3.88a6.65,6.65,0,0,0-6,3.76,17.77,17.77,0,0,0-2.15,9,24.09,24.09,0,0,0,2.68,11.65q2.68,5,7.48,5a6.73,6.73,0,0,0,6.07-3.8,17.57,17.57,0,0,0,2.19-8.92,28.37,28.37,0,0,0-1.07-8,14.57,14.57,0,0,0-3.47-6.16A7.66,7.66,0,0,0,253.57,104.89Z"/><path class="cls-2" d="M302.06,101q4.54,0,6.77,2.73,0,7-4,7a4.91,4.91,0,0,1-3.22-1.65,5.17,5.17,0,0,0-3.55-1.65,4.43,4.43,0,0,0-4,2.6,11,11,0,0,0-1.45,5.41v10.33a34.6,34.6,0,0,0,.58,7.44q.16.58,2.19,1.2a11.67,11.67,0,0,0,2.77.62c.17,0,.26.4.29,1.2a8.63,8.63,0,0,1,0,1.61q-.66-.08-4.38-.33t-5.62-.25q-2,0-5.74.25t-4.42.33a2.42,2.42,0,0,1-.33-1.57q0-1.24.33-1.24a11.52,11.52,0,0,0,3-.62q2-.62,2.19-1.2a27,27,0,0,0,.58-6V113.73q0-3.88-1.32-5.29a4,4,0,0,0-1.86-1.24,9.41,9.41,0,0,0-2-.5c-.52-.05-.78-.14-.78-.25q0-2.4.41-2.48a117.21,117.21,0,0,0,13.3-2.48,5,5,0,0,1,.66-.17c.22,0,.41.19.58.58a2,2,0,0,1,.21,1q0,.37-.12,1.16t-.21,1.65a10.5,10.5,0,0,0-.12,1.12,15.16,15.16,0,0,1,4-4A9.05,9.05,0,0,1,302.06,101Z"/><path class="cls-2" d="M318.17,106.79h-5q-.58,0-.58-2.15a2.07,2.07,0,0,1,.08-.74A23.1,23.1,0,0,0,319,99.52q1.07-1.07,2.35-2.44t3-3.51a5.88,5.88,0,0,1,1.57.21c.5.14.74.29.74.46v8.1l6,0,4.09,0q.66,0,.66.74a8,8,0,0,1-.83,3.63h-9.91V126.7a7.84,7.84,0,0,0,1.4,5,4.72,4.72,0,0,0,3.88,1.74,7.78,7.78,0,0,0,1.73-.21,8.77,8.77,0,0,0,1.49-.45q.58-.25,1.07-.5a2.58,2.58,0,0,1,.58-.25q.33-.08.74.74c.28.55.38.91.33,1.07q-.5,1.16-3.51,2.68a13,13,0,0,1-5.91,1.53,10.42,10.42,0,0,1-7.31-2.77q-3-2.77-3-8.55Z"/><path class="cls-2" d="M369.31,101q10.57,0,10.57,16.28v8.51a30.36,30.36,0,0,0,.66,7.44q.08.58,2.19,1.2a12.65,12.65,0,0,0,2.85.62c.17,0,.26.4.29,1.2a8.59,8.59,0,0,1,0,1.61q-.58-.08-4.42-.33t-5.66-.25q-2.07,0-5.58.25t-4.34.33a3.08,3.08,0,0,1-.25-1.57q0-1.24.25-1.24a9.86,9.86,0,0,0,2.85-.62q1.86-.62,2.11-1.2a31.34,31.34,0,0,0,.5-6v-8.1q0-6.86-1.86-9.46t-5.91-2.6a7.91,7.91,0,0,0-4.54,1.4,3.9,3.9,0,0,0-2.07,3.14v14.21a30.34,30.34,0,0,0,.66,7.44q.16.58,2.19,1.2a11.68,11.68,0,0,0,2.77.62c.17,0,.26.4.29,1.2a4.66,4.66,0,0,1-.12,1.61q-.66-.08-4.34-.33t-5.58-.25q-2,0-5.74.25t-4.42.33a2.42,2.42,0,0,1-.33-1.57q0-1.24.33-1.24a11.52,11.52,0,0,0,3-.62q2-.62,2.19-1.2a26.56,26.56,0,0,0,.58-5.95V92.91a32.56,32.56,0,0,0-.41-5.62Q347.58,86,343.7,86H343q-.5,0-.5-1.32t.5-1.32q2.56-.25,4.87-.66t3.84-.83q1.53-.41,2.64-.83t2.35-.83h.17a.89.89,0,0,1,.66.46,2.28,2.28,0,0,1,.41.87,26.62,26.62,0,0,0-1,7.77V106q0,.5.33.5c.05,0,.17-.08.33-.25a15.74,15.74,0,0,1,5.08-3.59A15.22,15.22,0,0,1,369.31,101Z"/><path class="cls-2" d="M423,94.73V108a.51.51,0,0,0,.12.37,1.07,1.07,0,0,0,.29.21h.74q1.73,0,4.3-2.81,6.61-7.1,14.54-16.52a4.52,4.52,0,0,0,1.32-2.48q0-.82-1.82-1.16a17.67,17.67,0,0,0-3.06-.33q-.33,0-.41-1a4.33,4.33,0,0,1,.08-1.53q9.17.5,10,.5,1.57,0,3.1-.08l3.3-.21,2.93-.21a3.48,3.48,0,0,1,.12,1.4c0,.72-.12,1.07-.29,1.07q-5.78.66-8.34,3.47l-15.37,17.51a1.61,1.61,0,0,0,.17,2.31l19.33,23a8.4,8.4,0,0,0,4,2.64,13.45,13.45,0,0,0,3.68.83c.28,0,.41.52.41,1.57a2.56,2.56,0,0,1-.25,1.16q-9.91-.5-11.32-.5-2.65,0-6.32.21l-5.16.29a2.33,2.33,0,0,1-.33-1.53c0-.8.11-1.2.33-1.2a6.4,6.4,0,0,0,2.31-.58q1.4-.58,1.4-1.24a15.81,15.81,0,0,0-2.31-3.47q-2.31-3.06-6.36-7.81t-8-8.88a3,3,0,0,0-1.82-.33q-1.32,0-1.32,1V126a29.8,29.8,0,0,0,.74,7.27q.16.58,2.27,1.2a12.65,12.65,0,0,0,2.85.62c.22,0,.33.52.33,1.57a3.67,3.67,0,0,1-.17,1.16q-9.91-.5-10.49-.5-1.65,0-3.47.08l-4,.21-3.51.21a1.61,1.61,0,0,1-.33-1.16c0-1,.11-1.57.33-1.57a13.19,13.19,0,0,0,3.1-.58q2.11-.58,2.35-1.24a28.94,28.94,0,0,0,.66-6.94V94.4a24.89,24.89,0,0,0-.66-6.94q-.33-.66-2.31-1.28a11.09,11.09,0,0,0-3-.62q-.33,0-.33-1.24a3.33,3.33,0,0,1,.17-1.49q.41,0,4.58.25t6.4.25q.66,0,10.57-.5a4.26,4.26,0,0,1,.25,1.32q0,1.4-.33,1.4a13.46,13.46,0,0,0-3,.66q-2.23.66-2.4,1.24A30.65,30.65,0,0,0,423,94.73Z"/><path class="cls-2" d="M480.8,101a18.21,18.21,0,0,1,13.26,5.41,17.7,17.7,0,0,1,5.49,13.09A18.84,18.84,0,1,1,480.8,101Zm-1.07,3.88a6.65,6.65,0,0,0-6,3.76,17.77,17.77,0,0,0-2.15,9,24.09,24.09,0,0,0,2.69,11.65q2.68,5,7.48,5a6.74,6.74,0,0,0,6.07-3.8,17.58,17.58,0,0,0,2.19-8.92,28.37,28.37,0,0,0-1.07-8,14.57,14.57,0,0,0-3.47-6.16A7.66,7.66,0,0,0,479.73,104.89Z"/><path class="cls-2" d="M528.22,101q4.54,0,6.77,2.73,0,7-4,7a4.91,4.91,0,0,1-3.22-1.65,5.17,5.17,0,0,0-3.55-1.65,4.43,4.43,0,0,0-4,2.6,11,11,0,0,0-1.45,5.41v10.33a34.6,34.6,0,0,0,.58,7.44q.16.58,2.19,1.2a11.67,11.67,0,0,0,2.77.62c.17,0,.26.4.29,1.2a8.63,8.63,0,0,1,0,1.61q-.66-.08-4.38-.33t-5.62-.25q-2,0-5.74.25t-4.42.33a2.42,2.42,0,0,1-.33-1.57q0-1.24.33-1.24a11.52,11.52,0,0,0,3-.62q2-.62,2.19-1.2a27,27,0,0,0,.58-6V113.73q0-3.88-1.32-5.29A4,4,0,0,0,507,107.2a9.41,9.41,0,0,0-2-.5c-.52-.05-.78-.14-.78-.25q0-2.4.41-2.48A117.21,117.21,0,0,0,518,101.5a5,5,0,0,1,.66-.17c.22,0,.41.19.58.58a2,2,0,0,1,.21,1q0,.37-.12,1.16t-.21,1.65a10.5,10.5,0,0,0-.12,1.12,15.16,15.16,0,0,1,4-4A9.05,9.05,0,0,1,528.22,101Z"/><path class="cls-2" d="M556.48,101a15.32,15.32,0,0,1,6.94,1.53,13.07,13.07,0,0,1,4.79,3.88,19.2,19.2,0,0,1,2.64,4.87,14.24,14.24,0,0,1,.91,4.83q0,1.82-.62,2.27a4.69,4.69,0,0,1-2.52.45H548.88q-.58,0-.58.5a16.07,16.07,0,0,0,1.07,5.78A11.36,11.36,0,0,0,553,130a9.72,9.72,0,0,0,6.24,2.07,22.64,22.64,0,0,0,2.4-.12,12.38,12.38,0,0,0,2.15-.41q1-.29,1.73-.54a7.08,7.08,0,0,0,1.53-.74l1.12-.7q.33-.21,1.65-1.12a1.36,1.36,0,0,1,.41.5,1.6,1.6,0,0,1,.25.83,2.53,2.53,0,0,1-.5,1.57,13.45,13.45,0,0,1-4.87,4.46A15.32,15.32,0,0,1,557,138a16.73,16.73,0,0,1-12.39-5.33,17.82,17.82,0,0,1-5.21-12.93q0-8.34,4.83-13.55A16,16,0,0,1,556.48,101Zm-.58,3.8a5.84,5.84,0,0,0-3.55,1.16,7.79,7.79,0,0,0-2.4,2.81,15.76,15.76,0,0,0-1.2,3.1,10.09,10.09,0,0,0-.37,2.44c0,.39.17.58.5.58h13.38q.74,0,.74-1.24a10.71,10.71,0,0,0-1.94-5.87A5.92,5.92,0,0,0,555.9,104.81Z"/><path class="cls-2" d="M592.91,101q5.12,0,7.68,2.69t2.56,9.21v16.28a3.76,3.76,0,0,0,.74,2.52,2.48,2.48,0,0,0,2,.87,5.15,5.15,0,0,0,2.81-1.07c.33.11.5.41.5.91a4.91,4.91,0,0,1-.5,2.48,20.43,20.43,0,0,1-3.3,2.07,8.61,8.61,0,0,1-4,1.07,6,6,0,0,1-3.72-1.41,6.77,6.77,0,0,1-2.4-3.06l-.62.54q-.54.46-1.49,1.12a24.48,24.48,0,0,1-2.15,1.32,13.17,13.17,0,0,1-2.81,1.12,12,12,0,0,1-3.26.45,9.86,9.86,0,0,1-6.73-2.27,7.85,7.85,0,0,1-2.6-6.24,7.61,7.61,0,0,1,1-3.72,9.88,9.88,0,0,1,2.27-2.85,16.93,16.93,0,0,1,3.55-2.19,33.8,33.8,0,0,1,3.84-1.61q1.61-.54,4.13-1.28t3.51-1.07a1.3,1.3,0,0,0,.74-1.32V111a7.09,7.09,0,0,0-1.32-4.54,4.31,4.31,0,0,0-3.55-1.65,5,5,0,0,0-3.88,1.53,6.18,6.18,0,0,0-1.4,4.34,2.68,2.68,0,0,1-1.24,2.44,5.14,5.14,0,0,1-2.81.78q-3.06,0-4.3-2,0-4,5.41-7.43A20.72,20.72,0,0,1,592.91,101Zm-3.72,31.72a6.4,6.4,0,0,0,3.84-1.16,3.27,3.27,0,0,0,1.61-2.64V120.5q-.58.25-2.44.83t-2.85,1a22.56,22.56,0,0,0-2.31,1.16,5,5,0,0,0-1.94,1.82,4.55,4.55,0,0,0-.62,2.31,5.09,5.09,0,0,0,1.32,3.88A4.75,4.75,0,0,0,589.19,132.73Z"/></svg>