<svg id="Layer_1" data-name="Layer 1" xmlns="http://www.w3.org/2000/svg" viewBox="0 0 629.53 79.7"><defs><style>.cls-1{fill:#fff;stroke-width:1.2px;}.cls-1,.cls-3{stroke:#1414ef;stroke-miterlimit:10;}.cls-2{fill:#1414ef;}.cls-3{fill:#feea80;stroke-width:1.3px;}</style></defs><title>title</title><path class="cls-1" d="M88.2,43.58A46.19,46.19,0,0,1,87,50q-1.24,5.33-1.9,5.66-7.19,3.47-19.17,3.47a24.8,24.8,0,0,1-18.59-8A26.62,26.62,0,0,1,39.62,32,28.4,28.4,0,0,1,47.47,11.9,25.43,25.43,0,0,1,66.8,3.51,91,91,0,0,1,86.3,5.74q.25.08.5,5.41T87,17.8q0,1.24-2,1.24a2.65,2.65,0,0,1-1.16-.33,11.53,11.53,0,0,0-1.2-3.06,21.16,21.16,0,0,0-2.6-3.55A12.58,12.58,0,0,0,75,8.84a22.13,22.13,0,0,0-7.85-1.28,14.34,14.34,0,0,0-12.6,6.69,28,28,0,0,0-4.5,16q0,10.41,5.08,17.64t14.33,7.23q7.35,0,11.65-4.63A11.33,11.33,0,0,0,83,47.42q.87-1.94,1.32-3.26T85,42.84Q87.87,42.84,88.2,43.58Z"/><path class="cls-1" d="M107,46.72a33.88,33.88,0,0,0,.58,7.44q.16.58,2,1.28a9,9,0,0,0,2.52.7c.17,0,.26.39.29,1.16a4.5,4.5,0,0,1-.12,1.57l-3.1-.21-3.51-.21q-1.57-.08-3-.08-1.57,0-3.14.08L96,58.66l-3.14.21a2.33,2.33,0,0,1-.33-1.53c0-.8.11-1.2.33-1.2a8.83,8.83,0,0,0,2.77-.7q1.86-.7,2-1.28A27.4,27.4,0,0,0,98.36,48V13.67a28.8,28.8,0,0,0-.5-5.62q-.41-1.32-4.13-1.32h-.83q-.5,0-.5-1,0-1.32.5-1.32,2.56-.25,4.87-.66t3.84-.83q1.53-.41,2.64-.78T106,1.53l.58-.25h.17c.22,0,.45.17.7.5a2.53,2.53,0,0,1,.45.83,26.11,26.11,0,0,0-1,7.77Z"/><path class="cls-1" d="M135.62,22.1a18.21,18.21,0,0,1,13.26,5.41,17.7,17.7,0,0,1,5.49,13.09,18.75,18.75,0,0,1-32,13.14,17.9,17.9,0,0,1-5.45-13.14,17.8,17.8,0,0,1,5.41-13.14A18.1,18.1,0,0,1,135.62,22.1ZM134.54,26a6.65,6.65,0,0,0-6,3.76,17.77,17.77,0,0,0-2.15,9,24.09,24.09,0,0,0,2.69,11.65q2.68,5,7.48,5a6.73,6.73,0,0,0,6.07-3.8,17.57,17.57,0,0,0,2.19-8.92,28.36,28.36,0,0,0-1.07-8,14.57,14.57,0,0,0-3.47-6.16A7.66,7.66,0,0,0,134.54,26Z"/><path class="cls-1" d="M172.3,22a35.13,35.13,0,0,1,9.58,1.4,46.91,46.91,0,0,1,.91,9.25q0,.66-1.07.66-1.82,0-2-.66a10,10,0,0,0-2.44-4.92,6.46,6.46,0,0,0-5-2,5.93,5.93,0,0,0-3.76,1.07,3.67,3.67,0,0,0-1.36,3.06,4.81,4.81,0,0,0,.45,2.11,5.16,5.16,0,0,0,1.49,1.78,20.34,20.34,0,0,0,1.82,1.32q.78.5,2.35,1.32a5.38,5.38,0,0,0,.83.41l1.24.66,1.36.74L178,39a15.09,15.09,0,0,1,1.45,1l1.28,1A6.51,6.51,0,0,1,182,42.09q.37.5,1,1.28a5.33,5.33,0,0,1,.87,1.49,15.74,15.74,0,0,1,.45,1.57,7.68,7.68,0,0,1,.21,1.78,9.74,9.74,0,0,1-4,8.22,15.67,15.67,0,0,1-9.71,3,27.59,27.59,0,0,1-10.66-2.31,33,33,0,0,1-.83-4.58,40.35,40.35,0,0,1-.41-4.75,1.75,1.75,0,0,1,1.16-.41q1.9,0,2,.66a9.12,9.12,0,0,0,3.26,5.58A8.81,8.81,0,0,0,171,55.72a6,6,0,0,0,3.8-1.16,4,4,0,0,0,1.49-3.39,5.44,5.44,0,0,0-.21-1.53,4.05,4.05,0,0,0-.78-1.4l-.95-1.16A6,6,0,0,0,172.84,46q-1.12-.66-1.65-1L169.12,44q-1.53-.78-2.11-1.12a19.21,19.21,0,0,1-5.87-4.42,8.83,8.83,0,0,1-2.07-5.91,8.87,8.87,0,0,1,4-7.77A15.92,15.92,0,0,1,172.3,22Z"/><path class="cls-1" d="M206,22.1a15.32,15.32,0,0,1,6.94,1.53,13.07,13.07,0,0,1,4.79,3.88,19.21,19.21,0,0,1,2.64,4.87,14.24,14.24,0,0,1,.91,4.83q0,1.82-.62,2.27a4.69,4.69,0,0,1-2.52.45H198.4q-.58,0-.58.5a16.06,16.06,0,0,0,1.07,5.78,11.36,11.36,0,0,0,3.68,4.87,9.72,9.72,0,0,0,6.24,2.07,22.66,22.66,0,0,0,2.4-.12,12.37,12.37,0,0,0,2.15-.41q1-.29,1.73-.54a7.09,7.09,0,0,0,1.53-.74l1.12-.7q.33-.21,1.65-1.12a1.36,1.36,0,0,1,.41.5,1.6,1.6,0,0,1,.25.83,2.54,2.54,0,0,1-.5,1.57,13.46,13.46,0,0,1-4.87,4.46,15.33,15.33,0,0,1-8.18,2.23,16.73,16.73,0,0,1-12.39-5.33,17.82,17.82,0,0,1-5.2-12.93q0-8.34,4.83-13.55A16,16,0,0,1,206,22.1Zm-.58,3.8a5.84,5.84,0,0,0-3.55,1.16,7.79,7.79,0,0,0-2.4,2.81,15.78,15.78,0,0,0-1.2,3.1,10.1,10.1,0,0,0-.37,2.44c0,.39.17.58.5.58h13.38q.74,0,.74-1.24a10.71,10.71,0,0,0-1.94-5.87A5.92,5.92,0,0,0,205.43,25.9Z"/><path class="cls-1" d="M249.29,22.1q4.54,0,6.77,2.73,0,7-4,7a4.91,4.91,0,0,1-3.22-1.65,5.17,5.17,0,0,0-3.55-1.65,4.43,4.43,0,0,0-4,2.6,11,11,0,0,0-1.45,5.41V46.88a34.58,34.58,0,0,0,.58,7.44q.16.58,2.19,1.2a11.67,11.67,0,0,0,2.77.62c.17,0,.26.4.29,1.2a8.62,8.62,0,0,1,0,1.61q-.66-.08-4.38-.33t-5.62-.25q-2,0-5.74.25t-4.42.33a2.42,2.42,0,0,1-.33-1.57q0-1.24.33-1.24a11.52,11.52,0,0,0,3-.62q2-.62,2.19-1.2a27,27,0,0,0,.58-6V34.82q0-3.88-1.32-5.29a4,4,0,0,0-1.86-1.24,9.41,9.41,0,0,0-2-.5c-.52-.05-.78-.14-.78-.25q0-2.4.41-2.48A117.19,117.19,0,0,0,239,22.6a5,5,0,0,1,.66-.17c.22,0,.41.19.58.58a2,2,0,0,1,.21,1q0,.37-.12,1.16t-.21,1.65a10.57,10.57,0,0,0-.12,1.12,15.17,15.17,0,0,1,4-4A9.05,9.05,0,0,1,249.29,22.1Z"/><path class="cls-1" d="M293.14,4.21q5.58.21,9.13.21t9.17-.21q5.62-.21,9-.29a27.44,27.44,0,0,0,5.7-.83l1.57,12.64a3.19,3.19,0,0,1-2.23.58c-.44,0-.72-.14-.83-.41q-1.16-4.54-3.06-6.16t-5.95-1.61q-7.68,0-8,1.4a28.86,28.86,0,0,0-.74,7.77V47.13a28.18,28.18,0,0,0,.74,7.19q.08.58,2.23,1.2a13.15,13.15,0,0,0,2.89.62q.33,0,.33,1.49a4.31,4.31,0,0,1-.17,1.32l-3.18-.25q-2.11-.17-3.88-.25t-3.43-.08q-2.23,0-6.15.25t-4.83.33a1.91,1.91,0,0,1-.33-1.32q0-1.49.33-1.49a13.19,13.19,0,0,0,3.1-.58q2.11-.58,2.35-1.24a26.1,26.1,0,0,0,.66-6.86V17.56q0-6.86-.74-8-.66-1.4-7.85-1.4-4,0-5.95,1.61t-3.14,6.07q-.08.5-.83.5a2.78,2.78,0,0,1-2.15-.66L278.48,3.1a27.41,27.41,0,0,0,5.7.83Q287.57,4,293.14,4.21Z"/><path class="cls-1" d="M343.48,22.1a18.21,18.21,0,0,1,13.26,5.41,17.7,17.7,0,0,1,5.49,13.09,18.71,18.71,0,0,1-37.42,0,17.8,17.8,0,0,1,5.41-13.14A18.1,18.1,0,0,1,343.48,22.1ZM342.41,26a6.65,6.65,0,0,0-6,3.76,17.77,17.77,0,0,0-2.15,9,24.09,24.09,0,0,0,2.69,11.65q2.68,5,7.48,5a6.73,6.73,0,0,0,6.07-3.8,17.57,17.57,0,0,0,2.19-8.92,28.36,28.36,0,0,0-1.07-8,14.57,14.57,0,0,0-3.47-6.16A7.66,7.66,0,0,0,342.41,26Z"/><path class="cls-1" d="M395.72,4.42q.41,0,8.1-.5.74,2.31,3.39,8.55t6.49,15.2q3.84,9,6.15,14.75c0,.11.08.17.25.17a.22.22,0,0,0,.25-.25q7.27-17.43,11.57-28.67l3-9.58q2.48.25,6.77.25,3.22,0,9.83-.41a2.4,2.4,0,0,1,.25,1.32q0,1.4-.33,1.4h-.17a6.72,6.72,0,0,0-4,1.32q-1.24.91-1.07,4.46.33,7.35,1.16,34.12a21.83,21.83,0,0,0,1.32,7.6q.33.74,2.31,1.36a11.1,11.1,0,0,0,2.81.62q.33,0,.33,1.49a4,4,0,0,1-.17,1.24l-10.16-.5q-1.65,0-3.47.08l-4,.21-3.51.21a1.76,1.76,0,0,1-.33-1.24q0-1.49.33-1.49a9.76,9.76,0,0,0,2.64-.54,5.18,5.18,0,0,0,2.31-1.2,4.63,4.63,0,0,0,.83-2.89V46.88l-.83-25.11q-.33-5.12-1-5.12-.25,0-.41.5L420.5,55.64q-1.41,3.14-3.14,3.14a2.74,2.74,0,0,1-.83-.17L398,14.17q-.58,20.57-1.32,36.85a9.11,9.11,0,0,0,.25,2.56q.41.91,3.3,1.73a17.84,17.84,0,0,0,3.88.83q.33,0,.33,1.49a4,4,0,0,1-.17,1.24q-9.91-.5-10.41-.5-2.23,0-5.91.25t-4.5.25a1.91,1.91,0,0,1-.33-1.32q0-1.4.33-1.4a16.52,16.52,0,0,0,4.13-.83q2.81-.82,3.22-2.15a15.37,15.37,0,0,0,.91-5.54q.16-6.28.45-14.83t.5-14.58q.21-6,.21-7.52a7.9,7.9,0,0,0-.25-2.31q-.25-.66-2.77-1.24a18.71,18.71,0,0,0-3.59-.58c-.22,0-.33-.47-.33-1.4a1.76,1.76,0,0,1,.33-1.24l4.25.29Q393.57,4.42,395.72,4.42Z"/><path class="cls-1" d="M466.07,22.93q1.82,0,5.2-.25t4.21-.25a5.56,5.56,0,0,1,.17,1.49c0,.77-.11,1.16-.33,1.16a9,9,0,0,0-2.6.62q-1.78.62-1.86,1.36v.5q.16,1.32,7.68,18.84.66-1.49,3.22-8.14t3-7.64a7.76,7.76,0,0,0,.5-2.56,2.6,2.6,0,0,0-1.32-2,6.8,6.8,0,0,0-4-1q-.33,0-.33-1.24a2.08,2.08,0,0,1,.33-1.4q1,0,4,.25t5,.25q1.73,0,4.25-.25t3.68-.25a2.36,2.36,0,0,1,.33,1.32q0,1.32-.33,1.32a10.47,10.47,0,0,0-3.35.83,4.56,4.56,0,0,0-2.85,2.48L475.65,64.89Q470.53,77,463.34,77A4.47,4.47,0,0,1,460,75.8a3.86,3.86,0,0,1,.41-5.87q8.59,0,11.32-6.77,2-5,2.23-5.62L461.94,29.45a10.67,10.67,0,0,0-1-1.9,5,5,0,0,0-2.44-1.86,7.81,7.81,0,0,0-2.68-.62q-.33,0-.33-1.16,0-1.32.25-1.49.5,0,4.42.25T466.07,22.93Z"/><path class="cls-1" d="M514,22a35.13,35.13,0,0,1,9.58,1.4,46.91,46.91,0,0,1,.91,9.25q0,.66-1.07.66-1.82,0-2-.66A10,10,0,0,0,519,27.76a6.46,6.46,0,0,0-5-2,5.93,5.93,0,0,0-3.76,1.07,3.67,3.67,0,0,0-1.36,3.06,4.81,4.81,0,0,0,.45,2.11,5.16,5.16,0,0,0,1.49,1.78,20.34,20.34,0,0,0,1.82,1.32q.78.5,2.35,1.32a5.38,5.38,0,0,0,.83.41l1.24.66,1.36.74,1.32.78a15.09,15.09,0,0,1,1.45,1l1.28,1a6.51,6.51,0,0,1,1.24,1.16q.37.5,1,1.28a5.33,5.33,0,0,1,.87,1.49,15.74,15.74,0,0,1,.45,1.57,7.68,7.68,0,0,1,.21,1.78,9.74,9.74,0,0,1-4,8.22,15.67,15.67,0,0,1-9.71,3,27.59,27.59,0,0,1-10.66-2.31,33,33,0,0,1-.83-4.58,40.35,40.35,0,0,1-.41-4.75,1.75,1.75,0,0,1,1.16-.41q1.9,0,2,.66A9.12,9.12,0,0,0,507,53.62a8.81,8.81,0,0,0,5.66,2.11,6,6,0,0,0,3.8-1.16A4,4,0,0,0,518,51.18a5.44,5.44,0,0,0-.21-1.53,4.05,4.05,0,0,0-.78-1.4L516,47.09A6,6,0,0,0,514.52,46q-1.12-.66-1.65-1L510.81,44q-1.53-.78-2.11-1.12a19.21,19.21,0,0,1-5.87-4.42,8.83,8.83,0,0,1-2.07-5.91,8.87,8.87,0,0,1,4-7.77A15.92,15.92,0,0,1,514,22Z"/><path class="cls-1" d="M547.69,22.1a15.32,15.32,0,0,1,6.94,1.53,13.07,13.07,0,0,1,4.79,3.88,19.21,19.21,0,0,1,2.64,4.87,14.24,14.24,0,0,1,.91,4.83q0,1.82-.62,2.27a4.69,4.69,0,0,1-2.52.45H540.09q-.58,0-.58.5a16.06,16.06,0,0,0,1.07,5.78,11.36,11.36,0,0,0,3.68,4.87,9.72,9.72,0,0,0,6.24,2.07,22.66,22.66,0,0,0,2.4-.12,12.37,12.37,0,0,0,2.15-.41q1-.29,1.73-.54a7.09,7.09,0,0,0,1.53-.74l1.12-.7q.33-.21,1.65-1.12a1.36,1.36,0,0,1,.41.5,1.6,1.6,0,0,1,.25.83,2.54,2.54,0,0,1-.5,1.57,13.46,13.46,0,0,1-4.87,4.46,15.33,15.33,0,0,1-8.18,2.23,16.73,16.73,0,0,1-12.39-5.33,17.82,17.82,0,0,1-5.2-12.93q0-8.34,4.83-13.55A16,16,0,0,1,547.69,22.1Zm-.58,3.8a5.84,5.84,0,0,0-3.55,1.16,7.79,7.79,0,0,0-2.4,2.81A15.78,15.78,0,0,0,540,33a10.1,10.1,0,0,0-.37,2.44c0,.39.17.58.5.58h13.38q.74,0,.74-1.24a10.71,10.71,0,0,0-1.94-5.87A5.92,5.92,0,0,0,547.11,25.9Z"/><path class="cls-1" d="M581.15,46.72a33.88,33.88,0,0,0,.58,7.44q.16.58,2,1.28a9,9,0,0,0,2.52.7c.17,0,.26.39.29,1.16a4.5,4.5,0,0,1-.12,1.57l-3.1-.21-3.51-.21q-1.57-.08-3-.08-1.57,0-3.14.08l-3.47.21-3.14.21a2.33,2.33,0,0,1-.33-1.53c0-.8.11-1.2.33-1.2a8.83,8.83,0,0,0,2.77-.7q1.86-.7,2-1.28a27.4,27.4,0,0,0,.66-6.11V13.67a28.8,28.8,0,0,0-.5-5.62q-.41-1.32-4.13-1.32h-.83q-.5,0-.5-1,0-1.32.5-1.32,2.56-.25,4.87-.66t3.84-.83q1.53-.41,2.64-.78t1.78-.62l.58-.25H581c.22,0,.45.17.7.5a2.53,2.53,0,0,1,.45.83,26.11,26.11,0,0,0-1,7.77Z"/><path class="cls-1" d="M614.69,1.2a16.27,16.27,0,0,1,5.74.87,5.77,5.77,0,0,1,3,2.11A9.27,9.27,0,0,1,623,8.76a3,3,0,0,1-3,2,3.22,3.22,0,0,1-2.52-1.36q-1.12-1.36-2.35-2.73a3.8,3.8,0,0,0-2.89-1.36,4.4,4.4,0,0,0-3.72,2.15,13.9,13.9,0,0,0-2.11,5.21,33.72,33.72,0,0,0-.62,6.69v3.8c0,.06.05.14.17.25a.47.47,0,0,0,.33.17h9.09a.66.66,0,0,1,.41.08.87.87,0,0,1,.08.5,8.5,8.5,0,0,1-1,3.8h-8.59a.44.44,0,0,0-.5.5V46.88a31.59,31.59,0,0,0,.66,7.44q.16.58,2.19,1.2a11.67,11.67,0,0,0,2.77.62c.17,0,.26.4.29,1.2a4.68,4.68,0,0,1-.12,1.61q-.5-.08-4.3-.33t-5.78-.25q-2,0-5.62.25t-4.3.33a1.56,1.56,0,0,1-.33-.91,4.93,4.93,0,0,1,0-1.28c.05-.41.17-.62.33-.62a11.07,11.07,0,0,0,2.89-.62q2-.62,2.15-1.2a27.39,27.39,0,0,0,.74-6.77v-19c0-.38-.17-.58-.5-.58h-5c-.11,0-.17-.17-.17-.5a4.41,4.41,0,0,1,1.16-2.4,3.32,3.32,0,0,1,2.64-1.49h1.32a.44.44,0,0,0,.5-.5v-.83A22.47,22.47,0,0,1,602.51,7.4Q607.67,1.2,614.69,1.2Z"/><path class="cls-2" d="M7,18.2H9.91v1.57H2.28V18.2H5.13V9L2.85,10.39,2,9,5.67,6.72H7Z"/><path class="cls-2" d="M20.82,14.26a3.34,3.34,0,0,1,.63,2A3.15,3.15,0,0,1,20.2,19a5.71,5.71,0,0,1-3.53,1,5.71,5.71,0,0,1-3.53-1,3.15,3.15,0,0,1-1.25-2.66,3.33,3.33,0,0,1,.64-2.06,3.22,3.22,0,0,1,1.79-1.17,3.25,3.25,0,0,1-1.55-1.17,3.12,3.12,0,0,1-.56-1.85A3.07,3.07,0,0,1,13.39,7.5a5.16,5.16,0,0,1,3.28-.94A5.16,5.16,0,0,1,20,7.5a3.07,3.07,0,0,1,1.19,2.55,3.17,3.17,0,0,1-.56,1.86A3.13,3.13,0,0,1,19,13.07,3.27,3.27,0,0,1,20.82,14.26Zm-1.2,1.91q0-2.22-2.95-2.22t-2.95,2.22q0,2.2,2.95,2.2T19.62,16.17ZM14.71,8.65A1.91,1.91,0,0,0,14,10.22a2,2,0,0,0,.67,1.61,3,3,0,0,0,2,.56,3,3,0,0,0,2-.56,2,2,0,0,0,.67-1.61,1.91,1.91,0,0,0-.67-1.57,3,3,0,0,0-2-.55A3,3,0,0,0,14.71,8.65Z"/><path class="cls-3" d="M346.37,39.05,85.29,73A17.75,17.75,0,0,1,65.43,57.67h0A17.75,17.75,0,0,1,80.79,37.81l261.08-34a17.75,17.75,0,0,1,19.86,15.36h0A17.75,17.75,0,0,1,346.37,39.05Z"/><path class="cls-2" d="M104.46,44.75a7.83,7.83,0,0,1,2.47,0,5.35,5.35,0,0,1,4.26,3.76l-2.86.94a4.41,4.41,0,0,0-1.41-1.76,2.75,2.75,0,0,0-2-.47,3.06,3.06,0,0,0-2.38,1.68A6.74,6.74,0,0,0,102,53a7.32,7.32,0,0,0,1.48,3.85A2.91,2.91,0,0,0,106.2,58a3.4,3.4,0,0,0,2.31-1.11,2.68,2.68,0,0,0,.54-2.12l3-.4a4.92,4.92,0,0,1-1.08,4.14,6.65,6.65,0,0,1-4.24,2A6,6,0,0,1,101.63,59,8.86,8.86,0,0,1,99,53.46a8.6,8.6,0,0,1,1-6.07A6,6,0,0,1,104.46,44.75Z"/><path class="cls-2" d="M118.75,46.66a6.33,6.33,0,0,1,2.19.07,4.52,4.52,0,0,1,1.87.87A6.21,6.21,0,0,1,125,51.88a6.14,6.14,0,0,1-1,4.69,5.18,5.18,0,0,1-3.66,2,5.33,5.33,0,0,1-4.11-1,6.09,6.09,0,0,1-2.22-4.25,6.16,6.16,0,0,1,1-4.73A5.33,5.33,0,0,1,118.75,46.66Zm3.54,5.58a4.37,4.37,0,0,0-1.07-2.59,2.35,2.35,0,0,0-2.07-.63,2.62,2.62,0,0,0-1.91,1.17,4,4,0,0,0-.42,2.79,4.31,4.31,0,0,0,1.08,2.59,2.36,2.36,0,0,0,2.06.63,2.6,2.6,0,0,0,1.9-1.17A4,4,0,0,0,122.29,52.24Z"/><path class="cls-2" d="M137.85,46.53a3.91,3.91,0,0,1,3.5-3,3.86,3.86,0,0,1,3.33.94A5.62,5.62,0,0,1,146.25,48l.91,6.61-2.77.38-.91-6.61a2.69,2.69,0,0,0-.86-1.81,2.25,2.25,0,0,0-1.79-.41,2.15,2.15,0,0,0-1.66,1.2,5.14,5.14,0,0,0-.35,3l.73,5.3-2.74.38-.91-6.61a2.69,2.69,0,0,0-.86-1.81,2.25,2.25,0,0,0-1.79-.41,2.35,2.35,0,0,0-1.74,1.23,4.87,4.87,0,0,0-.42,3l.72,5.23-2.74.38-1.55-11.3,2.4-.33.57,1.91a3.77,3.77,0,0,1,3.27-2.75,4.09,4.09,0,0,1,2.45.33A4,4,0,0,1,137.85,46.53Z"/><path class="cls-2" d="M149,39.1a1.58,1.58,0,0,1,.28-1.24,2,2,0,0,1,2.5-.34,1.76,1.76,0,0,1,.32,2.35,2,2,0,0,1-2.5.34A1.58,1.58,0,0,1,149,39.1Zm.82,3.58,2.74-.38,1.55,11.33-2.74.38Z"/><path class="cls-2" d="M160.18,43.28a4.15,4.15,0,0,1,6.61-1.81A5.84,5.84,0,0,1,168.35,45l.91,6.61-2.74.38-.91-6.61a2.69,2.69,0,0,0-.86-1.81,2.25,2.25,0,0,0-1.79-.41,2.35,2.35,0,0,0-1.74,1.23,4.87,4.87,0,0,0-.42,3l.72,5.23-2.74.38-1.55-11.3,2.4-.33Z"/><path class="cls-2" d="M173.6,46.25a3.69,3.69,0,0,1-1.77-2.72,3.65,3.65,0,0,1,1-3.17,5.09,5.09,0,0,1,3-1.53,6.18,6.18,0,0,1,3.1.26,3.09,3.09,0,0,1,.85-2.3A3.52,3.52,0,0,1,182,35.66l.22,2.65q-2,.27-1.89,1.61A3.5,3.5,0,0,1,181.54,42a4,4,0,0,1-.14,1.93,3.79,3.79,0,0,1-.9,1.41,5.31,5.31,0,0,1-3.24,1.58,5.91,5.91,0,0,1-2.12-.07,1.13,1.13,0,0,0-.78,1.24q.14,1,1.91.8l3.79-.52q3.86-.53,4.23,2.17a3.85,3.85,0,0,1-.21,1.84,4.8,4.8,0,0,1-1.1,1.73,7.63,7.63,0,0,1-4.59,2.15,8.24,8.24,0,0,1-4.69-.52,3.2,3.2,0,0,1-2-2.45,2.22,2.22,0,0,1,.41-1.75,3.06,3.06,0,0,1,1.58-1,2.44,2.44,0,0,1-1.66-1.88,1.93,1.93,0,0,1,.33-1.43A2.87,2.87,0,0,1,173.6,46.25Zm2.76,4.6q-2.17.39-2,2a1.44,1.44,0,0,0,1.09,1.14,4.71,4.71,0,0,0,2.24.18,7.32,7.32,0,0,0,1.94-.48,4,4,0,0,0,1.12-.72,2,2,0,0,0,.82-1.82.9.9,0,0,0-.38-.65,1.22,1.22,0,0,0-.89-.15Zm2.49-8.31a2.26,2.26,0,0,0-.73-1.46,2,2,0,0,0-1.67-.37,2,2,0,0,0-1.89,2.43,2.21,2.21,0,0,0,.77,1.47A2.13,2.13,0,0,0,177,45a2,2,0,0,0,1.51-.82A2.3,2.3,0,0,0,178.84,42.53Z"/><path class="cls-2" d="M199.11,36.33q-.64-1.93-3.06-1.59a3.15,3.15,0,0,0-1.78.73,1.4,1.4,0,0,0-.51,1.24,1.36,1.36,0,0,0,.58,1,4.17,4.17,0,0,0,1.43.53l3.46.83A6.83,6.83,0,0,1,202,40.35a3.56,3.56,0,0,1,1.25,2.35,3.93,3.93,0,0,1-1.09,3.46A7,7,0,0,1,198,48a6.43,6.43,0,0,1-4.24-.67,4.83,4.83,0,0,1-2.36-3.56l2.72-.37a2.27,2.27,0,0,0,2.25,2.08,5.92,5.92,0,0,0,1.56,0,3.47,3.47,0,0,0,1.7-.72,1.45,1.45,0,0,0,.64-1.39,1.66,1.66,0,0,0-.61-1.17,4.24,4.24,0,0,0-1.55-.6l-3.16-.77A7.94,7.94,0,0,1,192,39.5a3.38,3.38,0,0,1-1.27-2.38,3.55,3.55,0,0,1,1.06-3.18,6.54,6.54,0,0,1,3.88-1.69,6,6,0,0,1,4.09.64,4.78,4.78,0,0,1,2,3.07Z"/><path class="cls-2" d="M215.14,36.88a6.37,6.37,0,0,1,.54,1.75,10.54,10.54,0,0,1,.11,1.48l-7.3,1a4,4,0,0,0,1,2.14,2.23,2.23,0,0,0,2,.6,1.83,1.83,0,0,0,1.82-1.77l2.77-.38a4.09,4.09,0,0,1-1.19,2.89,5.18,5.18,0,0,1-3.09,1.47,5,5,0,0,1-4-1.11,6.24,6.24,0,0,1-2.15-4.14,6.17,6.17,0,0,1,1-4.59,5,5,0,0,1,3.53-2.09A4.43,4.43,0,0,1,214,35.28,5.21,5.21,0,0,1,215.14,36.88Zm-4.66-.57a2.29,2.29,0,0,0-1.71,1,3.43,3.43,0,0,0-.5,2l4.81-.66a2.57,2.57,0,0,0-1.5-2.31A2.3,2.3,0,0,0,210.48,36.31Z"/><path class="cls-2" d="M221,34.51a3.55,3.55,0,0,1,3-2.28,4.79,4.79,0,0,1,3.8,1.09A6.17,6.17,0,0,1,230,37.47a6.14,6.14,0,0,1-1,4.62,4.76,4.76,0,0,1-3.34,2.07,3.62,3.62,0,0,1-3.19-.82l.88,6.42-2.74.38-2.3-16.82,2.26-.31Zm3.81,7.23a2.74,2.74,0,0,0,1-.35,2.67,2.67,0,0,0,.85-.78,3.67,3.67,0,0,0,.57-2.74,3.85,3.85,0,0,0-1.15-2.46,2.51,2.51,0,0,0-2.08-.66,2.73,2.73,0,0,0-1.79.92,2.59,2.59,0,0,0-.52,2l.28,2a2.26,2.26,0,0,0,1,1.66A2.62,2.62,0,0,0,224.82,41.74Z"/><path class="cls-2" d="M240.36,41.53a7.2,7.2,0,0,1-2.34.94,5.19,5.19,0,0,1-1.58,0,3.52,3.52,0,0,1-1.26-.47,3.37,3.37,0,0,1-1.43-2.48l-.87-6.33-1.58.22-.25-1.84,1.58-.22-.41-3L235,28l.41,3,3.07-.42.25,1.84-3.07.42.85,6.23A1.21,1.21,0,0,0,238,40.26a5.64,5.64,0,0,0,1.69-.61Z"/><path class="cls-2" d="M250.84,32a6.37,6.37,0,0,1,.54,1.75,10.54,10.54,0,0,1,.11,1.48l-7.3,1a4,4,0,0,0,1,2.14,2.23,2.23,0,0,0,2,.6A1.83,1.83,0,0,0,249,37.19l2.77-.38a4.09,4.09,0,0,1-1.19,2.89,5.18,5.18,0,0,1-3.09,1.47,5,5,0,0,1-4-1.11,6.24,6.24,0,0,1-2.15-4.14,6.17,6.17,0,0,1,1-4.59,5,5,0,0,1,3.53-2.09,4.43,4.43,0,0,1,3.88,1.15A5.21,5.21,0,0,1,250.84,32Zm-4.66-.57a2.29,2.29,0,0,0-1.71,1,3.43,3.43,0,0,0-.5,2l4.81-.66a2.57,2.57,0,0,0-1.5-2.31A2.3,2.3,0,0,0,246.18,31.42Z"/><path class="cls-2" d="M264.33,29.19a3.91,3.91,0,0,1,3.5-3,3.86,3.86,0,0,1,3.33.94,5.62,5.62,0,0,1,1.57,3.48l.91,6.61-2.77.38L270,31a2.69,2.69,0,0,0-.86-1.81,2.25,2.25,0,0,0-1.79-.41,2.15,2.15,0,0,0-1.66,1.2,5.14,5.14,0,0,0-.35,3l.73,5.3-2.74.38-.91-6.61a2.69,2.69,0,0,0-.86-1.81,2.25,2.25,0,0,0-1.79-.41A2.35,2.35,0,0,0,258,31.08a4.87,4.87,0,0,0-.42,3l.72,5.23-2.74.38L254,28.43l2.4-.33L257,30a3.77,3.77,0,0,1,3.27-2.75,4.09,4.09,0,0,1,2.45.33A4,4,0,0,1,264.33,29.19Z"/><path class="cls-2" d="M285.75,25.43a6.31,6.31,0,0,1,2,4.08,6.44,6.44,0,0,1-.91,4.58,4.73,4.73,0,0,1-3.43,2.15,3.52,3.52,0,0,1-2-.3,3.8,3.8,0,0,1-1.62-1.53l-.41,2-1.79.25-2.19-16,2.74-.38.83,6.07a3.55,3.55,0,0,1,3-2.16A4.59,4.59,0,0,1,285.75,25.43ZM279.49,30l.2,1.49a2.75,2.75,0,0,0,1.13,1.84,2.61,2.61,0,0,0,2,.49,2.4,2.4,0,0,0,1.76-1.22,3.93,3.93,0,0,0,.44-2.66,3.87,3.87,0,0,0-1.12-2.42,2.45,2.45,0,0,0-2.07-.68,2.64,2.64,0,0,0-1.83,1A2.76,2.76,0,0,0,279.49,30Z"/><path class="cls-2" d="M299.52,25.32a6.37,6.37,0,0,1,.54,1.75,10.54,10.54,0,0,1,.11,1.48l-7.3,1a4,4,0,0,0,1,2.14,2.23,2.23,0,0,0,2,.6,1.83,1.83,0,0,0,1.82-1.77l2.77-.38A4.09,4.09,0,0,1,299.27,33a5.18,5.18,0,0,1-3.09,1.47,5,5,0,0,1-4-1.11,6.24,6.24,0,0,1-2.15-4.14,6.17,6.17,0,0,1,1-4.59,5,5,0,0,1,3.53-2.09,4.43,4.43,0,0,1,3.88,1.15A5.21,5.21,0,0,1,299.52,25.32Zm-4.66-.57a2.29,2.29,0,0,0-1.71,1,3.43,3.43,0,0,0-.5,2l4.81-.66a2.57,2.57,0,0,0-1.5-2.31A2.3,2.3,0,0,0,294.86,24.75Z"/><path class="cls-2" d="M305.72,23.61q.69-2.58,2.74-2.86a4.06,4.06,0,0,1,1,0l.33,2.75a6.15,6.15,0,0,0-1.3,0q-2.74.38-2.22,4.17l.68,5-2.74.38-1.55-11.33,2.74-.38Z"/><path class="cls-2" d="M326.41,14.47,327.72,24l2.63-.36.32,2.35-2.63.36.46,3.35-2.72.37-.46-3.35-7.65,1-.28-2.07,6.37-10.9Zm-5.77,10.81,4.54-.62-.79-5.77Z"/></svg>