<svg id="Layer_1" data-name="Layer 1" xmlns="http://www.w3.org/2000/svg" viewBox="0 0 629.43 314.31"><defs><style>.cls-1,.cls-3{fill:#fff;stroke:#1414ef;stroke-miterlimit:10;}.cls-1{stroke-width:1.2px;}.cls-2{fill:#1414ef;}.cls-3{stroke-width:1.3px;}</style></defs><title>title</title><path class="cls-1" d="M50.62,1.86q2.4,0,5.53-.12t5.62-.12a26.87,26.87,0,0,1,4.92.45,19.91,19.91,0,0,1,4.87,1.61,17.47,17.47,0,0,1,4.3,2.85,13.07,13.07,0,0,1,3.06,4.34,14.06,14.06,0,0,1,1.2,5.87,15.73,15.73,0,0,1-2,7.6A17.37,17.37,0,0,1,72,30.65a16.79,16.79,0,0,1-9.21,2.6,10.26,10.26,0,0,1-3.47-.62,4.93,4.93,0,0,1-2.4-1.53,1.77,1.77,0,0,1-.29-.83,3.78,3.78,0,0,1,0-1.24c.05-.38.14-.58.25-.58a11.58,11.58,0,0,0,4.63.83A7.3,7.3,0,0,0,67.72,26,13.87,13.87,0,0,0,70,17.81Q70,12.27,67.8,9T60.94,5.83a13.52,13.52,0,0,0-4.79.58q-1,.5-1,8.59V44.49a25.8,25.8,0,0,0,.66,7q.25,1,2.77,1.61a17.43,17.43,0,0,0,3.68.62q.33,0,.33,1.4a4.66,4.66,0,0,1-.17,1.4q-9.09-.5-11.73-.5-2.23,0-5,.12l-4.42.21-1.65.17a2.84,2.84,0,0,1-.25-1.49q0-1.32.25-1.32a14.09,14.09,0,0,0,3.18-.54q2.11-.54,2.44-1.28.5-1.49.5-7.52V13.18a32.47,32.47,0,0,0-.5-6.77Q45,5.75,42.81,5a12,12,0,0,0-3.18-.7q-.33,0-.33-1.24t.33-1.49Q48.3,1.86,50.62,1.86Z"/><path class="cls-1" d="M108.69,19.71q4.54,0,6.77,2.73,0,7-4,7a4.91,4.91,0,0,1-3.22-1.65,5.17,5.17,0,0,0-3.55-1.65,4.43,4.43,0,0,0-4,2.6,11,11,0,0,0-1.45,5.41V44.49a34.6,34.6,0,0,0,.58,7.44q.16.58,2.19,1.2a11.67,11.67,0,0,0,2.77.62c.17,0,.26.4.29,1.2a8.63,8.63,0,0,1,0,1.61q-.66-.08-4.38-.33T95.06,56q-2,0-5.74.25t-4.42.33A2.42,2.42,0,0,1,84.57,55q0-1.24.33-1.24a11.52,11.52,0,0,0,3-.62q2-.62,2.19-1.2a27,27,0,0,0,.58-6V32.43q0-3.88-1.32-5.29A4,4,0,0,0,87.5,25.9a9.41,9.41,0,0,0-2-.5c-.52-.05-.78-.14-.78-.25q0-2.4.41-2.48a117.21,117.21,0,0,0,13.3-2.48,5,5,0,0,1,.66-.17c.22,0,.41.19.58.58a2,2,0,0,1,.21,1q0,.37-.12,1.16t-.21,1.65a10.5,10.5,0,0,0-.12,1.12,15.16,15.16,0,0,1,4-4A9.05,9.05,0,0,1,108.69,19.71Z"/><path class="cls-1" d="M138.68,19.71a18.21,18.21,0,0,1,13.26,5.41,17.7,17.7,0,0,1,5.49,13.09,18.75,18.75,0,0,1-32,13.14A17.91,17.91,0,0,1,120,38.21a17.8,17.8,0,0,1,5.41-13.14A18.1,18.1,0,0,1,138.68,19.71Zm-1.07,3.88a6.65,6.65,0,0,0-6,3.76,17.77,17.77,0,0,0-2.15,9A24.09,24.09,0,0,0,132.11,48q2.68,5,7.48,5a6.74,6.74,0,0,0,6.07-3.8,17.58,17.58,0,0,0,2.19-8.92,28.37,28.37,0,0,0-1.07-8,14.57,14.57,0,0,0-3.47-6.16A7.66,7.66,0,0,0,137.61,23.59Z"/><path class="cls-1" d="M166.69,25.49h-5q-.58,0-.58-2.15a2.06,2.06,0,0,1,.08-.74,23.11,23.11,0,0,0,6.36-4.38q1.07-1.07,2.35-2.44t3-3.51a5.88,5.88,0,0,1,1.57.21c.5.14.74.29.74.46V21l6,0,4.09,0q.66,0,.66.74a8,8,0,0,1-.83,3.63H175.2V45.4a7.84,7.84,0,0,0,1.4,5,4.72,4.72,0,0,0,3.88,1.74,7.79,7.79,0,0,0,1.73-.21,8.76,8.76,0,0,0,1.49-.45q.58-.25,1.07-.5a2.59,2.59,0,0,1,.58-.25q.33-.08.74.74t.33,1.07q-.5,1.16-3.51,2.68A13,13,0,0,1,177,56.8,10.42,10.42,0,0,1,169.7,54q-3-2.77-3-8.55Z"/><path class="cls-1" d="M207.75,19.71a15.32,15.32,0,0,1,6.94,1.53,13.07,13.07,0,0,1,4.79,3.88A19.2,19.2,0,0,1,222.12,30a14.24,14.24,0,0,1,.91,4.83q0,1.82-.62,2.27a4.69,4.69,0,0,1-2.52.45H200.15q-.58,0-.58.5a16.07,16.07,0,0,0,1.07,5.78,11.36,11.36,0,0,0,3.68,4.87,9.72,9.72,0,0,0,6.24,2.07,22.64,22.64,0,0,0,2.4-.12,12.38,12.38,0,0,0,2.15-.41q1-.29,1.73-.54a7.08,7.08,0,0,0,1.53-.74l1.12-.7q.33-.21,1.65-1.12a1.36,1.36,0,0,1,.41.5,1.6,1.6,0,0,1,.25.83,2.53,2.53,0,0,1-.5,1.57,13.45,13.45,0,0,1-4.87,4.46,15.32,15.32,0,0,1-8.18,2.23,16.73,16.73,0,0,1-12.39-5.33,17.82,17.82,0,0,1-5.21-12.93q0-8.34,4.83-13.55A16,16,0,0,1,207.75,19.71Zm-.58,3.8a5.84,5.84,0,0,0-3.55,1.16,7.79,7.79,0,0,0-2.4,2.81,15.76,15.76,0,0,0-1.2,3.1,10.09,10.09,0,0,0-.37,2.44c0,.39.17.58.5.58h13.38q.74,0,.74-1.24a10.71,10.71,0,0,0-1.94-5.87A5.92,5.92,0,0,0,207.17,23.51Z"/><path class="cls-1" d="M244.59,19.71a20,20,0,0,1,7.81,1.45,13.18,13.18,0,0,1,4.92,3.18,10.22,10.22,0,0,1-.95,4.67,3,3,0,0,1-2.85,1.86A3.7,3.7,0,0,1,251,30a9.37,9.37,0,0,1-1.94-2.73q-1.9-3.8-5.54-3.8t-5.66,3.59a17.66,17.66,0,0,0-2.11,9q0,7.44,3.06,11a9.75,9.75,0,0,0,7.77,3.59,22.64,22.64,0,0,0,2.4-.12,12.38,12.38,0,0,0,2.15-.41q1-.29,1.73-.54a7.08,7.08,0,0,0,1.53-.74l1.12-.7q.33-.21,1.65-1.12a1.36,1.36,0,0,1,.41.5,1.6,1.6,0,0,1,.25.83,2.53,2.53,0,0,1-.5,1.57,13.45,13.45,0,0,1-4.87,4.46,15.17,15.17,0,0,1-8.1,2.23,16.71,16.71,0,0,1-12.52-5.37,18.23,18.23,0,0,1-5.16-13.14,18.78,18.78,0,0,1,5-13A16.64,16.64,0,0,1,244.59,19.71Z"/><path class="cls-1" d="M267.56,25.49h-5q-.58,0-.58-2.15a2.07,2.07,0,0,1,.08-.74,23.1,23.1,0,0,0,6.36-4.38q1.07-1.07,2.35-2.44t3-3.51a5.88,5.88,0,0,1,1.57.21c.5.14.74.29.74.46V21l6,0,4.09,0q.66,0,.66.74a8,8,0,0,1-.83,3.63h-9.91V45.4a7.84,7.84,0,0,0,1.4,5,4.72,4.72,0,0,0,3.88,1.74,7.78,7.78,0,0,0,1.73-.21,8.77,8.77,0,0,0,1.49-.45q.58-.25,1.07-.5a2.58,2.58,0,0,1,.58-.25q.33-.08.74.74c.28.55.38.91.33,1.07q-.5,1.16-3.51,2.68a13,13,0,0,1-5.91,1.53A10.42,10.42,0,0,1,270.57,54q-3-2.77-3-8.55Z"/><path class="cls-1" d="M306.39,44.49a30.37,30.37,0,0,0,.66,7.44q.16.58,2.23,1.2a12.16,12.16,0,0,0,2.81.62c.22,0,.34.4.37,1.2a4.68,4.68,0,0,1-.12,1.61q-.58-.08-4.42-.33T302.26,56q-2.07,0-5.82.25t-4.34.33a2.42,2.42,0,0,1-.33-1.57q0-1.24.33-1.24a12,12,0,0,0,3-.62q2.06-.62,2.23-1.2a27,27,0,0,0,.58-6V32.43q0-3.88-1.32-5.29a4.59,4.59,0,0,0-1.9-1.24,8.69,8.69,0,0,0-2-.5c-.55-.05-.83-.14-.83-.25q0-2.4.5-2.48a63.44,63.44,0,0,0,6.69-1,64.8,64.8,0,0,0,6.53-1.49,4.77,4.77,0,0,0,.66-.17q.41,0,.66.58a1.52,1.52,0,0,1,.17.91,70.79,70.79,0,0,0-.66,7.1ZM297.8,9.92a5,5,0,0,1-1.49-3.63,4.89,4.89,0,0,1,1.49-3.59,5.12,5.12,0,0,1,8.76,3.59,5,5,0,0,1-1.49,3.63,5.09,5.09,0,0,1-7.27,0Z"/><path class="cls-1" d="M335.14,19.71a18.21,18.21,0,0,1,13.26,5.41,17.7,17.7,0,0,1,5.49,13.09,18.71,18.71,0,0,1-37.42,0,17.8,17.8,0,0,1,5.41-13.14A18.1,18.1,0,0,1,335.14,19.71Zm-1.07,3.88a6.65,6.65,0,0,0-6,3.76,17.76,17.76,0,0,0-2.15,9A24.09,24.09,0,0,0,328.57,48q2.68,5,7.48,5a6.73,6.73,0,0,0,6.07-3.8,17.57,17.57,0,0,0,2.19-8.92,28.36,28.36,0,0,0-1.07-8,14.56,14.56,0,0,0-3.47-6.16A7.66,7.66,0,0,0,334.06,23.59Z"/><path class="cls-1" d="M385.36,19.71Q396,19.71,396,36.64v7.85a34.56,34.56,0,0,0,.58,7.44q.16.58,2.27,1.2a12.65,12.65,0,0,0,2.85.62c.17,0,.26.4.29,1.2a4.69,4.69,0,0,1-.12,1.61q-.5-.08-4.34-.33T391.81,56q-2,0-5.49.25t-4.25.33a2.42,2.42,0,0,1-.33-1.57q0-1.24.33-1.24a9.82,9.82,0,0,0,2.77-.62q1.86-.62,2-1.2a23.72,23.72,0,0,0,.66-6V38q0-6.86-1.86-9.58t-5.91-2.73a7.65,7.65,0,0,0-4.63,1.45,4,4,0,0,0-2,3.1V44.49a34.6,34.6,0,0,0,.58,7.44q.16.58,2.19,1.2a11.88,11.88,0,0,0,2.69.62c.22,0,.34.4.37,1.2a4.67,4.67,0,0,1-.12,1.61q-.66-.08-4.34-.33T368.93,56q-2,0-5.74.25t-4.42.33a2.42,2.42,0,0,1-.33-1.57q0-1.24.33-1.24a11.52,11.52,0,0,0,3-.62q2-.62,2.19-1.2a27,27,0,0,0,.58-6V32.43q0-3.88-1.32-5.29a4,4,0,0,0-1.86-1.24,9.41,9.41,0,0,0-2-.5c-.52-.05-.79-.14-.79-.25q0-2.4.41-2.48a117.19,117.19,0,0,0,13.3-2.48.54.54,0,0,1,.21-.12.79.79,0,0,1,.25,0H373c.22,0,.41.19.58.58a2.52,2.52,0,0,1,.25.91,28.17,28.17,0,0,0-.33,3,.65.65,0,0,0,.08.41,1.23,1.23,0,0,0,.41-.25A18.32,18.32,0,0,1,379,21.19,14.46,14.46,0,0,1,385.36,19.71Z"/><path class="cls-1" d="M445.26,2q5.95,0,9.46,2.64a8.44,8.44,0,0,1,3.51,7.1,12.47,12.47,0,0,1-3.1,8.55,37.59,37.59,0,0,1-8.88,7A119.63,119.63,0,0,0,457,42q4.54-6.28,4.54-7.77a1.1,1.1,0,0,0-.79-1.12,6,6,0,0,0-1.82-.33l-1.12,0a3,3,0,0,1-.25-1.32q0-.82.25-1h7.6q1.57,0,9.09-.33c.27.17.41.61.41,1.32q0,1.32-.58,1.49a13.64,13.64,0,0,0-2.89.45,8.41,8.41,0,0,0-2.73,1A10.68,10.68,0,0,0,467,36.52q-1.4,1.94-3.47,4.71T460,45.73a12.81,12.81,0,0,0,1,1.16l1.2,1.24,1.07,1a7.32,7.32,0,0,0,1.24,1,8.33,8.33,0,0,0,1.12.54,3.22,3.22,0,0,0,1.2.25,4.18,4.18,0,0,0,2.85-1.4,10.05,10.05,0,0,0,2-2.56,2.34,2.34,0,0,1,1.4.58q.74.58.74,1.07a12.07,12.07,0,0,1-1,1.65,28.75,28.75,0,0,1-1.9,2.52,10.78,10.78,0,0,1-3.14,2.52,8.32,8.32,0,0,1-4.09,1.07,10,10,0,0,1-4.87-1.32,13.16,13.16,0,0,1-3.55-2.64l-1.16-1.32A20.89,20.89,0,0,1,440,56.55a18.69,18.69,0,0,1-11.61-3.47q-4.58-3.47-4.58-10.08a12.93,12.93,0,0,1,1.12-5.37,13.69,13.69,0,0,1,3.26-4.46,39.49,39.49,0,0,1,4-3.26,47.32,47.32,0,0,1,4.54-2.77,11.78,11.78,0,0,1-.66-1.07l-.7-1.2q-.12-.21-.62-1.12T434,22.51q-.17-.33-.58-1.24a8.93,8.93,0,0,1-.54-1.4c-.08-.33-.22-.77-.41-1.32a7.27,7.27,0,0,1-.37-1.45q-.08-.62-.17-1.4a15.37,15.37,0,0,1-.08-1.61,11,11,0,0,1,3.84-8.76A14.12,14.12,0,0,1,445.26,2Zm6,46.1a60,60,0,0,1-4.75-6q-3-4.21-5.16-7.52l-2.15-3.22a17,17,0,0,0-4.58,4.5A11.6,11.6,0,0,0,433,42.34q0,5,2.81,7.43a10.11,10.11,0,0,0,6.94,2.48,10.22,10.22,0,0,0,4.67-1.2A12.34,12.34,0,0,0,451.29,48.13ZM445.43,5.66a5,5,0,0,0-4.13,1.9,7.15,7.15,0,0,0-1.49,4.54q0,4,4.13,11.4a19.59,19.59,0,0,0,5.41-4.58A10.24,10.24,0,0,0,451,12.68a8.26,8.26,0,0,0-1.53-4.83A4.75,4.75,0,0,0,445.43,5.66Z"/><path class="cls-1" d="M50.62,80.86q2.4,0,5.53-.12t5.62-.12a26.87,26.87,0,0,1,4.92.45,19.91,19.91,0,0,1,4.87,1.61,17.47,17.47,0,0,1,4.3,2.85,13.07,13.07,0,0,1,3.06,4.34,14.06,14.06,0,0,1,1.2,5.87,15.73,15.73,0,0,1-2,7.6A17.37,17.37,0,0,1,72,109.65a16.79,16.79,0,0,1-9.21,2.6,10.26,10.26,0,0,1-3.47-.62,4.93,4.93,0,0,1-2.4-1.53,1.77,1.77,0,0,1-.29-.83,3.78,3.78,0,0,1,0-1.24c.05-.38.14-.58.25-.58a11.58,11.58,0,0,0,4.63.83A7.3,7.3,0,0,0,67.72,105,13.87,13.87,0,0,0,70,96.81Q70,91.27,67.8,88t-6.86-3.22a13.52,13.52,0,0,0-4.79.58q-1,.5-1,8.59v29.49a25.8,25.8,0,0,0,.66,7q.25,1,2.77,1.61a17.43,17.43,0,0,0,3.68.62q.33,0,.33,1.4a4.66,4.66,0,0,1-.17,1.4q-9.09-.5-11.73-.5-2.23,0-5,.12l-4.42.21-1.65.17a2.84,2.84,0,0,1-.25-1.49q0-1.32.25-1.32a14.09,14.09,0,0,0,3.18-.54q2.11-.54,2.44-1.28.5-1.49.5-7.52V92.18a32.47,32.47,0,0,0-.5-6.77Q45,84.75,42.81,84a12,12,0,0,0-3.18-.7q-.33,0-.33-1.24t.33-1.49Q48.3,80.86,50.62,80.86Z"/><path class="cls-1" d="M108.69,98.71q4.54,0,6.77,2.73,0,7-4,7a4.91,4.91,0,0,1-3.22-1.65,5.17,5.17,0,0,0-3.55-1.65,4.43,4.43,0,0,0-4,2.6,11,11,0,0,0-1.45,5.41v10.33a34.6,34.6,0,0,0,.58,7.44q.16.58,2.19,1.2a11.67,11.67,0,0,0,2.77.62c.17,0,.26.4.29,1.2a8.63,8.63,0,0,1,0,1.61q-.66-.08-4.38-.33T95.06,135q-2,0-5.74.25t-4.42.33a2.42,2.42,0,0,1-.33-1.57q0-1.24.33-1.24a11.52,11.52,0,0,0,3-.62q2-.62,2.19-1.2a27,27,0,0,0,.58-6V111.43q0-3.88-1.32-5.29a4,4,0,0,0-1.86-1.24,9.41,9.41,0,0,0-2-.5c-.52-.05-.78-.14-.78-.25q0-2.4.41-2.48a117.21,117.21,0,0,0,13.3-2.48,5,5,0,0,1,.66-.17c.22,0,.41.19.58.58a2,2,0,0,1,.21,1q0,.37-.12,1.16t-.21,1.65a10.5,10.5,0,0,0-.12,1.12,15.16,15.16,0,0,1,4-4A9.05,9.05,0,0,1,108.69,98.71Z"/><path class="cls-1" d="M136.95,98.71a15.31,15.31,0,0,1,6.94,1.53,13.07,13.07,0,0,1,4.79,3.88,19.21,19.21,0,0,1,2.64,4.87,14.24,14.24,0,0,1,.91,4.83q0,1.82-.62,2.27a4.69,4.69,0,0,1-2.52.45H129.35q-.58,0-.58.5a16.06,16.06,0,0,0,1.07,5.78,11.36,11.36,0,0,0,3.68,4.87,9.72,9.72,0,0,0,6.24,2.07,22.66,22.66,0,0,0,2.4-.12,12.37,12.37,0,0,0,2.15-.41q1-.29,1.73-.54a7.09,7.09,0,0,0,1.53-.74l1.12-.7q.33-.21,1.65-1.12a1.36,1.36,0,0,1,.41.5,1.6,1.6,0,0,1,.25.83,2.54,2.54,0,0,1-.5,1.57,13.45,13.45,0,0,1-4.87,4.46,15.33,15.33,0,0,1-8.18,2.23,16.73,16.73,0,0,1-12.39-5.33,17.82,17.82,0,0,1-5.2-12.93q0-8.34,4.83-13.55A16,16,0,0,1,136.95,98.71Zm-.58,3.8a5.84,5.84,0,0,0-3.55,1.16,7.79,7.79,0,0,0-2.4,2.81,15.76,15.76,0,0,0-1.2,3.1,10.08,10.08,0,0,0-.37,2.44c0,.39.17.58.5.58h13.38q.74,0,.74-1.24a10.71,10.71,0,0,0-1.94-5.87A5.92,5.92,0,0,0,136.37,102.51Z"/><path class="cls-1" d="M169.5,98.62a35.14,35.14,0,0,1,9.58,1.4,46.9,46.9,0,0,1,.91,9.25q0,.66-1.07.66-1.82,0-2-.66a10,10,0,0,0-2.44-4.92,6.46,6.46,0,0,0-5-2,5.93,5.93,0,0,0-3.76,1.07,3.67,3.67,0,0,0-1.36,3.06,4.8,4.8,0,0,0,.45,2.11,5.16,5.16,0,0,0,1.49,1.78,20.3,20.3,0,0,0,1.82,1.32q.78.5,2.35,1.32a5.35,5.35,0,0,0,.83.41l1.24.66,1.36.74,1.32.78a15.09,15.09,0,0,1,1.45,1l1.28,1a6.5,6.5,0,0,1,1.24,1.16q.37.5,1,1.28a5.32,5.32,0,0,1,.87,1.49,15.68,15.68,0,0,1,.45,1.57,7.67,7.67,0,0,1,.21,1.78,9.74,9.74,0,0,1-4,8.22,15.67,15.67,0,0,1-9.71,3,27.59,27.59,0,0,1-10.66-2.31,33,33,0,0,1-.83-4.58,40.35,40.35,0,0,1-.41-4.75,1.75,1.75,0,0,1,1.16-.41q1.9,0,2,.66a9.12,9.12,0,0,0,3.26,5.58,8.81,8.81,0,0,0,5.66,2.11,6,6,0,0,0,3.8-1.16,4,4,0,0,0,1.49-3.39,5.44,5.44,0,0,0-.21-1.53,4.06,4.06,0,0,0-.79-1.4l-1-1.16a6,6,0,0,0-1.49-1.12q-1.12-.66-1.65-1l-2.07-1.07q-1.53-.78-2.11-1.12a19.22,19.22,0,0,1-5.87-4.42,9.54,9.54,0,0,1,1.9-13.67A15.92,15.92,0,0,1,169.5,98.62Z"/><path class="cls-1" d="M203.2,98.71a15.31,15.31,0,0,1,6.94,1.53,13.07,13.07,0,0,1,4.79,3.88,19.21,19.21,0,0,1,2.64,4.87,14.24,14.24,0,0,1,.91,4.83q0,1.82-.62,2.27a4.69,4.69,0,0,1-2.52.45H195.6q-.58,0-.58.5a16.06,16.06,0,0,0,1.07,5.78,11.36,11.36,0,0,0,3.68,4.87,9.72,9.72,0,0,0,6.24,2.07,22.66,22.66,0,0,0,2.4-.12,12.37,12.37,0,0,0,2.15-.41q1-.29,1.73-.54a7.09,7.09,0,0,0,1.53-.74l1.12-.7q.33-.21,1.65-1.12a1.36,1.36,0,0,1,.41.5,1.6,1.6,0,0,1,.25.83,2.54,2.54,0,0,1-.5,1.57,13.45,13.45,0,0,1-4.87,4.46,15.33,15.33,0,0,1-8.18,2.23,16.73,16.73,0,0,1-12.39-5.33,17.82,17.82,0,0,1-5.2-12.93q0-8.34,4.83-13.55A16,16,0,0,1,203.2,98.71Zm-.58,3.8a5.84,5.84,0,0,0-3.55,1.16,7.79,7.79,0,0,0-2.4,2.81,15.76,15.76,0,0,0-1.2,3.1,10.08,10.08,0,0,0-.37,2.44c0,.39.17.58.5.58H209q.74,0,.74-1.24a10.71,10.71,0,0,0-1.94-5.87A5.92,5.92,0,0,0,202.62,102.51Z"/><path class="cls-1" d="M246.49,98.71q4.54,0,6.77,2.73,0,7-4,7a4.92,4.92,0,0,1-3.22-1.65,5.17,5.17,0,0,0-3.55-1.65,4.43,4.43,0,0,0-4,2.6,11,11,0,0,0-1.45,5.41v10.33a34.56,34.56,0,0,0,.58,7.44q.16.58,2.19,1.2a11.68,11.68,0,0,0,2.77.62c.17,0,.26.4.29,1.2a8.6,8.6,0,0,1,0,1.61q-.66-.08-4.38-.33t-5.62-.25q-2,0-5.74.25t-4.42.33a2.42,2.42,0,0,1-.33-1.57q0-1.24.33-1.24a11.52,11.52,0,0,0,3-.62q2-.62,2.19-1.2a27,27,0,0,0,.58-6V111.43q0-3.88-1.32-5.29a4,4,0,0,0-1.86-1.24,9.41,9.41,0,0,0-2-.5c-.52-.05-.78-.14-.78-.25q0-2.4.41-2.48a117.17,117.17,0,0,0,13.3-2.48,5,5,0,0,1,.66-.17c.22,0,.41.19.58.58a2,2,0,0,1,.21,1q0,.37-.12,1.16t-.21,1.65a10.64,10.64,0,0,0-.12,1.12,15.17,15.17,0,0,1,4-4A9.05,9.05,0,0,1,246.49,98.71Z"/><path class="cls-1" d="M288.29,103.91q-1.08-2.23-5.78-2.23-.25,0-.25-1.16a2.85,2.85,0,0,1,.25-1.49q1.16,0,4,.25t4.71.25q1.86,0,4.83-.25t4-.25a2.4,2.4,0,0,1,.25,1.32q0,1.32-.5,1.32a9.84,9.84,0,0,0-3.22.79,4.79,4.79,0,0,0-2.81,2.35L280,134a5.6,5.6,0,0,1-1.07,1.4,2.09,2.09,0,0,1-1.4.74q-.83,0-1-.5-1.65-3.72-4.5-10.29t-4.92-11.11q-2.07-4.54-4.71-10.24-1-2.31-5.37-2.31-.33,0-.33-1.32a1.91,1.91,0,0,1,.33-1.32q.74,0,4.38.25t5.62.25q2,0,5.7-.25t4.3-.25a2.69,2.69,0,0,1,.21,1.49q0,1.16-.37,1.16a12.12,12.12,0,0,0-2.93.5q-1.86.5-1.86,1.32a1.54,1.54,0,0,0,.17.83l8.18,19L287.88,107Q288.87,104.82,288.29,103.91Z"/><path class="cls-1" d="M321.42,98.71q5.12,0,7.68,2.69t2.56,9.21v16.28a3.77,3.77,0,0,0,.74,2.52,2.48,2.48,0,0,0,2,.87,5.15,5.15,0,0,0,2.81-1.07c.33.11.5.41.5.91a4.91,4.91,0,0,1-.5,2.48,20.45,20.45,0,0,1-3.3,2.07,8.61,8.61,0,0,1-4,1.07,6,6,0,0,1-3.72-1.41,6.77,6.77,0,0,1-2.4-3.06l-.62.54q-.54.46-1.49,1.12a24.46,24.46,0,0,1-2.15,1.32,13.18,13.18,0,0,1-2.81,1.12,12,12,0,0,1-3.26.45,9.86,9.86,0,0,1-6.73-2.27,7.85,7.85,0,0,1-2.6-6.24,7.61,7.61,0,0,1,.95-3.72,9.88,9.88,0,0,1,2.27-2.85,16.91,16.91,0,0,1,3.55-2.19,33.8,33.8,0,0,1,3.84-1.61q1.61-.54,4.13-1.28t3.51-1.07a1.3,1.3,0,0,0,.74-1.32V108.7a7.09,7.09,0,0,0-1.32-4.54,4.31,4.31,0,0,0-3.55-1.65A5,5,0,0,0,314.4,104a6.18,6.18,0,0,0-1.4,4.34,2.68,2.68,0,0,1-1.24,2.44,5.14,5.14,0,0,1-2.81.78q-3.06,0-4.3-2,0-4,5.41-7.43A20.72,20.72,0,0,1,321.42,98.71Zm-3.72,31.72a6.4,6.4,0,0,0,3.84-1.16,3.27,3.27,0,0,0,1.61-2.64V118.2q-.58.25-2.44.83t-2.85,1a22.51,22.51,0,0,0-2.31,1.16,5,5,0,0,0-1.94,1.82,4.55,4.55,0,0,0-.62,2.31,5.09,5.09,0,0,0,1.32,3.88A4.75,4.75,0,0,0,317.7,130.43Z"/><path class="cls-1" d="M346.21,104.49h-5q-.58,0-.58-2.15a2,2,0,0,1,.08-.74A23.1,23.1,0,0,0,347,97.22q1.07-1.07,2.35-2.44t3-3.51a5.88,5.88,0,0,1,1.57.21c.5.14.74.29.74.46V100l6,0,4.09,0q.66,0,.66.74a8,8,0,0,1-.83,3.63h-9.91V124.4a7.84,7.84,0,0,0,1.4,5,4.72,4.72,0,0,0,3.88,1.74,7.79,7.79,0,0,0,1.73-.21,8.78,8.78,0,0,0,1.49-.45q.58-.25,1.07-.5a2.59,2.59,0,0,1,.58-.25q.33-.08.74.74t.33,1.07q-.5,1.16-3.51,2.68a13,13,0,0,1-5.91,1.53,10.42,10.42,0,0,1-7.31-2.77q-3-2.77-3-8.55Z"/><path class="cls-1" d="M385,123.49a30.36,30.36,0,0,0,.66,7.44q.16.58,2.23,1.2a12.15,12.15,0,0,0,2.81.62c.22,0,.34.4.37,1.2a4.7,4.7,0,0,1-.12,1.61q-.58-.08-4.42-.33T380.9,135q-2.07,0-5.82.25t-4.34.33a2.42,2.42,0,0,1-.33-1.57q0-1.24.33-1.24a12,12,0,0,0,3-.62q2.06-.62,2.23-1.2a27,27,0,0,0,.58-6V111.43q0-3.88-1.32-5.29a4.59,4.59,0,0,0-1.9-1.24,8.67,8.67,0,0,0-2-.5c-.55-.05-.83-.14-.83-.25q0-2.4.5-2.48a63.42,63.42,0,0,0,6.69-1,64.77,64.77,0,0,0,6.53-1.49,4.79,4.79,0,0,0,.66-.17q.41,0,.66.58a1.53,1.53,0,0,1,.17.91,70.85,70.85,0,0,0-.66,7.1Zm-8.59-34.57A5,5,0,0,1,375,85.28a5.08,5.08,0,0,1,5.12-5.08,5,5,0,0,1,3.64,1.49,4.89,4.89,0,0,1,1.49,3.59,5,5,0,0,1-1.49,3.63,5.09,5.09,0,0,1-7.27,0Z"/><path class="cls-1" d="M413.78,98.71A18.21,18.21,0,0,1,427,104.12a17.7,17.7,0,0,1,5.49,13.09,18.84,18.84,0,1,1-18.75-18.51Zm-1.07,3.88a6.65,6.65,0,0,0-6,3.76,17.77,17.77,0,0,0-2.15,9A24.09,24.09,0,0,0,407.22,127q2.68,5,7.48,5a6.73,6.73,0,0,0,6.07-3.8,17.57,17.57,0,0,0,2.19-8.92,28.37,28.37,0,0,0-1.07-8,14.57,14.57,0,0,0-3.47-6.16A7.66,7.66,0,0,0,412.71,102.59Z"/><path class="cls-1" d="M464,98.71q10.66,0,10.66,16.94v7.85a34.6,34.6,0,0,0,.58,7.44q.16.58,2.27,1.2a12.66,12.66,0,0,0,2.85.62c.17,0,.26.4.29,1.2a4.66,4.66,0,0,1-.12,1.61q-.5-.08-4.34-.33t-5.74-.25q-2,0-5.49.25t-4.25.33a2.42,2.42,0,0,1-.33-1.57q0-1.24.33-1.24a9.82,9.82,0,0,0,2.77-.62q1.86-.62,2-1.2a23.75,23.75,0,0,0,.66-6V117q0-6.86-1.86-9.58t-5.91-2.73a7.65,7.65,0,0,0-4.63,1.45,4,4,0,0,0-2,3.1v14.21a34.6,34.6,0,0,0,.58,7.44q.16.58,2.19,1.2a11.88,11.88,0,0,0,2.68.62c.22,0,.34.4.37,1.2a4.7,4.7,0,0,1-.12,1.61q-.66-.08-4.34-.33t-5.58-.25q-2,0-5.74.25t-4.42.33a2.42,2.42,0,0,1-.33-1.57q0-1.24.33-1.24a11.52,11.52,0,0,0,3-.62q2-.62,2.19-1.2a27,27,0,0,0,.58-6V111.43q0-3.88-1.32-5.29A4,4,0,0,0,440,104.9a9.41,9.41,0,0,0-2-.5c-.52-.05-.78-.14-.78-.25q0-2.4.41-2.48A117.21,117.21,0,0,0,451,99.2a.54.54,0,0,1,.21-.12.79.79,0,0,1,.25,0h.21c.22,0,.41.19.58.58a2.52,2.52,0,0,1,.25.91,28.17,28.17,0,0,0-.33,3,.65.65,0,0,0,.08.41,1.23,1.23,0,0,0,.41-.25,18.31,18.31,0,0,1,5.08-3.47A14.46,14.46,0,0,1,464,98.71Z"/><path class="cls-1" d="M517.22,123.49a30.36,30.36,0,0,0,.66,7.44q.16.58,2.23,1.2a12.15,12.15,0,0,0,2.81.62c.22,0,.34.4.37,1.2a4.7,4.7,0,0,1-.12,1.61q-.58-.08-4.42-.33t-5.66-.25q-2.07,0-5.82.25t-4.34.33a2.42,2.42,0,0,1-.33-1.57q0-1.24.33-1.24a12,12,0,0,0,3-.62q2.06-.62,2.23-1.2a27,27,0,0,0,.58-6V111.43q0-3.88-1.32-5.29a4.59,4.59,0,0,0-1.9-1.24,8.67,8.67,0,0,0-2-.5c-.55-.05-.83-.14-.83-.25q0-2.4.5-2.48a63.42,63.42,0,0,0,6.69-1,64.77,64.77,0,0,0,6.53-1.49,4.79,4.79,0,0,0,.66-.17q.41,0,.66.58a1.53,1.53,0,0,1,.17.91,70.85,70.85,0,0,0-.66,7.1Zm-8.59-34.57a5,5,0,0,1-1.49-3.63,5.08,5.08,0,0,1,5.12-5.08,5,5,0,0,1,3.64,1.49,4.89,4.89,0,0,1,1.49,3.59,5,5,0,0,1-1.49,3.63,5.09,5.09,0,0,1-7.27,0Z"/><path class="cls-1" d="M554.31,98.71q10.66,0,10.66,16.94v7.85a34.56,34.56,0,0,0,.58,7.44q.16.58,2.27,1.2a12.65,12.65,0,0,0,2.85.62c.17,0,.26.4.29,1.2a4.7,4.7,0,0,1-.12,1.61q-.5-.08-4.34-.33t-5.74-.25q-2,0-5.49.25t-4.25.33a2.42,2.42,0,0,1-.33-1.57q0-1.24.33-1.24a9.82,9.82,0,0,0,2.77-.62q1.86-.62,2-1.2a23.72,23.72,0,0,0,.66-6V117q0-6.86-1.86-9.58t-5.91-2.73a7.65,7.65,0,0,0-4.63,1.45,4,4,0,0,0-2,3.1v14.21a34.56,34.56,0,0,0,.58,7.44q.16.58,2.19,1.2a11.88,11.88,0,0,0,2.69.62c.22,0,.34.4.37,1.2a4.68,4.68,0,0,1-.12,1.61q-.66-.08-4.34-.33t-5.58-.25q-2,0-5.74.25t-4.42.33a2.42,2.42,0,0,1-.33-1.57q0-1.24.33-1.24a11.52,11.52,0,0,0,3-.62q2-.62,2.19-1.2a27,27,0,0,0,.58-6V111.43q0-3.88-1.32-5.29a4,4,0,0,0-1.86-1.24,9.41,9.41,0,0,0-2-.5c-.52-.05-.78-.14-.78-.25q0-2.4.41-2.48a117.17,117.17,0,0,0,13.3-2.48.54.54,0,0,1,.21-.12.78.78,0,0,1,.25,0h.21c.22,0,.41.19.58.58a2.51,2.51,0,0,1,.25.91,28.12,28.12,0,0,0-.33,3,.65.65,0,0,0,.08.41,1.22,1.22,0,0,0,.41-.25,18.32,18.32,0,0,1,5.08-3.47A14.46,14.46,0,0,1,554.31,98.71Z"/><path class="cls-1" d="M84.32,171a20.12,20.12,0,0,0-.83-6.61q-.41-1-2.77-1.57a16.58,16.58,0,0,0-3.68-.58c-.22,0-.34-.4-.37-1.2a2.8,2.8,0,0,1,.21-1.53q8.84.58,10.41.58,2.15,0,5.53-.29t4.21-.29a3.46,3.46,0,0,1,.17,1.32c0,.94-.11,1.4-.33,1.4a15.84,15.84,0,0,0-3.55.62,5.37,5.37,0,0,0-3.14,1.69,19.3,19.3,0,0,0-.91,6.86v31.31q0,3,.33,11.57a3,3,0,0,1-1.82.33q-1.32,0-2.64-1.9L52.27,169.11v33.46a23,23,0,0,0,.66,6.77q.41,1,3.06,1.69a17.09,17.09,0,0,0,3.72.7c.17,0,.26.39.29,1.16a4.49,4.49,0,0,1-.12,1.57Q50,214,49.54,214q-2.23,0-5.49.21l-4.34.29a2.07,2.07,0,0,1-.33-1.4q0-1.32.33-1.32a15.65,15.65,0,0,0,3.76-.62,4.51,4.51,0,0,0,3-1.86q.82-1.73.83-6.94V169.94q0-4.46-.91-6-.33-.58-2.85-1.07a21.53,21.53,0,0,0-3.68-.5q-.33,0-.37-1.24a2.31,2.31,0,0,1,.29-1.57q8.67.41,9.83.41,2.73,0,7.44-.41a85.69,85.69,0,0,0,5.74,8.8Q67,174.15,74.24,183.7t9.91,13.18a23.74,23.74,0,0,0,.17-3.39Z"/><path class="cls-1" d="M117.08,177.71a15.31,15.31,0,0,1,6.94,1.53,13.07,13.07,0,0,1,4.79,3.88,19.21,19.21,0,0,1,2.64,4.87,14.24,14.24,0,0,1,.91,4.83q0,1.82-.62,2.27a4.69,4.69,0,0,1-2.52.45H109.48q-.58,0-.58.5a16.06,16.06,0,0,0,1.07,5.78,11.36,11.36,0,0,0,3.68,4.87,9.72,9.72,0,0,0,6.24,2.07,22.66,22.66,0,0,0,2.4-.12,12.37,12.37,0,0,0,2.15-.41q1-.29,1.73-.54a7.09,7.09,0,0,0,1.53-.74l1.12-.7q.33-.21,1.65-1.12a1.36,1.36,0,0,1,.41.5,1.6,1.6,0,0,1,.25.83,2.54,2.54,0,0,1-.5,1.57,13.45,13.45,0,0,1-4.87,4.46,15.33,15.33,0,0,1-8.18,2.23,16.73,16.73,0,0,1-12.39-5.33,17.82,17.82,0,0,1-5.2-12.93q0-8.34,4.83-13.55A16,16,0,0,1,117.08,177.71Zm-.58,3.8a5.84,5.84,0,0,0-3.55,1.16,7.79,7.79,0,0,0-2.4,2.81,15.76,15.76,0,0,0-1.2,3.1A10.08,10.08,0,0,0,109,191c0,.39.17.58.5.58h13.38q.74,0,.74-1.24a10.71,10.71,0,0,0-1.94-5.87A5.92,5.92,0,0,0,116.51,181.51Z"/><path class="cls-1" d="M188,184a2.38,2.38,0,0,0-.66-1.69,3.63,3.63,0,0,0-1.69-1,15.1,15.1,0,0,0-1.9-.41,12.07,12.07,0,0,0-1.69-.12h-.33q-.33,0-.37-1.24t.21-1.49q1.07,0,4.38.25t5.29.25q1.74,0,4.42-.25t3.92-.25a5.21,5.21,0,0,1,.17,1.4c0,.83-.11,1.24-.33,1.24a9.4,9.4,0,0,0-3.26,1,5.05,5.05,0,0,0-2.85,2.52L181,213.39a3.27,3.27,0,0,1-1.12,1.2,2.83,2.83,0,0,1-1.61.54,1,1,0,0,1-1.07-.58l-10.08-22.8-8.84,21.56a4.49,4.49,0,0,1-1,1.16,2.49,2.49,0,0,1-1.78.66,1.22,1.22,0,0,1-1.16-.58q-1.9-4.29-4.5-10.45t-4.75-10.86q-2.15-4.71-5-10.24a3.78,3.78,0,0,0-2.15-1.65,8,8,0,0,0-2.64-.58q-.33,0-.33-1.32,0-1.16.33-1.4.82,0,4.17.25t5.25.25q1.9,0,5.62-.25t4.3-.25a4.55,4.55,0,0,1,.17,1.49q0,1.07-.25,1.16a9.79,9.79,0,0,0-2.85.58Q150,181.84,150,183q0,.17,8.26,19,.91-2.31,2.11-5.25l1.82-4.46q.62-1.53,1.24-3.1t.87-2.35a4.52,4.52,0,0,0,.25-1,6,6,0,0,0-1.07-3.3,3.92,3.92,0,0,0-1.82-1.32,6.57,6.57,0,0,0-3-.5c-.22,0-.33-.4-.33-1.2s.11-1.28.33-1.45q.91,0,4.09.25t5.16.25q1.82,0,5.37-.25t4.21-.25a4,4,0,0,1,.12,1.53q0,1.2-.29,1.2-4.21,0-4.21,2.89,0,1.57,7.77,18.34,1.32-3.47,3.26-8.14t2.85-6.94A11.07,11.07,0,0,0,188,184Z"/><path class="cls-1" d="M231.42,160q1.49,0,11.4-.5a3.81,3.81,0,0,1,.12,1.49q0,1.16-.29,1.16a9.14,9.14,0,0,0-3,.58q-1.65.58-1.65,1.73a5.18,5.18,0,0,0,.74,2.15l8.76,16q.41.41.83-.17,3.55-5.29,6.86-10.91t3.3-7.1q0-.91-1.53-1.61a9.71,9.71,0,0,0-4-.7q-.33,0-.33-1.16a2.85,2.85,0,0,1,.25-1.49q8.34.5,9.91.5,1.9,0,3.43-.08t3.14-.21l2.52-.21a5.48,5.48,0,0,1,.17,1.32c0,.88-.11,1.32-.33,1.32a11.49,11.49,0,0,0-3.43.74,6.72,6.72,0,0,0-3.18,2q-2.4,3.55-8.59,13.59t-6.2,11.11v12.89a31.6,31.6,0,0,0,.66,7.44q.16.58,2.27,1.28a11.58,11.58,0,0,0,2.77.7c.22,0,.33.44.33,1.32a4.3,4.3,0,0,1-.17,1.32l-3.14-.25q-2.07-.17-3.8-.25t-3.39-.08q-2.23,0-6.07.25t-4.75.33a1.91,1.91,0,0,1-.33-1.32q0-1.32.25-1.32a11.27,11.27,0,0,0,3.06-.66q2.06-.66,2.31-1.32a29.48,29.48,0,0,0,.66-7.27V190.43a5.18,5.18,0,0,0-.54-1.61q-.54-1.2-1.86-3.64T236.3,181l-3.22-5.74-3.3-5.87q-2.4-4.46-4.3-5.7a8.28,8.28,0,0,0-2.44-1,9.87,9.87,0,0,0-2.35-.46c-.17,0-.26-.27-.29-.83a2.53,2.53,0,0,1,.12-1.16Q222.5,160,231.42,160Z"/><path class="cls-1" d="M287.23,177.71a18.21,18.21,0,0,1,13.26,5.41A17.7,17.7,0,0,1,306,196.21a18.84,18.84,0,1,1-18.75-18.51Zm-1.07,3.88a6.65,6.65,0,0,0-6,3.76,17.77,17.77,0,0,0-2.15,9A24.09,24.09,0,0,0,280.66,206q2.68,5,7.48,5a6.74,6.74,0,0,0,6.07-3.8,17.58,17.58,0,0,0,2.19-8.92,28.37,28.37,0,0,0-1.07-8,14.57,14.57,0,0,0-3.47-6.16A7.66,7.66,0,0,0,286.16,181.59Z"/><path class="cls-1" d="M334.65,177.71q4.54,0,6.77,2.73,0,7-4,7a4.92,4.92,0,0,1-3.22-1.65,5.17,5.17,0,0,0-3.55-1.65,4.43,4.43,0,0,0-4,2.6,11,11,0,0,0-1.45,5.41v10.33a34.56,34.56,0,0,0,.58,7.44q.16.58,2.19,1.2a11.68,11.68,0,0,0,2.77.62c.17,0,.26.4.29,1.2a8.59,8.59,0,0,1,0,1.61q-.66-.08-4.38-.33T321,214q-2,0-5.74.25t-4.42.33a2.42,2.42,0,0,1-.33-1.57q0-1.24.33-1.24a11.52,11.52,0,0,0,3-.62q2-.62,2.19-1.2a27,27,0,0,0,.58-6V190.43q0-3.88-1.32-5.29a4,4,0,0,0-1.86-1.24,9.4,9.4,0,0,0-2-.5c-.52-.05-.78-.14-.78-.25q0-2.4.41-2.48a117.19,117.19,0,0,0,13.3-2.48,5,5,0,0,1,.66-.17c.22,0,.41.19.58.58a2,2,0,0,1,.21,1q0,.37-.12,1.16t-.21,1.65a10.5,10.5,0,0,0-.12,1.12,15.16,15.16,0,0,1,4-4A9.05,9.05,0,0,1,334.65,177.71Z"/><path class="cls-1" d="M380.5,183.24q-1.65,1-5.25,3.72a58.37,58.37,0,0,0-6.57,5.78q2.4,2.56,6,6.69t6,6.77a39.74,39.74,0,0,0,3.3,3.39,10.45,10.45,0,0,0,3.18,1.65,10.05,10.05,0,0,0,2.77.66q.33,0,.33,1.4a4.85,4.85,0,0,1-.08,1.16q-9.09-.41-9.67-.41-1.57,0-3.18.08l-3.55.21-3.1.21a2.24,2.24,0,0,1-.33-1.49c0-.77.11-1.16.33-1.16a5.94,5.94,0,0,0,1.9-.37c.71-.25,1.07-.51,1.07-.79,0-.11,0-.17-.08-.17l-12.06-13.47-1,.25v5.12a33.75,33.75,0,0,0,.66,7.44q.16.58,2.23,1.2a12,12,0,0,0,2.89.62c.17,0,.26.4.29,1.2a4.7,4.7,0,0,1-.12,1.61q-.58-.08-4.38-.33t-5.7-.25q-2,0-5.74.25t-4.42.33A2.42,2.42,0,0,1,346,213q0-1.24.33-1.24a11.52,11.52,0,0,0,3-.62q2-.62,2.19-1.2a27,27,0,0,0,.58-6V169.61a32.61,32.61,0,0,0-.41-5.62q-.41-1.32-4.3-1.32h-.74q-.5,0-.5-1.32t.5-1.32q2.56-.25,4.87-.66t3.84-.83q1.53-.41,2.64-.83t2.35-.83h.17a.89.89,0,0,1,.66.46,2.27,2.27,0,0,1,.41.87,26.62,26.62,0,0,0-1,7.77v27.59a7.47,7.47,0,0,0,2.48-.91q1.73-1.57,3.76-3.26l2.93-2.44q.91-.74,1.82-1.61a7.34,7.34,0,0,0,1.2-1.36,2,2,0,0,0,.29-1q0-.91-1.86-1.12a8.27,8.27,0,0,1-1.86-.29,3.69,3.69,0,0,1-.25-1.45q0-.87.33-1h8q2.23,0,8.76-.33a1.29,1.29,0,0,1,.41.91,3.72,3.72,0,0,1,0,1.24c-.08.39-.21.58-.37.58A10.85,10.85,0,0,0,380.5,183.24Z"/><path class="cls-1" d="M460.88,199.18a46.19,46.19,0,0,1-1.24,6.4q-1.24,5.33-1.9,5.66-7.19,3.47-19.17,3.47a24.8,24.8,0,0,1-18.59-8,26.63,26.63,0,0,1-7.68-19.08,28.4,28.4,0,0,1,7.85-20.12,25.43,25.43,0,0,1,19.33-8.39,91,91,0,0,1,19.5,2.23q.25.08.5,5.41t.25,6.65q0,1.24-2,1.24a2.65,2.65,0,0,1-1.16-.33,11.54,11.54,0,0,0-1.2-3.06,21.17,21.17,0,0,0-2.6-3.55,12.57,12.57,0,0,0-5.12-3.26,22.13,22.13,0,0,0-7.85-1.28,14.34,14.34,0,0,0-12.6,6.69,28,28,0,0,0-4.5,16q0,10.41,5.08,17.64t14.33,7.23q7.35,0,11.65-4.63a11.32,11.32,0,0,0,1.94-3.1q.87-1.94,1.32-3.26t.62-1.32Q460.55,198.44,460.88,199.18Z"/><path class="cls-1" d="M480,202.49a30.36,30.36,0,0,0,.66,7.44q.16.58,2.23,1.2a12.15,12.15,0,0,0,2.81.62c.22,0,.34.4.37,1.2a4.67,4.67,0,0,1-.12,1.61q-.58-.08-4.42-.33t-5.66-.25q-2.07,0-5.82.25t-4.34.33a2.42,2.42,0,0,1-.33-1.57q0-1.24.33-1.24a12,12,0,0,0,3-.62q2.06-.62,2.23-1.2a27,27,0,0,0,.58-6V190.43q0-3.88-1.32-5.29a4.58,4.58,0,0,0-1.9-1.24,8.68,8.68,0,0,0-2-.5c-.55-.05-.83-.14-.83-.25q0-2.4.5-2.48a63.43,63.43,0,0,0,6.69-1,64.74,64.74,0,0,0,6.53-1.49,4.75,4.75,0,0,0,.66-.17q.41,0,.66.58a1.53,1.53,0,0,1,.17.91,70.85,70.85,0,0,0-.66,7.1Zm-8.59-34.57a5,5,0,0,1-1.49-3.63A5.08,5.08,0,0,1,475,159.2a5,5,0,0,1,3.64,1.49,4.89,4.89,0,0,1,1.49,3.59,5,5,0,0,1-1.49,3.63,5.09,5.09,0,0,1-7.27,0Z"/><path class="cls-1" d="M494.84,183.49h-5q-.58,0-.58-2.15a2,2,0,0,1,.08-.74,23.11,23.11,0,0,0,6.36-4.38q1.07-1.07,2.35-2.44t3-3.51a5.89,5.89,0,0,1,1.57.21c.5.14.74.29.74.46V179l6,0,4.09,0q.66,0,.66.74a8,8,0,0,1-.83,3.63h-9.91V203.4a7.84,7.84,0,0,0,1.4,5,4.72,4.72,0,0,0,3.88,1.74,7.79,7.79,0,0,0,1.74-.21,8.77,8.77,0,0,0,1.49-.45c.38-.17.74-.33,1.07-.5a2.6,2.6,0,0,1,.58-.25q.33-.08.74.74t.33,1.07q-.5,1.16-3.51,2.68a13,13,0,0,1-5.91,1.53,10.42,10.42,0,0,1-7.31-2.77q-3-2.77-3-8.55Z"/><path class="cls-1" d="M527.8,178.53q1.82,0,5.2-.25t4.21-.25a5.54,5.54,0,0,1,.17,1.49q0,1.16-.33,1.16a9,9,0,0,0-2.6.62q-1.78.62-1.86,1.36v.5q.16,1.32,7.68,18.84.66-1.49,3.22-8.14t3-7.64a7.75,7.75,0,0,0,.5-2.56,2.6,2.6,0,0,0-1.32-2,6.8,6.8,0,0,0-4-1q-.33,0-.33-1.24a2.08,2.08,0,0,1,.33-1.4q1,0,4,.25t5,.25q1.74,0,4.25-.25t3.68-.25a2.35,2.35,0,0,1,.33,1.32c0,.88-.11,1.32-.33,1.32a10.48,10.48,0,0,0-3.35.83A4.56,4.56,0,0,0,552.5,184L537.38,220.5q-5.12,12.06-12.31,12.06a4.47,4.47,0,0,1-3.3-1.16,3.86,3.86,0,0,1,.41-5.87q8.59,0,11.32-6.77,2-5,2.23-5.62l-12.06-28.09a10.69,10.69,0,0,0-1-1.9,5,5,0,0,0-2.44-1.86,7.81,7.81,0,0,0-2.69-.62q-.33,0-.33-1.16,0-1.32.25-1.49.5,0,4.42.25T527.8,178.53Z"/><path class="cls-1" d="M579,162.17a11.09,11.09,0,0,1-.87,4.25,12.38,12.38,0,0,1-2.11,3.51,24.5,24.5,0,0,1-2.56,2.52,15.85,15.85,0,0,1-2.27,1.65,3.81,3.81,0,0,1-1.2.54,2.39,2.39,0,0,1-1.28-.58,2.82,2.82,0,0,1-1-1.24,13,13,0,0,0,3.64-3.1,11.3,11.3,0,0,0,1.78-2.81,5.16,5.16,0,0,0,.37-1.61q0-1.07-1.73-2.93t-1.73-3a3,3,0,0,1,1.69-2.48,6.88,6.88,0,0,1,3.76-1.07,5.15,5.15,0,0,1,2.31.58Q579,158.21,579,162.17Z"/><path class="cls-1" d="M589.1,177.62a35.13,35.13,0,0,1,9.58,1.4,46.89,46.89,0,0,1,.91,9.25c0,.44-.36.66-1.07.66q-1.82,0-2-.66a10,10,0,0,0-2.44-4.92,6.46,6.46,0,0,0-5-2,5.93,5.93,0,0,0-3.76,1.07,3.67,3.67,0,0,0-1.36,3.06,4.81,4.81,0,0,0,.45,2.11,5.16,5.16,0,0,0,1.49,1.78,20.23,20.23,0,0,0,1.82,1.32q.78.5,2.35,1.32a5.4,5.4,0,0,0,.83.41l1.24.66,1.36.74,1.32.78a15,15,0,0,1,1.45,1l1.28,1a6.52,6.52,0,0,1,1.24,1.16q.37.5,1,1.28a5.32,5.32,0,0,1,.87,1.49,15.67,15.67,0,0,1,.45,1.57,7.67,7.67,0,0,1,.21,1.78,9.74,9.74,0,0,1-4,8.22,15.67,15.67,0,0,1-9.71,3A27.59,27.59,0,0,1,577,212.73a33.09,33.09,0,0,1-.83-4.58,40.35,40.35,0,0,1-.41-4.75,1.75,1.75,0,0,1,1.16-.41q1.9,0,2,.66a9.12,9.12,0,0,0,3.26,5.58,8.81,8.81,0,0,0,5.66,2.11,6,6,0,0,0,3.8-1.16,4,4,0,0,0,1.49-3.39,5.44,5.44,0,0,0-.21-1.53,4.05,4.05,0,0,0-.79-1.4l-.95-1.16a6,6,0,0,0-1.49-1.12q-1.12-.66-1.65-1l-2.07-1.07q-1.53-.78-2.11-1.12a19.21,19.21,0,0,1-5.87-4.42,9.54,9.54,0,0,1,1.9-13.67A15.92,15.92,0,0,1,589.1,177.62Z"/><path class="cls-1" d="M87.79,278.18a46.19,46.19,0,0,1-1.24,6.4q-1.24,5.33-1.9,5.66-7.19,3.47-19.17,3.47a24.8,24.8,0,0,1-18.59-8,26.62,26.62,0,0,1-7.68-19.08,28.4,28.4,0,0,1,7.85-20.12,25.43,25.43,0,0,1,19.33-8.39,91,91,0,0,1,19.5,2.23q.25.08.5,5.41t.25,6.65q0,1.24-2,1.24a2.66,2.66,0,0,1-1.16-.33,11.52,11.52,0,0,0-1.2-3.06,21.16,21.16,0,0,0-2.6-3.55,12.58,12.58,0,0,0-5.12-3.26,22.13,22.13,0,0,0-7.85-1.28,14.34,14.34,0,0,0-12.6,6.69,28,28,0,0,0-4.5,16q0,10.41,5.08,17.64T69,289.75q7.35,0,11.65-4.63a11.34,11.34,0,0,0,1.94-3.1q.87-1.94,1.32-3.26t.62-1.32Q87.46,277.44,87.79,278.18Z"/><path class="cls-1" d="M119.18,256.71q10.57,0,10.57,16.28v8.51a30.34,30.34,0,0,0,.66,7.44q.08.58,2.19,1.2a12.65,12.65,0,0,0,2.85.62c.17,0,.26.4.29,1.2a8.65,8.65,0,0,1,0,1.61q-.58-.08-4.42-.33t-5.66-.25q-2.07,0-5.58.25t-4.34.33a3.08,3.08,0,0,1-.25-1.57q0-1.24.25-1.24a9.87,9.87,0,0,0,2.85-.62q1.86-.62,2.11-1.2a31.25,31.25,0,0,0,.5-6v-8.1q0-6.86-1.86-9.46t-5.91-2.6a7.91,7.91,0,0,0-4.54,1.4,3.9,3.9,0,0,0-2.07,3.14v14.21a30.36,30.36,0,0,0,.66,7.44q.16.58,2.19,1.2a11.67,11.67,0,0,0,2.77.62c.17,0,.26.4.29,1.2a4.7,4.7,0,0,1-.12,1.61q-.66-.08-4.34-.33t-5.58-.25q-2,0-5.74.25t-4.42.33a2.42,2.42,0,0,1-.33-1.57q0-1.24.33-1.24a11.52,11.52,0,0,0,3-.62q2-.62,2.19-1.2a26.56,26.56,0,0,0,.58-5.95V248.61a32.65,32.65,0,0,0-.41-5.62q-.41-1.32-4.3-1.32h-.74q-.5,0-.5-1.32t.5-1.32q2.56-.25,4.87-.66t3.84-.83q1.53-.41,2.64-.83t2.35-.83h.17a.89.89,0,0,1,.66.46,2.26,2.26,0,0,1,.41.87,26.63,26.63,0,0,0-1,7.77v16.69q0,.5.33.5c.05,0,.17-.08.33-.25a15.74,15.74,0,0,1,5.08-3.59A15.22,15.22,0,0,1,119.18,256.71Z"/><path class="cls-1" d="M154.63,281.49a30.36,30.36,0,0,0,.66,7.44q.16.58,2.23,1.2a12.15,12.15,0,0,0,2.81.62c.22,0,.34.4.37,1.2a4.67,4.67,0,0,1-.12,1.61q-.58-.08-4.42-.33T150.5,293q-2.07,0-5.82.25t-4.34.33A2.42,2.42,0,0,1,140,292q0-1.24.33-1.24a12,12,0,0,0,3-.62q2.06-.62,2.23-1.2a27,27,0,0,0,.58-6V269.43q0-3.88-1.32-5.29a4.58,4.58,0,0,0-1.9-1.24,8.68,8.68,0,0,0-2-.5c-.55-.05-.83-.14-.83-.25q0-2.4.5-2.48a63.43,63.43,0,0,0,6.69-1,64.74,64.74,0,0,0,6.53-1.49,4.75,4.75,0,0,0,.66-.17q.41,0,.66.58a1.53,1.53,0,0,1,.17.91,70.85,70.85,0,0,0-.66,7.1ZM146,246.92a5,5,0,0,1-1.49-3.63,5.08,5.08,0,0,1,5.12-5.08,5,5,0,0,1,3.64,1.49,4.89,4.89,0,0,1,1.49,3.59,5,5,0,0,1-1.49,3.63,5.09,5.09,0,0,1-7.27,0Z"/><path class="cls-1" d="M191.72,256.71q10.66,0,10.66,16.94v7.85a34.6,34.6,0,0,0,.58,7.44q.16.58,2.27,1.2a12.66,12.66,0,0,0,2.85.62c.17,0,.26.4.29,1.2a4.66,4.66,0,0,1-.12,1.61q-.5-.08-4.34-.33t-5.74-.25q-2,0-5.49.25t-4.25.33a2.42,2.42,0,0,1-.33-1.57q0-1.24.33-1.24a9.82,9.82,0,0,0,2.77-.62q1.86-.62,2-1.2a23.75,23.75,0,0,0,.66-6V275q0-6.86-1.86-9.58t-5.91-2.73a7.65,7.65,0,0,0-4.63,1.45,4,4,0,0,0-2,3.1v14.21a34.6,34.6,0,0,0,.58,7.44q.16.58,2.19,1.2a11.88,11.88,0,0,0,2.68.62c.22,0,.34.4.37,1.2a4.7,4.7,0,0,1-.12,1.61q-.66-.08-4.34-.33t-5.58-.25q-2,0-5.74.25t-4.42.33a2.42,2.42,0,0,1-.33-1.57q0-1.24.33-1.24a11.52,11.52,0,0,0,3-.62q2-.62,2.19-1.2a27,27,0,0,0,.58-6V269.43q0-3.88-1.32-5.29a4,4,0,0,0-1.86-1.24,9.41,9.41,0,0,0-2-.5c-.52-.05-.78-.14-.78-.25q0-2.4.41-2.48a117.21,117.21,0,0,0,13.3-2.48.54.54,0,0,1,.21-.12.79.79,0,0,1,.25,0h.21c.22,0,.41.19.58.58a2.52,2.52,0,0,1,.25.91,28.17,28.17,0,0,0-.33,3,.65.65,0,0,0,.08.41,1.23,1.23,0,0,0,.41-.25,18.31,18.31,0,0,1,5.08-3.47A14.46,14.46,0,0,1,191.72,256.71Z"/><path class="cls-1" d="M230.3,256.71q5.12,0,7.68,2.69t2.56,9.21v16.28a3.77,3.77,0,0,0,.74,2.52,2.48,2.48,0,0,0,2,.87,5.15,5.15,0,0,0,2.81-1.07c.33.11.5.41.5.91a4.91,4.91,0,0,1-.5,2.48,20.43,20.43,0,0,1-3.3,2.07,8.61,8.61,0,0,1-4,1.07,6,6,0,0,1-3.72-1.41,6.78,6.78,0,0,1-2.4-3.06l-.62.54q-.54.46-1.49,1.12a24.47,24.47,0,0,1-2.15,1.32,13.18,13.18,0,0,1-2.81,1.12,12,12,0,0,1-3.26.45,9.86,9.86,0,0,1-6.73-2.27,7.85,7.85,0,0,1-2.6-6.24,7.61,7.61,0,0,1,.95-3.72,9.87,9.87,0,0,1,2.27-2.85,16.92,16.92,0,0,1,3.55-2.19,33.8,33.8,0,0,1,3.84-1.61q1.61-.54,4.13-1.28t3.51-1.07a1.3,1.3,0,0,0,.74-1.32V266.7a7.09,7.09,0,0,0-1.32-4.54,4.31,4.31,0,0,0-3.55-1.65,5,5,0,0,0-3.88,1.53,6.18,6.18,0,0,0-1.4,4.34,2.68,2.68,0,0,1-1.24,2.44,5.14,5.14,0,0,1-2.81.78q-3.06,0-4.3-2,0-4,5.41-7.43A20.72,20.72,0,0,1,230.3,256.71Zm-3.72,31.72a6.4,6.4,0,0,0,3.84-1.16,3.27,3.27,0,0,0,1.61-2.64V276.2q-.58.25-2.44.83t-2.85,1a22.51,22.51,0,0,0-2.31,1.16,5,5,0,0,0-1.94,1.82,4.55,4.55,0,0,0-.62,2.31,5.09,5.09,0,0,0,1.32,3.88A4.75,4.75,0,0,0,226.58,288.43Z"/><path class="cls-1" d="M255.08,262.49h-5q-.58,0-.58-2.15a2.07,2.07,0,0,1,.08-.74,23.1,23.1,0,0,0,6.36-4.38q1.07-1.07,2.35-2.44t3-3.51a5.88,5.88,0,0,1,1.57.21c.5.14.74.29.74.46V258l6,0,4.09,0q.66,0,.66.74a8,8,0,0,1-.83,3.63h-9.91V282.4a7.84,7.84,0,0,0,1.4,5,4.72,4.72,0,0,0,3.88,1.74,7.78,7.78,0,0,0,1.73-.21,8.77,8.77,0,0,0,1.49-.45q.58-.25,1.07-.5a2.58,2.58,0,0,1,.58-.25q.33-.08.74.74c.28.55.38.91.33,1.07q-.5,1.16-3.51,2.68a13,13,0,0,1-5.91,1.53A10.42,10.42,0,0,1,258.1,291q-3-2.77-3-8.55Z"/><path class="cls-1" d="M297.88,256.71a18.21,18.21,0,0,1,13.26,5.41,17.7,17.7,0,0,1,5.49,13.09,18.84,18.84,0,1,1-18.75-18.51Zm-1.07,3.88a6.65,6.65,0,0,0-6,3.76,17.76,17.76,0,0,0-2.15,9A24.08,24.08,0,0,0,291.31,285q2.68,5,7.48,5a6.73,6.73,0,0,0,6.07-3.8,17.57,17.57,0,0,0,2.19-8.92,28.36,28.36,0,0,0-1.07-8,14.57,14.57,0,0,0-3.47-6.16A7.66,7.66,0,0,0,296.8,260.59Z"/><path class="cls-1" d="M370.73,263a2.38,2.38,0,0,0-.66-1.69,3.63,3.63,0,0,0-1.69-1,15.12,15.12,0,0,0-1.9-.41,12.07,12.07,0,0,0-1.69-.12h-.33q-.33,0-.37-1.24c0-.83,0-1.32.21-1.49q1.07,0,4.38.25t5.29.25q1.73,0,4.42-.25t3.92-.25a5.21,5.21,0,0,1,.17,1.4q0,1.24-.33,1.24a9.4,9.4,0,0,0-3.26,1,5.05,5.05,0,0,0-2.85,2.52l-12.23,29.16a3.26,3.26,0,0,1-1.12,1.2,2.83,2.83,0,0,1-1.61.54,1,1,0,0,1-1.07-.58l-10.08-22.8-8.84,21.56a4.51,4.51,0,0,1-1,1.16,2.49,2.49,0,0,1-1.78.66,1.22,1.22,0,0,1-1.16-.58q-1.9-4.29-4.5-10.45t-4.75-10.86q-2.15-4.71-5-10.24a3.79,3.79,0,0,0-2.15-1.65,8,8,0,0,0-2.64-.58q-.33,0-.33-1.32,0-1.16.33-1.4.82,0,4.17.25t5.25.25q1.9,0,5.62-.25t4.3-.25a4.57,4.57,0,0,1,.17,1.49q0,1.07-.25,1.16a9.79,9.79,0,0,0-2.85.58q-1.78.58-1.78,1.74,0,.17,8.26,19,.91-2.31,2.11-5.25l1.82-4.46q.62-1.53,1.24-3.1t.87-2.35a4.54,4.54,0,0,0,.25-1,6,6,0,0,0-1.07-3.3,3.91,3.91,0,0,0-1.82-1.32,6.57,6.57,0,0,0-3-.5c-.22,0-.33-.4-.33-1.2s.11-1.28.33-1.45q.91,0,4.09.25t5.16.25q1.82,0,5.37-.25t4.21-.25a4,4,0,0,1,.12,1.53q0,1.2-.29,1.2-4.21,0-4.21,2.89,0,1.57,7.77,18.34,1.32-3.47,3.26-8.14t2.85-6.94A11.07,11.07,0,0,0,370.73,263Z"/><path class="cls-1" d="M413.28,256.71q10.66,0,10.66,16.94v7.85a34.56,34.56,0,0,0,.58,7.44q.16.58,2.27,1.2a12.65,12.65,0,0,0,2.85.62c.17,0,.26.4.29,1.2a4.69,4.69,0,0,1-.12,1.61q-.5-.08-4.34-.33t-5.74-.25q-2,0-5.49.25t-4.25.33a2.42,2.42,0,0,1-.33-1.57q0-1.24.33-1.24a9.82,9.82,0,0,0,2.77-.62q1.86-.62,2-1.2a23.72,23.72,0,0,0,.66-6V275q0-6.86-1.86-9.58t-5.91-2.73a7.65,7.65,0,0,0-4.63,1.45,4,4,0,0,0-2,3.1v14.21a34.6,34.6,0,0,0,.58,7.44q.16.58,2.19,1.2a11.88,11.88,0,0,0,2.69.62c.22,0,.34.4.37,1.2a4.67,4.67,0,0,1-.12,1.61q-.66-.08-4.34-.33t-5.58-.25q-2,0-5.74.25t-4.42.33a2.42,2.42,0,0,1-.33-1.57q0-1.24.33-1.24a11.52,11.52,0,0,0,3-.62q2-.62,2.19-1.2a27,27,0,0,0,.58-6V269.43q0-3.88-1.32-5.29a4,4,0,0,0-1.86-1.24,9.41,9.41,0,0,0-2-.5c-.52-.05-.79-.14-.79-.25q0-2.4.41-2.48a117.19,117.19,0,0,0,13.3-2.48.54.54,0,0,1,.21-.12.79.79,0,0,1,.25,0h.21c.22,0,.41.19.58.58a2.52,2.52,0,0,1,.25.91,28.17,28.17,0,0,0-.33,3,.65.65,0,0,0,.08.41,1.23,1.23,0,0,0,.41-.25,18.32,18.32,0,0,1,5.08-3.47A14.46,14.46,0,0,1,413.28,256.71Z"/><path class="cls-2" d="M20.75,14.94v1.57H12.19V15.08l4.5-4.93A7.78,7.78,0,0,0,18,8.43a3.42,3.42,0,0,0,.39-1.54,1.94,1.94,0,0,0-.57-1.52,2.38,2.38,0,0,0-1.65-.52,5.82,5.82,0,0,0-3.63,1.43l-.67-1.41a5.66,5.66,0,0,1,2-1.15,7,7,0,0,1,2.39-.43,4.41,4.41,0,0,1,3,.94,3.16,3.16,0,0,1,1.09,2.53,4.89,4.89,0,0,1-.49,2.15,10,10,0,0,1-1.64,2.28l-3.5,3.74Z"/><rect class="cls-3" x="405.87" y="246.9" width="160.36" height="35.64" rx="17.82" ry="17.82" transform="translate(43.49 -67.64) rotate(8.33)"/><path class="cls-2" d="M445.79,251l2.82,9.57,5.45-8.36,3.79.55-2.21,15.08-2.76-.4L454.55,256l-5.71,9.18-1.79-.26-2.93-10.77-1.72,11.78-2.74-.4,2.21-15.08Z"/><path class="cls-2" d="M469.91,261.54a6.37,6.37,0,0,1,0,1.83,10.54,10.54,0,0,1-.31,1.45l-7.29-1.07a4,4,0,0,0,.35,2.33,2.23,2.23,0,0,0,1.78,1.14A1.83,1.83,0,0,0,466.7,266l2.76.4a4.1,4.1,0,0,1-1.95,2.44,5.18,5.18,0,0,1-3.38.55,5,5,0,0,1-3.5-2.17,6.24,6.24,0,0,1-.92-4.57,6.17,6.17,0,0,1,2.2-4.14,5,5,0,0,1,4-1,4.43,4.43,0,0,1,3.41,2.18A5.21,5.21,0,0,1,469.91,261.54Zm-4.32-1.84a2.29,2.29,0,0,0-1.92.49,3.43,3.43,0,0,0-1.05,1.83l4.81.7a2.57,2.57,0,0,0-.8-2.63A2.3,2.3,0,0,0,465.58,259.7Z"/><path class="cls-2" d="M474.36,255.34a1.58,1.58,0,0,1,.61-1.11,2,2,0,0,1,2.5.37,1.76,1.76,0,0,1-.34,2.35,2,2,0,0,1-2.5-.37A1.58,1.58,0,0,1,474.36,255.34Zm-.21,3.67,2.74.4-1.66,11.31-2.74-.4Z"/><path class="cls-2" d="M488.85,270.27l6.2.91-.35,2.39-8.94-1.31L488,257.19l2.74.4Z"/><path class="cls-2" d="M505,273a3.61,3.61,0,0,1-3.77,1.75q-3-.44-3.6-2.92a5.05,5.05,0,0,1-.06-2l1.05-7.2,2.74.4-1,6.92a2.31,2.31,0,0,0,.29,1.74,1.78,1.78,0,0,0,1.23.74,3.48,3.48,0,0,0,1.34,0,2.56,2.56,0,0,0,1-.53,4.19,4.19,0,0,0,1.3-2.54l.82-5.58,2.74.4-1.66,11.31-2.74-.4Z"/><path class="cls-2" d="M523.18,268.4a3.91,3.91,0,0,1,4.19-1.88,3.85,3.85,0,0,1,2.93,1.83,5.62,5.62,0,0,1,.54,3.78l-1,6.6-2.76-.4,1-6.6a2.69,2.69,0,0,0-.33-2,2.25,2.25,0,0,0-1.6-.89,2.15,2.15,0,0,0-1.93.69,5.14,5.14,0,0,0-1.17,2.77l-.78,5.3-2.74-.4,1-6.6a2.69,2.69,0,0,0-.33-2,2.25,2.25,0,0,0-1.6-.89,2.35,2.35,0,0,0-2,.7,4.87,4.87,0,0,0-1.25,2.81l-.77,5.23-2.74-.4,1.65-11.29,2.39.35,0,2a3.77,3.77,0,0,1,3.91-1.73,4.1,4.1,0,0,1,2.26,1A4,4,0,0,1,523.18,268.4Z"/></svg>