<svg id="Layer_1" data-name="Layer 1" xmlns="http://www.w3.org/2000/svg" viewBox="0 0 892.59 153.98"><defs><style>.cls-1{fill:#fff;stroke:#1414ef;stroke-miterlimit:10;stroke-width:1.2px;}.cls-2{fill:#1414ef;}</style></defs><title>title</title><path class="cls-1" d="M51,1.53q2.4,0,5.53-.12t5.62-.12a26.87,26.87,0,0,1,4.92.45A19.91,19.91,0,0,1,72,3.35a17.47,17.47,0,0,1,4.3,2.85,13.08,13.08,0,0,1,3.06,4.34,14.07,14.07,0,0,1,1.2,5.87,15.72,15.72,0,0,1-2,7.6,17.37,17.37,0,0,1-6.11,6.32,16.79,16.79,0,0,1-9.21,2.6,10.26,10.26,0,0,1-3.47-.62,4.93,4.93,0,0,1-2.4-1.53,1.78,1.78,0,0,1-.29-.83,3.78,3.78,0,0,1,0-1.24c.05-.38.14-.58.25-.58a11.58,11.58,0,0,0,4.63.83,7.3,7.3,0,0,0,6.28-3.26,13.87,13.87,0,0,0,2.31-8.22q0-5.53-2.23-8.76T61.35,5.5a13.52,13.52,0,0,0-4.79.58q-1,.5-1,8.59V44.16a25.8,25.8,0,0,0,.66,7q.25,1,2.77,1.61a17.43,17.43,0,0,0,3.68.62q.33,0,.33,1.4a4.65,4.65,0,0,1-.17,1.4q-9.09-.5-11.73-.5-2.23,0-5,.12l-4.42.21L40,56.22a2.84,2.84,0,0,1-.25-1.49q0-1.32.25-1.32a14.09,14.09,0,0,0,3.18-.54q2.11-.54,2.44-1.28.5-1.49.5-7.52V12.85a32.45,32.45,0,0,0-.5-6.77q-.25-.66-2.44-1.36A12,12,0,0,0,40,4q-.33,0-.33-1.24T40,1.28Q48.71,1.53,51,1.53Z"/><path class="cls-1" d="M109.1,19.37q4.54,0,6.77,2.73,0,7-4,7a4.91,4.91,0,0,1-3.22-1.65,5.17,5.17,0,0,0-3.55-1.65,4.43,4.43,0,0,0-4,2.6,11,11,0,0,0-1.45,5.41V44.16a34.58,34.58,0,0,0,.58,7.44q.16.58,2.19,1.2a11.67,11.67,0,0,0,2.77.62c.17,0,.26.4.29,1.2a8.62,8.62,0,0,1,0,1.61q-.66-.08-4.38-.33t-5.62-.25q-2,0-5.74.25t-4.42.33A2.42,2.42,0,0,1,85,54.65q0-1.24.33-1.24a11.52,11.52,0,0,0,3-.62q2-.62,2.19-1.2a27,27,0,0,0,.58-6V32.1q0-3.88-1.32-5.29a4,4,0,0,0-1.86-1.24,9.41,9.41,0,0,0-2-.5c-.52-.05-.78-.14-.78-.25q0-2.4.41-2.48a117.19,117.19,0,0,0,13.3-2.48,5,5,0,0,1,.66-.17c.22,0,.41.19.58.58a2,2,0,0,1,.21,1q0,.37-.12,1.16T100,24a10.57,10.57,0,0,0-.12,1.12,15.17,15.17,0,0,1,4-4A9.05,9.05,0,0,1,109.1,19.37Z"/><path class="cls-1" d="M137.35,19.37a15.32,15.32,0,0,1,6.94,1.53,13.07,13.07,0,0,1,4.79,3.88,19.21,19.21,0,0,1,2.64,4.87,14.24,14.24,0,0,1,.91,4.83q0,1.82-.62,2.27a4.69,4.69,0,0,1-2.52.45H129.75q-.58,0-.58.5a16.06,16.06,0,0,0,1.07,5.78,11.36,11.36,0,0,0,3.68,4.87,9.72,9.72,0,0,0,6.24,2.07,22.66,22.66,0,0,0,2.4-.12,12.37,12.37,0,0,0,2.15-.41q1-.29,1.73-.54a7.09,7.09,0,0,0,1.53-.74l1.12-.7q.33-.21,1.65-1.12a1.36,1.36,0,0,1,.41.5,1.6,1.6,0,0,1,.25.83,2.54,2.54,0,0,1-.5,1.57A13.46,13.46,0,0,1,146,54.15a15.33,15.33,0,0,1-8.18,2.23,16.73,16.73,0,0,1-12.39-5.33,17.82,17.82,0,0,1-5.2-12.93q0-8.34,4.83-13.55A16,16,0,0,1,137.35,19.37Zm-.58,3.8a5.84,5.84,0,0,0-3.55,1.16,7.79,7.79,0,0,0-2.4,2.81,15.78,15.78,0,0,0-1.2,3.1,10.1,10.1,0,0,0-.37,2.44c0,.39.17.58.5.58h13.38q.74,0,.74-1.24a10.71,10.71,0,0,0-1.94-5.87A5.92,5.92,0,0,0,136.78,23.17Z"/><path class="cls-1" d="M169.9,19.29a35.13,35.13,0,0,1,9.58,1.4,46.91,46.91,0,0,1,.91,9.25q0,.66-1.07.66-1.82,0-2-.66A10,10,0,0,0,174.9,25a6.46,6.46,0,0,0-5-2,5.93,5.93,0,0,0-3.76,1.07,3.67,3.67,0,0,0-1.36,3.06,4.81,4.81,0,0,0,.45,2.11A5.16,5.16,0,0,0,166.72,31a20.34,20.34,0,0,0,1.82,1.32q.78.5,2.35,1.32a5.38,5.38,0,0,0,.83.41l1.24.66,1.36.74,1.32.78a15.09,15.09,0,0,1,1.45,1l1.28,1a6.51,6.51,0,0,1,1.24,1.16q.37.5,1,1.28a5.33,5.33,0,0,1,.87,1.49,15.74,15.74,0,0,1,.45,1.57,7.68,7.68,0,0,1,.21,1.78,9.74,9.74,0,0,1-4,8.22,15.67,15.67,0,0,1-9.71,3,27.59,27.59,0,0,1-10.66-2.31,33,33,0,0,1-.83-4.58,40.35,40.35,0,0,1-.41-4.75,1.75,1.75,0,0,1,1.16-.41q1.9,0,2,.66a9.12,9.12,0,0,0,3.26,5.58A8.81,8.81,0,0,0,168.58,53a6,6,0,0,0,3.8-1.16,4,4,0,0,0,1.49-3.39,5.44,5.44,0,0,0-.21-1.53,4.05,4.05,0,0,0-.78-1.4l-.95-1.16a6,6,0,0,0-1.49-1.12q-1.12-.66-1.65-1l-2.07-1.07q-1.53-.78-2.11-1.12a19.21,19.21,0,0,1-5.87-4.42,8.83,8.83,0,0,1-2.07-5.91,8.87,8.87,0,0,1,4-7.77A15.92,15.92,0,0,1,169.9,19.29Z"/><path class="cls-1" d="M200.14,19.29a35.13,35.13,0,0,1,9.58,1.4,46.91,46.91,0,0,1,.91,9.25q0,.66-1.07.66-1.82,0-2-.66A10,10,0,0,0,205.14,25a6.46,6.46,0,0,0-5-2,5.93,5.93,0,0,0-3.76,1.07A3.67,3.67,0,0,0,195,27.14a4.81,4.81,0,0,0,.45,2.11A5.16,5.16,0,0,0,197,31a20.34,20.34,0,0,0,1.82,1.32q.78.5,2.35,1.32a5.38,5.38,0,0,0,.83.41l1.24.66,1.36.74,1.32.78a15.09,15.09,0,0,1,1.45,1l1.28,1a6.51,6.51,0,0,1,1.24,1.16q.37.5,1,1.28a5.33,5.33,0,0,1,.87,1.49,15.74,15.74,0,0,1,.45,1.57,7.68,7.68,0,0,1,.21,1.78,9.74,9.74,0,0,1-4,8.22,15.67,15.67,0,0,1-9.71,3A27.59,27.59,0,0,1,188,54.4a33,33,0,0,1-.83-4.58,40.35,40.35,0,0,1-.41-4.75,1.75,1.75,0,0,1,1.16-.41q1.9,0,2,.66a9.12,9.12,0,0,0,3.26,5.58A8.81,8.81,0,0,0,198.82,53a6,6,0,0,0,3.8-1.16,4,4,0,0,0,1.49-3.39,5.44,5.44,0,0,0-.21-1.53,4.05,4.05,0,0,0-.78-1.4l-.95-1.16a6,6,0,0,0-1.49-1.12q-1.12-.66-1.65-1L197,41.23q-1.53-.78-2.11-1.12A19.21,19.21,0,0,1,189,35.69a8.83,8.83,0,0,1-2.07-5.91,8.87,8.87,0,0,1,4-7.77A15.92,15.92,0,0,1,200.14,19.29Z"/><path class="cls-1" d="M245.41,1.53q2.4,0,5.53-.12t5.62-.12a26.87,26.87,0,0,1,4.92.45,19.91,19.91,0,0,1,4.87,1.61,17.47,17.47,0,0,1,4.3,2.85,13.08,13.08,0,0,1,3.06,4.34,14.07,14.07,0,0,1,1.2,5.87,15.72,15.72,0,0,1-2,7.6,17.37,17.37,0,0,1-6.11,6.32,16.79,16.79,0,0,1-9.21,2.6,10.26,10.26,0,0,1-3.47-.62,4.93,4.93,0,0,1-2.4-1.53,1.78,1.78,0,0,1-.29-.83,3.78,3.78,0,0,1,0-1.24c.05-.38.14-.58.25-.58a11.58,11.58,0,0,0,4.63.83,7.3,7.3,0,0,0,6.28-3.26,13.87,13.87,0,0,0,2.31-8.22q0-5.53-2.23-8.76T255.74,5.5a13.52,13.52,0,0,0-4.79.58q-1,.5-1,8.59V44.16a25.8,25.8,0,0,0,.66,7q.25,1,2.77,1.61a17.43,17.43,0,0,0,3.68.62q.33,0,.33,1.4a4.65,4.65,0,0,1-.17,1.4q-9.09-.5-11.73-.5-2.23,0-5,.12l-4.42.21-1.65.17a2.84,2.84,0,0,1-.25-1.49q0-1.32.25-1.32a14.09,14.09,0,0,0,3.18-.54q2.11-.54,2.44-1.28.5-1.49.5-7.52V12.85a32.45,32.45,0,0,0-.5-6.77q-.25-.66-2.44-1.36a12,12,0,0,0-3.18-.7q-.33,0-.33-1.24t.33-1.49Q243.1,1.53,245.41,1.53Z"/><path class="cls-1" d="M303.49,19.37q4.54,0,6.77,2.73,0,7-4,7a4.91,4.91,0,0,1-3.22-1.65,5.17,5.17,0,0,0-3.55-1.65,4.43,4.43,0,0,0-4,2.6,11,11,0,0,0-1.45,5.41V44.16a34.58,34.58,0,0,0,.58,7.44q.16.58,2.19,1.2a11.67,11.67,0,0,0,2.77.62c.17,0,.26.4.29,1.2a8.62,8.62,0,0,1,0,1.61q-.66-.08-4.38-.33t-5.62-.25q-2,0-5.74.25t-4.42.33a2.42,2.42,0,0,1-.33-1.57q0-1.24.33-1.24a11.52,11.52,0,0,0,3-.62q2-.62,2.19-1.2a27,27,0,0,0,.58-6V32.1q0-3.88-1.32-5.29a4,4,0,0,0-1.86-1.24,9.41,9.41,0,0,0-2-.5c-.52-.05-.78-.14-.78-.25q0-2.4.41-2.48a117.19,117.19,0,0,0,13.3-2.48,5,5,0,0,1,.66-.17c.22,0,.41.19.58.58a2,2,0,0,1,.21,1q0,.37-.12,1.16T294.36,24a10.57,10.57,0,0,0-.12,1.12,15.17,15.17,0,0,1,4-4A9.05,9.05,0,0,1,303.49,19.37Z"/><path class="cls-1" d="M331.74,19.37a15.32,15.32,0,0,1,6.94,1.53,13.07,13.07,0,0,1,4.79,3.88,19.21,19.21,0,0,1,2.64,4.87,14.24,14.24,0,0,1,.91,4.83q0,1.82-.62,2.27a4.69,4.69,0,0,1-2.52.45H324.14q-.58,0-.58.5a16.06,16.06,0,0,0,1.07,5.78,11.36,11.36,0,0,0,3.68,4.87,9.72,9.72,0,0,0,6.24,2.07,22.66,22.66,0,0,0,2.4-.12,12.37,12.37,0,0,0,2.15-.41q1-.29,1.73-.54a7.09,7.09,0,0,0,1.53-.74l1.12-.7q.33-.21,1.65-1.12a1.36,1.36,0,0,1,.41.5,1.6,1.6,0,0,1,.25.83,2.54,2.54,0,0,1-.5,1.57,13.46,13.46,0,0,1-4.87,4.46,15.33,15.33,0,0,1-8.18,2.23,16.73,16.73,0,0,1-12.39-5.33,17.82,17.82,0,0,1-5.2-12.93q0-8.34,4.83-13.55A16,16,0,0,1,331.74,19.37Zm-.58,3.8a5.84,5.84,0,0,0-3.55,1.16,7.79,7.79,0,0,0-2.4,2.81,15.78,15.78,0,0,0-1.2,3.1,10.1,10.1,0,0,0-.37,2.44c0,.39.17.58.5.58h13.38q.74,0,.74-1.24a10.71,10.71,0,0,0-1.94-5.87A5.92,5.92,0,0,0,331.16,23.17Z"/><path class="cls-1" d="M364.29,19.29a35.13,35.13,0,0,1,9.58,1.4,46.91,46.91,0,0,1,.91,9.25q0,.66-1.07.66-1.82,0-2-.66A10,10,0,0,0,369.29,25a6.46,6.46,0,0,0-5-2,5.93,5.93,0,0,0-3.76,1.07,3.67,3.67,0,0,0-1.36,3.06,4.81,4.81,0,0,0,.45,2.11A5.16,5.16,0,0,0,361.11,31a20.34,20.34,0,0,0,1.82,1.32q.78.5,2.35,1.32a5.38,5.38,0,0,0,.83.41l1.24.66,1.36.74,1.32.78a15.09,15.09,0,0,1,1.45,1l1.28,1A6.51,6.51,0,0,1,374,39.37q.37.5,1,1.28a5.33,5.33,0,0,1,.87,1.49,15.74,15.74,0,0,1,.45,1.57,7.68,7.68,0,0,1,.21,1.78,9.74,9.74,0,0,1-4,8.22,15.67,15.67,0,0,1-9.71,3,27.59,27.59,0,0,1-10.66-2.31,33,33,0,0,1-.83-4.58,40.35,40.35,0,0,1-.41-4.75,1.75,1.75,0,0,1,1.16-.41q1.9,0,2,.66a9.12,9.12,0,0,0,3.26,5.58A8.81,8.81,0,0,0,363,53a6,6,0,0,0,3.8-1.16,4,4,0,0,0,1.49-3.39,5.44,5.44,0,0,0-.21-1.53,4.05,4.05,0,0,0-.78-1.4l-.95-1.16a6,6,0,0,0-1.49-1.12q-1.12-.66-1.65-1l-2.07-1.07q-1.53-.78-2.11-1.12a19.21,19.21,0,0,1-5.87-4.42,8.83,8.83,0,0,1-2.07-5.91A8.87,8.87,0,0,1,355,22,15.92,15.92,0,0,1,364.29,19.29Z"/><path class="cls-1" d="M394.53,19.29a35.13,35.13,0,0,1,9.58,1.4,46.91,46.91,0,0,1,.91,9.25q0,.66-1.07.66-1.82,0-2-.66A10,10,0,0,0,399.53,25a6.46,6.46,0,0,0-5-2,5.93,5.93,0,0,0-3.76,1.07,3.67,3.67,0,0,0-1.36,3.06,4.81,4.81,0,0,0,.45,2.11A5.16,5.16,0,0,0,391.35,31a20.34,20.34,0,0,0,1.82,1.32q.78.5,2.35,1.32a5.38,5.38,0,0,0,.83.41l1.24.66,1.36.74,1.32.78a15.09,15.09,0,0,1,1.45,1l1.28,1a6.51,6.51,0,0,1,1.24,1.16q.37.5,1,1.28a5.33,5.33,0,0,1,.87,1.49,15.74,15.74,0,0,1,.45,1.57,7.68,7.68,0,0,1,.21,1.78,9.74,9.74,0,0,1-4,8.22,15.67,15.67,0,0,1-9.71,3,27.59,27.59,0,0,1-10.66-2.31,33,33,0,0,1-.83-4.58,40.35,40.35,0,0,1-.41-4.75,1.75,1.75,0,0,1,1.16-.41q1.9,0,2,.66a9.12,9.12,0,0,0,3.26,5.58A8.81,8.81,0,0,0,393.21,53a6,6,0,0,0,3.8-1.16,4,4,0,0,0,1.49-3.39,5.44,5.44,0,0,0-.21-1.53,4.05,4.05,0,0,0-.78-1.4l-.95-1.16a6,6,0,0,0-1.49-1.12q-1.12-.66-1.65-1l-2.07-1.07q-1.53-.78-2.11-1.12a19.21,19.21,0,0,1-5.87-4.42,8.83,8.83,0,0,1-2.07-5.91,8.87,8.87,0,0,1,4-7.77A15.92,15.92,0,0,1,394.53,19.29Z"/><path class="cls-1" d="M439.22,1.7q1.49,0,11.4-.5a3.82,3.82,0,0,1,.12,1.49c0,.77-.12,1.16-.29,1.16a9.13,9.13,0,0,0-3,.58q-1.65.58-1.65,1.73a5.18,5.18,0,0,0,.74,2.15l8.76,16q.41.41.83-.17,3.55-5.29,6.86-10.91t3.3-7.1q0-.91-1.53-1.61a9.71,9.71,0,0,0-4-.7q-.33,0-.33-1.16a2.85,2.85,0,0,1,.25-1.49q8.34.5,9.91.5,1.9,0,3.43-.08t3.14-.21l2.52-.21a5.47,5.47,0,0,1,.17,1.32c0,.88-.11,1.32-.33,1.32a11.49,11.49,0,0,0-3.43.74,6.72,6.72,0,0,0-3.18,2q-2.4,3.55-8.59,13.59t-6.2,11.11V44.16a31.6,31.6,0,0,0,.66,7.44q.16.58,2.27,1.28a11.59,11.59,0,0,0,2.77.7q.33,0,.33,1.32a4.3,4.3,0,0,1-.17,1.32L460.87,56q-2.07-.17-3.8-.25t-3.39-.08q-2.23,0-6.07.25t-4.75.33a1.91,1.91,0,0,1-.33-1.32q0-1.32.25-1.32a11.27,11.27,0,0,0,3.06-.66q2.06-.66,2.31-1.32a29.5,29.5,0,0,0,.66-7.27V32.1a5.18,5.18,0,0,0-.54-1.61q-.54-1.2-1.86-3.64t-2.31-4.21l-3.22-5.74L437.57,11q-2.4-4.46-4.3-5.7a8.27,8.27,0,0,0-2.44-1,9.87,9.87,0,0,0-2.35-.46c-.17,0-.26-.27-.29-.83a2.53,2.53,0,0,1,.12-1.16Q430.3,1.7,439.22,1.7Z"/><path class="cls-1" d="M501.51,19.37a18.21,18.21,0,0,1,13.26,5.41,17.7,17.7,0,0,1,5.49,13.09,18.71,18.71,0,0,1-37.42,0,17.8,17.8,0,0,1,5.41-13.14A18.1,18.1,0,0,1,501.51,19.37Zm-1.07,3.88a6.65,6.65,0,0,0-6,3.76,17.77,17.77,0,0,0-2.15,9,24.09,24.09,0,0,0,2.69,11.65q2.68,5,7.48,5a6.73,6.73,0,0,0,6.07-3.8,17.57,17.57,0,0,0,2.19-8.92,28.36,28.36,0,0,0-1.07-8,14.57,14.57,0,0,0-3.47-6.16A7.66,7.66,0,0,0,500.44,23.26Z"/><path class="cls-1" d="M560.83,28.3V44.65a18.31,18.31,0,0,0,.66,5.78,1.71,1.71,0,0,0,.95.66,6.4,6.4,0,0,0,1.45.33,12.26,12.26,0,0,0,1.36.08,1.52,1.52,0,0,1,.7.08c.22.06.33.3.33.74a6.3,6.3,0,0,1-.17,1.12c-.11.52-.28.79-.5.79a19,19,0,0,0-2.93.29l-3.43.58q-1.65.29-3.14.62t-3.3.66q-.58,0-.58-1.32V51.43Q552.16,51,552,51a18.44,18.44,0,0,1-5,3.72,13.84,13.84,0,0,1-6.53,1.65A8.65,8.65,0,0,1,535.51,55a10,10,0,0,1-3.3-3.63,17.76,17.76,0,0,1-1.73-4.79,25.22,25.22,0,0,1-.54-5.21V32.1q0-3.88-1.32-5.29a4.59,4.59,0,0,0-1.9-1.24,8.68,8.68,0,0,0-2-.5c-.55-.05-.83-.14-.83-.25q0-2.4.41-2.48a62.33,62.33,0,0,0,6.77-1,64.76,64.76,0,0,0,6.53-1.49,1.34,1.34,0,0,0,.33-.08,1.41,1.41,0,0,1,.33-.08q.41,0,.62.58a2.94,2.94,0,0,1,.21.91q-.74,5.62-.74,7.27v9.91q0,6.44,1.82,9.25T546,50.44a6.48,6.48,0,0,0,4.46-1.61,4.4,4.4,0,0,0,1.82-3.1V32.1q0-3.88-1.32-5.29a4,4,0,0,0-1.86-1.24,9.31,9.31,0,0,0-2-.5c-.55-.05-.83-.14-.83-.25q0-2.4.5-2.48a63.43,63.43,0,0,0,6.69-1A64.78,64.78,0,0,0,560,19.87a4.78,4.78,0,0,0,.66-.17q.41,0,.66.58a1.52,1.52,0,0,1,.17.91Q560.83,26.81,560.83,28.3Z"/><path class="cls-1" d="M597.59,19.37q10.66,0,10.66,16.94v7.85a34.58,34.58,0,0,0,.58,7.44q.16.58,2.27,1.2a12.65,12.65,0,0,0,2.85.62c.17,0,.26.4.29,1.2a4.68,4.68,0,0,1-.12,1.61q-.5-.08-4.34-.33T604,55.64q-2,0-5.49.25t-4.25.33a2.42,2.42,0,0,1-.33-1.57q0-1.24.33-1.24a9.82,9.82,0,0,0,2.77-.62q1.86-.62,2-1.2a23.73,23.73,0,0,0,.66-6V37.71q0-6.86-1.86-9.58T592,25.41a7.65,7.65,0,0,0-4.63,1.45,4,4,0,0,0-2,3.1V44.16a34.58,34.58,0,0,0,.58,7.44q.16.58,2.19,1.2a11.88,11.88,0,0,0,2.69.62c.22,0,.34.4.37,1.2a4.69,4.69,0,0,1-.12,1.61q-.66-.08-4.34-.33t-5.58-.25q-2,0-5.74.25t-4.42.33a2.42,2.42,0,0,1-.33-1.57q0-1.24.33-1.24a11.52,11.52,0,0,0,3-.62q2-.62,2.19-1.2a27,27,0,0,0,.58-6V32.1q0-3.88-1.32-5.29a4,4,0,0,0-1.86-1.24,9.41,9.41,0,0,0-2-.5c-.52-.05-.78-.14-.78-.25q0-2.4.41-2.48a117.19,117.19,0,0,0,13.3-2.48.54.54,0,0,1,.21-.12.79.79,0,0,1,.25,0h.21c.22,0,.41.19.58.58a2.51,2.51,0,0,1,.25.91,28.15,28.15,0,0,0-.33,3,.65.65,0,0,0,.08.41,1.23,1.23,0,0,0,.41-.25,18.32,18.32,0,0,1,5.08-3.47A14.46,14.46,0,0,1,597.59,19.37Z"/><path class="cls-1" d="M634.6,19.54a26.18,26.18,0,0,1,6.86,1.07,25.46,25.46,0,0,0,6.61,1.07h4.71c.11,0,.3.36.58,1.07a5.08,5.08,0,0,1,.41,1.65q0,1.16-.5,1.16h-5.37c-.22,0-.33.08-.33.25s.25.77.74,2.15a11.7,11.7,0,0,1,.74,4,12,12,0,0,1-4.09,8.8,14.15,14.15,0,0,1-10.2,3.92,34.18,34.18,0,0,1-5.12-.33,4.43,4.43,0,0,0-1.82,1.53,3.52,3.52,0,0,0-.83,2,1.7,1.7,0,0,0,.78,1.4,5.54,5.54,0,0,0,2.44.83q1.65.25,2.81.33t3.3.17h1.24q8.26.25,12.1,2.27a6.5,6.5,0,0,1,3.84,6.07q.08,6.2-5.95,10.74a22.57,22.57,0,0,1-14,4.54,21.47,21.47,0,0,1-10.53-2.31q-4.5-2.4-4.5-6.77a6.43,6.43,0,0,1,2.35-4.63A13.67,13.67,0,0,1,626,57.38a9.43,9.43,0,0,1-4-2.52,6,6,0,0,1-1.82-4.34q0-3.55,6.11-7.35a10.94,10.94,0,0,1-4.46-4.25,12.15,12.15,0,0,1-2.07-6.73,11.15,11.15,0,0,1,4.3-9.25A16.42,16.42,0,0,1,634.6,19.54ZM646,62.75q0-2.89-4.17-3.84a52.47,52.47,0,0,0-11.19-1,1.34,1.34,0,0,0-.41.08,3.67,3.67,0,0,0-.41.25q-1.07.41-1.65.7a7.12,7.12,0,0,0-1.32.91,4,4,0,0,0-1.12,1.45,4.8,4.8,0,0,0-.37,2q0,3,3.14,5a12.87,12.87,0,0,0,7,2,12.48,12.48,0,0,0,7.56-2.15A6.44,6.44,0,0,0,646,62.75ZM628.33,31.52A13.07,13.07,0,0,0,630,38.33a5.13,5.13,0,0,0,4.63,2.77,4.91,4.91,0,0,0,4.5-2.35,11,11,0,0,0,1.45-5.82,13.57,13.57,0,0,0-1.65-7.1,5.28,5.28,0,0,0-4.79-2.73,4.66,4.66,0,0,0-4.38,2.56A12,12,0,0,0,628.33,31.52Z"/><path class="cls-1" d="M40.7,92.41A13,13,0,0,1,45.9,82,18.05,18.05,0,0,1,57.63,77.7a28.87,28.87,0,0,1,4,.25q1.74.25,4.83,1t4.25,1a73.7,73.7,0,0,1,1,12.72.9.9,0,0,1-1,.74q-2.23,0-2.4-.74a14.52,14.52,0,0,0-3.55-7.43,9.38,9.38,0,0,0-7.44-3.64,7.62,7.62,0,0,0-5.82,2.15,8.09,8.09,0,0,0-2,5.78A9.31,9.31,0,0,0,49.82,92,5.82,5.82,0,0,0,51,94.14q.87,1.08,1.4,1.78a9.8,9.8,0,0,0,2.07,1.78q1.53,1.08,2.07,1.49T59,100.79a24.9,24.9,0,0,0,2.35,1.36,30.37,30.37,0,0,0,2.77,1.78q2.27,1.36,3.18,2T69.94,108a11.91,11.91,0,0,1,2.52,2.81,17,17,0,0,1,1.45,3.35,13.91,13.91,0,0,1,.66,4.34,13.41,13.41,0,0,1-5.33,10.91,19.11,19.11,0,0,1-12.35,4.3q-5,0-15.2-2.31a72.22,72.22,0,0,1-1.36-7.48A56,56,0,0,1,39.7,118q.08-.66,1.32-.66,2.15,0,2.4.66a16.06,16.06,0,0,0,1.16,3.26,24,24,0,0,0,2.27,3.8,10.89,10.89,0,0,0,3.88,3.3,11.62,11.62,0,0,0,5.49,1.28,9.25,9.25,0,0,0,6.44-2.31q2.56-2.31,2.56-6.94a7.19,7.19,0,0,0-.54-2.73,9.54,9.54,0,0,0-1.24-2.23,12.09,12.09,0,0,0-2.07-2q-1.36-1.07-2.27-1.65t-2.68-1.61l-2.52-1.45a5.67,5.67,0,0,0-.91-.66q-2.4-1.49-3.64-2.31a39.85,39.85,0,0,1-3.18-2.44,16.34,16.34,0,0,1-2.93-3,15.62,15.62,0,0,1-1.78-3.47A12.43,12.43,0,0,1,40.7,92.41Z"/><path class="cls-1" d="M96.71,96.37a20,20,0,0,1,7.81,1.45,13.18,13.18,0,0,1,4.92,3.18,10.22,10.22,0,0,1-.95,4.67,3,3,0,0,1-2.85,1.86,3.7,3.7,0,0,1-2.52-.83,9.38,9.38,0,0,1-1.94-2.73q-1.9-3.8-5.54-3.8T90,103.77a17.66,17.66,0,0,0-2.11,9q0,7.44,3.06,11a9.75,9.75,0,0,0,7.77,3.59,22.66,22.66,0,0,0,2.4-.12,12.37,12.37,0,0,0,2.15-.41q1-.29,1.73-.54a7.09,7.09,0,0,0,1.53-.74l1.12-.7q.33-.21,1.65-1.12a1.36,1.36,0,0,1,.41.5,1.6,1.6,0,0,1,.25.83,2.54,2.54,0,0,1-.5,1.57,13.46,13.46,0,0,1-4.87,4.46,15.17,15.17,0,0,1-8.1,2.23A16.71,16.71,0,0,1,83.94,128a18.24,18.24,0,0,1-5.16-13.14,18.78,18.78,0,0,1,5-13A16.64,16.64,0,0,1,96.71,96.37Z"/><path class="cls-1" d="M141.9,96.37q10.57,0,10.57,16.28v8.51a30.35,30.35,0,0,0,.66,7.44q.08.58,2.19,1.2a12.65,12.65,0,0,0,2.85.62c.17,0,.26.4.29,1.2a8.62,8.62,0,0,1,0,1.61q-.58-.08-4.42-.33t-5.66-.25q-2.07,0-5.58.25t-4.34.33a3.08,3.08,0,0,1-.25-1.57q0-1.24.25-1.24a9.86,9.86,0,0,0,2.85-.62q1.86-.62,2.11-1.2a31.29,31.29,0,0,0,.5-6v-8.1q0-6.86-1.86-9.46t-5.91-2.6a7.91,7.91,0,0,0-4.54,1.4,3.9,3.9,0,0,0-2.07,3.14v14.21a30.35,30.35,0,0,0,.66,7.44q.16.58,2.19,1.2a11.67,11.67,0,0,0,2.77.62c.17,0,.26.4.29,1.2a4.68,4.68,0,0,1-.12,1.61q-.66-.08-4.34-.33t-5.58-.25q-2,0-5.74.25t-4.42.33a2.42,2.42,0,0,1-.33-1.57q0-1.24.33-1.24a11.52,11.52,0,0,0,3-.62q2-.62,2.19-1.2a26.56,26.56,0,0,0,.58-5.95V88.28a32.61,32.61,0,0,0-.41-5.62q-.41-1.32-4.3-1.32h-.74q-.5,0-.5-1.32t.5-1.32q2.56-.25,4.87-.66t3.84-.83q1.53-.41,2.64-.83t2.35-.83h.17a.89.89,0,0,1,.66.46,2.27,2.27,0,0,1,.41.87,26.62,26.62,0,0,0-1,7.77v16.69q0,.5.33.5c.05,0,.17-.08.33-.25A15.74,15.74,0,0,1,135.25,98,15.22,15.22,0,0,1,141.9,96.37Z"/><path class="cls-1" d="M181.3,96.37a18.21,18.21,0,0,1,13.26,5.41,17.7,17.7,0,0,1,5.49,13.09A18.84,18.84,0,1,1,181.3,96.37Zm-1.07,3.88a6.65,6.65,0,0,0-6,3.76,17.77,17.77,0,0,0-2.15,9,24.09,24.09,0,0,0,2.69,11.65q2.68,5,7.48,5a6.73,6.73,0,0,0,6.07-3.8,17.57,17.57,0,0,0,2.19-8.92,28.36,28.36,0,0,0-1.07-8,14.57,14.57,0,0,0-3.47-6.16A7.66,7.66,0,0,0,180.23,100.26Z"/><path class="cls-1" d="M218.89,121a33.88,33.88,0,0,0,.58,7.44q.16.58,2,1.28a9,9,0,0,0,2.52.7c.17,0,.26.39.29,1.16a4.5,4.5,0,0,1-.12,1.57l-3.1-.21-3.51-.21q-1.57-.08-3-.08-1.57,0-3.14.08l-3.47.21-3.14.21a2.33,2.33,0,0,1-.33-1.53c0-.8.11-1.2.33-1.2a8.83,8.83,0,0,0,2.77-.7q1.86-.7,2-1.28a27.4,27.4,0,0,0,.66-6.11V87.95a28.8,28.8,0,0,0-.5-5.62Q209.39,81,205.67,81h-.83q-.5,0-.5-1,0-1.32.5-1.32,2.56-.25,4.87-.66t3.84-.83q1.53-.41,2.64-.78T218,75.8l.58-.25h.17c.22,0,.45.17.7.5a2.53,2.53,0,0,1,.45.83,26.11,26.11,0,0,0-1,7.77Z"/><path class="cls-1" d="M246.24,96.37q5.12,0,7.68,2.69t2.56,9.21v16.28a3.77,3.77,0,0,0,.74,2.52,2.48,2.48,0,0,0,2,.87,5.15,5.15,0,0,0,2.81-1.07c.33.11.5.41.5.91a4.91,4.91,0,0,1-.5,2.48,20.44,20.44,0,0,1-3.3,2.07,8.61,8.61,0,0,1-4,1.07A6,6,0,0,1,251,132a6.77,6.77,0,0,1-2.4-3.06l-.62.54q-.54.46-1.49,1.12a24.47,24.47,0,0,1-2.15,1.32,13.18,13.18,0,0,1-2.81,1.12,12,12,0,0,1-3.26.45,9.86,9.86,0,0,1-6.73-2.27A7.85,7.85,0,0,1,229,125a7.61,7.61,0,0,1,.95-3.72,9.88,9.88,0,0,1,2.27-2.85,16.92,16.92,0,0,1,3.55-2.19,33.8,33.8,0,0,1,3.84-1.61q1.61-.54,4.13-1.28t3.51-1.07a1.3,1.3,0,0,0,.74-1.32v-4.54a7.09,7.09,0,0,0-1.32-4.54,4.31,4.31,0,0,0-3.55-1.65,5,5,0,0,0-3.88,1.53,6.18,6.18,0,0,0-1.4,4.34,2.68,2.68,0,0,1-1.24,2.44,5.14,5.14,0,0,1-2.81.78q-3.06,0-4.3-2,0-4,5.41-7.43A20.72,20.72,0,0,1,246.24,96.37Zm-3.72,31.72a6.4,6.4,0,0,0,3.84-1.16A3.27,3.27,0,0,0,248,124.3v-8.43q-.58.25-2.44.83t-2.85,1a22.54,22.54,0,0,0-2.31,1.16,5,5,0,0,0-1.94,1.82,4.55,4.55,0,0,0-.62,2.31,5.09,5.09,0,0,0,1.32,3.88A4.75,4.75,0,0,0,242.52,128.1Z"/><path class="cls-1" d="M290.44,96.37q4.54,0,6.77,2.73,0,7-4,7a4.91,4.91,0,0,1-3.22-1.65,5.17,5.17,0,0,0-3.55-1.65,4.43,4.43,0,0,0-4,2.6,11,11,0,0,0-1.45,5.41v10.33a34.58,34.58,0,0,0,.58,7.44q.16.58,2.19,1.2a11.67,11.67,0,0,0,2.77.62c.17,0,.26.4.29,1.2a8.62,8.62,0,0,1,0,1.61q-.66-.08-4.38-.33t-5.62-.25q-2,0-5.74.25t-4.42.33a2.42,2.42,0,0,1-.33-1.57q0-1.24.33-1.24a11.52,11.52,0,0,0,3-.62q2-.62,2.19-1.2a27,27,0,0,0,.58-6V109.1q0-3.88-1.32-5.29a4,4,0,0,0-1.86-1.24,9.41,9.41,0,0,0-2-.5c-.52-.05-.78-.14-.78-.25q0-2.4.41-2.48a117.19,117.19,0,0,0,13.3-2.48,5,5,0,0,1,.66-.17c.22,0,.41.19.58.58a2,2,0,0,1,.21,1q0,.37-.12,1.16t-.21,1.65a10.57,10.57,0,0,0-.12,1.12,15.17,15.17,0,0,1,4-4A9.05,9.05,0,0,1,290.44,96.37Z"/><path class="cls-1" d="M315.22,96.29a35.13,35.13,0,0,1,9.58,1.4,46.91,46.91,0,0,1,.91,9.25q0,.66-1.07.66-1.82,0-2-.66a10,10,0,0,0-2.44-4.92,6.46,6.46,0,0,0-5-2,5.93,5.93,0,0,0-3.76,1.07,3.67,3.67,0,0,0-1.36,3.06,4.81,4.81,0,0,0,.45,2.11A5.16,5.16,0,0,0,312,108a20.34,20.34,0,0,0,1.82,1.32q.78.5,2.35,1.32a5.38,5.38,0,0,0,.83.41l1.24.66,1.36.74,1.32.78a15.09,15.09,0,0,1,1.45,1l1.28,1a6.51,6.51,0,0,1,1.24,1.16q.37.5,1,1.28a5.33,5.33,0,0,1,.87,1.49,15.74,15.74,0,0,1,.45,1.57,7.68,7.68,0,0,1,.21,1.78,9.74,9.74,0,0,1-4,8.22,15.67,15.67,0,0,1-9.71,3,27.59,27.59,0,0,1-10.66-2.31,33,33,0,0,1-.83-4.58,40.35,40.35,0,0,1-.41-4.75,1.75,1.75,0,0,1,1.16-.41q1.9,0,2,.66a9.12,9.12,0,0,0,3.26,5.58A8.81,8.81,0,0,0,313.9,130a6,6,0,0,0,3.8-1.16,4,4,0,0,0,1.49-3.39,5.44,5.44,0,0,0-.21-1.53,4.05,4.05,0,0,0-.78-1.4l-.95-1.16a6,6,0,0,0-1.49-1.12q-1.12-.66-1.65-1L312,118.23q-1.53-.78-2.11-1.12a19.21,19.21,0,0,1-5.87-4.42A9.54,9.54,0,0,1,306,99,15.92,15.92,0,0,1,315.22,96.29Z"/><path class="cls-2" d="M7,15.47H9.91V17H2.28V15.47H5.13V6.27L2.85,7.66,2,6.23,5.67,4H7Z"/><path class="cls-2" d="M13.2,15.49a8.62,8.62,0,0,1-1.19-5,8.66,8.66,0,0,1,1.19-5,4,4,0,0,1,3.47-1.71,4,4,0,0,1,3.47,1.7,8.62,8.62,0,0,1,1.19,5,8.66,8.66,0,0,1-1.19,5,4,4,0,0,1-3.47,1.7A4,4,0,0,1,13.2,15.49Zm5.57-1.08a8.65,8.65,0,0,0,.67-3.91,8.53,8.53,0,0,0-.67-3.88A2.22,2.22,0,0,0,16.67,5.4a2.22,2.22,0,0,0-2.09,1.23,8.53,8.53,0,0,0-.67,3.88,8.66,8.66,0,0,0,.67,3.9,2.21,2.21,0,0,0,2.09,1.25A2.22,2.22,0,0,0,18.77,14.42Z"/></svg>