<?xml version="1.0" encoding="utf-8"?>
<!-- Generator: Adobe Illustrator 21.1.0, SVG Export Plug-In . SVG Version: 6.00 Build 0)  -->
<svg version="1.1" xmlns="http://www.w3.org/2000/svg" xmlns:xlink="http://www.w3.org/1999/xlink" x="0px" y="0px"
	 viewBox="0 0 892.6 79.6" style="enable-background:new 0 0 892.6 79.6;" xml:space="preserve">
<style type="text/css">
	.st0{fill:#F8EDF4;}
	.st1{fill:#FFFFFF;}
	.st2{fill:#FAEFE6;}
	.st3{fill:#1414EF;}
	.st4{fill:#FFFFFF;stroke:#1414EF;stroke-width:1.2;stroke-miterlimit:10;}
	.st5{fill:#EB7975;}
	.st6{fill:#606060;}
	.st7{fill:none;}
	.st8{fill:none;stroke:#1414EF;stroke-width:1.5;stroke-miterlimit:10;}
	.st9{fill:none;stroke:#1414EF;stroke-width:1.5;stroke-linejoin:bevel;stroke-miterlimit:10;}
	.st10{fill:#FFFFFF;stroke:#1414EF;stroke-width:1.2587;stroke-miterlimit:10;}
	.st11{fill:#FFFFFF;stroke:#1414EF;stroke-width:2;stroke-miterlimit:10;}
	.st12{fill:none;stroke:#1414EF;stroke-width:3.025;stroke-miterlimit:10;}
	.st13{fill:none;stroke:#1414EF;stroke-width:3.025;stroke-linejoin:bevel;stroke-miterlimit:10;}
	.st14{fill:none;stroke:#1414EF;stroke-width:15;stroke-miterlimit:10;}
	.st15{fill:#EB7975;stroke:#FAEFE6;stroke-width:1.4;stroke-miterlimit:10;}
</style>
<g id="Layer_1">
	<g>
		<path class="st3" d="M46.1,15.4c0-3.3-0.2-5.6-0.7-6.9c-0.2-0.4-1-0.9-2.3-1.3c-1.3-0.4-2.3-0.6-3-0.6c-0.2,0-0.3-0.4-0.3-1.2
			c0-0.9,0.1-1.4,0.2-1.5c0.3,0,1.8,0.1,4.6,0.2c2.8,0.2,4.9,0.2,6.4,0.2c0.4,0,4-0.2,10.6-0.5c0.2,0.5,0.2,0.9,0.2,1.3
			c0,0.9-0.1,1.4-0.3,1.4c-0.5,0-1.5,0.2-3,0.7c-1.5,0.4-2.3,0.9-2.4,1.2c-0.4,1.7-0.7,4.1-0.7,7.3v31.1c0,3,0.2,5.5,0.7,7.4
			c0.1,0.4,0.9,0.8,2.3,1.2c1.4,0.4,2.4,0.6,2.9,0.6c0.2,0,0.3,0.5,0.3,1.6c0,0.4-0.1,0.8-0.2,1.2c-6.6-0.3-10.1-0.5-10.5-0.5
			c-1.1,0-2.3,0-3.5,0.1c-1.2,0.1-2.5,0.1-4,0.2c-1.5,0.1-2.6,0.2-3.5,0.2c-0.2-0.2-0.3-0.6-0.3-1.2c0-1,0.1-1.6,0.3-1.6
			c0.7,0,1.7-0.2,3.1-0.6c1.4-0.4,2.2-0.8,2.4-1.2c0.4-1.7,0.7-4,0.7-6.9V15.4z"/>
		<path class="st3" d="M85,21.9c2.4,0,4.4,0.4,6,1.2c0.3,0,0.4-0.4,0.4-1.3v-7.8c0-2.1-0.2-4-0.5-5.6C90.7,7.4,89.3,7,86.7,7H86
			c-0.3,0-0.5-0.4-0.5-1.3c0-0.9,0.2-1.3,0.5-1.3c1.7-0.2,3.3-0.4,4.8-0.7c1.6-0.3,2.9-0.5,3.9-0.8c1-0.3,1.9-0.5,2.6-0.8
			c0.7-0.3,1.3-0.5,1.7-0.6c0.4-0.1,0.6-0.2,0.7-0.2h0.2c0.2,0,0.4,0.2,0.7,0.5c0.2,0.3,0.3,0.6,0.3,0.9c-0.6,2.1-0.8,4.7-0.8,7.8
			v36.3c0,2.5,0.2,4.6,0.5,6.1c0.1,0.4,0.3,0.7,0.8,0.9c0.5,0.2,1,0.4,1.6,0.4c0.6,0.1,1.1,0.1,1.6,0.1c0.5,0,0.8,0,0.8,0
			c0.1,0.1,0.2,0.4,0.2,1c0,1.1-0.2,1.7-0.5,1.7c-0.8,0.1-1.7,0.2-2.9,0.3c-1.2,0.2-2.3,0.3-3.5,0.5c-1.1,0.2-2.2,0.4-3.2,0.6
			c-1,0.2-2.2,0.4-3.4,0.7c-0.3,0-0.5-0.5-0.5-1.4v-1.4c0-0.2,0-0.3-0.1-0.3c-0.1-0.1-0.2-0.1-0.2,0c-2.6,2-5.5,3.1-8.6,3.1
			c-4.5,0-8.3-1.6-11.6-4.9c-3.3-3.3-5-7.4-5-12.4c0-5.5,1.9-10.1,5.7-14C75.4,23.8,79.9,21.9,85,21.9z M84.3,25.8
			c-2.9,0-5.1,1.2-6.6,3.7s-2.2,5.8-2.2,10c0,4.7,0.9,8.3,2.6,10.9c1.7,2.6,4.1,3.9,7.2,3.9c1.9,0,3.4-0.5,4.5-1.4
			c1.2-1,1.7-2.2,1.7-3.7V31.9c0-0.5-0.1-1.1-0.3-1.7c-0.2-0.6-0.5-1.3-1-1.9C89.7,27.6,89,27,88,26.5C87,26.1,85.7,25.8,84.3,25.8z
			"/>
		<path class="st3" d="M126.3,22c2.6,0,4.9,0.5,6.9,1.5c2,1,3.6,2.3,4.8,3.9c1.2,1.6,2,3.2,2.6,4.9c0.6,1.7,0.9,3.3,0.9,4.8
			c0,1.2-0.2,2-0.6,2.3c-0.4,0.3-1.3,0.5-2.5,0.5h-19.7c-0.4,0-0.6,0.2-0.6,0.5c0,2,0.4,3.9,1.1,5.8c0.7,1.9,1.9,3.5,3.7,4.9
			c1.7,1.4,3.8,2.1,6.2,2.1c0.8,0,1.6,0,2.4-0.1c0.8-0.1,1.5-0.2,2.1-0.4c0.7-0.2,1.2-0.4,1.7-0.5c0.5-0.2,1-0.4,1.5-0.7
			c0.5-0.3,0.9-0.6,1.1-0.7c0.2-0.1,0.8-0.5,1.7-1.1c0.1,0.1,0.2,0.2,0.4,0.5c0.2,0.3,0.2,0.6,0.2,0.8c0,0.6-0.2,1.1-0.5,1.6
			c-0.8,1.5-2.5,3-4.9,4.5c-2.4,1.5-5.2,2.2-8.2,2.2c-4.8,0-8.9-1.8-12.4-5.3s-5.2-7.9-5.2-12.9c0-5.6,1.6-10.1,4.8-13.5
			S121.4,22,126.3,22z M125.8,25.8c-1.3,0-2.5,0.4-3.6,1.2c-1,0.8-1.8,1.7-2.4,2.8c-0.6,1.1-1,2.1-1.2,3.1c-0.2,1-0.4,1.8-0.4,2.4
			c0,0.4,0.2,0.6,0.5,0.6h13.4c0.5,0,0.7-0.4,0.7-1.2c0-1.9-0.6-3.9-1.9-5.9C129.6,26.8,127.9,25.8,125.8,25.8z"/>
		<path class="st3" d="M172.4,22c7.1,0,10.7,5.6,10.7,16.9v7.8c0,3.4,0.2,5.8,0.6,7.4c0.1,0.4,0.9,0.8,2.3,1.2
			c1.4,0.4,2.4,0.6,2.9,0.6c0.2,0,0.3,0.4,0.3,1.2c0,0.8,0,1.3-0.1,1.6c-0.3-0.1-1.8-0.2-4.3-0.3c-2.6-0.2-4.5-0.2-5.7-0.2
			c-1.3,0-3.2,0.1-5.5,0.2c-2.3,0.2-3.8,0.3-4.3,0.3c-0.2-0.2-0.3-0.7-0.3-1.6s0.1-1.2,0.3-1.2c0.6,0,1.5-0.2,2.8-0.6s1.9-0.8,2-1.2
			c0.4-1.7,0.7-3.7,0.7-6v-7.8c0-4.6-0.6-7.8-1.9-9.6s-3.2-2.7-5.9-2.7c-1.8,0-3.3,0.5-4.6,1.4c-1.3,1-2,2-2,3.1v14.2
			c0,3.4,0.2,5.8,0.6,7.4c0.1,0.4,0.8,0.8,2.2,1.2c1.3,0.4,2.2,0.6,2.7,0.6c0.2,0,0.3,0.4,0.4,1.2c0,0.8,0,1.3-0.1,1.6
			c-0.4-0.1-1.9-0.2-4.3-0.3c-2.5-0.2-4.3-0.2-5.6-0.2c-1.3,0-3.2,0.1-5.7,0.2c-2.5,0.2-4,0.3-4.4,0.3c-0.2-0.2-0.3-0.7-0.3-1.6
			s0.1-1.2,0.3-1.2c0.7,0,1.7-0.2,3-0.6c1.3-0.4,2.1-0.8,2.2-1.2c0.4-1.7,0.6-3.7,0.6-6V34.7c0-2.6-0.4-4.3-1.3-5.3
			c-0.4-0.5-1.1-1-1.9-1.2c-0.8-0.3-1.5-0.4-2-0.5s-0.8-0.1-0.8-0.2c0-1.6,0.1-2.4,0.4-2.5c2.5-0.2,7-1,13.3-2.5
			c0.1-0.1,0.1-0.1,0.2-0.1c0.1,0,0.2,0,0.2,0c0.1,0,0.2,0,0.2,0c0.2,0,0.4,0.2,0.6,0.6c0.2,0.4,0.2,0.7,0.2,0.9
			c-0.2,1.5-0.3,2.5-0.3,3c0,0.2,0,0.4,0.1,0.4c0.1,0,0.2-0.1,0.4-0.2c1.3-1.3,3-2.5,5.1-3.5S170.3,22,172.4,22z"/>
		<path class="st3" d="M198.5,27.8h-5c-0.4,0-0.6-0.7-0.6-2.1c0-0.4,0-0.6,0.1-0.7c2.2-1,4.3-2.4,6.4-4.4c0.7-0.7,1.5-1.5,2.4-2.4
			c0.9-0.9,1.9-2.1,3-3.5c0.5,0,1.1,0.1,1.6,0.2c0.5,0.1,0.7,0.3,0.7,0.5v8.1c1.4,0,3.4,0,6,0c2.6,0,3.9,0,4.1,0
			c0.4,0,0.7,0.2,0.7,0.7c0,1.3-0.3,2.5-0.8,3.6H207v19.9c0,2.2,0.5,3.9,1.4,5c0.9,1.2,2.2,1.7,3.9,1.7c0.5,0,1.1-0.1,1.7-0.2
			c0.6-0.1,1.1-0.3,1.5-0.5c0.4-0.2,0.7-0.3,1.1-0.5c0.3-0.2,0.5-0.2,0.6-0.2c0.2-0.1,0.5,0.2,0.7,0.7c0.3,0.6,0.4,0.9,0.3,1.1
			c-0.3,0.8-1.5,1.7-3.5,2.7c-2,1-4,1.5-5.9,1.5c-2.9,0-5.3-0.9-7.3-2.8c-2-1.8-3-4.7-3-8.6V27.8z"/>
		<path class="st3" d="M237.3,46.8c0,3.4,0.2,5.8,0.7,7.4c0.1,0.4,0.9,0.8,2.2,1.2c1.4,0.4,2.3,0.6,2.8,0.6c0.2,0,0.3,0.4,0.4,1.2
			c0,0.8,0,1.3-0.1,1.6c-0.4-0.1-1.9-0.2-4.4-0.3s-4.4-0.2-5.7-0.2c-1.4,0-3.3,0.1-5.8,0.2c-2.5,0.2-4,0.3-4.3,0.3
			c-0.2-0.2-0.3-0.7-0.3-1.6s0.1-1.2,0.3-1.2c0.6,0,1.6-0.2,3-0.6c1.4-0.4,2.1-0.8,2.2-1.2c0.4-1.7,0.6-3.7,0.6-6V34.7
			c0-2.6-0.4-4.3-1.3-5.3c-0.5-0.5-1.1-1-1.9-1.2c-0.8-0.3-1.4-0.4-2-0.5c-0.6-0.1-0.8-0.1-0.8-0.2c0-1.6,0.2-2.4,0.5-2.5
			c1.5-0.1,3.8-0.4,6.7-1c2.9-0.5,5.1-1,6.5-1.5c0.1,0,0.3-0.1,0.7-0.2c0.3,0,0.5,0.2,0.7,0.6c0.2,0.4,0.2,0.7,0.2,0.9
			c-0.4,3.5-0.7,5.9-0.7,7.1V46.8z M228.7,12.2c-1-1-1.5-2.2-1.5-3.6c0-1.4,0.5-2.6,1.5-3.6s2.2-1.5,3.6-1.5c1.4,0,2.6,0.5,3.6,1.5
			c1,1,1.5,2.2,1.5,3.6c0,1.4-0.5,2.6-1.5,3.6c-1,1-2.2,1.5-3.6,1.5C230.9,13.8,229.7,13.2,228.7,12.2z"/>
		<path class="st3" d="M252.2,27.8h-5c-0.4,0-0.6-0.7-0.6-2.1c0-0.4,0-0.6,0.1-0.7c2.2-1,4.3-2.4,6.4-4.4c0.7-0.7,1.5-1.5,2.4-2.4
			c0.9-0.9,1.9-2.1,3-3.5c0.5,0,1.1,0.1,1.6,0.2c0.5,0.1,0.7,0.3,0.7,0.5v8.1c1.4,0,3.4,0,6,0c2.6,0,3.9,0,4.1,0
			c0.4,0,0.7,0.2,0.7,0.7c0,1.3-0.3,2.5-0.8,3.6h-9.9v19.9c0,2.2,0.5,3.9,1.4,5c0.9,1.2,2.2,1.7,3.9,1.7c0.5,0,1.1-0.1,1.7-0.2
			c0.6-0.1,1.1-0.3,1.5-0.5c0.4-0.2,0.7-0.3,1.1-0.5c0.3-0.2,0.5-0.2,0.6-0.2c0.2-0.1,0.5,0.2,0.7,0.7c0.3,0.6,0.4,0.9,0.3,1.1
			c-0.3,0.8-1.5,1.7-3.5,2.7c-2,1-4,1.5-5.9,1.5c-2.9,0-5.3-0.9-7.3-2.8c-2-1.8-3-4.7-3-8.6V27.8z"/>
		<path class="st3" d="M285.1,22.8c1.2,0,2.9-0.1,5.2-0.2c2.3-0.2,3.7-0.2,4.2-0.2c0.1,0.4,0.2,0.9,0.2,1.5c0,0.8-0.1,1.2-0.3,1.2
			c-0.6,0-1.4,0.2-2.6,0.6c-1.2,0.4-1.8,0.9-1.9,1.4v0.5c0.1,0.9,2.7,7.2,7.7,18.8c0.4-1,1.5-3.7,3.2-8.1c1.7-4.4,2.7-7,3-7.6
			c0.3-0.9,0.5-1.8,0.5-2.6c0-0.7-0.4-1.4-1.3-2c-0.9-0.6-2.2-1-4-1c-0.2,0-0.3-0.4-0.3-1.2c0-0.7,0.1-1.2,0.3-1.4
			c0.7,0,2,0.1,4,0.2c2,0.2,3.7,0.2,5,0.2c1.2,0,2.6-0.1,4.3-0.2c1.7-0.2,2.9-0.2,3.7-0.2c0.2,0.3,0.3,0.8,0.3,1.3
			c0,0.9-0.1,1.3-0.3,1.3c-0.8,0-1.9,0.3-3.3,0.8c-1.5,0.6-2.4,1.4-2.9,2.5l-15.1,36.5c-3.4,8-7.5,12.1-12.3,12.1
			c-1.4,0-2.5-0.4-3.3-1.2c-0.8-0.8-1.2-1.7-1.2-2.6c0-1.4,0.5-2.5,1.6-3.2c5.7,0,9.5-2.3,11.3-6.8c1.3-3.3,2.1-5.2,2.2-5.6
			L281,29.4c-0.4-1-0.8-1.6-1-1.9c-0.6-0.8-1.4-1.4-2.4-1.9s-2-0.6-2.7-0.6c-0.2,0-0.3-0.4-0.3-1.2c0-0.9,0.1-1.4,0.2-1.5
			c0.3,0,1.8,0.1,4.4,0.2C281.8,22.8,283.8,22.8,285.1,22.8z"/>
		<path class="st3" d="M366.9,4l17.3,43.3c0.8,2.2,1.7,4.2,2.5,6c0.3,0.8,1.2,1.5,2.6,2c1.4,0.5,2.5,0.7,3.1,0.7
			c0.2,0,0.3,0.5,0.3,1.5c0,0.7-0.1,1.1-0.2,1.2c-6.6-0.3-10.1-0.5-10.4-0.5c-0.4,0-4,0.2-10.7,0.5c-0.2-0.2-0.3-0.7-0.3-1.5
			c0-0.8,0.1-1.2,0.3-1.2c0.7,0,1.6-0.2,2.7-0.5c1.2-0.3,1.8-0.7,2.1-1.2c0.2-0.3,0.2-0.7,0.2-1.1c0-1.1-0.5-3-1.6-5.7l-2.9-7.7
			c-0.2-0.2-0.4-0.3-0.6-0.3c-1.8-0.1-4.1-0.2-7.1-0.2s-6.1,0.1-9.4,0.2c-0.3,0-0.5,0.1-0.5,0.3l-3.1,7.7c-1,2.9-1.6,4.7-1.6,5.4
			s0.3,1.3,0.9,1.7c0.5,0.3,1.4,0.6,2.6,0.9c1.2,0.3,2.1,0.4,2.5,0.4c0.2,0.1,0.2,0.4,0.2,1.2c0,0.7-0.1,1.2-0.2,1.6
			c-0.3,0-1.6-0.1-3.9-0.2s-4.2-0.2-5.6-0.2c-1.4,0-3.1,0.1-5.1,0.2c-2,0.1-3.3,0.2-4.2,0.3c-0.2-0.2-0.3-0.6-0.3-1.2
			c0-1,0.1-1.5,0.2-1.5c0.7,0,1.7-0.2,3.2-0.7c1.5-0.5,2.4-1,2.8-1.6c1-1.7,2.1-3.8,3.1-6.4l15.4-37.2c1.3-3.3,2.3-5.3,3.1-5.9
			c0.4-0.4,0.9-0.6,1.4-0.6C366.3,3.6,366.6,3.7,366.9,4z M357,34.7c1.9,0.2,3.9,0.2,5.9,0.2c1.9,0,4.2-0.1,6.8-0.2l0.2-0.3
			l-6.3-16.5l-6.8,16.5C356.8,34.6,356.9,34.7,357,34.7z"/>
		<path class="st3" d="M411.1,21.9c3.1,0,6.3,0.5,9.6,1.4c0.5,2.5,0.9,5.6,0.9,9.3c0,0.4-0.4,0.7-1.1,0.7c-1.2,0-1.9-0.2-2-0.7
			c-0.4-1.9-1.2-3.6-2.4-4.9c-1.2-1.3-2.9-2-5-2c-1.6,0-2.8,0.4-3.8,1.1c-0.9,0.7-1.4,1.7-1.4,3.1c0,0.8,0.2,1.5,0.5,2.1
			c0.3,0.6,0.8,1.2,1.5,1.8c0.7,0.6,1.3,1,1.8,1.3c0.5,0.3,1.3,0.8,2.4,1.3c0.4,0.2,0.7,0.4,0.8,0.4c0.1,0.1,0.5,0.3,1.2,0.7
			c0.7,0.4,1.2,0.6,1.4,0.7c0.2,0.1,0.6,0.4,1.3,0.8c0.7,0.4,1.2,0.7,1.4,1c0.3,0.2,0.7,0.6,1.3,1c0.6,0.4,1,0.8,1.2,1.2
			c0.2,0.3,0.6,0.8,1,1.3c0.4,0.5,0.7,1,0.9,1.5c0.2,0.5,0.3,1,0.5,1.6c0.1,0.6,0.2,1.2,0.2,1.8c0,3.5-1.3,6.2-4,8.2
			c-2.7,2-5.9,3-9.7,3c-3.4,0-7-0.8-10.7-2.3c-0.3-0.9-0.6-2.5-0.8-4.6c-0.3-2.1-0.4-3.7-0.4-4.8c0.3-0.3,0.7-0.4,1.2-0.4
			c1.3,0,1.9,0.2,2,0.7c0.4,2.3,1.5,4.2,3.3,5.6s3.6,2.1,5.7,2.1c1.5,0,2.8-0.4,3.8-1.2c1-0.8,1.5-1.9,1.5-3.4
			c0-0.5-0.1-1.1-0.2-1.5c-0.1-0.5-0.4-0.9-0.8-1.4c-0.4-0.5-0.7-0.9-1-1.2c-0.2-0.3-0.7-0.7-1.5-1.1c-0.7-0.4-1.3-0.8-1.7-1
			c-0.4-0.2-1-0.5-2.1-1.1c-1-0.5-1.7-0.9-2.1-1.1c-2.5-1.3-4.5-2.8-5.9-4.4c-1.4-1.6-2.1-3.6-2.1-5.9c0-3.4,1.3-5.9,4-7.8
			C404.5,22.8,407.6,21.9,411.1,21.9z"/>
		<path class="st3" d="M456.3,4.3c2.4,0,6.7-0.1,12.8-0.3c6.1-0.2,10.7-0.3,13.9-0.3c0.2,1.7,0.7,4,1.3,6.9c0.7,2.9,1,4.6,1.1,4.8
			c-0.3,0.3-0.9,0.4-1.7,0.4c-0.6,0-1-0.2-1.2-0.6c-1.8-4.9-5.3-7.4-10.6-7.4h-4.3c-4.1,0-6.2,0.4-6.3,1.1c-0.3,1.5-0.5,3.8-0.5,6.7
			v13c0,0.3,1.2,0.5,3.6,0.5h4.3c0.1,0,0.2,0,0.3,0c3.2,0,5.1-0.1,5.7-0.4c0.6-0.3,1.1-1.2,1.4-2.9c0.2-0.8,0.3-1.5,0.5-2.1
			c0.1-0.4,0.5-0.6,1.3-0.6c0.8,0,1.3,0.1,1.6,0.4v15.6c-0.2,0.2-0.7,0.3-1.6,0.3c-0.7,0-1.2-0.2-1.3-0.7c-0.4-1.5-0.7-2.6-1-3.3
			c-0.3-0.7-0.5-1.1-0.6-1.2c-0.1-0.1-0.3-0.2-0.7-0.5c-0.7-0.4-3.3-0.7-7.6-0.7c-4,0-5.9,0.2-5.9,0.7v12.8c0,3,0.2,5.3,0.7,6.7
			c0.3,0.7,2.1,1.1,5.6,1.1h3.1c4.3,0,7.6-0.6,9.8-1.7c0.9-0.4,1.9-1.4,3-2.9c1.1-1.5,2-3.2,2.6-5c0.1-0.3,0.4-0.5,1.2-0.5
			c1.2,0,2,0.2,2.3,0.5c-0.2,0.5-0.6,1.6-1.2,3.4c-0.6,1.8-1.1,3.1-1.4,4c-0.3,0.9-0.7,2-1.1,3.3c-0.4,1.3-0.6,2.4-0.7,3.2
			c-2.2,0-6.8-0.1-13.7-0.2c-6.9-0.2-11.8-0.2-14.6-0.1l-11,0.3c-0.2-0.2-0.2-0.6-0.2-1.3c0-0.9,0.1-1.4,0.2-1.4
			c0.7,0,1.8-0.2,3.1-0.5c1.4-0.4,2.2-0.8,2.4-1.3c0.4-1.2,0.6-3.7,0.6-7.5V15.5c0-3.3-0.2-5.6-0.6-6.8c-0.2-0.6-0.9-1.1-2.3-1.5
			c-1.4-0.4-2.5-0.6-3.3-0.6c-0.2,0-0.3-0.4-0.3-1.2c0-0.8,0.1-1.3,0.3-1.5C449,4.1,452.6,4.3,456.3,4.3z"/>
		<path class="st3" d="M523.9,27.2c-0.7-1.5-2.6-2.2-5.8-2.2c-0.2,0-0.2-0.4-0.2-1.2s0.1-1.3,0.2-1.5c0.8,0,2.1,0.1,4,0.2
			c1.9,0.2,3.5,0.2,4.7,0.2s2.9-0.1,4.8-0.2c2-0.2,3.3-0.2,4-0.2c0.2,0.2,0.2,0.7,0.2,1.3c0,0.9-0.2,1.3-0.5,1.3
			c-0.8,0-1.8,0.3-3.2,0.8c-1.4,0.5-2.3,1.3-2.8,2.4l-13.8,29.2c-0.2,0.4-0.6,0.9-1.1,1.4c-0.5,0.5-1,0.7-1.4,0.7
			c-0.6,0-0.9-0.2-1-0.5c-1.1-2.5-2.6-5.9-4.5-10.3c-1.9-4.4-3.5-8.1-4.9-11.1c-1.4-3-2.9-6.4-4.7-10.2c-0.7-1.5-2.5-2.3-5.4-2.3
			c-0.2,0-0.3-0.4-0.3-1.3c0-0.7,0.1-1.1,0.3-1.3c0.5,0,2,0.1,4.4,0.2c2.4,0.2,4.3,0.2,5.6,0.2c1.3,0,3.2-0.1,5.7-0.2
			c2.5-0.2,3.9-0.2,4.3-0.2c0.2,0.2,0.2,0.7,0.2,1.5c0,0.8-0.2,1.2-0.4,1.2c-0.7,0-1.7,0.2-2.9,0.5c-1.2,0.3-1.9,0.8-1.9,1.3
			c0,0.4,0.1,0.7,0.2,0.8l8.2,19l7.4-16.4C524.1,28.8,524.3,27.8,523.9,27.2z"/>
		<path class="st3" d="M558.3,22c5.2,0,9.6,1.8,13.3,5.4c3.7,3.6,5.5,8,5.5,13.1s-1.8,9.5-5.4,13.1c-3.6,3.6-8,5.5-13.3,5.5
			c-5.2,0-9.7-1.8-13.3-5.5c-3.6-3.6-5.5-8-5.5-13.1c0-5.2,1.8-9.6,5.4-13.1C548.7,23.8,553.1,22,558.3,22z M557.3,25.9
			c-2.6,0-4.6,1.3-6,3.8c-1.4,2.5-2.1,5.5-2.1,9c0,4.5,0.9,8.3,2.7,11.6c1.8,3.3,4.3,5,7.5,5c2.6,0,4.6-1.3,6.1-3.8
			c1.5-2.5,2.2-5.5,2.2-8.9c0-2.9-0.4-5.5-1.1-8c-0.7-2.5-1.9-4.5-3.5-6.2C561.4,26.7,559.5,25.9,557.3,25.9z"/>
		<path class="st3" d="M595.9,46.6c0,3.4,0.2,5.9,0.6,7.4c0.1,0.4,0.8,0.8,2,1.3c1.2,0.5,2.1,0.7,2.5,0.7c0.2,0,0.3,0.4,0.3,1.2
			c0,0.8,0,1.3-0.1,1.6c-0.8-0.1-1.8-0.1-3.1-0.2c-1.3-0.1-2.5-0.2-3.5-0.2c-1-0.1-2-0.1-3-0.1c-1,0-2.1,0-3.1,0.1
			c-1,0.1-2.2,0.1-3.5,0.2c-1.3,0.1-2.3,0.2-3.1,0.2c-0.2-0.2-0.3-0.7-0.3-1.5c0-0.8,0.1-1.2,0.3-1.2c0.6,0,1.5-0.2,2.8-0.7
			c1.2-0.5,1.9-0.9,2-1.3c0.4-1.9,0.7-4,0.7-6.1V13.6c0-2.1-0.2-4-0.5-5.6c-0.3-0.9-1.7-1.3-4.1-1.3h-0.8c-0.3,0-0.5-0.3-0.5-1
			c0-0.9,0.2-1.3,0.5-1.3c1.7-0.2,3.3-0.4,4.9-0.7c1.5-0.3,2.8-0.5,3.8-0.8c1-0.3,1.9-0.5,2.6-0.8c0.7-0.2,1.3-0.5,1.8-0.6l0.6-0.2
			h0.2c0.2,0,0.5,0.2,0.7,0.5c0.2,0.3,0.4,0.6,0.5,0.8c-0.7,2.1-1,4.7-1,7.8V46.6z"/>
		<path class="st3" d="M642,30.9v16.4c0,2.6,0.2,4.6,0.7,5.8c0.2,0.3,0.5,0.5,1,0.7c0.5,0.2,1,0.3,1.4,0.3c0.5,0.1,0.9,0.1,1.4,0.1
			s0.6,0,0.7,0.1c0.2,0.1,0.3,0.3,0.3,0.7c0,0.2-0.1,0.6-0.2,1.1c-0.1,0.5-0.3,0.8-0.5,0.8c-0.8,0-1.7,0.1-2.9,0.3
			c-1.2,0.2-2.3,0.4-3.4,0.6c-1.1,0.2-2.1,0.4-3.1,0.6c-1,0.2-2.1,0.4-3.3,0.7c-0.4,0-0.6-0.4-0.6-1.3v-3.6
			c-0.1-0.3-0.1-0.4-0.2-0.4c-1.3,1.4-2.9,2.6-5,3.7c-2.1,1.1-4.3,1.7-6.5,1.7c-1.9,0-3.5-0.5-4.9-1.4c-1.4-0.9-2.5-2.1-3.3-3.6
			c-0.8-1.5-1.4-3.1-1.7-4.8c-0.4-1.7-0.5-3.4-0.5-5.2v-9.3c0-2.6-0.4-4.3-1.3-5.3c-0.5-0.5-1.1-1-1.9-1.2c-0.8-0.3-1.4-0.4-2-0.5
			c-0.6-0.1-0.8-0.1-0.8-0.2c0-1.6,0.1-2.4,0.4-2.5c1.6-0.1,3.9-0.4,6.8-1c2.9-0.5,5.1-1,6.5-1.5c0.1,0,0.2,0,0.3-0.1
			c0.2-0.1,0.3-0.1,0.3-0.1c0.3,0,0.5,0.2,0.6,0.6c0.1,0.4,0.2,0.7,0.2,0.9c-0.5,3.7-0.7,6.2-0.7,7.3V41c0,4.3,0.6,7.4,1.8,9.3
			c1.2,1.9,3.2,2.8,5.9,2.8c1.8,0,3.2-0.5,4.5-1.6c1.2-1.1,1.8-2.1,1.8-3.1V34.7c0-2.6-0.4-4.3-1.3-5.3c-0.4-0.5-1.1-1-1.9-1.2
			c-0.8-0.3-1.5-0.4-2-0.5c-0.6-0.1-0.8-0.1-0.8-0.2c0-1.6,0.2-2.4,0.5-2.5c1.5-0.1,3.8-0.4,6.7-1c2.9-0.5,5.1-1,6.5-1.5
			c0.1,0,0.3-0.1,0.7-0.2c0.3,0,0.5,0.2,0.7,0.6c0.2,0.4,0.2,0.7,0.2,0.9C642.2,27.6,642,30,642,30.9z"/>
		<path class="st3" d="M656.6,27.8h-5c-0.4,0-0.6-0.7-0.6-2.1c0-0.4,0-0.6,0.1-0.7c2.2-1,4.3-2.4,6.4-4.4c0.7-0.7,1.5-1.5,2.4-2.4
			c0.9-0.9,1.9-2.1,3-3.5c0.5,0,1.1,0.1,1.6,0.2c0.5,0.1,0.7,0.3,0.7,0.5v8.1c1.4,0,3.4,0,6,0c2.6,0,3.9,0,4.1,0
			c0.4,0,0.7,0.2,0.7,0.7c0,1.3-0.3,2.5-0.8,3.6h-9.9v19.9c0,2.2,0.5,3.9,1.4,5c0.9,1.2,2.2,1.7,3.9,1.7c0.5,0,1.1-0.1,1.7-0.2
			c0.6-0.1,1.1-0.3,1.5-0.5c0.4-0.2,0.7-0.3,1.1-0.5c0.3-0.2,0.5-0.2,0.6-0.2c0.2-0.1,0.5,0.2,0.7,0.7c0.3,0.6,0.4,0.9,0.3,1.1
			c-0.3,0.8-1.5,1.7-3.5,2.7c-2,1-4,1.5-5.9,1.5c-2.9,0-5.3-0.9-7.3-2.8c-2-1.8-3-4.7-3-8.6V27.8z"/>
		<path class="st3" d="M695.4,46.8c0,3.4,0.2,5.8,0.7,7.4c0.1,0.4,0.9,0.8,2.2,1.2c1.4,0.4,2.3,0.6,2.8,0.6c0.2,0,0.3,0.4,0.4,1.2
			c0,0.8,0,1.3-0.1,1.6c-0.4-0.1-1.9-0.2-4.4-0.3c-2.6-0.2-4.4-0.2-5.7-0.2c-1.4,0-3.3,0.1-5.8,0.2c-2.5,0.2-4,0.3-4.3,0.3
			c-0.2-0.2-0.3-0.7-0.3-1.6s0.1-1.2,0.3-1.2c0.6,0,1.6-0.2,3-0.6c1.4-0.4,2.1-0.8,2.2-1.2c0.4-1.7,0.6-3.7,0.6-6V34.7
			c0-2.6-0.4-4.3-1.3-5.3c-0.5-0.5-1.1-1-1.9-1.2c-0.8-0.3-1.4-0.4-2-0.5c-0.6-0.1-0.8-0.1-0.8-0.2c0-1.6,0.2-2.4,0.5-2.5
			c1.5-0.1,3.8-0.4,6.7-1c2.9-0.5,5.1-1,6.5-1.5c0.1,0,0.3-0.1,0.7-0.2c0.3,0,0.5,0.2,0.7,0.6c0.2,0.4,0.2,0.7,0.2,0.9
			c-0.4,3.5-0.7,5.9-0.7,7.1V46.8z M686.8,12.2c-1-1-1.5-2.2-1.5-3.6c0-1.4,0.5-2.6,1.5-3.6c1-1,2.2-1.5,3.6-1.5
			c1.4,0,2.6,0.5,3.6,1.5s1.5,2.2,1.5,3.6c0,1.4-0.5,2.6-1.5,3.6c-1,1-2.2,1.5-3.6,1.5C689,13.8,687.8,13.2,686.8,12.2z"/>
		<path class="st3" d="M724.1,22c5.2,0,9.6,1.8,13.3,5.4c3.7,3.6,5.5,8,5.5,13.1s-1.8,9.5-5.4,13.1c-3.6,3.6-8,5.5-13.3,5.5
			c-5.2,0-9.7-1.8-13.3-5.5c-3.6-3.6-5.5-8-5.5-13.1c0-5.2,1.8-9.6,5.4-13.1C714.5,23.8,718.9,22,724.1,22z M723.1,25.9
			c-2.6,0-4.6,1.3-6,3.8c-1.4,2.5-2.1,5.5-2.1,9c0,4.5,0.9,8.3,2.7,11.6c1.8,3.3,4.3,5,7.5,5c2.6,0,4.6-1.3,6.1-3.8
			c1.5-2.5,2.2-5.5,2.2-8.9c0-2.9-0.4-5.5-1.1-8c-0.7-2.5-1.9-4.5-3.5-6.2C727.2,26.7,725.3,25.9,723.1,25.9z"/>
		<path class="st3" d="M774.4,22c7.1,0,10.7,5.6,10.7,16.9v7.8c0,3.4,0.2,5.8,0.6,7.4c0.1,0.4,0.9,0.8,2.3,1.2s2.4,0.6,2.9,0.6
			c0.2,0,0.3,0.4,0.3,1.2c0,0.8,0,1.3-0.1,1.6c-0.3-0.1-1.8-0.2-4.3-0.3s-4.5-0.2-5.7-0.2c-1.3,0-3.2,0.1-5.5,0.2
			c-2.3,0.2-3.8,0.3-4.3,0.3c-0.2-0.2-0.3-0.7-0.3-1.6s0.1-1.2,0.3-1.2c0.6,0,1.5-0.2,2.8-0.6c1.2-0.4,1.9-0.8,2-1.2
			c0.4-1.7,0.7-3.7,0.7-6v-7.8c0-4.6-0.6-7.8-1.9-9.6c-1.2-1.8-3.2-2.7-5.9-2.7c-1.8,0-3.3,0.5-4.6,1.4c-1.3,1-2,2-2,3.1v14.2
			c0,3.4,0.2,5.8,0.6,7.4c0.1,0.4,0.8,0.8,2.2,1.2c1.3,0.4,2.2,0.6,2.7,0.6c0.2,0,0.3,0.4,0.4,1.2c0,0.8,0,1.3-0.1,1.6
			c-0.4-0.1-1.9-0.2-4.3-0.3c-2.5-0.2-4.3-0.2-5.6-0.2c-1.3,0-3.2,0.1-5.7,0.2c-2.5,0.2-4,0.3-4.4,0.3c-0.2-0.2-0.3-0.7-0.3-1.6
			s0.1-1.2,0.3-1.2c0.7,0,1.7-0.2,3-0.6s2.1-0.8,2.2-1.2c0.4-1.7,0.6-3.7,0.6-6V34.7c0-2.6-0.4-4.3-1.3-5.3c-0.4-0.5-1.1-1-1.9-1.2
			c-0.8-0.3-1.5-0.4-2-0.5c-0.5-0.1-0.8-0.1-0.8-0.2c0-1.6,0.1-2.4,0.4-2.5c2.5-0.2,7-1,13.3-2.5c0.1-0.1,0.1-0.1,0.2-0.1
			c0.1,0,0.2,0,0.2,0c0.1,0,0.2,0,0.2,0c0.2,0,0.4,0.2,0.6,0.6c0.2,0.4,0.2,0.7,0.2,0.9c-0.2,1.5-0.3,2.5-0.3,3c0,0.2,0,0.4,0.1,0.4
			c0.1,0,0.2-0.1,0.4-0.2c1.3-1.3,3-2.5,5.1-3.5S772.2,22,774.4,22z"/>
	</g>
	<g>
		<path class="st3" d="M21.6,15.5V17h-1.9v2.7h-1.9V17H12v-1.4l6.2-8.9h1.6v8.8H21.6z M13.8,15.5h4V9.7L13.8,15.5z"/>
	</g>
</g>
<g id="Layer_2">
</g>
</svg>
