<svg id="Layer_1" data-name="Layer 1" xmlns="http://www.w3.org/2000/svg" viewBox="0 0 646.83 113.62"><defs><style>.cls-1{fill:#fff;}</style></defs><title>title</title><path class="cls-1" d="M0,54.24a4.69,4.69,0,0,1,1.36-4,6.5,6.5,0,0,1,4-2.07,10.45,10.45,0,0,1,1.46-.1q.63,0,1.77.14l1.57.17a26.56,26.56,0,0,1,1,4.49.32.32,0,0,1-.32.31q-.8.11-.89-.15a5.22,5.22,0,0,0-1.62-2.48,3.38,3.38,0,0,0-2.82-.94,2.74,2.74,0,0,0-2,1,2.91,2.91,0,0,0-.45,2.16,3.42,3.42,0,0,0,.21.83,2.1,2.1,0,0,0,.52.73l.58.57a3.5,3.5,0,0,0,.82.54L6,55.9q.21.12,1,.46a9,9,0,0,0,.9.37,10.93,10.93,0,0,0,1.07.5q.87.38,1.23.56t1,.63a4.3,4.3,0,0,1,1,.88,6.09,6.09,0,0,1,.67,1.13,5,5,0,0,1,.44,1.52A4.83,4.83,0,0,1,12,66.09a6.87,6.87,0,0,1-4.2,2.12,27.65,27.65,0,0,1-5.53-.11,25.9,25.9,0,0,1-.84-2.6,20.41,20.41,0,0,1-.5-2.08c0-.16.15-.26.44-.3q.77-.1.89.12a5.84,5.84,0,0,0,.57,1.11,8.61,8.61,0,0,0,1,1.25,3.91,3.91,0,0,0,1.54,1,4.18,4.18,0,0,0,2,.2,3.33,3.33,0,0,0,2.19-1.13,3.19,3.19,0,0,0,.58-2.6,2.57,2.57,0,0,0-.32-.95,3.42,3.42,0,0,0-.55-.74,4.35,4.35,0,0,0-.83-.61q-.54-.32-.89-.48l-1-.45-1-.4a2,2,0,0,0-.36-.19L3.77,58.6q-.48-.24-1.25-.72a5.89,5.89,0,0,1-1.19-.94,5.6,5.6,0,0,1-.8-1.15A4.49,4.49,0,0,1,0,54.24Z"/><path class="cls-1" d="M22.23,52.76a6,6,0,0,1,3.49.53,6.23,6.23,0,0,1,3.58,4.86,7,7,0,0,1-6,7.93,6.89,6.89,0,0,1-2.15-.13c-.08,0-.1.15-.06.43l.27,2A10.71,10.71,0,0,0,21.95,71q.06.23.84.35a4.54,4.54,0,0,0,1,.09q.09,0,.16.41a2.65,2.65,0,0,1,.06.55l-1.59.12q-1.38.09-2,.18t-2.07.36l-1.56.3a1,1,0,0,1-.16-.53c0-.29,0-.43,0-.44a4.12,4.12,0,0,0,1-.36c.46-.21.71-.4.75-.56a10.73,10.73,0,0,0-.1-2.15L16.87,58.06a2.88,2.88,0,0,0-.73-1.85,1.34,1.34,0,0,0-.71-.34,3.58,3.58,0,0,0-.73-.07c-.2,0-.3,0-.31,0q-.11-.85.06-.91a22.87,22.87,0,0,0,4.28-1.41l.54-.22c.08,0,.15.19.2.6a1.59,1.59,0,0,1,0,.36,5.94,5.94,0,0,1,1.22-.87A4.27,4.27,0,0,1,22.23,52.76Zm-.5,1.66a2.25,2.25,0,0,0-1.5.77,2,2,0,0,0-.4,1.58l.81,6.07a1.83,1.83,0,0,0,1,1.44,2.89,2.89,0,0,0,1.79.35,2.79,2.79,0,0,0,2.12-1.54,5.74,5.74,0,0,0,.47-3.6,7.67,7.67,0,0,0-1.47-3.84A2.92,2.92,0,0,0,21.73,54.42Z"/><path class="cls-1" d="M36.44,50.85a5.51,5.51,0,0,1,2.55.22,4.71,4.71,0,0,1,1.89,1.16,7,7,0,0,1,1.17,1.61,5.15,5.15,0,0,1,.55,1.68q.09.65-.11.84a1.69,1.69,0,0,1-.88.28l-7,.94c-.14,0-.2.09-.18.2a5.77,5.77,0,0,0,.66,2,4.1,4.1,0,0,0,1.54,1.57,3.5,3.5,0,0,0,2.32.44,8.1,8.1,0,0,0,.85-.16,4.38,4.38,0,0,0,.75-.25l.59-.27a2.54,2.54,0,0,0,.51-.34l.36-.3.54-.48a.49.49,0,0,1,.17.16.57.57,0,0,1,.13.28.91.91,0,0,1-.1.58,4.84,4.84,0,0,1-1.53,1.82A5.52,5.52,0,0,1,38.36,64a6,6,0,0,1-4.67-1.31,6.41,6.41,0,0,1-2.47-4.37,6.88,6.88,0,0,1,1.08-5.06A5.76,5.76,0,0,1,36.44,50.85Zm0,1.38a2.1,2.1,0,0,0-1.21.58,2.81,2.81,0,0,0-.72,1.12,5.68,5.68,0,0,0-.28,1.16,3.62,3.62,0,0,0,0,.89c0,.14.08.2.2.18l4.77-.63q.27,0,.21-.48a3.85,3.85,0,0,0-1-2A2.13,2.13,0,0,0,36.41,52.23Z"/><path class="cls-1" d="M49.73,49.08a3.66,3.66,0,0,1,2.87.59A4.76,4.76,0,0,1,54,52.84l.77,5.81a1.36,1.36,0,0,0,.38.86.89.89,0,0,0,.75.22,1.85,1.85,0,0,0,1-.52q.18,0,.22.3a1.76,1.76,0,0,1-.06.91,7.4,7.4,0,0,1-1.08.89,3.1,3.1,0,0,1-1.36.57,2.17,2.17,0,0,1-1.39-.33,2.43,2.43,0,0,1-1-1l-.2.22q-.17.19-.48.47a8.64,8.64,0,0,1-.7.57,4.76,4.76,0,0,1-.95.53,4.31,4.31,0,0,1-1.14.32,3.55,3.55,0,0,1-2.51-.49,2.82,2.82,0,0,1-1.22-2.1,2.74,2.74,0,0,1,.16-1.37,3.55,3.55,0,0,1,.67-1.12,6.09,6.09,0,0,1,1.16-.95,12.28,12.28,0,0,1,1.29-.76l1.41-.65,1.2-.55a.47.47,0,0,0,.2-.51l-.21-1.62A2.55,2.55,0,0,0,50.14,51a1.55,1.55,0,0,0-1.34-.42,1.8,1.8,0,0,0-1.31.73,2.23,2.23,0,0,0-.29,1.61,1,1,0,0,1-.33.93,1.84,1.84,0,0,1-1,.41,1.68,1.68,0,0,1-1.63-.5q-.19-1.42,1.58-2.91A7.46,7.46,0,0,1,49.73,49.08Zm.18,11.49a2.3,2.3,0,0,0,1.31-.6,1.18,1.18,0,0,0,.45-1l-.4-3q-.19.12-.83.41t-1,.49a8.16,8.16,0,0,0-.77.52,1.79,1.79,0,0,0-.61.74A1.64,1.64,0,0,0,48,59a1.83,1.83,0,0,0,.66,1.32A1.71,1.71,0,0,0,49.91,60.57Z"/><path class="cls-1" d="M69.75,48.43q-.54.43-1.7,1.57A21,21,0,0,0,66,52.38q1,.8,2.47,2.1t2.47,2.13a14.17,14.17,0,0,0,1.34,1.05,3.73,3.73,0,0,0,1.21.44,3.62,3.62,0,0,0,1,.1q.12,0,.18.49a1.76,1.76,0,0,1,0,.42l-3.47.31c-.37,0-.75.11-1.13.18l-1.26.24-1.09.22a.82.82,0,0,1-.19-.52c0-.27,0-.42.06-.43a2.15,2.15,0,0,0,.66-.22q.36-.18.35-.33s0-.06,0-.05l-4.94-4.23-.34.14.24,1.83a12,12,0,0,0,.59,2.62q.08.2.85.32a4.34,4.34,0,0,0,1.06.08c.06,0,.11.13.16.41a1.7,1.7,0,0,1,0,.58l-1.58.09q-1.37.09-2,.18t-2,.36L59,61.22a.87.87,0,0,1-.19-.54c0-.29,0-.45.06-.46a4.15,4.15,0,0,0,1-.36q.69-.32.72-.53a9.73,9.73,0,0,0-.08-2.18L59,44.92a11.61,11.61,0,0,0-.41-2q-.21-.45-1.59-.27l-.27,0c-.12,0-.2-.13-.24-.45s0-.48.11-.5q.9-.21,1.71-.47t1.33-.48q.53-.22.9-.42l.8-.41h.06a.33.33,0,0,1,.26.13.82.82,0,0,1,.19.29,9.59,9.59,0,0,0,0,2.82l1.31,9.84a2.71,2.71,0,0,0,.84-.44q.54-.64,1.19-1.34l.93-1q.29-.31.57-.66a2.61,2.61,0,0,0,.36-.54.7.7,0,0,0,.06-.37q0-.33-.72-.31a3,3,0,0,1-.68,0,1.31,1.31,0,0,1-.16-.5c0-.21,0-.32.07-.35l2.86-.38q.8-.11,3.11-.53a.47.47,0,0,1,.19.3,1.36,1.36,0,0,1,0,.44q0,.21-.11.22A3.9,3.9,0,0,0,69.75,48.43Z"/><path class="cls-1" d="M81.45,53.87A10.92,10.92,0,0,0,82,56.49q.09.2.85.32a4.38,4.38,0,0,0,1,.09c.08,0,.14.13.19.41a1.7,1.7,0,0,1,0,.58L82.55,58q-1.38.09-2,.18t-2.07.36l-1.53.32a.88.88,0,0,1-.19-.54c0-.29,0-.45.06-.46a4.32,4.32,0,0,0,1-.36q.71-.32.74-.53a9.73,9.73,0,0,0-.08-2.18L77.85,50a2.83,2.83,0,0,0-.72-1.82,1.64,1.64,0,0,0-.74-.35,3.13,3.13,0,0,0-.73-.08c-.2,0-.3,0-.31,0q-.11-.85.06-.91a22.78,22.78,0,0,0,2.34-.67A23.3,23.3,0,0,0,80,45.24l.23-.09c.1,0,.19,0,.26.18a.55.55,0,0,1,.1.32q0,1.92.1,2.57Zm-4.7-11.93a1.81,1.81,0,0,1-.7-1.23,1.84,1.84,0,0,1,3.65-.49,1.81,1.81,0,0,1-.36,1.37,1.83,1.83,0,0,1-2.59.34Z"/><path class="cls-1" d="M93.81,43.23q3.8-.5,4.6,5.54l.37,2.8a12.48,12.48,0,0,0,.56,2.63q.09.2.87.32a4.56,4.56,0,0,0,1,.09c.06,0,.11.13.16.41a1.7,1.7,0,0,1,0,.58q-.18,0-1.56.09t-2.06.18q-.71.09-1.95.35l-1.5.32a.87.87,0,0,1-.19-.54c0-.29,0-.45.06-.46a3.55,3.55,0,0,0,1-.35c.42-.21.64-.38.67-.52a8.56,8.56,0,0,0,0-2.18l-.37-2.8a6.46,6.46,0,0,0-1.12-3.33,2.39,2.39,0,0,0-2.24-.69,2.75,2.75,0,0,0-1.58.73,1.43,1.43,0,0,0-.56,1.2l.67,5.07a12.45,12.45,0,0,0,.56,2.63c.06.13.34.24.84.32a4.28,4.28,0,0,0,1,.09q.12,0,.19.41a1.69,1.69,0,0,1,0,.58l-1.56.09q-1.32.09-2,.18t-2,.36l-1.56.33a.87.87,0,0,1-.19-.54q-.06-.44.06-.46a4.17,4.17,0,0,0,1-.36q.69-.32.72-.53a9.78,9.78,0,0,0-.08-2.18L87,48.76a2.82,2.82,0,0,0-.72-1.82,1.43,1.43,0,0,0-.72-.35,3.43,3.43,0,0,0-.73-.08c-.19,0-.29,0-.29-.05q-.11-.85,0-.9A42.14,42.14,0,0,0,89.18,44l.07-.05.09,0h.07c.08,0,.16,0,.23.18a.92.92,0,0,1,.13.31,9.87,9.87,0,0,0,0,1.08.23.23,0,0,0,0,.14.44.44,0,0,0,.14-.11,6.58,6.58,0,0,1,1.65-1.48A5.21,5.21,0,0,1,93.81,43.23Z"/><path class="cls-1" d="M107.33,41.5a9.41,9.41,0,0,1,2.5.06,9.16,9.16,0,0,0,2.41.07l1.68-.22s.12.11.26.36a1.84,1.84,0,0,1,.23.57q.05.41-.12.44l-1.92.25c-.08,0-.11,0-.11.1s.12.26.37.73a4.25,4.25,0,0,1,.45,1.38,4.3,4.3,0,0,1-1,3.33,5.09,5.09,0,0,1-3.45,1.88,12.35,12.35,0,0,1-1.84.12,1.6,1.6,0,0,0-.58.63,1.26,1.26,0,0,0-.2.76.61.61,0,0,0,.35.46,2,2,0,0,0,.91.18q.6,0,1,0l1.19-.1.44-.06a10.5,10.5,0,0,1,4.42.24,2.34,2.34,0,0,1,1.66,2,4.67,4.67,0,0,1-1.61,4.11,8.12,8.12,0,0,1-4.77,2.28,7.73,7.73,0,0,1-3.87-.33,2.67,2.67,0,0,1-1.93-2.2,2.31,2.31,0,0,1,.62-1.76,4.91,4.91,0,0,1,1.66-1.36,3.38,3.38,0,0,1-1.53-.71,2.16,2.16,0,0,1-.85-1.46q-.17-1.27,1.83-2.91A3.93,3.93,0,0,1,103.71,49a4.37,4.37,0,0,1-1.06-2.3,4,4,0,0,1,1.09-3.5A5.91,5.91,0,0,1,107.33,41.5Zm-1.67,4.57a4.71,4.71,0,0,0,.91,2.35,1.85,1.85,0,0,0,1.78.77,1.77,1.77,0,0,0,1.49-1.05,3.93,3.93,0,0,0,.24-2.15,4.88,4.88,0,0,0-.93-2.46,1.9,1.9,0,0,0-1.84-.75,1.68,1.68,0,0,0-1.44,1.12A4.32,4.32,0,0,0,105.65,46.07Zm7.79,10.3q-.14-1-1.67-1.17a18.89,18.89,0,0,0-4,.19l-.14,0-.13.11q-.36.2-.56.33a2.57,2.57,0,0,0-.43.39,1.44,1.44,0,0,0-.33.57,1.73,1.73,0,0,0,0,.73,2.08,2.08,0,0,0,1.35,1.62,4.63,4.63,0,0,0,2.6.37,4.49,4.49,0,0,0,2.59-1.12A2.32,2.32,0,0,0,113.44,56.37Z"/><path class="cls-1" d="M141.28,39.21a.86.86,0,0,0-.32-.57,1.31,1.31,0,0,0-.65-.27,5.29,5.29,0,0,0-.7-.06,4.29,4.29,0,0,0-.61,0l-.12,0q-.12,0-.19-.42c0-.29,0-.47,0-.54q.38-.05,1.57-.12c.79,0,1.43-.1,1.9-.16s.93-.15,1.57-.3,1.09-.24,1.39-.27a1.88,1.88,0,0,1,.13.49q.06.44-.06.46a3.39,3.39,0,0,0-1.12.52,1.81,1.81,0,0,0-.9,1l-3,11a1.16,1.16,0,0,1-.34.48,1,1,0,0,1-.55.27.38.38,0,0,1-.41-.16L134.23,43l-2.13,8.11a1.58,1.58,0,0,1-.28.46.9.9,0,0,1-.6.32.44.44,0,0,1-.44-.15q-.88-1.44-2.1-3.52t-2.21-3.65q-1-1.58-2.25-3.42a1.37,1.37,0,0,0-.84-.49,2.88,2.88,0,0,0-1-.08q-.12,0-.18-.46c0-.27,0-.45.05-.52s.7-.06,1.5-.11,1.43-.1,1.88-.16,1.12-.18,2-.35l1.52-.29a1.63,1.63,0,0,1,.13.52c0,.26,0,.4,0,.42a3.5,3.5,0,0,0-1,.34q-.61.29-.55.7S129,42.82,131.56,47c.14-.58.31-1.24.5-2l.44-1.68c.1-.38.2-.77.3-1.16s.16-.69.2-.88a1.62,1.62,0,0,0,0-.38,2.16,2.16,0,0,0-.54-1.13,1.41,1.41,0,0,0-.71-.39,2.37,2.37,0,0,0-1.08,0c-.08,0-.14-.13-.17-.41s0-.46,0-.53.71-.06,1.47-.11,1.38-.09,1.85-.16,1.07-.17,1.9-.34l1.49-.29a1.44,1.44,0,0,1,.12.54c0,.29,0,.43,0,.44q-1.5.2-1.37,1.23A47.71,47.71,0,0,0,139.63,46q.31-1.3.78-3.06t.69-2.61A4,4,0,0,0,141.28,39.21Z"/><path class="cls-1" d="M153.25,44.34a11,11,0,0,0,.59,2.62q.09.2.85.32a4.38,4.38,0,0,0,1,.09q.12,0,.19.41a1.67,1.67,0,0,1,0,.58l-1.59.09q-1.38.09-2,.18t-2.07.36l-1.53.32a.88.88,0,0,1-.19-.54c0-.29,0-.45.06-.46a4.32,4.32,0,0,0,1-.36q.71-.32.74-.53a9.74,9.74,0,0,0-.08-2.18l-.64-4.8a2.82,2.82,0,0,0-.72-1.82,1.65,1.65,0,0,0-.74-.35,3.15,3.15,0,0,0-.73-.08c-.2,0-.3,0-.31,0q-.11-.85.06-.91a22.77,22.77,0,0,0,2.34-.67,23.21,23.21,0,0,0,2.26-.84l.23-.09c.1,0,.18,0,.26.17a.54.54,0,0,1,.1.32,25.42,25.42,0,0,0,.1,2.57Zm-4.7-11.93a1.81,1.81,0,0,1-.7-1.23,1.83,1.83,0,0,1,1.59-2.05,1.83,1.83,0,0,1,2.07,1.57,1.81,1.81,0,0,1-.36,1.37,1.83,1.83,0,0,1-2.59.34Z"/><path class="cls-1" d="M158,36.82l-1.8.24c-.14,0-.24-.23-.31-.74a.77.77,0,0,1,0-.27,8.33,8.33,0,0,0,2.06-1.86q.33-.43.73-1t.91-1.4a2.12,2.12,0,0,1,.57,0c.18,0,.28.07.29.13l.38,2.89,2.14-.27,1.46-.18c.16,0,.25.06.27.23a2.88,2.88,0,0,1-.12,1.34l-3.54.47.94,7.1a2.82,2.82,0,0,0,.74,1.73,1.7,1.7,0,0,0,1.47.44,2.8,2.8,0,0,0,.61-.16,3.17,3.17,0,0,0,.51-.23l.36-.23.2-.12c.08,0,.18,0,.3.23s.18.31.17.37c-.08.29-.46.67-1.13,1.12a4.68,4.68,0,0,1-2,.82,3.74,3.74,0,0,1-2.74-.64,4,4,0,0,1-1.48-2.91Z"/><path class="cls-1" d="M176.23,32.29q3.77-.5,4.54,5.3l.4,3a10.89,10.89,0,0,0,.59,2.62q.06.2.84.32a4.57,4.57,0,0,0,1,.09q.09,0,.16.41a3.11,3.11,0,0,1,.06.58l-1.59.09q-1.38.09-2,.18t-2,.35l-1.53.32a1.11,1.11,0,0,1-.16-.55c0-.29,0-.45,0-.45a3.55,3.55,0,0,0,1-.36q.63-.31.7-.53a11.38,11.38,0,0,0-.11-2.17l-.38-2.89a6.2,6.2,0,0,0-1.11-3.29,2.43,2.43,0,0,0-2.23-.65,2.85,2.85,0,0,0-1.55.72,1.4,1.4,0,0,0-.59,1.22l.67,5.07a10.86,10.86,0,0,0,.59,2.62c.06.13.34.24.84.32a4.23,4.23,0,0,0,1,.09c.06,0,.11.13.16.41a1.69,1.69,0,0,1,0,.58l-1.56.09q-1.32.08-2,.18t-2,.36l-1.56.33a.87.87,0,0,1-.19-.54q-.06-.44.06-.46a4.16,4.16,0,0,0,1-.36q.69-.32.72-.53a9.65,9.65,0,0,0-.08-2.15l-1.63-12.26a11.68,11.68,0,0,0-.41-2q-.21-.45-1.6-.27l-.26,0q-.18,0-.24-.45c0-.31,0-.48.11-.5q.9-.21,1.71-.47c.54-.17,1-.33,1.33-.48s.65-.29.9-.42l.8-.41h.06a.32.32,0,0,1,.26.13.85.85,0,0,1,.19.29,9.55,9.55,0,0,0,0,2.82l.79,6c0,.12.06.17.14.16s.06,0,.11-.1a5.66,5.66,0,0,1,1.64-1.52A5.48,5.48,0,0,1,176.23,32.29Z"/><path class="cls-1" d="M200,26.86l1.58,11.91a11.18,11.18,0,0,1-1.26,7.42,7.16,7.16,0,0,1-5.47,3.54,3.14,3.14,0,0,1-1,0,2,2,0,0,1-.69-.21,2.15,2.15,0,0,1-.56-1.27A1.46,1.46,0,0,1,193,47a2,2,0,0,1,1.23-.64,2,2,0,0,1,1.44.59q.82.67,1.24.62,1.09-.14,1.46-2.25a20.42,20.42,0,0,0-.13-5.85l-1.63-12.32a10.3,10.3,0,0,0-.53-2.39q-.14-.34-.88-.41a5.74,5.74,0,0,0-1.21,0c-.08,0-.14-.13-.18-.43a1.23,1.23,0,0,1,0-.54l1.28-.09,1.51-.13,1.27-.14,3.72-.67a1.5,1.5,0,0,1,.15.46c0,.33,0,.51-.05.52a4.63,4.63,0,0,0-1,.37c-.5.23-.76.41-.78.55A11,11,0,0,0,200,26.86Z"/><path class="cls-1" d="M211.08,27.67a6.56,6.56,0,0,1,5,1.3,6.38,6.38,0,0,1,2.58,4.41,6.73,6.73,0,0,1-13.35,1.77,6.4,6.4,0,0,1,1.31-4.94A6.51,6.51,0,0,1,211.08,27.67Zm-.2,1.44a2.39,2.39,0,0,0-2,1.63,6.38,6.38,0,0,0-.34,3.3,8.67,8.67,0,0,0,1.51,4,3,3,0,0,0,2.9,1.41,2.42,2.42,0,0,0,2-1.64,6.32,6.32,0,0,0,.36-3.29,10.19,10.19,0,0,0-.76-2.79,5.25,5.25,0,0,0-1.53-2A2.76,2.76,0,0,0,210.88,29.1Z"/><path class="cls-1" d="M224.46,25.86a12.62,12.62,0,0,1,3.48,0,16.65,16.65,0,0,1,.76,3.26c0,.16-.1.25-.35.29-.43.06-.68,0-.74-.14a3.61,3.61,0,0,0-1.1-1.64,2.33,2.33,0,0,0-1.88-.49,2.13,2.13,0,0,0-1.29.56A1.32,1.32,0,0,0,223,28.9a1.72,1.72,0,0,0,.26.73,1.84,1.84,0,0,0,.61.56,7.42,7.42,0,0,0,.71.39c.2.09.5.21.9.36l.31.11.47.18.52.2.51.22a5.63,5.63,0,0,1,.56.27l.5.29a2.36,2.36,0,0,1,.5.35l.41.41a1.94,1.94,0,0,1,.38.49,5.49,5.49,0,0,1,.24.54,2.69,2.69,0,0,1,.16.62,3.51,3.51,0,0,1-1,3.12,5.65,5.65,0,0,1-3.32,1.54,9.92,9.92,0,0,1-3.91-.32,11.86,11.86,0,0,1-.51-1.6,14.72,14.72,0,0,1-.37-1.67.64.64,0,0,1,.39-.2c.45-.06.7,0,.74.14a3.27,3.27,0,0,0,1.43,1.83,3.17,3.17,0,0,0,2.12.48,2.16,2.16,0,0,0,1.3-.59,1.45,1.45,0,0,0,.37-1.28,1.93,1.93,0,0,0-.15-.54,1.45,1.45,0,0,0-.35-.46l-.39-.37a2.16,2.16,0,0,0-.58-.33l-.63-.26-.79-.29-.8-.3a6.89,6.89,0,0,1-2.3-1.3,3.43,3.43,0,0,1,0-5A5.73,5.73,0,0,1,224.46,25.86Z"/><path class="cls-1" d="M236.79,24.25a5.53,5.53,0,0,1,2.55.22,4.72,4.72,0,0,1,1.89,1.16,6.9,6.9,0,0,1,1.17,1.61,5.1,5.1,0,0,1,.55,1.68q.09.65-.11.84A1.68,1.68,0,0,1,242,30l-7,.94c-.14,0-.2.09-.18.2a5.76,5.76,0,0,0,.66,2,4.1,4.1,0,0,0,1.54,1.57,3.5,3.5,0,0,0,2.32.44,7.93,7.93,0,0,0,.85-.16,4.38,4.38,0,0,0,.75-.25l.59-.27a2.5,2.5,0,0,0,.51-.34l.37-.3.54-.48a.46.46,0,0,1,.17.16.56.56,0,0,1,.13.28.91.91,0,0,1-.1.58,4.82,4.82,0,0,1-1.53,1.82,5.52,5.52,0,0,1-2.81,1.18A6,6,0,0,1,234,36.12a6.41,6.41,0,0,1-2.47-4.37,6.88,6.88,0,0,1,1.08-5.06A5.76,5.76,0,0,1,236.79,24.25Zm0,1.38a2.1,2.1,0,0,0-1.21.58,2.79,2.79,0,0,0-.72,1.12,5.69,5.69,0,0,0-.28,1.16,3.68,3.68,0,0,0,0,.89q0,.21.21.18l4.77-.63c.18,0,.25-.18.21-.48a3.85,3.85,0,0,0-1-2A2.13,2.13,0,0,0,236.77,25.64Z"/><path class="cls-1" d="M252,22.27a6,6,0,0,1,3.49.53,6.27,6.27,0,0,1,2.49,2.07A6.34,6.34,0,0,1,259,27.66a7,7,0,0,1-6,7.93,6.9,6.9,0,0,1-2.15-.13q-.12,0-.06.43l.27,2a10.68,10.68,0,0,0,.59,2.62q.06.23.84.35a4.52,4.52,0,0,0,1,.09q.09,0,.16.41a2.64,2.64,0,0,1,.06.55l-1.59.12q-1.38.09-2,.18t-2.07.36l-1.57.3a1.07,1.07,0,0,1-.16-.53c0-.29,0-.43,0-.44a4.14,4.14,0,0,0,1-.36q.69-.32.75-.56a10.88,10.88,0,0,0-.11-2.15L246.6,27.57a2.88,2.88,0,0,0-.73-1.85,1.34,1.34,0,0,0-.7-.34,3.62,3.62,0,0,0-.73-.07c-.2,0-.3,0-.31,0q-.11-.85.06-.91a22.85,22.85,0,0,0,4.28-1.41l.54-.22q.12,0,.2.6a1.67,1.67,0,0,1,0,.36,6,6,0,0,1,1.22-.87A4.27,4.27,0,0,1,252,22.27Zm-.5,1.66a2.25,2.25,0,0,0-1.5.77,2,2,0,0,0-.41,1.58l.81,6.07a1.83,1.83,0,0,0,1,1.44,2.89,2.89,0,0,0,1.79.35,2.79,2.79,0,0,0,2.12-1.54,5.74,5.74,0,0,0,.47-3.6,7.68,7.68,0,0,0-1.47-3.84A2.92,2.92,0,0,0,251.45,23.93Z"/><path class="cls-1" d="M269.75,19.88q3.77-.5,4.54,5.31l.4,3a10.9,10.9,0,0,0,.59,2.62c0,.14.32.24.84.32a4.57,4.57,0,0,0,1,.09c.06,0,.11.13.16.41a3.23,3.23,0,0,1,.06.58l-1.59.09q-1.38.09-2,.18t-2,.35l-1.53.32a1.1,1.1,0,0,1-.16-.55q-.06-.44,0-.45a3.56,3.56,0,0,0,1-.36q.63-.31.7-.53a11.38,11.38,0,0,0-.11-2.17l-.38-2.89A6.2,6.2,0,0,0,270.21,23a2.43,2.43,0,0,0-2.23-.65,2.85,2.85,0,0,0-1.56.72,1.4,1.4,0,0,0-.59,1.22l.67,5.07a10.85,10.85,0,0,0,.59,2.62q.08.2.84.32a4.23,4.23,0,0,0,1,.09c.06,0,.11.13.16.41a1.7,1.7,0,0,1,0,.58l-1.56.09q-1.32.08-2,.18t-2,.36l-1.56.33a.87.87,0,0,1-.19-.54q-.06-.44.06-.46a4.14,4.14,0,0,0,1-.36q.69-.32.72-.53a9.66,9.66,0,0,0-.08-2.15L261.92,18a11.68,11.68,0,0,0-.41-2c-.14-.3-.67-.39-1.6-.27l-.26,0q-.18,0-.24-.45c0-.31,0-.48.11-.5q.9-.21,1.71-.47t1.33-.48q.53-.22.9-.42l.8-.41h.06a.32.32,0,0,1,.26.13.81.81,0,0,1,.19.29,9.55,9.55,0,0,0,0,2.82l.79,6c0,.12.06.17.14.16s.06,0,.11-.1a5.66,5.66,0,0,1,1.64-1.52A5.47,5.47,0,0,1,269.75,19.88Z"/><path class="cls-1" d="M289.22,15l1.47,11.08a8.73,8.73,0,0,0,.58,2.32q.2.36,2.06.12l1.09-.15a7.94,7.94,0,0,0,3.42-1.08,3.41,3.41,0,0,0,.92-1.17,6.27,6.27,0,0,0,.68-1.92c0-.12.13-.2.39-.23a1.28,1.28,0,0,1,.85.07q-.05.28-.27,1.27l-.33,1.5q-.11.51-.22,1.24a8.47,8.47,0,0,0-.11,1.19q-1.18.16-4.89.56t-5.21.66l-3.9.64c-.07-.05-.12-.2-.15-.46s0-.5,0-.51a5,5,0,0,0,1.09-.34q.71-.29.79-.57a10.81,10.81,0,0,0-.15-2.71l-1.48-11.14a9.06,9.06,0,0,0-.57-2.47q-.15-.22-.89-.35a4,4,0,0,0-1.09-.08c-.08,0-.14-.13-.18-.43a1.21,1.21,0,0,1,0-.54l1.65-.13q1.5-.11,2.29-.21l3.75-.68a1.49,1.49,0,0,1,.15.46c0,.33,0,.51-.05.52a4.86,4.86,0,0,0-1,.38q-.76.34-.79.56A11,11,0,0,0,289.22,15Z"/><path class="cls-1" d="M307.47,14.87a5.52,5.52,0,0,1,2.55.22,4.71,4.71,0,0,1,1.89,1.16,6.89,6.89,0,0,1,1.17,1.61,5.1,5.1,0,0,1,.55,1.68q.09.65-.11.84a1.69,1.69,0,0,1-.88.28l-7,.94c-.14,0-.2.09-.18.2a5.76,5.76,0,0,0,.66,2,4.08,4.08,0,0,0,1.54,1.56,3.5,3.5,0,0,0,2.32.44,8,8,0,0,0,.85-.16,4.44,4.44,0,0,0,.75-.25l.59-.27a2.55,2.55,0,0,0,.51-.34l.36-.3.54-.48a.47.47,0,0,1,.17.16.57.57,0,0,1,.13.28.91.91,0,0,1-.1.58,4.82,4.82,0,0,1-1.53,1.82,5.52,5.52,0,0,1-2.81,1.18,6,6,0,0,1-4.67-1.31,6.41,6.41,0,0,1-2.47-4.37,6.88,6.88,0,0,1,1.08-5.06A5.76,5.76,0,0,1,307.47,14.87Zm0,1.38a2.1,2.1,0,0,0-1.21.58,2.79,2.79,0,0,0-.72,1.12,5.7,5.7,0,0,0-.28,1.16,3.63,3.63,0,0,0,0,.89c0,.14.09.2.2.18l4.77-.63q.27,0,.21-.48a3.84,3.84,0,0,0-1-2A2.13,2.13,0,0,0,307.44,16.26Z"/><path class="cls-1" d="M320.62,13.13a5.51,5.51,0,0,1,2.55.22,4.71,4.71,0,0,1,1.89,1.16,6.88,6.88,0,0,1,1.17,1.61,5.09,5.09,0,0,1,.55,1.68q.09.65-.11.84a1.69,1.69,0,0,1-.88.28l-7,.93c-.14,0-.2.09-.18.2a5.76,5.76,0,0,0,.66,2,4.08,4.08,0,0,0,1.54,1.56,3.5,3.5,0,0,0,2.32.44,8.11,8.11,0,0,0,.85-.16,4.39,4.39,0,0,0,.75-.25l.59-.27a2.53,2.53,0,0,0,.51-.34l.36-.3.54-.48a.47.47,0,0,1,.17.16.57.57,0,0,1,.13.28.91.91,0,0,1-.1.58,4.82,4.82,0,0,1-1.53,1.82,5.51,5.51,0,0,1-2.81,1.18A6,6,0,0,1,317.88,25a6.4,6.4,0,0,1-2.47-4.37,6.88,6.88,0,0,1,1.08-5.06A5.76,5.76,0,0,1,320.62,13.13Zm0,1.38a2.1,2.1,0,0,0-1.21.58,2.79,2.79,0,0,0-.72,1.12,5.63,5.63,0,0,0-.28,1.16,3.63,3.63,0,0,0,0,.89c0,.14.09.2.2.18l4.77-.63q.27,0,.21-.48a3.84,3.84,0,0,0-1-2A2.13,2.13,0,0,0,320.59,14.51Z"/><path class="cls-1" d="M340.38,10.51a3.65,3.65,0,0,1,2.87.59,4.76,4.76,0,0,1,1.35,3.16l.77,5.81a1.36,1.36,0,0,0,.38.86.89.89,0,0,0,.75.22,1.85,1.85,0,0,0,1-.52c.12,0,.2.12.22.3a1.77,1.77,0,0,1-.06.91,7.37,7.37,0,0,1-1.08.89,3.11,3.11,0,0,1-1.37.57,2.17,2.17,0,0,1-1.39-.33,2.43,2.43,0,0,1-1-1l-.2.22q-.17.19-.48.47a8.66,8.66,0,0,1-.7.57,4.73,4.73,0,0,1-.95.53,4.3,4.3,0,0,1-1.14.32,3.55,3.55,0,0,1-2.51-.49,2.83,2.83,0,0,1-1.22-2.1,2.75,2.75,0,0,1,.16-1.37,3.57,3.57,0,0,1,.68-1.12,6.11,6.11,0,0,1,1.16-.95,12.1,12.1,0,0,1,1.29-.76l1.41-.65,1.2-.55a.47.47,0,0,0,.2-.51L341.47,14a2.55,2.55,0,0,0-.69-1.56,1.55,1.55,0,0,0-1.34-.42,1.8,1.8,0,0,0-1.31.73,2.22,2.22,0,0,0-.3,1.61,1,1,0,0,1-.33.93,1.84,1.84,0,0,1-1,.41,1.68,1.68,0,0,1-1.63-.5q-.19-1.41,1.58-2.91A7.45,7.45,0,0,1,340.38,10.51ZM340.55,22a2.29,2.29,0,0,0,1.31-.59,1.17,1.17,0,0,0,.45-1l-.4-3q-.19.12-.83.41c-.42.2-.75.36-1,.49a8,8,0,0,0-.77.52,1.8,1.8,0,0,0-.61.74,1.65,1.65,0,0,0-.11.85,1.84,1.84,0,0,0,.66,1.32A1.71,1.71,0,0,0,340.55,22Z"/><path class="cls-1" d="M355.33,8.52a6,6,0,0,1,3.41.49,6.24,6.24,0,0,1,2.52,2.06,6.34,6.34,0,0,1,1.14,2.86A6.79,6.79,0,0,1,361,19.15a6.56,6.56,0,0,1-4.46,2.68,9.36,9.36,0,0,1-2.18.06,6.49,6.49,0,0,0-1.41,0,2.25,2.25,0,0,0-.74.31,2.91,2.91,0,0,1-.56.28,1.41,1.41,0,0,1-.45-.12c-.24-.09-.37-.17-.38-.25s0-.24,0-.54,0-.73,0-1.29a17,17,0,0,0-.15-1.81l-1.6-12a10.41,10.41,0,0,0-.44-2c-.14-.3-.67-.39-1.59-.27l-.27,0q-.18,0-.24-.45c0-.31,0-.48.12-.5.6-.14,1.17-.29,1.71-.47s1-.33,1.33-.48.65-.29.9-.42l.8-.41h.06a.32.32,0,0,1,.26.13.81.81,0,0,1,.19.29,10.36,10.36,0,0,0,0,2.81l.63,4.71v0l0,.13a.89.89,0,0,0,0,.13q0,.09.07.08l.1,0A5.43,5.43,0,0,1,353.88,9,4.27,4.27,0,0,1,355.33,8.52Zm-.44,1.68a2.3,2.3,0,0,0-1.52.77,1.75,1.75,0,0,0-.44,1.41l.83,6.25a1.78,1.78,0,0,0,1,1.46,3.23,3.23,0,0,0,1.91.29,2.53,2.53,0,0,0,2.13-1.69,6.81,6.81,0,0,0,.34-3.46,7.64,7.64,0,0,0-1.45-3.89A2.91,2.91,0,0,0,354.89,10.2Z"/><path class="cls-1" d="M370.25,6.54a6.56,6.56,0,0,1,5,1.3,6.38,6.38,0,0,1,2.58,4.41,6.48,6.48,0,0,1-1.31,4.94,6.74,6.74,0,0,1-12-3.17,6.4,6.4,0,0,1,1.31-4.94A6.51,6.51,0,0,1,370.25,6.54ZM370,8a2.39,2.39,0,0,0-2,1.63,6.38,6.38,0,0,0-.34,3.3,8.67,8.67,0,0,0,1.51,4,3,3,0,0,0,2.9,1.41,2.42,2.42,0,0,0,2-1.64,6.32,6.32,0,0,0,.36-3.29,10.19,10.19,0,0,0-.76-2.79,5.25,5.25,0,0,0-1.53-2A2.76,2.76,0,0,0,370,8Z"/><path class="cls-1" d="M392.13,6.88l.77,5.83a6.55,6.55,0,0,0,.51,2,.61.61,0,0,0,.37.19,2.27,2.27,0,0,0,.53,0l.49,0a.55.55,0,0,1,.25,0c.08,0,.13.09.15.25a2.49,2.49,0,0,1,0,.41c0,.19-.06.29-.14.3a6.89,6.89,0,0,0-1,.24l-1.2.37-1.09.37-1.15.39q-.21,0-.27-.44l-.17-1.3c0-.1-.07-.14-.11-.14A6.67,6.67,0,0,1,388.43,17a5,5,0,0,1-2.25.9,3.11,3.11,0,0,1-1.82-.27A3.58,3.58,0,0,1,383,16.45a6.36,6.36,0,0,1-.85-1.63,9,9,0,0,1-.44-1.83l-.44-3.3a2.83,2.83,0,0,0-.72-1.82,1.66,1.66,0,0,0-.74-.35,3.14,3.14,0,0,0-.73-.08c-.2,0-.3,0-.31,0q-.11-.85,0-.9a22.42,22.42,0,0,0,2.37-.67A23.2,23.2,0,0,0,383.45,5l.11,0,.11,0q.15,0,.25.18a1.09,1.09,0,0,1,.12.31q0,2,.08,2.63l.47,3.54a6.37,6.37,0,0,0,1.09,3.21,2.62,2.62,0,0,0,3.74-.06,1.58,1.58,0,0,0,.5-1.19l-.65-4.86a2.83,2.83,0,0,0-.72-1.82,1.43,1.43,0,0,0-.72-.35,3.4,3.4,0,0,0-.75-.08q-.3,0-.31,0-.11-.85.06-.91a22.77,22.77,0,0,0,2.34-.67,23.2,23.2,0,0,0,2.26-.84l.23-.09c.1,0,.19,0,.26.17a.55.55,0,0,1,.1.32Q392.06,6.35,392.13,6.88Z"/><path class="cls-1" d="M397.47,5l-1.8.24q-.21,0-.31-.74a.73.73,0,0,1,0-.27,8.33,8.33,0,0,0,2.06-1.86q.33-.43.72-1t.91-1.4a2.1,2.1,0,0,1,.57,0c.18,0,.28.07.29.13L400.3,3l2.14-.27,1.46-.18c.16,0,.25.06.27.23A2.88,2.88,0,0,1,404,4.16l-3.54.47.94,7.1a2.82,2.82,0,0,0,.74,1.73,1.7,1.7,0,0,0,1.47.44,2.85,2.85,0,0,0,.61-.16,3.24,3.24,0,0,0,.51-.23l.36-.23.2-.12q.11,0,.3.23c.12.18.18.31.17.37q-.12.44-1.13,1.12a4.68,4.68,0,0,1-2,.83,3.74,3.74,0,0,1-2.74-.64,4,4,0,0,1-1.48-2.91Z"/><path class="cls-1" d="M109.73,81.75a3.65,3.65,0,0,1,2.88.53A4.76,4.76,0,0,1,114,85.41l.9,5.79a1.36,1.36,0,0,0,.4.85.89.89,0,0,0,.75.2,1.85,1.85,0,0,0,.94-.54c.12,0,.2.12.23.3a1.76,1.76,0,0,1,0,.91,7.26,7.26,0,0,1-1.06.92,3.1,3.1,0,0,1-1.35.6,2.17,2.17,0,0,1-1.4-.29,2.44,2.44,0,0,1-1-1l-.19.23q-.17.19-.47.48a8.83,8.83,0,0,1-.69.59,4.79,4.79,0,0,1-.94.55,4.3,4.3,0,0,1-1.14.34,3.55,3.55,0,0,1-2.52-.44,2.82,2.82,0,0,1-1.27-2.07,2.75,2.75,0,0,1,.13-1.37,3.57,3.57,0,0,1,.65-1.14,6.08,6.08,0,0,1,1.14-1,12.13,12.13,0,0,1,1.28-.79l1.4-.68,1.19-.58a.47.47,0,0,0,.19-.51l-.25-1.62a2.56,2.56,0,0,0-.72-1.54,1.55,1.55,0,0,0-1.36-.39,1.8,1.8,0,0,0-1.3.76,2.23,2.23,0,0,0-.26,1.62,1,1,0,0,1-.31.94,1.85,1.85,0,0,1-1,.43,1.68,1.68,0,0,1-1.64-.47q-.22-1.41,1.51-2.94A7.45,7.45,0,0,1,109.73,81.75Zm.43,11.49a2.3,2.3,0,0,0,1.3-.62,1.17,1.17,0,0,0,.43-1l-.47-3c-.13.08-.4.22-.82.43s-.74.38-1,.51a8.25,8.25,0,0,0-.76.54,1.79,1.79,0,0,0-.59.75,1.63,1.63,0,0,0-.09.86,1.83,1.83,0,0,0,.69,1.31A1.71,1.71,0,0,0,110.17,93.23Z"/><path class="cls-1" d="M124.63,79.43a6,6,0,0,1,3.42.42,6.23,6.23,0,0,1,2.57,2,6.35,6.35,0,0,1,1.21,2.84,6.79,6.79,0,0,1-1.28,5.24,6.56,6.56,0,0,1-4.4,2.77,9.31,9.31,0,0,1-2.18.11,6.51,6.51,0,0,0-1.41,0,2.28,2.28,0,0,0-.73.32,3,3,0,0,1-.55.3,1.45,1.45,0,0,1-.45-.11c-.24-.08-.37-.16-.38-.24s0-.24,0-.54,0-.73,0-1.29a16.79,16.79,0,0,0-.19-1.81l-1.86-12a10.49,10.49,0,0,0-.49-2q-.22-.45-1.6-.23l-.26,0q-.18,0-.25-.44c0-.31,0-.48.1-.5q.9-.23,1.7-.5t1.32-.51q.52-.23.89-.44l.79-.42h.06a.32.32,0,0,1,.26.13.84.84,0,0,1,.2.29,10.38,10.38,0,0,0,.11,2.81l.73,4.7v0l0,.13a1,1,0,0,0,0,.13c0,.06,0,.08.07.08l.1,0a5.42,5.42,0,0,1,1.1-.77A4.27,4.27,0,0,1,124.63,79.43Zm-.4,1.69a2.3,2.3,0,0,0-1.5.8,1.75,1.75,0,0,0-.41,1.42l1,6.23a1.78,1.78,0,0,0,1,1.44,3.22,3.22,0,0,0,1.92.24,2.53,2.53,0,0,0,2.09-1.74,6.81,6.81,0,0,0,.26-3.47A7.63,7.63,0,0,0,127,82.18,2.91,2.91,0,0,0,124.23,81.12Z"/><path class="cls-1" d="M139.5,77.12a6.56,6.56,0,0,1,5,1.19,6.37,6.37,0,0,1,2.68,4.35,6.73,6.73,0,0,1-13.31,2.07,6.4,6.4,0,0,1,1.2-5A6.52,6.52,0,0,1,139.5,77.12Zm-.17,1.44a2.39,2.39,0,0,0-1.94,1.67,6.39,6.39,0,0,0-.27,3.31,8.66,8.66,0,0,0,1.6,4,3,3,0,0,0,2.93,1.35,2.42,2.42,0,0,0,1.95-1.69,6.31,6.31,0,0,0,.29-3.29,10.17,10.17,0,0,0-.82-2.78,5.23,5.23,0,0,0-1.57-2A2.75,2.75,0,0,0,139.34,78.56Z"/><path class="cls-1" d="M161.39,77l.91,5.82a6.58,6.58,0,0,0,.55,2,.62.62,0,0,0,.38.18,2.3,2.3,0,0,0,.53,0l.49,0a.56.56,0,0,1,.25,0c.08,0,.13.09.16.25a2.35,2.35,0,0,1,0,.41q0,.29-.13.31a6.78,6.78,0,0,0-1,.26l-1.19.4-1.08.39-1.14.42q-.21,0-.28-.44l-.2-1.29c0-.09-.07-.14-.11-.13a6.64,6.64,0,0,1-1.59,1.6,5,5,0,0,1-2.23.95,3.12,3.12,0,0,1-1.83-.23,3.58,3.58,0,0,1-1.38-1.11,6.4,6.4,0,0,1-.88-1.61,9,9,0,0,1-.48-1.82L150.61,80a2.83,2.83,0,0,0-.76-1.81,1.64,1.64,0,0,0-.74-.34,3.1,3.1,0,0,0-.73-.07c-.2,0-.3,0-.31,0q-.13-.85,0-.9a22.36,22.36,0,0,0,2.35-.73,23.51,23.51,0,0,0,2.24-.89l.11,0,.11,0c.1,0,.18,0,.25.17a1.09,1.09,0,0,1,.12.31,26,26,0,0,0,.14,2.63l.55,3.52A6.37,6.37,0,0,0,155.11,85a2.63,2.63,0,0,0,3.74-.15,1.59,1.59,0,0,0,.48-1.2l-.75-4.85a2.83,2.83,0,0,0-.76-1.81,1.43,1.43,0,0,0-.73-.34,3.38,3.38,0,0,0-.75-.06c-.2,0-.3,0-.31,0q-.13-.85,0-.91a22.78,22.78,0,0,0,2.32-.72,23.24,23.24,0,0,0,2.24-.89l.23-.1c.1,0,.19,0,.27.17a.55.55,0,0,1,.11.31Q161.31,76.43,161.39,77Z"/><path class="cls-1" d="M166.69,75l-1.79.28c-.14,0-.25-.22-.32-.73a.76.76,0,0,1,0-.27,8.32,8.32,0,0,0,2-1.91l.7-1q.38-.56.88-1.42a2.11,2.11,0,0,1,.57,0c.18,0,.28.06.29.12l.45,2.88,2.13-.32,1.46-.21c.16,0,.25.05.28.23a2.9,2.9,0,0,1-.09,1.34l-3.53.55,1.1,7.08a2.82,2.82,0,0,0,.78,1.71,1.7,1.7,0,0,0,1.48.4,2.79,2.79,0,0,0,.61-.17,3.17,3.17,0,0,0,.5-.24l.35-.24.19-.12q.11,0,.31.22c.13.18.19.3.18.36q-.11.44-1.1,1.15a4.67,4.67,0,0,1-2,.87,3.75,3.75,0,0,1-2.75-.58,4,4,0,0,1-1.54-2.87Z"/><path class="cls-1" d="M188.16,78.52a12.28,12.28,0,0,0,.62,2.61q.09.2.79.34a3.23,3.23,0,0,0,.93.11c.06,0,.11.12.17.4a1.59,1.59,0,0,1,0,.56l-1.11.1-1.26.12-1.06.14q-.56.09-1.11.2l-1.22.27-1.1.25a.84.84,0,0,1-.2-.52q-.07-.43.05-.44a3.18,3.18,0,0,0,.95-.4q.62-.35.65-.57a9.79,9.79,0,0,0-.1-2.21l-1.9-12.22a10.39,10.39,0,0,0-.49-2q-.22-.45-1.54-.24l-.29,0c-.12,0-.2-.09-.23-.32s0-.48.1-.5c.6-.15,1.16-.32,1.7-.5s1-.35,1.32-.51.65-.3.9-.42l.6-.32.19-.12h.06a.36.36,0,0,1,.28.14.88.88,0,0,1,.21.27,9.43,9.43,0,0,0,.08,2.82Z"/><path class="cls-1" d="M196.67,68.22a5.51,5.51,0,0,1,2.55.16,4.71,4.71,0,0,1,1.92,1.12,6.92,6.92,0,0,1,1.21,1.59,5.13,5.13,0,0,1,.59,1.67q.1.65-.09.84a1.69,1.69,0,0,1-.87.3L195,75c-.14,0-.2.09-.18.21a5.77,5.77,0,0,0,.7,2,4.09,4.09,0,0,0,1.58,1.53,3.5,3.5,0,0,0,2.33.39,8,8,0,0,0,.84-.18,4.44,4.44,0,0,0,.74-.27l.59-.29a2.5,2.5,0,0,0,.5-.35l.36-.31.52-.49a.47.47,0,0,1,.17.15.57.57,0,0,1,.13.28.91.91,0,0,1-.09.59,4.85,4.85,0,0,1-1.49,1.86,5.51,5.51,0,0,1-2.79,1.25,6,6,0,0,1-4.7-1.21,6.41,6.41,0,0,1-2.57-4.31,6.88,6.88,0,0,1,1-5.08A5.76,5.76,0,0,1,196.67,68.22Zm0,1.38a2.1,2.1,0,0,0-1.2.61,2.8,2.8,0,0,0-.7,1.13,5.73,5.73,0,0,0-.26,1.17,3.68,3.68,0,0,0,0,.89q0,.21.21.18l4.76-.74q.26,0,.2-.48a3.85,3.85,0,0,0-1-2A2.13,2.13,0,0,0,196.68,69.61Z"/><path class="cls-1" d="M205.79,68.91l-1.79.28q-.21,0-.33-.73a.73.73,0,0,1,0-.27,8.34,8.34,0,0,0,2-1.91q.32-.44.7-1c.25-.37.55-.84.88-1.42a2.11,2.11,0,0,1,.57,0c.18,0,.28.06.29.12l.45,2.88,2.13-.32,1.46-.21c.16,0,.25.05.28.23a2.88,2.88,0,0,1-.09,1.34l-3.52.55,1.1,7.08a2.82,2.82,0,0,0,.78,1.71,1.7,1.7,0,0,0,1.48.4,2.81,2.81,0,0,0,.61-.17,3.2,3.2,0,0,0,.5-.24l.35-.24.19-.12c.07,0,.18,0,.31.22s.19.3.18.36q-.11.44-1.1,1.15a4.68,4.68,0,0,1-2,.87,3.75,3.75,0,0,1-2.75-.58A4,4,0,0,1,206.89,76Z"/><path class="cls-1" d="M216.37,67.27l-1.79.28c-.14,0-.25-.22-.33-.73a.73.73,0,0,1,0-.27,8.34,8.34,0,0,0,2-1.91c.21-.29.45-.63.7-1s.54-.84.88-1.42a2.14,2.14,0,0,1,.57,0c.18,0,.28.06.29.12l.45,2.88,2.13-.32,1.46-.21c.16,0,.25.05.28.23a2.9,2.9,0,0,1-.09,1.34l-3.53.55,1.1,7.08a2.82,2.82,0,0,0,.78,1.71,1.7,1.7,0,0,0,1.48.4,2.8,2.8,0,0,0,.61-.17,3.12,3.12,0,0,0,.5-.24l.35-.24.19-.12c.07,0,.18,0,.31.22s.19.3.18.36q-.11.44-1.1,1.15a4.68,4.68,0,0,1-2,.87,3.75,3.75,0,0,1-2.75-.58,4,4,0,0,1-1.54-2.87Z"/><path class="cls-1" d="M231.53,71.83a10.94,10.94,0,0,0,.65,2.61q.09.2.86.3a4.38,4.38,0,0,0,1,.06c.08,0,.14.12.2.41a1.73,1.73,0,0,1,0,.58l-1.59.13q-1.38.12-2,.23t-2.06.41l-1.52.36a.87.87,0,0,1-.2-.54q-.07-.44,0-.46a4.3,4.3,0,0,0,1-.38q.7-.33.73-.55a9.77,9.77,0,0,0-.13-2.18L227.83,68a2.83,2.83,0,0,0-.76-1.81,1.65,1.65,0,0,0-.74-.34,3.15,3.15,0,0,0-.73-.07c-.2,0-.3,0-.31,0q-.13-.85,0-.91a22.71,22.71,0,0,0,2.32-.72,23.16,23.16,0,0,0,2.24-.89l.23-.1c.1,0,.19,0,.27.17a.55.55,0,0,1,.11.31q.06,1.92.16,2.56Zm-5-11.82a1.81,1.81,0,0,1-.73-1.21,1.84,1.84,0,0,1,3.64-.57,1.82,1.82,0,0,1-.33,1.38,1.83,1.83,0,0,1-2.59.4Z"/><path class="cls-1" d="M243.64,60.92q3.79-.59,4.73,5.43l.43,2.79a12.29,12.29,0,0,0,.62,2.61q.09.2.87.3a4.57,4.57,0,0,0,1,.06c.06,0,.11.13.17.41a1.69,1.69,0,0,1,0,.58q-.18,0-1.56.12t-2.05.23q-.71.11-1.94.39l-1.5.35a.87.87,0,0,1-.2-.54c0-.29,0-.45,0-.46a3.55,3.55,0,0,0,1-.37c.42-.22.64-.39.65-.54a8.58,8.58,0,0,0-.1-2.18l-.43-2.79A6.46,6.46,0,0,0,244.23,64a2.39,2.39,0,0,0-2.25-.64,2.75,2.75,0,0,0-1.56.77,1.43,1.43,0,0,0-.54,1.21l.79,5.05a12.35,12.35,0,0,0,.62,2.61c.06.13.34.23.84.31a4.28,4.28,0,0,0,1,.07q.12,0,.2.41a1.7,1.7,0,0,1,0,.58l-1.56.12q-1.32.11-2,.22t-2,.41l-1.55.36A.87.87,0,0,1,236,75c0-.29,0-.45,0-.46a4.16,4.16,0,0,0,1-.39c.46-.22.69-.4.71-.55a9.7,9.7,0,0,0-.13-2.18l-.74-4.79a2.83,2.83,0,0,0-.76-1.81,1.43,1.43,0,0,0-.73-.34,3.38,3.38,0,0,0-.73-.07c-.19,0-.29,0-.29,0q-.13-.85,0-.9A42.11,42.11,0,0,0,239,61.82l.07-.06.09,0h.07c.08,0,.16,0,.24.17a.91.91,0,0,1,.14.31,10.14,10.14,0,0,0,0,1.08.24.24,0,0,0,.05.14.47.47,0,0,0,.13-.11,6.58,6.58,0,0,1,1.61-1.51A5.21,5.21,0,0,1,243.64,60.92Z"/><path class="cls-1" d="M257.11,58.88a9.41,9.41,0,0,1,2.5,0,9.15,9.15,0,0,0,2.41,0l1.67-.26s.13.11.27.35a1.82,1.82,0,0,1,.24.56c0,.27,0,.42-.11.44l-1.91.3c-.08,0-.11,0-.1.11s.13.26.38.72a4.2,4.2,0,0,1,.48,1.37,4.3,4.3,0,0,1-1,3.35,5.1,5.1,0,0,1-3.41,2,12.3,12.3,0,0,1-1.84.17,1.59,1.59,0,0,0-.56.64,1.27,1.27,0,0,0-.18.77.61.61,0,0,0,.36.46,2,2,0,0,0,.91.16q.6,0,1,0l1.18-.12.44-.07a10.5,10.5,0,0,1,4.43.14,2.34,2.34,0,0,1,1.7,1.95A4.67,4.67,0,0,1,264.5,76a8.12,8.12,0,0,1-4.71,2.39,7.72,7.72,0,0,1-3.87-.24,2.67,2.67,0,0,1-2-2.16,2.31,2.31,0,0,1,.58-1.77,4.93,4.93,0,0,1,1.63-1.4,3.39,3.39,0,0,1-1.55-.68,2.16,2.16,0,0,1-.89-1.44q-.2-1.26,1.77-3a3.94,3.94,0,0,1-1.82-1.27,4.38,4.38,0,0,1-1.11-2.28,4,4,0,0,1,1-3.53A5.91,5.91,0,0,1,257.11,58.88Zm-1.57,4.61a4.69,4.69,0,0,0,1,2.33,1.85,1.85,0,0,0,1.8.73,1.77,1.77,0,0,0,1.47-1.09,3.94,3.94,0,0,0,.19-2.15,4.88,4.88,0,0,0-1-2.44,1.9,1.9,0,0,0-1.85-.7,1.68,1.68,0,0,0-1.42,1.15A4.31,4.31,0,0,0,255.55,63.49Zm8,10.13q-.16-1-1.7-1.14a18.87,18.87,0,0,0-4,.28l-.14.05-.13.11c-.24.14-.42.25-.55.34a2.55,2.55,0,0,0-.42.4,1.43,1.43,0,0,0-.32.58,1.73,1.73,0,0,0,0,.73,2.08,2.08,0,0,0,1.39,1.59,4.63,4.63,0,0,0,2.61.32,4.48,4.48,0,0,0,2.57-1.18A2.32,2.32,0,0,0,263.56,73.62Z"/><path class="cls-1" d="M277.87,55.66a9.42,9.42,0,0,1,2.5,0,9.17,9.17,0,0,0,2.41,0l1.67-.26s.13.11.26.35a1.83,1.83,0,0,1,.24.56q.06.41-.11.44l-1.91.3c-.08,0-.11,0-.1.11s.13.26.38.72a4.23,4.23,0,0,1,.48,1.37,4.3,4.3,0,0,1-1,3.35,5.09,5.09,0,0,1-3.41,2,12.31,12.31,0,0,1-1.84.17,1.6,1.6,0,0,0-.56.64,1.27,1.27,0,0,0-.18.77.61.61,0,0,0,.36.46,2,2,0,0,0,.91.16q.6,0,1,0l1.19-.12.44-.07a10.49,10.49,0,0,1,4.43.14,2.34,2.34,0,0,1,1.7,1.95,4.68,4.68,0,0,1-1.52,4.15,8.12,8.12,0,0,1-4.71,2.39,7.72,7.72,0,0,1-3.87-.24,2.67,2.67,0,0,1-2-2.16,2.31,2.31,0,0,1,.58-1.78,5,5,0,0,1,1.63-1.4,3.38,3.38,0,0,1-1.55-.68,2.16,2.16,0,0,1-.89-1.44q-.2-1.26,1.77-3a3.93,3.93,0,0,1-1.82-1.27A4.38,4.38,0,0,1,273.31,61a4,4,0,0,1,1-3.53A5.91,5.91,0,0,1,277.87,55.66Zm-1.57,4.61a4.69,4.69,0,0,0,1,2.33,1.85,1.85,0,0,0,1.8.73,1.77,1.77,0,0,0,1.47-1.09,4,4,0,0,0,.19-2.15,4.88,4.88,0,0,0-1-2.44,1.9,1.9,0,0,0-1.85-.7,1.68,1.68,0,0,0-1.42,1.15A4.31,4.31,0,0,0,276.3,60.26Zm8,10.13q-.16-1-1.7-1.14a18.9,18.9,0,0,0-4,.28l-.14.05-.13.11q-.36.21-.55.34a2.49,2.49,0,0,0-.42.4A1.44,1.44,0,0,0,277,71a1.74,1.74,0,0,0,0,.73,2.08,2.08,0,0,0,1.39,1.59,4.63,4.63,0,0,0,2.61.32,4.49,4.49,0,0,0,2.57-1.18A2.32,2.32,0,0,0,284.31,70.39Z"/><path class="cls-1" d="M293.2,53.21a6.55,6.55,0,0,1,5,1.19,6.37,6.37,0,0,1,2.68,4.35,6.73,6.73,0,0,1-13.31,2.07,6.4,6.4,0,0,1,1.2-5A6.51,6.51,0,0,1,293.2,53.21ZM293,54.65a2.39,2.39,0,0,0-1.94,1.67,6.39,6.39,0,0,0-.27,3.31,8.66,8.66,0,0,0,1.6,4A3,3,0,0,0,295.36,65a2.42,2.42,0,0,0,1.95-1.69,6.31,6.31,0,0,0,.29-3.29,10.18,10.18,0,0,0-.82-2.78,5.25,5.25,0,0,0-1.57-2A2.76,2.76,0,0,0,293,54.65Z"/><path class="cls-1" d="M314.83,49.85a6.56,6.56,0,0,1,5,1.19,6.37,6.37,0,0,1,2.68,4.35,6.73,6.73,0,0,1-13.31,2.07,6.4,6.4,0,0,1,1.2-5A6.52,6.52,0,0,1,314.83,49.85Zm-.17,1.44A2.39,2.39,0,0,0,312.73,53a6.4,6.4,0,0,0-.27,3.31,8.66,8.66,0,0,0,1.6,4A3,3,0,0,0,317,61.61a2.42,2.42,0,0,0,1.95-1.69,6.32,6.32,0,0,0,.28-3.29,10.18,10.18,0,0,0-.82-2.78,5.24,5.24,0,0,0-1.57-2A2.76,2.76,0,0,0,314.67,51.29Z"/><path class="cls-1" d="M330.61,39.78a5.86,5.86,0,0,1,2.09,0,2.08,2.08,0,0,1,1.19.58A3.34,3.34,0,0,1,334,42a1.07,1.07,0,0,1-1,.89,1.16,1.16,0,0,1-1-.35q-.47-.42-1-.84a1.36,1.36,0,0,0-1.1-.33,1.58,1.58,0,0,0-1.2,1,5,5,0,0,0-.46,2,12.08,12.08,0,0,0,.15,2.41l.21,1.35s0,0,.07.08a.17.17,0,0,0,.13,0l3.23-.5a.24.24,0,0,1,.15,0,.31.31,0,0,1,.06.17,3.06,3.06,0,0,1-.14,1.41l-3.05.48a.16.16,0,0,0-.15.2l1,6.55a11.33,11.33,0,0,0,.65,2.61c.06.13.34.23.84.31a4.24,4.24,0,0,0,1,.07c.06,0,.11.13.17.41a1.7,1.7,0,0,1,0,.58c-.12,0-.64,0-1.55.12s-1.6.16-2.07.23-1.13.21-2,.4l-1.51.36a.56.56,0,0,1-.17-.31,1.77,1.77,0,0,1-.07-.46c0-.15,0-.23.08-.24a4,4,0,0,0,1-.38q.67-.33.7-.54a9.81,9.81,0,0,0-.11-2.45l-1.05-6.76c0-.14-.09-.2-.21-.18l-1.76.27s-.07,0-.09-.17a1.6,1.6,0,0,1,.28-.92,1.19,1.19,0,0,1,.86-.67l.47-.07a.16.16,0,0,0,.15-.2l0-.29a8.08,8.08,0,0,1,1-5.57A5.56,5.56,0,0,1,330.61,39.78Z"/><path class="cls-1" d="M346.7,44.89a7.19,7.19,0,0,1,2.86.08,4.73,4.73,0,0,1,1.92.86,3.67,3.67,0,0,1-.08,1.71,1.09,1.09,0,0,1-.91.82,1.34,1.34,0,0,1-.94-.15,3.38,3.38,0,0,1-.84-.86,2.15,2.15,0,0,0-2.18-1,2.29,2.29,0,0,0-1.81,1.59,6.36,6.36,0,0,0-.25,3.33,6,6,0,0,0,1.7,3.75,3.51,3.51,0,0,0,3,.85,8.06,8.06,0,0,0,.84-.18,4.41,4.41,0,0,0,.74-.27l.59-.29a2.53,2.53,0,0,0,.5-.35l.36-.31.53-.49a.46.46,0,0,1,.17.15.56.56,0,0,1,.13.28.91.91,0,0,1-.09.59,4.84,4.84,0,0,1-1.49,1.86,5.46,5.46,0,0,1-2.76,1.24,6,6,0,0,1-4.75-1.22,6.56,6.56,0,0,1-2.56-4.39,6.76,6.76,0,0,1,1-4.9A6,6,0,0,1,346.7,44.89Z"/><path class="cls-1" d="M360.06,51.84a10.93,10.93,0,0,0,.65,2.61c.06.13.35.23.86.3a4.4,4.4,0,0,0,1,.06q.12,0,.2.41a1.7,1.7,0,0,1,0,.58l-1.59.13q-1.38.12-2,.22t-2.06.41q-1.32.3-1.52.36a.87.87,0,0,1-.21-.54c0-.29,0-.45,0-.46a4.3,4.3,0,0,0,1-.38c.47-.22.71-.41.73-.55a9.76,9.76,0,0,0-.13-2.18L356.37,48a2.83,2.83,0,0,0-.76-1.81,1.65,1.65,0,0,0-.74-.34,3.13,3.13,0,0,0-.73-.07c-.2,0-.3,0-.31,0q-.13-.85,0-.91a23,23,0,0,0,2.32-.72,23.24,23.24,0,0,0,2.24-.89l.23-.09c.1,0,.19,0,.27.17a.55.55,0,0,1,.11.31q.06,1.92.16,2.56Zm-5-11.82a1.8,1.8,0,0,1-.73-1.21,1.76,1.76,0,0,1,.33-1.36,1.84,1.84,0,0,1,3.31.79,1.81,1.81,0,0,1-.33,1.37,1.83,1.83,0,0,1-2.58.4Z"/><path class="cls-1" d="M364.6,44.21l-1.79.28c-.14,0-.25-.22-.33-.73a.73.73,0,0,1,0-.27,8.34,8.34,0,0,0,2-1.91c.21-.29.45-.63.7-1s.54-.84.88-1.42a2.12,2.12,0,0,1,.57,0c.18,0,.28.06.29.12l.45,2.88,2.13-.32,1.46-.21c.16,0,.25.05.28.23a2.9,2.9,0,0,1-.09,1.34l-3.53.55,1.1,7.08a2.82,2.82,0,0,0,.78,1.71,1.7,1.7,0,0,0,1.48.4,2.8,2.8,0,0,0,.61-.17,3.16,3.16,0,0,0,.5-.24l.35-.24.19-.12c.07,0,.18,0,.31.22s.19.3.18.36q-.11.44-1.1,1.15a4.67,4.67,0,0,1-2,.87,3.75,3.75,0,0,1-2.75-.58,4,4,0,0,1-1.54-2.87Z"/><path class="cls-1" d="M379.76,48.77a10.92,10.92,0,0,0,.65,2.61q.09.2.86.3a4.38,4.38,0,0,0,1,.06c.08,0,.14.12.2.41a1.73,1.73,0,0,1,0,.58l-1.59.13q-1.38.12-2,.23t-2.06.41l-1.52.36a.87.87,0,0,1-.2-.54c0-.29,0-.45,0-.46a4.33,4.33,0,0,0,1-.38q.7-.33.73-.55a9.76,9.76,0,0,0-.13-2.18L376.06,45a2.83,2.83,0,0,0-.76-1.81,1.65,1.65,0,0,0-.74-.34,3.1,3.1,0,0,0-.73-.07c-.2,0-.3,0-.31,0q-.13-.85,0-.91a22.71,22.71,0,0,0,2.32-.72,23.29,23.29,0,0,0,2.24-.89l.23-.1c.1,0,.19,0,.27.17a.55.55,0,0,1,.11.31q.06,1.92.16,2.56Zm-5-11.82a1.81,1.81,0,0,1-.73-1.21,1.83,1.83,0,0,1,1.54-2.09A1.78,1.78,0,0,1,377,34a1.76,1.76,0,0,1,.73,1.2,1.82,1.82,0,0,1-.33,1.38,1.83,1.83,0,0,1-2.59.4Z"/><path class="cls-1" d="M387.89,50.16c0,.06.07.1.17.12a.67.67,0,0,0,.21,0l2.85-.44a3,3,0,0,0,2.58-2.75c0-.2.18-.33.47-.37a.63.63,0,0,1,.61.15l.05,3.81-10,1.55q-.64-.26-.69-.58a.17.17,0,0,1,0-.12l5.19-11.31-3.12.43a2.1,2.1,0,0,0-.55.16,2.62,2.62,0,0,0-.44.25,1.78,1.78,0,0,0-.35.34,2.14,2.14,0,0,0-.24.37c-.05.11-.11.24-.18.4s-.11.28-.14.37-.06.2-.1.35a1.43,1.43,0,0,0-.05.25c0,.13-.28.22-.71.29-.21,0-.33,0-.33,0s0-.61,0-1.54,0-1.69-.09-2.29q1.76-.09,2.82-.26l3.58-.56A31,31,0,0,0,393.1,38a2.46,2.46,0,0,1,.17.7l-5.2,11A.92.92,0,0,0,387.89,50.16Z"/><path class="cls-1" d="M401.25,36.41a5.52,5.52,0,0,1,2.55.16,4.72,4.72,0,0,1,1.92,1.12,6.94,6.94,0,0,1,1.21,1.59,5.11,5.11,0,0,1,.59,1.67q.1.65-.09.84a1.69,1.69,0,0,1-.87.3l-7,1.09q-.21,0-.18.21a5.78,5.78,0,0,0,.7,2,4.08,4.08,0,0,0,1.58,1.53,3.5,3.5,0,0,0,2.33.39,8.24,8.24,0,0,0,.84-.18,4.46,4.46,0,0,0,.74-.27l.59-.29a2.52,2.52,0,0,0,.5-.35l.36-.31.53-.49a.46.46,0,0,1,.17.15.57.57,0,0,1,.13.28.91.91,0,0,1-.09.59,4.83,4.83,0,0,1-1.49,1.86,5.51,5.51,0,0,1-2.79,1.25,6,6,0,0,1-4.7-1.21A6.41,6.41,0,0,1,396.21,44a6.88,6.88,0,0,1,1-5.08A5.76,5.76,0,0,1,401.25,36.41Zm0,1.38a2.11,2.11,0,0,0-1.2.61,2.8,2.8,0,0,0-.7,1.13,5.73,5.73,0,0,0-.26,1.17,3.69,3.69,0,0,0,0,.89c0,.14.09.2.21.18l4.76-.74c.18,0,.24-.19.2-.48a3.85,3.85,0,0,0-1-2A2.13,2.13,0,0,0,401.26,37.79Z"/><path class="cls-1" d="M417.95,33.81q3.79-.59,4.73,5.43l.43,2.79a12.3,12.3,0,0,0,.62,2.61q.09.2.87.3a4.54,4.54,0,0,0,1,.06c.06,0,.11.13.17.41a1.69,1.69,0,0,1,0,.58q-.18,0-1.56.12t-2.05.23q-.71.11-1.94.39l-1.5.35a.88.88,0,0,1-.2-.54q-.07-.44,0-.46a3.54,3.54,0,0,0,1-.37c.42-.22.64-.4.65-.54a8.59,8.59,0,0,0-.1-2.18l-.43-2.79a6.46,6.46,0,0,0-1.19-3.3,2.39,2.39,0,0,0-2.25-.64,2.74,2.74,0,0,0-1.56.77,1.43,1.43,0,0,0-.54,1.21L415,43.3a12.36,12.36,0,0,0,.62,2.61c.06.13.34.23.84.3a4.28,4.28,0,0,0,1,.07c.08,0,.14.12.2.41a1.7,1.7,0,0,1,0,.58l-1.56.12q-1.32.11-2,.22t-2,.41l-1.55.36a.88.88,0,0,1-.2-.54q-.07-.44,0-.46a4.15,4.15,0,0,0,1-.39c.46-.22.69-.4.71-.55a9.69,9.69,0,0,0-.13-2.18l-.74-4.79a2.83,2.83,0,0,0-.76-1.81,1.43,1.43,0,0,0-.73-.34,3.38,3.38,0,0,0-.73-.07q-.28,0-.29,0-.13-.85,0-.9a42.14,42.14,0,0,0,4.59-1.62l.07-.06.09,0h.07c.08,0,.16,0,.24.17a.91.91,0,0,1,.14.31,9.76,9.76,0,0,0,0,1.08.23.23,0,0,0,.05.14.46.46,0,0,0,.13-.11,6.6,6.6,0,0,1,1.61-1.52A5.2,5.2,0,0,1,417.95,33.81Z"/><path class="cls-1" d="M430.58,31.81a12.67,12.67,0,0,1,3.49,0A16.76,16.76,0,0,1,434.9,35c0,.16-.09.25-.35.29q-.65.1-.74-.12a3.61,3.61,0,0,0-1.14-1.61,2.32,2.32,0,0,0-1.89-.44,2.13,2.13,0,0,0-1.28.59,1.32,1.32,0,0,0-.32,1.16,1.72,1.72,0,0,0,.28.72,1.85,1.85,0,0,0,.63.55,7.32,7.32,0,0,0,.72.37q.3.13.91.34a1.88,1.88,0,0,0,.32.1l.48.17.53.19.51.21a5.67,5.67,0,0,1,.57.26l.51.28a2.31,2.31,0,0,1,.5.34l.42.4a1.89,1.89,0,0,1,.39.48,5.83,5.83,0,0,1,.25.53,2.78,2.78,0,0,1,.17.62,3.5,3.5,0,0,1-1,3.14,5.64,5.64,0,0,1-3.28,1.61,9.93,9.93,0,0,1-3.92-.23,12,12,0,0,1-.55-1.58,14.4,14.4,0,0,1-.41-1.67.63.63,0,0,1,.39-.21q.67-.1.74.13a3.28,3.28,0,0,0,1.47,1.8,3.17,3.17,0,0,0,2.13.44,2.16,2.16,0,0,0,1.29-.62A1.45,1.45,0,0,0,433.6,42a1.93,1.93,0,0,0-.16-.53,1.47,1.47,0,0,0-.36-.46l-.4-.36a2.14,2.14,0,0,0-.59-.31l-.64-.25-.79-.27-.81-.28a6.92,6.92,0,0,1-2.33-1.25,3.43,3.43,0,0,1-.08-5A5.73,5.73,0,0,1,430.58,31.81Z"/><path class="cls-1" d="M446.46,29.38q3.76-.58,4.66,5.2l.47,3a10.87,10.87,0,0,0,.65,2.61q.06.2.84.31a4.59,4.59,0,0,0,1,.06c.06,0,.11.13.17.41a3.11,3.11,0,0,1,.07.57l-1.59.13c-.92.08-1.6.16-2,.23s-1.15.21-2,.4l-1.52.36a1.11,1.11,0,0,1-.17-.54q-.07-.44,0-.45a3.57,3.57,0,0,0,1-.38c.42-.22.65-.4.68-.54a11.35,11.35,0,0,0-.16-2.17l-.45-2.88A6.2,6.2,0,0,0,447,32.44a2.43,2.43,0,0,0-2.24-.6,2.85,2.85,0,0,0-1.54.75,1.4,1.4,0,0,0-.56,1.23l.79,5.05a10.87,10.87,0,0,0,.65,2.61q.09.2.84.31a4.21,4.21,0,0,0,1,.07c.06,0,.11.13.17.41a1.7,1.7,0,0,1,0,.58l-1.56.12q-1.32.12-2,.22t-2,.41L439,44a.87.87,0,0,1-.21-.54q-.07-.44,0-.46a4.14,4.14,0,0,0,1-.39q.69-.33.71-.55a9.65,9.65,0,0,0-.12-2.15l-1.9-12.22a11.7,11.7,0,0,0-.46-2q-.22-.45-1.6-.23l-.26,0c-.12,0-.2-.13-.25-.44s0-.48.1-.5q.9-.23,1.7-.5t1.32-.51c.35-.15.65-.3.89-.44l.79-.42h.06a.32.32,0,0,1,.26.13.84.84,0,0,1,.2.29,9.56,9.56,0,0,0,.08,2.82l.92,5.93c0,.12.07.17.15.16s.05,0,.1-.11a5.66,5.66,0,0,1,1.61-1.56A5.48,5.48,0,0,1,446.46,29.38Z"/><path class="cls-1" d="M460.73,36.18a10.94,10.94,0,0,0,.65,2.61c.06.13.35.23.86.3a4.4,4.4,0,0,0,1,.06c.08,0,.14.12.2.41a1.73,1.73,0,0,1,0,.58l-1.59.13q-1.38.12-2,.23t-2.06.41l-1.52.36a.87.87,0,0,1-.21-.54q-.07-.44,0-.46a4.34,4.34,0,0,0,1-.38c.46-.22.71-.41.73-.55a9.77,9.77,0,0,0-.13-2.18L457,32.36a2.83,2.83,0,0,0-.76-1.81,1.65,1.65,0,0,0-.74-.34,3.15,3.15,0,0,0-.73-.07c-.2,0-.3,0-.31,0q-.13-.85,0-.91a22.71,22.71,0,0,0,2.32-.72,23.18,23.18,0,0,0,2.24-.89l.23-.1c.1,0,.19,0,.27.17a.55.55,0,0,1,.11.31q.06,1.92.16,2.56Zm-5-11.82a1.81,1.81,0,0,1-.73-1.21,1.83,1.83,0,0,1,1.54-2.09,1.83,1.83,0,0,1,2.1,1.52,1.82,1.82,0,0,1-.33,1.38,1.83,1.83,0,0,1-2.58.4Z"/><path class="cls-1" d="M471.27,25.55a6,6,0,0,1,3.5.45,6.23,6.23,0,0,1,3.69,4.78,7,7,0,0,1-5.82,8.06,6.9,6.9,0,0,1-2.15-.09q-.12,0-.05.43l.31,2a10.64,10.64,0,0,0,.65,2.61q.07.23.85.33a4.52,4.52,0,0,0,1,.06q.09,0,.17.41a2.71,2.71,0,0,1,.07.55l-1.58.16q-1.38.12-2,.23c-.49.08-1.18.21-2.06.41l-1.56.33a1.06,1.06,0,0,1-.17-.53q-.07-.43,0-.44a4.13,4.13,0,0,0,1-.39q.69-.33.74-.58a11,11,0,0,0-.15-2.14L466,31a2.89,2.89,0,0,0-.77-1.84,1.34,1.34,0,0,0-.71-.33,3.54,3.54,0,0,0-.73-.05q-.3,0-.31,0-.13-.85,0-.91a22.9,22.9,0,0,0,4.25-1.5l.54-.23q.12,0,.21.6a1.59,1.59,0,0,1,0,.36,6,6,0,0,1,1.2-.89A4.25,4.25,0,0,1,471.27,25.55Zm-.46,1.67a2.25,2.25,0,0,0-1.49.8,2,2,0,0,0-.37,1.59l.94,6.05a1.83,1.83,0,0,0,1,1.42,2.89,2.89,0,0,0,1.79.31,2.79,2.79,0,0,0,2.08-1.59,5.75,5.75,0,0,0,.39-3.61,7.67,7.67,0,0,0-1.55-3.8A2.92,2.92,0,0,0,470.8,27.21Z"/><path class="cls-1" d="M492,22.29a3.65,3.65,0,0,1,2.88.53A4.75,4.75,0,0,1,496.32,26l.9,5.79a1.35,1.35,0,0,0,.4.85.89.89,0,0,0,.75.2,1.86,1.86,0,0,0,.94-.54c.12,0,.2.12.23.3a1.77,1.77,0,0,1,0,.91,7.3,7.3,0,0,1-1.06.92,3.1,3.1,0,0,1-1.35.6,2.17,2.17,0,0,1-1.4-.29,2.45,2.45,0,0,1-1-1l-.19.23c-.11.13-.27.29-.47.48a8.75,8.75,0,0,1-.69.59,4.73,4.73,0,0,1-.94.55,4.33,4.33,0,0,1-1.13.34,3.56,3.56,0,0,1-2.52-.44,2.83,2.83,0,0,1-1.27-2.07,2.75,2.75,0,0,1,.13-1.37,3.6,3.6,0,0,1,.65-1.14,6.13,6.13,0,0,1,1.14-1,12.23,12.23,0,0,1,1.28-.79l1.4-.68,1.19-.58a.47.47,0,0,0,.19-.51l-.25-1.62a2.56,2.56,0,0,0-.72-1.54,1.55,1.55,0,0,0-1.35-.39,1.8,1.8,0,0,0-1.3.76,2.23,2.23,0,0,0-.26,1.62,1,1,0,0,1-.31.94,1.85,1.85,0,0,1-1,.43,1.68,1.68,0,0,1-1.64-.47q-.22-1.41,1.51-2.94A7.45,7.45,0,0,1,492,22.29Zm.43,11.49a2.3,2.3,0,0,0,1.3-.62,1.17,1.17,0,0,0,.43-1l-.47-3q-.19.12-.82.43c-.42.21-.74.38-1,.51a8.16,8.16,0,0,0-.76.54,1.79,1.79,0,0,0-.59.75,1.63,1.63,0,0,0-.09.86,1.83,1.83,0,0,0,.68,1.31A1.71,1.71,0,0,0,492.45,33.77Z"/><path class="cls-1" d="M509,19.64q3.79-.59,4.73,5.43l.43,2.79a12.37,12.37,0,0,0,.62,2.61c.06.13.35.23.87.3a4.58,4.58,0,0,0,1,.06c.06,0,.11.13.17.41a1.72,1.72,0,0,1,0,.58q-.18,0-1.56.12t-2.06.23q-.7.11-1.94.39l-1.49.35a.87.87,0,0,1-.21-.54c0-.29,0-.45,0-.46a3.57,3.57,0,0,0,1-.37c.42-.22.63-.39.65-.54a8.59,8.59,0,0,0-.1-2.18L510.81,26a6.45,6.45,0,0,0-1.19-3.3,2.39,2.39,0,0,0-2.25-.64,2.75,2.75,0,0,0-1.56.77,1.43,1.43,0,0,0-.53,1.21l.79,5.05a12.43,12.43,0,0,0,.62,2.61c.06.13.34.23.85.3a4.28,4.28,0,0,0,1,.07c.08,0,.14.12.2.41a1.73,1.73,0,0,1,0,.58l-1.56.12q-1.32.11-2,.22t-2,.41l-1.55.36a.87.87,0,0,1-.21-.54c0-.29,0-.45,0-.46a4.14,4.14,0,0,0,1-.39c.46-.22.69-.4.71-.55a9.76,9.76,0,0,0-.13-2.18l-.74-4.79a2.83,2.83,0,0,0-.76-1.81,1.42,1.42,0,0,0-.73-.34,3.34,3.34,0,0,0-.73-.07c-.19,0-.29,0-.29,0q-.13-.85,0-.9a42,42,0,0,0,4.59-1.62l.07-.06.09,0h.07c.08,0,.16,0,.24.17a.92.92,0,0,1,.14.31,10.24,10.24,0,0,0,0,1.08.24.24,0,0,0,.05.14.44.44,0,0,0,.13-.11,6.62,6.62,0,0,1,1.61-1.51A5.2,5.2,0,0,1,509,19.64Z"/><path class="cls-1" d="M523.48,17.33a5.11,5.11,0,0,1,2.21.08q.15,0,.07-.49l-.43-2.76a10.32,10.32,0,0,0-.49-2q-.22-.45-1.6-.23L523,12c-.12,0-.2-.13-.25-.44s0-.48.1-.5q.87-.22,1.68-.5t1.33-.51c.35-.15.65-.3.89-.44l.57-.31.22-.11h.06a.32.32,0,0,1,.26.13.55.55,0,0,1,.17.29,11.37,11.37,0,0,0,.14,2.81l2,12.92a10.89,10.89,0,0,0,.51,2.15.44.44,0,0,0,.34.28,1.81,1.81,0,0,0,.58.06l.57,0,.3,0s.08.15.11.34q.09.59-.08.62-.41.09-1,.28l-1.2.38-1.11.38-1.18.44c-.12,0-.2-.14-.25-.47l-.08-.5a.13.13,0,0,0-.06-.11s-.06,0-.07,0a5,5,0,0,1-2.89,1.56,5.76,5.76,0,0,1-4.41-1.1,6,6,0,0,1-2.45-4.12A7,7,0,0,1,519,20.15,6.51,6.51,0,0,1,523.48,17.33Zm0,1.45a2.6,2.6,0,0,0-2.14,1.69,7,7,0,0,0-.24,3.68,7.18,7.18,0,0,0,1.52,3.75,2.92,2.92,0,0,0,2.77,1,2.47,2.47,0,0,0,1.54-.77,1.65,1.65,0,0,0,.41-1.4l-1-6.17a2,2,0,0,0-.2-.6,2.74,2.74,0,0,0-.46-.64,1.9,1.9,0,0,0-.89-.49A3.16,3.16,0,0,0,523.44,18.79Z"/><path class="cls-1" d="M223.57,102.58l-1.81.1c-.14,0-.22-.24-.25-.76a.77.77,0,0,1,0-.27,8.31,8.31,0,0,0,2.19-1.71l.8-.92q.43-.52,1-1.32a2.11,2.11,0,0,1,.57,0c.18,0,.27.09.28.15l.17,2.91,2.15-.11,1.47-.07c.16,0,.24.08.25.25a2.89,2.89,0,0,1-.22,1.32l-3.56.21.42,7.15a2.81,2.81,0,0,0,.61,1.78,1.7,1.7,0,0,0,1.43.54,2.81,2.81,0,0,0,.62-.11,3.11,3.11,0,0,0,.52-.19l.38-.2.2-.1q.12,0,.28.25c.11.19.16.32.14.38q-.15.43-1.21,1a4.68,4.68,0,0,1-2.09.67,3.75,3.75,0,0,1-2.68-.84,4,4,0,0,1-1.26-3Z"/><path class="cls-1" d="M242.13,99.42q3.8-.22,4.14,5.63l.18,3.06a10.9,10.9,0,0,0,.39,2.66q0,.21.81.38a4.56,4.56,0,0,0,1,.16c.06,0,.1.14.13.42a3.13,3.13,0,0,1,0,.58l-1.6,0c-.92,0-1.6,0-2,0s-1.16.1-2,.21l-1.55.21a1.11,1.11,0,0,1-.12-.56c0-.3,0-.45.06-.45a3.54,3.54,0,0,0,1-.28q.66-.26.73-.47a11.26,11.26,0,0,0,.05-2.18l-.17-2.91a6.2,6.2,0,0,0-.86-3.36,2.43,2.43,0,0,0-2.18-.81,2.85,2.85,0,0,0-1.6.6,1.4,1.4,0,0,0-.68,1.17l.3,5.1a10.91,10.91,0,0,0,.39,2.66c0,.14.32.26.81.38a4.17,4.17,0,0,0,1,.16c.06,0,.1.14.13.42a1.68,1.68,0,0,1,0,.58l-1.56,0q-1.33,0-2,0t-2.06.21l-1.58.21a.87.87,0,0,1-.15-.56c0-.3,0-.45.09-.45a4.13,4.13,0,0,0,1.07-.29c.48-.18.73-.33.76-.48a9.59,9.59,0,0,0,.08-2.15l-.72-12.35a11.64,11.64,0,0,0-.27-2q-.18-.47-1.57-.39l-.27,0c-.12,0-.19-.15-.21-.46s0-.48.15-.49q.92-.14,1.74-.34c.55-.13,1-.26,1.36-.38s.67-.24.93-.35l.83-.35h.06a.32.32,0,0,1,.25.15.84.84,0,0,1,.17.3,9.54,9.54,0,0,0-.2,2.81l.35,6q0,.18.13.17s.06,0,.11-.1a5.64,5.64,0,0,1,1.75-1.4A5.48,5.48,0,0,1,242.13,99.42Z"/><path class="cls-1" d="M256,98.62a5.52,5.52,0,0,1,2.53.4,4.71,4.71,0,0,1,1.8,1.29,6.92,6.92,0,0,1,1.05,1.7,5.12,5.12,0,0,1,.43,1.72q0,.65-.18.83a1.68,1.68,0,0,1-.89.22l-7.09.41c-.14,0-.2.07-.2.19a5.78,5.78,0,0,0,.51,2.06,4.09,4.09,0,0,0,1.42,1.67,3.5,3.5,0,0,0,2.28.61,8.18,8.18,0,0,0,.86-.09,4.48,4.48,0,0,0,.76-.19l.61-.23a2.47,2.47,0,0,0,.53-.3l.39-.28.57-.44a.47.47,0,0,1,.16.17.58.58,0,0,1,.11.29.91.91,0,0,1-.15.57,4.84,4.84,0,0,1-1.66,1.7,5.52,5.52,0,0,1-2.89,1,6,6,0,0,1-4.56-1.66,6.42,6.42,0,0,1-2.14-4.54,6.88,6.88,0,0,1,1.45-5A5.76,5.76,0,0,1,256,98.62Zm-.13,1.38a2.11,2.11,0,0,0-1.25.49,2.81,2.81,0,0,0-.8,1.06,5.81,5.81,0,0,0-.37,1.14,3.67,3.67,0,0,0-.08.88c0,.14.07.2.19.2l4.81-.28c.18,0,.26-.16.24-.46a3.85,3.85,0,0,0-.82-2.07A2.13,2.13,0,0,0,255.83,100Z"/><path class="cls-1" d="M277.65,89.83a5.85,5.85,0,0,1,2.08.19,2.08,2.08,0,0,1,1.13.69,3.34,3.34,0,0,1-.07,1.66,1.07,1.07,0,0,1-1,.79,1.16,1.16,0,0,1-.93-.44q-.43-.47-.9-.93a1.37,1.37,0,0,0-1.07-.43,1.58,1.58,0,0,0-1.29.85,5,5,0,0,0-.65,1.91,12.07,12.07,0,0,0-.08,2.42l.08,1.37s0,0,.07.09a.17.17,0,0,0,.12.05l3.27-.19a.24.24,0,0,1,.15,0,.32.32,0,0,1,0,.18,3.09,3.09,0,0,1-.28,1.39l-3.09.18a.16.16,0,0,0-.17.19l.38,6.62a11.34,11.34,0,0,0,.39,2.66c0,.14.32.26.81.38a4.22,4.22,0,0,0,1,.16c.06,0,.1.14.13.42a1.67,1.67,0,0,1,0,.58q-.18,0-1.55,0t-2.08,0q-.71,0-2,.21l-1.54.21a.56.56,0,0,1-.14-.32,1.94,1.94,0,0,1,0-.46c0-.15,0-.23.11-.23a4,4,0,0,0,1-.28c.47-.18.71-.33.75-.48a9.78,9.78,0,0,0,.13-2.45L272,100q0-.21-.19-.2l-1.78.1s-.06-.06-.07-.17a1.59,1.59,0,0,1,.37-.88,1.2,1.2,0,0,1,.92-.59l.47,0a.16.16,0,0,0,.17-.19l0-.3a8.09,8.09,0,0,1,1.55-5.45A5.56,5.56,0,0,1,277.65,89.83Z"/><path class="cls-1" d="M287,96.82a6.55,6.55,0,0,1,4.88,1.67,6.37,6.37,0,0,1,2.25,4.59A6.78,6.78,0,1,1,287,96.82Zm-.31,1.42a2.39,2.39,0,0,0-2.09,1.48A6.39,6.39,0,0,0,284,103a8.67,8.67,0,0,0,1.21,4.13,3,3,0,0,0,2.79,1.62,2.42,2.42,0,0,0,2.1-1.49,6.33,6.33,0,0,0,.6-3.25,10.22,10.22,0,0,0-.55-2.84A5.26,5.26,0,0,0,288.79,99,2.76,2.76,0,0,0,286.69,98.24Z"/><path class="cls-1" d="M308.8,98.77l.34,5.88a6.55,6.55,0,0,0,.36,2.06.62.62,0,0,0,.35.22,2.32,2.32,0,0,0,.53.09h.49a.55.55,0,0,1,.25,0c.08,0,.12.1.13.26a2.45,2.45,0,0,1,0,.4c0,.19-.08.29-.16.29a6.85,6.85,0,0,0-1,.17l-1.22.28-1.12.29-1.17.31c-.14,0-.22-.15-.23-.46l-.08-1.31q0-.15-.1-.14a6.63,6.63,0,0,1-1.73,1.44,5,5,0,0,1-2.31.73,3.12,3.12,0,0,1-1.79-.4,3.58,3.58,0,0,1-1.26-1.24,6.41,6.41,0,0,1-.72-1.69,9.06,9.06,0,0,1-.3-1.86l-.19-3.32a2.82,2.82,0,0,0-.59-1.87,1.64,1.64,0,0,0-.71-.41,3.15,3.15,0,0,0-.72-.14c-.2,0-.3,0-.3-.07,0-.57,0-.87.1-.9a22.31,22.31,0,0,0,2.41-.5,23.27,23.27,0,0,0,2.31-.67l.12,0,.12,0c.1,0,.18.06.24.19a1.06,1.06,0,0,1,.09.32q-.15,2-.12,2.63l.21,3.56a6.37,6.37,0,0,0,.85,3.29,2.63,2.63,0,0,0,3.74.22,1.59,1.59,0,0,0,.59-1.15l-.28-4.9a2.83,2.83,0,0,0-.58-1.87,1.44,1.44,0,0,0-.69-.41,3.37,3.37,0,0,0-.74-.14c-.2,0-.3,0-.3-.07q0-.86.13-.9a22.74,22.74,0,0,0,2.38-.5,23.38,23.38,0,0,0,2.31-.67l.23-.07q.15,0,.25.19a.54.54,0,0,1,.08.32Q308.77,98.24,308.8,98.77Z"/><path class="cls-1" d="M322.12,94.78q3.83-.22,4.18,5.86l.16,2.82a12.47,12.47,0,0,0,.36,2.66c0,.14.33.26.84.38a4.55,4.55,0,0,0,1,.16c.06,0,.1.14.13.42a1.7,1.7,0,0,1,0,.58c-.12,0-.64,0-1.56,0s-1.61,0-2.07,0-1.13.1-2,.2l-1.52.21a.87.87,0,0,1-.15-.56c0-.3,0-.45.09-.45a3.54,3.54,0,0,0,1-.28q.65-.26.7-.47a8.51,8.51,0,0,0,.11-2.18l-.16-2.82a6.46,6.46,0,0,0-.87-3.4,2.39,2.39,0,0,0-2.18-.86,2.74,2.74,0,0,0-1.63.62,1.43,1.43,0,0,0-.65,1.15l.3,5.1a12.54,12.54,0,0,0,.36,2.66q.07.2.81.38a4.29,4.29,0,0,0,1,.17q.12,0,.16.42a1.71,1.71,0,0,1,0,.58l-1.57,0q-1.33,0-2,0t-2.06.21l-1.58.21a.88.88,0,0,1-.15-.56c0-.3,0-.45.09-.45a4.16,4.16,0,0,0,1.07-.29q.71-.27.76-.48a9.65,9.65,0,0,0,.08-2.18l-.28-4.84a2.83,2.83,0,0,0-.58-1.87,1.44,1.44,0,0,0-.69-.41,3.38,3.38,0,0,0-.72-.14c-.19,0-.28,0-.29-.07q0-.86.1-.9a42,42,0,0,0,4.73-1.17l.07,0,.09,0h.07q.12,0,.22.2a.91.91,0,0,1,.11.32,9.93,9.93,0,0,0-.06,1.08.23.23,0,0,0,0,.15.47.47,0,0,0,.14-.1,6.58,6.58,0,0,1,1.75-1.35A5.2,5.2,0,0,1,322.12,94.78Z"/><path class="cls-1" d="M336.73,93.88a5.11,5.11,0,0,1,2.19.29q.15,0,.12-.48l-.16-2.79a10.38,10.38,0,0,0-.3-2q-.18-.47-1.57-.39h-.24c-.12,0-.19-.15-.21-.46s0-.48.15-.49q.89-.14,1.72-.34t1.38-.38q.54-.18.93-.35l.6-.26.23-.09h.06a.32.32,0,0,1,.25.15.55.55,0,0,1,.14.3,11.41,11.41,0,0,0-.13,2.81l.76,13.06a10.92,10.92,0,0,0,.3,2.19.44.44,0,0,0,.32.31,1.79,1.79,0,0,0,.57.12h.87a.63.63,0,0,1,.08.35q0,.59-.14.6c-.28,0-.62.1-1,.18l-1.24.27-1.15.27-1.22.32q-.18,0-.21-.49l0-.5a.13.13,0,0,0-.05-.12.05.05,0,0,0-.07,0,5,5,0,0,1-3,1.28,5.76,5.76,0,0,1-4.29-1.52,6,6,0,0,1-2-4.33A7,7,0,0,1,332,96.25,6.51,6.51,0,0,1,336.73,93.88Zm-.18,1.44a2.6,2.6,0,0,0-2.3,1.47,7,7,0,0,0-.59,3.64,7.17,7.17,0,0,0,1.15,3.88,2.92,2.92,0,0,0,2.66,1.26,2.47,2.47,0,0,0,1.6-.61,1.65,1.65,0,0,0,.55-1.36l-.36-6.23a2.06,2.06,0,0,0-.14-.62,2.76,2.76,0,0,0-.4-.68,1.91,1.91,0,0,0-.84-.58A3.16,3.16,0,0,0,336.54,95.32Z"/><path class="cls-1" d="M351.59,102a11,11,0,0,0,.39,2.66q.07.21.83.38a4.36,4.36,0,0,0,1,.16c.08,0,.13.14.16.42a1.71,1.71,0,0,1,0,.58l-1.6,0q-1.39,0-2,0t-2.09.21l-1.55.21a.87.87,0,0,1-.15-.56c0-.3,0-.45.09-.45a4.28,4.28,0,0,0,1.05-.28c.49-.18.75-.34.78-.48a9.65,9.65,0,0,0,.08-2.18l-.28-4.84A2.82,2.82,0,0,0,347.7,96a1.65,1.65,0,0,0-.71-.41,3.17,3.17,0,0,0-.72-.14q-.3,0-.3-.07,0-.86.13-.9a22.71,22.71,0,0,0,2.38-.5,23.3,23.3,0,0,0,2.31-.67l.24-.07c.1,0,.18.06.25.19a.54.54,0,0,1,.08.32,25.45,25.45,0,0,0-.09,2.57Zm-3.81-12.24a1.81,1.81,0,0,1-.61-1.28,1.83,1.83,0,0,1,1.73-1.93,1.78,1.78,0,0,1,1.34.46,1.76,1.76,0,0,1,.61,1.26,1.81,1.81,0,0,1-.46,1.34,1.83,1.83,0,0,1-2.61.15Z"/><path class="cls-1" d="M364.7,92.31q3.83-.22,4.18,5.86L369,101a12.39,12.39,0,0,0,.36,2.66q.07.2.84.38a4.52,4.52,0,0,0,1,.16c.06,0,.1.14.13.42a1.7,1.7,0,0,1,0,.58c-.12,0-.64,0-1.57,0s-1.61,0-2.07,0-1.13.1-2,.2l-1.52.21a.87.87,0,0,1-.15-.56c0-.3,0-.45.09-.45a3.52,3.52,0,0,0,1-.28c.44-.17.67-.33.7-.47a8.51,8.51,0,0,0,.11-2.18l-.16-2.82a6.45,6.45,0,0,0-.87-3.4,2.39,2.39,0,0,0-2.18-.86,2.75,2.75,0,0,0-1.63.62,1.43,1.43,0,0,0-.65,1.15l.3,5.1a12.47,12.47,0,0,0,.36,2.66q.07.21.81.38a4.3,4.3,0,0,0,1,.17q.12,0,.16.42a1.71,1.71,0,0,1,0,.58l-1.57,0q-1.33,0-2,0t-2.06.21l-1.58.21a.88.88,0,0,1-.15-.56c0-.3,0-.45.09-.45a4.15,4.15,0,0,0,1.07-.29c.48-.18.73-.33.76-.48a9.65,9.65,0,0,0,.08-2.18l-.28-4.84a2.83,2.83,0,0,0-.58-1.87,1.44,1.44,0,0,0-.69-.41,3.39,3.39,0,0,0-.72-.14q-.28,0-.29-.07,0-.86.1-.9A42,42,0,0,0,360,92.76l.07,0,.09,0h.07c.08,0,.15.06.22.2a.9.9,0,0,1,.11.32,9.77,9.77,0,0,0-.06,1.08.23.23,0,0,0,0,.15.44.44,0,0,0,.14-.1A6.58,6.58,0,0,1,362.46,93,5.2,5.2,0,0,1,364.7,92.31Z"/><path class="cls-1" d="M378.31,91.58a9.42,9.42,0,0,1,2.49.24,9.15,9.15,0,0,0,2.4.25l1.69-.1s.12.12.23.37a1.83,1.83,0,0,1,.18.58c0,.28,0,.42-.15.43l-1.93.11c-.08,0-.12,0-.11.1s.1.27.31.76a4.23,4.23,0,0,1,.35,1.41A4.3,4.3,0,0,1,382.47,99a5.09,5.09,0,0,1-3.58,1.62,12.34,12.34,0,0,1-1.85,0,1.6,1.6,0,0,0-.62.59,1.26,1.26,0,0,0-.25.74.61.61,0,0,0,.31.49,2,2,0,0,0,.89.25c.4,0,.74.06,1,.06h1.19l.45,0a10.5,10.5,0,0,1,4.39.56,2.34,2.34,0,0,1,1.51,2.1,4.68,4.68,0,0,1-1.91,4,8.13,8.13,0,0,1-4.92,1.92,7.73,7.73,0,0,1-3.83-.61,2.67,2.67,0,0,1-1.76-2.34,2.31,2.31,0,0,1,.75-1.71,4.92,4.92,0,0,1,1.76-1.23,3.39,3.39,0,0,1-1.48-.82,2.17,2.17,0,0,1-.74-1.52q-.07-1.28,2-2.77a4,4,0,0,1-1.69-1.44,4.37,4.37,0,0,1-.88-2.38A4,4,0,0,1,374.61,93,5.91,5.91,0,0,1,378.31,91.58Zm5,15.28q-.06-1-1.58-1.29a18.88,18.88,0,0,0-4-.11l-.15,0-.14.1c-.25.11-.45.21-.58.29a2.54,2.54,0,0,0-.46.35,1.44,1.44,0,0,0-.37.54,1.74,1.74,0,0,0-.09.72,2.08,2.08,0,0,0,1.23,1.72,4.63,4.63,0,0,0,2.56.57,4.49,4.49,0,0,0,2.67-.93A2.32,2.32,0,0,0,383.3,106.87ZM376.3,96a4.7,4.7,0,0,0,.74,2.41,1.85,1.85,0,0,0,1.72.9,1.77,1.77,0,0,0,1.57-.94,4,4,0,0,0,.4-2.12,4.89,4.89,0,0,0-.74-2.52,1.9,1.9,0,0,0-1.78-.88,1.68,1.68,0,0,0-1.52,1A4.32,4.32,0,0,0,376.3,96Z"/><path class="cls-1" d="M400.31,90.25a6.55,6.55,0,0,1,4.88,1.67,6.37,6.37,0,0,1,2.25,4.59,6.73,6.73,0,0,1-13.44.78,6.4,6.4,0,0,1,1.67-4.83A6.51,6.51,0,0,1,400.31,90.25ZM400,91.67a2.39,2.39,0,0,0-2.09,1.48,6.39,6.39,0,0,0-.59,3.26,8.67,8.67,0,0,0,1.21,4.13,3,3,0,0,0,2.79,1.62,2.42,2.42,0,0,0,2.1-1.49,6.33,6.33,0,0,0,.6-3.25,10.18,10.18,0,0,0-.55-2.84,5.25,5.25,0,0,0-1.37-2.14A2.76,2.76,0,0,0,400,91.67Z"/><path class="cls-1" d="M417,81.75a5.84,5.84,0,0,1,2.08.19,2.08,2.08,0,0,1,1.13.69,3.33,3.33,0,0,1-.07,1.66,1.07,1.07,0,0,1-1,.79,1.16,1.16,0,0,1-.93-.44q-.43-.47-.9-.93a1.37,1.37,0,0,0-1.07-.43,1.58,1.58,0,0,0-1.29.85,5,5,0,0,0-.65,1.91,12.14,12.14,0,0,0-.08,2.42l.08,1.37s0,0,.07.09a.17.17,0,0,0,.12.05l3.27-.19a.24.24,0,0,1,.15,0,.31.31,0,0,1,0,.18,3.08,3.08,0,0,1-.28,1.39l-3.09.18a.16.16,0,0,0-.17.19l.38,6.62a11.4,11.4,0,0,0,.39,2.66c0,.14.32.26.81.38a4.23,4.23,0,0,0,1,.16c.06,0,.1.14.13.42a1.68,1.68,0,0,1,0,.58q-.18,0-1.55,0c-.92,0-1.61,0-2.08,0s-1.15.1-2,.21l-1.54.21a.56.56,0,0,1-.14-.32,1.84,1.84,0,0,1,0-.46c0-.15,0-.23.11-.23a4,4,0,0,0,1-.28q.7-.26.75-.48a9.79,9.79,0,0,0,.13-2.45l-.4-6.83q0-.21-.19-.2l-1.78.1s-.06-.06-.07-.17a1.59,1.59,0,0,1,.37-.89,1.19,1.19,0,0,1,.92-.59l.47,0a.16.16,0,0,0,.17-.19l0-.3a8.08,8.08,0,0,1,1.55-5.45A5.56,5.56,0,0,1,417,81.75Z"/><path class="cls-1" d="M428.73,99.05a12,12,0,0,1-.77-13.3,5.76,5.76,0,0,1,4.54-3.06,5.67,5.67,0,0,1,4.81,2.52,12.21,12.21,0,0,1,.77,13.3,5.66,5.66,0,0,1-4.48,3.06A5.75,5.75,0,0,1,428.73,99.05Zm1.05-6.76a15.58,15.58,0,0,0,1.29,5.76q1.09,2.29,2.48,2.21t2.19-2.48a17.87,17.87,0,0,0,.5-6A16,16,0,0,0,435,86.08q-1-2.19-2.43-2.11t-2.24,2.44A15.87,15.87,0,0,0,429.78,92.29Z"/><path class="cls-1" d="M446.83,81.18l3.23-.19q2.41-.14,6.54-.68c.06,0,.13.14.22.37a2.22,2.22,0,0,1,.14.59q0,.12-2.53,4.39t-5,8.46l-2.49,4.22a1.21,1.21,0,0,0-.15.46c0,.2.16.29.43.27l5.7-.33a4.77,4.77,0,0,0,4.57-3.81c0-.1.16-.16.38-.17a1.16,1.16,0,0,1,.85.19q-1,4.08-1.16,5.13l-15,.87a1.13,1.13,0,0,1-.28-.76.83.83,0,0,1,.09-.51L452.5,82.4l-5.7.33a7.2,7.2,0,0,0-1.77.34,2.27,2.27,0,0,0-1.11.82A5.16,5.16,0,0,0,443.3,85a13.13,13.13,0,0,0-.45,1.53c0,.1-.15.16-.35.17q-.77,0-1-.15.53-3.75.61-5.34a15.56,15.56,0,0,0,2.19,0Q446.24,81.21,446.83,81.18Z"/><path class="cls-1" d="M466.83,86.39a6.56,6.56,0,0,1,4.88,1.67,6.37,6.37,0,0,1,2.25,4.59,6.78,6.78,0,1,1-7.12-6.26Zm-.3,1.42a2.39,2.39,0,0,0-2.09,1.48,6.39,6.39,0,0,0-.59,3.26,8.67,8.67,0,0,0,1.21,4.13,3,3,0,0,0,2.79,1.63,2.42,2.42,0,0,0,2.1-1.49,6.33,6.33,0,0,0,.6-3.25,10.15,10.15,0,0,0-.55-2.84,5.24,5.24,0,0,0-1.37-2.14A2.75,2.75,0,0,0,466.52,87.81Z"/><path class="cls-1" d="M485.17,85.33q3.83-.22,4.18,5.86l.16,2.82a12.39,12.39,0,0,0,.36,2.66q.07.2.84.38a4.59,4.59,0,0,0,1,.16c.06,0,.1.14.13.42a1.7,1.7,0,0,1,0,.58c-.12,0-.64,0-1.56,0s-1.61,0-2.07,0-1.13.1-2,.2l-1.52.21a.87.87,0,0,1-.15-.56c0-.3,0-.45.09-.45a3.53,3.53,0,0,0,1-.28q.65-.26.7-.47a8.56,8.56,0,0,0,.11-2.18l-.16-2.82a6.45,6.45,0,0,0-.87-3.4,2.39,2.39,0,0,0-2.18-.86,2.75,2.75,0,0,0-1.63.62,1.43,1.43,0,0,0-.65,1.15l.3,5.1a12.46,12.46,0,0,0,.36,2.66c0,.14.32.26.81.38a4.28,4.28,0,0,0,1,.17q.12,0,.16.42a1.71,1.71,0,0,1,0,.58l-1.57,0q-1.33,0-2,0t-2.06.21l-1.58.21a.87.87,0,0,1-.15-.56c0-.3,0-.45.09-.45a4.11,4.11,0,0,0,1.07-.29q.71-.26.76-.48a9.65,9.65,0,0,0,.08-2.18L478,90.33a2.83,2.83,0,0,0-.59-1.87,1.43,1.43,0,0,0-.69-.41,3.38,3.38,0,0,0-.72-.14c-.19,0-.29,0-.29-.07q0-.86.1-.9a42,42,0,0,0,4.73-1.17l.07,0,.09,0h.07c.08,0,.15.06.22.2a.9.9,0,0,1,.11.32A9.77,9.77,0,0,0,481,87.3c0,.08,0,.13,0,.15a.44.44,0,0,0,.14-.1A6.58,6.58,0,0,1,482.94,86,5.2,5.2,0,0,1,485.17,85.33Z"/><path class="cls-1" d="M499.19,84.51a5.51,5.51,0,0,1,2.52.4,4.71,4.71,0,0,1,1.8,1.29,6.93,6.93,0,0,1,1.05,1.7,5.14,5.14,0,0,1,.43,1.72q0,.65-.17.83a1.69,1.69,0,0,1-.9.22l-7.09.41c-.14,0-.2.07-.2.19a5.76,5.76,0,0,0,.51,2.06A4.08,4.08,0,0,0,498.56,95a3.5,3.5,0,0,0,2.28.61,8.16,8.16,0,0,0,.86-.09,4.5,4.5,0,0,0,.76-.19l.61-.23a2.5,2.5,0,0,0,.53-.3l.39-.28.57-.43a.48.48,0,0,1,.16.17.58.58,0,0,1,.11.29.91.91,0,0,1-.15.57,4.83,4.83,0,0,1-1.66,1.7,5.52,5.52,0,0,1-2.89,1,6,6,0,0,1-4.56-1.66,6.41,6.41,0,0,1-2.14-4.54,6.88,6.88,0,0,1,1.45-5A5.76,5.76,0,0,1,499.19,84.51Zm-.13,1.38a2.1,2.1,0,0,0-1.25.49,2.81,2.81,0,0,0-.8,1.06,5.81,5.81,0,0,0-.37,1.14,3.66,3.66,0,0,0-.08.88c0,.14.07.2.19.2l4.81-.28c.18,0,.26-.16.24-.46a3.85,3.85,0,0,0-.82-2.07A2.13,2.13,0,0,0,499.06,85.89Z"/><path class="cls-1" d="M530.7,90.43a16.58,16.58,0,0,1-.31,2.33,5.17,5.17,0,0,1-.56,2.07A16,16,0,0,1,523,96.47,8.93,8.93,0,0,1,516.16,94a9.58,9.58,0,0,1-3.16-6.7,10.22,10.22,0,0,1,2.4-7.39,9.16,9.16,0,0,1,6.77-3.42,32.74,32.74,0,0,1,7.05.4,8.59,8.59,0,0,1,.29,1.93q.2,1.91.23,2.38t-.69.49a1,1,0,0,1-.42-.09,4.14,4.14,0,0,0-.49-1.07,7.61,7.61,0,0,0-1-1.22,4.51,4.51,0,0,0-1.91-1.07,8,8,0,0,0-2.85-.3A5.16,5.16,0,0,0,518,80.6a10.08,10.08,0,0,0-1.28,5.85,10.75,10.75,0,0,0,2.19,6.23,5.94,5.94,0,0,0,5.3,2.3,5.44,5.44,0,0,0,4.09-1.9,4.06,4.06,0,0,0,.63-1.15q.27-.71.41-1.2c.09-.32.16-.49.2-.49Q530.56,90.17,530.7,90.43Z"/><path class="cls-1" d="M538.83,82.22a6.56,6.56,0,0,1,4.88,1.67A6.37,6.37,0,0,1,546,88.47a6.78,6.78,0,1,1-7.12-6.26Zm-.3,1.42a2.39,2.39,0,0,0-2.09,1.48,6.39,6.39,0,0,0-.59,3.26,8.67,8.67,0,0,0,1.21,4.13,3,3,0,0,0,2.79,1.63,2.42,2.42,0,0,0,2.1-1.49,6.33,6.33,0,0,0,.6-3.25,10.18,10.18,0,0,0-.55-2.84,5.25,5.25,0,0,0-1.37-2.14A2.76,2.76,0,0,0,538.53,83.63Z"/><path class="cls-1" d="M553.15,90.26a12.21,12.21,0,0,0,.36,2.66q.07.2.75.42a3.25,3.25,0,0,0,.92.2c.06,0,.1.13.13.41a1.59,1.59,0,0,1,0,.57h-2.38l-1.07,0-1.13.1-1.24.15-1.12.14a.84.84,0,0,1-.15-.54c0-.29,0-.43.09-.44a3.19,3.19,0,0,0,1-.31q.65-.29.7-.5a9.78,9.78,0,0,0,.11-2.21l-.72-12.35a10.37,10.37,0,0,0-.3-2q-.18-.47-1.51-.39l-.3,0c-.12,0-.18-.11-.2-.35s0-.48.15-.49q.92-.14,1.74-.34t1.36-.38q.54-.18.93-.34l.63-.26.2-.1h.06c.08,0,.17.05.26.16a.92.92,0,0,1,.18.29,9.37,9.37,0,0,0-.19,2.81Z"/><path class="cls-1" d="M562.21,89.73a12.2,12.2,0,0,0,.36,2.66q.07.2.75.42a3.26,3.26,0,0,0,.92.2c.06,0,.1.13.13.41a1.59,1.59,0,0,1,0,.57H562l-1.07,0-1.13.1-1.24.15-1.12.14a.84.84,0,0,1-.15-.54c0-.29,0-.43.09-.44a3.18,3.18,0,0,0,1-.31q.65-.29.7-.5a9.83,9.83,0,0,0,.11-2.21L558.44,78a10.45,10.45,0,0,0-.29-2q-.18-.47-1.51-.39l-.3,0q-.18,0-.2-.35t.15-.49q.92-.14,1.74-.34t1.36-.38c.36-.12.67-.23.93-.34l.63-.26.2-.1h.06q.12,0,.26.16a.93.93,0,0,1,.18.29,9.4,9.4,0,0,0-.19,2.81Z"/><path class="cls-1" d="M571.68,80.31a5.51,5.51,0,0,1,2.53.4A4.71,4.71,0,0,1,576,82a6.94,6.94,0,0,1,1.05,1.7,5.12,5.12,0,0,1,.43,1.72q0,.65-.17.83a1.69,1.69,0,0,1-.9.22l-7.09.41c-.14,0-.2.07-.2.19a5.78,5.78,0,0,0,.51,2.05,4.09,4.09,0,0,0,1.42,1.67,3.51,3.51,0,0,0,2.28.61,8.18,8.18,0,0,0,.86-.09,4.49,4.49,0,0,0,.76-.19l.61-.23a2.5,2.5,0,0,0,.53-.3l.39-.28.57-.43a.49.49,0,0,1,.16.17.58.58,0,0,1,.11.29.91.91,0,0,1-.15.57,4.83,4.83,0,0,1-1.66,1.7,5.51,5.51,0,0,1-2.89,1,6,6,0,0,1-4.56-1.66,6.41,6.41,0,0,1-2.14-4.54,6.88,6.88,0,0,1,1.45-5A5.76,5.76,0,0,1,571.68,80.31Zm-.13,1.38a2.11,2.11,0,0,0-1.25.49,2.82,2.82,0,0,0-.8,1.06,5.73,5.73,0,0,0-.37,1.14,3.67,3.67,0,0,0-.08.88c0,.14.07.2.19.2l4.81-.28c.18,0,.26-.16.24-.46a3.85,3.85,0,0,0-.82-2.07A2.13,2.13,0,0,0,571.55,81.69Z"/><path class="cls-1" d="M585.22,79.52a7.18,7.18,0,0,1,2.83.36,4.73,4.73,0,0,1,1.83,1,3.68,3.68,0,0,1-.24,1.7,1.1,1.1,0,0,1-1,.73,1.33,1.33,0,0,1-.92-.24,3.35,3.35,0,0,1-.75-.94,2.15,2.15,0,0,0-2.07-1.25,2.29,2.29,0,0,0-2,1.41,6.36,6.36,0,0,0-.57,3.29,6,6,0,0,0,1.33,3.9,3.51,3.51,0,0,0,2.86,1.13,8.18,8.18,0,0,0,.86-.09,4.44,4.44,0,0,0,.76-.19l.61-.23a2.5,2.5,0,0,0,.53-.3l.39-.28.57-.44a.46.46,0,0,1,.16.17.58.58,0,0,1,.11.29.91.91,0,0,1-.15.57,4.84,4.84,0,0,1-1.66,1.7,5.47,5.47,0,0,1-2.86,1,6,6,0,0,1-4.61-1.67,6.56,6.56,0,0,1-2.13-4.61,6.76,6.76,0,0,1,1.51-4.78A6,6,0,0,1,585.22,79.52Z"/><path class="cls-1" d="M593.9,81.11l-1.81.1c-.14,0-.22-.24-.25-.76a.77.77,0,0,1,0-.27A8.3,8.3,0,0,0,594,78.48c.24-.27.51-.58.8-.92s.62-.79,1-1.32a2.11,2.11,0,0,1,.57,0c.18,0,.27.09.28.15l.17,2.91,2.15-.11,1.47-.07c.16,0,.24.07.25.25a2.87,2.87,0,0,1-.22,1.32l-3.56.21.42,7.15a2.81,2.81,0,0,0,.61,1.78,1.69,1.69,0,0,0,1.43.54,2.79,2.79,0,0,0,.62-.11,3.15,3.15,0,0,0,.52-.19l.38-.2.2-.1q.12,0,.28.25c.11.19.16.32.14.38q-.15.43-1.21,1a4.68,4.68,0,0,1-2.09.67,3.75,3.75,0,0,1-2.68-.84,4,4,0,0,1-1.26-3Z"/><path class="cls-1" d="M608.54,87.11a11,11,0,0,0,.39,2.66q.07.21.83.38a4.37,4.37,0,0,0,1,.16q.12,0,.16.42a1.73,1.73,0,0,1,0,.58l-1.6,0q-1.39,0-2,0t-2.09.21l-1.55.21a.87.87,0,0,1-.15-.56c0-.3,0-.45.09-.45a4.29,4.29,0,0,0,1.05-.28q.73-.27.78-.48a9.65,9.65,0,0,0,.08-2.18L605.24,83a2.82,2.82,0,0,0-.59-1.87,1.64,1.64,0,0,0-.71-.41,3.15,3.15,0,0,0-.72-.14c-.2,0-.3,0-.3-.07q0-.86.13-.9a22.74,22.74,0,0,0,2.38-.5,23.19,23.19,0,0,0,2.31-.67l.23-.07c.1,0,.18.06.25.19a.54.54,0,0,1,.08.32,25.43,25.43,0,0,0-.09,2.57Zm-3.81-12.24a1.81,1.81,0,0,1-.61-1.27,1.76,1.76,0,0,1,.46-1.32,1.87,1.87,0,0,1,2.61-.15,1.76,1.76,0,0,1,.61,1.26,1.82,1.82,0,0,1-.46,1.34,1.83,1.83,0,0,1-2.61.15Z"/><path class="cls-1" d="M623,79.21q-.43-.78-2.12-.68c-.06,0-.1-.13-.11-.41a1,1,0,0,1,.06-.54c.28,0,.76,0,1.45,0s1.25,0,1.7,0,1-.09,1.73-.19,1.19-.16,1.45-.17a.87.87,0,0,1,.12.47c0,.32,0,.48-.15.48a3.55,3.55,0,0,0-1.14.35,1.72,1.72,0,0,0-1,.9l-4.35,10.76a2,2,0,0,1-.36.53.75.75,0,0,1-.49.3c-.2,0-.32,0-.37-.16q-.67-1.3-1.83-3.6t-2-3.89l-1.91-3.58q-.41-.81-2-.72c-.08,0-.13-.15-.15-.47a.68.68,0,0,1,.09-.48c.18,0,.7,0,1.58,0s1.55,0,2,0,1.16-.1,2-.21l1.54-.18a1,1,0,0,1,.1.53c0,.28,0,.42-.11.42a4.37,4.37,0,0,0-1,.24c-.44.14-.65.32-.64.51a.56.56,0,0,0,.08.29l3.33,6.66,2.33-6C623.13,79.79,623.16,79.42,623,79.21Z"/><path class="cls-1" d="M635,76.64a5.51,5.51,0,0,1,2.53.4,4.72,4.72,0,0,1,1.8,1.29,7,7,0,0,1,1.05,1.7,5.12,5.12,0,0,1,.43,1.72c0,.44,0,.71-.17.83a1.69,1.69,0,0,1-.9.22l-7.09.41c-.14,0-.2.07-.2.19a5.78,5.78,0,0,0,.51,2.06,4.09,4.09,0,0,0,1.42,1.67,3.51,3.51,0,0,0,2.28.61,8.18,8.18,0,0,0,.86-.09,4.49,4.49,0,0,0,.76-.19l.61-.23a2.47,2.47,0,0,0,.53-.3l.39-.28.57-.43a.48.48,0,0,1,.16.17.58.58,0,0,1,.11.29.91.91,0,0,1-.15.57A4.85,4.85,0,0,1,638.8,89a5.52,5.52,0,0,1-2.89,1,6,6,0,0,1-4.56-1.66,6.41,6.41,0,0,1-2.14-4.54,6.88,6.88,0,0,1,1.46-5A5.76,5.76,0,0,1,635,76.64ZM634.83,78a2.11,2.11,0,0,0-1.25.49,2.81,2.81,0,0,0-.8,1.06,5.79,5.79,0,0,0-.37,1.14,3.67,3.67,0,0,0-.08.88c0,.14.07.2.19.2l4.81-.28c.18,0,.26-.16.24-.46a3.85,3.85,0,0,0-.82-2.07A2.13,2.13,0,0,0,634.83,78Z"/><path class="cls-1" d="M646.16,86.09a1.94,1.94,0,0,1,.66,1.36,2,2,0,0,1-.5,1.44,1.84,1.84,0,0,1-1.34.69,1.92,1.92,0,0,1-1.46-.53,2,2,0,0,1-.67-1.38,1.91,1.91,0,0,1,.51-1.43,2,2,0,0,1,1.39-.68A1.86,1.86,0,0,1,646.16,86.09Z"/></svg>