<svg id="Layer_1" data-name="Layer 1" xmlns="http://www.w3.org/2000/svg" viewBox="0 0 471.95 136.78"><defs><style>.cls-1{fill:#fff;}</style></defs><title>title</title><path class="cls-1" d="M8.33,54.24a4.69,4.69,0,0,1,1.36-4,6.5,6.5,0,0,1,4-2.07,10.44,10.44,0,0,1,1.46-.1q.63,0,1.77.14l1.57.17a26.56,26.56,0,0,1,1,4.49.32.32,0,0,1-.32.31q-.8.11-.89-.15a5.22,5.22,0,0,0-1.62-2.48,3.38,3.38,0,0,0-2.82-.94,2.74,2.74,0,0,0-2,1,2.91,2.91,0,0,0-.45,2.16,3.43,3.43,0,0,0,.21.83,2.1,2.1,0,0,0,.52.73l.58.57a3.5,3.5,0,0,0,.82.54l.81.43q.21.12,1,.46a9,9,0,0,0,.9.37,10.69,10.69,0,0,0,1.07.5q.87.38,1.23.56t1,.63a4.29,4.29,0,0,1,1,.88,6.08,6.08,0,0,1,.67,1.13,5,5,0,0,1,.44,1.52,4.83,4.83,0,0,1-1.38,4.14,6.88,6.88,0,0,1-4.2,2.12,27.7,27.7,0,0,1-5.53-.11,25.9,25.9,0,0,1-.84-2.6,20.41,20.41,0,0,1-.5-2.08c0-.16.15-.26.44-.3q.77-.1.89.12a5.82,5.82,0,0,0,.57,1.11,8.61,8.61,0,0,0,1,1.25,3.9,3.9,0,0,0,1.54,1,4.18,4.18,0,0,0,2,.2,3.33,3.33,0,0,0,2.19-1.13,3.19,3.19,0,0,0,.58-2.6,2.57,2.57,0,0,0-.32-.95,3.42,3.42,0,0,0-.55-.74,4.33,4.33,0,0,0-.83-.61q-.54-.32-.89-.48l-1-.45-1-.4a2,2,0,0,0-.36-.19l-1.41-.65a14.32,14.32,0,0,1-1.25-.72,5.86,5.86,0,0,1-1.19-.94,5.6,5.6,0,0,1-.8-1.15A4.48,4.48,0,0,1,8.33,54.24Z"/><path class="cls-1" d="M30.51,52.76a6,6,0,0,1,3.49.53,6.23,6.23,0,0,1,3.58,4.86,7,7,0,0,1-6,7.93,6.89,6.89,0,0,1-2.15-.13c-.08,0-.1.15-.06.43l.27,2A10.7,10.7,0,0,0,30.23,71q.06.23.84.35a4.52,4.52,0,0,0,1,.09q.09,0,.16.41a2.65,2.65,0,0,1,.06.55l-1.59.12q-1.38.09-2,.18t-2.07.36l-1.56.3a1,1,0,0,1-.16-.53c0-.29,0-.43,0-.44A4.13,4.13,0,0,0,26,72c.46-.21.71-.4.75-.56a10.73,10.73,0,0,0-.1-2.15L25.16,58.06a2.88,2.88,0,0,0-.73-1.85,1.34,1.34,0,0,0-.71-.34A3.62,3.62,0,0,0,23,55.8c-.2,0-.3,0-.31,0q-.11-.85.06-.91A22.87,22.87,0,0,0,27,53.43l.54-.22c.08,0,.15.19.2.6a1.59,1.59,0,0,1,0,.36A6,6,0,0,1,29,53.31,4.28,4.28,0,0,1,30.51,52.76ZM30,54.42a2.25,2.25,0,0,0-1.5.77,2,2,0,0,0-.4,1.58l.81,6.07a1.83,1.83,0,0,0,1,1.44,2.89,2.89,0,0,0,1.79.35,2.79,2.79,0,0,0,2.12-1.54,5.74,5.74,0,0,0,.47-3.6,7.67,7.67,0,0,0-1.47-3.84A2.93,2.93,0,0,0,30,54.42Z"/><path class="cls-1" d="M44.72,50.85a5.51,5.51,0,0,1,2.55.22,4.72,4.72,0,0,1,1.89,1.16,7,7,0,0,1,1.17,1.61,5.15,5.15,0,0,1,.55,1.68q.09.65-.11.84a1.69,1.69,0,0,1-.88.28l-7,.94c-.14,0-.2.09-.18.2a5.77,5.77,0,0,0,.66,2,4.09,4.09,0,0,0,1.54,1.57,3.5,3.5,0,0,0,2.32.44,8.1,8.1,0,0,0,.85-.16,4.42,4.42,0,0,0,.75-.25l.59-.27a2.58,2.58,0,0,0,.51-.34l.36-.3.54-.48a.49.49,0,0,1,.17.16.57.57,0,0,1,.13.28A.91.91,0,0,1,51,61a4.84,4.84,0,0,1-1.53,1.82A5.52,5.52,0,0,1,46.65,64,6,6,0,0,1,42,62.71a6.41,6.41,0,0,1-2.47-4.37,6.88,6.88,0,0,1,1.08-5.06A5.76,5.76,0,0,1,44.72,50.85Zm0,1.38a2.1,2.1,0,0,0-1.21.58,2.81,2.81,0,0,0-.72,1.12,5.68,5.68,0,0,0-.28,1.16,3.62,3.62,0,0,0,0,.89c0,.14.08.2.2.18l4.77-.63q.27,0,.21-.48a3.86,3.86,0,0,0-1-2A2.13,2.13,0,0,0,44.69,52.23Z"/><path class="cls-1" d="M58,49.08a3.65,3.65,0,0,1,2.87.59,4.75,4.75,0,0,1,1.35,3.16L63,58.65a1.36,1.36,0,0,0,.38.86.89.89,0,0,0,.75.22,1.86,1.86,0,0,0,1-.52q.18,0,.22.3a1.76,1.76,0,0,1-.06.91,7.4,7.4,0,0,1-1.08.89,3.1,3.1,0,0,1-1.36.57,2.17,2.17,0,0,1-1.39-.32,2.44,2.44,0,0,1-1-1l-.2.22q-.17.19-.48.47a8.64,8.64,0,0,1-.7.57,4.78,4.78,0,0,1-.95.53,4.33,4.33,0,0,1-1.14.32,3.55,3.55,0,0,1-2.51-.49,2.82,2.82,0,0,1-1.22-2.1,2.74,2.74,0,0,1,.16-1.37A3.55,3.55,0,0,1,54,57.6a6.09,6.09,0,0,1,1.16-.95,12.31,12.31,0,0,1,1.29-.76l1.41-.65,1.2-.55a.47.47,0,0,0,.2-.51l-.21-1.62A2.55,2.55,0,0,0,58.42,51a1.55,1.55,0,0,0-1.34-.42,1.8,1.8,0,0,0-1.31.73,2.23,2.23,0,0,0-.29,1.61,1,1,0,0,1-.33.93,1.84,1.84,0,0,1-1,.41,1.68,1.68,0,0,1-1.63-.5q-.19-1.42,1.58-2.91A7.45,7.45,0,0,1,58,49.08Zm.18,11.49A2.3,2.3,0,0,0,59.51,60,1.18,1.18,0,0,0,60,59l-.4-3q-.19.12-.83.41t-1,.49a8.25,8.25,0,0,0-.77.52,1.79,1.79,0,0,0-.61.74,1.64,1.64,0,0,0-.11.85,1.83,1.83,0,0,0,.66,1.32A1.71,1.71,0,0,0,58.19,60.57Z"/><path class="cls-1" d="M78,48.43q-.54.43-1.7,1.57a20.94,20.94,0,0,0-2.07,2.37q1,.8,2.47,2.1t2.47,2.13a14.15,14.15,0,0,0,1.34,1.05,3.74,3.74,0,0,0,1.21.44,3.62,3.62,0,0,0,1,.1c.08,0,.14.15.18.49a1.76,1.76,0,0,1,0,.42l-3.47.31-1.13.18-1.26.24L76,60.07a.81.81,0,0,1-.19-.51c0-.27,0-.42.06-.43a2.13,2.13,0,0,0,.66-.22c.24-.12.36-.23.35-.33s0-.06,0-.06l-4.94-4.23-.34.14.24,1.83a12,12,0,0,0,.59,2.62q.08.2.85.32a4.32,4.32,0,0,0,1.06.08c.06,0,.11.13.16.41a1.7,1.7,0,0,1,0,.58L73,60.35q-1.37.09-2,.18t-2,.36l-1.56.33a.88.88,0,0,1-.19-.54c0-.29,0-.45.06-.46a4.16,4.16,0,0,0,1-.36q.69-.32.72-.53a9.73,9.73,0,0,0-.08-2.18L67.25,44.92a11.61,11.61,0,0,0-.41-2q-.21-.45-1.59-.27l-.27,0c-.12,0-.2-.13-.24-.45s0-.48.11-.5q.9-.21,1.71-.47t1.33-.48q.53-.22.9-.42l.8-.41h.06a.32.32,0,0,1,.26.13.82.82,0,0,1,.19.29,9.59,9.59,0,0,0,0,2.82l1.31,9.84a2.7,2.7,0,0,0,.84-.44q.54-.64,1.19-1.34l.93-1q.29-.31.57-.66a2.58,2.58,0,0,0,.36-.54.7.7,0,0,0,.06-.37q0-.32-.72-.31a2.92,2.92,0,0,1-.68,0,1.31,1.31,0,0,1-.16-.5q0-.31.07-.35l2.86-.38q.8-.11,3.11-.53a.47.47,0,0,1,.19.3,1.36,1.36,0,0,1,0,.44q0,.21-.11.22A3.9,3.9,0,0,0,78,48.43Z"/><path class="cls-1" d="M89.74,53.87a10.92,10.92,0,0,0,.59,2.62q.09.2.85.32a4.38,4.38,0,0,0,1,.09c.08,0,.14.13.19.41a1.7,1.7,0,0,1,0,.58L90.84,58q-1.38.09-2,.18t-2.07.36l-1.53.32A.88.88,0,0,1,85,58.3q-.06-.44.06-.46a4.3,4.3,0,0,0,1-.36q.71-.32.74-.53a9.73,9.73,0,0,0-.08-2.18L86.13,50a2.82,2.82,0,0,0-.72-1.82,1.64,1.64,0,0,0-.74-.35,3.13,3.13,0,0,0-.73-.08c-.2,0-.3,0-.31,0q-.11-.85.06-.91A22.78,22.78,0,0,0,86,46.08a23.3,23.3,0,0,0,2.26-.84l.23-.09c.1,0,.19,0,.26.18a.55.55,0,0,1,.1.32q0,1.92.1,2.57ZM85,41.94a1.81,1.81,0,0,1-.7-1.23,1.83,1.83,0,0,1,1.59-2.05,1.78,1.78,0,0,1,1.37.36,1.76,1.76,0,0,1,.7,1.21,1.81,1.81,0,0,1-.36,1.37,1.83,1.83,0,0,1-2.59.34Z"/><path class="cls-1" d="M102.1,43.23q3.8-.5,4.6,5.54l.37,2.8a12.46,12.46,0,0,0,.56,2.62q.09.2.87.32a4.57,4.57,0,0,0,1,.09c.06,0,.11.13.16.41a1.7,1.7,0,0,1,0,.58q-.18,0-1.56.09t-2.06.18q-.71.09-1.95.35l-1.5.32a.87.87,0,0,1-.19-.54q-.06-.44.06-.46a3.56,3.56,0,0,0,1-.35c.42-.21.64-.38.67-.52a8.56,8.56,0,0,0,0-2.18l-.37-2.8a6.46,6.46,0,0,0-1.12-3.33,2.39,2.39,0,0,0-2.24-.69,2.75,2.75,0,0,0-1.58.73,1.43,1.43,0,0,0-.56,1.2l.67,5.07a12.48,12.48,0,0,0,.56,2.63c.06.13.34.24.84.32a4.28,4.28,0,0,0,1,.09c.08,0,.14.13.19.41a1.69,1.69,0,0,1,0,.58l-1.56.09q-1.32.08-2,.18t-2,.36l-1.56.33a.87.87,0,0,1-.19-.54c0-.29,0-.45.06-.46a4.16,4.16,0,0,0,1-.36Q96,56,96,55.74a9.78,9.78,0,0,0-.08-2.18l-.64-4.8a2.82,2.82,0,0,0-.72-1.82,1.43,1.43,0,0,0-.72-.35,3.38,3.38,0,0,0-.73-.08c-.19,0-.29,0-.29-.05q-.11-.85,0-.9A42.14,42.14,0,0,0,97.46,44l.07-.05.09,0h.07c.08,0,.16,0,.23.18a.91.91,0,0,1,.13.31,9.86,9.86,0,0,0,0,1.08.23.23,0,0,0,0,.14.44.44,0,0,0,.14-.11,6.58,6.58,0,0,1,1.65-1.48A5.2,5.2,0,0,1,102.1,43.23Z"/><path class="cls-1" d="M115.61,41.5a9.41,9.41,0,0,1,2.5.06,9.19,9.19,0,0,0,2.41.07l1.68-.22s.12.11.26.36a1.84,1.84,0,0,1,.23.57q.05.41-.12.44l-1.92.25c-.08,0-.11,0-.11.1s.12.26.37.73a4.25,4.25,0,0,1,.45,1.38,4.3,4.3,0,0,1-1,3.33,5.1,5.1,0,0,1-3.45,1.88,12.29,12.29,0,0,1-1.84.12,1.6,1.6,0,0,0-.58.63,1.26,1.26,0,0,0-.2.76.61.61,0,0,0,.35.46,2,2,0,0,0,.91.18q.6,0,1,0l1.19-.1.44-.06a10.5,10.5,0,0,1,4.42.24,2.34,2.34,0,0,1,1.66,2,4.68,4.68,0,0,1-1.61,4.11,8.12,8.12,0,0,1-4.77,2.28,7.73,7.73,0,0,1-3.87-.33,2.67,2.67,0,0,1-1.93-2.2,2.31,2.31,0,0,1,.62-1.76,4.92,4.92,0,0,1,1.66-1.36,3.38,3.38,0,0,1-1.53-.71,2.16,2.16,0,0,1-.85-1.46q-.17-1.27,1.83-2.91A3.93,3.93,0,0,1,112,49a4.37,4.37,0,0,1-1.06-2.3A4,4,0,0,1,112,43.2,5.91,5.91,0,0,1,115.61,41.5Zm-1.67,4.57a4.71,4.71,0,0,0,.91,2.35,1.85,1.85,0,0,0,1.78.77,1.77,1.77,0,0,0,1.49-1.05,3.93,3.93,0,0,0,.24-2.15,4.88,4.88,0,0,0-.93-2.46,1.9,1.9,0,0,0-1.84-.75,1.68,1.68,0,0,0-1.44,1.12A4.32,4.32,0,0,0,113.94,46.07Zm7.79,10.3q-.14-1-1.67-1.17a18.86,18.86,0,0,0-4,.19l-.14,0-.13.11q-.36.2-.56.33a2.54,2.54,0,0,0-.43.39,1.44,1.44,0,0,0-.33.57,1.73,1.73,0,0,0,0,.73,2.08,2.08,0,0,0,1.35,1.62,4.64,4.64,0,0,0,2.6.38,4.49,4.49,0,0,0,2.59-1.12A2.32,2.32,0,0,0,121.72,56.37Z"/><path class="cls-1" d="M149.57,39.21a.86.86,0,0,0-.32-.57,1.31,1.31,0,0,0-.65-.27,5.37,5.37,0,0,0-.7-.06,4.36,4.36,0,0,0-.61,0l-.12,0q-.12,0-.19-.42c0-.29,0-.47,0-.54q.38-.05,1.57-.12c.79,0,1.43-.1,1.9-.16s.93-.15,1.57-.3,1.09-.24,1.39-.27a1.87,1.87,0,0,1,.13.49q.06.44-.06.46a3.39,3.39,0,0,0-1.12.52,1.82,1.82,0,0,0-.9,1l-3,11a1.16,1.16,0,0,1-.34.48,1,1,0,0,1-.55.27.38.38,0,0,1-.41-.16L142.51,43l-2.13,8.11a1.57,1.57,0,0,1-.28.46.9.9,0,0,1-.6.32.44.44,0,0,1-.44-.15q-.88-1.44-2.1-3.51t-2.21-3.65q-1-1.58-2.25-3.42a1.37,1.37,0,0,0-.84-.49,2.88,2.88,0,0,0-1-.08c-.08,0-.14-.14-.18-.46s0-.45.05-.52.7-.06,1.5-.11,1.43-.1,1.88-.16,1.12-.18,2-.35l1.52-.29a1.63,1.63,0,0,1,.13.52c0,.25,0,.4,0,.42a3.53,3.53,0,0,0-1,.34q-.61.29-.55.7s1.29,2.17,3.85,6.39c.14-.58.31-1.24.5-2l.44-1.68c.1-.38.2-.77.3-1.16s.16-.69.2-.88a1.62,1.62,0,0,0,0-.38,2.16,2.16,0,0,0-.54-1.13,1.4,1.4,0,0,0-.71-.39,2.36,2.36,0,0,0-1.08,0c-.08,0-.14-.13-.17-.41s0-.46,0-.53.71-.06,1.47-.1,1.38-.09,1.85-.16,1.07-.17,1.9-.34l1.49-.29a1.44,1.44,0,0,1,.12.54c0,.29,0,.43,0,.44q-1.5.2-1.37,1.23A47.75,47.75,0,0,0,147.92,46q.31-1.3.78-3.06t.69-2.61A4,4,0,0,0,149.57,39.21Z"/><path class="cls-1" d="M161.53,44.34a11,11,0,0,0,.59,2.62q.09.2.85.32a4.36,4.36,0,0,0,1,.09q.12,0,.19.41a1.67,1.67,0,0,1,0,.58l-1.59.09q-1.38.09-2,.18t-2.07.36l-1.53.32a.88.88,0,0,1-.19-.54c0-.29,0-.45.06-.46a4.32,4.32,0,0,0,1-.36q.71-.32.74-.53a9.73,9.73,0,0,0-.08-2.18l-.64-4.8a2.82,2.82,0,0,0-.72-1.82,1.65,1.65,0,0,0-.74-.35,3.15,3.15,0,0,0-.73-.08c-.2,0-.3,0-.31,0q-.11-.85.06-.91a22.9,22.9,0,0,0,2.34-.67,23.37,23.37,0,0,0,2.26-.84l.23-.09c.1,0,.18,0,.26.18a.54.54,0,0,1,.1.32,25.41,25.41,0,0,0,.1,2.57Zm-4.7-11.93a1.81,1.81,0,0,1-.7-1.23,1.83,1.83,0,0,1,1.59-2.05,1.83,1.83,0,0,1,2.07,1.57,1.81,1.81,0,0,1-.36,1.37,1.83,1.83,0,0,1-2.59.34Z"/><path class="cls-1" d="M166.24,36.82l-1.8.24c-.14,0-.24-.23-.31-.74a.77.77,0,0,1,0-.27,8.33,8.33,0,0,0,2.06-1.86q.33-.43.73-1t.91-1.4a2.12,2.12,0,0,1,.57,0c.18,0,.28.07.29.13l.38,2.89,2.14-.27,1.46-.18c.16,0,.25.06.27.23a2.88,2.88,0,0,1-.12,1.34l-3.54.47.94,7.1a2.82,2.82,0,0,0,.74,1.73,1.7,1.7,0,0,0,1.47.44,2.83,2.83,0,0,0,.61-.16,3.17,3.17,0,0,0,.51-.23l.36-.23.2-.12c.08,0,.18,0,.3.23s.18.31.17.37c-.08.29-.46.67-1.13,1.12a4.69,4.69,0,0,1-2,.82,3.74,3.74,0,0,1-2.74-.64,4,4,0,0,1-1.48-2.91Z"/><path class="cls-1" d="M184.51,32.29q3.77-.5,4.54,5.31l.4,3a10.89,10.89,0,0,0,.59,2.62c0,.14.32.24.84.32a4.57,4.57,0,0,0,1,.09c.06,0,.11.13.16.41a3.11,3.11,0,0,1,.06.58l-1.59.09q-1.38.09-2,.18t-2,.35L185,45.6a1.11,1.11,0,0,1-.16-.55c0-.29,0-.45,0-.45a3.55,3.55,0,0,0,1-.36q.63-.31.7-.53a11.37,11.37,0,0,0-.11-2.17l-.38-2.89A6.2,6.2,0,0,0,185,35.37a2.43,2.43,0,0,0-2.23-.65,2.85,2.85,0,0,0-1.55.72,1.4,1.4,0,0,0-.59,1.22l.67,5.07a10.86,10.86,0,0,0,.59,2.62c.06.13.34.24.84.32a4.23,4.23,0,0,0,1,.09c.06,0,.11.13.16.41a1.69,1.69,0,0,1,0,.58l-1.56.09q-1.32.08-2,.18t-2,.36l-1.56.33a.87.87,0,0,1-.19-.54q-.06-.44.06-.46a4.16,4.16,0,0,0,1-.36q.69-.32.72-.53a9.66,9.66,0,0,0-.08-2.15l-1.63-12.26a11.68,11.68,0,0,0-.41-2q-.21-.45-1.6-.27l-.26,0q-.18,0-.24-.45c0-.31,0-.48.11-.5q.9-.21,1.71-.47c.54-.17,1-.33,1.33-.48s.65-.29.9-.42l.8-.41h.06a.32.32,0,0,1,.26.13.84.84,0,0,1,.19.29,9.55,9.55,0,0,0,0,2.82l.79,6c0,.12.06.17.14.16s.06,0,.11-.1a5.67,5.67,0,0,1,1.64-1.52A5.47,5.47,0,0,1,184.51,32.29Z"/><path class="cls-1" d="M208.3,26.86l1.58,11.91a11.18,11.18,0,0,1-1.26,7.43,7.16,7.16,0,0,1-5.47,3.54,3.12,3.12,0,0,1-1,0,2,2,0,0,1-.69-.21,2.15,2.15,0,0,1-.56-1.28,1.46,1.46,0,0,1,.41-1.22,2,2,0,0,1,1.23-.64,2,2,0,0,1,1.44.59q.82.67,1.24.62,1.09-.15,1.46-2.25a20.43,20.43,0,0,0-.13-5.85l-1.63-12.32a10.31,10.31,0,0,0-.53-2.39q-.14-.34-.88-.41a5.74,5.74,0,0,0-1.21,0c-.08,0-.14-.13-.18-.43a1.23,1.23,0,0,1,0-.54l1.28-.09,1.51-.13,1.27-.14,3.72-.67a1.5,1.5,0,0,1,.15.46c0,.33,0,.51-.05.52a4.65,4.65,0,0,0-1,.37c-.5.23-.76.41-.78.55A11,11,0,0,0,208.3,26.86Z"/><path class="cls-1" d="M219.36,27.67a6.56,6.56,0,0,1,5,1.3,6.38,6.38,0,0,1,2.58,4.41,6.73,6.73,0,0,1-13.35,1.77,6.4,6.4,0,0,1,1.31-4.94A6.51,6.51,0,0,1,219.36,27.67Zm-.2,1.44a2.39,2.39,0,0,0-2,1.63,6.38,6.38,0,0,0-.34,3.3,8.67,8.67,0,0,0,1.51,4,3,3,0,0,0,2.9,1.41,2.42,2.42,0,0,0,2-1.64,6.32,6.32,0,0,0,.36-3.29,10.19,10.19,0,0,0-.76-2.79,5.25,5.25,0,0,0-1.53-2A2.75,2.75,0,0,0,219.16,29.1Z"/><path class="cls-1" d="M232.75,25.86a12.64,12.64,0,0,1,3.48,0,16.65,16.65,0,0,1,.76,3.26q0,.24-.35.29-.65.09-.74-.14a3.61,3.61,0,0,0-1.1-1.64,2.32,2.32,0,0,0-1.88-.49,2.13,2.13,0,0,0-1.29.56,1.32,1.32,0,0,0-.34,1.16,1.72,1.72,0,0,0,.26.73,1.84,1.84,0,0,0,.61.56,7.54,7.54,0,0,0,.71.39c.2.09.5.21.9.36l.31.11.47.18.52.2.51.22a5.39,5.39,0,0,1,.56.27l.5.29a2.36,2.36,0,0,1,.5.35l.41.41a1.93,1.93,0,0,1,.38.49,5.55,5.55,0,0,1,.24.54,2.7,2.7,0,0,1,.16.62,3.51,3.51,0,0,1-1,3.12A5.65,5.65,0,0,1,234,39.28a9.93,9.93,0,0,1-3.91-.32,11.9,11.9,0,0,1-.51-1.6,14.72,14.72,0,0,1-.37-1.67.64.64,0,0,1,.39-.2c.45-.06.7,0,.74.14a3.27,3.27,0,0,0,1.43,1.83,3.17,3.17,0,0,0,2.12.48,2.16,2.16,0,0,0,1.3-.59,1.45,1.45,0,0,0,.37-1.28,1.91,1.91,0,0,0-.15-.54,1.44,1.44,0,0,0-.35-.46l-.39-.37a2.16,2.16,0,0,0-.58-.33l-.63-.26-.79-.29-.8-.3a6.9,6.9,0,0,1-2.3-1.3,3.43,3.43,0,0,1,0-5A5.73,5.73,0,0,1,232.75,25.86Z"/><path class="cls-1" d="M245.08,24.25a5.51,5.51,0,0,1,2.55.22,4.72,4.72,0,0,1,1.89,1.16,6.91,6.91,0,0,1,1.17,1.61,5.1,5.1,0,0,1,.55,1.68q.09.65-.11.84a1.68,1.68,0,0,1-.88.28l-7,.94c-.14,0-.2.09-.18.2a5.76,5.76,0,0,0,.66,2,4.1,4.1,0,0,0,1.54,1.57,3.5,3.5,0,0,0,2.32.44,8.05,8.05,0,0,0,.85-.16,4.47,4.47,0,0,0,.75-.25l.59-.27a2.5,2.5,0,0,0,.51-.34l.37-.3.54-.48a.46.46,0,0,1,.17.16.56.56,0,0,1,.13.28.91.91,0,0,1-.1.58,4.82,4.82,0,0,1-1.53,1.82A5.52,5.52,0,0,1,247,37.43a6,6,0,0,1-4.67-1.31,6.41,6.41,0,0,1-2.47-4.37,6.88,6.88,0,0,1,1.08-5.06A5.76,5.76,0,0,1,245.08,24.25Zm0,1.38a2.1,2.1,0,0,0-1.21.58,2.79,2.79,0,0,0-.72,1.12,5.69,5.69,0,0,0-.28,1.16,3.68,3.68,0,0,0,0,.89c0,.14.09.2.21.18l4.77-.63c.18,0,.25-.18.21-.48a3.85,3.85,0,0,0-1-2A2.13,2.13,0,0,0,245.05,25.64Z"/><path class="cls-1" d="M260.23,22.27a6,6,0,0,1,3.49.53,6.27,6.27,0,0,1,2.49,2.07,6.34,6.34,0,0,1,1.09,2.79,7,7,0,0,1-6,7.93,6.9,6.9,0,0,1-2.15-.13q-.12,0-.06.43l.27,2a10.69,10.69,0,0,0,.59,2.62q.06.23.84.35a4.52,4.52,0,0,0,1,.09q.09,0,.16.41a2.65,2.65,0,0,1,.06.55l-1.59.12q-1.38.09-2,.18t-2.07.36l-1.57.3a1.07,1.07,0,0,1-.16-.53c0-.29,0-.43,0-.44a4.16,4.16,0,0,0,1-.36q.69-.32.75-.56a10.89,10.89,0,0,0-.11-2.15l-1.49-11.26a2.88,2.88,0,0,0-.73-1.85,1.34,1.34,0,0,0-.7-.34,3.58,3.58,0,0,0-.73-.07c-.2,0-.3,0-.31,0q-.11-.85.06-.91a22.85,22.85,0,0,0,4.28-1.41l.54-.22q.12,0,.2.6a1.67,1.67,0,0,1,0,.36,6,6,0,0,1,1.22-.87A4.27,4.27,0,0,1,260.23,22.27Zm-.5,1.66a2.25,2.25,0,0,0-1.5.77,2,2,0,0,0-.41,1.58l.81,6.07a1.83,1.83,0,0,0,1,1.44,2.89,2.89,0,0,0,1.79.35,2.79,2.79,0,0,0,2.12-1.54A5.74,5.74,0,0,0,264,29a7.68,7.68,0,0,0-1.47-3.84A2.92,2.92,0,0,0,259.73,23.93Z"/><path class="cls-1" d="M278,19.88q3.77-.5,4.54,5.3l.4,3a10.9,10.9,0,0,0,.59,2.62c0,.13.32.24.84.32a4.57,4.57,0,0,0,1,.09c.06,0,.11.13.16.41a3.23,3.23,0,0,1,.06.58l-1.59.09q-1.38.09-2,.18t-2,.35l-1.53.32a1.1,1.1,0,0,1-.16-.55q-.06-.44,0-.45a3.55,3.55,0,0,0,1-.36q.63-.31.7-.53a11.39,11.39,0,0,0-.11-2.17l-.38-2.89A6.2,6.2,0,0,0,278.49,23a2.43,2.43,0,0,0-2.23-.65,2.85,2.85,0,0,0-1.56.72,1.4,1.4,0,0,0-.59,1.22l.67,5.07a10.85,10.85,0,0,0,.59,2.62q.08.2.84.32a4.23,4.23,0,0,0,1,.09c.06,0,.11.13.16.41a1.7,1.7,0,0,1,0,.58l-1.56.09q-1.32.08-2,.18t-2,.36l-1.56.33a.87.87,0,0,1-.19-.54q-.06-.44.06-.46a4.14,4.14,0,0,0,1-.36q.69-.32.72-.53a9.65,9.65,0,0,0-.08-2.15L270.2,18a11.68,11.68,0,0,0-.41-2c-.14-.3-.67-.39-1.6-.27l-.26,0q-.18,0-.24-.45c0-.31,0-.48.11-.5q.9-.21,1.71-.47t1.33-.48q.53-.22.9-.42l.8-.41h.06a.32.32,0,0,1,.26.13.82.82,0,0,1,.19.29,9.56,9.56,0,0,0,0,2.82l.79,6c0,.12.06.17.14.16s.06,0,.11-.1a5.65,5.65,0,0,1,1.64-1.52A5.48,5.48,0,0,1,278,19.88Z"/><path class="cls-1" d="M297.5,15,299,26.1a8.73,8.73,0,0,0,.58,2.32q.2.36,2.06.12l1.09-.14a8,8,0,0,0,3.42-1.08,3.41,3.41,0,0,0,.92-1.17,6.27,6.27,0,0,0,.68-1.92c0-.12.13-.2.39-.23a1.28,1.28,0,0,1,.85.07q-.05.28-.27,1.27l-.33,1.5q-.11.51-.22,1.24a8.46,8.46,0,0,0-.11,1.18q-1.18.16-4.89.56t-5.21.66l-3.9.64c-.07-.05-.12-.2-.15-.46s0-.51,0-.51a4.89,4.89,0,0,0,1.09-.34q.71-.29.79-.57a10.81,10.81,0,0,0-.15-2.71l-1.48-11.14a9.07,9.07,0,0,0-.57-2.47q-.15-.22-.89-.35a4,4,0,0,0-1.09-.08c-.08,0-.14-.13-.18-.43a1.2,1.2,0,0,1,0-.54l1.65-.13q1.5-.11,2.29-.21l3.75-.68a1.49,1.49,0,0,1,.15.46c0,.33,0,.51-.05.52a4.89,4.89,0,0,0-1,.38q-.76.34-.79.56A11,11,0,0,0,297.5,15Z"/><path class="cls-1" d="M315.75,14.87a5.53,5.53,0,0,1,2.55.22,4.71,4.71,0,0,1,1.89,1.16,6.89,6.89,0,0,1,1.17,1.61,5.1,5.1,0,0,1,.55,1.68q.09.65-.11.84a1.69,1.69,0,0,1-.88.28l-7,.93c-.14,0-.2.09-.18.2a5.76,5.76,0,0,0,.66,2,4.08,4.08,0,0,0,1.54,1.57,3.5,3.5,0,0,0,2.32.44,8,8,0,0,0,.85-.16,4.39,4.39,0,0,0,.75-.25l.59-.27a2.53,2.53,0,0,0,.51-.34l.36-.3.54-.48a.47.47,0,0,1,.17.16.57.57,0,0,1,.13.28.91.91,0,0,1-.1.58,4.82,4.82,0,0,1-1.53,1.82,5.51,5.51,0,0,1-2.81,1.18A6,6,0,0,1,313,26.74a6.41,6.41,0,0,1-2.47-4.37,6.88,6.88,0,0,1,1.08-5.06A5.76,5.76,0,0,1,315.75,14.87Zm0,1.38a2.1,2.1,0,0,0-1.21.58,2.79,2.79,0,0,0-.72,1.12,5.69,5.69,0,0,0-.28,1.16,3.63,3.63,0,0,0,0,.89c0,.14.09.2.2.18l4.77-.63q.27,0,.21-.48a3.84,3.84,0,0,0-1-2A2.13,2.13,0,0,0,315.73,16.26Z"/><path class="cls-1" d="M328.9,13.13a5.51,5.51,0,0,1,2.55.22,4.7,4.7,0,0,1,1.89,1.16,6.88,6.88,0,0,1,1.17,1.61,5.1,5.1,0,0,1,.55,1.68q.09.65-.11.84a1.69,1.69,0,0,1-.88.28l-7,.94c-.14,0-.2.09-.18.2a5.76,5.76,0,0,0,.66,2,4.09,4.09,0,0,0,1.54,1.57,3.51,3.51,0,0,0,2.32.44,8.11,8.11,0,0,0,.85-.16,4.39,4.39,0,0,0,.75-.25l.59-.27a2.55,2.55,0,0,0,.51-.34l.36-.3.54-.48a.47.47,0,0,1,.17.16.57.57,0,0,1,.13.28.91.91,0,0,1-.1.58,4.82,4.82,0,0,1-1.53,1.82,5.51,5.51,0,0,1-2.81,1.18A6,6,0,0,1,326.16,25a6.4,6.4,0,0,1-2.47-4.37,6.88,6.88,0,0,1,1.08-5.06A5.76,5.76,0,0,1,328.9,13.13Zm0,1.38a2.11,2.11,0,0,0-1.21.58,2.79,2.79,0,0,0-.72,1.12,5.63,5.63,0,0,0-.28,1.16,3.63,3.63,0,0,0,0,.89c0,.14.09.2.2.18l4.77-.63q.27,0,.21-.48a3.84,3.84,0,0,0-1-2A2.13,2.13,0,0,0,328.88,14.51Z"/><path class="cls-1" d="M348.66,10.51a3.65,3.65,0,0,1,2.87.59,4.76,4.76,0,0,1,1.35,3.16l.77,5.81a1.36,1.36,0,0,0,.38.86.89.89,0,0,0,.75.22,1.85,1.85,0,0,0,1-.52c.12,0,.2.12.22.3a1.76,1.76,0,0,1-.06.91,7.37,7.37,0,0,1-1.08.89,3.11,3.11,0,0,1-1.37.57,2.17,2.17,0,0,1-1.39-.33,2.43,2.43,0,0,1-1-1l-.2.22q-.17.19-.48.47a8.77,8.77,0,0,1-.7.57,4.76,4.76,0,0,1-.95.53,4.31,4.31,0,0,1-1.14.32,3.55,3.55,0,0,1-2.51-.49,2.83,2.83,0,0,1-1.22-2.1,2.75,2.75,0,0,1,.16-1.37,3.56,3.56,0,0,1,.68-1.12,6.09,6.09,0,0,1,1.16-.95,12.1,12.1,0,0,1,1.29-.76l1.41-.65,1.2-.55a.47.47,0,0,0,.2-.51L349.75,14a2.55,2.55,0,0,0-.69-1.56,1.55,1.55,0,0,0-1.34-.42,1.8,1.8,0,0,0-1.31.73,2.22,2.22,0,0,0-.3,1.61,1,1,0,0,1-.33.93,1.84,1.84,0,0,1-1,.41,1.68,1.68,0,0,1-1.63-.5q-.19-1.41,1.58-2.91A7.45,7.45,0,0,1,348.66,10.51ZM348.84,22a2.29,2.29,0,0,0,1.31-.59,1.17,1.17,0,0,0,.45-1l-.4-3q-.19.12-.83.41c-.42.2-.75.36-1,.49a8.12,8.12,0,0,0-.77.52,1.8,1.8,0,0,0-.61.74,1.65,1.65,0,0,0-.11.85,1.83,1.83,0,0,0,.66,1.32A1.71,1.71,0,0,0,348.84,22Z"/><path class="cls-1" d="M363.61,8.52A6,6,0,0,1,367,9a6.23,6.23,0,0,1,2.52,2.06,6.34,6.34,0,0,1,1.14,2.86,6.79,6.79,0,0,1-1.39,5.21,6.56,6.56,0,0,1-4.46,2.68,9.31,9.31,0,0,1-2.18.06,6.49,6.49,0,0,0-1.41,0,2.25,2.25,0,0,0-.74.31,2.92,2.92,0,0,1-.56.28,1.42,1.42,0,0,1-.45-.12c-.24-.09-.37-.17-.38-.25s0-.24,0-.54,0-.73,0-1.29a17,17,0,0,0-.15-1.81l-1.6-12a10.39,10.39,0,0,0-.44-2c-.14-.3-.67-.39-1.59-.27l-.27,0q-.18,0-.24-.45t.12-.5c.6-.14,1.17-.29,1.71-.47s1-.33,1.33-.48.65-.29.9-.42l.8-.41h.06a.32.32,0,0,1,.26.13.81.81,0,0,1,.19.29,10.36,10.36,0,0,0,0,2.81l.63,4.71v0l0,.13a.89.89,0,0,0,0,.13q0,.09.07.08l.1,0A5.41,5.41,0,0,1,362.16,9,4.27,4.27,0,0,1,363.61,8.52Zm-.44,1.68a2.3,2.3,0,0,0-1.52.77,1.75,1.75,0,0,0-.44,1.41l.83,6.25a1.78,1.78,0,0,0,1,1.46,3.22,3.22,0,0,0,1.91.29,2.53,2.53,0,0,0,2.13-1.69,6.81,6.81,0,0,0,.34-3.46A7.64,7.64,0,0,0,366,11.33,2.91,2.91,0,0,0,363.17,10.2Z"/><path class="cls-1" d="M378.53,6.54a6.56,6.56,0,0,1,5,1.3,6.38,6.38,0,0,1,2.58,4.41,6.48,6.48,0,0,1-1.31,4.94,6.74,6.74,0,0,1-12-3.17,6.4,6.4,0,0,1,1.31-4.94A6.51,6.51,0,0,1,378.53,6.54ZM378.33,8a2.39,2.39,0,0,0-2,1.63,6.38,6.38,0,0,0-.34,3.3,8.67,8.67,0,0,0,1.51,4,3,3,0,0,0,2.9,1.41,2.42,2.42,0,0,0,2-1.64,6.32,6.32,0,0,0,.36-3.29,10.19,10.19,0,0,0-.76-2.79,5.25,5.25,0,0,0-1.53-2A2.76,2.76,0,0,0,378.33,8Z"/><path class="cls-1" d="M400.41,6.88l.77,5.83a6.55,6.55,0,0,0,.51,2,.61.61,0,0,0,.37.19,2.3,2.3,0,0,0,.53,0l.49,0a.55.55,0,0,1,.25,0c.08,0,.13.09.15.25a2.49,2.49,0,0,1,0,.41c0,.19-.06.29-.14.3a6.83,6.83,0,0,0-1,.24l-1.2.37-1.09.37-1.15.39c-.14,0-.23-.13-.27-.44l-.17-1.3c0-.1-.07-.14-.11-.14A6.67,6.67,0,0,1,396.71,17a5,5,0,0,1-2.25.9,3.11,3.11,0,0,1-1.82-.27,3.57,3.57,0,0,1-1.35-1.14,6.36,6.36,0,0,1-.85-1.63A9,9,0,0,1,390,13l-.44-3.3a2.83,2.83,0,0,0-.72-1.82,1.65,1.65,0,0,0-.74-.35,3.14,3.14,0,0,0-.73-.08c-.2,0-.3,0-.31,0q-.11-.85,0-.9a22.42,22.42,0,0,0,2.37-.67A23.2,23.2,0,0,0,391.73,5l.11,0,.11,0c.1,0,.18,0,.25.18a1.09,1.09,0,0,1,.12.31q0,2,.08,2.63l.47,3.54A6.37,6.37,0,0,0,394,14.75a2.62,2.62,0,0,0,3.74-.06,1.58,1.58,0,0,0,.5-1.19l-.65-4.86a2.83,2.83,0,0,0-.72-1.82,1.43,1.43,0,0,0-.72-.35,3.37,3.37,0,0,0-.75-.08q-.3,0-.31,0-.11-.85.06-.91a22.77,22.77,0,0,0,2.34-.67,23.2,23.2,0,0,0,2.26-.84l.23-.09c.1,0,.19,0,.26.18a.55.55,0,0,1,.1.32Q400.34,6.35,400.41,6.88Z"/><path class="cls-1" d="M405.75,5l-1.8.24q-.21,0-.31-.74a.73.73,0,0,1,0-.27A8.33,8.33,0,0,0,405.7,2.4q.33-.43.72-1t.91-1.4a2.12,2.12,0,0,1,.57,0c.18,0,.28.07.29.13L408.58,3l2.14-.27,1.46-.18c.16,0,.25.06.27.23a2.88,2.88,0,0,1-.12,1.34l-3.54.47.94,7.1a2.82,2.82,0,0,0,.74,1.73,1.7,1.7,0,0,0,1.47.44,2.82,2.82,0,0,0,.61-.16,3.24,3.24,0,0,0,.51-.23l.36-.23.2-.12c.08,0,.18,0,.3.23s.18.31.17.37q-.12.44-1.13,1.12a4.69,4.69,0,0,1-2,.82,3.75,3.75,0,0,1-2.74-.64,4,4,0,0,1-1.48-2.91Z"/><path class="cls-1" d="M5.38,99.7a3.65,3.65,0,0,1,2.88.53,4.76,4.76,0,0,1,1.42,3.13l.9,5.79a1.36,1.36,0,0,0,.4.85.89.89,0,0,0,.75.2,1.85,1.85,0,0,0,.94-.54c.12,0,.2.12.23.3a1.76,1.76,0,0,1,0,.91,7.23,7.23,0,0,1-1.06.92,3.1,3.1,0,0,1-1.35.6,2.17,2.17,0,0,1-1.4-.29,2.44,2.44,0,0,1-1-1l-.19.23q-.17.19-.47.48a8.73,8.73,0,0,1-.69.59,4.81,4.81,0,0,1-.94.55,4.32,4.32,0,0,1-1.14.34,3.55,3.55,0,0,1-2.52-.44,2.82,2.82,0,0,1-1.27-2.07A2.75,2.75,0,0,1,1,109.45a3.58,3.58,0,0,1,.65-1.14,6.1,6.1,0,0,1,1.14-1A12,12,0,0,1,4,106.55l1.4-.68,1.19-.58a.47.47,0,0,0,.19-.51l-.25-1.62a2.56,2.56,0,0,0-.72-1.54,1.56,1.56,0,0,0-1.36-.39,1.8,1.8,0,0,0-1.3.76,2.23,2.23,0,0,0-.26,1.62,1,1,0,0,1-.31.94,1.86,1.86,0,0,1-1,.43A1.68,1.68,0,0,1,0,104.51q-.22-1.41,1.51-2.94A7.46,7.46,0,0,1,5.38,99.7Zm.43,11.49a2.3,2.3,0,0,0,1.3-.62,1.17,1.17,0,0,0,.43-1l-.47-3c-.13.08-.4.22-.82.43s-.74.38-1,.51a8.15,8.15,0,0,0-.76.54,1.79,1.79,0,0,0-.59.75,1.63,1.63,0,0,0-.09.86,1.83,1.83,0,0,0,.69,1.31A1.7,1.7,0,0,0,5.82,111.19Z"/><path class="cls-1" d="M20.29,97.39a6,6,0,0,1,3.42.42,6.23,6.23,0,0,1,2.57,2,6.35,6.35,0,0,1,1.21,2.84,6.78,6.78,0,0,1-1.28,5.24,6.55,6.55,0,0,1-4.4,2.77,9.31,9.31,0,0,1-2.18.11,6.47,6.47,0,0,0-1.41,0,2.26,2.26,0,0,0-.73.32,3,3,0,0,1-.55.3,1.43,1.43,0,0,1-.45-.11c-.24-.08-.37-.16-.38-.24s0-.24,0-.54,0-.73,0-1.29a16.79,16.79,0,0,0-.19-1.81L14,95.42a10.48,10.48,0,0,0-.49-2q-.22-.45-1.6-.23l-.26,0c-.12,0-.2-.13-.25-.44s0-.48.1-.5q.9-.23,1.7-.5t1.32-.51q.52-.23.89-.44l.79-.42h.06a.32.32,0,0,1,.26.13.85.85,0,0,1,.2.29,10.38,10.38,0,0,0,.11,2.81l.73,4.7v0l0,.13a1,1,0,0,0,0,.13c0,.06,0,.08.07.08l.1,0a5.44,5.44,0,0,1,1.1-.77A4.27,4.27,0,0,1,20.29,97.39Zm-.4,1.69a2.3,2.3,0,0,0-1.5.81A1.75,1.75,0,0,0,18,101.3l1,6.23A1.78,1.78,0,0,0,20,109a3.22,3.22,0,0,0,1.92.24A2.53,2.53,0,0,0,24,107.46a6.81,6.81,0,0,0,.26-3.47,7.63,7.63,0,0,0-1.53-3.85A2.91,2.91,0,0,0,19.89,99.07Z"/><path class="cls-1" d="M35.16,95.07a6.56,6.56,0,0,1,5,1.19,6.37,6.37,0,0,1,2.68,4.35,6.75,6.75,0,0,1-10.64,6.44,6.69,6.69,0,0,1-1.47-9.34A6.51,6.51,0,0,1,35.16,95.07ZM35,96.51a2.39,2.39,0,0,0-1.94,1.67,6.39,6.39,0,0,0-.27,3.31,8.66,8.66,0,0,0,1.6,4,3,3,0,0,0,2.93,1.35,2.42,2.42,0,0,0,1.95-1.69,6.31,6.31,0,0,0,.29-3.29,10.17,10.17,0,0,0-.82-2.78,5.23,5.23,0,0,0-1.57-2A2.76,2.76,0,0,0,35,96.51Z"/><path class="cls-1" d="M57,94.92l.91,5.82a6.58,6.58,0,0,0,.55,2,.61.61,0,0,0,.38.18,2.3,2.3,0,0,0,.53,0l.49,0a.55.55,0,0,1,.25,0c.08,0,.13.09.16.25a2.36,2.36,0,0,1,0,.41q0,.29-.13.31a6.79,6.79,0,0,0-1,.27l-1.19.4-1.08.39-1.14.42q-.21,0-.28-.44l-.2-1.29c0-.09-.07-.14-.11-.13a6.63,6.63,0,0,1-1.59,1.6,5,5,0,0,1-2.23.95,3.11,3.11,0,0,1-1.83-.23,3.59,3.59,0,0,1-1.38-1.11,6.4,6.4,0,0,1-.88-1.61,9,9,0,0,1-.48-1.82L46.27,98a2.83,2.83,0,0,0-.76-1.81,1.65,1.65,0,0,0-.74-.34,3.15,3.15,0,0,0-.73-.07q-.3,0-.31,0-.13-.85,0-.9a22.36,22.36,0,0,0,2.35-.73,23.24,23.24,0,0,0,2.24-.89l.11,0,.11,0c.1,0,.18,0,.25.17a1.09,1.09,0,0,1,.12.31,26,26,0,0,0,.14,2.63l.55,3.53a6.37,6.37,0,0,0,1.16,3.19,2.63,2.63,0,0,0,3.74-.15,1.59,1.59,0,0,0,.48-1.2l-.75-4.85a2.83,2.83,0,0,0-.76-1.81,1.43,1.43,0,0,0-.73-.34,3.36,3.36,0,0,0-.75-.06c-.2,0-.3,0-.31,0q-.13-.85,0-.91A22.78,22.78,0,0,0,54,92.86,23.24,23.24,0,0,0,56.28,92l.23-.1c.1,0,.19,0,.27.17a.55.55,0,0,1,.11.31Q57,94.39,57,94.92Z"/><path class="cls-1" d="M62.34,93l-1.79.28c-.14,0-.25-.22-.32-.73a.76.76,0,0,1,0-.27,8.33,8.33,0,0,0,2-1.91q.32-.44.7-1t.88-1.42a2.11,2.11,0,0,1,.57,0c.18,0,.28.06.29.12l.45,2.88,2.13-.32,1.46-.21c.16,0,.25.05.28.23a2.9,2.9,0,0,1-.09,1.34l-3.53.55,1.1,7.08a2.82,2.82,0,0,0,.78,1.71,1.7,1.7,0,0,0,1.48.4,2.79,2.79,0,0,0,.61-.17,3.17,3.17,0,0,0,.5-.24l.35-.24.19-.12q.11,0,.31.22c.13.18.19.3.18.36q-.11.44-1.1,1.15a4.68,4.68,0,0,1-2,.87,3.75,3.75,0,0,1-2.75-.58,4,4,0,0,1-1.54-2.87Z"/><path class="cls-1" d="M83.81,96.47a12.29,12.29,0,0,0,.62,2.61q.09.2.79.34a3.28,3.28,0,0,0,.93.11c.06,0,.11.12.17.39a1.6,1.6,0,0,1,0,.57l-1.11.1-1.26.12-1.06.14-1.11.2-1.22.27-1.1.25a.84.84,0,0,1-.2-.52q-.07-.43.05-.44a3.16,3.16,0,0,0,.95-.4q.62-.35.65-.57a9.79,9.79,0,0,0-.1-2.21L78.93,85.2a10.38,10.38,0,0,0-.49-2q-.22-.45-1.54-.24l-.29,0c-.12,0-.2-.09-.23-.33s0-.48.1-.5c.6-.15,1.16-.32,1.7-.5s1-.35,1.32-.51.65-.3.9-.43l.6-.32.19-.12h.06a.36.36,0,0,1,.28.14.89.89,0,0,1,.21.27,9.42,9.42,0,0,0,.08,2.82Z"/><path class="cls-1" d="M92.33,86.18a5.51,5.51,0,0,1,2.55.16,4.71,4.71,0,0,1,1.92,1.12A6.91,6.91,0,0,1,98,89a5.13,5.13,0,0,1,.59,1.67c.07.43,0,.71-.09.84a1.69,1.69,0,0,1-.87.3l-7,1.09c-.14,0-.2.09-.18.21a5.76,5.76,0,0,0,.7,2,4.09,4.09,0,0,0,1.58,1.53,3.5,3.5,0,0,0,2.33.39,8,8,0,0,0,.84-.18,4.44,4.44,0,0,0,.74-.27l.59-.29a2.51,2.51,0,0,0,.5-.35l.36-.31.52-.49a.47.47,0,0,1,.17.15.57.57,0,0,1,.13.28.91.91,0,0,1-.09.59,4.85,4.85,0,0,1-1.49,1.86,5.51,5.51,0,0,1-2.79,1.25,6,6,0,0,1-4.7-1.21,6.41,6.41,0,0,1-2.57-4.31,6.88,6.88,0,0,1,1-5.08A5.76,5.76,0,0,1,92.33,86.18Zm0,1.38a2.1,2.1,0,0,0-1.2.61,2.8,2.8,0,0,0-.7,1.13,5.72,5.72,0,0,0-.26,1.17,3.69,3.69,0,0,0,0,.89q0,.21.21.18l4.76-.74q.26,0,.2-.48a3.85,3.85,0,0,0-1-2A2.13,2.13,0,0,0,92.33,87.56Z"/><path class="cls-1" d="M101.44,86.87l-1.79.28q-.21,0-.33-.73a.73.73,0,0,1,0-.27,8.33,8.33,0,0,0,2-1.91q.32-.44.7-1c.25-.37.55-.84.88-1.42a2.13,2.13,0,0,1,.57,0c.18,0,.28.06.29.12l.45,2.88,2.13-.32,1.46-.21c.16,0,.25.05.28.23a2.88,2.88,0,0,1-.09,1.34l-3.52.55,1.1,7.08a2.82,2.82,0,0,0,.78,1.71,1.7,1.7,0,0,0,1.48.4,2.78,2.78,0,0,0,.61-.17,3.12,3.12,0,0,0,.5-.24l.35-.24.19-.12c.07,0,.18,0,.31.22s.19.3.18.36q-.11.44-1.1,1.15a4.68,4.68,0,0,1-2,.87,3.75,3.75,0,0,1-2.75-.58A4,4,0,0,1,102.54,94Z"/><path class="cls-1" d="M112,85.22l-1.79.28c-.14,0-.25-.22-.33-.73a.73.73,0,0,1,0-.27,8.35,8.35,0,0,0,2-1.91c.21-.29.45-.63.7-1s.54-.84.88-1.42a2.14,2.14,0,0,1,.57,0c.18,0,.28.06.29.12l.45,2.88,2.13-.32,1.46-.21c.16,0,.25.05.28.23a2.9,2.9,0,0,1-.09,1.34l-3.53.55,1.1,7.08a2.82,2.82,0,0,0,.78,1.71,1.7,1.7,0,0,0,1.48.4,2.82,2.82,0,0,0,.61-.17,3.2,3.2,0,0,0,.5-.24l.35-.24.19-.12c.07,0,.18,0,.31.22s.19.3.18.36q-.11.44-1.1,1.15a4.68,4.68,0,0,1-2,.87,3.75,3.75,0,0,1-2.75-.58,4,4,0,0,1-1.54-2.87Z"/><path class="cls-1" d="M127.18,89.79a10.92,10.92,0,0,0,.65,2.61q.09.2.86.3a4.38,4.38,0,0,0,1,.06c.08,0,.14.12.2.41a1.73,1.73,0,0,1,0,.58l-1.59.13q-1.38.12-2,.23t-2.06.41l-1.52.36a.87.87,0,0,1-.2-.54c0-.29,0-.45,0-.46a4.33,4.33,0,0,0,1-.38q.7-.33.73-.55a9.76,9.76,0,0,0-.13-2.18L123.48,86a2.83,2.83,0,0,0-.76-1.81,1.64,1.64,0,0,0-.74-.34,3.12,3.12,0,0,0-.73-.07c-.2,0-.3,0-.31,0q-.13-.85,0-.91a22.71,22.71,0,0,0,2.32-.72,23.16,23.16,0,0,0,2.24-.89l.23-.1c.1,0,.19,0,.27.17a.55.55,0,0,1,.11.31q.06,1.92.16,2.56Zm-5-11.82a1.81,1.81,0,0,1-.73-1.21,1.84,1.84,0,0,1,3.64-.57,1.82,1.82,0,0,1-.33,1.38,1.83,1.83,0,0,1-2.59.4Z"/><path class="cls-1" d="M139.3,78.88q3.79-.59,4.73,5.43l.43,2.79a12.3,12.3,0,0,0,.62,2.61q.09.2.87.3a4.57,4.57,0,0,0,1,.06c.06,0,.11.13.17.41a1.69,1.69,0,0,1,0,.58q-.18,0-1.56.12t-2.05.23q-.71.11-1.94.39l-1.5.35a.88.88,0,0,1-.2-.54q-.07-.44,0-.46a3.56,3.56,0,0,0,1-.37c.42-.22.64-.4.65-.54a8.59,8.59,0,0,0-.1-2.18l-.43-2.79a6.46,6.46,0,0,0-1.19-3.3,2.39,2.39,0,0,0-2.25-.64,2.75,2.75,0,0,0-1.56.77,1.43,1.43,0,0,0-.54,1.21l.79,5.05a12.36,12.36,0,0,0,.62,2.61c.06.13.34.23.84.3a4.28,4.28,0,0,0,1,.07c.08,0,.14.12.2.41a1.69,1.69,0,0,1,0,.58l-1.56.12q-1.32.11-2,.22t-2,.41l-1.55.36a.87.87,0,0,1-.2-.54q-.07-.44,0-.46a4.14,4.14,0,0,0,1-.39c.46-.22.69-.4.71-.55a9.7,9.7,0,0,0-.13-2.18l-.74-4.79a2.83,2.83,0,0,0-.76-1.81,1.43,1.43,0,0,0-.73-.34,3.35,3.35,0,0,0-.73-.07c-.19,0-.29,0-.29,0q-.13-.85,0-.9a41.92,41.92,0,0,0,4.59-1.62l.07-.06.09,0h.07c.08,0,.16,0,.24.17a.91.91,0,0,1,.14.31,10.13,10.13,0,0,0,0,1.08.24.24,0,0,0,.05.14.46.46,0,0,0,.13-.11,6.59,6.59,0,0,1,1.61-1.51A5.2,5.2,0,0,1,139.3,78.88Z"/><path class="cls-1" d="M152.77,76.84a9.41,9.41,0,0,1,2.5,0,9.18,9.18,0,0,0,2.41,0l1.67-.26s.13.11.27.35a1.83,1.83,0,0,1,.24.56c0,.27,0,.42-.11.44l-1.91.3c-.08,0-.11,0-.1.11s.13.26.38.72a4.21,4.21,0,0,1,.48,1.37,4.3,4.3,0,0,1-1,3.35,5.1,5.1,0,0,1-3.41,2,12.37,12.37,0,0,1-1.84.17,1.59,1.59,0,0,0-.56.64,1.27,1.27,0,0,0-.18.77.61.61,0,0,0,.36.46,2,2,0,0,0,.91.16q.6,0,1,0l1.18-.12.44-.07a10.49,10.49,0,0,1,4.43.14,2.34,2.34,0,0,1,1.7,1.95A4.67,4.67,0,0,1,160.15,94a8.12,8.12,0,0,1-4.71,2.39,7.72,7.72,0,0,1-3.87-.24,2.67,2.67,0,0,1-2-2.16,2.32,2.32,0,0,1,.58-1.78,4.93,4.93,0,0,1,1.63-1.4,3.39,3.39,0,0,1-1.55-.68,2.16,2.16,0,0,1-.89-1.44q-.2-1.26,1.77-3a3.94,3.94,0,0,1-1.82-1.27,4.38,4.38,0,0,1-1.11-2.28,4,4,0,0,1,1-3.53A5.91,5.91,0,0,1,152.77,76.84Zm-1.57,4.61a4.69,4.69,0,0,0,1,2.33,1.85,1.85,0,0,0,1.8.73,1.77,1.77,0,0,0,1.47-1.09,3.94,3.94,0,0,0,.19-2.15,4.88,4.88,0,0,0-1-2.44,1.9,1.9,0,0,0-1.85-.7,1.68,1.68,0,0,0-1.42,1.15A4.31,4.31,0,0,0,151.2,81.45Zm8,10.13q-.16-1-1.7-1.14a18.84,18.84,0,0,0-4,.28l-.14.05-.13.11c-.24.14-.42.25-.55.34a2.55,2.55,0,0,0-.42.4,1.43,1.43,0,0,0-.32.58,1.73,1.73,0,0,0,0,.73,2.08,2.08,0,0,0,1.39,1.59,4.63,4.63,0,0,0,2.61.32,4.49,4.49,0,0,0,2.57-1.18A2.32,2.32,0,0,0,159.21,91.57Z"/><path class="cls-1" d="M173.52,73.61a9.41,9.41,0,0,1,2.5,0,9.15,9.15,0,0,0,2.41,0l1.67-.26s.13.11.26.35a1.83,1.83,0,0,1,.24.56c0,.27,0,.42-.11.44l-1.91.3c-.08,0-.11,0-.1.11s.13.26.38.72a4.23,4.23,0,0,1,.48,1.37,4.3,4.3,0,0,1-1,3.35,5.1,5.1,0,0,1-3.41,2,12.31,12.31,0,0,1-1.84.17,1.6,1.6,0,0,0-.56.64,1.27,1.27,0,0,0-.18.77.61.61,0,0,0,.36.46,2,2,0,0,0,.91.16q.6,0,1,0l1.19-.12.44-.07a10.49,10.49,0,0,1,4.43.14,2.34,2.34,0,0,1,1.7,1.95,4.68,4.68,0,0,1-1.52,4.15,8.13,8.13,0,0,1-4.71,2.39,7.73,7.73,0,0,1-3.87-.24,2.67,2.67,0,0,1-2-2.16,2.31,2.31,0,0,1,.58-1.78,4.94,4.94,0,0,1,1.63-1.4,3.37,3.37,0,0,1-1.55-.68,2.16,2.16,0,0,1-.89-1.44q-.2-1.26,1.77-3a3.93,3.93,0,0,1-1.82-1.27A4.38,4.38,0,0,1,169,78.92a4,4,0,0,1,1-3.53A5.92,5.92,0,0,1,173.52,73.61ZM172,78.22a4.7,4.7,0,0,0,1,2.33,1.85,1.85,0,0,0,1.8.73,1.77,1.77,0,0,0,1.47-1.09,3.94,3.94,0,0,0,.19-2.15,4.88,4.88,0,0,0-1-2.44,1.9,1.9,0,0,0-1.85-.7,1.68,1.68,0,0,0-1.42,1.15A4.31,4.31,0,0,0,172,78.22Zm8,10.13q-.16-1-1.7-1.13a18.83,18.83,0,0,0-4,.28l-.14.05-.13.11q-.36.21-.55.34a2.47,2.47,0,0,0-.42.4,1.44,1.44,0,0,0-.32.58,1.74,1.74,0,0,0,0,.73A2.08,2.08,0,0,0,174,91.28a4.63,4.63,0,0,0,2.61.32,4.49,4.49,0,0,0,2.57-1.18A2.32,2.32,0,0,0,180,88.35Z"/><path class="cls-1" d="M188.85,71.17a6.56,6.56,0,0,1,5,1.19,6.37,6.37,0,0,1,2.68,4.35,6.73,6.73,0,0,1-13.31,2.07,6.4,6.4,0,0,1,1.2-5A6.52,6.52,0,0,1,188.85,71.17Zm-.17,1.44a2.39,2.39,0,0,0-1.94,1.67,6.38,6.38,0,0,0-.27,3.31,8.66,8.66,0,0,0,1.6,4A3,3,0,0,0,191,82.93,2.43,2.43,0,0,0,193,81.24a6.31,6.31,0,0,0,.29-3.29,10.17,10.17,0,0,0-.82-2.77,5.25,5.25,0,0,0-1.57-2A2.75,2.75,0,0,0,188.68,72.61Z"/><path class="cls-1" d="M210.49,67.8a6.56,6.56,0,0,1,5,1.19,6.37,6.37,0,0,1,2.68,4.35,6.73,6.73,0,0,1-13.31,2.07,6.4,6.4,0,0,1,1.2-5A6.52,6.52,0,0,1,210.49,67.8Zm-.17,1.44a2.39,2.39,0,0,0-1.94,1.67,6.4,6.4,0,0,0-.27,3.31,8.66,8.66,0,0,0,1.6,4,3,3,0,0,0,2.93,1.35,2.42,2.42,0,0,0,1.95-1.69,6.32,6.32,0,0,0,.28-3.29,10.17,10.17,0,0,0-.82-2.78,5.24,5.24,0,0,0-1.57-2A2.76,2.76,0,0,0,210.32,69.24Z"/><path class="cls-1" d="M226.26,57.74a5.85,5.85,0,0,1,2.09,0,2.08,2.08,0,0,1,1.19.58,3.34,3.34,0,0,1,.09,1.66,1.07,1.07,0,0,1-1,.89,1.16,1.16,0,0,1-1-.35q-.47-.42-1-.84a1.37,1.37,0,0,0-1.1-.32,1.58,1.58,0,0,0-1.2,1,5,5,0,0,0-.46,2,12.08,12.08,0,0,0,.15,2.41L224.3,66s0,0,.07.08a.17.17,0,0,0,.13,0l3.23-.5a.24.24,0,0,1,.15,0,.31.31,0,0,1,.06.17,3.06,3.06,0,0,1-.14,1.41l-3.05.47a.16.16,0,0,0-.15.2l1,6.55a11.33,11.33,0,0,0,.65,2.61c.06.13.34.23.84.31a4.22,4.22,0,0,0,1,.07c.06,0,.11.13.17.41a1.7,1.7,0,0,1,0,.58c-.12,0-.64,0-1.55.12s-1.6.16-2.07.23-1.13.21-2,.4l-1.51.36a.56.56,0,0,1-.17-.31,1.77,1.77,0,0,1-.07-.46c0-.15,0-.23.08-.24a4,4,0,0,0,1-.38q.67-.33.7-.54a9.81,9.81,0,0,0-.11-2.45l-1.05-6.76c0-.14-.09-.2-.21-.18l-1.76.27s-.07,0-.09-.17a1.6,1.6,0,0,1,.28-.92,1.2,1.2,0,0,1,.86-.68l.47-.07a.16.16,0,0,0,.15-.2l0-.29a8.08,8.08,0,0,1,1-5.57A5.56,5.56,0,0,1,226.26,57.74Z"/><path class="cls-1" d="M242.35,62.85a7.18,7.18,0,0,1,2.86.08,4.72,4.72,0,0,1,1.92.86,3.67,3.67,0,0,1-.08,1.71,1.1,1.1,0,0,1-.91.82,1.33,1.33,0,0,1-.94-.15,3.38,3.38,0,0,1-.84-.86,2.15,2.15,0,0,0-2.18-1,2.29,2.29,0,0,0-1.81,1.59,6.36,6.36,0,0,0-.25,3.33,6,6,0,0,0,1.7,3.75,3.51,3.51,0,0,0,3,.85,8.06,8.06,0,0,0,.84-.18,4.46,4.46,0,0,0,.74-.27l.59-.29a2.49,2.49,0,0,0,.5-.35l.36-.31.53-.49a.46.46,0,0,1,.17.15.56.56,0,0,1,.13.28.91.91,0,0,1-.09.59,4.84,4.84,0,0,1-1.49,1.86A5.47,5.47,0,0,1,244.31,76a6,6,0,0,1-4.75-1.22A6.56,6.56,0,0,1,237,70.42a6.76,6.76,0,0,1,1-4.9A6,6,0,0,1,242.35,62.85Z"/><path class="cls-1" d="M255.71,69.79a10.93,10.93,0,0,0,.65,2.61c.06.13.35.23.86.3a4.37,4.37,0,0,0,1,.06q.12,0,.2.41a1.7,1.7,0,0,1,0,.58l-1.59.13q-1.38.12-2,.23t-2.06.41l-1.52.36a.87.87,0,0,1-.21-.54c0-.29,0-.45,0-.46a4.3,4.3,0,0,0,1-.38c.47-.22.71-.41.73-.55a9.75,9.75,0,0,0-.13-2.18L252,66a2.83,2.83,0,0,0-.76-1.81,1.64,1.64,0,0,0-.74-.34,3.1,3.1,0,0,0-.73-.07c-.2,0-.3,0-.31,0q-.13-.85,0-.91a22.86,22.86,0,0,0,2.32-.72,23.4,23.4,0,0,0,2.24-.89l.23-.1q.15,0,.27.17a.55.55,0,0,1,.11.31q.06,1.92.16,2.56Zm-5-11.82a1.8,1.8,0,0,1-.73-1.21,1.76,1.76,0,0,1,.33-1.36,1.84,1.84,0,0,1,3.31.79,1.82,1.82,0,0,1-.33,1.38,1.83,1.83,0,0,1-2.58.4Z"/><path class="cls-1" d="M260.25,62.17l-1.79.28c-.14,0-.25-.22-.33-.73a.73.73,0,0,1,0-.27,8.34,8.34,0,0,0,2-1.91c.21-.29.45-.63.7-1s.54-.84.88-1.42a2.14,2.14,0,0,1,.57,0c.18,0,.28.06.29.12l.45,2.88,2.13-.32,1.46-.21c.16,0,.25.05.28.23a2.9,2.9,0,0,1-.09,1.34l-3.53.55,1.1,7.08a2.82,2.82,0,0,0,.78,1.71,1.7,1.7,0,0,0,1.48.4,2.8,2.8,0,0,0,.61-.17,3.12,3.12,0,0,0,.5-.24l.35-.24.19-.12c.07,0,.18,0,.31.22s.19.3.18.36q-.11.44-1.1,1.15a4.68,4.68,0,0,1-2,.87,3.75,3.75,0,0,1-2.75-.58,4,4,0,0,1-1.54-2.87Z"/><path class="cls-1" d="M275.41,66.73a10.93,10.93,0,0,0,.65,2.61q.09.2.86.3a4.38,4.38,0,0,0,1,.06c.08,0,.14.12.2.41a1.73,1.73,0,0,1,0,.58l-1.59.13q-1.38.12-2,.23t-2.06.41l-1.52.36a.87.87,0,0,1-.2-.54q-.07-.44,0-.46a4.28,4.28,0,0,0,1-.38q.7-.33.73-.55a9.76,9.76,0,0,0-.13-2.18l-.74-4.79a2.83,2.83,0,0,0-.76-1.81,1.65,1.65,0,0,0-.74-.34,3.12,3.12,0,0,0-.73-.07c-.2,0-.3,0-.31,0q-.13-.85,0-.91a22.71,22.71,0,0,0,2.32-.72,23.16,23.16,0,0,0,2.24-.89L274,58c.1,0,.19,0,.27.17a.55.55,0,0,1,.11.31q.06,1.92.16,2.56Zm-5-11.82a1.81,1.81,0,0,1-.73-1.21,1.82,1.82,0,0,1,1.54-2.09,1.83,1.83,0,0,1,2.1,1.52,1.82,1.82,0,0,1-.33,1.38,1.83,1.83,0,0,1-2.59.4Z"/><path class="cls-1" d="M283.55,68.11c0,.06.07.1.17.12a.65.65,0,0,0,.21,0l2.85-.44a3,3,0,0,0,2.58-2.75c0-.2.18-.33.47-.37a.64.64,0,0,1,.61.15l.05,3.81-10,1.55q-.64-.26-.69-.58a.17.17,0,0,1,0-.12L285,58.2l-3.12.43a2.14,2.14,0,0,0-.55.16,2.68,2.68,0,0,0-.44.25,1.78,1.78,0,0,0-.35.34,2.12,2.12,0,0,0-.24.37c-.05.11-.11.24-.18.4s-.11.28-.14.37-.06.2-.1.35a1.42,1.42,0,0,0-.05.25c0,.13-.28.22-.71.29-.21,0-.33,0-.33,0s0-.61,0-1.54,0-1.7-.09-2.29q1.76-.09,2.82-.26l3.58-.56a31.11,31.11,0,0,0,3.66-.81,2.47,2.47,0,0,1,.17.7l-5.2,11A.92.92,0,0,0,283.55,68.11Z"/><path class="cls-1" d="M296.91,54.36a5.51,5.51,0,0,1,2.55.16,4.72,4.72,0,0,1,1.92,1.12,7,7,0,0,1,1.21,1.59,5.11,5.11,0,0,1,.59,1.67q.1.65-.09.84a1.69,1.69,0,0,1-.87.3l-7,1.09q-.21,0-.18.21a5.78,5.78,0,0,0,.7,2,4.09,4.09,0,0,0,1.58,1.53,3.5,3.5,0,0,0,2.33.39,8.12,8.12,0,0,0,.84-.18,4.46,4.46,0,0,0,.74-.27l.59-.29a2.54,2.54,0,0,0,.5-.35l.36-.31.53-.49a.47.47,0,0,1,.17.15.57.57,0,0,1,.13.28.91.91,0,0,1-.09.59,4.83,4.83,0,0,1-1.49,1.86,5.51,5.51,0,0,1-2.79,1.25,6,6,0,0,1-4.7-1.21A6.41,6.41,0,0,1,291.86,62a6.88,6.88,0,0,1,1-5.08A5.76,5.76,0,0,1,296.91,54.36Zm0,1.38a2.1,2.1,0,0,0-1.2.61,2.8,2.8,0,0,0-.7,1.13,5.73,5.73,0,0,0-.26,1.17,3.69,3.69,0,0,0,0,.89c0,.14.09.2.21.18l4.76-.74c.18,0,.24-.19.2-.48a3.85,3.85,0,0,0-1-2A2.13,2.13,0,0,0,296.91,55.74Z"/><path class="cls-1" d="M313.6,51.77q3.79-.59,4.73,5.43l.43,2.79a12.3,12.3,0,0,0,.62,2.61q.09.2.87.3a4.54,4.54,0,0,0,1,.06c.06,0,.11.13.17.41a1.69,1.69,0,0,1,0,.58q-.18,0-1.56.12t-2.05.23q-.71.11-1.94.39l-1.5.35a.87.87,0,0,1-.2-.54q-.07-.44,0-.46a3.54,3.54,0,0,0,1-.37c.42-.22.64-.39.65-.54a8.59,8.59,0,0,0-.1-2.18l-.43-2.79a6.46,6.46,0,0,0-1.19-3.3,2.39,2.39,0,0,0-2.25-.64,2.75,2.75,0,0,0-1.56.77,1.43,1.43,0,0,0-.54,1.21l.79,5.05a12.36,12.36,0,0,0,.62,2.61c.06.13.34.23.84.3a4.28,4.28,0,0,0,1,.07c.08,0,.14.12.2.41a1.69,1.69,0,0,1,0,.58l-1.56.12q-1.32.11-2,.22t-2,.41l-1.55.36a.87.87,0,0,1-.2-.54c0-.29,0-.45,0-.46a4.14,4.14,0,0,0,1-.39c.46-.22.69-.4.71-.55a9.7,9.7,0,0,0-.13-2.18l-.74-4.79a2.83,2.83,0,0,0-.76-1.81,1.43,1.43,0,0,0-.73-.34,3.35,3.35,0,0,0-.73-.07q-.28,0-.29,0-.13-.85,0-.9A42,42,0,0,0,309,52.66l.07-.06.09,0h.07c.08,0,.16,0,.24.17a.91.91,0,0,1,.14.31,9.75,9.75,0,0,0,0,1.08.23.23,0,0,0,.05.14.46.46,0,0,0,.13-.11,6.61,6.61,0,0,1,1.61-1.51A5.2,5.2,0,0,1,313.6,51.77Z"/><path class="cls-1" d="M326.23,49.77a12.63,12.63,0,0,1,3.49,0,16.78,16.78,0,0,1,.83,3.24c0,.16-.09.25-.35.29-.43.07-.68,0-.74-.13a3.61,3.61,0,0,0-1.14-1.61,2.33,2.33,0,0,0-1.89-.44,2.13,2.13,0,0,0-1.28.59,1.32,1.32,0,0,0-.32,1.16,1.72,1.72,0,0,0,.28.72,1.85,1.85,0,0,0,.63.55,7.44,7.44,0,0,0,.72.37q.3.13.91.34l.32.1.48.17.53.19.51.21a5.78,5.78,0,0,1,.57.26l.51.28a2.3,2.3,0,0,1,.5.34l.42.4a1.88,1.88,0,0,1,.39.48,5.77,5.77,0,0,1,.25.53,2.78,2.78,0,0,1,.17.62,3.5,3.5,0,0,1-1,3.14,5.64,5.64,0,0,1-3.28,1.61,9.93,9.93,0,0,1-3.92-.23,11.91,11.91,0,0,1-.55-1.58,14.43,14.43,0,0,1-.41-1.67.63.63,0,0,1,.39-.21q.67-.11.74.13a3.28,3.28,0,0,0,1.47,1.8,3.17,3.17,0,0,0,2.13.44,2.16,2.16,0,0,0,1.29-.62,1.45,1.45,0,0,0,.34-1.29,1.92,1.92,0,0,0-.16-.53,1.47,1.47,0,0,0-.36-.46l-.4-.36a2.13,2.13,0,0,0-.59-.31l-.64-.25-.79-.27-.81-.28a6.92,6.92,0,0,1-2.33-1.25,3.43,3.43,0,0,1-.08-5A5.73,5.73,0,0,1,326.23,49.77Z"/><path class="cls-1" d="M342.11,47.33q3.76-.58,4.66,5.2l.47,3a10.87,10.87,0,0,0,.65,2.61q.06.2.84.31a4.59,4.59,0,0,0,1,.06c.06,0,.11.13.17.41a3.11,3.11,0,0,1,.07.57l-1.59.13c-.92.08-1.6.16-2,.23s-1.15.21-2,.4l-1.52.36a1.11,1.11,0,0,1-.17-.54q-.07-.44,0-.45a3.56,3.56,0,0,0,1-.38c.42-.22.65-.4.68-.54a11.35,11.35,0,0,0-.16-2.17l-.45-2.88a6.2,6.2,0,0,0-1.18-3.26,2.43,2.43,0,0,0-2.24-.6,2.85,2.85,0,0,0-1.54.75,1.4,1.4,0,0,0-.56,1.23l.79,5.05a10.87,10.87,0,0,0,.65,2.61q.09.2.84.31a4.23,4.23,0,0,0,1,.07c.06,0,.11.13.17.41a1.7,1.7,0,0,1,0,.58l-1.56.12q-1.32.11-2,.22t-2,.41l-1.55.36a.87.87,0,0,1-.21-.54q-.07-.44,0-.46a4.18,4.18,0,0,0,1-.39q.69-.33.71-.55a9.65,9.65,0,0,0-.12-2.15l-1.9-12.22a11.71,11.71,0,0,0-.46-2q-.22-.45-1.6-.23l-.26,0c-.12,0-.2-.13-.25-.44s0-.48.1-.5q.9-.23,1.7-.5t1.32-.51c.35-.15.65-.3.89-.44l.79-.42h.06a.32.32,0,0,1,.26.13.84.84,0,0,1,.2.29,9.56,9.56,0,0,0,.08,2.82l.92,5.93c0,.12.07.17.15.16s.05,0,.1-.11a5.65,5.65,0,0,1,1.61-1.56A5.48,5.48,0,0,1,342.11,47.33Z"/><path class="cls-1" d="M356.38,54.14a10.94,10.94,0,0,0,.65,2.61c.06.13.35.23.86.3a4.42,4.42,0,0,0,1,.07c.08,0,.14.12.2.41a1.73,1.73,0,0,1,0,.58l-1.59.13q-1.38.12-2,.23t-2.06.41l-1.52.36a.87.87,0,0,1-.21-.54q-.07-.44,0-.46a4.34,4.34,0,0,0,1-.38c.46-.22.71-.41.73-.55a9.77,9.77,0,0,0-.13-2.18l-.74-4.79a2.83,2.83,0,0,0-.76-1.81,1.65,1.65,0,0,0-.74-.34,3.15,3.15,0,0,0-.73-.07c-.2,0-.3,0-.31,0q-.13-.85,0-.91a22.71,22.71,0,0,0,2.32-.72,23.31,23.31,0,0,0,2.24-.89l.23-.1c.1,0,.19,0,.27.17a.55.55,0,0,1,.11.31q.06,1.92.16,2.56Zm-5-11.82a1.8,1.8,0,0,1-.73-1.21A1.83,1.83,0,0,1,352.23,39a1.78,1.78,0,0,1,1.38.33,1.76,1.76,0,0,1,.73,1.2,1.82,1.82,0,0,1-.33,1.37,1.83,1.83,0,0,1-2.58.4Z"/><path class="cls-1" d="M366.92,43.5a6,6,0,0,1,3.5.45,6.23,6.23,0,0,1,3.69,4.78,7,7,0,0,1-5.82,8.06,6.9,6.9,0,0,1-2.15-.09q-.12,0-.05.43l.31,2a10.64,10.64,0,0,0,.65,2.61q.07.23.85.33a4.56,4.56,0,0,0,1,.06c.06,0,.12.13.17.41a2.7,2.7,0,0,1,.07.54l-1.58.16q-1.38.12-2,.23c-.49.08-1.18.21-2.06.41l-1.56.33a1.06,1.06,0,0,1-.17-.53q-.07-.43,0-.44a4.18,4.18,0,0,0,1-.39q.69-.33.74-.58a11,11,0,0,0-.15-2.14l-1.75-11.22a2.88,2.88,0,0,0-.77-1.84,1.34,1.34,0,0,0-.71-.33,3.58,3.58,0,0,0-.73-.05q-.3,0-.31,0-.13-.85,0-.91a22.86,22.86,0,0,0,4.25-1.5L364,44q.12,0,.21.6a1.59,1.59,0,0,1,0,.36,5.94,5.94,0,0,1,1.2-.89A4.26,4.26,0,0,1,366.92,43.5Zm-.46,1.67A2.25,2.25,0,0,0,365,46a2,2,0,0,0-.37,1.59l.94,6.05a1.83,1.83,0,0,0,1,1.42,2.89,2.89,0,0,0,1.79.31,2.79,2.79,0,0,0,2.08-1.59,5.75,5.75,0,0,0,.39-3.61,7.67,7.67,0,0,0-1.55-3.81A2.92,2.92,0,0,0,366.46,45.17Z"/><path class="cls-1" d="M387.67,40.24a3.65,3.65,0,0,1,2.88.53A4.75,4.75,0,0,1,392,43.91l.9,5.79a1.35,1.35,0,0,0,.4.85.89.89,0,0,0,.75.2,1.86,1.86,0,0,0,.94-.54c.12,0,.2.12.23.3a1.77,1.77,0,0,1,0,.91,7.33,7.33,0,0,1-1.06.92,3.1,3.1,0,0,1-1.35.6,2.17,2.17,0,0,1-1.4-.29,2.45,2.45,0,0,1-1-1l-.19.23c-.11.13-.27.29-.47.48A8.85,8.85,0,0,1,389,53a4.73,4.73,0,0,1-.94.55,4.29,4.29,0,0,1-1.13.34,3.55,3.55,0,0,1-2.52-.44,2.83,2.83,0,0,1-1.27-2.07,2.75,2.75,0,0,1,.13-1.37,3.59,3.59,0,0,1,.65-1.14,6.09,6.09,0,0,1,1.14-1,12.23,12.23,0,0,1,1.28-.79q.54-.28,1.4-.68l1.19-.58a.47.47,0,0,0,.19-.51l-.25-1.62a2.56,2.56,0,0,0-.72-1.54,1.55,1.55,0,0,0-1.35-.39,1.8,1.8,0,0,0-1.3.76,2.23,2.23,0,0,0-.26,1.62,1,1,0,0,1-.31.94,1.85,1.85,0,0,1-1,.43,1.68,1.68,0,0,1-1.64-.47q-.22-1.41,1.51-2.94A7.45,7.45,0,0,1,387.67,40.24Zm.43,11.49a2.3,2.3,0,0,0,1.3-.62,1.17,1.17,0,0,0,.43-1l-.47-3q-.19.12-.82.43c-.42.21-.74.38-1,.51a8.25,8.25,0,0,0-.76.54,1.79,1.79,0,0,0-.59.75,1.63,1.63,0,0,0-.09.86,1.83,1.83,0,0,0,.68,1.31A1.7,1.7,0,0,0,388.1,51.73Z"/><path class="cls-1" d="M404.68,37.6q3.79-.59,4.73,5.43l.43,2.79a12.36,12.36,0,0,0,.62,2.61c.06.13.35.23.87.3a4.58,4.58,0,0,0,1,.06c.06,0,.11.13.17.41a1.71,1.71,0,0,1,0,.58q-.18,0-1.56.12t-2.06.23q-.7.11-1.94.39l-1.49.35a.87.87,0,0,1-.21-.54c0-.29,0-.45,0-.46a3.57,3.57,0,0,0,1-.37c.42-.22.63-.39.65-.54a8.58,8.58,0,0,0-.1-2.18L406.46,44a6.45,6.45,0,0,0-1.19-3.31,2.39,2.39,0,0,0-2.25-.64,2.75,2.75,0,0,0-1.56.77,1.43,1.43,0,0,0-.53,1.21l.79,5.05a12.42,12.42,0,0,0,.62,2.61c.06.13.34.23.85.31a4.28,4.28,0,0,0,1,.07q.12,0,.2.41a1.73,1.73,0,0,1,0,.58l-1.56.12q-1.32.11-2,.22t-2,.41l-1.55.36a.87.87,0,0,1-.21-.54c0-.29,0-.45,0-.46a4.16,4.16,0,0,0,1-.39c.46-.22.69-.4.71-.55a9.76,9.76,0,0,0-.13-2.18L398,43.27a2.83,2.83,0,0,0-.76-1.81,1.43,1.43,0,0,0-.73-.34,3.41,3.41,0,0,0-.73-.07c-.19,0-.29,0-.29,0q-.13-.85,0-.9a42.18,42.18,0,0,0,4.59-1.62l.07-.06.09,0h.07c.08,0,.16,0,.24.17a.92.92,0,0,1,.14.31,10.24,10.24,0,0,0,0,1.08.24.24,0,0,0,.05.14.45.45,0,0,0,.13-.11,6.61,6.61,0,0,1,1.61-1.51A5.21,5.21,0,0,1,404.68,37.6Z"/><path class="cls-1" d="M419.13,35.29a5.11,5.11,0,0,1,2.21.08q.15,0,.07-.49L421,32.11a10.32,10.32,0,0,0-.49-2q-.22-.45-1.6-.23l-.23,0q-.18,0-.25-.44c0-.31,0-.48.1-.5q.87-.22,1.68-.5t1.33-.51c.35-.15.65-.3.89-.44l.57-.31.22-.11h.06a.32.32,0,0,1,.26.13.55.55,0,0,1,.17.29,11.37,11.37,0,0,0,.14,2.81l2,12.92a10.9,10.9,0,0,0,.51,2.15.44.44,0,0,0,.34.28,1.82,1.82,0,0,0,.58.06l.57,0,.3,0s.08.15.11.34q.09.59-.08.62-.41.09-1,.28l-1.2.38-1.11.38-1.18.44c-.12,0-.2-.14-.25-.47l-.08-.5a.14.14,0,0,0-.06-.11s-.06,0-.07,0a5,5,0,0,1-2.89,1.56,5.76,5.76,0,0,1-4.41-1.1,6,6,0,0,1-2.45-4.12,7,7,0,0,1,1.24-5.29A6.51,6.51,0,0,1,419.13,35.29Zm0,1.45a2.6,2.6,0,0,0-2.14,1.69,7,7,0,0,0-.24,3.68,7.18,7.18,0,0,0,1.52,3.75,2.92,2.92,0,0,0,2.77,1,2.47,2.47,0,0,0,1.54-.77,1.65,1.65,0,0,0,.41-1.4l-1-6.17a2,2,0,0,0-.2-.6,2.73,2.73,0,0,0-.46-.64,1.9,1.9,0,0,0-.89-.49A3.16,3.16,0,0,0,419.09,36.74Z"/><path class="cls-1" d="M48.7,125.74l-1.81.1c-.14,0-.22-.24-.25-.76a.77.77,0,0,1,0-.27,8.31,8.31,0,0,0,2.19-1.71l.8-.92q.43-.52,1-1.32a2.11,2.11,0,0,1,.57,0c.18,0,.27.09.28.15l.17,2.91,2.15-.11,1.47-.07c.16,0,.24.08.25.25a2.89,2.89,0,0,1-.22,1.32l-3.56.21.42,7.15a2.81,2.81,0,0,0,.61,1.78,1.7,1.7,0,0,0,1.43.54,2.81,2.81,0,0,0,.62-.11,3.11,3.11,0,0,0,.52-.19l.38-.2.2-.1q.12,0,.28.25c.11.19.16.32.14.38q-.15.43-1.21,1a4.68,4.68,0,0,1-2.09.67,3.75,3.75,0,0,1-2.68-.84,4,4,0,0,1-1.26-3Z"/><path class="cls-1" d="M67.25,122.58q3.8-.22,4.14,5.63l.18,3.06a10.9,10.9,0,0,0,.39,2.66q0,.21.81.38a4.56,4.56,0,0,0,1,.16c.06,0,.1.14.13.42a3.13,3.13,0,0,1,0,.58l-1.6,0c-.92,0-1.6,0-2,0s-1.16.1-2,.21l-1.55.21a1.11,1.11,0,0,1-.12-.56c0-.3,0-.45.06-.45a3.54,3.54,0,0,0,1-.28q.66-.26.73-.47a11.26,11.26,0,0,0,.05-2.18L68.34,129a6.2,6.2,0,0,0-.86-3.36,2.43,2.43,0,0,0-2.18-.81,2.85,2.85,0,0,0-1.6.6,1.4,1.4,0,0,0-.68,1.17l.3,5.1a10.91,10.91,0,0,0,.39,2.66c0,.14.32.26.81.38a4.17,4.17,0,0,0,1,.16c.06,0,.1.14.13.42a1.68,1.68,0,0,1,0,.58l-1.56,0q-1.33,0-2,0t-2.06.21l-1.58.21a.87.87,0,0,1-.15-.56c0-.3,0-.45.09-.45a4.13,4.13,0,0,0,1.07-.29c.48-.18.73-.33.76-.48a9.59,9.59,0,0,0,.08-2.15l-.72-12.35a11.64,11.64,0,0,0-.27-2q-.18-.47-1.57-.39l-.27,0c-.12,0-.19-.15-.21-.46s0-.48.15-.49q.92-.14,1.74-.34c.55-.13,1-.26,1.36-.38s.67-.24.93-.35l.83-.35h.06a.32.32,0,0,1,.25.15.84.84,0,0,1,.17.3,9.54,9.54,0,0,0-.2,2.81l.35,6q0,.18.13.17s.06,0,.11-.1a5.64,5.64,0,0,1,1.75-1.4A5.48,5.48,0,0,1,67.25,122.58Z"/><path class="cls-1" d="M81.09,121.78a5.52,5.52,0,0,1,2.53.4,4.71,4.71,0,0,1,1.8,1.29,6.92,6.92,0,0,1,1.05,1.7,5.12,5.12,0,0,1,.43,1.72q0,.65-.18.83a1.68,1.68,0,0,1-.89.22l-7.09.41c-.14,0-.2.07-.2.19a5.78,5.78,0,0,0,.51,2.06,4.09,4.09,0,0,0,1.42,1.67,3.5,3.5,0,0,0,2.28.61,8.18,8.18,0,0,0,.86-.09,4.48,4.48,0,0,0,.76-.19l.61-.23a2.47,2.47,0,0,0,.53-.3l.39-.28.57-.44a.47.47,0,0,1,.16.17.58.58,0,0,1,.11.29.91.91,0,0,1-.15.57,4.84,4.84,0,0,1-1.66,1.7,5.52,5.52,0,0,1-2.89,1,6,6,0,0,1-4.56-1.66,6.42,6.42,0,0,1-2.14-4.54,6.88,6.88,0,0,1,1.45-5A5.76,5.76,0,0,1,81.09,121.78ZM81,123.15a2.11,2.11,0,0,0-1.25.49,2.81,2.81,0,0,0-.8,1.06,5.81,5.81,0,0,0-.37,1.14,3.67,3.67,0,0,0-.08.88c0,.14.07.2.19.2l4.81-.28c.18,0,.26-.16.24-.46a3.85,3.85,0,0,0-.82-2.07A2.13,2.13,0,0,0,81,123.15Z"/><path class="cls-1" d="M102.78,113a5.85,5.85,0,0,1,2.08.19,2.08,2.08,0,0,1,1.13.69,3.34,3.34,0,0,1-.07,1.66,1.07,1.07,0,0,1-1,.79,1.16,1.16,0,0,1-.93-.44q-.43-.47-.9-.93a1.37,1.37,0,0,0-1.07-.43,1.58,1.58,0,0,0-1.29.85,5,5,0,0,0-.65,1.91,12.07,12.07,0,0,0-.08,2.42l.08,1.37s0,0,.07.09a.17.17,0,0,0,.12.05l3.27-.19a.24.24,0,0,1,.15,0,.32.32,0,0,1,0,.18,3.09,3.09,0,0,1-.28,1.39l-3.09.18a.16.16,0,0,0-.17.19l.38,6.62a11.34,11.34,0,0,0,.39,2.66c0,.14.32.26.81.38a4.22,4.22,0,0,0,1,.16c.06,0,.1.14.13.42a1.67,1.67,0,0,1,0,.58q-.18,0-1.55,0t-2.08,0q-.71,0-2,.21l-1.54.21a.56.56,0,0,1-.14-.32,1.94,1.94,0,0,1,0-.46c0-.15,0-.23.11-.23a4,4,0,0,0,1-.28c.47-.18.71-.33.75-.48a9.78,9.78,0,0,0,.13-2.45l-.4-6.83q0-.21-.19-.2l-1.78.1s-.06-.06-.07-.17a1.59,1.59,0,0,1,.37-.88,1.2,1.2,0,0,1,.92-.59l.47,0a.16.16,0,0,0,.17-.19l0-.3a8.09,8.09,0,0,1,1.55-5.45A5.56,5.56,0,0,1,102.78,113Z"/><path class="cls-1" d="M112.13,120a6.55,6.55,0,0,1,4.88,1.67,6.37,6.37,0,0,1,2.25,4.59,6.78,6.78,0,1,1-7.12-6.26Zm-.31,1.42a2.39,2.39,0,0,0-2.09,1.48,6.39,6.39,0,0,0-.59,3.26,8.67,8.67,0,0,0,1.21,4.13,3,3,0,0,0,2.79,1.62,2.42,2.42,0,0,0,2.1-1.49,6.33,6.33,0,0,0,.6-3.25,10.22,10.22,0,0,0-.55-2.84,5.26,5.26,0,0,0-1.37-2.14A2.76,2.76,0,0,0,111.82,121.4Z"/><path class="cls-1" d="M133.92,121.93l.34,5.88a6.55,6.55,0,0,0,.36,2.06.62.62,0,0,0,.35.22,2.32,2.32,0,0,0,.53.09H136a.55.55,0,0,1,.25,0c.08,0,.12.1.13.26a2.45,2.45,0,0,1,0,.4c0,.19-.08.29-.16.29a6.85,6.85,0,0,0-1,.17l-1.22.28-1.12.29-1.17.31c-.14,0-.22-.15-.23-.46l-.08-1.31q0-.15-.1-.14a6.63,6.63,0,0,1-1.73,1.44,5,5,0,0,1-2.31.73,3.12,3.12,0,0,1-1.79-.4,3.58,3.58,0,0,1-1.26-1.24,6.41,6.41,0,0,1-.72-1.69,9.06,9.06,0,0,1-.3-1.86l-.19-3.32a2.82,2.82,0,0,0-.59-1.87,1.64,1.64,0,0,0-.71-.41,3.15,3.15,0,0,0-.72-.14c-.2,0-.3,0-.3-.07,0-.57,0-.87.1-.9a22.31,22.31,0,0,0,2.41-.5,23.27,23.27,0,0,0,2.31-.67l.12,0,.12,0c.1,0,.18.06.24.19a1.06,1.06,0,0,1,.09.32q-.15,2-.12,2.63l.21,3.56a6.37,6.37,0,0,0,.85,3.29,2.63,2.63,0,0,0,3.74.22,1.59,1.59,0,0,0,.59-1.15l-.28-4.9a2.83,2.83,0,0,0-.58-1.87,1.44,1.44,0,0,0-.69-.41,3.37,3.37,0,0,0-.74-.14c-.2,0-.3,0-.3-.07q0-.86.13-.9a22.74,22.74,0,0,0,2.38-.5,23.38,23.38,0,0,0,2.31-.67l.23-.07q.15,0,.25.19a.54.54,0,0,1,.08.32Q133.89,121.4,133.92,121.93Z"/><path class="cls-1" d="M147.25,117.94q3.83-.22,4.18,5.86l.16,2.82a12.47,12.47,0,0,0,.36,2.66c0,.14.33.26.84.38a4.55,4.55,0,0,0,1,.16c.06,0,.1.14.13.42a1.7,1.7,0,0,1,0,.58c-.12,0-.64,0-1.56,0s-1.61,0-2.07,0-1.13.1-2,.2l-1.52.21a.87.87,0,0,1-.15-.56c0-.3,0-.45.09-.45a3.54,3.54,0,0,0,1-.28q.65-.26.7-.47a8.51,8.51,0,0,0,.11-2.18l-.16-2.82a6.46,6.46,0,0,0-.87-3.4,2.39,2.39,0,0,0-2.18-.86,2.74,2.74,0,0,0-1.63.62,1.43,1.43,0,0,0-.65,1.15l.3,5.1a12.54,12.54,0,0,0,.36,2.66q.07.2.81.38a4.29,4.29,0,0,0,1,.17q.12,0,.16.42a1.71,1.71,0,0,1,0,.58l-1.57,0q-1.33,0-2,0t-2.06.21l-1.58.21a.88.88,0,0,1-.15-.56c0-.3,0-.45.09-.45a4.16,4.16,0,0,0,1.07-.29q.71-.27.76-.48a9.65,9.65,0,0,0,.08-2.18l-.28-4.84a2.83,2.83,0,0,0-.58-1.87,1.44,1.44,0,0,0-.69-.41,3.38,3.38,0,0,0-.72-.14c-.19,0-.28,0-.29-.07q0-.86.1-.9a42,42,0,0,0,4.73-1.17l.07,0,.09,0h.07q.12,0,.22.2a.91.91,0,0,1,.11.32,9.93,9.93,0,0,0-.06,1.08.23.23,0,0,0,0,.15.47.47,0,0,0,.14-.1,6.58,6.58,0,0,1,1.75-1.35A5.2,5.2,0,0,1,147.25,117.94Z"/><path class="cls-1" d="M161.85,117a5.11,5.11,0,0,1,2.19.29q.15,0,.12-.48l-.16-2.79a10.38,10.38,0,0,0-.3-2q-.18-.47-1.57-.39h-.24c-.12,0-.19-.15-.21-.46s0-.48.15-.49q.89-.14,1.72-.34t1.38-.38q.54-.18.93-.35l.6-.26.23-.09h.06a.32.32,0,0,1,.25.15.55.55,0,0,1,.14.3,11.41,11.41,0,0,0-.13,2.81l.76,13.06a10.92,10.92,0,0,0,.3,2.19.44.44,0,0,0,.32.31,1.79,1.79,0,0,0,.57.12h.87a.63.63,0,0,1,.08.35q0,.59-.14.6c-.28,0-.62.1-1,.18l-1.24.27-1.15.27-1.22.32q-.18,0-.21-.49l0-.5a.13.13,0,0,0-.05-.12.05.05,0,0,0-.07,0,5,5,0,0,1-3,1.28,5.76,5.76,0,0,1-4.29-1.52,6,6,0,0,1-2-4.33,7,7,0,0,1,1.74-5.15A6.51,6.51,0,0,1,161.85,117Zm-.18,1.44a2.6,2.6,0,0,0-2.3,1.47,7,7,0,0,0-.59,3.64,7.17,7.17,0,0,0,1.15,3.88,2.92,2.92,0,0,0,2.66,1.26,2.47,2.47,0,0,0,1.6-.61,1.65,1.65,0,0,0,.55-1.36l-.36-6.23a2.06,2.06,0,0,0-.14-.62,2.76,2.76,0,0,0-.4-.68,1.91,1.91,0,0,0-.84-.58A3.16,3.16,0,0,0,161.67,118.47Z"/><path class="cls-1" d="M176.72,125.17a11,11,0,0,0,.39,2.66q.07.21.83.38a4.36,4.36,0,0,0,1,.16c.08,0,.13.14.16.42a1.71,1.71,0,0,1,0,.58l-1.6,0q-1.39,0-2,0t-2.09.21l-1.55.21a.87.87,0,0,1-.15-.56c0-.3,0-.45.09-.45a4.28,4.28,0,0,0,1.05-.28c.49-.18.75-.34.78-.48a9.65,9.65,0,0,0,.08-2.18l-.28-4.84a2.82,2.82,0,0,0-.59-1.87,1.65,1.65,0,0,0-.71-.41,3.17,3.17,0,0,0-.72-.14q-.3,0-.3-.07,0-.86.13-.9a22.71,22.71,0,0,0,2.38-.5,23.3,23.3,0,0,0,2.31-.67l.24-.07c.1,0,.18.06.25.19a.54.54,0,0,1,.08.32,25.45,25.45,0,0,0-.09,2.57Zm-3.81-12.24a1.81,1.81,0,0,1-.61-1.28,1.83,1.83,0,0,1,1.73-1.93,1.78,1.78,0,0,1,1.34.46,1.76,1.76,0,0,1,.61,1.26,1.81,1.81,0,0,1-.46,1.34,1.83,1.83,0,0,1-2.61.15Z"/><path class="cls-1" d="M189.83,115.47q3.83-.22,4.18,5.86l.16,2.82a12.39,12.39,0,0,0,.36,2.66q.07.2.84.38a4.52,4.52,0,0,0,1,.16c.06,0,.1.14.13.42a1.7,1.7,0,0,1,0,.58c-.12,0-.64,0-1.57,0s-1.61,0-2.07,0-1.13.1-2,.2l-1.52.21a.87.87,0,0,1-.15-.56c0-.3,0-.45.09-.45a3.52,3.52,0,0,0,1-.28c.44-.17.67-.33.7-.47a8.51,8.51,0,0,0,.11-2.18L191,122a6.45,6.45,0,0,0-.87-3.4,2.39,2.39,0,0,0-2.18-.86,2.75,2.75,0,0,0-1.63.62,1.43,1.43,0,0,0-.65,1.15l.3,5.1a12.47,12.47,0,0,0,.36,2.66q.07.21.81.38a4.3,4.3,0,0,0,1,.17q.12,0,.16.42a1.71,1.71,0,0,1,0,.58l-1.57,0q-1.33,0-2,0t-2.06.21l-1.58.21a.88.88,0,0,1-.15-.56c0-.3,0-.45.09-.45a4.15,4.15,0,0,0,1.07-.29c.48-.18.73-.33.76-.48a9.65,9.65,0,0,0,.08-2.18l-.28-4.84a2.83,2.83,0,0,0-.58-1.87,1.44,1.44,0,0,0-.69-.41,3.39,3.39,0,0,0-.72-.14q-.28,0-.29-.07,0-.86.1-.9a42,42,0,0,0,4.73-1.17l.07,0,.09,0h.07c.08,0,.15.06.22.2a.9.9,0,0,1,.11.32,9.77,9.77,0,0,0-.06,1.08.23.23,0,0,0,0,.15.44.44,0,0,0,.14-.1,6.58,6.58,0,0,1,1.75-1.35A5.2,5.2,0,0,1,189.83,115.47Z"/><path class="cls-1" d="M203.43,114.74a9.42,9.42,0,0,1,2.49.24,9.15,9.15,0,0,0,2.4.25l1.69-.1s.12.12.23.37a1.83,1.83,0,0,1,.18.58c0,.28,0,.42-.15.43l-1.93.11c-.08,0-.12,0-.11.1s.1.27.31.76a4.23,4.23,0,0,1,.35,1.41,4.3,4.3,0,0,1-1.29,3.25,5.09,5.09,0,0,1-3.58,1.62,12.34,12.34,0,0,1-1.85,0,1.6,1.6,0,0,0-.62.59,1.26,1.26,0,0,0-.25.74.61.61,0,0,0,.31.49,2,2,0,0,0,.89.25c.4,0,.74.06,1,.06h1.19l.45,0a10.5,10.5,0,0,1,4.39.56,2.34,2.34,0,0,1,1.51,2.1,4.68,4.68,0,0,1-1.91,4,8.13,8.13,0,0,1-4.92,1.92,7.73,7.73,0,0,1-3.83-.61,2.67,2.67,0,0,1-1.76-2.34,2.31,2.31,0,0,1,.75-1.71,4.92,4.92,0,0,1,1.76-1.23,3.39,3.39,0,0,1-1.48-.82,2.17,2.17,0,0,1-.74-1.52q-.07-1.28,2-2.77a4,4,0,0,1-1.69-1.44,4.37,4.37,0,0,1-.88-2.38,4,4,0,0,1,1.35-3.41A5.91,5.91,0,0,1,203.43,114.74Zm5,15.28q-.06-1-1.58-1.29a18.88,18.88,0,0,0-4-.11l-.15,0-.14.1c-.25.11-.45.21-.58.29a2.54,2.54,0,0,0-.46.35,1.44,1.44,0,0,0-.37.54,1.74,1.74,0,0,0-.09.72,2.08,2.08,0,0,0,1.23,1.72,4.63,4.63,0,0,0,2.56.57,4.49,4.49,0,0,0,2.67-.93A2.32,2.32,0,0,0,208.43,130Zm-7-10.85a4.7,4.7,0,0,0,.74,2.41,1.85,1.85,0,0,0,1.72.9,1.77,1.77,0,0,0,1.57-.94,4,4,0,0,0,.4-2.12,4.89,4.89,0,0,0-.74-2.52,1.9,1.9,0,0,0-1.78-.88,1.68,1.68,0,0,0-1.52,1A4.32,4.32,0,0,0,201.43,119.18Z"/><path class="cls-1" d="M225.44,113.41a6.55,6.55,0,0,1,4.88,1.67,6.37,6.37,0,0,1,2.25,4.59,6.73,6.73,0,0,1-13.44.78,6.4,6.4,0,0,1,1.67-4.83A6.51,6.51,0,0,1,225.44,113.41Zm-.31,1.42A2.39,2.39,0,0,0,223,116.3a6.39,6.39,0,0,0-.59,3.26,8.67,8.67,0,0,0,1.21,4.13,3,3,0,0,0,2.79,1.62,2.42,2.42,0,0,0,2.1-1.49,6.33,6.33,0,0,0,.6-3.25,10.18,10.18,0,0,0-.55-2.84,5.25,5.25,0,0,0-1.37-2.14A2.76,2.76,0,0,0,225.13,114.82Z"/><path class="cls-1" d="M242.1,104.91a5.84,5.84,0,0,1,2.08.19,2.08,2.08,0,0,1,1.13.69,3.33,3.33,0,0,1-.07,1.66,1.07,1.07,0,0,1-1,.79,1.16,1.16,0,0,1-.93-.44q-.43-.47-.9-.93a1.37,1.37,0,0,0-1.07-.43,1.58,1.58,0,0,0-1.29.85,5,5,0,0,0-.65,1.91,12.14,12.14,0,0,0-.08,2.42l.08,1.37s0,0,.07.09a.17.17,0,0,0,.12.05l3.27-.19a.24.24,0,0,1,.15,0,.31.31,0,0,1,0,.18,3.08,3.08,0,0,1-.28,1.39l-3.09.18a.16.16,0,0,0-.17.19l.38,6.62a11.4,11.4,0,0,0,.39,2.66c0,.14.32.26.81.38a4.23,4.23,0,0,0,1,.16c.06,0,.1.14.13.42a1.68,1.68,0,0,1,0,.58q-.18,0-1.55,0c-.92,0-1.61,0-2.08,0s-1.15.1-2,.21l-1.54.21a.56.56,0,0,1-.14-.32,1.84,1.84,0,0,1,0-.46c0-.15,0-.23.11-.23a4,4,0,0,0,1-.28q.7-.26.75-.48a9.79,9.79,0,0,0,.13-2.45l-.4-6.83q0-.21-.19-.2l-1.78.1s-.06-.06-.07-.17a1.59,1.59,0,0,1,.37-.89,1.19,1.19,0,0,1,.92-.59l.47,0a.16.16,0,0,0,.17-.19l0-.3a8.08,8.08,0,0,1,1.55-5.45A5.56,5.56,0,0,1,242.1,104.91Z"/><path class="cls-1" d="M253.86,122.21a12,12,0,0,1-.77-13.3,5.76,5.76,0,0,1,4.54-3.06,5.67,5.67,0,0,1,4.81,2.52,12.21,12.21,0,0,1,.77,13.3,5.66,5.66,0,0,1-4.48,3.06A5.75,5.75,0,0,1,253.86,122.21Zm1.05-6.76a15.58,15.58,0,0,0,1.29,5.76q1.09,2.29,2.48,2.21t2.19-2.48a17.87,17.87,0,0,0,.5-6,16,16,0,0,0-1.21-5.69q-1-2.19-2.43-2.11t-2.24,2.44A15.87,15.87,0,0,0,254.91,115.45Z"/><path class="cls-1" d="M272,104.34l3.23-.19q2.41-.14,6.54-.68c.06,0,.13.14.22.37a2.22,2.22,0,0,1,.14.59q0,.12-2.53,4.39t-5,8.46l-2.49,4.22a1.21,1.21,0,0,0-.15.46c0,.2.16.29.43.27l5.7-.33a4.77,4.77,0,0,0,4.57-3.81c0-.1.16-.16.38-.17a1.16,1.16,0,0,1,.85.19q-1,4.08-1.16,5.13l-15,.87a1.13,1.13,0,0,1-.28-.76.83.83,0,0,1,.09-.51l10.19-17.3-5.7.33a7.2,7.2,0,0,0-1.77.34,2.27,2.27,0,0,0-1.11.82,5.16,5.16,0,0,0-.62,1.11,13.13,13.13,0,0,0-.45,1.53c0,.1-.15.16-.35.17q-.77,0-1-.15.53-3.75.61-5.34a15.56,15.56,0,0,0,2.19,0Q271.37,104.37,272,104.34Z"/><path class="cls-1" d="M292,109.55a6.56,6.56,0,0,1,4.88,1.67,6.37,6.37,0,0,1,2.25,4.59,6.78,6.78,0,1,1-7.12-6.26Zm-.3,1.42a2.39,2.39,0,0,0-2.09,1.48,6.39,6.39,0,0,0-.59,3.26,8.67,8.67,0,0,0,1.21,4.13,3,3,0,0,0,2.79,1.63,2.42,2.42,0,0,0,2.1-1.49,6.33,6.33,0,0,0,.6-3.25,10.15,10.15,0,0,0-.55-2.84,5.24,5.24,0,0,0-1.37-2.14A2.75,2.75,0,0,0,291.65,111Z"/><path class="cls-1" d="M310.3,108.49q3.83-.22,4.18,5.86l.16,2.82a12.39,12.39,0,0,0,.36,2.66q.07.2.84.38a4.59,4.59,0,0,0,1,.16c.06,0,.1.14.13.42a1.7,1.7,0,0,1,0,.58c-.12,0-.64,0-1.56,0s-1.61,0-2.07,0-1.13.1-2,.2l-1.52.21a.87.87,0,0,1-.15-.56c0-.3,0-.45.09-.45a3.53,3.53,0,0,0,1-.28q.65-.26.7-.47a8.56,8.56,0,0,0,.11-2.18l-.16-2.82a6.45,6.45,0,0,0-.87-3.4,2.39,2.39,0,0,0-2.18-.86,2.75,2.75,0,0,0-1.63.62,1.43,1.43,0,0,0-.65,1.15l.3,5.1a12.46,12.46,0,0,0,.36,2.66c0,.14.32.26.81.38a4.28,4.28,0,0,0,1,.17q.12,0,.16.42a1.71,1.71,0,0,1,0,.58l-1.57,0q-1.33,0-2,0t-2.06.21l-1.58.21a.87.87,0,0,1-.15-.56c0-.3,0-.45.09-.45a4.11,4.11,0,0,0,1.07-.29q.71-.26.76-.48a9.65,9.65,0,0,0,.08-2.18l-.28-4.84a2.83,2.83,0,0,0-.59-1.87,1.43,1.43,0,0,0-.69-.41,3.38,3.38,0,0,0-.72-.14c-.19,0-.29,0-.29-.07q0-.86.1-.9a42,42,0,0,0,4.73-1.17l.07,0,.09,0h.07c.08,0,.15.06.22.2a.9.9,0,0,1,.11.32,9.77,9.77,0,0,0-.06,1.08c0,.08,0,.13,0,.15a.44.44,0,0,0,.14-.1,6.58,6.58,0,0,1,1.75-1.35A5.2,5.2,0,0,1,310.3,108.49Z"/><path class="cls-1" d="M324.32,107.67a5.51,5.51,0,0,1,2.52.4,4.71,4.71,0,0,1,1.8,1.29,6.93,6.93,0,0,1,1.05,1.7,5.14,5.14,0,0,1,.43,1.72q0,.65-.17.83a1.69,1.69,0,0,1-.9.22l-7.09.41c-.14,0-.2.07-.2.19a5.76,5.76,0,0,0,.51,2.06,4.08,4.08,0,0,0,1.42,1.67,3.5,3.5,0,0,0,2.28.61,8.16,8.16,0,0,0,.86-.09,4.5,4.5,0,0,0,.76-.19l.61-.23a2.5,2.5,0,0,0,.53-.3l.39-.28.57-.43a.48.48,0,0,1,.16.17.58.58,0,0,1,.11.29.91.91,0,0,1-.15.57,4.83,4.83,0,0,1-1.66,1.7,5.52,5.52,0,0,1-2.89,1,6,6,0,0,1-4.56-1.66,6.41,6.41,0,0,1-2.14-4.54,6.88,6.88,0,0,1,1.45-5A5.76,5.76,0,0,1,324.32,107.67Zm-.13,1.38a2.1,2.1,0,0,0-1.25.49,2.81,2.81,0,0,0-.8,1.06,5.81,5.81,0,0,0-.37,1.14,3.66,3.66,0,0,0-.08.88c0,.14.07.2.19.2l4.81-.28c.18,0,.26-.16.24-.46a3.85,3.85,0,0,0-.82-2.07A2.13,2.13,0,0,0,324.19,109Z"/><path class="cls-1" d="M355.82,113.59a16.58,16.58,0,0,1-.31,2.33,5.17,5.17,0,0,1-.56,2.07,16,16,0,0,1-6.81,1.65,8.93,8.93,0,0,1-6.85-2.49,9.58,9.58,0,0,1-3.16-6.7,10.22,10.22,0,0,1,2.4-7.39,9.16,9.16,0,0,1,6.77-3.42,32.74,32.74,0,0,1,7.05.4,8.59,8.59,0,0,1,.29,1.93q.2,1.91.23,2.38t-.69.49a1,1,0,0,1-.42-.09,4.14,4.14,0,0,0-.49-1.07,7.61,7.61,0,0,0-1-1.22,4.51,4.51,0,0,0-1.91-1.07,8,8,0,0,0-2.85-.3,5.16,5.16,0,0,0-4.39,2.67,10.08,10.08,0,0,0-1.28,5.85,10.75,10.75,0,0,0,2.19,6.23,5.94,5.94,0,0,0,5.3,2.3,5.44,5.44,0,0,0,4.09-1.9,4.06,4.06,0,0,0,.63-1.15q.27-.71.41-1.2c.09-.32.16-.49.2-.49Q355.69,113.33,355.82,113.59Z"/><path class="cls-1" d="M364,105.37a6.56,6.56,0,0,1,4.88,1.67,6.37,6.37,0,0,1,2.25,4.59,6.78,6.78,0,1,1-7.12-6.26Zm-.3,1.42a2.39,2.39,0,0,0-2.09,1.48,6.39,6.39,0,0,0-.59,3.26,8.67,8.67,0,0,0,1.21,4.13,3,3,0,0,0,2.79,1.63,2.42,2.42,0,0,0,2.1-1.49,6.33,6.33,0,0,0,.6-3.25,10.18,10.18,0,0,0-.55-2.84,5.25,5.25,0,0,0-1.37-2.14A2.76,2.76,0,0,0,363.65,106.79Z"/><path class="cls-1" d="M378.28,113.42a12.21,12.21,0,0,0,.36,2.66q.07.2.75.42a3.25,3.25,0,0,0,.92.2c.06,0,.1.13.13.41a1.59,1.59,0,0,1,0,.57h-2.38l-1.07,0-1.13.1-1.24.15-1.12.14a.84.84,0,0,1-.15-.54c0-.29,0-.43.09-.44a3.19,3.19,0,0,0,1-.31q.65-.29.7-.5a9.78,9.78,0,0,0,.11-2.21l-.72-12.35a10.37,10.37,0,0,0-.3-2q-.18-.47-1.51-.39l-.3,0c-.12,0-.18-.11-.2-.35s0-.48.15-.49q.92-.14,1.74-.34t1.36-.38q.54-.18.93-.34l.63-.26.2-.1h.06c.08,0,.17.05.26.16a.92.92,0,0,1,.18.29,9.37,9.37,0,0,0-.19,2.81Z"/><path class="cls-1" d="M387.34,112.89a12.2,12.2,0,0,0,.36,2.66q.07.2.75.42a3.26,3.26,0,0,0,.92.2c.06,0,.1.13.13.41a1.59,1.59,0,0,1,0,.57h-2.38l-1.07,0-1.13.1-1.24.15-1.12.14a.84.84,0,0,1-.15-.54c0-.29,0-.43.09-.44a3.18,3.18,0,0,0,1-.31q.65-.29.7-.5a9.83,9.83,0,0,0,.11-2.21l-.72-12.35a10.45,10.45,0,0,0-.29-2q-.18-.47-1.51-.39l-.3,0q-.18,0-.2-.35t.15-.49q.92-.14,1.74-.34t1.36-.38c.36-.12.67-.23.93-.34l.63-.26.2-.1h.06q.12,0,.26.16a.93.93,0,0,1,.18.29,9.4,9.4,0,0,0-.19,2.81Z"/><path class="cls-1" d="M396.81,103.47a5.51,5.51,0,0,1,2.53.4,4.71,4.71,0,0,1,1.8,1.29,6.94,6.94,0,0,1,1.05,1.7,5.12,5.12,0,0,1,.43,1.72q0,.65-.17.83a1.69,1.69,0,0,1-.9.22l-7.09.41c-.14,0-.2.07-.2.19a5.78,5.78,0,0,0,.51,2.05,4.09,4.09,0,0,0,1.42,1.67,3.51,3.51,0,0,0,2.28.61,8.18,8.18,0,0,0,.86-.09,4.49,4.49,0,0,0,.76-.19l.61-.23a2.5,2.5,0,0,0,.53-.3l.39-.28.57-.43a.49.49,0,0,1,.16.17.58.58,0,0,1,.11.29.91.91,0,0,1-.15.57,4.83,4.83,0,0,1-1.66,1.7,5.51,5.51,0,0,1-2.89,1,6,6,0,0,1-4.56-1.66,6.41,6.41,0,0,1-2.14-4.54,6.88,6.88,0,0,1,1.45-5A5.76,5.76,0,0,1,396.81,103.47Zm-.13,1.38a2.11,2.11,0,0,0-1.25.49,2.82,2.82,0,0,0-.8,1.06,5.73,5.73,0,0,0-.37,1.14,3.67,3.67,0,0,0-.08.88c0,.14.07.2.19.2l4.81-.28c.18,0,.26-.16.24-.46a3.85,3.85,0,0,0-.82-2.07A2.13,2.13,0,0,0,396.68,104.85Z"/><path class="cls-1" d="M410.35,102.68a7.18,7.18,0,0,1,2.83.36,4.73,4.73,0,0,1,1.83,1,3.68,3.68,0,0,1-.24,1.7,1.1,1.1,0,0,1-1,.73,1.33,1.33,0,0,1-.92-.24,3.35,3.35,0,0,1-.75-.94,2.15,2.15,0,0,0-2.07-1.25,2.29,2.29,0,0,0-2,1.41,6.36,6.36,0,0,0-.57,3.29,6,6,0,0,0,1.33,3.9,3.51,3.51,0,0,0,2.86,1.13,8.18,8.18,0,0,0,.86-.09,4.44,4.44,0,0,0,.76-.19l.61-.23a2.5,2.5,0,0,0,.53-.3l.39-.28.57-.44a.46.46,0,0,1,.16.17.58.58,0,0,1,.11.29.91.91,0,0,1-.15.57,4.84,4.84,0,0,1-1.66,1.7,5.47,5.47,0,0,1-2.86,1,6,6,0,0,1-4.61-1.67,6.56,6.56,0,0,1-2.13-4.61,6.76,6.76,0,0,1,1.51-4.78A6,6,0,0,1,410.35,102.68Z"/><path class="cls-1" d="M419,104.26l-1.81.1c-.14,0-.22-.24-.25-.76a.77.77,0,0,1,0-.27,8.3,8.3,0,0,0,2.19-1.71c.24-.27.51-.58.8-.92s.62-.79,1-1.32a2.11,2.11,0,0,1,.57,0c.18,0,.27.09.28.15l.17,2.91,2.15-.11,1.47-.07c.16,0,.24.07.25.25a2.87,2.87,0,0,1-.22,1.32l-3.56.21.42,7.15a2.81,2.81,0,0,0,.61,1.78,1.69,1.69,0,0,0,1.43.54,2.79,2.79,0,0,0,.62-.11,3.15,3.15,0,0,0,.52-.19l.38-.2.2-.1q.12,0,.28.25c.11.19.16.32.14.38q-.15.43-1.21,1a4.68,4.68,0,0,1-2.09.67,3.75,3.75,0,0,1-2.68-.84,4,4,0,0,1-1.26-3Z"/><path class="cls-1" d="M433.67,110.26a11,11,0,0,0,.39,2.66q.07.21.83.38a4.37,4.37,0,0,0,1,.16q.12,0,.16.42a1.73,1.73,0,0,1,0,.58l-1.6,0q-1.39,0-2,0t-2.09.21l-1.55.21a.87.87,0,0,1-.15-.56c0-.3,0-.45.09-.45a4.29,4.29,0,0,0,1.05-.28q.73-.27.78-.48a9.65,9.65,0,0,0,.08-2.18l-.28-4.84a2.82,2.82,0,0,0-.59-1.87,1.64,1.64,0,0,0-.71-.41,3.15,3.15,0,0,0-.72-.14c-.2,0-.3,0-.3-.07q0-.86.13-.9a22.74,22.74,0,0,0,2.38-.5,23.19,23.19,0,0,0,2.31-.67l.23-.07c.1,0,.18.06.25.19a.54.54,0,0,1,.08.32,25.43,25.43,0,0,0-.09,2.57ZM429.86,98a1.81,1.81,0,0,1-.61-1.27,1.76,1.76,0,0,1,.46-1.32,1.87,1.87,0,0,1,2.61-.15,1.76,1.76,0,0,1,.61,1.26,1.82,1.82,0,0,1-.46,1.34,1.83,1.83,0,0,1-2.61.15Z"/><path class="cls-1" d="M448.14,102.37q-.43-.78-2.12-.68c-.06,0-.1-.13-.11-.41a1,1,0,0,1,.06-.54c.28,0,.76,0,1.45,0s1.25,0,1.7,0,1-.09,1.73-.19,1.19-.16,1.45-.17a.87.87,0,0,1,.12.47c0,.32,0,.48-.15.48a3.55,3.55,0,0,0-1.14.35,1.72,1.72,0,0,0-1,.9l-4.35,10.76a2,2,0,0,1-.36.53.75.75,0,0,1-.49.3c-.2,0-.32,0-.37-.16q-.67-1.3-1.83-3.6t-2-3.89l-1.91-3.58q-.41-.81-2-.72c-.08,0-.13-.15-.15-.47a.68.68,0,0,1,.09-.48c.18,0,.7,0,1.58,0s1.55,0,2,0,1.16-.1,2-.21l1.54-.18a1,1,0,0,1,.1.53c0,.28,0,.42-.11.42a4.37,4.37,0,0,0-1,.24c-.44.14-.65.32-.64.51a.56.56,0,0,0,.08.29l3.33,6.66,2.33-6C448.26,102.95,448.29,102.58,448.14,102.37Z"/><path class="cls-1" d="M460.09,99.8a5.51,5.51,0,0,1,2.53.4,4.72,4.72,0,0,1,1.8,1.29,7,7,0,0,1,1.05,1.7,5.12,5.12,0,0,1,.43,1.72c0,.44,0,.71-.17.83a1.69,1.69,0,0,1-.9.22l-7.09.41c-.14,0-.2.07-.2.19a5.78,5.78,0,0,0,.51,2.06,4.09,4.09,0,0,0,1.42,1.67,3.51,3.51,0,0,0,2.28.61,8.18,8.18,0,0,0,.86-.09,4.49,4.49,0,0,0,.76-.19l.61-.23a2.47,2.47,0,0,0,.53-.3l.39-.28.57-.43a.48.48,0,0,1,.16.17.58.58,0,0,1,.11.29.91.91,0,0,1-.15.57,4.85,4.85,0,0,1-1.66,1.7,5.52,5.52,0,0,1-2.89,1,6,6,0,0,1-4.56-1.66,6.41,6.41,0,0,1-2.14-4.54,6.88,6.88,0,0,1,1.46-5A5.76,5.76,0,0,1,460.09,99.8Zm-.13,1.38a2.11,2.11,0,0,0-1.25.49,2.81,2.81,0,0,0-.8,1.06,5.79,5.79,0,0,0-.37,1.14,3.67,3.67,0,0,0-.08.88c0,.14.07.2.19.2l4.81-.28c.18,0,.26-.16.24-.46a3.85,3.85,0,0,0-.82-2.07A2.13,2.13,0,0,0,460,101.18Z"/><path class="cls-1" d="M471.29,109.24a1.94,1.94,0,0,1,.66,1.36,2,2,0,0,1-.5,1.44,1.84,1.84,0,0,1-1.34.69,1.92,1.92,0,0,1-1.46-.53,2,2,0,0,1-.67-1.38,1.91,1.91,0,0,1,.51-1.43,2,2,0,0,1,1.39-.68A1.86,1.86,0,0,1,471.29,109.24Z"/></svg>