<svg id="Layer_1" data-name="Layer 1" xmlns="http://www.w3.org/2000/svg" viewBox="0 0 744.42 455.9"><defs><style>.cls-1{fill:#fff;stroke:#1928eb;stroke-miterlimit:10;stroke-width:1.2px;}</style></defs><title>title</title><path class="cls-1" d="M39.52,82.05l41,70.72q3,5.42,5.81,9.84,1.17,2,5.08,2.77a19.27,19.27,0,0,0,5.63.5q.57-.08.95,2.5a4.89,4.89,0,0,1,0,2.19q-17.32,1.63-18.18,1.75t-18.5,3.56a4.08,4.08,0,0,1-1-2.57c-.2-1.38-.11-2.1.27-2.16a18.64,18.64,0,0,0,4.6-1.54q2.89-1.29,3.29-2.52a4.13,4.13,0,0,0,.16-1.92q-.41-2.86-4.15-9.49l-6.94-12.6a1.6,1.6,0,0,0-1.08-.43q-4.63.38-12.36,1.5t-16.27,2.8c-.57.08-.83.32-.78.7l-3.51,14.11q-1.65,7.84-1.37,9.71a3.23,3.23,0,0,0,2,2.64,14.49,14.49,0,0,0,4.74.92,25,25,0,0,0,4.47.08q.45.08.72,1.94a9.49,9.49,0,0,1,.11,2.76q-.72.1-6.8.55t-9.8,1q-3.73.54-8.76,1.63L1.7,184.51a3.08,3.08,0,0,1-.88-2.07q-.37-2.58-.09-2.62a20.89,20.89,0,0,0,5.34-2q3.62-1.77,4.4-3.49a68.89,68.89,0,0,0,3.83-12L31.6,94q2-9.07,3.81-11.08a3.69,3.69,0,0,1,2.29-1.35A2.37,2.37,0,0,1,39.52,82.05ZM30,137.84q5.07-.3,10.38-1.06,5-.73,11.69-2.13l.2-.61L37.27,107l-7.6,30.35Q29.76,137.88,30,137.84Z"/><path class="cls-1" d="M144.18,98.78q18.48-2.68,22.74,26.69l2,13.61q1.27,8.74,2.87,12.75.43,1,4.24,1.51a22.2,22.2,0,0,0,5.1.36c.29,0,.55.63.8,2a8.22,8.22,0,0,1,.19,2.82q-.88,0-7.61.52t-10,1q-3.44.5-9.46,1.81t-7.3,1.64q-.66-.49-1-2.64t.26-2.23a17.2,17.2,0,0,0,4.64-1.77q3.07-1.54,3.21-2.59a41.58,41.58,0,0,0-.37-10.62l-2-13.61q-1.72-11.89-5.63-16.15T136,110.65a13.4,13.4,0,0,0-7.66,3.67q-3.07,3-2.66,5.87l3.57,24.64a60.66,60.66,0,0,0,2.87,12.75q.43,1,4.1,1.53a20.84,20.84,0,0,0,4.81.4q.57-.08.95,2a8.22,8.22,0,0,1,.19,2.82q-1.17,0-7.6.52t-9.73,1q-3.44.5-9.9,1.87t-7.58,1.68c-.44-.33-.76-1.21-1-2.64s-.12-2.18.26-2.23a20.21,20.21,0,0,0,5.07-1.83q3.35-1.58,3.5-2.63a47.28,47.28,0,0,0-.51-10.6l-3.38-23.35q-1-6.73-3.62-8.84a7,7,0,0,0-3.53-1.68,16.58,16.58,0,0,0-3.56-.36q-1.38.06-1.42-.23-.6-4.15.09-4.4,6.51-1.52,22.44-7.64a.94.94,0,0,1,.33-.27,1.39,1.39,0,0,1,.42-.13l.36-.05c.38-.06.76.23,1.15.86a4.44,4.44,0,0,1,.66,1.51,49.21,49.21,0,0,0,.17,5.24c.06.38.14.62.25.7a2.13,2.13,0,0,0,.65-.53,32.12,32.12,0,0,1,7.94-7.29A25.35,25.35,0,0,1,144.18,98.78Z"/><path class="cls-1" d="M258.57,50.33l41,70.72q3,5.42,5.81,9.84,1.17,2,5.08,2.77a19.27,19.27,0,0,0,5.63.5q.57-.08.95,2.5a4.89,4.89,0,0,1,0,2.19q-17.32,1.63-18.18,1.75t-18.5,3.56a4.08,4.08,0,0,1-1-2.57c-.2-1.38-.11-2.1.27-2.16a18.61,18.61,0,0,0,4.6-1.54q2.89-1.29,3.29-2.52a4.13,4.13,0,0,0,.16-1.92q-.41-2.86-4.15-9.49l-6.94-12.6a1.6,1.6,0,0,0-1.08-.43q-4.63.38-12.36,1.5t-16.27,2.8c-.57.08-.83.32-.78.7L242.61,130q-1.65,7.84-1.37,9.71a3.23,3.23,0,0,0,2,2.64,14.47,14.47,0,0,0,4.74.92,25,25,0,0,0,4.48.08q.45.08.72,1.94a9.49,9.49,0,0,1,.11,2.76q-.72.1-6.8.54t-9.8,1q-3.73.54-8.76,1.63l-7.16,1.55a3.08,3.08,0,0,1-.88-2.07q-.37-2.58-.09-2.62a20.91,20.91,0,0,0,5.34-2q3.62-1.77,4.4-3.49a68.9,68.9,0,0,0,3.82-12L250.65,62.3q2-9.07,3.81-11.08a3.69,3.69,0,0,1,2.29-1.35A2.38,2.38,0,0,1,258.57,50.33Zm-9.47,55.79q5.08-.3,10.38-1.06,5-.73,11.69-2.13l.2-.61-15-27.08-7.6,30.35Q248.81,106.16,249.1,106.11Z"/><path class="cls-1" d="M347.5,112.93q1.29,8.88,2.87,12.75.43,1,3.83,1.71a15.82,15.82,0,0,0,4.55.58c.29,0,.55.6.79,1.93a7.9,7.9,0,0,1,.18,2.75l-5.42.42q-3.4.27-6.14.52t-5.18.6q-2.72.39-5.42.93t-6,1.23l-5.39,1.15a4.08,4.08,0,0,1-1-2.57q-.3-2.08.27-2.16a15.46,15.46,0,0,0,4.62-1.91q3-1.68,3.19-2.73a48,48,0,0,0-.39-10.77l-8.63-59.6A50.45,50.45,0,0,0,322,48.16q-1-2.19-7.49-1.26l-1.43.21q-.86.12-1.11-1.59-.33-2.29.53-2.42,4.38-1.07,8.29-2.37t6.46-2.4q2.55-1.1,4.39-2t2.92-1.52l.94-.57.29,0q.57-.08,1.34.68a4.45,4.45,0,0,1,1,1.32,45.77,45.77,0,0,0,.23,13.72Z"/><path class="cls-1" d="M390.38,107q1.27,8.74,3,12.73.43,1,4.17,1.52a21.28,21.28,0,0,0,5,.37q.57-.08.95,2a8.24,8.24,0,0,1,.19,2.82q-1,0-7.75.54t-9.88,1q-3.58.52-10,1.89t-7.44,1.66c-.44-.33-.76-1.21-1-2.64s-.12-2.18.26-2.23a20.94,20.94,0,0,0,5-1.82q3.42-1.59,3.57-2.64a47.27,47.27,0,0,0-.51-10.6L372.6,88.23q-1-6.73-3.62-8.84a8,8,0,0,0-3.61-1.67,15.24,15.24,0,0,0-3.56-.36q-1.45.07-1.49-.22-.6-4.15.24-4.42a111.14,111.14,0,0,0,11.36-3.4,113.63,113.63,0,0,0,10.95-4.22,8.53,8.53,0,0,0,1.1-.45c.48-.07.91.21,1.29.84a2.67,2.67,0,0,1,.51,1.54,124.39,124.39,0,0,0,.64,12.49ZM366.8,49.21a8.82,8.82,0,0,1-3.49-5.93,8.89,8.89,0,0,1,7.61-10.1,8.9,8.9,0,0,1,10.16,7.52,8.83,8.83,0,0,1-1.67,6.68,8.92,8.92,0,0,1-12.61,1.83Z"/><path class="cls-1" d="M431,57.24a26.84,26.84,0,0,1,12.42.91,22.91,22.91,0,0,1,9.28,5.53,33.65,33.65,0,0,1,5.81,7.79,25,25,0,0,1,2.79,8.15q.46,3.15-.5,4.1t-4.26,1.42l-34.24,5q-1,.15-.88,1a28.13,28.13,0,0,0,3.32,9.76,19.92,19.92,0,0,0,7.6,7.53,17,17,0,0,0,11.33,2,39.53,39.53,0,0,0,4.12-.82,21.64,21.64,0,0,0,3.62-1.26q1.65-.75,2.87-1.37a12.43,12.43,0,0,0,2.46-1.67l1.76-1.5q.52-.44,2.59-2.35a2.39,2.39,0,0,1,.84.76,2.8,2.8,0,0,1,.64,1.37,4.45,4.45,0,0,1-.47,2.85q-1.59,4.18-7.33,9a26.86,26.86,0,0,1-13.62,5.92,29.31,29.31,0,0,1-22.83-6.13,31.22,31.22,0,0,1-12.27-21.11q-2.1-14.47,5-24.71T431,57.24ZM431,64a10.24,10.24,0,0,0-5.87,2.9,13.66,13.66,0,0,0-3.45,5.47,27.61,27.61,0,0,0-1.3,5.67,17.65,17.65,0,0,0,0,4.32c.1.67.43,1,1,.88l23.21-3.36q1.29-.19,1-2.34a18.75,18.75,0,0,0-4.84-9.69Q436.54,63.17,431,64Z"/><path class="cls-1" d="M510.95,45.67Q529.43,43,533.68,72.36l2,13.61a60.59,60.59,0,0,0,2.87,12.75q.43,1,4.24,1.51a22.16,22.16,0,0,0,5.1.36c.29,0,.55.63.8,2a8.22,8.22,0,0,1,.19,2.82q-.88,0-7.6.52t-10,1q-3.44.5-9.46,1.81t-7.29,1.64q-.66-.49-1-2.64t.26-2.23a17.19,17.19,0,0,0,4.64-1.77q3.07-1.54,3.21-2.59a41.58,41.58,0,0,0-.37-10.62l-2-13.61Q517.56,65,513.65,60.78t-10.93-3.24a13.41,13.41,0,0,0-7.66,3.67q-3.07,3-2.66,5.87L496,91.72a60.59,60.59,0,0,0,2.87,12.75q.43,1,4.1,1.53a20.79,20.79,0,0,0,4.81.4q.57-.08.95,2a8.23,8.23,0,0,1,.19,2.82q-1.17,0-7.6.52t-9.73,1q-3.44.5-9.9,1.87t-7.58,1.68c-.44-.33-.76-1.21-1-2.64s-.12-2.18.26-2.23a20.19,20.19,0,0,0,5.07-1.83q3.35-1.58,3.5-2.63a47.28,47.28,0,0,0-.51-10.6L478,73q-1-6.73-3.62-8.84a7,7,0,0,0-3.54-1.68,16.55,16.55,0,0,0-3.56-.36q-1.38.06-1.42-.23-.6-4.15.09-4.4,6.51-1.53,22.44-7.64a.94.94,0,0,1,.33-.27,1.37,1.37,0,0,1,.42-.13l.36-.05c.38-.06.76.23,1.15.86a4.44,4.44,0,0,1,.66,1.51,49.22,49.22,0,0,0,.17,5.24c.06.38.14.62.25.7a2.13,2.13,0,0,0,.65-.53,32.1,32.1,0,0,1,7.94-7.29A25.34,25.34,0,0,1,510.95,45.67Z"/><path class="cls-1" d="M561.63,10.83a19.43,19.43,0,0,1-.44,7.6A21.66,21.66,0,0,1,558.42,25a43,43,0,0,1-3.81,5,27.58,27.58,0,0,1-3.53,3.44,6.69,6.69,0,0,1-1.94,1.23,4.2,4.2,0,0,1-2.37-.68,4.94,4.94,0,0,1-2.1-1.89,22.8,22.8,0,0,0,5.53-6.29,19.83,19.83,0,0,0,2.38-5.32,9,9,0,0,0,.24-2.89q-.27-1.86-3.75-4.65t-3.77-4.79q-.35-2.43,2.32-4.72A12,12,0,0,1,553.87.69a9,9,0,0,1,4.16.42Q560.63,3.95,561.63,10.83Z"/><path class="cls-1" d="M594.31,33.45a61.55,61.55,0,0,1,17,0,82.17,82.17,0,0,1,3.9,15.82c.11.77-.46,1.24-1.7,1.42q-3.15.46-3.6-.65a17.55,17.55,0,0,0-5.46-7.91,11.32,11.32,0,0,0-9.18-2.25A10.39,10.39,0,0,0,589,42.7a6.42,6.42,0,0,0-1.6,5.64,8.39,8.39,0,0,0,1.32,3.54,9,9,0,0,0,3,2.71,35.54,35.54,0,0,0,3.48,1.84q1.48.66,4.42,1.7a9.34,9.34,0,0,0,1.54.51l2.32.84,2.55.95,2.49,1a25.94,25.94,0,0,1,2.75,1.28q.8.47,2.47,1.4a11.44,11.44,0,0,1,2.44,1.69q.77.77,2,2a9.33,9.33,0,0,1,1.88,2.36,27.69,27.69,0,0,1,1.18,2.61,13.47,13.47,0,0,1,.8,3,17.06,17.06,0,0,1-4.88,15.26,27.46,27.46,0,0,1-16.08,7.67,48.34,48.34,0,0,1-19.06-1.33,58,58,0,0,1-2.58-7.74,70.62,70.62,0,0,1-1.91-8.13,3.07,3.07,0,0,1,1.9-1q3.29-.48,3.6.65A16,16,0,0,0,590.14,90a15.43,15.43,0,0,0,10.34,2.23,10.52,10.52,0,0,0,6.3-3A7.06,7.06,0,0,0,608.51,83a9.6,9.6,0,0,0-.74-2.6,7.11,7.11,0,0,0-1.72-2.24l-1.94-1.77a10.51,10.51,0,0,0-2.86-1.56q-2.1-.86-3.1-1.23l-3.85-1.34q-2.85-1-3.93-1.41a33.65,33.65,0,0,1-11.28-6.19A15.47,15.47,0,0,1,574,55q-1.27-8.74,4.93-14.46A27.91,27.91,0,0,1,594.31,33.45Z"/><path class="cls-1" d="M379.65,198.16q0-10.86,9.12-18.31a31.63,31.63,0,0,1,20.56-7.46,50.88,50.88,0,0,1,7.09.43q3,.44,8.47,1.81t7.46,1.81a129.11,129.11,0,0,1,1.74,22.29,1.58,1.58,0,0,1-1.74,1.3q-3.91,0-4.2-1.3-.87-6.66-6.22-13t-13-6.37q-6.66,0-10.21,3.76t-3.55,10.13a16.33,16.33,0,0,0,.51,4.13,10.21,10.21,0,0,0,2,3.84q1.52,1.88,2.46,3.11a17.19,17.19,0,0,0,3.62,3.11q2.68,1.88,3.62,2.61t4.34,2.82a44,44,0,0,0,4.13,2.39,53.39,53.39,0,0,0,4.85,3.11q4,2.39,5.57,3.47t4.63,3.69a20.89,20.89,0,0,1,4.42,4.92,29.73,29.73,0,0,1,2.53,5.86,24.37,24.37,0,0,1,1.16,7.6q0,11.58-9.34,19.11A33.48,33.48,0,0,1,408,270.55q-8.69,0-26.64-4.05a126.38,126.38,0,0,1-2.39-13.1A98.17,98.17,0,0,1,377.92,243c.09-.77.87-1.16,2.32-1.16q3.76,0,4.2,1.16a28.17,28.17,0,0,0,2,5.72,42.11,42.11,0,0,0,4,6.66,19,19,0,0,0,6.8,5.79,20.34,20.34,0,0,0,9.63,2.24,16.21,16.21,0,0,0,11.29-4.05q4.49-4.05,4.49-12.16a12.61,12.61,0,0,0-.94-4.78,16.76,16.76,0,0,0-2.17-3.91,21.16,21.16,0,0,0-3.62-3.47q-2.39-1.88-4-2.9t-4.71-2.82q-3.11-1.81-4.42-2.53a9.88,9.88,0,0,0-1.59-1.16q-4.2-2.61-6.37-4.05a69.73,69.73,0,0,1-5.57-4.27,28.66,28.66,0,0,1-5.14-5.28A27.38,27.38,0,0,1,381,206,21.79,21.79,0,0,1,379.65,198.16Z"/><path class="cls-1" d="M472.45,248.54q0,8.83,1.16,13,.29,1,3.91,2.1a21.29,21.29,0,0,0,4.92,1.09q.58,0,.65,2.1a8.23,8.23,0,0,1-.22,2.82q-1-.15-7.74-.58t-9.92-.43q-3.62,0-10.21.43t-7.6.58q-.58-.58-.58-2.75c0-1.45.19-2.17.58-2.17a21,21,0,0,0,5.21-1.09q3.62-1.09,3.91-2.1a47.28,47.28,0,0,0,1-10.57v-23.6q0-6.8-2.32-9.27a8,8,0,0,0-3.33-2.17,15.26,15.26,0,0,0-3.47-.87Q447,215,447,214.67q0-4.2.87-4.34a111.15,111.15,0,0,0,11.73-1.74A113.53,113.53,0,0,0,471,206a8.56,8.56,0,0,0,1.16-.29c.48,0,.87.34,1.16,1a2.67,2.67,0,0,1,.29,1.59,124.16,124.16,0,0,0-1.16,12.45ZM457.39,188a8.82,8.82,0,0,1-2.61-6.37,8.9,8.9,0,0,1,9-8.9,8.9,8.9,0,0,1,9,8.9,8.82,8.82,0,0,1-2.61,6.37,8.91,8.91,0,0,1-12.74,0Z"/><path class="cls-1" d="M517.76,205.4a45.85,45.85,0,0,1,12,1.88,44.66,44.66,0,0,0,11.58,1.88h8.25c.19,0,.53.63,1,1.88a8.9,8.9,0,0,1,.72,2.9c0,1.35-.29,2-.87,2h-9.41c-.39,0-.58.14-.58.43q0,.15,1.3,3.76a20.5,20.5,0,0,1,1.3,6.95q0,8.54-7.17,15.42A24.8,24.8,0,0,1,518,249.41a59.89,59.89,0,0,1-9-.58,7.79,7.79,0,0,0-3.18,2.68,6.17,6.17,0,0,0-1.45,3.55,3,3,0,0,0,1.38,2.46,9.73,9.73,0,0,0,4.27,1.45q2.89.43,4.92.58t5.79.29H523q14.47.43,21.21,4t6.73,10.64q.14,10.86-10.42,18.82a39.56,39.56,0,0,1-24.46,8,37.62,37.62,0,0,1-18.46-4.05q-7.89-4.2-7.89-11.87,0-4.2,4.13-8.11a23.94,23.94,0,0,1,8.9-5.5,16.5,16.5,0,0,1-6.95-4.42,10.53,10.53,0,0,1-3.19-7.6q0-6.22,10.71-12.88-4.2-1.88-7.82-7.46a21.3,21.3,0,0,1-3.62-11.8q0-10.28,7.53-16.21T517.76,205.4Zm20,75.71q0-5.07-7.31-6.73t-19.62-1.67a2.35,2.35,0,0,0-.72.15,6.46,6.46,0,0,0-.72.43q-1.88.72-2.9,1.23a12.49,12.49,0,0,0-2.32,1.59,7,7,0,0,0-2,2.53,8.41,8.41,0,0,0-.65,3.47q0,5.21,5.5,8.69a22.56,22.56,0,0,0,12.3,3.47q8.1,0,13.25-3.76T537.73,281.11Zm-31-54.72a22.91,22.91,0,0,0,2.89,11.94,9,9,0,0,0,8.11,4.85q5.35,0,7.89-4.13a19.18,19.18,0,0,0,2.53-10.21q0-7.67-2.89-12.45a9.26,9.26,0,0,0-8.4-4.78,8.16,8.16,0,0,0-7.67,4.49A21,21,0,0,0,506.76,226.39Z"/><path class="cls-1" d="M606.5,205.11q18.67,0,18.67,29.68v13.75a60.56,60.56,0,0,0,1,13q.29,1,4,2.1a22.18,22.18,0,0,0,5,1.09c.29,0,.46.7.51,2.1a8.21,8.21,0,0,1-.22,2.82q-.87-.15-7.6-.58t-10.06-.43q-3.47,0-9.63.43t-7.46.58q-.58-.58-.58-2.75t.58-2.17a17.22,17.22,0,0,0,4.85-1.09q3.26-1.09,3.55-2.1A41.58,41.58,0,0,0,610.26,251V237.25q0-12-3.26-16.79t-10.35-4.78a13.4,13.4,0,0,0-8.11,2.53q-3.47,2.53-3.47,5.43v24.9a60.64,60.64,0,0,0,1,13q.29,1,3.84,2.1a20.82,20.82,0,0,0,4.7,1.09q.58,0,.65,2.1a8.21,8.21,0,0,1-.22,2.82q-1.16-.15-7.6-.58t-9.77-.43q-3.47,0-10.06.43t-7.74.58q-.58-.58-.58-2.75c0-1.45.19-2.17.58-2.17a20.2,20.2,0,0,0,5.28-1.09q3.55-1.09,3.84-2.1A47.28,47.28,0,0,0,570,251v-23.6q0-6.8-2.32-9.27a7,7,0,0,0-3.26-2.17,16.56,16.56,0,0,0-3.47-.87c-.92-.1-1.37-.24-1.37-.43q0-4.2.72-4.34,6.66-.58,23.31-4.34a.94.94,0,0,1,.36-.22,1.39,1.39,0,0,1,.43-.07h.36c.38,0,.72.34,1,1a4.41,4.41,0,0,1,.43,1.59,49.11,49.11,0,0,0-.58,5.21,1.13,1.13,0,0,0,.14.72,2.14,2.14,0,0,0,.72-.43,32.1,32.1,0,0,1,8.9-6.08A25.34,25.34,0,0,1,606.5,205.11Z"/><path class="cls-1" d="M674.1,205.11q9,0,13.46,4.71T692,226v28.52a6.61,6.61,0,0,0,1.3,4.42,4.35,4.35,0,0,0,3.47,1.52,9,9,0,0,0,4.92-1.88c.58.19.87.72.87,1.59a8.61,8.61,0,0,1-.87,4.34,35.88,35.88,0,0,1-5.79,3.62A15.09,15.09,0,0,1,689,270a10.57,10.57,0,0,1-6.51-2.46,11.87,11.87,0,0,1-4.2-5.36q-.15.15-1.09.94t-2.61,2a42.63,42.63,0,0,1-3.76,2.32,23.12,23.12,0,0,1-4.92,2,21,21,0,0,1-5.72.8q-7.24,0-11.8-4t-4.56-10.93a13.35,13.35,0,0,1,1.66-6.51,17.29,17.29,0,0,1,4-5,29.68,29.68,0,0,1,6.22-3.84,59.61,59.61,0,0,1,6.73-2.82q2.82-.94,7.24-2.24t6.15-1.88a2.28,2.28,0,0,0,1.3-2.32v-8q0-5.07-2.32-8a7.56,7.56,0,0,0-6.22-2.9,8.78,8.78,0,0,0-6.8,2.68q-2.46,2.68-2.46,7.6a4.69,4.69,0,0,1-2.17,4.27,9,9,0,0,1-4.92,1.38q-5.36,0-7.53-3.47,0-6.95,9.48-13A36.31,36.31,0,0,1,674.1,205.11Zm-6.51,55.59a11.22,11.22,0,0,0,6.73-2q2.82-2,2.82-4.63V239.28q-1,.44-4.27,1.45t-5,1.74a39.53,39.53,0,0,0-4.05,2,8.73,8.73,0,0,0-3.4,3.18,8,8,0,0,0-1.09,4.05q0,4.63,2.32,6.8A8.33,8.33,0,0,0,667.58,260.7Z"/><path class="cls-1" d="M734.32,248.25q0,9,1,13,.29,1,3.55,2.24a15.82,15.82,0,0,0,4.42,1.23c.29,0,.46.68.51,2a7.89,7.89,0,0,1-.22,2.75l-5.43-.36q-3.4-.22-6.15-.36t-5.21-.15q-2.75,0-5.5.15t-6.08.36l-5.5.36a4.09,4.09,0,0,1-.58-2.68q0-2.1.58-2.1a15.47,15.47,0,0,0,4.85-1.23q3.26-1.23,3.55-2.24a48,48,0,0,0,1.16-10.71V190.35a50.46,50.46,0,0,0-.87-9.84q-.73-2.31-7.24-2.32h-1.45q-.87,0-.87-1.74c0-1.54.29-2.32.87-2.32q4.49-.43,8.54-1.16t6.73-1.45q2.68-.72,4.63-1.37t3.11-1.09l1-.43H734q.58,0,1.23.87a4.43,4.43,0,0,1,.8,1.45,45.76,45.76,0,0,0-1.74,13.61Z"/><path class="cls-1" d="M87.63,344.92a29.2,29.2,0,0,1,10.54,1.64,26.71,26.71,0,0,1,8.64,5A24.72,24.72,0,0,1,113.66,378a24.34,24.34,0,0,1-4.08,7.19,23.25,23.25,0,0,1-6.37,5.37A30.78,30.78,0,0,1,95,393.83l.37,16.72q7.36-.6,14.22-1.41t12.78-1.82a3,3,0,0,1,1.27,0,1.08,1.08,0,0,1,.85,1l.82,7.24a1.42,1.42,0,0,1-.36,1.33,2.22,2.22,0,0,1-1,.57q-6.14,1-14.37,2t-17.29,1.75Q83.16,422,74,422.51T57.1,423q-1.65,0-1.69-1.72l-.16-7.48q0-1.54,1.62-1.58,6.16.09,12.81-.17t13.46-.63l-.38-17.38a28.29,28.29,0,0,1-8.37-2.79,24.52,24.52,0,0,1-6.66-5,22.76,22.76,0,0,1-4.44-7,24.51,24.51,0,0,1-1.73-8.82,24.22,24.22,0,0,1,7.36-18.1,26.15,26.15,0,0,1,8.3-5.35A28.76,28.76,0,0,1,87.63,344.92Zm.23,10.45a15.11,15.11,0,0,0-5.59,1.17,14.38,14.38,0,0,0-4.56,3,12.87,12.87,0,0,0-3,4.63,15.72,15.72,0,0,0-1,6,16.13,16.13,0,0,0,1.23,6,12.75,12.75,0,0,0,3.18,4.55,14.33,14.33,0,0,0,4.68,2.81,15.08,15.08,0,0,0,5.63.92,15.82,15.82,0,0,0,5.75-1.17,14.19,14.19,0,0,0,4.61-3,12.78,12.78,0,0,0,3-4.69,16.17,16.17,0,0,0,1-6.07,15.76,15.76,0,0,0-1.23-6,12.9,12.9,0,0,0-3.18-4.5,14.24,14.24,0,0,0-4.74-2.81A15.85,15.85,0,0,0,87.86,355.37ZM143,439.76q0,1.43-1.51,1.46l-9.68.21a1.68,1.68,0,0,1-1.05-.36,1.25,1.25,0,0,1-.52-1L128,338.53a1.3,1.3,0,0,1,.47-1,1.56,1.56,0,0,1,1-.46l9.68-.21q1.54,0,1.57,1.4Z"/><path class="cls-1" d="M168.06,415.33a4.31,4.31,0,0,1-1.74.7,1.44,1.44,0,0,1-1.44-.63l-4.53-6a1.78,1.78,0,0,1-.31-1.81,3.44,3.44,0,0,1,.91-1.28,76.63,76.63,0,0,0,13.24-10.8,77.85,77.85,0,0,0,10-12.43,59,59,0,0,0,6.26-12.85,39.78,39.78,0,0,0,2.27-11.93,5.69,5.69,0,0,0-.51-3.12q-.57-.81-2.88-.76L165,355q-1.54,0-1.57-1.4l-.16-7.48a1.31,1.31,0,0,1,.47-1,1.56,1.56,0,0,1,1-.46l32-.7q4.73-.1,6.53,1.67t1.78,6.07q-.06,2.2-.18,4.4t-.4,4.3l11.77-.26-.48-21.66q0-1.43,1.51-1.46l9-.2a1.26,1.26,0,0,1,1.46,1.4l2.11,96q0,1.54-1.4,1.57l-9,.2a1.36,1.36,0,0,1-1.57-1.51l-.87-39.7-15.73.34a1.55,1.55,0,0,1-1.05-.42,1.3,1.3,0,0,1-.52-1l-.16-7.26a1.15,1.15,0,0,1,.47-.95,1.68,1.68,0,0,1,1-.41l15.73-.34-.32-14.52-14,.31a73.5,73.5,0,0,1-12.77,24.82A91.53,91.53,0,0,1,168.06,415.33Zm81.5,23.74-9.57.21a1.26,1.26,0,0,1-1.46-1.4L236.3,336.16q0-1.43,1.51-1.46l9.46-.21a1.26,1.26,0,0,1,1.46,1.4L251,437.61A1.27,1.27,0,0,1,249.56,439.07Z"/><path class="cls-1" d="M318.77,363.95A27,27,0,0,1,317,374.33a25.31,25.31,0,0,1-5.37,8.53,26.45,26.45,0,0,1-8.4,5.85A27.72,27.72,0,0,1,292.4,391a26.91,26.91,0,0,1-10.82-1.85,26.08,26.08,0,0,1-8.48-5.48,25,25,0,0,1-5.63-8.29,27.72,27.72,0,0,1-2.15-10.3A26.72,26.72,0,0,1,267,355a26.39,26.39,0,0,1,5.26-8.59,26,26,0,0,1,8.23-6A26.31,26.31,0,0,1,291.24,338a27.1,27.1,0,0,1,10.94,1.91,26.32,26.32,0,0,1,8.65,5.64,26.75,26.75,0,0,1,5.74,8.35A26.08,26.08,0,0,1,318.77,363.95Zm-12.53.5a17,17,0,0,0-1.18-6,14.77,14.77,0,0,0-3.08-4.83,14.2,14.2,0,0,0-4.64-3.2,13.84,13.84,0,0,0-5.86-1.08,13.45,13.45,0,0,0-5.75,1.34,13.72,13.72,0,0,0-4.38,3.4,15.21,15.21,0,0,0-2.81,5,17,17,0,0,0-.91,6,17.77,17.77,0,0,0,1.18,6.14,15.05,15.05,0,0,0,3,4.88,13.67,13.67,0,0,0,4.53,3.2,13.43,13.43,0,0,0,5.8,1.08A13.81,13.81,0,0,0,298,379a14.15,14.15,0,0,0,4.49-3.4,14.62,14.62,0,0,0,2.86-5A17.82,17.82,0,0,0,306.23,364.44Zm45.21,69.76a2.12,2.12,0,0,1-1.09.35l-57,1.25q-4.95.11-6.69-1.61t-1.84-6l-.55-24.85a1.72,1.72,0,0,1,1.51-1.57l9.57-.21a1.58,1.58,0,0,1,1.17.47,1.47,1.47,0,0,1,.52,1l.45,20.35a1.75,1.75,0,0,0,.47,1.42,2.66,2.66,0,0,0,1.55.3L350.12,424a1.9,1.9,0,0,1,1.11.36,1.12,1.12,0,0,1,.57.92l.17,7.92A1.08,1.08,0,0,1,351.44,434.2ZM347.94,405a1.26,1.26,0,0,1-1.4,1.46l-9.79.21q-1.43,0-1.46-1.51L333.73,334a1.26,1.26,0,0,1,1.4-1.46l9.79-.21a1.27,1.27,0,0,1,1.46,1.4Z"/><path class="cls-1" d="M365.74,403.68a1.53,1.53,0,0,1,1.2-.52q7.81.05,16.5-.36t17.31-1q8.62-.63,16.75-1.52t14.92-1.92a3,3,0,0,1,1.27,0,1.08,1.08,0,0,1,.85,1l.82,7.13a1.57,1.57,0,0,1-.35,1.38,2.05,2.05,0,0,1-1,.63q-6.14,1-14.37,2t-17.29,1.7q-9.06.75-18.18,1.22t-16.93.54a1.53,1.53,0,0,1-1.22-.47,1.68,1.68,0,0,1-.47-1.15l-.16-7.48A1.68,1.68,0,0,1,365.74,403.68Zm31.34-66.1a30,30,0,0,1,10.54,1.58,25.46,25.46,0,0,1,8.64,5,24.19,24.19,0,0,1,5.9,8,27.3,27.3,0,0,1,.46,21,23.12,23.12,0,0,1-5.54,8,25.64,25.64,0,0,1-8.41,5.19,31.14,31.14,0,0,1-10.57,2,30.32,30.32,0,0,1-10.49-1.53,25.1,25.1,0,0,1-8.52-4.82,23.45,23.45,0,0,1-5.84-7.79,27.31,27.31,0,0,1-.46-21,24.55,24.55,0,0,1,5.49-8.21,24.83,24.83,0,0,1,8.35-5.35A30,30,0,0,1,397.08,337.58ZM397.3,348a14,14,0,0,0-10.25,4.3q-4,4.16-3.83,11.09t4.31,11A14,14,0,0,0,398,378.27a14.29,14.29,0,0,0,10.47-4.3q4-4.16,3.83-11.2T408,351.87A14.29,14.29,0,0,0,397.3,348ZM453.08,433q0,1.43-1.51,1.46l-9.68.21a1.68,1.68,0,0,1-1.05-.36,1.25,1.25,0,0,1-.52-1L438.1,331.73a1.3,1.3,0,0,1,.47-1,1.56,1.56,0,0,1,1-.46l9.68-.21q1.54,0,1.57,1.4Z"/><path class="cls-1" d="M508.71,390.81a3,3,0,0,1-2.19.71,3,3,0,0,1-1.45-1l-4.62-5.07q-1.13-1.18-.87-2a3,3,0,0,1,1.23-1.51,71.52,71.52,0,0,0,10.58-9.09,46.51,46.51,0,0,0,7.53-10.56,49,49,0,0,0,4.45-12.81,71.26,71.26,0,0,0,1.25-15.82,2,2,0,0,1,.52-1.39,1.54,1.54,0,0,1,1.09-.63l9.69.34q1.43,0,1.47,1.62.1,4.62-.19,8.86a77,77,0,0,1-1,8.11,34.7,34.7,0,0,0,4.15,8.77,51.9,51.9,0,0,0,6.05,7.62,56.31,56.31,0,0,0,6.9,6.12,43.38,43.38,0,0,0,6.8,4.25q1.67.85.5,2.63l-4,6a1.92,1.92,0,0,1-2.84.72A47.82,47.82,0,0,1,540.94,378a53.84,53.84,0,0,1-9.67-12.22A59.57,59.57,0,0,1,522,379.24,82.33,82.33,0,0,1,508.71,390.81ZM589,429.43a1.86,1.86,0,0,1-1,.35L530.39,431q-4.95.11-6.69-1.61t-1.84-6l-.55-25.07a1.72,1.72,0,0,1,1.51-1.57l9.57-.21a1.58,1.58,0,0,1,1.17.47,1.47,1.47,0,0,1,.52,1l.45,20.57c0,.73.17,1.21.47,1.42a2.92,2.92,0,0,0,1.66.29l51.14-1.12a1.56,1.56,0,0,1,1.06.42,1.3,1.3,0,0,1,.52,1l.17,7.81A1.11,1.11,0,0,1,589,429.43Zm-3.56-29.52a1.26,1.26,0,0,1-1.4,1.46l-9.79.21q-1.43,0-1.46-1.51l-1.56-71.26a1.26,1.26,0,0,1,1.4-1.46l9.79-.21a1.27,1.27,0,0,1,1.46,1.4Z"/><path class="cls-1" d="M700.06,411.64a1.54,1.54,0,0,1-1.09.63l-95.79,2.1a1.35,1.35,0,0,1-1.11-.53,1.89,1.89,0,0,1-.47-1.2l-.15-6.93a1.68,1.68,0,0,1,.41-1.16A1.41,1.41,0,0,1,603,404l41.57-.91-.21-9.68a43.57,43.57,0,0,1-9.78-2A26.06,26.06,0,0,1,627,387.5a18.6,18.6,0,0,1-4.91-5.5,14.14,14.14,0,0,1-1.86-6.84,14,14,0,0,1,2.09-7.75,20.59,20.59,0,0,1,6.08-6.24,31.89,31.89,0,0,1,9.37-4.22,47.61,47.61,0,0,1,12-1.69,48.1,48.1,0,0,1,12.13,1.16,32.7,32.7,0,0,1,9.6,3.81,19.81,19.81,0,0,1,6.35,6,14.64,14.64,0,0,1,.81,14.56,18.63,18.63,0,0,1-4.66,5.71,25.94,25.94,0,0,1-7.39,4.23,44.55,44.55,0,0,1-9.63,2.47l.21,9.68,41.57-.91a1.94,1.94,0,0,1,1.69,1.61l.15,6.93A1.77,1.77,0,0,1,700.06,411.64ZM690,350.36a1.58,1.58,0,0,1-1.14.52l-78.19,1.72a1.58,1.58,0,0,1-1.11-.53,1.79,1.79,0,0,1-.58-1.31l-.14-6.38a1.54,1.54,0,0,1,.58-1.11,1.77,1.77,0,0,1,1.14-.58L688.61,341a1.69,1.69,0,0,1,1.69,1.61l.14,6.49A1.71,1.71,0,0,1,690,350.36Zm-22.75-13.75a1.62,1.62,0,0,1-1.25.58l-33.1.73a1.88,1.88,0,0,1-1.06-.42,1.41,1.41,0,0,1-.63-1.2l-.15-6.82a1.53,1.53,0,0,1,.58-1.33,1.89,1.89,0,0,1,1-.46l33.1-.73a1.62,1.62,0,0,1,1.22.58,1.87,1.87,0,0,1,.58,1.25l.14,6.6A1.77,1.77,0,0,1,667.22,336.61ZM650,364.6a31.91,31.91,0,0,0-6.86.87,20.57,20.57,0,0,0-5.56,2.16,11.81,11.81,0,0,0-3.67,3.22,6.55,6.55,0,0,0,.18,8,11.81,11.81,0,0,0,3.81,3.05,20.52,20.52,0,0,0,5.65,1.91,33.42,33.42,0,0,0,13.75-.3,20.56,20.56,0,0,0,5.56-2.16,12.51,12.51,0,0,0,3.73-3.22,6.35,6.35,0,0,0-.18-8,12.51,12.51,0,0,0-3.86-3.05,20.61,20.61,0,0,0-5.65-1.91A31.93,31.93,0,0,0,650,364.6Z"/></svg>