<svg id="Layer_1" data-name="Layer 1" xmlns="http://www.w3.org/2000/svg" viewBox="0 0 536.54 143.64"><defs><style>.cls-1{fill:#1928eb;}</style></defs><title>title</title><path class="cls-1" d="M6.1,45.63l.63,4.74a.18.18,0,0,0,.06.13l.11.06h0l.24,0q.62-.08,1.4-1.21,2-2.85,4.4-6.58a1.63,1.63,0,0,0,.35-.95q0-.29-.7-.33a6.33,6.33,0,0,0-1.11,0c-.08,0-.14-.1-.19-.32a1.55,1.55,0,0,1,0-.55l3.59-.3q.56-.07,1.1-.18l1.17-.23,1-.21a1.26,1.26,0,0,1,.11.5c0,.26,0,.39-.05.4a4.64,4.64,0,0,0-2.81,1.63l-4.65,7a.58.58,0,0,0,.17.82l8,7.28a3,3,0,0,0,1.55.75,4.84,4.84,0,0,0,1.35.12c.1,0,.17.17.22.54a.92.92,0,0,1,0,.42q-3.56.29-4.06.36-.94.13-2.24.37l-1.83.35a.85.85,0,0,1-.19-.53c0-.28,0-.43.06-.44a2.29,2.29,0,0,0,.8-.32q.47-.27.44-.51a5.74,5.74,0,0,0-1-1.13q-1-1-2.64-2.48T8.09,52a1.09,1.09,0,0,0-.66,0q-.47.06-.42.42l.58,4.36a10.72,10.72,0,0,0,.61,2.56q.08.2.87.32a4.56,4.56,0,0,0,1,.09c.08,0,.14.17.19.54a1.31,1.31,0,0,1,0,.42L6.52,61l-1.23.19-1.42.26-1.24.24a.58.58,0,0,1-.17-.4c0-.37,0-.57,0-.58a4.74,4.74,0,0,0,1.08-.35q.72-.31.78-.55a10.39,10.39,0,0,0-.09-2.51L2.75,46a8.94,8.94,0,0,0-.56-2.44q-.15-.22-.89-.35a4,4,0,0,0-1.09-.08q-.12,0-.18-.43a1.2,1.2,0,0,1,0-.54L1.67,42q1.5-.11,2.3-.21l3.75-.68a1.5,1.5,0,0,1,.15.46c0,.33,0,.51-.05.52a4.83,4.83,0,0,0-1,.38Q6,42.79,6,43A11.07,11.07,0,0,0,6.1,45.63Z"/><path class="cls-1" d="M28.42,45a5.51,5.51,0,0,1,2.55.22,4.7,4.7,0,0,1,1.89,1.16A6.9,6.9,0,0,1,34,47.94a5.1,5.1,0,0,1,.55,1.68c.06.43,0,.71-.11.84a1.68,1.68,0,0,1-.88.28l-7,.93c-.14,0-.2.09-.18.2a5.76,5.76,0,0,0,.66,2,4.09,4.09,0,0,0,1.54,1.57,3.5,3.5,0,0,0,2.32.44,8.1,8.1,0,0,0,.85-.16,4.4,4.4,0,0,0,.75-.25l.59-.27a2.53,2.53,0,0,0,.51-.34l.37-.3.54-.48a.49.49,0,0,1,.17.16.57.57,0,0,1,.13.28.92.92,0,0,1-.1.58,4.84,4.84,0,0,1-1.53,1.82,5.52,5.52,0,0,1-2.81,1.18,6,6,0,0,1-4.67-1.31,6.41,6.41,0,0,1-2.47-4.37,6.88,6.88,0,0,1,1.08-5.06A5.76,5.76,0,0,1,28.42,45Zm0,1.38a2.1,2.1,0,0,0-1.21.58A2.81,2.81,0,0,0,26.46,48a5.69,5.69,0,0,0-.28,1.16,3.63,3.63,0,0,0,0,.89c0,.14.09.2.2.18l4.77-.63q.27,0,.21-.48a3.84,3.84,0,0,0-1-2A2.13,2.13,0,0,0,28.39,46.33Z"/><path class="cls-1" d="M48.83,45.48l.77,5.83a6.59,6.59,0,0,0,.51,2,.62.62,0,0,0,.37.19,2.29,2.29,0,0,0,.53,0l.49,0a.56.56,0,0,1,.25,0c.08,0,.13.09.15.25a2.34,2.34,0,0,1,0,.41c0,.19-.06.29-.14.3a6.88,6.88,0,0,0-1,.24l-1.2.37-1.09.37-1.15.39c-.14,0-.23-.13-.27-.44l-.17-1.3c0-.1-.07-.14-.11-.14a6.65,6.65,0,0,1-1.62,1.56,5,5,0,0,1-2.25.9,3.12,3.12,0,0,1-1.82-.27,3.59,3.59,0,0,1-1.35-1.14,6.4,6.4,0,0,1-.85-1.63,9.1,9.1,0,0,1-.44-1.83L38,48.3a2.83,2.83,0,0,0-.72-1.82,1.65,1.65,0,0,0-.74-.35A3.12,3.12,0,0,0,35.8,46c-.2,0-.3,0-.31,0q-.11-.85,0-.9a22.29,22.29,0,0,0,2.37-.67,23.3,23.3,0,0,0,2.26-.84l.11,0,.11,0q.15,0,.25.18a1.08,1.08,0,0,1,.12.31,26.07,26.07,0,0,0,.08,2.63l.47,3.54a6.37,6.37,0,0,0,1.09,3.21,2.62,2.62,0,0,0,3.74-.06,1.58,1.58,0,0,0,.5-1.19L46,47.24a2.83,2.83,0,0,0-.72-1.82,1.43,1.43,0,0,0-.72-.35,3.36,3.36,0,0,0-.75-.08c-.2,0-.3,0-.31,0q-.11-.85.06-.91a22.71,22.71,0,0,0,2.34-.67,23.27,23.27,0,0,0,2.26-.84l.23-.09q.15,0,.26.18a.56.56,0,0,1,.1.32Q48.76,44.95,48.83,45.48Z"/><path class="cls-1" d="M61.82,40.52a3.21,3.21,0,0,1,2,.32,3.47,3.47,0,0,1,1.38,1.33,7,7,0,0,1,2-1.76,6.67,6.67,0,0,1,2.69-1,3.37,3.37,0,0,1,1.87.23,3.27,3.27,0,0,1,1.35,1.16,7,7,0,0,1,.86,1.74,11.4,11.4,0,0,1,.48,2.11l.41,3.09a12.4,12.4,0,0,0,.56,2.63q.08.2.85.32a4.38,4.38,0,0,0,1,.09q.09,0,.16.41a1.67,1.67,0,0,1,0,.58l-1.56.09q-1.35.09-2,.18t-2,.36l-1.56.33a1.11,1.11,0,0,1-.16-.55c0-.29,0-.45,0-.45a4,4,0,0,0,1-.36q.68-.32.71-.53a9.26,9.26,0,0,0-.07-2.09l-.4-3q-.57-4.27-3.31-3.91a2.7,2.7,0,0,0-1.56.69,1.86,1.86,0,0,0-.64,1c0,.06,0,.14,0,.24A.58.58,0,0,0,66,44a14.59,14.59,0,0,1,.33,1.82L66.72,49a11.64,11.64,0,0,0,.54,2.51q.09.2.85.32a4.36,4.36,0,0,0,1,.09q.09,0,.16.41a1.67,1.67,0,0,1,0,.58L67.78,53q-1.35.09-2,.18t-2,.36l-1.56.33A1.11,1.11,0,0,1,62,53.3c0-.29,0-.45,0-.45a4,4,0,0,0,1-.36q.68-.32.71-.53a9.73,9.73,0,0,0-.08-2.18l-.38-2.83a6.3,6.3,0,0,0-1.12-3.24,2.26,2.26,0,0,0-2.14-.77,2.85,2.85,0,0,0-1.55.72,1.4,1.4,0,0,0-.59,1.22l.67,5.07a10.91,10.91,0,0,0,.59,2.62q.09.2.82.33A4.05,4.05,0,0,0,61,53c.08,0,.14.13.19.41a1.69,1.69,0,0,1,0,.58l-1.56.09q-1.32.09-2,.18t-2.05.36l-1.55.33a.87.87,0,0,1-.19-.54q-.06-.44.06-.46a4.3,4.3,0,0,0,1-.36q.71-.32.74-.53a9.67,9.67,0,0,0-.08-2.18L55,46a2.83,2.83,0,0,0-.72-1.82,1.43,1.43,0,0,0-.72-.35,3.36,3.36,0,0,0-.75-.08c-.2,0-.3,0-.31,0q-.11-.85.06-.91a41.05,41.05,0,0,0,4.6-1.51.19.19,0,0,1,.08-.06l.15,0c.1,0,.19,0,.26.18a.56.56,0,0,1,.1.32,10.24,10.24,0,0,0,0,1.08c0,.08,0,.13.08.14a.44.44,0,0,0,.14-.11,6.58,6.58,0,0,1,1.65-1.48A5.21,5.21,0,0,1,61.82,40.52Z"/><path class="cls-1" d="M86,37.31a3,3,0,0,1,2.55.65q.33,2.51-1.08,2.69a1.77,1.77,0,0,1-1.23-.44,1.86,1.86,0,0,0-1.35-.42,1.59,1.59,0,0,0-1.31,1.12,4,4,0,0,0-.26,2l.49,3.68a12.47,12.47,0,0,0,.56,2.63q.09.2.84.32a4.2,4.2,0,0,0,1,.09c.06,0,.11.13.16.41a3,3,0,0,1,.06.58l-1.58.09q-1.34.09-2,.18t-2,.36l-1.56.33a.87.87,0,0,1-.19-.54c0-.29,0-.45.06-.46a4.17,4.17,0,0,0,1-.36q.69-.32.72-.53a9.73,9.73,0,0,0-.08-2.18l-.64-4.8a2.83,2.83,0,0,0-.72-1.82,1.43,1.43,0,0,0-.72-.35,3.4,3.4,0,0,0-.73-.08c-.19,0-.29,0-.29-.05q-.11-.85,0-.9A42.09,42.09,0,0,0,82.36,38l.23-.09c.08,0,.16,0,.23.18a.72.72,0,0,1,.12.33c0,.09,0,.23,0,.42s0,.39,0,.6a3.83,3.83,0,0,0,0,.4,5.48,5.48,0,0,1,1.25-1.62A3.26,3.26,0,0,1,86,37.31Z"/><path class="cls-1" d="M96.52,35.91a3.65,3.65,0,0,1,2.87.59,4.76,4.76,0,0,1,1.35,3.16l.77,5.81a1.36,1.36,0,0,0,.38.86.89.89,0,0,0,.75.22,1.86,1.86,0,0,0,1-.52c.12,0,.2.12.22.3a1.77,1.77,0,0,1-.06.91,7.4,7.4,0,0,1-1.08.89,3.1,3.1,0,0,1-1.36.57,2.17,2.17,0,0,1-1.39-.32,2.45,2.45,0,0,1-1-1l-.2.22q-.17.19-.48.47a8.59,8.59,0,0,1-.7.57,4.74,4.74,0,0,1-.95.53,4.32,4.32,0,0,1-1.14.32A3.55,3.55,0,0,1,92.94,49a2.82,2.82,0,0,1-1.22-2.1,2.74,2.74,0,0,1,.16-1.37,3.57,3.57,0,0,1,.67-1.12,6.1,6.1,0,0,1,1.16-.95A12.15,12.15,0,0,1,95,42.72l1.41-.65,1.2-.55a.47.47,0,0,0,.2-.51l-.21-1.62a2.55,2.55,0,0,0-.69-1.56,1.55,1.55,0,0,0-1.34-.42,1.8,1.8,0,0,0-1.31.73A2.23,2.23,0,0,0,94,39.76a1,1,0,0,1-.33.93,1.85,1.85,0,0,1-1,.41,1.68,1.68,0,0,1-1.63-.5q-.19-1.41,1.58-2.91A7.46,7.46,0,0,1,96.52,35.91ZM96.7,47.4A2.31,2.31,0,0,0,98,46.81a1.18,1.18,0,0,0,.45-1l-.4-3q-.19.12-.83.41t-1,.49a8.24,8.24,0,0,0-.77.52,1.79,1.79,0,0,0-.61.74,1.64,1.64,0,0,0-.11.85,1.83,1.83,0,0,0,.66,1.32A1.71,1.71,0,0,0,96.7,47.4Z"/><path class="cls-1" d="M113.59,33.65q3.8-.5,4.61,5.54l.37,2.8a12.48,12.48,0,0,0,.56,2.63q.08.2.87.32a4.51,4.51,0,0,0,1,.09c.06,0,.11.13.16.41a1.67,1.67,0,0,1,0,.58q-.18,0-1.56.09c-.92.06-1.61.12-2.06.18s-1.12.18-1.95.35l-1.5.32a.87.87,0,0,1-.19-.54c0-.29,0-.45.06-.46a3.55,3.55,0,0,0,1-.35c.42-.21.64-.38.67-.52a8.56,8.56,0,0,0,0-2.18l-.37-2.8a6.46,6.46,0,0,0-1.12-3.33,2.39,2.39,0,0,0-2.24-.69,2.75,2.75,0,0,0-1.58.73,1.43,1.43,0,0,0-.56,1.2l.67,5.07a12.41,12.41,0,0,0,.56,2.63c.06.13.34.24.84.32a4.28,4.28,0,0,0,1,.09c.08,0,.14.13.19.41a1.67,1.67,0,0,1,0,.58l-1.56.09q-1.32.09-2,.18t-2,.36l-1.56.33a.87.87,0,0,1-.19-.54q-.06-.44.06-.46a4.15,4.15,0,0,0,1-.36q.69-.32.72-.53a9.67,9.67,0,0,0-.08-2.18l-.64-4.8a2.83,2.83,0,0,0-.72-1.82,1.43,1.43,0,0,0-.72-.35,3.39,3.39,0,0,0-.73-.08c-.19,0-.29,0-.29-.05q-.11-.85,0-.9A42.07,42.07,0,0,0,109,34.44l.07-.05.09,0h.07q.12,0,.23.18a.93.93,0,0,1,.13.31,9.87,9.87,0,0,0,0,1.08.23.23,0,0,0,0,.14.43.43,0,0,0,.13-.11,6.6,6.6,0,0,1,1.65-1.48A5.21,5.21,0,0,1,113.59,33.65Z"/><path class="cls-1" d="M130.89,24.93q.53-.07,4-.72a1.36,1.36,0,0,1,.12.52c0,.28,0,.42,0,.43a3.29,3.29,0,0,0-1,.35q-.56.28-.51.7a1.87,1.87,0,0,0,.37.73l3.88,5.3c.11.09.21.05.29-.1q1-2.05,1.93-4.21a7.93,7.93,0,0,0,.84-2.69q0-.32-.62-.5a3.49,3.49,0,0,0-1.46-.06c-.08,0-.14-.12-.17-.4a1,1,0,0,1,0-.54q3-.22,3.56-.29t1.22-.19l1.11-.22.89-.19a2,2,0,0,1,.12.46c0,.31,0,.48-.06.49a4.12,4.12,0,0,0-1.19.43,2.43,2.43,0,0,0-1,.86q-.69,1.38-2.42,5.25A22.9,22.9,0,0,0,139,34.59l.61,4.6a11.39,11.39,0,0,0,.59,2.62q.09.2.87.35a4.17,4.17,0,0,0,1,.12c.08,0,.14.14.18.46a1.58,1.58,0,0,1,0,.48l-1.13.06-1.37.09-1.21.13q-.8.11-2.15.38l-1.68.34a.69.69,0,0,1-.18-.46c0-.31,0-.48,0-.48a4,4,0,0,0,1.06-.38q.7-.33.76-.58a10.67,10.67,0,0,0-.11-2.62l-.58-4.36a1.87,1.87,0,0,0-.27-.55q-.25-.4-.83-1.21l-1-1.39-1.42-1.9-1.46-1.94a5.77,5.77,0,0,0-1.8-1.83,3,3,0,0,0-.92-.25,3.57,3.57,0,0,0-.86-.05c-.06,0-.11-.09-.14-.28a.9.9,0,0,1,0-.42Q127.71,25.35,130.89,24.93Z"/><path class="cls-1" d="M160.89,30.61l.77,5.83a6.59,6.59,0,0,0,.51,2,.62.62,0,0,0,.37.19,2.31,2.31,0,0,0,.53,0l.49,0a.55.55,0,0,1,.25,0q.12,0,.15.25a2.41,2.41,0,0,1,0,.41c0,.19-.06.29-.14.3a6.83,6.83,0,0,0-1,.24l-1.2.37-1.09.37-1.15.39c-.14,0-.23-.13-.27-.44l-.17-1.3c0-.09-.07-.14-.11-.14a6.67,6.67,0,0,1-1.62,1.56,5,5,0,0,1-2.25.9,3.11,3.11,0,0,1-1.82-.27,3.58,3.58,0,0,1-1.35-1.14,6.37,6.37,0,0,1-.85-1.63,9,9,0,0,1-.44-1.83l-.44-3.3a2.83,2.83,0,0,0-.72-1.82,1.65,1.65,0,0,0-.74-.35,3.14,3.14,0,0,0-.73-.08c-.2,0-.3,0-.31,0q-.11-.85,0-.9a22.45,22.45,0,0,0,2.37-.67,23.45,23.45,0,0,0,2.26-.84l.11,0,.11,0c.1,0,.18,0,.25.18a1.07,1.07,0,0,1,.12.31,26.06,26.06,0,0,0,.08,2.63l.47,3.54a6.37,6.37,0,0,0,1.09,3.21,2.62,2.62,0,0,0,3.74-.06,1.58,1.58,0,0,0,.5-1.19L158,32.36a2.84,2.84,0,0,0-.72-1.82,1.43,1.43,0,0,0-.72-.35,3.4,3.4,0,0,0-.75-.08c-.2,0-.3,0-.31,0q-.11-.85.06-.91a22.77,22.77,0,0,0,2.34-.67,23.53,23.53,0,0,0,2.26-.84l.23-.09c.1,0,.19,0,.26.17a.55.55,0,0,1,.1.32Q160.82,30.08,160.89,30.61Z"/><path class="cls-1" d="M173.89,25.64q3.8-.5,4.6,5.54l.37,2.8a12.4,12.4,0,0,0,.56,2.63q.08.2.87.32a4.53,4.53,0,0,0,1,.09c.06,0,.11.13.16.41a1.69,1.69,0,0,1,0,.58c-.12,0-.64,0-1.56.09s-1.61.12-2.06.18-1.12.18-1.95.35l-1.5.32a.88.88,0,0,1-.19-.54c0-.29,0-.45.06-.46a3.55,3.55,0,0,0,1-.35q.63-.31.67-.52a8.52,8.52,0,0,0-.05-2.18l-.37-2.8a6.46,6.46,0,0,0-1.12-3.33,2.39,2.39,0,0,0-2.24-.69,2.75,2.75,0,0,0-1.58.73A1.43,1.43,0,0,0,170,30l.67,5.07a12.46,12.46,0,0,0,.56,2.63c.06.13.34.24.84.32a4.28,4.28,0,0,0,1,.09c.08,0,.14.13.19.41a1.71,1.71,0,0,1,0,.58l-1.56.09q-1.32.08-2,.18t-2,.36l-1.56.33a.87.87,0,0,1-.19-.54c0-.29,0-.45.06-.46a4.13,4.13,0,0,0,1-.36q.69-.32.72-.53A9.67,9.67,0,0,0,167.7,36l-.64-4.8a2.84,2.84,0,0,0-.72-1.82,1.43,1.43,0,0,0-.72-.35,3.4,3.4,0,0,0-.73-.08c-.19,0-.29,0-.29-.05-.08-.57-.07-.87,0-.9a42,42,0,0,0,4.63-1.51l.07-.05.09,0h.07c.08,0,.16,0,.23.18a.92.92,0,0,1,.13.31,9.71,9.71,0,0,0,0,1.08.23.23,0,0,0,0,.14.45.45,0,0,0,.14-.11,6.61,6.61,0,0,1,1.65-1.48A5.19,5.19,0,0,1,173.89,25.64Z"/><path class="cls-1" d="M195,16.42a5.53,5.53,0,0,1,3.5.5,3,3,0,0,1,1.59,2.37,4.49,4.49,0,0,1-.7,3.2,13.55,13.55,0,0,1-2.84,2.91,43.08,43.08,0,0,0,4.53,4.74,8.54,8.54,0,0,0,1.25-3,.39.39,0,0,0-.33-.36,2.14,2.14,0,0,0-.66,0l-.4,0a1.07,1.07,0,0,1-.15-.46c0-.2,0-.32,0-.37l2.71-.36q.56-.07,3.23-.55c.11,0,.18.2.21.45s0,.5-.14.56a4.92,4.92,0,0,0-1,.3,3,3,0,0,0-.92.5,3.92,3.92,0,0,0-.52.83c-.27.51-.61,1.12-1,1.84s-.75,1.31-1.05,1.77a4.57,4.57,0,0,0,.42.36l.49.39.43.32a2.62,2.62,0,0,0,.49.29,2.87,2.87,0,0,0,.42.14,1.15,1.15,0,0,0,.44,0,1.5,1.5,0,0,0,.95-.64,3.56,3.56,0,0,0,.6-1,.84.84,0,0,1,.53.14c.19.11.3.23.32.35a4.18,4.18,0,0,1-.26.63,10.39,10.39,0,0,1-.56,1,3.91,3.91,0,0,1-1,1,3,3,0,0,1-1.41.58,3.6,3.6,0,0,1-1.8-.24,4.71,4.71,0,0,1-1.39-.78l-.48-.42a7.52,7.52,0,0,1-4.81,2.62,6.72,6.72,0,0,1-4.3-.69,4.27,4.27,0,0,1-2.11-3.38,4.65,4.65,0,0,1,.14-2,4.93,4.93,0,0,1,1-1.75A14.25,14.25,0,0,1,191.65,27a17.17,17.17,0,0,1,1.49-1.2,4.49,4.49,0,0,1-.29-.35l-.31-.39-.27-.37-.29-.41-.26-.42a3.11,3.11,0,0,1-.26-.48q-.07-.17-.21-.45a2.69,2.69,0,0,1-.2-.5l-.13-.49q-.06-.28-.1-.57a4,4,0,0,1,1-3.31A5.09,5.09,0,0,1,195,16.42Zm4.33,16.16a21.49,21.49,0,0,1-2-1.93q-1.28-1.36-2.2-2.44l-.92-1A6.12,6.12,0,0,0,192.84,29a4.16,4.16,0,0,0-.27,2.39,3.38,3.38,0,0,0,1.35,2.52,3.64,3.64,0,0,0,2.59.56,3.68,3.68,0,0,0,1.61-.65A4.45,4.45,0,0,0,199.35,32.58Zm-4.1-14.87a1.78,1.78,0,0,0-1.38.87,2.57,2.57,0,0,0-.32,1.69,9.55,9.55,0,0,0,2,3.87,7,7,0,0,0,1.71-1.89,3.68,3.68,0,0,0,.31-2.31,3,3,0,0,0-.77-1.65A1.71,1.71,0,0,0,195.25,17.71Z"/><path class="cls-1" d="M218.49,28.69,217,17.55a9.42,9.42,0,0,0-.53-2.39q-.13-.31-.9-.42a4.69,4.69,0,0,0-1.21,0q-.12,0-.18-.43a.81.81,0,0,1,0-.55q2-.17,3.93-.43l2.53-.35,1.77-.25a8.81,8.81,0,0,1,4.33.52,4.39,4.39,0,0,1,1.85,1.36,4.52,4.52,0,0,1,.95,2.3,3.49,3.49,0,0,1-.36,2.06,4.81,4.81,0,0,1-1,1.44,4.9,4.9,0,0,1-.86.64c-.15.08-.18.14-.09.19a4.82,4.82,0,0,1,2.64,1.22,4.68,4.68,0,0,1,1.79,3.2,4.8,4.8,0,0,1-1.51,4.31A8.92,8.92,0,0,1,225,32.12l-4.19.53-3.9.64c-.07-.05-.12-.2-.15-.46s0-.51,0-.51a4.91,4.91,0,0,0,1.09-.34c.47-.19.74-.38.79-.57A10.77,10.77,0,0,0,218.49,28.69Zm5.83-7.82a2.63,2.63,0,0,0,1.77-3.17q-.53-4-3.92-3.53a8,8,0,0,0-1.87.4.3.3,0,0,0-.19.36l.32,2.84.46,3.45q0,.29,1.81.06A5.87,5.87,0,0,0,224.32,20.87Zm3.85,5.55a4.66,4.66,0,0,0-1.46-3,4.25,4.25,0,0,0-3.54-.77,12.4,12.4,0,0,0-1.81.39.65.65,0,0,0-.16.62l.73,5.48q.16,1.24.56,1.49a3.73,3.73,0,0,0,1.93,0,6.11,6.11,0,0,0,1.25-.3,6.4,6.4,0,0,0,1.28-.65,2.67,2.67,0,0,0,1-1.31A4,4,0,0,0,228.18,26.41Z"/><path class="cls-1" d="M239.29,17a6.56,6.56,0,0,1,5,1.3,6.38,6.38,0,0,1,2.58,4.41,6.73,6.73,0,0,1-13.35,1.77,6.4,6.4,0,0,1,1.31-4.94A6.51,6.51,0,0,1,239.29,17Zm-.2,1.44a2.39,2.39,0,0,0-2,1.63,6.38,6.38,0,0,0-.34,3.3,8.67,8.67,0,0,0,1.51,4,3,3,0,0,0,2.9,1.41,2.42,2.42,0,0,0,2-1.64,6.32,6.32,0,0,0,.36-3.29,10.18,10.18,0,0,0-.76-2.79,5.23,5.23,0,0,0-1.53-2A2.75,2.75,0,0,0,239.09,18.4Z"/><path class="cls-1" d="M257.51,14.54a3.21,3.21,0,0,1,2,.32,3.48,3.48,0,0,1,1.38,1.33,7,7,0,0,1,2-1.76,6.67,6.67,0,0,1,2.69-1,3.37,3.37,0,0,1,1.87.23,3.29,3.29,0,0,1,1.35,1.16,7,7,0,0,1,.86,1.75,11.33,11.33,0,0,1,.48,2.11l.41,3.09a12.4,12.4,0,0,0,.56,2.63c.06.13.34.24.85.32a4.36,4.36,0,0,0,1,.09c.06,0,.11.13.16.41a1.67,1.67,0,0,1,0,.58l-1.56.09q-1.35.09-2,.18t-2,.36L266,26.8a1.13,1.13,0,0,1-.16-.55c0-.29,0-.45,0-.45a4,4,0,0,0,1-.36c.45-.21.69-.39.71-.53a9.21,9.21,0,0,0-.07-2.09l-.4-3q-.57-4.27-3.31-3.91a2.71,2.71,0,0,0-1.56.69,1.86,1.86,0,0,0-.64,1c0,.06,0,.14,0,.24a.58.58,0,0,0,0,.23,14.42,14.42,0,0,1,.33,1.82l.41,3.12a11.69,11.69,0,0,0,.54,2.51c.06.13.34.24.85.32a4.37,4.37,0,0,0,1,.09c.06,0,.11.13.16.41a1.67,1.67,0,0,1,0,.58l-1.56.09q-1.35.09-2,.18t-2,.36l-1.56.33a1.11,1.11,0,0,1-.16-.55c0-.29,0-.45,0-.45a4,4,0,0,0,1-.36c.45-.21.69-.39.71-.53a9.73,9.73,0,0,0-.08-2.18L259,21a6.3,6.3,0,0,0-1.12-3.24,2.26,2.26,0,0,0-2.14-.77,2.85,2.85,0,0,0-1.55.72,1.4,1.4,0,0,0-.59,1.22l.67,5.07a10.91,10.91,0,0,0,.59,2.62q.09.2.82.33a4,4,0,0,0,1,.09c.08,0,.14.13.19.41a1.71,1.71,0,0,1,0,.58l-1.56.09q-1.32.09-2,.18t-2.05.36l-1.55.33a.87.87,0,0,1-.19-.54q-.06-.44.06-.46a4.28,4.28,0,0,0,1-.36c.47-.21.72-.39.74-.53a9.68,9.68,0,0,0-.08-2.18l-.64-4.8a2.83,2.83,0,0,0-.72-1.82,1.44,1.44,0,0,0-.72-.35,3.37,3.37,0,0,0-.75-.08c-.2,0-.3,0-.31,0q-.11-.85.06-.91a41,41,0,0,0,4.6-1.51.2.2,0,0,1,.08-.06l.14,0c.1,0,.19,0,.26.18a.55.55,0,0,1,.1.32,10,10,0,0,0,0,1.08c0,.08,0,.13.08.14a.44.44,0,0,0,.14-.11,6.59,6.59,0,0,1,1.65-1.48A5.2,5.2,0,0,1,257.51,14.54Z"/><path class="cls-1" d="M279.47,20.63a10.91,10.91,0,0,0,.59,2.62q.09.2.85.32a4.38,4.38,0,0,0,1,.09c.08,0,.14.13.19.41a1.67,1.67,0,0,1,0,.58l-1.59.09q-1.38.09-2,.18t-2.07.36l-1.53.32a.87.87,0,0,1-.19-.54c0-.29,0-.45.06-.46a4.29,4.29,0,0,0,1-.36q.71-.32.74-.53a9.73,9.73,0,0,0-.08-2.18l-.64-4.8a2.83,2.83,0,0,0-.72-1.82,1.66,1.66,0,0,0-.74-.35,3.14,3.14,0,0,0-.73-.08c-.2,0-.3,0-.31,0q-.11-.85.06-.91a22.91,22.91,0,0,0,2.34-.67A23.36,23.36,0,0,0,278,12l.23-.09c.1,0,.18,0,.26.18a.56.56,0,0,1,.1.32,25.51,25.51,0,0,0,.1,2.57ZM274.76,8.7a1.81,1.81,0,0,1-.7-1.23,1.76,1.76,0,0,1,.36-1.35,1.84,1.84,0,0,1,3.29.87,1.81,1.81,0,0,1-.36,1.37,1.83,1.83,0,0,1-2.59.34Z"/><path class="cls-1" d="M291.83,10q3.8-.5,4.6,5.54l.37,2.8a12.34,12.34,0,0,0,.56,2.63c.06.13.35.24.87.32a4.54,4.54,0,0,0,1,.09c.06,0,.11.13.16.41a1.7,1.7,0,0,1,0,.58q-.18,0-1.56.09t-2.06.18q-.71.09-1.95.35l-1.5.32a.87.87,0,0,1-.19-.54c0-.29,0-.45.06-.46a3.52,3.52,0,0,0,1-.35q.63-.31.67-.52a8.57,8.57,0,0,0-.05-2.18l-.37-2.8a6.46,6.46,0,0,0-1.12-3.33,2.39,2.39,0,0,0-2.24-.69,2.75,2.75,0,0,0-1.58.73,1.43,1.43,0,0,0-.56,1.2l.67,5.07A12.4,12.4,0,0,0,289.2,22c.06.13.34.24.84.32a4.29,4.29,0,0,0,1,.09c.08,0,.14.13.19.41a1.71,1.71,0,0,1,0,.58l-1.56.09q-1.32.09-2,.18t-2,.36l-1.56.33a.87.87,0,0,1-.19-.54c0-.29,0-.45.06-.46a4.16,4.16,0,0,0,1-.36q.69-.32.72-.53a9.73,9.73,0,0,0-.08-2.18l-.64-4.8a2.83,2.83,0,0,0-.72-1.82,1.44,1.44,0,0,0-.72-.35,3.38,3.38,0,0,0-.73-.08c-.19,0-.29,0-.29-.05-.08-.57-.07-.87,0-.9a42,42,0,0,0,4.63-1.51l.07-.05.09,0h.07c.08,0,.16,0,.23.18a.92.92,0,0,1,.13.31,9.45,9.45,0,0,0,0,1.08.24.24,0,0,0,0,.14.44.44,0,0,0,.14-.11,6.59,6.59,0,0,1,1.65-1.48A5.21,5.21,0,0,1,291.83,10Z"/><path class="cls-1" d="M315.8,4.53l1.58,11.91a11.18,11.18,0,0,1-1.26,7.43,7.16,7.16,0,0,1-5.47,3.54,3.13,3.13,0,0,1-1,0,2,2,0,0,1-.69-.21,2.15,2.15,0,0,1-.56-1.28,1.46,1.46,0,0,1,.41-1.22A2,2,0,0,1,310,24a2,2,0,0,1,1.44.59q.82.67,1.24.62,1.09-.14,1.46-2.25a20.42,20.42,0,0,0-.13-5.85L312.41,4.8a10.31,10.31,0,0,0-.53-2.39C311.8,2.18,311.5,2,311,2a5.74,5.74,0,0,0-1.22,0q-.12,0-.18-.43a1.23,1.23,0,0,1,0-.54l1.28-.09,1.51-.13,1.27-.14L317.38,0a1.52,1.52,0,0,1,.15.46c0,.33,0,.51-.05.52a4.67,4.67,0,0,0-1,.37c-.5.23-.76.41-.78.55A11,11,0,0,0,315.8,4.53Z"/><path class="cls-1" d="M326.24,5.42a5.52,5.52,0,0,1,2.55.22,4.71,4.71,0,0,1,1.89,1.16,6.88,6.88,0,0,1,1.17,1.61,5.1,5.1,0,0,1,.55,1.68q.09.65-.11.84a1.68,1.68,0,0,1-.88.28l-7,.94c-.14,0-.2.09-.18.2a5.76,5.76,0,0,0,.66,2,4.08,4.08,0,0,0,1.54,1.57,3.5,3.5,0,0,0,2.32.44,8,8,0,0,0,.85-.16,4.36,4.36,0,0,0,.75-.25l.59-.27a2.53,2.53,0,0,0,.51-.34l.36-.3.54-.48a.47.47,0,0,1,.17.16.57.57,0,0,1,.13.28.91.91,0,0,1-.1.58A4.83,4.83,0,0,1,331,17.42a5.52,5.52,0,0,1-2.81,1.18,6,6,0,0,1-4.67-1.31A6.4,6.4,0,0,1,321,12.92a6.88,6.88,0,0,1,1.08-5.06A5.76,5.76,0,0,1,326.24,5.42Zm0,1.38a2.1,2.1,0,0,0-1.21.58,2.79,2.79,0,0,0-.72,1.12A5.62,5.62,0,0,0,324,9.66a3.63,3.63,0,0,0,0,.89c0,.14.09.2.2.18L329,10.1q.27,0,.21-.48a3.85,3.85,0,0,0-1-2A2.13,2.13,0,0,0,326.21,6.81Z"/><path class="cls-1" d="M340,3.59a6.55,6.55,0,0,1,5,1.3,6.38,6.38,0,0,1,2.58,4.41,6.48,6.48,0,0,1-1.31,4.94,6.74,6.74,0,0,1-12-3.17,6.4,6.4,0,0,1,1.31-4.94A6.51,6.51,0,0,1,340,3.59ZM339.81,5a2.39,2.39,0,0,0-2,1.63,6.39,6.39,0,0,0-.34,3.3A8.67,8.67,0,0,0,339,14a3,3,0,0,0,2.9,1.41,2.42,2.42,0,0,0,2-1.64,6.32,6.32,0,0,0,.36-3.29,10.19,10.19,0,0,0-.76-2.79,5.23,5.23,0,0,0-1.53-2A2.75,2.75,0,0,0,339.81,5Z"/><path class="cls-1" d="M358.23,1.18q3.8-.5,4.6,5.54l.37,2.8a12.34,12.34,0,0,0,.56,2.62c.06.13.35.24.87.32a4.55,4.55,0,0,0,1,.09c.06,0,.11.13.16.41a1.7,1.7,0,0,1,0,.58c-.12,0-.64,0-1.56.09s-1.61.12-2.06.18-1.12.18-1.95.35l-1.5.32a.87.87,0,0,1-.19-.54c0-.29,0-.45.06-.46a3.55,3.55,0,0,0,1-.35q.63-.31.67-.52a8.52,8.52,0,0,0-.05-2.18l-.37-2.8a6.46,6.46,0,0,0-1.12-3.33,2.39,2.39,0,0,0-2.24-.69,2.74,2.74,0,0,0-1.58.73,1.43,1.43,0,0,0-.56,1.2L355,10.6a12.4,12.4,0,0,0,.56,2.63c.06.13.34.24.84.32a4.29,4.29,0,0,0,1,.09c.08,0,.14.13.19.41a1.71,1.71,0,0,1,0,.58l-1.56.09q-1.32.09-2,.18t-2,.36l-1.56.33a.87.87,0,0,1-.19-.54c0-.29,0-.45.06-.46a4.12,4.12,0,0,0,1-.36q.69-.32.72-.53A9.68,9.68,0,0,0,352,11.5l-.64-4.8a2.83,2.83,0,0,0-.72-1.82,1.44,1.44,0,0,0-.72-.35,3.41,3.41,0,0,0-.73-.08c-.19,0-.29,0-.29-.05-.08-.57-.07-.87,0-.9A42.1,42.1,0,0,0,353.6,2l.07-.05.09,0h.07c.08,0,.16,0,.23.18a.94.94,0,0,1,.13.31,9.45,9.45,0,0,0,0,1.08.23.23,0,0,0,0,.14.45.45,0,0,0,.14-.11A6.6,6.6,0,0,1,356,2,5.19,5.19,0,0,1,358.23,1.18Z"/><path class="cls-1" d="M104.46,66.54a12.63,12.63,0,0,1,3.48.19,16.84,16.84,0,0,1,.63,3.29q0,.24-.36.27-.65.06-.73-.17a3.6,3.6,0,0,0-1-1.68,2.32,2.32,0,0,0-1.86-.56,2.13,2.13,0,0,0-1.31.51,1.32,1.32,0,0,0-.39,1.14,1.74,1.74,0,0,0,.23.74,1.85,1.85,0,0,0,.59.59,7.36,7.36,0,0,0,.69.41q.3.15.89.4l.31.12.47.2.51.22.5.24a5.32,5.32,0,0,1,.55.29l.49.31a2.35,2.35,0,0,1,.48.37l.4.43a1.91,1.91,0,0,1,.36.5,5.44,5.44,0,0,1,.21.55,2.78,2.78,0,0,1,.13.63,3.51,3.51,0,0,1-1.16,3.08,5.64,5.64,0,0,1-3.38,1.4,9.94,9.94,0,0,1-3.9-.48,12,12,0,0,1-.45-1.62,14.43,14.43,0,0,1-.3-1.69.63.63,0,0,1,.4-.19c.45,0,.7,0,.73.17A3.28,3.28,0,0,0,103,78.09a3.17,3.17,0,0,0,2.1.57,2.16,2.16,0,0,0,1.32-.54,1.45,1.45,0,0,0,.42-1.26,2,2,0,0,0-.12-.54,1.46,1.46,0,0,0-.33-.48l-.38-.38a2.17,2.17,0,0,0-.57-.35l-.62-.29L104,74.5l-.79-.33A6.91,6.91,0,0,1,101,72.78a3.43,3.43,0,0,1,.23-5A5.73,5.73,0,0,1,104.46,66.54Z"/><path class="cls-1" d="M118.86,65.27a6,6,0,0,1,3.47.67,6.23,6.23,0,0,1,3.39,5,7,7,0,0,1-6.31,7.69,6.91,6.91,0,0,1-2.14-.22c-.08,0-.11.15-.08.43l.19,2a10.74,10.74,0,0,0,.48,2.64q.05.23.83.39a4.54,4.54,0,0,0,1,.13c.06,0,.11.13.14.42a2.61,2.61,0,0,1,0,.55l-1.59.06q-1.39,0-2,.1t-2.08.28l-1.58.23a1.08,1.08,0,0,1-.14-.54c0-.29,0-.43,0-.44a4.15,4.15,0,0,0,1.06-.32q.7-.29.77-.53a10.76,10.76,0,0,0,0-2.15l-1-11.31a2.89,2.89,0,0,0-.65-1.88,1.34,1.34,0,0,0-.69-.37,3.58,3.58,0,0,0-.73-.1c-.2,0-.3,0-.3-.06q-.08-.86.09-.9a22.84,22.84,0,0,0,4.33-1.24l.55-.2q.12,0,.18.61a1.68,1.68,0,0,1,0,.36,6,6,0,0,1,1.25-.82A4.27,4.27,0,0,1,118.86,65.27Zm-.57,1.63a2.25,2.25,0,0,0-1.53.71,2,2,0,0,0-.47,1.57l.56,6.1a1.83,1.83,0,0,0,.94,1.48,2.89,2.89,0,0,0,1.77.42,2.79,2.79,0,0,0,2.18-1.46,5.74,5.74,0,0,0,.61-3.58A7.68,7.68,0,0,0,121,68.25,2.93,2.93,0,0,0,118.3,66.9Z"/><path class="cls-1" d="M133.13,63.92a5.51,5.51,0,0,1,2.54.32,4.71,4.71,0,0,1,1.85,1.23,6.88,6.88,0,0,1,1.11,1.66,5.12,5.12,0,0,1,.49,1.7q.06.65-.15.83a1.69,1.69,0,0,1-.89.25l-7.08.65c-.14,0-.2.08-.19.2a5.77,5.77,0,0,0,.58,2,4.09,4.09,0,0,0,1.48,1.63,3.5,3.5,0,0,0,2.3.53,8.12,8.12,0,0,0,.85-.12,4.43,4.43,0,0,0,.76-.22l.6-.25a2.55,2.55,0,0,0,.52-.32l.38-.29.56-.45a.48.48,0,0,1,.16.16.57.57,0,0,1,.12.29.91.91,0,0,1-.12.58,4.85,4.85,0,0,1-1.6,1.76,5.51,5.51,0,0,1-2.86,1.07,6,6,0,0,1-4.62-1.5,6.41,6.41,0,0,1-2.29-4.46,6.88,6.88,0,0,1,1.28-5A5.76,5.76,0,0,1,133.13,63.92Zm-.08,1.38a2.1,2.1,0,0,0-1.23.53,2.8,2.8,0,0,0-.77,1.09,5.73,5.73,0,0,0-.33,1.15,3.67,3.67,0,0,0-.05.89c0,.14.08.2.2.19l4.79-.44q.27,0,.23-.47a3.85,3.85,0,0,0-.89-2A2.13,2.13,0,0,0,133.05,65.3Z"/><path class="cls-1" d="M146.49,62.69a3.65,3.65,0,0,1,2.84.71,4.76,4.76,0,0,1,1.22,3.22l.54,5.83a1.35,1.35,0,0,0,.35.88.89.89,0,0,0,.74.25,1.86,1.86,0,0,0,1-.48c.12,0,.19.13.21.31a1.77,1.77,0,0,1-.1.9,7.39,7.39,0,0,1-1.12.85,3.1,3.1,0,0,1-1.38.52,2.17,2.17,0,0,1-1.38-.38,2.44,2.44,0,0,1-1-1l-.2.21c-.12.12-.28.27-.5.45a8.5,8.5,0,0,1-.73.54,4.69,4.69,0,0,1-1,.49,4.31,4.31,0,0,1-1.15.27,3.55,3.55,0,0,1-2.49-.59,2.82,2.82,0,0,1-1.14-2.15,2.74,2.74,0,0,1,.22-1.36,3.55,3.55,0,0,1,.72-1.1,6.09,6.09,0,0,1,1.2-.9,12.26,12.26,0,0,1,1.32-.7l1.44-.6,1.22-.5a.47.47,0,0,0,.22-.5l-.15-1.63a2.55,2.55,0,0,0-.62-1.58,1.55,1.55,0,0,0-1.33-.47,1.8,1.8,0,0,0-1.34.68,2.23,2.23,0,0,0-.36,1.6,1,1,0,0,1-.36.91,1.85,1.85,0,0,1-1,.37,1.68,1.68,0,0,1-1.6-.57q-.13-1.42,1.69-2.84A7.46,7.46,0,0,1,146.49,62.69Zm-.28,11.49a2.3,2.3,0,0,0,1.34-.54,1.18,1.18,0,0,0,.49-1l-.28-3q-.2.11-.85.38t-1,.45a8,8,0,0,0-.79.49,1.79,1.79,0,0,0-.64.72,1.63,1.63,0,0,0-.15.85,1.83,1.83,0,0,0,.6,1.35A1.71,1.71,0,0,0,146.21,74.18Z"/><path class="cls-1" d="M166.52,62.84q-.56.41-1.76,1.51a21,21,0,0,0-2.16,2.29q.94.84,2.38,2.2t2.38,2.23a14.56,14.56,0,0,0,1.3,1.1,3.75,3.75,0,0,0,1.19.49,3.62,3.62,0,0,0,1,.15c.08,0,.13.16.17.49a1.74,1.74,0,0,1,0,.42l-3.48.17q-.56.05-1.14.13l-1.27.19-1.1.18a.8.8,0,0,1-.17-.52c0-.28,0-.42.08-.43a2.14,2.14,0,0,0,.67-.2q.37-.17.36-.32s0-.06,0-.06l-4.77-4.43-.35.12L160,70.4A12.08,12.08,0,0,0,160.5,73q.08.2.84.36a4.32,4.32,0,0,0,1.06.13q.09,0,.14.42a1.72,1.72,0,0,1,0,.58l-1.58,0q-1.37,0-2.05.1t-2,.28l-1.57.26a.88.88,0,0,1-.17-.55c0-.3,0-.45.08-.46a4.15,4.15,0,0,0,1.06-.32q.7-.29.75-.5a9.74,9.74,0,0,0,0-2.18L155.88,58.9a11.8,11.8,0,0,0-.33-2q-.19-.46-1.58-.33l-.27,0c-.12,0-.19-.14-.22-.46s0-.48.13-.49q.91-.17,1.73-.4t1.35-.42c.36-.13.66-.26.92-.38l.82-.37h.06a.32.32,0,0,1,.25.14.82.82,0,0,1,.18.3,9.63,9.63,0,0,0-.1,2.82l.91,9.89a2.7,2.7,0,0,0,.86-.41q.57-.62,1.24-1.29l1-1q.3-.3.6-.64a2.62,2.62,0,0,0,.38-.53.7.7,0,0,0,.07-.36q0-.33-.7-.34a2.92,2.92,0,0,1-.67,0,1.33,1.33,0,0,1-.14-.51c0-.21,0-.32.09-.35l2.87-.26q.8-.07,3.13-.41a.47.47,0,0,1,.18.31,1.34,1.34,0,0,1,0,.45c0,.14-.06.21-.11.22A3.9,3.9,0,0,0,166.52,62.84Z"/><path class="cls-1" d="M184.61,59.17a3.65,3.65,0,0,1,2.84.71,4.75,4.75,0,0,1,1.22,3.22l.54,5.83a1.36,1.36,0,0,0,.35.88.89.89,0,0,0,.74.25,1.86,1.86,0,0,0,1-.48c.12,0,.19.13.21.31a1.78,1.78,0,0,1-.1.9,7.37,7.37,0,0,1-1.12.85,3.1,3.1,0,0,1-1.38.52,2.17,2.17,0,0,1-1.38-.38,2.44,2.44,0,0,1-1-1l-.2.21q-.18.18-.5.45a8.66,8.66,0,0,1-.73.54,4.72,4.72,0,0,1-1,.49,4.31,4.31,0,0,1-1.15.27,3.55,3.55,0,0,1-2.49-.59A2.83,2.83,0,0,1,179.37,70a2.74,2.74,0,0,1,.22-1.36,3.56,3.56,0,0,1,.72-1.1,6.11,6.11,0,0,1,1.2-.9,12.26,12.26,0,0,1,1.32-.7l1.44-.6,1.22-.5a.47.47,0,0,0,.22-.5l-.15-1.63a2.56,2.56,0,0,0-.62-1.58,1.55,1.55,0,0,0-1.33-.47,1.8,1.8,0,0,0-1.34.68,2.23,2.23,0,0,0-.36,1.6,1,1,0,0,1-.36.91,1.85,1.85,0,0,1-1,.37,1.68,1.68,0,0,1-1.6-.57q-.13-1.42,1.69-2.84A7.46,7.46,0,0,1,184.61,59.17Zm-.28,11.49a2.3,2.3,0,0,0,1.34-.54,1.18,1.18,0,0,0,.49-1l-.28-3q-.2.11-.85.38t-1,.45a8,8,0,0,0-.79.49,1.79,1.79,0,0,0-.64.71,1.63,1.63,0,0,0-.15.85,1.83,1.83,0,0,0,.6,1.35A1.71,1.71,0,0,0,184.33,70.66Z"/><path class="cls-1" d="M199.63,57.78a6,6,0,0,1,3.39.63,6.24,6.24,0,0,1,2.44,2.16,6.34,6.34,0,0,1,1,2.91,6.79,6.79,0,0,1-1.6,5.15,6.55,6.55,0,0,1-4.56,2.5,9.31,9.31,0,0,1-2.18,0,6.52,6.52,0,0,0-1.41-.09,2.27,2.27,0,0,0-.75.28,2.94,2.94,0,0,1-.57.26,1.43,1.43,0,0,1-.45-.14c-.24-.1-.36-.19-.37-.26s0-.24,0-.54,0-.73,0-1.29a17.09,17.09,0,0,0-.08-1.81l-1.11-12.08a10.39,10.39,0,0,0-.36-2q-.19-.46-1.58-.33l-.27,0q-.18,0-.22-.46c0-.32,0-.48.13-.49q.91-.17,1.72-.4t1.35-.42q.53-.2.92-.38l.82-.37H196a.32.32,0,0,1,.25.14.82.82,0,0,1,.18.3,10.45,10.45,0,0,0-.07,2.81l.44,4.74v.16a.88.88,0,0,0,0,.13q0,.09.07.08l.1,0a5.46,5.46,0,0,1,1.14-.7A4.26,4.26,0,0,1,199.63,57.78Zm-.5,1.66a2.31,2.31,0,0,0-1.55.71,1.75,1.75,0,0,0-.5,1.39l.58,6.28a1.78,1.78,0,0,0,.93,1.5,3.23,3.23,0,0,0,1.9.36,2.53,2.53,0,0,0,2.2-1.61,6.81,6.81,0,0,0,.47-3.45,7.66,7.66,0,0,0-1.29-3.94A2.92,2.92,0,0,0,199.13,59.44Z"/><path class="cls-1" d="M214.62,56.4a6.56,6.56,0,0,1,4.93,1.5,6.38,6.38,0,0,1,2.4,4.51,6.73,6.73,0,0,1-13.41,1.24,6.4,6.4,0,0,1,1.5-4.89A6.51,6.51,0,0,1,214.62,56.4Zm-.26,1.43a2.39,2.39,0,0,0-2,1.55,6.4,6.4,0,0,0-.47,3.28,8.67,8.67,0,0,0,1.35,4.09A3,3,0,0,0,216,68.27a2.42,2.42,0,0,0,2.05-1.56,6.32,6.32,0,0,0,.49-3.27,10.19,10.19,0,0,0-.65-2.82,5.25,5.25,0,0,0-1.45-2.09A2.76,2.76,0,0,0,214.36,57.83Z"/><path class="cls-1" d="M236.47,57.61l.54,5.86a6.54,6.54,0,0,0,.43,2.05.62.62,0,0,0,.36.21,2.28,2.28,0,0,0,.53.07l.49,0a.55.55,0,0,1,.25,0c.08,0,.13.1.14.26a2.28,2.28,0,0,1,0,.41c0,.19-.07.29-.15.3a6.82,6.82,0,0,0-1,.2l-1.21.32-1.1.33-1.16.35c-.14,0-.22-.14-.25-.45l-.12-1.3c0-.1-.06-.14-.1-.14a6.66,6.66,0,0,1-1.68,1.5,5,5,0,0,1-2.28.81,3.11,3.11,0,0,1-1.81-.34,3.58,3.58,0,0,1-1.3-1.19,6.39,6.39,0,0,1-.78-1.66,9.06,9.06,0,0,1-.36-1.85L225.52,60a2.83,2.83,0,0,0-.65-1.85,1.65,1.65,0,0,0-.72-.38,3.15,3.15,0,0,0-.73-.11c-.2,0-.3,0-.3-.06-.05-.57,0-.87.07-.9a22.39,22.39,0,0,0,2.39-.58,23.24,23.24,0,0,0,2.29-.75l.12,0,.12,0c.1,0,.18.05.24.19a1,1,0,0,1,.1.32q-.08,2,0,2.63l.33,3.55a6.37,6.37,0,0,0,1,3.26,2.62,2.62,0,0,0,3.74.09,1.58,1.58,0,0,0,.55-1.17l-.45-4.88a2.83,2.83,0,0,0-.65-1.85,1.43,1.43,0,0,0-.71-.38,3.39,3.39,0,0,0-.74-.11c-.2,0-.3,0-.3-.06q-.08-.86.1-.9a22.69,22.69,0,0,0,2.37-.58,23.11,23.11,0,0,0,2.29-.75l.23-.08c.1,0,.18.05.26.19a.54.54,0,0,1,.09.32Q236.42,57.08,236.47,57.61Z"/><path class="cls-1" d="M241.88,56l-1.81.17c-.14,0-.23-.24-.28-.75a.75.75,0,0,1,0-.27,8.32,8.32,0,0,0,2.13-1.78q.35-.42.76-1t1-1.36a2.11,2.11,0,0,1,.57,0c.18,0,.28.08.28.14l.27,2.9,2.15-.18,1.47-.12c.16,0,.25.07.26.24a2.88,2.88,0,0,1-.18,1.33l-3.55.33.66,7.13a2.82,2.82,0,0,0,.67,1.76,1.7,1.7,0,0,0,1.45.49,2.82,2.82,0,0,0,.62-.13,3.19,3.19,0,0,0,.52-.21l.37-.21.2-.11c.08,0,.17.05.29.24s.17.31.15.37q-.14.43-1.17,1.08a4.68,4.68,0,0,1-2.07.74,3.75,3.75,0,0,1-2.71-.75,4,4,0,0,1-1.36-3Z"/><path class="cls-1" d="M259,54.39l-1.81.17q-.21,0-.28-.75a.73.73,0,0,1,0-.27,8.32,8.32,0,0,0,2.13-1.78q.35-.42.76-1t1-1.36a2.1,2.1,0,0,1,.57,0c.18,0,.28.08.28.14l.27,2.9,2.15-.18,1.47-.12c.16,0,.25.07.26.24a2.89,2.89,0,0,1-.17,1.33l-3.55.33.66,7.13a2.81,2.81,0,0,0,.67,1.76,1.69,1.69,0,0,0,1.45.49,2.82,2.82,0,0,0,.62-.13,3.24,3.24,0,0,0,.52-.21l.37-.21.2-.11c.08,0,.17.05.29.24s.17.31.15.37q-.14.43-1.17,1.08a4.68,4.68,0,0,1-2.07.74,3.75,3.75,0,0,1-2.71-.75,4,4,0,0,1-1.36-3Z"/><path class="cls-1" d="M277.47,50.6q3.79-.35,4.33,5.48l.28,3a10.93,10.93,0,0,0,.48,2.64q0,.2.82.36a4.57,4.57,0,0,0,1,.13c.06,0,.11.13.14.42a3.27,3.27,0,0,1,0,.58l-1.6,0c-.92,0-1.6.06-2,.1s-1.16.14-2,.27l-1.54.26a1.1,1.1,0,0,1-.14-.55c0-.3,0-.45,0-.45a3.55,3.55,0,0,0,1-.32q.65-.28.72-.5a11.31,11.31,0,0,0,0-2.18l-.27-2.9a6.19,6.19,0,0,0-1-3.33,2.43,2.43,0,0,0-2.2-.74,2.85,2.85,0,0,0-1.58.65,1.4,1.4,0,0,0-.64,1.19l.47,5.09a10.88,10.88,0,0,0,.48,2.64q.08.2.82.36a4.22,4.22,0,0,0,1,.13c.06,0,.11.13.14.42a1.72,1.72,0,0,1,0,.58l-1.57,0q-1.32,0-2,.1t-2,.28l-1.57.26a.86.86,0,0,1-.17-.55c0-.3,0-.45.08-.46a4.17,4.17,0,0,0,1.06-.32q.7-.29.75-.5a9.6,9.6,0,0,0,0-2.15l-1.14-12.31a11.6,11.6,0,0,0-.33-2q-.19-.46-1.58-.33l-.27,0q-.18,0-.22-.46c0-.32,0-.48.13-.49q.91-.17,1.73-.4t1.35-.42c.35-.13.66-.26.92-.38l.82-.37h.06a.32.32,0,0,1,.25.14.84.84,0,0,1,.18.3,9.59,9.59,0,0,0-.1,2.82l.55,6c0,.12.05.17.13.17s.06,0,.11-.1a5.66,5.66,0,0,1,1.7-1.46A5.48,5.48,0,0,1,277.47,50.6Z"/><path class="cls-1" d="M291.27,49.33a5.51,5.51,0,0,1,2.54.32,4.71,4.71,0,0,1,1.84,1.23,6.92,6.92,0,0,1,1.11,1.66,5.15,5.15,0,0,1,.49,1.7c0,.43,0,.71-.15.83a1.69,1.69,0,0,1-.89.25l-7.08.65q-.21,0-.19.2a5.77,5.77,0,0,0,.58,2A4.08,4.08,0,0,0,291,59.83a3.5,3.5,0,0,0,2.3.53,8.11,8.11,0,0,0,.85-.12,4.44,4.44,0,0,0,.76-.22l.6-.25a2.54,2.54,0,0,0,.52-.32l.38-.29.56-.45a.48.48,0,0,1,.16.16.56.56,0,0,1,.12.29.9.9,0,0,1-.13.58,4.83,4.83,0,0,1-1.6,1.76,5.52,5.52,0,0,1-2.86,1.07,6,6,0,0,1-4.62-1.5,6.4,6.4,0,0,1-2.29-4.46,6.88,6.88,0,0,1,1.28-5A5.76,5.76,0,0,1,291.27,49.33Zm-.08,1.38a2.1,2.1,0,0,0-1.23.53,2.79,2.79,0,0,0-.77,1.09,5.73,5.73,0,0,0-.33,1.15,3.67,3.67,0,0,0-.05.89c0,.14.08.2.2.19l4.8-.44q.27,0,.23-.47a3.86,3.86,0,0,0-.89-2A2.13,2.13,0,0,0,291.19,50.71Z"/><path class="cls-1" d="M304.5,57.06A11,11,0,0,0,305,59.7q.08.2.84.36a4.38,4.38,0,0,0,1,.13c.08,0,.14.13.17.42a1.72,1.72,0,0,1,0,.58l-1.6,0q-1.38,0-2,.1t-2.08.28l-1.54.26a.87.87,0,0,1-.17-.55q0-.44.08-.46a4.3,4.3,0,0,0,1-.32q.72-.29.76-.5a9.74,9.74,0,0,0,0-2.18L301.05,53a2.84,2.84,0,0,0-.65-1.85,1.67,1.67,0,0,0-.72-.38,3.14,3.14,0,0,0-.73-.11c-.2,0-.3,0-.3-.06-.05-.57,0-.87.09-.9a22.76,22.76,0,0,0,2.37-.58,23.26,23.26,0,0,0,2.29-.75l.23-.08c.1,0,.18.05.25.19a.54.54,0,0,1,.09.32q-.06,1.92,0,2.57ZM300.28,45a1.81,1.81,0,0,1-.65-1.25,1.76,1.76,0,0,1,.41-1.34,1.84,1.84,0,0,1,3.26,1,1.81,1.81,0,0,1-.41,1.35,1.83,1.83,0,0,1-2.6.24Z"/><path class="cls-1" d="M316.27,47a3,3,0,0,1,2.52.75q.23,2.52-1.19,2.65a1.77,1.77,0,0,1-1.21-.49,1.86,1.86,0,0,0-1.33-.47,1.59,1.59,0,0,0-1.35,1.06,4,4,0,0,0-.34,2l.34,3.7a12.5,12.5,0,0,0,.45,2.65c.05.13.33.25.82.36a4.21,4.21,0,0,0,1,.13c.06,0,.11.13.14.42a3.17,3.17,0,0,1,0,.58l-1.58,0q-1.34,0-2,.1t-2,.28L309,61a.87.87,0,0,1-.17-.55q0-.44.08-.46a4.15,4.15,0,0,0,1.06-.32q.7-.29.75-.5a9.74,9.74,0,0,0,0-2.18l-.45-4.83a2.83,2.83,0,0,0-.65-1.85,1.43,1.43,0,0,0-.71-.38,3.41,3.41,0,0,0-.73-.11q-.28,0-.29-.06c-.05-.57,0-.87.07-.9a42.05,42.05,0,0,0,4.69-1.33l.23-.08q.12,0,.23.19a.72.72,0,0,1,.11.33c0,.09,0,.23,0,.42s0,.39,0,.6a3.42,3.42,0,0,0,0,.4,5.41,5.41,0,0,1,1.32-1.57A3.25,3.25,0,0,1,316.27,47Z"/><path class="cls-1" d="M334.87,37.75a5.85,5.85,0,0,1,2.09.12,2.08,2.08,0,0,1,1.15.65,3.34,3.34,0,0,1,0,1.66,1.07,1.07,0,0,1-1,.82,1.16,1.16,0,0,1-.95-.4q-.44-.45-.93-.9a1.37,1.37,0,0,0-1.08-.39,1.59,1.59,0,0,0-1.26.89,5,5,0,0,0-.58,1.93,12,12,0,0,0,0,2.42l.13,1.36s0,0,.07.08a.17.17,0,0,0,.13,0l3.26-.3a.24.24,0,0,1,.15,0,.32.32,0,0,1,0,.18,3.06,3.06,0,0,1-.23,1.39l-3.08.28a.16.16,0,0,0-.16.19l.61,6.6a11.3,11.3,0,0,0,.48,2.64q.08.2.82.36a4.2,4.2,0,0,0,1,.13c.06,0,.11.13.14.42a1.72,1.72,0,0,1,0,.58q-.18,0-1.55,0t-2.08.1q-.71.07-2,.27l-1.53.26a.56.56,0,0,1-.15-.31,1.81,1.81,0,0,1,0-.46c0-.15,0-.23.1-.23a4,4,0,0,0,1-.32q.69-.29.73-.5a9.82,9.82,0,0,0,0-2.45l-.63-6.81c0-.14-.08-.2-.2-.19l-1.78.16s-.06-.05-.07-.17a1.59,1.59,0,0,1,.33-.9,1.2,1.2,0,0,1,.9-.62l.47,0a.16.16,0,0,0,.16-.19l0-.3a8.08,8.08,0,0,1,1.36-5.5A5.56,5.56,0,0,1,334.87,37.75Z"/><path class="cls-1" d="M344,44.46a3.65,3.65,0,0,1,2.84.71A4.76,4.76,0,0,1,348,48.39l.54,5.83a1.35,1.35,0,0,0,.35.88.89.89,0,0,0,.74.25,1.85,1.85,0,0,0,1-.48q.18,0,.21.31a1.78,1.78,0,0,1-.1.9,7.37,7.37,0,0,1-1.12.85,3.11,3.11,0,0,1-1.39.52,2.17,2.17,0,0,1-1.38-.38,2.44,2.44,0,0,1-1-1l-.21.21c-.12.12-.28.27-.5.45a8.6,8.6,0,0,1-.73.54,4.72,4.72,0,0,1-1,.49,4.32,4.32,0,0,1-1.15.27,3.55,3.55,0,0,1-2.49-.59,2.83,2.83,0,0,1-1.14-2.15,2.74,2.74,0,0,1,.22-1.36,3.56,3.56,0,0,1,.72-1.1,6.1,6.1,0,0,1,1.2-.9,12.22,12.22,0,0,1,1.32-.7l1.44-.6,1.22-.5a.47.47,0,0,0,.22-.5L344.92,48a2.55,2.55,0,0,0-.62-1.58,1.55,1.55,0,0,0-1.33-.47,1.8,1.8,0,0,0-1.34.68,2.23,2.23,0,0,0-.36,1.6,1,1,0,0,1-.36.91,1.85,1.85,0,0,1-1,.37,1.68,1.68,0,0,1-1.61-.57q-.13-1.42,1.69-2.84A7.46,7.46,0,0,1,344,44.46ZM343.69,56a2.3,2.3,0,0,0,1.34-.54,1.17,1.17,0,0,0,.49-1l-.28-3q-.2.11-.85.38t-1,.45a8.11,8.11,0,0,0-.79.49,1.81,1.81,0,0,0-.64.72,1.65,1.65,0,0,0-.14.85,1.83,1.83,0,0,0,.6,1.35A1.71,1.71,0,0,0,343.69,56Z"/><path class="cls-1" d="M361.12,42.88a3.2,3.2,0,0,1,2,.4,3.47,3.47,0,0,1,1.32,1.39,7,7,0,0,1,2-1.68,6.67,6.67,0,0,1,2.73-.85,3.37,3.37,0,0,1,1.86.31,3.27,3.27,0,0,1,1.31,1.21,7,7,0,0,1,.79,1.78,11.25,11.25,0,0,1,.39,2.13l.29,3.11a12.5,12.5,0,0,0,.45,2.65q.08.2.84.36a4.36,4.36,0,0,0,1,.13c.06,0,.11.13.14.42a1.71,1.71,0,0,1,0,.58l-1.57,0q-1.35,0-2,.1t-2,.28l-1.57.27a1.11,1.11,0,0,1-.14-.55q0-.44,0-.45a4,4,0,0,0,1-.32q.69-.29.73-.5a9.18,9.18,0,0,0,0-2.09l-.28-3q-.4-4.29-3.15-4a2.71,2.71,0,0,0-1.58.62,1.86,1.86,0,0,0-.68,1c0,.06,0,.14,0,.24a.58.58,0,0,0,0,.24,14.74,14.74,0,0,1,.26,1.83l.29,3.14a11.77,11.77,0,0,0,.44,2.53q.08.2.84.36a4.39,4.39,0,0,0,1,.13c.06,0,.11.13.14.42a1.69,1.69,0,0,1,0,.58l-1.57,0q-1.35,0-2,.1t-2,.28l-1.57.26a1.1,1.1,0,0,1-.14-.55c0-.3,0-.45,0-.45a4,4,0,0,0,1-.32q.69-.29.73-.5a9.74,9.74,0,0,0,0-2.18l-.26-2.84a6.3,6.3,0,0,0-1-3.28,2.26,2.26,0,0,0-2.11-.85,2.84,2.84,0,0,0-1.58.65,1.4,1.4,0,0,0-.64,1.19l.47,5.09a10.94,10.94,0,0,0,.48,2.64c.05.13.32.25.81.36a4,4,0,0,0,1,.13c.08,0,.14.13.17.42a1.72,1.72,0,0,1,0,.58l-1.57,0q-1.33,0-2,.1t-2.06.28L352.8,57a.87.87,0,0,1-.17-.55q0-.44.08-.46a4.3,4.3,0,0,0,1-.32q.72-.29.76-.5a9.74,9.74,0,0,0,0-2.18l-.45-4.83a2.83,2.83,0,0,0-.65-1.85,1.43,1.43,0,0,0-.71-.38,3.35,3.35,0,0,0-.74-.11q-.3,0-.3-.06-.08-.86.1-.9a41,41,0,0,0,4.65-1.33.2.2,0,0,1,.09-.05l.15,0c.1,0,.18.05.25.19a.54.54,0,0,1,.09.32A10.1,10.1,0,0,0,357,45q0,.12.07.14a.44.44,0,0,0,.14-.1,6.6,6.6,0,0,1,1.71-1.41A5.21,5.21,0,0,1,361.12,42.88Z"/><path class="cls-1" d="M382.82,49.83a11,11,0,0,0,.48,2.64c.05.13.33.25.84.36a4.39,4.39,0,0,0,1,.13q.12,0,.17.42a1.76,1.76,0,0,1,0,.58l-1.6,0q-1.38,0-2,.1t-2.08.28l-1.54.26a.87.87,0,0,1-.17-.55q0-.44.08-.46a4.29,4.29,0,0,0,1-.32q.72-.29.76-.5a9.74,9.74,0,0,0,0-2.18l-.45-4.83a2.83,2.83,0,0,0-.65-1.85,1.64,1.64,0,0,0-.72-.38,3.14,3.14,0,0,0-.73-.11c-.2,0-.3,0-.3-.06q-.08-.86.1-.9a22.75,22.75,0,0,0,2.37-.58,23.18,23.18,0,0,0,2.29-.75l.23-.08c.1,0,.18.05.25.19a.54.54,0,0,1,.09.32,25.58,25.58,0,0,0,0,2.57Zm-4.22-12.1a1.81,1.81,0,0,1-.65-1.25,1.76,1.76,0,0,1,.41-1.34,1.84,1.84,0,0,1,3.26,1,1.81,1.81,0,0,1-.41,1.35,1.83,1.83,0,0,1-2.61.24Z"/><path class="cls-1" d="M391.87,48.94a12.26,12.26,0,0,0,.45,2.65c.05.14.31.27.77.39a3.24,3.24,0,0,0,.92.17c.06,0,.11.13.14.41a1.62,1.62,0,0,1,0,.57l-1.12,0-1.27,0-1.07.07-1.12.13-1.24.19-1.12.18a.84.84,0,0,1-.17-.54c0-.29,0-.43.08-.44a3.19,3.19,0,0,0,1-.34q.64-.31.68-.53a9.8,9.8,0,0,0,0-2.21L387.7,37.38a10.39,10.39,0,0,0-.36-2q-.19-.46-1.52-.34l-.3,0c-.12,0-.19-.1-.21-.34s0-.48.13-.49q.91-.17,1.73-.4t1.35-.42q.53-.2.92-.37l.62-.28.2-.11h.06c.08,0,.17,0,.27.15a.9.9,0,0,1,.19.28,9.43,9.43,0,0,0-.1,2.82Z"/><path class="cls-1" d="M398.14,39.76q.65-.06,1.86-.26t1.5-.23a2,2,0,0,1,.11.53c0,.28,0,.42-.08.43a3.26,3.26,0,0,0-.91.31c-.41.19-.62.37-.62.55l0,.18q.1.47,3.38,6.5.19-.55.89-3t.81-2.84a2.81,2.81,0,0,0,.09-.93.94.94,0,0,0-.54-.68,2.45,2.45,0,0,0-1.45-.21c-.08,0-.13-.14-.16-.43a.74.74,0,0,1,.07-.51q.35,0,1.46,0t1.81-.08q.62-.06,1.52-.23c.6-.11,1-.18,1.31-.21a.86.86,0,0,1,.16.46q0,.47-.07.48a3.76,3.76,0,0,0-1.17.41,1.65,1.65,0,0,0-.94,1L403,54.48q-1.44,4.49-4,4.73a1.61,1.61,0,0,1-1.22-.3,1.39,1.39,0,0,1,0-2.12q3.08-.28,3.83-2.8.55-1.84.61-2.09l-5.25-9.67a3.87,3.87,0,0,0-.42-.65,1.78,1.78,0,0,0-.94-.59,2.81,2.81,0,0,0-1-.13c-.08,0-.13-.13-.16-.4s0-.5,0-.54l1.59-.06Q397.43,39.83,398.14,39.76Z"/><path class="cls-1" d="M412.37,30.51l.5,0a.73.73,0,0,1,.7.31,3.51,3.51,0,0,1,.37,1.53,12.37,12.37,0,0,1-.21,2.75,20.44,20.44,0,0,0-.29,2.79.47.47,0,0,1-.49.49.41.41,0,0,1-.48-.34,26.35,26.35,0,0,0-.87-3.14,13.38,13.38,0,0,1-.65-2.33,2.1,2.1,0,0,1,.42-1.22A1.44,1.44,0,0,1,412.37,30.51Z"/><path class="cls-1" d="M421.84,37.25a12.63,12.63,0,0,1,3.48.19,16.83,16.83,0,0,1,.63,3.29q0,.24-.36.27-.65.06-.73-.17a3.6,3.6,0,0,0-1-1.68,2.32,2.32,0,0,0-1.86-.56,2.14,2.14,0,0,0-1.31.51,1.32,1.32,0,0,0-.39,1.14,1.72,1.72,0,0,0,.23.74,1.86,1.86,0,0,0,.59.59,7.36,7.36,0,0,0,.7.41c.2.1.49.23.89.4a1.89,1.89,0,0,0,.31.12l.46.2.51.22.5.24a5.49,5.49,0,0,1,.55.29l.49.31a2.33,2.33,0,0,1,.48.37l.4.43a1.86,1.86,0,0,1,.36.5,5.68,5.68,0,0,1,.22.55,2.78,2.78,0,0,1,.13.63,3.51,3.51,0,0,1-1.16,3.08,5.65,5.65,0,0,1-3.38,1.4,9.93,9.93,0,0,1-3.9-.48,11.84,11.84,0,0,1-.45-1.62,14.34,14.34,0,0,1-.31-1.69.64.64,0,0,1,.4-.19c.45,0,.7,0,.73.17a3.28,3.28,0,0,0,1.35,1.89,3.17,3.17,0,0,0,2.1.57,2.16,2.16,0,0,0,1.32-.54,1.45,1.45,0,0,0,.42-1.26,2,2,0,0,0-.12-.54,1.47,1.47,0,0,0-.33-.48l-.38-.38a2.12,2.12,0,0,0-.57-.35l-.62-.29-.78-.32-.79-.33a6.91,6.91,0,0,1-2.25-1.39,3.43,3.43,0,0,1,.23-5A5.74,5.74,0,0,1,421.84,37.25Z"/><path class="cls-1" d="M444.32,35.2a3.21,3.21,0,0,1,2,.4A3.47,3.47,0,0,1,447.62,37a7,7,0,0,1,2-1.68,6.67,6.67,0,0,1,2.73-.85,3.37,3.37,0,0,1,1.86.31A3.28,3.28,0,0,1,455.54,36a7,7,0,0,1,.79,1.78,11.26,11.26,0,0,1,.39,2.13L457,43a12.5,12.5,0,0,0,.45,2.65q.08.2.84.36a4.35,4.35,0,0,0,1,.13c.06,0,.11.13.14.42a1.71,1.71,0,0,1,0,.58l-1.57,0q-1.35,0-2,.1t-2,.28l-1.57.26a1.12,1.12,0,0,1-.14-.55c0-.3,0-.45,0-.45a4,4,0,0,0,1-.32q.69-.29.73-.5a9.18,9.18,0,0,0,0-2.09l-.28-3q-.4-4.29-3.15-4a2.71,2.71,0,0,0-1.58.62,1.86,1.86,0,0,0-.69,1,2.28,2.28,0,0,1,0,.24.58.58,0,0,0,0,.24,14.52,14.52,0,0,1,.26,1.83l.29,3.14a11.71,11.71,0,0,0,.44,2.53q.08.2.84.36a4.38,4.38,0,0,0,1,.13c.06,0,.11.13.14.42a1.72,1.72,0,0,1,0,.58l-1.57,0q-1.35,0-2,.1t-2,.28l-1.57.26A1.1,1.1,0,0,1,444,48c0-.3,0-.45,0-.45a4,4,0,0,0,1-.32q.69-.29.73-.5a9.74,9.74,0,0,0,0-2.18l-.26-2.84a6.3,6.3,0,0,0-1-3.28,2.26,2.26,0,0,0-2.11-.85,2.85,2.85,0,0,0-1.58.65,1.4,1.4,0,0,0-.64,1.19l.47,5.09a11,11,0,0,0,.48,2.64q.08.2.81.36a4,4,0,0,0,1,.13c.08,0,.14.13.17.42a1.72,1.72,0,0,1,0,.58l-1.57,0q-1.33,0-2,.1t-2.06.28l-1.56.26a.88.88,0,0,1-.17-.55c0-.3,0-.45.08-.46a4.3,4.3,0,0,0,1-.32q.72-.29.76-.5a9.74,9.74,0,0,0,0-2.18l-.45-4.83a2.83,2.83,0,0,0-.65-1.85,1.43,1.43,0,0,0-.71-.38,3.36,3.36,0,0,0-.74-.11c-.2,0-.3,0-.3-.06q-.08-.86.09-.9a41,41,0,0,0,4.65-1.32.2.2,0,0,1,.09-.05l.15,0c.1,0,.18.05.25.19a.54.54,0,0,1,.09.32,10.09,10.09,0,0,0,0,1.08q0,.12.07.14a.45.45,0,0,0,.14-.1,6.57,6.57,0,0,1,1.71-1.41A5.2,5.2,0,0,1,444.32,35.2Z"/><path class="cls-1" d="M466.62,33.14a6.55,6.55,0,0,1,4.93,1.5,6.37,6.37,0,0,1,2.4,4.51,6.73,6.73,0,0,1-13.41,1.24A6.4,6.4,0,0,1,462,35.5,6.52,6.52,0,0,1,466.62,33.14Zm-.26,1.43a2.39,2.39,0,0,0-2,1.55,6.4,6.4,0,0,0-.47,3.28,8.67,8.67,0,0,0,1.35,4.09A3,3,0,0,0,468,45a2.42,2.42,0,0,0,2.05-1.56,6.32,6.32,0,0,0,.49-3.27,10.19,10.19,0,0,0-.65-2.82,5.25,5.25,0,0,0-1.45-2.09A2.76,2.76,0,0,0,466.36,34.57Z"/><path class="cls-1" d="M486.34,33.2q-.46-.76-2.15-.61c-.06,0-.1-.13-.13-.41a1,1,0,0,1,0-.54q.41,0,1.44,0t1.7-.07q.67-.06,1.72-.25c.71-.12,1.18-.2,1.44-.22a.87.87,0,0,1,.13.47q0,.47-.13.49a3.55,3.55,0,0,0-1.13.39,1.72,1.72,0,0,0-.93.94l-4,10.91a2,2,0,0,1-.34.54.75.75,0,0,1-.48.31c-.2,0-.32,0-.37-.14q-.71-1.28-2-3.54T479.1,37.6l-2-3.51q-.43-.8-2-.65c-.08,0-.13-.15-.16-.46a.69.69,0,0,1,.07-.48c.18,0,.7,0,1.58-.06s1.55-.05,2-.1,1.15-.14,2-.28l1.53-.23a1,1,0,0,1,.12.53c0,.28,0,.42-.09.43a4.38,4.38,0,0,0-1,.27q-.65.24-.62.54a.55.55,0,0,0,.09.29l3.56,6.54,2.12-6.11Q486.57,33.51,486.34,33.2Z"/><path class="cls-1" d="M498.19,30.23a5.51,5.51,0,0,1,2.54.32,4.71,4.71,0,0,1,1.84,1.23,6.92,6.92,0,0,1,1.11,1.66,5.14,5.14,0,0,1,.49,1.7c0,.43,0,.71-.15.83a1.69,1.69,0,0,1-.89.25l-7.08.65q-.21,0-.19.2a5.75,5.75,0,0,0,.58,2,4.07,4.07,0,0,0,1.48,1.63,3.5,3.5,0,0,0,2.3.53,7.94,7.94,0,0,0,.85-.12,4.39,4.39,0,0,0,.76-.22l.6-.25a2.5,2.5,0,0,0,.52-.32l.38-.29.56-.45a.48.48,0,0,1,.16.16.57.57,0,0,1,.12.29.9.9,0,0,1-.13.58,4.83,4.83,0,0,1-1.6,1.76,5.52,5.52,0,0,1-2.86,1.07A6,6,0,0,1,495,42a6.4,6.4,0,0,1-2.29-4.46,6.88,6.88,0,0,1,1.28-5A5.76,5.76,0,0,1,498.19,30.23Zm-.08,1.38a2.1,2.1,0,0,0-1.23.53,2.79,2.79,0,0,0-.76,1.09,5.67,5.67,0,0,0-.33,1.15,3.62,3.62,0,0,0-.05.89c0,.14.08.2.2.19l4.8-.44q.27,0,.23-.47a3.86,3.86,0,0,0-.89-2A2.13,2.13,0,0,0,498.11,31.61Z"/><path class="cls-1" d="M513.73,30.88l-1.81.17q-.21,0-.28-.75a.73.73,0,0,1,0-.27,8.3,8.3,0,0,0,2.13-1.78q.35-.42.76-1t1-1.36a2.12,2.12,0,0,1,.57,0c.18,0,.28.08.28.14l.27,2.9,2.15-.18,1.47-.12c.16,0,.25.07.26.24a2.89,2.89,0,0,1-.18,1.33l-3.55.33.66,7.13a2.82,2.82,0,0,0,.67,1.76,1.7,1.7,0,0,0,1.45.49,2.83,2.83,0,0,0,.62-.13,3.19,3.19,0,0,0,.52-.21l.37-.21.2-.11c.08,0,.17.05.29.24s.17.31.15.37q-.14.43-1.17,1.08a4.67,4.67,0,0,1-2.06.74,3.75,3.75,0,0,1-2.71-.75,4,4,0,0,1-1.36-3Z"/><path class="cls-1" d="M529.18,27.37a6.55,6.55,0,0,1,4.93,1.5,6.37,6.37,0,0,1,2.4,4.51,6.73,6.73,0,0,1-13.41,1.24,6.4,6.4,0,0,1,1.5-4.89A6.52,6.52,0,0,1,529.18,27.37Zm-.26,1.43a2.39,2.39,0,0,0-2,1.55,6.39,6.39,0,0,0-.47,3.28,8.67,8.67,0,0,0,1.35,4.09,3,3,0,0,0,2.84,1.53,2.43,2.43,0,0,0,2.05-1.56,6.32,6.32,0,0,0,.49-3.27,10.19,10.19,0,0,0-.65-2.82A5.25,5.25,0,0,0,531,29.49,2.76,2.76,0,0,0,528.92,28.8Z"/><path class="cls-1" d="M9.72,110l-1.81.12q-.21,0-.26-.76a.72.72,0,0,1,0-.27,8.32,8.32,0,0,0,2.18-1.73q.36-.41.79-.93t1-1.33a2.09,2.09,0,0,1,.57,0c.18,0,.27.09.28.15l.2,2.91,2.15-.13,1.47-.09q.24,0,.25.25a2.87,2.87,0,0,1-.21,1.32l-3.56.24.49,7.15a2.82,2.82,0,0,0,.63,1.77,1.7,1.7,0,0,0,1.44.53,2.81,2.81,0,0,0,.62-.12,3.13,3.13,0,0,0,.52-.2l.37-.21.2-.1c.08,0,.17.06.29.25s.16.32.15.38q-.15.43-1.19,1.05a4.69,4.69,0,0,1-2.08.69,3.75,3.75,0,0,1-2.69-.81,4,4,0,0,1-1.29-3Z"/><path class="cls-1" d="M28.24,106.61q3.8-.26,4.2,5.58l.21,3.05a11,11,0,0,0,.42,2.65q0,.21.82.38a4.56,4.56,0,0,0,1,.15c.06,0,.1.14.13.42a3.13,3.13,0,0,1,0,.58H33.48q-1.39,0-2,0t-2,.23l-1.55.23a1.11,1.11,0,0,1-.13-.56c0-.3,0-.45.06-.45a3.55,3.55,0,0,0,1-.29q.65-.27.73-.48a11.23,11.23,0,0,0,0-2.18l-.2-2.91a6.2,6.2,0,0,0-.9-3.35,2.43,2.43,0,0,0-2.18-.79,2.84,2.84,0,0,0-1.6.62,1.4,1.4,0,0,0-.67,1.18l.35,5.1a11,11,0,0,0,.42,2.65q.07.2.82.38a4.2,4.2,0,0,0,1,.15c.06,0,.1.14.13.42a1.7,1.7,0,0,1,0,.58H25.21q-1.33,0-2,0t-2.05.23l-1.58.23a.88.88,0,0,1-.16-.56q0-.44.09-.45a4.15,4.15,0,0,0,1.07-.3c.47-.18.73-.34.76-.48a9.51,9.51,0,0,0,.06-2.15l-.85-12.34a11.69,11.69,0,0,0-.29-2q-.18-.46-1.57-.37l-.27,0q-.18,0-.21-.46c0-.32,0-.48.15-.49q.91-.15,1.73-.36t1.36-.39q.54-.19.93-.36l.82-.35h.06a.32.32,0,0,1,.25.15.81.81,0,0,1,.17.3,9.59,9.59,0,0,0-.17,2.81l.41,6c0,.12.05.18.13.17s.06,0,.11-.1a5.66,5.66,0,0,1,1.74-1.42A5.48,5.48,0,0,1,28.24,106.61Z"/><path class="cls-1" d="M42.07,105.66a5.52,5.52,0,0,1,2.53.38,4.71,4.71,0,0,1,1.82,1.28A6.9,6.9,0,0,1,47.48,109a5.13,5.13,0,0,1,.45,1.71q0,.65-.17.83a1.69,1.69,0,0,1-.89.23l-7.09.49c-.14,0-.2.07-.2.19a5.78,5.78,0,0,0,.53,2,4.09,4.09,0,0,0,1.44,1.66,3.5,3.5,0,0,0,2.29.59,8.1,8.1,0,0,0,.86-.1,4.43,4.43,0,0,0,.76-.2l.61-.24a2.54,2.54,0,0,0,.53-.3l.38-.28.57-.44a.49.49,0,0,1,.16.17.57.57,0,0,1,.11.29.91.91,0,0,1-.14.58A4.84,4.84,0,0,1,46,117.94a5.52,5.52,0,0,1-2.88,1,6,6,0,0,1-4.58-1.61,6.41,6.41,0,0,1-2.19-4.51,6.88,6.88,0,0,1,1.4-5A5.76,5.76,0,0,1,42.07,105.66ZM42,107a2.1,2.1,0,0,0-1.25.5,2.81,2.81,0,0,0-.79,1.07,5.69,5.69,0,0,0-.35,1.14,3.61,3.61,0,0,0-.07.88c0,.14.07.2.19.2l4.8-.33q.27,0,.24-.46a3.85,3.85,0,0,0-.84-2.06A2.13,2.13,0,0,0,42,107Z"/><path class="cls-1" d="M59.24,98.11q.53,0,3.78-.44a1.93,1.93,0,0,1,.09.47q0,.5-.08.51a5.12,5.12,0,0,0-1.05.3q-.79.28-.8.52a10.82,10.82,0,0,0-.06,2.63l.47,6.82a8.17,8.17,0,0,0,1.65,4.79A4.28,4.28,0,0,0,67,115.28a4.75,4.75,0,0,0,3.56-1.75q1.28-1.59,1-5.06l-.5-7.24a6,6,0,0,0-.46-2.35,2.05,2.05,0,0,0-1.09-.45,5.3,5.3,0,0,0-1.28-.17c-.08,0-.13-.13-.16-.41a1,1,0,0,1,0-.54q3.22,0,3.75,0,.74-.05,2-.24c.82-.13,1.32-.19,1.52-.21a1.72,1.72,0,0,1,.09.47c0,.32,0,.48-.09.48a5.7,5.7,0,0,0-1.26.31,1.93,1.93,0,0,0-1.09.69,6.65,6.65,0,0,0-.16,2.48l.48,7a12.61,12.61,0,0,1-.29,4A6.26,6.26,0,0,1,71.69,115a6.49,6.49,0,0,1-2.26,1.57,9.43,9.43,0,0,1-3,.65,7.39,7.39,0,0,1-5.75-1.77q-2.19-2-2.52-6.79l-.44-6.47a8.21,8.21,0,0,0-.41-2.47q-.13-.23-.86-.4a4,4,0,0,0-1.08-.15q-.12,0-.15-.44a.94.94,0,0,1,.05-.54Z"/><path class="cls-1" d="M87.47,102.55q3.83-.26,4.24,5.82l.19,2.82a12.53,12.53,0,0,0,.39,2.66q.07.2.85.37a4.55,4.55,0,0,0,1,.15c.06,0,.1.14.13.42a1.73,1.73,0,0,1,0,.58c-.12,0-.64,0-1.57,0s-1.61,0-2.07.05-1.13.11-2,.22l-1.52.22a.87.87,0,0,1-.16-.56c0-.3,0-.45.09-.45a3.53,3.53,0,0,0,1-.29q.65-.27.7-.48a8.54,8.54,0,0,0,.09-2.18l-.19-2.82a6.45,6.45,0,0,0-.9-3.4,2.39,2.39,0,0,0-2.19-.83,2.75,2.75,0,0,0-1.62.63,1.43,1.43,0,0,0-.64,1.16l.35,5.1a12.48,12.48,0,0,0,.39,2.66q.07.2.82.38a4.28,4.28,0,0,0,1,.16c.08,0,.13.14.16.42a1.7,1.7,0,0,1,0,.58H84.47q-1.33,0-2,0t-2.05.23l-1.58.23a.87.87,0,0,1-.16-.56q0-.44.09-.45a4.15,4.15,0,0,0,1.07-.3c.47-.18.73-.34.76-.48a9.69,9.69,0,0,0,.06-2.18l-.33-4.83a2.82,2.82,0,0,0-.6-1.87,1.43,1.43,0,0,0-.7-.4,3.4,3.4,0,0,0-.72-.13c-.19,0-.29,0-.29-.07q-.06-.86.09-.9a42.08,42.08,0,0,0,4.71-1.22l.07,0,.09,0H83c.08,0,.15.06.22.19a.92.92,0,0,1,.11.32,10.18,10.18,0,0,0,0,1.08c0,.08,0,.13,0,.15a.45.45,0,0,0,.14-.1,6.6,6.6,0,0,1,1.74-1.37A5.21,5.21,0,0,1,87.47,102.55Z"/><path class="cls-1" d="M101.28,110.55a11,11,0,0,0,.42,2.65q.07.2.83.38a4.38,4.38,0,0,0,1,.15q.12,0,.16.42a1.71,1.71,0,0,1,0,.58h-1.6q-1.38,0-2,0T98,115l-1.55.23a.88.88,0,0,1-.16-.56q0-.44.09-.45a4.31,4.31,0,0,0,1.05-.3q.73-.27.77-.49a9.63,9.63,0,0,0,.06-2.18l-.33-4.83a2.83,2.83,0,0,0-.6-1.87,1.65,1.65,0,0,0-.71-.4,3.13,3.13,0,0,0-.72-.13c-.2,0-.3,0-.3-.07q-.06-.86.12-.9a22.91,22.91,0,0,0,2.38-.52,23.31,23.31,0,0,0,2.31-.69l.23-.08c.1,0,.18.06.25.19a.56.56,0,0,1,.08.32,25.19,25.19,0,0,0-.06,2.57Zm-3.93-12.2a1.81,1.81,0,0,1-.62-1.27,1.84,1.84,0,0,1,3.68-.25,1.81,1.81,0,0,1-.45,1.34,1.83,1.83,0,0,1-2.61.18Z"/><path class="cls-1" d="M106.46,103.34l-1.81.12q-.21,0-.26-.76a.72.72,0,0,1,0-.27,8.31,8.31,0,0,0,2.18-1.73q.36-.41.79-.93t1-1.33a2.1,2.1,0,0,1,.57,0c.18,0,.27.09.28.15l.2,2.91,2.15-.13,1.47-.09q.24,0,.25.25a2.87,2.87,0,0,1-.21,1.32l-3.56.24.49,7.15a2.82,2.82,0,0,0,.63,1.77,1.7,1.7,0,0,0,1.44.53,2.8,2.8,0,0,0,.62-.12,3.13,3.13,0,0,0,.52-.2l.37-.2.2-.1c.08,0,.17.06.29.25s.16.32.15.38q-.15.43-1.19,1.05a4.69,4.69,0,0,1-2.08.69,3.75,3.75,0,0,1-2.69-.81,4,4,0,0,1-1.29-3Z"/><path class="cls-1" d="M121.36,100.23a5.52,5.52,0,0,1,2.53.38,4.71,4.71,0,0,1,1.81,1.28,6.88,6.88,0,0,1,1.07,1.68,5.15,5.15,0,0,1,.44,1.71c0,.44,0,.71-.17.83a1.68,1.68,0,0,1-.89.23l-7.09.49c-.14,0-.2.07-.2.19a5.76,5.76,0,0,0,.53,2,4.09,4.09,0,0,0,1.44,1.66,3.5,3.5,0,0,0,2.29.59,8.07,8.07,0,0,0,.86-.1,4.45,4.45,0,0,0,.76-.2l.61-.24a2.54,2.54,0,0,0,.53-.3l.38-.28.57-.44a.49.49,0,0,1,.16.17.58.58,0,0,1,.11.29.91.91,0,0,1-.14.58,4.83,4.83,0,0,1-1.64,1.72,5.52,5.52,0,0,1-2.88,1,6,6,0,0,1-4.58-1.61,6.41,6.41,0,0,1-2.19-4.51,6.88,6.88,0,0,1,1.4-5A5.76,5.76,0,0,1,121.36,100.23Zm-.11,1.38a2.1,2.1,0,0,0-1.25.5,2.81,2.81,0,0,0-.79,1.07,5.75,5.75,0,0,0-.35,1.14,3.66,3.66,0,0,0-.07.88c0,.14.07.2.19.2l4.8-.33q.27,0,.24-.46a3.86,3.86,0,0,0-.84-2.06A2.13,2.13,0,0,0,121.25,101.61Z"/><path class="cls-1" d="M135.19,99.22a5.11,5.11,0,0,1,2.19.27c.1,0,.14-.17.12-.48l-.19-2.79a10.24,10.24,0,0,0-.32-2q-.18-.46-1.57-.37l-.24,0q-.18,0-.21-.46c0-.32,0-.48.15-.49q.88-.15,1.72-.36t1.37-.39q.54-.19.93-.36l.59-.26.23-.09H140a.32.32,0,0,1,.25.15.55.55,0,0,1,.14.3,11.42,11.42,0,0,0-.11,2.81l.89,13.05a10.85,10.85,0,0,0,.33,2.18.44.44,0,0,0,.32.31,1.81,1.81,0,0,0,.57.11h.86s.07.15.08.35c0,.4,0,.6-.14.6q-.41.06-1,.19l-1.23.28-1.14.29-1.21.34c-.12,0-.19-.16-.21-.49l0-.5a.13.13,0,0,0-.05-.12.05.05,0,0,0-.07,0,5,5,0,0,1-3,1.31,5.76,5.76,0,0,1-4.3-1.48,6,6,0,0,1-2.08-4.31,7,7,0,0,1,1.69-5.17A6.51,6.51,0,0,1,135.19,99.22Zm-.17,1.44a2.6,2.6,0,0,0-2.28,1.5,7,7,0,0,0-.56,3.64,7.17,7.17,0,0,0,1.19,3.87,2.92,2.92,0,0,0,2.68,1.23,2.47,2.47,0,0,0,1.6-.63,1.65,1.65,0,0,0,.53-1.36l-.43-6.23a2.07,2.07,0,0,0-.15-.62,2.73,2.73,0,0,0-.4-.67,1.89,1.89,0,0,0-.84-.57A3.16,3.16,0,0,0,135,100.67Z"/><path class="cls-1" d="M151,96.77a4.68,4.68,0,0,1,1.61-3.88,6.49,6.49,0,0,1,4.11-1.82,10.47,10.47,0,0,1,1.46,0q.63,0,1.76.25l1.55.27a26.52,26.52,0,0,1,.67,4.54.32.32,0,0,1-.34.29q-.8.05-.88-.21a5.22,5.22,0,0,0-1.46-2.58,3.38,3.38,0,0,0-2.76-1.12,2.74,2.74,0,0,0-2,.91,2.91,2.91,0,0,0-.59,2.13,3.35,3.35,0,0,0,.16.84,2.11,2.11,0,0,0,.47.76l.55.6a3.58,3.58,0,0,0,.79.59l.78.48q.2.14.93.52a9.17,9.17,0,0,0,.88.43,11,11,0,0,0,1,.57q.85.43,1.19.63t1,.69a4.28,4.28,0,0,1,1,.95,6.16,6.16,0,0,1,.6,1.17,5,5,0,0,1,.34,1.54,4.83,4.83,0,0,1-1.64,4,6.87,6.87,0,0,1-4.33,1.85,27.69,27.69,0,0,1-5.51-.46,25.88,25.88,0,0,1-.67-2.65,20.41,20.41,0,0,1-.37-2.1c0-.16.16-.25.46-.27.51,0,.81,0,.88.18a5.72,5.72,0,0,0,.5,1.14,8.53,8.53,0,0,0,.91,1.31,3.91,3.91,0,0,0,1.47,1.09,4.18,4.18,0,0,0,2,.32,3.33,3.33,0,0,0,2.26-1,3.19,3.19,0,0,0,.75-2.55,2.57,2.57,0,0,0-.26-1,3.43,3.43,0,0,0-.5-.77,4.35,4.35,0,0,0-.79-.66q-.51-.35-.86-.54l-1-.51-.94-.46a2,2,0,0,0-.34-.21l-1.36-.74a14.29,14.29,0,0,1-1.2-.8,5.82,5.82,0,0,1-1.13-1,5.61,5.61,0,0,1-.72-1.2A4.5,4.5,0,0,1,151,96.77Z"/><path class="cls-1" d="M167,99.19l-1.81.12c-.14,0-.23-.24-.26-.76a.74.74,0,0,1,0-.27,8.33,8.33,0,0,0,2.18-1.73l.79-.93q.42-.52,1-1.33a2.12,2.12,0,0,1,.57,0c.18,0,.27.09.28.15l.2,2.91,2.15-.13,1.47-.09c.16,0,.24.07.26.25a2.87,2.87,0,0,1-.21,1.33L170,99l.49,7.15a2.82,2.82,0,0,0,.63,1.77,1.7,1.7,0,0,0,1.44.53,2.81,2.81,0,0,0,.62-.12,3.21,3.21,0,0,0,.52-.2l.37-.2.2-.1q.12,0,.29.25c.11.19.16.32.14.38q-.15.43-1.19,1.05a4.69,4.69,0,0,1-2.08.69,3.75,3.75,0,0,1-2.69-.81,4,4,0,0,1-1.29-3Z"/><path class="cls-1" d="M182,96.08a3.65,3.65,0,0,1,2.82.77,4.74,4.74,0,0,1,1.15,3.24l.4,5.84a1.36,1.36,0,0,0,.33.89.89.89,0,0,0,.73.26,1.85,1.85,0,0,0,1-.46c.12,0,.19.14.2.31a1.77,1.77,0,0,1-.12.9,7.33,7.33,0,0,1-1.13.82,3.1,3.1,0,0,1-1.4.48,2.17,2.17,0,0,1-1.37-.41,2.42,2.42,0,0,1-.93-1l-.21.21c-.12.12-.29.26-.51.44a8.76,8.76,0,0,1-.74.53,4.73,4.73,0,0,1-1,.47,4.31,4.31,0,0,1-1.16.24,3.55,3.55,0,0,1-2.47-.65,2.82,2.82,0,0,1-1.09-2.18,2.73,2.73,0,0,1,.25-1.36,3.57,3.57,0,0,1,.75-1.08,6.09,6.09,0,0,1,1.22-.87,12.31,12.31,0,0,1,1.34-.67l1.45-.56,1.23-.47a.46.46,0,0,0,.23-.49l-.11-1.63a2.55,2.55,0,0,0-.59-1.6,1.55,1.55,0,0,0-1.31-.51,1.8,1.8,0,0,0-1.36.64,2.23,2.23,0,0,0-.4,1.59,1,1,0,0,1-.38.91,1.85,1.85,0,0,1-1,.35,1.68,1.68,0,0,1-1.59-.61q-.1-1.42,1.76-2.8A7.45,7.45,0,0,1,182,96.08Zm-.55,11.48a2.3,2.3,0,0,0,1.35-.51,1.18,1.18,0,0,0,.51-1l-.21-3q-.2.1-.85.36t-1,.43a8,8,0,0,0-.8.47,1.79,1.79,0,0,0-.65.7,1.63,1.63,0,0,0-.17.85,1.83,1.83,0,0,0,.57,1.36A1.71,1.71,0,0,0,181.47,107.56Z"/><path class="cls-1" d="M191.36,97.52l-1.81.12c-.14,0-.22-.24-.26-.76a.74.74,0,0,1,0-.27,8.31,8.31,0,0,0,2.17-1.73q.36-.41.79-.93t1-1.33a2.12,2.12,0,0,1,.57,0c.18,0,.27.09.28.15l.2,2.91,2.15-.13,1.47-.09c.16,0,.24.07.26.25a2.88,2.88,0,0,1-.21,1.32l-3.56.24.49,7.15a2.82,2.82,0,0,0,.63,1.77,1.7,1.7,0,0,0,1.44.53,2.79,2.79,0,0,0,.62-.12,3.18,3.18,0,0,0,.52-.2l.37-.21.2-.1c.08,0,.17.06.29.25s.16.32.14.38q-.15.43-1.19,1.05a4.69,4.69,0,0,1-2.08.69,3.75,3.75,0,0,1-2.69-.81,4,4,0,0,1-1.29-3Z"/><path class="cls-1" d="M206.27,94.41a5.52,5.52,0,0,1,2.53.38,4.71,4.71,0,0,1,1.82,1.28,6.87,6.87,0,0,1,1.07,1.68,5.13,5.13,0,0,1,.45,1.71q0,.65-.17.83a1.69,1.69,0,0,1-.89.23L204,101c-.14,0-.2.07-.19.19a5.76,5.76,0,0,0,.53,2,4.08,4.08,0,0,0,1.44,1.66,3.5,3.5,0,0,0,2.29.59,8.12,8.12,0,0,0,.86-.1,4.4,4.4,0,0,0,.76-.2l.61-.24a2.54,2.54,0,0,0,.53-.3l.38-.28.57-.44a.47.47,0,0,1,.16.17.57.57,0,0,1,.11.29.91.91,0,0,1-.14.58,4.83,4.83,0,0,1-1.64,1.72,5.52,5.52,0,0,1-2.88,1,6,6,0,0,1-4.58-1.61,6.41,6.41,0,0,1-2.19-4.51,6.88,6.88,0,0,1,1.4-5A5.76,5.76,0,0,1,206.27,94.41Zm-.11,1.38a2.1,2.1,0,0,0-1.25.5,2.81,2.81,0,0,0-.79,1.07,5.81,5.81,0,0,0-.35,1.14,3.7,3.7,0,0,0-.07.88c0,.14.07.2.19.2l4.81-.33c.18,0,.26-.17.24-.46a3.84,3.84,0,0,0-.84-2.06A2.13,2.13,0,0,0,206.15,95.79Z"/><path class="cls-1" d="M218.25,93.56a12.63,12.63,0,0,1,3.47.27,16.83,16.83,0,0,1,.55,3.3q0,.24-.37.26c-.43,0-.68,0-.73-.19a3.61,3.61,0,0,0-1-1.7,2.32,2.32,0,0,0-1.84-.6,2.13,2.13,0,0,0-1.32.48,1.32,1.32,0,0,0-.41,1.13,1.74,1.74,0,0,0,.21.75,1.85,1.85,0,0,0,.58.6,7.54,7.54,0,0,0,.68.43q.29.16.88.42l.31.13.46.21.51.23.49.25a5.52,5.52,0,0,1,.54.31l.48.32a2.37,2.37,0,0,1,.47.38l.39.44a1.92,1.92,0,0,1,.35.51,5.67,5.67,0,0,1,.2.55,2.79,2.79,0,0,1,.12.63,3.5,3.5,0,0,1-1.24,3,5.64,5.64,0,0,1-3.41,1.32,9.93,9.93,0,0,1-3.88-.57,11.89,11.89,0,0,1-.41-1.63,14.29,14.29,0,0,1-.27-1.7.64.64,0,0,1,.41-.18c.45,0,.7,0,.73.19a3.27,3.27,0,0,0,1.31,1.92,3.17,3.17,0,0,0,2.08.62,2.16,2.16,0,0,0,1.34-.51,1.45,1.45,0,0,0,.45-1.25,1.93,1.93,0,0,0-.11-.54,1.46,1.46,0,0,0-.32-.48l-.37-.39a2.13,2.13,0,0,0-.56-.36l-.62-.3-.77-.33-.78-.35a6.9,6.9,0,0,1-2.21-1.44,3.43,3.43,0,0,1,.34-5A5.74,5.74,0,0,1,218.25,93.56Z"/><path class="cls-1" d="M237.31,92.29a3.65,3.65,0,0,1,2.82.77,4.75,4.75,0,0,1,1.15,3.24l.4,5.84a1.35,1.35,0,0,0,.33.89.89.89,0,0,0,.73.26,1.85,1.85,0,0,0,1-.46c.12,0,.19.14.2.31a1.77,1.77,0,0,1-.12.9,7.43,7.43,0,0,1-1.13.82,3.1,3.1,0,0,1-1.4.48,2.17,2.17,0,0,1-1.37-.41,2.43,2.43,0,0,1-.93-1l-.21.21c-.12.12-.29.26-.51.44a8.74,8.74,0,0,1-.74.53,4.73,4.73,0,0,1-1,.47,4.32,4.32,0,0,1-1.16.24,3.55,3.55,0,0,1-2.47-.65,2.82,2.82,0,0,1-1.09-2.18,2.74,2.74,0,0,1,.25-1.36,3.59,3.59,0,0,1,.75-1.08,6.15,6.15,0,0,1,1.22-.87,12.26,12.26,0,0,1,1.34-.67l1.45-.56,1.23-.47a.47.47,0,0,0,.24-.49l-.11-1.63a2.56,2.56,0,0,0-.59-1.6,1.55,1.55,0,0,0-1.32-.51,1.8,1.8,0,0,0-1.36.64,2.23,2.23,0,0,0-.4,1.59,1,1,0,0,1-.38.91,1.86,1.86,0,0,1-1,.35,1.68,1.68,0,0,1-1.59-.61q-.1-1.42,1.76-2.8A7.46,7.46,0,0,1,237.31,92.29Zm-.55,11.48a2.31,2.31,0,0,0,1.35-.51,1.18,1.18,0,0,0,.51-1l-.21-3q-.2.1-.85.36c-.44.17-.77.31-1,.43a8.22,8.22,0,0,0-.8.47,1.79,1.79,0,0,0-.65.7,1.64,1.64,0,0,0-.17.85,1.83,1.83,0,0,0,.57,1.36A1.71,1.71,0,0,0,236.76,103.77Z"/><path class="cls-1" d="M254.49,91.11q3.83-.26,4.24,5.82l.19,2.82a12.48,12.48,0,0,0,.39,2.66q.07.2.84.37a4.56,4.56,0,0,0,1,.15c.06,0,.1.14.13.42a1.7,1.7,0,0,1,0,.58c-.12,0-.64,0-1.56,0s-1.61,0-2.07.05-1.13.11-2,.22l-1.52.22a.87.87,0,0,1-.16-.56c0-.3,0-.45.09-.45a3.55,3.55,0,0,0,1-.29c.43-.18.67-.34.7-.48a8.54,8.54,0,0,0,.09-2.18l-.19-2.82a6.45,6.45,0,0,0-.9-3.4,2.39,2.39,0,0,0-2.19-.83A2.75,2.75,0,0,0,251,94a1.43,1.43,0,0,0-.64,1.16l.35,5.1a12.48,12.48,0,0,0,.39,2.66c0,.14.32.26.82.38a4.29,4.29,0,0,0,1,.16q.12,0,.16.42a1.71,1.71,0,0,1,0,.58h-1.57q-1.32,0-2,0t-2.06.23l-1.58.23a.87.87,0,0,1-.16-.56c0-.3,0-.45.09-.45a4.14,4.14,0,0,0,1.07-.3q.71-.27.76-.48a9.63,9.63,0,0,0,.06-2.18l-.33-4.83a2.83,2.83,0,0,0-.6-1.87,1.43,1.43,0,0,0-.7-.4,3.38,3.38,0,0,0-.73-.13q-.28,0-.29-.07-.06-.86.09-.9a42,42,0,0,0,4.71-1.22l.07,0,.09,0h.07c.08,0,.15.06.22.19a.93.93,0,0,1,.11.32,9.84,9.84,0,0,0,0,1.08.24.24,0,0,0,0,.15.44.44,0,0,0,.14-.1,6.57,6.57,0,0,1,1.74-1.37A5.21,5.21,0,0,1,254.49,91.11Z"/><path class="cls-1" d="M269.09,90.05a5.12,5.12,0,0,1,2.19.27c.1,0,.14-.17.12-.48L271.21,87a10.31,10.31,0,0,0-.32-2q-.18-.46-1.57-.37l-.24,0c-.12,0-.19-.15-.21-.46s0-.48.15-.49q.88-.15,1.72-.36T272.1,83q.54-.19.93-.36l.59-.26.23-.09h.06a.33.33,0,0,1,.25.15.55.55,0,0,1,.14.3,11.42,11.42,0,0,0-.11,2.81l.89,13.05a10.85,10.85,0,0,0,.33,2.18.44.44,0,0,0,.32.31,1.8,1.8,0,0,0,.57.11h.86a.63.63,0,0,1,.08.35c0,.4,0,.6-.14.6q-.41.06-1,.19l-1.23.28-1.14.29-1.21.34q-.18,0-.21-.49l0-.5a.13.13,0,0,0-.05-.12.05.05,0,0,0-.07,0,5,5,0,0,1-3,1.31,5.76,5.76,0,0,1-4.3-1.48,6,6,0,0,1-2.08-4.31,7,7,0,0,1,1.69-5.17A6.51,6.51,0,0,1,269.09,90.05Zm-.17,1.44a2.61,2.61,0,0,0-2.28,1.5,7,7,0,0,0-.55,3.64,7.18,7.18,0,0,0,1.19,3.87,2.92,2.92,0,0,0,2.68,1.23,2.47,2.47,0,0,0,1.6-.63,1.64,1.64,0,0,0,.53-1.36l-.43-6.23a2,2,0,0,0-.15-.62,2.79,2.79,0,0,0-.4-.67,1.9,1.9,0,0,0-.84-.57A3.16,3.16,0,0,0,268.92,91.49Z"/><path class="cls-1" d="M286.51,91l-1.81.12c-.14,0-.23-.24-.26-.76a.74.74,0,0,1,0-.27,8.31,8.31,0,0,0,2.18-1.73l.79-.93q.42-.52,1-1.33a2.11,2.11,0,0,1,.57,0c.18,0,.27.09.28.15l.2,2.91,2.15-.13,1.47-.09c.16,0,.24.07.26.25a2.88,2.88,0,0,1-.21,1.32l-3.56.24.49,7.15a2.82,2.82,0,0,0,.63,1.77,1.7,1.7,0,0,0,1.44.53,2.8,2.8,0,0,0,.62-.12,3.15,3.15,0,0,0,.52-.2l.37-.2.2-.1c.08,0,.17.06.29.25s.16.32.14.38q-.15.43-1.19,1.05A4.7,4.7,0,0,1,291,102a3.75,3.75,0,0,1-2.69-.81,4,4,0,0,1-1.29-3Z"/><path class="cls-1" d="M305,87.65q3.8-.26,4.2,5.58l.21,3.05a11,11,0,0,0,.42,2.65c0,.14.3.26.81.38a4.58,4.58,0,0,0,1,.15c.06,0,.1.14.13.42a3.13,3.13,0,0,1,0,.58h-1.6c-.92,0-1.6,0-2,0s-1.16.11-2,.23l-1.55.23a1.1,1.1,0,0,1-.13-.56q0-.44.06-.45a3.54,3.54,0,0,0,1-.29q.65-.27.73-.48a11.31,11.31,0,0,0,0-2.18l-.2-2.91a6.2,6.2,0,0,0-.9-3.35A2.43,2.43,0,0,0,303.1,90a2.85,2.85,0,0,0-1.6.62,1.4,1.4,0,0,0-.66,1.18l.35,5.1a10.92,10.92,0,0,0,.42,2.65q.07.2.81.38a4.22,4.22,0,0,0,1,.15c.06,0,.1.14.13.42a1.71,1.71,0,0,1,0,.58H302q-1.33,0-2,0t-2.06.23l-1.58.23a.86.86,0,0,1-.16-.56q0-.44.09-.45a4.15,4.15,0,0,0,1.07-.3q.71-.27.76-.48a9.51,9.51,0,0,0,.06-2.15l-.84-12.34a11.67,11.67,0,0,0-.29-2q-.18-.46-1.57-.37l-.27,0q-.18,0-.21-.46c0-.32,0-.48.15-.49.61-.1,1.19-.22,1.73-.36s1-.27,1.36-.39.67-.24.93-.36l.83-.35H300a.32.32,0,0,1,.25.15.82.82,0,0,1,.17.3,9.55,9.55,0,0,0-.17,2.81l.41,6c0,.12.05.18.13.17s.06,0,.11-.1a5.66,5.66,0,0,1,1.74-1.42A5.48,5.48,0,0,1,305,87.65Z"/><path class="cls-1" d="M318.86,86.7a5.52,5.52,0,0,1,2.53.38,4.71,4.71,0,0,1,1.82,1.28A6.87,6.87,0,0,1,324.27,90a5.13,5.13,0,0,1,.45,1.71q0,.65-.17.83a1.69,1.69,0,0,1-.89.23l-7.09.49c-.14,0-.2.07-.19.19a5.76,5.76,0,0,0,.53,2,4.08,4.08,0,0,0,1.44,1.66,3.5,3.5,0,0,0,2.29.59,8.06,8.06,0,0,0,.86-.1,4.38,4.38,0,0,0,.76-.2l.61-.24a2.54,2.54,0,0,0,.53-.3l.38-.28.57-.44a.48.48,0,0,1,.16.17.57.57,0,0,1,.11.29.91.91,0,0,1-.14.58A4.83,4.83,0,0,1,322.83,99a5.52,5.52,0,0,1-2.88,1,6,6,0,0,1-4.58-1.61,6.41,6.41,0,0,1-2.19-4.51,6.88,6.88,0,0,1,1.4-5A5.76,5.76,0,0,1,318.86,86.7Zm-.11,1.38a2.1,2.1,0,0,0-1.25.5,2.81,2.81,0,0,0-.79,1.07,5.82,5.82,0,0,0-.35,1.14,3.7,3.7,0,0,0-.07.88c0,.14.07.2.19.2l4.81-.33c.18,0,.26-.17.24-.46a3.84,3.84,0,0,0-.84-2.06A2.13,2.13,0,0,0,318.74,88.08Z"/><path class="cls-1" d="M340.45,77.68a5.86,5.86,0,0,1,2.08.17,2.07,2.07,0,0,1,1.13.68,3.33,3.33,0,0,1,0,1.66,1.07,1.07,0,0,1-1,.8,1.16,1.16,0,0,1-.94-.43q-.43-.46-.91-.92a1.37,1.37,0,0,0-1.07-.42,1.58,1.58,0,0,0-1.28.86,5,5,0,0,0-.63,1.92,12,12,0,0,0-.06,2.42l.09,1.36s0,0,.07.08a.17.17,0,0,0,.12.05l3.26-.22a.24.24,0,0,1,.15,0s0,.08,0,.18a3.08,3.08,0,0,1-.26,1.39l-3.08.21a.16.16,0,0,0-.17.19l.45,6.61a11.33,11.33,0,0,0,.42,2.65q.07.2.81.38a4.23,4.23,0,0,0,1,.15c.06,0,.1.14.13.42a1.68,1.68,0,0,1,0,.58q-.18,0-1.55,0t-2.08.05q-.71,0-2,.23l-1.53.22a.56.56,0,0,1-.14-.32,1.8,1.8,0,0,1,0-.46c0-.15,0-.23.1-.23a4,4,0,0,0,1-.29c.46-.18.71-.34.74-.48a9.8,9.8,0,0,0,.1-2.45l-.47-6.82c0-.14-.07-.2-.19-.2l-1.78.12s-.06-.06-.07-.17a1.6,1.6,0,0,1,.36-.89,1.2,1.2,0,0,1,.91-.6l.47,0a.16.16,0,0,0,.17-.19l0-.3a8.08,8.08,0,0,1,1.49-5.47A5.56,5.56,0,0,1,340.45,77.68Z"/><path class="cls-1" d="M349.87,84.58a6.56,6.56,0,0,1,4.89,1.62,6.37,6.37,0,0,1,2.29,4.57,6.73,6.73,0,0,1-13.44.92,6.4,6.4,0,0,1,1.62-4.85A6.51,6.51,0,0,1,349.87,84.58ZM349.58,86a2.39,2.39,0,0,0-2.07,1.5,6.4,6.4,0,0,0-.55,3.27,8.67,8.67,0,0,0,1.25,4.12,3,3,0,0,0,2.81,1.6A2.42,2.42,0,0,0,353.1,95a6.32,6.32,0,0,0,.57-3.26,10.16,10.16,0,0,0-.58-2.84,5.24,5.24,0,0,0-1.4-2.12A2.76,2.76,0,0,0,349.58,86Z"/><path class="cls-1" d="M371.69,86.3l.4,5.87a6.57,6.57,0,0,0,.38,2.06.62.62,0,0,0,.36.21,2.31,2.31,0,0,0,.53.08h.49a.56.56,0,0,1,.25,0c.08,0,.13.1.14.26a2.23,2.23,0,0,1,0,.4c0,.19-.08.29-.16.29a6.86,6.86,0,0,0-1,.18l-1.22.29-1.11.3-1.17.32q-.21,0-.24-.46l-.09-1.3c0-.1-.06-.14-.1-.14a6.63,6.63,0,0,1-1.72,1.46,5,5,0,0,1-2.3.75,3.11,3.11,0,0,1-1.8-.38A3.59,3.59,0,0,1,362,95.28a6.38,6.38,0,0,1-.74-1.68,9,9,0,0,1-.32-1.86l-.23-3.32a2.82,2.82,0,0,0-.6-1.87,1.65,1.65,0,0,0-.71-.4,3.14,3.14,0,0,0-.72-.13c-.2,0-.3,0-.3-.07,0-.57,0-.87.09-.9a22.37,22.37,0,0,0,2.41-.52,23.29,23.29,0,0,0,2.31-.69l.12,0,.12,0c.1,0,.18.06.24.19a1.11,1.11,0,0,1,.1.32,26.29,26.29,0,0,0-.09,2.63l.24,3.56a6.38,6.38,0,0,0,.88,3.28,2.63,2.63,0,0,0,3.74.18,1.58,1.58,0,0,0,.58-1.16l-.34-4.89a2.83,2.83,0,0,0-.6-1.87,1.44,1.44,0,0,0-.7-.4,3.38,3.38,0,0,0-.74-.13c-.2,0-.3,0-.3-.07q-.06-.86.12-.9a22.82,22.82,0,0,0,2.38-.52,23.47,23.47,0,0,0,2.31-.69l.23-.08q.15,0,.25.19a.56.56,0,0,1,.08.32Q371.65,85.77,371.69,86.3Z"/><path class="cls-1" d="M385,82.17q3.83-.26,4.24,5.82l.19,2.82a12.48,12.48,0,0,0,.39,2.66q.07.2.85.37a4.54,4.54,0,0,0,1,.15c.06,0,.1.14.13.42a1.7,1.7,0,0,1,0,.58c-.12,0-.64,0-1.56,0s-1.61,0-2.07.05-1.13.11-2,.22l-1.52.22a.87.87,0,0,1-.16-.56c0-.3,0-.45.09-.45a3.54,3.54,0,0,0,1-.29q.65-.27.7-.48a8.54,8.54,0,0,0,.09-2.18l-.19-2.82a6.45,6.45,0,0,0-.9-3.4,2.39,2.39,0,0,0-2.19-.83,2.75,2.75,0,0,0-1.62.63,1.43,1.43,0,0,0-.64,1.16l.35,5.1a12.55,12.55,0,0,0,.39,2.66c0,.14.32.26.82.38a4.3,4.3,0,0,0,1,.16q.12,0,.16.42a1.71,1.71,0,0,1,0,.58H382q-1.33,0-2,0t-2.06.23l-1.58.23a.87.87,0,0,1-.16-.56c0-.3,0-.45.09-.45a4.13,4.13,0,0,0,1.07-.3q.71-.27.76-.48a9.69,9.69,0,0,0,.06-2.18l-.33-4.83a2.83,2.83,0,0,0-.6-1.87,1.43,1.43,0,0,0-.7-.4,3.37,3.37,0,0,0-.72-.13c-.19,0-.29,0-.29-.07q-.06-.86.09-.9a42,42,0,0,0,4.71-1.22l.07,0,.09,0h.07c.08,0,.15.06.22.19a.93.93,0,0,1,.11.32,9.85,9.85,0,0,0,0,1.08.24.24,0,0,0,0,.15.45.45,0,0,0,.14-.1,6.57,6.57,0,0,1,1.74-1.37A5.21,5.21,0,0,1,385,82.17Z"/><path class="cls-1" d="M399.57,81.11a5.12,5.12,0,0,1,2.19.27c.1,0,.14-.17.12-.48l-.19-2.79a10.31,10.31,0,0,0-.32-2q-.18-.46-1.57-.37l-.24,0q-.18,0-.21-.46c0-.32,0-.48.15-.49q.88-.15,1.72-.36t1.37-.39q.54-.19.93-.36l.59-.26.23-.09h.06a.33.33,0,0,1,.25.15.54.54,0,0,1,.14.3,11.42,11.42,0,0,0-.11,2.81l.89,13.05a10.84,10.84,0,0,0,.33,2.18.44.44,0,0,0,.32.31,1.8,1.8,0,0,0,.57.11h.86s.07.15.08.35q0,.59-.14.6-.41.06-1,.19l-1.23.28-1.14.29-1.21.34q-.18,0-.21-.49l0-.5a.13.13,0,0,0-.05-.12.05.05,0,0,0-.07,0,5,5,0,0,1-3,1.31,5.76,5.76,0,0,1-4.3-1.48,6,6,0,0,1-2.08-4.31,7,7,0,0,1,1.69-5.17A6.51,6.51,0,0,1,399.57,81.11Zm-.17,1.44a2.61,2.61,0,0,0-2.28,1.5,7,7,0,0,0-.55,3.64,7.18,7.18,0,0,0,1.19,3.87,2.92,2.92,0,0,0,2.68,1.23,2.48,2.48,0,0,0,1.6-.63,1.64,1.64,0,0,0,.53-1.36l-.43-6.23A2,2,0,0,0,402,84a2.79,2.79,0,0,0-.4-.67,1.9,1.9,0,0,0-.84-.57A3.15,3.15,0,0,0,399.4,82.56Z"/><path class="cls-1" d="M414.52,89.09a11,11,0,0,0,.42,2.65q.07.2.83.38a4.38,4.38,0,0,0,1,.15q.12,0,.16.42a1.71,1.71,0,0,1,0,.58h-1.6q-1.39,0-2,0t-2.08.23l-1.55.23a.87.87,0,0,1-.16-.56c0-.3,0-.45.09-.45a4.29,4.29,0,0,0,1.05-.3q.73-.27.77-.48a9.69,9.69,0,0,0,.06-2.18L411.16,85a2.83,2.83,0,0,0-.6-1.87,1.65,1.65,0,0,0-.71-.4,3.12,3.12,0,0,0-.72-.13c-.2,0-.3,0-.3-.07q-.06-.86.12-.9a22.77,22.77,0,0,0,2.38-.52,23.22,23.22,0,0,0,2.31-.69l.23-.08c.1,0,.18.06.25.19a.56.56,0,0,1,.08.32,25.38,25.38,0,0,0-.06,2.57Zm-3.94-12.2a1.81,1.81,0,0,1-.62-1.27,1.76,1.76,0,0,1,.45-1.33,1.84,1.84,0,0,1,3.23,1.07,1.81,1.81,0,0,1-.45,1.34,1.83,1.83,0,0,1-2.61.18Z"/><path class="cls-1" d="M427.53,79.26q3.83-.26,4.24,5.82l.19,2.82a12.48,12.48,0,0,0,.39,2.66q.07.2.84.37a4.55,4.55,0,0,0,1,.15c.06,0,.1.14.13.42a1.7,1.7,0,0,1,0,.58c-.12,0-.64,0-1.56,0s-1.61,0-2.07.05-1.13.11-2,.22l-1.52.22a.87.87,0,0,1-.16-.56c0-.3,0-.45.09-.45a3.54,3.54,0,0,0,1-.29q.65-.27.7-.48a8.54,8.54,0,0,0,.09-2.18l-.19-2.82a6.45,6.45,0,0,0-.9-3.39,2.39,2.39,0,0,0-2.19-.83,2.75,2.75,0,0,0-1.62.63,1.43,1.43,0,0,0-.64,1.16l.35,5.1a12.48,12.48,0,0,0,.39,2.66c0,.14.32.26.82.38a4.28,4.28,0,0,0,1,.16c.08,0,.13.14.16.42a1.71,1.71,0,0,1,0,.58h-1.57q-1.32,0-2,0t-2.06.23l-1.58.23a.87.87,0,0,1-.16-.56c0-.3,0-.45.09-.45a4.12,4.12,0,0,0,1.07-.3q.71-.27.76-.48a9.69,9.69,0,0,0,.06-2.18l-.33-4.83a2.83,2.83,0,0,0-.6-1.87,1.43,1.43,0,0,0-.7-.4,3.41,3.41,0,0,0-.73-.13q-.28,0-.29-.07-.06-.86.09-.9a42,42,0,0,0,4.71-1.22l.07,0,.09,0h.07c.08,0,.15.06.22.19a.93.93,0,0,1,.11.32,9.84,9.84,0,0,0,0,1.08.24.24,0,0,0,0,.15.45.45,0,0,0,.14-.1,6.57,6.57,0,0,1,1.74-1.37A5.2,5.2,0,0,1,427.53,79.26Z"/><path class="cls-1" d="M441.12,78.39a9.42,9.42,0,0,1,2.49.22,9.16,9.16,0,0,0,2.4.22l1.69-.12s.12.12.23.37a1.84,1.84,0,0,1,.19.58c0,.28,0,.42-.15.43l-1.93.13c-.08,0-.12,0-.11.1s.11.27.32.75a4.23,4.23,0,0,1,.36,1.41,4.3,4.3,0,0,1-1.25,3.26,5.1,5.1,0,0,1-3.57,1.66,12.26,12.26,0,0,1-1.85,0,1.6,1.6,0,0,0-.62.59,1.26,1.26,0,0,0-.25.75.61.61,0,0,0,.32.48,2,2,0,0,0,.9.24c.4,0,.74,0,1,0l1.19,0,.44,0a10.51,10.51,0,0,1,4.4.52,2.34,2.34,0,0,1,1.53,2.09,4.67,4.67,0,0,1-1.87,4,8.13,8.13,0,0,1-4.9,2,7.72,7.72,0,0,1-3.84-.57,2.67,2.67,0,0,1-1.78-2.32,2.31,2.31,0,0,1,.73-1.72A4.93,4.93,0,0,1,439,92.18a3.38,3.38,0,0,1-1.49-.81,2.16,2.16,0,0,1-.76-1.51q-.09-1.28,2-2.79A3.93,3.93,0,0,1,437,85.65a4.38,4.38,0,0,1-.91-2.37,4,4,0,0,1,1.32-3.43A5.91,5.91,0,0,1,441.12,78.39Zm5.16,15.23q-.07-1-1.59-1.28a18.86,18.86,0,0,0-4-.07l-.15,0-.14.1c-.25.12-.44.21-.58.29a2.51,2.51,0,0,0-.45.36,1.45,1.45,0,0,0-.36.55,1.72,1.72,0,0,0-.08.72,2.08,2.08,0,0,0,1.25,1.7,4.63,4.63,0,0,0,2.57.54,4.49,4.49,0,0,0,2.66-1A2.32,2.32,0,0,0,446.28,93.62Zm-7.11-10.78a4.69,4.69,0,0,0,.76,2.41,1.85,1.85,0,0,0,1.73.88,1.77,1.77,0,0,0,1.56-1,4,4,0,0,0,.37-2.13,4.87,4.87,0,0,0-.77-2.51,1.9,1.9,0,0,0-1.79-.86,1.68,1.68,0,0,0-1.51,1A4.31,4.31,0,0,0,439.16,82.84Z"/><path class="cls-1" d="M158.24,130.3a6.55,6.55,0,0,1,4.8,1.86,6.37,6.37,0,0,1,2.06,4.68,6.78,6.78,0,1,1-6.86-6.54Zm-.36,1.4a2.4,2.4,0,0,0-2.15,1.39,6.39,6.39,0,0,0-.72,3.24,8.68,8.68,0,0,0,1,4.17,3,3,0,0,0,2.72,1.74,2.42,2.42,0,0,0,2.16-1.41,6.31,6.31,0,0,0,.73-3.22,10.2,10.2,0,0,0-.44-2.86,5.24,5.24,0,0,0-1.29-2.19A2.76,2.76,0,0,0,157.88,131.7Z"/><path class="cls-1" d="M175.24,122.48a5.85,5.85,0,0,1,2.07.28,2.08,2.08,0,0,1,1.1.74,3.33,3.33,0,0,1-.13,1.65,1.07,1.07,0,0,1-1.07.75,1.16,1.16,0,0,1-.92-.47q-.41-.48-.86-1a1.36,1.36,0,0,0-1-.47,1.58,1.58,0,0,0-1.32.8,5,5,0,0,0-.73,1.89,12.11,12.11,0,0,0-.18,2.41l0,1.37s0,0,.06.09a.17.17,0,0,0,.12.06l3.27-.06a.24.24,0,0,1,.15,0,.31.31,0,0,1,0,.18,3.05,3.05,0,0,1-.33,1.37l-3.09.05a.16.16,0,0,0-.18.18l.12,6.63a11.35,11.35,0,0,0,.29,2.67q.06.21.79.42a4.21,4.21,0,0,0,1,.21q.09,0,.11.43a1.66,1.66,0,0,1,0,.58q-.18,0-1.55-.09t-2.08-.05q-.71,0-2,.12l-1.54.15a.56.56,0,0,1-.12-.32,1.78,1.78,0,0,1,0-.46c0-.15.06-.22.12-.23a4,4,0,0,0,1-.24q.71-.24.76-.44a9.8,9.8,0,0,0,.23-2.44l-.12-6.84c0-.14-.06-.21-.18-.21l-1.78,0s-.06-.06-.06-.18a1.59,1.59,0,0,1,.4-.87,1.19,1.19,0,0,1,.94-.55H169a.16.16,0,0,0,.17-.18v-.3a8.09,8.09,0,0,1,1.76-5.38A5.56,5.56,0,0,1,175.24,122.48Z"/><path class="cls-1" d="M201.65,137.27a16.62,16.62,0,0,1-.41,2.31,5.17,5.17,0,0,1-.65,2,16,16,0,0,1-6.87,1.37,8.93,8.93,0,0,1-6.74-2.77,9.58,9.58,0,0,1-2.88-6.82,10.21,10.21,0,0,1,2.7-7.29,9.15,9.15,0,0,1,6.9-3.14,32.73,32.73,0,0,1,7,.68,8.51,8.51,0,0,1,.21,1.94q.12,1.92.13,2.39t-.71.46a1,1,0,0,1-.42-.11,4.09,4.09,0,0,0-.45-1.09,7.6,7.6,0,0,0-1-1.26,4.52,4.52,0,0,0-1.86-1.14,8,8,0,0,0-2.83-.41,5.16,5.16,0,0,0-4.49,2.49,10.09,10.09,0,0,0-1.52,5.79,10.75,10.75,0,0,0,1.94,6.31,5.94,5.94,0,0,0,5.2,2.51,5.44,5.44,0,0,0,4.16-1.74,4.07,4.07,0,0,0,.68-1.13q.3-.7.46-1.18t.21-.48Q201.52,137,201.65,137.27Z"/><path class="cls-1" d="M209.63,129.4a3.65,3.65,0,0,1,2.78.92,4.75,4.75,0,0,1,1,3.3l.1,5.86a1.36,1.36,0,0,0,.28.9.89.89,0,0,0,.72.3,1.85,1.85,0,0,0,1-.4c.12,0,.18.15.18.32a1.76,1.76,0,0,1-.16.9,7.35,7.35,0,0,1-1.18.76,3.1,3.1,0,0,1-1.42.41,2.17,2.17,0,0,1-1.35-.48,2.44,2.44,0,0,1-.88-1.08l-.22.2q-.19.17-.53.41a8.69,8.69,0,0,1-.76.49,4.71,4.71,0,0,1-1,.42,4.31,4.31,0,0,1-1.17.18,3.55,3.55,0,0,1-2.44-.77,2.82,2.82,0,0,1-1-2.23,2.75,2.75,0,0,1,.32-1.34,3.56,3.56,0,0,1,.8-1,6.12,6.12,0,0,1,1.26-.81,12.24,12.24,0,0,1,1.37-.6l1.48-.49,1.26-.41a.47.47,0,0,0,.26-.48l0-1.63a2.55,2.55,0,0,0-.5-1.63,1.55,1.55,0,0,0-1.29-.57,1.8,1.8,0,0,0-1.39.57,2.22,2.22,0,0,0-.48,1.57,1,1,0,0,1-.43.88,1.85,1.85,0,0,1-1,.3,1.68,1.68,0,0,1-1.56-.69q0-1.43,1.9-2.71A7.45,7.45,0,0,1,209.63,129.4Zm-1.14,11.44a2.3,2.3,0,0,0,1.38-.44,1.18,1.18,0,0,0,.56-1l-.05-3q-.21.09-.87.31t-1,.37a8.14,8.14,0,0,0-.83.43,1.79,1.79,0,0,0-.69.67,1.64,1.64,0,0,0-.21.84,1.83,1.83,0,0,0,.5,1.39A1.71,1.71,0,0,0,208.49,140.84Z"/><path class="cls-1" d="M225.47,121.6a5.84,5.84,0,0,1,2.07.28,2.08,2.08,0,0,1,1.1.74,3.33,3.33,0,0,1-.13,1.65,1.07,1.07,0,0,1-1.07.75,1.16,1.16,0,0,1-.92-.47q-.41-.48-.86-1a1.37,1.37,0,0,0-1-.47,1.58,1.58,0,0,0-1.32.8,5,5,0,0,0-.72,1.89,12.18,12.18,0,0,0-.18,2.41l0,1.37s0,0,.06.09a.17.17,0,0,0,.12.06l3.27-.06a.24.24,0,0,1,.15,0,.32.32,0,0,1,0,.18,3.07,3.07,0,0,1-.33,1.37l-3.09.05a.16.16,0,0,0-.18.18l.12,6.63a11.35,11.35,0,0,0,.29,2.67q.06.21.79.42a4.22,4.22,0,0,0,1,.21c.06,0,.1.14.11.43a1.71,1.71,0,0,1,0,.58q-.18,0-1.55-.09t-2.08-.05q-.71,0-2,.12l-1.54.15a.56.56,0,0,1-.12-.32,1.78,1.78,0,0,1,0-.46c0-.15.06-.22.11-.23a4,4,0,0,0,1-.24q.71-.24.77-.44a9.85,9.85,0,0,0,.22-2.44l-.12-6.84c0-.14-.06-.21-.18-.21l-1.78,0s-.06-.06-.06-.18a1.59,1.59,0,0,1,.4-.87,1.2,1.2,0,0,1,.94-.55h.48a.16.16,0,0,0,.18-.18v-.3a8.09,8.09,0,0,1,1.76-5.38A5.56,5.56,0,0,1,225.47,121.6Z"/><path class="cls-1" d="M233.9,129a5.51,5.51,0,0,1,2.51.51,4.72,4.72,0,0,1,1.75,1.37,6.91,6.91,0,0,1,1,1.74,5.15,5.15,0,0,1,.36,1.73q0,.65-.21.82a1.69,1.69,0,0,1-.9.18l-7.1.12q-.21,0-.21.18a5.78,5.78,0,0,0,.42,2.07,4.09,4.09,0,0,0,1.35,1.73,3.5,3.5,0,0,0,2.26.7,8.07,8.07,0,0,0,.86-.06,4.44,4.44,0,0,0,.77-.16l.62-.2a2.55,2.55,0,0,0,.54-.28l.4-.26.59-.41a.49.49,0,0,1,.15.18.57.57,0,0,1,.09.3.91.91,0,0,1-.17.57,4.84,4.84,0,0,1-1.73,1.64,5.51,5.51,0,0,1-2.93.85,6,6,0,0,1-4.49-1.84,6.41,6.41,0,0,1-2-4.62,6.88,6.88,0,0,1,1.65-4.91A5.76,5.76,0,0,1,233.9,129Zm-.18,1.37a2.1,2.1,0,0,0-1.27.44,2.8,2.8,0,0,0-.84,1,5.68,5.68,0,0,0-.41,1.12,3.61,3.61,0,0,0-.12.88c0,.14.06.21.18.21l4.81-.08c.18,0,.26-.15.26-.45a3.84,3.84,0,0,0-.74-2.1A2.13,2.13,0,0,0,233.72,130.35Zm2.92-8.14a1.6,1.6,0,0,1,.78.15,1,1,0,0,1,.39.32.6.6,0,0,1,.09.28q0,.74-2.07,2.43a9,9,0,0,1-2.47,1.69.42.42,0,0,1-.3-.16.47.47,0,0,1-.15-.31,10.36,10.36,0,0,1,1-1.71,25,25,0,0,1,1.73-2.44A1.49,1.49,0,0,1,236.64,122.21Z"/><path class="cls-1" d="M258.3,122.07l6.51,15.47q.47,1.18.93,2.15a1.45,1.45,0,0,0,1,.7,4,4,0,0,0,1.13.25q.12,0,.13.53a1,1,0,0,1-.05.45l-3.75-.11-3.86.25a.85.85,0,0,1-.13-.55c0-.29,0-.43.11-.43a3.81,3.81,0,0,0,1-.2q.62-.19.74-.43a.86.86,0,0,0,.08-.39,6.82,6.82,0,0,0-.6-2L260.39,135a.33.33,0,0,0-.21-.11q-1,0-2.56,0t-3.39.15c-.12,0-.18,0-.18.12L253,137.89a8.5,8.5,0,0,0-.53,1.94.66.66,0,0,0,.34.59,3,3,0,0,0,.94.31,5.11,5.11,0,0,0,.91.13c.06,0,.09.16.1.42a2,2,0,0,1,0,.57l-1.4-.06q-1.25-.07-2-.05t-1.83.11l-1.5.13a.63.63,0,0,1-.13-.44q0-.53,0-.54a4.3,4.3,0,0,0,1.14-.27,1.83,1.83,0,0,0,1-.6,14.12,14.12,0,0,0,1.09-2.34l5.29-13.47a6.47,6.47,0,0,1,1.06-2.16.76.76,0,0,1,.5-.22A.49.49,0,0,1,258.3,122.07Zm-3.37,11.12q1,.07,2.14.05t2.44-.13l.06-.12-2.36-5.91-2.33,6C254.86,133.15,254.88,133.19,254.92,133.19Z"/><path class="cls-1" d="M279.49,128.18q3.83-.07,3.94,6l0,2.82a12.43,12.43,0,0,0,.25,2.67q.06.21.83.42a4.55,4.55,0,0,0,1,.2c.06,0,.1.14.11.43a1.7,1.7,0,0,1,0,.58q-.18,0-1.56-.09t-2.07-.05q-.71,0-2,.12l-1.53.15a.88.88,0,0,1-.13-.56q0-.45.11-.45a3.55,3.55,0,0,0,1-.24c.44-.16.68-.3.72-.44a8.49,8.49,0,0,0,.2-2.17l0-2.82a6.46,6.46,0,0,0-.73-3.44,2.39,2.39,0,0,0-2.14-.94,2.75,2.75,0,0,0-1.65.55,1.43,1.43,0,0,0-.69,1.13l.09,5.11a12.49,12.49,0,0,0,.25,2.67c0,.14.31.28.8.42a4.26,4.26,0,0,0,1,.21c.08,0,.13.14.14.43a1.71,1.71,0,0,1,0,.58l-1.56-.09q-1.32-.07-2-.05t-2.06.13l-1.59.15A.88.88,0,0,1,270,141c0-.3,0-.45.11-.45a4.14,4.14,0,0,0,1.08-.24q.72-.24.78-.44a9.62,9.62,0,0,0,.17-2.17l-.08-4.85a2.83,2.83,0,0,0-.51-1.89,1.44,1.44,0,0,0-.68-.43,3.36,3.36,0,0,0-.72-.17c-.19,0-.28,0-.28-.08,0-.57,0-.87.13-.89a42.09,42.09,0,0,0,4.77-1l.07,0,.09,0H275c.08,0,.15.07.21.2a.9.9,0,0,1,.09.33,9.86,9.86,0,0,0-.1,1.07.24.24,0,0,0,0,.15.45.45,0,0,0,.15-.09,6.58,6.58,0,0,1,1.8-1.28A5.21,5.21,0,0,1,279.49,128.18Z"/><path class="cls-1" d="M294.12,127.86a5.11,5.11,0,0,1,2.18.38q.15,0,.14-.48l0-2.79a10.35,10.35,0,0,0-.21-2q-.16-.47-1.55-.45h-.24q-.18,0-.19-.47t.17-.48q.89-.1,1.73-.27t1.39-.32q.55-.16.95-.31l.61-.23.24-.08h.06a.32.32,0,0,1,.24.16.54.54,0,0,1,.12.31,11.42,11.42,0,0,0-.25,2.8l.23,13.08a10.9,10.9,0,0,0,.22,2.2.44.44,0,0,0,.3.32,1.81,1.81,0,0,0,.57.14l.57,0h.3s.06.16.07.36q0,.59-.17.6-.41,0-1.05.14l-1.25.22-1.16.23-1.23.27q-.18,0-.19-.5v-.51a.13.13,0,0,0,0-.12.05.05,0,0,0-.07,0,5,5,0,0,1-3.07,1.15,5.76,5.76,0,0,1-4.22-1.7,6,6,0,0,1-1.86-4.41,7,7,0,0,1,1.95-5.07A6.51,6.51,0,0,1,294.12,127.86Zm-.24,1.43a2.6,2.6,0,0,0-2.35,1.38,7,7,0,0,0-.74,3.61,7.17,7.17,0,0,0,1,3.92,2.92,2.92,0,0,0,2.61,1.37A2.47,2.47,0,0,0,296,139a1.64,1.64,0,0,0,.6-1.33l-.11-6.24a2.08,2.08,0,0,0-.12-.62,2.74,2.74,0,0,0-.37-.69,1.9,1.9,0,0,0-.81-.61A3.16,3.16,0,0,0,293.88,129.29Z"/><path class="cls-1" d="M309.44,127.66a3.65,3.65,0,0,1,2.78.92,4.75,4.75,0,0,1,1,3.3l.1,5.86a1.36,1.36,0,0,0,.28.9.89.89,0,0,0,.72.3,1.85,1.85,0,0,0,1-.4c.12,0,.18.15.18.32a1.78,1.78,0,0,1-.16.9,7.33,7.33,0,0,1-1.18.76,3.1,3.1,0,0,1-1.42.41,2.17,2.17,0,0,1-1.35-.48,2.43,2.43,0,0,1-.88-1.08l-.22.2c-.13.11-.3.25-.53.41a8.58,8.58,0,0,1-.76.49,4.7,4.7,0,0,1-1,.42,4.31,4.31,0,0,1-1.17.18,3.55,3.55,0,0,1-2.44-.77,2.83,2.83,0,0,1-1-2.23,2.74,2.74,0,0,1,.32-1.34,3.54,3.54,0,0,1,.8-1,6.08,6.08,0,0,1,1.26-.81,12.32,12.32,0,0,1,1.37-.6l1.48-.49,1.26-.41a.47.47,0,0,0,.26-.48l0-1.63a2.55,2.55,0,0,0-.5-1.63,1.55,1.55,0,0,0-1.29-.57,1.8,1.8,0,0,0-1.39.57,2.23,2.23,0,0,0-.48,1.57,1,1,0,0,1-.43.88,1.85,1.85,0,0,1-1,.3,1.68,1.68,0,0,1-1.56-.69q0-1.43,1.9-2.71A7.46,7.46,0,0,1,309.44,127.66Zm-1.14,11.44a2.3,2.3,0,0,0,1.37-.44,1.18,1.18,0,0,0,.56-1l-.05-3q-.21.09-.87.31t-1,.37a8.19,8.19,0,0,0-.83.43,1.81,1.81,0,0,0-.69.67,1.65,1.65,0,0,0-.21.84,1.83,1.83,0,0,0,.5,1.39A1.71,1.71,0,0,0,308.3,139.09Z"/><path class="cls-1" d="M326.65,127.35a3.21,3.21,0,0,1,1.94.55,3.48,3.48,0,0,1,1.22,1.48,7,7,0,0,1,2.14-1.52,6.68,6.68,0,0,1,2.78-.64,3.37,3.37,0,0,1,1.84.44,3.28,3.28,0,0,1,1.21,1.3,7,7,0,0,1,.66,1.83,11.32,11.32,0,0,1,.23,2.15l.05,3.12a12.5,12.5,0,0,0,.25,2.67q.06.21.81.42a4.37,4.37,0,0,0,1,.21c.06,0,.1.14.11.43a1.71,1.71,0,0,1,0,.58l-1.56-.09q-1.35-.07-2-.05t-2,.13l-1.59.15a1.12,1.12,0,0,1-.1-.56c0-.3,0-.45.08-.45a4,4,0,0,0,1.07-.24c.47-.16.73-.31.76-.44a9.2,9.2,0,0,0,.17-2.08l-.05-3q-.08-4.31-2.84-4.26a2.71,2.71,0,0,0-1.63.5,1.86,1.86,0,0,0-.76.94c0,.06,0,.14,0,.24a.58.58,0,0,0,0,.24,14.45,14.45,0,0,1,.12,1.84l.05,3.15a11.76,11.76,0,0,0,.25,2.55q.06.21.81.42a4.4,4.4,0,0,0,1,.21c.06,0,.1.14.11.43a1.68,1.68,0,0,1,0,.58l-1.56-.09q-1.35-.07-2-.05t-2,.13l-1.59.15a1.11,1.11,0,0,1-.1-.56q0-.45.08-.45a4,4,0,0,0,1.07-.24q.71-.24.76-.44a9.62,9.62,0,0,0,.17-2.17l0-2.85a6.29,6.29,0,0,0-.74-3.35,2.26,2.26,0,0,0-2-1,2.85,2.85,0,0,0-1.63.53,1.4,1.4,0,0,0-.72,1.14l.09,5.11a11,11,0,0,0,.28,2.67q.06.21.78.42a4.06,4.06,0,0,0,1,.21c.08,0,.13.14.14.43a1.71,1.71,0,0,1,0,.58l-1.56-.09q-1.32-.07-2-.05t-2.08.13l-1.57.15a.88.88,0,0,1-.13-.56q0-.45.11-.45a4.3,4.3,0,0,0,1.07-.24q.74-.24.79-.45a9.62,9.62,0,0,0,.17-2.17l-.08-4.85a2.83,2.83,0,0,0-.51-1.89,1.44,1.44,0,0,0-.68-.43,3.35,3.35,0,0,0-.73-.17c-.2,0-.3,0-.3-.08q0-.86.16-.89a41.12,41.12,0,0,0,4.74-1l.09,0,.15,0c.1,0,.18.07.24.2a.55.55,0,0,1,.06.33,10.14,10.14,0,0,0-.1,1.07q0,.12.06.15a.44.44,0,0,0,.15-.09,6.59,6.59,0,0,1,1.81-1.28A5.21,5.21,0,0,1,326.65,127.35Z"/><path class="cls-1" d="M347.77,135.9a11,11,0,0,0,.28,2.67q.06.21.81.42a4.4,4.4,0,0,0,1,.21c.08,0,.13.14.14.43a1.71,1.71,0,0,1,0,.58l-1.59-.09q-1.38-.07-2-.05t-2.09.13l-1.56.15a.88.88,0,0,1-.13-.56q0-.45.11-.45a4.3,4.3,0,0,0,1.07-.24q.74-.24.79-.45a9.62,9.62,0,0,0,.17-2.17l-.08-4.85a2.83,2.83,0,0,0-.51-1.89,1.66,1.66,0,0,0-.69-.43,3.12,3.12,0,0,0-.72-.17c-.2,0-.3,0-.3-.08q0-.86.16-.89a22.87,22.87,0,0,0,2.4-.4,23.3,23.3,0,0,0,2.34-.58l.24-.06c.1,0,.18.07.24.2a.54.54,0,0,1,.06.33,25.65,25.65,0,0,0-.19,2.56Zm-3.31-12.39a1.81,1.81,0,0,1-.56-1.3,1.76,1.76,0,0,1,.51-1.3,1.87,1.87,0,0,1,2.62,0,1.76,1.76,0,0,1,.56,1.28,1.81,1.81,0,0,1-.51,1.32,1.83,1.83,0,0,1-2.62,0Z"/><path class="cls-1" d="M360.26,126.77a3,3,0,0,1,2.45.94q0,2.53-1.38,2.55a1.77,1.77,0,0,1-1.17-.57,1.86,1.86,0,0,0-1.29-.57,1.59,1.59,0,0,0-1.42,1,4,4,0,0,0-.49,2l.06,3.72a12.5,12.5,0,0,0,.25,2.67c0,.14.31.28.8.42a4.21,4.21,0,0,0,1,.21q.09,0,.11.43a3.13,3.13,0,0,1,0,.58L357.6,140q-1.34-.07-2-.05t-2.06.13l-1.59.15a.88.88,0,0,1-.13-.56q0-.45.11-.45a4.15,4.15,0,0,0,1.08-.24q.72-.24.78-.44a9.62,9.62,0,0,0,.17-2.17l-.08-4.85a2.83,2.83,0,0,0-.51-1.89,1.44,1.44,0,0,0-.68-.43A3.36,3.36,0,0,0,352,129c-.19,0-.28,0-.28-.08q0-.86.13-.89a42.09,42.09,0,0,0,4.77-1l.24-.06c.08,0,.15.07.21.2a.72.72,0,0,1,.08.34l0,.42c0,.19,0,.39-.06.6a3.81,3.81,0,0,0,0,.4,5.45,5.45,0,0,1,1.43-1.47A3.26,3.26,0,0,1,360.26,126.77Z"/><path class="cls-1" d="M371.35,126.57a6.56,6.56,0,0,1,4.8,1.86,6.37,6.37,0,0,1,2.06,4.68,6.73,6.73,0,0,1-13.46.24,6.4,6.4,0,0,1,1.86-4.76A6.51,6.51,0,0,1,371.35,126.57ZM371,128a2.39,2.39,0,0,0-2.15,1.39,6.38,6.38,0,0,0-.72,3.24,8.65,8.65,0,0,0,1,4.17,3,3,0,0,0,2.72,1.74,2.42,2.42,0,0,0,2.16-1.41,6.31,6.31,0,0,0,.73-3.22,10.2,10.2,0,0,0-.44-2.86,5.25,5.25,0,0,0-1.29-2.19A2.76,2.76,0,0,0,371,128Z"/><path class="cls-1" d="M383.65,136.44a1.93,1.93,0,0,1,.6,1.39,2,2,0,0,1-.56,1.42,1.84,1.84,0,0,1-1.37.63,1.92,1.92,0,0,1-1.44-.58,2,2,0,0,1-.62-1.4,1.91,1.91,0,0,1,.57-1.41,1.94,1.94,0,0,1,1.42-.62A1.86,1.86,0,0,1,383.65,136.44Z"/></svg>