<svg id="Layer_1" data-name="Layer 1" xmlns="http://www.w3.org/2000/svg" viewBox="0 0 835.81 395.84"><defs><style>.cls-1{fill:#fff;stroke:#1928eb;stroke-miterlimit:10;stroke-width:1.3px;}</style></defs><title>title</title><path class="cls-1" d="M18.82,104.53q.77-.1,15.07-2.88,2,4.16,8.41,15.22t15.83,27Q67.5,159.72,73.23,170c0,.21.2.29.5.25a.41.41,0,0,0,.41-.52q9.44-34.45,14.79-56.56L92.2,94.48q4.71-.13,12.77-1.17,6-.78,18.34-3.14a4.54,4.54,0,0,1,.78,2.42q.34,2.64-.28,2.71l-.31,0a12.71,12.71,0,0,0-7.27,3.45q-2.11,2-.94,8.63,2.39,13.72,10.39,63.73A41.28,41.28,0,0,0,130,185.09q.8,1.32,4.67,2a21,21,0,0,0,5.42.49q.62-.08,1,2.71a7.54,7.54,0,0,1,0,2.36q-18.72,1.46-19.18,1.52-3.1.4-6.49,1t-7.47,1.35l-6.54,1.23a3.32,3.32,0,0,1-.92-2.25q-.36-2.79.26-2.87a18.53,18.53,0,0,0,4.83-1.64,9.79,9.79,0,0,0,4.05-2.8,8.75,8.75,0,0,0,.85-5.62l-1.11-8.68L101.73,127q-1.86-9.53-3.09-9.37c-.31,0-.53.38-.66,1l-20.33,76q-1.88,6.23-5.13,6.65a5.16,5.16,0,0,1-1.59-.11L25.51,122.26q3.87,38.73,6.4,69.44A17.26,17.26,0,0,0,33,196.45q1,1.61,6.62,2.46a33.79,33.79,0,0,0,7.48.61q.62-.08,1,2.71a7.58,7.58,0,0,1,0,2.36q-18.72,1.46-19.65,1.58-4.18.54-11,1.89T9,209.61a3.61,3.61,0,0,1-.94-2.4q-.34-2.63.28-2.71A31.28,31.28,0,0,0,15.89,202q5.07-2.22,5.53-4.81,1-3,.37-10.6-1.2-11.82-2.72-27.93t-2.58-27.47Q15.42,119.78,15.07,117a14.94,14.94,0,0,0-1-4.28q-.62-1.18-5.49-1.66a35.35,35.35,0,0,0-6.88-.22q-.62.08-1-2.55a3.31,3.31,0,0,1,.32-2.4l8.05-.48Q14.79,105.05,18.82,104.53Z"/><path class="cls-1" d="M173.72,118.35q9.61-1.23,15.06,3.19t7,16.66l3.92,30.53a7.13,7.13,0,0,0,2,4.55,4.69,4.69,0,0,0,3.93,1.15,9.74,9.74,0,0,0,5-2.69c.65.13,1,.66,1.15,1.59a9.3,9.3,0,0,1-.33,4.77,38.71,38.71,0,0,1-5.7,4.67,16.29,16.29,0,0,1-7.18,3,11.41,11.41,0,0,1-7.31-1.74,12.81,12.81,0,0,1-5.23-5.16c-.09.12-.44.5-1,1.16s-1.44,1.47-2.52,2.45a46,46,0,0,1-3.71,3,25,25,0,0,1-5,2.77,22.7,22.7,0,0,1-6,1.64q-7.75,1-13.18-2.64t-6.38-11.07a14.4,14.4,0,0,1,.89-7.2,18.65,18.65,0,0,1,3.58-5.89,32,32,0,0,1,6.14-5,64.28,64.28,0,0,1,6.82-3.95q2.89-1.39,7.44-3.4t6.33-2.86a2.46,2.46,0,0,0,1.08-2.66l-1.09-8.52q-.7-5.42-3.57-8.2a8.16,8.16,0,0,0-7.06-2.24,9.48,9.48,0,0,0-6.92,3.8q-2.27,3.21-1.59,8.47a5.07,5.07,0,0,1-1.74,4.87,9.7,9.7,0,0,1-5.08,2.15q-5.74.74-8.54-2.68-1-7.44,8.36-15.25A39.19,39.19,0,0,1,173.72,118.35Zm.67,60.41a12.12,12.12,0,0,0,6.93-3.1q2.74-2.56,2.39-5.35l-2-15.81q-1,.6-4.37,2.14t-5.11,2.55a42.85,42.85,0,0,0-4.06,2.73,9.43,9.43,0,0,0-3.21,3.88,8.62,8.62,0,0,0-.6,4.49q.64,5,3.42,7A9,9,0,0,0,174.39,178.76Z"/><path class="cls-1" d="M277.34,115.6q-2.86,2.26-8.95,8.24a110.34,110.34,0,0,0-10.93,12.43q5.11,4.23,12.92,11.1t12.95,11.26a74.84,74.84,0,0,0,7,5.56,19.73,19.73,0,0,0,6.36,2.33,19,19,0,0,0,5.35.57c.41-.05.73.8,1,2.55a9.16,9.16,0,0,1,.12,2.19q-17.15,1.42-18.23,1.55-2.94.38-5.95.92t-6.61,1.24l-5.76,1.13c-.47-.36-.79-1.26-1-2.71s-.07-2.2.34-2.25a11.17,11.17,0,0,0,3.47-1.16q1.92-1,1.83-1.73c0-.21-.09-.3-.19-.29L245.19,146.2l-1.8.7,1.23,9.61q1.45,10.06,3,13.79.45,1,4.47,1.71a22.72,22.72,0,0,0,5.57.47c.31,0,.59.69.83,2.18a8.91,8.91,0,0,1,.16,3.05q-1.11,0-8.29.44t-10.75.91q-3.72.48-10.71,1.85t-8.21,1.69q-.7-.54-1-2.87t.32-2.4a21.81,21.81,0,0,0,5.51-1.89q3.65-1.65,3.82-2.77a51.12,51.12,0,0,0-.37-11.45l-8.26-64.32a61.63,61.63,0,0,0-2.13-10.44q-1.09-2.38-8.38-1.44l-1.39.18q-.93.12-1.25-2.36t.61-2.6q4.74-1.08,9-2.41t7-2.48Q227,74.18,229,73.14T233.17,71l.31,0a1.68,1.68,0,0,1,1.35.69,4.31,4.31,0,0,1,1,1.53,50.32,50.32,0,0,0,0,14.81l6.65,51.76q3.6-1.41,4.43-2.3,2.88-3.36,6.27-7t4.91-5.28q1.52-1.61,3-3.46a13.79,13.79,0,0,0,1.92-2.85,3.71,3.71,0,0,0,.3-1.93q-.22-1.7-3.76-1.64a15.42,15.42,0,0,1-3.56-.09,7,7,0,0,1-.81-2.65q-.21-1.63.39-1.86l15-1.93q4.18-.54,16.35-2.73a2.44,2.44,0,0,1,1,1.61,7,7,0,0,1,.22,2.33q-.09,1.12-.56,1.17A20.5,20.5,0,0,0,277.34,115.6Z"/><path class="cls-1" d="M337.15,144.63q1.21,9.45,3,13.79.45,1,4.47,1.71a23,23,0,0,0,5.42.49c.41-.05.74.67,1,2.16a8.89,8.89,0,0,1,.16,3.05q-1.11,0-8.37.44t-10.68.9q-3.88.5-10.87,1.87t-8.06,1.67q-.7-.54-1-2.87t.32-2.4a22.65,22.65,0,0,0,5.43-1.88q3.73-1.66,3.9-2.78a51.12,51.12,0,0,0-.37-11.45L318.28,124q-.93-7.28-3.75-9.6a8.69,8.69,0,0,0-3.86-1.87,16.45,16.45,0,0,0-3.84-.45c-1,0-1.58-.06-1.61-.27q-.58-4.49.33-4.77a120,120,0,0,0,12.32-3.47,122.74,122.74,0,0,0,11.88-4.36,9.11,9.11,0,0,0,1.2-.47c.52-.07,1,.24,1.38.93a2.88,2.88,0,0,1,.53,1.66,133.9,133.9,0,0,0,.47,13.49ZM312.7,81.84A9.51,9.51,0,0,1,309,75.38a9.6,9.6,0,0,1,8.38-10.77,9.36,9.36,0,0,1,7.18,1.91,9.26,9.26,0,0,1,3.66,6.38,9.52,9.52,0,0,1-1.91,7.18,9.62,9.62,0,0,1-13.64,1.75Z"/><path class="cls-1" d="M400.76,89.2q20-2.57,24.07,29.2l1.89,14.72q1.21,9.45,2.88,13.81.45,1,4.55,1.7a24,24,0,0,0,5.5.48c.31,0,.59.69.83,2.18a8.81,8.81,0,0,1,.16,3.05q-.95,0-8.21.42t-10.83.92q-3.72.48-10.25,1.79t-7.9,1.65q-.7-.54-1-2.87t.32-2.4a18.58,18.58,0,0,0,5-1.83q3.34-1.61,3.51-2.73a44.86,44.86,0,0,0-.21-11.47l-1.89-14.72q-1.65-12.86-5.8-17.53t-11.74-3.69a14.46,14.46,0,0,0-8.33,3.83q-3.37,3.19-3,6.29l3.42,26.66q1.21,9.45,2.88,13.81.45,1,4.39,1.72a22.49,22.49,0,0,0,5.19.52c.41-.05.74.67,1,2.16a8.91,8.91,0,0,1,.16,3.05q-1.26,0-8.22.42t-10.52.88q-3.72.48-10.71,1.85t-8.21,1.69q-.7-.54-1-2.87t.32-2.4a21.79,21.79,0,0,0,5.51-1.89q3.65-1.65,3.82-2.77a51.12,51.12,0,0,0-.37-11.45l-3.24-25.26q-.93-7.28-3.75-9.6a7.54,7.54,0,0,0-3.79-1.88,17.88,17.88,0,0,0-3.84-.45c-1,0-1.51-.07-1.53-.28q-.58-4.49.18-4.75,7-1.53,24.36-7.85a1,1,0,0,1,.36-.28,1.52,1.52,0,0,1,.46-.14l.39,0c.41-.05.82.26,1.22.95a4.74,4.74,0,0,1,.68,1.65,52.93,52.93,0,0,0,.1,5.66c.05.41.14.67.25.75a2.33,2.33,0,0,0,.71-.56,34.63,34.63,0,0,1,8.7-7.73A27.35,27.35,0,0,1,400.76,89.2Z"/><path class="cls-1" d="M470.23,80.59a49.48,49.48,0,0,1,13.12.36,48.17,48.17,0,0,0,12.66.42l8.83-1.13q.31,0,1.34,1.88a9.6,9.6,0,0,1,1.17,3q.28,2.17-.65,2.29L496.63,88.7q-.62.08-.56.54,0,.16,1.91,3.85a22.11,22.11,0,0,1,2.35,7.26q1.17,9.15-5.55,17.49t-18.19,9.82a64.61,64.61,0,0,1-9.69.61,8.41,8.41,0,0,0-3,3.31,6.65,6.65,0,0,0-1.06,4,3.21,3.21,0,0,0,1.81,2.45,10.5,10.5,0,0,0,4.77,1q3.16.07,5.35-.06t6.24-.49l2.32-.3q15.56-1.52,23.25,1.35T515.21,150q1.65,11.6-8.57,21.58a42.69,42.69,0,0,1-25.1,11.89,40.62,40.62,0,0,1-20.32-1.8q-9-3.41-10.08-11.62-.58-4.5,3.3-9.25a25.82,25.82,0,0,1,8.78-7.11,17.82,17.82,0,0,1-8-3.77,11.36,11.36,0,0,1-4.45-7.7q-.86-6.66,9.7-15.27-4.75-1.43-9.39-6.91a23,23,0,0,1-5.5-12.13q-1.41-11,5.83-18.39T470.23,80.59Zm-8.89,24A24.73,24.73,0,0,0,466.08,117q3.76,4.8,9.35,4.08,5.73-.74,7.88-5.5a20.7,20.7,0,0,0,1.31-11.27q-1.05-8.21-4.81-12.93a10,10,0,0,0-9.65-4,8.81,8.81,0,0,0-7.6,5.86A22.68,22.68,0,0,0,461.33,104.58ZM502,158.9q-.7-5.43-8.75-6.2t-21.23.91a2.55,2.55,0,0,0-.75.25,6.84,6.84,0,0,0-.71.56q-1.92,1-2.93,1.71a13.42,13.42,0,0,0-2.26,2,7.59,7.59,0,0,0-1.74,3,9.07,9.07,0,0,0-.22,3.81q.72,5.58,7.08,8.54a24.34,24.34,0,0,0,13.65,2q8.68-1.11,13.66-5.85T502,158.9Z"/><path class="cls-1" d="M642.89,99.06q.26,2-.78,12.31t-2.2,11.07q-12.65,8.24-35.12,11.13Q584.33,136.2,568,123a50.35,50.35,0,0,1-19-33.95q-2.83-22,9.88-39.63A48.11,48.11,0,0,1,593.1,29.05a171.93,171.93,0,0,1,37.11-.51q.49.1,2.23,10T634.51,51q.3,2.32-3.42,2.8a5,5,0,0,1-2.25-.34,21.82,21.82,0,0,0-3-5.45,40,40,0,0,0-5.74-6,23.79,23.79,0,0,0-10.39-4.89,41.88,41.88,0,0,0-15-.51q-15.19,2-22,15.59T568.09,83.3q2.51,19.53,13.78,31.86t28.63,10.11q13.79-1.77,20.74-11.49a21.37,21.37,0,0,0,2.9-6.28q1.16-3.85,1.69-6.44t.84-2.63Q642.09,97.75,642.89,99.06Z"/><path class="cls-1" d="M678.48,53.53q9.61-1.23,15.06,3.19t7,16.66l3.92,30.53a7.13,7.13,0,0,0,2,4.55,4.69,4.69,0,0,0,3.93,1.15,9.74,9.74,0,0,0,5-2.69c.65.13,1,.66,1.15,1.59a9.27,9.27,0,0,1-.33,4.77,38.66,38.66,0,0,1-5.7,4.67,16.28,16.28,0,0,1-7.18,3,11.4,11.4,0,0,1-7.31-1.74,12.82,12.82,0,0,1-5.23-5.16q-.14.18-1,1.16t-2.52,2.45a46.2,46.2,0,0,1-3.71,3,24.94,24.94,0,0,1-5,2.77,22.69,22.69,0,0,1-6,1.64q-7.75,1-13.18-2.64T653,111.31a14.4,14.4,0,0,1,.89-7.2,18.65,18.65,0,0,1,3.58-5.89,32,32,0,0,1,6.14-5,64.35,64.35,0,0,1,6.82-3.95q2.89-1.39,7.44-3.4T684.16,83a2.46,2.46,0,0,0,1.08-2.66l-1.09-8.52q-.7-5.42-3.57-8.2a8.16,8.16,0,0,0-7.06-2.24,9.48,9.48,0,0,0-6.92,3.8q-2.27,3.21-1.59,8.47a5.06,5.06,0,0,1-1.74,4.87,9.7,9.7,0,0,1-5.08,2.15q-5.74.74-8.54-2.68-1-7.44,8.36-15.25A39.19,39.19,0,0,1,678.48,53.53Zm.67,60.41a12.11,12.11,0,0,0,6.93-3.09q2.74-2.56,2.38-5.35l-2-15.81q-1,.6-4.37,2.14t-5.11,2.55a42.77,42.77,0,0,0-4.06,2.73,9.42,9.42,0,0,0-3.2,3.88,8.61,8.61,0,0,0-.61,4.49q.64,5,3.42,7A9,9,0,0,0,679.14,113.94Z"/><path class="cls-1" d="M755.11,3.83a30.77,30.77,0,0,1,11,.24q4.47,1.08,6.16,3.23a17.52,17.52,0,0,1,.25,8.71,5.6,5.6,0,0,1-5.17,4.52,6.1,6.1,0,0,1-5.06-2q-2.42-2.29-5.07-4.55a7.18,7.18,0,0,0-5.75-1.86q-4.18.54-6.46,4.93a26.27,26.27,0,0,0-2.7,10.27,63.75,63.75,0,0,0,.45,12.7l.92,7.13c0,.1.13.25.37.43a.89.89,0,0,0,.66.23l17-2.19a1.25,1.25,0,0,1,.79.06,1.65,1.65,0,0,1,.27.91,16.08,16.08,0,0,1-.94,7.37l-16.12,2.07a.83.83,0,0,0-.81,1l4.44,34.56q1.17,9.15,3,13.79.45,1,4.4,1.72a22.08,22.08,0,0,0,5.34.5c.31,0,.59.69.83,2.18a8.91,8.91,0,0,1,.16,3.05q-1,0-8.14.42t-10.91.93q-3.72.48-10.48,1.82t-8,1.65a3,3,0,0,1-.84-1.63,9.3,9.3,0,0,1-.31-2.4c0-.79.16-1.2.47-1.24a20.94,20.94,0,0,0,5.27-1.86q3.57-1.64,3.74-2.76A51.78,51.78,0,0,0,733.73,95l-4.58-35.65c-.09-.72-.45-1-1.07-1l-9.3,1.19c-.21,0-.35-.27-.43-.89q-.22-1.7,1.59-4.77a6.28,6.28,0,0,1,4.6-3.43l2.48-.32a.83.83,0,0,0,.81-1l-.2-1.55q-2.09-16.27,6.1-29.14T755.11,3.83Z"/><path class="cls-1" d="M801.84,37.69a29,29,0,0,1,13.38,1.2A24.76,24.76,0,0,1,825.15,45a36.37,36.37,0,0,1,6.13,8.51,26.93,26.93,0,0,1,2.87,8.85q.44,3.41-.62,4.41t-4.62,1.46l-37,4.76q-1.09.14-1,1.07a30.33,30.33,0,0,0,3.41,10.59,21.48,21.48,0,0,0,8.07,8.26,18.39,18.39,0,0,0,12.2,2.37,42.54,42.54,0,0,0,4.46-.81A23.26,23.26,0,0,0,823,93.18q1.79-.78,3.13-1.43A13.37,13.37,0,0,0,828.8,90l1.92-1.59q.57-.46,2.83-2.49a2.57,2.57,0,0,1,.89.83,3,3,0,0,1,.66,1.49,4.8,4.8,0,0,1-.55,3.06q-1.79,4.48-8.07,9.54a29,29,0,0,1-14.8,6.15,31.64,31.64,0,0,1-24.53-7,33.7,33.7,0,0,1-12.88-23q-2-15.65,5.8-26.58T801.84,37.69ZM801.67,45a11,11,0,0,0-6.39,3,14.73,14.73,0,0,0-3.82,5.85,29.85,29.85,0,0,0-1.5,6.1,19.07,19.07,0,0,0-.11,4.66q.14,1.09,1.07,1L816,62.33q1.4-.18,1.1-2.5a20.26,20.26,0,0,0-5.06-10.54Q807.71,44.18,801.67,45ZM812.22.75a8.43,8.43,0,0,1,4.14.34,5,5,0,0,1,2.23,1.45,3.25,3.25,0,0,1,.65,1.41q.5,3.88-9.4,13.89T797.93,28.11a2.17,2.17,0,0,1-1.66-.65,2.5,2.5,0,0,1-1-1.53q-.1-.77,4.21-9.52a130.83,130.83,0,0,1,7.61-13.74Q808.19,1.27,812.22.75Z"/><path class="cls-1" d="M89.69,238.1l25.21,84.53q1.77,6.44,3.63,11.79.72,2.42,4.64,4.19a20.8,20.8,0,0,0,5.79,1.94q.62.06.37,2.86a5.25,5.25,0,0,1-.53,2.31q-18.58-2.64-19.52-2.73-1.09-.1-20.31-.92-.57-.68-.36-2.94c.14-1.5.41-2.24.83-2.2a20.12,20.12,0,0,0,5.22-.46q3.35-.63,4.09-1.82a4.47,4.47,0,0,0,.65-2q.29-3.11-2-11l-4.12-15a1.72,1.72,0,0,0-1-.72q-5-.77-13.35-1.54t-17.78-1.16c-.62-.06-1,.12-1,.54L52.9,317.74q-3.7,7.82-3.88,9.84a3.49,3.49,0,0,0,1.43,3.27A15.66,15.66,0,0,0,55.19,333a27,27,0,0,0,4.67,1.21q.45.2.27,2.22a10.24,10.24,0,0,1-.58,2.93q-.78-.07-7.27-1.14T41.74,336.8q-4-.37-9.61-.49l-7.91-.18a3.32,3.32,0,0,1-.41-2.39c.17-1.87.36-2.79.57-2.77a22.59,22.59,0,0,0,6.11-.77q4.24-.94,5.49-2.56A74.29,74.29,0,0,0,43,316l35.35-67.37q4.43-9,6.78-10.68a4,4,0,0,1,2.74-.85A2.57,2.57,0,0,1,89.69,238.1Zm-24,56.17q5.4,1,11.16,1.49,5.45.5,12.8.7l.37-.59-9-32.2-15.61,30C65.43,294,65.51,294.26,65.72,294.27Z"/><path class="cls-1" d="M195.35,282q20.07,1.84,17.15,33.74l-1.35,14.78q-.87,9.49-.19,14.1.21,1.12,4.07,2.65a23.93,23.93,0,0,0,5.26,1.66c.31,0,.42.8.34,2.31a8.84,8.84,0,0,1-.51,3q-.92-.24-8.11-1.37t-10.77-1.46q-3.73-.34-10.39-.48t-8.07-.11q-.57-.68-.35-3t.83-2.28a18.6,18.6,0,0,0,5.32-.69q3.61-.85,4-1.91a44.82,44.82,0,0,0,2.29-11.25l1.35-14.78q1.18-12.91-1.85-18.37t-10.65-6.15a14.46,14.46,0,0,0-9,1.93q-4,2.38-4.27,5.49L168,326.55q-.87,9.49-.19,14.1.21,1.12,3.92,2.63a22.49,22.49,0,0,0,5,1.63q.62.06.49,2.32a8.89,8.89,0,0,1-.51,3q-1.23-.27-8.11-1.37t-10.46-1.43q-3.73-.34-10.86-.52t-8.38-.14q-.57-.68-.35-3t.84-2.28a21.8,21.8,0,0,0,5.79-.65q3.92-.82,4.33-1.88a51,51,0,0,0,2.13-11.26l2.32-25.36q.67-7.31-1.58-10.19a7.52,7.52,0,0,0-3.29-2.65,17.81,17.81,0,0,0-3.65-1.28c-1-.19-1.45-.39-1.44-.6q.41-4.51,1.21-4.6,7.21,0,25.48-2.37a1,1,0,0,1,.41-.2,1.51,1.51,0,0,1,.47,0l.39,0c.41,0,.75.44,1,1.19a4.78,4.78,0,0,1,.31,1.75,53.45,53.45,0,0,0-1.14,5.54,1.22,1.22,0,0,0,.08.79,2.32,2.32,0,0,0,.82-.4,34.64,34.64,0,0,1,10.17-5.66A27.35,27.35,0,0,1,195.35,282Z"/><path class="cls-1" d="M270.37,288.54a26.85,26.85,0,0,1,11.16,3.22q.78.07,1-2.42l1.34-14.63a54.48,54.48,0,0,0,0-10.67q-.55-2.56-7.86-3.23l-1.24-.11q-.93-.09-.71-2.58t1.16-2.4q4.71,0,9.22-.41t7.46-.89q3-.51,5.12-1.1l3.3-.87a8,8,0,0,1,1.28-.28l.31,0c.41,0,.8.36,1.17,1a2.84,2.84,0,0,1,.47,1.69,59.9,59.9,0,0,0-2.89,14.48l-6.27,68.46a57.29,57.29,0,0,0-.12,11.6,2.3,2.3,0,0,0,1.4,1.85,9.56,9.56,0,0,0,2.89,1c1,.2,2,.37,2.93.5l1.55.22a3.27,3.27,0,0,1,.14,1.9q-.29,3.11-1.22,3-2.2,0-5.58.12t-6.63.41q-3.24.26-6.17.53t-6.58.73q-.93-.08-.69-2.73l.24-2.64a.7.7,0,0,0-.18-.64c-.15-.12-.28-.13-.39,0A26.08,26.08,0,0,1,259.31,358a30.28,30.28,0,0,1-21.09-11.27q-8.49-10.11-7.21-24.12a36.64,36.64,0,0,1,13.07-25.4Q255.74,287.2,270.37,288.54Zm-2.08,7.34a13.68,13.68,0,0,0-13.09,5.86q-4.84,6.62-5.92,18.44-1.21,13.23,2.94,21.06a15.34,15.34,0,0,0,12.86,8.63,13,13,0,0,0,8.81-1.94,8.65,8.65,0,0,0,3.9-6.62l3-32.68a10.86,10.86,0,0,0-.24-3.32,14.61,14.61,0,0,0-1.53-3.83,10,10,0,0,0-3.9-3.65A16.59,16.59,0,0,0,268.29,295.88Z"/><path class="cls-1" d="M348.92,296q9.64.88,14,6.38t3.23,17.79l-2.81,30.65a7.12,7.12,0,0,0,1,4.87,4.69,4.69,0,0,0,3.58,2,9.74,9.74,0,0,0,5.47-1.54c.6.27.86.86.78,1.8a9.28,9.28,0,0,1-1.36,4.58,38.74,38.74,0,0,1-6.58,3.32,16.28,16.28,0,0,1-7.65,1.34,11.4,11.4,0,0,1-6.76-3.29,12.81,12.81,0,0,1-4-6.17q-.17.14-1.26.9t-3,1.84a46.14,46.14,0,0,1-4.27,2.12,24.94,24.94,0,0,1-5.48,1.62,22.71,22.71,0,0,1-6.22.29q-7.78-.71-12.29-5.44t-3.83-12.2a14.4,14.4,0,0,1,2.43-6.84,18.65,18.65,0,0,1,4.77-5,32,32,0,0,1,7.07-3.51,64.34,64.34,0,0,1,7.51-2.37q3.13-.73,8-1.7t6.8-1.42a2.46,2.46,0,0,0,1.63-2.36l.78-8.56q.5-5.44-1.71-8.79a8.16,8.16,0,0,0-6.41-3.73,9.48,9.48,0,0,0-7.58,2.21q-2.91,2.64-3.39,7.93a5.07,5.07,0,0,1-2.75,4.38,9.71,9.71,0,0,1-5.43,1q-5.76-.53-7.75-4.48.68-7.47,11.47-13.07A39.19,39.19,0,0,1,348.92,296Zm-12.47,59.11a12.11,12.11,0,0,0,7.44-1.52q3.23-1.9,3.49-4.7l1.45-15.87q-1.13.37-4.73,1.14t-5.54,1.38a42.57,42.57,0,0,0-4.56,1.78,9.41,9.41,0,0,0-4,3.09,8.6,8.6,0,0,0-1.57,4.25q-.46,5,1.82,7.54A9,9,0,0,0,336.45,355.15Z"/><path class="cls-1" d="M437.45,304.15a16.88,16.88,0,0,1,9.84,4,18.26,18.26,0,0,1,5.5,8.43,36.86,36.86,0,0,1,12.07-6.74A35.08,35.08,0,0,1,479.78,308a17.73,17.73,0,0,1,9.34,3.37,17.24,17.24,0,0,1,5.59,7.49,36.73,36.73,0,0,1,2.38,9.95,59.58,59.58,0,0,1,0,11.37l-1.5,16.34q-.87,9.49-.19,14.1.21,1.12,4,2.64a23,23,0,0,0,5.18,1.65q.47,0,.34,2.31a8.87,8.87,0,0,1-.51,3q-1.08-.26-8.11-1.37t-10.62-1.44q-3.73-.34-10.7-.51t-8.38-.14a5.84,5.84,0,0,1-.2-3q.21-2.33.68-2.29a20.94,20.94,0,0,0,5.71-.65Q476.61,370,477,369a48.59,48.59,0,0,0,2.09-10.79l1.45-15.87q2.07-22.56-12.4-23.89a14.23,14.23,0,0,0-8.79,1.71q-3.65,2.18-4.49,4.45,0,.47-.19,1.24a3,3,0,0,0,0,1.25,76.29,76.29,0,0,1-.42,9.69l-1.51,16.49a61.43,61.43,0,0,0-.14,13.48q.21,1.12,4,2.64a23,23,0,0,0,5.18,1.65c.31,0,.42.8.34,2.31a8.84,8.84,0,0,1-.51,3q-1.08-.26-8.11-1.37t-10.62-1.44q-3.73-.34-10.7-.51t-8.38-.14a5.83,5.83,0,0,1-.2-3q.21-2.33.68-2.29a21,21,0,0,0,5.71-.65q3.84-.82,4.25-1.89a51,51,0,0,0,2.13-11.26l1.37-14.94q1.11-12.14-2-17.91t-10.08-6.42a15,15,0,0,0-8.8,1.86q-4.14,2.29-4.43,5.56L410,348.71q-.87,9.49,0,14.12.21,1.12,3.84,2.63a21.19,21.19,0,0,0,5,1.64c.41,0,.58.81.49,2.32a8.89,8.89,0,0,1-.51,3q-1.23-.27-8.11-1.37t-10.46-1.43q-3.89-.36-10.93-.53T381,369q-.57-.68-.35-3t.84-2.28a22.64,22.64,0,0,0,5.71-.65q4-.81,4.41-1.87a51,51,0,0,0,2.13-11.26l2.32-25.36q.67-7.31-1.58-10.19a7.52,7.52,0,0,0-3.29-2.65,17.67,17.67,0,0,0-3.73-1.28c-1-.2-1.53-.4-1.51-.61q.41-4.51,1.36-4.58,7.21,0,25.32-2.39a1,1,0,0,1,.49-.19,3.28,3.28,0,0,1,.79,0c.52,0,.9.45,1.15,1.2a2.88,2.88,0,0,1,.15,1.74,53.34,53.34,0,0,0-1.13,5.54c0,.42,0,.69.24.81a2.31,2.31,0,0,0,.82-.4,34.62,34.62,0,0,1,10.17-5.66A27.35,27.35,0,0,1,437.45,304.15Z"/><path class="cls-1" d="M541.32,360.73q-.87,9.49,0,14.12.21,1.12,4,2.64a23,23,0,0,0,5.18,1.65c.41,0,.58.81.49,2.32a8.89,8.89,0,0,1-.51,3q-1.08-.26-8.27-1.38t-10.62-1.44q-3.89-.36-11-.54t-8.23-.13q-.57-.68-.35-3t.84-2.28a22.64,22.64,0,0,0,5.71-.65q4-.81,4.41-1.87a51.11,51.11,0,0,0,2.13-11.26l2.32-25.36q.67-7.31-1.58-10.19a8.68,8.68,0,0,0-3.37-2.66,16.47,16.47,0,0,0-3.65-1.28c-1-.2-1.53-.4-1.51-.61q.41-4.51,1.36-4.58a119.94,119.94,0,0,0,12.78-.71A123,123,0,0,0,544,314.85a9.44,9.44,0,0,0,1.27-.2c.52,0,.9.45,1.14,1.2a2.89,2.89,0,0,1,.15,1.74,134.06,134.06,0,0,0-2.47,13.27Zm-10.22-66.6a9.52,9.52,0,0,1-2.17-7.1,9.6,9.6,0,0,1,10.52-8.69,9.36,9.36,0,0,1,6.59,3.43,9.26,9.26,0,0,1,2.18,7,9.52,9.52,0,0,1-3.43,6.59,9.62,9.62,0,0,1-13.69-1.25Z"/><path class="cls-1" d="M610.17,320q8.55.78,12.29,6.3-1.21,13.23-8.68,12.54-2.8-.26-5.78-3.67t-6.4-3.72q-4.83-.44-8,4.21a20.78,20.78,0,0,0-3.66,9.94L588.16,365q-.87,9.49-.19,14.1.21,1.12,3.92,2.63A22.11,22.11,0,0,0,597,383.4c.31,0,.42.8.34,2.31a16.37,16.37,0,0,1-.36,3q-1.23-.27-8.19-1.38t-10.54-1.44q-3.74-.34-10.86-.52t-8.38-.14q-.57-.68-.35-3t.84-2.28a21.8,21.8,0,0,0,5.79-.65q3.92-.82,4.33-1.88a51.1,51.1,0,0,0,2.13-11.26l2.32-25.36q.67-7.31-1.58-10.19a7.54,7.54,0,0,0-3.29-2.65,17.86,17.86,0,0,0-3.65-1.28c-1-.19-1.45-.39-1.44-.6q.41-4.51,1.21-4.6,7.21,0,25.48-2.37a9.3,9.3,0,0,1,1.27-.2c.41,0,.75.44,1,1.19a3.77,3.77,0,0,1,.23,1.83q-.15.69-.43,2.16c-.2,1-.42,2-.67,3.08a20.16,20.16,0,0,0-.43,2.08,28.64,28.64,0,0,1,8.32-6.85A17.11,17.11,0,0,1,610.17,320Z"/><path class="cls-1" d="M666.65,325.14a34.45,34.45,0,0,1,24,12.48,33.49,33.49,0,0,1,8.09,25.61,35.39,35.39,0,0,1-70.49-6.45A33.66,33.66,0,0,1,640.75,333,34.23,34.23,0,0,1,666.65,325.14ZM664,332.27q-7.32-.67-12,6a33.62,33.62,0,0,0-5.59,16.51q-1.15,12.6,3,22.4t13.23,10.63q7.31.67,12.09-6.11a33.23,33.23,0,0,0,5.66-16.43,53.64,53.64,0,0,0-.65-15.2,27.56,27.56,0,0,0-5.47-12.19A14.49,14.49,0,0,0,664,332.27Z"/></svg>