<svg id="Layer_1" data-name="Layer 1" xmlns="http://www.w3.org/2000/svg" viewBox="0 0 734.43 153.1"><defs><style>.cls-1{fill:#1928eb;}</style></defs><title>title</title><path class="cls-1" d="M1.64,4.5A4.68,4.68,0,0,1,4,1a6.5,6.5,0,0,1,4.39-1A10.47,10.47,0,0,1,9.82.34q.61.17,1.67.6L13,1.52A26.51,26.51,0,0,1,12.7,6.1a.32.32,0,0,1-.39.22q-.8-.11-.82-.38a5.22,5.22,0,0,0-.91-2.82A3.37,3.37,0,0,0,8.11,1.46,2.74,2.74,0,0,0,5.93,2a2.91,2.91,0,0,0-1,2,3.36,3.36,0,0,0,0,.85,2.11,2.11,0,0,0,.31.84l.42.7A3.5,3.5,0,0,0,6.29,7L7,7.67c.11.12.38.35.81.69a8.8,8.8,0,0,0,.77.6,10.46,10.46,0,0,0,.9.77q.74.6,1,.86c.2.18.48.47.84.88a4.3,4.3,0,0,1,.76,1.12,6.14,6.14,0,0,1,.36,1.26,5,5,0,0,1,0,1.58,4.83,4.83,0,0,1-2.42,3.63A6.88,6.88,0,0,1,5.44,20,27.74,27.74,0,0,1,.13,18.45,25.92,25.92,0,0,1,0,15.72a20.07,20.07,0,0,1,.06-2.14q.06-.23.5-.17.77.1.82.35A5.8,5.8,0,0,0,1.64,15a8.7,8.7,0,0,0,.63,1.46A3.92,3.92,0,0,0,3.5,17.81a4.18,4.18,0,0,0,1.9.72A3.33,3.33,0,0,0,7.81,18a3.2,3.2,0,0,0,1.25-2.35,2.6,2.6,0,0,0-.06-1,3.46,3.46,0,0,0-.34-.85A4.33,4.33,0,0,0,8,13q-.44-.45-.73-.7l-.88-.7L5.57,11a2,2,0,0,0-.29-.28l-1.19-1c-.27-.24-.61-.58-1-1a5.85,5.85,0,0,1-.9-1.22,5.61,5.61,0,0,1-.47-1.32A4.47,4.47,0,0,1,1.64,4.5Z"/><path class="cls-1" d="M23.44,8.89a6,6,0,0,1,3.23,1.42,6.23,6.23,0,0,1,2.18,5.63A7,7,0,0,1,21,22a6.91,6.91,0,0,1-2-.69c-.08,0-.14.12-.17.4l-.27,2a10.69,10.69,0,0,0-.12,2.68q0,.24.72.56a4.51,4.51,0,0,0,1,.36c.06,0,.07.15,0,.44a2.71,2.71,0,0,1-.09.54L18.48,28q-1.36-.27-2-.36t-2.09-.19l-1.59-.12a1.07,1.07,0,0,1,0-.56c0-.29.09-.42.15-.42A4.15,4.15,0,0,0,14,26.3q.75-.12.87-.35a10.77,10.77,0,0,0,.46-2.1L16.88,12.6a2.89,2.89,0,0,0-.21-2,1.35,1.35,0,0,0-.59-.51,3.66,3.66,0,0,0-.69-.26c-.19,0-.29-.09-.28-.13q.11-.85.29-.86a22.76,22.76,0,0,0,4.5-.24l.58-.07q.12,0,0,.63a1.6,1.6,0,0,1-.11.35A5.94,5.94,0,0,1,21.81,9,4.28,4.28,0,0,1,23.44,8.89Zm-.92,1.47a2.25,2.25,0,0,0-1.65.35,2,2,0,0,0-.81,1.42l-.81,6.07a1.83,1.83,0,0,0,.59,1.65,2.88,2.88,0,0,0,1.63.8,2.79,2.79,0,0,0,2.45-.93,5.75,5.75,0,0,0,1.39-3.35,7.68,7.68,0,0,0-.41-4.09A2.93,2.93,0,0,0,22.52,10.36Z"/><path class="cls-1" d="M37.65,10.77a5.52,5.52,0,0,1,2.4.88,4.71,4.71,0,0,1,1.52,1.61,6.9,6.9,0,0,1,.71,1.87,5.12,5.12,0,0,1,.09,1.77c-.06.43-.17.69-.33.78a1.68,1.68,0,0,1-.92,0l-7-.94c-.14,0-.21,0-.23.15A5.78,5.78,0,0,0,34,19,4.1,4.1,0,0,0,35,20.95a3.51,3.51,0,0,0,2.13,1A8,8,0,0,0,38,22a4.42,4.42,0,0,0,.79,0l.65-.11a2.55,2.55,0,0,0,.58-.19l.43-.2.64-.32a.48.48,0,0,1,.12.2.57.57,0,0,1,0,.31.91.91,0,0,1-.25.54,4.83,4.83,0,0,1-2,1.36,5.52,5.52,0,0,1-3,.4,6,6,0,0,1-4.17-2.49,6.41,6.41,0,0,1-1.24-4.86A6.88,6.88,0,0,1,33,12,5.76,5.76,0,0,1,37.65,10.77Zm-.39,1.33a2.11,2.11,0,0,0-1.32.24,2.8,2.8,0,0,0-1,.89,5.59,5.59,0,0,0-.57,1,3.6,3.6,0,0,0-.25.85c0,.14,0,.21.15.23L39,16q.27,0,.32-.41A3.85,3.85,0,0,0,39,13.4,2.13,2.13,0,0,0,37.26,12.09Z"/><path class="cls-1" d="M50.94,12.55a3.65,3.65,0,0,1,2.61,1.33A4.75,4.75,0,0,1,54,17.28l-.78,5.8a1.36,1.36,0,0,0,.14.93.9.9,0,0,0,.67.4,1.85,1.85,0,0,0,1.05-.25c.11.06.16.17.13.35a1.78,1.78,0,0,1-.3.86,7.47,7.47,0,0,1-1.28.58,3.08,3.08,0,0,1-1.47.19,2.16,2.16,0,0,1-1.26-.68,2.44,2.44,0,0,1-.71-1.2l-.25.16c-.14.09-.34.2-.58.33a8.68,8.68,0,0,1-.83.37,4.76,4.76,0,0,1-1.05.26,4.31,4.31,0,0,1-1.19,0A3.55,3.55,0,0,1,44,24.27a2.82,2.82,0,0,1-.63-2.35,2.75,2.75,0,0,1,.52-1.28,3.56,3.56,0,0,1,.95-.91,6.17,6.17,0,0,1,1.37-.61,12.61,12.61,0,0,1,1.45-.39l1.54-.26,1.3-.22a.47.47,0,0,0,.33-.44l.22-1.62a2.55,2.55,0,0,0-.25-1.68,1.55,1.55,0,0,0-1.19-.76,1.8,1.8,0,0,0-1.46.36,2.22,2.22,0,0,0-.71,1.48,1,1,0,0,1-.56.81,1.85,1.85,0,0,1-1,.15,1.68,1.68,0,0,1-1.44-.91q.19-1.41,2.29-2.39A7.46,7.46,0,0,1,50.94,12.55ZM48.1,23.69a2.31,2.31,0,0,0,1.42-.23,1.18,1.18,0,0,0,.7-.87l.4-3c-.15,0-.45.1-.91.18s-.81.15-1.06.22a8,8,0,0,0-.88.3,1.79,1.79,0,0,0-.78.56,1.64,1.64,0,0,0-.33.79A1.83,1.83,0,0,0,47,23.08,1.71,1.71,0,0,0,48.1,23.69Z"/><path class="cls-1" d="M70.43,17.17q-.64.28-2,1.08A21.05,21.05,0,0,0,65.76,20q.73,1,1.83,2.67t1.83,2.71a14.4,14.4,0,0,0,1,1.37,3.75,3.75,0,0,0,1.06.74,3.61,3.61,0,0,0,1,.37c.08,0,.1.18.05.52a1.73,1.73,0,0,1-.08.41L69,28.17,67.84,28l-1.28-.1-1.11-.07a.81.81,0,0,1,0-.55c0-.27.09-.41.17-.4a2.14,2.14,0,0,0,.7,0q.4-.08.42-.23s0-.06,0-.06L63,21.22l-.37,0-.24,1.83a12.16,12.16,0,0,0-.12,2.68q0,.21.74.53a4.29,4.29,0,0,0,1,.36c.06,0,.07.16,0,.44a1.7,1.7,0,0,1-.12.57q-.2-.06-1.55-.33t-2-.36q-.71-.1-2.06-.19l-1.59-.09a.87.87,0,0,1,0-.58q.06-.44.18-.43A4.11,4.11,0,0,0,58,25.63q.75-.12.84-.32a9.72,9.72,0,0,0,.49-2.12L60.94,11a11.72,11.72,0,0,0,.12-2Q61,8.44,59.6,8.25l-.27,0c-.12,0-.16-.18-.11-.5s.12-.46.24-.45q.92,0,1.77,0c.56,0,1-.06,1.41-.11s.7-.1,1-.17l.88-.18h.06c.08,0,.15.08.21.19a.84.84,0,0,1,.11.33,9.57,9.57,0,0,0-.73,2.72L62.83,19.9a2.71,2.71,0,0,0,.93-.21q.69-.48,1.5-1L66.42,18q.36-.22.73-.49a2.67,2.67,0,0,0,.49-.43.71.71,0,0,0,.15-.34q0-.33-.61-.49a2.89,2.89,0,0,1-.65-.19,1.32,1.32,0,0,1,0-.53c0-.21.08-.31.16-.32l2.86.38q.8.11,3.14.3a.47.47,0,0,1,.1.34,1.33,1.33,0,0,1-.07.44c0,.13-.1.2-.16.19A3.9,3.9,0,0,0,70.43,17.17Z"/><path class="cls-1" d="M80.3,25.49a10.91,10.91,0,0,0-.12,2.68q0,.22.74.54a4.35,4.35,0,0,0,1,.35q.12,0,.08.45a1.7,1.7,0,0,1-.12.57q-.2-.06-1.56-.33t-2-.36q-.74-.1-2.09-.19l-1.56-.09a.87.87,0,0,1,0-.58c0-.29.1-.44.18-.43A4.36,4.36,0,0,0,75.85,28q.77-.12.85-.32a9.72,9.72,0,0,0,.49-2.12l.64-4.8a2.83,2.83,0,0,0-.22-1.95A1.65,1.65,0,0,0,77,18.3a3.09,3.09,0,0,0-.68-.27c-.19,0-.29-.09-.28-.13q.11-.85.3-.86a22.78,22.78,0,0,0,2.43,0,23.09,23.09,0,0,0,2.4-.22l.24,0c.1,0,.17.09.21.24a.55.55,0,0,1,0,.33,25.55,25.55,0,0,0-.58,2.5ZM78.89,12.75a1.81,1.81,0,0,1-.36-1.37,1.76,1.76,0,0,1,.7-1.21,1.87,1.87,0,0,1,2.59.35,1.76,1.76,0,0,1,.36,1.35,1.81,1.81,0,0,1-.7,1.23,1.83,1.83,0,0,1-2.59-.35Z"/><path class="cls-1" d="M95,18.46q3.8.51,3,6.55l-.37,2.8a12.44,12.44,0,0,0-.15,2.68q0,.21.75.54a4.52,4.52,0,0,0,1,.36c.06,0,.07.16,0,.44a1.71,1.71,0,0,1-.12.57q-.17-.05-1.53-.33t-2-.36q-.71-.1-2-.17l-1.53-.09a.86.86,0,0,1,0-.58q.06-.44.18-.43a3.57,3.57,0,0,0,1-.09c.46-.09.72-.2.78-.33a8.53,8.53,0,0,0,.52-2.12l.38-2.8a6.46,6.46,0,0,0-.2-3.51,2.39,2.39,0,0,0-2-1.25,2.75,2.75,0,0,0-1.72.29,1.43,1.43,0,0,0-.86,1l-.68,5.07a12.44,12.44,0,0,0-.15,2.68q0,.21.72.53a4.29,4.29,0,0,0,.93.35q.12,0,.08.45a1.7,1.7,0,0,1-.12.57L89.39,31q-1.3-.27-2-.36t-2.06-.19l-1.59-.09a.88.88,0,0,1,0-.58q.06-.44.18-.43A4.11,4.11,0,0,0,85,29.25q.75-.12.84-.32a9.69,9.69,0,0,0,.49-2.12L87,22a2.83,2.83,0,0,0-.22-1.95,1.43,1.43,0,0,0-.6-.53,3.43,3.43,0,0,0-.68-.27q-.28-.07-.27-.13c.08-.57.16-.86.27-.86A42.07,42.07,0,0,0,90.34,18l.08,0h.16c.08,0,.14.09.18.23a.91.91,0,0,1,0,.34,10,10,0,0,0-.26,1,.23.23,0,0,0,0,.15.42.42,0,0,0,.16-.07,6.57,6.57,0,0,1,2-1A5.21,5.21,0,0,1,95,18.46Z"/><path class="cls-1" d="M108.51,20.33a9.41,9.41,0,0,1,2.39.71,9.19,9.19,0,0,0,2.31.7l1.68.22s.09.14.16.41a1.83,1.83,0,0,1,.07.61c0,.28-.11.4-.23.39L113,23.12c-.08,0-.12,0-.13.07s.05.29.16.8a4.21,4.21,0,0,1,.08,1.45,4.3,4.3,0,0,1-1.88,2.94,5.09,5.09,0,0,1-3.83.91,12.26,12.26,0,0,1-1.81-.36,1.6,1.6,0,0,0-.72.46,1.27,1.27,0,0,0-.39.68.61.61,0,0,0,.21.54,2,2,0,0,0,.83.41q.58.17,1,.25l1.17.22.44.06a10.5,10.5,0,0,1,4.21,1.39,2.34,2.34,0,0,1,1.08,2.35,4.68,4.68,0,0,1-2.64,3.55,8.12,8.12,0,0,1-5.2,1,7.72,7.72,0,0,1-3.65-1.33,2.67,2.67,0,0,1-1.28-2.63,2.32,2.32,0,0,1,1.06-1.54,4.94,4.94,0,0,1,2-.88,3.39,3.39,0,0,1-1.29-1.09,2.16,2.16,0,0,1-.44-1.63q.17-1.27,2.53-2.33A3.94,3.94,0,0,1,103,26.63a4.37,4.37,0,0,1-.42-2.5,4,4,0,0,1,2-3.09A5.91,5.91,0,0,1,108.51,20.33Zm2,16q.14-1-1.3-1.57a18.9,18.9,0,0,0-3.95-.87h-.15l-.16.07c-.27.06-.48.12-.62.17a2.57,2.57,0,0,0-.52.26,1.43,1.43,0,0,0-.47.46,1.73,1.73,0,0,0-.23.69,2.08,2.08,0,0,0,.88,1.92,4.64,4.64,0,0,0,2.41,1,4.49,4.49,0,0,0,2.8-.4A2.32,2.32,0,0,0,110.51,36.29Zm-4.81-12a4.71,4.71,0,0,0,.26,2.51A1.85,1.85,0,0,0,107.48,28a1.77,1.77,0,0,0,1.72-.62,3.94,3.94,0,0,0,.79-2,4.89,4.89,0,0,0-.25-2.61,1.9,1.9,0,0,0-1.58-1.2,1.68,1.68,0,0,0-1.68.71A4.31,4.31,0,0,0,105.7,24.31Z"/><path class="cls-1" d="M141.88,27a.86.86,0,0,0-.15-.64,1.32,1.32,0,0,0-.56-.43,5.47,5.47,0,0,0-.66-.24,4.2,4.2,0,0,0-.6-.12l-.12,0c-.08,0-.1-.16-.07-.46s.08-.47.15-.52q.38.05,1.55.3t1.87.34c.41.05.94.1,1.59.12s1.12.06,1.41.1a1.85,1.85,0,0,1,0,.51c0,.29-.1.44-.18.43a3.39,3.39,0,0,0-1.21.21,1.81,1.81,0,0,0-1.14.76L138,37.19a1.16,1.16,0,0,1-.46.37,1,1,0,0,1-.6.11.37.37,0,0,1-.35-.26l-2.5-8.61-4.19,7.27a1.58,1.58,0,0,1-.39.37.9.9,0,0,1-.67.15.44.44,0,0,1-.38-.26q-.47-1.62-1.11-3.94t-1.18-4.1q-.54-1.78-1.28-3.89a1.37,1.37,0,0,0-.69-.69,2.86,2.86,0,0,0-.92-.33q-.12,0-.06-.49t.19-.49c.2,0,.69.12,1.48.29s1.41.28,1.86.34,1.12.12,2,.18l1.54.12a1.62,1.62,0,0,1,0,.54q-.05.38-.14.4a3.54,3.54,0,0,0-1,.07q-.66.12-.72.53s.67,2.43,2,7.17l1-1.77.86-1.5.59-1q.3-.53.42-.8a1.6,1.6,0,0,0,.14-.36,2.16,2.16,0,0,0-.23-1.23,1.41,1.41,0,0,0-.58-.56,2.37,2.37,0,0,0-1-.32c-.08,0-.1-.16-.06-.44s.1-.45.19-.5.7.12,1.45.28,1.36.27,1.83.34,1.07.11,1.93.17l1.52.11a1.46,1.46,0,0,1,0,.55c0,.28-.1.42-.16.41q-1.5-.2-1.64.83a47.79,47.79,0,0,0,1.89,6.91q.64-1.17,1.55-2.75T141.42,28A4,4,0,0,0,141.88,27Z"/><path class="cls-1" d="M152.08,35.12A10.94,10.94,0,0,0,152,37.8q0,.21.74.53a4.36,4.36,0,0,0,1,.35c.08,0,.1.16.08.45a1.71,1.71,0,0,1-.12.57q-.2-.06-1.56-.33t-2-.36q-.74-.1-2.09-.19l-1.56-.09a.87.87,0,0,1,0-.58c0-.29.1-.44.18-.43a4.35,4.35,0,0,0,1.09-.08q.77-.12.85-.32a9.69,9.69,0,0,0,.49-2.12l.64-4.8a2.83,2.83,0,0,0-.22-1.95,1.66,1.66,0,0,0-.62-.53,3.09,3.09,0,0,0-.68-.27c-.19,0-.29-.09-.28-.13.08-.57.17-.86.29-.86a23,23,0,0,0,2.43,0,23.35,23.35,0,0,0,2.4-.22l.24,0q.15,0,.21.24a.54.54,0,0,1,0,.33,25.65,25.65,0,0,0-.58,2.5Zm-1.41-12.74a1.81,1.81,0,0,1-.36-1.37,1.76,1.76,0,0,1,.7-1.21,1.84,1.84,0,0,1,3,1.7,1.81,1.81,0,0,1-.7,1.23,1.83,1.83,0,0,1-2.59-.35Z"/><path class="cls-1" d="M158.6,29.09l-1.8-.24c-.14,0-.17-.28-.1-.79a.74.74,0,0,1,.06-.26,8.31,8.31,0,0,0,2.48-1.26l1-.76q.52-.42,1.24-1.11a2.09,2.09,0,0,1,.55.15c.17.07.25.14.24.2l-.39,2.89,2.13.3,1.46.21c.16,0,.22.12.2.3a2.89,2.89,0,0,1-.47,1.26l-3.54-.47-1,7.1a2.81,2.81,0,0,0,.26,1.86,1.69,1.69,0,0,0,1.3.8,2.8,2.8,0,0,0,.63,0,3.19,3.19,0,0,0,.55-.09l.41-.13L164,39c.08,0,.16.09.23.3a.7.7,0,0,1,.07.4,2.72,2.72,0,0,1-1.38.79,4.69,4.69,0,0,1-2.18.26,3.75,3.75,0,0,1-2.48-1.34,4,4,0,0,1-.67-3.2Z"/><path class="cls-1" d="M177.41,29.52q3.77.51,3,6.31l-.41,3a10.88,10.88,0,0,0-.12,2.68q0,.21.72.53a4.52,4.52,0,0,0,1,.36c.06,0,.07.16,0,.44a3.11,3.11,0,0,1-.09.57L180,43.12q-1.36-.27-2-.36t-2-.18l-1.56-.09a1.1,1.1,0,0,1,0-.57c0-.29.09-.44.15-.43a3.53,3.53,0,0,0,1-.08c.46-.09.73-.2.81-.33a11.34,11.34,0,0,0,.46-2.13l.39-2.89A6.2,6.2,0,0,0,177,32.6a2.43,2.43,0,0,0-2-1.21,2.84,2.84,0,0,0-1.69.28,1.4,1.4,0,0,0-.89,1l-.68,5.07a10.89,10.89,0,0,0-.12,2.68q0,.21.72.53a4.19,4.19,0,0,0,1,.35c.06,0,.07.16,0,.44a1.68,1.68,0,0,1-.12.57L171.76,42q-1.3-.27-2-.36t-2.06-.19l-1.59-.09a.86.86,0,0,1,0-.58c0-.29.1-.44.18-.43a4.11,4.11,0,0,0,1.1-.08q.75-.12.84-.32a9.6,9.6,0,0,0,.49-2.09l1.64-12.26a11.65,11.65,0,0,0,.12-2q-.08-.49-1.47-.68l-.27,0c-.12,0-.15-.18-.11-.5s.12-.46.24-.45q.93,0,1.77,0c.56,0,1-.06,1.41-.11s.7-.11,1-.17l.88-.18H174c.08,0,.15.08.21.19a.82.82,0,0,1,.11.33,9.57,9.57,0,0,0-.73,2.72l-.8,6c0,.12,0,.18.09.19s.06,0,.13-.07a5.68,5.68,0,0,1,2-1A5.49,5.49,0,0,1,177.41,29.52Z"/><path class="cls-1" d="M197.47,29.93l-.64,4.74a.18.18,0,0,0,0,.14l.09.09h0l.24,0a2.47,2.47,0,0,0,1.67-.8q2.7-2.22,6-5.2a1.64,1.64,0,0,0,.59-.82q0-.29-.59-.5a6.38,6.38,0,0,0-1.07-.26c-.08,0-.11-.13-.1-.36a1.53,1.53,0,0,1,.1-.54q3.25.62,3.54.65.56.08,1.11.12l1.19.08,1.06.07a1.28,1.28,0,0,1,0,.51c0,.25-.09.38-.15.37a4.65,4.65,0,0,0-3.14.84L201,34.61a.58.58,0,0,0-.05.83l5.8,9.12a3,3,0,0,0,1.3,1.13,4.86,4.86,0,0,0,1.27.47c.1,0,.12.21.07.58a.92.92,0,0,1-.15.4q-3.51-.65-4-.72-.94-.13-2.26-.23l-1.86-.14a.84.84,0,0,1,0-.56c0-.29.1-.42.18-.41a2.28,2.28,0,0,0,.85-.1c.35-.09.54-.22.56-.37a5.71,5.71,0,0,0-.66-1.35q-.68-1.2-1.9-3.09t-2.43-3.55-.63-.21q-.47-.06-.52.29L196,41.07a10.74,10.74,0,0,0-.08,2.63q0,.21.75.54a4.54,4.54,0,0,0,1,.36c.08,0,.09.2,0,.58a1.3,1.3,0,0,1-.11.4l-3.72-.68-1.24-.14-1.44-.12-1.26-.09a.58.58,0,0,1-.06-.43c.05-.37.12-.55.19-.54a4.73,4.73,0,0,0,1.13-.06c.52-.07.82-.18.9-.33a10.33,10.33,0,0,0,.57-2.44l1.53-11.37a8.91,8.91,0,0,0,.1-2.51q-.09-.25-.76-.57a4,4,0,0,0-1-.36q-.12,0-.06-.46a1.2,1.2,0,0,1,.13-.52l1.62.31q1.47.29,2.27.39l3.8.33a1.55,1.55,0,0,1,0,.48c0,.33-.11.5-.19.49A4.79,4.79,0,0,0,199,27q-.83.13-.91.33A11,11,0,0,0,197.47,29.93Z"/><path class="cls-1" d="M219.19,35.12a5.51,5.51,0,0,1,2.4.88,4.72,4.72,0,0,1,1.52,1.61,6.87,6.87,0,0,1,.71,1.87,5.12,5.12,0,0,1,.09,1.77q-.09.65-.33.78a1.68,1.68,0,0,1-.92,0l-7-.94c-.14,0-.21,0-.23.15a5.78,5.78,0,0,0,.11,2.11,4.09,4.09,0,0,0,1.08,1.91,3.5,3.5,0,0,0,2.13,1,7.77,7.77,0,0,0,.86.07,4.53,4.53,0,0,0,.79,0l.64-.11a2.53,2.53,0,0,0,.58-.19l.43-.2.64-.32a.47.47,0,0,1,.12.2.58.58,0,0,1,0,.31.92.92,0,0,1-.25.54,4.82,4.82,0,0,1-2,1.36,5.52,5.52,0,0,1-3,.4,6,6,0,0,1-4.16-2.49A6.41,6.41,0,0,1,212.19,41a6.88,6.88,0,0,1,2.37-4.6A5.76,5.76,0,0,1,219.19,35.12Zm-.39,1.33a2.11,2.11,0,0,0-1.32.24,2.8,2.8,0,0,0-1,.89,5.69,5.69,0,0,0-.58,1,3.65,3.65,0,0,0-.25.85c0,.14,0,.21.15.23l4.77.64c.18,0,.28-.11.32-.41a3.85,3.85,0,0,0-.41-2.18A2.13,2.13,0,0,0,218.8,36.45Z"/><path class="cls-1" d="M232.48,36.91a3.65,3.65,0,0,1,2.61,1.32,4.76,4.76,0,0,1,.47,3.41l-.78,5.8a1.36,1.36,0,0,0,.15.93.89.89,0,0,0,.66.4,1.86,1.86,0,0,0,1.05-.25c.11.05.16.17.13.35a1.77,1.77,0,0,1-.3.86,7.41,7.41,0,0,1-1.28.58,3.11,3.11,0,0,1-1.47.19,2.17,2.17,0,0,1-1.26-.68,2.43,2.43,0,0,1-.71-1.2l-.25.16q-.21.14-.58.33a8.37,8.37,0,0,1-.83.37,4.75,4.75,0,0,1-1.06.26,4.31,4.31,0,0,1-1.19,0,3.55,3.55,0,0,1-2.29-1.13,2.83,2.83,0,0,1-.63-2.35,2.74,2.74,0,0,1,.52-1.28,3.55,3.55,0,0,1,.95-.91,6.11,6.11,0,0,1,1.37-.61,12.36,12.36,0,0,1,1.45-.39l1.53-.26,1.3-.22a.47.47,0,0,0,.33-.44l.22-1.62a2.56,2.56,0,0,0-.25-1.68,1.55,1.55,0,0,0-1.19-.76,1.8,1.8,0,0,0-1.46.36,2.22,2.22,0,0,0-.71,1.48,1,1,0,0,1-.56.81,1.85,1.85,0,0,1-1,.15A1.67,1.67,0,0,1,226,40q.19-1.41,2.29-2.39A7.46,7.46,0,0,1,232.48,36.91ZM229.64,48a2.31,2.31,0,0,0,1.43-.23,1.18,1.18,0,0,0,.7-.87l.4-3c-.15,0-.45.1-.91.18s-.82.15-1.06.22a8,8,0,0,0-.88.3,1.79,1.79,0,0,0-.78.56,1.64,1.64,0,0,0-.33.79,1.83,1.83,0,0,0,.29,1.45A1.71,1.71,0,0,0,229.64,48Z"/><path class="cls-1" d="M248.55,39.06a3,3,0,0,1,2.28,1.3q-.34,2.5-1.75,2.31a1.77,1.77,0,0,1-1.07-.74,1.86,1.86,0,0,0-1.19-.76,1.59,1.59,0,0,0-1.55.74,4,4,0,0,0-.78,1.86L244,47.45a12.43,12.43,0,0,0-.15,2.68q0,.21.72.53a4.24,4.24,0,0,0,1,.35c.06,0,.07.16,0,.44a3.26,3.26,0,0,1-.09.57l-1.55-.33q-1.32-.27-2-.36t-2.06-.19l-1.59-.09a.87.87,0,0,1,0-.58q.06-.44.18-.43a4.11,4.11,0,0,0,1.11-.08c.5-.08.78-.19.84-.32a9.68,9.68,0,0,0,.5-2.12l.64-4.8a2.83,2.83,0,0,0-.22-1.95,1.44,1.44,0,0,0-.6-.53A3.4,3.4,0,0,0,240,40c-.18,0-.27-.09-.27-.13.08-.57.17-.86.27-.86a42.08,42.08,0,0,0,4.86-.25l.24,0c.08,0,.14.09.18.23a.71.71,0,0,1,0,.35l-.1.41c0,.19-.1.38-.15.58a3.76,3.76,0,0,0-.1.39,5.44,5.44,0,0,1,1.64-1.24A3.25,3.25,0,0,1,248.55,39.06Z"/><path class="cls-1" d="M261.52,40.8a3,3,0,0,1,2.29,1.3q-.34,2.5-1.75,2.31a1.77,1.77,0,0,1-1.07-.74,1.86,1.86,0,0,0-1.19-.76,1.59,1.59,0,0,0-1.55.74,4,4,0,0,0-.77,1.86L257,49.19a12.44,12.44,0,0,0-.15,2.68q0,.21.72.53a4.24,4.24,0,0,0,1,.35c.06,0,.07.16,0,.44a3.26,3.26,0,0,1-.09.57l-1.55-.33q-1.32-.27-2-.36t-2.06-.19l-1.59-.09a.87.87,0,0,1,0-.58q.06-.44.18-.43a4.1,4.1,0,0,0,1.1-.08c.5-.08.78-.19.84-.32a9.68,9.68,0,0,0,.5-2.12l.64-4.8a2.83,2.83,0,0,0-.22-1.95,1.44,1.44,0,0,0-.6-.53,3.4,3.4,0,0,0-.68-.27c-.18,0-.27-.09-.27-.13.08-.57.17-.86.27-.86a42.08,42.08,0,0,0,4.86-.25l.24,0c.08,0,.14.09.18.23a.71.71,0,0,1,0,.35l-.1.41c0,.19-.1.38-.15.58a3.61,3.61,0,0,0-.1.39,5.44,5.44,0,0,1,1.64-1.24A3.25,3.25,0,0,1,261.52,40.8Z"/><path class="cls-1" d="M272,42.21a3.65,3.65,0,0,1,2.61,1.33,4.75,4.75,0,0,1,.47,3.41l-.78,5.8a1.36,1.36,0,0,0,.14.93.89.89,0,0,0,.67.4,1.85,1.85,0,0,0,1.05-.25c.11.06.16.17.13.35a1.76,1.76,0,0,1-.3.86,7.3,7.3,0,0,1-1.28.58,3.11,3.11,0,0,1-1.47.19,2.17,2.17,0,0,1-1.26-.68,2.45,2.45,0,0,1-.71-1.21l-.25.16c-.14.09-.34.2-.58.33a8.74,8.74,0,0,1-.83.37,4.7,4.7,0,0,1-1.06.26,4.3,4.3,0,0,1-1.19,0,3.55,3.55,0,0,1-2.29-1.13,2.83,2.83,0,0,1-.63-2.35A2.75,2.75,0,0,1,265,50.3a3.56,3.56,0,0,1,.95-.91,6,6,0,0,1,1.37-.61,12.16,12.16,0,0,1,1.45-.39l1.53-.26,1.3-.21a.47.47,0,0,0,.33-.44l.22-1.62a2.56,2.56,0,0,0-.25-1.68,1.55,1.55,0,0,0-1.19-.76,1.8,1.8,0,0,0-1.46.36,2.22,2.22,0,0,0-.71,1.48,1,1,0,0,1-.56.81,1.84,1.84,0,0,1-1,.15,1.68,1.68,0,0,1-1.44-.91q.19-1.42,2.29-2.39A7.45,7.45,0,0,1,272,42.21ZM269.2,53.35a2.3,2.3,0,0,0,1.43-.23,1.18,1.18,0,0,0,.7-.87l.4-3q-.22.06-.91.18t-1.06.22a8.26,8.26,0,0,0-.88.3,1.8,1.8,0,0,0-.78.55,1.64,1.64,0,0,0-.33.8,1.83,1.83,0,0,0,.28,1.45A1.72,1.72,0,0,0,269.2,53.35Z"/><path class="cls-1" d="M297.52,39.09l4.12,16.27q.28,1.24.6,2.27a1.45,1.45,0,0,0,.85.83,3.94,3.94,0,0,0,1.08.42c.08,0,.09.19,0,.55a1,1,0,0,1-.12.43l-3.69-.67-3.85-.34a.83.83,0,0,1,0-.56q.06-.43.18-.41a3.81,3.81,0,0,0,1,0,1.18,1.18,0,0,0,.79-.31.87.87,0,0,0,.14-.37,6.83,6.83,0,0,0-.29-2.11l-.66-2.88a.33.33,0,0,0-.19-.15q-.94-.18-2.53-.4t-3.37-.36c-.12,0-.18,0-.19.09l-1.49,2.59a8.47,8.47,0,0,0-.82,1.84.66.66,0,0,0,.25.63,3,3,0,0,0,.89.45,5.21,5.21,0,0,0,.88.27c.06,0,.07.17,0,.42a1.92,1.92,0,0,1-.13.55l-1.37-.27q-1.22-.25-2-.36t-1.82-.17l-1.5-.1a.63.63,0,0,1-.06-.46c0-.35.09-.53.13-.52a4.33,4.33,0,0,0,1.17-.1,1.85,1.85,0,0,0,1.06-.44A14.18,14.18,0,0,0,288,53.54L295.29,41a6.47,6.47,0,0,1,1.37-2,.76.76,0,0,1,.53-.14A.49.49,0,0,1,297.52,39.09Zm-5,10.49q1,.23,2.11.37t2.43.24l.08-.11-1.45-6.19-3.21,5.57C292.46,49.53,292.48,49.57,292.52,49.58Z"/><path class="cls-1" d="M317.56,48.32a3.2,3.2,0,0,1,1.84.83,3.47,3.47,0,0,1,1,1.65,7,7,0,0,1,2.35-1.18,6.66,6.66,0,0,1,2.85-.22,3.38,3.38,0,0,1,1.75.71,3.28,3.28,0,0,1,1,1.47,7,7,0,0,1,.37,1.91,11.28,11.28,0,0,1-.09,2.16l-.42,3.09a12.44,12.44,0,0,0-.15,2.68q0,.21.74.53a4.36,4.36,0,0,0,1,.35c.06,0,.07.16,0,.44a1.73,1.73,0,0,1-.12.57L328.14,63q-1.33-.27-2-.36t-2-.18l-1.59-.09a1.12,1.12,0,0,1,0-.57c0-.29.09-.44.15-.43a4,4,0,0,0,1.09-.08c.49-.08.77-.19.82-.33a9.26,9.26,0,0,0,.48-2l.4-3q.57-4.27-2.17-4.64a2.71,2.71,0,0,0-1.68.25,1.85,1.85,0,0,0-.89.81c0,.06,0,.14,0,.23a.57.57,0,0,0,0,.24,14.61,14.61,0,0,1-.16,1.84l-.42,3.12a11.72,11.72,0,0,0-.13,2.56q0,.21.74.53a4.42,4.42,0,0,0,1,.36c.06,0,.07.15,0,.44a1.67,1.67,0,0,1-.12.57c-.14,0-.65-.15-1.53-.33s-1.55-.3-2-.36-1.15-.12-2-.18l-1.59-.09a1.09,1.09,0,0,1,0-.57c0-.29.09-.44.15-.43a4,4,0,0,0,1.09-.08c.49-.08.76-.19.82-.33a9.69,9.69,0,0,0,.49-2.12l.38-2.83a6.3,6.3,0,0,0-.23-3.42,2.26,2.26,0,0,0-1.86-1.3,2.84,2.84,0,0,0-1.69.28,1.4,1.4,0,0,0-.89,1L312,56.57a10.94,10.94,0,0,0-.12,2.68q0,.21.71.53a4,4,0,0,0,.94.35c.08,0,.1.16.08.45a1.71,1.71,0,0,1-.12.57l-1.53-.33q-1.3-.27-2-.35t-2.07-.19l-1.58-.09a.87.87,0,0,1,0-.58c0-.29.1-.44.18-.43a4.25,4.25,0,0,0,1.09-.08q.77-.12.85-.32a9.68,9.68,0,0,0,.49-2.12l.64-4.8a2.83,2.83,0,0,0-.22-1.95,1.44,1.44,0,0,0-.6-.53,3.41,3.41,0,0,0-.7-.27c-.19,0-.29-.09-.28-.13q.11-.86.29-.86a41.07,41.07,0,0,0,4.83-.25l.09,0h.15c.1,0,.17.09.21.24a.55.55,0,0,1,0,.33,10.35,10.35,0,0,0-.26,1c0,.08,0,.13,0,.16a.47.47,0,0,0,.16-.07,6.57,6.57,0,0,1,2-1A5.19,5.19,0,0,1,317.56,48.32Z"/><path class="cls-1" d="M339.28,51.23a3.66,3.66,0,0,1,2.61,1.33,4.75,4.75,0,0,1,.47,3.41l-.78,5.8a1.36,1.36,0,0,0,.15.94.89.89,0,0,0,.66.4,1.84,1.84,0,0,0,1.05-.25c.11.06.16.17.13.35a1.76,1.76,0,0,1-.3.86,7.41,7.41,0,0,1-1.28.58,3.1,3.1,0,0,1-1.47.19,2.17,2.17,0,0,1-1.26-.68,2.43,2.43,0,0,1-.71-1.2l-.25.16q-.21.14-.58.33a8.38,8.38,0,0,1-.83.37,4.65,4.65,0,0,1-1.06.26,4.31,4.31,0,0,1-1.19,0A3.55,3.55,0,0,1,332.39,63a2.82,2.82,0,0,1-.63-2.35,2.75,2.75,0,0,1,.52-1.28,3.56,3.56,0,0,1,.95-.91,6.06,6.06,0,0,1,1.37-.61,12.36,12.36,0,0,1,1.45-.39l1.53-.26,1.3-.21a.47.47,0,0,0,.33-.44l.22-1.62a2.55,2.55,0,0,0-.25-1.68,1.55,1.55,0,0,0-1.19-.76,1.8,1.8,0,0,0-1.46.36,2.22,2.22,0,0,0-.71,1.48,1,1,0,0,1-.56.81,1.85,1.85,0,0,1-1,.15,1.68,1.68,0,0,1-1.44-.91q.19-1.41,2.29-2.39A7.46,7.46,0,0,1,339.28,51.23Zm-2.84,11.14a2.3,2.3,0,0,0,1.42-.23,1.18,1.18,0,0,0,.7-.87l.4-3c-.15,0-.45.1-.91.18s-.82.15-1.06.22a7.86,7.86,0,0,0-.88.3,1.79,1.79,0,0,0-.78.55,1.65,1.65,0,0,0-.33.79,1.83,1.83,0,0,0,.29,1.45A1.71,1.71,0,0,0,336.44,62.37Z"/><path class="cls-1" d="M349.83,52.95q.65.09,1.87.16c.81,0,1.32.09,1.52.11a2,2,0,0,1,0,.54c0,.28-.09.41-.17.4a3.25,3.25,0,0,0-1,.1q-.66.13-.73.4l0,.18q0,.48,1.84,7.09.31-.5,1.54-2.75t1.43-2.58a2.76,2.76,0,0,0,.3-.89.93.93,0,0,0-.37-.79,2.45,2.45,0,0,0-1.37-.53c-.08,0-.1-.16-.06-.46a.75.75,0,0,1,.19-.49q.35,0,1.43.28T358,54q.62.08,1.53.12c.61,0,1,.05,1.32.09a.85.85,0,0,1,.05.49q-.06.47-.18.46a3.74,3.74,0,0,0-1.23.13,1.65,1.65,0,0,0-1.14.75l-7.14,12.3q-2.4,4.06-5,3.71a1.6,1.6,0,0,1-1.12-.57,1.39,1.39,0,0,1,.43-2.07q3.06.41,4.36-1.87l1.06-1.9-3-10.6a3.91,3.91,0,0,0-.26-.73,1.8,1.8,0,0,0-.78-.78,2.85,2.85,0,0,0-.93-.35q-.12,0-.06-.43t.16-.52l1.56.3Q349.12,52.85,349.83,52.95Z"/><path class="cls-1" d="M368.64,55.17a3.65,3.65,0,0,1,2.61,1.33,4.75,4.75,0,0,1,.47,3.41l-.78,5.8a1.35,1.35,0,0,0,.15.93.89.89,0,0,0,.66.4,1.85,1.85,0,0,0,1.05-.25c.11.05.16.17.13.35a1.77,1.77,0,0,1-.3.86,7.44,7.44,0,0,1-1.28.58,3.1,3.1,0,0,1-1.47.19,2.17,2.17,0,0,1-1.26-.68,2.43,2.43,0,0,1-.71-1.2l-.25.16c-.14.09-.34.2-.58.33a8.61,8.61,0,0,1-.83.37,4.78,4.78,0,0,1-1.06.26A4.31,4.31,0,0,1,364,68a3.55,3.55,0,0,1-2.29-1.13,2.82,2.82,0,0,1-.63-2.35,2.74,2.74,0,0,1,.52-1.28,3.55,3.55,0,0,1,.95-.91,6.15,6.15,0,0,1,1.37-.61,12.4,12.4,0,0,1,1.45-.39l1.53-.26,1.3-.22a.47.47,0,0,0,.33-.44l.22-1.62a2.56,2.56,0,0,0-.25-1.68,1.55,1.55,0,0,0-1.19-.76,1.8,1.8,0,0,0-1.46.36,2.22,2.22,0,0,0-.71,1.48,1,1,0,0,1-.56.81,1.85,1.85,0,0,1-1,.15,1.68,1.68,0,0,1-1.44-.91q.19-1.41,2.29-2.39A7.46,7.46,0,0,1,368.64,55.17ZM365.8,66.31a2.31,2.31,0,0,0,1.42-.23,1.17,1.17,0,0,0,.7-.87l.4-3c-.15,0-.45.1-.91.18s-.82.15-1.06.22a8,8,0,0,0-.88.3,1.79,1.79,0,0,0-.78.56,1.64,1.64,0,0,0-.33.79,1.83,1.83,0,0,0,.29,1.45A1.71,1.71,0,0,0,365.8,66.31Z"/><path class="cls-1" d="M382,60.57a10.17,10.17,0,0,1,3.79-6.78,9.16,9.16,0,0,1,7.27-2.08,29.21,29.21,0,0,1,6.69,2,9.06,9.06,0,0,1,0,2q-.1,2-.14,2.3c0,.24-.24.33-.64.27a1.06,1.06,0,0,1-.62-.26,5.48,5.48,0,0,0-.14-.86,5.9,5.9,0,0,0-.45-1.12,4.37,4.37,0,0,0-.89-1.21,6,6,0,0,0-1.55-1,7.77,7.77,0,0,0-2.33-.66,5.26,5.26,0,0,0-4.82,1.69,10.08,10.08,0,0,0-2.41,5.68,11.41,11.41,0,0,0,.2,4.18,8.11,8.11,0,0,0,1.94,3.65,6.57,6.57,0,0,0,6.54,1.7.77.77,0,0,0,.39-.64l.25-2.12,0-.21a9,9,0,0,0,.11-2.41q-.07-.4-.79-.68a5.72,5.72,0,0,0-1.23-.35c-.08,0-.1-.16-.06-.44a.85.85,0,0,1,.19-.53q.32,0,1.77.33t2.33.4l3.59.3a1.62,1.62,0,0,1,0,.51q-.07.5-.19.49a3.87,3.87,0,0,0-.81.07,7.8,7.8,0,0,0-.91.18q-.41.18-.67,2.1c-.06.41-.11.83-.15,1.24l-.08.68a2.58,2.58,0,0,0,0,.93,2.51,2.51,0,0,1,.09.46c0,.28-.29.48-.74.62q-1.25.37-1.84.5a15.64,15.64,0,0,1-2.2.21,19.17,19.17,0,0,1-3.53-.17,8.83,8.83,0,0,1-6.23-3.77A9.71,9.71,0,0,1,382,60.57Z"/><path class="cls-1" d="M410.18,60.75a6.56,6.56,0,0,1,4.47,2.56A6.37,6.37,0,0,1,416,68.24a6.73,6.73,0,0,1-13.35-1.79A6.4,6.4,0,0,1,405.19,62,6.51,6.51,0,0,1,410.18,60.75Zm-.57,1.33a2.39,2.39,0,0,0-2.33,1.05,6.4,6.4,0,0,0-1.2,3.09,8.66,8.66,0,0,0,.4,4.28,3,3,0,0,0,2.43,2.13,2.42,2.42,0,0,0,2.35-1.07,6.31,6.31,0,0,0,1.21-3.08,10.16,10.16,0,0,0,0-2.89,5.24,5.24,0,0,0-.94-2.36A2.76,2.76,0,0,0,409.61,62.08Z"/><path class="cls-1" d="M426.8,63A6,6,0,0,1,430,64.43a6.26,6.26,0,0,1,1.86,2.65,6.33,6.33,0,0,1,.32,3,7,7,0,0,1-7.86,6.08,6.85,6.85,0,0,1-2-.69c-.08,0-.14.12-.17.4l-.27,2a10.68,10.68,0,0,0-.12,2.68c0,.16.24.35.72.56a4.5,4.5,0,0,0,1,.36c.06,0,.07.16,0,.44a2.7,2.7,0,0,1-.09.54l-1.56-.3q-1.36-.27-2-.36t-2.09-.19l-1.59-.12a1.05,1.05,0,0,1,0-.56c0-.29.09-.42.15-.42a4.16,4.16,0,0,0,1.11-.08q.75-.12.87-.35a10.83,10.83,0,0,0,.46-2.1l1.51-11.25a2.89,2.89,0,0,0-.21-2,1.33,1.33,0,0,0-.59-.51,3.51,3.51,0,0,0-.69-.26c-.19,0-.29-.09-.28-.13q.11-.85.3-.86a23,23,0,0,0,4.5-.24l.58-.07c.08,0,.09.22,0,.63a1.61,1.61,0,0,1-.11.35,6,6,0,0,1,1.4-.52A4.26,4.26,0,0,1,426.8,63Zm-.92,1.47a2.25,2.25,0,0,0-1.65.35,2,2,0,0,0-.81,1.42l-.81,6.07A1.83,1.83,0,0,0,423.2,74a2.89,2.89,0,0,0,1.63.8,2.8,2.8,0,0,0,2.45-.93,5.76,5.76,0,0,0,1.4-3.35,7.69,7.69,0,0,0-.41-4.09A2.92,2.92,0,0,0,425.89,64.47Z"/><path class="cls-1" d="M441,64.88a5.52,5.52,0,0,1,2.4.88,4.72,4.72,0,0,1,1.52,1.61,6.91,6.91,0,0,1,.71,1.87,5.12,5.12,0,0,1,.09,1.77q-.09.65-.33.78a1.69,1.69,0,0,1-.92,0l-7-.94q-.21,0-.23.15a5.79,5.79,0,0,0,.11,2.11,4.09,4.09,0,0,0,1.08,1.91,3.49,3.49,0,0,0,2.13,1,7.79,7.79,0,0,0,.86.07,4.34,4.34,0,0,0,.79,0l.64-.11a2.52,2.52,0,0,0,.58-.19l.43-.2.64-.32a.47.47,0,0,1,.12.2.57.57,0,0,1,0,.31.91.91,0,0,1-.25.54,4.83,4.83,0,0,1-2,1.36,5.51,5.51,0,0,1-3,.4,6,6,0,0,1-4.17-2.49A6.41,6.41,0,0,1,434,70.75a6.88,6.88,0,0,1,2.37-4.6A5.76,5.76,0,0,1,441,64.88Zm-.39,1.33a2.1,2.1,0,0,0-1.32.24,2.8,2.8,0,0,0-1,.89,5.7,5.7,0,0,0-.58,1,3.65,3.65,0,0,0-.25.85c0,.14,0,.21.15.23l4.77.64c.18,0,.29-.11.33-.41a3.85,3.85,0,0,0-.41-2.18A2.13,2.13,0,0,0,440.63,66.21Z"/><path class="cls-1" d="M454.16,66.65a5.51,5.51,0,0,1,2.4.88,4.71,4.71,0,0,1,1.52,1.61A6.87,6.87,0,0,1,458.8,71a5.12,5.12,0,0,1,.09,1.77q-.09.65-.33.78a1.68,1.68,0,0,1-.92,0l-7-.94c-.14,0-.22,0-.23.15a5.77,5.77,0,0,0,.11,2.11,4.09,4.09,0,0,0,1.08,1.92,3.5,3.5,0,0,0,2.13,1,7.8,7.8,0,0,0,.86.07,4.34,4.34,0,0,0,.79,0l.64-.11a2.58,2.58,0,0,0,.58-.19l.43-.2.64-.32a.47.47,0,0,1,.12.2.58.58,0,0,1,0,.31.92.92,0,0,1-.25.54,4.84,4.84,0,0,1-2,1.36,5.52,5.52,0,0,1-3,.4,6,6,0,0,1-4.16-2.49,6.41,6.41,0,0,1-1.24-4.86,6.88,6.88,0,0,1,2.37-4.6A5.76,5.76,0,0,1,454.16,66.65ZM453.78,68a2.11,2.11,0,0,0-1.32.24,2.81,2.81,0,0,0-1,.89,5.73,5.73,0,0,0-.58,1,3.65,3.65,0,0,0-.25.85c0,.14,0,.21.15.23l4.77.64c.18,0,.28-.11.32-.41a3.86,3.86,0,0,0-.41-2.18A2.13,2.13,0,0,0,453.78,68Z"/><path class="cls-1" d="M44.68,67.72a3.65,3.65,0,0,1,2.68,1.19A4.76,4.76,0,0,1,48,72.29l-.48,5.84a1.35,1.35,0,0,0,.19.93.89.89,0,0,0,.68.37,1.85,1.85,0,0,0,1-.3c.12,0,.17.16.15.34a1.76,1.76,0,0,1-.25.87,7.35,7.35,0,0,1-1.25.64,3.11,3.11,0,0,1-1.45.27,2.18,2.18,0,0,1-1.29-.61,2.44,2.44,0,0,1-.77-1.17l-.24.17q-.21.15-.57.36a8.64,8.64,0,0,1-.81.41,4.76,4.76,0,0,1-1,.32,4.31,4.31,0,0,1-1.18.07,3.55,3.55,0,0,1-2.35-1,2.82,2.82,0,0,1-.75-2.31,2.74,2.74,0,0,1,.45-1.31,3.57,3.57,0,0,1,.9-1,6.14,6.14,0,0,1,1.34-.68,12.54,12.54,0,0,1,1.42-.46l1.52-.34,1.29-.28a.47.47,0,0,0,.31-.45L45,71.36a2.56,2.56,0,0,0-.34-1.67,1.56,1.56,0,0,0-1.23-.7,1.8,1.8,0,0,0-1.44.43,2.23,2.23,0,0,0-.63,1.51,1,1,0,0,1-.52.84,1.85,1.85,0,0,1-1,.2,1.68,1.68,0,0,1-1.48-.84q.12-1.42,2.16-2.51A7.45,7.45,0,0,1,44.68,67.72ZM42.41,79a2.3,2.3,0,0,0,1.41-.3,1.17,1.17,0,0,0,.66-.9l.25-3q-.21.07-.9.22t-1.05.27a8.24,8.24,0,0,0-.87.35,1.81,1.81,0,0,0-.75.59,1.64,1.64,0,0,0-.29.81,1.83,1.83,0,0,0,.36,1.43A1.71,1.71,0,0,0,42.41,79Z"/><path class="cls-1" d="M59.71,69a6,6,0,0,1,3.23,1.2,6.23,6.23,0,0,1,2,2.55,6.31,6.31,0,0,1,.51,3A6.79,6.79,0,0,1,63,80.54a6.55,6.55,0,0,1-4.92,1.67,9.27,9.27,0,0,1-2.14-.4,6.58,6.58,0,0,0-1.37-.34,2.28,2.28,0,0,0-.79.14,2.9,2.9,0,0,1-.61.16,1.44,1.44,0,0,1-.41-.21c-.22-.14-.32-.25-.32-.33s0-.23.1-.53.15-.71.25-1.26a16.89,16.89,0,0,0,.24-1.8l1-12.09a10.32,10.32,0,0,0,0-2q-.11-.49-1.5-.6l-.27,0c-.12,0-.17-.17-.14-.49s.1-.47.22-.46q.92,0,1.77-.09t1.4-.18c.37-.07.7-.14,1-.22l.87-.23h.06c.08,0,.15.07.22.18a.84.84,0,0,1,.12.32,10.37,10.37,0,0,0-.55,2.76l-.39,4.74v.16a.82.82,0,0,0,0,.13q0,.09.05.09l.11,0a5.48,5.48,0,0,1,1.25-.49A4.26,4.26,0,0,1,59.71,69Zm-.78,1.55a2.31,2.31,0,0,0-1.65.43,1.75,1.75,0,0,0-.73,1.28L56,78.5a1.78,1.78,0,0,0,.66,1.63,3.22,3.22,0,0,0,1.81.68,2.52,2.52,0,0,0,2.44-1.2A6.81,6.81,0,0,0,62,76.3a7.63,7.63,0,0,0-.59-4.11A2.91,2.91,0,0,0,58.92,70.5Z"/><path class="cls-1" d="M74.71,70.18a6.55,6.55,0,0,1,4.6,2.33,6.37,6.37,0,0,1,1.58,4.86,6.78,6.78,0,1,1-6.18-7.19Zm-.5,1.36a2.39,2.39,0,0,0-2.27,1.17,6.37,6.37,0,0,0-1,3.15,8.66,8.66,0,0,0,.62,4.26,3,3,0,0,0,2.54,2,2.42,2.42,0,0,0,2.29-1.18,6.32,6.32,0,0,0,1-3.13,10.21,10.21,0,0,0-.15-2.89,5.23,5.23,0,0,0-1.06-2.31A2.76,2.76,0,0,0,74.21,71.55Z"/><path class="cls-1" d="M96,75.16,95.54,81a6.54,6.54,0,0,0,.07,2.09.62.62,0,0,0,.32.27,2.28,2.28,0,0,0,.51.16l.49.07a.55.55,0,0,1,.25,0c.08,0,.11.12.1.28a2.31,2.31,0,0,1-.09.4c-.06.18-.12.27-.2.27a6.86,6.86,0,0,0-1.06,0l-1.25.11-1.14.13L92.32,85q-.21,0-.17-.49l.11-1.3c0-.1,0-.15-.08-.16a6.62,6.62,0,0,1-1.92,1.19,5,5,0,0,1-2.39.4A3.11,3.11,0,0,1,86.15,84a3.59,3.59,0,0,1-1.08-1.4,6.38,6.38,0,0,1-.48-1.77,9,9,0,0,1,0-1.88l.27-3.32a2.83,2.83,0,0,0-.32-1.94,1.64,1.64,0,0,0-.64-.5,3,3,0,0,0-.7-.24c-.2,0-.29-.07-.29-.11,0-.57.12-.87.22-.88a22.47,22.47,0,0,0,2.46-.16,23.3,23.3,0,0,0,2.38-.34l.12,0,.12,0c.1,0,.17.08.21.23a1.09,1.09,0,0,1,0,.33Q88,74,88,74.55l-.29,3.56A6.37,6.37,0,0,0,88,81.48a2.62,2.62,0,0,0,3.67.73,1.58,1.58,0,0,0,.74-1.06l.4-4.89a2.83,2.83,0,0,0-.32-1.93,1.43,1.43,0,0,0-.63-.5,3.32,3.32,0,0,0-.71-.24c-.2,0-.29-.07-.29-.11q.07-.86.25-.87a22.69,22.69,0,0,0,2.43-.16A23.66,23.66,0,0,0,96,72.11l.24,0c.1,0,.17.08.22.23a.54.54,0,0,1,0,.33Q96.06,74.62,96,75.16Z"/><path class="cls-1" d="M101.63,74.48l-1.81-.15c-.14,0-.19-.27-.14-.79a.77.77,0,0,1,.05-.26,8.32,8.32,0,0,0,2.41-1.38l.92-.8c.33-.3.73-.69,1.18-1.17a2.1,2.1,0,0,1,.56.12c.17.06.26.13.25.18l-.24,2.9,2.15.19,1.47.13c.16,0,.23.11.21.29a2.89,2.89,0,0,1-.4,1.28l-3.56-.29-.59,7.14a2.82,2.82,0,0,0,.36,1.85,1.7,1.7,0,0,0,1.34.74,2.81,2.81,0,0,0,.63,0,3.18,3.18,0,0,0,.55-.12l.4-.15.22-.07c.08,0,.16.08.24.29a.7.7,0,0,1,.09.39,2.71,2.71,0,0,1-1.34.86,4.69,4.69,0,0,1-2.16.37,3.74,3.74,0,0,1-2.54-1.21,4,4,0,0,1-.83-3.16Z"/><path class="cls-1" d="M118.8,75.89,117,75.74c-.14,0-.19-.27-.15-.79a.76.76,0,0,1,.05-.26,8.33,8.33,0,0,0,2.41-1.38l.92-.8q.5-.45,1.18-1.17a2.14,2.14,0,0,1,.56.12c.17.06.26.13.25.19l-.24,2.9,2.15.19,1.47.14c.16,0,.23.11.21.29a2.89,2.89,0,0,1-.4,1.28l-3.56-.29-.59,7.14a2.81,2.81,0,0,0,.36,1.85,1.7,1.7,0,0,0,1.34.74,2.82,2.82,0,0,0,.63,0,3,3,0,0,0,.55-.12l.4-.15.22-.07c.08,0,.16.08.25.29a.69.69,0,0,1,.09.39,2.71,2.71,0,0,1-1.34.86,4.69,4.69,0,0,1-2.16.37A3.74,3.74,0,0,1,119,86.22a4,4,0,0,1-.83-3.16Z"/><path class="cls-1" d="M137.61,75.35q3.79.31,3.31,6.15l-.25,3.05a10.94,10.94,0,0,0,0,2.69c0,.14.26.3.75.49a4.51,4.51,0,0,0,1,.31c.06,0,.08.15.07.44a3.12,3.12,0,0,1-.06.58l-1.58-.25c-.91-.13-1.59-.22-2-.25s-1.16-.07-2-.08h-1.56a1.1,1.1,0,0,1,0-.57c0-.3.07-.44.13-.44a3.55,3.55,0,0,0,1-.14c.46-.11.72-.23.79-.37a11.41,11.41,0,0,0,.35-2.15l.24-2.9a6.19,6.19,0,0,0-.39-3.45,2.43,2.43,0,0,0-2-1.11,2.84,2.84,0,0,0-1.67.37,1.41,1.41,0,0,0-.83,1.07l-.42,5.1a10.88,10.88,0,0,0,0,2.69q0,.21.75.49a4.25,4.25,0,0,0,1,.3c.06,0,.08.15.07.44a1.68,1.68,0,0,1-.09.57l-1.54-.25q-1.31-.2-2-.25c-.47,0-1.16-.07-2.07-.08H127a.87.87,0,0,1-.07-.57c0-.3.08-.44.15-.43a4.21,4.21,0,0,0,1.1-.13q.74-.16.82-.37a9.59,9.59,0,0,0,.38-2.12l1-12.33a11.72,11.72,0,0,0,0-2q-.11-.48-1.5-.6l-.27,0c-.12,0-.17-.17-.14-.49s.1-.47.22-.46q.93,0,1.77-.09c.56-.05,1-.11,1.4-.18s.7-.14,1-.22l.87-.23h.06c.08,0,.15.07.22.18a.82.82,0,0,1,.12.32,9.55,9.55,0,0,0-.58,2.76l-.49,6c0,.12,0,.18.1.19s.06,0,.13-.08a5.66,5.66,0,0,1,1.93-1.14A5.49,5.49,0,0,1,137.61,75.35Z"/><path class="cls-1" d="M151.43,76.48a5.51,5.51,0,0,1,2.44.75,4.7,4.7,0,0,1,1.6,1.53,6.86,6.86,0,0,1,.81,1.83,5.13,5.13,0,0,1,.18,1.76c0,.43-.13.7-.29.8a1.69,1.69,0,0,1-.92.09l-7.08-.58c-.14,0-.21,0-.22.16a5.77,5.77,0,0,0,.22,2.11,4.09,4.09,0,0,0,1.17,1.86,3.5,3.5,0,0,0,2.18.92,8.34,8.34,0,0,0,.86,0,4.55,4.55,0,0,0,.78-.08l.64-.14a2.56,2.56,0,0,0,.57-.22l.42-.22.63-.35a.45.45,0,0,1,.13.19.57.57,0,0,1,.07.3.91.91,0,0,1-.22.55,4.85,4.85,0,0,1-1.88,1.46,5.52,5.52,0,0,1-3,.56,6,6,0,0,1-4.29-2.28,6.41,6.41,0,0,1-1.49-4.79A6.88,6.88,0,0,1,146.87,78,5.77,5.77,0,0,1,151.43,76.48Zm-.32,1.35a2.1,2.1,0,0,0-1.31.31,2.79,2.79,0,0,0-.94.94,5.78,5.78,0,0,0-.52,1.08,3.69,3.69,0,0,0-.21.86c0,.14,0,.21.16.22l4.8.39c.18,0,.28-.13.3-.42a3.85,3.85,0,0,0-.52-2.16A2.13,2.13,0,0,0,151.11,77.83Z"/><path class="cls-1" d="M169.62,86.92a10.94,10.94,0,0,0,0,2.69c0,.14.28.31.76.5a4.37,4.37,0,0,0,1,.3c.08,0,.11.15.1.44a1.71,1.71,0,0,1-.09.57l-1.58-.25q-1.37-.2-2-.25c-.5,0-1.19-.07-2.1-.08h-1.57a.88.88,0,0,1-.07-.57q0-.44.15-.43a4.34,4.34,0,0,0,1.09-.13q.76-.16.83-.36a9.76,9.76,0,0,0,.38-2.15l.4-4.83a2.83,2.83,0,0,0-.32-1.94,1.66,1.66,0,0,0-.65-.5,3.13,3.13,0,0,0-.7-.24c-.2,0-.29-.07-.29-.11q.07-.86.25-.87a22.74,22.74,0,0,0,2.43-.16,23.06,23.06,0,0,0,2.38-.34l.24,0c.1,0,.17.08.22.23a.54.54,0,0,1,0,.33,25.64,25.64,0,0,0-.45,2.53Zm-2.06-12.65a1.81,1.81,0,0,1-.43-1.35,1.76,1.76,0,0,1,.64-1.25,1.84,1.84,0,0,1,3,1.55,1.81,1.81,0,0,1-.64,1.26,1.83,1.83,0,0,1-2.61-.21Z"/><path class="cls-1" d="M184,79.15a3.2,3.2,0,0,1,1.88.74,3.47,3.47,0,0,1,1.06,1.59,7,7,0,0,1,2.28-1.3,6.67,6.67,0,0,1,2.83-.36,3.36,3.36,0,0,1,1.78.62,3.26,3.26,0,0,1,1.08,1.42,7,7,0,0,1,.47,1.89,11.45,11.45,0,0,1,0,2.16L195.1,89a12.5,12.5,0,0,0,0,2.68q0,.21.77.5a4.37,4.37,0,0,0,1,.3c.06,0,.08.15.07.44a1.7,1.7,0,0,1-.09.57l-1.55-.25q-1.34-.2-2-.26t-2-.08h-1.59a1.11,1.11,0,0,1,0-.57c0-.3.07-.44.13-.44a4,4,0,0,0,1.08-.13c.49-.11.75-.23.81-.37a9.17,9.17,0,0,0,.38-2.06l.25-3q.35-4.3-2.4-4.52a2.71,2.71,0,0,0-1.67.34,1.86,1.86,0,0,0-.85.85,2.32,2.32,0,0,1,0,.24.58.58,0,0,0,0,.24,14.43,14.43,0,0,1-.06,1.84l-.26,3.14a11.77,11.77,0,0,0,0,2.57q0,.21.77.5a4.28,4.28,0,0,0,1,.3c.06,0,.08.15.07.44a1.68,1.68,0,0,1-.09.57l-1.55-.25q-1.34-.2-2-.25t-2-.08h-1.59a1.09,1.09,0,0,1,0-.57c0-.3.07-.44.13-.44a4,4,0,0,0,1.08-.13c.49-.11.75-.23.8-.37a9.71,9.71,0,0,0,.39-2.15l.23-2.84a6.31,6.31,0,0,0-.41-3.4,2.26,2.26,0,0,0-1.93-1.2,2.84,2.84,0,0,0-1.67.37,1.4,1.4,0,0,0-.83,1.06l-.42,5.1a11,11,0,0,0,0,2.69q0,.21.74.49a4,4,0,0,0,1,.3c.08,0,.11.15.1.44a1.71,1.71,0,0,1-.09.57L179,91.93q-1.31-.2-2-.25t-2.08-.08h-1.58a.86.86,0,0,1-.07-.57c0-.3.08-.44.16-.43a4.33,4.33,0,0,0,1.08-.13q.76-.16.83-.36a9.69,9.69,0,0,0,.39-2.15l.4-4.83a2.83,2.83,0,0,0-.32-1.93,1.42,1.42,0,0,0-.63-.5,3.33,3.33,0,0,0-.71-.24c-.2,0-.29-.07-.29-.11,0-.57.13-.86.25-.87a41.1,41.1,0,0,0,4.81-.5.18.18,0,0,1,.09,0h.15c.1,0,.17.08.22.23a.55.55,0,0,1,0,.33,10.39,10.39,0,0,0-.21,1.06c0,.08,0,.13,0,.15a.47.47,0,0,0,.16-.08,6.56,6.56,0,0,1,1.92-1.09A5.2,5.2,0,0,1,184,79.15Z"/><path class="cls-1" d="M207.66,81.13a6,6,0,0,1,3.3,1.25,6.23,6.23,0,0,1,2.47,5.51,7,7,0,0,1-7.54,6.48,6.9,6.9,0,0,1-2.07-.59c-.08,0-.13.13-.15.41l-.17,2a10.73,10.73,0,0,0,0,2.69q0,.24.75.52a4.53,4.53,0,0,0,1,.31c.06,0,.08.15.07.44a2.71,2.71,0,0,1-.06.55l-1.58-.22q-1.37-.2-2-.26c-.49,0-1.19-.07-2.1-.08l-1.59,0a1.05,1.05,0,0,1,0-.55c0-.29.06-.43.12-.42a4.15,4.15,0,0,0,1.1-.13q.74-.16.85-.39a10.86,10.86,0,0,0,.35-2.12l.93-11.32a2.88,2.88,0,0,0-.32-2,1.32,1.32,0,0,0-.61-.48,3.53,3.53,0,0,0-.7-.22c-.2,0-.29-.07-.29-.11,0-.57.13-.86.25-.87a22.79,22.79,0,0,0,4.48-.47l.58-.1q.12,0,.07.63a1.52,1.52,0,0,1-.09.35,6,6,0,0,1,1.38-.59A4.28,4.28,0,0,1,207.66,81.13Zm-.84,1.51a2.26,2.26,0,0,0-1.63.43,2,2,0,0,0-.73,1.46l-.5,6.1a1.83,1.83,0,0,0,.67,1.62,2.88,2.88,0,0,0,1.67.72,2.8,2.8,0,0,0,2.4-1.06,5.75,5.75,0,0,0,1.22-3.42,7.67,7.67,0,0,0-.62-4.06A2.93,2.93,0,0,0,206.82,82.64Z"/><path class="cls-1" d="M222.57,82.32a6.56,6.56,0,0,1,4.6,2.33,6.37,6.37,0,0,1,1.58,4.86,6.78,6.78,0,1,1-6.18-7.19Zm-.5,1.36a2.39,2.39,0,0,0-2.27,1.17,6.37,6.37,0,0,0-1,3.15,8.65,8.65,0,0,0,.62,4.26,3,3,0,0,0,2.54,2,2.42,2.42,0,0,0,2.29-1.18,6.31,6.31,0,0,0,1-3.13,10.21,10.21,0,0,0-.15-2.89A5.23,5.23,0,0,0,224,84.74,2.76,2.76,0,0,0,222.07,83.68Z"/><path class="cls-1" d="M239.88,83.74a3,3,0,0,1,2.35,1.18q-.21,2.52-1.63,2.4a1.77,1.77,0,0,1-1.11-.69,1.87,1.87,0,0,0-1.23-.7,1.6,1.6,0,0,0-1.51.82,4,4,0,0,0-.68,1.9l-.3,3.7a12.5,12.5,0,0,0,0,2.68c0,.14.28.31.75.49a4.14,4.14,0,0,0,1,.3c.06,0,.08.15.07.44a3.14,3.14,0,0,1-.06.58l-1.56-.25q-1.33-.2-2-.25t-2.07-.08h-1.59a.87.87,0,0,1-.07-.57c0-.3.08-.44.16-.44a4.14,4.14,0,0,0,1.1-.13q.74-.16.82-.37a9.7,9.7,0,0,0,.39-2.15l.4-4.83a2.82,2.82,0,0,0-.32-1.93,1.43,1.43,0,0,0-.63-.5,3.41,3.41,0,0,0-.7-.24c-.19,0-.28-.07-.27-.11,0-.57.12-.87.22-.88a42.1,42.1,0,0,0,4.84-.5l.24,0c.08,0,.14.08.19.22a.72.72,0,0,1,0,.35l-.08.41c0,.19-.08.38-.12.59a3.74,3.74,0,0,0-.08.4A5.45,5.45,0,0,1,238,84.22,3.25,3.25,0,0,1,239.88,83.74Z"/><path class="cls-1" d="M245.8,86.31,244,86.16c-.14,0-.19-.27-.15-.79a.76.76,0,0,1,.05-.26,8.33,8.33,0,0,0,2.41-1.38l.92-.8q.5-.45,1.18-1.17a2.15,2.15,0,0,1,.56.12c.17.06.26.13.25.19L249,85l2.15.19,1.47.13c.16,0,.23.11.21.29a2.89,2.89,0,0,1-.4,1.28l-3.56-.29-.59,7.14a2.82,2.82,0,0,0,.36,1.85,1.7,1.7,0,0,0,1.34.74,2.82,2.82,0,0,0,.63,0,3.05,3.05,0,0,0,.55-.12l.4-.15.22-.07c.08,0,.16.08.24.29a.69.69,0,0,1,.09.4,2.73,2.73,0,0,1-1.34.86,4.69,4.69,0,0,1-2.16.37A3.74,3.74,0,0,1,246,96.64a4,4,0,0,1-.83-3.16Z"/><path class="cls-1" d="M261.14,85.48a3.65,3.65,0,0,1,2.68,1.19,4.75,4.75,0,0,1,.65,3.38L264,95.89a1.35,1.35,0,0,0,.19.93.89.89,0,0,0,.68.37,1.84,1.84,0,0,0,1-.3c.12,0,.17.16.15.34a1.77,1.77,0,0,1-.25.87,7.32,7.32,0,0,1-1.25.64,3.1,3.1,0,0,1-1.45.27,2.18,2.18,0,0,1-1.29-.61,2.44,2.44,0,0,1-.77-1.17l-.24.17c-.14.1-.33.22-.57.36a8.86,8.86,0,0,1-.81.41,4.78,4.78,0,0,1-1,.32,4.32,4.32,0,0,1-1.18.07,3.55,3.55,0,0,1-2.35-1,2.82,2.82,0,0,1-.75-2.31,2.73,2.73,0,0,1,.45-1.3,3.56,3.56,0,0,1,.9-1,6.11,6.11,0,0,1,1.34-.68,12.54,12.54,0,0,1,1.42-.46l1.52-.34L261,91.2a.47.47,0,0,0,.31-.45l.13-1.63a2.56,2.56,0,0,0-.34-1.67,1.56,1.56,0,0,0-1.23-.7,1.8,1.8,0,0,0-1.44.43,2.22,2.22,0,0,0-.63,1.51,1,1,0,0,1-.52.84,1.85,1.85,0,0,1-1,.2,1.68,1.68,0,0,1-1.48-.84q.12-1.42,2.16-2.51A7.45,7.45,0,0,1,261.14,85.48Zm-2.27,11.27a2.3,2.3,0,0,0,1.41-.3,1.17,1.17,0,0,0,.66-.9l.25-3q-.21.07-.9.22t-1.05.27a7.83,7.83,0,0,0-.87.35,1.8,1.8,0,0,0-.75.59,1.64,1.64,0,0,0-.29.81,1.83,1.83,0,0,0,.36,1.43A1.71,1.71,0,0,0,258.88,96.75Z"/><path class="cls-1" d="M278.31,86.89q3.82.31,3.32,6.39l-.23,2.82a12.44,12.44,0,0,0,0,2.68q0,.21.78.5a4.55,4.55,0,0,0,1,.31c.06,0,.08.15.07.44a1.7,1.7,0,0,1-.09.57c-.12,0-.63-.11-1.55-.25s-1.6-.22-2.05-.26-1.13-.06-2-.07H276a.87.87,0,0,1-.07-.57c0-.3.08-.44.15-.43a3.54,3.54,0,0,0,1-.14q.68-.17.76-.37a8.56,8.56,0,0,0,.41-2.14l.23-2.82a6.46,6.46,0,0,0-.38-3.49,2.39,2.39,0,0,0-2-1.15,2.75,2.75,0,0,0-1.7.38,1.43,1.43,0,0,0-.8,1.05l-.42,5.1a12.42,12.42,0,0,0,0,2.68c0,.14.28.31.75.49a4.26,4.26,0,0,0,.94.3c.08,0,.11.15.1.44a1.71,1.71,0,0,1-.09.57l-1.55-.25q-1.31-.2-2-.25t-2.07-.08h-1.6a.87.87,0,0,1-.07-.57c0-.3.08-.44.16-.44a4.14,4.14,0,0,0,1.1-.13q.74-.16.82-.37a9.76,9.76,0,0,0,.38-2.15l.4-4.83a2.82,2.82,0,0,0-.32-1.93,1.43,1.43,0,0,0-.63-.5,3.39,3.39,0,0,0-.7-.24c-.19,0-.28-.07-.27-.11,0-.57.12-.87.22-.88a42.09,42.09,0,0,0,4.84-.5l.08,0h.16c.08,0,.14.08.19.22a.89.89,0,0,1,.06.33,10.1,10.1,0,0,0-.21,1.06.24.24,0,0,0,0,.15.47.47,0,0,0,.16-.08A6.57,6.57,0,0,1,276,87.24,5.21,5.21,0,0,1,278.31,86.89Z"/><path class="cls-1" d="M292.59,88.07a7.18,7.18,0,0,1,2.76.75A4.74,4.74,0,0,1,297,90.1a3.68,3.68,0,0,1-.48,1.65,1.1,1.1,0,0,1-1.08.58,1.33,1.33,0,0,1-.88-.37,3.39,3.39,0,0,1-.62-1,2.15,2.15,0,0,0-1.87-1.53A2.29,2.29,0,0,0,290,90.52a6.35,6.35,0,0,0-1,3.18,6,6,0,0,0,.77,4,3.51,3.51,0,0,0,2.68,1.52,8.08,8.08,0,0,0,.86,0,4.44,4.44,0,0,0,.78-.09l.64-.14a2.49,2.49,0,0,0,.57-.22l.42-.22.62-.35a.47.47,0,0,1,.13.19.58.58,0,0,1,.07.3.91.91,0,0,1-.23.55,4.84,4.84,0,0,1-1.88,1.46,5.45,5.45,0,0,1-3,.56A6,6,0,0,1,287.08,99a6.56,6.56,0,0,1-1.47-4.86,6.76,6.76,0,0,1,2.16-4.52A6,6,0,0,1,292.59,88.07Z"/><path class="cls-1" d="M305.49,89.12a5.52,5.52,0,0,1,2.44.75,4.7,4.7,0,0,1,1.6,1.53,6.86,6.86,0,0,1,.81,1.83,5.13,5.13,0,0,1,.18,1.76q-.05.65-.29.8a1.69,1.69,0,0,1-.92.09l-7.08-.58c-.14,0-.21,0-.22.16a5.78,5.78,0,0,0,.21,2.11,4.09,4.09,0,0,0,1.17,1.86,3.5,3.5,0,0,0,2.18.92,8.08,8.08,0,0,0,.86,0,4.46,4.46,0,0,0,.78-.08l.64-.14a2.56,2.56,0,0,0,.57-.22l.42-.22.63-.35a.46.46,0,0,1,.13.19.59.59,0,0,1,.07.3.92.92,0,0,1-.22.55,4.84,4.84,0,0,1-1.88,1.46,5.52,5.52,0,0,1-3,.56,6,6,0,0,1-4.29-2.28,6.41,6.41,0,0,1-1.49-4.79,6.88,6.88,0,0,1,2.13-4.72A5.77,5.77,0,0,1,305.49,89.12Zm-.32,1.35a2.1,2.1,0,0,0-1.31.31,2.79,2.79,0,0,0-.94.94,5.7,5.7,0,0,0-.52,1.08,3.62,3.62,0,0,0-.21.86c0,.14,0,.21.16.22l4.8.39q.27,0,.3-.42a3.86,3.86,0,0,0-.52-2.16A2.13,2.13,0,0,0,305.17,90.47Z"/><path class="cls-1" d="M325.83,90.79a6.55,6.55,0,0,1,4.6,2.33A6.37,6.37,0,0,1,332,98a6.78,6.78,0,1,1-6.18-7.19Zm-.5,1.36a2.39,2.39,0,0,0-2.27,1.17,6.39,6.39,0,0,0-1,3.15,8.65,8.65,0,0,0,.62,4.26,3,3,0,0,0,2.53,2,2.42,2.42,0,0,0,2.29-1.18,6.32,6.32,0,0,0,1-3.14,10.21,10.21,0,0,0-.15-2.89,5.24,5.24,0,0,0-1.06-2.31A2.75,2.75,0,0,0,325.33,92.15Z"/><path class="cls-1" d="M343.52,84.7a5.87,5.87,0,0,1,2,.48,2.07,2.07,0,0,1,1,.84,3.32,3.32,0,0,1-.3,1.63,1.07,1.07,0,0,1-1.14.64,1.16,1.16,0,0,1-.86-.56q-.36-.52-.76-1a1.37,1.37,0,0,0-1-.57,1.58,1.58,0,0,0-1.4.66,5,5,0,0,0-.91,1.8,12.07,12.07,0,0,0-.42,2.38l-.11,1.36s0,.05.05.09a.17.17,0,0,0,.11.07l3.26.27a.24.24,0,0,1,.15,0,.33.33,0,0,1,0,.18,3.07,3.07,0,0,1-.47,1.33L339.71,94a.16.16,0,0,0-.19.16l-.54,6.61a11.35,11.35,0,0,0,0,2.69q0,.21.75.49a4.26,4.26,0,0,0,1,.3c.06,0,.08.15.07.44a1.68,1.68,0,0,1-.09.57q-.18,0-1.53-.25t-2.07-.26q-.71-.06-2-.08h-1.55a.57.57,0,0,1-.09-.33,1.78,1.78,0,0,1,0-.46c0-.15.08-.22.14-.21a4,4,0,0,0,1.06-.14c.49-.11.75-.23.8-.37a9.81,9.81,0,0,0,.47-2.41l.56-6.81c0-.14,0-.21-.16-.22l-1.78-.15s-.05-.06,0-.18a1.59,1.59,0,0,1,.49-.83,1.19,1.19,0,0,1,1-.46l.47,0a.16.16,0,0,0,.19-.16l0-.3A8.08,8.08,0,0,1,339,86.56,5.56,5.56,0,0,1,343.52,84.7Z"/><path class="cls-1" d="M358,93.43a7.18,7.18,0,0,1,2.76.75,4.73,4.73,0,0,1,1.67,1.29,3.68,3.68,0,0,1-.48,1.65,1.1,1.1,0,0,1-1.08.58,1.32,1.32,0,0,1-.88-.37,3.38,3.38,0,0,1-.62-1,2.15,2.15,0,0,0-1.87-1.53,2.29,2.29,0,0,0-2.13,1.12,6.35,6.35,0,0,0-1,3.18,6,6,0,0,0,.77,4,3.51,3.51,0,0,0,2.68,1.52,8.08,8.08,0,0,0,.86,0,4.44,4.44,0,0,0,.78-.08l.64-.14a2.54,2.54,0,0,0,.57-.22L361,104l.62-.35a.46.46,0,0,1,.13.19.58.58,0,0,1,.07.3.91.91,0,0,1-.23.55,4.84,4.84,0,0,1-1.88,1.46,5.46,5.46,0,0,1-3,.56,6,6,0,0,1-4.33-2.29A6.56,6.56,0,0,1,351,99.54,6.76,6.76,0,0,1,353.15,95,6,6,0,0,1,358,93.43Z"/><path class="cls-1" d="M371.49,94.54a6.55,6.55,0,0,1,4.6,2.33,6.37,6.37,0,0,1,1.58,4.86,6.73,6.73,0,0,1-13.42-1.1,6.4,6.4,0,0,1,2.33-4.55A6.52,6.52,0,0,1,371.49,94.54ZM371,95.9a2.39,2.39,0,0,0-2.27,1.17,6.38,6.38,0,0,0-1,3.15,8.65,8.65,0,0,0,.62,4.26,3,3,0,0,0,2.53,2,2.42,2.42,0,0,0,2.29-1.18,6.32,6.32,0,0,0,1-3.14,10.17,10.17,0,0,0-.15-2.89A5.24,5.24,0,0,0,373,97,2.76,2.76,0,0,0,371,95.9Z"/><path class="cls-1" d="M389.8,96q3.82.31,3.32,6.39l-.23,2.81a12.36,12.36,0,0,0,0,2.68q0,.21.78.5a4.53,4.53,0,0,0,1,.31c.06,0,.08.15.07.44a1.69,1.69,0,0,1-.09.57c-.12,0-.63-.11-1.55-.25s-1.6-.22-2.05-.26-1.13-.06-2-.07h-1.54a.88.88,0,0,1-.07-.57q0-.44.15-.43a3.56,3.56,0,0,0,1-.14q.68-.17.76-.37a8.58,8.58,0,0,0,.41-2.14l.23-2.81a6.45,6.45,0,0,0-.38-3.49,2.39,2.39,0,0,0-2-1.15,2.75,2.75,0,0,0-1.7.38,1.43,1.43,0,0,0-.8,1.05l-.42,5.1a12.43,12.43,0,0,0,0,2.68c0,.14.28.31.75.49a4.28,4.28,0,0,0,.94.3c.08,0,.11.15.1.44a1.71,1.71,0,0,1-.09.57l-1.55-.25q-1.31-.2-2-.25c-.48,0-1.16-.07-2.07-.08h-1.6a.88.88,0,0,1-.07-.57q0-.44.15-.43a4.19,4.19,0,0,0,1.1-.13q.74-.16.82-.37a9.77,9.77,0,0,0,.38-2.15L382,100a2.82,2.82,0,0,0-.32-1.93,1.44,1.44,0,0,0-.63-.5,3.34,3.34,0,0,0-.7-.24c-.19,0-.28-.07-.27-.11,0-.57.12-.87.22-.88a42,42,0,0,0,4.84-.5l.08,0h.16c.08,0,.14.08.19.22a.9.9,0,0,1,.06.33,9.94,9.94,0,0,0-.21,1.06.24.24,0,0,0,0,.15.45.45,0,0,0,.16-.08,6.59,6.59,0,0,1,1.92-1.09A5.2,5.2,0,0,1,389.8,96Z"/><path class="cls-1" d="M399.27,98.91l-1.81-.15c-.14,0-.19-.27-.14-.79a.74.74,0,0,1,.05-.26,8.32,8.32,0,0,0,2.41-1.38l.92-.8q.5-.45,1.19-1.17a2.11,2.11,0,0,1,.56.12c.17.06.26.13.25.18l-.24,2.9,2.15.19,1.47.13c.16,0,.23.11.21.29a2.88,2.88,0,0,1-.4,1.28l-3.56-.29-.59,7.14a2.81,2.81,0,0,0,.36,1.85,1.7,1.7,0,0,0,1.34.74,2.82,2.82,0,0,0,.63,0,3.26,3.26,0,0,0,.55-.12l.4-.15.22-.07c.08,0,.16.08.24.29a.69.69,0,0,1,.09.39,2.71,2.71,0,0,1-1.34.86,4.68,4.68,0,0,1-2.16.38,3.75,3.75,0,0,1-2.54-1.21,4,4,0,0,1-.83-3.16Z"/><path class="cls-1" d="M414.47,98.07a5.52,5.52,0,0,1,2.44.75,4.72,4.72,0,0,1,1.6,1.53,6.88,6.88,0,0,1,.81,1.83,5.13,5.13,0,0,1,.18,1.76c0,.43-.13.7-.29.8a1.69,1.69,0,0,1-.92.09l-7.08-.58c-.14,0-.21,0-.22.16a5.79,5.79,0,0,0,.21,2.11,4.09,4.09,0,0,0,1.17,1.86,3.5,3.5,0,0,0,2.18.92,8.08,8.08,0,0,0,.86,0,4.54,4.54,0,0,0,.78-.08l.64-.14a2.56,2.56,0,0,0,.57-.22l.42-.22.63-.35a.46.46,0,0,1,.13.19.59.59,0,0,1,.07.3.92.92,0,0,1-.22.55,4.84,4.84,0,0,1-1.88,1.46,5.52,5.52,0,0,1-3,.56,6,6,0,0,1-4.29-2.28,6.41,6.41,0,0,1-1.49-4.79,6.88,6.88,0,0,1,2.13-4.72A5.77,5.77,0,0,1,414.47,98.07Zm-.32,1.35a2.1,2.1,0,0,0-1.31.31,2.79,2.79,0,0,0-.94.94,5.7,5.7,0,0,0-.52,1.08,3.63,3.63,0,0,0-.21.86c0,.14,0,.21.16.22l4.8.39q.27,0,.3-.42a3.85,3.85,0,0,0-.52-2.16A2.13,2.13,0,0,0,414.15,99.41Z"/><path class="cls-1" d="M421.72,99.26a.85.85,0,0,1,.16-.46l3.48.46,3.57.11a1,1,0,0,1,0,.42c0,.36-.08.53-.16.52a2.26,2.26,0,0,0-.84.09c-.29.09-.44.23-.45.43a.65.65,0,0,0,.12.37l1.65,2.79.89-1q.66-.75,1-1.17a1.49,1.49,0,0,0,.34-.66.4.4,0,0,0-.23-.36,1.45,1.45,0,0,0-.52-.21l-.59-.09a1,1,0,0,1-.34-.07c-.08,0-.1-.17-.08-.48a.69.69,0,0,1,.16-.46l3.42.46,3.1.08a1.77,1.77,0,0,1,0,.48c0,.32-.06.47-.1.47a4.09,4.09,0,0,0-2.68.73l-3.44,3.42a.52.52,0,0,0-.08.23.4.4,0,0,0,.09.31l3,4.87a3.46,3.46,0,0,0,2.34,1.65c.06,0,.08.18,0,.51a.79.79,0,0,1-.15.43l-1.08-.18-1.15-.18q-.52-.07-1.11-.12c-.43,0-.84-.06-1.22-.07h-2.47a2.47,2.47,0,0,1,0-.39q.05-.62.14-.61a2,2,0,0,0,.88-.14c.31-.11.47-.27.49-.47a.47.47,0,0,0,0-.18l-1.89-3.14L425.84,110a.87.87,0,0,0-.25.52.43.43,0,0,0,.08.3.71.71,0,0,0,.32.22l.39.14.5.12.4.08c.06,0,.08.17,0,.51a.75.75,0,0,1-.16.49l-1-.17-1.1-.18c-.34,0-.69-.09-1.07-.12s-.73,0-1.07-.06h-2.21a2.08,2.08,0,0,1,0-.51c0-.33.08-.5.16-.49a4,4,0,0,0,2.67-.92l3.49-3.59a.53.53,0,0,0,.08-.23.37.37,0,0,0-.07-.21l-3-4.9a2.5,2.5,0,0,0-1-.84,3.14,3.14,0,0,0-1.19-.41C421.72,99.77,421.69,99.59,421.72,99.26Z"/><path class="cls-1" d="M440.24,102.27l-1.81-.15c-.14,0-.19-.27-.14-.79a.73.73,0,0,1,.05-.26,8.32,8.32,0,0,0,2.41-1.38l.92-.8q.5-.45,1.19-1.17a2.11,2.11,0,0,1,.56.12c.17.06.26.13.25.18l-.24,2.9,2.15.19,1.47.13c.16,0,.23.11.22.29a2.89,2.89,0,0,1-.4,1.28l-3.56-.29-.59,7.14a2.82,2.82,0,0,0,.36,1.85,1.7,1.7,0,0,0,1.34.74,2.82,2.82,0,0,0,.63,0,3.16,3.16,0,0,0,.55-.12l.4-.15.22-.07c.08,0,.16.08.24.29a.69.69,0,0,1,.09.4,2.72,2.72,0,0,1-1.34.86,4.69,4.69,0,0,1-2.16.37,3.74,3.74,0,0,1-2.54-1.21,4,4,0,0,1-.83-3.16Z"/><path class="cls-1" d="M462.08,102a3.65,3.65,0,0,1,2.68,1.19,4.76,4.76,0,0,1,.65,3.38l-.48,5.84a1.36,1.36,0,0,0,.19.93.89.89,0,0,0,.69.37,1.85,1.85,0,0,0,1-.3q.17.07.15.34a1.75,1.75,0,0,1-.25.87,7.35,7.35,0,0,1-1.25.64,3.1,3.1,0,0,1-1.45.27,2.17,2.17,0,0,1-1.29-.61,2.43,2.43,0,0,1-.77-1.17l-.24.17c-.14.1-.33.22-.57.36a8.62,8.62,0,0,1-.81.41,4.77,4.77,0,0,1-1,.32,4.31,4.31,0,0,1-1.18.07,3.55,3.55,0,0,1-2.35-1,2.82,2.82,0,0,1-.75-2.31,2.74,2.74,0,0,1,.45-1.31,3.54,3.54,0,0,1,.9-1,6.15,6.15,0,0,1,1.34-.68,12.1,12.1,0,0,1,1.42-.46l1.52-.34,1.29-.28a.47.47,0,0,0,.31-.45l.13-1.63a2.56,2.56,0,0,0-.34-1.67,1.56,1.56,0,0,0-1.23-.7,1.81,1.81,0,0,0-1.44.43,2.22,2.22,0,0,0-.63,1.51,1,1,0,0,1-.52.84,1.85,1.85,0,0,1-1,.2,1.68,1.68,0,0,1-1.48-.84q.12-1.42,2.16-2.51A7.45,7.45,0,0,1,462.08,102Zm-2.27,11.27a2.3,2.3,0,0,0,1.41-.3,1.17,1.17,0,0,0,.66-.9l.25-3q-.22.07-.9.22t-1.05.27a8.32,8.32,0,0,0-.86.35,1.81,1.81,0,0,0-.75.59,1.64,1.64,0,0,0-.29.81,1.84,1.84,0,0,0,.36,1.43A1.71,1.71,0,0,0,459.82,113.24Z"/><path class="cls-1" d="M479.25,103.38q3.82.31,3.32,6.39l-.23,2.81a12.36,12.36,0,0,0,0,2.68q0,.21.78.5a4.53,4.53,0,0,0,1,.31c.06,0,.08.15.07.44a1.69,1.69,0,0,1-.09.57q-.18,0-1.54-.25t-2.05-.26c-.47,0-1.13-.06-2-.07H477a.87.87,0,0,1-.07-.57q0-.44.16-.43a3.56,3.56,0,0,0,1-.14q.68-.17.76-.37a8.58,8.58,0,0,0,.41-2.14l.23-2.81a6.45,6.45,0,0,0-.38-3.49,2.39,2.39,0,0,0-2-1.15,2.75,2.75,0,0,0-1.7.38,1.43,1.43,0,0,0-.8,1.05l-.42,5.1a12.44,12.44,0,0,0,0,2.68c0,.14.28.31.75.49a4.31,4.31,0,0,0,.94.3c.08,0,.11.15.1.44a1.74,1.74,0,0,1-.09.57l-1.55-.25q-1.31-.2-2-.25t-2.07-.08h-1.6a.88.88,0,0,1-.07-.57q0-.44.15-.43a4.18,4.18,0,0,0,1.1-.13q.74-.16.82-.37a9.71,9.71,0,0,0,.38-2.15l.4-4.83a2.83,2.83,0,0,0-.32-1.93,1.43,1.43,0,0,0-.63-.5,3.36,3.36,0,0,0-.7-.24c-.19,0-.28-.07-.27-.11q.07-.86.22-.88a41.94,41.94,0,0,0,4.84-.5l.08,0h.16c.08,0,.14.08.19.22a.9.9,0,0,1,.06.33,9.89,9.89,0,0,0-.21,1.06.24.24,0,0,0,0,.15.45.45,0,0,0,.16-.08,6.56,6.56,0,0,1,1.92-1.09A5.2,5.2,0,0,1,479.25,103.38Z"/><path class="cls-1" d="M493.83,104.52a5.12,5.12,0,0,1,2.13.59c.1,0,.16-.15.19-.46l.23-2.79a10.26,10.26,0,0,0,0-2q-.11-.49-1.5-.6l-.24,0c-.12,0-.17-.17-.14-.49s.1-.47.22-.46c.6,0,1.18,0,1.75-.09s1-.11,1.42-.18.7-.14,1-.22l.63-.17.24-.05h.06c.08,0,.15.07.22.18a.54.54,0,0,1,.09.32,11.38,11.38,0,0,0-.52,2.76l-1.07,13a10.91,10.91,0,0,0,0,2.21.44.44,0,0,0,.27.35,1.88,1.88,0,0,0,.55.19l.56.09.29,0a.61.61,0,0,1,0,.36c0,.39-.11.59-.23.58-.28,0-.63,0-1.06,0l-1.26.09-1.17.11-1.25.15q-.18,0-.14-.52l0-.5a.13.13,0,0,0,0-.12.05.05,0,0,0-.07,0,5,5,0,0,1-3.17.84,5.76,5.76,0,0,1-4-2.11,6,6,0,0,1-1.42-4.58,7,7,0,0,1,2.44-4.86A6.51,6.51,0,0,1,493.83,104.52Zm-.38,1.4a2.6,2.6,0,0,0-2.48,1.14,7,7,0,0,0-1.09,3.52,7.17,7.17,0,0,0,.6,4,2.92,2.92,0,0,0,2.46,1.62,2.48,2.48,0,0,0,1.67-.38,1.65,1.65,0,0,0,.73-1.27l.51-6.22a2.06,2.06,0,0,0-.05-.63,2.8,2.8,0,0,0-.3-.72,1.9,1.9,0,0,0-.75-.69A3.16,3.16,0,0,0,493.45,105.92Z"/><path class="cls-1" d="M519.06,106.65q3.82.31,3.32,6.39l-.23,2.82a12.35,12.35,0,0,0,0,2.68q0,.21.78.5a4.47,4.47,0,0,0,1,.31c.06,0,.08.15.07.44a1.7,1.7,0,0,1-.09.57q-.18,0-1.54-.25t-2.05-.26q-.71-.06-2-.07h-1.54a.87.87,0,0,1-.07-.57c0-.3.08-.44.16-.43a3.56,3.56,0,0,0,1-.14c.46-.11.71-.24.76-.37a8.59,8.59,0,0,0,.41-2.14l.23-2.81a6.45,6.45,0,0,0-.38-3.49,2.39,2.39,0,0,0-2-1.15,2.75,2.75,0,0,0-1.7.38,1.43,1.43,0,0,0-.8,1.05l-.42,5.1a12.44,12.44,0,0,0,0,2.68c0,.14.28.31.75.49a4.27,4.27,0,0,0,.94.3c.08,0,.11.15.1.44a1.72,1.72,0,0,1-.09.57l-1.55-.25q-1.31-.2-2-.25t-2.07-.08h-1.6a.87.87,0,0,1-.07-.57c0-.3.08-.44.15-.43a4.15,4.15,0,0,0,1.1-.13q.74-.16.82-.37a9.69,9.69,0,0,0,.38-2.15l.4-4.83a2.83,2.83,0,0,0-.32-1.93,1.43,1.43,0,0,0-.63-.5,3.3,3.3,0,0,0-.7-.24c-.19,0-.28-.07-.27-.11q.07-.86.22-.88a42.17,42.17,0,0,0,4.84-.5l.08,0h.16c.08,0,.14.08.19.22a.9.9,0,0,1,.06.33,9.94,9.94,0,0,0-.21,1.06.24.24,0,0,0,0,.15.47.47,0,0,0,.16-.08,6.58,6.58,0,0,1,1.92-1.09A5.2,5.2,0,0,1,519.06,106.65Z"/><path class="cls-1" d="M539.66,111.56l-.48,5.87a6.56,6.56,0,0,0,.07,2.09.62.62,0,0,0,.32.27,2.3,2.3,0,0,0,.51.16l.49.07a.54.54,0,0,1,.25.05c.08,0,.11.12.1.28a2.31,2.31,0,0,1-.09.4c-.06.18-.12.27-.2.27a6.86,6.86,0,0,0-1.06,0l-1.25.11-1.14.13-1.21.14q-.21,0-.17-.49l.11-1.3q0-.15-.08-.16a6.63,6.63,0,0,1-1.92,1.18,5,5,0,0,1-2.39.4,3.11,3.11,0,0,1-1.72-.65,3.59,3.59,0,0,1-1.08-1.4,6.38,6.38,0,0,1-.48-1.77,9,9,0,0,1,0-1.88l.27-3.32a2.84,2.84,0,0,0-.32-1.94,1.66,1.66,0,0,0-.65-.5,3.12,3.12,0,0,0-.7-.24c-.2,0-.29-.07-.29-.11,0-.57.12-.87.22-.88a22.52,22.52,0,0,0,2.46-.16,23,23,0,0,0,2.38-.34l.12,0,.12,0c.1,0,.17.08.21.23a1.06,1.06,0,0,1,0,.33,26,26,0,0,0-.48,2.58l-.29,3.56a6.37,6.37,0,0,0,.38,3.37,2.63,2.63,0,0,0,3.67.73,1.58,1.58,0,0,0,.74-1.06l.4-4.89a2.82,2.82,0,0,0-.32-1.93,1.44,1.44,0,0,0-.63-.5,3.36,3.36,0,0,0-.71-.24c-.2,0-.29-.07-.29-.11,0-.57.13-.86.25-.87a22.74,22.74,0,0,0,2.43-.16,23.06,23.06,0,0,0,2.38-.34l.24,0c.1,0,.17.08.22.23a.54.54,0,0,1,0,.33Q539.71,111,539.66,111.56Z"/><path class="cls-1" d="M549.95,109.18a3.65,3.65,0,0,1,2.68,1.19,4.76,4.76,0,0,1,.65,3.38l-.48,5.84a1.35,1.35,0,0,0,.19.93.89.89,0,0,0,.68.37,1.85,1.85,0,0,0,1-.3c.12,0,.17.16.15.34a1.76,1.76,0,0,1-.25.88,7.36,7.36,0,0,1-1.25.64,3.1,3.1,0,0,1-1.45.27,2.18,2.18,0,0,1-1.29-.61,2.44,2.44,0,0,1-.77-1.17l-.24.17c-.14.1-.33.22-.57.36a8.17,8.17,0,0,1-.81.41,4.71,4.71,0,0,1-1,.32,4.28,4.28,0,0,1-1.18.07,3.54,3.54,0,0,1-2.35-1,2.82,2.82,0,0,1-.75-2.31,2.73,2.73,0,0,1,.45-1.3,3.56,3.56,0,0,1,.9-1,6.12,6.12,0,0,1,1.34-.68,12.54,12.54,0,0,1,1.42-.46l1.52-.34,1.29-.28a.47.47,0,0,0,.31-.45l.13-1.63a2.56,2.56,0,0,0-.34-1.67,1.55,1.55,0,0,0-1.23-.7,1.8,1.8,0,0,0-1.44.43,2.23,2.23,0,0,0-.63,1.51,1,1,0,0,1-.52.84,1.84,1.84,0,0,1-1,.2,1.68,1.68,0,0,1-1.48-.84q.12-1.42,2.16-2.51A7.46,7.46,0,0,1,549.95,109.18Zm-2.27,11.27a2.3,2.3,0,0,0,1.41-.3,1.17,1.17,0,0,0,.66-.9l.25-3c-.14,0-.44.12-.9.22s-.81.19-1.05.27a7.91,7.91,0,0,0-.86.35,1.8,1.8,0,0,0-.75.6,1.63,1.63,0,0,0-.29.81,1.83,1.83,0,0,0,.36,1.43A1.71,1.71,0,0,0,547.68,120.45Z"/><path class="cls-1" d="M567.11,110.59q3.82.31,3.32,6.39l-.23,2.81a12.44,12.44,0,0,0,0,2.68q0,.21.78.5a4.53,4.53,0,0,0,1,.31c.06,0,.08.15.07.44a1.7,1.7,0,0,1-.09.57c-.12,0-.63-.11-1.55-.25s-1.6-.22-2.05-.26-1.13-.06-2-.07h-1.54a.87.87,0,0,1-.07-.57c0-.3.08-.44.15-.43a3.57,3.57,0,0,0,1-.14c.46-.11.71-.24.76-.37a8.53,8.53,0,0,0,.42-2.14l.23-2.81a6.46,6.46,0,0,0-.38-3.49,2.39,2.39,0,0,0-2-1.15,2.75,2.75,0,0,0-1.7.38,1.43,1.43,0,0,0-.8,1.05l-.42,5.1a12.43,12.43,0,0,0,0,2.68q0,.21.75.49a4.26,4.26,0,0,0,.94.3c.08,0,.11.15.1.44a1.71,1.71,0,0,1-.09.57l-1.55-.25q-1.31-.2-2-.25c-.48,0-1.16-.07-2.07-.08h-1.6a.87.87,0,0,1-.07-.57q0-.44.16-.43a4.15,4.15,0,0,0,1.1-.13q.74-.16.82-.37a9.75,9.75,0,0,0,.38-2.15l.4-4.83a2.83,2.83,0,0,0-.32-1.93,1.43,1.43,0,0,0-.63-.5,3.29,3.29,0,0,0-.7-.24c-.19,0-.28-.07-.27-.11,0-.57.12-.87.22-.88a42.09,42.09,0,0,0,4.84-.5l.08,0h.16c.08,0,.14.08.19.22a.9.9,0,0,1,.06.33,10.15,10.15,0,0,0-.21,1.06.24.24,0,0,0,0,.15.46.46,0,0,0,.16-.08,6.59,6.59,0,0,1,1.92-1.09A5.2,5.2,0,0,1,567.11,110.59Z"/><path class="cls-1" d="M581.4,111.77a7.19,7.19,0,0,1,2.76.75,4.74,4.74,0,0,1,1.67,1.29,3.69,3.69,0,0,1-.48,1.65,1.1,1.1,0,0,1-1.08.58,1.33,1.33,0,0,1-.88-.37,3.39,3.39,0,0,1-.62-1,2.15,2.15,0,0,0-1.87-1.53,2.29,2.29,0,0,0-2.14,1.12,6.35,6.35,0,0,0-1,3.18,6,6,0,0,0,.77,4,3.51,3.51,0,0,0,2.68,1.52,8.34,8.34,0,0,0,.86,0,4.54,4.54,0,0,0,.78-.08l.64-.14a2.49,2.49,0,0,0,.57-.22l.42-.22.63-.35a.46.46,0,0,1,.13.19.57.57,0,0,1,.07.3.91.91,0,0,1-.23.55,4.85,4.85,0,0,1-1.88,1.46,5.45,5.45,0,0,1-3,.56,6,6,0,0,1-4.33-2.29,6.56,6.56,0,0,1-1.47-4.86,6.76,6.76,0,0,1,2.16-4.52A6,6,0,0,1,581.4,111.77Z"/><path class="cls-1" d="M594.29,112.82a5.5,5.5,0,0,1,2.44.75,4.71,4.71,0,0,1,1.6,1.53,6.88,6.88,0,0,1,.81,1.83,5.13,5.13,0,0,1,.18,1.76c0,.44-.13.7-.29.8a1.69,1.69,0,0,1-.92.09L591,119c-.14,0-.21,0-.22.16a5.78,5.78,0,0,0,.21,2.11,4.1,4.1,0,0,0,1.17,1.86,3.5,3.5,0,0,0,2.18.92,8.08,8.08,0,0,0,.86,0A4.46,4.46,0,0,0,596,124l.64-.14a2.54,2.54,0,0,0,.57-.22l.42-.22.63-.35a.46.46,0,0,1,.13.19.58.58,0,0,1,.07.3.91.91,0,0,1-.22.55,4.84,4.84,0,0,1-1.88,1.46,5.52,5.52,0,0,1-3,.56,6,6,0,0,1-4.29-2.28,6.41,6.41,0,0,1-1.49-4.79,6.88,6.88,0,0,1,2.13-4.72A5.76,5.76,0,0,1,594.29,112.82Zm-.32,1.35a2.1,2.1,0,0,0-1.31.31,2.79,2.79,0,0,0-.94.94,5.72,5.72,0,0,0-.52,1.08,3.7,3.7,0,0,0-.21.86c0,.14,0,.21.16.22l4.8.39c.18,0,.28-.13.3-.42a3.85,3.85,0,0,0-.52-2.16A2.13,2.13,0,0,0,594,114.17Z"/><path class="cls-1" d="M608.11,113.9a5.12,5.12,0,0,1,2.13.59q.15,0,.19-.46l.23-2.79a10.33,10.33,0,0,0,0-2q-.11-.48-1.5-.6l-.24,0q-.18,0-.14-.49c0-.32.1-.47.22-.46.6,0,1.18,0,1.75-.1s1-.11,1.42-.18.7-.14,1-.22l.63-.17.24-.05h.06c.08,0,.15.07.22.18a.54.54,0,0,1,.09.32,11.33,11.33,0,0,0-.52,2.76l-1.07,13a10.84,10.84,0,0,0,0,2.21.44.44,0,0,0,.27.35,1.84,1.84,0,0,0,.55.19l.56.09.29,0a.61.61,0,0,1,0,.36c0,.4-.11.59-.23.58-.28,0-.63,0-1.06,0l-1.26.09-1.17.11-1.25.15q-.18,0-.14-.52l0-.5a.13.13,0,0,0,0-.12.05.05,0,0,0-.07,0,5,5,0,0,1-3.17.84,5.76,5.76,0,0,1-4-2.11,6,6,0,0,1-1.42-4.58,7,7,0,0,1,2.44-4.86A6.51,6.51,0,0,1,608.11,113.9Zm-.38,1.4a2.6,2.6,0,0,0-2.48,1.14,7,7,0,0,0-1.09,3.52,7.17,7.17,0,0,0,.6,4,2.92,2.92,0,0,0,2.46,1.62,2.47,2.47,0,0,0,1.67-.38,1.64,1.64,0,0,0,.73-1.27l.51-6.22a2.09,2.09,0,0,0-.05-.63,2.81,2.81,0,0,0-.3-.73,1.92,1.92,0,0,0-.75-.69A3.17,3.17,0,0,0,607.73,115.3Z"/><path class="cls-1" d="M628.08,124.49a12.21,12.21,0,0,0,0,2.68q0,.21.69.52a3.21,3.21,0,0,0,.88.33c.06,0,.08.15.07.42a1.6,1.6,0,0,1-.09.56l-1.1-.17-1.25-.18-1.07-.12q-.56,0-1.13-.06l-1.25,0-1.13,0a.85.85,0,0,1-.07-.56c0-.29.07-.43.15-.42a3.21,3.21,0,0,0,1-.17c.46-.13.71-.26.76-.4a9.81,9.81,0,0,0,.42-2.17l1-12.33a10.25,10.25,0,0,0,0-2q-.11-.49-1.44-.6l-.3,0c-.12,0-.17-.13-.15-.37s.1-.47.22-.46c.62,0,1.21,0,1.77-.09s1-.11,1.4-.18l1-.2.66-.17.21-.07h.06c.08,0,.16.07.24.2a.92.92,0,0,1,.14.31,9.39,9.39,0,0,0-.58,2.76Z"/><path class="cls-1" d="M638.91,116.49a3.65,3.65,0,0,1,2.68,1.19,4.75,4.75,0,0,1,.65,3.38l-.48,5.84a1.36,1.36,0,0,0,.19.93.89.89,0,0,0,.68.37,1.85,1.85,0,0,0,1-.3c.12,0,.17.16.15.34a1.76,1.76,0,0,1-.25.87,7.32,7.32,0,0,1-1.25.64,3.11,3.11,0,0,1-1.45.27,2.18,2.18,0,0,1-1.29-.61,2.44,2.44,0,0,1-.77-1.17l-.24.17c-.14.1-.33.22-.57.36a8.64,8.64,0,0,1-.81.41,4.71,4.71,0,0,1-1,.32,4.32,4.32,0,0,1-1.18.07,3.55,3.55,0,0,1-2.35-1,2.82,2.82,0,0,1-.75-2.31,2.74,2.74,0,0,1,.45-1.3,3.55,3.55,0,0,1,.9-1,6.13,6.13,0,0,1,1.34-.68,12.54,12.54,0,0,1,1.42-.46l1.52-.34,1.29-.28a.47.47,0,0,0,.31-.45l.13-1.63a2.56,2.56,0,0,0-.34-1.67,1.56,1.56,0,0,0-1.23-.7,1.8,1.8,0,0,0-1.44.43,2.23,2.23,0,0,0-.63,1.51,1,1,0,0,1-.52.84,1.84,1.84,0,0,1-1,.2,1.68,1.68,0,0,1-1.48-.84q.12-1.42,2.16-2.51A7.46,7.46,0,0,1,638.91,116.49Zm-2.27,11.27a2.31,2.31,0,0,0,1.41-.3,1.17,1.17,0,0,0,.66-.9l.25-3q-.22.07-.9.22T637,124a8.32,8.32,0,0,0-.86.35,1.79,1.79,0,0,0-.75.59,1.63,1.63,0,0,0-.29.81,1.83,1.83,0,0,0,.36,1.43A1.71,1.71,0,0,0,636.65,127.75Z"/><path class="cls-1" d="M656.08,117.89q3.82.31,3.32,6.39l-.23,2.81a12.44,12.44,0,0,0,0,2.68q0,.21.78.5a4.48,4.48,0,0,0,1,.31c.06,0,.08.15.07.44a1.71,1.71,0,0,1-.09.57c-.12,0-.63-.11-1.55-.25s-1.6-.22-2.05-.26-1.13-.06-2-.07h-1.54a.87.87,0,0,1-.07-.57c0-.3.08-.44.15-.43a3.57,3.57,0,0,0,1-.14q.68-.17.76-.37a8.55,8.55,0,0,0,.41-2.14l.23-2.81a6.46,6.46,0,0,0-.38-3.49,2.39,2.39,0,0,0-2-1.15,2.75,2.75,0,0,0-1.7.38,1.43,1.43,0,0,0-.8,1.05l-.42,5.1a12.5,12.5,0,0,0,0,2.68c0,.14.28.31.75.49a4.27,4.27,0,0,0,.94.3c.08,0,.11.15.1.44a1.71,1.71,0,0,1-.09.57l-1.55-.25q-1.31-.2-2-.25t-2.07-.08h-1.59a.86.86,0,0,1-.07-.57c0-.3.08-.44.16-.43a4.15,4.15,0,0,0,1.1-.13c.5-.11.77-.23.82-.37a9.69,9.69,0,0,0,.39-2.15l.4-4.83a2.83,2.83,0,0,0-.32-1.93,1.42,1.42,0,0,0-.63-.5,3.31,3.31,0,0,0-.7-.24c-.19,0-.28-.07-.27-.11,0-.57.12-.86.22-.88a42.18,42.18,0,0,0,4.84-.5l.08,0h.16c.08,0,.14.08.19.22a.92.92,0,0,1,.06.33,10.15,10.15,0,0,0-.21,1.06.24.24,0,0,0,0,.15.47.47,0,0,0,.16-.08,6.56,6.56,0,0,1,1.92-1.09A5.2,5.2,0,0,1,656.08,117.89Z"/><path class="cls-1" d="M669.65,119.07a9.42,9.42,0,0,1,2.43.59,9.18,9.18,0,0,0,2.34.58l1.69.14s.1.14.18.4a1.82,1.82,0,0,1,.1.6c0,.28-.09.41-.21.4l-1.92-.16c-.08,0-.12,0-.13.08s.07.28.2.79a4.2,4.2,0,0,1,.15,1.44,4.3,4.3,0,0,1-1.73,3,5.1,5.1,0,0,1-3.78,1.11,12.25,12.25,0,0,1-1.83-.27,1.59,1.59,0,0,0-.7.49,1.26,1.26,0,0,0-.36.7.61.61,0,0,0,.24.53,2,2,0,0,0,.85.37q.58.14,1,.2l1.18.16.44,0a10.49,10.49,0,0,1,4.27,1.17,2.34,2.34,0,0,1,1.2,2.29,4.67,4.67,0,0,1-2.45,3.68,8.13,8.13,0,0,1-5.14,1.22,7.71,7.71,0,0,1-3.71-1.14,2.67,2.67,0,0,1-1.42-2.56,2.31,2.31,0,0,1,1-1.59,4.91,4.91,0,0,1,1.92-1,3.39,3.39,0,0,1-1.35-1,2.17,2.17,0,0,1-.53-1.61q.11-1.27,2.41-2.46a3.94,3.94,0,0,1-1.48-1.66,4.38,4.38,0,0,1-.54-2.47,4,4,0,0,1,1.81-3.19A5.91,5.91,0,0,1,669.65,119.07Zm2.82,15.83q.08-1-1.38-1.5a18.85,18.85,0,0,0-4-.67l-.15,0-.16.08-.61.2a2.52,2.52,0,0,0-.5.29,1.44,1.44,0,0,0-.44.49,1.76,1.76,0,0,0-.19.7,2.08,2.08,0,0,0,1,1.87,4.63,4.63,0,0,0,2.46.92,4.49,4.49,0,0,0,2.78-.55A2.32,2.32,0,0,0,672.46,134.9ZM667,123.18a4.69,4.69,0,0,0,.39,2.49A1.85,1.85,0,0,0,669,126.8a1.77,1.77,0,0,0,1.69-.71,4,4,0,0,0,.69-2,4.88,4.88,0,0,0-.38-2.6,1.9,1.9,0,0,0-1.64-1.12,1.68,1.68,0,0,0-1.65.79A4.31,4.31,0,0,0,667,123.18Z"/><path class="cls-1" d="M691.12,124l-.48,5.87a6.54,6.54,0,0,0,.07,2.09.62.62,0,0,0,.32.26,2.29,2.29,0,0,0,.51.16l.49.07a.54.54,0,0,1,.25,0c.08,0,.11.12.1.28a2.31,2.31,0,0,1-.09.4c-.06.18-.12.27-.2.27a6.74,6.74,0,0,0-1.06,0l-1.25.11-1.14.13-1.21.14c-.14,0-.19-.18-.17-.49l.11-1.3c0-.1,0-.15-.08-.16a6.59,6.59,0,0,1-1.92,1.18,5,5,0,0,1-2.39.4,3.12,3.12,0,0,1-1.72-.65,3.6,3.6,0,0,1-1.08-1.4,6.38,6.38,0,0,1-.48-1.77,9,9,0,0,1,0-1.88l.27-3.32a2.82,2.82,0,0,0-.32-1.93,1.64,1.64,0,0,0-.64-.5,3.08,3.08,0,0,0-.7-.24c-.2,0-.29-.07-.29-.11q.07-.86.22-.88a22.47,22.47,0,0,0,2.46-.16,23,23,0,0,0,2.38-.34l.12,0,.12,0c.1,0,.17.08.21.23a1.08,1.08,0,0,1,0,.33q-.43,2-.48,2.58l-.29,3.56a6.37,6.37,0,0,0,.38,3.37,2.62,2.62,0,0,0,3.67.73,1.58,1.58,0,0,0,.74-1.06l.4-4.89a2.83,2.83,0,0,0-.32-1.94,1.43,1.43,0,0,0-.63-.5,3.35,3.35,0,0,0-.71-.24c-.2,0-.29-.07-.29-.11,0-.57.13-.86.25-.87a22.74,22.74,0,0,0,2.43-.16,23.38,23.38,0,0,0,2.38-.34l.24,0c.1,0,.17.08.22.23a.54.54,0,0,1,0,.33Q691.16,123.46,691.12,124Z"/><path class="cls-1" d="M701.4,121.61a3.65,3.65,0,0,1,2.68,1.19,4.76,4.76,0,0,1,.65,3.38l-.48,5.84a1.36,1.36,0,0,0,.19.92.89.89,0,0,0,.69.37,1.85,1.85,0,0,0,1-.3c.12,0,.17.16.15.34a1.76,1.76,0,0,1-.25.87,7.32,7.32,0,0,1-1.25.64,3.11,3.11,0,0,1-1.45.27,2.17,2.17,0,0,1-1.29-.61,2.44,2.44,0,0,1-.77-1.17l-.24.17c-.14.1-.33.22-.57.36a8.77,8.77,0,0,1-.81.41,4.77,4.77,0,0,1-1,.32,4.32,4.32,0,0,1-1.18.07,3.55,3.55,0,0,1-2.35-1,2.82,2.82,0,0,1-.75-2.31,2.74,2.74,0,0,1,.45-1.3,3.54,3.54,0,0,1,.9-1,6.09,6.09,0,0,1,1.34-.68,12.16,12.16,0,0,1,1.42-.46l1.52-.34,1.29-.28a.47.47,0,0,0,.31-.45l.13-1.63a2.57,2.57,0,0,0-.34-1.67,1.56,1.56,0,0,0-1.23-.7,1.81,1.81,0,0,0-1.44.43,2.22,2.22,0,0,0-.63,1.51,1,1,0,0,1-.52.84,1.85,1.85,0,0,1-1,.2,1.68,1.68,0,0,1-1.48-.84q.12-1.42,2.16-2.51A7.46,7.46,0,0,1,701.4,121.61Zm-2.27,11.27a2.29,2.29,0,0,0,1.41-.3,1.17,1.17,0,0,0,.66-.9l.25-3q-.22.07-.9.22c-.46.1-.81.19-1.05.27a7.9,7.9,0,0,0-.86.35,1.8,1.8,0,0,0-.75.59,1.64,1.64,0,0,0-.29.81,1.83,1.83,0,0,0,.36,1.43A1.7,1.7,0,0,0,699.13,132.88Z"/><path class="cls-1" d="M714.53,122.75a9.42,9.42,0,0,1,2.43.59,9.18,9.18,0,0,0,2.34.58l1.69.14s.1.14.18.4a1.84,1.84,0,0,1,.1.6c0,.28-.09.41-.21.4l-1.93-.16c-.08,0-.12,0-.12.08s.07.28.2.79a4.23,4.23,0,0,1,.15,1.44,4.3,4.3,0,0,1-1.73,3,5.09,5.09,0,0,1-3.77,1.11,12.33,12.33,0,0,1-1.83-.27,1.6,1.6,0,0,0-.7.5,1.27,1.27,0,0,0-.36.7.61.61,0,0,0,.24.53,2,2,0,0,0,.85.37q.59.14,1,.2l1.18.16.44,0a10.48,10.48,0,0,1,4.27,1.17,2.34,2.34,0,0,1,1.2,2.29,4.68,4.68,0,0,1-2.45,3.68,8.13,8.13,0,0,1-5.14,1.22,7.73,7.73,0,0,1-3.71-1.14,2.67,2.67,0,0,1-1.41-2.56,2.31,2.31,0,0,1,1-1.59,4.93,4.93,0,0,1,1.91-1,3.38,3.38,0,0,1-1.35-1,2.17,2.17,0,0,1-.52-1.61q.11-1.27,2.41-2.46a3.94,3.94,0,0,1-1.47-1.66,4.38,4.38,0,0,1-.54-2.48,4,4,0,0,1,1.81-3.19A5.92,5.92,0,0,1,714.53,122.75Zm2.82,15.83q.08-1-1.38-1.5a18.79,18.79,0,0,0-4-.67l-.15,0-.16.08c-.26.08-.47.14-.61.2a2.48,2.48,0,0,0-.5.29,1.43,1.43,0,0,0-.44.49,1.74,1.74,0,0,0-.19.7,2.08,2.08,0,0,0,1,1.87,4.65,4.65,0,0,0,2.46.92,4.49,4.49,0,0,0,2.77-.55A2.32,2.32,0,0,0,717.35,138.58Zm-5.42-11.72a4.7,4.7,0,0,0,.39,2.49,1.84,1.84,0,0,0,1.58,1.13,1.76,1.76,0,0,0,1.68-.71,4,4,0,0,0,.69-2,4.89,4.89,0,0,0-.38-2.6,1.9,1.9,0,0,0-1.64-1.12,1.68,1.68,0,0,0-1.65.79A4.31,4.31,0,0,0,711.92,126.86Z"/><path class="cls-1" d="M729.38,123.91a5.51,5.51,0,0,1,2.44.75,4.71,4.71,0,0,1,1.6,1.53,6.88,6.88,0,0,1,.81,1.83,5.13,5.13,0,0,1,.18,1.76c0,.44-.13.7-.29.8a1.69,1.69,0,0,1-.92.09l-7.08-.58c-.14,0-.21,0-.22.16a5.76,5.76,0,0,0,.22,2.11,4.09,4.09,0,0,0,1.17,1.86,3.5,3.5,0,0,0,2.18.92,8.08,8.08,0,0,0,.86,0,4.46,4.46,0,0,0,.78-.08l.64-.14a2.55,2.55,0,0,0,.57-.22l.42-.22.63-.35a.46.46,0,0,1,.13.19.57.57,0,0,1,.07.3.91.91,0,0,1-.22.55,4.84,4.84,0,0,1-1.88,1.46,5.51,5.51,0,0,1-3,.56,6,6,0,0,1-4.29-2.28,6.41,6.41,0,0,1-1.49-4.79,6.88,6.88,0,0,1,2.13-4.72A5.76,5.76,0,0,1,729.38,123.91Zm-.32,1.35a2.1,2.1,0,0,0-1.31.31,2.79,2.79,0,0,0-.94.94,5.7,5.7,0,0,0-.52,1.08,3.69,3.69,0,0,0-.21.86q0,.21.16.22l4.8.39c.18,0,.28-.13.3-.42a3.85,3.85,0,0,0-.52-2.16A2.13,2.13,0,0,0,729.06,125.26Z"/><path class="cls-1" d="M93.05,123.28a.86.86,0,0,0-.22-.62,1.3,1.3,0,0,0-.6-.38,5.21,5.21,0,0,0-.68-.17,4.44,4.44,0,0,0-.61-.07h-.12c-.08,0-.12-.15-.12-.45s0-.48.09-.53q.39,0,1.57.14t1.9.15c.42,0,.95,0,1.59,0s1.12-.05,1.42,0a1.86,1.86,0,0,1,0,.51c0,.3-.05.44-.13.44a3.4,3.4,0,0,0-1.19.33,1.82,1.82,0,0,0-1.05.87L90.2,133.78a1.16,1.16,0,0,1-.42.42,1,1,0,0,1-.59.17.37.37,0,0,1-.38-.22l-3.34-8.32L82,133.47a1.58,1.58,0,0,1-.36.4.9.9,0,0,1-.65.22.44.44,0,0,1-.41-.22q-.63-1.57-1.49-3.81t-1.58-4q-.72-1.72-1.66-3.74a1.37,1.37,0,0,0-.75-.62,2.87,2.87,0,0,0-.94-.24c-.08,0-.11-.16-.1-.48s.06-.44.14-.5.7.05,1.5.14,1.43.14,1.88.15,1.13,0,2,0l1.55,0a1.64,1.64,0,0,1,0,.54c0,.26,0,.4-.1.41a3.54,3.54,0,0,0-1,.17q-.65.19-.66.6s.91,2.35,2.74,6.93q.36-.82.82-1.86L83.7,126l.48-1.1q.24-.56.34-.84a1.6,1.6,0,0,0,.1-.37,2.17,2.17,0,0,0-.35-1.2,1.41,1.41,0,0,0-.64-.5,2.36,2.36,0,0,0-1.06-.21c-.08,0-.11-.15-.1-.44s.06-.46.14-.52.71.05,1.47.14,1.38.14,1.85.15,1.08,0,1.94,0l1.52,0a1.47,1.47,0,0,1,0,.55c0,.29-.06.43-.12.43q-1.51-.05-1.55,1a47.76,47.76,0,0,0,2.57,6.69q.52-1.23,1.27-2.89t1.11-2.46A4,4,0,0,0,93.05,123.28Z"/><path class="cls-1" d="M108.74,121.56q3.8.13,3.6,6l-.1,3.06a10.9,10.9,0,0,0,.15,2.68q0,.21.77.46a4.54,4.54,0,0,0,1,.26c.06,0,.09.15.09.43a3,3,0,0,1,0,.58l-1.58-.17c-.92-.09-1.6-.14-2-.16s-1.16,0-2,0l-1.57.07a1.14,1.14,0,0,1-.07-.57c0-.3,0-.44.1-.44a3.5,3.5,0,0,0,1-.19c.45-.13.71-.27.77-.41a11.4,11.4,0,0,0,.25-2.16l.1-2.91a6.21,6.21,0,0,0-.55-3.43,2.43,2.43,0,0,0-2.09-1,2.86,2.86,0,0,0-1.65.45,1.41,1.41,0,0,0-.78,1.1l-.17,5.11a10.9,10.9,0,0,0,.15,2.68q.05.21.77.46a4.21,4.21,0,0,0,1,.26c.06,0,.09.15.09.43a1.65,1.65,0,0,1-.07.58l-1.55-.17q-1.32-.13-2-.16t-2.07,0l-1.59.06a.87.87,0,0,1-.1-.57c0-.3.05-.44.13-.44a4.17,4.17,0,0,0,1.09-.19c.49-.13.76-.27.8-.4a9.65,9.65,0,0,0,.28-2.13l.42-12.36a11.69,11.69,0,0,0-.08-2q-.13-.48-1.53-.53h-.27q-.18,0-.16-.48c0-.32.08-.47.19-.47q.92-.06,1.76-.18t1.39-.25q.55-.13,1-.26l.86-.27h.06c.08,0,.16.06.23.17a.82.82,0,0,1,.14.32,9.57,9.57,0,0,0-.45,2.78l-.2,6c0,.12,0,.18.11.18s.06,0,.12-.08a5.65,5.65,0,0,1,1.87-1.23A5.47,5.47,0,0,1,108.74,121.56Z"/><path class="cls-1" d="M122.59,122a5.51,5.51,0,0,1,2.48.63,4.7,4.7,0,0,1,1.67,1.46,6.88,6.88,0,0,1,.89,1.79,5.12,5.12,0,0,1,.27,1.75c0,.44-.1.71-.25.81a1.69,1.69,0,0,1-.91.13l-7.1-.24c-.14,0-.21.05-.21.17a5.78,5.78,0,0,0,.32,2.09,4.09,4.09,0,0,0,1.26,1.8,3.5,3.5,0,0,0,2.22.82,8.1,8.1,0,0,0,.86,0,4.48,4.48,0,0,0,.78-.12l.63-.17a2.52,2.52,0,0,0,.56-.25l.41-.24.61-.38a.47.47,0,0,1,.14.18.57.57,0,0,1,.08.3.91.91,0,0,1-.2.56,4.85,4.85,0,0,1-1.81,1.54,5.52,5.52,0,0,1-3,.7,6,6,0,0,1-4.39-2.07,6.42,6.42,0,0,1-1.71-4.71,6.88,6.88,0,0,1,1.9-4.81A5.76,5.76,0,0,1,122.59,122Zm-.25,1.36a2.1,2.1,0,0,0-1.29.37,2.8,2.8,0,0,0-.9,1,5.8,5.8,0,0,0-.47,1.1,3.63,3.63,0,0,0-.16.87c0,.14.05.21.17.21l4.81.16c.18,0,.27-.14.28-.44a3.85,3.85,0,0,0-.63-2.13A2.13,2.13,0,0,0,122.34,123.39Z"/><path class="cls-1" d="M139.47,122.6q3.83.13,3.63,6.22l-.1,2.82a12.38,12.38,0,0,0,.12,2.68q.05.21.8.46a4.51,4.51,0,0,0,1,.26c.06,0,.09.15.09.43a1.68,1.68,0,0,1-.07.58q-.18,0-1.55-.17t-2.06-.16q-.71,0-2,0l-1.54.07a.88.88,0,0,1-.1-.57c0-.3.06-.44.13-.44a3.55,3.55,0,0,0,1-.19q.68-.2.74-.41a8.58,8.58,0,0,0,.31-2.16l.1-2.82a6.45,6.45,0,0,0-.55-3.47,2.39,2.39,0,0,0-2.09-1.05,2.75,2.75,0,0,0-1.68.46,1.43,1.43,0,0,0-.75,1.09l-.17,5.11a12.46,12.46,0,0,0,.12,2.68q.05.21.77.46a4.31,4.31,0,0,0,1,.26c.08,0,.12.15.12.44a1.69,1.69,0,0,1-.06.58l-1.56-.17q-1.32-.13-2-.16t-2.07,0l-1.59.06a.88.88,0,0,1-.1-.57q0-.45.13-.44a4.12,4.12,0,0,0,1.09-.19q.74-.2.8-.4a9.75,9.75,0,0,0,.28-2.16l.17-4.84a2.82,2.82,0,0,0-.41-1.92,1.43,1.43,0,0,0-.65-.47,3.34,3.34,0,0,0-.71-.2c-.19,0-.28-.06-.28-.1,0-.57.08-.87.18-.89a42.12,42.12,0,0,0,4.82-.73l.08,0H135c.08,0,.15.08.2.21a.89.89,0,0,1,.08.33,9.9,9.9,0,0,0-.16,1.07.23.23,0,0,0,0,.15.44.44,0,0,0,.15-.08,6.6,6.6,0,0,1,1.87-1.19A5.22,5.22,0,0,1,139.47,122.6Z"/><path class="cls-1" d="M162.65,115.87a5.88,5.88,0,0,1,2.05.38,2.08,2.08,0,0,1,1.06.79,3.33,3.33,0,0,1-.22,1.64,1.07,1.07,0,0,1-1.11.69,1.16,1.16,0,0,1-.89-.52c-.26-.34-.53-.67-.81-1a1.37,1.37,0,0,0-1-.53,1.58,1.58,0,0,0-1.36.73,5,5,0,0,0-.82,1.85,12,12,0,0,0-.31,2.4l0,1.37s0,0,.06.09a.18.18,0,0,0,.12.06l3.27.11a.23.23,0,0,1,.15,0,.32.32,0,0,1,0,.18,3.05,3.05,0,0,1-.4,1.35l-3.09-.11a.16.16,0,0,0-.18.17l-.23,6.63a11.31,11.31,0,0,0,.15,2.68c0,.14.29.29.77.46a4.18,4.18,0,0,0,1,.26c.06,0,.09.15.09.43a1.66,1.66,0,0,1-.07.58q-.18,0-1.54-.17t-2.08-.16q-.71,0-2,0l-1.55.07a.57.57,0,0,1-.11-.33,1.81,1.81,0,0,1,0-.46c0-.15.07-.22.13-.22a4,4,0,0,0,1-.19c.48-.13.74-.27.79-.4a9.86,9.86,0,0,0,.35-2.43l.23-6.83c0-.14-.05-.21-.17-.21l-1.78-.06s-.06-.06-.05-.18a1.59,1.59,0,0,1,.45-.85,1.19,1.19,0,0,1,1-.5l.48,0a.16.16,0,0,0,.18-.17v-.3a8.08,8.08,0,0,1,2-5.28A5.57,5.57,0,0,1,162.65,115.87Z"/><path class="cls-1" d="M169.58,132.55a11,11,0,0,0,.15,2.68q.05.21.79.46a4.36,4.36,0,0,0,1,.26c.08,0,.12.15.12.44a1.68,1.68,0,0,1-.06.58l-1.58-.17q-1.38-.14-2-.16t-2.1,0l-1.57.07a.89.89,0,0,1-.1-.57c0-.3.06-.44.13-.44a4.33,4.33,0,0,0,1.08-.19c.5-.13.77-.27.82-.4a9.77,9.77,0,0,0,.28-2.16l.17-4.84a2.83,2.83,0,0,0-.41-1.92,1.65,1.65,0,0,0-.67-.47,3.11,3.11,0,0,0-.71-.2c-.2,0-.29-.06-.29-.1,0-.57.09-.87.21-.89a22.35,22.35,0,0,0,2.42-.27,23.34,23.34,0,0,0,2.37-.45l.24-.05c.1,0,.17.08.23.22a.54.54,0,0,1,0,.33,25.63,25.63,0,0,0-.32,2.55ZM166.92,120a1.81,1.81,0,0,1-.49-1.33,1.76,1.76,0,0,1,.58-1.27,1.87,1.87,0,0,1,2.62.09,1.76,1.76,0,0,1,.49,1.31,1.81,1.81,0,0,1-.58,1.29,1.83,1.83,0,0,1-2.62-.09Z"/><path class="cls-1" d="M179.49,124a9.41,9.41,0,0,1,2.45.47,9.2,9.2,0,0,0,2.36.47L186,125s.1.13.19.39a1.86,1.86,0,0,1,.13.6c0,.28-.07.41-.19.41l-1.93-.07c-.08,0-.12,0-.12.08s.08.28.24.78a4.22,4.22,0,0,1,.22,1.44,4.3,4.3,0,0,1-1.58,3.11,5.09,5.09,0,0,1-3.72,1.29,12.07,12.07,0,0,1-1.84-.18,1.61,1.61,0,0,0-.67.53,1.27,1.27,0,0,0-.32.72.61.61,0,0,0,.27.51,2,2,0,0,0,.87.33c.39.07.73.12,1,.15l1.19.1.45,0a10.52,10.52,0,0,1,4.33,1,2.34,2.34,0,0,1,1.31,2.23,4.68,4.68,0,0,1-2.27,3.79,8.13,8.13,0,0,1-5.08,1.46,7.74,7.74,0,0,1-3.76-1,2.67,2.67,0,0,1-1.54-2.49,2.31,2.31,0,0,1,.9-1.63,4.9,4.9,0,0,1,1.87-1.07,3.38,3.38,0,0,1-1.4-1,2.17,2.17,0,0,1-.6-1.58q0-1.28,2.29-2.57a3.93,3.93,0,0,1-1.55-1.58,4.38,4.38,0,0,1-.66-2.45,4,4,0,0,1,1.66-3.28A5.92,5.92,0,0,1,179.49,124Zm3.57,15.68q0-1-1.45-1.43a18.91,18.91,0,0,0-4-.48l-.15,0-.15.08c-.26.09-.46.17-.6.23a2.55,2.55,0,0,0-.49.31,1.44,1.44,0,0,0-.42.51,1.73,1.73,0,0,0-.16.71,2.08,2.08,0,0,0,1.07,1.82,4.63,4.63,0,0,0,2.5.8,4.49,4.49,0,0,0,2.75-.68A2.32,2.32,0,0,0,183.06,139.71Zm-6-11.45a4.7,4.7,0,0,0,.51,2.47,1.85,1.85,0,0,0,1.63,1.05,1.77,1.77,0,0,0,1.65-.79,4,4,0,0,0,.59-2.08,4.88,4.88,0,0,0-.51-2.58,1.9,1.9,0,0,0-1.69-1,1.67,1.67,0,0,0-1.61.87A4.32,4.32,0,0,0,177.09,128.26Z"/><path class="cls-1" d="M198,124.6q3.8.13,3.6,6l-.1,3.06a10.9,10.9,0,0,0,.15,2.68q0,.21.77.46a4.6,4.6,0,0,0,1,.26c.06,0,.09.15.09.43a3,3,0,0,1,0,.58l-1.58-.17c-.92-.09-1.6-.14-2-.16s-1.16,0-2,0l-1.57.07a1.13,1.13,0,0,1-.07-.57c0-.3,0-.44.1-.44a3.54,3.54,0,0,0,1-.19c.45-.13.71-.27.77-.41a11.4,11.4,0,0,0,.25-2.16l.1-2.91a6.21,6.21,0,0,0-.55-3.42,2.43,2.43,0,0,0-2.09-1,2.85,2.85,0,0,0-1.65.45,1.41,1.41,0,0,0-.78,1.1l-.17,5.11a10.9,10.9,0,0,0,.15,2.68q.05.21.77.46a4.25,4.25,0,0,0,1,.26c.06,0,.09.15.09.43a1.65,1.65,0,0,1-.07.58l-1.55-.17q-1.32-.13-2-.16t-2.07,0l-1.59.06a.87.87,0,0,1-.1-.57c0-.3.05-.44.13-.44a4.09,4.09,0,0,0,1.09-.19c.49-.13.76-.27.8-.4a9.63,9.63,0,0,0,.28-2.13l.42-12.36a11.69,11.69,0,0,0-.08-2q-.13-.48-1.53-.53h-.27q-.18,0-.16-.48c0-.32.08-.47.19-.47q.92-.06,1.76-.18t1.39-.25q.55-.13,1-.26l.86-.27h.06a.32.32,0,0,1,.23.17.83.83,0,0,1,.14.32,9.57,9.57,0,0,0-.45,2.78l-.2,6c0,.12,0,.18.11.18s.06,0,.12-.08a5.68,5.68,0,0,1,1.87-1.23A5.5,5.5,0,0,1,198,124.6Z"/><path class="cls-1" d="M207.42,127l-1.81-.06c-.14,0-.2-.26-.18-.78a.77.77,0,0,1,0-.27,8.34,8.34,0,0,0,2.34-1.5l.88-.85q.48-.47,1.13-1.23a2.08,2.08,0,0,1,.56.09c.18.06.26.11.26.17l-.1,2.91,2.15.09,1.47.06c.16,0,.24.1.23.28a2.88,2.88,0,0,1-.34,1.3l-3.57-.12-.24,7.16a2.82,2.82,0,0,0,.44,1.83,1.7,1.7,0,0,0,1.37.67,2.84,2.84,0,0,0,.63-.05,3.15,3.15,0,0,0,.54-.15l.39-.17.21-.08c.08,0,.17.08.26.28a.7.7,0,0,1,.1.39,2.72,2.72,0,0,1-1.29.92,4.7,4.7,0,0,1-2.14.48,3.75,3.75,0,0,1-2.6-1.09,4,4,0,0,1-1-3.11Z"/><path class="cls-1" d="M221.46,134.32a11,11,0,0,0,.15,2.68q.05.21.79.46a4.37,4.37,0,0,0,1,.26c.08,0,.12.15.12.44a1.68,1.68,0,0,1-.06.58l-1.58-.17q-1.38-.14-2-.16t-2.1,0l-1.56.07a.88.88,0,0,1-.1-.57c0-.3.06-.44.13-.44a4.32,4.32,0,0,0,1.08-.19c.5-.13.77-.27.82-.4a9.76,9.76,0,0,0,.28-2.16l.17-4.84a2.82,2.82,0,0,0-.41-1.92,1.64,1.64,0,0,0-.67-.47,3.18,3.18,0,0,0-.71-.2c-.2,0-.29-.06-.29-.1,0-.57.09-.87.21-.89a22.62,22.62,0,0,0,2.42-.27,23.22,23.22,0,0,0,2.37-.46l.24-.05c.1,0,.17.08.23.22a.54.54,0,0,1,0,.33,25.63,25.63,0,0,0-.32,2.55Zm-2.67-12.54a1.81,1.81,0,0,1-.49-1.33,1.83,1.83,0,0,1,1.9-1.76,1.78,1.78,0,0,1,1.29.58,1.76,1.76,0,0,1,.49,1.31,1.81,1.81,0,0,1-.58,1.29,1.83,1.83,0,0,1-2.62-.09Z"/><path class="cls-1" d="M235.41,125.87q3.83.13,3.62,6.22l-.1,2.82a12.39,12.39,0,0,0,.12,2.68q.05.21.8.46a4.63,4.63,0,0,0,1,.26c.06,0,.09.15.09.43a1.68,1.68,0,0,1-.07.58q-.18,0-1.55-.17t-2.06-.16q-.71,0-2,0l-1.54.07a.88.88,0,0,1-.1-.57c0-.3.06-.44.13-.44a3.55,3.55,0,0,0,1-.19q.68-.2.74-.41a8.59,8.59,0,0,0,.31-2.16l.1-2.82a6.45,6.45,0,0,0-.55-3.47,2.39,2.39,0,0,0-2.09-1.05,2.75,2.75,0,0,0-1.68.46,1.43,1.43,0,0,0-.75,1.09l-.17,5.11a12.45,12.45,0,0,0,.12,2.68q.05.21.77.46a4.26,4.26,0,0,0,1,.26c.08,0,.12.15.12.44a1.67,1.67,0,0,1-.06.58l-1.56-.17q-1.32-.13-2-.16t-2.07,0l-1.59.06a.88.88,0,0,1-.1-.57c0-.3.06-.44.13-.44a4.12,4.12,0,0,0,1.09-.19q.74-.2.8-.4a9.75,9.75,0,0,0,.28-2.16l.17-4.84a2.82,2.82,0,0,0-.41-1.92,1.43,1.43,0,0,0-.65-.47,3.47,3.47,0,0,0-.71-.2c-.19,0-.28-.06-.28-.1,0-.57.08-.87.18-.89a42.12,42.12,0,0,0,4.82-.73l.08,0h.16c.08,0,.15.07.2.21a.88.88,0,0,1,.08.33,9.89,9.89,0,0,0-.16,1.06.24.24,0,0,0,0,.15.47.47,0,0,0,.15-.08,6.6,6.6,0,0,1,1.87-1.19A5.19,5.19,0,0,1,235.41,125.87Z"/><path class="cls-1" d="M249,126.4a9.41,9.41,0,0,1,2.45.47,9.19,9.19,0,0,0,2.36.47l1.69.06s.1.13.19.39a1.86,1.86,0,0,1,.13.6c0,.28-.07.41-.19.41l-1.93-.07c-.08,0-.12,0-.12.08s.08.28.24.78a4.24,4.24,0,0,1,.22,1.44,4.3,4.3,0,0,1-1.58,3.11,5.09,5.09,0,0,1-3.72,1.29,12.2,12.2,0,0,1-1.84-.18,1.6,1.6,0,0,0-.67.53,1.27,1.27,0,0,0-.32.72.61.61,0,0,0,.27.51,2,2,0,0,0,.87.33q.59.11,1,.15l1.19.1.45,0a10.51,10.51,0,0,1,4.32,1,2.34,2.34,0,0,1,1.31,2.23,4.67,4.67,0,0,1-2.27,3.79,8.13,8.13,0,0,1-5.08,1.46,7.73,7.73,0,0,1-3.76-1,2.67,2.67,0,0,1-1.54-2.49,2.31,2.31,0,0,1,.9-1.63,4.92,4.92,0,0,1,1.87-1.07,3.4,3.4,0,0,1-1.39-1,2.16,2.16,0,0,1-.6-1.58q0-1.28,2.29-2.57a3.94,3.94,0,0,1-1.55-1.58,4.37,4.37,0,0,1-.66-2.45,4,4,0,0,1,1.66-3.27A5.91,5.91,0,0,1,249,126.4Zm3.57,15.68q0-1-1.45-1.43a18.91,18.91,0,0,0-4-.48l-.15,0-.15.08c-.26.09-.46.17-.6.23a2.55,2.55,0,0,0-.49.31,1.44,1.44,0,0,0-.42.51,1.74,1.74,0,0,0-.16.71,2.08,2.08,0,0,0,1.07,1.82,4.63,4.63,0,0,0,2.5.8,4.49,4.49,0,0,0,2.75-.68A2.32,2.32,0,0,0,252.59,142.07Zm-6-11.45a4.71,4.71,0,0,0,.51,2.47,1.85,1.85,0,0,0,1.63,1.05,1.77,1.77,0,0,0,1.65-.79,4,4,0,0,0,.59-2.08,4.9,4.9,0,0,0-.51-2.58,1.9,1.9,0,0,0-1.69-1,1.68,1.68,0,0,0-1.61.87A4.33,4.33,0,0,0,246.62,130.63Z"/><path class="cls-1" d="M273.06,119.63a5.88,5.88,0,0,1,2.05.38,2.07,2.07,0,0,1,1.06.79,3.34,3.34,0,0,1-.22,1.64,1.07,1.07,0,0,1-1.11.69,1.16,1.16,0,0,1-.89-.52q-.39-.5-.81-1a1.36,1.36,0,0,0-1-.53,1.58,1.58,0,0,0-1.36.73,5,5,0,0,0-.82,1.85,12,12,0,0,0-.31,2.4l0,1.37s0,0,.06.09a.18.18,0,0,0,.12.06l3.27.11a.23.23,0,0,1,.15,0,.32.32,0,0,1,0,.18,3.05,3.05,0,0,1-.4,1.35l-3.09-.11a.16.16,0,0,0-.18.17l-.23,6.63a11.31,11.31,0,0,0,.15,2.68c0,.14.29.29.77.46a4.23,4.23,0,0,0,1,.26c.06,0,.09.15.09.43a1.65,1.65,0,0,1-.07.58q-.18,0-1.54-.17t-2.08-.16q-.71,0-2,0l-1.55.07a.56.56,0,0,1-.11-.33,1.81,1.81,0,0,1,0-.46c0-.15.07-.22.13-.22a4,4,0,0,0,1-.19q.72-.2.79-.41a9.86,9.86,0,0,0,.35-2.43l.23-6.83c0-.14-.05-.21-.17-.21l-1.78-.06s-.06-.06-.05-.18a1.59,1.59,0,0,1,.45-.85,1.19,1.19,0,0,1,1-.5l.48,0a.16.16,0,0,0,.18-.17V127a8.08,8.08,0,0,1,2-5.28A5.56,5.56,0,0,1,273.06,119.63Z"/><path class="cls-1" d="M281.73,127.45a6.55,6.55,0,0,1,4.7,2.11,6.37,6.37,0,0,1,1.82,4.78,6.73,6.73,0,0,1-13.46-.46,6.41,6.41,0,0,1,2.11-4.66A6.52,6.52,0,0,1,281.73,127.45Zm-.43,1.38a2.39,2.39,0,0,0-2.21,1.28,6.39,6.39,0,0,0-.88,3.2,8.68,8.68,0,0,0,.82,4.22,3,3,0,0,0,2.63,1.87,2.43,2.43,0,0,0,2.23-1.29,6.32,6.32,0,0,0,.9-3.18,10.19,10.19,0,0,0-.29-2.88,5.25,5.25,0,0,0-1.17-2.26A2.76,2.76,0,0,0,281.29,128.83Z"/><path class="cls-1" d="M299.09,128a3,3,0,0,1,2.4,1.06q-.09,2.53-1.51,2.48a1.76,1.76,0,0,1-1.14-.63,1.87,1.87,0,0,0-1.26-.64,1.6,1.6,0,0,0-1.47.89,4,4,0,0,0-.59,1.93l-.13,3.71a12.45,12.45,0,0,0,.12,2.68c0,.14.29.29.77.46a4.2,4.2,0,0,0,1,.26c.06,0,.09.15.09.43a3,3,0,0,1,0,.58l-1.57-.17q-1.33-.13-2-.16t-2.07,0l-1.59.06a.88.88,0,0,1-.1-.57c0-.3.06-.44.13-.44a4.11,4.11,0,0,0,1.09-.19q.74-.2.8-.4a9.75,9.75,0,0,0,.28-2.16l.17-4.84a2.82,2.82,0,0,0-.41-1.92,1.43,1.43,0,0,0-.65-.47,3.38,3.38,0,0,0-.71-.2c-.19,0-.28-.06-.28-.1,0-.57.08-.87.18-.89a41.89,41.89,0,0,0,4.82-.73l.24-.05c.08,0,.15.07.2.21a.69.69,0,0,1,.06.34l-.06.41c0,.19-.06.38-.09.59a3.74,3.74,0,0,0-.06.4,5.44,5.44,0,0,1,1.5-1.39A3.26,3.26,0,0,1,299.09,128Z"/><path class="cls-1" d="M318.68,128.71a3,3,0,0,1,2.4,1.06q-.09,2.53-1.51,2.48a1.77,1.77,0,0,1-1.14-.63,1.86,1.86,0,0,0-1.26-.64,1.59,1.59,0,0,0-1.47.89,4,4,0,0,0-.59,1.93l-.13,3.71a12.45,12.45,0,0,0,.12,2.68q.05.21.77.46a4.17,4.17,0,0,0,1,.26c.06,0,.09.15.09.44a3,3,0,0,1,0,.58l-1.57-.17q-1.34-.13-2-.16t-2.07,0l-1.59.06a.88.88,0,0,1-.1-.57c0-.3.06-.44.13-.44a4.13,4.13,0,0,0,1.09-.19c.49-.13.76-.27.8-.4a9.75,9.75,0,0,0,.28-2.16l.17-4.84a2.82,2.82,0,0,0-.41-1.92,1.44,1.44,0,0,0-.65-.47,3.4,3.4,0,0,0-.71-.2c-.19,0-.28-.06-.28-.1,0-.57.08-.87.18-.89a42.12,42.12,0,0,0,4.82-.73l.24-.05c.08,0,.15.07.2.21a.69.69,0,0,1,.06.34l-.06.42c0,.19-.06.38-.09.59a3.74,3.74,0,0,0-.06.4,5.47,5.47,0,0,1,1.5-1.39A3.26,3.26,0,0,1,318.68,128.71Z"/><path class="cls-1" d="M329.29,129.07a3.65,3.65,0,0,1,2.73,1.06,4.75,4.75,0,0,1,.81,3.34l-.2,5.85a1.36,1.36,0,0,0,.24.92.89.89,0,0,0,.7.34,1.85,1.85,0,0,0,1-.35c.12,0,.17.16.17.33a1.76,1.76,0,0,1-.21.88,7.25,7.25,0,0,1-1.21.7,3.1,3.1,0,0,1-1.44.34,2.17,2.17,0,0,1-1.32-.55,2.44,2.44,0,0,1-.82-1.13l-.23.19c-.13.1-.32.23-.55.38a8.81,8.81,0,0,1-.79.45,4.72,4.72,0,0,1-1,.37,4.31,4.31,0,0,1-1.18.12,3.55,3.55,0,0,1-2.39-.9,2.82,2.82,0,0,1-.86-2.27,2.74,2.74,0,0,1,.39-1.33,3.54,3.54,0,0,1,.85-1,6,6,0,0,1,1.3-.74,12.08,12.08,0,0,1,1.4-.53l1.5-.41,1.28-.34a.46.46,0,0,0,.28-.47l.06-1.63a2.54,2.54,0,0,0-.42-1.65,1.55,1.55,0,0,0-1.26-.64,1.81,1.81,0,0,0-1.42.5,2.23,2.23,0,0,0-.56,1.54,1,1,0,0,1-.48.86,1.84,1.84,0,0,1-1,.25,1.68,1.68,0,0,1-1.52-.77q0-1.43,2-2.61A7.45,7.45,0,0,1,329.29,129.07Zm-1.73,11.36a2.3,2.3,0,0,0,1.39-.37,1.17,1.17,0,0,0,.61-.93l.1-3c-.14.05-.43.14-.89.27s-.8.23-1,.32a8.15,8.15,0,0,0-.85.39,1.79,1.79,0,0,0-.72.63,1.63,1.63,0,0,0-.25.82,1.84,1.84,0,0,0,.43,1.41A1.71,1.71,0,0,0,327.57,140.43Z"/><path class="cls-1" d="M343.18,129.54a7.18,7.18,0,0,1,2.79.62,4.74,4.74,0,0,1,1.73,1.2,3.68,3.68,0,0,1-.4,1.67,1.1,1.1,0,0,1-1,.63,1.33,1.33,0,0,1-.9-.33,3.37,3.37,0,0,1-.66-1,2.15,2.15,0,0,0-1.94-1.43,2.29,2.29,0,0,0-2.08,1.22,6.35,6.35,0,0,0-.87,3.23,6,6,0,0,0,1,4,3.51,3.51,0,0,0,2.75,1.39,8.13,8.13,0,0,0,.86,0,4.46,4.46,0,0,0,.78-.12l.63-.17a2.51,2.51,0,0,0,.56-.25l.41-.24.61-.38a.47.47,0,0,1,.14.18.57.57,0,0,1,.08.3.91.91,0,0,1-.2.56,4.83,4.83,0,0,1-1.81,1.54,5.45,5.45,0,0,1-2.94.7,6,6,0,0,1-4.44-2.08,6.56,6.56,0,0,1-1.7-4.79,6.75,6.75,0,0,1,1.94-4.62A6,6,0,0,1,343.18,129.54Z"/><path class="cls-1" d="M355,138.87a11,11,0,0,0,.15,2.68q.05.21.79.46a4.32,4.32,0,0,0,1,.26c.08,0,.12.15.12.44a1.68,1.68,0,0,1-.06.58c-.14,0-.67-.08-1.58-.17s-1.6-.14-2-.16-1.19,0-2.1,0l-1.57.07a.88.88,0,0,1-.1-.57c0-.3.05-.44.13-.44a4.28,4.28,0,0,0,1.08-.19c.5-.13.77-.27.82-.4a9.77,9.77,0,0,0,.28-2.16l.17-4.84a2.83,2.83,0,0,0-.41-1.92A1.64,1.64,0,0,0,351,132a3.11,3.11,0,0,0-.71-.2c-.2,0-.29-.06-.29-.1q0-.86.21-.89a22.87,22.87,0,0,0,2.42-.27,23.28,23.28,0,0,0,2.37-.46l.24-.05c.1,0,.17.08.23.22a.54.54,0,0,1,0,.33,25.59,25.59,0,0,0-.32,2.55Zm-2.67-12.54a1.81,1.81,0,0,1-.49-1.33,1.76,1.76,0,0,1,.58-1.27,1.84,1.84,0,0,1,3.11,1.4,1.81,1.81,0,0,1-.58,1.29,1.83,1.83,0,0,1-2.62-.09Z"/><path class="cls-1" d="M365.48,130.3a3.65,3.65,0,0,1,2.73,1.06,4.75,4.75,0,0,1,.81,3.34l-.2,5.85a1.35,1.35,0,0,0,.24.92.89.89,0,0,0,.7.34,1.86,1.86,0,0,0,1-.35c.12,0,.17.15.17.33a1.77,1.77,0,0,1-.21.89,7.4,7.4,0,0,1-1.21.7,3.11,3.11,0,0,1-1.44.34,2.17,2.17,0,0,1-1.32-.55,2.45,2.45,0,0,1-.82-1.13l-.23.19c-.13.11-.32.23-.55.38a8.55,8.55,0,0,1-.79.45,4.78,4.78,0,0,1-1,.37,4.34,4.34,0,0,1-1.18.12,3.55,3.55,0,0,1-2.39-.9,2.83,2.83,0,0,1-.86-2.28,2.74,2.74,0,0,1,.39-1.33,3.56,3.56,0,0,1,.85-1,6.06,6.06,0,0,1,1.3-.74,12.19,12.19,0,0,1,1.4-.53l1.5-.41,1.28-.34a.47.47,0,0,0,.28-.47l.06-1.63a2.54,2.54,0,0,0-.42-1.65,1.55,1.55,0,0,0-1.26-.64,1.8,1.8,0,0,0-1.42.5,2.23,2.23,0,0,0-.56,1.54,1,1,0,0,1-.48.86,1.83,1.83,0,0,1-1,.25,1.67,1.67,0,0,1-1.52-.77q0-1.43,2-2.61A7.47,7.47,0,0,1,365.48,130.3Zm-1.73,11.36a2.3,2.3,0,0,0,1.39-.37,1.18,1.18,0,0,0,.61-.93l.1-3q-.21.08-.89.27t-1,.32a7.89,7.89,0,0,0-.85.39,1.8,1.8,0,0,0-.72.63,1.63,1.63,0,0,0-.25.82,1.83,1.83,0,0,0,.43,1.41A1.71,1.71,0,0,0,363.75,141.67Z"/><path class="cls-1" d="M377.84,139.59a12.17,12.17,0,0,0,.12,2.68q.05.21.71.49a3.27,3.27,0,0,0,.9.28c.06,0,.09.14.09.42a1.57,1.57,0,0,1-.06.56l-1.11-.11-1.26-.12-1.07-.07H375l-1.25,0-1.13,0a.83.83,0,0,1-.1-.55c0-.29.05-.43.13-.43a3.2,3.2,0,0,0,1-.22q.68-.23.74-.44a9.81,9.81,0,0,0,.31-2.19l.42-12.36a10.3,10.3,0,0,0-.11-2q-.13-.48-1.47-.53h-.3q-.18,0-.17-.36t.2-.47q.92-.06,1.76-.18c.56-.08,1-.16,1.39-.25s.69-.17,1-.25l.65-.2.21-.08h.06c.08,0,.16.06.25.19a.9.9,0,0,1,.15.3,9.43,9.43,0,0,0-.45,2.78Z"/><path class="cls-1" d="M394.64,131.3a5.52,5.52,0,0,1,2.48.63,4.73,4.73,0,0,1,1.67,1.46,6.94,6.94,0,0,1,.89,1.79,5.13,5.13,0,0,1,.27,1.75c0,.44-.1.71-.25.81a1.69,1.69,0,0,1-.91.13l-7.1-.24c-.14,0-.21.05-.21.17a5.79,5.79,0,0,0,.32,2.09,4.07,4.07,0,0,0,1.26,1.8,3.49,3.49,0,0,0,2.22.82,8.13,8.13,0,0,0,.86,0,4.45,4.45,0,0,0,.78-.12l.63-.17a2.51,2.51,0,0,0,.56-.25l.41-.24.61-.38a.47.47,0,0,1,.14.18.57.57,0,0,1,.08.3.91.91,0,0,1-.2.56,4.82,4.82,0,0,1-1.81,1.54,5.51,5.51,0,0,1-3,.7,6,6,0,0,1-4.39-2.07,6.41,6.41,0,0,1-1.71-4.71,6.88,6.88,0,0,1,1.9-4.81A5.76,5.76,0,0,1,394.64,131.3Zm-.25,1.36a2.1,2.1,0,0,0-1.29.37,2.81,2.81,0,0,0-.9,1,5.88,5.88,0,0,0-.47,1.1,3.64,3.64,0,0,0-.16.87c0,.14.05.21.17.21l4.81.16c.18,0,.27-.14.28-.44a3.85,3.85,0,0,0-.63-2.13A2.13,2.13,0,0,0,394.39,132.66Z"/><path class="cls-1" d="M408.85,131.72a9.76,9.76,0,0,1,2.16.3,7.26,7.26,0,0,0,1.39.27,2.26,2.26,0,0,0,.76-.17,3.77,3.77,0,0,1,.56-.17,1.45,1.45,0,0,1,.47.19c.23.13.35.23.35.31s0,.18-.11.49-.14.75-.22,1.35a18.92,18.92,0,0,0-.15,1.9l-.39,11.38a11.4,11.4,0,0,0,.12,2.5c0,.14.3.3.79.47a4.21,4.21,0,0,0,1,.27c.08,0,.12.14.12.42a1.39,1.39,0,0,1-.06.53l-1.57-.14c-.91-.09-1.59-.14-2-.16s-1.17,0-2.07,0l-1.59,0c-.08-.06-.11-.24-.1-.52s.05-.43.13-.43a4,4,0,0,0,1.09-.2c.49-.14.76-.28.8-.42a9.71,9.71,0,0,0,.28-2.16l.11-3.15v-.15a.36.36,0,0,0,0-.13c0-.05,0-.08-.06-.08h-.09a5.48,5.48,0,0,1-2.82.8,5.92,5.92,0,0,1-4.3-2,6.17,6.17,0,0,1-1.69-4.55,6.81,6.81,0,0,1,2.22-4.85A6.59,6.59,0,0,1,408.85,131.72Zm-.41,1.41a2.62,2.62,0,0,0-1.56.41,2.85,2.85,0,0,0-1,1.17,7,7,0,0,0-.53,1.5,8.49,8.49,0,0,0-.2,1.6,7.52,7.52,0,0,0,.8,4,3,3,0,0,0,2.64,1.62A2.56,2.56,0,0,0,410,143a1.5,1.5,0,0,0,.73-1.3l.21-6.24a2.27,2.27,0,0,0-.57-1.6A2.58,2.58,0,0,0,408.45,133.14Z"/><path class="cls-1" d="M429.46,135.7l-.2,5.88a6.55,6.55,0,0,0,.17,2.09.62.62,0,0,0,.33.25,2.28,2.28,0,0,0,.52.14l.49,0a.54.54,0,0,1,.25,0c.08,0,.11.11.11.27a2.29,2.29,0,0,1-.07.4c0,.19-.11.28-.19.28a6.78,6.78,0,0,0-1.06.07l-1.24.17-1.14.18-1.2.2q-.21,0-.19-.48l0-1.31c0-.1,0-.15-.08-.15a6.64,6.64,0,0,1-1.86,1.27,5,5,0,0,1-2.37.51A3.11,3.11,0,0,1,420,145a3.58,3.58,0,0,1-1.14-1.35,6.37,6.37,0,0,1-.56-1.74,9,9,0,0,1-.13-1.88l.11-3.33a2.82,2.82,0,0,0-.41-1.92,1.66,1.66,0,0,0-.67-.47,3.1,3.1,0,0,0-.71-.2c-.2,0-.29-.06-.29-.1q0-.86.18-.89a22.43,22.43,0,0,0,2.45-.27,23.25,23.25,0,0,0,2.37-.46l.12,0,.12,0c.1,0,.17.08.22.21a1,1,0,0,1,.06.33q-.34,2-.36,2.61l-.12,3.56a6.37,6.37,0,0,0,.54,3.35,2.63,2.63,0,0,0,3.7.56,1.58,1.58,0,0,0,.69-1.09l.17-4.9a2.82,2.82,0,0,0-.41-1.92,1.43,1.43,0,0,0-.65-.47,3.43,3.43,0,0,0-.72-.2c-.2,0-.3-.06-.29-.1,0-.57.09-.87.21-.88a22.87,22.87,0,0,0,2.42-.27,23.34,23.34,0,0,0,2.37-.46l.24-.05c.1,0,.18.08.23.22a.54.54,0,0,1,0,.33Q429.48,135.16,429.46,135.7Z"/><path class="cls-1" d="M438.36,141.71a11,11,0,0,0,.15,2.68q.05.21.79.46a4.39,4.39,0,0,0,1,.26c.08,0,.12.15.12.44a1.68,1.68,0,0,1-.06.58l-1.58-.17q-1.38-.14-2-.16c-.5,0-1.19,0-2.1,0l-1.56.07a.88.88,0,0,1-.1-.57c0-.3.06-.44.13-.44a4.27,4.27,0,0,0,1.08-.19q.75-.2.82-.4a9.77,9.77,0,0,0,.28-2.16l.17-4.84a2.82,2.82,0,0,0-.41-1.92,1.64,1.64,0,0,0-.67-.47,3.09,3.09,0,0,0-.71-.2c-.2,0-.29-.06-.29-.1,0-.57.09-.87.21-.88a22.91,22.91,0,0,0,2.42-.28,23.22,23.22,0,0,0,2.37-.46l.24-.05c.1,0,.17.08.23.22a.54.54,0,0,1,0,.33,25.63,25.63,0,0,0-.32,2.55Zm-2.67-12.54a1.81,1.81,0,0,1-.49-1.33,1.84,1.84,0,0,1,3.68.13,1.81,1.81,0,0,1-.58,1.29,1.83,1.83,0,0,1-2.61-.09Z"/><path class="cls-1" d="M444.25,135.07l-1.81-.06c-.14,0-.2-.26-.18-.78a.77.77,0,0,1,0-.27,8.29,8.29,0,0,0,2.34-1.5l.88-.85q.48-.47,1.13-1.22a2.06,2.06,0,0,1,.56.09c.18.06.26.11.26.17l-.1,2.91,2.15.09,1.47.06q.24,0,.23.28a2.88,2.88,0,0,1-.34,1.3l-3.57-.12-.24,7.16a2.83,2.83,0,0,0,.44,1.83,1.7,1.7,0,0,0,1.38.67,2.89,2.89,0,0,0,.63-.05,3.29,3.29,0,0,0,.54-.14l.39-.17.21-.08c.08,0,.17.08.26.28a.69.69,0,0,1,.1.39,2.72,2.72,0,0,1-1.29.92,4.69,4.69,0,0,1-2.14.48,3.75,3.75,0,0,1-2.59-1.08,4,4,0,0,1-1-3.11Z"/><path class="cls-1" d="M456.47,133.7q.65,0,1.88,0t1.52,0a2,2,0,0,1,0,.54c0,.28-.05.41-.13.41a3.26,3.26,0,0,0-.94.19c-.43.13-.66.29-.69.47v.18q0,.48,2.53,6.87.25-.53,1.26-2.89t1.16-2.71a2.79,2.79,0,0,0,.21-.92.94.94,0,0,0-.45-.74,2.45,2.45,0,0,0-1.42-.39c-.08,0-.11-.15-.1-.45a.74.74,0,0,1,.14-.5q.36,0,1.45.14t1.81.15q.62,0,1.54,0c.61,0,1-.05,1.33,0a.86.86,0,0,1,.1.48q0,.48-.13.47a3.76,3.76,0,0,0-1.21.26,1.65,1.65,0,0,0-1.06.86l-5.88,12.95q-2,4.27-4.58,4.19a1.6,1.6,0,0,1-1.17-.46,1.39,1.39,0,0,1,.22-2.1q3.09.11,4.15-2.3l.87-2-4-10.25a3.82,3.82,0,0,0-.33-.7,1.77,1.77,0,0,0-.85-.7,2.84,2.84,0,0,0-1-.26c-.08,0-.11-.14-.1-.42s0-.49.11-.53l1.59.14C455.28,133.63,456,133.69,456.47,133.7Z"/><path class="cls-1" d="M472.29,144a1.93,1.93,0,0,1,.53,1.42,2,2,0,0,1-.63,1.39,1.84,1.84,0,0,1-1.4.56,1.92,1.92,0,0,1-1.41-.66,2,2,0,0,1-.54-1.43,1.91,1.91,0,0,1,.64-1.37,2,2,0,0,1,1.45-.55A1.86,1.86,0,0,1,472.29,144Z"/></svg>