<svg id="Layer_1" data-name="Layer 1" xmlns="http://www.w3.org/2000/svg" viewBox="0 0 458.93 179.52"><defs><style>.cls-1{fill:#1928eb;}</style></defs><title>title</title><path class="cls-1" d="M1.64,4.5A4.69,4.69,0,0,1,4,1a6.5,6.5,0,0,1,4.39-1A10.49,10.49,0,0,1,9.82.34q.61.17,1.67.6L13,1.52A26.51,26.51,0,0,1,12.7,6.1a.32.32,0,0,1-.39.22q-.8-.11-.82-.38a5.22,5.22,0,0,0-.91-2.82A3.37,3.37,0,0,0,8.11,1.46,2.74,2.74,0,0,0,5.93,2a2.91,2.91,0,0,0-1,2,3.38,3.38,0,0,0,0,.85,2.11,2.11,0,0,0,.31.84l.42.7A3.48,3.48,0,0,0,6.29,7L7,7.67c.12.12.38.35.81.69a8.83,8.83,0,0,0,.77.6,10.46,10.46,0,0,0,.9.77q.75.6,1,.86c.2.18.48.47.84.88a4.3,4.3,0,0,1,.76,1.12,6.08,6.08,0,0,1,.36,1.26,5,5,0,0,1,0,1.58,4.83,4.83,0,0,1-2.42,3.63A6.88,6.88,0,0,1,5.44,20,27.73,27.73,0,0,1,.13,18.45,26,26,0,0,1,0,15.72a20.07,20.07,0,0,1,.06-2.14q.06-.23.5-.17.76.1.82.35A5.83,5.83,0,0,0,1.64,15a8.7,8.7,0,0,0,.63,1.46A3.93,3.93,0,0,0,3.5,17.81a4.18,4.18,0,0,0,1.9.72A3.33,3.33,0,0,0,7.81,18a3.2,3.2,0,0,0,1.25-2.35,2.59,2.59,0,0,0-.06-1,3.42,3.42,0,0,0-.34-.85A4.31,4.31,0,0,0,8,13q-.44-.45-.73-.7l-.88-.7L5.57,11a2,2,0,0,0-.29-.28l-1.19-1c-.27-.24-.61-.58-1-1a5.88,5.88,0,0,1-.9-1.22,5.63,5.63,0,0,1-.47-1.32A4.46,4.46,0,0,1,1.64,4.5Z"/><path class="cls-1" d="M23.44,8.89a6,6,0,0,1,3.23,1.42,6.23,6.23,0,0,1,2.18,5.63A7,7,0,0,1,21,22a6.91,6.91,0,0,1-2-.69c-.08,0-.14.12-.17.4l-.27,2a10.71,10.71,0,0,0-.12,2.68q0,.24.72.56a4.51,4.51,0,0,0,1,.36c.06,0,.07.15,0,.44a2.79,2.79,0,0,1-.09.54L18.48,28q-1.36-.27-2-.36t-2.09-.19l-1.59-.12a1.06,1.06,0,0,1,0-.56c0-.29.09-.42.15-.42A4.15,4.15,0,0,0,14,26.3q.75-.12.87-.35a10.81,10.81,0,0,0,.46-2.1L16.88,12.6a2.88,2.88,0,0,0-.21-2,1.35,1.35,0,0,0-.59-.51,3.66,3.66,0,0,0-.69-.26c-.19,0-.29-.09-.28-.13.08-.57.17-.86.29-.86a22.76,22.76,0,0,0,4.5-.24l.58-.07c.08,0,.09.22,0,.63a1.61,1.61,0,0,1-.11.35A6,6,0,0,1,21.81,9,4.28,4.28,0,0,1,23.44,8.89Zm-.92,1.47a2.25,2.25,0,0,0-1.65.35,2,2,0,0,0-.81,1.42l-.81,6.07a1.83,1.83,0,0,0,.59,1.65,2.88,2.88,0,0,0,1.63.8,2.79,2.79,0,0,0,2.45-.93,5.75,5.75,0,0,0,1.39-3.35,7.69,7.69,0,0,0-.41-4.09A2.93,2.93,0,0,0,22.52,10.36Z"/><path class="cls-1" d="M37.65,10.77a5.52,5.52,0,0,1,2.4.88,4.7,4.7,0,0,1,1.52,1.61,6.88,6.88,0,0,1,.71,1.87,5.11,5.11,0,0,1,.09,1.77c-.06.43-.17.69-.33.78a1.68,1.68,0,0,1-.92,0l-7-.94c-.14,0-.21,0-.23.15A5.77,5.77,0,0,0,34,19,4.1,4.1,0,0,0,35,20.95a3.5,3.5,0,0,0,2.13,1A8,8,0,0,0,38,22a4.42,4.42,0,0,0,.79,0l.64-.11a2.53,2.53,0,0,0,.58-.19l.43-.2.64-.32a.48.48,0,0,1,.13.2.58.58,0,0,1,0,.31.91.91,0,0,1-.25.54,4.83,4.83,0,0,1-2,1.36,5.52,5.52,0,0,1-3,.4,6,6,0,0,1-4.17-2.49,6.41,6.41,0,0,1-1.24-4.86A6.88,6.88,0,0,1,33,12,5.76,5.76,0,0,1,37.65,10.77Zm-.39,1.33a2.11,2.11,0,0,0-1.32.24,2.8,2.8,0,0,0-1,.89,5.57,5.57,0,0,0-.58,1,3.6,3.6,0,0,0-.25.85c0,.14,0,.21.15.23L39,16q.27,0,.32-.41A3.85,3.85,0,0,0,39,13.4,2.13,2.13,0,0,0,37.26,12.09Z"/><path class="cls-1" d="M50.94,12.55a3.65,3.65,0,0,1,2.61,1.33A4.75,4.75,0,0,1,54,17.28l-.78,5.8a1.36,1.36,0,0,0,.14.93.9.9,0,0,0,.67.4,1.85,1.85,0,0,0,1.05-.25c.11.06.16.17.13.35a1.77,1.77,0,0,1-.3.86,7.44,7.44,0,0,1-1.28.58,3.08,3.08,0,0,1-1.47.19,2.16,2.16,0,0,1-1.26-.68,2.44,2.44,0,0,1-.71-1.2l-.25.16c-.14.09-.34.2-.58.33a8.75,8.75,0,0,1-.83.37,4.76,4.76,0,0,1-1.05.26,4.31,4.31,0,0,1-1.19,0A3.55,3.55,0,0,1,44,24.27a2.82,2.82,0,0,1-.63-2.35,2.75,2.75,0,0,1,.52-1.28,3.57,3.57,0,0,1,.95-.91,6.16,6.16,0,0,1,1.37-.61,12.63,12.63,0,0,1,1.45-.39l1.54-.26,1.3-.22a.47.47,0,0,0,.33-.44l.22-1.62a2.56,2.56,0,0,0-.25-1.68,1.55,1.55,0,0,0-1.19-.76,1.8,1.8,0,0,0-1.46.36,2.23,2.23,0,0,0-.71,1.48,1,1,0,0,1-.56.81,1.85,1.85,0,0,1-1,.15,1.68,1.68,0,0,1-1.44-.91q.19-1.41,2.29-2.39A7.46,7.46,0,0,1,50.94,12.55ZM48.1,23.69a2.31,2.31,0,0,0,1.42-.23,1.17,1.17,0,0,0,.7-.87l.4-3q-.22.06-.91.18T48.66,20a8,8,0,0,0-.88.3,1.79,1.79,0,0,0-.78.56,1.65,1.65,0,0,0-.33.79A1.83,1.83,0,0,0,47,23.08,1.71,1.71,0,0,0,48.1,23.69Z"/><path class="cls-1" d="M70.43,17.17q-.64.28-2,1.08A21,21,0,0,0,65.76,20q.73,1,1.83,2.67t1.83,2.71a14.4,14.4,0,0,0,1,1.37,3.76,3.76,0,0,0,1.06.74,3.61,3.61,0,0,0,1,.37c.08,0,.1.18.05.52a1.7,1.7,0,0,1-.08.41L69,28.17,67.84,28l-1.28-.1-1.11-.07a.81.81,0,0,1,0-.55c0-.27.09-.41.17-.4a2.13,2.13,0,0,0,.7,0c.27-.05.41-.13.42-.23s0-.06,0-.06L63,21.22l-.37,0-.25,1.83a12.15,12.15,0,0,0-.12,2.68q0,.21.74.53a4.31,4.31,0,0,0,1,.36c.06,0,.07.16,0,.44a1.71,1.71,0,0,1-.12.57q-.2-.06-1.55-.33t-2-.36q-.71-.1-2.06-.19l-1.59-.09a.87.87,0,0,1,0-.58c0-.29.1-.44.18-.43A4.11,4.11,0,0,0,58,25.63q.75-.12.84-.32a9.69,9.69,0,0,0,.5-2.12L60.94,11a11.72,11.72,0,0,0,.12-2Q61,8.44,59.6,8.25l-.27,0c-.12,0-.16-.18-.11-.5s.12-.46.24-.45q.92,0,1.77,0c.56,0,1-.06,1.41-.11s.7-.1,1-.17l.88-.18h.06c.08,0,.15.08.21.19a.83.83,0,0,1,.11.33,9.57,9.57,0,0,0-.73,2.72L62.83,19.9a2.71,2.71,0,0,0,.93-.21q.69-.48,1.5-1L66.42,18q.36-.22.73-.49a2.68,2.68,0,0,0,.49-.43.71.71,0,0,0,.15-.34q0-.33-.61-.49a2.89,2.89,0,0,1-.65-.19,1.32,1.32,0,0,1,0-.53c0-.21.08-.31.16-.32l2.86.38q.8.11,3.14.3a.47.47,0,0,1,.1.34,1.34,1.34,0,0,1-.07.44c0,.13-.1.2-.16.19A3.9,3.9,0,0,0,70.43,17.17Z"/><path class="cls-1" d="M80.3,25.49a10.91,10.91,0,0,0-.12,2.68q0,.22.74.54a4.35,4.35,0,0,0,1,.35q.12,0,.08.45a1.71,1.71,0,0,1-.12.57q-.2-.06-1.56-.33t-2-.36q-.74-.1-2.09-.19l-1.56-.09a.87.87,0,0,1,0-.58c0-.29.1-.44.18-.43A4.37,4.37,0,0,0,75.85,28q.76-.12.85-.32a9.69,9.69,0,0,0,.5-2.12l.64-4.8a2.83,2.83,0,0,0-.22-1.95A1.64,1.64,0,0,0,77,18.3a3.09,3.09,0,0,0-.68-.27c-.19,0-.29-.09-.28-.13q.11-.85.3-.86a22.77,22.77,0,0,0,2.43,0,23.08,23.08,0,0,0,2.4-.22l.24,0c.1,0,.17.09.21.24a.56.56,0,0,1,0,.33,25.46,25.46,0,0,0-.58,2.5ZM78.89,12.75a1.81,1.81,0,0,1-.36-1.37,1.76,1.76,0,0,1,.7-1.21,1.87,1.87,0,0,1,2.59.35,1.76,1.76,0,0,1,.36,1.35,1.81,1.81,0,0,1-.7,1.23,1.83,1.83,0,0,1-2.59-.35Z"/><path class="cls-1" d="M95,18.46q3.8.51,3,6.55l-.37,2.8a12.4,12.4,0,0,0-.15,2.68q0,.21.75.54a4.53,4.53,0,0,0,1,.36c.06,0,.07.16,0,.44a1.68,1.68,0,0,1-.12.57q-.17-.05-1.53-.33t-2-.36q-.71-.1-2-.17l-1.53-.09a.87.87,0,0,1,0-.58q.06-.44.18-.43a3.57,3.57,0,0,0,1-.09c.46-.09.72-.2.78-.33a8.53,8.53,0,0,0,.52-2.12l.38-2.8a6.45,6.45,0,0,0-.21-3.51,2.39,2.39,0,0,0-2-1.25,2.75,2.75,0,0,0-1.72.29,1.43,1.43,0,0,0-.86,1l-.68,5.07a12.4,12.4,0,0,0-.15,2.68q0,.21.72.53a4.3,4.3,0,0,0,.93.35q.12,0,.08.45a1.7,1.7,0,0,1-.12.57L89.39,31q-1.3-.27-2-.36t-2.06-.19l-1.59-.09a.88.88,0,0,1,0-.58q.06-.44.18-.43A4.11,4.11,0,0,0,85,29.25c.5-.08.78-.19.84-.32a9.69,9.69,0,0,0,.49-2.12L87,22a2.82,2.82,0,0,0-.22-1.95,1.43,1.43,0,0,0-.6-.53,3.41,3.41,0,0,0-.68-.27c-.18,0-.27-.09-.27-.13.08-.57.16-.86.27-.86A42.06,42.06,0,0,0,90.34,18l.08,0h.16c.08,0,.14.09.18.23a.93.93,0,0,1,0,.34,9.89,9.89,0,0,0-.26,1,.24.24,0,0,0,0,.15.42.42,0,0,0,.16-.07,6.58,6.58,0,0,1,2-1A5.21,5.21,0,0,1,95,18.46Z"/><path class="cls-1" d="M108.51,20.33a9.42,9.42,0,0,1,2.39.71,9.18,9.18,0,0,0,2.31.7l1.68.22s.09.14.16.41a1.83,1.83,0,0,1,.07.61c0,.28-.11.4-.23.39L113,23.12c-.08,0-.12,0-.13.07s.05.29.16.8a4.22,4.22,0,0,1,.08,1.45,4.29,4.29,0,0,1-1.88,2.94,5.09,5.09,0,0,1-3.83.91,12.28,12.28,0,0,1-1.81-.36,1.6,1.6,0,0,0-.72.46,1.27,1.27,0,0,0-.39.68.61.61,0,0,0,.21.54,2,2,0,0,0,.83.41q.58.17,1,.25l1.17.22.44.06a10.5,10.5,0,0,1,4.21,1.39,2.34,2.34,0,0,1,1.08,2.35,4.67,4.67,0,0,1-2.64,3.55,8.12,8.12,0,0,1-5.2,1,7.72,7.72,0,0,1-3.65-1.33,2.67,2.67,0,0,1-1.28-2.63,2.32,2.32,0,0,1,1.06-1.54,4.94,4.94,0,0,1,2-.88,3.4,3.4,0,0,1-1.29-1.09,2.16,2.16,0,0,1-.44-1.63q.17-1.27,2.53-2.33A3.94,3.94,0,0,1,103,26.63a4.37,4.37,0,0,1-.42-2.5,4,4,0,0,1,2-3.09A5.91,5.91,0,0,1,108.51,20.33Zm2,16q.14-1-1.3-1.57a18.9,18.9,0,0,0-3.95-.87h-.15l-.16.07c-.27.06-.48.12-.62.17a2.59,2.59,0,0,0-.52.26,1.43,1.43,0,0,0-.47.46,1.73,1.73,0,0,0-.23.69,2.08,2.08,0,0,0,.88,1.92,4.64,4.64,0,0,0,2.41,1,4.49,4.49,0,0,0,2.8-.4A2.32,2.32,0,0,0,110.51,36.29Zm-4.81-12a4.71,4.71,0,0,0,.26,2.51A1.85,1.85,0,0,0,107.48,28a1.76,1.76,0,0,0,1.72-.62,3.93,3.93,0,0,0,.79-2,4.89,4.89,0,0,0-.25-2.61,1.91,1.91,0,0,0-1.58-1.2,1.68,1.68,0,0,0-1.68.71A4.3,4.3,0,0,0,105.7,24.31Z"/><path class="cls-1" d="M141.88,27a.86.86,0,0,0-.15-.64,1.32,1.32,0,0,0-.56-.43,5.5,5.5,0,0,0-.66-.24,4.23,4.23,0,0,0-.6-.12l-.12,0q-.12,0-.07-.46c0-.3.08-.47.14-.52q.38.05,1.55.3t1.87.34c.41.05.94.1,1.59.12s1.12.06,1.41.1a1.83,1.83,0,0,1,0,.51c0,.29-.1.44-.18.43a3.4,3.4,0,0,0-1.21.21,1.81,1.81,0,0,0-1.14.76L138,37.19a1.16,1.16,0,0,1-.46.37,1,1,0,0,1-.6.11.37.37,0,0,1-.35-.26l-2.5-8.61-4.19,7.27a1.57,1.57,0,0,1-.39.37.9.9,0,0,1-.67.15.44.44,0,0,1-.38-.26q-.47-1.62-1.11-3.94t-1.17-4.1q-.54-1.78-1.28-3.89a1.37,1.37,0,0,0-.69-.69,2.85,2.85,0,0,0-.92-.33q-.12,0-.05-.49t.19-.49c.2,0,.69.12,1.48.29s1.41.28,1.86.34,1.12.12,2,.18l1.54.12a1.62,1.62,0,0,1,0,.54q-.05.38-.14.4a3.54,3.54,0,0,0-1,.07q-.66.12-.72.53s.67,2.43,2,7.17l1-1.77.86-1.5.59-1c.2-.35.34-.62.42-.8a1.61,1.61,0,0,0,.14-.36,2.16,2.16,0,0,0-.23-1.23,1.41,1.41,0,0,0-.58-.56,2.37,2.37,0,0,0-1-.32c-.08,0-.1-.16-.06-.44s.1-.45.19-.5.7.12,1.45.28,1.36.27,1.83.34,1.07.11,1.93.17l1.52.11a1.44,1.44,0,0,1,0,.55c0,.28-.1.42-.16.41q-1.5-.2-1.64.83a47.79,47.79,0,0,0,1.89,6.91q.64-1.17,1.55-2.75T141.42,28A4,4,0,0,0,141.88,27Z"/><path class="cls-1" d="M152.08,35.12A10.91,10.91,0,0,0,152,37.8q0,.21.74.53a4.37,4.37,0,0,0,1,.35c.08,0,.1.16.08.45a1.72,1.72,0,0,1-.12.57q-.2-.06-1.56-.33t-2-.36c-.49-.07-1.19-.13-2.09-.19l-1.56-.09a.87.87,0,0,1,0-.58q.06-.44.18-.43a4.35,4.35,0,0,0,1.09-.08q.77-.12.85-.32a9.72,9.72,0,0,0,.49-2.12l.64-4.8a2.82,2.82,0,0,0-.22-1.95,1.65,1.65,0,0,0-.62-.53,3.09,3.09,0,0,0-.68-.27c-.19,0-.29-.09-.28-.13.08-.57.17-.86.29-.86a23,23,0,0,0,2.43,0,23.32,23.32,0,0,0,2.4-.22l.24,0c.1,0,.17.09.21.24a.54.54,0,0,1,0,.33,25.65,25.65,0,0,0-.58,2.5Zm-1.41-12.74a1.81,1.81,0,0,1-.36-1.37,1.76,1.76,0,0,1,.7-1.21,1.84,1.84,0,0,1,3,1.7,1.81,1.81,0,0,1-.7,1.23,1.83,1.83,0,0,1-2.59-.35Z"/><path class="cls-1" d="M158.6,29.09l-1.8-.24c-.14,0-.17-.28-.1-.79a.73.73,0,0,1,.07-.26,8.31,8.31,0,0,0,2.48-1.26l1-.76q.52-.42,1.24-1.11a2.09,2.09,0,0,1,.55.15c.17.07.25.14.24.2l-.39,2.89,2.13.3,1.46.21c.16,0,.22.12.2.3a2.89,2.89,0,0,1-.47,1.26l-3.54-.47-1,7.1a2.82,2.82,0,0,0,.26,1.86,1.69,1.69,0,0,0,1.3.8,2.8,2.8,0,0,0,.63,0,3.19,3.19,0,0,0,.55-.09l.41-.13L164,39c.08,0,.16.09.23.3a.7.7,0,0,1,.07.4,2.72,2.72,0,0,1-1.38.79,4.69,4.69,0,0,1-2.18.26,3.75,3.75,0,0,1-2.48-1.34,4,4,0,0,1-.67-3.2Z"/><path class="cls-1" d="M177.41,29.52q3.77.51,3,6.31l-.41,3a10.85,10.85,0,0,0-.12,2.68q0,.21.72.53a4.53,4.53,0,0,0,1,.36c.06,0,.07.16,0,.44a3.19,3.19,0,0,1-.09.57L180,43.12q-1.36-.27-2-.36t-2-.18l-1.56-.09a1.1,1.1,0,0,1,0-.57c0-.29.09-.44.15-.43a3.53,3.53,0,0,0,1-.08c.46-.09.73-.2.81-.33a11.34,11.34,0,0,0,.46-2.13l.39-2.89A6.2,6.2,0,0,0,177,32.6a2.43,2.43,0,0,0-2-1.21,2.84,2.84,0,0,0-1.69.28,1.4,1.4,0,0,0-.89,1l-.68,5.07a10.86,10.86,0,0,0-.12,2.68c0,.14.26.32.72.53a4.18,4.18,0,0,0,1,.35c.06,0,.07.16,0,.44a1.67,1.67,0,0,1-.12.57L171.76,42q-1.3-.27-2-.36t-2.06-.19l-1.59-.09a.86.86,0,0,1,0-.58c0-.29.1-.44.18-.43a4.1,4.1,0,0,0,1.1-.08q.75-.12.84-.32a9.6,9.6,0,0,0,.49-2.09l1.64-12.26a11.7,11.7,0,0,0,.12-2q-.08-.49-1.47-.68l-.26,0c-.12,0-.16-.18-.11-.5s.12-.46.24-.45q.93,0,1.77,0c.56,0,1-.06,1.41-.11s.7-.11,1-.17l.88-.18H174c.08,0,.15.08.21.19a.82.82,0,0,1,.11.33,9.58,9.58,0,0,0-.73,2.72l-.8,6c0,.12,0,.18.09.19s.06,0,.13-.07a5.69,5.69,0,0,1,2-1A5.49,5.49,0,0,1,177.41,29.52Z"/><path class="cls-1" d="M197.47,29.93l-.64,4.74a.18.18,0,0,0,0,.14.38.38,0,0,0,.09.09h0l.24,0a2.47,2.47,0,0,0,1.67-.8q2.7-2.22,6-5.2a1.63,1.63,0,0,0,.59-.82q0-.29-.59-.5a6.37,6.37,0,0,0-1.07-.26c-.08,0-.11-.13-.1-.36a1.53,1.53,0,0,1,.1-.54q3.25.62,3.54.65.56.08,1.11.12l1.19.08,1.06.07a1.29,1.29,0,0,1,0,.51c0,.25-.09.38-.15.37a4.65,4.65,0,0,0-3.14.84L201,34.61a.58.58,0,0,0-.05.83l5.8,9.12a3,3,0,0,0,1.3,1.13,4.86,4.86,0,0,0,1.27.47c.1,0,.12.21.07.58a.93.93,0,0,1-.15.4q-3.51-.65-4-.72-.94-.13-2.26-.23l-1.86-.14a.85.85,0,0,1,0-.56c0-.29.1-.42.18-.41a2.28,2.28,0,0,0,.85-.1c.35-.09.54-.22.56-.37a5.73,5.73,0,0,0-.66-1.35q-.68-1.2-1.9-3.09t-2.43-3.55c-.07-.09-.28-.16-.63-.21s-.49.05-.52.29L196,41.07a10.71,10.71,0,0,0-.08,2.63q0,.21.75.54a4.55,4.55,0,0,0,1,.36c.08,0,.09.2,0,.58a1.31,1.31,0,0,1-.11.4l-3.72-.68-1.24-.14-1.44-.12-1.26-.09a.59.59,0,0,1-.06-.43c0-.37.12-.55.19-.54a4.73,4.73,0,0,0,1.13-.06c.52-.07.82-.18.9-.33a10.36,10.36,0,0,0,.57-2.44l1.53-11.37a8.91,8.91,0,0,0,.1-2.51q-.08-.25-.76-.57a4.05,4.05,0,0,0-1-.36q-.12,0-.06-.46a1.19,1.19,0,0,1,.13-.52l1.62.31q1.47.29,2.27.39l3.8.33a1.55,1.55,0,0,1,0,.48c0,.33-.11.5-.19.49A4.78,4.78,0,0,0,199,27q-.83.13-.91.33A11,11,0,0,0,197.47,29.93Z"/><path class="cls-1" d="M219.19,35.12a5.51,5.51,0,0,1,2.4.88,4.72,4.72,0,0,1,1.52,1.61,6.86,6.86,0,0,1,.71,1.87,5.13,5.13,0,0,1,.09,1.77c-.06.43-.17.69-.33.78a1.68,1.68,0,0,1-.92,0l-7-.94c-.14,0-.21,0-.23.15a5.78,5.78,0,0,0,.11,2.11,4.09,4.09,0,0,0,1.08,1.91,3.49,3.49,0,0,0,2.13,1,7.77,7.77,0,0,0,.86.07,4.53,4.53,0,0,0,.79,0l.64-.11a2.53,2.53,0,0,0,.58-.19l.43-.2.64-.32a.46.46,0,0,1,.12.2.58.58,0,0,1,0,.31.92.92,0,0,1-.25.54,4.83,4.83,0,0,1-2,1.36,5.52,5.52,0,0,1-3,.4,6,6,0,0,1-4.16-2.49A6.41,6.41,0,0,1,212.19,41a6.88,6.88,0,0,1,2.37-4.6A5.76,5.76,0,0,1,219.19,35.12Zm-.39,1.33a2.11,2.11,0,0,0-1.32.24,2.81,2.81,0,0,0-1,.89,5.69,5.69,0,0,0-.58,1,3.64,3.64,0,0,0-.25.85c0,.14,0,.21.15.23l4.77.64c.18,0,.29-.11.32-.41a3.85,3.85,0,0,0-.41-2.18A2.13,2.13,0,0,0,218.8,36.45Z"/><path class="cls-1" d="M232.48,36.91a3.66,3.66,0,0,1,2.61,1.32,4.76,4.76,0,0,1,.47,3.41l-.78,5.8a1.36,1.36,0,0,0,.15.93.89.89,0,0,0,.66.4,1.86,1.86,0,0,0,1.05-.25c.11.05.16.17.13.35a1.77,1.77,0,0,1-.3.86,7.42,7.42,0,0,1-1.28.58,3.11,3.11,0,0,1-1.47.19,2.17,2.17,0,0,1-1.26-.68,2.43,2.43,0,0,1-.71-1.2l-.25.16q-.21.14-.58.33a8.48,8.48,0,0,1-.83.37,4.76,4.76,0,0,1-1.06.26,4.31,4.31,0,0,1-1.19,0,3.55,3.55,0,0,1-2.29-1.13,2.82,2.82,0,0,1-.63-2.35,2.74,2.74,0,0,1,.52-1.28,3.55,3.55,0,0,1,.95-.91,6.1,6.1,0,0,1,1.37-.61,12.33,12.33,0,0,1,1.45-.39l1.53-.26,1.3-.22a.47.47,0,0,0,.33-.44l.22-1.62a2.56,2.56,0,0,0-.25-1.68,1.55,1.55,0,0,0-1.19-.76,1.8,1.8,0,0,0-1.46.36,2.22,2.22,0,0,0-.71,1.48,1,1,0,0,1-.56.81,1.85,1.85,0,0,1-1,.15A1.67,1.67,0,0,1,226,40q.19-1.41,2.29-2.39A7.46,7.46,0,0,1,232.48,36.91ZM229.64,48a2.31,2.31,0,0,0,1.43-.23,1.17,1.17,0,0,0,.7-.87l.4-3q-.22.06-.91.18c-.46.08-.82.15-1.06.22a8,8,0,0,0-.88.3,1.79,1.79,0,0,0-.78.56,1.64,1.64,0,0,0-.33.79,1.83,1.83,0,0,0,.29,1.45A1.71,1.71,0,0,0,229.64,48Z"/><path class="cls-1" d="M248.55,39.06a3,3,0,0,1,2.29,1.3q-.34,2.5-1.75,2.31a1.77,1.77,0,0,1-1.07-.74,1.86,1.86,0,0,0-1.19-.76,1.59,1.59,0,0,0-1.55.74,4,4,0,0,0-.78,1.86L244,47.45a12.39,12.39,0,0,0-.15,2.68q0,.21.72.53a4.25,4.25,0,0,0,1,.35c.06,0,.07.16,0,.44a3.16,3.16,0,0,1-.09.57l-1.55-.33q-1.32-.27-2-.36t-2.06-.19l-1.59-.09a.88.88,0,0,1,0-.58c0-.29.1-.44.18-.43a4.11,4.11,0,0,0,1.11-.08c.5-.08.78-.19.84-.32a9.69,9.69,0,0,0,.5-2.12l.64-4.8a2.83,2.83,0,0,0-.22-1.95,1.44,1.44,0,0,0-.6-.53A3.41,3.41,0,0,0,240,40c-.18,0-.27-.09-.27-.13.08-.57.17-.86.27-.86a42.07,42.07,0,0,0,4.86-.25l.24,0c.08,0,.14.09.18.23a.7.7,0,0,1,0,.35l-.1.41c0,.19-.1.38-.15.58a3.68,3.68,0,0,0-.1.39,5.45,5.45,0,0,1,1.64-1.24A3.25,3.25,0,0,1,248.55,39.06Z"/><path class="cls-1" d="M261.52,40.8a3,3,0,0,1,2.29,1.3q-.34,2.5-1.75,2.31a1.77,1.77,0,0,1-1.07-.74,1.86,1.86,0,0,0-1.19-.76,1.59,1.59,0,0,0-1.55.74,4,4,0,0,0-.77,1.86L257,49.19a12.4,12.4,0,0,0-.15,2.68q0,.21.72.53a4.25,4.25,0,0,0,1,.35c.06,0,.07.16,0,.44a3.16,3.16,0,0,1-.09.57l-1.55-.33q-1.32-.27-2-.36t-2.06-.19l-1.59-.09a.87.87,0,0,1,0-.58q.06-.44.18-.43a4.1,4.1,0,0,0,1.1-.08c.5-.08.78-.19.84-.32a9.69,9.69,0,0,0,.5-2.12l.64-4.8a2.83,2.83,0,0,0-.22-1.95,1.44,1.44,0,0,0-.6-.53,3.41,3.41,0,0,0-.68-.27c-.18,0-.27-.09-.27-.13.08-.57.17-.86.27-.86a42.07,42.07,0,0,0,4.86-.25l.24,0c.08,0,.14.09.18.23a.7.7,0,0,1,0,.35l-.1.41c0,.19-.1.38-.15.58a3.53,3.53,0,0,0-.1.39,5.45,5.45,0,0,1,1.64-1.24A3.25,3.25,0,0,1,261.52,40.8Z"/><path class="cls-1" d="M272,42.21a3.65,3.65,0,0,1,2.61,1.33,4.75,4.75,0,0,1,.47,3.41l-.78,5.8a1.35,1.35,0,0,0,.14.93.89.89,0,0,0,.67.4,1.85,1.85,0,0,0,1.05-.25c.11.06.16.17.13.35a1.76,1.76,0,0,1-.29.86,7.32,7.32,0,0,1-1.28.58,3.11,3.11,0,0,1-1.47.19,2.17,2.17,0,0,1-1.26-.68,2.45,2.45,0,0,1-.71-1.21l-.25.16c-.14.09-.34.2-.58.33a8.86,8.86,0,0,1-.83.37,4.71,4.71,0,0,1-1.06.26,4.3,4.3,0,0,1-1.19,0,3.55,3.55,0,0,1-2.29-1.13,2.82,2.82,0,0,1-.63-2.35A2.75,2.75,0,0,1,265,50.3a3.56,3.56,0,0,1,.95-.91,6,6,0,0,1,1.37-.61,12.13,12.13,0,0,1,1.45-.39l1.53-.26,1.3-.21a.47.47,0,0,0,.33-.44l.22-1.62a2.56,2.56,0,0,0-.25-1.68,1.55,1.55,0,0,0-1.19-.76,1.8,1.8,0,0,0-1.46.36,2.22,2.22,0,0,0-.71,1.48,1,1,0,0,1-.56.81,1.84,1.84,0,0,1-1,.15,1.68,1.68,0,0,1-1.44-.91q.19-1.42,2.29-2.39A7.45,7.45,0,0,1,272,42.21ZM269.2,53.35a2.3,2.3,0,0,0,1.43-.23,1.17,1.17,0,0,0,.7-.87l.4-3c-.15,0-.45.1-.91.18s-.82.15-1.06.22a8.3,8.3,0,0,0-.88.3,1.8,1.8,0,0,0-.78.55,1.64,1.64,0,0,0-.33.8,1.83,1.83,0,0,0,.29,1.45A1.72,1.72,0,0,0,269.2,53.35Z"/><path class="cls-1" d="M297.52,39.09l4.12,16.27q.28,1.24.59,2.27a1.45,1.45,0,0,0,.85.83,3.94,3.94,0,0,0,1.08.42q.12,0,0,.55a1,1,0,0,1-.12.43l-3.69-.67-3.85-.34a.84.84,0,0,1,0-.56q.06-.43.18-.41a3.81,3.81,0,0,0,1,0,1.19,1.19,0,0,0,.79-.31.86.86,0,0,0,.14-.37,6.84,6.84,0,0,0-.29-2.11l-.66-2.88a.33.33,0,0,0-.19-.15q-.93-.18-2.53-.4t-3.37-.36c-.12,0-.18,0-.19.09l-1.49,2.59a8.45,8.45,0,0,0-.82,1.84.66.66,0,0,0,.25.63,3,3,0,0,0,.89.45,5.19,5.19,0,0,0,.88.27c.06,0,.07.17,0,.42a1.91,1.91,0,0,1-.13.55l-1.37-.27q-1.22-.25-2-.36t-1.82-.17l-1.5-.1a.63.63,0,0,1-.06-.46c0-.35.09-.53.13-.52a4.33,4.33,0,0,0,1.17-.1,1.85,1.85,0,0,0,1.06-.44A14.22,14.22,0,0,0,288,53.54L295.29,41a6.46,6.46,0,0,1,1.38-2,.76.76,0,0,1,.53-.14A.49.49,0,0,1,297.52,39.09Zm-5,10.49q1,.23,2.11.37t2.43.24l.08-.11-1.45-6.19-3.21,5.57C292.46,49.53,292.48,49.57,292.52,49.58Z"/><path class="cls-1" d="M317.56,48.32a3.2,3.2,0,0,1,1.84.83,3.47,3.47,0,0,1,1,1.65,7,7,0,0,1,2.35-1.18,6.66,6.66,0,0,1,2.85-.22,3.38,3.38,0,0,1,1.75.71,3.29,3.29,0,0,1,1,1.47,7,7,0,0,1,.37,1.91,11.28,11.28,0,0,1-.09,2.16l-.42,3.09a12.4,12.4,0,0,0-.15,2.68q0,.21.74.53a4.37,4.37,0,0,0,1,.35c.06,0,.07.16,0,.44a1.7,1.7,0,0,1-.12.57L328.14,63q-1.33-.27-2-.36t-2-.18l-1.59-.09a1.13,1.13,0,0,1,0-.57c0-.29.09-.44.15-.43a4,4,0,0,0,1.09-.08c.49-.08.77-.19.82-.33a9.26,9.26,0,0,0,.48-2l.4-3q.57-4.27-2.17-4.64a2.71,2.71,0,0,0-1.68.25,1.85,1.85,0,0,0-.89.81c0,.06,0,.14,0,.23a.58.58,0,0,0,0,.24,14.7,14.7,0,0,1-.16,1.84l-.42,3.12a11.66,11.66,0,0,0-.13,2.56c0,.14.27.32.74.53a4.43,4.43,0,0,0,1,.36c.06,0,.07.15,0,.44a1.65,1.65,0,0,1-.12.57c-.13,0-.65-.15-1.53-.33s-1.55-.3-2-.36-1.15-.12-2-.18l-1.59-.09a1.1,1.1,0,0,1,0-.57c0-.29.09-.44.15-.43a4,4,0,0,0,1.09-.08c.49-.08.76-.19.82-.33a9.7,9.7,0,0,0,.49-2.12l.38-2.83a6.3,6.3,0,0,0-.23-3.42,2.26,2.26,0,0,0-1.86-1.3,2.84,2.84,0,0,0-1.69.28,1.4,1.4,0,0,0-.89,1L312,56.57a10.91,10.91,0,0,0-.12,2.68c0,.14.26.32.71.53a4,4,0,0,0,.94.35q.12,0,.08.45a1.68,1.68,0,0,1-.12.57l-1.53-.33q-1.3-.27-2-.35t-2.07-.19l-1.58-.09a.87.87,0,0,1,0-.58c0-.29.1-.44.18-.43a4.25,4.25,0,0,0,1.09-.08q.77-.12.85-.32a9.68,9.68,0,0,0,.49-2.12l.64-4.8a2.83,2.83,0,0,0-.22-1.95,1.43,1.43,0,0,0-.6-.53,3.43,3.43,0,0,0-.7-.27c-.19,0-.29-.09-.28-.13q.11-.86.29-.86a41.06,41.06,0,0,0,4.83-.25l.09,0h.15q.15,0,.21.24a.55.55,0,0,1,0,.33,10.29,10.29,0,0,0-.26,1c0,.08,0,.13,0,.16a.47.47,0,0,0,.16-.07,6.58,6.58,0,0,1,2-1A5.19,5.19,0,0,1,317.56,48.32Z"/><path class="cls-1" d="M339.28,51.23a3.66,3.66,0,0,1,2.61,1.33,4.75,4.75,0,0,1,.47,3.41l-.78,5.8a1.36,1.36,0,0,0,.15.94.89.89,0,0,0,.66.4,1.84,1.84,0,0,0,1.05-.25c.11.06.16.17.13.35a1.76,1.76,0,0,1-.3.86,7.42,7.42,0,0,1-1.28.58,3.1,3.1,0,0,1-1.47.19,2.17,2.17,0,0,1-1.26-.68,2.43,2.43,0,0,1-.71-1.2l-.25.16q-.21.14-.58.33a8.48,8.48,0,0,1-.83.37,4.66,4.66,0,0,1-1.06.26,4.31,4.31,0,0,1-1.19,0A3.55,3.55,0,0,1,332.39,63a2.82,2.82,0,0,1-.63-2.35,2.74,2.74,0,0,1,.52-1.28,3.56,3.56,0,0,1,.95-.91,6.05,6.05,0,0,1,1.37-.61,12.33,12.33,0,0,1,1.45-.39l1.53-.26,1.3-.21a.47.47,0,0,0,.33-.44l.22-1.62a2.55,2.55,0,0,0-.25-1.68,1.55,1.55,0,0,0-1.19-.76,1.8,1.8,0,0,0-1.46.36,2.22,2.22,0,0,0-.71,1.48,1,1,0,0,1-.56.81,1.84,1.84,0,0,1-1,.15,1.68,1.68,0,0,1-1.44-.91q.19-1.41,2.29-2.39A7.46,7.46,0,0,1,339.28,51.23Zm-2.84,11.14a2.3,2.3,0,0,0,1.42-.23,1.18,1.18,0,0,0,.7-.87l.4-3q-.22.06-.91.18t-1.06.22a7.9,7.9,0,0,0-.88.3,1.79,1.79,0,0,0-.78.55,1.65,1.65,0,0,0-.33.79,1.83,1.83,0,0,0,.29,1.45A1.71,1.71,0,0,0,336.44,62.37Z"/><path class="cls-1" d="M349.83,52.95q.65.09,1.87.16c.81,0,1.32.09,1.51.11a2,2,0,0,1,0,.54c0,.28-.09.41-.17.4a3.25,3.25,0,0,0-1,.1c-.44.09-.68.22-.73.4l0,.18q0,.48,1.84,7.09.31-.5,1.54-2.75t1.43-2.58a2.78,2.78,0,0,0,.3-.89.93.93,0,0,0-.37-.79,2.45,2.45,0,0,0-1.37-.53c-.08,0-.1-.16-.06-.46a.75.75,0,0,1,.19-.49q.35,0,1.43.28T358,54q.62.08,1.53.12t1.32.09a.85.85,0,0,1,.05.49q-.06.47-.18.46a3.75,3.75,0,0,0-1.23.13,1.64,1.64,0,0,0-1.14.75l-7.14,12.3q-2.4,4.06-5,3.71a1.61,1.61,0,0,1-1.12-.57,1.39,1.39,0,0,1,.43-2.07q3.06.41,4.36-1.87l1.06-1.9-3-10.6a3.83,3.83,0,0,0-.26-.73,1.79,1.79,0,0,0-.78-.78,2.85,2.85,0,0,0-.93-.35c-.08,0-.1-.15-.06-.43s.1-.49.16-.52l1.56.3Q349.12,52.85,349.83,52.95Z"/><path class="cls-1" d="M368.64,55.17a3.66,3.66,0,0,1,2.61,1.33,4.75,4.75,0,0,1,.47,3.41l-.78,5.8a1.35,1.35,0,0,0,.15.93.89.89,0,0,0,.66.4,1.85,1.85,0,0,0,1.05-.25c.11.05.16.17.13.35a1.77,1.77,0,0,1-.29.86,7.46,7.46,0,0,1-1.28.58,3.1,3.1,0,0,1-1.47.19,2.17,2.17,0,0,1-1.26-.68,2.43,2.43,0,0,1-.71-1.2l-.25.16c-.14.09-.34.2-.58.33a8.72,8.72,0,0,1-.83.37,4.79,4.79,0,0,1-1.06.26A4.31,4.31,0,0,1,364,68a3.55,3.55,0,0,1-2.29-1.13,2.82,2.82,0,0,1-.63-2.35,2.74,2.74,0,0,1,.52-1.28,3.55,3.55,0,0,1,.95-.91,6.14,6.14,0,0,1,1.37-.61,12.37,12.37,0,0,1,1.45-.39l1.53-.26,1.3-.22a.47.47,0,0,0,.33-.44l.22-1.62a2.56,2.56,0,0,0-.25-1.68,1.55,1.55,0,0,0-1.19-.76,1.8,1.8,0,0,0-1.46.36,2.22,2.22,0,0,0-.71,1.48,1,1,0,0,1-.56.81,1.85,1.85,0,0,1-1,.15,1.68,1.68,0,0,1-1.44-.91q.19-1.41,2.29-2.39A7.46,7.46,0,0,1,368.64,55.17ZM365.8,66.31a2.31,2.31,0,0,0,1.42-.23,1.17,1.17,0,0,0,.7-.87l.4-3q-.22.06-.91.18t-1.06.22a8,8,0,0,0-.88.3,1.79,1.79,0,0,0-.78.56,1.64,1.64,0,0,0-.33.79,1.83,1.83,0,0,0,.29,1.45A1.71,1.71,0,0,0,365.8,66.31Z"/><path class="cls-1" d="M382,60.57a10.17,10.17,0,0,1,3.79-6.78,9.16,9.16,0,0,1,7.27-2.08,29.21,29.21,0,0,1,6.69,2,9,9,0,0,1,0,2q-.1,2-.14,2.3c0,.24-.24.33-.64.27a1.06,1.06,0,0,1-.62-.26,5.36,5.36,0,0,0-.14-.86,5.9,5.9,0,0,0-.45-1.12,4.37,4.37,0,0,0-.89-1.21,6,6,0,0,0-1.55-1,7.76,7.76,0,0,0-2.33-.66,5.26,5.26,0,0,0-4.82,1.69,10.08,10.08,0,0,0-2.41,5.68,11.4,11.4,0,0,0,.21,4.18,8.11,8.11,0,0,0,1.94,3.65,6.57,6.57,0,0,0,6.54,1.7.77.77,0,0,0,.39-.64l.25-2.12,0-.21a9,9,0,0,0,.11-2.41q-.07-.4-.79-.68a5.73,5.73,0,0,0-1.23-.35c-.08,0-.1-.16-.06-.44a.85.85,0,0,1,.19-.53q.32,0,1.77.33t2.33.4l3.59.3a1.65,1.65,0,0,1,0,.51c0,.33-.11.5-.19.49a3.87,3.87,0,0,0-.8.07,7.81,7.81,0,0,0-.91.18q-.41.18-.67,2.1c-.06.41-.11.83-.15,1.24l-.08.68a2.57,2.57,0,0,0,0,.93,2.46,2.46,0,0,1,.09.46c0,.28-.29.48-.74.62q-1.25.37-1.84.5a15.64,15.64,0,0,1-2.2.21,19.17,19.17,0,0,1-3.53-.17,8.83,8.83,0,0,1-6.23-3.77A9.71,9.71,0,0,1,382,60.57Z"/><path class="cls-1" d="M410.18,60.75a6.56,6.56,0,0,1,4.47,2.56A6.37,6.37,0,0,1,416,68.24a6.73,6.73,0,0,1-13.35-1.79A6.4,6.4,0,0,1,405.19,62,6.52,6.52,0,0,1,410.18,60.75Zm-.57,1.33a2.39,2.39,0,0,0-2.33,1.05,6.39,6.39,0,0,0-1.2,3.09,8.66,8.66,0,0,0,.4,4.28,3,3,0,0,0,2.43,2.13,2.42,2.42,0,0,0,2.35-1.07,6.31,6.31,0,0,0,1.21-3.08,10.15,10.15,0,0,0,0-2.89,5.24,5.24,0,0,0-.94-2.36A2.76,2.76,0,0,0,409.61,62.08Z"/><path class="cls-1" d="M426.8,63A6,6,0,0,1,430,64.43a6.26,6.26,0,0,1,1.86,2.65,6.33,6.33,0,0,1,.32,3,7,7,0,0,1-7.86,6.08,6.85,6.85,0,0,1-2-.69c-.08,0-.14.12-.17.4l-.27,2a10.66,10.66,0,0,0-.12,2.68c0,.16.24.35.72.56a4.49,4.49,0,0,0,1,.36c.06,0,.07.16,0,.44a2.77,2.77,0,0,1-.09.54l-1.56-.3q-1.36-.27-2-.36t-2.09-.19l-1.59-.12a1,1,0,0,1,0-.56c0-.29.08-.42.14-.42a4.17,4.17,0,0,0,1.11-.08q.75-.12.87-.35a10.79,10.79,0,0,0,.46-2.1l1.51-11.25a2.89,2.89,0,0,0-.21-2,1.33,1.33,0,0,0-.59-.51,3.52,3.52,0,0,0-.69-.26c-.19,0-.29-.09-.28-.13.08-.57.18-.86.3-.86a23,23,0,0,0,4.5-.24l.58-.07c.08,0,.09.22,0,.63a1.63,1.63,0,0,1-.11.35,6,6,0,0,1,1.4-.52A4.26,4.26,0,0,1,426.8,63Zm-.92,1.47a2.25,2.25,0,0,0-1.65.35,2,2,0,0,0-.81,1.42l-.81,6.07A1.83,1.83,0,0,0,423.2,74a2.89,2.89,0,0,0,1.63.8,2.8,2.8,0,0,0,2.45-.93,5.76,5.76,0,0,0,1.4-3.35,7.69,7.69,0,0,0-.41-4.09A2.92,2.92,0,0,0,425.89,64.47Z"/><path class="cls-1" d="M441,64.88a5.52,5.52,0,0,1,2.4.88,4.72,4.72,0,0,1,1.52,1.61,6.9,6.9,0,0,1,.71,1.87,5.13,5.13,0,0,1,.09,1.77c-.06.43-.17.69-.33.78a1.69,1.69,0,0,1-.92,0l-7-.94c-.14,0-.21,0-.23.15a5.79,5.79,0,0,0,.11,2.11,4.09,4.09,0,0,0,1.08,1.91,3.49,3.49,0,0,0,2.13,1,7.79,7.79,0,0,0,.86.07,4.35,4.35,0,0,0,.79,0l.64-.11a2.52,2.52,0,0,0,.58-.19l.43-.2.64-.32a.46.46,0,0,1,.12.2.57.57,0,0,1,0,.31.92.92,0,0,1-.25.54,4.83,4.83,0,0,1-2,1.36,5.51,5.51,0,0,1-3,.4,6,6,0,0,1-4.17-2.49A6.41,6.41,0,0,1,434,70.75a6.88,6.88,0,0,1,2.37-4.6A5.76,5.76,0,0,1,441,64.88Zm-.39,1.33a2.1,2.1,0,0,0-1.32.24,2.81,2.81,0,0,0-1,.89,5.71,5.71,0,0,0-.58,1,3.64,3.64,0,0,0-.25.85c0,.14,0,.21.15.23l4.77.64c.18,0,.29-.11.33-.41a3.85,3.85,0,0,0-.41-2.18A2.13,2.13,0,0,0,440.63,66.21Z"/><path class="cls-1" d="M454.16,66.65a5.51,5.51,0,0,1,2.4.88,4.71,4.71,0,0,1,1.52,1.61A6.86,6.86,0,0,1,458.8,71a5.13,5.13,0,0,1,.09,1.77q-.09.65-.33.78a1.68,1.68,0,0,1-.92,0l-7-.94c-.14,0-.21,0-.23.15a5.77,5.77,0,0,0,.11,2.11,4.09,4.09,0,0,0,1.08,1.92,3.5,3.5,0,0,0,2.13,1,7.8,7.8,0,0,0,.86.07,4.35,4.35,0,0,0,.79,0l.64-.11a2.58,2.58,0,0,0,.58-.19l.43-.2.64-.32a.46.46,0,0,1,.12.2.58.58,0,0,1,0,.31.92.92,0,0,1-.25.54,4.84,4.84,0,0,1-2,1.36,5.52,5.52,0,0,1-3,.4,6,6,0,0,1-4.16-2.49,6.41,6.41,0,0,1-1.24-4.86,6.88,6.88,0,0,1,2.37-4.6A5.76,5.76,0,0,1,454.16,66.65ZM453.78,68a2.11,2.11,0,0,0-1.32.24,2.82,2.82,0,0,0-1,.89,5.73,5.73,0,0,0-.58,1,3.64,3.64,0,0,0-.25.85c0,.14,0,.21.15.23l4.77.64c.18,0,.29-.11.32-.41a3.86,3.86,0,0,0-.41-2.18A2.13,2.13,0,0,0,453.78,68Z"/><path class="cls-1" d="M20.46,61.64a3.65,3.65,0,0,1,2.68,1.19,4.76,4.76,0,0,1,.65,3.38L23.31,72a1.35,1.35,0,0,0,.19.93.89.89,0,0,0,.68.37,1.85,1.85,0,0,0,1-.3c.12,0,.17.16.15.34a1.76,1.76,0,0,1-.25.87,7.35,7.35,0,0,1-1.25.64,3.11,3.11,0,0,1-1.45.27,2.18,2.18,0,0,1-1.29-.61,2.44,2.44,0,0,1-.77-1.17l-.24.17q-.21.15-.57.36a8.64,8.64,0,0,1-.81.41,4.76,4.76,0,0,1-1,.32,4.31,4.31,0,0,1-1.18.07,3.55,3.55,0,0,1-2.35-1,2.82,2.82,0,0,1-.75-2.31,2.74,2.74,0,0,1,.45-1.31,3.57,3.57,0,0,1,.9-1,6.14,6.14,0,0,1,1.34-.68A12.54,12.54,0,0,1,17.54,68l1.52-.34,1.29-.28a.47.47,0,0,0,.31-.45l.13-1.63a2.56,2.56,0,0,0-.34-1.67,1.56,1.56,0,0,0-1.23-.7,1.8,1.8,0,0,0-1.44.43,2.23,2.23,0,0,0-.63,1.51,1,1,0,0,1-.52.84,1.85,1.85,0,0,1-1,.2,1.68,1.68,0,0,1-1.48-.84q.12-1.42,2.16-2.51A7.45,7.45,0,0,1,20.46,61.64ZM18.19,72.91a2.3,2.3,0,0,0,1.41-.3,1.17,1.17,0,0,0,.66-.9l.25-3q-.21.07-.9.22t-1.05.27a8.24,8.24,0,0,0-.87.35,1.81,1.81,0,0,0-.75.59,1.64,1.64,0,0,0-.29.81A1.83,1.83,0,0,0,17,72.36,1.71,1.71,0,0,0,18.19,72.91Z"/><path class="cls-1" d="M35.49,62.87a6,6,0,0,1,3.23,1.2,6.23,6.23,0,0,1,2,2.55,6.31,6.31,0,0,1,.51,3,6.79,6.79,0,0,1-2.47,4.79,6.55,6.55,0,0,1-4.92,1.67,9.27,9.27,0,0,1-2.14-.4,6.58,6.58,0,0,0-1.37-.34,2.28,2.28,0,0,0-.79.14,2.9,2.9,0,0,1-.61.16,1.44,1.44,0,0,1-.41-.21c-.22-.14-.32-.25-.32-.33s0-.23.1-.53.15-.71.25-1.26a16.89,16.89,0,0,0,.24-1.8l1-12.09a10.32,10.32,0,0,0,0-2q-.11-.49-1.5-.6l-.27,0c-.12,0-.17-.17-.14-.49s.1-.47.22-.46q.92,0,1.77-.09t1.4-.18c.37-.07.7-.14,1-.22l.87-.23h.06c.08,0,.15.07.22.18a.84.84,0,0,1,.12.32A10.37,10.37,0,0,0,33,58.43l-.39,4.74v.16a.82.82,0,0,0,0,.13q0,.09.05.09l.11,0A5.48,5.48,0,0,1,34,63,4.26,4.26,0,0,1,35.49,62.87Zm-.78,1.55a2.31,2.31,0,0,0-1.65.43,1.75,1.75,0,0,0-.73,1.28l-.52,6.28A1.78,1.78,0,0,0,32.47,74a3.22,3.22,0,0,0,1.81.68,2.52,2.52,0,0,0,2.44-1.2,6.81,6.81,0,0,0,1.06-3.31,7.63,7.63,0,0,0-.59-4.11A2.91,2.91,0,0,0,34.71,64.42Z"/><path class="cls-1" d="M50.49,64.1a6.55,6.55,0,0,1,4.6,2.33,6.37,6.37,0,0,1,1.58,4.86,6.75,6.75,0,0,1-11.85,3.77,6.69,6.69,0,0,1,.76-9.42A6.52,6.52,0,0,1,50.49,64.1ZM50,65.46a2.39,2.39,0,0,0-2.27,1.17,6.37,6.37,0,0,0-1,3.15A8.66,8.66,0,0,0,47.3,74a3,3,0,0,0,2.54,2,2.42,2.42,0,0,0,2.29-1.18,6.32,6.32,0,0,0,1-3.13A10.21,10.21,0,0,0,53,68.83,5.23,5.23,0,0,0,52,66.52,2.76,2.76,0,0,0,50,65.46Z"/><path class="cls-1" d="M71.8,69.07l-.48,5.87A6.54,6.54,0,0,0,71.39,77a.62.62,0,0,0,.32.27,2.28,2.28,0,0,0,.51.16l.49.07a.55.55,0,0,1,.25,0c.08,0,.11.12.1.28a2.31,2.31,0,0,1-.09.4c-.06.18-.12.27-.2.27a6.86,6.86,0,0,0-1.06,0l-1.25.11-1.14.13-1.21.14q-.21,0-.17-.49l.11-1.3C68,77,68,77,68,77A6.62,6.62,0,0,1,66,78.15a5,5,0,0,1-2.39.4,3.11,3.11,0,0,1-1.72-.65,3.59,3.59,0,0,1-1.08-1.4,6.38,6.38,0,0,1-.48-1.77,9,9,0,0,1,0-1.88l.27-3.32a2.83,2.83,0,0,0-.32-1.94,1.64,1.64,0,0,0-.64-.5,3,3,0,0,0-.7-.24c-.2,0-.29-.07-.29-.11,0-.57.12-.87.22-.88a22.47,22.47,0,0,0,2.46-.16,23.3,23.3,0,0,0,2.38-.34l.12,0,.12,0c.1,0,.17.08.21.23a1.09,1.09,0,0,1,0,.33q-.43,2-.48,2.58L63.45,72a6.37,6.37,0,0,0,.38,3.37,2.62,2.62,0,0,0,3.67.73,1.58,1.58,0,0,0,.74-1.06l.4-4.89a2.83,2.83,0,0,0-.32-1.93,1.43,1.43,0,0,0-.63-.5,3.32,3.32,0,0,0-.71-.24c-.2,0-.29-.07-.29-.11q.07-.86.25-.87a22.69,22.69,0,0,0,2.43-.16A23.66,23.66,0,0,0,71.75,66L72,66c.1,0,.17.08.22.23a.54.54,0,0,1,0,.33Q71.84,68.54,71.8,69.07Z"/><path class="cls-1" d="M77.41,68.4l-1.81-.15c-.14,0-.19-.27-.14-.79a.77.77,0,0,1,.05-.26,8.32,8.32,0,0,0,2.41-1.38l.92-.8c.33-.3.73-.69,1.18-1.17a2.1,2.1,0,0,1,.56.12c.17.06.26.13.25.18l-.24,2.9,2.15.19,1.47.13c.16,0,.23.11.21.29a2.89,2.89,0,0,1-.4,1.28l-3.56-.29-.59,7.14a2.82,2.82,0,0,0,.36,1.85,1.7,1.7,0,0,0,1.34.74,2.81,2.81,0,0,0,.63,0,3.18,3.18,0,0,0,.55-.12l.4-.15.22-.07c.08,0,.16.08.24.29a.7.7,0,0,1,.09.39,2.71,2.71,0,0,1-1.34.86,4.69,4.69,0,0,1-2.16.37,3.74,3.74,0,0,1-2.54-1.21,4,4,0,0,1-.83-3.16Z"/><path class="cls-1" d="M94.58,69.81l-1.81-.15c-.14,0-.19-.27-.15-.79a.76.76,0,0,1,.05-.26,8.33,8.33,0,0,0,2.41-1.38l.92-.8q.5-.45,1.18-1.17a2.14,2.14,0,0,1,.56.12c.17.06.26.13.25.19l-.24,2.9,2.15.19,1.47.14c.16,0,.23.11.21.29a2.89,2.89,0,0,1-.4,1.28l-3.56-.29L97,77.2A2.81,2.81,0,0,0,97.4,79a1.7,1.7,0,0,0,1.34.74,2.82,2.82,0,0,0,.63,0,3,3,0,0,0,.55-.12l.4-.15.22-.07c.08,0,.16.08.25.29a.69.69,0,0,1,.09.39,2.71,2.71,0,0,1-1.34.86,4.69,4.69,0,0,1-2.16.37,3.74,3.74,0,0,1-2.54-1.21A4,4,0,0,1,94,77Z"/><path class="cls-1" d="M113.4,69.27q3.79.31,3.31,6.15l-.25,3.05a10.94,10.94,0,0,0,0,2.69c0,.14.26.3.75.49a4.51,4.51,0,0,0,1,.31c.06,0,.08.15.07.44a3.12,3.12,0,0,1-.06.58l-1.58-.25c-.91-.13-1.59-.22-2-.25s-1.16-.07-2-.08h-1.56a1.1,1.1,0,0,1,0-.57c0-.3.07-.44.13-.44a3.55,3.55,0,0,0,1-.14c.46-.11.72-.23.79-.37a11.41,11.41,0,0,0,.35-2.15l.24-2.9a6.19,6.19,0,0,0-.39-3.45,2.43,2.43,0,0,0-2-1.11,2.84,2.84,0,0,0-1.67.37,1.41,1.41,0,0,0-.83,1.07l-.42,5.1a10.88,10.88,0,0,0,0,2.69q0,.21.75.49a4.25,4.25,0,0,0,1,.3c.06,0,.08.15.07.44a1.68,1.68,0,0,1-.09.57L108.4,82q-1.31-.2-2-.25c-.47,0-1.16-.07-2.07-.08h-1.59a.87.87,0,0,1-.07-.57c0-.3.08-.44.15-.43a4.21,4.21,0,0,0,1.1-.13q.74-.16.82-.37a9.59,9.59,0,0,0,.38-2.12l1-12.33a11.72,11.72,0,0,0,0-2q-.11-.48-1.5-.6l-.27,0c-.12,0-.17-.17-.14-.49s.1-.47.22-.46q.93,0,1.77-.09c.56-.05,1-.11,1.4-.18s.7-.14,1-.22l.87-.23h.06c.08,0,.15.07.22.18a.82.82,0,0,1,.12.32,9.55,9.55,0,0,0-.58,2.76l-.49,6c0,.12,0,.18.1.19s.06,0,.13-.08A5.66,5.66,0,0,1,111,69.65,5.49,5.49,0,0,1,113.4,69.27Z"/><path class="cls-1" d="M127.21,70.4a5.51,5.51,0,0,1,2.44.75,4.7,4.7,0,0,1,1.6,1.53,6.86,6.86,0,0,1,.81,1.83,5.13,5.13,0,0,1,.18,1.76c0,.43-.13.7-.29.8a1.69,1.69,0,0,1-.92.09L124,76.57c-.14,0-.21,0-.22.16a5.77,5.77,0,0,0,.22,2.11,4.09,4.09,0,0,0,1.17,1.86,3.5,3.5,0,0,0,2.18.92,8.34,8.34,0,0,0,.86,0,4.55,4.55,0,0,0,.78-.08l.64-.14a2.56,2.56,0,0,0,.57-.22l.42-.22.63-.35a.45.45,0,0,1,.13.19.57.57,0,0,1,.07.3.91.91,0,0,1-.22.55,4.85,4.85,0,0,1-1.88,1.46,5.52,5.52,0,0,1-3,.56A6,6,0,0,1,122,81.41a6.41,6.41,0,0,1-1.49-4.79,6.88,6.88,0,0,1,2.13-4.72A5.77,5.77,0,0,1,127.21,70.4Zm-.32,1.35a2.1,2.1,0,0,0-1.31.31,2.79,2.79,0,0,0-.94.94,5.78,5.78,0,0,0-.52,1.08,3.69,3.69,0,0,0-.21.86c0,.14,0,.21.16.22l4.8.39c.18,0,.28-.13.3-.42a3.85,3.85,0,0,0-.52-2.16A2.13,2.13,0,0,0,126.89,71.75Z"/><path class="cls-1" d="M145.4,80.84a10.94,10.94,0,0,0,0,2.69c0,.14.28.31.76.5a4.37,4.37,0,0,0,1,.3c.08,0,.11.15.1.44a1.71,1.71,0,0,1-.09.57l-1.58-.25q-1.37-.2-2-.25c-.5,0-1.19-.07-2.1-.08h-1.57a.88.88,0,0,1-.07-.57q0-.44.15-.43a4.34,4.34,0,0,0,1.09-.13q.76-.16.83-.36a9.76,9.76,0,0,0,.38-2.15l.4-4.83a2.83,2.83,0,0,0-.32-1.94,1.66,1.66,0,0,0-.65-.5,3.13,3.13,0,0,0-.7-.24c-.2,0-.29-.07-.29-.11q.07-.86.25-.87a22.74,22.74,0,0,0,2.43-.16,23.06,23.06,0,0,0,2.38-.34l.24,0c.1,0,.17.08.22.23a.54.54,0,0,1,0,.33,25.64,25.64,0,0,0-.45,2.53Zm-2.06-12.65a1.81,1.81,0,0,1-.43-1.35,1.76,1.76,0,0,1,.64-1.25,1.84,1.84,0,0,1,3,1.55,1.81,1.81,0,0,1-.64,1.26,1.83,1.83,0,0,1-2.61-.21Z"/><path class="cls-1" d="M159.74,73.07a3.2,3.2,0,0,1,1.88.74,3.47,3.47,0,0,1,1.06,1.59,7,7,0,0,1,2.28-1.3,6.67,6.67,0,0,1,2.83-.36,3.36,3.36,0,0,1,1.78.62,3.26,3.26,0,0,1,1.08,1.42,7,7,0,0,1,.47,1.89,11.45,11.45,0,0,1,0,2.16l-.26,3.11a12.5,12.5,0,0,0,0,2.68q0,.21.77.5a4.37,4.37,0,0,0,1,.3c.06,0,.08.15.07.44a1.7,1.7,0,0,1-.09.57l-1.55-.25q-1.34-.2-2-.26t-2-.08h-1.59a1.11,1.11,0,0,1,0-.57c0-.3.07-.44.13-.44a4,4,0,0,0,1.08-.13c.49-.11.75-.23.81-.37a9.17,9.17,0,0,0,.38-2.06l.25-3q.35-4.3-2.4-4.52a2.71,2.71,0,0,0-1.67.34,1.86,1.86,0,0,0-.85.85,2.32,2.32,0,0,1,0,.24.58.58,0,0,0,0,.24,14.43,14.43,0,0,1-.06,1.84l-.26,3.14a11.77,11.77,0,0,0,0,2.57q0,.21.77.5a4.28,4.28,0,0,0,1,.3c.06,0,.08.15.07.44a1.68,1.68,0,0,1-.09.57l-1.55-.25q-1.34-.2-2-.25t-2-.08h-1.59a1.09,1.09,0,0,1,0-.57c0-.3.07-.44.13-.44a4,4,0,0,0,1.08-.13c.49-.11.75-.23.8-.37a9.71,9.71,0,0,0,.39-2.15l.23-2.84a6.31,6.31,0,0,0-.41-3.4,2.26,2.26,0,0,0-1.93-1.2,2.84,2.84,0,0,0-1.67.37A1.4,1.4,0,0,0,155,76.5l-.42,5.1a11,11,0,0,0,0,2.69q0,.21.74.49a4,4,0,0,0,1,.3c.08,0,.11.15.1.44a1.71,1.71,0,0,1-.09.57l-1.55-.25q-1.31-.2-2-.25t-2.08-.08h-1.58a.86.86,0,0,1-.07-.57c0-.3.08-.44.16-.43a4.33,4.33,0,0,0,1.08-.13q.76-.16.83-.36a9.69,9.69,0,0,0,.39-2.15l.4-4.83a2.83,2.83,0,0,0-.32-1.93,1.42,1.42,0,0,0-.63-.5,3.33,3.33,0,0,0-.71-.24c-.2,0-.29-.07-.29-.11,0-.57.13-.86.25-.87a41.1,41.1,0,0,0,4.81-.5.18.18,0,0,1,.09,0h.15c.1,0,.17.08.22.23a.55.55,0,0,1,0,.33,10.39,10.39,0,0,0-.21,1.06c0,.08,0,.13,0,.15a.47.47,0,0,0,.16-.08,6.56,6.56,0,0,1,1.92-1.09A5.2,5.2,0,0,1,159.74,73.07Z"/><path class="cls-1" d="M183.44,75a6,6,0,0,1,3.3,1.25,6.23,6.23,0,0,1,2.47,5.51,7,7,0,0,1-7.54,6.48,6.9,6.9,0,0,1-2.07-.59c-.08,0-.13.13-.15.41l-.17,2a10.73,10.73,0,0,0,0,2.69q0,.24.75.52a4.53,4.53,0,0,0,1,.31c.06,0,.08.15.07.44a2.71,2.71,0,0,1-.06.55l-1.58-.22q-1.37-.2-2-.26c-.49,0-1.19-.07-2.1-.08l-1.59,0a1.05,1.05,0,0,1,0-.55c0-.29.06-.43.12-.42a4.15,4.15,0,0,0,1.1-.13q.74-.16.85-.39a10.86,10.86,0,0,0,.35-2.12l.93-11.32a2.88,2.88,0,0,0-.32-2,1.32,1.32,0,0,0-.61-.48,3.53,3.53,0,0,0-.7-.22c-.2,0-.29-.07-.29-.11,0-.57.13-.86.25-.87A22.79,22.79,0,0,0,179.9,75l.58-.1q.12,0,.07.63a1.52,1.52,0,0,1-.09.35,6,6,0,0,1,1.38-.59A4.28,4.28,0,0,1,183.44,75Zm-.84,1.51A2.26,2.26,0,0,0,181,77a2,2,0,0,0-.73,1.46l-.5,6.1a1.83,1.83,0,0,0,.67,1.62,2.88,2.88,0,0,0,1.67.72,2.8,2.8,0,0,0,2.4-1.06,5.75,5.75,0,0,0,1.22-3.42,7.67,7.67,0,0,0-.62-4.06A2.93,2.93,0,0,0,182.6,76.55Z"/><path class="cls-1" d="M198.36,76.24a6.56,6.56,0,0,1,4.6,2.33,6.37,6.37,0,0,1,1.58,4.86,6.78,6.78,0,1,1-6.18-7.19Zm-.5,1.36a2.39,2.39,0,0,0-2.27,1.17,6.37,6.37,0,0,0-1,3.15,8.65,8.65,0,0,0,.62,4.26,3,3,0,0,0,2.54,2A2.42,2.42,0,0,0,200,87a6.31,6.31,0,0,0,1-3.13,10.21,10.21,0,0,0-.15-2.89,5.23,5.23,0,0,0-1.06-2.31A2.76,2.76,0,0,0,197.86,77.6Z"/><path class="cls-1" d="M215.67,77.66A3,3,0,0,1,218,78.83q-.21,2.52-1.63,2.4a1.77,1.77,0,0,1-1.11-.69,1.87,1.87,0,0,0-1.23-.7,1.6,1.6,0,0,0-1.51.82,4,4,0,0,0-.68,1.9l-.3,3.7a12.5,12.5,0,0,0,0,2.68c0,.14.28.31.75.49a4.14,4.14,0,0,0,1,.3c.06,0,.08.15.07.44a3.14,3.14,0,0,1-.06.58l-1.56-.25q-1.33-.2-2-.25t-2.07-.08h-1.59a.87.87,0,0,1-.07-.57c0-.3.08-.44.16-.44a4.14,4.14,0,0,0,1.1-.13q.74-.16.82-.37a9.7,9.7,0,0,0,.39-2.15l.4-4.83a2.82,2.82,0,0,0-.32-1.93,1.43,1.43,0,0,0-.63-.5,3.41,3.41,0,0,0-.7-.24c-.19,0-.28-.07-.27-.11,0-.57.12-.87.22-.88a42.1,42.1,0,0,0,4.84-.5l.24,0c.08,0,.14.08.19.22a.72.72,0,0,1,0,.35l-.08.41c0,.19-.08.38-.12.59a3.74,3.74,0,0,0-.08.4,5.45,5.45,0,0,1,1.57-1.32A3.25,3.25,0,0,1,215.67,77.66Z"/><path class="cls-1" d="M221.58,80.23l-1.81-.15c-.14,0-.19-.27-.15-.79a.76.76,0,0,1,.05-.26,8.33,8.33,0,0,0,2.41-1.38l.92-.8q.5-.45,1.18-1.17a2.15,2.15,0,0,1,.56.12c.17.06.26.13.25.19l-.24,2.9,2.15.19,1.47.13c.16,0,.23.11.21.29a2.89,2.89,0,0,1-.4,1.28l-3.56-.29L224,87.62a2.82,2.82,0,0,0,.36,1.85,1.7,1.7,0,0,0,1.34.74,2.82,2.82,0,0,0,.63,0,3.05,3.05,0,0,0,.55-.12l.4-.15.22-.07c.08,0,.16.08.24.29a.69.69,0,0,1,.09.4,2.73,2.73,0,0,1-1.34.86,4.69,4.69,0,0,1-2.16.37,3.74,3.74,0,0,1-2.54-1.21A4,4,0,0,1,221,87.4Z"/><path class="cls-1" d="M236.93,79.4a3.65,3.65,0,0,1,2.68,1.19,4.75,4.75,0,0,1,.65,3.38l-.48,5.84a1.35,1.35,0,0,0,.19.93.89.89,0,0,0,.68.37,1.84,1.84,0,0,0,1-.3c.12,0,.17.16.15.34a1.77,1.77,0,0,1-.25.87,7.32,7.32,0,0,1-1.25.64,3.1,3.1,0,0,1-1.45.27,2.18,2.18,0,0,1-1.29-.61,2.44,2.44,0,0,1-.77-1.17l-.24.17c-.14.1-.33.22-.57.36a8.86,8.86,0,0,1-.81.41,4.78,4.78,0,0,1-1,.32,4.32,4.32,0,0,1-1.18.07,3.55,3.55,0,0,1-2.35-1,2.82,2.82,0,0,1-.75-2.31,2.73,2.73,0,0,1,.45-1.3,3.56,3.56,0,0,1,.9-1,6.11,6.11,0,0,1,1.34-.68,12.54,12.54,0,0,1,1.42-.46l1.52-.34,1.29-.28a.47.47,0,0,0,.31-.45l.13-1.63a2.56,2.56,0,0,0-.34-1.67,1.56,1.56,0,0,0-1.23-.7,1.8,1.8,0,0,0-1.44.43,2.22,2.22,0,0,0-.63,1.51,1,1,0,0,1-.52.84,1.85,1.85,0,0,1-1,.2,1.68,1.68,0,0,1-1.48-.84q.12-1.42,2.16-2.51A7.45,7.45,0,0,1,236.93,79.4Zm-2.27,11.27a2.3,2.3,0,0,0,1.41-.3,1.17,1.17,0,0,0,.66-.9l.25-3q-.21.07-.9.22t-1.05.27a7.83,7.83,0,0,0-.87.35,1.8,1.8,0,0,0-.75.59,1.64,1.64,0,0,0-.29.81,1.83,1.83,0,0,0,.36,1.43A1.71,1.71,0,0,0,234.66,90.67Z"/><path class="cls-1" d="M254.09,80.81q3.82.31,3.32,6.39L257.18,90a12.44,12.44,0,0,0,0,2.68q0,.21.78.5a4.55,4.55,0,0,0,1,.31c.06,0,.08.15.07.44a1.7,1.7,0,0,1-.09.57c-.12,0-.63-.11-1.55-.25s-1.6-.22-2.05-.26-1.13-.06-2-.07h-1.54a.87.87,0,0,1-.07-.57c0-.3.08-.44.15-.43a3.54,3.54,0,0,0,1-.14q.68-.17.76-.37a8.56,8.56,0,0,0,.41-2.14l.23-2.82a6.46,6.46,0,0,0-.38-3.49,2.39,2.39,0,0,0-2-1.15,2.75,2.75,0,0,0-1.7.38,1.43,1.43,0,0,0-.8,1.05l-.42,5.1A12.42,12.42,0,0,0,249,92c0,.14.28.31.75.49a4.26,4.26,0,0,0,.94.3c.08,0,.11.15.1.44a1.71,1.71,0,0,1-.09.57l-1.55-.25q-1.31-.2-2-.25t-2.07-.08h-1.6a.87.87,0,0,1-.07-.57c0-.3.08-.44.16-.44a4.14,4.14,0,0,0,1.1-.13q.74-.16.82-.37a9.76,9.76,0,0,0,.38-2.15l.4-4.83a2.82,2.82,0,0,0-.32-1.93,1.43,1.43,0,0,0-.63-.5,3.39,3.39,0,0,0-.7-.24c-.19,0-.28-.07-.27-.11,0-.57.12-.87.22-.88a42.09,42.09,0,0,0,4.84-.5l.08,0h.16c.08,0,.14.08.19.22a.89.89,0,0,1,.06.33,10.1,10.1,0,0,0-.21,1.06.24.24,0,0,0,0,.15.47.47,0,0,0,.16-.08,6.57,6.57,0,0,1,1.92-1.09A5.21,5.21,0,0,1,254.09,80.81Z"/><path class="cls-1" d="M268.38,82a7.18,7.18,0,0,1,2.76.75A4.74,4.74,0,0,1,272.8,84a3.68,3.68,0,0,1-.48,1.65,1.1,1.1,0,0,1-1.08.58,1.33,1.33,0,0,1-.88-.37,3.39,3.39,0,0,1-.62-1,2.15,2.15,0,0,0-1.87-1.53,2.29,2.29,0,0,0-2.13,1.12,6.35,6.35,0,0,0-1,3.18,6,6,0,0,0,.77,4,3.51,3.51,0,0,0,2.68,1.52,8.08,8.08,0,0,0,.86,0,4.44,4.44,0,0,0,.78-.09l.64-.14a2.49,2.49,0,0,0,.57-.22l.42-.22.62-.35a.47.47,0,0,1,.13.19.58.58,0,0,1,.07.3.91.91,0,0,1-.23.55,4.84,4.84,0,0,1-1.88,1.46,5.45,5.45,0,0,1-3,.56A6,6,0,0,1,262.87,93a6.56,6.56,0,0,1-1.47-4.86,6.76,6.76,0,0,1,2.16-4.52A6,6,0,0,1,268.38,82Z"/><path class="cls-1" d="M281.27,83a5.52,5.52,0,0,1,2.44.75,4.7,4.7,0,0,1,1.6,1.53,6.86,6.86,0,0,1,.81,1.83,5.13,5.13,0,0,1,.18,1.76q-.05.65-.29.8a1.69,1.69,0,0,1-.92.09L278,89.22c-.14,0-.21,0-.22.16a5.78,5.78,0,0,0,.21,2.11,4.09,4.09,0,0,0,1.17,1.86,3.5,3.5,0,0,0,2.18.92,8.08,8.08,0,0,0,.86,0,4.46,4.46,0,0,0,.78-.08l.64-.14a2.56,2.56,0,0,0,.57-.22l.42-.22.63-.35a.46.46,0,0,1,.13.19.59.59,0,0,1,.07.3.92.92,0,0,1-.22.55,4.84,4.84,0,0,1-1.88,1.46,5.52,5.52,0,0,1-3,.56,6,6,0,0,1-4.29-2.28,6.41,6.41,0,0,1-1.49-4.79,6.88,6.88,0,0,1,2.13-4.72A5.77,5.77,0,0,1,281.27,83ZM281,84.39a2.1,2.1,0,0,0-1.31.31,2.79,2.79,0,0,0-.94.94,5.7,5.7,0,0,0-.52,1.08,3.62,3.62,0,0,0-.21.86c0,.14,0,.21.16.22l4.8.39q.27,0,.3-.42a3.86,3.86,0,0,0-.52-2.16A2.13,2.13,0,0,0,281,84.39Z"/><path class="cls-1" d="M301.61,84.71a6.55,6.55,0,0,1,4.6,2.33,6.37,6.37,0,0,1,1.58,4.86,6.78,6.78,0,1,1-6.18-7.19Zm-.5,1.36a2.39,2.39,0,0,0-2.27,1.17,6.39,6.39,0,0,0-1,3.15,8.65,8.65,0,0,0,.62,4.26,3,3,0,0,0,2.53,2,2.42,2.42,0,0,0,2.29-1.18,6.32,6.32,0,0,0,1-3.14,10.21,10.21,0,0,0-.15-2.89,5.24,5.24,0,0,0-1.06-2.31A2.75,2.75,0,0,0,301.11,86.07Z"/><path class="cls-1" d="M319.3,78.62a5.87,5.87,0,0,1,2,.48,2.07,2.07,0,0,1,1,.84,3.32,3.32,0,0,1-.3,1.63,1.07,1.07,0,0,1-1.14.64,1.16,1.16,0,0,1-.86-.56q-.36-.52-.76-1a1.37,1.37,0,0,0-1-.57,1.58,1.58,0,0,0-1.4.66,5,5,0,0,0-.91,1.8,12.07,12.07,0,0,0-.42,2.38l-.11,1.36s0,.05.05.09a.17.17,0,0,0,.11.07l3.26.27a.24.24,0,0,1,.15,0,.33.33,0,0,1,0,.18,3.07,3.07,0,0,1-.47,1.33L315.49,88a.16.16,0,0,0-.19.16l-.54,6.61a11.35,11.35,0,0,0,0,2.69q0,.21.75.49a4.26,4.26,0,0,0,1,.3c.06,0,.08.15.07.44a1.68,1.68,0,0,1-.09.57q-.18,0-1.53-.25t-2.07-.26q-.71-.06-2-.08h-1.55a.57.57,0,0,1-.09-.33,1.78,1.78,0,0,1,0-.46c0-.15.08-.22.14-.21a4,4,0,0,0,1.06-.14c.49-.11.75-.23.8-.37a9.81,9.81,0,0,0,.47-2.41l.56-6.81c0-.14,0-.21-.16-.22l-1.78-.15s-.05-.06,0-.18a1.59,1.59,0,0,1,.49-.83,1.19,1.19,0,0,1,1-.46l.47,0a.16.16,0,0,0,.19-.16l0-.3a8.08,8.08,0,0,1,2.29-5.18A5.56,5.56,0,0,1,319.3,78.62Z"/><path class="cls-1" d="M333.75,87.35a7.18,7.18,0,0,1,2.76.75,4.73,4.73,0,0,1,1.67,1.29A3.68,3.68,0,0,1,337.7,91a1.1,1.1,0,0,1-1.08.58,1.32,1.32,0,0,1-.88-.37,3.38,3.38,0,0,1-.62-1,2.15,2.15,0,0,0-1.87-1.53,2.29,2.29,0,0,0-2.13,1.12,6.35,6.35,0,0,0-1,3.18,6,6,0,0,0,.77,4,3.51,3.51,0,0,0,2.68,1.52,8.08,8.08,0,0,0,.86,0,4.44,4.44,0,0,0,.78-.08l.64-.14a2.54,2.54,0,0,0,.57-.22l.42-.22.62-.35a.46.46,0,0,1,.13.19.58.58,0,0,1,.07.3.91.91,0,0,1-.23.55,4.84,4.84,0,0,1-1.88,1.46,5.46,5.46,0,0,1-3,.56,6,6,0,0,1-4.33-2.29,6.56,6.56,0,0,1-1.47-4.86,6.76,6.76,0,0,1,2.16-4.52A6,6,0,0,1,333.75,87.35Z"/><path class="cls-1" d="M347.27,88.46a6.55,6.55,0,0,1,4.6,2.33,6.37,6.37,0,0,1,1.58,4.86A6.73,6.73,0,0,1,340,94.54,6.4,6.4,0,0,1,342.36,90,6.52,6.52,0,0,1,347.27,88.46Zm-.5,1.36A2.39,2.39,0,0,0,344.5,91a6.38,6.38,0,0,0-1,3.15,8.65,8.65,0,0,0,.62,4.26,3,3,0,0,0,2.53,2,2.42,2.42,0,0,0,2.29-1.18,6.32,6.32,0,0,0,1-3.14,10.17,10.17,0,0,0-.15-2.89,5.24,5.24,0,0,0-1.06-2.31A2.76,2.76,0,0,0,346.77,89.82Z"/><path class="cls-1" d="M365.59,90q3.82.31,3.32,6.39l-.23,2.81a12.36,12.36,0,0,0,0,2.68q0,.21.78.5a4.53,4.53,0,0,0,1,.31c.06,0,.08.15.07.44a1.69,1.69,0,0,1-.09.57c-.12,0-.63-.11-1.55-.25s-1.6-.22-2.05-.26-1.13-.06-2-.07h-1.54a.88.88,0,0,1-.07-.57q0-.44.15-.43a3.56,3.56,0,0,0,1-.14q.68-.17.76-.37a8.58,8.58,0,0,0,.41-2.14l.23-2.81a6.45,6.45,0,0,0-.38-3.49,2.39,2.39,0,0,0-2-1.15,2.75,2.75,0,0,0-1.7.38,1.43,1.43,0,0,0-.8,1.05l-.42,5.1a12.43,12.43,0,0,0,0,2.68c0,.14.28.31.75.49a4.28,4.28,0,0,0,.94.3c.08,0,.11.15.1.44a1.71,1.71,0,0,1-.09.57l-1.55-.25q-1.31-.2-2-.25c-.48,0-1.16-.07-2.07-.08H355a.88.88,0,0,1-.07-.57q0-.44.15-.43a4.19,4.19,0,0,0,1.1-.13q.74-.16.82-.37a9.77,9.77,0,0,0,.38-2.15l.4-4.83a2.82,2.82,0,0,0-.32-1.93,1.44,1.44,0,0,0-.63-.5,3.34,3.34,0,0,0-.7-.24c-.19,0-.28-.07-.27-.11,0-.57.12-.87.22-.88a42,42,0,0,0,4.84-.5l.08,0h.16c.08,0,.14.08.19.22a.9.9,0,0,1,.06.33,9.94,9.94,0,0,0-.21,1.06.24.24,0,0,0,0,.15.45.45,0,0,0,.16-.08,6.59,6.59,0,0,1,1.92-1.09A5.2,5.2,0,0,1,365.59,90Z"/><path class="cls-1" d="M375.05,92.83l-1.81-.15c-.14,0-.19-.27-.14-.79a.74.74,0,0,1,.05-.26,8.32,8.32,0,0,0,2.41-1.38l.92-.8q.5-.45,1.19-1.17a2.11,2.11,0,0,1,.56.12c.17.06.26.13.25.18l-.24,2.9,2.15.19,1.47.13c.16,0,.23.11.21.29a2.88,2.88,0,0,1-.4,1.28l-3.56-.29-.59,7.14a2.81,2.81,0,0,0,.36,1.85,1.7,1.7,0,0,0,1.34.74,2.82,2.82,0,0,0,.63,0,3.26,3.26,0,0,0,.55-.12l.4-.15.22-.07c.08,0,.16.08.24.29a.69.69,0,0,1,.09.39A2.71,2.71,0,0,1,380,104a4.68,4.68,0,0,1-2.16.38,3.75,3.75,0,0,1-2.54-1.21,4,4,0,0,1-.83-3.16Z"/><path class="cls-1" d="M390.25,92a5.52,5.52,0,0,1,2.44.75,4.72,4.72,0,0,1,1.6,1.53,6.88,6.88,0,0,1,.81,1.83,5.13,5.13,0,0,1,.18,1.76c0,.43-.13.7-.29.8a1.69,1.69,0,0,1-.92.09L387,98.16c-.14,0-.21,0-.22.16a5.79,5.79,0,0,0,.21,2.11,4.09,4.09,0,0,0,1.17,1.86,3.5,3.5,0,0,0,2.18.92,8.08,8.08,0,0,0,.86,0,4.54,4.54,0,0,0,.78-.08l.64-.14a2.56,2.56,0,0,0,.57-.22l.42-.22.63-.35a.46.46,0,0,1,.13.19.59.59,0,0,1,.07.3.92.92,0,0,1-.22.55,4.84,4.84,0,0,1-1.88,1.46,5.52,5.52,0,0,1-3,.56,6,6,0,0,1-4.29-2.28,6.41,6.41,0,0,1-1.49-4.79,6.88,6.88,0,0,1,2.13-4.72A5.77,5.77,0,0,1,390.25,92Zm-.32,1.35a2.1,2.1,0,0,0-1.31.31,2.79,2.79,0,0,0-.94.94,5.7,5.7,0,0,0-.52,1.08,3.63,3.63,0,0,0-.21.86c0,.14,0,.21.16.22l4.8.39q.27,0,.3-.42a3.85,3.85,0,0,0-.52-2.16A2.13,2.13,0,0,0,389.93,93.33Z"/><path class="cls-1" d="M397.5,93.18a.85.85,0,0,1,.16-.46l3.48.46,3.57.11a1,1,0,0,1,0,.42c0,.36-.08.53-.16.52a2.26,2.26,0,0,0-.84.09c-.29.09-.44.23-.45.43a.65.65,0,0,0,.12.37L405,97.91l.89-1q.66-.75,1-1.17a1.49,1.49,0,0,0,.34-.66.4.4,0,0,0-.23-.36,1.45,1.45,0,0,0-.52-.21l-.59-.09a1,1,0,0,1-.34-.07c-.08,0-.1-.17-.08-.48a.69.69,0,0,1,.16-.46l3.42.46,3.1.08a1.77,1.77,0,0,1,0,.48c0,.32-.06.47-.1.47a4.09,4.09,0,0,0-2.68.73L406,99a.52.52,0,0,0-.08.23.4.4,0,0,0,.09.31l3,4.87a3.46,3.46,0,0,0,2.34,1.65c.06,0,.08.18,0,.51a.79.79,0,0,1-.15.43l-1.08-.18-1.15-.18q-.52-.07-1.11-.12c-.43,0-.84-.06-1.22-.07h-2.47a2.47,2.47,0,0,1,0-.39q.05-.62.14-.61a2,2,0,0,0,.88-.14c.31-.11.47-.27.49-.47a.47.47,0,0,0,0-.18l-1.89-3.14L401.63,104a.87.87,0,0,0-.25.52.43.43,0,0,0,.08.3.71.71,0,0,0,.32.22l.39.14.5.12.4.08c.06,0,.08.17,0,.51a.75.75,0,0,1-.16.49l-1-.17-1.1-.18c-.34,0-.69-.09-1.07-.12s-.73,0-1.07-.06h-2.21a2.08,2.08,0,0,1,0-.51c0-.33.08-.5.16-.49a4,4,0,0,0,2.67-.92l3.49-3.59a.53.53,0,0,0,.08-.23.37.37,0,0,0-.07-.21l-3-4.9a2.5,2.5,0,0,0-1-.84,3.14,3.14,0,0,0-1.19-.41C397.5,93.68,397.47,93.51,397.5,93.18Z"/><path class="cls-1" d="M416,96.19,414.22,96c-.14,0-.19-.27-.14-.79a.73.73,0,0,1,.05-.26,8.32,8.32,0,0,0,2.41-1.38l.92-.8q.5-.45,1.19-1.17a2.11,2.11,0,0,1,.56.12c.17.06.26.13.25.18l-.24,2.9,2.15.19,1.47.13c.16,0,.23.11.22.29a2.89,2.89,0,0,1-.4,1.28l-3.56-.29-.59,7.14a2.82,2.82,0,0,0,.36,1.85,1.7,1.7,0,0,0,1.34.74,2.82,2.82,0,0,0,.63,0,3.16,3.16,0,0,0,.55-.12l.4-.15.22-.07c.08,0,.16.08.24.29a.69.69,0,0,1,.09.4,2.72,2.72,0,0,1-1.34.86,4.69,4.69,0,0,1-2.16.37,3.74,3.74,0,0,1-2.54-1.21,4,4,0,0,1-.83-3.16Z"/><path class="cls-1" d="M38.84,149.7a.86.86,0,0,0-.22-.62,1.31,1.31,0,0,0-.6-.38,5.38,5.38,0,0,0-.68-.17,4.28,4.28,0,0,0-.61-.07h-.12c-.08,0-.12-.15-.12-.45s0-.47.09-.53q.39,0,1.57.14t1.9.15c.42,0,.95,0,1.59,0s1.12-.05,1.42,0a1.85,1.85,0,0,1,0,.51c0,.3-.05.44-.13.44a3.38,3.38,0,0,0-1.19.33,1.81,1.81,0,0,0-1.05.87L36,160.19a1.16,1.16,0,0,1-.42.42,1,1,0,0,1-.59.17.38.38,0,0,1-.38-.22l-3.34-8.32-3.44,7.65a1.58,1.58,0,0,1-.36.4.89.89,0,0,1-.65.22.44.44,0,0,1-.41-.22q-.63-1.57-1.49-3.81t-1.58-4q-.72-1.72-1.66-3.75a1.37,1.37,0,0,0-.75-.62,2.89,2.89,0,0,0-.94-.24c-.08,0-.11-.16-.1-.48s.06-.45.14-.5.7.05,1.5.14,1.43.14,1.88.15,1.13,0,2,0l1.55,0a1.64,1.64,0,0,1,0,.54c0,.26,0,.4-.1.41a3.47,3.47,0,0,0-1,.17q-.65.19-.66.6s.91,2.35,2.74,6.93q.36-.82.82-1.86l.71-1.58.48-1.1q.24-.56.34-.84a1.59,1.59,0,0,0,.1-.37,2.17,2.17,0,0,0-.35-1.2,1.41,1.41,0,0,0-.64-.5,2.39,2.39,0,0,0-1.06-.21c-.08,0-.11-.15-.1-.43s.06-.46.14-.52.71.05,1.47.14,1.38.14,1.85.15,1.08,0,1.94,0l1.52,0a1.46,1.46,0,0,1,0,.55c0,.29-.06.43-.12.43q-1.51-.05-1.55,1a47.83,47.83,0,0,0,2.57,6.69q.52-1.23,1.27-2.89t1.11-2.46A4,4,0,0,0,38.84,149.7Z"/><path class="cls-1" d="M54.52,148q3.8.13,3.6,6L58,157a10.9,10.9,0,0,0,.15,2.68q0,.21.77.46a4.6,4.6,0,0,0,1,.26c.06,0,.09.15.09.43a3,3,0,0,1,0,.58l-1.58-.17c-.92-.09-1.6-.14-2-.16s-1.16,0-2,0l-1.57.07a1.13,1.13,0,0,1-.07-.57c0-.3,0-.44.1-.44a3.54,3.54,0,0,0,1-.19c.45-.13.71-.27.77-.41a11.4,11.4,0,0,0,.25-2.16l.1-2.91a6.21,6.21,0,0,0-.55-3.42,2.43,2.43,0,0,0-2.09-1,2.85,2.85,0,0,0-1.65.45,1.41,1.41,0,0,0-.78,1.1l-.17,5.11a10.89,10.89,0,0,0,.15,2.68q.05.21.77.46a4.21,4.21,0,0,0,1,.26c.06,0,.09.15.09.43a1.64,1.64,0,0,1-.07.58L50.14,161q-1.32-.13-2-.16t-2.07,0l-1.59.06a.87.87,0,0,1-.1-.57c0-.3.05-.44.13-.44a4.09,4.09,0,0,0,1.09-.19c.49-.13.76-.27.8-.4a9.63,9.63,0,0,0,.28-2.13l.42-12.36a11.69,11.69,0,0,0-.08-2q-.13-.48-1.53-.53h-.27q-.18,0-.16-.48c0-.32.08-.47.19-.47q.92-.06,1.76-.18t1.39-.25q.55-.13,1-.26l.86-.27h.06a.32.32,0,0,1,.23.17.83.83,0,0,1,.14.32,9.56,9.56,0,0,0-.45,2.78l-.2,6c0,.12,0,.18.11.18s.06,0,.12-.08a5.68,5.68,0,0,1,1.87-1.23A5.48,5.48,0,0,1,54.52,148Z"/><path class="cls-1" d="M68.38,148.44a5.51,5.51,0,0,1,2.48.63,4.7,4.7,0,0,1,1.67,1.46,6.88,6.88,0,0,1,.89,1.79,5.13,5.13,0,0,1,.27,1.75c0,.44-.1.71-.25.81a1.68,1.68,0,0,1-.91.13l-7.1-.24c-.14,0-.21.05-.21.17a5.78,5.78,0,0,0,.32,2.09,4.09,4.09,0,0,0,1.26,1.8,3.5,3.5,0,0,0,2.22.82,7.86,7.86,0,0,0,.86,0,4.57,4.57,0,0,0,.78-.12l.63-.17a2.56,2.56,0,0,0,.56-.25l.41-.24.61-.38a.48.48,0,0,1,.14.18.58.58,0,0,1,.08.3.91.91,0,0,1-.2.56,4.83,4.83,0,0,1-1.81,1.54,5.52,5.52,0,0,1-3,.7,6,6,0,0,1-4.39-2.07A6.41,6.41,0,0,1,62,155a6.89,6.89,0,0,1,1.9-4.81A5.77,5.77,0,0,1,68.38,148.44Zm-.25,1.36a2.1,2.1,0,0,0-1.29.37,2.81,2.81,0,0,0-.9,1,5.77,5.77,0,0,0-.47,1.1,3.63,3.63,0,0,0-.16.87c0,.14.05.21.17.21l4.81.16c.18,0,.27-.14.28-.44a3.86,3.86,0,0,0-.63-2.13A2.13,2.13,0,0,0,68.12,149.8Z"/><path class="cls-1" d="M85.26,149q3.83.13,3.63,6.22l-.1,2.82a12.39,12.39,0,0,0,.12,2.68q.05.21.8.46a4.57,4.57,0,0,0,1,.26c.06,0,.09.15.09.43a1.67,1.67,0,0,1-.07.58q-.18,0-1.55-.17t-2.06-.16q-.71,0-2,0l-1.54.07a.88.88,0,0,1-.1-.57c0-.3.06-.44.13-.44a3.52,3.52,0,0,0,1-.19q.68-.2.74-.41a8.6,8.6,0,0,0,.31-2.16l.1-2.82a6.45,6.45,0,0,0-.55-3.47,2.38,2.38,0,0,0-2.09-1.05,2.74,2.74,0,0,0-1.68.46,1.43,1.43,0,0,0-.75,1.09l-.17,5.11a12.45,12.45,0,0,0,.12,2.68q.05.21.77.46a4.23,4.23,0,0,0,1,.25c.08,0,.12.15.12.44a1.68,1.68,0,0,1-.06.58L80.91,162q-1.32-.13-2-.16t-2.07,0l-1.59.06a.88.88,0,0,1-.1-.57c0-.3.06-.44.13-.44a4.16,4.16,0,0,0,1.09-.19q.74-.2.8-.4a9.77,9.77,0,0,0,.28-2.16l.17-4.84a2.82,2.82,0,0,0-.41-1.92,1.44,1.44,0,0,0-.65-.47,3.4,3.4,0,0,0-.71-.2c-.19,0-.28-.06-.28-.1,0-.57.08-.87.18-.89a41.89,41.89,0,0,0,4.82-.73l.08,0h.16c.08,0,.15.07.2.21a.89.89,0,0,1,.08.33,9.89,9.89,0,0,0-.16,1.07.24.24,0,0,0,0,.15.44.44,0,0,0,.15-.08A6.58,6.58,0,0,1,83,149.48,5.2,5.2,0,0,1,85.26,149Z"/><path class="cls-1" d="M108.44,142.28a5.86,5.86,0,0,1,2.05.38,2.09,2.09,0,0,1,1.06.79,3.33,3.33,0,0,1-.22,1.64,1.06,1.06,0,0,1-1.11.69,1.16,1.16,0,0,1-.89-.52c-.26-.34-.53-.67-.81-1a1.37,1.37,0,0,0-1-.53,1.58,1.58,0,0,0-1.36.73,5,5,0,0,0-.82,1.85,12,12,0,0,0-.31,2.4l0,1.37a.18.18,0,0,0,.06.09.17.17,0,0,0,.12.06l3.27.11a.24.24,0,0,1,.15,0,.32.32,0,0,1,0,.18,3.05,3.05,0,0,1-.4,1.35l-3.09-.1a.16.16,0,0,0-.18.17l-.23,6.63a11.3,11.3,0,0,0,.15,2.68q.05.21.77.46a4.23,4.23,0,0,0,1,.26c.06,0,.09.15.09.43a1.65,1.65,0,0,1-.07.58q-.18,0-1.54-.17t-2.08-.16q-.71,0-2,0l-1.55.07a.56.56,0,0,1-.11-.33,1.8,1.8,0,0,1,0-.46c0-.15.07-.22.13-.22a4,4,0,0,0,1-.19c.48-.13.74-.27.79-.4a9.87,9.87,0,0,0,.35-2.43l.23-6.83c0-.14-.05-.21-.17-.21l-1.78-.06s-.06-.06-.05-.18a1.6,1.6,0,0,1,.45-.85,1.19,1.19,0,0,1,1-.5l.48,0a.16.16,0,0,0,.18-.17v-.3a8.08,8.08,0,0,1,2-5.29A5.56,5.56,0,0,1,108.44,142.28Z"/><path class="cls-1" d="M115.37,159a11,11,0,0,0,.15,2.68q.05.21.79.46a4.39,4.39,0,0,0,1,.26c.08,0,.12.15.12.44a1.69,1.69,0,0,1-.06.58c-.14,0-.67-.08-1.58-.17s-1.6-.14-2-.16-1.19,0-2.1,0l-1.57.07a.89.89,0,0,1-.1-.57c0-.3.06-.44.13-.44a4.29,4.29,0,0,0,1.08-.19c.5-.13.77-.27.82-.4a9.75,9.75,0,0,0,.28-2.16l.17-4.84a2.82,2.82,0,0,0-.41-1.92,1.65,1.65,0,0,0-.67-.47,3.16,3.16,0,0,0-.71-.2c-.2,0-.29-.06-.29-.1,0-.57.09-.87.21-.88a22.87,22.87,0,0,0,2.42-.27,23.28,23.28,0,0,0,2.37-.46l.24-.05c.1,0,.17.08.23.22a.54.54,0,0,1,0,.33,25.59,25.59,0,0,0-.32,2.55Zm-2.67-12.54a1.81,1.81,0,0,1-.49-1.33,1.76,1.76,0,0,1,.58-1.27,1.87,1.87,0,0,1,2.62.09,1.76,1.76,0,0,1,.49,1.31,1.81,1.81,0,0,1-.58,1.29,1.83,1.83,0,0,1-2.62-.09Z"/><path class="cls-1" d="M125.28,150.44a9.41,9.41,0,0,1,2.45.47,9.2,9.2,0,0,0,2.36.47l1.69.06s.1.13.19.39a1.86,1.86,0,0,1,.13.6c0,.28-.07.41-.19.41l-1.93-.07c-.08,0-.12,0-.12.08s.08.28.24.78a4.21,4.21,0,0,1,.22,1.44,4.3,4.3,0,0,1-1.58,3.11,5.1,5.1,0,0,1-3.72,1.29,12.33,12.33,0,0,1-1.84-.18,1.59,1.59,0,0,0-.67.53,1.27,1.27,0,0,0-.32.72.61.61,0,0,0,.27.51,2,2,0,0,0,.87.33c.39.07.73.12,1,.15l1.19.1.45,0a10.48,10.48,0,0,1,4.33,1,2.34,2.34,0,0,1,1.31,2.23,4.67,4.67,0,0,1-2.27,3.79,8.12,8.12,0,0,1-5.08,1.46,7.71,7.71,0,0,1-3.76-1,2.67,2.67,0,0,1-1.54-2.49,2.31,2.31,0,0,1,.9-1.63,4.91,4.91,0,0,1,1.87-1.07,3.37,3.37,0,0,1-1.4-1,2.16,2.16,0,0,1-.6-1.58q0-1.28,2.29-2.57a3.94,3.94,0,0,1-1.55-1.58,4.38,4.38,0,0,1-.66-2.45,4,4,0,0,1,1.66-3.27A5.91,5.91,0,0,1,125.28,150.44Zm3.57,15.68q0-1-1.45-1.43a18.83,18.83,0,0,0-4-.48l-.15,0-.15.08q-.39.14-.6.23a2.56,2.56,0,0,0-.49.31,1.45,1.45,0,0,0-.42.51,1.73,1.73,0,0,0-.16.71,2.08,2.08,0,0,0,1.07,1.82,4.65,4.65,0,0,0,2.5.8,4.5,4.5,0,0,0,2.75-.68A2.32,2.32,0,0,0,128.85,166.12Zm-6-11.45a4.7,4.7,0,0,0,.51,2.47A1.84,1.84,0,0,0,125,158.2a1.77,1.77,0,0,0,1.65-.79,4,4,0,0,0,.59-2.08,4.89,4.89,0,0,0-.51-2.58,1.9,1.9,0,0,0-1.69-1,1.68,1.68,0,0,0-1.61.87A4.33,4.33,0,0,0,122.87,154.67Z"/><path class="cls-1" d="M143.8,151q3.8.13,3.6,6l-.1,3.06a10.9,10.9,0,0,0,.15,2.68q0,.21.77.46a4.54,4.54,0,0,0,1,.26c.06,0,.09.15.09.43a3,3,0,0,1,0,.58q-.21,0-1.58-.17c-.92-.09-1.6-.14-2-.16s-1.16,0-2,0l-1.57.06a1.13,1.13,0,0,1-.07-.57c0-.3,0-.45.1-.44a3.57,3.57,0,0,0,1-.19c.45-.13.71-.27.77-.41a11.41,11.41,0,0,0,.25-2.16l.1-2.91a6.2,6.2,0,0,0-.55-3.42,2.43,2.43,0,0,0-2.09-1,2.84,2.84,0,0,0-1.65.45,1.41,1.41,0,0,0-.78,1.1l-.17,5.11a10.9,10.9,0,0,0,.15,2.68q.05.21.77.46a4.22,4.22,0,0,0,1,.26c.06,0,.09.15.09.43a1.65,1.65,0,0,1-.07.58l-1.55-.17q-1.32-.13-2-.16t-2.07,0l-1.59.06a.87.87,0,0,1-.1-.57c0-.3.05-.44.13-.44a4.14,4.14,0,0,0,1.09-.19c.49-.13.76-.27.8-.4a9.63,9.63,0,0,0,.28-2.13l.42-12.36a11.68,11.68,0,0,0-.08-2q-.13-.48-1.53-.53h-.27q-.18,0-.16-.48c0-.32.08-.47.19-.47q.92-.06,1.76-.18t1.39-.25q.55-.13,1-.26l.86-.27h.06c.08,0,.16.06.23.17a.83.83,0,0,1,.14.32,9.55,9.55,0,0,0-.45,2.78l-.2,6c0,.12,0,.18.11.18s.06,0,.12-.09a5.66,5.66,0,0,1,1.87-1.23A5.48,5.48,0,0,1,143.8,151Z"/><path class="cls-1" d="M153.21,153.42l-1.81-.06c-.14,0-.2-.26-.18-.78a.77.77,0,0,1,0-.27,8.31,8.31,0,0,0,2.34-1.5l.88-.85q.48-.47,1.13-1.23a2,2,0,0,1,.56.09c.18.06.26.11.26.17l-.1,2.91,2.15.09,1.47.06c.16,0,.24.1.23.28a2.89,2.89,0,0,1-.34,1.3l-3.57-.12-.24,7.16a2.82,2.82,0,0,0,.44,1.83,1.7,1.7,0,0,0,1.37.67,2.9,2.9,0,0,0,.63-.05A3.24,3.24,0,0,0,159,163l.39-.17.21-.08c.08,0,.17.08.26.28a.69.69,0,0,1,.1.39,2.71,2.71,0,0,1-1.29.92,4.69,4.69,0,0,1-2.14.48,3.75,3.75,0,0,1-2.6-1.08,4,4,0,0,1-1-3.11Z"/><path class="cls-1" d="M167.25,160.74a11,11,0,0,0,.15,2.68q.05.21.79.46a4.37,4.37,0,0,0,1,.26c.08,0,.12.15.12.44a1.69,1.69,0,0,1-.06.58c-.14,0-.67-.08-1.58-.17s-1.6-.14-2-.16-1.2,0-2.1,0l-1.56.07a.88.88,0,0,1-.1-.57c0-.3.06-.44.13-.44a4.28,4.28,0,0,0,1.08-.19q.75-.2.82-.4a9.76,9.76,0,0,0,.28-2.16l.17-4.84a2.82,2.82,0,0,0-.41-1.92,1.66,1.66,0,0,0-.67-.47,3.17,3.17,0,0,0-.71-.2c-.2,0-.29-.06-.29-.1,0-.57.09-.87.21-.89a22.57,22.57,0,0,0,2.42-.27,23.5,23.5,0,0,0,2.37-.46l.24-.05c.1,0,.17.08.23.22a.54.54,0,0,1,0,.33,25.59,25.59,0,0,0-.32,2.55Zm-2.67-12.54a1.81,1.81,0,0,1-.49-1.33,1.84,1.84,0,0,1,3.68.13,1.81,1.81,0,0,1-.58,1.29,1.83,1.83,0,0,1-2.62-.09Z"/><path class="cls-1" d="M181.2,152.29q3.83.13,3.62,6.22l-.1,2.82a12.38,12.38,0,0,0,.12,2.68q.05.21.8.46a4.51,4.51,0,0,0,1,.26c.06,0,.09.15.09.43a1.67,1.67,0,0,1-.07.58q-.18,0-1.55-.17t-2.06-.16q-.71,0-2,0l-1.54.07a.88.88,0,0,1-.1-.57c0-.3.06-.44.13-.44a3.54,3.54,0,0,0,1-.19c.45-.13.7-.27.74-.41a8.6,8.6,0,0,0,.31-2.16l.1-2.82a6.46,6.46,0,0,0-.55-3.47,2.39,2.39,0,0,0-2.09-1.05,2.75,2.75,0,0,0-1.68.46,1.43,1.43,0,0,0-.75,1.09l-.17,5.11a12.45,12.45,0,0,0,.12,2.68q.05.21.77.46a4.31,4.31,0,0,0,1,.26c.08,0,.12.15.12.44a1.68,1.68,0,0,1-.06.58l-1.56-.17q-1.32-.13-2-.16t-2.07,0l-1.59.06a.88.88,0,0,1-.1-.57c0-.3.06-.44.13-.44a4.13,4.13,0,0,0,1.09-.19q.74-.2.8-.4a9.77,9.77,0,0,0,.28-2.16l.17-4.84a2.82,2.82,0,0,0-.41-1.92,1.43,1.43,0,0,0-.65-.47,3.4,3.4,0,0,0-.71-.2c-.19,0-.28-.06-.28-.1,0-.57.08-.87.18-.89a41.89,41.89,0,0,0,4.82-.73l.08,0h.16c.08,0,.15.07.2.21a.89.89,0,0,1,.08.33,9.89,9.89,0,0,0-.16,1.07.24.24,0,0,0,0,.15.45.45,0,0,0,.15-.08,6.6,6.6,0,0,1,1.87-1.19A5.21,5.21,0,0,1,181.2,152.29Z"/><path class="cls-1" d="M194.81,152.81a9.36,9.36,0,0,1,2.45.47,9.16,9.16,0,0,0,2.36.47l1.69.06s.1.13.19.39a1.85,1.85,0,0,1,.13.6c0,.28-.07.41-.19.41l-1.93-.07c-.08,0-.12,0-.12.08s.08.28.24.78a4.23,4.23,0,0,1,.22,1.43,4.3,4.3,0,0,1-1.58,3.12,5.09,5.09,0,0,1-3.72,1.29,12.33,12.33,0,0,1-1.84-.18,1.59,1.59,0,0,0-.67.53,1.27,1.27,0,0,0-.32.72.61.61,0,0,0,.27.51,2,2,0,0,0,.87.33c.39.07.73.12,1,.15l1.19.1h.45a10.49,10.49,0,0,1,4.32,1,2.34,2.34,0,0,1,1.31,2.23,4.67,4.67,0,0,1-2.27,3.79,8.12,8.12,0,0,1-5.08,1.46,7.71,7.71,0,0,1-3.76-1,2.67,2.67,0,0,1-1.54-2.49,2.31,2.31,0,0,1,.9-1.64,4.92,4.92,0,0,1,1.87-1.07,3.38,3.38,0,0,1-1.39-1,2.16,2.16,0,0,1-.6-1.58q0-1.28,2.29-2.57a3.93,3.93,0,0,1-1.55-1.58,4.37,4.37,0,0,1-.66-2.45A4,4,0,0,1,191,153.9,5.91,5.91,0,0,1,194.81,152.81Zm3.57,15.68q0-1-1.45-1.43a18.85,18.85,0,0,0-4-.48l-.15,0-.15.08q-.39.14-.6.23a2.55,2.55,0,0,0-.49.31,1.44,1.44,0,0,0-.42.51,1.73,1.73,0,0,0-.16.71,2.08,2.08,0,0,0,1.07,1.82,4.64,4.64,0,0,0,2.5.8,4.5,4.5,0,0,0,2.75-.68A2.32,2.32,0,0,0,198.38,168.49Zm-6-11.45a4.71,4.71,0,0,0,.51,2.47,1.84,1.84,0,0,0,1.63,1.05,1.77,1.77,0,0,0,1.65-.79,4,4,0,0,0,.59-2.08,4.9,4.9,0,0,0-.51-2.58,1.9,1.9,0,0,0-1.69-1,1.67,1.67,0,0,0-1.61.87A4.33,4.33,0,0,0,192.4,157Z"/><path class="cls-1" d="M218.85,146a5.84,5.84,0,0,1,2.05.38,2.07,2.07,0,0,1,1.06.79,3.34,3.34,0,0,1-.22,1.64,1.06,1.06,0,0,1-1.11.69,1.16,1.16,0,0,1-.89-.52q-.39-.5-.81-1a1.37,1.37,0,0,0-1-.53,1.58,1.58,0,0,0-1.36.73,5,5,0,0,0-.82,1.85,12,12,0,0,0-.31,2.4l0,1.37a.18.18,0,0,0,.06.09.17.17,0,0,0,.12.06l3.27.11a.24.24,0,0,1,.15,0,.32.32,0,0,1,0,.18,3.06,3.06,0,0,1-.4,1.35l-3.09-.11a.16.16,0,0,0-.18.17l-.23,6.63a11.3,11.3,0,0,0,.15,2.68q.05.21.77.46a4.21,4.21,0,0,0,1,.26c.06,0,.09.15.09.43a1.65,1.65,0,0,1-.07.58q-.18,0-1.54-.17t-2.08-.16q-.71,0-2,0l-1.55.07a.57.57,0,0,1-.11-.33,1.8,1.8,0,0,1,0-.46c0-.15.07-.22.13-.22a4,4,0,0,0,1-.19q.72-.2.79-.4a9.87,9.87,0,0,0,.35-2.43l.23-6.83c0-.14-.05-.21-.17-.21l-1.78-.06s-.06-.06-.05-.18a1.6,1.6,0,0,1,.45-.85,1.19,1.19,0,0,1,1-.5l.48,0a.16.16,0,0,0,.18-.17v-.3a8.08,8.08,0,0,1,2-5.29A5.56,5.56,0,0,1,218.85,146Z"/><path class="cls-1" d="M227.52,153.87a6.55,6.55,0,0,1,4.7,2.11,6.37,6.37,0,0,1,1.82,4.78,6.73,6.73,0,0,1-13.46-.46,6.4,6.4,0,0,1,2.11-4.66A6.51,6.51,0,0,1,227.52,153.87Zm-.43,1.38a2.39,2.39,0,0,0-2.21,1.28,6.39,6.39,0,0,0-.88,3.2,8.68,8.68,0,0,0,.82,4.22,3,3,0,0,0,2.63,1.88,2.43,2.43,0,0,0,2.23-1.29,6.32,6.32,0,0,0,.9-3.18,10.2,10.2,0,0,0-.29-2.88,5.26,5.26,0,0,0-1.17-2.26A2.76,2.76,0,0,0,227.08,155.25Z"/><path class="cls-1" d="M244.87,154.46a3,3,0,0,1,2.4,1.06q-.09,2.53-1.51,2.48a1.77,1.77,0,0,1-1.14-.63,1.86,1.86,0,0,0-1.26-.64,1.59,1.59,0,0,0-1.47.89,4,4,0,0,0-.59,1.93l-.13,3.71a12.46,12.46,0,0,0,.12,2.68c0,.14.29.29.77.46a4.22,4.22,0,0,0,1,.26c.06,0,.09.15.09.43a3,3,0,0,1,0,.58l-1.57-.17q-1.33-.13-2-.16t-2.07,0l-1.59.06a.88.88,0,0,1-.1-.57c0-.3.06-.44.13-.44a4.16,4.16,0,0,0,1.09-.19q.74-.2.8-.4a9.77,9.77,0,0,0,.28-2.16l.17-4.84a2.82,2.82,0,0,0-.41-1.92,1.43,1.43,0,0,0-.65-.47,3.39,3.39,0,0,0-.71-.2c-.19,0-.28-.06-.28-.1,0-.57.08-.87.18-.89a42,42,0,0,0,4.82-.73l.24-.05c.08,0,.15.07.2.21a.69.69,0,0,1,.06.34l-.06.42q0,.28-.09.59a3.74,3.74,0,0,0-.06.4A5.46,5.46,0,0,1,243,155,3.25,3.25,0,0,1,244.87,154.46Z"/><path class="cls-1" d="M264.47,155.12a3,3,0,0,1,2.4,1.06q-.09,2.53-1.51,2.48a1.77,1.77,0,0,1-1.14-.63,1.86,1.86,0,0,0-1.26-.64,1.6,1.6,0,0,0-1.47.89,4,4,0,0,0-.59,1.93l-.13,3.71a12.46,12.46,0,0,0,.12,2.68q.05.21.77.46a4.19,4.19,0,0,0,1,.26c.06,0,.09.15.09.43a3,3,0,0,1,0,.58l-1.57-.17q-1.34-.13-2-.16t-2.07,0l-1.59.06a.88.88,0,0,1-.1-.57q0-.45.13-.44a4.12,4.12,0,0,0,1.09-.19q.74-.2.8-.4a9.75,9.75,0,0,0,.28-2.16l.17-4.84a2.82,2.82,0,0,0-.41-1.92,1.43,1.43,0,0,0-.65-.47,3.34,3.34,0,0,0-.71-.2c-.19,0-.28-.06-.28-.1,0-.57.08-.87.18-.89a41.83,41.83,0,0,0,4.82-.73l.24-.05c.08,0,.15.08.2.21a.69.69,0,0,1,.06.34l-.06.42c0,.19-.06.38-.09.59a3.74,3.74,0,0,0-.06.4,5.47,5.47,0,0,1,1.5-1.39A3.26,3.26,0,0,1,264.47,155.12Z"/><path class="cls-1" d="M275.08,155.49a3.65,3.65,0,0,1,2.73,1.06,4.75,4.75,0,0,1,.81,3.34l-.2,5.85a1.36,1.36,0,0,0,.24.92.89.89,0,0,0,.7.34,1.85,1.85,0,0,0,1-.35c.12,0,.17.15.17.33a1.77,1.77,0,0,1-.21.89,7.32,7.32,0,0,1-1.21.7,3.1,3.1,0,0,1-1.44.34,2.17,2.17,0,0,1-1.32-.55,2.44,2.44,0,0,1-.82-1.13l-.23.19c-.13.11-.32.23-.55.38a8.57,8.57,0,0,1-.79.45,4.72,4.72,0,0,1-1,.37,4.31,4.31,0,0,1-1.18.12,3.55,3.55,0,0,1-2.39-.9,2.82,2.82,0,0,1-.86-2.28,2.74,2.74,0,0,1,.39-1.33,3.55,3.55,0,0,1,.85-1,6,6,0,0,1,1.3-.74,12.1,12.1,0,0,1,1.4-.53l1.5-.41,1.28-.34a.47.47,0,0,0,.28-.47l.06-1.63a2.54,2.54,0,0,0-.42-1.65,1.56,1.56,0,0,0-1.26-.64,1.8,1.8,0,0,0-1.42.5,2.23,2.23,0,0,0-.56,1.54,1,1,0,0,1-.48.86,1.85,1.85,0,0,1-1,.25,1.68,1.68,0,0,1-1.52-.77q0-1.43,2-2.61A7.47,7.47,0,0,1,275.08,155.49Zm-1.73,11.36a2.31,2.31,0,0,0,1.39-.37,1.17,1.17,0,0,0,.61-.93l.1-3c-.14.05-.43.14-.89.27s-.8.23-1,.32a8.39,8.39,0,0,0-.85.39,1.79,1.79,0,0,0-.72.63,1.63,1.63,0,0,0-.25.82,1.84,1.84,0,0,0,.43,1.41A1.72,1.72,0,0,0,273.36,166.85Z"/><path class="cls-1" d="M289,156a7.16,7.16,0,0,1,2.79.62,4.74,4.74,0,0,1,1.73,1.2,3.68,3.68,0,0,1-.4,1.67,1.1,1.1,0,0,1-1,.63,1.33,1.33,0,0,1-.9-.33,3.37,3.37,0,0,1-.66-1,2.15,2.15,0,0,0-1.94-1.43,2.29,2.29,0,0,0-2.08,1.22,6.35,6.35,0,0,0-.87,3.23,6,6,0,0,0,1,4,3.51,3.51,0,0,0,2.75,1.39,8.12,8.12,0,0,0,.86,0,4.37,4.37,0,0,0,.78-.12l.63-.17a2.52,2.52,0,0,0,.56-.25l.41-.24.61-.38a.47.47,0,0,1,.14.18.57.57,0,0,1,.08.3.91.91,0,0,1-.2.56,4.85,4.85,0,0,1-1.81,1.54,5.45,5.45,0,0,1-2.94.7,6,6,0,0,1-4.44-2.08,6.56,6.56,0,0,1-1.7-4.79,6.76,6.76,0,0,1,1.94-4.62A6,6,0,0,1,289,156Z"/><path class="cls-1" d="M300.79,165.29a11,11,0,0,0,.15,2.68q.05.21.79.46a4.38,4.38,0,0,0,1,.26c.08,0,.12.15.12.44a1.67,1.67,0,0,1-.06.58l-1.58-.17q-1.38-.14-2-.16t-2.1,0l-1.57.06a.88.88,0,0,1-.1-.57c0-.3.05-.44.13-.44a4.28,4.28,0,0,0,1.08-.19c.5-.13.77-.27.82-.4a9.76,9.76,0,0,0,.28-2.16l.17-4.84a2.82,2.82,0,0,0-.41-1.92,1.64,1.64,0,0,0-.67-.47,3.11,3.11,0,0,0-.71-.2c-.2,0-.29-.06-.29-.1q0-.86.21-.88a22.66,22.66,0,0,0,2.42-.28,23.06,23.06,0,0,0,2.37-.45l.24-.05c.1,0,.17.08.23.22a.54.54,0,0,1,0,.33,25.63,25.63,0,0,0-.32,2.55Zm-2.67-12.54a1.81,1.81,0,0,1-.49-1.33,1.76,1.76,0,0,1,.58-1.27,1.84,1.84,0,0,1,3.11,1.4,1.82,1.82,0,0,1-.58,1.29,1.83,1.83,0,0,1-2.62-.09Z"/><path class="cls-1" d="M311.26,156.72a3.65,3.65,0,0,1,2.73,1.06,4.76,4.76,0,0,1,.81,3.34l-.2,5.85a1.35,1.35,0,0,0,.24.92.89.89,0,0,0,.7.34,1.84,1.84,0,0,0,1-.35c.12,0,.17.15.17.33a1.77,1.77,0,0,1-.21.89,7.47,7.47,0,0,1-1.21.7,3.12,3.12,0,0,1-1.44.34,2.17,2.17,0,0,1-1.32-.55,2.45,2.45,0,0,1-.82-1.13l-.23.19c-.13.1-.32.23-.55.38a8.79,8.79,0,0,1-.79.45,4.73,4.73,0,0,1-1,.37A4.3,4.3,0,0,1,308,170a3.55,3.55,0,0,1-2.39-.9,2.83,2.83,0,0,1-.86-2.28,2.75,2.75,0,0,1,.39-1.33,3.54,3.54,0,0,1,.85-1,6.06,6.06,0,0,1,1.3-.74,12.22,12.22,0,0,1,1.4-.53l1.5-.41,1.28-.34a.47.47,0,0,0,.28-.47l.06-1.63a2.55,2.55,0,0,0-.42-1.65,1.55,1.55,0,0,0-1.26-.64,1.8,1.8,0,0,0-1.42.5,2.22,2.22,0,0,0-.56,1.54,1,1,0,0,1-.48.86,1.84,1.84,0,0,1-1,.25,1.67,1.67,0,0,1-1.52-.77q0-1.43,2-2.61A7.45,7.45,0,0,1,311.26,156.72Zm-1.73,11.36a2.3,2.3,0,0,0,1.39-.37,1.17,1.17,0,0,0,.61-.93l.1-3c-.14.05-.44.14-.89.27s-.8.23-1,.32a8.29,8.29,0,0,0-.85.39,1.8,1.8,0,0,0-.72.63,1.64,1.64,0,0,0-.25.82,1.83,1.83,0,0,0,.43,1.41A1.71,1.71,0,0,0,309.54,168.08Z"/><path class="cls-1" d="M323.63,166a12.16,12.16,0,0,0,.12,2.68q.05.21.71.49a3.23,3.23,0,0,0,.9.28c.06,0,.09.14.09.42a1.57,1.57,0,0,1-.06.56l-1.11-.11-1.26-.12-1.07-.07h-1.13l-1.25,0-1.13,0a.83.83,0,0,1-.1-.55c0-.29.05-.43.13-.43a3.17,3.17,0,0,0,1-.22c.45-.15.7-.3.74-.44a9.82,9.82,0,0,0,.31-2.19l.42-12.36a10.31,10.31,0,0,0-.11-2q-.13-.48-1.47-.53h-.3c-.12,0-.17-.12-.17-.36s.08-.47.2-.47q.92-.06,1.76-.18c.56-.08,1-.16,1.39-.25s.69-.17,1-.25l.65-.2.21-.08h.06c.08,0,.16.07.25.19a.89.89,0,0,1,.15.3,9.42,9.42,0,0,0-.45,2.78Z"/><path class="cls-1" d="M340.43,157.71a5.52,5.52,0,0,1,2.48.63,4.71,4.71,0,0,1,1.67,1.46,6.94,6.94,0,0,1,.89,1.79,5.12,5.12,0,0,1,.27,1.75c0,.44-.1.71-.25.81a1.7,1.7,0,0,1-.91.13l-7.1-.24c-.14,0-.21.05-.21.17a5.78,5.78,0,0,0,.32,2.09,4.08,4.08,0,0,0,1.26,1.8,3.5,3.5,0,0,0,2.22.82,8.12,8.12,0,0,0,.86,0,4.36,4.36,0,0,0,.78-.12l.63-.17a2.52,2.52,0,0,0,.56-.25l.41-.24.61-.38a.47.47,0,0,1,.14.18.57.57,0,0,1,.08.3.91.91,0,0,1-.2.56,4.83,4.83,0,0,1-1.81,1.54,5.51,5.51,0,0,1-3,.7,6,6,0,0,1-4.39-2.07,6.41,6.41,0,0,1-1.71-4.71,6.88,6.88,0,0,1,1.9-4.81A5.76,5.76,0,0,1,340.43,157.71Zm-.25,1.36a2.1,2.1,0,0,0-1.29.37,2.8,2.8,0,0,0-.9,1,5.85,5.85,0,0,0-.47,1.1,3.63,3.63,0,0,0-.16.87c0,.14.05.21.17.21l4.81.16c.18,0,.27-.14.28-.44a3.85,3.85,0,0,0-.63-2.13A2.13,2.13,0,0,0,340.18,159.07Z"/><path class="cls-1" d="M354.64,158.14a9.82,9.82,0,0,1,2.16.3,7.34,7.34,0,0,0,1.39.27,2.27,2.27,0,0,0,.76-.17,3.69,3.69,0,0,1,.56-.17,1.43,1.43,0,0,1,.47.19c.23.13.35.23.35.31s0,.18-.11.49-.14.75-.22,1.35a18.87,18.87,0,0,0-.15,1.9L359.46,174a11.41,11.41,0,0,0,.12,2.5c0,.14.3.3.79.47a4.15,4.15,0,0,0,1,.27c.08,0,.12.14.12.42a1.39,1.39,0,0,1-.06.53l-1.57-.14c-.91-.09-1.59-.14-2-.16s-1.17,0-2.07,0l-1.59,0q-.11-.09-.1-.52c0-.29.05-.43.13-.43a3.91,3.91,0,0,0,1.09-.2q.74-.21.8-.42a9.71,9.71,0,0,0,.28-2.16l.11-3.15c0-.06,0-.11,0-.15a.37.37,0,0,0,0-.13s0-.08-.06-.08h-.09a5.48,5.48,0,0,1-2.82.8,5.92,5.92,0,0,1-4.3-2,6.17,6.17,0,0,1-1.69-4.55,6.81,6.81,0,0,1,2.22-4.85A6.59,6.59,0,0,1,354.64,158.14Zm-.41,1.41a2.61,2.61,0,0,0-1.56.41,2.84,2.84,0,0,0-1,1.17,7,7,0,0,0-.53,1.5,8.51,8.51,0,0,0-.2,1.6,7.52,7.52,0,0,0,.8,4,3,3,0,0,0,2.64,1.62,2.57,2.57,0,0,0,1.47-.41,1.5,1.5,0,0,0,.73-1.3l.21-6.24a2.27,2.27,0,0,0-.57-1.6A2.58,2.58,0,0,0,354.24,159.55Z"/><path class="cls-1" d="M375.25,162.11,375,168a6.54,6.54,0,0,0,.17,2.09.62.62,0,0,0,.33.25,2.33,2.33,0,0,0,.52.14l.49,0a.55.55,0,0,1,.25,0c.08,0,.11.11.11.27a2.27,2.27,0,0,1-.07.4c0,.19-.11.28-.19.28a6.76,6.76,0,0,0-1.06.07l-1.24.17-1.14.18-1.2.2q-.21,0-.19-.48l0-1.31c0-.1,0-.15-.08-.15a6.62,6.62,0,0,1-1.86,1.28,5,5,0,0,1-2.37.51,3.11,3.11,0,0,1-1.75-.57,3.59,3.59,0,0,1-1.14-1.35,6.35,6.35,0,0,1-.56-1.74,9,9,0,0,1-.13-1.88l.11-3.33a2.82,2.82,0,0,0-.41-1.92,1.65,1.65,0,0,0-.67-.47,3.11,3.11,0,0,0-.71-.2c-.2,0-.29-.06-.29-.1,0-.57.08-.87.18-.89a22.19,22.19,0,0,0,2.45-.27,23,23,0,0,0,2.37-.45l.12,0,.12,0c.1,0,.17.08.22.22a1,1,0,0,1,.06.33q-.34,2-.36,2.61l-.12,3.57a6.37,6.37,0,0,0,.54,3.35,2.62,2.62,0,0,0,3.7.56,1.58,1.58,0,0,0,.69-1.09l.17-4.9a2.82,2.82,0,0,0-.41-1.92,1.43,1.43,0,0,0-.65-.47,3.42,3.42,0,0,0-.72-.2c-.2,0-.3-.06-.29-.1,0-.57.09-.87.21-.89a22.55,22.55,0,0,0,2.42-.27,23.62,23.62,0,0,0,2.37-.46l.24-.05c.1,0,.18.08.23.22a.54.54,0,0,1,0,.33Q375.26,161.58,375.25,162.11Z"/><path class="cls-1" d="M384.15,168.13a11,11,0,0,0,.15,2.68q.05.21.79.46a4.41,4.41,0,0,0,1,.26c.08,0,.12.15.12.43a1.69,1.69,0,0,1-.06.58l-1.58-.17q-1.38-.14-2-.16c-.5,0-1.19,0-2.1,0l-1.56.07a.88.88,0,0,1-.1-.57c0-.3.06-.44.13-.44a4.3,4.3,0,0,0,1.08-.19q.75-.2.82-.4a9.75,9.75,0,0,0,.28-2.16l.17-4.84a2.82,2.82,0,0,0-.41-1.92,1.64,1.64,0,0,0-.67-.47,3.15,3.15,0,0,0-.71-.2c-.2,0-.29-.06-.29-.1,0-.57.09-.87.21-.88a22.86,22.86,0,0,0,2.42-.27,23.22,23.22,0,0,0,2.37-.46l.24-.05c.1,0,.17.08.23.22a.54.54,0,0,1,0,.33,25.63,25.63,0,0,0-.32,2.55Zm-2.67-12.54a1.81,1.81,0,0,1-.49-1.33,1.84,1.84,0,0,1,3.68.13,1.81,1.81,0,0,1-.58,1.29,1.83,1.83,0,0,1-2.61-.09Z"/><path class="cls-1" d="M390,161.48l-1.81-.06c-.14,0-.2-.26-.18-.78a.76.76,0,0,1,0-.27,8.31,8.31,0,0,0,2.34-1.5l.88-.85q.48-.47,1.13-1.23a2.1,2.1,0,0,1,.56.09c.18.06.26.11.26.17l-.1,2.91,2.15.09,1.47.06c.16,0,.23.1.23.28a2.88,2.88,0,0,1-.34,1.3l-3.57-.12-.24,7.16a2.83,2.83,0,0,0,.44,1.83,1.7,1.7,0,0,0,1.38.67,2.83,2.83,0,0,0,.63-.05,3.19,3.19,0,0,0,.54-.15l.39-.17.21-.08c.08,0,.17.08.26.28a.7.7,0,0,1,.1.39,2.72,2.72,0,0,1-1.29.92,4.7,4.7,0,0,1-2.14.48,3.75,3.75,0,0,1-2.59-1.08,4,4,0,0,1-1-3.11Z"/><path class="cls-1" d="M402.26,160.12q.65,0,1.88,0t1.52,0a2,2,0,0,1,0,.54c0,.28-.05.41-.13.41a3.22,3.22,0,0,0-.94.19c-.43.13-.66.29-.69.47v.18q0,.48,2.53,6.87.25-.53,1.26-2.89t1.16-2.71a2.78,2.78,0,0,0,.21-.91.94.94,0,0,0-.45-.74,2.45,2.45,0,0,0-1.42-.39c-.08,0-.11-.15-.1-.45a.74.74,0,0,1,.14-.5q.36,0,1.45.14t1.81.15q.62,0,1.54,0t1.33,0a.85.85,0,0,1,.1.48q0,.48-.13.47a3.77,3.77,0,0,0-1.21.26,1.64,1.64,0,0,0-1.06.86l-5.88,12.95q-2,4.28-4.58,4.19a1.6,1.6,0,0,1-1.17-.46,1.39,1.39,0,0,1,.22-2.1q3.09.11,4.15-2.3l.87-2-4-10.25a3.85,3.85,0,0,0-.33-.7,1.78,1.78,0,0,0-.85-.7,2.84,2.84,0,0,0-1-.26c-.08,0-.11-.14-.1-.42s0-.49.11-.53l1.59.14C401.07,160,401.78,160.1,402.26,160.12Z"/><path class="cls-1" d="M418.08,170.44a1.93,1.93,0,0,1,.53,1.42,2,2,0,0,1-.63,1.39,1.84,1.84,0,0,1-1.4.56,1.92,1.92,0,0,1-1.41-.66,2,2,0,0,1-.54-1.43,1.91,1.91,0,0,1,.64-1.38,2,2,0,0,1,1.45-.55A1.86,1.86,0,0,1,418.08,170.44Z"/><path class="cls-1" d="M81.76,103.79a3.64,3.64,0,0,1,2.71,1.12,4.75,4.75,0,0,1,.74,3.36l-.32,5.85a1.34,1.34,0,0,0,.22.92.88.88,0,0,0,.69.35,1.86,1.86,0,0,0,1-.33c.12,0,.17.16.16.34a1.76,1.76,0,0,1-.23.88,7.32,7.32,0,0,1-1.23.68,3.09,3.09,0,0,1-1.45.31,2.17,2.17,0,0,1-1.31-.58,2.44,2.44,0,0,1-.8-1.14l-.23.18-.56.37q-.35.22-.8.43a4.8,4.8,0,0,1-1,.35,4.31,4.31,0,0,1-1.18.1A3.54,3.54,0,0,1,75.8,116a2.82,2.82,0,0,1-.81-2.29,2.75,2.75,0,0,1,.42-1.32,3.59,3.59,0,0,1,.87-1,6.05,6.05,0,0,1,1.32-.72,12.32,12.32,0,0,1,1.41-.5l1.51-.38,1.28-.31a.47.47,0,0,0,.29-.46l.09-1.63a2.56,2.56,0,0,0-.38-1.66,1.55,1.55,0,0,0-1.24-.66,1.81,1.81,0,0,0-1.43.47,2.23,2.23,0,0,0-.59,1.53,1,1,0,0,1-.49.85,1.84,1.84,0,0,1-1,.23,1.68,1.68,0,0,1-1.5-.8q.08-1.42,2.09-2.56A7.46,7.46,0,0,1,81.76,103.79Zm-2,11.32a2.31,2.31,0,0,0,1.4-.34,1.18,1.18,0,0,0,.63-.92l.17-3c-.14.05-.44.13-.89.25s-.8.21-1,.3a7.89,7.89,0,0,0-.85.37,1.79,1.79,0,0,0-.73.62,1.63,1.63,0,0,0-.27.82,1.83,1.83,0,0,0,.4,1.42A1.71,1.71,0,0,0,79.79,115.11Z"/><path class="cls-1" d="M99,104.73q3.83.21,3.49,6.3l-.16,2.82a12.31,12.31,0,0,0,.06,2.68c0,.14.29.3.79.47a4.57,4.57,0,0,0,1,.28c.06,0,.08.15.08.44a1.71,1.71,0,0,1-.08.58q-.18,0-1.55-.21c-.92-.11-1.6-.18-2.06-.2s-1.13,0-2,0l-1.54,0a.89.89,0,0,1-.09-.57c0-.29.07-.44.14-.44a3.51,3.51,0,0,0,1-.17c.45-.12.7-.25.75-.39a8.54,8.54,0,0,0,.36-2.15l.16-2.82a6.46,6.46,0,0,0-.48-3.48,2.39,2.39,0,0,0-2.07-1.1,2.74,2.74,0,0,0-1.69.43,1.42,1.42,0,0,0-.77,1.07l-.28,5.11a12.45,12.45,0,0,0,.06,2.68q0,.21.76.47a4.42,4.42,0,0,0,1,.28c.08,0,.11.15.11.44a1.71,1.71,0,0,1-.08.58l-1.55-.21q-1.32-.16-2-.2c-.48,0-1.16,0-2.07,0l-1.59,0a.89.89,0,0,1-.09-.57c0-.29.07-.44.14-.44a4.13,4.13,0,0,0,1.09-.16q.74-.18.81-.39a9.72,9.72,0,0,0,.33-2.15l.27-4.84a2.83,2.83,0,0,0-.37-1.93,1.43,1.43,0,0,0-.64-.48,3.26,3.26,0,0,0-.7-.22c-.19,0-.28-.06-.28-.11,0-.57.1-.87.2-.88a42.41,42.41,0,0,0,4.83-.63l.08,0h.16c.08,0,.14.08.2.22a.89.89,0,0,1,.07.33,10,10,0,0,0-.18,1.06.25.25,0,0,0,0,.15.49.49,0,0,0,.15-.08,6.58,6.58,0,0,1,1.89-1.14A5.18,5.18,0,0,1,99,104.73Z"/><path class="cls-1" d="M113.57,105.48a5.1,5.1,0,0,1,2.15.54c.1,0,.16-.15.17-.47l.15-2.79a10.5,10.5,0,0,0-.07-2c-.08-.32-.59-.51-1.52-.56h-.24q-.18,0-.15-.49c0-.31.09-.47.2-.46.6,0,1.18-.07,1.75-.14s1-.14,1.41-.22.69-.16,1-.24l.62-.19.24-.06h.06c.08,0,.15.06.23.18a.54.54,0,0,1,.1.32,11.36,11.36,0,0,0-.45,2.78l-.72,13.06a10.87,10.87,0,0,0,.06,2.21.44.44,0,0,0,.28.34,1.88,1.88,0,0,0,.56.18l.56.08.3,0a.62.62,0,0,1,0,.36c0,.4-.09.59-.21.58-.28,0-.63,0-1.06.06l-1.26.12-1.17.14-1.25.19c-.12,0-.17-.18-.15-.52l0-.5a.13.13,0,0,0,0-.12.05.05,0,0,0-.07,0,5,5,0,0,1-3.15.93,5.75,5.75,0,0,1-4.09-2,6,6,0,0,1-1.54-4.54,7,7,0,0,1,2.31-4.92A6.51,6.51,0,0,1,113.57,105.48Zm-.35,1.41a2.61,2.61,0,0,0-2.45,1.21,7,7,0,0,0-1,3.55,7.16,7.16,0,0,0,.7,4,2.92,2.92,0,0,0,2.5,1.55,2.47,2.47,0,0,0,1.66-.43,1.64,1.64,0,0,0,.7-1.29l.34-6.23a2.11,2.11,0,0,0-.07-.63,2.77,2.77,0,0,0-.32-.72,1.91,1.91,0,0,0-.77-.67A3.17,3.17,0,0,0,113.22,106.89Z"/><path class="cls-1" d="M138.84,106.94q3.83.21,3.49,6.3l-.16,2.82a12.31,12.31,0,0,0,.06,2.68q0,.21.79.47a4.47,4.47,0,0,0,1,.28c.06,0,.08.15.08.44a1.68,1.68,0,0,1-.08.58q-.18,0-1.55-.21c-.92-.11-1.6-.18-2.06-.2s-1.13,0-2,0l-1.54,0a.89.89,0,0,1-.09-.57c0-.29.06-.44.14-.44a3.51,3.51,0,0,0,1-.17c.45-.12.7-.25.75-.39a8.62,8.62,0,0,0,.36-2.15l.16-2.82a6.45,6.45,0,0,0-.48-3.48,2.39,2.39,0,0,0-2.07-1.1,2.75,2.75,0,0,0-1.69.43,1.43,1.43,0,0,0-.77,1.07L134,115.6a12.37,12.37,0,0,0,.06,2.68q0,.21.76.47a4.31,4.31,0,0,0,1,.28c.08,0,.12.15.11.44a1.69,1.69,0,0,1-.08.58l-1.55-.21q-1.32-.16-2-.2c-.48,0-1.16,0-2.07,0l-1.6,0a.89.89,0,0,1-.09-.57c0-.29.07-.44.14-.44a4.13,4.13,0,0,0,1.1-.16q.74-.18.81-.39a9.78,9.78,0,0,0,.33-2.15l.27-4.84a2.83,2.83,0,0,0-.37-1.93,1.43,1.43,0,0,0-.64-.48,3.28,3.28,0,0,0-.7-.22c-.19,0-.28-.06-.28-.11,0-.57.1-.87.2-.88a42.41,42.41,0,0,0,4.83-.63l.08,0h.16c.08,0,.14.08.2.22a.89.89,0,0,1,.07.33,10.09,10.09,0,0,0-.18,1.06.24.24,0,0,0,0,.15.49.49,0,0,0,.15-.08,6.56,6.56,0,0,1,1.89-1.14A5.21,5.21,0,0,1,138.84,106.94Z"/><path class="cls-1" d="M159.57,111.3l-.32,5.88a6.6,6.6,0,0,0,.12,2.09.61.61,0,0,0,.33.26,2.31,2.31,0,0,0,.51.15l.49.06a.58.58,0,0,1,.25,0c.08,0,.11.12.1.28a2.29,2.29,0,0,1-.08.4c-.05.19-.12.28-.19.27a7.16,7.16,0,0,0-1.06,0l-1.24.14-1.14.16-1.2.17c-.14,0-.2-.17-.18-.49l.07-1.31c0-.1,0-.15-.08-.15a6.66,6.66,0,0,1-1.88,1.23,5,5,0,0,1-2.38.47,3.12,3.12,0,0,1-1.74-.6,3.58,3.58,0,0,1-1.12-1.37,6.33,6.33,0,0,1-.53-1.76,9,9,0,0,1-.09-1.88l.18-3.32a2.83,2.83,0,0,0-.37-1.93,1.67,1.67,0,0,0-.66-.48,3.21,3.21,0,0,0-.7-.22c-.2,0-.29-.06-.29-.1,0-.57.1-.87.2-.88a22.4,22.4,0,0,0,2.46-.22,22.91,22.91,0,0,0,2.37-.4l.12,0,.12,0c.1,0,.17.08.21.22a1,1,0,0,1,.06.33q-.38,2-.41,2.6l-.2,3.56a6.38,6.38,0,0,0,.47,3.36,2.63,2.63,0,0,0,3.69.63,1.59,1.59,0,0,0,.71-1.08l.27-4.9a2.83,2.83,0,0,0-.37-1.93,1.43,1.43,0,0,0-.64-.48,3.35,3.35,0,0,0-.72-.22c-.2,0-.29-.06-.29-.11,0-.57.11-.87.23-.88a31.74,31.74,0,0,0,4.8-.63l.24,0c.1,0,.17.08.23.22a.54.54,0,0,1,0,.33Q159.6,110.77,159.57,111.3Z"/><path class="cls-1" d="M169.78,108.65a3.66,3.66,0,0,1,2.71,1.12,4.76,4.76,0,0,1,.74,3.36L172.9,119a1.34,1.34,0,0,0,.22.92.89.89,0,0,0,.69.35,1.86,1.86,0,0,0,1-.33c.12,0,.17.16.16.34a1.76,1.76,0,0,1-.23.88,7.29,7.29,0,0,1-1.23.68,3.09,3.09,0,0,1-1.45.31,2.17,2.17,0,0,1-1.31-.58,2.43,2.43,0,0,1-.8-1.14l-.23.18c-.13.1-.32.22-.56.37a8.18,8.18,0,0,1-.8.43,4.79,4.79,0,0,1-1,.35,4.32,4.32,0,0,1-1.18.1,3.55,3.55,0,0,1-2.37-.95,2.82,2.82,0,0,1-.81-2.29,2.76,2.76,0,0,1,.42-1.32,3.56,3.56,0,0,1,.87-1,6,6,0,0,1,1.32-.72,12.26,12.26,0,0,1,1.41-.5l1.51-.38,1.28-.32a.47.47,0,0,0,.29-.46l.09-1.63a2.55,2.55,0,0,0-.38-1.66,1.56,1.56,0,0,0-1.24-.67,1.81,1.81,0,0,0-1.43.47,2.23,2.23,0,0,0-.59,1.53,1,1,0,0,1-.49.85,1.83,1.83,0,0,1-1,.23,1.67,1.67,0,0,1-1.5-.8q.08-1.42,2.09-2.56A7.46,7.46,0,0,1,169.78,108.65Zm-2,11.32a2.3,2.3,0,0,0,1.4-.34,1.18,1.18,0,0,0,.63-.92l.17-3c-.14.05-.44.14-.89.25s-.8.21-1,.3a7.89,7.89,0,0,0-.85.37,1.8,1.8,0,0,0-.73.61,1.65,1.65,0,0,0-.27.82,1.83,1.83,0,0,0,.4,1.42A1.71,1.71,0,0,0,167.82,120Z"/><path class="cls-1" d="M187,109.6q3.83.21,3.49,6.3l-.16,2.82a12.3,12.3,0,0,0,.06,2.68c0,.14.29.3.79.48a4.57,4.57,0,0,0,1,.28c.06,0,.08.15.08.44a1.68,1.68,0,0,1-.08.58q-.18,0-1.55-.21c-.92-.11-1.6-.18-2.06-.2s-1.13,0-2,0l-1.54,0a.89.89,0,0,1-.09-.57c0-.29.07-.44.14-.44a3.57,3.57,0,0,0,1-.17c.45-.12.7-.25.75-.39a8.55,8.55,0,0,0,.36-2.15l.16-2.82a6.46,6.46,0,0,0-.48-3.48,2.39,2.39,0,0,0-2.07-1.1,2.76,2.76,0,0,0-1.69.43,1.43,1.43,0,0,0-.77,1.07l-.28,5.11a12.37,12.37,0,0,0,.06,2.68c0,.14.29.3.76.47a4.34,4.34,0,0,0,1,.28c.08,0,.12.15.11.44a1.69,1.69,0,0,1-.08.58l-1.55-.21q-1.31-.16-2-.2t-2.07,0l-1.6,0a.89.89,0,0,1-.09-.57c0-.29.07-.44.14-.44a4.12,4.12,0,0,0,1.09-.16c.49-.12.76-.25.81-.39a9.7,9.7,0,0,0,.33-2.15l.27-4.84a2.84,2.84,0,0,0-.37-1.93,1.45,1.45,0,0,0-.64-.48,3.42,3.42,0,0,0-.7-.22c-.19,0-.28-.06-.28-.1,0-.57.1-.87.2-.88a42,42,0,0,0,4.83-.63l.08,0h.16c.08,0,.14.08.2.22a.9.9,0,0,1,.07.33,10.18,10.18,0,0,0-.18,1.06.23.23,0,0,0,0,.15.42.42,0,0,0,.15-.08,6.6,6.6,0,0,1,1.89-1.15A5.21,5.21,0,0,1,187,109.6Z"/><path class="cls-1" d="M201.29,110.39a7.21,7.21,0,0,1,2.78.67,4.76,4.76,0,0,1,1.7,1.24,3.66,3.66,0,0,1-.43,1.66,1.09,1.09,0,0,1-1.06.61,1.32,1.32,0,0,1-.89-.35,3.44,3.44,0,0,1-.64-1,2.15,2.15,0,0,0-1.91-1.48,2.29,2.29,0,0,0-2.1,1.18,6.33,6.33,0,0,0-.94,3.21,6,6,0,0,0,.88,4,3.51,3.51,0,0,0,2.72,1.45,8,8,0,0,0,.86,0,4.35,4.35,0,0,0,.78-.11l.63-.16a2.54,2.54,0,0,0,.56-.24l.42-.23.62-.37a.49.49,0,0,1,.14.19.58.58,0,0,1,.07.3.91.91,0,0,1-.21.55,4.84,4.84,0,0,1-1.84,1.51,5.48,5.48,0,0,1-3,.64,6,6,0,0,1-4.39-2.18,6.56,6.56,0,0,1-1.59-4.82,6.76,6.76,0,0,1,2-4.58A6,6,0,0,1,201.29,110.39Z"/><path class="cls-1" d="M214.21,111.11a5.51,5.51,0,0,1,2.46.69,4.69,4.69,0,0,1,1.64,1.49,6.9,6.9,0,0,1,.85,1.8,5.11,5.11,0,0,1,.23,1.75c0,.43-.11.7-.27.8a1.72,1.72,0,0,1-.91.11l-7.09-.39c-.14,0-.21,0-.22.17a5.78,5.78,0,0,0,.27,2.1,4.09,4.09,0,0,0,1.22,1.82,3.51,3.51,0,0,0,2.2.87,8,8,0,0,0,.86,0,4.35,4.35,0,0,0,.78-.11l.63-.16a2.47,2.47,0,0,0,.56-.24l.41-.23.62-.37a.46.46,0,0,1,.14.19.57.57,0,0,1,.07.3.91.91,0,0,1-.21.55,4.85,4.85,0,0,1-1.84,1.51,5.51,5.51,0,0,1-3,.64,6,6,0,0,1-4.35-2.16,6.41,6.41,0,0,1-1.61-4.75,6.88,6.88,0,0,1,2-4.77A5.77,5.77,0,0,1,214.21,111.11Zm-.28,1.35a2.11,2.11,0,0,0-1.3.35,2.79,2.79,0,0,0-.92,1,5.81,5.81,0,0,0-.49,1.09,3.66,3.66,0,0,0-.18.87c0,.14,0,.21.17.22l4.81.27c.18,0,.28-.13.29-.43a3.85,3.85,0,0,0-.58-2.14A2.13,2.13,0,0,0,213.93,112.46Z"/><path class="cls-1" d="M228.05,111.81a5.1,5.1,0,0,1,2.15.54c.1,0,.16-.15.17-.47l.15-2.79a10.5,10.5,0,0,0-.07-2q-.12-.48-1.52-.56h-.24c-.12,0-.17-.17-.15-.49s.09-.47.2-.46c.6,0,1.18-.07,1.75-.14s1-.14,1.41-.22.69-.16,1-.24l.62-.19.24-.06h.06c.08,0,.15.06.23.18a.54.54,0,0,1,.1.32,11.36,11.36,0,0,0-.45,2.78L233,121a10.88,10.88,0,0,0,.06,2.21.44.44,0,0,0,.28.34,1.87,1.87,0,0,0,.56.18l.56.08.3,0a.64.64,0,0,1,0,.36c0,.4-.09.59-.21.58-.28,0-.63,0-1.06.06l-1.26.12-1.17.14-1.25.18q-.18,0-.15-.52l0-.5a.13.13,0,0,0,0-.12s-.05,0-.07,0a5,5,0,0,1-3.15.93,5.75,5.75,0,0,1-4.09-2,6,6,0,0,1-1.54-4.54,7,7,0,0,1,2.31-4.92A6.51,6.51,0,0,1,228.05,111.81Zm-.35,1.41a2.6,2.6,0,0,0-2.45,1.21,7,7,0,0,0-1,3.55,7.16,7.16,0,0,0,.7,4,2.92,2.92,0,0,0,2.5,1.55,2.48,2.48,0,0,0,1.66-.43,1.65,1.65,0,0,0,.7-1.29l.34-6.23a2.11,2.11,0,0,0-.07-.63,2.74,2.74,0,0,0-.32-.72,1.88,1.88,0,0,0-.77-.67A3.17,3.17,0,0,0,227.71,113.22Z"/><path class="cls-1" d="M248.3,121.86a12.21,12.21,0,0,0,.06,2.68q0,.21.7.5a3.24,3.24,0,0,0,.89.3c.06,0,.09.14.08.42a1.59,1.59,0,0,1-.08.56l-1.11-.13-1.26-.14c-.37,0-.73-.07-1.07-.09s-.75,0-1.13,0H243a.85.85,0,0,1-.09-.56c0-.29.06-.43.14-.42a3.17,3.17,0,0,0,1-.2c.45-.14.7-.28.75-.42a9.81,9.81,0,0,0,.36-2.18l.68-12.35a10.4,10.4,0,0,0-.07-2c-.08-.32-.57-.51-1.46-.56l-.3,0c-.12,0-.17-.13-.16-.37s.09-.47.2-.46q.92,0,1.76-.14t1.4-.22l1-.23.65-.19.21-.08h.06c.08,0,.16.07.24.19a.9.9,0,0,1,.15.3,9.39,9.39,0,0,0-.51,2.77Z"/><path class="cls-1" d="M258.91,113.58a3.65,3.65,0,0,1,2.71,1.12,4.75,4.75,0,0,1,.74,3.36L262,123.9a1.34,1.34,0,0,0,.22.92.89.89,0,0,0,.69.35,1.86,1.86,0,0,0,1-.33c.12,0,.17.16.16.34a1.76,1.76,0,0,1-.23.88,7.32,7.32,0,0,1-1.23.68,3.09,3.09,0,0,1-1.45.31,2.17,2.17,0,0,1-1.31-.58,2.44,2.44,0,0,1-.8-1.14l-.23.18c-.13.1-.32.22-.56.37a8.3,8.3,0,0,1-.8.43,4.8,4.8,0,0,1-1,.35,4.31,4.31,0,0,1-1.18.1,3.55,3.55,0,0,1-2.37-.95,2.82,2.82,0,0,1-.81-2.29,2.75,2.75,0,0,1,.42-1.32,3.56,3.56,0,0,1,.87-1,6,6,0,0,1,1.32-.72,12.32,12.32,0,0,1,1.41-.5l1.51-.38,1.28-.32a.46.46,0,0,0,.29-.46l.09-1.63a2.55,2.55,0,0,0-.39-1.66,1.55,1.55,0,0,0-1.24-.67,1.81,1.81,0,0,0-1.42.47,2.22,2.22,0,0,0-.59,1.53,1,1,0,0,1-.49.85,1.82,1.82,0,0,1-1,.23,1.68,1.68,0,0,1-1.5-.8q.08-1.42,2.09-2.56A7.48,7.48,0,0,1,258.91,113.58Zm-2,11.32a2.31,2.31,0,0,0,1.4-.34,1.18,1.18,0,0,0,.63-.92l.17-3c-.14.05-.44.13-.89.25s-.8.21-1,.3a7.81,7.81,0,0,0-.85.37,1.79,1.79,0,0,0-.73.61,1.64,1.64,0,0,0-.27.82,1.83,1.83,0,0,0,.4,1.42A1.71,1.71,0,0,0,256.95,124.9Z"/><path class="cls-1" d="M276.11,114.53q3.83.21,3.49,6.3l-.16,2.82a12.38,12.38,0,0,0,.06,2.68c0,.14.3.3.79.48a4.57,4.57,0,0,0,1,.28c.06,0,.08.15.08.44a1.72,1.72,0,0,1-.08.58q-.18,0-1.55-.21c-.92-.11-1.6-.18-2.06-.2s-1.13,0-2,0l-1.54,0a.89.89,0,0,1-.09-.57c0-.29.07-.44.14-.44a3.51,3.51,0,0,0,1-.17c.45-.12.7-.25.75-.39a8.55,8.55,0,0,0,.36-2.15l.16-2.82a6.46,6.46,0,0,0-.48-3.48,2.39,2.39,0,0,0-2.07-1.1,2.77,2.77,0,0,0-1.69.43,1.43,1.43,0,0,0-.77,1.07l-.28,5.11a12.45,12.45,0,0,0,.06,2.68q0,.21.76.47a4.35,4.35,0,0,0,1,.28c.08,0,.11.15.11.44a1.69,1.69,0,0,1-.08.58l-1.55-.21q-1.32-.16-2-.2t-2.07,0l-1.59,0a.89.89,0,0,1-.09-.57c0-.29.07-.44.14-.44a4.13,4.13,0,0,0,1.09-.16q.74-.18.81-.39a9.7,9.7,0,0,0,.33-2.15l.27-4.84a2.83,2.83,0,0,0-.37-1.93,1.44,1.44,0,0,0-.64-.48,3.4,3.4,0,0,0-.7-.22c-.19,0-.28-.06-.28-.1,0-.57.1-.87.2-.88a42.55,42.55,0,0,0,4.83-.63l.08,0h.16c.08,0,.14.08.2.22a.9.9,0,0,1,.07.33,10.18,10.18,0,0,0-.18,1.06.23.23,0,0,0,0,.15.42.42,0,0,0,.15-.08,6.62,6.62,0,0,1,1.89-1.15A5.21,5.21,0,0,1,276.11,114.53Z"/><path class="cls-1" d="M289.71,115.34a9.4,9.4,0,0,1,2.44.52,9.22,9.22,0,0,0,2.35.52l1.69.09s.1.14.19.4a1.84,1.84,0,0,1,.12.6c0,.28-.08.41-.2.41l-1.93-.11c-.08,0-.12,0-.12.08s.07.28.22.79a4.21,4.21,0,0,1,.19,1.44,4.3,4.3,0,0,1-1.64,3.08,5.09,5.09,0,0,1-3.75,1.21,12.33,12.33,0,0,1-1.83-.22,1.61,1.61,0,0,0-.68.51,1.27,1.27,0,0,0-.34.71.61.61,0,0,0,.25.52,2,2,0,0,0,.86.35c.39.08.73.14,1,.18l1.19.13.44,0a10.52,10.52,0,0,1,4.3,1.06,2.34,2.34,0,0,1,1.26,2.26,4.68,4.68,0,0,1-2.35,3.74,8.12,8.12,0,0,1-5.11,1.35,7.73,7.73,0,0,1-3.74-1,2.67,2.67,0,0,1-1.48-2.52,2.31,2.31,0,0,1,.94-1.62,4.92,4.92,0,0,1,1.89-1,3.38,3.38,0,0,1-1.37-1,2.16,2.16,0,0,1-.57-1.59q.07-1.27,2.34-2.52a3.94,3.94,0,0,1-1.52-1.62,4.37,4.37,0,0,1-.61-2.46,4,4,0,0,1,1.73-3.24A5.91,5.91,0,0,1,289.71,115.34Zm3.24,15.75q.06-1-1.42-1.46a18.9,18.9,0,0,0-4-.56l-.15,0-.15.08c-.26.09-.46.16-.61.22a2.49,2.49,0,0,0-.49.3,1.41,1.41,0,0,0-.43.5,1.74,1.74,0,0,0-.17.71,2.08,2.08,0,0,0,1,1.84,4.63,4.63,0,0,0,2.48.85,4.49,4.49,0,0,0,2.76-.62A2.32,2.32,0,0,0,292.94,131.09Zm-5.73-11.57a4.71,4.71,0,0,0,.46,2.48,1.85,1.85,0,0,0,1.61,1.09,1.76,1.76,0,0,0,1.67-.76,3.94,3.94,0,0,0,.63-2.06,4.87,4.87,0,0,0-.45-2.59,1.9,1.9,0,0,0-1.67-1.07,1.68,1.68,0,0,0-1.62.83A4.32,4.32,0,0,0,287.21,119.52Z"/><path class="cls-1" d="M311.3,119.69l-.32,5.88a6.57,6.57,0,0,0,.12,2.09.61.61,0,0,0,.33.26,2.29,2.29,0,0,0,.51.15l.49.06a.58.58,0,0,1,.25,0c.08,0,.11.12.1.28a2.36,2.36,0,0,1-.08.4c-.05.19-.12.28-.19.27a7.17,7.17,0,0,0-1.06,0l-1.24.14-1.14.16-1.2.17c-.14,0-.2-.17-.18-.49l.07-1.31c0-.1,0-.15-.08-.15a6.68,6.68,0,0,1-1.88,1.24,5,5,0,0,1-2.38.46,3.12,3.12,0,0,1-1.74-.6,3.59,3.59,0,0,1-1.12-1.37,6.33,6.33,0,0,1-.53-1.76,9,9,0,0,1-.09-1.88l.18-3.32a2.83,2.83,0,0,0-.37-1.93,1.67,1.67,0,0,0-.66-.48,3.1,3.1,0,0,0-.7-.22c-.2,0-.29-.07-.29-.11,0-.57.1-.87.2-.88a22.37,22.37,0,0,0,2.45-.22,22.94,22.94,0,0,0,2.38-.4l.12,0,.12,0c.1,0,.17.08.21.22a1,1,0,0,1,.06.33q-.38,2-.41,2.6l-.2,3.56a6.38,6.38,0,0,0,.47,3.36,2.63,2.63,0,0,0,3.69.63,1.58,1.58,0,0,0,.71-1.08l.27-4.9a2.83,2.83,0,0,0-.37-1.93,1.43,1.43,0,0,0-.64-.48,3.35,3.35,0,0,0-.72-.22c-.2,0-.29-.06-.29-.11,0-.57.11-.87.23-.88a31.73,31.73,0,0,0,4.8-.63l.24,0q.15,0,.23.22a.54.54,0,0,1,0,.33Q311.33,119.16,311.3,119.69Z"/><path class="cls-1" d="M321.52,117a3.65,3.65,0,0,1,2.71,1.12,4.74,4.74,0,0,1,.74,3.36l-.32,5.85a1.34,1.34,0,0,0,.22.92.89.89,0,0,0,.69.35,1.86,1.86,0,0,0,1-.33c.12,0,.17.16.16.34a1.76,1.76,0,0,1-.23.88,7.32,7.32,0,0,1-1.23.68,3.09,3.09,0,0,1-1.45.31,2.17,2.17,0,0,1-1.31-.58,2.44,2.44,0,0,1-.8-1.14l-.23.18c-.13.1-.32.22-.56.37a8.74,8.74,0,0,1-.8.43,4.91,4.91,0,0,1-1,.34,4.31,4.31,0,0,1-1.18.1,3.55,3.55,0,0,1-2.37-.95,2.82,2.82,0,0,1-.81-2.29,2.75,2.75,0,0,1,.42-1.32,3.56,3.56,0,0,1,.87-1,6.08,6.08,0,0,1,1.32-.72,12.26,12.26,0,0,1,1.41-.5l1.51-.38,1.28-.31a.47.47,0,0,0,.29-.46l.09-1.63a2.56,2.56,0,0,0-.38-1.66,1.55,1.55,0,0,0-1.24-.66,1.81,1.81,0,0,0-1.43.47,2.23,2.23,0,0,0-.59,1.53,1,1,0,0,1-.49.85,1.84,1.84,0,0,1-1,.23,1.68,1.68,0,0,1-1.5-.8q.08-1.42,2.09-2.56A7.48,7.48,0,0,1,321.52,117Zm-2,11.32A2.31,2.31,0,0,0,321,128a1.18,1.18,0,0,0,.63-.92l.17-3c-.14.05-.44.13-.89.25s-.8.21-1,.3a7.89,7.89,0,0,0-.85.37,1.79,1.79,0,0,0-.73.62,1.63,1.63,0,0,0-.27.82,1.83,1.83,0,0,0,.4,1.42A1.71,1.71,0,0,0,319.55,128.36Z"/><path class="cls-1" d="M334.67,117.83a9.48,9.48,0,0,1,2.44.52,9.22,9.22,0,0,0,2.35.52l1.69.09s.1.13.19.4a1.82,1.82,0,0,1,.11.6c0,.28-.08.41-.2.41l-1.93-.11c-.08,0-.12,0-.12.08s.07.28.22.79a4.23,4.23,0,0,1,.19,1.44,4.29,4.29,0,0,1-1.64,3.08,5.08,5.08,0,0,1-3.74,1.21,12.3,12.3,0,0,1-1.83-.22,1.61,1.61,0,0,0-.68.51,1.28,1.28,0,0,0-.34.71.61.61,0,0,0,.25.52,2,2,0,0,0,.86.35c.39.08.73.14,1,.17l1.18.13.45,0a10.52,10.52,0,0,1,4.3,1.06,2.34,2.34,0,0,1,1.26,2.26,4.67,4.67,0,0,1-2.35,3.74,8.12,8.12,0,0,1-5.11,1.36,7.73,7.73,0,0,1-3.74-1,2.67,2.67,0,0,1-1.48-2.53,2.31,2.31,0,0,1,.94-1.62,5,5,0,0,1,1.89-1,3.39,3.39,0,0,1-1.37-1,2.17,2.17,0,0,1-.57-1.59q.07-1.27,2.34-2.52a3.94,3.94,0,0,1-1.52-1.62,4.37,4.37,0,0,1-.61-2.46,4,4,0,0,1,1.73-3.24A5.91,5.91,0,0,1,334.67,117.83Zm3.24,15.75q.06-1-1.42-1.46a19,19,0,0,0-4-.56l-.15,0-.15.08c-.26.08-.46.16-.61.22a2.44,2.44,0,0,0-.49.3,1.43,1.43,0,0,0-.43.5,1.74,1.74,0,0,0-.17.71,2.08,2.08,0,0,0,1,1.84,4.63,4.63,0,0,0,2.48.85,4.5,4.5,0,0,0,2.76-.62A2.32,2.32,0,0,0,337.9,133.58ZM332.17,122a4.7,4.7,0,0,0,.46,2.48,1.85,1.85,0,0,0,1.61,1.09,1.76,1.76,0,0,0,1.67-.76,4,4,0,0,0,.63-2.06,4.89,4.89,0,0,0-.45-2.59,1.9,1.9,0,0,0-1.67-1.07,1.68,1.68,0,0,0-1.62.83A4.32,4.32,0,0,0,332.17,122Z"/><path class="cls-1" d="M349.55,118.59a5.51,5.51,0,0,1,2.46.69,4.69,4.69,0,0,1,1.64,1.49,6.84,6.84,0,0,1,.85,1.8,5.11,5.11,0,0,1,.23,1.75c0,.43-.11.7-.27.8a1.7,1.7,0,0,1-.91.11l-7.09-.39c-.14,0-.21,0-.22.17a5.76,5.76,0,0,0,.27,2.1,4.09,4.09,0,0,0,1.22,1.82,3.51,3.51,0,0,0,2.2.87,7.48,7.48,0,0,0,.86,0,4.36,4.36,0,0,0,.78-.11l.63-.16a2.47,2.47,0,0,0,.56-.24l.41-.23.62-.37a.47.47,0,0,1,.14.19.58.58,0,0,1,.07.3.91.91,0,0,1-.21.55,4.84,4.84,0,0,1-1.84,1.51,5.51,5.51,0,0,1-3,.64,6,6,0,0,1-4.35-2.16A6.41,6.41,0,0,1,343,125a6.88,6.88,0,0,1,2-4.77A5.76,5.76,0,0,1,349.55,118.59Zm-.28,1.35a2.11,2.11,0,0,0-1.3.35,2.78,2.78,0,0,0-.92,1,5.69,5.69,0,0,0-.49,1.09,3.66,3.66,0,0,0-.18.87c0,.14,0,.21.17.22l4.81.27c.18,0,.28-.13.29-.43a3.84,3.84,0,0,0-.58-2.14A2.13,2.13,0,0,0,349.27,119.94Z"/></svg>