<svg id="Layer_1" data-name="Layer 1" xmlns="http://www.w3.org/2000/svg" viewBox="0 0 900.53 327.21"><defs><style>.cls-1{fill:#fff;stroke:#1928eb;stroke-miterlimit:10;stroke-width:1.2px;}.cls-2{fill:#1928eb;}</style></defs><title>press press v8</title><path class="cls-1" d="M43.31,57.75,81.49,130q2.77,5.53,5.43,10.05,1.09,2.07,5,3a19.19,19.19,0,0,0,5.61.72c.38,0,.67.8.85,2.53a4.87,4.87,0,0,1-.06,2.19q-17.37,1-18.23,1t-18.62,2.83a4.08,4.08,0,0,1-.86-2.6q-.22-2.08.36-2.15a18.63,18.63,0,0,0,4.66-1.36q2.93-1.18,3.39-2.4a4.15,4.15,0,0,0,.23-1.92q-.3-2.88-3.78-9.65L59,119.42a1.61,1.61,0,0,0-1.07-.47q-4.64.2-12.41,1t-16.37,2.16c-.58.06-.84.29-.8.67l-4.06,14q-1.95,7.78-1.75,9.65a3.23,3.23,0,0,0,1.89,2.71,14.5,14.5,0,0,0,4.7,1.11,25,25,0,0,0,4.47.26q.45.1.64,2a9.5,9.5,0,0,1,0,2.77q-.72.08-6.81.28t-9.83.6q-3.75.4-8.82,1.29l-7.22,1.27a3.07,3.07,0,0,1-.8-2.1q-.27-2.59,0-2.62a21,21,0,0,0,5.41-1.81q3.69-1.62,4.53-3.31A68.84,68.84,0,0,0,15,137l20-67.61q2.4-9,4.24-10.93a3.69,3.69,0,0,1,2.34-1.27A2.37,2.37,0,0,1,43.31,57.75ZM31.68,113.12q5.08-.1,10.41-.66,5-.53,11.76-1.68l.23-.61-14-27.64-8.77,30C31.37,113,31.48,113.14,31.68,113.12Z"/><path class="cls-1" d="M142.35,79q7.91-.83,12.31,3.51,1.29,12.24-5.62,13-2.59.27-5.92-2.29A9.06,9.06,0,0,0,136.63,91q-4.46.47-6.5,5.27a19.27,19.27,0,0,0-1.53,9.7l1.9,18a60.63,60.63,0,0,0,2.37,12.85q.39,1,4,1.69a20.49,20.49,0,0,0,4.93.57c.29,0,.53.65.72,2a15.06,15.06,0,0,1,.22,2.82q-1.17,0-7.69.23t-9.83.6q-3.46.36-10,1.49t-7.64,1.39q-.64-.52-.86-2.67c-.15-1.44,0-2.18.35-2.22a20.24,20.24,0,0,0,5.14-1.63q3.41-1.45,3.6-2.49a47.33,47.33,0,0,0-.1-10.62l-2.47-23.47q-.71-6.76-3.27-9a7,7,0,0,0-3.47-1.82,16.51,16.51,0,0,0-3.55-.5c-.92,0-1.39-.09-1.41-.29q-.44-4.17.26-4.39,6.56-1.27,22.72-6.76a8.49,8.49,0,0,1,1.12-.41c.38,0,.75.26,1.11.9a3.47,3.47,0,0,1,.53,1.62c0,.44,0,1.12,0,2s0,1.89-.06,2.92a18.75,18.75,0,0,0,0,2,26.57,26.57,0,0,1,6.32-7.73A15.86,15.86,0,0,1,142.35,79Z"/><path class="cls-1" d="M171.49,86.16l-8.78.93q-1,.11-1.4-3.64a3.6,3.6,0,0,1,0-1.31,40.5,40.5,0,0,0,10.28-8.8q1.67-2.07,3.66-4.68T179.86,62a10.26,10.26,0,0,1,2.77.07q1.33.23,1.38.66l1.49,14.11q3.74-.4,10.45-1l7.13-.68q1.15-.12,1.29,1.17a14.07,14.07,0,0,1-.77,6.49L186.32,84.6,190,119.3q.61,5.76,3.37,8.52a8.28,8.28,0,0,0,7.09,2.31,13.7,13.7,0,0,0,3-.68,15.38,15.38,0,0,0,2.51-1.06q1-.54,1.78-1.06a4.64,4.64,0,0,1,1-.54q.56-.2,1.43,1.16t.77,1.81q-.65,2.11-5.63,5.32a22.83,22.83,0,0,1-10,3.75A18.26,18.26,0,0,1,182,135.35q-5.77-4.27-6.83-14.35Z"/><path class="cls-1" d="M242.64,112.15q.93,8.78,2.52,12.83.39,1,4.11,1.68a21.32,21.32,0,0,0,5,.56q.57-.06.87,2a8.22,8.22,0,0,1,.08,2.83q-1,0-7.76.24t-9.91.61q-3.6.38-10.1,1.5t-7.5,1.37q-.64-.52-.86-2.67c-.15-1.44,0-2.18.35-2.22a21,21,0,0,0,5.07-1.63q3.48-1.46,3.67-2.5a47.34,47.34,0,0,0-.1-10.62L225.6,92.69q-.71-6.77-3.27-9a8,8,0,0,0-3.54-1.81,15.28,15.28,0,0,0-3.55-.5q-1.46,0-1.49-.28-.44-4.17.41-4.41a111,111,0,0,0,11.48-3A113.62,113.62,0,0,0,236.74,70a8.85,8.85,0,0,0,1.12-.41c.48-.05.9.25,1.26.89a2.67,2.67,0,0,1,.45,1.55,124,124,0,0,0,.15,12.5ZM221.32,53.47a8.82,8.82,0,0,1-3.26-6.06A8.58,8.58,0,0,1,220,40.88a9,9,0,0,1,15.92,4.66A8.82,8.82,0,0,1,234,52.14a8.91,8.91,0,0,1-12.67,1.33Z"/><path class="cls-1" d="M292.85,26.36a28.5,28.5,0,0,1,10.17.46q4.12,1.1,5.64,3.12a16.24,16.24,0,0,1,0,8.07,5.19,5.19,0,0,1-4.88,4.08,5.65,5.65,0,0,1-4.64-1.91Q297,38,294.58,35.86A6.66,6.66,0,0,0,289.29,34q-3.89.41-6.08,4.43a24.34,24.34,0,0,0-2.72,9.46,59.06,59.06,0,0,0,.15,11.78l.7,6.62c0,.1.12.23.33.4a.83.83,0,0,0,.61.23l15.84-1.67a1.17,1.17,0,0,1,.74.07,1.54,1.54,0,0,1,.23.85,14.89,14.89,0,0,1-1,6.8l-15,1.58a.77.77,0,0,0-.77,1l3.38,32.11a55.36,55.36,0,0,0,2.52,12.84q.39,1,4,1.69a20.51,20.51,0,0,0,4.94.57c.29,0,.53.65.72,2a8.2,8.2,0,0,1,.08,2.83q-.88-.05-7.55.21t-10.12.63q-3.46.36-9.75,1.46t-7.42,1.37a2.73,2.73,0,0,1-.74-1.52,8.63,8.63,0,0,1-.24-2.23q0-1.09.46-1.14a19.44,19.44,0,0,0,4.92-1.61q3.34-1.44,3.52-2.48a48,48,0,0,0,.05-11.94L267.64,77.2c-.07-.67-.39-1-1-.92l-8.64.91c-.19,0-.32-.26-.38-.83q-.17-1.58,1.58-4.39a5.82,5.82,0,0,1,4.33-3.08l2.3-.24a.77.77,0,0,0,.77-1l-.15-1.44q-1.59-15.12,6.27-26.86T292.85,26.36Z"/><path class="cls-1" d="M336.13,58.63q8.92-.94,13.88,3.27t6.15,15.58l3,28.36a6.61,6.61,0,0,0,1.76,4.25,4.35,4.35,0,0,0,3.62,1.15,9,9,0,0,0,4.7-2.39c.6.13.94.63,1,1.49a8.59,8.59,0,0,1-.41,4.41,35.86,35.86,0,0,1-5.38,4.21,15.09,15.09,0,0,1-6.71,2.6A10.57,10.57,0,0,1,351,119.8a11.87,11.87,0,0,1-4.74-4.89q-.13.16-1,1t-2.39,2.22a42.66,42.66,0,0,1-3.5,2.7,23.13,23.13,0,0,1-4.69,2.46,21,21,0,0,1-5.6,1.39q-7.2.76-12.15-2.72t-5.68-10.39a13.36,13.36,0,0,1,1-6.65,17.3,17.3,0,0,1,3.44-5.38,29.69,29.69,0,0,1,5.79-4.47,59.56,59.56,0,0,1,6.4-3.51q2.71-1.23,7-3t5.92-2.52a2.28,2.28,0,0,0,1.05-2.44L341,75.73q-.53-5-3.14-7.68a7.56,7.56,0,0,0-6.49-2.23,8.78,8.78,0,0,0-6.49,3.38q-2.17,2.92-1.65,7.82a4.69,4.69,0,0,1-1.71,4.47,9,9,0,0,1-4.75,1.88q-5.33.56-7.85-2.67-.73-6.91,8.07-14A36.31,36.31,0,0,1,336.13,58.63Zm-.65,56a11.23,11.23,0,0,0,6.48-2.72q2.59-2.31,2.32-4.9l-1.55-14.68q-1,.54-4.1,1.89t-4.78,2.25A39.37,39.37,0,0,0,330,98.86a8.71,8.71,0,0,0-3,3.52,8,8,0,0,0-.66,4.14q.48,4.61,3,6.52A8.32,8.32,0,0,0,335.48,114.59Z"/><path class="cls-1" d="M401.92,51.7a34.94,34.94,0,0,1,13.87,1.09q6.24,1.89,9.15,4.64a17.91,17.91,0,0,1-.8,8.31,5.34,5.34,0,0,1-4.63,3.76,6.48,6.48,0,0,1-4.54-1,16.44,16.44,0,0,1-3.88-4.4q-4-6.27-10.34-5.61t-9.2,7.3q-3,6.65-2,16.15,1.37,13,7.35,18.66a17.08,17.08,0,0,0,14.19,4.84,39.56,39.56,0,0,0,4.15-.66,21.52,21.52,0,0,0,3.67-1.11q1.68-.69,2.92-1.25a12.48,12.48,0,0,0,2.53-1.58l1.81-1.43q.54-.42,2.68-2.25a2.38,2.38,0,0,1,.81.79,2.79,2.79,0,0,1,.58,1.39,4.45,4.45,0,0,1-.58,2.83q-1.75,4.11-7.67,8.67a26.59,26.59,0,0,1-13.7,5.37,29.29,29.29,0,0,1-22.79-7.06,32,32,0,0,1-11.41-21.94,32.92,32.92,0,0,1,6.25-23.58Q388,53.17,401.92,51.7Z"/><path class="cls-1" d="M443,57.56l-8.78.93q-1,.11-1.4-3.64a3.61,3.61,0,0,1,0-1.31,40.5,40.5,0,0,0,10.28-8.8q1.67-2.07,3.66-4.68t4.61-6.67a10.22,10.22,0,0,1,2.77.07q1.34.22,1.38.65L457,48.22q3.74-.4,10.45-1l7.13-.68q1.15-.12,1.29,1.17a14.06,14.06,0,0,1-.77,6.49L457.84,56l3.66,34.7q.61,5.76,3.37,8.52a8.28,8.28,0,0,0,7.09,2.31,13.71,13.71,0,0,0,3-.68,15.37,15.37,0,0,0,2.51-1.06c.64-.36,1.24-.71,1.78-1.06a4.61,4.61,0,0,1,1-.54q.56-.2,1.43,1.16t.77,1.81q-.65,2.11-5.63,5.32a22.83,22.83,0,0,1-10,3.75,18.26,18.26,0,0,1-13.25-3.48q-5.77-4.27-6.83-14.35Z"/><path class="cls-1" d="M560.44,95.84l-.37.62q-.79.81-3.81,1.13l-2.59.27a2.31,2.31,0,0,1-1.41-.22c-.36-.2-.55-.4-.57-.59l0-.29L552.56,75l-12.67,1.33L539,98.1a1,1,0,0,1,0,.44,3.24,3.24,0,0,1-1.1.63,11,11,0,0,1-3.2.7l-2.59.27a2.31,2.31,0,0,1-1.41-.22q-.54-.3-.57-.59l-.17-.27,1-21.8-12.09,1.27q-.86.09-1-1.35a24,24,0,0,1,.46-6.74,1.08,1.08,0,0,1,.3-.61.89.89,0,0,1,.49-.2l.14,0,12.09-1.27.51-11.7-15.12,1.59q-.88-.05-1-1.49a24.06,24.06,0,0,1,.45-6.74,1.07,1.07,0,0,1,.3-.61.9.9,0,0,1,.49-.2h.14l15.12-1.59L533.32,25q-.14-1.3,7.35-2.08a1.71,1.71,0,0,1,1.26.23c.26.21.36.42.29.63l0,.29-1,22.52,12.67-1.33,1.12-22.54q-.14-1.29,7.35-2.08a1.72,1.72,0,0,1,1.26.23,1,1,0,0,1,.43.61l-.11.3-1.12,22.54,11.52-1.21a.63.63,0,0,0,.28-.1q.13-.09.45.17a1.19,1.19,0,0,1,.38.83,24.4,24.4,0,0,1-.57,7l-.76,1.1-11.66,1.23-.66,11.71,14.68-1.55a.64.64,0,0,0,.28-.1c.09-.06.24,0,.45.17a1.19,1.19,0,0,1,.38.83,24.41,24.41,0,0,1-.57,7,1.66,1.66,0,0,1-.29.69.6.6,0,0,1-.34.25l-.14,0L561.63,74Zm-7.36-29.79.51-11.7-12.67,1.33-.66,11.71Z"/><path class="cls-1" d="M609.08.76Q619.3-.32,626.37,6a24.81,24.81,0,0,1,8.15,16.54,30.32,30.32,0,0,1-.51,9,67.8,67.8,0,0,1-2.28,8.75,51.89,51.89,0,0,1-4.42,9.2q-3.08,5.28-5.22,8.48t-6.38,8.53q-4.24,5.32-6,7.4t-6,7a.59.59,0,0,0-.21.75.67.67,0,0,0,.77.36l26.2-2.76a8.59,8.59,0,0,0,5.35-2.38,10,10,0,0,0,2.69-4.21,58.34,58.34,0,0,0,1.36-6.48q.3-1.34,2.17-1.54a5,5,0,0,1,3,.42q-2,19.57-2.34,23.39a2.16,2.16,0,0,1-2.08,2.4l-50,5.26q-1.68-.7-2.21-4.42a213,213,0,0,0,22.26-35.39q9.06-18.28,7.9-29.36-.74-7.05-4.88-11.13a11.88,11.88,0,0,0-10-3.45,16.71,16.71,0,0,0-3.7.83,18,18,0,0,0-3.2,1.43,18.33,18.33,0,0,0-2.64,1.88q-1.27,1.08-2.12,2a18.45,18.45,0,0,0-1.74,2.15,19.49,19.49,0,0,0-1.25,2q-.36.69-.91,1.7a4.58,4.58,0,0,0-.54,1.15,3.68,3.68,0,0,1-2.34-.77,2.75,2.75,0,0,1-1.44-1.89A28.13,28.13,0,0,1,586,17.53a46.91,46.91,0,0,1,4.46-6.73,26.4,26.4,0,0,1,7.82-6.57A27.14,27.14,0,0,1,609.08.76Z"/><path class="cls-1" d="M666.2,28.29a9.19,9.19,0,0,1,3.51,6.4,9.93,9.93,0,0,1-2.08,7.21,8.88,8.88,0,0,1-6.38,3.73A9.25,9.25,0,0,1,654,43.33a9.79,9.79,0,0,1-3.61-6.61,9.07,9.07,0,0,1,2.17-7,9.59,9.59,0,0,1,6.61-3.54A9.19,9.19,0,0,1,666.2,28.29Zm4.68,44.41a9.44,9.44,0,0,1,3.52,6.47,9.68,9.68,0,0,1-2.09,7.13A9,9,0,0,1,665.93,90a9.36,9.36,0,0,1-7.22-2.22,9.54,9.54,0,0,1-3.6-6.53,9.31,9.31,0,0,1,2.17-7.07,9.47,9.47,0,0,1,6.61-3.61A9.08,9.08,0,0,1,670.88,72.71Z"/><path class="cls-1" d="M291.53,186.69q-.8-7.63-2.65-11.37-.9-1.65-5.11-2.23a29.07,29.07,0,0,0-6.51-.33q-.58.06-.87-2a4.89,4.89,0,0,1,.08-2.7q15.51-.61,18.24-.9,3.74-.39,9.59-1.52t7.29-1.28a6.05,6.05,0,0,1,.53,2.27q.26,2.45-.32,2.51a27.71,27.71,0,0,0-6.08,1.73q-4.06,1.52-5.16,3.53-1.18,4.05-.33,12.12L306,241.06q.55,5.18,2.7,20.09-.52.63-3.11.91-2.3.24-5-2.83l-65.31-70,6.14,58.31q.91,8.64,2.4,11.68.9,1.65,5.64,2.39a29.92,29.92,0,0,0,6.61.54c.29,0,.53.63.72,2a7.87,7.87,0,0,1,.07,2.76q-17.37,1-18.09,1-3.89.41-9.54,1.37t-7.51,1.3a3.63,3.63,0,0,1-.83-2.39c-.16-1.53-.05-2.32.33-2.36a27.41,27.41,0,0,0,6.44-1.77q4-1.51,4.91-3.79,1.12-3.17.17-12.25l-5.95-56.43q-.82-7.77-2.69-10.34-.68-.94-5.16-1.35a37.64,37.64,0,0,0-6.5-.19q-.58.06-.88-2.09t.22-2.79Q227,174,229,173.77q4.75-.5,12.88-2.08A150.32,150.32,0,0,0,253.54,186q8.34,9.38,22.76,24.68T296,231.78a41.61,41.61,0,0,0-.33-5.93Z"/><path class="cls-1" d="M338.41,195q3.16-.33,9-1.39t7.3-1.21a9.81,9.81,0,0,1,.56,2.56c.14,1.34,0,2-.36,2.08a15.78,15.78,0,0,0-4.42,1.56q-3,1.4-3,2.72l.09.86q.53,2.27,16.85,31.41.88-2.71,4.12-14.77T372.35,205a13.59,13.59,0,0,0,.39-4.55q-.2-1.87-2.67-3.28t-7.08-.93q-.58.06-.8-2.1a3.63,3.63,0,0,1,.32-2.51q1.73-.18,7.1-.31t8.83-.49q3-.32,7.37-1.21t6.36-1.11a4.12,4.12,0,0,1,.82,2.24q.24,2.3-.33,2.36a18.33,18.33,0,0,0-5.68,2.05Q383.3,197,382.45,200l-19.64,66.41q-6.71,22-19.24,23.28a7.84,7.84,0,0,1-6-1.41,6.77,6.77,0,0,1-.36-10.3q15-1.58,18.48-13.88,2.54-9,2.85-10.2l-26.17-46.73a18.79,18.79,0,0,0-2.08-3.13,8.7,8.7,0,0,0-4.59-2.79,13.7,13.7,0,0,0-4.79-.59q-.58.06-.79-2-.24-2.3.16-2.64.86-.09,7.75-.38T338.41,195Z"/><path class="cls-1" d="M427.86,227.5q.94,8.93,2.37,12.85.39,1,3.76,1.86a15.8,15.8,0,0,0,4.52.76c.29,0,.53.63.72,2a7.89,7.89,0,0,1,.07,2.76l-5.44.21q-3.41.14-6.16.29t-5.2.4q-2.74.29-5.46.72t-6,1l-5.43.94a4.09,4.09,0,0,1-.86-2.6q-.22-2.09.35-2.15a15.48,15.48,0,0,0,4.69-1.73q3.11-1.56,3.29-2.6a48,48,0,0,0,0-10.77l-6.31-59.89a50.38,50.38,0,0,0-1.9-9.7q-1-2.23-7.44-1.54l-1.44.15q-.86.09-1-1.64-.24-2.3.62-2.39,4.42-.9,8.37-2t6.54-2.14q2.59-1,4.46-1.85t3-1.41l1-.54.29,0c.38,0,.82.2,1.31.73a4.43,4.43,0,0,1,.94,1.36,45.74,45.74,0,0,0-.3,13.71Z"/><path class="cls-1" d="M473.3,179.33a31.92,31.92,0,0,1,24.1,7,31,31,0,0,1,12,21.81,33,33,0,1,1-36.08-28.81Zm-1.16,7q-6.77.71-9.82,7.66a31.13,31.13,0,0,0-2.1,16q1.23,11.66,6.82,19.81T481,237q6.76-.71,9.88-7.74a30.8,30.8,0,0,0,2.18-16,49.69,49.69,0,0,0-3.33-13.7,25.54,25.54,0,0,0-7.18-10.09A13.43,13.43,0,0,0,472.14,186.3Z"/><path class="cls-1" d="M560.83,170.11q18.57-2,21.68,27.56l1.44,13.68q.93,8.78,2.37,12.85.39,1,4.18,1.67a22.15,22.15,0,0,0,5.08.56c.29,0,.53.65.72,2a8.17,8.17,0,0,1,.08,2.83q-.88-.06-7.62.22t-10,.62q-3.46.36-9.53,1.44t-7.35,1.36q-.64-.52-.86-2.67t.35-2.22a17.23,17.23,0,0,0,4.71-1.59q3.13-1.42,3.31-2.46a41.65,41.65,0,0,0,0-10.63l-1.44-13.68q-1.26-11.95-5-16.36t-10.79-3.67a13.39,13.39,0,0,0-7.8,3.37q-3.19,2.88-2.89,5.76l2.61,24.76q.93,8.78,2.37,12.85.39,1,4,1.69a20.81,20.81,0,0,0,4.79.59q.57-.06.87,2a8.2,8.2,0,0,1,.08,2.83q-1.17,0-7.62.22t-9.76.59q-3.46.36-10,1.49t-7.64,1.39q-.64-.52-.86-2.67c-.15-1.44,0-2.18.35-2.22a20.18,20.18,0,0,0,5.14-1.63q3.41-1.45,3.6-2.49a47.34,47.34,0,0,0-.1-10.62l-2.47-23.47q-.71-6.76-3.27-9a7,7,0,0,0-3.47-1.82,16.59,16.59,0,0,0-3.55-.5c-.92,0-1.39-.09-1.41-.29q-.44-4.17.26-4.4,6.56-1.27,22.72-6.76a.94.94,0,0,1,.34-.25,1.41,1.41,0,0,1,.43-.12l.36,0c.38,0,.75.26,1.11.9a4.4,4.4,0,0,1,.6,1.54,49,49,0,0,0,0,5.24c0,.38.11.62.22.7a2.13,2.13,0,0,0,.67-.51,32.08,32.08,0,0,1,8.22-7A25.33,25.33,0,0,1,560.83,170.11Z"/><path class="cls-1" d="M644.22,129.88q4.17-.44,9.62-1.23t9.77-1.25a47,47,0,0,1,8.65-.11,34.79,34.79,0,0,1,8.79,1.91,30.65,30.65,0,0,1,8,4.18,22.92,22.92,0,0,1,6.12,7,24.64,24.64,0,0,1,3.16,10A27.55,27.55,0,0,1,696.21,164a30.44,30.44,0,0,1-9.49,12.13,29.42,29.42,0,0,1-15.57,6.23,18,18,0,0,1-6.16-.44,8.64,8.64,0,0,1-4.46-2.22,3.11,3.11,0,0,1-.66-1.39,6.62,6.62,0,0,1-.3-2.15c0-.68.13-1,.33-1.05a20.26,20.26,0,0,0,8.21.59,12.79,12.79,0,0,0,10.34-6.84q3.43-6.11,2.52-14.75-1-9.64-5.49-14.85t-12.54-4.36q-6,.64-8.24,1.89-1.64,1-.15,15.15l5.42,51.4q.91,8.64,2.44,12.12.61,1.68,5.12,2.3a30.52,30.52,0,0,0,6.52.41q.57-.06.83,2.39a8.15,8.15,0,0,1,0,2.48q-15.93.8-20.53,1.29-3.89.41-8.69,1.13L638,226.61l-2.85.59a5,5,0,0,1-.71-2.55c-.16-1.53-.1-2.32.19-2.35a24.68,24.68,0,0,0,5.44-1.52q3.57-1.32,4-2.68.59-2.68-.52-13.19L637.8,150.5a56.78,56.78,0,0,0-2.11-11.71q-.55-1.11-4.5-1.93a21,21,0,0,0-5.67-.64q-.58.06-.8-2.1t.3-2.65Q640.19,130.31,644.22,129.88Z"/><path class="cls-1" d="M739.05,151.33a31.91,31.91,0,0,1,24.1,7,31,31,0,0,1,12,21.81,33,33,0,1,1-36.08-28.81Zm-1.16,7q-6.77.71-9.82,7.66a31.14,31.14,0,0,0-2.1,16q1.23,11.66,6.82,19.81T746.74,209q6.77-.71,9.88-7.74a30.79,30.79,0,0,0,2.18-16,49.7,49.7,0,0,0-3.34-13.7,25.51,25.51,0,0,0-7.18-10.09A13.43,13.43,0,0,0,737.9,158.3Z"/><path class="cls-1" d="M812,143.64a31.92,31.92,0,0,1,24.1,7,31,31,0,0,1,12,21.81,32.79,32.79,0,0,1-65.22,6.87,31.19,31.19,0,0,1,7-23.88A31.71,31.71,0,0,1,812,143.64Zm-1.16,7q-6.77.71-9.82,7.66a31.13,31.13,0,0,0-2.1,16q1.23,11.66,6.82,19.81t13.94,7.27q6.76-.71,9.88-7.74a30.81,30.81,0,0,0,2.18-16,49.69,49.69,0,0,0-3.33-13.7,25.54,25.54,0,0,0-7.18-10.09A13.43,13.43,0,0,0,810.89,150.61Z"/><path class="cls-1" d="M882.07,179.64q.94,8.93,2.37,12.85.39,1,3.76,1.86a15.8,15.8,0,0,0,4.52.76c.29,0,.53.63.72,2a7.89,7.89,0,0,1,.07,2.76l-5.44.21q-3.41.14-6.16.28t-5.2.4q-2.74.29-5.46.72t-6,1l-5.43.94a4.08,4.08,0,0,1-.86-2.6c-.15-1.39,0-2.11.35-2.15A15.48,15.48,0,0,0,864,196.9q3.11-1.56,3.29-2.6a48,48,0,0,0,0-10.77L861,123.63a50.38,50.38,0,0,0-1.9-9.7q-1-2.23-7.44-1.54l-1.44.15q-.86.09-1-1.64-.24-2.3.62-2.39,4.42-.9,8.37-2t6.54-2.14q2.59-1,4.46-1.85t3-1.41l1-.54.29,0c.38,0,.82.2,1.31.73a4.43,4.43,0,0,1,.94,1.36,45.74,45.74,0,0,0-.3,13.71Z"/><path class="cls-2" d="M422.49,296.15l7.75,18.93q.55,1.44,1.11,2.64a1.76,1.76,0,0,0,1.17.86,4.83,4.83,0,0,0,1.38.32q.14,0,.15.65a1.22,1.22,0,0,1-.07.54l-4.57-.18-4.71.25a1,1,0,0,1-.15-.67q0-.52.14-.53a4.63,4.63,0,0,0,1.19-.23q.76-.22.9-.51a1,1,0,0,0,.1-.47,8.33,8.33,0,0,0-.71-2.5l-1.29-3.36a.4.4,0,0,0-.25-.14q-1.16-.06-3.12,0t-4.13.14q-.22,0-.22.15l-1.35,3.38a10.28,10.28,0,0,0-.67,2.36.81.81,0,0,0,.4.72,3.62,3.62,0,0,0,1.14.39,6.23,6.23,0,0,0,1.11.17c.07,0,.11.19.11.51a2.37,2.37,0,0,1-.07.69l-1.7-.1q-1.52-.1-2.46-.09t-2.23.11l-1.83.14a.77.77,0,0,1-.15-.54c0-.44,0-.65.07-.65a5.2,5.2,0,0,0,1.39-.32,2.24,2.24,0,0,0,1.21-.71,17.29,17.29,0,0,0,1.36-2.84l6.62-16.35a7.87,7.87,0,0,1,1.32-2.62.93.93,0,0,1,.61-.26A.6.6,0,0,1,422.49,296.15Zm-4.25,13.51q1.27.1,2.61.09t3-.13l.07-.15-2.81-7.23-2.92,7.27C418.17,309.61,418.2,309.66,418.24,309.66Z"/><path class="cls-2" d="M451.43,296.08l3.95,0q2.93,0,8-.42c.07,0,.15.18.24.47a2.68,2.68,0,0,1,.13.72q0,.15-3.35,5.19t-6.61,10l-3.3,5a1.49,1.49,0,0,0-.21.54c0,.24.17.36.51.36l7-.05q4.28,0,5.8-4.35.07-.18.47-.19a1.42,1.42,0,0,1,1,.28q-1.52,4.9-1.73,6.17l-18.37.13a1.37,1.37,0,0,1-.3-.94,1,1,0,0,1,.14-.62l13.48-20.42-7,.05a8.79,8.79,0,0,0-2.17.31,2.77,2.77,0,0,0-1.41.93,6.2,6.2,0,0,0-.82,1.31,15.44,15.44,0,0,0-.64,1.83q-.07.18-.43.19c-.63,0-1-.08-1.16-.25q.87-4.53,1.08-6.46a19,19,0,0,0,2.67.18Q450.7,296.09,451.43,296.08Z"/><path class="cls-2" d="M473.79,314.54a13.36,13.36,0,0,0,.31,3.26q.07.25,1,.52a5.31,5.31,0,0,0,1.23.26c.1,0,.15.17.17.52a2,2,0,0,1,0,.71q-.25,0-1.94-.13t-2.48-.09q-.91,0-2.55.13t-1.9.16a1.06,1.06,0,0,1-.15-.69c0-.36,0-.54.14-.54a5.28,5.28,0,0,0,1.3-.28c.6-.19.93-.36,1-.53a11.85,11.85,0,0,0,.23-2.65l0-5.91a3.45,3.45,0,0,0-.6-2.32,2,2,0,0,0-.84-.54,3.85,3.85,0,0,0-.87-.21c-.24,0-.36-.06-.36-.11q0-1.05.21-1.09a27.73,27.73,0,0,0,2.93-.46,28.59,28.59,0,0,0,2.86-.67l.29-.08c.12,0,.22.08.29.25a.67.67,0,0,1,.08.4,31.1,31.1,0,0,0-.27,3.12Zm-3.88-15.14a2.21,2.21,0,0,1-.66-1.59,2.14,2.14,0,0,1,.64-1.58,2.27,2.27,0,0,1,3.19,0,2.15,2.15,0,0,1,.66,1.57,2.21,2.21,0,0,1-.64,1.6,2.23,2.23,0,0,1-3.19,0Z"/><path class="cls-2" d="M490.35,303.55q4.68,0,4.73,7.39l0,3.44a15.22,15.22,0,0,0,.28,3.26c0,.17.38.34,1,.52a5.57,5.57,0,0,0,1.25.26q.11,0,.13.52a2,2,0,0,1,0,.71q-.22,0-1.9-.13t-2.52-.09q-.87,0-2.41.13l-1.87.16a1.06,1.06,0,0,1-.15-.69c0-.36,0-.54.14-.54a4.33,4.33,0,0,0,1.21-.28q.81-.28.88-.53a10.43,10.43,0,0,0,.27-2.65l0-3.44a7.86,7.86,0,0,0-.85-4.2,2.91,2.91,0,0,0-2.6-1.18,3.34,3.34,0,0,0-2,.65,1.74,1.74,0,0,0-.86,1.36l0,6.23a15.22,15.22,0,0,0,.28,3.26q.07.25,1,.52a5.18,5.18,0,0,0,1.18.26q.14,0,.17.52a2.06,2.06,0,0,1,0,.71q-.29,0-1.9-.13t-2.45-.09q-.87,0-2.52.13l-1.94.16a1.06,1.06,0,0,1-.15-.69c0-.36,0-.54.14-.54a5,5,0,0,0,1.32-.28q.88-.28,1-.53a11.86,11.86,0,0,0,.23-2.65l0-5.91a3.45,3.45,0,0,0-.6-2.32,1.75,1.75,0,0,0-.82-.54,4.06,4.06,0,0,0-.87-.21c-.23,0-.34-.06-.34-.11q0-1.05.17-1.09a50.92,50.92,0,0,0,5.83-1.13l.09-.05.11,0h.09q.15,0,.26.25a1.1,1.1,0,0,1,.11.4,12.27,12.27,0,0,0-.14,1.31.29.29,0,0,0,0,.18.54.54,0,0,0,.18-.11,8,8,0,0,1,2.22-1.54A6.33,6.33,0,0,1,490.35,303.55Z"/><path class="cls-2" d="M507.46,303.43a6.72,6.72,0,0,1,3,.65,5.73,5.73,0,0,1,2.11,1.69,8.44,8.44,0,0,1,1.17,2.13,6.25,6.25,0,0,1,.41,2.12c0,.53-.08.87-.27,1a2.06,2.06,0,0,1-1.1.21l-8.66.06c-.17,0-.25.08-.25.22a7,7,0,0,0,.49,2.53,5,5,0,0,0,1.63,2.13,4.26,4.26,0,0,0,2.74.89,9.61,9.61,0,0,0,1.05-.06,5.44,5.44,0,0,0,.94-.19l.76-.24a3.13,3.13,0,0,0,.67-.33l.49-.31.72-.49a.61.61,0,0,1,.18.22.7.7,0,0,1,.11.36,1.12,1.12,0,0,1-.21.69,5.92,5.92,0,0,1-2.12,2,6.72,6.72,0,0,1-3.58,1,7.33,7.33,0,0,1-5.45-2.3,7.81,7.81,0,0,1-2.32-5.65,8.39,8.39,0,0,1,2.08-6A7,7,0,0,1,507.46,303.43Zm-.24,1.67a2.57,2.57,0,0,0-1.55.52,3.41,3.41,0,0,0-1,1.24,6.91,6.91,0,0,0-.52,1.36,4.44,4.44,0,0,0-.15,1.07c0,.17.07.25.22.25l5.87,0q.33,0,.32-.55a4.69,4.69,0,0,0-.87-2.57A2.6,2.6,0,0,0,507.22,305.1Z"/><path class="cls-2" d="M533.39,303.24a7.36,7.36,0,0,1,4,1.11,7.61,7.61,0,0,1,2.74,2.88,7.73,7.73,0,0,1,1,3.63,8.27,8.27,0,0,1-2.47,6.09,8,8,0,0,1-5.8,2.56,11.32,11.32,0,0,1-2.65-.25,8,8,0,0,0-1.71-.26,2.75,2.75,0,0,0-.94.26,3.67,3.67,0,0,1-.72.26,1.78,1.78,0,0,1-.53-.21q-.42-.21-.42-.36c0-.07,0-.29.07-.65s.1-.88.17-1.56a20.89,20.89,0,0,0,.09-2.21l-.11-14.78a12.63,12.63,0,0,0-.23-2.46q-.19-.58-1.89-.57h-.33q-.22,0-.22-.58c0-.39.07-.58.21-.58q1.12-.12,2.14-.31t1.68-.37q.67-.19,1.16-.37l1-.37h.07a.39.39,0,0,1,.29.2,1,1,0,0,1,.18.38,12.66,12.66,0,0,0-.37,3.41l0,5.8v0c0,.07,0,.13,0,.16a1,1,0,0,0,0,.16c0,.07,0,.11.07.11a.3.3,0,0,0,.13,0,6.59,6.59,0,0,1,1.46-.74A5.21,5.21,0,0,1,533.39,303.24Zm-.78,2a2.81,2.81,0,0,0-2,.7,2.13,2.13,0,0,0-.75,1.64l.06,7.68a2.17,2.17,0,0,0,1,1.91,3.93,3.93,0,0,0,2.27.64,3.08,3.08,0,0,0,2.83-1.72,8.3,8.3,0,0,0,.93-4.14A9.3,9.3,0,0,0,535.8,307,3.55,3.55,0,0,0,532.6,305.2Z"/><path class="cls-2" d="M547.42,303.5q.8,0,2.28-.13t1.85-.12a2.44,2.44,0,0,1,.08.65c0,.34,0,.51-.14.51a4,4,0,0,0-1.14.28q-.78.28-.81.6v.22q.08.58,3.43,8.24.28-.65,1.39-3.58t1.28-3.36a3.41,3.41,0,0,0,.21-1.12,1.14,1.14,0,0,0-.59-.88,3,3,0,0,0-1.74-.4q-.15,0-.15-.54a.92.92,0,0,1,.14-.62q.44,0,1.78.1t2.21.09q.76,0,1.87-.12t1.61-.12a1,1,0,0,1,.15.58c0,.39,0,.58-.14.58a4.58,4.58,0,0,0-1.46.37,2,2,0,0,0-1.24,1.1l-6.51,16.06q-2.21,5.31-5.36,5.33a2,2,0,0,1-1.45-.5,1.69,1.69,0,0,1,.16-2.57q3.77,0,4.94-3,.85-2.18,1-2.47l-5.38-12.28a4.7,4.7,0,0,0-.44-.83,2.18,2.18,0,0,0-1.07-.81,3.39,3.39,0,0,0-1.18-.26c-.1,0-.15-.17-.15-.51s0-.6.1-.65l1.94.09Q546.55,303.51,547.42,303.5Z"/><path class="cls-2" d="M577.71,300.17l0,5.83a.22.22,0,0,0,.06.16.45.45,0,0,0,.13.09h.33q.76,0,1.88-1.25,2.88-3.14,6.33-7.29a2,2,0,0,0,.57-1.09q0-.36-.8-.5a7.78,7.78,0,0,0-1.34-.13q-.15,0-.18-.42a1.87,1.87,0,0,1,0-.67q4,.19,4.39.19.69,0,1.36,0l1.45-.1,1.29-.1a1.54,1.54,0,0,1,.06.62c0,.31-.05.47-.12.47a5.66,5.66,0,0,0-3.65,1.55l-6.68,7.73a.7.7,0,0,0,.08,1l8.55,10a3.69,3.69,0,0,0,1.77,1.15,5.94,5.94,0,0,0,1.61.35q.18,0,.19.69a1.12,1.12,0,0,1-.1.51q-4.35-.19-5-.18-1.16,0-2.77.11l-2.26.14a1,1,0,0,1-.15-.67c0-.35,0-.53.14-.53a2.81,2.81,0,0,0,1-.26q.61-.26.61-.55a6.93,6.93,0,0,0-1-1.51q-1-1.33-2.81-3.4t-3.54-3.87a1.33,1.33,0,0,0-.8-.14q-.58,0-.58.44l0,5.36a13.09,13.09,0,0,0,.35,3.19c0,.17.38.34,1,.52a5.57,5.57,0,0,0,1.25.26c.1,0,.15.23.15.69a1.61,1.61,0,0,1-.07.51l-4.6-.18c-.48,0-1,0-1.52,0l-1.76.1-1.54.1a.71.71,0,0,1-.15-.51q0-.69.14-.69a5.82,5.82,0,0,0,1.36-.26c.62-.17,1-.36,1-.55a12.67,12.67,0,0,0,.27-3l-.1-14a10.91,10.91,0,0,0-.31-3q-.15-.29-1-.55a4.88,4.88,0,0,0-1.31-.26q-.15,0-.15-.54a1.46,1.46,0,0,1,.07-.65l2,.09q1.83.1,2.81.09l4.64-.25a1.86,1.86,0,0,1,.11.58c0,.41,0,.62-.14.62a5.91,5.91,0,0,0-1.3.3c-.65.2-1,.38-1,.55A13.46,13.46,0,0,0,577.71,300.17Z"/><path class="cls-2" d="M604.8,302.72a6.72,6.72,0,0,1,3,.65,5.74,5.74,0,0,1,2.11,1.69,8.4,8.4,0,0,1,1.17,2.13,6.25,6.25,0,0,1,.41,2.12c0,.53-.08.87-.27,1a2.06,2.06,0,0,1-1.1.21l-8.66.06c-.17,0-.25.07-.25.22a7,7,0,0,0,.49,2.53,5,5,0,0,0,1.63,2.13,4.26,4.26,0,0,0,2.74.89,9.86,9.86,0,0,0,1.05-.06,5.44,5.44,0,0,0,.94-.19l.76-.24a3.08,3.08,0,0,0,.67-.33l.49-.31.72-.5a.61.61,0,0,1,.18.22.7.7,0,0,1,.11.36,1.12,1.12,0,0,1-.21.69,5.92,5.92,0,0,1-2.12,2,6.73,6.73,0,0,1-3.58,1,7.33,7.33,0,0,1-5.45-2.3,7.81,7.81,0,0,1-2.32-5.65,8.38,8.38,0,0,1,2.08-6A7,7,0,0,1,604.8,302.72Zm-.24,1.67a2.56,2.56,0,0,0-1.55.52,3.42,3.42,0,0,0-1,1.24,6.91,6.91,0,0,0-.52,1.36,4.42,4.42,0,0,0-.15,1.07c0,.17.07.25.22.25l5.87,0c.22,0,.32-.18.32-.54a4.7,4.7,0,0,0-.87-2.57A2.6,2.6,0,0,0,604.56,304.39Z"/><path class="cls-2" d="M621.16,302.61a4.44,4.44,0,0,1,3.38,1.15q1.13,1.17,1.15,4l.05,7.14a1.65,1.65,0,0,0,.33,1.1,1.09,1.09,0,0,0,.87.37,2.25,2.25,0,0,0,1.23-.48q.22.07.22.4a2.15,2.15,0,0,1-.21,1.09,9,9,0,0,1-1.44.92,3.79,3.79,0,0,1-1.74.48,2.65,2.65,0,0,1-1.63-.6,3,3,0,0,1-1.06-1.33l-.27.24q-.23.2-.65.49a10.93,10.93,0,0,1-.94.59,5.88,5.88,0,0,1-1.23.5,5.28,5.28,0,0,1-1.43.21,4.32,4.32,0,0,1-3-1,3.44,3.44,0,0,1-1.16-2.73,3.35,3.35,0,0,1,.4-1.63,4.34,4.34,0,0,1,1-1.26,7.4,7.4,0,0,1,1.55-1,15.06,15.06,0,0,1,1.68-.72q.71-.24,1.81-.57l1.54-.48A.57.57,0,0,0,622,309v-2a3.11,3.11,0,0,0-.59-2,1.89,1.89,0,0,0-1.56-.71,2.2,2.2,0,0,0-1.7.68,2.71,2.71,0,0,0-.6,1.91,1.18,1.18,0,0,1-.54,1.07,2.25,2.25,0,0,1-1.23.35,2,2,0,0,1-1.89-.86q0-1.74,2.35-3.28A9.09,9.09,0,0,1,621.16,302.61Zm-1.53,13.93a2.81,2.81,0,0,0,1.68-.52,1.43,1.43,0,0,0,.7-1.16l0-3.7q-.25.11-1.07.37t-1.25.44a10,10,0,0,0-1,.51,2.19,2.19,0,0,0-.85.8,2,2,0,0,0-.26,1,2.23,2.23,0,0,0,.59,1.7A2.09,2.09,0,0,0,619.63,316.53Z"/><path class="cls-2" d="M640.91,302.46a3.62,3.62,0,0,1,3,1.17q0,3.08-1.72,3.09a2.15,2.15,0,0,1-1.42-.71,2.27,2.27,0,0,0-1.56-.71,1.94,1.94,0,0,0-1.75,1.15,4.82,4.82,0,0,0-.62,2.38l0,4.53a15.22,15.22,0,0,0,.28,3.26q.07.25,1,.52a5.21,5.21,0,0,0,1.22.26c.07,0,.12.17.13.52a3.79,3.79,0,0,1,0,.71q-.29,0-1.92-.13t-2.46-.09q-.87,0-2.52.13l-1.94.16a1.06,1.06,0,0,1-.15-.69q0-.54.14-.54a5.07,5.07,0,0,0,1.32-.28c.59-.19.91-.36,1-.53a11.85,11.85,0,0,0,.23-2.65l0-5.91a3.45,3.45,0,0,0-.6-2.32,1.74,1.74,0,0,0-.82-.54,4.18,4.18,0,0,0-.87-.21c-.23,0-.34-.06-.34-.11q0-1.05.17-1.09a51.21,51.21,0,0,0,5.83-1.13l.29-.07c.1,0,.18.08.26.25a.86.86,0,0,1,.09.42l-.05.51c0,.23-.05.47-.09.73a4.58,4.58,0,0,0-.05.49,6.67,6.67,0,0,1,1.76-1.77A4,4,0,0,1,640.91,302.46Z"/><path class="cls-2" d="M656.87,302.35a3.62,3.62,0,0,1,3,1.17q0,3.08-1.72,3.09a2.16,2.16,0,0,1-1.42-.71,2.27,2.27,0,0,0-1.56-.71,1.94,1.94,0,0,0-1.75,1.15,4.81,4.81,0,0,0-.62,2.38l0,4.53a15.24,15.24,0,0,0,.28,3.26q.07.25,1,.52a5.11,5.11,0,0,0,1.22.26c.07,0,.12.18.13.52a3.8,3.8,0,0,1,0,.71q-.29,0-1.92-.13T651,318.3q-.87,0-2.52.13l-1.94.16a1.06,1.06,0,0,1-.15-.69c0-.36,0-.54.14-.54a5,5,0,0,0,1.32-.28q.88-.28,1-.53a11.86,11.86,0,0,0,.23-2.65l0-5.91a3.44,3.44,0,0,0-.6-2.31,1.74,1.74,0,0,0-.82-.54,4.06,4.06,0,0,0-.87-.21c-.23,0-.34-.06-.34-.11q0-1.05.17-1.09a50.92,50.92,0,0,0,5.83-1.13l.29-.07c.1,0,.18.08.26.25a.86.86,0,0,1,.09.42l-.05.51c0,.23-.05.47-.08.72a4.53,4.53,0,0,0-.05.49,6.65,6.65,0,0,1,1.76-1.77A4,4,0,0,1,656.87,302.35Z"/><path class="cls-2" d="M669.81,302.25a4.45,4.45,0,0,1,3.38,1.15q1.13,1.17,1.15,4l.05,7.14a1.65,1.65,0,0,0,.33,1.1,1.09,1.09,0,0,0,.87.38,2.26,2.26,0,0,0,1.23-.48q.22.07.22.4a2.15,2.15,0,0,1-.21,1.09,9,9,0,0,1-1.44.92,3.77,3.77,0,0,1-1.74.48,2.65,2.65,0,0,1-1.63-.6,3,3,0,0,1-1.06-1.33l-.27.24q-.23.2-.65.49a10.93,10.93,0,0,1-.94.59,5.88,5.88,0,0,1-1.23.5,5.32,5.32,0,0,1-1.43.21,4.32,4.32,0,0,1-3-1,3.44,3.44,0,0,1-1.16-2.73,3.35,3.35,0,0,1,.4-1.63,4.34,4.34,0,0,1,1-1.26,7.49,7.49,0,0,1,1.55-1,15.09,15.09,0,0,1,1.68-.72q.71-.24,1.81-.57l1.54-.48a.57.57,0,0,0,.32-.58v-2a3.11,3.11,0,0,0-.59-2,1.89,1.89,0,0,0-1.56-.71,2.2,2.2,0,0,0-1.7.68,2.71,2.71,0,0,0-.6,1.91,1.17,1.17,0,0,1-.54,1.07,2.25,2.25,0,0,1-1.23.35,2,2,0,0,1-1.89-.86q0-1.74,2.35-3.28A9.08,9.08,0,0,1,669.81,302.25Zm-1.53,13.93a2.81,2.81,0,0,0,1.68-.52,1.43,1.43,0,0,0,.7-1.16l0-3.7q-.25.11-1.07.37t-1.25.44a10,10,0,0,0-1,.51,2.19,2.19,0,0,0-.85.8,2,2,0,0,0-.26,1,2.23,2.23,0,0,0,.59,1.7A2.09,2.09,0,0,0,668.28,316.18Z"/><path class="cls-2" d="M700,294.14l7.75,18.93q.55,1.44,1.11,2.64a1.76,1.76,0,0,0,1.17.86,4.79,4.79,0,0,0,1.38.32q.14,0,.15.65a1.22,1.22,0,0,1-.07.54l-4.57-.18-4.71.25a1,1,0,0,1-.15-.67q0-.52.14-.53a4.63,4.63,0,0,0,1.19-.23c.51-.15.81-.32.9-.51a1,1,0,0,0,.1-.47,8.34,8.34,0,0,0-.71-2.5l-1.29-3.36a.4.4,0,0,0-.25-.14q-1.16-.06-3.12,0t-4.13.14c-.15,0-.22.05-.22.15l-1.35,3.38a10.28,10.28,0,0,0-.67,2.36.81.81,0,0,0,.4.72,3.6,3.6,0,0,0,1.14.39,6.23,6.23,0,0,0,1.11.17c.07,0,.11.19.11.51a2.37,2.37,0,0,1-.07.69l-1.7-.1q-1.52-.1-2.46-.09t-2.23.11l-1.83.14a.77.77,0,0,1-.15-.54c0-.44,0-.65.07-.65a5.25,5.25,0,0,0,1.39-.32,2.24,2.24,0,0,0,1.21-.71,17.29,17.29,0,0,0,1.36-2.84l6.62-16.35a7.88,7.88,0,0,1,1.32-2.62.92.92,0,0,1,.61-.26A.59.59,0,0,1,700,294.14Zm-4.25,13.51q1.27.1,2.61.09t3-.13l.07-.15-2.81-7.23-2.92,7.27C695.7,307.6,695.73,307.65,695.78,307.65Z"/><path class="cls-2" d="M725.78,301.85a3.92,3.92,0,0,1,2.36.69,4.24,4.24,0,0,1,1.46,1.82,8.53,8.53,0,0,1,2.63-1.83,8.13,8.13,0,0,1,3.4-.75,4.11,4.11,0,0,1,2.23.56,4,4,0,0,1,1.46,1.6,8.53,8.53,0,0,1,.78,2.24,13.78,13.78,0,0,1,.25,2.63l0,3.8a15.23,15.23,0,0,0,.28,3.26c0,.17.38.34,1,.52a5.42,5.42,0,0,0,1.23.26c.07,0,.12.17.13.52a2.05,2.05,0,0,1,0,.71q-.25,0-1.9-.13t-2.48-.09q-.87,0-2.48.13l-1.94.16a1.35,1.35,0,0,1-.11-.69c0-.36,0-.54.1-.54a4.88,4.88,0,0,0,1.3-.28q.87-.28.94-.53a11.26,11.26,0,0,0,.24-2.54l0-3.7q0-5.25-3.41-5.23a3.3,3.3,0,0,0-2,.59,2.26,2.26,0,0,0-.93,1.13c0,.07,0,.17,0,.29a.71.71,0,0,0,0,.29,17.77,17.77,0,0,1,.13,2.25l0,3.84a14.24,14.24,0,0,0,.28,3.11c0,.17.38.34,1,.52a5.43,5.43,0,0,0,1.23.26c.07,0,.12.17.13.52a2,2,0,0,1,0,.71q-.25,0-1.9-.13t-2.48-.09q-.87,0-2.48.13l-1.94.16a1.35,1.35,0,0,1-.11-.69c0-.36,0-.54.1-.54a4.88,4.88,0,0,0,1.3-.28q.87-.28.94-.53a11.89,11.89,0,0,0,.23-2.65l0-3.48a7.68,7.68,0,0,0-.86-4.09,2.76,2.76,0,0,0-2.47-1.25,3.48,3.48,0,0,0-2,.63,1.71,1.71,0,0,0-.9,1.38l0,6.23a13.36,13.36,0,0,0,.31,3.26q.07.25.95.52a5,5,0,0,0,1.2.26c.1,0,.15.17.17.52a2.06,2.06,0,0,1,0,.71q-.29,0-1.9-.13t-2.45-.09q-.91,0-2.54.13l-1.92.16a1.06,1.06,0,0,1-.15-.69c0-.36,0-.54.14-.54a5.28,5.28,0,0,0,1.3-.28c.6-.19.93-.36,1-.53a11.86,11.86,0,0,0,.23-2.65l0-5.91a3.44,3.44,0,0,0-.6-2.31,1.74,1.74,0,0,0-.82-.54,4.08,4.08,0,0,0-.89-.21c-.24,0-.36-.06-.36-.11,0-.7.06-1.06.21-1.09a49.77,49.77,0,0,0,5.79-1.13.23.23,0,0,1,.11-.05l.18,0c.12,0,.22.08.29.25a.67.67,0,0,1,.08.4,12.33,12.33,0,0,0-.14,1.31c0,.1,0,.16.07.18a.52.52,0,0,0,.18-.11,8,8,0,0,1,2.22-1.54A6.34,6.34,0,0,1,725.78,301.85Z"/><path class="cls-2" d="M752.5,301.66a4.45,4.45,0,0,1,3.38,1.15q1.13,1.17,1.15,4l.05,7.14a1.65,1.65,0,0,0,.33,1.1,1.09,1.09,0,0,0,.87.37,2.25,2.25,0,0,0,1.23-.48q.22.07.22.4a2.15,2.15,0,0,1-.21,1.09,9,9,0,0,1-1.44.92,3.77,3.77,0,0,1-1.74.48,2.65,2.65,0,0,1-1.63-.6,3,3,0,0,1-1.06-1.33l-.27.24q-.23.2-.65.49a10.93,10.93,0,0,1-.94.59,5.88,5.88,0,0,1-1.23.5,5.28,5.28,0,0,1-1.43.21,4.32,4.32,0,0,1-3-1,3.44,3.44,0,0,1-1.16-2.73,3.35,3.35,0,0,1,.4-1.63,4.34,4.34,0,0,1,1-1.26,7.45,7.45,0,0,1,1.55-1,15.06,15.06,0,0,1,1.68-.72q.71-.24,1.81-.57l1.54-.48a.57.57,0,0,0,.32-.58v-2a3.11,3.11,0,0,0-.59-2,1.89,1.89,0,0,0-1.56-.71,2.2,2.2,0,0,0-1.7.68,2.71,2.71,0,0,0-.6,1.91,1.18,1.18,0,0,1-.54,1.07,2.25,2.25,0,0,1-1.23.35,2,2,0,0,1-1.89-.86q0-1.74,2.35-3.28A9.09,9.09,0,0,1,752.5,301.66ZM751,315.58a2.81,2.81,0,0,0,1.68-.52,1.43,1.43,0,0,0,.7-1.16l0-3.7q-.25.11-1.07.37T751,311a10,10,0,0,0-1,.51,2.19,2.19,0,0,0-.85.8,2,2,0,0,0-.26,1,2.23,2.23,0,0,0,.59,1.7A2.09,2.09,0,0,0,751,315.58Z"/><path class="cls-2" d="M765.52,301.92q.8,0,2.28-.13t1.85-.12a2.45,2.45,0,0,1,.08.65c0,.34,0,.51-.14.51a4,4,0,0,0-1.14.28q-.78.28-.81.6v.22q.08.58,3.43,8.24.28-.65,1.39-3.58t1.28-3.36a3.4,3.4,0,0,0,.21-1.12,1.14,1.14,0,0,0-.59-.88,3,3,0,0,0-1.74-.4q-.15,0-.15-.54a.92.92,0,0,1,.14-.62q.44,0,1.78.1t2.21.09q.76,0,1.87-.12t1.61-.12a1,1,0,0,1,.15.58c0,.39,0,.58-.14.58a4.58,4.58,0,0,0-1.46.37,2,2,0,0,0-1.24,1.1l-6.52,16.06q-2.21,5.31-5.36,5.33a2,2,0,0,1-1.45-.5,1.69,1.69,0,0,1,.16-2.57q3.77,0,4.94-3,.85-2.18,1-2.47l-5.38-12.28a4.7,4.7,0,0,0-.44-.83,2.18,2.18,0,0,0-1.07-.81,3.42,3.42,0,0,0-1.18-.26c-.1,0-.15-.17-.15-.5s0-.6.1-.65l1.94.09Q764.65,301.93,765.52,301.92Z"/><path class="cls-2" d="M788.61,301.39a4.45,4.45,0,0,1,3.38,1.15q1.13,1.17,1.15,4l.05,7.14a1.65,1.65,0,0,0,.33,1.1,1.09,1.09,0,0,0,.87.38,2.26,2.26,0,0,0,1.23-.48c.15,0,.22.18.22.4a2.16,2.16,0,0,1-.21,1.09,9,9,0,0,1-1.44.92,3.77,3.77,0,0,1-1.74.48,2.65,2.65,0,0,1-1.63-.6,3,3,0,0,1-1.06-1.33l-.27.24q-.23.2-.65.49a10.93,10.93,0,0,1-.94.59,5.77,5.77,0,0,1-1.23.5,5.28,5.28,0,0,1-1.43.21,4.32,4.32,0,0,1-3-1,3.44,3.44,0,0,1-1.16-2.73,3.35,3.35,0,0,1,.4-1.63,4.33,4.33,0,0,1,1-1.26,7.44,7.44,0,0,1,1.55-1,14.85,14.85,0,0,1,1.68-.72q.71-.24,1.81-.58l1.54-.48a.57.57,0,0,0,.32-.58v-2a3.11,3.11,0,0,0-.59-2,1.89,1.89,0,0,0-1.56-.71,2.2,2.2,0,0,0-1.7.68,2.71,2.71,0,0,0-.6,1.91,1.17,1.17,0,0,1-.54,1.07,2.25,2.25,0,0,1-1.23.35,2,2,0,0,1-1.89-.86q0-1.74,2.35-3.28A9.09,9.09,0,0,1,788.61,301.39Zm-1.53,13.93a2.81,2.81,0,0,0,1.68-.52,1.43,1.43,0,0,0,.7-1.17l0-3.7q-.25.11-1.07.37t-1.25.44a10.18,10.18,0,0,0-1,.51,2.19,2.19,0,0,0-.85.8,2,2,0,0,0-.26,1,2.23,2.23,0,0,0,.59,1.7A2.09,2.09,0,0,0,787.08,315.32Z"/><path class="cls-2" d="M805.65,305.62a12.4,12.4,0,0,1,3.42-8.83,11.17,11.17,0,0,1,8.42-3.76,35.67,35.67,0,0,1,8.42,1.28,11.15,11.15,0,0,1,.33,2.41q.22,2.37.22,2.81t-.72.44a1.31,1.31,0,0,1-.8-.21,6.57,6.57,0,0,0-.32-1,7.22,7.22,0,0,0-.73-1.28,5.3,5.3,0,0,0-1.28-1.31,7.22,7.22,0,0,0-2-.95,9.45,9.45,0,0,0-2.92-.4,6.41,6.41,0,0,0-5.52,2.87,12.29,12.29,0,0,0-1.94,7.26,13.9,13.9,0,0,0,1,5,9.88,9.88,0,0,0,3,4.07,8,8,0,0,0,8.18.94,1,1,0,0,0,.36-.84l-.06-2.61v-.25a11,11,0,0,0-.27-2.93q-.15-.47-1.07-.68a7,7,0,0,0-1.54-.21c-.1,0-.15-.17-.15-.52a1,1,0,0,1,.14-.67q.4,0,2.19.09t2.88.09l4.38-.25a1.93,1.93,0,0,1,.11.62c0,.41,0,.62-.14.62a4.59,4.59,0,0,0-1,.22,9.36,9.36,0,0,0-1.07.37q-.47.29-.45,2.65,0,.76,0,1.52c0,.51,0,.79,0,.83a3.12,3.12,0,0,0,.19,1.12,3.13,3.13,0,0,1,.19.54c0,.34-.26.63-.79.87q-1.44.67-2.13.92a19.18,19.18,0,0,1-2.62.64,23.56,23.56,0,0,1-4.29.39,10.78,10.78,0,0,1-8.16-3.49A11.84,11.84,0,0,1,805.65,305.62Z"/><path class="cls-2" d="M839.69,301a8,8,0,0,1,5.83,2.33,7.76,7.76,0,0,1,2.45,5.73,8.21,8.21,0,0,1-16.41.12,7.81,7.81,0,0,1,2.33-5.78A7.94,7.94,0,0,1,839.69,301Zm-.46,1.71a2.92,2.92,0,0,0-2.63,1.67,7.79,7.79,0,0,0-.91,3.94,10.58,10.58,0,0,0,1.21,5.1,3.61,3.61,0,0,0,3.3,2.15,3,3,0,0,0,2.65-1.69,7.71,7.71,0,0,0,.93-3.92,12.45,12.45,0,0,0-.5-3.49,6.4,6.4,0,0,0-1.54-2.69A3.36,3.36,0,0,0,839.23,302.73Z"/><path class="cls-2" d="M860.14,300.91a7.33,7.33,0,0,1,4.14,1.17,7.59,7.59,0,0,1,3.6,6.42,8.48,8.48,0,0,1-8.45,8.69,8.44,8.44,0,0,1-2.58-.49q-.15,0-.14.51l0,2.46a13,13,0,0,0,.31,3.26c0,.19.35.38,1,.56a5.57,5.57,0,0,0,1.25.26c.07,0,.12.17.13.52a3.26,3.26,0,0,1,0,.67l-1.94-.09q-1.69-.1-2.48-.09t-2.55.13q-1.65.12-1.94.12a1.3,1.3,0,0,1-.11-.67c0-.35,0-.52.1-.52a5.12,5.12,0,0,0,1.32-.28q.88-.28,1-.57a13.22,13.22,0,0,0,.2-2.61l-.1-13.84a3.52,3.52,0,0,0-.6-2.35,1.64,1.64,0,0,0-.8-.52,4.46,4.46,0,0,0-.87-.19c-.24,0-.36-.06-.36-.11q0-1.05.21-1.09a27.88,27.88,0,0,0,5.39-1.05l.69-.19q.14,0,.15.76a2,2,0,0,1-.07.44,7.25,7.25,0,0,1,1.61-.86A5.18,5.18,0,0,1,860.14,300.91Zm-.86,1.93a2.75,2.75,0,0,0-1.93.7,2.4,2.4,0,0,0-.73,1.85l.05,7.46a2.23,2.23,0,0,0,1,1.9,3.52,3.52,0,0,0,2.11.69,3.41,3.41,0,0,0,2.8-1.54,7,7,0,0,0,1.11-4.28,9.37,9.37,0,0,0-1.19-4.87A3.56,3.56,0,0,0,859.28,302.84Z"/><path class="cls-2" d="M877.61,300.75a6.73,6.73,0,0,1,3,.65,5.74,5.74,0,0,1,2.11,1.69,8.42,8.42,0,0,1,1.17,2.13,6.25,6.25,0,0,1,.41,2.12c0,.53-.08.87-.27,1a2.05,2.05,0,0,1-1.1.21l-8.66.06c-.17,0-.25.08-.25.22a7,7,0,0,0,.49,2.53,5,5,0,0,0,1.63,2.13,4.26,4.26,0,0,0,2.74.89,9.61,9.61,0,0,0,1.05-.06,5.35,5.35,0,0,0,.94-.19l.76-.24a3.08,3.08,0,0,0,.67-.33l.49-.31.72-.5a.62.62,0,0,1,.18.22.71.71,0,0,1,.11.36,1.12,1.12,0,0,1-.21.69,5.91,5.91,0,0,1-2.12,2,6.71,6.71,0,0,1-3.58,1,7.34,7.34,0,0,1-5.45-2.3,7.81,7.81,0,0,1-2.32-5.65,8.39,8.39,0,0,1,2.08-6A7,7,0,0,1,877.61,300.75Zm-.24,1.67a2.56,2.56,0,0,0-1.55.52,3.42,3.42,0,0,0-1,1.24,6.91,6.91,0,0,0-.52,1.36,4.44,4.44,0,0,0-.15,1.07q0,.25.22.25l5.87,0q.33,0,.32-.54a4.7,4.7,0,0,0-.87-2.57A2.6,2.6,0,0,0,877.37,302.42Z"/><path class="cls-2" d="M893.78,300.63a6.72,6.72,0,0,1,3,.65,5.73,5.73,0,0,1,2.11,1.69,8.42,8.42,0,0,1,1.17,2.13,6.25,6.25,0,0,1,.41,2.12c0,.53-.08.87-.27,1a2.06,2.06,0,0,1-1.1.21l-8.66.06c-.17,0-.25.08-.25.22a7,7,0,0,0,.49,2.53,5,5,0,0,0,1.63,2.13,4.26,4.26,0,0,0,2.74.89,9.61,9.61,0,0,0,1.05-.06,5.35,5.35,0,0,0,.94-.19l.76-.24a3.17,3.17,0,0,0,.67-.33l.49-.31.72-.49a.6.6,0,0,1,.18.22.71.71,0,0,1,.11.36,1.12,1.12,0,0,1-.21.69,5.91,5.91,0,0,1-2.12,2,6.71,6.71,0,0,1-3.58,1,7.34,7.34,0,0,1-5.45-2.3,7.81,7.81,0,0,1-2.32-5.65,8.39,8.39,0,0,1,2.08-6A7,7,0,0,1,893.78,300.63Zm-.24,1.67a2.56,2.56,0,0,0-1.55.52,3.41,3.41,0,0,0-1,1.24,6.91,6.91,0,0,0-.52,1.36,4.44,4.44,0,0,0-.15,1.07q0,.25.22.25l5.87,0q.33,0,.32-.54a4.7,4.7,0,0,0-.87-2.57A2.6,2.6,0,0,0,893.54,302.3Z"/></svg>