<svg id="Layer_1" data-name="Layer 1" xmlns="http://www.w3.org/2000/svg" viewBox="0 0 607.87 104.09"><defs><style>.cls-1{fill:#1928eb;}</style></defs><title>subtitle</title><path class="cls-1" d="M0,27.8a4.68,4.68,0,0,1,1.62-3.87,6.5,6.5,0,0,1,4.11-1.8,10.47,10.47,0,0,1,1.46,0q.63,0,1.76.26l1.55.27a26.43,26.43,0,0,1,.66,4.54.32.32,0,0,1-.34.29q-.8.05-.88-.21a5.23,5.23,0,0,0-1.45-2.59,3.38,3.38,0,0,0-2.75-1.13,2.74,2.74,0,0,0-2,.91,2.91,2.91,0,0,0-.59,2.12,3.36,3.36,0,0,0,.16.84,2.09,2.09,0,0,0,.47.76l.55.6a3.54,3.54,0,0,0,.78.59l.78.49q.2.14.93.52a8.91,8.91,0,0,0,.88.43,10.79,10.79,0,0,0,1,.57q.85.44,1.19.64c.23.13.56.37,1,.69a4.3,4.3,0,0,1,1,.95,6.14,6.14,0,0,1,.6,1.17,5,5,0,0,1,.34,1.54,4.83,4.83,0,0,1-1.66,4A6.88,6.88,0,0,1,6.8,42.26a27.67,27.67,0,0,1-5.51-.47,25.43,25.43,0,0,1-.67-2.65A20.12,20.12,0,0,1,.26,37q0-.24.46-.27.77-.05.88.18a5.82,5.82,0,0,0,.49,1.14A8.67,8.67,0,0,0,3,39.39a3.92,3.92,0,0,0,1.47,1.1,4.18,4.18,0,0,0,2,.33,3.33,3.33,0,0,0,2.26-1,3.2,3.2,0,0,0,.76-2.55,2.58,2.58,0,0,0-.26-1,3.44,3.44,0,0,0-.5-.77,4.37,4.37,0,0,0-.79-.66q-.52-.35-.85-.54l-1-.52-.94-.46a2,2,0,0,0-.34-.22L3.44,32.4q-.46-.27-1.2-.8a5.88,5.88,0,0,1-1.12-1,5.63,5.63,0,0,1-.72-1.2A4.48,4.48,0,0,1,0,27.8Z"/><path class="cls-1" d="M22.24,27.81a6,6,0,0,1,3.45.76,6.23,6.23,0,0,1,3.25,5.09,7,7,0,0,1-6.51,7.52,6.91,6.91,0,0,1-2.13-.28q-.12,0-.09.42l.13,2A10.69,10.69,0,0,0,20.75,46q0,.23.82.41a4.55,4.55,0,0,0,1,.16c.06,0,.1.14.13.42a2.66,2.66,0,0,1,0,.55l-1.59,0q-1.39,0-2,0T17,47.81L15.46,48a1.07,1.07,0,0,1-.12-.54c0-.29,0-.43.06-.44a4.16,4.16,0,0,0,1.07-.29q.71-.27.79-.51a10.81,10.81,0,0,0,0-2.15l-.74-11.33a2.89,2.89,0,0,0-.6-1.9,1.33,1.33,0,0,0-.68-.39,3.57,3.57,0,0,0-.72-.12q-.3,0-.3-.07-.06-.86.12-.9a22.87,22.87,0,0,0,4.37-1.12l.55-.19q.12,0,.16.61a1.69,1.69,0,0,1,0,.36,5.94,5.94,0,0,1,1.27-.78A4.27,4.27,0,0,1,22.24,27.81Zm-.61,1.62a2.25,2.25,0,0,0-1.55.67,2,2,0,0,0-.51,1.55l.4,6.11a1.83,1.83,0,0,0,.9,1.5,2.89,2.89,0,0,0,1.76.47,2.8,2.8,0,0,0,2.22-1.4,5.75,5.75,0,0,0,.71-3.56,7.69,7.69,0,0,0-1.21-3.93A2.93,2.93,0,0,0,21.63,29.43Z"/><path class="cls-1" d="M36.55,26.84a5.52,5.52,0,0,1,2.53.39,4.71,4.71,0,0,1,1.81,1.28A6.93,6.93,0,0,1,42,30.2a5.12,5.12,0,0,1,.44,1.71q0,.65-.17.83a1.69,1.69,0,0,1-.89.22l-7.09.46c-.14,0-.2.07-.2.19a5.77,5.77,0,0,0,.52,2.05A4.09,4.09,0,0,0,36,37.33a3.5,3.5,0,0,0,2.29.59,8,8,0,0,0,.86-.1,4.42,4.42,0,0,0,.76-.2l.61-.23a2.54,2.54,0,0,0,.53-.3l.38-.28.57-.44a.5.5,0,0,1,.16.17.57.57,0,0,1,.11.29.9.9,0,0,1-.14.58,4.84,4.84,0,0,1-1.64,1.72,5.52,5.52,0,0,1-2.88,1A6,6,0,0,1,33,38.5,6.41,6.41,0,0,1,30.85,34a6.88,6.88,0,0,1,1.42-5A5.76,5.76,0,0,1,36.55,26.84Zm-.12,1.38a2.1,2.1,0,0,0-1.25.5,2.8,2.8,0,0,0-.79,1.06A5.7,5.7,0,0,0,34,30.92a3.63,3.63,0,0,0-.08.88c0,.14.07.2.19.2l4.81-.31q.27,0,.24-.46a3.86,3.86,0,0,0-.83-2.06A2.13,2.13,0,0,0,36.43,28.22Z"/><path class="cls-1" d="M49.93,26a3.65,3.65,0,0,1,2.82.78A4.75,4.75,0,0,1,53.89,30l.38,5.84a1.36,1.36,0,0,0,.33.89.89.89,0,0,0,.73.26,1.86,1.86,0,0,0,1-.45q.18,0,.2.31a1.77,1.77,0,0,1-.12.9,7.29,7.29,0,0,1-1.14.82,3.1,3.1,0,0,1-1.4.48,2.17,2.17,0,0,1-1.37-.42,2.44,2.44,0,0,1-.93-1l-.21.21q-.18.18-.51.44a8.92,8.92,0,0,1-.74.53,4.73,4.73,0,0,1-1,.47,4.32,4.32,0,0,1-1.16.24,3.55,3.55,0,0,1-2.47-.66,2.83,2.83,0,0,1-1.08-2.18,2.75,2.75,0,0,1,.25-1.36,3.55,3.55,0,0,1,.75-1.08,6.07,6.07,0,0,1,1.22-.87A12.33,12.33,0,0,1,48,32.66l1.45-.56,1.23-.47a.47.47,0,0,0,.24-.49l-.11-1.63a2.55,2.55,0,0,0-.58-1.6,1.55,1.55,0,0,0-1.31-.51,1.8,1.8,0,0,0-1.36.64,2.22,2.22,0,0,0-.4,1.59,1,1,0,0,1-.39.9,1.85,1.85,0,0,1-1,.35,1.68,1.68,0,0,1-1.59-.61q-.09-1.42,1.77-2.8A7.46,7.46,0,0,1,49.93,26Zm-.59,11.48a2.31,2.31,0,0,0,1.35-.51,1.17,1.17,0,0,0,.52-1l-.2-3c-.13.07-.42.19-.86.35s-.77.31-1,.42a8,8,0,0,0-.8.47,1.79,1.79,0,0,0-.65.7,1.64,1.64,0,0,0-.17.85,1.83,1.83,0,0,0,.57,1.36A1.71,1.71,0,0,0,49.34,37.44Z"/><path class="cls-1" d="M69.95,26.65q-.57.4-1.8,1.46a21,21,0,0,0-2.22,2.23q.92.86,2.32,2.26t2.32,2.29A14.31,14.31,0,0,0,71.84,36a3.74,3.74,0,0,0,1.18.52,3.62,3.62,0,0,0,1,.17q.12,0,.15.5a1.71,1.71,0,0,1,0,.42l-3.48.08-1.14.1L68.29,38l-1.11.15A.81.81,0,0,1,67,37.6c0-.28,0-.42.09-.42a2.12,2.12,0,0,0,.67-.18q.38-.16.37-.31s0-.06,0-.06l-4.65-4.55-.35.11L63.25,34a12.27,12.27,0,0,0,.41,2.65q.07.2.83.38a4.35,4.35,0,0,0,1.05.15c.06,0,.1.14.13.42a1.67,1.67,0,0,1,0,.58l-1.58,0q-1.37,0-2.05,0T60,38.48l-1.58.22a.87.87,0,0,1-.15-.56q0-.44.09-.45a4.15,4.15,0,0,0,1.07-.29q.71-.27.76-.48a9.7,9.7,0,0,0,.07-2.18l-.81-12.31a11.67,11.67,0,0,0-.28-2Q59,20,57.57,20l-.27,0q-.18,0-.21-.46c0-.32,0-.48.15-.49q.91-.15,1.73-.35t1.36-.39q.54-.18.93-.36l.83-.35h.06a.32.32,0,0,1,.25.15.82.82,0,0,1,.17.3,9.59,9.59,0,0,0-.17,2.81L63,30.83a2.68,2.68,0,0,0,.87-.38q.59-.6,1.27-1.26l1-.94q.31-.29.61-.62a2.61,2.61,0,0,0,.4-.52.7.7,0,0,0,.08-.36q0-.33-.69-.36a2.94,2.94,0,0,1-.67-.06,1.33,1.33,0,0,1-.12-.51c0-.21,0-.32.1-.35l2.88-.19q.8-.05,3.14-.32a.47.47,0,0,1,.17.32,1.35,1.35,0,0,1,0,.45c0,.14-.06.21-.12.22A3.9,3.9,0,0,0,69.95,26.65Z"/><path class="cls-1" d="M81.26,32.85a11,11,0,0,0,.41,2.65q.07.2.83.38a4.38,4.38,0,0,0,1,.16c.08,0,.13.14.16.42a1.67,1.67,0,0,1,0,.58l-1.59,0q-1.39,0-2,0T78,37.3l-1.55.22a.86.86,0,0,1-.16-.56q0-.44.09-.45a4.31,4.31,0,0,0,1.05-.29q.73-.27.77-.48a9.7,9.7,0,0,0,.07-2.18l-.32-4.84a2.83,2.83,0,0,0-.6-1.87,1.64,1.64,0,0,0-.71-.4,3.15,3.15,0,0,0-.72-.13c-.2,0-.3,0-.3-.07,0-.57,0-.87.12-.9a22.86,22.86,0,0,0,2.38-.51,23.38,23.38,0,0,0,2.31-.69l.23-.07c.1,0,.18.06.25.19a.55.55,0,0,1,.08.32,25.67,25.67,0,0,0-.07,2.57Zm-3.9-12.21a1.81,1.81,0,0,1-.62-1.27,1.84,1.84,0,0,1,3.68-.24A1.81,1.81,0,0,1,80,20.47a1.83,1.83,0,0,1-2.61.17Z"/><path class="cls-1" d="M94.3,23.06q3.83-.25,4.23,5.83l.18,2.82a12.48,12.48,0,0,0,.38,2.66q.07.2.84.38a4.55,4.55,0,0,0,1,.16c.06,0,.1.14.13.42a1.67,1.67,0,0,1,0,.58q-.18,0-1.57,0t-2.07,0q-.71,0-2,.22L94,36.37a.87.87,0,0,1-.16-.56q0-.44.09-.45a3.53,3.53,0,0,0,1-.29q.65-.27.7-.48a8.54,8.54,0,0,0,.1-2.18l-.18-2.82a6.46,6.46,0,0,0-.89-3.4,2.39,2.39,0,0,0-2.19-.84A2.76,2.76,0,0,0,90.8,26a1.43,1.43,0,0,0-.64,1.16l.33,5.1a12.4,12.4,0,0,0,.38,2.66q.07.2.81.38a4.29,4.29,0,0,0,1,.16c.08,0,.13.14.16.42a1.72,1.72,0,0,1,0,.58l-1.57,0q-1.33,0-2,0t-2.06.22l-1.58.22a.88.88,0,0,1-.16-.56c0-.3,0-.45.09-.45a4.15,4.15,0,0,0,1.07-.29q.71-.27.76-.48A9.69,9.69,0,0,0,87.44,33l-.32-4.84a2.83,2.83,0,0,0-.6-1.87,1.43,1.43,0,0,0-.7-.4,3.4,3.4,0,0,0-.72-.13q-.28,0-.29-.07c0-.57,0-.87.09-.9a42.14,42.14,0,0,0,4.72-1.2l.07,0,.09,0h.07c.08,0,.15.06.22.19a.92.92,0,0,1,.11.32,10,10,0,0,0,0,1.08c0,.08,0,.13,0,.15a.44.44,0,0,0,.14-.1,6.59,6.59,0,0,1,1.74-1.37A5.21,5.21,0,0,1,94.3,23.06Z"/><path class="cls-1" d="M107.9,22.23a9.42,9.42,0,0,1,2.49.22,9.16,9.16,0,0,0,2.4.23l1.69-.11s.12.12.23.37a1.8,1.8,0,0,1,.19.58q0,.42-.15.43l-1.93.13c-.08,0-.12,0-.11.1s.11.27.32.75a4.21,4.21,0,0,1,.36,1.41,4.3,4.3,0,0,1-1.26,3.26,5.09,5.09,0,0,1-3.57,1.65,12.22,12.22,0,0,1-1.85,0,1.61,1.61,0,0,0-.62.59,1.26,1.26,0,0,0-.25.75.61.61,0,0,0,.31.49,2,2,0,0,0,.9.24q.6.05,1,.05l1.19,0,.45,0a10.5,10.5,0,0,1,4.4.53,2.34,2.34,0,0,1,1.52,2.09,4.67,4.67,0,0,1-1.88,4,8.13,8.13,0,0,1-4.91,2,7.73,7.73,0,0,1-3.84-.58A2.67,2.67,0,0,1,103.22,39a2.31,2.31,0,0,1,.74-1.72A4.92,4.92,0,0,1,105.71,36a3.4,3.4,0,0,1-1.48-.81,2.16,2.16,0,0,1-.75-1.51q-.08-1.28,2-2.78a3.94,3.94,0,0,1-1.7-1.42,4.38,4.38,0,0,1-.9-2.37,4,4,0,0,1,1.33-3.42A5.91,5.91,0,0,1,107.9,22.23ZM113,37.48q-.07-1-1.59-1.28a18.88,18.88,0,0,0-4-.08l-.15,0-.14.1c-.25.11-.44.21-.58.29a2.5,2.5,0,0,0-.45.36,1.43,1.43,0,0,0-.37.55,1.72,1.72,0,0,0-.09.72,2.08,2.08,0,0,0,1.24,1.71,4.63,4.63,0,0,0,2.57.55,4.49,4.49,0,0,0,2.66-.95A2.32,2.32,0,0,0,113,37.48Zm-7.08-10.8a4.7,4.7,0,0,0,.75,2.41,1.85,1.85,0,0,0,1.73.89A1.77,1.77,0,0,0,110,29a4,4,0,0,0,.38-2.13,4.9,4.9,0,0,0-.76-2.51,1.9,1.9,0,0,0-1.79-.87,1.68,1.68,0,0,0-1.51,1A4.31,4.31,0,0,0,105.93,26.68Z"/><path class="cls-1" d="M141.94,22.21a.86.86,0,0,0-.28-.59,1.3,1.3,0,0,0-.63-.32,5.37,5.37,0,0,0-.69-.1,4.33,4.33,0,0,0-.61,0h-.12c-.08,0-.13-.14-.16-.44s0-.48,0-.54q.38,0,1.58,0t1.9,0q.62,0,1.58-.19c.64-.1,1.11-.16,1.4-.18a2,2,0,0,1,.09.5c0,.3,0,.45-.09.45a3.38,3.38,0,0,0-1.15.45,1.82,1.82,0,0,0-1,1l-3.7,10.76a1.16,1.16,0,0,1-.37.46,1,1,0,0,1-.57.23.37.37,0,0,1-.4-.18l-4.16-8-2.67,8a1.58,1.58,0,0,1-.31.44.9.9,0,0,1-.62.28.44.44,0,0,1-.43-.18q-.78-1.5-1.86-3.65t-2-3.79q-.88-1.64-2-3.56a1.37,1.37,0,0,0-.81-.54,2.87,2.87,0,0,0-1-.15c-.08,0-.13-.15-.15-.47s0-.45.09-.51.7,0,1.5,0,1.43,0,1.89,0,1.13-.1,2-.22l1.54-.19a1.64,1.64,0,0,1,.09.53c0,.26,0,.4-.06.42a3.51,3.51,0,0,0-1,.27q-.62.25-.6.66s1.14,2.25,3.41,6.63q.27-.85.63-1.93l.55-1.64.37-1.14c.12-.39.21-.67.26-.87a1.63,1.63,0,0,0,.06-.38,2.17,2.17,0,0,0-.46-1.16,1.41,1.41,0,0,0-.68-.43,2.37,2.37,0,0,0-1.08-.11q-.12,0-.15-.42c0-.29,0-.46.08-.53s.71,0,1.47,0,1.38,0,1.86,0,1.08-.1,1.92-.22l1.51-.19a1.44,1.44,0,0,1,.08.55c0,.29,0,.43-.08.44q-1.51.1-1.45,1.14a47.61,47.61,0,0,0,3.22,6.4q.39-1.28,1-3t.86-2.56A4,4,0,0,0,141.94,22.21Z"/><path class="cls-1" d="M153.53,28.12a11,11,0,0,0,.41,2.65c0,.14.33.26.83.38a4.38,4.38,0,0,0,1,.16c.08,0,.13.14.16.42a1.69,1.69,0,0,1,0,.58l-1.59,0q-1.39,0-2,0t-2.09.23l-1.55.22a.88.88,0,0,1-.16-.56c0-.3,0-.45.09-.45a4.3,4.3,0,0,0,1.05-.29q.73-.27.77-.48a9.64,9.64,0,0,0,.07-2.18L150.19,24a2.83,2.83,0,0,0-.6-1.87,1.65,1.65,0,0,0-.71-.4,3.14,3.14,0,0,0-.72-.13c-.2,0-.3,0-.3-.07,0-.57,0-.87.12-.9a22.86,22.86,0,0,0,2.38-.51,23.27,23.27,0,0,0,2.31-.69l.23-.07c.1,0,.18.06.25.19a.55.55,0,0,1,.08.32,25.67,25.67,0,0,0-.07,2.57Zm-3.9-12.21a1.81,1.81,0,0,1-.62-1.27,1.83,1.83,0,0,1,1.72-1.94,1.83,1.83,0,0,1,2,1.7,1.81,1.81,0,0,1-.45,1.34,1.83,1.83,0,0,1-2.61.17Z"/><path class="cls-1" d="M158.73,20.93l-1.81.12c-.14,0-.22-.24-.26-.76a.73.73,0,0,1,0-.27,8.32,8.32,0,0,0,2.18-1.72c.24-.27.5-.58.79-.93s.62-.79,1-1.33a2.11,2.11,0,0,1,.57,0c.18,0,.27.09.28.15l.19,2.91,2.15-.13,1.47-.08c.16,0,.24.07.26.25a2.88,2.88,0,0,1-.21,1.32l-3.56.23.47,7.15a2.82,2.82,0,0,0,.62,1.78,1.69,1.69,0,0,0,1.43.53,2.81,2.81,0,0,0,.62-.12,3.15,3.15,0,0,0,.52-.2l.38-.2.2-.1c.08,0,.17.06.28.25s.16.32.14.38c-.1.29-.5.63-1.2,1a4.69,4.69,0,0,1-2.08.69,3.75,3.75,0,0,1-2.69-.82,4,4,0,0,1-1.28-3Z"/><path class="cls-1" d="M177.26,17.63q3.8-.25,4.18,5.6l.2,3.06a10.92,10.92,0,0,0,.41,2.65q0,.21.81.38a4.57,4.57,0,0,0,1,.16c.06,0,.1.14.13.42a3.17,3.17,0,0,1,0,.58l-1.6,0q-1.38,0-2,0t-2,.22l-1.55.22a1.1,1.1,0,0,1-.13-.56c0-.3,0-.45.06-.45a3.55,3.55,0,0,0,1-.29c.44-.18.68-.34.73-.48a11.24,11.24,0,0,0,0-2.18l-.19-2.91a6.21,6.21,0,0,0-.89-3.35,2.43,2.43,0,0,0-2.18-.8,2.85,2.85,0,0,0-1.6.61,1.4,1.4,0,0,0-.67,1.18l.33,5.1a10.92,10.92,0,0,0,.41,2.65q.07.2.81.38a4.22,4.22,0,0,0,1,.16c.06,0,.1.14.13.42a1.69,1.69,0,0,1,0,.58l-1.56,0q-1.33,0-2,0t-2.06.22l-1.58.22a.86.86,0,0,1-.16-.56c0-.3,0-.45.09-.45a4.17,4.17,0,0,0,1.07-.29c.47-.18.73-.34.76-.48a9.53,9.53,0,0,0,.07-2.15l-.81-12.34a11.76,11.76,0,0,0-.28-2q-.18-.46-1.57-.37l-.27,0c-.12,0-.19-.15-.21-.46s0-.48.15-.49q.91-.15,1.74-.35t1.36-.39q.54-.18.93-.36l.83-.35h.06a.32.32,0,0,1,.25.15.84.84,0,0,1,.17.3,9.52,9.52,0,0,0-.17,2.81l.39,6c0,.12.05.18.13.17s.06,0,.11-.1a5.66,5.66,0,0,1,1.74-1.41A5.48,5.48,0,0,1,177.26,17.63Z"/><path class="cls-1" d="M195.58,10.06l2.89-.37q.32.81,1.42,3T202.58,18q1.59,3.13,2.56,5.15s0,.06.09.05a.08.08,0,0,0,.08-.09q2.2-6.43,3.48-10.57L209.63,9q.9,0,2.44-.07,1.16-.08,3.52-.38a.86.86,0,0,1,.12.47q0,.5-.08.51h-.06a2.42,2.42,0,0,0-1.42.57q-.42.36-.28,1.63.29,2.63,1.22,12.22a7.84,7.84,0,0,0,.65,2.7q.14.26.86.44a4,4,0,0,0,1,.16q.12,0,.15.53a1.44,1.44,0,0,1,0,.45l-3.66.06-1.24.11-1.43.17-1.26.16a.63.63,0,0,1-.15-.44c0-.36,0-.54.08-.54a3.52,3.52,0,0,0,.94-.25,1.86,1.86,0,0,0,.8-.48,1.67,1.67,0,0,0,.23-1.06l-.11-1.66-.89-9q-.24-1.83-.48-1.82c-.06,0-.11.07-.14.19l-4.76,14.19q-.43,1.16-1.05,1.2a1,1,0,0,1-.3,0L196.64,13.5q.28,7.4.39,13.26a3.25,3.25,0,0,0,.15.91q.17.32,1.23.55a6.44,6.44,0,0,0,1.41.2q.12,0,.15.53a1.44,1.44,0,0,1,0,.45l-3.75.07q-.8.05-2.12.23t-1.61.2a.69.69,0,0,1-.15-.47c0-.34,0-.51.08-.51a5.93,5.93,0,0,0,1.46-.39q1-.36,1.11-.85a5.55,5.55,0,0,0,.19-2q-.09-2.26-.18-5.34t-.16-5.25q-.07-2.17-.1-2.7a2.85,2.85,0,0,0-.14-.82q-.11-.23-1-.38a6.75,6.75,0,0,0-1.3-.12c-.08,0-.13-.16-.15-.5a.64.64,0,0,1,.09-.45h1.54Q194.81,10.11,195.58,10.06Z"/><path class="cls-1" d="M225,14.51a5.52,5.52,0,0,1,2.53.39,4.71,4.71,0,0,1,1.81,1.28,6.91,6.91,0,0,1,1.07,1.69,5.12,5.12,0,0,1,.44,1.71q0,.65-.17.83a1.68,1.68,0,0,1-.89.22l-7.09.46c-.14,0-.2.07-.2.19a5.77,5.77,0,0,0,.52,2.05A4.08,4.08,0,0,0,224.43,25a3.5,3.5,0,0,0,2.29.59,8,8,0,0,0,.86-.1,4.44,4.44,0,0,0,.76-.2l.61-.23a2.52,2.52,0,0,0,.53-.3l.38-.28.57-.44a.47.47,0,0,1,.16.17.57.57,0,0,1,.11.29.92.92,0,0,1-.14.58,4.84,4.84,0,0,1-1.65,1.72,5.52,5.52,0,0,1-2.88,1,6,6,0,0,1-4.58-1.62,6.41,6.41,0,0,1-2.17-4.52,6.88,6.88,0,0,1,1.42-5A5.76,5.76,0,0,1,225,14.51Zm-.12,1.38a2.1,2.1,0,0,0-1.25.5,2.79,2.79,0,0,0-.79,1.06,5.77,5.77,0,0,0-.36,1.14,3.72,3.72,0,0,0-.08.88c0,.14.07.2.19.2l4.81-.31c.18,0,.26-.17.24-.46a3.84,3.84,0,0,0-.83-2.06A2.13,2.13,0,0,0,224.86,15.89Z"/><path class="cls-1" d="M238,22.59a11,11,0,0,0,.41,2.65q.07.2.83.38a4.37,4.37,0,0,0,1,.16c.08,0,.13.14.16.42a1.69,1.69,0,0,1,0,.58l-1.59,0q-1.39,0-2,0T234.7,27l-1.55.22a.88.88,0,0,1-.16-.56c0-.3,0-.45.09-.45a4.3,4.3,0,0,0,1.05-.29q.73-.27.77-.48A9.64,9.64,0,0,0,235,23.3l-.32-4.84a2.83,2.83,0,0,0-.6-1.87,1.65,1.65,0,0,0-.71-.4,3.15,3.15,0,0,0-.72-.13c-.2,0-.3,0-.3-.07,0-.57,0-.87.12-.9a22.86,22.86,0,0,0,2.38-.51,23.42,23.42,0,0,0,2.31-.69l.23-.07c.1,0,.18.06.25.19a.55.55,0,0,1,.08.32,25.67,25.67,0,0,0-.07,2.57Zm-3.9-12.21a1.81,1.81,0,0,1-.62-1.27,1.76,1.76,0,0,1,.45-1.33,1.84,1.84,0,0,1,3.23,1.08,1.81,1.81,0,0,1-.45,1.34,1.83,1.83,0,0,1-2.61.17Z"/><path class="cls-1" d="M253.34,10.39l.73,11.15a8.71,8.71,0,0,0,.42,2.36q.17.38,2,.25l1.1-.07a8,8,0,0,0,3.49-.85,3.42,3.42,0,0,0,1-1.11,6.24,6.24,0,0,0,.8-1.87q0-.18.4-.21a1.28,1.28,0,0,1,.84.12q-.07.27-.35,1.24l-.42,1.47c-.1.33-.2.74-.31,1.23a8.29,8.29,0,0,0-.19,1.17q-1.19.08-4.92.23t-5.24.31l-3.94.38a.77.77,0,0,1-.12-.47c0-.34,0-.51.06-.51a4.91,4.91,0,0,0,1.12-.27q.73-.24.83-.52a10.8,10.8,0,0,0,0-2.71L250,10.52a9.1,9.1,0,0,0-.4-2.51q-.13-.23-.86-.41a4,4,0,0,0-1.08-.15q-.12,0-.15-.44a1.18,1.18,0,0,1,0-.54l1.65,0q1.5,0,2.3-.06L255.25,6a1.51,1.51,0,0,1,.12.47c0,.34,0,.51-.09.51a4.84,4.84,0,0,0-1.05.31q-.79.29-.83.5A11.09,11.09,0,0,0,253.34,10.39Z"/><path class="cls-1" d="M278.65,14.21l.38,5.87a6.55,6.55,0,0,0,.38,2.06.62.62,0,0,0,.36.21,2.31,2.31,0,0,0,.53.08h.49a.55.55,0,0,1,.25,0c.08,0,.13.1.14.26a2.1,2.1,0,0,1,0,.4c0,.19-.08.29-.16.29a6.85,6.85,0,0,0-1,.17l-1.22.29-1.11.3-1.17.31q-.21,0-.24-.46l-.09-1.31c0-.1-.06-.14-.1-.14A6.64,6.64,0,0,1,274.29,24a5,5,0,0,1-2.3.75,3.11,3.11,0,0,1-1.8-.39,3.58,3.58,0,0,1-1.27-1.23,6.39,6.39,0,0,1-.74-1.68,9,9,0,0,1-.31-1.86l-.22-3.32a2.83,2.83,0,0,0-.6-1.87,1.66,1.66,0,0,0-.71-.4,3.13,3.13,0,0,0-.72-.13c-.2,0-.3,0-.3-.07,0-.57,0-.87.09-.9a22.58,22.58,0,0,0,2.41-.52,23.45,23.45,0,0,0,2.31-.69l.12,0,.12,0c.1,0,.18.06.24.19a1.1,1.1,0,0,1,.1.32,26.27,26.27,0,0,0-.1,2.63l.23,3.56a6.37,6.37,0,0,0,.87,3.28,2.62,2.62,0,0,0,3.74.19,1.58,1.58,0,0,0,.58-1.16l-.32-4.89a2.83,2.83,0,0,0-.6-1.87,1.43,1.43,0,0,0-.7-.4,3.39,3.39,0,0,0-.74-.13c-.2,0-.3,0-.3-.07q-.06-.86.12-.9a22.86,22.86,0,0,0,2.38-.51,23.43,23.43,0,0,0,2.31-.69l.23-.07c.1,0,.18.06.25.19a.55.55,0,0,1,.08.32Q278.61,13.68,278.65,14.21Z"/><path class="cls-1" d="M291.94,10.13a3.21,3.21,0,0,1,2,.45A3.48,3.48,0,0,1,295.19,12a7,7,0,0,1,2.07-1.62A6.68,6.68,0,0,1,300,9.6a3.38,3.38,0,0,1,1.86.36,3.28,3.28,0,0,1,1.27,1.24,7,7,0,0,1,.74,1.8,11.35,11.35,0,0,1,.33,2.14l.2,3.11a12.48,12.48,0,0,0,.38,2.66c0,.14.32.26.83.38a4.37,4.37,0,0,0,1,.16c.06,0,.1.14.13.42a1.72,1.72,0,0,1,0,.58l-1.57,0q-1.36,0-2,0t-2,.22l-1.58.22a1.1,1.1,0,0,1-.13-.56c0-.3,0-.45.06-.45a4,4,0,0,0,1.05-.29c.46-.18.71-.34.74-.48a9.29,9.29,0,0,0,.07-2.09l-.2-3q-.28-4.3-3-4.12a2.71,2.71,0,0,0-1.6.58,1.85,1.85,0,0,0-.71,1c0,.06,0,.14,0,.24a.56.56,0,0,0,0,.24,14.35,14.35,0,0,1,.21,1.83l.21,3.14a11.73,11.73,0,0,0,.38,2.54c0,.14.33.26.83.38a4.38,4.38,0,0,0,1,.16c.06,0,.1.14.13.42a1.69,1.69,0,0,1,0,.58l-1.57,0q-1.36,0-2,0t-2,.22l-1.58.22a1.1,1.1,0,0,1-.13-.56c0-.3,0-.45.06-.45a4,4,0,0,0,1.05-.29q.7-.27.74-.48a9.7,9.7,0,0,0,.07-2.18L293,16.64a6.31,6.31,0,0,0-.9-3.31,2.27,2.27,0,0,0-2.09-.91,2.84,2.84,0,0,0-1.6.61,1.4,1.4,0,0,0-.67,1.18l.33,5.1a11,11,0,0,0,.41,2.65c0,.14.32.26.8.38a4,4,0,0,0,1,.16c.08,0,.13.14.16.42a1.72,1.72,0,0,1,0,.58l-1.57,0q-1.33,0-2,0t-2.07.22l-1.56.22a.87.87,0,0,1-.16-.56q0-.44.09-.45a4.31,4.31,0,0,0,1.05-.29c.48-.18.74-.34.77-.48a9.64,9.64,0,0,0,.07-2.18l-.32-4.84a2.83,2.83,0,0,0-.6-1.87,1.43,1.43,0,0,0-.7-.4,3.36,3.36,0,0,0-.74-.13q-.3,0-.3-.07-.06-.86.12-.9a41.17,41.17,0,0,0,4.69-1.2.19.19,0,0,1,.09-.05l.15,0c.1,0,.18.06.25.19a.55.55,0,0,1,.08.32,10.43,10.43,0,0,0,0,1.08c0,.08,0,.13.07.14a.45.45,0,0,0,.14-.1,6.58,6.58,0,0,1,1.74-1.37A5.2,5.2,0,0,1,291.94,10.13Z"/><path class="cls-1" d="M320.32,8.27a3.65,3.65,0,0,1,2.82.78,4.75,4.75,0,0,1,1.14,3.25l.38,5.84A1.36,1.36,0,0,0,325,19a.89.89,0,0,0,.73.26,1.85,1.85,0,0,0,1-.45c.12,0,.19.14.2.32a1.76,1.76,0,0,1-.12.9,7.27,7.27,0,0,1-1.14.82,3.1,3.1,0,0,1-1.4.48,2.17,2.17,0,0,1-1.37-.42,2.43,2.43,0,0,1-.93-1l-.21.21q-.18.18-.51.44a8.63,8.63,0,0,1-.74.52,4.7,4.7,0,0,1-1,.47,4.31,4.31,0,0,1-1.16.24,3.55,3.55,0,0,1-2.47-.66,2.83,2.83,0,0,1-1.08-2.18,2.75,2.75,0,0,1,.25-1.36,3.59,3.59,0,0,1,.75-1.08,6,6,0,0,1,1.22-.87,12.32,12.32,0,0,1,1.34-.67l1.45-.56,1.24-.47a.47.47,0,0,0,.24-.49l-.11-1.63a2.56,2.56,0,0,0-.58-1.6,1.55,1.55,0,0,0-1.31-.51,1.8,1.8,0,0,0-1.36.64,2.23,2.23,0,0,0-.4,1.59,1,1,0,0,1-.39.9,1.85,1.85,0,0,1-1,.35,1.68,1.68,0,0,1-1.59-.61q-.09-1.42,1.77-2.8A7.47,7.47,0,0,1,320.32,8.27Zm-.59,11.48a2.3,2.3,0,0,0,1.35-.51,1.17,1.17,0,0,0,.52-1l-.2-3c-.13.07-.42.19-.86.35s-.77.31-1,.42a8.15,8.15,0,0,0-.8.47,1.78,1.78,0,0,0-.65.7,1.63,1.63,0,0,0-.17.85,1.83,1.83,0,0,0,.57,1.36A1.7,1.7,0,0,0,319.73,19.75Z"/><path class="cls-1" d="M335.37,7.28a6,6,0,0,1,3.37.72,6.24,6.24,0,0,1,2.38,2.23,6.34,6.34,0,0,1,1,2.93,6.8,6.8,0,0,1-1.74,5.1,6.56,6.56,0,0,1-4.63,2.37,9.35,9.35,0,0,1-2.18-.08,6.49,6.49,0,0,0-1.41-.13,2.26,2.26,0,0,0-.76.26,2.92,2.92,0,0,1-.58.25,1.44,1.44,0,0,1-.44-.15c-.24-.1-.36-.19-.36-.27s0-.24,0-.54,0-.73.07-1.29a16.94,16.94,0,0,0,0-1.82l-.79-12.1a10.36,10.36,0,0,0-.31-2q-.18-.46-1.57-.37l-.27,0q-.18,0-.21-.46c0-.32,0-.48.15-.49q.91-.15,1.74-.35t1.36-.39q.54-.18.93-.36l.83-.35h.06a.32.32,0,0,1,.25.15.84.84,0,0,1,.17.3,10.36,10.36,0,0,0-.14,2.81L332.52,8v.16a.9.9,0,0,0,0,.13c0,.06,0,.09.07.08l.1,0a5.42,5.42,0,0,1,1.16-.67A4.27,4.27,0,0,1,335.37,7.28Zm-.55,1.64a2.31,2.31,0,0,0-1.57.67,1.75,1.75,0,0,0-.53,1.38l.41,6.29a1.78,1.78,0,0,0,.89,1.52,3.23,3.23,0,0,0,1.89.41,2.53,2.53,0,0,0,2.24-1.55,6.8,6.8,0,0,0,.56-3.43,7.64,7.64,0,0,0-1.18-4A2.91,2.91,0,0,0,334.82,8.93Z"/><path class="cls-1" d="M350.38,6.3a6.55,6.55,0,0,1,4.89,1.63,6.37,6.37,0,0,1,2.28,4.57,6.47,6.47,0,0,1-1.63,4.84,6.74,6.74,0,0,1-11.8-4,6.4,6.4,0,0,1,1.63-4.84A6.52,6.52,0,0,1,350.38,6.3Zm-.3,1.42A2.39,2.39,0,0,0,348,9.21a6.38,6.38,0,0,0-.56,3.27,8.65,8.65,0,0,0,1.24,4.12,3,3,0,0,0,2.8,1.6,2.42,2.42,0,0,0,2.09-1.51,6.32,6.32,0,0,0,.58-3.25,10.18,10.18,0,0,0-.57-2.84,5.24,5.24,0,0,0-1.39-2.13A2.76,2.76,0,0,0,350.09,7.72Z"/><path class="cls-1" d="M372.2,8.09l.38,5.87A6.55,6.55,0,0,0,373,16a.61.61,0,0,0,.36.21,2.31,2.31,0,0,0,.53.08h.49a.55.55,0,0,1,.25,0c.08,0,.13.1.14.26a2.1,2.1,0,0,1,0,.4c0,.19-.08.29-.16.29a6.85,6.85,0,0,0-1,.17l-1.22.29-1.11.3-1.17.31q-.21,0-.24-.46l-.09-1.31c0-.1-.06-.15-.1-.14a6.64,6.64,0,0,1-1.72,1.45,5,5,0,0,1-2.3.75,3.11,3.11,0,0,1-1.8-.39A3.58,3.58,0,0,1,362.46,17a6.39,6.39,0,0,1-.74-1.68,9,9,0,0,1-.31-1.86l-.22-3.32a2.83,2.83,0,0,0-.6-1.87,1.65,1.65,0,0,0-.71-.4,3.15,3.15,0,0,0-.72-.13c-.2,0-.3,0-.3-.07,0-.57,0-.87.09-.9a22.52,22.52,0,0,0,2.41-.52,23.59,23.59,0,0,0,2.31-.69l.12,0,.12,0c.1,0,.18.06.24.19a1.12,1.12,0,0,1,.09.32,26.27,26.27,0,0,0-.1,2.63l.23,3.56a6.36,6.36,0,0,0,.87,3.28,2.62,2.62,0,0,0,3.74.19,1.58,1.58,0,0,0,.58-1.16l-.32-4.89a2.83,2.83,0,0,0-.6-1.87,1.43,1.43,0,0,0-.7-.4,3.36,3.36,0,0,0-.74-.13c-.2,0-.3,0-.3-.07q-.06-.86.12-.9a23,23,0,0,0,2.38-.51,23.49,23.49,0,0,0,2.31-.69l.23-.07c.1,0,.18.06.25.19a.55.55,0,0,1,.08.32Q372.16,7.56,372.2,8.09Z"/><path class="cls-1" d="M377.65,6.6l-1.81.12c-.14,0-.22-.24-.26-.76a.73.73,0,0,1,0-.27A8.33,8.33,0,0,0,377.77,4l.79-.93q.43-.52,1-1.33a2.12,2.12,0,0,1,.57,0c.18,0,.27.09.28.15l.19,2.91,2.15-.13,1.47-.08c.16,0,.24.07.25.25a2.89,2.89,0,0,1-.21,1.32l-3.56.23.47,7.15a2.82,2.82,0,0,0,.62,1.78,1.7,1.7,0,0,0,1.43.53,2.83,2.83,0,0,0,.62-.12,3.25,3.25,0,0,0,.52-.2l.37-.2.2-.1c.08,0,.17.06.28.25s.16.32.14.38q-.15.43-1.2,1a4.68,4.68,0,0,1-2.08.69,3.75,3.75,0,0,1-2.69-.82,4,4,0,0,1-1.28-3Z"/><path class="cls-1" d="M44.46,58.58a3.65,3.65,0,0,1,2.79.9,4.76,4.76,0,0,1,1,3.29l.15,5.85a1.36,1.36,0,0,0,.29.9.89.89,0,0,0,.72.29,1.85,1.85,0,0,0,1-.41q.18.06.19.32a1.77,1.77,0,0,1-.16.9,7.32,7.32,0,0,1-1.17.77,3.09,3.09,0,0,1-1.42.42,2.17,2.17,0,0,1-1.35-.47,2.45,2.45,0,0,1-.89-1.08l-.22.2q-.19.17-.52.41a8.69,8.69,0,0,1-.76.5,4.72,4.72,0,0,1-1,.43,4.32,4.32,0,0,1-1.17.19,3.54,3.54,0,0,1-2.44-.76,2.82,2.82,0,0,1-1-2.22,2.75,2.75,0,0,1,.31-1.35,3.55,3.55,0,0,1,.79-1,6.06,6.06,0,0,1,1.26-.82,12.28,12.28,0,0,1,1.37-.61l1.47-.5L45,64.28a.47.47,0,0,0,.26-.48l0-1.63a2.55,2.55,0,0,0-.52-1.62A1.55,1.55,0,0,0,43.36,60a1.8,1.8,0,0,0-1.38.59,2.22,2.22,0,0,0-.47,1.57,1,1,0,0,1-.42.89,1.85,1.85,0,0,1-1,.31,1.68,1.68,0,0,1-1.56-.67q0-1.43,1.88-2.72A7.45,7.45,0,0,1,44.46,58.58ZM43.41,70a2.3,2.3,0,0,0,1.37-.45,1.17,1.17,0,0,0,.55-1l-.08-3q-.21.09-.87.32t-1,.38a8,8,0,0,0-.82.44,1.79,1.79,0,0,0-.68.67,1.64,1.64,0,0,0-.2.84,1.83,1.83,0,0,0,.51,1.38A1.71,1.71,0,0,0,43.41,70Z"/><path class="cls-1" d="M61.67,58.14q3.83-.1,4,6L65.73,67A12.48,12.48,0,0,0,66,69.63q.06.21.83.41a4.56,4.56,0,0,0,1,.2c.06,0,.1.14.12.43a1.7,1.7,0,0,1,0,.58q-.18,0-1.56-.08t-2.07,0q-.71,0-2,.14l-1.53.16a.87.87,0,0,1-.13-.56c0-.3,0-.45.11-.45a3.54,3.54,0,0,0,1-.25c.44-.16.68-.31.72-.45a8.58,8.58,0,0,0,.18-2.18l-.07-2.82a6.46,6.46,0,0,0-.76-3.43,2.39,2.39,0,0,0-2.15-.93,2.76,2.76,0,0,0-1.65.56,1.43,1.43,0,0,0-.68,1.13l.13,5.11a12.43,12.43,0,0,0,.28,2.67q.07.21.8.41a4.28,4.28,0,0,0,1,.2c.08,0,.13.14.14.43a1.7,1.7,0,0,1,0,.58l-1.56-.08q-1.33-.06-2,0T54,71.48l-1.59.16a.88.88,0,0,1-.13-.56c0-.3,0-.45.11-.45a4.14,4.14,0,0,0,1.08-.25q.72-.24.78-.45a9.74,9.74,0,0,0,.15-2.17l-.12-4.84A2.83,2.83,0,0,0,53.77,61a1.43,1.43,0,0,0-.68-.43,3.38,3.38,0,0,0-.72-.16c-.19,0-.28,0-.28-.08,0-.57,0-.87.13-.9a42.16,42.16,0,0,0,4.76-1l.07,0,.09,0h.07c.08,0,.15.07.21.2a.89.89,0,0,1,.1.32A10.14,10.14,0,0,0,57.44,60a.23.23,0,0,0,0,.15.44.44,0,0,0,.15-.09,6.59,6.59,0,0,1,1.8-1.29A5.21,5.21,0,0,1,61.67,58.14Z"/><path class="cls-1" d="M71.39,60l-1.81,0q-.21,0-.23-.77a.71.71,0,0,1,0-.27,8.32,8.32,0,0,0,2.25-1.63l.83-.9q.45-.5,1.05-1.29a2.12,2.12,0,0,1,.57.06c.18,0,.27.1.27.16l.07,2.91,2.16,0,1.47,0c.16,0,.24.08.24.26A2.89,2.89,0,0,1,78,59.81l-3.57.09.18,7.16a2.82,2.82,0,0,0,.55,1.8,1.7,1.7,0,0,0,1.41.59,2.8,2.8,0,0,0,.62-.09,3.12,3.12,0,0,0,.53-.18l.38-.19.21-.09c.08,0,.17.06.27.26s.15.32.13.38a2.73,2.73,0,0,1-1.24,1,4.68,4.68,0,0,1-2.11.6,3.75,3.75,0,0,1-2.66-.93,4,4,0,0,1-1.16-3Z"/><path class="cls-1" d="M85.84,66.45a11,11,0,0,0,.31,2.67q.07.21.81.41a4.38,4.38,0,0,0,1,.2c.08,0,.13.14.14.43a1.7,1.7,0,0,1,0,.58l-1.59-.08q-1.39-.05-2,0t-2.09.14l-1.56.16a.88.88,0,0,1-.13-.56c0-.3,0-.45.11-.45a4.31,4.31,0,0,0,1.06-.25q.74-.24.79-.45A9.74,9.74,0,0,0,82.79,67l-.12-4.84a2.83,2.83,0,0,0-.52-1.89,1.65,1.65,0,0,0-.69-.43,3.13,3.13,0,0,0-.72-.16q-.3,0-.3-.08,0-.86.16-.9a22.81,22.81,0,0,0,2.4-.42,23.37,23.37,0,0,0,2.33-.59l.24-.07c.1,0,.18.07.24.2a.54.54,0,0,1,.07.33,25.38,25.38,0,0,0-.17,2.56ZM82.43,54.09a1.81,1.81,0,0,1-.57-1.29,1.84,1.84,0,0,1,3.69-.09A1.81,1.81,0,0,1,85,54a1.83,1.83,0,0,1-2.62.07Z"/><path class="cls-1" d="M89.75,64.45a8,8,0,0,1,.08-1q.09-.72.29-.72l12.63-.32q.18,0,.18.26a7.31,7.31,0,0,1-.23,1.55.34.34,0,0,1-.07.14.14.14,0,0,1-.1,0l0,0-12.57.32-.12-.06A.37.37,0,0,1,89.75,64.45Z"/><path class="cls-1" d="M110.35,57a9.42,9.42,0,0,1,2.48.32,9.17,9.17,0,0,0,2.39.33l1.69,0s.11.13.22.38a1.84,1.84,0,0,1,.16.59c0,.28,0,.42-.17.42l-1.93,0c-.08,0-.12,0-.12.09s.1.28.29.77a4.21,4.21,0,0,1,.3,1.42,4.3,4.3,0,0,1-1.39,3.2,5.09,5.09,0,0,1-3.63,1.5,12.29,12.29,0,0,1-1.85-.07,1.6,1.6,0,0,0-.64.57,1.27,1.27,0,0,0-.28.74.61.61,0,0,0,.3.5,2,2,0,0,0,.88.28q.59.07,1,.09l1.19,0h.45a10.51,10.51,0,0,1,4.37.71A2.34,2.34,0,0,1,117.52,71a4.67,4.67,0,0,1-2,3.92,8.13,8.13,0,0,1-5,1.76,7.73,7.73,0,0,1-3.81-.74,2.67,2.67,0,0,1-1.68-2.4,2.31,2.31,0,0,1,.8-1.69,4.91,4.91,0,0,1,1.8-1.18,3.39,3.39,0,0,1-1.45-.87,2.16,2.16,0,0,1-.69-1.54q0-1.28,2.13-2.7A3.94,3.94,0,0,1,106,64a4.38,4.38,0,0,1-.81-2.4,4,4,0,0,1,1.46-3.37A5.91,5.91,0,0,1,110.35,57Zm4.5,15.44q0-1-1.54-1.34a18.89,18.89,0,0,0-4-.24l-.15,0-.15.09c-.25.11-.45.19-.59.27a2.55,2.55,0,0,0-.47.34,1.44,1.44,0,0,0-.39.53,1.74,1.74,0,0,0-.12.72,2.08,2.08,0,0,0,1.17,1.75,4.64,4.64,0,0,0,2.54.65,4.49,4.49,0,0,0,2.7-.84A2.32,2.32,0,0,0,114.85,72.4ZM108.2,61.33a4.7,4.7,0,0,0,.66,2.44,1.85,1.85,0,0,0,1.69,1,1.77,1.77,0,0,0,1.6-.89,3.94,3.94,0,0,0,.47-2.11,4.89,4.89,0,0,0-.66-2.54,1.9,1.9,0,0,0-1.75-.94,1.68,1.68,0,0,0-1.55,1A4.31,4.31,0,0,0,108.2,61.33Z"/><path class="cls-1" d="M125.25,56.52a5.51,5.51,0,0,1,2.51.49,4.72,4.72,0,0,1,1.76,1.35,6.94,6.94,0,0,1,1,1.73,5.11,5.11,0,0,1,.37,1.73c0,.44-.06.71-.2.82a1.69,1.69,0,0,1-.9.19l-7.1.18c-.14,0-.21.06-.2.18a5.77,5.77,0,0,0,.44,2.07A4.09,4.09,0,0,0,124.28,67a3.5,3.5,0,0,0,2.26.69,8,8,0,0,0,.86-.07,4.41,4.41,0,0,0,.77-.17l.62-.21a2.53,2.53,0,0,0,.54-.28l.39-.26.58-.42a.48.48,0,0,1,.15.17.57.57,0,0,1,.1.29.91.91,0,0,1-.16.57A4.83,4.83,0,0,1,128.69,69a5.52,5.52,0,0,1-2.92.88,6,6,0,0,1-4.51-1.8,6.41,6.41,0,0,1-2-4.6,6.88,6.88,0,0,1,1.61-4.92A5.76,5.76,0,0,1,125.25,56.52Zm-.17,1.37a2.1,2.1,0,0,0-1.27.45,2.8,2.8,0,0,0-.84,1,5.72,5.72,0,0,0-.4,1.13,3.65,3.65,0,0,0-.11.88c0,.14.06.21.18.2l4.81-.12c.18,0,.26-.16.26-.45a3.86,3.86,0,0,0-.75-2.09A2.13,2.13,0,0,0,125.07,57.9Z"/><path class="cls-1" d="M142.13,56.1q3.83-.1,4,6l.07,2.82a12.48,12.48,0,0,0,.28,2.67q.06.21.83.41a4.57,4.57,0,0,0,1,.2c.06,0,.1.14.11.43a1.68,1.68,0,0,1,0,.58q-.18,0-1.56-.08t-2.07,0q-.71,0-2,.14l-1.53.16a.87.87,0,0,1-.13-.56c0-.3,0-.45.11-.45a3.54,3.54,0,0,0,1-.25q.66-.24.72-.45a8.58,8.58,0,0,0,.18-2.18l-.07-2.82a6.45,6.45,0,0,0-.76-3.43,2.39,2.39,0,0,0-2.15-.93,2.75,2.75,0,0,0-1.65.56,1.43,1.43,0,0,0-.68,1.13l.13,5.11a12.48,12.48,0,0,0,.28,2.67q.06.21.8.41a4.3,4.3,0,0,0,1,.2c.08,0,.13.14.14.43a1.7,1.7,0,0,1,0,.58l-1.56-.08q-1.33-.06-2,0t-2.06.14l-1.59.16a.88.88,0,0,1-.13-.56c0-.3,0-.45.11-.45a4.15,4.15,0,0,0,1.08-.25q.72-.24.78-.45a9.69,9.69,0,0,0,.15-2.17l-.12-4.84a2.83,2.83,0,0,0-.52-1.89,1.43,1.43,0,0,0-.68-.43,3.39,3.39,0,0,0-.72-.16c-.19,0-.28,0-.28-.08,0-.57,0-.87.13-.9a42.16,42.16,0,0,0,4.76-1l.07,0,.09,0h.07c.08,0,.15.07.21.2a.91.91,0,0,1,.1.32,10.32,10.32,0,0,0-.09,1.07.23.23,0,0,0,0,.15.44.44,0,0,0,.15-.09,6.57,6.57,0,0,1,1.8-1.29A5.2,5.2,0,0,1,142.13,56.1Z"/><path class="cls-1" d="M151.85,57.93,150,58q-.21,0-.23-.77a.74.74,0,0,1,0-.27,8.32,8.32,0,0,0,2.25-1.63l.82-.9q.45-.5,1.05-1.29a2.12,2.12,0,0,1,.57.06c.18,0,.27.1.27.16l.07,2.91,2.16,0,1.47,0c.16,0,.24.08.25.26a2.89,2.89,0,0,1-.26,1.31l-3.57.09.18,7.16a2.82,2.82,0,0,0,.55,1.8,1.69,1.69,0,0,0,1.41.59,2.79,2.79,0,0,0,.62-.09,3.08,3.08,0,0,0,.53-.18l.38-.19.21-.09c.08,0,.17.07.27.26s.15.32.13.38a2.72,2.72,0,0,1-1.24,1,4.68,4.68,0,0,1-2.11.6,3.75,3.75,0,0,1-2.66-.93,4,4,0,0,1-1.16-3Z"/><path class="cls-1" d="M169.49,55.4a3,3,0,0,1,2.46.92q.06,2.53-1.36,2.56a1.76,1.76,0,0,1-1.17-.56,1.86,1.86,0,0,0-1.29-.56,1.59,1.59,0,0,0-1.42,1,4,4,0,0,0-.47,2l.09,3.71a12.48,12.48,0,0,0,.28,2.67c0,.14.31.27.8.41a4.2,4.2,0,0,0,1,.2c.06,0,.1.14.11.43a3,3,0,0,1,0,.58l-1.58-.08q-1.34-.06-2,0c-.48,0-1.16.06-2.06.14l-1.59.16a.88.88,0,0,1-.13-.56c0-.3,0-.45.11-.45a4.15,4.15,0,0,0,1.08-.25q.72-.24.78-.45a9.69,9.69,0,0,0,.15-2.17l-.12-4.84a2.83,2.83,0,0,0-.52-1.89,1.44,1.44,0,0,0-.68-.43,3.37,3.37,0,0,0-.72-.16c-.19,0-.28,0-.28-.08,0-.57,0-.87.13-.9a42.12,42.12,0,0,0,4.76-1l.24-.07c.08,0,.15.07.21.2a.7.7,0,0,1,.08.34l0,.42q0,.28-.06.6a3.77,3.77,0,0,0,0,.4,5.44,5.44,0,0,1,1.42-1.48A3.25,3.25,0,0,1,169.49,55.4Z"/><path class="cls-1" d="M179.38,64.07a11,11,0,0,0,.31,2.67q.07.21.81.41a4.4,4.4,0,0,0,1,.2c.08,0,.13.14.14.43a1.64,1.64,0,0,1,0,.58L180,68.27q-1.38-.05-2,0t-2.09.14l-1.56.16a.87.87,0,0,1-.13-.56c0-.3,0-.45.11-.45a4.31,4.31,0,0,0,1.06-.25q.74-.24.79-.45a9.75,9.75,0,0,0,.15-2.17l-.12-4.84a2.83,2.83,0,0,0-.52-1.89,1.66,1.66,0,0,0-.7-.43,3.12,3.12,0,0,0-.72-.16q-.3,0-.3-.08,0-.86.16-.9a22.69,22.69,0,0,0,2.4-.42,23.3,23.3,0,0,0,2.34-.59l.24-.07c.1,0,.18.06.24.2a.54.54,0,0,1,.07.33,25.37,25.37,0,0,0-.17,2.56ZM176,51.71a1.81,1.81,0,0,1-.57-1.29,1.84,1.84,0,0,1,3.68-.09,1.81,1.81,0,0,1-.5,1.32,1.83,1.83,0,0,1-2.62.07Z"/><path class="cls-1" d="M191.36,47.32a5.86,5.86,0,0,1,2.07.26,2.08,2.08,0,0,1,1.1.73,3.33,3.33,0,0,1-.12,1.65,1.07,1.07,0,0,1-1.07.76,1.16,1.16,0,0,1-.92-.47q-.41-.48-.87-1a1.36,1.36,0,0,0-1.05-.46,1.58,1.58,0,0,0-1.32.81,5,5,0,0,0-.71,1.89,12.12,12.12,0,0,0-.16,2.41l0,1.37s0,0,.06.09a.17.17,0,0,0,.12.06l3.27-.08a.24.24,0,0,1,.15,0,.32.32,0,0,1,0,.18,3.06,3.06,0,0,1-.32,1.38l-3.09.08a.16.16,0,0,0-.17.18l.17,6.63a11.38,11.38,0,0,0,.31,2.67q.06.21.8.41a4.24,4.24,0,0,0,1,.2c.06,0,.1.14.12.43a1.65,1.65,0,0,1,0,.58q-.18,0-1.55-.08t-2.08,0q-.71,0-2,.14l-1.54.16a.56.56,0,0,1-.13-.32,1.83,1.83,0,0,1,0-.46c0-.15.05-.22.11-.23a4,4,0,0,0,1-.25q.71-.24.76-.45a9.8,9.8,0,0,0,.21-2.44l-.17-6.84c0-.14-.06-.21-.18-.2l-1.78,0s-.06-.06-.06-.18a1.59,1.59,0,0,1,.39-.87,1.19,1.19,0,0,1,.94-.56h.47a.16.16,0,0,0,.17-.18v-.3a8.09,8.09,0,0,1,1.72-5.4A5.56,5.56,0,0,1,191.36,47.32Z"/><path class="cls-1" d="M199.28,63.56a11,11,0,0,0,.31,2.67q.07.21.81.41a4.35,4.35,0,0,0,1,.2c.08,0,.13.14.14.43a1.65,1.65,0,0,1,0,.58l-1.59-.08q-1.38-.05-2,0t-2.09.14l-1.56.16a.87.87,0,0,1-.13-.56c0-.3,0-.45.11-.45a4.31,4.31,0,0,0,1.06-.25q.74-.24.79-.45a9.69,9.69,0,0,0,.15-2.17l-.12-4.84a2.83,2.83,0,0,0-.52-1.89,1.66,1.66,0,0,0-.7-.43,3.13,3.13,0,0,0-.72-.16c-.2,0-.3,0-.3-.08q0-.86.16-.9a22.77,22.77,0,0,0,2.4-.42,23.4,23.4,0,0,0,2.33-.59l.24-.07c.1,0,.18.06.24.2a.54.54,0,0,1,.07.33,25.37,25.37,0,0,0-.17,2.56ZM195.87,51.2a1.81,1.81,0,0,1-.57-1.29A1.83,1.83,0,0,1,197.1,48a1.78,1.78,0,0,1,1.32.5,1.76,1.76,0,0,1,.57,1.28,1.81,1.81,0,0,1-.5,1.32,1.83,1.83,0,0,1-2.62.07Z"/><path class="cls-1" d="M209.37,54.38a7.18,7.18,0,0,1,2.82.45,4.74,4.74,0,0,1,1.8,1.1,3.68,3.68,0,0,1-.3,1.69,1.1,1.1,0,0,1-1,.69,1.33,1.33,0,0,1-.91-.27,3.38,3.38,0,0,1-.72-1,2.15,2.15,0,0,0-2-1.32,2.29,2.29,0,0,0-2,1.34,6.36,6.36,0,0,0-.67,3.27,6,6,0,0,0,1.2,3.94,3.51,3.51,0,0,0,2.83,1.22,8.06,8.06,0,0,0,.86-.07,4.43,4.43,0,0,0,.77-.17l.62-.21a2.53,2.53,0,0,0,.54-.28l.39-.26.58-.42a.47.47,0,0,1,.15.17.57.57,0,0,1,.1.3.91.91,0,0,1-.16.57,4.83,4.83,0,0,1-1.71,1.65,5.45,5.45,0,0,1-2.89.88,6,6,0,0,1-4.55-1.82,6.56,6.56,0,0,1-2-4.68,6.76,6.76,0,0,1,1.66-4.73A6,6,0,0,1,209.37,54.38Z"/><path class="cls-1" d="M222.45,54.05a3.65,3.65,0,0,1,2.79.9,4.75,4.75,0,0,1,1,3.29l.15,5.85a1.35,1.35,0,0,0,.29.9.89.89,0,0,0,.72.29,1.86,1.86,0,0,0,1-.41c.12,0,.18.14.19.32a1.75,1.75,0,0,1-.16.9,7.35,7.35,0,0,1-1.17.77,3.1,3.1,0,0,1-1.42.42,2.17,2.17,0,0,1-1.35-.47,2.43,2.43,0,0,1-.89-1.08l-.22.2c-.13.11-.3.25-.52.41a8.61,8.61,0,0,1-.76.5,4.71,4.71,0,0,1-1,.43,4.31,4.31,0,0,1-1.17.19,3.55,3.55,0,0,1-2.44-.76,2.83,2.83,0,0,1-1-2.22,2.74,2.74,0,0,1,.31-1.35,3.57,3.57,0,0,1,.79-1,6.1,6.1,0,0,1,1.26-.82,12.23,12.23,0,0,1,1.37-.61l1.47-.5,1.25-.42a.47.47,0,0,0,.25-.48l0-1.63a2.56,2.56,0,0,0-.52-1.62,1.55,1.55,0,0,0-1.29-.56A1.8,1.8,0,0,0,220,56a2.22,2.22,0,0,0-.46,1.57,1,1,0,0,1-.42.89,1.84,1.84,0,0,1-1,.31,1.68,1.68,0,0,1-1.56-.67q0-1.43,1.88-2.72A7.46,7.46,0,0,1,222.45,54.05Zm-1,11.45a2.3,2.3,0,0,0,1.37-.45,1.18,1.18,0,0,0,.56-1l-.08-3c-.14.06-.43.17-.87.32s-.78.28-1,.38a8,8,0,0,0-.82.44,1.79,1.79,0,0,0-.68.67,1.64,1.64,0,0,0-.2.84,1.83,1.83,0,0,0,.51,1.38A1.71,1.71,0,0,0,221.41,65.5Z"/><path class="cls-1" d="M231.73,55.9l-1.81,0c-.14,0-.21-.25-.23-.77a.74.74,0,0,1,0-.27A8.34,8.34,0,0,0,232,53.27l.83-.9q.45-.5,1.05-1.29a2.11,2.11,0,0,1,.57.06c.18,0,.27.1.27.16l.07,2.91,2.16,0,1.47,0c.16,0,.24.08.25.26a2.88,2.88,0,0,1-.26,1.31l-3.57.09L235,63a2.81,2.81,0,0,0,.55,1.8,1.7,1.7,0,0,0,1.41.59,2.8,2.8,0,0,0,.62-.09,3.16,3.16,0,0,0,.53-.18l.38-.19.21-.09c.08,0,.17.06.27.26s.15.32.13.38a2.73,2.73,0,0,1-1.24,1,4.68,4.68,0,0,1-2.11.6,3.75,3.75,0,0,1-2.66-.93,4,4,0,0,1-1.16-3Z"/><path class="cls-1" d="M246.17,62.37a11,11,0,0,0,.31,2.67q.07.21.81.41a4.38,4.38,0,0,0,1,.2c.08,0,.13.14.14.43a1.65,1.65,0,0,1,0,.58l-1.59-.08q-1.38-.05-2,0t-2.09.14l-1.56.16a.87.87,0,0,1-.13-.56c0-.3,0-.45.11-.45a4.32,4.32,0,0,0,1.06-.25c.49-.16.75-.31.79-.45a9.69,9.69,0,0,0,.15-2.17L243,58.11a2.83,2.83,0,0,0-.52-1.89,1.65,1.65,0,0,0-.69-.43,3.14,3.14,0,0,0-.72-.16q-.3,0-.3-.08,0-.86.16-.9a22.76,22.76,0,0,0,2.4-.42,23.26,23.26,0,0,0,2.33-.59l.24-.07c.1,0,.18.07.24.2a.54.54,0,0,1,.07.33,25.38,25.38,0,0,0-.17,2.56ZM242.77,50a1.81,1.81,0,0,1-.57-1.29,1.84,1.84,0,0,1,3.68-.09,1.81,1.81,0,0,1-.5,1.32,1.83,1.83,0,0,1-2.62.07Z"/><path class="cls-1" d="M256.59,53.18A6.56,6.56,0,0,1,261.41,55a6.37,6.37,0,0,1,2.1,4.66,6.78,6.78,0,1,1-6.92-6.48Zm-.35,1.41A2.39,2.39,0,0,0,254.11,56a6.38,6.38,0,0,0-.69,3.24,8.66,8.66,0,0,0,1.07,4.17,3,3,0,0,0,2.73,1.71,2.43,2.43,0,0,0,2.15-1.42,6.31,6.31,0,0,0,.71-3.23,10.2,10.2,0,0,0-.46-2.86,5.25,5.25,0,0,0-1.3-2.18A2.76,2.76,0,0,0,256.24,54.59Z"/><path class="cls-1" d="M275,52.72q3.83-.1,4,6l.07,2.82a12.42,12.42,0,0,0,.28,2.67q.06.21.83.41a4.54,4.54,0,0,0,1,.2c.06,0,.1.14.12.43a1.67,1.67,0,0,1,0,.58q-.18,0-1.56-.08t-2.07,0q-.71,0-2,.14l-1.53.16a.87.87,0,0,1-.13-.56c0-.3,0-.45.11-.45a3.54,3.54,0,0,0,1-.25c.44-.16.68-.31.72-.45a8.54,8.54,0,0,0,.18-2.18l-.07-2.82a6.45,6.45,0,0,0-.76-3.43,2.39,2.39,0,0,0-2.15-.93,2.75,2.75,0,0,0-1.65.56,1.43,1.43,0,0,0-.69,1.13l.13,5.11a12.48,12.48,0,0,0,.28,2.67c0,.14.31.27.8.41a4.3,4.3,0,0,0,1,.2c.08,0,.13.14.14.43a1.68,1.68,0,0,1,0,.58L271.39,66q-1.32-.06-2,0t-2.06.14l-1.59.16a.87.87,0,0,1-.13-.56c0-.3,0-.45.11-.45a4.14,4.14,0,0,0,1.08-.25c.48-.16.74-.31.78-.45a9.69,9.69,0,0,0,.15-2.17l-.12-4.84a2.83,2.83,0,0,0-.52-1.89,1.44,1.44,0,0,0-.68-.43,3.37,3.37,0,0,0-.72-.16q-.28,0-.28-.08,0-.86.13-.9a42.12,42.12,0,0,0,4.76-1l.07,0,.09,0h.07c.08,0,.15.07.21.2a.9.9,0,0,1,.1.32,9.87,9.87,0,0,0-.09,1.07.23.23,0,0,0,0,.15.45.45,0,0,0,.15-.09,6.6,6.6,0,0,1,1.8-1.29A5.2,5.2,0,0,1,275,52.72Z"/><path class="cls-1" d="M308.12,54.13a.86.86,0,0,0-.25-.6,1.31,1.31,0,0,0-.62-.34,5.45,5.45,0,0,0-.69-.13,4.3,4.3,0,0,0-.61,0h-.12c-.08,0-.13-.15-.14-.44s0-.48.06-.54q.39,0,1.58,0t1.9,0c.42,0,.95-.05,1.59-.13s1.11-.12,1.41-.12a1.86,1.86,0,0,1,.07.5c0,.3,0,.45-.11.45a3.38,3.38,0,0,0-1.16.4,1.82,1.82,0,0,0-1,.93l-4.13,10.6a1.16,1.16,0,0,1-.39.44,1,1,0,0,1-.58.21.38.38,0,0,1-.39-.2l-3.83-8.11-3,7.84a1.6,1.6,0,0,1-.33.43.9.9,0,0,1-.63.25.44.44,0,0,1-.42-.2q-.72-1.53-1.72-3.72t-1.81-3.86q-.82-1.67-1.88-3.64a1.36,1.36,0,0,0-.79-.57,2.87,2.87,0,0,0-1-.18c-.08,0-.12-.16-.13-.47s0-.45.11-.51.7,0,1.5.05,1.43.05,1.89,0,1.13-.06,2-.14l1.54-.13a1.62,1.62,0,0,1,.07.53c0,.26,0,.4-.08.42a3.52,3.52,0,0,0-1,.23q-.63.22-.62.64s1.05,2.29,3.15,6.76q.31-.84.71-1.91l.61-1.62.42-1.13q.21-.57.29-.85a1.61,1.61,0,0,0,.08-.37,2.18,2.18,0,0,0-.42-1.18,1.41,1.41,0,0,0-.67-.46,2.37,2.37,0,0,0-1.07-.15c-.08,0-.12-.14-.13-.43s0-.46.11-.52.71,0,1.47.05,1.38.05,1.86,0,1.08-.06,1.93-.14l1.51-.13a1.42,1.42,0,0,1,.06.55c0,.29,0,.43-.09.43q-1.52,0-1.49,1.08,0,.57,3,6.53.44-1.26,1.1-3t1-2.52A4,4,0,0,0,308.12,54.13Z"/><path class="cls-1" d="M320.67,51.55a6.56,6.56,0,0,1,4.82,1.82A6.37,6.37,0,0,1,327.58,58a6.78,6.78,0,1,1-6.91-6.49ZM320.31,53a2.39,2.39,0,0,0-2.13,1.41,6.39,6.39,0,0,0-.69,3.24,8.67,8.67,0,0,0,1.07,4.17,3,3,0,0,0,2.73,1.71,2.43,2.43,0,0,0,2.15-1.42,6.31,6.31,0,0,0,.71-3.23,10.23,10.23,0,0,0-.46-2.86,5.25,5.25,0,0,0-1.3-2.18A2.76,2.76,0,0,0,320.31,53Z"/><path class="cls-1" d="M338,51.11a3,3,0,0,1,2.46.92q.06,2.53-1.36,2.56A1.77,1.77,0,0,1,338,54a1.86,1.86,0,0,0-1.29-.56,1.59,1.59,0,0,0-1.42,1,4,4,0,0,0-.47,2l.09,3.71a12.48,12.48,0,0,0,.28,2.67c0,.14.31.27.8.41a4.2,4.2,0,0,0,1,.2c.06,0,.1.14.11.43a3,3,0,0,1,0,.58l-1.58-.08q-1.34-.06-2,0t-2.06.14l-1.59.16a.87.87,0,0,1-.13-.56c0-.3,0-.45.11-.45a4.14,4.14,0,0,0,1.08-.25q.72-.24.78-.45a9.69,9.69,0,0,0,.15-2.17l-.12-4.84a2.83,2.83,0,0,0-.52-1.89,1.44,1.44,0,0,0-.68-.43,3.37,3.37,0,0,0-.72-.16q-.28,0-.28-.08,0-.86.13-.9a42.17,42.17,0,0,0,4.76-1l.24-.07c.08,0,.15.07.21.2a.7.7,0,0,1,.08.34l0,.42c0,.19,0,.39-.06.6a3.77,3.77,0,0,0,0,.4,5.46,5.46,0,0,1,1.42-1.48A3.25,3.25,0,0,1,338,51.11Z"/><path class="cls-1" d="M354.88,52.67q-.59.37-1.85,1.39a20.87,20.87,0,0,0-2.31,2.14q.88.9,2.23,2.35t2.23,2.38a14.21,14.21,0,0,0,1.22,1.19,3.74,3.74,0,0,0,1.16.56,3.6,3.6,0,0,0,1,.21c.08,0,.12.17.13.5a1.82,1.82,0,0,1,0,.42l-3.48-.06-1.14.06-1.28.11-1.11.1a.81.81,0,0,1-.13-.53c0-.28,0-.42.11-.42a2.13,2.13,0,0,0,.68-.15q.38-.14.38-.29s0-.06,0-.06l-4.46-4.73-.35.1,0,1.84a12.17,12.17,0,0,0,.31,2.67c0,.14.31.27.81.41a4.32,4.32,0,0,0,1,.2c.06,0,.1.14.12.43a1.67,1.67,0,0,1,0,.58L348.56,64q-1.37-.05-2.05,0t-2.06.14l-1.59.16a.87.87,0,0,1-.13-.56c0-.3,0-.45.11-.45a4.16,4.16,0,0,0,1.08-.25q.72-.24.78-.45a9.74,9.74,0,0,0,.15-2.17L344.53,48a11.65,11.65,0,0,0-.2-2q-.16-.47-1.56-.44h-.27q-.18,0-.19-.47c0-.32,0-.48.17-.48q.92-.11,1.75-.28c.55-.11,1-.22,1.37-.33s.68-.22.94-.32l.84-.32h.06a.32.32,0,0,1,.24.16.81.81,0,0,1,.16.31,9.61,9.61,0,0,0-.29,2.8l.25,9.93a2.68,2.68,0,0,0,.88-.35q.61-.58,1.32-1.21l1-.9q.32-.28.64-.6a2.63,2.63,0,0,0,.42-.5.69.69,0,0,0,.09-.36q0-.33-.68-.38a2.93,2.93,0,0,1-.67-.09,1.32,1.32,0,0,1-.1-.52c0-.21,0-.32.11-.35l2.88-.07q.8,0,3.15-.2a.46.46,0,0,1,.16.32,1.36,1.36,0,0,1,0,.45q0,.21-.13.21A3.9,3.9,0,0,0,354.88,52.67Z"/><path class="cls-1" d="M372.45,59.16a11,11,0,0,0,.31,2.67q.07.21.81.41a4.37,4.37,0,0,0,1,.2c.08,0,.13.14.14.43a1.65,1.65,0,0,1,0,.58l-1.59-.08q-1.38-.05-2,0t-2.09.14l-1.56.16a.87.87,0,0,1-.13-.56c0-.3,0-.45.11-.45a4.31,4.31,0,0,0,1.06-.25q.74-.24.79-.45a9.75,9.75,0,0,0,.15-2.17l-.12-4.84a2.83,2.83,0,0,0-.52-1.89,1.66,1.66,0,0,0-.7-.43,3.13,3.13,0,0,0-.72-.16q-.3,0-.3-.08,0-.86.16-.9a22.63,22.63,0,0,0,2.4-.42,23.38,23.38,0,0,0,2.34-.59l.24-.07c.1,0,.18.06.24.2a.54.54,0,0,1,.07.33,25.37,25.37,0,0,0-.17,2.56ZM369,46.8a1.81,1.81,0,0,1-.57-1.29,1.84,1.84,0,0,1,3.68-.09,1.81,1.81,0,0,1-.5,1.32,1.83,1.83,0,0,1-2.62.07Z"/><path class="cls-1" d="M385.88,49.89q3.83-.1,4,6l.07,2.82a12.42,12.42,0,0,0,.28,2.67c0,.14.32.27.83.41a4.55,4.55,0,0,0,1,.2c.06,0,.1.14.12.43a1.67,1.67,0,0,1,0,.58q-.18,0-1.56-.08t-2.07,0q-.71,0-2,.14l-1.53.16a.87.87,0,0,1-.13-.56c0-.3,0-.45.11-.45a3.54,3.54,0,0,0,1-.25c.44-.16.68-.31.72-.45a8.49,8.49,0,0,0,.18-2.18l-.07-2.82a6.45,6.45,0,0,0-.76-3.43,2.39,2.39,0,0,0-2.15-.93,2.75,2.75,0,0,0-1.65.56,1.43,1.43,0,0,0-.69,1.13l.13,5.11a12.48,12.48,0,0,0,.28,2.67c0,.14.31.27.8.41a4.29,4.29,0,0,0,1,.2c.08,0,.13.14.14.43a1.68,1.68,0,0,1,0,.58l-1.56-.08q-1.32-.06-2,0t-2.06.14l-1.59.16a.87.87,0,0,1-.13-.56c0-.3,0-.45.11-.45a4.15,4.15,0,0,0,1.08-.25q.72-.24.78-.45a9.69,9.69,0,0,0,.15-2.17l-.12-4.84a2.84,2.84,0,0,0-.52-1.89,1.44,1.44,0,0,0-.68-.43,3.39,3.39,0,0,0-.72-.16q-.28,0-.28-.08,0-.86.13-.9a42.1,42.1,0,0,0,4.76-1l.07,0,.09,0h.07c.08,0,.15.07.21.2a.9.9,0,0,1,.1.32,9.87,9.87,0,0,0-.09,1.07.23.23,0,0,0,0,.15.44.44,0,0,0,.15-.09,6.59,6.59,0,0,1,1.8-1.3A5.2,5.2,0,0,1,385.88,49.89Z"/><path class="cls-1" d="M417.94,56.81a16.54,16.54,0,0,1-.39,2.32,5.14,5.14,0,0,1-.63,2.05,16,16,0,0,1-6.86,1.42,8.93,8.93,0,0,1-6.76-2.71,9.58,9.58,0,0,1-2.94-6.8A10.23,10.23,0,0,1,403,45.78a9.16,9.16,0,0,1,6.88-3.19,32.71,32.71,0,0,1,7,.62,8.59,8.59,0,0,1,.23,1.94q.14,1.91.15,2.39t-.7.46a1,1,0,0,1-.42-.11,4.13,4.13,0,0,0-.46-1.09,7.55,7.55,0,0,0-1-1.25,4.51,4.51,0,0,0-1.87-1.13A8,8,0,0,0,410,44a5.16,5.16,0,0,0-4.47,2.52,10.08,10.08,0,0,0-1.47,5.81,10.76,10.76,0,0,0,2,6.3,5.94,5.94,0,0,0,5.22,2.47,5.44,5.44,0,0,0,4.15-1.77,4.06,4.06,0,0,0,.67-1.13q.29-.71.45-1.19c.1-.32.17-.48.21-.48Q417.82,56.54,417.94,56.81Z"/><path class="cls-1" d="M429.35,48.79q3.8-.1,4,5.76l.08,3.06a10.92,10.92,0,0,0,.31,2.67q0,.21.8.41a4.55,4.55,0,0,0,1,.2c.06,0,.1.14.11.43a3,3,0,0,1,0,.58L434,61.81q-1.38-.05-2,0c-.5,0-1.16.06-2,.14l-1.56.16a1.11,1.11,0,0,1-.1-.56c0-.3,0-.45.08-.45a3.56,3.56,0,0,0,1-.25c.44-.16.69-.31.75-.45a11.22,11.22,0,0,0,.12-2.17l-.07-2.91a6.21,6.21,0,0,0-.75-3.39,2.43,2.43,0,0,0-2.15-.88,2.84,2.84,0,0,0-1.62.55A1.4,1.4,0,0,0,425,52.7l.13,5.11a10.92,10.92,0,0,0,.31,2.67q.06.21.8.41a4.23,4.23,0,0,0,1,.2c.06,0,.1.14.12.43a1.64,1.64,0,0,1,0,.58L425.74,62q-1.32-.06-2,0t-2.06.14l-1.59.16a.87.87,0,0,1-.13-.56c0-.3,0-.45.11-.45a4.15,4.15,0,0,0,1.08-.25q.72-.24.78-.45a9.62,9.62,0,0,0,.15-2.15l-.31-12.36a11.64,11.64,0,0,0-.2-2q-.16-.47-1.56-.44h-.27q-.18,0-.19-.47c0-.32,0-.48.17-.48q.92-.11,1.75-.28c.55-.11,1-.22,1.37-.33s.68-.22.94-.32l.84-.32h.06a.32.32,0,0,1,.24.16.81.81,0,0,1,.16.31,9.57,9.57,0,0,0-.29,2.8l.15,6c0,.12,0,.18.12.18s.06,0,.12-.09A5.66,5.66,0,0,1,427,49.43,5.48,5.48,0,0,1,429.35,48.79Z"/><path class="cls-1" d="M442.63,57.37a11,11,0,0,0,.31,2.67q.07.21.81.41a4.38,4.38,0,0,0,1,.2c.08,0,.13.14.14.43a1.65,1.65,0,0,1,0,.58l-1.59-.08q-1.38-.05-2,0t-2.09.14l-1.56.16a.87.87,0,0,1-.13-.56c0-.3,0-.45.11-.45a4.31,4.31,0,0,0,1.06-.25c.49-.16.75-.31.79-.45a9.69,9.69,0,0,0,.15-2.17l-.12-4.84a2.83,2.83,0,0,0-.52-1.89,1.65,1.65,0,0,0-.69-.43,3.14,3.14,0,0,0-.72-.16q-.3,0-.3-.08,0-.86.16-.9a22.8,22.8,0,0,0,2.4-.42,23.33,23.33,0,0,0,2.33-.59l.24-.07c.1,0,.18.07.24.2a.54.54,0,0,1,.07.33,25.38,25.38,0,0,0-.17,2.56ZM439.22,45a1.81,1.81,0,0,1-.57-1.29,1.84,1.84,0,0,1,3.69-.09,1.81,1.81,0,0,1-.5,1.32,1.83,1.83,0,0,1-2.62.07Z"/><path class="cls-1" d="M456,48.11q3.83-.1,4,6l.07,2.82a12.42,12.42,0,0,0,.28,2.67q.06.21.83.41a4.54,4.54,0,0,0,1,.2c.06,0,.1.14.12.43a1.67,1.67,0,0,1,0,.58q-.18,0-1.56-.08t-2.07,0q-.71,0-2,.14l-1.53.16a.87.87,0,0,1-.13-.56c0-.3,0-.45.11-.45a3.54,3.54,0,0,0,1-.25c.44-.16.68-.31.72-.45a8.54,8.54,0,0,0,.18-2.18L457,54.69a6.46,6.46,0,0,0-.76-3.43,2.39,2.39,0,0,0-2.15-.93,2.75,2.75,0,0,0-1.65.56,1.43,1.43,0,0,0-.69,1.13l.13,5.11a12.48,12.48,0,0,0,.28,2.67c0,.14.31.27.8.41a4.3,4.3,0,0,0,1,.2c.08,0,.13.14.14.43a1.68,1.68,0,0,1,0,.58l-1.56-.08q-1.32-.06-2,0t-2.06.14l-1.59.16a.87.87,0,0,1-.13-.56c0-.3,0-.45.11-.45a4.14,4.14,0,0,0,1.08-.25q.72-.24.78-.45a9.69,9.69,0,0,0,.15-2.17l-.12-4.84a2.83,2.83,0,0,0-.52-1.89,1.44,1.44,0,0,0-.68-.43,3.37,3.37,0,0,0-.72-.16q-.28,0-.28-.08,0-.86.13-.9a42.12,42.12,0,0,0,4.76-1l.07,0,.09,0h.07c.08,0,.15.07.21.2a.9.9,0,0,1,.1.32,9.87,9.87,0,0,0-.09,1.07.23.23,0,0,0,0,.15A.45.45,0,0,0,452,50a6.6,6.6,0,0,1,1.8-1.3A5.21,5.21,0,0,1,456,48.11Z"/><path class="cls-1" d="M470.23,47.75a3.65,3.65,0,0,1,2.79.9,4.75,4.75,0,0,1,1,3.29l.15,5.85a1.35,1.35,0,0,0,.29.9.89.89,0,0,0,.72.29,1.86,1.86,0,0,0,1-.41c.12,0,.18.14.19.32a1.75,1.75,0,0,1-.16.9,7.32,7.32,0,0,1-1.17.77,3.09,3.09,0,0,1-1.42.42,2.17,2.17,0,0,1-1.35-.47,2.44,2.44,0,0,1-.89-1.08l-.22.2c-.13.11-.3.25-.52.41a8.61,8.61,0,0,1-.76.5,4.72,4.72,0,0,1-1,.43,4.31,4.31,0,0,1-1.17.19,3.55,3.55,0,0,1-2.44-.76,2.83,2.83,0,0,1-1-2.22,2.74,2.74,0,0,1,.31-1.35,3.56,3.56,0,0,1,.79-1,6.06,6.06,0,0,1,1.26-.82,12.23,12.23,0,0,1,1.37-.61l1.47-.5,1.25-.42A.47.47,0,0,0,471,53l0-1.63a2.56,2.56,0,0,0-.52-1.62,1.55,1.55,0,0,0-1.29-.56,1.8,1.8,0,0,0-1.38.59,2.22,2.22,0,0,0-.46,1.57,1,1,0,0,1-.42.89,1.85,1.85,0,0,1-1,.31,1.68,1.68,0,0,1-1.56-.67q0-1.43,1.88-2.72A7.46,7.46,0,0,1,470.23,47.75Zm-1,11.45a2.3,2.3,0,0,0,1.37-.45,1.18,1.18,0,0,0,.56-1l-.08-3c-.14.06-.43.17-.87.32s-.78.28-1,.38a8,8,0,0,0-.82.44,1.79,1.79,0,0,0-.68.67,1.64,1.64,0,0,0-.2.84,1.83,1.83,0,0,0,.51,1.38A1.71,1.71,0,0,0,469.18,59.19Z"/><path class="cls-1" d="M479.5,49.59l-1.81,0c-.14,0-.21-.25-.23-.77a.74.74,0,0,1,0-.27A8.34,8.34,0,0,0,479.73,47l.83-.9q.45-.5,1.05-1.29a2.12,2.12,0,0,1,.57.06c.18,0,.27.1.27.16l.07,2.91,2.16,0,1.47,0c.16,0,.24.08.25.26a2.88,2.88,0,0,1-.26,1.31l-3.57.09.18,7.16a2.81,2.81,0,0,0,.55,1.8,1.69,1.69,0,0,0,1.41.59,2.8,2.8,0,0,0,.62-.09,3.16,3.16,0,0,0,.53-.18l.38-.19.21-.09c.08,0,.17.07.27.26s.15.32.13.38a2.73,2.73,0,0,1-1.24,1,4.68,4.68,0,0,1-2.11.6,3.74,3.74,0,0,1-2.66-.93,4,4,0,0,1-1.16-3Z"/><path class="cls-1" d="M495.15,47.11A6.55,6.55,0,0,1,500,48.94a6.37,6.37,0,0,1,2.09,4.66,6.78,6.78,0,1,1-6.91-6.49Zm-.35,1.41a2.39,2.39,0,0,0-2.13,1.41,6.38,6.38,0,0,0-.69,3.24A8.66,8.66,0,0,0,493,57.34a3,3,0,0,0,2.73,1.71,2.43,2.43,0,0,0,2.15-1.42,6.32,6.32,0,0,0,.71-3.23,10.19,10.19,0,0,0-.46-2.86,5.25,5.25,0,0,0-1.3-2.18A2.76,2.76,0,0,0,494.8,48.52Z"/><path class="cls-1" d="M522.5,48.68a.86.86,0,0,0-.25-.6,1.31,1.31,0,0,0-.62-.34,5.4,5.4,0,0,0-.69-.13,4.3,4.3,0,0,0-.61,0h-.12c-.08,0-.13-.15-.15-.44s0-.48.06-.54q.39,0,1.58,0t1.9,0c.42,0,.95-.05,1.59-.13s1.11-.12,1.41-.12a1.86,1.86,0,0,1,.07.5c0,.3,0,.45-.11.45a3.38,3.38,0,0,0-1.16.4,1.82,1.82,0,0,0-1,.93l-4.13,10.6a1.16,1.16,0,0,1-.39.44,1,1,0,0,1-.58.21.38.38,0,0,1-.39-.2l-3.83-8.11-3,7.84a1.61,1.61,0,0,1-.33.43.9.9,0,0,1-.63.25.44.44,0,0,1-.42-.2Q510,58.45,509,56.26t-1.81-3.86q-.82-1.67-1.88-3.64a1.36,1.36,0,0,0-.79-.57,2.87,2.87,0,0,0-1-.18c-.08,0-.12-.16-.13-.47s0-.45.11-.51.7,0,1.5.05,1.43.05,1.89,0,1.13-.06,2-.14l1.54-.13a1.62,1.62,0,0,1,.07.53c0,.26,0,.4-.08.42a3.53,3.53,0,0,0-1,.23q-.63.22-.62.64S509.9,51,512,55.43q.31-.84.71-1.91l.61-1.62.42-1.13q.21-.57.29-.85a1.61,1.61,0,0,0,.08-.37,2.17,2.17,0,0,0-.42-1.18,1.41,1.41,0,0,0-.67-.46,2.37,2.37,0,0,0-1.07-.15c-.08,0-.12-.14-.13-.43s0-.46.11-.52.71,0,1.47.05,1.38.05,1.86,0,1.08-.06,1.93-.14l1.51-.13a1.41,1.41,0,0,1,.06.55c0,.29,0,.43-.09.43q-1.52,0-1.49,1.08,0,.57,3,6.53.44-1.26,1.1-3t1-2.52A4,4,0,0,0,522.5,48.68Z"/><path class="cls-1" d="M538.05,46q3.83-.1,4,6l.07,2.82a12.42,12.42,0,0,0,.28,2.67q.06.21.83.41a4.57,4.57,0,0,0,1,.2c.06,0,.1.14.12.43a1.67,1.67,0,0,1,0,.58q-.18,0-1.56-.08t-2.07,0q-.71,0-2,.14l-1.53.16a.87.87,0,0,1-.13-.56c0-.3,0-.45.11-.45a3.54,3.54,0,0,0,1-.25c.44-.16.68-.31.72-.45a8.49,8.49,0,0,0,.18-2.18L539,52.6a6.45,6.45,0,0,0-.76-3.43,2.39,2.39,0,0,0-2.15-.93,2.75,2.75,0,0,0-1.65.56,1.43,1.43,0,0,0-.69,1.13l.13,5.11a12.48,12.48,0,0,0,.28,2.67c0,.14.31.27.8.41a4.28,4.28,0,0,0,1,.2c.08,0,.13.14.14.43a1.68,1.68,0,0,1,0,.58l-1.56-.08q-1.32-.06-2,0t-2.06.14l-1.59.16a.87.87,0,0,1-.13-.56c0-.3,0-.45.11-.45a4.15,4.15,0,0,0,1.08-.25q.72-.24.78-.45a9.69,9.69,0,0,0,.15-2.17l-.12-4.84a2.83,2.83,0,0,0-.52-1.89,1.44,1.44,0,0,0-.68-.43,3.39,3.39,0,0,0-.72-.16q-.28,0-.28-.08,0-.86.13-.9a42.15,42.15,0,0,0,4.76-1l.07,0,.09,0h.07c.08,0,.15.07.21.2a.9.9,0,0,1,.1.32,9.87,9.87,0,0,0-.09,1.07.23.23,0,0,0,0,.15.44.44,0,0,0,.15-.09,6.6,6.6,0,0,1,1.8-1.3A5.21,5.21,0,0,1,538.05,46Z"/><path class="cls-1" d="M156.62,84.72a3.65,3.65,0,0,1,2.77,1,4.75,4.75,0,0,1,.93,3.31v5.86a1.36,1.36,0,0,0,.27.91.89.89,0,0,0,.71.31,1.85,1.85,0,0,0,1-.39c.12,0,.18.15.18.33a1.77,1.77,0,0,1-.18.89,7.4,7.4,0,0,1-1.19.75,3.1,3.1,0,0,1-1.43.39,2.17,2.17,0,0,1-1.34-.5,2.44,2.44,0,0,1-.86-1.1l-.22.19c-.13.11-.31.24-.54.4a8.66,8.66,0,0,1-.77.48,4.72,4.72,0,0,1-1,.4,4.33,4.33,0,0,1-1.17.17,3.54,3.54,0,0,1-2.42-.81,2.82,2.82,0,0,1-.94-2.24,2.74,2.74,0,0,1,.34-1.34,3.55,3.55,0,0,1,.82-1,6.08,6.08,0,0,1,1.28-.79,12.28,12.28,0,0,1,1.38-.58l1.49-.46,1.26-.39a.47.47,0,0,0,.27-.48V88.32a2.56,2.56,0,0,0-.48-1.63,1.55,1.55,0,0,0-1.28-.59,1.8,1.8,0,0,0-1.4.55,2.22,2.22,0,0,0-.5,1.56,1,1,0,0,1-.44.88,1.85,1.85,0,0,1-1,.28,1.68,1.68,0,0,1-1.55-.71q0-1.43,1.94-2.68A7.46,7.46,0,0,1,156.62,84.72ZM155.3,96.14a2.31,2.31,0,0,0,1.38-.42,1.18,1.18,0,0,0,.58-1v-3q-.21.09-.88.3c-.45.14-.79.26-1,.36a8,8,0,0,0-.83.42,1.79,1.79,0,0,0-.7.66,1.65,1.65,0,0,0-.22.83,1.84,1.84,0,0,0,.48,1.4A1.71,1.71,0,0,0,155.3,96.14Z"/><path class="cls-1" d="M173.84,84.69q3.83,0,3.85,6.09V93.6a12.45,12.45,0,0,0,.21,2.68q.06.21.82.43a4.58,4.58,0,0,0,1,.22c.06,0,.09.14.11.43a1.71,1.71,0,0,1,0,.58c-.12,0-.64-.06-1.56-.12s-1.61-.09-2.07-.09-1.13,0-2,.09l-1.53.12a.88.88,0,0,1-.12-.56c0-.3,0-.45.12-.45a3.54,3.54,0,0,0,1-.22c.45-.15.69-.29.73-.43a8.57,8.57,0,0,0,.23-2.17V91.29a6.45,6.45,0,0,0-.68-3.45,2.39,2.39,0,0,0-2.13-1,2.75,2.75,0,0,0-1.66.52,1.43,1.43,0,0,0-.71,1.12v5.11a12.45,12.45,0,0,0,.21,2.68q.06.21.79.43a4.27,4.27,0,0,0,1,.22c.08,0,.12.14.13.43a1.71,1.71,0,0,1,0,.58L170,97.84q-1.32-.09-2-.09t-2.07.09l-1.59.12a.87.87,0,0,1-.12-.56c0-.3,0-.45.12-.45a4.16,4.16,0,0,0,1.08-.22q.73-.22.79-.43a9.73,9.73,0,0,0,.2-2.17V89.28a2.83,2.83,0,0,0-.48-1.9,1.43,1.43,0,0,0-.67-.44,3.41,3.41,0,0,0-.71-.18c-.19,0-.28,0-.28-.09,0-.57,0-.87.15-.89a42.1,42.1,0,0,0,4.78-.9l.08,0,.09,0h.07c.08,0,.15.07.21.21a.92.92,0,0,1,.09.33,9.94,9.94,0,0,0-.12,1.07c0,.08,0,.13,0,.15a.44.44,0,0,0,.15-.09,6.61,6.61,0,0,1,1.83-1.25A5.2,5.2,0,0,1,173.84,84.69Z"/><path class="cls-1" d="M188.47,84.6a5.11,5.11,0,0,1,2.17.41c.1,0,.15-.16.15-.48V81.75a10.33,10.33,0,0,0-.18-2q-.15-.47-1.55-.47h-.24c-.12,0-.18-.16-.18-.48s.06-.48.18-.48q.89-.09,1.74-.24t1.4-.3q.55-.15,1-.3l.61-.22.24-.07h.06a.32.32,0,0,1,.24.16.54.54,0,0,1,.12.31,11.37,11.37,0,0,0-.29,2.8l0,13.08a10.9,10.9,0,0,0,.18,2.2.44.44,0,0,0,.3.33,1.8,1.8,0,0,0,.56.15l.57,0h.3a.62.62,0,0,1,.06.36c0,.4-.06.59-.18.59q-.42,0-1.05.12l-1.25.2-1.16.21L191,98q-.18,0-.18-.5V97a.13.13,0,0,0,0-.12.05.05,0,0,0-.07,0,5,5,0,0,1-3.09,1.1,5.76,5.76,0,0,1-4.19-1.76,6,6,0,0,1-1.79-4.44,7,7,0,0,1,2-5A6.51,6.51,0,0,1,188.47,84.6ZM188.21,86a2.6,2.6,0,0,0-2.38,1.34A7,7,0,0,0,185,91a7.16,7.16,0,0,0,.93,3.94,2.92,2.92,0,0,0,2.59,1.41,2.47,2.47,0,0,0,1.63-.52,1.64,1.64,0,0,0,.62-1.32V88.23a2.09,2.09,0,0,0-.1-.62,2.8,2.8,0,0,0-.36-.7,1.9,1.9,0,0,0-.8-.62A3.16,3.16,0,0,0,188.21,86Z"/><path class="cls-1" d="M205.79,86.71H204c-.14,0-.21-.26-.21-.77a.7.7,0,0,1,0-.27,8.34,8.34,0,0,0,2.29-1.58l.84-.88q.46-.49,1.08-1.27a2.12,2.12,0,0,1,.57.07c.18,0,.27.1.27.16V85.1h3.63c.16,0,.24.09.24.27a2.88,2.88,0,0,1-.3,1.31h-3.57v7.16a2.82,2.82,0,0,0,.51,1.81,1.7,1.7,0,0,0,1.4.62,2.82,2.82,0,0,0,.62-.08,3.15,3.15,0,0,0,.53-.16l.39-.18.21-.09c.08,0,.17.07.27.27a.7.7,0,0,1,.12.39,2.73,2.73,0,0,1-1.26,1,4.7,4.7,0,0,1-2.12.55,3.75,3.75,0,0,1-2.63-1,4,4,0,0,1-1.09-3.08Z"/><path class="cls-1" d="M224.5,84.6q3.81,0,3.82,5.85v3.06a10.9,10.9,0,0,0,.24,2.68c0,.14.28.28.79.43a4.57,4.57,0,0,0,1,.22c.06,0,.09.14.1.43a3.05,3.05,0,0,1,0,.58l-1.59-.12q-1.38-.09-2-.09t-2,.09l-1.56.12a1.11,1.11,0,0,1-.09-.56c0-.3,0-.45.09-.45a3.55,3.55,0,0,0,1-.22q.67-.22.76-.43a11.29,11.29,0,0,0,.17-2.17V91.11a6.19,6.19,0,0,0-.68-3.4,2.43,2.43,0,0,0-2.13-.93,2.85,2.85,0,0,0-1.63.51,1.4,1.4,0,0,0-.74,1.13v5.11a10.9,10.9,0,0,0,.24,2.68c0,.14.3.28.79.43a4.21,4.21,0,0,0,1,.22c.06,0,.09.14.1.43a1.68,1.68,0,0,1,0,.58l-1.56-.12q-1.32-.09-2-.09t-2.07.09l-1.59.12a.88.88,0,0,1-.12-.56c0-.3,0-.45.12-.45a4.17,4.17,0,0,0,1.08-.22q.73-.22.79-.43a9.63,9.63,0,0,0,.2-2.14l0-12.37a11.83,11.83,0,0,0-.15-2q-.15-.47-1.55-.47H215q-.18,0-.18-.48t.18-.48q.92-.09,1.75-.24t1.38-.3q.55-.15,1-.3l.85-.3H220a.32.32,0,0,1,.24.16.84.84,0,0,1,.15.31,9.59,9.59,0,0,0-.35,2.8v6c0,.12,0,.18.12.18s.06,0,.12-.09a5.65,5.65,0,0,1,1.83-1.3A5.48,5.48,0,0,1,224.5,84.6Z"/><path class="cls-1" d="M238.36,84.57a5.51,5.51,0,0,1,2.5.55,4.71,4.71,0,0,1,1.73,1.39,6.9,6.9,0,0,1,1,1.75,5.11,5.11,0,0,1,.33,1.74c0,.44-.07.71-.22.82a1.69,1.69,0,0,1-.91.17h-7.1c-.14,0-.21.06-.21.18a5.77,5.77,0,0,0,.39,2.08A4.09,4.09,0,0,0,237.14,95a3.5,3.5,0,0,0,2.25.74,8.06,8.06,0,0,0,.86,0,4.4,4.4,0,0,0,.77-.15l.62-.19a2.53,2.53,0,0,0,.55-.27l.4-.25.59-.4a.48.48,0,0,1,.15.18.57.57,0,0,1,.09.3.91.91,0,0,1-.18.57,4.83,4.83,0,0,1-1.75,1.61,5.51,5.51,0,0,1-2.94.81A6,6,0,0,1,234.1,96a6.41,6.41,0,0,1-1.88-4.65,6.87,6.87,0,0,1,1.73-4.88A5.76,5.76,0,0,1,238.36,84.57Zm-.21,1.37a2.1,2.1,0,0,0-1.28.42,2.79,2.79,0,0,0-.86,1,5.73,5.73,0,0,0-.43,1.12,3.69,3.69,0,0,0-.13.88q0,.21.18.21h4.82c.18,0,.27-.15.27-.45A3.86,3.86,0,0,0,240,87,2.13,2.13,0,0,0,238.15,85.94Z"/><path class="cls-1" d="M260.51,77a5.85,5.85,0,0,1,2.07.31,2.08,2.08,0,0,1,1.09.76,3.33,3.33,0,0,1-.16,1.65,1.07,1.07,0,0,1-1.08.73,1.16,1.16,0,0,1-.91-.49q-.4-.49-.85-1a1.37,1.37,0,0,0-1-.49,1.58,1.58,0,0,0-1.34.78,5,5,0,0,0-.75,1.87,12.1,12.1,0,0,0-.22,2.41v1.37s0,0,.06.09a.17.17,0,0,0,.12.06h3.27a.24.24,0,0,1,.15,0,.31.31,0,0,1,0,.18,3,3,0,0,1-.35,1.37h-3.09a.16.16,0,0,0-.18.18v6.63a11.35,11.35,0,0,0,.24,2.68c0,.14.3.28.79.43a4.2,4.2,0,0,0,1,.22c.06,0,.09.14.1.43a1.71,1.71,0,0,1,0,.58q-.18,0-1.55-.12t-2.08-.09q-.71,0-2,.09l-1.55.12a.57.57,0,0,1-.12-.33,1.78,1.78,0,0,1,0-.46c0-.15.06-.22.12-.22a4,4,0,0,0,1-.22q.71-.22.77-.43a9.86,9.86,0,0,0,.26-2.44V86.86c0-.14-.06-.21-.18-.21h-1.78s-.06-.06-.06-.18a1.59,1.59,0,0,1,.42-.86,1.19,1.19,0,0,1,1-.54h.48a.16.16,0,0,0,.18-.18v-.3a8.09,8.09,0,0,1,1.85-5.35A5.56,5.56,0,0,1,260.51,77Z"/><path class="cls-1" d="M269.45,84.52a6.55,6.55,0,0,1,4.77,1.94,6.37,6.37,0,0,1,2,4.71,6.73,6.73,0,0,1-13.47,0,6.4,6.4,0,0,1,1.94-4.73A6.51,6.51,0,0,1,269.45,84.52Zm-.38,1.4a2.39,2.39,0,0,0-2.17,1.36,6.4,6.4,0,0,0-.77,3.23,8.66,8.66,0,0,0,1,4.19,3,3,0,0,0,2.69,1.78A2.42,2.42,0,0,0,272,95.1a6.31,6.31,0,0,0,.78-3.21,10.18,10.18,0,0,0-.39-2.87,5.24,5.24,0,0,0-1.25-2.21A2.75,2.75,0,0,0,269.06,85.92Z"/><path class="cls-1" d="M291.1,87.69v5.89a6.55,6.55,0,0,0,.24,2.08.62.62,0,0,0,.34.24,2.31,2.31,0,0,0,.52.12l.49,0a.55.55,0,0,1,.25,0c.08,0,.12.11.12.27a2.29,2.29,0,0,1-.06.4c0,.19-.1.28-.18.28a6.87,6.87,0,0,0-1.06.11l-1.23.21-1.13.22-1.19.24c-.14,0-.21-.16-.21-.48V96c0-.1,0-.15-.09-.15a6.63,6.63,0,0,1-1.81,1.34,5,5,0,0,1-2.35.6,3.11,3.11,0,0,1-1.77-.5A3.58,3.58,0,0,1,280.81,96a6.37,6.37,0,0,1-.63-1.72,9.09,9.09,0,0,1-.2-1.87V89.08a2.83,2.83,0,0,0-.48-1.9,1.66,1.66,0,0,0-.68-.44,3.12,3.12,0,0,0-.71-.18c-.2,0-.3,0-.3-.09q0-.86.15-.89a22.36,22.36,0,0,0,2.44-.36,23.37,23.37,0,0,0,2.35-.54l.12,0,.12,0c.1,0,.17.07.22.21a1.05,1.05,0,0,1,.08.33q-.26,2-.26,2.62v3.57a6.35,6.35,0,0,0,.66,3.33,2.62,2.62,0,0,0,3.72.42,1.58,1.58,0,0,0,.65-1.12V89.06a2.83,2.83,0,0,0-.48-1.9,1.44,1.44,0,0,0-.67-.44,3.37,3.37,0,0,0-.73-.18q-.3,0-.3-.09,0-.86.18-.89a22.75,22.75,0,0,0,2.41-.36,23.23,23.23,0,0,0,2.35-.54l.24-.06c.1,0,.18.07.24.21a.54.54,0,0,1,.06.33Q291.1,87.16,291.1,87.69Z"/><path class="cls-1" d="M304.63,84.45q3.83,0,3.85,6.09v2.82a12.45,12.45,0,0,0,.21,2.68q.06.21.82.43a4.54,4.54,0,0,0,1,.22c.06,0,.09.14.1.43a1.68,1.68,0,0,1,0,.58q-.18,0-1.56-.12T307,97.5q-.71,0-2,.09l-1.53.12a.87.87,0,0,1-.12-.56c0-.3,0-.45.12-.45a3.54,3.54,0,0,0,1-.22c.45-.15.69-.29.73-.43a8.48,8.48,0,0,0,.23-2.17V91.05a6.46,6.46,0,0,0-.67-3.45,2.39,2.39,0,0,0-2.13-1,2.75,2.75,0,0,0-1.66.52,1.43,1.43,0,0,0-.71,1.12v5.11a12.51,12.51,0,0,0,.21,2.68c0,.14.3.28.79.43a4.3,4.3,0,0,0,1,.22c.08,0,.12.14.13.43a1.69,1.69,0,0,1,0,.58l-1.56-.12q-1.32-.09-2-.09t-2.07.09l-1.59.12a.88.88,0,0,1-.12-.56c0-.3,0-.45.12-.45a4.15,4.15,0,0,0,1.08-.22q.73-.22.79-.43a9.68,9.68,0,0,0,.2-2.17V89a2.83,2.83,0,0,0-.48-1.9,1.44,1.44,0,0,0-.67-.44,3.38,3.38,0,0,0-.71-.18c-.19,0-.28,0-.28-.09,0-.57,0-.87.15-.89a42.12,42.12,0,0,0,4.79-.9l.07,0,.09,0h.07c.08,0,.15.07.21.21a.89.89,0,0,1,.09.33,10,10,0,0,0-.12,1.07.24.24,0,0,0,0,.15.45.45,0,0,0,.15-.09A6.59,6.59,0,0,1,302.36,85,5.2,5.2,0,0,1,304.63,84.45Z"/><path class="cls-1" d="M319.26,84.37a5.11,5.11,0,0,1,2.17.41q.15,0,.15-.48V81.51a10.33,10.33,0,0,0-.18-2q-.15-.47-1.55-.47h-.24q-.18,0-.18-.48t.18-.48q.89-.09,1.74-.24t1.4-.3q.55-.15,1-.3l.61-.22.24-.07h.06a.32.32,0,0,1,.24.16.55.55,0,0,1,.12.31,11.37,11.37,0,0,0-.29,2.8l0,13.08a10.9,10.9,0,0,0,.18,2.2.44.44,0,0,0,.3.33,1.8,1.8,0,0,0,.56.15l.57,0h.3a.61.61,0,0,1,.06.36q0,.59-.18.59-.42,0-1.05.12l-1.25.2-1.16.21-1.23.25c-.12,0-.18-.17-.18-.5v-.51a.13.13,0,0,0,0-.12.05.05,0,0,0-.07,0,5,5,0,0,1-3.09,1.1A5.76,5.76,0,0,1,314.2,96a6,6,0,0,1-1.79-4.44,7,7,0,0,1,2-5A6.51,6.51,0,0,1,319.26,84.37ZM319,85.8a2.6,2.6,0,0,0-2.37,1.34,7,7,0,0,0-.8,3.6,7.17,7.17,0,0,0,.93,3.94,2.92,2.92,0,0,0,2.59,1.41,2.47,2.47,0,0,0,1.63-.52,1.64,1.64,0,0,0,.62-1.32V88a2,2,0,0,0-.11-.62,2.77,2.77,0,0,0-.36-.7,1.9,1.9,0,0,0-.8-.62A3.16,3.16,0,0,0,319,85.8Z"/><path class="cls-1" d="M333.64,93.32a11,11,0,0,0,.24,2.68q.06.21.8.43a4.39,4.39,0,0,0,1,.22c.08,0,.12.14.13.43a1.66,1.66,0,0,1,0,.58l-1.59-.12q-1.38-.09-2-.09t-2.1.09l-1.56.12a.88.88,0,0,1-.12-.56c0-.3,0-.45.12-.45a4.32,4.32,0,0,0,1.07-.22q.74-.22.8-.43a9.68,9.68,0,0,0,.2-2.17V89a2.83,2.83,0,0,0-.48-1.9,1.66,1.66,0,0,0-.68-.44,3.13,3.13,0,0,0-.71-.18c-.2,0-.3,0-.3-.09,0-.57.06-.87.18-.89a22.75,22.75,0,0,0,2.41-.36,23.23,23.23,0,0,0,2.35-.54l.24-.06c.1,0,.18.07.24.21a.54.54,0,0,1,.06.33,25.44,25.44,0,0,0-.23,2.56Zm-3.11-12.44a1.81,1.81,0,0,1-.54-1.31,1.76,1.76,0,0,1,.53-1.29,1.84,1.84,0,0,1,3.15,1.29,1.81,1.81,0,0,1-.53,1.31,1.83,1.83,0,0,1-2.62,0Z"/><path class="cls-1" d="M347.28,84.38q3.83,0,3.85,6.09v2.82a12.45,12.45,0,0,0,.21,2.68q.06.21.82.43a4.54,4.54,0,0,0,1,.22c.06,0,.09.14.1.43a1.68,1.68,0,0,1,0,.58q-.18,0-1.56-.12t-2.07-.09q-.71,0-2,.09l-1.53.12a.87.87,0,0,1-.12-.56c0-.3,0-.45.12-.45a3.54,3.54,0,0,0,1-.22c.45-.15.69-.29.73-.43a8.48,8.48,0,0,0,.23-2.17V91a6.46,6.46,0,0,0-.67-3.45,2.39,2.39,0,0,0-2.13-1,2.75,2.75,0,0,0-1.66.52,1.43,1.43,0,0,0-.71,1.12V93.3a12.51,12.51,0,0,0,.21,2.68c0,.14.3.28.79.43a4.3,4.3,0,0,0,1,.22c.08,0,.12.14.13.43a1.69,1.69,0,0,1,0,.58l-1.56-.12q-1.32-.09-2-.09t-2.07.09l-1.59.12a.88.88,0,0,1-.12-.56c0-.3,0-.45.12-.45a4.15,4.15,0,0,0,1.08-.22q.73-.22.79-.43a9.68,9.68,0,0,0,.2-2.17V89a2.83,2.83,0,0,0-.48-1.9,1.44,1.44,0,0,0-.67-.44,3.36,3.36,0,0,0-.71-.18c-.19,0-.28,0-.28-.09,0-.57,0-.87.15-.89a42.08,42.08,0,0,0,4.79-.9l.07,0,.09,0h.07c.08,0,.15.07.21.21a.89.89,0,0,1,.09.33,10,10,0,0,0-.12,1.07.24.24,0,0,0,0,.15.45.45,0,0,0,.15-.09A6.59,6.59,0,0,1,345,84.92,5.2,5.2,0,0,1,347.28,84.38Z"/><path class="cls-1" d="M360.9,84.41a9.43,9.43,0,0,1,2.47.38,9.16,9.16,0,0,0,2.38.38h1.7s.11.13.21.39a1.81,1.81,0,0,1,.15.59q0,.42-.18.42h-1.93c-.08,0-.12,0-.12.09s.09.28.27.77a4.25,4.25,0,0,1,.27,1.43A4.3,4.3,0,0,1,364.65,92,5.09,5.09,0,0,1,361,93.45a12.27,12.27,0,0,1-1.84-.12,1.6,1.6,0,0,0-.65.55,1.26,1.26,0,0,0-.3.73.61.61,0,0,0,.28.5,2,2,0,0,0,.88.3c.4.06.73.1,1,.12l1.19.06H362a10.5,10.5,0,0,1,4.36.81,2.34,2.34,0,0,1,1.39,2.18,4.67,4.67,0,0,1-2.13,3.87,8.13,8.13,0,0,1-5,1.64,7.72,7.72,0,0,1-3.79-.83,2.67,2.67,0,0,1-1.62-2.43,2.31,2.31,0,0,1,.84-1.67A4.93,4.93,0,0,1,357.84,98a3.38,3.38,0,0,1-1.43-.9,2.16,2.16,0,0,1-.66-1.56q0-1.28,2.2-2.65a3.93,3.93,0,0,1-1.61-1.53,4.38,4.38,0,0,1-.75-2.42,4,4,0,0,1,1.54-3.33A5.91,5.91,0,0,1,360.9,84.41ZM365,100q0-1-1.5-1.38a18.86,18.86,0,0,0-4-.33l-.15,0-.15.09q-.39.15-.59.25a2.54,2.54,0,0,0-.47.33,1.42,1.42,0,0,0-.4.52,1.74,1.74,0,0,0-.13.71,2.08,2.08,0,0,0,1.13,1.78,4.63,4.63,0,0,0,2.53.71,4.49,4.49,0,0,0,2.72-.78A2.32,2.32,0,0,0,365,100Zm-6.38-11.23a4.7,4.7,0,0,0,.6,2.45,1.85,1.85,0,0,0,1.67,1,1.77,1.77,0,0,0,1.62-.85,3.94,3.94,0,0,0,.52-2.1,4.88,4.88,0,0,0-.6-2.56,1.9,1.9,0,0,0-1.73-1,1.68,1.68,0,0,0-1.57.92A4.31,4.31,0,0,0,358.65,88.73Z"/><path class="cls-1" d="M382.95,84.31a6.55,6.55,0,0,1,4.77,1.94,6.37,6.37,0,0,1,2,4.71,6.78,6.78,0,1,1-6.76-6.65Zm-.38,1.4a2.39,2.39,0,0,0-2.17,1.36,6.4,6.4,0,0,0-.77,3.23,8.66,8.66,0,0,0,1,4.19,3,3,0,0,0,2.69,1.78,2.42,2.42,0,0,0,2.18-1.37,6.31,6.31,0,0,0,.78-3.21,10.18,10.18,0,0,0-.39-2.87,5.24,5.24,0,0,0-1.25-2.21A2.76,2.76,0,0,0,382.56,85.71Z"/><path class="cls-1" d="M400.06,76.76a5.86,5.86,0,0,1,2.07.31,2.08,2.08,0,0,1,1.09.76,3.33,3.33,0,0,1-.16,1.65,1.07,1.07,0,0,1-1.08.73,1.16,1.16,0,0,1-.91-.49q-.4-.49-.85-1a1.37,1.37,0,0,0-1-.49,1.58,1.58,0,0,0-1.34.78,5,5,0,0,0-.75,1.87,12,12,0,0,0-.22,2.41v1.37s0,0,.06.09a.17.17,0,0,0,.12.06h3.27a.24.24,0,0,1,.15,0,.31.31,0,0,1,0,.18,3.06,3.06,0,0,1-.35,1.37H397a.16.16,0,0,0-.18.18v6.63a11.4,11.4,0,0,0,.24,2.68q.06.21.79.43a4.24,4.24,0,0,0,1,.22c.06,0,.09.14.1.43a1.66,1.66,0,0,1,0,.58q-.18,0-1.55-.12t-2.08-.09q-.71,0-2,.09l-1.55.12a.56.56,0,0,1-.12-.33,1.82,1.82,0,0,1,0-.46c0-.15.06-.22.12-.22a4,4,0,0,0,1-.22q.71-.22.77-.43a9.81,9.81,0,0,0,.26-2.44V86.61c0-.14-.06-.21-.18-.21h-1.78s-.06-.06-.06-.18a1.59,1.59,0,0,1,.42-.86,1.19,1.19,0,0,1,1-.54h.48a.16.16,0,0,0,.18-.18v-.3A8.08,8.08,0,0,1,395.68,79,5.56,5.56,0,0,1,400.06,76.76Z"/><path class="cls-1" d="M412.18,77.9q.33,0,3.6-.18a5.44,5.44,0,0,1,0,.56c0,.26,0,.4-.1.42a2.91,2.91,0,0,0-.48,0,1.65,1.65,0,0,0-.61.27.69.69,0,0,0-.34.61,3.74,3.74,0,0,0,.54,1.57l5.85,11.49c.06.1.13.12.22.07a.46.46,0,0,0,.19-.19l2.16-4.23-3.19-6.42a12.57,12.57,0,0,0-1.52-2.52,2.1,2.1,0,0,0-.79-.5,2.56,2.56,0,0,0-.94-.21q-.12,0-.12-.51a.77.77,0,0,1,.09-.48l3.92.17,3.51-.18a2.26,2.26,0,0,1,.08.56c0,.26,0,.4-.07.42a2.7,2.7,0,0,0-.55.06,1.49,1.49,0,0,0-.58.28.69.69,0,0,0-.3.58,4.15,4.15,0,0,0,.54,1.54l1.82,3.71,1.75-3.6a4.09,4.09,0,0,0,.53-1.64c0-.36-.24-.61-.73-.76a4.42,4.42,0,0,0-1.26-.22c-.08,0-.12-.14-.12-.42a1,1,0,0,1,.09-.54q2.62.17,3.27.17t1.23,0l1.17-.08,1-.08a1.93,1.93,0,0,1,.06.55c0,.25,0,.38-.09.4a3.56,3.56,0,0,0-1.08.27,2.39,2.39,0,0,0-1,.63,14.77,14.77,0,0,0-1.69,2.8l-2.16,4.4L429,92.61q.18.3.39-.15.59-1.4,2.78-6t2.4-5.12a4.48,4.48,0,0,0,.53-1.67q0-.54-.71-.77a3.94,3.94,0,0,0-1.19-.24c-.08,0-.12-.14-.13-.42a.76.76,0,0,1,.1-.54q2.62.17,3.29.17t1.2,0l1.13-.08,1-.08a2.3,2.3,0,0,1,.06.59c0,.24,0,.36-.12.36a3.21,3.21,0,0,0-1,.25,2.81,2.81,0,0,0-1,.58A13.18,13.18,0,0,0,436,82.29l-6.78,14.43a2,2,0,0,1-.55.71,1,1,0,0,1-.55.24.4.4,0,0,1-.3-.12l-3.64-7.31-3.38,6.49a2.16,2.16,0,0,1-.55.73.74.74,0,0,1-.52.22.4.4,0,0,1-.3-.12l-7.91-15.62A16.21,16.21,0,0,0,410,79.36a1.65,1.65,0,0,0-.82-.47,3.34,3.34,0,0,0-.94-.18q-.12,0-.12-.48a.85.85,0,0,1,.09-.51Z"/><path class="cls-1" d="M444.64,94.28a1.94,1.94,0,0,1,.58,1.4,2,2,0,0,1-.58,1.41,1.84,1.84,0,0,1-1.38.61,1.92,1.92,0,0,1-1.43-.61,2,2,0,0,1-.6-1.41,1.91,1.91,0,0,1,.59-1.4,1.94,1.94,0,0,1,1.42-.6A1.86,1.86,0,0,1,444.64,94.28Z"/><path class="cls-1" d="M449.89,94.69a10.45,10.45,0,0,1,0-14.22,9.13,9.13,0,0,1,13.45,0,10.41,10.41,0,0,1,0,14.22,9.16,9.16,0,0,1-13.45,0Zm6.24-15.74a4.28,4.28,0,0,0-3.91,2.34,11.05,11.05,0,0,0-1.34,5.64,14.64,14.64,0,0,0,.62,4.25,8.27,8.27,0,0,0,2.07,3.49,4.76,4.76,0,0,0,3.51,1.47A4.32,4.32,0,0,0,461,93.76a11,11,0,0,0,1.37-5.64,15,15,0,0,0-.6-4.29,8,8,0,0,0-2.06-3.44A4.88,4.88,0,0,0,456.14,78.95Z"/><path class="cls-1" d="M471.52,94.23a1.94,1.94,0,0,1,.58,1.4,2,2,0,0,1-.58,1.41,1.84,1.84,0,0,1-1.38.61,1.92,1.92,0,0,1-1.43-.61,2,2,0,0,1-.6-1.41,1.91,1.91,0,0,1,.59-1.4,1.94,1.94,0,0,1,1.42-.6A1.86,1.86,0,0,1,471.52,94.23Z"/><path class="cls-1" d="M477.4,77.78q.33,0,3.6-.18a5.45,5.45,0,0,1,0,.56c0,.26,0,.4-.1.42a2.94,2.94,0,0,0-.48,0,1.65,1.65,0,0,0-.61.27.69.69,0,0,0-.34.61,3.73,3.73,0,0,0,.54,1.57l5.85,11.49c.06.1.13.12.22.07a.46.46,0,0,0,.19-.19l2.16-4.23-3.19-6.42a12.56,12.56,0,0,0-1.52-2.52,2.09,2.09,0,0,0-.79-.5,2.56,2.56,0,0,0-.94-.21q-.12,0-.12-.51a.77.77,0,0,1,.09-.48l3.92.17,3.51-.18a2.26,2.26,0,0,1,.08.56c0,.26,0,.4-.07.42a2.66,2.66,0,0,0-.55.06,1.49,1.49,0,0,0-.58.28.69.69,0,0,0-.3.58,4.15,4.15,0,0,0,.54,1.54l1.82,3.71,1.75-3.6a4.09,4.09,0,0,0,.53-1.64c0-.36-.24-.61-.73-.76a4.41,4.41,0,0,0-1.26-.22c-.08,0-.12-.14-.12-.42a1,1,0,0,1,.09-.54q2.62.17,3.27.17t1.23,0l1.17-.08,1-.08a1.93,1.93,0,0,1,.06.55c0,.25,0,.38-.09.4a3.54,3.54,0,0,0-1.08.27,2.39,2.39,0,0,0-1,.63,14.77,14.77,0,0,0-1.69,2.8l-2.16,4.4,2.89,5.88q.18.3.39-.15.59-1.4,2.78-6t2.4-5.12a4.48,4.48,0,0,0,.53-1.67q0-.54-.71-.77a3.94,3.94,0,0,0-1.19-.24c-.08,0-.12-.14-.13-.42a.76.76,0,0,1,.1-.54q2.62.17,3.29.17t1.2,0l1.13-.08,1-.08a2.3,2.3,0,0,1,.06.59c0,.24,0,.36-.12.36a3.21,3.21,0,0,0-1,.25,2.8,2.8,0,0,0-1,.58,13.18,13.18,0,0,0-1.72,2.83L494.44,96.6a2,2,0,0,1-.55.71,1,1,0,0,1-.55.24.4.4,0,0,1-.3-.12l-3.64-7.31L486,96.61a2.16,2.16,0,0,1-.55.73.74.74,0,0,1-.52.22.4.4,0,0,1-.3-.12l-7.91-15.62a16.21,16.21,0,0,0-1.55-2.58,1.65,1.65,0,0,0-.82-.47,3.35,3.35,0,0,0-.94-.18q-.12,0-.12-.48a.85.85,0,0,1,.09-.51Z"/><path class="cls-1" d="M509.86,94.16a1.94,1.94,0,0,1,.58,1.4,2,2,0,0,1-.58,1.41,1.84,1.84,0,0,1-1.38.61,1.92,1.92,0,0,1-1.43-.61,2,2,0,0,1-.6-1.41,1.91,1.91,0,0,1,.59-1.4,1.94,1.94,0,0,1,1.42-.6A1.86,1.86,0,0,1,509.86,94.16Z"/><path class="cls-1" d="M522.91,77.64q.86,0,2,0t2,0a9.64,9.64,0,0,1,1.77.16,7.15,7.15,0,0,1,1.75.58,6.26,6.26,0,0,1,1.55,1,4.7,4.7,0,0,1,1.1,1.56,5.09,5.09,0,0,1,.43,2.11,5.66,5.66,0,0,1-.72,2.74,6.24,6.24,0,0,1-2.2,2.28,6,6,0,0,1-3.31.94,3.7,3.7,0,0,1-1.25-.22,1.78,1.78,0,0,1-.86-.55.64.64,0,0,1-.1-.3,1.36,1.36,0,0,1,0-.45c0-.14,0-.21.09-.21a4.17,4.17,0,0,0,1.67.29,2.63,2.63,0,0,0,2.26-1.18,5,5,0,0,0,.83-3,5.46,5.46,0,0,0-.81-3.15,2.8,2.8,0,0,0-2.47-1.16,4.85,4.85,0,0,0-1.72.21q-.36.18-.35,3.09l0,10.61a9.29,9.29,0,0,0,.24,2.53q.09.36,1,.58a6.28,6.28,0,0,0,1.32.22q.12,0,.12.51a1.63,1.63,0,0,1-.06.51q-3.27-.17-4.22-.17t-1.8,0l-1.59.08-.59.06a1,1,0,0,1-.09-.54c0-.32,0-.48.09-.48a5.08,5.08,0,0,0,1.14-.2q.76-.19.88-.46a11.69,11.69,0,0,0,.17-2.71l0-11.24a11.64,11.64,0,0,0-.18-2.44q-.09-.24-.88-.49a4.3,4.3,0,0,0-1.14-.25c-.08,0-.12-.15-.12-.45s0-.48.12-.54Q522.08,77.64,522.91,77.64Z"/><path class="cls-1" d="M544.12,84a3,3,0,0,1,2.44,1q0,2.53-1.42,2.53a1.77,1.77,0,0,1-1.16-.59,1.86,1.86,0,0,0-1.28-.59,1.59,1.59,0,0,0-1.44.94,4,4,0,0,0-.52,1.95v3.72a12.51,12.51,0,0,0,.21,2.68c0,.14.3.28.79.43a4.2,4.2,0,0,0,1,.22c.06,0,.09.14.1.43a3.05,3.05,0,0,1,0,.58l-1.58-.12q-1.34-.09-2-.09t-2.07.09l-1.59.12a.88.88,0,0,1-.12-.56c0-.3,0-.45.12-.45a4.14,4.14,0,0,0,1.08-.22q.73-.22.79-.43a9.67,9.67,0,0,0,.2-2.17V88.61a2.83,2.83,0,0,0-.48-1.9,1.44,1.44,0,0,0-.67-.44,3.38,3.38,0,0,0-.71-.18c-.19,0-.28,0-.28-.09,0-.57,0-.87.15-.89a42,42,0,0,0,4.79-.9l.24-.06q.12,0,.21.21a.7.7,0,0,1,.08.34l0,.42c0,.19,0,.39-.07.59a3.6,3.6,0,0,0,0,.4,5.44,5.44,0,0,1,1.45-1.44A3.25,3.25,0,0,1,544.12,84Z"/><path class="cls-1" d="M555.22,84A6.55,6.55,0,0,1,560,85.94a6.37,6.37,0,0,1,2,4.71A6.78,6.78,0,1,1,555.22,84Zm-.38,1.4a2.39,2.39,0,0,0-2.17,1.36A6.4,6.4,0,0,0,551.9,90a8.66,8.66,0,0,0,1,4.19A3,3,0,0,0,555.57,96a2.42,2.42,0,0,0,2.18-1.37,6.31,6.31,0,0,0,.78-3.21,10.18,10.18,0,0,0-.39-2.87,5.24,5.24,0,0,0-1.25-2.21A2.76,2.76,0,0,0,554.84,85.4Z"/><path class="cls-1" d="M566.3,88.56a2.83,2.83,0,0,0-.48-1.9,1.44,1.44,0,0,0-.66-.45,3.1,3.1,0,0,0-.71-.18c-.2,0-.3,0-.3-.09q0-.86.18-.89a22.79,22.79,0,0,0,2.41-.36,23.22,23.22,0,0,0,2.35-.54l.24-.06c.1,0,.18.07.24.21a.54.54,0,0,1,.06.33q-.23,2-.23,2.56v7.13a11.36,11.36,0,0,1-1.3,6.1,7.79,7.79,0,0,1-2.18,2.16,7.25,7.25,0,0,1-2.3,1.21.78.78,0,0,1-.45-.56v-.13a.2.2,0,0,1,0-.13,2.9,2.9,0,0,0,.65-.4q.27-.22.61-.57a4.07,4.07,0,0,0,.67-1,9,9,0,0,0,.59-1.41,11.14,11.14,0,0,0,.43-2,19.44,19.44,0,0,0,.16-2.63Zm-.1-8.1a1.82,1.82,0,0,1-.54-1.31,1.76,1.76,0,0,1,.53-1.29,1.87,1.87,0,0,1,2.62,0,1.76,1.76,0,0,1,.54,1.29,1.81,1.81,0,0,1-.53,1.31,1.83,1.83,0,0,1-2.62,0Z"/><path class="cls-1" d="M578.6,84a5.51,5.51,0,0,1,2.5.55,4.7,4.7,0,0,1,1.73,1.39,6.88,6.88,0,0,1,1,1.75,5.13,5.13,0,0,1,.33,1.74q0,.65-.22.82a1.68,1.68,0,0,1-.91.17h-7.11q-.21,0-.21.18a5.77,5.77,0,0,0,.39,2.08,4.08,4.08,0,0,0,1.33,1.75,3.5,3.5,0,0,0,2.25.74,8.09,8.09,0,0,0,.86,0,4.43,4.43,0,0,0,.77-.15l.62-.19a2.51,2.51,0,0,0,.55-.27l.4-.25.59-.4a.47.47,0,0,1,.15.18.57.57,0,0,1,.09.3.91.91,0,0,1-.18.57,4.84,4.84,0,0,1-1.75,1.61,5.51,5.51,0,0,1-2.94.81,6,6,0,0,1-4.46-1.91,6.41,6.41,0,0,1-1.88-4.65,6.89,6.89,0,0,1,1.73-4.88A5.76,5.76,0,0,1,578.6,84Zm-.21,1.37a2.1,2.1,0,0,0-1.28.42,2.8,2.8,0,0,0-.86,1,5.74,5.74,0,0,0-.43,1.12,3.64,3.64,0,0,0-.13.88q0,.21.18.21h4.82c.18,0,.27-.15.27-.45a3.84,3.84,0,0,0-.7-2.11A2.13,2.13,0,0,0,578.39,85.33Z"/><path class="cls-1" d="M592.17,83.94a7.18,7.18,0,0,1,2.81.52,4.74,4.74,0,0,1,1.77,1.14,3.68,3.68,0,0,1-.34,1.68,1.1,1.1,0,0,1-1,.67,1.33,1.33,0,0,1-.91-.3,3.37,3.37,0,0,1-.7-1,2.15,2.15,0,0,0-2-1.36,2.29,2.29,0,0,0-2,1.3,6.34,6.34,0,0,0-.75,3.26,6,6,0,0,0,1.11,4,3.51,3.51,0,0,0,2.8,1.29,8.09,8.09,0,0,0,.86,0,4.43,4.43,0,0,0,.77-.15l.62-.19a2.51,2.51,0,0,0,.55-.27l.4-.25.59-.4a.47.47,0,0,1,.15.18.57.57,0,0,1,.09.3.91.91,0,0,1-.18.57A4.84,4.84,0,0,1,595,96.45a5.46,5.46,0,0,1-2.91.81,6,6,0,0,1-4.51-1.92,6.57,6.57,0,0,1-1.87-4.72,6.76,6.76,0,0,1,1.78-4.69A6,6,0,0,1,592.17,83.94Z"/><path class="cls-1" d="M600.74,86h-1.81c-.14,0-.21-.26-.21-.77a.75.75,0,0,1,0-.27A8.34,8.34,0,0,0,601,83.39l.85-.88q.46-.49,1.08-1.27a2.11,2.11,0,0,1,.56.07c.18,0,.27.1.27.16v2.91h3.63c.16,0,.24.09.24.27a2.88,2.88,0,0,1-.29,1.31H603.8v7.16a2.82,2.82,0,0,0,.51,1.81,1.7,1.7,0,0,0,1.4.62,2.82,2.82,0,0,0,.63-.08,3.17,3.17,0,0,0,.54-.16l.39-.18.21-.09c.08,0,.17.07.27.27s.14.33.12.39a2.73,2.73,0,0,1-1.26,1,4.69,4.69,0,0,1-2.12.55,3.75,3.75,0,0,1-2.63-1,4,4,0,0,1-1.09-3.08Z"/></svg>