<svg id="Layer_1" data-name="Layer 1" xmlns="http://www.w3.org/2000/svg" viewBox="0 0 895.75 405.88"><defs><style>.cls-1{fill:#fff;stroke:#1414ef;stroke-miterlimit:10;stroke-width:0.7px;}</style></defs><title>title-2</title><path class="cls-1" d="M57.52,34.21c2.1-.1,4.5-.4,7.3-.6s5.2-.5,7.4-.6a35.33,35.33,0,0,1,6.5.2,27.93,27.93,0,0,1,6.6,1.7,22.75,22.75,0,0,1,5.9,3.4,18.26,18.26,0,0,1,4.4,5.4,19.09,19.09,0,0,1,2.1,7.6,20.71,20.71,0,0,1-2,10.2,23.15,23.15,0,0,1-7.5,8.8,22.2,22.2,0,0,1-11.9,4.2,14.45,14.45,0,0,1-4.6-.5,5.73,5.73,0,0,1-3.3-1.8c-.2-.1-.3-.5-.5-1.1a10,10,0,0,1-.2-1.6c0-.5.1-.8.3-.8a16.82,16.82,0,0,0,6.2.7,9.6,9.6,0,0,0,8-4.8,18.51,18.51,0,0,0,2.3-11c-.3-4.9-1.5-8.6-3.7-11.3s-5.2-3.9-9.3-3.7a18.2,18.2,0,0,0-6.3,1.2q-1.2.75-.6,11.4L67.12,90c.3,4.4.8,7.4,1.5,9.2.3.9,1.5,1.5,3.8,1.9a20.83,20.83,0,0,0,4.9.5q.45,0,.6,1.8a5.57,5.57,0,0,1-.1,1.9c-8,.1-13.2.2-15.5.4-2,.1-4.1.3-6.6.6s-4.4.5-5.8.7l-2.2.4a5.35,5.35,0,0,1-.4-2.2c-.1-1.2,0-1.7.2-1.8a21.16,21.16,0,0,0,4.1-1c1.8-.6,2.8-1.2,3.1-1.9q.6-2,0-9.9L52,49.51a51.4,51.4,0,0,0-1.2-8.9c-.3-.6-1.4-1.1-3.3-1.6a19.47,19.47,0,0,0-4.2-.7c-.3,0-.5-.5-.5-1.6s0-1.8.3-2C50.62,34.61,55.52,34.41,57.52,34.21Z"/><path class="cls-1" d="M135.52,52.71c4-.3,7,.7,9.2,3,.4,6.2-1.1,9.4-4.6,9.6a6.22,6.22,0,0,1-4.4-1.9,7,7,0,0,0-4.8-1.9c-2.2.1-3.9,1.4-5,3.8a14.28,14.28,0,0,0-1.4,7.2l.9,13.6a48.58,48.58,0,0,0,1.4,9.7c.2.5,1.2,1,3,1.4a20.32,20.32,0,0,0,3.7.6c.2,0,.4.5.5,1.6a20.74,20.74,0,0,1,.1,2.1c-.6,0-2.5-.1-5.8-.1a72.16,72.16,0,0,0-7.4.2c-1.7.1-4.3.4-7.5.8s-5.2.7-5.8.8a3.6,3.6,0,0,1-.6-2c-.1-1.1,0-1.6.3-1.7a14.81,14.81,0,0,0,3.9-1.1c1.7-.7,2.7-1.2,2.8-1.8a34.18,34.18,0,0,0,.2-8L113,70.91c-.2-3.4-1-5.7-2.2-6.8a5.13,5.13,0,0,0-2.6-1.5,11.19,11.19,0,0,0-2.7-.5c-.7,0-1-.1-1.1-.3q-.15-3.15.3-3.3a159.72,159.72,0,0,0,17.3-4.4,4.18,4.18,0,0,1,.9-.3c.3,0,.6.2.8.7a2.38,2.38,0,0,1,.4,1.2,9.89,9.89,0,0,1-.1,1.5c0,.7-.1,1.4-.1,2.2a11.45,11.45,0,0,0-.1,1.5,20,20,0,0,1,5-5.6A13.64,13.64,0,0,1,135.52,52.71Z"/><path class="cls-1" d="M175,50.11a23.88,23.88,0,0,1,17.9,6,23.64,23.64,0,0,1,8.4,16.8,24.19,24.19,0,0,1-6,17.8,23.42,23.42,0,0,1-17,8.3,24,24,0,0,1-18-6,23.53,23.53,0,0,1-8.3-16.8,24.05,24.05,0,0,1,6-17.8A23.79,23.79,0,0,1,175,50.11Zm-1.1,5.2c-3.4.2-5.9,2-7.6,5.5a23.07,23.07,0,0,0-2.1,12,32.32,32.32,0,0,0,4.5,15.1c2.6,4.2,6.1,6.2,10.3,5.9,3.4-.2,6-2.1,7.7-5.5a23.08,23.08,0,0,0,2.1-11.9,34.32,34.32,0,0,0-2.1-10.4,19.64,19.64,0,0,0-5.1-7.8A9.85,9.85,0,0,0,173.92,55.31Z"/><path class="cls-1" d="M212.32,55.31l-6.6.4c-.5,0-.8-.9-.9-2.8v-1a30.8,30.8,0,0,0,8-6.3c.9-1,1.8-2.1,2.9-3.4s2.3-2.9,3.7-4.9a14.77,14.77,0,0,1,2.1.1c.7.1,1,.3,1,.5l.7,10.7c1.9-.1,4.5-.3,7.9-.5s5.2-.3,5.4-.3a.8.8,0,0,1,.9.9,10.15,10.15,0,0,1-.8,4.9l-13.1.9,1.7,26.2c.2,2.9.9,5.1,2.3,6.5a6.17,6.17,0,0,0,5.3,1.9,10.11,10.11,0,0,0,2.3-.4A13.05,13.05,0,0,0,237,88c.5-.3,1-.5,1.4-.7a7.23,7.23,0,0,0,.7-.4c.3-.1.6.2,1,.9s.6,1.2.5,1.4c-.4,1-1.8,2.3-4.4,3.8a16.63,16.63,0,0,1-7.6,2.5,14.27,14.27,0,0,1-9.9-3c-2.8-2.3-4.4-5.9-4.7-11Z"/><path class="cls-1" d="M265.92,44.21a20.26,20.26,0,0,1,9.3,1.4,16.45,16.45,0,0,1,6.6,4.7,23,23,0,0,1,3.9,6.2,19.49,19.49,0,0,1,1.6,6.3q.15,2.4-.6,3a6.42,6.42,0,0,1-3.3.8l-26,1.7a.63.63,0,0,0-.7.7,21.82,21.82,0,0,0,1.9,7.5,15.37,15.37,0,0,0,5.3,6.1,12.69,12.69,0,0,0,8.4,2.2,29.09,29.09,0,0,0,3.1-.4,22.91,22.91,0,0,0,2.8-.7,16.47,16.47,0,0,0,2.2-.9,9.3,9.3,0,0,0,1.9-1.1c.7-.5,1.1-.8,1.4-1s1-.7,2.1-1.6l.6.6a2.1,2.1,0,0,1,.4,1.1,3,3,0,0,1-.5,2.1q-1.5,3-6,6.3a19.54,19.54,0,0,1-10.6,3.6,22.49,22.49,0,0,1-16.8-5.9,23.74,23.74,0,0,1-8-16.6c-.5-7.3,1.3-13.4,5.2-18.3A21.43,21.43,0,0,1,265.92,44.21Zm-.4,5a7.75,7.75,0,0,0-4.6,1.8,10,10,0,0,0-2.9,3.9,20,20,0,0,0-1.3,4.2,22.29,22.29,0,0,0-.3,3.2.63.63,0,0,0,.7.7l17.6-1.2c.7,0,.9-.6.9-1.7a14.51,14.51,0,0,0-3.1-7.6A8,8,0,0,0,265.52,49.21Z"/><path class="cls-1" d="M314.42,41a26.85,26.85,0,0,1,10.4,1.2c3.1,1.1,5.3,2.3,6.7,3.8a13.19,13.19,0,0,1-.8,6.2,3.94,3.94,0,0,1-3.6,2.7,4.73,4.73,0,0,1-3.4-.9,12.94,12.94,0,0,1-2.8-3.4c-1.9-3.2-4.4-4.7-7.6-4.5s-5.5,1.9-7.1,5.2a23.94,23.94,0,0,0-2,12.1c.4,6.5,2.1,11.3,5,14.3a13,13,0,0,0,10.5,4.1,29.09,29.09,0,0,0,3.1-.4,22.91,22.91,0,0,0,2.8-.7,16.48,16.48,0,0,0,2.2-.9,9.3,9.3,0,0,0,1.9-1.1c.7-.5,1.1-.8,1.4-1s1-.7,2.1-1.6l.6.6a2.1,2.1,0,0,1,.4,1.1,3,3,0,0,1-.5,2.1q-1.5,3-6,6.3a19.49,19.49,0,0,1-10.5,3.6,22,22,0,0,1-16.9-6,23.9,23.9,0,0,1-7.9-16.8,25.18,25.18,0,0,1,5.4-17.6C301.82,44.21,307.42,41.51,314.42,41Z"/><path class="cls-1" d="M345.12,46.61l-6.6.4c-.5,0-.8-.9-.9-2.8v-1a30.8,30.8,0,0,0,8-6.3c.9-1,1.8-2.1,2.9-3.4s2.3-2.9,3.7-4.9a14.77,14.77,0,0,1,2.1.1c.7.1,1,.3,1,.5l.7,10.7c1.9-.1,4.5-.3,7.9-.5s5.2-.3,5.4-.3a.8.8,0,0,1,.9.9,10.15,10.15,0,0,1-.8,4.9l-13.1,1,1.7,26.2c.2,2.9,1,5.1,2.3,6.5a6.17,6.17,0,0,0,5.3,1.9,10.11,10.11,0,0,0,2.3-.4,13.05,13.05,0,0,0,1.9-.7c.5-.3,1-.5,1.4-.7a7.23,7.23,0,0,0,.7-.4c.3-.1.6.2,1,.9s.6,1.2.5,1.4c-.4,1-1.8,2.3-4.4,3.8a16.63,16.63,0,0,1-7.6,2.5,14.27,14.27,0,0,1-9.9-3c-2.8-2.3-4.4-5.9-4.7-11Z"/><path class="cls-1" d="M397.92,68.31a41,41,0,0,0,1.5,9.7c.2.5,1.2,1,3,1.4a21,21,0,0,0,3.8.6q.45,0,.6,1.5a6.93,6.93,0,0,1,0,2.1c-.5,0-2.5-.1-5.8-.1s-5.9.1-7.5.2c-1.8.1-4.4.4-7.6.8s-5.2.7-5.7.8a3.6,3.6,0,0,1-.6-2c-.1-1.1,0-1.6.3-1.7a17.17,17.17,0,0,0,3.9-1.1c1.8-.7,2.7-1.3,2.8-1.8a34.19,34.19,0,0,0,.2-8L385.62,53c-.2-3.4-1-5.7-2.2-6.8a6.14,6.14,0,0,0-2.6-1.5,9.72,9.72,0,0,0-2.7-.5c-.7,0-1.1-.1-1.1-.3-.1-2.1,0-3.2.4-3.3a86,86,0,0,0,8.7-1.9c3.8-1,6.6-1.8,8.5-2.5a4.18,4.18,0,0,0,.9-.3.93.93,0,0,1,.9.7,2.1,2.1,0,0,1,.3,1.2,92,92,0,0,0-.3,9.4Zm-14.3-44.8a7.05,7.05,0,0,1-2.3-4.7,6.77,6.77,0,0,1,1.6-4.9,6.85,6.85,0,0,1,4.7-2.3,6.63,6.63,0,0,1,4.9,1.6,6.78,6.78,0,0,1,.7,9.5,6.46,6.46,0,0,1-4.7,2.3A5.54,5.54,0,0,1,383.62,23.51Z"/><path class="cls-1" d="M433.62,33.21a23.88,23.88,0,0,1,17.9,6,23.64,23.64,0,0,1,8.4,16.8,24.19,24.19,0,0,1-6,17.8,23.42,23.42,0,0,1-17,8.3,24,24,0,0,1-18-6,23.53,23.53,0,0,1-8.3-16.8,24.05,24.05,0,0,1,6-17.8A23.6,23.6,0,0,1,433.62,33.21Zm-1.1,5.2c-3.4.2-5.9,2-7.6,5.5a23.07,23.07,0,0,0-2.1,12,32.32,32.32,0,0,0,4.5,15.1c2.6,4.2,6.1,6.2,10.3,5.9,3.4-.2,6-2.1,7.7-5.5a23.08,23.08,0,0,0,2.1-11.9,34.32,34.32,0,0,0-2.1-10.4,19.64,19.64,0,0,0-5.1-7.8A9.52,9.52,0,0,0,432.52,38.41Z"/><path class="cls-1" d="M499.72,28.91c9.4-.6,14.5,6.5,15.5,21.4l.7,10.3a48.58,48.58,0,0,0,1.4,9.7c.2.5,1.2,1,3.1,1.4a23.92,23.92,0,0,0,3.8.6c.2,0,.4.5.5,1.6a6.93,6.93,0,0,1,0,2.1c-.4,0-2.4-.1-5.7-.1s-5.9.1-7.6.2-4.1.4-7.2.8-4.9.7-5.6.8a3.6,3.6,0,0,1-.6-2c-.1-1.1,0-1.6.3-1.7a13.47,13.47,0,0,0,3.6-1.1c1.6-.7,2.4-1.2,2.6-1.8a33.1,33.1,0,0,0,.4-8l-.7-10.3c-.4-6-1.5-10.2-3.3-12.5s-4.5-3.3-8-3.1a10.56,10.56,0,0,0-6,2.3c-1.7,1.4-2.4,2.8-2.3,4.2l1.2,18.7a48.58,48.58,0,0,0,1.4,9.7c.2.5,1.2,1,3,1.4a21.06,21.06,0,0,0,3.6.6q.45,0,.6,1.5a6.93,6.93,0,0,1,0,2.1c-.6,0-2.5-.1-5.7-.1s-5.7,0-7.4.2-4.3.4-7.5.8-5.2.7-5.8.8a3.6,3.6,0,0,1-.6-2c-.1-1.1,0-1.6.3-1.7a14.81,14.81,0,0,0,3.9-1.1c1.7-.7,2.7-1.2,2.8-1.8a34.19,34.19,0,0,0,.2-8l-1.2-17.7c-.2-3.4-1-5.7-2.2-6.8a5.13,5.13,0,0,0-2.6-1.5,11.19,11.19,0,0,0-2.7-.5c-.7,0-1-.1-1.1-.3q-.15-3.15.3-3.3a159.72,159.72,0,0,0,17.3-4.4c.1-.1.2-.1.3-.2s.2-.1.3-.1h.3c.3,0,.6.2.8.7a2.38,2.38,0,0,1,.4,1.2,37.91,37.91,0,0,0-.2,3.9,1.21,1.21,0,0,0,.1.5c.1,0,.2-.1.5-.4a23.74,23.74,0,0,1,6.4-5A33,33,0,0,1,499.72,28.91Z"/><path class="cls-1" d="M577.12.41c5.2-.3,9.4.5,12.7,2.7a11,11,0,0,1,5.2,9.1,16.35,16.35,0,0,1-3.3,11.5,48.44,48.44,0,0,1-11.1,10A156.35,156.35,0,0,0,596,52.11c3.6-5.8,5.4-9.3,5.3-10.6a1.39,1.39,0,0,0-1.1-1.4,8.75,8.75,0,0,0-2.4-.3h-1.5a3.87,3.87,0,0,1-.4-1.7c0-.7,0-1.2.2-1.3l10-.7c1.4-.1,5.4-.5,11.9-1.2.4.2.6.8.7,1.7.1,1.2-.1,1.8-.6,2a21.61,21.61,0,0,0-3.8.8,10.46,10.46,0,0,0-3.5,1.6,12.77,12.77,0,0,0-2.1,2.9c-1.1,1.8-2.5,4-4.2,6.5s-3.1,4.6-4.3,6.2a11.33,11.33,0,0,0,1.5,1.4c.8.7,1.4,1.3,1.7,1.5s.8.7,1.5,1.3a9.14,9.14,0,0,0,1.7,1.2l1.5.6a3.08,3.08,0,0,0,1.6.2,5.72,5.72,0,0,0,3.6-2.1,12.16,12.16,0,0,0,2.4-3.5,3.81,3.81,0,0,1,1.9.6,2.28,2.28,0,0,1,1.1,1.4c-.2.5-.6,1.3-1.1,2.3s-1.3,2.1-2.3,3.5a17,17,0,0,1-3.9,3.6,11.19,11.19,0,0,1-5.3,1.8,13.54,13.54,0,0,1-6.5-1.3,16.59,16.59,0,0,1-4.9-3.2l-1.6-1.6a27.86,27.86,0,0,1-18.2,8.4q-9.3.6-15.6-3.6t-6.9-12.9a17.49,17.49,0,0,1,1-7.2,18,18,0,0,1,3.9-6.2,49.12,49.12,0,0,1,4.9-4.6,54.32,54.32,0,0,1,5.7-4,14.13,14.13,0,0,1-1-1.4,11.68,11.68,0,0,1-1-1.5c-.1-.2-.4-.6-.9-1.4s-.8-1.3-1-1.6a15.12,15.12,0,0,1-.9-1.6,11.2,11.2,0,0,1-.8-1.8,15.61,15.61,0,0,0-.7-1.7,8.24,8.24,0,0,1-.6-1.9q-.15-.75-.3-1.8a14.92,14.92,0,0,1-.2-2.1,14.63,14.63,0,0,1,4.3-11.9A19.67,19.67,0,0,1,577.12.41ZM589,60.61a87.17,87.17,0,0,1-6.8-7.5c-2.9-3.5-5.4-6.7-7.4-9.5l-3.1-4.1a21.56,21.56,0,0,0-5.6,6.3c-1.3,2.2-1.8,5.1-1.6,8.7.3,4.4,1.7,7.5,4.3,9.5a13.62,13.62,0,0,0,9.4,2.7,13,13,0,0,0,6-2A14.92,14.92,0,0,0,589,60.61Zm-11.4-55.4a6.66,6.66,0,0,0-5.3,2.9,9.83,9.83,0,0,0-1.6,6.1c.2,3.5,2.4,8.4,6.4,14.7a24.52,24.52,0,0,0,6.7-6.5c1.4-2.1,1.9-4.9,1.7-8.4a11.58,11.58,0,0,0-2.4-6.2A6.14,6.14,0,0,0,577.62,5.21Z"/><path class="cls-1" d="M211.36,114.45c2.1-.14,4.49-.48,7.29-.73s5.19-.59,7.39-.73a35.33,35.33,0,0,1,6.5.08,27.93,27.93,0,0,1,6.63,1.58,22.75,22.75,0,0,1,6,3.29,18.26,18.26,0,0,1,4.5,5.32,19.09,19.09,0,0,1,2.24,7.56A20.71,20.71,0,0,1,250,141.06a23.15,23.15,0,0,1-7.34,8.93,22.2,22.2,0,0,1-11.82,4.41,14.45,14.45,0,0,1-4.61-.42,5.73,5.73,0,0,1-3.33-1.74c-.2-.1-.31-.49-.52-1.09a10,10,0,0,1-.23-1.6c0-.5.09-.8.29-.81a16.82,16.82,0,0,0,6.21.59,9.6,9.6,0,0,0,7.91-4.94,18.51,18.51,0,0,0,2.1-11c-.39-4.89-1.65-8.57-3.9-11.23s-5.27-3.81-9.37-3.53a18.2,18.2,0,0,0-6.28,1.31q-1.19.77-.39,11.41l3.2,38.75c.38,4.39.93,7.38,1.67,9.17.32.89,1.53,1.47,3.83,1.83a20.83,20.83,0,0,0,4.91.41q.45,0,.63,1.79a5.57,5.57,0,0,1-.07,1.9c-8,.24-13.19.44-15.49.68-2,.14-4.09.37-6.59.72s-4.39.58-5.79.8l-2.19.44a4.45,4.45,0,0,1-.53-1.89c-.12-1.2,0-1.7.17-1.8A21.16,21.16,0,0,0,206.6,183c1.79-.63,2.78-1.25,3.07-2q.56-2-.18-9.9l-3.44-41a51.4,51.4,0,0,0-1.36-8.88c-.31-.59-1.42-1.07-3.33-1.54a19.47,19.47,0,0,0-4.21-.62c-.3,0-.51-.49-.53-1.59s0-1.8.26-2C204.47,114.88,209.27,114.59,211.36,114.45Z"/><path class="cls-1" d="M289.68,131.44c4-.37,7,.57,9.25,2.83.51,6.19-.93,9.42-4.43,9.68a6.22,6.22,0,0,1-4.43-1.82,7,7,0,0,0-4.83-1.81c-2.2.14-3.87,1.47-4.93,3.89a14.28,14.28,0,0,0-1.27,7.22L280.19,165a48.57,48.57,0,0,0,1.57,9.67c.21.5,1.22,1,3,1.35a20.32,20.32,0,0,0,3.71.53c.2,0,.41.49.53,1.59a20.75,20.75,0,0,1,.14,2.1c-.6,0-2.5-.05-5.8,0a72.16,72.16,0,0,0-7.4.33c-1.7.13-4.29.48-7.48.94s-5.19.79-5.78.9a3.6,3.6,0,0,1-.64-2c-.12-1.1,0-1.6.27-1.71a14.81,14.81,0,0,0,3.88-1.17c1.69-.73,2.68-1.25,2.77-1.85a34.18,34.18,0,0,0,.06-8L267.51,150c-.26-3.4-1.1-5.68-2.32-6.76a5.13,5.13,0,0,0-2.63-1.45,11.19,11.19,0,0,0-2.71-.45c-.7,0-1-.08-1.11-.28q-.21-3.15.24-3.3a159.72,159.72,0,0,0,17.22-4.71,4.18,4.18,0,0,1,.89-.32c.3,0,.6.19.81.69a2.38,2.38,0,0,1,.42,1.19,9.89,9.89,0,0,1-.07,1.5c0,.7-.07,1.4-.06,2.2a11.45,11.45,0,0,0-.07,1.5,20,20,0,0,1,4.9-5.69A13.63,13.63,0,0,1,289.68,131.44Z"/><path class="cls-1" d="M326.83,128.37a20.26,20.26,0,0,1,9.32,1.23,16.45,16.45,0,0,1,6.68,4.58,23,23,0,0,1,4,6.13,19.49,19.49,0,0,1,1.71,6.27q.19,2.4-.55,3a6.42,6.42,0,0,1-3.29.86l-26,2.17a.63.63,0,0,0-.69.71,21.82,21.82,0,0,0,2,7.46,15.37,15.37,0,0,0,5.41,6,12.69,12.69,0,0,0,8.44,2,29.09,29.09,0,0,0,3.09-.46,22.91,22.91,0,0,0,2.79-.75,16.48,16.48,0,0,0,2.18-.94,9.31,9.31,0,0,0,1.88-1.13c.69-.51,1.09-.82,1.38-1s1-.72,2.07-1.64l.61.59a2.1,2.1,0,0,1,.42,1.09,3,3,0,0,1-.46,2.11q-1.45,3-5.89,6.41a19.54,19.54,0,0,1-10.53,3.79,22.49,22.49,0,0,1-16.9-5.6,23.74,23.74,0,0,1-8.3-16.45c-.63-7.29,1.06-13.42,4.87-18.39A21.6,21.6,0,0,1,326.83,128.37Zm-.41,5.11a7.75,7.75,0,0,0-4.57,1.88,10,10,0,0,0-2.83,4,20,20,0,0,0-1.22,4.22,22.29,22.29,0,0,0-.24,3.2.63.63,0,0,0,.71.69l17.58-1.52c.7,0,.89-.62.87-1.72a14.51,14.51,0,0,0-3.24-7.54A7.61,7.61,0,0,0,326.43,133.48Z"/><path class="cls-1" d="M369.57,124.7a46.32,46.32,0,0,1,12.72.77,66.06,66.06,0,0,1,2.22,12.06c0,.6-.38.91-1.38,1-1.6.13-2.5-.05-2.71-.65a14.1,14.1,0,0,0-3.71-6.23,8.32,8.32,0,0,0-6.84-2.08,8,8,0,0,0-4.87,1.79,4.9,4.9,0,0,0-1.43,4.13,6.08,6.08,0,0,0,.85,2.69,8.65,8.65,0,0,0,2.14,2.16c1,.68,1.82,1.17,2.53,1.55a35.07,35.07,0,0,0,3.23,1.44,8,8,0,0,0,1.11.48c.1.1.71.29,1.71.77a11.6,11.6,0,0,1,1.92.87,14,14,0,0,1,1.82.87c.91.48,1.62.87,2,1.06s1,.68,1.82,1.17a6.61,6.61,0,0,1,1.72,1.37c.41.39.82.89,1.43,1.57a9.22,9.22,0,0,1,1.33,1.88,11.77,11.77,0,0,1,.74,2,8.52,8.52,0,0,1,.44,2.29,12.77,12.77,0,0,1-4.4,11.28,20.23,20.23,0,0,1-12.41,5,36.35,36.35,0,0,1-14.24-1.84q-.63-1.79-1.61-6c-.55-2.79-1-4.78-1.11-6.18a2,2,0,0,1,1.49-.63c1.7-.13,2.6.05,2.71.65a12.3,12.3,0,0,0,4.93,7,11.38,11.38,0,0,0,7.64,2.16,7.68,7.68,0,0,0,4.87-1.89,5.51,5.51,0,0,0,1.62-4.63,6.46,6.46,0,0,0-.44-2,4.72,4.72,0,0,0-1.23-1.78,9.16,9.16,0,0,0-1.43-1.37,7,7,0,0,0-2.12-1.26c-1-.48-1.82-.87-2.32-1.06s-1.41-.57-2.82-1.15-2.32-1-2.92-1.25a25.28,25.28,0,0,1-8.19-5.15A11.45,11.45,0,0,1,353,140.1a11.7,11.7,0,0,1,4.41-10.68A22.18,22.18,0,0,1,369.57,124.7Z"/><path class="cls-1" d="M413.92,121.1a20.26,20.26,0,0,1,9.32,1.23,16.45,16.45,0,0,1,6.68,4.58,23,23,0,0,1,4,6.13,19.49,19.49,0,0,1,1.71,6.27q.19,2.4-.55,3a6.42,6.42,0,0,1-3.29.86l-26,2.17a.63.63,0,0,0-.69.71,21.82,21.82,0,0,0,2,7.46,15.37,15.37,0,0,0,5.41,6,12.69,12.69,0,0,0,8.44,2,29.09,29.09,0,0,0,3.09-.46,22.91,22.91,0,0,0,2.79-.75,16.48,16.48,0,0,0,2.18-.94A9.31,9.31,0,0,0,431,158.3c.69-.51,1.09-.82,1.38-1s1-.72,2.07-1.64l.61.59a2.1,2.1,0,0,1,.42,1.09,3,3,0,0,1-.46,2.11q-1.45,3-5.89,6.41a19.54,19.54,0,0,1-10.53,3.79,22.49,22.49,0,0,1-16.9-5.6,23.74,23.74,0,0,1-8.3-16.45c-.63-7.29,1.06-13.42,4.87-18.39A21.78,21.78,0,0,1,413.92,121.1Zm-.31,5.11a7.75,7.75,0,0,0-4.57,1.88,10,10,0,0,0-2.83,4,20,20,0,0,0-1.22,4.22,22.29,22.29,0,0,0-.24,3.2.63.63,0,0,0,.71.69L423,138.64c.7,0,.89-.62.87-1.72a14.51,14.51,0,0,0-3.24-7.54A7.81,7.81,0,0,0,413.61,126.21Z"/><path class="cls-1" d="M470.84,116.37c4-.37,7,.57,9.25,2.83.51,6.19-.93,9.42-4.43,9.68a6.22,6.22,0,0,1-4.43-1.82,7,7,0,0,0-4.83-1.81c-2.2.14-3.87,1.47-5,3.89a14.28,14.28,0,0,0-1.27,7.22L461.24,150a48.57,48.57,0,0,0,1.57,9.67c.21.5,1.22,1,3,1.35a20.32,20.32,0,0,0,3.71.53c.2,0,.41.49.53,1.59a20.75,20.75,0,0,1,.14,2.1c-.6,0-2.5-.05-5.8,0a72.16,72.16,0,0,0-7.4.33c-1.7.13-4.29.48-7.48.94s-5.19.79-5.78.9a3.6,3.6,0,0,1-.64-2c-.12-1.1,0-1.6.27-1.71a14.81,14.81,0,0,0,3.88-1.17c1.69-.73,2.68-1.25,2.77-1.85a34.18,34.18,0,0,0,.06-8l-1.52-17.58c-.26-3.4-1.1-5.68-2.32-6.76a5.13,5.13,0,0,0-2.63-1.45,11.19,11.19,0,0,0-2.71-.45c-.7,0-1-.08-1.11-.28q-.21-3.15.24-3.3a159.72,159.72,0,0,0,17.22-4.71,4.18,4.18,0,0,1,.89-.32c.3,0,.6.19.81.69a2.38,2.38,0,0,1,.42,1.19,9.89,9.89,0,0,1-.07,1.5c0,.7-.07,1.4-.06,2.2a11.45,11.45,0,0,0-.07,1.5,20,20,0,0,1,4.9-5.69A12.71,12.71,0,0,1,470.84,116.37Z"/><path class="cls-1" d="M526.39,118.57q-1.7-2.82-7.84-2.26c-.2,0-.41-.49-.43-1.49a3.51,3.51,0,0,1,.16-2,44.75,44.75,0,0,1,5.3-.1,59.09,59.09,0,0,0,6.2-.21c1.6-.13,3.69-.47,6.29-.81s4.39-.68,5.29-.8a3,3,0,0,1,.43,1.69c.12,1.2-.07,1.8-.47,1.81a14.59,14.59,0,0,0-4.18,1.38,6.33,6.33,0,0,0-3.44,3.36L518.82,159a9.22,9.22,0,0,1-1.27,1.92,2.56,2.56,0,0,1-1.78,1.13c-.7,0-1.2-.08-1.31-.58-1.76-3.17-4-7.53-7-13.08s-5.58-10.2-7.65-14.06-4.55-8.12-7.34-13c-1-2-3.45-2.74-7.35-2.47-.3,0-.51-.59-.53-1.69a2.25,2.25,0,0,1,.27-1.81c.7,0,2.6-.15,5.8-.2s5.7-.1,7.4-.33,4.19-.48,7.48-.94,5.09-.79,5.59-.8a3.54,3.54,0,0,1,.43,1.89c0,1-.07,1.5-.37,1.61a21.86,21.86,0,0,0-3.78,1c-1.59.53-2.38,1.24-2.27,1.94a1.61,1.61,0,0,0,.32,1.09L518.16,145l8-22.35C526.83,120.66,526.9,119.36,526.39,118.57Z"/><path class="cls-1" d="M569.31,108.1c4.49-.38,7.91.56,10.35,2.71s3.91,6.13,4.41,11.82L585.86,144a5.22,5.22,0,0,0,1.26,3.28,3.62,3.62,0,0,0,2.72,1,6.53,6.53,0,0,0,3.57-1.76c.4.09.71.49.72,1.19a7.35,7.35,0,0,1-.34,3.31,29.07,29.07,0,0,1-4.15,3.08,12.56,12.56,0,0,1-5.07,1.89,8.1,8.1,0,0,1-5-1.41,8.64,8.64,0,0,1-3.47-3.74l-.79.81a19.33,19.33,0,0,1-1.87,1.63,31.54,31.54,0,0,1-2.67,1.95,15.05,15.05,0,0,1-3.57,1.76,15.69,15.69,0,0,1-4.28,1,13.72,13.72,0,0,1-9.14-2.24c-2.43-1.76-3.78-4.43-4.14-7.93a10.84,10.84,0,0,1,.81-5,11.29,11.29,0,0,1,2.63-3.95,21.84,21.84,0,0,1,4.44-3.28,45.89,45.89,0,0,1,4.85-2.59c1.39-.63,3.18-1.26,5.26-2.1s3.67-1.47,4.47-1.78a1.81,1.81,0,0,0,.87-1.82l-.51-6a10.15,10.15,0,0,0-2.21-5.86,5.8,5.8,0,0,0-4.83-1.81,6.6,6.6,0,0,0-5,2.39,8.68,8.68,0,0,0-1.4,5.83,3.47,3.47,0,0,1-1.34,3.32,6.57,6.57,0,0,1-3.58,1.36c-2.7.25-4.61-.52-5.84-2.1-.26-3.5,1.78-6.93,6.31-10.42A28.52,28.52,0,0,1,569.31,108.1ZM568,150.23a7.91,7.91,0,0,0,5-2c1.38-1.23,2-2.34,1.83-3.63l-.9-11.09a23.75,23.75,0,0,1-3.08,1.36,28.68,28.68,0,0,0-3.67,1.67c-.79.41-1.78,1-2.87,1.75a6.59,6.59,0,0,0-2.35,2.64,5.58,5.58,0,0,0-.54,3.11c.24,2.3.87,4,2.19,5A5.69,5.69,0,0,0,568,150.23Z"/><path class="cls-1" d="M602.6,113l-6.59.52c-.5,0-.82-.89-1-2.78l0-1a30.8,30.8,0,0,0,7.89-6.44c.88-1,1.76-2.13,2.84-3.45s2.25-2.94,3.61-5a14.77,14.77,0,0,1,2.1.06c.7.09,1,.28,1,.48l.89,10.69c1.9-.13,4.49-.38,7.89-.64s5.19-.39,5.39-.4a.8.8,0,0,1,.92.88,10.15,10.15,0,0,1-.71,4.91L613.78,112,616,138.16c.25,2.9,1.09,5.08,2.42,6.46a6.17,6.17,0,0,0,5.33,1.8A10.11,10.11,0,0,0,626,146a13.05,13.05,0,0,0,1.89-.73c.49-.31,1-.52,1.39-.73a7.22,7.22,0,0,0,.69-.41c.3-.11.6.19,1,.88s.62,1.19.53,1.39c-.38,1-1.76,2.33-4.33,3.88a16.63,16.63,0,0,1-7.55,2.64,14.27,14.27,0,0,1-10-2.82c-2.84-2.25-4.51-5.82-4.9-10.91Z"/><path class="cls-1" d="M655.68,133.74a41,41,0,0,0,1.67,9.67c.21.5,1.22,1,3,1.35a21,21,0,0,0,3.81.53q.45,0,.63,1.49a6.93,6.93,0,0,1,0,2.1c-.5,0-2.5-.05-5.8,0s-5.9.21-7.5.34c-1.8.13-4.39.48-7.58.94s-5.19.79-5.68.9a3.6,3.6,0,0,1-.64-2c-.12-1.1,0-1.6.27-1.71a17.17,17.17,0,0,0,3.88-1.17c1.79-.73,2.68-1.35,2.77-1.85a34.18,34.18,0,0,0,.06-8l-1.52-17.68c-.26-3.4-1.1-5.68-2.32-6.76a6.14,6.14,0,0,0-2.63-1.45,9.72,9.72,0,0,0-2.71-.45c-.7,0-1.1-.08-1.11-.28-.14-2.1-.06-3.2.34-3.31a85.94,85.94,0,0,0,8.66-2.06c3.78-1.07,6.57-1.92,8.45-2.65a4.18,4.18,0,0,0,.89-.32.93.93,0,0,1,.91.68,2.1,2.1,0,0,1,.32,1.19,92,92,0,0,0-.13,9.4ZM640.58,89.21a7.05,7.05,0,0,1-2.38-4.66,6.77,6.77,0,0,1,1.51-4.93,6.85,6.85,0,0,1,4.66-2.38,6.63,6.63,0,0,1,4.93,1.51,6.78,6.78,0,0,1,.87,9.49,6.46,6.46,0,0,1-4.66,2.38A5.93,5.93,0,0,1,640.58,89.21Z"/><path class="cls-1" d="M690.75,98a23.88,23.88,0,0,1,18,5.68,23.64,23.64,0,0,1,8.7,16.65,24.19,24.19,0,0,1-5.68,17.91,23.42,23.42,0,0,1-16.85,8.61,24,24,0,0,1-18.11-5.67,23.53,23.53,0,0,1-8.6-16.65,24.05,24.05,0,0,1,5.68-17.91A23.41,23.41,0,0,1,690.75,98Zm-.91,5.22c-3.4.26-5.86,2.11-7.5,5.64a23.07,23.07,0,0,0-1.88,12,32.32,32.32,0,0,0,4.77,15c2.68,4.15,6.21,6.09,10.4,5.71,3.4-.26,6-2.21,7.6-5.64a23.08,23.08,0,0,0,1.89-11.94,34.32,34.32,0,0,0-2.29-10.36,19.64,19.64,0,0,0-5.24-7.71A9.64,9.64,0,0,0,689.84,103.22Z"/><path class="cls-1" d="M756.85,92.41c9.39-.77,14.61,6.24,15.88,21.12l.89,10.29a48.58,48.58,0,0,0,1.57,9.67c.21.5,1.22,1,3.12,1.34a23.92,23.92,0,0,0,3.81.53c.2,0,.41.49.53,1.59a6.93,6.93,0,0,1,0,2.1c-.4,0-2.4-.06-5.7,0s-5.9.21-7.6.34-4.09.47-7.18.93-4.89.79-5.58.9a3.6,3.6,0,0,1-.64-2c-.12-1.1,0-1.6.27-1.71a13.47,13.47,0,0,0,3.58-1.16c1.59-.73,2.38-1.24,2.57-1.85a33.1,33.1,0,0,0,.26-8l-.89-10.29c-.51-6-1.68-10.17-3.52-12.44s-4.56-3.22-8.05-3a10.56,10.56,0,0,0-6,2.41c-1.67,1.43-2.35,2.84-2.22,4.24l1.54,18.68a48.58,48.58,0,0,0,1.57,9.67c.21.5,1.22,1,3,1.35a21.07,21.07,0,0,0,3.61.53q.45,0,.63,1.49a6.93,6.93,0,0,1,0,2.1c-.6,0-2.5-.05-5.7,0s-5.7.1-7.4.33-4.29.48-7.48.94-5.19.79-5.78.9a3.6,3.6,0,0,1-.64-2c-.12-1,0-1.6.27-1.71a14.81,14.81,0,0,0,3.88-1.17c1.69-.73,2.68-1.25,2.77-1.85a34.18,34.18,0,0,0,.06-8l-1.52-17.68c-.26-3.4-1.1-5.68-2.32-6.76a5.13,5.13,0,0,0-2.63-1.45,11.19,11.19,0,0,0-2.71-.45c-.7,0-1-.08-1.11-.28q-.21-3.15.24-3.3a159.72,159.72,0,0,0,17.22-4.71c.1-.1.2-.1.3-.21s.2-.1.3-.11h.3c.3,0,.6.19.81.69a2.38,2.38,0,0,1,.42,1.19,37.92,37.92,0,0,0-.13,3.9,1.21,1.21,0,0,0,.11.5c.1,0,.2-.1.49-.41a23.74,23.74,0,0,1,6.31-5.11A31.15,31.15,0,0,1,756.85,92.41Z"/><path class="cls-1" d="M823.91,84a24,24,0,0,1,18,5.9,23.29,23.29,0,0,1,8.48,16.66,24.72,24.72,0,0,1-40.78,20.29A24.59,24.59,0,0,1,807,92.31,23.63,23.63,0,0,1,823.91,84Zm-1.09,5.14q-5.11.37-7.62,5.49a23.17,23.17,0,0,0-2,12,31.4,31.4,0,0,0,4.67,15c2.71,4.22,6.16,6.09,10.37,5.82,3.4-.25,5.94-2.08,7.6-5.59a23.52,23.52,0,0,0,2-12,36.87,36.87,0,0,0-2.19-10.38,20,20,0,0,0-5.11-7.78A10.69,10.69,0,0,0,822.82,89.13Z"/><path class="cls-1" d="M883.35,52a22.9,22.9,0,0,1,7.59.59A7.43,7.43,0,0,1,895.09,55a12.64,12.64,0,0,1-.12,6.1,3.83,3.83,0,0,1-3.78,2.94,4.38,4.38,0,0,1-3.5-1.56c-1.1-1.14-2.19-2.28-3.39-3.4a4.9,4.9,0,0,0-3.89-1.5,5.51,5.51,0,0,0-4.65,3.19,18.74,18.74,0,0,0-2.3,7.06,43.49,43.49,0,0,0-.19,8.84l.41,5c0,.1.13.18.25.26s.33.15.44.23l11.92-.82c.3,0,.51,0,.53.12s.15.28.21.67a11.09,11.09,0,0,1-.89,5.11l-11.31.82c-.39.06-.66.31-.59.7L876,113a39.14,39.14,0,0,0,1.57,9.67q.27.72,3,1.34a11.93,11.93,0,0,0,3.73.51c.2,0,.39.54.45,1.55a12.25,12.25,0,0,1,0,2.12c-.41,0-2.33,0-5.67,0s-5.85.14-7.66.23a68.61,68.61,0,0,0-7.35.89c-3.17.41-5.05.72-5.64.81A1.74,1.74,0,0,1,858,129a9.7,9.7,0,0,1-.17-1.69c0-.51.17-.84.37-.87a13.48,13.48,0,0,0,3.77-1.12c1.71-.68,2.64-1.24,2.75-1.76a35,35,0,0,0,.37-9l-1.83-25c-.08-.49-.33-.76-.72-.69l-6.51.45c-.1,0-.23-.17-.31-.66a6.18,6.18,0,0,1,1.3-3.25,4,4,0,0,1,3.3-2.16l1.71-.07c.39-.06.66-.31.59-.7l-.08-1.1a29.62,29.62,0,0,1,5.36-20C872.07,55.51,877.25,52.44,883.35,52Z"/><path class="cls-1" d="M61.56,204.83a29.51,29.51,0,0,0-.74-8.77c-.34-.88-1.48-1.63-3.62-2.22a20.69,20.69,0,0,0-4.85-1c-.3,0-.43-.58-.38-1.58a5.07,5.07,0,0,1,.3-2c7.75.81,12.28,1.18,13.68,1.31a71.76,71.76,0,0,0,7.31-.07c3-.15,4.79-.24,5.6-.18a7.67,7.67,0,0,1,.19,1.79q-.06,1.81-.51,1.83a17.8,17.8,0,0,0-4.67.64c-2.08.51-3.55,1.18-4.2,2.11-.9,1.95-1.35,5-1.55,9L66.59,247c-.07,2.61-.11,7.72-.13,15.23-.28.31-1.08.35-2.39.32s-2.25-.89-3.44-2.63L19.51,200.84,17.82,245c-.18,4.31,0,7.31.55,9,.34.88,1.69,1.72,3.93,2.41a28.23,28.23,0,0,0,4.86,1.16c.2,0,.32.48.28,1.59a12.29,12.29,0,0,1-.2,2C18.6,260.36,14,260,13.67,259.9c-2-.1-4.41-.08-7.21,0s-4.8.14-5.7.19c-.31-.28-.44-.88-.4-1.88,0-1.2.21-1.71.51-1.73a19.35,19.35,0,0,0,5-.65Q9,255,9.94,253.48c.82-1.54,1.27-4.57,1.45-9.08L13,201.66c.1-3.91-.13-6.6-.9-8-.22-.49-1.55-1-3.68-1.52a35.5,35.5,0,0,0-4.85-.86c-.3,0-.43-.58-.39-1.68s.11-1.81.5-2c7.64.62,12,1,13,1,2.41.08,5.71,0,9.8-.19a105.58,105.58,0,0,0,7.1,11.86c3.47,5.23,8.22,12.2,14.36,20.8s10.25,14.6,12.42,17.9a38.94,38.94,0,0,0,.38-4.42Z"/><path class="cls-1" d="M106.35,215.39a19.47,19.47,0,0,1,9,2.35,16.68,16.68,0,0,1,6.08,5.4,26.16,26.16,0,0,1,3.23,6.55,18.38,18.38,0,0,1,.93,6.46c0,1.6-.37,2.62-1,3s-1.67.58-3.38.47l-26-1c-.5,0-.79.14-.77.64a22.18,22.18,0,0,0,1.09,7.66,14.33,14.33,0,0,0,4.64,6.58,12.45,12.45,0,0,0,8.16,3c1.1,0,2.1,0,3.2-.06a13.58,13.58,0,0,0,2.88-.45c.89-.24,1.68-.39,2.27-.61a9,9,0,0,0,2.06-.9c.68-.43,1.17-.66,1.46-.87s1.07-.65,2.23-1.41a2.49,2.49,0,0,1,.53.67,1.54,1.54,0,0,1,.26,1.09,3.29,3.29,0,0,1-.7,2c-1.2,2-3.41,3.78-6.62,5.64a20.46,20.46,0,0,1-10.89,2.55,22.61,22.61,0,0,1-16.1-7.6,23.63,23.63,0,0,1-6.18-17.31c.23-7.32,2.64-13.25,7-17.58A21.23,21.23,0,0,1,106.35,215.39Zm-1,5a7.45,7.45,0,0,0-4.74,1.34,10.36,10.36,0,0,0-3.32,3.57,17.32,17.32,0,0,0-1.7,4,16.54,16.54,0,0,0-.64,3.24c0,.5.24.79.64.77l17.66.71c.7.06,1-.55,1-1.55a14,14,0,0,0-2.29-7.79A7.94,7.94,0,0,0,105.39,220.34Z"/><path class="cls-1" d="M199.46,227.22a2.78,2.78,0,0,0-.81-2.26,4.08,4.08,0,0,0-2.17-1.39c-.91-.25-1.73-.51-2.44-.68a20.69,20.69,0,0,0-2.22-.29l-.4,0c-.3,0-.43-.58-.39-1.68a4,4,0,0,1,.3-1.92c.9.05,2.82.26,5.73.51a65.7,65.7,0,0,0,6.94.55c1.5,0,3.51,0,5.8-.09s4.09-.21,5.2-.16a10.32,10.32,0,0,1,.2,1.89c0,1.1-.22,1.61-.52,1.63a10.65,10.65,0,0,0-4.34,1.22c-2.06.8-3.31,1.87-3.84,3.2L188.87,265.6a3.71,3.71,0,0,1-1.53,1.48,3.57,3.57,0,0,1-2.17.61c-.7-.06-1.22-.34-1.34-.83l-12.15-30.53-12.71,28a6.09,6.09,0,0,1-1.33,1.47,4,4,0,0,1-2.36.82,2,2,0,0,1-1.54-.82c-1.49-3.83-3.33-8.54-5.41-14s-4-10.31-5.74-14.53-3.75-8.82-6-13.72a4.75,4.75,0,0,0-2.72-2.27,12,12,0,0,0-3.45-.93q-.45,0-.39-1.78.07-1.51.51-1.83c.7.06,2.51.17,5.53.52a69.2,69.2,0,0,0,6.94.55c1.7,0,4.11.09,7.41-.07s5.2-.16,5.7-.09a6.37,6.37,0,0,1,.1,2c-.05.9-.13,1.41-.42,1.52a14.75,14.75,0,0,0-3.78.59c-1.58.48-2.34,1.22-2.39,2.22,0,.1,3.34,8.64,10,25.43.9-2,1.89-4.3,3.06-6.76s2-4.51,2.61-5.84,1.17-2.66,1.8-4a32.75,32.75,0,0,0,1.25-3.07,4,4,0,0,0,.33-1.32,8.61,8.61,0,0,0-1.22-4.44,4.65,4.65,0,0,0-2.29-1.79,9.37,9.37,0,0,0-3.95-.8c-.3,0-.43-.58-.38-1.58s.21-1.71.5-1.93c.8.06,2.61.17,5.33.53a58.39,58.39,0,0,0,6.84.56c1.6,0,4,0,7.11-.06s5-.15,5.6-.08a6.25,6.25,0,0,1,.1,2c0,1-.22,1.61-.42,1.52-3.71-.11-5.55,1.08-5.73,3.59,0,1.4,3.08,9.56,9.35,24.56,1.25-3,2.87-6.55,4.68-10.55s3.25-7.07,4.15-9A18.13,18.13,0,0,0,199.46,227.22Z"/><path class="cls-1" d="M258,197.75c1.3,0,6.31,0,15-.05a6.25,6.25,0,0,1,.1,2c0,1-.22,1.51-.42,1.52a11.56,11.56,0,0,0-4,.6q-2.22.71-2.29,2.22a6.57,6.57,0,0,0,.84,2.86l10.7,21.59c.32.38.72.36,1.09-.16,3.27-4.57,6.44-9.24,9.61-14s4.71-7.95,4.74-9.25c.06-.8-.58-1.57-1.91-2.21a13.48,13.48,0,0,0-5.26-1.14c-.3,0-.42-.48-.38-1.58a4,4,0,0,1,.4-1.92c7.35.73,11.67,1.11,13.07,1.14q2.55,0,4.51.07c1.3-.07,2.7,0,4.1-.11l3.3-.17a10.87,10.87,0,0,1,.19,1.79c0,1.2-.21,1.71-.51,1.73a14.71,14.71,0,0,0-4.56.83,9.1,9.1,0,0,0-4.28,2.42c-2.25,3-6.26,8.83-12,17.53s-8.74,13.36-8.69,14.35l-.65,17a39.14,39.14,0,0,0,.49,9.79c.12.49,1.06,1.15,2.89,1.76a11.78,11.78,0,0,0,3.66,1q.45,0,.39,1.78a6.07,6.07,0,0,1-.31,1.72c-.91-.15-2.32-.28-4.13-.49s-3.53-.42-5-.55-3-.25-4.42-.28c-2-.1-4.61-.07-8,0s-5.5.18-6.3.22a2.25,2.25,0,0,1-.39-1.78c0-1.2.21-1.71.41-1.72a14.67,14.67,0,0,0,4.07-.71c1.88-.49,2.85-1,3.12-1.66.7-2,1-5.26,1.22-9.57l.59-16.15a6.8,6.8,0,0,0-.61-2.17c-.45-1.08-1.24-2.74-2.25-4.89s-2-4.1-2.89-5.66-2.11-4.2-4-7.71-3.21-6.15-4.1-7.9c-2-4-3.74-6.62-5.4-7.74a9.82,9.82,0,0,0-3.18-1.44,20.42,20.42,0,0,0-3-.75c-.2,0-.32-.38-.35-1.08a2.81,2.81,0,0,1,.22-1.51C245.32,197.38,250.13,197.44,258,197.75Z"/><path class="cls-1" d="M339.18,224.2A24,24,0,0,1,356.4,232,23.29,23.29,0,0,1,363,249.53a24.72,24.72,0,0,1-42.77,15.67,24.36,24.36,0,0,1,19-41Zm-1.65,5.09q-5.12-.19-8.18,4.62A23.17,23.17,0,0,0,326,245.59a31.4,31.4,0,0,0,3,15.47c2.23,4.49,5.45,6.73,9.66,6.92,3.41.13,6.14-1.41,8.17-4.72a23.52,23.52,0,0,0,3.32-11.68,36.87,36.87,0,0,0-1-10.56,20,20,0,0,0-4.22-8.3A9.94,9.94,0,0,0,337.54,229.29Z"/><path class="cls-1" d="M401.68,226.56c4,.2,6.88,1.46,8.81,4-.19,6.22-2.14,9.22-5.55,9.09a6.39,6.39,0,0,1-4.12-2.3,7.07,7.07,0,0,0-4.62-2.37c-2.21-.09-4.05,1-5.44,3.28a14.15,14.15,0,0,0-2.15,7l-.51,13.64a46,46,0,0,0,.39,9.79q.19.74,2.79,1.66a11.93,11.93,0,0,0,3.65.92c.2,0,.33.58.28,1.59a18,18,0,0,1-.09,2.11l-5.74-.61c-3.22-.34-5.73-.51-7.44-.63a71.58,71.58,0,0,0-7.61.08c-3.3.07-5.3.17-5.8.19-.31-.28-.35-1-.41-2.08s.22-1.61.52-1.63a13.72,13.72,0,0,0,4-.7c1.78-.49,2.76-.94,2.93-1.45a35.83,35.83,0,0,0,1.1-8l.71-17.76c.13-3.41-.39-5.79-1.46-7a4.67,4.67,0,0,0-2.39-1.68,15.77,15.77,0,0,0-2.54-.77c-.7-.06-1-.25-1-.35.09-2.11.34-3.22.64-3.24a166.55,166.55,0,0,0,17.69-2.59,4.4,4.4,0,0,1,.89-.15c.3,0,.51.27.74.76a3.18,3.18,0,0,1,.27,1.29,9.59,9.59,0,0,0-.22,1.51,16,16,0,0,1-.39,2.12,7.44,7.44,0,0,0-.22,1.51,21.55,21.55,0,0,1,5.55-5.09A11.22,11.22,0,0,1,401.68,226.56Z"/><path class="cls-1" d="M461.84,236.15a78.52,78.52,0,0,0-7.07,4.66,74.27,74.27,0,0,0-8.95,7.26c2,2.3,4.58,5.38,7.57,9.13s5.55,6.83,7.57,9.23a58.35,58.35,0,0,0,4.14,4.6,11.92,11.92,0,0,0,4.12,2.3,14.71,14.71,0,0,0,3.66,1c.3,0,.43.68.4,1.88-.06.8-.13,1.31-.12,1.51-7.95-.7-12.17-1-12.77-1.06l-4.21-.09c-1.4,0-3,.05-4.7.14s-3.1.06-4.1.11a2.68,2.68,0,0,1-.4-2q.07-1.51.52-1.53a5.7,5.7,0,0,0,2.48-.43q1.48-.38,1.45-1c0-.1,0-.2-.11-.19l-15.24-18.36-1.29.27-.26,6.72a50.85,50.85,0,0,0,.49,9.79c.12.49,1.05,1,2.89,1.66a13.14,13.14,0,0,0,3.75.91c.2,0,.33.58.28,1.59a5.75,5.75,0,0,1-.29,2.12q-.76-.11-5.74-.61c-3.32-.33-5.83-.51-7.54-.62a71.58,71.58,0,0,0-7.61.08c-3.3.07-5.3.17-5.8.19-.31-.28-.35-1-.41-2.08s.22-1.61.52-1.63a13.72,13.72,0,0,0,4-.7c1.78-.49,2.76-.94,2.93-1.45a35.83,35.83,0,0,0,1.1-8l1.73-45.24a37.2,37.2,0,0,0-.27-7.4c-.36-1.18-2.19-1.79-5.6-1.92l-1,0c-.4,0-.63-.57-.59-1.77s.31-1.72.71-1.74c2.3-.12,4.39-.32,6.48-.63s3.78-.59,5.06-.86a24.48,24.48,0,0,0,3.56-1c1-.35,2.07-.6,3.16-1h.2c.3,0,.61.27.83.66a1.92,1.92,0,0,1,.46,1.18,33.64,33.64,0,0,0-1.69,10.2l-1.37,36.41a11.58,11.58,0,0,0,3.35-1.07c1.54-1.28,3.27-2.67,5.1-4.16s3.18-2.46,3.95-3.1,1.64-1.28,2.5-2a6.66,6.66,0,0,0,1.61-1.78,2.11,2.11,0,0,0,.43-1.32c.06-.8-.77-1.36-2.38-1.58a8.1,8.1,0,0,1-2.43-.48,5.55,5.55,0,0,1-.3-1.89c.06-.8.14-1.21.44-1.22q8.28.33,10.53.37c2,.1,5.81.11,11.52,0a1.46,1.46,0,0,1,.46,1.18,4.14,4.14,0,0,1-.12,1.61c-.17.51-.26.71-.56.73A25.73,25.73,0,0,0,461.84,236.15Z"/><path class="cls-1" d="M567,261.19a69.34,69.34,0,0,1-2,8.41c-1.27,4.67-2.15,7.12-2.83,7.35-6.47,2.83-14.92,4.05-25.45,3.58A32.54,32.54,0,0,1,512.66,269a35.48,35.48,0,0,1-9.2-25.57,37,37,0,0,1,11.4-26.11,33.64,33.64,0,0,1,25.92-10.12,122.09,122.09,0,0,1,25.63,3.92q.31.13.36,7.19c0,4.7.08,7.61,0,8.81s-.92,1.65-2.73,1.54a2.92,2.92,0,0,1-1.53-.52,19.3,19.3,0,0,0-1.41-4.13,26.2,26.2,0,0,0-3.25-4.84,16.68,16.68,0,0,0-6.64-4.57A30.52,30.52,0,0,0,541,212.54c-7.12-.24-12.79,2.45-16.91,8.16s-6.47,12.74-6.76,20.87c-.34,9.13,1.55,16.94,5.79,23.54s10.41,9.89,18.54,10.28c6.42.28,11.63-1.59,15.54-5.49a15.11,15.11,0,0,0,2.71-3.94c.82-1.64,1.45-3.08,1.89-4.2s.71-1.74.91-1.75C565.38,260.17,566.8,260.5,567,261.19Z"/><path class="cls-1" d="M592,266.54a38.93,38.93,0,0,0,.49,9.79c.12.49,1.05,1,2.89,1.66a13.81,13.81,0,0,0,3.65.92c.3,0,.43.58.38,1.58a12.24,12.24,0,0,1-.19,2.11c-.5-.07-2.42-.28-5.84-.61s-5.83-.51-7.44-.63c-1.81-.11-4.41-.08-7.71,0s-5.2.16-5.7.19c-.31-.28-.35-1-.41-2.08s.22-1.61.52-1.63a14.44,14.44,0,0,0,4-.7c1.88-.49,2.86-.94,3-1.45a35.83,35.83,0,0,0,1.1-8l.71-17.76c.13-3.41-.39-5.79-1.46-7a5.46,5.46,0,0,0-2.49-1.68,12.91,12.91,0,0,0-2.54-.77c-.7-.06-1.11-.24-1.12-.34.09-2.11.34-3.22.74-3.24a88.16,88.16,0,0,0,8.86-.95c3.87-.6,6.75-1.14,8.73-1.64a4.4,4.4,0,0,0,.89-.15c.4,0,.61.27.84.76a1.73,1.73,0,0,1,.16,1.19,81,81,0,0,0-1.23,9.37Zm-9.53-46.08a6.4,6.4,0,0,1-1.74-4.82,6.94,6.94,0,0,1,2.17-4.71,6.4,6.4,0,0,1,4.92-1.75,6.73,6.73,0,0,1,4.71,2.17,6.17,6.17,0,0,1,1.74,4.82,6.73,6.73,0,0,1-2.17,4.71,6.46,6.46,0,0,1-4.91,1.85A6.28,6.28,0,0,1,582.5,220.46Z"/><path class="cls-1" d="M612.63,242.18l-6.62-.27c-.5,0-.75-1-.65-2.87a2.15,2.15,0,0,1,.15-1,29.55,29.55,0,0,0,8.64-5.44c1-.95,2-1.9,3.25-3.07s2.57-2.63,4.18-4.52a6.53,6.53,0,0,1,2,.4c.61.17.92.45.93.65l-.37,10.63c1.91.1,4.51.17,7.93.3s5.22.24,5.42.23c.6.07.82.36.85,1.06a12.36,12.36,0,0,1-1.26,4.77l-13-.55-1,26.28a10.06,10.06,0,0,0,1.64,6.73,6.26,6.26,0,0,0,5,2.45,9.06,9.06,0,0,0,2.29-.22c.79-.14,1.48-.37,2-.5s1-.35,1.47-.57a4.42,4.42,0,0,1,.78-.34c.3,0,.61.27,1,1.05s.46,1.18.37,1.38c-.45,1-2.1,2.11-4.74,3.34a17.51,17.51,0,0,1-7.82,1.7,13.36,13.36,0,0,1-9.51-4c-2.53-2.58-3.72-6.32-3.58-11.43Z"/><path class="cls-1" d="M656.34,237.27q2.4,0,6.91,0a53.63,53.63,0,0,1,5.6-.08,6.62,6.62,0,0,1,.1,2q-.07,1.51-.52,1.53a10.94,10.94,0,0,0-3.47.68c-1.58.48-2.45,1-2.52,1.73l-.06.7c.06,1.2,3.18,9.55,9.18,25.17.63-1.33,2.16-4.81,4.68-10.55s3.95-9.11,4.31-9.93a9.11,9.11,0,0,0,.73-3.34,3.33,3.33,0,0,0-1.64-2.72,9.28,9.28,0,0,0-5.18-1.44c-.3,0-.43-.58-.39-1.68a3.11,3.11,0,0,1,.51-1.83c.9.05,2.61.17,5.33.53a55.88,55.88,0,0,0,6.64.57c1.5,0,3.41,0,5.6-.08s3.8-.19,4.9-.15a4.85,4.85,0,0,1,.39,1.78c0,1.2-.21,1.71-.51,1.73a12.54,12.54,0,0,0-4.46.93,6,6,0,0,0-3.85,3.1l-21.75,47.35C662,303.67,656.33,308.76,650,308.48a5.94,5.94,0,0,1-4.29-1.69,4.93,4.93,0,0,1-1.38-3.54,5.16,5.16,0,0,1,2.19-4.22c7.53.32,12.69-2.54,15.3-8.38,1.89-4.3,3-6.76,3.24-7.27l-14.51-37.62a12.07,12.07,0,0,0-1.23-2.54,6.14,6.14,0,0,0-3.13-2.55,9.87,9.87,0,0,0-3.55-.92c-.3,0-.42-.48-.38-1.58s.21-1.81.4-1.92c.4,0,2.41.18,5.83.51S654.54,237.26,656.34,237.27Z"/><path class="cls-1" d="M716,217.95a15.75,15.75,0,0,1-1.32,5.57,16.65,16.65,0,0,1-3,4.56,34.68,34.68,0,0,1-3.54,3.18,16.56,16.56,0,0,1-3.1,2.06,6.67,6.67,0,0,1-1.57.68,2.63,2.63,0,0,1-1.64-.82,4.45,4.45,0,0,1-1.28-1.64,16.59,16.59,0,0,0,4.91-3.85,13.09,13.09,0,0,0,2.52-3.63,10.09,10.09,0,0,0,.59-2.13c.05-.9-.71-2.27-2.1-4s-2.15-3-2.11-4.1.79-2.24,2.34-3.22a9.94,9.94,0,0,1,5-1.26,7.11,7.11,0,0,1,3,.85C715.74,212,716.17,214.44,716,217.95Z"/><path class="cls-1" d="M737.14,239.12a44,44,0,0,1,12.54,2.37,61.6,61.6,0,0,1,.72,12.28c-.07.6-.46.82-1.46.77-1.6,0-2.42-.38-2.55-1a13.69,13.69,0,0,0-2.93-6.56,8.46,8.46,0,0,0-6.45-2.88,7.48,7.48,0,0,0-5,1.26,4.55,4.55,0,0,0-1.9,4,5.19,5.19,0,0,0,.54,2.78,6.56,6.56,0,0,0,1.82,2.41,16.23,16.23,0,0,0,2.29,1.79,26.82,26.82,0,0,0,3,1.85c.51.27.82.46,1,.55s.72.36,1.65.92,1.55.92,1.75,1,.83.56,1.66,1.12a12.59,12.59,0,0,1,1.87,1.31c.31.28.94.75,1.67,1.42a7.28,7.28,0,0,1,1.58,1.62q.49.73,1.29,1.74a6.7,6.7,0,0,1,1.1,2,11.21,11.21,0,0,1,.51,2.08,19.27,19.27,0,0,1,.22,2.39,12.75,12.75,0,0,1-5.67,10.6,20.41,20.41,0,0,1-12.94,3.45,35.14,35.14,0,0,1-13.9-3.61,49.19,49.19,0,0,1-.91-6.06q-.36-4.19-.32-6.29a2.28,2.28,0,0,1,1.58-.48c1.7,0,2.52.37,2.55,1a11.88,11.88,0,0,0,4,7.51,11.57,11.57,0,0,0,7.36,3,7.76,7.76,0,0,0,5-1.35,5.06,5.06,0,0,0,2.08-4.41,6.56,6.56,0,0,0-.2-2,4.13,4.13,0,0,0-1-1.85c-.53-.67-.86-1.16-1.18-1.54a7.56,7.56,0,0,0-1.88-1.51,18.64,18.64,0,0,0-2.17-1.29c-.51-.27-1.34-.73-2.68-1.57s-2.27-1.29-2.68-1.57a24.33,24.33,0,0,1-7.52-6.13,11.63,11.63,0,0,1-2.4-7.89c.18-4.41,2-7.81,5.6-10A20.62,20.62,0,0,1,737.14,239.12Z"/><path class="cls-1" d="M183.08,381.52a67.83,67.83,0,0,1-.7,8.55c-.57,4.76-1.07,7.31-1.68,7.7-6,3.76-14.1,6.27-24.58,7.5a32.47,32.47,0,0,1-25.53-7.65,35.55,35.55,0,0,1-13-23.78,37.54,37.54,0,0,1,7.25-27.6,33.25,33.25,0,0,1,24-13.91,115.73,115.73,0,0,1,25.85-.06c.22,0,.71,2.4,1.44,7s1.2,7.57,1.32,8.68-.63,1.75-2.44,2a3.65,3.65,0,0,1-1.54-.27,16.67,16.67,0,0,0-2.06-3.77,27.8,27.8,0,0,0-4-4.25,16.45,16.45,0,0,0-7.19-3.5,27.51,27.51,0,0,0-10.46-.44,19,19,0,0,0-15.51,10.65c-3.25,6.28-4.44,13.52-3.48,21.68,1,9.08,4.16,16.5,9.35,22.37s11.81,8.18,19.88,7.24c6.45-.77,11.31-3.36,14.56-7.87a12.78,12.78,0,0,0,2-4.36c.5-1.82,1-3.32,1.29-4.45a4.75,4.75,0,0,1,.6-1.85C181.3,380.79,182.79,380.88,183.08,381.52Z"/><path class="cls-1" d="M221,348.58c9.28-1.08,14.66,5.46,16.37,19.66l1.34,11.18a38.39,38.39,0,0,0,2,9.62c.14.48,1.11.92,3.09,1.27a18.42,18.42,0,0,0,3.88.41c.19-.06.36.52.55,1.51a13,13,0,0,1,.21,2.13c-.54,0-2.47.11-5.86.28s-5.83.37-7.45.54c-1.81.22-4.2.62-7.25,1.21s-4.94.94-5.64,1a3.46,3.46,0,0,1-.6-2c-.12-1.11-.07-1.65.12-1.7a13.22,13.22,0,0,0,3.59-1.27c1.54-.77,2.42-1.34,2.56-1.91a38.77,38.77,0,0,0-.27-8L226.37,372c-.72-5.94-2-10-3.9-12.09s-4.62-2.91-8.14-2.49a10.25,10.25,0,0,0-5.72,2.53c-1.66,1.43-2.37,2.89-2.24,4.42L208.57,383a38.39,38.39,0,0,0,2,9.62c.24.45,1.2.89,3.09,1.27a16.11,16.11,0,0,0,3.75.35c.19-.06.36.52.55,1.51a6.37,6.37,0,0,1,.12,2.16c-.63,0-2.47.11-5.77.25s-5.64.32-7.36.51-4.2.62-7.47,1.17-5.13,1-5.73,1.07a3.2,3.2,0,0,1-.69-2c-.12-1.11-.07-1.65.24-1.64a19.71,19.71,0,0,0,3.9-1.26c1.67-.7,2.61-1.4,2.66-1.94a33.09,33.09,0,0,0-.15-7.88l-5.24-45.07a43.36,43.36,0,0,0-1.43-7.29c-.53-1.09-2.42-1.47-5.85-1.08l-1,.09q-.62,0-.8-1.64c-.12-1.11,0-1.77.41-1.79a48,48,0,0,0,6.29-1.66c2-.6,3.61-1.18,4.93-1.67a28.43,28.43,0,0,0,3.31-1.5,30.62,30.62,0,0,1,2.93-1.39l.19-.06c.29-.09.56.15,1,.44a3,3,0,0,1,.63,1.07A33.13,33.13,0,0,0,203,335l2.53,21.88c0,.41.2.67.49.59.1,0,.16-.15.42-.33a20.4,20.4,0,0,1,6.1-5.46A19.85,19.85,0,0,1,221,348.58Z"/><path class="cls-1" d="M271.27,375.7a38.39,38.39,0,0,0,2,9.62c.24.45,1.2.89,3.09,1.27a18.4,18.4,0,0,0,3.75.35c.29-.09.55.46.65,1.48a6.37,6.37,0,0,1,.12,2.16c-.54,0-2.47.11-5.86.28s-5.83.37-7.45.54c-1.81.22-4.29.65-7.57,1.2s-5.13,1-5.64,1a3.2,3.2,0,0,1-.69-2c-.12-1.11-.07-1.65.24-1.64a18.8,18.8,0,0,0,3.81-1.23c1.76-.73,2.61-1.4,2.75-2a32.63,32.63,0,0,0-.18-8l-2.1-17.63c-.39-3.43-1.27-5.67-2.53-6.76a5.37,5.37,0,0,0-2.68-1.29,12.76,12.76,0,0,0-2.71-.34c-.73,0-1.07-.1-1.1-.19-.21-2.13-.11-3.2.27-3.31a75.21,75.21,0,0,0,8.59-2.34,80.41,80.41,0,0,0,8.29-3,4.4,4.4,0,0,0,.83-.35c.41,0,.69.21.93.66a2.4,2.4,0,0,1,.34,1.15c-.06,4.71,0,7.82.19,9.44Zm-16.6-44a6.52,6.52,0,0,1-2.51-4.58,6.23,6.23,0,0,1,1.37-4.89,6.52,6.52,0,0,1,4.58-2.51,6.23,6.23,0,0,1,5,1.43,6.77,6.77,0,0,1,1,9.5,6.56,6.56,0,0,1-4.55,2.6A7.12,7.12,0,0,1,254.67,331.7Z"/><path class="cls-1" d="M316,337.48c9.28-1.08,14.87,5.81,16.53,20.55l1.18,10.29a39.56,39.56,0,0,0,1.92,9.65c.24.45,1.2.89,3.19,1.25a12.33,12.33,0,0,0,3.85.32c.19-.06.36.52.55,1.51a6.37,6.37,0,0,1,.12,2.16c-.41,0-2.38.08-5.77.25s-5.93.4-7.55.57-4.1.59-7.16,1.19-4.84.91-5.51,1.11a3.2,3.2,0,0,1-.69-2c-.12-1.11-.07-1.65.24-1.64a12.66,12.66,0,0,0,3.49-1.24c1.54-.77,2.42-1.34,2.47-1.88a31,31,0,0,0-.08-8l-1.18-10.29c-.72-5.94-1.94-10.06-3.86-12.31s-4.67-3.1-8.2-2.68a10.28,10.28,0,0,0-5.81,2.56c-1.54,1.5-2.28,2.87-2.14,4.39l2.19,18.65a39.56,39.56,0,0,0,1.92,9.65c.24.45,1.2.89,3.09,1.27a18.43,18.43,0,0,0,3.66.38c.29-.09.55.46.65,1.48a6.37,6.37,0,0,1,.12,2.16c-.63,0-2.47.11-5.77.25s-5.64.32-7.36.51-4.2.62-7.47,1.17-5.13,1-5.73,1.07a3.2,3.2,0,0,1-.69-2c-.12-1.11-.07-1.65.24-1.64a19.71,19.71,0,0,0,3.9-1.26c1.67-.7,2.61-1.4,2.66-1.94a32.63,32.63,0,0,0-.18-8l-2.1-17.63c-.39-3.43-1.27-5.67-2.53-6.76a5.78,5.78,0,0,0-2.58-1.32,16,16,0,0,0-2.71-.34c-.73,0-1.07-.1-1.1-.19-.21-2.13-.21-3.17.17-3.28a156.85,156.85,0,0,0,17-5.25.37.37,0,0,1,.26-.18l.29-.09.29-.09q.43-.13.83.69a2.7,2.7,0,0,1,.44,1.12c0,2.09,0,3.35,0,4l.17.58a3.93,3.93,0,0,0,.52-.36A26.7,26.7,0,0,1,308,340.5,18.08,18.08,0,0,1,316,337.48Z"/><path class="cls-1" d="M366.58,331.67c4.45-.48,8,.24,10.49,2.31s4.07,6,4.73,11.74l2.48,21.38a5.19,5.19,0,0,0,1.35,3.15,3.2,3.2,0,0,0,2.76.85,6.67,6.67,0,0,0,3.51-1.88c.44.08.75.4.75,1.13a6.46,6.46,0,0,1-.27,3.31,22.76,22.76,0,0,1-4.06,3.19,11.52,11.52,0,0,1-5,2,8,8,0,0,1-5.08-1.31,8.33,8.33,0,0,1-3.58-3.63c-.07.12-.33.31-.69.83a22.22,22.22,0,0,1-1.8,1.68c-.75.64-1.69,1.34-2.63,2a14.13,14.13,0,0,1-3.51,1.88,20.45,20.45,0,0,1-4.15,1.13,12.59,12.59,0,0,1-9.14-2,10.47,10.47,0,0,1-4.39-7.77,9.7,9.7,0,0,1,.7-5,13.39,13.39,0,0,1,2.54-4.09,20.83,20.83,0,0,1,4.32-3.37,38.91,38.91,0,0,1,4.84-2.69c1.38-.62,3.12-1.45,5.27-2.29s3.6-1.59,4.43-1.94a1.85,1.85,0,0,0,.79-1.9l-.72-5.94a9.51,9.51,0,0,0-2.43-5.74,6,6,0,0,0-4.88-1.68,6.66,6.66,0,0,0-4.86,2.59,8.26,8.26,0,0,0-1.18,5.88,3.54,3.54,0,0,1-1.28,3.41,7,7,0,0,1-3.53,1.46c-2.63.26-4.67-.28-5.88-1.9q-.59-5.15,6-10.53A25.92,25.92,0,0,1,366.58,331.67Zm0,42.14a9.42,9.42,0,0,0,4.91-2.08,4.29,4.29,0,0,0,1.71-3.74l-1.31-11.09c-.45.24-1.54.77-3.12,1.45s-2.76,1.24-3.57,1.68a23,23,0,0,0-2.88,1.9,6.14,6.14,0,0,0-2.24,2.65,5.92,5.92,0,0,0-.42,3.15c.27,2.32,1.07,4,2.27,4.85A6.29,6.29,0,0,0,366.57,373.81Z"/><path class="cls-1" d="M399.93,335.44l-6.54.79c-.51,0-.89-.88-1.11-2.69a2.19,2.19,0,0,1,0-.95,29.83,29.83,0,0,0,7.69-6.77c.83-1.08,1.75-2.19,2.71-3.52s2.13-3,3.4-5.08a6.64,6.64,0,0,1,2.09,0c.66.12,1,.22,1.09.51l1.26,10.58c1.91-.25,4.54-.51,7.88-.88s5.15-.59,5.37-.55c.6-.07.91.25,1,.86a10.08,10.08,0,0,1-.54,4.85l-13,1.56,3.05,26.11c.35,2.92,1.19,5.07,2.63,6.42a6.11,6.11,0,0,0,5.39,1.64,8.68,8.68,0,0,0,2.23-.56,5.62,5.62,0,0,0,1.83-.86c.45-.24.87-.57,1.32-.81s.61-.39.71-.42c.29-.09.69.21,1.08.83s.66,1.16.62,1.38c-.32,1-1.69,2.38-4.22,4.07a15.85,15.85,0,0,1-7.5,2.85,13.55,13.55,0,0,1-10-2.55c-2.93-2.15-4.71-5.69-5.27-10.74Z"/><path class="cls-1" d="M455.2,321.33a24.09,24.09,0,0,1,18.18,5,24.61,24.61,0,0,1-30.74,38.43,24.49,24.49,0,0,1-4-34.37A23.69,23.69,0,0,1,455.2,321.33Zm-.84,5.26c-3.43.39-5.87,2.37-7.35,5.83a23.89,23.89,0,0,0-1.42,12.1,31.44,31.44,0,0,0,5.33,14.8c2.87,4.05,6.32,5.84,10.55,5.32,3.43-.39,5.87-2.37,7.41-6a23.51,23.51,0,0,0,1.54-12,38.26,38.26,0,0,0-2.63-10.28,19.72,19.72,0,0,0-5.47-7.55A11,11,0,0,0,454.36,326.59Z"/><path class="cls-1" d="M554.38,318.09a3.41,3.41,0,0,0-1.16-2.16,4.8,4.8,0,0,0-2.4-1.06c-1-.13-1.73-.22-2.59-.28a9.83,9.83,0,0,0-2.25.15l-.41,0c-.29.09-.55-.46-.68-1.57a4.44,4.44,0,0,1,0-2c.92-.06,2.86-.22,5.74-.35s5.23-.3,6.95-.5a54.27,54.27,0,0,0,5.76-1c2.36-.49,4-.78,5.16-.9a6.5,6.5,0,0,1,.44,1.85c.12,1.11.07,1.65-.24,1.64a15.15,15.15,0,0,0-4.14,1.86c-1.84,1.17-3.05,2.37-3.38,3.72l-11.34,40.18a4.53,4.53,0,0,1-1.26,1.73,3.49,3.49,0,0,1-2,.91,1.55,1.55,0,0,1-1.53-.59L528.4,331.43,520.07,361A7,7,0,0,1,519,362.7a3.46,3.46,0,0,1-2.25,1.19,1.71,1.71,0,0,1-1.63-.56c-2.1-3.55-4.64-7.91-7.51-13s-5.56-9.61-7.87-13.52-5-8.11-8-12.64a4.59,4.59,0,0,0-3-1.81,10.11,10.11,0,0,0-3.53-.31c-.29.09-.46-.49-.61-1.7-.09-1-.07-1.65.16-1.92.7-.1,2.54-.23,5.55-.29s5.23-.3,6.95-.5,4.1-.59,7.35-1.24,5.06-.88,5.54-1a7.5,7.5,0,0,1,.47,1.95c.06.92,0,1.46-.18,1.51a12.45,12.45,0,0,0-3.61,1.18c-1.48.65-2.14,1.57-2,2.59,0,.1,4.57,8,13.7,23.68q.77-3.2,1.95-7.15c.76-2.73,1.3-4.77,1.72-6.14s.73-2.82,1.15-4.2.62-2.48.8-3.26.17-1.2.21-1.42a9.08,9.08,0,0,0-1.86-4.14,5.28,5.28,0,0,0-2.61-1.42,8.27,8.27,0,0,0-4-.17c-.29.09-.46-.49-.65-1.48s-.07-1.65.25-2c.8-.13,2.57-.14,5.42-.36s5-.24,6.85-.47c1.62-.17,3.91-.53,7-1.13s4.94-.94,5.44-1a5.5,5.5,0,0,1,.38,2q.14,1.52-.15,1.61c-3.72.48-5.38,1.91-5.05,4.42.21,1.4,4.45,9,12.94,22.86.83-3.17,1.81-6.9,3.06-11.13l2.69-9.56A26.77,26.77,0,0,0,554.38,318.09Z"/><path class="cls-1" d="M609.26,303.38c9.28-1.08,14.87,5.81,16.53,20.55L627,334.21a39.56,39.56,0,0,0,1.92,9.65q.36.68,3.19,1.25a18.42,18.42,0,0,0,3.88.41c.19-.06.36.52.55,1.51a6.37,6.37,0,0,1,.12,2.16c-.41,0-2.38.08-5.77.25s-5.93.4-7.55.57-4.1.59-7.16,1.19-4.84.91-5.51,1.11a3.2,3.2,0,0,1-.69-2c-.12-1.11-.07-1.65.24-1.64a12.66,12.66,0,0,0,3.49-1.24c1.54-.77,2.42-1.34,2.47-1.88a31,31,0,0,0-.08-8l-1.18-10.29c-.72-5.94-1.94-10.06-3.86-12.31s-4.67-3.1-8.2-2.68a10.28,10.28,0,0,0-5.81,2.56c-1.54,1.5-2.28,2.87-2.14,4.39l2.19,18.65a39.56,39.56,0,0,0,1.92,9.65c.24.45,1.2.89,3.09,1.27a18.43,18.43,0,0,0,3.66.38c.29-.09.55.46.65,1.48a6.37,6.37,0,0,1,.12,2.16c-.63,0-2.47.11-5.77.25s-5.64.32-7.36.51-4.2.62-7.47,1.17-5.13,1-5.73,1.07a3.2,3.2,0,0,1-.69-2c-.12-1.11-.07-1.65.24-1.64a19.71,19.71,0,0,0,3.9-1.26c1.67-.7,2.61-1.4,2.66-1.94a32.63,32.63,0,0,0-.18-8L584,323.38c-.39-3.43-1.27-5.67-2.53-6.76a5.78,5.78,0,0,0-2.58-1.32,16,16,0,0,0-2.71-.34c-.73,0-1.07-.1-1.1-.19-.21-2.13-.21-3.17.17-3.28a156.85,156.85,0,0,0,17-5.25.37.37,0,0,1,.26-.18l.29-.09.29-.09q.43-.13.83.69a2.7,2.7,0,0,1,.44,1.12c0,2.09,0,3.35,0,4l.17.58a3.93,3.93,0,0,0,.52-.36,26.7,26.7,0,0,1,6.13-5.36A18.14,18.14,0,0,1,609.26,303.38Z"/></svg>