<?xml version="1.0" encoding="utf-8"?>
<!-- Generator: Adobe Illustrator 21.1.0, SVG Export Plug-In . SVG Version: 6.00 Build 0)  -->
<svg version="1.1" xmlns="http://www.w3.org/2000/svg" xmlns:xlink="http://www.w3.org/1999/xlink" x="0px" y="0px"
	 viewBox="0 0 1197.3 394.5" style="enable-background:new 0 0 1197.3 394.5;" xml:space="preserve">
<style type="text/css">
	.st0{fill:#FAEFE6;}
	.st1{fill:url(#SVGID_1_);}
	.st2{fill:url(#SVGID_8_);}
	.st3{fill:url(#SVGID_9_);}
	.st4{fill:#232DAF;}
	.st5{fill:#2F3390;}
	.st6{fill:#F8EDF4;}
	.st7{fill:#EB7975;}
	.st8{fill:#FFFFFF;}
	.st9{fill:#606060;}
	.st10{fill:#1414EF;}
	.st11{fill:none;}
	.st12{fill:#FEC7C8;}
	.st13{fill:#FFFFFF;stroke:#1414EF;stroke-width:1.2;stroke-miterlimit:10;}
	.st14{fill:#FF00FF;}
	.st15{fill:#FFFFFF;stroke:#2F3390;stroke-width:1.2;stroke-miterlimit:10;}
	.st16{fill:none;stroke:#2F3390;stroke-width:1.5;stroke-miterlimit:10;}
	.st17{fill:none;stroke:#2F3390;stroke-width:1.5;stroke-linejoin:bevel;stroke-miterlimit:10;}
	.st18{fill:#FFFFFF;stroke:#1414EF;stroke-width:0.7049;stroke-miterlimit:10;}
	.st19{fill:#FDC7C9;}
	.st20{fill:#0624FF;}
	.st21{fill:#FFFFFF;stroke:#1414EF;stroke-width:1.2587;stroke-miterlimit:10;}
	.st22{fill:#FFFFFF;stroke:#2F3390;stroke-width:2;stroke-miterlimit:10;}
	.st23{fill:none;stroke:#1414EF;stroke-width:3.025;stroke-miterlimit:10;}
	.st24{fill:none;stroke:#1414EF;stroke-width:3.025;stroke-linejoin:bevel;stroke-miterlimit:10;}
	.st25{fill:#EB7975;stroke:#FAEFE6;stroke-width:1.4;stroke-miterlimit:10;}
	.st26{fill:#2F3380;}
	.st27{fill:#F9DEFF;}
	.st28{fill:#FFFFFF;stroke:#0000FF;stroke-width:1.2;stroke-miterlimit:10;}
	.st29{fill:#0000FF;}
	.st30{fill:#FF7171;}
	.st31{fill:#FF7878;}
	.st32{fill:#F0C2F7;}
	.st33{fill:#FDED34;}
	.st34{fill:#FFEB76;}
	.st35{fill:#EFEFEF;}
	.st36{fill:none;stroke:#000000;stroke-miterlimit:10;}
	.st37{fill:url(#SVGID_28_);}
	.st38{fill:#FFFFFF;stroke:#1414EF;stroke-width:1.75;stroke-miterlimit:10;}
	.st39{fill:url(#SVGID_29_);}
	.st40{fill:#FFFFFF;stroke:#1414EF;stroke-width:1.1183;stroke-miterlimit:10;}
</style>
<g id="Layer_1">
	<g>
		<g>
			<path class="st18" d="M18.2,78.3c2.1-0.1,4.5-0.4,7.3-0.6c2.7-0.3,5.2-0.5,7.4-0.6c2.2-0.1,4.3-0.1,6.5,0.2
				c2.2,0.3,4.3,0.8,6.6,1.7c2.2,0.9,4.2,2,5.9,3.4c1.7,1.4,3.2,3.2,4.4,5.4c1.2,2.3,1.9,4.8,2.1,7.6c0.2,3.4-0.4,6.8-2,10.2
				c-1.6,3.4-4.1,6.3-7.5,8.8c-3.4,2.5-7.4,3.9-11.9,4.2c-1.5,0.1-3.1-0.1-4.6-0.5c-1.6-0.4-2.7-1-3.3-1.8c-0.2-0.1-0.3-0.5-0.5-1.1
				c-0.1-0.6-0.2-1.1-0.2-1.6c0-0.5,0.1-0.8,0.3-0.8c1.7,0.6,3.8,0.8,6.2,0.7c3.5-0.2,6.1-1.8,8-4.8c1.8-3,2.6-6.7,2.3-11
				c-0.3-4.9-1.5-8.6-3.7-11.3c-2.1-2.7-5.2-3.9-9.3-3.7c-3,0.2-5.1,0.6-6.3,1.2c-0.8,0.5-1,4.3-0.6,11.4l2.5,38.8
				c0.3,4.4,0.8,7.4,1.5,9.2c0.3,0.9,1.5,1.5,3.8,1.9c2.2,0.4,3.9,0.6,4.9,0.5c0.3,0,0.5,0.6,0.6,1.8c0.1,0.8,0,1.4-0.1,1.9
				c-8,0.1-13.2,0.2-15.5,0.4c-2,0.1-4.1,0.3-6.6,0.6c-2.4,0.3-4.4,0.5-5.8,0.7l-2.2,0.4C8.2,151,8,150.4,8,149.3
				c-0.1-1.2,0-1.7,0.2-1.8c0.9-0.1,2.3-0.4,4.1-1c1.8-0.6,2.8-1.2,3.1-1.9c0.4-1.3,0.4-4.6,0-9.9l-2.7-41.1
				c-0.3-4.1-0.7-7.1-1.2-8.9c-0.3-0.6-1.4-1.1-3.3-1.6c-2-0.5-3.4-0.7-4.2-0.7c-0.3,0-0.5-0.5-0.5-1.6s0-1.8,0.3-2
				C11.3,78.7,16.2,78.5,18.2,78.3z"/>
			<path class="st18" d="M96.2,96.8c4-0.3,7,0.7,9.2,3c0.4,6.2-1.1,9.4-4.6,9.6c-1.3,0.1-2.8-0.5-4.4-1.9c-1.6-1.3-3.2-2-4.8-1.9
				c-2.2,0.1-3.9,1.4-5,3.8c-1.1,2.4-1.6,4.8-1.4,7.2l0.9,13.6c0.3,4.4,0.8,7.7,1.4,9.7c0.2,0.5,1.2,1,3,1.4c1.8,0.4,3,0.6,3.7,0.6
				c0.2,0,0.4,0.5,0.5,1.6c0.1,1,0.1,1.8,0.1,2.1c-0.6,0-2.5-0.1-5.8-0.1c-3.3,0-5.8,0-7.4,0.2c-1.7,0.1-4.3,0.4-7.5,0.8
				c-3.3,0.4-5.2,0.7-5.8,0.8c-0.3-0.3-0.5-1-0.6-2c-0.1-1.1,0-1.6,0.3-1.7c0.9-0.1,2.2-0.4,3.9-1.1c1.7-0.7,2.7-1.2,2.8-1.8
				c0.4-2.2,0.4-4.9,0.2-8l-1.2-17.7c-0.2-3.4-1-5.7-2.2-6.8c-0.6-0.7-1.5-1.2-2.6-1.5c-1.1-0.3-2-0.5-2.7-0.5c-0.7,0-1-0.1-1.1-0.3
				c-0.1-2.1,0-3.2,0.3-3.3c3.3-0.5,9.1-2,17.3-4.4c0.5-0.2,0.8-0.3,0.9-0.3c0.3,0,0.6,0.2,0.8,0.7c0.3,0.5,0.4,0.9,0.4,1.2
				c0,0.3,0,0.8-0.1,1.5c0,0.7-0.1,1.4-0.1,2.2c-0.1,0.8-0.1,1.3-0.1,1.5c1.2-2,2.8-3.9,5-5.6C91.6,97.9,93.9,97,96.2,96.8z"/>
			<path class="st18" d="M135.7,94.2c6.8-0.4,12.8,1.5,17.9,6c5.1,4.4,7.9,10,8.4,16.8c0.4,6.7-1.6,12.7-6,17.8
				c-4.4,5.1-10.1,7.9-17,8.3c-6.9,0.5-12.9-1.6-18-6c-5.1-4.5-7.9-10.1-8.3-16.8c-0.4-6.8,1.6-12.7,6-17.8
				C123.1,97.4,128.8,94.7,135.7,94.2z M134.6,99.4c-3.4,0.2-5.9,2-7.6,5.5c-1.7,3.4-2.4,7.4-2.1,12c0.4,5.9,1.9,10.9,4.5,15.1
				c2.6,4.2,6.1,6.2,10.3,5.9c3.4-0.2,6-2.1,7.7-5.5c1.7-3.5,2.4-7.4,2.1-11.9c-0.2-3.8-0.9-7.2-2.1-10.4c-1.2-3.2-2.9-5.8-5.1-7.8
				C140.1,100.2,137.5,99.2,134.6,99.4z"/>
			<path class="st18" d="M173,99.4l-6.6,0.4c-0.5,0-0.8-0.9-0.9-2.8c0-0.5,0-0.8,0-1c2.8-1.5,5.5-3.6,8-6.3c0.9-1,1.8-2.1,2.9-3.4
				s2.3-2.9,3.7-4.9c0.7,0,1.4,0,2.1,0.1c0.7,0.1,1,0.3,1,0.5l0.7,10.7c1.9-0.1,4.5-0.3,7.9-0.5c3.4-0.2,5.2-0.3,5.4-0.3
				c0.6,0,0.9,0.3,0.9,0.9c0.1,1.7-0.1,3.4-0.8,4.9l-13.1,0.9l1.7,26.2c0.2,2.9,0.9,5.1,2.3,6.5c1.3,1.4,3.1,2.1,5.3,1.9
				c0.7,0,1.5-0.2,2.3-0.4c0.8-0.2,1.4-0.5,1.9-0.7c0.5-0.3,1-0.5,1.4-0.7c0.4-0.2,0.7-0.4,0.7-0.4c0.3-0.1,0.6,0.2,1,0.9
				c0.4,0.7,0.6,1.2,0.5,1.4c-0.4,1-1.8,2.3-4.4,3.8c-2.6,1.5-5.1,2.4-7.6,2.5c-3.8,0.2-7.1-0.8-9.9-3c-2.8-2.3-4.4-5.9-4.7-11
				L173,99.4z"/>
			<path class="st18" d="M226.6,88.3c3.4-0.2,6.5,0.2,9.3,1.4c2.8,1.2,5,2.7,6.6,4.7c1.7,2,3,4,3.9,6.2c0.9,2.2,1.5,4.3,1.6,6.3
				c0.1,1.6-0.1,2.6-0.6,3c-0.5,0.4-1.6,0.7-3.3,0.8l-26,1.7c-0.5,0-0.7,0.3-0.7,0.7c0.2,2.6,0.8,5.1,1.9,7.5
				c1.1,2.4,2.9,4.4,5.3,6.1c2.4,1.7,5.2,2.4,8.4,2.2c1.1-0.1,2.1-0.2,3.1-0.4c1-0.2,1.9-0.4,2.8-0.7c0.9-0.3,1.6-0.6,2.2-0.9
				c0.6-0.3,1.3-0.6,1.9-1.1c0.7-0.5,1.1-0.8,1.4-1c0.3-0.2,1-0.7,2.1-1.6c0.1,0.1,0.3,0.3,0.6,0.6c0.2,0.3,0.4,0.7,0.4,1.1
				c0.1,0.8-0.1,1.5-0.5,2.1c-1,2-3,4.1-6,6.3c-3.1,2.2-6.6,3.4-10.6,3.6c-6.3,0.4-11.9-1.6-16.8-5.9c-4.9-4.4-7.5-9.9-8-16.6
				c-0.5-7.3,1.3-13.4,5.2-18.3C214.8,91.3,220.1,88.7,226.6,88.3z M226.2,93.3c-1.7,0.1-3.3,0.7-4.6,1.8c-1.3,1.1-2.3,2.4-2.9,3.9
				c-0.6,1.5-1.1,2.9-1.3,4.2c-0.2,1.3-0.3,2.4-0.3,3.2c0,0.5,0.3,0.7,0.7,0.7l17.6-1.2c0.7,0,0.9-0.6,0.9-1.7
				c-0.2-2.5-1.2-5.1-3.1-7.6C231.3,94.3,229,93.1,226.2,93.3z"/>
			<path class="st18" d="M275.1,85.1c3.8-0.3,7.3,0.2,10.4,1.2c3.1,1.1,5.3,2.3,6.7,3.8c0.2,2.5-0.1,4.5-0.8,6.2
				c-0.7,1.7-1.9,2.6-3.6,2.7c-1.4,0.1-2.5-0.2-3.4-0.9c-0.9-0.7-1.8-1.8-2.8-3.4c-1.9-3.2-4.4-4.7-7.6-4.5
				c-3.1,0.2-5.5,1.9-7.1,5.2c-1.6,3.3-2.3,7.3-2,12.1c0.4,6.5,2.1,11.3,5,14.3s6.4,4.3,10.5,4.1c1.1-0.1,2.1-0.2,3.1-0.4
				c1-0.2,1.9-0.4,2.8-0.7c0.9-0.3,1.6-0.6,2.2-0.9c0.6-0.3,1.3-0.6,1.9-1.1c0.7-0.5,1.1-0.8,1.4-1c0.3-0.2,1-0.7,2.1-1.6
				c0.1,0.1,0.3,0.3,0.6,0.6c0.2,0.3,0.4,0.7,0.4,1.1c0.1,0.8-0.1,1.5-0.5,2.1c-1,2-3,4.1-6,6.3c-3.1,2.2-6.6,3.4-10.5,3.6
				c-6.5,0.4-12.1-1.6-16.9-6c-4.8-4.4-7.5-10-7.9-16.8c-0.4-6.6,1.4-12.5,5.4-17.6C262.5,88.3,268.1,85.6,275.1,85.1z"/>
			<path class="st18" d="M305.8,90.7l-6.6,0.4c-0.5,0-0.8-0.9-0.9-2.8c0-0.5,0-0.8,0-1c2.8-1.5,5.5-3.6,8-6.3c0.9-1,1.8-2.1,2.9-3.4
				c1-1.3,2.3-2.9,3.7-4.9c0.7,0,1.4,0,2.1,0.1c0.7,0.1,1,0.3,1,0.5l0.7,10.7c1.9-0.1,4.5-0.3,7.9-0.5c3.4-0.2,5.2-0.3,5.4-0.3
				c0.6,0,0.9,0.3,0.9,0.9c0.1,1.7-0.1,3.4-0.8,4.9L317,90l1.7,26.2c0.2,2.9,1,5.1,2.3,6.5c1.3,1.4,3.1,2.1,5.3,1.9
				c0.7,0,1.5-0.2,2.3-0.4c0.8-0.2,1.4-0.5,1.9-0.7c0.5-0.3,1-0.5,1.4-0.7c0.4-0.2,0.7-0.4,0.7-0.4c0.3-0.1,0.6,0.2,1,0.9
				c0.4,0.7,0.6,1.2,0.5,1.4c-0.4,1-1.8,2.3-4.4,3.8c-2.6,1.5-5.1,2.4-7.6,2.5c-3.8,0.2-7.1-0.8-9.9-3c-2.8-2.3-4.4-5.9-4.7-11
				L305.8,90.7z"/>
			<path class="st18" d="M358.6,112.4c0.3,4.4,0.8,7.7,1.5,9.7c0.2,0.5,1.2,1,3,1.4c1.8,0.4,3.1,0.6,3.8,0.6c0.3,0,0.5,0.5,0.6,1.5
				c0.1,1,0.1,1.8,0,2.1c-0.5,0-2.5-0.1-5.8-0.1c-3.4,0-5.9,0.1-7.5,0.2c-1.8,0.1-4.4,0.4-7.6,0.8c-3.3,0.4-5.2,0.7-5.7,0.8
				c-0.3-0.3-0.5-1-0.6-2c-0.1-1.1,0-1.6,0.3-1.7c0.8-0.1,2.1-0.4,3.9-1.1c1.8-0.7,2.7-1.3,2.8-1.8c0.4-2.2,0.4-4.9,0.2-8l-1.2-17.7
				c-0.2-3.4-1-5.7-2.2-6.8c-0.7-0.7-1.6-1.2-2.6-1.5c-1-0.3-1.9-0.5-2.7-0.5c-0.7,0-1.1-0.1-1.1-0.3c-0.1-2.1,0-3.2,0.4-3.3
				c2-0.3,4.9-0.9,8.7-1.9c3.8-1,6.6-1.8,8.5-2.5c0.1,0,0.4-0.1,0.9-0.3c0.4,0,0.7,0.2,0.9,0.7c0.3,0.5,0.3,0.9,0.3,1.2
				c-0.3,4.7-0.4,7.8-0.3,9.4L358.6,112.4z M344.3,67.6c-1.4-1.3-2.1-2.8-2.3-4.7c-0.1-1.8,0.4-3.5,1.6-4.9c1.2-1.4,2.8-2.1,4.7-2.3
				c1.9-0.1,3.5,0.4,4.9,1.6c1.4,1.2,2.1,2.8,2.3,4.6c0.1,1.8-0.4,3.5-1.6,4.9c-1.2,1.4-2.8,2.2-4.7,2.3
				C347.3,69.4,345.7,68.9,344.3,67.6z"/>
			<path class="st18" d="M394.3,77.3c6.8-0.4,12.8,1.5,17.9,6c5.1,4.4,7.9,10,8.4,16.8c0.4,6.7-1.6,12.7-6,17.8
				c-4.4,5.1-10.1,7.9-17,8.3c-6.9,0.5-12.9-1.6-18-6c-5.1-4.5-7.9-10.1-8.3-16.8c-0.4-6.8,1.6-12.7,6-17.8
				C381.8,80.5,387.4,77.7,394.3,77.3z M393.2,82.5c-3.4,0.2-5.9,2-7.6,5.5c-1.7,3.4-2.4,7.4-2.1,12c0.4,5.9,1.9,10.9,4.5,15.1
				c2.6,4.2,6.1,6.2,10.3,5.9c3.4-0.2,6-2.1,7.7-5.5c1.7-3.5,2.4-7.4,2.1-11.9c-0.2-3.8-0.9-7.2-2.1-10.4c-1.2-3.2-2.9-5.8-5.1-7.8
				C398.7,83.2,396.1,82.3,393.2,82.5z"/>
			<path class="st18" d="M460.4,73c9.4-0.6,14.5,6.5,15.5,21.4l0.7,10.3c0.3,4.4,0.8,7.7,1.4,9.7c0.2,0.5,1.2,1,3.1,1.4
				c1.9,0.4,3.2,0.6,3.8,0.6c0.2,0,0.4,0.5,0.5,1.6c0.1,1,0.1,1.8,0,2.1c-0.4,0-2.4-0.1-5.7-0.1c-3.4,0-5.9,0.1-7.6,0.2
				c-1.7,0.1-4.1,0.4-7.2,0.8c-3.1,0.4-4.9,0.7-5.6,0.8c-0.3-0.3-0.5-1-0.6-2c-0.1-1.1,0-1.6,0.3-1.7c0.8-0.1,2-0.4,3.6-1.1
				c1.6-0.7,2.4-1.2,2.6-1.8c0.4-2.2,0.6-4.9,0.4-8l-0.7-10.3c-0.4-6-1.5-10.2-3.3-12.5c-1.8-2.3-4.5-3.3-8-3.1
				c-2.3,0.2-4.3,0.9-6,2.3c-1.7,1.4-2.4,2.8-2.3,4.2l1.2,18.7c0.3,4.4,0.8,7.7,1.4,9.7c0.2,0.5,1.2,1,3,1.4c1.8,0.4,3,0.6,3.6,0.6
				c0.3,0,0.5,0.5,0.6,1.5c0.1,1,0.1,1.8,0,2.1c-0.6,0-2.5-0.1-5.7-0.1c-3.2,0-5.7,0-7.4,0.2c-1.7,0.1-4.3,0.4-7.5,0.8
				c-3.3,0.4-5.2,0.7-5.8,0.8c-0.3-0.3-0.5-1-0.6-2c-0.1-1.1,0-1.6,0.3-1.7c0.9-0.1,2.2-0.4,3.9-1.1c1.7-0.7,2.7-1.2,2.8-1.8
				c0.4-2.2,0.4-4.9,0.2-8l-1.2-17.7c-0.2-3.4-1-5.7-2.2-6.8c-0.6-0.7-1.5-1.2-2.6-1.5c-1.1-0.3-2-0.5-2.7-0.5c-0.7,0-1-0.1-1.1-0.3
				c-0.1-2.1,0-3.2,0.3-3.3c3.3-0.5,9.1-2,17.3-4.4c0.1-0.1,0.2-0.1,0.3-0.2c0.1,0,0.2-0.1,0.3-0.1c0.1,0,0.2,0,0.3,0
				c0.3,0,0.6,0.2,0.8,0.7c0.3,0.5,0.4,0.9,0.4,1.2c-0.2,2-0.2,3.4-0.2,3.9c0,0.3,0.1,0.5,0.1,0.5c0.1,0,0.2-0.1,0.5-0.4
				c1.6-1.9,3.8-3.5,6.4-5C454.9,74,457.6,73.2,460.4,73z"/>
			<path class="st18" d="M537.8,44.5c5.2-0.3,9.4,0.5,12.7,2.7c3.2,2.1,5,5.1,5.2,9.1c0.3,4.4-0.8,8.3-3.3,11.5
				c-2.5,3.3-6.2,6.6-11.1,10c4.1,5.8,9.2,12,15.4,18.4c3.6-5.8,5.4-9.3,5.3-10.6c0-0.7-0.4-1.2-1.1-1.4c-0.7-0.2-1.5-0.3-2.4-0.3
				c-0.9,0-1.4,0-1.5,0c-0.2-0.4-0.4-1-0.4-1.7c0-0.7,0-1.2,0.2-1.3l10-0.7c1.4-0.1,5.4-0.5,11.9-1.2c0.4,0.2,0.6,0.8,0.7,1.7
				c0.1,1.2-0.1,1.8-0.6,2c-0.9,0.1-2.1,0.3-3.8,0.8c-1.6,0.5-2.8,1-3.5,1.6c-0.3,0.2-1,1.1-2.1,2.9c-1.1,1.8-2.5,4-4.2,6.5
				c-1.7,2.5-3.1,4.6-4.3,6.2c0.2,0.2,0.6,0.7,1.5,1.4c0.8,0.7,1.4,1.3,1.7,1.5c0.3,0.3,0.8,0.7,1.5,1.3c0.7,0.6,1.3,1,1.7,1.2
				c0.5,0.2,1,0.4,1.5,0.6c0.6,0.2,1.1,0.3,1.6,0.2c1.2-0.1,2.4-0.8,3.6-2.1c1.2-1.3,2-2.5,2.4-3.5c0.6,0,1.2,0.2,1.9,0.6
				c0.7,0.5,1,0.9,1.1,1.4c-0.2,0.5-0.6,1.3-1.1,2.3c-0.6,1-1.3,2.1-2.3,3.5c-1,1.3-2.3,2.5-3.9,3.6c-1.6,1.1-3.4,1.6-5.3,1.8
				c-2.2,0.1-4.4-0.3-6.5-1.3c-2.2-1-3.8-2.1-4.9-3.2l-1.6-1.6c-5.1,5.1-11.2,7.9-18.2,8.4c-6.2,0.4-11.4-0.8-15.6-3.6
				c-4.2-2.8-6.5-7.1-6.9-12.9c-0.2-2.5,0.2-4.9,1-7.2c0.8-2.2,2.1-4.3,3.9-6.2c1.8-1.9,3.4-3.4,4.9-4.6c1.5-1.2,3.4-2.6,5.7-4
				c-0.1-0.1-0.4-0.5-1-1.4c-0.6-0.8-0.9-1.3-1-1.5c-0.1-0.2-0.4-0.6-0.9-1.4c-0.5-0.8-0.8-1.3-1-1.6c-0.2-0.3-0.5-0.8-0.9-1.6
				c-0.4-0.8-0.7-1.4-0.8-1.8c-0.1-0.4-0.4-1-0.7-1.7c-0.3-0.7-0.5-1.3-0.6-1.9c-0.1-0.5-0.2-1.1-0.3-1.8c-0.1-0.7-0.2-1.4-0.2-2.1
				c-0.3-4.8,1.1-8.7,4.3-11.9C528.7,46.6,532.8,44.9,537.8,44.5z M549.7,104.7c-1.6-1.5-3.9-4-6.8-7.5c-2.9-3.5-5.4-6.7-7.4-9.5
				l-3.1-4.1c-2.5,2-4.4,4.1-5.6,6.3c-1.3,2.2-1.8,5.1-1.6,8.7c0.3,4.4,1.7,7.5,4.3,9.5c2.6,2,5.7,2.9,9.4,2.7c2-0.1,4-0.8,6-2
				C546.9,107.7,548.5,106.3,549.7,104.7z M538.3,49.3c-2.3,0.2-4.1,1.1-5.3,2.9c-1.2,1.8-1.7,3.8-1.6,6.1c0.2,3.5,2.4,8.4,6.4,14.7
				c3.1-2.2,5.4-4.4,6.7-6.5c1.4-2.1,1.9-4.9,1.7-8.4c-0.2-2.3-1-4.4-2.4-6.2C542.4,50,540.5,49.2,538.3,49.3z"/>
			<path class="st18" d="M621.2,38.9c2.1-0.1,4.5-0.4,7.3-0.6c2.7-0.3,5.2-0.5,7.4-0.6c2.2-0.1,4.3-0.1,6.5,0.2
				c2.2,0.3,4.3,0.8,6.6,1.7c2.2,0.9,4.2,2,5.9,3.4c1.7,1.4,3.2,3.2,4.4,5.4c1.2,2.3,1.9,4.8,2.1,7.6c0.2,3.4-0.4,6.8-2,10.2
				c-1.6,3.4-4.1,6.3-7.5,8.8c-3.4,2.5-7.4,3.9-11.9,4.2c-1.5,0.1-3.1-0.1-4.6-0.5c-1.6-0.4-2.7-1-3.3-1.8c-0.2-0.1-0.3-0.5-0.5-1.1
				c-0.1-0.6-0.2-1.1-0.2-1.6c0-0.5,0.1-0.8,0.3-0.8c1.7,0.6,3.8,0.8,6.2,0.7c3.5-0.2,6.1-1.8,8-4.8c1.8-3,2.6-6.7,2.3-11
				c-0.3-4.9-1.5-8.6-3.7-11.3c-2.1-2.7-5.2-3.9-9.3-3.7c-3,0.2-5.1,0.6-6.3,1.2c-0.8,0.5-1,4.3-0.6,11.4l2.5,38.8
				c0.3,4.4,0.8,7.4,1.5,9.2c0.3,0.9,1.5,1.5,3.8,1.9c2.2,0.4,3.9,0.6,4.9,0.5c0.3,0,0.5,0.6,0.6,1.8c0.1,0.8,0,1.4-0.1,1.9
				c-8,0.1-13.2,0.2-15.5,0.4c-2,0.1-4.1,0.3-6.6,0.6c-2.4,0.3-4.4,0.5-5.8,0.7l-2.2,0.4c-0.2-0.3-0.4-0.9-0.5-1.9
				c-0.1-1.2,0-1.7,0.2-1.8c0.9-0.1,2.3-0.4,4.1-1c1.8-0.6,2.8-1.2,3.1-1.9c0.4-1.3,0.4-4.6,0-9.9l-2.7-41.1
				c-0.3-4.1-0.7-7.1-1.2-8.9c-0.3-0.6-1.4-1.1-3.3-1.6c-2-0.5-3.4-0.7-4.2-0.7c-0.3,0-0.5-0.5-0.5-1.6s0-1.8,0.3-2
				C614.3,39.2,619.1,39,621.2,38.9z"/>
			<path class="st18" d="M699.2,57.3c4-0.3,7,0.7,9.2,3c0.4,6.2-1.1,9.4-4.6,9.6c-1.3,0.1-2.8-0.5-4.4-1.9c-1.6-1.3-3.2-2-4.8-1.9
				c-2.2,0.1-3.9,1.4-5,3.8c-1.1,2.4-1.6,4.8-1.4,7.2l0.9,13.6c0.3,4.4,0.8,7.7,1.4,9.7c0.2,0.5,1.2,1,3,1.4c1.8,0.4,3,0.6,3.7,0.6
				c0.2,0,0.4,0.5,0.5,1.6c0.1,1,0.1,1.8,0.1,2.1c-0.6,0-2.5-0.1-5.8-0.1c-3.3,0-5.8,0-7.4,0.2c-1.7,0.1-4.3,0.4-7.5,0.8
				c-3.3,0.4-5.2,0.7-5.8,0.8c-0.3-0.3-0.5-1-0.6-2c-0.1-1.1,0-1.6,0.3-1.7c0.9-0.1,2.2-0.4,3.9-1.1c1.7-0.7,2.7-1.2,2.8-1.8
				c0.4-2.2,0.4-4.9,0.2-8l-1.2-17.7c-0.2-3.4-1-5.7-2.2-6.8c-0.6-0.7-1.5-1.2-2.6-1.5c-1.1-0.3-2-0.5-2.7-0.5c-0.7,0-1-0.1-1.1-0.3
				c-0.1-2.1,0-3.2,0.3-3.3c3.3-0.5,9.1-2,17.3-4.4c0.5-0.2,0.8-0.3,0.9-0.3c0.3,0,0.6,0.2,0.8,0.7c0.3,0.5,0.4,0.9,0.4,1.2
				c0,0.3,0,0.8-0.1,1.5c0,0.7-0.1,1.4-0.1,2.2c-0.1,0.8-0.1,1.3-0.1,1.5c1.2-2,2.8-3.9,5-5.6C694.6,58.4,696.9,57.5,699.2,57.3z"/>
			<path class="st18" d="M736.4,54.9c3.4-0.2,6.5,0.2,9.3,1.4c2.8,1.2,5,2.7,6.6,4.7c1.7,2,3,4,3.9,6.2c0.9,2.2,1.5,4.3,1.6,6.3
				c0.1,1.6-0.1,2.6-0.6,3c-0.5,0.4-1.6,0.7-3.3,0.8l-26,1.7c-0.5,0-0.7,0.3-0.7,0.7c0.2,2.6,0.8,5.1,1.9,7.5
				c1.1,2.4,2.9,4.4,5.3,6.1c2.4,1.7,5.2,2.4,8.4,2.2c1.1-0.1,2.1-0.2,3.1-0.4c1-0.2,1.9-0.4,2.8-0.7c0.9-0.3,1.6-0.6,2.2-0.9
				c0.6-0.3,1.3-0.6,1.9-1.1c0.7-0.5,1.1-0.8,1.4-1c0.3-0.2,1-0.7,2.1-1.6c0.1,0.1,0.3,0.3,0.6,0.6c0.2,0.3,0.4,0.7,0.4,1.1
				c0.1,0.8-0.1,1.5-0.5,2.1c-1,2-3,4.1-6,6.3c-3.1,2.2-6.6,3.4-10.6,3.6c-6.3,0.4-11.9-1.6-16.8-5.9c-4.9-4.4-7.5-9.9-8-16.6
				c-0.5-7.3,1.3-13.4,5.2-18.3C724.6,58,729.8,55.3,736.4,54.9z M735.9,60c-1.7,0.1-3.3,0.7-4.6,1.8c-1.3,1.1-2.3,2.4-2.9,3.9
				c-0.6,1.5-1.1,2.9-1.3,4.2c-0.2,1.3-0.3,2.4-0.3,3.2c0,0.5,0.3,0.7,0.7,0.7l17.6-1.2c0.7,0,0.9-0.6,0.9-1.7
				c-0.2-2.5-1.2-5.1-3.1-7.6C741.1,60.9,738.8,59.8,735.9,60z"/>
			<path class="st18" d="M779.2,52c4.1-0.3,8.3,0.1,12.7,1c0.9,3.2,1.6,7.3,2,12.1c0,0.6-0.4,0.9-1.4,1c-1.6,0.1-2.5-0.1-2.7-0.7
				c-0.7-2.5-1.9-4.6-3.6-6.3c-1.7-1.7-4-2.4-6.8-2.2c-2.1,0.1-3.7,0.7-4.9,1.7c-1.1,1-1.6,2.4-1.5,4.1c0.1,1,0.3,1.9,0.8,2.7
				c0.5,0.8,1.2,1.5,2.1,2.2c1,0.7,1.8,1.2,2.5,1.6c0.7,0.4,1.8,0.9,3.2,1.5c0.5,0.3,0.9,0.4,1.1,0.5c0.1,0.1,0.7,0.3,1.7,0.8
				c1,0.4,1.6,0.7,1.9,0.9c0.3,0.1,0.9,0.4,1.8,0.9c0.9,0.5,1.6,0.9,2,1.1c0.4,0.3,1,0.7,1.8,1.2c0.8,0.5,1.4,1,1.7,1.4
				c0.4,0.4,0.8,0.9,1.4,1.6c0.6,0.7,1,1.3,1.3,1.9c0.3,0.6,0.5,1.3,0.7,2c0.2,0.7,0.4,1.5,0.4,2.3c0.3,4.6-1.2,8.3-4.6,11.2
				c-3.3,2.9-7.5,4.5-12.5,4.8c-4.5,0.3-9.2-0.4-14.2-2.1c-0.4-1.2-0.9-3.2-1.5-6c-0.5-2.8-0.9-4.8-1-6.2c0.4-0.4,0.9-0.6,1.5-0.6
				c1.7-0.1,2.6,0.1,2.7,0.7c0.8,3,2.4,5.4,4.8,7.1c2.4,1.7,4.9,2.5,7.6,2.3c2-0.1,3.7-0.7,4.9-1.8c1.2-1.1,1.8-2.6,1.7-4.6
				c0-0.7-0.2-1.4-0.4-2c-0.2-0.6-0.6-1.2-1.2-1.8c-0.5-0.6-1-1.1-1.4-1.4c-0.4-0.4-1-0.8-2.1-1.3c-1-0.5-1.8-0.9-2.3-1.1
				c-0.5-0.2-1.4-0.6-2.8-1.2c-1.4-0.6-2.3-1-2.9-1.3c-3.4-1.5-6.2-3.3-8.1-5.3c-2-2-3-4.6-3.2-7.6c-0.3-4.4,1.2-7.9,4.6-10.6
				C770.6,53.8,774.6,52.3,779.2,52z"/>
			<path class="st18" d="M823.6,49.2c3.4-0.2,6.5,0.2,9.3,1.4c2.8,1.2,5,2.7,6.6,4.7c1.7,2,3,4,3.9,6.2c0.9,2.2,1.5,4.3,1.6,6.3
				c0.1,1.6-0.1,2.6-0.6,3c-0.5,0.4-1.6,0.7-3.3,0.8l-26,1.7c-0.5,0-0.7,0.3-0.7,0.7c0.2,2.6,0.8,5.1,1.9,7.5
				c1.1,2.4,2.9,4.4,5.3,6.1c2.4,1.7,5.2,2.4,8.4,2.2c1.1-0.1,2.1-0.2,3.1-0.4c1-0.2,1.9-0.4,2.8-0.7c0.9-0.3,1.6-0.6,2.2-0.9
				c0.6-0.3,1.3-0.6,1.9-1.1c0.7-0.5,1.1-0.8,1.4-1c0.3-0.2,1-0.7,2.1-1.6c0.1,0.1,0.3,0.3,0.6,0.6c0.2,0.3,0.4,0.7,0.4,1.1
				c0.1,0.8-0.1,1.5-0.5,2.1c-1,2-3,4.1-6,6.3c-3.1,2.2-6.6,3.4-10.6,3.6c-6.3,0.4-11.9-1.6-16.8-5.9c-4.9-4.4-7.5-9.9-8-16.6
				c-0.5-7.3,1.3-13.4,5.2-18.3C811.8,52.3,817.1,49.6,823.6,49.2z M823.2,54.3c-1.7,0.1-3.3,0.7-4.6,1.8c-1.3,1.1-2.3,2.4-2.9,3.9
				c-0.6,1.5-1.1,2.9-1.3,4.2c-0.2,1.3-0.3,2.4-0.3,3.2c0,0.5,0.3,0.7,0.7,0.7l17.6-1.2c0.7,0,0.9-0.6,0.9-1.7
				c-0.2-2.5-1.2-5.1-3.1-7.6C828.3,55.2,826,54.1,823.2,54.3z"/>
			<path class="st18" d="M880.6,45.5c4-0.3,7,0.7,9.2,3c0.4,6.2-1.1,9.4-4.6,9.6c-1.3,0.1-2.8-0.5-4.4-1.9c-1.6-1.3-3.2-2-4.8-1.9
				c-2.2,0.1-3.9,1.4-5.1,3.8c-1.1,2.4-1.6,4.8-1.4,7.2l0.9,13.6c0.3,4.4,0.8,7.7,1.4,9.7c0.2,0.5,1.2,1,3,1.4
				c1.8,0.4,3,0.6,3.7,0.6c0.2,0,0.4,0.5,0.5,1.6c0.1,1,0.1,1.8,0.1,2.1c-0.6,0-2.5-0.1-5.8-0.1c-3.3,0-5.8,0-7.4,0.2
				c-1.7,0.1-4.3,0.4-7.5,0.8c-3.3,0.4-5.2,0.7-5.8,0.8c-0.3-0.3-0.5-1-0.6-2c-0.1-1.1,0-1.6,0.3-1.7c0.9-0.1,2.2-0.4,3.9-1.1
				c1.7-0.7,2.7-1.2,2.8-1.8c0.4-2.2,0.4-4.9,0.2-8L858,63.8c-0.2-3.4-1-5.7-2.2-6.8c-0.6-0.7-1.5-1.2-2.6-1.5
				c-1.1-0.3-2-0.5-2.7-0.5c-0.7,0-1-0.1-1.1-0.3c-0.1-2.1,0-3.2,0.3-3.3c3.3-0.5,9.1-2,17.3-4.4c0.5-0.2,0.8-0.3,0.9-0.3
				c0.3,0,0.6,0.2,0.8,0.7c0.3,0.5,0.4,0.9,0.4,1.2c0,0.3,0,0.8-0.1,1.5c0,0.7-0.1,1.4-0.1,2.2c-0.1,0.8-0.1,1.3-0.1,1.5
				c1.2-2,2.8-3.9,5-5.6C876,46.6,878.3,45.6,880.6,45.5z"/>
			<path class="st18" d="M936.1,48.7c-1.1-1.9-3.7-2.7-7.8-2.4c-0.2,0-0.4-0.5-0.4-1.5c-0.1-1,0-1.7,0.2-2c1-0.1,2.8-0.1,5.3,0
				c2.5,0.1,4.6,0,6.2-0.1c1.6-0.1,3.7-0.4,6.3-0.7c2.6-0.4,4.4-0.6,5.3-0.7c0.2,0.3,0.4,0.8,0.4,1.7c0.1,1.2-0.1,1.8-0.5,1.8
				c-1,0.1-2.4,0.5-4.2,1.3c-1.8,0.8-2.9,1.9-3.5,3.3L927.8,89c-0.3,0.6-0.7,1.2-1.3,1.9c-0.6,0.7-1.2,1.1-1.8,1.1
				c-0.7,0-1.2-0.1-1.3-0.6c-1.7-3.2-3.9-7.6-6.8-13.2c-2.9-5.6-5.4-10.3-7.4-14.2c-2.1-3.9-4.4-8.2-7.1-13.1c-1-2-3.4-2.8-7.3-2.6
				c-0.3,0-0.5-0.6-0.5-1.7c-0.1-0.9,0-1.5,0.3-1.8c0.7,0,2.6-0.1,5.8-0.1c3.2,0,5.7,0,7.4-0.2s4.2-0.4,7.5-0.8
				c3.2-0.4,5.1-0.7,5.6-0.7c0.2,0.3,0.4,0.9,0.4,1.9c0,1-0.1,1.5-0.4,1.6c-0.9,0.1-2.2,0.4-3.8,0.9c-1.6,0.5-2.4,1.2-2.3,1.9
				c0,0.5,0.1,0.9,0.3,1.1L927.4,75l8.4-22.2C936.5,50.8,936.6,49.5,936.1,48.7z"/>
			<path class="st18" d="M979.2,39c4.5-0.3,7.9,0.7,10.3,2.9c2.4,2.2,3.8,6.2,4.2,11.9l1.4,21.4c0.1,1.5,0.5,2.5,1.2,3.3
				c0.7,0.7,1.6,1,2.7,1c1.1-0.1,2.3-0.6,3.6-1.7c0.4,0.1,0.7,0.5,0.7,1.2c0.1,1.5-0.1,2.6-0.4,3.3c-1,0.9-2.4,1.9-4.2,3
				c-1.8,1.1-3.5,1.6-5.1,1.8c-1.7,0.1-3.3-0.4-5-1.5s-2.8-2.4-3.4-3.8c-0.1,0.1-0.3,0.3-0.8,0.8c-0.4,0.4-1.1,1-1.9,1.6
				c-0.8,0.6-1.7,1.3-2.7,1.9c-1,0.7-2.2,1.2-3.6,1.7c-1.4,0.5-2.8,0.8-4.3,0.9c-3.6,0.2-6.6-0.6-9.1-2.4c-2.4-1.8-3.7-4.5-4-8
				c-0.1-1.7,0.2-3.4,0.9-5c0.7-1.6,1.6-2.9,2.7-3.9c1.1-1.1,2.6-2.1,4.5-3.2c1.9-1.1,3.5-1.9,4.9-2.5c1.4-0.6,3.2-1.2,5.3-2
				c2.2-0.8,3.7-1.4,4.5-1.7c0.6-0.3,0.9-0.9,0.9-1.8l-0.4-6c-0.2-2.5-0.9-4.5-2.1-5.9c-1.3-1.4-2.9-2-4.8-1.9
				c-2.2,0.1-3.8,0.9-5,2.3c-1.1,1.4-1.6,3.4-1.5,5.8c0.1,1.5-0.4,2.6-1.4,3.3c-1,0.8-2.3,1.2-3.6,1.3c-2.7,0.2-4.6-0.6-5.8-2.2
				c-0.2-3.5,1.9-6.9,6.5-10.3C969.1,41.2,974,39.4,979.2,39z M977.1,81.1c2-0.1,3.6-0.7,5-1.9s2-2.3,1.9-3.6l-0.7-11.1
				c-0.5,0.3-1.5,0.7-3.1,1.3c-1.6,0.6-2.8,1.1-3.7,1.6c-0.8,0.4-1.8,1-2.9,1.7c-1.1,0.7-1.9,1.6-2.4,2.6c-0.5,1-0.7,2-0.6,3.1
				c0.2,2.3,0.8,4,2.1,5C973.7,80.8,975.3,81.2,977.1,81.1z"/>
			<path class="st18" d="M1012.4,44.5l-6.6,0.4c-0.5,0-0.8-0.9-0.9-2.8c0-0.5,0-0.8,0-1c2.8-1.5,5.5-3.6,8-6.3
				c0.9-1,1.8-2.1,2.9-3.4s2.3-2.9,3.7-4.9c0.7,0,1.4,0,2.1,0.1c0.7,0.1,1,0.3,1,0.5l0.7,10.7c1.9-0.1,4.5-0.3,7.9-0.5
				c3.4-0.2,5.2-0.3,5.4-0.3c0.6,0,0.9,0.3,0.9,0.9c0.1,1.7-0.1,3.4-0.8,4.9l-13.1,0.9l1.7,26.2c0.2,2.9,1,5.1,2.3,6.5
				c1.3,1.4,3.1,2.1,5.3,1.9c0.7,0,1.5-0.2,2.3-0.4c0.8-0.2,1.4-0.5,1.9-0.7c0.5-0.3,1-0.5,1.4-0.7c0.4-0.2,0.7-0.4,0.7-0.4
				c0.3-0.1,0.6,0.2,1,0.9c0.4,0.7,0.6,1.2,0.5,1.4c-0.4,1-1.8,2.3-4.4,3.8c-2.6,1.5-5.1,2.4-7.6,2.5c-3.8,0.2-7.1-0.8-9.9-3
				c-2.8-2.3-4.4-5.9-4.7-11L1012.4,44.5z"/>
			<path class="st18" d="M1065.1,66.2c0.3,4.4,0.8,7.7,1.5,9.7c0.2,0.5,1.2,1,3,1.4c1.8,0.4,3.1,0.6,3.8,0.6c0.3,0,0.5,0.5,0.6,1.5
				c0.1,1,0.1,1.8,0,2.1c-0.5,0-2.5-0.1-5.8-0.1c-3.4,0-5.9,0.1-7.5,0.2c-1.8,0.1-4.4,0.4-7.6,0.8c-3.3,0.4-5.2,0.7-5.7,0.8
				c-0.3-0.3-0.5-1-0.6-2c-0.1-1.1,0-1.6,0.3-1.7c0.8-0.1,2.1-0.4,3.9-1.1c1.8-0.7,2.7-1.3,2.8-1.8c0.4-2.2,0.4-4.9,0.2-8l-1.2-17.7
				c-0.2-3.4-1-5.7-2.2-6.8c-0.7-0.7-1.6-1.2-2.6-1.5c-1-0.3-1.9-0.5-2.7-0.5c-0.7,0-1.1-0.1-1.1-0.3c-0.1-2.1,0-3.2,0.4-3.3
				c2-0.3,4.9-0.9,8.7-1.9c3.8-1,6.6-1.8,8.5-2.5c0.1,0,0.4-0.1,0.9-0.3c0.4,0,0.7,0.2,0.9,0.7c0.3,0.5,0.3,0.9,0.3,1.2
				c-0.3,4.7-0.4,7.8-0.3,9.4L1065.1,66.2z M1050.8,21.4c-1.4-1.3-2.1-2.8-2.3-4.7c-0.1-1.8,0.4-3.5,1.6-4.9
				c1.2-1.4,2.8-2.1,4.7-2.3c1.9-0.1,3.5,0.4,4.9,1.6c1.4,1.2,2.1,2.8,2.3,4.6c0.1,1.8-0.4,3.5-1.6,4.9c-1.2,1.4-2.8,2.2-4.7,2.3
				C1053.9,23.2,1052.2,22.6,1050.8,21.4z"/>
			<path class="st18" d="M1100.8,31.1c6.8-0.4,12.8,1.5,17.9,6c5.1,4.4,7.9,10,8.4,16.8c0.4,6.7-1.6,12.7-6,17.8
				c-4.4,5.1-10.1,7.9-17,8.3c-6.9,0.5-12.9-1.6-18-6c-5.1-4.5-7.9-10.1-8.3-16.8c-0.4-6.8,1.6-12.7,6-17.8
				C1088.3,34.2,1094,31.5,1100.8,31.1z M1099.8,36.3c-3.4,0.2-5.9,2-7.6,5.5c-1.7,3.4-2.4,7.4-2.1,12c0.4,5.9,1.9,10.9,4.5,15.1
				c2.6,4.2,6.1,6.2,10.3,5.9c3.4-0.2,6-2.1,7.7-5.5c1.7-3.5,2.4-7.4,2.1-11.9c-0.2-3.8-0.9-7.2-2.1-10.4c-1.2-3.2-2.9-5.8-5.1-7.8
				C1105.2,37,1102.7,36.1,1099.8,36.3z"/>
			<path class="st18" d="M1167,26.7c9.4-0.6,14.5,6.5,15.5,21.4l0.7,10.3c0.3,4.4,0.8,7.7,1.4,9.7c0.2,0.5,1.2,1,3.1,1.4
				c1.9,0.4,3.2,0.6,3.8,0.6c0.2,0,0.4,0.5,0.5,1.6c0.1,1,0.1,1.8,0,2.1c-0.4,0-2.4-0.1-5.7-0.1s-5.9,0.1-7.6,0.2
				c-1.7,0.1-4.1,0.4-7.2,0.8c-3.1,0.4-4.9,0.7-5.6,0.8c-0.3-0.3-0.5-1-0.6-2c-0.1-1.1,0-1.6,0.3-1.7c0.8-0.1,2-0.4,3.6-1.1
				c1.6-0.7,2.4-1.2,2.6-1.8c0.4-2.2,0.6-4.9,0.4-8l-0.7-10.3c-0.4-6-1.5-10.2-3.3-12.5c-1.8-2.3-4.5-3.3-8-3.1
				c-2.3,0.2-4.3,0.9-6,2.3c-1.7,1.4-2.4,2.8-2.3,4.2l1.2,18.7c0.3,4.4,0.8,7.7,1.4,9.7c0.2,0.5,1.2,1,3,1.4c1.8,0.4,3,0.6,3.6,0.6
				c0.3,0,0.5,0.5,0.6,1.5c0.1,1,0.1,1.8,0,2.1c-0.6,0-2.5-0.1-5.7-0.1c-3.2,0-5.7,0-7.4,0.2c-1.7,0.1-4.3,0.4-7.5,0.8
				c-3.3,0.4-5.2,0.7-5.8,0.8c-0.3-0.3-0.5-1-0.6-2s0-1.6,0.3-1.7c0.9-0.1,2.2-0.4,3.9-1.1c1.7-0.7,2.7-1.2,2.8-1.8
				c0.4-2.2,0.4-4.9,0.2-8l-1.2-17.7c-0.2-3.4-1-5.7-2.2-6.8c-0.6-0.7-1.5-1.2-2.6-1.5c-1.1-0.3-2-0.5-2.7-0.5c-0.7,0-1-0.1-1.1-0.3
				c-0.1-2.1,0-3.2,0.3-3.3c3.3-0.5,9.1-2,17.3-4.4c0.1-0.1,0.2-0.1,0.3-0.2c0.1,0,0.2-0.1,0.3-0.1c0.1,0,0.2,0,0.3,0
				c0.3,0,0.6,0.2,0.8,0.7c0.3,0.5,0.4,0.9,0.4,1.2c-0.2,2-0.2,3.4-0.2,3.9c0,0.3,0.1,0.5,0.1,0.5c0.1,0,0.2-0.1,0.5-0.4
				c1.6-1.9,3.8-3.5,6.4-5C1161.4,27.7,1164.1,26.9,1167,26.7z"/>
		</g>
		<g>
			<path class="st18" d="M270.4,179c6.8,0.6,12.4,3.5,16.8,8.7c4.4,5.2,6.3,11.1,5.7,17.8c-0.6,6.7-3.5,12.3-8.6,16.6
				c-5.2,4.4-11.2,6.2-18.1,5.6c-6.9-0.6-12.5-3.5-16.8-8.7c-4.4-5.2-6.2-11.2-5.6-17.9c0.6-6.8,3.5-12.3,8.6-16.6
				C257.5,180.2,263.5,178.4,270.4,179z M268.5,183.9c-3.4-0.3-6.2,1.1-8.4,4.2c-2.2,3.1-3.5,7-3.9,11.5c-0.5,5.9,0.2,11.1,2.2,15.6
				c2,4.6,5.1,7,9.3,7.4c3.4,0.3,6.2-1.1,8.4-4.3c2.2-3.2,3.5-7,3.9-11.5c0.3-3.8,0.2-7.3-0.5-10.6c-0.7-3.3-1.9-6.1-3.8-8.5
				C273.8,185.5,271.4,184.2,268.5,183.9z"/>
			<path class="st18" d="M334.2,156.9c3,0.3,5.5,0.9,7.4,1.8c1.9,0.9,3.2,2,3.7,3.1c0.1,2.3-0.3,4.3-1.1,6c-0.8,1.7-2.2,2.5-4.2,2.3
				c-1.2-0.1-2.3-0.8-3.2-2.1c-0.9-1.3-1.8-2.6-2.8-3.9c-1-1.3-2.2-2-3.6-2.1c-2-0.2-3.7,0.6-5.1,2.4c-1.5,1.8-2.6,4-3.4,6.6
				c-0.8,2.6-1.3,5.5-1.6,8.7l-0.4,5c0,0.1,0.1,0.2,0.2,0.3c0.1,0.2,0.3,0.2,0.4,0.3l11.9,1.1c0.3,0,0.5,0.1,0.5,0.2
				c0.1,0.1,0.1,0.3,0.1,0.7c-0.1,1.6-0.7,3.2-1.7,4.9l-11.3-1c-0.4,0-0.7,0.2-0.7,0.6l-2.1,24.2c-0.4,4.3-0.4,7.6,0,9.8
				c0.1,0.5,1,1.1,2.7,1.8c1.7,0.7,2.9,1.1,3.6,1.1c0.2,0,0.3,0.6,0.2,1.6c-0.1,1.1-0.2,1.8-0.3,2.1c-0.4-0.1-2.3-0.4-5.6-0.9
				c-3.3-0.5-5.8-0.8-7.6-1c-1.7-0.2-4.2-0.3-7.4-0.3c-3.2-0.1-5.1-0.1-5.7-0.1c-0.2-0.2-0.3-0.6-0.3-1.2c0-0.6,0-1.1,0.1-1.7
				c0.1-0.5,0.3-0.8,0.5-0.8c0.8,0.1,2.1-0.1,3.9-0.5s2.8-0.8,3-1.3c0.9-2.5,1.5-5.4,1.8-8.8l2.2-25c0-0.5-0.2-0.8-0.6-0.8l-6.5-0.6
				c-0.1,0-0.2-0.2-0.2-0.7c0.1-0.8,0.7-1.8,1.8-3s2.3-1.8,3.6-1.6l1.7,0.2c0.4,0,0.7-0.2,0.7-0.6l0.1-1.1
				c0.7-7.6,3.5-13.9,8.5-18.9C322.5,158.6,328.1,156.4,334.2,156.9z"/>
			<path class="st18" d="M421.3,183.4c0.3-3.8,0.2-6.8-0.3-8.8c-0.3-0.9-1.4-1.7-3.5-2.4c-2-0.7-3.6-1.1-4.8-1.2
				c-0.3,0-0.4-0.6-0.3-1.6c0.1-1.1,0.2-1.7,0.4-2c7.7,1.2,12.2,1.8,13.6,2c1.9,0.2,4.3,0.3,7.3,0.3c3,0,4.8,0,5.6,0.1
				c0.1,0.3,0.1,0.9,0.1,1.8c-0.1,1.2-0.3,1.8-0.6,1.8c-1-0.1-2.6,0-4.7,0.4c-2.1,0.4-3.6,1-4.3,1.9c-1,1.9-1.6,4.9-2,8.9l-3.6,41.2
				c-0.2,2.6-0.5,7.7-0.9,15.2c-0.3,0.3-1.1,0.3-2.4,0.2c-1.2-0.1-2.2-1-3.3-2.8l-38.1-61.1l-3.9,44c-0.4,4.3-0.4,7.3,0.1,9
				c0.3,0.9,1.6,1.8,3.8,2.6c2.3,0.8,3.9,1.3,4.8,1.4c0.2,0,0.3,0.5,0.2,1.6c-0.1,1-0.2,1.7-0.3,2c-8.6-1.2-13.2-1.8-13.5-1.9
				c-2-0.2-4.4-0.3-7.2-0.4c-2.9-0.1-4.8-0.1-5.7-0.1c-0.3-0.3-0.4-0.9-0.3-1.9c0.1-1.2,0.3-1.7,0.6-1.7c1.2,0.1,2.9,0,5-0.4
				c2.1-0.4,3.5-1.1,4.2-2.1c0.9-1.5,1.5-4.5,1.9-9l3.8-42.6c0.3-3.9,0.2-6.6-0.5-8c-0.2-0.5-1.5-1.1-3.6-1.7
				c-2.2-0.6-3.8-1-4.8-1.1c-0.3,0-0.4-0.6-0.3-1.7c0.1-1.1,0.2-1.8,0.6-2c7.6,1,11.9,1.6,12.9,1.7c2.4,0.2,5.7,0.3,9.8,0.3
				c1.1,2.7,3.3,6.8,6.5,12.2c3.2,5.4,7.6,12.6,13.3,21.5c5.6,8.9,9.5,15.1,11.5,18.5c0.2-0.9,0.4-2.3,0.6-4.4L421.3,183.4z"/>
			<path class="st18" d="M465.5,196.2c3.4,0.3,6.4,1.2,8.9,2.8c2.6,1.6,4.5,3.5,5.8,5.7c1.3,2.2,2.3,4.4,2.9,6.7
				c0.6,2.3,0.8,4.4,0.6,6.5c-0.1,1.6-0.5,2.6-1.1,2.9c-0.6,0.4-1.7,0.5-3.4,0.3l-25.9-2.3c-0.5,0-0.8,0.1-0.8,0.6
				c-0.2,2.6,0,5.2,0.7,7.7c0.7,2.5,2.1,4.8,4.3,6.8c2.1,2,4.8,3.2,8,3.4c1.1,0.1,2.1,0.1,3.2,0.1c1,0,2-0.1,2.9-0.3
				c0.9-0.2,1.7-0.3,2.3-0.5c0.7-0.2,1.4-0.4,2.1-0.8s1.2-0.6,1.5-0.8c0.3-0.2,1.1-0.6,2.3-1.3c0.1,0.1,0.3,0.3,0.5,0.7
				c0.2,0.4,0.3,0.8,0.2,1.1c-0.1,0.8-0.3,1.5-0.8,2c-1.3,1.9-3.6,3.6-6.9,5.3c-3.4,1.7-7,2.3-11,2c-6.3-0.6-11.5-3.4-15.7-8.4
				c-4.1-5.1-5.9-10.9-5.3-17.6c0.6-7.3,3.3-13.1,7.9-17.2C453.4,197.4,459,195.6,465.5,196.2z M464.3,201.1
				c-1.7-0.2-3.3,0.2-4.8,1.1c-1.5,0.9-2.6,2-3.5,3.4c-0.9,1.4-1.5,2.7-1.9,3.9c-0.4,1.2-0.7,2.3-0.8,3.2c0,0.5,0.2,0.8,0.6,0.8
				l17.6,1.6c0.7,0.1,1-0.5,1.1-1.5c0.2-2.5-0.4-5.2-1.9-7.9C469.2,202.9,467.1,201.4,464.3,201.1z"/>
			<path class="st18" d="M557.9,212.7c0.1-0.9-0.1-1.6-0.7-2.3c-0.5-0.7-1.2-1.2-2.1-1.5c-0.9-0.3-1.7-0.6-2.4-0.8
				c-0.8-0.2-1.5-0.3-2.2-0.4l-0.4,0c-0.3,0-0.4-0.6-0.3-1.7c0.1-1.1,0.2-1.7,0.4-1.9c0.9,0.1,2.8,0.4,5.7,0.8
				c2.9,0.5,5.2,0.8,6.9,0.9c1.5,0.1,3.5,0.2,5.8,0.2c2.4,0,4.1,0,5.2,0.1c0.1,0.5,0.1,1.1,0.1,1.9c-0.1,1.1-0.3,1.6-0.6,1.6
				c-0.9-0.1-2.3,0.2-4.4,1c-2.1,0.7-3.4,1.7-4,3l-19.5,36.9c-0.3,0.6-0.9,1-1.6,1.4c-0.7,0.4-1.5,0.6-2.2,0.5
				c-0.7-0.1-1.2-0.4-1.3-0.9l-10.6-31.1l-14.1,27.3c-0.3,0.4-0.7,0.9-1.4,1.4c-0.7,0.5-1.5,0.7-2.4,0.7c-0.7-0.1-1.2-0.4-1.5-0.9
				c-1.3-3.9-2.9-8.7-4.7-14.3c-1.8-5.6-3.5-10.5-5-14.8c-1.5-4.3-3.3-9-5.3-14c-0.4-1-1.3-1.8-2.6-2.4c-1.3-0.6-2.5-1-3.4-1.1
				c-0.3,0-0.4-0.6-0.3-1.8c0.1-1,0.3-1.6,0.6-1.8c0.7,0.1,2.5,0.3,5.5,0.8s5.2,0.8,6.9,0.9c1.7,0.1,4.1,0.3,7.4,0.3
				c3.3,0.1,5.2,0.1,5.7,0.2c0.1,0.4,0.1,1,0,2c-0.1,0.9-0.2,1.4-0.5,1.5c-0.9-0.1-2.2,0.1-3.8,0.4c-1.6,0.4-2.4,1.1-2.5,2.1
				c0,0.1,2.9,8.8,8.7,25.9c1-2,2.1-4.2,3.4-6.6c1.3-2.5,2.2-4.4,2.9-5.7c0.7-1.3,1.3-2.6,2-3.9c0.7-1.3,1.1-2.3,1.4-3
				c0.3-0.7,0.4-1.1,0.4-1.3c0.1-1.4-0.2-2.9-1-4.5c-0.4-0.8-1.2-1.4-2.2-1.9c-0.8-0.5-2-0.8-3.9-1c-0.3,0-0.4-0.6-0.3-1.6
				c0.1-1,0.3-1.7,0.6-1.9c0.8,0.1,2.6,0.3,5.3,0.8c2.8,0.5,5,0.8,6.8,0.9c1.6,0.1,4,0.2,7.1,0.3c3.1,0.1,5,0.1,5.6,0.2
				c0.1,0.3,0.1,1,0,2c-0.1,1-0.3,1.6-0.5,1.5c-3.7-0.3-5.6,0.8-5.9,3.3c-0.1,1.4,2.6,9.7,8.1,25c1.4-2.9,3.2-6.4,5.2-10.3
				c2.1-3.9,3.6-6.9,4.6-8.8C557.3,214.5,557.9,213.3,557.9,212.7z"/>
			<path class="st18" d="M617.8,186.2c1.3,0.1,6.3,0.3,15,0.7c0.1,0.3,0.1,1,0,2c-0.1,1-0.3,1.5-0.5,1.5c-1.2-0.1-2.5,0-4,0.4
				c-1.5,0.4-2.3,1.1-2.4,2.1c-0.1,0.7,0.2,1.6,0.7,2.9l9.6,22.1c0.3,0.4,0.7,0.4,1.1-0.1c3.5-4.4,6.9-8.9,10.3-13.5
				c3.3-4.7,5.1-7.7,5.2-9c0.1-0.8-0.5-1.6-1.8-2.3c-1.3-0.7-3-1.2-5.2-1.4c-0.3,0-0.4-0.5-0.3-1.6c0.1-1,0.3-1.7,0.5-1.9
				c7.3,1.1,11.6,1.7,13,1.8c1.7,0.1,3.2,0.2,4.5,0.3c1.3,0,2.7,0.1,4.1,0.1c1.4,0,2.5,0,3.3,0c0.1,0.6,0.1,1.2,0.1,1.8
				c-0.1,1.2-0.3,1.7-0.6,1.7c-1.1-0.1-2.6,0.1-4.6,0.6c-2,0.5-3.4,1.2-4.4,2.2c-2.4,2.9-6.7,8.5-12.9,16.9
				c-6.2,8.3-9.4,12.9-9.4,13.9l-1.5,16.9c-0.4,4.3-0.4,7.6,0,9.8c0.1,0.5,1,1.2,2.8,1.9c1.8,0.8,3,1.2,3.6,1.2
				c0.3,0,0.4,0.6,0.3,1.8c-0.1,0.7-0.2,1.3-0.4,1.7c-0.9-0.2-2.3-0.4-4.1-0.7c-1.8-0.3-3.5-0.6-5-0.8c-1.5-0.2-3-0.4-4.4-0.5
				c-2-0.2-4.6-0.3-8-0.4c-3.4-0.1-5.5-0.1-6.3-0.1c-0.3-0.3-0.4-0.9-0.3-1.8c0.1-1.2,0.3-1.7,0.5-1.7c0.9,0.1,2.2-0.1,4.1-0.5
				c1.9-0.4,2.9-0.9,3.2-1.5c0.8-2,1.3-5.2,1.7-9.5l1.4-16.1c0-0.4-0.1-1.1-0.5-2.2c-0.4-1.1-1.1-2.8-2-5c-1-2.2-1.8-4.2-2.6-5.8
				c-0.7-1.6-1.9-4.3-3.6-7.9c-1.6-3.6-2.9-6.3-3.7-8.1c-1.8-4.1-3.4-6.8-5-8c-0.7-0.6-1.7-1.1-3.1-1.6c-1.4-0.5-2.4-0.8-3-0.9
				c-0.2,0-0.3-0.4-0.3-1.1c0-0.7,0.1-1.2,0.3-1.5C605.2,185.2,610,185.5,617.8,186.2z"/>
			<path class="st18" d="M697.6,216.7c6.8,0.6,12.4,3.5,16.8,8.7c4.4,5.2,6.3,11.1,5.7,17.8c-0.6,6.7-3.5,12.3-8.6,16.6
				c-5.2,4.4-11.2,6.2-18.1,5.6c-6.9-0.6-12.5-3.5-16.8-8.7c-4.4-5.2-6.2-11.2-5.6-17.9c0.6-6.8,3.5-12.3,8.6-16.6
				C684.7,217.9,690.7,216.1,697.6,216.7z M695.7,221.7c-3.4-0.3-6.2,1.1-8.4,4.2c-2.2,3.1-3.5,7-3.9,11.5
				c-0.5,5.9,0.2,11.1,2.2,15.6c2,4.6,5.1,7,9.3,7.4c3.4,0.3,6.2-1.1,8.4-4.3c2.2-3.2,3.5-7,3.9-11.5c0.3-3.8,0.2-7.3-0.5-10.6
				c-0.7-3.3-1.9-6.1-3.8-8.5C701,223.2,698.6,221.9,695.7,221.7z"/>
			<path class="st18" d="M759.9,222.2c4,0.4,6.8,1.8,8.6,4.4c-0.5,6.2-2.6,9.1-6,8.8c-1.3-0.1-2.7-1-4-2.5c-1.4-1.6-2.9-2.4-4.5-2.6
				c-2.2-0.2-4.1,0.8-5.6,3c-1.5,2.2-2.3,4.5-2.5,6.9l-1.2,13.6c-0.4,4.4-0.4,7.7-0.1,9.8c0.1,0.5,1,1.1,2.7,1.8
				c1.7,0.7,2.9,1.1,3.6,1.1c0.2,0,0.3,0.6,0.2,1.6c-0.1,1.1-0.1,1.8-0.2,2.1c-0.6-0.1-2.5-0.4-5.7-0.9c-3.2-0.5-5.7-0.8-7.4-1
				c-1.7-0.2-4.3-0.3-7.6-0.3c-3.3-0.1-5.3-0.1-5.8-0.1c-0.3-0.3-0.3-1-0.3-2.1c0.1-1.1,0.3-1.6,0.6-1.6c0.9,0.1,2.2-0.1,4-0.5
				c1.8-0.4,2.8-0.8,3-1.3c0.7-2.1,1.2-4.7,1.5-7.9l1.6-17.7c0.3-3.4-0.1-5.8-1.1-7.1c-0.5-0.8-1.3-1.4-2.3-1.8
				c-1-0.5-1.9-0.7-2.5-0.9c-0.7-0.1-1-0.3-1-0.4c0.2-2.1,0.5-3.2,0.8-3.2c3.4,0,9.3-0.6,17.8-1.7c0.5-0.1,0.8-0.1,0.9-0.1
				c0.3,0,0.5,0.3,0.7,0.8c0.2,0.5,0.2,0.9,0.2,1.3c-0.1,0.3-0.2,0.8-0.3,1.5c-0.1,0.7-0.3,1.4-0.5,2.1c-0.2,0.8-0.3,1.2-0.3,1.5
				c1.5-1.8,3.4-3.4,5.8-4.8C755.3,222.6,757.6,222,759.9,222.2z"/>
			<path class="st18" d="M819.5,234.8c-1.5,0.7-4,2.2-7.3,4.3c-3.4,2.1-6.5,4.4-9.3,6.8c1.9,2.4,4.3,5.6,7.1,9.5
				c2.9,3.9,5.2,7.1,7.1,9.6c1.9,2.5,3.2,4.1,3.9,4.8c1,1,2.3,1.8,4,2.5c1.6,0.7,2.8,1.1,3.6,1.2c0.3,0,0.4,0.7,0.3,1.9
				c-0.1,0.8-0.2,1.3-0.2,1.5c-7.9-1.1-12.1-1.6-12.7-1.7c-1.4-0.1-2.8-0.2-4.2-0.3c-1.4-0.1-3-0.1-4.7-0.1c-1.7,0-3.1-0.1-4.1-0.1
				c-0.3-0.3-0.4-1-0.3-2c0.1-1,0.3-1.5,0.6-1.5c0.7,0.1,1.6,0,2.5-0.3c1-0.2,1.5-0.5,1.5-0.9c0-0.1,0-0.2-0.1-0.2l-14.3-19.1
				l-1.3,0.2l-0.6,6.7c-0.3,4.7-0.3,8,0,9.8c0.1,0.5,1,1.1,2.8,1.8s3,1.1,3.7,1.1c0.2,0,0.3,0.6,0.2,1.6c-0.1,1.1-0.2,1.8-0.4,2.1
				c-0.5-0.1-2.4-0.4-5.7-0.9c-3.3-0.5-5.8-0.8-7.5-1c-1.7-0.2-4.3-0.3-7.6-0.3c-3.3-0.1-5.3-0.1-5.8-0.1c-0.3-0.3-0.3-1-0.3-2.1
				c0.1-1.1,0.3-1.6,0.6-1.6c0.9,0.1,2.2-0.1,4-0.5c1.8-0.4,2.8-0.8,3-1.3c0.7-2.1,1.2-4.7,1.5-7.9l4-45.1c0.3-2.9,0.3-5.4,0.1-7.4
				c-0.3-1.2-2.1-1.9-5.5-2.2l-1-0.1c-0.4,0-0.6-0.6-0.5-1.8c0.1-1.2,0.4-1.7,0.8-1.7c2.3,0,4.4-0.1,6.5-0.3
				c2.1-0.2,3.8-0.4,5.1-0.6c1.4-0.2,2.6-0.5,3.6-0.8c1-0.3,2.1-0.5,3.2-0.8l0.2,0c0.3,0,0.6,0.3,0.8,0.7c0.3,0.4,0.4,0.8,0.4,1.2
				c-1.1,2.7-1.9,6.1-2.2,10.1l-3.2,36.3c1.8-0.3,2.9-0.6,3.4-0.9c1.6-1.2,3.4-2.5,5.3-3.9c1.9-1.3,3.3-2.3,4.1-2.9
				c0.9-0.6,1.7-1.2,2.6-1.9c0.9-0.7,1.4-1.2,1.7-1.7c0.3-0.4,0.5-0.8,0.5-1.3c0.1-0.8-0.7-1.4-2.3-1.7c-1.6-0.3-2.4-0.5-2.4-0.6
				c-0.2-0.5-0.2-1.2-0.2-1.9c0.1-0.8,0.2-1.2,0.5-1.2c5.5,0.5,9,0.8,10.5,0.9c2,0.2,5.8,0.4,11.5,0.6c0.3,0.2,0.4,0.7,0.4,1.2
				c0,0.6,0,1.1-0.2,1.6c-0.2,0.5-0.3,0.7-0.6,0.7C824.6,233.1,822.1,233.6,819.5,234.8z"/>
			<path class="st18" d="M923.3,265.1c-0.1,0.9-0.9,3.7-2.4,8.3c-1.5,4.6-2.5,7-3.2,7.2c-6.6,2.5-15.1,3.3-25.6,2.3
				c-9.6-0.8-17.4-5.1-23.5-12.7c-6.1-7.6-8.7-16.3-7.9-26c0.9-10.3,5.1-18.8,12.7-25.5c7.5-6.7,16.3-9.7,26.4-8.8
				c8.2,0.7,16.6,2.5,25.4,5.2c0.2,0.1,0.2,2.5,0,7.2c-0.2,4.7-0.3,7.6-0.4,8.8c-0.1,1.1-1,1.6-2.8,1.4c-0.4,0-0.9-0.2-1.5-0.6
				c-0.2-1.3-0.6-2.7-1.2-4.2c-0.6-1.4-1.6-3.1-3-5c-1.4-1.9-3.5-3.5-6.4-4.9c-2.9-1.4-6.3-2.2-10.2-2.6c-7.1-0.6-12.9,1.8-17.3,7.3
				c-4.5,5.5-7.1,12.4-7.8,20.5c-0.8,9.1,0.7,17,4.6,23.8c3.9,6.7,9.9,10.4,18,11.2c6.4,0.6,11.7-1,15.8-4.7c1-0.9,2-2.2,2.9-3.8
				c0.9-1.6,1.6-3,2.1-4.1c0.5-1.1,0.8-1.7,1-1.7C921.7,264,923.1,264.4,923.3,265.1z"/>
			<path class="st18" d="M948,271.7c-0.4,4.4-0.4,7.7,0,9.8c0.1,0.5,1,1.1,2.8,1.8c1.8,0.7,3,1.1,3.6,1.1c0.3,0,0.4,0.6,0.3,1.6
				c-0.1,1.1-0.2,1.8-0.3,2.1c-0.5-0.1-2.4-0.4-5.8-0.9c-3.3-0.5-5.8-0.8-7.4-1c-1.8-0.2-4.4-0.3-7.7-0.4c-3.3-0.1-5.2-0.1-5.7-0.1
				c-0.3-0.3-0.3-1-0.3-2.1c0.1-1.1,0.3-1.6,0.6-1.6c0.8,0.1,2.1-0.1,4-0.5c1.9-0.4,2.9-0.8,3.1-1.3c0.7-2.1,1.2-4.7,1.5-7.9
				l1.6-17.7c0.3-3.4-0.1-5.8-1.1-7.1c-0.6-0.8-1.4-1.4-2.4-1.8c-1-0.5-1.8-0.7-2.5-0.9c-0.7-0.1-1.1-0.3-1.1-0.4
				c0.2-2.1,0.5-3.2,0.9-3.2c2,0,5-0.1,8.9-0.5c3.9-0.4,6.8-0.8,8.8-1.2c0.1,0,0.4,0,0.9-0.1c0.4,0,0.6,0.3,0.8,0.8
				c0.2,0.5,0.2,0.9,0.1,1.2c-1,4.6-1.6,7.7-1.7,9.3L948,271.7z M940.8,225.2c-1.2-1.5-1.7-3.1-1.5-4.9s1-3.4,2.4-4.6
				c1.4-1.2,3.1-1.7,5-1.5c1.9,0.2,3.4,1,4.6,2.4c1.2,1.4,1.7,3,1.5,4.9s-1,3.4-2.4,4.6c-1.4,1.2-3.1,1.8-5,1.6
				C943.5,227.5,941.9,226.7,940.8,225.2z"/>
			<path class="st18" d="M969.8,248.4l-6.6-0.6c-0.5,0-0.7-1-0.5-2.9c0-0.5,0.1-0.8,0.2-1c3-1,6-2.7,8.9-5c1-0.9,2.1-1.8,3.4-2.9
				c1.2-1.1,2.7-2.5,4.4-4.3c0.7,0.1,1.4,0.2,2,0.5c0.6,0.2,0.9,0.5,0.9,0.7l-0.9,10.6c1.9,0.2,4.5,0.4,7.9,0.7
				c3.4,0.3,5.2,0.5,5.4,0.5c0.6,0.1,0.8,0.4,0.8,1.1c-0.2,1.7-0.7,3.3-1.5,4.7l-13-1.2l-2.3,26.2c-0.3,2.9,0.2,5.2,1.3,6.8
				c1.1,1.6,2.7,2.5,4.9,2.7c0.7,0.1,1.5,0,2.3-0.1c0.8-0.1,1.5-0.3,2-0.4c0.5-0.2,1-0.3,1.5-0.5c0.5-0.2,0.7-0.3,0.8-0.3
				c0.3,0,0.6,0.3,0.9,1.1c0.3,0.8,0.4,1.2,0.3,1.4c-0.5,1-2.2,2-4.9,3.1c-2.8,1.1-5.4,1.5-7.9,1.3c-3.8-0.3-6.9-1.8-9.3-4.5
				c-2.4-2.7-3.4-6.5-3-11.6L969.8,248.4z"/>
			<path class="st18" d="M1013.7,245.7c1.6,0.1,3.9,0.2,6.9,0.3c3,0,4.8,0.1,5.6,0.2c0.1,0.5,0.1,1.2,0,2c-0.1,1-0.3,1.5-0.6,1.5
				c-0.7-0.1-1.9,0.1-3.5,0.5c-1.6,0.4-2.5,0.9-2.6,1.6l-0.1,0.7c0,1.2,2.7,9.7,7.9,25.6c0.7-1.3,2.4-4.7,5.2-10.3
				c2.8-5.6,4.4-8.9,4.8-9.7c0.5-1.2,0.9-2.3,0.9-3.3c0.1-0.9-0.4-1.9-1.5-2.8c-1.1-0.9-2.8-1.5-5.1-1.7c-0.3,0-0.4-0.6-0.3-1.7
				c0.1-0.9,0.3-1.5,0.6-1.8c0.9,0.1,2.6,0.3,5.3,0.8c2.7,0.5,4.9,0.8,6.6,0.9c1.5,0.1,3.4,0.2,5.6,0.2c2.2,0,3.8,0,4.9,0.1
				c0.2,0.5,0.3,1.1,0.3,1.8c-0.1,1.2-0.3,1.7-0.6,1.7c-1-0.1-2.5,0.1-4.5,0.7c-2,0.6-3.3,1.5-4,2.9l-24.1,46.2
				c-5.4,10.2-11.3,15-17.6,14.4c-1.9-0.2-3.3-0.8-4.2-1.9c-0.9-1.1-1.3-2.3-1.2-3.6c0.2-1.9,1-3.2,2.4-4.1
				c7.5,0.7,12.8-1.9,15.7-7.6c2.1-4.2,3.3-6.6,3.6-7.1l-12.6-38.3c-0.5-1.4-0.8-2.2-1.1-2.6c-0.6-1.1-1.6-2.1-3-2.7
				c-1.4-0.7-2.5-1-3.5-1.1c-0.3,0-0.4-0.5-0.3-1.6c0.1-1.2,0.3-1.8,0.5-1.9c0.4,0,2.4,0.3,5.8,0.8
				C1009.4,245.2,1011.9,245.6,1013.7,245.7z"/>
			<path class="st18" d="M1074.3,229.4c-0.2,1.9-0.7,3.7-1.6,5.5c-0.9,1.8-2,3.2-3.2,4.4c-1.2,1.1-2.4,2.1-3.7,3
				c-1.2,0.9-2.3,1.5-3.2,1.9c-0.9,0.4-1.4,0.6-1.6,0.6c-0.4,0-1-0.3-1.6-0.9c-0.6-0.6-1-1.1-1.2-1.7c2.1-1,3.8-2.2,5.1-3.6
				c1.4-1.4,2.3-2.6,2.7-3.5c0.4-0.9,0.6-1.6,0.7-2.1c0.1-0.9-0.6-2.3-1.9-4.1c-1.4-1.8-2-3.1-1.9-4.2c0.1-1.2,0.9-2.2,2.5-3.1
				c1.6-0.8,3.3-1.1,5.1-1c1,0.1,2,0.4,3,1C1074.3,223.4,1074.6,225.9,1074.3,229.4z"/>
			<path class="st18" d="M1094.3,251.6c4.1,0.4,8.2,1.3,12.4,3c0.4,3.3,0.5,7.4,0.1,12.3c-0.1,0.6-0.5,0.8-1.5,0.7
				c-1.6-0.1-2.4-0.5-2.5-1.1c-0.3-2.6-1.2-4.8-2.6-6.7c-1.5-1.9-3.6-3-6.3-3.2c-2.1-0.2-3.8,0.1-5.1,1c-1.3,0.8-2,2.1-2.1,3.9
				c-0.1,1,0,2,0.4,2.8c0.3,0.9,0.9,1.7,1.7,2.5c0.8,0.8,1.6,1.5,2.2,1.9c0.6,0.5,1.6,1.2,2.9,2c0.5,0.3,0.8,0.5,1,0.6
				c0.1,0.1,0.7,0.4,1.6,1c0.9,0.6,1.5,1,1.7,1.1c0.2,0.2,0.8,0.6,1.6,1.2c0.9,0.6,1.5,1.1,1.8,1.4c0.3,0.3,0.9,0.8,1.6,1.5
				c0.7,0.6,1.2,1.2,1.5,1.7c0.3,0.5,0.7,1.1,1.2,1.8c0.5,0.7,0.8,1.4,1,2.1c0.2,0.6,0.3,1.3,0.4,2.1c0.1,0.8,0.1,1.6,0.1,2.4
				c-0.4,4.6-2.5,8-6.2,10.3c-3.7,2.3-8.1,3.3-13.1,2.8c-4.5-0.4-9.1-1.8-13.7-4.3c-0.3-1.3-0.4-3.3-0.6-6.1c-0.1-2.8-0.1-4.9,0-6.3
				c0.5-0.3,1-0.5,1.6-0.4c1.7,0.1,2.5,0.5,2.5,1.1c0.3,3.1,1.5,5.7,3.6,7.7s4.5,3.2,7.2,3.4c2,0.2,3.7-0.2,5.1-1.1
				c1.4-0.9,2.2-2.3,2.3-4.3c0.1-0.7,0-1.4-0.1-2c-0.1-0.6-0.4-1.3-0.9-1.9c-0.5-0.7-0.8-1.2-1.1-1.6c-0.3-0.4-0.9-1-1.8-1.6
				c-0.9-0.7-1.6-1.1-2.1-1.4c-0.5-0.3-1.3-0.8-2.6-1.7c-1.3-0.8-2.2-1.4-2.6-1.7c-3.2-2-5.6-4.2-7.2-6.5c-1.6-2.3-2.3-5-2-8
				c0.4-4.4,2.4-7.7,6.1-9.7C1085.6,252.1,1089.7,251.2,1094.3,251.6z"/>
		</g>
		<g>
			<path class="st18" d="M90.7,265.5c-0.2,0.9-1.2,3.6-3.1,8c-1.9,4.4-3.1,6.7-3.8,6.9c-6.8,1.9-15.3,2-25.7,0.2
				c-9.4-1.6-16.9-6.5-22.3-14.6c-5.4-8.1-7.3-16.9-5.7-26.5c1.8-10.2,6.7-18.3,14.8-24.4c8.1-6.1,17.1-8.3,27-6.5
				c8.1,1.4,16.4,3.8,24.8,7.3c0.2,0.1,0,2.5-0.6,7.1c-0.6,4.7-1,7.6-1.2,8.7c-0.2,1.1-1.1,1.5-2.9,1.2c-0.4-0.1-0.9-0.3-1.4-0.7
				c-0.1-1.3-0.4-2.8-0.9-4.2c-0.5-1.5-1.4-3.2-2.6-5.2s-3.2-3.8-5.9-5.4c-2.7-1.6-6-2.8-9.9-3.4c-7-1.2-13,0.7-17.9,5.8
				c-4.9,5.1-8.1,11.7-9.5,19.8c-1.6,9-0.7,17,2.6,24.1c3.3,7,9,11.2,17,12.6c6.4,1.1,11.8,0,16.2-3.4c1.1-0.8,2.2-2,3.2-3.6
				c1-1.6,1.9-2.9,2.5-3.9c0.6-1.1,1-1.6,1.1-1.6C89.2,264.3,90.6,264.8,90.7,265.5z"/>
			<path class="st18" d="M136.4,244.7c9.2,1.6,12.5,9.4,10.1,23.5l-1.9,11.1c-0.8,4.4-1,7.6-0.8,9.8c0,0.5,0.8,1.2,2.6,2.1
				c1.7,0.9,2.9,1.3,3.6,1.5c0.2,0,0.2,0.6,0.1,1.6c-0.1,1-0.3,1.7-0.4,2.1c-0.5-0.2-2.4-0.6-5.7-1.4c-3.3-0.8-5.7-1.3-7.3-1.6
				c-1.8-0.3-4.2-0.6-7.3-0.9c-3.1-0.3-5-0.5-5.7-0.6c-0.2-0.3-0.2-1,0-2.1c0.2-1.1,0.4-1.6,0.6-1.6c0.9,0.1,2.1,0.1,3.8-0.2
				c1.7-0.3,2.7-0.6,3-1.1c0.8-2.1,1.5-4.6,2-7.7l1.8-10.5c1-5.9,0.9-10.2-0.3-12.7c-1.2-2.5-3.6-4.1-7.1-4.7
				c-2.1-0.4-4.2-0.1-6.2,0.8c-2,0.9-3.1,2.1-3.4,3.6l-3.2,18.5c-0.8,4.4-1,7.6-0.8,9.8c0.1,0.5,0.9,1.2,2.6,2.1
				c1.7,0.8,2.8,1.3,3.5,1.4c0.2,0,0.2,0.6,0.1,1.6c-0.1,1-0.3,1.7-0.5,2.1c-0.6-0.2-2.4-0.6-5.6-1.4c-3.1-0.8-5.5-1.3-7.2-1.6
				c-1.7-0.3-4.2-0.6-7.5-1c-3.3-0.4-5.2-0.5-5.8-0.6c-0.2-0.3-0.3-1-0.1-2.1c0.2-1.1,0.4-1.6,0.7-1.5c0.9,0.1,2.2,0.1,4.1-0.1
				c1.8-0.2,2.9-0.6,3.1-1.1c0.9-2.1,1.6-4.6,2.1-7.6l7.8-44.7c0.5-2.9,0.7-5.3,0.7-7.4c-0.2-1.2-1.9-2.1-5.3-2.7l-1-0.2
				c-0.4-0.1-0.5-0.7-0.3-1.8c0.2-1.1,0.5-1.7,0.9-1.6c2.3,0.2,4.4,0.3,6.5,0.2c2.1,0,3.8-0.1,5.2-0.2c1.4-0.1,2.6-0.3,3.6-0.5
				c1-0.2,2.1-0.4,3.2-0.5l0.2,0c0.3,0,0.5,0.3,0.8,0.7c0.2,0.4,0.3,0.9,0.3,1.2c-1.3,2.6-2.4,5.9-3,9.9l-3.8,21.7
				c-0.1,0.4,0,0.7,0.3,0.7c0.1,0,0.2-0.1,0.5-0.2c1.8-1.5,4.3-2.6,7.4-3.5C130.5,244.4,133.5,244.2,136.4,244.7z"/>
			<path class="st18" d="M176.9,285c-0.8,4.4-1,7.6-0.8,9.8c0.1,0.5,0.9,1.2,2.6,2.1c1.7,0.8,2.9,1.3,3.5,1.4c0.3,0,0.4,0.6,0.2,1.6
				c-0.1,1-0.3,1.7-0.5,2.1c-0.5-0.2-2.4-0.6-5.7-1.4c-3.3-0.8-5.7-1.3-7.3-1.6c-1.8-0.3-4.3-0.6-7.6-1c-3.3-0.4-5.2-0.5-5.7-0.6
				c-0.2-0.3-0.3-1-0.1-2.1c0.2-1.1,0.4-1.6,0.7-1.5c0.8,0.1,2.1,0.1,4-0.1c1.9-0.2,2.9-0.6,3.2-1.1c0.9-2.1,1.6-4.6,2.1-7.7l3-17.5
				c0.6-3.4,0.4-5.8-0.5-7.2c-0.5-0.8-1.2-1.5-2.2-2c-0.9-0.5-1.8-0.9-2.5-1.1c-0.7-0.2-1-0.4-1-0.5c0.4-2.1,0.8-3.1,1.2-3.1
				c2,0.2,5,0.3,8.9,0.2c3.9-0.1,6.9-0.2,8.8-0.5c0.1,0,0.4,0,0.9-0.1c0.4,0.1,0.6,0.4,0.7,0.9c0.1,0.5,0.1,0.9,0,1.2
				c-1.4,4.5-2.2,7.5-2.5,9.1L176.9,285z M173.5,238.1c-1.1-1.5-1.4-3.2-1.1-5.1c0.3-1.8,1.2-3.3,2.7-4.3c1.5-1.1,3.2-1.4,5.1-1.1
				c1.9,0.3,3.3,1.2,4.4,2.8c1.1,1.5,1.4,3.2,1.1,5c-0.3,1.8-1.2,3.3-2.8,4.4c-1.5,1.1-3.2,1.5-5.1,1.2
				C176,240.6,174.6,239.6,173.5,238.1z"/>
			<path class="st18" d="M230.7,261.1c9.2,1.6,12.6,9.8,10,24.4l-1.8,10.2c-0.8,4.4-1.1,7.6-0.9,9.8c0.1,0.5,0.9,1.2,2.7,2.1
				c1.7,0.9,2.9,1.3,3.6,1.4c0.2,0,0.2,0.6,0.1,1.6c-0.1,1-0.3,1.7-0.5,2.1c-0.4-0.1-2.3-0.6-5.6-1.4c-3.3-0.8-5.8-1.3-7.4-1.6
				c-1.7-0.3-4.1-0.6-7.2-0.9c-3.1-0.3-4.9-0.5-5.6-0.5c-0.2-0.3-0.3-1-0.1-2.1c0.2-1.1,0.4-1.6,0.7-1.5c0.8,0.1,2,0.1,3.7-0.2
				c1.7-0.3,2.7-0.6,2.9-1.1c0.9-2,1.7-4.6,2.2-7.7l1.8-10.2c1-5.9,1-10.2-0.2-12.9c-1.2-2.6-3.6-4.3-7.1-4.9
				c-2.3-0.4-4.4-0.1-6.3,0.8c-1.9,1-3,2.1-3.3,3.6l-3.2,18.5c-0.8,4.4-1.1,7.6-0.9,9.8c0.1,0.5,0.9,1.2,2.6,2.1
				c1.7,0.8,2.8,1.3,3.4,1.4c0.3,0,0.4,0.6,0.2,1.6c-0.1,1-0.3,1.7-0.5,2.1c-0.6-0.2-2.4-0.6-5.6-1.4c-3.1-0.8-5.5-1.3-7.2-1.6
				c-1.7-0.3-4.2-0.6-7.5-1c-3.3-0.4-5.2-0.5-5.8-0.6c-0.2-0.3-0.3-1-0.1-2.1c0.2-1.1,0.4-1.6,0.7-1.5c0.9,0.1,2.2,0.1,4.1-0.1
				c1.8-0.2,2.9-0.6,3.1-1.1c0.9-2.1,1.6-4.6,2.1-7.7l3-17.5c0.6-3.4,0.4-5.8-0.5-7.2c-0.5-0.8-1.2-1.5-2.1-2
				c-1-0.5-1.8-0.9-2.5-1.1c-0.7-0.2-1-0.4-1-0.5c0.4-2.1,0.7-3.1,1.1-3.1c3.3,0.3,9.3,0.2,17.8-0.2c0.1-0.1,0.2-0.1,0.3-0.1
				c0.1,0,0.2,0,0.3,0c0.1,0,0.2,0,0.3,0c0.3,0,0.5,0.3,0.6,0.9c0.1,0.5,0.2,1,0.1,1.2c-0.6,2-1,3.2-1.1,3.8c0,0.3,0,0.5,0,0.6
				c0.1,0,0.3-0.1,0.6-0.2c2-1.4,4.5-2.5,7.4-3.4C225,260.8,227.9,260.6,230.7,261.1z"/>
			<path class="st18" d="M280.8,269.9c4.4,0.8,7.6,2.5,9.4,5.2c1.8,2.7,2.2,6.9,1.2,12.6l-3.7,21.2c-0.2,1.4-0.1,2.6,0.4,3.4
				c0.5,0.9,1.3,1.4,2.4,1.6s2.4-0.1,3.9-0.8c0.4,0.2,0.6,0.6,0.4,1.3c-0.2,1.4-0.7,2.5-1.2,3.1c-1.2,0.7-2.8,1.3-4.8,1.9
				c-2,0.6-3.8,0.8-5.4,0.5c-1.6-0.3-3.2-1.2-4.5-2.7c-1.4-1.5-2.2-3-2.4-4.5c-0.1,0.1-0.4,0.2-0.9,0.6c-0.5,0.3-1.3,0.7-2.2,1.1
				c-0.9,0.4-2,0.8-3.1,1.2c-1.1,0.4-2.4,0.7-3.9,0.8c-1.5,0.1-2.9,0.1-4.3-0.1c-3.6-0.6-6.3-2.1-8.2-4.5c-1.9-2.4-2.6-5.3-2-8.7
				c0.3-1.7,1-3.3,2.1-4.6c1.1-1.4,2.3-2.4,3.6-3.2s3-1.4,5.1-2c2.1-0.6,3.9-1,5.4-1.2c1.5-0.2,3.4-0.5,5.7-0.7
				c2.3-0.3,3.9-0.5,4.8-0.6c0.7-0.2,1.1-0.7,1.3-1.6l1-5.9c0.4-2.5,0.2-4.6-0.7-6.2c-0.9-1.6-2.3-2.6-4.2-3c-2.1-0.4-3.9,0-5.4,1.1
				c-1.4,1.1-2.4,2.9-2.8,5.3c-0.2,1.4-1,2.4-2.2,2.9c-1.2,0.5-2.5,0.6-3.8,0.4c-2.6-0.5-4.4-1.6-5.1-3.5c0.6-3.4,3.5-6.2,8.7-8.4
				C270.5,269.6,275.7,269,280.8,269.9z M268.8,310.3c1.9,0.3,3.7,0.1,5.3-0.6c1.6-0.8,2.5-1.8,2.7-3.1l1.9-11
				c-0.5,0.1-1.7,0.3-3.4,0.5c-1.7,0.2-3,0.4-3.9,0.6c-0.9,0.2-2,0.5-3.3,1c-1.3,0.4-2.2,1.1-2.9,1.9c-0.7,0.8-1.1,1.8-1.3,2.9
				c-0.4,2.3-0.1,4.1,0.8,5.3C265.7,309.2,267,309.9,268.8,310.3z"/>
			<path class="st18" d="M311.7,283l-6.5-1.1c-0.5-0.1-0.6-1.1-0.3-2.9c0.1-0.5,0.2-0.8,0.3-0.9c3.1-0.8,6.2-2.2,9.3-4.3
				c1.1-0.8,2.3-1.6,3.6-2.6c1.3-1,2.9-2.3,4.7-3.9c0.7,0.1,1.4,0.3,2,0.6c0.6,0.3,0.9,0.5,0.9,0.8l-1.8,10.5
				c1.9,0.3,4.5,0.8,7.8,1.4c3.3,0.6,5.1,0.9,5.3,1c0.6,0.1,0.8,0.5,0.7,1.1c-0.3,1.7-0.9,3.2-1.9,4.5l-12.9-2.2l-4.5,25.9
				c-0.5,2.9-0.3,5.2,0.7,6.9c1,1.7,2.5,2.8,4.7,3.1c0.7,0.1,1.5,0.2,2.3,0.1c0.8,0,1.5-0.1,2-0.3c0.5-0.1,1-0.3,1.5-0.4
				c0.5-0.1,0.7-0.2,0.8-0.2c0.3,0,0.6,0.4,0.8,1.1c0.2,0.8,0.3,1.3,0.2,1.5c-0.6,0.9-2.3,1.8-5.2,2.7c-2.8,0.9-5.5,1.1-8,0.6
				c-3.7-0.6-6.7-2.4-8.9-5.3c-2.2-2.9-2.9-6.8-2-11.8L311.7,283z"/>
			<path class="st18" d="M368.7,285.2c6.7,1.2,12.1,4.5,16,10c3.9,5.5,5.3,11.6,4.2,18.3c-1.2,6.7-4.5,11.9-10,15.8
				c-5.5,3.9-11.7,5.3-18.5,4.1c-6.8-1.2-12.2-4.5-16.1-10.1c-3.9-5.5-5.3-11.6-4.1-18.3c1.2-6.7,4.5-12,10-15.8
				C355.7,285.3,361.9,284,368.7,285.2z M366.4,290c-3.4-0.6-6.3,0.6-8.7,3.5c-2.4,2.9-4,6.7-4.8,11.2c-1,5.8-0.7,11,0.9,15.7
				c1.6,4.7,4.4,7.4,8.6,8.1c3.4,0.6,6.3-0.6,8.8-3.6c2.5-3,4.1-6.7,4.9-11.1c0.6-3.7,0.8-7.3,0.4-10.6c-0.4-3.3-1.4-6.3-3.1-8.8
				C371.5,292,369.3,290.5,366.4,290z"/>
			<path class="st18" d="M464.7,310.3c0.1-0.9,0-1.6-0.5-2.4c-0.5-0.7-1.1-1.3-2-1.7c-0.9-0.4-1.6-0.7-2.4-1s-1.5-0.4-2.2-0.5
				l-0.4-0.1c-0.3,0-0.4-0.6-0.2-1.7c0.2-1.1,0.4-1.7,0.6-1.9c0.9,0.2,2.8,0.6,5.6,1.3c2.8,0.7,5.1,1.2,6.8,1.5
				c1.5,0.3,3.4,0.5,5.8,0.7c2.4,0.2,4.1,0.4,5.2,0.6c0.1,0.5,0,1.1-0.1,1.9c-0.2,1.1-0.4,1.6-0.7,1.5c-0.9-0.1-2.4,0.1-4.5,0.6
				c-2.1,0.6-3.6,1.4-4.3,2.6L449.1,347c-0.4,0.5-1,1-1.7,1.3c-0.8,0.3-1.5,0.5-2.2,0.3c-0.7-0.1-1.1-0.5-1.3-1l-7.9-31.9l-16.4,26
				c-0.3,0.4-0.8,0.8-1.5,1.3c-0.7,0.5-1.5,0.6-2.5,0.5c-0.7-0.1-1.2-0.5-1.4-1c-1-4-2.2-8.9-3.5-14.6c-1.3-5.7-2.6-10.8-3.7-15.2
				c-1.2-4.4-2.5-9.2-4.1-14.4c-0.3-1-1.1-1.9-2.4-2.6c-1.3-0.7-2.4-1.2-3.3-1.3c-0.3,0-0.3-0.6-0.1-1.8c0.2-1,0.4-1.6,0.7-1.8
				c0.7,0.1,2.5,0.5,5.4,1.3c2.9,0.7,5.1,1.2,6.8,1.5c1.6,0.3,4.1,0.6,7.4,0.9c3.3,0.3,5.1,0.6,5.6,0.6c0.1,0.4,0,1-0.1,2
				c-0.2,0.9-0.4,1.4-0.6,1.4c-0.9-0.2-2.2-0.1-3.8,0.1c-1.6,0.2-2.5,0.9-2.7,1.9c0,0.1,2.1,9,6.4,26.6c1.1-1.9,2.4-4,3.9-6.3
				c1.5-2.4,2.6-4.2,3.4-5.4c0.8-1.2,1.5-2.5,2.3-3.7c0.8-1.3,1.3-2.2,1.7-2.9c0.3-0.6,0.5-1.1,0.6-1.3c0.2-1.4,0-2.9-0.6-4.5
				c-0.4-0.8-1.1-1.5-2.1-2.1c-0.7-0.6-2-1-3.8-1.3c-0.3,0-0.3-0.6-0.2-1.6c0.2-1,0.4-1.6,0.8-1.8c0.8,0.1,2.5,0.6,5.3,1.2
				c2.7,0.7,4.9,1.2,6.7,1.5c1.6,0.3,3.9,0.6,7,0.9c3.1,0.3,5,0.5,5.5,0.6c0.1,0.3,0,1-0.2,2c-0.2,1-0.4,1.5-0.6,1.5
				c-3.7-0.6-5.7,0.3-6.1,2.8c-0.2,1.4,1.7,9.9,5.9,25.6c1.7-2.8,3.7-6.1,6.1-9.8c2.4-3.8,4.1-6.5,5.3-8.4
				C464,312.1,464.6,310.9,464.7,310.3z"/>
			<path class="st18" d="M521.5,311.8c9.2,1.6,12.6,9.8,10,24.4l-1.8,10.2c-0.8,4.4-1.1,7.6-0.9,9.8c0.1,0.5,1,1.2,2.7,2.1
				c1.7,0.9,2.9,1.3,3.6,1.5c0.2,0,0.2,0.6,0.1,1.6c-0.1,1-0.3,1.7-0.5,2.1c-0.4-0.1-2.3-0.6-5.6-1.4s-5.8-1.3-7.4-1.6
				c-1.7-0.3-4.1-0.6-7.2-0.9c-3.1-0.3-4.9-0.5-5.6-0.5c-0.2-0.3-0.3-1-0.1-2.1c0.2-1.1,0.4-1.6,0.7-1.5c0.8,0.1,2,0.1,3.7-0.2
				c1.7-0.3,2.7-0.6,2.9-1.1c0.9-2,1.7-4.6,2.2-7.7l1.8-10.2c1-5.9,1-10.2-0.2-12.9c-1.2-2.6-3.6-4.3-7.1-4.9
				c-2.3-0.4-4.4-0.1-6.3,0.8c-1.9,1-3,2.1-3.3,3.6l-3.2,18.5c-0.8,4.4-1.1,7.6-0.9,9.8c0.1,0.5,0.9,1.2,2.6,2.1
				c1.7,0.8,2.8,1.3,3.4,1.4c0.3,0,0.4,0.6,0.2,1.6c-0.1,1-0.3,1.7-0.5,2.1c-0.6-0.2-2.4-0.6-5.6-1.4c-3.1-0.8-5.5-1.3-7.2-1.6
				c-1.7-0.3-4.2-0.6-7.5-1c-3.3-0.4-5.2-0.5-5.8-0.6c-0.2-0.3-0.3-1-0.1-2.1c0.2-1.1,0.4-1.6,0.7-1.5c0.9,0.1,2.2,0.1,4.1-0.1
				c1.8-0.2,2.9-0.6,3.1-1.1c0.9-2.1,1.6-4.6,2.1-7.7l3-17.5c0.6-3.4,0.4-5.8-0.5-7.2c-0.5-0.8-1.2-1.5-2.1-2
				c-1-0.5-1.8-0.9-2.5-1.1c-0.7-0.2-1-0.4-1-0.5c0.4-2.1,0.7-3.1,1.1-3.1c3.3,0.3,9.3,0.2,17.8-0.2c0.1-0.1,0.2-0.1,0.3-0.1
				c0.1,0,0.2,0,0.3,0c0.1,0,0.2,0,0.3,0c0.3,0,0.5,0.3,0.6,0.9c0.1,0.5,0.2,1,0.1,1.2c-0.6,2-1,3.2-1.1,3.8c0,0.3,0,0.5,0,0.6
				c0.1,0,0.3-0.1,0.6-0.2c2-1.4,4.5-2.5,7.4-3.4S518.7,311.3,521.5,311.8z"/>
		</g>
	</g>
</g>
<g id="Layer_2">
</g>
</svg>
