<svg id="Layer_1" data-name="Layer 1" xmlns="http://www.w3.org/2000/svg" viewBox="0 0 476.62 200.26"><defs><style>.cls-1{fill:#1928eb;}</style></defs><title>title</title><path class="cls-1" d="M37,26.62a4.68,4.68,0,0,1,1.67-3.85A6.5,6.5,0,0,1,42.84,21a10.55,10.55,0,0,1,1.46,0q.63.06,1.76.28l1.55.29a26.5,26.5,0,0,1,.6,4.55.32.32,0,0,1-.34.29c-.53,0-.83,0-.87-.22a5.21,5.21,0,0,0-1.42-2.6,3.37,3.37,0,0,0-2.74-1.16,2.74,2.74,0,0,0-2.05.88,2.91,2.91,0,0,0-.62,2.12,3.34,3.34,0,0,0,.15.84,2.1,2.1,0,0,0,.46.76l.54.61a3.54,3.54,0,0,0,.78.6l.77.5q.2.14.92.53a9.19,9.19,0,0,0,.87.44,10.77,10.77,0,0,0,1,.59q.84.45,1.18.65a12.14,12.14,0,0,1,1,.71,4.26,4.26,0,0,1,1,1,6.19,6.19,0,0,1,.58,1.17,5,5,0,0,1,.32,1.55,4.83,4.83,0,0,1-1.71,4,6.88,6.88,0,0,1-4.36,1.78,27.71,27.71,0,0,1-5.51-.54A26.39,26.39,0,0,1,37.5,38a19.92,19.92,0,0,1-.33-2.11c0-.16.17-.25.46-.26q.77,0,.87.19A5.78,5.78,0,0,0,39,36.92a8.63,8.63,0,0,0,.89,1.32,3.91,3.91,0,0,0,1.46,1.11,4.17,4.17,0,0,0,2,.36,3.33,3.33,0,0,0,2.27-1,3.19,3.19,0,0,0,.79-2.54,2.58,2.58,0,0,0-.25-1,3.44,3.44,0,0,0-.49-.78,4.4,4.4,0,0,0-.78-.67q-.51-.36-.85-.55l-1-.53-.93-.47a2,2,0,0,0-.34-.22l-1.35-.76q-.46-.27-1.19-.81a5.91,5.91,0,0,1-1.11-1,5.67,5.67,0,0,1-.7-1.21A4.48,4.48,0,0,1,37,26.62Z"/><path class="cls-1" d="M59.27,26.9a6,6,0,0,1,3.44.8,6.22,6.22,0,0,1,3.19,5.13,7,7,0,0,1-6.6,7.44,6.88,6.88,0,0,1-2.13-.3c-.08,0-.11.15-.1.42l.11,2a10.75,10.75,0,0,0,.38,2.66q0,.24.81.42a4.54,4.54,0,0,0,1,.17c.06,0,.1.14.13.43a2.67,2.67,0,0,1,0,.55H57.95q-1.39,0-2,0c-.49,0-1.19.09-2.09.2L52.24,47a1.07,1.07,0,0,1-.12-.54c0-.29,0-.43.07-.44a4.16,4.16,0,0,0,1.07-.28q.71-.26.79-.5a10.93,10.93,0,0,0,.06-2.15l-.6-11.34a2.89,2.89,0,0,0-.58-1.9,1.34,1.34,0,0,0-.67-.4,3.62,3.62,0,0,0-.72-.13c-.2,0-.3,0-.3-.07q0-.86.13-.9a22.86,22.86,0,0,0,4.38-1.07l.56-.18c.08,0,.13.2.15.62a1.57,1.57,0,0,1,0,.36,6,6,0,0,1,1.28-.77A4.27,4.27,0,0,1,59.27,26.9Zm-.63,1.61a2.25,2.25,0,0,0-1.56.65,2,2,0,0,0-.53,1.55l.32,6.12a1.82,1.82,0,0,0,.88,1.52,2.89,2.89,0,0,0,1.75.49,2.79,2.79,0,0,0,2.23-1.37,5.75,5.75,0,0,0,.75-3.55A7.69,7.69,0,0,0,61.34,30,2.92,2.92,0,0,0,58.64,28.51Z"/><path class="cls-1" d="M73.58,26.11a5.51,5.51,0,0,1,2.52.42,4.7,4.7,0,0,1,1.8,1.3,6.91,6.91,0,0,1,1,1.7,5.14,5.14,0,0,1,.42,1.72q0,.65-.18.83a1.68,1.68,0,0,1-.9.21l-7.1.38c-.14,0-.21.07-.2.19a5.76,5.76,0,0,0,.5,2.06A4.08,4.08,0,0,0,72.9,36.6a3.5,3.5,0,0,0,2.28.62,8.18,8.18,0,0,0,.86-.09,4.43,4.43,0,0,0,.76-.19l.61-.23a2.51,2.51,0,0,0,.54-.3l.39-.27.57-.43a.48.48,0,0,1,.16.17.58.58,0,0,1,.11.29.91.91,0,0,1-.15.57,4.86,4.86,0,0,1-1.67,1.7,5.52,5.52,0,0,1-2.9,1,6,6,0,0,1-4.55-1.68,6.41,6.41,0,0,1-2.12-4.55,6.88,6.88,0,0,1,1.48-5A5.77,5.77,0,0,1,73.58,26.11Zm-.14,1.38a2.1,2.1,0,0,0-1.26.48A2.81,2.81,0,0,0,71.39,29,5.81,5.81,0,0,0,71,30.16a3.6,3.6,0,0,0-.09.88c0,.14.07.2.19.2L75.93,31q.27,0,.24-.46a3.85,3.85,0,0,0-.81-2.07A2.13,2.13,0,0,0,73.45,27.49Z"/><path class="cls-1" d="M87,25.4a3.65,3.65,0,0,1,2.81.82,4.75,4.75,0,0,1,1.1,3.26l.31,5.85a1.35,1.35,0,0,0,.32.89.89.89,0,0,0,.73.27,1.85,1.85,0,0,0,1-.44c.12,0,.19.14.19.32a1.77,1.77,0,0,1-.13.9,7.36,7.36,0,0,1-1.15.81,3.09,3.09,0,0,1-1.41.46,2.17,2.17,0,0,1-1.36-.43,2.43,2.43,0,0,1-.92-1.05l-.21.21q-.18.17-.51.43a8.75,8.75,0,0,1-.75.52,4.77,4.77,0,0,1-1,.45,4.32,4.32,0,0,1-1.16.23,3.55,3.55,0,0,1-2.46-.69A2.82,2.82,0,0,1,81.32,36a2.75,2.75,0,0,1,.27-1.35,3.56,3.56,0,0,1,.76-1.07,6.12,6.12,0,0,1,1.24-.85,12.26,12.26,0,0,1,1.35-.65l1.46-.54,1.24-.45a.47.47,0,0,0,.24-.49L87.79,29a2.55,2.55,0,0,0-.56-1.61,1.55,1.55,0,0,0-1.31-.53,1.8,1.8,0,0,0-1.37.62A2.22,2.22,0,0,0,84.13,29a1,1,0,0,1-.4.9,1.85,1.85,0,0,1-1,.33,1.68,1.68,0,0,1-1.58-.63q-.07-1.43,1.8-2.78A7.46,7.46,0,0,1,87,25.4Zm-.73,11.47a2.31,2.31,0,0,0,1.36-.49,1.18,1.18,0,0,0,.53-1l-.16-3c-.14.07-.42.18-.86.34s-.77.3-1,.41a8,8,0,0,0-.81.46,1.8,1.8,0,0,0-.66.69,1.64,1.64,0,0,0-.18.84A1.83,1.83,0,0,0,85,36.49,1.71,1.71,0,0,0,86.25,36.87Z"/><path class="cls-1" d="M107,26.34q-.58.39-1.81,1.44a20.87,20.87,0,0,0-2.25,2.2q.91.87,2.29,2.29t2.3,2.32a14.24,14.24,0,0,0,1.25,1.15,3.73,3.73,0,0,0,1.17.53,3.62,3.62,0,0,0,1,.19c.08,0,.13.16.15.5a1.77,1.77,0,0,1,0,.42l-3.48,0-1.14.09-1.27.14-1.11.13a.81.81,0,0,1-.15-.53c0-.28,0-.42.1-.42a2.12,2.12,0,0,0,.68-.17c.25-.1.38-.2.37-.3s0-.06,0-.06l-4.59-4.61-.35.11.1,1.84a12.13,12.13,0,0,0,.38,2.66q.07.21.82.39a4.32,4.32,0,0,0,1,.17c.06,0,.1.14.13.42a1.7,1.7,0,0,1,0,.58l-1.58,0q-1.37,0-2.05,0t-2.06.2l-1.58.2a.87.87,0,0,1-.15-.56c0-.3,0-.45.1-.45A4.18,4.18,0,0,0,96.31,37q.71-.26.76-.47a9.8,9.8,0,0,0,.09-2.18L96.51,22a11.65,11.65,0,0,0-.26-2q-.17-.47-1.57-.39h-.27c-.12,0-.19-.15-.2-.47s0-.48.15-.48q.92-.14,1.74-.33t1.36-.37q.54-.18.93-.35l.83-.34h.06a.32.32,0,0,1,.25.15.82.82,0,0,1,.17.3,9.53,9.53,0,0,0-.21,2.81l.53,9.92a2.67,2.67,0,0,0,.87-.37q.59-.6,1.29-1.24l1-.93q.31-.28.62-.61a2.64,2.64,0,0,0,.4-.51.7.7,0,0,0,.09-.36q0-.33-.69-.37a2.92,2.92,0,0,1-.67-.07,1.32,1.32,0,0,1-.12-.51c0-.21,0-.32.1-.35l2.88-.15q.8,0,3.14-.29a.47.47,0,0,1,.17.32,1.3,1.3,0,0,1,0,.45c0,.14-.06.21-.12.21A3.9,3.9,0,0,0,107,26.34Z"/><path class="cls-1" d="M118.22,32.68a10.91,10.91,0,0,0,.38,2.66q.07.21.82.39a4.37,4.37,0,0,0,1,.17c.08,0,.13.14.16.42a1.71,1.71,0,0,1,0,.58l-1.59,0q-1.39,0-2,0t-2.09.2l-1.55.2a.87.87,0,0,1-.15-.56q0-.45.1-.45a4.31,4.31,0,0,0,1.06-.28c.49-.17.75-.33.78-.47a9.75,9.75,0,0,0,.09-2.18l-.26-4.84a2.83,2.83,0,0,0-.58-1.87,1.64,1.64,0,0,0-.71-.41,3.16,3.16,0,0,0-.72-.14q-.3,0-.3-.07,0-.86.13-.9a22.8,22.8,0,0,0,2.38-.48,22.89,22.89,0,0,0,2.32-.66l.23-.07c.1,0,.18.06.25.19a.54.54,0,0,1,.08.32,25.52,25.52,0,0,0-.1,2.57Zm-3.75-12.26a1.81,1.81,0,0,1-.6-1.28,1.83,1.83,0,0,1,1.74-1.92,1.78,1.78,0,0,1,1.33.46,1.76,1.76,0,0,1,.6,1.26,1.8,1.8,0,0,1-.46,1.33,1.83,1.83,0,0,1-2.61.14Z"/><path class="cls-1" d="M131.38,23q3.83-.2,4.15,5.88l.15,2.82a12.34,12.34,0,0,0,.35,2.66q.07.21.84.39a4.54,4.54,0,0,0,1,.17c.06,0,.1.14.13.42a1.71,1.71,0,0,1,0,.58c-.12,0-.64,0-1.57,0s-1.61,0-2.07,0-1.13.09-2,.19l-1.52.2a.88.88,0,0,1-.15-.56c0-.3,0-.45.09-.45a3.52,3.52,0,0,0,1-.28q.65-.26.71-.47a8.58,8.58,0,0,0,.12-2.18l-.15-2.82a6.46,6.46,0,0,0-.85-3.41,2.39,2.39,0,0,0-2.17-.87,2.75,2.75,0,0,0-1.63.61,1.43,1.43,0,0,0-.65,1.15l.27,5.11a12.39,12.39,0,0,0,.35,2.66c0,.14.32.27.81.39a4.3,4.3,0,0,0,1,.17c.08,0,.13.14.16.42a1.71,1.71,0,0,1,0,.58l-1.57,0q-1.32,0-2,0t-2.06.2l-1.58.2a.87.87,0,0,1-.15-.56q0-.44.1-.45a4.14,4.14,0,0,0,1.07-.28q.71-.26.76-.47a9.75,9.75,0,0,0,.09-2.18L124.14,28a2.83,2.83,0,0,0-.58-1.87,1.44,1.44,0,0,0-.69-.41,3.36,3.36,0,0,0-.72-.14c-.19,0-.28,0-.29-.07,0-.57,0-.87.1-.9a42.08,42.08,0,0,0,4.73-1.14l.07,0,.09,0h.07c.08,0,.15.06.22.2a.89.89,0,0,1,.11.32A9.83,9.83,0,0,0,127.2,25a.24.24,0,0,0,0,.15.44.44,0,0,0,.14-.1,6.58,6.58,0,0,1,1.76-1.34A5.2,5.2,0,0,1,131.38,23Z"/><path class="cls-1" d="M145,22.38a9.42,9.42,0,0,1,2.49.26,9.17,9.17,0,0,0,2.39.26l1.69-.09s.12.12.23.38a1.84,1.84,0,0,1,.18.59c0,.28,0,.42-.16.42l-1.93.1c-.08,0-.12,0-.11.1s.1.27.31.76a4.23,4.23,0,0,1,.34,1.41,4.3,4.3,0,0,1-1.3,3.24,5.09,5.09,0,0,1-3.59,1.6,12.21,12.21,0,0,1-1.85,0,1.59,1.59,0,0,0-.62.58,1.27,1.27,0,0,0-.26.74.61.61,0,0,0,.31.49,2,2,0,0,0,.89.25c.4,0,.74.06,1,.07h1.19l.45,0a10.49,10.49,0,0,1,4.39.59,2.34,2.34,0,0,1,1.5,2.11,4.67,4.67,0,0,1-1.93,4,8.12,8.12,0,0,1-4.93,1.9,7.73,7.73,0,0,1-3.83-.63,2.67,2.67,0,0,1-1.75-2.35,2.32,2.32,0,0,1,.76-1.71,4.93,4.93,0,0,1,1.77-1.23,3.39,3.39,0,0,1-1.47-.83,2.16,2.16,0,0,1-.74-1.52q-.07-1.28,2.06-2.76a3.93,3.93,0,0,1-1.68-1.44,4.37,4.37,0,0,1-.87-2.38,4,4,0,0,1,1.37-3.41A5.91,5.91,0,0,1,145,22.38Zm4.92,15.31q-.05-1-1.57-1.3a18.86,18.86,0,0,0-4-.13l-.15,0-.14.1c-.25.11-.45.21-.58.28A2.6,2.6,0,0,0,143,37a1.43,1.43,0,0,0-.37.54,1.72,1.72,0,0,0-.1.72A2.08,2.08,0,0,0,143.72,40a4.64,4.64,0,0,0,2.56.58,4.49,4.49,0,0,0,2.68-.92A2.32,2.32,0,0,0,149.91,37.69ZM143,26.81a4.69,4.69,0,0,0,.72,2.42,1.84,1.84,0,0,0,1.71.91A1.77,1.77,0,0,0,147,29.2a4,4,0,0,0,.41-2.12,4.88,4.88,0,0,0-.73-2.52,1.9,1.9,0,0,0-1.77-.89,1.68,1.68,0,0,0-1.52,1A4.31,4.31,0,0,0,143,26.81Z"/><path class="cls-1" d="M179,22.78a.86.86,0,0,0-.27-.6,1.31,1.31,0,0,0-.63-.32,5.49,5.49,0,0,0-.69-.11,4.38,4.38,0,0,0-.61,0h-.12c-.08,0-.13-.14-.16-.44s0-.48,0-.54c.26,0,.78,0,1.58,0s1.43,0,1.91,0,.94-.08,1.58-.17,1.11-.15,1.41-.16a1.8,1.8,0,0,1,.09.5c0,.3,0,.45-.09.45a3.36,3.36,0,0,0-1.15.43,1.81,1.81,0,0,0-1,1l-3.84,10.71a1.17,1.17,0,0,1-.38.45,1,1,0,0,1-.57.22.37.37,0,0,1-.4-.19l-4.06-8-2.77,7.92a1.58,1.58,0,0,1-.32.43.89.89,0,0,1-.62.27.44.44,0,0,1-.43-.19q-.77-1.51-1.82-3.67t-1.92-3.81q-.86-1.65-2-3.59a1.37,1.37,0,0,0-.8-.55,2.87,2.87,0,0,0-1-.16c-.08,0-.13-.15-.14-.47s0-.45.09-.51.7,0,1.5,0,1.43,0,1.89,0,1.13-.09,2-.2l1.54-.17a1.67,1.67,0,0,1,.09.53c0,.26,0,.4-.07.42a3.52,3.52,0,0,0-1,.26q-.63.24-.61.66s1.11,2.26,3.33,6.67q.28-.85.66-1.93l.57-1.64.39-1.14c.13-.38.22-.67.27-.86a1.65,1.65,0,0,0,.07-.38,2.17,2.17,0,0,0-.45-1.17,1.41,1.41,0,0,0-.68-.44,2.38,2.38,0,0,0-1.08-.12c-.08,0-.13-.14-.14-.42s0-.46.09-.53.71,0,1.47,0,1.38,0,1.86,0,1.08-.09,1.92-.19l1.51-.17a1.46,1.46,0,0,1,.07.55c0,.29,0,.43-.08.44q-1.51.08-1.46,1.12,0,.56,3.14,6.44.41-1.27,1-3t.89-2.55A4,4,0,0,0,179,22.78Z"/><path class="cls-1" d="M190.54,28.84a10.91,10.91,0,0,0,.38,2.66q.07.21.82.39a4.37,4.37,0,0,0,1,.17c.08,0,.13.14.16.42a1.71,1.71,0,0,1,0,.58l-1.6,0q-1.38,0-2,0t-2.09.2l-1.55.2a.87.87,0,0,1-.15-.56q0-.45.1-.45a4.31,4.31,0,0,0,1.06-.28q.73-.26.78-.47a9.75,9.75,0,0,0,.09-2.18l-.26-4.84a2.83,2.83,0,0,0-.58-1.87,1.64,1.64,0,0,0-.71-.41,3.16,3.16,0,0,0-.72-.14c-.2,0-.3,0-.3-.07q0-.86.13-.9a22.8,22.8,0,0,0,2.38-.48,23.12,23.12,0,0,0,2.32-.66l.23-.07c.1,0,.18.06.25.19a.54.54,0,0,1,.08.32,25.52,25.52,0,0,0-.1,2.57ZM186.8,16.58a1.81,1.81,0,0,1-.6-1.28,1.83,1.83,0,0,1,1.74-1.92,1.78,1.78,0,0,1,1.33.46,1.76,1.76,0,0,1,.6,1.26,1.81,1.81,0,0,1-.46,1.33,1.83,1.83,0,0,1-2.61.14Z"/><path class="cls-1" d="M195.83,21.71l-1.81.1c-.14,0-.22-.25-.25-.76a.74.74,0,0,1,0-.27,8.34,8.34,0,0,0,2.2-1.69l.8-.92q.43-.51,1-1.32a2.12,2.12,0,0,1,.57,0c.18,0,.27.09.28.15l.15,2.91,2.15-.1,1.47-.06c.16,0,.24.08.25.25a2.89,2.89,0,0,1-.23,1.32l-3.56.19.38,7.15a2.82,2.82,0,0,0,.6,1.78,1.7,1.7,0,0,0,1.43.55,2.84,2.84,0,0,0,.62-.11,3.06,3.06,0,0,0,.53-.19l.38-.2.2-.1c.08,0,.17.06.28.25s.16.32.14.38q-.16.43-1.21,1a4.68,4.68,0,0,1-2.09.66,3.75,3.75,0,0,1-2.68-.85,4,4,0,0,1-1.25-3Z"/><path class="cls-1" d="M214.4,18.64q3.8-.2,4.11,5.65l.16,3.06a10.91,10.91,0,0,0,.38,2.66c0,.14.3.27.81.39a4.55,4.55,0,0,0,1,.17q.09,0,.13.42a3.14,3.14,0,0,1,0,.58l-1.6,0q-1.38,0-2,0t-2,.2l-1.55.2a1.11,1.11,0,0,1-.12-.56c0-.3,0-.45.07-.45a3.54,3.54,0,0,0,1-.28q.66-.26.73-.47a11.39,11.39,0,0,0,.06-2.18l-.15-2.91a6.19,6.19,0,0,0-.85-3.36,2.43,2.43,0,0,0-2.17-.82,2.84,2.84,0,0,0-1.61.59,1.4,1.4,0,0,0-.68,1.17l.27,5.11a10.92,10.92,0,0,0,.38,2.66c0,.14.32.27.81.39a4.18,4.18,0,0,0,1,.17c.06,0,.1.14.13.42a1.68,1.68,0,0,1,0,.58l-1.57,0q-1.33,0-2,0t-2.06.2l-1.58.2a.87.87,0,0,1-.15-.56c0-.3,0-.45.1-.45a4.17,4.17,0,0,0,1.07-.28c.48-.17.73-.33.76-.47a9.58,9.58,0,0,0,.09-2.15l-.66-12.35a11.57,11.57,0,0,0-.26-2q-.17-.47-1.57-.39h-.27c-.12,0-.19-.15-.2-.47s0-.48.15-.48q.92-.14,1.74-.33t1.36-.37q.54-.18.93-.35l.83-.34h.06a.32.32,0,0,1,.25.15.82.82,0,0,1,.17.3,9.53,9.53,0,0,0-.21,2.81l.32,6c0,.12,0,.18.13.17s.06,0,.11-.1A5.67,5.67,0,0,1,212,19.35,5.48,5.48,0,0,1,214.4,18.64Z"/><path class="cls-1" d="M228.91,16.44a4.69,4.69,0,0,1,1.67-3.85,6.49,6.49,0,0,1,4.13-1.75,10.49,10.49,0,0,1,1.46,0,17.77,17.77,0,0,1,1.76.28l1.55.29a26.69,26.69,0,0,1,.6,4.55.33.33,0,0,1-.34.29q-.8,0-.87-.22a5.23,5.23,0,0,0-1.42-2.6,3.37,3.37,0,0,0-2.74-1.16,2.74,2.74,0,0,0-2.05.88,2.91,2.91,0,0,0-.62,2.12,3.38,3.38,0,0,0,.15.84,2.1,2.1,0,0,0,.46.76l.54.61a3.54,3.54,0,0,0,.78.6l.77.5c.13.09.44.27.92.53a8.88,8.88,0,0,0,.87.44,10.8,10.8,0,0,0,1,.59q.84.45,1.18.65a12.15,12.15,0,0,1,1,.71,4.29,4.29,0,0,1,1,1,6.14,6.14,0,0,1,.58,1.17,5,5,0,0,1,.32,1.55,4.82,4.82,0,0,1-1.71,4A6.87,6.87,0,0,1,235.52,31a27.66,27.66,0,0,1-5.51-.54,26.11,26.11,0,0,1-.63-2.66,20.48,20.48,0,0,1-.33-2.11q0-.24.46-.26c.51,0,.81,0,.87.19a5.73,5.73,0,0,0,.48,1.15,8.63,8.63,0,0,0,.89,1.32,3.93,3.93,0,0,0,1.46,1.11,4.18,4.18,0,0,0,2,.35,3.32,3.32,0,0,0,2.27-1,3.2,3.2,0,0,0,.79-2.54,2.58,2.58,0,0,0-.25-1,3.44,3.44,0,0,0-.49-.78,4.35,4.35,0,0,0-.78-.67q-.51-.36-.85-.55l-1-.53-.93-.47a2,2,0,0,0-.34-.22l-1.35-.76q-.46-.27-1.19-.82a5.87,5.87,0,0,1-1.11-1,5.65,5.65,0,0,1-.71-1.21A4.46,4.46,0,0,1,228.91,16.44Z"/><path class="cls-1" d="M252.75,16.61q3.8-.2,4.11,5.65l.16,3.06A10.86,10.86,0,0,0,257.4,28c0,.14.3.27.81.39a4.58,4.58,0,0,0,1,.17c.06,0,.1.14.13.42a3.14,3.14,0,0,1,0,.58l-1.59,0q-1.38,0-2,0t-2,.2l-1.55.2a1.11,1.11,0,0,1-.12-.56c0-.3,0-.45.07-.45a3.55,3.55,0,0,0,1-.28c.44-.17.68-.33.74-.47A11.39,11.39,0,0,0,254,26l-.15-2.91a6.2,6.2,0,0,0-.85-3.36,2.43,2.43,0,0,0-2.17-.82,2.85,2.85,0,0,0-1.61.59,1.4,1.4,0,0,0-.68,1.17l.27,5.11a10.87,10.87,0,0,0,.38,2.66c0,.14.32.27.81.39a4.23,4.23,0,0,0,1,.17q.09,0,.13.42a1.68,1.68,0,0,1,0,.58l-1.56,0q-1.33,0-2,0t-2.06.2l-1.58.2a.87.87,0,0,1-.15-.56c0-.3,0-.45.1-.45a4.15,4.15,0,0,0,1.07-.28c.48-.17.73-.33.76-.47a9.59,9.59,0,0,0,.09-2.15l-.66-12.35a11.57,11.57,0,0,0-.26-2q-.17-.47-1.57-.39H243c-.12,0-.19-.15-.2-.47s0-.48.15-.48q.92-.14,1.74-.33t1.36-.37q.54-.18.93-.35l.83-.34h.06a.32.32,0,0,1,.25.15.83.83,0,0,1,.17.3,9.53,9.53,0,0,0-.21,2.81l.32,6q0,.18.13.17s.06,0,.11-.1a5.65,5.65,0,0,1,1.76-1.39A5.48,5.48,0,0,1,252.75,16.61Z"/><path class="cls-1" d="M266.59,15.87a5.51,5.51,0,0,1,2.52.42,4.7,4.7,0,0,1,1.8,1.3,6.9,6.9,0,0,1,1,1.7,5.14,5.14,0,0,1,.42,1.72q0,.65-.18.83a1.68,1.68,0,0,1-.9.21l-7.1.38c-.14,0-.21.07-.2.19a5.76,5.76,0,0,0,.5,2.06,4.08,4.08,0,0,0,1.41,1.68,3.5,3.5,0,0,0,2.28.62,8.18,8.18,0,0,0,.86-.09,4.43,4.43,0,0,0,.76-.19l.61-.23a2.51,2.51,0,0,0,.54-.3l.39-.27.57-.43a.48.48,0,0,1,.16.17.58.58,0,0,1,.11.29.91.91,0,0,1-.15.57,4.85,4.85,0,0,1-1.67,1.7,5.52,5.52,0,0,1-2.9,1,6,6,0,0,1-4.55-1.68,6.41,6.41,0,0,1-2.12-4.55,6.88,6.88,0,0,1,1.48-5A5.77,5.77,0,0,1,266.59,15.87Zm-.14,1.38a2.1,2.1,0,0,0-1.26.48,2.81,2.81,0,0,0-.81,1.05,5.82,5.82,0,0,0-.37,1.14,3.6,3.6,0,0,0-.09.88c0,.14.07.2.19.2l4.81-.26q.27,0,.24-.46a3.85,3.85,0,0,0-.81-2.07A2.13,2.13,0,0,0,266.45,17.25Z"/><path class="cls-1" d="M279.51,24.12a10.92,10.92,0,0,0,.38,2.66q.07.21.82.39a4.37,4.37,0,0,0,1,.17c.08,0,.13.14.16.42a1.71,1.71,0,0,1,0,.58l-1.6,0q-1.38,0-2,0t-2.09.2l-1.55.2a.87.87,0,0,1-.15-.56q0-.45.1-.45a4.32,4.32,0,0,0,1.06-.28q.73-.26.78-.47a9.75,9.75,0,0,0,.09-2.18l-.26-4.84a2.83,2.83,0,0,0-.58-1.87,1.65,1.65,0,0,0-.71-.41,3.11,3.11,0,0,0-.72-.14c-.2,0-.3,0-.3-.07,0-.57,0-.87.13-.9a22.81,22.81,0,0,0,2.39-.48,23.2,23.2,0,0,0,2.32-.66l.23-.07c.1,0,.18.06.25.2a.54.54,0,0,1,.08.32,25.53,25.53,0,0,0-.1,2.57Zm-3.75-12.26a1.81,1.81,0,0,1-.6-1.28,1.83,1.83,0,0,1,1.74-1.92,1.78,1.78,0,0,1,1.33.46,1.76,1.76,0,0,1,.6,1.26,1.81,1.81,0,0,1-.46,1.33,1.83,1.83,0,0,1-2.61.14Z"/><path class="cls-1" d="M289.64,14.59a5.12,5.12,0,0,1,2.19.3q.15,0,.12-.48l-.15-2.79a10.29,10.29,0,0,0-.29-2q-.17-.47-1.57-.39h-.24c-.12,0-.19-.15-.2-.47s0-.48.15-.48q.89-.14,1.73-.33t1.38-.37c.36-.12.67-.23.93-.35l.6-.25.23-.09h.06a.32.32,0,0,1,.25.15.54.54,0,0,1,.13.31,11.34,11.34,0,0,0-.15,2.81l.69,13.06a10.89,10.89,0,0,0,.29,2.19.44.44,0,0,0,.31.31,1.83,1.83,0,0,0,.57.12h.86s.07.16.08.35q0,.59-.15.6-.41.05-1,.17l-1.24.26-1.15.27-1.22.32c-.12,0-.19-.16-.2-.5l0-.5a.13.13,0,0,0-.05-.12.05.05,0,0,0-.07,0,5,5,0,0,1-3,1.26,5.76,5.76,0,0,1-4.28-1.54,6,6,0,0,1-2-4.34,7,7,0,0,1,1.77-5.14A6.51,6.51,0,0,1,289.64,14.59ZM289.45,16a2.6,2.6,0,0,0-2.3,1.46,7,7,0,0,0-.61,3.63A7.17,7.17,0,0,0,287.66,25a2.92,2.92,0,0,0,2.66,1.27,2.47,2.47,0,0,0,1.61-.61,1.65,1.65,0,0,0,.55-1.35l-.33-6.23a2.07,2.07,0,0,0-.14-.62,2.76,2.76,0,0,0-.39-.68,1.9,1.9,0,0,0-.83-.58A3.15,3.15,0,0,0,289.45,16Z"/><path class="cls-1" d="M304.94,13.84a3.65,3.65,0,0,1,2.81.82,4.75,4.75,0,0,1,1.1,3.26l.31,5.85a1.35,1.35,0,0,0,.32.89.89.89,0,0,0,.73.27,1.85,1.85,0,0,0,1-.44c.12,0,.19.14.19.32a1.76,1.76,0,0,1-.13.9,7.33,7.33,0,0,1-1.15.81,3.1,3.1,0,0,1-1.41.46,2.18,2.18,0,0,1-1.36-.43,2.42,2.42,0,0,1-.92-1.05l-.21.21q-.18.17-.51.43c-.22.17-.47.34-.75.52a4.74,4.74,0,0,1-1,.45,4.3,4.3,0,0,1-1.16.23,3.55,3.55,0,0,1-2.46-.69,2.82,2.82,0,0,1-1.05-2.19,2.75,2.75,0,0,1,.27-1.35,3.58,3.58,0,0,1,.76-1.07,6.12,6.12,0,0,1,1.24-.85,12.44,12.44,0,0,1,1.35-.65l1.46-.54,1.24-.45a.47.47,0,0,0,.24-.49l-.09-1.63a2.56,2.56,0,0,0-.56-1.61,1.55,1.55,0,0,0-1.31-.53,1.8,1.8,0,0,0-1.37.62,2.22,2.22,0,0,0-.42,1.58,1,1,0,0,1-.4.9,1.85,1.85,0,0,1-1,.34,1.68,1.68,0,0,1-1.58-.63q-.07-1.43,1.8-2.77A7.46,7.46,0,0,1,304.94,13.84Zm-.73,11.47a2.31,2.31,0,0,0,1.36-.49,1.18,1.18,0,0,0,.53-1l-.16-3c-.14.07-.42.18-.86.34s-.77.3-1,.41a8.07,8.07,0,0,0-.81.46,1.8,1.8,0,0,0-.66.69,1.64,1.64,0,0,0-.18.84,1.83,1.83,0,0,0,.55,1.37A1.7,1.7,0,0,0,304.21,25.31Z"/><path class="cls-1" d="M319.18,11.66a4.68,4.68,0,0,1,1.67-3.85A6.5,6.5,0,0,1,325,6a10.49,10.49,0,0,1,1.46,0q.63.06,1.76.28l1.55.29a26.69,26.69,0,0,1,.6,4.55.32.32,0,0,1-.34.29q-.8,0-.87-.22a5.23,5.23,0,0,0-1.42-2.6A3.38,3.38,0,0,0,325,7.48a2.74,2.74,0,0,0-2.05.88,2.91,2.91,0,0,0-.62,2.12,3.33,3.33,0,0,0,.15.84,2.09,2.09,0,0,0,.46.77l.54.61a3.57,3.57,0,0,0,.78.6l.77.5c.13.09.44.27.92.53a8.81,8.81,0,0,0,.87.44,11,11,0,0,0,1,.59q.84.45,1.18.65a12,12,0,0,1,1,.71,4.3,4.3,0,0,1,1,1,6.17,6.17,0,0,1,.58,1.17,5,5,0,0,1,.32,1.55,4.83,4.83,0,0,1-1.71,4,6.88,6.88,0,0,1-4.36,1.78,27.71,27.71,0,0,1-5.51-.54,26.11,26.11,0,0,1-.63-2.66,20.48,20.48,0,0,1-.33-2.11c0-.16.17-.25.46-.26.51,0,.81,0,.87.19a5.78,5.78,0,0,0,.48,1.15,8.63,8.63,0,0,0,.89,1.32,3.92,3.92,0,0,0,1.46,1.11,4.19,4.19,0,0,0,2,.35,3.33,3.33,0,0,0,2.27-1,3.2,3.2,0,0,0,.79-2.54,2.58,2.58,0,0,0-.25-1,3.45,3.45,0,0,0-.49-.78,4.35,4.35,0,0,0-.78-.67q-.51-.36-.85-.55l-1-.53-.93-.47a2,2,0,0,0-.34-.22l-1.35-.76q-.46-.27-1.19-.81a5.87,5.87,0,0,1-1.11-1,5.63,5.63,0,0,1-.71-1.21A4.46,4.46,0,0,1,319.18,11.66Z"/><path class="cls-1" d="M340,12a6.55,6.55,0,0,1,4.87,1.69,6.37,6.37,0,0,1,2.22,4.6,6.73,6.73,0,0,1-13.45.71,6.4,6.4,0,0,1,1.69-4.82A6.52,6.52,0,0,1,340,12Zm-.31,1.42a2.39,2.39,0,0,0-2.09,1.47,6.39,6.39,0,0,0-.6,3.26,8.67,8.67,0,0,0,1.19,4.13A3,3,0,0,0,341,23.9a2.43,2.43,0,0,0,2.11-1.48,6.33,6.33,0,0,0,.62-3.25,10.18,10.18,0,0,0-.54-2.84,5.24,5.24,0,0,0-1.36-2.15A2.76,2.76,0,0,0,339.71,13.39Z"/><path class="cls-1" d="M354.3,20.09a12.21,12.21,0,0,0,.35,2.66q.07.2.75.42a3.25,3.25,0,0,0,.92.2c.06,0,.1.13.13.41a1.59,1.59,0,0,1,0,.57H354l-1.07,0-1.13.09-1.24.14-1.12.13a.84.84,0,0,1-.15-.54c0-.29,0-.43.1-.44a3.17,3.17,0,0,0,1-.31q.65-.29.7-.5a9.76,9.76,0,0,0,.12-2.21l-.66-12.35a10.3,10.3,0,0,0-.29-2q-.17-.47-1.51-.4l-.3,0c-.12,0-.19-.11-.2-.35s0-.48.15-.48q.92-.14,1.74-.33c.55-.13,1-.25,1.36-.37s.67-.23.94-.33l.63-.26.2-.1h.06c.08,0,.17.05.26.16a.92.92,0,0,1,.18.29A9.38,9.38,0,0,0,353.61,7Z"/><path class="cls-1" d="M363.81,10.72a5.5,5.5,0,0,1,2.52.42,4.7,4.7,0,0,1,1.8,1.3,6.89,6.89,0,0,1,1,1.7,5.13,5.13,0,0,1,.42,1.72c0,.44,0,.71-.18.83a1.68,1.68,0,0,1-.9.21l-7.1.38c-.14,0-.21.07-.2.19a5.77,5.77,0,0,0,.5,2.06,4.09,4.09,0,0,0,1.41,1.68,3.5,3.5,0,0,0,2.28.62,8,8,0,0,0,.86-.09,4.43,4.43,0,0,0,.76-.19l.61-.23a2.51,2.51,0,0,0,.54-.3l.39-.27.57-.43a.48.48,0,0,1,.16.17.58.58,0,0,1,.11.29.91.91,0,0,1-.15.57,4.85,4.85,0,0,1-1.67,1.7,5.52,5.52,0,0,1-2.9,1,6,6,0,0,1-4.55-1.68A6.41,6.41,0,0,1,358,17.78a6.88,6.88,0,0,1,1.48-5A5.76,5.76,0,0,1,363.81,10.72Zm-.14,1.38a2.11,2.11,0,0,0-1.26.48,2.81,2.81,0,0,0-.81,1.06,5.81,5.81,0,0,0-.37,1.14,3.6,3.6,0,0,0-.09.88c0,.14.07.2.19.2l4.81-.25q.27,0,.24-.46a3.85,3.85,0,0,0-.81-2.07A2.13,2.13,0,0,0,363.68,12.09Z"/><path class="cls-1" d="M376.73,19a10.92,10.92,0,0,0,.38,2.66q.07.21.82.39a4.37,4.37,0,0,0,1,.17c.08,0,.13.14.16.42a1.71,1.71,0,0,1,0,.58l-1.6,0q-1.38,0-2,0t-2.09.2l-1.55.2a.88.88,0,0,1-.15-.56q0-.44.1-.45a4.31,4.31,0,0,0,1.06-.28q.73-.26.78-.47a9.75,9.75,0,0,0,.09-2.18l-.26-4.84a2.83,2.83,0,0,0-.58-1.87,1.66,1.66,0,0,0-.71-.41,3.11,3.11,0,0,0-.72-.14c-.2,0-.3,0-.3-.07,0-.57,0-.87.13-.9a22.68,22.68,0,0,0,2.39-.48,23.2,23.2,0,0,0,2.32-.66l.23-.07c.1,0,.18.06.25.2a.54.54,0,0,1,.08.32,25.52,25.52,0,0,0-.1,2.57ZM373,6.7a1.81,1.81,0,0,1-.6-1.28,1.83,1.83,0,0,1,1.74-1.92,1.78,1.78,0,0,1,1.33.46,1.76,1.76,0,0,1,.6,1.26,1.81,1.81,0,0,1-.46,1.33A1.83,1.83,0,0,1,373,6.7Z"/><path class="cls-1" d="M389.89,9.33a3.21,3.21,0,0,1,2,.48,3.48,3.48,0,0,1,1.27,1.44,7,7,0,0,1,2.09-1.6A6.67,6.67,0,0,1,398,8.9a3.37,3.37,0,0,1,1.85.38,3.28,3.28,0,0,1,1.26,1.26,7,7,0,0,1,.72,1.81,11.39,11.39,0,0,1,.31,2.14l.17,3.12a12.4,12.4,0,0,0,.35,2.66q.07.21.82.39a4.36,4.36,0,0,0,1,.17c.06,0,.1.14.13.42a1.7,1.7,0,0,1,0,.58l-1.56,0q-1.36,0-2,0t-2,.2l-1.58.2a1.12,1.12,0,0,1-.12-.56c0-.3,0-.45.07-.45a4,4,0,0,0,1.06-.28c.47-.17.72-.33.75-.47a9.27,9.27,0,0,0,.1-2.09l-.16-3q-.23-4.3-3-4.16a2.72,2.72,0,0,0-1.61.56,1.86,1.86,0,0,0-.72,1c0,.06,0,.14,0,.24a.58.58,0,0,0,0,.24,14.43,14.43,0,0,1,.19,1.84l.17,3.15a11.62,11.62,0,0,0,.34,2.54q.07.21.82.39a4.39,4.39,0,0,0,1,.17c.06,0,.1.14.13.43a1.68,1.68,0,0,1,0,.58l-1.57,0q-1.35,0-2,0t-2,.2l-1.58.2a1.11,1.11,0,0,1-.12-.56c0-.3,0-.45.07-.45a4,4,0,0,0,1.06-.28c.47-.17.72-.33.75-.47a9.74,9.74,0,0,0,.09-2.18l-.15-2.85a6.31,6.31,0,0,0-.86-3.32,2.27,2.27,0,0,0-2.08-.93,2.84,2.84,0,0,0-1.6.59,1.4,1.4,0,0,0-.68,1.17l.27,5.11a10.92,10.92,0,0,0,.38,2.66c0,.14.31.27.79.39a4.09,4.09,0,0,0,1,.17c.08,0,.13.14.16.42a1.71,1.71,0,0,1,0,.58l-1.57,0q-1.33,0-2,0t-2.07.2l-1.57.2a.87.87,0,0,1-.15-.56q0-.45.1-.45a4.34,4.34,0,0,0,1.06-.28q.73-.26.78-.47a9.81,9.81,0,0,0,.09-2.18l-.26-4.84a2.83,2.83,0,0,0-.58-1.87,1.43,1.43,0,0,0-.69-.41,3.38,3.38,0,0,0-.74-.14q-.3,0-.3-.07,0-.86.13-.9a41.15,41.15,0,0,0,4.7-1.14.2.2,0,0,1,.09,0l.15,0c.1,0,.18.06.25.2a.54.54,0,0,1,.08.32,10.11,10.11,0,0,0-.06,1.08c0,.08,0,.13.07.15a.44.44,0,0,0,.14-.1A6.61,6.61,0,0,1,387.65,10,5.2,5.2,0,0,1,389.89,9.33Z"/><path class="cls-1" d="M411.78,8.17a3.65,3.65,0,0,1,2.81.82,4.75,4.75,0,0,1,1.1,3.26L416,18.1a1.36,1.36,0,0,0,.32.89.89.89,0,0,0,.73.27,1.85,1.85,0,0,0,1-.44c.12,0,.19.14.2.32a1.76,1.76,0,0,1-.13.9,7.36,7.36,0,0,1-1.15.81,3.1,3.1,0,0,1-1.41.46,2.17,2.17,0,0,1-1.36-.43,2.43,2.43,0,0,1-.92-1.05L413,20c-.12.12-.29.26-.51.43a8.82,8.82,0,0,1-.75.52,4.74,4.74,0,0,1-1,.45,4.33,4.33,0,0,1-1.16.23,3.55,3.55,0,0,1-2.46-.69,2.82,2.82,0,0,1-1.05-2.19,2.75,2.75,0,0,1,.27-1.35,3.57,3.57,0,0,1,.76-1.07,6.12,6.12,0,0,1,1.24-.85,12.44,12.44,0,0,1,1.35-.65l1.46-.54,1.24-.45a.47.47,0,0,0,.24-.49l-.09-1.63a2.56,2.56,0,0,0-.56-1.61,1.55,1.55,0,0,0-1.31-.53,1.8,1.8,0,0,0-1.37.62,2.22,2.22,0,0,0-.42,1.58,1,1,0,0,1-.4.9,1.85,1.85,0,0,1-1,.34,1.68,1.68,0,0,1-1.58-.63q-.07-1.43,1.8-2.77A7.46,7.46,0,0,1,411.78,8.17ZM411,19.64a2.3,2.3,0,0,0,1.36-.49,1.18,1.18,0,0,0,.53-1l-.16-3c-.14.07-.42.18-.86.34s-.77.3-1,.41a8.3,8.3,0,0,0-.81.46,1.79,1.79,0,0,0-.66.69,1.64,1.64,0,0,0-.18.84,1.83,1.83,0,0,0,.55,1.37A1.71,1.71,0,0,0,411,19.64Z"/><path class="cls-1" d="M429,7.26q3.83-.2,4.15,5.88l.15,2.82a12.41,12.41,0,0,0,.35,2.66q.07.21.84.39a4.54,4.54,0,0,0,1,.17c.06,0,.1.14.13.42a1.7,1.7,0,0,1,0,.58c-.12,0-.64,0-1.57,0s-1.61,0-2.07,0-1.13.09-2,.19l-1.52.2a.87.87,0,0,1-.15-.56q0-.45.1-.45a3.56,3.56,0,0,0,1-.28c.44-.17.67-.33.7-.47a8.58,8.58,0,0,0,.12-2.18l-.15-2.82a6.46,6.46,0,0,0-.85-3.41,2.39,2.39,0,0,0-2.17-.87,2.74,2.74,0,0,0-1.63.61,1.42,1.42,0,0,0-.65,1.15l.27,5.11a12.42,12.42,0,0,0,.35,2.66q.07.21.81.39a4.29,4.29,0,0,0,1,.17c.08,0,.13.14.16.42a1.71,1.71,0,0,1,0,.58l-1.57,0q-1.33,0-2,0t-2.06.2l-1.58.2a.87.87,0,0,1-.15-.56q0-.45.1-.45a4.13,4.13,0,0,0,1.07-.28c.48-.17.73-.33.76-.47a9.75,9.75,0,0,0,.09-2.18l-.26-4.84a2.84,2.84,0,0,0-.58-1.87,1.44,1.44,0,0,0-.69-.41,3.4,3.4,0,0,0-.72-.14q-.28,0-.29-.07,0-.86.1-.9a42.16,42.16,0,0,0,4.73-1.14l.07,0,.09,0h.07c.08,0,.15.06.22.2a.89.89,0,0,1,.11.32,9.84,9.84,0,0,0-.06,1.08.24.24,0,0,0,0,.15.44.44,0,0,0,.14-.1,6.61,6.61,0,0,1,1.76-1.34A5.19,5.19,0,0,1,429,7.26Z"/><path class="cls-1" d="M442.66,15.46a10.92,10.92,0,0,0,.38,2.66q.07.21.82.39a4.39,4.39,0,0,0,1,.17c.08,0,.13.14.16.42a1.71,1.71,0,0,1,0,.58l-1.6,0q-1.38,0-2,0t-2.09.2l-1.55.2a.88.88,0,0,1-.15-.56q0-.44.1-.45a4.29,4.29,0,0,0,1.06-.28q.73-.26.78-.47a9.75,9.75,0,0,0,.09-2.18l-.26-4.84a2.83,2.83,0,0,0-.58-1.87,1.64,1.64,0,0,0-.71-.41,3.11,3.11,0,0,0-.72-.14c-.2,0-.3,0-.3-.07,0-.57,0-.87.13-.9a22.73,22.73,0,0,0,2.39-.48,23.31,23.31,0,0,0,2.32-.66l.23-.07c.1,0,.18.06.25.19a.54.54,0,0,1,.08.32,25.52,25.52,0,0,0-.1,2.57ZM438.92,3.2a1.81,1.81,0,0,1-.6-1.28,1.76,1.76,0,0,1,.47-1.32A1.84,1.84,0,0,1,442,1.73a1.81,1.81,0,0,1-.46,1.33,1.83,1.83,0,0,1-2.61.14Z"/><path class="cls-1" d="M5.89,68.61a3.65,3.65,0,0,1,2.8.87,4.75,4.75,0,0,1,1,3.28l.21,5.85a1.35,1.35,0,0,0,.3.9.89.89,0,0,0,.72.29,1.85,1.85,0,0,0,1-.42c.12,0,.18.14.19.32a1.77,1.77,0,0,1-.15.9,7.36,7.36,0,0,1-1.16.78,3.11,3.11,0,0,1-1.41.44,2.17,2.17,0,0,1-1.35-.46,2.44,2.44,0,0,1-.9-1.07l-.22.2q-.19.17-.52.42a8.79,8.79,0,0,1-.76.5,4.78,4.78,0,0,1-1,.44,4.35,4.35,0,0,1-1.17.2,3.55,3.55,0,0,1-2.45-.73,2.82,2.82,0,0,1-1-2.21,2.74,2.74,0,0,1,.29-1.35,3.55,3.55,0,0,1,.78-1.05,6.06,6.06,0,0,1,1.25-.83,12.39,12.39,0,0,1,1.36-.63l1.47-.51,1.25-.43a.47.47,0,0,0,.25-.49l-.06-1.63a2.55,2.55,0,0,0-.53-1.62A1.55,1.55,0,0,0,4.81,70a1.8,1.8,0,0,0-1.38.6A2.23,2.23,0,0,0,3,72.19a1,1,0,0,1-.41.89,1.84,1.84,0,0,1-1,.32A1.67,1.67,0,0,1,0,72.74Q0,71.32,1.85,70A7.45,7.45,0,0,1,5.89,68.61ZM5,80.06a2.31,2.31,0,0,0,1.37-.46,1.18,1.18,0,0,0,.55-1l-.11-3c-.14.06-.43.17-.87.33s-.78.28-1,.39a8,8,0,0,0-.82.44,1.8,1.8,0,0,0-.67.68,1.64,1.64,0,0,0-.19.84,1.83,1.83,0,0,0,.53,1.38A1.71,1.71,0,0,0,5,80.06Z"/><path class="cls-1" d="M23.1,68q3.83-.13,4,6l.1,2.82a12.53,12.53,0,0,0,.3,2.67q.07.21.83.4a4.54,4.54,0,0,0,1,.19c.06,0,.1.14.12.43a1.69,1.69,0,0,1,0,.58q-.18,0-1.56-.06t-2.07,0q-.71,0-2,.16l-1.53.17a.86.86,0,0,1-.14-.56c0-.3,0-.45.1-.45a3.52,3.52,0,0,0,1-.26c.44-.16.68-.32.71-.46a8.51,8.51,0,0,0,.16-2.18l-.1-2.82a6.46,6.46,0,0,0-.79-3.42,2.39,2.39,0,0,0-2.16-.91,2.75,2.75,0,0,0-1.65.58A1.43,1.43,0,0,0,18.84,72L19,77.07a12.4,12.4,0,0,0,.3,2.67c0,.14.31.27.8.4a4.26,4.26,0,0,0,1,.19c.08,0,.13.14.15.43a1.67,1.67,0,0,1,0,.58l-1.56-.06q-1.33,0-2,0t-2.06.16L14,81.59a.87.87,0,0,1-.14-.56q0-.45.1-.45A4.2,4.2,0,0,0,15,80.32q.72-.25.77-.46a9.66,9.66,0,0,0,.13-2.18l-.17-4.84A2.83,2.83,0,0,0,15.24,71a1.44,1.44,0,0,0-.68-.42,3.37,3.37,0,0,0-.72-.15c-.19,0-.28,0-.29-.08,0-.57,0-.87.12-.9a42.12,42.12,0,0,0,4.75-1.06l.07,0,.09,0h.07c.08,0,.15.06.21.2a.9.9,0,0,1,.1.32,10.41,10.41,0,0,0-.08,1.07.24.24,0,0,0,0,.15.45.45,0,0,0,.15-.09,6.58,6.58,0,0,1,1.78-1.31A5.21,5.21,0,0,1,23.1,68Z"/><path class="cls-1" d="M37.73,67.43a5.13,5.13,0,0,1,2.18.34q.15,0,.13-.48l-.1-2.79a10.37,10.37,0,0,0-.25-2q-.17-.47-1.56-.42H37.9q-.18,0-.2-.47c0-.32,0-.48.16-.48q.89-.12,1.73-.3c.56-.12,1-.23,1.39-.35s.68-.22.94-.33l.6-.24.24-.08h.06a.32.32,0,0,1,.24.16.54.54,0,0,1,.13.31,11.4,11.4,0,0,0-.2,2.8l.46,13.07a10.82,10.82,0,0,0,.25,2.19.44.44,0,0,0,.31.32,1.83,1.83,0,0,0,.57.13l.57,0h.3a.62.62,0,0,1,.07.35q0,.59-.16.6-.41,0-1,.16l-1.24.24-1.15.25-1.22.3q-.18,0-.2-.5l0-.51a.14.14,0,0,0,0-.12.06.06,0,0,0-.08,0A5,5,0,0,1,37.3,80.8a5.76,5.76,0,0,1-4.25-1.62,6,6,0,0,1-1.94-4.38A7,7,0,0,1,33,69.7,6.51,6.51,0,0,1,37.73,67.43Zm-.22,1.44a2.6,2.6,0,0,0-2.33,1.42,7,7,0,0,0-.68,3.62,7.17,7.17,0,0,0,1.06,3.9,2.92,2.92,0,0,0,2.63,1.32,2.47,2.47,0,0,0,1.62-.58,1.64,1.64,0,0,0,.58-1.34L40.17,71a2.07,2.07,0,0,0-.12-.62,2.8,2.8,0,0,0-.38-.69,1.9,1.9,0,0,0-.82-.6A3.16,3.16,0,0,0,37.51,68.87Z"/><path class="cls-1" d="M59.55,66.72a3.65,3.65,0,0,1,2.8.87,4.75,4.75,0,0,1,1,3.28l.21,5.85a1.35,1.35,0,0,0,.3.9.89.89,0,0,0,.72.29,1.85,1.85,0,0,0,1-.42c.12,0,.18.14.19.32a1.78,1.78,0,0,1-.15.9,7.33,7.33,0,0,1-1.16.78,3.1,3.1,0,0,1-1.41.44,2.17,2.17,0,0,1-1.35-.46,2.44,2.44,0,0,1-.9-1.07l-.22.2q-.19.17-.52.42a8.79,8.79,0,0,1-.76.5,4.81,4.81,0,0,1-1,.44,4.34,4.34,0,0,1-1.17.2,3.55,3.55,0,0,1-2.45-.73,2.82,2.82,0,0,1-1-2.21A2.74,2.74,0,0,1,54,75.87a3.56,3.56,0,0,1,.78-1.05A6.09,6.09,0,0,1,56,74a12.22,12.22,0,0,1,1.36-.63l1.47-.51,1.25-.43a.47.47,0,0,0,.25-.48L60.3,70.3a2.55,2.55,0,0,0-.53-1.62,1.55,1.55,0,0,0-1.3-.55,1.8,1.8,0,0,0-1.38.6,2.22,2.22,0,0,0-.45,1.58,1,1,0,0,1-.42.89,1.85,1.85,0,0,1-1,.32,1.68,1.68,0,0,1-1.57-.66q0-1.43,1.85-2.74A7.46,7.46,0,0,1,59.55,66.72Zm-.94,11.46A2.31,2.31,0,0,0,60,77.71a1.17,1.17,0,0,0,.54-1l-.11-3q-.2.1-.87.33t-1,.39a8.13,8.13,0,0,0-.82.44,1.8,1.8,0,0,0-.68.68,1.65,1.65,0,0,0-.19.84,1.83,1.83,0,0,0,.53,1.38A1.71,1.71,0,0,0,58.61,78.18Z"/><path class="cls-1" d="M76.76,66.12q3.83-.13,4,6l.1,2.82a12.4,12.4,0,0,0,.3,2.67c0,.14.32.27.83.4a4.54,4.54,0,0,0,1,.19c.06,0,.1.14.12.43a1.69,1.69,0,0,1,0,.58q-.18,0-1.56-.06t-2.07,0q-.71,0-2,.16L76,79.41a.86.86,0,0,1-.14-.56c0-.3,0-.45.1-.45a3.52,3.52,0,0,0,1-.26c.44-.16.68-.32.71-.46a8.51,8.51,0,0,0,.16-2.18l-.1-2.82A6.45,6.45,0,0,0,77,69.27a2.39,2.39,0,0,0-2.16-.91,2.75,2.75,0,0,0-1.65.58,1.43,1.43,0,0,0-.67,1.14l.18,5.11a12.48,12.48,0,0,0,.3,2.67q.07.21.8.4a4.24,4.24,0,0,0,1,.19c.08,0,.13.14.15.43a1.69,1.69,0,0,1,0,.58l-1.56-.06q-1.33,0-2,0t-2.06.16l-1.59.17a.87.87,0,0,1-.14-.56c0-.3,0-.45.1-.45a4.19,4.19,0,0,0,1.08-.26q.72-.25.77-.46a9.65,9.65,0,0,0,.13-2.18L69.43,71a2.83,2.83,0,0,0-.54-1.88,1.43,1.43,0,0,0-.68-.42,3.37,3.37,0,0,0-.72-.15c-.19,0-.28,0-.29-.08,0-.57,0-.87.12-.9a42.07,42.07,0,0,0,4.75-1.06l.07,0,.09,0h.07c.08,0,.15.06.21.2a.93.93,0,0,1,.1.32A10.13,10.13,0,0,0,72.54,68c0,.08,0,.13,0,.15a.45.45,0,0,0,.14-.09,6.6,6.6,0,0,1,1.78-1.31A5.21,5.21,0,0,1,76.76,66.12Z"/><path class="cls-1" d="M91.41,65.61a6.55,6.55,0,0,1,4.84,1.78A6.38,6.38,0,0,1,98.39,72a6.73,6.73,0,0,1-13.46.47,6.4,6.4,0,0,1,1.78-4.79A6.51,6.51,0,0,1,91.41,65.61ZM91.08,67A2.39,2.39,0,0,0,89,68.44a6.39,6.39,0,0,0-.66,3.25,8.65,8.65,0,0,0,1.11,4.16,3,3,0,0,0,2.75,1.69,2.42,2.42,0,0,0,2.14-1.44A6.32,6.32,0,0,0,95,72.86,10.2,10.2,0,0,0,94.48,70a5.25,5.25,0,0,0-1.33-2.17A2.76,2.76,0,0,0,91.08,67Z"/><path class="cls-1" d="M101.86,67.32l-1.81.06q-.21,0-.24-.77a.74.74,0,0,1,0-.27,8.32,8.32,0,0,0,2.23-1.65l.82-.91q.44-.51,1-1.3a2.11,2.11,0,0,1,.57.05c.18,0,.27.09.27.15l.1,2.91,2.15-.06,1.47,0c.16,0,.24.08.25.26a2.88,2.88,0,0,1-.25,1.32l-3.56.13.25,7.16a2.82,2.82,0,0,0,.57,1.79,1.7,1.7,0,0,0,1.42.58,2.8,2.8,0,0,0,.62-.1,3.17,3.17,0,0,0,.53-.18l.38-.19.21-.1q.12,0,.28.26a.7.7,0,0,1,.13.38q-.16.42-1.23,1a4.68,4.68,0,0,1-2.1.62,3.75,3.75,0,0,1-2.67-.9,4,4,0,0,1-1.19-3Z"/><path class="cls-1" d="M120.49,64.58q3.8-.13,4,5.72l.11,3.06a11,11,0,0,0,.33,2.67q0,.21.8.4a4.57,4.57,0,0,0,1,.19c.06,0,.1.14.12.43a3.18,3.18,0,0,1,0,.58c-.14,0-.67,0-1.59-.06s-1.6,0-2,0-1.16.07-2,.16l-1.56.17a1.12,1.12,0,0,1-.11-.56c0-.3,0-.45.07-.45a3.55,3.55,0,0,0,1-.26q.66-.25.74-.46a11.19,11.19,0,0,0,.1-2.18l-.1-2.91a6.2,6.2,0,0,0-.79-3.38,2.43,2.43,0,0,0-2.16-.86,2.84,2.84,0,0,0-1.62.56,1.4,1.4,0,0,0-.7,1.15l.18,5.11a11,11,0,0,0,.33,2.67c0,.14.31.27.8.4a4.23,4.23,0,0,0,1,.19c.06,0,.1.14.12.43a1.67,1.67,0,0,1,0,.58L117,77.85q-1.33,0-2,0t-2.06.16l-1.59.17a.87.87,0,0,1-.14-.56c0-.3,0-.45.1-.45a4.11,4.11,0,0,0,1.08-.26q.72-.25.77-.46a9.52,9.52,0,0,0,.13-2.15l-.43-12.36a11.82,11.82,0,0,0-.22-2q-.17-.47-1.56-.42h-.27q-.18,0-.19-.47c0-.32,0-.48.16-.48q.92-.12,1.74-.3t1.37-.35c.36-.11.68-.22.94-.33l.84-.33h.06a.32.32,0,0,1,.24.16.83.83,0,0,1,.16.31,9.58,9.58,0,0,0-.26,2.81l.21,6c0,.12,0,.18.13.17s.06,0,.12-.09a5.66,5.66,0,0,1,1.78-1.36A5.47,5.47,0,0,1,120.49,64.58Z"/><path class="cls-1" d="M134.34,64.1a5.51,5.51,0,0,1,2.52.46,4.72,4.72,0,0,1,1.77,1.34,6.93,6.93,0,0,1,1,1.72,5.12,5.12,0,0,1,.39,1.73c0,.44,0,.71-.19.83a1.69,1.69,0,0,1-.9.2l-7.1.25c-.14,0-.21.07-.2.19a5.78,5.78,0,0,0,.46,2.07,4.08,4.08,0,0,0,1.38,1.71,3.5,3.5,0,0,0,2.27.66,8.14,8.14,0,0,0,.86-.07,4.52,4.52,0,0,0,.77-.18l.62-.22a2.53,2.53,0,0,0,.54-.29l.39-.27.58-.42a.48.48,0,0,1,.16.17.58.58,0,0,1,.1.29.92.92,0,0,1-.16.57,4.84,4.84,0,0,1-1.7,1.67,5.52,5.52,0,0,1-2.91.91,6,6,0,0,1-4.52-1.76,6.42,6.42,0,0,1-2-4.58A6.88,6.88,0,0,1,130,66.12,5.76,5.76,0,0,1,134.34,64.1Zm-.16,1.37a2.11,2.11,0,0,0-1.26.46,2.81,2.81,0,0,0-.83,1,5.67,5.67,0,0,0-.39,1.13,3.65,3.65,0,0,0-.1.88c0,.14.07.21.19.2l4.81-.17q.27,0,.25-.46a3.84,3.84,0,0,0-.77-2.08A2.13,2.13,0,0,0,134.18,65.47Z"/><path class="cls-1" d="M150.21,63.54a3,3,0,0,1,2.47.89q.09,2.53-1.34,2.58a1.76,1.76,0,0,1-1.18-.55,1.86,1.86,0,0,0-1.3-.55,1.59,1.59,0,0,0-1.41,1,4,4,0,0,0-.45,2l.13,3.71a12.53,12.53,0,0,0,.3,2.67c0,.14.31.27.8.4a4.17,4.17,0,0,0,1,.19c.06,0,.1.14.12.43a3.09,3.09,0,0,1,0,.58l-1.58-.06q-1.34,0-2,0t-2.06.16l-1.59.17a.87.87,0,0,1-.14-.56q0-.45.1-.45a4.2,4.2,0,0,0,1.08-.26q.72-.25.77-.46a9.65,9.65,0,0,0,.13-2.18l-.17-4.84a2.82,2.82,0,0,0-.54-1.88,1.44,1.44,0,0,0-.68-.42,3.4,3.4,0,0,0-.72-.15c-.19,0-.28,0-.29-.08,0-.57,0-.87.12-.9a42.12,42.12,0,0,0,4.75-1.06l.24-.07c.08,0,.15.06.21.2a.71.71,0,0,1,.09.34c0,.09,0,.23,0,.42s0,.39-.05.6a3.71,3.71,0,0,0,0,.4,5.45,5.45,0,0,1,1.4-1.49A3.26,3.26,0,0,1,150.21,63.54Z"/><path class="cls-1" d="M167.78,62.86a5.09,5.09,0,0,1,2.18.34q.15,0,.13-.48l-.1-2.79a10.38,10.38,0,0,0-.25-2q-.17-.47-1.56-.42H168q-.18,0-.2-.47t.16-.48q.89-.12,1.73-.3t1.39-.35q.54-.17.94-.33l.6-.24.24-.08h.06a.32.32,0,0,1,.24.16.53.53,0,0,1,.13.31,11.4,11.4,0,0,0-.2,2.8l.46,13.07a11,11,0,0,0,.26,2.19.44.44,0,0,0,.31.32,1.82,1.82,0,0,0,.57.13l.57,0h.3a.63.63,0,0,1,.07.35c0,.4,0,.6-.16.6q-.41,0-1,.16l-1.24.24-1.15.25-1.22.3c-.12,0-.18-.16-.2-.5l0-.51a.14.14,0,0,0,0-.12s-.06,0-.08,0a5,5,0,0,1-3.05,1.21,5.76,5.76,0,0,1-4.25-1.62,6,6,0,0,1-1.94-4.38A7,7,0,0,1,163,65.13,6.51,6.51,0,0,1,167.78,62.86Zm-.22,1.44a2.6,2.6,0,0,0-2.33,1.42,7,7,0,0,0-.68,3.62,7.17,7.17,0,0,0,1.06,3.9,2.92,2.92,0,0,0,2.63,1.32,2.47,2.47,0,0,0,1.62-.58,1.65,1.65,0,0,0,.58-1.34l-.22-6.24a2.05,2.05,0,0,0-.13-.62,2.73,2.73,0,0,0-.38-.69,1.89,1.89,0,0,0-.82-.6A3.15,3.15,0,0,0,167.56,64.3Z"/><path class="cls-1" d="M182.94,62.39a5.52,5.52,0,0,1,2.52.46,4.71,4.71,0,0,1,1.77,1.34,6.92,6.92,0,0,1,1,1.72,5.14,5.14,0,0,1,.39,1.73q0,.65-.19.83a1.7,1.7,0,0,1-.9.2l-7.1.25c-.14,0-.21.07-.2.19a5.78,5.78,0,0,0,.46,2.07,4.09,4.09,0,0,0,1.38,1.71,3.49,3.49,0,0,0,2.27.66,8.16,8.16,0,0,0,.86-.07,4.52,4.52,0,0,0,.77-.18l.62-.22a2.57,2.57,0,0,0,.54-.29l.39-.27.58-.42a.49.49,0,0,1,.16.17.56.56,0,0,1,.1.29.91.91,0,0,1-.16.57,4.84,4.84,0,0,1-1.7,1.67,5.51,5.51,0,0,1-2.91.91,6,6,0,0,1-4.52-1.76,6.41,6.41,0,0,1-2-4.58,6.88,6.88,0,0,1,1.57-4.93A5.76,5.76,0,0,1,182.94,62.39Zm-.16,1.37a2.1,2.1,0,0,0-1.26.46,2.8,2.8,0,0,0-.83,1,5.67,5.67,0,0,0-.39,1.13,3.6,3.6,0,0,0-.1.88c0,.14.07.21.18.2l4.81-.17c.18,0,.26-.16.25-.46a3.85,3.85,0,0,0-.77-2.08A2.13,2.13,0,0,0,182.78,63.76Z"/><path class="cls-1" d="M196.35,61.92a3.65,3.65,0,0,1,2.8.87,4.75,4.75,0,0,1,1,3.28l.21,5.85a1.36,1.36,0,0,0,.3.9.89.89,0,0,0,.72.29,1.85,1.85,0,0,0,1-.42c.12,0,.18.14.19.32a1.78,1.78,0,0,1-.15.9,7.33,7.33,0,0,1-1.16.78,3.1,3.1,0,0,1-1.41.44,2.17,2.17,0,0,1-1.35-.46,2.44,2.44,0,0,1-.9-1.07l-.22.2c-.13.11-.3.25-.52.42a8.79,8.79,0,0,1-.76.5,4.76,4.76,0,0,1-1,.44,4.34,4.34,0,0,1-1.17.2,3.55,3.55,0,0,1-2.45-.73,2.82,2.82,0,0,1-1-2.21,2.75,2.75,0,0,1,.29-1.35,3.56,3.56,0,0,1,.78-1.05,6.1,6.1,0,0,1,1.25-.83,12.47,12.47,0,0,1,1.36-.63l1.47-.51,1.25-.43a.47.47,0,0,0,.25-.49l-.06-1.63a2.55,2.55,0,0,0-.53-1.62,1.55,1.55,0,0,0-1.3-.55,1.81,1.81,0,0,0-1.38.6,2.23,2.23,0,0,0-.45,1.58,1,1,0,0,1-.41.89,1.84,1.84,0,0,1-1,.32,1.68,1.68,0,0,1-1.57-.66q0-1.43,1.85-2.74A7.46,7.46,0,0,1,196.35,61.92Zm-.94,11.46a2.31,2.31,0,0,0,1.37-.46,1.18,1.18,0,0,0,.55-1l-.11-3c-.14.06-.43.17-.87.33s-.78.29-1,.39a7.94,7.94,0,0,0-.82.44,1.79,1.79,0,0,0-.68.68,1.63,1.63,0,0,0-.19.84,1.83,1.83,0,0,0,.52,1.38A1.71,1.71,0,0,0,195.41,73.37Z"/><path class="cls-1" d="M212.55,61.35a3,3,0,0,1,2.47.89q.09,2.53-1.34,2.58a1.77,1.77,0,0,1-1.18-.55,1.86,1.86,0,0,0-1.3-.55,1.59,1.59,0,0,0-1.41,1,4,4,0,0,0-.45,2l.13,3.71a12.47,12.47,0,0,0,.3,2.67c0,.14.31.27.8.4a4.2,4.2,0,0,0,1,.19c.06,0,.1.14.12.43a3.09,3.09,0,0,1,0,.58l-1.58-.06q-1.34,0-2,0t-2.06.16l-1.59.17a.88.88,0,0,1-.14-.56q0-.45.1-.45a4.2,4.2,0,0,0,1.08-.26q.72-.25.77-.46A9.66,9.66,0,0,0,206.4,71l-.17-4.84a2.82,2.82,0,0,0-.54-1.88,1.43,1.43,0,0,0-.68-.42,3.36,3.36,0,0,0-.72-.15c-.19,0-.28,0-.29-.08,0-.57,0-.87.12-.9a42.07,42.07,0,0,0,4.75-1.06l.24-.07c.08,0,.15.06.22.2a.72.72,0,0,1,.09.34c0,.09,0,.23,0,.42s0,.39-.05.6a3.8,3.8,0,0,0,0,.4,5.46,5.46,0,0,1,1.41-1.49A3.25,3.25,0,0,1,212.55,61.35Z"/><path class="cls-1" d="M231.64,53.15a5.84,5.84,0,0,1,2.08.24,2.08,2.08,0,0,1,1.11.72,3.34,3.34,0,0,1-.11,1.65,1.07,1.07,0,0,1-1.06.77,1.16,1.16,0,0,1-.92-.46q-.42-.48-.88-1a1.37,1.37,0,0,0-1.06-.45,1.59,1.59,0,0,0-1.31.82,5,5,0,0,0-.69,1.9,12.07,12.07,0,0,0-.14,2.41l0,1.37s0,0,.06.09a.17.17,0,0,0,.12.06l3.27-.11a.23.23,0,0,1,.15,0,.32.32,0,0,1,0,.18,3.07,3.07,0,0,1-.31,1.38l-3.09.11a.16.16,0,0,0-.17.18L229,69.7a11.34,11.34,0,0,0,.33,2.67q.07.21.8.4a4.18,4.18,0,0,0,1,.19c.06,0,.1.14.12.43a1.72,1.72,0,0,1,0,.58q-.18,0-1.55-.06t-2.08,0q-.71,0-2,.16l-1.54.17a.56.56,0,0,1-.13-.32,1.79,1.79,0,0,1,0-.46q0-.22.11-.23a4,4,0,0,0,1-.26q.71-.25.76-.46A9.82,9.82,0,0,0,226,70l-.24-6.83c0-.14-.07-.21-.19-.2l-1.78.06s-.06-.06-.07-.18a1.59,1.59,0,0,1,.38-.88,1.2,1.2,0,0,1,.93-.57l.48,0a.16.16,0,0,0,.17-.18v-.3a8.08,8.08,0,0,1,1.67-5.41A5.56,5.56,0,0,1,231.64,53.15Z"/><path class="cls-1" d="M242.81,60.29a3,3,0,0,1,2.47.9q.09,2.53-1.34,2.58a1.77,1.77,0,0,1-1.18-.55,1.86,1.86,0,0,0-1.3-.55,1.59,1.59,0,0,0-1.41,1,4,4,0,0,0-.45,2l.13,3.71A12.54,12.54,0,0,0,240,72q.07.21.8.4a4.18,4.18,0,0,0,1,.19c.06,0,.1.14.12.43a3.09,3.09,0,0,1,0,.58l-1.58-.06q-1.34,0-2,0t-2.06.16l-1.59.17a.88.88,0,0,1-.14-.56c0-.3,0-.45.1-.45a4.16,4.16,0,0,0,1.08-.26q.72-.25.77-.46a9.66,9.66,0,0,0,.13-2.18l-.17-4.84a2.83,2.83,0,0,0-.54-1.88,1.43,1.43,0,0,0-.68-.42,3.38,3.38,0,0,0-.72-.15c-.19,0-.28,0-.29-.08,0-.57,0-.87.12-.9a42.11,42.11,0,0,0,4.75-1.06l.24-.07c.08,0,.15.06.21.2a.72.72,0,0,1,.09.34c0,.09,0,.23,0,.42s0,.39-.05.6a3.82,3.82,0,0,0,0,.4A5.48,5.48,0,0,1,241,61,3.26,3.26,0,0,1,242.81,60.29Z"/><path class="cls-1" d="M252.79,68.86a11,11,0,0,0,.33,2.67q.07.21.82.4a4.37,4.37,0,0,0,1,.19c.08,0,.13.14.15.43a1.72,1.72,0,0,1,0,.58l-1.59-.06q-1.38,0-2,0t-2.09.16l-1.55.17a.87.87,0,0,1-.14-.56c0-.3,0-.45.1-.45a4.31,4.31,0,0,0,1.06-.26q.74-.25.79-.46a9.77,9.77,0,0,0,.13-2.18l-.17-4.84a2.83,2.83,0,0,0-.54-1.88,1.64,1.64,0,0,0-.7-.42,3.13,3.13,0,0,0-.72-.15c-.2,0-.3,0-.3-.08q0-.86.15-.9a22.77,22.77,0,0,0,2.39-.44,23.18,23.18,0,0,0,2.33-.62l.24-.07c.1,0,.18.06.24.2a.54.54,0,0,1,.07.32q-.17,1.91-.15,2.56Zm-3.53-12.32a1.81,1.81,0,0,1-.58-1.29,1.83,1.83,0,0,1,1.78-1.89,1.78,1.78,0,0,1,1.33.49,1.76,1.76,0,0,1,.58,1.27,1.81,1.81,0,0,1-.49,1.33,1.83,1.83,0,0,1-2.61.09Z"/><path class="cls-1" d="M262.5,59.6a5.52,5.52,0,0,1,2.52.46,4.71,4.71,0,0,1,1.77,1.34,6.94,6.94,0,0,1,1,1.72,5.12,5.12,0,0,1,.39,1.73q0,.65-.19.82a1.69,1.69,0,0,1-.9.19l-7.1.25c-.14,0-.21.07-.2.19a5.78,5.78,0,0,0,.46,2.07,4.08,4.08,0,0,0,1.38,1.71,3.51,3.51,0,0,0,2.27.66,8.14,8.14,0,0,0,.86-.08,4.41,4.41,0,0,0,.77-.18l.62-.21a2.49,2.49,0,0,0,.54-.29l.39-.27.58-.42a.47.47,0,0,1,.15.17.57.57,0,0,1,.1.29.91.91,0,0,1-.16.57,4.84,4.84,0,0,1-1.7,1.67,5.51,5.51,0,0,1-2.91.91,6,6,0,0,1-4.52-1.76,6.41,6.41,0,0,1-2-4.58,6.88,6.88,0,0,1,1.57-4.93A5.76,5.76,0,0,1,262.5,59.6ZM262.34,61a2.1,2.1,0,0,0-1.26.46,2.8,2.8,0,0,0-.83,1,5.83,5.83,0,0,0-.39,1.13,3.65,3.65,0,0,0-.1.88c0,.14.07.21.19.2l4.81-.17c.18,0,.26-.16.25-.45a3.85,3.85,0,0,0-.77-2.08A2.13,2.13,0,0,0,262.34,61Z"/><path class="cls-1" d="M279.38,59q3.83-.13,4,6l.1,2.82a12.34,12.34,0,0,0,.3,2.67q.07.21.83.4a4.6,4.6,0,0,0,1,.19c.06,0,.1.14.12.43a1.72,1.72,0,0,1,0,.58q-.18,0-1.56-.06t-2.07,0q-.71,0-2,.16l-1.53.17a.87.87,0,0,1-.14-.56c0-.3,0-.45.1-.45a3.55,3.55,0,0,0,1-.26c.44-.16.68-.32.71-.46a8.61,8.61,0,0,0,.16-2.18l-.1-2.82a6.45,6.45,0,0,0-.79-3.42,2.39,2.39,0,0,0-2.16-.91,2.74,2.74,0,0,0-1.64.58,1.43,1.43,0,0,0-.67,1.14l.18,5.11a12.41,12.41,0,0,0,.3,2.67c0,.14.31.27.8.4a4.3,4.3,0,0,0,1,.19c.08,0,.13.14.15.43a1.72,1.72,0,0,1,0,.58l-1.57-.06q-1.32,0-2,0t-2.06.16l-1.58.17a.88.88,0,0,1-.14-.56c0-.3,0-.45.1-.45a4.1,4.1,0,0,0,1.08-.26q.72-.25.77-.46a9.78,9.78,0,0,0,.13-2.18l-.17-4.84a2.84,2.84,0,0,0-.54-1.88,1.43,1.43,0,0,0-.68-.42,3.41,3.41,0,0,0-.72-.15c-.19,0-.28,0-.29-.08q0-.86.12-.9a42,42,0,0,0,4.75-1.06l.07,0,.09,0h.07c.08,0,.15.06.22.2a.89.89,0,0,1,.1.32,9.85,9.85,0,0,0-.08,1.07.24.24,0,0,0,0,.15.45.45,0,0,0,.15-.09,6.61,6.61,0,0,1,1.78-1.31A5.21,5.21,0,0,1,279.38,59Z"/><path class="cls-1" d="M294,58.43a5.11,5.11,0,0,1,2.18.34c.1,0,.14-.16.13-.48l-.1-2.79a10.37,10.37,0,0,0-.25-2q-.17-.47-1.56-.42h-.24c-.12,0-.18-.15-.2-.47s0-.48.16-.48c.59-.08,1.17-.18,1.73-.3s1-.23,1.38-.35.68-.22.94-.33l.6-.24.24-.08h.06a.32.32,0,0,1,.24.16.55.55,0,0,1,.13.31,11.4,11.4,0,0,0-.2,2.8l.46,13.07a10.94,10.94,0,0,0,.26,2.19.44.44,0,0,0,.31.32,1.8,1.8,0,0,0,.57.13l.57,0h.3a.63.63,0,0,1,.07.35c0,.4,0,.6-.16.6q-.41,0-1.05.16l-1.24.24-1.15.25-1.22.3q-.18,0-.2-.5l0-.5a.13.13,0,0,0,0-.12.06.06,0,0,0-.07,0,5,5,0,0,1-3.05,1.21,5.76,5.76,0,0,1-4.25-1.62,6,6,0,0,1-1.94-4.38,7,7,0,0,1,1.86-5.11A6.51,6.51,0,0,1,294,58.43Zm-.22,1.44a2.6,2.6,0,0,0-2.33,1.42,7,7,0,0,0-.67,3.62,7.16,7.16,0,0,0,1.06,3.9,2.92,2.92,0,0,0,2.63,1.32,2.47,2.47,0,0,0,1.62-.58,1.65,1.65,0,0,0,.58-1.34L296.45,62a2.05,2.05,0,0,0-.13-.62,2.77,2.77,0,0,0-.38-.69,1.91,1.91,0,0,0-.82-.6A3.16,3.16,0,0,0,293.79,59.87Z"/><path class="cls-1" d="M305.48,71.71a2.63,2.63,0,0,0-.49-1.22,2.68,2.68,0,0,1-.49-1.28,1.8,1.8,0,0,1,.58-1.27,2.21,2.21,0,0,1,1.61-.68,1.93,1.93,0,0,1,1,.14,4.62,4.62,0,0,1,.49,2.06,5.3,5.3,0,0,1-.19,1.43,8.56,8.56,0,0,1-1.18,2.79,13.29,13.29,0,0,1-2.44,2.51h0q-.15,0-.43-.3a.89.89,0,0,1-.29-.51,4.3,4.3,0,0,1,.49-.49,5.45,5.45,0,0,0,1-1.33A3.55,3.55,0,0,0,305.48,71.71Z"/><path class="cls-1" d="M5.92,149.44a3.65,3.65,0,0,1,2.79.87,4.75,4.75,0,0,1,1,3.28l.19,5.85a1.35,1.35,0,0,0,.3.9.89.89,0,0,0,.72.29,1.85,1.85,0,0,0,1-.42c.12,0,.18.14.19.32a1.78,1.78,0,0,1-.15.9,7.32,7.32,0,0,1-1.16.78,3.1,3.1,0,0,1-1.41.43,2.18,2.18,0,0,1-1.35-.46,2.44,2.44,0,0,1-.9-1.07l-.22.2q-.19.17-.52.42a8.7,8.7,0,0,1-.76.5,4.78,4.78,0,0,1-1,.44,4.35,4.35,0,0,1-1.17.2,3.54,3.54,0,0,1-2.45-.74,2.82,2.82,0,0,1-1-2.21,2.74,2.74,0,0,1,.3-1.35,3.58,3.58,0,0,1,.78-1.05,6.14,6.14,0,0,1,1.25-.83,12.31,12.31,0,0,1,1.36-.63l1.47-.51,1.25-.43a.47.47,0,0,0,.25-.48L6.66,153a2.55,2.55,0,0,0-.53-1.62,1.55,1.55,0,0,0-1.3-.55,1.8,1.8,0,0,0-1.38.6A2.23,2.23,0,0,0,3,153a1,1,0,0,1-.42.89,1.85,1.85,0,0,1-1,.32A1.68,1.68,0,0,1,0,153.56q0-1.43,1.86-2.74A7.46,7.46,0,0,1,5.92,149.44ZM5,160.89a2.31,2.31,0,0,0,1.37-.46,1.18,1.18,0,0,0,.55-1l-.1-3q-.21.1-.87.33c-.44.15-.78.28-1,.39a8.11,8.11,0,0,0-.82.44,1.79,1.79,0,0,0-.68.68,1.64,1.64,0,0,0-.2.84,1.83,1.83,0,0,0,.52,1.38A1.71,1.71,0,0,0,5,160.89Z"/><path class="cls-1" d="M21,148.94a6,6,0,0,1,3.34.83,6.23,6.23,0,0,1,2.31,2.3,6.34,6.34,0,0,1,.86,3,6.79,6.79,0,0,1-1.9,5,6.55,6.55,0,0,1-4.7,2.22,9.32,9.32,0,0,1-2.18-.15,6.51,6.51,0,0,0-1.4-.18,2.26,2.26,0,0,0-.77.23,3,3,0,0,1-.59.23,1.44,1.44,0,0,1-.44-.16c-.23-.11-.35-.21-.35-.29s0-.24,0-.54.06-.73.11-1.28a17.14,17.14,0,0,0,0-1.82L15,146.22a10.31,10.31,0,0,0-.25-2q-.16-.47-1.56-.42h-.27q-.18,0-.19-.47c0-.32,0-.48.16-.48q.92-.12,1.75-.3T16,142.2q.54-.17.94-.33l.84-.33h.06a.32.32,0,0,1,.24.16.83.83,0,0,1,.16.31,10.4,10.4,0,0,0-.23,2.8l.16,4.75v.16a.78.78,0,0,0,0,.13c0,.06,0,.09.06.09l.1,0a5.43,5.43,0,0,1,1.18-.63A4.26,4.26,0,0,1,21,148.94Zm-.6,1.63a2.31,2.31,0,0,0-1.59.62,1.75,1.75,0,0,0-.58,1.36l.21,6.3a1.78,1.78,0,0,0,.84,1.55,3.23,3.23,0,0,0,1.88.47,2.53,2.53,0,0,0,2.29-1.47,6.8,6.8,0,0,0,.67-3.41,7.64,7.64,0,0,0-1.05-4A2.91,2.91,0,0,0,20.39,150.56Z"/><path class="cls-1" d="M36,148.44a6.56,6.56,0,0,1,4.83,1.79A6.37,6.37,0,0,1,43,154.87a6.68,6.68,0,0,1-6.49,6.91,6.51,6.51,0,0,1-4.85-1.8,6.69,6.69,0,0,1-.33-9.45A6.51,6.51,0,0,1,36,148.44Zm-.34,1.41a2.39,2.39,0,0,0-2.12,1.42,6.39,6.39,0,0,0-.67,3.25,8.66,8.66,0,0,0,1.1,4.16,3,3,0,0,0,2.75,1.69,2.42,2.42,0,0,0,2.14-1.44,6.32,6.32,0,0,0,.68-3.24,10.22,10.22,0,0,0-.48-2.85,5.25,5.25,0,0,0-1.32-2.17A2.76,2.76,0,0,0,35.69,149.85Z"/><path class="cls-1" d="M57.78,150.93l.2,5.88a6.58,6.58,0,0,0,.31,2.07.61.61,0,0,0,.35.23,2.32,2.32,0,0,0,.52.1h.49a.55.55,0,0,1,.25,0c.08,0,.12.1.13.26a2.25,2.25,0,0,1,0,.4c0,.19-.09.29-.17.29a6.82,6.82,0,0,0-1.05.14l-1.23.25-1.12.26-1.18.28c-.14,0-.21-.15-.22-.47l0-1.31c0-.1-.05-.15-.09-.15a6.63,6.63,0,0,1-1.77,1.4,5,5,0,0,1-2.33.67,3.12,3.12,0,0,1-1.79-.45,3.6,3.6,0,0,1-1.23-1.27,6.41,6.41,0,0,1-.68-1.7,9.18,9.18,0,0,1-.25-1.87l-.11-3.33a2.82,2.82,0,0,0-.54-1.89,1.65,1.65,0,0,0-.7-.42,3.09,3.09,0,0,0-.72-.15c-.2,0-.3,0-.3-.08,0-.57,0-.87.12-.9a22.63,22.63,0,0,0,2.42-.44,23.48,23.48,0,0,0,2.33-.61l.12,0,.12,0c.1,0,.18.06.23.2a1.1,1.1,0,0,1,.08.32,26.21,26.21,0,0,0-.18,2.62l.12,3.57a6.38,6.38,0,0,0,.76,3.31,2.63,2.63,0,0,0,3.73.31,1.58,1.58,0,0,0,.62-1.14l-.16-4.9a2.82,2.82,0,0,0-.54-1.89,1.43,1.43,0,0,0-.68-.42,3.35,3.35,0,0,0-.73-.15c-.2,0-.3,0-.3-.08q0-.86.15-.9a22.9,22.9,0,0,0,2.4-.44,23.37,23.37,0,0,0,2.33-.61l.24-.07c.1,0,.18.06.25.2a.55.55,0,0,1,.07.33Q57.76,150.39,57.78,150.93Z"/><path class="cls-1" d="M63.27,149.61l-1.81.06q-.21,0-.23-.77a.73.73,0,0,1,0-.27A8.33,8.33,0,0,0,63.48,147l.82-.9q.44-.51,1-1.3a2.08,2.08,0,0,1,.57.06q.27.07.27.15l.1,2.91,2.16-.06,1.47,0c.16,0,.24.08.25.26a2.89,2.89,0,0,1-.25,1.32l-3.57.12.24,7.16a2.83,2.83,0,0,0,.57,1.8,1.7,1.7,0,0,0,1.42.58,2.84,2.84,0,0,0,.62-.09,3.1,3.1,0,0,0,.53-.18l.38-.19.21-.1q.12,0,.28.26c.11.2.15.32.13.38q-.17.42-1.23,1a4.67,4.67,0,0,1-2.11.62,3.75,3.75,0,0,1-2.66-.91,4,4,0,0,1-1.19-3Z"/><path class="cls-1" d="M85.09,146.81a7.17,7.17,0,0,1,2.83.43,4.75,4.75,0,0,1,1.81,1.08,3.67,3.67,0,0,1-.29,1.69,1.1,1.1,0,0,1-1,.7,1.33,1.33,0,0,1-.92-.27,3.4,3.4,0,0,1-.73-1,2.15,2.15,0,0,0-2-1.3,2.29,2.29,0,0,0-2,1.36,6.36,6.36,0,0,0-.65,3.28,6,6,0,0,0,1.23,3.93,3.51,3.51,0,0,0,2.84,1.2,8.17,8.17,0,0,0,.86-.07,4.43,4.43,0,0,0,.77-.17l.62-.21a2.54,2.54,0,0,0,.54-.29l.39-.27.58-.42a.49.49,0,0,1,.15.17.57.57,0,0,1,.1.29.91.91,0,0,1-.16.57,4.84,4.84,0,0,1-1.7,1.66,5.47,5.47,0,0,1-2.89.9,6,6,0,0,1-4.57-1.78,6.56,6.56,0,0,1-2-4.66,6.76,6.76,0,0,1,1.63-4.74A6,6,0,0,1,85.09,146.81Z"/><path class="cls-1" d="M100.63,146.29a3,3,0,0,1,2.47.9q.08,2.53-1.34,2.57a1.77,1.77,0,0,1-1.18-.56,1.86,1.86,0,0,0-1.3-.55,1.59,1.59,0,0,0-1.41,1,4,4,0,0,0-.46,2l.12,3.71a12.42,12.42,0,0,0,.3,2.67q.07.21.8.4a4.16,4.16,0,0,0,1,.19c.06,0,.1.14.12.43a3.15,3.15,0,0,1,0,.58l-1.58-.07q-1.34,0-2,0t-2.06.16l-1.58.17a.87.87,0,0,1-.14-.56c0-.3,0-.45.1-.45a4.14,4.14,0,0,0,1.08-.26q.72-.25.77-.46a9.69,9.69,0,0,0,.14-2.18l-.16-4.84a2.82,2.82,0,0,0-.54-1.89,1.43,1.43,0,0,0-.68-.42,3.39,3.39,0,0,0-.72-.15c-.19,0-.28,0-.29-.08q0-.86.12-.9a42.06,42.06,0,0,0,4.75-1l.24-.07c.08,0,.15.06.22.2a.72.72,0,0,1,.09.34c0,.09,0,.23,0,.42s0,.39-.05.6a3.93,3.93,0,0,0,0,.4A5.47,5.47,0,0,1,98.78,147,3.26,3.26,0,0,1,100.63,146.29Z"/><path class="cls-1" d="M111.1,145.94a5.52,5.52,0,0,1,2.51.47,4.71,4.71,0,0,1,1.77,1.34,6.91,6.91,0,0,1,1,1.72,5.12,5.12,0,0,1,.38,1.73q0,.65-.2.82a1.7,1.7,0,0,1-.9.19l-7.1.24c-.14,0-.21.07-.2.19a5.77,5.77,0,0,0,.46,2.07,4.09,4.09,0,0,0,1.38,1.71,3.5,3.5,0,0,0,2.27.67,8,8,0,0,0,.86-.07,4.43,4.43,0,0,0,.77-.17l.62-.21a2.52,2.52,0,0,0,.54-.29l.39-.27.58-.42a.49.49,0,0,1,.15.17.57.57,0,0,1,.1.29.91.91,0,0,1-.16.57,4.84,4.84,0,0,1-1.7,1.66,5.51,5.51,0,0,1-2.92.9,6,6,0,0,1-4.52-1.77,6.41,6.41,0,0,1-2-4.59,6.88,6.88,0,0,1,1.58-4.93A5.76,5.76,0,0,1,111.1,145.94Zm-.16,1.37a2.1,2.1,0,0,0-1.26.46,2.8,2.8,0,0,0-.83,1,5.61,5.61,0,0,0-.39,1.13,3.61,3.61,0,0,0-.1.88q0,.21.18.2l4.81-.16c.18,0,.26-.16.25-.45a3.85,3.85,0,0,0-.77-2.09A2.13,2.13,0,0,0,110.94,147.31Z"/><path class="cls-1" d="M124.51,145.5a3.65,3.65,0,0,1,2.8.87,4.75,4.75,0,0,1,1,3.28l.19,5.85a1.35,1.35,0,0,0,.3.9.89.89,0,0,0,.72.29,1.85,1.85,0,0,0,1-.42c.12,0,.18.14.19.32a1.78,1.78,0,0,1-.15.9,7.37,7.37,0,0,1-1.17.78,3.1,3.1,0,0,1-1.41.43,2.17,2.17,0,0,1-1.35-.46,2.44,2.44,0,0,1-.9-1.07l-.22.2q-.19.17-.52.42a8.81,8.81,0,0,1-.76.5,4.8,4.8,0,0,1-1,.43,4.34,4.34,0,0,1-1.17.2,3.55,3.55,0,0,1-2.45-.74,2.83,2.83,0,0,1-1-2.21,2.75,2.75,0,0,1,.3-1.35,3.58,3.58,0,0,1,.78-1.05,6.14,6.14,0,0,1,1.25-.83,12.31,12.31,0,0,1,1.36-.63l1.47-.51,1.25-.43a.47.47,0,0,0,.25-.48l-.05-1.63a2.55,2.55,0,0,0-.53-1.62,1.55,1.55,0,0,0-1.3-.55,1.8,1.8,0,0,0-1.38.6,2.22,2.22,0,0,0-.45,1.58,1,1,0,0,1-.42.89,1.85,1.85,0,0,1-1,.32,1.68,1.68,0,0,1-1.57-.66q0-1.43,1.86-2.74A7.46,7.46,0,0,1,124.51,145.5Zm-1,11.45a2.31,2.31,0,0,0,1.37-.46,1.18,1.18,0,0,0,.55-1l-.1-3q-.21.1-.87.33c-.44.15-.78.28-1,.39a8,8,0,0,0-.82.44,1.79,1.79,0,0,0-.68.68,1.64,1.64,0,0,0-.2.84,1.83,1.83,0,0,0,.52,1.38A1.71,1.71,0,0,0,123.55,156.95Z"/><path class="cls-1" d="M133.79,147.27l-1.81.06q-.21,0-.23-.77a.73.73,0,0,1,0-.27,8.31,8.31,0,0,0,2.24-1.65l.82-.9q.44-.51,1-1.3a2.12,2.12,0,0,1,.57.06c.18,0,.27.1.27.15l.1,2.91,2.15-.06,1.47,0c.16,0,.24.08.25.26a2.89,2.89,0,0,1-.25,1.32l-3.57.12.24,7.16a2.82,2.82,0,0,0,.57,1.8,1.7,1.7,0,0,0,1.42.58,2.76,2.76,0,0,0,.62-.1,3.15,3.15,0,0,0,.53-.18l.38-.19.21-.1q.12,0,.28.26t.13.38q-.17.42-1.23,1a4.69,4.69,0,0,1-2.11.62,3.75,3.75,0,0,1-2.66-.91,4,4,0,0,1-1.19-3Z"/><path class="cls-1" d="M148.29,153.63a11,11,0,0,0,.33,2.67q.07.21.82.4a4.38,4.38,0,0,0,1,.19c.08,0,.13.14.15.43a1.69,1.69,0,0,1,0,.58l-1.59-.07q-1.39,0-2,0t-2.09.16l-1.56.17a.87.87,0,0,1-.14-.56c0-.3,0-.45.1-.45a4.31,4.31,0,0,0,1.06-.26q.74-.25.79-.46a9.74,9.74,0,0,0,.14-2.18l-.16-4.84a2.83,2.83,0,0,0-.54-1.89,1.65,1.65,0,0,0-.7-.42,3.09,3.09,0,0,0-.72-.15c-.2,0-.3,0-.3-.08,0-.57,0-.87.15-.9a31.32,31.32,0,0,0,4.72-1l.24-.07c.1,0,.18.06.25.2a.55.55,0,0,1,.07.33,25.32,25.32,0,0,0-.15,2.56Zm-3.5-12.33a1.81,1.81,0,0,1-.58-1.29,1.84,1.84,0,0,1,3.68-.12,1.81,1.81,0,0,1-.49,1.33,1.83,1.83,0,0,1-2.61.09Z"/><path class="cls-1" d="M161.64,144.26q3.83-.13,4,6l.09,2.82a12.48,12.48,0,0,0,.3,2.67c0,.14.32.27.83.4a4.54,4.54,0,0,0,1,.19c.06,0,.1.14.12.43a1.68,1.68,0,0,1,0,.58q-.18,0-1.56-.07t-2.07,0q-.71,0-2,.15l-1.53.17a.87.87,0,0,1-.14-.56c0-.3,0-.45.1-.45a3.54,3.54,0,0,0,1-.26c.44-.16.68-.32.71-.46a8.54,8.54,0,0,0,.17-2.18l-.09-2.82a6.45,6.45,0,0,0-.78-3.42,2.39,2.39,0,0,0-2.16-.91,2.75,2.75,0,0,0-1.65.58,1.43,1.43,0,0,0-.68,1.14l.17,5.11a12.48,12.48,0,0,0,.3,2.67q.07.21.8.4a4.25,4.25,0,0,0,1,.19c.08,0,.13.14.15.43a1.7,1.7,0,0,1,0,.58l-1.56-.07q-1.33,0-2,0t-2.06.16l-1.58.17a.87.87,0,0,1-.14-.56c0-.3,0-.45.1-.45a4.13,4.13,0,0,0,1.08-.26q.72-.25.77-.46a9.69,9.69,0,0,0,.14-2.18l-.16-4.84a2.82,2.82,0,0,0-.54-1.89,1.42,1.42,0,0,0-.68-.42,3.3,3.3,0,0,0-.72-.15c-.19,0-.28,0-.29-.08q0-.86.12-.9A42.15,42.15,0,0,0,157,144.6l.07,0,.09,0h.07c.08,0,.15.06.21.2a.88.88,0,0,1,.1.32,10.34,10.34,0,0,0-.08,1.07.24.24,0,0,0,0,.15.44.44,0,0,0,.15-.09,6.6,6.6,0,0,1,1.79-1.31A5.21,5.21,0,0,1,161.64,144.26Z"/><path class="cls-1" d="M175.26,143.87a9.41,9.41,0,0,1,2.48.3,9.17,9.17,0,0,0,2.39.31l1.69-.06s.11.13.22.38a1.81,1.81,0,0,1,.17.59q0,.42-.16.42l-1.93.06c-.08,0-.12,0-.12.09s.1.27.29.76a4.21,4.21,0,0,1,.31,1.42,4.3,4.3,0,0,1-1.37,3.21,5.1,5.1,0,0,1-3.62,1.53,12.37,12.37,0,0,1-1.85-.06,1.6,1.6,0,0,0-.64.57,1.26,1.26,0,0,0-.27.74.61.61,0,0,0,.3.5,2,2,0,0,0,.89.27q.6.07,1,.09l1.19,0h.45a10.5,10.5,0,0,1,4.38.67,2.34,2.34,0,0,1,1.45,2.14,4.68,4.68,0,0,1-2,3.93,8.13,8.13,0,0,1-5,1.8,7.73,7.73,0,0,1-3.82-.71,2.67,2.67,0,0,1-1.7-2.38,2.31,2.31,0,0,1,.79-1.69,4.92,4.92,0,0,1,1.79-1.19,3.39,3.39,0,0,1-1.46-.86,2.16,2.16,0,0,1-.71-1.54q0-1.28,2.11-2.72a4,4,0,0,1-1.65-1.48,4.38,4.38,0,0,1-.82-2.4,4,4,0,0,1,1.43-3.38A5.92,5.92,0,0,1,175.26,143.87Zm4.62,15.4q0-1-1.55-1.33a18.83,18.83,0,0,0-4-.21l-.15,0-.15.09c-.25.11-.45.2-.59.27a2.6,2.6,0,0,0-.46.34,1.43,1.43,0,0,0-.38.53,1.71,1.71,0,0,0-.11.72,2.08,2.08,0,0,0,1.19,1.75,4.64,4.64,0,0,0,2.55.63,4.49,4.49,0,0,0,2.69-.86A2.32,2.32,0,0,0,179.87,159.27Zm-6.73-11a4.71,4.71,0,0,0,.67,2.43,1.85,1.85,0,0,0,1.7.94,1.76,1.76,0,0,0,1.59-.9,3.94,3.94,0,0,0,.45-2.11,4.88,4.88,0,0,0-.68-2.54,1.9,1.9,0,0,0-1.76-.92,1.68,1.68,0,0,0-1.54,1A4.31,4.31,0,0,0,173.14,148.25Z"/><path class="cls-1" d="M197.25,143a5.11,5.11,0,0,1,2.18.34c.1,0,.14-.16.13-.48l-.09-2.79a10.39,10.39,0,0,0-.25-2q-.16-.47-1.56-.42h-.24q-.18,0-.2-.47c0-.32,0-.48.16-.48q.89-.12,1.73-.3t1.39-.34q.54-.17.94-.33l.6-.24.24-.08h.06a.32.32,0,0,1,.24.16.53.53,0,0,1,.13.31,11.42,11.42,0,0,0-.2,2.8l.43,13.07a10.94,10.94,0,0,0,.25,2.19.44.44,0,0,0,.31.32,1.81,1.81,0,0,0,.57.13l.57,0h.3a.61.61,0,0,1,.07.35q0,.59-.16.6-.42,0-1.05.15l-1.24.23-1.15.25-1.22.29q-.18,0-.19-.5l0-.5a.13.13,0,0,0,0-.12.06.06,0,0,0-.08,0,5,5,0,0,1-3.05,1.2,5.76,5.76,0,0,1-4.25-1.63,6,6,0,0,1-1.93-4.38,7,7,0,0,1,1.87-5.1A6.51,6.51,0,0,1,197.25,143Zm-.22,1.44a2.6,2.6,0,0,0-2.33,1.42,7,7,0,0,0-.68,3.62,7.17,7.17,0,0,0,1.05,3.91,2.92,2.92,0,0,0,2.63,1.33,2.47,2.47,0,0,0,1.62-.57,1.64,1.64,0,0,0,.58-1.34l-.21-6.24a2.06,2.06,0,0,0-.12-.62,2.78,2.78,0,0,0-.38-.69,1.89,1.89,0,0,0-.82-.6A3.16,3.16,0,0,0,197,144.45Z"/><path class="cls-1" d="M212.42,142.57a5.51,5.51,0,0,1,2.51.47,4.71,4.71,0,0,1,1.77,1.34,6.88,6.88,0,0,1,1,1.72,5.14,5.14,0,0,1,.38,1.73q0,.65-.2.82a1.69,1.69,0,0,1-.9.19l-7.1.24c-.14,0-.21.07-.2.19a5.77,5.77,0,0,0,.46,2.07,4.09,4.09,0,0,0,1.38,1.71,3.5,3.5,0,0,0,2.27.67,8,8,0,0,0,.86-.07,4.43,4.43,0,0,0,.77-.17l.62-.21a2.55,2.55,0,0,0,.54-.29l.39-.27.58-.42a.5.5,0,0,1,.16.17.57.57,0,0,1,.1.29.9.9,0,0,1-.16.57A4.83,4.83,0,0,1,216,155a5.51,5.51,0,0,1-2.91.9,6,6,0,0,1-4.52-1.77,6.41,6.41,0,0,1-2-4.59,6.88,6.88,0,0,1,1.58-4.93A5.76,5.76,0,0,1,212.42,142.57Zm-.16,1.37a2.1,2.1,0,0,0-1.26.46,2.8,2.8,0,0,0-.83,1,5.67,5.67,0,0,0-.39,1.13,3.61,3.61,0,0,0-.1.88c0,.14.07.21.19.2l4.81-.16q.27,0,.25-.45a3.85,3.85,0,0,0-.77-2.09A2.13,2.13,0,0,0,212.25,143.95Z"/><path class="cls-1" d="M225.26,142.21a9.41,9.41,0,0,1,2.48.3,9.17,9.17,0,0,0,2.39.31l1.69-.06s.11.13.22.38a1.81,1.81,0,0,1,.17.59c0,.28,0,.42-.16.42l-1.93.06c-.08,0-.12,0-.12.09s.1.27.29.76a4.21,4.21,0,0,1,.31,1.42,4.3,4.3,0,0,1-1.37,3.21,5.09,5.09,0,0,1-3.62,1.53,12.3,12.3,0,0,1-1.85-.06,1.6,1.6,0,0,0-.64.57,1.26,1.26,0,0,0-.27.74.61.61,0,0,0,.3.5,2,2,0,0,0,.89.27q.6.07,1,.08l1.19,0h.45a10.48,10.48,0,0,1,4.38.67,2.34,2.34,0,0,1,1.46,2.14,4.67,4.67,0,0,1-2,3.93,8.12,8.12,0,0,1-5,1.8,7.74,7.74,0,0,1-3.82-.71,2.67,2.67,0,0,1-1.7-2.38,2.31,2.31,0,0,1,.79-1.69,4.91,4.91,0,0,1,1.79-1.19,3.39,3.39,0,0,1-1.46-.86,2.16,2.16,0,0,1-.71-1.54q0-1.28,2.11-2.72a3.93,3.93,0,0,1-1.65-1.48,4.37,4.37,0,0,1-.82-2.4,4,4,0,0,1,1.43-3.38A5.92,5.92,0,0,1,225.26,142.21Zm4.62,15.4q0-1-1.55-1.33a18.92,18.92,0,0,0-4-.21l-.15,0-.15.09q-.38.16-.59.27a2.57,2.57,0,0,0-.46.34,1.43,1.43,0,0,0-.38.53,1.73,1.73,0,0,0-.11.72,2.08,2.08,0,0,0,1.19,1.75,4.63,4.63,0,0,0,2.55.63,4.49,4.49,0,0,0,2.69-.86A2.32,2.32,0,0,0,229.88,157.61Zm-6.73-11a4.71,4.71,0,0,0,.68,2.43,1.85,1.85,0,0,0,1.7.94,1.77,1.77,0,0,0,1.59-.9,3.94,3.94,0,0,0,.45-2.11,4.89,4.89,0,0,0-.68-2.54,1.9,1.9,0,0,0-1.76-.92,1.68,1.68,0,0,0-1.54,1A4.31,4.31,0,0,0,223.15,146.59Z"/><path class="cls-1" d="M242.77,141.56a3,3,0,0,1,2.47.9q.08,2.53-1.34,2.57a1.77,1.77,0,0,1-1.18-.56,1.86,1.86,0,0,0-1.3-.55,1.6,1.6,0,0,0-1.41,1,4,4,0,0,0-.46,2l.12,3.71a12.48,12.48,0,0,0,.3,2.67q.07.21.8.41a4.21,4.21,0,0,0,1,.19c.06,0,.1.14.12.43a3.21,3.21,0,0,1,0,.58l-1.58-.07q-1.34,0-2,0t-2.06.16l-1.59.17a.87.87,0,0,1-.14-.56c0-.3,0-.45.1-.45a4.17,4.17,0,0,0,1.08-.26q.72-.25.77-.46a9.69,9.69,0,0,0,.14-2.18l-.16-4.84a2.82,2.82,0,0,0-.54-1.89,1.43,1.43,0,0,0-.68-.42,3.35,3.35,0,0,0-.72-.15c-.19,0-.28,0-.29-.08,0-.57,0-.87.12-.9a42.23,42.23,0,0,0,4.75-1.05l.24-.07c.08,0,.15.06.21.2a.71.71,0,0,1,.09.34c0,.09,0,.23,0,.42s0,.39-.06.6a3.93,3.93,0,0,0,0,.4,5.49,5.49,0,0,1,1.41-1.49A3.26,3.26,0,0,1,242.77,141.56Z"/><path class="cls-1" d="M253.23,141.22a5.51,5.51,0,0,1,2.51.47,4.7,4.7,0,0,1,1.77,1.34,6.9,6.9,0,0,1,1,1.72,5.11,5.11,0,0,1,.38,1.73c0,.44-.05.71-.2.82a1.69,1.69,0,0,1-.9.19l-7.1.24c-.14,0-.21.07-.2.19A5.76,5.76,0,0,0,251,150a4.07,4.07,0,0,0,1.38,1.71,3.5,3.5,0,0,0,2.27.67,8.17,8.17,0,0,0,.86-.07,4.43,4.43,0,0,0,.77-.17l.62-.21a2.51,2.51,0,0,0,.54-.29l.39-.27.58-.42a.47.47,0,0,1,.15.17.57.57,0,0,1,.1.29.91.91,0,0,1-.16.57,4.83,4.83,0,0,1-1.7,1.66,5.52,5.52,0,0,1-2.92.9,6,6,0,0,1-4.52-1.77,6.41,6.41,0,0,1-2-4.59,6.88,6.88,0,0,1,1.58-4.93A5.76,5.76,0,0,1,253.23,141.22Zm-.16,1.37a2.1,2.1,0,0,0-1.26.46,2.8,2.8,0,0,0-.83,1,5.77,5.77,0,0,0-.39,1.13,3.71,3.71,0,0,0-.1.88q0,.21.18.2l4.81-.16c.18,0,.26-.16.25-.46a3.85,3.85,0,0,0-.77-2.09A2.13,2.13,0,0,0,253.07,142.59Z"/><path class="cls-1" d="M266.49,140.78a5.51,5.51,0,0,1,2.51.47,4.7,4.7,0,0,1,1.77,1.34,6.82,6.82,0,0,1,1,1.72,5.11,5.11,0,0,1,.38,1.73c0,.44-.05.71-.2.83a1.69,1.69,0,0,1-.9.19l-7.1.24q-.21,0-.2.19a5.77,5.77,0,0,0,.46,2.07,4.08,4.08,0,0,0,1.38,1.71,3.5,3.5,0,0,0,2.27.67,8,8,0,0,0,.86-.07,4.51,4.51,0,0,0,.77-.17l.62-.21a2.57,2.57,0,0,0,.54-.29l.39-.27.58-.42a.47.47,0,0,1,.15.17.58.58,0,0,1,.1.29.9.9,0,0,1-.16.57,4.84,4.84,0,0,1-1.7,1.66,5.52,5.52,0,0,1-2.92.9,6,6,0,0,1-4.52-1.77,6.41,6.41,0,0,1-2-4.59,6.88,6.88,0,0,1,1.58-4.93A5.76,5.76,0,0,1,266.49,140.78Zm-.16,1.37a2.1,2.1,0,0,0-1.27.46,2.79,2.79,0,0,0-.83,1,5.75,5.75,0,0,0-.39,1.13,3.66,3.66,0,0,0-.1.88c0,.14.07.21.19.2l4.81-.16c.18,0,.26-.16.25-.45a3.86,3.86,0,0,0-.77-2.09A2.13,2.13,0,0,0,266.33,142.15Z"/><path class="cls-1" d="M278.5,140.35a12.65,12.65,0,0,1,3.46.39,16.83,16.83,0,0,1,.44,3.32c0,.16-.12.24-.38.25-.44,0-.68-.06-.72-.21a3.61,3.61,0,0,0-.94-1.74,2.32,2.32,0,0,0-1.82-.67,2.14,2.14,0,0,0-1.34.43,1.32,1.32,0,0,0-.45,1.12,1.73,1.73,0,0,0,.19.75,1.84,1.84,0,0,0,.56.62,7.49,7.49,0,0,0,.67.45c.19.11.48.26.86.45a1.93,1.93,0,0,0,.3.14l.45.22.5.25.48.27a5.58,5.58,0,0,1,.53.32l.47.34a2.33,2.33,0,0,1,.46.4l.37.45a1.92,1.92,0,0,1,.33.52,5.55,5.55,0,0,1,.18.56,2.76,2.76,0,0,1,.1.64,3.51,3.51,0,0,1-1.34,3,5.64,5.64,0,0,1-3.46,1.2,9.93,9.93,0,0,1-3.86-.7,11.93,11.93,0,0,1-.35-1.64,14.54,14.54,0,0,1-.21-1.7.63.63,0,0,1,.41-.16q.68,0,.72.21a3.28,3.28,0,0,0,1.24,2,3.17,3.17,0,0,0,2.06.69,2.16,2.16,0,0,0,1.35-.46,1.45,1.45,0,0,0,.49-1.24,2,2,0,0,0-.09-.55,1.46,1.46,0,0,0-.3-.5l-.36-.4A2.13,2.13,0,0,0,279,149l-.6-.32-.76-.36-.77-.38a6.91,6.91,0,0,1-2.16-1.52,3.43,3.43,0,0,1,.52-4.94A5.74,5.74,0,0,1,278.5,140.35Z"/><path class="cls-1" d="M298.07,139.73a6.55,6.55,0,0,1,4.83,1.79,6.37,6.37,0,0,1,2.13,4.64,6.73,6.73,0,0,1-13.46.45,6.4,6.4,0,0,1,1.79-4.79A6.52,6.52,0,0,1,298.07,139.73Zm-.34,1.41a2.39,2.39,0,0,0-2.12,1.42,6.39,6.39,0,0,0-.67,3.25A8.67,8.67,0,0,0,296,150a3,3,0,0,0,2.75,1.69,2.42,2.42,0,0,0,2.14-1.44,6.31,6.31,0,0,0,.68-3.23,10.18,10.18,0,0,0-.48-2.85,5.25,5.25,0,0,0-1.32-2.17A2.76,2.76,0,0,0,297.73,141.13Z"/><path class="cls-1" d="M314.94,131.64a5.88,5.88,0,0,1,2.08.24,2.08,2.08,0,0,1,1.11.72,3.33,3.33,0,0,1-.11,1.65A1.07,1.07,0,0,1,317,135a1.16,1.16,0,0,1-.92-.46q-.42-.48-.88-1a1.37,1.37,0,0,0-1.06-.46,1.58,1.58,0,0,0-1.31.82,5,5,0,0,0-.69,1.9,12.05,12.05,0,0,0-.14,2.41l0,1.37s0,0,.06.09a.17.17,0,0,0,.12.06l3.27-.11a.24.24,0,0,1,.15,0s0,.08,0,.18a3.06,3.06,0,0,1-.31,1.38l-3.09.1a.16.16,0,0,0-.17.18l.22,6.63a11.3,11.3,0,0,0,.33,2.67q.06.21.8.4a4.18,4.18,0,0,0,1,.19c.06,0,.1.14.12.43a1.67,1.67,0,0,1,0,.58c-.12,0-.64,0-1.55-.07s-1.61,0-2.08,0-1.15.07-2,.16l-1.54.17a.57.57,0,0,1-.13-.32,1.88,1.88,0,0,1,0-.46c0-.15.05-.23.11-.23a4,4,0,0,0,1-.26c.47-.17.72-.32.76-.46a9.94,9.94,0,0,0,.19-2.45l-.23-6.83c0-.14-.07-.21-.19-.2l-1.78.06s-.06-.06-.06-.18a1.59,1.59,0,0,1,.39-.88,1.19,1.19,0,0,1,.93-.57l.47,0a.16.16,0,0,0,.17-.18v-.3a8.09,8.09,0,0,1,1.68-5.41A5.56,5.56,0,0,1,314.94,131.64Z"/><path class="cls-1" d="M332.13,131.07a5.88,5.88,0,0,1,2.08.24,2.08,2.08,0,0,1,1.11.72,3.33,3.33,0,0,1-.11,1.65,1.06,1.06,0,0,1-1.06.76,1.16,1.16,0,0,1-.92-.46q-.42-.48-.88-1a1.37,1.37,0,0,0-1.06-.46,1.58,1.58,0,0,0-1.31.82,5,5,0,0,0-.69,1.9,12,12,0,0,0-.14,2.41l0,1.37s0,0,.06.09a.17.17,0,0,0,.12.06l3.27-.11a.23.23,0,0,1,.15,0s0,.08,0,.18a3.06,3.06,0,0,1-.31,1.38l-3.09.1a.16.16,0,0,0-.17.18l.22,6.63a11.3,11.3,0,0,0,.33,2.67c0,.14.31.27.8.4a4.2,4.2,0,0,0,1,.19c.06,0,.1.14.12.43a1.67,1.67,0,0,1,0,.58c-.12,0-.64,0-1.55-.07s-1.61,0-2.08,0-1.15.07-2,.16l-1.54.17a.56.56,0,0,1-.13-.32,1.88,1.88,0,0,1,0-.46c0-.15.05-.22.11-.23a4,4,0,0,0,1-.26c.47-.16.72-.32.76-.46a9.89,9.89,0,0,0,.19-2.45l-.23-6.83c0-.14-.07-.21-.19-.2l-1.78.06s-.06-.06-.07-.18a1.59,1.59,0,0,1,.39-.88,1.19,1.19,0,0,1,.93-.57l.48,0a.16.16,0,0,0,.17-.18v-.3a8.08,8.08,0,0,1,1.68-5.41A5.56,5.56,0,0,1,332.13,131.07Z"/><path class="cls-1" d="M343.29,138.22a3,3,0,0,1,2.47.9q.08,2.53-1.34,2.57a1.77,1.77,0,0,1-1.18-.56,1.86,1.86,0,0,0-1.3-.55,1.59,1.59,0,0,0-1.41,1,4,4,0,0,0-.46,2l.12,3.71a12.41,12.41,0,0,0,.3,2.67q.07.21.8.41a4.21,4.21,0,0,0,1,.19c.06,0,.1.14.12.43a3.12,3.12,0,0,1,0,.58l-1.58-.07q-1.34,0-2,0t-2.06.16l-1.59.17a.88.88,0,0,1-.14-.56c0-.3,0-.45.1-.45a4.16,4.16,0,0,0,1.08-.26q.72-.25.77-.46a9.75,9.75,0,0,0,.14-2.18L337,143a2.83,2.83,0,0,0-.54-1.89,1.44,1.44,0,0,0-.68-.42,3.34,3.34,0,0,0-.72-.15c-.19,0-.28,0-.29-.08q0-.86.12-.9a42.13,42.13,0,0,0,4.75-1.05l.24-.07c.08,0,.15.06.21.2a.71.71,0,0,1,.09.34l0,.42c0,.19,0,.39-.05.6a3.66,3.66,0,0,0,0,.4,5.45,5.45,0,0,1,1.41-1.49A3.26,3.26,0,0,1,343.29,138.22Z"/><path class="cls-1" d="M353.75,137.87a5.51,5.51,0,0,1,2.51.47,4.71,4.71,0,0,1,1.77,1.34,6.9,6.9,0,0,1,1,1.72,5.11,5.11,0,0,1,.38,1.73c0,.44-.05.71-.2.82a1.68,1.68,0,0,1-.9.19l-7.1.24c-.14,0-.21.07-.2.19a5.78,5.78,0,0,0,.46,2.07,4.07,4.07,0,0,0,1.38,1.71,3.5,3.5,0,0,0,2.27.67,8.3,8.3,0,0,0,.86-.07,4.46,4.46,0,0,0,.77-.17l.62-.21a2.51,2.51,0,0,0,.54-.29l.39-.27.58-.42a.47.47,0,0,1,.15.17.57.57,0,0,1,.1.29.91.91,0,0,1-.16.57,4.83,4.83,0,0,1-1.7,1.66,5.52,5.52,0,0,1-2.92.9,6,6,0,0,1-4.52-1.77,6.41,6.41,0,0,1-2-4.59,6.88,6.88,0,0,1,1.58-4.93A5.76,5.76,0,0,1,353.75,137.87Zm-.16,1.37a2.1,2.1,0,0,0-1.26.46,2.8,2.8,0,0,0-.83,1,5.77,5.77,0,0,0-.39,1.13,3.67,3.67,0,0,0-.1.88c0,.14.07.21.19.2l4.81-.16c.18,0,.26-.16.25-.46a3.85,3.85,0,0,0-.77-2.09A2.12,2.12,0,0,0,353.59,139.25Z"/><path class="cls-1" d="M367,137.43a5.51,5.51,0,0,1,2.51.47,4.7,4.7,0,0,1,1.77,1.34,6.86,6.86,0,0,1,1,1.72,5.13,5.13,0,0,1,.38,1.73c0,.44-.05.71-.19.83a1.69,1.69,0,0,1-.9.19l-7.1.24q-.21,0-.2.19a5.77,5.77,0,0,0,.46,2.07,4.08,4.08,0,0,0,1.38,1.71,3.5,3.5,0,0,0,2.27.67,8,8,0,0,0,.86-.07,4.51,4.51,0,0,0,.77-.17l.62-.21a2.55,2.55,0,0,0,.54-.29l.39-.27.58-.42a.47.47,0,0,1,.15.17.58.58,0,0,1,.1.29.9.9,0,0,1-.16.57,4.84,4.84,0,0,1-1.7,1.66,5.52,5.52,0,0,1-2.92.9,6,6,0,0,1-4.52-1.77,6.41,6.41,0,0,1-2-4.59,6.88,6.88,0,0,1,1.58-4.93A5.76,5.76,0,0,1,367,137.43Zm-.16,1.37a2.1,2.1,0,0,0-1.27.46,2.8,2.8,0,0,0-.83,1,5.75,5.75,0,0,0-.39,1.13,3.66,3.66,0,0,0-.1.88c0,.14.07.21.19.2l4.81-.16c.18,0,.26-.16.25-.45a3.86,3.86,0,0,0-.77-2.09A2.13,2.13,0,0,0,366.85,138.81Z"/><path class="cls-1" d="M380.86,136.91a5.12,5.12,0,0,1,2.18.34c.1,0,.14-.16.13-.48l-.09-2.79a10.31,10.31,0,0,0-.25-2q-.16-.47-1.56-.42H381q-.18,0-.19-.47t.16-.48q.89-.12,1.73-.3c.56-.12,1-.23,1.39-.34s.68-.22.94-.33l.6-.24.23-.08H386a.32.32,0,0,1,.24.16.54.54,0,0,1,.13.31,11.43,11.43,0,0,0-.2,2.8l.43,13.07a10.93,10.93,0,0,0,.25,2.19.44.44,0,0,0,.31.32,1.83,1.83,0,0,0,.57.13l.57,0h.3a.62.62,0,0,1,.07.35q0,.59-.16.6-.41,0-1.05.15l-1.24.23-1.15.25-1.23.29c-.12,0-.18-.16-.2-.5l0-.51a.13.13,0,0,0,0-.12s-.06,0-.07,0a5,5,0,0,1-3.05,1.2,5.76,5.76,0,0,1-4.25-1.63,6,6,0,0,1-1.93-4.38,7,7,0,0,1,1.87-5.1A6.51,6.51,0,0,1,380.86,136.91Zm-.22,1.44a2.6,2.6,0,0,0-2.33,1.42,7,7,0,0,0-.68,3.62,7.17,7.17,0,0,0,1.05,3.91,2.92,2.92,0,0,0,2.63,1.33,2.47,2.47,0,0,0,1.62-.57,1.65,1.65,0,0,0,.58-1.34l-.21-6.24a2.06,2.06,0,0,0-.13-.62,2.75,2.75,0,0,0-.38-.69,1.91,1.91,0,0,0-.82-.6A3.15,3.15,0,0,0,380.64,138.35Z"/><path class="cls-1" d="M396.65,136.45a6.55,6.55,0,0,1,4.83,1.79,6.37,6.37,0,0,1,2.13,4.64,6.73,6.73,0,0,1-13.46.45,6.4,6.4,0,0,1,1.79-4.79A6.52,6.52,0,0,1,396.65,136.45Zm-.34,1.41a2.39,2.39,0,0,0-2.12,1.42,6.4,6.4,0,0,0-.67,3.25,8.67,8.67,0,0,0,1.11,4.16,3,3,0,0,0,2.75,1.69,2.42,2.42,0,0,0,2.14-1.44,6.31,6.31,0,0,0,.68-3.23,10.18,10.18,0,0,0-.48-2.85,5.24,5.24,0,0,0-1.32-2.17A2.76,2.76,0,0,0,396.31,137.86Z"/><path class="cls-1" d="M415,135.84a3.21,3.21,0,0,1,2,.52,3.47,3.47,0,0,1,1.24,1.46,7,7,0,0,1,2.12-1.56,6.69,6.69,0,0,1,2.77-.69,3.38,3.38,0,0,1,1.84.42,3.28,3.28,0,0,1,1.23,1.28,7,7,0,0,1,.69,1.82,11.25,11.25,0,0,1,.26,2.15l.1,3.12a12.42,12.42,0,0,0,.3,2.67q.06.21.82.4a4.36,4.36,0,0,0,1,.19c.06,0,.1.14.12.43a1.7,1.7,0,0,1,0,.58l-1.56-.07q-1.35,0-2,0t-2,.16l-1.59.17a1.13,1.13,0,0,1-.11-.56c0-.3,0-.45.07-.45a4,4,0,0,0,1.06-.26q.71-.25.76-.46a9.34,9.34,0,0,0,.14-2.09l-.1-3q-.14-4.31-2.91-4.22a2.71,2.71,0,0,0-1.62.53,1.85,1.85,0,0,0-.74.95c0,.06,0,.14,0,.24a.57.57,0,0,0,0,.24,14.5,14.5,0,0,1,.15,1.84l.11,3.15a11.66,11.66,0,0,0,.29,2.55q.07.21.82.4a4.36,4.36,0,0,0,1,.19c.06,0,.1.14.12.43a1.68,1.68,0,0,1,0,.58l-1.56-.07q-1.36,0-2,0t-2,.16l-1.58.17a1.11,1.11,0,0,1-.11-.56c0-.3,0-.45.08-.45a4,4,0,0,0,1.06-.26c.47-.16.72-.32.76-.46a9.74,9.74,0,0,0,.14-2.18l-.09-2.85a6.3,6.3,0,0,0-.8-3.33,2.26,2.26,0,0,0-2.05-1,2.85,2.85,0,0,0-1.62.56,1.4,1.4,0,0,0-.7,1.15l.17,5.11a10.93,10.93,0,0,0,.33,2.67q.07.21.79.41a4,4,0,0,0,1,.19c.08,0,.13.14.15.43a1.71,1.71,0,0,1,0,.58l-1.56-.07q-1.33,0-2,0t-2.08.16l-1.57.17a.88.88,0,0,1-.14-.56c0-.3,0-.45.1-.45a4.27,4.27,0,0,0,1.06-.26q.74-.25.79-.46a9.74,9.74,0,0,0,.14-2.18l-.16-4.84a2.83,2.83,0,0,0-.54-1.89,1.44,1.44,0,0,0-.68-.42,3.32,3.32,0,0,0-.73-.15c-.2,0-.3,0-.3-.08q0-.86.15-.9a41.16,41.16,0,0,0,4.72-1l.09,0,.15,0c.1,0,.18.06.24.2a.54.54,0,0,1,.07.33,10,10,0,0,0-.08,1.07c0,.08,0,.13.06.15a.46.46,0,0,0,.15-.09,6.59,6.59,0,0,1,1.79-1.31A5.21,5.21,0,0,1,415,135.84Z"/><path class="cls-1" d="M45.23,119a.86.86,0,0,0-.3-.58,1.3,1.3,0,0,0-.64-.29,5.43,5.43,0,0,0-.7-.08,4.33,4.33,0,0,0-.61,0h-.12c-.08,0-.14-.13-.18-.43s0-.48,0-.54q.38,0,1.58-.07t1.9-.11q.62-.06,1.57-.25t1.4-.23a1.86,1.86,0,0,1,.11.5c0,.3,0,.45-.07.46a3.39,3.39,0,0,0-1.13.49,1.82,1.82,0,0,0-.93,1l-3.29,10.89a1.17,1.17,0,0,1-.35.47,1,1,0,0,1-.56.25.37.37,0,0,1-.41-.17l-4.46-7.79-2.36,8a1.65,1.65,0,0,1-.3.45.9.9,0,0,1-.61.3.44.44,0,0,1-.44-.16q-.84-1.47-2-3.57t-2.1-3.71q-.94-1.6-2.16-3.48a1.36,1.36,0,0,0-.83-.51,2.88,2.88,0,0,0-1-.11c-.08,0-.14-.14-.17-.46s0-.45.07-.52.7,0,1.5-.07,1.43-.06,1.89-.11,1.12-.15,2-.3l1.53-.25a1.64,1.64,0,0,1,.11.53c0,.26,0,.4,0,.42a3.52,3.52,0,0,0-1,.31q-.61.27-.57.69s1.23,2.2,3.67,6.49q.24-.86.56-2l.48-1.66.33-1.16q.16-.58.22-.87a1.64,1.64,0,0,0,0-.38,2.17,2.17,0,0,0-.51-1.14,1.41,1.41,0,0,0-.7-.41,2.37,2.37,0,0,0-1.08-.07q-.12,0-.16-.42c0-.29,0-.46.06-.53s.71,0,1.47-.06,1.38-.05,1.86-.1,1.07-.14,1.91-.29l1.5-.25a1.42,1.42,0,0,1,.1.54c0,.29,0,.43-.06.44q-1.51.16-1.4,1.19a47.69,47.69,0,0,0,3.46,6.28q.34-1.29.86-3t.76-2.59A4,4,0,0,0,45.23,119Z"/><path class="cls-1" d="M60.53,115.13q3.78-.39,4.39,5.43l.32,3a11,11,0,0,0,.51,2.64q.05.2.83.35a4.59,4.59,0,0,0,1,.12c.06,0,.11.13.15.42a3.09,3.09,0,0,1,0,.58l-1.59,0q-1.39.05-2,.12t-2,.3l-1.54.28a1.11,1.11,0,0,1-.15-.55q0-.44,0-.45a3.57,3.57,0,0,0,1-.33c.43-.19.66-.36.71-.51a11.29,11.29,0,0,0,0-2.18l-.3-2.9a6.2,6.2,0,0,0-1-3.32,2.43,2.43,0,0,0-2.21-.71,2.84,2.84,0,0,0-1.57.67,1.4,1.4,0,0,0-.62,1.2l.53,5.09a11,11,0,0,0,.51,2.64q.08.2.83.35a4.21,4.21,0,0,0,1,.12c.06,0,.11.13.15.42a1.69,1.69,0,0,1,0,.58l-1.56,0q-1.33,0-2,.12t-2,.3l-1.57.28a.88.88,0,0,1-.18-.55q0-.44.07-.46A4.17,4.17,0,0,0,53.3,128c.47-.2.71-.37.74-.51a9.57,9.57,0,0,0,0-2.15L52.75,113a11.7,11.7,0,0,0-.36-2q-.2-.46-1.59-.31l-.27,0c-.12,0-.19-.14-.23-.45s0-.48.13-.49c.6-.12,1.18-.26,1.72-.42s1-.3,1.34-.44.66-.27.92-.39l.81-.38h.06a.32.32,0,0,1,.25.14.82.82,0,0,1,.18.3,9.57,9.57,0,0,0-.07,2.82l.62,6q0,.18.14.17s.06,0,.11-.1A5.64,5.64,0,0,1,58.21,116,5.47,5.47,0,0,1,60.53,115.13Z"/><path class="cls-1" d="M74.94,113.63a6.56,6.56,0,0,1,4.95,1.44,6.37,6.37,0,0,1,2.45,4.48,6.73,6.73,0,0,1-13.4,1.39,6.4,6.4,0,0,1,1.45-4.9A6.51,6.51,0,0,1,74.94,113.63Zm-.24,1.43a2.39,2.39,0,0,0-2,1.57,6.39,6.39,0,0,0-.44,3.29A8.67,8.67,0,0,0,73.64,124a3,3,0,0,0,2.86,1.5,2.42,2.42,0,0,0,2-1.59,6.32,6.32,0,0,0,.45-3.27,10.2,10.2,0,0,0-.68-2.81,5.24,5.24,0,0,0-1.47-2.07A2.75,2.75,0,0,0,74.7,115.06Z"/><path class="cls-1" d="M108.81,112.38a.86.86,0,0,0-.3-.58,1.3,1.3,0,0,0-.64-.29,5.42,5.42,0,0,0-.7-.08,4.34,4.34,0,0,0-.61,0h-.12q-.12,0-.18-.43c0-.29,0-.47,0-.54q.39,0,1.58-.07t1.9-.11q.62-.06,1.57-.25t1.4-.23a1.86,1.86,0,0,1,.11.5c0,.3,0,.45-.07.46a3.39,3.39,0,0,0-1.13.49,1.82,1.82,0,0,0-.93,1l-3.29,10.89a1.17,1.17,0,0,1-.35.47,1,1,0,0,1-.56.25.38.38,0,0,1-.41-.17l-4.46-7.79-2.36,8a1.63,1.63,0,0,1-.3.45.9.9,0,0,1-.61.3.44.44,0,0,1-.44-.16q-.84-1.47-2-3.57t-2.1-3.71q-.94-1.6-2.16-3.48a1.36,1.36,0,0,0-.83-.51,2.86,2.86,0,0,0-1-.11q-.12,0-.17-.46t.07-.51q.3,0,1.5-.07t1.89-.11q.68-.07,2-.3l1.53-.25a1.63,1.63,0,0,1,.12.53c0,.26,0,.4,0,.42a3.52,3.52,0,0,0-1,.31q-.61.27-.57.69s1.23,2.2,3.66,6.49q.24-.86.56-2l.48-1.67.33-1.16q.16-.58.22-.87a1.61,1.61,0,0,0,0-.38,2.17,2.17,0,0,0-.51-1.14,1.41,1.41,0,0,0-.7-.41,2.37,2.37,0,0,0-1.08-.07c-.08,0-.13-.13-.16-.42s0-.46.06-.53.71,0,1.47-.06,1.38-.05,1.86-.1,1.07-.14,1.91-.29l1.5-.25a1.44,1.44,0,0,1,.1.54q0,.43-.06.44-1.51.16-1.4,1.19a47.73,47.73,0,0,0,3.46,6.28q.34-1.29.86-3t.76-2.59A4,4,0,0,0,108.81,112.38Z"/><path class="cls-1" d="M120.65,108.87a3.65,3.65,0,0,1,2.85.68,4.75,4.75,0,0,1,1.26,3.2l.61,5.83a1.36,1.36,0,0,0,.36.87.89.89,0,0,0,.74.24,1.85,1.85,0,0,0,1-.49c.12,0,.19.13.21.31a1.77,1.77,0,0,1-.08.91,7.38,7.38,0,0,1-1.11.86,3.1,3.1,0,0,1-1.38.53,2.17,2.17,0,0,1-1.38-.36,2.44,2.44,0,0,1-1-1l-.2.21q-.18.18-.49.45a8.45,8.45,0,0,1-.72.55,4.71,4.71,0,0,1-1,.5,4.31,4.31,0,0,1-1.15.28,3.55,3.55,0,0,1-2.49-.56,2.82,2.82,0,0,1-1.16-2.14,2.74,2.74,0,0,1,.2-1.37,3.56,3.56,0,0,1,.71-1.1,6.13,6.13,0,0,1,1.19-.92,12.23,12.23,0,0,1,1.32-.72l1.43-.61,1.22-.52a.47.47,0,0,0,.22-.5l-.17-1.63a2.55,2.55,0,0,0-.64-1.58,1.55,1.55,0,0,0-1.33-.46,1.81,1.81,0,0,0-1.33.69,2.23,2.23,0,0,0-.34,1.6,1,1,0,0,1-.35.92,1.85,1.85,0,0,1-1,.39,1.68,1.68,0,0,1-1.61-.55q-.15-1.42,1.66-2.86A7.46,7.46,0,0,1,120.65,108.87Zm-.15,11.49a2.31,2.31,0,0,0,1.33-.56,1.18,1.18,0,0,0,.48-1l-.31-3q-.2.11-.84.39c-.43.18-.76.34-1,.46a8,8,0,0,0-.79.5,1.79,1.79,0,0,0-.63.72,1.64,1.64,0,0,0-.14.85,1.83,1.83,0,0,0,.62,1.34A1.71,1.71,0,0,0,120.5,120.37Z"/><path class="cls-1" d="M137.77,107.09q3.81-.4,4.44,5.67l.29,2.81a12.44,12.44,0,0,0,.48,2.64q.08.2.86.34a4.56,4.56,0,0,0,1,.12c.06,0,.11.13.15.42a1.69,1.69,0,0,1,0,.58q-.18,0-1.56,0t-2.06.12q-.71.07-2,.29l-1.51.28a.87.87,0,0,1-.18-.55q0-.44.07-.46a3.53,3.53,0,0,0,1-.32q.64-.29.68-.5a8.52,8.52,0,0,0,0-2.18l-.29-2.81a6.45,6.45,0,0,0-1-3.36,2.39,2.39,0,0,0-2.21-.76,2.76,2.76,0,0,0-1.6.69,1.43,1.43,0,0,0-.59,1.18l.53,5.09a12.49,12.49,0,0,0,.48,2.64q.08.2.83.35a4.32,4.32,0,0,0,1,.12q.12,0,.18.42a1.68,1.68,0,0,1,0,.58l-1.56,0q-1.33,0-2,.12t-2,.3l-1.57.28a.87.87,0,0,1-.18-.55q0-.44.07-.46a4.16,4.16,0,0,0,1.06-.33c.47-.2.71-.37.74-.51a9.73,9.73,0,0,0,0-2.18l-.5-4.82a2.83,2.83,0,0,0-.67-1.84,1.43,1.43,0,0,0-.71-.37,3.39,3.39,0,0,0-.73-.1c-.19,0-.29,0-.29-.06q-.09-.86.06-.9a42.16,42.16,0,0,0,4.67-1.38l.07-.05.09,0h.07c.08,0,.16.05.23.19a.92.92,0,0,1,.12.32,10.27,10.27,0,0,0,0,1.08.23.23,0,0,0,0,.14.44.44,0,0,0,.14-.1,6.6,6.6,0,0,1,1.69-1.43A5.21,5.21,0,0,1,137.77,107.09Z"/><path class="cls-1" d="M147.61,108.16l-1.8.19q-.21,0-.29-.75a.75.75,0,0,1,0-.27,8.31,8.31,0,0,0,2.11-1.8q.34-.42.75-1t.95-1.37a2.12,2.12,0,0,1,.57,0c.18,0,.28.08.28.14l.3,2.9,2.15-.21,1.47-.14q.24,0,.26.24a2.89,2.89,0,0,1-.16,1.33l-3.55.37.74,7.13a2.82,2.82,0,0,0,.69,1.75,1.7,1.7,0,0,0,1.45.48,2.78,2.78,0,0,0,.61-.14,3.17,3.17,0,0,0,.52-.22l.37-.22.2-.11q.11,0,.29.24t.16.37q-.13.43-1.16,1.09a4.69,4.69,0,0,1-2.06.77,3.75,3.75,0,0,1-2.72-.72,4,4,0,0,1-1.4-2.95Z"/><path class="cls-1" d="M162.39,104.53a5.52,5.52,0,0,1,2.54.29,4.7,4.7,0,0,1,1.86,1.21,6.93,6.93,0,0,1,1.13,1.65,5.13,5.13,0,0,1,.5,1.7q.07.65-.14.84a1.69,1.69,0,0,1-.89.26l-7.07.73c-.14,0-.2.08-.19.2a5.77,5.77,0,0,0,.6,2,4.09,4.09,0,0,0,1.5,1.61,3.5,3.5,0,0,0,2.31.51,8.16,8.16,0,0,0,.85-.13,4.47,4.47,0,0,0,.75-.23l.6-.26a2.53,2.53,0,0,0,.52-.32l.37-.29.55-.46a.5.5,0,0,1,.17.16.58.58,0,0,1,.12.29.92.92,0,0,1-.12.58,4.85,4.85,0,0,1-1.58,1.78,5.51,5.51,0,0,1-2.84,1.1,6,6,0,0,1-4.63-1.45,6.41,6.41,0,0,1-2.34-4.43,6.88,6.88,0,0,1,1.23-5A5.76,5.76,0,0,1,162.39,104.53Zm-.06,1.38a2.1,2.1,0,0,0-1.23.55,2.81,2.81,0,0,0-.75,1.09,5.69,5.69,0,0,0-.31,1.15,3.65,3.65,0,0,0,0,.89c0,.14.08.2.2.19l4.79-.5q.27,0,.22-.47a3.85,3.85,0,0,0-.91-2A2.13,2.13,0,0,0,162.32,105.91Z"/><path class="cls-1" d="M176.17,103a5.1,5.1,0,0,1,2.2.19c.1,0,.13-.17.1-.49l-.29-2.78a10.43,10.43,0,0,0-.39-2q-.2-.46-1.59-.31l-.24,0c-.12,0-.19-.14-.23-.45s0-.48.13-.49q.88-.18,1.71-.42t1.36-.44q.53-.2.92-.39l.58-.28.23-.1h.06a.32.32,0,0,1,.25.14.54.54,0,0,1,.15.3,11.43,11.43,0,0,0,0,2.81l1.35,13a10.87,10.87,0,0,0,.4,2.17.44.44,0,0,0,.33.29,1.82,1.82,0,0,0,.58.09h.57l.3,0a.62.62,0,0,1,.1.35q.06.59-.12.61-.41.07-1,.23l-1.22.32-1.13.33-1.2.38q-.18,0-.23-.48l-.05-.5a.13.13,0,0,0-.06-.11.05.05,0,0,0-.07,0,5,5,0,0,1-3,1.41,5.76,5.76,0,0,1-4.35-1.33,6,6,0,0,1-2.23-4.24,7,7,0,0,1,1.5-5.22A6.51,6.51,0,0,1,176.17,103Zm-.12,1.45a2.6,2.6,0,0,0-2.23,1.58,7,7,0,0,0-.43,3.66,7.17,7.17,0,0,0,1.32,3.82,2.92,2.92,0,0,0,2.72,1.14A2.47,2.47,0,0,0,179,114a1.65,1.65,0,0,0,.48-1.38l-.65-6.21a2.05,2.05,0,0,0-.17-.61,2.77,2.77,0,0,0-.43-.66,1.91,1.91,0,0,0-.86-.54A3.16,3.16,0,0,0,176.05,104.49Z"/><path class="cls-1" d="M193.61,103.38l-1.8.19q-.21,0-.29-.75a.75.75,0,0,1,0-.27,8.32,8.32,0,0,0,2.11-1.8q.34-.42.75-1t.95-1.37a2.12,2.12,0,0,1,.57,0c.18,0,.28.08.28.14l.3,2.9,2.15-.21,1.47-.14c.16,0,.25.06.26.24a2.89,2.89,0,0,1-.16,1.33l-3.55.37.74,7.13a2.82,2.82,0,0,0,.69,1.75,1.7,1.7,0,0,0,1.45.48,2.79,2.79,0,0,0,.61-.14,3.08,3.08,0,0,0,.52-.22l.37-.22.2-.11q.11,0,.29.24c.12.19.17.31.16.37q-.13.43-1.16,1.09a4.68,4.68,0,0,1-2.06.77,3.75,3.75,0,0,1-2.72-.72,4,4,0,0,1-1.4-2.95Z"/><path class="cls-1" d="M209,99.68a6.55,6.55,0,0,1,4.95,1.44,6.37,6.37,0,0,1,2.45,4.48A6.73,6.73,0,0,1,203,107a6.4,6.4,0,0,1,1.45-4.9A6.51,6.51,0,0,1,209,99.68Zm-.24,1.43a2.4,2.4,0,0,0-2,1.57,6.4,6.4,0,0,0-.43,3.29,8.67,8.67,0,0,0,1.39,4.07,3,3,0,0,0,2.86,1.5,2.43,2.43,0,0,0,2-1.59,6.32,6.32,0,0,0,.45-3.27,10.21,10.21,0,0,0-.68-2.81,5.24,5.24,0,0,0-1.47-2.07A2.76,2.76,0,0,0,208.78,101.11Z"/><path class="cls-1" d="M232.78,97.21a3,3,0,0,1,2.53.72q.26,2.52-1.16,2.66a1.77,1.77,0,0,1-1.21-.47,1.86,1.86,0,0,0-1.33-.46,1.6,1.6,0,0,0-1.34,1.08,4,4,0,0,0-.32,2l.38,3.7a12.45,12.45,0,0,0,.48,2.64q.08.2.83.35a4.21,4.21,0,0,0,1,.12q.09,0,.15.42a3.07,3.07,0,0,1,0,.58l-1.58,0q-1.34,0-2,.12t-2,.3l-1.57.28a.88.88,0,0,1-.18-.55q0-.44.07-.46a4.16,4.16,0,0,0,1.06-.33c.47-.2.71-.37.74-.51a9.7,9.7,0,0,0,0-2.18l-.5-4.82a2.82,2.82,0,0,0-.67-1.84,1.43,1.43,0,0,0-.71-.37,3.4,3.4,0,0,0-.73-.1c-.19,0-.29,0-.29-.06q-.09-.86.06-.9a42.16,42.16,0,0,0,4.67-1.38l.23-.08c.08,0,.16.05.23.19a.72.72,0,0,1,.11.33c0,.09,0,.23,0,.42s0,.39,0,.6a3.71,3.71,0,0,0,0,.4A5.46,5.46,0,0,1,231,98,3.27,3.27,0,0,1,232.78,97.21Z"/><path class="cls-1" d="M243.19,96.13a5.51,5.51,0,0,1,2.54.29,4.7,4.7,0,0,1,1.86,1.21,6.92,6.92,0,0,1,1.13,1.65,5.14,5.14,0,0,1,.51,1.7c0,.43,0,.71-.14.84a1.68,1.68,0,0,1-.89.26l-7.07.74c-.14,0-.2.08-.19.2a5.77,5.77,0,0,0,.6,2,4.09,4.09,0,0,0,1.5,1.61,3.5,3.5,0,0,0,2.31.51,8.18,8.18,0,0,0,.85-.13,4.49,4.49,0,0,0,.75-.23l.6-.26a2.53,2.53,0,0,0,.52-.32l.37-.29.55-.46a.5.5,0,0,1,.17.16.58.58,0,0,1,.12.29.91.91,0,0,1-.12.58,4.84,4.84,0,0,1-1.58,1.78,5.51,5.51,0,0,1-2.84,1.1,6,6,0,0,1-4.63-1.45,6.41,6.41,0,0,1-2.34-4.43,6.88,6.88,0,0,1,1.23-5A5.76,5.76,0,0,1,243.19,96.13Zm-.07,1.38a2.1,2.1,0,0,0-1.23.55,2.81,2.81,0,0,0-.75,1.09,5.72,5.72,0,0,0-.31,1.15,3.65,3.65,0,0,0,0,.89c0,.14.08.2.2.19l4.79-.5q.27,0,.22-.47a3.85,3.85,0,0,0-.91-2A2.13,2.13,0,0,0,243.13,97.51Z"/><path class="cls-1" d="M260,94.38a3.21,3.21,0,0,1,2,.38,3.47,3.47,0,0,1,1.34,1.37,7,7,0,0,1,2-1.7,6.68,6.68,0,0,1,2.72-.88,3.38,3.38,0,0,1,1.87.28A3.28,3.28,0,0,1,271.22,95a7,7,0,0,1,.81,1.77,11.29,11.29,0,0,1,.42,2.12l.32,3.1a12.44,12.44,0,0,0,.48,2.64q.08.2.84.35a4.38,4.38,0,0,0,1,.12c.06,0,.11.13.15.42a1.68,1.68,0,0,1,0,.58l-1.56,0q-1.35.05-2,.12t-2,.3l-1.57.28a1.1,1.1,0,0,1-.15-.55q0-.44,0-.45a4,4,0,0,0,1-.33q.69-.3.72-.51a9.25,9.25,0,0,0,0-2.09l-.31-3q-.45-4.29-3.2-4a2.71,2.71,0,0,0-1.58.64,1.86,1.86,0,0,0-.67,1c0,.06,0,.14,0,.24a.58.58,0,0,0,0,.23,14.5,14.5,0,0,1,.28,1.82l.33,3.13a11.63,11.63,0,0,0,.47,2.52c.05.13.33.25.84.35a4.37,4.37,0,0,0,1,.12q.09,0,.15.42a1.69,1.69,0,0,1,0,.58l-1.56,0q-1.35.05-2,.12t-2,.3l-1.57.28a1.11,1.11,0,0,1-.15-.55q0-.44,0-.45a4,4,0,0,0,1-.33q.69-.3.72-.51a9.67,9.67,0,0,0,0-2.18l-.29-2.84a6.31,6.31,0,0,0-1-3.27,2.26,2.26,0,0,0-2.12-.83,2.84,2.84,0,0,0-1.57.67,1.4,1.4,0,0,0-.62,1.2l.53,5.09a11,11,0,0,0,.51,2.64c.05.13.33.25.81.35a4,4,0,0,0,1,.12q.12,0,.18.42a1.69,1.69,0,0,1,0,.58l-1.56,0q-1.33,0-2,.12t-2.06.3l-1.56.28a.87.87,0,0,1-.18-.55c0-.3,0-.45.07-.46a4.31,4.31,0,0,0,1-.33q.72-.3.75-.51a9.71,9.71,0,0,0,0-2.18l-.5-4.82a2.83,2.83,0,0,0-.67-1.84,1.43,1.43,0,0,0-.71-.37,3.36,3.36,0,0,0-.74-.1c-.2,0-.3,0-.3-.06q-.09-.86.08-.91A41.16,41.16,0,0,0,255.31,95a.19.19,0,0,1,.08-.05l.15,0c.1,0,.18.05.26.18a.55.55,0,0,1,.09.32,10.37,10.37,0,0,0,0,1.08c0,.08,0,.13.08.14a.44.44,0,0,0,.14-.1,6.6,6.6,0,0,1,1.69-1.43A5.22,5.22,0,0,1,260,94.38Z"/><path class="cls-1" d="M281.79,92.11a3.65,3.65,0,0,1,2.85.67A4.76,4.76,0,0,1,285.9,96l.61,5.83a1.36,1.36,0,0,0,.36.87.89.89,0,0,0,.74.24,1.85,1.85,0,0,0,1-.49q.18,0,.21.31a1.78,1.78,0,0,1-.08.91,7.41,7.41,0,0,1-1.11.86,3.1,3.1,0,0,1-1.38.53,2.17,2.17,0,0,1-1.38-.36,2.43,2.43,0,0,1-1-1l-.2.21c-.12.12-.28.27-.49.46a8.53,8.53,0,0,1-.72.55,4.69,4.69,0,0,1-1,.5,4.31,4.31,0,0,1-1.15.28,3.55,3.55,0,0,1-2.49-.56,2.83,2.83,0,0,1-1.16-2.14,2.74,2.74,0,0,1,.2-1.37,3.55,3.55,0,0,1,.71-1.1,6.07,6.07,0,0,1,1.19-.92,12.14,12.14,0,0,1,1.31-.72l1.43-.61,1.22-.52a.47.47,0,0,0,.22-.5l-.17-1.63a2.55,2.55,0,0,0-.64-1.58,1.56,1.56,0,0,0-1.33-.46,1.81,1.81,0,0,0-1.33.69,2.23,2.23,0,0,0-.34,1.6,1,1,0,0,1-.35.92,1.85,1.85,0,0,1-1,.39,1.68,1.68,0,0,1-1.61-.55q-.15-1.42,1.66-2.86A7.46,7.46,0,0,1,281.79,92.11Zm-.15,11.49A2.3,2.3,0,0,0,283,103a1.18,1.18,0,0,0,.48-1l-.31-3q-.2.11-.84.39t-1,.46a8.24,8.24,0,0,0-.79.5,1.79,1.79,0,0,0-.63.72,1.64,1.64,0,0,0-.14.85,1.83,1.83,0,0,0,.62,1.34A1.71,1.71,0,0,0,281.64,103.61Z"/><path class="cls-1" d="M295.44,99.66a10.94,10.94,0,0,0,.51,2.64q.08.2.84.35a4.38,4.38,0,0,0,1,.12q.12,0,.18.42a1.68,1.68,0,0,1,0,.58l-1.59,0q-1.39.05-2,.12t-2.08.31l-1.54.28a.87.87,0,0,1-.18-.55c0-.3,0-.45.07-.46a4.31,4.31,0,0,0,1-.33q.72-.3.75-.51a9.73,9.73,0,0,0,0-2.18l-.5-4.82a2.83,2.83,0,0,0-.67-1.84,1.65,1.65,0,0,0-.73-.37,3.13,3.13,0,0,0-.73-.1c-.2,0-.3,0-.3-.06q-.09-.86.08-.91a22.67,22.67,0,0,0,2.36-.6,23.48,23.48,0,0,0,2.28-.77l.23-.08c.1,0,.18.05.26.18a.55.55,0,0,1,.09.32,25.53,25.53,0,0,0,0,2.57Zm-4.36-12.05a1.82,1.82,0,0,1-.67-1.25,1.84,1.84,0,0,1,3.67-.38,1.81,1.81,0,0,1-.4,1.36,1.83,1.83,0,0,1-2.6.27Z"/><path class="cls-1" d="M308.1,89.38q3.81-.4,4.44,5.67l.29,2.81a12.51,12.51,0,0,0,.48,2.64q.08.2.86.34a4.56,4.56,0,0,0,1,.12c.06,0,.11.13.15.42a1.68,1.68,0,0,1,0,.58q-.18,0-1.56,0t-2.06.12q-.71.07-2,.29l-1.51.28a.87.87,0,0,1-.18-.55q0-.44.07-.46a3.54,3.54,0,0,0,1-.32q.64-.29.68-.5a8.55,8.55,0,0,0,0-2.18l-.29-2.81a6.45,6.45,0,0,0-1-3.36,2.39,2.39,0,0,0-2.21-.76,2.76,2.76,0,0,0-1.6.69,1.43,1.43,0,0,0-.59,1.18l.53,5.09a12.44,12.44,0,0,0,.48,2.64q.08.2.83.35a4.29,4.29,0,0,0,1,.12q.12,0,.18.42a1.68,1.68,0,0,1,0,.58l-1.56,0q-1.33,0-2,.12t-2,.3l-1.57.28a.88.88,0,0,1-.18-.55c0-.29,0-.45.07-.46a4.16,4.16,0,0,0,1.06-.33q.7-.3.74-.51a9.7,9.7,0,0,0,0-2.18l-.5-4.82a2.83,2.83,0,0,0-.67-1.84,1.43,1.43,0,0,0-.71-.37,3.4,3.4,0,0,0-.73-.1c-.19,0-.29,0-.29-.06q-.09-.86.06-.9A42.16,42.16,0,0,0,303.44,90l.07-.05.09,0h.07c.08,0,.16.05.23.19a.9.9,0,0,1,.12.32,10.22,10.22,0,0,0,0,1.08c0,.08,0,.13,0,.14a.44.44,0,0,0,.14-.1,6.6,6.6,0,0,1,1.69-1.43A5.21,5.21,0,0,1,308.1,89.38Z"/><path class="cls-1" d="M328.69,87.24a3.65,3.65,0,0,1,2.85.68,4.76,4.76,0,0,1,1.26,3.2l.61,5.83a1.36,1.36,0,0,0,.36.87.89.89,0,0,0,.74.24,1.85,1.85,0,0,0,1-.49c.12,0,.19.13.21.31a1.77,1.77,0,0,1-.08.91,7.41,7.41,0,0,1-1.11.86,3.1,3.1,0,0,1-1.38.53,2.17,2.17,0,0,1-1.38-.36,2.44,2.44,0,0,1-1-1l-.2.21q-.18.18-.49.45a8.54,8.54,0,0,1-.72.55,4.7,4.7,0,0,1-1,.5,4.31,4.31,0,0,1-1.15.28,3.55,3.55,0,0,1-2.49-.56,2.82,2.82,0,0,1-1.16-2.14,2.74,2.74,0,0,1,.2-1.37,3.55,3.55,0,0,1,.71-1.1,6.09,6.09,0,0,1,1.19-.92A12.22,12.22,0,0,1,327,94l1.43-.61,1.22-.52a.47.47,0,0,0,.22-.5l-.17-1.63a2.55,2.55,0,0,0-.64-1.58,1.55,1.55,0,0,0-1.33-.46,1.8,1.8,0,0,0-1.33.69A2.23,2.23,0,0,0,326,91a1,1,0,0,1-.35.92,1.85,1.85,0,0,1-1,.39,1.68,1.68,0,0,1-1.61-.55q-.15-1.42,1.66-2.86A7.47,7.47,0,0,1,328.69,87.24Zm-.15,11.49a2.31,2.31,0,0,0,1.33-.56,1.18,1.18,0,0,0,.48-1l-.31-3q-.2.11-.84.39c-.43.18-.76.34-1,.46a8.05,8.05,0,0,0-.79.5,1.79,1.79,0,0,0-.63.72,1.64,1.64,0,0,0-.14.85,1.83,1.83,0,0,0,.62,1.34A1.71,1.71,0,0,0,328.54,98.73Z"/><path class="cls-1" d="M345.82,85.45q3.81-.4,4.44,5.67l.29,2.81a12.51,12.51,0,0,0,.48,2.64q.08.2.86.34a4.56,4.56,0,0,0,1,.12c.06,0,.11.13.15.42a1.69,1.69,0,0,1,0,.58q-.18,0-1.56,0t-2.06.12q-.71.07-2,.29l-1.51.28a.87.87,0,0,1-.18-.55q0-.44.07-.46a3.55,3.55,0,0,0,1-.32q.64-.29.68-.5a8.55,8.55,0,0,0,0-2.18l-.29-2.81a6.46,6.46,0,0,0-1-3.36,2.39,2.39,0,0,0-2.22-.76,2.76,2.76,0,0,0-1.6.69,1.43,1.43,0,0,0-.59,1.18l.53,5.09a12.45,12.45,0,0,0,.48,2.64q.08.2.83.35a4.28,4.28,0,0,0,1,.12q.12,0,.18.42a1.69,1.69,0,0,1,0,.58l-1.56,0q-1.33,0-2,.12t-2,.3l-1.57.28a.88.88,0,0,1-.18-.55q0-.44.07-.46a4.16,4.16,0,0,0,1.06-.33c.47-.2.71-.37.74-.51a9.7,9.7,0,0,0,0-2.18l-.5-4.82a2.82,2.82,0,0,0-.67-1.84,1.43,1.43,0,0,0-.71-.37,3.39,3.39,0,0,0-.73-.1c-.19,0-.29,0-.29-.06-.06-.57,0-.87.06-.9a42.13,42.13,0,0,0,4.67-1.38l.07-.05.09,0h.07c.08,0,.16.05.23.19a.9.9,0,0,1,.12.32,10.22,10.22,0,0,0,0,1.08c0,.08,0,.13,0,.14a.44.44,0,0,0,.14-.1,6.59,6.59,0,0,1,1.69-1.43A5.21,5.21,0,0,1,345.82,85.45Z"/><path class="cls-1" d="M360.4,83.94a6.55,6.55,0,0,1,4.95,1.44,6.37,6.37,0,0,1,2.45,4.48,6.73,6.73,0,0,1-13.4,1.39,6.4,6.4,0,0,1,1.45-4.9A6.51,6.51,0,0,1,360.4,83.94Zm-.24,1.43a2.39,2.39,0,0,0-2,1.57,6.39,6.39,0,0,0-.44,3.29,8.67,8.67,0,0,0,1.39,4.07,3,3,0,0,0,2.86,1.5,2.42,2.42,0,0,0,2-1.59,6.32,6.32,0,0,0,.45-3.27,10.21,10.21,0,0,0-.68-2.81A5.24,5.24,0,0,0,362.29,86,2.75,2.75,0,0,0,360.16,85.37Z"/><path class="cls-1" d="M378.68,82q3.81-.4,4.44,5.67l.29,2.81a12.49,12.49,0,0,0,.48,2.64q.08.2.86.34a4.56,4.56,0,0,0,1,.12c.06,0,.11.13.15.42a1.68,1.68,0,0,1,0,.58q-.18,0-1.56,0t-2.06.12q-.71.07-2,.29l-1.51.28a.87.87,0,0,1-.18-.55q0-.44.07-.46a3.54,3.54,0,0,0,1-.32q.64-.29.68-.5a8.57,8.57,0,0,0,0-2.18l-.29-2.81a6.45,6.45,0,0,0-1-3.36,2.39,2.39,0,0,0-2.22-.76,2.76,2.76,0,0,0-1.6.69,1.43,1.43,0,0,0-.59,1.18l.53,5.09a12.47,12.47,0,0,0,.48,2.64q.08.2.83.35a4.29,4.29,0,0,0,1,.12q.12,0,.18.42a1.69,1.69,0,0,1,0,.58l-1.56,0q-1.33,0-2,.12t-2,.3l-1.57.28a.88.88,0,0,1-.18-.55c0-.29,0-.45.07-.46a4.16,4.16,0,0,0,1.06-.33q.7-.3.74-.51a9.67,9.67,0,0,0,0-2.18l-.5-4.82a2.83,2.83,0,0,0-.67-1.84,1.43,1.43,0,0,0-.71-.37,3.4,3.4,0,0,0-.73-.1c-.19,0-.29,0-.29-.06-.06-.57,0-.87.06-.9A42.16,42.16,0,0,0,374,82.7l.07-.05.09,0h.07c.08,0,.16.05.23.19a.92.92,0,0,1,.12.32,10.13,10.13,0,0,0,0,1.08.24.24,0,0,0,0,.14.44.44,0,0,0,.14-.1,6.61,6.61,0,0,1,1.69-1.43A5.22,5.22,0,0,1,378.68,82Z"/><path class="cls-1" d="M389.78,81.18q.65-.07,1.85-.28t1.5-.25a2,2,0,0,1,.12.53c0,.28,0,.42-.08.43a3.25,3.25,0,0,0-.91.32q-.61.29-.61.56l0,.18q.11.47,3.45,6.46.18-.56.85-3t.78-2.85a2.8,2.8,0,0,0,.08-.94.94.94,0,0,0-.55-.68,2.45,2.45,0,0,0-1.45-.19q-.12,0-.16-.43a.75.75,0,0,1,.07-.51q.35,0,1.46-.06t1.81-.1q.62-.06,1.51-.25t1.31-.23a.85.85,0,0,1,.17.46q0,.47-.07.49a3.77,3.77,0,0,0-1.17.42,1.64,1.64,0,0,0-.93,1l-4.05,13.63q-1.39,4.51-4,4.78a1.61,1.61,0,0,1-1.23-.29,1.39,1.39,0,0,1-.07-2.12q3.07-.32,3.8-2.85.53-1.85.59-2.09l-5.36-9.6a3.84,3.84,0,0,0-.42-.64,1.79,1.79,0,0,0-.94-.57,2.79,2.79,0,0,0-1-.12c-.08,0-.13-.12-.16-.4s0-.5,0-.54l1.59-.08Q389.07,81.25,389.78,81.18Z"/><path class="cls-1" d="M412.05,78.56a3.21,3.21,0,0,1,2,.38,3.47,3.47,0,0,1,1.34,1.37,7,7,0,0,1,2-1.7,6.68,6.68,0,0,1,2.72-.88A3.38,3.38,0,0,1,422,78a3.28,3.28,0,0,1,1.32,1.19,7,7,0,0,1,.81,1.77,11.29,11.29,0,0,1,.42,2.12l.32,3.1a12.44,12.44,0,0,0,.48,2.64q.08.2.84.35a4.38,4.38,0,0,0,1,.12c.06,0,.11.13.15.42a1.68,1.68,0,0,1,0,.58l-1.56,0q-1.35.05-2,.12t-2,.3l-1.57.28a1.1,1.1,0,0,1-.15-.55q0-.44,0-.45a4,4,0,0,0,1-.33q.69-.3.72-.51a9.25,9.25,0,0,0,0-2.09l-.31-3q-.45-4.29-3.2-4a2.71,2.71,0,0,0-1.58.64,1.86,1.86,0,0,0-.67,1c0,.06,0,.14,0,.24a.58.58,0,0,0,0,.23,14.5,14.5,0,0,1,.28,1.82l.33,3.13a11.63,11.63,0,0,0,.47,2.52c.05.13.33.25.84.35a4.37,4.37,0,0,0,1,.12q.09,0,.15.42a1.69,1.69,0,0,1,0,.58l-1.56,0q-1.35.05-2,.12t-2,.3L412,91.9a1.11,1.11,0,0,1-.15-.55q0-.44,0-.45a4,4,0,0,0,1-.33q.69-.3.72-.51a9.67,9.67,0,0,0,0-2.18L413.38,85a6.31,6.31,0,0,0-1-3.27,2.26,2.26,0,0,0-2.12-.83,2.84,2.84,0,0,0-1.57.67,1.4,1.4,0,0,0-.62,1.2l.53,5.09a11,11,0,0,0,.51,2.64c.05.13.33.25.81.35a4,4,0,0,0,1,.12c.08,0,.14.13.18.42a1.69,1.69,0,0,1,0,.58l-1.56,0q-1.33,0-2,.12t-2.06.3l-1.56.28a.87.87,0,0,1-.18-.55c0-.3,0-.45.07-.46a4.31,4.31,0,0,0,1-.33q.71-.3.75-.51a9.71,9.71,0,0,0,0-2.18l-.5-4.82a2.83,2.83,0,0,0-.67-1.84,1.43,1.43,0,0,0-.71-.37,3.36,3.36,0,0,0-.74-.1c-.2,0-.3,0-.3-.06q-.09-.86.08-.91a41.16,41.16,0,0,0,4.64-1.38.19.19,0,0,1,.08-.05l.15,0c.1,0,.18.05.26.18a.55.55,0,0,1,.09.32,10.37,10.37,0,0,0,0,1.08c0,.08,0,.13.08.14a.44.44,0,0,0,.14-.1,6.6,6.6,0,0,1,1.69-1.43A5.22,5.22,0,0,1,412.05,78.56Z"/><path class="cls-1" d="M434.32,76.25a6.55,6.55,0,0,1,4.95,1.44,6.37,6.37,0,0,1,2.45,4.48,6.73,6.73,0,0,1-13.4,1.39,6.4,6.4,0,0,1,1.45-4.9A6.51,6.51,0,0,1,434.32,76.25Zm-.24,1.43a2.39,2.39,0,0,0-2,1.57,6.4,6.4,0,0,0-.43,3.29A8.67,8.67,0,0,0,433,86.61a3,3,0,0,0,2.86,1.5,2.42,2.42,0,0,0,2-1.59,6.32,6.32,0,0,0,.45-3.27,10.21,10.21,0,0,0-.68-2.81,5.24,5.24,0,0,0-1.47-2.07A2.76,2.76,0,0,0,434.08,77.68Z"/><path class="cls-1" d="M456.19,77.2l.61,5.85a6.6,6.6,0,0,0,.45,2,.62.62,0,0,0,.36.2,2.27,2.27,0,0,0,.53.06l.49,0a.56.56,0,0,1,.25,0c.08,0,.13.1.15.25a2.26,2.26,0,0,1,0,.41c0,.19-.07.29-.15.3a6.84,6.84,0,0,0-1,.21l-1.21.34-1.1.34-1.16.36q-.21,0-.26-.45L454,85.8c0-.1-.06-.14-.1-.14a6.63,6.63,0,0,1-1.67,1.52,5,5,0,0,1-2.27.83,3.12,3.12,0,0,1-1.81-.32,3.58,3.58,0,0,1-1.32-1.18,6.41,6.41,0,0,1-.8-1.65,9.13,9.13,0,0,1-.39-1.84l-.34-3.31a2.83,2.83,0,0,0-.67-1.84,1.65,1.65,0,0,0-.73-.37,3.16,3.16,0,0,0-.73-.1c-.2,0-.3,0-.3-.06q-.09-.86.06-.9a22.51,22.51,0,0,0,2.39-.61,23.66,23.66,0,0,0,2.28-.78l.11,0,.12,0c.1,0,.18.05.24.18a1.07,1.07,0,0,1,.11.32q-.06,2,0,2.63l.37,3.55a6.37,6.37,0,0,0,1,3.24,2.62,2.62,0,0,0,3.74,0,1.58,1.58,0,0,0,.54-1.18l-.51-4.88a2.83,2.83,0,0,0-.67-1.84,1.43,1.43,0,0,0-.71-.37,3.35,3.35,0,0,0-.74-.1c-.2,0-.3,0-.3-.06q-.09-.86.08-.91a22.79,22.79,0,0,0,2.36-.6,23.5,23.5,0,0,0,2.28-.77l.23-.08c.1,0,.18.05.26.18a.55.55,0,0,1,.09.32Q456.13,76.67,456.19,77.2Z"/><path class="cls-1" d="M464.47,73.08a12.65,12.65,0,0,1,3.48.15,16.89,16.89,0,0,1,.67,3.28c0,.16-.1.25-.36.28q-.65.07-.73-.16A3.61,3.61,0,0,0,466.47,75a2.32,2.32,0,0,0-1.86-.54,2.13,2.13,0,0,0-1.31.52,1.32,1.32,0,0,0-.37,1.14,1.73,1.73,0,0,0,.24.74,1.85,1.85,0,0,0,.6.58,7.27,7.27,0,0,0,.7.41q.3.15.89.38a1.84,1.84,0,0,0,.31.12l.47.19.52.22.5.23a5.3,5.3,0,0,1,.55.29l.5.31a2.39,2.39,0,0,1,.49.37l.4.42a1.91,1.91,0,0,1,.37.5,5.4,5.4,0,0,1,.22.54,2.74,2.74,0,0,1,.14.63,3.5,3.5,0,0,1-1.13,3.09,5.64,5.64,0,0,1-3.36,1.44,9.94,9.94,0,0,1-3.9-.43,11.94,11.94,0,0,1-.47-1.61,14.51,14.51,0,0,1-.32-1.69.63.63,0,0,1,.4-.19q.68-.07.73.16a3.28,3.28,0,0,0,1.38,1.87,3.16,3.16,0,0,0,2.1.54,2.16,2.16,0,0,0,1.32-.55,1.45,1.45,0,0,0,.41-1.27,1.94,1.94,0,0,0-.13-.54,1.44,1.44,0,0,0-.33-.47l-.38-.38a2.15,2.15,0,0,0-.57-.34l-.63-.28-.78-.31-.8-.32a6.91,6.91,0,0,1-2.26-1.36,3.43,3.43,0,0,1,.17-5A5.73,5.73,0,0,1,464.47,73.08Z"/><path class="cls-1" d="M474.11,85.8a2.64,2.64,0,0,0-.57-1.18,2.68,2.68,0,0,1-.58-1.24,1.8,1.8,0,0,1,.49-1.31,2.21,2.21,0,0,1,1.56-.79,1.92,1.92,0,0,1,1,.08,4.63,4.63,0,0,1,.63,2,5.33,5.33,0,0,1-.09,1.44,8.54,8.54,0,0,1-1,2.87,13.34,13.34,0,0,1-2.26,2.67h0q-.15,0-.45-.27a.9.9,0,0,1-.32-.49,4.37,4.37,0,0,1,.45-.52,5.44,5.44,0,0,0,.87-1.39A3.56,3.56,0,0,0,474.11,85.8Z"/><path class="cls-1" d="M143.09,192.32a11,11,0,0,0,.19,2.68q.06.21.8.44a4.42,4.42,0,0,0,1,.24c.08,0,.12.15.13.43a1.69,1.69,0,0,1-.05.58l-1.59-.15q-1.38-.11-2-.12t-2.1.05l-1.56.09a.87.87,0,0,1-.11-.57q0-.45.13-.44a4.3,4.3,0,0,0,1.07-.2q.75-.21.81-.42a9.75,9.75,0,0,0,.24-2.17l.08-4.85a2.83,2.83,0,0,0-.44-1.91,1.65,1.65,0,0,0-.68-.46,3.13,3.13,0,0,0-.71-.19c-.2,0-.3-.05-.3-.09q0-.86.19-.89a22.85,22.85,0,0,0,2.41-.32,23.46,23.46,0,0,0,2.36-.5l.24-.06q.15,0,.23.21a.55.55,0,0,1,.05.33,25.57,25.57,0,0,0-.28,2.55Zm-2.89-12.49a1.81,1.81,0,0,1-.51-1.32,1.84,1.84,0,0,1,3.69.06,1.81,1.81,0,0,1-.56,1.3,1.83,1.83,0,0,1-2.62,0Z"/><path class="cls-1" d="M156.89,183.63q3.83.06,3.73,6.16l0,2.82a12.49,12.49,0,0,0,.16,2.68c0,.14.31.29.81.44a4.59,4.59,0,0,0,1,.24c.06,0,.09.15.1.43a1.69,1.69,0,0,1-.05.58q-.18,0-1.56-.15t-2.06-.12q-.71,0-2,.06l-1.53.09a.87.87,0,0,1-.11-.57q0-.45.13-.44a3.54,3.54,0,0,0,1-.21c.45-.14.69-.28.74-.42a8.56,8.56,0,0,0,.27-2.17l0-2.82a6.46,6.46,0,0,0-.61-3.46,2.39,2.39,0,0,0-2.11-1,2.75,2.75,0,0,0-1.67.49,1.43,1.43,0,0,0-.73,1.1l-.08,5.11a12.48,12.48,0,0,0,.16,2.68q.06.21.78.44a4.27,4.27,0,0,0,1,.24c.08,0,.12.15.13.43a1.68,1.68,0,0,1-.05.58l-1.56-.15q-1.32-.11-2-.12t-2.07.06l-1.59.09a.87.87,0,0,1-.11-.57q0-.45.13-.44a4.17,4.17,0,0,0,1.09-.2q.73-.21.79-.42a9.71,9.71,0,0,0,.24-2.17l.08-4.85a2.83,2.83,0,0,0-.44-1.91,1.43,1.43,0,0,0-.66-.46,3.37,3.37,0,0,0-.71-.19c-.19,0-.28-.05-.28-.09,0-.57.06-.87.16-.89a42.33,42.33,0,0,0,4.8-.81l.08,0h.16c.08,0,.15.07.21.21a.92.92,0,0,1,.08.33,10.3,10.3,0,0,0-.14,1.07.24.24,0,0,0,0,.15.45.45,0,0,0,.15-.09,6.59,6.59,0,0,1,1.85-1.22A5.2,5.2,0,0,1,156.89,183.63Z"/><path class="cls-1" d="M176.37,192.81a12.21,12.21,0,0,0,.16,2.68q.06.21.72.47a3.27,3.27,0,0,0,.9.27c.06,0,.09.14.1.42a1.63,1.63,0,0,1-.05.56l-1.11-.09-1.26-.1-1.07,0c-.38,0-.75,0-1.13,0l-1.25.05-1.13.06a.84.84,0,0,1-.11-.55q0-.43.13-.43a3.18,3.18,0,0,0,1-.24q.67-.24.74-.45a9.88,9.88,0,0,0,.27-2.2l.2-12.37a10.32,10.32,0,0,0-.15-2q-.14-.48-1.48-.5h-.3c-.12,0-.18-.12-.17-.36s.07-.47.19-.47q.92-.07,1.76-.21t1.39-.27l1-.27.64-.21.21-.09h.06c.08,0,.16.06.25.18a.91.91,0,0,1,.16.3,9.39,9.39,0,0,0-.4,2.79Z"/><path class="cls-1" d="M185.56,193a11,11,0,0,0,.19,2.68q.06.21.8.44a4.39,4.39,0,0,0,1,.24q.12,0,.13.43a1.69,1.69,0,0,1-.05.58l-1.59-.15q-1.38-.11-2-.12t-2.1.05l-1.56.09a.87.87,0,0,1-.11-.57c0-.3,0-.45.13-.44a4.35,4.35,0,0,0,1.07-.2q.75-.21.81-.42a9.71,9.71,0,0,0,.24-2.17l.08-4.85a2.83,2.83,0,0,0-.44-1.91,1.64,1.64,0,0,0-.68-.46,3.08,3.08,0,0,0-.71-.19c-.2,0-.3-.05-.3-.09q0-.86.19-.89a22.87,22.87,0,0,0,2.41-.32,23.49,23.49,0,0,0,2.36-.5l.24-.06c.1,0,.18.07.23.21a.55.55,0,0,1,.05.33,25.56,25.56,0,0,0-.28,2.55Zm-2.89-12.49a1.81,1.81,0,0,1-.51-1.32,1.83,1.83,0,0,1,1.87-1.8,1.78,1.78,0,0,1,1.3.56,1.76,1.76,0,0,1,.51,1.3,1.81,1.81,0,0,1-.56,1.3,1.83,1.83,0,0,1-2.62,0Z"/><path class="cls-1" d="M198.24,176.79a5.85,5.85,0,0,1,2.06.35,2.08,2.08,0,0,1,1.07.78,3.34,3.34,0,0,1-.19,1.65,1.06,1.06,0,0,1-1.1.71,1.16,1.16,0,0,1-.9-.51q-.39-.5-.83-1a1.37,1.37,0,0,0-1-.51A1.58,1.58,0,0,0,196,179a5,5,0,0,0-.79,1.86,12.16,12.16,0,0,0-.26,2.4l0,1.37s0,.05.06.09a.17.17,0,0,0,.12.06l3.27.05a.23.23,0,0,1,.15,0,.32.32,0,0,1,0,.18,3.06,3.06,0,0,1-.38,1.36l-3.09-.05a.16.16,0,0,0-.18.18l-.11,6.63a11.35,11.35,0,0,0,.19,2.68q.05.21.78.44a4.23,4.23,0,0,0,1,.24c.06,0,.09.15.1.43a1.68,1.68,0,0,1-.05.58q-.18,0-1.54-.14t-2.08-.12q-.71,0-2,.06l-1.55.09a.56.56,0,0,1-.11-.33,1.77,1.77,0,0,1,0-.46c0-.15.06-.22.12-.22a4,4,0,0,0,1-.21q.72-.21.78-.42a9.84,9.84,0,0,0,.31-2.43l.11-6.84c0-.14-.06-.21-.17-.21l-1.78,0s-.06-.06-.06-.18a1.59,1.59,0,0,1,.43-.85,1.2,1.2,0,0,1,1-.52h.48a.16.16,0,0,0,.18-.18v-.3a8.09,8.09,0,0,1,1.95-5.32A5.56,5.56,0,0,1,198.24,176.79Z"/><path class="cls-1" d="M206.41,184.45a5.51,5.51,0,0,1,2.49.59,4.71,4.71,0,0,1,1.7,1.43,6.9,6.9,0,0,1,.92,1.77,5.12,5.12,0,0,1,.3,1.74c0,.44-.09.71-.24.81a1.69,1.69,0,0,1-.91.15l-7.1-.12c-.14,0-.21.06-.21.18a5.77,5.77,0,0,0,.35,2.09,4.09,4.09,0,0,0,1.29,1.78,3.5,3.5,0,0,0,2.23.78,8,8,0,0,0,.86,0,4.39,4.39,0,0,0,.78-.14l.63-.18a2.54,2.54,0,0,0,.55-.26l.41-.25.6-.39a.48.48,0,0,1,.15.18.57.57,0,0,1,.08.3.91.91,0,0,1-.19.56,4.83,4.83,0,0,1-1.78,1.58,5.51,5.51,0,0,1-3,.75,6,6,0,0,1-4.43-2,6.41,6.41,0,0,1-1.8-4.68,6.88,6.88,0,0,1,1.82-4.85A5.76,5.76,0,0,1,206.41,184.45Zm-.23,1.36a2.1,2.1,0,0,0-1.29.39,2.81,2.81,0,0,0-.88,1,5.71,5.71,0,0,0-.45,1.11,3.64,3.64,0,0,0-.15.87c0,.14.06.21.17.21l4.81.08q.27,0,.27-.44a3.85,3.85,0,0,0-.66-2.12A2.13,2.13,0,0,0,206.18,185.81Z"/><path class="cls-1" d="M226.34,184.78a3.65,3.65,0,0,1,2.75,1,4.76,4.76,0,0,1,.87,3.33l-.1,5.86a1.36,1.36,0,0,0,.25.91.89.89,0,0,0,.71.32,1.86,1.86,0,0,0,1-.37q.18.06.17.33a1.76,1.76,0,0,1-.19.89,7.4,7.4,0,0,1-1.2.72,3.09,3.09,0,0,1-1.43.36,2.17,2.17,0,0,1-1.33-.53,2.44,2.44,0,0,1-.84-1.11l-.23.19q-.2.16-.54.39a8.57,8.57,0,0,1-.78.46,4.72,4.72,0,0,1-1,.38,4.3,4.3,0,0,1-1.18.14,3.55,3.55,0,0,1-2.41-.86A2.82,2.82,0,0,1,220,195a2.75,2.75,0,0,1,.36-1.33,3.56,3.56,0,0,1,.83-1,6.1,6.1,0,0,1,1.29-.77,12.29,12.29,0,0,1,1.39-.56l1.49-.44,1.27-.37a.47.47,0,0,0,.28-.47l0-1.63a2.55,2.55,0,0,0-.45-1.64,1.55,1.55,0,0,0-1.27-.62,1.8,1.8,0,0,0-1.41.53,2.23,2.23,0,0,0-.53,1.55,1,1,0,0,1-.46.87,1.85,1.85,0,0,1-1,.27,1.68,1.68,0,0,1-1.53-.74q0-1.43,2-2.64A7.46,7.46,0,0,1,226.34,184.78Zm-1.53,11.39a2.3,2.3,0,0,0,1.39-.39,1.17,1.17,0,0,0,.6-.94l.05-3q-.21.09-.88.28t-1,.34a8.17,8.17,0,0,0-.84.4,1.79,1.79,0,0,0-.71.64,1.64,1.64,0,0,0-.24.83,1.83,1.83,0,0,0,.45,1.4A1.71,1.71,0,0,0,224.82,196.17Z"/><path class="cls-1" d="M243.56,185.06q3.83.06,3.73,6.16l0,2.82a12.48,12.48,0,0,0,.16,2.68q.06.21.81.44a4.59,4.59,0,0,0,1,.24c.06,0,.09.15.1.43a1.69,1.69,0,0,1-.05.58q-.18,0-1.56-.15t-2.06-.12q-.71,0-2,.06l-1.53.09a.87.87,0,0,1-.11-.57q0-.45.13-.44a3.56,3.56,0,0,0,1-.21c.45-.14.69-.28.73-.42a8.56,8.56,0,0,0,.27-2.17l0-2.82a6.46,6.46,0,0,0-.61-3.46,2.39,2.39,0,0,0-2.11-1,2.75,2.75,0,0,0-1.67.49,1.43,1.43,0,0,0-.73,1.1L239,193.9a12.48,12.48,0,0,0,.16,2.68q.06.21.78.44a4.29,4.29,0,0,0,1,.24c.08,0,.12.15.13.43a1.68,1.68,0,0,1-.05.58l-1.56-.15q-1.32-.11-2-.12t-2.07.06l-1.59.09a.87.87,0,0,1-.11-.57c0-.3,0-.45.13-.44a4.17,4.17,0,0,0,1.09-.2q.73-.21.79-.42a9.71,9.71,0,0,0,.24-2.17l.08-4.85a2.83,2.83,0,0,0-.44-1.91,1.43,1.43,0,0,0-.66-.46,3.43,3.43,0,0,0-.71-.19c-.19,0-.28-.05-.28-.09,0-.57.06-.87.16-.89a42.12,42.12,0,0,0,4.8-.81l.08,0h.16c.08,0,.15.07.21.21a.92.92,0,0,1,.08.33,10.3,10.3,0,0,0-.14,1.07.24.24,0,0,0,0,.15.45.45,0,0,0,.15-.09,6.6,6.6,0,0,1,1.85-1.22A5.21,5.21,0,0,1,243.56,185.06Z"/><path class="cls-1" d="M258.19,185.24a5.11,5.11,0,0,1,2.16.45c.1,0,.15-.16.16-.47l0-2.79a10.36,10.36,0,0,0-.14-2q-.14-.48-1.54-.5h-.24q-.18,0-.17-.48c0-.32.07-.47.19-.47q.89-.07,1.74-.21t1.4-.27q.55-.14,1-.28l.61-.21.24-.07h.06a.32.32,0,0,1,.24.17.54.54,0,0,1,.11.31,11.39,11.39,0,0,0-.34,2.79l-.22,13.08a10.93,10.93,0,0,0,.14,2.2.44.44,0,0,0,.29.33,1.82,1.82,0,0,0,.56.16l.56.05.3,0a.62.62,0,0,1,.05.36q0,.59-.19.59c-.28,0-.63,0-1.06.1l-1.25.17-1.16.19-1.24.23c-.12,0-.18-.17-.17-.51v-.51a.14.14,0,0,0,0-.12.05.05,0,0,0-.07,0,5,5,0,0,1-3.11,1,5.76,5.76,0,0,1-4.16-1.84,6,6,0,0,1-1.71-4.47,7,7,0,0,1,2.12-5A6.51,6.51,0,0,1,258.19,185.24Zm-.29,1.42a2.6,2.6,0,0,0-2.4,1.3,7,7,0,0,0-.86,3.58,7.17,7.17,0,0,0,.86,4,2.92,2.92,0,0,0,2.56,1.45,2.47,2.47,0,0,0,1.64-.49,1.65,1.65,0,0,0,.65-1.31l.1-6.24a2.05,2.05,0,0,0-.09-.63,2.79,2.79,0,0,0-.35-.7,1.9,1.9,0,0,0-.79-.64A3.17,3.17,0,0,0,257.9,186.67Z"/><path class="cls-1" d="M292.38,188.13a.86.86,0,0,0-.23-.61,1.3,1.3,0,0,0-.6-.37,5.36,5.36,0,0,0-.68-.16,4.26,4.26,0,0,0-.61-.05h-.12c-.08,0-.12-.15-.13-.45s0-.48.08-.53q.39,0,1.57.12t1.9.12q.62,0,1.59-.06t1.41-.07a1.89,1.89,0,0,1,.05.51c0,.3,0,.45-.13.44a3.39,3.39,0,0,0-1.18.35,1.82,1.82,0,0,0-1,.89l-4.57,10.42a1.17,1.17,0,0,1-.41.42,1,1,0,0,1-.58.18.38.38,0,0,1-.38-.21l-3.49-8.26-3.31,7.71a1.63,1.63,0,0,1-.35.41.9.9,0,0,1-.64.23.44.44,0,0,1-.41-.21q-.66-1.56-1.56-3.79t-1.65-3.94q-.74-1.71-1.72-3.71a1.36,1.36,0,0,0-.76-.61,2.88,2.88,0,0,0-.95-.22c-.08,0-.12-.16-.11-.48s0-.45.13-.5.7,0,1.5.11,1.43.11,1.89.12,1.13,0,2-.06l1.55-.06a1.65,1.65,0,0,1,.05.54q0,.39-.1.41a3.52,3.52,0,0,0-1,.19q-.64.2-.65.61s1,2.34,2.86,6.89q.34-.83.79-1.87l.68-1.59.46-1.11q.23-.56.33-.84a1.63,1.63,0,0,0,.1-.37,2.17,2.17,0,0,0-.37-1.2,1.41,1.41,0,0,0-.65-.49,2.37,2.37,0,0,0-1.07-.2c-.08,0-.12-.15-.11-.43s0-.46.13-.52.71,0,1.47.11,1.38.11,1.86.12,1.08,0,1.93-.06l1.52-.06a1.44,1.44,0,0,1,0,.55c0,.29-.05.43-.11.43q-1.52,0-1.53,1a47.7,47.7,0,0,0,2.69,6.65q.5-1.24,1.22-2.91t1.07-2.48A4,4,0,0,0,292.38,188.13Z"/><path class="cls-1" d="M305,186.08a6.55,6.55,0,0,1,4.74,2,6.37,6.37,0,0,1,1.9,4.74,6.78,6.78,0,1,1-6.64-6.77Zm-.41,1.39a2.39,2.39,0,0,0-2.19,1.32,6.4,6.4,0,0,0-.83,3.21,8.68,8.68,0,0,0,.9,4.21,3,3,0,0,0,2.66,1.83,2.42,2.42,0,0,0,2.21-1.33,6.33,6.33,0,0,0,.84-3.2,10.21,10.21,0,0,0-.34-2.87,5.23,5.23,0,0,0-1.21-2.24A2.76,2.76,0,0,0,304.62,187.47Z"/><path class="cls-1" d="M322.4,186.36a3,3,0,0,1,2.42,1q0,2.53-1.47,2.5a1.77,1.77,0,0,1-1.15-.61,1.86,1.86,0,0,0-1.27-.62,1.59,1.59,0,0,0-1.46.91,4,4,0,0,0-.55,1.94l-.06,3.72a12.48,12.48,0,0,0,.16,2.68q.06.21.78.44a4.21,4.21,0,0,0,1,.24q.09,0,.1.43a3.09,3.09,0,0,1,0,.58l-1.57-.15q-1.34-.11-2-.12t-2.07.06l-1.59.09a.87.87,0,0,1-.11-.57c0-.3,0-.45.13-.44a4.17,4.17,0,0,0,1.09-.2q.73-.21.79-.42a9.71,9.71,0,0,0,.24-2.17l.08-4.85a2.83,2.83,0,0,0-.44-1.91,1.43,1.43,0,0,0-.66-.46,3.4,3.4,0,0,0-.71-.19c-.19,0-.28-.05-.28-.09,0-.57.06-.87.16-.89a42.33,42.33,0,0,0,4.8-.81l.24-.06c.08,0,.15.07.21.21a.72.72,0,0,1,.07.34c0,.09,0,.23-.05.42s-.05.38-.08.59a3.8,3.8,0,0,0-.05.4,5.47,5.47,0,0,1,1.48-1.42A3.26,3.26,0,0,1,322.4,186.36Z"/><path class="cls-1" d="M339.17,188.63q-.6.35-1.91,1.31a21.08,21.08,0,0,0-2.4,2q.85.94,2.13,2.44t2.13,2.47a14.39,14.39,0,0,0,1.17,1.24,3.74,3.74,0,0,0,1.13.61,3.62,3.62,0,0,0,1,.25q.12,0,.11.51a1.76,1.76,0,0,1,0,.42l-3.48-.21h-1.15l-1.28.05-1.12.06a.81.81,0,0,1-.11-.54c0-.28,0-.42.13-.41a2.14,2.14,0,0,0,.69-.12c.26-.08.39-.18.39-.28s0-.06,0-.06l-4.26-4.92-.36.08,0,1.84a12.13,12.13,0,0,0,.19,2.68q.05.21.79.44a4.33,4.33,0,0,0,1,.24q.09,0,.1.43a1.69,1.69,0,0,1-.05.58l-1.57-.15q-1.37-.11-2-.12t-2.07.06l-1.59.09a.87.87,0,0,1-.11-.57c0-.3,0-.45.13-.44a4.17,4.17,0,0,0,1.09-.2q.73-.21.79-.42a9.71,9.71,0,0,0,.24-2.17l.2-12.34a11.72,11.72,0,0,0-.11-2q-.14-.48-1.54-.5h-.27q-.18,0-.17-.48c0-.32.07-.47.19-.47q.92-.07,1.76-.21t1.39-.27q.55-.14,1-.28l.85-.28h.06a.32.32,0,0,1,.24.17.82.82,0,0,1,.14.31,9.58,9.58,0,0,0-.4,2.79l-.16,9.93a2.69,2.69,0,0,0,.9-.31q.63-.55,1.37-1.15l1.07-.86q.33-.26.66-.57a2.62,2.62,0,0,0,.44-.48.7.7,0,0,0,.11-.35q0-.33-.66-.41a3,3,0,0,1-.67-.11,1.32,1.32,0,0,1-.08-.52c0-.21,0-.32.12-.34l2.88,0q.8,0,3.15-.07a.47.47,0,0,1,.14.33,1.34,1.34,0,0,1,0,.45c0,.14-.08.21-.14.21A3.9,3.9,0,0,0,339.17,188.63Z"/><path class="cls-1" d="M348.09,196.87a1.94,1.94,0,0,1,.56,1.41,2,2,0,0,1-.6,1.4,1.84,1.84,0,0,1-1.39.59,1.92,1.92,0,0,1-1.42-.63,2,2,0,0,1-.57-1.42,1.91,1.91,0,0,1,.62-1.39,2,2,0,0,1,1.44-.57A1.86,1.86,0,0,1,348.09,196.87Z"/></svg>