<svg id="Layer_1" data-name="Layer 1" xmlns="http://www.w3.org/2000/svg" viewBox="0 0 841.11 115.21"><defs><style>.cls-1{fill:#1928eb;}</style></defs><title>title</title><path class="cls-1" d="M103.57,26.62a4.68,4.68,0,0,1,1.67-3.85A6.5,6.5,0,0,1,109.37,21a10.48,10.48,0,0,1,1.46,0q.63.06,1.76.28l1.55.29a26.49,26.49,0,0,1,.6,4.55.32.32,0,0,1-.34.29c-.53,0-.83,0-.87-.22a5.22,5.22,0,0,0-1.42-2.6,3.38,3.38,0,0,0-2.74-1.16,2.74,2.74,0,0,0-2.05.88,2.91,2.91,0,0,0-.62,2.12,3.33,3.33,0,0,0,.15.84,2.1,2.1,0,0,0,.46.77l.54.61a3.55,3.55,0,0,0,.78.6l.77.5q.2.14.92.53a8.93,8.93,0,0,0,.87.44,10.89,10.89,0,0,0,1,.59q.84.45,1.18.65c.22.14.56.37,1,.71a4.28,4.28,0,0,1,1,1,6.22,6.22,0,0,1,.58,1.17,5,5,0,0,1,.32,1.55,4.83,4.83,0,0,1-1.71,4,6.88,6.88,0,0,1-4.36,1.78,27.71,27.71,0,0,1-5.51-.54A26.4,26.4,0,0,1,104,38a19.92,19.92,0,0,1-.33-2.11q0-.24.46-.26.77,0,.87.19a5.77,5.77,0,0,0,.48,1.15,8.63,8.63,0,0,0,.89,1.32,3.92,3.92,0,0,0,1.46,1.11,4.19,4.19,0,0,0,2,.35,3.33,3.33,0,0,0,2.27-1,3.2,3.2,0,0,0,.79-2.54,2.58,2.58,0,0,0-.25-1,3.45,3.45,0,0,0-.49-.78,4.36,4.36,0,0,0-.78-.67q-.51-.36-.85-.55l-1-.53-.93-.47a2,2,0,0,0-.34-.22l-1.35-.76q-.46-.27-1.19-.81a5.91,5.91,0,0,1-1.11-1,5.67,5.67,0,0,1-.7-1.21A4.48,4.48,0,0,1,103.57,26.62Z"/><path class="cls-1" d="M125.8,26.9a6,6,0,0,1,3.44.8,6.23,6.23,0,0,1,3.19,5.13,7,7,0,0,1-6.6,7.44,6.9,6.9,0,0,1-2.13-.3c-.08,0-.11.15-.1.42l.11,2a10.76,10.76,0,0,0,.38,2.66q0,.24.81.42a4.51,4.51,0,0,0,1,.17c.06,0,.1.14.13.43a2.67,2.67,0,0,1,0,.55h-1.59q-1.39,0-2,0c-.49,0-1.19.09-2.09.2l-1.58.17a1.06,1.06,0,0,1-.12-.54c0-.29,0-.43.07-.44a4.14,4.14,0,0,0,1.07-.28q.71-.26.79-.5a10.93,10.93,0,0,0,.06-2.15L120,31.76a2.89,2.89,0,0,0-.58-1.9,1.34,1.34,0,0,0-.67-.4,3.54,3.54,0,0,0-.72-.12c-.2,0-.3,0-.3-.07q0-.86.13-.9a22.86,22.86,0,0,0,4.38-1.07l.56-.18c.08,0,.13.2.15.62a1.58,1.58,0,0,1,0,.36,5.92,5.92,0,0,1,1.28-.77A4.24,4.24,0,0,1,125.8,26.9Zm-.63,1.61a2.25,2.25,0,0,0-1.56.65,2,2,0,0,0-.53,1.55l.32,6.12a1.83,1.83,0,0,0,.88,1.52,2.89,2.89,0,0,0,1.75.49,2.8,2.8,0,0,0,2.23-1.37,5.74,5.74,0,0,0,.75-3.55A7.69,7.69,0,0,0,127.87,30,2.92,2.92,0,0,0,125.17,28.51Z"/><path class="cls-1" d="M140.12,26.11a5.5,5.5,0,0,1,2.52.42,4.7,4.7,0,0,1,1.8,1.3,6.89,6.89,0,0,1,1,1.7,5.13,5.13,0,0,1,.42,1.72q0,.65-.18.83a1.69,1.69,0,0,1-.9.21l-7.1.38c-.14,0-.21.07-.2.19a5.77,5.77,0,0,0,.5,2.06,4.09,4.09,0,0,0,1.41,1.68,3.5,3.5,0,0,0,2.28.62,8.18,8.18,0,0,0,.86-.09,4.52,4.52,0,0,0,.76-.19l.61-.23a2.49,2.49,0,0,0,.54-.3l.39-.27.57-.43a.48.48,0,0,1,.16.17.59.59,0,0,1,.11.29.91.91,0,0,1-.15.57,4.85,4.85,0,0,1-1.67,1.7,5.52,5.52,0,0,1-2.9,1,6,6,0,0,1-4.55-1.68,6.41,6.41,0,0,1-2.12-4.55,6.88,6.88,0,0,1,1.48-5A5.76,5.76,0,0,1,140.12,26.11ZM140,27.49a2.11,2.11,0,0,0-1.26.48,2.81,2.81,0,0,0-.81,1.05,5.81,5.81,0,0,0-.37,1.14,3.6,3.6,0,0,0-.09.88c0,.14.07.2.19.2l4.81-.25q.27,0,.24-.46a3.85,3.85,0,0,0-.81-2.07A2.13,2.13,0,0,0,140,27.49Z"/><path class="cls-1" d="M153.51,25.4a3.65,3.65,0,0,1,2.81.82,4.75,4.75,0,0,1,1.1,3.26l.31,5.85a1.35,1.35,0,0,0,.32.89.89.89,0,0,0,.73.27,1.85,1.85,0,0,0,1-.44c.12,0,.19.14.19.32a1.77,1.77,0,0,1-.13.9,7.33,7.33,0,0,1-1.15.81,3.1,3.1,0,0,1-1.41.46,2.18,2.18,0,0,1-1.36-.43,2.43,2.43,0,0,1-.92-1.05l-.21.21q-.18.17-.51.43c-.22.17-.47.34-.75.52a4.74,4.74,0,0,1-1,.45,4.3,4.3,0,0,1-1.16.23,3.55,3.55,0,0,1-2.46-.69A2.82,2.82,0,0,1,147.85,36a2.74,2.74,0,0,1,.27-1.35,3.56,3.56,0,0,1,.76-1.07,6.12,6.12,0,0,1,1.24-.85,12.35,12.35,0,0,1,1.35-.65l1.46-.54,1.24-.45a.47.47,0,0,0,.24-.49L154.33,29a2.55,2.55,0,0,0-.56-1.61,1.55,1.55,0,0,0-1.31-.53,1.8,1.8,0,0,0-1.37.62,2.22,2.22,0,0,0-.42,1.58,1,1,0,0,1-.4.9,1.85,1.85,0,0,1-1,.34,1.68,1.68,0,0,1-1.58-.63q-.07-1.43,1.8-2.77A7.46,7.46,0,0,1,153.51,25.4Zm-.73,11.47a2.31,2.31,0,0,0,1.36-.49,1.18,1.18,0,0,0,.53-1l-.16-3q-.2.1-.86.34c-.44.16-.77.3-1,.41a8.07,8.07,0,0,0-.81.46,1.8,1.8,0,0,0-.66.69,1.64,1.64,0,0,0-.18.84,1.83,1.83,0,0,0,.55,1.37A1.71,1.71,0,0,0,152.78,36.87Z"/><path class="cls-1" d="M173.51,26.34q-.58.39-1.81,1.44a21,21,0,0,0-2.25,2.2q.91.88,2.29,2.29t2.3,2.32a14.36,14.36,0,0,0,1.25,1.15,3.76,3.76,0,0,0,1.17.53,3.63,3.63,0,0,0,1,.18c.08,0,.13.16.15.5a1.77,1.77,0,0,1,0,.42l-3.48,0L173,37.5l-1.27.14-1.11.13a.81.81,0,0,1-.15-.53c0-.28,0-.42.1-.42a2.13,2.13,0,0,0,.68-.17c.25-.1.38-.2.37-.3s0-.06,0-.06L167,31.68l-.35.11.1,1.84a12.12,12.12,0,0,0,.38,2.66q.07.21.82.39a4.34,4.34,0,0,0,1,.17c.06,0,.1.14.13.42a1.71,1.71,0,0,1,0,.58l-1.58,0q-1.37,0-2.05,0t-2.06.2l-1.58.2a.87.87,0,0,1-.15-.56c0-.3,0-.45.1-.45a4.13,4.13,0,0,0,1.07-.28q.71-.26.76-.47a9.81,9.81,0,0,0,.09-2.18L163,22a11.65,11.65,0,0,0-.26-2q-.17-.47-1.57-.39H161c-.12,0-.19-.15-.2-.47s0-.48.15-.48q.92-.14,1.74-.33t1.36-.37q.54-.18.93-.35l.83-.34h.06a.32.32,0,0,1,.25.15.82.82,0,0,1,.17.3,9.53,9.53,0,0,0-.21,2.81l.53,9.92a2.66,2.66,0,0,0,.87-.37q.59-.6,1.29-1.24l1-.93q.31-.28.62-.61a2.63,2.63,0,0,0,.4-.51.7.7,0,0,0,.09-.36q0-.33-.69-.37a2.92,2.92,0,0,1-.67-.07,1.33,1.33,0,0,1-.12-.51c0-.21,0-.32.1-.35l2.88-.15q.8,0,3.14-.29a.47.47,0,0,1,.17.32,1.29,1.29,0,0,1,0,.45c0,.14-.06.21-.12.22A3.89,3.89,0,0,0,173.51,26.34Z"/><path class="cls-1" d="M184.75,32.68a10.92,10.92,0,0,0,.38,2.66q.07.21.82.39a4.4,4.4,0,0,0,1,.17c.08,0,.13.14.16.42a1.71,1.71,0,0,1,0,.58l-1.59,0q-1.39,0-2,0t-2.09.2l-1.55.2a.88.88,0,0,1-.15-.56c0-.3,0-.45.1-.45a4.31,4.31,0,0,0,1.06-.28c.49-.17.75-.33.78-.47a9.75,9.75,0,0,0,.09-2.18l-.26-4.84a2.83,2.83,0,0,0-.58-1.87,1.65,1.65,0,0,0-.71-.41,3.1,3.1,0,0,0-.72-.14q-.3,0-.3-.07,0-.86.13-.9a22.93,22.93,0,0,0,2.38-.48A23.31,23.31,0,0,0,184,24l.23-.07c.1,0,.18.06.25.2a.54.54,0,0,1,.08.32,25.53,25.53,0,0,0-.1,2.57ZM181,20.42a1.81,1.81,0,0,1-.6-1.28,1.83,1.83,0,0,1,1.74-1.92,1.78,1.78,0,0,1,1.33.46,1.76,1.76,0,0,1,.6,1.26,1.8,1.8,0,0,1-.46,1.33,1.83,1.83,0,0,1-2.61.14Z"/><path class="cls-1" d="M197.92,23q3.83-.2,4.15,5.88l.15,2.82a12.34,12.34,0,0,0,.35,2.66q.07.21.84.39a4.54,4.54,0,0,0,1,.17c.06,0,.1.14.13.42a1.7,1.7,0,0,1,0,.58c-.12,0-.64,0-1.57,0s-1.61,0-2.07,0-1.13.09-2,.19l-1.52.2a.88.88,0,0,1-.15-.56c0-.3,0-.45.09-.45a3.55,3.55,0,0,0,1-.28c.44-.17.67-.33.71-.47a8.58,8.58,0,0,0,.12-2.18L199,29.6a6.46,6.46,0,0,0-.85-3.41,2.39,2.39,0,0,0-2.17-.87,2.75,2.75,0,0,0-1.63.61,1.43,1.43,0,0,0-.65,1.15l.27,5.11a12.41,12.41,0,0,0,.35,2.66c0,.14.32.27.81.39a4.3,4.3,0,0,0,1,.17c.08,0,.13.14.16.42a1.71,1.71,0,0,1,0,.58l-1.57,0q-1.32,0-2,0t-2.06.2l-1.58.2a.87.87,0,0,1-.15-.56q0-.45.1-.45a4.13,4.13,0,0,0,1.07-.28q.71-.26.76-.47a9.75,9.75,0,0,0,.09-2.18L190.68,28a2.83,2.83,0,0,0-.58-1.87,1.43,1.43,0,0,0-.69-.41,3.36,3.36,0,0,0-.72-.14c-.19,0-.28,0-.29-.07,0-.57,0-.87.1-.9a42.16,42.16,0,0,0,4.73-1.14l.07,0,.09,0h.07c.08,0,.15.06.22.2a.89.89,0,0,1,.11.32,9.84,9.84,0,0,0-.06,1.08.24.24,0,0,0,0,.15.44.44,0,0,0,.14-.1,6.6,6.6,0,0,1,1.76-1.34A5.2,5.2,0,0,1,197.92,23Z"/><path class="cls-1" d="M211.52,22.38a9.42,9.42,0,0,1,2.49.26,9.17,9.17,0,0,0,2.39.26l1.69-.09s.12.12.23.38a1.84,1.84,0,0,1,.18.59c0,.28,0,.42-.16.42l-1.93.1c-.08,0-.12,0-.11.1s.1.27.31.76a4.23,4.23,0,0,1,.34,1.41,4.3,4.3,0,0,1-1.3,3.24,5.1,5.1,0,0,1-3.59,1.6,12.27,12.27,0,0,1-1.85,0,1.6,1.6,0,0,0-.62.58,1.27,1.27,0,0,0-.26.74.61.61,0,0,0,.31.49,2,2,0,0,0,.89.25c.4,0,.74.06,1,.07h1.19l.45,0a10.51,10.51,0,0,1,4.39.59,2.34,2.34,0,0,1,1.5,2.11,4.67,4.67,0,0,1-1.93,4,8.12,8.12,0,0,1-4.93,1.9,7.73,7.73,0,0,1-3.83-.63,2.67,2.67,0,0,1-1.75-2.35,2.31,2.31,0,0,1,.76-1.71,4.92,4.92,0,0,1,1.77-1.23,3.39,3.39,0,0,1-1.47-.83,2.16,2.16,0,0,1-.74-1.52Q206.88,32.52,209,31a3.93,3.93,0,0,1-1.68-1.44,4.37,4.37,0,0,1-.87-2.38,4,4,0,0,1,1.37-3.41A5.9,5.9,0,0,1,211.52,22.38Zm4.92,15.31q-.05-1-1.57-1.3a18.85,18.85,0,0,0-4-.13l-.15,0-.14.1c-.25.11-.45.21-.58.28a2.55,2.55,0,0,0-.46.35,1.43,1.43,0,0,0-.37.54,1.72,1.72,0,0,0-.1.72A2.07,2.07,0,0,0,210.25,40a4.63,4.63,0,0,0,2.56.58,4.49,4.49,0,0,0,2.68-.92A2.32,2.32,0,0,0,216.44,37.69Zm-6.95-10.88a4.69,4.69,0,0,0,.72,2.42,1.85,1.85,0,0,0,1.71.91,1.77,1.77,0,0,0,1.57-.93,4,4,0,0,0,.41-2.12,4.88,4.88,0,0,0-.73-2.52,1.9,1.9,0,0,0-1.77-.89,1.68,1.68,0,0,0-1.52,1A4.31,4.31,0,0,0,209.49,26.81Z"/><path class="cls-1" d="M245.55,22.78a.86.86,0,0,0-.27-.6,1.3,1.3,0,0,0-.63-.32,5.33,5.33,0,0,0-.69-.11,4.38,4.38,0,0,0-.61,0h-.12c-.08,0-.13-.14-.16-.44s0-.48,0-.54c.26,0,.78,0,1.58,0s1.43,0,1.91,0,.94-.08,1.58-.17,1.11-.15,1.41-.16a1.8,1.8,0,0,1,.09.5c0,.3,0,.45-.09.45a3.39,3.39,0,0,0-1.15.43,1.81,1.81,0,0,0-1,1l-3.84,10.71a1.17,1.17,0,0,1-.38.45,1,1,0,0,1-.57.22.37.37,0,0,1-.4-.19l-4.06-8-2.77,7.92a1.57,1.57,0,0,1-.32.43.89.89,0,0,1-.62.27.44.44,0,0,1-.43-.19q-.77-1.51-1.82-3.67t-1.92-3.81q-.86-1.65-2-3.59a1.37,1.37,0,0,0-.8-.55,2.86,2.86,0,0,0-1-.16q-.12,0-.14-.47t.09-.51c.2,0,.7,0,1.5,0s1.43,0,1.89,0,1.13-.09,2-.2l1.54-.17a1.67,1.67,0,0,1,.09.53c0,.26,0,.4-.07.42a3.52,3.52,0,0,0-1,.26q-.63.24-.61.66s1.11,2.26,3.33,6.67q.28-.85.66-1.93l.57-1.64.39-1.14c.13-.38.22-.67.27-.86a1.65,1.65,0,0,0,.07-.38,2.17,2.17,0,0,0-.45-1.17,1.41,1.41,0,0,0-.68-.44,2.36,2.36,0,0,0-1.08-.12c-.08,0-.13-.14-.14-.42s0-.46.09-.53.71,0,1.47,0,1.38,0,1.86,0,1.08-.09,1.92-.19l1.51-.17a1.46,1.46,0,0,1,.07.55c0,.29,0,.43-.08.44q-1.51.08-1.46,1.12,0,.56,3.14,6.44.41-1.27,1-3t.89-2.55A4,4,0,0,0,245.55,22.78Z"/><path class="cls-1" d="M257.08,28.84a10.92,10.92,0,0,0,.38,2.66q.07.21.82.39a4.4,4.4,0,0,0,1,.17c.08,0,.13.14.16.42a1.71,1.71,0,0,1,0,.58l-1.6,0q-1.38,0-2,0t-2.09.2l-1.55.2a.88.88,0,0,1-.15-.56c0-.3,0-.45.1-.45a4.31,4.31,0,0,0,1.06-.28q.73-.26.78-.47a9.75,9.75,0,0,0,.09-2.18l-.26-4.84a2.83,2.83,0,0,0-.58-1.87,1.65,1.65,0,0,0-.71-.41,3.1,3.1,0,0,0-.72-.14c-.2,0-.3,0-.3-.07q0-.86.13-.9a22.93,22.93,0,0,0,2.38-.48,23.39,23.39,0,0,0,2.32-.66l.23-.07c.1,0,.18.06.25.2a.54.54,0,0,1,.08.32,25.53,25.53,0,0,0-.1,2.57Zm-3.75-12.26a1.81,1.81,0,0,1-.6-1.28,1.83,1.83,0,0,1,1.74-1.92,1.78,1.78,0,0,1,1.33.46,1.76,1.76,0,0,1,.6,1.26,1.81,1.81,0,0,1-.46,1.33,1.83,1.83,0,0,1-2.61.14Z"/><path class="cls-1" d="M262.36,21.71l-1.81.1c-.14,0-.22-.25-.25-.76a.74.74,0,0,1,0-.27,8.34,8.34,0,0,0,2.2-1.7l.8-.92q.43-.51,1-1.32a2.09,2.09,0,0,1,.57,0c.18,0,.27.09.28.15l.15,2.91,2.15-.1,1.47-.06c.16,0,.24.08.25.25a2.89,2.89,0,0,1-.23,1.32l-3.56.19.38,7.15a2.82,2.82,0,0,0,.6,1.78,1.7,1.7,0,0,0,1.43.55,2.78,2.78,0,0,0,.62-.11,3.07,3.07,0,0,0,.53-.19l.38-.2.2-.1c.08,0,.17.06.28.25s.16.32.14.38q-.16.43-1.21,1a4.68,4.68,0,0,1-2.09.66,3.75,3.75,0,0,1-2.68-.85,4,4,0,0,1-1.25-3Z"/><path class="cls-1" d="M280.93,18.64q3.8-.2,4.11,5.65l.16,3.06a10.92,10.92,0,0,0,.38,2.66c0,.14.3.27.81.39a4.6,4.6,0,0,0,1,.17c.06,0,.1.14.13.42a3.13,3.13,0,0,1,0,.58l-1.6,0q-1.38,0-2,0t-2,.2l-1.55.2a1.11,1.11,0,0,1-.12-.56c0-.3,0-.45.07-.45a3.56,3.56,0,0,0,1-.28c.44-.17.68-.33.73-.47a11.39,11.39,0,0,0,.06-2.18L282,25.11a6.19,6.19,0,0,0-.85-3.36,2.43,2.43,0,0,0-2.17-.82,2.84,2.84,0,0,0-1.61.59,1.4,1.4,0,0,0-.68,1.17l.27,5.11a10.92,10.92,0,0,0,.38,2.66c0,.14.32.27.81.39a4.25,4.25,0,0,0,1,.17c.06,0,.1.14.13.43a1.68,1.68,0,0,1,0,.58l-1.57,0q-1.33,0-2,0t-2.06.2l-1.58.2a.87.87,0,0,1-.15-.56c0-.3,0-.45.1-.45a4.12,4.12,0,0,0,1.07-.28c.48-.17.73-.33.76-.47a9.59,9.59,0,0,0,.09-2.15l-.66-12.35a11.58,11.58,0,0,0-.26-2q-.17-.47-1.57-.39h-.27c-.12,0-.19-.15-.2-.47s0-.48.15-.48q.92-.14,1.74-.33t1.36-.37q.54-.18.93-.35l.83-.34h.06a.32.32,0,0,1,.25.15.82.82,0,0,1,.17.3,9.53,9.53,0,0,0-.21,2.81l.32,6c0,.12,0,.18.13.17s.06,0,.11-.1a5.66,5.66,0,0,1,1.76-1.39A5.48,5.48,0,0,1,280.93,18.64Z"/><path class="cls-1" d="M295.45,16.44a4.69,4.69,0,0,1,1.67-3.85,6.49,6.49,0,0,1,4.13-1.75,10.41,10.41,0,0,1,1.46,0q.63.06,1.76.28l1.55.29a26.7,26.7,0,0,1,.6,4.55.32.32,0,0,1-.34.29q-.8,0-.87-.22a5.22,5.22,0,0,0-1.42-2.6,3.37,3.37,0,0,0-2.74-1.16,2.74,2.74,0,0,0-2.05.88,2.91,2.91,0,0,0-.62,2.12,3.37,3.37,0,0,0,.15.84,2.1,2.1,0,0,0,.46.77l.54.61a3.57,3.57,0,0,0,.78.6l.77.5c.13.09.44.27.92.53a9,9,0,0,0,.87.45,10.88,10.88,0,0,0,1,.58q.84.45,1.18.65a12,12,0,0,1,1,.71,4.29,4.29,0,0,1,1,1,6.14,6.14,0,0,1,.58,1.17,5,5,0,0,1,.32,1.55,4.83,4.83,0,0,1-1.71,4A6.88,6.88,0,0,1,302.05,31a27.72,27.72,0,0,1-5.51-.54,26.07,26.07,0,0,1-.63-2.66,20.48,20.48,0,0,1-.33-2.11q0-.24.46-.26c.51,0,.81,0,.87.19a5.73,5.73,0,0,0,.48,1.15,8.66,8.66,0,0,0,.89,1.32,3.92,3.92,0,0,0,1.46,1.11,4.18,4.18,0,0,0,2,.36,3.33,3.33,0,0,0,2.27-1A3.2,3.2,0,0,0,304.8,26a2.58,2.58,0,0,0-.25-1,3.45,3.45,0,0,0-.49-.78,4.39,4.39,0,0,0-.78-.67q-.51-.36-.85-.55l-1-.53-.93-.47a2,2,0,0,0-.34-.22l-1.35-.76q-.46-.27-1.19-.81a5.86,5.86,0,0,1-1.11-1,5.61,5.61,0,0,1-.71-1.21A4.46,4.46,0,0,1,295.45,16.44Z"/><path class="cls-1" d="M319.28,16.61q3.8-.2,4.11,5.65l.16,3.06a10.87,10.87,0,0,0,.38,2.66c0,.14.3.27.81.39a4.55,4.55,0,0,0,1,.17c.06,0,.1.14.13.42a3.14,3.14,0,0,1,0,.58l-1.59,0q-1.38,0-2,0t-2,.2l-1.55.2a1.11,1.11,0,0,1-.12-.56c0-.3,0-.45.07-.45a3.54,3.54,0,0,0,1-.28c.44-.17.68-.33.74-.47a11.39,11.39,0,0,0,.06-2.18l-.15-2.91a6.2,6.2,0,0,0-.85-3.36,2.43,2.43,0,0,0-2.17-.82,2.85,2.85,0,0,0-1.61.59,1.4,1.4,0,0,0-.68,1.17l.27,5.11a10.86,10.86,0,0,0,.38,2.66c0,.14.32.27.81.39a4.23,4.23,0,0,0,1,.17c.06,0,.1.14.13.42a1.68,1.68,0,0,1,0,.58l-1.56,0q-1.33,0-2,0t-2.06.2l-1.58.2a.87.87,0,0,1-.15-.56c0-.3,0-.45.1-.45a4.16,4.16,0,0,0,1.07-.28c.48-.17.73-.33.76-.47a9.59,9.59,0,0,0,.09-2.15l-.66-12.35a11.57,11.57,0,0,0-.26-2q-.17-.47-1.57-.39h-.27c-.12,0-.19-.15-.2-.47s0-.48.15-.48q.92-.14,1.74-.33t1.36-.37q.54-.18.93-.35l.83-.34h.06a.32.32,0,0,1,.25.15.82.82,0,0,1,.17.3,9.52,9.52,0,0,0-.21,2.81l.32,6c0,.12,0,.18.13.17s.06,0,.11-.1a5.66,5.66,0,0,1,1.76-1.39A5.49,5.49,0,0,1,319.28,16.61Z"/><path class="cls-1" d="M333.12,15.87a5.5,5.5,0,0,1,2.52.42,4.7,4.7,0,0,1,1.8,1.3,6.89,6.89,0,0,1,1,1.7A5.13,5.13,0,0,1,338.9,21q0,.65-.18.83a1.69,1.69,0,0,1-.9.21l-7.1.38c-.14,0-.21.07-.2.19a5.76,5.76,0,0,0,.5,2.06,4.09,4.09,0,0,0,1.41,1.68,3.5,3.5,0,0,0,2.28.62,8.18,8.18,0,0,0,.86-.09,4.48,4.48,0,0,0,.76-.19l.61-.23a2.49,2.49,0,0,0,.54-.3l.39-.27.57-.43a.48.48,0,0,1,.16.17.59.59,0,0,1,.11.29.91.91,0,0,1-.15.57,4.85,4.85,0,0,1-1.67,1.7,5.52,5.52,0,0,1-2.9,1,6,6,0,0,1-4.55-1.68,6.41,6.41,0,0,1-2.12-4.55,6.88,6.88,0,0,1,1.48-5A5.76,5.76,0,0,1,333.12,15.87ZM333,17.25a2.11,2.11,0,0,0-1.26.48,2.81,2.81,0,0,0-.81,1.06,5.8,5.8,0,0,0-.37,1.14,3.6,3.6,0,0,0-.09.88c0,.14.07.2.19.2l4.81-.25q.27,0,.24-.46a3.85,3.85,0,0,0-.81-2.07A2.13,2.13,0,0,0,333,17.25Z"/><path class="cls-1" d="M346,24.12a10.91,10.91,0,0,0,.38,2.66q.07.21.82.39a4.39,4.39,0,0,0,1,.17c.08,0,.13.14.16.42a1.71,1.71,0,0,1,0,.58l-1.6,0q-1.38,0-2,0t-2.09.2l-1.55.2a.88.88,0,0,1-.15-.56q0-.45.1-.45a4.29,4.29,0,0,0,1.06-.28q.73-.26.78-.47a9.75,9.75,0,0,0,.09-2.18l-.26-4.84a2.83,2.83,0,0,0-.58-1.87,1.65,1.65,0,0,0-.71-.41,3.11,3.11,0,0,0-.72-.14c-.2,0-.3,0-.3-.07,0-.57,0-.87.13-.9a22.78,22.78,0,0,0,2.39-.48,23.31,23.31,0,0,0,2.32-.66l.23-.07c.1,0,.18.06.25.19a.54.54,0,0,1,.08.32,25.52,25.52,0,0,0-.1,2.57Zm-3.75-12.26a1.81,1.81,0,0,1-.6-1.28,1.83,1.83,0,0,1,1.74-1.92,1.78,1.78,0,0,1,1.33.46,1.76,1.76,0,0,1,.6,1.26,1.81,1.81,0,0,1-.46,1.33,1.83,1.83,0,0,1-2.61.14Z"/><path class="cls-1" d="M356.17,14.59a5.11,5.11,0,0,1,2.19.3q.15,0,.12-.48l-.15-2.79a10.3,10.3,0,0,0-.29-2q-.17-.47-1.57-.39h-.24c-.12,0-.19-.15-.2-.47s0-.48.15-.48q.89-.14,1.73-.33t1.38-.37c.36-.12.67-.23.93-.35l.6-.25.23-.09h.06a.32.32,0,0,1,.25.15.54.54,0,0,1,.13.31,11.34,11.34,0,0,0-.15,2.81L362,23.21a10.9,10.9,0,0,0,.29,2.19.44.44,0,0,0,.31.31,1.83,1.83,0,0,0,.57.12h.86a.62.62,0,0,1,.08.35c0,.4,0,.6-.15.6q-.41.05-1,.17l-1.24.26-1.15.27-1.22.32c-.12,0-.19-.16-.2-.5l0-.5a.13.13,0,0,0-.05-.12.05.05,0,0,0-.07,0A5,5,0,0,1,356,28a5.76,5.76,0,0,1-4.28-1.54,6,6,0,0,1-2-4.34,7,7,0,0,1,1.77-5.14A6.51,6.51,0,0,1,356.17,14.59ZM356,16a2.6,2.6,0,0,0-2.3,1.46,7,7,0,0,0-.61,3.63A7.17,7.17,0,0,0,354.19,25a2.92,2.92,0,0,0,2.66,1.27,2.47,2.47,0,0,0,1.61-.61,1.65,1.65,0,0,0,.55-1.35l-.33-6.23a2.06,2.06,0,0,0-.14-.62,2.74,2.74,0,0,0-.39-.68,1.89,1.89,0,0,0-.83-.58A3.15,3.15,0,0,0,356,16Z"/><path class="cls-1" d="M371.47,13.84a3.65,3.65,0,0,1,2.81.82,4.75,4.75,0,0,1,1.1,3.26l.31,5.85a1.35,1.35,0,0,0,.32.89.89.89,0,0,0,.73.27,1.85,1.85,0,0,0,1-.44c.12,0,.19.14.19.32a1.76,1.76,0,0,1-.13.9,7.36,7.36,0,0,1-1.15.81,3.09,3.09,0,0,1-1.41.46,2.17,2.17,0,0,1-1.36-.43,2.43,2.43,0,0,1-.92-1.05l-.21.21q-.18.17-.51.43a8.75,8.75,0,0,1-.75.52,4.77,4.77,0,0,1-1,.45,4.32,4.32,0,0,1-1.16.23,3.55,3.55,0,0,1-2.46-.69,2.82,2.82,0,0,1-1.05-2.19,2.76,2.76,0,0,1,.27-1.35,3.58,3.58,0,0,1,.76-1.07,6.12,6.12,0,0,1,1.24-.85,12.35,12.35,0,0,1,1.35-.65l1.46-.54,1.24-.45a.47.47,0,0,0,.24-.49l-.09-1.63a2.56,2.56,0,0,0-.56-1.61,1.55,1.55,0,0,0-1.31-.53,1.8,1.8,0,0,0-1.37.62,2.22,2.22,0,0,0-.42,1.58,1,1,0,0,1-.4.9,1.85,1.85,0,0,1-1,.33,1.68,1.68,0,0,1-1.58-.63q-.07-1.43,1.8-2.78A7.46,7.46,0,0,1,371.47,13.84Zm-.73,11.47a2.31,2.31,0,0,0,1.36-.49,1.18,1.18,0,0,0,.53-1l-.16-3c-.14.07-.42.18-.86.34s-.77.3-1,.41a8,8,0,0,0-.81.46,1.8,1.8,0,0,0-.66.69,1.64,1.64,0,0,0-.18.84,1.83,1.83,0,0,0,.55,1.37A1.71,1.71,0,0,0,370.74,25.31Z"/><path class="cls-1" d="M385.72,11.65a4.68,4.68,0,0,1,1.67-3.85A6.5,6.5,0,0,1,391.52,6a10.56,10.56,0,0,1,1.46,0q.63.06,1.76.28l1.55.29a26.69,26.69,0,0,1,.6,4.55.32.32,0,0,1-.34.29q-.8,0-.87-.22a5.22,5.22,0,0,0-1.42-2.6,3.38,3.38,0,0,0-2.74-1.16,2.74,2.74,0,0,0-2.05.88,2.91,2.91,0,0,0-.62,2.12,3.34,3.34,0,0,0,.15.84,2.09,2.09,0,0,0,.46.76l.54.61a3.55,3.55,0,0,0,.78.6l.77.5c.13.09.44.27.92.53a9.06,9.06,0,0,0,.87.44,10.84,10.84,0,0,0,1,.59q.84.45,1.18.65c.23.14.56.37,1,.71a4.28,4.28,0,0,1,1,1,6.14,6.14,0,0,1,.58,1.17,5,5,0,0,1,.32,1.55,4.83,4.83,0,0,1-1.71,4,6.88,6.88,0,0,1-4.36,1.78,27.71,27.71,0,0,1-5.51-.54,26.1,26.1,0,0,1-.63-2.66,20.48,20.48,0,0,1-.33-2.11c0-.16.17-.25.46-.26.51,0,.81,0,.87.19a5.79,5.79,0,0,0,.48,1.15,8.63,8.63,0,0,0,.89,1.32A3.92,3.92,0,0,0,390,24.39a4.17,4.17,0,0,0,2,.36,3.33,3.33,0,0,0,2.27-1,3.2,3.2,0,0,0,.79-2.54,2.58,2.58,0,0,0-.25-1,3.44,3.44,0,0,0-.49-.78,4.39,4.39,0,0,0-.78-.67q-.51-.36-.85-.55l-1-.53-.93-.47a2,2,0,0,0-.34-.22l-1.35-.76q-.46-.27-1.19-.81a5.87,5.87,0,0,1-1.11-1,5.63,5.63,0,0,1-.71-1.21A4.46,4.46,0,0,1,385.72,11.65Z"/><path class="cls-1" d="M406.55,12a6.55,6.55,0,0,1,4.87,1.69,6.37,6.37,0,0,1,2.22,4.6,6.73,6.73,0,0,1-13.45.71,6.4,6.4,0,0,1,1.69-4.82A6.52,6.52,0,0,1,406.55,12Zm-.31,1.42a2.39,2.39,0,0,0-2.09,1.47,6.4,6.4,0,0,0-.6,3.26,8.67,8.67,0,0,0,1.19,4.13,3,3,0,0,0,2.78,1.64,2.42,2.42,0,0,0,2.11-1.48,6.33,6.33,0,0,0,.62-3.25,10.17,10.17,0,0,0-.54-2.84,5.25,5.25,0,0,0-1.36-2.15A2.76,2.76,0,0,0,406.24,13.39Z"/><path class="cls-1" d="M420.83,20.09a12.22,12.22,0,0,0,.35,2.66q.07.21.75.42a3.25,3.25,0,0,0,.92.2c.06,0,.1.13.13.41a1.59,1.59,0,0,1,0,.57l-1.12,0h-1.27l-1.07,0-1.13.09-1.24.14-1.12.13a.84.84,0,0,1-.15-.54c0-.29,0-.43.1-.44a3.19,3.19,0,0,0,1-.31q.65-.29.7-.5a9.76,9.76,0,0,0,.12-2.21l-.66-12.35a10.29,10.29,0,0,0-.29-2q-.17-.47-1.51-.4L415,6c-.12,0-.19-.11-.2-.35s0-.48.15-.48q.92-.14,1.74-.33c.55-.13,1-.25,1.36-.37s.67-.23.94-.33l.63-.26.2-.1h.06c.08,0,.17.05.26.17a.91.91,0,0,1,.18.29A9.39,9.39,0,0,0,420.14,7Z"/><path class="cls-1" d="M430.34,10.72a5.51,5.51,0,0,1,2.52.42,4.7,4.7,0,0,1,1.8,1.3,6.9,6.9,0,0,1,1,1.7,5.14,5.14,0,0,1,.42,1.72q0,.65-.18.83a1.68,1.68,0,0,1-.9.21l-7.1.38c-.14,0-.21.07-.2.19a5.76,5.76,0,0,0,.5,2.06,4.08,4.08,0,0,0,1.41,1.68,3.49,3.49,0,0,0,2.28.62,8.05,8.05,0,0,0,.86-.09,4.43,4.43,0,0,0,.76-.19l.61-.23a2.51,2.51,0,0,0,.54-.3l.39-.27.57-.43a.48.48,0,0,1,.16.17.59.59,0,0,1,.11.29.91.91,0,0,1-.15.57,4.86,4.86,0,0,1-1.67,1.7,5.52,5.52,0,0,1-2.9,1,6,6,0,0,1-4.55-1.68,6.41,6.41,0,0,1-2.12-4.55,6.88,6.88,0,0,1,1.48-5A5.77,5.77,0,0,1,430.34,10.72Zm-.14,1.38a2.1,2.1,0,0,0-1.26.48,2.81,2.81,0,0,0-.81,1.05,5.8,5.8,0,0,0-.37,1.14,3.6,3.6,0,0,0-.09.88c0,.14.07.2.19.2l4.81-.26q.27,0,.24-.46a3.85,3.85,0,0,0-.81-2.07A2.13,2.13,0,0,0,430.21,12.09Z"/><path class="cls-1" d="M443.26,19a10.92,10.92,0,0,0,.38,2.66q.07.21.82.39a4.36,4.36,0,0,0,1,.17c.08,0,.13.14.16.42a1.71,1.71,0,0,1,0,.58l-1.6,0q-1.38,0-2,0t-2.09.2l-1.55.2a.87.87,0,0,1-.15-.56q0-.45.1-.45a4.29,4.29,0,0,0,1.06-.28q.73-.26.78-.47a9.75,9.75,0,0,0,.09-2.18L440,14.79a2.83,2.83,0,0,0-.58-1.87,1.65,1.65,0,0,0-.71-.41,3.14,3.14,0,0,0-.72-.14c-.2,0-.3,0-.3-.07,0-.57,0-.87.13-.9a22.81,22.81,0,0,0,2.39-.48,23.2,23.2,0,0,0,2.32-.66l.23-.07c.1,0,.18.06.25.2a.54.54,0,0,1,.08.32,25.52,25.52,0,0,0-.1,2.57ZM439.52,6.7a1.81,1.81,0,0,1-.6-1.28,1.83,1.83,0,0,1,1.74-1.92A1.78,1.78,0,0,1,442,4a1.76,1.76,0,0,1,.6,1.26,1.81,1.81,0,0,1-.46,1.33,1.83,1.83,0,0,1-2.61.14Z"/><path class="cls-1" d="M456.42,9.33a3.21,3.21,0,0,1,2,.48,3.48,3.48,0,0,1,1.27,1.44,7,7,0,0,1,2.09-1.6,6.68,6.68,0,0,1,2.76-.74,3.36,3.36,0,0,1,1.85.38,3.28,3.28,0,0,1,1.26,1.26,7,7,0,0,1,.72,1.81,11.39,11.39,0,0,1,.31,2.14l.17,3.12a12.4,12.4,0,0,0,.35,2.66q.07.21.82.39a4.39,4.39,0,0,0,1,.17c.06,0,.1.14.13.42a1.71,1.71,0,0,1,0,.58l-1.56,0q-1.36,0-2,0t-2,.2l-1.58.2a1.12,1.12,0,0,1-.12-.56c0-.3,0-.45.07-.45a4,4,0,0,0,1.06-.28c.47-.17.72-.33.75-.47a9.26,9.26,0,0,0,.1-2.09l-.16-3q-.23-4.3-3-4.16a2.71,2.71,0,0,0-1.61.56,1.86,1.86,0,0,0-.72,1c0,.06,0,.14,0,.24a.57.57,0,0,0,0,.24,14.45,14.45,0,0,1,.19,1.84l.17,3.15A11.61,11.61,0,0,0,461,20.7q.07.21.82.39a4.36,4.36,0,0,0,1,.17c.06,0,.1.14.13.42a1.68,1.68,0,0,1,0,.58l-1.57,0q-1.35,0-2,0t-2,.2l-1.58.2a1.11,1.11,0,0,1-.12-.56c0-.3,0-.45.07-.45a4,4,0,0,0,1.06-.28q.7-.26.75-.47a9.75,9.75,0,0,0,.09-2.18l-.15-2.85a6.32,6.32,0,0,0-.86-3.32,2.27,2.27,0,0,0-2.08-.93,2.84,2.84,0,0,0-1.6.59,1.4,1.4,0,0,0-.68,1.17l.27,5.11a10.91,10.91,0,0,0,.38,2.66c0,.14.31.27.79.39a4,4,0,0,0,1,.17c.08,0,.13.14.16.42a1.71,1.71,0,0,1,0,.58l-1.57,0q-1.33,0-2,0t-2.07.2l-1.57.2a.88.88,0,0,1-.15-.56q0-.44.1-.45a4.29,4.29,0,0,0,1.06-.28q.73-.26.78-.47a9.81,9.81,0,0,0,.09-2.18l-.26-4.84a2.83,2.83,0,0,0-.58-1.87,1.44,1.44,0,0,0-.69-.41,3.33,3.33,0,0,0-.74-.14q-.3,0-.3-.07,0-.86.13-.9a41,41,0,0,0,4.7-1.14.19.19,0,0,1,.09,0l.15,0c.1,0,.18.06.25.19a.54.54,0,0,1,.08.32,10.1,10.1,0,0,0-.06,1.07c0,.08,0,.13.07.15a.43.43,0,0,0,.14-.1A6.61,6.61,0,0,1,454.18,10,5.2,5.2,0,0,1,456.42,9.33Z"/><path class="cls-1" d="M478.31,8.17a3.65,3.65,0,0,1,2.81.82,4.75,4.75,0,0,1,1.1,3.26l.31,5.85a1.36,1.36,0,0,0,.32.89.89.89,0,0,0,.73.27,1.86,1.86,0,0,0,1-.44c.12,0,.19.14.2.32a1.76,1.76,0,0,1-.13.9,7.39,7.39,0,0,1-1.15.81,3.11,3.11,0,0,1-1.41.46,2.17,2.17,0,0,1-1.36-.43,2.43,2.43,0,0,1-.92-1.05l-.21.21c-.12.12-.29.26-.51.43a8.6,8.6,0,0,1-.75.52,4.79,4.79,0,0,1-1,.45,4.28,4.28,0,0,1-1.16.23A3.55,3.55,0,0,1,473.7,21a2.82,2.82,0,0,1-1.05-2.19,2.76,2.76,0,0,1,.27-1.35,3.58,3.58,0,0,1,.76-1.07,6.12,6.12,0,0,1,1.24-.85,12.35,12.35,0,0,1,1.35-.65l1.46-.54,1.24-.45a.47.47,0,0,0,.24-.49l-.09-1.63a2.56,2.56,0,0,0-.56-1.61,1.55,1.55,0,0,0-1.31-.53,1.8,1.8,0,0,0-1.37.62,2.22,2.22,0,0,0-.42,1.59,1,1,0,0,1-.4.9,1.85,1.85,0,0,1-1,.34,1.68,1.68,0,0,1-1.58-.63q-.07-1.43,1.8-2.77A7.46,7.46,0,0,1,478.31,8.17Zm-.73,11.47a2.31,2.31,0,0,0,1.36-.49,1.18,1.18,0,0,0,.53-1l-.16-3c-.14.07-.42.18-.86.34s-.77.3-1,.41a8.09,8.09,0,0,0-.81.46A1.8,1.8,0,0,0,476,17a1.64,1.64,0,0,0-.18.84,1.83,1.83,0,0,0,.55,1.37A1.71,1.71,0,0,0,477.58,19.64Z"/><path class="cls-1" d="M495.51,7.26q3.83-.2,4.15,5.88l.15,2.82a12.41,12.41,0,0,0,.35,2.66q.07.21.84.39a4.54,4.54,0,0,0,1,.17c.06,0,.1.14.13.42a1.71,1.71,0,0,1,0,.58c-.12,0-.64,0-1.57,0s-1.61,0-2.07,0-1.13.09-2,.19l-1.52.2a.88.88,0,0,1-.15-.56q0-.44.1-.45a3.53,3.53,0,0,0,1-.28q.65-.26.7-.47a8.58,8.58,0,0,0,.12-2.18l-.15-2.82a6.46,6.46,0,0,0-.85-3.41,2.39,2.39,0,0,0-2.17-.87,2.74,2.74,0,0,0-1.63.61,1.43,1.43,0,0,0-.65,1.15l.27,5.11a12.41,12.41,0,0,0,.35,2.66q.07.21.81.39a4.27,4.27,0,0,0,1,.17c.08,0,.13.14.16.42a1.71,1.71,0,0,1,0,.58l-1.57,0q-1.33,0-2,0t-2.06.2l-1.58.2a.87.87,0,0,1-.15-.56q0-.44.1-.45a4.13,4.13,0,0,0,1.07-.28c.48-.17.73-.33.76-.47a9.75,9.75,0,0,0,.09-2.18l-.26-4.84a2.84,2.84,0,0,0-.58-1.87,1.45,1.45,0,0,0-.69-.41,3.4,3.4,0,0,0-.72-.14c-.19,0-.29,0-.29-.07q0-.86.1-.9a42.08,42.08,0,0,0,4.73-1.14l.07,0,.09,0h.07c.08,0,.15.06.22.2a.89.89,0,0,1,.11.32,9.83,9.83,0,0,0-.06,1.07.24.24,0,0,0,0,.15.44.44,0,0,0,.14-.1,6.59,6.59,0,0,1,1.76-1.34A5.19,5.19,0,0,1,495.51,7.26Z"/><path class="cls-1" d="M509.2,15.46a10.92,10.92,0,0,0,.38,2.66q.07.21.82.39a4.38,4.38,0,0,0,1,.17c.08,0,.13.14.16.42a1.71,1.71,0,0,1,0,.58l-1.6,0q-1.38,0-2,0t-2.09.2l-1.55.2a.87.87,0,0,1-.15-.56q0-.45.1-.45a4.33,4.33,0,0,0,1.06-.28q.73-.26.78-.47a9.74,9.74,0,0,0,.09-2.18l-.26-4.84a2.83,2.83,0,0,0-.58-1.88,1.65,1.65,0,0,0-.71-.41,3.11,3.11,0,0,0-.72-.14c-.2,0-.3,0-.3-.07,0-.57,0-.87.13-.9a22.91,22.91,0,0,0,2.39-.48,23.36,23.36,0,0,0,2.32-.66l.23-.07c.1,0,.18.06.25.2a.54.54,0,0,1,.08.32,25.53,25.53,0,0,0-.1,2.57ZM505.45,3.2a1.81,1.81,0,0,1-.6-1.28,1.76,1.76,0,0,1,.47-1.32,1.84,1.84,0,0,1,3.21,1.12,1.81,1.81,0,0,1-.46,1.33,1.83,1.83,0,0,1-2.61.14Z"/><path class="cls-1" d="M5.9,68.61a3.65,3.65,0,0,1,2.8.87,4.75,4.75,0,0,1,1,3.28l.21,5.85a1.36,1.36,0,0,0,.3.9.89.89,0,0,0,.72.29,1.86,1.86,0,0,0,1-.42c.12,0,.18.14.19.32a1.76,1.76,0,0,1-.15.9,7.35,7.35,0,0,1-1.16.79,3.1,3.1,0,0,1-1.41.44,2.17,2.17,0,0,1-1.36-.46,2.44,2.44,0,0,1-.9-1.07l-.21.2q-.19.17-.52.42a8.6,8.6,0,0,1-.76.5,4.73,4.73,0,0,1-1,.44,4.32,4.32,0,0,1-1.17.2,3.55,3.55,0,0,1-2.45-.73,2.83,2.83,0,0,1-1-2.21,2.75,2.75,0,0,1,.29-1.35,3.55,3.55,0,0,1,.78-1.05,6.07,6.07,0,0,1,1.25-.83,12.29,12.29,0,0,1,1.36-.63l1.47-.51,1.25-.43a.47.47,0,0,0,.25-.48l-.06-1.63a2.56,2.56,0,0,0-.53-1.62A1.55,1.55,0,0,0,4.81,70a1.8,1.8,0,0,0-1.38.6A2.22,2.22,0,0,0,3,72.19a1,1,0,0,1-.42.89,1.84,1.84,0,0,1-1,.32A1.68,1.68,0,0,1,0,72.74Q0,71.32,1.85,70A7.45,7.45,0,0,1,5.9,68.61ZM5,80.06a2.31,2.31,0,0,0,1.37-.46,1.18,1.18,0,0,0,.54-1l-.11-3q-.2.1-.87.33t-1,.39a8.06,8.06,0,0,0-.82.45,1.8,1.8,0,0,0-.68.68,1.64,1.64,0,0,0-.19.84,1.83,1.83,0,0,0,.53,1.38A1.71,1.71,0,0,0,5,80.06Z"/><path class="cls-1" d="M23.1,68q3.83-.13,4,6l.1,2.82a12.41,12.41,0,0,0,.3,2.67c0,.14.32.27.83.4a4.59,4.59,0,0,0,1,.19c.06,0,.1.14.12.43a1.67,1.67,0,0,1,0,.58q-.18,0-1.56-.06t-2.07,0q-.71,0-2,.16l-1.53.17a.88.88,0,0,1-.14-.56q0-.45.1-.45a3.55,3.55,0,0,0,1-.26c.44-.16.68-.32.71-.46a8.52,8.52,0,0,0,.16-2.18l-.1-2.82a6.45,6.45,0,0,0-.79-3.42,2.39,2.39,0,0,0-2.16-.91,2.75,2.75,0,0,0-1.65.58A1.43,1.43,0,0,0,18.84,72L19,77.07a12.54,12.54,0,0,0,.3,2.67q.07.21.8.4a4.3,4.3,0,0,0,1,.19c.08,0,.13.14.15.43a1.69,1.69,0,0,1,0,.58l-1.56-.06q-1.33,0-2,0t-2.06.16L14,81.59a.88.88,0,0,1-.14-.56c0-.3,0-.45.1-.45A4.15,4.15,0,0,0,15,80.32q.72-.25.77-.46a9.73,9.73,0,0,0,.13-2.18l-.17-4.84A2.82,2.82,0,0,0,15.24,71a1.43,1.43,0,0,0-.68-.42,3.38,3.38,0,0,0-.72-.15c-.19,0-.28,0-.29-.08,0-.57,0-.87.12-.9a42,42,0,0,0,4.75-1.06l.07,0,.09,0h.07c.08,0,.15.06.22.2a.92.92,0,0,1,.1.32,10.12,10.12,0,0,0-.08,1.07c0,.08,0,.13,0,.15a.44.44,0,0,0,.14-.09,6.61,6.61,0,0,1,1.78-1.31A5.22,5.22,0,0,1,23.1,68Z"/><path class="cls-1" d="M37.73,67.43a5.12,5.12,0,0,1,2.18.34c.1,0,.14-.16.13-.48l-.1-2.79a10.37,10.37,0,0,0-.25-2q-.17-.47-1.56-.42H37.9c-.12,0-.18-.15-.2-.47s0-.48.16-.48q.89-.12,1.73-.3T41,60.48q.54-.17.94-.33l.6-.24.23-.08h.06a.32.32,0,0,1,.24.16.54.54,0,0,1,.13.31,11.35,11.35,0,0,0-.2,2.8l.46,13.07a11,11,0,0,0,.25,2.19.44.44,0,0,0,.31.32,1.84,1.84,0,0,0,.57.13l.57,0h.3a.62.62,0,0,1,.07.35q0,.59-.16.6-.42,0-1.05.16l-1.24.24-1.15.25-1.22.3q-.18,0-.2-.5l0-.5a.14.14,0,0,0,0-.12.06.06,0,0,0-.07,0A5,5,0,0,1,37.3,80.8a5.76,5.76,0,0,1-4.25-1.62,6,6,0,0,1-1.94-4.38A7,7,0,0,1,33,69.7,6.51,6.51,0,0,1,37.73,67.43Zm-.22,1.44a2.6,2.6,0,0,0-2.33,1.42,7,7,0,0,0-.68,3.62,7.16,7.16,0,0,0,1.06,3.9,2.92,2.92,0,0,0,2.63,1.32,2.47,2.47,0,0,0,1.62-.58,1.65,1.65,0,0,0,.58-1.34L40.17,71a2.08,2.08,0,0,0-.12-.62,2.75,2.75,0,0,0-.38-.69,1.89,1.89,0,0,0-.82-.6A3.16,3.16,0,0,0,37.51,68.87Z"/><path class="cls-1" d="M59.55,66.72a3.65,3.65,0,0,1,2.8.87,4.75,4.75,0,0,1,1,3.28l.21,5.85a1.35,1.35,0,0,0,.3.9.89.89,0,0,0,.72.29,1.86,1.86,0,0,0,1-.42c.12,0,.18.14.19.32a1.76,1.76,0,0,1-.15.9,7.33,7.33,0,0,1-1.16.79,3.11,3.11,0,0,1-1.41.44,2.18,2.18,0,0,1-1.35-.46,2.44,2.44,0,0,1-.9-1.07l-.22.2q-.19.17-.52.42a8.79,8.79,0,0,1-.76.5,4.76,4.76,0,0,1-1,.44,4.33,4.33,0,0,1-1.17.2,3.55,3.55,0,0,1-2.45-.73,2.83,2.83,0,0,1-1-2.21A2.75,2.75,0,0,1,54,75.87a3.56,3.56,0,0,1,.78-1.05A6.1,6.1,0,0,1,56,74a12.3,12.3,0,0,1,1.36-.63l1.47-.51,1.25-.43a.47.47,0,0,0,.25-.49L60.3,70.3a2.55,2.55,0,0,0-.53-1.62,1.56,1.56,0,0,0-1.3-.55,1.8,1.8,0,0,0-1.38.6,2.23,2.23,0,0,0-.45,1.58,1,1,0,0,1-.42.89,1.84,1.84,0,0,1-1,.32,1.67,1.67,0,0,1-1.57-.66q0-1.43,1.85-2.74A7.45,7.45,0,0,1,59.55,66.72Zm-.94,11.46A2.31,2.31,0,0,0,60,77.72a1.18,1.18,0,0,0,.55-1l-.11-3c-.14.06-.42.17-.87.33s-.78.28-1,.39a8.15,8.15,0,0,0-.82.44,1.8,1.8,0,0,0-.67.68,1.64,1.64,0,0,0-.19.84,1.83,1.83,0,0,0,.52,1.38A1.71,1.71,0,0,0,58.62,78.18Z"/><path class="cls-1" d="M76.76,66.12q3.83-.13,4,6l.1,2.82a12.53,12.53,0,0,0,.3,2.67q.07.21.83.4a4.6,4.6,0,0,0,1,.19c.06,0,.1.14.12.43a1.67,1.67,0,0,1,0,.58q-.18,0-1.56-.06t-2.07,0q-.71,0-2,.16L76,79.41a.88.88,0,0,1-.14-.56c0-.3,0-.45.1-.45a3.52,3.52,0,0,0,1-.26c.44-.16.68-.32.71-.46a8.51,8.51,0,0,0,.16-2.18l-.1-2.82A6.46,6.46,0,0,0,77,69.27a2.39,2.39,0,0,0-2.16-.91,2.75,2.75,0,0,0-1.65.58,1.43,1.43,0,0,0-.67,1.14l.18,5.11a12.53,12.53,0,0,0,.3,2.67c0,.14.31.27.8.4a4.26,4.26,0,0,0,1,.19c.08,0,.13.14.15.43a1.67,1.67,0,0,1,0,.58l-1.56-.06q-1.33,0-2,0t-2.06.16l-1.59.17a.88.88,0,0,1-.14-.56c0-.3,0-.45.1-.45a4.16,4.16,0,0,0,1.08-.26q.72-.25.77-.46a9.66,9.66,0,0,0,.13-2.18L69.43,71a2.82,2.82,0,0,0-.54-1.88,1.44,1.44,0,0,0-.68-.42,3.41,3.41,0,0,0-.72-.15c-.19,0-.28,0-.29-.08,0-.57,0-.87.12-.9a42,42,0,0,0,4.75-1.06l.07,0,.09,0h.07c.08,0,.15.06.21.2a.91.91,0,0,1,.1.32A10.13,10.13,0,0,0,72.54,68a.23.23,0,0,0,0,.15.45.45,0,0,0,.15-.09,6.59,6.59,0,0,1,1.78-1.31A5.21,5.21,0,0,1,76.76,66.12Z"/><path class="cls-1" d="M91.42,65.61a6.55,6.55,0,0,1,4.84,1.78A6.37,6.37,0,0,1,98.39,72a6.73,6.73,0,0,1-13.46.47,6.4,6.4,0,0,1,1.78-4.79A6.51,6.51,0,0,1,91.42,65.61ZM91.08,67A2.39,2.39,0,0,0,89,68.44a6.39,6.39,0,0,0-.66,3.25,8.67,8.67,0,0,0,1.11,4.15,3,3,0,0,0,2.75,1.69,2.42,2.42,0,0,0,2.14-1.44A6.33,6.33,0,0,0,95,72.86,10.21,10.21,0,0,0,94.48,70a5.24,5.24,0,0,0-1.33-2.17A2.75,2.75,0,0,0,91.08,67Z"/><path class="cls-1" d="M101.86,67.32l-1.81.06c-.14,0-.22-.25-.24-.77a.74.74,0,0,1,0-.27,8.3,8.3,0,0,0,2.23-1.65q.37-.4.82-.91t1-1.3a2.12,2.12,0,0,1,.57.05c.18,0,.27.09.27.15l.1,2.91,2.15-.06,1.47,0c.16,0,.24.08.25.26a2.89,2.89,0,0,1-.25,1.32l-3.57.13.25,7.16a2.82,2.82,0,0,0,.57,1.79,1.7,1.7,0,0,0,1.42.58,2.78,2.78,0,0,0,.62-.1,3.1,3.1,0,0,0,.53-.18l.38-.19.21-.1q.12,0,.28.26a.71.71,0,0,1,.13.38q-.17.42-1.23,1a4.69,4.69,0,0,1-2.1.62,3.75,3.75,0,0,1-2.67-.9,4,4,0,0,1-1.19-3Z"/><path class="cls-1" d="M120.49,64.58q3.8-.13,4,5.72l.11,3.06a10.92,10.92,0,0,0,.33,2.67c0,.14.29.27.8.4a4.52,4.52,0,0,0,1,.19c.06,0,.1.14.12.43a3,3,0,0,1,0,.58l-1.59-.06q-1.39,0-2,0t-2,.16l-1.56.17a1.11,1.11,0,0,1-.11-.56q0-.45.07-.45a3.57,3.57,0,0,0,1-.26c.44-.16.69-.32.74-.46a11.18,11.18,0,0,0,.1-2.17l-.1-2.91a6.2,6.2,0,0,0-.79-3.38,2.43,2.43,0,0,0-2.16-.86,2.84,2.84,0,0,0-1.62.56,1.4,1.4,0,0,0-.7,1.16l.18,5.11a10.86,10.86,0,0,0,.33,2.67q.07.21.8.4a4.19,4.19,0,0,0,1,.19c.06,0,.1.14.12.43a1.69,1.69,0,0,1,0,.58L117,77.85q-1.33,0-2,0t-2.06.16l-1.59.17a.88.88,0,0,1-.14-.56q0-.45.1-.45a4.15,4.15,0,0,0,1.08-.26q.72-.25.77-.46a9.63,9.63,0,0,0,.13-2.15l-.43-12.36a11.72,11.72,0,0,0-.22-2q-.17-.47-1.56-.42h-.27c-.12,0-.18-.15-.2-.47s0-.48.16-.48q.92-.12,1.74-.3t1.37-.35c.36-.11.68-.22.94-.33l.84-.33h.06a.32.32,0,0,1,.24.16.83.83,0,0,1,.16.31,9.57,9.57,0,0,0-.26,2.81l.21,6c0,.12,0,.18.13.17s.06,0,.12-.09a5.63,5.63,0,0,1,1.78-1.36A5.48,5.48,0,0,1,120.49,64.58Z"/><path class="cls-1" d="M134.34,64.1a5.52,5.52,0,0,1,2.51.46,4.7,4.7,0,0,1,1.77,1.34,6.89,6.89,0,0,1,1,1.72,5.14,5.14,0,0,1,.39,1.73c0,.44,0,.71-.19.83a1.69,1.69,0,0,1-.9.19l-7.1.25q-.21,0-.2.19a5.78,5.78,0,0,0,.46,2.07,4.09,4.09,0,0,0,1.38,1.71,3.5,3.5,0,0,0,2.27.66,8.18,8.18,0,0,0,.86-.07,4.47,4.47,0,0,0,.77-.18l.62-.22a2.55,2.55,0,0,0,.54-.29l.39-.27.58-.42a.49.49,0,0,1,.16.17.57.57,0,0,1,.1.29.91.91,0,0,1-.16.57,4.84,4.84,0,0,1-1.7,1.67,5.52,5.52,0,0,1-2.91.91,6,6,0,0,1-4.52-1.76,6.41,6.41,0,0,1-2-4.58A6.87,6.87,0,0,1,130,66.12,5.76,5.76,0,0,1,134.34,64.1Zm-.16,1.37a2.1,2.1,0,0,0-1.26.46,2.8,2.8,0,0,0-.83,1,5.69,5.69,0,0,0-.39,1.13,3.6,3.6,0,0,0-.1.88c0,.14.07.21.19.2l4.81-.17c.18,0,.26-.16.25-.45a3.85,3.85,0,0,0-.77-2.08A2.13,2.13,0,0,0,134.18,65.47Z"/><path class="cls-1" d="M150.21,63.54a3,3,0,0,1,2.47.9q.09,2.53-1.34,2.58a1.77,1.77,0,0,1-1.18-.55,1.86,1.86,0,0,0-1.3-.55,1.59,1.59,0,0,0-1.41,1,4,4,0,0,0-.45,2l.13,3.71a12.49,12.49,0,0,0,.3,2.67q.07.21.8.4a4.24,4.24,0,0,0,1,.19q.09,0,.12.43a3.06,3.06,0,0,1,0,.58l-1.58-.06q-1.34,0-2,0t-2.06.16l-1.59.17a.88.88,0,0,1-.14-.56c0-.3,0-.45.1-.45a4.15,4.15,0,0,0,1.08-.26q.72-.25.77-.46a9.66,9.66,0,0,0,.13-2.18l-.17-4.84a2.83,2.83,0,0,0-.54-1.88,1.43,1.43,0,0,0-.68-.42,3.4,3.4,0,0,0-.72-.15c-.19,0-.28,0-.29-.08,0-.57,0-.87.12-.9a42,42,0,0,0,4.75-1.06l.24-.07c.08,0,.15.06.22.2a.72.72,0,0,1,.09.34c0,.09,0,.23,0,.42s0,.39-.05.6a3.82,3.82,0,0,0,0,.4,5.44,5.44,0,0,1,1.41-1.49A3.25,3.25,0,0,1,150.21,63.54Z"/><path class="cls-1" d="M167.78,62.86a5.11,5.11,0,0,1,2.18.34q.15,0,.13-.48l-.1-2.79a10.37,10.37,0,0,0-.25-2q-.17-.47-1.56-.42H168q-.18,0-.2-.47c0-.32,0-.48.16-.48q.89-.12,1.73-.3t1.39-.35q.54-.17.94-.33l.6-.24.24-.08h.06a.32.32,0,0,1,.24.16.53.53,0,0,1,.13.31,11.4,11.4,0,0,0-.2,2.8l.46,13.07a11,11,0,0,0,.26,2.19.44.44,0,0,0,.31.32,1.82,1.82,0,0,0,.57.13l.57,0h.3a.63.63,0,0,1,.07.35q0,.59-.16.6-.41,0-1,.16l-1.24.24-1.15.25-1.22.3q-.18,0-.2-.5l0-.51a.14.14,0,0,0,0-.12s-.06,0-.08,0a5,5,0,0,1-3.05,1.21,5.76,5.76,0,0,1-4.25-1.62,6,6,0,0,1-1.94-4.38A7,7,0,0,1,163,65.13,6.51,6.51,0,0,1,167.78,62.86Zm-.22,1.44a2.6,2.6,0,0,0-2.33,1.42,7,7,0,0,0-.68,3.62,7.17,7.17,0,0,0,1.06,3.9,2.92,2.92,0,0,0,2.63,1.32,2.47,2.47,0,0,0,1.62-.58,1.65,1.65,0,0,0,.58-1.34l-.22-6.24a2,2,0,0,0-.13-.62,2.73,2.73,0,0,0-.38-.69,1.9,1.9,0,0,0-.82-.6A3.15,3.15,0,0,0,167.56,64.3Z"/><path class="cls-1" d="M182.94,62.39a5.52,5.52,0,0,1,2.52.46,4.7,4.7,0,0,1,1.77,1.34,6.91,6.91,0,0,1,1,1.72,5.14,5.14,0,0,1,.39,1.73q0,.65-.19.82a1.69,1.69,0,0,1-.9.2l-7.1.25c-.14,0-.21.07-.2.19a5.78,5.78,0,0,0,.46,2.07,4.09,4.09,0,0,0,1.38,1.71,3.5,3.5,0,0,0,2.27.66,8.29,8.29,0,0,0,.86-.07,4.47,4.47,0,0,0,.77-.18l.62-.22a2.55,2.55,0,0,0,.54-.29l.39-.27.58-.42a.49.49,0,0,1,.16.17.56.56,0,0,1,.1.29.91.91,0,0,1-.16.57,4.85,4.85,0,0,1-1.7,1.67,5.51,5.51,0,0,1-2.91.91,6,6,0,0,1-4.52-1.76,6.41,6.41,0,0,1-2-4.58,6.88,6.88,0,0,1,1.57-4.93A5.76,5.76,0,0,1,182.94,62.39Zm-.16,1.37a2.1,2.1,0,0,0-1.26.46,2.81,2.81,0,0,0-.83,1,5.68,5.68,0,0,0-.39,1.13,3.6,3.6,0,0,0-.1.88q0,.21.18.2l4.81-.17c.18,0,.26-.16.25-.46a3.85,3.85,0,0,0-.77-2.08A2.13,2.13,0,0,0,182.78,63.76Z"/><path class="cls-1" d="M196.35,61.92a3.65,3.65,0,0,1,2.8.87,4.75,4.75,0,0,1,1,3.28l.21,5.85a1.36,1.36,0,0,0,.3.9.89.89,0,0,0,.72.29,1.85,1.85,0,0,0,1-.42c.12,0,.18.14.19.32a1.77,1.77,0,0,1-.15.9,7.37,7.37,0,0,1-1.16.79,3.09,3.09,0,0,1-1.41.44,2.17,2.17,0,0,1-1.35-.46,2.44,2.44,0,0,1-.9-1.07l-.22.2c-.13.11-.3.25-.52.42a8.9,8.9,0,0,1-.76.5,4.76,4.76,0,0,1-1,.44,4.32,4.32,0,0,1-1.17.2,3.55,3.55,0,0,1-2.45-.73,2.83,2.83,0,0,1-1-2.21,2.75,2.75,0,0,1,.29-1.35,3.56,3.56,0,0,1,.78-1.05,6.1,6.1,0,0,1,1.25-.83,12.46,12.46,0,0,1,1.36-.63l1.47-.51,1.25-.43a.47.47,0,0,0,.25-.48l-.06-1.63a2.55,2.55,0,0,0-.53-1.62,1.55,1.55,0,0,0-1.3-.55,1.81,1.81,0,0,0-1.38.6,2.23,2.23,0,0,0-.45,1.58,1,1,0,0,1-.41.89,1.84,1.84,0,0,1-1,.32,1.68,1.68,0,0,1-1.57-.66q0-1.43,1.85-2.74A7.45,7.45,0,0,1,196.35,61.92Zm-.94,11.46a2.31,2.31,0,0,0,1.37-.46,1.18,1.18,0,0,0,.55-1l-.11-3q-.21.1-.87.33t-1,.39a8,8,0,0,0-.82.45,1.79,1.79,0,0,0-.68.68,1.63,1.63,0,0,0-.19.84,1.83,1.83,0,0,0,.52,1.38A1.71,1.71,0,0,0,195.41,73.37Z"/><path class="cls-1" d="M212.55,61.35a3,3,0,0,1,2.47.9q.09,2.53-1.34,2.58a1.77,1.77,0,0,1-1.18-.55,1.86,1.86,0,0,0-1.3-.55,1.59,1.59,0,0,0-1.41,1,4,4,0,0,0-.45,2l.13,3.71a12.47,12.47,0,0,0,.3,2.67c0,.14.31.27.8.4a4.26,4.26,0,0,0,1,.19c.06,0,.1.14.12.43a3.09,3.09,0,0,1,0,.58l-1.58-.06q-1.34,0-2,0t-2.06.16l-1.59.17a.88.88,0,0,1-.14-.56c0-.3,0-.45.1-.45a4.16,4.16,0,0,0,1.08-.26q.72-.25.77-.46A9.66,9.66,0,0,0,206.4,71l-.17-4.84a2.82,2.82,0,0,0-.54-1.88,1.43,1.43,0,0,0-.68-.42,3.37,3.37,0,0,0-.72-.15c-.19,0-.28,0-.29-.08,0-.57,0-.87.12-.9a42,42,0,0,0,4.75-1.06l.24-.07c.08,0,.15.06.22.2a.72.72,0,0,1,.09.34c0,.09,0,.23,0,.42s0,.39-.05.6a3.81,3.81,0,0,0,0,.4,5.46,5.46,0,0,1,1.41-1.49A3.25,3.25,0,0,1,212.55,61.35Z"/><path class="cls-1" d="M231.64,53.15a5.85,5.85,0,0,1,2.08.24,2.08,2.08,0,0,1,1.11.72,3.33,3.33,0,0,1-.11,1.65,1.07,1.07,0,0,1-1.06.77,1.16,1.16,0,0,1-.92-.46q-.42-.48-.88-1a1.37,1.37,0,0,0-1.06-.45,1.59,1.59,0,0,0-1.31.82,5,5,0,0,0-.69,1.9,12.07,12.07,0,0,0-.14,2.41l0,1.37s0,0,.06.09a.17.17,0,0,0,.12.06l3.27-.12a.24.24,0,0,1,.15,0,.33.33,0,0,1,0,.18,3.07,3.07,0,0,1-.31,1.38l-3.09.11a.16.16,0,0,0-.17.18L229,69.7a11.35,11.35,0,0,0,.33,2.67q.07.21.8.4a4.2,4.2,0,0,0,1,.19c.06,0,.1.14.12.43a1.71,1.71,0,0,1,0,.58q-.18,0-1.55-.06t-2.08,0q-.71,0-2,.16l-1.54.17a.56.56,0,0,1-.13-.32,1.79,1.79,0,0,1,0-.46c0-.15.05-.22.11-.23a4,4,0,0,0,1-.26q.71-.25.76-.46A9.81,9.81,0,0,0,226,70l-.24-6.83c0-.14-.07-.21-.19-.2l-1.78.06s-.06-.06-.07-.18a1.59,1.59,0,0,1,.38-.88,1.2,1.2,0,0,1,.93-.57l.48,0a.16.16,0,0,0,.17-.18v-.3a8.08,8.08,0,0,1,1.67-5.41A5.56,5.56,0,0,1,231.64,53.15Z"/><path class="cls-1" d="M242.81,60.29a3,3,0,0,1,2.47.89q.09,2.53-1.34,2.58a1.76,1.76,0,0,1-1.18-.55,1.86,1.86,0,0,0-1.3-.55,1.59,1.59,0,0,0-1.41,1,4,4,0,0,0-.45,2l.13,3.71A12.53,12.53,0,0,0,240,72q.07.21.8.4a4.17,4.17,0,0,0,1,.19c.06,0,.1.14.12.43a3.09,3.09,0,0,1,0,.58l-1.58-.06q-1.34,0-2,0t-2.06.16l-1.59.17a.87.87,0,0,1-.14-.56c0-.3,0-.45.1-.45a4.2,4.2,0,0,0,1.08-.26q.72-.25.77-.46a9.65,9.65,0,0,0,.13-2.18l-.17-4.84a2.83,2.83,0,0,0-.54-1.88,1.43,1.43,0,0,0-.68-.42,3.38,3.38,0,0,0-.72-.15c-.19,0-.28,0-.29-.08,0-.57,0-.87.12-.9a42.07,42.07,0,0,0,4.75-1.06l.24-.07c.08,0,.15.06.21.2a.72.72,0,0,1,.09.34c0,.09,0,.23,0,.42s0,.39-.05.6a3.81,3.81,0,0,0,0,.4A5.47,5.47,0,0,1,241,61,3.25,3.25,0,0,1,242.81,60.29Z"/><path class="cls-1" d="M252.79,68.86a11,11,0,0,0,.33,2.67q.07.21.82.4a4.43,4.43,0,0,0,1,.19c.08,0,.13.14.15.43a1.72,1.72,0,0,1,0,.58l-1.59-.06q-1.38,0-2,0t-2.09.16l-1.55.17a.88.88,0,0,1-.14-.56c0-.3,0-.45.1-.45a4.3,4.3,0,0,0,1.06-.26q.74-.25.79-.46a9.78,9.78,0,0,0,.13-2.18l-.17-4.84a2.83,2.83,0,0,0-.54-1.88,1.64,1.64,0,0,0-.7-.42,3.12,3.12,0,0,0-.72-.15c-.2,0-.3,0-.3-.08q0-.86.15-.9a22.79,22.79,0,0,0,2.39-.44,23.18,23.18,0,0,0,2.33-.62l.24-.07c.1,0,.18.06.24.2a.54.54,0,0,1,.07.32q-.17,1.91-.15,2.56Zm-3.53-12.33a1.81,1.81,0,0,1-.58-1.29,1.83,1.83,0,0,1,1.78-1.89,1.78,1.78,0,0,1,1.33.49,1.76,1.76,0,0,1,.58,1.27,1.81,1.81,0,0,1-.49,1.33,1.83,1.83,0,0,1-2.61.09Z"/><path class="cls-1" d="M262.5,59.6a5.51,5.51,0,0,1,2.52.46,4.71,4.71,0,0,1,1.77,1.34,6.94,6.94,0,0,1,1,1.72,5.12,5.12,0,0,1,.39,1.73q0,.65-.19.82a1.68,1.68,0,0,1-.9.2l-7.1.25q-.21,0-.2.19a5.78,5.78,0,0,0,.46,2.07,4.08,4.08,0,0,0,1.38,1.71,3.51,3.51,0,0,0,2.27.66,8.15,8.15,0,0,0,.86-.07,4.46,4.46,0,0,0,.77-.18l.62-.21a2.49,2.49,0,0,0,.54-.29l.39-.27.58-.42a.48.48,0,0,1,.15.17.57.57,0,0,1,.1.29.91.91,0,0,1-.16.57,4.84,4.84,0,0,1-1.7,1.67,5.51,5.51,0,0,1-2.91.91,6,6,0,0,1-4.52-1.76,6.41,6.41,0,0,1-2-4.58,6.88,6.88,0,0,1,1.57-4.93A5.76,5.76,0,0,1,262.5,59.6ZM262.34,61a2.1,2.1,0,0,0-1.26.46,2.8,2.8,0,0,0-.83,1,5.82,5.82,0,0,0-.39,1.13,3.65,3.65,0,0,0-.1.88c0,.14.07.21.19.2l4.81-.17c.18,0,.26-.16.25-.46a3.85,3.85,0,0,0-.77-2.08A2.13,2.13,0,0,0,262.34,61Z"/><path class="cls-1" d="M279.38,59q3.83-.13,4,6l.1,2.82a12.33,12.33,0,0,0,.3,2.67q.07.21.83.4a4.54,4.54,0,0,0,1,.19c.06,0,.1.14.12.43a1.72,1.72,0,0,1,0,.58q-.18,0-1.56-.06t-2.07,0q-.71,0-2,.16l-1.53.17a.87.87,0,0,1-.14-.56c0-.3,0-.45.1-.45a3.55,3.55,0,0,0,1-.26c.44-.16.68-.32.71-.46a8.61,8.61,0,0,0,.16-2.18l-.1-2.82a6.45,6.45,0,0,0-.79-3.42,2.39,2.39,0,0,0-2.16-.91,2.74,2.74,0,0,0-1.64.58,1.43,1.43,0,0,0-.67,1.14l.18,5.11a12.41,12.41,0,0,0,.3,2.67c0,.14.31.27.8.4a4.28,4.28,0,0,0,1,.19q.12,0,.15.43a1.72,1.72,0,0,1,0,.58l-1.57-.06q-1.32,0-2,0t-2.06.16l-1.58.17a.87.87,0,0,1-.14-.56c0-.3,0-.45.1-.45a4.14,4.14,0,0,0,1.08-.26q.72-.25.77-.46a9.77,9.77,0,0,0,.13-2.18l-.17-4.84a2.84,2.84,0,0,0-.54-1.88,1.43,1.43,0,0,0-.68-.42,3.41,3.41,0,0,0-.72-.15c-.19,0-.28,0-.29-.08q0-.86.12-.9a42.06,42.06,0,0,0,4.75-1.06l.07,0,.09,0h.07c.08,0,.15.06.22.2a.89.89,0,0,1,.1.32,9.86,9.86,0,0,0-.08,1.07.24.24,0,0,0,0,.15.46.46,0,0,0,.15-.09,6.61,6.61,0,0,1,1.78-1.31A5.2,5.2,0,0,1,279.38,59Z"/><path class="cls-1" d="M294,58.43a5.1,5.1,0,0,1,2.18.34q.15,0,.13-.48l-.1-2.79a10.38,10.38,0,0,0-.25-2q-.17-.47-1.56-.42h-.24c-.12,0-.18-.15-.2-.47s0-.48.16-.48c.59-.08,1.17-.18,1.73-.3s1-.23,1.38-.35.68-.22.94-.33l.6-.24.24-.08h.06a.32.32,0,0,1,.24.16.55.55,0,0,1,.13.31,11.4,11.4,0,0,0-.2,2.8l.46,13.07a11,11,0,0,0,.26,2.19.44.44,0,0,0,.31.32,1.82,1.82,0,0,0,.57.13l.57,0h.3a.63.63,0,0,1,.07.35c0,.4,0,.6-.16.6q-.41,0-1.05.16l-1.24.24-1.15.25-1.22.3c-.12,0-.18-.16-.2-.5l0-.51a.13.13,0,0,0,0-.12.05.05,0,0,0-.07,0,5,5,0,0,1-3.05,1.21,5.76,5.76,0,0,1-4.25-1.62,6,6,0,0,1-1.94-4.38,7,7,0,0,1,1.86-5.11A6.51,6.51,0,0,1,294,58.43Zm-.22,1.44a2.6,2.6,0,0,0-2.33,1.42,7,7,0,0,0-.67,3.62,7.16,7.16,0,0,0,1.06,3.9,2.92,2.92,0,0,0,2.63,1.32,2.47,2.47,0,0,0,1.62-.58,1.65,1.65,0,0,0,.58-1.34L296.45,62a2.05,2.05,0,0,0-.13-.62,2.75,2.75,0,0,0-.38-.69,1.9,1.9,0,0,0-.82-.6A3.15,3.15,0,0,0,293.79,59.87Z"/><path class="cls-1" d="M305.48,71.71a2.63,2.63,0,0,0-.49-1.22,2.67,2.67,0,0,1-.49-1.28,1.8,1.8,0,0,1,.58-1.27,2.21,2.21,0,0,1,1.61-.68,1.94,1.94,0,0,1,1,.14,4.62,4.62,0,0,1,.49,2.07,5.3,5.3,0,0,1-.19,1.43,8.56,8.56,0,0,1-1.18,2.79,13.32,13.32,0,0,1-2.44,2.51h0q-.15,0-.43-.3a.89.89,0,0,1-.29-.51,4.28,4.28,0,0,1,.49-.49,5.44,5.44,0,0,0,1-1.33A3.55,3.55,0,0,0,305.48,71.71Z"/><path class="cls-1" d="M334.93,59.31a.85.85,0,0,0-.26-.6,1.3,1.3,0,0,0-.62-.34,5.4,5.4,0,0,0-.69-.12,4.31,4.31,0,0,0-.61,0h-.12c-.08,0-.13-.14-.15-.44s0-.48.06-.54q.39,0,1.58,0c.8,0,1.43,0,1.91,0s.94-.06,1.59-.15S338.72,57,339,57a1.84,1.84,0,0,1,.08.5c0,.3,0,.45-.1.45a3.39,3.39,0,0,0-1.16.41,1.82,1.82,0,0,0-1,.94L332.8,70a1.17,1.17,0,0,1-.39.44,1,1,0,0,1-.57.21.37.37,0,0,1-.39-.19l-3.91-8.07-2.91,7.87a1.6,1.6,0,0,1-.33.43.89.89,0,0,1-.63.26.44.44,0,0,1-.42-.19q-.74-1.52-1.75-3.7t-1.85-3.85q-.83-1.67-1.91-3.62a1.36,1.36,0,0,0-.79-.57,2.86,2.86,0,0,0-1-.17q-.12,0-.14-.47t.1-.51q.3,0,1.5,0t1.89,0q.68,0,2-.16l1.54-.14a1.6,1.6,0,0,1,.08.53c0,.26,0,.4-.07.42a3.53,3.53,0,0,0-1,.24q-.63.23-.62.65s1.07,2.28,3.21,6.73q.3-.84.69-1.91l.6-1.63.41-1.13c.13-.38.23-.67.28-.86a1.65,1.65,0,0,0,.08-.37,2.18,2.18,0,0,0-.43-1.17,1.41,1.41,0,0,0-.67-.45,2.37,2.37,0,0,0-1.08-.14c-.08,0-.12-.14-.13-.43s0-.46.1-.52.71,0,1.47,0,1.38,0,1.86,0,1.08-.07,1.93-.16l1.51-.14a1.44,1.44,0,0,1,.06.55c0,.29,0,.43-.09.43q-1.51.05-1.48,1.09,0,.56,3,6.5.43-1.26,1.07-3t.94-2.53A4,4,0,0,0,334.93,59.31Z"/><path class="cls-1" d="M350.45,56.51q3.8-.13,4,5.72l.11,3.06A10.86,10.86,0,0,0,354.9,68q0,.21.8.4a4.54,4.54,0,0,0,1,.19c.06,0,.1.14.12.43a3.18,3.18,0,0,1,0,.58l-1.59-.06c-.92,0-1.6,0-2,0s-1.16.07-2,.16l-1.55.17a1.11,1.11,0,0,1-.11-.56c0-.3,0-.45.07-.45a3.54,3.54,0,0,0,1-.26q.66-.25.74-.46a11.42,11.42,0,0,0,.1-2.17l-.1-2.91a6.21,6.21,0,0,0-.79-3.38,2.43,2.43,0,0,0-2.16-.86,2.85,2.85,0,0,0-1.62.56,1.4,1.4,0,0,0-.7,1.16l.18,5.11a10.87,10.87,0,0,0,.33,2.67q.07.21.8.4a4.19,4.19,0,0,0,1,.19c.06,0,.1.14.12.43a1.69,1.69,0,0,1,0,.58L347,69.78q-1.32,0-2,0t-2.06.16l-1.58.17a.87.87,0,0,1-.14-.56c0-.3,0-.45.1-.45a4.19,4.19,0,0,0,1.08-.26q.72-.25.77-.46a9.63,9.63,0,0,0,.13-2.15l-.43-12.36a11.62,11.62,0,0,0-.22-2q-.17-.47-1.56-.42h-.27q-.18,0-.19-.47c0-.32,0-.48.16-.48q.92-.12,1.75-.3t1.37-.35c.36-.11.68-.22.94-.33l.84-.33h.06a.32.32,0,0,1,.24.16.85.85,0,0,1,.16.31,9.57,9.57,0,0,0-.26,2.81l.21,6c0,.12,0,.18.12.17s.06,0,.12-.09a5.66,5.66,0,0,1,1.78-1.36A5.47,5.47,0,0,1,350.45,56.51Z"/><path class="cls-1" d="M364.93,56a6.56,6.56,0,0,1,4.84,1.78,6.37,6.37,0,0,1,2.14,4.64,6.78,6.78,0,1,1-7-6.42Zm-.34,1.41a2.39,2.39,0,0,0-2.12,1.43,6.4,6.4,0,0,0-.66,3.25,8.66,8.66,0,0,0,1.11,4.15,3,3,0,0,0,2.75,1.69,2.42,2.42,0,0,0,2.13-1.44,6.31,6.31,0,0,0,.67-3.24A10.17,10.17,0,0,0,368,60.4a5.25,5.25,0,0,0-1.33-2.17A2.76,2.76,0,0,0,364.59,57.41Z"/><path class="cls-1" d="M398.8,57.07a.86.86,0,0,0-.26-.6,1.31,1.31,0,0,0-.62-.33,5.3,5.3,0,0,0-.69-.12,4.23,4.23,0,0,0-.61,0h-.12q-.12,0-.15-.44c0-.3,0-.48.06-.54q.39,0,1.58,0t1.91,0q.62,0,1.59-.15c.64-.08,1.11-.13,1.41-.14a1.84,1.84,0,0,1,.08.5c0,.3,0,.45-.1.45a3.38,3.38,0,0,0-1.16.41,1.82,1.82,0,0,0-1,.94l-4,10.64a1.18,1.18,0,0,1-.39.44,1,1,0,0,1-.57.21.37.37,0,0,1-.39-.19l-3.91-8.07L388.51,68a1.59,1.59,0,0,1-.33.43.89.89,0,0,1-.63.26.44.44,0,0,1-.42-.19q-.74-1.52-1.75-3.7t-1.85-3.85q-.83-1.67-1.91-3.62a1.37,1.37,0,0,0-.79-.57,2.86,2.86,0,0,0-1-.17c-.08,0-.12-.15-.14-.47s0-.45.1-.51.7,0,1.5,0,1.43,0,1.89,0,1.13-.07,2-.16l1.54-.14a1.61,1.61,0,0,1,.08.53c0,.26,0,.4-.07.42a3.51,3.51,0,0,0-1,.24q-.63.23-.62.65s1.07,2.28,3.21,6.73q.3-.84.69-1.91l.6-1.63.41-1.13c.13-.38.23-.67.28-.86a1.64,1.64,0,0,0,.08-.37,2.18,2.18,0,0,0-.43-1.17,1.41,1.41,0,0,0-.67-.45,2.37,2.37,0,0,0-1.08-.14c-.08,0-.12-.14-.13-.43s0-.46.1-.52.71,0,1.47,0,1.38,0,1.86,0,1.08-.07,1.93-.16l1.51-.14a1.44,1.44,0,0,1,.06.55c0,.29,0,.43-.09.43q-1.52.05-1.48,1.09,0,.56,3,6.5.43-1.26,1.07-3t.94-2.53A3.94,3.94,0,0,0,398.8,57.07Z"/><path class="cls-1" d="M410.85,54.39a3.65,3.65,0,0,1,2.8.87,4.75,4.75,0,0,1,1,3.28l.21,5.85a1.36,1.36,0,0,0,.3.9.89.89,0,0,0,.72.29,1.85,1.85,0,0,0,1-.42c.12,0,.18.14.19.32a1.76,1.76,0,0,1-.15.9,7.34,7.34,0,0,1-1.16.79,3.11,3.11,0,0,1-1.41.44,2.17,2.17,0,0,1-1.36-.46,2.43,2.43,0,0,1-.9-1.07l-.22.2q-.19.17-.52.42a8.6,8.6,0,0,1-.76.5,4.75,4.75,0,0,1-1,.44,4.34,4.34,0,0,1-1.17.2,3.55,3.55,0,0,1-2.45-.73,2.82,2.82,0,0,1-1-2.21,2.75,2.75,0,0,1,.29-1.35,3.55,3.55,0,0,1,.78-1.05,6.06,6.06,0,0,1,1.25-.83,12.29,12.29,0,0,1,1.36-.63l1.47-.51,1.25-.43a.47.47,0,0,0,.25-.48L411.6,58a2.55,2.55,0,0,0-.53-1.62,1.55,1.55,0,0,0-1.3-.55,1.81,1.81,0,0,0-1.38.6,2.22,2.22,0,0,0-.45,1.58,1,1,0,0,1-.41.89,1.85,1.85,0,0,1-1,.32,1.68,1.68,0,0,1-1.57-.66q0-1.43,1.85-2.74A7.45,7.45,0,0,1,410.85,54.39Zm-.94,11.46a2.3,2.3,0,0,0,1.37-.46,1.18,1.18,0,0,0,.55-1l-.11-3q-.21.1-.87.33t-1,.39a8.06,8.06,0,0,0-.82.45,1.8,1.8,0,0,0-.68.68,1.63,1.63,0,0,0-.19.84,1.83,1.83,0,0,0,.52,1.38A1.71,1.71,0,0,0,409.92,65.84Z"/><path class="cls-1" d="M428.06,53.78q3.83-.13,4,6l.1,2.82a12.35,12.35,0,0,0,.3,2.67q.07.21.83.4a4.57,4.57,0,0,0,1,.19c.06,0,.1.14.12.43a1.72,1.72,0,0,1,0,.58q-.18,0-1.56-.06t-2.07,0q-.71,0-2,.16l-1.53.17a.88.88,0,0,1-.14-.56q0-.45.1-.45a3.55,3.55,0,0,0,1-.26q.66-.25.71-.46a8.61,8.61,0,0,0,.16-2.18l-.1-2.82a6.45,6.45,0,0,0-.79-3.42,2.39,2.39,0,0,0-2.16-.91,2.74,2.74,0,0,0-1.64.58,1.43,1.43,0,0,0-.67,1.14l.18,5.11a12.41,12.41,0,0,0,.3,2.67c0,.14.31.27.8.4a4.3,4.3,0,0,0,1,.19c.08,0,.13.14.15.43a1.72,1.72,0,0,1,0,.58L424.62,67q-1.32,0-2,0t-2.06.16l-1.58.17a.88.88,0,0,1-.14-.56c0-.3,0-.45.1-.45A4.13,4.13,0,0,0,420,66.1q.72-.25.77-.46a9.84,9.84,0,0,0,.13-2.18l-.17-4.84a2.83,2.83,0,0,0-.54-1.88,1.44,1.44,0,0,0-.68-.42,3.38,3.38,0,0,0-.72-.15c-.19,0-.28,0-.29-.08q0-.86.12-.9a42,42,0,0,0,4.75-1.06l.07,0,.09,0h.07c.08,0,.15.06.21.2a.88.88,0,0,1,.1.32,9.85,9.85,0,0,0-.08,1.07.24.24,0,0,0,0,.15.45.45,0,0,0,.15-.09,6.61,6.61,0,0,1,1.78-1.31A5.21,5.21,0,0,1,428.06,53.78Z"/><path class="cls-1" d="M437.8,55.52l-1.81.06c-.14,0-.22-.25-.24-.76a.76.76,0,0,1,0-.27A8.31,8.31,0,0,0,438,52.9l.82-.91q.44-.51,1-1.3a2.09,2.09,0,0,1,.57.05c.18,0,.27.09.27.15l.1,2.91,2.15-.06,1.47,0c.16,0,.24.08.25.26a2.88,2.88,0,0,1-.25,1.32l-3.56.13.25,7.16a2.83,2.83,0,0,0,.57,1.79,1.7,1.7,0,0,0,1.42.57,2.79,2.79,0,0,0,.62-.1,3.17,3.17,0,0,0,.53-.18l.38-.19.21-.1c.08,0,.17.06.28.26s.15.32.13.38q-.16.42-1.23,1a4.69,4.69,0,0,1-2.1.62,3.75,3.75,0,0,1-2.66-.9,4,4,0,0,1-1.19-3Z"/><path class="cls-1" d="M452.8,52.91a5.52,5.52,0,0,1,2.52.46,4.71,4.71,0,0,1,1.77,1.34,6.94,6.94,0,0,1,1,1.72,5.12,5.12,0,0,1,.39,1.73q0,.65-.19.83a1.7,1.7,0,0,1-.9.2l-7.1.25q-.21,0-.2.19a5.78,5.78,0,0,0,.46,2.07,4.08,4.08,0,0,0,1.38,1.71,3.5,3.5,0,0,0,2.27.66,8.14,8.14,0,0,0,.86-.07,4.47,4.47,0,0,0,.77-.18l.62-.21a2.53,2.53,0,0,0,.54-.29l.39-.27.58-.42a.48.48,0,0,1,.15.17.58.58,0,0,1,.1.29.91.91,0,0,1-.16.57,4.83,4.83,0,0,1-1.7,1.67,5.51,5.51,0,0,1-2.91.91,6,6,0,0,1-4.52-1.76,6.41,6.41,0,0,1-2-4.58,6.88,6.88,0,0,1,1.57-4.93A5.76,5.76,0,0,1,452.8,52.91Zm-.16,1.37a2.1,2.1,0,0,0-1.26.46,2.79,2.79,0,0,0-.83,1,5.81,5.81,0,0,0-.39,1.13,3.65,3.65,0,0,0-.1.88c0,.14.07.21.19.2l4.81-.17c.18,0,.26-.16.25-.46a3.84,3.84,0,0,0-.77-2.08A2.13,2.13,0,0,0,452.64,54.29Z"/><path class="cls-1" d="M466.65,52.37a5.12,5.12,0,0,1,2.18.34q.15,0,.13-.48l-.1-2.79a10.37,10.37,0,0,0-.25-2q-.17-.47-1.56-.42h-.24c-.12,0-.18-.15-.2-.47s0-.48.16-.48c.59-.08,1.17-.18,1.73-.3s1-.23,1.38-.35.68-.22.94-.33l.6-.24.24-.08h.06a.32.32,0,0,1,.24.16.55.55,0,0,1,.13.31,11.4,11.4,0,0,0-.2,2.8l.46,13.07a10.94,10.94,0,0,0,.26,2.19.44.44,0,0,0,.31.32,1.82,1.82,0,0,0,.57.13l.57,0h.3a.63.63,0,0,1,.07.35q0,.59-.16.6-.41,0-1.05.16L472,65.1l-1.15.25-1.22.3q-.18,0-.2-.5l0-.51a.13.13,0,0,0,0-.12s-.06,0-.07,0a5,5,0,0,1-3.05,1.21A5.76,5.76,0,0,1,462,64.12,6,6,0,0,1,460,59.74a7,7,0,0,1,1.86-5.11A6.51,6.51,0,0,1,466.65,52.37Zm-.22,1.44a2.6,2.6,0,0,0-2.33,1.42,7,7,0,0,0-.67,3.62,7.16,7.16,0,0,0,1.06,3.9,2.92,2.92,0,0,0,2.63,1.32,2.47,2.47,0,0,0,1.62-.58,1.65,1.65,0,0,0,.58-1.34l-.22-6.24a2,2,0,0,0-.13-.62,2.77,2.77,0,0,0-.38-.69,1.92,1.92,0,0,0-.82-.6A3.16,3.16,0,0,0,466.43,53.8Z"/><path class="cls-1" d="M484,53.9l-1.81.06c-.14,0-.22-.25-.24-.77a.77.77,0,0,1,0-.27,8.31,8.31,0,0,0,2.23-1.65l.82-.91q.44-.51,1-1.3a2.07,2.07,0,0,1,.57.05c.18,0,.27.09.27.15l.1,2.91,2.16-.06,1.47,0c.16,0,.24.08.25.26a2.88,2.88,0,0,1-.25,1.32l-3.57.13.25,7.16a2.83,2.83,0,0,0,.57,1.79,1.7,1.7,0,0,0,1.42.58,2.83,2.83,0,0,0,.62-.1,3.13,3.13,0,0,0,.53-.18l.38-.19.21-.1c.08,0,.17.06.28.26s.15.32.13.38q-.16.42-1.23,1a4.69,4.69,0,0,1-2.1.62,3.75,3.75,0,0,1-2.66-.9,4,4,0,0,1-1.19-3Z"/><path class="cls-1" d="M499.65,51.27A6.56,6.56,0,0,1,504.49,53a6.37,6.37,0,0,1,2.14,4.64,6.78,6.78,0,1,1-7-6.42Zm-.34,1.41a2.39,2.39,0,0,0-2.12,1.43,6.39,6.39,0,0,0-.66,3.25,8.66,8.66,0,0,0,1.11,4.16,3,3,0,0,0,2.75,1.69,2.42,2.42,0,0,0,2.13-1.44,6.31,6.31,0,0,0,.67-3.24,10.17,10.17,0,0,0-.49-2.85,5.24,5.24,0,0,0-1.33-2.17A2.75,2.75,0,0,0,499.31,52.68Z"/><path class="cls-1" d="M523.52,50.43a3,3,0,0,1,2.47.89q.09,2.53-1.34,2.58a1.76,1.76,0,0,1-1.18-.55,1.86,1.86,0,0,0-1.3-.55,1.59,1.59,0,0,0-1.41,1,4,4,0,0,0-.45,2l.13,3.71a12.48,12.48,0,0,0,.3,2.67c0,.14.31.27.8.4a4.18,4.18,0,0,0,1,.19c.06,0,.1.14.12.43a3.18,3.18,0,0,1,0,.58l-1.58-.06q-1.34,0-2,0T517,63.8l-1.58.17a.87.87,0,0,1-.14-.56c0-.3,0-.45.1-.45a4.17,4.17,0,0,0,1.08-.26q.72-.25.77-.46a9.77,9.77,0,0,0,.13-2.18l-.17-4.84a2.83,2.83,0,0,0-.54-1.88,1.43,1.43,0,0,0-.68-.42,3.37,3.37,0,0,0-.72-.15c-.19,0-.28,0-.29-.08q0-.86.12-.9a42,42,0,0,0,4.75-1.06l.24-.07c.08,0,.15.06.21.2a.71.71,0,0,1,.09.34l0,.42c0,.19,0,.39-.05.6a3.81,3.81,0,0,0,0,.4,5.43,5.43,0,0,1,1.41-1.49A3.25,3.25,0,0,1,523.52,50.43Z"/><path class="cls-1" d="M534,50.06a5.51,5.51,0,0,1,2.51.46,4.71,4.71,0,0,1,1.77,1.34,6.93,6.93,0,0,1,1,1.72,5.14,5.14,0,0,1,.39,1.73q0,.65-.19.83a1.69,1.69,0,0,1-.9.19l-7.1.25q-.21,0-.2.19a5.8,5.8,0,0,0,.46,2.07,4.08,4.08,0,0,0,1.38,1.71,3.5,3.5,0,0,0,2.27.66,8,8,0,0,0,.86-.07,4.51,4.51,0,0,0,.77-.18l.62-.22a2.46,2.46,0,0,0,.54-.29l.39-.27.58-.42a.47.47,0,0,1,.15.17.57.57,0,0,1,.1.29.91.91,0,0,1-.16.57,4.84,4.84,0,0,1-1.7,1.67,5.52,5.52,0,0,1-2.91.91,6,6,0,0,1-4.52-1.76,6.4,6.4,0,0,1-2-4.58,6.88,6.88,0,0,1,1.57-4.93A5.76,5.76,0,0,1,534,50.06Zm-.16,1.37a2.11,2.11,0,0,0-1.26.46,2.81,2.81,0,0,0-.83,1,5.81,5.81,0,0,0-.39,1.13,3.65,3.65,0,0,0-.1.88c0,.14.07.21.19.2l4.81-.17c.18,0,.26-.16.25-.45a3.85,3.85,0,0,0-.77-2.08A2.13,2.13,0,0,0,533.83,51.43Z"/><path class="cls-1" d="M550.87,49.47a3.21,3.21,0,0,1,2,.51,3.47,3.47,0,0,1,1.24,1.46,7,7,0,0,1,2.12-1.56,6.68,6.68,0,0,1,2.77-.69,3.37,3.37,0,0,1,1.84.41A3.29,3.29,0,0,1,562,50.88a7,7,0,0,1,.69,1.82,11.24,11.24,0,0,1,.27,2.15L563.1,58a12.4,12.4,0,0,0,.3,2.67q.06.21.82.4a4.33,4.33,0,0,0,1,.19c.06,0,.1.14.12.43a1.71,1.71,0,0,1,0,.58l-1.56-.06q-1.35,0-2,0t-2,.16l-1.58.17a1.12,1.12,0,0,1-.11-.56q0-.45.07-.45a4,4,0,0,0,1.06-.26q.71-.25.76-.46a9.29,9.29,0,0,0,.13-2.09l-.11-3q-.15-4.31-2.92-4.21a2.72,2.72,0,0,0-1.62.53,1.87,1.87,0,0,0-.74.95c0,.06,0,.14,0,.24a.57.57,0,0,0,0,.24,14.52,14.52,0,0,1,.15,1.84l.11,3.15a11.64,11.64,0,0,0,.3,2.55q.07.21.82.4a4.37,4.37,0,0,0,1,.19c.06,0,.1.14.12.43a1.69,1.69,0,0,1,0,.58l-1.56-.06q-1.35,0-2,0t-2,.16l-1.58.17a1.11,1.11,0,0,1-.11-.56c0-.3,0-.45.07-.45A4,4,0,0,0,551,61.5q.71-.25.76-.46a9.77,9.77,0,0,0,.13-2.18l-.1-2.85a6.29,6.29,0,0,0-.8-3.33,2.26,2.26,0,0,0-2.06-1,2.84,2.84,0,0,0-1.62.56,1.4,1.4,0,0,0-.7,1.15l.18,5.11a10.92,10.92,0,0,0,.33,2.67q.07.21.79.4a4,4,0,0,0,1,.19c.08,0,.13.14.15.43a1.72,1.72,0,0,1,0,.58l-1.57-.06q-1.33,0-2,0t-2.08.16l-1.57.17a.88.88,0,0,1-.14-.56c0-.3,0-.45.1-.45a4.28,4.28,0,0,0,1.06-.26q.73-.25.79-.46a9.77,9.77,0,0,0,.13-2.18l-.17-4.84a2.83,2.83,0,0,0-.54-1.88,1.44,1.44,0,0,0-.68-.42,3.35,3.35,0,0,0-.73-.15c-.2,0-.3,0-.3-.08q0-.86.15-.9a41,41,0,0,0,4.72-1.06.2.2,0,0,1,.09,0l.15,0c.1,0,.18.06.25.2a.54.54,0,0,1,.07.32,10.13,10.13,0,0,0-.08,1.07c0,.08,0,.13.06.15a.45.45,0,0,0,.15-.09,6.58,6.58,0,0,1,1.78-1.31A5.21,5.21,0,0,1,550.87,49.47Z"/><path class="cls-1" d="M572.77,48.7a3.65,3.65,0,0,1,2.8.87,4.75,4.75,0,0,1,1,3.28l.21,5.85a1.35,1.35,0,0,0,.3.9.89.89,0,0,0,.72.29,1.84,1.84,0,0,0,1-.42c.12,0,.18.14.19.32a1.76,1.76,0,0,1-.15.9,7.31,7.31,0,0,1-1.16.78,3.11,3.11,0,0,1-1.41.44,2.18,2.18,0,0,1-1.35-.46,2.43,2.43,0,0,1-.9-1.07l-.22.2q-.19.17-.52.42a8.58,8.58,0,0,1-.75.5,4.79,4.79,0,0,1-1,.44,4.33,4.33,0,0,1-1.17.2,3.55,3.55,0,0,1-2.45-.73,2.82,2.82,0,0,1-1-2.21,2.74,2.74,0,0,1,.29-1.35,3.55,3.55,0,0,1,.78-1.05,6.06,6.06,0,0,1,1.25-.83,12.12,12.12,0,0,1,1.36-.63l1.47-.51,1.25-.43a.47.47,0,0,0,.25-.48l-.06-1.63a2.55,2.55,0,0,0-.53-1.62,1.55,1.55,0,0,0-1.3-.55,1.8,1.8,0,0,0-1.38.6,2.22,2.22,0,0,0-.45,1.58,1,1,0,0,1-.41.89,1.85,1.85,0,0,1-1,.32,1.68,1.68,0,0,1-1.57-.66q0-1.43,1.85-2.74A7.46,7.46,0,0,1,572.77,48.7Zm-.94,11.46a2.3,2.3,0,0,0,1.37-.46,1.17,1.17,0,0,0,.55-1l-.11-3q-.21.1-.87.33t-1,.39a8,8,0,0,0-.82.44,1.8,1.8,0,0,0-.68.68,1.64,1.64,0,0,0-.19.84,1.83,1.83,0,0,0,.52,1.38A1.71,1.71,0,0,0,571.84,60.15Z"/><path class="cls-1" d="M585.87,57.16a10.92,10.92,0,0,0,.33,2.67q.07.21.82.4a4.36,4.36,0,0,0,1,.19c.08,0,.13.14.15.43a1.73,1.73,0,0,1,0,.58l-1.59-.06q-1.38,0-2,0t-2.09.16l-1.55.17a.87.87,0,0,1-.14-.56c0-.3,0-.45.1-.45a4.32,4.32,0,0,0,1.06-.26q.74-.25.79-.46a9.77,9.77,0,0,0,.13-2.18l-.17-4.84a2.84,2.84,0,0,0-.54-1.88,1.65,1.65,0,0,0-.7-.42,3.16,3.16,0,0,0-.72-.15c-.2,0-.3,0-.3-.08q0-.86.15-.9a22.73,22.73,0,0,0,2.4-.44,23.15,23.15,0,0,0,2.33-.62l.24-.07c.1,0,.18.06.25.2a.54.54,0,0,1,.07.32q-.17,1.91-.15,2.56Zm-3.53-12.33a1.81,1.81,0,0,1-.58-1.29,1.76,1.76,0,0,1,.49-1.31,1.84,1.84,0,0,1,3.19,1.18,1.81,1.81,0,0,1-.49,1.33,1.83,1.83,0,0,1-2.62.09Z"/><path class="cls-1" d="M599.2,47.77q3.83-.13,4,6l.1,2.82a12.34,12.34,0,0,0,.3,2.67q.07.21.83.4a4.56,4.56,0,0,0,1,.19c.06,0,.1.14.12.43a1.72,1.72,0,0,1,0,.58q-.18,0-1.56-.06t-2.07,0q-.71,0-2,.16l-1.53.17a.87.87,0,0,1-.14-.56c0-.3,0-.45.1-.45a3.55,3.55,0,0,0,1-.26c.44-.16.68-.32.71-.46a8.61,8.61,0,0,0,.16-2.18l-.1-2.82a6.45,6.45,0,0,0-.79-3.42,2.39,2.39,0,0,0-2.16-.91,2.75,2.75,0,0,0-1.64.58,1.43,1.43,0,0,0-.67,1.14l.18,5.11a12.4,12.4,0,0,0,.3,2.67c0,.14.31.27.8.4a4.3,4.3,0,0,0,1,.19c.08,0,.13.14.15.43a1.72,1.72,0,0,1,0,.58L595.75,61q-1.32,0-2,0t-2.06.16l-1.58.17a.88.88,0,0,1-.14-.56c0-.3,0-.45.1-.45a4.09,4.09,0,0,0,1.08-.26q.72-.25.77-.46a9.84,9.84,0,0,0,.13-2.18l-.17-4.84a2.84,2.84,0,0,0-.54-1.88,1.43,1.43,0,0,0-.68-.42,3.41,3.41,0,0,0-.72-.15c-.19,0-.28,0-.29-.08q0-.86.12-.9a42,42,0,0,0,4.75-1.06l.07,0,.09,0h.07c.08,0,.15.06.22.2a.89.89,0,0,1,.1.32,9.84,9.84,0,0,0-.08,1.07.24.24,0,0,0,0,.15.45.45,0,0,0,.15-.09,6.61,6.61,0,0,1,1.78-1.31A5.21,5.21,0,0,1,599.2,47.77Z"/><path class="cls-1" d="M619.89,47a3.65,3.65,0,0,1,2.8.87,4.76,4.76,0,0,1,1,3.28l.21,5.85a1.36,1.36,0,0,0,.3.9.89.89,0,0,0,.72.29,1.85,1.85,0,0,0,1-.42q.18.05.19.32a1.77,1.77,0,0,1-.15.9,7.34,7.34,0,0,1-1.16.78,3.1,3.1,0,0,1-1.41.44,2.17,2.17,0,0,1-1.35-.46,2.43,2.43,0,0,1-.9-1.07l-.22.2q-.19.17-.52.42a8.6,8.6,0,0,1-.76.5,4.85,4.85,0,0,1-1,.44,4.32,4.32,0,0,1-1.17.2,3.55,3.55,0,0,1-2.45-.73,2.82,2.82,0,0,1-1-2.21,2.74,2.74,0,0,1,.29-1.35,3.55,3.55,0,0,1,.78-1.05,6.08,6.08,0,0,1,1.25-.83,12.12,12.12,0,0,1,1.36-.63l1.47-.51,1.25-.43a.47.47,0,0,0,.25-.48l-.06-1.63a2.55,2.55,0,0,0-.53-1.62,1.55,1.55,0,0,0-1.3-.55,1.8,1.8,0,0,0-1.38.6,2.22,2.22,0,0,0-.45,1.58,1,1,0,0,1-.42.89,1.86,1.86,0,0,1-1,.32,1.68,1.68,0,0,1-1.57-.66q0-1.43,1.85-2.74A7.46,7.46,0,0,1,619.89,47ZM619,58.5a2.3,2.3,0,0,0,1.37-.46,1.18,1.18,0,0,0,.55-1l-.11-3q-.21.1-.87.33t-1,.39a8,8,0,0,0-.82.44,1.8,1.8,0,0,0-.68.68,1.63,1.63,0,0,0-.19.84,1.83,1.83,0,0,0,.52,1.38A1.71,1.71,0,0,0,619,58.5Z"/><path class="cls-1" d="M637.1,46.44q3.83-.13,4,6l.1,2.82a12.33,12.33,0,0,0,.3,2.67q.07.21.83.4a4.54,4.54,0,0,0,1,.19c.06,0,.1.14.12.43a1.72,1.72,0,0,1,0,.58q-.18,0-1.56-.06t-2.07,0q-.71,0-2,.16l-1.53.17a.88.88,0,0,1-.14-.56q0-.45.1-.45a3.55,3.55,0,0,0,1-.26q.66-.25.71-.46a8.61,8.61,0,0,0,.16-2.18L638.1,53a6.45,6.45,0,0,0-.79-3.42,2.39,2.39,0,0,0-2.16-.91,2.74,2.74,0,0,0-1.64.58,1.43,1.43,0,0,0-.67,1.14l.18,5.11a12.42,12.42,0,0,0,.3,2.67c0,.14.31.27.8.4a4.28,4.28,0,0,0,1,.19q.12,0,.15.43a1.72,1.72,0,0,1,0,.58l-1.57-.06q-1.32,0-2,0t-2.06.16L628,60a.87.87,0,0,1-.14-.56c0-.3,0-.45.1-.45a4.13,4.13,0,0,0,1.08-.26q.72-.25.77-.46a9.84,9.84,0,0,0,.13-2.18l-.17-4.84a2.83,2.83,0,0,0-.54-1.88,1.43,1.43,0,0,0-.68-.42,3.4,3.4,0,0,0-.72-.15c-.19,0-.28,0-.29-.08q0-.86.12-.9a42.06,42.06,0,0,0,4.75-1.06l.07,0,.09,0h.07c.08,0,.15.06.21.2a.89.89,0,0,1,.1.32,9.86,9.86,0,0,0-.08,1.07.24.24,0,0,0,0,.15.46.46,0,0,0,.15-.09,6.61,6.61,0,0,1,1.78-1.31A5.2,5.2,0,0,1,637.1,46.44Z"/><path class="cls-1" d="M651.76,45.92a6.56,6.56,0,0,1,4.84,1.78,6.37,6.37,0,0,1,2.14,4.64,6.78,6.78,0,1,1-7-6.42Zm-.34,1.41a2.39,2.39,0,0,0-2.12,1.43,6.38,6.38,0,0,0-.66,3.25,8.66,8.66,0,0,0,1.11,4.16,3,3,0,0,0,2.75,1.69,2.42,2.42,0,0,0,2.13-1.44,6.31,6.31,0,0,0,.67-3.24,10.21,10.21,0,0,0-.49-2.85,5.24,5.24,0,0,0-1.33-2.17A2.76,2.76,0,0,0,651.42,47.33Z"/><path class="cls-1" d="M670.12,45.28q3.83-.13,4,6l.1,2.82a12.35,12.35,0,0,0,.3,2.67q.07.21.83.4a4.57,4.57,0,0,0,1,.19c.06,0,.1.14.12.43a1.72,1.72,0,0,1,0,.58c-.12,0-.64,0-1.56-.06s-1.61,0-2.07,0-1.13.07-2,.16l-1.53.17a.87.87,0,0,1-.14-.56c0-.3,0-.45.1-.45a3.56,3.56,0,0,0,1-.26q.66-.25.71-.46a8.66,8.66,0,0,0,.16-2.18l-.1-2.82a6.44,6.44,0,0,0-.79-3.42,2.39,2.39,0,0,0-2.16-.91,2.75,2.75,0,0,0-1.64.58,1.43,1.43,0,0,0-.67,1.14l.18,5.11a12.41,12.41,0,0,0,.3,2.67q.07.21.8.4a4.32,4.32,0,0,0,1,.19c.08,0,.13.14.15.43a1.72,1.72,0,0,1,0,.58l-1.57-.06q-1.32,0-2,0t-2.06.16l-1.58.17a.88.88,0,0,1-.14-.56c0-.3,0-.45.1-.45a4.08,4.08,0,0,0,1.08-.26q.72-.25.77-.46A9.78,9.78,0,0,0,663,55l-.17-4.84a2.83,2.83,0,0,0-.54-1.88,1.43,1.43,0,0,0-.68-.42,3.39,3.39,0,0,0-.72-.15c-.19,0-.28,0-.29-.08q0-.86.12-.9a42,42,0,0,0,4.75-1.06l.07,0,.09,0h.07c.08,0,.15.06.22.2a.88.88,0,0,1,.1.32,10,10,0,0,0-.08,1.07.24.24,0,0,0,0,.15.44.44,0,0,0,.15-.09,6.61,6.61,0,0,1,1.78-1.31A5.21,5.21,0,0,1,670.12,45.28Z"/><path class="cls-1" d="M681.25,45.19q.65,0,1.87-.15t1.51-.14a2,2,0,0,1,.08.53c0,.28,0,.42-.1.42a3.25,3.25,0,0,0-.93.26q-.63.24-.65.51v.18q.08.47,3,6.68.22-.54,1.06-3t1-2.79a2.78,2.78,0,0,0,.15-.93.94.94,0,0,0-.5-.71,2.46,2.46,0,0,0-1.44-.29c-.08,0-.12-.14-.13-.44a.75.75,0,0,1,.1-.51q.36,0,1.46,0t1.82,0c.42,0,.92-.06,1.53-.14s1-.13,1.32-.14a.84.84,0,0,1,.13.47q0,.47-.1.48a3.75,3.75,0,0,0-1.19.34,1.65,1.65,0,0,0-1,.93l-5,13.32q-1.69,4.4-4.28,4.49a1.61,1.61,0,0,1-1.2-.37,1.39,1.39,0,0,1,.07-2.11q3.09-.11,4-2.58.65-1.81.73-2l-4.69-9.95a3.86,3.86,0,0,0-.38-.67,1.78,1.78,0,0,0-.9-.64,2.82,2.82,0,0,0-1-.19c-.08,0-.12-.13-.13-.41s0-.5.07-.54l1.59,0Q680.54,45.21,681.25,45.19Z"/><path class="cls-1" d="M703.65,44.1a3.21,3.21,0,0,1,2,.51,3.47,3.47,0,0,1,1.24,1.46A7,7,0,0,1,709,44.51a6.68,6.68,0,0,1,2.77-.69,3.37,3.37,0,0,1,1.84.41,3.29,3.29,0,0,1,1.24,1.28,7,7,0,0,1,.69,1.82,11.25,11.25,0,0,1,.27,2.15l.11,3.12a12.4,12.4,0,0,0,.3,2.67q.07.21.82.4a4.35,4.35,0,0,0,1,.19c.06,0,.1.14.12.43a1.72,1.72,0,0,1,0,.58l-1.56-.06q-1.36,0-2,0t-2,.16l-1.58.17a1.12,1.12,0,0,1-.11-.56q0-.45.07-.45a4,4,0,0,0,1.06-.26q.7-.25.76-.46a9.29,9.29,0,0,0,.13-2.09l-.11-3q-.15-4.31-2.91-4.21a2.71,2.71,0,0,0-1.62.53,1.86,1.86,0,0,0-.74.95c0,.06,0,.14,0,.24a.57.57,0,0,0,0,.24,14.52,14.52,0,0,1,.15,1.84l.11,3.15a11.64,11.64,0,0,0,.3,2.55q.07.21.82.4a4.38,4.38,0,0,0,1,.19c.06,0,.1.14.12.43a1.69,1.69,0,0,1,0,.58l-1.56-.06q-1.35,0-2,0c-.47,0-1.15.07-2,.16l-1.58.17a1.11,1.11,0,0,1-.11-.56c0-.3,0-.45.07-.45a4,4,0,0,0,1.06-.26c.47-.17.72-.32.76-.46a9.77,9.77,0,0,0,.13-2.18l-.1-2.85a6.3,6.3,0,0,0-.8-3.33,2.26,2.26,0,0,0-2.06-1,2.84,2.84,0,0,0-1.62.56,1.4,1.4,0,0,0-.7,1.15l.18,5.11a10.93,10.93,0,0,0,.33,2.67q.07.21.79.4a4,4,0,0,0,1,.19c.08,0,.13.14.15.43a1.72,1.72,0,0,1,0,.58l-1.57-.06q-1.32,0-2,0t-2.08.16l-1.57.17a.88.88,0,0,1-.14-.56c0-.3,0-.45.1-.45a4.3,4.3,0,0,0,1.06-.26q.74-.25.79-.46a9.84,9.84,0,0,0,.13-2.18l-.17-4.84a2.83,2.83,0,0,0-.54-1.88,1.44,1.44,0,0,0-.68-.42,3.33,3.33,0,0,0-.73-.15c-.2,0-.3,0-.3-.08q0-.86.15-.9a41,41,0,0,0,4.72-1.06.2.2,0,0,1,.09,0l.15,0c.1,0,.18.06.24.2a.54.54,0,0,1,.07.32A10.12,10.12,0,0,0,699.4,46q0,.12.06.15a.45.45,0,0,0,.15-.09,6.61,6.61,0,0,1,1.78-1.31A5.21,5.21,0,0,1,703.65,44.1Z"/><path class="cls-1" d="M726,43.32a6.56,6.56,0,0,1,4.84,1.78A6.37,6.37,0,0,1,733,49.73a6.78,6.78,0,1,1-7-6.42Zm-.34,1.41a2.39,2.39,0,0,0-2.12,1.43,6.4,6.4,0,0,0-.66,3.25A8.66,8.66,0,0,0,724,53.56a3,3,0,0,0,2.75,1.69,2.42,2.42,0,0,0,2.13-1.44,6.31,6.31,0,0,0,.67-3.24,10.17,10.17,0,0,0-.49-2.85,5.25,5.25,0,0,0-1.33-2.17A2.76,2.76,0,0,0,725.69,44.73Z"/><path class="cls-1" d="M747.78,45.76l.21,5.88a6.56,6.56,0,0,0,.31,2.07.61.61,0,0,0,.35.23,2.31,2.31,0,0,0,.52.1h.49a.55.55,0,0,1,.25,0c.08,0,.12.1.13.26a2.28,2.28,0,0,1,0,.4c0,.19-.09.29-.17.29a6.84,6.84,0,0,0-1.05.14l-1.23.25-1.12.26-1.18.28q-.21,0-.22-.47l0-1.31c0-.1-.06-.15-.09-.15a6.61,6.61,0,0,1-1.77,1.4,5,5,0,0,1-2.33.68,3.11,3.11,0,0,1-1.79-.44,3.57,3.57,0,0,1-1.24-1.27,6.38,6.38,0,0,1-.68-1.7,9,9,0,0,1-.26-1.87l-.12-3.33a2.83,2.83,0,0,0-.54-1.88,1.65,1.65,0,0,0-.7-.42,3.14,3.14,0,0,0-.72-.15c-.2,0-.3,0-.3-.08,0-.57,0-.87.12-.9a22.34,22.34,0,0,0,2.42-.44,23.22,23.22,0,0,0,2.33-.62l.12,0,.12,0c.1,0,.18.06.23.2a1,1,0,0,1,.08.32,26.16,26.16,0,0,0-.17,2.62l.13,3.57a6.36,6.36,0,0,0,.77,3.3,2.62,2.62,0,0,0,3.73.3,1.58,1.58,0,0,0,.62-1.14l-.17-4.9a2.83,2.83,0,0,0-.54-1.88,1.43,1.43,0,0,0-.68-.42,3.38,3.38,0,0,0-.73-.15q-.3,0-.3-.08,0-.86.15-.9a22.83,22.83,0,0,0,2.4-.44,23.3,23.3,0,0,0,2.33-.62l.24-.07c.1,0,.18.06.25.2a.54.54,0,0,1,.07.33Q747.76,45.23,747.78,45.76Z"/><path class="cls-1" d="M756.32,42.22a12.66,12.66,0,0,1,3.46.38,16.83,16.83,0,0,1,.44,3.32c0,.16-.12.24-.38.25-.43,0-.68-.06-.72-.21a3.61,3.61,0,0,0-.94-1.74,2.32,2.32,0,0,0-1.82-.67A2.13,2.13,0,0,0,755,44a1.32,1.32,0,0,0-.45,1.12,1.72,1.72,0,0,0,.19.75,1.84,1.84,0,0,0,.56.62,7.34,7.34,0,0,0,.67.45q.29.17.86.45a1.88,1.88,0,0,0,.3.14l.45.22.5.25.49.27a5.46,5.46,0,0,1,.53.32l.47.34a2.39,2.39,0,0,1,.46.4l.37.45a1.89,1.89,0,0,1,.33.52,5.73,5.73,0,0,1,.18.56,2.77,2.77,0,0,1,.1.64,3.5,3.5,0,0,1-1.34,3,5.65,5.65,0,0,1-3.45,1.21,9.92,9.92,0,0,1-3.86-.7,11.77,11.77,0,0,1-.35-1.64,14.51,14.51,0,0,1-.21-1.7.63.63,0,0,1,.41-.16c.46,0,.7.06.72.21a3.27,3.27,0,0,0,1.24,2,3.17,3.17,0,0,0,2.06.69,2.16,2.16,0,0,0,1.35-.46,1.45,1.45,0,0,0,.49-1.24,1.94,1.94,0,0,0-.09-.55,1.46,1.46,0,0,0-.3-.5l-.36-.4a2.18,2.18,0,0,0-.55-.38l-.61-.32-.76-.36-.77-.37a6.92,6.92,0,0,1-2.17-1.52,3.43,3.43,0,0,1,.51-4.94A5.73,5.73,0,0,1,756.32,42.22Z"/><path class="cls-1" d="M765.06,55.57a2.64,2.64,0,0,0-.49-1.22,2.68,2.68,0,0,1-.49-1.28,1.8,1.8,0,0,1,.58-1.27,2.21,2.21,0,0,1,1.61-.68,1.93,1.93,0,0,1,1,.15,4.62,4.62,0,0,1,.49,2.06,5.3,5.3,0,0,1-.19,1.43,8.53,8.53,0,0,1-1.18,2.79,13.28,13.28,0,0,1-2.44,2.51h0c-.1,0-.24-.1-.43-.3a.89.89,0,0,1-.28-.51,4.11,4.11,0,0,1,.49-.49,5.46,5.46,0,0,0,1-1.33A3.56,3.56,0,0,0,765.06,55.57Z"/><path class="cls-1" d="M198.68,95.47a3.65,3.65,0,0,1,2.76,1,4.75,4.75,0,0,1,.92,3.31v5.86a1.36,1.36,0,0,0,.27.91.89.89,0,0,0,.71.31,1.85,1.85,0,0,0,1-.39q.18.06.18.33a1.76,1.76,0,0,1-.18.89,7.39,7.39,0,0,1-1.19.74,3.1,3.1,0,0,1-1.43.39,2.17,2.17,0,0,1-1.34-.51,2.44,2.44,0,0,1-.86-1.1l-.22.19q-.19.16-.54.4a8.77,8.77,0,0,1-.77.48,4.79,4.79,0,0,1-1,.4,4.32,4.32,0,0,1-1.17.16,3.55,3.55,0,0,1-2.42-.82,2.83,2.83,0,0,1-.94-2.25,2.74,2.74,0,0,1,.34-1.34,3.56,3.56,0,0,1,.82-1,6.11,6.11,0,0,1,1.28-.79,12.18,12.18,0,0,1,1.38-.58l1.49-.46,1.26-.39a.47.47,0,0,0,.27-.48V99.07a2.56,2.56,0,0,0-.48-1.64,1.55,1.55,0,0,0-1.28-.59,1.8,1.8,0,0,0-1.4.55,2.23,2.23,0,0,0-.51,1.56,1,1,0,0,1-.45.88,1.85,1.85,0,0,1-1,.28,1.68,1.68,0,0,1-1.55-.71q0-1.43,1.95-2.68A7.45,7.45,0,0,1,198.68,95.47Zm-1.34,11.42a2.31,2.31,0,0,0,1.38-.42,1.18,1.18,0,0,0,.58-1v-3c-.14.06-.43.16-.88.3s-.79.26-1,.36a8.1,8.1,0,0,0-.83.42,1.79,1.79,0,0,0-.7.65,1.64,1.64,0,0,0-.22.83,1.83,1.83,0,0,0,.48,1.4A1.71,1.71,0,0,0,197.34,106.89Z"/><path class="cls-1" d="M213.75,95.47a6,6,0,0,1,3.31.94,6.24,6.24,0,0,1,2.23,2.38,6.34,6.34,0,0,1,.76,3,6.79,6.79,0,0,1-2.07,5,6.55,6.55,0,0,1-4.77,2.07,9.29,9.29,0,0,1-2.17-.22,6.51,6.51,0,0,0-1.4-.22,2.26,2.26,0,0,0-.77.21,3,3,0,0,1-.59.21,1.44,1.44,0,0,1-.43-.18c-.23-.12-.34-.22-.34-.3s0-.24.06-.53.09-.72.15-1.28a17,17,0,0,0,.09-1.81V92.56a10.35,10.35,0,0,0-.18-2q-.15-.47-1.55-.48h-.27q-.18,0-.18-.48t.18-.48q.92-.09,1.75-.24t1.38-.3q.55-.15,1-.3l.85-.3h.06a.32.32,0,0,1,.24.16.83.83,0,0,1,.15.31,10.37,10.37,0,0,0-.33,2.79v4.92a.91.91,0,0,0,0,.13c0,.06,0,.09.06.09l.1,0a5.41,5.41,0,0,1,1.2-.59A4.25,4.25,0,0,1,213.75,95.47Zm-.65,1.6a2.3,2.3,0,0,0-1.61.57,1.75,1.75,0,0,0-.62,1.34v6.3a1.78,1.78,0,0,0,.79,1.58,3.23,3.23,0,0,0,1.86.54,2.53,2.53,0,0,0,2.33-1.4,6.8,6.8,0,0,0,.79-3.39,7.64,7.64,0,0,0-.92-4A2.91,2.91,0,0,0,213.1,97.08Z"/><path class="cls-1" d="M228.8,95.47a6.55,6.55,0,0,1,4.77,1.95,6.37,6.37,0,0,1,2,4.71,6.78,6.78,0,1,1-6.75-6.66Zm-.39,1.4a2.39,2.39,0,0,0-2.17,1.35,6.4,6.4,0,0,0-.77,3.23,8.67,8.67,0,0,0,1,4.19,3,3,0,0,0,2.69,1.78,2.42,2.42,0,0,0,2.19-1.37,6.33,6.33,0,0,0,.79-3.21,10.2,10.2,0,0,0-.39-2.87,5.24,5.24,0,0,0-1.25-2.21A2.76,2.76,0,0,0,228.42,96.87Z"/><path class="cls-1" d="M250.45,98.68v5.89a6.57,6.57,0,0,0,.24,2.08.62.62,0,0,0,.34.24,2.3,2.3,0,0,0,.52.12l.49,0a.55.55,0,0,1,.25,0c.08,0,.12.11.12.27a2.33,2.33,0,0,1-.06.4c0,.19-.1.28-.18.28a6.83,6.83,0,0,0-1.06.1l-1.23.21-1.13.22-1.19.24q-.21,0-.21-.48V107c0-.1,0-.15-.09-.15a6.64,6.64,0,0,1-1.81,1.34,5,5,0,0,1-2.35.59,3.11,3.11,0,0,1-1.77-.51,3.58,3.58,0,0,1-1.19-1.31,6.41,6.41,0,0,1-.62-1.72,9.09,9.09,0,0,1-.19-1.87v-3.33a2.83,2.83,0,0,0-.48-1.9,1.65,1.65,0,0,0-.68-.45,3.1,3.1,0,0,0-.71-.18c-.2,0-.3,0-.3-.09,0-.57,0-.87.15-.89a22.34,22.34,0,0,0,2.44-.36,23.16,23.16,0,0,0,2.35-.54l.12,0,.12,0c.1,0,.17.07.22.21a1.07,1.07,0,0,1,.07.33q-.27,2-.27,2.62v3.57a6.36,6.36,0,0,0,.65,3.33,2.62,2.62,0,0,0,3.72.43,1.58,1.58,0,0,0,.65-1.11v-4.91a2.83,2.83,0,0,0-.48-1.9,1.43,1.43,0,0,0-.67-.45,3.32,3.32,0,0,0-.73-.18c-.2,0-.3,0-.3-.09q0-.86.18-.89a22.72,22.72,0,0,0,2.41-.36,23.16,23.16,0,0,0,2.35-.54l.24-.06c.1,0,.18.07.24.21a.55.55,0,0,1,.06.33Q250.45,98.15,250.45,98.68Z"/><path class="cls-1" d="M256,97.55h-1.81c-.14,0-.21-.26-.21-.77a.75.75,0,0,1,0-.27,8.32,8.32,0,0,0,2.29-1.58l.85-.88q.46-.49,1.08-1.26a2.08,2.08,0,0,1,.56.07c.18,0,.27.1.27.16v2.91l2.16,0h1.47c.16,0,.24.09.24.27a2.88,2.88,0,0,1-.3,1.31h-3.57v7.17a2.82,2.82,0,0,0,.51,1.81,1.7,1.7,0,0,0,1.4.62,2.81,2.81,0,0,0,.62-.07,3.15,3.15,0,0,0,.54-.16l.39-.18.21-.09q.12,0,.27.27c.1.2.14.33.12.39a2.73,2.73,0,0,1-1.26,1,4.69,4.69,0,0,1-2.13.55,3.75,3.75,0,0,1-2.63-1,4,4,0,0,1-1.08-3.08Z"/><path class="cls-1" d="M277.89,95.47a7.17,7.17,0,0,1,2.81.52,4.74,4.74,0,0,1,1.77,1.14,3.68,3.68,0,0,1-.34,1.68,1.09,1.09,0,0,1-1,.67,1.33,1.33,0,0,1-.91-.3,3.38,3.38,0,0,1-.7-1,2.15,2.15,0,0,0-2-1.37,2.29,2.29,0,0,0-2,1.29,6.36,6.36,0,0,0-.76,3.25,6,6,0,0,0,1.1,4,3.51,3.51,0,0,0,2.79,1.29,8.23,8.23,0,0,0,.86,0,4.45,4.45,0,0,0,.77-.15l.63-.19a2.55,2.55,0,0,0,.55-.27l.4-.25.59-.4a.49.49,0,0,1,.15.18.57.57,0,0,1,.09.3.91.91,0,0,1-.18.56,4.84,4.84,0,0,1-1.75,1.61,5.46,5.46,0,0,1-2.91.8,6,6,0,0,1-4.5-1.93,6.56,6.56,0,0,1-1.86-4.73,6.76,6.76,0,0,1,1.78-4.68A6,6,0,0,1,277.89,95.47Z"/><path class="cls-1" d="M293.44,95.47a3,3,0,0,1,2.44,1q0,2.53-1.43,2.53a1.77,1.77,0,0,1-1.16-.59,1.86,1.86,0,0,0-1.28-.59,1.59,1.59,0,0,0-1.44.94,4,4,0,0,0-.52,1.95v3.72a12.46,12.46,0,0,0,.21,2.68q.06.21.79.43a4.19,4.19,0,0,0,1,.22c.06,0,.09.14.1.43a3.08,3.08,0,0,1,0,.58l-1.58-.12q-1.34-.09-2-.09t-2.07.09l-1.59.12a.88.88,0,0,1-.12-.56c0-.3,0-.45.12-.45a4.14,4.14,0,0,0,1.09-.22q.73-.22.79-.43a9.71,9.71,0,0,0,.21-2.17v-4.85a2.83,2.83,0,0,0-.48-1.9,1.43,1.43,0,0,0-.67-.45,3.36,3.36,0,0,0-.71-.18c-.19,0-.28,0-.28-.09,0-.57,0-.87.15-.89a42,42,0,0,0,4.79-.89l.24-.06c.08,0,.15.07.21.21a.72.72,0,0,1,.07.34l0,.42c0,.19,0,.39-.07.59a3.7,3.7,0,0,0,0,.4,5.47,5.47,0,0,1,1.46-1.44A3.26,3.26,0,0,1,293.44,95.47Z"/><path class="cls-1" d="M303.91,95.47a5.51,5.51,0,0,1,2.5.55,4.71,4.71,0,0,1,1.72,1.4,7,7,0,0,1,1,1.75,5.13,5.13,0,0,1,.33,1.74q0,.65-.22.82a1.69,1.69,0,0,1-.91.16h-7.11q-.21,0-.21.18a5.78,5.78,0,0,0,.39,2.08,4.08,4.08,0,0,0,1.32,1.75,3.5,3.5,0,0,0,2.25.74,8.23,8.23,0,0,0,.86,0,4.45,4.45,0,0,0,.77-.15l.63-.19a2.55,2.55,0,0,0,.55-.27l.4-.25.59-.4a.49.49,0,0,1,.15.18.57.57,0,0,1,.09.3.91.91,0,0,1-.18.56A4.84,4.84,0,0,1,307,108a5.51,5.51,0,0,1-2.94.8,6,6,0,0,1-4.46-1.92,6.41,6.41,0,0,1-1.87-4.65,6.88,6.88,0,0,1,1.74-4.88A5.76,5.76,0,0,1,303.91,95.47Zm-.21,1.37a2.1,2.1,0,0,0-1.28.42,2.8,2.8,0,0,0-.86,1,5.67,5.67,0,0,0-.43,1.11,3.6,3.6,0,0,0-.13.88c0,.14.06.21.18.21H306c.18,0,.27-.15.27-.45a3.85,3.85,0,0,0-.7-2.11A2.13,2.13,0,0,0,303.7,96.84Z"/><path class="cls-1" d="M317.33,95.47a3.65,3.65,0,0,1,2.76,1,4.75,4.75,0,0,1,.92,3.31v5.86a1.36,1.36,0,0,0,.27.91.89.89,0,0,0,.71.31,1.85,1.85,0,0,0,1-.39q.18.06.18.33a1.76,1.76,0,0,1-.18.89,7.39,7.39,0,0,1-1.19.74,3.1,3.1,0,0,1-1.43.39,2.17,2.17,0,0,1-1.34-.51,2.44,2.44,0,0,1-.86-1.1l-.22.19q-.19.16-.54.4a8.77,8.77,0,0,1-.77.48,4.79,4.79,0,0,1-1,.4,4.32,4.32,0,0,1-1.17.16,3.55,3.55,0,0,1-2.42-.82,2.83,2.83,0,0,1-.94-2.25,2.74,2.74,0,0,1,.34-1.34,3.56,3.56,0,0,1,.82-1,6.11,6.11,0,0,1,1.28-.79,12.18,12.18,0,0,1,1.38-.58l1.49-.46,1.26-.39a.47.47,0,0,0,.27-.48V99.07a2.56,2.56,0,0,0-.48-1.64,1.55,1.55,0,0,0-1.28-.59,1.8,1.8,0,0,0-1.4.55,2.23,2.23,0,0,0-.51,1.56,1,1,0,0,1-.45.88,1.85,1.85,0,0,1-1,.28,1.68,1.68,0,0,1-1.55-.71q0-1.43,1.95-2.68A7.45,7.45,0,0,1,317.33,95.47ZM316,106.89a2.31,2.31,0,0,0,1.38-.42,1.18,1.18,0,0,0,.58-1v-3c-.14.06-.43.16-.88.3s-.79.26-1,.36a8.1,8.1,0,0,0-.83.42,1.79,1.79,0,0,0-.7.65,1.64,1.64,0,0,0-.22.83,1.83,1.83,0,0,0,.48,1.4A1.71,1.71,0,0,0,316,106.89Z"/><path class="cls-1" d="M326.55,97.55h-1.81c-.14,0-.21-.26-.21-.77a.75.75,0,0,1,0-.27,8.32,8.32,0,0,0,2.29-1.58l.85-.88q.46-.49,1.08-1.26a2.08,2.08,0,0,1,.56.07c.18,0,.27.1.27.16v2.91l2.16,0h1.47c.16,0,.24.09.24.27a2.88,2.88,0,0,1-.3,1.31h-3.57v7.17a2.82,2.82,0,0,0,.51,1.81,1.7,1.7,0,0,0,1.4.62,2.81,2.81,0,0,0,.62-.07,3.15,3.15,0,0,0,.54-.16l.39-.18.21-.09q.12,0,.27.27c.1.2.14.33.12.39a2.73,2.73,0,0,1-1.26,1,4.69,4.69,0,0,1-2.13.55,3.75,3.75,0,0,1-2.63-1,4,4,0,0,1-1.08-3.08Z"/><path class="cls-1" d="M340.83,104.39a10.91,10.91,0,0,0,.24,2.68q.06.21.8.43a4.36,4.36,0,0,0,1,.22c.08,0,.12.14.13.43a1.67,1.67,0,0,1,0,.58l-1.59-.12q-1.38-.09-2-.09t-2.1.09l-1.56.12a.88.88,0,0,1-.12-.56c0-.3,0-.45.12-.45a4.3,4.3,0,0,0,1.07-.22q.74-.22.8-.43a9.71,9.71,0,0,0,.21-2.17v-4.85a2.83,2.83,0,0,0-.48-1.9,1.65,1.65,0,0,0-.68-.45,3.1,3.1,0,0,0-.71-.18c-.2,0-.3,0-.3-.09,0-.57.06-.87.18-.89a22.72,22.72,0,0,0,2.41-.36,23.16,23.16,0,0,0,2.35-.54l.24-.06c.1,0,.18.07.24.21a.55.55,0,0,1,.06.33,25.44,25.44,0,0,0-.24,2.56Zm-3.09-12.44a1.81,1.81,0,0,1-.54-1.31,1.84,1.84,0,0,1,3.69,0,1.81,1.81,0,0,1-.54,1.31,1.83,1.83,0,0,1-2.62,0Z"/><path class="cls-1" d="M354.48,95.47q3.83,0,3.83,6.09v2.82a12.46,12.46,0,0,0,.21,2.68c0,.14.31.28.82.43a4.55,4.55,0,0,0,1,.22c.06,0,.09.14.1.43a1.67,1.67,0,0,1,0,.58q-.18,0-1.56-.12t-2.07-.09q-.71,0-2,.09l-1.53.12a.88.88,0,0,1-.12-.56c0-.3,0-.45.12-.45a3.53,3.53,0,0,0,1-.22c.45-.15.69-.29.73-.43a8.56,8.56,0,0,0,.24-2.17v-2.82a6.45,6.45,0,0,0-.67-3.45,2.39,2.39,0,0,0-2.12-1,2.75,2.75,0,0,0-1.67.52,1.43,1.43,0,0,0-.71,1.11v5.11a12.46,12.46,0,0,0,.21,2.68q.06.21.79.43a4.27,4.27,0,0,0,1,.22c.08,0,.12.14.13.43a1.7,1.7,0,0,1,0,.58l-1.56-.12q-1.32-.09-2-.09t-2.07.09l-1.59.12a.88.88,0,0,1-.12-.56c0-.3,0-.45.12-.45a4.14,4.14,0,0,0,1.09-.22q.73-.22.79-.43a9.71,9.71,0,0,0,.21-2.17v-4.85a2.83,2.83,0,0,0-.48-1.9,1.43,1.43,0,0,0-.67-.45,3.36,3.36,0,0,0-.71-.18c-.19,0-.28,0-.28-.09,0-.57,0-.87.15-.89a42,42,0,0,0,4.79-.89l.07,0,.09,0H350c.08,0,.15.07.21.21a.92.92,0,0,1,.09.33,10.27,10.27,0,0,0-.12,1.07c0,.08,0,.13,0,.15a.44.44,0,0,0,.15-.09A6.6,6.6,0,0,1,352.21,96,5.21,5.21,0,0,1,354.48,95.47Z"/><path class="cls-1" d="M368.1,95.53a9.42,9.42,0,0,1,2.47.39,9.17,9.17,0,0,0,2.38.39h1.69s.11.13.21.39a1.83,1.83,0,0,1,.15.59c0,.28-.06.42-.18.42h-1.93c-.08,0-.12,0-.12.09s.09.28.27.77a4.2,4.2,0,0,1,.27,1.43,4.3,4.3,0,0,1-1.47,3.17,5.09,5.09,0,0,1-3.67,1.41,12.35,12.35,0,0,1-1.84-.12,1.61,1.61,0,0,0-.65.55,1.27,1.27,0,0,0-.3.73.61.61,0,0,0,.28.51,2,2,0,0,0,.88.3q.59.09,1,.12l1.19.06h.45a10.48,10.48,0,0,1,4.35.82,2.34,2.34,0,0,1,1.38,2.19,4.68,4.68,0,0,1-2.14,3.86,8.12,8.12,0,0,1-5,1.64,7.73,7.73,0,0,1-3.79-.83,2.67,2.67,0,0,1-1.62-2.44,2.31,2.31,0,0,1,.85-1.66,4.92,4.92,0,0,1,1.83-1.13,3.4,3.4,0,0,1-1.43-.91,2.16,2.16,0,0,1-.65-1.56q0-1.28,2.2-2.65a3.94,3.94,0,0,1-1.6-1.53,4.37,4.37,0,0,1-.74-2.42,4,4,0,0,1,1.55-3.33A5.91,5.91,0,0,1,368.1,95.53Zm4.1,15.55q0-1-1.5-1.38a18.85,18.85,0,0,0-4-.34l-.15,0-.15.09q-.39.15-.59.25a2.6,2.6,0,0,0-.48.33,1.44,1.44,0,0,0-.4.52,1.73,1.73,0,0,0-.13.71,2.08,2.08,0,0,0,1.13,1.78,4.63,4.63,0,0,0,2.53.71,4.49,4.49,0,0,0,2.72-.77A2.32,2.32,0,0,0,372.21,111.08Zm-6.36-11.24a4.71,4.71,0,0,0,.59,2.45,1.85,1.85,0,0,0,1.67,1,1.77,1.77,0,0,0,1.62-.85,3.94,3.94,0,0,0,.52-2.1,4.89,4.89,0,0,0-.59-2.56,1.9,1.9,0,0,0-1.72-1,1.68,1.68,0,0,0-1.58.92A4.31,4.31,0,0,0,365.84,99.84Z"/><path class="cls-1" d="M390.12,95.41a5.1,5.1,0,0,1,2.17.42q.15,0,.15-.48V92.56a10.35,10.35,0,0,0-.18-2q-.15-.47-1.55-.48h-.24q-.18,0-.18-.48t.18-.48q.89-.09,1.74-.24c.57-.1,1-.2,1.4-.3s.68-.2,1-.3l.61-.22.24-.07h.06a.32.32,0,0,1,.24.16.54.54,0,0,1,.12.31,11.39,11.39,0,0,0-.3,2.79v13.08a11,11,0,0,0,.18,2.2.44.44,0,0,0,.3.33,1.82,1.82,0,0,0,.56.15l.57,0,.3,0a.62.62,0,0,1,.06.36q0,.59-.18.59-.42,0-1.05.12l-1.25.19-1.16.21-1.23.25q-.18,0-.18-.51v-.51a.14.14,0,0,0,0-.12.06.06,0,0,0-.07,0,5,5,0,0,1-3.09,1.1A5.76,5.76,0,0,1,385,107a6,6,0,0,1-1.78-4.44,7,7,0,0,1,2-5A6.51,6.51,0,0,1,390.12,95.41Zm-.27,1.43a2.6,2.6,0,0,0-2.38,1.34,7,7,0,0,0-.8,3.6,7.17,7.17,0,0,0,.92,3.94,2.92,2.92,0,0,0,2.59,1.41,2.47,2.47,0,0,0,1.63-.52,1.65,1.65,0,0,0,.63-1.32V99a2.07,2.07,0,0,0-.1-.62,2.77,2.77,0,0,0-.36-.7,1.9,1.9,0,0,0-.8-.62A3.15,3.15,0,0,0,389.85,96.84Z"/><path class="cls-1" d="M405.28,95.47a5.51,5.51,0,0,1,2.5.55,4.71,4.71,0,0,1,1.72,1.4,6.91,6.91,0,0,1,1,1.75,5.13,5.13,0,0,1,.33,1.74q0,.65-.22.82a1.69,1.69,0,0,1-.91.16h-7.1c-.14,0-.21.06-.21.18a5.77,5.77,0,0,0,.39,2.08,4.09,4.09,0,0,0,1.32,1.75,3.5,3.5,0,0,0,2.24.74,8.2,8.2,0,0,0,.86,0,4.48,4.48,0,0,0,.77-.15l.62-.19a2.53,2.53,0,0,0,.55-.27l.4-.25.59-.4a.5.5,0,0,1,.15.18.57.57,0,0,1,.09.3.91.91,0,0,1-.18.56,4.85,4.85,0,0,1-1.75,1.61,5.52,5.52,0,0,1-2.94.8,6,6,0,0,1-4.46-1.92,6.41,6.41,0,0,1-1.87-4.65,6.88,6.88,0,0,1,1.74-4.88A5.76,5.76,0,0,1,405.28,95.47Zm-.21,1.37a2.1,2.1,0,0,0-1.28.42,2.8,2.8,0,0,0-.86,1,5.67,5.67,0,0,0-.43,1.11,3.65,3.65,0,0,0-.13.88q0,.21.18.21h4.82q.27,0,.27-.45a3.85,3.85,0,0,0-.7-2.11A2.13,2.13,0,0,0,405.08,96.84Z"/><path class="cls-1" d="M418.14,95.53a9.42,9.42,0,0,1,2.47.39,9.17,9.17,0,0,0,2.38.39h1.69s.11.13.21.39a1.83,1.83,0,0,1,.15.59c0,.28-.06.42-.18.42h-1.93c-.08,0-.12,0-.12.09s.09.28.27.77a4.2,4.2,0,0,1,.27,1.43,4.3,4.3,0,0,1-1.47,3.17,5.09,5.09,0,0,1-3.67,1.41,12.35,12.35,0,0,1-1.84-.12,1.61,1.61,0,0,0-.65.55,1.27,1.27,0,0,0-.3.73.61.61,0,0,0,.28.51,2,2,0,0,0,.88.3q.59.09,1,.12l1.19.06h.45a10.48,10.48,0,0,1,4.35.82,2.34,2.34,0,0,1,1.38,2.19,4.68,4.68,0,0,1-2.14,3.86,8.12,8.12,0,0,1-5,1.64,7.73,7.73,0,0,1-3.79-.83,2.67,2.67,0,0,1-1.62-2.44,2.31,2.31,0,0,1,.85-1.66,4.92,4.92,0,0,1,1.83-1.13,3.4,3.4,0,0,1-1.43-.91,2.16,2.16,0,0,1-.65-1.56q0-1.28,2.2-2.65a3.94,3.94,0,0,1-1.6-1.53,4.37,4.37,0,0,1-.74-2.42,4,4,0,0,1,1.55-3.33A5.91,5.91,0,0,1,418.14,95.53Zm4.1,15.55q0-1-1.5-1.38a18.85,18.85,0,0,0-4-.34l-.15,0-.15.09q-.39.15-.59.25a2.6,2.6,0,0,0-.48.33,1.44,1.44,0,0,0-.4.52,1.73,1.73,0,0,0-.13.71,2.08,2.08,0,0,0,1.13,1.78,4.63,4.63,0,0,0,2.53.71,4.49,4.49,0,0,0,2.72-.77A2.32,2.32,0,0,0,422.24,111.08Zm-6.36-11.24a4.71,4.71,0,0,0,.59,2.45,1.85,1.85,0,0,0,1.67,1,1.77,1.77,0,0,0,1.62-.85,3.94,3.94,0,0,0,.52-2.1,4.89,4.89,0,0,0-.59-2.56,1.9,1.9,0,0,0-1.72-1,1.68,1.68,0,0,0-1.58.92A4.31,4.31,0,0,0,415.88,99.84Z"/><path class="cls-1" d="M435.65,95.47a3,3,0,0,1,2.44,1q0,2.53-1.43,2.53a1.77,1.77,0,0,1-1.16-.59,1.86,1.86,0,0,0-1.28-.59,1.59,1.59,0,0,0-1.44.94,4,4,0,0,0-.52,1.95v3.72a12.46,12.46,0,0,0,.21,2.68q.06.21.79.43a4.19,4.19,0,0,0,1,.22c.06,0,.09.14.1.43a3.11,3.11,0,0,1,0,.58l-1.58-.12q-1.34-.09-2-.09t-2.07.09l-1.59.12a.88.88,0,0,1-.12-.56c0-.3,0-.45.12-.45a4.14,4.14,0,0,0,1.08-.22q.73-.22.79-.43a9.71,9.71,0,0,0,.21-2.17v-4.85a2.83,2.83,0,0,0-.48-1.9,1.43,1.43,0,0,0-.67-.45,3.36,3.36,0,0,0-.71-.18c-.19,0-.28,0-.28-.09,0-.57,0-.87.15-.89a42,42,0,0,0,4.79-.89l.24-.06c.08,0,.15.07.21.21a.71.71,0,0,1,.07.34c0,.09,0,.23,0,.42s0,.39-.08.59a3.87,3.87,0,0,0,0,.4,5.46,5.46,0,0,1,1.46-1.44A3.26,3.26,0,0,1,435.65,95.47Z"/><path class="cls-1" d="M446.12,95.47a5.51,5.51,0,0,1,2.5.55,4.71,4.71,0,0,1,1.72,1.4,6.92,6.92,0,0,1,1,1.75,5.13,5.13,0,0,1,.33,1.74q0,.65-.22.82a1.69,1.69,0,0,1-.91.16h-7.11q-.21,0-.21.18a5.78,5.78,0,0,0,.39,2.08,4.08,4.08,0,0,0,1.32,1.75,3.5,3.5,0,0,0,2.25.74,8.2,8.2,0,0,0,.86,0,4.48,4.48,0,0,0,.77-.15l.62-.19a2.53,2.53,0,0,0,.55-.27l.4-.25.59-.4a.48.48,0,0,1,.15.18.57.57,0,0,1,.09.3.91.91,0,0,1-.18.56,4.84,4.84,0,0,1-1.75,1.61,5.52,5.52,0,0,1-2.94.8,6,6,0,0,1-4.46-1.92,6.41,6.41,0,0,1-1.87-4.65,6.88,6.88,0,0,1,1.74-4.88A5.76,5.76,0,0,1,446.12,95.47Zm-.21,1.37a2.1,2.1,0,0,0-1.28.42,2.8,2.8,0,0,0-.86,1,5.74,5.74,0,0,0-.43,1.11,3.65,3.65,0,0,0-.13.88q0,.21.18.21h4.82c.18,0,.27-.15.27-.45a3.85,3.85,0,0,0-.7-2.11A2.13,2.13,0,0,0,445.92,96.84Z"/><path class="cls-1" d="M459.39,95.47a5.51,5.51,0,0,1,2.5.55,4.71,4.71,0,0,1,1.72,1.4,6.92,6.92,0,0,1,1,1.75,5.13,5.13,0,0,1,.33,1.74q0,.65-.22.82a1.69,1.69,0,0,1-.91.16h-7.11q-.21,0-.21.18a5.78,5.78,0,0,0,.39,2.08,4.08,4.08,0,0,0,1.32,1.75,3.5,3.5,0,0,0,2.25.74,8.2,8.2,0,0,0,.86,0,4.48,4.48,0,0,0,.77-.15l.62-.19a2.53,2.53,0,0,0,.55-.27l.4-.25.59-.4a.48.48,0,0,1,.15.18.57.57,0,0,1,.09.3.91.91,0,0,1-.18.56,4.84,4.84,0,0,1-1.75,1.61,5.52,5.52,0,0,1-2.94.8,6,6,0,0,1-4.46-1.92,6.41,6.41,0,0,1-1.87-4.65A6.88,6.88,0,0,1,455,97.35,5.76,5.76,0,0,1,459.39,95.47Zm-.21,1.37a2.1,2.1,0,0,0-1.28.42,2.8,2.8,0,0,0-.86,1,5.74,5.74,0,0,0-.43,1.11,3.65,3.65,0,0,0-.13.88q0,.21.18.21h4.82c.18,0,.27-.15.27-.45a3.85,3.85,0,0,0-.7-2.11A2.13,2.13,0,0,0,459.18,96.84Z"/><path class="cls-1" d="M471.41,95.44a12.65,12.65,0,0,1,3.45.51,16.82,16.82,0,0,1,.33,3.33c0,.16-.13.24-.39.24-.44,0-.67-.08-.71-.24a3.61,3.61,0,0,0-.88-1.77,2.32,2.32,0,0,0-1.8-.73,2.13,2.13,0,0,0-1.35.39,1.32,1.32,0,0,0-.49,1.1,1.73,1.73,0,0,0,.16.76,1.85,1.85,0,0,0,.54.64,7.48,7.48,0,0,0,.65.48c.19.12.47.28.85.48a2,2,0,0,0,.3.15l.45.24.49.27.48.28a5.42,5.42,0,0,1,.52.34l.46.36a2.37,2.37,0,0,1,.45.42l.36.46a1.91,1.91,0,0,1,.31.54,5.69,5.69,0,0,1,.16.56,2.74,2.74,0,0,1,.07.64,3.5,3.5,0,0,1-1.44,3,5.64,5.64,0,0,1-3.49,1.08,9.93,9.93,0,0,1-3.83-.83,11.83,11.83,0,0,1-.3-1.65,14.53,14.53,0,0,1-.15-1.71.63.63,0,0,1,.42-.15c.46,0,.69.08.71.24a3.28,3.28,0,0,0,1.17,2,3.17,3.17,0,0,0,2,.76,2.16,2.16,0,0,0,1.37-.42,1.45,1.45,0,0,0,.54-1.22,1.93,1.93,0,0,0-.07-.55,1.46,1.46,0,0,0-.28-.51l-.34-.42a2.17,2.17,0,0,0-.54-.4l-.59-.34-.74-.39-.76-.4a6.92,6.92,0,0,1-2.11-1.59,3.43,3.43,0,0,1,.68-4.92A5.74,5.74,0,0,1,471.41,95.44Z"/><path class="cls-1" d="M491,95.47a6.55,6.55,0,0,1,4.77,1.95,6.37,6.37,0,0,1,2,4.71,6.73,6.73,0,0,1-13.47,0,6.4,6.4,0,0,1,1.95-4.73A6.51,6.51,0,0,1,491,95.47Zm-.39,1.4a2.39,2.39,0,0,0-2.17,1.35,6.4,6.4,0,0,0-.77,3.23,8.67,8.67,0,0,0,1,4.19,3,3,0,0,0,2.69,1.78,2.42,2.42,0,0,0,2.18-1.37,6.32,6.32,0,0,0,.79-3.21,10.2,10.2,0,0,0-.39-2.87,5.24,5.24,0,0,0-1.25-2.21A2.76,2.76,0,0,0,490.6,96.87Z"/><path class="cls-1" d="M508.11,88a5.86,5.86,0,0,1,2.07.31,2.08,2.08,0,0,1,1.08.76,3.33,3.33,0,0,1-.16,1.65,1.07,1.07,0,0,1-1.08.73,1.16,1.16,0,0,1-.91-.49q-.4-.49-.85-1a1.37,1.37,0,0,0-1-.49,1.58,1.58,0,0,0-1.34.77,5,5,0,0,0-.76,1.87,12.08,12.08,0,0,0-.22,2.41v1.37s0,0,.06.09a.17.17,0,0,0,.12.06h3.27a.24.24,0,0,1,.15,0,.31.31,0,0,1,0,.18,3.06,3.06,0,0,1-.36,1.37h-3.09a.16.16,0,0,0-.18.18v6.63a11.35,11.35,0,0,0,.24,2.68q.06.21.79.43a4.21,4.21,0,0,0,1,.22c.06,0,.09.14.1.43a1.67,1.67,0,0,1,0,.58q-.18,0-1.55-.12t-2.08-.09q-.71,0-2,.09l-1.55.12a.56.56,0,0,1-.12-.33,1.82,1.82,0,0,1,0-.46c0-.15.06-.22.12-.22a4,4,0,0,0,1-.22q.71-.22.77-.43a9.84,9.84,0,0,0,.27-2.44V97.79q0-.21-.18-.21h-1.78s-.06-.06-.06-.18a1.59,1.59,0,0,1,.42-.86,1.2,1.2,0,0,1,1-.54h.48a.16.16,0,0,0,.18-.18v-.3a8.08,8.08,0,0,1,1.86-5.35A5.56,5.56,0,0,1,508.11,88Z"/><path class="cls-1" d="M525.31,88a5.86,5.86,0,0,1,2.07.31,2.08,2.08,0,0,1,1.08.76,3.33,3.33,0,0,1-.16,1.65,1.07,1.07,0,0,1-1.08.73,1.16,1.16,0,0,1-.91-.49q-.4-.49-.85-1a1.37,1.37,0,0,0-1-.49,1.58,1.58,0,0,0-1.34.77,5,5,0,0,0-.76,1.87,12.08,12.08,0,0,0-.22,2.41v1.37s0,0,.06.09a.17.17,0,0,0,.12.06h3.27a.24.24,0,0,1,.15,0,.31.31,0,0,1,0,.18,3.06,3.06,0,0,1-.36,1.37h-3.09a.16.16,0,0,0-.18.18v6.63a11.35,11.35,0,0,0,.24,2.68q.06.21.79.43a4.21,4.21,0,0,0,1,.22c.06,0,.09.14.1.43a1.67,1.67,0,0,1,0,.58q-.18,0-1.55-.12t-2.08-.09q-.71,0-2,.09l-1.55.12a.56.56,0,0,1-.12-.33,1.82,1.82,0,0,1,0-.46c0-.15.06-.22.12-.22a4,4,0,0,0,1-.22q.71-.22.77-.43a9.84,9.84,0,0,0,.27-2.44V97.79q0-.21-.18-.21h-1.78s-.06-.06-.06-.18a1.59,1.59,0,0,1,.42-.86,1.2,1.2,0,0,1,1-.54h.48a.16.16,0,0,0,.18-.18v-.3a8.08,8.08,0,0,1,1.86-5.35A5.56,5.56,0,0,1,525.31,88Z"/><path class="cls-1" d="M536.23,95.47a3,3,0,0,1,2.44,1q0,2.53-1.43,2.53a1.77,1.77,0,0,1-1.16-.59,1.86,1.86,0,0,0-1.28-.59,1.59,1.59,0,0,0-1.44.94,4,4,0,0,0-.52,1.95v3.72a12.46,12.46,0,0,0,.21,2.68c0,.14.3.28.79.43a4.19,4.19,0,0,0,1,.22c.06,0,.09.14.1.43a3.11,3.11,0,0,1,0,.58l-1.58-.12q-1.34-.09-2-.09t-2.07.09l-1.59.12a.88.88,0,0,1-.12-.56c0-.3,0-.45.12-.45a4.13,4.13,0,0,0,1.08-.22q.73-.22.79-.43a9.71,9.71,0,0,0,.21-2.17v-4.85a2.83,2.83,0,0,0-.48-1.9,1.43,1.43,0,0,0-.67-.45,3.35,3.35,0,0,0-.71-.18c-.19,0-.28,0-.28-.09q0-.86.15-.89a42,42,0,0,0,4.79-.89l.24-.06c.08,0,.15.07.21.21a.71.71,0,0,1,.07.34l0,.42c0,.19,0,.39-.07.59a3.7,3.7,0,0,0,0,.4,5.45,5.45,0,0,1,1.46-1.44A3.26,3.26,0,0,1,536.23,95.47Z"/><path class="cls-1" d="M546.7,95.47a5.51,5.51,0,0,1,2.5.55,4.71,4.71,0,0,1,1.72,1.4,6.92,6.92,0,0,1,1,1.75,5.13,5.13,0,0,1,.33,1.74q0,.65-.22.82a1.69,1.69,0,0,1-.91.16H544q-.21,0-.21.18a5.78,5.78,0,0,0,.39,2.08,4.08,4.08,0,0,0,1.32,1.75,3.5,3.5,0,0,0,2.25.74,8.2,8.2,0,0,0,.86,0,4.48,4.48,0,0,0,.77-.15l.62-.19a2.53,2.53,0,0,0,.55-.27l.4-.25.59-.4a.48.48,0,0,1,.15.18.57.57,0,0,1,.09.3.91.91,0,0,1-.18.56,4.84,4.84,0,0,1-1.75,1.61,5.52,5.52,0,0,1-2.94.8,6,6,0,0,1-4.46-1.92,6.41,6.41,0,0,1-1.87-4.65,6.88,6.88,0,0,1,1.74-4.88A5.76,5.76,0,0,1,546.7,95.47Zm-.21,1.37a2.1,2.1,0,0,0-1.28.42,2.8,2.8,0,0,0-.86,1,5.74,5.74,0,0,0-.43,1.11,3.65,3.65,0,0,0-.13.88q0,.21.18.21h4.82c.18,0,.27-.15.27-.45a3.85,3.85,0,0,0-.7-2.11A2.13,2.13,0,0,0,546.49,96.84Z"/><path class="cls-1" d="M560,95.47a5.51,5.51,0,0,1,2.5.55,4.71,4.71,0,0,1,1.72,1.4,6.92,6.92,0,0,1,1,1.75,5.13,5.13,0,0,1,.33,1.74q0,.65-.22.82a1.69,1.69,0,0,1-.91.16h-7.11q-.21,0-.21.18a5.78,5.78,0,0,0,.39,2.08,4.08,4.08,0,0,0,1.32,1.75,3.5,3.5,0,0,0,2.25.74,8.2,8.2,0,0,0,.86,0,4.48,4.48,0,0,0,.77-.15l.62-.19a2.53,2.53,0,0,0,.55-.27l.4-.25.59-.4a.48.48,0,0,1,.15.18.57.57,0,0,1,.09.3.91.91,0,0,1-.18.56,4.84,4.84,0,0,1-1.75,1.61,5.52,5.52,0,0,1-2.94.8,6,6,0,0,1-4.46-1.92,6.41,6.41,0,0,1-1.87-4.65,6.88,6.88,0,0,1,1.74-4.88A5.76,5.76,0,0,1,560,95.47Zm-.21,1.37a2.1,2.1,0,0,0-1.28.42,2.8,2.8,0,0,0-.86,1,5.74,5.74,0,0,0-.43,1.11,3.65,3.65,0,0,0-.13.88q0,.21.18.21H562c.18,0,.27-.15.27-.45a3.85,3.85,0,0,0-.7-2.11A2.13,2.13,0,0,0,559.76,96.84Z"/><path class="cls-1" d="M573.83,95.41a5.11,5.11,0,0,1,2.17.42q.15,0,.15-.48V92.56a10.35,10.35,0,0,0-.18-2q-.15-.47-1.55-.48h-.24q-.18,0-.18-.48t.18-.48q.89-.09,1.74-.24t1.4-.3q.55-.15,1-.3l.61-.22.24-.07h.06a.32.32,0,0,1,.24.16.54.54,0,0,1,.12.31,11.39,11.39,0,0,0-.3,2.79v13.08a10.87,10.87,0,0,0,.18,2.2.44.44,0,0,0,.3.33,1.83,1.83,0,0,0,.56.15l.57,0,.3,0a.62.62,0,0,1,.06.36q0,.59-.18.59-.42,0-1.05.12l-1.25.19-1.16.21-1.23.25q-.18,0-.18-.51v-.51a.13.13,0,0,0,0-.12.06.06,0,0,0-.07,0,5,5,0,0,1-3.09,1.1,5.76,5.76,0,0,1-4.19-1.77,6,6,0,0,1-1.78-4.44,7,7,0,0,1,2-5A6.51,6.51,0,0,1,573.83,95.41Zm-.27,1.43a2.6,2.6,0,0,0-2.38,1.34,7,7,0,0,0-.8,3.6,7.17,7.17,0,0,0,.92,3.94,2.92,2.92,0,0,0,2.59,1.41,2.47,2.47,0,0,0,1.64-.52,1.65,1.65,0,0,0,.62-1.32V99a2.07,2.07,0,0,0-.1-.62,2.77,2.77,0,0,0-.36-.7,1.9,1.9,0,0,0-.8-.62A3.15,3.15,0,0,0,573.56,96.84Z"/><path class="cls-1" d="M589.62,95.47a6.55,6.55,0,0,1,4.77,1.95,6.37,6.37,0,0,1,2,4.71,6.73,6.73,0,0,1-13.47,0,6.4,6.4,0,0,1,1.95-4.73A6.51,6.51,0,0,1,589.62,95.47Zm-.39,1.4a2.39,2.39,0,0,0-2.17,1.35,6.4,6.4,0,0,0-.77,3.23,8.67,8.67,0,0,0,1,4.19,3,3,0,0,0,2.69,1.78,2.42,2.42,0,0,0,2.18-1.37,6.32,6.32,0,0,0,.79-3.21,10.2,10.2,0,0,0-.39-2.87,5.24,5.24,0,0,0-1.25-2.21A2.76,2.76,0,0,0,589.23,96.87Z"/><path class="cls-1" d="M608,95.47a3.21,3.21,0,0,1,1.93.58,3.48,3.48,0,0,1,1.19,1.5,7,7,0,0,1,2.17-1.49,6.68,6.68,0,0,1,2.79-.59,3.37,3.37,0,0,1,1.83.48,3.28,3.28,0,0,1,1.19,1.32,7,7,0,0,1,.62,1.84,11.32,11.32,0,0,1,.19,2.16v3.12a12.46,12.46,0,0,0,.21,2.68q.06.21.8.43a4.36,4.36,0,0,0,1,.22c.06,0,.09.14.1.43a1.7,1.7,0,0,1,0,.58l-1.56-.12q-1.35-.09-2-.09t-2,.09l-1.59.12a1.12,1.12,0,0,1-.09-.56c0-.3,0-.45.09-.45a4,4,0,0,0,1.07-.22q.71-.22.77-.43a9.24,9.24,0,0,0,.21-2.08v-3q0-4.31-2.76-4.31a2.71,2.71,0,0,0-1.64.48,1.86,1.86,0,0,0-.77.92c0,.06,0,.14,0,.24a.58.58,0,0,0,0,.24,14.52,14.52,0,0,1,.09,1.84v3.15a11.71,11.71,0,0,0,.21,2.56q.06.21.8.43a4.37,4.37,0,0,0,1,.22c.06,0,.09.14.1.43a1.67,1.67,0,0,1,0,.58l-1.56-.12q-1.35-.09-2-.09t-2,.09l-1.59.12a1.11,1.11,0,0,1-.09-.56c0-.3,0-.45.09-.45a4,4,0,0,0,1.07-.22q.71-.22.77-.43a9.71,9.71,0,0,0,.21-2.17V102a6.31,6.31,0,0,0-.68-3.36,2.26,2.26,0,0,0-2-1,2.84,2.84,0,0,0-1.63.5,1.4,1.4,0,0,0-.74,1.13v5.11a11,11,0,0,0,.24,2.68q.06.21.77.43a4,4,0,0,0,1,.22c.08,0,.12.14.13.43a1.7,1.7,0,0,1,0,.58l-1.56-.12q-1.32-.09-2-.09t-2.08.09l-1.58.12a.88.88,0,0,1-.12-.56c0-.3,0-.45.12-.45a4.29,4.29,0,0,0,1.07-.22q.74-.22.8-.43a9.71,9.71,0,0,0,.21-2.17v-4.85a2.83,2.83,0,0,0-.48-1.9,1.43,1.43,0,0,0-.67-.45,3.31,3.31,0,0,0-.73-.18c-.2,0-.3,0-.3-.09q0-.86.18-.89a41,41,0,0,0,4.76-.89l.09,0,.15,0c.1,0,.18.07.24.21a.55.55,0,0,1,.06.33,10.27,10.27,0,0,0-.12,1.07c0,.08,0,.13.06.15a.44.44,0,0,0,.15-.09A6.6,6.6,0,0,1,605.73,96,5.21,5.21,0,0,1,608,95.47Z"/><path class="cls-1" d="M635.48,104.39a11,11,0,0,0,.24,2.68q.06.21.8.43a4.37,4.37,0,0,0,1,.22c.08,0,.12.14.13.43a1.7,1.7,0,0,1,0,.58l-1.59-.12q-1.38-.09-2-.09t-2.1.09l-1.56.12a.88.88,0,0,1-.12-.56c0-.3,0-.45.12-.45a4.29,4.29,0,0,0,1.07-.22q.74-.22.8-.43a9.71,9.71,0,0,0,.21-2.17v-4.85a2.83,2.83,0,0,0-.48-1.9,1.65,1.65,0,0,0-.68-.45,3.1,3.1,0,0,0-.71-.18c-.2,0-.3,0-.3-.09q0-.86.18-.89a22.72,22.72,0,0,0,2.41-.36,23.16,23.16,0,0,0,2.35-.54l.24-.06c.1,0,.18.07.24.21a.55.55,0,0,1,.06.33,25.64,25.64,0,0,0-.24,2.56Zm-3.09-12.44a1.81,1.81,0,0,1-.54-1.31,1.83,1.83,0,0,1,1.84-1.83,1.83,1.83,0,0,1,1.84,1.83,1.81,1.81,0,0,1-.54,1.31,1.83,1.83,0,0,1-2.62,0Z"/><path class="cls-1" d="M649.14,95.47q3.83,0,3.83,6.09v2.82a12.4,12.4,0,0,0,.21,2.68q.06.21.82.43a4.53,4.53,0,0,0,1,.22c.06,0,.09.14.1.43a1.7,1.7,0,0,1,0,.58q-.18,0-1.56-.12t-2.07-.09q-.71,0-2,.09l-1.53.12a.88.88,0,0,1-.12-.56c0-.3,0-.45.12-.45a3.53,3.53,0,0,0,1-.22q.67-.22.73-.43a8.56,8.56,0,0,0,.24-2.17v-2.82a6.45,6.45,0,0,0-.67-3.45,2.39,2.39,0,0,0-2.13-1,2.75,2.75,0,0,0-1.66.52,1.43,1.43,0,0,0-.71,1.11v5.11a12.46,12.46,0,0,0,.21,2.68c0,.14.3.28.79.43a4.27,4.27,0,0,0,1,.22c.08,0,.12.14.13.43a1.7,1.7,0,0,1,0,.58l-1.56-.12q-1.32-.09-2-.09t-2.07.09l-1.59.12a.88.88,0,0,1-.12-.56c0-.3,0-.45.12-.45a4.13,4.13,0,0,0,1.08-.22q.73-.22.79-.43a9.71,9.71,0,0,0,.21-2.17v-4.85a2.83,2.83,0,0,0-.48-1.9,1.43,1.43,0,0,0-.67-.45,3.35,3.35,0,0,0-.71-.18c-.19,0-.28,0-.28-.09q0-.86.15-.89a42,42,0,0,0,4.79-.89l.07,0,.09,0h.07c.08,0,.15.07.21.21a.91.91,0,0,1,.09.33,10,10,0,0,0-.12,1.07.24.24,0,0,0,0,.15.44.44,0,0,0,.15-.09A6.6,6.6,0,0,1,646.86,96,5.21,5.21,0,0,1,649.14,95.47Z"/><path class="cls-1" d="M668.77,104.33A12.21,12.21,0,0,0,669,107q.06.21.73.46a3.25,3.25,0,0,0,.91.25c.06,0,.09.14.1.42a1.6,1.6,0,0,1,0,.56l-1.11-.07-1.26-.07-1.07,0-1.13,0-1.25.07-1.13.07a.84.84,0,0,1-.12-.55c0-.29,0-.43.12-.43a3.19,3.19,0,0,0,1-.25q.67-.25.73-.46a9.81,9.81,0,0,0,.24-2.2V92.44a10.35,10.35,0,0,0-.18-2q-.15-.47-1.49-.48h-.3q-.18,0-.18-.36t.18-.48q.92-.09,1.75-.24t1.38-.3l1-.28.64-.22.21-.09h.06c.08,0,.16.06.25.18a.9.9,0,0,1,.16.3,9.42,9.42,0,0,0-.36,2.79Z"/><path class="cls-1" d="M678,104.39a11,11,0,0,0,.24,2.68q.06.21.8.43a4.37,4.37,0,0,0,1,.22c.08,0,.12.14.13.43a1.7,1.7,0,0,1,0,.58l-1.59-.12q-1.38-.09-2-.09t-2.1.09l-1.56.12a.88.88,0,0,1-.12-.56c0-.3,0-.45.12-.45a4.29,4.29,0,0,0,1.07-.22q.74-.22.8-.43a9.71,9.71,0,0,0,.21-2.17v-4.85a2.83,2.83,0,0,0-.48-1.9,1.65,1.65,0,0,0-.68-.45,3.1,3.1,0,0,0-.71-.18c-.2,0-.3,0-.3-.09q0-.86.18-.89a22.72,22.72,0,0,0,2.41-.36,23.16,23.16,0,0,0,2.35-.54l.24-.06c.1,0,.18.07.24.21a.55.55,0,0,1,.06.33,25.64,25.64,0,0,0-.24,2.56Zm-3.09-12.44a1.81,1.81,0,0,1-.54-1.31,1.83,1.83,0,0,1,1.84-1.83A1.83,1.83,0,0,1,678,90.64a1.81,1.81,0,0,1-.54,1.31,1.83,1.83,0,0,1-2.62,0Z"/><path class="cls-1" d="M690.37,88a5.86,5.86,0,0,1,2.07.31,2.08,2.08,0,0,1,1.08.76,3.33,3.33,0,0,1-.16,1.65,1.07,1.07,0,0,1-1.08.73,1.16,1.16,0,0,1-.91-.49q-.4-.49-.85-1a1.37,1.37,0,0,0-1-.49,1.58,1.58,0,0,0-1.34.77,5,5,0,0,0-.76,1.87,12.08,12.08,0,0,0-.22,2.41v1.37s0,0,.06.09a.17.17,0,0,0,.12.06h3.27a.24.24,0,0,1,.15,0,.31.31,0,0,1,0,.18,3.06,3.06,0,0,1-.36,1.37h-3.09a.16.16,0,0,0-.18.18v6.63a11.35,11.35,0,0,0,.24,2.68q.06.21.79.43a4.21,4.21,0,0,0,1,.22c.06,0,.09.14.1.43a1.67,1.67,0,0,1,0,.58q-.18,0-1.55-.12t-2.08-.09q-.71,0-2,.09l-1.55.12a.56.56,0,0,1-.12-.33,1.82,1.82,0,0,1,0-.46c0-.15.06-.22.12-.22a4,4,0,0,0,1-.22q.71-.22.77-.43a9.84,9.84,0,0,0,.27-2.44V97.79q0-.21-.18-.21h-1.78s-.06-.06-.06-.18a1.59,1.59,0,0,1,.42-.86,1.2,1.2,0,0,1,1-.54h.48a.16.16,0,0,0,.18-.18v-.3A8.08,8.08,0,0,1,686,90.18,5.56,5.56,0,0,1,690.37,88Z"/><path class="cls-1" d="M698.67,95.47a5.51,5.51,0,0,1,2.5.55,4.71,4.71,0,0,1,1.72,1.4,6.92,6.92,0,0,1,1,1.75,5.13,5.13,0,0,1,.33,1.74q0,.65-.22.82a1.69,1.69,0,0,1-.91.16h-7.11q-.21,0-.21.18a5.78,5.78,0,0,0,.39,2.08,4.08,4.08,0,0,0,1.32,1.75,3.5,3.5,0,0,0,2.25.74,8.2,8.2,0,0,0,.86,0,4.48,4.48,0,0,0,.77-.15l.62-.19a2.53,2.53,0,0,0,.55-.27l.4-.25.59-.4a.48.48,0,0,1,.15.18.57.57,0,0,1,.09.3.91.91,0,0,1-.18.56,4.84,4.84,0,0,1-1.75,1.61,5.52,5.52,0,0,1-2.94.8,6,6,0,0,1-4.46-1.92,6.41,6.41,0,0,1-1.87-4.65,6.88,6.88,0,0,1,1.74-4.88A5.76,5.76,0,0,1,698.67,95.47Zm-.21,1.37a2.1,2.1,0,0,0-1.28.42,2.8,2.8,0,0,0-.86,1,5.74,5.74,0,0,0-.43,1.11,3.65,3.65,0,0,0-.13.88q0,.21.18.21h4.82c.18,0,.27-.15.27-.45a3.85,3.85,0,0,0-.7-2.11A2.13,2.13,0,0,0,698.46,96.84Z"/><path class="cls-1" d="M718.6,95.47a3.65,3.65,0,0,1,2.76,1,4.75,4.75,0,0,1,.92,3.31v5.86a1.35,1.35,0,0,0,.27.91.89.89,0,0,0,.71.31,1.85,1.85,0,0,0,1-.39q.18.06.18.33a1.76,1.76,0,0,1-.18.89,7.38,7.38,0,0,1-1.19.74,3.11,3.11,0,0,1-1.43.39,2.17,2.17,0,0,1-1.34-.51,2.43,2.43,0,0,1-.86-1.1l-.22.19q-.19.16-.54.4a8.77,8.77,0,0,1-.77.48,4.77,4.77,0,0,1-1,.4,4.32,4.32,0,0,1-1.17.16,3.55,3.55,0,0,1-2.42-.82,2.83,2.83,0,0,1-.94-2.25,2.74,2.74,0,0,1,.34-1.34,3.56,3.56,0,0,1,.82-1,6.08,6.08,0,0,1,1.28-.79,12.17,12.17,0,0,1,1.38-.58l1.49-.46,1.26-.39a.47.47,0,0,0,.27-.48V99.07a2.56,2.56,0,0,0-.48-1.64,1.55,1.55,0,0,0-1.28-.59,1.8,1.8,0,0,0-1.4.55,2.22,2.22,0,0,0-.5,1.56,1,1,0,0,1-.45.88,1.85,1.85,0,0,1-1,.28,1.68,1.68,0,0,1-1.55-.71q0-1.43,1.95-2.68A7.46,7.46,0,0,1,718.6,95.47Zm-1.34,11.42a2.3,2.3,0,0,0,1.38-.42,1.18,1.18,0,0,0,.58-1v-3q-.21.09-.88.3t-1,.36a8.1,8.1,0,0,0-.83.42,1.8,1.8,0,0,0-.7.65,1.64,1.64,0,0,0-.22.83,1.83,1.83,0,0,0,.48,1.4A1.71,1.71,0,0,0,717.27,106.89Z"/><path class="cls-1" d="M735.82,95.47q3.83,0,3.83,6.09v2.82a12.4,12.4,0,0,0,.21,2.68q.06.21.82.43a4.53,4.53,0,0,0,1,.22c.06,0,.09.14.1.43a1.7,1.7,0,0,1,0,.58q-.18,0-1.56-.12t-2.07-.09q-.71,0-2,.09l-1.53.12a.88.88,0,0,1-.12-.56c0-.3,0-.45.12-.45a3.53,3.53,0,0,0,1-.22q.67-.22.73-.43a8.56,8.56,0,0,0,.24-2.17v-2.82a6.45,6.45,0,0,0-.67-3.45,2.39,2.39,0,0,0-2.13-1,2.75,2.75,0,0,0-1.66.52,1.43,1.43,0,0,0-.71,1.11v5.11a12.46,12.46,0,0,0,.21,2.68c0,.14.3.28.79.43a4.27,4.27,0,0,0,1,.22c.08,0,.12.14.13.43a1.7,1.7,0,0,1,0,.58l-1.56-.12q-1.32-.09-2-.09t-2.07.09l-1.59.12a.88.88,0,0,1-.12-.56c0-.3,0-.45.12-.45a4.13,4.13,0,0,0,1.08-.22q.73-.22.79-.43a9.71,9.71,0,0,0,.21-2.17v-4.85a2.83,2.83,0,0,0-.48-1.9,1.43,1.43,0,0,0-.67-.45,3.35,3.35,0,0,0-.71-.18c-.19,0-.28,0-.28-.09q0-.86.15-.89a42,42,0,0,0,4.79-.89l.07,0,.09,0h.07c.08,0,.15.07.21.21a.91.91,0,0,1,.09.33,10,10,0,0,0-.12,1.07.24.24,0,0,0,0,.15.44.44,0,0,0,.15-.09A6.6,6.6,0,0,1,733.55,96,5.21,5.21,0,0,1,735.82,95.47Z"/><path class="cls-1" d="M750.46,95.41a5.11,5.11,0,0,1,2.17.42q.15,0,.15-.48V92.56a10.35,10.35,0,0,0-.18-2q-.15-.47-1.55-.48h-.24q-.18,0-.18-.48t.18-.48q.89-.09,1.74-.24t1.4-.3q.55-.15,1-.3l.61-.22.24-.07h.06a.32.32,0,0,1,.24.16.54.54,0,0,1,.12.31,11.39,11.39,0,0,0-.3,2.79v13.08a10.87,10.87,0,0,0,.18,2.2.44.44,0,0,0,.3.33,1.83,1.83,0,0,0,.56.15l.57,0,.3,0a.62.62,0,0,1,.06.36q0,.59-.18.59-.42,0-1.05.12l-1.25.19-1.16.21-1.23.25q-.18,0-.18-.51v-.51a.13.13,0,0,0,0-.12.06.06,0,0,0-.07,0,5,5,0,0,1-3.09,1.1,5.76,5.76,0,0,1-4.19-1.77,6,6,0,0,1-1.78-4.44,7,7,0,0,1,2-5A6.51,6.51,0,0,1,750.46,95.41Zm-.27,1.43a2.6,2.6,0,0,0-2.38,1.34,7,7,0,0,0-.8,3.6,7.17,7.17,0,0,0,.92,3.94,2.92,2.92,0,0,0,2.59,1.41,2.47,2.47,0,0,0,1.64-.52,1.65,1.65,0,0,0,.62-1.32V99a2.07,2.07,0,0,0-.1-.62,2.77,2.77,0,0,0-.36-.7,1.9,1.9,0,0,0-.8-.62A3.15,3.15,0,0,0,750.19,96.84Z"/><path class="cls-1" d="M784.69,97.73a.86.86,0,0,0-.24-.61,1.31,1.31,0,0,0-.61-.36,5.38,5.38,0,0,0-.68-.15,4.3,4.3,0,0,0-.61,0h-.12c-.08,0-.12-.15-.13-.45s0-.48.07-.54q.39,0,1.58.09t1.9.09c.42,0,.95,0,1.59-.09s1.12-.09,1.41-.09a1.85,1.85,0,0,1,.06.51c0,.3,0,.45-.12.45a3.37,3.37,0,0,0-1.17.37,1.81,1.81,0,0,0-1,.91l-4.4,10.49a1.17,1.17,0,0,1-.4.43,1,1,0,0,1-.58.19.37.37,0,0,1-.39-.21l-3.63-8.21L774,108.29a1.58,1.58,0,0,1-.34.42.9.9,0,0,1-.64.24.44.44,0,0,1-.42-.21q-.68-1.55-1.62-3.76t-1.71-3.91q-.77-1.69-1.78-3.69a1.37,1.37,0,0,0-.77-.59,2.86,2.86,0,0,0-1-.21q-.12,0-.12-.48t.12-.51q.3,0,1.5.09t1.89.09q.68,0,2-.09l1.55-.09a1.62,1.62,0,0,1,.06.54c0,.26,0,.4-.09.42a3.53,3.53,0,0,0-1,.21q-.64.21-.64.62s1,2.32,3,6.84q.33-.83.76-1.89l.65-1.6.45-1.11q.22-.56.31-.85a1.61,1.61,0,0,0,.09-.37,2.17,2.17,0,0,0-.39-1.19,1.41,1.41,0,0,0-.65-.48,2.37,2.37,0,0,0-1.07-.18c-.08,0-.12-.14-.12-.43s0-.46.12-.52.71,0,1.47.09,1.38.09,1.86.09,1.08,0,1.93-.09l1.52-.09a1.45,1.45,0,0,1,0,.55c0,.29,0,.43-.1.43q-1.52,0-1.52,1a47.66,47.66,0,0,0,2.79,6.6q.47-1.25,1.17-2.93t1-2.5A4,4,0,0,0,784.69,97.73Z"/><path class="cls-1" d="M797.3,95.47a6.55,6.55,0,0,1,4.77,1.95,6.37,6.37,0,0,1,2,4.71,6.73,6.73,0,0,1-13.47,0,6.4,6.4,0,0,1,1.95-4.73A6.51,6.51,0,0,1,797.3,95.47Zm-.39,1.4a2.39,2.39,0,0,0-2.17,1.35,6.4,6.4,0,0,0-.77,3.23,8.67,8.67,0,0,0,1,4.19,3,3,0,0,0,2.69,1.78,2.42,2.42,0,0,0,2.18-1.37,6.32,6.32,0,0,0,.79-3.21,10.2,10.2,0,0,0-.39-2.87A5.24,5.24,0,0,0,799,97.76,2.76,2.76,0,0,0,796.92,96.87Z"/><path class="cls-1" d="M814.67,95.47a3,3,0,0,1,2.44,1q0,2.53-1.43,2.53a1.77,1.77,0,0,1-1.16-.59,1.86,1.86,0,0,0-1.28-.59,1.59,1.59,0,0,0-1.44.94,4,4,0,0,0-.52,1.95v3.72a12.46,12.46,0,0,0,.21,2.68c0,.14.3.28.79.43a4.19,4.19,0,0,0,1,.22c.06,0,.09.14.1.43a3.11,3.11,0,0,1,0,.58l-1.58-.12q-1.34-.09-2-.09t-2.07.09l-1.59.12a.88.88,0,0,1-.12-.56c0-.3,0-.45.12-.45a4.13,4.13,0,0,0,1.08-.22q.73-.22.79-.43a9.71,9.71,0,0,0,.21-2.17v-4.85a2.83,2.83,0,0,0-.48-1.9,1.43,1.43,0,0,0-.67-.45,3.35,3.35,0,0,0-.71-.18c-.19,0-.28,0-.28-.09q0-.86.15-.89a42,42,0,0,0,4.79-.89l.24-.06c.08,0,.15.07.21.21a.71.71,0,0,1,.07.34l0,.42c0,.19,0,.39-.07.59a3.7,3.7,0,0,0,0,.4,5.45,5.45,0,0,1,1.46-1.44A3.26,3.26,0,0,1,814.67,95.47Z"/><path class="cls-1" d="M831.47,97.46q-.59.36-1.89,1.34a20.93,20.93,0,0,0-2.36,2.08q.86.92,2.17,2.41t2.17,2.44a14.27,14.27,0,0,0,1.19,1.22,3.75,3.75,0,0,0,1.14.59,3.62,3.62,0,0,0,1,.24q.12,0,.12.51a1.75,1.75,0,0,1,0,.42l-3.48-.15-1.14,0-1.28.07-1.11.07a.8.8,0,0,1-.12-.54c0-.28,0-.42.12-.42a2.13,2.13,0,0,0,.68-.13c.26-.09.39-.18.39-.28s0-.06,0-.06l-4.34-4.85-.36.09v1.84a12.16,12.16,0,0,0,.24,2.68q.06.21.8.43a4.31,4.31,0,0,0,1,.22c.06,0,.09.14.1.43a1.7,1.7,0,0,1,0,.58l-1.58-.12q-1.37-.09-2.05-.09t-2.07.09l-1.59.12a.87.87,0,0,1-.12-.56c0-.3,0-.45.12-.45a4.15,4.15,0,0,0,1.08-.22q.73-.22.79-.43a9.77,9.77,0,0,0,.21-2.17V92.56a11.66,11.66,0,0,0-.15-2q-.15-.47-1.55-.48h-.27q-.18,0-.18-.48t.18-.48q.92-.09,1.75-.24t1.38-.3q.55-.15,1-.3l.85-.3h.06a.32.32,0,0,1,.24.16.83.83,0,0,1,.15.31,9.57,9.57,0,0,0-.36,2.79v9.93a2.69,2.69,0,0,0,.89-.33q.63-.56,1.35-1.17l1.05-.88q.33-.27.65-.58a2.6,2.6,0,0,0,.43-.49.7.7,0,0,0,.1-.36q0-.33-.67-.4a2.91,2.91,0,0,1-.67-.1,1.32,1.32,0,0,1-.09-.52c0-.21,0-.32.12-.34h2.88q.8,0,3.15-.12a.47.47,0,0,1,.15.33,1.32,1.32,0,0,1,0,.45c0,.14-.07.21-.13.21A3.9,3.9,0,0,0,831.47,97.46Z"/><path class="cls-1" d="M840.53,105.55a1.94,1.94,0,0,1,.58,1.4,2,2,0,0,1-.58,1.41,1.84,1.84,0,0,1-1.38.61,1.92,1.92,0,0,1-1.43-.61,2,2,0,0,1-.59-1.41,1.91,1.91,0,0,1,.59-1.4,1.94,1.94,0,0,1,1.43-.59A1.86,1.86,0,0,1,840.53,105.55Z"/></svg>