<svg id="Layer_1" data-name="Layer 1" xmlns="http://www.w3.org/2000/svg" viewBox="0 0 1161.72 496.35"><defs><style>.cls-1{fill:#fff;stroke:#1928eb;stroke-miterlimit:10;stroke-width:1.4px;}</style></defs><title>title</title><path class="cls-1" d="M18.36,212.38,41,206.22q21.31-5.8,36.7,3.49a42.94,42.94,0,0,1,20,26.3q5.13,18.83-3.5,34.87T64.39,292.69q-2.75.75-10.86,2.68t-11.64,2.89l-17.25,5.26q-.5-.29-1-2-.6-2.22-.21-2.33A22.36,22.36,0,0,0,28.2,297q3-1.74,3.24-3.06.17-3-2.32-12.15L15.66,232.36q-2.14-7.85-3.83-10.47-.78-1.33-4.3-1.36A21.36,21.36,0,0,0,2,221q-.52.14-1.06-1.82a3.69,3.69,0,0,1-.12-2.5Q9.6,214.76,18.36,212.38Zm11.75,14.78,14,51.26q2,7.32,4.07,9.29,2.66,1.52,16.52-2.25Q91.21,278.22,80.81,240q-4-14.64-13.89-22.91t-23.11-4.66l-.65.18q-12.55,3.42-13.55,5.94Q28.54,221.4,30.11,227.16Z"/><path class="cls-1" d="M130.53,212.18A29.88,29.88,0,0,1,153.85,215a29,29,0,0,1,14.34,18.36,30.43,30.43,0,0,1-21.54,37.47,29.69,29.69,0,0,1-23.4-2.9,30.51,30.51,0,0,1-11.39-41.56A29.69,29.69,0,0,1,130.53,212.18Zm0,6.61q-6.15,1.67-7.93,8.55a29.15,29.15,0,0,0,.46,15.11,39.53,39.53,0,0,0,9.27,17.28q6.38,6.69,14,4.62,6.15-1.67,8-8.63a28.82,28.82,0,0,0-.38-15.07,46.51,46.51,0,0,0-5.14-12.16,23.9,23.9,0,0,0-8.14-8.25A12.57,12.57,0,0,0,130.51,218.79Z"/><path class="cls-1" d="M210,190.53q16.87-4.59,24.17,22.21l3.38,12.42a56.75,56.75,0,0,0,4.12,11.52q.51.85,4.11.92a20.76,20.76,0,0,0,4.78-.25c.26-.07.59.52,1,1.77a7.7,7.7,0,0,1,.5,2.6q-.82.08-7,1.35t-9.2,2.08q-3.14.85-8.59,2.76t-6.59,2.36q-.67-.38-1.2-2.34t0-2.1a16.13,16.13,0,0,0,4.11-2.17q2.67-1.78,2.69-2.77a39,39,0,0,0-1.55-9.83l-3.38-12.42q-3-10.85-7.07-14.37t-10.52-1.77a12.55,12.55,0,0,0-6.7,4.28q-2.52,3.14-1.8,5.76L201.37,235a56.76,56.76,0,0,0,4.12,11.52q.51.85,4,1a19.57,19.57,0,0,0,4.52-.18q.52-.14,1.11,1.74a7.7,7.7,0,0,1,.5,2.6q-1.08.15-7,1.35t-8.93,2q-3.14.85-9,2.87t-6.85,2.43q-.67-.38-1.2-2.34t0-2.1a18.93,18.93,0,0,0,4.51-2.28q2.94-1.85,2.95-2.84a44.34,44.34,0,0,0-1.68-9.79l-5.8-21.31q-1.67-6.14-4.37-7.8a6.54,6.54,0,0,0-3.48-1.16,15.44,15.44,0,0,0-3.35.07c-.85.14-1.3.12-1.35-.05q-1-3.79-.41-4.1,5.87-2.16,20-9.65a.89.89,0,0,1,.27-.29,1.31,1.31,0,0,1,.38-.17l.33-.09c.35-.09.74.13,1.16.67a4.11,4.11,0,0,1,.78,1.33,46,46,0,0,0,.76,4.85c.09.35.2.56.31.62s.27-.21.55-.57a30,30,0,0,1,6.55-7.68A23.73,23.73,0,0,1,210,190.53Z"/><path class="cls-1" d="M253.17,152.39a18.18,18.18,0,0,1,.46,7.11,20.34,20.34,0,0,1-1.82,6.47,40.16,40.16,0,0,1-3,5.09,25.83,25.83,0,0,1-2.88,3.59,6.25,6.25,0,0,1-1.67,1.37,3.92,3.92,0,0,1-2.28-.36,4.62,4.62,0,0,1-2.17-1.52,21.33,21.33,0,0,0,4.42-6.47,18.51,18.51,0,0,0,1.6-5.21,8.46,8.46,0,0,0-.11-2.71q-.46-1.7-4-3.89t-4-4q-.6-2.22,1.61-4.65a11.29,11.29,0,0,1,5.49-3.32,8.45,8.45,0,0,1,3.91-.08Q251.46,146.11,253.17,152.39Z"/><path class="cls-1" d="M274.91,182.71l-8,2.17q-.92.25-1.84-3.15a3.35,3.35,0,0,1-.19-1.21,37.92,37.92,0,0,0,8.18-9.67q1.23-2.16,2.68-4.87t3.26-6.86a9.66,9.66,0,0,1,2.57-.35q1.27,0,1.37.4L286.45,172q3.4-.93,9.5-2.52l6.49-1.7q1-.28,1.37.89a13.16,13.16,0,0,1,.26,6.11L288.37,179,297,210.55q1.42,5.23,4.39,7.37a7.74,7.74,0,0,0,6.89,1.07,12.82,12.82,0,0,0,2.66-1.08,14.41,14.41,0,0,0,2.16-1.36c.54-.43,1-.84,1.49-1.25a4.32,4.32,0,0,1,.81-.64q.48-.27,1.5.86c.67.75,1,1.27,1,1.56q-.29,2-4.4,5.76a21.36,21.36,0,0,1-8.69,5A17.1,17.1,0,0,1,292,226.59q-6-3.08-8.46-12.23Z"/><path class="cls-1" d="M347.18,123.14q2.35-.64,17.83-5.7a6.25,6.25,0,0,1,.84,2.3c.29,1.23.3,1.88,0,2a15,15,0,0,0-4.46,2.2q-2.37,1.63-1.87,3.46a8.5,8.5,0,0,0,2.1,3.08L382.43,152q.83.48,1.24-.62,3.34-9.9,6.15-20.22T392,118.53q-.39-1.44-3.11-1.89a15.91,15.91,0,0,0-6.64.62q-.52.14-1-1.69a4.68,4.68,0,0,1-.25-2.46q13.42-2.81,15.91-3.49,3-.82,5.39-1.61t4.88-1.68q2.5-.89,3.9-1.41a8.93,8.93,0,0,1,.83,2c.38,1.4.39,2.14,0,2.23a18.86,18.86,0,0,0-5.11,2.65,11,11,0,0,0-4.18,4.51q-2.26,6.66-7.74,25.21t-5,20.26l5.55,20.4a51.81,51.81,0,0,0,4.25,11.48q.51.85,4.15,1a19,19,0,0,0,4.68-.08c.35-.09.71.56,1.09,1.95a7,7,0,0,1,.31,2.16l-5.08,1q-3.34.63-6.12,1.25t-5.4,1.33q-3.53,1-9.5,3t-7.38,2.57a3.14,3.14,0,0,1-1.09-1.95c-.38-1.39-.44-2.13-.18-2.2a18.51,18.51,0,0,0,4.55-2.36q3-1.94,3.09-3.09a48.35,48.35,0,0,0-2.09-11.79l-5.27-19.35a8.48,8.48,0,0,0-1.54-2.32q-1.37-1.66-4.51-5t-5.48-5.67l-7.57-7.7-7.76-7.86q-5.72-6-9.26-7.17a13.61,13.61,0,0,0-4.3-.58,16.27,16.27,0,0,0-3.92.3q-.39.11-.81-1.18a4.13,4.13,0,0,1-.3-1.88Q333.05,127,347.18,123.14Z"/><path class="cls-1" d="M442.68,127.2A29.88,29.88,0,0,1,466,130.05a29,29,0,0,1,14.34,18.36,30.7,30.7,0,0,1-59.24,16.13,29.2,29.2,0,0,1,2.9-23.12A29.7,29.7,0,0,1,442.68,127.2Zm0,6.61q-6.15,1.67-7.93,8.55a29.15,29.15,0,0,0,.46,15.11,39.52,39.52,0,0,0,9.27,17.28q6.38,6.69,14,4.62,6.15-1.67,8-8.63a28.82,28.82,0,0,0-.38-15.07,46.54,46.54,0,0,0-5.13-12.16,23.91,23.91,0,0,0-8.14-8.25A12.57,12.57,0,0,0,442.65,133.81Z"/><path class="cls-1" d="M540.41,115.76l7,25.89q1.71,6.28,3.54,8.87a2.81,2.81,0,0,0,1.79.64,10.53,10.53,0,0,0,2.43-.1,20.4,20.4,0,0,0,2.19-.46,2.5,2.5,0,0,1,1.15-.17q.56,0,.84,1a10.33,10.33,0,0,1,.22,1.84c.05.88-.1,1.36-.45,1.46a31.13,31.13,0,0,0-4.52,1.72q-2.69,1.23-5.18,2.39t-4.7,2.33q-2.21,1.16-4.95,2.47-.92.25-1.49-1.84l-1.57-5.75c-.21-.41-.4-.59-.57-.55a30.21,30.21,0,0,1-6.37,8.06,22.69,22.69,0,0,1-9.62,5.43,14.19,14.19,0,0,1-8.38-.11,16.35,16.35,0,0,1-6.8-4.33,29.12,29.12,0,0,1-4.81-6.84,41.35,41.35,0,0,1-3.09-8l-4-14.65q-1.67-6.14-4.37-7.8a7.54,7.54,0,0,0-3.54-1.14,14.25,14.25,0,0,0-3.35.07q-1.34.23-1.42,0-1-3.79-.41-4.1a102.13,102.13,0,0,0,10.3-4.49,106.25,106.25,0,0,0,9.69-5.17,2.16,2.16,0,0,0,.49-.27,2.28,2.28,0,0,1,.49-.27q.65-.18,1.23.65a4.8,4.8,0,0,1,.72,1.35q1.25,9.21,2,11.83l4.27,15.69q2.78,10.2,6.86,13.86t10.5,1.92a10.64,10.64,0,0,0,6.37-4.47q2.18-3.33,1.54-5.69l-5.87-21.58q-1.67-6.14-4.37-7.8a6.53,6.53,0,0,0-3.48-1.16,15.28,15.28,0,0,0-3.42.09q-1.34.23-1.42,0-1-3.79-.28-4.14a103.82,103.82,0,0,0,10.16-4.45,106.3,106.3,0,0,0,9.69-5.17,7.81,7.81,0,0,0,1-.55q.65-.18,1.29.63a2.49,2.49,0,0,1,.65,1.37Q539.77,113.41,540.41,115.76Z"/><path class="cls-1" d="M613.26,142.42q-3.92,1.07-8.32,2.48t-6.81,2.34l-2.58.84q-.5-.29-1-2-.6-2.22-.21-2.33a22.34,22.34,0,0,0,4.74-2.2q3-1.74,3.24-3.06.17-3-2.32-12.15L586.59,76.93q-2.14-7.85-3.83-10.47-.78-1.33-4.3-1.36a21.39,21.39,0,0,0-5.48.51q-.52.14-1.06-1.82a3.68,3.68,0,0,1-.12-2.5q8.64-1.79,17.4-4.18,6.18-1.54,20.62-6t21.37-6.38q1.59,3.78,5.06,10.35T640,62.23a4.19,4.19,0,0,1-2.57,1.4,1.83,1.83,0,0,1-2.08-.42q-7.48-10.46-19.91-7.08L608.68,58q-9.68,2.64-9.47,4.41a60.86,60.86,0,0,0,2.23,10.77L607,93.7q.21.78,6-.78l6.67-1.82.52-.14q7.58-2.06,8.84-3.11t1-5.18q-.14-2.07-.1-3.48-.12-.95,1.84-1.49a3.68,3.68,0,0,1,2.66,0l6.73,24.71q-.38.67-2.34,1.2-1.7.46-2.38-.48a42.62,42.62,0,0,0-3.06-4.79,7.92,7.92,0,0,0-1.41-1.58l-1.33-.48q-2-.58-12.32,2.23-9.29,2.53-9,3.57l5.59,20.53q1.92,7.06,4.39,10.46.88,1.17,5.38,1.2a27.14,27.14,0,0,0,5.94-.35q.65-.18,1.26,2a3.94,3.94,0,0,1,.18,2.2Q616.14,141.64,613.26,142.42Z"/><path class="cls-1" d="M676.49,63.55A25.13,25.13,0,0,1,688.13,63a21.46,21.46,0,0,1,9.26,4.08,31.54,31.54,0,0,1,6.28,6.58,23.37,23.37,0,0,1,3.52,7.26q.78,2.88,0,3.86t-3.79,1.8l-31.25,8.51c-.61.17-.84.51-.7,1a26.34,26.34,0,0,0,4.19,8.69,18.64,18.64,0,0,0,7.92,6.13,15.94,15.94,0,0,0,10.76.58,36.86,36.86,0,0,0,3.74-1.23,20.18,20.18,0,0,0,3.22-1.58q1.44-.88,2.51-1.6a11.62,11.62,0,0,0,2.1-1.84l1.46-1.59q.43-.47,2.13-2.48a2.23,2.23,0,0,1,.87.61,2.62,2.62,0,0,1,.75,1.2,4.17,4.17,0,0,1-.11,2.7q-1,4.06-5.79,9.16a25.15,25.15,0,0,1-12,7.06,27.45,27.45,0,0,1-21.91-3.09A29.23,29.23,0,0,1,657.5,100.6q-3.59-13.21,1.81-23.53A26.27,26.27,0,0,1,676.49,63.55Zm.72,6.27a9.58,9.58,0,0,0-5.12,3.36,12.78,12.78,0,0,0-2.58,5.48,25.93,25.93,0,0,0-.56,5.42,16.51,16.51,0,0,0,.46,4q.25.92,1,.7L691.62,83q1.18-.32.64-2.28a17.56,17.56,0,0,0-5.6-8.45Q682.31,68.42,677.21,69.81Z"/><path class="cls-1" d="M733.5,48a25.13,25.13,0,0,1,11.64-.57,21.47,21.47,0,0,1,9.26,4.08,31.54,31.54,0,0,1,6.28,6.58,23.36,23.36,0,0,1,3.52,7.26q.78,2.88,0,3.86T760.41,71l-31.25,8.51c-.61.17-.84.51-.7,1a26.33,26.33,0,0,0,4.19,8.69,18.64,18.64,0,0,0,7.92,6.13,15.94,15.94,0,0,0,10.76.58,37.06,37.06,0,0,0,3.74-1.23,20.17,20.17,0,0,0,3.22-1.58q1.45-.88,2.52-1.6a11.66,11.66,0,0,0,2.1-1.84l1.46-1.59q.43-.47,2.13-2.48a2.23,2.23,0,0,1,.87.61,2.61,2.61,0,0,1,.75,1.2,4.17,4.17,0,0,1-.11,2.7q-1,4.07-5.79,9.16a25.15,25.15,0,0,1-12,7.06,27.44,27.44,0,0,1-21.91-3.09,29.23,29.23,0,0,1-13.81-18.22q-3.6-13.21,1.81-23.53A26.27,26.27,0,0,1,733.5,48Zm.72,6.27a9.57,9.57,0,0,0-5.12,3.36,12.77,12.77,0,0,0-2.58,5.48,25.93,25.93,0,0,0-.56,5.42,16.56,16.56,0,0,0,.46,4q.25.92,1,.7l21.18-5.77q1.18-.32.64-2.28a17.57,17.57,0,0,0-5.6-8.45Q739.32,52.9,734.22,54.29Z"/><path class="cls-1" d="M797.07,72.58q2.21,8.11,4.12,11.52.51.85,3.75,1.15a14.83,14.83,0,0,0,4.29,0c.26-.07.58.5,1,1.71a7.37,7.37,0,0,1,.48,2.54l-5,1q-3.13.64-5.65,1.19t-4.74,1.15q-2.48.68-4.93,1.48T785,96.17l-4.88,1.68q-.67-.38-1.18-2.28t0-2a14.49,14.49,0,0,0,4.08-2.3q2.64-1.91,2.65-2.9a44.92,44.92,0,0,0-1.59-10L769.23,24A47.2,47.2,0,0,0,766,15.29q-1.22-1.91-7.11-.31l-1.31.36q-.78.21-1.21-1.36-.57-2.09.21-2.31,3.94-1.49,7.43-3.15t5.72-3q2.24-1.31,3.85-2.38t2.54-1.75L777,.8l.26-.07a1.62,1.62,0,0,1,1.33.48,4.15,4.15,0,0,1,1.08,1.11A42.83,42.83,0,0,0,781.4,15Z"/><path class="cls-1" d="M403.71,299.9,395,249.41q-1.38-8-2.82-10.79-.65-1.4-4.15-1.76a21.33,21.33,0,0,0-5.5,0q-.54.09-.88-1.91a3.68,3.68,0,0,1,.12-2.5q8.88-1.12,17.83-2.66,6.81-1.17,11.47-2t8-1.45a40.17,40.17,0,0,1,19.81,1.61,20,20,0,0,1,8.64,5.87,20.55,20.55,0,0,1,4.73,10.32,15.87,15.87,0,0,1-1.26,9.43,21.9,21.9,0,0,1-4.28,6.72,22.32,22.32,0,0,1-3.8,3.06q-1,.58-.4.89,5.08,0,12.23,5.11a21.33,21.33,0,0,1,8.71,14.25,21.87,21.87,0,0,1-6.13,19.9q-8.11,8.41-23.49,10.92l-19,3.13-17.67,3.59q-.47-.33-.77-2.07-.39-2.27,0-2.34a22.38,22.38,0,0,0,4.93-1.74q3.19-1.44,3.52-2.74Q405.32,309.25,403.71,299.9Zm25.18-36.65q9.38-3.81,7.5-14.77-3.11-18-18.46-15.39a36.29,36.29,0,0,0-8.43,2.14,1.36,1.36,0,0,0-.82,1.65l1.94,12.87,2.69,15.63q.23,1.34,8.24,0A26.77,26.77,0,0,0,428.89,263.25Zm18.54,24.59q-1.47-8.55-7.17-13.27T424,271.65a56.28,56.28,0,0,0-8.17,2.09,3,3,0,0,0-.61,2.85l4.28,24.84q1,5.61,2.8,6.67t8.78-.14a27.71,27.71,0,0,0,5.64-1.59,28.94,28.94,0,0,0,5.71-3.18,12.2,12.2,0,0,0,4.45-6.13A18.1,18.1,0,0,0,447.42,287.84Z"/><path class="cls-1" d="M492.19,243.55a25.11,25.11,0,0,1,11.64.54,21.45,21.45,0,0,1,8.83,4.94,31.51,31.51,0,0,1,5.63,7.14,23.35,23.35,0,0,1,2.81,7.56q.51,2.94-.37,3.85T516.79,269l-31.92,5.5q-.94.16-.8,1a26.34,26.34,0,0,0,3.35,9.05,18.64,18.64,0,0,0,7.3,6.86,16,16,0,0,0,10.66,1.6,36.94,36.94,0,0,0,3.84-.87,20.15,20.15,0,0,0,3.36-1.27q1.52-.74,2.66-1.35a11.61,11.61,0,0,0,2.26-1.63l1.61-1.45q.47-.42,2.36-2.26a2.23,2.23,0,0,1,.8.69,2.62,2.62,0,0,1,.63,1.27,4.16,4.16,0,0,1-.36,2.68q-1.38,4-6.64,8.57a25.15,25.15,0,0,1-12.6,5.88,27.44,27.44,0,0,1-21.52-5.17,29.22,29.22,0,0,1-12-19.45q-2.32-13.49,4-23.25A26.27,26.27,0,0,1,492.19,243.55Zm.12,6.3a9.58,9.58,0,0,0-5.42,2.86,12.77,12.77,0,0,0-3.09,5.21,25.9,25.9,0,0,0-1.08,5.34,16.61,16.61,0,0,0,.08,4q.16.94,1,.8l21.64-3.73q1.2-.21.86-2.21a17.57,17.57,0,0,0-4.77-8.94Q497.52,249,492.32,249.85Z"/><path class="cls-1" d="M532.4,246.25l-8.15,1.4q-.93.16-1.53-3.31a3.38,3.38,0,0,1-.07-1.23,37.91,37.91,0,0,0,9.07-8.85q1.44-2,3.13-4.6t3.9-6.52a9.69,9.69,0,0,1,2.6-.1c.84.09,1.28.26,1.33.53l2.25,13.09q3.47-.6,9.69-1.6l6.62-1.07c.71-.12,1.14.22,1.28,1a13.17,13.17,0,0,1-.32,6.11l-16,2.76,5.54,32.19q.92,5.34,3.67,7.76a7.75,7.75,0,0,0,6.76,1.72,12.79,12.79,0,0,0,2.75-.82,14.43,14.43,0,0,0,2.28-1.15q.86-.56,1.6-1.1a4.27,4.27,0,0,1,.87-.56q.51-.22,1.41,1t.83,1.64q-.48,2-4.93,5.32a21.35,21.35,0,0,1-9.12,4.12,17.09,17.09,0,0,1-12.59-2.44q-5.65-3.63-7.26-13Z"/><path class="cls-1" d="M579.15,238.2,571,239.6q-.94.16-1.53-3.31a3.36,3.36,0,0,1-.07-1.23,37.92,37.92,0,0,0,9.07-8.85q1.44-2,3.13-4.6t3.9-6.52a9.68,9.68,0,0,1,2.59-.1q1.26.13,1.33.53l2.25,13.09q3.47-.6,9.7-1.6l6.62-1.07q1.07-.18,1.27,1a13.17,13.17,0,0,1-.32,6.11l-16,2.76L598.45,268q.92,5.34,3.67,7.76a7.75,7.75,0,0,0,6.76,1.72,12.81,12.81,0,0,0,2.75-.82,14.34,14.34,0,0,0,2.28-1.15q.87-.56,1.6-1.1a4.27,4.27,0,0,1,.87-.56q.51-.22,1.41,1t.83,1.64q-.48,2-4.93,5.32a21.36,21.36,0,0,1-9.12,4.12A17.09,17.09,0,0,1,592,283.51q-5.65-3.63-7.26-13Z"/><path class="cls-1" d="M643.92,217.42a25.12,25.12,0,0,1,11.64.54,21.45,21.45,0,0,1,8.83,4.94A31.53,31.53,0,0,1,670,230a23.37,23.37,0,0,1,2.81,7.56q.51,2.94-.37,3.85t-3.95,1.44l-31.92,5.5c-.62.11-.89.43-.8,1a26.36,26.36,0,0,0,3.35,9.05,18.65,18.65,0,0,0,7.3,6.86,15.94,15.94,0,0,0,10.66,1.6,36.9,36.9,0,0,0,3.84-.87,20.15,20.15,0,0,0,3.36-1.27q1.52-.74,2.66-1.35a11.59,11.59,0,0,0,2.26-1.63l1.61-1.45q.47-.42,2.36-2.26a2.22,2.22,0,0,1,.81.69,2.62,2.62,0,0,1,.63,1.27,4.17,4.17,0,0,1-.36,2.68q-1.38,4-6.64,8.57a25.15,25.15,0,0,1-12.6,5.88A27.44,27.44,0,0,1,633.5,272a29.23,29.23,0,0,1-12-19.45q-2.32-13.49,4-23.25A26.27,26.27,0,0,1,643.92,217.42Zm.12,6.3a9.58,9.58,0,0,0-5.42,2.86,12.77,12.77,0,0,0-3.09,5.21,26,26,0,0,0-1.07,5.34,16.61,16.61,0,0,0,.08,4q.16.94,1,.8l21.64-3.73q1.2-.21.86-2.21a17.57,17.57,0,0,0-4.77-8.94Q649.25,222.83,644,223.73Z"/><path class="cls-1" d="M713.9,205.37q7.34-1.26,11.71,2.52,2,11.35-4.46,12.46-2.4.41-5.67-1.77a8.49,8.49,0,0,0-6.2-1.68q-4.14.71-5.75,5.32a18,18,0,0,0-.83,9.15l2.87,16.7a56.74,56.74,0,0,0,3,11.86q.43.89,3.87,1.33a19.2,19.2,0,0,0,4.65.23c.27,0,.53.57.8,1.86a14.12,14.12,0,0,1,.38,2.62q-1.09.05-7.17.68T702,267.8q-3.21.55-9.21,2t-7.05,1.76a4,4,0,0,1-1-2.45q-.35-2,.19-2.1a19,19,0,0,0,4.7-1.84q3.1-1.57,3.21-2.55a44.3,44.3,0,0,0-.74-9.91L688.33,231q-1.08-6.28-3.61-8.18a6.53,6.53,0,0,0-3.35-1.49A15.55,15.55,0,0,0,678,221q-1.29.09-1.34-.18-.67-3.87,0-4.12,6.05-1.59,20.81-7.71a8.18,8.18,0,0,1,1-.45c.35-.06.72.2,1.1.77a3.27,3.27,0,0,1,.6,1.48q0,.61.12,1.9c.06.86.1,1.77.13,2.73a17.13,17.13,0,0,0,.11,1.84,24.87,24.87,0,0,1,5.43-7.6A14.84,14.84,0,0,1,713.9,205.37Z"/><path class="cls-1" d="M236.51,382.81q1.47-.25,16-3.58a23.13,23.13,0,0,1,.64,2.5q.36,1.73-.15,2a13.35,13.35,0,0,0-2.1.57,7.56,7.56,0,0,0-2.53,1.67,3.16,3.16,0,0,0-1.06,3q.44,2.54,3.62,6.67L286,442.77q.52.6,1.06.16a2.07,2.07,0,0,0,.72-1l6.48-20.64L275,394.88q-5.41-7.46-8.77-10.18a9.54,9.54,0,0,0-3.93-1.66,11.67,11.67,0,0,0-4.37-.21q-.54.09-.93-2.18a3.55,3.55,0,0,1,0-2.21q17-2.1,17.77-2.23,1.07-.18,15.62-3.51a10.14,10.14,0,0,1,.77,2.48q.36,1.73,0,1.93a12.23,12.23,0,0,0-2.42.69,6.8,6.8,0,0,0-2.39,1.72,3.16,3.16,0,0,0-.89,2.83q.37,2.14,3.6,6.53l11,15.29,5.1-17.52q1.58-5.22,1.14-7.76t-3.86-2.84a20.15,20.15,0,0,0-5.85,0q-.54.09-.86-1.78a4.67,4.67,0,0,1,0-2.47q11.89-1.22,14.83-1.73t5.52-1.09q2.45-.56,5.22-1.24l4.48-1.12a8.54,8.54,0,0,1,.69,2.42q.29,1.67-.09,1.87a16.14,16.14,0,0,0-4.67,2,10.91,10.91,0,0,0-4.13,3.6q-2.36,3.85-5.45,13.87l-6.35,21.45,17.51,24.21q1,1.2,1.62-1,1.59-6.74,7.89-29.27T339.75,381q1.53-5.49,1.12-7.89t-3.8-2.92a17.86,17.86,0,0,0-5.53-.15q-.53.09-.92-1.77a3.49,3.49,0,0,1,.05-2.48q11.89-1.22,14.9-1.74t5.39-1.06q2.38-.55,5-1.21l4.48-1.12a10.44,10.44,0,0,1,.73,2.63q.28,1.6-.26,1.69a14.62,14.62,0,0,0-4.41,1.93,12.82,12.82,0,0,0-4,3.38q-2.89,4.76-5.56,14l-19.43,70a9.14,9.14,0,0,1-1.92,3.63,4.37,4.37,0,0,1-2.29,1.49,1.85,1.85,0,0,1-1.43-.3l-22-30.05-10.21,31.74a9.86,9.86,0,0,1-1.91,3.7,3.38,3.38,0,0,1-2.17,1.4,1.84,1.84,0,0,1-1.43-.3L236.7,401.48a73.3,73.3,0,0,0-8.95-10.42,7.47,7.47,0,0,0-4-1.5,15.32,15.32,0,0,0-4.35-.08q-.53.09-.9-2a3.88,3.88,0,0,1,0-2.34Q235.57,383,236.51,382.81Z"/><path class="cls-1" d="M413.85,381.71q17.09-2.94,21.63,23.37l2.37,13.76q1.4,8.15,3.14,11.84.29.91,3.87,1.33a20.78,20.78,0,0,0,4.78.21q.4-.07.8,1.86a14.09,14.09,0,0,1,.38,2.62q-1,0-7.24.7t-9.22,1.17q-3.34.58-8.95,2t-6.92,1.74a5.07,5.07,0,0,1-.84-2.47q-.34-2,.06-2.07a16.19,16.19,0,0,0,4.44-1.79q2.83-1.52,3.07-2.52a51.37,51.37,0,0,0-.88-9.89l-2.25-13.09q-1.91-11.09-5.64-14.78t-10.27-2.56a13,13,0,0,0-7,3.54q-2.95,2.85-2.47,5.65l4,23q1.4,8.15,3.14,11.84.43.89,3.87,1.33a19.15,19.15,0,0,0,4.65.23q.4-.07.8,1.86a7.65,7.65,0,0,1,.25,2.64q-1.09.05-7.1.67t-9.08,1.15q-3.2.55-9.21,2T381,448.7a4,4,0,0,1-1-2.45q-.35-2,.19-2.1a18.88,18.88,0,0,0,4.7-1.84q3.1-1.56,3.21-2.55a43.59,43.59,0,0,0-.72-9.78l-9.57-55.56a53.6,53.6,0,0,0-2.23-9q-1-2-7.31-.94l-1.2.21q-.8.14-1.17-2t.43-2.28q4.07-1.11,7.7-2.42t6-2.41q2.36-1.09,4-2.07t3.58-2l.27,0a1.46,1.46,0,0,1,1.2.55,3.76,3.76,0,0,1,.91,1.29,43.68,43.68,0,0,0,.56,12.83l4.65,27q.14.8.67.71c.09,0,.25-.18.47-.49a25.79,25.79,0,0,1,7.21-7.22A25,25,0,0,1,413.85,381.71Z"/><path class="cls-1" d="M474.76,371.22a25.12,25.12,0,0,1,11.64.54,21.45,21.45,0,0,1,8.83,4.94,31.54,31.54,0,0,1,5.63,7.14,23.4,23.4,0,0,1,2.81,7.56q.51,2.94-.37,3.85t-3.95,1.44l-31.92,5.5q-.94.16-.8,1a26.33,26.33,0,0,0,3.35,9,18.63,18.63,0,0,0,7.3,6.86,15.94,15.94,0,0,0,10.66,1.6,36.83,36.83,0,0,0,3.84-.87,20.17,20.17,0,0,0,3.36-1.27q1.52-.74,2.66-1.35a11.6,11.6,0,0,0,2.26-1.63l1.61-1.45q.48-.42,2.36-2.26a2.23,2.23,0,0,1,.81.69,2.62,2.62,0,0,1,.63,1.27,4.17,4.17,0,0,1-.36,2.68q-1.38,4-6.64,8.57a25.15,25.15,0,0,1-12.6,5.88,27.44,27.44,0,0,1-21.52-5.17,29.23,29.23,0,0,1-12-19.45q-2.32-13.49,4-23.25A26.27,26.27,0,0,1,474.76,371.22Zm.12,6.3a9.57,9.57,0,0,0-5.42,2.86,12.77,12.77,0,0,0-3.09,5.21,26,26,0,0,0-1.07,5.34,16.6,16.6,0,0,0,.08,4q.16.94,1,.8L488,392q1.2-.21.86-2.21a17.58,17.58,0,0,0-4.77-8.94Q480.09,376.63,474.88,377.53Z"/><path class="cls-1" d="M549.28,358.39q17.23-3,21.94,24.41l2.18,12.69a56.68,56.68,0,0,0,3,11.86q.43.89,4,1.3a20.73,20.73,0,0,0,4.78.21c.27,0,.53.57.8,1.86a7.67,7.67,0,0,1,.25,2.64q-.82,0-7.1.67t-9.35,1.2q-3.21.55-8.81,1.93t-6.79,1.72a4,4,0,0,1-1-2.45q-.35-2,.19-2.1a16.16,16.16,0,0,0,4.3-1.77q2.83-1.52,2.94-2.5a38.92,38.92,0,0,0-.61-9.93l-2.19-12.69q-1.91-11.08-5.67-15t-10.31-2.76a12.55,12.55,0,0,0-7.08,3.63q-2.8,2.89-2.34,5.56l4,23a56.68,56.68,0,0,0,3,11.86q.43.89,3.87,1.33a19.51,19.51,0,0,0,4.51.25c.35-.06.67.55.93,1.83a7.68,7.68,0,0,1,.25,2.64q-1.09.05-7.1.67t-9.08,1.15q-3.21.55-9.21,2t-7.05,1.76a4,4,0,0,1-1-2.45q-.35-2,.19-2.09a19,19,0,0,0,4.7-1.84q3.1-1.57,3.21-2.55a44.31,44.31,0,0,0-.74-9.91l-3.75-21.77q-1.08-6.28-3.61-8.18a6.54,6.54,0,0,0-3.35-1.49,15.58,15.58,0,0,0-3.34-.25c-.86.06-1.31,0-1.34-.18q-.67-3.87,0-4.12,6-1.59,20.81-7.71a.87.87,0,0,1,.3-.26,1.27,1.27,0,0,1,.39-.14l.33-.06c.35-.06.72.2,1.1.77a4.13,4.13,0,0,1,.65,1.4,46,46,0,0,0,.29,4.9c.06.36.14.57.25.64a2,2,0,0,0,.6-.52,30,30,0,0,1,7.25-7A23.72,23.72,0,0,1,549.28,358.39Z"/><path class="cls-1" d="M623.83,316.12q2.4-.41,18.29-4a6.28,6.28,0,0,1,.61,2.37c.17,1.26.12,1.91-.15,2a15,15,0,0,0-4.65,1.76q-2.51,1.4-2.19,3.26a8.5,8.5,0,0,0,1.8,3.27l18.62,23.47q.78.56,1.29-.5,4.27-9.53,8-19.54t3.36-12.41q-.25-1.47-2.92-2.18a15.9,15.9,0,0,0-6.67,0q-.54.09-.86-1.78a4.67,4.67,0,0,1,0-2.47q13.63-1.52,16.17-2,3.07-.53,5.52-1.09t5-1.21l4-1a9,9,0,0,1,.64,2.09q.37,2.14-.17,2.23a18.83,18.83,0,0,0-5.33,2.16,11,11,0,0,0-4.59,4.09Q676.79,321,669.57,339t-6.92,19.69l3.59,20.84a51.84,51.84,0,0,0,3.14,11.84q.43.89,4,1.44a19,19,0,0,0,4.67.37c.35-.06.66.62.9,2a7.05,7.05,0,0,1,.1,2.18l-5.14.47q-3.39.31-6.21.66t-5.5.81q-3.61.62-9.75,2.09t-7.59,1.86a3.14,3.14,0,0,1-.9-2q-.37-2.13,0-2.21a18.52,18.52,0,0,0,4.76-1.92q3.15-1.64,3.37-2.78a48.35,48.35,0,0,0-1-11.94l-3.4-19.77a8.49,8.49,0,0,0-1.32-2.45q-1.2-1.78-4-5.36t-4.91-6.17l-6.81-8.39-7-8.56q-5.12-6.55-8.53-8a13.58,13.58,0,0,0-4.23-1,16.17,16.17,0,0,0-3.93-.08q-.4.07-.7-1.26a4.17,4.17,0,0,1-.12-1.9Q609.41,318.61,623.83,316.12Z"/><path class="cls-1" d="M721.25,328.78a29.88,29.88,0,0,1,22.94,5.06,29,29,0,0,1,12.53,19.64,30.91,30.91,0,1,1-35.47-24.7Zm-.66,6.58q-6.28,1.08-8.7,7.76a29.15,29.15,0,0,0-1,15.09,39.53,39.53,0,0,0,7.58,18.08q5.72,7.27,13.47,5.93,6.28-1.08,8.76-7.83a28.82,28.82,0,0,0,1.06-15,46.51,46.51,0,0,0-4-12.59,23.89,23.89,0,0,0-7.32-9A12.57,12.57,0,0,0,720.59,335.36Z"/><path class="cls-1" d="M819.63,326.69l4.55,26.44q1.1,6.41,2.68,9.17a2.82,2.82,0,0,0,1.72.8,10.59,10.59,0,0,0,2.43.13,20.41,20.41,0,0,0,2.23-.25,2.52,2.52,0,0,1,1.16-.06c.37,0,.62.4.74,1.11a10.24,10.24,0,0,1,0,1.85c0,.88-.23,1.35-.58,1.41a31.08,31.08,0,0,0-4.66,1.28q-2.79,1-5.38,1.89t-4.9,1.88q-2.31.95-5.16,2-.94.16-1.3-2l-1-5.88c-.17-.43-.34-.63-.52-.6a30.23,30.23,0,0,1-7.11,7.41,22.67,22.67,0,0,1-10.09,4.49,14.19,14.19,0,0,1-8.34-.9,16.34,16.34,0,0,1-6.35-5,29.06,29.06,0,0,1-4.14-7.26,41.31,41.31,0,0,1-2.32-8.27l-2.58-15q-1.08-6.28-3.61-8.18a7.53,7.53,0,0,0-3.42-1.48,14.32,14.32,0,0,0-3.34-.25c-.91.07-1.37,0-1.4-.17q-.67-3.87,0-4.12a102,102,0,0,0,10.68-3.49,106.52,106.52,0,0,0,10.14-4.22,2.19,2.19,0,0,0,.51-.23,2.28,2.28,0,0,1,.51-.22c.44-.08.83.18,1.16.76a4.86,4.86,0,0,1,.59,1.41q.36,9.29.82,12l2.76,16q1.79,10.42,5.51,14.45t10.26,2.91a10.64,10.64,0,0,0,6.76-3.85q2.49-3.11,2.08-5.52l-3.79-22q-1.08-6.28-3.61-8.18a6.53,6.53,0,0,0-3.35-1.49,15.34,15.34,0,0,0-3.41-.24q-1.36.1-1.41-.17-.67-3.87.11-4.14a104,104,0,0,0,10.54-3.47,106.52,106.52,0,0,0,10.14-4.22,8,8,0,0,0,1-.45c.44-.08.86.17,1.23.75a2.5,2.5,0,0,1,.52,1.42Q819.21,324.29,819.63,326.69Z"/><path class="cls-1" d="M871.12,273.54q1.47-.25,16-3.58a22.92,22.92,0,0,1,.64,2.5q.37,1.73-.14,2a13.3,13.3,0,0,0-2.1.57,7.55,7.55,0,0,0-2.53,1.67,3.16,3.16,0,0,0-1.06,3q.44,2.54,3.62,6.66l35.08,47.18q.52.6,1.06.16a2.07,2.07,0,0,0,.72-1L928.9,312l-19.26-26.39q-5.41-7.45-8.77-10.18a9.51,9.51,0,0,0-3.93-1.66,11.68,11.68,0,0,0-4.37-.21q-.54.09-.92-2.18a3.54,3.54,0,0,1,0-2.21q17-2.1,17.77-2.23,1.07-.18,15.62-3.51a10,10,0,0,1,.77,2.48q.37,1.73,0,1.93a12.18,12.18,0,0,0-2.42.69,6.8,6.8,0,0,0-2.39,1.72,3.16,3.16,0,0,0-.89,2.83q.37,2.14,3.6,6.53l11,15.29,5.1-17.52q1.58-5.22,1.14-7.76t-3.86-2.84a20.14,20.14,0,0,0-5.85,0c-.36.06-.64-.53-.86-1.78a4.68,4.68,0,0,1,0-2.47q11.89-1.22,14.83-1.73t5.52-1.09q2.45-.56,5.22-1.24l4.48-1.12a8.51,8.51,0,0,1,.69,2.42q.29,1.67-.09,1.87a16.15,16.15,0,0,0-4.67,2,10.9,10.9,0,0,0-4.12,3.6q-2.36,3.85-5.45,13.87l-6.35,21.44L958,326.8q1,1.2,1.62-1,1.59-6.74,7.88-29.27t6.86-24.83q1.53-5.49,1.12-7.89t-3.8-2.92a17.86,17.86,0,0,0-5.53-.15c-.36.06-.67-.53-.92-1.77a3.51,3.51,0,0,1,.05-2.48q11.89-1.22,14.9-1.74t5.39-1.06q2.38-.55,5-1.21l4.48-1.12a10.4,10.4,0,0,1,.73,2.63q.28,1.6-.26,1.7a14.58,14.58,0,0,0-4.41,1.93,12.81,12.81,0,0,0-4,3.37q-2.89,4.76-5.56,14l-19.43,70a9.14,9.14,0,0,1-1.92,3.63,4.37,4.37,0,0,1-2.29,1.49,1.84,1.84,0,0,1-1.43-.3l-22-30.05L924.3,351.58a9.87,9.87,0,0,1-1.91,3.7,3.38,3.38,0,0,1-2.17,1.4,1.84,1.84,0,0,1-1.43-.3l-47.49-64.16a73.3,73.3,0,0,0-8.95-10.42,7.48,7.48,0,0,0-4-1.5,15.28,15.28,0,0,0-4.34-.08q-.53.09-.9-2a3.88,3.88,0,0,1,0-2.34Q870.19,273.7,871.12,273.54Z"/><path class="cls-1" d="M1018.5,277.6a25.13,25.13,0,0,1,11.65.54,21.47,21.47,0,0,1,8.83,4.94,31.58,31.58,0,0,1,5.63,7.14,23.35,23.35,0,0,1,2.81,7.56q.51,2.94-.37,3.85t-3.95,1.44l-31.92,5.5q-.94.16-.8,1a26.34,26.34,0,0,0,3.35,9,18.64,18.64,0,0,0,7.3,6.86,16,16,0,0,0,10.66,1.6,37.08,37.08,0,0,0,3.84-.87,20.24,20.24,0,0,0,3.36-1.27q1.52-.74,2.66-1.35a11.58,11.58,0,0,0,2.26-1.63l1.61-1.45q.47-.42,2.36-2.26a2.2,2.2,0,0,1,.81.69,2.61,2.61,0,0,1,.63,1.27,4.16,4.16,0,0,1-.37,2.68q-1.38,4-6.64,8.57a25.14,25.14,0,0,1-12.6,5.88,27.44,27.44,0,0,1-21.52-5.17,29.23,29.23,0,0,1-12-19.45q-2.32-13.49,4-23.25A26.27,26.27,0,0,1,1018.5,277.6Zm.12,6.3a9.58,9.58,0,0,0-5.42,2.86,12.78,12.78,0,0,0-3.09,5.21,26,26,0,0,0-1.07,5.34,16.56,16.56,0,0,0,.08,4q.16.94,1,.8l21.64-3.73q1.2-.21.86-2.21a17.57,17.57,0,0,0-4.77-8.94Q1023.83,283,1018.62,283.9Z"/><path class="cls-1" d="M1077.4,267.46q8.28-1.43,13.17,2.2t6.71,14.18l4.53,26.31a6.18,6.18,0,0,0,1.9,3.87,4.07,4.07,0,0,0,3.45.85,8.46,8.46,0,0,0,4.24-2.52q.85.13,1.05,1.33a8.07,8.07,0,0,1-.11,4.15,33.66,33.66,0,0,1-4.77,4.26,14.12,14.12,0,0,1-6.11,2.84,9.9,9.9,0,0,1-6.4-1.24,11.11,11.11,0,0,1-4.72-4.28q-.11.16-.85,1t-2.09,2.22a39.76,39.76,0,0,1-3.1,2.73,21.57,21.57,0,0,1-4.23,2.58,19.67,19.67,0,0,1-5.15,1.64q-6.68,1.15-11.52-1.8t-5.94-9.36a12.5,12.5,0,0,1,.5-6.27,16.16,16.16,0,0,1,2.88-5.24,27.85,27.85,0,0,1,5.13-4.53,55.91,55.91,0,0,1,5.76-3.67q2.46-1.32,6.32-3.22t5.38-2.71a2.13,2.13,0,0,0,.83-2.34l-1.26-7.35a11.63,11.63,0,0,0-3.4-7,7.08,7.08,0,0,0-6.2-1.68,8.22,8.22,0,0,0-5.85,3.55q-1.85,2.87-1.06,7.4a4.39,4.39,0,0,1-1.32,4.29,8.43,8.43,0,0,1-4.32,2.05q-4.94.85-7.5-2-1.1-6.41,6.68-13.53A34,34,0,0,1,1077.4,267.46Zm2.82,52.32a10.51,10.51,0,0,0,5.89-2.94q2.28-2.32,1.87-4.72l-2.35-13.62q-.87.56-3.71,2t-4.33,2.4a37.35,37.35,0,0,0-3.42,2.51,8.18,8.18,0,0,0-2.63,3.48,7.47,7.47,0,0,0-.36,3.91q.74,4.28,3.22,5.91A7.79,7.79,0,0,0,1080.22,319.78Z"/><path class="cls-1" d="M1148.85,255.15q7.34-1.26,11.71,2.52,2,11.35-4.46,12.46-2.4.41-5.67-1.77a8.49,8.49,0,0,0-6.2-1.68q-4.14.71-5.75,5.32a18,18,0,0,0-.83,9.15l2.87,16.7a56.59,56.59,0,0,0,3,11.86q.43.89,3.87,1.33a19.15,19.15,0,0,0,4.65.23c.27,0,.53.57.8,1.86a14.12,14.12,0,0,1,.38,2.62q-1.09,0-7.17.68t-9.15,1.16q-3.21.55-9.21,2t-7.05,1.76a4,4,0,0,1-1-2.45q-.35-2,.19-2.1a18.91,18.91,0,0,0,4.7-1.84q3.1-1.57,3.21-2.55a44.31,44.31,0,0,0-.74-9.91l-3.75-21.77q-1.08-6.28-3.61-8.18a6.54,6.54,0,0,0-3.35-1.49,15.54,15.54,0,0,0-3.34-.25c-.86.06-1.31,0-1.34-.18q-.67-3.87,0-4.12,6.05-1.59,20.81-7.71a8,8,0,0,1,1-.45c.35-.06.72.2,1.1.77a3.25,3.25,0,0,1,.6,1.48q0,.61.12,1.9c.06.86.1,1.77.13,2.73a17.39,17.39,0,0,0,.11,1.84,24.87,24.87,0,0,1,5.43-7.6A14.85,14.85,0,0,1,1148.85,255.15Z"/><path class="cls-1" d="M770.73,434.28q8.39-.36,12.78,3.86t4.84,14.92l1.14,26.67a6.18,6.18,0,0,0,1.4,4.08,4.07,4.07,0,0,0,3.31,1.28,8.46,8.46,0,0,0,4.53-2c.55.16.84.64.88,1.45a8.05,8.05,0,0,1-.64,4.1,33.63,33.63,0,0,1-5.27,3.62,14.12,14.12,0,0,1-6.42,2,9.89,9.89,0,0,1-6.19-2,11.11,11.11,0,0,1-4.14-4.84c-.09.1-.41.4-1,.92s-1.35,1.17-2.36,1.93a39.82,39.82,0,0,1-3.43,2.32,21.6,21.6,0,0,1-4.53,2,19.7,19.7,0,0,1-5.32,1q-6.77.29-11.19-3.25t-4.7-10a12.49,12.49,0,0,1,1.3-6.16,16.18,16.18,0,0,1,3.52-4.83,27.78,27.78,0,0,1,5.67-3.84,55.84,55.84,0,0,1,6.18-2.91q2.6-1,6.68-2.39t5.68-2a2.13,2.13,0,0,0,1.13-2.22l-.32-7.45a11.63,11.63,0,0,0-2.48-7.35,7.08,7.08,0,0,0-5.94-2.46,8.22,8.22,0,0,0-6.26,2.78q-2.2,2.61-2,7.21a4.39,4.39,0,0,1-1.86,4.08,8.43,8.43,0,0,1-4.55,1.48q-5,.21-7.18-2.95-.28-6.5,8.35-12.57A34,34,0,0,1,770.73,434.28Zm-3.87,52.26a10.51,10.51,0,0,0,6.21-2.17q2.56-2,2.46-4.45l-.59-13.81q-.93.45-3.94,1.53t-4.6,1.82a37,37,0,0,0-3.71,2.06,8.18,8.18,0,0,0-3.05,3.12,7.47,7.47,0,0,0-.85,3.83q.19,4.33,2.44,6.27A7.8,7.8,0,0,0,766.86,486.53Z"/><path class="cls-1" d="M833,425.1q-.43-10.16,7.8-17.49a29.61,29.61,0,0,1,18.93-7.79,47.55,47.55,0,0,1,6.65.12q2.86.28,8,1.35t7,1.39a120.91,120.91,0,0,1,2.52,20.78,1.47,1.47,0,0,1-1.57,1.29q-3.66.16-4-1.05A23.81,23.81,0,0,0,872,411.77a15.39,15.39,0,0,0-12.44-5.44q-6.23.27-9.4,3.93t-2.91,9.62a15.25,15.25,0,0,0,.64,3.84,9.53,9.53,0,0,0,2,3.51q1.5,1.7,2.43,2.81a16.09,16.09,0,0,0,3.51,2.77q2.58,1.65,3.49,2.29t4.17,2.47a41.25,41.25,0,0,0,4,2.07,49.43,49.43,0,0,0,4.66,2.72q3.82,2.07,5.35,3t4.48,3.27a19.57,19.57,0,0,1,4.33,4.43,27.86,27.86,0,0,1,2.6,5.38,22.81,22.81,0,0,1,1.39,7.06,22,22,0,0,1-8,18.25,31.34,31.34,0,0,1-19.94,7.91q-8.12.35-25.08-2.73a118.53,118.53,0,0,1-2.76-12.16,91.84,91.84,0,0,1-1.43-9.64q.09-1.09,2.12-1.18,3.52-.15,4,.92a26.38,26.38,0,0,0,2.12,5.27,39.47,39.47,0,0,0,4,6.07,17.83,17.83,0,0,0,6.6,5.14,19.06,19.06,0,0,0,9.09,1.71,15.18,15.18,0,0,0,10.4-4.24q4-4,3.71-11.55a11.8,11.8,0,0,0-1.07-4.43,15.67,15.67,0,0,0-2.19-3.57,19.73,19.73,0,0,0-3.52-3.1q-2.31-1.66-3.84-2.55T860,453.18q-3-1.57-4.23-2.19a9.28,9.28,0,0,0-1.54-1q-4-2.27-6.12-3.54a65.64,65.64,0,0,1-5.38-3.77,26.83,26.83,0,0,1-5-4.74,25.64,25.64,0,0,1-3.15-5.56A20.39,20.39,0,0,1,833,425.1Z"/><path class="cls-1" d="M953,435.57q-2.64,1.74-8.34,6.46A95.71,95.71,0,0,0,934.26,452q4.1,4,10.35,10.54T955,473.2a65,65,0,0,0,5.65,5.32A17.11,17.11,0,0,0,966,481a16.5,16.5,0,0,0,4.58.89q.54,0,.64,2.28a7.94,7.94,0,0,1-.05,1.9q-14.93,0-15.87,0-2.57.11-5.21.36t-5.81.59l-5.06.56a3.69,3.69,0,0,1-.65-2.41q-.08-1.89.46-1.92a9.69,9.69,0,0,0,3.09-.74q1.73-.68,1.71-1.36c0-.18-.06-.27-.15-.27l-20.71-21.22-1.61.48.36,8.4q.51,8.8,1.6,12.14.31.94,3.74,1.81a19.73,19.73,0,0,0,4.78.81c.27,0,.46.64.56,1.94a7.67,7.67,0,0,1-.09,2.65q-1-.1-7.2-.23t-9.36,0q-3.25.14-9.39.81t-7.22.85a4,4,0,0,1-.65-2.55q-.09-2,.45-2.05a18.93,18.93,0,0,0,4.9-1.23q3.27-1.16,3.5-2.12a44.27,44.27,0,0,0,.53-9.92l-2.4-56.19a53.46,53.46,0,0,0-1.07-9.18q-.77-2.14-7.13-1.87l-1.22.05q-.81,0-.9-2.13t.72-2.2q4.18-.58,7.94-1.42t6.24-1.62q2.47-.78,4.27-1.54t3.8-1.52h.27a1.46,1.46,0,0,1,1.12.7,3.74,3.74,0,0,1,.74,1.39,43.66,43.66,0,0,0-1.08,12.8l1.93,45.22a12.27,12.27,0,0,0,4-1.66q2.73-2.69,5.93-5.61t4.64-4.2q1.44-1.28,2.87-2.77a12,12,0,0,0,1.87-2.32,3.21,3.21,0,0,0,.4-1.65q-.06-1.49-3.12-1.7a13.39,13.39,0,0,1-3.07-.34,6,6,0,0,1-.51-2.35q-.06-1.42.48-1.58l13.13-.56Q951.32,429,962,428a2.12,2.12,0,0,1,.74,1.46,6.08,6.08,0,0,1,0,2c-.11.64-.3,1-.57,1A17.78,17.78,0,0,0,953,435.57Z"/><path class="cls-1" d="M1002.51,465.06q.35,8.26,1.6,12.14.31.94,3.74,1.81a20,20,0,0,0,4.65.82c.36,0,.59.63.69,1.94a7.7,7.7,0,0,1-.09,2.65q-1-.1-7.27-.23t-9.29,0q-3.39.15-9.53.81t-7.08.85a4,4,0,0,1-.65-2.55c-.06-1.35.09-2,.45-2.05a19.66,19.66,0,0,0,4.83-1.22q3.34-1.16,3.57-2.12a44.3,44.3,0,0,0,.53-9.92l-.94-22.07q-.27-6.36-2.54-8.57a7.53,7.53,0,0,0-3.2-1.9,14.29,14.29,0,0,0-3.28-.67q-1.36-.07-1.37-.35-.17-3.93.64-4.1a104.1,104.1,0,0,0,10.9-2.09,106.4,106.4,0,0,0,10.59-2.89,7.9,7.9,0,0,0,1.07-.32q.68,0,1.12.9a2.5,2.5,0,0,1,.33,1.48,116.3,116.3,0,0,0-.59,11.69ZM986,409a8.26,8.26,0,0,1-2.69-5.85,8.4,8.4,0,0,1,16.79-.72,8.25,8.25,0,0,1-2.18,6.06A8.34,8.34,0,0,1,986,409Z"/><path class="cls-1" d="M1057,422q7.44-.32,11.29,4,.49,11.51-6,11.79-2.44.1-5.4-2.48a8.49,8.49,0,0,0-5.94-2.46q-4.2.18-6.39,4.55a18,18,0,0,0-2,9l.72,16.93a56.71,56.71,0,0,0,1.47,12.15q.31.94,3.67,1.81a19.22,19.22,0,0,0,4.58.82c.27,0,.46.64.56,1.94a14.09,14.09,0,0,1,0,2.64q-1.09-.09-7.2-.23t-9.22,0q-3.25.14-9.39.81t-7.22.85a4,4,0,0,1-.65-2.55c-.06-1.35.09-2,.45-2.05a18.94,18.94,0,0,0,4.9-1.23q3.27-1.16,3.5-2.12a44.3,44.3,0,0,0,.53-9.92l-.94-22.07q-.27-6.36-2.54-8.57a6.53,6.53,0,0,0-3.13-1.9,15.48,15.48,0,0,0-3.28-.67c-.86-.05-1.3-.17-1.3-.35q-.17-3.93.5-4.09,6.2-.81,21.63-5a8.06,8.06,0,0,1,1.07-.32c.36,0,.69.29,1,.91a3.25,3.25,0,0,1,.41,1.54q0,.61-.12,1.9t-.22,2.72a17.29,17.29,0,0,0-.13,1.84,24.86,24.86,0,0,1,6.35-6.85A14.84,14.84,0,0,1,1057,422Z"/><path class="cls-1" d="M1083.77,430.39l-8.26.35q-.95,0-1.1-3.48a3.36,3.36,0,0,1,.08-1.22,37.91,37.91,0,0,0,10.12-7.62q1.68-1.83,3.69-4.16t4.7-6a9.67,9.67,0,0,1,2.59.23q1.23.29,1.25.69l.57,13.27q3.52-.15,9.82-.35l6.71-.22q1.08,0,1.13,1.17a13.16,13.16,0,0,1-1.1,6l-16.25.69,1.4,32.63q.23,5.42,2.66,8.16a7.74,7.74,0,0,0,6.49,2.57,12.82,12.82,0,0,0,2.83-.46,14.39,14.39,0,0,0,2.41-.85q.93-.45,1.73-.89a4.25,4.25,0,0,1,.93-.45q.53-.16,1.27,1.17t.62,1.74q-.73,1.93-5.57,4.65a21.35,21.35,0,0,1-9.57,2.92,17.09,17.09,0,0,1-12.18-4q-5.14-4.32-5.54-13.8Z"/><path class="cls-1" d="M1128.37,391.58a35,35,0,0,1,21.76,6q9.57,6.51,10,17.61.37,8.67-3.08,13.56t-10.87,9l-1.92,1-2.06,1.1q-.66.37-1.78,1.09t-1.78,1.23c-.44.34-.9.72-1.38,1.14a6.89,6.89,0,0,0-1.1,1.2,3,3,0,0,0-.49,1.24,12.77,12.77,0,0,0-.24,3.94,13.06,13.06,0,0,1-.12,3.53q-.89,1.53-3.46,1.64-1.9.08-2.39-11.56-.29-6.77,1.15-9.61t5.91-6.15a42,42,0,0,1,4-2.47q3-1.76,5.09-3.2a15.49,15.49,0,0,0,3.76-4,8.63,8.63,0,0,0,1.6-5.36,8.82,8.82,0,0,0-3.13-6.51,9.49,9.49,0,0,0-6.89-2.42,29.19,29.19,0,0,0-5.39.91,29,29,0,0,1-5.39.91,8.63,8.63,0,0,1-5.77-1.79,6.42,6.42,0,0,1-2.66-5,17.94,17.94,0,0,1,.59-5.18A15,15,0,0,1,1128.37,391.58ZM1140,464.48a8.83,8.83,0,0,1,2.91,6.25,9.05,9.05,0,0,1-2.37,6.54,8.41,8.41,0,0,1-6.18,3,8.77,8.77,0,0,1-6.62-2.5,8.93,8.93,0,0,1-3-6.32,8.72,8.72,0,0,1,2.44-6.48,8.87,8.87,0,0,1,6.38-3A8.5,8.5,0,0,1,1140,464.48Z"/></svg>