<svg id="Layer_1" data-name="Layer 1" xmlns="http://www.w3.org/2000/svg" viewBox="0 0 306.75 82.83"><defs><style>.cls-1{fill:#fff;}</style></defs><title>subtitle-narrow</title><path class="cls-1" d="M14.64.23l2.85,16.54q.19,1.26.42,2.31a1.45,1.45,0,0,0,.78.9,4,4,0,0,0,1,.5c.08,0,.08.2,0,.55a1,1,0,0,1-.15.42l-3.63-1-3.82-.63a.85.85,0,0,1,0-.56c.06-.28.13-.41.21-.4a3.81,3.81,0,0,0,1,0,1.19,1.19,0,0,0,.81-.25.86.86,0,0,0,.17-.36,6.87,6.87,0,0,0-.12-2.12l-.44-2.92a.33.33,0,0,0-.18-.16q-.92-.26-2.49-.59T7.77,11.9c-.12,0-.18,0-.2.08L5.89,14.44a8.44,8.44,0,0,0-1,1.77.66.66,0,0,0,.19.65,3,3,0,0,0,.85.52,5.24,5.24,0,0,0,.86.33q.08,0,0,.43a1.94,1.94,0,0,1-.18.54L5.3,18.3q-1.2-.35-2-.51t-1.8-.31L.05,17.27a.63.63,0,0,1,0-.46c.07-.35.13-.52.17-.51a4.32,4.32,0,0,0,1.17,0,1.83,1.83,0,0,0,1.09-.36,14.13,14.13,0,0,0,1.59-2L12.26,2A6.46,6.46,0,0,1,13.78.11a.76.76,0,0,1,.54-.1A.49.49,0,0,1,14.64.23ZM8.84,10.3q1,.3,2.07.53t2.4.42l.08-.1-1-6.29-3.63,5.3Q8.78,10.29,8.84,10.3Z"/><path class="cls-1" d="M33.9,11q3.75.8,2.48,6.76l-.59,2.76a12.45,12.45,0,0,0-.36,2.66c0,.14.25.34.71.59a4.52,4.52,0,0,0,1,.43c.06,0,.06.16,0,.44a1.71,1.71,0,0,1-.17.56q-.17-.07-1.5-.44t-2-.52q-.7-.15-2-.33L30,23.7a.87.87,0,0,1,0-.58c.06-.29.13-.43.21-.41a3.53,3.53,0,0,0,1,0c.47-.05.73-.14.8-.27a8.51,8.51,0,0,0,.69-2.07l.59-2.76a6.46,6.46,0,0,0,.07-3.51,2.39,2.39,0,0,0-1.87-1.4,2.76,2.76,0,0,0-1.74.16,1.43,1.43,0,0,0-.93.94l-1.07,5a12.5,12.5,0,0,0-.36,2.66c0,.14.24.34.68.59a4.32,4.32,0,0,0,.9.42c.08,0,.09.17,0,.45a1.71,1.71,0,0,1-.17.56L27.33,23q-1.28-.36-1.94-.51t-2-.34l-1.58-.22a.87.87,0,0,1,0-.58c.06-.29.13-.43.21-.41a4.17,4.17,0,0,0,1.11,0q.76-.07.86-.26a9.72,9.72,0,0,0,.66-2.08l1-4.74a2.83,2.83,0,0,0-.07-2,1.43,1.43,0,0,0-.56-.58,3.38,3.38,0,0,0-.66-.32q-.27-.09-.26-.15.18-.84.33-.84a42.21,42.21,0,0,0,4.87.13l.08,0h.09l.07,0c.08,0,.13.1.16.25a.92.92,0,0,1,0,.34,10.13,10.13,0,0,0-.34,1,.23.23,0,0,0,0,.15.44.44,0,0,0,.16-.06,6.59,6.59,0,0,1,2-.84A5.22,5.22,0,0,1,33.9,11Z"/><path class="cls-1" d="M54,15.28a5.51,5.51,0,0,1,2.33,1.06,4.71,4.71,0,0,1,1.39,1.73A6.92,6.92,0,0,1,58.29,20a5.12,5.12,0,0,1,0,1.77q-.14.64-.39.75a1.69,1.69,0,0,1-.92,0L50,21c-.14,0-.22,0-.24.13a5.78,5.78,0,0,0-.06,2.12,4.09,4.09,0,0,0,.93,2,3.5,3.5,0,0,0,2,1.2,8.35,8.35,0,0,0,.85.14,4.38,4.38,0,0,0,.79,0l.65-.06a2.53,2.53,0,0,0,.59-.15l.44-.16.67-.27a.49.49,0,0,1,.11.21.57.57,0,0,1,0,.31.91.91,0,0,1-.29.52,4.84,4.84,0,0,1-2.05,1.2,5.51,5.51,0,0,1-3,.17,6,6,0,0,1-4-2.81,6.41,6.41,0,0,1-.86-4.94,6.88,6.88,0,0,1,2.72-4.4A5.76,5.76,0,0,1,54,15.28Zm-.49,1.29a2.1,2.1,0,0,0-1.34.14,2.79,2.79,0,0,0-1.05.81,5.62,5.62,0,0,0-.65,1,3.62,3.62,0,0,0-.31.83c0,.14,0,.22.13.24l4.71,1q.26.06.36-.38A3.86,3.86,0,0,0,55.11,18,2.13,2.13,0,0,0,53.52,16.57Z"/><path class="cls-1" d="M65.76,17.76A12.65,12.65,0,0,1,69,19a16.94,16.94,0,0,1-.38,3.33c0,.16-.18.21-.43.15q-.64-.14-.65-.38a3.61,3.61,0,0,0-.49-1.91,2.33,2.33,0,0,0-1.61-1.09,2.13,2.13,0,0,0-1.4.1,1.31,1.31,0,0,0-.71,1,1.74,1.74,0,0,0,0,.78,1.86,1.86,0,0,0,.39.74,7.22,7.22,0,0,0,.54.6q.24.23.73.64a1.93,1.93,0,0,0,.26.21l.39.33.42.36.41.38a5.47,5.47,0,0,1,.44.44l.38.45a2.37,2.37,0,0,1,.35.5l.25.53a1.91,1.91,0,0,1,.19.59,5.68,5.68,0,0,1,0,.59,2.76,2.76,0,0,1-.06.64,3.5,3.5,0,0,1-2,2.59,5.64,5.64,0,0,1-3.64.33,9.92,9.92,0,0,1-3.58-1.62,11.87,11.87,0,0,1,.05-1.68,14.48,14.48,0,0,1,.21-1.7.63.63,0,0,1,.44-.06q.67.14.65.38a3.29,3.29,0,0,0,.73,2.21,3.17,3.17,0,0,0,1.83,1.17,2.16,2.16,0,0,0,1.42-.12A1.45,1.45,0,0,0,65,28.32a2,2,0,0,0,0-.55,1.47,1.47,0,0,0-.17-.55l-.25-.48a2.16,2.16,0,0,0-.44-.5l-.51-.46L63,25.24l-.66-.55a6.91,6.91,0,0,1-1.73-2A3.43,3.43,0,0,1,62.3,18,5.74,5.74,0,0,1,65.76,17.76Z"/><path class="cls-1" d="M76.7,20.1A12.64,12.64,0,0,1,80,21.32a16.86,16.86,0,0,1-.38,3.32c0,.16-.18.21-.43.15-.43-.09-.64-.22-.65-.38A3.61,3.61,0,0,0,78,22.5a2.32,2.32,0,0,0-1.61-1.09,2.13,2.13,0,0,0-1.4.1,1.32,1.32,0,0,0-.71,1,1.75,1.75,0,0,0,0,.78,1.86,1.86,0,0,0,.39.74,7.29,7.29,0,0,0,.54.6q.24.23.73.64a1.92,1.92,0,0,0,.26.21l.39.33.42.36.41.38a5.47,5.47,0,0,1,.44.44l.38.44a2.37,2.37,0,0,1,.35.5l.25.52a1.92,1.92,0,0,1,.19.59,5.68,5.68,0,0,1,0,.59,2.73,2.73,0,0,1-.06.64,3.51,3.51,0,0,1-2,2.59,5.65,5.65,0,0,1-3.64.33,9.92,9.92,0,0,1-3.58-1.62,11.86,11.86,0,0,1,.05-1.68,14.63,14.63,0,0,1,.21-1.7.63.63,0,0,1,.44-.06q.67.14.65.38a3.28,3.28,0,0,0,.73,2.21,3.17,3.17,0,0,0,1.83,1.17,2.17,2.17,0,0,0,1.42-.12,1.46,1.46,0,0,0,.78-1.08,2,2,0,0,0,0-.55,1.46,1.46,0,0,0-.17-.55l-.25-.48a2.15,2.15,0,0,0-.44-.5l-.51-.46-.65-.53L73.27,27a6.91,6.91,0,0,1-1.73-2,3.44,3.44,0,0,1,1.7-4.67A5.73,5.73,0,0,1,76.7,20.1Z"/><path class="cls-1" d="M89,22.76a3.65,3.65,0,0,1,2.5,1.52,4.76,4.76,0,0,1,.21,3.43l-1.22,5.73a1.36,1.36,0,0,0,.07.94.9.9,0,0,0,.63.45,1.85,1.85,0,0,0,1.07-.17c.11.06.14.18.11.36a1.77,1.77,0,0,1-.36.84,7.43,7.43,0,0,1-1.32.48,3.1,3.1,0,0,1-1.48.08,2.18,2.18,0,0,1-1.2-.77,2.45,2.45,0,0,1-.61-1.26l-.26.14c-.15.08-.35.17-.61.28a8.59,8.59,0,0,1-.86.3,4.72,4.72,0,0,1-1.07.18,4.3,4.3,0,0,1-1.18-.09,3.55,3.55,0,0,1-2.2-1.31,2.82,2.82,0,0,1-.45-2.39,2.74,2.74,0,0,1,.61-1.24,3.55,3.55,0,0,1,1-.83,6.15,6.15,0,0,1,1.41-.5,12.41,12.41,0,0,1,1.47-.28l1.55-.14,1.32-.11a.47.47,0,0,0,.36-.41l.34-1.6a2.55,2.55,0,0,0-.12-1.7,1.55,1.55,0,0,0-1.13-.85,1.8,1.8,0,0,0-1.48.25,2.23,2.23,0,0,0-.82,1.42,1,1,0,0,1-.62.76,1.84,1.84,0,0,1-1,.07,1.68,1.68,0,0,1-1.36-1q.3-1.39,2.46-2.21A7.46,7.46,0,0,1,89,22.76ZM85.3,33.64a2.3,2.3,0,0,0,1.44-.12,1.17,1.17,0,0,0,.77-.81l.63-3q-.22,0-.92.11T86.15,30a8.28,8.28,0,0,0-.9.23,1.78,1.78,0,0,0-.82.49,1.63,1.63,0,0,0-.39.77A1.83,1.83,0,0,0,84.21,33,1.7,1.7,0,0,0,85.3,33.64Z"/><path class="cls-1" d="M99.38,25.28q.64.14,1.85.3t1.5.23a2,2,0,0,1-.05.54c-.06.27-.13.4-.2.38a3.28,3.28,0,0,0-1,0c-.45.06-.7.17-.76.34l0,.17q0,.48,1.29,7.21.34-.47,1.75-2.62t1.62-2.46a2.78,2.78,0,0,0,.37-.86.94.94,0,0,0-.31-.81,2.45,2.45,0,0,0-1.32-.63c-.08,0-.08-.17,0-.46a.75.75,0,0,1,.22-.47q.35.08,1.41.39t1.75.47c.41.09.91.16,1.52.23s1,.13,1.31.19a.85.85,0,0,1,0,.49c-.07.31-.14.46-.22.44a3.77,3.77,0,0,0-1.24,0,1.64,1.64,0,0,0-1.19.66L99.6,40.77q-2.71,3.86-5.24,3.32a1.61,1.61,0,0,1-1.08-.66,1.39,1.39,0,0,1,.59-2q3,.65,4.49-1.53l1.21-1.81L97.44,27.27a3.89,3.89,0,0,0-.21-.74,1.79,1.79,0,0,0-.72-.84,2.82,2.82,0,0,0-.9-.42c-.08,0-.09-.16,0-.43s.13-.48.2-.5l1.54.42Q98.68,25.14,99.38,25.28Z"/><path class="cls-1" d="M125.65,30.6a6,6,0,0,1,3,1.61A6.24,6.24,0,0,1,130.38,35a6.34,6.34,0,0,1,.12,3.08,6.79,6.79,0,0,1-3.06,4.44,6.56,6.56,0,0,1-5.1,1,9.35,9.35,0,0,1-2.08-.67,6.47,6.47,0,0,0-1.32-.51,2.25,2.25,0,0,0-.8,0,2.93,2.93,0,0,1-.63.08,1.44,1.44,0,0,1-.38-.27c-.2-.16-.29-.28-.27-.36s.07-.23.17-.51.24-.69.41-1.22a17.19,17.19,0,0,0,.47-1.75l2.54-11.86a10.46,10.46,0,0,0,.25-2q0-.5-1.41-.79l-.26-.06c-.12,0-.14-.19-.08-.5s.16-.45.27-.43q.92.11,1.76.13t1.41,0c.38,0,.71-.05,1-.09l.89-.11h.06c.08,0,.14.09.2.21a.83.83,0,0,1,.08.34,10.39,10.39,0,0,0-.9,2.66l-1,4.65v0l0,.13a.89.89,0,0,0,0,.13c0,.06,0,.09,0,.1h.11a5.39,5.39,0,0,1,1.3-.33A4.25,4.25,0,0,1,125.65,30.6Zm-1,1.43a2.31,2.31,0,0,0-1.69.22,1.75,1.75,0,0,0-.89,1.18l-1.32,6.16a1.78,1.78,0,0,0,.44,1.71,3.23,3.23,0,0,0,1.71.91,2.53,2.53,0,0,0,2.57-.88A6.81,6.81,0,0,0,127,38.18a7.63,7.63,0,0,0-.06-4.15A2.91,2.91,0,0,0,124.68,32Z"/><path class="cls-1" d="M136.85,33.3q.64.14,1.85.3t1.5.23a2,2,0,0,1-.05.54c-.06.27-.13.4-.2.38a3.23,3.23,0,0,0-1,0q-.67.08-.76.34l0,.17q0,.48,1.29,7.21.34-.47,1.75-2.62t1.62-2.47a2.76,2.76,0,0,0,.37-.86.94.94,0,0,0-.31-.81,2.45,2.45,0,0,0-1.32-.63c-.08,0-.09-.17,0-.46a.74.74,0,0,1,.22-.47q.35.07,1.41.39t1.75.47q.61.13,1.52.23c.6.07,1,.13,1.31.19a.85.85,0,0,1,0,.49q-.1.46-.22.44a3.77,3.77,0,0,0-1.24,0,1.64,1.64,0,0,0-1.19.66l-8.07,11.71q-2.71,3.86-5.24,3.32a1.61,1.61,0,0,1-1.08-.66,1.39,1.39,0,0,1,.59-2q3,.65,4.49-1.53L137,46.07,134.9,35.28a3.83,3.83,0,0,0-.21-.74,1.79,1.79,0,0,0-.72-.84,2.81,2.81,0,0,0-.9-.42c-.08,0-.09-.16,0-.43s.13-.48.2-.51l1.54.42Q136.15,33.15,136.85,33.3Z"/><path class="cls-1" d="M165.11,32.41a8.61,8.61,0,0,1,1.55.5,8.75,8.75,0,0,1,1.6.9,7.07,7.07,0,0,1,1.39,1.27,4.17,4.17,0,0,1,.82,1.7,4.72,4.72,0,0,1,0,2.13,5.07,5.07,0,0,1-1.65,2.75,5.75,5.75,0,0,1-2.89,1.45c-.17,0-.23.11-.18.27a34.86,34.86,0,0,0,2.2,5.64,12.94,12.94,0,0,0,1.74,2.61,3.79,3.79,0,0,0,2,1.35.85.85,0,0,1,0,.49,1.18,1.18,0,0,1-.23.5,5.81,5.81,0,0,1-.91-.14,9.88,9.88,0,0,1-2.61-.92A6.36,6.36,0,0,1,166,51.41a11.55,11.55,0,0,1-1.19-1.64,12.86,12.86,0,0,1-.87-1.89q-.28-.67-.64-1.57l-.54-1.38q-.19-.48-.44-1a5.75,5.75,0,0,0-.45-.83,1.51,1.51,0,0,0-.41-.42,1.86,1.86,0,0,0-.68-.24.43.43,0,0,0-.57.4l-.88,4.1a9.27,9.27,0,0,0-.3,2.52c0,.25.29.5.85.77a6.3,6.3,0,0,0,1.25.49c.08,0,.08.19,0,.52a1.63,1.63,0,0,1-.16.48q-3.16-.86-4.09-1.06c-.52-.11-1.11-.22-1.77-.33l-1.57-.26L153,50a1,1,0,0,1,0-.54c.07-.31.13-.46.19-.45a5.1,5.1,0,0,0,1.16.05q.78,0,1-.27a11.76,11.76,0,0,0,.74-2.61l2.35-11a11.61,11.61,0,0,0,.33-2.42q0-.25-.75-.66a4.31,4.31,0,0,0-1.07-.49q-.12,0,0-.46c.06-.29.14-.46.23-.5q3.06.75,3.85.91l2,.4Zm-.78,1.35a4.84,4.84,0,0,0-1.73-.16q-.35.08-1,2.95l-.71,3.34a.83.83,0,0,0,.31.95,3.76,3.76,0,0,0,1.32.5l.76.16a2.56,2.56,0,0,0,2.15-.6,4.06,4.06,0,0,0,1.42-2.46Q167.71,34.48,164.33,33.76Z"/><path class="cls-1" d="M182,42.65a3.65,3.65,0,0,1,2.5,1.52,4.75,4.75,0,0,1,.21,3.43l-1.22,5.73a1.36,1.36,0,0,0,.07.94.89.89,0,0,0,.63.45,1.85,1.85,0,0,0,1.07-.17q.16.1.11.36a1.77,1.77,0,0,1-.36.83,7.35,7.35,0,0,1-1.32.48,3.09,3.09,0,0,1-1.48.08,2.17,2.17,0,0,1-1.2-.77,2.43,2.43,0,0,1-.61-1.26l-.26.14q-.22.12-.61.28a8.31,8.31,0,0,1-.86.3,4.75,4.75,0,0,1-1.07.18,4.36,4.36,0,0,1-1.18-.09,3.55,3.55,0,0,1-2.2-1.31,2.82,2.82,0,0,1-.45-2.39,2.74,2.74,0,0,1,.61-1.24,3.57,3.57,0,0,1,1-.83,6,6,0,0,1,1.41-.5,12.27,12.27,0,0,1,1.47-.28l1.55-.14,1.32-.11a.47.47,0,0,0,.36-.41l.34-1.6a2.55,2.55,0,0,0-.12-1.7,1.55,1.55,0,0,0-1.13-.85,1.8,1.8,0,0,0-1.48.25,2.23,2.23,0,0,0-.82,1.42,1,1,0,0,1-.62.76,1.85,1.85,0,0,1-1,.07,1.68,1.68,0,0,1-1.36-1q.3-1.4,2.46-2.21A7.45,7.45,0,0,1,182,42.65Zm-3.7,10.88a2.31,2.31,0,0,0,1.44-.12,1.18,1.18,0,0,0,.77-.81l.63-3q-.22,0-.92.11c-.47,0-.82.09-1.08.13a8,8,0,0,0-.9.23,1.8,1.8,0,0,0-.82.49,1.65,1.65,0,0,0-.39.77,1.83,1.83,0,0,0,.17,1.47A1.71,1.71,0,0,0,178.33,53.53Z"/><path class="cls-1" d="M198.86,46.25a3.21,3.21,0,0,1,1.77,1,3.48,3.48,0,0,1,.85,1.72,7,7,0,0,1,2.43-1,6.68,6.68,0,0,1,2.86,0,3.37,3.37,0,0,1,1.69.85,3.28,3.28,0,0,1,.89,1.54,7,7,0,0,1,.22,1.93,11.38,11.38,0,0,1-.26,2.15l-.65,3.05a12.45,12.45,0,0,0-.36,2.66q0,.22.69.59a4.38,4.38,0,0,0,.94.43c.06,0,.06.16,0,.44a1.7,1.7,0,0,1-.16.56q-.2-.07-1.5-.44t-2-.51q-.7-.15-2-.34l-1.58-.22a1.13,1.13,0,0,1,0-.57c.06-.29.12-.43.18-.42a4,4,0,0,0,1.09,0q.74-.07.85-.26a9.19,9.19,0,0,0,.64-2l.63-3q.9-4.21-1.8-4.79a2.72,2.72,0,0,0-1.7.12,1.86,1.86,0,0,0-.95.74c0,.06,0,.13-.06.23a.57.57,0,0,0,0,.24,14.58,14.58,0,0,1-.3,1.82l-.66,3.08a11.71,11.71,0,0,0-.33,2.54q0,.22.69.59a4.43,4.43,0,0,0,.94.43c.06,0,.06.16,0,.44a1.71,1.71,0,0,1-.17.56l-1.5-.44q-1.3-.37-2-.51t-2-.34l-1.58-.22a1.09,1.09,0,0,1,0-.57c.06-.29.12-.43.18-.42a4,4,0,0,0,1.09,0c.5,0,.78-.13.85-.26a9.72,9.72,0,0,0,.66-2.08l.6-2.79a6.31,6.31,0,0,0,0-3.43,2.26,2.26,0,0,0-1.76-1.44,2.84,2.84,0,0,0-1.7.15,1.4,1.4,0,0,0-1,.95l-1.07,5a10.92,10.92,0,0,0-.33,2.67q0,.22.67.58a4,4,0,0,0,.91.42c.08,0,.09.17,0,.45a1.71,1.71,0,0,1-.16.56l-1.5-.44q-1.27-.36-1.94-.51t-2.05-.35l-1.57-.21a.88.88,0,0,1,0-.58q.09-.44.21-.41a4.34,4.34,0,0,0,1.09,0q.77-.06.87-.25a9.67,9.67,0,0,0,.66-2.08l1-4.74a2.83,2.83,0,0,0-.07-2,1.43,1.43,0,0,0-.56-.58,3.32,3.32,0,0,0-.68-.33c-.19-.06-.28-.11-.27-.15q.18-.84.36-.84a41,41,0,0,0,4.84.12l.1,0,.15,0c.1,0,.16.11.19.25a.55.55,0,0,1,0,.33,10.2,10.2,0,0,0-.34,1c0,.08,0,.13,0,.16a.44.44,0,0,0,.17-.06,6.57,6.57,0,0,1,2-.84A5.19,5.19,0,0,1,198.86,46.25Z"/><path class="cls-1" d="M217.07,46.54a1.81,1.81,0,0,1-.25-1.39,1.83,1.83,0,0,1,2.18-1.4,1.83,1.83,0,0,1,1.42,2.17,1.82,1.82,0,0,1-.8,1.17,1.83,1.83,0,0,1-2.56-.55Zm.42,12.81a11,11,0,0,0-.33,2.67q0,.22.69.59a4.4,4.4,0,0,0,.94.43c.08,0,.09.17,0,.45a1.7,1.7,0,0,1-.16.56l-1.53-.45q-1.33-.38-2-.51t-2.07-.35l-1.55-.21a.88.88,0,0,1,0-.58c.06-.29.13-.43.21-.41a4.34,4.34,0,0,0,1.09,0q.77-.06.88-.25a9.72,9.72,0,0,0,.66-2.08l1-4.74a2.83,2.83,0,0,0-.07-2,1.65,1.65,0,0,0-.58-.58,3.15,3.15,0,0,0-.66-.32c-.19-.06-.28-.11-.27-.15q.18-.84.36-.84a22.9,22.9,0,0,0,2.43.16,23.2,23.2,0,0,0,2.41,0h.25c.1,0,.16.1.19.25a.55.55,0,0,1,0,.33,25.6,25.6,0,0,0-.77,2.45Z"/><path class="cls-1" d="M235.58,51.79l-1,4.68a.18.18,0,0,0,0,.14.37.37,0,0,0,.09.09h0l.23.05a2.47,2.47,0,0,0,1.72-.67q2.86-2,6.36-4.72a1.63,1.63,0,0,0,.65-.77q.06-.29-.55-.54a6.33,6.33,0,0,0-1-.35c-.08,0-.1-.14-.07-.37a1.54,1.54,0,0,1,.14-.53q3.19.86,3.48.93c.37.08.73.15,1.1.2l1.18.18,1,.15a1.26,1.26,0,0,1-.06.5q-.1.37-.18.36a4.65,4.65,0,0,0-3.2.59l-6.72,5a.58.58,0,0,0-.12.83l5.07,9.54a3,3,0,0,0,1.21,1.23,4.88,4.88,0,0,0,1.23.57c.1,0,.11.22,0,.58a.91.91,0,0,1-.17.39q-3.45-.92-3.95-1-.93-.2-2.24-.4L238,68.15a.84.84,0,0,1,0-.56c.06-.28.13-.41.21-.4a2.3,2.3,0,0,0,.86,0q.54-.1.59-.33a5.65,5.65,0,0,0-.55-1.39q-.59-1.25-1.65-3.23t-2.15-3.73-.62-.25q-.47-.1-.54.25l-.92,4.3a10.73,10.73,0,0,0-.29,2.61q0,.22.71.59a4.51,4.51,0,0,0,1,.43c.08,0,.08.21,0,.58a1.28,1.28,0,0,1-.14.4l-3.65-1-1.23-.23L228.15,66l-1.25-.19a.58.58,0,0,1,0-.43c.08-.37.16-.54.23-.53a4.71,4.71,0,0,0,1.13,0c.52,0,.83-.12.92-.26a10.39,10.39,0,0,0,.75-2.39L232.32,51a8.94,8.94,0,0,0,.29-2.49c0-.17-.28-.38-.72-.62a4,4,0,0,0-1-.44c-.08,0-.09-.17,0-.46a1.18,1.18,0,0,1,.17-.51l1.59.43q1.45.4,2.23.57l3.76.62a1.53,1.53,0,0,1,0,.48c-.07.33-.14.49-.22.47a4.83,4.83,0,0,0-1.1,0q-.84.06-.94.26A11,11,0,0,0,235.58,51.79Z"/><path class="cls-1" d="M257,58.68a3.65,3.65,0,0,1,2.5,1.52,4.75,4.75,0,0,1,.21,3.43l-1.22,5.73a1.35,1.35,0,0,0,.07.94.89.89,0,0,0,.63.45,1.84,1.84,0,0,0,1.07-.17c.11.06.14.18.11.36a1.76,1.76,0,0,1-.36.83,7.29,7.29,0,0,1-1.32.48,3.1,3.1,0,0,1-1.48.08,2.17,2.17,0,0,1-1.2-.77,2.43,2.43,0,0,1-.61-1.26l-.26.14c-.15.08-.35.17-.61.28a8.6,8.6,0,0,1-.85.3,4.77,4.77,0,0,1-1.07.18,4.32,4.32,0,0,1-1.18-.09,3.55,3.55,0,0,1-2.2-1.31,2.82,2.82,0,0,1-.45-2.39,2.74,2.74,0,0,1,.61-1.24,3.57,3.57,0,0,1,1-.83,6.12,6.12,0,0,1,1.41-.5,12.21,12.21,0,0,1,1.47-.28l1.55-.14,1.32-.11a.47.47,0,0,0,.36-.41l.34-1.6a2.56,2.56,0,0,0-.12-1.7,1.55,1.55,0,0,0-1.13-.85,1.8,1.8,0,0,0-1.48.25,2.23,2.23,0,0,0-.82,1.42,1,1,0,0,1-.62.76,1.84,1.84,0,0,1-1,.06,1.68,1.68,0,0,1-1.36-1q.3-1.4,2.46-2.21A7.46,7.46,0,0,1,257,58.68Zm-3.69,10.88a2.3,2.3,0,0,0,1.44-.12,1.17,1.17,0,0,0,.77-.81l.63-3c-.15,0-.45.06-.92.11s-.82.09-1.08.13a8,8,0,0,0-.9.23,1.8,1.8,0,0,0-.82.49,1.63,1.63,0,0,0-.39.77,1.83,1.83,0,0,0,.17,1.47A1.71,1.71,0,0,0,253.28,69.56Z"/><path class="cls-1" d="M272.82,62.06A3,3,0,0,1,275,63.53q-.53,2.47-1.92,2.17a1.77,1.77,0,0,1-1-.82,1.86,1.86,0,0,0-1.13-.85,1.59,1.59,0,0,0-1.61.61,4,4,0,0,0-.92,1.8l-.78,3.63a12.45,12.45,0,0,0-.36,2.66c0,.14.24.34.68.59a4.21,4.21,0,0,0,.93.43c.06,0,.06.16,0,.44a3.12,3.12,0,0,1-.14.56l-1.52-.45q-1.29-.37-2-.51t-2-.34l-1.58-.22a.87.87,0,0,1,0-.58c.06-.29.13-.43.21-.41a4.16,4.16,0,0,0,1.11,0c.51,0,.79-.13.86-.26a9.71,9.71,0,0,0,.66-2.08l1-4.74a2.83,2.83,0,0,0-.07-2,1.44,1.44,0,0,0-.56-.58,3.38,3.38,0,0,0-.66-.32q-.27-.09-.26-.15.18-.84.33-.84a42.26,42.26,0,0,0,4.87.13h.24c.08,0,.13.1.16.25a.71.71,0,0,1,0,.35l-.13.4-.2.57a3.56,3.56,0,0,0-.13.38,5.46,5.46,0,0,1,1.73-1.11A3.26,3.26,0,0,1,272.82,62.06Z"/><path class="cls-1" d="M280,60a1.81,1.81,0,0,1-.25-1.39,1.76,1.76,0,0,1,.79-1.15,1.84,1.84,0,0,1,2.81,1.92,1.81,1.81,0,0,1-.8,1.17A1.83,1.83,0,0,1,280,60Zm.42,12.81a10.92,10.92,0,0,0-.33,2.67q0,.22.69.59a4.43,4.43,0,0,0,.94.43c.08,0,.09.17,0,.45a1.72,1.72,0,0,1-.16.56q-.2-.07-1.53-.45t-2-.51q-.73-.16-2.07-.35L274.48,76a.88.88,0,0,1,0-.58q.09-.44.21-.41a4.32,4.32,0,0,0,1.09,0q.77-.06.87-.25a9.67,9.67,0,0,0,.66-2.08l1-4.74a2.83,2.83,0,0,0-.07-2,1.65,1.65,0,0,0-.58-.58,3.12,3.12,0,0,0-.66-.32c-.19-.06-.28-.11-.27-.15q.18-.84.36-.84a22.48,22.48,0,0,0,2.43.16,23.2,23.2,0,0,0,2.41,0h.25c.1,0,.16.1.19.25a.55.55,0,0,1,0,.33,25.46,25.46,0,0,0-.77,2.45Z"/><path class="cls-1" d="M295.63,66.94a3.21,3.21,0,0,1,1.77,1,3.48,3.48,0,0,1,.85,1.72,7,7,0,0,1,2.43-1,6.68,6.68,0,0,1,2.86,0,3.38,3.38,0,0,1,1.69.85,3.28,3.28,0,0,1,.89,1.54,7,7,0,0,1,.22,1.93,11.32,11.32,0,0,1-.26,2.15l-.65,3.05a12.45,12.45,0,0,0-.36,2.66q0,.22.69.59a4.35,4.35,0,0,0,.94.43c.06,0,.06.16,0,.44a1.72,1.72,0,0,1-.16.56l-1.5-.44q-1.31-.37-2-.51t-2-.34l-1.58-.22a1.12,1.12,0,0,1,0-.57c.06-.29.12-.43.18-.42a4,4,0,0,0,1.09,0q.74-.07.85-.26a9.28,9.28,0,0,0,.64-2l.63-3q.9-4.22-1.8-4.79a2.71,2.71,0,0,0-1.7.12,1.86,1.86,0,0,0-.95.74c0,.06,0,.13-.06.23a.57.57,0,0,0,0,.24,14.58,14.58,0,0,1-.3,1.82l-.66,3.08a11.71,11.71,0,0,0-.33,2.54q0,.22.69.59a4.43,4.43,0,0,0,.94.43c.06,0,.06.16,0,.44a1.69,1.69,0,0,1-.17.56q-.2-.07-1.5-.44t-2-.51q-.7-.15-2-.34l-1.58-.22a1.1,1.1,0,0,1,0-.57c.06-.29.12-.43.18-.42a4,4,0,0,0,1.09,0c.5,0,.78-.13.85-.26a9.72,9.72,0,0,0,.66-2.08l.6-2.79a6.3,6.3,0,0,0,0-3.43,2.26,2.26,0,0,0-1.76-1.44,2.84,2.84,0,0,0-1.7.15,1.4,1.4,0,0,0-1,.95l-1.07,5a11,11,0,0,0-.33,2.67q0,.22.67.58a4.05,4.05,0,0,0,.91.42c.08,0,.09.17,0,.45a1.72,1.72,0,0,1-.16.56l-1.5-.44q-1.27-.36-1.94-.51t-2.05-.35l-1.57-.21a.87.87,0,0,1,0-.58q.09-.44.21-.41a4.28,4.28,0,0,0,1.09,0c.51,0,.81-.13.87-.25a9.67,9.67,0,0,0,.66-2.08l1-4.74a2.83,2.83,0,0,0-.07-2,1.44,1.44,0,0,0-.56-.58A3.34,3.34,0,0,0,286,67q-.28-.09-.27-.15.18-.84.36-.84a41.06,41.06,0,0,0,4.84.12l.1,0,.15,0c.1,0,.16.11.19.25a.55.55,0,0,1,0,.33,10.24,10.24,0,0,0-.34,1q0,.12,0,.16a.46.46,0,0,0,.17-.06,6.58,6.58,0,0,1,2-.84A5.19,5.19,0,0,1,295.63,66.94Z"/></svg>