<?xml version="1.0" encoding="utf-8"?>
<!-- Generator: Adobe Illustrator 21.1.0, SVG Export Plug-In . SVG Version: 6.00 Build 0)  -->
<svg version="1.1" id="Layer_1" xmlns="http://www.w3.org/2000/svg" xmlns:xlink="http://www.w3.org/1999/xlink" x="0px" y="0px"
	 viewBox="0 0 316.7 86.4" style="enable-background:new 0 0 316.7 86.4;" xml:space="preserve">
<style type="text/css">
	.st0{fill:#FFFFFF;}
</style>
<title>subtitle-narrow</title>
<path class="st0" d="M14.6,0.2l2.8,16.5c0.1,0.8,0.3,1.6,0.4,2.3c0.1,0.4,0.4,0.7,0.8,0.9c0.3,0.2,0.6,0.4,1,0.5
	c0.1,0,0.1,0.2,0,0.5c0,0.1-0.1,0.3-0.1,0.4l-3.6-1l-3.8-0.6c-0.1-0.2-0.1-0.4,0-0.6c0.1-0.3,0.1-0.4,0.2-0.4c0.3,0,0.7,0,1,0
	c0.3,0,0.6-0.1,0.8-0.2c0.1-0.1,0.1-0.2,0.2-0.4c0.1-0.7,0-1.4-0.1-2.1l-0.4-2.9c0-0.1-0.1-0.1-0.2-0.2c-0.6-0.2-1.4-0.4-2.5-0.6
	c-1-0.2-2.1-0.4-3.3-0.6c-0.1,0-0.2,0-0.2,0.1l-1.7,2.5c-0.4,0.5-0.7,1.1-1,1.8c-0.1,0.2,0,0.5,0.2,0.6c0.3,0.2,0.5,0.4,0.8,0.5
	c0.3,0.1,0.6,0.2,0.9,0.3c0.1,0,0.1,0.1,0,0.4c0,0.2-0.1,0.4-0.2,0.5l-1.3-0.4c-0.8-0.2-1.5-0.4-2-0.5s-1.1-0.2-1.8-0.3l-1.5-0.2
	C0,17.1,0,17,0.1,16.8c0.1-0.4,0.1-0.5,0.2-0.5c0.4,0.1,0.8,0.1,1.2,0c0.4,0,0.8-0.1,1.1-0.4c0.6-0.6,1.1-1.3,1.6-2L12.3,2
	c0.4-0.7,0.9-1.4,1.5-1.9C13.9,0,14.1,0,14.3,0C14.5,0,14.6,0.1,14.6,0.2z M8.8,10.3c0.7,0.2,1.4,0.4,2.1,0.5
	c0.7,0.2,1.5,0.3,2.4,0.4l0.1-0.1l-1-6.3l-3.6,5.3C8.8,10.2,8.8,10.3,8.8,10.3z"/>
<path class="st0" d="M33.9,11c2.5,0.5,3.3,2.8,2.5,6.8l-0.6,2.8c-0.2,0.9-0.3,1.8-0.4,2.7c0,0.1,0.2,0.3,0.7,0.6
	c0.3,0.2,0.7,0.3,1,0.4c0.1,0,0.1,0.2,0,0.4c0,0.2-0.1,0.4-0.2,0.6c-0.1,0-0.6-0.2-1.5-0.4c-0.9-0.2-1.6-0.4-2-0.5
	c-0.5-0.1-1.1-0.2-2-0.3L30,23.7c-0.1-0.2-0.1-0.4,0-0.6c0.1-0.3,0.1-0.4,0.2-0.4c0.3,0,0.7,0,1,0c0.5,0,0.7-0.1,0.8-0.3
	c0.3-0.7,0.5-1.4,0.7-2.1l0.6-2.8c0.3-1.1,0.4-2.4,0.1-3.5c-0.3-0.8-1-1.3-1.9-1.4c-0.6-0.1-1.2-0.1-1.7,0.2
	c-0.4,0.1-0.8,0.5-0.9,0.9l-1.1,5c-0.2,0.9-0.3,1.8-0.4,2.7c0,0.1,0.2,0.3,0.7,0.6c0.3,0.2,0.6,0.3,0.9,0.4c0.1,0,0.1,0.2,0,0.5
	c0,0.2-0.1,0.4-0.2,0.6L27.3,23c-0.9-0.2-1.5-0.4-1.9-0.5c-0.4-0.1-1.1-0.2-2-0.3l-1.6-0.2c-0.1-0.2-0.1-0.4,0-0.6
	c0.1-0.3,0.1-0.4,0.2-0.4c0.4,0,0.7,0,1.1,0c0.5,0,0.8-0.1,0.9-0.3c0.3-0.7,0.5-1.4,0.7-2.1l1-4.7c0.2-0.7,0.2-1.4-0.1-2
	c-0.1-0.2-0.3-0.4-0.6-0.6c-0.2-0.1-0.4-0.2-0.7-0.3c-0.2-0.1-0.3-0.1-0.3-0.1c0.1-0.6,0.2-0.8,0.3-0.8c1.6,0.1,3.2,0.2,4.9,0.1h0.1
	h0.1h0.1c0.1,0,0.1,0.1,0.2,0.2c0,0.1,0,0.2,0,0.3c-0.1,0.3-0.2,0.7-0.3,1c0,0,0,0.1,0,0.1c0.1,0,0.1,0,0.2-0.1
	c0.6-0.4,1.3-0.7,2-0.8C32.3,10.8,33.1,10.8,33.9,11z"/>
<path class="st0" d="M54,15.3c0.8,0.2,1.6,0.5,2.3,1.1c0.6,0.5,1.1,1.1,1.4,1.7c0.3,0.6,0.5,1.3,0.6,1.9c0.1,0.6,0.1,1.2,0,1.8
	c-0.1,0.4-0.2,0.7-0.4,0.8c-0.3,0.1-0.6,0.1-0.9,0L50,21c-0.1,0-0.2,0-0.2,0.1c-0.2,0.7-0.2,1.4-0.1,2.1c0.1,0.7,0.4,1.4,0.9,2
	c0.5,0.6,1.2,1,2,1.2c0.3,0.1,0.6,0.1,0.8,0.1c0.3,0,0.5,0,0.8,0l0.7-0.1c0.2,0,0.4-0.1,0.6-0.1l0.4-0.2l0.7-0.3
	c0.1,0.1,0.1,0.1,0.1,0.2c0,0.1,0,0.2,0,0.3c0,0.2-0.1,0.4-0.3,0.5c-0.6,0.6-1.3,1-2,1.2c-1,0.3-2,0.4-3,0.2c-1.7-0.3-3.1-1.3-4-2.8
	c-0.9-1.5-1.3-3.2-0.9-4.9c0.3-1.8,1.3-3.3,2.7-4.4C50.6,15.2,52.4,14.9,54,15.3z M53.5,16.6c-0.4-0.1-0.9-0.1-1.3,0.1
	c-0.4,0.2-0.8,0.5-1,0.8c-0.3,0.3-0.5,0.6-0.7,1c-0.1,0.3-0.2,0.5-0.3,0.8c0,0.1,0,0.2,0.1,0.2l4.7,1c0.2,0,0.3-0.1,0.4-0.4
	c0.1-0.7,0-1.5-0.2-2.2C54.9,17.3,54.3,16.7,53.5,16.6L53.5,16.6z"/>
<path class="st0" d="M65.8,17.8C66.9,18,68,18.4,69,19c0,1.1-0.1,2.2-0.4,3.3c0,0.2-0.2,0.2-0.4,0.1c-0.4-0.1-0.6-0.2-0.7-0.4
	c0-0.7-0.2-1.3-0.5-1.9c-0.4-0.6-0.9-1-1.6-1.1C65,19,64.5,19,64,19.2c-0.4,0.2-0.7,0.6-0.7,1c-0.1,0.3-0.1,0.5,0,0.8
	c0.1,0.3,0.2,0.5,0.4,0.7c0.2,0.2,0.3,0.4,0.5,0.6c0.2,0.2,0.4,0.4,0.7,0.6c0.1,0.1,0.2,0.1,0.3,0.2l0.4,0.3l0.4,0.4l0.4,0.4
	c0.2,0.1,0.3,0.3,0.4,0.4l0.4,0.5c0.1,0.2,0.3,0.3,0.3,0.5l0.2,0.5c0.1,0.2,0.2,0.4,0.2,0.6c0,0.2,0,0.4,0,0.6c0,0.2,0,0.4-0.1,0.6
	c-0.2,1.1-0.9,2.1-2,2.6c-1.1,0.5-2.4,0.6-3.6,0.3c-1.3-0.3-2.5-0.8-3.6-1.6c0-0.6,0-1.1,0-1.7c0-0.6,0.1-1.1,0.2-1.7
	c0.1-0.1,0.3-0.1,0.4-0.1c0.4,0.1,0.7,0.2,0.7,0.4c0,0.8,0.2,1.6,0.7,2.2c0.5,0.6,1.1,1,1.8,1.2c0.5,0.1,1,0.1,1.4-0.1
	c0.5-0.2,0.8-0.6,0.9-1.2c0-0.2,0-0.4,0-0.5c0-0.2-0.1-0.4-0.2-0.5l-0.2-0.5c-0.1-0.2-0.3-0.4-0.4-0.5l-0.5-0.5L63,25.2l-0.7-0.5
	c-0.7-0.5-1.3-1.2-1.7-2c-0.9-1.7-0.2-3.8,1.5-4.6c0.1,0,0.1-0.1,0.2-0.1C63.4,17.6,64.6,17.5,65.8,17.8z"/>
<path class="st0" d="M76.7,20.1c1.2,0.3,2.3,0.7,3.3,1.2c0,1.1-0.1,2.2-0.4,3.3c0,0.2-0.2,0.2-0.4,0.1c-0.4-0.1-0.6-0.2-0.7-0.4
	c0-0.7-0.2-1.3-0.5-1.9c-0.4-0.6-0.9-1-1.6-1.1c-0.5-0.1-1-0.1-1.4,0.1c-0.4,0.2-0.7,0.6-0.7,1c-0.1,0.3-0.1,0.5,0,0.8
	c0.1,0.3,0.2,0.5,0.4,0.7c0.2,0.2,0.3,0.4,0.5,0.6c0.2,0.2,0.4,0.4,0.7,0.6c0.1,0.1,0.2,0.1,0.3,0.2l0.4,0.3l0.4,0.4l0.4,0.4
	c0.2,0.1,0.3,0.3,0.4,0.4l0.4,0.4c0.1,0.2,0.3,0.3,0.3,0.5l0.2,0.5c0.1,0.2,0.2,0.4,0.2,0.6c0,0.2,0,0.4,0,0.6c0,0.2,0,0.4-0.1,0.6
	c-0.2,1.1-0.9,2.1-2,2.6c-1.1,0.5-2.4,0.6-3.6,0.3c-1.3-0.3-2.5-0.8-3.6-1.6c0-0.6,0-1.1,0.1-1.7c0-0.6,0.1-1.1,0.2-1.7
	c0.1-0.1,0.3-0.1,0.4-0.1c0.4,0.1,0.7,0.2,0.7,0.4c0,0.8,0.2,1.6,0.7,2.2c0.5,0.6,1.1,1,1.8,1.2c0.5,0.1,1,0.1,1.4-0.1
	c0.4-0.2,0.7-0.6,0.8-1.1c0-0.2,0-0.4,0-0.5c0-0.2-0.1-0.4-0.2-0.5l-0.2-0.5c-0.1-0.2-0.3-0.4-0.4-0.5l-0.5-0.5l-0.7-0.5L73.3,27
	c-0.7-0.5-1.3-1.2-1.7-2c-0.8-1.7-0.1-3.8,1.6-4.6c0,0,0.1,0,0.1-0.1C74.3,19.9,75.6,19.8,76.7,20.1z"/>
<path class="st0" d="M89,22.8c1,0.1,1.9,0.7,2.5,1.5c0.5,1.1,0.6,2.3,0.2,3.4l-1.2,5.7c-0.1,0.3-0.1,0.6,0.1,0.9
	c0.1,0.2,0.4,0.4,0.6,0.5c0.4,0.1,0.7,0,1.1-0.2c0.1,0.1,0.1,0.2,0.1,0.4c0,0.3-0.2,0.6-0.4,0.8c-0.4,0.2-0.9,0.4-1.3,0.5
	c-0.5,0.1-1,0.2-1.5,0.1c-0.5-0.1-0.9-0.4-1.2-0.8c-0.3-0.4-0.5-0.8-0.6-1.3l-0.3,0.1c-0.2,0.1-0.3,0.2-0.6,0.3
	c-0.3,0.1-0.6,0.2-0.9,0.3c-0.3,0.1-0.7,0.2-1.1,0.2c-0.4,0-0.8,0-1.2-0.1c-0.9-0.1-1.7-0.6-2.2-1.3c-0.5-0.7-0.7-1.6-0.4-2.4
	c0.1-0.5,0.3-0.9,0.6-1.2c0.3-0.3,0.6-0.6,1-0.8c0.4-0.2,0.9-0.4,1.4-0.5c0.5-0.1,1-0.2,1.5-0.3l1.6-0.1l1.3-0.1
	c0.2,0,0.3-0.2,0.4-0.4l0.3-1.6c0.2-0.6,0.1-1.2-0.1-1.7c-0.2-0.4-0.6-0.8-1.1-0.9c-0.5-0.1-1,0-1.5,0.2c-0.4,0.4-0.7,0.9-0.8,1.4
	c-0.1,0.3-0.3,0.6-0.6,0.8c-0.3,0.1-0.7,0.1-1,0.1c-0.6-0.1-1.1-0.4-1.4-1c0.2-0.9,1-1.7,2.5-2.2C86.1,22.6,87.6,22.5,89,22.8z
	 M85.3,33.6c0.5,0.1,1,0.1,1.4-0.1c0.4-0.1,0.7-0.4,0.8-0.8l0.6-3c-0.1,0-0.5,0-0.9,0.1S86.4,30,86.2,30c-0.3,0.1-0.6,0.1-0.9,0.2
	c-0.3,0.1-0.6,0.3-0.8,0.5c-0.2,0.2-0.3,0.5-0.4,0.8c-0.2,0.5-0.1,1.1,0.2,1.5C84.5,33.3,84.9,33.6,85.3,33.6z"/>
<path class="st0" d="M99.4,25.3c0.4,0.1,1,0.2,1.8,0.3s1.3,0.2,1.5,0.2c0,0.2,0,0.4-0.1,0.5c-0.1,0.3-0.1,0.4-0.2,0.4
	c-0.3-0.1-0.7-0.1-1,0c-0.4,0.1-0.7,0.2-0.8,0.3v0.2c0,0.3,0.4,2.7,1.3,7.2c0.2-0.3,0.8-1.2,1.8-2.6c0.9-1.4,1.5-2.3,1.6-2.5
	c0.2-0.3,0.3-0.6,0.4-0.9c0-0.3-0.1-0.6-0.3-0.8c-0.4-0.3-0.8-0.6-1.3-0.6c-0.1,0-0.1-0.2,0-0.5c0-0.2,0.1-0.3,0.2-0.5
	c0.2,0.1,0.7,0.2,1.4,0.4c0.7,0.2,1.3,0.4,1.8,0.5c0.4,0.1,0.9,0.2,1.5,0.2s1,0.1,1.3,0.2c0,0.2,0,0.3,0,0.5
	c-0.1,0.3-0.1,0.5-0.2,0.4c-0.4-0.1-0.8-0.1-1.2,0c-0.5,0-0.9,0.3-1.2,0.7l-8.1,11.8c-1.8,2.6-3.6,3.7-5.2,3.3
	c-0.4-0.1-0.8-0.3-1.1-0.7c-0.4-0.6-0.2-1.5,0.4-1.9c0,0,0.1-0.1,0.2-0.1c2,0.4,3.5-0.1,4.5-1.5l1.2-1.8l-2.1-10.8
	c0-0.3-0.1-0.5-0.2-0.7c-0.1-0.3-0.4-0.6-0.7-0.8c-0.3-0.2-0.6-0.3-0.9-0.4c-0.1,0-0.1-0.2,0-0.4s0.1-0.5,0.2-0.5l1.5,0.4
	C98.2,25,98.9,25.2,99.4,25.3z"/>
<path class="st0" d="M125.7,30.6c1.1,0.2,2.2,0.8,3,1.6c0.8,0.8,1.4,1.7,1.7,2.8c0.3,1,0.3,2.1,0.1,3.1c-0.4,1.8-1.5,3.4-3.1,4.4
	c-1.5,1-3.3,1.4-5.1,1c-0.7-0.1-1.4-0.4-2.1-0.7c-0.4-0.2-0.9-0.4-1.3-0.5c-0.3,0-0.5,0-0.8,0c-0.2,0-0.4,0.1-0.6,0.1
	c-0.1-0.1-0.3-0.2-0.4-0.3c-0.2-0.2-0.3-0.3-0.3-0.4s0.1-0.2,0.2-0.5s0.2-0.7,0.4-1.2c0.2-0.6,0.3-1.2,0.5-1.8l2.5-11.9
	c0.1-0.7,0.2-1.3,0.2-2c0-0.3-0.5-0.6-1.4-0.8l-0.3-0.1c-0.1,0-0.1-0.2-0.1-0.5s0.2-0.5,0.3-0.4c0.6,0.1,1.2,0.1,1.8,0.1
	c0.6,0,1,0,1.4,0c0.4,0,0.7,0,1-0.1l0.9-0.1h0.1c0.1,0,0.1,0.1,0.2,0.2c0.1,0.1,0.1,0.2,0.1,0.3c-0.4,0.8-0.7,1.7-0.9,2.7l-1,4.6
	l0,0v0.1c0,0,0,0.1,0,0.1c0,0.1,0,0.1,0,0.1h0.1c0.4-0.2,0.9-0.3,1.3-0.3C124.6,30.4,125.2,30.5,125.7,30.6z M124.7,32
	c-0.6-0.1-1.2-0.1-1.7,0.2c-0.5,0.2-0.8,0.7-0.9,1.2l-1.3,6.2c-0.2,0.6,0,1.3,0.4,1.7c0.5,0.5,1.1,0.8,1.7,0.9c1,0.2,2-0.1,2.6-0.9
	c0.8-0.9,1.3-2,1.5-3.1c0.4-1.4,0.3-2.8-0.1-4.2C126.6,33,125.8,32.2,124.7,32L124.7,32z"/>
<path class="st0" d="M136.9,33.3c0.4,0.1,1,0.2,1.9,0.3s1.3,0.2,1.5,0.2c0,0.2,0,0.4-0.1,0.5c-0.1,0.3-0.1,0.4-0.2,0.4
	c-0.3-0.1-0.7-0.1-1,0c-0.4,0.1-0.7,0.2-0.8,0.3v0.2c0,0.3,0.4,2.7,1.3,7.2c0.2-0.3,0.8-1.2,1.8-2.6s1.5-2.3,1.6-2.5
	c0.2-0.3,0.3-0.6,0.4-0.9c0-0.3-0.1-0.6-0.3-0.8c-0.4-0.3-0.8-0.6-1.3-0.6c-0.1,0-0.1-0.2,0-0.5c0-0.2,0.1-0.3,0.2-0.5
	c0.2,0,0.7,0.2,1.4,0.4s1.3,0.4,1.8,0.5c0.4,0.1,0.9,0.2,1.5,0.2c0.6,0.1,1,0.1,1.3,0.2c0,0.2,0,0.3,0,0.5c-0.1,0.3-0.1,0.5-0.2,0.4
	c-0.4-0.1-0.8-0.1-1.2,0c-0.5,0-0.9,0.3-1.2,0.7l-8.1,11.7c-1.8,2.6-3.6,3.7-5.2,3.3c-0.4-0.1-0.8-0.3-1.1-0.7
	c-0.4-0.6-0.2-1.5,0.4-1.9c0,0,0.1-0.1,0.2-0.1c2,0.4,3.5-0.1,4.5-1.5l1.2-1.8l-2.1-10.8c0-0.3-0.1-0.5-0.2-0.7
	c-0.1-0.3-0.4-0.6-0.7-0.8c-0.3-0.2-0.6-0.3-0.9-0.4c-0.1,0-0.1-0.2,0-0.4s0.1-0.5,0.2-0.5l1.5,0.4C135.7,33,136.4,33.2,136.9,33.3z
	"/>
<path class="st0" d="M165.1,32.4c0.5,0.1,1.1,0.3,1.6,0.5c0.6,0.2,1.1,0.5,1.6,0.9c0.5,0.4,1,0.8,1.4,1.3c0.4,0.5,0.7,1.1,0.8,1.7
	c0.2,0.7,0.2,1.4,0,2.1c-0.2,1.1-0.8,2-1.6,2.8c-0.8,0.7-1.8,1.3-2.9,1.5c-0.2,0-0.2,0.1-0.2,0.3c0.6,1.9,1.3,3.8,2.2,5.6
	c0.5,0.9,1.1,1.8,1.7,2.6c0.5,0.7,1.2,1.1,2,1.3c0,0.2,0,0.3,0,0.5c0,0.2-0.1,0.4-0.2,0.5c-0.3,0-0.6-0.1-0.9-0.1
	c-0.9-0.2-1.8-0.5-2.6-0.9c-0.7-0.4-1.4-0.9-1.9-1.5c-0.4-0.5-0.8-1.1-1.2-1.6c-0.3-0.6-0.6-1.2-0.9-1.9c-0.2-0.4-0.4-1-0.6-1.6
	l-0.5-1.4c-0.1-0.3-0.3-0.7-0.4-1c-0.1-0.3-0.3-0.6-0.4-0.8c-0.1-0.2-0.2-0.3-0.4-0.4c-0.2-0.1-0.4-0.2-0.7-0.2
	c-0.2-0.1-0.5,0-0.5,0.3c0,0,0,0.1,0,0.1l-0.9,4.1c-0.2,0.8-0.3,1.7-0.3,2.5c0,0.2,0.3,0.5,0.9,0.8c0.4,0.2,0.8,0.4,1.2,0.5
	c0.1,0,0.1,0.2,0,0.5c0,0.2-0.1,0.3-0.2,0.5c-2.1-0.6-3.5-0.9-4.1-1.1c-0.5-0.1-1.1-0.2-1.8-0.3l-1.6-0.3L153,50c0-0.2,0-0.4,0-0.5
	c0.1-0.3,0.1-0.5,0.2-0.5c0.4,0.1,0.8,0.1,1.2,0c0.5,0,0.9-0.1,1-0.3c0.3-0.8,0.6-1.7,0.7-2.6l2.4-11c0.2-0.8,0.3-1.6,0.3-2.4
	c0-0.2-0.2-0.4-0.8-0.7c-0.3-0.2-0.7-0.4-1.1-0.5c-0.1,0-0.1-0.2,0-0.5c0.1-0.3,0.1-0.5,0.2-0.5c2,0.5,3.3,0.8,3.9,0.9l2,0.4
	L165.1,32.4z M164.3,33.8c-0.6-0.2-1.1-0.2-1.7-0.2c-0.2,0.1-0.6,1-1,3l-0.7,3.3c-0.1,0.4,0,0.7,0.3,1c0.4,0.2,0.9,0.4,1.3,0.5
	l0.8,0.2c0.8,0.1,1.6-0.1,2.1-0.6c0.8-0.6,1.3-1.5,1.4-2.5C167.4,35.8,166.6,34.2,164.3,33.8z"/>
<path class="st0" d="M182,42.7c1,0.1,1.9,0.7,2.5,1.5c0.5,1.1,0.6,2.3,0.2,3.4l-1.2,5.7c-0.1,0.3-0.1,0.6,0.1,0.9
	c0.1,0.2,0.4,0.4,0.6,0.5c0.4,0.1,0.7,0,1.1-0.2c0.1,0.1,0.1,0.2,0.1,0.4c0,0.3-0.2,0.6-0.4,0.8c-0.4,0.2-0.9,0.4-1.3,0.5
	c-0.5,0.1-1,0.2-1.5,0.1c-0.5-0.1-0.9-0.4-1.2-0.8c-0.3-0.4-0.5-0.8-0.6-1.3l-0.3,0.1c-0.1,0.1-0.3,0.2-0.6,0.3
	c-0.3,0.1-0.6,0.2-0.9,0.3c-0.3,0.1-0.7,0.2-1.1,0.2c-0.4,0-0.8,0-1.2-0.1c-0.9-0.1-1.7-0.6-2.2-1.3c-0.5-0.7-0.7-1.6-0.4-2.4
	c0.1-0.5,0.3-0.9,0.6-1.2c0.3-0.3,0.6-0.6,1-0.8c0.4-0.2,0.9-0.4,1.4-0.5c0.5-0.1,1-0.2,1.5-0.3l1.6-0.1l1.3-0.1
	c0.2,0,0.3-0.2,0.4-0.4l0.3-1.6c0.2-0.6,0.1-1.2-0.1-1.7c-0.2-0.4-0.6-0.8-1.1-0.8c-0.5-0.1-1,0-1.5,0.2c-0.4,0.4-0.7,0.9-0.8,1.4
	c-0.1,0.3-0.3,0.6-0.6,0.8c-0.3,0.1-0.7,0.1-1,0.1c-0.6-0.1-1.1-0.4-1.4-1c0.2-0.9,1-1.7,2.5-2.2C179.1,42.5,180.6,42.4,182,42.7z
	 M178.3,53.5c0.5,0.1,1,0.1,1.4-0.1c0.4-0.1,0.7-0.4,0.8-0.8l0.6-3c-0.1,0-0.5,0-0.9,0.1c-0.5,0-0.8,0.1-1.1,0.1
	c-0.3,0.1-0.6,0.1-0.9,0.2c-0.3,0.1-0.6,0.3-0.8,0.5c-0.2,0.2-0.3,0.5-0.4,0.8c-0.2,0.5-0.1,1,0.2,1.5
	C177.5,53.2,177.9,53.5,178.3,53.5L178.3,53.5z"/>
<path class="st0" d="M198.9,46.2c0.7,0.1,1.3,0.5,1.8,1c0.4,0.5,0.7,1.1,0.9,1.7c0.7-0.5,1.6-0.8,2.4-1c0.9-0.2,1.9-0.2,2.9,0
	c0.6,0.1,1.2,0.4,1.7,0.8c0.4,0.4,0.7,1,0.9,1.5c0.2,0.6,0.2,1.3,0.2,1.9c0,0.7-0.1,1.4-0.3,2.2l-0.6,3c-0.2,0.9-0.3,1.8-0.4,2.7
	c0,0.1,0.2,0.3,0.7,0.6c0.3,0.2,0.6,0.3,0.9,0.4c0.1,0,0.1,0.2,0,0.4c0,0.2-0.1,0.4-0.2,0.6c-0.1,0-0.6-0.2-1.5-0.4s-1.5-0.4-2-0.5
	c-0.5-0.1-1.1-0.2-2-0.3l-1.6-0.2c0-0.2,0-0.4,0-0.6c0.1-0.3,0.1-0.4,0.2-0.4c0.4,0,0.7,0,1.1,0c0.5,0,0.8-0.1,0.9-0.3
	c0.3-0.6,0.5-1.3,0.6-2l0.6-3c0.6-2.8,0-4.4-1.8-4.8c-0.6-0.1-1.2-0.1-1.7,0.1c-0.4,0.1-0.7,0.4-0.9,0.7c0,0.1,0,0.1-0.1,0.2
	c0,0.1,0,0.2,0,0.2c-0.1,0.6-0.2,1.2-0.3,1.8l-0.7,3.1c-0.2,0.8-0.3,1.7-0.3,2.5c0,0.1,0.2,0.3,0.7,0.6c0.3,0.2,0.6,0.3,0.9,0.4
	c0.1,0,0.1,0.2,0,0.4c0,0.2-0.1,0.4-0.2,0.6l-1.5-0.4c-0.9-0.2-1.5-0.4-2-0.5c-0.5-0.1-1.1-0.2-2-0.3l-1.6-0.2
	c-0.1-0.2-0.1-0.4,0-0.6c0.1-0.3,0.1-0.4,0.2-0.4c0.4,0,0.7,0,1.1,0c0.5,0,0.8-0.1,0.9-0.3c0.3-0.7,0.5-1.4,0.7-2.1l0.6-2.8
	c0.3-1.1,0.3-2.3,0-3.4c-0.3-0.8-1-1.3-1.8-1.4c-0.6-0.1-1.2-0.1-1.7,0.2c-0.5,0.1-0.9,0.5-1,1l-1.1,5c-0.2,0.9-0.3,1.8-0.3,2.7
	c0,0.1,0.2,0.3,0.7,0.6c0.3,0.2,0.6,0.3,0.9,0.4c0.1,0,0.1,0.2,0,0.5c0,0.2-0.1,0.4-0.2,0.6l-1.5-0.4c-0.8-0.2-1.5-0.4-1.9-0.5
	c-0.4-0.1-1.1-0.2-2.1-0.3l-1.6-0.2c-0.1-0.2-0.1-0.4,0-0.6c0.1-0.3,0.1-0.4,0.2-0.4c0.4,0,0.7,0,1.1,0c0.5,0,0.8-0.1,0.9-0.2
	c0.3-0.7,0.5-1.4,0.7-2.1l1-4.7c0.2-0.7,0.2-1.4-0.1-2c-0.1-0.2-0.3-0.4-0.6-0.6c-0.2-0.1-0.4-0.2-0.7-0.3c-0.2-0.1-0.3-0.1-0.3-0.2
	c0.1-0.6,0.2-0.8,0.4-0.8c1.6,0.1,3.2,0.2,4.8,0.1h0.1h0.1c0.1,0,0.2,0.1,0.2,0.2c0,0.1,0,0.2,0,0.3c-0.1,0.3-0.2,0.7-0.3,1
	c0,0.1,0,0.1,0,0.2c0.1,0,0.1,0,0.2-0.1c0.6-0.4,1.3-0.7,2-0.8C197.1,46,198,46,198.9,46.2z"/>
<path class="st0" d="M217.1,46.5c-0.3-0.4-0.4-0.9-0.2-1.4c0.2-1,1.2-1.6,2.2-1.4c0,0,0,0,0,0c1,0.2,1.6,1.2,1.4,2.2c0,0,0,0,0,0
	c-0.1,0.5-0.4,0.9-0.8,1.2C218.8,47.6,217.6,47.4,217.1,46.5C217.1,46.6,217.1,46.6,217.1,46.5L217.1,46.5z M217.5,59.4
	c-0.2,0.9-0.3,1.8-0.3,2.7c0,0.1,0.2,0.3,0.7,0.6c0.3,0.2,0.6,0.3,0.9,0.4c0.1,0,0.1,0.2,0,0.5c0,0.2-0.1,0.4-0.2,0.6l-1.5-0.5
	c-0.9-0.3-1.6-0.4-2-0.5c-0.4-0.1-1.1-0.2-2.1-0.3l-1.6-0.2c-0.1-0.2-0.1-0.4,0-0.6c0.1-0.3,0.1-0.4,0.2-0.4c0.4,0,0.7,0,1.1,0
	c0.5,0,0.8-0.1,0.9-0.2c0.3-0.7,0.5-1.4,0.7-2.1l1-4.7c0.2-0.7,0.2-1.4-0.1-2c-0.1-0.2-0.3-0.4-0.6-0.6c-0.2-0.1-0.4-0.2-0.7-0.3
	c-0.2-0.1-0.3-0.1-0.3-0.2c0.1-0.6,0.2-0.8,0.4-0.8c0.8,0.1,1.6,0.1,2.4,0.2c0.8,0,1.6,0,2.4,0h0.2c0.1,0,0.2,0.1,0.2,0.2
	c0,0.1,0,0.2,0,0.3c-0.3,0.8-0.6,1.6-0.8,2.5L217.5,59.4z"/>
<path class="st0" d="M235.6,51.8l-1,4.7c0,0,0,0.1,0,0.1c0,0,0.1,0.1,0.1,0.1l0,0l0.2,0c0.6,0,1.3-0.2,1.7-0.7
	c1.9-1.3,4-2.9,6.4-4.7c0.3-0.2,0.5-0.5,0.6-0.8c0-0.2-0.1-0.4-0.6-0.5c-0.3-0.1-0.7-0.3-1-0.3c-0.1,0-0.1-0.1-0.1-0.4
	c0-0.2,0.1-0.4,0.1-0.5c2.1,0.6,3.3,0.9,3.5,0.9c0.4,0.1,0.7,0.2,1.1,0.2l1.2,0.2l1,0.2c0,0.2,0,0.3-0.1,0.5
	c-0.1,0.2-0.1,0.4-0.2,0.4c-1.1-0.2-2.2,0-3.2,0.6l-6.7,5c-0.3,0.2-0.3,0.5-0.1,0.8c0,0,0,0,0,0l5.1,9.5c0.3,0.5,0.7,0.9,1.2,1.2
	c0.4,0.2,0.8,0.4,1.2,0.6c0.1,0,0.1,0.2,0,0.6c0,0.1-0.1,0.3-0.2,0.4c-2.3-0.6-3.6-0.9-3.9-1c-0.6-0.1-1.4-0.3-2.2-0.4l-1.8-0.3
	c-0.1-0.2-0.1-0.4,0-0.6c0.1-0.3,0.1-0.4,0.2-0.4c0.3,0.1,0.6,0.1,0.9,0c0.4-0.1,0.6-0.2,0.6-0.3c-0.1-0.5-0.3-1-0.6-1.4
	c-0.4-0.8-0.9-1.9-1.6-3.2s-1.4-2.6-2.1-3.7c-0.7-1.2-0.9-1.3-0.6-0.2c-0.3-0.1-0.5,0-0.5,0.2l-0.9,4.3c-0.2,0.9-0.3,1.7-0.3,2.6
	c0,0.1,0.2,0.3,0.7,0.6c0.3,0.2,0.7,0.3,1,0.4c0.1,0,0.1,0.2,0,0.6c0,0.1-0.1,0.3-0.1,0.4l-3.6-1l-1.2-0.2l-1.5-0.2l-1.2-0.2
	c-0.1-0.1-0.1-0.3,0-0.4c0.1-0.4,0.2-0.5,0.2-0.5c0.4,0,0.8,0,1.1,0c0.5,0,0.8-0.1,0.9-0.3c0.3-0.8,0.6-1.6,0.8-2.4l2.4-11.2
	c0.2-0.8,0.3-1.7,0.3-2.5c0-0.2-0.3-0.4-0.7-0.6c-0.3-0.2-0.6-0.3-1-0.4c-0.1,0-0.1-0.2,0-0.5c0-0.2,0.1-0.4,0.2-0.5l1.6,0.4
	c1,0.3,1.7,0.5,2.2,0.6l3.8,0.6c0,0.2,0,0.3,0,0.5c-0.1,0.3-0.1,0.5-0.2,0.5c-0.4,0-0.7,0-1.1,0c-0.6,0-0.9,0.1-0.9,0.3
	C236,50.1,235.7,50.9,235.6,51.8z"/>
<path class="st0" d="M257,58.7c1,0.1,1.9,0.7,2.5,1.5c0.5,1.1,0.6,2.3,0.2,3.4l-1.2,5.7c-0.1,0.3-0.1,0.6,0.1,0.9
	c0.1,0.2,0.4,0.4,0.6,0.4c0.4,0.1,0.7,0,1.1-0.2c0.1,0.1,0.1,0.2,0.1,0.4c0,0.3-0.2,0.6-0.4,0.8c-0.4,0.2-0.9,0.4-1.3,0.5
	c-0.5,0.1-1,0.2-1.5,0.1c-0.5-0.1-0.9-0.4-1.2-0.8c-0.3-0.4-0.5-0.8-0.6-1.3l-0.3,0.1c-0.1,0.1-0.4,0.2-0.6,0.3
	c-0.3,0.1-0.6,0.2-0.9,0.3c-0.3,0.1-0.7,0.2-1.1,0.2c-0.4,0-0.8,0-1.2-0.1c-0.9-0.1-1.7-0.6-2.2-1.3c-0.5-0.7-0.7-1.6-0.4-2.4
	c0.1-0.5,0.3-0.9,0.6-1.2c0.3-0.3,0.6-0.6,1-0.8c0.4-0.2,0.9-0.4,1.4-0.5c0.5-0.1,1-0.2,1.5-0.3l1.6-0.1l1.3-0.1
	c0.2,0,0.3-0.2,0.4-0.4l0.3-1.6c0.2-0.6,0.1-1.2-0.1-1.7c-0.2-0.4-0.6-0.8-1.1-0.8c-0.5-0.1-1,0-1.5,0.2c-0.4,0.4-0.7,0.9-0.8,1.4
	c-0.1,0.3-0.3,0.6-0.6,0.8c-0.3,0.1-0.7,0.1-1,0.1c-0.6-0.1-1.1-0.4-1.4-1c0.2-0.9,1-1.7,2.5-2.2C254.1,58.5,255.6,58.4,257,58.7z
	 M253.3,69.6c0.5,0.1,1,0.1,1.4-0.1c0.4-0.1,0.7-0.4,0.8-0.8l0.6-3c-0.1,0-0.4,0.1-0.9,0.1s-0.8,0.1-1.1,0.1
	c-0.3,0.1-0.6,0.1-0.9,0.2c-0.3,0.1-0.6,0.3-0.8,0.5c-0.2,0.2-0.3,0.5-0.4,0.8c-0.2,0.5-0.1,1,0.2,1.5
	C252.5,69.2,252.8,69.5,253.3,69.6L253.3,69.6z"/>
<path class="st0" d="M272.8,62.1c0.9,0.1,1.7,0.7,2.2,1.5c-0.4,1.6-1,2.4-1.9,2.2c-0.4-0.1-0.8-0.4-1-0.8c-0.3-0.4-0.7-0.7-1.1-0.8
	c-0.6-0.1-1.2,0.1-1.6,0.6c-0.5,0.5-0.8,1.1-0.9,1.8l-0.8,3.6c-0.2,0.9-0.3,1.8-0.4,2.7c0,0.1,0.2,0.3,0.7,0.6
	c0.3,0.2,0.6,0.3,0.9,0.4c0.1,0,0.1,0.2,0,0.4c0,0.2-0.1,0.4-0.1,0.6l-1.5-0.4c-0.9-0.2-1.5-0.4-2-0.5c-0.5-0.1-1.1-0.2-2-0.3
	l-1.6-0.2c-0.1-0.2-0.1-0.4,0-0.6c0.1-0.3,0.1-0.4,0.2-0.4c0.4,0,0.7,0,1.1,0c0.5,0,0.8-0.1,0.9-0.3c0.3-0.7,0.5-1.4,0.7-2.1l1-4.7
	c0.2-0.7,0.2-1.4-0.1-2c-0.1-0.2-0.3-0.4-0.6-0.6c-0.2-0.1-0.4-0.2-0.7-0.3c-0.2-0.1-0.3-0.1-0.3-0.2c0.1-0.6,0.2-0.8,0.3-0.8
	c1.6,0.1,3.2,0.2,4.9,0.1h0.2c0.1,0,0.1,0.1,0.2,0.2c0,0.1,0,0.2,0,0.3l-0.1,0.4l-0.2,0.6c-0.1,0.1-0.1,0.3-0.1,0.4
	c0.5-0.5,1.1-0.9,1.7-1.1C271.4,62,272.1,61.9,272.8,62.1z"/>
<path class="st0" d="M280,60c-0.3-0.4-0.4-0.9-0.2-1.4c0.1-0.5,0.4-0.9,0.8-1.2c0.8-0.6,2-0.3,2.5,0.5c0.3,0.4,0.4,0.9,0.3,1.4
	c-0.1,0.5-0.4,0.9-0.8,1.2C281.7,61.1,280.6,60.9,280,60C280,60,280,60,280,60z M280.4,72.8c-0.2,0.9-0.3,1.8-0.3,2.7
	c0,0.1,0.2,0.3,0.7,0.6c0.3,0.2,0.6,0.3,0.9,0.4c0.1,0,0.1,0.2,0,0.4c0,0.2-0.1,0.4-0.2,0.6c-0.1,0-0.6-0.2-1.5-0.4
	c-0.9-0.3-1.6-0.4-2-0.5c-0.5-0.1-1.2-0.2-2.1-0.3l-1.5-0.2c-0.1-0.2-0.1-0.4,0-0.6c0.1-0.3,0.1-0.4,0.2-0.4c0.4,0,0.7,0,1.1,0
	c0.5,0,0.8-0.1,0.9-0.2c0.3-0.7,0.5-1.4,0.7-2.1l1-4.7c0.2-0.7,0.2-1.4-0.1-2c-0.1-0.2-0.3-0.4-0.6-0.6c-0.2-0.1-0.4-0.2-0.7-0.3
	c-0.2-0.1-0.3-0.1-0.3-0.2c0.1-0.6,0.2-0.8,0.4-0.8c0.8,0.1,1.6,0.2,2.4,0.2c0.8,0,1.6,0,2.4,0h0.2c0.1,0,0.2,0.1,0.2,0.2
	c0,0.1,0,0.2,0,0.3c-0.3,0.8-0.6,1.6-0.8,2.4L280.4,72.8z"/>
<path class="st0" d="M295.6,66.9c0.7,0.1,1.3,0.5,1.8,1c0.4,0.5,0.7,1.1,0.9,1.7c0.7-0.5,1.6-0.8,2.4-1c0.9-0.2,1.9-0.2,2.9,0
	c0.6,0.1,1.2,0.4,1.7,0.8c0.4,0.4,0.7,1,0.9,1.5c0.2,0.6,0.2,1.3,0.2,1.9c0,0.7-0.1,1.4-0.3,2.2l-0.6,3.1c-0.2,0.9-0.3,1.8-0.4,2.7
	c0,0.1,0.2,0.3,0.7,0.6c0.3,0.2,0.6,0.3,0.9,0.4c0.1,0,0.1,0.2,0,0.4c0,0.2-0.1,0.4-0.2,0.6l-1.5-0.4c-0.9-0.2-1.5-0.4-2-0.5
	c-0.5-0.1-1.1-0.2-2-0.3l-1.6-0.2c0-0.2,0-0.4,0-0.6c0.1-0.3,0.1-0.4,0.2-0.4c0.4,0,0.7,0,1.1,0c0.5,0,0.8-0.1,0.9-0.3
	c0.3-0.6,0.5-1.3,0.6-2l0.6-3c0.6-2.8,0-4.4-1.8-4.8c-0.6-0.1-1.2-0.1-1.7,0.1c-0.4,0.1-0.7,0.4-1,0.7c0,0.1,0,0.1-0.1,0.2
	c0,0.1,0,0.2,0,0.2c-0.1,0.6-0.2,1.2-0.3,1.8l-0.7,3.1c-0.2,0.8-0.3,1.7-0.3,2.5c0,0.1,0.2,0.3,0.7,0.6c0.3,0.2,0.6,0.3,0.9,0.4
	c0.1,0,0.1,0.2,0,0.4c0,0.2-0.1,0.4-0.2,0.6c-0.1,0-0.6-0.2-1.5-0.4c-0.9-0.2-1.5-0.4-2-0.5c-0.5-0.1-1.1-0.2-2-0.3l-1.6-0.2
	c-0.1-0.2-0.1-0.4,0-0.6c0.1-0.3,0.1-0.4,0.2-0.4c0.4,0,0.7,0,1.1,0c0.5,0,0.8-0.1,0.9-0.3c0.3-0.7,0.5-1.4,0.7-2.1l0.6-2.8
	c0.3-1.1,0.3-2.3,0-3.4c-0.3-0.8-1-1.3-1.8-1.4c-0.6-0.1-1.2-0.1-1.7,0.2c-0.5,0.1-0.9,0.5-1,0.9l-1.1,5c-0.2,0.9-0.3,1.8-0.3,2.7
	c0,0.1,0.2,0.3,0.7,0.6c0.3,0.2,0.6,0.3,0.9,0.4c0.1,0,0.1,0.2,0,0.4c0,0.2-0.1,0.4-0.2,0.6l-1.5-0.4c-0.8-0.2-1.5-0.4-1.9-0.5
	c-0.4-0.1-1.1-0.2-2-0.3l-1.6-0.2c-0.1-0.2-0.1-0.4,0-0.6c0.1-0.3,0.1-0.4,0.2-0.4c0.4,0,0.7,0,1.1,0c0.5,0,0.8-0.1,0.9-0.2
	c0.3-0.7,0.5-1.4,0.7-2.1l1-4.7c0.2-0.7,0.2-1.4-0.1-2c-0.1-0.2-0.3-0.4-0.6-0.6c-0.2-0.1-0.3-0.2-0.5-0.2c-0.2-0.1-0.3-0.1-0.3-0.2
	c0.1-0.6,0.2-0.8,0.4-0.8c1.6,0.1,3.2,0.2,4.8,0.1h0.1h0.1c0.1,0,0.2,0.1,0.2,0.2c0,0.1,0,0.2,0,0.3c-0.1,0.3-0.2,0.7-0.3,1
	c0,0.1,0,0.1,0,0.2c0.1,0,0.1,0,0.2-0.1c0.6-0.4,1.3-0.7,2-0.8C294,66.8,294.8,66.8,295.6,66.9z"/>
<path class="st0" d="M314.3,81c0.4,0.4,0.6,0.9,0.6,1.4c0,0.5-0.2,1-0.6,1.4c-0.4,0.4-0.9,0.6-1.4,0.6c-0.5,0-1.1-0.2-1.4-0.6
	c-0.4-0.4-0.6-0.9-0.6-1.4c0-0.5,0.2-1,0.6-1.4c0.4-0.4,0.9-0.6,1.4-0.6C313.4,80.4,314,80.6,314.3,81z"/>
</svg>
