<svg id="Layer_1" data-name="Layer 1" xmlns="http://www.w3.org/2000/svg" viewBox="0 0 239.52 215.65"><defs><style>.cls-1{fill:#fff;}</style></defs><title>title</title><path class="cls-1" d="M.61,193.82l15,7.46q1.12.59,2.11,1a1.45,1.45,0,0,0,1.19-.1,4,4,0,0,0,1-.55c.06-.05.21.05.45.32a1,1,0,0,1,.25.37l-2.91,2.36L15,207.41c-.11,0-.26-.12-.46-.33s-.26-.35-.2-.4a3.81,3.81,0,0,0,.61-.79,1.19,1.19,0,0,0,.28-.81.86.86,0,0,0-.19-.35,6.87,6.87,0,0,0-1.79-1.15l-2.62-1.37a.33.33,0,0,0-.23.05q-.75.59-1.95,1.66T6,206.25c-.09.08-.11.15-.05.21l1,2.81a8.44,8.44,0,0,0,.87,1.82.66.66,0,0,0,.64.23,3,3,0,0,0,.92-.38,5.24,5.24,0,0,0,.78-.49q.09,0,.34.25a1.94,1.94,0,0,1,.33.46l-1.1.86q-1,.77-1.57,1.28t-1.31,1.27l-1.05,1.08a.63.63,0,0,1-.39-.25c-.24-.27-.34-.41-.31-.44a4.32,4.32,0,0,0,.68-1,1.83,1.83,0,0,0,.36-1.1,14.13,14.13,0,0,0-.7-2.48L.61,196.77A6.46,6.46,0,0,1,0,194.44a.76.76,0,0,1,.24-.49A.49.49,0,0,1,.61,193.82Zm4.71,10.62q.83-.63,1.66-1.36t1.76-1.69l0-.13-5.65-2.93,2.14,6.06Q5.27,204.48,5.32,204.44Z"/><path class="cls-1" d="M20.65,184.6q2.86-2.55,6.92,2l1.88,2.11a12.45,12.45,0,0,0,1.94,1.86c.12.08.42,0,.9-.22a4.52,4.52,0,0,0,.91-.52s.17,0,.37.25a1.71,1.71,0,0,1,.35.46q-.15.1-1.24,1t-1.6,1.31q-.53.48-1.41,1.38l-1.06,1.11q-.17,0-.46-.34c-.2-.22-.27-.36-.21-.41a3.53,3.53,0,0,0,.59-.83c.23-.41.32-.68.26-.81a8.51,8.51,0,0,0-1.27-1.78L25.63,189a6.46,6.46,0,0,0-2.8-2.13,2.39,2.39,0,0,0-2.24.68,2.76,2.76,0,0,0-.9,1.5,1.43,1.43,0,0,0,.21,1.31l3.41,3.81A12.5,12.5,0,0,0,25.25,196c.12.08.41,0,.88-.2a4.32,4.32,0,0,0,.87-.48c.06-.05.19,0,.39.23a1.71,1.71,0,0,1,.35.46q-.2.14-1.24,1t-1.56,1.27q-.53.48-1.48,1.44t-1.11,1.15q-.17,0-.46-.34c-.2-.22-.27-.36-.21-.41a4.17,4.17,0,0,0,.66-.89q.39-.65.3-.85a9.72,9.72,0,0,0-1.29-1.76L18.12,193a2.83,2.83,0,0,0-1.62-1.1,1.43,1.43,0,0,0-.8.11,3.38,3.38,0,0,0-.65.34q-.23.17-.27.12-.57-.64-.48-.76a42.21,42.21,0,0,0,3-3.85.18.18,0,0,1,0-.08l.06-.07.06,0c.06-.05.16,0,.29,0a.92.92,0,0,1,.28.19,10.13,10.13,0,0,0,.63.88c.05.06.09.09.12.09a.44.44,0,0,0,.05-.17,6.59,6.59,0,0,1,.53-2.15A5.22,5.22,0,0,1,20.65,184.6Z"/><path class="cls-1" d="M36,170.91a5.51,5.51,0,0,1,2.23-1.25,4.71,4.71,0,0,1,2.22-.11,6.92,6.92,0,0,1,1.88.67,5.12,5.12,0,0,1,1.4,1.08q.44.49.38.76a1.69,1.69,0,0,1-.57.73l-5.3,4.73c-.1.09-.12.18,0,.27a5.78,5.78,0,0,0,1.67,1.29,4.09,4.09,0,0,0,2.16.43,3.5,3.5,0,0,0,2.17-.94,8.35,8.35,0,0,0,.61-.61,4.38,4.38,0,0,0,.48-.63l.34-.56a2.53,2.53,0,0,0,.23-.57l.13-.46q0-.13.18-.7a.49.49,0,0,1,.23,0,.57.57,0,0,1,.26.16.91.91,0,0,1,.24.54,4.84,4.84,0,0,1-.24,2.37A5.51,5.51,0,0,1,45,180.72a6,6,0,0,1-4.6,1.54,6.41,6.41,0,0,1-4.5-2.22,6.88,6.88,0,0,1-2-4.79A5.76,5.76,0,0,1,36,170.91Zm.76,1.16a2.1,2.1,0,0,0-.68,1.16,2.79,2.79,0,0,0,0,1.33,5.62,5.62,0,0,0,.42,1.12,3.62,3.62,0,0,0,.48.74c.09.1.18.12.27,0l3.59-3.21q.2-.18-.1-.51a3.86,3.86,0,0,0-1.93-1.11A2.13,2.13,0,0,0,36.74,172.07Z"/><path class="cls-1" d="M44.93,162.88A12.65,12.65,0,0,1,47.83,161a16.94,16.94,0,0,1,2.46,2.27c.11.12.06.26-.13.43s-.56.39-.69.3a3.61,3.61,0,0,0-1.83-.74,2.33,2.33,0,0,0-1.83.66,2.13,2.13,0,0,0-.75,1.19,1.31,1.31,0,0,0,.37,1.15,1.74,1.74,0,0,0,.63.46,1.86,1.86,0,0,0,.83.12,7.22,7.22,0,0,0,.8-.08q.33-.05.95-.21l.32-.09.49-.12.54-.13.54-.11a5.47,5.47,0,0,1,.62-.09l.58,0a2.37,2.37,0,0,1,.61,0l.57.11a1.91,1.91,0,0,1,.59.19,5.68,5.68,0,0,1,.5.31,2.76,2.76,0,0,1,.48.43,3.5,3.5,0,0,1,.9,3.17,5.64,5.64,0,0,1-1.88,3.14,9.92,9.92,0,0,1-3.41,1.93,11.87,11.87,0,0,1-1.32-1A14.48,14.48,0,0,1,47.51,173a.63.63,0,0,1,.21-.39q.51-.45.69-.3a3.29,3.29,0,0,0,2.21.71,3.17,3.17,0,0,0,2-.79,2.16,2.16,0,0,0,.74-1.22,1.45,1.45,0,0,0-.41-1.27,2,2,0,0,0-.42-.36,1.47,1.47,0,0,0-.55-.19l-.53-.08a2.16,2.16,0,0,0-.67.06l-.67.14-.81.21-.83.21a6.91,6.91,0,0,1-2.63.22,3.43,3.43,0,0,1-2.77-4.12A5.74,5.74,0,0,1,44.93,162.88Z"/><path class="cls-1" d="M53.27,155.43a12.64,12.64,0,0,1,2.91-1.92,16.86,16.86,0,0,1,2.46,2.27c.11.12.06.26-.13.43s-.55.39-.69.3a3.61,3.61,0,0,0-1.83-.74,2.32,2.32,0,0,0-1.83.66,2.13,2.13,0,0,0-.75,1.19,1.32,1.32,0,0,0,.37,1.15,1.75,1.75,0,0,0,.63.46,1.86,1.86,0,0,0,.83.12,7.29,7.29,0,0,0,.8-.08q.33-.05.95-.21l.32-.09.49-.12.54-.13.54-.11a5.47,5.47,0,0,1,.62-.09l.58,0a2.37,2.37,0,0,1,.61,0l.57.11a1.92,1.92,0,0,1,.59.19,5.68,5.68,0,0,1,.5.31,2.73,2.73,0,0,1,.48.43,3.51,3.51,0,0,1,.9,3.17,5.65,5.65,0,0,1-1.88,3.14,9.92,9.92,0,0,1-3.41,1.93,11.86,11.86,0,0,1-1.32-1,14.63,14.63,0,0,1-1.25-1.18.63.63,0,0,1,.21-.39q.51-.46.69-.3a3.28,3.28,0,0,0,2.21.71,3.17,3.17,0,0,0,2-.79,2.17,2.17,0,0,0,.74-1.22,1.46,1.46,0,0,0-.41-1.27,2,2,0,0,0-.42-.36,1.46,1.46,0,0,0-.55-.19l-.53-.08a2.15,2.15,0,0,0-.67.06l-.67.14-.81.21-.83.21a6.91,6.91,0,0,1-2.63.22,3.44,3.44,0,0,1-2.77-4.12A5.73,5.73,0,0,1,53.27,155.43Z"/><path class="cls-1" d="M62.67,147.07a3.65,3.65,0,0,1,2.71-1.12,4.76,4.76,0,0,1,2.9,1.86l3.9,4.37a1.36,1.36,0,0,0,.8.5.9.9,0,0,0,.74-.24,1.85,1.85,0,0,0,.5-1c.12,0,.23,0,.35.13a1.77,1.77,0,0,1,.46.78,7.43,7.43,0,0,1-.39,1.35,3.1,3.1,0,0,1-.81,1.24,2.18,2.18,0,0,1-1.33.51,2.45,2.45,0,0,1-1.38-.25s0,.13,0,.29-.07.39-.13.66a8.59,8.59,0,0,1-.26.87,4.72,4.72,0,0,1-.49,1,4.3,4.3,0,0,1-.77.9,3.55,3.55,0,0,1-2.35,1,2.82,2.82,0,0,1-2.19-1.05,2.74,2.74,0,0,1-.64-1.23,3.55,3.55,0,0,1-.07-1.31,6.15,6.15,0,0,1,.43-1.44,12.41,12.41,0,0,1,.64-1.35q.3-.53.8-1.33t.68-1.13a.47.47,0,0,0-.12-.53l-1.09-1.22a2.55,2.55,0,0,0-1.44-.9,1.55,1.55,0,0,0-1.35.41,1.8,1.8,0,0,0-.67,1.34,2.23,2.23,0,0,0,.66,1.5,1,1,0,0,1,.25,1,1.84,1.84,0,0,1-.57.88,1.68,1.68,0,0,1-1.63.5q-.95-1.06-.33-3.29A7.46,7.46,0,0,1,62.67,147.07Zm6.61,9.4a2.3,2.3,0,0,0,.75-1.23,1.17,1.17,0,0,0-.2-1.09l-2-2.26q-.1.21-.46.81t-.53.95a8.28,8.28,0,0,0-.34.87,1.78,1.78,0,0,0-.08,1,1.63,1.63,0,0,0,.39.77,1.83,1.83,0,0,0,1.29.72A1.7,1.7,0,0,0,69.28,156.47Z"/><path class="cls-1" d="M70.83,140.17q.49-.44,1.34-1.31t1.07-1.08a2,2,0,0,1,.4.36c.18.21.25.34.19.39a3.28,3.28,0,0,0-.55.79c-.22.4-.28.67-.17.81l.12.13q.36.32,6.58,3.21-.18-.56-1.09-3t-1-2.76a2.78,2.78,0,0,0-.48-.81.94.94,0,0,0-.84-.23,2.45,2.45,0,0,0-1.29.7c-.06.05-.19,0-.39-.25a.75.75,0,0,1-.25-.46q.27-.24,1.15-.9T77,134.67q.47-.42,1.08-1.09t.93-.95a.85.85,0,0,1,.41.28c.21.24.29.38.23.43a3.77,3.77,0,0,0-.7,1,1.64,1.64,0,0,0-.17,1.35l4.7,13.42q1.52,4.46-.41,6.19a1.61,1.61,0,0,1-1.16.48,1.39,1.39,0,0,1-1.29-1.67q2.31-2.06,1.41-4.53-.66-1.81-.75-2l-10-4.65a3.89,3.89,0,0,0-.72-.27,1.79,1.79,0,0,0-1.1.09,2.82,2.82,0,0,0-.87.48c-.06.05-.18,0-.37-.23s-.31-.39-.29-.46l1.25-1Q70.3,140.65,70.83,140.17Z"/><path class="cls-1" d="M90.62,122.1a6,6,0,0,1,3.1-1.51,6.24,6.24,0,0,1,3.25.29,6.34,6.34,0,0,1,2.56,1.72,6.79,6.79,0,0,1,1.78,5.09,6.56,6.56,0,0,1-2.18,4.72,9.35,9.35,0,0,1-1.77,1.28,6.47,6.47,0,0,0-1.19.76,2.25,2.25,0,0,0-.44.67,2.93,2.93,0,0,1-.3.55,1.44,1.44,0,0,1-.44.15c-.25.06-.4.07-.45,0s-.14-.19-.31-.44l-.74-1.05a17.19,17.19,0,0,0-1.14-1.41l-8.08-9a10.46,10.46,0,0,0-1.48-1.39q-.43-.25-1.47.68l-.2.18c-.09.08-.24,0-.45-.24s-.27-.39-.18-.47q.63-.68,1.15-1.35t.83-1.14q.31-.48.51-.86c.13-.25.28-.51.43-.79l0,0a.32.32,0,0,1,.29,0,.83.83,0,0,1,.32.13,10.39,10.39,0,0,0,1.62,2.3l3.17,3.55,0,0,.09.1.1.09s.08,0,.1,0a.24.24,0,0,0,.06-.09,5.39,5.39,0,0,1,.5-1.25A4.25,4.25,0,0,1,90.62,122.1Zm.58,1.63a2.31,2.31,0,0,0-.82,1.49,1.75,1.75,0,0,0,.43,1.41l4.2,4.7a1.78,1.78,0,0,0,1.64.65,3.23,3.23,0,0,0,1.74-.84,2.53,2.53,0,0,0,.81-2.6,6.81,6.81,0,0,0-1.67-3.05,7.63,7.63,0,0,0-3.38-2.4A2.91,2.91,0,0,0,91.2,123.73Z"/><path class="cls-1" d="M99.4,114.65q.49-.44,1.34-1.31t1.07-1.08a2,2,0,0,1,.4.36c.19.21.25.34.19.39a3.23,3.23,0,0,0-.55.79q-.33.59-.17.81l.12.13q.36.32,6.58,3.21-.18-.56-1.09-3t-1-2.76a2.76,2.76,0,0,0-.48-.81.94.94,0,0,0-.84-.23,2.45,2.45,0,0,0-1.29.7c-.06.05-.19,0-.39-.25a.74.74,0,0,1-.25-.46q.27-.24,1.15-.9t1.41-1.14q.47-.42,1.08-1.09t.93-.95a.85.85,0,0,1,.41.28q.32.35.23.43a3.77,3.77,0,0,0-.7,1,1.64,1.64,0,0,0-.17,1.35l4.7,13.42q1.52,4.47-.41,6.19a1.61,1.61,0,0,1-1.16.48,1.39,1.39,0,0,1-1.29-1.67q2.31-2.06,1.41-4.53-.66-1.81-.75-2l-10-4.65a3.83,3.83,0,0,0-.72-.27,1.79,1.79,0,0,0-1.1.09,2.81,2.81,0,0,0-.87.48c-.06.05-.18,0-.37-.23s-.31-.39-.29-.46l1.25-1Q98.87,115.13,99.4,114.65Z"/><path class="cls-1" d="M115.36,91.31a8.61,8.61,0,0,1,1.32-1,8.75,8.75,0,0,1,1.67-.76,7.07,7.07,0,0,1,1.84-.37,4.17,4.17,0,0,1,1.85.34,4.72,4.72,0,0,1,1.72,1.25,5.07,5.07,0,0,1,1.24,3,5.75,5.75,0,0,1-.54,3.19c-.08.15,0,.25.11.3a34.86,34.86,0,0,0,5.85,1.55,12.94,12.94,0,0,0,3.13.13,3.79,3.79,0,0,0,2.25-.8.85.85,0,0,1,.41.28,1.18,1.18,0,0,1,.27.48,5.81,5.81,0,0,1-.65.66,9.88,9.88,0,0,1-2.29,1.57,6.36,6.36,0,0,1-2.3.64,11.55,11.55,0,0,1-2,0,12.86,12.86,0,0,1-2-.41l-1.64-.41-1.43-.38q-.5-.13-1.08-.25a5.75,5.75,0,0,0-.93-.13,1.51,1.51,0,0,0-.58.08,1.86,1.86,0,0,0-.59.41.43.43,0,0,0,0,.69l2.79,3.13a9.27,9.27,0,0,0,1.86,1.73c.2.14.58.06,1.13-.23a6.3,6.3,0,0,0,1.13-.71c.06-.05.2,0,.43.3a1.63,1.63,0,0,1,.29.42q-2.56,2-3.27,2.68T124,109.9L122.84,111l-.4.44a1,1,0,0,1-.42-.34c-.21-.24-.29-.37-.25-.41a5.1,5.1,0,0,0,.72-.91q.44-.65.35-.93a11.76,11.76,0,0,0-1.67-2.14l-7.49-8.38a11.61,11.61,0,0,0-1.76-1.7q-.22-.12-1,.22a4.31,4.31,0,0,0-1,.57q-.09.08-.39-.25c-.2-.22-.29-.38-.27-.48q2.41-2,3-2.57t1.52-1.4Q114.7,91.9,115.36,91.31Zm.64,1.43a4.84,4.84,0,0,0-1.15,1.3q-.15.33,1.79,2.54l2.28,2.55a.83.83,0,0,0,1,.31,3.76,3.76,0,0,0,1.18-.78l.58-.51a2.56,2.56,0,0,0,.78-2.09,4.06,4.06,0,0,0-1.15-2.6Q118.57,90.43,116,92.73Z"/><path class="cls-1" d="M133.61,83.7a3.65,3.65,0,0,1,2.71-1.12,4.75,4.75,0,0,1,2.9,1.86l3.9,4.37a1.36,1.36,0,0,0,.8.5.89.89,0,0,0,.74-.24,1.85,1.85,0,0,0,.5-1q.17-.07.35.13A1.77,1.77,0,0,1,146,89a7.35,7.35,0,0,1-.39,1.35,3.09,3.09,0,0,1-.81,1.24,2.17,2.17,0,0,1-1.33.51,2.43,2.43,0,0,1-1.37-.25s0,.13,0,.29-.07.39-.13.66a8.31,8.31,0,0,1-.26.87,4.75,4.75,0,0,1-.49,1,4.36,4.36,0,0,1-.77.9,3.55,3.55,0,0,1-2.35,1,2.82,2.82,0,0,1-2.19-1.05,2.74,2.74,0,0,1-.64-1.23,3.57,3.57,0,0,1-.07-1.31,6,6,0,0,1,.43-1.44,12.27,12.27,0,0,1,.64-1.35q.3-.53.8-1.33t.68-1.13a.47.47,0,0,0-.12-.53L136.47,86a2.55,2.55,0,0,0-1.44-.9,1.55,1.55,0,0,0-1.35.41,1.8,1.8,0,0,0-.68,1.34,2.23,2.23,0,0,0,.66,1.5,1,1,0,0,1,.25,1,1.85,1.85,0,0,1-.57.88,1.68,1.68,0,0,1-1.63.5q-1-1.06-.33-3.29A7.45,7.45,0,0,1,133.61,83.7Zm6.61,9.4a2.31,2.31,0,0,0,.75-1.23,1.18,1.18,0,0,0-.2-1.1l-2-2.26q-.1.21-.46.81c-.24.4-.42.72-.53.95a8,8,0,0,0-.34.87,1.8,1.8,0,0,0-.09,1,1.65,1.65,0,0,0,.39.77,1.83,1.83,0,0,0,1.29.72A1.71,1.71,0,0,0,140.22,93.1Z"/><path class="cls-1" d="M146.45,72.22a3.21,3.21,0,0,1,1.83-.85,3.48,3.48,0,0,1,1.89.33,7,7,0,0,1,.63-2.55,6.68,6.68,0,0,1,1.69-2.31,3.37,3.37,0,0,1,1.68-.86,3.28,3.28,0,0,1,1.77.19,7,7,0,0,1,1.69,1,11.38,11.38,0,0,1,1.58,1.48l2.08,2.33a12.45,12.45,0,0,0,1.94,1.86q.18.12.89-.21a4.38,4.38,0,0,0,.9-.51s.17,0,.37.25a1.7,1.7,0,0,1,.35.46q-.18.12-1.24,1T162.9,75q-.53.48-1.46,1.42l-1.11,1.15a1.13,1.13,0,0,1-.44-.36c-.2-.22-.27-.35-.23-.39a4,4,0,0,0,.65-.88q.38-.64.29-.84a9.19,9.19,0,0,0-1.23-1.69l-2-2.26q-2.87-3.21-4.93-1.37a2.72,2.72,0,0,0-.9,1.44,1.86,1.86,0,0,0,0,1.2l.15.19a.57.57,0,0,0,.17.17,14.58,14.58,0,0,1,1.29,1.32l2.1,2.35a11.71,11.71,0,0,0,1.86,1.77q.18.11.89-.21a4.43,4.43,0,0,0,.9-.51s.17,0,.37.25a1.71,1.71,0,0,1,.35.46q-.17.12-1.24,1t-1.58,1.29q-.53.48-1.46,1.42L154.24,83a1.09,1.09,0,0,1-.44-.36c-.2-.22-.27-.35-.23-.39a4,4,0,0,0,.65-.88c.26-.43.35-.71.29-.84a9.72,9.72,0,0,0-1.29-1.76l-1.9-2.13a6.31,6.31,0,0,0-2.75-2,2.26,2.26,0,0,0-2.2.57,2.84,2.84,0,0,0-.88,1.47,1.4,1.4,0,0,0,.2,1.34l3.41,3.81a10.92,10.92,0,0,0,2,1.84q.18.11.86-.19a4,4,0,0,0,.88-.49c.06-.05.19,0,.39.23a1.71,1.71,0,0,1,.35.46q-.2.14-1.24,1t-1.56,1.27q-.56.5-1.49,1.45t-1.1,1.14q-.17,0-.46-.34t-.21-.41a4.34,4.34,0,0,0,.65-.88q.41-.66.31-.86a9.67,9.67,0,0,0-1.29-1.76l-3.23-3.61a2.83,2.83,0,0,0-1.62-1.1,1.43,1.43,0,0,0-.8.11,3.32,3.32,0,0,0-.66.35c-.16.12-.25.16-.28.13q-.57-.64-.46-.78a41,41,0,0,0,3-3.83.19.19,0,0,1,0-.09l.1-.11c.07-.07.18-.07.32,0a.55.55,0,0,1,.26.2,10.2,10.2,0,0,0,.62.88c.05.06.1.08.14.07a.44.44,0,0,0,.05-.17,6.57,6.57,0,0,1,.53-2.15A5.19,5.19,0,0,1,146.45,72.22Z"/><path class="cls-1" d="M157.43,57.69a1.81,1.81,0,0,1-1.27-.62,1.83,1.83,0,0,1,.16-2.59,1.83,1.83,0,0,1,2.59.13,1.82,1.82,0,0,1,.47,1.33,1.83,1.83,0,0,1-2,1.74ZM168,64.91a11,11,0,0,0,2,1.84q.18.11.89-.21a4.4,4.4,0,0,0,.9-.51c.06-.05.19,0,.39.23a1.7,1.7,0,0,1,.35.46q-.18.12-1.27,1T169.67,69q-.56.5-1.5,1.46t-1.08,1.13q-.17,0-.47-.34c-.2-.22-.27-.36-.21-.41a4.34,4.34,0,0,0,.65-.88q.41-.66.31-.86a9.72,9.72,0,0,0-1.29-1.76l-3.23-3.61a2.83,2.83,0,0,0-1.62-1.1,1.65,1.65,0,0,0-.81.12,3.15,3.15,0,0,0-.65.34c-.16.12-.25.16-.28.13q-.57-.64-.46-.78a22.9,22.9,0,0,0,1.56-1.87,23.2,23.2,0,0,0,1.39-2l.14-.2c.07-.07.18-.07.32,0a.55.55,0,0,1,.26.2,25.6,25.6,0,0,0,1.53,2.06Z"/><path class="cls-1" d="M172.59,45.85l3.19,3.57a.18.18,0,0,0,.12.07H176l0,0,.18-.16a2.47,2.47,0,0,0,.48-1.78q.07-3.49-.06-7.92a1.63,1.63,0,0,0-.24-1q-.2-.22-.77.13a6.33,6.33,0,0,0-.9.64c-.06.05-.17,0-.34-.16a1.54,1.54,0,0,1-.34-.43q2.58-2.07,2.8-2.26c.28-.25.55-.51.81-.76l.84-.85.74-.76a1.26,1.26,0,0,1,.37.35q.25.3.18.36a4.65,4.65,0,0,0-1.41,2.93l.08,8.38q0,.51.6.58l10.69,1.53a3,3,0,0,0,1.71-.25,4.88,4.88,0,0,0,1.18-.66q.11-.1.49.32a.91.91,0,0,1,.21.37q-2.78,2.24-3.16,2.58-.71.63-1.65,1.57l-1.32,1.32c-.11,0-.26-.12-.46-.33s-.26-.35-.2-.4a2.3,2.3,0,0,0,.48-.71q.24-.49.08-.67a5.65,5.65,0,0,0-1.45-.38q-1.35-.26-3.58-.57T177.82,50q-.17,0-.57.35t-.12.58l2.93,3.28A10.73,10.73,0,0,0,182,56q.18.12.9-.22a4.51,4.51,0,0,0,.91-.52q.09-.08.46.34a1.28,1.28,0,0,1,.23.35l-2.93,2.38q-.44.4-.91.85l-1,1-.89.9a.58.58,0,0,1-.37-.23c-.25-.28-.35-.45-.29-.5a4.71,4.71,0,0,0,.69-.9c.28-.44.4-.74.33-.9a10.39,10.39,0,0,0-1.49-2L170,48a8.94,8.94,0,0,0-1.84-1.7,1.44,1.44,0,0,0-.93.21,4,4,0,0,0-.95.55q-.09.08-.39-.25c-.21-.24-.32-.38-.31-.44l1.29-1q1.18-.93,1.78-1.47.18-.16,2.72-2.67a1.53,1.53,0,0,1,.38.3c.22.25.31.4.25.46a4.83,4.83,0,0,0-.64.89q-.44.71-.35.91A11,11,0,0,0,172.59,45.85Z"/><path class="cls-1" d="M190.77,32.63a3.65,3.65,0,0,1,2.71-1.12,4.75,4.75,0,0,1,2.9,1.86l3.9,4.37a1.35,1.35,0,0,0,.8.5.89.89,0,0,0,.74-.24,1.84,1.84,0,0,0,.5-1c.12,0,.23,0,.35.13a1.76,1.76,0,0,1,.46.78,7.29,7.29,0,0,1-.39,1.35,3.1,3.1,0,0,1-.81,1.24,2.17,2.17,0,0,1-1.33.51,2.43,2.43,0,0,1-1.37-.25s0,.13,0,.29-.07.39-.13.66a8.6,8.6,0,0,1-.26.87,4.77,4.77,0,0,1-.49,1,4.32,4.32,0,0,1-.77.9,3.55,3.55,0,0,1-2.35,1A2.82,2.82,0,0,1,193,44.44a2.74,2.74,0,0,1-.64-1.23,3.57,3.57,0,0,1-.07-1.31,6.12,6.12,0,0,1,.43-1.44,12.21,12.21,0,0,1,.64-1.35q.3-.53.8-1.33t.68-1.13a.47.47,0,0,0-.12-.53l-1.09-1.22a2.56,2.56,0,0,0-1.44-.9,1.55,1.55,0,0,0-1.35.41,1.8,1.8,0,0,0-.68,1.34,2.23,2.23,0,0,0,.66,1.5,1,1,0,0,1,.25,1,1.84,1.84,0,0,1-.57.88,1.68,1.68,0,0,1-1.63.5q-1-1.06-.33-3.29A7.46,7.46,0,0,1,190.77,32.63Zm6.61,9.4a2.3,2.3,0,0,0,.75-1.23,1.17,1.17,0,0,0-.2-1.1l-2-2.26q-.1.21-.46.81t-.53.95a8,8,0,0,0-.34.87,1.8,1.8,0,0,0-.08,1,1.63,1.63,0,0,0,.39.77,1.83,1.83,0,0,0,1.29.72A1.71,1.71,0,0,0,197.38,42Z"/><path class="cls-1" d="M202.86,21.83a3,3,0,0,1,2.47-.89q1.68,1.88.62,2.84a1.77,1.77,0,0,1-1.26.33,1.86,1.86,0,0,0-1.35.41,1.59,1.59,0,0,0-.45,1.66,4,4,0,0,0,.91,1.8l2.48,2.77a12.45,12.45,0,0,0,1.94,1.86q.18.12.88-.2a4.21,4.21,0,0,0,.89-.5s.17,0,.36.25a3.12,3.12,0,0,1,.38.44q-.2.14-1.25,1t-1.57,1.28q-.53.48-1.48,1.44t-1.11,1.15c-.11,0-.27-.12-.46-.34s-.27-.36-.21-.41a4.16,4.16,0,0,0,.66-.89q.39-.65.3-.85a9.71,9.71,0,0,0-1.29-1.76l-3.23-3.61a2.83,2.83,0,0,0-1.62-1.1,1.44,1.44,0,0,0-.8.11,3.38,3.38,0,0,0-.65.34q-.23.17-.27.12-.57-.64-.48-.76a42.26,42.26,0,0,0,3-3.85l.14-.2c.06-.05.16,0,.29,0a.71.71,0,0,1,.28.21l.24.34.34.49a3.56,3.56,0,0,0,.23.33,5.46,5.46,0,0,1,.13-2A3.26,3.26,0,0,1,202.86,21.83Z"/><path class="cls-1" d="M205.41,14.82a1.81,1.81,0,0,1-1.27-.62,1.76,1.76,0,0,1-.46-1.32,1.84,1.84,0,0,1,3.21-1.14,1.81,1.81,0,0,1,.47,1.33,1.83,1.83,0,0,1-2,1.74ZM216,22a10.92,10.92,0,0,0,2,1.84q.18.11.89-.21a4.43,4.43,0,0,0,.9-.51c.06-.05.19,0,.39.23a1.72,1.72,0,0,1,.35.46q-.18.12-1.27,1t-1.58,1.29q-.56.5-1.5,1.46t-1.08,1.13q-.17,0-.46-.34t-.21-.41a4.32,4.32,0,0,0,.65-.88q.41-.66.31-.86a9.67,9.67,0,0,0-1.29-1.76l-3.23-3.61a2.83,2.83,0,0,0-1.62-1.1,1.65,1.65,0,0,0-.81.12,3.12,3.12,0,0,0-.65.34c-.16.12-.25.16-.28.13q-.57-.64-.46-.78a22.48,22.48,0,0,0,1.56-1.87,23.2,23.2,0,0,0,1.39-2l.14-.2c.07-.07.18-.07.32,0a.55.55,0,0,1,.26.2,25.46,25.46,0,0,0,1.53,2.06Z"/><path class="cls-1" d="M220.25,6.3a3.21,3.21,0,0,1,1.83-.85,3.48,3.48,0,0,1,1.89.33,7,7,0,0,1,.63-2.55A6.68,6.68,0,0,1,226.28.91,3.38,3.38,0,0,1,228,0a3.28,3.28,0,0,1,1.77.19,7,7,0,0,1,1.69,1A11.32,11.32,0,0,1,233,2.68L235.08,5A12.45,12.45,0,0,0,237,6.86q.18.12.89-.21a4.35,4.35,0,0,0,.9-.51s.17,0,.37.25a1.72,1.72,0,0,1,.35.46q-.18.12-1.24,1T236.7,9.1q-.53.48-1.46,1.42l-1.11,1.15a1.12,1.12,0,0,1-.44-.36c-.2-.22-.27-.35-.23-.39a4,4,0,0,0,.65-.88q.38-.64.29-.84a9.28,9.28,0,0,0-1.23-1.69l-2-2.26Q228.28,2,226.22,3.87a2.71,2.71,0,0,0-.9,1.44,1.86,1.86,0,0,0,0,1.2l.15.19a.57.57,0,0,0,.17.17A14.58,14.58,0,0,1,227,8.19l2.1,2.35a11.71,11.71,0,0,0,1.86,1.77q.18.12.89-.21a4.43,4.43,0,0,0,.9-.51s.17,0,.36.25a1.69,1.69,0,0,1,.35.46q-.18.12-1.24,1t-1.58,1.29q-.53.48-1.46,1.42T228,17.12a1.1,1.1,0,0,1-.44-.36q-.3-.33-.23-.39a4,4,0,0,0,.65-.88c.26-.43.35-.71.29-.84A9.72,9.72,0,0,0,227,12.89l-1.9-2.13a6.3,6.3,0,0,0-2.75-2.05,2.26,2.26,0,0,0-2.2.57,2.84,2.84,0,0,0-.88,1.47,1.4,1.4,0,0,0,.2,1.34l3.41,3.81a11,11,0,0,0,2,1.84q.18.11.86-.19a4.05,4.05,0,0,0,.88-.49c.06-.05.19,0,.39.23a1.72,1.72,0,0,1,.35.46l-1.24,1q-1,.81-1.55,1.27T223,21.42q-.94,1-1.1,1.14-.17,0-.46-.34t-.21-.41a4.28,4.28,0,0,0,.65-.88c.27-.44.37-.73.31-.86a9.67,9.67,0,0,0-1.29-1.76l-3.23-3.61a2.83,2.83,0,0,0-1.62-1.1,1.44,1.44,0,0,0-.8.11,3.34,3.34,0,0,0-.66.35q-.24.18-.28.13-.57-.64-.46-.78a41.06,41.06,0,0,0,3-3.83.18.18,0,0,1,0-.09l.1-.11c.07-.07.18-.07.32,0a.55.55,0,0,1,.26.2,10.24,10.24,0,0,0,.62.88q.08.09.14.07a.46.46,0,0,0,.05-.17,6.58,6.58,0,0,1,.53-2.15A5.19,5.19,0,0,1,220.25,6.3Z"/></svg>