<?xml version="1.0" encoding="utf-8"?>
<!-- Generator: Adobe Illustrator 21.1.0, SVG Export Plug-In . SVG Version: 6.00 Build 0)  -->
<svg version="1.1" id="Layer_1" xmlns="http://www.w3.org/2000/svg" xmlns:xlink="http://www.w3.org/1999/xlink" x="0px" y="0px"
	 viewBox="0 0 245.9 217.8" style="enable-background:new 0 0 245.9 217.8;" xml:space="preserve">
<style type="text/css">
	.st0{fill:#FFFFFF;}
</style>
<title>title</title>
<path class="st0" d="M0.6,196l15,7.5c0.7,0.4,1.4,0.7,2.1,1c0.4,0.1,0.8,0.1,1.2-0.1c0.4-0.1,0.7-0.3,1-0.6c0.1-0.1,0.2,0.1,0.5,0.3
	c0.1,0.1,0.2,0.2,0.2,0.4l-2.9,2.4l-2.7,2.7c-0.1,0-0.3-0.1-0.5-0.3s-0.3-0.4-0.2-0.4c0.2-0.2,0.4-0.5,0.6-0.8
	c0.2-0.2,0.3-0.5,0.3-0.8c0-0.1-0.1-0.2-0.2-0.4c-0.5-0.5-1.1-0.9-1.8-1.1l-2.6-1.4c-0.1,0-0.2,0-0.2,0.1c-0.5,0.4-1.1,0.9-1.9,1.7
	c-0.8,0.7-1.6,1.5-2.5,2.3c-0.1,0.1-0.1,0.1-0.1,0.2l1,2.8c0.2,0.6,0.5,1.3,0.9,1.8c0.2,0.2,0.4,0.3,0.6,0.2
	c0.3-0.1,0.6-0.2,0.9-0.4c0.3-0.1,0.5-0.3,0.8-0.5c0.1,0,0.2,0.1,0.3,0.2c0.1,0.1,0.2,0.3,0.3,0.5l-1.1,0.9
	c-0.7,0.5-1.2,0.9-1.6,1.3c-0.4,0.3-0.8,0.8-1.3,1.3l-1,1.1c-0.2,0-0.3-0.1-0.4-0.2c-0.2-0.3-0.3-0.4-0.3-0.4c0.3-0.3,0.5-0.6,0.7-1
	c0.2-0.3,0.4-0.7,0.4-1.1c-0.2-0.8-0.4-1.7-0.7-2.5L0.6,199c-0.3-0.7-0.6-1.5-0.6-2.3c0-0.2,0.1-0.4,0.2-0.5
	C0.3,196.1,0.5,196,0.6,196z M5.3,206.6c0.6-0.4,1.1-0.9,1.7-1.4s1.1-1,1.8-1.7v-0.1l-5.7-2.9L5.3,206.6
	C5.3,206.6,5.3,206.7,5.3,206.6z"/>
<path class="st0" d="M20.6,186.8c1.9-1.7,4.2-1,6.9,2l1.9,2.1c0.6,0.7,1.2,1.3,1.9,1.9c0.1,0.1,0.4,0,0.9-0.2
	c0.3-0.1,0.6-0.3,0.9-0.5c0,0,0.2,0,0.4,0.2c0.1,0.1,0.3,0.3,0.3,0.5c-0.1,0.1-0.5,0.4-1.2,1c-0.7,0.6-1.3,1-1.6,1.3
	c-0.4,0.3-0.8,0.8-1.4,1.4l-1.1,1.1c-0.1,0-0.3-0.1-0.5-0.3c-0.2-0.2-0.3-0.4-0.2-0.4c0.2-0.2,0.4-0.5,0.6-0.8
	c0.2-0.4,0.3-0.7,0.3-0.8c-0.3-0.6-0.8-1.2-1.3-1.8l-1.9-2.2c-0.7-1-1.7-1.7-2.8-2.1c-0.8-0.2-1.7,0.1-2.2,0.7
	c-0.5,0.4-0.8,0.9-0.9,1.5c-0.1,0.4-0.1,0.9,0.2,1.3l3.4,3.8c0.6,0.7,1.2,1.3,1.9,1.8c0.1,0.1,0.4,0,0.9-0.2
	c0.3-0.1,0.6-0.3,0.9-0.5c0.1-0.1,0.2,0,0.4,0.2c0.1,0.1,0.3,0.3,0.4,0.5c-0.1,0.1-0.5,0.4-1.2,1s-1.2,1-1.6,1.3
	c-0.4,0.3-0.8,0.8-1.5,1.4c-0.6,0.6-1,1-1.1,1.1c-0.1,0-0.3-0.1-0.5-0.3c-0.2-0.2-0.3-0.4-0.2-0.4c0.3-0.3,0.5-0.6,0.7-0.9
	c0.3-0.4,0.4-0.7,0.3-0.9c-0.4-0.6-0.8-1.2-1.3-1.8l-3.2-3.6c-0.4-0.5-1-0.9-1.6-1.1c-0.3,0-0.5,0-0.8,0.1c-0.2,0.1-0.4,0.2-0.6,0.3
	c-0.2,0.1-0.2,0.2-0.3,0.1c-0.4-0.4-0.5-0.7-0.5-0.8c1.1-1.2,2.1-2.5,3-3.9c0,0,0-0.1,0-0.1l0.1-0.1h0.1c0.1-0.1,0.2,0,0.3,0
	c0.1,0,0.2,0.1,0.3,0.2c0.2,0.3,0.4,0.6,0.6,0.9c0,0.1,0.1,0.1,0.1,0.1c0-0.1,0-0.1,0-0.2c0.1-0.7,0.2-1.5,0.5-2.1
	C19.6,188,20.1,187.3,20.6,186.8z"/>
<path class="st0" d="M36,173.1c0.6-0.6,1.4-1,2.2-1.2c0.7-0.2,1.5-0.3,2.2-0.1c0.7,0.1,1.3,0.4,1.9,0.7c0.5,0.3,1,0.6,1.4,1.1
	c0.3,0.3,0.4,0.6,0.4,0.8c-0.1,0.3-0.3,0.5-0.6,0.7l-5.3,4.7c-0.1,0.1-0.1,0.2,0,0.3c0.5,0.5,1,1,1.7,1.3c0.7,0.3,1.4,0.5,2.2,0.4
	c0.8-0.1,1.6-0.4,2.2-0.9c0.2-0.2,0.4-0.4,0.6-0.6c0.2-0.2,0.3-0.4,0.5-0.6l0.3-0.6c0.1-0.2,0.2-0.4,0.2-0.6l0.1-0.5
	c0-0.1,0.1-0.3,0.2-0.7c0.1,0,0.2,0,0.2,0c0.1,0,0.2,0.1,0.3,0.2c0.1,0.1,0.2,0.3,0.2,0.5c0.1,0.8,0,1.6-0.2,2.4
	c-0.3,1-0.9,1.9-1.7,2.6c-1.2,1.1-2.9,1.7-4.6,1.5c-1.7-0.1-3.4-0.9-4.5-2.2c-1.3-1.3-2-3-2-4.8C33.9,175.8,34.7,174.2,36,173.1z
	 M36.8,174.3c-0.3,0.3-0.6,0.7-0.7,1.2c-0.1,0.4-0.1,0.9,0,1.3c0.1,0.4,0.2,0.8,0.4,1.1c0.1,0.3,0.3,0.5,0.5,0.7
	c0.1,0.1,0.2,0.1,0.3,0l3.6-3.2c0.1-0.1,0.1-0.3-0.1-0.5c-0.5-0.6-1.2-0.9-1.9-1.1C38.1,173.6,37.3,173.7,36.8,174.3L36.8,174.3z"/>
<path class="st0" d="M44.9,165.1c0.9-0.8,1.9-1.4,2.9-1.9c0.9,0.7,1.7,1.4,2.5,2.3c0.1,0.1,0.1,0.3-0.1,0.4s-0.6,0.4-0.7,0.3
	c-0.5-0.4-1.2-0.7-1.8-0.7c-0.7-0.1-1.3,0.2-1.8,0.7c-0.4,0.3-0.6,0.7-0.8,1.2c-0.1,0.4,0.1,0.8,0.4,1.1c0.2,0.2,0.4,0.4,0.6,0.5
	c0.3,0.1,0.5,0.1,0.8,0.1c0.3,0,0.5,0,0.8-0.1c0.2,0,0.5-0.1,1-0.2l0.3-0.1l0.5-0.1l0.5-0.1l0.5-0.1c0.2,0,0.4-0.1,0.6-0.1h0.6
	c0.2,0,0.4,0,0.6,0l0.6,0.1c0.2,0,0.4,0.1,0.6,0.2c0.2,0.1,0.3,0.2,0.5,0.3c0.2,0.1,0.3,0.3,0.5,0.4c0.8,0.8,1.1,2,0.9,3.2
	c-0.3,1.2-0.9,2.3-1.9,3.1c-1,0.9-2.2,1.5-3.4,1.9c-0.5-0.3-0.9-0.6-1.3-1c-0.4-0.4-0.9-0.8-1.3-1.3c0-0.2,0.1-0.3,0.2-0.4
	c0.3-0.3,0.6-0.4,0.7-0.3c0.6,0.5,1.4,0.7,2.2,0.7c0.7,0,1.4-0.3,2-0.8c0.4-0.3,0.6-0.7,0.7-1.2c0.1-0.5-0.1-0.9-0.4-1.3
	c-0.1-0.1-0.3-0.3-0.4-0.4c-0.2-0.1-0.4-0.2-0.5-0.2l-0.5-0.1c-0.2,0-0.5,0-0.7,0.1l-0.7,0.1l-0.8,0.2l-0.8,0.2
	c-0.9,0.2-1.7,0.3-2.6,0.2c-1.9-0.3-3.1-2.1-2.8-4c0-0.1,0-0.1,0-0.2C43.4,166.9,44,165.8,44.9,165.1z"/>
<path class="st0" d="M53.3,157.6c0.9-0.8,1.9-1.4,2.9-1.9c0.9,0.7,1.7,1.4,2.5,2.3c0.1,0.1,0.1,0.3-0.1,0.4s-0.5,0.4-0.7,0.3
	c-0.5-0.4-1.2-0.7-1.8-0.7c-0.7-0.1-1.3,0.2-1.8,0.7c-0.4,0.3-0.6,0.7-0.8,1.2c-0.1,0.4,0.1,0.8,0.4,1.1c0.2,0.2,0.4,0.4,0.6,0.5
	c0.3,0.1,0.5,0.1,0.8,0.1c0.3,0,0.5,0,0.8-0.1c0.2,0,0.5-0.1,1-0.2l0.3-0.1l0.5-0.1l0.5-0.1l0.5-0.1c0.2,0,0.4-0.1,0.6-0.1h0.6
	c0.2,0,0.4,0,0.6,0l0.6,0.1c0.2,0,0.4,0.1,0.6,0.2c0.2,0.1,0.3,0.2,0.5,0.3c0.2,0.1,0.3,0.3,0.5,0.4c0.8,0.8,1.1,2,0.9,3.2
	c-0.3,1.2-0.9,2.3-1.9,3.1c-1,0.9-2.2,1.5-3.4,1.9c-0.5-0.3-0.9-0.6-1.3-1c-0.4-0.4-0.9-0.8-1.2-1.2c0-0.2,0.1-0.3,0.2-0.4
	c0.3-0.3,0.6-0.4,0.7-0.3c0.6,0.5,1.4,0.8,2.2,0.7c0.7,0,1.4-0.3,2-0.8c0.4-0.3,0.6-0.7,0.7-1.2c0.1-0.5-0.1-0.9-0.4-1.3
	c-0.1-0.1-0.3-0.3-0.4-0.4c-0.2-0.1-0.4-0.2-0.5-0.2l-0.5-0.1c-0.2,0-0.5,0-0.7,0.1l-0.7,0.1l-0.8,0.2l-0.8,0.2
	c-0.9,0.2-1.7,0.3-2.6,0.2c-1.9-0.3-3.1-2.1-2.8-4c0,0,0-0.1,0-0.1C51.7,159.5,52.4,158.4,53.3,157.6z"/>
<path class="st0" d="M62.7,149.3c0.7-0.7,1.7-1.1,2.7-1.1c1.2,0.2,2.2,0.9,2.9,1.9l3.9,4.4c0.2,0.3,0.5,0.4,0.8,0.5
	c0.3,0,0.5-0.1,0.7-0.2c0.3-0.3,0.4-0.6,0.5-1c0.1,0,0.2,0,0.3,0.1c0.2,0.2,0.4,0.5,0.5,0.8c-0.1,0.5-0.2,0.9-0.4,1.4
	c-0.2,0.5-0.4,0.9-0.8,1.2c-0.4,0.3-0.8,0.5-1.3,0.5c-0.5,0.1-1,0-1.4-0.2c0,0,0,0.1,0,0.3s-0.1,0.4-0.1,0.7
	c-0.1,0.3-0.2,0.6-0.3,0.9c-0.1,0.4-0.3,0.7-0.5,1c-0.2,0.3-0.5,0.6-0.8,0.9c-0.6,0.6-1.5,1-2.3,1c-0.9,0-1.7-0.4-2.2-1.1
	c-0.3-0.3-0.5-0.8-0.6-1.2c-0.1-0.4-0.1-0.9-0.1-1.3c0.1-0.5,0.2-1,0.4-1.4c0.2-0.5,0.4-0.9,0.6-1.4c0.2-0.4,0.5-0.8,0.8-1.3
	s0.6-0.9,0.7-1.1c0.1-0.2,0-0.4-0.1-0.5l-1.1-1.2c-0.4-0.5-0.9-0.8-1.4-0.9c-0.5-0.1-1,0.1-1.3,0.4c-0.4,0.3-0.7,0.8-0.7,1.3
	c0,0.6,0.3,1.1,0.7,1.5c0.3,0.3,0.4,0.6,0.2,1c-0.1,0.3-0.3,0.6-0.6,0.9c-0.4,0.5-1,0.6-1.6,0.5c-0.6-0.7-0.7-1.8-0.3-3.3
	C60.8,151.5,61.6,150.3,62.7,149.3z M69.3,158.7c0.4-0.3,0.6-0.8,0.8-1.2c0.1-0.4,0-0.8-0.2-1.1l-2-2.3c-0.1,0.1-0.2,0.4-0.5,0.8
	c-0.2,0.4-0.4,0.7-0.5,0.9c-0.1,0.3-0.2,0.6-0.3,0.9c-0.1,0.3-0.1,0.7-0.1,1c0.1,0.3,0.2,0.6,0.4,0.8c0.3,0.4,0.8,0.7,1.3,0.7
	C68.5,159.2,69,159,69.3,158.7z"/>
<path class="st0" d="M70.8,142.4c0.3-0.3,0.8-0.7,1.3-1.3c0.6-0.6,0.9-0.9,1.1-1.1c0.1,0.1,0.3,0.2,0.4,0.4c0.2,0.2,0.2,0.3,0.2,0.4
	c-0.2,0.2-0.4,0.5-0.6,0.8c-0.2,0.4-0.3,0.7-0.2,0.8l0.1,0.1c0.2,0.2,2.4,1.3,6.6,3.2c-0.1-0.4-0.5-1.4-1.1-3
	c-0.6-1.6-0.9-2.5-1-2.8c-0.1-0.3-0.3-0.6-0.5-0.8c-0.2-0.2-0.5-0.3-0.8-0.2c-0.5,0.1-0.9,0.3-1.3,0.7c-0.1,0.1-0.2,0-0.4-0.2
	c-0.1-0.1-0.2-0.3-0.2-0.5c0.2-0.2,0.6-0.5,1.2-0.9s1-0.8,1.4-1.1c0.3-0.3,0.7-0.6,1.1-1.1c0.4-0.4,0.7-0.8,0.9-0.9
	c0.2,0.1,0.3,0.1,0.4,0.3c0.2,0.2,0.3,0.4,0.2,0.4c-0.3,0.3-0.5,0.6-0.7,1c-0.2,0.4-0.3,0.9-0.2,1.4l4.7,13.4c1,3,0.9,5-0.4,6.2
	c-0.3,0.3-0.7,0.5-1.2,0.5c-0.8,0-1.4-0.7-1.3-1.5c0-0.1,0-0.1,0-0.2c1.5-1.4,2-2.9,1.4-4.5c-0.4-1.2-0.7-1.9-0.8-2l-10-4.6
	c-0.2-0.1-0.5-0.2-0.7-0.3c-0.4-0.1-0.8-0.1-1.1,0.1c-0.3,0.1-0.6,0.3-0.9,0.5c-0.1,0.1-0.2,0-0.4-0.2s-0.3-0.4-0.3-0.5l1.2-1
	C69.9,143.1,70.5,142.7,70.8,142.4z"/>
<path class="st0" d="M90.6,124.3c0.9-0.8,1.9-1.3,3.1-1.5c1.1-0.2,2.2-0.1,3.2,0.3c1,0.4,1.9,0.9,2.6,1.7c1.3,1.4,1.9,3.2,1.8,5.1
	c0,1.8-0.8,3.5-2.2,4.7c-0.5,0.5-1.1,0.9-1.8,1.3c-0.4,0.2-0.8,0.5-1.2,0.8c-0.2,0.2-0.3,0.4-0.4,0.7c-0.1,0.2-0.2,0.4-0.3,0.6
	c-0.1,0.1-0.3,0.1-0.4,0.1c-0.2,0.1-0.4,0.1-0.4,0s-0.1-0.2-0.3-0.4l-0.7-1.1c-0.4-0.5-0.7-1-1.1-1.4l-8.1-9c-0.4-0.5-0.9-1-1.5-1.4
	c-0.3-0.2-0.8,0.1-1.5,0.7l-0.2,0.2c-0.1,0.1-0.2,0-0.4-0.2s-0.3-0.4-0.2-0.5c0.4-0.5,0.8-0.9,1.2-1.3s0.6-0.8,0.8-1.1
	c0.2-0.3,0.4-0.6,0.5-0.9c0.1-0.2,0.3-0.5,0.4-0.8l0,0c0.1,0,0.2,0,0.3,0c0.1,0,0.2,0.1,0.3,0.1c0.4,0.8,1,1.6,1.6,2.3l3.2,3.6l0,0
	l0.1,0.1l0.1,0.1c0,0,0.1,0,0.1,0c0,0,0-0.1,0.1-0.1c0.1-0.4,0.3-0.9,0.5-1.2C89.9,125.1,90.2,124.7,90.6,124.3z M91.2,125.9
	c-0.5,0.4-0.7,0.9-0.8,1.5c-0.1,0.5,0.1,1,0.4,1.4l4.2,4.7c0.4,0.5,1,0.7,1.6,0.6c0.7-0.1,1.3-0.4,1.7-0.8c0.8-0.6,1.1-1.6,0.8-2.6
	c-0.3-1.1-0.9-2.2-1.7-3.1c-0.9-1.1-2.1-1.9-3.4-2.4C93.1,124.9,92,125.2,91.2,125.9z"/>
<path class="st0" d="M99.4,116.8c0.3-0.3,0.8-0.7,1.3-1.3c0.6-0.6,0.9-0.9,1.1-1.1c0.1,0.1,0.3,0.2,0.4,0.4c0.2,0.2,0.2,0.3,0.2,0.4
	c-0.2,0.2-0.4,0.5-0.6,0.8c-0.2,0.4-0.3,0.7-0.2,0.8l0.1,0.1c0.2,0.2,2.4,1.3,6.6,3.2c-0.1-0.4-0.5-1.4-1.1-3
	c-0.6-1.6-0.9-2.5-1-2.8c-0.1-0.3-0.3-0.6-0.5-0.8c-0.2-0.2-0.5-0.3-0.8-0.2c-0.5,0.1-0.9,0.3-1.3,0.7c-0.1,0.1-0.2,0-0.4-0.2
	c-0.1-0.1-0.2-0.3-0.2-0.5c0.2-0.2,0.6-0.5,1.2-0.9s1.1-0.8,1.4-1.1c0.3-0.3,0.7-0.6,1.1-1.1c0.4-0.4,0.7-0.8,0.9-0.9
	c0.2,0.1,0.3,0.1,0.4,0.3c0.2,0.2,0.3,0.4,0.2,0.4c-0.3,0.3-0.5,0.6-0.7,1c-0.2,0.4-0.3,0.9-0.2,1.3l4.7,13.4c1,3,0.9,5-0.4,6.2
	c-0.3,0.3-0.7,0.5-1.2,0.5c-0.8,0-1.4-0.7-1.3-1.5c0-0.1,0-0.1,0-0.2c1.5-1.4,2-2.9,1.4-4.5c-0.4-1.2-0.7-1.9-0.8-2l-10-4.7
	c-0.2-0.1-0.5-0.2-0.7-0.3c-0.4-0.1-0.8-0.1-1.1,0.1c-0.3,0.1-0.6,0.3-0.9,0.5c-0.1,0.1-0.2,0-0.4-0.2s-0.3-0.4-0.3-0.5l1.2-1
	C98.5,117.6,99,117.2,99.4,116.8z"/>
<path class="st0" d="M115.4,93.5c0.4-0.4,0.8-0.7,1.3-1c0.5-0.3,1.1-0.6,1.7-0.8c0.6-0.2,1.2-0.3,1.8-0.4c0.6,0,1.3,0.1,1.8,0.3
	c0.7,0.3,1.2,0.7,1.7,1.2c0.7,0.8,1.2,1.9,1.2,3c0.1,1.1-0.1,2.2-0.5,3.2c-0.1,0.2,0,0.2,0.1,0.3c1.9,0.7,3.9,1.2,5.9,1.6
	c1,0.2,2.1,0.2,3.1,0.1c0.8,0,1.6-0.3,2.2-0.8c0.2,0.1,0.3,0.1,0.4,0.3c0.1,0.1,0.2,0.3,0.3,0.5c-0.2,0.2-0.4,0.5-0.6,0.7
	c-0.7,0.6-1.5,1.2-2.3,1.6c-0.7,0.4-1.5,0.6-2.3,0.6c-0.7,0.1-1.3,0.1-2,0c-0.7-0.1-1.3-0.2-2-0.4l-1.6-0.4l-1.4-0.4
	c-0.3-0.1-0.7-0.2-1.1-0.2c-0.3-0.1-0.6-0.1-0.9-0.1c-0.2,0-0.4,0-0.6,0.1c-0.2,0.1-0.4,0.2-0.6,0.4c-0.2,0.1-0.2,0.4-0.1,0.6
	c0,0,0.1,0.1,0.1,0.1l2.8,3.1c0.5,0.7,1.2,1.2,1.9,1.7c0.2,0.1,0.6,0.1,1.1-0.2c0.4-0.2,0.8-0.4,1.1-0.7c0.1-0.1,0.2,0,0.4,0.3
	c0.1,0.1,0.2,0.3,0.3,0.4c-1.7,1.3-2.8,2.2-3.3,2.7c-0.5,0.5-0.9,0.9-1.4,1.2l-1.2,1.1l-0.4,0.4c-0.2-0.1-0.3-0.2-0.4-0.3
	c-0.2-0.2-0.3-0.4-0.2-0.4c0.3-0.3,0.5-0.6,0.7-0.9c0.3-0.4,0.4-0.7,0.3-0.9c-0.5-0.8-1-1.5-1.7-2.1l-7.5-8.4
	c-0.5-0.6-1.1-1.2-1.8-1.7c-0.1-0.1-0.5,0-1,0.2c-0.4,0.1-0.7,0.3-1,0.6c-0.1,0.1-0.2,0-0.4-0.2c-0.2-0.2-0.3-0.4-0.3-0.5
	c1.6-1.3,2.6-2.2,3-2.6c0.4-0.4,0.9-0.8,1.5-1.4C114.4,94.4,114.9,93.9,115.4,93.5z M116,94.9c-0.5,0.4-0.8,0.8-1.2,1.3
	c-0.1,0.2,0.5,1.1,1.8,2.5l2.3,2.6c0.2,0.3,0.6,0.5,1,0.3c0.4-0.2,0.8-0.4,1.2-0.8l0.6-0.5c0.6-0.5,0.9-1.3,0.8-2.1
	c-0.1-1-0.5-1.9-1.2-2.6C119.5,93.6,117.7,93.4,116,94.9L116,94.9z"/>
<path class="st0" d="M133.6,85.9c0.7-0.7,1.7-1.1,2.7-1.1c1.2,0.2,2.2,0.9,2.9,1.9l3.9,4.4c0.2,0.3,0.5,0.4,0.8,0.5
	c0.3,0,0.5-0.1,0.7-0.2c0.3-0.3,0.4-0.6,0.5-1c0.1,0,0.2,0,0.4,0.1c0.2,0.2,0.4,0.5,0.5,0.8c-0.1,0.5-0.2,0.9-0.4,1.3
	c-0.2,0.5-0.4,0.9-0.8,1.2c-0.4,0.3-0.8,0.5-1.3,0.5c-0.5,0.1-0.9,0-1.4-0.2c0,0,0,0.1,0,0.3S142,94.7,142,95
	c-0.1,0.3-0.2,0.6-0.3,0.9c-0.1,0.4-0.3,0.7-0.5,1c-0.2,0.3-0.5,0.6-0.8,0.9c-0.6,0.6-1.5,1-2.4,1c-0.9,0-1.7-0.4-2.2-1.1
	c-0.3-0.3-0.5-0.8-0.6-1.2c-0.1-0.4-0.1-0.9-0.1-1.3c0.1-0.5,0.2-1,0.4-1.4c0.2-0.5,0.4-0.9,0.6-1.3c0.2-0.4,0.5-0.8,0.8-1.3
	c0.3-0.5,0.6-0.9,0.7-1.1c0.1-0.2,0-0.4-0.1-0.5l-1.2-1.2c-0.4-0.5-0.9-0.8-1.4-0.9c-0.5-0.1-1,0.1-1.4,0.4
	c-0.4,0.3-0.7,0.8-0.7,1.3c0,0.6,0.3,1.1,0.7,1.5c0.3,0.3,0.4,0.6,0.2,1c-0.1,0.3-0.3,0.6-0.6,0.9c-0.4,0.5-1,0.6-1.6,0.5
	c-0.7-0.7-0.8-1.8-0.3-3.3C131.7,88.2,132.5,86.9,133.6,85.9z M140.2,95.3c0.4-0.3,0.6-0.8,0.8-1.2c0.1-0.4,0-0.8-0.2-1.1l-2-2.3
	c-0.1,0.1-0.2,0.4-0.5,0.8s-0.4,0.7-0.5,0.9c-0.1,0.3-0.2,0.6-0.3,0.9c-0.1,0.3-0.2,0.7-0.1,1c0.1,0.3,0.2,0.6,0.4,0.8
	c0.3,0.4,0.8,0.7,1.3,0.7C139.5,95.8,139.9,95.6,140.2,95.3z"/>
<path class="st0" d="M146.4,74.4c0.5-0.5,1.1-0.8,1.8-0.8c0.6-0.1,1.3,0,1.9,0.3c0-0.9,0.3-1.7,0.6-2.6c0.4-0.9,1-1.7,1.7-2.3
	c0.5-0.4,1-0.7,1.7-0.9c0.6-0.1,1.2,0,1.8,0.2c0.6,0.3,1.2,0.6,1.7,1c0.6,0.4,1.1,0.9,1.6,1.5l2.1,2.3c0.6,0.7,1.2,1.3,1.9,1.9
	c0.1,0.1,0.4,0,0.9-0.2c0.3-0.1,0.6-0.3,0.9-0.5c0,0,0.2,0,0.4,0.2c0.1,0.1,0.3,0.3,0.4,0.5c-0.1,0.1-0.5,0.4-1.2,1
	c-0.7,0.6-1.2,1-1.6,1.2c-0.4,0.3-0.8,0.8-1.5,1.4l-1.1,1.2c-0.2-0.1-0.3-0.2-0.4-0.4c-0.2-0.2-0.3-0.3-0.2-0.4
	c0.3-0.3,0.5-0.6,0.6-0.9c0.3-0.4,0.4-0.7,0.3-0.8c-0.3-0.6-0.8-1.2-1.2-1.7l-2-2.3c-1.9-2.1-3.6-2.6-4.9-1.4
	c-0.4,0.4-0.8,0.9-0.9,1.4c-0.1,0.4-0.1,0.8,0,1.2l0.1,0.2c0,0.1,0.1,0.1,0.2,0.2c0.5,0.4,0.9,0.9,1.3,1.3l2.1,2.3
	c0.6,0.7,1.2,1.2,1.9,1.8c0.1,0.1,0.4,0,0.9-0.2c0.3-0.1,0.6-0.3,0.9-0.5c0,0,0.2,0,0.4,0.2c0.1,0.1,0.3,0.3,0.4,0.5
	c-0.1,0.1-0.5,0.4-1.2,1s-1.2,1-1.6,1.3c-0.4,0.3-0.8,0.8-1.5,1.4l-1.1,1.1c-0.2-0.1-0.3-0.2-0.4-0.4c-0.2-0.2-0.3-0.3-0.2-0.4
	c0.3-0.3,0.5-0.6,0.6-0.9c0.3-0.4,0.4-0.7,0.3-0.8c-0.4-0.6-0.8-1.2-1.3-1.8l-1.9-2.1c-0.7-0.9-1.7-1.6-2.8-2
	c-0.8-0.2-1.6,0-2.2,0.6c-0.4,0.4-0.7,0.9-0.9,1.5c-0.2,0.5-0.1,1,0.2,1.3l3.4,3.8c0.6,0.7,1.3,1.3,2,1.8c0.1,0.1,0.4,0,0.9-0.2
	c0.3-0.1,0.6-0.3,0.9-0.5c0.1-0.1,0.2,0,0.4,0.2c0.1,0.1,0.3,0.3,0.4,0.5c-0.1,0.1-0.5,0.4-1.2,1c-0.7,0.6-1.2,1-1.6,1.3
	c-0.4,0.3-0.9,0.8-1.5,1.4s-1,1-1.1,1.1c-0.1,0-0.3-0.1-0.5-0.3c-0.2-0.2-0.3-0.4-0.2-0.4c0.3-0.3,0.5-0.6,0.6-0.9
	c0.3-0.4,0.4-0.7,0.3-0.9c-0.4-0.6-0.8-1.2-1.3-1.8l-3.2-3.6c-0.4-0.5-1-0.9-1.6-1.1c-0.3,0-0.5,0-0.8,0.1c-0.2,0.1-0.5,0.2-0.7,0.3
	c-0.2,0.1-0.2,0.2-0.3,0.1c-0.4-0.4-0.5-0.7-0.5-0.8c1.1-1.2,2.1-2.5,3-3.8c0,0,0-0.1,0-0.1l0.1-0.1c0.1-0.1,0.2-0.1,0.3,0
	c0.1,0,0.2,0.1,0.3,0.2c0.2,0.3,0.4,0.6,0.6,0.9c0.1,0.1,0.1,0.1,0.1,0.1c0-0.1,0-0.1,0.1-0.2c0.1-0.7,0.2-1.5,0.5-2.2
	C145.4,75.6,145.9,75,146.4,74.4z"/>
<path class="st0" d="M157.4,59.9c-0.5,0-0.9-0.2-1.3-0.6c-0.7-0.8-0.6-1.9,0.2-2.6c0,0,0,0,0,0c0.7-0.7,1.9-0.6,2.6,0.1c0,0,0,0,0,0
	c0.3,0.4,0.5,0.8,0.5,1.3C159.3,59.1,158.5,59.9,157.4,59.9C157.4,59.9,157.4,59.9,157.4,59.9L157.4,59.9z M168,67.1
	c0.6,0.7,1.3,1.3,2,1.8c0.1,0.1,0.4,0,0.9-0.2c0.3-0.1,0.6-0.3,0.9-0.5c0.1-0.1,0.2,0,0.4,0.2c0.1,0.1,0.3,0.3,0.4,0.5
	c-0.1,0.1-0.5,0.4-1.3,1c-0.7,0.6-1.3,1-1.6,1.3c-0.4,0.3-0.9,0.8-1.5,1.5c-0.6,0.6-1,1-1.1,1.1c-0.1,0-0.3-0.1-0.5-0.3
	c-0.2-0.2-0.3-0.4-0.2-0.4c0.3-0.3,0.5-0.6,0.6-0.9c0.3-0.4,0.4-0.7,0.3-0.9c-0.4-0.6-0.8-1.2-1.3-1.8l-3.2-3.6
	c-0.4-0.5-1-0.9-1.6-1.1c-0.3,0-0.6,0-0.8,0.1c-0.2,0.1-0.4,0.2-0.6,0.3c-0.2,0.1-0.2,0.2-0.3,0.1c-0.4-0.4-0.5-0.7-0.5-0.8
	c0.6-0.6,1.1-1.2,1.6-1.9c0.5-0.6,1-1.3,1.4-2l0.1-0.2c0.1-0.1,0.2-0.1,0.3,0c0.1,0,0.2,0.1,0.3,0.2c0.5,0.7,1,1.4,1.5,2.1L168,67.1
	z"/>
<path class="st0" d="M172.6,48l3.2,3.6c0,0,0.1,0.1,0.1,0.1h0.1l0,0l0.2-0.2c0.4-0.5,0.6-1.1,0.5-1.8c0-2.3,0-5-0.1-7.9
	c0-0.4-0.1-0.7-0.2-1c-0.1-0.1-0.4-0.1-0.8,0.1c-0.3,0.2-0.6,0.4-0.9,0.6c-0.1,0-0.2,0-0.3-0.2c-0.1-0.1-0.3-0.3-0.3-0.4
	c1.7-1.4,2.7-2.1,2.8-2.3c0.3-0.2,0.6-0.5,0.8-0.8l0.8-0.8l0.7-0.8c0.1,0.1,0.3,0.2,0.4,0.3c0.2,0.2,0.2,0.3,0.2,0.4
	c-0.8,0.8-1.3,1.8-1.4,2.9l0.1,8.4c0,0.3,0.2,0.5,0.6,0.6l10.7,1.5c0.6,0.1,1.2,0,1.7-0.2c0.4-0.2,0.8-0.4,1.2-0.7
	c0.1-0.1,0.2,0,0.5,0.3c0.1,0.1,0.2,0.2,0.2,0.4c-1.9,1.5-2.9,2.4-3.2,2.6c-0.5,0.4-1,0.9-1.6,1.6l-1.3,1.3c-0.1,0-0.3-0.1-0.5-0.3
	s-0.3-0.3-0.2-0.4c0.2-0.2,0.4-0.4,0.5-0.7c0.2-0.3,0.2-0.5,0.1-0.7c-0.5-0.2-1-0.3-1.4-0.4c-0.9-0.2-2.1-0.4-3.6-0.6
	c-1.5-0.2-2.9-0.4-4.2-0.5c-0.1,0-0.3,0.1-0.6,0.3c-0.3,0.2-0.3,0.4-0.1,0.6l2.9,3.3c0.6,0.7,1.2,1.3,1.9,1.8c0.1,0.1,0.4,0,0.9-0.2
	c0.3-0.1,0.6-0.3,0.9-0.5c0.1-0.1,0.2,0.1,0.5,0.3c0.1,0.1,0.2,0.2,0.2,0.3l-2.9,2.4c-0.3,0.3-0.6,0.6-0.9,0.8l-1,1l-0.9,0.9
	c-0.1,0-0.3-0.1-0.4-0.2c-0.2-0.3-0.4-0.5-0.3-0.5c0.3-0.3,0.5-0.6,0.7-0.9c0.3-0.4,0.4-0.7,0.3-0.9c-0.4-0.7-0.9-1.4-1.5-2
	l-7.6-8.5c-0.5-0.7-1.1-1.2-1.8-1.7c-0.3,0-0.7,0-0.9,0.2c-0.3,0.1-0.7,0.3-0.9,0.5c-0.1,0.1-0.2,0-0.4-0.2
	c-0.2-0.2-0.3-0.4-0.3-0.4l1.3-1c0.8-0.6,1.4-1.1,1.8-1.5c0.1-0.1,1-1,2.7-2.7c0.1,0.1,0.3,0.2,0.4,0.3c0.2,0.2,0.3,0.4,0.2,0.5
	c-0.2,0.3-0.5,0.6-0.6,0.9c-0.3,0.5-0.4,0.8-0.4,0.9C171.5,46.7,172,47.4,172.6,48z"/>
<path class="st0" d="M190.8,34.8c0.7-0.7,1.7-1.1,2.7-1.1c1.2,0.2,2.2,0.9,2.9,1.9l3.9,4.4c0.2,0.3,0.5,0.4,0.8,0.5
	c0.3,0,0.5-0.1,0.7-0.2c0.3-0.3,0.4-0.6,0.5-1c0.1,0,0.2,0,0.4,0.1c0.2,0.2,0.4,0.5,0.5,0.8c-0.1,0.5-0.2,0.9-0.4,1.3
	c-0.2,0.5-0.4,0.9-0.8,1.2c-0.4,0.3-0.8,0.5-1.3,0.5c-0.5,0.1-0.9,0-1.4-0.2c0,0,0,0.1,0,0.3s-0.1,0.4-0.1,0.7
	c-0.1,0.3-0.2,0.6-0.3,0.9c-0.1,0.4-0.3,0.7-0.5,1c-0.2,0.3-0.5,0.6-0.8,0.9c-0.6,0.6-1.5,1-2.4,1c-0.9,0-1.7-0.4-2.2-1
	c-0.3-0.3-0.5-0.8-0.6-1.2c-0.1-0.4-0.1-0.9-0.1-1.3c0.1-0.5,0.2-1,0.4-1.4c0.2-0.5,0.4-0.9,0.6-1.3c0.2-0.4,0.5-0.8,0.8-1.3
	c0.3-0.5,0.6-0.9,0.7-1.1c0.1-0.2,0-0.4-0.1-0.5l-1.1-1.2c-0.4-0.5-0.9-0.8-1.4-0.9c-0.5-0.1-1,0.1-1.4,0.4
	c-0.4,0.3-0.7,0.8-0.7,1.3c0,0.6,0.3,1.1,0.7,1.5c0.3,0.3,0.4,0.6,0.2,1c-0.1,0.3-0.3,0.6-0.6,0.9c-0.4,0.5-1,0.6-1.6,0.5
	c-0.7-0.7-0.8-1.8-0.3-3.3C188.9,37.1,189.7,35.8,190.8,34.8z M197.4,44.2c0.4-0.3,0.6-0.8,0.8-1.2c0.1-0.4,0-0.8-0.2-1.1l-2-2.3
	c-0.1,0.1-0.2,0.4-0.5,0.8s-0.4,0.7-0.5,1c-0.1,0.3-0.2,0.6-0.3,0.9c-0.1,0.3-0.1,0.7-0.1,1c0.1,0.3,0.2,0.6,0.4,0.8
	c0.3,0.4,0.8,0.7,1.3,0.7C196.7,44.7,197.1,44.5,197.4,44.2L197.4,44.2z"/>
<path class="st0" d="M202.9,24c0.6-0.7,1.6-1,2.5-0.9c1.1,1.3,1.3,2.2,0.6,2.8c-0.4,0.3-0.8,0.4-1.3,0.3c-0.5,0-1,0.1-1.4,0.4
	c-0.5,0.4-0.6,1.1-0.4,1.7c0.1,0.7,0.5,1.3,0.9,1.8l2.5,2.8c0.6,0.7,1.2,1.3,1.9,1.9c0.1,0.1,0.4,0,0.9-0.2c0.3-0.1,0.6-0.3,0.9-0.5
	c0,0,0.2,0,0.4,0.2c0.1,0.1,0.3,0.3,0.4,0.4c-0.1,0.1-0.6,0.4-1.2,1s-1.2,1-1.6,1.3c-0.4,0.3-0.8,0.8-1.5,1.4s-1,1-1.1,1.2
	c-0.1,0-0.3-0.1-0.5-0.3s-0.3-0.4-0.2-0.4c0.3-0.3,0.5-0.6,0.7-0.9c0.3-0.4,0.4-0.7,0.3-0.8c-0.4-0.6-0.8-1.2-1.3-1.8l-3.2-3.6
	c-0.4-0.5-1-0.9-1.6-1.1c-0.3,0-0.5,0-0.8,0.1c-0.2,0.1-0.4,0.2-0.6,0.3c-0.2,0.1-0.2,0.2-0.3,0.1c-0.4-0.4-0.5-0.7-0.5-0.8
	c1.1-1.2,2.1-2.5,3-3.9l0.1-0.2c0.1,0,0.2,0,0.3,0c0.1,0,0.2,0.1,0.3,0.2l0.2,0.3l0.3,0.5c0.1,0.1,0.1,0.2,0.2,0.3
	c-0.1-0.7,0-1.3,0.1-2C202,25.1,202.4,24.5,202.9,24z"/>
<path class="st0" d="M205.4,17c-0.5,0-0.9-0.2-1.3-0.6c-0.3-0.4-0.5-0.8-0.5-1.3c0-1,0.9-1.8,1.9-1.8c0.5,0,1,0.2,1.3,0.6
	c0.3,0.4,0.5,0.8,0.5,1.3C207.3,16.3,206.5,17.1,205.4,17C205.4,17,205.4,17,205.4,17L205.4,17z M216,24.2c0.6,0.7,1.3,1.3,2,1.8
	c0.1,0.1,0.4,0,0.9-0.2c0.3-0.1,0.6-0.3,0.9-0.5c0.1,0,0.2,0,0.4,0.2c0.1,0.1,0.3,0.3,0.4,0.5c-0.1,0.1-0.5,0.4-1.3,1
	c-0.7,0.6-1.3,1-1.6,1.3c-0.4,0.3-0.9,0.8-1.5,1.5s-1,1-1.1,1.1c-0.1,0-0.3-0.1-0.5-0.3c-0.2-0.2-0.3-0.4-0.2-0.4
	c0.3-0.3,0.5-0.6,0.6-0.9c0.3-0.4,0.4-0.7,0.3-0.9c-0.4-0.6-0.8-1.2-1.3-1.8l-3.2-3.6c-0.4-0.5-1-0.9-1.6-1.1c-0.3,0-0.6,0-0.8,0.1
	c-0.2,0.1-0.4,0.2-0.6,0.3c-0.2,0.1-0.2,0.2-0.3,0.1c-0.4-0.4-0.5-0.7-0.5-0.8c0.6-0.6,1.1-1.2,1.6-1.9c0.5-0.6,1-1.3,1.4-2l0.1-0.2
	c0.1-0.1,0.2-0.1,0.3,0c0.1,0,0.2,0.1,0.3,0.2c0.5,0.7,1,1.4,1.5,2.1L216,24.2z"/>
<path class="st0" d="M220.2,8.5c0.5-0.5,1.1-0.8,1.8-0.8c0.6-0.1,1.3,0,1.9,0.3c0-0.9,0.3-1.7,0.6-2.5c0.4-0.9,1-1.7,1.7-2.3
	c0.5-0.5,1.1-0.8,1.7-0.9c0.6-0.1,1.2,0,1.8,0.2c0.6,0.3,1.2,0.6,1.7,1c0.6,0.4,1.1,0.9,1.5,1.5l2.1,2.3c0.6,0.7,1.2,1.3,1.9,1.9
	c0.1,0.1,0.4,0,0.9-0.2c0.3-0.1,0.6-0.3,0.9-0.5c0,0,0.2,0,0.4,0.2c0.1,0.1,0.3,0.3,0.4,0.5c-0.1,0.1-0.5,0.4-1.2,1
	c-0.7,0.6-1.2,1-1.6,1.2c-0.4,0.3-0.8,0.8-1.5,1.4l-1.1,1.1c-0.2-0.1-0.3-0.2-0.4-0.4c-0.2-0.2-0.3-0.4-0.2-0.4
	c0.3-0.3,0.5-0.6,0.6-0.9c0.3-0.4,0.3-0.7,0.3-0.8c-0.3-0.6-0.8-1.2-1.2-1.7l-2-2.3c-1.9-2.2-3.6-2.6-4.9-1.4
	c-0.4,0.4-0.8,0.9-0.9,1.4c-0.1,0.4-0.1,0.8,0,1.2l0.1,0.2c0,0.1,0.1,0.1,0.2,0.2c0.5,0.4,0.9,0.9,1.4,1.3l2.1,2.3
	c0.6,0.7,1.2,1.2,1.9,1.8c0.1,0.1,0.4,0,0.9-0.2c0.3-0.1,0.6-0.3,0.9-0.5c0,0,0.2,0,0.4,0.2c0.1,0.1,0.3,0.3,0.4,0.5
	c-0.1,0.1-0.5,0.4-1.2,1c-0.7,0.6-1.2,1-1.6,1.3c-0.4,0.3-0.8,0.8-1.5,1.4c-0.6,0.6-1,1-1.2,1.1c-0.2-0.1-0.3-0.2-0.4-0.4
	c-0.2-0.2-0.3-0.3-0.2-0.4c0.3-0.3,0.5-0.6,0.6-0.9c0.3-0.4,0.4-0.7,0.3-0.8c-0.4-0.6-0.8-1.2-1.3-1.8l-1.9-2.1
	c-0.7-0.9-1.7-1.6-2.8-2.1c-0.8-0.2-1.6,0-2.2,0.6c-0.4,0.4-0.7,0.9-0.9,1.5c-0.2,0.5-0.1,1,0.2,1.3l3.4,3.8c0.6,0.7,1.3,1.3,2,1.8
	c0.1,0.1,0.4,0,0.9-0.2c0.3-0.1,0.6-0.3,0.9-0.5c0.1,0,0.2,0,0.4,0.2c0.1,0.1,0.3,0.3,0.4,0.5l-1.2,1c-0.7,0.5-1.2,1-1.6,1.3
	s-0.9,0.8-1.6,1.4c-0.6,0.7-1,1-1.1,1.1c-0.1,0-0.3-0.1-0.5-0.3c-0.2-0.2-0.3-0.4-0.2-0.4c0.3-0.3,0.5-0.6,0.6-0.9
	c0.3-0.4,0.4-0.7,0.3-0.9c-0.4-0.6-0.8-1.2-1.3-1.8l-3.2-3.6c-0.4-0.5-1-0.9-1.6-1.1c-0.3,0-0.5,0-0.8,0.1c-0.2,0.1-0.5,0.2-0.7,0.4
	c-0.2,0.1-0.3,0.2-0.3,0.1c-0.4-0.4-0.5-0.7-0.5-0.8c1.1-1.2,2.1-2.5,3-3.8c0,0,0-0.1,0-0.1l0.1-0.1c0.1-0.1,0.2-0.1,0.3,0
	c0.1,0,0.2,0.1,0.3,0.2c0.2,0.3,0.4,0.6,0.6,0.9c0.1,0.1,0.1,0.1,0.1,0.1c0-0.1,0-0.1,0.1-0.2c0.1-0.7,0.2-1.5,0.5-2.2
	C219.2,9.7,219.6,9,220.2,8.5z"/>
<path class="st0" d="M243.8,3.2c0.4,0.4,0.6,0.9,0.6,1.4c0,0.5-0.2,1-0.6,1.4c-0.4,0.4-0.9,0.6-1.4,0.6c-0.5,0-1.1-0.2-1.4-0.6
	c-0.4-0.4-0.6-0.9-0.6-1.4c0-0.5,0.2-1,0.6-1.4c0.4-0.4,0.9-0.6,1.4-0.6C242.9,2.6,243.5,2.8,243.8,3.2z"/>
</svg>
