<svg id="Layer_1" data-name="Layer 1" xmlns="http://www.w3.org/2000/svg" viewBox="0 0 490.45 346.27"><defs><style>.cls-1{fill:#fff;stroke:#1928eb;stroke-miterlimit:10;stroke-width:1.67px;}</style></defs><title>title</title><path class="cls-1" d="M122.12,127.27Q98.64,113,91.24,85.84t5.59-51.46q13-24.28,38.61-31.26t49.23,7.35q23.6,14.32,31,41.5T210,103.35q-13.11,24.21-38.73,31.19T122.12,127.27Zm13-113.84Q118.42,18,113.74,35.61t1.18,39.19a99.08,99.08,0,0,0,11.54,26.68,56,56,0,0,0,19.7,19.14A32.19,32.19,0,0,0,171.68,124q16.5-4.49,21.33-22.38t-1-39.24a101.91,101.91,0,0,0-11.52-27A53.83,53.83,0,0,0,161,16.5,33,33,0,0,0,135.12,13.43Z"/><path class="cls-1" d="M283.6,9.7q25-6.82,35.88,33l5,18.44q3.22,11.84,6.11,17.1.76,1.26,6.1,1.36a30.85,30.85,0,0,0,7.09-.37c.39-.11.87.77,1.45,2.63a11.42,11.42,0,0,1,.74,3.86q-1.22.12-10.4,2T321.94,90.8q-4.66,1.27-12.75,4.1t-9.79,3.5q-1-.57-1.78-3.48t0-3.12a24,24,0,0,0,6.11-3.23q4-2.65,4-4.11a57.79,57.79,0,0,0-2.3-14.59l-5-18.44Q296,35.31,289.88,30.09t-15.62-2.63a18.62,18.62,0,0,0-9.95,6.36q-3.73,4.67-2.68,8.55l9.09,33.39q3.22,11.84,6.11,17.1.76,1.26,5.91,1.41a29,29,0,0,0,6.71-.26q.77-.21,1.64,2.58a11.42,11.42,0,0,1,.74,3.86q-1.61.23-10.4,2t-13.26,3q-4.66,1.27-13.33,4.26t-10.17,3.6q-1-.57-1.78-3.48t0-3.12a28.07,28.07,0,0,0,6.69-3.38q4.36-2.75,4.38-4.22a65.8,65.8,0,0,0-2.5-14.54l-8.61-31.64q-2.48-9.12-6.49-11.58a9.7,9.7,0,0,0-5.16-1.72,23,23,0,0,0-5,.1c-1.27.21-1.93.18-2-.08q-1.53-5.63-.61-6.09,8.72-3.2,29.67-14.33a1.29,1.29,0,0,1,.41-.42,1.92,1.92,0,0,1,.56-.26l.49-.13c.51-.14,1.09.19,1.73,1a6.11,6.11,0,0,1,1.16,2,68.56,68.56,0,0,0,1.13,7.2c.14.52.29.83.46.92s.4-.32.81-.85a44.58,44.58,0,0,1,9.72-11.4A35.22,35.22,0,0,1,283.6,9.7Z"/><path class="cls-1" d="M13.57,173.43q2.32-14.91,16.43-23.2a44,44,0,0,1,29.82-5.85,70.57,70.57,0,0,1,9.65,2.11q4.08,1.25,11.24,4.29t9.85,4.08a179.55,179.55,0,0,1-2.38,31,2.19,2.19,0,0,1-2.66,1.42q-5.37-.83-5.49-2.69.23-9.33-5.76-19.22T57.75,153.84q-9.15-1.42-14.82,3t-7,13.16a22.71,22.71,0,0,0-.19,5.77,14.17,14.17,0,0,0,2,5.7q1.69,2.91,2.71,4.8a23.88,23.88,0,0,0,4.3,5q3.27,3.16,4.41,4.35t5.36,4.8a61.2,61.2,0,0,0,5.16,4.16,74,74,0,0,0,6,5.31q5,4.13,6.91,6T78.1,222a29,29,0,0,1,5,7.7,41.34,41.34,0,0,1,2.23,8.59,33.9,33.9,0,0,1,0,10.68q-2.47,15.91-16.9,24.25a46.53,46.53,0,0,1-31.33,5.71Q25.15,277,1.36,267.63a175.78,175.78,0,0,1-.48-18.5,136.26,136.26,0,0,1,.72-14.45Q2,233.13,5,233.59q5.17.8,5.52,2.49a39,39,0,0,0,1.56,8.29,58.46,58.46,0,0,0,4,10,26.48,26.48,0,0,0,8.11,9.41A28.29,28.29,0,0,0,37,268.9q9.34,1.45,16.37-3.15T62.13,250a17.51,17.51,0,0,0-.27-6.76,23.29,23.29,0,0,0-2.15-5.83,29.44,29.44,0,0,0-4.23-5.54q-2.88-3.09-4.85-4.83t-5.86-4.88q-3.89-3.15-5.52-4.42a13.83,13.83,0,0,0-1.94-1.93q-5.21-4.48-7.88-6.93a97.15,97.15,0,0,1-6.74-7.06,39.74,39.74,0,0,1-5.93-8.35,38,38,0,0,1-3-9A30.28,30.28,0,0,1,13.57,173.43Z"/><path class="cls-1" d="M145.87,203.78q12.32,1.92,17.48,9.34t2.71,23.12L160,275.41a9.18,9.18,0,0,0,.85,6.34,6,6,0,0,0,4.45,2.83q3,.46,7.16-1.53c.75.39,1,1.18.85,2.37a11.94,11.94,0,0,1-2.12,5.78,49.8,49.8,0,0,1-8.72,3.73,21,21,0,0,1-9.94,1.1,14.69,14.69,0,0,1-8.42-4.77,16.51,16.51,0,0,1-4.62-8.25q-.23.17-1.69,1.06t-4,2.13a59.3,59.3,0,0,1-5.66,2.38,32.12,32.12,0,0,1-7.18,1.63,29.23,29.23,0,0,1-8-.13q-9.94-1.55-15.35-8t-3.93-16a18.55,18.55,0,0,1,3.68-8.59,24,24,0,0,1,6.53-6,41.21,41.21,0,0,1,9.37-3.94,82.72,82.72,0,0,1,9.85-2.44q4.08-.69,10.42-1.54t8.85-1.27a3.16,3.16,0,0,0,2.28-2.9l1.7-10.93q1.08-7-1.48-11.43a10.51,10.51,0,0,0-7.93-5.31q-6-.93-9.92,2.22t-5,9.91a6.52,6.52,0,0,1-3.89,5.4,12.5,12.5,0,0,1-7.05.84q-7.36-1.14-9.6-6.38,1.48-9.54,15.8-15.87A50.45,50.45,0,0,1,145.87,203.78Zm-20.82,74.94a15.6,15.6,0,0,0,9.68-1.35q4.31-2.18,4.87-5.76l3.15-20.28q-1.49.38-6.17,1.08t-7.23,1.32a55.07,55.07,0,0,0-6,1.92,12.14,12.14,0,0,0-5.35,3.65,11.09,11.09,0,0,0-2.36,5.33q-1,6.36,1.73,9.84A11.57,11.57,0,0,0,125.05,278.73Z"/><path class="cls-1" d="M219.36,275.89Q217.44,288.22,218,294q.18,1.45,4.39,3.84a22,22,0,0,0,5.8,2.63q.6.09.26,2.89a10.93,10.93,0,0,1-.89,3.73l-7.38-1.66q-4.63-1-8.37-1.81t-7.13-1.31q-3.78-.59-7.58-1t-8.43-.8l-7.63-.68q-.67-.92-.22-3.8t1.24-2.76a21.52,21.52,0,0,0,6.92-.65q4.73-1,5.35-2.32a66.71,66.71,0,0,0,3.88-14.46l12.87-82.7a70.14,70.14,0,0,0,.91-13.7q-.5-3.33-9.45-4.73l-2-.31q-1.19-.19-.82-2.57.49-3.18,1.69-3,6.25.36,12,.23t9.55-.55q3.83-.42,6.66-.9t4.51-.83l1.48-.38.4.06q.79.12,1.5,1.46a6.21,6.21,0,0,1,.78,2.16A63.59,63.59,0,0,0,233,188.42Z"/><path class="cls-1" d="M317.63,230.5a21.74,21.74,0,0,1,12.32,5.89,23.51,23.51,0,0,1,6.39,11.28A47.43,47.43,0,0,1,352.39,240a45.17,45.17,0,0,1,19.31-1.07A22.83,22.83,0,0,1,383.43,244,22.2,22.2,0,0,1,390,254.08a47.32,47.32,0,0,1,2.26,13,76.86,76.86,0,0,1-1,14.61l-3.25,20.87q-1.89,12.13-1.39,18.11.18,1.45,4.92,3.72a29.56,29.56,0,0,0,6.53,2.54q.6.09.25,3a11.41,11.41,0,0,1-.9,3.83q-1.36-.42-10.31-2.42t-13.52-2.71q-4.77-.74-13.71-1.52t-10.76-.86q-.47-.89,0-3.87t1.06-2.89a27,27,0,0,0,7.39-.38q5-.75,5.62-2.08a62.62,62.62,0,0,0,3.56-13.7L369.93,283q4.48-28.82-14-31.7a18.33,18.33,0,0,0-11.43,1.48q-4.87,2.5-6.13,5.36-.09.6-.35,1.57a3.9,3.9,0,0,0-.15,1.61,98.44,98.44,0,0,1-1.32,12.42l-3.28,21.07q-1.76,11.33-1.27,17.31.18,1.45,4.92,3.72a29.58,29.58,0,0,0,6.53,2.54c.4.06.48,1.06.25,3a11.39,11.39,0,0,1-.9,3.83q-1.36-.42-10.31-2.42T319,320.09q-4.77-.74-13.71-1.52t-10.76-.86q-.47-.89,0-3.87t1.06-2.89a27,27,0,0,0,7.39-.38q5-.75,5.62-2.08a65.67,65.67,0,0,0,3.65-14.3l3-19.08q2.41-15.51-1.08-23.18t-12.43-9.06a19.26,19.26,0,0,0-11.46,1.68q-5.5,2.61-6.14,6.78l-5.32,34.19q-1.89,12.13-1.19,18.14.18,1.45,4.72,3.69a27.3,27.3,0,0,0,6.33,2.51q.79.12.45,3a11.38,11.38,0,0,1-.9,3.83q-1.56-.45-10.31-2.42t-13.33-2.68q-5-.77-14-1.57t-10.66-.84q-.67-.92-.21-3.9t1.26-2.86a29.17,29.17,0,0,0,7.39-.38q5.2-.72,5.82-2a65.79,65.79,0,0,0,3.65-14.3l5-32.4q1.45-9.34-1.2-13.22a9.71,9.71,0,0,0-4-3.68,22.74,22.74,0,0,0-4.69-2q-2-.51-1.9-.91.9-5.76,2.12-5.78,9.27.63,32.73-1a1.28,1.28,0,0,1,.64-.21,4.26,4.26,0,0,1,1,.06c.66.1,1.12.65,1.37,1.64a3.72,3.72,0,0,1,.06,2.25,68.72,68.72,0,0,0-1.91,7c-.08.53,0,.88.24,1.06a3,3,0,0,0,1.09-.44,44.57,44.57,0,0,1,13.52-6.45A35.22,35.22,0,0,1,317.63,230.5Z"/><path class="cls-1" d="M462.15,253q12.32,1.92,17.48,9.34t2.71,23.12l-6.09,39.16a9.18,9.18,0,0,0,.85,6.34,6,6,0,0,0,4.45,2.83q3,.46,7.16-1.53c.75.39,1,1.18.85,2.37a11.94,11.94,0,0,1-2.12,5.78,49.8,49.8,0,0,1-8.72,3.73,21,21,0,0,1-9.94,1.1,14.69,14.69,0,0,1-8.42-4.77,16.51,16.51,0,0,1-4.62-8.25q-.23.17-1.69,1.06t-4,2.13a59.21,59.21,0,0,1-5.66,2.38,32.14,32.14,0,0,1-7.18,1.63,29.23,29.23,0,0,1-8-.13q-9.94-1.55-15.35-8t-3.93-16a18.55,18.55,0,0,1,3.68-8.59,24,24,0,0,1,6.53-6,41.21,41.21,0,0,1,9.37-3.94,82.73,82.73,0,0,1,9.85-2.44q4.08-.69,10.42-1.53t8.85-1.27a3.16,3.16,0,0,0,2.28-2.9l1.7-10.93q1.08-7-1.48-11.43a10.51,10.51,0,0,0-7.93-5.31q-6-.93-9.92,2.22t-5,9.91a6.52,6.52,0,0,1-3.89,5.4,12.5,12.5,0,0,1-7.05.84q-7.36-1.14-9.6-6.38,1.48-9.54,15.8-15.87A50.45,50.45,0,0,1,462.15,253Zm-20.82,74.94a15.6,15.6,0,0,0,9.68-1.35q4.31-2.18,4.87-5.76L459,300.55q-1.49.38-6.17,1.08t-7.23,1.32a55,55,0,0,0-6,1.92,12.14,12.14,0,0,0-5.35,3.65,11.09,11.09,0,0,0-2.36,5.33q-1,6.36,1.73,9.84A11.57,11.57,0,0,0,441.33,327.93Z"/></svg>