<svg id="Layer_1" data-name="Layer 1" xmlns="http://www.w3.org/2000/svg" viewBox="0 0 705.87 215.03"><defs><style>.cls-1{fill:#1928eb;}</style></defs><title>part-1</title><path class="cls-1" d="M5.64,95.11q.42,0,4.67-.61a6.94,6.94,0,0,1,.12.73q.06.5-.09.55a3.72,3.72,0,0,0-.62.11,2.16,2.16,0,0,0-.77.41.9.9,0,0,0-.38.83,4.88,4.88,0,0,0,.86,2l8.79,14.4c.09.12.19.15.3.07a.61.61,0,0,0,.23-.27l2.39-5.73-4.82-8a16.41,16.41,0,0,0-2.24-3.14A2.75,2.75,0,0,0,13,95.85a3.36,3.36,0,0,0-1.24-.17c-.1,0-.17-.21-.21-.65a1,1,0,0,1,.07-.63l5.14-.18,4.56-.6a2.91,2.91,0,0,1,.16.73q.06.5-.05.55a3.47,3.47,0,0,0-.71.13,2,2,0,0,0-.73.43.91.91,0,0,0-.33.79,5.41,5.41,0,0,0,.86,2l2.75,4.66L25.18,98a5.39,5.39,0,0,0,.53-2.19q-.06-.7-1-.91A5.76,5.76,0,0,0,23,94.74c-.1,0-.17-.17-.2-.53a1.35,1.35,0,0,1,.06-.71q3.43,0,4.28-.11t1.61-.17L30.28,93l1.31-.2a2.42,2.42,0,0,1,.13.71c0,.32,0,.5-.07.53a4.63,4.63,0,0,0-1.39.46,3.14,3.14,0,0,0-1.27.92,19.39,19.39,0,0,0-1.92,3.82l-2.37,6,4.37,7.38q.26.37.49-.23.63-1.88,3-8.16t2.61-6.92a5.9,5.9,0,0,0,.52-2.23q-.06-.7-1-.93a5.12,5.12,0,0,0-1.58-.19c-.1,0-.18-.17-.22-.53a1,1,0,0,1,.08-.71q3.43,0,4.3-.11t1.57-.16l1.46-.21,1.31-.2a3,3,0,0,1,.14.77q0,.47-.12.48a4.18,4.18,0,0,0-1.31.44,3.69,3.69,0,0,0-1.24.86,17.2,17.2,0,0,0-2,3.86l-7.38,19.51a2.61,2.61,0,0,1-.64,1,1.25,1.25,0,0,1-.69.37.53.53,0,0,1-.4-.12L22.55,110l-3.75,8.8a2.81,2.81,0,0,1-.64,1,1,1,0,0,1-.66.34.53.53,0,0,1-.4-.12L5.21,100.45a21,21,0,0,0-2.29-3.21,2.16,2.16,0,0,0-1.12-.54,4.43,4.43,0,0,0-1.24-.13c-.1,0-.17-.19-.2-.61a1.11,1.11,0,0,1,.06-.67Z"/><path class="cls-1" d="M56.74,99.38q5-.4,5.57,7.24l.32,4a14.22,14.22,0,0,0,.59,3.46q.06.27,1.07.48a5.87,5.87,0,0,0,1.36.18c.08,0,.14.18.18.55a4.06,4.06,0,0,1,0,.76q-.28,0-2.09,0t-2.67.1q-1,.08-2.61.32l-2,.32a1.47,1.47,0,0,1-.17-.73q0-.58.07-.59a4.65,4.65,0,0,0,1.31-.4c.56-.24.88-.45.94-.64a14.75,14.75,0,0,0,0-2.85l-.3-3.8q-.26-3.22-1.23-4.37a3.18,3.18,0,0,0-2.87-1,3.72,3.72,0,0,0-2.08.83,1.84,1.84,0,0,0-.85,1.55l.53,6.67a14.26,14.26,0,0,0,.59,3.46c.07.18.42.34,1.07.48a5.43,5.43,0,0,0,1.32.19c.08,0,.14.18.18.55a2.22,2.22,0,0,1,0,.76q-.31,0-2,0t-2.63.09q-.93.07-2.68.33t-2.06.32a1.14,1.14,0,0,1-.21-.72q0-.58.11-.59a5.39,5.39,0,0,0,1.39-.4c.62-.24.95-.46,1-.64a12.51,12.51,0,0,0,0-2.81L46.63,96.36a15.45,15.45,0,0,0-.4-2.62q-.24-.6-2.07-.46l-.35,0c-.16,0-.25-.19-.28-.6s0-.63.18-.64q1.19-.21,2.26-.49c.71-.19,1.3-.36,1.77-.53s.87-.33,1.21-.49L50,90.09h.08a.42.42,0,0,1,.33.19,1.11,1.11,0,0,1,.23.39,12.51,12.51,0,0,0-.18,3.68l.63,7.83c0,.15.07.23.17.22s.07,0,.15-.13a7.4,7.4,0,0,1,2.25-1.88A7.16,7.16,0,0,1,56.74,99.38Z"/><path class="cls-1" d="M75.63,97.87a8.58,8.58,0,0,1,6.43,2,8.34,8.34,0,0,1,3.07,5.94,8.81,8.81,0,0,1-17.56,1.4,8.38,8.38,0,0,1,2-6.37A8.52,8.52,0,0,1,75.63,97.87Zm-.36,1.86a3.13,3.13,0,0,0-2.69,2,8.36,8.36,0,0,0-.67,4.29,11.34,11.34,0,0,0,1.7,5.37,3.88,3.88,0,0,0,3.69,2,3.17,3.17,0,0,0,2.71-2,8.28,8.28,0,0,0,.69-4.27,13.32,13.32,0,0,0-.8-3.7A6.88,6.88,0,0,0,78,100.68,3.6,3.6,0,0,0,75.27,99.73Z"/><path class="cls-1" d="M108.1,95.28q5-.4,5.57,7.24l.32,4a14.25,14.25,0,0,0,.59,3.46q.06.27,1.07.48a5.88,5.88,0,0,0,1.36.18c.08,0,.14.18.18.55a4.17,4.17,0,0,1,0,.76q-.28,0-2.09,0t-2.67.1q-1,.08-2.61.32l-2,.32a1.46,1.46,0,0,1-.17-.73q0-.58.07-.59a4.64,4.64,0,0,0,1.31-.4q.85-.36.94-.64a14.76,14.76,0,0,0,0-2.85l-.3-3.8q-.26-3.22-1.23-4.37a3.18,3.18,0,0,0-2.87-1,3.72,3.72,0,0,0-2.08.83,1.84,1.84,0,0,0-.85,1.55l.53,6.67a14.26,14.26,0,0,0,.59,3.46c.07.18.42.34,1.07.48a5.42,5.42,0,0,0,1.32.19c.08,0,.14.18.18.55a2.2,2.2,0,0,1,0,.76q-.31,0-2,0t-2.63.09q-.93.07-2.68.33t-2.06.32a1.14,1.14,0,0,1-.21-.72c0-.39,0-.58.11-.59a5.36,5.36,0,0,0,1.39-.4q.93-.36,1-.64a12.51,12.51,0,0,0,0-2.81L98,92.27a15.35,15.35,0,0,0-.4-2.62q-.24-.6-2.07-.46l-.35,0c-.16,0-.25-.19-.28-.6s0-.63.18-.64q1.19-.21,2.26-.49t1.77-.53c.47-.17.87-.33,1.21-.49l1.07-.48h.08a.42.42,0,0,1,.33.19,1.08,1.08,0,0,1,.23.39,12.55,12.55,0,0,0-.17,3.68l.63,7.83c0,.16.07.23.17.22s.07,0,.15-.13A7.4,7.4,0,0,1,105,96.29,7.16,7.16,0,0,1,108.1,95.28Z"/><path class="cls-1" d="M126.37,93.82a4.78,4.78,0,0,1,3.71,1q1.3,1.16,1.55,4.23l.61,7.64a1.77,1.77,0,0,0,.44,1.15,1.17,1.17,0,0,0,1,.33,2.42,2.42,0,0,0,1.28-.61c.16,0,.25.17.27.41a2.31,2.31,0,0,1-.14,1.18,9.56,9.56,0,0,1-1.47,1.09,4.07,4.07,0,0,1-1.82.65,2.84,2.84,0,0,1-1.8-.52,3.18,3.18,0,0,1-1.24-1.34l-.27.27q-.24.23-.66.58a11.66,11.66,0,0,1-1,.7,6.19,6.19,0,0,1-1.28.63,5.58,5.58,0,0,1-1.51.34,4.64,4.64,0,0,1-3.24-.81,3.69,3.69,0,0,1-1.46-2.83,3.58,3.58,0,0,1,.31-1.78,4.64,4.64,0,0,1,1-1.42,8,8,0,0,1,1.58-1.16,15.93,15.93,0,0,1,1.74-.9q.74-.31,1.89-.76l1.61-.64a.61.61,0,0,0,.3-.65l-.17-2.13a3.34,3.34,0,0,0-.79-2.08,2,2,0,0,0-1.73-.64,2.35,2.35,0,0,0-1.76.86,2.9,2.9,0,0,0-.5,2.09,1.26,1.26,0,0,1-.49,1.19,2.42,2.42,0,0,1-1.29.47,2.19,2.19,0,0,1-2.09-.77q-.15-1.86,2.26-3.69A9.75,9.75,0,0,1,126.37,93.82Zm-.56,15a3,3,0,0,0,1.76-.69,1.54,1.54,0,0,0,.66-1.3l-.32-4c-.17.09-.54.25-1.11.48s-1,.42-1.3.57a10.61,10.61,0,0,0-1,.63,2.34,2.34,0,0,0-.84.93,2.14,2.14,0,0,0-.21,1.11,2.4,2.4,0,0,0,.77,1.77A2.24,2.24,0,0,0,125.81,108.85Z"/><path class="cls-1" d="M142.46,92.5a16.5,16.5,0,0,1,4.55.3,22.09,22.09,0,0,1,.77,4.31c0,.21-.14.32-.48.35q-.85.07-1-.24A4.73,4.73,0,0,0,145,95a3,3,0,0,0-2.42-.76,2.79,2.79,0,0,0-1.72.64,1.72,1.72,0,0,0-.53,1.49,2.25,2.25,0,0,0,.29,1,2.43,2.43,0,0,0,.76.78,9.5,9.5,0,0,0,.9.55q.39.2,1.16.53a2.45,2.45,0,0,0,.4.16l.61.26.67.3.65.32a7.26,7.26,0,0,1,.71.39l.64.42a3.19,3.19,0,0,1,.63.5l.51.56a2.5,2.5,0,0,1,.46.67,7.69,7.69,0,0,1,.27.72,3.6,3.6,0,0,1,.16.83,4.58,4.58,0,0,1-1.57,4,7.38,7.38,0,0,1-4.44,1.78,13,13,0,0,1-5.09-.69,15.55,15.55,0,0,1-.56-2.12,19,19,0,0,1-.37-2.21.82.82,0,0,1,.53-.24q.89-.07,1,.24a4.29,4.29,0,0,0,1.74,2.49,4.15,4.15,0,0,0,2.73.78,2.83,2.83,0,0,0,1.74-.69,1.9,1.9,0,0,0,.57-1.64,2.58,2.58,0,0,0-.15-.71,1.9,1.9,0,0,0-.42-.63l-.49-.51a2.84,2.84,0,0,0-.74-.47l-.81-.38-1-.43-1-.44a9,9,0,0,1-2.92-1.85,4.49,4.49,0,0,1,.38-6.49A7.5,7.5,0,0,1,142.46,92.5Z"/><path class="cls-1" d="M161.69,93.73l-2.37.19c-.18,0-.3-.31-.35-1a1,1,0,0,1,0-.35,10.89,10.89,0,0,0,2.82-2.29q.46-.54,1-1.23t1.28-1.76a2.76,2.76,0,0,1,.74,0c.24,0,.36.11.37.18l.3,3.8,2.81-.21,1.92-.13c.21,0,.32.09.34.32a3.77,3.77,0,0,1-.25,1.74l-4.65.37.75,9.34a3.7,3.7,0,0,0,.85,2.31,2.22,2.22,0,0,0,1.89.67,3.7,3.7,0,0,0,.81-.16,4.17,4.17,0,0,0,.68-.27l.49-.27a1.2,1.2,0,0,1,.26-.14q.15,0,.38.32c.15.25.21.41.2.49q-.19.56-1.55,1.39a6.12,6.12,0,0,1-2.71.94,4.9,4.9,0,0,1-3.53-1,5.2,5.2,0,0,1-1.74-3.9Z"/><path class="cls-1" d="M185.87,89.07q5-.4,5.57,7.24l.32,4a14.25,14.25,0,0,0,.59,3.46q.06.27,1.07.48a5.87,5.87,0,0,0,1.36.18c.08,0,.14.18.18.55a4,4,0,0,1,0,.76c-.18,0-.88,0-2.09,0s-2.1,0-2.66.1-1.52.16-2.61.32l-2,.32a1.45,1.45,0,0,1-.18-.73q0-.58.07-.59a4.65,4.65,0,0,0,1.31-.4q.85-.36.94-.64a14.75,14.75,0,0,0,0-2.85l-.3-3.8q-.26-3.22-1.23-4.37a3.18,3.18,0,0,0-2.87-1,3.71,3.71,0,0,0-2.08.83,1.83,1.83,0,0,0-.85,1.55l.53,6.67a14.26,14.26,0,0,0,.59,3.46q.1.27,1.07.48a5.49,5.49,0,0,0,1.32.19c.08,0,.14.18.18.55a2.26,2.26,0,0,1,0,.76q-.31,0-2,0t-2.63.09c-.62,0-1.52.16-2.68.33s-1.86.28-2.06.32a1.14,1.14,0,0,1-.21-.72q0-.58.11-.59a5.39,5.39,0,0,0,1.39-.4c.62-.24.94-.46,1-.64a12.52,12.52,0,0,0,0-2.81l-1.29-16.13a15.36,15.36,0,0,0-.4-2.62q-.24-.6-2.07-.46l-.35,0q-.23,0-.28-.6c0-.41,0-.63.18-.64q1.19-.21,2.26-.49c.71-.19,1.3-.36,1.77-.53s.87-.33,1.21-.49l1.07-.48h.08a.42.42,0,0,1,.33.19,1.07,1.07,0,0,1,.23.39,12.55,12.55,0,0,0-.17,3.68l.63,7.83c0,.15.07.23.17.22s.07,0,.15-.13a7.43,7.43,0,0,1,2.25-1.88A7.17,7.17,0,0,1,185.87,89.07Z"/><path class="cls-1" d="M203.94,87.63a7.21,7.21,0,0,1,3.31.46,6.16,6.16,0,0,1,2.39,1.64,9.06,9.06,0,0,1,1.42,2.19,6.71,6.71,0,0,1,.61,2.23q.07.85-.21,1.09a2.21,2.21,0,0,1-1.17.31l-9.26.74c-.18,0-.26.1-.25.25a7.55,7.55,0,0,0,.72,2.67,5.35,5.35,0,0,0,1.91,2.15,4.57,4.57,0,0,0,3,.73,10.24,10.24,0,0,0,1.12-.15,5.8,5.8,0,0,0,1-.27l.79-.32A3.35,3.35,0,0,0,210,101l.5-.37.73-.58a.65.65,0,0,1,.21.22.76.76,0,0,1,.15.38,1.19,1.19,0,0,1-.17.76,6.34,6.34,0,0,1-2.12,2.28,7.21,7.21,0,0,1-3.75,1.35,7.87,7.87,0,0,1-6-2,8.39,8.39,0,0,1-2.93-5.87,9,9,0,0,1,1.76-6.54A7.54,7.54,0,0,1,203.94,87.63Zm-.13,1.81a2.75,2.75,0,0,0-1.62.68,3.65,3.65,0,0,0-1,1.41,7.4,7.4,0,0,0-.45,1.5,4.77,4.77,0,0,0-.08,1.16c0,.18.1.27.25.25l6.28-.5c.23,0,.33-.22.3-.61a5,5,0,0,0-1.13-2.68A2.79,2.79,0,0,0,203.81,89.43Z"/><path class="cls-1" d="M233.15,85.3a3.87,3.87,0,0,1,3.28,1q.26,3.29-1.6,3.44a2.31,2.31,0,0,1-1.57-.65,2.43,2.43,0,0,0-1.73-.64,2.08,2.08,0,0,0-1.78,1.37,5.17,5.17,0,0,0-.48,2.59l.39,4.85a16.26,16.26,0,0,0,.55,3.47q.1.27,1.07.48a5.39,5.39,0,0,0,1.32.19c.08,0,.14.18.18.55a4,4,0,0,1,0,.76q-.31,0-2.07,0t-2.65.09q-.93.07-2.68.33t-2.06.32a1.14,1.14,0,0,1-.21-.72c0-.39,0-.59.11-.59a5.4,5.4,0,0,0,1.39-.4q.93-.36,1-.64a12.73,12.73,0,0,0,0-2.85l-.5-6.32a3.7,3.7,0,0,0-.82-2.43,1.87,1.87,0,0,0-.92-.51,4.49,4.49,0,0,0-.95-.16c-.25,0-.37,0-.38-.09-.06-.75,0-1.14.1-1.18a55.24,55.24,0,0,0,6.15-1.66l.3-.1c.1,0,.2.07.29.25a1,1,0,0,1,.13.44c0,.12,0,.3,0,.55s0,.51,0,.78a4.86,4.86,0,0,0,0,.53,7.12,7.12,0,0,1,1.75-2A4.25,4.25,0,0,1,233.15,85.3Z"/><path class="cls-1" d="M246.69,95.92a14.31,14.31,0,0,0,.59,3.46q.1.27,1.09.48a5.7,5.7,0,0,0,1.34.19c.1,0,.18.17.22.55a2.22,2.22,0,0,1,0,.76q-.28,0-2.09,0c-1.21,0-2.1.05-2.66.1s-1.55.16-2.72.33-1.84.28-2,.32a1.14,1.14,0,0,1-.21-.72c0-.39,0-.58.11-.59a5.61,5.61,0,0,0,1.37-.4q.94-.37,1-.65a12.73,12.73,0,0,0,0-2.85l-.5-6.32a3.69,3.69,0,0,0-.82-2.43,2.13,2.13,0,0,0-.94-.51,4.11,4.11,0,0,0-.95-.16c-.26,0-.39,0-.4-.08-.06-.75,0-1.14.14-1.18a29.89,29.89,0,0,0,3.1-.72,30.54,30.54,0,0,0,3-.94l.3-.1q.19,0,.33.25a.72.72,0,0,1,.11.42q-.11,2.51,0,3.36ZM241.36,80a2.37,2.37,0,0,1-.83-1.65,2.31,2.31,0,0,1,.56-1.74,2.44,2.44,0,0,1,3.41-.27,2.3,2.3,0,0,1,.83,1.63,2.37,2.37,0,0,1-.56,1.76,2.4,2.4,0,0,1-3.41.27Z"/><path class="cls-1" d="M258.3,83.37a12.33,12.33,0,0,1,3.26.25,11.93,11.93,0,0,0,3.14.26l2.21-.18q.08,0,.31.48a2.39,2.39,0,0,1,.26.76c0,.36,0,.55-.19.56l-2.52.2c-.1,0-.15.05-.15.13s.15.35.43,1a5.49,5.49,0,0,1,.5,1.83A5.62,5.62,0,0,1,264,92.92a6.66,6.66,0,0,1-4.64,2.22,16,16,0,0,1-2.42,0,2.09,2.09,0,0,0-.8.79,1.65,1.65,0,0,0-.31,1,.8.8,0,0,0,.42.63,2.61,2.61,0,0,0,1.17.3q.79.05,1.33,0l1.56,0,.58,0a13.73,13.73,0,0,1,5.76.61,3.06,3.06,0,0,1,2,2.71,6.12,6.12,0,0,1-2.39,5.26,10.64,10.64,0,0,1-6.38,2.65,10.11,10.11,0,0,1-5-.69,3.49,3.49,0,0,1-2.37-3,3,3,0,0,1,.93-2.26,6.43,6.43,0,0,1,2.27-1.66,4.43,4.43,0,0,1-2-1,2.82,2.82,0,0,1-1-2q-.13-1.66,2.59-3.68a5.16,5.16,0,0,1-2.25-1.83,5.72,5.72,0,0,1-1.22-3.08,5.25,5.25,0,0,1,1.67-4.5A7.73,7.73,0,0,1,258.3,83.37Zm7,19.85q-.11-1.36-2.1-1.65a24.66,24.66,0,0,0-5.29,0,.6.6,0,0,0-.19.05l-.18.13c-.33.16-.58.29-.75.39a3.35,3.35,0,0,0-.59.48,1.89,1.89,0,0,0-.47.72,2.27,2.27,0,0,0-.1.94,2.72,2.72,0,0,0,1.66,2.21,6.06,6.06,0,0,0,3.37.67,5.88,5.88,0,0,0,3.47-1.29A3,3,0,0,0,265.27,103.21Zm-9.47-14a6.16,6.16,0,0,0,1,3.14,2.42,2.42,0,0,0,2.27,1.13,2.31,2.31,0,0,0,2-1.27,5.16,5.16,0,0,0,.46-2.79,6.38,6.38,0,0,0-1-3.27,2.48,2.48,0,0,0-2.35-1.1,2.19,2.19,0,0,0-2,1.37A5.65,5.65,0,0,0,255.8,89.22Z"/><path class="cls-1" d="M282.45,81.36q5-.4,5.57,7.24l.32,4a14.26,14.26,0,0,0,.59,3.46q.06.27,1.07.48a5.89,5.89,0,0,0,1.36.18q.12,0,.18.55a4.16,4.16,0,0,1,0,.76q-.28,0-2.09,0t-2.67.1q-1,.08-2.61.33l-2,.32a1.45,1.45,0,0,1-.18-.73c0-.39,0-.58.07-.59a4.61,4.61,0,0,0,1.31-.4q.85-.36.94-.64a14.76,14.76,0,0,0,0-2.85l-.3-3.8q-.26-3.22-1.23-4.37a3.18,3.18,0,0,0-2.87-1,3.72,3.72,0,0,0-2.08.83,1.84,1.84,0,0,0-.85,1.55l.53,6.67a14.25,14.25,0,0,0,.59,3.46c.07.18.42.34,1.07.48a5.53,5.53,0,0,0,1.32.19q.12,0,.18.55a2.23,2.23,0,0,1,0,.76q-.31,0-2,0t-2.63.09q-.93.07-2.68.33t-2.06.32a1.14,1.14,0,0,1-.21-.72c0-.39,0-.58.11-.59a5.4,5.4,0,0,0,1.39-.4q.92-.36,1-.64a12.52,12.52,0,0,0,0-2.81l-1.29-16.13a15.43,15.43,0,0,0-.4-2.62q-.24-.6-2.07-.46l-.35,0q-.23,0-.28-.6t.18-.64q1.19-.21,2.26-.49t1.77-.53q.7-.25,1.21-.49l1.07-.48h.08a.42.42,0,0,1,.33.19,1.07,1.07,0,0,1,.23.39,12.55,12.55,0,0,0-.17,3.68l.63,7.83c0,.15.07.23.17.22s.07,0,.15-.13a7.41,7.41,0,0,1,2.25-1.88A7.18,7.18,0,0,1,282.45,81.36Z"/><path class="cls-1" d="M295,83.09l-2.37.19q-.27,0-.35-1a1,1,0,0,1,0-.35,10.88,10.88,0,0,0,2.82-2.29q.46-.54,1-1.23t1.28-1.76a2.8,2.8,0,0,1,.74,0c.24,0,.36.11.37.18l.3,3.8,2.81-.21,1.92-.13c.21,0,.32.09.34.33a3.78,3.78,0,0,1-.25,1.74l-4.65.37.75,9.34a3.69,3.69,0,0,0,.85,2.31,2.22,2.22,0,0,0,1.89.67,3.65,3.65,0,0,0,.81-.16,4,4,0,0,0,.68-.27l.49-.27a1.25,1.25,0,0,1,.26-.14q.15,0,.38.32c.15.25.21.41.2.49q-.19.56-1.55,1.39a6.13,6.13,0,0,1-2.71.94,4.91,4.91,0,0,1-3.54-1,5.21,5.21,0,0,1-1.74-3.9Z"/><path class="cls-1" d="M317.51,81.29l-2.37.19q-.27,0-.35-1a1,1,0,0,1,0-.35,10.89,10.89,0,0,0,2.82-2.29q.46-.54,1-1.23t1.28-1.76a2.78,2.78,0,0,1,.74,0c.24,0,.36.11.37.19l.3,3.8,2.81-.21,1.92-.13q.31,0,.34.32a3.77,3.77,0,0,1-.25,1.74L321.5,81l.75,9.34a3.7,3.7,0,0,0,.85,2.31,2.22,2.22,0,0,0,1.89.67,3.79,3.79,0,0,0,.81-.16,4,4,0,0,0,.68-.27l.49-.27a1.22,1.22,0,0,1,.26-.14q.15,0,.38.32c.15.25.21.41.2.49q-.19.56-1.55,1.39a6.12,6.12,0,0,1-2.71.94,4.91,4.91,0,0,1-3.54-1,5.21,5.21,0,0,1-1.74-3.9Z"/><path class="cls-1" d="M337.77,76.94a8.58,8.58,0,0,1,6.42,2,8.33,8.33,0,0,1,3.07,5.94,8.87,8.87,0,1,1-9.49-8Zm-.36,1.86a3.13,3.13,0,0,0-2.69,2,8.36,8.36,0,0,0-.67,4.29,11.33,11.33,0,0,0,1.7,5.37,3.88,3.88,0,0,0,3.69,2,3.17,3.17,0,0,0,2.71-2,8.27,8.27,0,0,0,.69-4.27,13.34,13.34,0,0,0-.8-3.7,6.86,6.86,0,0,0-1.86-2.76A3.6,3.6,0,0,0,337.41,78.81Z"/><path class="cls-1" d="M138.45,136a4.2,4.2,0,0,1,2.43,1,4.53,4.53,0,0,1,1.33,2.12,9.19,9.19,0,0,1,3-1.62,8.73,8.73,0,0,1,3.72-.37,4.42,4.42,0,0,1,2.31.88,4.3,4.3,0,0,1,1.36,1.89,9.17,9.17,0,0,1,.55,2.49,14.93,14.93,0,0,1-.05,2.83l-.44,4.06a16.39,16.39,0,0,0-.11,3.51q0,.28,1,.67a5.72,5.72,0,0,0,1.28.43c.08,0,.1.2.07.58a2.26,2.26,0,0,1-.14.75q-.27-.07-2-.38c-1.17-.21-2-.34-2.64-.41s-1.51-.13-2.66-.17l-2.09-.07a1.48,1.48,0,0,1,0-.75c0-.39.1-.58.18-.57a5.23,5.23,0,0,0,1.42-.14q1-.19,1.06-.45a12.07,12.07,0,0,0,.57-2.68l.43-3.94q.61-5.61-3-6a3.54,3.54,0,0,0-2.19.39,2.43,2.43,0,0,0-1.14,1.09c0,.08,0,.18-.05.31a.79.79,0,0,0,0,.31,18.84,18.84,0,0,1-.15,2.41l-.45,4.1a15.42,15.42,0,0,0-.09,3.35q0,.28,1,.67a5.69,5.69,0,0,0,1.28.43c.08,0,.1.2.07.57a2.26,2.26,0,0,1-.14.75q-.27-.07-2-.38t-2.64-.41c-.62-.07-1.51-.13-2.66-.17l-2.09-.07a1.48,1.48,0,0,1,0-.75c0-.39.1-.58.18-.57a5.23,5.23,0,0,0,1.42-.14q1-.19,1.06-.45a12.65,12.65,0,0,0,.58-2.79l.41-3.71a8.24,8.24,0,0,0-.41-4.46,3,3,0,0,0-2.48-1.64,3.72,3.72,0,0,0-2.2.42,1.83,1.83,0,0,0-1.13,1.36l-.73,6.65a14.31,14.31,0,0,0-.07,3.51q0,.28.94.67a5.32,5.32,0,0,0,1.24.43c.1,0,.14.21.11.58a2.26,2.26,0,0,1-.14.75q-.3-.07-2-.38c-1.14-.2-2-.34-2.6-.4s-1.55-.13-2.72-.18-1.86-.07-2.07-.07a1.15,1.15,0,0,1-.07-.75c0-.39.12-.58.22-.56a5.62,5.62,0,0,0,1.42-.14c.66-.12,1-.27,1.1-.45a12.64,12.64,0,0,0,.58-2.79l.69-6.3a3.71,3.71,0,0,0-.35-2.54,1.89,1.89,0,0,0-.81-.67,4.41,4.41,0,0,0-.92-.34q-.38-.08-.37-.16c.08-.75.2-1.12.36-1.13a53.85,53.85,0,0,0,6.31-.48.26.26,0,0,1,.13,0h.19q.19,0,.28.3a.72.72,0,0,1,0,.43,13.64,13.64,0,0,0-.31,1.38c0,.1,0,.17.06.2a.61.61,0,0,0,.21-.1,8.59,8.59,0,0,1,2.55-1.36A6.81,6.81,0,0,1,138.45,136Z"/><path class="cls-1" d="M167,139.14a4.79,4.79,0,0,1,3.46,1.65q1.06,1.39.73,4.44l-.83,7.62a1.78,1.78,0,0,0,.22,1.22,1.17,1.17,0,0,0,.88.51,2.42,2.42,0,0,0,1.37-.36c.15.07.21.22.19.45a2.32,2.32,0,0,1-.36,1.13,9.72,9.72,0,0,1-1.65.8,4.05,4.05,0,0,1-1.91.3,2.83,2.83,0,0,1-1.67-.85,3.19,3.19,0,0,1-1-1.55l-.32.22c-.18.12-.43.27-.75.45a11.08,11.08,0,0,1-1.07.51,6.14,6.14,0,0,1-1.37.38,5.61,5.61,0,0,1-1.55,0,4.64,4.64,0,0,1-3-1.41,3.69,3.69,0,0,1-.9-3.05,3.55,3.55,0,0,1,.63-1.69,4.64,4.64,0,0,1,1.21-1.22,8,8,0,0,1,1.77-.84,16,16,0,0,1,1.88-.56c.52-.11,1.19-.24,2-.39l1.7-.32A.61.61,0,0,0,167,146l.23-2.13a3.34,3.34,0,0,0-.38-2.19,2,2,0,0,0-1.58-1,2.36,2.36,0,0,0-1.9.52,2.91,2.91,0,0,0-.88,2,1.26,1.26,0,0,1-.71,1.08,2.41,2.41,0,0,1-1.35.22,2.19,2.19,0,0,1-1.91-1.15q.2-1.86,2.91-3.2A9.76,9.76,0,0,1,167,139.14Zm-3.36,14.66a3,3,0,0,0,1.86-.35,1.54,1.54,0,0,0,.89-1.15l.43-3.94c-.19.06-.58.15-1.18.26s-1.06.22-1.38.32a10.54,10.54,0,0,0-1.14.42,2.34,2.34,0,0,0-1,.75,2.13,2.13,0,0,0-.41,1.05,2.39,2.39,0,0,0,.42,1.88A2.24,2.24,0,0,0,163.59,153.79Z"/><path class="cls-1" d="M192.58,144.56q-.82.38-2.64,1.47a27.35,27.35,0,0,0-3.37,2.37q1,1.32,2.48,3.44t2.48,3.48a18.53,18.53,0,0,0,1.37,1.75,4.89,4.89,0,0,0,1.4.94,4.69,4.69,0,0,0,1.26.45c.1,0,.13.24.08.67a2.34,2.34,0,0,1-.1.54L191,159c-.49-.05-1-.09-1.49-.12l-1.67-.08-1.46-.06a1,1,0,0,1-.08-.71c0-.36.11-.54.21-.52a2.82,2.82,0,0,0,.91-.08c.35-.08.53-.18.54-.31s0-.08,0-.08l-5-6.92-.48.06-.26,2.4a15.94,15.94,0,0,0-.07,3.51q0,.28,1,.67a5.73,5.73,0,0,0,1.32.44c.08,0,.1.2.07.57a2.26,2.26,0,0,1-.14.75q-.27-.07-2-.38t-2.65-.41q-.93-.1-2.7-.18t-2.09-.07a1.17,1.17,0,0,1-.07-.75c0-.39.12-.57.22-.56a5.46,5.46,0,0,0,1.44-.14c.65-.12,1-.27,1.09-.45a12.77,12.77,0,0,0,.58-2.79l1.75-16a15.41,15.41,0,0,0,.1-2.65q-.13-.64-1.94-.84l-.35,0c-.16,0-.21-.23-.16-.64s.14-.61.3-.59c.81,0,1.58,0,2.31-.06s1.35-.11,1.84-.19.92-.16,1.28-.25l1.14-.27h.08c.1,0,.2.09.29.25a1.13,1.13,0,0,1,.15.43,12.5,12.5,0,0,0-.86,3.58l-1.41,12.91a3.55,3.55,0,0,0,1.21-.3q.89-.64,1.93-1.33l1.5-1q.46-.3.93-.66a3.38,3.38,0,0,0,.63-.58.9.9,0,0,0,.19-.45q0-.42-.81-.62a3.73,3.73,0,0,1-.85-.23,1.68,1.68,0,0,1,0-.69c0-.27.1-.41.2-.43l3.75.41q1,.11,4.12.29a.61.61,0,0,1,.15.45,1.77,1.77,0,0,1-.08.58c-.06.18-.12.26-.2.25A5.11,5.11,0,0,0,192.58,144.56Z"/><path class="cls-1" d="M208.06,143.63a7.2,7.2,0,0,1,3.17,1.07,6.13,6.13,0,0,1,2,2.06,9,9,0,0,1,1,2.42,6.67,6.67,0,0,1,.18,2.31c-.06.57-.2.91-.41,1a2.2,2.2,0,0,1-1.2.08l-9.24-1c-.18,0-.28,0-.3.2a7.62,7.62,0,0,0,.21,2.76A5.35,5.35,0,0,0,205,157a4.57,4.57,0,0,0,2.81,1.29,10.7,10.7,0,0,0,1.13.06,5.9,5.9,0,0,0,1-.08l.84-.16a3.29,3.29,0,0,0,.75-.27l.56-.27.83-.44a.67.67,0,0,1,.17.25.74.74,0,0,1,.07.4,1.21,1.21,0,0,1-.31.71,6.35,6.35,0,0,1-2.51,1.84,7.21,7.21,0,0,1-3.94.63,7.88,7.88,0,0,1-5.53-3.13,8.39,8.39,0,0,1-1.77-6.32,9,9,0,0,1,3-6.09A7.54,7.54,0,0,1,208.06,143.63Zm-.46,1.75a2.74,2.74,0,0,0-1.72.36,3.63,3.63,0,0,0-1.27,1.19,7.43,7.43,0,0,0-.72,1.39,4.87,4.87,0,0,0-.3,1.12c0,.18,0,.28.2.29l6.26.69c.23,0,.37-.16.41-.54a5,5,0,0,0-.61-2.84A2.78,2.78,0,0,0,207.6,145.38Z"/><path class="cls-1" d="M234,146.47a4.77,4.77,0,0,1,3.46,1.65q1.06,1.39.73,4.44l-.83,7.62a1.79,1.79,0,0,0,.22,1.22,1.17,1.17,0,0,0,.88.51,2.44,2.44,0,0,0,1.37-.36c.15.07.21.22.19.45a2.3,2.3,0,0,1-.36,1.13,9.72,9.72,0,0,1-1.65.8,4.05,4.05,0,0,1-1.91.3,2.84,2.84,0,0,1-1.67-.85,3.18,3.18,0,0,1-1-1.55l-.32.22q-.28.18-.75.45a11.55,11.55,0,0,1-1.07.51,6.22,6.22,0,0,1-1.37.38,5.7,5.7,0,0,1-1.55,0,4.65,4.65,0,0,1-3-1.41,3.7,3.7,0,0,1-.9-3.05,3.6,3.6,0,0,1,.63-1.69,4.64,4.64,0,0,1,1.21-1.22,8,8,0,0,1,1.78-.84,16,16,0,0,1,1.88-.56c.52-.11,1.19-.24,2-.39l1.7-.32a.61.61,0,0,0,.42-.58l.23-2.13a3.34,3.34,0,0,0-.39-2.19,2,2,0,0,0-1.58-1,2.35,2.35,0,0,0-1.89.52,2.91,2.91,0,0,0-.88,2,1.26,1.26,0,0,1-.71,1.08,2.42,2.42,0,0,1-1.36.22,2.19,2.19,0,0,1-1.91-1.15q.2-1.86,2.91-3.2A9.75,9.75,0,0,1,234,146.47Zm-3.36,14.65a3,3,0,0,0,1.86-.34,1.54,1.54,0,0,0,.89-1.15l.43-3.94c-.19.06-.58.14-1.18.26s-1.06.22-1.38.32a10.86,10.86,0,0,0-1.14.42,2.35,2.35,0,0,0-1,.75,2.15,2.15,0,0,0-.41,1.05,2.4,2.4,0,0,0,.42,1.88A2.23,2.23,0,0,0,230.62,161.12Z"/><path class="cls-1" d="M255.06,148.77a3.88,3.88,0,0,1,3,1.62q-.36,3.29-2.21,3.08a2.32,2.32,0,0,1-1.42-.94,2.43,2.43,0,0,0-1.58-1,2.08,2.08,0,0,0-2,1,5.18,5.18,0,0,0-1,2.46l-.53,4.83a16.39,16.39,0,0,0-.11,3.51c0,.19.35.41,1,.67a5.54,5.54,0,0,0,1.26.43c.08,0,.1.2.07.58a4.25,4.25,0,0,1-.1.75c-.21,0-.88-.17-2-.38s-2-.34-2.62-.4-1.52-.13-2.7-.18-1.88-.08-2.09-.07A1.14,1.14,0,0,1,242,164c0-.39.12-.58.22-.56a5.44,5.44,0,0,0,1.45-.14c.65-.12,1-.27,1.08-.45a12.65,12.65,0,0,0,.58-2.79l.69-6.3a3.7,3.7,0,0,0-.35-2.54,1.87,1.87,0,0,0-.8-.67,4.46,4.46,0,0,0-.9-.33c-.24-.05-.36-.1-.35-.16q.12-1.12.32-1.14a55,55,0,0,0,6.35-.48l.32,0c.1,0,.18.11.24.3a.94.94,0,0,1,0,.46c0,.11-.06.29-.12.53s-.11.5-.18.76-.11.44-.12.52a7.15,7.15,0,0,1,2.1-1.67A4.26,4.26,0,0,1,255.06,148.77Z"/><path class="cls-1" d="M262.7,152.34l-2.36-.26q-.27,0-.16-1a1,1,0,0,1,.08-.34,10.88,10.88,0,0,0,3.2-1.72c.37-.3.78-.64,1.23-1s1-.88,1.59-1.49a2.81,2.81,0,0,1,.72.18c.22.09.33.17.32.25l-.41,3.79,2.8.33,1.91.23q.31,0,.27.38a3.77,3.77,0,0,1-.57,1.66l-4.64-.51-1,9.32a3.71,3.71,0,0,0,.4,2.43,2.22,2.22,0,0,0,1.73,1,3.69,3.69,0,0,0,.82,0,4.15,4.15,0,0,0,.72-.14l.53-.18a1.22,1.22,0,0,1,.28-.09q.16,0,.31.39a.91.91,0,0,1,.1.52,3.57,3.57,0,0,1-1.78,1.08,6.13,6.13,0,0,1-2.84.41,4.91,4.91,0,0,1-3.28-1.67,5.21,5.21,0,0,1-1-4.16Z"/><path class="cls-1" d="M285.1,154.79l-2.36-.26q-.27,0-.16-1a.91.91,0,0,1,.08-.34,10.88,10.88,0,0,0,3.2-1.72c.37-.3.78-.64,1.23-1s1-.88,1.59-1.49a2.78,2.78,0,0,1,.72.18c.22.09.33.17.33.25l-.41,3.79,2.8.33,1.91.23c.21,0,.3.15.27.38a3.77,3.77,0,0,1-.57,1.66l-4.64-.51-1,9.32a3.69,3.69,0,0,0,.4,2.43,2.22,2.22,0,0,0,1.73,1,3.69,3.69,0,0,0,.82,0,4.09,4.09,0,0,0,.72-.14l.53-.18a1.19,1.19,0,0,1,.28-.09q.16,0,.31.39a.92.92,0,0,1,.1.52,3.58,3.58,0,0,1-1.78,1.08,6.13,6.13,0,0,1-2.84.41,4.92,4.92,0,0,1-3.28-1.67,5.21,5.21,0,0,1-1-4.16Z"/><path class="cls-1" d="M309.72,154.75q4.95.54,4.12,8.16l-.44,4a14.28,14.28,0,0,0-.07,3.51q0,.27,1,.67a6,6,0,0,0,1.3.44c.08,0,.1.2.07.58a3.85,3.85,0,0,1-.1.75q-.26-.07-2.05-.38t-2.63-.4q-1-.11-2.62-.17l-2-.07a1.46,1.46,0,0,1,0-.75q.06-.58.18-.57a4.61,4.61,0,0,0,1.36-.14q.9-.19,1-.45a14.64,14.64,0,0,0,.54-2.8l.41-3.79q.35-3.21-.38-4.52a3.19,3.19,0,0,0-2.63-1.52,3.73,3.73,0,0,0-2.2.42,1.84,1.84,0,0,0-1.13,1.36l-.73,6.65a14.31,14.31,0,0,0-.07,3.51c0,.19.35.41,1,.67a5.47,5.47,0,0,0,1.26.43c.08,0,.1.2.07.58a2.23,2.23,0,0,1-.14.75q-.31-.07-2-.38t-2.6-.4q-.93-.1-2.7-.18t-2.08-.07a1.14,1.14,0,0,1-.07-.75q.06-.58.22-.56a5.42,5.42,0,0,0,1.44-.14q1-.19,1.09-.45a12.39,12.39,0,0,0,.57-2.75l1.76-16.08a15.4,15.4,0,0,0,.1-2.65q-.13-.64-1.94-.84l-.35,0q-.23,0-.16-.64c0-.41.14-.61.3-.59.81,0,1.58,0,2.31-.06s1.35-.11,1.84-.19.92-.16,1.28-.25l1.14-.27H305c.1,0,.2.09.29.25a1.1,1.1,0,0,1,.15.43,12.49,12.49,0,0,0-.86,3.58l-.85,7.81c0,.15,0,.24.13.25s.08,0,.17-.1a7.41,7.41,0,0,1,2.56-1.42A7.15,7.15,0,0,1,309.72,154.75Z"/><path class="cls-1" d="M327.94,156.74a4.78,4.78,0,0,1,3.46,1.65q1.06,1.39.73,4.44l-.83,7.62a1.78,1.78,0,0,0,.22,1.22,1.17,1.17,0,0,0,.88.51,2.42,2.42,0,0,0,1.37-.36c.15.07.21.22.19.45a2.32,2.32,0,0,1-.36,1.13,9.64,9.64,0,0,1-1.65.8,4.06,4.06,0,0,1-1.91.3,2.84,2.84,0,0,1-1.67-.85,3.19,3.19,0,0,1-1-1.55l-.32.22q-.28.18-.75.45a11.54,11.54,0,0,1-1.07.51,6.17,6.17,0,0,1-1.37.38,5.62,5.62,0,0,1-1.55,0,4.64,4.64,0,0,1-3-1.41,3.69,3.69,0,0,1-.9-3.05,3.59,3.59,0,0,1,.63-1.69,4.64,4.64,0,0,1,1.21-1.22,8,8,0,0,1,1.77-.84,16,16,0,0,1,1.88-.56c.52-.11,1.19-.24,2-.39l1.7-.32a.62.62,0,0,0,.42-.58l.23-2.13a3.34,3.34,0,0,0-.39-2.19,2,2,0,0,0-1.58-1,2.35,2.35,0,0,0-1.89.52,2.9,2.9,0,0,0-.88,2,1.26,1.26,0,0,1-.71,1.08,2.42,2.42,0,0,1-1.36.22,2.19,2.19,0,0,1-1.91-1.15q.2-1.86,2.91-3.2A9.75,9.75,0,0,1,327.94,156.74Zm-3.36,14.66a3,3,0,0,0,1.86-.35,1.54,1.54,0,0,0,.89-1.15l.43-3.94q-.28.09-1.18.26t-1.38.32A11,11,0,0,0,324,167a2.34,2.34,0,0,0-1,.75,2.15,2.15,0,0,0-.41,1.05,2.39,2.39,0,0,0,.42,1.88A2.24,2.24,0,0,0,324.58,171.39Z"/><path class="cls-1" d="M339.64,160.76l-2.36-.26c-.18,0-.23-.36-.16-1a1,1,0,0,1,.08-.34,10.87,10.87,0,0,0,3.2-1.72q.56-.45,1.23-1t1.59-1.49a2.76,2.76,0,0,1,.72.18c.22.09.33.17.32.25l-.41,3.79,2.8.33,1.91.23q.31,0,.27.38a3.78,3.78,0,0,1-.57,1.66l-4.64-.51-1,9.32a3.69,3.69,0,0,0,.4,2.43,2.22,2.22,0,0,0,1.73,1,3.69,3.69,0,0,0,.82,0,4.16,4.16,0,0,0,.72-.14l.53-.18a1.25,1.25,0,0,1,.28-.09c.1,0,.21.12.31.39a.91.91,0,0,1,.1.52,3.56,3.56,0,0,1-1.78,1.08,6.12,6.12,0,0,1-2.84.41,4.9,4.9,0,0,1-3.28-1.67,5.21,5.21,0,0,1-1-4.16Z"/><path class="cls-1" d="M365.71,172.6a14.3,14.3,0,0,0-.07,3.51q0,.28,1,.68a5.72,5.72,0,0,0,1.28.43c.1,0,.14.2.11.58a2.21,2.21,0,0,1-.14.75q-.27-.07-2.05-.38t-2.63-.41q-1-.11-2.74-.18c-1.18-.05-1.86-.07-2-.07a1.16,1.16,0,0,1-.07-.75c0-.39.12-.58.22-.56a5.66,5.66,0,0,0,1.42-.14c.66-.12,1-.27,1.1-.45a12.65,12.65,0,0,0,.58-2.79l.69-6.3A3.7,3.7,0,0,0,362,164a2.16,2.16,0,0,0-.83-.68,4.16,4.16,0,0,0-.9-.33c-.26-.05-.38-.11-.37-.16q.12-1.12.36-1.13a29.68,29.68,0,0,0,3.18-.12,30.52,30.52,0,0,0,3.13-.36l.32,0c.13,0,.22.12.28.3a.72.72,0,0,1,0,.43,33.44,33.44,0,0,0-.67,3.29ZM363.45,156a2.37,2.37,0,0,1-.51-1.78,2.31,2.31,0,0,1,.88-1.61,2.41,2.41,0,0,1,3.91,2.13,2.37,2.37,0,0,1-.88,1.63,2.39,2.39,0,0,1-3.4-.37Z"/><path class="cls-1" d="M378.39,162.22a16.52,16.52,0,0,1,4.41,1.15,22.1,22.1,0,0,1,0,4.38c0,.21-.2.29-.54.25q-.85-.09-.89-.41a4.7,4.7,0,0,0-.89-2.42,3,3,0,0,0-2.23-1.2,2.79,2.79,0,0,0-1.81.31,1.72,1.72,0,0,0-.79,1.36,2.27,2.27,0,0,0,.11,1,2.42,2.42,0,0,0,.61.91,9.5,9.5,0,0,0,.78.71q.34.27,1,.74a2.46,2.46,0,0,0,.37.24l.55.37.6.42.58.44a6.83,6.83,0,0,1,.63.52l.55.53a3.09,3.09,0,0,1,.52.61l.4.65a2.55,2.55,0,0,1,.33.74,7.1,7.1,0,0,1,.13.76,3.67,3.67,0,0,1,0,.84,4.58,4.58,0,0,1-2.3,3.64,7.38,7.38,0,0,1-4.7.91,13,13,0,0,1-4.87-1.63,15.75,15.75,0,0,1-.15-2.19,19.1,19.1,0,0,1,0-2.24.83.83,0,0,1,.56-.13q.89.1.89.41a4.3,4.3,0,0,0,1.24,2.78,4.15,4.15,0,0,0,2.54,1.28,2.83,2.83,0,0,0,1.84-.35,1.89,1.89,0,0,0,.87-1.51,2.55,2.55,0,0,0,0-.73,1.91,1.91,0,0,0-.3-.7l-.38-.59a2.81,2.81,0,0,0-.64-.6l-.72-.53-.91-.61-.93-.63a9.05,9.05,0,0,1-2.52-2.37,4.49,4.49,0,0,1,1.59-6.3A7.49,7.49,0,0,1,378.39,162.22Z"/><path class="cls-1" d="M403.42,165a9.38,9.38,0,0,1,3.58,1.08,6.23,6.23,0,0,1,2.14,1.74,4.81,4.81,0,0,1-.69,2.14,1.43,1.43,0,0,1-1.43.72,1.75,1.75,0,0,1-1.14-.51,4.41,4.41,0,0,1-.77-1.38,2.81,2.81,0,0,0-2.4-2.06,3,3,0,0,0-2.83,1.39,8.31,8.31,0,0,0-1.45,4.13,7.88,7.88,0,0,0,.87,5.32,4.59,4.59,0,0,0,3.45,2.08,10.7,10.7,0,0,0,1.13.06,5.77,5.77,0,0,0,1-.08l.84-.16a3.35,3.35,0,0,0,.75-.27l.56-.27.83-.44a.63.63,0,0,1,.17.25.74.74,0,0,1,.07.4,1.2,1.2,0,0,1-.31.71,6.35,6.35,0,0,1-2.51,1.84,7.13,7.13,0,0,1-3.9.63,7.87,7.87,0,0,1-5.58-3.15,8.58,8.58,0,0,1-1.74-6.41,8.84,8.84,0,0,1,3-5.84A7.83,7.83,0,0,1,403.42,165Z"/><path class="cls-1" d="M428.76,172l-.84,7.65a8.56,8.56,0,0,0,0,2.74.8.8,0,0,0,.41.36,3.05,3.05,0,0,0,.66.23,5.74,5.74,0,0,0,.63.11.72.72,0,0,1,.32.07c.1,0,.14.16.12.37a3,3,0,0,1-.13.51c-.08.24-.17.35-.27.34a8.88,8.88,0,0,0-1.39,0l-1.63.1q-.79.05-1.5.13t-1.58.14c-.18,0-.25-.24-.2-.65l.19-1.7c0-.13,0-.2-.1-.21a8.67,8.67,0,0,1-2.55,1.48,6.51,6.51,0,0,1-3.14.44,4.07,4.07,0,0,1-2.23-.91,4.69,4.69,0,0,1-1.36-1.87,8.4,8.4,0,0,1-.57-2.33,11.94,11.94,0,0,1,0-2.46l.47-4.33a3.7,3.7,0,0,0-.35-2.54,2.16,2.16,0,0,0-.83-.68,4.11,4.11,0,0,0-.9-.33c-.26-.05-.38-.11-.37-.16.08-.75.19-1.13.32-1.14a29.66,29.66,0,0,0,3.22-.12,30.46,30.46,0,0,0,3.13-.36l.16,0,.16,0c.13,0,.21.12.26.3a1.36,1.36,0,0,1,.05.44q-.64,2.59-.72,3.36l-.51,4.64a8.34,8.34,0,0,0,.38,4.42,3.43,3.43,0,0,0,4.77,1.09,2.07,2.07,0,0,0,1-1.36l.7-6.38a3.7,3.7,0,0,0-.35-2.54,1.87,1.87,0,0,0-.81-.67,4.45,4.45,0,0,0-.92-.34c-.26-.05-.38-.11-.37-.16.08-.75.2-1.12.36-1.13a29.68,29.68,0,0,0,3.18-.12,30.52,30.52,0,0,0,3.13-.36l.32,0c.13,0,.22.12.28.3a.74.74,0,0,1,0,.43Q428.83,171.29,428.76,172Z"/><path class="cls-1" d="M439.64,180.61a16,16,0,0,0-.11,3.51c0,.19.32.42.88.7a4.23,4.23,0,0,0,1.14.46q.11,0,.08.56a2.1,2.1,0,0,1-.14.73l-1.44-.25-1.63-.28q-.73-.12-1.39-.19c-.49-.05-1-.09-1.47-.12l-1.63-.08-1.48-.06a1.1,1.1,0,0,1-.08-.73c0-.37.11-.55.21-.54a4.16,4.16,0,0,0,1.33-.19c.6-.16.94-.32,1-.5a13,13,0,0,0,.62-2.83l1.76-16.08a13.67,13.67,0,0,0,.05-2.65q-.13-.64-1.87-.83l-.39,0c-.15,0-.21-.18-.18-.49s.14-.61.3-.59c.81,0,1.58,0,2.31-.06s1.35-.11,1.84-.19.92-.15,1.28-.23l.86-.2.28-.09h.08c.1,0,.2.1.3.27a1.16,1.16,0,0,1,.17.41,12.32,12.32,0,0,0-.86,3.58Z"/><path class="cls-1" d="M447.92,172.6l-2.36-.26q-.27,0-.16-1a1,1,0,0,1,.08-.34,10.87,10.87,0,0,0,3.2-1.72q.56-.45,1.23-1t1.59-1.49a2.76,2.76,0,0,1,.72.18c.22.09.33.17.32.25l-.41,3.79,2.8.33,1.91.23c.21,0,.3.15.27.38a3.78,3.78,0,0,1-.57,1.66L451.9,173l-1,9.32a3.69,3.69,0,0,0,.4,2.43,2.23,2.23,0,0,0,1.73,1,3.69,3.69,0,0,0,.82,0,4.16,4.16,0,0,0,.72-.14l.53-.18a1.2,1.2,0,0,1,.28-.09c.11,0,.21.11.31.39a.91.91,0,0,1,.1.52,3.56,3.56,0,0,1-1.78,1.08,6.12,6.12,0,0,1-2.84.41,4.9,4.9,0,0,1-3.28-1.67,5.21,5.21,0,0,1-1-4.16Z"/><path class="cls-1" d="M476.33,177.19l-.84,7.65a8.63,8.63,0,0,0,0,2.74.82.82,0,0,0,.41.36,3,3,0,0,0,.66.23,5.83,5.83,0,0,0,.63.11.72.72,0,0,1,.32.08c.1,0,.14.16.12.37a3,3,0,0,1-.13.51c-.08.24-.17.35-.27.34a9,9,0,0,0-1.39,0l-1.63.1q-.79.05-1.5.13l-1.58.14c-.18,0-.25-.24-.2-.65l.19-1.7c0-.13,0-.2-.1-.21a8.65,8.65,0,0,1-2.55,1.48,6.52,6.52,0,0,1-3.14.44,4.08,4.08,0,0,1-2.23-.91,4.69,4.69,0,0,1-1.36-1.87,8.32,8.32,0,0,1-.57-2.33,11.93,11.93,0,0,1,0-2.46l.47-4.33a3.71,3.71,0,0,0-.35-2.54,2.15,2.15,0,0,0-.83-.68,4.11,4.11,0,0,0-.9-.33c-.26-.05-.38-.11-.37-.16.08-.75.19-1.13.32-1.14a29.38,29.38,0,0,0,3.22-.12,30.34,30.34,0,0,0,3.13-.36l.16,0,.16,0c.13,0,.21.12.26.3a1.41,1.41,0,0,1,0,.44q-.63,2.59-.72,3.36l-.51,4.64a8.35,8.35,0,0,0,.38,4.42,3.43,3.43,0,0,0,4.77,1.09,2.08,2.08,0,0,0,1-1.36l.7-6.38a3.71,3.71,0,0,0-.35-2.54,1.9,1.9,0,0,0-.81-.68,4.44,4.44,0,0,0-.92-.33c-.26-.05-.38-.11-.37-.16.08-.75.2-1.13.36-1.13a30,30,0,0,0,3.18-.12,30.46,30.46,0,0,0,3.13-.36l.32,0c.13,0,.22.12.28.3a.72.72,0,0,1,0,.43Q476.41,176.49,476.33,177.19Z"/><path class="cls-1" d="M493.07,174.79a3.87,3.87,0,0,1,3,1.62q-.36,3.29-2.21,3.08a2.32,2.32,0,0,1-1.42-.94,2.43,2.43,0,0,0-1.58-1,2.09,2.09,0,0,0-2,1,5.16,5.16,0,0,0-1,2.46l-.53,4.83a16.39,16.39,0,0,0-.11,3.51c0,.19.35.41,1,.67a5.52,5.52,0,0,0,1.26.43c.08,0,.1.2.07.58a4,4,0,0,1-.1.75q-.3-.07-2-.38t-2.62-.4q-.93-.1-2.7-.18c-1.18,0-1.88-.08-2.08-.07a1.14,1.14,0,0,1-.07-.75c0-.39.11-.58.22-.56a5.45,5.45,0,0,0,1.44-.13q1-.19,1.09-.45a12.65,12.65,0,0,0,.58-2.79l.69-6.3a3.7,3.7,0,0,0-.35-2.54,1.87,1.87,0,0,0-.81-.67,4.41,4.41,0,0,0-.9-.33c-.24-.05-.36-.1-.35-.16.08-.75.19-1.13.32-1.14a55.18,55.18,0,0,0,6.35-.48l.32,0c.1,0,.18.11.24.3a1,1,0,0,1,0,.46l-.12.54c-.05.24-.11.5-.18.76a4.72,4.72,0,0,0-.12.52,7.1,7.1,0,0,1,2.1-1.67A4.26,4.26,0,0,1,493.07,174.79Z"/><path class="cls-1" d="M506.89,176.3a4.78,4.78,0,0,1,3.46,1.65q1.06,1.39.73,4.44l-.83,7.62a1.78,1.78,0,0,0,.22,1.22,1.17,1.17,0,0,0,.88.51,2.43,2.43,0,0,0,1.37-.36c.15.07.21.22.19.45a2.3,2.3,0,0,1-.36,1.13,9.64,9.64,0,0,1-1.65.8,4.05,4.05,0,0,1-1.91.3,2.83,2.83,0,0,1-1.67-.85,3.19,3.19,0,0,1-1-1.55l-.32.22c-.18.12-.43.27-.75.45a11.31,11.31,0,0,1-1.07.51,6.22,6.22,0,0,1-1.37.38,5.66,5.66,0,0,1-1.55,0,4.64,4.64,0,0,1-3-1.41,3.7,3.7,0,0,1-.9-3.05,3.59,3.59,0,0,1,.63-1.69,4.64,4.64,0,0,1,1.21-1.22A8,8,0,0,1,501,185a16.16,16.16,0,0,1,1.88-.56q.78-.17,2-.39l1.7-.32a.62.62,0,0,0,.42-.58l.23-2.13a3.34,3.34,0,0,0-.39-2.19,2,2,0,0,0-1.58-1,2.36,2.36,0,0,0-1.89.52,2.9,2.9,0,0,0-.88,2,1.26,1.26,0,0,1-.71,1.08,2.42,2.42,0,0,1-1.36.22,2.2,2.2,0,0,1-1.91-1.15q.2-1.86,2.91-3.2A9.76,9.76,0,0,1,506.89,176.3ZM503.52,191a3,3,0,0,0,1.86-.34,1.54,1.54,0,0,0,.89-1.16l.43-3.94c-.19.06-.58.15-1.18.26s-1.06.22-1.38.32a10.85,10.85,0,0,0-1.14.42,2.34,2.34,0,0,0-1,.75,2.14,2.14,0,0,0-.41,1.05,2.39,2.39,0,0,0,.42,1.88A2.24,2.24,0,0,0,503.52,191Z"/><path class="cls-1" d="M522.1,189.63a16,16,0,0,0-.11,3.51c0,.19.32.42.88.7a4.25,4.25,0,0,0,1.14.46c.08,0,.1.19.08.56a2.1,2.1,0,0,1-.14.73l-1.44-.25-1.63-.28q-.73-.12-1.39-.19c-.49-.05-1-.09-1.47-.12l-1.63-.08-1.48-.06a1.1,1.1,0,0,1-.08-.73c0-.37.11-.55.21-.54a4.15,4.15,0,0,0,1.33-.19q.91-.23,1-.5a12.86,12.86,0,0,0,.62-2.83l1.76-16.08a13.66,13.66,0,0,0,.05-2.65q-.13-.64-1.87-.83l-.39,0c-.15,0-.21-.18-.18-.49s.14-.61.3-.59c.81,0,1.58,0,2.31-.06s1.35-.11,1.84-.19.92-.15,1.28-.23l.86-.2.28-.09h.08c.1,0,.2.1.3.27a1.21,1.21,0,0,1,.17.41,12.32,12.32,0,0,0-.86,3.58Z"/><path class="cls-1" d="M533.9,190.92a15.92,15.92,0,0,0-.11,3.51c0,.19.33.42.88.7a4.21,4.21,0,0,0,1.14.46c.08,0,.1.19.08.56a2.14,2.14,0,0,1-.14.73l-1.44-.25-1.63-.28c-.49-.08-.95-.14-1.39-.19s-1-.09-1.47-.12l-1.63-.08-1.48-.06a1.12,1.12,0,0,1-.08-.73q.06-.56.22-.54a4.18,4.18,0,0,0,1.33-.19q.91-.23,1-.5a12.85,12.85,0,0,0,.62-2.83L531.57,175a13.67,13.67,0,0,0,.05-2.65q-.13-.64-1.87-.83l-.39,0q-.23,0-.18-.49c0-.41.14-.61.3-.59q1.21,0,2.32-.06c.74,0,1.35-.11,1.84-.19s.92-.15,1.28-.23l.86-.2.28-.09h.08c.1,0,.21.1.3.27a1.17,1.17,0,0,1,.17.41,12.25,12.25,0,0,0-.86,3.58Z"/><path class="cls-1" d="M544.33,180.79q.85.09,2.45.15t2,.1a2.55,2.55,0,0,1,0,.71c0,.36-.11.54-.21.52a4.27,4.27,0,0,0-1.25.16q-.86.2-.94.54l0,.23q0,.63,2.63,9.21.38-.66,1.92-3.64t1.78-3.42a3.63,3.63,0,0,0,.37-1.17,1.23,1.23,0,0,0-.52-1,3.2,3.2,0,0,0-1.81-.65c-.1,0-.13-.21-.09-.6a1,1,0,0,1,.23-.64q.46.05,1.88.32c.94.18,1.73.31,2.34.37s1.21.09,2,.1,1.37,0,1.73.07a1.11,1.11,0,0,1,.09.63c0,.41-.12.61-.22.6a4.94,4.94,0,0,0-1.61.22,2.14,2.14,0,0,0-1.46,1l-8.94,16.31q-3,5.38-6.38,5a2.11,2.11,0,0,1-1.49-.71,1.82,1.82,0,0,1,.49-2.72q4,.44,5.64-2.59,1.18-2.22,1.33-2.52l-4.21-13.76a4.93,4.93,0,0,0-.37-.94,2.34,2.34,0,0,0-1-1,3.67,3.67,0,0,0-1.22-.43c-.1,0-.13-.2-.1-.56s.11-.64.19-.68l2.06.34Q543.4,180.69,544.33,180.79Z"/><path class="cls-1" d="M575.67,183.78a16.56,16.56,0,0,1,4.41,1.15,22,22,0,0,1,0,4.38c0,.21-.2.29-.54.25q-.85-.09-.89-.41a4.72,4.72,0,0,0-.89-2.42,3,3,0,0,0-2.24-1.2,2.78,2.78,0,0,0-1.81.31,1.72,1.72,0,0,0-.8,1.36,2.27,2.27,0,0,0,.11,1,2.44,2.44,0,0,0,.61.91,9.83,9.83,0,0,0,.78.71q.34.27,1,.74a2.54,2.54,0,0,0,.37.24l.54.37.6.42.58.43a7.07,7.07,0,0,1,.63.52l.55.53a3,3,0,0,1,.52.6l.4.65a2.5,2.5,0,0,1,.33.74,7.6,7.6,0,0,1,.13.76,3.67,3.67,0,0,1,0,.84,4.58,4.58,0,0,1-2.29,3.64,7.38,7.38,0,0,1-4.7.92,13,13,0,0,1-4.87-1.63,15.65,15.65,0,0,1-.15-2.19,19,19,0,0,1,.05-2.24.83.83,0,0,1,.56-.13c.59.06.89.2.89.41a4.3,4.3,0,0,0,1.24,2.78,4.15,4.15,0,0,0,2.54,1.28,2.83,2.83,0,0,0,1.84-.35,1.9,1.9,0,0,0,.87-1.51,2.55,2.55,0,0,0,0-.73,1.91,1.91,0,0,0-.29-.7l-.38-.59a2.85,2.85,0,0,0-.64-.6l-.72-.53-.91-.61-.93-.63a9,9,0,0,1-2.52-2.37,4.49,4.49,0,0,1,1.59-6.3A7.51,7.51,0,0,1,575.67,183.78Z"/><path class="cls-1" d="M594.46,185.92a7.86,7.86,0,0,1,4.27,1.76,8.22,8.22,0,0,1,2.52,3.41,8.31,8.31,0,0,1,.51,3.89,9.1,9.1,0,0,1-10.09,8.21,9,9,0,0,1-2.69-.84c-.1,0-.17.16-.21.52l-.29,2.63a14.08,14.08,0,0,0-.07,3.51c0,.21.32.45,1,.71a6,6,0,0,0,1.3.44c.08,0,.1.2.07.58a3.5,3.5,0,0,1-.1.71q-.27,0-2.05-.34t-2.63-.41q-1-.11-2.74-.18t-2.08-.11a1.42,1.42,0,0,1,0-.73c0-.37.1-.56.18-.55a5.42,5.42,0,0,0,1.44-.14q1-.19,1.13-.48a14.15,14.15,0,0,0,.54-2.76L586,191a3.78,3.78,0,0,0-.34-2.58,1.76,1.76,0,0,0-.79-.65,4.76,4.76,0,0,0-.9-.31q-.38-.08-.37-.16.12-1.12.36-1.13a29.92,29.92,0,0,0,5.88-.45l.75-.11c.1,0,.13.29.07.83a2,2,0,0,1-.13.46,7.84,7.84,0,0,1,1.82-.72A5.59,5.59,0,0,1,594.46,185.92Zm-1.15,1.95a2.94,2.94,0,0,0-2.15.51,2.57,2.57,0,0,0-1,1.88l-.87,8a2.4,2.4,0,0,0,.82,2.14,3.79,3.79,0,0,0,2.16,1,3.66,3.66,0,0,0,3.17-1.3,7.52,7.52,0,0,0,1.72-4.43,10,10,0,0,0-.67-5.33A3.82,3.82,0,0,0,593.31,187.86Z"/><path class="cls-1" d="M613.1,187.92a7.21,7.21,0,0,1,3.17,1.07,6.14,6.14,0,0,1,2,2.06,9,9,0,0,1,1,2.42,6.68,6.68,0,0,1,.18,2.31c-.06.57-.2.91-.41,1a2.21,2.21,0,0,1-1.2.08l-9.24-1c-.18,0-.28,0-.3.2a7.62,7.62,0,0,0,.21,2.76,5.37,5.37,0,0,0,1.47,2.47,4.58,4.58,0,0,0,2.81,1.29,10.7,10.7,0,0,0,1.13.06,5.77,5.77,0,0,0,1-.08l.84-.16a3.42,3.42,0,0,0,.75-.27l.56-.27.83-.44a.64.64,0,0,1,.17.25.75.75,0,0,1,.07.4,1.21,1.21,0,0,1-.31.71,6.37,6.37,0,0,1-2.51,1.84,7.22,7.22,0,0,1-3.94.63,7.88,7.88,0,0,1-5.53-3.13,8.39,8.39,0,0,1-1.77-6.32,9,9,0,0,1,3-6.09A7.53,7.53,0,0,1,613.1,187.92Zm-.46,1.75a2.75,2.75,0,0,0-1.72.36,3.68,3.68,0,0,0-1.27,1.19,7.59,7.59,0,0,0-.72,1.39,4.8,4.8,0,0,0-.3,1.12c0,.18,0,.28.2.3l6.26.68c.23,0,.37-.16.41-.54a5,5,0,0,0-.61-2.84A2.78,2.78,0,0,0,612.64,189.67Z"/><path class="cls-1" d="M630.74,189.85a9.39,9.39,0,0,1,3.58,1.08,6.23,6.23,0,0,1,2.14,1.74,4.83,4.83,0,0,1-.68,2.13,1.44,1.44,0,0,1-1.43.72,1.74,1.74,0,0,1-1.14-.52,4.47,4.47,0,0,1-.77-1.37,2.81,2.81,0,0,0-2.39-2.06,3,3,0,0,0-2.83,1.39,8.3,8.3,0,0,0-1.45,4.13,7.88,7.88,0,0,0,.87,5.32,4.59,4.59,0,0,0,3.45,2.08,10.45,10.45,0,0,0,1.13.07,5.81,5.81,0,0,0,1-.08l.84-.16a3.29,3.29,0,0,0,.75-.27l.56-.27.83-.44a.66.66,0,0,1,.17.25.74.74,0,0,1,.07.4,1.2,1.2,0,0,1-.31.71,6.35,6.35,0,0,1-2.51,1.84,7.14,7.14,0,0,1-3.9.63,7.86,7.86,0,0,1-5.58-3.15,8.59,8.59,0,0,1-1.74-6.41,8.85,8.85,0,0,1,3-5.83A7.84,7.84,0,0,1,630.74,189.85Z"/><path class="cls-1" d="M645.26,203.17a14.28,14.28,0,0,0-.07,3.51c0,.19.36.41,1,.68a5.78,5.78,0,0,0,1.28.43c.1,0,.14.21.11.58a2.16,2.16,0,0,1-.14.75q-.26-.07-2.05-.38t-2.64-.41q-1-.11-2.74-.18t-2-.07a1.14,1.14,0,0,1-.07-.75c0-.39.12-.57.22-.56a5.68,5.68,0,0,0,1.43-.14c.66-.12,1-.27,1.1-.45a12.65,12.65,0,0,0,.58-2.79l.69-6.3a3.7,3.7,0,0,0-.35-2.54,2.15,2.15,0,0,0-.82-.68,4.16,4.16,0,0,0-.9-.33c-.26-.05-.38-.11-.37-.16q.12-1.12.36-1.13a29.91,29.91,0,0,0,3.18-.12,30.45,30.45,0,0,0,3.13-.36l.32,0c.13,0,.22.12.28.3a.71.71,0,0,1,0,.43,32.84,32.84,0,0,0-.67,3.29ZM643,186.55a2.37,2.37,0,0,1-.51-1.78,2.41,2.41,0,0,1,4.79.52,2.37,2.37,0,0,1-.88,1.63,2.39,2.39,0,0,1-3.4-.37Z"/><path class="cls-1" d="M663.72,183.55a7.67,7.67,0,0,1,2.64.7,2.71,2.71,0,0,1,1.3,1.14,4.35,4.35,0,0,1-.45,2.12,1.39,1.39,0,0,1-1.51.79,1.52,1.52,0,0,1-1.11-.77q-.45-.7-1-1.4a1.79,1.79,0,0,0-1.28-.79,2.07,2.07,0,0,0-1.85.82,6.52,6.52,0,0,0-1.25,2.33,16,16,0,0,0-.63,3.1l-.19,1.78s0,.07.06.13a.22.22,0,0,0,.15.09l4.25.46a.31.31,0,0,1,.19.06.42.42,0,0,1,0,.24,4,4,0,0,1-.66,1.73l-4-.44a.21.21,0,0,0-.26.21l-.94,8.62a14.92,14.92,0,0,0-.07,3.51q0,.28,1,.67a5.54,5.54,0,0,0,1.26.43c.08,0,.1.2.07.57a2.16,2.16,0,0,1-.14.75c-.15,0-.82-.17-2-.37s-2.08-.34-2.69-.41-1.5-.12-2.64-.17l-2-.07a.74.74,0,0,1-.11-.44,2.24,2.24,0,0,1,.07-.6c0-.19.11-.28.19-.27a5.21,5.21,0,0,0,1.38-.14c.64-.13,1-.28,1.07-.45a12.93,12.93,0,0,0,.7-3.13l1-8.89c0-.18,0-.28-.2-.3l-2.32-.25c-.05,0-.07-.09-.05-.24a2.07,2.07,0,0,1,.66-1.06,1.56,1.56,0,0,1,1.31-.56l.62.07a.21.21,0,0,0,.26-.21l0-.39a10.57,10.57,0,0,1,3.18-6.7A7.27,7.27,0,0,1,663.72,183.55Z"/><path class="cls-1" d="M671.14,206a14.28,14.28,0,0,0-.07,3.51c0,.19.36.41,1,.67a5.75,5.75,0,0,0,1.28.43c.1,0,.14.2.11.58a2.16,2.16,0,0,1-.14.75q-.26-.07-2.05-.38t-2.64-.41q-1-.11-2.74-.18t-2-.07a1.14,1.14,0,0,1-.07-.75c0-.39.12-.57.22-.56a5.68,5.68,0,0,0,1.43-.14c.66-.12,1-.27,1.1-.45a12.65,12.65,0,0,0,.58-2.79l.69-6.3a3.71,3.71,0,0,0-.35-2.54,2.18,2.18,0,0,0-.83-.68,4.1,4.1,0,0,0-.9-.33c-.26-.05-.38-.11-.37-.16q.12-1.12.36-1.13a29.86,29.86,0,0,0,3.18-.12,30.39,30.39,0,0,0,3.13-.36l.32,0c.13,0,.22.12.28.3a.71.71,0,0,1,0,.43,32.9,32.9,0,0,0-.67,3.29Zm-2.25-16.62a2.37,2.37,0,0,1-.51-1.78,2.3,2.3,0,0,1,.88-1.61,2.41,2.41,0,0,1,3.91,2.13,2.37,2.37,0,0,1-.88,1.63,2.4,2.4,0,0,1-3.4-.37Z"/><path class="cls-1" d="M685.83,195.87a9.39,9.39,0,0,1,3.58,1.08,6.2,6.2,0,0,1,2.14,1.74,4.81,4.81,0,0,1-.68,2.14,1.43,1.43,0,0,1-1.43.72,1.75,1.75,0,0,1-1.14-.51,4.45,4.45,0,0,1-.77-1.38,2.82,2.82,0,0,0-2.4-2.06A3,3,0,0,0,682.3,199a8.31,8.31,0,0,0-1.45,4.13,7.88,7.88,0,0,0,.87,5.32,4.59,4.59,0,0,0,3.45,2.08,10.67,10.67,0,0,0,1.13.06,5.77,5.77,0,0,0,1-.08l.84-.16a3.35,3.35,0,0,0,.75-.27l.56-.27.83-.44a.63.63,0,0,1,.17.25.74.74,0,0,1,.07.4,1.19,1.19,0,0,1-.31.71,6.32,6.32,0,0,1-2.51,1.84,7.13,7.13,0,0,1-3.9.63,7.87,7.87,0,0,1-5.58-3.15,8.58,8.58,0,0,1-1.74-6.41,8.84,8.84,0,0,1,3-5.84A7.83,7.83,0,0,1,685.83,195.87Z"/><path class="cls-1" d="M697.61,210.42a2.54,2.54,0,0,1,.55,1.9,2.6,2.6,0,0,1-1,1.75,2.41,2.41,0,0,1-1.88.6,2.51,2.51,0,0,1-1.77-1,2.56,2.56,0,0,1-.57-1.92,2.5,2.5,0,0,1,1-1.73,2.55,2.55,0,0,1,1.94-.57A2.44,2.44,0,0,1,697.61,210.42Zm-.13-21.18a10,10,0,0,1,5.91,2.64A6.78,6.78,0,0,1,704,201a9.18,9.18,0,0,1-3.47,2.08l-.59.21-.63.22-.55.23-.56.27-.44.26a2,2,0,0,0-.36.29.83.83,0,0,0-.19.33A3.65,3.65,0,0,0,697,206a3.68,3.68,0,0,1-.19,1,1.1,1.1,0,0,1-1.05.32q-.54-.06-.18-3.38a6,6,0,0,1,.74-2.68,5.54,5.54,0,0,1,1.94-1.49,11.72,11.72,0,0,1,1.23-.53q.94-.37,1.58-.69a4.42,4.42,0,0,0,1.24-1,2.46,2.46,0,0,0,.69-1.45,2.52,2.52,0,0,0-.61-2,2.72,2.72,0,0,0-1.85-1,8.47,8.47,0,0,0-1.57,0,8.2,8.2,0,0,1-1.57,0,2.47,2.47,0,0,1-1.56-.76,1.84,1.84,0,0,1-.54-1.54,5.15,5.15,0,0,1,.39-1.44A4.3,4.3,0,0,1,697.48,189.24Z"/><path class="cls-1" d="M119.27,1.17q1.12.16,2.59.31t2.63.32a12.65,12.65,0,0,1,2.26.54,9.38,9.38,0,0,1,2.16,1.08A8.25,8.25,0,0,1,130.71,5a6.16,6.16,0,0,1,1.13,2.23,6.62,6.62,0,0,1,.17,2.81,7.41,7.41,0,0,1-1.45,3.41A8.17,8.17,0,0,1,127.29,16a7.9,7.9,0,0,1-4.47.6,4.84,4.84,0,0,1-1.58-.52,2.33,2.33,0,0,1-1-.87.83.83,0,0,1-.08-.4,1.76,1.76,0,0,1,.06-.58c.05-.18.1-.26.16-.25a5.44,5.44,0,0,0,2.1.69,3.43,3.43,0,0,0,3.14-1.1,6.52,6.52,0,0,0,1.63-3.67,7.13,7.13,0,0,0-.45-4.23,3.66,3.66,0,0,0-3-2,6.34,6.34,0,0,0-2.27-.05q-.49.16-1,3.94l-2,13.74a12.18,12.18,0,0,0-.16,3.32q0,.48,1.18.94a8.21,8.21,0,0,0,1.67.53q.15,0,.06.68a2.21,2.21,0,0,1-.17.64q-4.2-.84-5.43-1-1-.15-2.34-.28l-2.07-.2-.78,0a1.33,1.33,0,0,1,0-.71c.06-.41.13-.61.21-.6a6.64,6.64,0,0,0,1.52,0c.68-.07,1.08-.22,1.22-.43a15.39,15.39,0,0,0,.73-3.47l2.09-14.55a15.16,15.16,0,0,0,.22-3.19c0-.22-.4-.48-1-.8A5.66,5.66,0,0,0,114,1.59q-.16,0-.07-.6c.06-.39.14-.61.25-.67Q118.19,1,119.27,1.17Z"/><path class="cls-1" d="M142.33,13a4.77,4.77,0,0,1,3.4,1.77q1,1.42.58,4.46l-1.09,7.58a1.78,1.78,0,0,0,.18,1.22,1.17,1.17,0,0,0,.87.54,2.43,2.43,0,0,0,1.38-.31c.15.07.2.23.17.46a2.33,2.33,0,0,1-.4,1.12,9.66,9.66,0,0,1-1.68.74,4,4,0,0,1-1.92.23,2.84,2.84,0,0,1-1.64-.9,3.19,3.19,0,0,1-.91-1.58l-.33.21q-.28.18-.77.42a11.45,11.45,0,0,1-1.09.47,6.18,6.18,0,0,1-1.38.33,5.66,5.66,0,0,1-1.55,0,4.65,4.65,0,0,1-3-1.51,3.7,3.7,0,0,1-.79-3.08,3.58,3.58,0,0,1,.69-1.67,4.64,4.64,0,0,1,1.25-1.18,8,8,0,0,1,1.8-.78A15.88,15.88,0,0,1,138,21c.53-.09,1.19-.2,2-.32l1.71-.26a.61.61,0,0,0,.43-.57l.3-2.12a3.34,3.34,0,0,0-.31-2.21,2,2,0,0,0-1.54-1,2.36,2.36,0,0,0-1.91.45,2.9,2.9,0,0,0-.95,1.93A1.26,1.26,0,0,1,137,18a2.43,2.43,0,0,1-1.36.18,2.19,2.19,0,0,1-1.87-1.21q.27-1.85,3-3.1A9.76,9.76,0,0,1,142.33,13Zm-3.86,14.53a3,3,0,0,0,1.87-.28,1.54,1.54,0,0,0,.93-1.12l.57-3.93c-.19.05-.59.13-1.19.22s-1.07.19-1.39.27a10.63,10.63,0,0,0-1.16.38,2.35,2.35,0,0,0-1,.72,2.14,2.14,0,0,0-.44,1,2.39,2.39,0,0,0,.35,1.9A2.24,2.24,0,0,0,138.47,27.51Z"/><path class="cls-1" d="M163.32,16a3.88,3.88,0,0,1,3,1.72q-.47,3.27-2.32,3a2.31,2.31,0,0,1-1.39-1,2.44,2.44,0,0,0-1.54-1,2.08,2.08,0,0,0-2,.94,5.16,5.16,0,0,0-1,2.42l-.69,4.81a16.3,16.3,0,0,0-.23,3.5q0,.28.94.7a5.49,5.49,0,0,0,1.25.47c.08,0,.09.2.06.58a4.13,4.13,0,0,1-.13.75q-.3-.08-2-.45t-2.6-.49q-.92-.13-2.69-.27c-1.18-.09-1.87-.14-2.08-.14a1.14,1.14,0,0,1,0-.75q.08-.58.24-.56a5.44,5.44,0,0,0,1.45-.09q1-.15,1.1-.41a12.73,12.73,0,0,0,.67-2.77l.9-6.27a3.7,3.7,0,0,0-.26-2.55,1.88,1.88,0,0,0-.78-.7,4.43,4.43,0,0,0-.89-.36c-.24-.06-.36-.12-.35-.17q.16-1.12.36-1.13a55.13,55.13,0,0,0,6.36-.26l.32,0c.1,0,.18.12.23.31a.93.93,0,0,1,0,.46l-.13.53q-.09.36-.21.76a5.08,5.08,0,0,0-.13.51,7.13,7.13,0,0,1,2.16-1.6A4.26,4.26,0,0,1,163.32,16Z"/><path class="cls-1" d="M170.83,19.83l-2.35-.34c-.18,0-.22-.37-.13-1a.93.93,0,0,1,.09-.34,10.9,10.9,0,0,0,3.26-1.61q.57-.43,1.26-1t1.64-1.43a2.77,2.77,0,0,1,.72.2c.22.1.33.19.32.26l-.54,3.77,2.79.42,1.9.29q.31,0,.26.39a3.8,3.8,0,0,1-.63,1.64l-4.62-.66-1.33,9.28a3.69,3.69,0,0,0,.32,2.44,2.22,2.22,0,0,0,1.69,1.07,3.68,3.68,0,0,0,.82,0,4.13,4.13,0,0,0,.72-.11l.53-.16a1.18,1.18,0,0,1,.29-.08q.16,0,.3.4a.9.9,0,0,1,.08.52,3.56,3.56,0,0,1-1.82,1,6.13,6.13,0,0,1-2.85.32,4.91,4.91,0,0,1-3.22-1.78,5.21,5.21,0,0,1-.83-4.19Z"/><path class="cls-1" d="M192.88,34.12a13,13,0,0,1-2.29-9.72,13.08,13.08,0,0,1,4.94-8.7,11.94,11.94,0,0,1,17.42,2.51,13,13,0,0,1,2.31,9.74,13,13,0,0,1-5,8.68,12,12,0,0,1-17.42-2.51Zm11-19.19a5.6,5.6,0,0,0-5.5,2.29,14.45,14.45,0,0,0-2.8,7,19.13,19.13,0,0,0,0,5.62,10.85,10.85,0,0,0,2,4.91,6.22,6.22,0,0,0,4.27,2.56,5.64,5.64,0,0,0,5.5-2.33,14.33,14.33,0,0,0,2.84-7,19.67,19.67,0,0,0,0-5.67,10.39,10.39,0,0,0-2-4.85A6.38,6.38,0,0,0,203.93,14.92Z"/><path class="cls-1" d="M230.95,25.73q5,.71,3.83,8.61L234.25,38a16.22,16.22,0,0,0-.23,3.5q0,.28,1,.71a6,6,0,0,0,1.29.48c.08,0,.09.2.05.58a2.25,2.25,0,0,1-.17.74q-.23-.07-2-.44t-2.66-.5q-.92-.13-2.58-.25l-2-.13a1.14,1.14,0,0,1,0-.75c.06-.38.13-.57.24-.56a4.63,4.63,0,0,0,1.33-.1c.61-.11.95-.25,1-.42a11.26,11.26,0,0,0,.71-2.77l.53-3.66a8.45,8.45,0,0,0-.22-4.59,3.13,3.13,0,0,0-2.57-1.67,3.6,3.6,0,0,0-2.25.36,1.87,1.87,0,0,0-1.13,1.31l-1,6.62a16.22,16.22,0,0,0-.23,3.5q0,.28.94.71a5.62,5.62,0,0,0,1.21.47c.1,0,.13.21.09.58a2.21,2.21,0,0,1-.17.74q-.3-.08-2-.44t-2.58-.49q-.92-.13-2.69-.27t-2.08-.14a1.14,1.14,0,0,1,0-.75q.08-.58.24-.56a5.42,5.42,0,0,0,1.45-.09q1-.15,1.1-.41a12.73,12.73,0,0,0,.67-2.77l.9-6.27a3.7,3.7,0,0,0-.26-2.55,1.88,1.88,0,0,0-.78-.7,4.46,4.46,0,0,0-.89-.36c-.24-.06-.36-.12-.35-.17q.16-1.12.36-1.13a55.22,55.22,0,0,0,6.36-.26l.11,0h.21c.1,0,.18.12.23.31a1.22,1.22,0,0,1,.05.44,13.65,13.65,0,0,0-.35,1.36.3.3,0,0,0,0,.2.57.57,0,0,0,.21-.09A8.61,8.61,0,0,1,227.9,26,6.81,6.81,0,0,1,230.95,25.73Z"/><path class="cls-1" d="M249.13,28.34a7.21,7.21,0,0,1,3.13,1.18,6.17,6.17,0,0,1,2,2.13,9.07,9.07,0,0,1,.9,2.45,6.71,6.71,0,0,1,.1,2.31q-.12.85-.44,1a2.21,2.21,0,0,1-1.2,0l-9.2-1.32c-.18,0-.28,0-.3.19a7.59,7.59,0,0,0,.11,2.77,5.37,5.37,0,0,0,1.39,2.52A4.58,4.58,0,0,0,248.35,43a10.5,10.5,0,0,0,1.13.1,5.79,5.79,0,0,0,1,0l.84-.13a3.37,3.37,0,0,0,.76-.24l.57-.25.84-.41a.67.67,0,0,1,.16.26.75.75,0,0,1,.06.4,1.2,1.2,0,0,1-.34.7,6.35,6.35,0,0,1-2.57,1.75,7.21,7.21,0,0,1-4,.49,7.88,7.88,0,0,1-5.42-3.31,8.39,8.39,0,0,1-1.56-6.37,9,9,0,0,1,3.16-6A7.53,7.53,0,0,1,249.13,28.34Zm-.52,1.73a2.75,2.75,0,0,0-1.73.3,3.67,3.67,0,0,0-1.31,1.15,7.51,7.51,0,0,0-.77,1.36,4.76,4.76,0,0,0-.34,1.11q0,.27.19.3l6.24.9q.35,0,.43-.53a5.05,5.05,0,0,0-.51-2.86A2.79,2.79,0,0,0,248.6,30.07Z"/><path class="cls-1" d="M261,43.37a2.53,2.53,0,0,1,.49,1.92,2.6,2.6,0,0,1-1,1.72,2.41,2.41,0,0,1-1.9.53,2.52,2.52,0,0,1-1.74-1.05,2.57,2.57,0,0,1-.51-1.94,2.5,2.5,0,0,1,1-1.7,2.55,2.55,0,0,1,2-.5A2.44,2.44,0,0,1,261,43.37Zm1.71-11.87a2.46,2.46,0,0,1,.49,1.9,2.66,2.66,0,0,1-1,1.74,2.38,2.38,0,0,1-1.91.55,2.49,2.49,0,0,1-1.73-1.07,2.64,2.64,0,0,1-.5-2,2.44,2.44,0,0,1,1-1.68,2.58,2.58,0,0,1,2-.49A2.47,2.47,0,0,1,262.73,31.5Z"/></svg>