<svg id="Layer_1" data-name="Layer 1" xmlns="http://www.w3.org/2000/svg" viewBox="0 0 400 202.77"><defs><style>.cls-1{fill:#1928eb;}</style></defs><title>part-1</title><path class="cls-1" d="M5.29,78.67q.42,0,4.67-.61a6.89,6.89,0,0,1,.12.73c0,.33,0,.52-.09.55a3.93,3.93,0,0,0-.62.11,2.18,2.18,0,0,0-.77.41.91.91,0,0,0-.38.83,4.89,4.89,0,0,0,.86,2l8.79,14.4c.09.12.19.15.3.07a.6.6,0,0,0,.23-.27l2.39-5.73-4.82-8A16.4,16.4,0,0,0,13.74,80a2.74,2.74,0,0,0-1.08-.58,3.34,3.34,0,0,0-1.24-.17c-.1,0-.17-.21-.21-.65a1,1,0,0,1,.07-.63l5.14-.18q.31,0,4.56-.6a2.9,2.9,0,0,1,.16.73c0,.33,0,.52-.05.55a3.47,3.47,0,0,0-.71.13,1.93,1.93,0,0,0-.73.43.91.91,0,0,0-.33.79,5.41,5.41,0,0,0,.86,2l2.75,4.66,1.91-4.87a5.38,5.38,0,0,0,.53-2.19q-.06-.7-1-.91a5.76,5.76,0,0,0-1.67-.16c-.1,0-.17-.17-.2-.53a1.35,1.35,0,0,1,.06-.71Q26,77,26.8,77t1.61-.17l1.52-.22,1.31-.2a2.42,2.42,0,0,1,.13.71c0,.32,0,.5-.07.53a4.62,4.62,0,0,0-1.39.46,3.14,3.14,0,0,0-1.27.92,19.4,19.4,0,0,0-1.92,3.82l-2.37,6,4.37,7.38q.26.37.49-.23.63-1.89,3-8.16t2.61-6.92a5.9,5.9,0,0,0,.52-2.23q-.06-.7-1-.93a5.12,5.12,0,0,0-1.58-.19c-.1,0-.18-.17-.22-.53a1,1,0,0,1,.08-.71q3.43,0,4.3-.11T38.51,76L40,75.76l1.31-.2a3,3,0,0,1,.14.77q0,.46-.12.48a4.17,4.17,0,0,0-1.31.44,3.7,3.7,0,0,0-1.24.86,17.18,17.18,0,0,0-2,3.86l-7.38,19.51a2.61,2.61,0,0,1-.64,1,1.26,1.26,0,0,1-.69.37.53.53,0,0,1-.4-.12L22.2,93.55l-3.75,8.8a2.81,2.81,0,0,1-.64,1,1,1,0,0,1-.66.34.53.53,0,0,1-.4-.12L4.86,84A21,21,0,0,0,2.57,80.8a2.15,2.15,0,0,0-1.12-.54,4.39,4.39,0,0,0-1.24-.13c-.1,0-.17-.19-.2-.61a1.11,1.11,0,0,1,.06-.67Z"/><path class="cls-1" d="M56.39,82.94q5-.4,5.57,7.24l.32,4a14.23,14.23,0,0,0,.59,3.46q.06.27,1.07.48a5.89,5.89,0,0,0,1.36.18c.08,0,.14.18.18.55a4.07,4.07,0,0,1,0,.76q-.28,0-2.09,0t-2.67.1q-1,.08-2.61.33l-2,.32a1.46,1.46,0,0,1-.17-.73c0-.39,0-.58.07-.59a4.61,4.61,0,0,0,1.31-.4c.56-.24.88-.45.94-.64a14.76,14.76,0,0,0,0-2.85l-.3-3.8q-.26-3.22-1.23-4.37a3.18,3.18,0,0,0-2.87-1,3.73,3.73,0,0,0-2.08.83A1.84,1.84,0,0,0,51,88.36L51.51,95a14.27,14.27,0,0,0,.59,3.46c.07.18.42.34,1.07.48a5.5,5.5,0,0,0,1.32.19c.08,0,.14.18.18.55a2.23,2.23,0,0,1,0,.76q-.31,0-2,0t-2.63.09q-.93.07-2.68.33t-2.06.32a1.14,1.14,0,0,1-.21-.72c0-.39,0-.58.11-.59a5.4,5.4,0,0,0,1.39-.4q.93-.36,1-.64a12.51,12.51,0,0,0,0-2.81L46.28,79.92a15.43,15.43,0,0,0-.4-2.62q-.24-.6-2.07-.46l-.35,0c-.16,0-.25-.19-.28-.6s0-.63.18-.64q1.19-.21,2.26-.49c.71-.19,1.3-.36,1.77-.53s.87-.33,1.21-.49l1.07-.48h.08a.42.42,0,0,1,.33.19,1.1,1.1,0,0,1,.23.39,12.51,12.51,0,0,0-.18,3.68l.63,7.83c0,.15.07.23.17.22s.07,0,.15-.13a7.39,7.39,0,0,1,2.25-1.88A7.16,7.16,0,0,1,56.39,82.94Z"/><path class="cls-1" d="M75.28,81.43a8.58,8.58,0,0,1,6.43,2,8.34,8.34,0,0,1,3.07,5.94,8.81,8.81,0,0,1-17.56,1.4,8.38,8.38,0,0,1,2-6.37A8.52,8.52,0,0,1,75.28,81.43Zm-.36,1.86a3.13,3.13,0,0,0-2.69,2,8.36,8.36,0,0,0-.67,4.29,11.34,11.34,0,0,0,1.7,5.37A3.88,3.88,0,0,0,77,97a3.17,3.17,0,0,0,2.71-2,8.28,8.28,0,0,0,.69-4.27,13.31,13.31,0,0,0-.8-3.7,6.86,6.86,0,0,0-1.86-2.76A3.6,3.6,0,0,0,74.92,83.29Z"/><path class="cls-1" d="M107.75,78.84q5-.4,5.57,7.24l.32,4a14.27,14.27,0,0,0,.59,3.46q.06.27,1.07.48a6,6,0,0,0,1.36.18c.08,0,.14.18.18.55a4.16,4.16,0,0,1,0,.76q-.28,0-2.09,0t-2.67.1q-1,.08-2.61.33l-2,.32a1.46,1.46,0,0,1-.17-.73q0-.58.07-.59a4.6,4.6,0,0,0,1.31-.4q.85-.36.94-.64a14.75,14.75,0,0,0,0-2.85l-.3-3.8q-.26-3.22-1.23-4.37a3.18,3.18,0,0,0-2.87-1,3.73,3.73,0,0,0-2.08.83,1.84,1.84,0,0,0-.85,1.55l.53,6.67a14.26,14.26,0,0,0,.59,3.46c.07.18.42.34,1.07.48a5.49,5.49,0,0,0,1.32.19q.12,0,.18.55a2.2,2.2,0,0,1,0,.76q-.31,0-2,0t-2.63.09q-.93.07-2.68.33t-2.06.32a1.14,1.14,0,0,1-.21-.72c0-.39,0-.59.11-.59a5.4,5.4,0,0,0,1.39-.4q.93-.36,1-.64a12.51,12.51,0,0,0,0-2.81L97.64,75.82a15.32,15.32,0,0,0-.4-2.62q-.24-.6-2.07-.46l-.35,0c-.16,0-.25-.19-.28-.6s0-.63.18-.64Q95.91,71.32,97,71t1.77-.53c.47-.17.87-.33,1.21-.49l1.07-.48h.08a.42.42,0,0,1,.33.19,1.07,1.07,0,0,1,.23.39,12.54,12.54,0,0,0-.17,3.68l.63,7.83c0,.15.07.23.17.22s.07,0,.15-.13a7.39,7.39,0,0,1,2.25-1.88A7.16,7.16,0,0,1,107.75,78.84Z"/><path class="cls-1" d="M126,77.38a4.77,4.77,0,0,1,3.71,1q1.3,1.16,1.55,4.23l.61,7.64a1.78,1.78,0,0,0,.44,1.16,1.17,1.17,0,0,0,1,.33,2.42,2.42,0,0,0,1.28-.61c.16,0,.25.17.27.41a2.31,2.31,0,0,1-.14,1.18,9.57,9.57,0,0,1-1.47,1.09,4.05,4.05,0,0,1-1.82.65,2.83,2.83,0,0,1-1.8-.52,3.18,3.18,0,0,1-1.24-1.34l-.27.27q-.24.23-.66.58a11.43,11.43,0,0,1-1,.7,6.24,6.24,0,0,1-1.28.63,5.62,5.62,0,0,1-1.51.34,4.64,4.64,0,0,1-3.24-.81A3.69,3.69,0,0,1,119,91.44a3.59,3.59,0,0,1,.31-1.78,4.66,4.66,0,0,1,1-1.42,8,8,0,0,1,1.58-1.16,15.93,15.93,0,0,1,1.74-.9q.74-.31,1.89-.76l1.61-.64a.61.61,0,0,0,.3-.65L127.2,82a3.34,3.34,0,0,0-.79-2.08,2,2,0,0,0-1.73-.64,2.36,2.36,0,0,0-1.76.86,2.91,2.91,0,0,0-.5,2.09,1.26,1.26,0,0,1-.49,1.19,2.41,2.41,0,0,1-1.29.47,2.19,2.19,0,0,1-2.09-.77q-.15-1.86,2.26-3.69A9.75,9.75,0,0,1,126,77.38Zm-.56,15a3,3,0,0,0,1.76-.69,1.54,1.54,0,0,0,.66-1.3l-.32-4q-.26.14-1.11.48t-1.3.57a11,11,0,0,0-1,.63,2.35,2.35,0,0,0-.84.93,2.14,2.14,0,0,0-.21,1.11,2.4,2.4,0,0,0,.77,1.77A2.24,2.24,0,0,0,125.46,92.41Z"/><path class="cls-1" d="M142.11,76.06a16.54,16.54,0,0,1,4.55.3,22.07,22.07,0,0,1,.77,4.31q0,.31-.48.35-.85.07-1-.24a4.73,4.73,0,0,0-1.33-2.22,3,3,0,0,0-2.42-.76,2.79,2.79,0,0,0-1.72.64,1.72,1.72,0,0,0-.53,1.49,2.24,2.24,0,0,0,.29,1,2.42,2.42,0,0,0,.76.78,9.74,9.74,0,0,0,.9.55c.26.13.64.31,1.16.53a2.55,2.55,0,0,0,.4.16l.61.26.67.3.65.32a7,7,0,0,1,.71.39l.64.42a3.12,3.12,0,0,1,.63.5l.51.56a2.5,2.5,0,0,1,.46.67,7.56,7.56,0,0,1,.27.72,3.61,3.61,0,0,1,.16.83,4.58,4.58,0,0,1-1.57,4,7.39,7.39,0,0,1-4.44,1.78,13,13,0,0,1-5.09-.69,15.53,15.53,0,0,1-.56-2.12,18.92,18.92,0,0,1-.37-2.21.83.83,0,0,1,.53-.24c.59,0,.91,0,1,.24A4.29,4.29,0,0,0,140,91.15a4.15,4.15,0,0,0,2.73.78,2.82,2.82,0,0,0,1.74-.69,1.89,1.89,0,0,0,.57-1.64,2.58,2.58,0,0,0-.15-.71,1.91,1.91,0,0,0-.42-.63l-.49-.51a2.82,2.82,0,0,0-.74-.47l-.81-.38-1-.43-1-.44a9,9,0,0,1-2.92-1.85,4.49,4.49,0,0,1,.38-6.49A7.5,7.5,0,0,1,142.11,76.06Z"/><path class="cls-1" d="M161.34,77.29l-2.37.19c-.18,0-.3-.31-.35-1a1,1,0,0,1,0-.35,10.87,10.87,0,0,0,2.82-2.29c.31-.36.65-.77,1-1.23s.79-1,1.28-1.76a2.72,2.72,0,0,1,.74,0c.24,0,.36.11.37.18l.3,3.8,2.81-.21,1.92-.13c.21,0,.32.09.34.32A3.77,3.77,0,0,1,170,76.6l-4.65.37.75,9.34a3.7,3.7,0,0,0,.85,2.31,2.22,2.22,0,0,0,1.89.67,3.65,3.65,0,0,0,.81-.16,4.09,4.09,0,0,0,.68-.27l.49-.27a1.18,1.18,0,0,1,.26-.14q.15,0,.38.32c.15.25.21.41.2.49q-.19.56-1.55,1.39a6.12,6.12,0,0,1-2.71.94,4.9,4.9,0,0,1-3.53-1,5.21,5.21,0,0,1-1.74-3.9Z"/><path class="cls-1" d="M185.52,72.63q5-.4,5.57,7.24l.32,4a14.26,14.26,0,0,0,.59,3.46q.06.27,1.07.48a5.89,5.89,0,0,0,1.36.18q.12,0,.18.55a4,4,0,0,1,0,.76c-.18,0-.88,0-2.09,0s-2.1.05-2.66.1-1.52.16-2.61.33l-2,.32a1.45,1.45,0,0,1-.18-.73c0-.39,0-.58.07-.59a4.61,4.61,0,0,0,1.31-.4q.85-.36.94-.64a14.76,14.76,0,0,0,0-2.85l-.3-3.8q-.26-3.22-1.23-4.37a3.18,3.18,0,0,0-2.87-1,3.72,3.72,0,0,0-2.08.83,1.83,1.83,0,0,0-.85,1.55l.53,6.67a14.25,14.25,0,0,0,.59,3.46c.07.18.42.34,1.07.48a5.53,5.53,0,0,0,1.32.19c.08,0,.14.18.18.55a2.26,2.26,0,0,1,0,.76q-.31,0-2,0t-2.63.09c-.62,0-1.52.16-2.68.33s-1.86.28-2.06.32a1.14,1.14,0,0,1-.21-.72c0-.39,0-.58.11-.59a5.4,5.4,0,0,0,1.39-.4q.93-.36,1-.64a12.52,12.52,0,0,0,0-2.81l-1.29-16.13A15.34,15.34,0,0,0,175,67q-.24-.6-2.07-.46l-.35,0c-.16,0-.25-.19-.28-.6s0-.63.18-.64q1.19-.21,2.26-.49t1.77-.53q.7-.25,1.21-.49l1.07-.48h.08a.42.42,0,0,1,.33.19,1.07,1.07,0,0,1,.23.39,12.55,12.55,0,0,0-.17,3.68l.63,7.83c0,.15.07.23.17.22s.07,0,.15-.13a7.41,7.41,0,0,1,2.25-1.88A7.17,7.17,0,0,1,185.52,72.63Z"/><path class="cls-1" d="M203.59,71.19a7.2,7.2,0,0,1,3.31.46,6.16,6.16,0,0,1,2.39,1.64,9.08,9.08,0,0,1,1.42,2.19,6.71,6.71,0,0,1,.61,2.23q.07.85-.21,1.09a2.2,2.2,0,0,1-1.17.31l-9.26.74c-.18,0-.26.1-.25.25a7.56,7.56,0,0,0,.72,2.67,5.34,5.34,0,0,0,1.91,2.15,4.58,4.58,0,0,0,3,.74,10.48,10.48,0,0,0,1.12-.15,5.89,5.89,0,0,0,1-.27l.79-.32a3.31,3.31,0,0,0,.69-.41l.5-.37.73-.58a.64.64,0,0,1,.21.22.75.75,0,0,1,.15.38,1.19,1.19,0,0,1-.17.76A6.32,6.32,0,0,1,209,87.18a7.21,7.21,0,0,1-3.75,1.35,7.87,7.87,0,0,1-6-2,8.39,8.39,0,0,1-2.93-5.87A9,9,0,0,1,198,74.09,7.54,7.54,0,0,1,203.59,71.19ZM203.46,73a2.74,2.74,0,0,0-1.62.68,3.64,3.64,0,0,0-1,1.41,7.4,7.4,0,0,0-.45,1.5,4.77,4.77,0,0,0-.08,1.16c0,.18.1.26.25.25l6.28-.5c.23,0,.33-.22.3-.61A5,5,0,0,0,206,74.19,2.79,2.79,0,0,0,203.46,73Z"/><path class="cls-1" d="M232.8,68.85a3.88,3.88,0,0,1,3.28,1q.26,3.29-1.6,3.44a2.31,2.31,0,0,1-1.57-.66,2.44,2.44,0,0,0-1.73-.64,2.09,2.09,0,0,0-1.78,1.37,5.17,5.17,0,0,0-.48,2.59l.39,4.85a16.26,16.26,0,0,0,.55,3.47q.1.27,1.07.48a5.49,5.49,0,0,0,1.32.19c.08,0,.14.18.18.55a4,4,0,0,1,0,.76q-.31,0-2.07,0t-2.65.09q-.93.07-2.68.33T223,87a1.14,1.14,0,0,1-.21-.72q0-.58.11-.59a5.44,5.44,0,0,0,1.39-.4q.93-.37,1-.64a12.74,12.74,0,0,0,0-2.85l-.5-6.32a3.69,3.69,0,0,0-.82-2.43,1.86,1.86,0,0,0-.92-.51,4.36,4.36,0,0,0-.95-.16c-.25,0-.37,0-.38-.09-.06-.75,0-1.14.1-1.18A55.08,55.08,0,0,0,228,69.47l.3-.1c.1,0,.2.08.29.25a1,1,0,0,1,.13.44c0,.12,0,.3,0,.55s0,.51,0,.78a4.88,4.88,0,0,0,0,.53,7.13,7.13,0,0,1,1.75-2A4.26,4.26,0,0,1,232.8,68.85Z"/><path class="cls-1" d="M246.34,79.48a14.3,14.3,0,0,0,.59,3.46q.1.27,1.09.48a5.65,5.65,0,0,0,1.34.19c.1,0,.18.18.22.55a2.23,2.23,0,0,1,0,.76q-.28,0-2.09,0c-1.21,0-2.1,0-2.66.1s-1.55.16-2.72.33-1.84.28-2,.32a1.14,1.14,0,0,1-.21-.72q0-.58.11-.59a5.7,5.7,0,0,0,1.37-.4q.94-.37,1-.65a12.73,12.73,0,0,0,0-2.85l-.5-6.32a3.7,3.7,0,0,0-.82-2.43,2.15,2.15,0,0,0-.94-.51,4.1,4.1,0,0,0-.95-.16c-.26,0-.39,0-.4-.09q-.09-1.12.14-1.18a29.83,29.83,0,0,0,3.1-.71,30.22,30.22,0,0,0,3-.94l.3-.1c.13,0,.24.07.33.25a.72.72,0,0,1,.11.42q-.11,2.51,0,3.36ZM241,63.58a2.37,2.37,0,0,1-.83-1.65,2.41,2.41,0,0,1,4.81-.38,2.37,2.37,0,0,1-.56,1.76,2.39,2.39,0,0,1-3.41.27Z"/><path class="cls-1" d="M257.95,66.93a12.33,12.33,0,0,1,3.26.25,11.93,11.93,0,0,0,3.14.26l2.21-.18c.05,0,.16.16.31.48a2.39,2.39,0,0,1,.26.76c0,.36,0,.55-.19.56l-2.52.2c-.1,0-.15.05-.15.13s.15.35.43,1a5.5,5.5,0,0,1,.5,1.83,5.62,5.62,0,0,1-1.59,4.28A6.66,6.66,0,0,1,259,78.7a15.85,15.85,0,0,1-2.42,0,2.09,2.09,0,0,0-.8.79,1.64,1.64,0,0,0-.31,1,.8.8,0,0,0,.42.63,2.64,2.64,0,0,0,1.17.3c.52,0,1,.05,1.33,0l1.56,0,.58,0a13.76,13.76,0,0,1,5.76.61,3.06,3.06,0,0,1,2,2.71A6.12,6.12,0,0,1,265.91,90a10.63,10.63,0,0,1-6.38,2.65,10.1,10.1,0,0,1-5-.69,3.49,3.49,0,0,1-2.37-3,3,3,0,0,1,.93-2.26A6.42,6.42,0,0,1,255.33,85a4.43,4.43,0,0,1-2-1,2.83,2.83,0,0,1-1-2q-.13-1.67,2.59-3.68a5.16,5.16,0,0,1-2.25-1.83,5.72,5.72,0,0,1-1.22-3.08,5.25,5.25,0,0,1,1.67-4.5A7.73,7.73,0,0,1,257.95,66.93Zm7,19.85q-.11-1.36-2.1-1.65a24.71,24.71,0,0,0-5.29,0,.63.63,0,0,0-.19.05l-.18.13c-.33.16-.58.29-.75.39a3.38,3.38,0,0,0-.59.48,1.89,1.89,0,0,0-.47.72,2.27,2.27,0,0,0-.1.95A2.72,2.72,0,0,0,256.9,90a6.05,6.05,0,0,0,3.37.67,5.88,5.88,0,0,0,3.47-1.29A3,3,0,0,0,264.92,86.77Zm-9.47-14a6.16,6.16,0,0,0,1,3.14A2.42,2.42,0,0,0,258.75,77a2.31,2.31,0,0,0,2-1.27,5.15,5.15,0,0,0,.46-2.79,6.39,6.39,0,0,0-1-3.27,2.48,2.48,0,0,0-2.35-1.1,2.19,2.19,0,0,0-2,1.37A5.65,5.65,0,0,0,255.45,72.78Z"/><path class="cls-1" d="M282.1,64.92q5-.4,5.57,7.24l.32,4a14.25,14.25,0,0,0,.59,3.46q.06.27,1.07.48a6,6,0,0,0,1.36.18c.08,0,.14.18.18.55a4.17,4.17,0,0,1,0,.76q-.28,0-2.09,0t-2.67.1q-1,.08-2.61.33l-2,.32a1.45,1.45,0,0,1-.18-.73q0-.58.07-.59a4.64,4.64,0,0,0,1.31-.4c.57-.24.88-.45.94-.64a14.75,14.75,0,0,0,0-2.85l-.3-3.8q-.26-3.22-1.23-4.37a3.18,3.18,0,0,0-2.87-1,3.72,3.72,0,0,0-2.08.83,1.84,1.84,0,0,0-.85,1.55l.53,6.67a14.24,14.24,0,0,0,.59,3.46q.1.27,1.07.48a5.49,5.49,0,0,0,1.32.19c.08,0,.14.18.18.55a2.23,2.23,0,0,1,0,.76q-.31,0-2,0t-2.63.09q-.93.07-2.68.33t-2.06.32a1.15,1.15,0,0,1-.21-.72c0-.39,0-.59.11-.59a5.48,5.48,0,0,0,1.39-.4q.92-.37,1-.64a12.52,12.52,0,0,0,0-2.81L272,61.9a15.4,15.4,0,0,0-.4-2.62q-.24-.6-2.07-.46l-.35,0c-.16,0-.25-.19-.28-.6s0-.63.18-.64q1.19-.21,2.26-.49t1.77-.53q.7-.25,1.21-.49l1.07-.48h.08a.42.42,0,0,1,.33.19,1.06,1.06,0,0,1,.23.39,12.55,12.55,0,0,0-.17,3.68l.63,7.83c0,.16.07.23.17.22s.07,0,.15-.13A7.42,7.42,0,0,1,279,65.92,7.19,7.19,0,0,1,282.1,64.92Z"/><path class="cls-1" d="M294.69,66.64l-2.37.19q-.27,0-.35-1a1,1,0,0,1,0-.35,10.89,10.89,0,0,0,2.82-2.29q.46-.54,1-1.23t1.28-1.76a2.76,2.76,0,0,1,.74,0c.24,0,.36.11.37.19l.3,3.8,2.81-.21,1.92-.13c.21,0,.32.09.34.32a3.79,3.79,0,0,1-.25,1.74l-4.65.37.75,9.34a3.69,3.69,0,0,0,.85,2.31,2.22,2.22,0,0,0,1.89.67,3.7,3.7,0,0,0,.81-.16,4,4,0,0,0,.68-.27l.49-.27a1.22,1.22,0,0,1,.26-.14q.15-.05.38.32c.15.25.21.41.2.49q-.19.56-1.55,1.39a6.13,6.13,0,0,1-2.71.94,4.91,4.91,0,0,1-3.54-1,5.21,5.21,0,0,1-1.74-3.9Z"/><path class="cls-1" d="M317.16,64.85l-2.37.19q-.27,0-.35-1a1,1,0,0,1,0-.35,10.89,10.89,0,0,0,2.82-2.29q.46-.54,1-1.23t1.28-1.76a2.8,2.8,0,0,1,.74,0q.36.07.37.18l.3,3.8,2.81-.21,1.92-.13c.21,0,.32.09.34.32a3.77,3.77,0,0,1-.25,1.74l-4.65.37.75,9.34a3.69,3.69,0,0,0,.85,2.31,2.22,2.22,0,0,0,1.89.67,3.67,3.67,0,0,0,.81-.16,4,4,0,0,0,.68-.27l.49-.27a1.25,1.25,0,0,1,.26-.14q.15,0,.38.32c.15.25.21.41.2.49q-.19.56-1.55,1.39a6.12,6.12,0,0,1-2.71.94,4.9,4.9,0,0,1-3.54-1,5.21,5.21,0,0,1-1.74-3.9Z"/><path class="cls-1" d="M337.42,60.5a8.57,8.57,0,0,1,6.42,2,8.33,8.33,0,0,1,3.07,5.94,8.87,8.87,0,1,1-9.49-8Zm-.36,1.86a3.13,3.13,0,0,0-2.69,2,8.36,8.36,0,0,0-.67,4.29,11.33,11.33,0,0,0,1.7,5.37,3.88,3.88,0,0,0,3.69,2,3.17,3.17,0,0,0,2.71-2,8.27,8.27,0,0,0,.69-4.27,13.35,13.35,0,0,0-.8-3.7,6.87,6.87,0,0,0-1.86-2.76A3.61,3.61,0,0,0,337.06,62.37Z"/><path class="cls-1" d="M44,153.08a9.42,9.42,0,0,1,3.58,1.08,6.22,6.22,0,0,1,2.14,1.74A4.81,4.81,0,0,1,49,158a1.44,1.44,0,0,1-1.43.72,1.74,1.74,0,0,1-1.14-.52,4.44,4.44,0,0,1-.77-1.37,2.82,2.82,0,0,0-2.4-2.06,3,3,0,0,0-2.83,1.39A8.3,8.3,0,0,0,39,160.32a7.88,7.88,0,0,0,.87,5.32,4.59,4.59,0,0,0,3.45,2.08,10.67,10.67,0,0,0,1.13.06,5.79,5.79,0,0,0,1-.08l.84-.16a3.34,3.34,0,0,0,.75-.27l.56-.27.83-.44a.65.65,0,0,1,.17.25.74.74,0,0,1,.07.4,1.2,1.2,0,0,1-.31.71,6.35,6.35,0,0,1-2.51,1.84,7.15,7.15,0,0,1-3.9.63,7.86,7.86,0,0,1-5.58-3.15,8.58,8.58,0,0,1-1.74-6.41,8.84,8.84,0,0,1,3-5.83A7.84,7.84,0,0,1,44,153.08Z"/><path class="cls-1" d="M69.34,160.07l-.84,7.65a8.58,8.58,0,0,0,0,2.74.81.81,0,0,0,.41.36,3,3,0,0,0,.66.23,6.08,6.08,0,0,0,.63.11c.19,0,.3,0,.32.08s.14.16.12.36a2.91,2.91,0,0,1-.13.51c-.08.24-.17.35-.27.34a9,9,0,0,0-1.39,0l-1.63.09q-.79.05-1.5.13t-1.58.14q-.27,0-.2-.65l.19-1.7c0-.13,0-.2-.1-.21a8.68,8.68,0,0,1-2.55,1.48,6.52,6.52,0,0,1-3.14.44,4.08,4.08,0,0,1-2.23-.91,4.7,4.7,0,0,1-1.36-1.87,8.35,8.35,0,0,1-.57-2.33,11.93,11.93,0,0,1,0-2.46l.47-4.33a3.7,3.7,0,0,0-.35-2.54,2.18,2.18,0,0,0-.83-.68,4.15,4.15,0,0,0-.9-.33c-.25-.05-.38-.11-.37-.16.08-.75.19-1.13.32-1.14a28.9,28.9,0,0,0,3.22-.12,30.46,30.46,0,0,0,3.13-.36l.16,0,.16,0c.13,0,.22.12.26.3a1.4,1.4,0,0,1,0,.44q-.63,2.59-.72,3.36l-.51,4.64a8.34,8.34,0,0,0,.38,4.42,3.43,3.43,0,0,0,4.77,1.09,2.07,2.07,0,0,0,1-1.36l.7-6.38a3.7,3.7,0,0,0-.35-2.54,1.88,1.88,0,0,0-.81-.67,4.41,4.41,0,0,0-.92-.34c-.26-.05-.38-.11-.37-.16q.12-1.12.36-1.13a30,30,0,0,0,3.18-.12,30.36,30.36,0,0,0,3.13-.36l.32,0c.13,0,.22.12.28.3a.72.72,0,0,1,0,.43Q69.41,159.38,69.34,160.07Z"/><path class="cls-1" d="M80.22,168.7a16,16,0,0,0-.11,3.51c0,.19.33.42.88.7a4.25,4.25,0,0,0,1.14.46c.08,0,.1.19.08.56a2.11,2.11,0,0,1-.14.73l-1.44-.26L79,174.12q-.73-.12-1.39-.19t-1.47-.12l-1.63-.08L73,173.66a1.11,1.11,0,0,1-.08-.73q.06-.56.22-.54a4.17,4.17,0,0,0,1.33-.19c.6-.16.94-.32,1-.5a12.85,12.85,0,0,0,.62-2.83l1.76-16.08a13.66,13.66,0,0,0,.06-2.65q-.13-.64-1.87-.83l-.39,0c-.15,0-.21-.18-.18-.49s.14-.61.3-.59q1.21,0,2.32-.06t1.84-.19c.49-.08.92-.15,1.28-.23l.86-.2.28-.09h.08c.1,0,.2.1.3.27a1.19,1.19,0,0,1,.17.41,12.29,12.29,0,0,0-.86,3.58Z"/><path class="cls-1" d="M88.5,160.68l-2.36-.26c-.18,0-.23-.36-.16-1a1,1,0,0,1,.08-.34,10.84,10.84,0,0,0,3.2-1.72q.56-.45,1.23-1t1.59-1.49a2.75,2.75,0,0,1,.72.18c.23.09.33.17.33.25L92.71,159l2.8.33,1.91.23q.31,0,.27.38a3.79,3.79,0,0,1-.57,1.66l-4.64-.51-1,9.32a3.7,3.7,0,0,0,.4,2.43,2.22,2.22,0,0,0,1.73,1,3.75,3.75,0,0,0,.82,0,4.25,4.25,0,0,0,.72-.14l.53-.18a1.21,1.21,0,0,1,.28-.09q.16,0,.31.39a.91.91,0,0,1,.1.52,3.57,3.57,0,0,1-1.78,1.08,6.12,6.12,0,0,1-2.84.41,4.91,4.91,0,0,1-3.28-1.67,5.21,5.21,0,0,1-1-4.16Z"/><path class="cls-1" d="M116.92,165.28l-.84,7.65a8.58,8.58,0,0,0,0,2.74.79.79,0,0,0,.41.36,3,3,0,0,0,.66.23,5.81,5.81,0,0,0,.63.11.7.7,0,0,1,.32.07c.1,0,.14.16.12.37a3,3,0,0,1-.13.51q-.12.36-.27.34a9,9,0,0,0-1.39,0l-1.63.1q-.79.05-1.5.13t-1.58.14c-.18,0-.25-.24-.2-.65l.19-1.7c0-.13,0-.2-.09-.21a8.69,8.69,0,0,1-2.55,1.48,6.52,6.52,0,0,1-3.14.44,4.07,4.07,0,0,1-2.23-.91,4.7,4.7,0,0,1-1.36-1.87,8.38,8.38,0,0,1-.57-2.33,11.94,11.94,0,0,1,0-2.46l.47-4.33a3.7,3.7,0,0,0-.35-2.54,2.18,2.18,0,0,0-.83-.68,4.1,4.1,0,0,0-.9-.33c-.26-.05-.38-.11-.37-.16.08-.75.19-1.13.32-1.14a29.4,29.4,0,0,0,3.22-.12,30.44,30.44,0,0,0,3.13-.36l.16,0,.16,0c.13,0,.22.12.26.3a1.38,1.38,0,0,1,0,.44q-.64,2.59-.72,3.36l-.51,4.64a8.33,8.33,0,0,0,.38,4.42,3.43,3.43,0,0,0,4.77,1.09,2.07,2.07,0,0,0,1-1.36l.7-6.38a3.71,3.71,0,0,0-.35-2.54,1.88,1.88,0,0,0-.81-.67,4.45,4.45,0,0,0-.92-.34c-.26-.05-.38-.11-.37-.16q.12-1.12.36-1.13a29.9,29.9,0,0,0,3.18-.12,30.43,30.43,0,0,0,3.13-.36l.32,0c.13,0,.22.12.28.3a.72.72,0,0,1,0,.43Q117,164.58,116.92,165.28Z"/><path class="cls-1" d="M133.66,162.88a3.88,3.88,0,0,1,3,1.62q-.36,3.29-2.21,3.08a2.31,2.31,0,0,1-1.42-.94,2.44,2.44,0,0,0-1.58-1,2.09,2.09,0,0,0-2,1,5.18,5.18,0,0,0-1,2.46L128,174a16.3,16.3,0,0,0-.11,3.51q0,.28,1,.67a5.52,5.52,0,0,0,1.26.43c.08,0,.1.2.08.58a4.1,4.1,0,0,1-.1.75q-.31-.07-2-.38t-2.62-.4q-.93-.1-2.7-.18t-2.09-.07a1.14,1.14,0,0,1-.07-.75c0-.39.12-.57.22-.56a5.39,5.39,0,0,0,1.44-.14c.65-.12,1-.27,1.08-.45a12.64,12.64,0,0,0,.58-2.79l.69-6.3a3.71,3.71,0,0,0-.35-2.54,1.88,1.88,0,0,0-.81-.67,4.5,4.5,0,0,0-.9-.33c-.24-.05-.36-.1-.35-.16q.12-1.12.32-1.14a55,55,0,0,0,6.35-.48l.32,0c.1,0,.18.11.24.3a1,1,0,0,1,0,.46l-.12.54q-.08.36-.18.76a5.16,5.16,0,0,0-.12.52,7.16,7.16,0,0,1,2.1-1.67A4.27,4.27,0,0,1,133.66,162.88Z"/><path class="cls-1" d="M147.47,164.39a4.77,4.77,0,0,1,3.46,1.65q1.06,1.39.73,4.44l-.83,7.62a1.78,1.78,0,0,0,.22,1.22,1.17,1.17,0,0,0,.88.51,2.42,2.42,0,0,0,1.37-.36c.15.07.21.22.19.45a2.32,2.32,0,0,1-.36,1.13,9.72,9.72,0,0,1-1.65.8,4.06,4.06,0,0,1-1.91.3,2.84,2.84,0,0,1-1.67-.85,3.19,3.19,0,0,1-1-1.55l-.32.22q-.28.18-.75.45a11.44,11.44,0,0,1-1.07.51,6.14,6.14,0,0,1-1.37.38,5.61,5.61,0,0,1-1.55,0,4.64,4.64,0,0,1-3-1.41,3.69,3.69,0,0,1-.9-3.05,3.58,3.58,0,0,1,.64-1.69,4.64,4.64,0,0,1,1.21-1.22,8,8,0,0,1,1.77-.84,15.63,15.63,0,0,1,1.88-.56q.78-.17,2-.39l1.7-.32a.61.61,0,0,0,.42-.58l.23-2.13a3.34,3.34,0,0,0-.39-2.19,2,2,0,0,0-1.58-1,2.36,2.36,0,0,0-1.9.52,2.91,2.91,0,0,0-.88,2,1.26,1.26,0,0,1-.7,1.08,2.41,2.41,0,0,1-1.35.22,2.19,2.19,0,0,1-1.91-1.15q.2-1.86,2.91-3.2A9.75,9.75,0,0,1,147.47,164.39ZM144.1,179a3,3,0,0,0,1.86-.34,1.54,1.54,0,0,0,.89-1.15l.43-3.94c-.19.06-.58.14-1.18.26s-1.06.22-1.38.32a10.76,10.76,0,0,0-1.14.42,2.34,2.34,0,0,0-1,.75,2.15,2.15,0,0,0-.41,1.05,2.4,2.4,0,0,0,.42,1.88A2.24,2.24,0,0,0,144.1,179Z"/><path class="cls-1" d="M162.69,177.71a16,16,0,0,0-.11,3.51c0,.19.33.42.88.7a4.23,4.23,0,0,0,1.14.46q.12,0,.08.56a2.08,2.08,0,0,1-.14.73l-1.44-.25-1.63-.28q-.73-.12-1.39-.19t-1.47-.12l-1.63-.08-1.48-.06a1.1,1.1,0,0,1-.08-.73c0-.37.11-.55.22-.54a4.2,4.2,0,0,0,1.33-.19q.9-.23,1-.5a12.86,12.86,0,0,0,.62-2.83l1.76-16.08a13.67,13.67,0,0,0,.06-2.65q-.13-.64-1.87-.83l-.39,0c-.15,0-.21-.18-.18-.49s.14-.61.3-.59q1.21,0,2.32-.06t1.84-.19q.74-.11,1.28-.23l.86-.2.28-.09h.08c.1,0,.2.1.3.27a1.19,1.19,0,0,1,.17.41,12.29,12.29,0,0,0-.86,3.58Z"/><path class="cls-1" d="M174.49,179a16,16,0,0,0-.11,3.51c0,.19.33.42.88.7a4.25,4.25,0,0,0,1.14.46q.12,0,.08.56a2.09,2.09,0,0,1-.14.73l-1.44-.25-1.63-.28c-.49-.08-.95-.14-1.39-.19s-1-.09-1.47-.12l-1.63-.08-1.48-.06a1.1,1.1,0,0,1-.08-.73c0-.37.11-.56.22-.54a4.15,4.15,0,0,0,1.33-.19c.6-.15.94-.32,1-.5a12.86,12.86,0,0,0,.62-2.83l1.76-16.08a13.51,13.51,0,0,0,.05-2.65q-.13-.64-1.87-.83l-.39,0c-.15,0-.21-.18-.18-.49s.14-.61.3-.59q1.21,0,2.32-.06t1.84-.19q.74-.11,1.28-.23l.86-.2.28-.09h.08c.1,0,.2.1.3.27a1.21,1.21,0,0,1,.17.41,12.29,12.29,0,0,0-.86,3.58Z"/><path class="cls-1" d="M184.91,168.88q.85.09,2.45.15t2,.1a2.58,2.58,0,0,1,0,.7c0,.36-.11.54-.21.53a4.2,4.2,0,0,0-1.25.16q-.86.2-.94.54l0,.23q0,.63,2.63,9.21.38-.66,1.92-3.64t1.78-3.42a3.68,3.68,0,0,0,.36-1.17,1.23,1.23,0,0,0-.52-1,3.2,3.2,0,0,0-1.81-.65c-.1,0-.13-.21-.09-.6a1,1,0,0,1,.23-.64q.46.05,1.88.32c.94.18,1.73.31,2.35.37s1.21.09,2,.1,1.37,0,1.73.07a1.1,1.1,0,0,1,.09.63c0,.41-.12.61-.22.6a4.91,4.91,0,0,0-1.61.21,2.15,2.15,0,0,0-1.46,1L187.25,189q-3,5.38-6.38,5a2.1,2.1,0,0,1-1.49-.71,1.82,1.82,0,0,1,.49-2.72q4,.44,5.64-2.59l1.33-2.51-4.21-13.76a5.13,5.13,0,0,0-.37-.94,2.33,2.33,0,0,0-1-1,3.66,3.66,0,0,0-1.22-.43c-.1,0-.13-.2-.09-.56s.11-.64.19-.68l2.06.34Q184,168.77,184.91,168.88Z"/><path class="cls-1" d="M216.25,171.87a16.57,16.57,0,0,1,4.41,1.15,22,22,0,0,1,0,4.38c0,.21-.2.29-.54.25-.57-.06-.87-.2-.9-.41a4.71,4.71,0,0,0-.89-2.43,3,3,0,0,0-2.24-1.2,2.8,2.8,0,0,0-1.81.31,1.73,1.73,0,0,0-.79,1.36,2.27,2.27,0,0,0,.11,1,2.43,2.43,0,0,0,.6.91,9.78,9.78,0,0,0,.78.71q.34.27,1,.74a2.43,2.43,0,0,0,.36.24l.55.37.6.42.58.43a6.85,6.85,0,0,1,.63.52l.55.53a3.08,3.08,0,0,1,.52.6l.4.65a2.5,2.5,0,0,1,.33.74,7.29,7.29,0,0,1,.13.76,3.67,3.67,0,0,1,0,.84,4.59,4.59,0,0,1-2.29,3.64,7.38,7.38,0,0,1-4.7.91,13,13,0,0,1-4.87-1.63,15.8,15.8,0,0,1-.15-2.19,19,19,0,0,1,.05-2.24.82.82,0,0,1,.56-.13q.89.1.89.41a4.29,4.29,0,0,0,1.24,2.78,4.16,4.16,0,0,0,2.54,1.28,2.83,2.83,0,0,0,1.84-.35,1.9,1.9,0,0,0,.87-1.51,2.59,2.59,0,0,0,0-.73,1.9,1.9,0,0,0-.3-.7l-.38-.59a2.84,2.84,0,0,0-.64-.6l-.72-.53-.91-.61-.93-.63a9.05,9.05,0,0,1-2.52-2.37,4.49,4.49,0,0,1,1.59-6.3A7.49,7.49,0,0,1,216.25,171.87Z"/><path class="cls-1" d="M235,174a7.87,7.87,0,0,1,4.27,1.76,8.15,8.15,0,0,1,3,7.3,9.1,9.1,0,0,1-10.09,8.21,9.06,9.06,0,0,1-2.69-.84c-.1,0-.17.16-.21.52l-.29,2.63a14,14,0,0,0-.07,3.51q0,.31,1,.71a5.94,5.94,0,0,0,1.3.44q.11,0,.07.58a3.4,3.4,0,0,1-.1.71q-.27,0-2.06-.34t-2.63-.41q-1-.11-2.74-.18t-2.08-.11a1.41,1.41,0,0,1,0-.73c0-.37.1-.56.18-.55a5.42,5.42,0,0,0,1.44-.14q1-.19,1.13-.48a14.23,14.23,0,0,0,.54-2.76l1.62-14.77a3.77,3.77,0,0,0-.34-2.58,1.74,1.74,0,0,0-.79-.65,4.72,4.72,0,0,0-.9-.31q-.38-.08-.37-.16c.08-.75.2-1.12.36-1.13a29.92,29.92,0,0,0,5.88-.45l.75-.11q.16,0,.07.83a2.07,2.07,0,0,1-.13.46,7.8,7.8,0,0,1,1.82-.72A5.59,5.59,0,0,1,235,174ZM233.89,176a2.94,2.94,0,0,0-2.15.51,2.57,2.57,0,0,0-1,1.88l-.87,8a2.39,2.39,0,0,0,.82,2.14,3.79,3.79,0,0,0,2.16,1,3.65,3.65,0,0,0,3.17-1.3,7.51,7.51,0,0,0,1.72-4.43,10,10,0,0,0-.67-5.33A3.83,3.83,0,0,0,233.89,176Z"/><path class="cls-1" d="M253.69,176a7.21,7.21,0,0,1,3.17,1.07,6.16,6.16,0,0,1,2,2.06,9,9,0,0,1,1,2.42,6.7,6.7,0,0,1,.18,2.31q-.09.85-.41,1a2.21,2.21,0,0,1-1.2.08l-9.24-1c-.18,0-.28,0-.3.2a7.6,7.6,0,0,0,.21,2.76,5.35,5.35,0,0,0,1.47,2.47,4.58,4.58,0,0,0,2.81,1.29,10.43,10.43,0,0,0,1.13.06,5.79,5.79,0,0,0,1-.08l.84-.16a3.27,3.27,0,0,0,.75-.27l.56-.27.83-.44a.65.65,0,0,1,.17.25.74.74,0,0,1,.07.4,1.2,1.2,0,0,1-.31.71,6.34,6.34,0,0,1-2.51,1.84,7.22,7.22,0,0,1-3.94.63,7.88,7.88,0,0,1-5.53-3.13,8.39,8.39,0,0,1-1.77-6.32,9,9,0,0,1,3-6.09A7.53,7.53,0,0,1,253.69,176Zm-.46,1.75a2.74,2.74,0,0,0-1.72.36,3.65,3.65,0,0,0-1.27,1.19,7.46,7.46,0,0,0-.72,1.39,4.82,4.82,0,0,0-.3,1.12c0,.18,0,.28.2.3l6.26.68c.23,0,.37-.15.41-.54a5,5,0,0,0-.61-2.84A2.78,2.78,0,0,0,253.22,177.75Z"/><path class="cls-1" d="M271.33,177.93a9.4,9.4,0,0,1,3.58,1.08,6.22,6.22,0,0,1,2.14,1.74,4.82,4.82,0,0,1-.68,2.13,1.44,1.44,0,0,1-1.43.72,1.74,1.74,0,0,1-1.14-.52,4.45,4.45,0,0,1-.77-1.37,2.82,2.82,0,0,0-2.4-2.06A3,3,0,0,0,267.8,181a8.3,8.3,0,0,0-1.45,4.13,7.88,7.88,0,0,0,.87,5.32,4.59,4.59,0,0,0,3.45,2.08,10.67,10.67,0,0,0,1.13.06,5.88,5.88,0,0,0,1-.08l.84-.16a3.31,3.31,0,0,0,.75-.27l.56-.27.83-.44a.62.62,0,0,1,.17.25.74.74,0,0,1,.07.4,1.2,1.2,0,0,1-.31.71,6.36,6.36,0,0,1-2.51,1.84,7.14,7.14,0,0,1-3.9.63,7.87,7.87,0,0,1-5.58-3.15,8.58,8.58,0,0,1-1.74-6.41,8.84,8.84,0,0,1,3-5.84A7.84,7.84,0,0,1,271.33,177.93Z"/><path class="cls-1" d="M285.84,191.26a14.31,14.31,0,0,0-.07,3.51q0,.28,1,.67a5.72,5.72,0,0,0,1.28.43c.1,0,.14.21.11.58a2.19,2.19,0,0,1-.14.75q-.27-.07-2.05-.38t-2.64-.41q-1-.11-2.74-.18t-2-.07a1.14,1.14,0,0,1-.07-.75c0-.39.11-.58.22-.56a5.66,5.66,0,0,0,1.42-.14c.66-.12,1-.27,1.1-.45a12.66,12.66,0,0,0,.58-2.79l.69-6.3a3.7,3.7,0,0,0-.35-2.54,2.18,2.18,0,0,0-.83-.68,4.06,4.06,0,0,0-.9-.33c-.26-.05-.38-.11-.37-.16q.12-1.12.36-1.13a30,30,0,0,0,3.18-.12,30.4,30.4,0,0,0,3.13-.36l.32,0c.13,0,.22.12.28.3a.72.72,0,0,1,0,.43,32.84,32.84,0,0,0-.67,3.29Zm-2.25-16.62a2.36,2.36,0,0,1-.51-1.78,2.3,2.3,0,0,1,.88-1.61,2.41,2.41,0,0,1,3.91,2.13A2.37,2.37,0,0,1,287,175a2.39,2.39,0,0,1-3.4-.37Z"/><path class="cls-1" d="M304.31,171.64a7.66,7.66,0,0,1,2.64.7,2.72,2.72,0,0,1,1.3,1.14,4.38,4.38,0,0,1-.45,2.12,1.4,1.4,0,0,1-1.52.79,1.51,1.51,0,0,1-1.11-.77q-.45-.69-1-1.4a1.79,1.79,0,0,0-1.28-.79,2.07,2.07,0,0,0-1.85.82,6.53,6.53,0,0,0-1.25,2.33,15.88,15.88,0,0,0-.63,3.1l-.19,1.78s0,.07.06.12a.22.22,0,0,0,.15.1l4.25.46a.32.32,0,0,1,.19.06.43.43,0,0,1,0,.24,4,4,0,0,1-.66,1.73l-4-.44a.21.21,0,0,0-.26.21l-.94,8.62a14.92,14.92,0,0,0-.07,3.51q0,.28,1,.67a5.49,5.49,0,0,0,1.26.43c.08,0,.1.2.07.58a2.24,2.24,0,0,1-.14.75q-.23-.06-2-.37t-2.69-.41q-.93-.1-2.64-.17c-1.14,0-1.82-.07-2-.06a.73.73,0,0,1-.11-.44,2.27,2.27,0,0,1,.07-.6c0-.19.11-.28.19-.27a5.2,5.2,0,0,0,1.38-.14q1-.19,1.07-.45a12.84,12.84,0,0,0,.7-3.13l1-8.89q0-.27-.2-.3l-2.32-.25c-.05,0-.07-.09-.05-.24a2.09,2.09,0,0,1,.66-1.06,1.57,1.57,0,0,1,1.31-.56l.62.07a.21.21,0,0,0,.26-.21l0-.39a10.57,10.57,0,0,1,3.18-6.69A7.27,7.27,0,0,1,304.31,171.64Z"/><path class="cls-1" d="M311.72,194.09a14.3,14.3,0,0,0-.07,3.51q0,.28,1,.67a5.72,5.72,0,0,0,1.28.43c.1,0,.14.21.11.58a2.19,2.19,0,0,1-.14.75q-.27-.07-2.05-.38t-2.64-.41q-1-.11-2.74-.18t-2-.07a1.14,1.14,0,0,1-.07-.75c0-.39.12-.57.22-.56a5.65,5.65,0,0,0,1.42-.14c.66-.12,1-.27,1.1-.45a12.65,12.65,0,0,0,.58-2.79l.69-6.3a3.7,3.7,0,0,0-.35-2.54,2.17,2.17,0,0,0-.83-.68,4.15,4.15,0,0,0-.9-.33c-.26-.05-.38-.11-.37-.16q.12-1.12.36-1.13a29.68,29.68,0,0,0,3.18-.12,30.42,30.42,0,0,0,3.13-.36l.32,0c.13,0,.22.12.28.3a.72.72,0,0,1,0,.43,33,33,0,0,0-.67,3.29Zm-2.25-16.62a2.36,2.36,0,0,1-.51-1.78,2.3,2.3,0,0,1,.88-1.61,2.41,2.41,0,0,1,3.91,2.13,2.38,2.38,0,0,1-.88,1.63,2.39,2.39,0,0,1-3.4-.37Z"/><path class="cls-1" d="M326.41,184A9.42,9.42,0,0,1,330,185a6.23,6.23,0,0,1,2.14,1.74,4.82,4.82,0,0,1-.68,2.14,1.44,1.44,0,0,1-1.43.72,1.74,1.74,0,0,1-1.14-.52,4.46,4.46,0,0,1-.77-1.37,2.81,2.81,0,0,0-2.4-2.06,3,3,0,0,0-2.83,1.39,8.3,8.3,0,0,0-1.45,4.13,7.88,7.88,0,0,0,.87,5.32,4.59,4.59,0,0,0,3.45,2.08,10.7,10.7,0,0,0,1.13.06,5.8,5.8,0,0,0,1-.08l.84-.16a3.31,3.31,0,0,0,.75-.27l.56-.27.83-.44a.64.64,0,0,1,.17.25.74.74,0,0,1,.07.4,1.19,1.19,0,0,1-.31.71,6.36,6.36,0,0,1-2.51,1.84,7.15,7.15,0,0,1-3.9.63,7.86,7.86,0,0,1-5.58-3.15,8.58,8.58,0,0,1-1.74-6.41,8.84,8.84,0,0,1,3-5.83A7.84,7.84,0,0,1,326.41,184Z"/><path class="cls-1" d="M338.19,198.51a2.54,2.54,0,0,1,.56,1.9,2.6,2.6,0,0,1-1,1.75,2.41,2.41,0,0,1-1.88.6,2.51,2.51,0,0,1-1.77-1,2.57,2.57,0,0,1-.57-1.92,2.5,2.5,0,0,1,1-1.73,2.55,2.55,0,0,1,1.94-.57A2.43,2.43,0,0,1,338.19,198.51Zm-.13-21.18A10,10,0,0,1,344,180a6.78,6.78,0,0,1,.62,9.14,9.16,9.16,0,0,1-3.47,2.08l-.59.21-.63.22-.55.23-.56.27-.44.27a1.89,1.89,0,0,0-.36.29.83.83,0,0,0-.19.33,3.67,3.67,0,0,0-.24,1.11,3.79,3.79,0,0,1-.19,1,1.11,1.11,0,0,1-1.05.32q-.54-.06-.18-3.38a6,6,0,0,1,.74-2.68,5.58,5.58,0,0,1,1.94-1.49,11.72,11.72,0,0,1,1.23-.53q.94-.37,1.58-.69a4.43,4.43,0,0,0,1.24-1,2.47,2.47,0,0,0,.69-1.45,2.53,2.53,0,0,0-.61-2,2.72,2.72,0,0,0-1.85-1,8.28,8.28,0,0,0-1.57,0,8.38,8.38,0,0,1-1.57,0,2.48,2.48,0,0,1-1.56-.76,1.84,1.84,0,0,1-.54-1.54,5.15,5.15,0,0,1,.39-1.44A4.32,4.32,0,0,1,338.06,177.33Z"/><path class="cls-1" d="M152.57,117.5a4.19,4.19,0,0,1,2.56.62,4.54,4.54,0,0,1,1.66,1.88,9.18,9.18,0,0,1,2.73-2.09,8.72,8.72,0,0,1,3.61-1,4.41,4.41,0,0,1,2.42.5,4.29,4.29,0,0,1,1.64,1.65,9.18,9.18,0,0,1,.94,2.36,14.81,14.81,0,0,1,.4,2.8l.21,4.08a16.24,16.24,0,0,0,.45,3.48c.06.18.42.35,1.08.51a5.73,5.73,0,0,0,1.34.22q.12,0,.17.56a2.21,2.21,0,0,1,0,.76q-.28,0-2,0t-2.67,0q-.93,0-2.65.26l-2.07.26a1.45,1.45,0,0,1-.16-.73c0-.39,0-.59.09-.59a5.21,5.21,0,0,0,1.38-.36c.61-.23.94-.43,1-.62a12.17,12.17,0,0,0,.13-2.73l-.21-4q-.3-5.63-3.91-5.44a3.55,3.55,0,0,0-2.1.73,2.43,2.43,0,0,0-.95,1.26c0,.08,0,.18,0,.31a.77.77,0,0,0,0,.31,18.86,18.86,0,0,1,.24,2.4l.22,4.12a15.3,15.3,0,0,0,.45,3.33q.09.27,1.08.51a5.68,5.68,0,0,0,1.34.22c.08,0,.13.18.17.56a2.21,2.21,0,0,1,0,.76q-.28,0-2,0t-2.67,0q-.93,0-2.65.26l-2.07.26a1.45,1.45,0,0,1-.16-.73c0-.39,0-.59.09-.59a5.18,5.18,0,0,0,1.38-.36q.92-.34,1-.62a12.73,12.73,0,0,0,.12-2.85l-.2-3.73a8.27,8.27,0,0,0-1.12-4.34,3,3,0,0,0-2.71-1.22,3.72,3.72,0,0,0-2.1.77,1.83,1.83,0,0,0-.89,1.53l.35,6.68a14.3,14.3,0,0,0,.49,3.48q.09.27,1,.51a5.32,5.32,0,0,0,1.3.22c.1,0,.17.18.2.55a2.21,2.21,0,0,1,0,.76l-2,0q-1.73,0-2.63,0t-2.71.26l-2,.26a1.14,1.14,0,0,1-.19-.73q0-.58.13-.59a5.57,5.57,0,0,0,1.38-.36c.64-.23,1-.44,1-.62a12.74,12.74,0,0,0,.12-2.85L143.1,124a3.7,3.7,0,0,0-.75-2.45,1.88,1.88,0,0,0-.9-.54,4.46,4.46,0,0,0-1-.18c-.26,0-.39,0-.39-.1q-.06-1.13.17-1.18a54.15,54.15,0,0,0,6.15-1.49.24.24,0,0,1,.11-.07l.19,0q.19,0,.32.25a.72.72,0,0,1,.1.42,13.37,13.37,0,0,0-.08,1.41c0,.1,0,.17.09.19a.55.55,0,0,0,.19-.13,8.62,8.62,0,0,1,2.3-1.76A6.81,6.81,0,0,1,152.57,117.5Z"/><path class="cls-1" d="M181.2,116a4.77,4.77,0,0,1,3.68,1.07q1.27,1.2,1.43,4.27l.4,7.65a1.78,1.78,0,0,0,.41,1.17,1.17,1.17,0,0,0,1,.36,2.43,2.43,0,0,0,1.29-.57c.16,0,.24.18.25.42a2.33,2.33,0,0,1-.17,1.18,9.71,9.71,0,0,1-1.5,1.05,4,4,0,0,1-1.84.6,2.84,2.84,0,0,1-1.78-.57,3.18,3.18,0,0,1-1.2-1.38l-.28.27q-.24.23-.67.56a11.13,11.13,0,0,1-1,.67,6.18,6.18,0,0,1-1.29.59,5.72,5.72,0,0,1-1.52.29,4.65,4.65,0,0,1-3.22-.9,3.69,3.69,0,0,1-1.38-2.87,3.57,3.57,0,0,1,.35-1.77,4.68,4.68,0,0,1,1-1.4,8,8,0,0,1,1.62-1.12,16.05,16.05,0,0,1,1.77-.85q.75-.29,1.91-.7l1.62-.59a.61.61,0,0,0,.32-.64l-.11-2.14a3.34,3.34,0,0,0-.73-2.1,2,2,0,0,0-1.71-.69,2.35,2.35,0,0,0-1.79.81,2.91,2.91,0,0,0-.55,2.07,1.26,1.26,0,0,1-.52,1.18,2.42,2.42,0,0,1-1.3.44,2.2,2.2,0,0,1-2.07-.83q-.1-1.86,2.36-3.63A9.75,9.75,0,0,1,181.2,116Zm-1,15a3,3,0,0,0,1.78-.64,1.54,1.54,0,0,0,.69-1.28l-.21-4c-.18.09-.55.24-1.12.45s-1,.39-1.32.54a10.67,10.67,0,0,0-1.06.6,2.35,2.35,0,0,0-.87.9,2.15,2.15,0,0,0-.23,1.1,2.4,2.4,0,0,0,.72,1.79A2.24,2.24,0,0,0,180.24,131Z"/><path class="cls-1" d="M207.37,117.23q-.75.51-2.37,1.88A27.45,27.45,0,0,0,202,122q1.19,1.14,3,3t3,3a18.74,18.74,0,0,0,1.64,1.51,4.91,4.91,0,0,0,1.54.7,4.76,4.76,0,0,0,1.32.24c.1,0,.17.21.19.65a2.26,2.26,0,0,1,0,.55l-4.55,0c-.49,0-1,.07-1.49.12L205,132l-1.45.17a1.05,1.05,0,0,1-.19-.69c0-.36,0-.55.13-.55a2.84,2.84,0,0,0,.88-.22c.33-.14.49-.27.48-.4s0-.08,0-.08l-6-6-.46.14.13,2.41a15.79,15.79,0,0,0,.49,3.48c.06.18.42.35,1.08.51a5.6,5.6,0,0,0,1.38.22c.08,0,.13.18.17.56a2.23,2.23,0,0,1,0,.76q-.28,0-2.07,0t-2.68,0q-.93,0-2.69.26l-2.07.26a1.14,1.14,0,0,1-.19-.73c0-.39,0-.59.13-.59a5.41,5.41,0,0,0,1.4-.36c.62-.23,1-.43,1-.62a12.73,12.73,0,0,0,.12-2.85l-.85-16.12a15.34,15.34,0,0,0-.33-2.63q-.23-.61-2.05-.51l-.35,0c-.16,0-.24-.2-.27-.61s0-.62.2-.63q1.2-.18,2.27-.43t1.79-.48c.47-.16.88-.31,1.22-.45l1.09-.45h.08a.42.42,0,0,1,.32.2,1.07,1.07,0,0,1,.22.4,12.52,12.52,0,0,0-.27,3.68l.68,13a3.49,3.49,0,0,0,1.14-.49q.78-.78,1.69-1.63l1.32-1.22c.27-.25.54-.52.81-.8a3.39,3.39,0,0,0,.53-.67.93.93,0,0,0,.11-.47q0-.43-.9-.48a3.81,3.81,0,0,1-.88-.09,1.72,1.72,0,0,1-.15-.67q0-.41.13-.45l3.77-.2q1-.05,4.11-.37a.61.61,0,0,1,.22.42,1.76,1.76,0,0,1,0,.58c0,.18-.08.28-.16.28A5.1,5.1,0,0,0,207.37,117.23Z"/><path class="cls-1" d="M222.5,113.82a7.23,7.23,0,0,1,3.3.55,6.14,6.14,0,0,1,2.35,1.71,9,9,0,0,1,1.36,2.23,6.69,6.69,0,0,1,.55,2.25c0,.57,0,.93-.24,1.08a2.22,2.22,0,0,1-1.17.28l-9.28.49c-.18,0-.27.09-.26.25a7.58,7.58,0,0,0,.65,2.69,5.35,5.35,0,0,0,1.85,2.2,4.57,4.57,0,0,0,3,.82,10.42,10.42,0,0,0,1.12-.12,5.87,5.87,0,0,0,1-.25l.8-.3a3.48,3.48,0,0,0,.7-.39l.51-.36.75-.56a.64.64,0,0,1,.21.22.76.76,0,0,1,.14.38,1.2,1.2,0,0,1-.19.75,6.36,6.36,0,0,1-2.18,2.22,7.22,7.22,0,0,1-3.79,1.25,7.87,7.87,0,0,1-6-2.2,8.38,8.38,0,0,1-2.77-5.95,9,9,0,0,1,1.94-6.49A7.54,7.54,0,0,1,222.5,113.82Zm-.18,1.8a2.75,2.75,0,0,0-1.64.63,3.67,3.67,0,0,0-1.06,1.38,7.37,7.37,0,0,0-.49,1.49,4.78,4.78,0,0,0-.12,1.15c0,.18.09.27.25.26l6.29-.33c.23,0,.34-.21.32-.6a5,5,0,0,0-1.06-2.71A2.79,2.79,0,0,0,222.32,115.62Z"/><path class="cls-1" d="M248.54,112.46a4.77,4.77,0,0,1,3.68,1.07q1.27,1.2,1.43,4.27l.4,7.65a1.78,1.78,0,0,0,.41,1.17,1.17,1.17,0,0,0,1,.36,2.44,2.44,0,0,0,1.29-.57q.24.06.25.41a2.33,2.33,0,0,1-.17,1.18,9.65,9.65,0,0,1-1.5,1.05,4,4,0,0,1-1.84.6,2.84,2.84,0,0,1-1.78-.57,3.19,3.19,0,0,1-1.2-1.38l-.28.27q-.24.23-.67.56a11.13,11.13,0,0,1-1,.67,6.18,6.18,0,0,1-1.29.59,5.72,5.72,0,0,1-1.52.29,4.64,4.64,0,0,1-3.22-.9,3.7,3.7,0,0,1-1.38-2.87,3.57,3.57,0,0,1,.36-1.77,4.67,4.67,0,0,1,1-1.4A8,8,0,0,1,244.1,122a15.85,15.85,0,0,1,1.77-.85q.75-.29,1.91-.7l1.62-.59a.61.61,0,0,0,.32-.64l-.11-2.14a3.35,3.35,0,0,0-.73-2.1,2,2,0,0,0-1.71-.69,2.36,2.36,0,0,0-1.79.81,2.91,2.91,0,0,0-.55,2.08,1.26,1.26,0,0,1-.52,1.18,2.41,2.41,0,0,1-1.3.44,2.19,2.19,0,0,1-2.07-.83q-.1-1.86,2.36-3.63A9.75,9.75,0,0,1,248.54,112.46Zm-1,15a3,3,0,0,0,1.78-.64,1.54,1.54,0,0,0,.69-1.28l-.21-4c-.18.09-.55.24-1.13.45s-1,.39-1.32.54a10.64,10.64,0,0,0-1.06.6,2.35,2.35,0,0,0-.87.9,2.14,2.14,0,0,0-.23,1.1A2.39,2.39,0,0,0,246,127,2.24,2.24,0,0,0,247.57,127.46Z"/><path class="cls-1" d="M269.71,111.34a3.88,3.88,0,0,1,3.25,1.11q.17,3.3-1.69,3.4a2.31,2.31,0,0,1-1.56-.7,2.43,2.43,0,0,0-1.71-.69,2.09,2.09,0,0,0-1.82,1.32,5.17,5.17,0,0,0-.55,2.58l.25,4.86a16.21,16.21,0,0,0,.46,3.48c.06.18.41.35,1.06.51a5.52,5.52,0,0,0,1.32.22c.08,0,.13.18.17.56a4.09,4.09,0,0,1,0,.76l-2.07,0q-1.75,0-2.65,0t-2.69.26q-1.76.21-2.07.26a1.14,1.14,0,0,1-.19-.73q0-.58.13-.59a5.38,5.38,0,0,0,1.4-.36q.94-.34,1-.62a12.67,12.67,0,0,0,.12-2.85l-.33-6.33a3.7,3.7,0,0,0-.75-2.45,1.87,1.87,0,0,0-.9-.54,4.42,4.42,0,0,0-.95-.18c-.25,0-.37,0-.37-.1q-.06-1.13.13-1.18a55.28,55.28,0,0,0,6.19-1.49l.31-.09c.1,0,.2.08.29.26a.93.93,0,0,1,.12.44c0,.12,0,.3,0,.55s0,.51-.06.78a5.13,5.13,0,0,0,0,.53,7.17,7.17,0,0,1,1.8-2A4.25,4.25,0,0,1,269.71,111.34Z"/><path class="cls-1" d="M277.83,113.64l-2.37.12q-.27,0-.32-1a1,1,0,0,1,0-.35A10.83,10.83,0,0,0,278,110.2q.48-.53,1-1.2t1.33-1.73a2.73,2.73,0,0,1,.74.06c.24.05.36.12.36.19l.2,3.81,2.82-.13,1.92-.08c.21,0,.32.1.33.33a3.78,3.78,0,0,1-.3,1.73l-4.66.25.49,9.36a3.69,3.69,0,0,0,.78,2.33,2.22,2.22,0,0,0,1.87.72,3.69,3.69,0,0,0,.81-.14,4.14,4.14,0,0,0,.69-.25l.49-.26a1.22,1.22,0,0,1,.27-.13c.1,0,.22.08.37.33s.2.42.18.5q-.21.56-1.58,1.35a6.12,6.12,0,0,1-2.74.87,4.91,4.91,0,0,1-3.51-1.12,5.2,5.2,0,0,1-1.63-3.95Z"/><path class="cls-1" d="M300.33,112.46l-2.37.13q-.27,0-.32-1a1,1,0,0,1,0-.35,10.82,10.82,0,0,0,2.88-2.21q.48-.53,1-1.2t1.33-1.72a2.73,2.73,0,0,1,.74.06c.24.05.36.12.36.19l.2,3.81L307,110l1.92-.08q.31,0,.33.33A3.77,3.77,0,0,1,309,112l-4.66.25.49,9.36a3.7,3.7,0,0,0,.78,2.33,2.22,2.22,0,0,0,1.87.72,3.67,3.67,0,0,0,.81-.14,4.14,4.14,0,0,0,.69-.25l.49-.26a1.25,1.25,0,0,1,.27-.13c.1,0,.22.08.37.33s.2.42.18.5q-.21.56-1.58,1.35a6.11,6.11,0,0,1-2.74.86,4.91,4.91,0,0,1-3.51-1.12,5.2,5.2,0,0,1-1.63-3.95Z"/><path class="cls-1" d="M324.63,108.46q5-.26,5.37,7.39l.21,4a14.25,14.25,0,0,0,.49,3.48c0,.18.39.35,1.06.51a5.87,5.87,0,0,0,1.36.22c.08,0,.13.18.17.56a4,4,0,0,1,0,.76q-.28,0-2.09,0t-2.67,0q-1,.05-2.62.25l-2,.26a1.43,1.43,0,0,1-.16-.73c0-.39,0-.59.09-.59a4.58,4.58,0,0,0,1.32-.36c.57-.22.89-.43,1-.62a14.83,14.83,0,0,0,.08-2.85l-.2-3.81q-.17-3.22-1.11-4.4a3.18,3.18,0,0,0-2.84-1.08,3.73,3.73,0,0,0-2.1.77,1.83,1.83,0,0,0-.89,1.53l.35,6.68a14.29,14.29,0,0,0,.49,3.48q.09.27,1.06.51a5.44,5.44,0,0,0,1.32.22q.12,0,.17.56a2.21,2.21,0,0,1,0,.76l-2,0q-1.74,0-2.63,0t-2.69.26q-1.76.21-2.07.26a1.14,1.14,0,0,1-.19-.73q0-.58.13-.59a5.42,5.42,0,0,0,1.4-.37q.94-.34,1-.62a12.45,12.45,0,0,0,.12-2.81l-.85-16.16a15.34,15.34,0,0,0-.33-2.63q-.23-.61-2.05-.52l-.35,0c-.16,0-.24-.19-.27-.61s0-.62.2-.63q1.2-.18,2.27-.43t1.79-.48c.47-.16.88-.31,1.22-.45l1.09-.45h.08a.42.42,0,0,1,.32.2,1.07,1.07,0,0,1,.22.4,12.55,12.55,0,0,0-.27,3.67l.41,7.84c0,.15.06.23.17.22s.08,0,.15-.12a7.4,7.4,0,0,1,2.3-1.81A7.15,7.15,0,0,1,324.63,108.46Z"/><path class="cls-1" d="M342.93,107.5a4.77,4.77,0,0,1,3.68,1.07q1.27,1.2,1.43,4.27l.4,7.65a1.78,1.78,0,0,0,.41,1.17,1.17,1.17,0,0,0,1,.36,2.43,2.43,0,0,0,1.29-.57c.16,0,.24.18.26.42a2.31,2.31,0,0,1-.17,1.18,9.62,9.62,0,0,1-1.5,1.05,4,4,0,0,1-1.84.6,2.84,2.84,0,0,1-1.78-.57,3.18,3.18,0,0,1-1.2-1.38l-.28.27q-.24.23-.67.56a11.28,11.28,0,0,1-1,.67,6.2,6.2,0,0,1-1.29.59,5.72,5.72,0,0,1-1.52.29,4.65,4.65,0,0,1-3.22-.9,3.7,3.7,0,0,1-1.38-2.87,3.57,3.57,0,0,1,.36-1.77,4.68,4.68,0,0,1,1-1.4,8,8,0,0,1,1.62-1.12,16.05,16.05,0,0,1,1.77-.85q.74-.29,1.91-.7l1.63-.59a.61.61,0,0,0,.32-.64l-.11-2.14a3.34,3.34,0,0,0-.73-2.1,2,2,0,0,0-1.71-.69,2.36,2.36,0,0,0-1.79.81,2.92,2.92,0,0,0-.55,2.07,1.26,1.26,0,0,1-.52,1.18,2.42,2.42,0,0,1-1.3.44,2.19,2.19,0,0,1-2.07-.83q-.1-1.86,2.36-3.63A9.76,9.76,0,0,1,342.93,107.5Zm-1,15a3,3,0,0,0,1.78-.64,1.54,1.54,0,0,0,.69-1.28l-.21-4q-.27.13-1.13.45t-1.32.54a10.56,10.56,0,0,0-1.06.6,2.34,2.34,0,0,0-.87.9,2.14,2.14,0,0,0-.23,1.1,2.4,2.4,0,0,0,.72,1.79A2.24,2.24,0,0,0,342,122.5Z"/><path class="cls-1" d="M355.12,109.58l-2.37.13q-.27,0-.33-1a1,1,0,0,1,0-.35,10.85,10.85,0,0,0,2.88-2.21q.48-.53,1-1.2t1.33-1.73a2.73,2.73,0,0,1,.74.06c.24.05.36.12.36.19l.2,3.81,2.82-.13,1.92-.08c.21,0,.32.1.33.33a3.77,3.77,0,0,1-.3,1.73l-4.66.25.49,9.36a3.69,3.69,0,0,0,.78,2.33,2.22,2.22,0,0,0,1.87.72,3.67,3.67,0,0,0,.81-.14,4,4,0,0,0,.69-.25l.49-.26a1.18,1.18,0,0,1,.27-.13c.1,0,.22.08.37.33s.2.42.18.5q-.21.56-1.58,1.35a6.13,6.13,0,0,1-2.74.86,4.91,4.91,0,0,1-3.51-1.12,5.2,5.2,0,0,1-1.63-3.95Z"/><path class="cls-1" d="M382.75,117.09a14.24,14.24,0,0,0,.49,3.48c.06.18.42.35,1.08.51a5.74,5.74,0,0,0,1.34.22c.1,0,.17.18.2.55a2.19,2.19,0,0,1,0,.76c-.18,0-.88,0-2.09,0s-2.1,0-2.67,0-1.56.12-2.73.26-1.85.23-2,.26a1.14,1.14,0,0,1-.19-.73q0-.58.13-.59a5.58,5.58,0,0,0,1.38-.36c.64-.23,1-.44,1-.62a12.67,12.67,0,0,0,.12-2.85l-.33-6.33a3.7,3.7,0,0,0-.75-2.45,2.17,2.17,0,0,0-.92-.54,4.14,4.14,0,0,0-.95-.18c-.26,0-.39,0-.39-.1q-.06-1.13.17-1.18a29.89,29.89,0,0,0,3.12-.63,31.16,31.16,0,0,0,3-.86l.31-.09c.13,0,.24.08.33.25a.72.72,0,0,1,.1.42,33,33,0,0,0-.13,3.36Zm-4.89-16a2.37,2.37,0,0,1-.79-1.67,2.41,2.41,0,0,1,4.82-.25,2.37,2.37,0,0,1-.61,1.74,2.4,2.4,0,0,1-3.42.18Z"/><path class="cls-1" d="M393.6,104.79a16.53,16.53,0,0,1,4.54.42,22.09,22.09,0,0,1,.66,4.33c0,.21-.15.32-.49.34-.57,0-.89-.06-.95-.26a4.71,4.71,0,0,0-1.27-2.25,3,3,0,0,0-2.4-.83,2.79,2.79,0,0,0-1.74.6,1.73,1.73,0,0,0-.57,1.47,2.27,2.27,0,0,0,.27,1,2.43,2.43,0,0,0,.74.8,9.59,9.59,0,0,0,.89.58q.38.21,1.14.56a2.69,2.69,0,0,0,.4.17l.6.28.66.31.64.34a6.7,6.7,0,0,1,.7.41l.63.43a3.07,3.07,0,0,1,.61.51l.5.58a2.48,2.48,0,0,1,.44.68,7.09,7.09,0,0,1,.25.73,3.58,3.58,0,0,1,.14.83,4.58,4.58,0,0,1-1.68,4,7.39,7.39,0,0,1-4.49,1.66,13,13,0,0,1-5.07-.82,15.73,15.73,0,0,1-.5-2.13,18.85,18.85,0,0,1-.31-2.22.83.83,0,0,1,.53-.22c.59,0,.91.06.95.26a4.3,4.3,0,0,0,1.67,2.54,4.14,4.14,0,0,0,2.71.85,2.82,2.82,0,0,0,1.76-.64,1.89,1.89,0,0,0,.62-1.63,2.51,2.51,0,0,0-.13-.71,1.89,1.89,0,0,0-.4-.64l-.47-.52a2.9,2.9,0,0,0-.73-.49l-.8-.41-1-.45-1-.47a9,9,0,0,1-2.87-1.93,4.49,4.49,0,0,1,.55-6.47A7.5,7.5,0,0,1,393.6,104.79Z"/><path class="cls-1" d="M64.63,4.62q1.12.16,2.59.31t2.63.32a12.65,12.65,0,0,1,2.26.54,9.38,9.38,0,0,1,2.16,1.08,8.25,8.25,0,0,1,1.81,1.62,6.16,6.16,0,0,1,1.13,2.23,6.62,6.62,0,0,1,.17,2.81,7.41,7.41,0,0,1-1.45,3.41,8.17,8.17,0,0,1-3.27,2.54,7.9,7.9,0,0,1-4.47.6,4.84,4.84,0,0,1-1.58-.52,2.33,2.33,0,0,1-1-.87.83.83,0,0,1-.08-.4,1.76,1.76,0,0,1,.06-.58c.05-.18.1-.26.16-.25a5.44,5.44,0,0,0,2.1.69A3.43,3.43,0,0,0,71,17a6.52,6.52,0,0,0,1.63-3.67,7.13,7.13,0,0,0-.45-4.23,3.66,3.66,0,0,0-3-2,6.34,6.34,0,0,0-2.27-.05q-.49.16-1,3.94l-2,13.74a12.18,12.18,0,0,0-.16,3.32q0,.48,1.18.94a8.21,8.21,0,0,0,1.67.53q.15,0,.06.68a2.21,2.21,0,0,1-.17.64q-4.2-.84-5.43-1-1-.15-2.34-.28l-2.07-.2-.78,0a1.33,1.33,0,0,1,0-.71c.06-.41.13-.61.21-.6a6.64,6.64,0,0,0,1.52,0c.68-.07,1.08-.22,1.22-.43a15.39,15.39,0,0,0,.73-3.47L61.6,9.57a15.16,15.16,0,0,0,.22-3.19c0-.22-.4-.48-1-.8A5.66,5.66,0,0,0,59.34,5q-.16,0-.07-.6c.06-.39.14-.61.25-.67Q63.55,4.47,64.63,4.62Z"/><path class="cls-1" d="M87.69,16.43a4.77,4.77,0,0,1,3.4,1.77q1,1.42.58,4.46l-1.09,7.58a1.78,1.78,0,0,0,.18,1.22,1.17,1.17,0,0,0,.87.54A2.43,2.43,0,0,0,93,31.69c.15.07.2.23.17.46a2.33,2.33,0,0,1-.4,1.12A9.66,9.66,0,0,1,91.1,34a4,4,0,0,1-1.92.23,2.84,2.84,0,0,1-1.64-.9,3.19,3.19,0,0,1-.91-1.58L86.3,32q-.28.18-.77.42a11.45,11.45,0,0,1-1.09.47,6.18,6.18,0,0,1-1.38.33,5.66,5.66,0,0,1-1.55,0,4.65,4.65,0,0,1-3-1.51,3.7,3.7,0,0,1-.79-3.08,3.58,3.58,0,0,1,.69-1.67,4.64,4.64,0,0,1,1.25-1.18,8,8,0,0,1,1.8-.78,15.88,15.88,0,0,1,1.9-.49c.53-.09,1.19-.2,2-.32l1.71-.26a.61.61,0,0,0,.43-.57l.3-2.12A3.34,3.34,0,0,0,87.52,19,2,2,0,0,0,86,18a2.36,2.36,0,0,0-1.91.45,2.9,2.9,0,0,0-.95,1.93,1.26,1.26,0,0,1-.74,1.05A2.43,2.43,0,0,1,81,21.6a2.19,2.19,0,0,1-1.87-1.21q.27-1.85,3-3.1A9.76,9.76,0,0,1,87.69,16.43ZM83.83,31a3,3,0,0,0,1.87-.28,1.54,1.54,0,0,0,.93-1.12l.57-3.93c-.19.05-.59.13-1.19.22s-1.07.19-1.39.27a10.63,10.63,0,0,0-1.16.38,2.35,2.35,0,0,0-1,.72,2.14,2.14,0,0,0-.44,1,2.39,2.39,0,0,0,.35,1.9A2.24,2.24,0,0,0,83.83,31Z"/><path class="cls-1" d="M108.68,19.45a3.88,3.88,0,0,1,3,1.72q-.47,3.27-2.32,3a2.31,2.31,0,0,1-1.39-1,2.44,2.44,0,0,0-1.54-1,2.08,2.08,0,0,0-2,.94,5.16,5.16,0,0,0-1,2.42l-.69,4.81a16.3,16.3,0,0,0-.23,3.5q0,.28.94.7a5.49,5.49,0,0,0,1.25.47c.08,0,.09.2.06.58a4.13,4.13,0,0,1-.13.75q-.3-.08-2-.45t-2.6-.49q-.92-.13-2.69-.27C96,35.07,95.33,35,95.12,35a1.14,1.14,0,0,1,0-.75q.08-.58.24-.56a5.44,5.44,0,0,0,1.45-.09q1-.15,1.1-.41a12.73,12.73,0,0,0,.67-2.77l.9-6.27a3.7,3.7,0,0,0-.26-2.55,1.88,1.88,0,0,0-.78-.7,4.43,4.43,0,0,0-.89-.36c-.24-.06-.36-.12-.35-.17q.16-1.12.36-1.13a55.13,55.13,0,0,0,6.36-.26l.32,0c.1,0,.18.12.23.31a.93.93,0,0,1,0,.46l-.13.53q-.09.36-.21.76a5.08,5.08,0,0,0-.13.51,7.13,7.13,0,0,1,2.16-1.6A4.26,4.26,0,0,1,108.68,19.45Z"/><path class="cls-1" d="M116.19,23.28l-2.35-.34c-.18,0-.22-.37-.13-1a.93.93,0,0,1,.09-.34,10.9,10.9,0,0,0,3.26-1.61q.57-.43,1.26-1T120,17.54a2.77,2.77,0,0,1,.72.2c.22.1.33.19.32.26l-.54,3.77,2.79.42,1.9.29q.31,0,.26.39a3.8,3.8,0,0,1-.63,1.64l-4.62-.66-1.33,9.28a3.69,3.69,0,0,0,.32,2.44,2.22,2.22,0,0,0,1.69,1.07,3.68,3.68,0,0,0,.82,0,4.13,4.13,0,0,0,.72-.11l.53-.16a1.18,1.18,0,0,1,.29-.08q.16,0,.3.4a.9.9,0,0,1,.08.52,3.56,3.56,0,0,1-1.82,1,6.13,6.13,0,0,1-2.85.32,4.91,4.91,0,0,1-3.22-1.78,5.21,5.21,0,0,1-.83-4.19Z"/><path class="cls-1" d="M138.24,37.57a13,13,0,0,1-2.29-9.72,13.08,13.08,0,0,1,4.94-8.7,11.94,11.94,0,0,1,17.42,2.51,13,13,0,0,1,2.31,9.74,13,13,0,0,1-5,8.68,12,12,0,0,1-17.42-2.51Zm11-19.19a5.6,5.6,0,0,0-5.5,2.29,14.45,14.45,0,0,0-2.8,7,19.13,19.13,0,0,0,0,5.62,10.85,10.85,0,0,0,2,4.91,6.22,6.22,0,0,0,4.27,2.56,5.64,5.64,0,0,0,5.5-2.33,14.33,14.33,0,0,0,2.84-7,19.67,19.67,0,0,0,0-5.67,10.39,10.39,0,0,0-2-4.85A6.38,6.38,0,0,0,149.29,18.38Z"/><path class="cls-1" d="M176.31,29.18q5,.71,3.83,8.61l-.53,3.66a16.22,16.22,0,0,0-.23,3.5q0,.28,1,.71a6,6,0,0,0,1.29.48c.08,0,.09.2.05.58a2.25,2.25,0,0,1-.17.74q-.23-.07-2-.44t-2.66-.5q-.92-.13-2.58-.25l-2-.13a1.14,1.14,0,0,1,0-.75c.06-.38.13-.57.24-.56a4.63,4.63,0,0,0,1.33-.1c.61-.11.95-.25,1-.42a11.26,11.26,0,0,0,.71-2.77l.53-3.66a8.45,8.45,0,0,0-.22-4.59,3.13,3.13,0,0,0-2.57-1.67A3.6,3.6,0,0,0,171,32a1.87,1.87,0,0,0-1.13,1.31l-1,6.62a16.22,16.22,0,0,0-.23,3.5q0,.28.94.71a5.62,5.62,0,0,0,1.21.47c.1,0,.13.21.09.58a2.21,2.21,0,0,1-.17.74q-.3-.08-2-.44T166.22,45q-.92-.13-2.69-.27t-2.08-.14a1.14,1.14,0,0,1,0-.75q.08-.58.24-.56a5.42,5.42,0,0,0,1.45-.09q1-.15,1.1-.41a12.73,12.73,0,0,0,.67-2.77l.9-6.27a3.7,3.7,0,0,0-.26-2.55,1.88,1.88,0,0,0-.78-.7,4.46,4.46,0,0,0-.89-.36c-.24-.06-.36-.12-.35-.17q.16-1.12.36-1.13a55.22,55.22,0,0,0,6.36-.26l.11,0h.21c.1,0,.18.12.23.31a1.22,1.22,0,0,1,.05.44,13.65,13.65,0,0,0-.35,1.36.3.3,0,0,0,0,.2.57.57,0,0,0,.21-.09,8.61,8.61,0,0,1,2.6-1.28A6.81,6.81,0,0,1,176.31,29.18Z"/><path class="cls-1" d="M194.49,31.79A7.21,7.21,0,0,1,197.62,33a6.17,6.17,0,0,1,2,2.13,9.07,9.07,0,0,1,.9,2.45,6.71,6.71,0,0,1,.1,2.31q-.12.85-.44,1a2.21,2.21,0,0,1-1.2,0l-9.2-1.32c-.18,0-.28,0-.3.19a7.59,7.59,0,0,0,.11,2.77,5.37,5.37,0,0,0,1.39,2.52,4.58,4.58,0,0,0,2.77,1.38,10.5,10.5,0,0,0,1.13.1,5.79,5.79,0,0,0,1,0l.84-.13a3.37,3.37,0,0,0,.76-.24l.57-.25.84-.41a.67.67,0,0,1,.16.26.75.75,0,0,1,.06.4,1.2,1.2,0,0,1-.34.7,6.35,6.35,0,0,1-2.57,1.75,7.21,7.21,0,0,1-4,.49,7.88,7.88,0,0,1-5.42-3.31,8.39,8.39,0,0,1-1.56-6.37,9,9,0,0,1,3.16-6A7.53,7.53,0,0,1,194.49,31.79ZM194,33.53a2.75,2.75,0,0,0-1.73.3A3.67,3.67,0,0,0,190.93,35a7.51,7.51,0,0,0-.77,1.36,4.76,4.76,0,0,0-.34,1.11q0,.27.19.3l6.24.9q.35,0,.43-.53a5.05,5.05,0,0,0-.51-2.86A2.79,2.79,0,0,0,194,33.53Z"/><path class="cls-1" d="M206.38,46.82a2.53,2.53,0,0,1,.49,1.92,2.6,2.6,0,0,1-1,1.72A2.41,2.41,0,0,1,204,51a2.52,2.52,0,0,1-1.74-1.05,2.57,2.57,0,0,1-.51-1.94,2.5,2.5,0,0,1,1-1.7,2.55,2.55,0,0,1,2-.5A2.44,2.44,0,0,1,206.38,46.82Zm1.71-11.87a2.46,2.46,0,0,1,.49,1.9,2.66,2.66,0,0,1-1,1.74,2.38,2.38,0,0,1-1.91.55,2.49,2.49,0,0,1-1.73-1.07,2.64,2.64,0,0,1-.5-2,2.44,2.44,0,0,1,1-1.68,2.58,2.58,0,0,1,2-.49A2.47,2.47,0,0,1,208.09,34.95Z"/></svg>