<svg id="Layer_1" data-name="Layer 1" xmlns="http://www.w3.org/2000/svg" viewBox="0 0 705.87 132.12"><defs><style>.cls-1{fill:#1928eb;}</style></defs><title>part</title><path class="cls-1" d="M200.67.39q1.13.06,2.6.08t2.64.08a12.59,12.59,0,0,1,2.3.33,9.35,9.35,0,0,1,2.25.88,8.19,8.19,0,0,1,1.95,1.45,6.16,6.16,0,0,1,1.33,2.11,6.62,6.62,0,0,1,.42,2.79A7.42,7.42,0,0,1,213,11.63a8.19,8.19,0,0,1-3,2.82,7.91,7.91,0,0,1-4.39,1,4.86,4.86,0,0,1-1.62-.38,2.29,2.29,0,0,1-1.09-.78.83.83,0,0,1-.12-.4,1.76,1.76,0,0,1,0-.58c0-.18.08-.27.13-.27a5.44,5.44,0,0,0,2.15.5,3.44,3.44,0,0,0,3-1.38,6.54,6.54,0,0,0,1.29-3.81,7.13,7.13,0,0,0-.83-4.17,3.65,3.65,0,0,0-3.14-1.68,6.35,6.35,0,0,0-2.27.15q-.47.21-.68,4l-.73,13.86a12.12,12.12,0,0,0,.14,3.32c.06.31.48.59,1.26.83a8.16,8.16,0,0,0,1.71.38c.1,0,.14.23.12.67a2.14,2.14,0,0,1-.11.66q-4.26-.46-5.5-.52-1-.06-2.35-.07h-2.08l-.78,0a1.33,1.33,0,0,1-.08-.71c0-.41.07-.62.15-.62a6.61,6.61,0,0,0,1.51-.17q1-.2,1.18-.54a15.39,15.39,0,0,0,.42-3.52l.77-14.68a15.26,15.26,0,0,0-.06-3.2q-.1-.32-1.11-.7a5.67,5.67,0,0,0-1.48-.41c-.11,0-.15-.2-.12-.59s.08-.62.19-.69Q199.59.33,200.67.39Z"/><path class="cls-1" d="M224.71,10.07a4.77,4.77,0,0,1,3.54,1.45q1.14,1.33,1,4.39l-.4,7.65a1.76,1.76,0,0,0,.29,1.2,1.17,1.17,0,0,0,.91.46,2.43,2.43,0,0,0,1.35-.44c.15.06.22.21.21.44a2.32,2.32,0,0,1-.29,1.15,9.65,9.65,0,0,1-1.61.89,4.06,4.06,0,0,1-1.89.41,2.84,2.84,0,0,1-1.71-.75,3.17,3.17,0,0,1-1-1.5l-.31.24q-.26.2-.73.49a11.51,11.51,0,0,1-1,.57,6.15,6.15,0,0,1-1.35.45,5.65,5.65,0,0,1-1.54.13A4.64,4.64,0,0,1,217,26.07a3.7,3.7,0,0,1-1.07-3,3.58,3.58,0,0,1,.54-1.72,4.64,4.64,0,0,1,1.14-1.28,8,8,0,0,1,1.72-.94,16.08,16.08,0,0,1,1.85-.66q.77-.21,2-.5l1.68-.42a.61.61,0,0,0,.38-.6l.11-2.14a3.35,3.35,0,0,0-.51-2.17,2,2,0,0,0-1.63-.86,2.35,2.35,0,0,0-1.86.62,2.9,2.9,0,0,0-.77,2,1.26,1.26,0,0,1-.64,1.12,2.43,2.43,0,0,1-1.34.3,2.2,2.2,0,0,1-2-1q.1-1.86,2.73-3.36A9.76,9.76,0,0,1,224.71,10.07Zm-2.53,14.82a3,3,0,0,0,1.84-.45,1.55,1.55,0,0,0,.82-1.2l.21-4c-.19.07-.57.18-1.16.33s-1,.28-1.37.4a10.71,10.71,0,0,0-1.12.49,2.35,2.35,0,0,0-1,.81,2.14,2.14,0,0,0-.35,1.07,2.4,2.4,0,0,0,.53,1.86A2.23,2.23,0,0,0,222.17,24.89Z"/><path class="cls-1" d="M245.88,11.18A3.89,3.89,0,0,1,249,12.63q-.18,3.3-2,3.2a2.32,2.32,0,0,1-1.47-.86,2.43,2.43,0,0,0-1.63-.86,2.09,2.09,0,0,0-1.95,1.12,5.18,5.18,0,0,0-.81,2.51l-.26,4.86a16.17,16.17,0,0,0,.09,3.51c0,.18.38.39,1,.62a5.59,5.59,0,0,0,1.29.36c.08,0,.11.19.11.57a4.26,4.26,0,0,1-.06.76q-.31-.06-2.05-.26t-2.63-.26q-.93,0-2.7,0t-2.09,0a1.13,1.13,0,0,1-.12-.75c0-.39.08-.58.19-.57a5.4,5.4,0,0,0,1.43-.22q1-.24,1.06-.51a12.65,12.65,0,0,0,.42-2.82l.33-6.33a3.7,3.7,0,0,0-.49-2.52,1.87,1.87,0,0,0-.84-.63,4.45,4.45,0,0,0-.92-.28c-.25,0-.37-.08-.36-.14q.06-1.12.26-1.15a55,55,0,0,0,6.31-.84l.32-.06c.1,0,.19.1.26.29a.94.94,0,0,1,.07.45l-.09.54c0,.24-.08.5-.14.77a5.08,5.08,0,0,0-.09.52,7.14,7.14,0,0,1,2-1.78A4.27,4.27,0,0,1,245.88,11.18Z"/><path class="cls-1" d="M253.71,14.32l-2.37-.12q-.27,0-.22-1a.92.92,0,0,1,.06-.35,10.87,10.87,0,0,0,3.1-1.9c.36-.32.74-.68,1.17-1.09s.92-.93,1.5-1.58a2.78,2.78,0,0,1,.73.14c.23.08.34.16.34.23l-.2,3.81,2.81.17,1.92.12c.21,0,.3.13.29.37a3.79,3.79,0,0,1-.48,1.69l-4.66-.25-.49,9.36a3.69,3.69,0,0,0,.54,2.4,2.22,2.22,0,0,0,1.78.91,3.66,3.66,0,0,0,.82-.05,4.13,4.13,0,0,0,.71-.18l.52-.21a1.26,1.26,0,0,1,.28-.1c.11,0,.21.1.33.37a.92.92,0,0,1,.13.51,3.56,3.56,0,0,1-1.72,1.18,6.14,6.14,0,0,1-2.81.57,4.91,4.91,0,0,1-3.37-1.48,5.2,5.2,0,0,1-1.21-4.09Z"/><path class="cls-1" d="M282.06,4.66q2.62.24,4.29.32t4.31.13l4.24.09a13,13,0,0,0,2.7-.25l.42,6a1.5,1.5,0,0,1-1.06.22c-.21,0-.33-.08-.38-.21a5.6,5.6,0,0,0-1.29-3,4.28,4.28,0,0,0-2.76-.9q-3.61-.19-3.8.46a13.51,13.51,0,0,0-.54,3.63l-.74,14a13.26,13.26,0,0,0,.17,3.4q0,.27,1,.62a6.24,6.24,0,0,0,1.34.36c.1,0,.14.24.12.71a2.08,2.08,0,0,1-.11.62l-1.49-.2-1.82-.21q-.83-.08-1.61-.12-1-.05-2.9,0l-2.28,0a.91.91,0,0,1-.12-.63q0-.7.19-.69a6.13,6.13,0,0,0,1.47-.2c.67-.15,1.05-.32,1.14-.52a12.25,12.25,0,0,0,.48-3.21L283.81,11q.17-3.22-.15-3.79T280,6.4a4.27,4.27,0,0,0-2.84.61,5.77,5.77,0,0,0-1.63,2.78c0,.15-.17.22-.4.21a1.3,1.3,0,0,1-1-.36l1-5.86a13,13,0,0,0,2.66.53Z"/><path class="cls-1" d="M324.48,18.28a1.13,1.13,0,0,0-.27-.81,1.72,1.72,0,0,0-.77-.51,7,7,0,0,0-.88-.24,5.54,5.54,0,0,0-.79-.1h-.16c-.1,0-.15-.2-.14-.59s.05-.62.13-.69c.33,0,1,.09,2.05.22s1.86.21,2.48.25,1.24,0,2.08,0,1.46,0,1.85,0a2.41,2.41,0,0,1,0,.67c0,.39-.08.58-.19.57a4.41,4.41,0,0,0-1.56.41,2.39,2.39,0,0,0-1.4,1.11l-6.47,13.41a1.55,1.55,0,0,1-.55.54,1.34,1.34,0,0,1-.77.21.49.49,0,0,1-.49-.3l-4.17-11-4.69,9.92a2.13,2.13,0,0,1-.47.52,1.17,1.17,0,0,1-.85.27.57.57,0,0,1-.53-.3q-.79-2.07-1.86-5t-2-5.22q-.89-2.27-2.08-4.94a1.78,1.78,0,0,0-1-.83,3.75,3.75,0,0,0-1.23-.34c-.1,0-.14-.22-.12-.63s.08-.58.19-.65q.39,0,2,.22t2.46.25q.89,0,2.65,0c1.17,0,1.84,0,2,0a2.15,2.15,0,0,1,0,.7c0,.34-.07.52-.14.54a4.58,4.58,0,0,0-1.35.2c-.57.15-.86.41-.88.77q0,.08,3.41,9.14.48-1.06,1.12-2.41l1-2.05.66-1.43c.22-.48.38-.84.46-1.08a2.08,2.08,0,0,0,.14-.48A2.84,2.84,0,0,0,313,17a1.85,1.85,0,0,0-.82-.67,3.13,3.13,0,0,0-1.39-.31c-.1,0-.14-.2-.12-.57s.08-.6.19-.67c.28,0,.92.09,1.92.22s1.8.21,2.42.24,1.41,0,2.53,0,1.78,0,2,0a1.88,1.88,0,0,1,0,.72c0,.38-.09.56-.17.56q-2-.11-2.05,1.25,0,.74,3.2,8.81.71-1.6,1.73-3.74T324,19.64A5.22,5.22,0,0,0,324.48,18.28Z"/><path class="cls-1" d="M341.11,16.2a8.58,8.58,0,0,1,6.1,2.87,8.35,8.35,0,0,1,2.26,6.29,8.81,8.81,0,0,1-17.59-.93,8.37,8.37,0,0,1,2.87-6A8.51,8.51,0,0,1,341.11,16.2Zm-.6,1.8a3.13,3.13,0,0,0-2.93,1.62,8.38,8.38,0,0,0-1.23,4.16,11.35,11.35,0,0,0,1,5.54,3.88,3.88,0,0,0,3.39,2.51,3.17,3.17,0,0,0,2.95-1.64,8.27,8.27,0,0,0,1.25-4.14,13.45,13.45,0,0,0-.31-3.77,6.88,6.88,0,0,0-1.48-3A3.61,3.61,0,0,0,340.51,18Z"/><path class="cls-1" d="M356.25,30.2a2.53,2.53,0,0,1,.66,1.87,2.59,2.59,0,0,1-.85,1.8,2.41,2.41,0,0,1-1.85.7,2.52,2.52,0,0,1-1.82-.89,2.57,2.57,0,0,1-.68-1.88,2.51,2.51,0,0,1,.87-1.79,2.54,2.54,0,0,1,1.91-.68A2.43,2.43,0,0,1,356.25,30.2Zm.63-12a2.47,2.47,0,0,1,.66,1.85,2.67,2.67,0,0,1-.86,1.82,2.38,2.38,0,0,1-1.85.72,2.49,2.49,0,0,1-1.82-.91,2.63,2.63,0,0,1-.68-1.91,2.44,2.44,0,0,1,.87-1.76,2.58,2.58,0,0,1,1.9-.66A2.47,2.47,0,0,1,356.89,18.22Z"/><path class="cls-1" d="M96.22,39.49l-.78,6.21a.24.24,0,0,0,0,.18.53.53,0,0,0,.12.11h0l.31,0A3.23,3.23,0,0,0,98.11,45q3.51-2.93,7.76-6.86a2.13,2.13,0,0,0,.76-1.08q0-.39-.78-.65a8.24,8.24,0,0,0-1.41-.33c-.1,0-.15-.17-.14-.47a2,2,0,0,1,.13-.71q4.25.77,4.64.82c.49.06,1,.11,1.45.14l1.56.1,1.38.08a1.64,1.64,0,0,1,0,.66c-.06.33-.12.5-.2.49a6.08,6.08,0,0,0-4.1,1.13l-8.21,7.27a.76.76,0,0,0-.06,1.09l7.68,11.87A4,4,0,0,0,110.27,60a6.35,6.35,0,0,0,1.67.6c.13,0,.16.27.1.76a1.19,1.19,0,0,1-.19.53q-4.6-.82-5.26-.9-1.23-.16-3-.28l-2.43-.17a1.1,1.1,0,0,1-.06-.73c0-.37.12-.55.22-.54a3,3,0,0,0,1.12-.13q.69-.19.73-.5a7.4,7.4,0,0,0-.87-1.76q-.9-1.56-2.51-4T96.6,48.24c-.09-.12-.37-.2-.83-.26s-.64.08-.68.38l-.72,5.71a14,14,0,0,0-.08,3.44c0,.19.36.42,1,.69a6,6,0,0,0,1.29.46c.1,0,.12.26.06.75a1.69,1.69,0,0,1-.15.53l-4.87-.85q-.77-.1-1.62-.17l-1.88-.14-1.65-.11a.76.76,0,0,1-.09-.56q.09-.73.25-.71a6.2,6.2,0,0,0,1.48-.09q1-.15,1.17-.44a13.63,13.63,0,0,0,.72-3.2l1.88-14.89a11.79,11.79,0,0,0,.1-3.28q-.12-.33-1-.73a5.22,5.22,0,0,0-1.35-.46q-.16,0-.08-.6A1.56,1.56,0,0,1,89.7,33l2.13.39q1.93.36,3,.49.31,0,5,.39a2,2,0,0,1,0,.63q-.08.66-.24.64a6.39,6.39,0,0,0-1.43.13q-1.08.18-1.19.44A14.44,14.44,0,0,0,96.22,39.49Z"/><path class="cls-1" d="M125.49,46.16a8.57,8.57,0,0,1,5.87,3.31,8.34,8.34,0,0,1,1.79,6.44,8.87,8.87,0,1,1-7.67-9.75Zm-.73,1.75a3.13,3.13,0,0,0-3,1.4,8.35,8.35,0,0,0-1.53,4.06,11.34,11.34,0,0,0,.57,5.6,3.88,3.88,0,0,0,3.2,2.75A3.17,3.17,0,0,0,127,60.31a8.27,8.27,0,0,0,1.55-4,13.31,13.31,0,0,0,0-3.79,6.85,6.85,0,0,0-1.26-3.08A3.6,3.6,0,0,0,124.76,47.91Z"/><path class="cls-1" d="M148,49a3.87,3.87,0,0,1,3,1.67q-.41,3.28-2.27,3a2.31,2.31,0,0,1-1.41-1,2.44,2.44,0,0,0-1.56-1,2.09,2.09,0,0,0-2,1,5.19,5.19,0,0,0-1,2.44L142.17,60a16.33,16.33,0,0,0-.17,3.51c0,.19.35.42,1,.69a5.46,5.46,0,0,0,1.26.45q.12,0,.07.58a4.06,4.06,0,0,1-.12.75q-.3-.08-2-.41t-2.61-.45q-.93-.12-2.7-.22t-2.08-.11a1.15,1.15,0,0,1-.06-.75q.07-.58.23-.56a5.39,5.39,0,0,0,1.44-.11c.65-.11,1-.26,1.09-.43a12.63,12.63,0,0,0,.63-2.78l.79-6.29a3.69,3.69,0,0,0-.31-2.55,1.86,1.86,0,0,0-.8-.69,4.45,4.45,0,0,0-.9-.35c-.24-.06-.36-.11-.35-.16q.14-1.12.34-1.13a55.11,55.11,0,0,0,6.36-.37l.32,0c.1,0,.18.11.24.3a1,1,0,0,1,0,.46l-.13.53c-.06.24-.12.49-.19.76a5.19,5.19,0,0,0-.12.51,7.1,7.1,0,0,1,2.13-1.63A4.25,4.25,0,0,1,148,49Z"/><path class="cls-1" d="M161.62,50.72a7.21,7.21,0,0,1,3.15,1.12,6.19,6.19,0,0,1,2,2.1,9.1,9.1,0,0,1,.95,2.43,6.72,6.72,0,0,1,.14,2.31q-.11.85-.42,1a2.21,2.21,0,0,1-1.2.06L157,58.61c-.18,0-.28,0-.3.2a7.56,7.56,0,0,0,.16,2.76,5.36,5.36,0,0,0,1.43,2.49,4.58,4.58,0,0,0,2.79,1.33,10.54,10.54,0,0,0,1.13.08,5.86,5.86,0,0,0,1-.07l.84-.15a3.34,3.34,0,0,0,.76-.26l.56-.26.84-.42a.64.64,0,0,1,.16.26.76.76,0,0,1,.07.4,1.19,1.19,0,0,1-.32.7,6.34,6.34,0,0,1-2.54,1.8,7.21,7.21,0,0,1-4,.56,7.87,7.87,0,0,1-5.47-3.22,8.38,8.38,0,0,1-1.67-6.34,9,9,0,0,1,3.05-6A7.54,7.54,0,0,1,161.62,50.72Zm-.49,1.74a2.76,2.76,0,0,0-1.73.33A3.67,3.67,0,0,0,158.12,54a7.43,7.43,0,0,0-.74,1.38,4.81,4.81,0,0,0-.32,1.12c0,.18,0,.28.2.3l6.25.79q.35,0,.42-.54a5.05,5.05,0,0,0-.56-2.85A2.79,2.79,0,0,0,161.13,52.46Z"/><path class="cls-1" d="M179,52.92a4.78,4.78,0,0,1,3.43,1.71q1,1.4.65,4.45l-1,7.6a1.78,1.78,0,0,0,.2,1.22,1.16,1.16,0,0,0,.88.52,2.42,2.42,0,0,0,1.38-.34c.15.07.21.22.18.45a2.32,2.32,0,0,1-.38,1.13,9.54,9.54,0,0,1-1.67.77,4,4,0,0,1-1.91.27,2.83,2.83,0,0,1-1.65-.87,3.19,3.19,0,0,1-.94-1.57l-.32.21q-.28.18-.76.43a11.51,11.51,0,0,1-1.08.49,6.15,6.15,0,0,1-1.38.35,5.58,5.58,0,0,1-1.55,0,4.64,4.64,0,0,1-3-1.46,3.69,3.69,0,0,1-.85-3.07,3.59,3.59,0,0,1,.66-1.68,4.63,4.63,0,0,1,1.23-1.2,8,8,0,0,1,1.79-.81,16.12,16.12,0,0,1,1.89-.53q.79-.16,2-.36l1.7-.29a.61.61,0,0,0,.42-.57l.27-2.12a3.33,3.33,0,0,0-.35-2.2,2,2,0,0,0-1.56-1,2.36,2.36,0,0,0-1.9.49,2.91,2.91,0,0,0-.91,1.94A1.26,1.26,0,0,1,173.8,58a2.42,2.42,0,0,1-1.36.2A2.19,2.19,0,0,1,170.56,57q.23-1.85,3-3.15A9.75,9.75,0,0,1,179,52.92Zm-3.61,14.6a3,3,0,0,0,1.86-.31,1.54,1.54,0,0,0,.91-1.14l.5-3.94q-.29.08-1.19.24t-1.39.29a10.6,10.6,0,0,0-1.15.4,2.35,2.35,0,0,0-1,.74,2.14,2.14,0,0,0-.42,1,2.39,2.39,0,0,0,.39,1.89A2.24,2.24,0,0,0,175.43,67.51Z"/><path class="cls-1" d="M201.38,55.73q5,.63,4,8.54l-.46,3.67a16.26,16.26,0,0,0-.17,3.51c0,.19.36.42,1,.69a6,6,0,0,0,1.29.46q.11,0,.06.58a2.25,2.25,0,0,1-.15.75q-.23-.07-2-.41t-2.67-.45q-.93-.12-2.58-.21l-2-.1a1.15,1.15,0,0,1-.06-.75c0-.39.12-.57.23-.56a4.6,4.6,0,0,0,1.33-.13q.9-.18,1-.44a11.19,11.19,0,0,0,.66-2.78l.46-3.67a8.45,8.45,0,0,0-.3-4.58,3.13,3.13,0,0,0-2.6-1.62,3.61,3.61,0,0,0-2.25.4A1.87,1.87,0,0,0,195,60l-.84,6.64a16.2,16.2,0,0,0-.17,3.51c0,.19.35.42,1,.69a5.57,5.57,0,0,0,1.22.45c.1,0,.14.21.1.58a2.18,2.18,0,0,1-.15.75q-.3-.08-2-.41t-2.59-.44q-.93-.12-2.7-.22t-2.08-.11a1.14,1.14,0,0,1-.06-.75q.07-.58.23-.56A5.48,5.48,0,0,0,188.4,70c.65-.11,1-.26,1.09-.43a12.81,12.81,0,0,0,.63-2.78l.79-6.29a3.7,3.7,0,0,0-.31-2.55,1.88,1.88,0,0,0-.79-.69,4.45,4.45,0,0,0-.9-.35c-.24-.06-.36-.11-.35-.16.09-.75.21-1.12.34-1.13a55.12,55.12,0,0,0,6.36-.37l.1,0h.21c.1,0,.18.12.24.3a1.16,1.16,0,0,1,.06.44,13.93,13.93,0,0,0-.33,1.37.3.3,0,0,0,0,.2.57.57,0,0,0,.21-.09,8.62,8.62,0,0,1,2.58-1.32A6.81,6.81,0,0,1,201.38,55.73Z"/><path class="cls-1" d="M226.41,50.42l6.67.84q6.29.79,9.35,4.94a12.32,12.32,0,0,1,2.43,9.17,13.12,13.12,0,0,1-4.74,8.87q-4,3.31-10.29,2.52-.81-.1-3.17-.48t-3.4-.51l-5.15-.49a1,1,0,0,1,0-.63q.08-.66.2-.64a6.45,6.45,0,0,0,1.5-.07c.66-.09,1.06-.24,1.19-.46a14.05,14.05,0,0,0,.71-3.48l1.84-14.58a12.41,12.41,0,0,0,.13-3.2q-.06-.44-1-.83a6.08,6.08,0,0,0-1.51-.46q-.16,0-.08-.6a1.05,1.05,0,0,1,.24-.67Q223.82,50.1,226.41,50.42Zm1.5,5.21L226,70.75a6.31,6.31,0,0,0,.06,2.91q.54.7,4.63,1.21,7.83,1,9.25-10.28a12.57,12.57,0,0,0-1.18-7.6,6.93,6.93,0,0,0-5.62-3.77l-.19,0q-3.7-.47-4.25.09A4.29,4.29,0,0,0,227.91,55.63Z"/><path class="cls-1" d="M253.27,74a14.36,14.36,0,0,0-.13,3.51c0,.19.35.42,1,.69a5.72,5.72,0,0,0,1.27.46c.1,0,.14.21.1.58a2.24,2.24,0,0,1-.15.75q-.27-.07-2-.42t-2.63-.45q-1-.12-2.73-.23t-2-.1a1.14,1.14,0,0,1-.06-.75q.07-.58.23-.56a5.59,5.59,0,0,0,1.42-.11q1-.17,1.11-.43a12.65,12.65,0,0,0,.63-2.78L250,67.9a3.7,3.7,0,0,0-.31-2.55,2.15,2.15,0,0,0-.81-.69,4.06,4.06,0,0,0-.9-.35c-.25-.06-.38-.11-.37-.17.09-.75.22-1.12.38-1.13a29.54,29.54,0,0,0,3.18-.07,30.76,30.76,0,0,0,3.14-.31l.32,0c.13,0,.22.12.28.31a.73.73,0,0,1,0,.43,33.35,33.35,0,0,0-.73,3.28Zm-2-16.65a2.37,2.37,0,0,1-.48-1.79,2.39,2.39,0,0,1,2.69-2.07,2.34,2.34,0,0,1,1.61.91,2.31,2.31,0,0,1,.48,1.77,2.38,2.38,0,0,1-.91,1.61,2.4,2.4,0,0,1-3.4-.43Z"/><path class="cls-1" d="M267.93,64.13a4.78,4.78,0,0,1,3.43,1.71q1,1.4.65,4.45l-1,7.6a1.78,1.78,0,0,0,.2,1.22,1.17,1.17,0,0,0,.88.52,2.42,2.42,0,0,0,1.38-.34c.15.07.21.22.18.45a2.3,2.3,0,0,1-.38,1.13,9.58,9.58,0,0,1-1.66.77,4.06,4.06,0,0,1-1.92.27,2.85,2.85,0,0,1-1.65-.87,3.19,3.19,0,0,1-.94-1.57l-.32.21q-.28.18-.76.43a11.35,11.35,0,0,1-1.08.49,6.25,6.25,0,0,1-1.38.36A5.66,5.66,0,0,1,262,81a4.64,4.64,0,0,1-3-1.46,3.69,3.69,0,0,1-.85-3.07,3.58,3.58,0,0,1,.66-1.68,4.66,4.66,0,0,1,1.23-1.2,8,8,0,0,1,1.79-.81,15.86,15.86,0,0,1,1.89-.53c.52-.1,1.19-.22,2-.35l1.7-.29a.61.61,0,0,0,.43-.57l.27-2.12a3.34,3.34,0,0,0-.35-2.2,2,2,0,0,0-1.56-1,2.35,2.35,0,0,0-1.9.48,2.9,2.9,0,0,0-.91,1.94,1.26,1.26,0,0,1-.72,1.06,2.41,2.41,0,0,1-1.36.2,2.2,2.2,0,0,1-1.89-1.18q.23-1.85,3-3.15A9.75,9.75,0,0,1,267.93,64.13Zm-3.6,14.6a3,3,0,0,0,1.86-.31,1.54,1.54,0,0,0,.91-1.14l.5-3.94q-.28.08-1.19.24t-1.39.29a10.93,10.93,0,0,0-1.15.4,2.35,2.35,0,0,0-1,.73,2.15,2.15,0,0,0-.43,1,2.4,2.4,0,0,0,.39,1.89A2.24,2.24,0,0,0,264.33,78.72Z"/><path class="cls-1" d="M284,66.11a16.53,16.53,0,0,1,4.39,1.22,22,22,0,0,1-.12,4.38c0,.21-.21.29-.54.25q-.85-.11-.89-.42a4.72,4.72,0,0,0-.85-2.44,3,3,0,0,0-2.21-1.24,2.79,2.79,0,0,0-1.82.28,1.73,1.73,0,0,0-.82,1.35,2.26,2.26,0,0,0,.09,1,2.41,2.41,0,0,0,.59.92,9.5,9.5,0,0,0,.77.72q.34.28,1,.76a2.44,2.44,0,0,0,.36.24l.54.38.59.43.57.44a7.18,7.18,0,0,1,.62.53l.54.54a3.1,3.1,0,0,1,.51.61l.39.66a2.54,2.54,0,0,1,.32.75,7.56,7.56,0,0,1,.12.76,3.68,3.68,0,0,1,0,.84,4.59,4.59,0,0,1-2.36,3.6,7.38,7.38,0,0,1-4.71.84,13,13,0,0,1-4.84-1.71,15.57,15.57,0,0,1-.12-2.19,19.08,19.08,0,0,1,.09-2.24.83.83,0,0,1,.56-.13q.89.11.89.43a4.29,4.29,0,0,0,1.19,2.8,4.15,4.15,0,0,0,2.52,1.32,2.82,2.82,0,0,0,1.84-.32A1.89,1.89,0,0,0,284.1,80a2.53,2.53,0,0,0,0-.73,1.88,1.88,0,0,0-.28-.7l-.37-.6a2.81,2.81,0,0,0-.63-.61l-.72-.54-.9-.62-.92-.64a9.06,9.06,0,0,1-2.48-2.41,4.49,4.49,0,0,1,1.69-6.27A7.5,7.5,0,0,1,284,66.11Z"/><path class="cls-1" d="M302.71,68.55a7.87,7.87,0,0,1,4.24,1.83,8.14,8.14,0,0,1,2.92,7.34,9.1,9.1,0,0,1-10.23,8,9,9,0,0,1-2.67-.89q-.16,0-.22.52L296.42,88a14,14,0,0,0-.13,3.51c0,.21.32.45.95.73a6,6,0,0,0,1.29.46c.08,0,.1.2.06.58a3.49,3.49,0,0,1-.11.71q-.27,0-2-.38t-2.63-.45q-1-.12-2.73-.23c-1.18-.07-1.87-.12-2.08-.14a1.41,1.41,0,0,1,0-.73c0-.37.11-.55.19-.54a5.39,5.39,0,0,0,1.45-.11c.65-.11,1-.27,1.14-.46a14,14,0,0,0,.58-2.75l1.86-14.74a3.78,3.78,0,0,0-.3-2.58,1.76,1.76,0,0,0-.78-.67,4.64,4.64,0,0,0-.9-.33c-.25-.06-.38-.11-.37-.17q.14-1.12.38-1.13a29.75,29.75,0,0,0,5.88-.36l.76-.1c.1,0,.12.29.05.83a2,2,0,0,1-.13.45,7.77,7.77,0,0,1,1.83-.69A5.58,5.58,0,0,1,302.71,68.55Zm-1.18,1.93a2.94,2.94,0,0,0-2.16.47,2.57,2.57,0,0,0-1,1.87l-1,7.95a2.39,2.39,0,0,0,.79,2.16,3.78,3.78,0,0,0,2.14,1,3.65,3.65,0,0,0,3.19-1.24,7.51,7.51,0,0,0,1.79-4.4,10,10,0,0,0-.58-5.34A3.82,3.82,0,0,0,301.53,70.48Z"/><path class="cls-1" d="M322.13,71A8.58,8.58,0,0,1,328,74.27a8.34,8.34,0,0,1,1.79,6.44A8.87,8.87,0,1,1,322.13,71Zm-.73,1.75a3.13,3.13,0,0,0-3,1.4,8.34,8.34,0,0,0-1.53,4.06,11.33,11.33,0,0,0,.57,5.6,3.88,3.88,0,0,0,3.2,2.75,3.17,3.17,0,0,0,3.06-1.42,8.27,8.27,0,0,0,1.55-4,13.31,13.31,0,0,0,0-3.79,6.85,6.85,0,0,0-1.26-3.08A3.6,3.6,0,0,0,321.4,72.71Z"/><path class="cls-1" d="M344.68,73.8a3.87,3.87,0,0,1,3,1.67q-.41,3.28-2.26,3a2.31,2.31,0,0,1-1.41-1,2.44,2.44,0,0,0-1.56-1,2.09,2.09,0,0,0-2,1,5.17,5.17,0,0,0-1,2.44l-.61,4.82a16.26,16.26,0,0,0-.17,3.51c0,.19.34.42,1,.69a5.48,5.48,0,0,0,1.26.45q.11,0,.06.58a4,4,0,0,1-.12.75q-.3-.08-2-.41t-2.61-.45q-.93-.12-2.7-.22t-2.08-.11a1.15,1.15,0,0,1-.06-.75c0-.39.12-.57.23-.56a5.48,5.48,0,0,0,1.45-.11c.65-.11,1-.26,1.09-.43a12.75,12.75,0,0,0,.63-2.78l.79-6.29a3.7,3.7,0,0,0-.31-2.55,1.88,1.88,0,0,0-.8-.69,4.4,4.4,0,0,0-.9-.35c-.24-.06-.36-.11-.35-.16q.14-1.12.34-1.13a55.11,55.11,0,0,0,6.36-.37l.32,0c.1,0,.18.12.24.3a.93.93,0,0,1,0,.46l-.13.53q-.08.36-.19.76A5.08,5.08,0,0,0,340,76a7.11,7.11,0,0,1,2.13-1.63A4.26,4.26,0,0,1,344.68,73.8Z"/><path class="cls-1" d="M358.46,75.54a4.78,4.78,0,0,1,3.43,1.71q1,1.4.65,4.45l-1,7.6a1.78,1.78,0,0,0,.2,1.22,1.17,1.17,0,0,0,.88.52,2.43,2.43,0,0,0,1.38-.34c.15.07.21.22.18.45a2.32,2.32,0,0,1-.38,1.13,9.56,9.56,0,0,1-1.67.77,4,4,0,0,1-1.92.27,2.83,2.83,0,0,1-1.65-.87,3.19,3.19,0,0,1-.94-1.57l-.32.21q-.28.18-.76.43a11.24,11.24,0,0,1-1.08.49,6.23,6.23,0,0,1-1.38.36,5.65,5.65,0,0,1-1.55,0,4.65,4.65,0,0,1-3-1.46,3.69,3.69,0,0,1-.85-3.07,3.6,3.6,0,0,1,.66-1.68A4.64,4.64,0,0,1,350.6,85a8,8,0,0,1,1.79-.81,15.91,15.91,0,0,1,1.89-.53q.79-.16,2-.36L358,83a.61.61,0,0,0,.43-.57l.27-2.12a3.34,3.34,0,0,0-.35-2.2,2,2,0,0,0-1.56-1,2.36,2.36,0,0,0-1.9.49,2.91,2.91,0,0,0-.91,1.94,1.26,1.26,0,0,1-.72,1.06,2.41,2.41,0,0,1-1.36.2A2.19,2.19,0,0,1,350,79.65q.23-1.85,3-3.15A9.76,9.76,0,0,1,358.46,75.54Zm-3.61,14.6a3,3,0,0,0,1.86-.31,1.54,1.54,0,0,0,.91-1.14l.5-3.94c-.19.05-.58.14-1.19.24s-1.06.21-1.39.29a10.78,10.78,0,0,0-1.15.4,2.35,2.35,0,0,0-1,.73,2.15,2.15,0,0,0-.42,1,2.39,2.39,0,0,0,.39,1.89A2.24,2.24,0,0,0,354.85,90.14Z"/><path class="cls-1" d="M384.75,78.86a4.78,4.78,0,0,1,3.43,1.71q1,1.4.65,4.45l-1,7.6a1.78,1.78,0,0,0,.2,1.22,1.17,1.17,0,0,0,.88.52,2.44,2.44,0,0,0,1.38-.34c.15.07.21.22.18.45a2.31,2.31,0,0,1-.38,1.13,9.61,9.61,0,0,1-1.67.77,4.05,4.05,0,0,1-1.91.27,2.85,2.85,0,0,1-1.65-.87A3.19,3.19,0,0,1,384,94.2l-.32.21q-.28.18-.76.43a11.37,11.37,0,0,1-1.08.49,6.23,6.23,0,0,1-1.38.36,5.65,5.65,0,0,1-1.55,0,4.64,4.64,0,0,1-3-1.46,3.69,3.69,0,0,1-.85-3.07,3.57,3.57,0,0,1,.66-1.68,4.66,4.66,0,0,1,1.23-1.2,8,8,0,0,1,1.79-.81,16,16,0,0,1,1.89-.53q.79-.16,2-.35l1.7-.29a.61.61,0,0,0,.43-.57l.27-2.12a3.34,3.34,0,0,0-.35-2.2,2,2,0,0,0-1.56-1,2.36,2.36,0,0,0-1.9.49,2.9,2.9,0,0,0-.91,1.94,1.26,1.26,0,0,1-.72,1.06,2.42,2.42,0,0,1-1.36.2A2.19,2.19,0,0,1,376.28,83q.23-1.85,3-3.15A9.76,9.76,0,0,1,384.75,78.86Zm-3.6,14.6a3,3,0,0,0,1.86-.31,1.54,1.54,0,0,0,.91-1.14l.5-3.94q-.28.08-1.19.24c-.6.11-1.06.21-1.39.29a10.85,10.85,0,0,0-1.15.4,2.34,2.34,0,0,0-1,.73,2.14,2.14,0,0,0-.43,1,2.39,2.39,0,0,0,.39,1.89A2.23,2.23,0,0,0,381.15,93.45Z"/><path class="cls-1" d="M407.1,81.67q5,.63,4,8.54l-.46,3.67a16.27,16.27,0,0,0-.17,3.51c0,.19.36.42,1,.69a5.89,5.89,0,0,0,1.29.46q.11,0,.06.58a2.27,2.27,0,0,1-.15.75q-.23-.07-2-.41T408,99q-.93-.12-2.58-.21l-2-.1a1.15,1.15,0,0,1-.06-.75c0-.39.12-.57.23-.56a4.64,4.64,0,0,0,1.33-.13q.91-.18,1-.44a11.22,11.22,0,0,0,.66-2.78l.46-3.67a8.45,8.45,0,0,0-.3-4.58,3.12,3.12,0,0,0-2.6-1.62,3.6,3.6,0,0,0-2.25.4,1.87,1.87,0,0,0-1.11,1.33l-.84,6.64a16.27,16.27,0,0,0-.17,3.51q0,.28,1,.69a5.55,5.55,0,0,0,1.22.45c.1,0,.14.21.1.58a2.19,2.19,0,0,1-.15.75q-.3-.08-2-.41t-2.59-.44q-.93-.12-2.7-.22c-1.18-.07-1.87-.11-2.08-.11a1.14,1.14,0,0,1-.06-.75q.07-.58.23-.56a5.43,5.43,0,0,0,1.44-.11q1-.17,1.09-.43a12.69,12.69,0,0,0,.63-2.78l.79-6.29a3.69,3.69,0,0,0-.31-2.55,1.87,1.87,0,0,0-.79-.69,4.51,4.51,0,0,0-.9-.35c-.24-.06-.36-.11-.35-.16q.14-1.12.34-1.13a55.1,55.1,0,0,0,6.36-.37.25.25,0,0,1,.1,0h.21c.1,0,.18.11.24.3a1.18,1.18,0,0,1,.06.44,13.08,13.08,0,0,0-.33,1.37.3.3,0,0,0,0,.2.58.58,0,0,0,.21-.09A8.65,8.65,0,0,1,404.06,82,6.8,6.8,0,0,1,407.1,81.67Z"/><path class="cls-1" d="M426.1,84a6.69,6.69,0,0,1,2.75.9c.13,0,.22-.18.27-.59l.46-3.63a13.6,13.6,0,0,0,.1-2.65q-.12-.64-1.93-.87l-.31,0c-.15,0-.21-.23-.15-.65s.16-.61.31-.59q1.17,0,2.29,0t1.86-.16c.49-.07.92-.15,1.28-.23l.83-.19.32-.06h.08c.1,0,.2.1.28.25a.71.71,0,0,1,.1.42,14.92,14.92,0,0,0-.84,3.58l-2.14,17a14.31,14.31,0,0,0-.13,2.88.57.57,0,0,0,.33.47,2.39,2.39,0,0,0,.71.29l.73.15.38.07a.81.81,0,0,1,0,.47c-.07.52-.17.76-.33.74q-.54,0-1.39,0l-1.65,0-1.54.08-1.64.13c-.15,0-.2-.25-.15-.69l.08-.66a.18.18,0,0,0,0-.16.07.07,0,0,0-.1,0,6.48,6.48,0,0,1-4.19.92,7.54,7.54,0,0,1-5.15-3A7.85,7.85,0,0,1,416,92.13a9.12,9.12,0,0,1,3.47-6.21A8.52,8.52,0,0,1,426.1,84Zm-.58,1.81a3.41,3.41,0,0,0-3.31,1.35,9.11,9.11,0,0,0-1.63,4.54,9.37,9.37,0,0,0,.55,5.26,3.82,3.82,0,0,0,3.13,2.26,3.23,3.23,0,0,0,2.21-.41,2.16,2.16,0,0,0,1-1.62l1-8.1a2.72,2.72,0,0,0,0-.83,3.6,3.6,0,0,0-.35-1,2.47,2.47,0,0,0-.94-.94A4.11,4.11,0,0,0,425.52,85.8Z"/><path class="cls-1" d="M449.69,83.91a11.71,11.71,0,0,0,.1-3.28c-.08-.22-.41-.46-1-.73a5.24,5.24,0,0,0-1.35-.46c-.1,0-.13-.21-.08-.6a1.56,1.56,0,0,1,.17-.68l2.13.39q1.93.36,3,.49l5,.39a2,2,0,0,1,0,.63c-.05.44-.13.65-.24.64a6.32,6.32,0,0,0-1.43.13c-.72.12-1.12.26-1.19.44a14.48,14.48,0,0,0-.74,3.36L452.2,99.12a14.39,14.39,0,0,0-.09,3.52q0,.28,1,.69a6,6,0,0,0,1.29.46q.15,0,.06.75a1.75,1.75,0,0,1-.14.53l-4.87-.85q-.77-.1-1.63-.17l-1.88-.14-1.65-.11a.77.77,0,0,1-.09-.56q.09-.73.25-.71a6.21,6.21,0,0,0,1.48-.09q1-.15,1.17-.44a13.62,13.62,0,0,0,.72-3.2Z"/><path class="cls-1" d="M471.8,89.83q5,.63,4,8.54l-.46,3.67a16.24,16.24,0,0,0-.17,3.51q0,.28,1,.69a5.93,5.93,0,0,0,1.29.46q.12,0,.06.58a2.18,2.18,0,0,1-.15.75q-.23-.07-2-.41t-2.67-.45q-.93-.12-2.58-.21l-2-.1a1.14,1.14,0,0,1-.06-.75c0-.39.12-.57.23-.56a4.56,4.56,0,0,0,1.33-.13q.91-.18,1-.44a11.22,11.22,0,0,0,.66-2.78l.46-3.67a8.44,8.44,0,0,0-.3-4.58,3.12,3.12,0,0,0-2.6-1.62,3.6,3.6,0,0,0-2.25.4,1.87,1.87,0,0,0-1.11,1.33l-.84,6.64a16.21,16.21,0,0,0-.17,3.51c0,.19.35.42,1,.69a5.59,5.59,0,0,0,1.22.45c.1,0,.14.21.1.58a2.24,2.24,0,0,1-.15.75q-.3-.08-2-.41T462,105.8q-.93-.12-2.7-.22c-1.18-.07-1.87-.11-2.08-.11a1.13,1.13,0,0,1-.06-.75c0-.39.12-.57.23-.56a5.39,5.39,0,0,0,1.45-.11c.65-.11,1-.26,1.09-.43a12.79,12.79,0,0,0,.63-2.78l.79-6.29A3.7,3.7,0,0,0,461,92a1.88,1.88,0,0,0-.79-.69,4.49,4.49,0,0,0-.9-.35c-.24-.06-.36-.11-.35-.16.09-.75.21-1.12.34-1.13a55.1,55.1,0,0,0,6.36-.37l.1,0H466c.1,0,.18.11.24.3a1.17,1.17,0,0,1,.06.44,13.35,13.35,0,0,0-.33,1.37.3.3,0,0,0,0,.2.6.6,0,0,0,.21-.09,8.59,8.59,0,0,1,2.58-1.32A6.81,6.81,0,0,1,471.8,89.83Z"/><path class="cls-1" d="M496,95.36q-.37-1.1-2.57-1.38c-.08,0-.09-.19,0-.55a1.33,1.33,0,0,1,.2-.68q.54.07,1.86.35t2.18.39q.87.11,2.27.17t1.9.12a1.13,1.13,0,0,1,0,.63q-.08.62-.31.59a4.63,4.63,0,0,0-1.55.18,2.25,2.25,0,0,0-1.45.93l-8.16,12.81a2.65,2.65,0,0,1-.58.59,1,1,0,0,1-.7.26q-.39,0-.43-.29-.55-1.83-1.5-5.07t-1.64-5.48q-.7-2.24-1.6-5.06-.33-1.14-2.37-1.4-.15,0-.08-.64a.9.9,0,0,1,.23-.6q.35,0,2,.37t2.61.45q.93.12,2.68.22t2,.14a1.27,1.27,0,0,1,0,.71c-.06.36-.14.53-.24.52a5.74,5.74,0,0,0-1.4.06q-.9.12-.95.51a.73.73,0,0,0,0,.39l2.7,9.36,4.44-7.2Q496.26,95.82,496,95.36Z"/><path class="cls-1" d="M509.53,106.35a14.26,14.26,0,0,0-.13,3.51q0,.28,1,.69a5.69,5.69,0,0,0,1.27.46c.1,0,.14.21.1.58a2.19,2.19,0,0,1-.15.75q-.27-.07-2-.42t-2.63-.45q-1-.12-2.74-.23t-2-.1a1.14,1.14,0,0,1-.06-.75q.07-.58.23-.56a5.65,5.65,0,0,0,1.43-.12q1-.17,1.11-.43a12.75,12.75,0,0,0,.63-2.78l.79-6.29a3.7,3.7,0,0,0-.31-2.55,2.17,2.17,0,0,0-.81-.69,4.16,4.16,0,0,0-.9-.35c-.25-.06-.38-.11-.37-.16q.14-1.12.38-1.13a29.62,29.62,0,0,0,3.18-.07,30.26,30.26,0,0,0,3.14-.31l.32,0c.13,0,.22.12.27.31a.71.71,0,0,1,0,.43,33,33,0,0,0-.73,3.28Zm-2-16.65a2.37,2.37,0,0,1-.48-1.78,2.41,2.41,0,0,1,4.78.6,2.37,2.37,0,0,1-.91,1.61,2.39,2.39,0,0,1-3.4-.43Z"/><path class="cls-1" d="M522.38,96.17a16.5,16.5,0,0,1,4.39,1.22,22.11,22.11,0,0,1-.12,4.37c0,.21-.21.29-.54.25q-.85-.11-.89-.43a4.72,4.72,0,0,0-.85-2.44,3,3,0,0,0-2.22-1.24,2.8,2.8,0,0,0-1.82.28,1.73,1.73,0,0,0-.82,1.35,2.27,2.27,0,0,0,.09,1,2.41,2.41,0,0,0,.59.92,9.49,9.49,0,0,0,.77.72q.34.28,1,.76a2.58,2.58,0,0,0,.36.24l.54.38.59.43.57.44a6.78,6.78,0,0,1,.62.53l.54.54a3.09,3.09,0,0,1,.51.61l.39.66a2.54,2.54,0,0,1,.32.75c0,.23.09.48.12.76a3.68,3.68,0,0,1,0,.84,4.59,4.59,0,0,1-2.36,3.6,7.38,7.38,0,0,1-4.71.84,13,13,0,0,1-4.84-1.71,15.45,15.45,0,0,1-.12-2.19,18.91,18.91,0,0,1,.09-2.24.83.83,0,0,1,.57-.12q.89.11.89.43a4.28,4.28,0,0,0,1.19,2.8,4.15,4.15,0,0,0,2.52,1.32,2.82,2.82,0,0,0,1.84-.32,1.9,1.9,0,0,0,.89-1.49,2.53,2.53,0,0,0,0-.73,1.88,1.88,0,0,0-.28-.7l-.37-.6a2.85,2.85,0,0,0-.63-.61l-.72-.54-.9-.62-.92-.65a9,9,0,0,1-2.48-2.41,4.49,4.49,0,0,1,1.69-6.27A7.49,7.49,0,0,1,522.38,96.17Z"/><path class="cls-1" d="M536,109.69a14.26,14.26,0,0,0-.13,3.51q0,.28,1,.69a5.62,5.62,0,0,0,1.28.46c.1,0,.14.21.1.58a2.19,2.19,0,0,1-.15.75q-.27-.07-2-.42t-2.63-.45q-1-.12-2.73-.23t-2-.1a1.15,1.15,0,0,1-.06-.75c0-.39.12-.57.23-.56a5.65,5.65,0,0,0,1.43-.12q1-.17,1.11-.43a12.8,12.8,0,0,0,.63-2.78l.79-6.29a3.7,3.7,0,0,0-.31-2.55,2.17,2.17,0,0,0-.81-.69,4.12,4.12,0,0,0-.9-.35c-.25-.06-.38-.11-.37-.16q.14-1.12.38-1.13a29.61,29.61,0,0,0,3.18-.07,30.23,30.23,0,0,0,3.14-.31l.32,0c.13,0,.22.12.27.31a.71.71,0,0,1,0,.43,33,33,0,0,0-.73,3.28ZM534,93a2.37,2.37,0,0,1-.48-1.78,2.41,2.41,0,0,1,4.78.6,2.37,2.37,0,0,1-.91,1.61A2.39,2.39,0,0,1,534,93Z"/><path class="cls-1" d="M552.41,100a7.9,7.9,0,0,1,4.15,1.76,8.16,8.16,0,0,1,2.5,3.45,8.3,8.3,0,0,1,.5,4,8.87,8.87,0,0,1-3.5,6.12,8.57,8.57,0,0,1-6.53,1.9,12.25,12.25,0,0,1-2.78-.64,8.48,8.48,0,0,0-1.78-.52,3,3,0,0,0-1,.14,3.8,3.8,0,0,1-.8.17,1.9,1.9,0,0,1-.53-.3c-.28-.19-.41-.34-.39-.44s.06-.31.17-.69.23-.92.4-1.63a22.43,22.43,0,0,0,.41-2.34l2-15.74a13.6,13.6,0,0,0,.1-2.65q-.12-.64-1.93-.87l-.35,0c-.16,0-.21-.23-.15-.65s.15-.61.31-.59q1.21,0,2.32,0t1.84-.16q.74-.1,1.28-.23l1.15-.25h.08c.1,0,.2.1.28.25a1.07,1.07,0,0,1,.14.43,13.63,13.63,0,0,0-.88,3.57l-.78,6.17v0l0,.17a1.09,1.09,0,0,0,0,.18c0,.08,0,.12.06.13a.3.3,0,0,0,.14,0,7.06,7.06,0,0,1,1.66-.57A5.55,5.55,0,0,1,552.41,100Zm-1.11,2a3,3,0,0,0-2.18.47,2.29,2.29,0,0,0-1,1.63l-1,8.18a2.33,2.33,0,0,0,.76,2.17,4.22,4.22,0,0,0,2.32,1,3.31,3.31,0,0,0,3.26-1.43,8.89,8.89,0,0,0,1.58-4.27,10,10,0,0,0-.53-5.4A3.81,3.81,0,0,0,551.3,102Z"/><path class="cls-1" d="M568.49,113.7a15.93,15.93,0,0,0-.17,3.51c0,.19.32.43.87.72a4.33,4.33,0,0,0,1.13.48c.08,0,.1.2.07.56a2.08,2.08,0,0,1-.15.73l-1.43-.28-1.63-.3q-.73-.13-1.38-.21t-1.47-.15l-1.63-.11-1.48-.09a1.1,1.1,0,0,1-.06-.73c0-.37.12-.55.23-.54a4.16,4.16,0,0,0,1.33-.17q.91-.22,1-.48a12.84,12.84,0,0,0,.67-2.82l2-16.05a13.68,13.68,0,0,0,.1-2.65q-.12-.64-1.85-.86l-.39,0c-.15,0-.21-.18-.17-.49s.16-.61.31-.59q1.21,0,2.32,0c.73,0,1.35-.09,1.84-.16s.92-.14,1.28-.21l.87-.18.28-.08h.08q.16,0,.3.27a1.19,1.19,0,0,1,.16.41,12.31,12.31,0,0,0-.92,3.57Z"/><path class="cls-1" d="M580.41,115.29a14.26,14.26,0,0,0-.13,3.51q0,.28,1,.69a5.71,5.71,0,0,0,1.28.46c.1,0,.14.21.1.58a2.25,2.25,0,0,1-.15.75q-.27-.07-2-.42t-2.63-.45q-1-.12-2.73-.23t-2-.1a1.15,1.15,0,0,1-.06-.75q.07-.58.23-.56a5.65,5.65,0,0,0,1.43-.12c.67-.11,1-.25,1.11-.43a12.69,12.69,0,0,0,.63-2.78l.79-6.29a3.7,3.7,0,0,0-.31-2.55,2.18,2.18,0,0,0-.82-.69,4.09,4.09,0,0,0-.9-.35c-.25-.06-.38-.11-.37-.16q.14-1.12.38-1.13a29.61,29.61,0,0,0,3.18-.07,30.14,30.14,0,0,0,3.14-.31l.32,0c.13,0,.22.12.27.31a.71.71,0,0,1,0,.43,33.55,33.55,0,0,0-.73,3.28Zm-2-16.65a2.36,2.36,0,0,1-.48-1.79,2.41,2.41,0,0,1,4.78.6,2.37,2.37,0,0,1-.91,1.61,2.39,2.39,0,0,1-3.39-.43Z"/><path class="cls-1" d="M588.87,107.34l-2.35-.3q-.27,0-.14-1a1,1,0,0,1,.08-.34,10.89,10.89,0,0,0,3.23-1.67q.56-.44,1.24-1t1.62-1.46a2.77,2.77,0,0,1,.72.19c.22.09.33.18.32.26l-.48,3.78,2.79.37,1.91.26q.31,0,.26.39a3.79,3.79,0,0,1-.6,1.65l-4.63-.58-1.17,9.3a3.69,3.69,0,0,0,.36,2.44,2.22,2.22,0,0,0,1.71,1,3.72,3.72,0,0,0,.82,0,4,4,0,0,0,.72-.12l.53-.17a1.27,1.27,0,0,1,.29-.08c.11,0,.21.12.3.39a.9.9,0,0,1,.09.52,3.56,3.56,0,0,1-1.8,1,6.13,6.13,0,0,1-2.85.37,4.91,4.91,0,0,1-3.25-1.72,5.21,5.21,0,0,1-.9-4.17Z"/><path class="cls-1" d="M605,107q.85.11,2.45.19t2,.13a2.61,2.61,0,0,1,0,.7c0,.36-.12.53-.22.52a4.26,4.26,0,0,0-1.25.14q-.87.18-.95.53l0,.23q0,.63,2.48,9.25.4-.66,2-3.61t1.84-3.39a3.68,3.68,0,0,0,.38-1.17,1.22,1.22,0,0,0-.5-1,3.2,3.2,0,0,0-1.8-.68q-.16,0-.08-.6a1,1,0,0,1,.24-.64q.46.06,1.88.35t2.34.41q.81.1,2,.13c.79,0,1.37.06,1.73.1a1.11,1.11,0,0,1,.08.64c-.05.41-.13.61-.23.6a5,5,0,0,0-1.61.19,2.15,2.15,0,0,0-1.48,1L607,127.18q-3.1,5.33-6.46,4.91a2.1,2.1,0,0,1-1.48-.74,1.82,1.82,0,0,1,.54-2.71q4,.51,5.69-2.5l1.37-2.49-4-13.83a5,5,0,0,0-.35-.95,2.33,2.33,0,0,0-1-1,3.7,3.7,0,0,0-1.22-.45c-.1,0-.13-.2-.09-.56s.12-.64.2-.68l2.05.38Q604,106.9,605,107Z"/></svg>