<svg id="Layer_1" data-name="Layer 1" xmlns="http://www.w3.org/2000/svg" viewBox="0 0 400 113.68"><defs><style>.cls-1{fill:#1928eb;}</style></defs><title>part</title><path class="cls-1" d="M26.25,11.61q1.12-.11,2.59-.31T31.47,11a12.65,12.65,0,0,1,2.32,0,9.36,9.36,0,0,1,2.36.54,8.25,8.25,0,0,1,2.14,1.14,6.16,6.16,0,0,1,1.63,1.9,6.62,6.62,0,0,1,.83,2.69,7.4,7.4,0,0,1-.61,3.65,8.17,8.17,0,0,1-2.58,3.24,7.9,7.9,0,0,1-4.2,1.63,4.83,4.83,0,0,1-1.65-.13A2.33,2.33,0,0,1,30.51,25a.86.86,0,0,1-.17-.37,1.77,1.77,0,0,1-.08-.58c0-.18,0-.28.09-.28a5.46,5.46,0,0,0,2.2.18,3.44,3.44,0,0,0,2.8-1.81,6.54,6.54,0,0,0,.71-4,7.13,7.13,0,0,0-1.44-4A3.66,3.66,0,0,0,31.27,13a6.32,6.32,0,0,0-2.22.49q-.44.28-.08,4.07L30.3,31.38a12.14,12.14,0,0,0,.63,3.26q.16.45,1.37.63A8.17,8.17,0,0,0,34,35.4c.1,0,.18.21.22.64a2.2,2.2,0,0,1,0,.67q-4.28.18-5.52.29-1,.1-2.34.28l-2.06.29-.77.15a1.34,1.34,0,0,1-.18-.69c0-.41,0-.62.06-.63A6.64,6.64,0,0,0,24.9,36q1-.35,1.08-.71a15.38,15.38,0,0,0-.11-3.54l-1.4-14.63A15.31,15.31,0,0,0,23.94,14q-.15-.3-1.2-.53a5.62,5.62,0,0,0-1.52-.19q-.16,0-.21-.57t.09-.71Q25.17,11.72,26.25,11.61Z"/><path class="cls-1" d="M51.45,17.63a4.77,4.77,0,0,1,3.72.91q1.32,1.14,1.61,4.2l.73,7.63A1.77,1.77,0,0,0,58,31.52a1.17,1.17,0,0,0,1,.32,2.43,2.43,0,0,0,1.27-.63c.16,0,.25.17.27.4a2.31,2.31,0,0,1-.12,1.18,9.6,9.6,0,0,1-1.46,1.12,4.05,4.05,0,0,1-1.81.68,2.84,2.84,0,0,1-1.81-.49A3.17,3.17,0,0,1,54,32.78l-.27.28c-.16.16-.37.35-.65.59a11.6,11.6,0,0,1-.95.72,6.22,6.22,0,0,1-1.27.65,5.68,5.68,0,0,1-1.51.36,4.64,4.64,0,0,1-3.26-.76,3.7,3.7,0,0,1-1.5-2.81A3.58,3.58,0,0,1,44.92,30a4.65,4.65,0,0,1,.94-1.44,8,8,0,0,1,1.57-1.19,16.1,16.1,0,0,1,1.73-.93q.73-.32,1.88-.79l1.6-.66a.61.61,0,0,0,.29-.65l-.2-2.13a3.34,3.34,0,0,0-.82-2.07,2,2,0,0,0-1.74-.62,2.36,2.36,0,0,0-1.75.89,2.91,2.91,0,0,0-.46,2.1,1.26,1.26,0,0,1-.47,1.2,2.41,2.41,0,0,1-1.28.49,2.19,2.19,0,0,1-2.1-.74q-.18-1.86,2.2-3.73A9.76,9.76,0,0,1,51.45,17.63Zm-.32,15A3,3,0,0,0,52.88,32a1.54,1.54,0,0,0,.64-1.31l-.38-3.95q-.26.14-1.11.5t-1.29.59a10.79,10.79,0,0,0-1,.65,2.36,2.36,0,0,0-.83.94,2.15,2.15,0,0,0-.19,1.11,2.4,2.4,0,0,0,.79,1.76A2.24,2.24,0,0,0,51.14,32.67Z"/><path class="cls-1" d="M72.56,15.61a3.87,3.87,0,0,1,3.3,1q.32,3.29-1.54,3.47a2.32,2.32,0,0,1-1.58-.63A2.43,2.43,0,0,0,71,18.81a2.08,2.08,0,0,0-1.76,1.4,5.18,5.18,0,0,0-.43,2.6l.46,4.84a16.32,16.32,0,0,0,.61,3.46q.1.26,1.08.46a5.51,5.51,0,0,0,1.33.17c.08,0,.14.18.19.55a4,4,0,0,1,.05.76c-.21,0-.9,0-2.07,0s-2,.08-2.64.14-1.51.18-2.68.37-1.85.31-2.06.35a1.14,1.14,0,0,1-.22-.72c0-.39,0-.59.1-.6a5.42,5.42,0,0,0,1.38-.43c.61-.25.94-.47,1-.66a12.69,12.69,0,0,0,0-2.85l-.61-6.31A3.7,3.7,0,0,0,63.83,20a1.88,1.88,0,0,0-.93-.5,4.48,4.48,0,0,0-1-.14c-.25,0-.37,0-.38-.08q-.11-1.12.08-1.18a55.18,55.18,0,0,0,6.12-1.76l.3-.11c.1,0,.2.07.3.25a.94.94,0,0,1,.14.44c0,.12,0,.3,0,.55s0,.51,0,.78a4.88,4.88,0,0,0,0,.53,7.14,7.14,0,0,1,1.72-2.06A4.26,4.26,0,0,1,72.56,15.61Z"/><path class="cls-1" d="M80.76,17.56l-2.36.23q-.27,0-.37-1a1,1,0,0,1,0-.35,10.87,10.87,0,0,0,2.78-2.34q.46-.55,1-1.25t1.26-1.78a2.81,2.81,0,0,1,.74,0c.24,0,.36.1.37.18l.36,3.79,2.81-.25,1.92-.16c.21,0,.32.09.34.32a3.8,3.8,0,0,1-.22,1.74l-4.65.45.89,9.33a3.69,3.69,0,0,0,.88,2.3,2.22,2.22,0,0,0,1.9.64,3.67,3.67,0,0,0,.8-.17,4.08,4.08,0,0,0,.68-.28l.48-.28a1.25,1.25,0,0,1,.26-.14c.1,0,.23.07.38.32s.22.41.2.49q-.18.56-1.53,1.42a6.13,6.13,0,0,1-2.7,1,4.91,4.91,0,0,1-3.55-1,5.21,5.21,0,0,1-1.8-3.87Z"/><path class="cls-1" d="M107.38,3.81q2.62-.15,4.29-.31T116,3l4.21-.54a12.91,12.91,0,0,0,2.63-.64l1.3,5.85a1.5,1.5,0,0,1-1,.37c-.21,0-.34,0-.41-.16A5.61,5.61,0,0,0,121,5.13a4.28,4.28,0,0,0-2.86-.49q-3.6.35-3.69,1a13.53,13.53,0,0,0,0,3.67l1.34,14a13.26,13.26,0,0,0,.67,3.33c0,.18.41.33,1.1.46a6.21,6.21,0,0,0,1.38.16c.1,0,.18.22.22.68a2,2,0,0,1,0,.63l-1.5,0-1.83.06q-.83,0-1.61.12-1,.1-2.87.39l-2.25.37a.9.9,0,0,1-.21-.6c0-.46,0-.7.09-.71a6.22,6.22,0,0,0,1.43-.41q1-.36,1-.69a12.28,12.28,0,0,0,0-3.24L110,9.87q-.31-3.21-.71-3.72t-3.74-.31a4.28,4.28,0,0,0-2.71,1,5.78,5.78,0,0,0-1.2,3q0,.24-.36.27a1.3,1.3,0,0,1-1-.21l.17-6a13,13,0,0,0,2.71.13Z"/><path class="cls-1" d="M139.45,9.2q5-.47,5.69,7.15l.38,4a14.32,14.32,0,0,0,.64,3.45q.06.27,1.08.46a6,6,0,0,0,1.36.16c.08,0,.14.18.19.55a3.92,3.92,0,0,1,.05.76c-.18,0-.88,0-2.09,0s-2.09.08-2.66.14-1.51.18-2.6.37l-2,.35a1.45,1.45,0,0,1-.19-.72q-.06-.58.06-.59a4.65,4.65,0,0,0,1.31-.42c.56-.25.87-.47.93-.66a14.77,14.77,0,0,0,0-2.85l-.36-3.79q-.31-3.21-1.3-4.35a3.18,3.18,0,0,0-2.88-1,3.73,3.73,0,0,0-2.07.86,1.84,1.84,0,0,0-.83,1.56l.64,6.66a14.38,14.38,0,0,0,.64,3.45q.1.26,1.08.46a5.5,5.5,0,0,0,1.33.17c.08,0,.14.18.19.55a2.2,2.2,0,0,1,0,.76l-2,0q-1.73,0-2.62.13t-2.68.37q-1.75.29-2.06.35a1.14,1.14,0,0,1-.22-.72c0-.39,0-.59.1-.6a5.42,5.42,0,0,0,1.38-.43c.61-.25.94-.47,1-.66a12.44,12.44,0,0,0,0-2.81l-1.54-16.1a15.41,15.41,0,0,0-.45-2.61q-.25-.6-2.07-.43l-.35,0c-.16,0-.25-.18-.29-.6s0-.63.17-.64q1.19-.23,2.25-.53T130.32,1q.7-.26,1.2-.51L132.59,0h.08a.42.42,0,0,1,.33.18,1.06,1.06,0,0,1,.23.39,12.52,12.52,0,0,0-.12,3.68l.75,7.82c0,.16.07.23.18.22s.07,0,.14-.13a7.4,7.4,0,0,1,2.22-1.91A7.18,7.18,0,0,1,139.45,9.2Z"/><path class="cls-1" d="M160.91,7.14a3.87,3.87,0,0,1,3.3,1q.32,3.29-1.54,3.47a2.32,2.32,0,0,1-1.58-.63,2.43,2.43,0,0,0-1.74-.62,2.08,2.08,0,0,0-1.76,1.4,5.18,5.18,0,0,0-.43,2.6l.46,4.84a16.34,16.34,0,0,0,.61,3.46q.1.26,1.08.46a5.56,5.56,0,0,0,1.33.17c.08,0,.14.18.19.55a4,4,0,0,1,.05.76c-.21,0-.9,0-2.07,0s-2,.08-2.64.14-1.51.18-2.68.37-1.85.31-2.06.35a1.14,1.14,0,0,1-.23-.72c0-.39,0-.59.1-.6a5.42,5.42,0,0,0,1.38-.43q.92-.38,1-.66a12.68,12.68,0,0,0,0-2.85L153,13.91a3.7,3.7,0,0,0-.86-2.42,1.87,1.87,0,0,0-.93-.5,4.42,4.42,0,0,0-1-.14c-.25,0-.37,0-.38-.08q-.11-1.12.08-1.18a55.18,55.18,0,0,0,6.12-1.76l.3-.11c.1,0,.2.07.3.25a.94.94,0,0,1,.14.44c0,.12,0,.3,0,.55s0,.51,0,.78a5.05,5.05,0,0,0,0,.53,7.13,7.13,0,0,1,1.72-2.06A4.25,4.25,0,0,1,160.91,7.14Z"/><path class="cls-1" d="M174.54,5.83a7.22,7.22,0,0,1,3.32.4,6.16,6.16,0,0,1,2.42,1.6A9.07,9.07,0,0,1,181.74,10a6.73,6.73,0,0,1,.64,2.22q.08.85-.19,1.09a2.21,2.21,0,0,1-1.16.33l-9.25.89c-.18,0-.26.1-.25.26a7.55,7.55,0,0,0,.76,2.66,5.35,5.35,0,0,0,1.94,2.12,4.57,4.57,0,0,0,3,.69,10.41,10.41,0,0,0,1.12-.17,5.71,5.71,0,0,0,1-.29l.79-.33a3.32,3.32,0,0,0,.68-.42l.49-.38.72-.6a.66.66,0,0,1,.22.21.76.76,0,0,1,.15.38,1.19,1.19,0,0,1-.16.76,6.34,6.34,0,0,1-2.08,2.31,7.2,7.2,0,0,1-3.73,1.41,7.88,7.88,0,0,1-6-1.94,8.39,8.39,0,0,1-3-5.82A9,9,0,0,1,169,8.82,7.54,7.54,0,0,1,174.54,5.83Zm-.1,1.81a2.75,2.75,0,0,0-1.61.7,3.65,3.65,0,0,0-1,1.42,7.44,7.44,0,0,0-.42,1.51,4.75,4.75,0,0,0-.06,1.16q0,.27.26.25l6.27-.6c.23,0,.33-.23.29-.61A5,5,0,0,0,177,8.8,2.78,2.78,0,0,0,174.44,7.64Z"/><path class="cls-1" d="M191.82,4.17a7.21,7.21,0,0,1,3.32.4,6.16,6.16,0,0,1,2.42,1.6A9,9,0,0,1,199,8.35a6.7,6.7,0,0,1,.64,2.22c.05.57,0,.93-.19,1.09a2.22,2.22,0,0,1-1.16.33l-9.25.89c-.18,0-.26.1-.25.26a7.55,7.55,0,0,0,.76,2.66,5.35,5.35,0,0,0,1.94,2.12,4.58,4.58,0,0,0,3,.69,10.7,10.7,0,0,0,1.12-.17,5.82,5.82,0,0,0,1-.29l.79-.33a3.27,3.27,0,0,0,.68-.42l.49-.38.72-.6a.66.66,0,0,1,.22.21.76.76,0,0,1,.15.38,1.19,1.19,0,0,1-.16.76,6.35,6.35,0,0,1-2.08,2.31,7.22,7.22,0,0,1-3.73,1.41,7.88,7.88,0,0,1-6-1.94,8.39,8.39,0,0,1-3-5.83,9,9,0,0,1,1.65-6.57A7.54,7.54,0,0,1,191.82,4.17ZM191.72,6a2.75,2.75,0,0,0-1.61.7,3.66,3.66,0,0,0-1,1.42,7.53,7.53,0,0,0-.42,1.51,4.75,4.75,0,0,0-.06,1.16q0,.27.26.25l6.27-.6c.23,0,.33-.23.29-.62a5,5,0,0,0-1.17-2.66A2.79,2.79,0,0,0,191.72,6Z"/><path class="cls-1" d="M205.78,4a2.47,2.47,0,0,1,.93,1.73,2.66,2.66,0,0,1-.58,1.93,2.38,2.38,0,0,1-1.72,1A2.49,2.49,0,0,1,202.47,8a2.64,2.64,0,0,1-1-1.78,2.44,2.44,0,0,1,.6-1.87,2.58,2.58,0,0,1,1.79-.93A2.46,2.46,0,0,1,205.78,4ZM206.92,16a2.53,2.53,0,0,1,.93,1.75,2.59,2.59,0,0,1-.58,1.91,2.41,2.41,0,0,1-1.72,1,2.53,2.53,0,0,1-1.94-.62,2.57,2.57,0,0,1-1-1.77,2.5,2.5,0,0,1,.6-1.89,2.55,2.55,0,0,1,1.79-1A2.44,2.44,0,0,1,206.92,16Z"/><path class="cls-1" d="M15.27,66.39l3.79-.48q.42,1.06,1.85,3.92t3.5,6.95q2.07,4.1,3.33,6.74c0,.05,0,.07.12.07a.1.1,0,0,0,.11-.12q2.89-8.41,4.57-13.81l1.11-4.59q1.17,0,3.19-.09,1.51-.1,4.61-.49a1.12,1.12,0,0,1,.16.61c0,.44,0,.66-.11.67h-.08a3.16,3.16,0,0,0-1.86.74q-.56.46-.37,2.13.38,3.45,1.57,16a10.3,10.3,0,0,0,.85,3.53c.12.23.5.42,1.13.57a5.23,5.23,0,0,0,1.34.21q.16,0,.2.69a1.9,1.9,0,0,1,0,.59l-4.79.07q-.78,0-1.63.14l-1.88.22-1.64.2a.82.82,0,0,1-.19-.57q0-.7.11-.71a4.58,4.58,0,0,0,1.23-.33,2.45,2.45,0,0,0,1.05-.63,2.19,2.19,0,0,0,.3-1.38l-.14-2.17L35.51,73.28q-.31-2.4-.62-2.38c-.08,0-.14.09-.18.25L28.45,89.71q-.57,1.52-1.38,1.57a1.27,1.27,0,0,1-.39-.05l-10-20.32q.35,9.68.49,17.35a4.25,4.25,0,0,0,.19,1.2q.22.41,1.6.71a8.39,8.39,0,0,0,1.85.27c.1,0,.17.22.2.69a1.84,1.84,0,0,1,0,.59L16,91.78q-1,.07-2.77.29t-2.11.25a.9.9,0,0,1-.2-.61c0-.44,0-.66.11-.67A7.76,7.76,0,0,0,13,90.54q1.29-.47,1.45-1.11a7.24,7.24,0,0,0,.26-2.63q-.11-3-.23-7T14.27,73q-.08-2.84-.13-3.54A3.75,3.75,0,0,0,14,68.34q-.13-.3-1.34-.5a8.85,8.85,0,0,0-1.71-.16c-.1,0-.17-.21-.2-.65a.84.84,0,0,1,.12-.59h2Q14.26,66.45,15.27,66.39Z"/><path class="cls-1" d="M54.54,72.22a8.57,8.57,0,0,1,6.39,2.14,8.34,8.34,0,0,1,3,6,8.83,8.83,0,0,1-14.62,7.13,8.75,8.75,0,0,1-.81-12.34A8.52,8.52,0,0,1,54.54,72.22Zm-.39,1.86A3.13,3.13,0,0,0,51.43,76a8.38,8.38,0,0,0-.74,4.28,11.35,11.35,0,0,0,1.61,5.39A3.88,3.88,0,0,0,56,87.79a3.17,3.17,0,0,0,2.74-2,8.26,8.26,0,0,0,.76-4.26,13.34,13.34,0,0,0-.74-3.71,6.85,6.85,0,0,0-1.81-2.79A3.6,3.6,0,0,0,54.15,74.07Z"/><path class="cls-1" d="M68.27,74.07l-2.37.15q-.27,0-.34-1a1,1,0,0,1,0-.35,10.87,10.87,0,0,0,2.86-2.25q.47-.54,1-1.22t1.31-1.74a2.75,2.75,0,0,1,.74,0c.24.05.36.11.36.19l.24,3.8,2.81-.16,1.92-.1c.21,0,.32.1.33.33a3.75,3.75,0,0,1-.28,1.73l-4.66.3.6,9.35a3.69,3.69,0,0,0,.81,2.33,2.22,2.22,0,0,0,1.88.7,3.68,3.68,0,0,0,.81-.15,4.18,4.18,0,0,0,.68-.26l.49-.27a1.19,1.19,0,0,1,.26-.13q.15,0,.37.33c.15.25.21.42.19.5q-.2.56-1.57,1.37a6.12,6.12,0,0,1-2.73.9,4.91,4.91,0,0,1-3.52-1.08,5.21,5.21,0,0,1-1.67-3.93Z"/><path class="cls-1" d="M92.52,69.79q5-.32,5.46,7.33l.26,4a14.24,14.24,0,0,0,.53,3.47c0,.18.39.35,1.06.5a5.88,5.88,0,0,0,1.36.21c.08,0,.13.18.17.55a4.08,4.08,0,0,1,0,.76q-.28,0-2.09,0t-2.67.05q-1,.06-2.61.28l-2,.29a1.46,1.46,0,0,1-.16-.73c0-.39,0-.58.08-.59a4.67,4.67,0,0,0,1.32-.38q.85-.35,1-.63A14.81,14.81,0,0,0,94.23,82L94,78.23q-.21-3.22-1.16-4.39a3.18,3.18,0,0,0-2.85-1,3.71,3.71,0,0,0-2.09.8A1.84,1.84,0,0,0,87,75.13l.43,6.68A14.2,14.2,0,0,0,88,85.28c.06.18.42.34,1.06.5a5.46,5.46,0,0,0,1.32.21c.08,0,.13.18.17.55a2.21,2.21,0,0,1,0,.76q-.31,0-2,0t-2.63.05c-.62,0-1.52.14-2.69.29s-1.86.25-2.07.29a1.14,1.14,0,0,1-.2-.73q0-.58.12-.59a5.41,5.41,0,0,0,1.4-.38q.93-.35,1-.63a12.58,12.58,0,0,0,.09-2.81l-1-16.15A15.33,15.33,0,0,0,82.09,64q-.23-.61-2.06-.49l-.35,0q-.23,0-.27-.61c0-.41,0-.63.19-.64q1.2-.19,2.27-.46t1.78-.5q.7-.24,1.22-.47L86,60.39H86a.42.42,0,0,1,.32.19,1.07,1.07,0,0,1,.22.39,12.5,12.5,0,0,0-.23,3.68l.5,7.84c0,.16.07.23.17.22s.08,0,.15-.13a7.43,7.43,0,0,1,2.28-1.84A7.16,7.16,0,0,1,92.52,69.79Z"/><path class="cls-1" d="M110.61,68.64a7.21,7.21,0,0,1,3.31.51,6.17,6.17,0,0,1,2.37,1.68A9.08,9.08,0,0,1,117.67,73a6.72,6.72,0,0,1,.57,2.24q.05.86-.22,1.09a2.2,2.2,0,0,1-1.17.29l-9.28.59c-.18,0-.27.09-.26.25a7.52,7.52,0,0,0,.68,2.68,5.34,5.34,0,0,0,1.87,2.18,4.57,4.57,0,0,0,3,.78A10.55,10.55,0,0,0,114,83a5.84,5.84,0,0,0,1-.26l.8-.3a3.3,3.3,0,0,0,.7-.39l.5-.36.74-.57a.65.65,0,0,1,.21.22.76.76,0,0,1,.14.38,1.2,1.2,0,0,1-.19.75,6.34,6.34,0,0,1-2.16,2.24A7.21,7.21,0,0,1,112,86a7.87,7.87,0,0,1-6-2.13A8.39,8.39,0,0,1,103.14,78,9,9,0,0,1,105,71.45,7.54,7.54,0,0,1,110.61,68.64Zm-.16,1.8a2.75,2.75,0,0,0-1.63.65,3.66,3.66,0,0,0-1,1.39,7.42,7.42,0,0,0-.47,1.49,4.79,4.79,0,0,0-.1,1.16c0,.18.1.27.25.26l6.29-.4q.35,0,.31-.6a5,5,0,0,0-1.09-2.7A2.79,2.79,0,0,0,110.45,70.44Z"/><path class="cls-1" d="M131.35,67.31a3.88,3.88,0,0,1,3.26,1.08q.21,3.3-1.65,3.42a2.31,2.31,0,0,1-1.56-.68,2.43,2.43,0,0,0-1.72-.67,2.09,2.09,0,0,0-1.8,1.34,5.19,5.19,0,0,0-.52,2.59l.31,4.85a16.29,16.29,0,0,0,.5,3.47c.06.18.42.34,1.06.5a5.46,5.46,0,0,0,1.32.21q.12,0,.17.55a4.14,4.14,0,0,1,0,.76c-.21,0-.9,0-2.07,0s-2.05,0-2.65.05-1.52.14-2.69.29-1.86.25-2.07.29a1.14,1.14,0,0,1-.2-.73c0-.39,0-.59.12-.59a5.38,5.38,0,0,0,1.4-.38c.62-.23,1-.44,1-.63a12.67,12.67,0,0,0,.09-2.85l-.4-6.33a3.69,3.69,0,0,0-.78-2.44,1.87,1.87,0,0,0-.91-.53,4.39,4.39,0,0,0-.95-.17c-.25,0-.37,0-.38-.09q-.07-1.13.12-1.18a55.23,55.23,0,0,0,6.17-1.56l.31-.1c.1,0,.2.08.29.25a.94.94,0,0,1,.13.44c0,.12,0,.3,0,.55s0,.51,0,.78a5.28,5.28,0,0,0,0,.53,7.14,7.14,0,0,1,1.78-2A4.26,4.26,0,0,1,131.35,67.31Z"/><path class="cls-1" d="M144.55,78.08a16,16,0,0,0,.49,3.48q.1.27,1,.54a4.24,4.24,0,0,0,1.21.25q.12,0,.17.54a2.09,2.09,0,0,1,0,.74h-3.12q-.74,0-1.4,0t-1.47.13l-1.62.2-1.47.19a1.09,1.09,0,0,1-.2-.71q0-.56.12-.57a4.16,4.16,0,0,0,1.28-.41q.85-.39.91-.66a12.93,12.93,0,0,0,.13-2.89l-1-16.14a13.68,13.68,0,0,0-.4-2.62q-.23-.61-2-.5l-.39,0q-.23,0-.26-.45c0-.41,0-.63.19-.64q1.2-.19,2.27-.46t1.78-.5q.7-.24,1.22-.45l.81-.34.27-.13h.08c.1,0,.22.06.35.21a1.21,1.21,0,0,1,.24.37,12.24,12.24,0,0,0-.23,3.68Z"/><path class="cls-1" d="M153.08,66.31q.85-.05,2.44-.27t2-.24a2.62,2.62,0,0,1,.12.69c0,.36,0,.55-.12.55a4.23,4.23,0,0,0-1.2.37q-.82.34-.83.7v.23q.12.62,4.17,8.62.27-.72,1.27-3.92t1.17-3.68a3.62,3.62,0,0,0,.16-1.22,1.22,1.22,0,0,0-.68-.91,3.2,3.2,0,0,0-1.89-.33q-.16,0-.19-.57a1,1,0,0,1,.11-.67q.47,0,1.91,0t2.38,0c.54,0,1.21-.12,2-.24s1.36-.2,1.72-.23a1.1,1.1,0,0,1,.2.61c0,.41,0,.62-.12.63a4.91,4.91,0,0,0-1.55.49,2.14,2.14,0,0,0-1.26,1.25l-6,17.61q-2,5.82-5.42,6a2.1,2.1,0,0,1-1.59-.45,1.82,1.82,0,0,1,0-2.77q4-.26,5.11-3.52.78-2.39.88-2.71L151.34,69.5a4.9,4.9,0,0,0-.52-.86,2.34,2.34,0,0,0-1.2-.8,3.69,3.69,0,0,0-1.28-.21c-.1,0-.17-.17-.19-.53s0-.65.07-.71l2.08,0C151.53,66.37,152.46,66.35,153.08,66.31Z"/><path class="cls-1" d="M185.33,60.9l.93,14.59a11.46,11.46,0,0,0,.55,3.08q.23.49,2.67.33l1.44-.09a10.41,10.41,0,0,0,4.57-1.11,4.44,4.44,0,0,0,1.31-1.45,8.21,8.21,0,0,0,1.05-2.44q0-.24.53-.27a1.68,1.68,0,0,1,1.1.16q-.09.36-.46,1.63l-.56,1.93q-.19.65-.4,1.6a10.67,10.67,0,0,0-.25,1.54q-1.55.1-6.43.29t-6.85.4l-5.15.49a1,1,0,0,1-.16-.61q0-.66.07-.67a6.42,6.42,0,0,0,1.46-.35q1-.31,1.09-.67a14.16,14.16,0,0,0,0-3.55l-.94-14.67a12,12,0,0,0-.52-3.28q-.18-.3-1.12-.53a5.24,5.24,0,0,0-1.42-.2q-.16,0-.19-.57a1.58,1.58,0,0,1,0-.7l2.16,0q2,0,3-.08l5-.55a2,2,0,0,1,.16.61c0,.44,0,.66-.11.67a6.29,6.29,0,0,0-1.38.4c-.69.25-1,.47-1.09.65A14.47,14.47,0,0,0,185.33,60.9Z"/><path class="cls-1" d="M210,62.29a8.58,8.58,0,0,1,6.39,2.14,8.33,8.33,0,0,1,3,6,8.81,8.81,0,0,1-17.58,1.12,8.38,8.38,0,0,1,2.15-6.33A8.52,8.52,0,0,1,210,62.29Zm-.39,1.86a3.13,3.13,0,0,0-2.72,1.95,8.36,8.36,0,0,0-.74,4.28,11.34,11.34,0,0,0,1.61,5.39,3.88,3.88,0,0,0,3.66,2.1,3.17,3.17,0,0,0,2.74-2,8.28,8.28,0,0,0,.76-4.26,13.34,13.34,0,0,0-.74-3.71,6.86,6.86,0,0,0-1.81-2.79A3.61,3.61,0,0,0,209.59,64.15Z"/><path class="cls-1" d="M235.76,63.1q-.57-1-2.78-.87c-.08,0-.13-.17-.15-.54a1.34,1.34,0,0,1,.07-.71q.54,0,1.89,0T237,61q.87-.06,2.26-.26t1.89-.24a1.11,1.11,0,0,1,.16.61q0,.62-.19.64a4.67,4.67,0,0,0-1.49.46,2.26,2.26,0,0,0-1.25,1.19l-5.61,14.11a2.66,2.66,0,0,1-.46.69,1,1,0,0,1-.64.39q-.39,0-.48-.2-.89-1.7-2.42-4.7t-2.64-5.07q-1.11-2.07-2.52-4.67-.53-1.05-2.59-.92c-.11,0-.17-.2-.2-.61a.9.9,0,0,1,.12-.63q.35,0,2.06,0t2.65-.05q.93-.06,2.67-.29t2-.25a1.26,1.26,0,0,1,.14.69q0,.54-.14.55a5.71,5.71,0,0,0-1.36.32q-.86.29-.83.68a.73.73,0,0,0,.1.38l4.41,8.68,3-7.91Q236.06,63.51,235.76,63.1Z"/><path class="cls-1" d="M251.37,59.65a7.2,7.2,0,0,1,3.31.51A6.18,6.18,0,0,1,257,61.84,9.08,9.08,0,0,1,258.43,64a6.69,6.69,0,0,1,.57,2.24q.06.86-.22,1.09a2.2,2.2,0,0,1-1.17.29l-9.28.59c-.18,0-.27.1-.26.25a7.54,7.54,0,0,0,.68,2.68,5.34,5.34,0,0,0,1.87,2.18,4.57,4.57,0,0,0,3,.78,10.55,10.55,0,0,0,1.12-.13,5.75,5.75,0,0,0,1-.26l.8-.3a3.3,3.3,0,0,0,.7-.39l.5-.36.74-.57a.64.64,0,0,1,.21.22.77.77,0,0,1,.14.38,1.2,1.2,0,0,1-.19.75,6.32,6.32,0,0,1-2.15,2.24A7.22,7.22,0,0,1,252.71,77a7.88,7.88,0,0,1-6-2.13A8.39,8.39,0,0,1,243.9,69a9,9,0,0,1,1.86-6.51A7.54,7.54,0,0,1,251.37,59.65Zm-.16,1.8a2.74,2.74,0,0,0-1.63.65,3.65,3.65,0,0,0-1,1.39,7.42,7.42,0,0,0-.47,1.49,4.75,4.75,0,0,0-.1,1.16c0,.18.1.27.25.26l6.29-.4c.23,0,.34-.22.31-.6a5.05,5.05,0,0,0-1.09-2.7A2.79,2.79,0,0,0,251.21,61.45Z"/><path class="cls-1" d="M230.63,96.22a4.77,4.77,0,0,1,3.62,1.26q1.21,1.26,1.21,4.34v7.66a1.78,1.78,0,0,0,.35,1.19,1.17,1.17,0,0,0,.93.41,2.43,2.43,0,0,0,1.32-.51q.23.08.23.43a2.32,2.32,0,0,1-.23,1.17,9.64,9.64,0,0,1-1.56,1,4,4,0,0,1-1.87.51,2.84,2.84,0,0,1-1.75-.66,3.18,3.18,0,0,1-1.13-1.44l-.29.25q-.25.22-.7.53a11.37,11.37,0,0,1-1,.62,6.21,6.21,0,0,1-1.32.53,5.67,5.67,0,0,1-1.54.21,4.65,4.65,0,0,1-3.17-1.07,3.7,3.7,0,0,1-1.22-2.94,3.58,3.58,0,0,1,.45-1.75,4.66,4.66,0,0,1,1.07-1.34,8,8,0,0,1,1.67-1,16,16,0,0,1,1.81-.76q.76-.25,1.94-.6l1.65-.51a.61.61,0,0,0,.35-.62v-2.14a3.34,3.34,0,0,0-.62-2.14,2,2,0,0,0-1.67-.78,2.36,2.36,0,0,0-1.83.72,2.91,2.91,0,0,0-.66,2,1.26,1.26,0,0,1-.58,1.15,2.42,2.42,0,0,1-1.32.37,2.19,2.19,0,0,1-2-.93q0-1.87,2.55-3.5A9.75,9.75,0,0,1,230.63,96.22Zm-1.75,14.93a3,3,0,0,0,1.81-.54,1.54,1.54,0,0,0,.76-1.25v-4q-.27.12-1.15.39t-1.34.47a10.69,10.69,0,0,0-1.09.54,2.35,2.35,0,0,0-.91.86,2.15,2.15,0,0,0-.29,1.09,2.4,2.4,0,0,0,.62,1.83A2.24,2.24,0,0,0,228.88,111.16Z"/><path class="cls-1" d="M253.16,96.22q5,0,5,8v3.69a16.27,16.27,0,0,0,.27,3.5q.08.27,1.07.56a6,6,0,0,0,1.34.29q.12,0,.14.56a2.2,2.2,0,0,1-.06.76q-.23,0-2-.16t-2.7-.12q-.93,0-2.59.12l-2,.16a1.14,1.14,0,0,1-.16-.74q0-.58.16-.58a4.62,4.62,0,0,0,1.3-.29c.58-.19.9-.38,1-.56a11.18,11.18,0,0,0,.31-2.84v-3.69a8.44,8.44,0,0,0-.87-4.51,3.12,3.12,0,0,0-2.78-1.28,3.59,3.59,0,0,0-2.18.68,1.87,1.87,0,0,0-.93,1.46v6.69a16.27,16.27,0,0,0,.27,3.5q.08.27,1,.56a5.6,5.6,0,0,0,1.26.29q.15,0,.17.56a2.2,2.2,0,0,1-.06.76l-2-.16q-1.73-.12-2.62-.12t-2.7.12l-2.08.16a1.14,1.14,0,0,1-.16-.74q0-.58.16-.58a5.42,5.42,0,0,0,1.42-.29q1-.29,1-.56a12.67,12.67,0,0,0,.27-2.84v-6.34a3.7,3.7,0,0,0-.62-2.49,1.88,1.88,0,0,0-.87-.58,4.49,4.49,0,0,0-.93-.23c-.25,0-.37-.06-.37-.12q0-1.13.19-1.17A55.25,55.25,0,0,0,247,96.46a.24.24,0,0,1,.1-.06l.12,0h.1c.1,0,.19.09.27.27a1.18,1.18,0,0,1,.12.43,13.33,13.33,0,0,0-.16,1.4.31.31,0,0,0,0,.19.56.56,0,0,0,.2-.12,8.62,8.62,0,0,1,2.39-1.63A6.82,6.82,0,0,1,253.16,96.22Z"/><path class="cls-1" d="M272.3,96.14a6.69,6.69,0,0,1,2.84.54q.19,0,.19-.62V92.41a13.51,13.51,0,0,0-.23-2.64q-.19-.62-2-.62h-.31q-.23,0-.23-.62t.23-.62q1.17-.12,2.28-.31t1.83-.39q.72-.19,1.25-.39l.8-.29.31-.1h.08a.42.42,0,0,1,.31.21.71.71,0,0,1,.16.41,14.87,14.87,0,0,0-.39,3.66v17.11a14.19,14.19,0,0,0,.23,2.88.57.57,0,0,0,.39.43,2.38,2.38,0,0,0,.74.2l.74.06.39,0a.81.81,0,0,1,.08.47q0,.78-.23.78-.54,0-1.38.16l-1.63.25-1.52.27-1.61.33q-.23,0-.23-.66v-.66a.18.18,0,0,0-.06-.16s-.07,0-.1,0a6.49,6.49,0,0,1-4,1.44,7.53,7.53,0,0,1-5.48-2.31,7.85,7.85,0,0,1-2.33-5.81A9.12,9.12,0,0,1,266,98.89,8.52,8.52,0,0,1,272.3,96.14ZM272,98a3.41,3.41,0,0,0-3.11,1.75,9.11,9.11,0,0,0-1,4.71,9.38,9.38,0,0,0,1.21,5.15,3.82,3.82,0,0,0,3.38,1.85,3.23,3.23,0,0,0,2.14-.68,2.15,2.15,0,0,0,.82-1.73v-8.17a2.69,2.69,0,0,0-.14-.82,3.62,3.62,0,0,0-.47-.91,2.49,2.49,0,0,0-1-.82A4.13,4.13,0,0,0,272,98Z"/><path class="cls-1" d="M300.09,93.27v14.62a11.43,11.43,0,0,0,.35,3.11q.19.51,2.64.51h1.44a10.41,10.41,0,0,0,4.63-.82,4.48,4.48,0,0,0,1.4-1.36,8.22,8.22,0,0,0,1.21-2.37c0-.16.21-.23.54-.23a1.67,1.67,0,0,1,1.09.23q-.12.35-.56,1.59l-.68,1.89q-.23.64-.5,1.57a10.8,10.8,0,0,0-.35,1.52q-1.56,0-6.44-.12t-6.86,0l-5.17.16a1,1,0,0,1-.12-.62q0-.66.12-.66a6.42,6.42,0,0,0,1.48-.25q1-.25,1.13-.6a14.12,14.12,0,0,0,.27-3.54V93.15a11.92,11.92,0,0,0-.31-3.31q-.16-.31-1.09-.6a5.19,5.19,0,0,0-1.4-.29q-.16,0-.16-.58a1.55,1.55,0,0,1,.08-.7l2.16.12q2,.12,3,.12l5-.23a2,2,0,0,1,.12.62c0,.44-.05.66-.16.66a6.34,6.34,0,0,0-1.4.31q-1.05.31-1.13.58A14.43,14.43,0,0,0,300.09,93.27Z"/><path class="cls-1" d="M324,96.22a4.77,4.77,0,0,1,3.62,1.26q1.21,1.26,1.21,4.34v7.66a1.78,1.78,0,0,0,.35,1.19,1.17,1.17,0,0,0,.93.41,2.43,2.43,0,0,0,1.32-.51q.23.08.23.43a2.32,2.32,0,0,1-.23,1.17,9.64,9.64,0,0,1-1.56,1,4,4,0,0,1-1.87.51,2.84,2.84,0,0,1-1.75-.66,3.18,3.18,0,0,1-1.13-1.44l-.29.25q-.25.22-.7.53a11.37,11.37,0,0,1-1,.62,6.21,6.21,0,0,1-1.32.53,5.67,5.67,0,0,1-1.54.21,4.65,4.65,0,0,1-3.17-1.07,3.7,3.7,0,0,1-1.22-2.94,3.58,3.58,0,0,1,.45-1.75,4.66,4.66,0,0,1,1.07-1.34,8,8,0,0,1,1.67-1,16,16,0,0,1,1.81-.76q.76-.25,1.94-.6l1.65-.51a.61.61,0,0,0,.35-.62v-2.14a3.34,3.34,0,0,0-.62-2.14A2,2,0,0,0,322.5,98a2.36,2.36,0,0,0-1.83.72,2.91,2.91,0,0,0-.66,2,1.26,1.26,0,0,1-.58,1.15,2.42,2.42,0,0,1-1.32.37,2.19,2.19,0,0,1-2-.93q0-1.87,2.55-3.5A9.75,9.75,0,0,1,324,96.22Zm-1.75,14.93a3,3,0,0,0,1.81-.54,1.54,1.54,0,0,0,.76-1.25v-4q-.27.12-1.15.39t-1.34.47a10.69,10.69,0,0,0-1.09.54,2.35,2.35,0,0,0-.91.86,2.15,2.15,0,0,0-.29,1.09,2.4,2.4,0,0,0,.62,1.83A2.24,2.24,0,0,0,322.23,111.16Z"/><path class="cls-1" d="M343.7,96.22A7.91,7.91,0,0,1,348,97.45a8.16,8.16,0,0,1,2.92,3.11,8.3,8.3,0,0,1,1,3.91,8.88,8.88,0,0,1-2.7,6.51,8.57,8.57,0,0,1-6.24,2.7,12.19,12.19,0,0,1-2.84-.29,8.53,8.53,0,0,0-1.83-.29,3,3,0,0,0-1,.27,3.85,3.85,0,0,1-.78.27,1.89,1.89,0,0,1-.56-.23q-.45-.23-.45-.39c0-.08,0-.31.08-.7s.12-.95.19-1.67a22.27,22.27,0,0,0,.12-2.37V92.41a13.51,13.51,0,0,0-.23-2.64q-.19-.62-2-.62h-.35q-.23,0-.23-.62t.23-.62q1.21-.12,2.29-.31t1.81-.39q.72-.19,1.24-.39l1.11-.39h.08a.42.42,0,0,1,.31.21,1.08,1.08,0,0,1,.19.41,13.6,13.6,0,0,0-.43,3.66v6.44a1.09,1.09,0,0,0,0,.18c0,.08,0,.12.08.12a.31.31,0,0,0,.14,0,7.11,7.11,0,0,1,1.58-.78A5.57,5.57,0,0,1,343.7,96.22Zm-.86,2.1a3,3,0,0,0-2.1.74,2.29,2.29,0,0,0-.82,1.75v8.24a2.33,2.33,0,0,0,1,2.06,4.22,4.22,0,0,0,2.43.7,3.31,3.31,0,0,0,3.05-1.83,8.9,8.9,0,0,0,1-4.43,10,10,0,0,0-1.21-5.29A3.81,3.81,0,0,0,342.85,98.32Z"/><path class="cls-1" d="M363.39,96.22a8.57,8.57,0,0,1,6.24,2.55,8.33,8.33,0,0,1,2.59,6.16,8.87,8.87,0,1,1-8.83-8.71ZM362.88,98A3.13,3.13,0,0,0,360,99.82a8.37,8.37,0,0,0-1,4.22,11.34,11.34,0,0,0,1.26,5.48,3.88,3.88,0,0,0,3.52,2.33,3.17,3.17,0,0,0,2.86-1.79,8.27,8.27,0,0,0,1-4.2,13.37,13.37,0,0,0-.5-3.75,6.86,6.86,0,0,0-1.63-2.9A3.6,3.6,0,0,0,362.88,98Z"/><path class="cls-1" d="M386.11,96.22a3.88,3.88,0,0,1,3.19,1.28q0,3.31-1.87,3.31a2.31,2.31,0,0,1-1.52-.78,2.43,2.43,0,0,0-1.67-.78,2.08,2.08,0,0,0-1.89,1.22,5.17,5.17,0,0,0-.68,2.55v4.86a16.27,16.27,0,0,0,.27,3.5q.08.27,1,.56a5.51,5.51,0,0,0,1.3.29c.08,0,.12.19.14.56a4.07,4.07,0,0,1,0,.76l-2.06-.16q-1.75-.12-2.64-.12t-2.7.12l-2.08.16a1.14,1.14,0,0,1-.16-.74q0-.58.16-.58a5.42,5.42,0,0,0,1.42-.29q1-.29,1-.56a12.67,12.67,0,0,0,.27-2.84v-6.34a3.7,3.7,0,0,0-.62-2.49,1.88,1.88,0,0,0-.87-.58,4.49,4.49,0,0,0-.93-.23c-.25,0-.37-.06-.37-.12q0-1.13.19-1.17a55.25,55.25,0,0,0,6.26-1.17l.31-.08c.1,0,.19.09.27.27a.93.93,0,0,1,.1.45q0,.17-.06.54c0,.25-.06.51-.1.78a5,5,0,0,0-.06.52,7.13,7.13,0,0,1,1.91-1.89A4.26,4.26,0,0,1,386.11,96.22Z"/></svg>