<svg id="Layer_1" data-name="Layer 1" xmlns="http://www.w3.org/2000/svg" viewBox="0 0 400 152.48"><defs><style>.cls-1{fill:#1928eb;}</style></defs><title>part</title><path class="cls-1" d="M122.22.39q1.13.06,2.6.08t2.64.08a12.67,12.67,0,0,1,2.3.34,9.35,9.35,0,0,1,2.25.88A8.19,8.19,0,0,1,134,3.21a6.16,6.16,0,0,1,1.33,2.11,6.62,6.62,0,0,1,.42,2.79,7.42,7.42,0,0,1-1.14,3.52,8.19,8.19,0,0,1-3,2.82,7.91,7.91,0,0,1-4.39,1,4.84,4.84,0,0,1-1.62-.38,2.3,2.3,0,0,1-1.09-.78.83.83,0,0,1-.12-.4,1.75,1.75,0,0,1,0-.58c0-.18.08-.27.13-.27a5.46,5.46,0,0,0,2.15.5,3.44,3.44,0,0,0,3-1.38,6.54,6.54,0,0,0,1.29-3.81,7.13,7.13,0,0,0-.83-4.17A3.65,3.65,0,0,0,127,2.51a6.35,6.35,0,0,0-2.27.15c-.32.14-.54,1.48-.68,4l-.73,13.86a12.12,12.12,0,0,0,.14,3.32c.06.32.48.59,1.26.83a8.22,8.22,0,0,0,1.71.38c.1,0,.14.23.12.67a2.12,2.12,0,0,1-.11.66q-4.26-.46-5.5-.52-1-.05-2.35-.06h-2.08l-.78,0a1.33,1.33,0,0,1-.08-.71c0-.41.07-.62.15-.62a6.61,6.61,0,0,0,1.51-.17q1-.2,1.18-.54a15.39,15.39,0,0,0,.42-3.52l.77-14.68a15.27,15.27,0,0,0-.06-3.2q-.1-.32-1.11-.7A5.62,5.62,0,0,0,117,1.28c-.11,0-.15-.2-.12-.59s.08-.62.19-.69Q121.13.33,122.22.39Z"/><path class="cls-1" d="M146.25,10.07a4.78,4.78,0,0,1,3.54,1.45q1.14,1.33,1,4.39l-.4,7.65a1.76,1.76,0,0,0,.29,1.2,1.17,1.17,0,0,0,.91.46,2.43,2.43,0,0,0,1.35-.43c.15.06.22.21.21.44a2.33,2.33,0,0,1-.29,1.15,9.73,9.73,0,0,1-1.61.89,4,4,0,0,1-1.89.41,2.84,2.84,0,0,1-1.71-.75,3.18,3.18,0,0,1-1-1.5l-.31.24q-.26.2-.73.49a11.51,11.51,0,0,1-1,.57,6.15,6.15,0,0,1-1.35.46,5.65,5.65,0,0,1-1.54.13,4.64,4.64,0,0,1-3.11-1.24,3.7,3.7,0,0,1-1.07-3,3.57,3.57,0,0,1,.54-1.72,4.62,4.62,0,0,1,1.14-1.28,8,8,0,0,1,1.72-.94,15.9,15.9,0,0,1,1.85-.66q.77-.21,2-.5l1.68-.42a.61.61,0,0,0,.38-.6l.11-2.14a3.35,3.35,0,0,0-.51-2.17,2,2,0,0,0-1.63-.86,2.36,2.36,0,0,0-1.86.62,2.9,2.9,0,0,0-.77,2,1.26,1.26,0,0,1-.64,1.12,2.42,2.42,0,0,1-1.34.3,2.2,2.2,0,0,1-2-1q.1-1.86,2.73-3.36A9.75,9.75,0,0,1,146.25,10.07Zm-2.53,14.82a3,3,0,0,0,1.84-.45,1.54,1.54,0,0,0,.82-1.2l.21-4c-.19.07-.57.18-1.16.33s-1,.28-1.37.4a10.51,10.51,0,0,0-1.12.49,2.37,2.37,0,0,0-1,.81,2.14,2.14,0,0,0-.35,1.07,2.4,2.4,0,0,0,.53,1.86A2.23,2.23,0,0,0,143.72,24.89Z"/><path class="cls-1" d="M167.43,11.18a3.88,3.88,0,0,1,3.12,1.45q-.18,3.3-2,3.2A2.32,2.32,0,0,1,167,15a2.44,2.44,0,0,0-1.63-.87,2.09,2.09,0,0,0-1.95,1.13,5.17,5.17,0,0,0-.81,2.51l-.26,4.85a16.18,16.18,0,0,0,.09,3.51c0,.18.38.39,1,.62a5.5,5.5,0,0,0,1.29.36c.08,0,.11.19.11.57a4.25,4.25,0,0,1-.06.76q-.31-.06-2.05-.26t-2.63-.26q-.93,0-2.7,0t-2.09,0a1.13,1.13,0,0,1-.12-.75c0-.39.08-.58.19-.57a5.44,5.44,0,0,0,1.43-.22q1-.24,1.06-.51a12.65,12.65,0,0,0,.42-2.82l.33-6.33a3.7,3.7,0,0,0-.49-2.52,1.88,1.88,0,0,0-.84-.63,4.48,4.48,0,0,0-.92-.28c-.25,0-.37-.08-.36-.14q.06-1.12.26-1.15a55,55,0,0,0,6.31-.84l.32-.06c.1,0,.19.1.26.29a.94.94,0,0,1,.07.45l-.09.54c0,.25-.08.5-.14.77a5.12,5.12,0,0,0-.09.52,7.17,7.17,0,0,1,2-1.78A4.26,4.26,0,0,1,167.43,11.18Z"/><path class="cls-1" d="M175.25,14.32l-2.37-.12q-.27,0-.22-1a.92.92,0,0,1,.06-.35,10.85,10.85,0,0,0,3.1-1.9c.36-.32.74-.68,1.17-1.09s.92-.93,1.5-1.58a2.78,2.78,0,0,1,.73.14c.23.08.34.15.34.23l-.2,3.81,2.81.17,1.92.12q.31,0,.29.37a3.79,3.79,0,0,1-.48,1.69l-4.66-.25-.49,9.36a3.69,3.69,0,0,0,.54,2.4,2.23,2.23,0,0,0,1.78.91,3.66,3.66,0,0,0,.82-.05,4,4,0,0,0,.71-.18l.52-.21a1.2,1.2,0,0,1,.28-.1c.11,0,.21.1.33.37a.92.92,0,0,1,.13.51,3.56,3.56,0,0,1-1.72,1.17,6.1,6.1,0,0,1-2.81.57A4.9,4.9,0,0,1,176,27.81a5.2,5.2,0,0,1-1.21-4.09Z"/><path class="cls-1" d="M203.61,4.66q2.62.23,4.29.32t4.31.13l4.24.09a13,13,0,0,0,2.7-.25l.42,6a1.5,1.5,0,0,1-1.06.22c-.21,0-.33-.08-.38-.21a5.59,5.59,0,0,0-1.29-3,4.27,4.27,0,0,0-2.76-.9q-3.61-.19-3.8.46a13.51,13.51,0,0,0-.54,3.63l-.74,14a13.27,13.27,0,0,0,.17,3.4q0,.27,1,.62a6.16,6.16,0,0,0,1.34.36c.1,0,.14.24.12.71a2.08,2.08,0,0,1-.11.62l-1.49-.2c-.66-.09-1.26-.16-1.82-.21s-1.09-.1-1.61-.12q-1-.06-2.9,0l-2.28,0a.91.91,0,0,1-.12-.63q0-.7.19-.69a6.18,6.18,0,0,0,1.47-.2c.67-.15,1.05-.32,1.14-.52a12.27,12.27,0,0,0,.48-3.21L205.35,11q.17-3.22-.15-3.79t-3.65-.85a4.27,4.27,0,0,0-2.84.61,5.77,5.77,0,0,0-1.63,2.78c0,.15-.17.22-.4.21a1.3,1.3,0,0,1-1-.36l1-5.86a13,13,0,0,0,2.66.53Z"/><path class="cls-1" d="M246,18.28a1.13,1.13,0,0,0-.27-.81A1.72,1.72,0,0,0,245,17a7.2,7.2,0,0,0-.88-.24,5.68,5.68,0,0,0-.79-.1h-.16c-.1,0-.15-.2-.14-.59s.05-.62.13-.69c.33,0,1,.09,2.05.22s1.86.21,2.48.25,1.24,0,2.08,0,1.46,0,1.85,0a2.4,2.4,0,0,1,0,.66c0,.39-.08.58-.19.57a4.47,4.47,0,0,0-1.56.4,2.39,2.39,0,0,0-1.4,1.11L242,31.94a1.53,1.53,0,0,1-.55.54,1.34,1.34,0,0,1-.77.21.49.49,0,0,1-.49-.3l-4.17-11-4.69,9.92a2.12,2.12,0,0,1-.47.52,1.17,1.17,0,0,1-.85.27.57.57,0,0,1-.53-.3q-.79-2.07-1.86-5t-2-5.22q-.89-2.27-2.08-4.94a1.78,1.78,0,0,0-1-.83,3.78,3.78,0,0,0-1.23-.34c-.1,0-.14-.21-.12-.63s.08-.58.19-.65q.39,0,2,.22t2.46.25q.89,0,2.65,0c1.17,0,1.84,0,2,0a2.14,2.14,0,0,1,0,.7c0,.34-.07.52-.14.54a4.61,4.61,0,0,0-1.35.2c-.57.15-.86.41-.88.77q0,.08,3.41,9.14.48-1.06,1.12-2.41l1-2.05.66-1.43c.22-.48.38-.84.46-1.08a2.08,2.08,0,0,0,.14-.48,2.84,2.84,0,0,0-.42-1.58,1.85,1.85,0,0,0-.82-.67,3.09,3.09,0,0,0-1.39-.31c-.1,0-.14-.2-.12-.57s.08-.6.19-.67c.28,0,.92.09,1.92.22s1.8.21,2.42.24,1.41,0,2.53,0,1.78,0,2,0a1.89,1.89,0,0,1,0,.72c0,.38-.09.56-.17.56q-2-.1-2.05,1.25,0,.74,3.2,8.81Q243,25,244,22.83t1.51-3.19A5.24,5.24,0,0,0,246,18.28Z"/><path class="cls-1" d="M262.66,16.2a8.58,8.58,0,0,1,6.1,2.87A8.35,8.35,0,0,1,271,25.36a8.81,8.81,0,0,1-17.59-.93,8.37,8.37,0,0,1,2.87-6A8.51,8.51,0,0,1,262.66,16.2Zm-.6,1.8a3.13,3.13,0,0,0-2.93,1.62,8.38,8.38,0,0,0-1.23,4.16,11.36,11.36,0,0,0,1,5.54,3.88,3.88,0,0,0,3.39,2.51,3.17,3.17,0,0,0,2.95-1.64,8.27,8.27,0,0,0,1.25-4.14,13.45,13.45,0,0,0-.31-3.77,6.88,6.88,0,0,0-1.48-3A3.61,3.61,0,0,0,262.06,18Z"/><path class="cls-1" d="M277.8,30.2a2.53,2.53,0,0,1,.66,1.87,2.59,2.59,0,0,1-.85,1.8,2.41,2.41,0,0,1-1.85.7,2.52,2.52,0,0,1-1.82-.89,2.57,2.57,0,0,1-.68-1.89,2.51,2.51,0,0,1,.87-1.78,2.55,2.55,0,0,1,1.91-.68A2.44,2.44,0,0,1,277.8,30.2Zm.63-12a2.47,2.47,0,0,1,.66,1.85,2.67,2.67,0,0,1-.86,1.82,2.39,2.39,0,0,1-1.85.72,2.49,2.49,0,0,1-1.82-.91,2.63,2.63,0,0,1-.68-1.91,2.44,2.44,0,0,1,.87-1.76,2.58,2.58,0,0,1,1.9-.66A2.47,2.47,0,0,1,278.43,18.22Z"/><path class="cls-1" d="M17.76,39.49,17,45.71a.24.24,0,0,0,0,.18.51.51,0,0,0,.12.11h0l.31,0A3.23,3.23,0,0,0,19.66,45q3.51-2.93,7.76-6.86A2.13,2.13,0,0,0,28.18,37q0-.39-.78-.65A8.28,8.28,0,0,0,26,36.06c-.1,0-.15-.17-.14-.47a2,2,0,0,1,.13-.71q4.25.77,4.64.82c.49.06,1,.11,1.45.14l1.56.1L35,36a1.62,1.62,0,0,1,0,.66c-.06.33-.12.5-.2.49a6.08,6.08,0,0,0-4.1,1.13l-8.21,7.27a.76.76,0,0,0-.06,1.09L30.1,58.53A4,4,0,0,0,31.82,60a6.34,6.34,0,0,0,1.67.6c.13,0,.16.27.1.76a1.19,1.19,0,0,1-.18.53q-4.6-.82-5.26-.9-1.24-.16-3-.28l-2.43-.17a1.1,1.1,0,0,1-.06-.73c0-.37.12-.55.22-.54A3,3,0,0,0,24,59.14q.69-.19.73-.5a7.47,7.47,0,0,0-.88-1.76q-.9-1.56-2.51-4t-3.22-4.62c-.09-.12-.37-.2-.83-.26s-.64.08-.68.38l-.72,5.71a14,14,0,0,0-.08,3.44c0,.19.36.42,1,.69a5.91,5.91,0,0,0,1.29.46c.1,0,.12.26.06.75A1.69,1.69,0,0,1,18,60l-4.87-.85q-.77-.1-1.62-.17L9.66,58.8,8,58.69a.76.76,0,0,1-.08-.56q.09-.73.25-.71a6.19,6.19,0,0,0,1.48-.09q1-.15,1.17-.44a13.67,13.67,0,0,0,.72-3.2l1.88-14.89a11.76,11.76,0,0,0,.1-3.28q-.12-.33-1-.73a5.24,5.24,0,0,0-1.35-.46q-.16,0-.08-.6a1.55,1.55,0,0,1,.16-.68l2.13.39q1.93.36,3,.49.31,0,5,.39a2,2,0,0,1,0,.63c-.06.44-.13.65-.24.64a6.4,6.4,0,0,0-1.43.13q-1.08.18-1.19.44A14.39,14.39,0,0,0,17.76,39.49Z"/><path class="cls-1" d="M47,46.16a8.57,8.57,0,0,1,5.87,3.31,8.34,8.34,0,0,1,1.79,6.44,8.73,8.73,0,0,1-9.81,7.58A8.52,8.52,0,0,1,39,60.16a8.75,8.75,0,0,1,1.53-12.27A8.52,8.52,0,0,1,47,46.16Zm-.73,1.75a3.13,3.13,0,0,0-3,1.4,8.35,8.35,0,0,0-1.53,4.06A11.34,11.34,0,0,0,42.3,59a3.88,3.88,0,0,0,3.2,2.75,3.17,3.17,0,0,0,3.06-1.42,8.27,8.27,0,0,0,1.55-4,13.35,13.35,0,0,0,0-3.79,6.84,6.84,0,0,0-1.26-3.08A3.6,3.6,0,0,0,46.3,47.91Z"/><path class="cls-1" d="M69.57,49a3.88,3.88,0,0,1,3,1.67q-.41,3.28-2.27,3a2.31,2.31,0,0,1-1.41-1,2.43,2.43,0,0,0-1.56-1,2.09,2.09,0,0,0-2,1,5.18,5.18,0,0,0-1,2.44L63.72,60a16.27,16.27,0,0,0-.17,3.51c0,.19.35.42,1,.69a5.48,5.48,0,0,0,1.26.45c.08,0,.1.2.07.58a4.09,4.09,0,0,1-.11.75q-.3-.08-2-.41t-2.61-.45q-.93-.12-2.7-.22t-2.08-.11a1.14,1.14,0,0,1-.06-.75q.07-.58.23-.56a5.39,5.39,0,0,0,1.44-.11c.65-.11,1-.26,1.09-.43a12.68,12.68,0,0,0,.63-2.78l.79-6.29a3.69,3.69,0,0,0-.31-2.55,1.86,1.86,0,0,0-.79-.69,4.49,4.49,0,0,0-.9-.35c-.24-.06-.36-.11-.35-.16Q58.21,49,58.4,49a55.13,55.13,0,0,0,6.36-.37l.32,0c.1,0,.18.11.24.3a.94.94,0,0,1,0,.46l-.12.53c-.06.24-.12.49-.19.76a5.19,5.19,0,0,0-.12.51A7.12,7.12,0,0,1,67,49.53,4.25,4.25,0,0,1,69.57,49Z"/><path class="cls-1" d="M83.17,50.72a7.21,7.21,0,0,1,3.15,1.12,6.18,6.18,0,0,1,2,2.1,9.07,9.07,0,0,1,.95,2.43,6.71,6.71,0,0,1,.14,2.31q-.11.85-.42,1a2.21,2.21,0,0,1-1.2.06l-9.22-1.16c-.18,0-.28,0-.3.2a7.56,7.56,0,0,0,.16,2.76,5.35,5.35,0,0,0,1.43,2.49,4.58,4.58,0,0,0,2.79,1.33,10.57,10.57,0,0,0,1.13.08,5.85,5.85,0,0,0,1-.07l.84-.15A3.35,3.35,0,0,0,86.4,65l.56-.26.84-.42a.64.64,0,0,1,.16.26A.76.76,0,0,1,88,65a1.2,1.2,0,0,1-.32.7,6.35,6.35,0,0,1-2.54,1.8,7.21,7.21,0,0,1-4,.56,7.88,7.88,0,0,1-5.47-3.22,8.39,8.39,0,0,1-1.67-6.34,9,9,0,0,1,3.05-6A7.54,7.54,0,0,1,83.17,50.72Zm-.49,1.74a2.76,2.76,0,0,0-1.73.33A3.66,3.66,0,0,0,79.66,54a7.37,7.37,0,0,0-.74,1.38,4.77,4.77,0,0,0-.32,1.12c0,.18,0,.28.2.3l6.25.79c.23,0,.37-.15.42-.54a5,5,0,0,0-.56-2.85A2.79,2.79,0,0,0,82.67,52.46Z"/><path class="cls-1" d="M100.58,52.92A4.78,4.78,0,0,1,104,54.62q1,1.4.65,4.45l-1,7.6a1.78,1.78,0,0,0,.2,1.22,1.16,1.16,0,0,0,.88.52,2.42,2.42,0,0,0,1.38-.34c.15.07.21.22.18.45a2.32,2.32,0,0,1-.38,1.13,9.52,9.52,0,0,1-1.67.77,4,4,0,0,1-1.92.27,2.83,2.83,0,0,1-1.65-.87,3.19,3.19,0,0,1-.94-1.57l-.32.21c-.19.12-.44.26-.76.43a11.48,11.48,0,0,1-1.08.49,6.18,6.18,0,0,1-1.38.35,5.58,5.58,0,0,1-1.55,0,4.64,4.64,0,0,1-3-1.46,3.69,3.69,0,0,1-.85-3.07,3.6,3.6,0,0,1,.66-1.68,4.64,4.64,0,0,1,1.23-1.2,8,8,0,0,1,1.79-.81A16.07,16.07,0,0,1,96.4,61q.79-.16,2-.36l1.7-.29a.61.61,0,0,0,.43-.57l.27-2.12a3.34,3.34,0,0,0-.35-2.2,2,2,0,0,0-1.56-1A2.35,2.35,0,0,0,97,55a2.91,2.91,0,0,0-.91,1.94A1.26,1.26,0,0,1,95.35,58a2.41,2.41,0,0,1-1.36.2A2.19,2.19,0,0,1,92.1,57q.23-1.85,3-3.15A9.75,9.75,0,0,1,100.58,52.92ZM97,67.51a3,3,0,0,0,1.86-.31,1.54,1.54,0,0,0,.91-1.14l.5-3.94c-.19.05-.58.14-1.19.24s-1.06.21-1.39.29a10.75,10.75,0,0,0-1.15.4,2.36,2.36,0,0,0-1,.74,2.15,2.15,0,0,0-.42,1,2.39,2.39,0,0,0,.39,1.89A2.24,2.24,0,0,0,97,67.51Z"/><path class="cls-1" d="M122.93,55.73q5,.63,4,8.54l-.46,3.67a16.25,16.25,0,0,0-.17,3.51q0,.28,1,.69a6,6,0,0,0,1.29.46q.12,0,.06.58a2.2,2.2,0,0,1-.15.75q-.23-.07-2-.41t-2.67-.45q-.93-.12-2.58-.21l-2-.1a1.14,1.14,0,0,1-.06-.75c0-.39.12-.57.23-.56a4.59,4.59,0,0,0,1.33-.13c.6-.12.94-.27,1-.44a11.14,11.14,0,0,0,.66-2.78l.46-3.67a8.44,8.44,0,0,0-.3-4.58,3.13,3.13,0,0,0-2.6-1.62,3.61,3.61,0,0,0-2.25.4A1.87,1.87,0,0,0,116.59,60l-.84,6.64a16.26,16.26,0,0,0-.17,3.51q0,.28,1,.69a5.55,5.55,0,0,0,1.22.45c.1,0,.14.21.1.58a2.2,2.2,0,0,1-.15.75q-.3-.08-2-.41t-2.59-.44q-.93-.12-2.7-.22t-2.08-.11a1.14,1.14,0,0,1-.06-.75q.07-.58.23-.56a5.48,5.48,0,0,0,1.45-.11c.65-.11,1-.26,1.09-.43a12.75,12.75,0,0,0,.63-2.78l.79-6.29a3.7,3.7,0,0,0-.31-2.55,1.88,1.88,0,0,0-.8-.69,4.42,4.42,0,0,0-.9-.35c-.24-.06-.36-.11-.35-.16.09-.75.21-1.12.34-1.13a55.1,55.1,0,0,0,6.36-.37l.1,0h.21c.1,0,.18.12.24.3a1.18,1.18,0,0,1,.06.44,13.35,13.35,0,0,0-.33,1.37.31.31,0,0,0,0,.2.57.57,0,0,0,.21-.09,8.61,8.61,0,0,1,2.58-1.32A6.81,6.81,0,0,1,122.93,55.73Z"/><path class="cls-1" d="M148,50.42l6.67.84q6.29.79,9.35,4.94a12.32,12.32,0,0,1,2.43,9.17,13.12,13.12,0,0,1-4.74,8.87q-4,3.31-10.29,2.52-.81-.1-3.17-.48t-3.41-.51l-5.15-.49a1,1,0,0,1,0-.63c.05-.44.12-.65.2-.64a6.45,6.45,0,0,0,1.5-.07q1-.13,1.19-.46a14.1,14.1,0,0,0,.71-3.48l1.84-14.58a12.32,12.32,0,0,0,.13-3.2q-.06-.44-1-.83a6.08,6.08,0,0,0-1.51-.46q-.15,0-.08-.6a1,1,0,0,1,.24-.67Q145.37,50.1,148,50.42Zm1.5,5.21-1.91,15.13a6.3,6.3,0,0,0,.07,2.91q.54.7,4.63,1.21,7.83,1,9.25-10.28a12.58,12.58,0,0,0-1.18-7.6,6.94,6.94,0,0,0-5.62-3.77l-.19,0q-3.7-.47-4.25.09A4.29,4.29,0,0,0,149.45,55.63Z"/><path class="cls-1" d="M174.82,74a14.31,14.31,0,0,0-.13,3.51c0,.19.35.42,1,.69a5.71,5.71,0,0,0,1.28.46c.1,0,.14.21.1.58a2.23,2.23,0,0,1-.15.75q-.27-.07-2-.42t-2.63-.45q-1-.12-2.73-.23t-2-.1a1.14,1.14,0,0,1-.06-.75c0-.39.12-.57.23-.56A5.58,5.58,0,0,0,169,77.4c.67-.11,1-.25,1.11-.43a12.76,12.76,0,0,0,.63-2.78l.79-6.29a3.7,3.7,0,0,0-.31-2.55,2.15,2.15,0,0,0-.81-.69,4,4,0,0,0-.9-.35c-.25-.06-.38-.11-.37-.17.09-.75.22-1.12.38-1.13a29.54,29.54,0,0,0,3.18-.07,30.75,30.75,0,0,0,3.14-.31l.32,0c.13,0,.22.12.27.31a.72.72,0,0,1,0,.43q-.62,2.43-.73,3.28Zm-2-16.65a2.37,2.37,0,0,1-.48-1.79,2.3,2.3,0,0,1,.91-1.59,2.44,2.44,0,0,1,3.4.43,2.3,2.3,0,0,1,.48,1.77,2.37,2.37,0,0,1-.91,1.61,2.4,2.4,0,0,1-3.4-.43Z"/><path class="cls-1" d="M189.48,64.13a4.78,4.78,0,0,1,3.43,1.71q1,1.4.65,4.45l-1,7.6a1.77,1.77,0,0,0,.2,1.22,1.17,1.17,0,0,0,.88.52,2.42,2.42,0,0,0,1.38-.34c.15.07.21.22.18.45a2.3,2.3,0,0,1-.38,1.13,9.59,9.59,0,0,1-1.67.77,4.06,4.06,0,0,1-1.92.27,2.85,2.85,0,0,1-1.65-.87,3.19,3.19,0,0,1-.94-1.57l-.32.21q-.28.18-.76.43a11.38,11.38,0,0,1-1.08.49,6.23,6.23,0,0,1-1.38.36,5.66,5.66,0,0,1-1.55,0,4.64,4.64,0,0,1-3-1.46,3.69,3.69,0,0,1-.85-3.07,3.57,3.57,0,0,1,.66-1.68,4.64,4.64,0,0,1,1.23-1.2,8,8,0,0,1,1.79-.81,15.91,15.91,0,0,1,1.89-.53q.79-.16,2-.35l1.7-.29a.61.61,0,0,0,.42-.57l.27-2.12a3.34,3.34,0,0,0-.35-2.2,2,2,0,0,0-1.56-1,2.36,2.36,0,0,0-1.9.48,2.9,2.9,0,0,0-.91,1.94,1.26,1.26,0,0,1-.72,1.06,2.42,2.42,0,0,1-1.36.2A2.2,2.2,0,0,1,181,68.23q.23-1.85,3-3.15A9.76,9.76,0,0,1,189.48,64.13Zm-3.6,14.6a3,3,0,0,0,1.86-.31,1.54,1.54,0,0,0,.91-1.14l.5-3.94c-.19.05-.59.14-1.19.24s-1.07.21-1.39.29a10.78,10.78,0,0,0-1.15.4,2.34,2.34,0,0,0-1,.73,2.15,2.15,0,0,0-.43,1,2.4,2.4,0,0,0,.39,1.89A2.24,2.24,0,0,0,185.88,78.72Z"/><path class="cls-1" d="M205.51,66.11a16.53,16.53,0,0,1,4.39,1.22,22.12,22.12,0,0,1-.12,4.38c0,.21-.21.29-.54.25q-.85-.11-.89-.42a4.72,4.72,0,0,0-.85-2.44,3,3,0,0,0-2.22-1.24,2.79,2.79,0,0,0-1.82.28,1.73,1.73,0,0,0-.82,1.35,2.27,2.27,0,0,0,.09,1,2.41,2.41,0,0,0,.59.92,9.66,9.66,0,0,0,.77.72q.34.28,1,.76a2.44,2.44,0,0,0,.36.24l.54.38.59.43.57.44a7.12,7.12,0,0,1,.62.53l.54.54a3.09,3.09,0,0,1,.51.61l.39.66a2.51,2.51,0,0,1,.32.75,7.54,7.54,0,0,1,.12.76,3.68,3.68,0,0,1,0,.84,4.58,4.58,0,0,1-2.36,3.6,7.38,7.38,0,0,1-4.71.84,13,13,0,0,1-4.84-1.71,15.46,15.46,0,0,1-.12-2.19,18.91,18.91,0,0,1,.09-2.24.83.83,0,0,1,.56-.13q.89.11.89.43a4.3,4.3,0,0,0,1.19,2.8,4.15,4.15,0,0,0,2.52,1.32,2.82,2.82,0,0,0,1.84-.32,1.89,1.89,0,0,0,.89-1.49,2.5,2.5,0,0,0,0-.73,1.91,1.91,0,0,0-.28-.7l-.38-.6a2.81,2.81,0,0,0-.63-.61l-.72-.54-.9-.62-.92-.64a9.06,9.06,0,0,1-2.48-2.41A4.49,4.49,0,0,1,201,66.83,7.5,7.5,0,0,1,205.51,66.11Z"/><path class="cls-1" d="M224.26,68.55a7.87,7.87,0,0,1,4.24,1.83,8.15,8.15,0,0,1,2.92,7.34,9.1,9.1,0,0,1-10.23,8,9,9,0,0,1-2.67-.89q-.15,0-.22.52L218,88a14,14,0,0,0-.13,3.51c0,.21.32.45.95.73a5.91,5.91,0,0,0,1.29.46c.08,0,.1.2.06.58A3.57,3.57,0,0,1,220,94q-.27,0-2-.38t-2.63-.45q-1-.12-2.74-.23t-2.08-.14a1.4,1.4,0,0,1,0-.73c0-.37.11-.55.19-.54a5.39,5.39,0,0,0,1.45-.11q1-.17,1.14-.46a14.19,14.19,0,0,0,.58-2.75l1.86-14.74a3.77,3.77,0,0,0-.3-2.58,1.75,1.75,0,0,0-.78-.67,4.64,4.64,0,0,0-.9-.33c-.25-.06-.38-.11-.37-.17q.14-1.12.38-1.13a29.75,29.75,0,0,0,5.88-.36l.76-.1c.1,0,.12.29.05.83a2.08,2.08,0,0,1-.13.45,7.76,7.76,0,0,1,1.83-.69A5.58,5.58,0,0,1,224.26,68.55Zm-1.18,1.93a2.94,2.94,0,0,0-2.16.47,2.57,2.57,0,0,0-1,1.87l-1,7.95a2.39,2.39,0,0,0,.79,2.16,3.78,3.78,0,0,0,2.14,1,3.65,3.65,0,0,0,3.2-1.24,7.51,7.51,0,0,0,1.79-4.4,10,10,0,0,0-.58-5.34A3.82,3.82,0,0,0,223.07,70.48Z"/><path class="cls-1" d="M243.68,71a8.57,8.57,0,0,1,5.87,3.31,8.34,8.34,0,0,1,1.79,6.44A8.87,8.87,0,1,1,243.68,71Zm-.73,1.75a3.13,3.13,0,0,0-3,1.4,8.36,8.36,0,0,0-1.53,4.06,11.35,11.35,0,0,0,.57,5.6,3.88,3.88,0,0,0,3.2,2.75,3.17,3.17,0,0,0,3.06-1.42,8.27,8.27,0,0,0,1.55-4,13.35,13.35,0,0,0,0-3.79,6.85,6.85,0,0,0-1.26-3.08A3.61,3.61,0,0,0,242.95,72.71Z"/><path class="cls-1" d="M266.22,73.8a3.88,3.88,0,0,1,3,1.67q-.41,3.28-2.27,3a2.32,2.32,0,0,1-1.41-1,2.44,2.44,0,0,0-1.56-1,2.09,2.09,0,0,0-2,1A5.17,5.17,0,0,0,261,80l-.61,4.82a16.34,16.34,0,0,0-.17,3.51c0,.19.35.42,1,.69a5.49,5.49,0,0,0,1.26.45q.12,0,.07.58a4.06,4.06,0,0,1-.12.75q-.3-.08-2-.41t-2.61-.45q-.93-.12-2.7-.22t-2.08-.11a1.14,1.14,0,0,1-.06-.75c0-.39.12-.57.23-.56a5.47,5.47,0,0,0,1.44-.11c.65-.11,1-.26,1.09-.43a12.64,12.64,0,0,0,.63-2.78l.79-6.29a3.7,3.7,0,0,0-.31-2.55,1.87,1.87,0,0,0-.8-.69,4.4,4.4,0,0,0-.9-.35c-.24-.06-.36-.11-.35-.16q.14-1.12.34-1.13a55.11,55.11,0,0,0,6.36-.37l.32,0c.1,0,.18.12.24.3a.94.94,0,0,1,0,.46l-.12.53q-.08.36-.19.76c-.07.27-.11.44-.12.51a7.12,7.12,0,0,1,2.13-1.63A4.26,4.26,0,0,1,266.22,73.8Z"/><path class="cls-1" d="M280,75.54a4.78,4.78,0,0,1,3.43,1.71q1,1.4.65,4.45l-1,7.6a1.78,1.78,0,0,0,.2,1.22,1.17,1.17,0,0,0,.88.52,2.43,2.43,0,0,0,1.38-.34c.15.07.21.22.18.45a2.31,2.31,0,0,1-.38,1.13,9.58,9.58,0,0,1-1.66.77,4,4,0,0,1-1.92.27,2.84,2.84,0,0,1-1.65-.87,3.19,3.19,0,0,1-.94-1.57l-.32.21q-.28.18-.76.43A11.35,11.35,0,0,1,277,92a6.25,6.25,0,0,1-1.38.36,5.65,5.65,0,0,1-1.55,0,4.65,4.65,0,0,1-3-1.46,3.69,3.69,0,0,1-.85-3.07,3.59,3.59,0,0,1,.66-1.68,4.64,4.64,0,0,1,1.23-1.2,8,8,0,0,1,1.79-.81,15.81,15.81,0,0,1,1.89-.53c.52-.1,1.19-.22,2-.36l1.7-.29a.61.61,0,0,0,.43-.57l.27-2.12a3.34,3.34,0,0,0-.35-2.2,2,2,0,0,0-1.56-1,2.36,2.36,0,0,0-1.9.49,2.91,2.91,0,0,0-.91,1.94,1.26,1.26,0,0,1-.72,1.06,2.41,2.41,0,0,1-1.36.2,2.19,2.19,0,0,1-1.89-1.18q.23-1.85,3-3.15A9.76,9.76,0,0,1,280,75.54Zm-3.6,14.6a3,3,0,0,0,1.86-.31,1.54,1.54,0,0,0,.91-1.14l.5-3.94q-.28.08-1.19.24t-1.39.29a10.93,10.93,0,0,0-1.15.4,2.34,2.34,0,0,0-1,.73,2.15,2.15,0,0,0-.43,1,2.4,2.4,0,0,0,.39,1.89A2.24,2.24,0,0,0,276.4,90.14Z"/><path class="cls-1" d="M155.4,126.66a4.77,4.77,0,0,1,3.62,1.26q1.21,1.26,1.21,4.34v7.66a1.78,1.78,0,0,0,.35,1.19,1.17,1.17,0,0,0,.93.41,2.43,2.43,0,0,0,1.32-.51q.23.08.23.43a2.32,2.32,0,0,1-.23,1.17,9.64,9.64,0,0,1-1.56,1,4,4,0,0,1-1.87.51,2.84,2.84,0,0,1-1.75-.66,3.18,3.18,0,0,1-1.13-1.44l-.29.25q-.25.22-.7.53a11.37,11.37,0,0,1-1,.62,6.21,6.21,0,0,1-1.32.53,5.67,5.67,0,0,1-1.54.21A4.65,4.65,0,0,1,148.5,143a3.7,3.7,0,0,1-1.22-2.94,3.58,3.58,0,0,1,.45-1.75,4.66,4.66,0,0,1,1.07-1.34,8,8,0,0,1,1.67-1,16,16,0,0,1,1.81-.76q.76-.25,1.94-.6l1.65-.51a.61.61,0,0,0,.35-.62v-2.14a3.34,3.34,0,0,0-.62-2.14,2,2,0,0,0-1.67-.78,2.36,2.36,0,0,0-1.83.72,2.91,2.91,0,0,0-.66,2,1.26,1.26,0,0,1-.58,1.15,2.42,2.42,0,0,1-1.32.37,2.19,2.19,0,0,1-2-.93q0-1.87,2.55-3.5A9.75,9.75,0,0,1,155.4,126.66Zm-1.75,14.93a3,3,0,0,0,1.81-.54,1.54,1.54,0,0,0,.76-1.25v-4q-.27.12-1.15.39t-1.34.47a10.69,10.69,0,0,0-1.09.54,2.35,2.35,0,0,0-.91.86,2.15,2.15,0,0,0-.29,1.09,2.4,2.4,0,0,0,.62,1.83A2.24,2.24,0,0,0,153.65,141.59Z"/><path class="cls-1" d="M177.93,126.66q5,0,5,8v3.69a16.27,16.27,0,0,0,.27,3.5q.08.27,1.07.56a6,6,0,0,0,1.34.29q.12,0,.14.56a2.2,2.2,0,0,1-.06.76q-.23,0-2-.16t-2.7-.12q-.93,0-2.59.12l-2,.16a1.14,1.14,0,0,1-.16-.74q0-.58.16-.58a4.62,4.62,0,0,0,1.3-.29c.58-.19.9-.38,1-.56a11.18,11.18,0,0,0,.31-2.84v-3.69a8.44,8.44,0,0,0-.87-4.51,3.12,3.12,0,0,0-2.78-1.28,3.59,3.59,0,0,0-2.18.68,1.87,1.87,0,0,0-.93,1.46v6.69a16.27,16.27,0,0,0,.27,3.5q.08.27,1,.56a5.6,5.6,0,0,0,1.26.29q.15,0,.17.56a2.2,2.2,0,0,1-.06.76l-2-.16q-1.73-.12-2.62-.12t-2.7.12l-2.08.16a1.14,1.14,0,0,1-.16-.74q0-.58.16-.58a5.42,5.42,0,0,0,1.42-.29q1-.29,1-.56a12.67,12.67,0,0,0,.27-2.84v-6.34a3.7,3.7,0,0,0-.62-2.49,1.88,1.88,0,0,0-.87-.58,4.49,4.49,0,0,0-.93-.23c-.25,0-.37-.06-.37-.12q0-1.13.19-1.17a55.25,55.25,0,0,0,6.26-1.17.24.24,0,0,1,.1-.06l.12,0h.1c.1,0,.19.09.27.27a1.18,1.18,0,0,1,.12.43,13.33,13.33,0,0,0-.16,1.4.31.31,0,0,0,0,.19.56.56,0,0,0,.2-.12,8.62,8.62,0,0,1,2.39-1.63A6.82,6.82,0,0,1,177.93,126.66Z"/><path class="cls-1" d="M197.07,126.58a6.69,6.69,0,0,1,2.84.54q.19,0,.19-.62v-3.66a13.51,13.51,0,0,0-.23-2.64q-.19-.62-2-.62h-.31q-.23,0-.23-.62t.23-.62q1.17-.12,2.28-.31t1.83-.39q.72-.19,1.25-.39l.8-.29.31-.1h.08a.42.42,0,0,1,.31.21.71.71,0,0,1,.16.41,14.87,14.87,0,0,0-.39,3.66v17.11a14.19,14.19,0,0,0,.23,2.88.57.57,0,0,0,.39.43,2.38,2.38,0,0,0,.74.2l.74.06.39,0a.81.81,0,0,1,.08.47q0,.78-.23.78-.54,0-1.38.16l-1.63.25-1.52.27-1.61.33q-.23,0-.23-.66v-.66a.18.18,0,0,0-.06-.16s-.07,0-.1,0a6.49,6.49,0,0,1-4,1.44,7.53,7.53,0,0,1-5.48-2.31,7.85,7.85,0,0,1-2.33-5.81,9.12,9.12,0,0,1,2.66-6.59A8.52,8.52,0,0,1,197.07,126.58Zm-.35,1.87a3.41,3.41,0,0,0-3.11,1.75,9.11,9.11,0,0,0-1,4.71,9.38,9.38,0,0,0,1.21,5.15,3.82,3.82,0,0,0,3.38,1.85,3.23,3.23,0,0,0,2.14-.68,2.15,2.15,0,0,0,.82-1.73v-8.17a2.69,2.69,0,0,0-.14-.82,3.62,3.62,0,0,0-.47-.91,2.49,2.49,0,0,0-1-.82A4.13,4.13,0,0,0,196.72,128.45Z"/><path class="cls-1" d="M220.46,123.55a11.71,11.71,0,0,0-.31-3.27q-.16-.31-1.09-.6a5.19,5.19,0,0,0-1.4-.29q-.16,0-.16-.58a1.55,1.55,0,0,1,.08-.7l2.16.12q2,.12,3,.12l5-.23a2,2,0,0,1,.12.62c0,.44-.05.66-.16.66a6.34,6.34,0,0,0-1.4.31q-1.05.31-1.13.58a14.43,14.43,0,0,0-.31,3.42v14.62a14.41,14.41,0,0,0,.35,3.5q.08.27,1.07.56a6,6,0,0,0,1.34.29c.1,0,.16.25.16.74a1.72,1.72,0,0,1-.08.54l-4.94-.23q-.78,0-1.63,0l-1.89.1-1.65.1a.75.75,0,0,1-.16-.54c0-.49.05-.74.16-.74a6.2,6.2,0,0,0,1.46-.27q1-.27,1.11-.58a13.61,13.61,0,0,0,.31-3.27Z"/><path class="cls-1" d="M243.14,126.66q5,0,5,8v3.69a16.27,16.27,0,0,0,.27,3.5q.08.27,1.07.56a6,6,0,0,0,1.34.29q.12,0,.14.56a2.2,2.2,0,0,1-.06.76q-.23,0-2-.16t-2.7-.12q-.93,0-2.59.12l-2,.16a1.14,1.14,0,0,1-.16-.74q0-.58.16-.58a4.62,4.62,0,0,0,1.3-.29c.58-.19.9-.38,1-.56a11.18,11.18,0,0,0,.31-2.84v-3.69a8.44,8.44,0,0,0-.87-4.51,3.12,3.12,0,0,0-2.78-1.28,3.59,3.59,0,0,0-2.18.68,1.87,1.87,0,0,0-.93,1.46v6.69a16.27,16.27,0,0,0,.27,3.5q.08.27,1,.56a5.6,5.6,0,0,0,1.26.29q.15,0,.17.56a2.2,2.2,0,0,1-.06.76l-2-.16q-1.73-.12-2.62-.12t-2.7.12l-2.08.16a1.14,1.14,0,0,1-.16-.74q0-.58.16-.58a5.42,5.42,0,0,0,1.42-.29q1-.29,1-.56a12.67,12.67,0,0,0,.27-2.84v-6.34a3.7,3.7,0,0,0-.62-2.49,1.88,1.88,0,0,0-.87-.58,4.49,4.49,0,0,0-.93-.23c-.25,0-.37-.06-.37-.12q0-1.13.19-1.17a55.25,55.25,0,0,0,6.26-1.17.24.24,0,0,1,.1-.06l.12,0h.1c.1,0,.19.09.27.27a1.18,1.18,0,0,1,.12.43,13.33,13.33,0,0,0-.16,1.4.31.31,0,0,0,0,.19.56.56,0,0,0,.2-.12,8.62,8.62,0,0,1,2.39-1.63A6.82,6.82,0,0,1,243.14,126.66Z"/><path class="cls-1" d="M267.88,129.11q-.51-1-2.72-1c-.08,0-.12-.18-.12-.54a1.34,1.34,0,0,1,.12-.7q.54,0,1.89.12t2.22.12q.88,0,2.28-.12t1.91-.12a1.12,1.12,0,0,1,.12.62q0,.62-.23.62a4.64,4.64,0,0,0-1.52.37,2.25,2.25,0,0,0-1.32,1.11L264,143.26a2.64,2.64,0,0,1-.5.66,1,1,0,0,1-.66.35q-.39,0-.47-.23-.78-1.75-2.12-4.84T257.93,134q-1-2.14-2.22-4.82-.47-1.09-2.53-1.09c-.1,0-.16-.21-.16-.62a.9.9,0,0,1,.16-.62q.35,0,2.06.12t2.64.12q.93,0,2.68-.12t2-.12a1.27,1.27,0,0,1,.1.7c0,.36-.07.54-.17.54a5.74,5.74,0,0,0-1.38.23q-.87.23-.87.62a.73.73,0,0,0,.08.39l3.85,8.94,3.5-7.7Q268.16,129.54,267.88,129.11Z"/><path class="cls-1" d="M282.63,138.32a14.28,14.28,0,0,0,.31,3.5q.08.27,1,.56a5.72,5.72,0,0,0,1.32.29q.16,0,.17.56a2.18,2.18,0,0,1-.06.76q-.27,0-2.08-.16t-2.66-.12q-1,0-2.74.12t-2,.16a1.14,1.14,0,0,1-.16-.74q0-.58.16-.58a5.63,5.63,0,0,0,1.4-.29q1-.29,1-.56a12.67,12.67,0,0,0,.27-2.84v-6.34a3.7,3.7,0,0,0-.62-2.49,2.16,2.16,0,0,0-.89-.58,4.14,4.14,0,0,0-.93-.23c-.26,0-.39-.06-.39-.12q0-1.13.23-1.17a29.78,29.78,0,0,0,3.15-.47,30.7,30.7,0,0,0,3.07-.7l.31-.08c.13,0,.23.09.31.27a.72.72,0,0,1,.08.43,33.22,33.22,0,0,0-.31,3.34Zm-4-16.27a2.37,2.37,0,0,1-.7-1.71,2.41,2.41,0,0,1,4.82,0A2.37,2.37,0,0,1,282,122a2.4,2.4,0,0,1-3.42,0Z"/><path class="cls-1" d="M294.11,126.62a16.54,16.54,0,0,1,4.51.66,22.1,22.1,0,0,1,.43,4.36c0,.21-.17.31-.51.31-.57,0-.88-.1-.93-.31a4.71,4.71,0,0,0-1.15-2.31,3,3,0,0,0-2.35-1,2.8,2.8,0,0,0-1.77.5,1.73,1.73,0,0,0-.64,1.44,2.27,2.27,0,0,0,.21,1,2.44,2.44,0,0,0,.7.84,10,10,0,0,0,.86.62q.37.23,1.11.62a2.54,2.54,0,0,0,.39.19l.58.31.64.35.62.37a7,7,0,0,1,.68.45l.6.47a3,3,0,0,1,.58.54l.47.6a2.48,2.48,0,0,1,.41.7,7.07,7.07,0,0,1,.21.74,3.62,3.62,0,0,1,.1.84,4.59,4.59,0,0,1-1.89,3.87,7.38,7.38,0,0,1-4.57,1.42,13,13,0,0,1-5-1.09A15.67,15.67,0,0,1,288,141a19,19,0,0,1-.19-2.24.83.83,0,0,1,.54-.19q.89,0,.93.31a4.29,4.29,0,0,0,1.54,2.63,4.15,4.15,0,0,0,2.66,1,2.83,2.83,0,0,0,1.79-.54,1.9,1.9,0,0,0,.7-1.59,2.56,2.56,0,0,0-.1-.72,1.91,1.91,0,0,0-.37-.66l-.45-.54a2.84,2.84,0,0,0-.7-.53l-.78-.45-1-.5-1-.53a9,9,0,0,1-2.76-2.08,4.49,4.49,0,0,1,.89-6.44A7.5,7.5,0,0,1,294.11,126.62Z"/><path class="cls-1" d="M309.33,138.32a14.28,14.28,0,0,0,.31,3.5q.08.27,1,.56a5.72,5.72,0,0,0,1.32.29q.16,0,.17.56a2.18,2.18,0,0,1-.06.76q-.27,0-2.08-.16t-2.66-.12q-1,0-2.74.12t-2,.16a1.14,1.14,0,0,1-.16-.74q0-.58.16-.58a5.63,5.63,0,0,0,1.4-.29q1-.29,1-.56a12.67,12.67,0,0,0,.27-2.84v-6.34a3.7,3.7,0,0,0-.62-2.49,2.16,2.16,0,0,0-.89-.58,4.14,4.14,0,0,0-.93-.23c-.26,0-.39-.06-.39-.12q0-1.13.23-1.17a29.78,29.78,0,0,0,3.15-.47,30.7,30.7,0,0,0,3.07-.7l.31-.08c.13,0,.23.09.31.27a.72.72,0,0,1,.08.43,33.22,33.22,0,0,0-.31,3.34Zm-4-16.27a2.37,2.37,0,0,1-.7-1.71,2.41,2.41,0,0,1,4.82,0,2.37,2.37,0,0,1-.7,1.71,2.4,2.4,0,0,1-3.42,0Z"/><path class="cls-1" d="M324.39,126.66a7.91,7.91,0,0,1,4.34,1.22,8.16,8.16,0,0,1,2.92,3.11,8.3,8.3,0,0,1,1,3.91,8.88,8.88,0,0,1-2.7,6.51,8.57,8.57,0,0,1-6.24,2.7,12.19,12.19,0,0,1-2.84-.29,8.53,8.53,0,0,0-1.83-.29,3,3,0,0,0-1,.27,3.85,3.85,0,0,1-.78.27,1.89,1.89,0,0,1-.56-.23q-.45-.23-.45-.39c0-.08,0-.31.08-.7s.12-.95.19-1.67a22.27,22.27,0,0,0,.12-2.37V122.85a13.51,13.51,0,0,0-.23-2.64q-.19-.62-2-.62H314q-.23,0-.23-.62t.23-.62q1.21-.12,2.29-.31t1.81-.39q.72-.19,1.24-.39l1.11-.39h.08a.42.42,0,0,1,.31.21,1.08,1.08,0,0,1,.19.41,13.6,13.6,0,0,0-.43,3.66v6.44a1.09,1.09,0,0,0,0,.18c0,.08,0,.12.08.12a.31.31,0,0,0,.14,0,7.11,7.11,0,0,1,1.58-.78A5.57,5.57,0,0,1,324.39,126.66Zm-.86,2.1a3,3,0,0,0-2.1.74,2.29,2.29,0,0,0-.82,1.75v8.24a2.33,2.33,0,0,0,1,2.06,4.22,4.22,0,0,0,2.43.7,3.31,3.31,0,0,0,3.05-1.83,8.9,8.9,0,0,0,1-4.43A10,10,0,0,0,327,130.7,3.81,3.81,0,0,0,323.53,128.76Z"/><path class="cls-1" d="M342.05,138.25a16,16,0,0,0,.27,3.5q.08.27,1,.6a4.23,4.23,0,0,0,1.19.33c.08,0,.12.18.14.54a2.11,2.11,0,0,1-.06.74l-1.46-.1-1.65-.1c-.49,0-1,0-1.4,0s-1,0-1.48,0l-1.63.1-1.48.1a1.1,1.1,0,0,1-.16-.72q0-.56.16-.56a4.16,4.16,0,0,0,1.3-.33q.87-.33,1-.6a12.91,12.91,0,0,0,.31-2.88V122.69a13.58,13.58,0,0,0-.23-2.64q-.19-.62-1.94-.62h-.39c-.16,0-.23-.16-.23-.47s.08-.62.23-.62q1.21-.12,2.29-.31t1.81-.39q.72-.19,1.24-.37l.84-.29.27-.12H342c.1,0,.21.08.33.23a1.2,1.2,0,0,1,.21.39,12.31,12.31,0,0,0-.47,3.66Z"/><path class="cls-1" d="M354.08,138.32a14.28,14.28,0,0,0,.31,3.5q.08.27,1,.56a5.72,5.72,0,0,0,1.32.29q.16,0,.17.56a2.18,2.18,0,0,1-.06.76q-.27,0-2.08-.16t-2.66-.12q-1,0-2.74.12t-2,.16a1.14,1.14,0,0,1-.16-.74q0-.58.16-.58a5.63,5.63,0,0,0,1.4-.29q1-.29,1-.56a12.67,12.67,0,0,0,.27-2.84v-6.34a3.7,3.7,0,0,0-.62-2.49,2.16,2.16,0,0,0-.89-.58,4.14,4.14,0,0,0-.93-.23c-.26,0-.39-.06-.39-.12q0-1.13.23-1.17a29.78,29.78,0,0,0,3.15-.47,30.7,30.7,0,0,0,3.07-.7l.31-.08c.13,0,.23.09.31.27a.72.72,0,0,1,.08.43,33.22,33.22,0,0,0-.31,3.34ZM350,122a2.37,2.37,0,0,1-.7-1.71,2.41,2.41,0,0,1,4.82,0,2.37,2.37,0,0,1-.7,1.71,2.4,2.4,0,0,1-3.42,0Z"/><path class="cls-1" d="M361.48,129.38H359.1q-.27,0-.27-1a1,1,0,0,1,0-.35,10.87,10.87,0,0,0,3-2.06q.51-.51,1.11-1.15t1.42-1.65a2.76,2.76,0,0,1,.74.1c.23.07.35.14.35.21v3.81l2.82,0,1.92,0q.31,0,.31.35a3.78,3.78,0,0,1-.39,1.71h-4.67v9.37a3.69,3.69,0,0,0,.66,2.37,2.22,2.22,0,0,0,1.83.82,3.65,3.65,0,0,0,.82-.1,4.09,4.09,0,0,0,.7-.21l.51-.23a1.24,1.24,0,0,1,.27-.12c.1,0,.22.09.35.35s.18.43.16.51a3.56,3.56,0,0,1-1.65,1.26,6.13,6.13,0,0,1-2.78.72,4.91,4.91,0,0,1-3.44-1.3,5.21,5.21,0,0,1-1.42-4Z"/><path class="cls-1" d="M377.39,127q.86,0,2.45-.12t2-.12a2.61,2.61,0,0,1,.08.7c0,.36-.05.54-.16.54a4.25,4.25,0,0,0-1.22.29q-.84.29-.87.64v.23q.08.62,3.62,8.87.31-.7,1.52-3.83t1.4-3.6a3.66,3.66,0,0,0,.23-1.21,1.23,1.23,0,0,0-.62-1,3.2,3.2,0,0,0-1.87-.45q-.16,0-.16-.58a1,1,0,0,1,.16-.66q.47,0,1.91.12t2.37.12q.82,0,2-.12t1.73-.12a1.12,1.12,0,0,1,.16.62c0,.42-.05.62-.16.62a4.93,4.93,0,0,0-1.58.39,2.15,2.15,0,0,0-1.34,1.17L381.9,146.8q-2.41,5.68-5.79,5.68a2.11,2.11,0,0,1-1.56-.54,1.82,1.82,0,0,1,.19-2.76q4,0,5.33-3.19.93-2.33,1-2.64l-5.68-13.22a5,5,0,0,0-.47-.89,2.33,2.33,0,0,0-1.15-.87,3.68,3.68,0,0,0-1.26-.29c-.1,0-.16-.18-.16-.54s0-.65.12-.7l2.08.12Q376.46,127,377.39,127Z"/></svg>