<svg id="Layer_1" data-name="Layer 1" xmlns="http://www.w3.org/2000/svg" viewBox="0 0 471.47 120.77"><defs><style>.cls-1{fill:#1928eb;}</style></defs><title>title</title><path class="cls-1" d="M.87,5A4.69,4.69,0,0,1,2.94,1.31,6.49,6.49,0,0,1,7.24,0,10.42,10.42,0,0,1,8.69.18q.62.12,1.72.47l1.51.45A26.62,26.62,0,0,1,12,5.69a.32.32,0,0,1-.37.25c-.53,0-.82-.13-.85-.31A5.23,5.23,0,0,0,9.67,2.88a3.37,3.37,0,0,0-2.6-1.45,2.74,2.74,0,0,0-2.14.66,2.91,2.91,0,0,0-.84,2A3.3,3.3,0,0,0,4.15,5a2.1,2.1,0,0,0,.37.81L5,6.45a3.63,3.63,0,0,0,.71.68l.71.58c.12.11.41.32.86.63a8.88,8.88,0,0,0,.82.54,10.88,10.88,0,0,0,1,.69q.79.53,1.1.78a12.12,12.12,0,0,1,.91.81,4.26,4.26,0,0,1,.85,1.06,6.12,6.12,0,0,1,.45,1.23A5,5,0,0,1,12.52,15a4.83,4.83,0,0,1-2.13,3.81,6.88,6.88,0,0,1-4.52,1.3A27.63,27.63,0,0,1,.45,19a26,26,0,0,1-.34-2.71A20.06,20.06,0,0,1,0,14.14c0-.16.19-.23.49-.21.51,0,.79.12.85.29a5.75,5.75,0,0,0,.35,1.2,8.56,8.56,0,0,0,.74,1.41,3.92,3.92,0,0,0,1.33,1.26,4.2,4.2,0,0,0,1.95.57A3.33,3.33,0,0,0,8.07,18a3.2,3.2,0,0,0,1.06-2.44,2.58,2.58,0,0,0-.14-1,3.43,3.43,0,0,0-.4-.83,4.37,4.37,0,0,0-.7-.75c-.31-.27-.58-.49-.79-.64l-.93-.63-.88-.57A2.08,2.08,0,0,0,5,10.84l-1.26-.9Q3.29,9.62,2.62,9a5.91,5.91,0,0,1-1-1.14,5.69,5.69,0,0,1-.57-1.28A4.48,4.48,0,0,1,.87,5Z"/><path class="cls-1" d="M22.94,7.63a6,6,0,0,1,3.33,1.17,6.22,6.22,0,0,1,2.62,5.44,7,7,0,0,1-7.36,6.68,6.91,6.91,0,0,1-2.08-.53c-.08,0-.12.13-.14.41l-.11,2a10.71,10.71,0,0,0,.09,2.68c0,.16.26.33.76.5a4.54,4.54,0,0,0,1,.28c.06,0,.08.15.08.44a2.69,2.69,0,0,1,0,.55l-1.58-.17q-1.38-.17-2-.2t-2.1,0H13.79a1.06,1.06,0,0,1-.06-.55c0-.29.05-.43.11-.43a4.2,4.2,0,0,0,1.1-.16c.49-.12.77-.26.84-.42a10.81,10.81,0,0,0,.29-2.13l.62-11.34a2.89,2.89,0,0,0-.37-2,1.34,1.34,0,0,0-.63-.47,3.59,3.59,0,0,0-.7-.2q-.3,0-.29-.11c0-.57.11-.87.23-.88a22.81,22.81,0,0,0,4.47-.59L20,7.52q.12,0,.08.63a1.61,1.61,0,0,1-.08.35,6,6,0,0,1,1.36-.62A4.24,4.24,0,0,1,22.94,7.63Zm-.8,1.53a2.25,2.25,0,0,0-1.62.48,2,2,0,0,0-.69,1.48l-.33,6.12a1.83,1.83,0,0,0,.71,1.6,2.89,2.89,0,0,0,1.69.67,2.79,2.79,0,0,0,2.37-1.12,5.75,5.75,0,0,0,1.13-3.45,7.68,7.68,0,0,0-.73-4A2.93,2.93,0,0,0,22.14,9.16Z"/><path class="cls-1" d="M37.25,8.38a5.5,5.5,0,0,1,2.46.69,4.7,4.7,0,0,1,1.65,1.49,6.9,6.9,0,0,1,.85,1.8,5.11,5.11,0,0,1,.23,1.75c0,.44-.11.7-.27.8a1.71,1.71,0,0,1-.91.11l-7.09-.39c-.14,0-.21,0-.22.17a5.77,5.77,0,0,0,.27,2.1,4.08,4.08,0,0,0,1.22,1.82,3.5,3.5,0,0,0,2.2.87,8.2,8.2,0,0,0,.86,0,4.53,4.53,0,0,0,.78-.11l.63-.16a2.49,2.49,0,0,0,.56-.24l.42-.23.62-.37a.47.47,0,0,1,.14.19.58.58,0,0,1,.07.3.92.92,0,0,1-.21.55A4.85,4.85,0,0,1,39.69,21a5.52,5.52,0,0,1-3,.64,6,6,0,0,1-4.35-2.16,6.41,6.41,0,0,1-1.62-4.75,6.88,6.88,0,0,1,2-4.77A5.76,5.76,0,0,1,37.25,8.38ZM37,9.73a2.1,2.1,0,0,0-1.3.35,2.8,2.8,0,0,0-.92,1,5.7,5.7,0,0,0-.49,1.09,3.74,3.74,0,0,0-.18.87c0,.14,0,.21.17.22l4.81.26c.18,0,.28-.13.29-.43a3.86,3.86,0,0,0-.58-2.15A2.13,2.13,0,0,0,37,9.73Z"/><path class="cls-1" d="M50.65,9.11a3.65,3.65,0,0,1,2.71,1.12,4.76,4.76,0,0,1,.74,3.36l-.32,5.85a1.35,1.35,0,0,0,.22.92.89.89,0,0,0,.69.35,1.85,1.85,0,0,0,1-.33c.12,0,.17.16.16.34a1.77,1.77,0,0,1-.23.88,7.25,7.25,0,0,1-1.23.68,3.09,3.09,0,0,1-1.45.31A2.17,2.17,0,0,1,51.67,22a2.44,2.44,0,0,1-.8-1.15l-.23.18c-.13.1-.32.23-.56.37a9,9,0,0,1-.8.43,4.73,4.73,0,0,1-1,.34,4.31,4.31,0,0,1-1.18.1,3.55,3.55,0,0,1-2.37-.95A2.83,2.83,0,0,1,43.88,19a2.75,2.75,0,0,1,.42-1.32,3.54,3.54,0,0,1,.87-1A6.07,6.07,0,0,1,46.49,16a12,12,0,0,1,1.41-.5l1.51-.38,1.28-.32a.47.47,0,0,0,.29-.46l.09-1.63a2.55,2.55,0,0,0-.39-1.66,1.55,1.55,0,0,0-1.24-.66,1.8,1.8,0,0,0-1.42.47,2.22,2.22,0,0,0-.59,1.53,1,1,0,0,1-.49.85,1.84,1.84,0,0,1-1,.23,1.68,1.68,0,0,1-1.5-.8q.08-1.43,2.09-2.57A7.45,7.45,0,0,1,50.65,9.11Zm-2,11.33a2.3,2.3,0,0,0,1.4-.34,1.18,1.18,0,0,0,.63-.92l.17-3c-.14.05-.44.13-.89.25s-.8.21-1,.3a8.49,8.49,0,0,0-.85.37,1.8,1.8,0,0,0-.73.62,1.65,1.65,0,0,0-.27.82,1.83,1.83,0,0,0,.4,1.42A1.71,1.71,0,0,0,48.69,20.44Z"/><path class="cls-1" d="M70.44,12.19q-.62.32-2,1.23A21,21,0,0,0,66,15.37q.81,1,2,2.52t2,2.55a14.13,14.13,0,0,0,1.12,1.28,3.73,3.73,0,0,0,1.11.66,3.56,3.56,0,0,0,1,.29c.08,0,.11.18.09.51a1.76,1.76,0,0,1-.05.41l-3.47-.34-1.14,0h-2.4a.8.8,0,0,1-.09-.54c0-.28.06-.41.14-.41a2.16,2.16,0,0,0,.69-.1c.26-.08.39-.16.4-.26s0-.06,0-.06L63.36,16.8l-.36.07-.1,1.84A12.08,12.08,0,0,0,63,21.4c0,.14.29.3.78.47a4.3,4.3,0,0,0,1,.28c.06,0,.09.15.08.44a1.7,1.7,0,0,1-.08.58L63.24,23q-1.36-.16-2-.2t-2.07,0l-1.59,0a.87.87,0,0,1-.09-.57c0-.3.06-.44.14-.44a4.13,4.13,0,0,0,1.1-.16q.74-.18.81-.39a9.72,9.72,0,0,0,.33-2.16l.67-12.32a11.67,11.67,0,0,0,0-2q-.12-.48-1.52-.56h-.27c-.12,0-.17-.17-.15-.49s.08-.47.2-.46q.93,0,1.77-.14t1.4-.22c.37-.08.69-.16,1-.25l.86-.25h.06c.08,0,.15.06.23.18a.81.81,0,0,1,.13.32,9.6,9.6,0,0,0-.51,2.77l-.54,9.92a2.67,2.67,0,0,0,.91-.28q.65-.53,1.42-1.1l1.1-.82q.34-.25.68-.54a2.59,2.59,0,0,0,.46-.47.72.72,0,0,0,.12-.35q0-.33-.65-.44a3,3,0,0,1-.66-.14,1.31,1.31,0,0,1-.06-.53c0-.21.06-.32.14-.33l2.88.16q.8,0,3.15.05a.46.46,0,0,1,.13.33,1.32,1.32,0,0,1,0,.44c0,.14-.08.2-.14.2A3.89,3.89,0,0,0,70.44,12.19Z"/><path class="cls-1" d="M80.93,19.7A10.92,10.92,0,0,0,81,22.38q0,.21.78.47a4.36,4.36,0,0,0,1,.28c.08,0,.12.15.11.44a1.68,1.68,0,0,1-.08.58l-1.58-.21q-1.38-.17-2-.2t-2.1,0l-1.56,0a.88.88,0,0,1-.09-.57c0-.3.06-.44.14-.44a4.29,4.29,0,0,0,1.08-.17q.75-.18.83-.39A9.67,9.67,0,0,0,77.84,20l.26-4.84a2.83,2.83,0,0,0-.37-1.93,1.64,1.64,0,0,0-.66-.48,3.12,3.12,0,0,0-.7-.22c-.2,0-.29-.07-.29-.11,0-.57.11-.87.23-.88a22.73,22.73,0,0,0,2.42-.22A23,23,0,0,0,81.11,11l.24,0c.1,0,.17.08.23.22a.54.54,0,0,1,0,.33A25.48,25.48,0,0,0,81.24,14ZM78.52,7.11a1.81,1.81,0,0,1-.46-1.34,1.76,1.76,0,0,1,.61-1.26A1.84,1.84,0,0,1,81.74,6a1.81,1.81,0,0,1-.6,1.28,1.83,1.83,0,0,1-2.61-.14Z"/><path class="cls-1" d="M95,11.54q3.83.21,3.5,6.29l-.15,2.82a12.38,12.38,0,0,0,.06,2.68q0,.21.79.48a4.55,4.55,0,0,0,1,.28c.06,0,.09.15.08.44a1.74,1.74,0,0,1-.08.58q-.18,0-1.55-.2t-2.06-.2q-.71,0-2,0l-1.54,0a.87.87,0,0,1-.09-.57c0-.3.06-.44.14-.44a3.55,3.55,0,0,0,1-.17c.45-.12.7-.25.75-.39A8.47,8.47,0,0,0,95.3,21l.15-2.82A6.46,6.46,0,0,0,95,14.69a2.39,2.39,0,0,0-2.07-1.1,2.75,2.75,0,0,0-1.69.43,1.43,1.43,0,0,0-.77,1.07l-.28,5.11a12.46,12.46,0,0,0,.06,2.68q0,.21.76.47a4.31,4.31,0,0,0,1,.28c.08,0,.12.15.11.44a1.71,1.71,0,0,1-.08.58l-1.55-.2q-1.32-.16-2-.2t-2.07,0l-1.59,0a.87.87,0,0,1-.09-.57q0-.45.14-.44a4.15,4.15,0,0,0,1.1-.16q.74-.18.81-.39a9.67,9.67,0,0,0,.33-2.16l.26-4.84a2.83,2.83,0,0,0-.37-1.93,1.42,1.42,0,0,0-.64-.48,3.33,3.33,0,0,0-.7-.22c-.19,0-.28-.06-.28-.1,0-.57.1-.87.2-.88a41.88,41.88,0,0,0,4.83-.63l.08,0h.16c.08,0,.14.08.2.22a.89.89,0,0,1,.07.33A10,10,0,0,0,90.68,13a.24.24,0,0,0,0,.15.44.44,0,0,0,.15-.08,6.64,6.64,0,0,1,1.9-1.15A5.22,5.22,0,0,1,95,11.54Z"/><path class="cls-1" d="M108.65,12.34a9.4,9.4,0,0,1,2.44.52,9.21,9.21,0,0,0,2.35.52l1.69.09s.1.13.19.4a1.87,1.87,0,0,1,.12.6q0,.42-.2.41l-1.93-.11c-.08,0-.12,0-.12.08s.07.28.23.79a4.21,4.21,0,0,1,.19,1.44A4.3,4.3,0,0,1,112,20.16a5.09,5.09,0,0,1-3.74,1.21,12.18,12.18,0,0,1-1.83-.22,1.6,1.6,0,0,0-.68.51,1.26,1.26,0,0,0-.33.71.61.61,0,0,0,.25.52,2,2,0,0,0,.86.34c.39.08.73.14,1,.17l1.18.12.45,0a10.48,10.48,0,0,1,4.3,1.05,2.34,2.34,0,0,1,1.26,2.26,4.67,4.67,0,0,1-2.35,3.74A8.12,8.12,0,0,1,107.22,32a7.72,7.72,0,0,1-3.74-1A2.67,2.67,0,0,1,102,28.41a2.32,2.32,0,0,1,.94-1.62,4.92,4.92,0,0,1,1.89-1,3.4,3.4,0,0,1-1.38-1,2.17,2.17,0,0,1-.57-1.59q.07-1.28,2.34-2.52a3.94,3.94,0,0,1-1.52-1.62,4.39,4.39,0,0,1-.61-2.46,4,4,0,0,1,1.72-3.24A5.92,5.92,0,0,1,108.65,12.34Zm3.25,15.75q.06-1-1.42-1.46a18.8,18.8,0,0,0-4-.56l-.15,0-.15.08q-.39.13-.61.22a2.45,2.45,0,0,0-.49.3,1.44,1.44,0,0,0-.43.5,1.74,1.74,0,0,0-.17.71,2.08,2.08,0,0,0,1,1.84,4.63,4.63,0,0,0,2.48.85,4.49,4.49,0,0,0,2.76-.62A2.32,2.32,0,0,0,111.89,28.09Zm-5.74-11.57a4.69,4.69,0,0,0,.46,2.48,1.85,1.85,0,0,0,1.61,1.08,1.76,1.76,0,0,0,1.66-.76,3.93,3.93,0,0,0,.63-2.06,4.88,4.88,0,0,0-.45-2.58,1.9,1.9,0,0,0-1.67-1.07,1.68,1.68,0,0,0-1.62.83A4.31,4.31,0,0,0,106.16,16.52Z"/><path class="cls-1" d="M142.44,16.39a.86.86,0,0,0-.2-.62,1.31,1.31,0,0,0-.59-.39,5.25,5.25,0,0,0-.67-.19,4.16,4.16,0,0,0-.61-.08h-.12c-.08,0-.12-.16-.11-.45s0-.47.1-.53q.39,0,1.57.17t1.89.19c.42,0,.95,0,1.59,0s1.12,0,1.41,0a1.89,1.89,0,0,1,0,.51q0,.45-.14.44a3.38,3.38,0,0,0-1.19.31,1.82,1.82,0,0,0-1.07.85l-5,10.24a1.17,1.17,0,0,1-.42.41,1,1,0,0,1-.59.16.37.37,0,0,1-.37-.23l-3.17-8.39-3.6,7.57a1.66,1.66,0,0,1-.36.4.9.9,0,0,1-.65.2.44.44,0,0,1-.4-.23q-.6-1.58-1.41-3.84t-1.49-4q-.68-1.73-1.58-3.78a1.37,1.37,0,0,0-.74-.64,2.86,2.86,0,0,0-.94-.26c-.08,0-.11-.17-.09-.48s.06-.44.15-.5.7.07,1.49.17,1.42.17,1.88.19,1.13,0,2,0h1.55a1.59,1.59,0,0,1,0,.54q0,.39-.11.41a3.53,3.53,0,0,0-1,.15q-.65.17-.67.59s.86,2.37,2.59,7q.37-.81.86-1.84l.74-1.57.51-1.09q.25-.55.36-.83a1.59,1.59,0,0,0,.11-.37,2.17,2.17,0,0,0-.32-1.21,1.4,1.4,0,0,0-.63-.51,2.36,2.36,0,0,0-1.06-.24c-.08,0-.11-.15-.1-.44s.06-.46.15-.51.71.07,1.46.17,1.38.17,1.85.19,1.08,0,1.93,0h1.52a1.4,1.4,0,0,1,0,.55c0,.29-.07.43-.13.42q-1.51-.08-1.57,1a47.67,47.67,0,0,0,2.43,6.74q.54-1.22,1.33-2.86t1.16-2.44A4,4,0,0,0,142.44,16.39Z"/><path class="cls-1" d="M153.24,23.65a11,11,0,0,0,.09,2.68q0,.21.78.47a4.36,4.36,0,0,0,1,.28c.08,0,.12.15.11.44a1.69,1.69,0,0,1-.08.58c-.14,0-.67-.1-1.58-.21s-1.59-.18-2-.2-1.19,0-2.1,0l-1.56,0a.87.87,0,0,1-.09-.57q0-.45.14-.44a4.33,4.33,0,0,0,1.08-.16q.75-.18.83-.39a9.73,9.73,0,0,0,.33-2.16l.26-4.84a2.83,2.83,0,0,0-.37-1.93,1.65,1.65,0,0,0-.66-.48,3.13,3.13,0,0,0-.7-.22c-.2,0-.29-.06-.29-.1,0-.57.11-.87.23-.88a22.8,22.8,0,0,0,2.42-.23,23.35,23.35,0,0,0,2.37-.41l.24,0c.1,0,.17.08.23.22a.54.54,0,0,1,0,.33,25.65,25.65,0,0,0-.38,2.54Zm-2.41-12.59a1.81,1.81,0,0,1-.46-1.33,1.76,1.76,0,0,1,.6-1.26,1.87,1.87,0,0,1,2.61.14,1.77,1.77,0,0,1,.46,1.32,1.81,1.81,0,0,1-.61,1.28,1.83,1.83,0,0,1-2.61-.14Z"/><path class="cls-1" d="M159.27,17.13l-1.81-.1c-.14,0-.19-.27-.17-.78a.71.71,0,0,1,0-.27,8.33,8.33,0,0,0,2.37-1.45l.89-.83q.49-.46,1.15-1.2a2.1,2.1,0,0,1,.56.11c.18.06.26.12.26.18l-.16,2.91,2.15.13,1.47.1c.16,0,.23.1.22.28a2.88,2.88,0,0,1-.37,1.29l-3.56-.19-.39,7.15a2.82,2.82,0,0,0,.41,1.84,1.7,1.7,0,0,0,1.36.7,2.75,2.75,0,0,0,.63,0,3.17,3.17,0,0,0,.54-.13l.39-.16.21-.08c.08,0,.17.08.25.28a.7.7,0,0,1,.1.39,2.74,2.74,0,0,1-1.31.9,4.67,4.67,0,0,1-2.15.43,3.74,3.74,0,0,1-2.57-1.14,4,4,0,0,1-.92-3.13Z"/><path class="cls-1" d="M178.06,16.08q3.8.21,3.48,6.06l-.17,3.06a11,11,0,0,0,.09,2.68q0,.21.76.47a4.57,4.57,0,0,0,1,.28c.06,0,.09.15.08.44a3.17,3.17,0,0,1,0,.58l-1.58-.21q-1.38-.16-2-.2t-2,0l-1.56,0a1.11,1.11,0,0,1-.06-.57c0-.3.05-.44.11-.44a3.56,3.56,0,0,0,1-.17c.45-.12.71-.25.78-.39a11.19,11.19,0,0,0,.3-2.16l.16-2.91a6.21,6.21,0,0,0-.48-3.44,2.43,2.43,0,0,0-2.07-1.05,2.86,2.86,0,0,0-1.66.42,1.4,1.4,0,0,0-.8,1.09l-.28,5.11a10.91,10.91,0,0,0,.09,2.68q0,.21.76.47a4.22,4.22,0,0,0,1,.28c.06,0,.09.15.08.44a1.68,1.68,0,0,1-.08.58l-1.55-.2q-1.32-.16-2-.2t-2.07,0l-1.59,0a.87.87,0,0,1-.09-.57c0-.3.06-.44.14-.44a4.16,4.16,0,0,0,1.1-.16q.74-.18.81-.39A9.63,9.63,0,0,0,170,25.1l.67-12.35a11.67,11.67,0,0,0,0-2q-.12-.48-1.52-.56h-.27c-.12,0-.17-.17-.15-.48s.08-.47.2-.47q.93,0,1.77-.14t1.4-.22c.37-.08.69-.16,1-.25l.86-.25H174c.08,0,.15.06.23.18a.82.82,0,0,1,.13.32,9.6,9.6,0,0,0-.51,2.77l-.33,6c0,.12,0,.18.11.18s.06,0,.12-.08a5.67,5.67,0,0,1,1.9-1.19A5.49,5.49,0,0,1,178.06,16.08Z"/><path class="cls-1" d="M197.15,10.75l2.92,0q.22.85,1,3.14t2,5.59q1.2,3.3,1.92,5.42s0,.06.09.06a.08.08,0,0,0,.09-.08q3-6.12,4.72-10.07l1.26-3.38q.89.14,2.43.22,1.16.06,3.54,0a.87.87,0,0,1,.06.48c0,.34-.07.5-.14.5h-.06a2.42,2.42,0,0,0-1.48.4q-.46.3-.47,1.58,0,2.65-.25,12.28a7.85,7.85,0,0,0,.33,2.76c.07.18.34.36.8.54a4,4,0,0,0,1,.28c.08,0,.11.18.09.54a1.47,1.47,0,0,1-.08.44l-3.64-.38-1.25,0h-2.71a.62.62,0,0,1-.1-.45c0-.36.07-.53.15-.53a3.47,3.47,0,0,0,1-.14,1.87,1.87,0,0,0,.85-.38,1.66,1.66,0,0,0,.35-1l.09-1.66.2-9c0-1.23-.1-1.85-.25-1.86s-.11.05-.16.17L205,29.64q-.57,1.1-1.19,1.07a1,1,0,0,1-.29-.08L197.79,14.3q-.61,7.38-1.2,13.21a3.3,3.3,0,0,0,0,.93q.13.33,1.15.69a6.38,6.38,0,0,0,1.38.37q.12,0,.09.54a1.47,1.47,0,0,1-.08.44l-3.73-.38q-.8,0-2.13,0t-1.62,0a.69.69,0,0,1-.09-.48c0-.34.07-.5.15-.5a5.9,5.9,0,0,0,1.5-.22q1-.24,1.2-.71a5.55,5.55,0,0,0,.43-2q.18-2.25.46-5.32t.46-5.23q.19-2.16.22-2.7a2.84,2.84,0,0,0,0-.84q-.08-.24-1-.5a6.72,6.72,0,0,0-1.28-.28c-.08,0-.11-.17-.09-.51a.64.64,0,0,1,.14-.44l1.52.19Q196.38,10.71,197.15,10.75Z"/><path class="cls-1" d="M224.52,27.55a10.91,10.91,0,0,0,.09,2.68q0,.21.78.47a4.34,4.34,0,0,0,1,.28c.08,0,.12.15.11.44a1.68,1.68,0,0,1-.08.58q-.21,0-1.58-.21t-2-.2q-.74,0-2.1,0l-1.57,0a.88.88,0,0,1-.09-.57q0-.44.14-.44a4.32,4.32,0,0,0,1.08-.16q.75-.18.83-.39a9.67,9.67,0,0,0,.33-2.16L221.7,23a2.83,2.83,0,0,0-.37-1.93,1.64,1.64,0,0,0-.66-.48,3.13,3.13,0,0,0-.7-.22c-.2,0-.29-.07-.29-.11,0-.57.11-.87.23-.88a22.73,22.73,0,0,0,2.42-.22,23.37,23.37,0,0,0,2.38-.41l.24,0c.1,0,.17.08.23.22a.54.54,0,0,1,0,.33,25.49,25.49,0,0,0-.38,2.54ZM222.12,15a1.81,1.81,0,0,1-.46-1.34,1.75,1.75,0,0,1,.6-1.26,1.84,1.84,0,0,1,3.08,1.46,1.81,1.81,0,0,1-.6,1.28,1.83,1.83,0,0,1-2.61-.14Z"/><path class="cls-1" d="M238.64,19.39q3.83.21,3.5,6.29L242,28.5a12.39,12.39,0,0,0,.06,2.68q0,.21.79.47a4.51,4.51,0,0,0,1,.28c.06,0,.09.15.08.44a1.73,1.73,0,0,1-.08.58q-.18,0-1.55-.2t-2.06-.2q-.71,0-2,0l-1.54,0a.87.87,0,0,1-.09-.57c0-.3.06-.44.14-.44a3.56,3.56,0,0,0,1-.17q.68-.19.75-.39a8.47,8.47,0,0,0,.36-2.15l.15-2.82a6.46,6.46,0,0,0-.48-3.48,2.39,2.39,0,0,0-2.07-1.1,2.75,2.75,0,0,0-1.69.43,1.43,1.43,0,0,0-.77,1.07l-.28,5.11a12.47,12.47,0,0,0,.06,2.68c0,.14.29.3.76.47a4.19,4.19,0,0,0,1,.28c.08,0,.12.15.11.44a1.71,1.71,0,0,1-.08.58l-1.55-.2q-1.32-.16-2-.2t-2.07,0l-1.59,0a.87.87,0,0,1-.09-.57q0-.45.14-.44a4.12,4.12,0,0,0,1.1-.16q.74-.18.81-.39a9.67,9.67,0,0,0,.33-2.16l.26-4.84a2.83,2.83,0,0,0-.37-1.93,1.42,1.42,0,0,0-.64-.48,3.39,3.39,0,0,0-.7-.22c-.19,0-.28-.06-.28-.1,0-.57.1-.87.2-.88a42.17,42.17,0,0,0,4.83-.63l.08,0h.16c.08,0,.14.08.2.22a.89.89,0,0,1,.07.33,10,10,0,0,0-.18,1.06.24.24,0,0,0,0,.15.42.42,0,0,0,.15-.08,6.6,6.6,0,0,1,1.89-1.15A5.19,5.19,0,0,1,238.64,19.39Z"/><path class="cls-1" d="M252.81,20.16a3.65,3.65,0,0,1,2.71,1.12,4.75,4.75,0,0,1,.74,3.36l-.32,5.85a1.35,1.35,0,0,0,.22.92.89.89,0,0,0,.69.35,1.85,1.85,0,0,0,1-.33c.12,0,.17.16.16.34a1.77,1.77,0,0,1-.23.88,7.32,7.32,0,0,1-1.23.68,3.09,3.09,0,0,1-1.45.31,2.17,2.17,0,0,1-1.31-.58,2.44,2.44,0,0,1-.8-1.15l-.23.18q-.2.15-.56.37a8.74,8.74,0,0,1-.8.43,4.73,4.73,0,0,1-1,.34,4.27,4.27,0,0,1-1.18.1,3.55,3.55,0,0,1-2.37-.95,2.83,2.83,0,0,1-.81-2.29,2.75,2.75,0,0,1,.42-1.32,3.56,3.56,0,0,1,.87-1,6.11,6.11,0,0,1,1.32-.72,12.17,12.17,0,0,1,1.41-.5l1.51-.38,1.28-.32a.47.47,0,0,0,.29-.46l.09-1.63a2.55,2.55,0,0,0-.39-1.66,1.55,1.55,0,0,0-1.24-.66,1.8,1.8,0,0,0-1.42.47,2.22,2.22,0,0,0-.59,1.53,1,1,0,0,1-.49.85,1.85,1.85,0,0,1-1,.23,1.68,1.68,0,0,1-1.5-.8q.08-1.43,2.09-2.57A7.46,7.46,0,0,1,252.81,20.16Zm-2,11.33a2.3,2.3,0,0,0,1.4-.34,1.18,1.18,0,0,0,.63-.92l.17-3c-.14.05-.44.13-.89.25s-.8.21-1,.3a8.18,8.18,0,0,0-.85.37,1.79,1.79,0,0,0-.73.62,1.63,1.63,0,0,0-.27.82,1.83,1.83,0,0,0,.4,1.42A1.7,1.7,0,0,0,250.85,31.49Z"/><path class="cls-1" d="M283.78,29.59a16.65,16.65,0,0,1-.57,2.28q-.55,1.89-.79,2a16,16,0,0,1-7,.87,8.93,8.93,0,0,1-6.52-3.24,9.58,9.58,0,0,1-2.39-7,10.23,10.23,0,0,1,3.22-7.07,9.16,9.16,0,0,1,7.11-2.63,32.73,32.73,0,0,1,7,1.18,8.55,8.55,0,0,1,.07,2q0,1.92,0,2.39t-.74.41a1,1,0,0,1-.41-.14,4.12,4.12,0,0,0-.37-1.12,7.68,7.68,0,0,0-.87-1.33,4.53,4.53,0,0,0-1.78-1.27,8,8,0,0,0-2.79-.61,5.16,5.16,0,0,0-4.66,2.16,10.09,10.09,0,0,0-1.93,5.67,10.76,10.76,0,0,0,1.48,6.44,5.93,5.93,0,0,0,5,2.88,5.44,5.44,0,0,0,4.28-1.43,4.08,4.08,0,0,0,.76-1.07c.23-.45.41-.84.54-1.15s.21-.46.25-.46C283.33,29.3,283.71,29.41,283.78,29.59Z"/><path class="cls-1" d="M295.78,22.51q3.8.21,3.48,6.05l-.17,3.06a10.91,10.91,0,0,0,.09,2.68q0,.21.76.47a4.56,4.56,0,0,0,1,.28c.06,0,.09.15.08.44a3.15,3.15,0,0,1,0,.58l-1.58-.21q-1.38-.16-2-.2t-2,0l-1.57,0a1.11,1.11,0,0,1-.06-.57c0-.3.05-.44.11-.44a3.54,3.54,0,0,0,1-.17q.68-.19.78-.39A11.2,11.2,0,0,0,296,32l.16-2.91a6.21,6.21,0,0,0-.48-3.44,2.43,2.43,0,0,0-2.07-1.05,2.85,2.85,0,0,0-1.66.42,1.4,1.4,0,0,0-.8,1.09l-.28,5.11a10.91,10.91,0,0,0,.09,2.68q0,.21.76.47a4.22,4.22,0,0,0,1,.28c.06,0,.09.15.08.44a1.68,1.68,0,0,1-.08.58l-1.55-.2q-1.32-.16-2-.2t-2.07,0l-1.59,0a.87.87,0,0,1-.09-.57c0-.3.06-.44.14-.44a4.12,4.12,0,0,0,1.1-.16q.74-.18.81-.39a9.63,9.63,0,0,0,.33-2.13l.67-12.35a11.67,11.67,0,0,0,0-2q-.12-.48-1.52-.56h-.27q-.18,0-.15-.48c0-.32.08-.47.2-.47q.93,0,1.77-.14t1.4-.22q.56-.12,1-.24l.86-.25h.06c.08,0,.15.06.23.18a.81.81,0,0,1,.13.32,9.64,9.64,0,0,0-.51,2.77l-.33,6c0,.12,0,.18.11.18s.06,0,.12-.08a5.65,5.65,0,0,1,1.9-1.19A5.47,5.47,0,0,1,295.78,22.51Z"/><path class="cls-1" d="M309.62,23.27a5.5,5.5,0,0,1,2.46.69,4.7,4.7,0,0,1,1.65,1.49,6.89,6.89,0,0,1,.85,1.8,5.1,5.1,0,0,1,.23,1.75c0,.44-.11.7-.27.8a1.7,1.7,0,0,1-.92.11l-7.09-.39c-.14,0-.21,0-.22.17a5.75,5.75,0,0,0,.27,2.1,4.08,4.08,0,0,0,1.22,1.82,3.5,3.5,0,0,0,2.2.87,8.2,8.2,0,0,0,.86,0,4.55,4.55,0,0,0,.78-.11l.63-.16a2.49,2.49,0,0,0,.56-.24l.42-.23.62-.37a.47.47,0,0,1,.14.19.58.58,0,0,1,.07.3.92.92,0,0,1-.21.55,4.85,4.85,0,0,1-1.84,1.51,5.5,5.5,0,0,1-3,.64,6,6,0,0,1-4.35-2.16,6.41,6.41,0,0,1-1.62-4.75,6.88,6.88,0,0,1,2-4.77A5.76,5.76,0,0,1,309.62,23.27Zm-.28,1.35A2.11,2.11,0,0,0,308,25a2.8,2.8,0,0,0-.91,1,5.7,5.7,0,0,0-.49,1.09,3.69,3.69,0,0,0-.18.87c0,.14,0,.21.17.22l4.81.26c.18,0,.28-.13.29-.43a3.86,3.86,0,0,0-.58-2.15A2.14,2.14,0,0,0,309.34,24.62Z"/><path class="cls-1" d="M323.49,24a6.55,6.55,0,0,1,4.66,2.21A6.37,6.37,0,0,1,329.87,31a6.73,6.73,0,0,1-13.45-.73,6.4,6.4,0,0,1,2.2-4.61A6.51,6.51,0,0,1,323.49,24ZM323,25.4a2.39,2.39,0,0,0-2.24,1.23,6.4,6.4,0,0,0-.95,3.18,8.66,8.66,0,0,0,.74,4.24A3,3,0,0,0,323.17,36a2.42,2.42,0,0,0,2.26-1.25,6.32,6.32,0,0,0,1-3.16,10.22,10.22,0,0,0-.23-2.89A5.24,5.24,0,0,0,325,26.4,2.76,2.76,0,0,0,323,25.4Z"/><path class="cls-1" d="M341.84,25q3.83.21,3.5,6.29l-.15,2.82a12.39,12.39,0,0,0,.06,2.68q0,.21.79.47a4.5,4.5,0,0,0,1,.28c.06,0,.09.15.08.44a1.73,1.73,0,0,1-.08.58q-.18,0-1.55-.2t-2.06-.2q-.71,0-2,0l-1.54,0a.87.87,0,0,1-.09-.57c0-.3.06-.44.14-.44a3.55,3.55,0,0,0,1-.17c.45-.12.7-.25.75-.39a8.47,8.47,0,0,0,.36-2.15l.15-2.82a6.46,6.46,0,0,0-.48-3.48,2.39,2.39,0,0,0-2.07-1.1,2.75,2.75,0,0,0-1.69.43,1.43,1.43,0,0,0-.77,1.07L337,33.69a12.55,12.55,0,0,0,.06,2.68q0,.21.76.47a4.19,4.19,0,0,0,1,.28c.08,0,.12.15.11.44a1.75,1.75,0,0,1-.07.58l-1.55-.2q-1.32-.16-2-.2t-2.07,0l-1.59,0a.87.87,0,0,1-.09-.57c0-.3.06-.44.14-.44a4.12,4.12,0,0,0,1.1-.16q.74-.18.81-.39a9.73,9.73,0,0,0,.33-2.16l.26-4.84a2.83,2.83,0,0,0-.37-1.93,1.43,1.43,0,0,0-.64-.48,3.37,3.37,0,0,0-.7-.22c-.19,0-.28-.06-.28-.1,0-.57.1-.87.2-.88a42.15,42.15,0,0,0,4.83-.63l.08,0h.16c.08,0,.14.08.2.22a.9.9,0,0,1,.07.33,10,10,0,0,0-.18,1.06.24.24,0,0,0,0,.15.44.44,0,0,0,.15-.08,6.63,6.63,0,0,1,1.89-1.15A5.19,5.19,0,0,1,341.84,25Z"/><path class="cls-1" d="M363,26.18a6.55,6.55,0,0,1,4.66,2.2,6.38,6.38,0,0,1,1.72,4.81,6.73,6.73,0,0,1-13.45-.74,6.4,6.4,0,0,1,2.2-4.61A6.52,6.52,0,0,1,363,26.18Zm-.46,1.37a2.39,2.39,0,0,0-2.24,1.23,6.39,6.39,0,0,0-.95,3.18,8.66,8.66,0,0,0,.74,4.24,3,3,0,0,0,2.59,1.93,2.42,2.42,0,0,0,2.26-1.25,6.32,6.32,0,0,0,1-3.16,10.19,10.19,0,0,0-.23-2.89,5.23,5.23,0,0,0-1.12-2.28A2.75,2.75,0,0,0,362.53,27.56Z"/><path class="cls-1" d="M381.35,27.19q3.83.21,3.5,6.29l-.15,2.82a12.39,12.39,0,0,0,.06,2.68q0,.21.79.47a4.51,4.51,0,0,0,1,.28c.06,0,.09.15.08.44a1.73,1.73,0,0,1-.08.58q-.18,0-1.55-.2t-2.06-.2q-.71,0-2,0l-1.54,0a.87.87,0,0,1-.09-.57c0-.3.06-.44.14-.44a3.55,3.55,0,0,0,1-.17c.45-.12.7-.25.75-.39a8.48,8.48,0,0,0,.36-2.15l.15-2.82a6.46,6.46,0,0,0-.48-3.48,2.39,2.39,0,0,0-2.07-1.1,2.76,2.76,0,0,0-1.69.43,1.43,1.43,0,0,0-.77,1.07l-.28,5.11a12.45,12.45,0,0,0,.06,2.68q0,.21.76.47a4.24,4.24,0,0,0,1,.28c.08,0,.12.15.11.44a1.72,1.72,0,0,1-.08.58l-1.55-.2q-1.32-.16-2-.2c-.48,0-1.16,0-2.07,0l-1.6,0a.88.88,0,0,1-.09-.57c0-.3.06-.44.14-.44a4.11,4.11,0,0,0,1.1-.16q.74-.18.81-.39a9.67,9.67,0,0,0,.33-2.16l.26-4.84a2.83,2.83,0,0,0-.37-1.93,1.45,1.45,0,0,0-.64-.48,3.39,3.39,0,0,0-.7-.22c-.19,0-.28-.06-.28-.1,0-.57.1-.87.2-.88a41.88,41.88,0,0,0,4.83-.63l.08,0h.16q.12,0,.2.22a.89.89,0,0,1,.07.33,10,10,0,0,0-.18,1.06.24.24,0,0,0,0,.15.46.46,0,0,0,.15-.08A6.62,6.62,0,0,1,379,27.6,5.21,5.21,0,0,1,381.35,27.19Z"/><path class="cls-1" d="M32.23,49.77l-1.81-.06c-.14,0-.2-.26-.18-.78a.76.76,0,0,1,0-.27,8.32,8.32,0,0,0,2.34-1.49l.88-.85q.48-.47,1.13-1.22a2.14,2.14,0,0,1,.56.09c.18.06.26.11.26.17l-.1,2.91,2.15.09,1.47.07c.16,0,.24.1.23.28a2.89,2.89,0,0,1-.34,1.3l-3.57-.13L35,57a2.82,2.82,0,0,0,.44,1.83,1.7,1.7,0,0,0,1.37.67,2.77,2.77,0,0,0,.63-.05,3.07,3.07,0,0,0,.54-.14l.39-.16.21-.08c.08,0,.17.08.26.28a.69.69,0,0,1,.11.39,2.72,2.72,0,0,1-1.3.92,4.68,4.68,0,0,1-2.14.47A3.75,3.75,0,0,1,33,60.07,4,4,0,0,1,32,57Z"/><path class="cls-1" d="M51,48.35q3.8.14,3.59,6l-.11,3.06a10.86,10.86,0,0,0,.14,2.68q0,.21.77.46a4.52,4.52,0,0,0,1,.26c.06,0,.09.15.09.44a3,3,0,0,1,0,.58l-1.58-.18q-1.38-.14-2-.16t-2,0l-1.56.06a1.11,1.11,0,0,1-.07-.57c0-.3,0-.44.1-.44a3.59,3.59,0,0,0,1-.19q.68-.2.77-.4a11.2,11.2,0,0,0,.26-2.16l.1-2.91a6.2,6.2,0,0,0-.55-3.43,2.43,2.43,0,0,0-2.09-1,2.84,2.84,0,0,0-1.65.45,1.4,1.4,0,0,0-.78,1.1l-.18,5.11a10.86,10.86,0,0,0,.14,2.68q.05.21.77.46a4.16,4.16,0,0,0,1,.26c.06,0,.09.15.09.43a1.65,1.65,0,0,1-.07.58l-1.55-.17q-1.32-.14-2-.16t-2.07,0l-1.59.06a.87.87,0,0,1-.1-.57c0-.3.05-.44.13-.44a4.15,4.15,0,0,0,1.09-.18c.49-.13.76-.27.8-.4a9.57,9.57,0,0,0,.28-2.13l.44-12.36a11.62,11.62,0,0,0-.08-2q-.13-.48-1.53-.53h-.27c-.12,0-.17-.16-.16-.48s.08-.47.19-.47q.92-.06,1.76-.17c.56-.08,1-.16,1.39-.25s.69-.17,1-.26l.86-.27h.06a.32.32,0,0,1,.23.17.82.82,0,0,1,.14.32A9.62,9.62,0,0,0,46.69,44l-.21,6c0,.12,0,.18.11.18s.06,0,.12-.08a5.64,5.64,0,0,1,1.87-1.23A5.48,5.48,0,0,1,51,48.35Z"/><path class="cls-1" d="M64.85,48.85a5.53,5.53,0,0,1,2.48.64A4.73,4.73,0,0,1,69,50.94a6.93,6.93,0,0,1,.89,1.79,5.08,5.08,0,0,1,.26,1.75c0,.44-.1.71-.25.81a1.68,1.68,0,0,1-.91.13l-7.1-.25c-.14,0-.21.05-.21.17A5.78,5.78,0,0,0,62,57.43a4.09,4.09,0,0,0,1.26,1.8,3.5,3.5,0,0,0,2.22.82,8.12,8.12,0,0,0,.86,0,4.37,4.37,0,0,0,.78-.12l.63-.17a2.56,2.56,0,0,0,.56-.25l.41-.24.61-.38a.49.49,0,0,1,.14.18.57.57,0,0,1,.08.3.91.91,0,0,1-.2.56,4.85,4.85,0,0,1-1.81,1.54,5.51,5.51,0,0,1-3,.7,6,6,0,0,1-4.39-2.07,6.41,6.41,0,0,1-1.71-4.72,6.88,6.88,0,0,1,1.91-4.81A5.76,5.76,0,0,1,64.85,48.85Zm-.26,1.36a2.11,2.11,0,0,0-1.29.37,2.79,2.79,0,0,0-.9,1,5.72,5.72,0,0,0-.47,1.1,3.7,3.7,0,0,0-.17.87c0,.14.05.21.17.21l4.81.17c.18,0,.27-.14.28-.44a3.85,3.85,0,0,0-.62-2.13A2.13,2.13,0,0,0,64.6,50.21Z"/><path class="cls-1" d="M86.64,49.65A6,6,0,0,1,90,50.75a6.23,6.23,0,0,1,2.72,5.39A7,7,0,0,1,85.48,63a6.91,6.91,0,0,1-2.09-.49c-.08,0-.12.13-.13.41l-.07,2a10.71,10.71,0,0,0,.14,2.68q0,.24.77.49a4.53,4.53,0,0,0,1,.26c.06,0,.09.15.09.43a2.7,2.7,0,0,1,0,.55l-1.59-.15q-1.38-.14-2-.16t-2.1,0l-1.59,0a1.06,1.06,0,0,1-.07-.55c0-.29,0-.43.1-.43A4.17,4.17,0,0,0,79,67.9c.49-.13.77-.27.83-.43a10.92,10.92,0,0,0,.25-2.13L80.48,54A2.88,2.88,0,0,0,80.07,52a1.34,1.34,0,0,0-.64-.45,3.57,3.57,0,0,0-.71-.19c-.2,0-.3-.06-.29-.1q0-.86.21-.89a22.77,22.77,0,0,0,4.46-.67l.57-.13q.12,0,.1.63a1.6,1.6,0,0,1-.07.35A6,6,0,0,1,85,49.94,4.28,4.28,0,0,1,86.64,49.65Zm-.77,1.55a2.24,2.24,0,0,0-1.61.51,2,2,0,0,0-.66,1.49l-.22,6.12a1.83,1.83,0,0,0,.75,1.59,2.89,2.89,0,0,0,1.7.64,2.79,2.79,0,0,0,2.35-1.17,5.75,5.75,0,0,0,1.06-3.47,7.68,7.68,0,0,0-.81-4A2.93,2.93,0,0,0,85.87,51.2Z"/><path class="cls-1" d="M101.59,50.16a6.56,6.56,0,0,1,4.7,2.12,6.38,6.38,0,0,1,1.81,4.78,6.73,6.73,0,0,1-13.46-.48,6.4,6.4,0,0,1,2.11-4.65A6.51,6.51,0,0,1,101.59,50.16Zm-.44,1.38a2.39,2.39,0,0,0-2.22,1.27,6.38,6.38,0,0,0-.89,3.2,8.65,8.65,0,0,0,.82,4.22,3,3,0,0,0,2.62,1.88,2.42,2.42,0,0,0,2.23-1.29,6.33,6.33,0,0,0,.9-3.18,10.2,10.2,0,0,0-.28-2.88,5.23,5.23,0,0,0-1.17-2.26A2.75,2.75,0,0,0,101.16,51.54Z"/><path class="cls-1" d="M128.79,53.39a.86.86,0,0,0-.21-.62,1.32,1.32,0,0,0-.6-.38,5.45,5.45,0,0,0-.68-.17,4.13,4.13,0,0,0-.61-.07h-.12c-.08,0-.12-.15-.12-.45s0-.47.09-.53c.26,0,.78.06,1.57.15s1.42.14,1.9.16.95,0,1.59,0,1.12,0,1.42,0a1.89,1.89,0,0,1,0,.51c0,.3-.06.44-.13.44a3.37,3.37,0,0,0-1.19.33,1.82,1.82,0,0,0-1.06.87l-4.77,10.33a1.18,1.18,0,0,1-.42.42,1,1,0,0,1-.59.17.37.37,0,0,1-.38-.22l-3.33-8.33-3.46,7.64a1.62,1.62,0,0,1-.36.4.89.89,0,0,1-.65.21.44.44,0,0,1-.41-.22q-.63-1.57-1.48-3.82t-1.57-4q-.71-1.72-1.65-3.75a1.37,1.37,0,0,0-.75-.62,2.86,2.86,0,0,0-.94-.24q-.12,0-.1-.48t.14-.5q.3,0,1.5.14t1.88.16q.68,0,2,0l1.55,0a1.65,1.65,0,0,1,0,.54c0,.26,0,.39-.1.41a3.51,3.51,0,0,0-1,.17c-.43.12-.65.32-.66.6q0,.06,2.73,6.94.35-.82.83-1.86l.71-1.58.49-1.1q.24-.56.34-.83a1.67,1.67,0,0,0,.1-.37,2.16,2.16,0,0,0-.34-1.2,1.41,1.41,0,0,0-.64-.5,2.35,2.35,0,0,0-1.06-.22c-.08,0-.11-.15-.1-.43s.05-.46.14-.52.71.05,1.47.14,1.38.14,1.85.16,1.08,0,1.93,0l1.52,0a1.43,1.43,0,0,1,0,.55c0,.29-.06.43-.12.43q-1.51-.05-1.55,1a47.67,47.67,0,0,0,2.56,6.7q.52-1.23,1.28-2.88t1.11-2.46A3.94,3.94,0,0,0,128.79,53.39Z"/><path class="cls-1" d="M140.86,51.56a5.52,5.52,0,0,1,2.48.64A4.73,4.73,0,0,1,145,53.65a6.87,6.87,0,0,1,.89,1.79,5.08,5.08,0,0,1,.26,1.75q0,.65-.25.81a1.7,1.7,0,0,1-.91.13l-7.1-.25c-.14,0-.21.05-.21.17a5.8,5.8,0,0,0,.31,2.09,4.08,4.08,0,0,0,1.26,1.8,3.5,3.5,0,0,0,2.22.82,8.13,8.13,0,0,0,.86,0,4.47,4.47,0,0,0,.78-.12l.63-.17a2.51,2.51,0,0,0,.56-.25l.41-.24.61-.38a.49.49,0,0,1,.14.18.57.57,0,0,1,.08.3.9.9,0,0,1-.2.56,4.85,4.85,0,0,1-1.81,1.54,5.51,5.51,0,0,1-3,.7,6,6,0,0,1-4.39-2.08,6.41,6.41,0,0,1-1.71-4.72,6.87,6.87,0,0,1,1.91-4.81A5.76,5.76,0,0,1,140.86,51.56Zm-.26,1.36a2.1,2.1,0,0,0-1.29.37,2.8,2.8,0,0,0-.9,1,5.71,5.71,0,0,0-.47,1.1,3.7,3.7,0,0,0-.17.87c0,.14.05.21.17.21l4.81.17c.18,0,.27-.14.28-.44a3.86,3.86,0,0,0-.62-2.13A2.13,2.13,0,0,0,140.6,52.92Z"/><path class="cls-1" d="M156.73,52.12a3,3,0,0,1,2.4,1.07q-.09,2.53-1.52,2.47a1.77,1.77,0,0,1-1.14-.64,1.87,1.87,0,0,0-1.26-.64,1.59,1.59,0,0,0-1.47.88,4,4,0,0,0-.59,1.93L153,60.91a12.41,12.41,0,0,0,.11,2.68c0,.14.29.29.77.46a4.28,4.28,0,0,0,1,.26c.06,0,.09.15.09.43a3,3,0,0,1,0,.58l-1.57-.18q-1.33-.14-2-.16t-2.07,0l-1.59.06a.88.88,0,0,1-.1-.57c0-.3.06-.44.13-.44a4.13,4.13,0,0,0,1.09-.18q.74-.2.8-.4a9.69,9.69,0,0,0,.29-2.16l.17-4.84a2.83,2.83,0,0,0-.41-1.92,1.43,1.43,0,0,0-.65-.47,3.34,3.34,0,0,0-.71-.2c-.19,0-.28-.06-.28-.1q0-.86.18-.89a42.32,42.32,0,0,0,4.82-.72l.24-.05c.08,0,.15.08.2.21a.72.72,0,0,1,.06.34l-.06.41q0,.28-.09.59a3.58,3.58,0,0,0-.06.4,5.43,5.43,0,0,1,1.51-1.39A3.25,3.25,0,0,1,156.73,52.12Z"/><path class="cls-1" d="M174.33,52.75a6.55,6.55,0,0,1,4.7,2.12,6.37,6.37,0,0,1,1.81,4.78,6.73,6.73,0,0,1-13.46-.48,6.4,6.4,0,0,1,2.11-4.65A6.51,6.51,0,0,1,174.33,52.75Zm-.44,1.38a2.39,2.39,0,0,0-2.22,1.27,6.38,6.38,0,0,0-.89,3.2,8.65,8.65,0,0,0,.82,4.22,3,3,0,0,0,2.63,1.88,2.42,2.42,0,0,0,2.23-1.29,6.32,6.32,0,0,0,.9-3.18,10.2,10.2,0,0,0-.28-2.88,5.24,5.24,0,0,0-1.17-2.26A2.76,2.76,0,0,0,173.89,54.13Z"/><path class="cls-1" d="M191.72,45.84a5.88,5.88,0,0,1,2.05.38,2.08,2.08,0,0,1,1.06.8,3.32,3.32,0,0,1-.22,1.64,1.07,1.07,0,0,1-1.11.69,1.16,1.16,0,0,1-.89-.52q-.38-.51-.81-1a1.36,1.36,0,0,0-1-.53,1.58,1.58,0,0,0-1.36.72,5,5,0,0,0-.82,1.84,12.14,12.14,0,0,0-.31,2.4l0,1.37s0,0,.06.09a.17.17,0,0,0,.12.06l3.27.12a.26.26,0,0,1,.15,0,.32.32,0,0,1,0,.18,3.07,3.07,0,0,1-.41,1.35l-3.09-.11a.16.16,0,0,0-.19.17l-.24,6.63a11.31,11.31,0,0,0,.14,2.68c0,.14.29.29.77.46a4.28,4.28,0,0,0,1,.26c.06,0,.09.15.09.43a1.65,1.65,0,0,1-.07.58c-.12,0-.63-.08-1.54-.17s-1.6-.15-2.08-.16-1.15,0-2,0l-1.55.06a.56.56,0,0,1-.11-.33,1.85,1.85,0,0,1,0-.46c0-.15.07-.22.13-.22a4,4,0,0,0,1-.19q.72-.2.79-.4a9.86,9.86,0,0,0,.35-2.43l.24-6.83c0-.14-.05-.21-.17-.21l-1.78-.06s-.06-.06-.05-.18a1.6,1.6,0,0,1,.45-.85,1.2,1.2,0,0,1,1-.5l.48,0a.16.16,0,0,0,.19-.17v-.3a8.09,8.09,0,0,1,2-5.28A5.56,5.56,0,0,1,191.72,45.84Z"/><path class="cls-1" d="M205.14,62.77a10.87,10.87,0,0,0,.14,2.68q.05.21.79.46a4.35,4.35,0,0,0,1,.26c.08,0,.12.15.12.44a1.65,1.65,0,0,1-.07.58L205.54,67q-1.38-.14-2-.16c-.5,0-1.19,0-2.1,0l-1.56.06a.87.87,0,0,1-.1-.57c0-.3.06-.44.13-.44a4.29,4.29,0,0,0,1.08-.18q.75-.2.82-.4a9.67,9.67,0,0,0,.29-2.16l.17-4.84a2.82,2.82,0,0,0-.41-1.92,1.65,1.65,0,0,0-.67-.47,3.14,3.14,0,0,0-.71-.2c-.2,0-.29-.06-.29-.1q0-.86.21-.88a22.69,22.69,0,0,0,2.42-.27,23.48,23.48,0,0,0,2.37-.45l.24-.05c.1,0,.17.08.23.22a.55.55,0,0,1,0,.33,25.39,25.39,0,0,0-.33,2.55Zm-2.65-12.54A1.81,1.81,0,0,1,202,48.9a1.76,1.76,0,0,1,.58-1.27,1.84,1.84,0,0,1,3.1,1.4,1.81,1.81,0,0,1-.58,1.29,1.83,1.83,0,0,1-2.61-.09Z"/><path class="cls-1" d="M219.1,54.35q3.83.14,3.62,6.23l-.1,2.82a12.32,12.32,0,0,0,.11,2.68c0,.14.3.29.8.46a4.55,4.55,0,0,0,1,.26c.06,0,.09.15.09.43a1.7,1.7,0,0,1-.07.58c-.12,0-.64-.08-1.55-.17s-1.61-.15-2.06-.16-1.13,0-2,0l-1.54.06a.87.87,0,0,1-.1-.57c0-.3.05-.44.13-.44a3.56,3.56,0,0,0,1-.19c.45-.13.7-.27.74-.41a8.52,8.52,0,0,0,.31-2.16l.1-2.82a6.45,6.45,0,0,0-.54-3.47A2.39,2.39,0,0,0,217,56.44a2.75,2.75,0,0,0-1.68.46,1.43,1.43,0,0,0-.75,1.09l-.18,5.11a12.4,12.4,0,0,0,.11,2.68c0,.14.29.29.77.46a4.29,4.29,0,0,0,1,.26c.08,0,.12.15.12.44a1.69,1.69,0,0,1-.06.58l-1.56-.17q-1.32-.14-2-.16t-2.07,0l-1.59.06a.87.87,0,0,1-.1-.57c0-.3.06-.44.13-.44a4.18,4.18,0,0,0,1.09-.18q.74-.2.8-.4a9.69,9.69,0,0,0,.29-2.16l.17-4.84a2.83,2.83,0,0,0-.41-1.92,1.43,1.43,0,0,0-.65-.47,3.43,3.43,0,0,0-.71-.2c-.19,0-.28-.06-.28-.1q0-.86.18-.89a41.86,41.86,0,0,0,4.82-.72l.08,0h.16c.08,0,.15.08.2.21a.9.9,0,0,1,.08.33,10.1,10.1,0,0,0-.16,1.07.23.23,0,0,0,0,.15.44.44,0,0,0,.15-.08,6.58,6.58,0,0,1,1.87-1.18A5.21,5.21,0,0,1,219.1,54.35Z"/><path class="cls-1" d="M237.94,56.89q-.36-.81-2.05-.88c-.06,0-.08-.14-.07-.42a1,1,0,0,1,.11-.53q.42,0,1.44.14t1.69.15q.67,0,1.74,0t1.46,0a.86.86,0,0,1,.07.48q0,.47-.2.47a3.52,3.52,0,0,0-1.17.24,1.72,1.72,0,0,0-1,.81L234.58,67.6a2,2,0,0,1-.41.49.75.75,0,0,1-.51.25c-.2,0-.32-.07-.35-.19q-.54-1.36-1.49-3.76t-1.62-4.06q-.69-1.66-1.56-3.74-.33-.85-1.9-.9-.12,0-.1-.48a.69.69,0,0,1,.14-.47c.18,0,.7.05,1.57.14s1.54.14,2,.16,1.16,0,2.05,0L234,55a1,1,0,0,1,.05.54c0,.28-.07.41-.15.41a4.38,4.38,0,0,0-1.06.14c-.45.1-.68.25-.69.45a.55.55,0,0,0,0,.3l2.7,6.94L237.75,58Q238.13,57.23,237.94,56.89Z"/><path class="cls-1" d="M249,64.33A10.88,10.88,0,0,0,249.1,67q.05.21.79.46a4.35,4.35,0,0,0,1,.26c.08,0,.12.15.12.44a1.65,1.65,0,0,1-.07.58c-.14,0-.67-.08-1.58-.18s-1.6-.15-2-.16-1.19,0-2.1,0l-1.56.06a.87.87,0,0,1-.1-.57c0-.3.06-.44.13-.44a4.31,4.31,0,0,0,1.08-.18c.5-.13.77-.26.82-.4a9.68,9.68,0,0,0,.29-2.16l.17-4.84a2.83,2.83,0,0,0-.41-1.92,1.65,1.65,0,0,0-.67-.47,3.2,3.2,0,0,0-.71-.2q-.29,0-.29-.1,0-.86.21-.88A22.68,22.68,0,0,0,246.6,56a23.09,23.09,0,0,0,2.37-.45l.24-.05c.1,0,.17.08.23.22a.55.55,0,0,1,0,.33,25.43,25.43,0,0,0-.33,2.55Zm-2.65-12.54a1.81,1.81,0,0,1-.49-1.33,1.84,1.84,0,0,1,3.68.13,1.81,1.81,0,0,1-.58,1.29,1.83,1.83,0,0,1-2.62-.09Z"/><path class="cls-1" d="M258,55.7a12.65,12.65,0,0,1,3.43.63,16.8,16.8,0,0,1,.21,3.34c0,.16-.14.23-.4.22-.43,0-.67-.1-.7-.26a3.61,3.61,0,0,0-.81-1.8A2.33,2.33,0,0,0,258,57a2.13,2.13,0,0,0-1.37.34,1.32,1.32,0,0,0-.53,1.08,1.74,1.74,0,0,0,.14.76,1.84,1.84,0,0,0,.51.66,7.35,7.35,0,0,0,.64.5c.18.13.46.29.83.51a1.92,1.92,0,0,0,.29.16l.44.25.48.29.46.3a5.49,5.49,0,0,1,.51.36l.45.37a2.34,2.34,0,0,1,.43.43l.34.47a1.92,1.92,0,0,1,.29.55,5.75,5.75,0,0,1,.14.57,2.76,2.76,0,0,1,.05.64,3.5,3.5,0,0,1-1.55,2.9,5.64,5.64,0,0,1-3.53,1,9.94,9.94,0,0,1-3.8-1,11.79,11.79,0,0,1-.24-1.66,14.48,14.48,0,0,1-.09-1.71.63.63,0,0,1,.42-.13c.46,0,.69.1.7.26a3.29,3.29,0,0,0,1.1,2,3.17,3.17,0,0,0,2,.83,2.16,2.16,0,0,0,1.38-.37,1.45,1.45,0,0,0,.58-1.2,2,2,0,0,0-.05-.55,1.48,1.48,0,0,0-.26-.51l-.33-.43a2.14,2.14,0,0,0-.52-.42l-.58-.36-.73-.41-.74-.43a6.91,6.91,0,0,1-2.05-1.66,3.43,3.43,0,0,1,.86-4.89A5.73,5.73,0,0,1,258,55.7Z"/><path class="cls-1" d="M269.35,65.06a10.87,10.87,0,0,0,.14,2.68q.05.21.79.46a4.42,4.42,0,0,0,1,.26c.08,0,.12.15.12.44a1.65,1.65,0,0,1-.07.58l-1.58-.17q-1.38-.14-2-.16c-.5,0-1.19,0-2.1,0l-1.56.06a.88.88,0,0,1-.1-.57c0-.3.06-.44.13-.44a4.3,4.3,0,0,0,1.08-.18q.75-.2.82-.4a9.67,9.67,0,0,0,.29-2.16l.17-4.84A2.82,2.82,0,0,0,266,58.7a1.65,1.65,0,0,0-.67-.47,3.14,3.14,0,0,0-.71-.2c-.2,0-.29-.06-.29-.1q0-.86.21-.89a22.69,22.69,0,0,0,2.42-.27,23.15,23.15,0,0,0,2.37-.45l.24-.05c.1,0,.17.08.23.22a.55.55,0,0,1,0,.33,25.39,25.39,0,0,0-.33,2.55ZM266.7,52.52a1.81,1.81,0,0,1-.49-1.33,1.76,1.76,0,0,1,.58-1.27,1.84,1.84,0,0,1,3.1,1.4,1.81,1.81,0,0,1-.58,1.29,1.83,1.83,0,0,1-2.61-.09Z"/><path class="cls-1" d="M281.17,56.56a6,6,0,0,1,3.28,1.05,6.24,6.24,0,0,1,2.14,2.46,6.33,6.33,0,0,1,.65,3A6.79,6.79,0,0,1,285,68a6.55,6.55,0,0,1-4.84,1.89,9.33,9.33,0,0,1-2.16-.3,6.44,6.44,0,0,0-1.39-.27,2.24,2.24,0,0,0-.78.18,2.94,2.94,0,0,1-.6.19,1.41,1.41,0,0,1-.42-.19c-.22-.13-.33-.23-.33-.31s0-.24.08-.53.11-.72.19-1.27a17.13,17.13,0,0,0,.15-1.81l.43-12.12a10.49,10.49,0,0,0-.1-2c-.09-.32-.6-.5-1.53-.53h-.27q-.18,0-.16-.48t.2-.47q.92-.06,1.76-.18t1.39-.25q.55-.13,1-.26l.86-.27h.06c.08,0,.16.06.23.17a.82.82,0,0,1,.14.32,10.4,10.4,0,0,0-.43,2.78L278.27,57v0c0,.06,0,.1,0,.13a.92.92,0,0,0,0,.13q0,.09.06.09l.1,0a5.44,5.44,0,0,1,1.23-.55A4.25,4.25,0,0,1,281.17,56.56Zm-.71,1.58a2.3,2.3,0,0,0-1.62.51,1.75,1.75,0,0,0-.67,1.31l-.22,6.3a1.78,1.78,0,0,0,.73,1.6,3.22,3.22,0,0,0,1.84.6,2.53,2.53,0,0,0,2.38-1.31,6.81,6.81,0,0,0,.91-3.36,7.63,7.63,0,0,0-.78-4.07A2.91,2.91,0,0,0,280.46,58.14Z"/><path class="cls-1" d="M294.35,65.89a12.18,12.18,0,0,0,.11,2.68q.05.21.71.49a3.26,3.26,0,0,0,.9.29c.06,0,.09.14.09.42a1.62,1.62,0,0,1-.06.56L295,70.21l-1.26-.12L292.66,70c-.38,0-.75,0-1.13,0l-1.25,0-1.13,0a.84.84,0,0,1-.1-.55c0-.29.05-.43.13-.43a3.18,3.18,0,0,0,1-.22q.68-.23.74-.43a9.81,9.81,0,0,0,.32-2.19l.44-12.36a10.32,10.32,0,0,0-.11-2q-.13-.48-1.47-.53h-.3c-.12,0-.17-.12-.17-.36s.08-.47.2-.47c.62,0,1.2-.1,1.76-.18s1-.16,1.39-.25.69-.17,1-.25l.65-.2.21-.08h.06c.08,0,.16.06.25.19a.9.9,0,0,1,.15.3,9.37,9.37,0,0,0-.46,2.78Z"/><path class="cls-1" d="M303.54,66.28a10.88,10.88,0,0,0,.14,2.68q.05.21.79.46a4.43,4.43,0,0,0,1,.26c.08,0,.12.15.12.44a1.65,1.65,0,0,1-.07.58l-1.58-.17q-1.38-.14-2-.16c-.5,0-1.19,0-2.1,0l-1.56.06a.88.88,0,0,1-.1-.57c0-.3.06-.44.13-.44a4.29,4.29,0,0,0,1.08-.18q.75-.2.82-.4a9.69,9.69,0,0,0,.29-2.16l.17-4.84a2.83,2.83,0,0,0-.41-1.92,1.64,1.64,0,0,0-.67-.47,3.09,3.09,0,0,0-.71-.2c-.2,0-.29-.06-.29-.1q0-.86.21-.89a22.86,22.86,0,0,0,2.42-.27,23.4,23.4,0,0,0,2.37-.45l.24-.05c.1,0,.17.08.23.22a.55.55,0,0,1,0,.33,25.39,25.39,0,0,0-.33,2.55Zm-2.65-12.54a1.81,1.81,0,0,1-.49-1.33,1.76,1.76,0,0,1,.58-1.27,1.87,1.87,0,0,1,2.61.09,1.76,1.76,0,0,1,.49,1.31,1.81,1.81,0,0,1-.58,1.29,1.83,1.83,0,0,1-2.61-.09Z"/><path class="cls-1" d="M309.43,59.65l-1.81-.06c-.14,0-.2-.27-.18-.78a.76.76,0,0,1,0-.27A8.32,8.32,0,0,0,309.82,57l.88-.85q.48-.47,1.13-1.22a2.1,2.1,0,0,1,.56.09c.18.06.26.11.26.17l-.1,2.91,2.15.09,1.47.07c.16,0,.24.1.23.28a2.89,2.89,0,0,1-.34,1.3l-3.57-.13-.25,7.16a2.82,2.82,0,0,0,.44,1.83,1.7,1.7,0,0,0,1.37.67,2.81,2.81,0,0,0,.63-.05,3.11,3.11,0,0,0,.54-.14l.39-.16.21-.08c.08,0,.17.08.26.28a.7.7,0,0,1,.1.39,2.71,2.71,0,0,1-1.3.92,4.68,4.68,0,0,1-2.14.47A3.75,3.75,0,0,1,310.15,70a4,4,0,0,1-1-3.11Z"/><path class="cls-1" d="M321.65,58.3q.65,0,1.88,0t1.52,0a2,2,0,0,1,0,.54c0,.28-.05.42-.13.41a3.23,3.23,0,0,0-.94.19q-.65.2-.69.47V60q0,.48,2.52,6.87.26-.53,1.26-2.88t1.17-2.71a2.8,2.8,0,0,0,.21-.92.94.94,0,0,0-.45-.74,2.43,2.43,0,0,0-1.41-.39c-.08,0-.11-.15-.1-.45a.75.75,0,0,1,.14-.5q.36,0,1.45.14t1.81.15q.62,0,1.53,0t1.33,0a.86.86,0,0,1,.1.48c0,.32-.06.47-.13.47a3.75,3.75,0,0,0-1.21.25,1.65,1.65,0,0,0-1.06.85l-5.9,12.94q-2,4.27-4.58,4.18a1.61,1.61,0,0,1-1.17-.46,1.39,1.39,0,0,1,.22-2.1q3.09.11,4.16-2.29l.87-2-4-10.26a3.77,3.77,0,0,0-.33-.7,1.78,1.78,0,0,0-.85-.7,2.81,2.81,0,0,0-1-.26c-.08,0-.11-.14-.1-.42s0-.49.11-.53l1.59.15Q320.94,58.27,321.65,58.3Z"/><path class="cls-1" d="M345.84,67.79a10.88,10.88,0,0,0,.14,2.68q.05.21.79.46a4.35,4.35,0,0,0,1,.26c.08,0,.12.15.12.44a1.65,1.65,0,0,1-.07.58L346.24,72q-1.38-.14-2-.16t-2.1,0l-1.56.06a.87.87,0,0,1-.1-.57c0-.3.06-.44.13-.44a4.31,4.31,0,0,0,1.08-.18c.5-.13.77-.26.82-.4a9.68,9.68,0,0,0,.29-2.16l.17-4.84a2.83,2.83,0,0,0-.41-1.92,1.64,1.64,0,0,0-.67-.47,3.14,3.14,0,0,0-.71-.2c-.2,0-.29-.06-.29-.1q0-.86.21-.88a31.4,31.4,0,0,0,4.78-.72l.24-.05c.1,0,.17.08.23.22a.54.54,0,0,1,0,.33,25.43,25.43,0,0,0-.33,2.55Zm-2.65-12.54a1.81,1.81,0,0,1-.49-1.33,1.76,1.76,0,0,1,.58-1.27,1.87,1.87,0,0,1,2.62.09,1.76,1.76,0,0,1,.49,1.31,1.81,1.81,0,0,1-.58,1.29,1.83,1.83,0,0,1-2.62-.09Z"/><path class="cls-1" d="M359.8,59.36q3.83.14,3.62,6.23l-.1,2.82a12.33,12.33,0,0,0,.11,2.68q.05.21.8.46a4.55,4.55,0,0,0,1,.26c.06,0,.09.15.09.43a1.73,1.73,0,0,1-.06.58c-.12,0-.64-.08-1.55-.17s-1.61-.15-2.06-.16-1.13,0-2,0l-1.54.06A.87.87,0,0,1,358,72c0-.3.05-.44.13-.44a3.56,3.56,0,0,0,1-.19q.68-.2.74-.41a8.48,8.48,0,0,0,.32-2.16l.1-2.82a6.45,6.45,0,0,0-.55-3.47,2.39,2.39,0,0,0-2.09-1.06,2.74,2.74,0,0,0-1.68.46,1.43,1.43,0,0,0-.75,1.09l-.18,5.11a12.4,12.4,0,0,0,.11,2.68q.05.21.77.46a4.3,4.3,0,0,0,1,.26c.08,0,.12.15.12.44a1.69,1.69,0,0,1-.06.58l-1.56-.17q-1.32-.14-2-.16t-2.07,0l-1.59.06a.87.87,0,0,1-.1-.57c0-.3.06-.44.13-.44a4.14,4.14,0,0,0,1.09-.18c.49-.13.76-.27.8-.4a9.67,9.67,0,0,0,.29-2.16l.17-4.84a2.83,2.83,0,0,0-.41-1.92,1.43,1.43,0,0,0-.65-.47,3.43,3.43,0,0,0-.71-.2q-.28,0-.28-.1c0-.57.08-.87.18-.89a42.28,42.28,0,0,0,4.81-.72l.08,0h.16c.08,0,.15.07.2.21a.9.9,0,0,1,.08.33,10.06,10.06,0,0,0-.16,1.07.23.23,0,0,0,0,.15.45.45,0,0,0,.15-.08,6.61,6.61,0,0,1,1.87-1.18A5.2,5.2,0,0,1,359.8,59.36Z"/><path class="cls-1" d="M379.1,60a12.67,12.67,0,0,1,3.43.63,16.89,16.89,0,0,1,.21,3.34q0,.24-.39.22c-.44,0-.67-.1-.7-.26a3.62,3.62,0,0,0-.81-1.8,2.33,2.33,0,0,0-1.77-.79,2.12,2.12,0,0,0-1.37.34,1.32,1.32,0,0,0-.53,1.08,1.74,1.74,0,0,0,.14.76,1.86,1.86,0,0,0,.51.66,7,7,0,0,0,.64.5c.18.13.46.29.83.51a1.91,1.91,0,0,0,.29.16l.44.25.48.28.46.3a5.34,5.34,0,0,1,.51.36l.45.37a2.35,2.35,0,0,1,.43.43l.34.47a1.94,1.94,0,0,1,.29.55,5.84,5.84,0,0,1,.14.57,2.76,2.76,0,0,1,.05.64,3.5,3.5,0,0,1-1.55,2.91,5.64,5.64,0,0,1-3.53,1,9.9,9.9,0,0,1-3.8-1,11.74,11.74,0,0,1-.24-1.66,14.49,14.49,0,0,1-.09-1.71.63.63,0,0,1,.42-.13c.45,0,.69.1.7.26a3.29,3.29,0,0,0,1.1,2,3.18,3.18,0,0,0,2,.83,2.16,2.16,0,0,0,1.38-.37,1.45,1.45,0,0,0,.58-1.2,2,2,0,0,0-.05-.55,1.46,1.46,0,0,0-.26-.51l-.33-.43a2.16,2.16,0,0,0-.52-.42l-.58-.36-.73-.41-.74-.43a6.92,6.92,0,0,1-2.05-1.67,3.43,3.43,0,0,1,.86-4.89A5.74,5.74,0,0,1,379.1,60Z"/><path class="cls-1" d="M391.52,60.49a5.52,5.52,0,0,1,2.48.64,4.73,4.73,0,0,1,1.67,1.46,6.87,6.87,0,0,1,.89,1.79,5.08,5.08,0,0,1,.26,1.75q0,.65-.25.81a1.68,1.68,0,0,1-.91.13l-7.1-.25c-.14,0-.21.05-.21.17a5.8,5.8,0,0,0,.31,2.09,4.09,4.09,0,0,0,1.26,1.8,3.5,3.5,0,0,0,2.22.82,8.13,8.13,0,0,0,.86,0,4.38,4.38,0,0,0,.78-.12l.63-.17a2.57,2.57,0,0,0,.56-.25l.41-.24.61-.38a.49.49,0,0,1,.14.18.58.58,0,0,1,.08.3.91.91,0,0,1-.2.56,4.86,4.86,0,0,1-1.81,1.54,5.51,5.51,0,0,1-3,.7,6,6,0,0,1-4.39-2.07A6.41,6.41,0,0,1,385.13,67,6.88,6.88,0,0,1,387,62.21,5.76,5.76,0,0,1,391.52,60.49Zm-.26,1.36a2.1,2.1,0,0,0-1.29.37,2.79,2.79,0,0,0-.9,1,5.65,5.65,0,0,0-.47,1.1,3.7,3.7,0,0,0-.17.87c0,.14.05.21.17.21l4.81.17c.18,0,.27-.14.28-.44a3.85,3.85,0,0,0-.62-2.13A2.13,2.13,0,0,0,391.27,61.85Z"/><path class="cls-1" d="M408.41,61.1q3.83.14,3.62,6.23l-.1,2.82a12.32,12.32,0,0,0,.11,2.68q.05.21.8.46a4.55,4.55,0,0,0,1,.26c.06,0,.09.15.09.43a1.7,1.7,0,0,1-.07.58c-.12,0-.64-.08-1.55-.17s-1.61-.15-2.06-.16-1.13,0-2,0l-1.54.06a.87.87,0,0,1-.1-.57c0-.3.05-.44.13-.44a3.54,3.54,0,0,0,1-.19c.45-.13.7-.27.74-.41a8.48,8.48,0,0,0,.32-2.16l.1-2.82a6.46,6.46,0,0,0-.54-3.47,2.39,2.39,0,0,0-2.09-1.06,2.75,2.75,0,0,0-1.68.46,1.43,1.43,0,0,0-.75,1.09l-.18,5.11a12.48,12.48,0,0,0,.11,2.68q.05.21.77.46a4.34,4.34,0,0,0,1,.26c.08,0,.12.15.12.44a1.69,1.69,0,0,1-.06.58L404,74.09q-1.32-.14-2-.16t-2.07,0l-1.59.06a.87.87,0,0,1-.1-.57c0-.3.06-.44.13-.44a4.14,4.14,0,0,0,1.09-.18q.74-.2.8-.4a9.68,9.68,0,0,0,.29-2.16l.17-4.84a2.83,2.83,0,0,0-.41-1.92,1.44,1.44,0,0,0-.65-.47,3.4,3.4,0,0,0-.71-.2c-.19,0-.28-.06-.28-.1q0-.86.18-.89a42.32,42.32,0,0,0,4.82-.72l.08,0h.16c.08,0,.15.08.2.21a.92.92,0,0,1,.08.33,10.31,10.31,0,0,0-.16,1.07.23.23,0,0,0,0,.15.43.43,0,0,0,.15-.08,6.62,6.62,0,0,1,1.87-1.18A5.21,5.21,0,0,1,408.41,61.1Z"/><path class="cls-1" d="M423,61.56a5.12,5.12,0,0,1,2.16.49c.1,0,.15-.15.17-.47l.1-2.79a10.34,10.34,0,0,0-.11-2q-.13-.48-1.53-.53h-.24q-.18,0-.16-.48t.2-.47c.6,0,1.18-.1,1.75-.18s1-.16,1.41-.25.69-.17,1-.26l.62-.2.24-.07h.06c.08,0,.16.06.23.17a.53.53,0,0,1,.11.32,11.41,11.41,0,0,0-.4,2.78l-.47,13.07a11,11,0,0,0,.1,2.21.44.44,0,0,0,.29.34,1.81,1.81,0,0,0,.56.17l.56.06.3,0a.63.63,0,0,1,0,.36c0,.4-.08.59-.2.59-.28,0-.63,0-1.06.08l-1.25.15-1.17.17-1.24.21c-.12,0-.17-.17-.16-.51l0-.51a.13.13,0,0,0,0-.12.05.05,0,0,0-.07,0,5,5,0,0,1-3.13,1,5.76,5.76,0,0,1-4.12-1.92,6,6,0,0,1-1.62-4.5,7,7,0,0,1,2.21-5A6.51,6.51,0,0,1,423,61.56ZM422.71,63a2.6,2.6,0,0,0-2.42,1.25,7,7,0,0,0-.93,3.57,7.18,7.18,0,0,0,.78,4,2.92,2.92,0,0,0,2.53,1.5,2.48,2.48,0,0,0,1.65-.46,1.65,1.65,0,0,0,.67-1.3l.22-6.24a2.08,2.08,0,0,0-.08-.63,2.79,2.79,0,0,0-.33-.71,1.91,1.91,0,0,0-.78-.65A3.17,3.17,0,0,0,422.71,63Z"/><path class="cls-1" d="M437.07,71a10.87,10.87,0,0,0,.14,2.68c0,.14.3.29.79.46a4.42,4.42,0,0,0,1,.26c.08,0,.12.15.12.44a1.69,1.69,0,0,1-.06.58c-.14,0-.67-.08-1.58-.18s-1.6-.15-2-.16-1.19,0-2.1,0l-1.56.06a.87.87,0,0,1-.1-.57c0-.3.06-.44.13-.44a4.3,4.3,0,0,0,1.08-.18q.75-.2.82-.4a9.67,9.67,0,0,0,.29-2.16l.17-4.84a2.82,2.82,0,0,0-.41-1.92,1.65,1.65,0,0,0-.67-.47,3.19,3.19,0,0,0-.71-.2c-.2,0-.29-.06-.29-.1q0-.86.21-.88a22.75,22.75,0,0,0,2.42-.27,23.15,23.15,0,0,0,2.37-.45l.24-.05c.1,0,.17.08.23.22a.55.55,0,0,1,0,.33,25.39,25.39,0,0,0-.33,2.55ZM434.42,58.5a1.81,1.81,0,0,1-.49-1.33,1.83,1.83,0,0,1,1.91-1.76,1.78,1.78,0,0,1,1.29.58,1.76,1.76,0,0,1,.49,1.31,1.81,1.81,0,0,1-.58,1.29,1.83,1.83,0,0,1-2.61-.09Z"/><path class="cls-1" d="M451,62.62q3.83.14,3.62,6.23l-.1,2.82a12.33,12.33,0,0,0,.11,2.68q.05.21.8.46a4.56,4.56,0,0,0,1,.26c.06,0,.09.15.09.43a1.7,1.7,0,0,1-.07.58q-.18,0-1.55-.17t-2.06-.16q-.71,0-2,0l-1.54.06a.87.87,0,0,1-.1-.57c0-.3.05-.44.13-.44a3.53,3.53,0,0,0,1-.19c.45-.13.7-.27.74-.41a8.48,8.48,0,0,0,.32-2.16l.1-2.82a6.45,6.45,0,0,0-.55-3.47,2.39,2.39,0,0,0-2.09-1.06,2.75,2.75,0,0,0-1.68.46,1.43,1.43,0,0,0-.75,1.09l-.18,5.11a12.41,12.41,0,0,0,.11,2.68q.05.21.77.46a4.35,4.35,0,0,0,1,.26c.08,0,.12.15.12.44a1.69,1.69,0,0,1-.06.58l-1.56-.17q-1.32-.14-2-.16t-2.07,0l-1.59.06a.87.87,0,0,1-.1-.57c0-.3.06-.44.13-.44a4.18,4.18,0,0,0,1.09-.18q.74-.2.8-.4a9.67,9.67,0,0,0,.29-2.16l.17-4.84A2.83,2.83,0,0,0,443,65a1.43,1.43,0,0,0-.65-.47,3.38,3.38,0,0,0-.71-.2c-.19,0-.28-.06-.28-.1q0-.86.18-.89a42.25,42.25,0,0,0,4.82-.72l.08,0h.16c.08,0,.15.08.2.21a.91.91,0,0,1,.08.33,10.1,10.1,0,0,0-.16,1.07.23.23,0,0,0,0,.15.43.43,0,0,0,.15-.08,6.6,6.6,0,0,1,1.87-1.18A5.21,5.21,0,0,1,451,62.62Z"/><path class="cls-1" d="M464.64,63.16a9.43,9.43,0,0,1,2.45.47,9.11,9.11,0,0,0,2.36.47l1.69.06s.1.13.19.39a1.82,1.82,0,0,1,.13.6c0,.28-.07.41-.19.41l-1.93-.07c-.08,0-.12,0-.12.09s.08.28.24.78a4.21,4.21,0,0,1,.22,1.44,4.3,4.3,0,0,1-1.58,3.11,5.1,5.1,0,0,1-3.72,1.28,12.32,12.32,0,0,1-1.84-.18,1.6,1.6,0,0,0-.67.53,1.27,1.27,0,0,0-.32.72.61.61,0,0,0,.26.52,2,2,0,0,0,.87.33q.59.11,1,.15l1.19.1.44,0a10.51,10.51,0,0,1,4.32,1,2.34,2.34,0,0,1,1.3,2.23,4.67,4.67,0,0,1-2.28,3.79,8.13,8.13,0,0,1-5.08,1.46,7.73,7.73,0,0,1-3.76-1,2.67,2.67,0,0,1-1.53-2.49,2.31,2.31,0,0,1,.91-1.63,4.92,4.92,0,0,1,1.87-1.06,3.41,3.41,0,0,1-1.39-1,2.16,2.16,0,0,1-.6-1.58q0-1.28,2.29-2.57A3.94,3.94,0,0,1,459.82,70a4.37,4.37,0,0,1-.66-2.45,4,4,0,0,1,1.66-3.27A5.91,5.91,0,0,1,464.64,63.16Zm3.55,15.68q0-1-1.45-1.44a18.91,18.91,0,0,0-4-.49l-.15,0-.15.08c-.26.09-.46.17-.6.23a2.56,2.56,0,0,0-.49.31,1.43,1.43,0,0,0-.42.51,1.73,1.73,0,0,0-.16.71,2.08,2.08,0,0,0,1.07,1.82,4.63,4.63,0,0,0,2.5.8,4.48,4.48,0,0,0,2.75-.68A2.32,2.32,0,0,0,468.19,78.84Zm-6-11.46a4.7,4.7,0,0,0,.51,2.47,1.85,1.85,0,0,0,1.63,1.05,1.77,1.77,0,0,0,1.65-.79,3.94,3.94,0,0,0,.59-2.08,4.88,4.88,0,0,0-.5-2.58,1.9,1.9,0,0,0-1.69-1,1.68,1.68,0,0,0-1.61.87A4.33,4.33,0,0,0,462.23,67.39Z"/><path class="cls-1" d="M60.42,101.3a7.19,7.19,0,0,1,2.81.51A4.74,4.74,0,0,1,65,102.94a3.69,3.69,0,0,1-.33,1.68,1.1,1.1,0,0,1-1,.67,1.33,1.33,0,0,1-.91-.29,3.36,3.36,0,0,1-.7-1,2.15,2.15,0,0,0-2-1.36,2.29,2.29,0,0,0-2,1.3,6.36,6.36,0,0,0-.74,3.26,6,6,0,0,0,1.12,4,3.51,3.51,0,0,0,2.8,1.28,8.45,8.45,0,0,0,.86,0,4.42,4.42,0,0,0,.77-.15l.62-.2a2.55,2.55,0,0,0,.55-.27l.4-.25.59-.4a.49.49,0,0,1,.15.18.58.58,0,0,1,.09.3.91.91,0,0,1-.18.57,4.84,4.84,0,0,1-1.75,1.61,5.46,5.46,0,0,1-2.91.82,6,6,0,0,1-4.51-1.91A6.56,6.56,0,0,1,54,108a6.76,6.76,0,0,1,1.76-4.69A6,6,0,0,1,60.42,101.3Z"/><path class="cls-1" d="M73.51,101.23a3.65,3.65,0,0,1,2.77,1,4.76,4.76,0,0,1,.94,3.31l0,5.86a1.36,1.36,0,0,0,.27.91.89.89,0,0,0,.71.31,1.86,1.86,0,0,0,1-.39c.12,0,.18.15.18.33a1.77,1.77,0,0,1-.17.89,7.27,7.27,0,0,1-1.19.75,3.09,3.09,0,0,1-1.42.39,2.16,2.16,0,0,1-1.34-.5,2.43,2.43,0,0,1-.87-1.1l-.22.19q-.19.17-.53.4a8.57,8.57,0,0,1-.77.48,4.74,4.74,0,0,1-1,.41,4.3,4.3,0,0,1-1.17.17,3.56,3.56,0,0,1-2.43-.8,2.83,2.83,0,0,1-.95-2.24,2.75,2.75,0,0,1,.33-1.34,3.57,3.57,0,0,1,.81-1,6.05,6.05,0,0,1,1.27-.79,12.31,12.31,0,0,1,1.38-.59l1.48-.47,1.26-.39a.47.47,0,0,0,.27-.48v-1.63a2.55,2.55,0,0,0-.48-1.63,1.55,1.55,0,0,0-1.28-.59,1.8,1.8,0,0,0-1.39.56,2.23,2.23,0,0,0-.5,1.56,1,1,0,0,1-.44.88,1.84,1.84,0,0,1-1,.29,1.68,1.68,0,0,1-1.55-.71q0-1.43,1.93-2.69A7.46,7.46,0,0,1,73.51,101.23Zm-1.28,11.42a2.31,2.31,0,0,0,1.38-.42,1.17,1.17,0,0,0,.58-1l0-3q-.21.09-.87.3t-1,.36a8.15,8.15,0,0,0-.83.42,1.79,1.79,0,0,0-.7.66,1.63,1.63,0,0,0-.22.83,1.83,1.83,0,0,0,.48,1.39A1.7,1.7,0,0,0,72.23,112.66Z"/><path class="cls-1" d="M89.72,101.15a3,3,0,0,1,2.44,1q0,2.53-1.41,2.53a1.77,1.77,0,0,1-1.16-.59,1.87,1.87,0,0,0-1.28-.59,1.59,1.59,0,0,0-1.44.94,4,4,0,0,0-.51,1.95l0,3.72a12.43,12.43,0,0,0,.22,2.67q.06.21.79.43a4.17,4.17,0,0,0,1,.22c.06,0,.09.14.11.43a3.19,3.19,0,0,1,0,.58l-1.58-.11q-1.34-.08-2-.08t-2.07.1l-1.59.13a.87.87,0,0,1-.12-.56c0-.3,0-.45.12-.45a4.11,4.11,0,0,0,1.08-.23q.73-.23.79-.43a9.73,9.73,0,0,0,.2-2.17l0-4.85a2.83,2.83,0,0,0-.49-1.9,1.43,1.43,0,0,0-.67-.44,3.35,3.35,0,0,0-.71-.17c-.19,0-.28,0-.28-.09,0-.58,0-.87.14-.89a42.22,42.22,0,0,0,4.78-.92l.24-.06c.08,0,.15.07.21.21a.71.71,0,0,1,.08.34l0,.42q0,.28-.07.59a3.79,3.79,0,0,0,0,.4,5.42,5.42,0,0,1,1.45-1.45A3.25,3.25,0,0,1,89.72,101.15Z"/><path class="cls-1" d="M100.19,101.1a5.52,5.52,0,0,1,2.5.54,4.71,4.71,0,0,1,1.73,1.39,6.92,6.92,0,0,1,1,1.75,5.11,5.11,0,0,1,.34,1.74c0,.44-.07.71-.22.82a1.68,1.68,0,0,1-.91.17l-7.1,0c-.14,0-.21.06-.21.18a5.78,5.78,0,0,0,.4,2.08A4.08,4.08,0,0,0,99,111.54a3.5,3.5,0,0,0,2.25.73,8.45,8.45,0,0,0,.86,0,4.42,4.42,0,0,0,.77-.15l.62-.2a2.46,2.46,0,0,0,.55-.27l.4-.25.59-.4a.48.48,0,0,1,.15.18.58.58,0,0,1,.09.3.91.91,0,0,1-.18.56,4.85,4.85,0,0,1-1.75,1.62,5.51,5.51,0,0,1-2.94.82A6,6,0,0,1,96,112.52a6.41,6.41,0,0,1-1.9-4.64A6.88,6.88,0,0,1,95.79,103,5.76,5.76,0,0,1,100.19,101.1Zm-.2,1.37a2.1,2.1,0,0,0-1.28.42,2.8,2.8,0,0,0-.86,1,5.7,5.7,0,0,0-.43,1.12,3.68,3.68,0,0,0-.13.88c0,.14.06.21.18.21l4.82,0c.18,0,.27-.15.27-.45a3.85,3.85,0,0,0-.71-2.11A2.13,2.13,0,0,0,100,102.47Z"/><path class="cls-1" d="M122,101a6,6,0,0,1,3.39,1,6.22,6.22,0,0,1,2.94,5.28,7,7,0,0,1-6.95,7.11,6.93,6.93,0,0,1-2.11-.41c-.08,0-.12.14-.12.42v2a10.71,10.71,0,0,0,.25,2.67q0,.24.79.46a4.49,4.49,0,0,0,1,.22c.06,0,.09.14.11.43a2.61,2.61,0,0,1,0,.55l-1.59-.08q-1.38-.08-2-.08t-2.1.1l-1.59.1a1.08,1.08,0,0,1-.09-.55c0-.29,0-.43.09-.43a4.13,4.13,0,0,0,1.08-.23q.73-.23.81-.47a10.89,10.89,0,0,0,.17-2.14L116,105.59a2.88,2.88,0,0,0-.49-1.93,1.34,1.34,0,0,0-.66-.43,3.56,3.56,0,0,0-.71-.16c-.2,0-.3,0-.3-.09q0-.86.17-.89a22.85,22.85,0,0,0,4.42-.85l.56-.15q.12,0,.12.62a1.64,1.64,0,0,1-.06.36,6,6,0,0,1,1.32-.71A4.25,4.25,0,0,1,122,101Zm-.71,1.58a2.24,2.24,0,0,0-1.59.57,2,2,0,0,0-.6,1.52l0,6.12a1.83,1.83,0,0,0,.81,1.56,2.89,2.89,0,0,0,1.73.57,2.79,2.79,0,0,0,2.3-1.26,5.74,5.74,0,0,0,.92-3.51,7.68,7.68,0,0,0-1-4A2.92,2.92,0,0,0,121.29,102.59Z"/><path class="cls-1" d="M136.48,100.91a3.65,3.65,0,0,1,2.77,1,4.75,4.75,0,0,1,.94,3.31l0,5.86a1.36,1.36,0,0,0,.27.91.89.89,0,0,0,.71.31,1.86,1.86,0,0,0,1-.39c.12,0,.18.15.18.33a1.76,1.76,0,0,1-.17.89,7.2,7.2,0,0,1-1.19.75,3.09,3.09,0,0,1-1.42.39,2.17,2.17,0,0,1-1.34-.5,2.44,2.44,0,0,1-.87-1.1l-.22.19q-.19.16-.53.4a8.57,8.57,0,0,1-.77.48,4.74,4.74,0,0,1-1,.41,4.38,4.38,0,0,1-1.17.17,3.55,3.55,0,0,1-2.43-.81,2.82,2.82,0,0,1-.95-2.24,2.75,2.75,0,0,1,.33-1.34,3.56,3.56,0,0,1,.81-1,6.05,6.05,0,0,1,1.27-.79,12.13,12.13,0,0,1,1.38-.59l1.48-.47,1.26-.39a.47.47,0,0,0,.27-.48V104.5a2.55,2.55,0,0,0-.48-1.63,1.55,1.55,0,0,0-1.28-.59,1.8,1.8,0,0,0-1.39.56,2.23,2.23,0,0,0-.5,1.56,1,1,0,0,1-.44.88,1.85,1.85,0,0,1-1,.29,1.68,1.68,0,0,1-1.55-.71q0-1.43,1.93-2.69A7.44,7.44,0,0,1,136.48,100.91Zm-1.28,11.42a2.31,2.31,0,0,0,1.38-.42,1.17,1.17,0,0,0,.58-1l0-3q-.21.09-.87.3t-1,.36a8.12,8.12,0,0,0-.83.42,1.8,1.8,0,0,0-.7.66,1.63,1.63,0,0,0-.22.83,1.83,1.83,0,0,0,.48,1.39A1.71,1.71,0,0,0,135.2,112.33Z"/><path class="cls-1" d="M150.37,100.84a7.2,7.2,0,0,1,2.81.51,4.74,4.74,0,0,1,1.77,1.14,3.69,3.69,0,0,1-.33,1.68,1.1,1.1,0,0,1-1,.67,1.33,1.33,0,0,1-.91-.29,3.38,3.38,0,0,1-.7-1,2.15,2.15,0,0,0-2-1.36,2.29,2.29,0,0,0-2,1.3,6.35,6.35,0,0,0-.74,3.26,6,6,0,0,0,1.12,4,3.51,3.51,0,0,0,2.8,1.28,8.17,8.17,0,0,0,.86,0,4.33,4.33,0,0,0,.77-.15l.62-.2a2.55,2.55,0,0,0,.55-.27l.4-.25.59-.4a.48.48,0,0,1,.15.18.58.58,0,0,1,.09.3.91.91,0,0,1-.18.57,4.85,4.85,0,0,1-1.75,1.62,5.47,5.47,0,0,1-2.91.82,6,6,0,0,1-4.51-1.91,6.56,6.56,0,0,1-1.88-4.72,6.76,6.76,0,0,1,1.76-4.69A6,6,0,0,1,150.37,100.84Z"/><path class="cls-1" d="M169.65,102.73q-.59.36-1.88,1.35a21.1,21.1,0,0,0-2.35,2.09q.87.92,2.18,2.4t2.18,2.43a14.07,14.07,0,0,0,1.2,1.21,3.75,3.75,0,0,0,1.15.59,3.61,3.61,0,0,0,1,.23q.12,0,.12.5a1.79,1.79,0,0,1,0,.42l-3.48-.13-1.14,0-1.28.08-1.11.08a.8.8,0,0,1-.12-.53c0-.28,0-.42.12-.42a2.12,2.12,0,0,0,.68-.14q.39-.14.38-.28s0-.06,0-.06l-4.37-4.82-.36.09v1.84a12.15,12.15,0,0,0,.25,2.67q.06.21.8.43a4.31,4.31,0,0,0,1,.22c.06,0,.09.14.11.43a1.72,1.72,0,0,1,0,.58l-1.58-.11q-1.37-.08-2.05-.08t-2.07.1l-1.59.13a.86.86,0,0,1-.12-.56c0-.3,0-.45.12-.45a4.17,4.17,0,0,0,1.08-.23q.73-.23.79-.44a9.77,9.77,0,0,0,.2-2.17l-.06-12.34a11.64,11.64,0,0,0-.16-2c-.1-.32-.62-.47-1.55-.47h-.27q-.18,0-.18-.47t.18-.48q.92-.09,1.75-.25t1.38-.3c.37-.1.68-.2.95-.3l.85-.3h.06c.08,0,.16.05.24.16a.81.81,0,0,1,.15.31,9.6,9.6,0,0,0-.34,2.8l.05,9.93a2.69,2.69,0,0,0,.89-.33q.62-.57,1.35-1.18l1.05-.88q.33-.27.65-.58a2.58,2.58,0,0,0,.43-.49.7.7,0,0,0,.1-.36q0-.33-.67-.4a2.88,2.88,0,0,1-.67-.1,1.31,1.31,0,0,1-.09-.52c0-.21,0-.32.12-.34l2.88,0q.8,0,3.15-.13a.46.46,0,0,1,.15.33,1.3,1.3,0,0,1,0,.45c0,.14-.07.21-.13.21A3.91,3.91,0,0,0,169.65,102.73Z"/><path class="cls-1" d="M181.48,100.68a3.65,3.65,0,0,1,2.77,1,4.75,4.75,0,0,1,.94,3.31l0,5.86a1.36,1.36,0,0,0,.27.91.89.89,0,0,0,.71.31,1.85,1.85,0,0,0,1-.39c.12,0,.18.15.18.33a1.76,1.76,0,0,1-.17.89,7.26,7.26,0,0,1-1.19.75,3.1,3.1,0,0,1-1.42.39,2.17,2.17,0,0,1-1.34-.5,2.43,2.43,0,0,1-.87-1.1l-.22.2q-.19.16-.53.4a8.57,8.57,0,0,1-.77.48,4.79,4.79,0,0,1-1,.41,4.34,4.34,0,0,1-1.17.17,3.55,3.55,0,0,1-2.43-.8,2.83,2.83,0,0,1-.95-2.24,2.75,2.75,0,0,1,.33-1.34,3.56,3.56,0,0,1,.81-1,6.05,6.05,0,0,1,1.27-.79,12,12,0,0,1,1.38-.59l1.48-.47,1.26-.39a.47.47,0,0,0,.27-.48v-1.63a2.55,2.55,0,0,0-.48-1.63,1.55,1.55,0,0,0-1.28-.59,1.8,1.8,0,0,0-1.39.56,2.23,2.23,0,0,0-.5,1.56,1,1,0,0,1-.44.88,1.84,1.84,0,0,1-1,.29,1.68,1.68,0,0,1-1.55-.71q0-1.43,1.93-2.69A7.45,7.45,0,0,1,181.48,100.68ZM180.2,112.1a2.31,2.31,0,0,0,1.38-.42,1.17,1.17,0,0,0,.58-1l0-3c-.14.06-.43.16-.87.3s-.79.26-1,.36a7.92,7.92,0,0,0-.83.42,1.79,1.79,0,0,0-.7.66,1.63,1.63,0,0,0-.22.83,1.83,1.83,0,0,0,.48,1.39A1.71,1.71,0,0,0,180.2,112.1Z"/><path class="cls-1" d="M194.66,100.67a9.4,9.4,0,0,1,2.47.37,9.15,9.15,0,0,0,2.38.37h1.7s.11.13.21.38a1.85,1.85,0,0,1,.15.59q0,.42-.18.42h-1.93c-.08,0-.12,0-.12.09s.09.28.27.77a4.2,4.2,0,0,1,.28,1.42,4.3,4.3,0,0,1-1.46,3.17,5.09,5.09,0,0,1-3.67,1.43,12.22,12.22,0,0,1-1.84-.11,1.61,1.61,0,0,0-.65.55,1.27,1.27,0,0,0-.29.73.61.61,0,0,0,.29.5,2,2,0,0,0,.88.29q.6.09,1,.11l1.19.05h.45a10.5,10.5,0,0,1,4.36.79,2.34,2.34,0,0,1,1.39,2.18,4.67,4.67,0,0,1-2.12,3.88,8.12,8.12,0,0,1-5,1.66,7.72,7.72,0,0,1-3.79-.81,2.67,2.67,0,0,1-1.63-2.43,2.31,2.31,0,0,1,.84-1.67,4.92,4.92,0,0,1,1.82-1.14,3.4,3.4,0,0,1-1.43-.9,2.17,2.17,0,0,1-.66-1.56q0-1.28,2.19-2.66a3.93,3.93,0,0,1-1.61-1.52,4.38,4.38,0,0,1-.76-2.42,4,4,0,0,1,1.53-3.34A5.91,5.91,0,0,1,194.66,100.67Zm4.18,15.53q0-1-1.51-1.37a18.89,18.89,0,0,0-4-.32l-.15,0-.15.09c-.26.1-.46.18-.59.25a2.56,2.56,0,0,0-.47.33,1.43,1.43,0,0,0-.4.52,1.74,1.74,0,0,0-.13.71,2.08,2.08,0,0,0,1.14,1.78,4.62,4.62,0,0,0,2.53.7,4.49,4.49,0,0,0,2.72-.79A2.32,2.32,0,0,0,198.84,116.2ZM192.42,105a4.7,4.7,0,0,0,.61,2.45,1.85,1.85,0,0,0,1.67,1,1.77,1.77,0,0,0,1.62-.86,3.94,3.94,0,0,0,.51-2.1,4.88,4.88,0,0,0-.61-2.55,1.9,1.9,0,0,0-1.73-1,1.68,1.68,0,0,0-1.57.93A4.32,4.32,0,0,0,192.42,105Z"/><path class="cls-1" d="M209.56,100.54a5.52,5.52,0,0,1,2.5.54,4.71,4.71,0,0,1,1.73,1.39,6.92,6.92,0,0,1,1,1.75,5.11,5.11,0,0,1,.34,1.74c0,.44-.07.71-.22.82a1.7,1.7,0,0,1-.91.17l-7.1,0c-.14,0-.21.06-.21.18a5.77,5.77,0,0,0,.4,2.08,4.08,4.08,0,0,0,1.33,1.75,3.5,3.5,0,0,0,2.25.73,8.18,8.18,0,0,0,.86,0,4.51,4.51,0,0,0,.77-.15l.62-.2a2.59,2.59,0,0,0,.55-.27l.4-.26.59-.4a.49.49,0,0,1,.15.18.58.58,0,0,1,.09.3.92.92,0,0,1-.18.57,4.86,4.86,0,0,1-1.75,1.61,5.51,5.51,0,0,1-2.94.82,6,6,0,0,1-4.47-1.89,6.41,6.41,0,0,1-1.9-4.64,6.88,6.88,0,0,1,1.71-4.88A5.76,5.76,0,0,1,209.56,100.54Zm-.2,1.37a2.1,2.1,0,0,0-1.28.42,2.79,2.79,0,0,0-.86,1,5.73,5.73,0,0,0-.43,1.12,3.67,3.67,0,0,0-.13.88c0,.14.06.21.18.21l4.82,0q.27,0,.27-.45a3.85,3.85,0,0,0-.71-2.11A2.13,2.13,0,0,0,209.36,101.9Z"/><path class="cls-1" d="M221.58,100.44a12.61,12.61,0,0,1,3.45.49,16.87,16.87,0,0,1,.34,3.33c0,.16-.13.24-.39.24-.44,0-.67-.08-.71-.23a3.61,3.61,0,0,0-.88-1.76,2.33,2.33,0,0,0-1.8-.72,2.14,2.14,0,0,0-1.35.39,1.32,1.32,0,0,0-.48,1.1,1.73,1.73,0,0,0,.17.76,1.84,1.84,0,0,0,.54.64,7.23,7.23,0,0,0,.66.47c.19.12.47.28.85.47a1.87,1.87,0,0,0,.3.15l.45.24.49.27.48.28a5.48,5.48,0,0,1,.52.34l.46.35a2.34,2.34,0,0,1,.45.41l.36.46a1.94,1.94,0,0,1,.32.53,5.63,5.63,0,0,1,.17.56,2.8,2.8,0,0,1,.08.64,3.51,3.51,0,0,1-1.43,3,5.63,5.63,0,0,1-3.49,1.1,9.92,9.92,0,0,1-3.84-.81,12,12,0,0,1-.3-1.65,14.53,14.53,0,0,1-.16-1.71.64.64,0,0,1,.42-.15q.68,0,.71.23a3.28,3.28,0,0,0,1.19,2,3.17,3.17,0,0,0,2,.75,2.16,2.16,0,0,0,1.37-.42,1.45,1.45,0,0,0,.53-1.22,2,2,0,0,0-.08-.55,1.45,1.45,0,0,0-.28-.5l-.34-.41a2.15,2.15,0,0,0-.54-.4l-.6-.34-.75-.38-.76-.4a6.93,6.93,0,0,1-2.12-1.58,3.44,3.44,0,0,1,.66-4.92A5.73,5.73,0,0,1,221.58,100.44Z"/><path class="cls-1" d="M239.77,109.3A10.91,10.91,0,0,0,240,112q.06.21.8.43a4.41,4.41,0,0,0,1,.22c.08,0,.12.14.14.43a1.69,1.69,0,0,1,0,.58l-1.59-.11q-1.38-.08-2-.08t-2.1.1l-1.56.13a.87.87,0,0,1-.12-.56c0-.3,0-.45.12-.45a4.33,4.33,0,0,0,1.07-.23q.74-.23.8-.44a9.72,9.72,0,0,0,.2-2.17l0-4.85a2.83,2.83,0,0,0-.49-1.9,1.65,1.65,0,0,0-.69-.44,3.11,3.11,0,0,0-.71-.17c-.2,0-.3,0-.3-.09,0-.57.05-.87.17-.89a22.63,22.63,0,0,0,2.41-.37,23.35,23.35,0,0,0,2.35-.55l.24-.06c.1,0,.18.07.24.21a.55.55,0,0,1,.06.33,25.27,25.27,0,0,0-.22,2.56Zm-3.16-12.42a1.81,1.81,0,0,1-.54-1.31,1.76,1.76,0,0,1,.53-1.3,1.84,1.84,0,0,1,3.16,1.28,1.81,1.81,0,0,1-.53,1.31,1.83,1.83,0,0,1-2.62,0Z"/><path class="cls-1" d="M253.38,100.31q3.83,0,3.87,6.07v2.82a12.37,12.37,0,0,0,.22,2.67q.06.21.82.43a4.53,4.53,0,0,0,1,.22c.06,0,.09.14.11.43a1.74,1.74,0,0,1,0,.58q-.18,0-1.56-.11t-2.07-.08q-.71,0-2,.1l-1.53.13a.86.86,0,0,1-.12-.56c0-.3,0-.45.12-.45a3.54,3.54,0,0,0,1-.23c.45-.15.69-.3.73-.44a8.51,8.51,0,0,0,.23-2.17v-2.82a6.46,6.46,0,0,0-.69-3.45,2.39,2.39,0,0,0-2.13-1,2.75,2.75,0,0,0-1.66.53,1.43,1.43,0,0,0-.71,1.12l0,5.11a12.44,12.44,0,0,0,.22,2.67q.06.21.79.43a4.34,4.34,0,0,0,1,.22c.08,0,.12.14.14.43a1.73,1.73,0,0,1,0,.58l-1.56-.11q-1.32-.08-2-.08t-2.07.1l-1.59.13a.87.87,0,0,1-.12-.56c0-.3,0-.45.12-.45a4.11,4.11,0,0,0,1.08-.23q.73-.23.79-.43a9.73,9.73,0,0,0,.2-2.17l0-4.85a2.83,2.83,0,0,0-.49-1.9,1.44,1.44,0,0,0-.67-.44,3.48,3.48,0,0,0-.71-.17c-.19,0-.28,0-.28-.09,0-.57,0-.87.14-.89a41.93,41.93,0,0,0,4.78-.92l.07,0,.09,0h.07c.08,0,.15.07.21.21a.92.92,0,0,1,.09.33,10,10,0,0,0-.11,1.07.24.24,0,0,0,0,.15.44.44,0,0,0,.15-.09,6.61,6.61,0,0,1,1.82-1.26A5.22,5.22,0,0,1,253.38,100.31Z"/><path class="cls-1" d="M263.06,102.34h-1.81c-.14,0-.21-.26-.21-.77a.73.73,0,0,1,0-.27,8.32,8.32,0,0,0,2.28-1.59l.84-.88q.46-.49,1.08-1.27a2.11,2.11,0,0,1,.57.07c.18,0,.27.1.27.16l0,2.91h3.63c.16,0,.24.09.24.27a2.88,2.88,0,0,1-.29,1.31l-3.57,0,0,7.16a2.82,2.82,0,0,0,.51,1.81,1.7,1.7,0,0,0,1.4.62,2.88,2.88,0,0,0,.62-.08,3.16,3.16,0,0,0,.53-.17l.38-.18.21-.09q.12,0,.27.27c.1.2.14.33.12.39a2.7,2.7,0,0,1-1.26,1,4.68,4.68,0,0,1-2.12.56,3.75,3.75,0,0,1-2.64-1,4,4,0,0,1-1.1-3.07Z"/><path class="cls-1" d="M278.75,100.18a6.55,6.55,0,0,1,4.78,1.92,6.37,6.37,0,0,1,2,4.7,6.73,6.73,0,0,1-13.47.07,6.4,6.4,0,0,1,1.92-4.74A6.51,6.51,0,0,1,278.75,100.18Zm-.38,1.4a2.39,2.39,0,0,0-2.16,1.36,6.38,6.38,0,0,0-.76,3.23,8.65,8.65,0,0,0,1,4.19,3,3,0,0,0,2.7,1.77,2.42,2.42,0,0,0,2.18-1.38,6.33,6.33,0,0,0,.77-3.21,10.16,10.16,0,0,0-.4-2.87,5.24,5.24,0,0,0-1.26-2.21A2.76,2.76,0,0,0,278.37,101.58Z"/><path class="cls-1" d="M310.08,97.61a7.24,7.24,0,0,0-.31-2.38c-.1-.24-.43-.42-1-.56a5.93,5.93,0,0,0-1.32-.2c-.08,0-.12-.14-.14-.43a1,1,0,0,1,.07-.55q3.18.19,3.75.19.77,0,2-.11t1.52-.11a1.23,1.23,0,0,1,.06.47c0,.34,0,.51-.12.51a5.69,5.69,0,0,0-1.28.23,1.93,1.93,0,0,0-1.13.62,6.93,6.93,0,0,0-.31,2.47l.06,11.27q0,1.07.14,4.16a1.08,1.08,0,0,1-.65.12c-.32,0-.64-.22-1-.68L298.55,97l.06,12a8.28,8.28,0,0,0,.25,2.44q.15.36,1.1.6a6.18,6.18,0,0,0,1.34.25c.06,0,.09.14.11.42a1.66,1.66,0,0,1,0,.57l-3.72-.16q-.8,0-2,.08l-1.56.11a.74.74,0,0,1-.12-.5c0-.32,0-.48.12-.48a5.64,5.64,0,0,0,1.35-.23,1.63,1.63,0,0,0,1.08-.67,6.8,6.8,0,0,0,.28-2.5l-.06-11.65a4.83,4.83,0,0,0-.34-2.17q-.12-.21-1-.38a7.72,7.72,0,0,0-1.32-.17c-.08,0-.12-.15-.14-.45a.83.83,0,0,1,.1-.57q3.12.13,3.54.13,1,0,2.67-.16a30.74,30.74,0,0,0,2.08,3.16q1.51,2.09,4.15,5.51t3.59,4.72a8.39,8.39,0,0,0,.05-1.22Z"/><path class="cls-1" d="M323.33,100a6.55,6.55,0,0,1,4.78,1.92,6.37,6.37,0,0,1,2,4.7,6.73,6.73,0,0,1-13.47.07,6.4,6.4,0,0,1,1.92-4.74A6.52,6.52,0,0,1,323.33,100Zm-.38,1.4a2.39,2.39,0,0,0-2.16,1.36,6.38,6.38,0,0,0-.76,3.23,8.65,8.65,0,0,0,1,4.19,3,3,0,0,0,2.7,1.77,2.42,2.42,0,0,0,2.18-1.38,6.32,6.32,0,0,0,.77-3.21,10.16,10.16,0,0,0-.4-2.87,5.25,5.25,0,0,0-1.26-2.21A2.76,2.76,0,0,0,323,101.35Z"/><path class="cls-1" d="M340.7,99.86a3,3,0,0,1,2.44,1q0,2.53-1.41,2.53a1.77,1.77,0,0,1-1.16-.59,1.86,1.86,0,0,0-1.28-.59,1.59,1.59,0,0,0-1.44.94,4,4,0,0,0-.51,2l0,3.72a12.44,12.44,0,0,0,.22,2.67q.06.21.79.43a4.18,4.18,0,0,0,1,.22c.06,0,.09.14.11.43a3.2,3.2,0,0,1,0,.58l-1.58-.11q-1.34-.08-2-.08t-2.07.1l-1.59.13a.87.87,0,0,1-.12-.56c0-.3,0-.45.12-.45a4.11,4.11,0,0,0,1.08-.23q.73-.23.79-.44a9.72,9.72,0,0,0,.2-2.17l0-4.85a2.83,2.83,0,0,0-.49-1.9,1.43,1.43,0,0,0-.67-.44,3.36,3.36,0,0,0-.71-.17c-.19,0-.28,0-.28-.09,0-.57,0-.87.14-.89a42.15,42.15,0,0,0,4.78-.92l.24-.06c.08,0,.15.07.21.21a.71.71,0,0,1,.08.34l0,.42q0,.28-.07.59a3.76,3.76,0,0,0,0,.4,5.44,5.44,0,0,1,1.45-1.45A3.25,3.25,0,0,1,340.7,99.86Z"/><path class="cls-1" d="M346.81,101.91H345c-.14,0-.21-.26-.21-.77a.73.73,0,0,1,0-.27,8.34,8.34,0,0,0,2.28-1.59l.84-.88q.46-.49,1.08-1.27a2.15,2.15,0,0,1,.57.07c.18,0,.27.1.27.16l0,2.91h3.63c.16,0,.24.09.24.27a2.88,2.88,0,0,1-.29,1.31l-3.57,0,0,7.17a2.82,2.82,0,0,0,.51,1.81,1.7,1.7,0,0,0,1.4.62,2.82,2.82,0,0,0,.62-.08,3.25,3.25,0,0,0,.53-.17l.38-.18.21-.09q.12,0,.27.27c.1.2.14.33.12.39a2.72,2.72,0,0,1-1.26,1,4.67,4.67,0,0,1-2.12.56,3.74,3.74,0,0,1-2.64-1,4,4,0,0,1-1.1-3.07Z"/><path class="cls-1" d="M365.51,99.73q3.81,0,3.84,5.84l0,3.06a10.88,10.88,0,0,0,.25,2.67q0,.21.79.43a4.52,4.52,0,0,0,1,.22c.06,0,.09.14.11.43a3.19,3.19,0,0,1,0,.58l-1.59-.11q-1.38-.08-2-.08t-2,.1l-1.56.13a1.1,1.1,0,0,1-.09-.56c0-.3,0-.45.09-.45a3.52,3.52,0,0,0,1-.23q.67-.23.76-.43a11.27,11.27,0,0,0,.17-2.17l0-2.91a6.2,6.2,0,0,0-.69-3.4,2.44,2.44,0,0,0-2.13-.93,2.85,2.85,0,0,0-1.63.51,1.4,1.4,0,0,0-.74,1.13l0,5.11a10.9,10.9,0,0,0,.25,2.67q.06.21.79.43a4.19,4.19,0,0,0,1,.22c.06,0,.09.14.11.43a1.7,1.7,0,0,1,0,.58l-1.56-.11q-1.32-.08-2-.08t-2.07.1L356,113a.86.86,0,0,1-.12-.56c0-.3,0-.45.12-.45a4.17,4.17,0,0,0,1.08-.23q.73-.23.79-.44a9.61,9.61,0,0,0,.2-2.14L358,96.86a11.64,11.64,0,0,0-.16-2q-.15-.47-1.55-.47H356q-.18,0-.18-.47t.18-.48q.92-.09,1.75-.25t1.38-.3c.37-.1.68-.2.95-.3l.85-.3H361c.08,0,.16.05.24.16a.81.81,0,0,1,.15.31,9.59,9.59,0,0,0-.34,2.8l0,6c0,.12,0,.18.12.18s.06,0,.12-.09a5.66,5.66,0,0,1,1.82-1.3A5.49,5.49,0,0,1,365.51,99.73Z"/><path class="cls-1" d="M385.43,97.37l0,4.79a.18.18,0,0,0,0,.13l.1.07h.27q.62,0,1.54-1,2.36-2.57,5.2-6a1.63,1.63,0,0,0,.47-.89q0-.3-.66-.41a6.28,6.28,0,0,0-1.1-.11c-.08,0-.13-.11-.15-.34a1.53,1.53,0,0,1,0-.55l3.6.16q.56,0,1.11,0l1.19-.08,1.06-.08a1.28,1.28,0,0,1,0,.51c0,.26,0,.39-.1.39a4.65,4.65,0,0,0-3,1.26l-5.5,6.33a.58.58,0,0,0,.06.83l7,8.23a3,3,0,0,0,1.45.94,4.82,4.82,0,0,0,1.32.29q.15,0,.15.56a.93.93,0,0,1-.09.42q-3.57-.16-4.07-.16-1,0-2.27.09l-1.86.11a.83.83,0,0,1-.12-.55c0-.29,0-.43.12-.43a2.31,2.31,0,0,0,.83-.21q.51-.21.5-.45a5.68,5.68,0,0,0-.84-1.24q-.84-1.1-2.3-2.8t-2.9-3.18a1.09,1.09,0,0,0-.66-.12c-.32,0-.47.12-.47.36l0,4.4a10.72,10.72,0,0,0,.28,2.62c0,.14.31.28.82.43a4.63,4.63,0,0,0,1,.22c.08,0,.12.19.12.56a1.34,1.34,0,0,1-.06.42l-3.78-.16-1.25,0-1.44.08-1.26.08a.58.58,0,0,1-.12-.42c0-.38,0-.57.12-.57a4.77,4.77,0,0,0,1.11-.21q.76-.21.84-.45a10.33,10.33,0,0,0,.23-2.5l-.06-11.48a9,9,0,0,0-.25-2.5c-.08-.16-.36-.31-.83-.46a4,4,0,0,0-1.07-.22c-.08,0-.12-.15-.12-.45a1.18,1.18,0,0,1,.06-.54l1.65.08q1.5.08,2.3.08l3.8-.2a1.53,1.53,0,0,1,.09.47c0,.34,0,.51-.12.51a4.86,4.86,0,0,0-1.07.24q-.8.24-.86.45A11.06,11.06,0,0,0,385.43,97.37Z"/><path class="cls-1" d="M408.28,99.51a6.56,6.56,0,0,1,4.78,1.92,6.37,6.37,0,0,1,2,4.7,6.73,6.73,0,0,1-13.47.07,6.4,6.4,0,0,1,1.92-4.74A6.52,6.52,0,0,1,408.28,99.51Zm-.38,1.4a2.39,2.39,0,0,0-2.16,1.36,6.38,6.38,0,0,0-.76,3.23,8.65,8.65,0,0,0,1,4.19,3,3,0,0,0,2.7,1.77,2.42,2.42,0,0,0,2.18-1.38,6.32,6.32,0,0,0,.77-3.21,10.16,10.16,0,0,0-.4-2.87A5.25,5.25,0,0,0,410,101.8,2.76,2.76,0,0,0,407.9,100.91Z"/><path class="cls-1" d="M425.65,99.43a3,3,0,0,1,2.44,1q0,2.53-1.41,2.53a1.77,1.77,0,0,1-1.16-.59,1.87,1.87,0,0,0-1.28-.59,1.59,1.59,0,0,0-1.44.94,3.94,3.94,0,0,0-.51,1.95l0,3.72a12.43,12.43,0,0,0,.22,2.67q.06.21.79.43a4.17,4.17,0,0,0,1,.22c.06,0,.09.14.11.43a3.19,3.19,0,0,1,0,.58l-1.58-.11q-1.34-.08-2-.08t-2.07.1l-1.59.13a.87.87,0,0,1-.12-.56c0-.3,0-.45.12-.45a4.11,4.11,0,0,0,1.08-.23q.73-.23.79-.44a9.71,9.71,0,0,0,.2-2.17l0-4.85a2.83,2.83,0,0,0-.49-1.9,1.43,1.43,0,0,0-.67-.44,3.35,3.35,0,0,0-.71-.17c-.19,0-.28,0-.28-.09,0-.58,0-.87.14-.89a42.22,42.22,0,0,0,4.78-.92l.24-.06c.08,0,.15.07.21.21a.71.71,0,0,1,.08.34l0,.42q0,.28-.07.59a3.79,3.79,0,0,0,0,.4,5.42,5.42,0,0,1,1.45-1.45A3.25,3.25,0,0,1,425.65,99.43Z"/><path class="cls-1" d="M436.12,99.37a5.5,5.5,0,0,1,2.5.54,4.71,4.71,0,0,1,1.73,1.39,6.92,6.92,0,0,1,1,1.75,5.11,5.11,0,0,1,.34,1.74c0,.44-.07.71-.22.82a1.68,1.68,0,0,1-.91.17l-7.1,0c-.14,0-.21.06-.21.18a5.77,5.77,0,0,0,.4,2.08,4.07,4.07,0,0,0,1.33,1.75,3.5,3.5,0,0,0,2.25.73,8.45,8.45,0,0,0,.86,0,4.42,4.42,0,0,0,.77-.15l.62-.2a2.5,2.5,0,0,0,.55-.27l.4-.25.59-.4a.48.48,0,0,1,.15.18.58.58,0,0,1,.09.3.91.91,0,0,1-.18.57,4.85,4.85,0,0,1-1.75,1.62,5.51,5.51,0,0,1-2.94.82,6,6,0,0,1-4.47-1.89,6.41,6.41,0,0,1-1.9-4.64,6.88,6.88,0,0,1,1.71-4.88A5.76,5.76,0,0,1,436.12,99.37Zm-.2,1.37a2.1,2.1,0,0,0-1.28.42,2.8,2.8,0,0,0-.86,1,5.7,5.7,0,0,0-.43,1.12,3.68,3.68,0,0,0-.13.88c0,.14.06.21.18.21l4.82,0c.18,0,.27-.15.27-.45a3.85,3.85,0,0,0-.71-2.11A2.13,2.13,0,0,0,435.92,100.74Z"/><path class="cls-1" d="M449.53,99.3a3.65,3.65,0,0,1,2.77,1,4.76,4.76,0,0,1,.94,3.31l0,5.86a1.36,1.36,0,0,0,.27.91.89.89,0,0,0,.71.31,1.86,1.86,0,0,0,1-.39c.12,0,.18.15.18.33a1.76,1.76,0,0,1-.17.89,7.27,7.27,0,0,1-1.19.75,3.1,3.1,0,0,1-1.42.39,2.17,2.17,0,0,1-1.34-.5,2.44,2.44,0,0,1-.87-1.1l-.22.19c-.13.11-.31.24-.53.4a8.57,8.57,0,0,1-.77.48,4.79,4.79,0,0,1-1,.41,4.34,4.34,0,0,1-1.17.17,3.55,3.55,0,0,1-2.43-.81,2.82,2.82,0,0,1-.95-2.24,2.75,2.75,0,0,1,.33-1.34,3.55,3.55,0,0,1,.81-1,6,6,0,0,1,1.27-.79,12.08,12.08,0,0,1,1.38-.59l1.48-.47,1.26-.39a.47.47,0,0,0,.27-.48V102.9a2.55,2.55,0,0,0-.48-1.63,1.55,1.55,0,0,0-1.28-.59,1.8,1.8,0,0,0-1.39.56,2.23,2.23,0,0,0-.5,1.56,1,1,0,0,1-.44.88,1.84,1.84,0,0,1-1,.29,1.68,1.68,0,0,1-1.55-.71q0-1.43,1.93-2.69A7.44,7.44,0,0,1,449.53,99.3Zm-1.28,11.42a2.31,2.31,0,0,0,1.38-.42,1.17,1.17,0,0,0,.58-1l0-3q-.21.09-.87.3t-1,.36a8,8,0,0,0-.83.42,1.79,1.79,0,0,0-.7.66,1.63,1.63,0,0,0-.22.83,1.83,1.83,0,0,0,.48,1.39A1.7,1.7,0,0,0,448.25,110.73Z"/><path class="cls-1" d="M460.55,109.33a1.94,1.94,0,0,1,.59,1.39,2,2,0,0,1-.57,1.41,1.84,1.84,0,0,1-1.38.62,1.92,1.92,0,0,1-1.43-.6,2,2,0,0,1-.6-1.41,1.91,1.91,0,0,1,.59-1.4,2,2,0,0,1,1.42-.6A1.86,1.86,0,0,1,460.55,109.33Z"/></svg>