<svg id="Layer_1" data-name="Layer 1" xmlns="http://www.w3.org/2000/svg" viewBox="0 0 852.85 561.38"><defs><style>.cls-1{fill:#fff;stroke:#1928eb;stroke-miterlimit:10;stroke-width:1.4px;}</style></defs><title>title</title><path class="cls-1" d="M20.85,8.1q.68,0,13.28-.88,1.24,3.79,5.63,14T50.52,46.1Q56.9,60.77,60.75,70.24c0,.18.14.27.41.27a.36.36,0,0,0,.4-.41Q73.33,41.44,80.29,23l4.8-15.75q4.07.39,11.12.35,5.29,0,16.12-.76A3.94,3.94,0,0,1,112.74,9c0,1.54-.17,2.3-.53,2.31h-.27a11,11,0,0,0-6.63,2.2q-2,1.5-1.72,7.33.6,12.06,2.18,56A35.85,35.85,0,0,0,108,89.24q.55,1.22,3.81,2.22a18.22,18.22,0,0,0,4.61,1q.54,0,.55,2.44a6.55,6.55,0,0,1-.26,2q-16.27-.73-16.67-.73-2.71,0-5.69.17t-6.57.37L82,97.1a2.89,2.89,0,0,1-.55-2q0-2.44.53-2.44a16,16,0,0,0,4.33-.9,8.49,8.49,0,0,0,3.78-2A7.58,7.58,0,0,0,91.45,85l0-7.59L89.84,36.21q-.59-8.4-1.67-8.39c-.27,0-.5.27-.67.82L61.94,91.92q-2.28,5.16-5.12,5.18a4.46,4.46,0,0,1-1.36-.26L24.73,24.07Q24,57.82,22.87,84.53a14.94,14.94,0,0,0,.43,4.2q.68,1.49,5.44,2.82a29.31,29.31,0,0,0,6.38,1.32q.54,0,.55,2.44a6.55,6.55,0,0,1-.26,2q-16.27-.73-17.08-.73-3.66,0-9.69.46t-7.38.45A3.14,3.14,0,0,1,.7,95.35q0-2.3.53-2.31A27.09,27.09,0,0,0,8,91.65q4.6-1.38,5.27-3.55,1.21-2.45,1.44-9.09.22-10.3.62-24.33T16,30.76q.29-9.89.28-12.33a13,13,0,0,0-.43-3.79q-.41-1.08-4.55-2a30.67,30.67,0,0,0-5.9-.92c-.36,0-.55-.76-.55-2.3a2.89,2.89,0,0,1,.53-2l7,.44Q17.33,8.12,20.85,8.1Z"/><path class="cls-1" d="M154.9,36.42a29.88,29.88,0,0,1,21.8,8.76,29.05,29.05,0,0,1,9.12,21.43,30.42,30.42,0,0,1-30.47,30.65,29.69,29.69,0,0,1-21.87-8.83,29.37,29.37,0,0,1-9.05-21.5,29.2,29.2,0,0,1,8.77-21.59A29.7,29.7,0,0,1,154.9,36.42Zm-1.73,6.38q-6.37,0-9.86,6.22a29.16,29.16,0,0,0-3.45,14.72,39.52,39.52,0,0,0,4.5,19.09q4.44,8.11,12.31,8.07,6.37,0,9.93-6.29a28.82,28.82,0,0,0,3.52-14.66,46.53,46.53,0,0,0-1.83-13.07,23.9,23.9,0,0,0-5.74-10.07A12.57,12.57,0,0,0,153.17,42.79Z"/><path class="cls-1" d="M200.89,45.67l-8.27,0q-.95,0-1-3.52a3.35,3.35,0,0,1,.13-1.22,37.9,37.9,0,0,0,10.4-7.24q1.75-1.77,3.84-4t4.92-5.79a9.65,9.65,0,0,1,2.58.33q1.22.33,1.22.74l.07,13.28q3.52,0,9.83,0l6.71,0q1.08,0,1.09,1.21a13.16,13.16,0,0,1-1.33,6l-16.26.08L215,78.26q0,5.42,2.35,8.25a7.74,7.74,0,0,0,6.38,2.81,12.85,12.85,0,0,0,2.84-.35,14.35,14.35,0,0,0,2.44-.76q.94-.41,1.76-.82a4.25,4.25,0,0,1,.95-.41q.54-.14,1.22,1.21c.46.9.64,1.49.55,1.76q-.8,1.9-5.74,4.43a21.37,21.37,0,0,1-9.68,2.56,17.09,17.09,0,0,1-12-4.48q-5-4.51-5-14Z"/><path class="cls-1" d="M284.73,35.75q17.35-.09,17.48,26.61l.07,14q0,8.27,1.15,12.19.14.95,3.6,1.95a20.78,20.78,0,0,0,4.68,1q.41,0,.48,2a14.05,14.05,0,0,1-.05,2.64q-.95-.13-7.25-.5t-9.29-.36q-3.39,0-9.15.45t-7.11.58a5,5,0,0,1-.42-2.57q0-2,.4-2a16.15,16.15,0,0,0,4.67-1q3-1,3.45-2a51.3,51.3,0,0,0,.76-9.9l-.07-13.28q-.06-11.25-3.13-15.5t-9.71-4.22A13,13,0,0,0,267.85,48q-3.38,2.32-3.36,5.17l.12,23.31q0,8.27,1.15,12.19.28.95,3.6,1.95a19.19,19.19,0,0,0,4.54,1c.27,0,.43.65.48,2a7.69,7.69,0,0,1-.19,2.64q-1.09-.13-7.12-.5t-9.15-.36q-3.25,0-9.42.46t-7.25.58a4,4,0,0,1-.56-2.57q0-2,.53-2a19,19,0,0,0,4.94-1q3.31-1,3.58-2a43.63,43.63,0,0,0,.9-9.76l-.29-56.38a53.53,53.53,0,0,0-.72-9.21q-.69-2.16-7.06-2.13h-1.22q-.81,0-.82-2.16c0-1.44.26-2.17.8-2.17q4.2-.43,8-1.12t6.29-1.39q2.5-.69,4.33-1.38t3.86-1.37h.27a1.46,1.46,0,0,1,1.09.74,3.75,3.75,0,0,1,.68,1.42,43.72,43.72,0,0,0-1.56,12.75L264.44,44c0,.54.18.81.55.81.09,0,.27-.14.54-.41a25.82,25.82,0,0,1,8.3-5.94A25,25,0,0,1,284.73,35.75Z"/><path class="cls-1" d="M346.53,35.43a25.13,25.13,0,0,1,11.4,2.45,21.45,21.45,0,0,1,7.89,6.33,31.54,31.54,0,0,1,4.38,8,23.36,23.36,0,0,1,1.53,7.92q0,3-1,3.73t-4.13.77l-32.39.17q-.95,0-.94.82a26.32,26.32,0,0,0,1.81,9.48,18.64,18.64,0,0,0,6.07,8,16,16,0,0,0,10.25,3.33,37,37,0,0,0,3.93-.22,20.23,20.23,0,0,0,3.52-.7q1.62-.48,2.84-.9a11.67,11.67,0,0,0,2.5-1.23L366,82.16q.54-.34,2.7-1.84a2.23,2.23,0,0,1,.68.81,2.62,2.62,0,0,1,.41,1.35,4.17,4.17,0,0,1-.8,2.58q-2,3.67-8,7.36a25.15,25.15,0,0,1-13.4,3.73,27.44,27.44,0,0,1-20.37-8.64,29.23,29.23,0,0,1-8.65-21.17q-.07-13.69,7.81-22.27A26.27,26.27,0,0,1,346.53,35.43Zm-.92,6.24a9.57,9.57,0,0,0-5.82,1.93,12.77,12.77,0,0,0-3.91,4.63,25.87,25.87,0,0,0-1.94,5.09,16.5,16.5,0,0,0-.59,4c0,.63.28.95.82.94l22-.11q1.22,0,1.21-2a17.57,17.57,0,0,0-3.23-9.61Q350.89,41.64,345.61,41.67Z"/><path class="cls-1" d="M417.54,35.07q7.45,0,11.14,4.42Q428.73,51,422.23,51q-2.44,0-5.3-2.68a8.49,8.49,0,0,0-5.84-2.68q-4.2,0-6.55,4.3a18,18,0,0,0-2.33,8.89l.09,16.94a56.79,56.79,0,0,0,1,12.19q.28.95,3.6,1.95a19.13,19.13,0,0,0,4.54,1c.27,0,.43.66.48,2a14.17,14.17,0,0,1-.05,2.64q-1.09-.13-7.19-.5t-9.22-.36q-3.25,0-9.42.46t-7.25.58a4,4,0,0,1-.56-2.57q0-2,.53-2a18.9,18.9,0,0,0,4.94-1q3.31-1,3.58-2a44.38,44.38,0,0,0,.9-9.9l-.11-22.09q0-6.37-2.21-8.66a6.53,6.53,0,0,0-3.06-2,15.51,15.51,0,0,0-3.26-.8q-1.29-.13-1.29-.4,0-3.93.66-4.07,6.23-.57,21.8-4.18a8,8,0,0,1,1.08-.28c.36,0,.68.31,1,.94a3.24,3.24,0,0,1,.35,1.56q-.07.61-.19,1.9t-.33,2.71a17.39,17.39,0,0,0-.19,1.83A24.86,24.86,0,0,1,409,38,14.85,14.85,0,0,1,417.54,35.07Z"/><path class="cls-1" d="M459.89,75.24q0,8.4,1,12.19.28.95,3.33,2.08a14.78,14.78,0,0,0,4.14,1.13q.41,0,.48,1.9a7.4,7.4,0,0,1-.19,2.58l-5.08-.31q-3.19-.19-5.76-.31t-4.88-.11q-2.58,0-5.15.16t-5.69.37l-5.15.37a3.83,3.83,0,0,1-.55-2.5c0-1.31.17-2,.53-2a14.48,14.48,0,0,0,4.54-1.17q3-1.17,3.31-2.12a45,45,0,0,0,1-10l-.29-56.38a47.26,47.26,0,0,0-.86-9.21q-.69-2.16-6.79-2.13h-1.36q-.81,0-.82-1.62,0-2.17.8-2.17,4.2-.43,8-1.12t6.29-1.39q2.5-.69,4.33-1.31t2.91-1L459,.7h.27c.36,0,.75.27,1.16.81a4.17,4.17,0,0,1,.75,1.35,42.8,42.8,0,0,0-1.56,12.75Z"/><path class="cls-1" d="M490.59,36q3,0,8.54-.45t6.91-.44a9.11,9.11,0,0,1,.28,2.44c0,1.27-.17,1.9-.53,1.9a14.82,14.82,0,0,0-4.26,1q-2.91,1-3,2.25v.81q.28,2.17,12.76,30.83,1.07-2.45,5.22-13.38t4.81-12.56a12.76,12.76,0,0,0,.79-4.21q0-1.76-2.19-3.31t-6.51-1.53q-.54,0-.55-2a3.4,3.4,0,0,1,.53-2.31q1.63,0,6.64.37t8.27.36q2.84,0,7-.44t6-.44a3.87,3.87,0,0,1,.55,2.17c0,1.45-.17,2.17-.53,2.17a17.16,17.16,0,0,0-5.48,1.38,7.49,7.49,0,0,0-4.65,4.09l-24.49,60q-8.3,19.83-20.09,19.89a7.33,7.33,0,0,1-5.43-1.87,6.33,6.33,0,0,1,.63-9.62q14.09-.07,18.51-11.21,3.21-8.15,3.61-9.23l-20-46a17.54,17.54,0,0,0-1.64-3.11,8.15,8.15,0,0,0-4-3,12.81,12.81,0,0,0-4.41-1c-.36,0-.55-.63-.55-1.89q0-2.17.39-2.44.81,0,7.25.37T490.59,36Z"/><path class="cls-1" d="M601.12,23.82l.26,51a39.83,39.83,0,0,0,1.28,10.84q.69,1.76,9.23,1.71l5,0q10.57-.05,16.11-2.93a15.57,15.57,0,0,0,4.85-4.77A28.56,28.56,0,0,0,642,71.32c.09-.54.72-.82,1.89-.82q3,0,3.8.79-.4,1.22-1.94,5.57t-2.34,6.58q-.8,2.24-1.73,5.5a37.48,37.48,0,0,0-1.19,5.29q-5.42,0-22.43-.29t-23.92,0l-18,.63a3.53,3.53,0,0,1-.42-2.17q0-2.3.39-2.31a22.32,22.32,0,0,0,5.15-.91q3.38-.9,3.92-2.12.93-2.85.89-12.34L585.8,23.5q0-8.26-1.14-11.51-.55-1.08-3.8-2.08a18.22,18.22,0,0,0-4.88-1q-.54,0-.55-2a5.45,5.45,0,0,1,.26-2.44q.68,0,7.52.37t10.5.35q1.08,0,17.34-.9a7,7,0,0,1,.42,2.17c0,1.54-.17,2.3-.53,2.31a22,22,0,0,0-4.87,1.11q-3.65,1.1-3.92,2.05A50.39,50.39,0,0,0,601.12,23.82Z"/><path class="cls-1" d="M685.2,33.69A29.88,29.88,0,0,1,707,42.46a29,29,0,0,1,9.12,21.43,30.7,30.7,0,0,1-61.39.32,29.2,29.2,0,0,1,8.77-21.59A29.69,29.69,0,0,1,685.2,33.69Zm-1.73,6.38q-6.37,0-9.86,6.22A29.16,29.16,0,0,0,670.16,61a39.51,39.51,0,0,0,4.5,19.09Q679.1,88.2,687,88.16q6.37,0,9.93-6.29a28.82,28.82,0,0,0,3.52-14.65,46.52,46.52,0,0,0-1.83-13.07,23.9,23.9,0,0,0-5.74-10.07A12.57,12.57,0,0,0,683.47,40.07Z"/><path class="cls-1" d="M773.33,41.78q-1.78-3.65-9.51-3.61-.41,0-.42-1.89a4.67,4.67,0,0,1,.39-2.44q1.9,0,6.57.37t7.73.37q3,0,7.93-.45t6.64-.44a3.94,3.94,0,0,1,.42,2.17q0,2.17-.8,2.17A16.19,16.19,0,0,0,787,39.34a7.86,7.86,0,0,0-4.59,3.89L760,91.18a9.18,9.18,0,0,1-1.75,2.31,3.42,3.42,0,0,1-2.3,1.23q-1.36,0-1.63-.8-2.74-6.08-7.47-16.83T738.72,58.9q-3.43-7.43-7.81-16.77-1.65-3.78-8.83-3.75-.54,0-.55-2.17a3.14,3.14,0,0,1,.53-2.17q1.22,0,7.18.37t9.22.36q3.25,0,9.35-.45t7-.44a4.41,4.41,0,0,1,.35,2.44c0,1.27-.24,1.9-.6,1.9a19.9,19.9,0,0,0-4.81.84q-3,.83-3,2.18a2.52,2.52,0,0,0,.28,1.35l13.58,31.1,12.06-26.9Q774.29,43.26,773.33,41.78Z"/><path class="cls-1" d="M827,33a25.12,25.12,0,0,1,11.4,2.45,21.46,21.46,0,0,1,7.89,6.33,31.57,31.57,0,0,1,4.38,8,23.38,23.38,0,0,1,1.53,7.92q0,3-1,3.73t-4.13.77l-32.39.17q-.95,0-.94.82a26.32,26.32,0,0,0,1.81,9.48,18.63,18.63,0,0,0,6.07,8,15.94,15.94,0,0,0,10.25,3.33,37,37,0,0,0,3.93-.22,20.21,20.21,0,0,0,3.52-.7q1.63-.48,2.84-.9a11.66,11.66,0,0,0,2.5-1.23l1.82-1.16q.54-.34,2.7-1.84a2.2,2.2,0,0,1,.68.81,2.62,2.62,0,0,1,.41,1.35,4.18,4.18,0,0,1-.8,2.58q-2,3.67-8,7.36a25.15,25.15,0,0,1-13.4,3.73A27.45,27.45,0,0,1,807.7,85a29.23,29.23,0,0,1-8.65-21.17q-.07-13.69,7.81-22.27A26.27,26.27,0,0,1,827,33ZM826,39.2a9.58,9.58,0,0,0-5.82,1.93,12.76,12.76,0,0,0-3.91,4.63,26,26,0,0,0-1.94,5.09,16.54,16.54,0,0,0-.59,4q0,.95.82.94l22-.11q1.22,0,1.21-2A17.56,17.56,0,0,0,834.53,44Q831.32,39.18,826,39.2Z"/><path class="cls-1" d="M122.52,272.22q-.57-7.16-2.22-10.7-.81-1.57-4.73-2.2a27.28,27.28,0,0,0-6.09-.46q-.54,0-.76-1.91a4.6,4.6,0,0,1,.14-2.53q14.53-.21,17.1-.42,3.51-.28,9-1.2t6.85-1a5.67,5.67,0,0,1,.44,2.14q.18,2.3-.36,2.34a25.93,25.93,0,0,0-5.73,1.48q-3.84,1.33-4.91,3.18-1.2,3.77-.59,11.33l4.1,51.2q.39,4.86,2.06,18.87-.5.58-2.93.78-2.16.17-4.57-2.76l-59.48-67L74.23,328q.65,8.11,2,11,.8,1.57,5.22,2.37a28,28,0,0,0,6.17.66c.27,0,.48.6.63,1.85a7.42,7.42,0,0,1,0,2.58q-16.28.49-17,.54-3.65.29-9,1.06t-7.05,1a3.4,3.4,0,0,1-.72-2.25q-.17-2.16.37-2.21a25.65,25.65,0,0,0,6.06-1.5q3.77-1.32,4.69-3.43,1.12-2.95.44-11.46l-4.24-53q-.58-7.29-2.28-9.74-.62-.9-4.8-1.38a35.3,35.3,0,0,0-6.08-.33q-.54,0-.77-2t.27-2.6q14.24-.46,16.13-.61,4.46-.36,12.1-1.65A140.44,140.44,0,0,0,87,270.65q7.58,9,20.72,23.63t17.94,20.25a39.07,39.07,0,0,0-.17-5.56Z"/><path class="cls-1" d="M182.16,278.46a29.88,29.88,0,0,1,22.39,7.11,29,29,0,0,1,10.7,20.69,30.76,30.76,0,0,1-50.56,25.67,30.51,30.51,0,0,1-3.51-43A29.69,29.69,0,0,1,182.16,278.46Zm-1.25,6.49q-6.35.51-9.37,6.94a29.15,29.15,0,0,0-2.34,14.94,39.53,39.53,0,0,0,5.92,18.7q5,7.75,12.88,7.13,6.35-.51,9.43-7a28.82,28.82,0,0,0,2.41-14.88,46.55,46.55,0,0,0-2.8-12.9,23.92,23.92,0,0,0-6.48-9.61A12.57,12.57,0,0,0,180.91,284.95Z"/><path class="cls-1" d="M259.7,272.25q7.43-.59,11.43,3.57.92,11.48-5.56,12-2.43.19-5.48-2.28a8.49,8.49,0,0,0-6-2.24q-4.19.34-6.21,4.78a18,18,0,0,0-1.66,9L247.54,314a56.72,56.72,0,0,0,1.92,12.08q.35.93,3.74,1.67a19.16,19.16,0,0,0,4.61.65c.27,0,.48.62.63,1.92a14.27,14.27,0,0,1,.14,2.64q-1.09,0-7.2,0t-9.22.33q-3.24.26-9.36,1.16t-7.18,1.12a4,4,0,0,1-.75-2.52q-.16-2,.38-2.07a18.85,18.85,0,0,0,4.85-1.41q3.23-1.28,3.42-2.25a44.31,44.31,0,0,0,.16-9.94l-1.76-22q-.51-6.35-2.85-8.47a6.53,6.53,0,0,0-3.2-1.78,15.49,15.49,0,0,0-3.31-.55c-.86,0-1.3-.12-1.32-.3q-.31-3.92.35-4.11,6.17-1,21.43-5.79a8.19,8.19,0,0,1,1.06-.36c.36,0,.7.26,1,.87a3.25,3.25,0,0,1,.46,1.53c0,.41,0,1-.05,1.91s-.06,1.77-.12,2.73a17.67,17.67,0,0,0-.06,1.84,24.9,24.9,0,0,1,6.1-7.08A14.85,14.85,0,0,1,259.7,272.25Z"/><path class="cls-1" d="M286.8,279.6l-8.24.66q-.94.08-1.23-3.44a3.35,3.35,0,0,1,0-1.23,37.94,37.94,0,0,0,9.83-8q1.61-1.9,3.53-4.29t4.47-6.14a9.7,9.7,0,0,1,2.59.13q1.24.24,1.27.65l1.06,13.24q3.51-.28,9.8-.72l6.69-.47q1.08-.09,1.18,1.13a13.18,13.18,0,0,1-.87,6.05l-16.21,1.3L303.32,311q.43,5.41,3,8.06a7.74,7.74,0,0,0,6.58,2.33,12.76,12.76,0,0,0,2.81-.57,14.36,14.36,0,0,0,2.37-.94q.91-.48,1.69-1a4.28,4.28,0,0,1,.91-.48q.53-.18,1.31,1.12t.68,1.71q-.66,2-5.39,4.85a21.37,21.37,0,0,1-9.46,3.27,17.09,17.09,0,0,1-12.32-3.57q-5.3-4.13-6.05-13.59Z"/><path class="cls-1" d="M369.67,263.44q17.29-1.38,19.42,25.23l1.11,13.92q.66,8.24,2.05,12.07.21.94,3.74,1.67a20.75,20.75,0,0,0,4.74.64q.4,0,.63,1.92a14.07,14.07,0,0,1,.14,2.64q-1-.06-7.27,0t-9.29.34q-3.38.27-9.09,1.13t-7,1.11a5,5,0,0,1-.61-2.53q-.16-2,.24-2.06a16.18,16.18,0,0,0,4.58-1.39q3-1.26,3.29-2.23a51.37,51.37,0,0,0,0-9.93l-1.06-13.24q-.9-11.21-4.28-15.22t-10-3.48a13,13,0,0,0-7.25,2.89q-3.19,2.57-3,5.4l1.86,23.24q.66,8.24,2.05,12.07.34.93,3.74,1.67A19.08,19.08,0,0,0,363,320q.41,0,.63,1.92a7.68,7.68,0,0,1,0,2.65q-1.09,0-7.14,0t-9.15.33q-3.24.26-9.36,1.16t-7.18,1.12a4,4,0,0,1-.75-2.52q-.16-2,.38-2.07a18.87,18.87,0,0,0,4.85-1.41q3.23-1.28,3.42-2.25a43.56,43.56,0,0,0,.17-9.8l-4.5-56.2a53.5,53.5,0,0,0-1.41-9.13q-.85-2.1-7.2-1.6l-1.22.1q-.81.07-1-2.1t.64-2.23q4.15-.74,7.88-1.72t6.17-1.85q2.44-.87,4.21-1.7t3.74-1.66l.27,0a1.46,1.46,0,0,1,1.14.66,3.75,3.75,0,0,1,.79,1.36,43.66,43.66,0,0,0-.61,12.83l2.19,27.29q.06.81.61.77c.09,0,.26-.16.51-.45a25.79,25.79,0,0,1,7.84-6.54A25,25,0,0,1,369.67,263.44Z"/><path class="cls-1" d="M456.65,246.15l1.74,21.75a.82.82,0,0,0,.25.59,1.78,1.78,0,0,0,.5.3h.14l1.08-.09q2.84-.23,6.66-5.16,9.88-12.48,21.61-28.92,2-2.74,1.84-4.23t-3.12-1.65a29,29,0,0,0-5-.14q-.54,0-.8-1.5a7.11,7.11,0,0,1-.06-2.51q15.06-.39,16.41-.5,2.56-.21,5.05-.54t5.38-.77l4.77-.72a5.71,5.71,0,0,1,.39,2.28c0,1.18-.06,1.77-.33,1.79q-9.37,1.84-13.19,6.77l-22.83,30.65q-1.35,1.88.57,3.76l34.62,35a13.79,13.79,0,0,0,6.9,3.8,22.11,22.11,0,0,0,6.12.87q.67-.05.88,2.51a4.18,4.18,0,0,1-.25,1.92q-16.28.49-18.57.67-4.32.35-10.31,1.17l-8.41,1.15a3.84,3.84,0,0,1-.74-2.46c-.1-1.3,0-2,.38-2a10.46,10.46,0,0,0,3.71-1.25q2.22-1.13,2.13-2.21-.05-.67-4.24-5.37T478.46,289.2q-7.24-7.24-14.27-13.47-.58-.49-3-.3-2.16.17-2,1.79l1.6,20A48.87,48.87,0,0,0,462.91,309q.35.93,3.87,1.66a20.75,20.75,0,0,0,4.74.64q.54,0,.75,2.52a6,6,0,0,1-.12,1.91q-16.28.49-17.22.56-2.7.22-5.66.59t-6.53.86l-5.71.8a2.64,2.64,0,0,1-.69-1.85q-.21-2.57.33-2.61a21.63,21.63,0,0,0,5-1.35q3.37-1.22,3.69-2.33a47.43,47.43,0,0,0,.17-11.43l-4.17-52.15q-.65-8.1-2-11.26-.63-1-3.95-1.79a18.21,18.21,0,0,0-4.95-.62c-.36,0-.59-.63-.7-2a5.46,5.46,0,0,1,.08-2.45q.67-.05,7.53-.19t10.5-.43q1.08-.09,17.23-2.19a7,7,0,0,1,.58,2.13q.18,2.3-.36,2.34a22.11,22.11,0,0,0-4.78,1.47q-3.56,1.38-3.75,2.34A50.38,50.38,0,0,0,456.65,246.15Z"/><path class="cls-1" d="M559.88,248.21a29.87,29.87,0,0,1,22.39,7.11A29,29,0,0,1,593,276a30.7,30.7,0,0,1-61.2,4.9,29.2,29.2,0,0,1,7.13-22.19A29.7,29.7,0,0,1,559.88,248.21Zm-1.25,6.49q-6.35.51-9.37,6.94a29.15,29.15,0,0,0-2.34,14.94,39.52,39.52,0,0,0,5.92,18.7q5,7.75,12.87,7.13,6.35-.51,9.43-7a28.82,28.82,0,0,0,2.41-14.88,46.55,46.55,0,0,0-2.8-12.9,23.91,23.91,0,0,0-6.48-9.61A12.57,12.57,0,0,0,558.63,254.7Z"/><path class="cls-1" d="M637.42,242q7.43-.59,11.43,3.57.92,11.48-5.57,12-2.43.19-5.49-2.28a8.49,8.49,0,0,0-6-2.24q-4.19.34-6.21,4.78a18,18,0,0,0-1.66,9l1.35,16.89a56.7,56.7,0,0,0,1.92,12.08q.34.93,3.74,1.67a19.12,19.12,0,0,0,4.61.65c.27,0,.48.62.63,1.92a14.36,14.36,0,0,1,.14,2.64q-1.1,0-7.21,0t-9.22.33q-3.24.26-9.36,1.16t-7.18,1.12a4,4,0,0,1-.75-2.52q-.16-2,.38-2.07a18.9,18.9,0,0,0,4.85-1.41q3.23-1.28,3.42-2.25a44.31,44.31,0,0,0,.16-9.94l-1.76-22q-.51-6.35-2.85-8.47a6.54,6.54,0,0,0-3.2-1.78,15.49,15.49,0,0,0-3.31-.55c-.86,0-1.3-.12-1.32-.3q-.31-3.92.35-4.11,6.17-1,21.42-5.79a8.16,8.16,0,0,1,1.06-.36c.36,0,.7.26,1,.87a3.24,3.24,0,0,1,.46,1.53q0,.61-.05,1.91t-.12,2.73a17.39,17.39,0,0,0-.06,1.84,24.88,24.88,0,0,1,6.09-7.08A14.84,14.84,0,0,1,637.42,242Z"/><path class="cls-1" d="M683.62,238.31a25.13,25.13,0,0,1,11.55,1.59,21.45,21.45,0,0,1,8.34,5.72,31.56,31.56,0,0,1,5,7.62,23.38,23.38,0,0,1,2.12,7.78q.24,3-.72,3.8t-4.06,1.07l-32.29,2.59q-.95.08-.88.89a26.3,26.3,0,0,0,2.51,9.32,18.64,18.64,0,0,0,6.65,7.49,16,16,0,0,0,10.47,2.56,37.18,37.18,0,0,0,3.9-.52,20.28,20.28,0,0,0,3.46-1q1.58-.6,2.77-1.11a11.57,11.57,0,0,0,2.4-1.42l1.73-1.29q.51-.38,2.56-2a2.21,2.21,0,0,1,.74.76,2.62,2.62,0,0,1,.51,1.32,4.17,4.17,0,0,1-.61,2.63q-1.73,3.81-7.39,7.93a25.14,25.14,0,0,1-13.08,4.72,27.45,27.45,0,0,1-21-7.09,29.23,29.23,0,0,1-10.2-20.46q-1.09-13.64,6.13-22.79A26.27,26.27,0,0,1,683.62,238.31Zm-.45,6.29a9.58,9.58,0,0,0-5.66,2.36,12.79,12.79,0,0,0-3.55,4.91,26,26,0,0,0-1.55,5.22,16.54,16.54,0,0,0-.29,4q.08.95.89.88l21.88-1.75q1.21-.1,1.05-2.12a17.57,17.57,0,0,0-3.94-9.34Q688.44,244.17,683.17,244.6Z"/><path class="cls-1" d="M743.2,233.54q8.37-.67,12.92,3.38t5.39,14.73l2.13,26.61a6.17,6.17,0,0,0,1.54,4,4.07,4.07,0,0,0,3.36,1.16,8.46,8.46,0,0,0,4.45-2.12q.83.21.93,1.42a8.07,8.07,0,0,1-.49,4.12,33.63,33.63,0,0,1-5.13,3.81,14.12,14.12,0,0,1-6.34,2.28,9.9,9.9,0,0,1-6.26-1.81,11.1,11.1,0,0,1-4.32-4.68q-.13.15-.94,1t-2.29,2a40.23,40.23,0,0,1-3.34,2.44,21.67,21.67,0,0,1-4.45,2.19,19.71,19.71,0,0,1-5.28,1.17q-6.76.54-11.31-2.83t-5.07-9.86a12.49,12.49,0,0,1,1.07-6.2,16.2,16.2,0,0,1,3.34-5,27.76,27.76,0,0,1,5.52-4,56,56,0,0,1,6.07-3.14q2.56-1.09,6.59-2.63t5.6-2.21a2.13,2.13,0,0,0,1-2.26l-.59-7.43a11.63,11.63,0,0,0-2.76-7.26,7.08,7.08,0,0,0-6-2.24,8.22,8.22,0,0,0-6.15,3q-2.1,2.69-1.73,7.28a4.39,4.39,0,0,1-1.71,4.15,8.41,8.41,0,0,1-4.49,1.65q-5,.4-7.28-2.68-.52-6.48,7.88-12.87A34,34,0,0,1,743.2,233.54Zm-1.93,52.36a10.52,10.52,0,0,0,6.13-2.39q2.48-2.1,2.29-4.54l-1.1-13.78q-.92.48-3.88,1.67t-4.53,2a37.23,37.23,0,0,0-3.63,2.2,8.18,8.18,0,0,0-2.94,3.23,7.47,7.47,0,0,0-.71,3.86q.35,4.32,2.67,6.18A7.8,7.8,0,0,0,741.27,285.9Z"/><path class="cls-1" d="M206.92,130.8a26.69,26.69,0,0,1,9.53-.13q3.91.8,5.44,2.6a15.22,15.22,0,0,1,.49,7.54A4.86,4.86,0,0,1,218,144.9a5.29,5.29,0,0,1-4.44-1.53q-2.17-1.91-4.54-3.78a6.23,6.23,0,0,0-5-1.43,7.22,7.22,0,0,0-5.44,4.47,22.78,22.78,0,0,0-2,9,55.33,55.33,0,0,0,.79,11l1,6.15c0,.09.13.21.33.36a.77.77,0,0,0,.58.18L214,166.86a1.08,1.08,0,0,1,.69,0c.1.08.19.33.27.78a13.93,13.93,0,0,1-.59,6.42l-13.91,2.3a.72.72,0,0,0-.67.93l4.92,29.82A51.87,51.87,0,0,0,207.75,219q.42.89,3.86,1.35a19.18,19.18,0,0,0,4.65.26c.27,0,.53.58.79,1.86a7.69,7.69,0,0,1,.23,2.64q-.82,0-7,.61t-9.43,1.15q-3.21.53-9,1.9t-6.86,1.68a2.57,2.57,0,0,1-.78-1.38,8.22,8.22,0,0,1-.34-2.07c0-.68.1-1,.37-1.09a18.15,18.15,0,0,0,4.51-1.78q3-1.53,3.16-2.51a44.86,44.86,0,0,0-.61-11.16l-5.08-30.75c-.1-.62-.42-.89-1-.8l-8,1.33q-.27,0-.4-.76-.24-1.47,1.23-4.19a5.45,5.45,0,0,1,3.88-3.11l2.14-.35a.72.72,0,0,0,.67-.93l-.22-1.34q-2.32-14,4.38-25.45T206.92,130.8Z"/><path class="cls-1" d="M251.29,158.22a29.88,29.88,0,0,1,22.91,5.21,29,29,0,0,1,12.39,19.72,30.7,30.7,0,0,1-60.57,10,29.2,29.2,0,0,1,5.25-22.71A29.7,29.7,0,0,1,251.29,158.22Zm-.7,6.57q-6.29,1-8.76,7.7a29.15,29.15,0,0,0-1.08,15.08,39.52,39.52,0,0,0,7.46,18.14q5.67,7.3,13.43,6,6.28-1,8.81-7.77a28.81,28.81,0,0,0,1.16-15,46.56,46.56,0,0,0-3.87-12.62,23.9,23.9,0,0,0-7.26-9A12.57,12.57,0,0,0,250.59,164.8Z"/><path class="cls-1" d="M328,145.55q7.35-1.21,11.69,2.6,1.88,11.37-4.54,12.43-2.41.4-5.66-1.81a8.48,8.48,0,0,0-6.19-1.72q-4.15.68-5.79,5.28a18,18,0,0,0-.89,9.15l2.76,16.71a56.74,56.74,0,0,0,2.92,11.88q.42.89,3.86,1.35a19.18,19.18,0,0,0,4.65.26c.27,0,.53.58.79,1.86a14.32,14.32,0,0,1,.36,2.62q-1.1,0-7.18.64t-9.16,1.1q-3.21.53-9.23,1.94t-7.06,1.72a4,4,0,0,1-1-2.45q-.33-2,.2-2.09a18.94,18.94,0,0,0,4.71-1.81q3.11-1.54,3.22-2.52a44.35,44.35,0,0,0-.68-9.92L302.29,171q-1-6.28-3.55-8.2a6.53,6.53,0,0,0-3.34-1.51,15.45,15.45,0,0,0-3.34-.27c-.86.05-1.31,0-1.34-.19q-.64-3.88,0-4.12,6.06-1.55,20.86-7.57a8,8,0,0,1,1-.44c.35-.06.72.2,1.09.78a3.26,3.26,0,0,1,.59,1.48q0,.61.11,1.91c.05.86.09,1.77.11,2.73a17.32,17.32,0,0,0,.1,1.84,24.83,24.83,0,0,1,5.48-7.57A14.84,14.84,0,0,1,328,145.55Z"/><path class="cls-1" d="M112.67,465.26a17.94,17.94,0,0,1-8.8-1.3,19.18,19.18,0,0,1-7-5.15A27.45,27.45,0,0,1,92,450.38a42,42,0,0,1-2.42-11.14,42.71,42.71,0,0,1,.42-11.56,27,27,0,0,1,3.31-9.1,18.11,18.11,0,0,1,14.43-8.89,19,19,0,0,1,8.22,1,18.61,18.61,0,0,1,6.68,4.2,23.83,23.83,0,0,1,4.9,7.07,36.88,36.88,0,0,1,2.88,9.58L143,430.4l-2.42-27.49a1,1,0,0,1,1-1.19l7.48-.66a1,1,0,0,1,1.19,1l6.82,77.6a1,1,0,0,1-1,1.19l-7.48.66a1,1,0,0,1-1.19-1l-3.7-42-12.53,1.1A37.59,37.59,0,0,1,130,449.62a24.25,24.25,0,0,1-3.58,7.9,18.34,18.34,0,0,1-5.84,5.34A19,19,0,0,1,112.67,465.26Zm8.82-28.82a34.74,34.74,0,0,0-1.4-7.29,22.69,22.69,0,0,0-2.72-5.9,12.7,12.7,0,0,0-3.9-3.85,7.89,7.89,0,0,0-4.93-1.13,7.58,7.58,0,0,0-4.53,2,12.91,12.91,0,0,0-3.12,4.47A22.69,22.69,0,0,0,99.24,431a34.81,34.81,0,0,0-.11,7.42,34.39,34.39,0,0,0,1.4,7.21,23.33,23.33,0,0,0,2.73,5.95,13.23,13.23,0,0,0,3.86,3.94,7.44,7.44,0,0,0,4.81,1.19,7.74,7.74,0,0,0,4.65-2,13,13,0,0,0,3.16-4.56,23.33,23.33,0,0,0,1.65-6.33A34.32,34.32,0,0,0,121.49,436.44Z"/><path class="cls-1" d="M209.2,452q-1.23,1.38-4.43,1.66L178.54,456q-3.53.31-5-.83t-1.74-4.42l-3.47-39.43q-.28-3.19.91-4.53t4.39-1.61l26.65-2.34q3.19-.28,4.64.74t1.74,4.38L208,423.41l13.87-1.22L219.61,396a1,1,0,0,1,1-1.19l7.48-.66a1,1,0,0,1,1.19,1l6.82,77.6a1,1,0,0,1-1,1.19l-7.48.66a1,1,0,0,1-1.19-1l-3.81-43.3-13.87,1.22,1.4,15.89Q210.43,450.65,209.2,452Zm-11.89-39.88a.87.87,0,0,0-1.19-1l-16.9,1.49a1.55,1.55,0,0,0-.87.25q-.2.19-.14.86l2.9,33q.07.76.29.91a1.54,1.54,0,0,0,.9.09l16.9-1.49a1.55,1.55,0,0,0,.87-.25c.13-.12.17-.44.13-.94Z"/><path class="cls-1" d="M296.89,440.93a2.29,2.29,0,0,1-1.16.78,66.78,66.78,0,0,1-8.09,2.41q-4.57,1.08-9.49,1.89t-10,1.39q-5.08.57-9.72.73-3.29.12-4.87-1.44a6.8,6.8,0,0,1-1.83-4.41l-3.85-43.8a1.32,1.32,0,0,1,1.07-1.28l7.23-.64a1.22,1.22,0,0,1,.92.3,1.13,1.13,0,0,1,.45.77l3.57,40.61q.07.84.43,1a3.13,3.13,0,0,0,1.29.18,103.77,103.77,0,0,0,14.61-1.5,138.53,138.53,0,0,0,16.35-3.85,1.17,1.17,0,0,1,1.24.19,2.94,2.94,0,0,1,.64,1l1.42,4.54A1.1,1.1,0,0,1,296.89,440.93Zm17.65,24.88a1,1,0,0,1-1,1.19l-7.48.66a1,1,0,0,1-1.19-1L298,389.06a1,1,0,0,1,1-1.19l7.48-.66a1,1,0,0,1,1.19,1Z"/><path class="cls-1" d="M325.31,440.84a1.17,1.17,0,0,1,.89-.46q6-.36,12.61-1.11t13.2-1.67q6.57-.91,12.74-2t11.33-2.22a2.32,2.32,0,0,1,1,0,.83.83,0,0,1,.7.74l1,5.42a1.2,1.2,0,0,1-.2,1.08,1.57,1.57,0,0,1-.76.53q-4.65,1.09-10.9,2.23t-13.15,2.17q-6.9,1-13.86,1.85t-12.94,1.26a1.18,1.18,0,0,1-1-.3,1.29,1.29,0,0,1-.41-.85l-.5-5.72A1.29,1.29,0,0,1,325.31,440.84ZM346,388.66a23,23,0,0,1,8.15.68,19.55,19.55,0,0,1,6.86,3.38,18.57,18.57,0,0,1,4.92,5.8,21,21,0,0,1,1.41,16,17.75,17.75,0,0,1-3.84,6.44,19.68,19.68,0,0,1-6.18,4.4,23.9,23.9,0,0,1-8,2.06,23.29,23.29,0,0,1-8.11-.64,19.26,19.26,0,0,1-6.77-3.26,18,18,0,0,1-4.86-5.67,20.94,20.94,0,0,1-1.41-16,18.81,18.81,0,0,1,3.79-6.56,19.06,19.06,0,0,1,6.13-4.52A23,23,0,0,1,346,388.66Zm.7,8a10.75,10.75,0,0,0-7.63,3.81,13.08,13.08,0,0,0,1.49,16.9,10.75,10.75,0,0,0,8.18,2.42,11,11,0,0,0,7.8-3.82A13.08,13.08,0,0,0,355,399,11,11,0,0,0,346.67,396.64Zm47,62.21q.1,1.09-1.08,1.2l-7.4.65a1.29,1.29,0,0,1-.82-.22,1,1,0,0,1-.45-.77l-6.82-77.6a1,1,0,0,1,.31-.79,1.2,1.2,0,0,1,.77-.41l7.4-.65q1.18-.1,1.27,1Z"/><path class="cls-1" d="M434.91,437.6a2,2,0,0,1-3,.18l-4.28-3.35q-1.28-1.07,0-2.63A54.57,54.57,0,0,0,436.07,420a60.18,60.18,0,0,0,5.08-13.49q.74-3.12,1.2-6.16t.6-6.15q.15-3.1,0-6.44t-.53-7a1.22,1.22,0,0,1,.3-.92,1.13,1.13,0,0,1,.77-.45l7.51-.4a1,1,0,0,1,.79.31,1.29,1.29,0,0,1,.41.85q.45,5.13.5,9.57a81.78,81.78,0,0,1-.34,8.63,39.62,39.62,0,0,0,3.3,7.67,57.07,57.07,0,0,0,4.79,7.25,54.13,54.13,0,0,0,5.68,6.28,47.09,47.09,0,0,0,5.88,4.78q1.43.89.4,2.59l-3.15,4.6a1.57,1.57,0,0,1-1.08.77,2.28,2.28,0,0,1-1.6-.37,44,44,0,0,1-4.63-3.57,54.94,54.94,0,0,1-4.78-4.71q-2.3-2.55-4.32-5.3a39.12,39.12,0,0,1-3.35-5.34,66.29,66.29,0,0,1-2.84,7.2,68.83,68.83,0,0,1-3.56,6.71,70.81,70.81,0,0,1-4,5.95A41.82,41.82,0,0,1,434.91,437.6Zm66.48-28.81a1.19,1.19,0,0,1-.77.41l-11.43,1,3.51,39.94a1,1,0,0,1-1,1.19l-7.48.66a1,1,0,0,1-1.19-1l-6.82-77.6a1,1,0,0,1,1-1.19l7.48-.66a1,1,0,0,1,1.19,1l2.6,29.6,11.43-1a1.29,1.29,0,0,1,.82.22.88.88,0,0,1,.44.68l.52,5.89A1.08,1.08,0,0,1,501.39,408.8Z"/><path class="cls-1" d="M554.71,406.69a1.37,1.37,0,0,1-.72.53q-3.89,1.1-8.54,2.11t-9.59,1.78q-4.93.77-9.92,1.34t-9.46.79q-3.29.12-4.57-1a5.33,5.33,0,0,1-1.52-3.76l-1.25-14.21a4.88,4.88,0,0,1,.82-3.71,5.45,5.45,0,0,1,3.73-1.43l19.42-1.71c.62-.05,1-.14,1.08-.26a2,2,0,0,0,.07-1.11l-.57-6.47a.94.94,0,0,0-1.37-1.15l-22.87,2a1.19,1.19,0,0,1-.83-.27,1,1,0,0,1-.44-.72L507.7,374a.88.88,0,0,1,.32-.75,1.28,1.28,0,0,1,.77-.36l28.08-2.47q3.28-.29,4.57.91a6.28,6.28,0,0,1,1.55,4.14l1.12,12.7q.27,3.11-.93,4.4a5.83,5.83,0,0,1-3.89,1.53l-19.17,1.69a1.5,1.5,0,0,0-.91.29,1.29,1.29,0,0,0-.17,1l.59,6.73q.13,1.43,1.64,1.3,7.67-.5,15.86-1.78a149.18,149.18,0,0,0,15-3.05,1.91,1.91,0,0,1,.89,0,.72.72,0,0,1,.6.58l1.29,5.05A.91.91,0,0,1,554.71,406.69Zm16.64,22.56a11.51,11.51,0,0,1-1.15,6.2,14.13,14.13,0,0,1-4.46,5.14,27.21,27.21,0,0,1-7.6,3.72,52.52,52.52,0,0,1-21.27,1.87,27.83,27.83,0,0,1-8.17-2.33,14.4,14.4,0,0,1-5.37-4.27,11.53,11.53,0,0,1-1.06-12.11,14.77,14.77,0,0,1,4.54-5.19,27,27,0,0,1,7.63-3.76,52.47,52.47,0,0,1,21.27-1.87,26.43,26.43,0,0,1,8.13,2.38,14.49,14.49,0,0,1,5.29,4.32A11.51,11.51,0,0,1,571.35,429.25Zm-10.09.89q-.3-3.45-4.38-5t-11.23-1q-7.15.63-10.89,2.91t-3.44,5.72q.3,3.45,4.38,5t11.23,1q7.15-.63,10.89-2.91T561.26,430.14Zm18.17-38.62a1.19,1.19,0,0,1-.77.41l-11.43,1L568.91,412a1,1,0,0,1-1,1.19l-7.48.66q-1.09.1-1.2-1.08l-4.07-46.33a1,1,0,0,1,1-1.19l7.48-.66a1,1,0,0,1,1.19,1l1.69,19.25,11.43-1a1.2,1.2,0,0,1,.83.27,1,1,0,0,1,.44.72l.52,5.89A1,1,0,0,1,579.43,391.51Z"/><path class="cls-1" d="M348.2,556a1.13,1.13,0,0,1-.77.44l-7.23.59a1.22,1.22,0,0,1-.91-.31,1.13,1.13,0,0,1-.44-.77l-1.33-16.24c0-.56-.19-.92-.43-1.07a2.24,2.24,0,0,0-1.28-.15L295,541.84a1.28,1.28,0,0,1-.82-.23.88.88,0,0,1-.44-.68l-.5-6.06a.85.85,0,0,1,.32-.79,1.42,1.42,0,0,1,.78-.32L315.79,532l-.66-8.08-31.8,2.6a1,1,0,0,1-1.27-1.08l-.46-5.64a1.29,1.29,0,0,1,.26-.91,1.08,1.08,0,0,1,.81-.45l73.19-6a1.49,1.49,0,0,1,1.37,1.16l.46,5.64a1.09,1.09,0,0,1-.36.83,1.28,1.28,0,0,1-.81.45l-31.71,2.59.66,8.08L340.86,530q3.2-.26,4.48.95t1.55,4.4l1.62,19.85A1.13,1.13,0,0,1,348.2,556Zm-5.39-49.82q-1.23,1.54-4.93,1.84l-38.11,3.12q-3.79.31-5.24-.88t-1.73-4.56l-1.87-22.88a.92.92,0,0,1,.28-.74,1.13,1.13,0,0,1,.73-.36l7.4-.61a1.29,1.29,0,0,1,.82.23.89.89,0,0,1,.44.68l.54,6.64,31.63-2.59-.55-6.73a1.16,1.16,0,0,1,1-1.18l7.49-.61a1.16,1.16,0,0,1,1.18,1l1.9,23.22A6.08,6.08,0,0,1,342.81,506.18Zm-9.41-12.53-31.63,2.59.45,5.47q.12,1.43,1.72,1.3l28.43-2.33q1.6-.13,1.48-1.56Z"/><path class="cls-1" d="M408,491.49a1.22,1.22,0,0,1-.85.45l-44.58,3.65a1.29,1.29,0,0,1-1-.34,1.38,1.38,0,0,1-.5-1l-.41-5a1.18,1.18,0,0,1,.39-.88,1.43,1.43,0,0,1,.93-.5l44.5-3.64a1.3,1.3,0,0,1,1.36,1.16l.41,5A1.31,1.31,0,0,1,408,491.49Zm-22.23,5.16a21.58,21.58,0,0,1,7.25.59,19.32,19.32,0,0,1,6.11,2.72,15.21,15.21,0,0,1,4.3,4.43,12.48,12.48,0,0,1,1.91,5.73,12.65,12.65,0,0,1-.94,6,15.2,15.2,0,0,1-3.52,5.07,19.32,19.32,0,0,1-5.59,3.68,21.82,21.82,0,0,1-7.14,1.77,20.82,20.82,0,0,1-7.16-.6,19.52,19.52,0,0,1-6-2.73,15.16,15.16,0,0,1-4.3-4.43,12.64,12.64,0,0,1-1.91-5.81,12.47,12.47,0,0,1,1-6,15.17,15.17,0,0,1,3.52-5.07,19.4,19.4,0,0,1,5.54-3.67A21.21,21.21,0,0,1,385.72,496.65Zm10.45-15.59a1.34,1.34,0,0,1-1,.51l-22,1.8a1.44,1.44,0,0,1-.83-.27,1.08,1.08,0,0,1-.54-.89l-.41-5a1.17,1.17,0,0,1,.38-1,1.45,1.45,0,0,1,.77-.4l22-1.8a1.44,1.44,0,0,1,1.55,1.31l.39,4.8A1.36,1.36,0,0,1,396.18,481.06ZM431.08,548a1.63,1.63,0,0,1-.82.32l-44.42,3.63q-3.78.31-5.24-.93t-1.72-4.52l-1.07-13A1.49,1.49,0,0,1,379,532.1l7.15-.58a1.25,1.25,0,0,1,1,.34,1.28,1.28,0,0,1,.45.81l.78,9.59q.07.84.43,1.07a2,2,0,0,0,1.2.16l39.62-3.24a1.35,1.35,0,0,1,.87.27,1,1,0,0,1,.48.72l.49,6A.83.83,0,0,1,431.08,548Zm-44.74-43.85a9.89,9.89,0,0,0-6.38,2.72,6.71,6.71,0,0,0-2.17,5.51,7,7,0,0,0,3.05,5.25A10.71,10.71,0,0,0,394,516.55a7.08,7.08,0,0,0,2.12-5.68,6.75,6.75,0,0,0-3-5.09A9.86,9.86,0,0,0,386.34,504.14Zm50.66.72a1.39,1.39,0,0,1-.86.37l-11.36.93,2,24.23a1,1,0,0,1-1,1.18l-7.49.61a1,1,0,0,1-1.18-1l-4.86-59.39a1,1,0,0,1,1-1.18l7.49-.61a1,1,0,0,1,1.18,1l2.22,27.09,11.36-.93a1.29,1.29,0,0,1,.91.26,1,1,0,0,1,.44.73l.49,6A.88.88,0,0,1,437,504.86Z"/><path class="cls-1" d="M496.93,541.41,490,542a1,1,0,0,1-1.27-1.08l-3.23-39.54-7.66.63a33.08,33.08,0,0,1-1.23,9.33,23.62,23.62,0,0,1-3.39,7.18,16.46,16.46,0,0,1-5.16,4.74,15.59,15.59,0,0,1-6.61,2,14.94,14.94,0,0,1-7.47-1.21,16.26,16.26,0,0,1-6-4.76,26.47,26.47,0,0,1-4.25-8,44.2,44.2,0,0,1-2.16-10.92,44.77,44.77,0,0,1,.4-11.72,25.52,25.52,0,0,1,3-8.55,15.16,15.16,0,0,1,5.19-5.34,15.9,15.9,0,0,1,7-2.18,17.19,17.19,0,0,1,7,.82,15.73,15.73,0,0,1,6,3.74A21.92,21.92,0,0,1,474.7,484a37,37,0,0,1,2.68,9.94l7.49-.61-2.11-25.83q-.09-1.09,1.09-1.19l6.9-.56a1,1,0,0,1,1.18,1l6,73.44Q498,541.32,496.93,541.41Zm-28.51-43.14a41,41,0,0,0-1-6.35,25.26,25.26,0,0,0-2.07-5.67,12,12,0,0,0-3.16-4,5.83,5.83,0,0,0-4.21-1.26A5.12,5.12,0,0,0,454.3,483a12.45,12.45,0,0,0-2.26,4.46,28.39,28.39,0,0,0-1,5.93,40.52,40.52,0,0,0,0,6.35,40,40,0,0,0,1,6.18,29.27,29.27,0,0,0,2,5.72,12.86,12.86,0,0,0,3,4.12,5.06,5.06,0,0,0,3.92,1.37,5.52,5.52,0,0,0,3.9-2,13.26,13.26,0,0,0,2.43-4.52,26.76,26.76,0,0,0,1.17-5.94A37.54,37.54,0,0,0,468.42,498.27Zm45,44.59-7.32.6a1,1,0,0,1-1.18-1l-6.36-77.73c-.06-.73.3-1.13,1.09-1.19l7.23-.59a1,1,0,0,1,1.18,1l6.36,77.73A1,1,0,0,1,513.4,542.86Z"/><path class="cls-1" d="M584.82,511.28a5.14,5.14,0,0,1-.88.58,55.26,55.26,0,0,1-6.5,1.84q-3.78.86-7.92,1.54t-8.25,1.14a68,68,0,0,1-7.33.47,7.89,7.89,0,0,1-4.7-1.05q-1.66-1.13-1.9-4.08l-3.26-39.79q-.24-2.94.88-4.22t4.32-1.54l24.4-2a1,1,0,0,1,1.27,1.08l.47,5.8q.09,1.09-1.09,1.19l-18.76,1.53q-1.6.13-1.48,1.56l2.51,30.7q.11,1.35.6,1.69a4.39,4.39,0,0,0,2.11.38,28.19,28.19,0,0,0,4.64-.21q2.85-.32,6.07-.88t6.34-1.24q3.12-.68,5.43-1.38a1.83,1.83,0,0,1,1.09-.09,1.08,1.08,0,0,1,.74.79l1.43,5A1,1,0,0,1,584.82,511.28Zm16.34-54.94c-.06-.73.3-1.13,1.09-1.19l7.23-.59a1,1,0,0,1,1.18,1L617,533.2a1,1,0,0,1-1,1.18l-7.32.6a1,1,0,0,1-1.18-1l-3.25-39.79-7.82.64,3,36.59q.1,1.18-1,1.27l-6.9.56a1,1,0,0,1-1.27-1.08l-6-72.93q-.09-1.09,1.09-1.19l6.9-.56a1,1,0,0,1,1.18,1l2.31,28.26,7.82-.64Z"/><path class="cls-1" d="M668.73,470.16a1.22,1.22,0,0,1-.85.45l-44.58,3.65a1.29,1.29,0,0,1-1-.34,1.38,1.38,0,0,1-.5-1l-.41-5a1.18,1.18,0,0,1,.39-.88,1.43,1.43,0,0,1,.93-.5l44.5-3.64a1.3,1.3,0,0,1,1.36,1.16l.41,5A1.31,1.31,0,0,1,668.73,470.16Zm-22.23,5.16a21.58,21.58,0,0,1,7.25.59,19.32,19.32,0,0,1,6.11,2.72,15.21,15.21,0,0,1,4.3,4.43,12.48,12.48,0,0,1,1.91,5.73,12.65,12.65,0,0,1-.94,6,15.2,15.2,0,0,1-3.52,5.07,19.32,19.32,0,0,1-5.59,3.68,21.82,21.82,0,0,1-7.14,1.77,20.82,20.82,0,0,1-7.16-.6,19.52,19.52,0,0,1-6-2.73,15.16,15.16,0,0,1-4.3-4.43,12.64,12.64,0,0,1-1.91-5.81,12.47,12.47,0,0,1,1-6,15.17,15.17,0,0,1,3.52-5.07,19.4,19.4,0,0,1,5.54-3.67A21.21,21.21,0,0,1,646.5,475.32ZM657,459.73a1.34,1.34,0,0,1-1,.51L634,462a1.44,1.44,0,0,1-.83-.27,1.08,1.08,0,0,1-.54-.89l-.41-5a1.17,1.17,0,0,1,.38-1,1.45,1.45,0,0,1,.77-.4l22-1.8a1.44,1.44,0,0,1,1.55,1.31l.39,4.8A1.36,1.36,0,0,1,657,459.73Zm34.9,66.92a1.63,1.63,0,0,1-.82.32l-44.42,3.63q-3.78.31-5.24-.93t-1.72-4.52l-1.07-13a1.49,1.49,0,0,1,1.16-1.36l7.15-.58a1.25,1.25,0,0,1,1,.34,1.28,1.28,0,0,1,.45.81l.78,9.59q.07.84.43,1.07a2,2,0,0,0,1.2.16l39.62-3.24a1.35,1.35,0,0,1,.87.27,1,1,0,0,1,.48.72l.49,6A.83.83,0,0,1,691.85,526.65Zm-44.74-43.85a9.89,9.89,0,0,0-6.38,2.72,6.71,6.71,0,0,0-2.17,5.51,7,7,0,0,0,3.05,5.25,10.71,10.71,0,0,0,13.17-1.08,7.08,7.08,0,0,0,2.12-5.68,6.75,6.75,0,0,0-3-5.09A9.86,9.86,0,0,0,647.11,482.81Zm50.66.72a1.39,1.39,0,0,1-.86.37l-11.36.93,2,24.23a1,1,0,0,1-1,1.18l-7.49.61a1,1,0,0,1-1.18-1L673,450.46a1,1,0,0,1,1-1.18l7.49-.61a1,1,0,0,1,1.18,1l2.22,27.09,11.36-.93a1.29,1.29,0,0,1,.91.26,1,1,0,0,1,.44.73l.49,6A.88.88,0,0,1,697.77,483.53Z"/></svg>