<svg id="Layer_1" data-name="Layer 1" xmlns="http://www.w3.org/2000/svg" viewBox="0 0 1163.56 487.58"><defs><style>.cls-1{fill:#fff;stroke:#1928eb;stroke-miterlimit:10;stroke-width:1.4px;}.cls-2{fill:#1928eb;}</style></defs><title>title</title><path class="cls-1" d="M28.46,8.1q.68,0,13.28-.88Q43,11,47.37,21.22T58.13,46.1q6.38,14.67,10.22,24.14c0,.18.14.27.41.27a.36.36,0,0,0,.4-.41Q80.94,41.44,87.9,23L92.7,7.23q4.07.39,11.12.35,5.29,0,16.12-.76A3.94,3.94,0,0,1,120.35,9q0,2.31-.53,2.31h-.27a11,11,0,0,0-6.63,2.2q-2,1.5-1.72,7.33.6,12.06,2.18,56a35.8,35.8,0,0,0,2.23,12.46q.54,1.22,3.81,2.22a18.22,18.22,0,0,0,4.61,1q.54,0,.55,2.44a6.55,6.55,0,0,1-.26,2q-16.27-.73-16.67-.73-2.71,0-5.69.17t-6.57.37l-5.76.37a2.87,2.87,0,0,1-.55-2q0-2.44.53-2.44a16,16,0,0,0,4.33-.9,8.48,8.48,0,0,0,3.78-2A7.59,7.59,0,0,0,99.06,85l0-7.59L97.45,36.21q-.59-8.4-1.67-8.39-.41,0-.67.82L69.55,91.92q-2.28,5.16-5.12,5.18a4.45,4.45,0,0,1-1.36-.26L32.34,24.07q-.78,33.75-1.86,60.45a14.92,14.92,0,0,0,.43,4.2q.68,1.49,5.44,2.82a29.32,29.32,0,0,0,6.38,1.32q.54,0,.55,2.44a6.52,6.52,0,0,1-.26,2q-16.27-.73-17.08-.73-3.66,0-9.69.46t-7.38.45a3.13,3.13,0,0,1-.55-2.17q0-2.3.53-2.31a27.12,27.12,0,0,0,6.77-1.39q4.6-1.38,5.27-3.55,1.21-2.45,1.44-9.09.22-10.3.62-24.33t.69-23.92q.29-9.89.28-12.33a13,13,0,0,0-.43-3.79q-.41-1.08-4.55-2A30.66,30.66,0,0,0,13,11.7c-.36,0-.55-.76-.55-2.3a2.89,2.89,0,0,1,.53-2l7,.44Q24.94,8.12,28.46,8.1Z"/><path class="cls-1" d="M162.51,36.42a29.88,29.88,0,0,1,21.8,8.76,29,29,0,0,1,9.12,21.43A30.42,30.42,0,0,1,163,97.26a29.68,29.68,0,0,1-21.87-8.83A29.37,29.37,0,0,1,132,66.93a29.19,29.19,0,0,1,8.77-21.59A29.69,29.69,0,0,1,162.51,36.42Zm-1.73,6.38q-6.37,0-9.86,6.22a29.14,29.14,0,0,0-3.45,14.72A39.53,39.53,0,0,0,152,82.82q4.44,8.11,12.31,8.07,6.37,0,9.93-6.29a28.82,28.82,0,0,0,3.52-14.66,46.49,46.49,0,0,0-1.83-13.07,23.88,23.88,0,0,0-5.74-10.07A12.57,12.57,0,0,0,160.78,42.79Z"/><path class="cls-1" d="M208.5,45.67l-8.27,0q-.95,0-1-3.52a3.36,3.36,0,0,1,.13-1.22,37.9,37.9,0,0,0,10.4-7.24q1.75-1.77,3.84-4t4.92-5.79a9.66,9.66,0,0,1,2.58.33q1.22.33,1.22.74l.07,13.28q3.52,0,9.83,0l6.71,0c.72,0,1.09.4,1.09,1.21a13.16,13.16,0,0,1-1.32,6l-16.26.08.17,32.66q0,5.42,2.35,8.25a7.74,7.74,0,0,0,6.38,2.81A12.85,12.85,0,0,0,234.2,89a14.35,14.35,0,0,0,2.44-.76c.63-.27,1.22-.55,1.76-.82a4.25,4.25,0,0,1,.95-.41q.54-.14,1.23,1.21c.46.9.64,1.49.55,1.76q-.8,1.9-5.74,4.43a21.36,21.36,0,0,1-9.68,2.56,17.09,17.09,0,0,1-12-4.48q-5-4.51-5-14Z"/><path class="cls-1" d="M292.34,35.75q17.35-.09,17.48,26.61l.07,14q0,8.27,1.15,12.19.14.95,3.6,1.95a20.75,20.75,0,0,0,4.68,1q.41,0,.48,2a14.23,14.23,0,0,1-.05,2.64q-1-.13-7.25-.5t-9.29-.36q-3.39,0-9.14.45t-7.11.58a5.07,5.07,0,0,1-.42-2.57q0-2,.4-2a16.15,16.15,0,0,0,4.67-1q3-1,3.45-2a51.46,51.46,0,0,0,.76-9.9l-.07-13.28q-.06-11.25-3.13-15.5t-9.71-4.22A13,13,0,0,0,275.46,48q-3.38,2.32-3.36,5.17l.12,23.31q0,8.27,1.15,12.19.27.95,3.6,1.95a19.2,19.2,0,0,0,4.55,1c.27,0,.43.65.49,2a7.69,7.69,0,0,1-.19,2.64q-1.09-.13-7.12-.5t-9.15-.36q-3.25,0-9.42.46t-7.25.58a4,4,0,0,1-.55-2.57q0-2,.53-2a18.94,18.94,0,0,0,4.94-1q3.31-1,3.58-2a43.58,43.58,0,0,0,.9-9.76L258,22.64a53.43,53.43,0,0,0-.73-9.21q-.69-2.16-7.06-2.13H249q-.81,0-.82-2.16c0-1.44.26-2.17.8-2.17q4.2-.43,8-1.12t6.29-1.39q2.5-.69,4.33-1.38t3.85-1.37h.27a1.46,1.46,0,0,1,1.09.74,3.74,3.74,0,0,1,.69,1.42,43.65,43.65,0,0,0-1.56,12.75L272.05,44q0,.81.54.81c.09,0,.27-.14.54-.41a25.8,25.8,0,0,1,8.3-5.94A25,25,0,0,1,292.34,35.75Z"/><path class="cls-1" d="M354.13,35.43a25.12,25.12,0,0,1,11.4,2.45,21.46,21.46,0,0,1,7.89,6.33,31.54,31.54,0,0,1,4.38,8,23.38,23.38,0,0,1,1.53,7.92q0,3-1,3.73t-4.13.77l-32.39.17q-.95,0-.94.82a26.32,26.32,0,0,0,1.81,9.48,18.63,18.63,0,0,0,6.07,8A15.94,15.94,0,0,0,359,86.36a37,37,0,0,0,3.93-.22,20.21,20.21,0,0,0,3.52-.7q1.62-.48,2.84-.9a11.65,11.65,0,0,0,2.5-1.23l1.82-1.16q.54-.34,2.7-1.84a2.21,2.21,0,0,1,.68.81,2.62,2.62,0,0,1,.41,1.35,4.17,4.17,0,0,1-.8,2.58q-2,3.67-8,7.36a25.15,25.15,0,0,1-13.4,3.73,27.45,27.45,0,0,1-20.37-8.64,29.23,29.23,0,0,1-8.65-21.17q-.07-13.69,7.81-22.27A26.27,26.27,0,0,1,354.13,35.43Zm-.92,6.24a9.58,9.58,0,0,0-5.82,1.93,12.76,12.76,0,0,0-3.91,4.63,25.94,25.94,0,0,0-1.94,5.09,16.54,16.54,0,0,0-.59,4q0,.95.82.94l22-.11q1.22,0,1.21-2a17.56,17.56,0,0,0-3.23-9.61Q358.5,41.64,353.22,41.67Z"/><path class="cls-1" d="M425.15,35.07q7.45,0,11.14,4.42Q436.34,51,429.84,51q-2.44,0-5.3-2.68a8.48,8.48,0,0,0-5.84-2.68q-4.2,0-6.55,4.3a18,18,0,0,0-2.33,8.89l.09,16.94a56.6,56.6,0,0,0,1,12.19q.27.95,3.6,1.95a19.12,19.12,0,0,0,4.55,1c.27,0,.43.66.48,2a14.14,14.14,0,0,1-.05,2.64q-1.09-.13-7.19-.5t-9.22-.36q-3.25,0-9.42.46t-7.25.58a4,4,0,0,1-.56-2.57q0-2,.53-2a18.89,18.89,0,0,0,4.94-1q3.31-1,3.58-2a44.26,44.26,0,0,0,.9-9.9l-.11-22.09q0-6.37-2.21-8.66a6.55,6.55,0,0,0-3.06-2,15.51,15.51,0,0,0-3.26-.8c-.86-.08-1.29-.22-1.29-.4q0-3.93.66-4.07,6.23-.57,21.8-4.18a8,8,0,0,1,1.08-.28q.54,0,1,.94a3.25,3.25,0,0,1,.35,1.56q-.07.61-.19,1.9t-.32,2.71a17.5,17.5,0,0,0-.19,1.83A24.89,24.89,0,0,1,416.63,38,14.85,14.85,0,0,1,425.15,35.07Z"/><path class="cls-1" d="M467.5,75.24q0,8.4,1,12.19.27.95,3.33,2.08A14.8,14.8,0,0,0,476,90.64c.27,0,.43.63.48,1.9a7.37,7.37,0,0,1-.19,2.58l-5.08-.31q-3.19-.19-5.76-.31t-4.88-.11q-2.58,0-5.15.16t-5.69.37l-5.15.37a3.83,3.83,0,0,1-.55-2.5c0-1.31.17-2,.53-2a14.48,14.48,0,0,0,4.53-1.17q3-1.17,3.31-2.12a44.91,44.91,0,0,0,1-10l-.29-56.38a47.18,47.18,0,0,0-.86-9.21q-.69-2.16-6.79-2.13h-1.36q-.81,0-.82-1.62,0-2.17.8-2.17,4.2-.43,8-1.12t6.29-1.39q2.5-.69,4.33-1.31t2.91-1l.95-.41h.27c.36,0,.75.27,1.16.81a4.15,4.15,0,0,1,.75,1.35,42.84,42.84,0,0,0-1.56,12.75Z"/><path class="cls-1" d="M498.2,36q3,0,8.54-.45t6.91-.44a9.14,9.14,0,0,1,.28,2.44c0,1.27-.17,1.9-.53,1.9a14.82,14.82,0,0,0-4.26,1q-2.91,1-3,2.25v.81q.28,2.17,12.76,30.83,1.07-2.45,5.22-13.38t4.81-12.56a12.69,12.69,0,0,0,.79-4.21q0-1.76-2.18-3.31T521,39.45q-.54,0-.55-2a3.4,3.4,0,0,1,.53-2.31q1.63,0,6.64.37t8.27.36q2.85,0,7-.44t6-.44a3.87,3.87,0,0,1,.55,2.17q0,2.17-.53,2.17a17.17,17.17,0,0,0-5.48,1.38,7.49,7.49,0,0,0-4.65,4.09l-24.49,60q-8.3,19.83-20.09,19.89a7.33,7.33,0,0,1-5.43-1.87,6.33,6.33,0,0,1,.63-9.62q14.09-.07,18.51-11.21,3.21-8.15,3.61-9.23l-20-46a17.56,17.56,0,0,0-1.64-3.11,8.15,8.15,0,0,0-4-3,12.8,12.8,0,0,0-4.41-1c-.36,0-.55-.63-.55-1.89q0-2.17.39-2.44.81,0,7.25.37T498.2,36Z"/><path class="cls-1" d="M608.73,23.82l.26,51a39.87,39.87,0,0,0,1.28,10.84q.69,1.76,9.22,1.71l5,0q10.57-.05,16.11-2.93a15.58,15.58,0,0,0,4.85-4.77,28.59,28.59,0,0,0,4.16-8.29q.13-.81,1.89-.82,3,0,3.8.79-.4,1.22-1.94,5.57T651,83.44q-.8,2.24-1.73,5.5a37.53,37.53,0,0,0-1.19,5.29q-5.42,0-22.43-.29t-23.92,0l-18,.63a3.54,3.54,0,0,1-.42-2.17q0-2.3.4-2.31a22.33,22.33,0,0,0,5.14-.91q3.38-.9,3.92-2.12.93-2.85.88-12.34l-.26-51.23q0-8.26-1.14-11.51-.55-1.08-3.81-2.08a18.21,18.21,0,0,0-4.88-1q-.54,0-.55-2a5.47,5.47,0,0,1,.26-2.44q.68,0,7.52.37t10.51.35q1.08,0,17.34-.9a6.93,6.93,0,0,1,.42,2.17q0,2.31-.53,2.31a22,22,0,0,0-4.87,1.11q-3.65,1.1-3.92,2.05A50.34,50.34,0,0,0,608.73,23.82Z"/><path class="cls-1" d="M692.8,33.69a29.88,29.88,0,0,1,21.8,8.76,29,29,0,0,1,9.12,21.43,30.7,30.7,0,0,1-61.39.32,29.19,29.19,0,0,1,8.77-21.59A29.69,29.69,0,0,1,692.8,33.69Zm-1.73,6.38q-6.37,0-9.86,6.22A29.14,29.14,0,0,0,677.77,61a39.53,39.53,0,0,0,4.5,19.09q4.44,8.11,12.31,8.07,6.37,0,9.93-6.29A28.82,28.82,0,0,0,708,67.22a46.49,46.49,0,0,0-1.83-13.07,23.88,23.88,0,0,0-5.74-10.07A12.57,12.57,0,0,0,691.08,40.07Z"/><path class="cls-1" d="M780.94,41.78q-1.78-3.65-9.5-3.61-.41,0-.42-1.89a4.67,4.67,0,0,1,.39-2.44q1.9,0,6.58.37t7.73.37q3,0,7.93-.45t6.64-.44a3.94,3.94,0,0,1,.42,2.17q0,2.17-.8,2.17a16.19,16.19,0,0,0-5.28,1.32A7.86,7.86,0,0,0,790,43.22l-22.39,48a9.19,9.19,0,0,1-1.75,2.31,3.43,3.43,0,0,1-2.3,1.23q-1.36,0-1.63-.8-2.74-6.08-7.47-16.83T746.33,58.9q-3.43-7.43-7.81-16.77-1.65-3.78-8.83-3.75-.54,0-.55-2.17a3.14,3.14,0,0,1,.53-2.17q1.22,0,7.18.37t9.22.36q3.25,0,9.35-.45t7-.44a4.41,4.41,0,0,1,.35,2.44c0,1.27-.24,1.9-.6,1.9a19.91,19.91,0,0,0-4.81.84q-3,.83-3,2.18a2.53,2.53,0,0,0,.28,1.35l13.58,31.1,12.06-26.9Q781.9,43.26,780.94,41.78Z"/><path class="cls-1" d="M834.56,33A25.13,25.13,0,0,1,846,35.41a21.45,21.45,0,0,1,7.89,6.33,31.51,31.51,0,0,1,4.38,8,23.36,23.36,0,0,1,1.53,7.92q0,3-1,3.73t-4.13.77l-32.39.17q-.95,0-.94.82a26.32,26.32,0,0,0,1.81,9.48,18.64,18.64,0,0,0,6.07,8,16,16,0,0,0,10.25,3.33,37,37,0,0,0,3.93-.22,20.23,20.23,0,0,0,3.52-.7q1.62-.48,2.84-.9a11.67,11.67,0,0,0,2.5-1.23L854,79.69q.54-.34,2.7-1.84a2.23,2.23,0,0,1,.68.81,2.63,2.63,0,0,1,.41,1.35,4.17,4.17,0,0,1-.8,2.58q-2,3.67-8,7.36a25.15,25.15,0,0,1-13.4,3.73A27.44,27.44,0,0,1,815.31,85a29.23,29.23,0,0,1-8.65-21.17q-.07-13.69,7.81-22.27A26.27,26.27,0,0,1,834.56,33Zm-.92,6.24a9.57,9.57,0,0,0-5.82,1.93,12.77,12.77,0,0,0-3.91,4.63A25.89,25.89,0,0,0,822,50.85a16.5,16.5,0,0,0-.59,4c0,.63.28.95.82.94l22-.11q1.22,0,1.21-2A17.57,17.57,0,0,0,842.14,44Q838.93,39.18,833.64,39.2Z"/><path class="cls-1" d="M272.59,163.41a26.69,26.69,0,0,1,9.5.67q3.83,1.12,5.21,3.05a15.21,15.21,0,0,1-.14,7.56,4.86,4.86,0,0,1-4.67,3.7,5.29,5.29,0,0,1-4.3-1.9q-2-2.08-4.21-4.15a6.23,6.23,0,0,0-4.91-1.85,7.22,7.22,0,0,0-5.8,4,22.82,22.82,0,0,0-2.76,8.79,55.35,55.35,0,0,0-.14,11l.5,6.21c0,.09.11.22.3.38a.78.78,0,0,0,.56.23l14.86-1.19a1.08,1.08,0,0,1,.69.08,1.43,1.43,0,0,1,.2.8,13.94,13.94,0,0,1-1.12,6.34l-14,1.13a.72.72,0,0,0-.75.88L264,239.28A51.8,51.8,0,0,0,266,251.35q.34.93,3.74,1.67a19.14,19.14,0,0,0,4.61.65c.27,0,.48.62.63,1.92a7.71,7.71,0,0,1,0,2.65q-.82-.07-7.07,0t-9.49.35q-3.24.26-9.15,1.14t-7,1.1a2.56,2.56,0,0,1-.66-1.44,8,8,0,0,1-.17-2.09c0-.68.19-1,.46-1.06a18.2,18.2,0,0,0,4.65-1.39q3.16-1.27,3.36-2.24a45,45,0,0,0,.33-11.17l-2.49-31.07c-.05-.63-.35-.92-.89-.88l-8.11.65c-.18,0-.29-.25-.33-.79q-.12-1.48,1.58-4.07a5.44,5.44,0,0,1,4.13-2.78l2.16-.17a.72.72,0,0,0,.75-.88l-.11-1.35q-1.14-14.18,6.5-25T272.59,163.41Z"/><path class="cls-1" d="M314.5,194.45a29.88,29.88,0,0,1,22.39,7.11,29,29,0,0,1,10.7,20.69,30.91,30.91,0,1,1-33.09-27.8Zm-1.25,6.49q-6.35.51-9.37,6.94a29.15,29.15,0,0,0-2.34,14.94,39.52,39.52,0,0,0,5.92,18.7q5,7.75,12.88,7.13,6.35-.51,9.43-7a28.83,28.83,0,0,0,2.41-14.88,46.54,46.54,0,0,0-2.8-12.9,23.92,23.92,0,0,0-6.48-9.61A12.56,12.56,0,0,0,313.26,200.94Z"/><path class="cls-1" d="M392,188.24q7.43-.59,11.43,3.57.92,11.48-5.56,12-2.43.19-5.48-2.28a8.49,8.49,0,0,0-6-2.24q-4.19.34-6.21,4.78a18,18,0,0,0-1.66,9L379.89,230a56.58,56.58,0,0,0,1.92,12.08q.34.93,3.74,1.67a19.13,19.13,0,0,0,4.61.65c.27,0,.48.62.63,1.92a14.15,14.15,0,0,1,.14,2.64q-1.09,0-7.2,0t-9.22.33q-3.24.26-9.36,1.16T358,251.61a4,4,0,0,1-.75-2.52c-.11-1.35,0-2,.38-2.07a18.88,18.88,0,0,0,4.85-1.41q3.23-1.28,3.42-2.25a44.31,44.31,0,0,0,.16-9.94l-1.76-22q-.51-6.35-2.85-8.47a6.53,6.53,0,0,0-3.2-1.78,15.46,15.46,0,0,0-3.31-.55q-1.29,0-1.31-.3-.31-3.92.35-4.11,6.17-1,21.43-5.79a8.31,8.31,0,0,1,1.06-.36c.36,0,.7.26,1,.87a3.25,3.25,0,0,1,.46,1.53q0,.61-.05,1.91t-.12,2.73a17.21,17.21,0,0,0-.06,1.84,24.88,24.88,0,0,1,6.1-7.08A14.85,14.85,0,0,1,392,188.24Z"/><path class="cls-1" d="M511.4,167.67q-.57-7.16-2.22-10.7-.81-1.57-4.73-2.2a27.21,27.21,0,0,0-6.09-.46q-.54,0-.76-1.91a4.6,4.6,0,0,1,.14-2.53q14.53-.21,17.1-.42,3.51-.28,9-1.2t6.85-1a5.64,5.64,0,0,1,.44,2.14c.12,1.53,0,2.31-.36,2.34a26,26,0,0,0-5.73,1.48q-3.84,1.33-4.91,3.18-1.2,3.77-.59,11.33l4.1,51.2q.39,4.86,2.05,18.87-.5.58-2.93.78-2.16.17-4.57-2.76l-59.48-67,4.38,54.71q.65,8.11,2,11,.81,1.57,5.22,2.37a28.07,28.07,0,0,0,6.17.66c.27,0,.48.6.63,1.85a7.37,7.37,0,0,1,0,2.58q-16.28.49-17,.54-3.65.29-9,1.06t-7.05,1a3.41,3.41,0,0,1-.72-2.25q-.17-2.16.37-2.21a25.73,25.73,0,0,0,6.07-1.51q3.77-1.32,4.69-3.43,1.12-2.94.44-11.46l-4.24-53q-.58-7.29-2.28-9.74-.62-.9-4.8-1.38a35.32,35.32,0,0,0-6.08-.33q-.54,0-.77-2t.27-2.6q14.24-.46,16.13-.61,4.46-.36,12.1-1.65a140.72,140.72,0,0,0,10.54,13.64q7.58,9,20.72,23.63T514.52,210a38.76,38.76,0,0,0-.17-5.56Z"/><path class="cls-1" d="M571,173.91A29.88,29.88,0,0,1,593.43,181a29,29,0,0,1,10.7,20.69,30.7,30.7,0,0,1-61.2,4.9,29.2,29.2,0,0,1,7.13-22.19A29.69,29.69,0,0,1,571,173.91Zm-1.25,6.49q-6.35.51-9.37,6.94a29.15,29.15,0,0,0-2.34,14.94A39.52,39.52,0,0,0,564,221q5,7.75,12.87,7.13,6.35-.51,9.43-7a28.82,28.82,0,0,0,2.41-14.88,46.54,46.54,0,0,0-2.8-12.9,23.89,23.89,0,0,0-6.48-9.61A12.57,12.57,0,0,0,569.8,180.4Z"/><path class="cls-1" d="M648.59,167.7q7.43-.59,11.43,3.57.92,11.48-5.57,12Q652,183.47,649,181a8.49,8.49,0,0,0-6-2.24q-4.19.34-6.21,4.78a18,18,0,0,0-1.66,9l1.35,16.89a56.79,56.79,0,0,0,1.92,12.08q.35.93,3.74,1.67a19.22,19.22,0,0,0,4.61.65c.27,0,.48.62.63,1.92a14.09,14.09,0,0,1,.14,2.64q-1.09,0-7.2,0t-9.22.33q-3.24.26-9.36,1.16t-7.18,1.12a4,4,0,0,1-.75-2.52q-.16-2,.38-2.07a19,19,0,0,0,4.85-1.41q3.23-1.28,3.42-2.25a44.25,44.25,0,0,0,.16-9.94l-1.76-22q-.51-6.35-2.85-8.47a6.53,6.53,0,0,0-3.2-1.78,15.51,15.51,0,0,0-3.31-.55c-.86,0-1.3-.12-1.32-.3q-.31-3.92.35-4.11,6.17-1,21.43-5.79a8.15,8.15,0,0,1,1.06-.36c.36,0,.7.26,1,.87a3.24,3.24,0,0,1,.46,1.53c0,.41,0,1-.05,1.91s-.06,1.77-.12,2.73a17.12,17.12,0,0,0-.06,1.84,24.84,24.84,0,0,1,6.09-7.08A14.84,14.84,0,0,1,648.59,167.7Z"/><path class="cls-1" d="M675.69,175l-8.24.66q-.95.07-1.23-3.44a3.38,3.38,0,0,1,0-1.23,37.91,37.91,0,0,0,9.83-8q1.61-1.9,3.53-4.29t4.47-6.14a9.66,9.66,0,0,1,2.59.13q1.24.24,1.27.65L689,166.64q3.51-.28,9.8-.72l6.69-.47q1.08-.09,1.18,1.13a13.18,13.18,0,0,1-.87,6.05l-16.21,1.3,2.61,32.56q.43,5.41,3,8.06a7.74,7.74,0,0,0,6.58,2.33,12.86,12.86,0,0,0,2.81-.56,14.4,14.4,0,0,0,2.37-.94q.91-.48,1.69-1a4.33,4.33,0,0,1,.91-.48q.53-.18,1.31,1.12t.68,1.71q-.66,2-5.39,4.85a21.34,21.34,0,0,1-9.46,3.27,17.09,17.09,0,0,1-12.32-3.57q-5.3-4.13-6.05-13.59Z"/><path class="cls-1" d="M758.55,158.9q17.29-1.39,19.42,25.23L779.09,198q.66,8.24,2.05,12.07.21.94,3.74,1.67a20.77,20.77,0,0,0,4.74.64q.4,0,.63,1.92a14.09,14.09,0,0,1,.14,2.64q-1-.06-7.27,0t-9.29.33q-3.38.27-9.09,1.14t-7,1.11a5.05,5.05,0,0,1-.61-2.53q-.16-2,.24-2.06a16.2,16.2,0,0,0,4.58-1.39q3-1.26,3.29-2.23a51.37,51.37,0,0,0,0-9.93l-1.06-13.24q-.9-11.21-4.28-15.23t-10-3.48a13,13,0,0,0-7.25,2.89q-3.19,2.57-3,5.4L741.53,201q.66,8.24,2.05,12.07.34.93,3.74,1.67a19.22,19.22,0,0,0,4.61.65c.27,0,.48.62.63,1.92a7.71,7.71,0,0,1,0,2.65q-1.09,0-7.14,0t-9.15.32q-3.24.26-9.36,1.16t-7.18,1.12a4,4,0,0,1-.75-2.52q-.16-2,.38-2.07a19,19,0,0,0,4.85-1.41q3.23-1.28,3.42-2.25a43.57,43.57,0,0,0,.17-9.8l-4.5-56.2a53.49,53.49,0,0,0-1.41-9.13q-.85-2.1-7.2-1.6l-1.22.1q-.81.07-1-2.1t.64-2.23q4.15-.74,7.88-1.72t6.17-1.85q2.44-.87,4.21-1.7t3.74-1.66l.27,0a1.46,1.46,0,0,1,1.14.66,3.75,3.75,0,0,1,.79,1.36,43.67,43.67,0,0,0-.6,12.83l2.19,27.29q.06.81.6.77.13,0,.51-.45a25.8,25.8,0,0,1,7.84-6.54A25,25,0,0,1,758.55,158.9Z"/><path class="cls-1" d="M845.54,141.6l1.74,21.75a.82.82,0,0,0,.25.59,1.75,1.75,0,0,0,.5.3h.13l1.08-.09q2.84-.23,6.66-5.16,9.88-12.48,21.61-28.92,2-2.74,1.84-4.23t-3.12-1.65a29.09,29.09,0,0,0-5-.14q-.54,0-.8-1.5a7.12,7.12,0,0,1-.06-2.51q15.06-.39,16.41-.5,2.56-.21,5.05-.54t5.38-.77l4.77-.72a5.73,5.73,0,0,1,.39,2.28c0,1.18-.06,1.77-.33,1.79q-9.37,1.84-13.19,6.77L866,159q-1.35,1.88.57,3.76l34.62,35a13.8,13.8,0,0,0,6.9,3.8,22.11,22.11,0,0,0,6.12.87q.67-.05.88,2.51a4.18,4.18,0,0,1-.25,1.92q-16.28.49-18.57.67-4.33.35-10.31,1.17l-8.41,1.15a3.82,3.82,0,0,1-.74-2.46c-.1-1.3,0-2,.38-2a10.46,10.46,0,0,0,3.71-1.25Q883.09,203,883,202q-.05-.67-4.24-5.37t-11.42-11.93q-7.24-7.24-14.27-13.47-.58-.5-3-.3-2.16.17-2,1.79l1.6,20a48.83,48.83,0,0,0,2.17,11.79q.34.93,3.87,1.66a20.78,20.78,0,0,0,4.74.64c.36,0,.61.81.75,2.52a6,6,0,0,1-.12,1.91q-16.27.49-17.22.56-2.7.22-5.66.59t-6.52.86l-5.71.8a2.64,2.64,0,0,1-.69-1.85c-.14-1.71,0-2.58.33-2.61a21.68,21.68,0,0,0,5-1.35q3.37-1.22,3.69-2.33a47.43,47.43,0,0,0,.17-11.43l-4.17-52.15q-.65-8.1-2-11.26-.63-1-4-1.79a18.18,18.18,0,0,0-4.94-.62c-.36,0-.59-.63-.7-2a5.46,5.46,0,0,1,.08-2.45q.67-.05,7.53-.19t10.5-.43q1.08-.09,17.23-2.2a7,7,0,0,1,.58,2.13q.18,2.3-.36,2.34a22.17,22.17,0,0,0-4.78,1.47q-3.56,1.37-3.76,2.34A50.35,50.35,0,0,0,845.54,141.6Z"/><path class="cls-1" d="M948.76,143.67a29.87,29.87,0,0,1,22.39,7.11,29,29,0,0,1,10.7,20.69,30.91,30.91,0,1,1-33.09-27.8Zm-1.25,6.49q-6.35.51-9.37,6.94A29.15,29.15,0,0,0,935.81,172a39.52,39.52,0,0,0,5.92,18.7q5,7.75,12.87,7.13,6.35-.51,9.43-7A28.81,28.81,0,0,0,966.44,176a46.54,46.54,0,0,0-2.8-12.9,23.9,23.9,0,0,0-6.48-9.61A12.57,12.57,0,0,0,947.52,150.16Z"/><path class="cls-1" d="M1026.31,137.46q7.43-.59,11.43,3.57.92,11.48-5.56,12-2.43.19-5.49-2.28a8.49,8.49,0,0,0-6-2.24q-4.19.34-6.21,4.78a18,18,0,0,0-1.66,9l1.35,16.89a56.7,56.7,0,0,0,1.92,12.08q.34.93,3.74,1.67a19.23,19.23,0,0,0,4.61.65c.27,0,.48.62.63,1.92a14.18,14.18,0,0,1,.14,2.64q-1.1,0-7.2,0t-9.22.33q-3.24.26-9.36,1.16t-7.18,1.12a4,4,0,0,1-.75-2.52q-.16-2,.38-2.07a19,19,0,0,0,4.85-1.41q3.23-1.28,3.42-2.25a44.31,44.31,0,0,0,.16-9.94l-1.76-22q-.51-6.35-2.85-8.47a6.53,6.53,0,0,0-3.2-1.78,15.47,15.47,0,0,0-3.31-.55c-.86,0-1.3-.12-1.32-.3q-.31-3.92.35-4.11,6.17-1,21.42-5.79a8.16,8.16,0,0,1,1.06-.36c.36,0,.7.26,1,.87a3.24,3.24,0,0,1,.46,1.53c0,.41,0,1-.05,1.91s-.06,1.77-.12,2.73a17.56,17.56,0,0,0-.06,1.84A24.89,24.89,0,0,1,1018,141,14.85,14.85,0,0,1,1026.31,137.46Z"/><path class="cls-1" d="M1072.51,133.76a25.14,25.14,0,0,1,11.55,1.59,21.45,21.45,0,0,1,8.34,5.72,31.55,31.55,0,0,1,5,7.62,23.39,23.39,0,0,1,2.12,7.79q.24,3-.72,3.79t-4.06,1.07l-32.29,2.58q-.95.08-.88.89a26.31,26.31,0,0,0,2.51,9.32,18.63,18.63,0,0,0,6.65,7.49,15.94,15.94,0,0,0,10.47,2.56,36.89,36.89,0,0,0,3.9-.52,20.23,20.23,0,0,0,3.46-1q1.58-.6,2.77-1.11a11.56,11.56,0,0,0,2.4-1.42l1.73-1.29q.51-.38,2.56-2a2.19,2.19,0,0,1,.74.76,2.62,2.62,0,0,1,.51,1.32,4.17,4.17,0,0,1-.6,2.63q-1.74,3.81-7.39,7.93a25.15,25.15,0,0,1-13.08,4.72,27.45,27.45,0,0,1-21-7.09,29.23,29.23,0,0,1-10.2-20.46q-1.09-13.64,6.13-22.79A26.27,26.27,0,0,1,1072.51,133.76Zm-.45,6.29a9.58,9.58,0,0,0-5.66,2.36,12.78,12.78,0,0,0-3.55,4.91,25.89,25.89,0,0,0-1.55,5.22,16.49,16.49,0,0,0-.29,4q.08.95.89.88l21.88-1.75q1.22-.1,1.05-2.12a17.57,17.57,0,0,0-3.94-9.34Q1077.33,139.63,1072.06,140Z"/><path class="cls-1" d="M1132.08,129q8.38-.67,12.92,3.38t5.39,14.73l2.13,26.61a6.18,6.18,0,0,0,1.54,4,4.07,4.07,0,0,0,3.36,1.16,8.45,8.45,0,0,0,4.45-2.12c.56.14.86.61.93,1.42a8.06,8.06,0,0,1-.49,4.12,33.58,33.58,0,0,1-5.13,3.81,14.11,14.11,0,0,1-6.34,2.28,9.9,9.9,0,0,1-6.26-1.81,11.12,11.12,0,0,1-4.32-4.68q-.13.15-.94,1t-2.29,2a39.91,39.91,0,0,1-3.34,2.44,21.57,21.57,0,0,1-4.45,2.19,19.69,19.69,0,0,1-5.28,1.17q-6.76.54-11.31-2.83t-5.07-9.86a12.5,12.5,0,0,1,1.07-6.2,16.2,16.2,0,0,1,3.34-5,27.8,27.8,0,0,1,5.52-4,55.7,55.7,0,0,1,6.07-3.14q2.56-1.09,6.59-2.63t5.6-2.22a2.13,2.13,0,0,0,1-2.26l-.59-7.43a11.64,11.64,0,0,0-2.76-7.26,7.08,7.08,0,0,0-6-2.24,8.22,8.22,0,0,0-6.15,3q-2.1,2.69-1.73,7.28a4.4,4.4,0,0,1-1.71,4.15,8.42,8.42,0,0,1-4.49,1.65q-5,.4-7.29-2.68-.52-6.48,7.88-12.87A34,34,0,0,1,1132.08,129Zm-1.93,52.36a10.5,10.5,0,0,0,6.13-2.39q2.48-2.1,2.29-4.53l-1.1-13.78q-.92.48-3.88,1.67t-4.53,2a37.24,37.24,0,0,0-3.63,2.19,8.18,8.18,0,0,0-2.94,3.23,7.46,7.46,0,0,0-.71,3.86q.35,4.32,2.67,6.18A7.8,7.8,0,0,0,1130.16,181.35Z"/><path class="cls-2" d="M674.35,314.48a4.69,4.69,0,0,1,2.39-3.46,6.49,6.49,0,0,1,4.4-.91,10.64,10.64,0,0,1,1.43.29q.6.18,1.67.62l1.46.59a26.61,26.61,0,0,1-.3,4.58.32.32,0,0,1-.39.21q-.8-.11-.82-.39a5.24,5.24,0,0,0-.88-2.83,3.38,3.38,0,0,0-2.46-1.68,2.74,2.74,0,0,0-2.18.47,2.9,2.9,0,0,0-1,2,3.3,3.3,0,0,0,0,.85,2.1,2.1,0,0,0,.3.84l.41.7a3.58,3.58,0,0,0,.64.74l.66.63q.17.18.8.7a9.38,9.38,0,0,0,.77.61,11.31,11.31,0,0,0,.9.77q.74.6,1,.87t.83.89a4.25,4.25,0,0,1,.75,1.13,6.06,6.06,0,0,1,.34,1.27,5,5,0,0,1,0,1.58,4.83,4.83,0,0,1-2.46,3.61,6.87,6.87,0,0,1-4.62.9,27.65,27.65,0,0,1-5.3-1.6,26.17,26.17,0,0,1-.1-2.73,20.21,20.21,0,0,1,.08-2.13c0-.15.21-.21.5-.17q.76.11.82.36a5.72,5.72,0,0,0,.25,1.22,8.57,8.57,0,0,0,.61,1.47,3.93,3.93,0,0,0,1.21,1.38,4.18,4.18,0,0,0,1.89.74,3.32,3.32,0,0,0,2.41-.49,3.19,3.19,0,0,0,1.27-2.34,2.61,2.61,0,0,0-.05-1,3.38,3.38,0,0,0-.33-.86,4.36,4.36,0,0,0-.63-.81q-.43-.45-.72-.71l-.87-.71-.82-.64a1.91,1.91,0,0,0-.29-.28q-.78-.65-1.18-1a14.32,14.32,0,0,1-1-1,5.92,5.92,0,0,1-.89-1.22,5.67,5.67,0,0,1-.45-1.33A4.47,4.47,0,0,1,674.35,314.48Z"/><path class="cls-2" d="M696.1,319.08a6,6,0,0,1,3.21,1.45,6.23,6.23,0,0,1,2.13,5.65,7,7,0,0,1-7.92,6,6.9,6.9,0,0,1-2-.71q-.12,0-.18.39l-.29,2a10.76,10.76,0,0,0-.14,2.68q0,.24.71.57a4.55,4.55,0,0,0,1,.37c.06,0,.07.16,0,.44a2.62,2.62,0,0,1-.09.54l-1.56-.32c-.9-.19-1.57-.32-2-.38s-1.19-.14-2.09-.21l-1.59-.14a1.06,1.06,0,0,1,0-.56c0-.29.09-.42.15-.41a4.13,4.13,0,0,0,1.11-.07q.75-.12.88-.34a10.81,10.81,0,0,0,.48-2.09l1.62-11.24a2.88,2.88,0,0,0-.2-2,1.34,1.34,0,0,0-.58-.52A3.56,3.56,0,0,0,688,320c-.19,0-.29-.09-.28-.13.08-.57.18-.85.3-.86a22.89,22.89,0,0,0,4.5-.19l.58-.07c.08,0,.09.22,0,.63a1.67,1.67,0,0,1-.11.34,6,6,0,0,1,1.41-.5A4.24,4.24,0,0,1,696.1,319.08Zm-.93,1.46a2.26,2.26,0,0,0-1.66.33,2,2,0,0,0-.82,1.41l-.87,6.06a1.83,1.83,0,0,0,.57,1.66,2.89,2.89,0,0,0,1.62.82,2.79,2.79,0,0,0,2.46-.91,5.74,5.74,0,0,0,1.43-3.34,7.68,7.68,0,0,0-.37-4.09A2.93,2.93,0,0,0,695.17,320.54Z"/><path class="cls-2" d="M710.29,321.09a5.51,5.51,0,0,1,2.39.9,4.71,4.71,0,0,1,1.51,1.63,7,7,0,0,1,.69,1.87,5.12,5.12,0,0,1,.08,1.77q-.09.65-.34.78a1.69,1.69,0,0,1-.92,0l-7-1c-.14,0-.21,0-.23.15a5.78,5.78,0,0,0,.09,2.12,4.1,4.1,0,0,0,1.06,1.92,3.5,3.5,0,0,0,2.12,1.05,8.11,8.11,0,0,0,.86.08,4.46,4.46,0,0,0,.79,0l.65-.1a2.55,2.55,0,0,0,.58-.19l.43-.19.65-.31a.48.48,0,0,1,.12.2.58.58,0,0,1,0,.31.91.91,0,0,1-.26.53,4.84,4.84,0,0,1-2,1.34,5.52,5.52,0,0,1-3,.38,6,6,0,0,1-4.14-2.53,6.41,6.41,0,0,1-1.19-4.87,6.88,6.88,0,0,1,2.42-4.58A5.76,5.76,0,0,1,710.29,321.09Zm-.4,1.32a2.11,2.11,0,0,0-1.33.23,2.81,2.81,0,0,0-1,.88,5.75,5.75,0,0,0-.58,1,3.64,3.64,0,0,0-.26.85c0,.14,0,.21.15.23l4.77.69q.27,0,.33-.4a3.85,3.85,0,0,0-.39-2.19A2.13,2.13,0,0,0,709.89,322.41Z"/><path class="cls-2" d="M723.57,323a3.65,3.65,0,0,1,2.6,1.35,4.75,4.75,0,0,1,.44,3.41l-.83,5.8a1.35,1.35,0,0,0,.14.94.89.89,0,0,0,.66.41,1.85,1.85,0,0,0,1.06-.24c.11.06.16.17.13.35a1.76,1.76,0,0,1-.3.86,7.22,7.22,0,0,1-1.28.57,3.08,3.08,0,0,1-1.47.18,2.17,2.17,0,0,1-1.25-.69,2.43,2.43,0,0,1-.7-1.21l-.25.16c-.14.09-.34.2-.59.32a8.86,8.86,0,0,1-.83.36,4.76,4.76,0,0,1-1.06.25,4.3,4.3,0,0,1-1.19,0,3.55,3.55,0,0,1-2.28-1.15,2.83,2.83,0,0,1-.61-2.36,2.73,2.73,0,0,1,.53-1.28,3.57,3.57,0,0,1,1-.9,6.05,6.05,0,0,1,1.38-.6,12.29,12.29,0,0,1,1.45-.38l1.54-.24,1.31-.2a.47.47,0,0,0,.33-.43l.23-1.62a2.55,2.55,0,0,0-.24-1.69,1.55,1.55,0,0,0-1.18-.77,1.8,1.8,0,0,0-1.46.35,2.22,2.22,0,0,0-.72,1.47,1,1,0,0,1-.57.8,1.85,1.85,0,0,1-1,.13A1.68,1.68,0,0,1,717,326q.2-1.41,2.31-2.37A7.46,7.46,0,0,1,723.57,323Zm-3,11.11a2.3,2.3,0,0,0,1.43-.21,1.18,1.18,0,0,0,.71-.86l.43-3c-.14,0-.45.1-.91.17s-.82.14-1.07.21a8.32,8.32,0,0,0-.88.29,1.8,1.8,0,0,0-.79.55,1.65,1.65,0,0,0-.34.79,1.83,1.83,0,0,0,.27,1.45A1.71,1.71,0,0,0,720.62,334.11Z"/><path class="cls-2" d="M743,327.81q-.64.27-2.06,1.06a21,21,0,0,0-2.64,1.72q.72,1,1.81,2.69t1.8,2.72a14.2,14.2,0,0,0,1,1.38,3.74,3.74,0,0,0,1,.75,3.63,3.63,0,0,0,1,.38c.08,0,.09.18,0,.52a1.73,1.73,0,0,1-.09.41l-3.42-.64-1.14-.13-1.28-.11-1.11-.09a.8.8,0,0,1,0-.55c0-.27.1-.41.18-.39a2.12,2.12,0,0,0,.7,0c.27-.05.41-.13.42-.22s0-.06,0-.06l-3.61-5.41-.37,0-.26,1.83a12.21,12.21,0,0,0-.15,2.68q0,.22.73.54a4.32,4.32,0,0,0,1,.37c.06,0,.07.16,0,.44a1.7,1.7,0,0,1-.13.57q-.2-.06-1.54-.34t-2-.38q-.71-.1-2.06-.21l-1.59-.11a.86.86,0,0,1,0-.58c0-.29.1-.44.18-.42a4.18,4.18,0,0,0,1.11-.07q.75-.12.84-.31a9.89,9.89,0,0,0,.51-2.12l1.76-12.21a11.61,11.61,0,0,0,.14-2q-.08-.49-1.46-.69l-.26,0q-.18,0-.11-.5c0-.31.13-.46.24-.45q.93,0,1.77,0t1.41-.1q.57-.07,1-.16l.88-.17h.06c.08,0,.15.08.21.2a.82.82,0,0,1,.1.33,9.55,9.55,0,0,0-.75,2.72l-1.41,9.83a2.65,2.65,0,0,0,.93-.2q.7-.47,1.51-1l1.17-.72c.24-.15.48-.31.73-.48a2.53,2.53,0,0,0,.5-.42.69.69,0,0,0,.15-.34q0-.32-.6-.49a3,3,0,0,1-.65-.2,1.33,1.33,0,0,1,0-.53c0-.21.08-.31.17-.32l2.85.41q.8.11,3.14.33a.46.46,0,0,1,.1.34,1.27,1.27,0,0,1-.08.44c0,.13-.1.2-.16.19A3.89,3.89,0,0,0,743,327.81Z"/><path class="cls-2" d="M752.8,336.22a10.92,10.92,0,0,0-.15,2.68q0,.21.73.54a4.33,4.33,0,0,0,1,.36c.08,0,.1.16.07.45a1.66,1.66,0,0,1-.13.57l-1.56-.34q-1.36-.29-2-.38t-2.09-.21l-1.56-.1a.87.87,0,0,1,0-.58c0-.29.1-.43.18-.42a4.27,4.27,0,0,0,1.09-.07c.51-.08.8-.18.86-.31a9.75,9.75,0,0,0,.51-2.12l.69-4.8a2.83,2.83,0,0,0-.2-2,1.64,1.64,0,0,0-.61-.54,3.13,3.13,0,0,0-.68-.28c-.19,0-.29-.09-.28-.13.08-.57.18-.85.3-.86a22.72,22.72,0,0,0,2.43,0,23.15,23.15,0,0,0,2.4-.2l.24,0c.1,0,.17.09.21.24a.56.56,0,0,1,0,.33,25.64,25.64,0,0,0-.6,2.5Zm-1.29-12.75a1.81,1.81,0,0,1-.34-1.37,1.76,1.76,0,0,1,.71-1.2,1.84,1.84,0,0,1,2.93,1.73,1.81,1.81,0,0,1-.71,1.22,1.83,1.83,0,0,1-2.59-.37Z"/><path class="cls-2" d="M767.58,329.33q3.8.55,2.93,6.58l-.4,2.8a12.25,12.25,0,0,0-.17,2.68c0,.14.27.32.75.54a4.55,4.55,0,0,0,1,.37c.06,0,.07.16,0,.44a1.71,1.71,0,0,1-.13.57c-.12,0-.62-.15-1.53-.34s-1.58-.32-2-.38-1.13-.13-2-.19l-1.53-.1a.88.88,0,0,1,0-.58c0-.29.1-.44.18-.42a3.54,3.54,0,0,0,1-.08q.69-.13.78-.32a8.5,8.5,0,0,0,.55-2.11l.4-2.8a6.46,6.46,0,0,0-.17-3.51,2.39,2.39,0,0,0-2-1.27,2.76,2.76,0,0,0-1.72.28,1.43,1.43,0,0,0-.86,1l-.73,5.06a12.42,12.42,0,0,0-.18,2.68q0,.21.72.54a4.26,4.26,0,0,0,.92.36q.12,0,.07.45a1.71,1.71,0,0,1-.13.57l-1.53-.34q-1.3-.28-2-.37t-2.06-.21l-1.59-.11a.87.87,0,0,1,0-.58c0-.29.1-.44.18-.42a4.13,4.13,0,0,0,1.11-.07c.5-.08.78-.18.84-.31a9.63,9.63,0,0,0,.52-2.12l.69-4.8a2.82,2.82,0,0,0-.2-2,1.42,1.42,0,0,0-.6-.54A3.42,3.42,0,0,0,758,330c-.18,0-.27-.09-.27-.13q.12-.85.27-.86a41.93,41.93,0,0,0,4.87-.2l.08,0h.16c.08,0,.14.09.18.24a.9.9,0,0,1,0,.34,9.62,9.62,0,0,0-.27,1,.24.24,0,0,0,0,.15.45.45,0,0,0,.16-.07,6.59,6.59,0,0,1,2-1A5.21,5.21,0,0,1,767.58,329.33Z"/><path class="cls-2" d="M781.06,331.33a9.4,9.4,0,0,1,2.39.73,9.16,9.16,0,0,0,2.3.72l1.68.24s.09.14.15.41a1.85,1.85,0,0,1,.06.61c0,.28-.12.4-.24.39l-1.91-.27c-.08,0-.12,0-.13.07s0,.29.15.8a4.21,4.21,0,0,1,.06,1.45,4.3,4.3,0,0,1-1.91,2.92,5.09,5.09,0,0,1-3.84.88,12.38,12.38,0,0,1-1.81-.38,1.59,1.59,0,0,0-.73.45,1.26,1.26,0,0,0-.4.68.61.61,0,0,0,.21.54,2,2,0,0,0,.83.42q.58.17,1,.26l1.17.23.44.06a10.5,10.5,0,0,1,4.19,1.43,2.34,2.34,0,0,1,1.06,2.36,4.68,4.68,0,0,1-2.67,3.52,8.12,8.12,0,0,1-5.21.9,7.72,7.72,0,0,1-3.63-1.36,2.67,2.67,0,0,1-1.26-2.64,2.31,2.31,0,0,1,1.08-1.53,4.92,4.92,0,0,1,2-.86,3.4,3.4,0,0,1-1.28-1.1,2.17,2.17,0,0,1-.42-1.64q.18-1.26,2.55-2.31a3.92,3.92,0,0,1-1.37-1.74,4.38,4.38,0,0,1-.39-2.5,4,4,0,0,1,2-3.08A5.91,5.91,0,0,1,781.06,331.33Zm1.85,16q.15-1-1.29-1.58a18.92,18.92,0,0,0-3.94-.91h-.15l-.16.07-.62.17a2.56,2.56,0,0,0-.52.26,1.45,1.45,0,0,0-.47.46,1.74,1.74,0,0,0-.23.69,2.08,2.08,0,0,0,.86,1.93,4.63,4.63,0,0,0,2.4,1.07,4.49,4.49,0,0,0,2.8-.38A2.32,2.32,0,0,0,782.91,347.3Zm-4.7-12a4.69,4.69,0,0,0,.24,2.51A1.85,1.85,0,0,0,780,339a1.76,1.76,0,0,0,1.72-.61,3.94,3.94,0,0,0,.81-2,4.89,4.89,0,0,0-.22-2.62,1.9,1.9,0,0,0-1.57-1.22,1.68,1.68,0,0,0-1.69.69A4.33,4.33,0,0,0,778.21,335.28Z"/><path class="cls-2" d="M814.36,338.34a.86.86,0,0,0-.15-.64,1.29,1.29,0,0,0-.55-.44A5.47,5.47,0,0,0,813,337a4.43,4.43,0,0,0-.6-.13l-.12,0c-.08,0-.1-.17-.07-.46s.08-.47.15-.52c.25,0,.77.14,1.55.31s1.4.29,1.87.36.94.11,1.59.14,1.12.07,1.41.11a1.85,1.85,0,0,1,0,.51q-.06.44-.18.42a3.36,3.36,0,0,0-1.21.2,1.81,1.81,0,0,0-1.14.75l-5.85,9.76a1.17,1.17,0,0,1-.46.37,1,1,0,0,1-.6.11.37.37,0,0,1-.35-.26L806.55,340l-4.25,7.23a1.63,1.63,0,0,1-.4.36.9.9,0,0,1-.67.14.44.44,0,0,1-.38-.27q-.46-1.63-1.07-4t-1.14-4.11q-.52-1.79-1.24-3.9a1.37,1.37,0,0,0-.68-.7,2.87,2.87,0,0,0-.91-.34c-.08,0-.1-.17-.05-.49s.1-.44.19-.48.69.13,1.47.3,1.4.29,1.86.36,1.12.13,2,.2l1.54.13a1.6,1.6,0,0,1,0,.54c0,.26-.09.39-.15.4a3.49,3.49,0,0,0-1,.06q-.66.11-.72.53s.65,2.44,2,7.19q.44-.78,1-1.76l.88-1.5.6-1c.2-.35.34-.62.43-.79a1.55,1.55,0,0,0,.14-.36,2.15,2.15,0,0,0-.21-1.23,1.39,1.39,0,0,0-.58-.56,2.36,2.36,0,0,0-1-.33c-.08,0-.1-.16-.06-.44s.1-.45.19-.5.7.13,1.44.3,1.36.29,1.83.35,1.07.13,1.93.19l1.51.13a1.45,1.45,0,0,1,0,.55q-.08.42-.16.41-1.5-.22-1.65.81a47.63,47.63,0,0,0,1.83,6.93q.65-1.17,1.58-2.73t1.37-2.33A3.9,3.9,0,0,0,814.36,338.34Z"/><path class="cls-2" d="M824.49,346.53a11,11,0,0,0-.15,2.68q0,.22.73.54a4.35,4.35,0,0,0,1,.37c.08,0,.1.16.07.45a1.67,1.67,0,0,1-.13.57l-1.56-.34q-1.36-.29-2-.38t-2.09-.21l-1.56-.1a.87.87,0,0,1,0-.58c0-.29.1-.44.18-.42A4.31,4.31,0,0,0,820,349c.51-.08.8-.18.86-.31a9.75,9.75,0,0,0,.51-2.12l.69-4.8a2.84,2.84,0,0,0-.2-2,1.65,1.65,0,0,0-.61-.54,3.11,3.11,0,0,0-.68-.28c-.19,0-.29-.09-.28-.13q.12-.85.3-.86a23,23,0,0,0,2.43,0,23.41,23.41,0,0,0,2.4-.2l.25,0q.15,0,.21.24a.56.56,0,0,1,0,.33,25.17,25.17,0,0,0-.6,2.5Zm-1.29-12.75a1.81,1.81,0,0,1-.34-1.37,1.76,1.76,0,0,1,.71-1.2,1.87,1.87,0,0,1,2.59.37,1.76,1.76,0,0,1,.34,1.36,1.81,1.81,0,0,1-.71,1.22,1.83,1.83,0,0,1-2.59-.37Z"/><path class="cls-2" d="M831.06,340.57l-1.79-.26c-.14,0-.17-.28-.1-.79a.74.74,0,0,1,.07-.26,8.34,8.34,0,0,0,2.49-1.23l1-.75q.52-.42,1.25-1.1a2.13,2.13,0,0,1,.55.15c.17.08.25.14.24.2l-.41,2.88,2.13.32,1.46.22c.16,0,.22.12.2.3a2.89,2.89,0,0,1-.48,1.25l-3.53-.51-1,7.09a2.81,2.81,0,0,0,.24,1.87,1.7,1.7,0,0,0,1.29.82,2.84,2.84,0,0,0,.63,0,3.24,3.24,0,0,0,.55-.09l.41-.12.22-.06c.08,0,.16.09.23.3a.7.7,0,0,1,.06.4,2.74,2.74,0,0,1-1.39.78,4.68,4.68,0,0,1-2.18.24,3.74,3.74,0,0,1-2.46-1.36,4,4,0,0,1-.64-3.2Z"/><path class="cls-2" d="M849.87,341.17q3.77.54,2.93,6.34l-.44,3a10.8,10.8,0,0,0-.14,2.68c0,.14.24.32.72.54a4.57,4.57,0,0,0,1,.37c.06,0,.07.16,0,.44a3,3,0,0,1-.1.57l-1.56-.34q-1.35-.29-2-.38t-2-.2l-1.56-.1a1.11,1.11,0,0,1,0-.57c0-.29.09-.44.15-.43a3.53,3.53,0,0,0,1-.07c.46-.08.73-.19.81-.32a11.18,11.18,0,0,0,.49-2.12l.41-2.88a6.2,6.2,0,0,0-.18-3.46,2.43,2.43,0,0,0-2-1.23,2.85,2.85,0,0,0-1.69.27,1.4,1.4,0,0,0-.9,1l-.73,5.06A10.89,10.89,0,0,0,844,352q0,.21.72.54a4.2,4.2,0,0,0,1,.36c.06,0,.07.16,0,.44a1.7,1.7,0,0,1-.13.57l-1.53-.34q-1.3-.28-2-.37t-2.06-.21l-1.59-.11a.87.87,0,0,1,0-.58q.06-.44.18-.42a4.14,4.14,0,0,0,1.11-.07q.75-.12.84-.31a9.58,9.58,0,0,0,.51-2.09l1.76-12.24a11.71,11.71,0,0,0,.14-2q-.08-.49-1.46-.69l-.26,0c-.12,0-.15-.18-.11-.5s.13-.46.24-.45q.93,0,1.77,0t1.41-.1c.38,0,.71-.1,1-.16l.88-.17h.06c.08,0,.15.08.21.2a.83.83,0,0,1,.1.33,9.61,9.61,0,0,0-.75,2.72l-.85,5.94c0,.12,0,.18.09.19s.06,0,.13-.07a5.65,5.65,0,0,1,2-1A5.48,5.48,0,0,1,849.87,341.17Z"/><path class="cls-2" d="M869.36,337.55l2.91.24q.15.86.77,3.22t1.53,5.75q.91,3.39,1.44,5.57s0,.06.08.07a.08.08,0,0,0,.1-.08q3.48-5.84,5.59-9.62l1.55-3.26q.87.22,2.4.44,1.15.17,3.52.36a.87.87,0,0,1,0,.48c0,.33-.11.5-.19.48H889a2.43,2.43,0,0,0-1.51.26c-.32.17-.53.69-.61,1.53q-.26,2.64-1.34,12.21a7.87,7.87,0,0,0,.08,2.78q.08.28.75.6a4,4,0,0,0,1,.37c.08,0,.09.19,0,.55a1.45,1.45,0,0,1-.12.43l-3.59-.7-1.24-.15-1.44-.13-1.26-.11a.63.63,0,0,1-.05-.46q.08-.53.19-.51a3.52,3.52,0,0,0,1-.06,1.85,1.85,0,0,0,.88-.31,1.67,1.67,0,0,0,.44-1l.24-1.65,1-9q.15-1.84-.09-1.87c-.06,0-.12,0-.17.16l-7.59,12.9q-.66,1-1.28,1a1,1,0,0,1-.29-.1l-4.31-16.78q-1.26,7.3-2.36,13.06a3.28,3.28,0,0,0,0,.92c.07.23.43.49,1.09.79a6.46,6.46,0,0,0,1.34.49c.08,0,.09.19,0,.55a1.48,1.48,0,0,1-.12.43l-3.68-.71q-.8-.11-2.12-.21t-1.62-.14a.69.69,0,0,1-.05-.49c0-.33.11-.5.19-.48a6,6,0,0,0,1.51-.08q1-.15,1.26-.6a5.53,5.53,0,0,0,.61-1.92q.38-2.23.92-5.26l.92-5.17q.38-2.14.46-2.67a2.77,2.77,0,0,0,0-.84c0-.17-.34-.36-.92-.58a6.75,6.75,0,0,0-1.25-.39c-.08,0-.09-.18,0-.52a.64.64,0,0,1,.18-.42l1.5.32Q868.59,337.44,869.36,337.55Z"/><path class="cls-2" d="M895.14,356.69a10.86,10.86,0,0,0-.15,2.68q0,.22.73.54a4.41,4.41,0,0,0,1,.36c.08,0,.1.16.07.45a1.7,1.7,0,0,1-.13.57l-1.56-.34q-1.36-.29-2-.38t-2.09-.21l-1.56-.1a.87.87,0,0,1,0-.58c0-.29.1-.44.18-.42a4.32,4.32,0,0,0,1.09-.07c.51-.08.8-.18.85-.31a9.63,9.63,0,0,0,.52-2.12l.69-4.8a2.83,2.83,0,0,0-.2-2,1.66,1.66,0,0,0-.61-.54,3.13,3.13,0,0,0-.68-.28c-.19,0-.29-.09-.28-.13q.12-.85.3-.86a22.72,22.72,0,0,0,2.43,0,23.38,23.38,0,0,0,2.4-.2l.25,0c.1,0,.17.09.2.24a.54.54,0,0,1,0,.33,25.05,25.05,0,0,0-.6,2.5Zm-1.29-12.75a1.81,1.81,0,0,1-.34-1.37,1.84,1.84,0,0,1,3.65.52,1.81,1.81,0,0,1-.71,1.22,1.83,1.83,0,0,1-2.59-.37Z"/><path class="cls-2" d="M909.93,349.81q3.8.55,2.93,6.58l-.4,2.8a12.33,12.33,0,0,0-.17,2.68q0,.22.75.54a4.55,4.55,0,0,0,1,.37c.06,0,.07.16,0,.44a1.75,1.75,0,0,1-.13.57q-.17-.06-1.53-.34t-2-.38q-.71-.1-2-.19l-1.53-.1a.87.87,0,0,1,0-.58c0-.29.1-.44.18-.42a3.55,3.55,0,0,0,1-.08c.46-.08.72-.19.78-.32a8.45,8.45,0,0,0,.55-2.11l.4-2.8a6.47,6.47,0,0,0-.17-3.51,2.39,2.39,0,0,0-2-1.27,2.75,2.75,0,0,0-1.72.28,1.43,1.43,0,0,0-.87,1L904.3,358a12.41,12.41,0,0,0-.18,2.68c0,.14.26.32.72.54a4.26,4.26,0,0,0,.92.36c.08,0,.1.16.07.45a1.71,1.71,0,0,1-.13.57l-1.53-.34q-1.3-.28-2-.37t-2.06-.21l-1.59-.11a.87.87,0,0,1,0-.58c0-.29.1-.44.18-.42a4.13,4.13,0,0,0,1.11-.07c.5-.08.78-.18.84-.31a9.63,9.63,0,0,0,.52-2.12l.69-4.8a2.83,2.83,0,0,0-.2-2,1.43,1.43,0,0,0-.6-.54,3.43,3.43,0,0,0-.68-.28q-.28-.07-.27-.13.12-.85.27-.86a42.16,42.16,0,0,0,4.87-.2l.08,0h.16c.08,0,.14.09.18.24a.9.9,0,0,1,0,.34,9.87,9.87,0,0,0-.27,1,.24.24,0,0,0,0,.15.45.45,0,0,0,.16-.07,6.58,6.58,0,0,1,2-1A5.21,5.21,0,0,1,909.93,349.81Z"/><path class="cls-2" d="M924,351.83a3.65,3.65,0,0,1,2.6,1.35,4.76,4.76,0,0,1,.44,3.41l-.83,5.8a1.35,1.35,0,0,0,.14.94.89.89,0,0,0,.66.41,1.85,1.85,0,0,0,1.06-.24c.11.06.16.17.13.35a1.77,1.77,0,0,1-.3.86,7.27,7.27,0,0,1-1.28.57,3.09,3.09,0,0,1-1.47.18,2.18,2.18,0,0,1-1.25-.69,2.43,2.43,0,0,1-.7-1.21l-.25.16c-.14.09-.34.2-.59.32a8.49,8.49,0,0,1-.83.36,4.77,4.77,0,0,1-1.06.25,4.3,4.3,0,0,1-1.18,0,3.54,3.54,0,0,1-2.28-1.15,2.82,2.82,0,0,1-.61-2.36,2.76,2.76,0,0,1,.53-1.27,3.57,3.57,0,0,1,1-.9,6.1,6.1,0,0,1,1.38-.6,12.46,12.46,0,0,1,1.45-.38l1.54-.24,1.31-.2a.47.47,0,0,0,.33-.43l.23-1.62a2.56,2.56,0,0,0-.24-1.69,1.55,1.55,0,0,0-1.18-.77,1.81,1.81,0,0,0-1.46.34,2.23,2.23,0,0,0-.72,1.47,1,1,0,0,1-.57.8,1.84,1.84,0,0,1-1,.14,1.68,1.68,0,0,1-1.43-.93q.2-1.41,2.31-2.37A7.45,7.45,0,0,1,924,351.83Zm-3,11.11a2.3,2.3,0,0,0,1.43-.21,1.18,1.18,0,0,0,.71-.86l.43-3c-.15,0-.45.1-.91.17s-.82.14-1.07.21a8.26,8.26,0,0,0-.88.29,1.79,1.79,0,0,0-.78.55,1.65,1.65,0,0,0-.34.79,1.84,1.84,0,0,0,.27,1.45A1.71,1.71,0,0,0,921,362.94Z"/><path class="cls-2" d="M954,364a16.8,16.8,0,0,1-.77,2.22q-.71,1.83-1,1.92a16,16,0,0,1-7,.25,8.93,8.93,0,0,1-6.21-3.81,9.59,9.59,0,0,1-1.76-7.19,10.22,10.22,0,0,1,3.83-6.76,9.15,9.15,0,0,1,7.31-2,32.71,32.71,0,0,1,6.83,1.79,8.51,8.51,0,0,1-.1,2q-.18,1.91-.25,2.38t-.77.34a1,1,0,0,1-.39-.18,4.16,4.16,0,0,0-.27-1.15,7.67,7.67,0,0,0-.75-1.4,4.53,4.53,0,0,0-1.66-1.43,8,8,0,0,0-2.73-.86,5.16,5.16,0,0,0-4.83,1.74,10.09,10.09,0,0,0-2.42,5.48,10.76,10.76,0,0,0,.91,6.54,5.94,5.94,0,0,0,4.74,3.31,5.44,5.44,0,0,0,4.39-1.05,4.07,4.07,0,0,0,.85-1c.27-.43.49-.8.64-1.09s.25-.45.29-.44Q953.91,363.68,954,364Z"/><path class="cls-2" d="M966.57,358q3.77.54,2.93,6.34l-.44,3a10.86,10.86,0,0,0-.15,2.68q0,.21.72.54a4.55,4.55,0,0,0,1,.37c.06,0,.07.16,0,.44a3.15,3.15,0,0,1-.1.57q-.2-.06-1.56-.34t-2-.38q-.74-.11-2-.2l-1.56-.11a1.11,1.11,0,0,1,0-.57q.06-.44.15-.43a3.53,3.53,0,0,0,1-.07q.69-.13.81-.32a11.16,11.16,0,0,0,.49-2.12l.42-2.88a6.2,6.2,0,0,0-.18-3.46,2.43,2.43,0,0,0-2-1.23,2.85,2.85,0,0,0-1.69.27,1.4,1.4,0,0,0-.9,1l-.73,5.06a10.9,10.9,0,0,0-.15,2.68q0,.21.72.54a4.23,4.23,0,0,0,1,.36c.06,0,.07.16,0,.44a1.7,1.7,0,0,1-.13.57l-1.53-.34q-1.3-.28-2-.37t-2.06-.21l-1.59-.11a.87.87,0,0,1,0-.58q.06-.44.18-.42a4.14,4.14,0,0,0,1.11-.07q.75-.12.84-.31a9.64,9.64,0,0,0,.51-2.09L959.54,354a11.72,11.72,0,0,0,.14-2q-.08-.49-1.46-.69l-.26,0c-.12,0-.15-.18-.11-.5s.13-.46.24-.45q.92,0,1.77,0t1.41-.1c.38,0,.71-.1,1-.16l.88-.17h.06c.08,0,.15.08.21.2a.81.81,0,0,1,.1.33,9.58,9.58,0,0,0-.75,2.72l-.86,5.94c0,.12,0,.18.09.19s.06,0,.13-.07a5.66,5.66,0,0,1,2-1A5.48,5.48,0,0,1,966.57,358Z"/><path class="cls-2" d="M980.29,359.93a5.51,5.51,0,0,1,2.39.9,4.7,4.7,0,0,1,1.51,1.63,6.85,6.85,0,0,1,.69,1.87,5.09,5.09,0,0,1,.08,1.77c-.06.43-.17.69-.34.78a1.69,1.69,0,0,1-.92,0l-7-1q-.21,0-.23.15a5.78,5.78,0,0,0,.09,2.12,4.1,4.1,0,0,0,1.06,1.92,3.5,3.5,0,0,0,2.12,1.06,8.07,8.07,0,0,0,.86.08,4.36,4.36,0,0,0,.79,0l.64-.1a2.54,2.54,0,0,0,.58-.19l.43-.19.65-.31a.5.5,0,0,1,.12.2.58.58,0,0,1,0,.31.91.91,0,0,1-.26.53,4.84,4.84,0,0,1-2,1.34,5.52,5.52,0,0,1-3,.38,6,6,0,0,1-4.14-2.53,6.41,6.41,0,0,1-1.19-4.87,6.88,6.88,0,0,1,2.42-4.58A5.76,5.76,0,0,1,980.29,359.93Zm-.4,1.32a2.1,2.1,0,0,0-1.33.23,2.79,2.79,0,0,0-1,.88,5.76,5.76,0,0,0-.59,1,3.65,3.65,0,0,0-.26.85c0,.14,0,.21.15.23l4.77.69c.18,0,.29-.11.33-.4a3.85,3.85,0,0,0-.39-2.19A2.13,2.13,0,0,0,979.89,361.26Z"/><path class="cls-2" d="M994,361.91a6.55,6.55,0,0,1,4.45,2.61,6.37,6.37,0,0,1,1.29,4.95,6.73,6.73,0,0,1-13.33-1.92,6.4,6.4,0,0,1,2.6-4.4A6.51,6.51,0,0,1,994,361.91Zm-.58,1.33a2.39,2.39,0,0,0-2.34,1,6.38,6.38,0,0,0-1.22,3.08,8.67,8.67,0,0,0,.36,4.29,3,3,0,0,0,2.41,2.15,2.42,2.42,0,0,0,2.36-1,6.31,6.31,0,0,0,1.24-3.07,10.18,10.18,0,0,0,0-2.89,5.23,5.23,0,0,0-.92-2.37A2.76,2.76,0,0,0,993.46,363.24Z"/><path class="cls-2" d="M1012.23,364.53q3.8.54,2.93,6.58l-.4,2.79a12.34,12.34,0,0,0-.17,2.68q0,.21.75.54a4.55,4.55,0,0,0,1,.37c.06,0,.07.16,0,.44a1.75,1.75,0,0,1-.13.57c-.12,0-.63-.15-1.53-.34s-1.58-.32-2-.38-1.13-.13-2-.19l-1.53-.1a.87.87,0,0,1,0-.58q.06-.44.18-.42a3.56,3.56,0,0,0,1-.08c.46-.08.72-.19.78-.32a8.49,8.49,0,0,0,.55-2.11l.4-2.8a6.46,6.46,0,0,0-.17-3.51,2.39,2.39,0,0,0-2-1.27,2.75,2.75,0,0,0-1.72.28,1.43,1.43,0,0,0-.87,1l-.73,5.06a12.48,12.48,0,0,0-.18,2.68c0,.14.26.32.72.54a4.29,4.29,0,0,0,.92.36c.08,0,.1.16.07.45a1.7,1.7,0,0,1-.13.57l-1.53-.34q-1.3-.28-2-.37c-.47-.07-1.16-.14-2.06-.21l-1.59-.11a.87.87,0,0,1,0-.58c0-.29.1-.43.18-.42a4.13,4.13,0,0,0,1.11-.07q.75-.12.84-.31a9.63,9.63,0,0,0,.52-2.12l.69-4.8a2.83,2.83,0,0,0-.2-2,1.44,1.44,0,0,0-.6-.54,3.43,3.43,0,0,0-.68-.28c-.18,0-.27-.09-.27-.13q.12-.85.27-.86a41.94,41.94,0,0,0,4.87-.2l.08,0h.16c.08,0,.14.09.18.24a.92.92,0,0,1,0,.34,9.92,9.92,0,0,0-.27,1,.23.23,0,0,0,0,.15.44.44,0,0,0,.16-.07,6.61,6.61,0,0,1,2-1A5.2,5.2,0,0,1,1012.23,364.53Z"/><path class="cls-2" d="M1033.2,367.54a6.56,6.56,0,0,1,4.45,2.61,6.37,6.37,0,0,1,1.29,4.95,6.73,6.73,0,0,1-13.33-1.92,6.4,6.4,0,0,1,2.6-4.4A6.52,6.52,0,0,1,1033.2,367.54Zm-.58,1.33a2.4,2.4,0,0,0-2.34,1A6.4,6.4,0,0,0,1029,373a8.66,8.66,0,0,0,.36,4.29,3,3,0,0,0,2.41,2.15,2.43,2.43,0,0,0,2.36-1,6.32,6.32,0,0,0,1.24-3.07,10.15,10.15,0,0,0,0-2.89,5.23,5.23,0,0,0-.92-2.37A2.75,2.75,0,0,0,1032.61,368.87Z"/><path class="cls-2" d="M1051.39,370.16q3.8.55,2.93,6.58l-.4,2.8a12.33,12.33,0,0,0-.17,2.68q0,.22.75.54a4.52,4.52,0,0,0,1,.37c.06,0,.07.16,0,.44a1.75,1.75,0,0,1-.13.57q-.17-.06-1.53-.34t-2-.38q-.71-.1-2-.19l-1.53-.1a.87.87,0,0,1,0-.58c0-.29.1-.44.18-.42a3.52,3.52,0,0,0,1-.08c.46-.08.72-.19.78-.32a8.44,8.44,0,0,0,.55-2.11l.4-2.79a6.46,6.46,0,0,0-.17-3.51,2.39,2.39,0,0,0-2-1.27,2.74,2.74,0,0,0-1.72.28,1.43,1.43,0,0,0-.87,1l-.73,5.06a12.41,12.41,0,0,0-.18,2.68c0,.14.26.32.72.54a4.26,4.26,0,0,0,.92.36q.12,0,.07.45a1.73,1.73,0,0,1-.12.57l-1.53-.34q-1.3-.28-2-.37t-2.06-.21l-1.59-.11a.87.87,0,0,1,0-.58c0-.29.1-.44.18-.42a4.18,4.18,0,0,0,1.11-.07q.75-.12.84-.31a9.66,9.66,0,0,0,.52-2.12l.69-4.8a2.83,2.83,0,0,0-.2-2,1.43,1.43,0,0,0-.6-.54,3.37,3.37,0,0,0-.68-.28q-.28-.07-.27-.13.12-.85.27-.86a42.16,42.16,0,0,0,4.87-.2l.08,0h.16c.08,0,.14.09.17.24a.9.9,0,0,1,0,.34,9.87,9.87,0,0,0-.27,1,.24.24,0,0,0,0,.15.44.44,0,0,0,.16-.07,6.59,6.59,0,0,1,2-1A5.21,5.21,0,0,1,1051.39,370.16Z"/><path class="cls-2" d="M701.64,361.87l-1.8-.22c-.14,0-.17-.28-.11-.79a.77.77,0,0,1,.06-.26,8.34,8.34,0,0,0,2.47-1.28l.95-.77q.52-.43,1.23-1.12a2.13,2.13,0,0,1,.55.14c.17.07.25.14.25.2l-.36,2.89,2.14.28,1.46.2c.16,0,.23.12.21.29a2.89,2.89,0,0,1-.46,1.26l-3.54-.44-.89,7.11a2.82,2.82,0,0,0,.28,1.86,1.69,1.69,0,0,0,1.31.79,2.81,2.81,0,0,0,.63,0,3.21,3.21,0,0,0,.55-.1l.41-.13.22-.06c.08,0,.16.09.23.3s.1.34.07.4a2.73,2.73,0,0,1-1.37.8,4.68,4.68,0,0,1-2.18.28,3.75,3.75,0,0,1-2.49-1.31,4,4,0,0,1-.7-3.19Z"/><path class="cls-2" d="M720.46,362.12q3.78.47,3.05,6.28l-.38,3a10.86,10.86,0,0,0-.09,2.68c0,.14.25.32.73.52a4.57,4.57,0,0,0,1,.35c.06,0,.08.15,0,.44a3.08,3.08,0,0,1-.09.57q-.2-.06-1.56-.31t-2-.34q-.74-.09-2-.16l-1.56-.07a1.11,1.11,0,0,1,0-.57c0-.29.08-.44.14-.43a3.58,3.58,0,0,0,1-.09q.69-.14.8-.33a11.21,11.21,0,0,0,.45-2.13l.36-2.89a6.21,6.21,0,0,0-.24-3.46,2.43,2.43,0,0,0-2-1.19,2.83,2.83,0,0,0-1.68.3,1.4,1.4,0,0,0-.88,1l-.63,5.07a10.86,10.86,0,0,0-.09,2.68q0,.21.73.52a4.17,4.17,0,0,0,1,.34c.06,0,.08.15.05.44a1.69,1.69,0,0,1-.12.57l-1.53-.31q-1.3-.25-2-.34t-2.06-.17l-1.59-.08a.87.87,0,0,1,0-.58c0-.29.09-.44.17-.43a4.14,4.14,0,0,0,1.1-.09q.75-.13.83-.33a9.6,9.6,0,0,0,.47-2.1l1.53-12.27a11.59,11.59,0,0,0,.1-2q-.09-.49-1.48-.66l-.26,0c-.12,0-.16-.18-.12-.49s.12-.46.23-.45q.93,0,1.77,0c.56,0,1-.07,1.41-.12s.7-.11,1-.18l.88-.19h.06c.08,0,.15.07.22.19a.81.81,0,0,1,.11.33,9.63,9.63,0,0,0-.7,2.73l-.74,6c0,.12,0,.18.1.19s.06,0,.13-.07a5.64,5.64,0,0,1,2-1.06A5.48,5.48,0,0,1,720.46,362.12Z"/><path class="cls-2" d="M734.22,363.83a5.52,5.52,0,0,1,2.41.85,4.71,4.71,0,0,1,1.54,1.6,6.89,6.89,0,0,1,.73,1.86,5.12,5.12,0,0,1,.11,1.77c-.05.43-.16.69-.32.78a1.7,1.7,0,0,1-.92,0l-7-.88c-.14,0-.21,0-.23.15a5.79,5.79,0,0,0,.13,2.11,4.1,4.1,0,0,0,1.1,1.9,3.5,3.5,0,0,0,2.14,1,8.27,8.27,0,0,0,.86.06,4.41,4.41,0,0,0,.79-.05l.64-.11a2.54,2.54,0,0,0,.58-.2l.43-.2.64-.32a.47.47,0,0,1,.13.2.58.58,0,0,1,.05.31.91.91,0,0,1-.25.54,4.85,4.85,0,0,1-1.94,1.38,5.52,5.52,0,0,1-3,.43,6,6,0,0,1-4.19-2.45,6.41,6.41,0,0,1-1.28-4.85,6.88,6.88,0,0,1,2.33-4.62A5.76,5.76,0,0,1,734.22,363.83Zm-.38,1.33a2.1,2.1,0,0,0-1.32.26,2.79,2.79,0,0,0-1,.9,5.65,5.65,0,0,0-.57,1.05,3.65,3.65,0,0,0-.24.85q0,.21.15.23l4.78.6c.18,0,.28-.12.32-.41a3.85,3.85,0,0,0-.43-2.18A2.13,2.13,0,0,0,733.84,365.16Z"/><path class="cls-2" d="M755.85,366.56a6,6,0,0,1,3.24,1.39,6.23,6.23,0,0,1,2.24,5.61,7,7,0,0,1-7.81,6.16,6.89,6.89,0,0,1-2-.67q-.12,0-.17.4l-.25,2a10.69,10.69,0,0,0-.09,2.68q0,.24.72.55a4.57,4.57,0,0,0,1,.35c.06,0,.08.15,0,.44a2.66,2.66,0,0,1-.08.54l-1.57-.29q-1.36-.26-2-.34t-2.09-.17l-1.59-.11a1.05,1.05,0,0,1,0-.56c0-.29.08-.42.14-.42a4.17,4.17,0,0,0,1.1-.09q.75-.13.87-.36a10.87,10.87,0,0,0,.44-2.1l1.4-11.27a2.89,2.89,0,0,0-.23-2,1.34,1.34,0,0,0-.6-.51,3.64,3.64,0,0,0-.69-.25c-.2,0-.29-.09-.29-.12.07-.57.17-.86.29-.86a22.84,22.84,0,0,0,4.5-.28l.58-.08q.12,0,0,.63a1.59,1.59,0,0,1-.1.35,6,6,0,0,1,1.4-.53A4.25,4.25,0,0,1,755.85,366.56Zm-.9,1.48a2.25,2.25,0,0,0-1.65.36,2,2,0,0,0-.79,1.43l-.76,6.08a1.83,1.83,0,0,0,.6,1.65,2.89,2.89,0,0,0,1.64.79,2.79,2.79,0,0,0,2.44-1A5.76,5.76,0,0,0,757.8,374a7.7,7.7,0,0,0-.45-4.09A2.92,2.92,0,0,0,754.95,368Z"/><path class="cls-2" d="M770.7,368.38a6.55,6.55,0,0,1,4.49,2.52,6.37,6.37,0,0,1,1.38,4.92,6.78,6.78,0,1,1-5.87-7.44Zm-.56,1.34a2.4,2.4,0,0,0-2.32,1.07,6.4,6.4,0,0,0-1.17,3.11,8.66,8.66,0,0,0,.44,4.28,3,3,0,0,0,2.45,2.1,2.42,2.42,0,0,0,2.34-1.09,6.32,6.32,0,0,0,1.18-3.09,10.21,10.21,0,0,0,0-2.89,5.24,5.24,0,0,0-1-2.35A2.76,2.76,0,0,0,770.14,369.72Z"/><path class="cls-2" d="M797.51,374a.86.86,0,0,0-.16-.63,1.31,1.31,0,0,0-.56-.43,5.46,5.46,0,0,0-.66-.23,4.26,4.26,0,0,0-.6-.12h-.12c-.08,0-.1-.16-.08-.46s.07-.47.14-.52q.38,0,1.55.28c.78.16,1.41.26,1.88.32s.94.09,1.59.11,1.12,0,1.41.09a2,2,0,0,1,0,.51c0,.29-.1.44-.17.43a3.39,3.39,0,0,0-1.21.22,1.82,1.82,0,0,0-1.13.77l-5.66,9.87a1.17,1.17,0,0,1-.45.38,1,1,0,0,1-.6.12.37.37,0,0,1-.36-.25l-2.58-8.59-4.12,7.31a1.64,1.64,0,0,1-.39.37.89.89,0,0,1-.66.16.44.44,0,0,1-.39-.26q-.49-1.62-1.14-3.93t-1.21-4.09q-.56-1.78-1.31-3.88a1.37,1.37,0,0,0-.69-.69,2.89,2.89,0,0,0-.92-.32q-.12,0-.06-.49c0-.28.09-.44.18-.49s.69.12,1.48.27,1.41.27,1.86.32,1.13.11,2,.16l1.55.1a1.62,1.62,0,0,1,0,.54c0,.26-.08.39-.14.4a3.51,3.51,0,0,0-1,.08c-.44.08-.68.26-.71.54q0,.06,2.1,7.15.43-.79,1-1.78l.85-1.51.58-1.05q.29-.53.42-.8a1.59,1.59,0,0,0,.13-.36,2.16,2.16,0,0,0-.24-1.23,1.4,1.4,0,0,0-.59-.55,2.36,2.36,0,0,0-1-.31c-.08,0-.1-.16-.06-.44s.09-.45.18-.5.7.12,1.45.27,1.36.26,1.83.32,1.08.1,1.93.15l1.52.1a1.45,1.45,0,0,1,0,.55c0,.28-.1.42-.16.42q-1.5-.19-1.63.84a48.08,48.08,0,0,0,2,6.89q.63-1.18,1.53-2.76t1.33-2.35A4,4,0,0,0,797.51,374Z"/><path class="cls-2" d="M809.69,373.23a5.52,5.52,0,0,1,2.41.85,4.7,4.7,0,0,1,1.54,1.6,6.91,6.91,0,0,1,.73,1.86,5.08,5.08,0,0,1,.11,1.77c-.05.43-.16.69-.32.78a1.69,1.69,0,0,1-.92,0l-7.05-.88c-.14,0-.21,0-.23.15a5.77,5.77,0,0,0,.13,2.11,4.08,4.08,0,0,0,1.1,1.9,3.5,3.5,0,0,0,2.13,1,8,8,0,0,0,.86.06,4.49,4.49,0,0,0,.79-.05l.64-.12a2.49,2.49,0,0,0,.58-.2l.43-.2.64-.32a.47.47,0,0,1,.13.2.57.57,0,0,1,.05.31.92.92,0,0,1-.25.54,4.85,4.85,0,0,1-1.94,1.38,5.52,5.52,0,0,1-3,.43A6,6,0,0,1,804,384a6.41,6.41,0,0,1-1.29-4.85,6.89,6.89,0,0,1,2.33-4.62A5.76,5.76,0,0,1,809.69,373.23Zm-.37,1.33a2.1,2.1,0,0,0-1.32.25,2.81,2.81,0,0,0-1,.9,5.8,5.8,0,0,0-.57,1.05,3.66,3.66,0,0,0-.24.85c0,.14,0,.21.15.23l4.78.59c.18,0,.28-.11.32-.41a3.85,3.85,0,0,0-.43-2.18A2.13,2.13,0,0,0,809.31,374.57Z"/><path class="cls-2" d="M825.45,375.2a3,3,0,0,1,2.3,1.28q-.31,2.51-1.73,2.33a1.77,1.77,0,0,1-1.08-.73,1.86,1.86,0,0,0-1.2-.75,1.59,1.59,0,0,0-1.55.75,4,4,0,0,0-.76,1.87l-.46,3.69a12.47,12.47,0,0,0-.12,2.68c0,.14.26.32.73.53a4.18,4.18,0,0,0,1,.34c.06,0,.08.16,0,.44a3.09,3.09,0,0,1-.09.57l-1.55-.31q-1.32-.25-2-.34t-2.06-.17l-1.59-.08a.87.87,0,0,1,0-.58c0-.29.09-.44.17-.43a4.09,4.09,0,0,0,1.1-.09q.75-.13.83-.33a9.68,9.68,0,0,0,.47-2.13l.6-4.81a2.83,2.83,0,0,0-.24-1.95,1.43,1.43,0,0,0-.61-.53,3.37,3.37,0,0,0-.69-.27c-.19,0-.27-.08-.27-.12.07-.57.16-.86.26-.87a42,42,0,0,0,4.86-.29l.24,0c.08,0,.14.09.18.23a.71.71,0,0,1,0,.35l-.09.41q-.07.28-.15.58a3.59,3.59,0,0,0-.09.39,5.42,5.42,0,0,1,1.62-1.25A3.25,3.25,0,0,1,825.45,375.2Z"/><path class="cls-2" d="M842.92,377.37a6.55,6.55,0,0,1,4.5,2.52,6.37,6.37,0,0,1,1.38,4.92,6.78,6.78,0,1,1-5.87-7.44Zm-.56,1.34a2.39,2.39,0,0,0-2.32,1.07,6.39,6.39,0,0,0-1.17,3.11,8.67,8.67,0,0,0,.44,4.28,3,3,0,0,0,2.45,2.1,2.42,2.42,0,0,0,2.34-1.09,6.32,6.32,0,0,0,1.18-3.09,10.22,10.22,0,0,0,0-2.9,5.25,5.25,0,0,0-1-2.35A2.76,2.76,0,0,0,842.37,378.71Z"/><path class="cls-2" d="M860.85,372a5.83,5.83,0,0,1,2,.57,2.08,2.08,0,0,1,1,.89,3.33,3.33,0,0,1-.37,1.62,1.07,1.07,0,0,1-1.17.59,1.16,1.16,0,0,1-.84-.6q-.34-.54-.72-1.08a1.37,1.37,0,0,0-1-.62,1.59,1.59,0,0,0-1.42.6,5,5,0,0,0-1,1.76,12.09,12.09,0,0,0-.52,2.36l-.17,1.36a.17.17,0,0,0,0,.1.17.17,0,0,0,.11.07l3.25.4a.24.24,0,0,1,.14,0,.33.33,0,0,1,0,.18,3.06,3.06,0,0,1-.52,1.31l-3.07-.38a.16.16,0,0,0-.2.16l-.82,6.58a11.35,11.35,0,0,0-.09,2.68q0,.21.73.52a4.2,4.2,0,0,0,1,.34c.06,0,.08.15,0,.44a1.64,1.64,0,0,1-.12.57q-.17-.05-1.52-.31t-2.05-.35q-.71-.09-2-.16l-1.55-.07a.56.56,0,0,1-.08-.34,1.8,1.8,0,0,1,.06-.46c0-.14.09-.21.15-.21a4,4,0,0,0,1.06-.09c.49-.09.76-.2.82-.33a9.85,9.85,0,0,0,.57-2.39l.84-6.79c0-.14,0-.21-.15-.23l-1.77-.22s-.05-.07,0-.18a1.59,1.59,0,0,1,.52-.8,1.2,1.2,0,0,1,1-.41l.47.06a.16.16,0,0,0,.2-.15l0-.29a8.08,8.08,0,0,1,2.5-5.08A5.56,5.56,0,0,1,860.85,372Z"/><path class="cls-2" d="M872.73,390.07a11,11,0,0,0-.09,2.68q0,.21.74.53a4.37,4.37,0,0,0,1,.35q.12,0,.08.44a1.68,1.68,0,0,1-.12.57l-1.56-.31q-1.36-.26-2-.34c-.49-.06-1.19-.12-2.09-.17l-1.56-.07a.88.88,0,0,1,0-.58c0-.29.1-.44.17-.43a4.35,4.35,0,0,0,1.09-.09q.76-.13.85-.33a9.67,9.67,0,0,0,.47-2.13l.6-4.81a2.83,2.83,0,0,0-.24-1.95,1.65,1.65,0,0,0-.62-.53,3.17,3.17,0,0,0-.69-.27c-.19,0-.29-.08-.28-.12.07-.57.17-.86.29-.86a22.68,22.68,0,0,0,2.43-.06,23.29,23.29,0,0,0,2.4-.24l.24,0c.1,0,.17.09.21.24a.55.55,0,0,1,0,.33,25.17,25.17,0,0,0-.55,2.51Zm-1.53-12.73a1.81,1.81,0,0,1-.37-1.36,1.76,1.76,0,0,1,.69-1.22,1.87,1.87,0,0,1,2.6.32,1.76,1.76,0,0,1,.37,1.35,1.81,1.81,0,0,1-.69,1.23,1.83,1.83,0,0,1-2.6-.32Z"/><path class="cls-2" d="M887.38,382.91q3.81.47,3.05,6.52l-.35,2.8a12.26,12.26,0,0,0-.12,2.68q0,.21.76.53a4.57,4.57,0,0,0,1,.35c.06,0,.08.15,0,.44a1.72,1.72,0,0,1-.12.57q-.17-.05-1.53-.31t-2-.34c-.47-.06-1.13-.11-2-.16l-1.54-.07a.87.87,0,0,1,0-.58c0-.29.09-.44.17-.43a3.54,3.54,0,0,0,1-.1q.69-.14.78-.34a8.47,8.47,0,0,0,.5-2.12l.35-2.8a6.44,6.44,0,0,0-.24-3.5,2.39,2.39,0,0,0-2-1.24,2.75,2.75,0,0,0-1.71.31,1.43,1.43,0,0,0-.85,1l-.63,5.07a12.47,12.47,0,0,0-.12,2.68c0,.14.26.32.73.52a4.27,4.27,0,0,0,.93.34q.12,0,.08.44a1.72,1.72,0,0,1-.12.57l-1.54-.31q-1.3-.25-2-.34c-.47-.06-1.16-.12-2.06-.17l-1.59-.08a.88.88,0,0,1,0-.58c0-.29.1-.44.17-.43a4.18,4.18,0,0,0,1.11-.09c.5-.09.78-.2.83-.33a9.68,9.68,0,0,0,.47-2.13l.6-4.81a2.83,2.83,0,0,0-.24-1.95,1.44,1.44,0,0,0-.61-.53,3.4,3.4,0,0,0-.69-.26c-.19,0-.27-.08-.27-.12.07-.57.16-.86.26-.87a42.06,42.06,0,0,0,4.86-.29l.08,0h.16c.08,0,.14.09.18.23a.9.9,0,0,1,0,.34,10.37,10.37,0,0,0-.25,1,.23.23,0,0,0,0,.15.46.46,0,0,0,.16-.07,6.59,6.59,0,0,1,2-1A5.19,5.19,0,0,1,887.38,382.91Z"/><path class="cls-2" d="M905.92,387.11q-.28-.85-2-1.05c-.06,0-.07-.15,0-.42a1,1,0,0,1,.15-.52q.41.05,1.42.27t1.67.3q.66.08,1.74.13c.71,0,1.2.06,1.46.09a.87.87,0,0,1,0,.48q-.06.47-.24.45A3.56,3.56,0,0,0,909,387a1.73,1.73,0,0,0-1.11.72l-6.22,9.8a2,2,0,0,1-.45.45.75.75,0,0,1-.53.2c-.2,0-.31-.1-.33-.22q-.42-1.4-1.15-3.87t-1.26-4.19q-.54-1.72-1.23-3.87-.25-.87-1.82-1.06c-.08,0-.1-.17-.06-.49A.69.69,0,0,1,895,384c.18,0,.69.12,1.55.28s1.52.28,2,.34,1.15.11,2,.17l1.54.1a1,1,0,0,1,0,.54q-.07.41-.18.4a4.33,4.33,0,0,0-1.07,0q-.69.09-.72.39a.55.55,0,0,0,0,.3l2.08,7.15,3.38-5.51C905.93,387.7,906,387.34,905.92,387.11Z"/><path class="cls-2" d="M916.24,395.49a10.93,10.93,0,0,0-.1,2.68c0,.14.27.32.74.53a4.37,4.37,0,0,0,1,.35q.12,0,.08.44a1.65,1.65,0,0,1-.12.57l-1.56-.31q-1.36-.26-2-.34t-2.09-.17l-1.56-.07a.88.88,0,0,1,0-.58q.06-.44.17-.43a4.35,4.35,0,0,0,1.09-.09c.51-.09.79-.2.85-.33a9.71,9.71,0,0,0,.47-2.13l.6-4.81a2.83,2.83,0,0,0-.24-1.95,1.65,1.65,0,0,0-.62-.53,3.17,3.17,0,0,0-.69-.27c-.19,0-.29-.08-.28-.12.07-.57.17-.86.29-.86a22.68,22.68,0,0,0,2.43-.06,23.29,23.29,0,0,0,2.4-.24l.24,0c.1,0,.17.09.21.24a.55.55,0,0,1,0,.33,25.66,25.66,0,0,0-.55,2.51Zm-1.53-12.73a1.81,1.81,0,0,1-.37-1.36,1.83,1.83,0,0,1,2.05-1.59,1.79,1.79,0,0,1,1.23.69,1.76,1.76,0,0,1,.37,1.35,1.81,1.81,0,0,1-.69,1.23,1.83,1.83,0,0,1-2.6-.32Z"/><path class="cls-2" d="M926.05,387.7a12.66,12.66,0,0,1,3.36.93,16.72,16.72,0,0,1-.09,3.34c0,.16-.16.22-.41.19-.43-.05-.66-.16-.68-.32a3.61,3.61,0,0,0-.65-1.86,2.32,2.32,0,0,0-1.69-.95,2.13,2.13,0,0,0-1.39.22,1.33,1.33,0,0,0-.62,1,1.73,1.73,0,0,0,.07.77,1.85,1.85,0,0,0,.45.7,7.2,7.2,0,0,0,.59.55q.26.21.78.58a2,2,0,0,0,.28.18l.41.29.46.33.44.34a5.23,5.23,0,0,1,.47.4l.41.41a2.31,2.31,0,0,1,.39.47l.3.5a2,2,0,0,1,.24.57c0,.17.07.37.09.58a2.73,2.73,0,0,1,0,.64,3.5,3.5,0,0,1-1.8,2.76,5.65,5.65,0,0,1-3.6.64,9.92,9.92,0,0,1-3.7-1.3,11.67,11.67,0,0,1-.09-1.67,14.63,14.63,0,0,1,.06-1.71.63.63,0,0,1,.43-.1c.45.06.68.16.68.32a3.28,3.28,0,0,0,.92,2.14,3.17,3.17,0,0,0,1.93,1,2.16,2.16,0,0,0,1.41-.24,1.45,1.45,0,0,0,.68-1.14,2,2,0,0,0,0-.56,1.46,1.46,0,0,0-.22-.54l-.29-.46a2.19,2.19,0,0,0-.48-.46l-.55-.41-.69-.48-.7-.49a6.91,6.91,0,0,1-1.9-1.84,3.44,3.44,0,0,1,1.29-4.8A5.74,5.74,0,0,1,926.05,387.7Z"/><path class="cls-2" d="M936.49,398a11,11,0,0,0-.09,2.68q0,.21.74.53a4.35,4.35,0,0,0,1,.35c.08,0,.11.16.08.44a1.64,1.64,0,0,1-.12.57l-1.56-.31q-1.36-.26-2-.34t-2.09-.17l-1.56-.07a.88.88,0,0,1,0-.58c0-.29.1-.44.17-.43a4.35,4.35,0,0,0,1.09-.09q.76-.13.85-.33a9.68,9.68,0,0,0,.47-2.13l.6-4.81a2.83,2.83,0,0,0-.24-1.95,1.66,1.66,0,0,0-.62-.53,3.18,3.18,0,0,0-.69-.27c-.2,0-.29-.08-.28-.12.07-.57.17-.86.29-.86a22.69,22.69,0,0,0,2.43-.06,23.27,23.27,0,0,0,2.4-.24l.24,0c.1,0,.17.09.21.24a.54.54,0,0,1,0,.33,25.17,25.17,0,0,0-.55,2.51ZM935,385.29a1.81,1.81,0,0,1-.37-1.36,1.76,1.76,0,0,1,.69-1.22,1.84,1.84,0,0,1,3,1.67,1.81,1.81,0,0,1-.69,1.23,1.83,1.83,0,0,1-2.6-.32Z"/><path class="cls-2" d="M949,390.59a6,6,0,0,1,3.17,1.34,6.24,6.24,0,0,1,1.92,2.64,6.35,6.35,0,0,1,.38,3.06,6.78,6.78,0,0,1-2.67,4.69,6.55,6.55,0,0,1-5,1.46,9.38,9.38,0,0,1-2.13-.49,6.49,6.49,0,0,0-1.36-.39,2.27,2.27,0,0,0-.79.11,3,3,0,0,1-.62.13,1.42,1.42,0,0,1-.41-.23c-.21-.15-.31-.26-.3-.34s0-.23.12-.52.18-.71.31-1.25A17.28,17.28,0,0,0,942,399l1.5-12a10.37,10.37,0,0,0,.07-2q-.09-.49-1.48-.66l-.27,0c-.12,0-.16-.18-.12-.49s.12-.46.24-.45q.92,0,1.77,0t1.41-.12q.56-.08,1-.18l.88-.19H947c.08,0,.15.07.21.19a.83.83,0,0,1,.11.33,10.38,10.38,0,0,0-.67,2.73l-.59,4.72v0l0,.13a.81.81,0,0,0,0,.13c0,.06,0,.09,0,.1l.11,0a5.42,5.42,0,0,1,1.27-.44A4.26,4.26,0,0,1,949,390.59Zm-.85,1.51a2.3,2.3,0,0,0-1.66.36,1.75,1.75,0,0,0-.78,1.25l-.78,6.25a1.78,1.78,0,0,0,.59,1.66,3.23,3.23,0,0,0,1.78.76,2.53,2.53,0,0,0,2.49-1.1A6.82,6.82,0,0,0,951,398a7.64,7.64,0,0,0-.41-4.13A2.91,2.91,0,0,0,948.17,392.1Z"/><path class="cls-2" d="M961.32,401a12.24,12.24,0,0,0-.12,2.68q0,.21.67.55a3.27,3.27,0,0,0,.87.36c.06,0,.08.15.05.43a1.6,1.6,0,0,1-.11.55l-1.1-.21-1.24-.23-1.06-.16c-.37,0-.75-.08-1.12-.11l-1.25-.08-1.13-.07a.84.84,0,0,1,0-.56c0-.28.09-.42.17-.41a3.16,3.16,0,0,0,1-.13c.46-.11.72-.24.78-.37a9.89,9.89,0,0,0,.51-2.15l1.53-12.27a10.35,10.35,0,0,0,.07-2q-.09-.49-1.42-.66l-.29,0c-.12,0-.16-.14-.13-.37s.12-.46.23-.45q.93,0,1.77,0t1.41-.12l1-.16.66-.14.22-.06h.06c.08,0,.16.08.23.21a.92.92,0,0,1,.13.32,9.38,9.38,0,0,0-.7,2.73Z"/><path class="cls-2" d="M970.43,402.24a10.86,10.86,0,0,0-.09,2.68q0,.21.74.53a4.42,4.42,0,0,0,1,.35q.12,0,.08.44a1.69,1.69,0,0,1-.12.57q-.2-.06-1.56-.31t-2-.34q-.74-.09-2.09-.17l-1.56-.08a.88.88,0,0,1,0-.58q.06-.44.17-.43a4.26,4.26,0,0,0,1.09-.09c.51-.09.79-.2.85-.33a9.73,9.73,0,0,0,.47-2.13l.6-4.81a2.83,2.83,0,0,0-.24-1.95,1.65,1.65,0,0,0-.62-.53,3.17,3.17,0,0,0-.69-.27c-.19,0-.29-.08-.28-.12.07-.57.17-.86.29-.86a22.74,22.74,0,0,0,2.43-.06,23.07,23.07,0,0,0,2.4-.24l.24,0c.1,0,.17.09.21.24a.56.56,0,0,1,0,.33,25.21,25.21,0,0,0-.55,2.51Zm-1.53-12.73a1.8,1.8,0,0,1-.37-1.36,1.83,1.83,0,0,1,2.05-1.59,1.78,1.78,0,0,1,1.23.69,1.76,1.76,0,0,1,.37,1.35,1.81,1.81,0,0,1-.69,1.23,1.83,1.83,0,0,1-2.6-.32Z"/><path class="cls-2" d="M976.89,396.16l-1.8-.22c-.14,0-.17-.28-.11-.79a.76.76,0,0,1,.06-.26,8.34,8.34,0,0,0,2.47-1.28l.95-.77q.52-.43,1.23-1.12a2.1,2.1,0,0,1,.55.14c.17.07.25.14.25.2l-.36,2.89,2.14.28,1.46.2c.16,0,.23.12.21.29a2.89,2.89,0,0,1-.46,1.26l-3.54-.44-.89,7.11a2.82,2.82,0,0,0,.28,1.86,1.7,1.7,0,0,0,1.31.79,2.81,2.81,0,0,0,.63,0,3.12,3.12,0,0,0,.55-.1l.41-.13.22-.06c.08,0,.16.09.23.3a.69.69,0,0,1,.07.4,2.73,2.73,0,0,1-1.37.8,4.69,4.69,0,0,1-2.18.28,3.75,3.75,0,0,1-2.49-1.31,4,4,0,0,1-.7-3.19Z"/><path class="cls-2" d="M989.18,395.89q.65.08,1.87.14c.81,0,1.32.07,1.52.1a2,2,0,0,1,0,.54c0,.28-.09.41-.17.4a3.25,3.25,0,0,0-1,.11q-.66.14-.72.4l0,.18q0,.48,1.91,7.07.3-.5,1.51-2.76t1.4-2.6a2.79,2.79,0,0,0,.29-.89.93.93,0,0,0-.38-.78,2.45,2.45,0,0,0-1.37-.52q-.12,0-.06-.46a.76.76,0,0,1,.18-.49c.24,0,.72.12,1.44.27s1.32.25,1.79.31.92.08,1.53.1,1,0,1.32.08a.85.85,0,0,1,.06.49q-.06.47-.18.46a3.76,3.76,0,0,0-1.23.15,1.65,1.65,0,0,0-1.13.76l-7,12.37q-2.36,4.08-4.93,3.76a1.61,1.61,0,0,1-1.13-.56,1.39,1.39,0,0,1,.41-2.08q3.07.38,4.34-1.92l1-1.91L987.42,398a3.87,3.87,0,0,0-.27-.72,1.78,1.78,0,0,0-.79-.77,2.83,2.83,0,0,0-.93-.34c-.08,0-.1-.15-.07-.43s.09-.49.16-.52l1.57.29Q988.48,395.8,989.18,395.89Z"/><path class="cls-2" d="M1012.44,407.48a10.93,10.93,0,0,0-.1,2.68q0,.21.74.53a4.42,4.42,0,0,0,1,.35c.08,0,.11.16.08.44a1.65,1.65,0,0,1-.12.57l-1.56-.31q-1.36-.26-2-.34t-2.09-.17l-1.56-.08a.87.87,0,0,1,0-.58c0-.29.09-.44.17-.43a4.25,4.25,0,0,0,1.09-.09q.76-.13.85-.33a9.73,9.73,0,0,0,.47-2.13l.6-4.81a2.83,2.83,0,0,0-.24-1.95,1.65,1.65,0,0,0-.62-.53,3.17,3.17,0,0,0-.69-.27c-.2,0-.29-.08-.28-.12.07-.57.17-.86.29-.86a23,23,0,0,0,2.43-.06,23.3,23.3,0,0,0,2.4-.24l.24,0c.1,0,.17.09.21.24a.55.55,0,0,1,0,.33,25.17,25.17,0,0,0-.55,2.51Zm-1.53-12.73a1.81,1.81,0,0,1-.37-1.36,1.76,1.76,0,0,1,.69-1.22,1.84,1.84,0,0,1,3,1.67,1.81,1.81,0,0,1-.69,1.23,1.83,1.83,0,0,1-2.6-.32Z"/><path class="cls-2" d="M1027.09,400.31q3.81.47,3.05,6.52l-.35,2.8a12.4,12.4,0,0,0-.12,2.68q0,.21.76.53a4.51,4.51,0,0,0,1,.35c.06,0,.08.16.05.44a1.71,1.71,0,0,1-.12.57q-.17-.05-1.53-.31t-2-.34q-.71-.09-2-.16l-1.53-.07a.87.87,0,0,1,0-.58q.05-.44.17-.43a3.54,3.54,0,0,0,1-.1c.46-.09.72-.21.78-.34a8.55,8.55,0,0,0,.5-2.12l.35-2.8a6.46,6.46,0,0,0-.24-3.5,2.39,2.39,0,0,0-2-1.24,2.75,2.75,0,0,0-1.72.31,1.43,1.43,0,0,0-.85,1l-.63,5.07a12.47,12.47,0,0,0-.12,2.68q0,.21.73.53a4.29,4.29,0,0,0,.93.34c.08,0,.11.16.08.44a1.69,1.69,0,0,1-.12.57l-1.54-.31q-1.3-.25-2-.34t-2.06-.17l-1.59-.08a.88.88,0,0,1,0-.58c0-.29.09-.44.17-.43a4.16,4.16,0,0,0,1.1-.09q.75-.13.84-.33a9.71,9.71,0,0,0,.48-2.13l.6-4.81a2.83,2.83,0,0,0-.24-1.95,1.43,1.43,0,0,0-.61-.53,3.43,3.43,0,0,0-.69-.27q-.28-.06-.27-.12c.07-.57.16-.86.26-.87a42.07,42.07,0,0,0,4.86-.29l.08,0h.16c.08,0,.14.09.18.23a.9.9,0,0,1,0,.33,9.92,9.92,0,0,0-.25,1,.24.24,0,0,0,0,.15.46.46,0,0,0,.16-.07,6.61,6.61,0,0,1,2-1A5.2,5.2,0,0,1,1027.09,400.31Z"/><path class="cls-2" d="M1046.25,402.67a12.68,12.68,0,0,1,3.36.93,16.79,16.79,0,0,1-.09,3.34q0,.24-.41.19-.65-.08-.68-.32a3.61,3.61,0,0,0-.65-1.86,2.32,2.32,0,0,0-1.7-.94,2.13,2.13,0,0,0-1.39.22,1.32,1.32,0,0,0-.62,1,1.73,1.73,0,0,0,.07.77,1.85,1.85,0,0,0,.45.7,7.21,7.21,0,0,0,.59.55c.17.14.43.33.78.58a1.8,1.8,0,0,0,.28.18l.41.29.45.33.44.34a5.23,5.23,0,0,1,.47.4l.41.41a2.34,2.34,0,0,1,.39.47l.3.5a1.92,1.92,0,0,1,.24.57,5.33,5.33,0,0,1,.09.58,2.68,2.68,0,0,1,0,.64,3.5,3.5,0,0,1-1.8,2.76,5.64,5.64,0,0,1-3.6.65,10,10,0,0,1-3.7-1.3,11.86,11.86,0,0,1-.09-1.67,14.65,14.65,0,0,1,.06-1.72.64.64,0,0,1,.43-.1c.45.06.68.17.68.32a3.28,3.28,0,0,0,.92,2.14,3.17,3.17,0,0,0,1.93,1,2.16,2.16,0,0,0,1.41-.24,1.45,1.45,0,0,0,.68-1.14,2,2,0,0,0,0-.55,1.48,1.48,0,0,0-.22-.54l-.29-.46a2.16,2.16,0,0,0-.48-.46l-.55-.41-.69-.47-.7-.49a6.91,6.91,0,0,1-1.9-1.84,3.43,3.43,0,0,1,1.29-4.8A5.73,5.73,0,0,1,1046.25,402.67Z"/><path class="cls-2" d="M1058.59,404.24a5.52,5.52,0,0,1,2.41.85,4.7,4.7,0,0,1,1.54,1.6,6.92,6.92,0,0,1,.73,1.86,5.12,5.12,0,0,1,.11,1.77q-.08.65-.32.78a1.69,1.69,0,0,1-.92,0l-7-.88c-.14,0-.21,0-.23.15a5.77,5.77,0,0,0,.13,2.11,4.07,4.07,0,0,0,1.09,1.9,3.5,3.5,0,0,0,2.14,1,8,8,0,0,0,.86.06,4.4,4.4,0,0,0,.79-.05l.64-.11a2.57,2.57,0,0,0,.58-.2l.43-.2.64-.32a.49.49,0,0,1,.13.2.59.59,0,0,1,.05.31.92.92,0,0,1-.25.54,4.85,4.85,0,0,1-1.94,1.38,5.51,5.51,0,0,1-3,.43,6,6,0,0,1-4.19-2.45,6.41,6.41,0,0,1-1.28-4.85,6.88,6.88,0,0,1,2.33-4.62A5.76,5.76,0,0,1,1058.59,404.24Zm-.38,1.33a2.1,2.1,0,0,0-1.32.25,2.8,2.8,0,0,0-1,.9,5.8,5.8,0,0,0-.57,1.05,3.65,3.65,0,0,0-.24.85c0,.14,0,.21.15.23l4.78.59c.18,0,.28-.11.32-.41a3.85,3.85,0,0,0-.43-2.18A2.13,2.13,0,0,0,1058.21,405.57Z"/><path class="cls-2" d="M1075.35,406.33q3.81.47,3.05,6.52l-.35,2.8a12.4,12.4,0,0,0-.12,2.68q0,.21.76.53a4.51,4.51,0,0,0,1,.35c.06,0,.08.16.05.44a1.71,1.71,0,0,1-.12.57q-.17-.05-1.53-.31t-2-.34q-.71-.09-2-.16l-1.53-.07a.87.87,0,0,1,0-.58q.05-.44.17-.43a3.55,3.55,0,0,0,1-.1c.46-.09.72-.21.78-.34a8.55,8.55,0,0,0,.5-2.12l.35-2.8a6.45,6.45,0,0,0-.24-3.5,2.39,2.39,0,0,0-2-1.24,2.75,2.75,0,0,0-1.72.31,1.43,1.43,0,0,0-.85,1l-.63,5.07a12.47,12.47,0,0,0-.12,2.68q0,.21.73.53a4.32,4.32,0,0,0,.93.34c.08,0,.11.16.08.44a1.69,1.69,0,0,1-.12.57l-1.53-.31q-1.3-.25-2-.34t-2.06-.17l-1.59-.08a.88.88,0,0,1,0-.58c0-.29.09-.44.17-.43a4.14,4.14,0,0,0,1.1-.09q.75-.13.83-.33a9.72,9.72,0,0,0,.48-2.13l.6-4.81a2.83,2.83,0,0,0-.24-1.95,1.42,1.42,0,0,0-.61-.53,3.37,3.37,0,0,0-.69-.27c-.18,0-.27-.08-.27-.12.07-.57.16-.86.26-.87a42,42,0,0,0,4.86-.29l.08,0h.16c.08,0,.14.09.18.23a.91.91,0,0,1,0,.33,9.76,9.76,0,0,0-.25,1,.24.24,0,0,0,0,.15.43.43,0,0,0,.16-.07,6.59,6.59,0,0,1,2-1A5.21,5.21,0,0,1,1075.35,406.33Z"/><path class="cls-2" d="M1089.88,408.08a5.1,5.1,0,0,1,2.1.68c.1,0,.17-.14.21-.45l.35-2.77a10.35,10.35,0,0,0,.07-2q-.09-.49-1.48-.66l-.24,0q-.18,0-.12-.49c0-.31.12-.46.24-.45q.9,0,1.76,0t1.42-.12c.38-.05.7-.11,1-.18l.63-.15.25,0h.06c.08,0,.15.07.21.19a.54.54,0,0,1,.08.32,11.46,11.46,0,0,0-.64,2.74l-1.62,13a11,11,0,0,0-.09,2.21.44.44,0,0,0,.25.36,1.8,1.8,0,0,0,.54.22l.56.11.29.05a.62.62,0,0,1,0,.36c0,.39-.13.58-.25.57-.28,0-.63,0-1.06,0l-1.26,0-1.18.06-1.26.1q-.18,0-.11-.52l.06-.5a.13.13,0,0,0,0-.12s-.05,0-.07,0a5,5,0,0,1-3.21.71,5.77,5.77,0,0,1-3.94-2.27,6,6,0,0,1-1.22-4.63,7,7,0,0,1,2.64-4.75A6.51,6.51,0,0,1,1089.88,408.08Zm-.44,1.38a2.6,2.6,0,0,0-2.52,1,7,7,0,0,0-1.24,3.47,7.16,7.16,0,0,0,.43,4,2.92,2.92,0,0,0,2.39,1.72,2.48,2.48,0,0,0,1.69-.31,1.65,1.65,0,0,0,.78-1.24l.77-6.2a2.09,2.09,0,0,0,0-.63,2.79,2.79,0,0,0-.27-.74,1.89,1.89,0,0,0-.72-.72A3.16,3.16,0,0,0,1089.44,409.46Z"/><path class="cls-2" d="M1103,418.76a11,11,0,0,0-.1,2.68q0,.21.74.53a4.37,4.37,0,0,0,1,.35c.08,0,.11.16.08.44a1.65,1.65,0,0,1-.12.57l-1.56-.31q-1.36-.26-2-.34t-2.09-.17l-1.56-.07a.87.87,0,0,1,0-.58c0-.29.09-.44.17-.43a4.34,4.34,0,0,0,1.09-.09q.76-.13.85-.33a9.73,9.73,0,0,0,.47-2.13l.6-4.81a2.83,2.83,0,0,0-.24-1.95,1.65,1.65,0,0,0-.62-.53,3.17,3.17,0,0,0-.69-.27c-.2,0-.29-.08-.28-.12.07-.57.17-.86.29-.86a22.69,22.69,0,0,0,2.43-.06,23.24,23.24,0,0,0,2.4-.24l.24,0c.1,0,.17.09.21.24a.55.55,0,0,1,0,.33,25.46,25.46,0,0,0-.55,2.51ZM1101.5,406a1.81,1.81,0,0,1-.37-1.36,1.76,1.76,0,0,1,.69-1.22,1.84,1.84,0,0,1,3,1.67,1.81,1.81,0,0,1-.69,1.23,1.83,1.83,0,0,1-2.6-.32Z"/><path class="cls-2" d="M1117.68,411.6q3.81.47,3.05,6.52l-.35,2.8a12.4,12.4,0,0,0-.12,2.68q0,.21.76.53a4.59,4.59,0,0,0,1,.35c.06,0,.08.15.05.44a1.71,1.71,0,0,1-.12.57q-.17-.05-1.53-.31t-2-.34q-.71-.09-2-.16l-1.53-.07a.87.87,0,0,1,0-.58q.05-.44.17-.43a3.53,3.53,0,0,0,1-.1c.46-.09.72-.21.78-.34a8.51,8.51,0,0,0,.5-2.12l.35-2.8a6.45,6.45,0,0,0-.24-3.5,2.39,2.39,0,0,0-2-1.24,2.75,2.75,0,0,0-1.72.31,1.43,1.43,0,0,0-.85,1l-.63,5.07a12.47,12.47,0,0,0-.12,2.68c0,.14.26.32.73.53a4.27,4.27,0,0,0,.93.34c.08,0,.11.16.08.44a1.69,1.69,0,0,1-.12.57l-1.53-.31q-1.3-.25-2-.34t-2.06-.17l-1.59-.08a.88.88,0,0,1,0-.58c0-.29.09-.44.17-.43a4.17,4.17,0,0,0,1.1-.09q.75-.13.83-.33a9.7,9.7,0,0,0,.48-2.13l.6-4.81a2.83,2.83,0,0,0-.24-1.95,1.44,1.44,0,0,0-.61-.53,3.36,3.36,0,0,0-.69-.26c-.18,0-.27-.08-.27-.12.07-.57.16-.86.26-.87a42.07,42.07,0,0,0,4.86-.29l.08,0h.16c.08,0,.14.09.18.23a.91.91,0,0,1,0,.34,9.61,9.61,0,0,0-.25,1,.24.24,0,0,0,0,.15.46.46,0,0,0,.16-.07,6.61,6.61,0,0,1,2-1A5.2,5.2,0,0,1,1117.68,411.6Z"/><path class="cls-2" d="M1131.19,413.34a9.46,9.46,0,0,1,2.4.69,9.17,9.17,0,0,0,2.31.68l1.68.21s.09.14.16.41a1.87,1.87,0,0,1,.07.61c0,.28-.11.41-.23.39l-1.92-.24c-.08,0-.12,0-.13.07s.05.29.17.8a4.21,4.21,0,0,1,.09,1.45,4.3,4.3,0,0,1-1.85,3,5.09,5.09,0,0,1-3.82.95,12.24,12.24,0,0,1-1.81-.35,1.6,1.6,0,0,0-.72.46,1.28,1.28,0,0,0-.38.69.61.61,0,0,0,.22.54,2,2,0,0,0,.83.4q.58.16,1,.24l1.17.21.44.05a10.49,10.49,0,0,1,4.22,1.35,2.34,2.34,0,0,1,1.1,2.34,4.68,4.68,0,0,1-2.6,3.57,8.12,8.12,0,0,1-5.19,1,7.73,7.73,0,0,1-3.66-1.29,2.67,2.67,0,0,1-1.31-2.62,2.31,2.31,0,0,1,1-1.55,4.92,4.92,0,0,1,2-.9,3.39,3.39,0,0,1-1.3-1.08,2.17,2.17,0,0,1-.46-1.63q.16-1.27,2.51-2.35a3.94,3.94,0,0,1-1.4-1.72,4.37,4.37,0,0,1-.44-2.5,4,4,0,0,1,1.95-3.11A5.91,5.91,0,0,1,1131.19,413.34Zm2.15,15.94q.13-1-1.32-1.56a18.85,18.85,0,0,0-4-.84h-.15l-.16.07c-.27.07-.48.13-.62.18a2.55,2.55,0,0,0-.51.27,1.42,1.42,0,0,0-.46.47,1.74,1.74,0,0,0-.22.69,2.08,2.08,0,0,0,.9,1.91,4.64,4.64,0,0,0,2.42,1,4.49,4.49,0,0,0,2.79-.43A2.32,2.32,0,0,0,1133.34,429.28Zm-4.92-11.94a4.69,4.69,0,0,0,.29,2.51,1.85,1.85,0,0,0,1.53,1.19,1.76,1.76,0,0,0,1.71-.64,3.92,3.92,0,0,0,.78-2,4.88,4.88,0,0,0-.27-2.61,1.9,1.9,0,0,0-1.59-1.19,1.68,1.68,0,0,0-1.68.72A4.33,4.33,0,0,0,1128.41,417.34Z"/><path class="cls-2" d="M725.18,415.69a7.19,7.19,0,0,1,2.76.75,4.75,4.75,0,0,1,1.67,1.29,3.69,3.69,0,0,1-.48,1.65A1.1,1.1,0,0,1,728,420a1.33,1.33,0,0,1-.88-.37,3.38,3.38,0,0,1-.62-1,2.15,2.15,0,0,0-1.87-1.53,2.29,2.29,0,0,0-2.14,1.12,6.34,6.34,0,0,0-1,3.18,6,6,0,0,0,.77,4,3.51,3.51,0,0,0,2.68,1.52,8.37,8.37,0,0,0,.86,0,4.57,4.57,0,0,0,.78-.08l.64-.14a2.51,2.51,0,0,0,.57-.22l.42-.22.63-.35a.47.47,0,0,1,.13.19.56.56,0,0,1,.07.3.91.91,0,0,1-.22.55A4.84,4.84,0,0,1,727,428.4a5.45,5.45,0,0,1-3,.56,6,6,0,0,1-4.33-2.3,6.56,6.56,0,0,1-1.46-4.87,6.76,6.76,0,0,1,2.17-4.52A6,6,0,0,1,725.18,415.69Z"/><path class="cls-2" d="M738.22,416.78A3.65,3.65,0,0,1,740.9,418a4.76,4.76,0,0,1,.64,3.38l-.49,5.84a1.36,1.36,0,0,0,.19.93.89.89,0,0,0,.68.37,1.86,1.86,0,0,0,1-.3c.12,0,.17.16.15.34a1.77,1.77,0,0,1-.25.87,7.31,7.31,0,0,1-1.25.64,3.1,3.1,0,0,1-1.45.27,2.17,2.17,0,0,1-1.29-.61,2.44,2.44,0,0,1-.77-1.17l-.24.17c-.14.1-.33.22-.57.36a9,9,0,0,1-.81.41,4.78,4.78,0,0,1-1,.32,4.32,4.32,0,0,1-1.18.07,3.55,3.55,0,0,1-2.35-1,2.82,2.82,0,0,1-.75-2.31,2.74,2.74,0,0,1,.45-1.3,3.59,3.59,0,0,1,.9-1,6.14,6.14,0,0,1,1.34-.68,12.23,12.23,0,0,1,1.42-.46l1.52-.33,1.29-.28a.47.47,0,0,0,.31-.45l.14-1.63a2.56,2.56,0,0,0-.34-1.67A1.55,1.55,0,0,0,737,418a1.8,1.8,0,0,0-1.44.43,2.23,2.23,0,0,0-.63,1.51,1,1,0,0,1-.52.84,1.85,1.85,0,0,1-1,.2,1.68,1.68,0,0,1-1.48-.84q.12-1.42,2.16-2.5A7.45,7.45,0,0,1,738.22,416.78ZM735.94,428a2.31,2.31,0,0,0,1.41-.3,1.17,1.17,0,0,0,.66-.9l.25-3c-.14,0-.44.12-.9.22s-.81.19-1.05.27a8.13,8.13,0,0,0-.87.34,1.79,1.79,0,0,0-.75.59,1.64,1.64,0,0,0-.29.81,1.83,1.83,0,0,0,.36,1.43A1.71,1.71,0,0,0,735.94,428Z"/><path class="cls-2" d="M754.38,418.13a3,3,0,0,1,2.35,1.18q-.21,2.52-1.63,2.4A1.77,1.77,0,0,1,754,421a1.86,1.86,0,0,0-1.23-.7,1.6,1.6,0,0,0-1.51.81,4,4,0,0,0-.68,1.9l-.31,3.7a12.36,12.36,0,0,0,0,2.68q0,.21.75.5a4.18,4.18,0,0,0,1,.3c.06,0,.08.15.07.44a3,3,0,0,1-.06.58l-1.56-.25c-.88-.13-1.55-.22-2-.26s-1.16-.07-2.07-.08h-1.6a.88.88,0,0,1-.07-.57c0-.3.08-.44.16-.43a4.11,4.11,0,0,0,1.1-.13q.74-.16.82-.37a9.78,9.78,0,0,0,.39-2.14l.4-4.83a2.82,2.82,0,0,0-.32-1.93,1.44,1.44,0,0,0-.63-.5,3.44,3.44,0,0,0-.7-.24c-.19,0-.28-.07-.27-.11,0-.57.12-.87.22-.88a42.26,42.26,0,0,0,4.84-.49l.24,0c.08,0,.14.08.19.22a.69.69,0,0,1,0,.35l-.08.41q-.05.28-.12.59a3.84,3.84,0,0,0-.08.4,5.47,5.47,0,0,1,1.57-1.32A3.25,3.25,0,0,1,754.38,418.13Z"/><path class="cls-2" d="M764.81,419a5.51,5.51,0,0,1,2.44.75,4.7,4.7,0,0,1,1.6,1.54,6.84,6.84,0,0,1,.8,1.83,5.08,5.08,0,0,1,.18,1.76c0,.43-.13.7-.29.8a1.69,1.69,0,0,1-.92.09l-7.08-.59c-.14,0-.21,0-.22.16a5.79,5.79,0,0,0,.21,2.11,4.08,4.08,0,0,0,1.17,1.86,3.5,3.5,0,0,0,2.18.93,8.1,8.1,0,0,0,.86,0,4.46,4.46,0,0,0,.78-.08l.64-.14a2.49,2.49,0,0,0,.57-.22l.42-.22.63-.35a.48.48,0,0,1,.13.19.59.59,0,0,1,.06.3.9.9,0,0,1-.22.55,4.83,4.83,0,0,1-1.88,1.46,5.51,5.51,0,0,1-3,.55A6,6,0,0,1,759.6,430a6.41,6.41,0,0,1-1.48-4.79,6.89,6.89,0,0,1,2.14-4.71A5.77,5.77,0,0,1,764.81,419Zm-.32,1.34a2.11,2.11,0,0,0-1.31.31,2.79,2.79,0,0,0-.94.94,5.63,5.63,0,0,0-.52,1.08,3.59,3.59,0,0,0-.21.86c0,.14,0,.21.16.22l4.8.4q.27,0,.3-.42a3.84,3.84,0,0,0-.52-2.16A2.13,2.13,0,0,0,764.49,420.34Z"/><path class="cls-2" d="M786.54,420.84a6,6,0,0,1,3.3,1.26,6.26,6.26,0,0,1,2,2.55,6.33,6.33,0,0,1,.47,3,7,7,0,0,1-7.55,6.47,6.89,6.89,0,0,1-2.07-.59c-.08,0-.13.13-.15.41l-.17,2a10.62,10.62,0,0,0,0,2.69c0,.16.26.33.75.53a4.57,4.57,0,0,0,1,.31c.06,0,.08.15.07.44a2.78,2.78,0,0,1-.06.55l-1.58-.22c-.91-.13-1.59-.22-2-.26s-1.19-.07-2.1-.08l-1.59,0a1.07,1.07,0,0,1,0-.56c0-.29.06-.43.13-.42a4.17,4.17,0,0,0,1.1-.13q.74-.16.85-.39a10.88,10.88,0,0,0,.35-2.12l.94-11.32a2.87,2.87,0,0,0-.31-2,1.34,1.34,0,0,0-.62-.48,3.6,3.6,0,0,0-.7-.22c-.2,0-.29-.07-.29-.11q.07-.86.25-.87a22.93,22.93,0,0,0,4.48-.46l.58-.1c.08,0,.1.22.07.63a1.71,1.71,0,0,1-.09.35,6,6,0,0,1,1.38-.59A4.26,4.26,0,0,1,786.54,420.84Zm-.84,1.51a2.25,2.25,0,0,0-1.63.43,2,2,0,0,0-.73,1.46l-.51,6.1a1.83,1.83,0,0,0,.67,1.62,2.9,2.9,0,0,0,1.67.72,2.79,2.79,0,0,0,2.4-1.05,5.75,5.75,0,0,0,1.22-3.42,7.68,7.68,0,0,0-.62-4.06A2.92,2.92,0,0,0,785.7,422.35Z"/><path class="cls-2" d="M801,422a3.66,3.66,0,0,1,2.67,1.19,4.75,4.75,0,0,1,.64,3.38l-.49,5.84a1.34,1.34,0,0,0,.19.93.89.89,0,0,0,.68.37,1.85,1.85,0,0,0,1-.3c.11,0,.17.16.15.34a1.77,1.77,0,0,1-.25.87,7.3,7.3,0,0,1-1.25.64,3.08,3.08,0,0,1-1.45.27,2.16,2.16,0,0,1-1.29-.61,2.43,2.43,0,0,1-.77-1.17l-.24.17c-.14.1-.33.22-.57.36a8.75,8.75,0,0,1-.81.41,4.79,4.79,0,0,1-1,.32,4.31,4.31,0,0,1-1.18.07,3.54,3.54,0,0,1-2.35-1,2.82,2.82,0,0,1-.75-2.31,2.73,2.73,0,0,1,.45-1.3,3.57,3.57,0,0,1,.9-1,6.07,6.07,0,0,1,1.34-.68,12.26,12.26,0,0,1,1.43-.46l1.52-.33,1.29-.28a.47.47,0,0,0,.31-.45l.14-1.63A2.55,2.55,0,0,0,801,424a1.55,1.55,0,0,0-1.22-.7,1.8,1.8,0,0,0-1.44.43,2.22,2.22,0,0,0-.63,1.51,1,1,0,0,1-.52.84,1.85,1.85,0,0,1-1,.2,1.68,1.68,0,0,1-1.48-.84q.12-1.42,2.16-2.5A7.46,7.46,0,0,1,801,422Zm-2.28,11.26a2.3,2.3,0,0,0,1.41-.3,1.18,1.18,0,0,0,.66-.9l.25-3c-.14,0-.44.12-.9.22s-.81.19-1.05.27a8.15,8.15,0,0,0-.86.35,1.77,1.77,0,0,0-.75.59,1.63,1.63,0,0,0-.29.81,1.83,1.83,0,0,0,.36,1.43A1.71,1.71,0,0,0,798.7,433.27Z"/><path class="cls-2" d="M814.82,423.16a7.19,7.19,0,0,1,2.76.75,4.73,4.73,0,0,1,1.67,1.29,3.68,3.68,0,0,1-.48,1.65,1.1,1.1,0,0,1-1.08.58,1.33,1.33,0,0,1-.88-.37,3.36,3.36,0,0,1-.62-1,2.15,2.15,0,0,0-1.87-1.53,2.29,2.29,0,0,0-2.14,1.12,6.35,6.35,0,0,0-1,3.18,6,6,0,0,0,.77,4,3.51,3.51,0,0,0,2.68,1.52,8.37,8.37,0,0,0,.86,0,4.55,4.55,0,0,0,.78-.08l.64-.14a2.51,2.51,0,0,0,.57-.22l.42-.22.63-.35a.48.48,0,0,1,.13.19.56.56,0,0,1,.07.3.91.91,0,0,1-.23.55,4.83,4.83,0,0,1-1.88,1.45,5.46,5.46,0,0,1-3,.56,6,6,0,0,1-4.33-2.3,6.56,6.56,0,0,1-1.46-4.87,6.75,6.75,0,0,1,2.17-4.52A6,6,0,0,1,814.82,423.16Z"/><path class="cls-2" d="M833.86,426.75q-.62.3-2,1.18a21.11,21.11,0,0,0-2.53,1.88q.78,1,2,2.58t2,2.61a14,14,0,0,0,1.09,1.31,3.75,3.75,0,0,0,1.09.69,3.63,3.63,0,0,0,1,.32c.08,0,.1.18.08.51a1.67,1.67,0,0,1-.06.41L833,437.8l-1.14-.07-1.28,0-1.12,0a.8.8,0,0,1-.08-.54c0-.28.07-.41.15-.41a2.13,2.13,0,0,0,.69-.08c.26-.07.4-.15.41-.25s0-.06,0-.06l-3.92-5.19-.36.06-.15,1.84a12.16,12.16,0,0,0,0,2.69q0,.21.76.5a4.31,4.31,0,0,0,1,.31c.06,0,.08.15.07.44a1.7,1.7,0,0,1-.09.57l-1.56-.25c-.9-.14-1.58-.22-2-.26s-1.16-.07-2.07-.08h-1.59a.85.85,0,0,1-.07-.57c0-.3.08-.44.16-.43a4.19,4.19,0,0,0,1.1-.13c.5-.11.77-.23.82-.36a9.73,9.73,0,0,0,.39-2.15l1-12.29a11.73,11.73,0,0,0,0-2q-.11-.49-1.5-.6l-.27,0q-.18,0-.14-.49c0-.32.1-.47.22-.46q.92,0,1.77-.09c.56-.05,1-.11,1.4-.18s.7-.14,1-.22l.87-.23h.06c.08,0,.15.07.22.18a.81.81,0,0,1,.12.32,9.55,9.55,0,0,0-.59,2.76l-.82,9.89a2.7,2.7,0,0,0,.92-.25q.67-.51,1.45-1.06l1.12-.79q.35-.24.7-.52a2.55,2.55,0,0,0,.47-.45.69.69,0,0,0,.13-.35c0-.22-.19-.37-.63-.46a3,3,0,0,1-.66-.16,1.3,1.3,0,0,1,0-.53c0-.21.06-.32.15-.33l2.87.24q.8.07,3.15.14a.46.46,0,0,1,.12.34,1.3,1.3,0,0,1-.05.44c0,.14-.09.2-.15.2A3.89,3.89,0,0,0,833.86,426.75Z"/><path class="cls-2" d="M845.82,425.75a3.65,3.65,0,0,1,2.67,1.19,4.74,4.74,0,0,1,.64,3.38l-.49,5.84a1.34,1.34,0,0,0,.19.93.89.89,0,0,0,.68.37,1.87,1.87,0,0,0,1-.3c.11,0,.16.16.15.34a1.77,1.77,0,0,1-.25.87,7.37,7.37,0,0,1-1.25.64,3.1,3.1,0,0,1-1.45.27,2.17,2.17,0,0,1-1.29-.62,2.42,2.42,0,0,1-.77-1.17l-.24.17c-.14.1-.33.22-.57.36a8.63,8.63,0,0,1-.81.41,4.74,4.74,0,0,1-1,.32,4.31,4.31,0,0,1-1.18.06,3.55,3.55,0,0,1-2.35-1,2.83,2.83,0,0,1-.75-2.31,2.74,2.74,0,0,1,.45-1.3,3.57,3.57,0,0,1,.9-1,6.05,6.05,0,0,1,1.34-.68,12.05,12.05,0,0,1,1.43-.46l1.52-.34,1.29-.28A.47.47,0,0,0,846,431l.13-1.63a2.54,2.54,0,0,0-.34-1.67,1.55,1.55,0,0,0-1.22-.7,1.8,1.8,0,0,0-1.44.43,2.21,2.21,0,0,0-.63,1.51,1,1,0,0,1-.52.84,1.84,1.84,0,0,1-1,.2,1.68,1.68,0,0,1-1.48-.84q.12-1.42,2.16-2.5A7.47,7.47,0,0,1,845.82,425.75ZM843.54,437a2.3,2.3,0,0,0,1.41-.3,1.17,1.17,0,0,0,.66-.9l.25-3c-.14,0-.44.12-.9.22s-.81.19-1.05.27a8.37,8.37,0,0,0-.86.35,1.77,1.77,0,0,0-.75.59,1.65,1.65,0,0,0-.29.81,1.84,1.84,0,0,0,.36,1.43A1.71,1.71,0,0,0,843.54,437Z"/><path class="cls-2" d="M858.95,426.9a9.43,9.43,0,0,1,2.43.59,9.18,9.18,0,0,0,2.34.58l1.69.14s.1.14.17.4a1.8,1.8,0,0,1,.1.61c0,.28-.09.41-.21.4l-1.93-.16c-.08,0-.12,0-.12.08s.06.28.2.79a4.22,4.22,0,0,1,.15,1.44,4.3,4.3,0,0,1-1.73,3,5.09,5.09,0,0,1-3.78,1.1,12.29,12.29,0,0,1-1.83-.27,1.59,1.59,0,0,0-.7.49,1.27,1.27,0,0,0-.36.7.61.61,0,0,0,.24.53,2,2,0,0,0,.85.37c.39.09.72.16,1,.2l1.18.16.44,0a10.48,10.48,0,0,1,4.27,1.18,2.34,2.34,0,0,1,1.2,2.29,4.67,4.67,0,0,1-2.45,3.67,8.13,8.13,0,0,1-5.14,1.21,7.74,7.74,0,0,1-3.71-1.14,2.67,2.67,0,0,1-1.41-2.56,2.31,2.31,0,0,1,1-1.59,4.94,4.94,0,0,1,1.92-1,3.37,3.37,0,0,1-1.35-1,2.17,2.17,0,0,1-.52-1.61q.11-1.27,2.41-2.45a3.93,3.93,0,0,1-1.47-1.66,4.35,4.35,0,0,1-.54-2.48,4,4,0,0,1,1.82-3.19A5.91,5.91,0,0,1,858.95,426.9Zm2.8,15.83q.09-1-1.38-1.5a18.9,18.9,0,0,0-4-.68l-.15,0-.15.08q-.4.12-.62.2a2.62,2.62,0,0,0-.5.29,1.46,1.46,0,0,0-.44.49,1.73,1.73,0,0,0-.19.7,2.08,2.08,0,0,0,1,1.87,4.63,4.63,0,0,0,2.46.92,4.49,4.49,0,0,0,2.78-.54A2.32,2.32,0,0,0,861.74,442.74ZM856.34,431a4.71,4.71,0,0,0,.39,2.49,1.85,1.85,0,0,0,1.58,1.13,1.76,1.76,0,0,0,1.69-.71,3.92,3.92,0,0,0,.69-2,4.89,4.89,0,0,0-.38-2.6,1.9,1.9,0,0,0-1.64-1.12,1.68,1.68,0,0,0-1.65.79A4.33,4.33,0,0,0,856.34,431Z"/><path class="cls-2" d="M873.8,428.08a5.52,5.52,0,0,1,2.44.76,4.7,4.7,0,0,1,1.6,1.54,7,7,0,0,1,.8,1.83,5.18,5.18,0,0,1,.18,1.76c0,.43-.13.7-.29.8a1.69,1.69,0,0,1-.92.09l-7.08-.59c-.14,0-.21,0-.22.16a5.83,5.83,0,0,0,.21,2.11,4.09,4.09,0,0,0,1.17,1.86,3.49,3.49,0,0,0,2.18.93,7.81,7.81,0,0,0,.86,0,4.36,4.36,0,0,0,.78-.08l.64-.14a2.54,2.54,0,0,0,.57-.22l.42-.22.63-.35a.48.48,0,0,1,.13.19.58.58,0,0,1,.06.3.92.92,0,0,1-.22.55,4.86,4.86,0,0,1-1.88,1.46,5.51,5.51,0,0,1-3,.55,6,6,0,0,1-4.29-2.28,6.41,6.41,0,0,1-1.48-4.79,6.88,6.88,0,0,1,2.14-4.71A5.76,5.76,0,0,1,873.8,428.08Zm-.32,1.35a2.09,2.09,0,0,0-1.31.31,2.8,2.8,0,0,0-.94.94,5.8,5.8,0,0,0-.52,1.08,3.65,3.65,0,0,0-.21.86c0,.14,0,.21.16.22l4.8.4c.18,0,.28-.13.3-.42a3.85,3.85,0,0,0-.52-2.16A2.13,2.13,0,0,0,873.48,429.42Z"/><path class="cls-2" d="M885.78,429a12.61,12.61,0,0,1,3.39.79,16.93,16.93,0,0,1,0,3.34q0,.24-.4.21-.65-.05-.69-.3a3.6,3.6,0,0,0-.73-1.84,2.32,2.32,0,0,0-1.73-.87,2.14,2.14,0,0,0-1.38.27,1.32,1.32,0,0,0-.58,1.06,1.72,1.72,0,0,0,.1.77,1.86,1.86,0,0,0,.48.68,7.24,7.24,0,0,0,.61.53c.18.13.45.32.8.54a2,2,0,0,0,.28.17l.42.27.47.31.45.32a5.37,5.37,0,0,1,.49.38l.43.39a2.39,2.39,0,0,1,.41.45l.32.49a2,2,0,0,1,.27.56,5.51,5.51,0,0,1,.12.58,2.82,2.82,0,0,1,0,.64,3.5,3.5,0,0,1-1.68,2.83,5.64,5.64,0,0,1-3.57.79,9.93,9.93,0,0,1-3.75-1.15,11.66,11.66,0,0,1-.16-1.67,14.65,14.65,0,0,1,0-1.72.63.63,0,0,1,.43-.11q.68.06.69.3a3.27,3.27,0,0,0,1,2.1,3.17,3.17,0,0,0,2,.92,2.16,2.16,0,0,0,1.4-.3,1.45,1.45,0,0,0,.63-1.17,2,2,0,0,0,0-.55,1.42,1.42,0,0,0-.24-.53l-.3-.44a2.17,2.17,0,0,0-.5-.44l-.56-.39-.71-.45-.72-.46a6.86,6.86,0,0,1-2-1.76,3.43,3.43,0,0,1,1.09-4.85A5.73,5.73,0,0,1,885.78,429Z"/><path class="cls-2" d="M903.13,439.47a10.84,10.84,0,0,0,0,2.69q0,.21.76.5a4.34,4.34,0,0,0,1,.31c.08,0,.11.15.1.44a1.7,1.7,0,0,1-.09.57q-.21,0-1.57-.25t-2-.26q-.74-.06-2.1-.08h-1.56a.87.87,0,0,1-.07-.57c0-.3.08-.44.16-.43a4.26,4.26,0,0,0,1.08-.13q.76-.16.84-.36a9.68,9.68,0,0,0,.39-2.15l.4-4.83a2.83,2.83,0,0,0-.31-1.94,1.66,1.66,0,0,0-.64-.5,3.13,3.13,0,0,0-.7-.24c-.2,0-.29-.07-.29-.11,0-.57.13-.86.25-.87a22.56,22.56,0,0,0,2.43-.16,23.19,23.19,0,0,0,2.38-.34l.24,0c.1,0,.17.08.22.23a.55.55,0,0,1,0,.33q-.4,1.88-.45,2.53Zm-2-12.66a1.81,1.81,0,0,1-.43-1.35,1.84,1.84,0,0,1,3.67.31,1.82,1.82,0,0,1-.64,1.26,1.83,1.83,0,0,1-2.61-.22Z"/><path class="cls-2" d="M917.47,431.72q3.82.32,3.32,6.39l-.23,2.81a12.15,12.15,0,0,0,0,2.68c0,.14.29.31.78.5a4.55,4.55,0,0,0,1,.31c.06,0,.08.15.07.44a1.74,1.74,0,0,1-.09.57c-.12,0-.63-.11-1.54-.25s-1.6-.22-2.05-.26-1.13-.06-2-.08h-1.54a.88.88,0,0,1-.07-.57c0-.3.08-.44.16-.43a3.51,3.51,0,0,0,1-.14c.46-.11.71-.23.76-.37a8.46,8.46,0,0,0,.42-2.14l.23-2.81a6.47,6.47,0,0,0-.38-3.49,2.4,2.4,0,0,0-2-1.15,2.76,2.76,0,0,0-1.7.38,1.43,1.43,0,0,0-.8,1.05l-.43,5.1a12.41,12.41,0,0,0,0,2.68c0,.14.28.31.75.49a4.28,4.28,0,0,0,.95.3c.08,0,.11.15.1.44a1.76,1.76,0,0,1-.09.57l-1.55-.25c-.87-.13-1.54-.22-2-.25s-1.16-.07-2.07-.08h-1.6a.87.87,0,0,1-.07-.57c0-.3.08-.44.15-.43A4.17,4.17,0,0,0,908,443c.5-.11.77-.23.82-.36a9.68,9.68,0,0,0,.39-2.15l.4-4.83a2.82,2.82,0,0,0-.32-1.94,1.43,1.43,0,0,0-.63-.5,3.34,3.34,0,0,0-.7-.24c-.19,0-.28-.07-.27-.11q.07-.86.22-.88a41.89,41.89,0,0,0,4.84-.49l.08,0H913c.08,0,.14.08.19.22a.86.86,0,0,1,.06.33,9.78,9.78,0,0,0-.21,1.06.23.23,0,0,0,0,.15.43.43,0,0,0,.16-.08,6.6,6.6,0,0,1,1.93-1.09A5.2,5.2,0,0,1,917.47,431.72Z"/><path class="cls-2" d="M926.93,434.59l-1.81-.15c-.14,0-.19-.27-.14-.79a.78.78,0,0,1,.05-.26,8.34,8.34,0,0,0,2.41-1.38l.92-.8q.5-.45,1.19-1.17a2.1,2.1,0,0,1,.56.12c.18.06.26.13.25.19l-.24,2.9,2.15.19,1.46.14c.16,0,.23.11.22.29a2.9,2.9,0,0,1-.41,1.28l-3.55-.3-.6,7.14a2.81,2.81,0,0,0,.35,1.85,1.7,1.7,0,0,0,1.34.74,2.88,2.88,0,0,0,.63,0,3.3,3.3,0,0,0,.55-.12l.4-.15.21-.07c.08,0,.16.08.24.29a.7.7,0,0,1,.09.4,2.73,2.73,0,0,1-1.34.86,4.69,4.69,0,0,1-2.16.37,3.75,3.75,0,0,1-2.54-1.21,4,4,0,0,1-.82-3.16Z"/><path class="cls-2" d="M942.76,433.83a6.56,6.56,0,0,1,4.59,2.34,6.37,6.37,0,0,1,1.58,4.86,6.73,6.73,0,0,1-13.42-1.12,6.41,6.41,0,0,1,2.33-4.55A6.53,6.53,0,0,1,942.76,433.83Zm-.5,1.36a2.39,2.39,0,0,0-2.28,1.17,6.38,6.38,0,0,0-1,3.15,8.68,8.68,0,0,0,.62,4.26,3,3,0,0,0,2.53,2,2.42,2.42,0,0,0,2.29-1.18,6.33,6.33,0,0,0,1.05-3.13,10.25,10.25,0,0,0-.15-2.89,5.26,5.26,0,0,0-1.06-2.31A2.76,2.76,0,0,0,942.25,435.19Z"/><path class="cls-2" d="M974.19,434a7.24,7.24,0,0,0-.1-2.39q-.12-.37-.95-.65a6,6,0,0,0-1.3-.32c-.08,0-.11-.15-.1-.44a1,1,0,0,1,.12-.54q3.15.47,3.71.52.77.06,2,.06t1.52,0a1.24,1.24,0,0,1,0,.48c0,.34-.08.5-.16.49a5.72,5.72,0,0,0-1.29.12,1.94,1.94,0,0,0-1.18.51,6.93,6.93,0,0,0-.53,2.43L975,445.55q-.09,1.07-.23,4.16a1.1,1.1,0,0,1-.66.06c-.32,0-.61-.28-.89-.76l-10.49-16.62-1,12a8.19,8.19,0,0,0,0,2.45c.08.25.43.48,1,.7a6.17,6.17,0,0,0,1.31.36c.06,0,.08.15.07.42a1.6,1.6,0,0,1-.09.56l-3.69-.49c-.53,0-1.19-.07-2-.09l-1.56,0a.76.76,0,0,1-.08-.51c0-.32.08-.47.16-.46a5.6,5.6,0,0,0,1.37-.11,1.63,1.63,0,0,0,1.14-.58,6.78,6.78,0,0,0,.5-2.46l1-11.61a4.84,4.84,0,0,0-.14-2.19q-.1-.22-1-.47a7.64,7.64,0,0,0-1.3-.29c-.08,0-.11-.16-.1-.46a.84.84,0,0,1,.15-.55q3.1.41,3.51.44,1,.08,2.68.07a30.69,30.69,0,0,0,1.79,3.33q1.32,2.21,3.64,5.85t3.16,5a8.41,8.41,0,0,0,.16-1.21Z"/><path class="cls-2" d="M987.19,437.53a6.56,6.56,0,0,1,4.59,2.34,6.38,6.38,0,0,1,1.58,4.86,6.73,6.73,0,0,1-13.42-1.12,6.41,6.41,0,0,1,2.33-4.55A6.52,6.52,0,0,1,987.19,437.53Zm-.5,1.36a2.39,2.39,0,0,0-2.27,1.17,6.38,6.38,0,0,0-1,3.15,8.66,8.66,0,0,0,.62,4.26,3,3,0,0,0,2.53,2,2.42,2.42,0,0,0,2.29-1.18,6.31,6.31,0,0,0,1.05-3.13,10.18,10.18,0,0,0-.15-2.89,5.26,5.26,0,0,0-1.06-2.31A2.76,2.76,0,0,0,986.68,438.89Z"/><path class="cls-2" d="M1004.49,439a3,3,0,0,1,2.35,1.18q-.21,2.52-1.63,2.4a1.77,1.77,0,0,1-1.11-.69,1.87,1.87,0,0,0-1.23-.7,1.6,1.6,0,0,0-1.51.81,3.94,3.94,0,0,0-.68,1.9l-.31,3.7a12.28,12.28,0,0,0,0,2.68c0,.14.28.31.75.5a4.28,4.28,0,0,0,1,.3c.06,0,.08.15.07.44a3.11,3.11,0,0,1-.06.58l-1.56-.25q-1.33-.2-2-.26t-2.07-.08h-1.6a.89.89,0,0,1-.07-.57c0-.29.08-.44.16-.43a4.12,4.12,0,0,0,1.1-.13q.74-.16.82-.36a9.69,9.69,0,0,0,.39-2.15l.4-4.83a2.84,2.84,0,0,0-.32-1.94,1.42,1.42,0,0,0-.63-.5,3.42,3.42,0,0,0-.7-.24c-.19,0-.28-.07-.27-.11q.07-.86.22-.88a42.2,42.2,0,0,0,4.84-.49l.24,0c.08,0,.14.08.19.22a.72.72,0,0,1,0,.35l-.08.41q-.05.28-.12.59c0,.21-.07.34-.08.4a5.46,5.46,0,0,1,1.57-1.32A3.26,3.26,0,0,1,1004.49,439Z"/><path class="cls-2" d="M1010.4,441.55l-1.81-.15c-.14,0-.19-.27-.14-.79a.79.79,0,0,1,.05-.26,8.34,8.34,0,0,0,2.41-1.38l.92-.8q.5-.45,1.19-1.17a2.06,2.06,0,0,1,.56.12c.17.06.26.13.25.18l-.24,2.9,2.15.19,1.46.14c.16,0,.23.11.21.29a2.88,2.88,0,0,1-.4,1.28l-3.55-.3-.6,7.14a2.81,2.81,0,0,0,.35,1.85,1.7,1.7,0,0,0,1.34.74,2.82,2.82,0,0,0,.63,0,3.21,3.21,0,0,0,.55-.12l.4-.15.21-.07c.08,0,.16.08.24.29a.69.69,0,0,1,.09.39,2.73,2.73,0,0,1-1.34.86,4.69,4.69,0,0,1-2.16.37,3.75,3.75,0,0,1-2.54-1.21,4,4,0,0,1-.82-3.16Z"/><path class="cls-2" d="M1029.21,441q3.79.32,3.3,6.15l-.25,3.05a10.92,10.92,0,0,0,0,2.69c0,.14.26.3.75.5a4.56,4.56,0,0,0,1,.31c.06,0,.08.15.07.44a3.1,3.1,0,0,1-.06.58c-.14,0-.66-.11-1.58-.25s-1.59-.22-2-.26-1.16-.07-2-.08h-1.56a1.11,1.11,0,0,1,0-.57c0-.3.07-.44.13-.44a3.55,3.55,0,0,0,1-.14q.69-.17.79-.37a11.22,11.22,0,0,0,.36-2.15l.24-2.9a6.19,6.19,0,0,0-.38-3.45,2.43,2.43,0,0,0-2-1.11,2.84,2.84,0,0,0-1.67.37,1.4,1.4,0,0,0-.83,1.06l-.43,5.1a10.92,10.92,0,0,0,0,2.69c0,.14.28.31.75.49a4.11,4.11,0,0,0,1,.3c.06,0,.08.15.07.44a1.69,1.69,0,0,1-.09.57l-1.55-.25q-1.31-.2-2-.25t-2.07-.08h-1.59a.88.88,0,0,1-.07-.57c0-.3.08-.44.16-.43a4.19,4.19,0,0,0,1.1-.13q.74-.16.82-.36a9.76,9.76,0,0,0,.38-2.12l1-12.32a11.64,11.64,0,0,0,0-2q-.11-.49-1.5-.6l-.27,0c-.12,0-.16-.17-.14-.49s.1-.47.22-.46c.62,0,1.21,0,1.77-.09s1-.11,1.4-.18.7-.14,1-.22l.87-.23h.06c.08,0,.15.07.22.18a.84.84,0,0,1,.12.32,9.58,9.58,0,0,0-.59,2.76l-.5,6c0,.12,0,.18.1.19s.06,0,.13-.08a5.68,5.68,0,0,1,1.93-1.14A5.49,5.49,0,0,1,1029.21,441Z"/><path class="cls-2" d="M1049.27,440.44l-.4,4.77a.19.19,0,0,0,0,.14l.1.08h0l.24,0a2.47,2.47,0,0,0,1.62-.88q2.58-2.35,5.71-5.49a1.63,1.63,0,0,0,.55-.85c0-.2-.19-.35-.62-.47a6.33,6.33,0,0,0-1.09-.21c-.08,0-.12-.12-.12-.35a1.5,1.5,0,0,1,.08-.55q3.27.45,3.57.48.56,0,1.11.06l1.19,0h1.06a1.24,1.24,0,0,1,0,.51c0,.26-.08.38-.13.38a4.65,4.65,0,0,0-3.1,1l-6,5.82a.58.58,0,0,0,0,.83l6.25,8.81a3,3,0,0,0,1.36,1.07,4.82,4.82,0,0,0,1.29.41q.15,0,.1.58a.91.91,0,0,1-.12.41q-3.54-.47-4-.52-.95-.08-2.27-.12l-1.86,0a.85.85,0,0,1-.07-.56c0-.29.08-.43.16-.42a2.27,2.27,0,0,0,.85-.14c.35-.11.53-.24.54-.4a5.78,5.78,0,0,0-.72-1.31q-.74-1.17-2-3t-2.61-3.42c-.07-.09-.29-.14-.64-.17s-.48.08-.5.32l-.37,4.38a10.65,10.65,0,0,0,0,2.63q0,.21.78.5a4.52,4.52,0,0,0,1,.31c.08,0,.1.2.07.57a1.3,1.3,0,0,1-.09.41l-3.75-.49-1.25-.07-1.44,0-1.27,0a.59.59,0,0,1-.08-.42c0-.38.09-.56.17-.55a4.73,4.73,0,0,0,1.13-.11c.51-.1.81-.22.88-.37a10.44,10.44,0,0,0,.45-2.47l1-11.44a8.94,8.94,0,0,0,0-2.51q-.1-.25-.79-.53a4,4,0,0,0-1-.31q-.12,0-.08-.45a1.18,1.18,0,0,1,.1-.53l1.64.23q1.49.21,2.29.28l3.81.14a1.5,1.5,0,0,1,0,.48c0,.34-.08.5-.16.49a4.87,4.87,0,0,0-1.09.15q-.82.17-.9.37A11.05,11.05,0,0,0,1049.27,440.44Z"/><path class="cls-2" d="M1071.84,444.58a6.55,6.55,0,0,1,4.59,2.34,6.36,6.36,0,0,1,1.58,4.86,6.78,6.78,0,1,1-6.17-7.2Zm-.5,1.36a2.39,2.39,0,0,0-2.28,1.17,6.42,6.42,0,0,0-1,3.15,8.65,8.65,0,0,0,.62,4.26,3,3,0,0,0,2.53,2,2.42,2.42,0,0,0,2.29-1.18,6.31,6.31,0,0,0,1.05-3.13,10.26,10.26,0,0,0-.15-2.89,5.29,5.29,0,0,0-1.06-2.31A2.76,2.76,0,0,0,1071.34,445.94Z"/><path class="cls-2" d="M1089.15,446a3,3,0,0,1,2.35,1.18q-.21,2.52-1.63,2.4a1.78,1.78,0,0,1-1.11-.69,1.86,1.86,0,0,0-1.22-.7,1.59,1.59,0,0,0-1.51.81,3.94,3.94,0,0,0-.68,1.9l-.31,3.7a12.43,12.43,0,0,0,0,2.68c0,.14.28.31.75.5a4.25,4.25,0,0,0,1,.3c.06,0,.08.15.07.44a3.09,3.09,0,0,1-.06.58l-1.56-.25q-1.33-.2-2-.26t-2.07-.08h-1.59a.88.88,0,0,1-.07-.57c0-.3.08-.44.16-.43a4.12,4.12,0,0,0,1.1-.13q.74-.16.82-.37a9.66,9.66,0,0,0,.39-2.14l.4-4.83a2.84,2.84,0,0,0-.32-1.94,1.44,1.44,0,0,0-.63-.5,3.48,3.48,0,0,0-.7-.24c-.19,0-.28-.07-.27-.11,0-.57.12-.86.22-.87a42.5,42.5,0,0,0,4.84-.49l.24,0c.08,0,.14.08.19.22a.71.71,0,0,1,0,.35l-.08.41-.12.59c0,.21-.07.34-.08.4a5.44,5.44,0,0,1,1.57-1.32A3.25,3.25,0,0,1,1089.15,446Z"/><path class="cls-2" d="M1099.58,446.9a5.52,5.52,0,0,1,2.44.76,4.7,4.7,0,0,1,1.6,1.54,7,7,0,0,1,.8,1.83,5.12,5.12,0,0,1,.18,1.76c0,.43-.13.7-.29.8a1.68,1.68,0,0,1-.92.09l-7.08-.59c-.14,0-.21,0-.22.16a5.79,5.79,0,0,0,.21,2.11,4.07,4.07,0,0,0,1.17,1.86,3.5,3.5,0,0,0,2.18.93,8.06,8.06,0,0,0,.86,0,4.46,4.46,0,0,0,.78-.08l.64-.14a2.46,2.46,0,0,0,.57-.22l.42-.22.63-.35a.51.51,0,0,1,.13.19.58.58,0,0,1,.06.3.91.91,0,0,1-.22.55,4.82,4.82,0,0,1-1.88,1.46,5.51,5.51,0,0,1-3,.55,6,6,0,0,1-4.29-2.28,6.41,6.41,0,0,1-1.48-4.79,6.88,6.88,0,0,1,2.14-4.71A5.76,5.76,0,0,1,1099.58,446.9Zm-.32,1.35a2.11,2.11,0,0,0-1.31.31,2.82,2.82,0,0,0-.94.94,5.67,5.67,0,0,0-.52,1.08,3.64,3.64,0,0,0-.21.86c0,.14,0,.21.16.22l4.8.4c.18,0,.28-.13.3-.42a3.85,3.85,0,0,0-.52-2.16A2.13,2.13,0,0,0,1099.26,448.24Z"/><path class="cls-2" d="M1113,448a3.65,3.65,0,0,1,2.67,1.19,4.75,4.75,0,0,1,.64,3.38l-.49,5.84a1.37,1.37,0,0,0,.19.93.9.9,0,0,0,.69.37,1.85,1.85,0,0,0,1-.3c.12.05.17.16.15.34a1.75,1.75,0,0,1-.25.87,7.26,7.26,0,0,1-1.25.64,3.09,3.09,0,0,1-1.46.27,2.18,2.18,0,0,1-1.29-.61,2.45,2.45,0,0,1-.77-1.17l-.24.17c-.14.1-.33.22-.57.36s-.51.28-.81.41a4.85,4.85,0,0,1-1,.32,4.32,4.32,0,0,1-1.19.07,3.55,3.55,0,0,1-2.35-1,2.82,2.82,0,0,1-.75-2.31,2.73,2.73,0,0,1,.45-1.3,3.56,3.56,0,0,1,.9-1,6.08,6.08,0,0,1,1.34-.68,12.23,12.23,0,0,1,1.43-.46l1.52-.33,1.29-.28a.47.47,0,0,0,.31-.45l.13-1.63a2.55,2.55,0,0,0-.34-1.67,1.56,1.56,0,0,0-1.22-.7,1.81,1.81,0,0,0-1.44.43,2.22,2.22,0,0,0-.63,1.51,1,1,0,0,1-.52.84,1.85,1.85,0,0,1-1,.2,1.67,1.67,0,0,1-1.48-.84q.12-1.42,2.16-2.5A7.44,7.44,0,0,1,1113,448Zm-2.28,11.26a2.3,2.3,0,0,0,1.41-.3,1.17,1.17,0,0,0,.66-.9l.25-3c-.14,0-.44.12-.9.22s-.81.19-1.05.27a7.92,7.92,0,0,0-.86.34,1.8,1.8,0,0,0-.75.59,1.65,1.65,0,0,0-.29.81,1.82,1.82,0,0,0,.36,1.43A1.71,1.71,0,0,0,1110.67,459.27Z"/><path class="cls-2" d="M1123,459a1.94,1.94,0,0,1,.46,1.44,2,2,0,0,1-.7,1.36,1.84,1.84,0,0,1-1.43.49,1.92,1.92,0,0,1-1.37-.73,2,2,0,0,1-.47-1.46,1.91,1.91,0,0,1,.71-1.34,1.94,1.94,0,0,1,1.47-.47A1.86,1.86,0,0,1,1123,459Z"/><path class="cls-1" d="M41.74,390.61a17.94,17.94,0,0,1-8.8-1.3,19.18,19.18,0,0,1-7-5.15,27.45,27.45,0,0,1-4.85-8.43,42,42,0,0,1-2.42-11.14A42.71,42.71,0,0,1,19.12,353a27,27,0,0,1,3.31-9.1A18.11,18.11,0,0,1,36.85,335a19,19,0,0,1,8.22,1,18.61,18.61,0,0,1,6.68,4.2,23.83,23.83,0,0,1,4.9,7.07,36.88,36.88,0,0,1,2.88,9.58l12.53-1.1-2.42-27.49a1,1,0,0,1,1-1.19l7.48-.66a1,1,0,0,1,1.19,1L86.13,405a1,1,0,0,1-1,1.19l-7.48.66a1,1,0,0,1-1.19-1l-3.7-42-12.53,1.1A37.59,37.59,0,0,1,59.09,375a24.25,24.25,0,0,1-3.58,7.9,18.34,18.34,0,0,1-5.84,5.34A19,19,0,0,1,41.74,390.61Zm8.82-28.82a34.74,34.74,0,0,0-1.4-7.29,22.69,22.69,0,0,0-2.72-5.9,12.7,12.7,0,0,0-3.9-3.85,7.89,7.89,0,0,0-4.93-1.13,7.58,7.58,0,0,0-4.53,2A12.91,12.91,0,0,0,30,350a22.69,22.69,0,0,0-1.65,6.29,34.81,34.81,0,0,0-.11,7.42,34.39,34.39,0,0,0,1.4,7.21,23.33,23.33,0,0,0,2.73,5.95,13.23,13.23,0,0,0,3.86,3.94A7.44,7.44,0,0,0,41,382a7.74,7.74,0,0,0,4.65-2,13,13,0,0,0,3.16-4.56,23.33,23.33,0,0,0,1.65-6.33A34.32,34.32,0,0,0,50.56,361.79Z"/><path class="cls-1" d="M138.27,377.38q-1.23,1.38-4.43,1.66l-26.23,2.31q-3.53.31-5-.83t-1.74-4.42l-3.47-39.43q-.28-3.19.91-4.53t4.39-1.61l26.65-2.34q3.19-.28,4.64.74t1.74,4.38l1.36,15.47L151,347.54l-2.31-26.23a1,1,0,0,1,1-1.19l7.48-.66a1,1,0,0,1,1.19,1l6.82,77.6a1,1,0,0,1-1,1.19l-7.48.66a1,1,0,0,1-1.19-1l-3.81-43.3-13.87,1.22,1.4,15.89Q139.5,376,138.27,377.38ZM126.37,337.5a.87.87,0,0,0-1.19-1L108.28,338a1.55,1.55,0,0,0-.87.25q-.2.19-.14.86l2.9,33q.07.76.29.91a1.54,1.54,0,0,0,.9.09l16.9-1.49a1.55,1.55,0,0,0,.87-.25c.13-.12.17-.44.13-.94Z"/><path class="cls-1" d="M226,366.28a2.29,2.29,0,0,1-1.16.78,66.78,66.78,0,0,1-8.09,2.41q-4.57,1.08-9.49,1.89t-10,1.39q-5.08.57-9.72.73-3.29.12-4.87-1.44a6.8,6.8,0,0,1-1.83-4.41l-3.85-43.8a1.32,1.32,0,0,1,1.07-1.28l7.23-.64a1.22,1.22,0,0,1,.92.3,1.13,1.13,0,0,1,.45.77l3.57,40.61q.07.84.43,1a3.13,3.13,0,0,0,1.29.18,103.77,103.77,0,0,0,14.61-1.5,138.53,138.53,0,0,0,16.35-3.85,1.17,1.17,0,0,1,1.24.19,2.94,2.94,0,0,1,.64,1l1.42,4.54A1.1,1.1,0,0,1,226,366.28Zm17.65,24.88a1,1,0,0,1-1,1.19l-7.48.66a1,1,0,0,1-1.19-1l-6.82-77.6a1,1,0,0,1,1-1.19l7.48-.66a1,1,0,0,1,1.19,1Z"/><path class="cls-1" d="M254.37,366.19a1.17,1.17,0,0,1,.89-.46q6-.36,12.61-1.11t13.2-1.67q6.57-.91,12.74-2t11.33-2.22a2.32,2.32,0,0,1,1,0,.83.83,0,0,1,.7.74l1,5.42a1.2,1.2,0,0,1-.2,1.08,1.57,1.57,0,0,1-.76.53q-4.65,1.09-10.9,2.23t-13.15,2.17q-6.9,1-13.86,1.85T256,374a1.18,1.18,0,0,1-1-.3,1.29,1.29,0,0,1-.41-.85l-.5-5.72A1.29,1.29,0,0,1,254.37,366.19ZM275,314a23,23,0,0,1,8.15.68,19.55,19.55,0,0,1,6.86,3.38,18.57,18.57,0,0,1,4.92,5.8,21,21,0,0,1,1.41,16,17.75,17.75,0,0,1-3.84,6.44,19.68,19.68,0,0,1-6.18,4.4,23.9,23.9,0,0,1-8,2.06,23.29,23.29,0,0,1-8.11-.64,19.26,19.26,0,0,1-6.77-3.26,18,18,0,0,1-4.86-5.67,20.94,20.94,0,0,1-1.41-16,18.81,18.81,0,0,1,3.79-6.56,19.06,19.06,0,0,1,6.13-4.52A23,23,0,0,1,275,314Zm.7,8a10.75,10.75,0,0,0-7.63,3.81,13.08,13.08,0,0,0,1.49,16.9,10.75,10.75,0,0,0,8.18,2.42,11,11,0,0,0,7.8-3.82,13.08,13.08,0,0,0-1.49-16.9A11,11,0,0,0,275.74,322Zm47,62.21q.1,1.09-1.08,1.2l-7.4.65a1.29,1.29,0,0,1-.82-.22,1,1,0,0,1-.45-.77l-6.82-77.6a1,1,0,0,1,.31-.79,1.2,1.2,0,0,1,.77-.41l7.4-.65q1.18-.1,1.27,1Z"/><path class="cls-1" d="M364,363a2,2,0,0,1-3,.18l-4.28-3.35q-1.28-1.07,0-2.63a54.57,54.57,0,0,0,8.36-11.84,60.18,60.18,0,0,0,5.08-13.49q.74-3.12,1.2-6.16t.6-6.15q.15-3.1,0-6.44t-.53-7a1.22,1.22,0,0,1,.3-.92,1.13,1.13,0,0,1,.77-.45l7.51-.4a1,1,0,0,1,.79.31,1.29,1.29,0,0,1,.41.85q.45,5.13.5,9.57a81.78,81.78,0,0,1-.34,8.63,39.62,39.62,0,0,0,3.3,7.67,57.07,57.07,0,0,0,4.79,7.25,54.13,54.13,0,0,0,5.68,6.28,47.09,47.09,0,0,0,5.88,4.78q1.43.89.4,2.59l-3.15,4.6a1.57,1.57,0,0,1-1.08.77,2.28,2.28,0,0,1-1.6-.37,44,44,0,0,1-4.63-3.57,54.94,54.94,0,0,1-4.78-4.71q-2.3-2.55-4.32-5.3a39.12,39.12,0,0,1-3.35-5.34,66.29,66.29,0,0,1-2.84,7.2,68.83,68.83,0,0,1-3.56,6.71,70.81,70.81,0,0,1-4,5.95A41.82,41.82,0,0,1,364,363Zm66.48-28.81a1.19,1.19,0,0,1-.77.41l-11.43,1,3.51,39.94a1,1,0,0,1-1,1.19l-7.48.66a1,1,0,0,1-1.19-1l-6.82-77.6a1,1,0,0,1,1-1.19l7.48-.66a1,1,0,0,1,1.19,1l2.6,29.6,11.43-1a1.29,1.29,0,0,1,.82.22.88.88,0,0,1,.44.68l.52,5.89A1.08,1.08,0,0,1,430.46,334.15Z"/><path class="cls-1" d="M483.78,332a1.37,1.37,0,0,1-.72.53q-3.89,1.1-8.54,2.11t-9.59,1.78q-4.93.77-9.92,1.34t-9.46.79q-3.29.12-4.57-1a5.33,5.33,0,0,1-1.52-3.76l-1.25-14.21a4.88,4.88,0,0,1,.82-3.71,5.45,5.45,0,0,1,3.73-1.43l19.42-1.71c.62-.05,1-.14,1.08-.26a2,2,0,0,0,.07-1.11l-.57-6.47a.94.94,0,0,0-1.37-1.15l-22.87,2a1.19,1.19,0,0,1-.83-.27,1,1,0,0,1-.44-.72l-.48-5.47a.88.88,0,0,1,.32-.75,1.28,1.28,0,0,1,.77-.36l28.08-2.47q3.28-.29,4.57.91a6.28,6.28,0,0,1,1.55,4.14l1.12,12.7q.27,3.11-.93,4.4a5.83,5.83,0,0,1-3.89,1.53l-19.17,1.69a1.5,1.5,0,0,0-.91.29,1.29,1.29,0,0,0-.17,1l.59,6.73q.13,1.43,1.64,1.3,7.67-.5,15.86-1.78a149.18,149.18,0,0,0,15-3.05,1.91,1.91,0,0,1,.89,0,.72.72,0,0,1,.6.58l1.29,5.05A.91.91,0,0,1,483.78,332Zm16.64,22.56a11.51,11.51,0,0,1-1.15,6.2,14.13,14.13,0,0,1-4.46,5.14,27.21,27.21,0,0,1-7.6,3.72,52.52,52.52,0,0,1-21.27,1.87,27.83,27.83,0,0,1-8.17-2.33,14.4,14.4,0,0,1-5.37-4.27,11.53,11.53,0,0,1-1.06-12.11,14.77,14.77,0,0,1,4.54-5.19,27,27,0,0,1,7.63-3.76A52.47,52.47,0,0,1,484.78,342a26.43,26.43,0,0,1,8.13,2.38,14.49,14.49,0,0,1,5.29,4.32A11.51,11.51,0,0,1,500.42,354.6Zm-10.09.89q-.3-3.45-4.38-5t-11.23-1q-7.15.63-10.89,2.91t-3.44,5.72q.3,3.45,4.38,5t11.23,1q7.15-.63,10.89-2.91T490.33,355.49Zm18.17-38.62a1.19,1.19,0,0,1-.77.41l-11.43,1L498,337.36a1,1,0,0,1-1,1.19l-7.48.66q-1.09.1-1.2-1.08l-4.07-46.33a1,1,0,0,1,1-1.19l7.48-.66a1,1,0,0,1,1.19,1l1.69,19.25,11.43-1a1.2,1.2,0,0,1,.83.27,1,1,0,0,1,.44.72l.52,5.89A1,1,0,0,1,508.5,316.86Z"/><path class="cls-1" d="M270.78,482.06a1.13,1.13,0,0,1-.77.44l-7.23.59a1.22,1.22,0,0,1-.91-.31,1.13,1.13,0,0,1-.44-.77l-1.33-16.24c0-.56-.19-.92-.43-1.07a2.24,2.24,0,0,0-1.28-.15l-40.8,3.34a1.28,1.28,0,0,1-.82-.23.88.88,0,0,1-.44-.68l-.5-6.06a.85.85,0,0,1,.32-.79,1.42,1.42,0,0,1,.78-.32l21.45-1.75-.66-8.08-31.8,2.6a1,1,0,0,1-1.27-1.08l-.46-5.64a1.29,1.29,0,0,1,.26-.91,1.08,1.08,0,0,1,.81-.45l73.19-6a1.49,1.49,0,0,1,1.37,1.16l.46,5.64a1.09,1.09,0,0,1-.36.83,1.28,1.28,0,0,1-.81.45l-31.71,2.59.66,8.08L263.44,456q3.2-.26,4.48.95t1.55,4.4l1.62,19.85A1.13,1.13,0,0,1,270.78,482.06Zm-5.39-49.82q-1.23,1.54-4.93,1.84l-38.11,3.12q-3.79.31-5.24-.88t-1.73-4.56l-1.87-22.88a.92.92,0,0,1,.28-.74,1.13,1.13,0,0,1,.73-.36l7.4-.61a1.29,1.29,0,0,1,.82.23.89.89,0,0,1,.44.68l.54,6.64,31.63-2.59-.55-6.73a1.16,1.16,0,0,1,1-1.18l7.49-.61a1.16,1.16,0,0,1,1.18,1l1.9,23.22A6.08,6.08,0,0,1,265.39,432.25ZM256,419.72l-31.63,2.59.45,5.47q.12,1.43,1.72,1.3L255,426.75q1.6-.13,1.48-1.56Z"/><path class="cls-1" d="M330.54,417.56a1.22,1.22,0,0,1-.85.45l-44.58,3.65a1.29,1.29,0,0,1-1-.34,1.38,1.38,0,0,1-.5-1l-.41-5a1.18,1.18,0,0,1,.39-.88,1.43,1.43,0,0,1,.93-.5l44.5-3.64a1.3,1.3,0,0,1,1.36,1.16l.41,5A1.31,1.31,0,0,1,330.54,417.56Zm-22.23,5.16a21.58,21.58,0,0,1,7.25.59,19.32,19.32,0,0,1,6.11,2.72,15.21,15.21,0,0,1,4.3,4.43,12.48,12.48,0,0,1,1.91,5.73,12.65,12.65,0,0,1-.94,6,15.2,15.2,0,0,1-3.52,5.07,19.32,19.32,0,0,1-5.59,3.68,21.82,21.82,0,0,1-7.14,1.77,20.82,20.82,0,0,1-7.16-.6,19.52,19.52,0,0,1-6-2.73,15.16,15.16,0,0,1-4.3-4.43,12.64,12.64,0,0,1-1.91-5.81,12.47,12.47,0,0,1,1-6,15.17,15.17,0,0,1,3.52-5.07,19.4,19.4,0,0,1,5.54-3.67A21.21,21.21,0,0,1,308.31,422.72Zm10.45-15.59a1.34,1.34,0,0,1-1,.51l-22,1.8a1.44,1.44,0,0,1-.83-.27,1.08,1.08,0,0,1-.54-.89l-.41-5a1.17,1.17,0,0,1,.38-1,1.45,1.45,0,0,1,.77-.4l22-1.8a1.44,1.44,0,0,1,1.55,1.31l.39,4.8A1.36,1.36,0,0,1,318.76,407.13Zm34.9,66.92a1.63,1.63,0,0,1-.82.32L308.43,478q-3.78.31-5.24-.93t-1.72-4.52l-1.07-13a1.49,1.49,0,0,1,1.16-1.36l7.15-.58a1.25,1.25,0,0,1,1,.34,1.28,1.28,0,0,1,.45.81l.78,9.59q.07.84.43,1.07a2,2,0,0,0,1.2.16l39.62-3.24a1.35,1.35,0,0,1,.87.27,1,1,0,0,1,.48.72l.49,6A.83.83,0,0,1,353.67,474.06Zm-44.74-43.85a9.89,9.89,0,0,0-6.38,2.72,6.71,6.71,0,0,0-2.17,5.51,7,7,0,0,0,3.05,5.25,10.71,10.71,0,0,0,13.17-1.08,7.08,7.08,0,0,0,2.12-5.68,6.75,6.75,0,0,0-3-5.09A9.86,9.86,0,0,0,308.92,430.21Zm50.66.72a1.39,1.39,0,0,1-.86.37l-11.36.93,2,24.23a1,1,0,0,1-1,1.18l-7.49.61a1,1,0,0,1-1.18-1l-4.86-59.39a1,1,0,0,1,1-1.18l7.49-.61a1,1,0,0,1,1.18,1l2.22,27.09,11.36-.93a1.29,1.29,0,0,1,.91.26,1,1,0,0,1,.44.73l.49,6A.88.88,0,0,1,359.58,430.93Z"/><path class="cls-1" d="M419.52,467.48l-6.9.56a1,1,0,0,1-1.27-1.08l-3.23-39.54-7.66.63a33.08,33.08,0,0,1-1.23,9.33,23.62,23.62,0,0,1-3.39,7.18,16.46,16.46,0,0,1-5.16,4.74,15.59,15.59,0,0,1-6.61,2,14.94,14.94,0,0,1-7.47-1.21,16.26,16.26,0,0,1-6-4.76,26.47,26.47,0,0,1-4.25-8,44.2,44.2,0,0,1-2.16-10.92,44.77,44.77,0,0,1,.4-11.72,25.52,25.52,0,0,1,3-8.55,15.16,15.16,0,0,1,5.19-5.34,15.9,15.9,0,0,1,7-2.18,17.19,17.19,0,0,1,7,.82,15.73,15.73,0,0,1,6,3.74,21.92,21.92,0,0,1,4.54,6.78A37,37,0,0,1,400,420l7.49-.61-2.11-25.83q-.09-1.09,1.09-1.19l6.9-.56a1,1,0,0,1,1.18,1l6,73.44Q420.61,467.39,419.52,467.48ZM391,424.34a41,41,0,0,0-1-6.35,25.26,25.26,0,0,0-2.07-5.67,12,12,0,0,0-3.16-4,5.83,5.83,0,0,0-4.21-1.26,5.12,5.12,0,0,0-3.65,1.95,12.45,12.45,0,0,0-2.26,4.46,28.39,28.39,0,0,0-1,5.93,40.52,40.52,0,0,0,0,6.35,40,40,0,0,0,1,6.18,29.27,29.27,0,0,0,2,5.72,12.86,12.86,0,0,0,3,4.12,5.06,5.06,0,0,0,3.92,1.37,5.52,5.52,0,0,0,3.9-2,13.26,13.26,0,0,0,2.43-4.52,26.76,26.76,0,0,0,1.17-5.94A37.54,37.54,0,0,0,391,424.34Zm45,44.59-7.32.6a1,1,0,0,1-1.18-1l-6.36-77.73c-.06-.73.3-1.13,1.09-1.19l7.23-.59a1,1,0,0,1,1.18,1L437,467.75A1,1,0,0,1,436,468.93Z"/><path class="cls-1" d="M507.41,437.34a5.14,5.14,0,0,1-.88.58,55.26,55.26,0,0,1-6.5,1.84q-3.78.86-7.92,1.54t-8.25,1.14a68,68,0,0,1-7.33.47,7.89,7.89,0,0,1-4.7-1.05q-1.66-1.13-1.9-4.08L466.68,398q-.24-2.94.88-4.22t4.32-1.54l24.4-2a1,1,0,0,1,1.27,1.08l.47,5.8q.09,1.09-1.09,1.19l-18.76,1.53q-1.6.13-1.48,1.56l2.51,30.7q.11,1.35.6,1.69a4.39,4.39,0,0,0,2.11.38,28.19,28.19,0,0,0,4.64-.21q2.85-.32,6.07-.88t6.34-1.24q3.12-.68,5.43-1.38a1.83,1.83,0,0,1,1.09-.09,1.08,1.08,0,0,1,.74.79l1.43,5A1,1,0,0,1,507.41,437.34Zm16.34-54.94c-.06-.73.3-1.13,1.09-1.19l7.23-.59a1,1,0,0,1,1.18,1l6.35,77.64a1,1,0,0,1-1,1.18l-7.32.6a1,1,0,0,1-1.18-1l-3.25-39.79-7.82.64,3,36.59q.1,1.18-1,1.27l-6.9.56a1,1,0,0,1-1.27-1.08l-6-72.93q-.09-1.09,1.09-1.19l6.9-.56a1,1,0,0,1,1.18,1l2.31,28.26,7.82-.64Z"/><path class="cls-1" d="M591.31,396.23a1.22,1.22,0,0,1-.85.45l-44.58,3.65a1.29,1.29,0,0,1-1-.34,1.38,1.38,0,0,1-.5-1l-.41-5a1.18,1.18,0,0,1,.39-.88,1.43,1.43,0,0,1,.93-.5l44.5-3.64a1.3,1.3,0,0,1,1.36,1.16l.41,5A1.31,1.31,0,0,1,591.31,396.23Zm-22.23,5.16a21.58,21.58,0,0,1,7.25.59,19.32,19.32,0,0,1,6.11,2.72,15.21,15.21,0,0,1,4.3,4.43,12.48,12.48,0,0,1,1.91,5.73,12.65,12.65,0,0,1-.94,6,15.2,15.2,0,0,1-3.52,5.07,19.32,19.32,0,0,1-5.59,3.68,21.82,21.82,0,0,1-7.14,1.77,20.82,20.82,0,0,1-7.16-.6,19.52,19.52,0,0,1-6-2.73,15.16,15.16,0,0,1-4.3-4.43,12.64,12.64,0,0,1-1.91-5.81,12.47,12.47,0,0,1,1-6,15.17,15.17,0,0,1,3.52-5.07,19.4,19.4,0,0,1,5.54-3.67A21.21,21.21,0,0,1,569.08,401.39Zm10.45-15.59a1.34,1.34,0,0,1-1,.51l-22,1.8a1.44,1.44,0,0,1-.83-.27,1.08,1.08,0,0,1-.54-.89l-.41-5a1.17,1.17,0,0,1,.38-1,1.45,1.45,0,0,1,.77-.4l22-1.8a1.44,1.44,0,0,1,1.55,1.31l.39,4.8A1.36,1.36,0,0,1,579.54,385.8Zm34.9,66.92a1.63,1.63,0,0,1-.82.32l-44.42,3.63q-3.78.31-5.24-.93t-1.72-4.52l-1.07-13a1.49,1.49,0,0,1,1.16-1.36l7.15-.58a1.25,1.25,0,0,1,1,.34,1.28,1.28,0,0,1,.45.81l.78,9.59q.07.84.43,1.07a2,2,0,0,0,1.2.16L613,445a1.35,1.35,0,0,1,.87.27,1,1,0,0,1,.48.72l.49,6A.83.83,0,0,1,614.44,452.72ZM569.7,408.88a9.89,9.89,0,0,0-6.38,2.72,6.71,6.71,0,0,0-2.17,5.51,7,7,0,0,0,3.05,5.25,10.71,10.71,0,0,0,13.17-1.08,7.08,7.08,0,0,0,2.12-5.68,6.75,6.75,0,0,0-3-5.09A9.86,9.86,0,0,0,569.7,408.88Zm50.66.72a1.39,1.39,0,0,1-.86.37l-11.36.93,2,24.23a1,1,0,0,1-1,1.18l-7.49.61a1,1,0,0,1-1.18-1l-4.86-59.39a1,1,0,0,1,1-1.18l7.49-.61a1,1,0,0,1,1.18,1l2.22,27.09,11.36-.93a1.29,1.29,0,0,1,.91.26,1,1,0,0,1,.44.73l.49,6A.88.88,0,0,1,620.35,409.6Z"/></svg>