<svg id="Layer_1" data-name="Layer 1" xmlns="http://www.w3.org/2000/svg" viewBox="0 0 434.13 120.71"><defs><style>.cls-1{fill:#fff;}</style></defs><title>title</title><path class="cls-1" d="M12.56,4.71a4.35,4.35,0,0,1,1.87-3.42A6,6,0,0,1,18.4,0a9.91,9.91,0,0,1,1.35.13c.38.07.92.2,1.6.4l1.41.4a24.66,24.66,0,0,1,.17,4.26.3.3,0,0,1-.34.24c-.5,0-.76-.11-.79-.28A4.84,4.84,0,0,0,20.7,2.63a3.13,3.13,0,0,0-2.44-1.3,2.55,2.55,0,0,0-2,.65,2.7,2.7,0,0,0-.75,1.91,3.12,3.12,0,0,0,.07.79,2,2,0,0,0,.36.74l.45.61a3.27,3.27,0,0,0,.67.62l.67.52q.17.15.81.57a8.35,8.35,0,0,0,.77.48,10.56,10.56,0,0,0,.9.63c.5.32.84.55,1,.7s.48.39.86.74a4,4,0,0,1,.81,1,5.69,5.69,0,0,1,.44,1.13,4.68,4.68,0,0,1,.17,1.46,4.48,4.48,0,0,1-1.91,3.57,6.38,6.38,0,0,1-4.18,1.28,25.69,25.69,0,0,1-5-1,23.61,23.61,0,0,1-.36-2.51,18.26,18.26,0,0,1-.13-2c0-.15.17-.21.45-.21.48,0,.74.1.79.25a5.31,5.31,0,0,0,.35,1.1,8.1,8.1,0,0,0,.71,1.3,3.63,3.63,0,0,0,1.25,1.15,3.89,3.89,0,0,0,1.82.5,3.09,3.09,0,0,0,2.18-.69,3,3,0,0,0,.94-2.29,2.42,2.42,0,0,0-.15-.92,3.25,3.25,0,0,0-.39-.76,4,4,0,0,0-.67-.69c-.29-.25-.54-.44-.74-.58l-.88-.57-.82-.51a1.83,1.83,0,0,0-.29-.23L15.3,9.28a13,13,0,0,1-1-.85,5.44,5.44,0,0,1-.94-1,5.2,5.2,0,0,1-.55-1.18A4.14,4.14,0,0,1,12.56,4.71Z"/><path class="cls-1" d="M33.09,6.81a5.58,5.58,0,0,1,3.11,1,5.78,5.78,0,0,1,2.52,5A6.45,6.45,0,0,1,32,19.17a6.42,6.42,0,0,1-1.95-.46c-.07,0-.12.12-.12.38L29.87,21A10,10,0,0,0,30,23.46q0,.22.72.46a4.25,4.25,0,0,0,.94.24c.05,0,.08.14.08.4a2.52,2.52,0,0,1,0,.51l-1.47-.14q-1.28-.13-1.89-.15t-1.95,0l-1.48,0a1,1,0,0,1-.06-.51c0-.27,0-.4.1-.4a3.84,3.84,0,0,0,1-.17c.46-.12.71-.25.77-.4a10.05,10.05,0,0,0,.24-2l.39-10.53A2.69,2.69,0,0,0,27,9a1.24,1.24,0,0,0-.59-.42,3.23,3.23,0,0,0-.66-.18q-.27,0-.27-.09c0-.53.08-.81.2-.82a21.31,21.31,0,0,0,4.14-.62l.53-.12c.07,0,.1.2.09.58a1.55,1.55,0,0,1-.07.33,5.55,5.55,0,0,1,1.25-.6A4,4,0,0,1,33.09,6.81Zm-.72,1.44a2.08,2.08,0,0,0-1.5.47,1.83,1.83,0,0,0-.62,1.38l-.21,5.68a1.69,1.69,0,0,0,.69,1.47,2.68,2.68,0,0,0,1.58.6,2.6,2.6,0,0,0,2.18-1.08,5.33,5.33,0,0,0,1-3.22,7.12,7.12,0,0,0-.75-3.74A2.71,2.71,0,0,0,32.38,8.25Z"/><path class="cls-1" d="M46.39,7.28a5.11,5.11,0,0,1,2.3.6,4.38,4.38,0,0,1,1.55,1.36,6.47,6.47,0,0,1,.82,1.66,4.76,4.76,0,0,1,.24,1.62c0,.4-.09.66-.24.75a1.56,1.56,0,0,1-.85.12l-6.59-.24c-.13,0-.2,0-.2.16a5.34,5.34,0,0,0,.29,1.94,3.79,3.79,0,0,0,1.17,1.67,3.26,3.26,0,0,0,2.06.77,7.49,7.49,0,0,0,.8,0,4.23,4.23,0,0,0,.72-.11l.58-.16a2.36,2.36,0,0,0,.52-.23l.38-.22.56-.35a.47.47,0,0,1,.13.17.53.53,0,0,1,.07.28.84.84,0,0,1-.18.52A4.5,4.5,0,0,1,48.86,19a5.12,5.12,0,0,1-2.76.64A5.59,5.59,0,0,1,42,17.71a6,6,0,0,1-1.58-4.38,6.38,6.38,0,0,1,1.78-4.46A5.35,5.35,0,0,1,46.39,7.28Zm-.24,1.26a2,2,0,0,0-1.2.34,2.63,2.63,0,0,0-.83.91,5.43,5.43,0,0,0-.44,1,3.35,3.35,0,0,0-.15.81q0,.19.16.2l4.47.16c.17,0,.25-.13.26-.41a3.57,3.57,0,0,0-.58-2A2,2,0,0,0,46.15,8.54Z"/><path class="cls-1" d="M58.84,7.73a3.39,3.39,0,0,1,2.53,1,4.41,4.41,0,0,1,.74,3.11l-.2,5.43a1.25,1.25,0,0,0,.22.85.83.83,0,0,0,.65.31,1.72,1.72,0,0,0,1-.32c.11,0,.16.14.15.31a1.63,1.63,0,0,1-.2.82,6.92,6.92,0,0,1-1.13.65,2.89,2.89,0,0,1-1.34.31A2,2,0,0,1,60,19.68a2.26,2.26,0,0,1-.76-1L59,18.8c-.12.1-.29.22-.51.35a8.29,8.29,0,0,1-.73.41,4.35,4.35,0,0,1-1,.34,4,4,0,0,1-1.1.11,3.3,3.3,0,0,1-2.22-.84,2.62,2.62,0,0,1-.79-2.12,2.55,2.55,0,0,1,.36-1.23,3.32,3.32,0,0,1,.79-.92,5.68,5.68,0,0,1,1.21-.69,11.48,11.48,0,0,1,1.3-.49l1.39-.38L59,13a.44.44,0,0,0,.26-.43l.06-1.52a2.36,2.36,0,0,0-.39-1.53A1.45,1.45,0,0,0,57.74,9a1.68,1.68,0,0,0-1.31.46,2.07,2.07,0,0,0-.52,1.43.89.89,0,0,1-.44.8,1.73,1.73,0,0,1-.95.23,1.55,1.55,0,0,1-1.41-.71q0-1.32,1.9-2.42A6.93,6.93,0,0,1,58.84,7.73ZM57.21,18.28a2.15,2.15,0,0,0,1.3-.34,1.1,1.1,0,0,0,.57-.86l.1-2.81q-.2.07-.82.25c-.42.11-.74.21-1,.3a7.8,7.8,0,0,0-.79.36,1.67,1.67,0,0,0-.67.58,1.52,1.52,0,0,0-.23.76,1.7,1.7,0,0,0,.39,1.31A1.58,1.58,0,0,0,57.21,18.28Z"/><path class="cls-1" d="M77.25,10.26q-.56.31-1.8,1.18a19.76,19.76,0,0,0-2.26,1.85q.77.88,1.93,2.31t1.93,2.34a12.77,12.77,0,0,0,1.06,1.17,3.52,3.52,0,0,0,1,.59,3.4,3.4,0,0,0,.92.25q.11,0,.09.47a1.55,1.55,0,0,1,0,.38l-3.22-.26H75.84l-1.19,0-1,0a.75.75,0,0,1-.09-.5c0-.26.05-.38.13-.38a2,2,0,0,0,.64-.1c.24-.07.36-.16.37-.25s0-.06,0-.06l-3.86-4.64-.33.07-.06,1.71a11.2,11.2,0,0,0,.13,2.49c0,.13.28.27.73.43a3.92,3.92,0,0,0,1,.24q.08,0,.08.4a1.56,1.56,0,0,1-.06.54l-1.46-.16q-1.27-.13-1.9-.15t-1.92,0l-1.48.06a.8.8,0,0,1-.09-.53c0-.28.05-.41.13-.41a3.87,3.87,0,0,0,1-.17c.46-.12.7-.25.75-.37a9,9,0,0,0,.27-2l.42-11.45a11,11,0,0,0-.07-1.88Q67.74,3,66.45,3H66.2c-.11,0-.16-.15-.15-.45s.07-.44.18-.44q.86,0,1.64-.16c.52-.07.95-.15,1.29-.23s.64-.16.89-.24l.8-.25h.05a.3.3,0,0,1,.21.16.74.74,0,0,1,.13.29,8.89,8.89,0,0,0-.43,2.58l-.34,9.21a2.49,2.49,0,0,0,.84-.27q.6-.5,1.29-1l1-.78q.31-.24.63-.52a2.42,2.42,0,0,0,.42-.44.66.66,0,0,0,.11-.33q0-.3-.61-.4a2.68,2.68,0,0,1-.62-.12,1.24,1.24,0,0,1-.07-.48c0-.19,0-.3.12-.31l2.68.1q.74,0,2.93,0a.44.44,0,0,1,.13.31,1.25,1.25,0,0,1,0,.41c0,.13-.08.19-.13.19A3.62,3.62,0,0,0,77.25,10.26Z"/><path class="cls-1" d="M87.12,17.06a10.14,10.14,0,0,0,.13,2.49c0,.13.27.27.73.43a4.06,4.06,0,0,0,.93.24c.07,0,.11.14.11.4a1.61,1.61,0,0,1-.06.54L87.48,21q-1.28-.13-1.89-.15t-1.95,0l-1.45.06a.81.81,0,0,1-.09-.53c0-.28.05-.41.13-.41a4,4,0,0,0,1-.17c.46-.12.72-.24.76-.37a9,9,0,0,0,.27-2l.17-4.5A2.63,2.63,0,0,0,84,11.15a1.54,1.54,0,0,0-.62-.44,2.89,2.89,0,0,0-.66-.19c-.18,0-.27-.05-.27-.09,0-.53.09-.81.2-.82a21.06,21.06,0,0,0,2.25-.25,22.17,22.17,0,0,0,2.2-.42l.22,0c.09,0,.16.07.21.2a.5.5,0,0,1,0,.3,23.65,23.65,0,0,0-.31,2.36ZM84.67,5.41a1.68,1.68,0,0,1-.45-1.23,1.71,1.71,0,0,1,3.42.13,1.68,1.68,0,0,1-.54,1.2,1.7,1.7,0,0,1-2.43-.09Z"/><path class="cls-1" d="M100.08,9.25q3.56.13,3.35,5.78l-.1,2.62a11.63,11.63,0,0,0,.1,2.49q0,.2.75.43a4.16,4.16,0,0,0,.94.24c.06,0,.08.14.08.4a1.55,1.55,0,0,1-.06.54l-1.44-.16q-1.28-.13-1.91-.15t-1.84,0l-1.42.06a.81.81,0,0,1-.09-.53q0-.41.13-.41a3.25,3.25,0,0,0,.93-.17c.42-.12.65-.25.69-.37a7.91,7.91,0,0,0,.29-2l.1-2.62a6,6,0,0,0-.5-3.22,2.22,2.22,0,0,0-1.94-1,2.56,2.56,0,0,0-1.56.43,1.33,1.33,0,0,0-.7,1l-.17,4.74a11.54,11.54,0,0,0,.1,2.49c0,.13.27.27.72.43a3.94,3.94,0,0,0,.89.24c.07,0,.11.14.11.4a1.55,1.55,0,0,1-.06.54L96,21.31q-1.22-.13-1.86-.15t-1.92,0l-1.48.06a.81.81,0,0,1-.09-.53c0-.28.05-.41.13-.41a3.88,3.88,0,0,0,1-.17c.45-.12.7-.25.75-.37a9.06,9.06,0,0,0,.27-2l.17-4.5a2.63,2.63,0,0,0-.38-1.78A1.34,1.34,0,0,0,92,11a3.09,3.09,0,0,0-.66-.19c-.17,0-.26-.06-.26-.09q0-.8.17-.82a39.12,39.12,0,0,0,4.47-.66l.07,0h.15c.07,0,.13.07.19.2a.82.82,0,0,1,.07.31,9.46,9.46,0,0,0-.15,1c0,.07,0,.12,0,.14a.4.4,0,0,0,.14-.08A6.14,6.14,0,0,1,98,9.67,4.83,4.83,0,0,1,100.08,9.25Z"/><path class="cls-1" d="M112.72,9.77a8.75,8.75,0,0,1,2.28.44,8.45,8.45,0,0,0,2.19.44l1.57.06s.1.12.18.37a1.69,1.69,0,0,1,.12.56c0,.26-.07.38-.18.38l-1.79-.07c-.07,0-.11,0-.11.08s.07.26.22.73a3.88,3.88,0,0,1,.2,1.33A4,4,0,0,1,115.92,17a4.73,4.73,0,0,1-3.45,1.18,11.38,11.38,0,0,1-1.71-.17,1.48,1.48,0,0,0-.62.49,1.17,1.17,0,0,0-.3.67.57.57,0,0,0,.24.48,1.85,1.85,0,0,0,.8.31c.36.07.68.12.93.14l1.1.1.41,0a9.77,9.77,0,0,1,4,.91,2.17,2.17,0,0,1,1.21,2.07,4.34,4.34,0,0,1-2.12,3.51A7.54,7.54,0,0,1,111.72,28a7.18,7.18,0,0,1-3.49-.9,2.48,2.48,0,0,1-1.42-2.32,2.15,2.15,0,0,1,.84-1.51,4.56,4.56,0,0,1,1.73-1,3.14,3.14,0,0,1-1.29-.89,2,2,0,0,1-.55-1.47q0-1.19,2.13-2.38a3.66,3.66,0,0,1-1.44-1.48,4.06,4.06,0,0,1-.61-2.27,3.72,3.72,0,0,1,1.55-3A5.49,5.49,0,0,1,112.72,9.77ZM116,24.34q0-1-1.35-1.33a17.46,17.46,0,0,0-3.73-.46l-.14,0-.14.08c-.24.08-.43.15-.56.21a2.31,2.31,0,0,0-.45.29,1.31,1.31,0,0,0-.39.47,1.6,1.6,0,0,0-.15.66,1.93,1.93,0,0,0,1,1.69,4.29,4.29,0,0,0,2.32.75,4.16,4.16,0,0,0,2.55-.62A2.15,2.15,0,0,0,116,24.34Zm-5.52-10.64a4.37,4.37,0,0,0,.47,2.29,1.71,1.71,0,0,0,1.51,1,1.64,1.64,0,0,0,1.53-.73,3.65,3.65,0,0,0,.56-1.93,4.54,4.54,0,0,0-.46-2.39,1.77,1.77,0,0,0-1.57-1,1.56,1.56,0,0,0-1.49.8A4,4,0,0,0,110.48,13.69Z"/><path class="cls-1" d="M144.15,13a.8.8,0,0,0-.2-.57,1.21,1.21,0,0,0-.55-.35,4.84,4.84,0,0,0-.63-.16,3.8,3.8,0,0,0-.56-.06h-.11c-.07,0-.11-.14-.11-.42s0-.44.09-.49q.36,0,1.46.14t1.76.15q.58,0,1.48,0t1.31,0a1.76,1.76,0,0,1,0,.47c0,.28-.05.41-.12.41a3.14,3.14,0,0,0-1.1.3,1.69,1.69,0,0,0-1,.81l-4.44,9.58a1.09,1.09,0,0,1-.39.39,1,1,0,0,1-.54.16.35.35,0,0,1-.35-.21l-3.08-7.74-3.22,7.09a1.51,1.51,0,0,1-.33.37.83.83,0,0,1-.6.2.41.41,0,0,1-.38-.21q-.58-1.46-1.37-3.54t-1.45-3.68q-.66-1.6-1.53-3.48a1.27,1.27,0,0,0-.7-.58,2.65,2.65,0,0,0-.87-.22c-.07,0-.11-.15-.09-.45s.05-.41.13-.46.65.05,1.39.13,1.32.13,1.75.15,1,0,1.88,0l1.44,0a1.52,1.52,0,0,1,0,.5c0,.24,0,.37-.1.38a3.2,3.2,0,0,0-1,.16c-.4.11-.61.3-.61.56q0,.06,2.52,6.44.33-.76.77-1.72l.66-1.47.45-1c.15-.34.26-.6.32-.78a1.44,1.44,0,0,0,.1-.34,2,2,0,0,0-.32-1.12,1.3,1.3,0,0,0-.59-.46,2.19,2.19,0,0,0-1-.2c-.07,0-.11-.14-.1-.4s.05-.43.13-.48.66.05,1.36.13,1.28.13,1.72.15,1,0,1.8,0l1.41,0a1.33,1.33,0,0,1,0,.51c0,.27-.06.4-.11.4q-1.41-.05-1.44.91a44.15,44.15,0,0,0,2.37,6.22q.48-1.14,1.19-2.68t1-2.28A3.65,3.65,0,0,0,144.15,13Z"/><path class="cls-1" d="M154.3,19.53a10.14,10.14,0,0,0,.13,2.49c0,.13.28.27.73.43a4,4,0,0,0,.93.24c.07,0,.11.14.11.4a1.61,1.61,0,0,1-.06.54l-1.47-.16q-1.28-.13-1.89-.15t-1.95,0l-1.45.06a.81.81,0,0,1-.09-.53c0-.28.05-.41.13-.41a4,4,0,0,0,1-.17c.46-.12.72-.24.76-.37a9.06,9.06,0,0,0,.27-2l.17-4.5a2.63,2.63,0,0,0-.37-1.78,1.53,1.53,0,0,0-.62-.44A2.88,2.88,0,0,0,150,13c-.18,0-.27-.06-.27-.09,0-.53.09-.81.2-.82a21.05,21.05,0,0,0,2.25-.25,21.83,21.83,0,0,0,2.2-.42l.22,0c.09,0,.16.07.21.2a.5.5,0,0,1,0,.3,23.65,23.65,0,0,0-.31,2.36ZM151.86,7.89a1.68,1.68,0,0,1-.45-1.23A1.7,1.7,0,0,1,153.18,5a1.65,1.65,0,0,1,1.2.54,1.63,1.63,0,0,1,.45,1.22,1.69,1.69,0,0,1-.54,1.2,1.7,1.7,0,0,1-2.43-.09Z"/><path class="cls-1" d="M159.78,13.38l-1.68-.06q-.19,0-.17-.72a.66.66,0,0,1,0-.25A7.72,7.72,0,0,0,160.14,11l.82-.78q.45-.44,1-1.14a1.92,1.92,0,0,1,.52.09c.16.05.25.11.24.16l-.1,2.7,2,.09,1.36.06c.15,0,.22.09.21.26a2.68,2.68,0,0,1-.32,1.2l-3.31-.12-.24,6.65a2.62,2.62,0,0,0,.41,1.7,1.58,1.58,0,0,0,1.27.63,2.63,2.63,0,0,0,.58,0,2.86,2.86,0,0,0,.5-.13l.36-.15.2-.08c.07,0,.15.07.24.26a.66.66,0,0,1,.1.36,2.54,2.54,0,0,1-1.21.85,4.37,4.37,0,0,1-2,.44,3.48,3.48,0,0,1-2.41-1,3.7,3.7,0,0,1-.9-2.89Z"/><path class="cls-1" d="M177.2,12.09q3.53.13,3.33,5.56l-.1,2.84a10.13,10.13,0,0,0,.13,2.49c0,.13.25.27.72.43a4.3,4.3,0,0,0,.94.24c.06,0,.08.14.08.4a2.9,2.9,0,0,1,0,.54l-1.47-.16q-1.28-.13-1.89-.15c-.46,0-1.08,0-1.87,0l-1.45.06a1,1,0,0,1-.06-.53c0-.28,0-.41.1-.41a3.26,3.26,0,0,0,1-.17c.42-.12.66-.25.72-.37a10.44,10.44,0,0,0,.24-2l.1-2.7a5.77,5.77,0,0,0-.5-3.18A2.26,2.26,0,0,0,175.2,14a2.64,2.64,0,0,0-1.53.41,1.3,1.3,0,0,0-.73,1l-.17,4.74a10.14,10.14,0,0,0,.13,2.49c0,.13.27.27.72.43a3.9,3.9,0,0,0,.92.24c.06,0,.08.14.08.4a1.61,1.61,0,0,1-.06.54l-1.44-.16q-1.22-.13-1.86-.15t-1.92,0l-1.48.06a.8.8,0,0,1-.09-.53c0-.28.05-.41.13-.41a3.83,3.83,0,0,0,1-.17c.46-.12.7-.25.75-.37a8.88,8.88,0,0,0,.27-2l.42-11.47a11,11,0,0,0-.07-1.88q-.12-.45-1.42-.49h-.25q-.17,0-.15-.45c0-.29.07-.44.18-.44q.86-.05,1.64-.16c.52-.07.95-.15,1.29-.23s.64-.16.89-.24l.8-.25h.05c.07,0,.15.06.21.16a.75.75,0,0,1,.13.29A8.9,8.9,0,0,0,173.21,8L173,13.59c0,.11,0,.17.1.17s.06,0,.11-.08A5.22,5.22,0,0,1,175,12.55,5.07,5.07,0,0,1,177.2,12.09Z"/><path class="cls-1" d="M194.4,6.76l4.77.18a9.25,9.25,0,0,1,6.92,2.91,8.75,8.75,0,0,1,2.29,6.33,9.31,9.31,0,0,1-2.8,6.57,9.21,9.21,0,0,1-7.12,2.43L196.19,25q-1.69-.12-2.44-.15l-3.67,0a.71.71,0,0,1-.07-.44c0-.31,0-.47.1-.47a4.59,4.59,0,0,0,1.06-.14c.46-.1.74-.24.81-.4a10,10,0,0,0,.29-2.5l.38-10.42a8.69,8.69,0,0,0-.11-2.27c0-.2-.3-.38-.75-.52a4.33,4.33,0,0,0-1.1-.23c-.07,0-.1-.14-.09-.42a.75.75,0,0,1,.13-.49Q192.55,6.69,194.4,6.76Zm1.39,3.59-.4,10.81a4.47,4.47,0,0,0,.23,2.05q.42.46,3.35.57,5.6.21,5.89-7.85a8.93,8.93,0,0,0-1.31-5.29,4.92,4.92,0,0,0-4.21-2.31h-.14q-2.65-.1-3,.33A3,3,0,0,0,195.78,10.34Z"/><path class="cls-1" d="M216.05,13.52a3.39,3.39,0,0,1,2.53,1,4.41,4.41,0,0,1,.74,3.11l-.2,5.43a1.25,1.25,0,0,0,.22.85.83.83,0,0,0,.65.31,1.72,1.72,0,0,0,1-.32c.11,0,.16.14.15.31a1.63,1.63,0,0,1-.2.82,6.91,6.91,0,0,1-1.13.65,2.89,2.89,0,0,1-1.34.31,2,2,0,0,1-1.22-.51,2.27,2.27,0,0,1-.76-1l-.21.17c-.12.1-.29.21-.51.35a8.28,8.28,0,0,1-.73.42,4.4,4.4,0,0,1-1,.34,4,4,0,0,1-1.1.11,3.3,3.3,0,0,1-2.22-.84,2.62,2.62,0,0,1-.79-2.11,2.54,2.54,0,0,1,.36-1.23,3.31,3.31,0,0,1,.79-.92,5.64,5.64,0,0,1,1.21-.69,11.29,11.29,0,0,1,1.3-.49l1.39-.38,1.19-.32a.43.43,0,0,0,.26-.43l.06-1.52a2.36,2.36,0,0,0-.39-1.53,1.44,1.44,0,0,0-1.17-.6,1.67,1.67,0,0,0-1.31.46,2.06,2.06,0,0,0-.52,1.43.89.89,0,0,1-.44.8,1.73,1.73,0,0,1-.95.23,1.55,1.55,0,0,1-1.41-.71q0-1.32,1.9-2.42A6.92,6.92,0,0,1,216.05,13.52Zm-1.63,10.54a2.15,2.15,0,0,0,1.3-.34,1.09,1.09,0,0,0,.57-.86l.1-2.81q-.2.07-.82.25c-.42.11-.74.21-1,.3a7.8,7.8,0,0,0-.79.36,1.66,1.66,0,0,0-.67.58,1.52,1.52,0,0,0-.23.77,1.7,1.7,0,0,0,.39,1.31A1.6,1.6,0,0,0,214.42,24.06Z"/><path class="cls-1" d="M231.12,7.09a5.42,5.42,0,0,1,1.91.36,1.93,1.93,0,0,1,1,.74,3.1,3.1,0,0,1-.21,1.52,1,1,0,0,1-1,.64,1.07,1.07,0,0,1-.82-.49c-.24-.31-.49-.63-.75-.94a1.26,1.26,0,0,0-.95-.49,1.47,1.47,0,0,0-1.27.67,4.63,4.63,0,0,0-.77,1.71,11.2,11.2,0,0,0-.29,2.22l0,1.27s0,0,.05.08a.16.16,0,0,0,.11.06l3,.11a.22.22,0,0,1,.14,0,.29.29,0,0,1,0,.17,2.83,2.83,0,0,1-.38,1.26L228,15.92a.15.15,0,0,0-.17.16l-.23,6.15a10.51,10.51,0,0,0,.13,2.49c0,.13.27.27.72.43a3.85,3.85,0,0,0,.92.24c.06,0,.08.14.08.4a1.61,1.61,0,0,1-.06.54l-1.43-.16Q226.67,26,226,26c-.44,0-1.07,0-1.88,0l-1.44.06a.53.53,0,0,1-.1-.31,1.68,1.68,0,0,1,0-.43c0-.14.06-.21.12-.2a3.63,3.63,0,0,0,1-.17q.67-.18.73-.37a9.19,9.19,0,0,0,.33-2.25L225,16c0-.13,0-.2-.16-.2l-1.66-.06s-.05-.06,0-.17a1.46,1.46,0,0,1,.41-.79,1.11,1.11,0,0,1,.9-.46l.44,0a.15.15,0,0,0,.17-.16v-.28A7.51,7.51,0,0,1,227,9,5.16,5.16,0,0,1,231.12,7.09Z"/><path class="cls-1" d="M241.93,14.47q3.56.13,3.35,5.78l-.1,2.62a11.55,11.55,0,0,0,.1,2.49q0,.2.75.43A4.15,4.15,0,0,0,247,26c.06,0,.08.14.08.4A1.55,1.55,0,0,1,247,27l-1.44-.16q-1.28-.13-1.91-.15t-1.84,0l-1.42.06a.82.82,0,0,1-.09-.53c0-.28.05-.41.13-.41a3.25,3.25,0,0,0,.93-.17c.42-.12.65-.25.69-.37a7.91,7.91,0,0,0,.29-2l.1-2.62a6,6,0,0,0-.5-3.22,2.22,2.22,0,0,0-1.94-1,2.56,2.56,0,0,0-1.56.43,1.32,1.32,0,0,0-.7,1l-.17,4.74a11.62,11.62,0,0,0,.1,2.49c0,.13.27.27.72.43a3.94,3.94,0,0,0,.89.24c.07,0,.11.14.11.4a1.55,1.55,0,0,1-.06.54l-1.44-.16q-1.22-.13-1.86-.15t-1.92,0l-1.48.06a.81.81,0,0,1-.09-.53c0-.28.05-.41.13-.41a3.88,3.88,0,0,0,1-.17c.46-.12.7-.25.75-.37a9,9,0,0,0,.27-2l.17-4.5a2.62,2.62,0,0,0-.38-1.78,1.34,1.34,0,0,0-.61-.44,3.15,3.15,0,0,0-.66-.19c-.17,0-.26-.06-.26-.09q0-.8.17-.82a39,39,0,0,0,4.47-.66l.07,0h.15c.07,0,.13.07.18.2a.82.82,0,0,1,.07.31,9.46,9.46,0,0,0-.15,1c0,.07,0,.12,0,.14a.4.4,0,0,0,.14-.08,6.16,6.16,0,0,1,1.74-1.1A4.84,4.84,0,0,1,241.93,14.47Z"/><path class="cls-1" d="M255.09,15a3.39,3.39,0,0,1,2.53,1,4.41,4.41,0,0,1,.74,3.11l-.2,5.43a1.25,1.25,0,0,0,.22.85.82.82,0,0,0,.65.31,1.72,1.72,0,0,0,1-.32c.11,0,.16.14.15.31a1.63,1.63,0,0,1-.2.82,6.77,6.77,0,0,1-1.13.65,2.87,2.87,0,0,1-1.34.31,2,2,0,0,1-1.23-.51,2.27,2.27,0,0,1-.76-1.05l-.21.17c-.12.1-.29.21-.51.35a8.28,8.28,0,0,1-.73.42,4.46,4.46,0,0,1-1,.34,4,4,0,0,1-1.1.11,3.3,3.3,0,0,1-2.22-.84,2.62,2.62,0,0,1-.79-2.11,2.55,2.55,0,0,1,.36-1.23,3.33,3.33,0,0,1,.79-.92,5.68,5.68,0,0,1,1.21-.69,11.32,11.32,0,0,1,1.3-.49l1.39-.38,1.19-.32a.43.43,0,0,0,.26-.43l.06-1.52a2.36,2.36,0,0,0-.39-1.53,1.44,1.44,0,0,0-1.17-.59,1.67,1.67,0,0,0-1.31.46,2.06,2.06,0,0,0-.52,1.43.9.9,0,0,1-.44.8,1.72,1.72,0,0,1-.95.23,1.56,1.56,0,0,1-1.41-.71q0-1.32,1.9-2.41A6.92,6.92,0,0,1,255.09,15ZM253.46,25.5a2.15,2.15,0,0,0,1.3-.34,1.1,1.1,0,0,0,.57-.86l.1-2.81c-.13.05-.41.13-.82.25s-.74.21-1,.29a8.05,8.05,0,0,0-.79.36,1.66,1.66,0,0,0-.67.58,1.51,1.51,0,0,0-.23.76,1.7,1.7,0,0,0,.39,1.31A1.59,1.59,0,0,0,253.46,25.5Z"/><path class="cls-1" d="M276,9.71a8,8,0,0,1,1.5.21,8.13,8.13,0,0,1,1.61.57,6.54,6.54,0,0,1,1.47.94,3.86,3.86,0,0,1,1,1.42,4.38,4.38,0,0,1,.34,1.95,4.7,4.7,0,0,1-1.07,2.78,5.34,5.34,0,0,1-2.41,1.79c-.15.05-.19.14-.12.27a32.35,32.35,0,0,0,2.92,4.8,12,12,0,0,0,2,2.1,3.52,3.52,0,0,0,2,.92.79.79,0,0,1,.09.45,1.1,1.1,0,0,1-.13.49,5.31,5.31,0,0,1-.86,0,9.19,9.19,0,0,1-2.54-.42,5.9,5.9,0,0,1-2-1.05,10.7,10.7,0,0,1-1.35-1.31,11.88,11.88,0,0,1-1.1-1.59q-.37-.57-.83-1.33l-.72-1.17c-.17-.27-.35-.56-.56-.86a5.41,5.41,0,0,0-.54-.68,1.41,1.41,0,0,0-.44-.32,1.72,1.72,0,0,0-.66-.11q-.44,0-.46.45l-.14,3.89a8.61,8.61,0,0,0,.13,2.35q.07.34.9.57a5.86,5.86,0,0,0,1.22.25q.11,0,.09.47a1.52,1.52,0,0,1-.07.47q-3-.28-3.91-.31c-.5,0-1.05,0-1.67,0l-1.48,0-.55,0a.94.94,0,0,1-.07-.5c0-.29,0-.44.1-.44a4.8,4.8,0,0,0,1.07-.14c.47-.1.75-.23.83-.4a10.91,10.91,0,0,0,.26-2.5l.38-10.42a10.75,10.75,0,0,0-.08-2.27q-.07-.22-.8-.49a4,4,0,0,0-1.05-.27c-.07,0-.1-.14-.09-.42s.05-.44.13-.49q2.92.19,3.66.22l1.92,0Zm-.49,1.36a4.51,4.51,0,0,0-1.61.13q-.31.13-.44,2.86l-.12,3.17a.78.78,0,0,0,.44.82,3.53,3.53,0,0,0,1.29.24l.72,0a2.37,2.37,0,0,0,1.87-.9,3.76,3.76,0,0,0,.9-2.48Q278.66,11.19,275.46,11.07Z"/><path class="cls-1" d="M292.92,16.35a5.11,5.11,0,0,1,2.3.6,4.38,4.38,0,0,1,1.55,1.35,6.49,6.49,0,0,1,.82,1.66,4.76,4.76,0,0,1,.24,1.63c0,.4-.09.65-.24.75a1.56,1.56,0,0,1-.85.12l-6.59-.24c-.13,0-.2,0-.2.16a5.34,5.34,0,0,0,.29,1.94A3.79,3.79,0,0,0,291.42,26a3.25,3.25,0,0,0,2.06.77,7.48,7.48,0,0,0,.8,0,4,4,0,0,0,.72-.11l.58-.16a2.4,2.4,0,0,0,.52-.23l.38-.22.56-.35a.47.47,0,0,1,.13.17.54.54,0,0,1,.07.28.85.85,0,0,1-.19.52,4.5,4.5,0,0,1-1.68,1.43,5.13,5.13,0,0,1-2.76.64,5.59,5.59,0,0,1-4.07-1.93A6,6,0,0,1,287,22.4a6.39,6.39,0,0,1,1.78-4.46A5.35,5.35,0,0,1,292.92,16.35Zm-.24,1.26a2,2,0,0,0-1.2.34,2.63,2.63,0,0,0-.83.91,5.43,5.43,0,0,0-.44,1,3.34,3.34,0,0,0-.15.81q0,.19.16.2l4.47.16c.17,0,.25-.13.26-.4a3.57,3.57,0,0,0-.58-2A2,2,0,0,0,292.68,17.61Z"/><path class="cls-1" d="M308.59,16.93q3.53.13,3.33,5.56l-.1,2.84a10.13,10.13,0,0,0,.13,2.49c0,.13.25.27.72.43a4.3,4.3,0,0,0,.94.24c.06,0,.08.14.08.4a2.9,2.9,0,0,1,0,.54l-1.47-.16q-1.28-.13-1.89-.15c-.46,0-1.08,0-1.87,0l-1.45.06a1,1,0,0,1-.06-.53c0-.28,0-.41.1-.41a3.26,3.26,0,0,0,1-.17c.42-.12.66-.25.72-.37a10.44,10.44,0,0,0,.24-2L309,23a5.75,5.75,0,0,0-.51-3.18,2.26,2.26,0,0,0-1.94-.94,2.64,2.64,0,0,0-1.53.41,1.3,1.3,0,0,0-.73,1L304.15,25a10.14,10.14,0,0,0,.13,2.49c0,.13.27.27.72.43a3.9,3.9,0,0,0,.92.24c.06,0,.08.14.08.4a1.61,1.61,0,0,1-.06.54L304.49,29q-1.22-.13-1.86-.15t-1.92,0l-1.48.06a.8.8,0,0,1-.09-.53c0-.28.05-.41.13-.41a3.83,3.83,0,0,0,1-.17c.46-.12.7-.25.75-.37a8.81,8.81,0,0,0,.27-2L301.71,14a10.94,10.94,0,0,0-.07-1.88c-.08-.3-.55-.46-1.42-.49H300c-.11,0-.16-.15-.15-.45s.07-.44.18-.44q.86-.05,1.63-.16t1.29-.23c.34-.08.64-.16.89-.24l.79-.25h.05c.07,0,.15.06.21.16a.74.74,0,0,1,.13.29,8.9,8.9,0,0,0-.43,2.58l-.21,5.57c0,.11,0,.17.1.17s.06,0,.11-.08a5.22,5.22,0,0,1,1.74-1.14A5.07,5.07,0,0,1,308.59,16.93Z"/><path class="cls-1" d="M321.59,17.4a3.39,3.39,0,0,1,2.53,1,4.41,4.41,0,0,1,.74,3.11l-.2,5.43a1.25,1.25,0,0,0,.22.85.83.83,0,0,0,.65.31,1.72,1.72,0,0,0,1-.32c.11,0,.16.14.15.31a1.63,1.63,0,0,1-.2.82,6.77,6.77,0,0,1-1.13.65,2.87,2.87,0,0,1-1.34.31,2,2,0,0,1-1.23-.51A2.27,2.27,0,0,1,322,28.3l-.21.17c-.12.1-.29.21-.51.35a8.12,8.12,0,0,1-.73.42,4.46,4.46,0,0,1-1,.34,4,4,0,0,1-1.1.11,3.3,3.3,0,0,1-2.22-.84,2.62,2.62,0,0,1-.79-2.11,2.54,2.54,0,0,1,.36-1.23,3.33,3.33,0,0,1,.79-.92,5.68,5.68,0,0,1,1.21-.69,11.32,11.32,0,0,1,1.3-.49l1.39-.38,1.19-.32a.43.43,0,0,0,.26-.43l.06-1.52a2.36,2.36,0,0,0-.39-1.53,1.44,1.44,0,0,0-1.17-.59,1.67,1.67,0,0,0-1.31.46,2.06,2.06,0,0,0-.52,1.43.9.9,0,0,1-.44.8,1.72,1.72,0,0,1-.95.23,1.56,1.56,0,0,1-1.41-.71q0-1.32,1.9-2.42A6.92,6.92,0,0,1,321.59,17.4ZM320,27.95a2.14,2.14,0,0,0,1.3-.34,1.09,1.09,0,0,0,.57-.86l.1-2.81c-.13.05-.41.13-.82.25s-.74.21-1,.3a7.52,7.52,0,0,0-.79.36,1.66,1.66,0,0,0-.67.58,1.51,1.51,0,0,0-.24.76,1.69,1.69,0,0,0,.39,1.31A1.59,1.59,0,0,0,320,27.95Z"/><path class="cls-1" d="M338.66,19.77q-.33-.76-1.9-.82c-.05,0-.08-.13-.07-.39a1,1,0,0,1,.1-.49q.39,0,1.33.13t1.57.14c.41,0,1,0,1.62,0s1.12,0,1.35,0a.79.79,0,0,1,.07.44c0,.29-.07.44-.18.44a3.27,3.27,0,0,0-1.08.22,1.6,1.6,0,0,0-1,.75l-5,9.57a1.84,1.84,0,0,1-.37.46.69.69,0,0,1-.48.23c-.18,0-.29-.07-.32-.18Q333.84,29,333,26.73T331.47,23q-.63-1.54-1.45-3.48-.3-.79-1.76-.84c-.07,0-.11-.15-.09-.45a.64.64,0,0,1,.13-.44q.25,0,1.46.14t1.87.15q.66,0,1.91,0L335,18a.89.89,0,0,1,.05.5c0,.26-.06.38-.14.38a4,4,0,0,0-1,.13q-.63.14-.64.42a.52.52,0,0,0,0,.28l2.5,6.44,2.68-5.37Q338.84,20.08,338.66,19.77Z"/><path class="cls-1" d="M348.87,26.69a10.14,10.14,0,0,0,.13,2.49q0,.19.73.43a4,4,0,0,0,.93.24c.07,0,.11.14.11.4a1.61,1.61,0,0,1-.06.54l-1.47-.17q-1.28-.13-1.89-.15t-1.95,0l-1.45.06a.81.81,0,0,1-.09-.53q0-.41.13-.41a4,4,0,0,0,1-.17c.46-.12.72-.24.76-.37a9,9,0,0,0,.27-2l.17-4.49a2.63,2.63,0,0,0-.37-1.78,1.53,1.53,0,0,0-.62-.44,2.89,2.89,0,0,0-.66-.19c-.18,0-.27-.06-.27-.09q0-.8.2-.82A21.11,21.11,0,0,0,346.7,19a21.64,21.64,0,0,0,2.2-.42l.22,0c.09,0,.16.07.21.2a.5.5,0,0,1,0,.31,23.61,23.61,0,0,0-.31,2.36ZM346.43,15a1.69,1.69,0,0,1-.45-1.23,1.71,1.71,0,0,1,3.42.13,1.68,1.68,0,0,1-.54,1.19,1.7,1.7,0,0,1-2.43-.09Z"/><path class="cls-1" d="M358.62,18.77a3.38,3.38,0,0,1,2.53,1,4.41,4.41,0,0,1,.74,3.11l-.2,5.43a1.25,1.25,0,0,0,.22.85.83.83,0,0,0,.65.31,1.72,1.72,0,0,0,1-.32c.11,0,.16.14.15.31a1.63,1.63,0,0,1-.2.82,6.74,6.74,0,0,1-1.13.65,2.86,2.86,0,0,1-1.34.31,2,2,0,0,1-1.22-.51,2.26,2.26,0,0,1-.76-1l-.21.17c-.12.1-.29.21-.51.35a8.28,8.28,0,0,1-.73.42,4.39,4.39,0,0,1-1,.34,4,4,0,0,1-1.09.11,3.3,3.3,0,0,1-2.22-.84,2.62,2.62,0,0,1-.79-2.11,2.54,2.54,0,0,1,.36-1.23,3.33,3.33,0,0,1,.79-.92,5.75,5.75,0,0,1,1.21-.69,11.58,11.58,0,0,1,1.3-.49l1.39-.38,1.19-.32a.43.43,0,0,0,.26-.43l.06-1.52a2.36,2.36,0,0,0-.38-1.53,1.45,1.45,0,0,0-1.17-.59,1.67,1.67,0,0,0-1.32.46,2.07,2.07,0,0,0-.52,1.43.9.9,0,0,1-.44.8,1.72,1.72,0,0,1-.95.23,1.56,1.56,0,0,1-1.41-.71q0-1.32,1.9-2.42A6.93,6.93,0,0,1,358.62,18.77ZM357,29.31a2.14,2.14,0,0,0,1.3-.34,1.09,1.09,0,0,0,.57-.86l.1-2.81c-.13.05-.41.13-.82.25s-.74.21-1,.29a7.53,7.53,0,0,0-.79.36,1.66,1.66,0,0,0-.67.58,1.51,1.51,0,0,0-.24.76,1.7,1.7,0,0,0,.39,1.31A1.58,1.58,0,0,0,357,29.31Z"/><path class="cls-1" d="M66.16,54.81a3.39,3.39,0,0,1,2.56.9,4.41,4.41,0,0,1,.85,3.08l0,5.44a1.27,1.27,0,0,0,.25.84.83.83,0,0,0,.66.29A1.72,1.72,0,0,0,71.4,65c.11,0,.17.14.17.3a1.64,1.64,0,0,1-.17.83,6.78,6.78,0,0,1-1.11.69,2.86,2.86,0,0,1-1.33.35,2,2,0,0,1-1.24-.47,2.25,2.25,0,0,1-.8-1l-.21.18q-.18.15-.5.37a8.05,8.05,0,0,1-.72.44,4.44,4.44,0,0,1-.94.37,4.07,4.07,0,0,1-1.09.15,3.3,3.3,0,0,1-2.25-.77,2.62,2.62,0,0,1-.86-2.09,2.55,2.55,0,0,1,.32-1.24,3.35,3.35,0,0,1,.76-.95,5.63,5.63,0,0,1,1.19-.73,11.46,11.46,0,0,1,1.28-.53l1.38-.42,1.17-.36a.43.43,0,0,0,.25-.44V58.15a2.36,2.36,0,0,0-.44-1.52,1.44,1.44,0,0,0-1.18-.56,1.68,1.68,0,0,0-1.3.51A2.07,2.07,0,0,0,63.34,58a.9.9,0,0,1-.42.81,1.72,1.72,0,0,1-.94.26,1.55,1.55,0,0,1-1.43-.67q0-1.32,1.82-2.48A6.92,6.92,0,0,1,66.16,54.81ZM64.89,65.4A2.15,2.15,0,0,0,66.17,65a1.09,1.09,0,0,0,.54-.88V61.32q-.19.08-.82.27t-1,.33a7.5,7.5,0,0,0-.77.38,1.66,1.66,0,0,0-.65.61,1.5,1.5,0,0,0-.21.77,1.7,1.7,0,0,0,.44,1.3A1.58,1.58,0,0,0,64.89,65.4Z"/><path class="cls-1" d="M80.16,54.85a5.61,5.61,0,0,1,3.07.88,5.8,5.8,0,0,1,2.06,2.21A5.89,5.89,0,0,1,86,60.72a6.29,6.29,0,0,1-1.93,4.62,6.08,6.08,0,0,1-4.43,1.9,8.62,8.62,0,0,1-2-.21,6.12,6.12,0,0,0-1.3-.21,2.11,2.11,0,0,0-.72.19,2.76,2.76,0,0,1-.55.19,1.33,1.33,0,0,1-.4-.17c-.21-.11-.32-.2-.32-.28s0-.22.06-.5.09-.67.14-1.19a15.63,15.63,0,0,0,.09-1.68l0-11.26a9.51,9.51,0,0,0-.16-1.88q-.14-.44-1.43-.45h-.25c-.11,0-.17-.15-.17-.44s.06-.44.17-.44q.86-.08,1.63-.21t1.28-.27c.34-.09.64-.18.88-.27l.79-.27h.05a.3.3,0,0,1,.22.15.77.77,0,0,1,.14.29,9.59,9.59,0,0,0-.31,2.59v4.57a.87.87,0,0,0,0,.13c0,.05,0,.08.05.08l.1,0a5.14,5.14,0,0,1,1.12-.55A4,4,0,0,1,80.16,54.85Zm-.61,1.49a2.14,2.14,0,0,0-1.49.52,1.63,1.63,0,0,0-.58,1.24l0,5.85a1.66,1.66,0,0,0,.73,1.47,3,3,0,0,0,1.72.5,2.35,2.35,0,0,0,2.17-1.29,6.32,6.32,0,0,0,.74-3.14A7.09,7.09,0,0,0,82,57.73,2.71,2.71,0,0,0,79.55,56.34Z"/><path class="cls-1" d="M94.13,54.89a6.08,6.08,0,0,1,4.42,1.82,5.92,5.92,0,0,1,1.82,4.38,6.29,6.29,0,1,1-6.25-6.2Zm-.36,1.3a2.22,2.22,0,0,0-2,1.25,5.93,5.93,0,0,0-.73,3,8,8,0,0,0,.89,3.89A2.75,2.75,0,0,0,94.4,66a2.25,2.25,0,0,0,2-1.26,5.88,5.88,0,0,0,.74-3,9.48,9.48,0,0,0-.35-2.66A4.87,4.87,0,0,0,95.67,57,2.56,2.56,0,0,0,93.77,56.19Z"/><path class="cls-1" d="M114.22,57.94l0,5.46a6.1,6.1,0,0,0,.21,1.93.56.56,0,0,0,.32.22,2.2,2.2,0,0,0,.48.11l.46,0a.5.5,0,0,1,.24,0c.07,0,.11.1.11.25a2.1,2.1,0,0,1-.06.37c0,.17-.09.26-.17.26a6.39,6.39,0,0,0-1,.09l-1.14.19-1,.2-1.1.22c-.13,0-.19-.15-.19-.44V65.65c0-.09,0-.14-.08-.14a6.13,6.13,0,0,1-1.69,1.24,4.61,4.61,0,0,1-2.18.55,2.88,2.88,0,0,1-1.64-.47,3.32,3.32,0,0,1-1.1-1.22,5.91,5.91,0,0,1-.57-1.6,8.48,8.48,0,0,1-.17-1.74V59.17a2.62,2.62,0,0,0-.44-1.77,1.53,1.53,0,0,0-.63-.42,3,3,0,0,0-.66-.17c-.18,0-.28,0-.28-.08q0-.8.14-.83a21,21,0,0,0,2.26-.32,21.75,21.75,0,0,0,2.18-.49l.11,0,.11,0c.09,0,.16.07.21.19a1,1,0,0,1,.07.3,24.31,24.31,0,0,0-.26,2.43v3.31a5.91,5.91,0,0,0,.6,3.09,2.44,2.44,0,0,0,3.45.41,1.46,1.46,0,0,0,.61-1V59.2a2.62,2.62,0,0,0-.44-1.77,1.33,1.33,0,0,0-.62-.42,3.12,3.12,0,0,0-.67-.17c-.18,0-.28,0-.28-.08q0-.8.17-.83a21.36,21.36,0,0,0,2.24-.32,22,22,0,0,0,2.18-.49l.22-.05c.09,0,.17.07.22.19a.52.52,0,0,1,.05.3Q114.22,57.44,114.22,57.94Z"/><path class="cls-1" d="M119.36,56.9h-1.68c-.13,0-.19-.24-.19-.72a.68.68,0,0,1,0-.25,7.72,7.72,0,0,0,2.13-1.46l.79-.81q.43-.45,1-1.17a2,2,0,0,1,.52.07c.17,0,.25.1.25.15v2.7l2,0,1.37,0c.15,0,.22.08.22.25a2.68,2.68,0,0,1-.28,1.21H122.2l0,6.65a2.62,2.62,0,0,0,.46,1.69,1.58,1.58,0,0,0,1.29.58,2.62,2.62,0,0,0,.58-.07,2.91,2.91,0,0,0,.5-.15l.36-.17.19-.08c.07,0,.16.06.25.25a.65.65,0,0,1,.11.36,2.54,2.54,0,0,1-1.18.89,4.36,4.36,0,0,1-2,.5,3.48,3.48,0,0,1-2.44-.93,3.7,3.7,0,0,1-1-2.86Z"/><path class="cls-1" d="M135.35,57h-1.68c-.13,0-.19-.24-.19-.72a.67.67,0,0,1,0-.25,7.75,7.75,0,0,0,2.13-1.46l.79-.81q.43-.45,1-1.17a1.94,1.94,0,0,1,.52.07c.17,0,.25.1.25.15v2.71l2,0,1.37,0c.15,0,.22.08.22.25A2.68,2.68,0,0,1,141.5,57h-3.31l0,6.65a2.62,2.62,0,0,0,.46,1.68,1.58,1.58,0,0,0,1.29.58,2.56,2.56,0,0,0,.58-.07,2.83,2.83,0,0,0,.5-.15l.36-.16.19-.08c.07,0,.16.07.25.25a.66.66,0,0,1,.11.36,2.53,2.53,0,0,1-1.18.89,4.34,4.34,0,0,1-2,.5,3.48,3.48,0,0,1-2.44-.93,3.69,3.69,0,0,1-1-2.86Z"/><path class="cls-1" d="M152.72,55.07q3.53,0,3.51,5.45v2.84a10.13,10.13,0,0,0,.21,2.48c0,.13.26.26.73.4a4.29,4.29,0,0,0,1,.21c.06,0,.09.13.09.4a3,3,0,0,1,0,.54l-1.48-.12q-1.28-.09-1.89-.09t-1.86.08l-1.45.11a1,1,0,0,1-.08-.52c0-.28,0-.41.08-.41a3.29,3.29,0,0,0,1-.2c.42-.14.65-.27.71-.4a10.55,10.55,0,0,0,.17-2V61.12a5.77,5.77,0,0,0-.61-3.16,2.26,2.26,0,0,0-2-.87,2.64,2.64,0,0,0-1.52.46,1.3,1.3,0,0,0-.69,1l0,4.75a10.13,10.13,0,0,0,.21,2.48c0,.13.28.26.73.4a4,4,0,0,0,.92.21c.06,0,.09.13.09.4a1.61,1.61,0,0,1,0,.54L149,67.26q-1.23-.09-1.86-.09t-1.92.08l-1.48.11a.8.8,0,0,1-.11-.52c0-.28,0-.41.11-.41a3.9,3.9,0,0,0,1-.2c.45-.14.7-.27.73-.4a8.92,8.92,0,0,0,.2-2l0-11.48a10.78,10.78,0,0,0-.13-1.88c-.09-.29-.57-.44-1.43-.45h-.25c-.11,0-.17-.15-.17-.44s.06-.44.17-.44q.86-.08,1.63-.21c.52-.09.94-.18,1.28-.27s.64-.18.88-.27l.79-.27h.05a.3.3,0,0,1,.22.15.77.77,0,0,1,.14.29,8.86,8.86,0,0,0-.34,2.59l0,5.57c0,.11,0,.17.11.17s.05,0,.11-.08a5.23,5.23,0,0,1,1.7-1.2A5.08,5.08,0,0,1,152.72,55.07Z"/><path class="cls-1" d="M165.59,55.11a5.12,5.12,0,0,1,2.32.52,4.37,4.37,0,0,1,1.6,1.3,6.43,6.43,0,0,1,.88,1.63,4.78,4.78,0,0,1,.3,1.62c0,.4-.07.66-.21.76a1.57,1.57,0,0,1-.84.15l-6.6,0c-.13,0-.19.05-.19.17a5.37,5.37,0,0,0,.35,1.93,3.79,3.79,0,0,0,1.22,1.63,3.25,3.25,0,0,0,2.08.7,7.1,7.1,0,0,0,.8,0,4,4,0,0,0,.72-.13l.58-.18a2.35,2.35,0,0,0,.51-.25l.37-.23.55-.37a.48.48,0,0,1,.14.17.53.53,0,0,1,.08.28.85.85,0,0,1-.17.52,4.5,4.5,0,0,1-1.63,1.48,5.12,5.12,0,0,1-2.74.74,5.58,5.58,0,0,1-4.13-1.79,6,6,0,0,1-1.73-4.32,6.38,6.38,0,0,1,1.63-4.52A5.35,5.35,0,0,1,165.59,55.11Zm-.2,1.27a1.94,1.94,0,0,0-1.19.38,2.6,2.6,0,0,0-.8.94,5.2,5.2,0,0,0-.4,1,3.33,3.33,0,0,0-.13.81q0,.19.16.19h4.47c.17,0,.25-.14.25-.41a3.58,3.58,0,0,0-.64-2A2,2,0,0,0,165.39,56.38Z"/><path class="cls-1" d="M183.07,63.39a11.26,11.26,0,0,0,.19,2.48c0,.13.26.27.67.43a3,3,0,0,0,.84.24c.05,0,.09.13.09.39a1.49,1.49,0,0,1,0,.52l-1-.07-1.17-.07-1,0-1,0-1.16.06-1,.07a.77.77,0,0,1-.11-.51c0-.27,0-.4.11-.4a2.94,2.94,0,0,0,.92-.23c.42-.15.64-.3.68-.43a9.11,9.11,0,0,0,.23-2l0-11.48a9.58,9.58,0,0,0-.16-1.88q-.14-.44-1.38-.45h-.28c-.11,0-.17-.11-.17-.33s.06-.44.17-.44q.86-.08,1.63-.21t1.28-.27l.88-.26.59-.21.19-.08h.05c.07,0,.15.06.23.17a.88.88,0,0,1,.15.28,8.72,8.72,0,0,0-.34,2.59Z"/><path class="cls-1" d="M193,55.2A6.09,6.09,0,0,1,197.38,57a5.92,5.92,0,0,1,1.82,4.38A6.29,6.29,0,1,1,193,55.2Zm-.36,1.29a2.22,2.22,0,0,0-2,1.25,5.93,5.93,0,0,0-.73,3,8,8,0,0,0,.89,3.89,2.75,2.75,0,0,0,2.49,1.66,2.25,2.25,0,0,0,2-1.26,5.88,5.88,0,0,0,.74-3,9.48,9.48,0,0,0-.35-2.67,4.88,4.88,0,0,0-1.15-2.06A2.57,2.57,0,0,0,192.59,56.49Z"/><path class="cls-1" d="M205.49,55.21a11.66,11.66,0,0,1,3.2.48,15.69,15.69,0,0,1,.29,3.09c0,.15-.12.22-.36.22-.4,0-.62-.07-.66-.22a3.36,3.36,0,0,0-.81-1.64,2.16,2.16,0,0,0-1.67-.68,2,2,0,0,0-1.26.35,1.22,1.22,0,0,0-.46,1,1.63,1.63,0,0,0,.15.71,1.74,1.74,0,0,0,.5.59,6.44,6.44,0,0,0,.61.44c.17.11.44.26.79.44l.28.14.41.22.46.25.44.26a5.09,5.09,0,0,1,.48.32l.43.33a2.17,2.17,0,0,1,.41.39l.33.43a1.75,1.75,0,0,1,.29.5c.05.16.1.33.15.53a2.62,2.62,0,0,1,.07.59,3.25,3.25,0,0,1-1.35,2.74,5.24,5.24,0,0,1-3.25,1,9.22,9.22,0,0,1-3.56-.78,11.14,11.14,0,0,1-.27-1.53,13.57,13.57,0,0,1-.13-1.59.59.59,0,0,1,.39-.14q.63,0,.66.22a3.05,3.05,0,0,0,1.08,1.87,2.94,2.94,0,0,0,1.89.71,2,2,0,0,0,1.27-.38,1.35,1.35,0,0,0,.5-1.13,1.84,1.84,0,0,0-.07-.51,1.37,1.37,0,0,0-.26-.47l-.32-.39a2,2,0,0,0-.5-.37l-.55-.32-.69-.36-.7-.37a6.43,6.43,0,0,1-2-1.48,3.19,3.19,0,0,1,.65-4.56A5.32,5.32,0,0,1,205.49,55.21Z"/><path class="cls-1" d="M215.87,55.24a11.78,11.78,0,0,1,3.2.48,15.71,15.71,0,0,1,.29,3.09c0,.15-.12.22-.36.22q-.61,0-.66-.22a3.35,3.35,0,0,0-.81-1.64,2.16,2.16,0,0,0-1.67-.68,2,2,0,0,0-1.26.36,1.22,1.22,0,0,0-.46,1,1.61,1.61,0,0,0,.15.7,1.73,1.73,0,0,0,.5.6,6.81,6.81,0,0,0,.61.44c.17.11.44.26.79.44a1.67,1.67,0,0,0,.28.14l.41.22.46.25.44.26a4.94,4.94,0,0,1,.48.32l.43.33a2.17,2.17,0,0,1,.41.39l.33.43a1.76,1.76,0,0,1,.29.5,5.25,5.25,0,0,1,.15.53,2.61,2.61,0,0,1,.07.59,3.25,3.25,0,0,1-1.35,2.74,5.23,5.23,0,0,1-3.25,1,9.23,9.23,0,0,1-3.56-.78,11.12,11.12,0,0,1-.27-1.53,13.61,13.61,0,0,1-.13-1.59.59.59,0,0,1,.39-.14q.63,0,.66.22a3.06,3.06,0,0,0,1.08,1.87,3,3,0,0,0,1.89.71,2,2,0,0,0,1.27-.38,1.35,1.35,0,0,0,.5-1.13,1.85,1.85,0,0,0-.07-.51,1.36,1.36,0,0,0-.26-.47l-.32-.39a2,2,0,0,0-.5-.37l-.55-.32-.69-.36-.7-.37a6.46,6.46,0,0,1-2-1.48,3.19,3.19,0,0,1,.65-4.57A5.33,5.33,0,0,1,215.87,55.24Z"/><path class="cls-1" d="M245.1,57.46a.8.8,0,0,0-.22-.57,1.22,1.22,0,0,0-.57-.33,5.11,5.11,0,0,0-.63-.14,4.16,4.16,0,0,0-.56,0H243c-.07,0-.12-.14-.12-.41s0-.44.07-.5c.24,0,.73,0,1.46.09s1.33.09,1.77.09.88,0,1.48-.08,1-.08,1.31-.08A1.73,1.73,0,0,1,249,56c0,.28,0,.41-.11.41a3.16,3.16,0,0,0-1.09.34,1.69,1.69,0,0,0-1,.84l-4.11,9.73a1.1,1.1,0,0,1-.37.4.94.94,0,0,1-.54.18.35.35,0,0,1-.36-.19L238.14,60l-3,7.19a1.49,1.49,0,0,1-.32.39.83.83,0,0,1-.59.22.41.41,0,0,1-.39-.19q-.63-1.44-1.49-3.5T230.8,60.5q-.71-1.57-1.64-3.43a1.26,1.26,0,0,0-.72-.55,2.69,2.69,0,0,0-.88-.2c-.07,0-.11-.15-.11-.44s0-.41.11-.47l1.39.09q1.12.09,1.75.09t1.88-.08l1.43-.08a1.48,1.48,0,0,1,.05.5c0,.24,0,.37-.08.39a3.27,3.27,0,0,0-1,.19q-.59.19-.6.58s.91,2.15,2.74,6.36q.31-.77.71-1.75l.61-1.49.42-1c.14-.35.24-.61.29-.79a1.52,1.52,0,0,0,.08-.34,2,2,0,0,0-.36-1.11,1.32,1.32,0,0,0-.61-.44,2.22,2.22,0,0,0-1-.17c-.07,0-.11-.13-.11-.4s0-.43.11-.48.66,0,1.37.09,1.28.09,1.72.09,1,0,1.79-.08l1.41-.08a1.31,1.31,0,0,1,0,.51c0,.27,0,.4-.1.4q-1.41,0-1.41,1a44.34,44.34,0,0,0,2.58,6.13q.44-1.16,1.1-2.71t1-2.31A3.68,3.68,0,0,0,245.1,57.46Z"/><path class="cls-1" d="M255.46,63.67a10.13,10.13,0,0,0,.21,2.48c0,.13.28.26.74.4a4.14,4.14,0,0,0,.94.21c.07,0,.11.13.12.4a1.57,1.57,0,0,1,0,.54L256,67.59q-1.28-.09-1.89-.09t-1.95.08l-1.45.11a.81.81,0,0,1-.11-.52c0-.28,0-.41.11-.41a4.08,4.08,0,0,0,1-.2c.46-.14.71-.27.75-.4a9.13,9.13,0,0,0,.2-2v-4.5a2.62,2.62,0,0,0-.44-1.77,1.51,1.51,0,0,0-.63-.42,2.91,2.91,0,0,0-.66-.17c-.18,0-.28,0-.28-.08q0-.8.17-.83A21.3,21.3,0,0,0,253,56a22,22,0,0,0,2.18-.49l.22-.05c.09,0,.17.06.22.19a.52.52,0,0,1,.05.3,23.8,23.8,0,0,0-.23,2.37Zm-2.83-11.56a1.68,1.68,0,0,1-.49-1.22,1.71,1.71,0,0,1,3.42,0,1.67,1.67,0,0,1-.5,1.21,1.7,1.7,0,0,1-2.43,0Z"/><path class="cls-1" d="M260.74,57.34h-1.68c-.13,0-.19-.24-.19-.72a.68.68,0,0,1,0-.25A7.72,7.72,0,0,0,261,54.91l.79-.81q.43-.45,1-1.17a2,2,0,0,1,.52.07c.17,0,.25.1.25.15v2.7l2,0,1.37,0c.15,0,.22.08.22.25a2.68,2.68,0,0,1-.28,1.21h-3.31l0,6.65a2.62,2.62,0,0,0,.46,1.69,1.58,1.58,0,0,0,1.29.58,2.62,2.62,0,0,0,.58-.07,2.91,2.91,0,0,0,.5-.15l.36-.17.19-.08c.07,0,.16.06.25.25a.65.65,0,0,1,.11.36,2.54,2.54,0,0,1-1.18.89,4.36,4.36,0,0,1-2,.5,3.48,3.48,0,0,1-2.44-.93,3.7,3.7,0,0,1-1-2.86Z"/><path class="cls-1" d="M278.11,55.46q3.53,0,3.51,5.45v2.84a10.13,10.13,0,0,0,.21,2.48c0,.13.26.26.73.4a4.25,4.25,0,0,0,1,.21c.06,0,.09.13.09.4a3,3,0,0,1,0,.54l-1.48-.11q-1.28-.09-1.89-.09t-1.86.08l-1.45.11a1,1,0,0,1-.08-.53c0-.28,0-.41.08-.41a3.31,3.31,0,0,0,1-.21c.42-.14.65-.27.71-.4a10.55,10.55,0,0,0,.17-2v-2.7a5.76,5.76,0,0,0-.61-3.16,2.26,2.26,0,0,0-2-.87,2.64,2.64,0,0,0-1.52.46,1.3,1.3,0,0,0-.69,1l0,4.75a10.12,10.12,0,0,0,.21,2.48c0,.13.28.26.73.4a3.87,3.87,0,0,0,.92.21c.06,0,.09.13.09.4a1.6,1.6,0,0,1,0,.54l-1.45-.11q-1.23-.09-1.86-.09t-1.92.08l-1.48.11a.8.8,0,0,1-.11-.52c0-.28,0-.41.11-.41a3.77,3.77,0,0,0,1-.2c.45-.14.7-.27.73-.4a8.92,8.92,0,0,0,.2-2l0-11.48a10.76,10.76,0,0,0-.13-1.88c-.09-.29-.57-.44-1.43-.45h-.25c-.11,0-.17-.15-.17-.44s.06-.44.17-.44q.86-.08,1.63-.22c.52-.09.94-.18,1.28-.27s.64-.18.88-.27l.79-.27H274a.3.3,0,0,1,.22.15.78.78,0,0,1,.14.29,8.86,8.86,0,0,0-.34,2.59l0,5.57c0,.11,0,.17.11.17s.05,0,.11-.08a5.29,5.29,0,0,1,1.7-1.2A5.1,5.1,0,0,1,278.11,55.46Z"/><path class="cls-1" d="M290.2,63.78a10.12,10.12,0,0,0,.21,2.48c0,.13.28.26.74.4a4.1,4.1,0,0,0,.94.21c.07,0,.11.13.12.4a1.57,1.57,0,0,1,0,.54l-1.48-.11q-1.28-.09-1.89-.09t-1.95.08l-1.45.11a.81.81,0,0,1-.11-.52c0-.28,0-.41.11-.41a4,4,0,0,0,1-.2q.69-.21.75-.4a9.13,9.13,0,0,0,.2-2v-4.5a2.62,2.62,0,0,0-.44-1.77,1.53,1.53,0,0,0-.63-.42,3,3,0,0,0-.66-.17c-.18,0-.28,0-.28-.08q0-.8.17-.83a21.1,21.1,0,0,0,2.24-.32,21.75,21.75,0,0,0,2.18-.49l.22-.05c.09,0,.17.07.22.19a.52.52,0,0,1,.05.3q-.23,1.77-.23,2.37Zm-2.83-11.56a1.69,1.69,0,0,1-.49-1.22,1.71,1.71,0,0,1,3.42,0,1.68,1.68,0,0,1-.5,1.21,1.7,1.7,0,0,1-2.43,0Z"/><path class="cls-1" d="M302.9,55.54q3.56,0,3.54,5.67v2.62a11.54,11.54,0,0,0,.19,2.48c0,.13.29.26.76.4a4.29,4.29,0,0,0,1,.21c.06,0,.09.13.09.4a1.58,1.58,0,0,1,0,.54c-.11,0-.59-.06-1.45-.12s-1.49-.09-1.92-.09-1.05,0-1.83.08l-1.42.11a.8.8,0,0,1-.11-.52c0-.28,0-.41.11-.41a3.29,3.29,0,0,0,.92-.2c.42-.14.64-.27.68-.4a8,8,0,0,0,.23-2V61.67a6,6,0,0,0-.61-3.2,2.22,2.22,0,0,0-2-.92,2.55,2.55,0,0,0-1.55.48,1.33,1.33,0,0,0-.67,1l0,4.75a11.53,11.53,0,0,0,.19,2.48c0,.13.28.26.73.4a4.05,4.05,0,0,0,.9.21c.07,0,.11.13.12.4a1.59,1.59,0,0,1,0,.54l-1.45-.12q-1.23-.09-1.86-.09t-1.92.08l-1.48.11a.81.81,0,0,1-.11-.52c0-.28,0-.41.11-.41a3.92,3.92,0,0,0,1-.2q.68-.21.73-.4a9.14,9.14,0,0,0,.2-2v-4.5A2.62,2.62,0,0,0,295.5,58a1.32,1.32,0,0,0-.62-.42,3.1,3.1,0,0,0-.66-.17c-.17,0-.26,0-.26-.08q0-.8.14-.83a39.15,39.15,0,0,0,4.45-.81l.07,0h.15c.07,0,.14.06.19.19a.85.85,0,0,1,.08.3,9.31,9.31,0,0,0-.11,1,.21.21,0,0,0,0,.14.43.43,0,0,0,.14-.08,6.07,6.07,0,0,1,1.7-1.15A4.81,4.81,0,0,1,302.9,55.54Z"/><path class="cls-1" d="M325.35,55.61a3,3,0,0,1,1.79.54,3.23,3.23,0,0,1,1.1,1.4,6.51,6.51,0,0,1,2-1.37,6.2,6.2,0,0,1,2.6-.54,3.13,3.13,0,0,1,1.7.45,3.05,3.05,0,0,1,1.1,1.23,6.46,6.46,0,0,1,.57,1.71,10.57,10.57,0,0,1,.17,2v2.9a11.54,11.54,0,0,0,.19,2.48c0,.13.28.26.74.4a4.06,4.06,0,0,0,.94.21c.06,0,.09.13.09.4a1.61,1.61,0,0,1,0,.54l-1.45-.12q-1.26-.09-1.89-.09t-1.89.08l-1.48.11a1,1,0,0,1-.08-.53c0-.28,0-.41.08-.41a3.73,3.73,0,0,0,1-.21c.44-.14.68-.27.72-.4a8.64,8.64,0,0,0,.2-1.93V61.65q0-4-2.55-4a2.52,2.52,0,0,0-1.52.44,1.72,1.72,0,0,0-.72.85c0,.06,0,.13,0,.22a.52.52,0,0,0,0,.22,13.24,13.24,0,0,1,.08,1.71V64a10.83,10.83,0,0,0,.19,2.37c0,.13.28.26.74.4a4.06,4.06,0,0,0,.94.21c.06,0,.09.13.09.4a1.58,1.58,0,0,1,0,.54l-1.45-.11q-1.26-.09-1.89-.09t-1.89.08l-1.48.11a1,1,0,0,1-.08-.53c0-.28,0-.41.08-.41a3.73,3.73,0,0,0,1-.21c.44-.14.68-.27.72-.4a9.07,9.07,0,0,0,.2-2V61.71a5.85,5.85,0,0,0-.62-3.12,2.1,2.1,0,0,0-1.87-1,2.63,2.63,0,0,0-1.52.46,1.3,1.3,0,0,0-.69,1l0,4.75a10.13,10.13,0,0,0,.21,2.48c0,.13.28.26.72.4A3.75,3.75,0,0,0,323,67c.07,0,.11.13.12.4a1.58,1.58,0,0,1,0,.54l-1.45-.11q-1.23-.09-1.86-.09t-1.93.08l-1.46.11a.81.81,0,0,1-.11-.53c0-.28,0-.41.11-.41a4,4,0,0,0,1-.2q.69-.21.75-.4a9.12,9.12,0,0,0,.2-2v-4.5a2.62,2.62,0,0,0-.44-1.77,1.33,1.33,0,0,0-.62-.42,3.05,3.05,0,0,0-.67-.17c-.18,0-.28,0-.28-.08q0-.8.17-.83a38,38,0,0,0,4.42-.81l.08,0h.14c.09,0,.17.07.22.2a.51.51,0,0,1,.05.3,9,9,0,0,0-.11,1c0,.07,0,.12.05.14a.43.43,0,0,0,.14-.08,6.11,6.11,0,0,1,1.7-1.15A4.82,4.82,0,0,1,325.35,55.61Z"/><path class="cls-1" d="M344.78,63.95a10.12,10.12,0,0,0,.21,2.48c0,.13.28.26.74.4a4.1,4.1,0,0,0,.94.21c.07,0,.11.13.12.4a1.57,1.57,0,0,1,0,.54l-1.48-.12q-1.28-.08-1.89-.09t-1.95.08L340,68a.81.81,0,0,1-.11-.52c0-.28,0-.41.11-.41a4,4,0,0,0,1-.2q.69-.21.75-.4a9.13,9.13,0,0,0,.2-2v-4.5a2.62,2.62,0,0,0-.44-1.77,1.53,1.53,0,0,0-.63-.42,2.91,2.91,0,0,0-.66-.17c-.18,0-.28,0-.28-.08q0-.8.17-.83a21.36,21.36,0,0,0,2.24-.32,22,22,0,0,0,2.18-.49l.22-.05c.09,0,.17.07.22.19a.52.52,0,0,1,.05.3,23.81,23.81,0,0,0-.23,2.37Zm-2.83-11.56a1.69,1.69,0,0,1-.49-1.22,1.7,1.7,0,0,1,1.72-1.69,1.66,1.66,0,0,1,1.21.5,1.63,1.63,0,0,1,.49,1.2,1.68,1.68,0,0,1-.5,1.21,1.7,1.7,0,0,1-2.43,0Z"/><path class="cls-1" d="M353.73,55.75a8.79,8.79,0,0,1,2.29.37,8.51,8.51,0,0,0,2.21.37h1.57s.1.12.19.36a1.68,1.68,0,0,1,.14.55c0,.26-.06.39-.17.38h-1.79c-.07,0-.11,0-.11.08s.08.26.25.72a3.88,3.88,0,0,1,.24,1.33,4,4,0,0,1-1.37,2.93,4.73,4.73,0,0,1-3.41,1.3A11.41,11.41,0,0,1,352,64a1.48,1.48,0,0,0-.61.51,1.19,1.19,0,0,0-.28.68.57.57,0,0,0,.26.47,1.85,1.85,0,0,0,.81.28c.37.06.68.1.94.11l1.1.06h.41a9.73,9.73,0,0,1,4,.77,2.17,2.17,0,0,1,1.28,2,4.34,4.34,0,0,1-2,3.58,7.54,7.54,0,0,1-4.67,1.5,7.18,7.18,0,0,1-3.52-.78,2.48,2.48,0,0,1-1.5-2.27,2.14,2.14,0,0,1,.79-1.54,4.57,4.57,0,0,1,1.7-1,3.14,3.14,0,0,1-1.32-.84,2,2,0,0,1-.6-1.45q0-1.19,2-2.45a3.65,3.65,0,0,1-1.49-1.43,4.06,4.06,0,0,1-.68-2.25,3.73,3.73,0,0,1,1.44-3.09A5.49,5.49,0,0,1,353.73,55.75Zm3.76,14.44q0-1-1.39-1.29a17.46,17.46,0,0,0-3.74-.33l-.14,0-.14.08q-.36.14-.55.23a2.33,2.33,0,0,0-.44.3,1.31,1.31,0,0,0-.37.48,1.61,1.61,0,0,0-.13.66,1.93,1.93,0,0,0,1,1.66,4.31,4.31,0,0,0,2.34.67,4.18,4.18,0,0,0,2.53-.71A2.15,2.15,0,0,0,357.49,70.2Zm-5.87-10.45a4.37,4.37,0,0,0,.54,2.28,1.72,1.72,0,0,0,1.54.93,1.64,1.64,0,0,0,1.51-.78,3.64,3.64,0,0,0,.49-1.94,4.54,4.54,0,0,0-.54-2.37,1.77,1.77,0,0,0-1.6-.92,1.56,1.56,0,0,0-1.47.85A4,4,0,0,0,351.62,59.75Z"/><path class="cls-1" d="M370,55.75a2.75,2.75,0,0,1,2.26.92q0,2.35-1.33,2.34a1.64,1.64,0,0,1-1.07-.55,1.72,1.72,0,0,0-1.18-.56,1.48,1.48,0,0,0-1.34.87,3.67,3.67,0,0,0-.49,1.81V64A11.52,11.52,0,0,0,367,66.5c0,.13.28.26.73.4a3.94,3.94,0,0,0,.92.21c.06,0,.09.13.09.4a2.84,2.84,0,0,1,0,.54l-1.46-.12q-1.24-.08-1.88-.09t-1.92.08L362,68a.81.81,0,0,1-.11-.52c0-.28,0-.41.11-.41a3.86,3.86,0,0,0,1-.2q.68-.21.73-.4a9.13,9.13,0,0,0,.2-2V60a2.62,2.62,0,0,0-.44-1.77,1.33,1.33,0,0,0-.62-.42,3.16,3.16,0,0,0-.66-.17c-.17,0-.26,0-.26-.08q0-.8.14-.83a39.15,39.15,0,0,0,4.45-.81l.22-.05c.07,0,.14.07.19.19a.67.67,0,0,1,.07.32c0,.08,0,.21,0,.39s0,.36-.07.55a3.39,3.39,0,0,0,0,.37,5.06,5.06,0,0,1,1.36-1.33A3,3,0,0,1,370,55.75Z"/><path class="cls-1" d="M379.85,55.78a3.39,3.39,0,0,1,2.56.91,4.41,4.41,0,0,1,.85,3.08l0,5.44a1.26,1.26,0,0,0,.25.84.83.83,0,0,0,.66.29,1.71,1.71,0,0,0,.94-.36c.11,0,.17.14.17.3a1.65,1.65,0,0,1-.17.83,6.91,6.91,0,0,1-1.11.69,2.88,2.88,0,0,1-1.33.35,2,2,0,0,1-1.24-.47,2.25,2.25,0,0,1-.8-1l-.21.18q-.18.15-.5.37a8.28,8.28,0,0,1-.72.44,4.39,4.39,0,0,1-.94.37,4,4,0,0,1-1.09.15,3.29,3.29,0,0,1-2.25-.77,2.62,2.62,0,0,1-.86-2.09,2.56,2.56,0,0,1,.32-1.24,3.36,3.36,0,0,1,.76-.95,5.63,5.63,0,0,1,1.19-.73,11.3,11.3,0,0,1,1.28-.54l1.38-.42,1.17-.36a.43.43,0,0,0,.25-.44V59.12A2.36,2.36,0,0,0,380,57.6,1.44,1.44,0,0,0,378.8,57a1.68,1.68,0,0,0-1.3.51A2.07,2.07,0,0,0,377,59a.9.9,0,0,1-.42.81,1.72,1.72,0,0,1-.94.26,1.55,1.55,0,0,1-1.43-.67q0-1.32,1.82-2.48A6.92,6.92,0,0,1,379.85,55.78Zm-1.27,10.59a2.15,2.15,0,0,0,1.28-.38,1.09,1.09,0,0,0,.54-.88V62.3q-.19.08-.82.27t-1,.33a7.67,7.67,0,0,0-.77.38,1.66,1.66,0,0,0-.65.61,1.5,1.5,0,0,0-.21.77,1.7,1.7,0,0,0,.44,1.3A1.59,1.59,0,0,0,378.57,66.37Z"/><path class="cls-1" d="M388.4,57.74h-1.68c-.13,0-.19-.24-.19-.72a.67.67,0,0,1,0-.25,7.73,7.73,0,0,0,2.13-1.46l.79-.81q.43-.45,1-1.17a1.9,1.9,0,0,1,.52.07c.17,0,.25.1.25.15v2.7l2,0,1.37,0c.15,0,.22.08.22.25a2.68,2.68,0,0,1-.28,1.21h-3.31l0,6.65a2.62,2.62,0,0,0,.46,1.69,1.58,1.58,0,0,0,1.29.58,2.56,2.56,0,0,0,.58-.07,2.84,2.84,0,0,0,.5-.15l.36-.17.19-.08c.07,0,.16.07.25.25a.65.65,0,0,1,.11.36,2.53,2.53,0,0,1-1.18.89,4.36,4.36,0,0,1-2,.5,3.47,3.47,0,0,1-2.44-.93,3.69,3.69,0,0,1-1-2.86Z"/><path class="cls-1" d="M401.64,64.13a10.13,10.13,0,0,0,.21,2.48c0,.13.28.26.74.4a4.06,4.06,0,0,0,.94.21c.07,0,.11.13.12.4a1.57,1.57,0,0,1,0,.54L402.13,68q-1.28-.09-1.89-.09T398.3,68l-1.45.11a.81.81,0,0,1-.11-.53c0-.28,0-.41.11-.41a4,4,0,0,0,1-.2q.69-.21.75-.4a9.12,9.12,0,0,0,.2-2v-4.5a2.62,2.62,0,0,0-.44-1.77,1.52,1.52,0,0,0-.63-.42,2.85,2.85,0,0,0-.66-.17c-.18,0-.28,0-.28-.08q0-.8.17-.83a21.1,21.1,0,0,0,2.24-.32,21.48,21.48,0,0,0,2.18-.49l.22-.05c.09,0,.17.07.22.2a.51.51,0,0,1,.05.3q-.23,1.77-.23,2.37ZM398.8,52.57a1.68,1.68,0,0,1-.49-1.22,1.71,1.71,0,0,1,3.42,0,1.68,1.68,0,0,1-.5,1.21,1.7,1.7,0,0,1-2.43,0Z"/><path class="cls-1" d="M411.55,55.88A6.08,6.08,0,0,1,416,57.7a5.92,5.92,0,0,1,1.82,4.38,6.29,6.29,0,1,1-6.25-6.2Zm-.36,1.29a2.22,2.22,0,0,0-2,1.25,5.93,5.93,0,0,0-.73,3,8,8,0,0,0,.89,3.89A2.75,2.75,0,0,0,411.82,67a2.25,2.25,0,0,0,2-1.26,5.88,5.88,0,0,0,.74-3,9.48,9.48,0,0,0-.35-2.66A4.88,4.88,0,0,0,413.09,58,2.56,2.56,0,0,0,411.19,57.17Z"/><path class="cls-1" d="M428.61,55.93q3.56,0,3.54,5.67v2.62a11.54,11.54,0,0,0,.19,2.48c0,.13.29.26.76.4a4.29,4.29,0,0,0,1,.21c.06,0,.09.13.09.4a1.58,1.58,0,0,1,0,.54l-1.45-.12q-1.28-.08-1.92-.09t-1.83.08l-1.42.11a.8.8,0,0,1-.11-.52c0-.28,0-.41.11-.41a3.22,3.22,0,0,0,.92-.2c.42-.14.64-.27.68-.4a8,8,0,0,0,.23-2V62.06a6,6,0,0,0-.61-3.2,2.22,2.22,0,0,0-2-.92,2.56,2.56,0,0,0-1.55.48,1.33,1.33,0,0,0-.67,1l0,4.75a11.53,11.53,0,0,0,.19,2.48c0,.13.28.26.73.4a4.05,4.05,0,0,0,.9.21c.07,0,.11.13.12.4a1.58,1.58,0,0,1,0,.54l-1.45-.12q-1.23-.09-1.86-.09t-1.92.08l-1.48.11a.81.81,0,0,1-.11-.52c0-.28,0-.41.11-.41a3.92,3.92,0,0,0,1-.2c.45-.14.7-.27.73-.4a9.13,9.13,0,0,0,.2-2v-4.5a2.62,2.62,0,0,0-.44-1.77,1.32,1.32,0,0,0-.62-.42,3.16,3.16,0,0,0-.66-.17c-.17,0-.26,0-.26-.08q0-.8.14-.83a39.08,39.08,0,0,0,4.45-.81l.07,0h.15c.07,0,.14.06.19.19a.85.85,0,0,1,.08.3,9.27,9.27,0,0,0-.11,1,.21.21,0,0,0,0,.14.41.41,0,0,0,.14-.08,6.07,6.07,0,0,1,1.7-1.15A4.82,4.82,0,0,1,428.61,55.93Z"/><path class="cls-1" d="M6.29,85.89a3.38,3.38,0,0,1,2.51,1A4.41,4.41,0,0,1,9.49,90l-.3,5.43a1.26,1.26,0,0,0,.2.85.83.83,0,0,0,.65.33,1.73,1.73,0,0,0,1-.31c.11,0,.16.15.15.31a1.64,1.64,0,0,1-.21.82,6.82,6.82,0,0,1-1.14.63,2.87,2.87,0,0,1-1.34.29,2,2,0,0,1-1.21-.54,2.26,2.26,0,0,1-.74-1.06L6.27,97c-.13.09-.3.21-.52.34a8.29,8.29,0,0,1-.74.4,4.41,4.41,0,0,1-1,.32,4,4,0,0,1-1.1.09,3.3,3.3,0,0,1-2.2-.88A2.62,2.62,0,0,1,0,95.11a2.55,2.55,0,0,1,.38-1.22A3.32,3.32,0,0,1,1.2,93a5.64,5.64,0,0,1,1.22-.66,11.24,11.24,0,0,1,1.31-.47l1.4-.35,1.19-.29a.43.43,0,0,0,.27-.43l.08-1.52a2.36,2.36,0,0,0-.36-1.54,1.44,1.44,0,0,0-1.15-.62,1.68,1.68,0,0,0-1.32.44A2.07,2.07,0,0,0,3.3,89a.89.89,0,0,1-.46.79,1.71,1.71,0,0,1-1,.21,1.56,1.56,0,0,1-1.4-.74q.07-1.32,1.94-2.38A6.92,6.92,0,0,1,6.29,85.89ZM4.47,96.4a2.15,2.15,0,0,0,1.3-.31,1.09,1.09,0,0,0,.59-.85l.16-2.81c-.13,0-.41.13-.83.23s-.74.2-1,.28a7.51,7.51,0,0,0-.79.34,1.65,1.65,0,0,0-.68.57,1.51,1.51,0,0,0-.25.76,1.7,1.7,0,0,0,.37,1.32A1.58,1.58,0,0,0,4.47,96.4Z"/><path class="cls-1" d="M22.25,86.77q3.55.2,3.24,5.85l-.14,2.62a11.5,11.5,0,0,0,.05,2.49c0,.13.27.28.74.44a4.28,4.28,0,0,0,.94.26c.06,0,.08.14.07.4a1.57,1.57,0,0,1-.07.54c-.11,0-.59-.09-1.44-.19S24.16,99,23.73,99s-1.05,0-1.84,0l-1.42,0a.81.81,0,0,1-.08-.53c0-.28.06-.41.13-.41a3.25,3.25,0,0,0,.93-.16q.63-.17.7-.36a7.92,7.92,0,0,0,.33-2l.14-2.62a6,6,0,0,0-.44-3.23,2.22,2.22,0,0,0-1.92-1,2.55,2.55,0,0,0-1.57.4,1.33,1.33,0,0,0-.72,1l-.26,4.74a11.49,11.49,0,0,0,.06,2.49c0,.13.26.28.71.44a3.92,3.92,0,0,0,.88.26c.07,0,.11.14.1.41a1.57,1.57,0,0,1-.07.54L18,98.75q-1.22-.15-1.85-.19t-1.92,0l-1.48,0a.81.81,0,0,1-.08-.53c0-.28.06-.41.13-.41a3.85,3.85,0,0,0,1-.15c.46-.11.71-.23.75-.36a9.08,9.08,0,0,0,.3-2l.25-4.49a2.62,2.62,0,0,0-.34-1.79,1.33,1.33,0,0,0-.6-.45,3.15,3.15,0,0,0-.65-.2c-.17,0-.26-.06-.26-.1,0-.53.09-.8.18-.82a39.45,39.45,0,0,0,4.48-.58l.07,0h.15c.07,0,.13.07.18.2a.83.83,0,0,1,.07.31,9.79,9.79,0,0,0-.17,1,.22.22,0,0,0,0,.14.39.39,0,0,0,.14-.07,6.12,6.12,0,0,1,1.76-1.06A4.84,4.84,0,0,1,22.25,86.77Z"/><path class="cls-1" d="M35.82,87.47a4.74,4.74,0,0,1,2,.5q.14,0,.16-.43l.14-2.59a9.64,9.64,0,0,0-.06-1.88q-.11-.45-1.41-.52h-.22q-.17,0-.14-.45t.19-.43q.83,0,1.62-.13t1.31-.2c.35-.07.64-.15.9-.23l.58-.18.22-.06h.05c.07,0,.14.06.21.16a.5.5,0,0,1,.09.3A10.58,10.58,0,0,0,41,83.89L40.38,96a10.18,10.18,0,0,0,.05,2,.41.41,0,0,0,.26.32,1.68,1.68,0,0,0,.52.17l.52.07.27,0A.57.57,0,0,1,42,99c0,.37-.09.55-.2.54s-.59,0-1,.06l-1.17.12-1.08.13-1.16.17c-.11,0-.16-.17-.14-.48l0-.47a.12.12,0,0,0,0-.11s0,0-.07,0a4.61,4.61,0,0,1-2.92.86,5.35,5.35,0,0,1-3.79-1.86,5.57,5.57,0,0,1-1.43-4.21,6.47,6.47,0,0,1,2.15-4.57A6,6,0,0,1,35.82,87.47Zm-.32,1.31a2.42,2.42,0,0,0-2.27,1.12,6.46,6.46,0,0,0-.93,3.29,6.66,6.66,0,0,0,.65,3.7,2.71,2.71,0,0,0,2.33,1.44,2.29,2.29,0,0,0,1.54-.4,1.53,1.53,0,0,0,.65-1.19l.32-5.79a1.88,1.88,0,0,0-.06-.58,2.54,2.54,0,0,0-.29-.67,1.76,1.76,0,0,0-.71-.62A2.92,2.92,0,0,0,35.5,88.78Z"/><path class="cls-1" d="M59.28,88.82q3.53.19,3.23,5.62l-.16,2.84a10.1,10.1,0,0,0,.08,2.49c0,.13.25.28.71.44a4.28,4.28,0,0,0,.94.26c.06,0,.08.14.07.4a3,3,0,0,1,0,.54l-1.47-.19q-1.28-.15-1.88-.19t-1.86,0l-1.45,0a1,1,0,0,1-.05-.53c0-.28.05-.41.11-.41a3.25,3.25,0,0,0,1-.15q.63-.17.73-.36a10.47,10.47,0,0,0,.28-2l.15-2.7a5.77,5.77,0,0,0-.45-3.19,2.26,2.26,0,0,0-1.92-1,2.64,2.64,0,0,0-1.54.38,1.3,1.3,0,0,0-.75,1l-.26,4.74a10.1,10.1,0,0,0,.08,2.49c0,.13.26.28.71.44a3.93,3.93,0,0,0,.91.26c.06,0,.08.14.07.4a1.59,1.59,0,0,1-.07.54L55,100.8c-.81-.1-1.43-.16-1.85-.19s-1.08,0-1.92,0l-1.48,0a.81.81,0,0,1-.08-.53c0-.28.06-.41.13-.41a3.84,3.84,0,0,0,1-.15q.69-.17.75-.36a8.81,8.81,0,0,0,.3-2l.63-11.46a10.94,10.94,0,0,0,0-1.88q-.11-.45-1.41-.52h-.25c-.11,0-.16-.16-.14-.45s.08-.44.19-.43q.86,0,1.64-.13c.52-.06,1-.13,1.3-.21s.64-.15.9-.23l.8-.23h.05c.07,0,.14.06.21.16a.76.76,0,0,1,.12.3,8.91,8.91,0,0,0-.47,2.57l-.31,5.57c0,.11,0,.17.1.17s.06,0,.11-.08A5.26,5.26,0,0,1,57,89.24,5.09,5.09,0,0,1,59.28,88.82Z"/><path class="cls-1" d="M72.12,89.53a5.13,5.13,0,0,1,2.29.64,4.37,4.37,0,0,1,1.53,1.38,6.41,6.41,0,0,1,.79,1.67,4.74,4.74,0,0,1,.21,1.63q0,.6-.25.75a1.57,1.57,0,0,1-.85.1l-6.58-.36c-.13,0-.2,0-.2.15a5.38,5.38,0,0,0,.25,1.95,3.8,3.8,0,0,0,1.14,1.69,3.25,3.25,0,0,0,2,.8,7.84,7.84,0,0,0,.8,0,4.12,4.12,0,0,0,.72-.1l.59-.15a2.39,2.39,0,0,0,.52-.22l.38-.21.57-.34a.46.46,0,0,1,.13.17.54.54,0,0,1,.07.28.86.86,0,0,1-.19.51,4.5,4.5,0,0,1-1.71,1.4,5.11,5.11,0,0,1-2.77.59,5.58,5.58,0,0,1-4-2,6,6,0,0,1-1.5-4.41A6.39,6.39,0,0,1,67.93,91,5.35,5.35,0,0,1,72.12,89.53Zm-.26,1.26a2,2,0,0,0-1.21.32,2.62,2.62,0,0,0-.85.89,5.2,5.2,0,0,0-.46,1,3.34,3.34,0,0,0-.17.8c0,.13,0,.2.16.2l4.46.25q.25,0,.27-.4a3.57,3.57,0,0,0-.54-2A2,2,0,0,0,71.86,90.79Z"/><path class="cls-1" d="M86.84,90.35a2.75,2.75,0,0,1,2.21,1q-.13,2.34-1.45,2.27a1.65,1.65,0,0,1-1-.61,1.73,1.73,0,0,0-1.15-.62,1.48,1.48,0,0,0-1.38.79A3.66,3.66,0,0,0,83.43,95l-.19,3.45a11.49,11.49,0,0,0,.06,2.49q0,.2.71.44a3.92,3.92,0,0,0,.91.26c.05,0,.08.14.07.4a2.8,2.8,0,0,1,0,.54l-1.45-.19q-1.24-.15-1.87-.19t-1.92,0l-1.48,0a.81.81,0,0,1-.08-.53c0-.28.06-.41.13-.41a3.85,3.85,0,0,0,1-.15c.46-.11.71-.23.75-.36a9.08,9.08,0,0,0,.3-2l.25-4.49a2.63,2.63,0,0,0-.34-1.79,1.33,1.33,0,0,0-.6-.45,3.18,3.18,0,0,0-.65-.2c-.17,0-.26-.06-.26-.1q0-.8.18-.82a39.48,39.48,0,0,0,4.48-.58l.22,0c.07,0,.13.07.18.2a.68.68,0,0,1,.05.32l-.06.38c0,.17-.06.36-.1.55a3.49,3.49,0,0,0-.06.37,5.05,5.05,0,0,1,1.42-1.26A3,3,0,0,1,86.84,90.35Z"/><path class="cls-1" d="M102.73,91.23a3.39,3.39,0,0,1,2.51,1,4.41,4.41,0,0,1,.68,3.12l-.3,5.43a1.26,1.26,0,0,0,.2.85.83.83,0,0,0,.65.33,1.72,1.72,0,0,0,1-.31c.11,0,.16.15.15.31a1.64,1.64,0,0,1-.21.82,6.82,6.82,0,0,1-1.14.63,2.87,2.87,0,0,1-1.34.29,2,2,0,0,1-1.21-.54,2.26,2.26,0,0,1-.74-1.06l-.22.17c-.13.09-.3.21-.52.34s-.47.27-.74.4a4.41,4.41,0,0,1-1,.32,4.08,4.08,0,0,1-1.1.09,3.3,3.3,0,0,1-2.2-.88,2.62,2.62,0,0,1-.75-2.13,2.55,2.55,0,0,1,.38-1.22,3.33,3.33,0,0,1,.81-.91,5.72,5.72,0,0,1,1.22-.66,11.43,11.43,0,0,1,1.31-.47l1.4-.35,1.19-.29a.43.43,0,0,0,.27-.43l.08-1.52a2.37,2.37,0,0,0-.36-1.54,1.44,1.44,0,0,0-1.15-.62,1.67,1.67,0,0,0-1.32.44,2.07,2.07,0,0,0-.55,1.42.9.9,0,0,1-.46.79,1.72,1.72,0,0,1-1,.21,1.55,1.55,0,0,1-1.4-.74q.07-1.32,1.94-2.38A6.93,6.93,0,0,1,102.73,91.23Zm-1.83,10.51a2.14,2.14,0,0,0,1.3-.32,1.09,1.09,0,0,0,.59-.85l.16-2.81c-.13,0-.41.13-.83.23s-.74.2-1,.28a7.69,7.69,0,0,0-.79.34,1.66,1.66,0,0,0-.68.57,1.51,1.51,0,0,0-.25.76,1.7,1.7,0,0,0,.37,1.32A1.59,1.59,0,0,0,100.9,101.74Z"/><path class="cls-1" d="M118.69,92.11q3.55.2,3.24,5.84l-.14,2.62a11.52,11.52,0,0,0,.05,2.49c0,.13.27.28.74.44a4.16,4.16,0,0,0,.94.26c.06,0,.08.14.07.41a1.56,1.56,0,0,1-.07.53l-1.44-.19q-1.28-.15-1.91-.19t-1.84,0l-1.42,0a.82.82,0,0,1-.08-.53c0-.28.06-.41.13-.41a3.28,3.28,0,0,0,.93-.16q.63-.17.7-.36a7.92,7.92,0,0,0,.33-2l.14-2.62a6,6,0,0,0-.44-3.23,2.22,2.22,0,0,0-1.92-1,2.56,2.56,0,0,0-1.57.4,1.33,1.33,0,0,0-.72,1l-.26,4.74a11.49,11.49,0,0,0,.06,2.49c0,.13.26.28.71.44a3.92,3.92,0,0,0,.88.26c.07,0,.11.14.1.41a1.56,1.56,0,0,1-.07.53l-1.44-.19q-1.22-.15-1.85-.19t-1.92,0l-1.48,0a.81.81,0,0,1-.08-.53c0-.28.06-.41.13-.41a3.8,3.8,0,0,0,1-.15c.46-.11.71-.23.75-.36a9.07,9.07,0,0,0,.3-2l.25-4.49a2.61,2.61,0,0,0-.34-1.79,1.32,1.32,0,0,0-.6-.45,3.15,3.15,0,0,0-.65-.2c-.17,0-.26-.06-.26-.1,0-.53.09-.81.18-.82a39.26,39.26,0,0,0,4.48-.58l.07,0h.15c.07,0,.13.07.18.2a.82.82,0,0,1,.07.31,9.79,9.79,0,0,0-.17,1c0,.07,0,.12,0,.14a.42.42,0,0,0,.14-.08,6.1,6.1,0,0,1,1.76-1.06A4.82,4.82,0,0,1,118.69,92.11Z"/><path class="cls-1" d="M127.54,94.53l-1.68-.09q-.19,0-.15-.73a.66.66,0,0,1,0-.25,7.78,7.78,0,0,0,2.2-1.34l.83-.77q.45-.43,1.07-1.12a2,2,0,0,1,.52.1c.16.06.24.11.24.17l-.15,2.7,2,.13,1.36.09c.15,0,.22.09.21.26a2.68,2.68,0,0,1-.34,1.2l-3.31-.18-.37,6.64a2.63,2.63,0,0,0,.38,1.71,1.58,1.58,0,0,0,1.26.65,2.62,2.62,0,0,0,.58,0,2.92,2.92,0,0,0,.5-.12l.37-.14.2-.07c.07,0,.15.07.24.26a.66.66,0,0,1,.09.36,2.54,2.54,0,0,1-1.22.83,4.35,4.35,0,0,1-2,.4,3.48,3.48,0,0,1-2.39-1.06,3.7,3.7,0,0,1-.85-2.91Z"/><path class="cls-1" d="M140.42,101.6a10.1,10.1,0,0,0,.08,2.49c0,.13.27.28.72.44a4.05,4.05,0,0,0,.93.26c.07,0,.11.14.1.41a1.56,1.56,0,0,1-.07.54l-1.47-.19q-1.28-.15-1.88-.19t-1.95,0l-1.45,0a.82.82,0,0,1-.08-.53c0-.28.06-.41.13-.41a4,4,0,0,0,1-.15c.47-.11.72-.23.77-.36a9.14,9.14,0,0,0,.3-2l.25-4.49a2.62,2.62,0,0,0-.34-1.79,1.52,1.52,0,0,0-.61-.45,2.91,2.91,0,0,0-.65-.2c-.18,0-.27-.06-.27-.1,0-.53.1-.8.21-.82a20.86,20.86,0,0,0,2.25-.21,21.36,21.36,0,0,0,2.2-.37l.22,0c.09,0,.16.07.21.21a.51.51,0,0,1,0,.31,23.82,23.82,0,0,0-.35,2.36ZM138.2,89.91a1.68,1.68,0,0,1-.43-1.24,1.7,1.7,0,0,1,1.8-1.6,1.66,1.66,0,0,1,1.19.56,1.63,1.63,0,0,1,.43,1.23,1.68,1.68,0,0,1-.56,1.19,1.7,1.7,0,0,1-2.43-.13Z"/><path class="cls-1" d="M144.28,100q.09-1.57.42-1.55h0l6.66,0h0c.11,0,.16.09.15.26a5.32,5.32,0,0,1-.14,1,1.15,1.15,0,0,1-.22.51l-.09.11-6.66-.06h-.06s0,0-.08-.09A.39.39,0,0,1,144.28,100Z"/><path class="cls-1" d="M162.74,94.55q3.55.2,3.24,5.85l-.14,2.62a11.5,11.5,0,0,0,.05,2.49c0,.13.27.28.74.44a4.28,4.28,0,0,0,.94.26c.06,0,.08.14.07.41a1.56,1.56,0,0,1-.07.53q-.16,0-1.44-.19t-1.91-.19q-.66,0-1.84,0l-1.42,0a.82.82,0,0,1-.08-.53c0-.28.06-.41.13-.41a3.24,3.24,0,0,0,.93-.16q.63-.17.7-.36a7.92,7.92,0,0,0,.33-2l.14-2.62a6,6,0,0,0-.44-3.23,2.22,2.22,0,0,0-1.92-1,2.56,2.56,0,0,0-1.57.4,1.33,1.33,0,0,0-.72,1l-.26,4.74a11.49,11.49,0,0,0,.06,2.49c0,.13.26.28.71.44a3.94,3.94,0,0,0,.88.26c.07,0,.11.14.1.41a1.57,1.57,0,0,1-.07.53l-1.44-.19q-1.22-.15-1.85-.19t-1.92,0l-1.48,0a.81.81,0,0,1-.08-.53c0-.28.06-.41.13-.41a3.8,3.8,0,0,0,1-.15c.46-.11.71-.23.75-.36a9.07,9.07,0,0,0,.3-2l.25-4.49a2.61,2.61,0,0,0-.34-1.79,1.32,1.32,0,0,0-.6-.45A3.16,3.16,0,0,0,154,96c-.17,0-.26-.06-.26-.1,0-.53.09-.81.18-.82a39.19,39.19,0,0,0,4.48-.58l.07,0h.15c.07,0,.13.07.18.2a.82.82,0,0,1,.07.31,9.79,9.79,0,0,0-.17,1,.22.22,0,0,0,0,.14.42.42,0,0,0,.14-.08,6.1,6.1,0,0,1,1.76-1.06A4.84,4.84,0,0,1,162.74,94.55Z"/><path class="cls-1" d="M175.89,95.27a3.38,3.38,0,0,1,2.51,1,4.41,4.41,0,0,1,.68,3.12l-.3,5.43a1.27,1.27,0,0,0,.2.85.83.83,0,0,0,.65.33,1.72,1.72,0,0,0,1-.31c.11,0,.16.15.15.31a1.65,1.65,0,0,1-.21.82,6.86,6.86,0,0,1-1.14.63,2.87,2.87,0,0,1-1.34.29,2,2,0,0,1-1.21-.54,2.25,2.25,0,0,1-.74-1.06l-.22.17q-.19.14-.52.34a8.4,8.4,0,0,1-.74.4,4.46,4.46,0,0,1-1,.32,4,4,0,0,1-1.1.09,3.3,3.3,0,0,1-2.2-.88,2.62,2.62,0,0,1-.75-2.13,2.54,2.54,0,0,1,.39-1.22,3.29,3.29,0,0,1,.81-.91,5.66,5.66,0,0,1,1.23-.67,11.36,11.36,0,0,1,1.31-.47l1.4-.35,1.19-.29a.43.43,0,0,0,.27-.43l.08-1.52a2.37,2.37,0,0,0-.36-1.54,1.44,1.44,0,0,0-1.15-.62,1.67,1.67,0,0,0-1.32.44,2.07,2.07,0,0,0-.55,1.42.89.89,0,0,1-.46.79,1.71,1.71,0,0,1-1,.21,1.56,1.56,0,0,1-1.4-.74q.07-1.32,1.94-2.38A6.91,6.91,0,0,1,175.89,95.27Zm-1.83,10.51a2.15,2.15,0,0,0,1.3-.31,1.09,1.09,0,0,0,.59-.85l.16-2.81c-.13,0-.41.13-.83.23s-.74.2-1,.28a7.57,7.57,0,0,0-.79.34,1.66,1.66,0,0,0-.68.57,1.51,1.51,0,0,0-.25.76,1.69,1.69,0,0,0,.37,1.32A1.58,1.58,0,0,0,174.07,105.79Z"/><path class="cls-1" d="M184.34,97.68l-1.68-.09c-.13,0-.18-.25-.15-.73a.67.67,0,0,1,0-.25,7.75,7.75,0,0,0,2.2-1.34l.83-.77q.45-.43,1.07-1.12a2,2,0,0,1,.52.1c.16.05.24.11.24.17l-.15,2.7,2,.12,1.36.09c.15,0,.22.1.21.26a2.68,2.68,0,0,1-.34,1.2l-3.31-.18-.37,6.64a2.62,2.62,0,0,0,.38,1.71,1.57,1.57,0,0,0,1.26.65,2.61,2.61,0,0,0,.58,0,2.93,2.93,0,0,0,.5-.12l.37-.15.2-.07c.07,0,.15.07.24.26a.66.66,0,0,1,.09.36,2.53,2.53,0,0,1-1.22.83,4.34,4.34,0,0,1-2,.4,3.48,3.48,0,0,1-2.39-1.06,3.69,3.69,0,0,1-.85-2.91Z"/><path class="cls-1" d="M197.22,104.74a10.1,10.1,0,0,0,.08,2.49c0,.13.27.28.72.44a4.08,4.08,0,0,0,.93.26c.07,0,.11.14.1.41a1.57,1.57,0,0,1-.07.54l-1.47-.19q-1.28-.15-1.88-.19t-1.95,0l-1.45,0a.82.82,0,0,1-.08-.53c0-.28.06-.41.13-.41a4,4,0,0,0,1-.15c.47-.11.72-.23.77-.36a9.09,9.09,0,0,0,.3-2l.25-4.49a2.62,2.62,0,0,0-.34-1.79,1.52,1.52,0,0,0-.61-.45,2.91,2.91,0,0,0-.65-.2c-.18,0-.27-.06-.27-.1,0-.53.1-.8.21-.82a29.09,29.09,0,0,0,4.45-.58l.22,0c.09,0,.16.07.21.2a.51.51,0,0,1,0,.31q-.32,1.75-.35,2.36ZM195,93.06a1.68,1.68,0,0,1-.43-1.24A1.71,1.71,0,0,1,198,92a1.68,1.68,0,0,1-.56,1.18,1.7,1.7,0,0,1-2.42-.13Z"/><path class="cls-1" d="M207.55,97a6.09,6.09,0,0,1,4.32,2,5.92,5.92,0,0,1,1.59,4.47A6.29,6.29,0,1,1,207.55,97Zm-.43,1.28A2.23,2.23,0,0,0,205,99.44a6,6,0,0,0-.88,3,8,8,0,0,0,.68,3.93,2.75,2.75,0,0,0,2.4,1.79,2.25,2.25,0,0,0,2.1-1.16,5.87,5.87,0,0,0,.9-2.94,9.47,9.47,0,0,0-.21-2.68,4.87,4.87,0,0,0-1-2.12A2.57,2.57,0,0,0,207.11,98.3Z"/><path class="cls-1" d="M224.58,98q3.55.2,3.24,5.84l-.14,2.62a11.52,11.52,0,0,0,.05,2.49q0,.19.74.44a4.18,4.18,0,0,0,.94.26c.06,0,.08.14.07.41a1.56,1.56,0,0,1-.07.53l-1.44-.19q-1.28-.15-1.91-.19t-1.84,0l-1.42,0a.81.81,0,0,1-.08-.53c0-.28.06-.41.13-.41a3.29,3.29,0,0,0,.93-.16c.42-.12.65-.24.7-.36a7.92,7.92,0,0,0,.33-2l.14-2.62a6,6,0,0,0-.44-3.23,2.22,2.22,0,0,0-1.92-1,2.56,2.56,0,0,0-1.57.4,1.33,1.33,0,0,0-.72,1L220,106a11.49,11.49,0,0,0,.06,2.49q0,.2.71.44a4,4,0,0,0,.88.26c.07,0,.11.14.1.41a1.57,1.57,0,0,1-.07.54l-1.44-.19q-1.22-.15-1.86-.19t-1.92,0l-1.48,0a.81.81,0,0,1-.08-.53c0-.28.06-.41.13-.41a3.81,3.81,0,0,0,1-.15c.46-.11.71-.23.75-.36a9.07,9.07,0,0,0,.3-2l.25-4.49a2.62,2.62,0,0,0-.34-1.79,1.32,1.32,0,0,0-.6-.45,3.13,3.13,0,0,0-.65-.2c-.17,0-.26-.06-.26-.1q0-.8.18-.82a39.35,39.35,0,0,0,4.48-.58l.07,0h.15c.07,0,.13.07.18.2a.83.83,0,0,1,.07.31,9.74,9.74,0,0,0-.17,1,.22.22,0,0,0,0,.14.44.44,0,0,0,.14-.08,6.1,6.1,0,0,1,1.76-1.06A4.81,4.81,0,0,1,224.58,98Z"/><path class="cls-1" d="M237.73,98.69a3.39,3.39,0,0,1,2.51,1,4.42,4.42,0,0,1,.68,3.12l-.3,5.43a1.26,1.26,0,0,0,.2.85.83.83,0,0,0,.65.33,1.73,1.73,0,0,0,1-.31c.11,0,.16.15.15.31a1.64,1.64,0,0,1-.21.82,6.88,6.88,0,0,1-1.14.63,2.87,2.87,0,0,1-1.34.28,2,2,0,0,1-1.21-.54,2.26,2.26,0,0,1-.74-1.06l-.22.17c-.12.09-.3.21-.52.34a8.15,8.15,0,0,1-.74.4,4.51,4.51,0,0,1-1,.32,4.05,4.05,0,0,1-1.1.09,3.3,3.3,0,0,1-2.2-.88,2.63,2.63,0,0,1-.75-2.13,2.54,2.54,0,0,1,.39-1.22,3.34,3.34,0,0,1,.81-.91,5.65,5.65,0,0,1,1.22-.66,11.36,11.36,0,0,1,1.31-.47l1.4-.35,1.19-.29a.43.43,0,0,0,.27-.43l.08-1.52a2.37,2.37,0,0,0-.36-1.54,1.44,1.44,0,0,0-1.15-.62,1.67,1.67,0,0,0-1.32.44,2.07,2.07,0,0,0-.55,1.42.89.89,0,0,1-.46.79,1.72,1.72,0,0,1-1,.21,1.55,1.55,0,0,1-1.4-.74q.07-1.32,1.94-2.38A6.93,6.93,0,0,1,237.73,98.69Zm-1.83,10.51a2.14,2.14,0,0,0,1.3-.31,1.09,1.09,0,0,0,.59-.85l.16-2.81c-.13,0-.41.13-.83.23s-.74.2-1,.28a7.91,7.91,0,0,0-.79.34,1.66,1.66,0,0,0-.68.57,1.52,1.52,0,0,0-.25.76,1.7,1.7,0,0,0,.37,1.32A1.59,1.59,0,0,0,235.9,109.21Z"/><path class="cls-1" d="M249,107.56a11.27,11.27,0,0,0,.06,2.49c0,.13.25.29.65.46a3,3,0,0,0,.83.28c.05,0,.08.13.08.39a1.5,1.5,0,0,1-.07.52l-1-.13-1.17-.13-1-.08-1,0h-2.21a.78.78,0,0,1-.08-.52c0-.27.06-.4.13-.39a2.93,2.93,0,0,0,.94-.18q.63-.2.7-.39a9.11,9.11,0,0,0,.33-2l.63-11.46a9.55,9.55,0,0,0-.06-1.88q-.11-.45-1.35-.52l-.28,0q-.17,0-.15-.34c0-.29.08-.44.19-.43q.86,0,1.64-.13t1.3-.21l.9-.21.6-.17.2-.07h.05c.07,0,.15.06.23.18a.85.85,0,0,1,.13.28,8.78,8.78,0,0,0-.47,2.57Z"/><path class="cls-1" d="M257.54,108.08a10.11,10.11,0,0,0,.08,2.49c0,.13.27.28.72.44a4,4,0,0,0,.93.26c.07,0,.11.14.1.41a1.56,1.56,0,0,1-.07.54l-1.47-.19q-1.28-.15-1.88-.19t-1.95,0l-1.45,0a.81.81,0,0,1-.08-.53c0-.28.06-.41.13-.41a4,4,0,0,0,1-.15q.7-.17.77-.36a9.07,9.07,0,0,0,.3-2l.25-4.49a2.62,2.62,0,0,0-.34-1.79,1.53,1.53,0,0,0-.61-.45,2.94,2.94,0,0,0-.65-.2c-.18,0-.27-.06-.27-.1,0-.53.1-.8.21-.82a29.46,29.46,0,0,0,4.45-.58l.22,0c.09,0,.16.07.21.21a.51.51,0,0,1,0,.31,23.67,23.67,0,0,0-.35,2.36Zm-2.23-11.69a1.68,1.68,0,0,1-.43-1.24,1.71,1.71,0,0,1,3.42.19,1.68,1.68,0,0,1-.56,1.19,1.7,1.7,0,0,1-2.42-.13Z"/><path class="cls-1" d="M266.13,100.24a11.73,11.73,0,0,1,3.17.65,15.65,15.65,0,0,1,.13,3.1q0,.22-.37.2-.6,0-.65-.26a3.36,3.36,0,0,0-.72-1.68,2.16,2.16,0,0,0-1.63-.77,2,2,0,0,0-1.27.29,1.22,1.22,0,0,0-.51,1,1.61,1.61,0,0,0,.11.71,1.74,1.74,0,0,0,.46.62,6.63,6.63,0,0,0,.58.47q.25.18.76.48l.27.15.4.24.44.27.43.29a4.91,4.91,0,0,1,.46.34l.41.35a2.17,2.17,0,0,1,.39.41l.31.45a1.76,1.76,0,0,1,.26.51,5.34,5.34,0,0,1,.12.53,2.63,2.63,0,0,1,0,.6,3.26,3.26,0,0,1-1.49,2.67,5.24,5.24,0,0,1-3.29.83,9.19,9.19,0,0,1-3.51-1,11.06,11.06,0,0,1-.19-1.54,13.59,13.59,0,0,1-.05-1.59.59.59,0,0,1,.39-.12c.42,0,.64.11.65.26a3.05,3.05,0,0,0,1,1.92,3,3,0,0,0,1.85.81,2,2,0,0,0,1.29-.32,1.34,1.34,0,0,0,.56-1.1,1.79,1.79,0,0,0,0-.51,1.34,1.34,0,0,0-.24-.48l-.29-.4a2,2,0,0,0-.47-.4l-.53-.35-.67-.4-.68-.41a6.4,6.4,0,0,1-1.87-1.58A3.19,3.19,0,0,1,263,101,5.31,5.31,0,0,1,266.13,100.24Z"/><path class="cls-1" d="M273.5,102.61l-1.68-.09q-.19,0-.15-.73a.66.66,0,0,1,0-.25,7.77,7.77,0,0,0,2.2-1.34l.83-.77q.45-.43,1.07-1.12a2,2,0,0,1,.52.1c.16.06.24.11.24.17l-.15,2.7,2,.13,1.36.09c.15,0,.22.09.21.26a2.69,2.69,0,0,1-.34,1.2l-3.31-.18L276,109.4a2.62,2.62,0,0,0,.38,1.71,1.58,1.58,0,0,0,1.26.65,2.61,2.61,0,0,0,.58,0,2.9,2.9,0,0,0,.5-.12l.37-.14.2-.07c.07,0,.15.07.24.26a.66.66,0,0,1,.09.36,2.54,2.54,0,0,1-1.22.83,4.35,4.35,0,0,1-2,.4,3.48,3.48,0,0,1-2.39-1.06,3.7,3.7,0,0,1-.85-2.91Z"/><path class="cls-1" d="M292.46,101.69a11.78,11.78,0,0,1,3.17.65,15.72,15.72,0,0,1,.13,3.1c0,.15-.13.21-.37.2-.4,0-.62-.11-.65-.26a3.37,3.37,0,0,0-.72-1.68,2.16,2.16,0,0,0-1.63-.77,2,2,0,0,0-1.27.29,1.22,1.22,0,0,0-.51,1,1.62,1.62,0,0,0,.11.71,1.73,1.73,0,0,0,.46.62,6.78,6.78,0,0,0,.58.47q.25.18.76.48l.27.15.4.24.44.27.43.29a5.09,5.09,0,0,1,.46.34l.41.35a2.17,2.17,0,0,1,.39.41l.31.45a1.76,1.76,0,0,1,.26.51c0,.16.09.34.12.53a2.64,2.64,0,0,1,0,.6,3.26,3.26,0,0,1-1.49,2.67,5.24,5.24,0,0,1-3.29.83,9.23,9.23,0,0,1-3.51-1,11.17,11.17,0,0,1-.19-1.54,13.76,13.76,0,0,1-.05-1.59.58.58,0,0,1,.39-.12q.63,0,.65.26a3.05,3.05,0,0,0,1,1.92,3,3,0,0,0,1.85.81,2,2,0,0,0,1.29-.32,1.34,1.34,0,0,0,.56-1.1,1.78,1.78,0,0,0,0-.51,1.34,1.34,0,0,0-.24-.48l-.29-.4a2,2,0,0,0-.48-.4l-.53-.35L291,109l-.68-.41a6.42,6.42,0,0,1-1.87-1.58,3.19,3.19,0,0,1,.89-4.52A5.32,5.32,0,0,1,292.46,101.69Z"/><path class="cls-1" d="M304,102.36a5.1,5.1,0,0,1,2.29.64,4.37,4.37,0,0,1,1.53,1.38,6.42,6.42,0,0,1,.79,1.67,4.74,4.74,0,0,1,.21,1.63c0,.4-.11.65-.25.75a1.56,1.56,0,0,1-.85.11l-6.58-.37c-.13,0-.2,0-.2.16a5.37,5.37,0,0,0,.25,1.95,3.79,3.79,0,0,0,1.14,1.69,3.25,3.25,0,0,0,2,.8,7.56,7.56,0,0,0,.8,0,4,4,0,0,0,.72-.1l.59-.15a2.4,2.4,0,0,0,.52-.22l.38-.21.57-.34a.47.47,0,0,1,.13.17.54.54,0,0,1,.07.28.85.85,0,0,1-.2.51,4.47,4.47,0,0,1-1.71,1.4,5.12,5.12,0,0,1-2.77.59,5.59,5.59,0,0,1-4-2,6,6,0,0,1-1.5-4.41,6.39,6.39,0,0,1,1.86-4.43A5.35,5.35,0,0,1,304,102.36Zm-.26,1.26a2,2,0,0,0-1.21.32,2.62,2.62,0,0,0-.85.89,5.19,5.19,0,0,0-.46,1,3.3,3.3,0,0,0-.17.81c0,.13,0,.2.15.2l4.46.25q.25,0,.27-.4a3.58,3.58,0,0,0-.54-2A2,2,0,0,0,303.72,103.62Z"/><path class="cls-1" d="M319.64,103.23q3.55.2,3.24,5.85l-.14,2.62a11.5,11.5,0,0,0,.05,2.49q0,.2.74.44a4.28,4.28,0,0,0,.94.26c.05,0,.08.14.07.41a1.56,1.56,0,0,1-.07.53c-.11,0-.59-.09-1.44-.19s-1.49-.17-1.91-.19-1.05,0-1.84,0l-1.42,0a.81.81,0,0,1-.08-.53c0-.28.06-.41.13-.41a3.24,3.24,0,0,0,.93-.16c.42-.11.65-.24.7-.36a7.92,7.92,0,0,0,.33-2l.14-2.62a6,6,0,0,0-.44-3.23,2.22,2.22,0,0,0-1.92-1,2.56,2.56,0,0,0-1.57.4,1.33,1.33,0,0,0-.72,1l-.26,4.74a11.49,11.49,0,0,0,.06,2.49q0,.2.71.44a3.94,3.94,0,0,0,.88.26c.07,0,.11.14.1.41a1.57,1.57,0,0,1-.07.54l-1.44-.19q-1.22-.15-1.85-.19t-1.92,0l-1.48,0a.81.81,0,0,1-.08-.53c0-.28.06-.41.13-.41a3.8,3.8,0,0,0,1-.15c.46-.11.71-.23.75-.36a9.07,9.07,0,0,0,.3-2l.25-4.49a2.62,2.62,0,0,0-.34-1.79,1.33,1.33,0,0,0-.6-.45,3.19,3.19,0,0,0-.65-.2c-.17,0-.26-.06-.26-.1q0-.8.18-.82a39.18,39.18,0,0,0,4.48-.58l.07,0h.15c.07,0,.13.07.18.2a.82.82,0,0,1,.07.31,9.84,9.84,0,0,0-.17,1,.22.22,0,0,0,0,.14.42.42,0,0,0,.14-.08,6.1,6.1,0,0,1,1.76-1.06A4.84,4.84,0,0,1,319.64,103.23Z"/><path class="cls-1" d="M328.5,105.65l-1.68-.09q-.19,0-.15-.73a.66.66,0,0,1,0-.25,7.77,7.77,0,0,0,2.2-1.34l.83-.77q.45-.43,1.07-1.12a1.94,1.94,0,0,1,.52.1c.16.06.24.11.24.17l-.15,2.7,2,.13,1.36.09c.15,0,.22.09.21.26a2.68,2.68,0,0,1-.34,1.2l-3.31-.18-.37,6.64a2.62,2.62,0,0,0,.38,1.71,1.58,1.58,0,0,0,1.26.65,2.61,2.61,0,0,0,.58,0,2.9,2.9,0,0,0,.5-.12l.37-.14.2-.07c.07,0,.15.07.24.26a.66.66,0,0,1,.09.36,2.54,2.54,0,0,1-1.22.83,4.35,4.35,0,0,1-2,.4,3.48,3.48,0,0,1-2.39-1.06,3.7,3.7,0,0,1-.85-2.91Z"/><path class="cls-1" d="M341.38,112.72a10.1,10.1,0,0,0,.08,2.49c0,.13.27.28.72.44a4.12,4.12,0,0,0,.93.26c.07,0,.11.14.1.41a1.56,1.56,0,0,1-.07.54l-1.47-.19q-1.28-.15-1.88-.19t-1.95,0l-1.45,0a.81.81,0,0,1-.08-.53c0-.28.06-.41.13-.41a3.94,3.94,0,0,0,1-.15q.7-.17.77-.36a9.07,9.07,0,0,0,.3-2l.25-4.49a2.61,2.61,0,0,0-.34-1.79,1.52,1.52,0,0,0-.61-.45,2.9,2.9,0,0,0-.65-.2c-.18,0-.27-.06-.27-.1,0-.53.1-.8.21-.82a21.08,21.08,0,0,0,2.25-.21,21.39,21.39,0,0,0,2.2-.37l.22,0c.09,0,.16.07.21.21a.51.51,0,0,1,0,.31,23.81,23.81,0,0,0-.35,2.36ZM339.15,101a1.68,1.68,0,0,1-.43-1.24,1.7,1.7,0,0,1,1.8-1.6,1.66,1.66,0,0,1,1.19.56,1.63,1.63,0,0,1,.43,1.23,1.68,1.68,0,0,1-.56,1.19,1.7,1.7,0,0,1-2.42-.13Z"/><path class="cls-1" d="M354.49,105.15a3,3,0,0,1,1.76.64,3.24,3.24,0,0,1,1,1.45,6.52,6.52,0,0,1,2.09-1.27,6.18,6.18,0,0,1,2.62-.41,3.13,3.13,0,0,1,1.67.53,3,3,0,0,1,1,1.29,6.46,6.46,0,0,1,.48,1.74,10.5,10.5,0,0,1,.07,2l-.16,2.89a11.49,11.49,0,0,0,.06,2.49c0,.13.27.28.72.44a4,4,0,0,0,.92.26c.06,0,.08.14.07.41a1.6,1.6,0,0,1-.07.54l-1.44-.19q-1.25-.15-1.88-.19t-1.89,0l-1.48,0a1,1,0,0,1-.05-.53c0-.28.05-.41.11-.41a3.67,3.67,0,0,0,1-.15c.45-.11.7-.23.74-.36a8.52,8.52,0,0,0,.3-1.92l.16-2.81q.22-4-2.34-4.14a2.51,2.51,0,0,0-1.54.36,1.73,1.73,0,0,0-.76.81c0,.06,0,.13,0,.22a.53.53,0,0,0,0,.22,13.51,13.51,0,0,1,0,1.71l-.16,2.92a10.84,10.84,0,0,0,.06,2.38c0,.13.27.28.72.44a4.11,4.11,0,0,0,.92.26c.06,0,.08.14.07.4a1.57,1.57,0,0,1-.07.54l-1.44-.19q-1.25-.15-1.88-.19t-1.89,0l-1.48,0a1,1,0,0,1-.05-.53c0-.28.05-.41.11-.41a3.72,3.72,0,0,0,1-.15c.45-.11.7-.23.74-.36a9,9,0,0,0,.3-2l.15-2.65a5.86,5.86,0,0,0-.46-3.15,2.1,2.1,0,0,0-1.82-1.07,2.65,2.65,0,0,0-1.54.38,1.31,1.31,0,0,0-.75,1l-.26,4.74a10.1,10.1,0,0,0,.08,2.49q0,.2.69.44a3.75,3.75,0,0,0,.9.26c.07,0,.11.14.1.41a1.57,1.57,0,0,1-.07.53l-1.44-.19q-1.22-.15-1.85-.19t-1.93,0l-1.47,0a.82.82,0,0,1-.08-.53c0-.28.06-.41.13-.41a4,4,0,0,0,1-.15c.47-.11.72-.23.77-.36a9.14,9.14,0,0,0,.3-2l.25-4.49a2.62,2.62,0,0,0-.34-1.79,1.32,1.32,0,0,0-.6-.45,3,3,0,0,0-.67-.2c-.18,0-.27-.06-.27-.1,0-.53.1-.8.21-.82a38.28,38.28,0,0,0,4.45-.58l.09,0h.14c.09,0,.16.07.21.21a.51.51,0,0,1,0,.31,9.46,9.46,0,0,0-.17,1c0,.07,0,.12,0,.14a.41.41,0,0,0,.14-.08,6.12,6.12,0,0,1,1.76-1.06A4.84,4.84,0,0,1,354.49,105.15Z"/><path class="cls-1" d="M374.67,106.27a5.1,5.1,0,0,1,2.29.64,4.37,4.37,0,0,1,1.53,1.38,6.41,6.41,0,0,1,.79,1.67,4.74,4.74,0,0,1,.21,1.63c0,.4-.11.65-.25.75a1.56,1.56,0,0,1-.85.11l-6.59-.37c-.13,0-.2,0-.2.15a5.36,5.36,0,0,0,.25,1.95,3.79,3.79,0,0,0,1.14,1.69,3.24,3.24,0,0,0,2,.8,7.56,7.56,0,0,0,.8,0,4.11,4.11,0,0,0,.72-.1l.59-.15a2.38,2.38,0,0,0,.52-.22l.39-.21.57-.34a.47.47,0,0,1,.13.17.54.54,0,0,1,.07.28.85.85,0,0,1-.2.51,4.5,4.5,0,0,1-1.71,1.4,5.12,5.12,0,0,1-2.77.59,5.59,5.59,0,0,1-4-2,6,6,0,0,1-1.5-4.41,6.39,6.39,0,0,1,1.86-4.43A5.35,5.35,0,0,1,374.67,106.27Zm-.26,1.26a2,2,0,0,0-1.21.32,2.63,2.63,0,0,0-.85.89,5.31,5.31,0,0,0-.46,1,3.3,3.3,0,0,0-.17.81c0,.13,0,.2.15.2l4.46.25q.25,0,.27-.4a3.58,3.58,0,0,0-.54-2A2,2,0,0,0,374.4,107.53Z"/><path class="cls-1" d="M390.32,107.14q3.56.2,3.24,5.85l-.14,2.62a11.5,11.5,0,0,0,.05,2.49q0,.2.73.44a4.29,4.29,0,0,0,.94.26c.06,0,.08.14.07.4a1.57,1.57,0,0,1-.07.54q-.16,0-1.44-.19t-1.91-.19q-.66,0-1.84,0l-1.42,0a.81.81,0,0,1-.08-.53c0-.28.06-.41.13-.41a3.25,3.25,0,0,0,.93-.16q.63-.17.7-.36a8,8,0,0,0,.33-2l.14-2.62a6,6,0,0,0-.44-3.23,2.21,2.21,0,0,0-1.92-1,2.55,2.55,0,0,0-1.57.4,1.33,1.33,0,0,0-.72,1l-.26,4.74a11.57,11.57,0,0,0,.05,2.49q0,.2.71.44a4,4,0,0,0,.88.26c.07,0,.11.14.1.41a1.57,1.57,0,0,1-.07.54l-1.44-.19q-1.22-.15-1.85-.19t-1.92,0l-1.48,0a.81.81,0,0,1-.08-.53c0-.28.06-.41.13-.41a3.81,3.81,0,0,0,1-.15c.46-.11.71-.23.75-.36a9.14,9.14,0,0,0,.3-2l.25-4.49a2.62,2.62,0,0,0-.34-1.79,1.33,1.33,0,0,0-.6-.45,3.23,3.23,0,0,0-.65-.2c-.17,0-.26-.06-.26-.1q0-.8.18-.82a39.15,39.15,0,0,0,4.48-.58l.07,0h.15c.07,0,.13.07.18.2a.84.84,0,0,1,.06.31c-.1.51-.16.84-.16,1s0,.12,0,.14a.39.39,0,0,0,.14-.07,6.12,6.12,0,0,1,1.76-1.06A4.84,4.84,0,0,1,390.32,107.14Z"/><path class="cls-1" d="M399.18,109.56l-1.68-.09q-.19,0-.15-.73a.68.68,0,0,1,0-.25,7.74,7.74,0,0,0,2.2-1.34l.83-.77q.45-.43,1.07-1.12a1.94,1.94,0,0,1,.52.1c.16.05.24.11.24.17l-.15,2.7,2,.13,1.36.09c.15,0,.22.09.21.26a2.69,2.69,0,0,1-.34,1.2l-3.31-.18-.37,6.64a2.63,2.63,0,0,0,.38,1.71,1.58,1.58,0,0,0,1.26.65,2.55,2.55,0,0,0,.58,0,2.88,2.88,0,0,0,.5-.12l.37-.14.2-.07c.07,0,.15.07.23.26a.66.66,0,0,1,.09.36,2.53,2.53,0,0,1-1.22.83,4.36,4.36,0,0,1-2,.4,3.48,3.48,0,0,1-2.39-1.06,3.69,3.69,0,0,1-.85-2.91Z"/><path class="cls-1" d="M410.31,117.61a1.8,1.8,0,0,1,.46,1.33,1.84,1.84,0,0,1-.61,1.28,1.71,1.71,0,0,1-1.31.49,1.78,1.78,0,0,1-1.29-.64,1.82,1.82,0,0,1-.48-1.34,1.78,1.78,0,0,1,.62-1.26,1.8,1.8,0,0,1,1.35-.48A1.73,1.73,0,0,1,410.31,117.61Z"/></svg>