<svg id="Layer_1" data-name="Layer 1" xmlns="http://www.w3.org/2000/svg" viewBox="0 0 633.81 120.71"><defs><style>.cls-1{fill:#fff;}</style></defs><title>title</title><path class="cls-1" d="M.65,4.71A4.35,4.35,0,0,1,2.51,1.28,6,6,0,0,1,6.48,0,9.76,9.76,0,0,1,7.83.14a16.28,16.28,0,0,1,1.6.4l1.41.4A24.65,24.65,0,0,1,11,5.2a.3.3,0,0,1-.34.24c-.5,0-.76-.11-.79-.28A4.84,4.84,0,0,0,8.79,2.63a3.13,3.13,0,0,0-2.44-1.3,2.54,2.54,0,0,0-2,.65,2.7,2.7,0,0,0-.75,1.9,3.12,3.12,0,0,0,.07.79,1.94,1.94,0,0,0,.36.75L4.51,6a3.27,3.27,0,0,0,.67.62l.67.52q.17.15.81.57a8.59,8.59,0,0,0,.77.48,10.56,10.56,0,0,0,.9.63c.5.32.84.55,1,.7s.48.39.86.74a4,4,0,0,1,.81,1,5.66,5.66,0,0,1,.44,1.13,4.67,4.67,0,0,1,.17,1.46,4.49,4.49,0,0,1-1.91,3.58,6.38,6.38,0,0,1-4.18,1.28,25.69,25.69,0,0,1-5-1,23.59,23.59,0,0,1-.36-2.51,18.27,18.27,0,0,1-.13-2c0-.15.17-.21.45-.2q.72,0,.79.25a5.31,5.31,0,0,0,.35,1.1,8.1,8.1,0,0,0,.71,1.3,3.64,3.64,0,0,0,1.25,1.15,3.89,3.89,0,0,0,1.82.49,3.09,3.09,0,0,0,2.18-.69,3,3,0,0,0,.94-2.29,2.42,2.42,0,0,0-.15-.92A3.27,3.27,0,0,0,8,12.68,4.06,4.06,0,0,0,7.3,12c-.29-.25-.54-.44-.74-.58l-.88-.57-.82-.51a1.84,1.84,0,0,0-.29-.23L3.38,9.28a12.91,12.91,0,0,1-1-.85,5.47,5.47,0,0,1-.94-1A5.19,5.19,0,0,1,.85,6.2,4.14,4.14,0,0,1,.65,4.71Z"/><path class="cls-1" d="M21.18,6.81a5.59,5.59,0,0,1,3.11,1,5.78,5.78,0,0,1,2.52,5,6.45,6.45,0,0,1-6.72,6.32,6.39,6.39,0,0,1-1.95-.46c-.07,0-.12.12-.12.38L17.95,21a10,10,0,0,0,.13,2.49q0,.22.72.45a4.2,4.2,0,0,0,.94.24c.05,0,.08.14.08.4a2.53,2.53,0,0,1,0,.51l-1.47-.14q-1.28-.13-1.89-.15t-1.95,0l-1.48,0a1,1,0,0,1-.06-.51c0-.27,0-.4.1-.4a3.84,3.84,0,0,0,1-.17c.46-.12.71-.25.77-.4a10.05,10.05,0,0,0,.24-2l.39-10.53A2.69,2.69,0,0,0,15.08,9a1.24,1.24,0,0,0-.59-.42,3.23,3.23,0,0,0-.66-.18c-.18,0-.27-.06-.27-.09,0-.53.08-.81.2-.82a21.16,21.16,0,0,0,4.14-.62l.53-.12c.07,0,.1.2.09.58a1.54,1.54,0,0,1-.07.33,5.47,5.47,0,0,1,1.25-.6A4,4,0,0,1,21.18,6.81Zm-.72,1.44a2.09,2.09,0,0,0-1.5.47,1.82,1.82,0,0,0-.62,1.38l-.21,5.68a1.7,1.7,0,0,0,.69,1.47,2.68,2.68,0,0,0,1.58.6,2.59,2.59,0,0,0,2.18-1.08,5.33,5.33,0,0,0,1-3.22,7.12,7.12,0,0,0-.75-3.74A2.72,2.72,0,0,0,20.46,8.25Z"/><path class="cls-1" d="M34.48,7.28a5.11,5.11,0,0,1,2.3.6,4.38,4.38,0,0,1,1.55,1.35,6.49,6.49,0,0,1,.82,1.66,4.76,4.76,0,0,1,.24,1.63c0,.4-.09.65-.24.75a1.56,1.56,0,0,1-.85.12l-6.59-.24c-.13,0-.2,0-.2.16a5.34,5.34,0,0,0,.29,1.94A3.79,3.79,0,0,0,33,16.91a3.25,3.25,0,0,0,2.06.77,7.49,7.49,0,0,0,.8,0,4,4,0,0,0,.72-.11l.58-.16a2.35,2.35,0,0,0,.52-.23l.38-.22.56-.35a.47.47,0,0,1,.13.17.53.53,0,0,1,.07.28.85.85,0,0,1-.18.52A4.5,4.5,0,0,1,36.94,19a5.13,5.13,0,0,1-2.76.64,5.59,5.59,0,0,1-4.07-1.93,6,6,0,0,1-1.58-4.38,6.39,6.39,0,0,1,1.78-4.46A5.35,5.35,0,0,1,34.48,7.28Zm-.24,1.26a2,2,0,0,0-1.2.34,2.62,2.62,0,0,0-.83.91,5.43,5.43,0,0,0-.44,1,3.34,3.34,0,0,0-.15.81q0,.19.16.2l4.47.16c.17,0,.25-.13.26-.4a3.57,3.57,0,0,0-.58-2A2,2,0,0,0,34.24,8.54Z"/><path class="cls-1" d="M46.92,7.73a3.39,3.39,0,0,1,2.53,1,4.41,4.41,0,0,1,.74,3.11L50,17.26a1.25,1.25,0,0,0,.22.85.83.83,0,0,0,.65.31,1.72,1.72,0,0,0,1-.32c.11,0,.16.14.15.31a1.63,1.63,0,0,1-.2.82,6.91,6.91,0,0,1-1.13.65,2.9,2.9,0,0,1-1.34.31,2,2,0,0,1-1.22-.51,2.27,2.27,0,0,1-.76-1l-.21.17c-.12.1-.29.22-.51.35a8,8,0,0,1-.73.42,4.4,4.4,0,0,1-1,.34,4,4,0,0,1-1.1.11,3.3,3.3,0,0,1-2.22-.84,2.62,2.62,0,0,1-.79-2.11,2.54,2.54,0,0,1,.36-1.23,3.31,3.31,0,0,1,.79-.92,5.64,5.64,0,0,1,1.21-.69,11.29,11.29,0,0,1,1.3-.49l1.39-.38L47.06,13a.43.43,0,0,0,.26-.43l.06-1.52A2.36,2.36,0,0,0,47,9.56,1.44,1.44,0,0,0,45.82,9a1.68,1.68,0,0,0-1.31.46A2.06,2.06,0,0,0,44,10.86a.89.89,0,0,1-.44.8,1.73,1.73,0,0,1-.95.23,1.55,1.55,0,0,1-1.41-.71q0-1.32,1.9-2.42A6.93,6.93,0,0,1,46.92,7.73ZM45.29,18.28a2.15,2.15,0,0,0,1.3-.34,1.1,1.1,0,0,0,.57-.86l.1-2.81q-.2.07-.82.25c-.42.11-.74.21-1,.3a7.8,7.8,0,0,0-.79.36,1.66,1.66,0,0,0-.67.58,1.52,1.52,0,0,0-.23.77,1.7,1.7,0,0,0,.39,1.31A1.59,1.59,0,0,0,45.29,18.28Z"/><path class="cls-1" d="M65.33,10.26q-.56.31-1.8,1.18a19.65,19.65,0,0,0-2.26,1.85q.77.88,1.93,2.31t1.93,2.33A12.83,12.83,0,0,0,66.2,19.1a3.52,3.52,0,0,0,1,.59,3.41,3.41,0,0,0,.92.25c.07,0,.1.16.09.47a1.56,1.56,0,0,1,0,.38L65,20.55H63.92l-1.19,0-1,0a.75.75,0,0,1-.09-.5c0-.26.05-.38.13-.38a2,2,0,0,0,.64-.1c.24-.07.36-.16.37-.25s0-.06,0-.06l-3.86-4.64-.33.07-.06,1.71a11.21,11.21,0,0,0,.13,2.49c0,.13.28.27.73.43a4,4,0,0,0,1,.24c.05,0,.08.14.08.4a1.57,1.57,0,0,1-.06.54l-1.46-.16q-1.27-.13-1.9-.15t-1.92,0l-1.48.06a.81.81,0,0,1-.09-.53c0-.28.05-.41.13-.41a3.81,3.81,0,0,0,1-.17c.46-.12.7-.25.75-.37a9.06,9.06,0,0,0,.27-2L56,5.36a11,11,0,0,0-.07-1.88Q55.83,3,54.53,3h-.25q-.17,0-.15-.45t.18-.44q.86-.05,1.64-.16c.52-.07.95-.15,1.29-.23s.64-.16.89-.24l.8-.25H59c.07,0,.15.06.21.16a.74.74,0,0,1,.13.29,8.89,8.89,0,0,0-.43,2.58l-.34,9.21a2.47,2.47,0,0,0,.84-.27q.6-.5,1.29-1l1-.78c.21-.16.42-.33.63-.51a2.45,2.45,0,0,0,.42-.44.66.66,0,0,0,.11-.33q0-.3-.61-.4a2.72,2.72,0,0,1-.62-.12,1.24,1.24,0,0,1-.07-.49c0-.19,0-.3.12-.31l2.68.1q.74,0,2.93,0a.44.44,0,0,1,.13.31,1.25,1.25,0,0,1,0,.41c0,.13-.08.19-.13.19A3.63,3.63,0,0,0,65.33,10.26Z"/><path class="cls-1" d="M75.2,17.06a10.14,10.14,0,0,0,.13,2.49c0,.13.27.27.73.43a4,4,0,0,0,.93.24c.07,0,.11.14.11.4a1.61,1.61,0,0,1-.06.54L75.57,21q-1.28-.13-1.89-.15t-1.95,0l-1.45.06a.81.81,0,0,1-.09-.53q0-.41.13-.41a4,4,0,0,0,1-.17c.46-.12.72-.24.76-.37a9,9,0,0,0,.27-2l.17-4.49a2.62,2.62,0,0,0-.38-1.78,1.54,1.54,0,0,0-.62-.44,2.88,2.88,0,0,0-.66-.19c-.18,0-.27-.06-.27-.09q0-.8.2-.82A21.12,21.12,0,0,0,73,9.36a21.6,21.6,0,0,0,2.2-.42l.22,0c.09,0,.16.07.21.2a.5.5,0,0,1,0,.31,23.61,23.61,0,0,0-.31,2.36ZM72.76,5.41a1.68,1.68,0,0,1-.45-1.23,1.71,1.71,0,0,1,3.42.13,1.68,1.68,0,0,1-.54,1.19,1.7,1.7,0,0,1-2.43-.09Z"/><path class="cls-1" d="M88.17,9.25q3.56.13,3.35,5.78l-.1,2.62a11.64,11.64,0,0,0,.1,2.49q0,.19.75.43a4.28,4.28,0,0,0,.94.24c.06,0,.08.14.08.4a1.56,1.56,0,0,1-.06.54c-.11,0-.59-.08-1.44-.16s-1.49-.14-1.91-.15-1.05,0-1.84,0l-1.42.06a.81.81,0,0,1-.09-.53q0-.41.13-.41a3.26,3.26,0,0,0,.93-.17c.42-.12.65-.25.69-.37a7.9,7.9,0,0,0,.29-2l.1-2.62a6,6,0,0,0-.5-3.22,2.22,2.22,0,0,0-1.94-1,2.56,2.56,0,0,0-1.56.43,1.33,1.33,0,0,0-.7,1l-.17,4.74a11.54,11.54,0,0,0,.1,2.49c0,.13.27.27.72.43a3.94,3.94,0,0,0,.89.24c.07,0,.11.14.11.4a1.56,1.56,0,0,1-.06.54l-1.44-.16q-1.22-.13-1.86-.15t-1.92,0l-1.48.06a.81.81,0,0,1-.09-.53c0-.28.05-.41.13-.41a3.84,3.84,0,0,0,1-.17c.45-.12.7-.25.75-.37a9,9,0,0,0,.27-2l.17-4.5a2.63,2.63,0,0,0-.38-1.78,1.34,1.34,0,0,0-.61-.44,3.11,3.11,0,0,0-.66-.19c-.17,0-.26-.06-.26-.09,0-.53.08-.81.17-.82a39.12,39.12,0,0,0,4.47-.66l.07,0H84c.07,0,.13.07.19.2a.82.82,0,0,1,.07.31,9.46,9.46,0,0,0-.15,1,.21.21,0,0,0,0,.14.42.42,0,0,0,.14-.08A6.09,6.09,0,0,1,86,9.67,4.83,4.83,0,0,1,88.17,9.25Z"/><path class="cls-1" d="M100.8,9.77a8.76,8.76,0,0,1,2.28.44,8.53,8.53,0,0,0,2.19.44l1.57.06s.1.12.18.37a1.69,1.69,0,0,1,.12.56c0,.26-.07.38-.18.38l-1.79-.07c-.07,0-.11,0-.11.08s.07.26.22.73a3.88,3.88,0,0,1,.2,1.33A4,4,0,0,1,104,17a4.72,4.72,0,0,1-3.45,1.18A11.39,11.39,0,0,1,98.84,18a1.49,1.49,0,0,0-.62.49,1.18,1.18,0,0,0-.3.67.57.57,0,0,0,.24.48,1.86,1.86,0,0,0,.8.31c.36.07.68.12.93.14l1.1.1.41,0a9.74,9.74,0,0,1,4,.91,2.17,2.17,0,0,1,1.21,2.07,4.34,4.34,0,0,1-2.12,3.51A7.55,7.55,0,0,1,99.8,28a7.17,7.17,0,0,1-3.49-.9,2.48,2.48,0,0,1-1.42-2.32,2.15,2.15,0,0,1,.84-1.52,4.57,4.57,0,0,1,1.73-1,3.16,3.16,0,0,1-1.29-.89,2,2,0,0,1-.55-1.47q0-1.18,2.13-2.38a3.66,3.66,0,0,1-1.44-1.47,4.06,4.06,0,0,1-.61-2.27,3.72,3.72,0,0,1,1.55-3A5.49,5.49,0,0,1,100.8,9.77Zm3.28,14.56q0-1-1.35-1.33A17.52,17.52,0,0,0,99,22.55l-.14,0-.14.08-.56.21a2.4,2.4,0,0,0-.45.29,1.33,1.33,0,0,0-.39.47,1.6,1.6,0,0,0-.15.66,1.93,1.93,0,0,0,1,1.69,4.29,4.29,0,0,0,2.32.75,4.16,4.16,0,0,0,2.55-.62A2.15,2.15,0,0,0,104.08,24.33ZM98.56,13.69A4.37,4.37,0,0,0,99,16a1.71,1.71,0,0,0,1.51,1,1.64,1.64,0,0,0,1.53-.73,3.65,3.65,0,0,0,.56-1.93,4.55,4.55,0,0,0-.46-2.39,1.77,1.77,0,0,0-1.57-1,1.56,1.56,0,0,0-1.49.8A4,4,0,0,0,98.56,13.69Z"/><path class="cls-1" d="M132.23,13a.8.8,0,0,0-.2-.57,1.2,1.2,0,0,0-.55-.35,5,5,0,0,0-.63-.16,3.93,3.93,0,0,0-.56-.06h-.11c-.07,0-.11-.14-.11-.42s0-.44.09-.49q.36,0,1.46.14t1.76.15q.58,0,1.48,0t1.31,0a1.76,1.76,0,0,1,0,.47c0,.28-.05.41-.12.41a3.14,3.14,0,0,0-1.1.3,1.69,1.69,0,0,0-1,.81l-4.44,9.58a1.08,1.08,0,0,1-.39.39,1,1,0,0,1-.54.16.35.35,0,0,1-.35-.21l-3.08-7.73L122,22.4a1.5,1.5,0,0,1-.33.37.84.84,0,0,1-.6.2.41.41,0,0,1-.38-.21q-.58-1.46-1.37-3.54t-1.45-3.68q-.66-1.6-1.53-3.48a1.26,1.26,0,0,0-.7-.58,2.68,2.68,0,0,0-.87-.23c-.07,0-.11-.15-.09-.45s.05-.41.13-.46.65.05,1.39.13,1.32.13,1.75.15,1,0,1.88,0l1.44,0a1.52,1.52,0,0,1,0,.5c0,.24,0,.37-.1.38a3.26,3.26,0,0,0-1,.16c-.4.11-.61.3-.61.56q0,.06,2.52,6.44.33-.76.77-1.72l.66-1.47.45-1c.15-.34.26-.6.32-.78a1.45,1.45,0,0,0,.1-.34,2,2,0,0,0-.32-1.12,1.31,1.31,0,0,0-.59-.46,2.19,2.19,0,0,0-1-.2c-.07,0-.11-.14-.1-.4s.05-.43.13-.48.66.05,1.36.13,1.28.13,1.72.15,1,0,1.8,0l1.41,0a1.32,1.32,0,0,1,0,.51c0,.27-.06.4-.11.4q-1.41-.05-1.44.91a44.16,44.16,0,0,0,2.37,6.22q.48-1.14,1.19-2.68t1-2.28A3.67,3.67,0,0,0,132.23,13Z"/><path class="cls-1" d="M142.38,19.53a10.14,10.14,0,0,0,.13,2.49c0,.13.28.27.73.43a4,4,0,0,0,.93.24c.07,0,.11.14.11.4a1.61,1.61,0,0,1-.06.54l-1.47-.17q-1.28-.13-1.89-.15t-1.95,0l-1.45.06a.81.81,0,0,1-.09-.53q0-.41.13-.41a4,4,0,0,0,1-.17c.46-.12.72-.24.76-.37a9.06,9.06,0,0,0,.27-2l.17-4.5a2.63,2.63,0,0,0-.37-1.78,1.53,1.53,0,0,0-.62-.44A2.93,2.93,0,0,0,138,13c-.18,0-.27-.06-.27-.09q0-.8.2-.82a21.31,21.31,0,0,0,2.25-.25,21.77,21.77,0,0,0,2.2-.42l.22,0c.09,0,.16.07.21.2a.5.5,0,0,1,0,.31,23.61,23.61,0,0,0-.31,2.36ZM139.94,7.89a1.68,1.68,0,0,1-.45-1.23A1.7,1.7,0,0,1,141.26,5a1.69,1.69,0,0,1,1.65,1.76A1.68,1.68,0,0,1,142.37,8a1.7,1.7,0,0,1-2.43-.09Z"/><path class="cls-1" d="M147.86,13.38l-1.68-.06c-.13,0-.18-.25-.17-.72a.67.67,0,0,1,0-.25A7.7,7.7,0,0,0,148.23,11l.82-.78c.3-.29.65-.67,1-1.14a2,2,0,0,1,.52.09q.25.08.24.16l-.1,2.7,2,.09,1.36.06c.15,0,.22.09.21.26a2.68,2.68,0,0,1-.32,1.2l-3.31-.12-.24,6.65a2.62,2.62,0,0,0,.41,1.7,1.58,1.58,0,0,0,1.27.63,2.63,2.63,0,0,0,.58,0,2.78,2.78,0,0,0,.5-.13l.36-.15.2-.08q.11,0,.24.26a.66.66,0,0,1,.1.36,2.54,2.54,0,0,1-1.21.85,4.35,4.35,0,0,1-2,.44,3.48,3.48,0,0,1-2.41-1,3.69,3.69,0,0,1-.9-2.89Z"/><path class="cls-1" d="M165.29,12.09q3.53.13,3.33,5.56l-.1,2.84a10.14,10.14,0,0,0,.13,2.49c0,.13.25.27.72.43a4.3,4.3,0,0,0,.94.24c.06,0,.08.14.08.4a2.91,2.91,0,0,1,0,.54l-1.47-.16q-1.28-.13-1.89-.15c-.46,0-1.08,0-1.87,0l-1.45.06a1,1,0,0,1-.06-.53c0-.28,0-.41.1-.41a3.26,3.26,0,0,0,1-.17c.42-.12.66-.25.72-.37a10.45,10.45,0,0,0,.24-2l.1-2.7a5.77,5.77,0,0,0-.5-3.18,2.26,2.26,0,0,0-1.94-.94,2.64,2.64,0,0,0-1.53.41,1.3,1.3,0,0,0-.73,1l-.17,4.74A10.13,10.13,0,0,0,161,22.7q0,.19.72.43a3.9,3.9,0,0,0,.92.24c.06,0,.08.14.08.4a1.6,1.6,0,0,1-.06.54l-1.44-.16Q160,24,159.33,24t-1.92,0l-1.48.06a.8.8,0,0,1-.09-.53c0-.28.05-.41.13-.41a3.83,3.83,0,0,0,1-.17c.46-.12.7-.25.75-.37a8.87,8.87,0,0,0,.27-2l.42-11.47a11,11,0,0,0-.07-1.88q-.12-.45-1.42-.49h-.25q-.17,0-.15-.45c0-.29.07-.44.18-.43q.86-.05,1.64-.16c.52-.07.95-.15,1.29-.23s.64-.16.89-.24l.8-.25h.05a.3.3,0,0,1,.21.16.75.75,0,0,1,.13.29A8.89,8.89,0,0,0,161.29,8l-.21,5.57c0,.11,0,.17.1.17s.06,0,.11-.08A5.25,5.25,0,0,1,163,12.55,5.08,5.08,0,0,1,165.29,12.09Z"/><path class="cls-1" d="M182.48,6.76l4.77.18a9.24,9.24,0,0,1,6.92,2.91,8.74,8.74,0,0,1,2.29,6.32,9.32,9.32,0,0,1-2.8,6.57,9.22,9.22,0,0,1-7.12,2.43L184.28,25q-1.69-.12-2.44-.14l-3.67,0a.71.71,0,0,1-.07-.44c0-.31,0-.47.1-.47a4.48,4.48,0,0,0,1.06-.14c.46-.1.74-.23.81-.4a10,10,0,0,0,.29-2.5l.38-10.42a8.67,8.67,0,0,0-.11-2.27c0-.21-.3-.38-.75-.53a4.42,4.42,0,0,0-1.1-.23c-.07,0-.1-.14-.09-.42a.75.75,0,0,1,.13-.49Q180.63,6.69,182.48,6.76Zm1.39,3.59-.4,10.81a4.47,4.47,0,0,0,.23,2.05q.42.46,3.35.57,5.6.21,5.89-7.85a8.93,8.93,0,0,0-1.31-5.29,4.92,4.92,0,0,0-4.21-2.31h-.14q-2.65-.1-3,.33A3,3,0,0,0,183.87,10.34Z"/><path class="cls-1" d="M204.13,13.52a3.39,3.39,0,0,1,2.53,1,4.41,4.41,0,0,1,.74,3.11l-.2,5.43a1.25,1.25,0,0,0,.22.85.83.83,0,0,0,.65.31,1.72,1.72,0,0,0,1-.32c.11,0,.16.14.15.31a1.63,1.63,0,0,1-.2.82,6.77,6.77,0,0,1-1.13.65,2.87,2.87,0,0,1-1.34.31,2,2,0,0,1-1.22-.51,2.27,2.27,0,0,1-.76-1.05l-.21.17c-.12.1-.29.21-.51.35a8.28,8.28,0,0,1-.73.42,4.46,4.46,0,0,1-1,.34,4,4,0,0,1-1.1.11,3.3,3.3,0,0,1-2.22-.84,2.62,2.62,0,0,1-.79-2.11,2.55,2.55,0,0,1,.36-1.23,3.32,3.32,0,0,1,.79-.92,5.68,5.68,0,0,1,1.21-.69,11.32,11.32,0,0,1,1.3-.49l1.39-.38,1.19-.32a.43.43,0,0,0,.26-.43l.06-1.52a2.36,2.36,0,0,0-.39-1.53,1.44,1.44,0,0,0-1.17-.59,1.67,1.67,0,0,0-1.31.46,2.07,2.07,0,0,0-.52,1.43.9.9,0,0,1-.44.8,1.72,1.72,0,0,1-.95.23A1.55,1.55,0,0,1,198.4,17q0-1.32,1.9-2.42A6.92,6.92,0,0,1,204.13,13.52ZM202.5,24.06a2.15,2.15,0,0,0,1.3-.34,1.1,1.1,0,0,0,.57-.86l.1-2.81q-.2.08-.82.25c-.42.11-.74.21-1,.3a7.8,7.8,0,0,0-.79.36,1.67,1.67,0,0,0-.67.58,1.52,1.52,0,0,0-.23.76,1.7,1.7,0,0,0,.39,1.31A1.59,1.59,0,0,0,202.5,24.06Z"/><path class="cls-1" d="M219.21,7.09a5.44,5.44,0,0,1,1.91.36,1.93,1.93,0,0,1,1,.74,3.09,3.09,0,0,1-.21,1.52,1,1,0,0,1-1,.64,1.07,1.07,0,0,1-.82-.49c-.24-.31-.49-.62-.75-.94a1.27,1.27,0,0,0-.95-.49,1.47,1.47,0,0,0-1.27.67,4.63,4.63,0,0,0-.77,1.71A11.21,11.21,0,0,0,216,13l0,1.27s0,0,.05.08a.15.15,0,0,0,.11.06l3,.11a.22.22,0,0,1,.14,0,.29.29,0,0,1,0,.17,2.83,2.83,0,0,1-.38,1.26l-2.87-.11a.15.15,0,0,0-.17.16l-.23,6.15a10.52,10.52,0,0,0,.13,2.49q0,.19.72.43a3.85,3.85,0,0,0,.92.24c.06,0,.08.14.08.4a1.61,1.61,0,0,1-.06.54c-.11,0-.59-.08-1.43-.16s-1.49-.14-1.93-.15-1.07,0-1.88,0l-1.44.06a.53.53,0,0,1-.1-.31,1.67,1.67,0,0,1,0-.43c0-.14.06-.21.12-.2a3.71,3.71,0,0,0,1-.17c.45-.12.69-.25.73-.37a9.2,9.2,0,0,0,.33-2.25l.23-6.34c0-.13,0-.2-.16-.2l-1.66-.06s-.05-.06,0-.17a1.47,1.47,0,0,1,.41-.79,1.11,1.11,0,0,1,.9-.46l.44,0a.15.15,0,0,0,.17-.16v-.28A7.52,7.52,0,0,1,215.06,9,5.16,5.16,0,0,1,219.21,7.09Z"/><path class="cls-1" d="M230,14.47q3.56.13,3.35,5.78l-.1,2.62a11.55,11.55,0,0,0,.1,2.49q0,.19.75.43a4.26,4.26,0,0,0,.94.24c.06,0,.08.14.08.4a1.56,1.56,0,0,1-.06.54c-.11,0-.59-.08-1.44-.16s-1.49-.14-1.91-.15-1.05,0-1.84,0l-1.42.06a.82.82,0,0,1-.09-.53c0-.28.05-.41.13-.41a3.26,3.26,0,0,0,.93-.17c.42-.12.65-.25.69-.37a7.9,7.9,0,0,0,.29-2l.1-2.62a6,6,0,0,0-.5-3.22,2.22,2.22,0,0,0-1.94-1,2.56,2.56,0,0,0-1.56.43,1.33,1.33,0,0,0-.7,1l-.17,4.74a11.62,11.62,0,0,0,.1,2.49c0,.13.27.27.72.43a3.88,3.88,0,0,0,.89.24c.07,0,.11.14.11.4a1.56,1.56,0,0,1-.06.54l-1.44-.16q-1.22-.13-1.86-.15t-1.92,0l-1.48.06a.81.81,0,0,1-.09-.53c0-.28.05-.41.13-.41a3.8,3.8,0,0,0,1-.17q.68-.18.75-.37a9,9,0,0,0,.27-2l.17-4.5a2.63,2.63,0,0,0-.38-1.78,1.33,1.33,0,0,0-.61-.44,3.09,3.09,0,0,0-.66-.19Q221,16,221,16c0-.53.08-.81.17-.82a39,39,0,0,0,4.47-.66l.07,0h.15c.07,0,.13.07.18.2a.82.82,0,0,1,.07.31,9.46,9.46,0,0,0-.15,1,.21.21,0,0,0,0,.14.42.42,0,0,0,.14-.08,6.14,6.14,0,0,1,1.74-1.1A4.83,4.83,0,0,1,230,14.47Z"/><path class="cls-1" d="M243.18,15a3.38,3.38,0,0,1,2.53,1,4.41,4.41,0,0,1,.74,3.11l-.2,5.43a1.25,1.25,0,0,0,.22.85.83.83,0,0,0,.65.31,1.72,1.72,0,0,0,1-.32c.11,0,.16.14.15.31a1.63,1.63,0,0,1-.2.82,6.78,6.78,0,0,1-1.13.65,2.86,2.86,0,0,1-1.34.31,2,2,0,0,1-1.23-.51,2.26,2.26,0,0,1-.76-1l-.21.17c-.12.1-.29.21-.51.35a8.28,8.28,0,0,1-.73.42,4.4,4.4,0,0,1-1,.34,4,4,0,0,1-1.1.11,3.3,3.3,0,0,1-2.22-.84,2.62,2.62,0,0,1-.79-2.12,2.55,2.55,0,0,1,.36-1.23,3.33,3.33,0,0,1,.79-.92,5.72,5.72,0,0,1,1.21-.69,11.5,11.5,0,0,1,1.3-.49l1.39-.38,1.19-.32a.43.43,0,0,0,.26-.43l.06-1.52a2.36,2.36,0,0,0-.39-1.53,1.44,1.44,0,0,0-1.17-.59,1.67,1.67,0,0,0-1.31.46,2.07,2.07,0,0,0-.52,1.43.9.9,0,0,1-.44.8,1.72,1.72,0,0,1-.95.23,1.56,1.56,0,0,1-1.41-.71q0-1.32,1.9-2.42A6.93,6.93,0,0,1,243.18,15ZM241.54,25.5a2.15,2.15,0,0,0,1.3-.34,1.1,1.1,0,0,0,.57-.86l.1-2.81c-.13.05-.41.13-.82.25s-.74.21-1,.29a7.8,7.8,0,0,0-.79.36,1.67,1.67,0,0,0-.67.58,1.51,1.51,0,0,0-.23.76,1.69,1.69,0,0,0,.39,1.31A1.58,1.58,0,0,0,241.54,25.5Z"/><path class="cls-1" d="M264,9.71a7.88,7.88,0,0,1,1.5.21,8.07,8.07,0,0,1,1.61.57,6.5,6.5,0,0,1,1.47.94,3.86,3.86,0,0,1,1,1.42,4.38,4.38,0,0,1,.34,1.95,4.71,4.71,0,0,1-1.07,2.78,5.34,5.34,0,0,1-2.41,1.79q-.22.07-.12.27a32.34,32.34,0,0,0,2.92,4.8,12,12,0,0,0,2,2.1,3.52,3.52,0,0,0,2,.92.79.79,0,0,1,.09.45,1.11,1.11,0,0,1-.13.49,5.32,5.32,0,0,1-.86,0A9.19,9.19,0,0,1,269.9,28a5.92,5.92,0,0,1-2-1.05,10.77,10.77,0,0,1-1.35-1.31A11.93,11.93,0,0,1,265.5,24q-.37-.57-.83-1.33l-.72-1.17c-.17-.27-.35-.56-.56-.86a5.39,5.39,0,0,0-.54-.68,1.41,1.41,0,0,0-.44-.32,1.74,1.74,0,0,0-.66-.11c-.29,0-.45.14-.46.45l-.14,3.89a8.62,8.62,0,0,0,.13,2.35q.07.33.9.57a5.86,5.86,0,0,0,1.22.25c.07,0,.11.16.09.47a1.53,1.53,0,0,1-.07.47q-3-.28-3.91-.31t-1.67,0l-1.48,0-.55,0a.94.94,0,0,1-.07-.5c0-.29,0-.44.1-.44a4.79,4.79,0,0,0,1.07-.14c.47-.1.75-.24.83-.4a10.89,10.89,0,0,0,.26-2.5l.38-10.42a10.76,10.76,0,0,0-.08-2.27q-.07-.22-.8-.49a4,4,0,0,0-1.05-.27c-.07,0-.1-.14-.09-.42s.05-.44.13-.49q2.92.19,3.66.22l1.92,0Zm-.49,1.36a4.53,4.53,0,0,0-1.61.13q-.31.13-.44,2.86l-.12,3.17a.77.77,0,0,0,.44.82,3.48,3.48,0,0,0,1.29.24l.72,0a2.37,2.37,0,0,0,1.87-.9,3.76,3.76,0,0,0,.9-2.48Q266.74,11.19,263.55,11.07Z"/><path class="cls-1" d="M281,16.35a5.13,5.13,0,0,1,2.3.6,4.39,4.39,0,0,1,1.55,1.35,6.51,6.51,0,0,1,.82,1.66,4.76,4.76,0,0,1,.24,1.62c0,.41-.09.66-.24.75a1.57,1.57,0,0,1-.85.12l-6.59-.24c-.13,0-.2,0-.2.16a5.35,5.35,0,0,0,.29,1.94A3.8,3.8,0,0,0,279.5,26a3.25,3.25,0,0,0,2.06.77,7.75,7.75,0,0,0,.8,0,4,4,0,0,0,.72-.11l.58-.16a2.31,2.31,0,0,0,.52-.23l.38-.22.56-.35a.47.47,0,0,1,.13.17.54.54,0,0,1,.07.28.86.86,0,0,1-.19.52,4.51,4.51,0,0,1-1.68,1.43,5.13,5.13,0,0,1-2.76.64,5.59,5.59,0,0,1-4.07-1.93,6,6,0,0,1-1.58-4.38,6.38,6.38,0,0,1,1.78-4.46A5.35,5.35,0,0,1,281,16.35Zm-.24,1.26a2,2,0,0,0-1.2.34,2.61,2.61,0,0,0-.83.91,5.43,5.43,0,0,0-.44,1,3.34,3.34,0,0,0-.15.81q0,.19.16.2l4.47.16c.17,0,.25-.13.26-.4a3.57,3.57,0,0,0-.58-2A2,2,0,0,0,280.76,17.61Z"/><path class="cls-1" d="M296.67,16.93q3.53.13,3.33,5.56l-.1,2.84a10.14,10.14,0,0,0,.13,2.49c0,.13.25.27.72.43a4.3,4.3,0,0,0,.94.24c.06,0,.08.14.08.4a2.91,2.91,0,0,1,0,.54l-1.47-.16q-1.28-.13-1.89-.15c-.46,0-1.08,0-1.87,0l-1.45.06a1,1,0,0,1-.06-.53c0-.28,0-.41.1-.41a3.26,3.26,0,0,0,1-.17c.42-.12.66-.25.72-.37a10.45,10.45,0,0,0,.24-2l.1-2.7a5.75,5.75,0,0,0-.51-3.18,2.26,2.26,0,0,0-1.94-.94,2.64,2.64,0,0,0-1.53.41,1.3,1.3,0,0,0-.73,1L292.23,25a10.13,10.13,0,0,0,.13,2.49q0,.19.72.43a3.9,3.9,0,0,0,.92.24c.06,0,.08.14.08.4a1.6,1.6,0,0,1-.06.54L292.57,29q-1.22-.13-1.86-.15t-1.92,0l-1.48.06a.8.8,0,0,1-.09-.53c0-.28.05-.41.13-.41a3.83,3.83,0,0,0,1-.17c.46-.12.7-.25.75-.37a8.81,8.81,0,0,0,.27-2L289.8,14a10.93,10.93,0,0,0-.07-1.88c-.08-.3-.55-.46-1.42-.49h-.25q-.17,0-.15-.45t.18-.44q.86-.05,1.63-.16t1.29-.23c.34-.08.64-.16.89-.24l.79-.25h.05A.3.3,0,0,1,293,10a.75.75,0,0,1,.13.29,8.89,8.89,0,0,0-.43,2.58l-.21,5.57c0,.11,0,.17.1.17s.06,0,.11-.08a5.25,5.25,0,0,1,1.74-1.14A5.08,5.08,0,0,1,296.67,16.93Z"/><path class="cls-1" d="M309.67,17.4a3.39,3.39,0,0,1,2.53,1,4.41,4.41,0,0,1,.74,3.11l-.2,5.43a1.25,1.25,0,0,0,.22.85.83.83,0,0,0,.65.31,1.72,1.72,0,0,0,1-.32c.11,0,.16.14.15.31a1.63,1.63,0,0,1-.2.82,6.78,6.78,0,0,1-1.13.65,2.86,2.86,0,0,1-1.34.31,2,2,0,0,1-1.23-.51,2.26,2.26,0,0,1-.76-1l-.21.17c-.12.1-.29.21-.51.35a8.12,8.12,0,0,1-.73.42,4.4,4.4,0,0,1-1,.34,4,4,0,0,1-1.1.11,3.3,3.3,0,0,1-2.22-.84,2.62,2.62,0,0,1-.79-2.11,2.54,2.54,0,0,1,.36-1.23,3.35,3.35,0,0,1,.79-.92,5.72,5.72,0,0,1,1.21-.69,11.5,11.5,0,0,1,1.3-.49l1.39-.38,1.19-.32a.43.43,0,0,0,.26-.43l.06-1.52a2.36,2.36,0,0,0-.39-1.53,1.44,1.44,0,0,0-1.17-.59,1.67,1.67,0,0,0-1.31.46,2.07,2.07,0,0,0-.52,1.43.9.9,0,0,1-.44.8,1.72,1.72,0,0,1-.95.23,1.56,1.56,0,0,1-1.41-.71q0-1.32,1.9-2.42A6.92,6.92,0,0,1,309.67,17.4ZM308,27.95a2.13,2.13,0,0,0,1.3-.34,1.1,1.1,0,0,0,.57-.86l.1-2.81c-.13.05-.41.13-.82.25s-.74.21-1,.29a7.52,7.52,0,0,0-.79.36,1.65,1.65,0,0,0-.67.58,1.51,1.51,0,0,0-.24.76,1.69,1.69,0,0,0,.39,1.31A1.58,1.58,0,0,0,308,27.95Z"/><path class="cls-1" d="M326.74,19.77q-.33-.76-1.9-.81c-.05,0-.08-.13-.07-.39a1,1,0,0,1,.1-.49q.39,0,1.33.13t1.57.14q.62,0,1.62,0t1.35,0a.79.79,0,0,1,.07.44c0,.29-.07.44-.18.44a3.28,3.28,0,0,0-1.08.22,1.6,1.6,0,0,0-1,.75l-5,9.57a1.85,1.85,0,0,1-.37.46.7.7,0,0,1-.48.23c-.18,0-.29-.07-.32-.18q-.51-1.26-1.38-3.49T319.55,23q-.63-1.54-1.45-3.48-.3-.78-1.76-.84c-.07,0-.11-.15-.09-.45a.63.63,0,0,1,.13-.44l1.46.14Q319,18,319.7,18t1.91,0L323,18a.89.89,0,0,1,.05.5c0,.26-.06.38-.14.38a4.15,4.15,0,0,0-1,.13c-.42.09-.63.24-.64.42a.52.52,0,0,0,0,.28l2.5,6.44,2.68-5.37Q326.92,20.08,326.74,19.77Z"/><path class="cls-1" d="M337,26.69a10.14,10.14,0,0,0,.13,2.49q0,.19.73.43a4.08,4.08,0,0,0,.93.24c.07,0,.11.14.11.4a1.6,1.6,0,0,1-.06.54l-1.47-.17q-1.28-.13-1.89-.15t-1.95,0l-1.45.06a.81.81,0,0,1-.09-.53q0-.41.13-.41a4,4,0,0,0,1-.17q.7-.18.76-.37a9,9,0,0,0,.27-2l.17-4.5a2.62,2.62,0,0,0-.37-1.78,1.53,1.53,0,0,0-.62-.44,2.89,2.89,0,0,0-.66-.19c-.18,0-.27-.06-.27-.09q0-.8.2-.82a21.43,21.43,0,0,0,2.25-.25,21.1,21.1,0,0,0,2.2-.42l.22,0c.09,0,.16.07.21.2a.5.5,0,0,1,0,.31,23.62,23.62,0,0,0-.31,2.36ZM334.51,15a1.68,1.68,0,0,1-.45-1.23,1.71,1.71,0,0,1,3.42.13,1.68,1.68,0,0,1-.54,1.19,1.7,1.7,0,0,1-2.43-.09Z"/><path class="cls-1" d="M346.7,18.77a3.39,3.39,0,0,1,2.53,1,4.41,4.41,0,0,1,.74,3.11l-.2,5.43a1.25,1.25,0,0,0,.22.85.83.83,0,0,0,.65.31,1.72,1.72,0,0,0,1-.32c.11,0,.16.14.15.31a1.63,1.63,0,0,1-.2.82,6.88,6.88,0,0,1-1.13.65,2.87,2.87,0,0,1-1.34.31,2,2,0,0,1-1.22-.51,2.26,2.26,0,0,1-.76-1l-.21.17q-.19.15-.51.35a8.29,8.29,0,0,1-.73.41,4.33,4.33,0,0,1-1,.34,4,4,0,0,1-1.09.11,3.3,3.3,0,0,1-2.22-.84,2.62,2.62,0,0,1-.79-2.12,2.54,2.54,0,0,1,.36-1.23,3.3,3.3,0,0,1,.79-.92,5.7,5.7,0,0,1,1.21-.69,11.55,11.55,0,0,1,1.3-.49l1.39-.38,1.19-.31a.44.44,0,0,0,.26-.43l.06-1.52a2.36,2.36,0,0,0-.38-1.53,1.45,1.45,0,0,0-1.17-.6,1.68,1.68,0,0,0-1.32.46,2.07,2.07,0,0,0-.52,1.43.89.89,0,0,1-.44.8,1.73,1.73,0,0,1-.95.23A1.56,1.56,0,0,1,341,22.2q0-1.32,1.9-2.42A6.94,6.94,0,0,1,346.7,18.77Zm-1.63,10.54a2.14,2.14,0,0,0,1.3-.34,1.09,1.09,0,0,0,.57-.86l.1-2.81c-.13,0-.41.13-.82.25s-.74.21-1,.3a7.7,7.7,0,0,0-.79.36,1.66,1.66,0,0,0-.67.58,1.51,1.51,0,0,0-.24.76,1.7,1.7,0,0,0,.39,1.31A1.58,1.58,0,0,0,345.07,29.31Z"/><path class="cls-1" d="M171.72,54.8a3.39,3.39,0,0,1,2.56.91,4.41,4.41,0,0,1,.85,3.08l0,5.44a1.26,1.26,0,0,0,.25.84.84.84,0,0,0,.66.29A1.73,1.73,0,0,0,177,65c.11,0,.17.14.17.3a1.65,1.65,0,0,1-.17.83,6.85,6.85,0,0,1-1.11.69,2.87,2.87,0,0,1-1.33.36,2,2,0,0,1-1.24-.47,2.26,2.26,0,0,1-.8-1l-.21.18c-.12.1-.29.22-.5.37a8.28,8.28,0,0,1-.72.44,4.39,4.39,0,0,1-.94.37,4,4,0,0,1-1.09.15,3.29,3.29,0,0,1-2.25-.77,2.62,2.62,0,0,1-.86-2.09,2.55,2.55,0,0,1,.32-1.24,3.33,3.33,0,0,1,.76-.95,5.67,5.67,0,0,1,1.19-.73,11.27,11.27,0,0,1,1.28-.53l1.38-.42L172,60.1a.43.43,0,0,0,.25-.44V58.14a2.36,2.36,0,0,0-.44-1.52,1.44,1.44,0,0,0-1.18-.55,1.67,1.67,0,0,0-1.3.51A2.07,2.07,0,0,0,168.9,58a.9.9,0,0,1-.42.81,1.71,1.71,0,0,1-.94.26,1.56,1.56,0,0,1-1.43-.67q0-1.32,1.82-2.48A6.92,6.92,0,0,1,171.72,54.8ZM170.45,65.4a2.13,2.13,0,0,0,1.28-.38,1.09,1.09,0,0,0,.54-.88V61.32c-.13.05-.4.15-.82.27s-.73.24-1,.33a7.64,7.64,0,0,0-.77.38,1.67,1.67,0,0,0-.65.61,1.5,1.5,0,0,0-.21.77,1.7,1.7,0,0,0,.44,1.3A1.59,1.59,0,0,0,170.45,65.4Z"/><path class="cls-1" d="M185.72,54.85a5.6,5.6,0,0,1,3.07.88,5.79,5.79,0,0,1,2.06,2.21,5.89,5.89,0,0,1,.69,2.77,6.3,6.3,0,0,1-1.93,4.62,6.08,6.08,0,0,1-4.43,1.9,8.68,8.68,0,0,1-2-.21,5.93,5.93,0,0,0-1.3-.21,2.09,2.09,0,0,0-.72.19,2.66,2.66,0,0,1-.55.19,1.36,1.36,0,0,1-.4-.17c-.21-.11-.32-.2-.32-.28s0-.22.06-.5.09-.67.14-1.19a15.63,15.63,0,0,0,.09-1.68l0-11.26a9.51,9.51,0,0,0-.16-1.88q-.14-.44-1.43-.45h-.25c-.11,0-.17-.15-.17-.44s.06-.44.17-.44q.86-.08,1.63-.22t1.28-.27c.34-.09.64-.18.88-.27l.79-.27H183a.3.3,0,0,1,.22.15.77.77,0,0,1,.14.29,9.57,9.57,0,0,0-.31,2.59v4.57a.83.83,0,0,0,0,.12c0,.06,0,.08.05.08l.1,0a5,5,0,0,1,1.12-.55A3.93,3.93,0,0,1,185.72,54.85Zm-.61,1.49a2.14,2.14,0,0,0-1.49.52A1.62,1.62,0,0,0,183,58.1l0,5.85a1.65,1.65,0,0,0,.73,1.46,3,3,0,0,0,1.72.5,2.34,2.34,0,0,0,2.17-1.29,6.32,6.32,0,0,0,.74-3.14,7.1,7.1,0,0,0-.84-3.76A2.7,2.7,0,0,0,185.11,56.34Z"/><path class="cls-1" d="M199.69,54.89a6.09,6.09,0,0,1,4.42,1.82,5.92,5.92,0,0,1,1.82,4.38,6.29,6.29,0,1,1-6.25-6.2Zm-.36,1.3a2.22,2.22,0,0,0-2,1.25,5.94,5.94,0,0,0-.73,3,8,8,0,0,0,.89,3.89A2.75,2.75,0,0,0,200,66a2.25,2.25,0,0,0,2-1.26,5.88,5.88,0,0,0,.74-3,9.47,9.47,0,0,0-.35-2.66A4.88,4.88,0,0,0,201.23,57,2.56,2.56,0,0,0,199.33,56.19Z"/><path class="cls-1" d="M219.78,57.93l0,5.46a6.11,6.11,0,0,0,.21,1.93.56.56,0,0,0,.32.22,2.1,2.1,0,0,0,.48.11l.46,0a.53.53,0,0,1,.24,0c.07,0,.11.1.11.25a2.11,2.11,0,0,1-.06.37c0,.17-.09.26-.17.26a6.29,6.29,0,0,0-1,.09l-1.14.19-1,.2-1.1.22c-.13,0-.19-.15-.19-.44V65.65c0-.09,0-.14-.08-.14a6.15,6.15,0,0,1-1.69,1.24,4.63,4.63,0,0,1-2.18.54,2.88,2.88,0,0,1-1.64-.47,3.33,3.33,0,0,1-1.1-1.22,5.91,5.91,0,0,1-.57-1.6,8.47,8.47,0,0,1-.17-1.74V59.17A2.62,2.62,0,0,0,209,57.4a1.52,1.52,0,0,0-.63-.42,2.85,2.85,0,0,0-.66-.17c-.18,0-.28,0-.28-.08,0-.53,0-.81.14-.83a20.7,20.7,0,0,0,2.26-.32A21.75,21.75,0,0,0,212,55.1l.11,0,.11,0c.09,0,.16.07.21.19a1,1,0,0,1,.07.3,24.36,24.36,0,0,0-.26,2.43v3.31a5.91,5.91,0,0,0,.6,3.09,2.44,2.44,0,0,0,3.45.41,1.47,1.47,0,0,0,.61-1V59.19a2.62,2.62,0,0,0-.44-1.77,1.33,1.33,0,0,0-.62-.42,3.05,3.05,0,0,0-.67-.17c-.18,0-.28,0-.28-.08q0-.8.17-.83a21.1,21.1,0,0,0,2.24-.32,21.48,21.48,0,0,0,2.18-.49l.22-.05c.09,0,.17.07.22.19a.51.51,0,0,1,.05.3Q219.78,57.44,219.78,57.93Z"/><path class="cls-1" d="M224.92,56.9h-1.68c-.13,0-.19-.24-.19-.72a.67.67,0,0,1,0-.25,7.73,7.73,0,0,0,2.13-1.46l.79-.81q.43-.45,1-1.17a1.94,1.94,0,0,1,.52.07c.17,0,.25.1.25.15v2.71l2,0,1.37,0c.15,0,.22.08.22.25a2.68,2.68,0,0,1-.28,1.21h-3.31l0,6.65a2.62,2.62,0,0,0,.46,1.68,1.58,1.58,0,0,0,1.29.58,2.61,2.61,0,0,0,.58-.07,2.91,2.91,0,0,0,.5-.15l.36-.16.19-.08c.07,0,.16.07.25.25a.66.66,0,0,1,.11.36,2.53,2.53,0,0,1-1.18.89,4.35,4.35,0,0,1-2,.51,3.48,3.48,0,0,1-2.44-.93,3.69,3.69,0,0,1-1-2.86Z"/><path class="cls-1" d="M240.91,57h-1.68c-.13,0-.19-.24-.19-.72a.67.67,0,0,1,0-.25,7.72,7.72,0,0,0,2.13-1.46l.79-.81q.43-.45,1-1.17a2,2,0,0,1,.52.07c.17,0,.25.1.25.15v2.7l2,0,1.37,0c.15,0,.22.08.22.25a2.68,2.68,0,0,1-.28,1.21h-3.31l0,6.65a2.62,2.62,0,0,0,.46,1.69,1.58,1.58,0,0,0,1.29.58,2.62,2.62,0,0,0,.58-.07,2.91,2.91,0,0,0,.5-.15l.36-.17.19-.08c.07,0,.16.06.25.25a.65.65,0,0,1,.11.36,2.54,2.54,0,0,1-1.18.89,4.36,4.36,0,0,1-2,.5,3.48,3.48,0,0,1-2.44-.93,3.7,3.7,0,0,1-1-2.86Z"/><path class="cls-1" d="M258.28,55.07q3.53,0,3.51,5.45v2.84a10.13,10.13,0,0,0,.21,2.48c0,.13.26.26.73.4a4.25,4.25,0,0,0,1,.21c.06,0,.09.13.09.4a3,3,0,0,1,0,.54l-1.48-.11q-1.28-.09-1.89-.09t-1.86.08l-1.45.11a1,1,0,0,1-.08-.53c0-.28,0-.41.08-.41a3.31,3.31,0,0,0,1-.21c.42-.14.65-.27.71-.4a10.55,10.55,0,0,0,.17-2v-2.7a5.76,5.76,0,0,0-.61-3.16,2.26,2.26,0,0,0-2-.87,2.64,2.64,0,0,0-1.52.46,1.3,1.3,0,0,0-.69,1l0,4.75a10.12,10.12,0,0,0,.21,2.48c0,.13.28.26.73.4a3.87,3.87,0,0,0,.92.21c.06,0,.09.13.09.4a1.6,1.6,0,0,1,0,.54l-1.45-.11q-1.23-.09-1.86-.09t-1.92.08l-1.48.11a.8.8,0,0,1-.11-.52c0-.28,0-.41.11-.41a3.77,3.77,0,0,0,1-.2c.45-.14.7-.27.73-.4a8.92,8.92,0,0,0,.2-2l0-11.48a10.76,10.76,0,0,0-.13-1.88c-.09-.29-.57-.44-1.43-.45h-.25c-.11,0-.17-.15-.17-.44s.06-.44.17-.44q.86-.08,1.63-.22t1.28-.27c.34-.09.64-.18.88-.27l.79-.27h.05a.3.3,0,0,1,.22.15.77.77,0,0,1,.14.29,8.86,8.86,0,0,0-.34,2.59l0,5.57c0,.11,0,.17.11.17s.05,0,.11-.08a5.27,5.27,0,0,1,1.7-1.2A5.1,5.1,0,0,1,258.28,55.07Z"/><path class="cls-1" d="M271.15,55.11a5.1,5.1,0,0,1,2.32.52,4.35,4.35,0,0,1,1.6,1.3,6.44,6.44,0,0,1,.88,1.63,4.79,4.79,0,0,1,.3,1.62c0,.41-.07.66-.21.76a1.58,1.58,0,0,1-.84.15l-6.6,0c-.13,0-.19.05-.19.16a5.37,5.37,0,0,0,.35,1.93A3.79,3.79,0,0,0,270,64.8a3.25,3.25,0,0,0,2.08.7,7.86,7.86,0,0,0,.8,0,4.2,4.2,0,0,0,.72-.14l.58-.18a2.39,2.39,0,0,0,.51-.25l.37-.23.55-.37a.47.47,0,0,1,.14.17.53.53,0,0,1,.08.28.84.84,0,0,1-.17.52A4.5,4.5,0,0,1,274,66.74a5.14,5.14,0,0,1-2.74.74,5.59,5.59,0,0,1-4.13-1.79,6,6,0,0,1-1.73-4.32A6.39,6.39,0,0,1,267,56.84,5.35,5.35,0,0,1,271.15,55.11Zm-.2,1.27a2,2,0,0,0-1.19.38,2.61,2.61,0,0,0-.8.94,5.22,5.22,0,0,0-.4,1,3.33,3.33,0,0,0-.13.81c0,.13.05.19.16.19h4.47c.17,0,.25-.14.25-.41a3.58,3.58,0,0,0-.64-2A2,2,0,0,0,271,56.38Z"/><path class="cls-1" d="M288.63,63.39a11.26,11.26,0,0,0,.19,2.48c0,.13.26.27.67.43a3,3,0,0,0,.84.24c.05,0,.09.13.09.39a1.49,1.49,0,0,1,0,.52l-1-.07-1.17-.07-1,0c-.35,0-.7,0-1,0l-1.16.07-1,.07a.77.77,0,0,1-.11-.51c0-.27,0-.4.11-.4a2.91,2.91,0,0,0,.92-.23c.42-.16.64-.3.68-.42a9.12,9.12,0,0,0,.23-2l0-11.48a9.58,9.58,0,0,0-.16-1.88q-.14-.44-1.38-.45H284c-.11,0-.17-.11-.17-.33s.06-.44.17-.44c.57-.05,1.11-.12,1.63-.22s.94-.18,1.28-.27l.88-.26.59-.21.19-.08h.05c.07,0,.15.06.23.17a.86.86,0,0,1,.15.28,8.71,8.71,0,0,0-.34,2.59Z"/><path class="cls-1" d="M298.52,55.2A6.08,6.08,0,0,1,302.94,57a5.91,5.91,0,0,1,1.82,4.38,6.25,6.25,0,0,1-12.5,0A5.94,5.94,0,0,1,294.08,57,6,6,0,0,1,298.52,55.2Zm-.36,1.3a2.22,2.22,0,0,0-2,1.25,5.94,5.94,0,0,0-.73,3,8,8,0,0,0,.89,3.89,2.75,2.75,0,0,0,2.49,1.66,2.25,2.25,0,0,0,2-1.26,5.88,5.88,0,0,0,.74-3,9.48,9.48,0,0,0-.35-2.66,4.87,4.87,0,0,0-1.15-2.06A2.56,2.56,0,0,0,298.15,56.49Z"/><path class="cls-1" d="M311.05,55.21a11.78,11.78,0,0,1,3.2.48,15.7,15.7,0,0,1,.29,3.09c0,.15-.12.22-.36.22q-.61,0-.66-.22a3.35,3.35,0,0,0-.81-1.64,2.16,2.16,0,0,0-1.67-.68,2,2,0,0,0-1.26.36,1.22,1.22,0,0,0-.46,1,1.61,1.61,0,0,0,.15.7,1.73,1.73,0,0,0,.5.6,6.81,6.81,0,0,0,.61.44c.17.11.44.26.79.44a1.67,1.67,0,0,0,.28.14l.41.22.46.25.44.26a4.94,4.94,0,0,1,.48.32l.43.33a2.17,2.17,0,0,1,.41.39l.33.43a1.76,1.76,0,0,1,.29.5,5.3,5.3,0,0,1,.15.52,2.62,2.62,0,0,1,.07.59,3.25,3.25,0,0,1-1.35,2.74,5.23,5.23,0,0,1-3.25,1,9.23,9.23,0,0,1-3.56-.78,11.14,11.14,0,0,1-.27-1.53,13.63,13.63,0,0,1-.13-1.59.59.59,0,0,1,.39-.14q.63,0,.66.22a3.06,3.06,0,0,0,1.08,1.87,3,3,0,0,0,1.89.71,2,2,0,0,0,1.27-.38,1.35,1.35,0,0,0,.5-1.13,1.85,1.85,0,0,0-.07-.51A1.36,1.36,0,0,0,312,64l-.32-.39a2,2,0,0,0-.5-.37l-.55-.32-.69-.36-.7-.37a6.46,6.46,0,0,1-2-1.48,3.19,3.19,0,0,1,.65-4.57A5.32,5.32,0,0,1,311.05,55.21Z"/><path class="cls-1" d="M321.43,55.24a11.7,11.7,0,0,1,3.2.48,15.69,15.69,0,0,1,.29,3.09c0,.15-.12.22-.36.22-.4,0-.62-.07-.66-.22a3.36,3.36,0,0,0-.81-1.64,2.16,2.16,0,0,0-1.67-.68,2,2,0,0,0-1.26.35,1.22,1.22,0,0,0-.46,1,1.63,1.63,0,0,0,.15.71,1.74,1.74,0,0,0,.5.59,6.44,6.44,0,0,0,.61.44c.17.11.44.26.79.44l.28.14.41.22.46.25.44.26a5.09,5.09,0,0,1,.48.32l.43.33a2.17,2.17,0,0,1,.41.39l.33.43a1.74,1.74,0,0,1,.29.5,5.38,5.38,0,0,1,.15.52,2.62,2.62,0,0,1,.07.59,3.25,3.25,0,0,1-1.35,2.74,5.24,5.24,0,0,1-3.25,1,9.21,9.21,0,0,1-3.56-.78,11.14,11.14,0,0,1-.27-1.53,13.57,13.57,0,0,1-.13-1.59.58.58,0,0,1,.39-.14q.63,0,.66.22a3.05,3.05,0,0,0,1.08,1.87,2.94,2.94,0,0,0,1.89.71,2,2,0,0,0,1.27-.38,1.35,1.35,0,0,0,.5-1.13,1.84,1.84,0,0,0-.07-.51,1.37,1.37,0,0,0-.26-.47l-.32-.39a2,2,0,0,0-.5-.37l-.55-.32-.69-.36-.7-.37a6.43,6.43,0,0,1-2-1.48,3.19,3.19,0,0,1,.65-4.56A5.32,5.32,0,0,1,321.43,55.24Z"/><path class="cls-1" d="M350.66,57.46a.8.8,0,0,0-.22-.57,1.2,1.2,0,0,0-.57-.33,5,5,0,0,0-.63-.14,4,4,0,0,0-.56,0h-.11c-.07,0-.12-.14-.12-.41s0-.44.07-.5c.24,0,.73,0,1.46.09s1.33.09,1.77.09.88,0,1.48-.08,1-.08,1.31-.08a1.72,1.72,0,0,1,.05.47c0,.28,0,.41-.11.41a3.14,3.14,0,0,0-1.09.34,1.69,1.69,0,0,0-1,.84l-4.11,9.73a1.09,1.09,0,0,1-.37.4,1,1,0,0,1-.54.18.35.35,0,0,1-.36-.2L343.7,60l-3,7.19a1.5,1.5,0,0,1-.32.39.83.83,0,0,1-.59.22.41.41,0,0,1-.39-.19q-.63-1.44-1.49-3.5t-1.58-3.63q-.71-1.58-1.64-3.43a1.27,1.27,0,0,0-.72-.55,2.66,2.66,0,0,0-.88-.2c-.07,0-.11-.15-.11-.44s0-.41.11-.47.65,0,1.39.09,1.33.09,1.75.09,1,0,1.88-.08l1.43-.08a1.49,1.49,0,0,1,.05.5c0,.24,0,.37-.08.38a3.31,3.31,0,0,0-1,.19c-.4.13-.59.32-.6.58q0,.06,2.74,6.36.31-.77.71-1.75l.61-1.49.42-1c.14-.35.24-.61.29-.79a1.5,1.5,0,0,0,.08-.34,2,2,0,0,0-.36-1.1,1.31,1.31,0,0,0-.61-.44,2.19,2.19,0,0,0-1-.17c-.07,0-.11-.13-.11-.4s0-.43.11-.48.66,0,1.37.09,1.28.09,1.72.09,1,0,1.79-.08l1.41-.08a1.32,1.32,0,0,1,0,.51c0,.27,0,.4-.1.4q-1.41,0-1.41,1a44.31,44.31,0,0,0,2.58,6.13q.44-1.16,1.1-2.71t1-2.32A3.66,3.66,0,0,0,350.66,57.46Z"/><path class="cls-1" d="M361,63.67a10.13,10.13,0,0,0,.21,2.48c0,.13.28.26.74.4a4,4,0,0,0,.94.21c.07,0,.11.13.12.4a1.57,1.57,0,0,1,0,.54l-1.48-.12q-1.28-.09-1.89-.09t-1.95.08l-1.45.11a.81.81,0,0,1-.11-.53c0-.28,0-.41.11-.41a4,4,0,0,0,1-.2q.69-.21.75-.4a9.13,9.13,0,0,0,.2-2v-4.5a2.63,2.63,0,0,0-.44-1.77,1.54,1.54,0,0,0-.63-.42,2.9,2.9,0,0,0-.66-.17c-.18,0-.28,0-.28-.08q0-.8.17-.83A21.1,21.1,0,0,0,358.6,56a21.48,21.48,0,0,0,2.18-.49l.22-.05c.09,0,.17.07.22.19a.52.52,0,0,1,.05.3q-.23,1.77-.23,2.37Zm-2.83-11.56a1.68,1.68,0,0,1-.49-1.22,1.71,1.71,0,0,1,3.42,0,1.68,1.68,0,0,1-.5,1.21,1.7,1.7,0,0,1-2.43,0Z"/><path class="cls-1" d="M366.3,57.34h-1.68c-.13,0-.19-.24-.19-.72a.67.67,0,0,1,0-.25,7.73,7.73,0,0,0,2.13-1.46l.79-.81q.43-.45,1-1.17a1.94,1.94,0,0,1,.52.07c.17,0,.25.1.25.15v2.71l2,0,1.37,0c.15,0,.22.08.22.25a2.68,2.68,0,0,1-.28,1.21h-3.31l0,6.65a2.62,2.62,0,0,0,.46,1.68,1.58,1.58,0,0,0,1.29.58,2.61,2.61,0,0,0,.58-.07,2.91,2.91,0,0,0,.5-.15l.36-.16.19-.08c.07,0,.16.07.25.25a.66.66,0,0,1,.11.36,2.53,2.53,0,0,1-1.18.89,4.35,4.35,0,0,1-2,.51,3.48,3.48,0,0,1-2.44-.93,3.69,3.69,0,0,1-1-2.86Z"/><path class="cls-1" d="M383.67,55.46q3.53,0,3.51,5.45v2.84a10.12,10.12,0,0,0,.21,2.48c0,.13.26.26.73.4a4.29,4.29,0,0,0,1,.21c.06,0,.09.13.09.4a3,3,0,0,1,0,.54l-1.48-.12q-1.28-.09-1.89-.09t-1.86.08l-1.45.11a1,1,0,0,1-.08-.52c0-.28,0-.41.08-.41a3.29,3.29,0,0,0,1-.2c.42-.14.65-.27.71-.4a10.55,10.55,0,0,0,.17-2V61.51a5.77,5.77,0,0,0-.61-3.16,2.27,2.27,0,0,0-2-.87,2.64,2.64,0,0,0-1.52.46,1.3,1.3,0,0,0-.69,1l0,4.75a10.13,10.13,0,0,0,.21,2.48c0,.13.28.26.73.4a4,4,0,0,0,.92.21c.06,0,.09.13.09.4a1.61,1.61,0,0,1,0,.54L380,67.65q-1.23-.09-1.86-.09t-1.92.08l-1.48.11a.8.8,0,0,1-.11-.52c0-.28,0-.41.11-.41a3.9,3.9,0,0,0,1-.2c.45-.14.7-.27.73-.4a8.94,8.94,0,0,0,.2-2l0-11.48a10.78,10.78,0,0,0-.13-1.88c-.09-.29-.57-.44-1.43-.45h-.25c-.11,0-.17-.15-.17-.44s.06-.44.17-.44q.86-.08,1.63-.21T377.8,49c.34-.09.64-.18.88-.27l.79-.27h.05a.29.29,0,0,1,.22.15.77.77,0,0,1,.14.29,8.86,8.86,0,0,0-.34,2.59l0,5.57c0,.11,0,.17.11.17s.05,0,.11-.08a5.23,5.23,0,0,1,1.7-1.2A5.09,5.09,0,0,1,383.67,55.46Z"/><path class="cls-1" d="M395.76,63.78a10.14,10.14,0,0,0,.21,2.48c0,.13.28.26.74.4a4.06,4.06,0,0,0,.94.21c.07,0,.11.13.12.4a1.58,1.58,0,0,1,0,.54l-1.48-.12q-1.28-.09-1.89-.09t-1.95.08l-1.45.11a.81.81,0,0,1-.11-.53c0-.28,0-.41.11-.41a4,4,0,0,0,1-.21c.46-.14.71-.27.75-.4a9.13,9.13,0,0,0,.2-2v-4.5A2.62,2.62,0,0,0,392.5,58a1.52,1.52,0,0,0-.63-.42,2.85,2.85,0,0,0-.66-.17c-.18,0-.28,0-.28-.08,0-.53.06-.81.17-.83a21,21,0,0,0,2.24-.32,21.75,21.75,0,0,0,2.18-.49l.22-.05c.09,0,.17.07.22.19a.52.52,0,0,1,.05.3q-.23,1.77-.23,2.37Zm-2.83-11.56a1.68,1.68,0,0,1-.49-1.21,1.71,1.71,0,0,1,3.42,0,1.68,1.68,0,0,1-.5,1.21,1.7,1.7,0,0,1-2.43,0Z"/><path class="cls-1" d="M408.46,55.54q3.56,0,3.54,5.67v2.62a11.54,11.54,0,0,0,.19,2.48c0,.13.29.26.76.4a4.25,4.25,0,0,0,1,.21c.06,0,.09.13.09.4a1.58,1.58,0,0,1,0,.54c-.11,0-.59-.06-1.45-.11s-1.49-.09-1.92-.09-1.05,0-1.83.08l-1.42.11a.81.81,0,0,1-.11-.53c0-.28,0-.41.11-.41a3.31,3.31,0,0,0,.92-.21c.42-.14.64-.27.68-.4a8,8,0,0,0,.23-2V61.67a6,6,0,0,0-.61-3.2,2.22,2.22,0,0,0-2-.92A2.55,2.55,0,0,0,405,58a1.33,1.33,0,0,0-.67,1l0,4.75a11.52,11.52,0,0,0,.19,2.48c0,.13.28.26.73.4a3.94,3.94,0,0,0,.9.21c.07,0,.11.13.12.4a1.58,1.58,0,0,1,0,.54l-1.45-.11q-1.23-.09-1.86-.09t-1.92.08l-1.48.11a.81.81,0,0,1-.11-.52c0-.28,0-.41.11-.41a3.78,3.78,0,0,0,1-.2q.68-.21.73-.4a9.13,9.13,0,0,0,.2-2v-4.5a2.63,2.63,0,0,0-.44-1.77,1.34,1.34,0,0,0-.62-.42,3.14,3.14,0,0,0-.66-.17c-.17,0-.26,0-.26-.08,0-.53,0-.81.14-.83a38.93,38.93,0,0,0,4.45-.81l.07,0h.15c.07,0,.14.07.19.19a.84.84,0,0,1,.08.3,9.31,9.31,0,0,0-.11,1,.21.21,0,0,0,0,.14.42.42,0,0,0,.14-.08,6.11,6.11,0,0,1,1.7-1.15A4.83,4.83,0,0,1,408.46,55.54Z"/><path class="cls-1" d="M430.91,55.61a3,3,0,0,1,1.79.54,3.24,3.24,0,0,1,1.1,1.4,6.53,6.53,0,0,1,2-1.37,6.18,6.18,0,0,1,2.6-.54,3.12,3.12,0,0,1,1.7.45,3,3,0,0,1,1.1,1.23,6.47,6.47,0,0,1,.57,1.71,10.57,10.57,0,0,1,.17,2v2.9a11.52,11.52,0,0,0,.19,2.48c0,.13.28.26.74.4a4.1,4.1,0,0,0,.94.21c.06,0,.09.13.09.4a1.6,1.6,0,0,1,0,.54l-1.45-.12q-1.26-.08-1.89-.09t-1.89.08l-1.48.11a1,1,0,0,1-.08-.52c0-.28,0-.41.08-.41a3.71,3.71,0,0,0,1-.2c.44-.14.68-.27.72-.4a8.64,8.64,0,0,0,.2-1.93V61.65q0-4-2.55-4a2.51,2.51,0,0,0-1.52.44,1.72,1.72,0,0,0-.72.85c0,.05,0,.13,0,.22a.52.52,0,0,0,0,.22,13.24,13.24,0,0,1,.08,1.71V64a10.82,10.82,0,0,0,.19,2.37c0,.13.28.26.74.4a4.1,4.1,0,0,0,.94.21c.06,0,.09.13.09.4a1.58,1.58,0,0,1,0,.54l-1.45-.12q-1.26-.08-1.89-.09t-1.89.08l-1.48.11a1,1,0,0,1-.08-.52c0-.28,0-.41.08-.41a3.71,3.71,0,0,0,1-.2c.44-.14.68-.27.72-.4a9.07,9.07,0,0,0,.2-2V61.71a5.85,5.85,0,0,0-.62-3.12,2.1,2.1,0,0,0-1.87-1,2.64,2.64,0,0,0-1.52.46,1.3,1.3,0,0,0-.69,1l0,4.75a10.12,10.12,0,0,0,.21,2.48c0,.13.28.26.72.4a3.83,3.83,0,0,0,.91.21c.07,0,.11.13.12.4a1.58,1.58,0,0,1,0,.54l-1.45-.12q-1.23-.08-1.86-.09t-1.93.08l-1.46.11a.81.81,0,0,1-.11-.52c0-.28,0-.41.11-.41a4,4,0,0,0,1-.2q.69-.21.75-.4a9.13,9.13,0,0,0,.2-2v-4.5a2.62,2.62,0,0,0-.44-1.77,1.33,1.33,0,0,0-.62-.42,3.12,3.12,0,0,0-.67-.17c-.18,0-.28,0-.28-.08q0-.8.17-.83a38.23,38.23,0,0,0,4.42-.81l.08,0h.14c.09,0,.17.06.22.19a.52.52,0,0,1,.05.3,9,9,0,0,0-.11,1c0,.07,0,.12.05.14a.42.42,0,0,0,.14-.08,6.07,6.07,0,0,1,1.7-1.15A4.83,4.83,0,0,1,430.91,55.61Z"/><path class="cls-1" d="M450.35,63.95a10.13,10.13,0,0,0,.21,2.48c0,.13.28.26.74.4a4.06,4.06,0,0,0,.94.21c.07,0,.11.13.12.4a1.57,1.57,0,0,1,0,.54l-1.48-.11q-1.28-.09-1.89-.09t-1.95.08l-1.45.11a.81.81,0,0,1-.11-.53c0-.28,0-.41.11-.41a4,4,0,0,0,1-.2q.69-.21.75-.4a9.12,9.12,0,0,0,.2-2v-4.5a2.62,2.62,0,0,0-.44-1.77,1.52,1.52,0,0,0-.63-.42,2.85,2.85,0,0,0-.66-.17c-.18,0-.28,0-.28-.08q0-.8.17-.83a21.1,21.1,0,0,0,2.24-.32,21.48,21.48,0,0,0,2.18-.49l.22-.05c.09,0,.17.07.22.2a.51.51,0,0,1,.05.3q-.23,1.77-.23,2.37Zm-2.83-11.56a1.68,1.68,0,0,1-.49-1.22,1.71,1.71,0,0,1,3.42,0,1.68,1.68,0,0,1-.5,1.21,1.7,1.7,0,0,1-2.43,0Z"/><path class="cls-1" d="M459.29,55.75a8.71,8.71,0,0,1,2.29.37,8.51,8.51,0,0,0,2.21.37h1.57s.1.12.19.36a1.69,1.69,0,0,1,.14.55c0,.26-.06.39-.17.39h-1.79c-.07,0-.11,0-.11.08s.08.26.25.72a3.89,3.89,0,0,1,.24,1.33,4,4,0,0,1-1.37,2.93,4.73,4.73,0,0,1-3.41,1.3,11.4,11.4,0,0,1-1.71-.12,1.48,1.48,0,0,0-.61.51,1.18,1.18,0,0,0-.28.67.57.57,0,0,0,.26.47,1.85,1.85,0,0,0,.81.28c.37.06.68.09.94.11l1.1.06h.41a9.73,9.73,0,0,1,4,.77,2.17,2.17,0,0,1,1.28,2,4.34,4.34,0,0,1-2,3.58A7.54,7.54,0,0,1,458.9,74a7.18,7.18,0,0,1-3.52-.78,2.48,2.48,0,0,1-1.5-2.27,2.15,2.15,0,0,1,.79-1.54,4.56,4.56,0,0,1,1.7-1,3.17,3.17,0,0,1-1.32-.85,2,2,0,0,1-.6-1.45q0-1.19,2-2.45A3.65,3.65,0,0,1,455,62.21a4.05,4.05,0,0,1-.68-2.25,3.73,3.73,0,0,1,1.44-3.09A5.49,5.49,0,0,1,459.29,55.75Zm3.76,14.44q0-1-1.39-1.29a17.57,17.57,0,0,0-3.74-.33l-.14,0-.14.08-.55.23a2.37,2.37,0,0,0-.44.3,1.34,1.34,0,0,0-.37.48,1.61,1.61,0,0,0-.13.66,1.93,1.93,0,0,0,1,1.66,4.29,4.29,0,0,0,2.34.67,4.17,4.17,0,0,0,2.53-.71A2.16,2.16,0,0,0,463.06,70.2Zm-5.87-10.45a4.37,4.37,0,0,0,.54,2.28,1.71,1.71,0,0,0,1.54.93,1.64,1.64,0,0,0,1.51-.78,3.65,3.65,0,0,0,.49-1.94,4.54,4.54,0,0,0-.54-2.37,1.76,1.76,0,0,0-1.6-.92,1.56,1.56,0,0,0-1.47.85A4,4,0,0,0,457.18,59.75Z"/><path class="cls-1" d="M475.55,55.75a2.75,2.75,0,0,1,2.26.92q0,2.35-1.33,2.34a1.64,1.64,0,0,1-1.07-.56,1.72,1.72,0,0,0-1.18-.56,1.48,1.48,0,0,0-1.34.87,3.67,3.67,0,0,0-.49,1.81V64a11.52,11.52,0,0,0,.19,2.48c0,.13.28.26.73.4a3.9,3.9,0,0,0,.92.21c.06,0,.09.13.09.4a2.84,2.84,0,0,1,0,.54l-1.46-.11q-1.24-.09-1.88-.09t-1.92.08l-1.48.11a.81.81,0,0,1-.11-.53c0-.28,0-.41.11-.41a3.89,3.89,0,0,0,1-.21q.68-.21.73-.4a9.13,9.13,0,0,0,.2-2V60a2.62,2.62,0,0,0-.44-1.77,1.33,1.33,0,0,0-.62-.42,3.08,3.08,0,0,0-.66-.17c-.17,0-.26,0-.26-.08q0-.8.14-.83a38.93,38.93,0,0,0,4.45-.81l.22-.05c.07,0,.14.07.19.19a.67.67,0,0,1,.07.32c0,.08,0,.21,0,.39s0,.36-.07.55a3.42,3.42,0,0,0,0,.37,5.07,5.07,0,0,1,1.36-1.33A3,3,0,0,1,475.55,55.75Z"/><path class="cls-1" d="M485.41,55.78a3.39,3.39,0,0,1,2.56.9,4.41,4.41,0,0,1,.85,3.08l0,5.44A1.27,1.27,0,0,0,489,66a.83.83,0,0,0,.66.29,1.73,1.73,0,0,0,.94-.36c.11,0,.17.14.17.3a1.65,1.65,0,0,1-.17.83,6.71,6.71,0,0,1-1.11.69,2.86,2.86,0,0,1-1.33.36,2,2,0,0,1-1.24-.47,2.26,2.26,0,0,1-.8-1l-.21.18q-.18.15-.5.37a7.83,7.83,0,0,1-.72.44,4.44,4.44,0,0,1-.94.37,4,4,0,0,1-1.09.15,3.29,3.29,0,0,1-2.25-.77,2.62,2.62,0,0,1-.86-2.09,2.55,2.55,0,0,1,.32-1.24,3.32,3.32,0,0,1,.76-.95,5.67,5.67,0,0,1,1.19-.73,11.25,11.25,0,0,1,1.28-.53l1.38-.42,1.17-.36a.43.43,0,0,0,.25-.44V59.12a2.36,2.36,0,0,0-.44-1.52,1.44,1.44,0,0,0-1.18-.56,1.68,1.68,0,0,0-1.3.51,2.07,2.07,0,0,0-.47,1.45.9.9,0,0,1-.42.81,1.7,1.7,0,0,1-.94.26,1.56,1.56,0,0,1-1.43-.67q0-1.32,1.82-2.48A6.91,6.91,0,0,1,485.41,55.78Zm-1.27,10.59a2.14,2.14,0,0,0,1.28-.38,1.09,1.09,0,0,0,.54-.88V62.29c-.13.05-.4.15-.82.27s-.73.24-1,.33a7.47,7.47,0,0,0-.77.38,1.66,1.66,0,0,0-.65.61,1.5,1.5,0,0,0-.21.77A1.7,1.7,0,0,0,483,66,1.58,1.58,0,0,0,484.14,66.37Z"/><path class="cls-1" d="M494,57.74h-1.68c-.13,0-.19-.24-.19-.72a.67.67,0,0,1,0-.25,7.75,7.75,0,0,0,2.13-1.46l.79-.81q.43-.45,1-1.17a2,2,0,0,1,.52.07c.17,0,.25.1.25.15v2.71l2,0,1.37,0c.15,0,.22.08.22.25a2.68,2.68,0,0,1-.28,1.21h-3.31l0,6.65a2.62,2.62,0,0,0,.46,1.68,1.58,1.58,0,0,0,1.29.58,2.61,2.61,0,0,0,.58-.07,2.91,2.91,0,0,0,.5-.15l.36-.16.19-.08c.07,0,.16.06.25.25a.66.66,0,0,1,.11.36,2.54,2.54,0,0,1-1.18.89,4.34,4.34,0,0,1-2,.5,3.49,3.49,0,0,1-2.44-.93,3.69,3.69,0,0,1-1-2.86Z"/><path class="cls-1" d="M507.2,64.13a10.12,10.12,0,0,0,.21,2.48c0,.13.28.26.74.4a4.1,4.1,0,0,0,.94.21c.07,0,.11.13.12.4a1.57,1.57,0,0,1,0,.54L507.7,68q-1.28-.08-1.89-.09t-1.95.08l-1.45.11a.81.81,0,0,1-.11-.52c0-.28,0-.41.11-.41a4,4,0,0,0,1-.2q.69-.21.75-.4a9.13,9.13,0,0,0,.2-2v-4.5a2.62,2.62,0,0,0-.44-1.77,1.52,1.52,0,0,0-.63-.42,2.91,2.91,0,0,0-.66-.17c-.18,0-.28,0-.28-.08q0-.8.17-.83a21.36,21.36,0,0,0,2.24-.32,22,22,0,0,0,2.18-.49l.22-.05c.09,0,.17.06.22.19a.52.52,0,0,1,.05.3,23.81,23.81,0,0,0-.23,2.37Zm-2.83-11.56a1.68,1.68,0,0,1-.49-1.22,1.71,1.71,0,0,1,3.42,0,1.68,1.68,0,0,1-.5,1.21,1.7,1.7,0,0,1-2.43,0Z"/><path class="cls-1" d="M517.11,55.88a6.08,6.08,0,0,1,4.42,1.82,5.91,5.91,0,0,1,1.82,4.38,6.29,6.29,0,1,1-6.25-6.2Zm-.36,1.3a2.22,2.22,0,0,0-2,1.25,5.94,5.94,0,0,0-.73,3,8,8,0,0,0,.89,3.89A2.75,2.75,0,0,0,517.38,67a2.25,2.25,0,0,0,2-1.26,5.88,5.88,0,0,0,.74-3,9.47,9.47,0,0,0-.35-2.66A4.87,4.87,0,0,0,518.65,58,2.56,2.56,0,0,0,516.75,57.17Z"/><path class="cls-1" d="M534.17,55.93q3.56,0,3.54,5.67v2.62a11.54,11.54,0,0,0,.19,2.48c0,.13.29.26.76.4a4.25,4.25,0,0,0,1,.21c.06,0,.09.13.09.4a1.58,1.58,0,0,1,0,.54l-1.45-.11q-1.28-.09-1.92-.09t-1.83.08l-1.42.11a.8.8,0,0,1-.11-.52c0-.28,0-.41.11-.41a3.31,3.31,0,0,0,.92-.21c.42-.14.64-.27.68-.4a8,8,0,0,0,.23-2V62.06a6,6,0,0,0-.61-3.2,2.22,2.22,0,0,0-2-.92,2.55,2.55,0,0,0-1.55.48,1.32,1.32,0,0,0-.67,1l0,4.75a11.53,11.53,0,0,0,.19,2.48c0,.13.28.26.73.4a3.94,3.94,0,0,0,.9.21c.07,0,.11.13.12.4a1.57,1.57,0,0,1,0,.54l-1.45-.11q-1.23-.09-1.86-.09t-1.92.08l-1.48.11a.81.81,0,0,1-.11-.53c0-.28,0-.41.11-.41a3.83,3.83,0,0,0,1-.2q.68-.21.73-.4a9.13,9.13,0,0,0,.2-2v-4.5a2.63,2.63,0,0,0-.44-1.77,1.34,1.34,0,0,0-.62-.42,3.14,3.14,0,0,0-.66-.17c-.17,0-.26,0-.26-.08q0-.8.14-.83a38.93,38.93,0,0,0,4.45-.81l.07,0H530c.07,0,.14.07.19.19a.85.85,0,0,1,.08.3,9.31,9.31,0,0,0-.11,1,.21.21,0,0,0,0,.14.42.42,0,0,0,.14-.08,6.11,6.11,0,0,1,1.7-1.15A4.83,4.83,0,0,1,534.17,55.93Z"/><path class="cls-1" d="M229.33,85.89a3.39,3.39,0,0,1,2.51,1,4.42,4.42,0,0,1,.68,3.12l-.3,5.43a1.26,1.26,0,0,0,.2.85.83.83,0,0,0,.65.33,1.72,1.72,0,0,0,1-.31c.11,0,.16.15.15.31a1.64,1.64,0,0,1-.21.82,6.82,6.82,0,0,1-1.14.63,2.87,2.87,0,0,1-1.34.29,2,2,0,0,1-1.21-.54,2.26,2.26,0,0,1-.74-1.06l-.22.17c-.13.09-.3.21-.52.35s-.47.27-.74.4a4.41,4.41,0,0,1-1,.32,4,4,0,0,1-1.1.09,3.3,3.3,0,0,1-2.2-.88A2.62,2.62,0,0,1,223,95.1a2.54,2.54,0,0,1,.38-1.22,3.32,3.32,0,0,1,.81-.91,5.76,5.76,0,0,1,1.22-.66,11.62,11.62,0,0,1,1.31-.47l1.4-.35,1.19-.29a.43.43,0,0,0,.27-.43l.08-1.52a2.37,2.37,0,0,0-.36-1.54,1.44,1.44,0,0,0-1.15-.62,1.67,1.67,0,0,0-1.32.44,2.07,2.07,0,0,0-.55,1.42.89.89,0,0,1-.46.79,1.72,1.72,0,0,1-1,.21,1.55,1.55,0,0,1-1.4-.74q.07-1.32,1.94-2.38A6.92,6.92,0,0,1,229.33,85.89ZM227.51,96.4a2.14,2.14,0,0,0,1.3-.32,1.09,1.09,0,0,0,.59-.85l.16-2.81q-.2.07-.83.23c-.42.11-.74.2-1,.28a7.69,7.69,0,0,0-.79.34,1.66,1.66,0,0,0-.68.57,1.52,1.52,0,0,0-.25.76,1.7,1.7,0,0,0,.37,1.32A1.58,1.58,0,0,0,227.51,96.4Z"/><path class="cls-1" d="M245.29,86.77q3.55.2,3.24,5.84l-.14,2.62a11.51,11.51,0,0,0,.05,2.49c0,.13.27.28.74.44a4.2,4.2,0,0,0,.94.26c.06,0,.08.14.07.41a1.57,1.57,0,0,1-.07.54l-1.44-.19q-1.28-.15-1.91-.19t-1.84,0l-1.42,0a.81.81,0,0,1-.08-.53c0-.28.06-.41.13-.41a3.28,3.28,0,0,0,.93-.16q.63-.17.7-.36a7.92,7.92,0,0,0,.33-2l.14-2.62a6,6,0,0,0-.44-3.23,2.22,2.22,0,0,0-1.92-1,2.56,2.56,0,0,0-1.57.4,1.33,1.33,0,0,0-.72,1l-.26,4.74a11.49,11.49,0,0,0,.06,2.49c0,.13.26.28.71.44a4,4,0,0,0,.88.26c.07,0,.11.14.1.41a1.57,1.57,0,0,1-.07.54L241,98.75q-1.22-.15-1.85-.19t-1.92,0l-1.48,0a.81.81,0,0,1-.08-.53c0-.28.06-.41.13-.41a3.81,3.81,0,0,0,1-.15c.46-.11.71-.23.75-.36a9.05,9.05,0,0,0,.3-2l.25-4.49a2.62,2.62,0,0,0-.34-1.79,1.33,1.33,0,0,0-.6-.45,3.15,3.15,0,0,0-.65-.2c-.17,0-.26-.06-.26-.1,0-.53.09-.81.18-.82a39,39,0,0,0,4.48-.58l.07,0h.15c.07,0,.13.07.18.2a.83.83,0,0,1,.07.31,9.79,9.79,0,0,0-.17,1c0,.07,0,.12,0,.14a.4.4,0,0,0,.14-.08,6.1,6.1,0,0,1,1.76-1.06A4.82,4.82,0,0,1,245.29,86.77Z"/><path class="cls-1" d="M258.86,87.47a4.75,4.75,0,0,1,2,.5c.09,0,.15-.14.16-.43l.14-2.59a9.64,9.64,0,0,0-.06-1.88q-.11-.45-1.41-.52h-.22c-.11,0-.16-.16-.14-.45s.08-.44.19-.43q.83,0,1.62-.13t1.31-.2c.35-.07.64-.15.9-.23l.58-.18.22-.06h.05c.07,0,.14.06.21.16a.5.5,0,0,1,.09.29,10.61,10.61,0,0,0-.42,2.58L263.42,96a10.16,10.16,0,0,0,.05,2,.41.41,0,0,0,.26.32,1.65,1.65,0,0,0,.52.17l.52.07.27,0a.57.57,0,0,1,0,.33c0,.37-.09.55-.2.54s-.59,0-1,.06l-1.17.11-1.08.13-1.16.17c-.11,0-.16-.17-.14-.48l0-.47a.13.13,0,0,0,0-.11.05.05,0,0,0-.07,0,4.61,4.61,0,0,1-2.92.86,5.34,5.34,0,0,1-3.79-1.85,5.58,5.58,0,0,1-1.43-4.21,6.47,6.47,0,0,1,2.15-4.57A6,6,0,0,1,258.86,87.47Zm-.32,1.31a2.42,2.42,0,0,0-2.27,1.12,6.46,6.46,0,0,0-.93,3.29,6.66,6.66,0,0,0,.65,3.7,2.71,2.71,0,0,0,2.33,1.44,2.29,2.29,0,0,0,1.54-.4,1.53,1.53,0,0,0,.65-1.19l.32-5.79a1.88,1.88,0,0,0-.06-.58,2.54,2.54,0,0,0-.29-.67,1.77,1.77,0,0,0-.71-.62A3,3,0,0,0,258.54,88.78Z"/><path class="cls-1" d="M282.32,88.82q3.53.2,3.23,5.62l-.16,2.84a10.1,10.1,0,0,0,.08,2.49c0,.13.25.28.71.44a4.16,4.16,0,0,0,.94.26c.06,0,.08.14.07.41a3,3,0,0,1,0,.54l-1.47-.19q-1.28-.15-1.88-.19t-1.86,0l-1.45,0a1,1,0,0,1-.05-.53c0-.28.05-.41.11-.41a3.25,3.25,0,0,0,1-.15q.63-.17.73-.36a10.47,10.47,0,0,0,.28-2l.15-2.7a5.77,5.77,0,0,0-.45-3.19,2.26,2.26,0,0,0-1.92-1,2.65,2.65,0,0,0-1.54.38,1.31,1.31,0,0,0-.75,1l-.26,4.74a10.1,10.1,0,0,0,.08,2.49c0,.13.26.28.71.44a3.88,3.88,0,0,0,.91.26c.06,0,.08.14.07.41a1.59,1.59,0,0,1-.07.53L278,100.8q-1.22-.15-1.85-.19t-1.92,0l-1.48,0a.81.81,0,0,1-.08-.53c0-.28.06-.41.13-.41a3.79,3.79,0,0,0,1-.15c.46-.11.71-.23.75-.36a8.81,8.81,0,0,0,.3-2l.63-11.46a10.92,10.92,0,0,0,0-1.88q-.11-.45-1.41-.52h-.25c-.11,0-.16-.16-.14-.45s.08-.44.19-.43q.86,0,1.64-.13t1.3-.2c.34-.07.64-.15.9-.23l.8-.23h.05c.07,0,.14.06.21.16a.78.78,0,0,1,.12.3,8.94,8.94,0,0,0-.47,2.57l-.31,5.57c0,.11,0,.17.1.17s.06,0,.11-.08a5.26,5.26,0,0,1,1.76-1.1A5.08,5.08,0,0,1,282.32,88.82Z"/><path class="cls-1" d="M295.16,89.53a5.12,5.12,0,0,1,2.29.64A4.36,4.36,0,0,1,299,91.55a6.43,6.43,0,0,1,.79,1.67,4.74,4.74,0,0,1,.21,1.63q0,.61-.25.75a1.56,1.56,0,0,1-.85.11l-6.58-.36c-.13,0-.2,0-.2.15a5.37,5.37,0,0,0,.25,1.95,3.79,3.79,0,0,0,1.14,1.69,3.25,3.25,0,0,0,2,.8,7.57,7.57,0,0,0,.8,0,4.12,4.12,0,0,0,.72-.1l.59-.15a2.31,2.31,0,0,0,.52-.22l.38-.21.57-.34a.47.47,0,0,1,.13.17.53.53,0,0,1,.07.28.86.86,0,0,1-.19.51,4.49,4.49,0,0,1-1.71,1.4,5.12,5.12,0,0,1-2.77.59,5.59,5.59,0,0,1-4-2,6,6,0,0,1-1.5-4.41A6.39,6.39,0,0,1,291,91,5.35,5.35,0,0,1,295.16,89.53Zm-.26,1.26a2,2,0,0,0-1.21.32,2.62,2.62,0,0,0-.85.89,5.25,5.25,0,0,0-.46,1,3.36,3.36,0,0,0-.17.81c0,.13,0,.2.16.2l4.46.25q.25,0,.27-.4a3.58,3.58,0,0,0-.54-2A2,2,0,0,0,294.9,90.79Z"/><path class="cls-1" d="M309.89,90.35a2.75,2.75,0,0,1,2.21,1q-.13,2.34-1.45,2.27a1.64,1.64,0,0,1-1-.61,1.73,1.73,0,0,0-1.15-.62,1.48,1.48,0,0,0-1.38.79,3.66,3.66,0,0,0-.58,1.78l-.19,3.44a11.49,11.49,0,0,0,.06,2.49q0,.2.71.44a3.87,3.87,0,0,0,.91.26c.05,0,.08.14.07.41a2.8,2.8,0,0,1,0,.54l-1.45-.19q-1.24-.15-1.87-.19t-1.92,0l-1.48,0a.81.81,0,0,1-.08-.53c0-.28.06-.41.13-.41a3.81,3.81,0,0,0,1-.15c.46-.11.71-.23.75-.36a9.05,9.05,0,0,0,.3-2l.25-4.49a2.63,2.63,0,0,0-.34-1.79,1.34,1.34,0,0,0-.6-.45,3.18,3.18,0,0,0-.65-.2c-.17,0-.26-.06-.26-.1,0-.53.09-.81.18-.82a39,39,0,0,0,4.48-.58l.22,0c.07,0,.13.07.18.2a.68.68,0,0,1,.05.32l-.06.38c0,.17-.06.36-.1.55a3.52,3.52,0,0,0-.06.37,5.08,5.08,0,0,1,1.42-1.26A3,3,0,0,1,309.89,90.35Z"/><path class="cls-1" d="M325.77,91.23a3.38,3.38,0,0,1,2.51,1,4.41,4.41,0,0,1,.68,3.12l-.3,5.43a1.26,1.26,0,0,0,.2.85.83.83,0,0,0,.65.33,1.71,1.71,0,0,0,1-.31c.11,0,.16.15.15.31a1.65,1.65,0,0,1-.21.82,6.89,6.89,0,0,1-1.14.63,2.87,2.87,0,0,1-1.34.28,2,2,0,0,1-1.21-.54,2.26,2.26,0,0,1-.74-1.06l-.22.17c-.13.09-.3.21-.52.34a8.29,8.29,0,0,1-.74.4,4.47,4.47,0,0,1-1,.32,4,4,0,0,1-1.1.09,3.3,3.3,0,0,1-2.2-.88,2.63,2.63,0,0,1-.75-2.13,2.55,2.55,0,0,1,.38-1.22,3.31,3.31,0,0,1,.81-.91,5.68,5.68,0,0,1,1.22-.67,11.4,11.4,0,0,1,1.31-.47l1.4-.35,1.19-.29a.43.43,0,0,0,.27-.43l.08-1.52a2.36,2.36,0,0,0-.36-1.54,1.44,1.44,0,0,0-1.15-.62,1.67,1.67,0,0,0-1.32.44,2.07,2.07,0,0,0-.55,1.42.89.89,0,0,1-.46.79,1.72,1.72,0,0,1-1,.21,1.56,1.56,0,0,1-1.4-.74q.07-1.32,1.94-2.38A6.92,6.92,0,0,1,325.77,91.23Zm-1.83,10.51a2.15,2.15,0,0,0,1.3-.31,1.09,1.09,0,0,0,.59-.85l.16-2.81c-.13,0-.41.13-.83.23s-.74.2-1,.28a7.31,7.31,0,0,0-.79.34,1.65,1.65,0,0,0-.68.57,1.51,1.51,0,0,0-.25.76,1.7,1.7,0,0,0,.37,1.32A1.58,1.58,0,0,0,323.94,101.74Z"/><path class="cls-1" d="M341.73,92.11q3.55.2,3.24,5.85l-.14,2.62a11.51,11.51,0,0,0,.05,2.49c0,.13.27.28.74.44a4.2,4.2,0,0,0,.94.26c.06,0,.08.14.07.41a1.57,1.57,0,0,1-.07.54c-.11,0-.59-.09-1.44-.19s-1.49-.17-1.91-.19-1.05,0-1.84,0l-1.42,0a.81.81,0,0,1-.08-.53c0-.28.06-.41.13-.41a3.29,3.29,0,0,0,.93-.16c.42-.11.65-.24.7-.36a7.92,7.92,0,0,0,.33-2l.14-2.62a6,6,0,0,0-.44-3.23,2.21,2.21,0,0,0-1.92-1,2.55,2.55,0,0,0-1.57.4,1.33,1.33,0,0,0-.72,1l-.26,4.74a11.5,11.5,0,0,0,.06,2.49c0,.13.26.28.71.44a3.92,3.92,0,0,0,.88.26c.07,0,.11.14.1.41a1.57,1.57,0,0,1-.07.54l-1.44-.19c-.81-.1-1.43-.16-1.85-.19s-1.08,0-1.92,0l-1.48,0a.81.81,0,0,1-.08-.53c0-.28.06-.41.13-.41a3.85,3.85,0,0,0,1-.15c.46-.11.71-.23.75-.36a9.06,9.06,0,0,0,.3-2l.25-4.49a2.62,2.62,0,0,0-.34-1.79,1.33,1.33,0,0,0-.6-.45,3.19,3.19,0,0,0-.65-.2c-.17,0-.26-.06-.26-.1,0-.53.09-.8.18-.82a39.33,39.33,0,0,0,4.48-.58l.07,0h.15c.07,0,.13.07.18.2a.82.82,0,0,1,.07.31,9.74,9.74,0,0,0-.17,1,.22.22,0,0,0,0,.14.4.4,0,0,0,.14-.07,6.1,6.1,0,0,1,1.76-1.06A4.83,4.83,0,0,1,341.73,92.11Z"/><path class="cls-1" d="M350.58,94.53l-1.68-.09q-.19,0-.15-.73a.69.69,0,0,1,0-.25,7.75,7.75,0,0,0,2.2-1.34l.83-.77q.45-.43,1.07-1.12a2,2,0,0,1,.52.1c.16.05.24.11.24.16l-.15,2.7,2,.12,1.36.09c.15,0,.22.1.21.26a2.67,2.67,0,0,1-.34,1.2l-3.31-.18-.37,6.64a2.62,2.62,0,0,0,.38,1.71,1.57,1.57,0,0,0,1.26.65,2.62,2.62,0,0,0,.58,0,3,3,0,0,0,.5-.12l.37-.15.2-.07c.07,0,.15.07.24.26a.66.66,0,0,1,.09.36,2.52,2.52,0,0,1-1.22.83,4.34,4.34,0,0,1-2,.4,3.48,3.48,0,0,1-2.39-1.06,3.7,3.7,0,0,1-.85-2.91Z"/><path class="cls-1" d="M363.47,101.6a10.09,10.09,0,0,0,.08,2.49c0,.13.27.28.72.44a4,4,0,0,0,.93.26c.07,0,.11.14.1.41a1.56,1.56,0,0,1-.07.53l-1.47-.19q-1.28-.15-1.88-.19t-1.95,0l-1.45,0a.82.82,0,0,1-.08-.53c0-.28.06-.41.13-.41a4,4,0,0,0,1-.15c.47-.11.72-.23.77-.36a9.13,9.13,0,0,0,.3-2l.25-4.49a2.62,2.62,0,0,0-.34-1.79,1.51,1.51,0,0,0-.61-.45,2.87,2.87,0,0,0-.65-.2c-.18,0-.27-.06-.27-.1q0-.8.21-.82a21.66,21.66,0,0,0,2.25-.21,22.14,22.14,0,0,0,2.2-.38l.22,0c.09,0,.16.07.21.21a.51.51,0,0,1,0,.31q-.32,1.75-.35,2.36Zm-2.23-11.69a1.69,1.69,0,0,1-.43-1.24,1.71,1.71,0,0,1,3.42.19,1.68,1.68,0,0,1-.56,1.18,1.7,1.7,0,0,1-2.43-.13Z"/><path class="cls-1" d="M367.32,100q.09-1.57.42-1.55h0l6.66,0h0c.11,0,.16.09.15.26a5.32,5.32,0,0,1-.14,1,1.15,1.15,0,0,1-.22.51l-.09.11-6.66-.06h-.06s0,0-.08-.09A.4.4,0,0,1,367.32,100Z"/><path class="cls-1" d="M385.79,94.55q3.55.2,3.24,5.84l-.14,2.62a11.51,11.51,0,0,0,.05,2.49c0,.13.27.28.74.44a4.2,4.2,0,0,0,.94.26c.06,0,.08.14.07.41a1.57,1.57,0,0,1-.07.54c-.11,0-.59-.09-1.44-.19s-1.49-.17-1.91-.19-1.05,0-1.84,0l-1.42,0a.81.81,0,0,1-.08-.53c0-.28.06-.41.13-.41a3.29,3.29,0,0,0,.93-.16q.63-.17.7-.36a7.92,7.92,0,0,0,.33-2l.14-2.62a6,6,0,0,0-.44-3.23,2.21,2.21,0,0,0-1.92-1,2.55,2.55,0,0,0-1.57.4,1.33,1.33,0,0,0-.72,1l-.26,4.74a11.49,11.49,0,0,0,.06,2.49c0,.13.26.28.71.44a4,4,0,0,0,.88.26c.07,0,.11.14.1.41a1.57,1.57,0,0,1-.07.54l-1.44-.19q-1.22-.15-1.85-.19t-1.92,0l-1.48,0a.81.81,0,0,1-.08-.53c0-.28.06-.41.13-.41a3.86,3.86,0,0,0,1-.15c.46-.11.71-.23.75-.36a9.06,9.06,0,0,0,.3-2l.25-4.49a2.62,2.62,0,0,0-.34-1.79,1.33,1.33,0,0,0-.6-.45A3.13,3.13,0,0,0,377,96c-.17,0-.26-.06-.26-.1,0-.53.09-.8.18-.82a39.33,39.33,0,0,0,4.48-.58l.07,0h.15c.07,0,.13.07.18.2a.82.82,0,0,1,.07.31,9.74,9.74,0,0,0-.17,1,.22.22,0,0,0,0,.14.4.4,0,0,0,.14-.08,6.12,6.12,0,0,1,1.76-1.06A4.81,4.81,0,0,1,385.79,94.55Z"/><path class="cls-1" d="M398.93,95.27a3.39,3.39,0,0,1,2.51,1,4.41,4.41,0,0,1,.68,3.12l-.3,5.43a1.27,1.27,0,0,0,.2.85.83.83,0,0,0,.65.33,1.73,1.73,0,0,0,1-.31c.11,0,.16.15.15.31a1.64,1.64,0,0,1-.21.82,6.85,6.85,0,0,1-1.14.63,2.88,2.88,0,0,1-1.34.29,2,2,0,0,1-1.21-.54,2.26,2.26,0,0,1-.74-1.06l-.22.17q-.19.14-.52.34a8.4,8.4,0,0,1-.74.4,4.46,4.46,0,0,1-1,.32,4.05,4.05,0,0,1-1.1.09,3.3,3.3,0,0,1-2.2-.88,2.62,2.62,0,0,1-.75-2.13,2.54,2.54,0,0,1,.39-1.22,3.33,3.33,0,0,1,.81-.91,5.66,5.66,0,0,1,1.23-.66,11.36,11.36,0,0,1,1.31-.47l1.4-.35,1.19-.29a.43.43,0,0,0,.27-.43l.08-1.52A2.37,2.37,0,0,0,399,97.1a1.44,1.44,0,0,0-1.15-.62,1.67,1.67,0,0,0-1.32.44,2.07,2.07,0,0,0-.55,1.42.9.9,0,0,1-.46.79,1.72,1.72,0,0,1-1,.21,1.55,1.55,0,0,1-1.4-.74q.07-1.32,1.94-2.38A6.93,6.93,0,0,1,398.93,95.27Zm-1.83,10.51a2.13,2.13,0,0,0,1.3-.31,1.09,1.09,0,0,0,.59-.85l.16-2.81c-.13,0-.41.13-.83.23s-.74.2-1,.28a7.57,7.57,0,0,0-.79.34,1.66,1.66,0,0,0-.68.57,1.51,1.51,0,0,0-.25.76,1.7,1.7,0,0,0,.37,1.32A1.59,1.59,0,0,0,397.11,105.78Z"/><path class="cls-1" d="M407.38,97.67l-1.68-.09c-.13,0-.18-.25-.15-.73a.67.67,0,0,1,0-.25,7.78,7.78,0,0,0,2.2-1.34l.83-.77q.45-.43,1.07-1.12a2,2,0,0,1,.52.1c.16.06.24.11.24.17l-.15,2.7,2,.12,1.36.09c.15,0,.22.09.21.26a2.68,2.68,0,0,1-.34,1.2l-3.31-.18-.37,6.64a2.62,2.62,0,0,0,.38,1.71,1.58,1.58,0,0,0,1.26.65,2.61,2.61,0,0,0,.58,0,2.93,2.93,0,0,0,.5-.12l.37-.15.2-.07c.07,0,.15.07.24.26a.67.67,0,0,1,.09.37,2.54,2.54,0,0,1-1.22.83,4.35,4.35,0,0,1-2,.4,3.48,3.48,0,0,1-2.39-1.06,3.69,3.69,0,0,1-.85-2.91Z"/><path class="cls-1" d="M420.26,104.74a10.1,10.1,0,0,0,.08,2.49c0,.13.27.28.72.44a4,4,0,0,0,.93.26c.07,0,.11.14.1.41a1.56,1.56,0,0,1-.07.54l-1.47-.19q-1.28-.15-1.88-.19t-1.95,0l-1.45,0a.82.82,0,0,1-.08-.53c0-.28.06-.41.13-.41a4,4,0,0,0,1-.15c.47-.11.72-.23.77-.36a9.08,9.08,0,0,0,.3-2l.25-4.49a2.62,2.62,0,0,0-.34-1.79,1.52,1.52,0,0,0-.61-.45,2.91,2.91,0,0,0-.65-.2c-.18,0-.27-.06-.27-.1,0-.53.1-.8.21-.82a29.42,29.42,0,0,0,4.45-.58l.22,0c.09,0,.16.07.21.21a.51.51,0,0,1,0,.31,23.77,23.77,0,0,0-.35,2.36ZM418,93.05a1.68,1.68,0,0,1-.43-1.24A1.71,1.71,0,0,1,421,92a1.68,1.68,0,0,1-.56,1.19,1.7,1.7,0,0,1-2.42-.13Z"/><path class="cls-1" d="M430.59,97a6.08,6.08,0,0,1,4.32,2,5.92,5.92,0,0,1,1.59,4.47A6.29,6.29,0,1,1,430.59,97Zm-.43,1.28a2.22,2.22,0,0,0-2.08,1.14,6,6,0,0,0-.88,3,8,8,0,0,0,.68,3.93,2.75,2.75,0,0,0,2.4,1.79,2.25,2.25,0,0,0,2.1-1.16,5.88,5.88,0,0,0,.9-2.94,9.47,9.47,0,0,0-.21-2.68,4.87,4.87,0,0,0-1-2.12A2.56,2.56,0,0,0,430.16,98.3Z"/><path class="cls-1" d="M447.62,98q3.55.2,3.24,5.85l-.14,2.62a11.5,11.5,0,0,0,.05,2.49q0,.2.74.44a4.29,4.29,0,0,0,.94.26c.06,0,.08.14.07.4a1.57,1.57,0,0,1-.07.54q-.16,0-1.44-.19t-1.91-.19q-.66,0-1.84,0l-1.42,0a.81.81,0,0,1-.08-.53c0-.28.06-.41.13-.41a3.24,3.24,0,0,0,.93-.16c.42-.11.65-.24.7-.36a7.92,7.92,0,0,0,.33-2l.14-2.62a6,6,0,0,0-.44-3.23,2.22,2.22,0,0,0-1.92-1,2.56,2.56,0,0,0-1.57.4,1.33,1.33,0,0,0-.72,1l-.26,4.74a11.49,11.49,0,0,0,.06,2.49q0,.2.71.44a4,4,0,0,0,.88.26c.07,0,.11.14.1.41a1.57,1.57,0,0,1-.07.54l-1.44-.19q-1.22-.15-1.86-.19t-1.92,0l-1.48,0a.81.81,0,0,1-.08-.53c0-.28.06-.41.13-.41a3.84,3.84,0,0,0,1-.15c.46-.11.71-.23.75-.36a9.07,9.07,0,0,0,.3-2l.25-4.49a2.61,2.61,0,0,0-.34-1.79,1.32,1.32,0,0,0-.6-.45,3.21,3.21,0,0,0-.65-.2c-.17,0-.26-.06-.26-.1q0-.8.18-.82a39,39,0,0,0,4.48-.58l.07,0h.15c.07,0,.13.07.18.2a.82.82,0,0,1,.07.31,9.84,9.84,0,0,0-.17,1c0,.07,0,.12,0,.14a.39.39,0,0,0,.14-.07,6.1,6.1,0,0,1,1.76-1.06A4.84,4.84,0,0,1,447.62,98Z"/><path class="cls-1" d="M460.77,98.69a3.39,3.39,0,0,1,2.51,1,4.41,4.41,0,0,1,.68,3.12l-.3,5.43a1.26,1.26,0,0,0,.2.85.83.83,0,0,0,.65.33,1.71,1.71,0,0,0,1-.31c.11,0,.16.15.15.31a1.65,1.65,0,0,1-.21.82,6.82,6.82,0,0,1-1.14.63,2.88,2.88,0,0,1-1.34.29,2,2,0,0,1-1.21-.54,2.25,2.25,0,0,1-.74-1.06l-.22.17c-.12.09-.3.21-.52.34a8.41,8.41,0,0,1-.74.4,4.35,4.35,0,0,1-1,.32,4.05,4.05,0,0,1-1.1.09,3.3,3.3,0,0,1-2.2-.88,2.62,2.62,0,0,1-.75-2.13,2.54,2.54,0,0,1,.39-1.22,3.3,3.3,0,0,1,.81-.91,5.65,5.65,0,0,1,1.22-.66,11.36,11.36,0,0,1,1.31-.47l1.4-.35,1.19-.29a.43.43,0,0,0,.27-.43l.08-1.52a2.37,2.37,0,0,0-.36-1.54,1.44,1.44,0,0,0-1.15-.62,1.67,1.67,0,0,0-1.32.44,2.07,2.07,0,0,0-.55,1.42.89.89,0,0,1-.46.79,1.71,1.71,0,0,1-1,.21A1.56,1.56,0,0,1,455,102q.07-1.32,1.94-2.38A6.92,6.92,0,0,1,460.77,98.69Zm-1.83,10.51a2.14,2.14,0,0,0,1.3-.32,1.09,1.09,0,0,0,.59-.85l.16-2.81c-.13,0-.41.13-.83.23s-.74.2-1,.28a7.66,7.66,0,0,0-.79.34,1.66,1.66,0,0,0-.68.57,1.52,1.52,0,0,0-.25.76,1.69,1.69,0,0,0,.37,1.32A1.58,1.58,0,0,0,458.94,109.21Z"/><path class="cls-1" d="M472.06,107.55a11.27,11.27,0,0,0,.06,2.49c0,.13.25.29.65.46a3,3,0,0,0,.83.28c.05,0,.08.13.08.39a1.51,1.51,0,0,1-.07.52l-1-.13-1.17-.13-1-.08-1,0h-2.21a.77.77,0,0,1-.08-.52c0-.27.06-.4.13-.39a3,3,0,0,0,.94-.18c.42-.13.65-.26.7-.39a9.09,9.09,0,0,0,.33-2l.63-11.46a9.56,9.56,0,0,0-.06-1.88q-.11-.45-1.35-.52h-.28c-.11,0-.16-.12-.15-.34s.08-.44.19-.43q.86,0,1.64-.13c.52-.06,1-.13,1.3-.21l.9-.21.6-.17.2-.07h.05c.07,0,.15.06.23.18a.85.85,0,0,1,.13.28,8.79,8.79,0,0,0-.47,2.57Z"/><path class="cls-1" d="M480.58,108.08a10.11,10.11,0,0,0,.08,2.49c0,.13.27.28.72.44a4.08,4.08,0,0,0,.93.26c.07,0,.11.14.1.41a1.57,1.57,0,0,1-.07.54l-1.47-.19q-1.28-.15-1.88-.19t-1.95,0l-1.45,0a.81.81,0,0,1-.08-.53c0-.28.06-.41.13-.41a4,4,0,0,0,1-.15q.7-.17.77-.36a9.06,9.06,0,0,0,.3-2l.25-4.49a2.63,2.63,0,0,0-.34-1.79,1.53,1.53,0,0,0-.61-.45,2.94,2.94,0,0,0-.65-.2c-.18,0-.27-.06-.27-.1,0-.53.1-.8.21-.82a29.13,29.13,0,0,0,4.45-.58l.22,0c.09,0,.16.07.21.2a.51.51,0,0,1,0,.31,23.75,23.75,0,0,0-.35,2.36Zm-2.23-11.69a1.69,1.69,0,0,1-.43-1.24,1.71,1.71,0,0,1,3.42.19,1.68,1.68,0,0,1-.56,1.18,1.7,1.7,0,0,1-2.42-.13Z"/><path class="cls-1" d="M489.17,100.24a11.73,11.73,0,0,1,3.17.64,15.67,15.67,0,0,1,.13,3.1q0,.22-.37.2c-.4,0-.62-.11-.65-.26a3.36,3.36,0,0,0-.72-1.68,2.16,2.16,0,0,0-1.63-.77,2,2,0,0,0-1.27.29,1.22,1.22,0,0,0-.51,1,1.61,1.61,0,0,0,.11.71,1.72,1.72,0,0,0,.46.62,6.16,6.16,0,0,0,.58.47q.25.18.76.48l.27.15.4.24.44.27.43.29a5.09,5.09,0,0,1,.46.34l.41.35a2.12,2.12,0,0,1,.39.41l.31.45a1.74,1.74,0,0,1,.26.51,5.32,5.32,0,0,1,.12.53,2.64,2.64,0,0,1,0,.6,3.26,3.26,0,0,1-1.49,2.67,5.25,5.25,0,0,1-3.29.83,9.23,9.23,0,0,1-3.51-1,11.08,11.08,0,0,1-.19-1.54,13.59,13.59,0,0,1-.05-1.59.58.58,0,0,1,.39-.12c.42,0,.64.11.65.26a3.05,3.05,0,0,0,1,1.92,3,3,0,0,0,1.85.81,2,2,0,0,0,1.29-.31A1.35,1.35,0,0,0,490,110a1.79,1.79,0,0,0,0-.51,1.34,1.34,0,0,0-.24-.48l-.29-.4a2.06,2.06,0,0,0-.47-.4l-.53-.35-.67-.4-.68-.41a6.4,6.4,0,0,1-1.87-1.58A3.19,3.19,0,0,1,486,101,5.32,5.32,0,0,1,489.17,100.24Z"/><path class="cls-1" d="M496.54,102.61l-1.68-.09q-.19,0-.15-.73a.69.69,0,0,1,0-.25,7.74,7.74,0,0,0,2.2-1.34l.83-.77q.45-.43,1.07-1.12a1.94,1.94,0,0,1,.52.1c.16.05.24.11.24.16l-.15,2.7,2,.12,1.36.09c.15,0,.22.1.21.26a2.68,2.68,0,0,1-.34,1.2l-3.31-.18L499,109.4a2.62,2.62,0,0,0,.38,1.71,1.57,1.57,0,0,0,1.26.65,2.61,2.61,0,0,0,.58,0,3,3,0,0,0,.5-.12l.37-.15.2-.07c.07,0,.15.07.24.26a.66.66,0,0,1,.09.36,2.53,2.53,0,0,1-1.22.83,4.34,4.34,0,0,1-2,.4,3.48,3.48,0,0,1-2.39-1.06,3.7,3.7,0,0,1-.85-2.91Z"/><path class="cls-1" d="M515.51,101.69a11.74,11.74,0,0,1,3.17.64,15.73,15.73,0,0,1,.13,3.1c0,.15-.13.21-.37.2-.4,0-.62-.11-.65-.26a3.37,3.37,0,0,0-.72-1.68,2.16,2.16,0,0,0-1.63-.77,2,2,0,0,0-1.27.29,1.22,1.22,0,0,0-.51,1,1.63,1.63,0,0,0,.11.71,1.73,1.73,0,0,0,.46.62,6.59,6.59,0,0,0,.58.47q.25.18.76.48a1.77,1.77,0,0,0,.27.15l.4.24.44.27.43.29a5.09,5.09,0,0,1,.46.34l.41.35a2.15,2.15,0,0,1,.39.41l.31.45a1.74,1.74,0,0,1,.26.51c0,.16.09.34.12.53a2.64,2.64,0,0,1,0,.6,3.25,3.25,0,0,1-1.49,2.67,5.24,5.24,0,0,1-3.29.83,9.21,9.21,0,0,1-3.51-1,11.21,11.21,0,0,1-.19-1.54,13.76,13.76,0,0,1-.05-1.59.59.59,0,0,1,.39-.12q.63,0,.65.26a3.05,3.05,0,0,0,1,1.92,3,3,0,0,0,1.85.81,2,2,0,0,0,1.29-.32,1.34,1.34,0,0,0,.56-1.1,1.79,1.79,0,0,0,0-.51,1.35,1.35,0,0,0-.24-.48l-.29-.4a2,2,0,0,0-.48-.4l-.53-.35-.67-.4-.68-.41a6.43,6.43,0,0,1-1.87-1.58,3.19,3.19,0,0,1,.89-4.53A5.32,5.32,0,0,1,515.51,101.69Z"/><path class="cls-1" d="M527,102.36a5.14,5.14,0,0,1,2.29.64,4.36,4.36,0,0,1,1.53,1.38,6.42,6.42,0,0,1,.79,1.67,4.74,4.74,0,0,1,.21,1.63c0,.4-.11.65-.25.75a1.57,1.57,0,0,1-.85.1l-6.58-.36c-.13,0-.2,0-.2.15a5.38,5.38,0,0,0,.25,1.95,3.8,3.8,0,0,0,1.14,1.69,3.25,3.25,0,0,0,2,.8,7.57,7.57,0,0,0,.8,0,4.21,4.21,0,0,0,.72-.1l.59-.15a2.3,2.3,0,0,0,.52-.22l.38-.21.57-.34a.47.47,0,0,1,.13.17.54.54,0,0,1,.07.28.85.85,0,0,1-.2.52,4.48,4.48,0,0,1-1.71,1.4,5.11,5.11,0,0,1-2.77.59,5.59,5.59,0,0,1-4-2,6,6,0,0,1-1.5-4.41,6.39,6.39,0,0,1,1.86-4.43A5.35,5.35,0,0,1,527,102.36Zm-.26,1.26a1.94,1.94,0,0,0-1.21.32,2.61,2.61,0,0,0-.85.89,5.16,5.16,0,0,0-.46,1,3.3,3.3,0,0,0-.17.81c0,.13,0,.2.15.2l4.46.25c.16,0,.25-.12.27-.4a3.57,3.57,0,0,0-.54-2A2,2,0,0,0,526.77,103.62Z"/><path class="cls-1" d="M542.68,103.23q3.55.2,3.24,5.84l-.14,2.62a11.51,11.51,0,0,0,.05,2.49q0,.2.74.44a4.2,4.2,0,0,0,.94.26c.05,0,.08.14.07.41a1.57,1.57,0,0,1-.07.54c-.11,0-.59-.09-1.44-.19s-1.49-.16-1.91-.19-1.05,0-1.84,0l-1.42,0a.81.81,0,0,1-.08-.53c0-.28.06-.41.13-.41a3.29,3.29,0,0,0,.93-.16c.42-.12.65-.24.7-.36a7.92,7.92,0,0,0,.33-2l.14-2.62a6,6,0,0,0-.44-3.23,2.21,2.21,0,0,0-1.92-1,2.55,2.55,0,0,0-1.57.4,1.33,1.33,0,0,0-.72,1l-.26,4.74a11.49,11.49,0,0,0,.06,2.49q0,.2.71.44a4,4,0,0,0,.88.26c.07,0,.11.14.1.41a1.57,1.57,0,0,1-.07.54l-1.44-.19q-1.22-.15-1.85-.19t-1.92,0l-1.48,0a.81.81,0,0,1-.08-.53c0-.28.06-.41.13-.41a3.86,3.86,0,0,0,1-.15c.46-.11.71-.23.75-.36a9.06,9.06,0,0,0,.3-2l.25-4.49a2.63,2.63,0,0,0-.34-1.79,1.34,1.34,0,0,0-.6-.45,3.17,3.17,0,0,0-.65-.2c-.17,0-.26-.06-.26-.1q0-.8.18-.82a39.32,39.32,0,0,0,4.48-.58l.07,0h.15c.07,0,.13.07.18.2a.82.82,0,0,1,.07.31,9.74,9.74,0,0,0-.17,1,.22.22,0,0,0,0,.14.4.4,0,0,0,.14-.08,6.12,6.12,0,0,1,1.76-1.06A4.81,4.81,0,0,1,542.68,103.23Z"/><path class="cls-1" d="M551.54,105.65l-1.68-.09q-.19,0-.15-.73a.68.68,0,0,1,0-.25,7.74,7.74,0,0,0,2.2-1.34l.83-.77q.45-.43,1.07-1.12a2,2,0,0,1,.52.1c.16.06.24.11.24.17l-.15,2.7,2,.12,1.36.09c.15,0,.22.1.21.26a2.68,2.68,0,0,1-.34,1.2l-3.31-.18-.37,6.64a2.62,2.62,0,0,0,.38,1.71,1.57,1.57,0,0,0,1.26.65,2.61,2.61,0,0,0,.58,0,3,3,0,0,0,.5-.12l.37-.15.2-.07c.07,0,.15.07.24.26a.66.66,0,0,1,.09.37,2.54,2.54,0,0,1-1.22.83,4.36,4.36,0,0,1-2,.4,3.49,3.49,0,0,1-2.39-1.06,3.7,3.7,0,0,1-.85-2.91Z"/><path class="cls-1" d="M564.42,112.72a10.1,10.1,0,0,0,.08,2.49c0,.13.27.28.72.44a4,4,0,0,0,.93.26c.07,0,.11.14.1.41a1.57,1.57,0,0,1-.07.54l-1.47-.19q-1.28-.15-1.88-.19t-1.95,0l-1.45,0a.81.81,0,0,1-.08-.53c0-.28.06-.41.13-.41a4,4,0,0,0,1-.15q.7-.17.77-.36a9.07,9.07,0,0,0,.3-2l.25-4.49a2.62,2.62,0,0,0-.34-1.79,1.52,1.52,0,0,0-.61-.45,2.92,2.92,0,0,0-.65-.2c-.18,0-.27-.06-.27-.1,0-.53.1-.8.21-.82a29.3,29.3,0,0,0,4.45-.58l.22,0c.09,0,.16.07.21.2a.51.51,0,0,1,0,.31,23.81,23.81,0,0,0-.35,2.36ZM562.19,101a1.68,1.68,0,0,1-.43-1.24,1.71,1.71,0,0,1,3.42.19,1.68,1.68,0,0,1-.56,1.18,1.7,1.7,0,0,1-2.42-.13Z"/><path class="cls-1" d="M577.53,105.15a3,3,0,0,1,1.76.64,3.22,3.22,0,0,1,1,1.45,6.5,6.5,0,0,1,2.09-1.27,6.2,6.2,0,0,1,2.62-.41,3.13,3.13,0,0,1,1.67.54,3,3,0,0,1,1,1.29,6.46,6.46,0,0,1,.48,1.74,10.51,10.51,0,0,1,.07,2l-.16,2.89a11.49,11.49,0,0,0,.06,2.49c0,.13.27.28.72.44a4,4,0,0,0,.92.26c.06,0,.08.14.07.41a1.59,1.59,0,0,1-.07.53l-1.44-.19q-1.25-.15-1.88-.19t-1.89,0l-1.48,0a1,1,0,0,1-.05-.53c0-.28.05-.41.11-.41a3.68,3.68,0,0,0,1-.15c.45-.11.7-.23.74-.36a8.53,8.53,0,0,0,.3-1.92l.16-2.81q.22-4-2.34-4.14a2.51,2.51,0,0,0-1.54.36,1.73,1.73,0,0,0-.76.81c0,.05,0,.13,0,.22a.53.53,0,0,0,0,.22,13.51,13.51,0,0,1,0,1.71l-.16,2.92a10.84,10.84,0,0,0,.06,2.38c0,.13.27.28.72.44a4,4,0,0,0,.92.26c.06,0,.08.14.07.41a1.56,1.56,0,0,1-.07.53l-1.44-.19q-1.25-.15-1.88-.19t-1.89,0l-1.48,0a1,1,0,0,1-.05-.53c0-.28.05-.41.11-.41a3.64,3.64,0,0,0,1-.15q.67-.17.74-.36a9,9,0,0,0,.3-2l.15-2.64a5.85,5.85,0,0,0-.46-3.15,2.1,2.1,0,0,0-1.82-1.07,2.64,2.64,0,0,0-1.54.38,1.3,1.3,0,0,0-.75,1l-.26,4.74a10.09,10.09,0,0,0,.08,2.49q0,.2.69.44a3.75,3.75,0,0,0,.9.26c.07,0,.11.14.1.41a1.57,1.57,0,0,1-.07.54l-1.44-.19q-1.22-.15-1.85-.19t-1.93,0l-1.47,0a.82.82,0,0,1-.08-.53c0-.28.06-.41.13-.41a4,4,0,0,0,1-.15c.47-.11.72-.23.77-.36a9.13,9.13,0,0,0,.3-2l.25-4.49a2.62,2.62,0,0,0-.34-1.79,1.32,1.32,0,0,0-.6-.45,3.15,3.15,0,0,0-.67-.2c-.18,0-.27-.06-.27-.1q0-.8.21-.82a38.34,38.34,0,0,0,4.45-.58l.09,0h.14c.09,0,.16.07.21.21a.51.51,0,0,1,0,.31,9.5,9.5,0,0,0-.17,1c0,.07,0,.12,0,.14a.39.39,0,0,0,.14-.08,6.14,6.14,0,0,1,1.76-1.06A4.81,4.81,0,0,1,577.53,105.15Z"/><path class="cls-1" d="M597.71,106.27a5.14,5.14,0,0,1,2.29.64,4.37,4.37,0,0,1,1.53,1.38,6.42,6.42,0,0,1,.79,1.67,4.74,4.74,0,0,1,.21,1.63c0,.4-.11.65-.25.75a1.57,1.57,0,0,1-.85.1l-6.59-.36c-.13,0-.2,0-.2.15a5.36,5.36,0,0,0,.25,1.95,3.79,3.79,0,0,0,1.14,1.69,3.25,3.25,0,0,0,2,.8,7.84,7.84,0,0,0,.8,0,4.11,4.11,0,0,0,.72-.1l.59-.15a2.33,2.33,0,0,0,.52-.22l.39-.21.57-.34a.47.47,0,0,1,.13.17.54.54,0,0,1,.07.28.86.86,0,0,1-.2.52A4.49,4.49,0,0,1,600,118a5.12,5.12,0,0,1-2.77.59,5.59,5.59,0,0,1-4-2,6,6,0,0,1-1.5-4.41,6.39,6.39,0,0,1,1.86-4.43A5.35,5.35,0,0,1,597.71,106.27Zm-.26,1.26a1.94,1.94,0,0,0-1.21.32,2.62,2.62,0,0,0-.85.89,5.25,5.25,0,0,0-.46,1,3.3,3.3,0,0,0-.17.81c0,.13,0,.2.15.2l4.46.25c.17,0,.25-.12.27-.4a3.58,3.58,0,0,0-.54-2A2,2,0,0,0,597.44,107.53Z"/><path class="cls-1" d="M613.36,107.14q3.56.2,3.24,5.84l-.14,2.62a11.52,11.52,0,0,0,.05,2.49q0,.19.73.44a4.22,4.22,0,0,0,.94.26c.06,0,.08.14.07.41a1.57,1.57,0,0,1-.07.54c-.11,0-.59-.09-1.44-.19s-1.49-.16-1.91-.19-1.05,0-1.84,0l-1.42,0a.8.8,0,0,1-.08-.53c0-.28.06-.41.13-.41a3.29,3.29,0,0,0,.93-.16c.42-.12.65-.24.7-.36a8,8,0,0,0,.33-2l.14-2.62a6,6,0,0,0-.44-3.23,2.22,2.22,0,0,0-1.92-1,2.55,2.55,0,0,0-1.57.4,1.32,1.32,0,0,0-.72,1l-.26,4.74a11.57,11.57,0,0,0,.05,2.49q0,.2.71.44a4,4,0,0,0,.88.26c.07,0,.11.14.1.41a1.57,1.57,0,0,1-.07.54l-1.44-.19q-1.22-.15-1.85-.19t-1.92,0l-1.48,0a.81.81,0,0,1-.08-.53c0-.28.06-.41.13-.41a3.87,3.87,0,0,0,1-.15c.46-.11.71-.23.75-.36a9.13,9.13,0,0,0,.3-2l.25-4.49a2.63,2.63,0,0,0-.34-1.79,1.33,1.33,0,0,0-.6-.45,3.15,3.15,0,0,0-.65-.2c-.17,0-.26-.06-.26-.1,0-.53.09-.8.18-.82a39.29,39.29,0,0,0,4.48-.58l.07,0h.15c.07,0,.13.07.18.2a.85.85,0,0,1,.06.31,9.93,9.93,0,0,0-.16,1,.22.22,0,0,0,0,.14.4.4,0,0,0,.14-.08,6.14,6.14,0,0,1,1.76-1.06A4.81,4.81,0,0,1,613.36,107.14Z"/><path class="cls-1" d="M622.22,109.56l-1.68-.09q-.19,0-.15-.73a.67.67,0,0,1,0-.25,7.74,7.74,0,0,0,2.2-1.34l.83-.77q.45-.43,1.07-1.12a2,2,0,0,1,.52.1c.16.06.24.11.24.17l-.15,2.7,2,.12,1.36.09c.15,0,.22.09.21.26a2.69,2.69,0,0,1-.34,1.2l-3.31-.18-.37,6.64a2.62,2.62,0,0,0,.38,1.71,1.58,1.58,0,0,0,1.26.65,2.61,2.61,0,0,0,.58,0,3,3,0,0,0,.5-.12l.37-.15.2-.07c.07,0,.15.07.23.26a.66.66,0,0,1,.09.37,2.54,2.54,0,0,1-1.22.83,4.34,4.34,0,0,1-2,.4,3.48,3.48,0,0,1-2.39-1.06,3.7,3.7,0,0,1-.85-2.91Z"/><path class="cls-1" d="M633.35,117.61a1.8,1.8,0,0,1,.46,1.32,1.84,1.84,0,0,1-.61,1.28,1.71,1.71,0,0,1-1.31.49,1.79,1.79,0,0,1-1.29-.64,1.82,1.82,0,0,1-.48-1.34,1.78,1.78,0,0,1,.62-1.26,1.81,1.81,0,0,1,1.35-.48A1.73,1.73,0,0,1,633.35,117.61Z"/></svg>