<svg id="Layer_1" data-name="Layer 1" xmlns="http://www.w3.org/2000/svg" viewBox="0 0 1055.44 407.84"><defs><style>.cls-1{fill:#fff;stroke:#1928eb;stroke-miterlimit:10;stroke-width:1.2px;}</style></defs><title>title</title><path class="cls-1" d="M85.52,74.4q0,1.88-2.28,11.2t-3.43,9.88q-12.65,6-33.64,5.75Q27.06,101,13.74,86.86A46.65,46.65,0,0,1,.6,53.29,49.77,49.77,0,0,1,14.7,18.18a44.57,44.57,0,0,1,34-14.36A159.32,159.32,0,0,1,82.85,8.07q.43.15.78,9.49t.32,11.66q0,2.17-3.5,2.14a4.65,4.65,0,0,1-2-.6,20.28,20.28,0,0,0-2-5.38,37.2,37.2,0,0,0-4.5-6.27A22,22,0,0,0,63,13.3a38.79,38.79,0,0,0-13.73-2.38Q35,10.78,27,22.43t-8.17,28q-.18,18.24,8.6,31t25,12.92q12.88.13,20.49-7.91A19.81,19.81,0,0,0,76.41,81q1.55-3.39,2.37-5.7T79.89,73Q85,73.09,85.52,74.4Z"/><path class="cls-1" d="M118.32,80.23q-.09,9,.88,13,.28,1,3.52,2.28a15.87,15.87,0,0,0,4.4,1.27c.29,0,.45.68.49,2a7.9,7.9,0,0,1-.24,2.75l-5.42-.42q-3.4-.25-6.15-.42t-5.21-.2q-2.75,0-5.5.09T99,101l-5.5.31A4.09,4.09,0,0,1,93,98.58c0-1.4.21-2.1.6-2.09a15.44,15.44,0,0,0,4.86-1.18q3.27-1.2,3.57-2.21a48,48,0,0,0,1.26-10.7l.6-60.22a50.52,50.52,0,0,0-.77-9.85q-.7-2.32-7.21-2.39H94.41q-.87,0-.85-1.75,0-2.31.89-2.31,4.49-.39,8.55-1.07t6.75-1.38q2.69-.7,4.65-1.33T117.51,1l1-.42h.29q.58,0,1.22.88a4.42,4.42,0,0,1,.78,1.46A45.73,45.73,0,0,0,119,16.53Z"/><path class="cls-1" d="M169,37.59a31.92,31.92,0,0,1,23.14,9.71,31,31,0,0,1,9.4,23,32.5,32.5,0,0,1-33,32.25,31.71,31.71,0,0,1-23.21-9.78,31.38,31.38,0,0,1-9.33-23.11,31.19,31.19,0,0,1,9.71-22.92A31.71,31.71,0,0,1,169,37.59ZM167,44.37q-6.81-.07-10.63,6.48a31.12,31.12,0,0,0-3.92,15.67Q152.37,78.25,157,87t13,8.82q6.8.07,10.71-6.55a30.79,30.79,0,0,0,4-15.6,49.69,49.69,0,0,0-1.74-14,25.53,25.53,0,0,0-6-10.84A13.42,13.42,0,0,0,167,44.37Z"/><path class="cls-1" d="M233.25,38.08A61.57,61.57,0,0,1,250,40.7a82.25,82.25,0,0,1,1.43,16.23c0,.77-.64,1.15-1.89,1.14q-3.19,0-3.46-1.19a17.55,17.55,0,0,0-4.18-8.66,11.32,11.32,0,0,0-8.72-3.63,10.39,10.39,0,0,0-6.61,1.82,6.42,6.42,0,0,0-2.44,5.33,8.42,8.42,0,0,0,.76,3.7,9,9,0,0,0,2.57,3.14,35.81,35.81,0,0,0,3.16,2.35q1.37.88,4.1,2.36a9.34,9.34,0,0,0,1.44.74l2.16,1.18,2.38,1.33,2.3,1.4a26.18,26.18,0,0,1,2.52,1.69q.72.59,2.23,1.76a11.46,11.46,0,0,1,2.15,2q.64.87,1.71,2.26a9.34,9.34,0,0,1,1.5,2.62,28,28,0,0,1,.77,2.76,13.43,13.43,0,0,1,.33,3.12,17.05,17.05,0,0,1-7.16,14.33A27.46,27.46,0,0,1,230,103.63a48.4,48.4,0,0,1-18.63-4.24,58,58,0,0,1-1.37-8,70.64,70.64,0,0,1-.64-8.33,3.07,3.07,0,0,1,2-.71q3.33,0,3.46,1.19a16,16,0,0,0,5.62,9.83,15.44,15.44,0,0,0,9.88,3.79,10.52,10.52,0,0,0,6.68-2,7.06,7.06,0,0,0,2.67-5.91,9.6,9.6,0,0,0-.33-2.68A7.11,7.11,0,0,0,238,84.09l-1.64-2a10.52,10.52,0,0,0-2.59-2q-1.94-1.18-2.88-1.69t-3.6-1.92q-2.67-1.4-3.67-2a33.64,33.64,0,0,1-10.2-7.85,15.47,15.47,0,0,1-3.52-10.38Q210,47.4,217,42.69A27.91,27.91,0,0,1,233.25,38.08Z"/><path class="cls-1" d="M292.31,38.81a26.85,26.85,0,0,1,12.13,2.8,22.9,22.9,0,0,1,8.33,6.89,33.63,33.63,0,0,1,4.55,8.59,25,25,0,0,1,1.51,8.48q0,3.19-1.12,4t-4.42.75l-34.6-.34q-1,0-1,.86A28.15,28.15,0,0,0,279.44,81a19.91,19.91,0,0,0,6.36,8.6,17,17,0,0,0,10.89,3.73,39.24,39.24,0,0,0,4.2-.18,21.61,21.61,0,0,0,3.77-.69q1.74-.49,3-.91a12.37,12.37,0,0,0,2.69-1.28l2-1.21q.58-.35,2.92-1.93A2.38,2.38,0,0,1,316,88a2.8,2.8,0,0,1,.42,1.45,4.46,4.46,0,0,1-.89,2.74q-2.21,3.89-8.62,7.73a26.85,26.85,0,0,1-14.37,3.77,29.32,29.32,0,0,1-21.62-9.55A31.22,31.22,0,0,1,262,71.37q.14-14.62,8.7-23.66T292.31,38.81Zm-1.08,6.65a10.23,10.23,0,0,0-6.25,2,13.66,13.66,0,0,0-4.25,4.88,27.63,27.63,0,0,0-2.15,5.41,17.72,17.72,0,0,0-.69,4.26q0,1,.86,1l23.45.23q1.3,0,1.32-2.16a18.76,18.76,0,0,0-3.3-10.31Q296.88,45.51,291.23,45.46Z"/><path class="cls-1" d="M368.16,39.56q8,.08,11.82,4.89-.12,12.3-7.07,12.24-2.61,0-5.62-3a9.07,9.07,0,0,0-6.2-3q-4.49,0-7.07,4.49a19.26,19.26,0,0,0-2.63,9.46l-.18,18.09a60.68,60.68,0,0,0,.88,13q.28,1,3.82,2.14a20.43,20.43,0,0,0,4.84,1.13c.29,0,.45.71.49,2.1a15.11,15.11,0,0,1-.1,2.82q-1.16-.16-7.67-.66t-9.84-.53q-3.47,0-10.07.33t-7.75.5q-.58-.59-.55-2.76t.6-2.17a20.22,20.22,0,0,0,5.29-1q3.56-1,3.86-2.06a47.29,47.29,0,0,0,1.12-10.56l.23-23.6q.07-6.8-2.22-9.29a7,7,0,0,0-3.23-2.2,16.55,16.55,0,0,0-3.47-.9c-.92-.1-1.37-.25-1.37-.45q0-4.2.77-4.34,6.66-.51,23.35-4.11a8.81,8.81,0,0,1,1.16-.28c.38,0,.72.35,1,1a3.47,3.47,0,0,1,.34,1.67q-.08.65-.24,2c-.11.92-.24,1.88-.39,2.89a18.49,18.49,0,0,0-.24,2,26.55,26.55,0,0,1,7.16-7A15.86,15.86,0,0,1,368.16,39.56Z"/><path class="cls-1" d="M547.5,108.31l-8.81-.54q-1-.06-.78-3.82a3.62,3.62,0,0,1,.22-1.29,40.46,40.46,0,0,0,11.6-7q2-1.76,4.38-4t5.65-5.82a10.33,10.33,0,0,1,2.72.53c.85.3,1.27.59,1.25.88l-.87,14.16q3.76.23,10.47.72l7.15.51c.77,0,1.13.5,1.08,1.37a14,14,0,0,1-1.84,6.27l-17.34-1.07-2.14,34.82q-.36,5.78,1.91,9a8.28,8.28,0,0,0,6.61,3.45,13.75,13.75,0,0,0,3.05-.17,15.47,15.47,0,0,0,2.65-.63c.69-.25,1.34-.5,1.93-.75a4.55,4.55,0,0,1,1-.37q.58-.11,1.22,1.38a3.4,3.4,0,0,1,.46,1.91q-1,2-6.43,4.32a22.78,22.78,0,0,1-10.49,2,18.25,18.25,0,0,1-12.49-5.63q-5-5.17-4.35-15.28Z"/><path class="cls-1" d="M623,102.81a31.92,31.92,0,0,1,22.61,10.89,31,31,0,0,1,8.2,23.49,32.79,32.79,0,0,1-65.45-4,31.18,31.18,0,0,1,10.88-22.39A31.71,31.71,0,0,1,623,102.81Zm-2.3,6.68q-6.79-.42-11,5.92A31.14,31.14,0,0,0,605,130.85q-.72,11.7,3.44,20.66T621,161q6.79.42,11-6a30.79,30.79,0,0,0,4.79-15.37,49.71,49.71,0,0,0-1-14.06,25.53,25.53,0,0,0-5.41-11.14A13.42,13.42,0,0,0,620.68,109.48Z"/><path class="cls-1" d="M665,222.48q.7.17,14,2.58.29,4.25,2.14,16t4.6,28.59q2.74,16.87,4.23,27.68c0,.19.07.32.35.39a.38.38,0,0,0,.53-.32q19.73-26.56,31.79-43.86l9.11-15q4.11,1.47,11.41,3.29,5.48,1.36,16.89,3.46a4.21,4.21,0,0,1-.14,2.35q-.59,2.39-1.16,2.25l-.28-.07a11.78,11.78,0,0,0-7.44.54q-2.49,1-3.71,7.13-2.55,12.64-12.46,58.51a38.29,38.29,0,0,0-1,13.48q.25,1.4,3.36,3.3a19.42,19.42,0,0,0,4.51,2.24q.56.14-.07,2.67a7,7,0,0,1-.81,2q-16.65-5-17.07-5.14-2.81-.7-5.94-1.33t-6.9-1.34l-6.06-1.13a3.08,3.08,0,0,1,0-2.25q.63-2.53,1.19-2.39a17.15,17.15,0,0,0,4.72.21,9.07,9.07,0,0,0,4.44-1.06,8.11,8.11,0,0,0,2.63-4.57l2-7.87,9.22-43.06q1.6-8.85.48-9.13-.42-.1-.91.67l-43.11,58.79q-3.72,4.74-6.67,4a4.79,4.79,0,0,1-1.33-.63L664.84,240q-9.69,34.73-17.83,62.1a16,16,0,0,0-.66,4.46q.32,1.72,4.88,4.35a31.26,31.26,0,0,0,6.25,3q.56.14-.07,2.67a7,7,0,0,1-.8,2q-16.65-5-17.49-5.25-3.79-.94-10.15-2.08t-7.76-1.48a3.36,3.36,0,0,1,0-2.39q.59-2.39,1.16-2.25a28.93,28.93,0,0,0,7.37.34q5.12-.22,6.39-2.29,1.9-2.21,3.89-9,2.94-10.61,7-25l7-24.58Q657,234.5,657.6,232a13.81,13.81,0,0,0,.56-4q-.14-1.23-4.18-3.28a32.77,32.77,0,0,0-5.87-2.5q-.56-.14,0-2.53a3.08,3.08,0,0,1,1.08-2l7.11,2.29Q661.37,221.57,665,222.48Z"/><path class="cls-1" d="M779.28,284.31q3.09.77,9,1.78t7.27,1.36a9.75,9.75,0,0,1-.35,2.6q-.49,2-1,1.83a15.79,15.79,0,0,0-4.69,0q-3.29.3-3.74,1.53l-.21.84q-.28,2.32,5.1,35.28,1.75-2.25,8.92-12.47t8.29-11.74a13.56,13.56,0,0,0,1.93-4.15q.45-1.82-1.39-4T802,293.84q-.56-.14,0-2.25a3.63,3.63,0,0,1,1.16-2.25q1.68.42,6.78,2.13t8.46,2.55q3,.73,7.34,1.38t6.36,1.13a4.13,4.13,0,0,1,0,2.39q-.56,2.25-1.12,2.11a18.37,18.37,0,0,0-6,0q-4.07.48-5.9,3l-41.15,55.7q-13.81,18.34-26,15.3a7.84,7.84,0,0,1-5.13-3.37,6.76,6.76,0,0,1,3.18-9.8q14.61,3.63,22.11-6.73,5.47-7.59,6.17-8.61l-8.63-52.87a18.67,18.67,0,0,0-.88-3.65,8.7,8.7,0,0,0-3.36-4.19,13.7,13.7,0,0,0-4.3-2.19q-.56-.14-.07-2.11.56-2.25,1-2.42.84.21,7.41,2.29T779.28,284.31Z"/><path class="cls-1" d="M861.14,303a61.55,61.55,0,0,1,15.7,6.44,82.13,82.13,0,0,1-2.37,16.12q-.28,1.13-2.11.67-3.09-.77-3.09-2a17.55,17.55,0,0,0-2.07-9.39,11.31,11.31,0,0,0-7.64-5.56,10.38,10.38,0,0,0-6.85.24,6.42,6.42,0,0,0-3.61,4.62A8.42,8.42,0,0,0,849,318a9,9,0,0,0,1.78,3.65,35.62,35.62,0,0,0,2.53,3q1.12,1.17,3.45,3.24a9.29,9.29,0,0,0,1.23,1.05l1.83,1.65,2,1.84,1.92,1.89a26.21,26.21,0,0,1,2.06,2.23q.56.74,1.76,2.23a11.38,11.38,0,0,1,1.62,2.49q.42,1,1.14,2.6a9.35,9.35,0,0,1,.85,2.9,27.75,27.75,0,0,1,.11,2.86,13.49,13.49,0,0,1-.4,3.11A17.06,17.06,0,0,1,860.57,365a27.47,27.47,0,0,1-17.78,1,48.39,48.39,0,0,1-17.14-8.44,57.58,57.58,0,0,1,.54-8.15,70.45,70.45,0,0,1,1.31-8.25,3.07,3.07,0,0,1,2.14-.21q3.23.8,3.09,2a16,16,0,0,0,3.19,10.86,15.44,15.44,0,0,0,8.73,6,10.52,10.52,0,0,0,7-.36,7.06,7.06,0,0,0,4-5.13,9.54,9.54,0,0,0,.3-2.69,7.11,7.11,0,0,0-.74-2.72L854,346.53a10.46,10.46,0,0,0-2.06-2.53q-1.62-1.6-2.41-2.31t-3.06-2.7q-2.27-2-3.11-2.79a33.63,33.63,0,0,1-8.11-10,15.46,15.46,0,0,1-1-10.92q2.13-8.57,10-11.53A27.91,27.91,0,0,1,861.14,303Z"/><path class="cls-1" d="M918.43,317.43A26.83,26.83,0,0,1,929.58,323a22.92,22.92,0,0,1,6.5,8.63,33.73,33.73,0,0,1,2.43,9.41,25,25,0,0,1-.5,8.6q-.77,3.09-2,3.6t-4.48-.29L898,344.56q-1-.24-1.19.6a28.14,28.14,0,0,0-.62,10.29,19.92,19.92,0,0,0,4.19,9.84,17,17,0,0,0,9.73,6.15,39.48,39.48,0,0,0,4.13.8,21.54,21.54,0,0,0,3.83.21q1.81-.07,3.18-.18a12.42,12.42,0,0,0,2.91-.62l2.19-.72q.65-.21,3.28-1.2a2.38,2.38,0,0,1,.49,1,2.8,2.8,0,0,1,.07,1.51,4.45,4.45,0,0,1-1.51,2.46q-3.05,3.27-10.17,5.52a26.86,26.86,0,0,1-14.85.33,29.31,29.31,0,0,1-18.82-14.3,31.22,31.22,0,0,1-3.38-24.19q3.53-14.19,13.95-21T918.43,317.43Zm-2.59,6.22a10.24,10.24,0,0,0-6.53.46,13.65,13.65,0,0,0-5.26,3.76,27.74,27.74,0,0,0-3.35,4.76,17.65,17.65,0,0,0-1.66,4q-.24,1,.6,1.19l22.76,5.66q1.27.31,1.79-1.79a18.76,18.76,0,0,0-.82-10.79Q921.31,325,915.83,323.65Z"/><path class="cls-1" d="M964.91,373.45q-2.17,8.71-2.16,12.89,0,1.05,2.9,3a15.76,15.76,0,0,0,4,2.26c.28.07.28.77,0,2.09a7.89,7.89,0,0,1-.87,2.62l-5.18-1.66q-3.25-1-5.88-1.84t-5-1.4q-2.67-.66-5.37-1.19t-6-1.12l-5.43-1a4.1,4.1,0,0,1,.08-2.74c.34-1.36.69-2,1.07-1.9a15.49,15.49,0,0,0,5,0q3.46-.41,4-1.32a48.07,48.07,0,0,0,3.71-10.12l14.54-58.44a50.4,50.4,0,0,0,1.53-9.76q-.14-2.42-6.46-4l-1.41-.35q-.84-.21-.42-1.9.56-2.25,1.4-2,4.46.66,8.57.94t6.88.22q2.77-.05,4.83-.22t3.28-.3l1.09-.18.28.07c.37.09.7.47,1,1.14a4.49,4.49,0,0,1,.42,1.6,45.76,45.76,0,0,0-5,12.79Z"/><path class="cls-1" d="M1041.2,310.23a28.51,28.51,0,0,1,9.4,3.9q3.5,2.44,4.24,4.86a16.25,16.25,0,0,1-2.71,7.6,5.19,5.19,0,0,1-6,2.17,5.65,5.65,0,0,1-3.71-3.38q-1.32-2.79-2.85-5.63a6.66,6.66,0,0,0-4.34-3.54q-3.79-.94-7.23,2.08a24.34,24.34,0,0,0-5.78,8,59.12,59.12,0,0,0-3.88,11.12l-1.61,6.46a.8.8,0,0,0,.18.49.82.82,0,0,0,.49.42l15.45,3.84a1.16,1.16,0,0,1,.67.32,1.53,1.53,0,0,1-.07.88,14.88,14.88,0,0,1-3.29,6l-14.61-3.63a.77.77,0,0,0-1.05.63l-7.79,31.33a55.36,55.36,0,0,0-2,12.92q0,1.05,3.22,3a20.5,20.5,0,0,0,4.44,2.22c.28.07.27.79,0,2.16a8.25,8.25,0,0,1-.89,2.69q-.81-.35-7.17-2.38t-9.73-2.87q-3.37-.84-9.66-2t-7.44-1.25a2.73,2.73,0,0,1-.18-1.69,8.64,8.64,0,0,1,.54-2.18c.27-.68.54-1,.82-.91a19.41,19.41,0,0,0,5.18.17q3.63-.21,4.16-1.13a48,48,0,0,0,4.13-11.21l8-32.31c.16-.65,0-1.05-.6-1.19l-8.43-2.1c-.19,0-.21-.35-.07-.91q.38-1.54,3-3.58a5.82,5.82,0,0,1,5.13-1.41l2.25.56a.77.77,0,0,0,1.05-.63l.35-1.41q3.67-14.75,15.07-23.1T1041.2,310.23Z"/></svg>