<svg id="Layer_1" data-name="Layer 1" xmlns="http://www.w3.org/2000/svg" viewBox="0 0 619 164.38"><defs><style>.cls-1{fill:#1928eb;}</style></defs><title>section</title><path class="cls-1" d="M0,34l24.55-1.34.33,6-17.62,1,.55,10,16.5-.9.33,6-16.5.9.55,10,17.62-1,.33,6L2.08,72.06Z"/><path class="cls-1" d="M38.81,41.44l7.7,21.31,5.4-22,8-.44L50.82,69.41,43,69.83l-12.18-28Z"/><path class="cls-1" d="M89.18,46.47a16,16,0,0,1,1,4.48,26.45,26.45,0,0,1,0,3.71l-18.44,1a9.93,9.93,0,0,0,2,5.54,5.58,5.58,0,0,0,4.93,1.91q4.29-.23,4.9-4l7-.38a10.26,10.26,0,0,1-3.57,7,13,13,0,0,1-8,3,12.4,12.4,0,0,1-9.68-3.6,15.63,15.63,0,0,1-4.53-10.77q-.37-6.87,3.33-11.25a12.45,12.45,0,0,1,9.24-4.51,11.09,11.09,0,0,1,9.45,3.67A13.05,13.05,0,0,1,89.18,46.47ZM77.65,44.09a5.73,5.73,0,0,0-4.48,2.16,8.59,8.59,0,0,0-1.67,5l12.16-.66q-.25-4.64-3.28-6.06A5.75,5.75,0,0,0,77.65,44.09Z"/><path class="cls-1" d="M105.6,43.45q2.25-6.31,7.42-6.59a10.12,10.12,0,0,1,2.55.27l.26,6.94a15.4,15.4,0,0,0-3.25-.18q-6.93.38-6.41,10l.68,12.51-6.93.38-1.56-28.6,6.93-.38Z"/><path class="cls-1" d="M126.9,36.63l8,20.18,4.87-20.88,7-.38-9.09,34.3q-1.43,5.2-3.74,7.57A8.84,8.84,0,0,1,127.91,80a17.18,17.18,0,0,1-7.74-1.46l-.33-6.11a11.42,11.42,0,0,0,6.27,1.6,4.15,4.15,0,0,0,3.29-1.83,13,13,0,0,0,1.91-4.4L132,65,119,37.06Z"/><path class="cls-1" d="M171.17,62.14a18,18,0,0,1-6,1.86,13,13,0,0,1-3.93-.32,8.84,8.84,0,0,1-3.05-1.42,8.44,8.44,0,0,1-3.06-6.49l-.87-16-4,.22L150,35.38l4-.22-.41-7.52,6.93-.38.41,7.52,7.75-.42.25,4.64-7.75.42L162,55.16q.19,3.52,3.54,3.34a14.13,14.13,0,0,0,4.35-1.18Z"/><path class="cls-1" d="M184.53,38.15q2.64-5.56,8.28-5.87t8.5,3a14.63,14.63,0,0,1,3.17,9L205.39,61l-6.93.38-.91-16.68a6.74,6.74,0,0,0-1.79-4.7,5.63,5.63,0,0,0-4.37-1.38,5.89,5.89,0,0,0-4.59,2.72q-1.83,2.57-1.68,7.51L185.83,62l-6.93.38-2.2-40.29,6.93-.38Z"/><path class="cls-1" d="M213.78,22.65a4,4,0,0,1,1-3,5.14,5.14,0,0,1,6.31-.34,3.9,3.9,0,0,1,1.31,2.9,3.9,3.9,0,0,1-1,3,5.14,5.14,0,0,1-6.31.34A4,4,0,0,1,213.78,22.65Zm1.32,9.12,6.93-.38L223.59,60l-6.93.38Z"/><path class="cls-1" d="M241.45,35.34a9.45,9.45,0,0,1,8.73-6.19q5.29-.29,8.15,3a14.63,14.63,0,0,1,3.17,9l.91,16.68-6.93.38-.91-16.68a6.74,6.74,0,0,0-1.79-4.7,5.63,5.63,0,0,0-4.37-1.38,5.88,5.88,0,0,0-4.59,2.72q-1.83,2.57-1.68,7.51l.72,13.21-6.93.38-1.56-28.54,6-.33Z"/><path class="cls-1" d="M274.93,45.47a9.24,9.24,0,0,1-3.86-7.15,9.14,9.14,0,0,1,3.23-7.72,12.76,12.76,0,0,1,7.92-3.2,15.47,15.47,0,0,1,7.7,1.29,7.75,7.75,0,0,1,2.58-5.56,8.81,8.81,0,0,1,5.7-2.37v6.65q-5.05.28-5,3.63a8.77,8.77,0,0,1,2.47,5.4,10.13,10.13,0,0,1-.74,4.78,9.5,9.5,0,0,1-2.53,3.35A13.31,13.31,0,0,1,284,47.87a14.81,14.81,0,0,1-5.27-.6,2.82,2.82,0,0,0-2.2,2.95q.14,2.64,4.61,2.4l9.57-.52q9.75-.53,10.12,6.28a9.65,9.65,0,0,1-.9,4.55A12,12,0,0,1,296.77,67a19.1,19.1,0,0,1-11.89,4.42q-7,.38-11.61-2.25-4.26-2.54-4.48-6.53a5.56,5.56,0,0,1,1.39-4.29,7.67,7.67,0,0,1,4.15-2.2q-3.58-1.93-3.75-5a4.84,4.84,0,0,1,1.1-3.51A7.18,7.18,0,0,1,274.93,45.47Zm6,12q-5.51.53-5.29,4.47.11,2,2.49,3.07a11.8,11.8,0,0,0,5.56.9,18.35,18.35,0,0,0,4.93-.8,10.08,10.08,0,0,0,2.95-1.57,5.06,5.06,0,0,0,2.41-4.37,2.25,2.25,0,0,0-.83-1.69,3.06,3.06,0,0,0-2.18-.56Zm7.91-20.25a5.65,5.65,0,0,0-1.53-3.8,5.09,5.09,0,0,0-4.1-1.28,5,5,0,0,0-5.23,5.67,5.54,5.54,0,0,0,1.62,3.83,5.32,5.32,0,0,0,4.19,1.3,5,5,0,0,0,3.94-1.75A5.76,5.76,0,0,0,288.79,37.27Z"/><path class="cls-1" d="M321,16.81a4,4,0,0,1,1-3,5.14,5.14,0,0,1,6.31-.34,3.9,3.9,0,0,1,1.31,2.9,3.9,3.9,0,0,1-1,3,5.14,5.14,0,0,1-6.31.34A4,4,0,0,1,321,16.81Zm1.32,9.12,6.93-.38,1.56,28.6-6.93.38Z"/><path class="cls-1" d="M346.56,44.57q.34,4,6.15,3.73a6.45,6.45,0,0,0,3.62-1.17,2.75,2.75,0,0,0,1.32-2.34,2.41,2.41,0,0,0-1-1.95,8.68,8.68,0,0,0-2.83-1.14l-6.35-1.89q-7.06-2-7.36-7.49a6.76,6.76,0,0,1,2.94-6q3.14-2.38,8.63-2.68t8.59,1.95a7.84,7.84,0,0,1,3.41,5.88l-6.52.36a2.87,2.87,0,0,0-1.47-2.16,6.35,6.35,0,0,0-3.57-.63,6,6,0,0,0-3.5,1.1,2.58,2.58,0,0,0-1.15,2.15q.11,2.06,3.63,2.86L358,37.29a13.43,13.43,0,0,1,5.29,2.57,6,6,0,0,1,2,4.39,7.57,7.57,0,0,1-3,6.29,14.51,14.51,0,0,1-9,3.2q-5.7.31-9.3-2a8.3,8.3,0,0,1-3.91-6.83Z"/><path class="cls-1" d="M411.57,14.67q3.78,2.95,4.1,8.79t-3.12,9.18q-3.44,3.34-9.9,3.69l-6.46.35.76,13.86-7,.38-2.08-38.11,13.45-.73Q407.79,11.73,411.57,14.67Zm-9.25,15.61a6.48,6.48,0,0,0,4.78-2,6,6,0,0,0,1.41-4.46,6.15,6.15,0,0,0-1.88-4.31,6.42,6.42,0,0,0-5-1.47l-6.46.35.67,12.21Z"/><path class="cls-1" d="M434.46,19.11a15.83,15.83,0,0,1,5.45.62,11.33,11.33,0,0,1,4.5,2.55q4.28,3.89,4.67,11.17t-3.44,11.5a13,13,0,0,1-9.54,4.29A13.36,13.36,0,0,1,426,46q-4.27-3.83-4.67-11.05t3.43-11.61A13.35,13.35,0,0,1,434.46,19.11Zm7.69,14.66q-.25-4.52-2.13-6.69a5.88,5.88,0,0,0-5-2,6.55,6.55,0,0,0-5,2.54q-1.87,2.37-1.63,6.89t2.16,6.69a5.92,5.92,0,0,0,5,2,6.52,6.52,0,0,0,5-2.54Q442.4,38.29,442.15,33.77Z"/><path class="cls-1" d="M462.07,38.28q.34,4,6.15,3.73a6.45,6.45,0,0,0,3.62-1.17,2.75,2.75,0,0,0,1.32-2.34,2.41,2.41,0,0,0-1-1.95,8.7,8.7,0,0,0-2.83-1.14L463,33.51q-7.06-2-7.36-7.49a6.76,6.76,0,0,1,2.94-6q3.14-2.38,8.63-2.68t8.59,1.95a7.84,7.84,0,0,1,3.41,5.88l-6.52.36a2.87,2.87,0,0,0-1.47-2.16,6.35,6.35,0,0,0-3.57-.63,6,6,0,0,0-3.5,1.1A2.58,2.58,0,0,0,463,26q.11,2.06,3.63,2.86L473.51,31a13.43,13.43,0,0,1,5.29,2.57,6,6,0,0,1,2,4.4,7.57,7.57,0,0,1-3,6.29,14.51,14.51,0,0,1-9,3.2,15.36,15.36,0,0,1-9.3-2,8.3,8.3,0,0,1-3.91-6.83Z"/><path class="cls-1" d="M493.61,36.56q.34,4,6.15,3.73a6.45,6.45,0,0,0,3.62-1.17,2.75,2.75,0,0,0,1.32-2.34,2.41,2.41,0,0,0-1-1.95,8.7,8.7,0,0,0-2.83-1.14l-6.35-1.89q-7.06-2-7.36-7.49a6.76,6.76,0,0,1,2.94-6q3.14-2.38,8.63-2.68t8.59,1.95a7.84,7.84,0,0,1,3.41,5.88l-6.52.35a2.87,2.87,0,0,0-1.47-2.16,6.35,6.35,0,0,0-3.57-.63,6,6,0,0,0-3.5,1.1,2.58,2.58,0,0,0-1.15,2.15q.11,2.06,3.63,2.86L505,29.28a13.42,13.42,0,0,1,5.29,2.57,6,6,0,0,1,2,4.4,7.57,7.57,0,0,1-3,6.29,14.51,14.51,0,0,1-9,3.2q-5.7.31-9.3-2a8.3,8.3,0,0,1-3.91-6.83Z"/><path class="cls-1" d="M519.45,6a4,4,0,0,1,1-3,5.14,5.14,0,0,1,6.31-.34A3.9,3.9,0,0,1,528,5.53a3.9,3.9,0,0,1-1,3,5.14,5.14,0,0,1-6.31.34A4,4,0,0,1,519.45,6Zm1.32,9.12,6.93-.38,1.56,28.6-6.93.38Z"/><path class="cls-1" d="M564.21,16.16q3.84,3.91,4.2,10.61A16.14,16.14,0,0,1,565.19,38a11.84,11.84,0,0,1-9,4.67,8.82,8.82,0,0,1-4.92-1.15,9.52,9.52,0,0,1-3.73-4.15l-1.43,5-4.52.25-2.2-40.29L546.32,2l.84,15.33A8.9,8.9,0,0,1,555,12.54,11.5,11.5,0,0,1,564.21,16.16ZM547.65,26.25l.2,3.76a6.88,6.88,0,0,0,2.44,4.81,6.54,6.54,0,0,0,4.83,1.62,6,6,0,0,0,4.65-2.7,9.84,9.84,0,0,0,1.65-6.54,9.7,9.7,0,0,0-2.31-6.26,6.12,6.12,0,0,0-5-2.11,6.62,6.62,0,0,0-4.77,2.2A6.92,6.92,0,0,0,547.65,26.25Z"/><path class="cls-1" d="M576,.38,583,0l2.2,40.29-6.93.38Z"/><path class="cls-1" d="M617.65,17.66a16,16,0,0,1,1,4.48,26.4,26.4,0,0,1,0,3.71l-18.44,1a9.94,9.94,0,0,0,2,5.54,5.58,5.58,0,0,0,4.93,1.91q4.29-.23,4.9-4l7-.38a10.26,10.26,0,0,1-3.57,7,13,13,0,0,1-8,3,12.4,12.4,0,0,1-9.68-3.6,15.63,15.63,0,0,1-4.53-10.77q-.37-6.87,3.33-11.25a12.45,12.45,0,0,1,9.24-4.51,11.09,11.09,0,0,1,9.45,3.67A13.05,13.05,0,0,1,617.65,17.66Zm-11.53-2.38a5.73,5.73,0,0,0-4.48,2.16,8.59,8.59,0,0,0-1.67,5l12.16-.66q-.25-4.64-3.28-6.06A5.76,5.76,0,0,0,606.13,15.29Z"/><path class="cls-1" d="M178.67,127.27a12.35,12.35,0,0,1,2.69,8.51,12.62,12.62,0,0,1-3.13,8.6,9.26,9.26,0,0,1-7.28,3.15,6.9,6.9,0,0,1-3.78-1.17,7.44,7.44,0,0,1-2.68-3.45l-1.4,3.84-3.54-.06.52-31.55,5.43.09-.2,12a7,7,0,0,1,6.38-3.3A9,9,0,0,1,178.67,127.27Zm-13.48,7,0,2.94a5.38,5.38,0,0,0,1.64,3.89,5.12,5.12,0,0,0,3.68,1.53,4.71,4.71,0,0,0,3.78-1.85,7.7,7.7,0,0,0,1.65-5,7.59,7.59,0,0,0-1.46-5,4.79,4.79,0,0,0-3.81-1.93,5.18,5.18,0,0,0-3.84,1.45A5.41,5.41,0,0,0,165.19,134.22Z"/><path class="cls-1" d="M191.38,124.86,196.5,141l5-16,5.52.09-9,26.26a13.55,13.55,0,0,1-3.34,5.7,6.91,6.91,0,0,1-4.88,1.67,13.44,13.44,0,0,1-6-1.57l.08-4.78a8.93,8.93,0,0,0,4.8,1.6,3.25,3.25,0,0,0,2.67-1.24,10.12,10.12,0,0,0,1.73-3.33l.73-2.15-8.6-22.5Z"/><path class="cls-1" d="M224.49,117.91l18.81.31-.08,4.69-13.38-.22-.13,7.87,12.23.2-.08,4.65-12.23-.2-.21,12.65-5.43-.09Z"/><path class="cls-1" d="M249.92,118.6a3.09,3.09,0,0,1,.91-2.31,4,4,0,0,1,4.94.08,3.46,3.46,0,0,1-.08,4.65,4,4,0,0,1-4.94-.08A3.09,3.09,0,0,1,249.92,118.6Zm.53,7.19,5.43.09-.37,22.4-5.43-.09Z"/><path class="cls-1" d="M265.68,116.89l5.43.09-.52,31.55-5.43-.09Z"/><path class="cls-1" d="M279.9,119.1a3.09,3.09,0,0,1,.91-2.31,4,4,0,0,1,4.94.08,3.46,3.46,0,0,1-.08,4.65,4,4,0,0,1-4.94-.08A3.09,3.09,0,0,1,279.9,119.1Zm.53,7.19,5.43.09-.37,22.4-5.43-.09Z"/><path class="cls-1" d="M315.31,131.14a7.67,7.67,0,0,1,7.67-4.7,7.56,7.56,0,0,1,6.16,2.82,11,11,0,0,1,2,7.21l-.22,13.06-5.47-.09.22-13.06a5.27,5.27,0,0,0-1.13-3.77,4.4,4.4,0,0,0-3.34-1.32,4.21,4.21,0,0,0-3.57,1.83,10.08,10.08,0,0,0-1.57,5.68l-.17,10.49-5.43-.09.22-13.06a5.27,5.27,0,0,0-1.13-3.77,4.4,4.4,0,0,0-3.34-1.32,4.6,4.6,0,0,0-3.73,1.87,9.55,9.55,0,0,0-1.73,5.77L300.57,149l-5.43-.09.37-22.35,4.74.08.53,3.87a7.39,7.39,0,0,1,7.16-4.34,8,8,0,0,1,4.65,1.37A7.75,7.75,0,0,1,315.31,131.14Z"/><path class="cls-1" d="M348.42,126.86a12.39,12.39,0,0,1,4.22.78,8.86,8.86,0,0,1,3.37,2.24q3.12,3.27,3,9t-3.32,8.78a10.14,10.14,0,0,1-7.68,2.82,10.45,10.45,0,0,1-7.68-3.07q-3.12-3.23-3-8.88t3.32-8.87A10.44,10.44,0,0,1,348.42,126.86Zm5.19,11.86a8.56,8.56,0,0,0-1.29-5.34,4.6,4.6,0,0,0-3.81-1.83,5.12,5.12,0,0,0-4.05,1.7,7.82,7.82,0,0,0-1.65,5.29,8.45,8.45,0,0,0,1.32,5.34,4.63,4.63,0,0,0,3.81,1.83,5.1,5.1,0,0,0,4-1.7A7.82,7.82,0,0,0,353.6,138.72Z"/><path class="cls-1" d="M371.39,131.7a8.13,8.13,0,0,1,13.34-1.53,11.44,11.44,0,0,1,2,7.21l-.22,13.06-5.43-.09.22-13.06a5.27,5.27,0,0,0-1.13-3.77,4.4,4.4,0,0,0-3.34-1.32,4.6,4.6,0,0,0-3.73,1.87,9.55,9.55,0,0,0-1.73,5.77l-.17,10.35-5.43-.09.37-22.35,4.74.08Z"/><path class="cls-1" d="M407.45,120.93l18.81.31-.08,4.69-13.38-.22-.13,7.87,12.23.2-.08,4.65-12.23-.2-.21,12.65-5.43-.09Z"/><path class="cls-1" d="M432.88,121.63a3.09,3.09,0,0,1,.91-2.31,4,4,0,0,1,4.94.08,3.46,3.46,0,0,1-.08,4.65,4,4,0,0,1-4.94-.08A3.09,3.09,0,0,1,432.88,121.63Zm.53,7.19,5.43.09-.37,22.4-5.43-.09Z"/><path class="cls-1" d="M451.27,144.7q0,3.18,4.59,3.25a5,5,0,0,0,2.89-.71,2.15,2.15,0,0,0,1.16-1.75,1.89,1.89,0,0,0-.66-1.58,6.79,6.79,0,0,0-2.14-1L452.25,141q-5.4-2-5.33-6.25a5.29,5.29,0,0,1,2.63-4.53,12.07,12.07,0,0,1,6.88-1.61,10.27,10.27,0,0,1,6.59,2,6.13,6.13,0,0,1,2.34,4.78l-5.11-.08a2.24,2.24,0,0,0-1-1.77,5,5,0,0,0-2.75-.69,4.7,4.7,0,0,0-2.79.67,2,2,0,0,0-1,1.62q0,1.61,2.67,2.44l5.26,2.06a10.5,10.5,0,0,1,4,2.3,4.68,4.68,0,0,1,1.34,3.54,5.92,5.92,0,0,1-2.7,4.74,11.35,11.35,0,0,1-7.21,2,12,12,0,0,1-7.14-2.07,6.49,6.49,0,0,1-2.67-5.54Z"/><path class="cls-1" d="M478.55,133.24a7.28,7.28,0,0,1,6.79-4.12q4.42.07,6.46,2.82a11.44,11.44,0,0,1,2,7.21l-.22,13.06-5.43-.09.22-13.06a5.27,5.27,0,0,0-1.13-3.77,4.4,4.4,0,0,0-3.34-1.32,4.6,4.6,0,0,0-3.73,1.87,9.55,9.55,0,0,0-1.73,5.77L478.25,152l-5.43-.09.52-31.55,5.43.09Z"/><path class="cls-1" d="M509.51,139.41a25.87,25.87,0,0,1,6.15,1l0-2.21a5.34,5.34,0,0,0-.89-3.49,3.81,3.81,0,0,0-3.06-1.18,5.46,5.46,0,0,0-3.3.8,2.83,2.83,0,0,0-1.19,2.4l-5.93-.1a6,6,0,0,1,2.78-5.47,14,14,0,0,1,7.55-1.58q6.9.11,8.84,5a10.12,10.12,0,0,1,.63,3.92l-.23,14.21-4.74-.08-.36-3a7.19,7.19,0,0,1-6.68,3.52,9.8,9.8,0,0,1-6.68-2.23,6.66,6.66,0,0,1-2.12-5.17,5.46,5.46,0,0,1,2.52-4.74A11.61,11.61,0,0,1,509.51,139.41Zm6.09,4.43a19.43,19.43,0,0,0-5-.82q-4.42-.07-4.46,2.87a2.77,2.77,0,0,0,1,2.16,4.82,4.82,0,0,0,3.23,1,4.9,4.9,0,0,0,3.7-1.43A5.51,5.51,0,0,0,515.6,143.83Z"/><path class="cls-1" d="M532.38,130.49l5.12,16.19,5-16,5.52.09L539,157a13.55,13.55,0,0,1-3.34,5.7,6.91,6.91,0,0,1-4.88,1.67,13.44,13.44,0,0,1-6-1.57l.08-4.78a8.93,8.93,0,0,0,4.8,1.6,3.25,3.25,0,0,0,2.67-1.24,10.13,10.13,0,0,0,1.73-3.33l.73-2.15-8.6-22.5Z"/><path class="cls-1" d="M570.48,137.2a12.5,12.5,0,0,1,.52,3.55,20.65,20.65,0,0,1-.23,2.89l-14.44-.24a7.77,7.77,0,0,0,1.26,4.44,4.36,4.36,0,0,0,3.74,1.76q3.36.06,4.05-2.88l5.47.09a8,8,0,0,1-3.17,5.24,10.15,10.15,0,0,1-6.43,1.92,9.7,9.7,0,0,1-7.35-3.34A12.22,12.22,0,0,1,551,142a12.08,12.08,0,0,1,3.22-8.6,9.74,9.74,0,0,1,7.46-3,8.68,8.68,0,0,1,7.17,3.38A10.22,10.22,0,0,1,570.48,137.2Zm-8.86-2.49a4.49,4.49,0,0,0-3.61,1.44,6.72,6.72,0,0,0-1.58,3.82l9.52.16q.06-3.63-2.22-4.91A4.5,4.5,0,0,0,561.62,134.7Z"/></svg>