<svg id="Layer_1" data-name="Layer 1" xmlns="http://www.w3.org/2000/svg" viewBox="0 0 1194.82 289.65"><defs><style>.cls-1{fill:#fff;stroke:#1928eb;stroke-miterlimit:10;stroke-width:1.4px;}</style></defs><title>title</title><path class="cls-1" d="M17.86,204.47q2.35-.67,17.77-5.89a6.27,6.27,0,0,1,.86,2.29c.3,1.23.32,1.88.06,2a15,15,0,0,0-4.43,2.25q-2.35,1.66-1.83,3.48a8.49,8.49,0,0,0,2.14,3.06l21,21.36q.84.47,1.23-.63,3.23-9.93,5.93-20.28t2-12.69q-.41-1.43-3.13-1.86a15.91,15.91,0,0,0-6.64.69q-.52.15-1-1.68a4.67,4.67,0,0,1-.28-2.46q13.39-3,15.87-3.66,3-.85,5.37-1.67T77.63,187l3.88-1.46a9,9,0,0,1,.85,2q.59,2.09.07,2.23a18.88,18.88,0,0,0-5.08,2.71A11,11,0,0,0,73.23,197q-2.19,6.68-7.46,25.3T61,242.65L66.75,263a51.85,51.85,0,0,0,4.38,11.44q.52.84,4.16,1a19,19,0,0,0,4.68-.13q.52-.15,1.11,1.94a7,7,0,0,1,.33,2.16l-5.06,1q-3.33.67-6.11,1.31t-5.38,1.39q-3.52,1-9.47,3.11T48,288.88a3.14,3.14,0,0,1-1.12-1.94q-.59-2.08-.2-2.2a18.49,18.49,0,0,0,4.53-2.41q3-2,3.06-3.12a48.35,48.35,0,0,0-2.22-11.77l-5.48-19.29a8.46,8.46,0,0,0-1.57-2.3q-1.39-1.65-4.56-4.9t-5.54-5.61l-7.66-7.62-7.84-7.77q-5.78-6-9.33-7.07a13.6,13.6,0,0,0-4.31-.54,16.25,16.25,0,0,0-3.92.34q-.39.11-.83-1.17a4.14,4.14,0,0,1-.32-1.88Q3.78,208.47,17.86,204.47Z"/><path class="cls-1" d="M124.08,204.43A29.88,29.88,0,0,1,147.43,207,29,29,0,0,1,162,225.23a30.42,30.42,0,0,1-21.13,37.7,29.69,29.69,0,0,1-23.43-2.64,30.51,30.51,0,0,1-11.85-41.44A29.7,29.7,0,0,1,124.08,204.43Zm0,6.61q-6.13,1.74-7.83,8.64a29.15,29.15,0,0,0,.63,15.11A39.52,39.52,0,0,0,126.38,252q6.46,6.62,14,4.47,6.13-1.74,7.88-8.72a28.82,28.82,0,0,0-.55-15.06,46.53,46.53,0,0,0-5.27-12.1,23.91,23.91,0,0,0-8.24-8.16A12.57,12.57,0,0,0,124.12,211Z"/><path class="cls-1" d="M221.68,191.91,229,217.73q1.78,6.26,3.64,8.83a2.82,2.82,0,0,0,1.8.62,10.53,10.53,0,0,0,2.43-.13,20.23,20.23,0,0,0,2.19-.48,2.52,2.52,0,0,1,1.15-.18c.37,0,.66.33.85,1a10.34,10.34,0,0,1,.24,1.83c.06.88-.08,1.36-.43,1.46a31.13,31.13,0,0,0-4.5,1.77q-2.67,1.26-5.15,2.45t-4.68,2.39q-2.2,1.19-4.92,2.52-.91.26-1.51-1.83l-1.63-5.74q-.32-.61-.58-.54a30.22,30.22,0,0,1-6.28,8.13,22.69,22.69,0,0,1-9.56,5.53,14.2,14.2,0,0,1-8.39,0,16.35,16.35,0,0,1-6.84-4.25,29.12,29.12,0,0,1-4.89-6.78,41.4,41.4,0,0,1-3.18-8l-4.15-14.6q-1.74-6.13-4.46-7.75a7.53,7.53,0,0,0-3.55-1.1,14.26,14.26,0,0,0-3.35.11q-1.34.24-1.41,0-1.07-3.78-.46-4.1a102.05,102.05,0,0,0,10.25-4.6,106.25,106.25,0,0,0,9.63-5.27,2.18,2.18,0,0,0,.48-.28,2.29,2.29,0,0,1,.48-.28c.43-.12.85.09,1.24.63a4.84,4.84,0,0,1,.73,1.34q1.35,9.2,2.09,11.81l4.45,15.64q2.89,10.17,7,13.79t10.52,1.8a10.64,10.64,0,0,0,6.32-4.54q2.14-3.36,1.48-5.7L210,201.73q-1.74-6.13-4.46-7.75a6.53,6.53,0,0,0-3.49-1.12,15.28,15.28,0,0,0-3.42.13q-1.34.24-1.42,0-1.07-3.78-.33-4.13A103.87,103.87,0,0,0,207,184.26,106.41,106.41,0,0,0,216.6,179a8,8,0,0,0,1-.56c.43-.12.87.08,1.3.62a2.5,2.5,0,0,1,.67,1.36Q221,189.57,221.68,191.91Z"/><path class="cls-1" d="M275.69,161.35q16.82-4.78,24.41,21.95l3.52,12.38a56.77,56.77,0,0,0,4.25,11.47q.52.84,4.12.87a20.78,20.78,0,0,0,4.77-.3c.26-.07.59.52,1,1.76a7.67,7.67,0,0,1,.53,2.6q-.82.09-7,1.42t-9.17,2.18q-3.13.89-8.56,2.85T287,221q-.67-.37-1.23-2.33t0-2.1a16.15,16.15,0,0,0,4.09-2.22q2.66-1.81,2.66-2.8a39,39,0,0,0-1.66-9.81l-3.52-12.38q-3.07-10.82-7.23-14.29t-10.54-1.65a12.54,12.54,0,0,0-6.65,4.36q-2.48,3.17-1.74,5.78l6.37,22.42a56.77,56.77,0,0,0,4.25,11.47q.52.84,4,.91a19.55,19.55,0,0,0,4.51-.23q.52-.15,1.12,1.72a7.67,7.67,0,0,1,.53,2.6q-1.08.17-7,1.42T266,226q-3.13.89-8.95,3t-6.83,2.5q-.67-.37-1.23-2.33t0-2.1a18.93,18.93,0,0,0,4.48-2.33q2.92-1.89,2.92-2.87a44.31,44.31,0,0,0-1.79-9.78l-6-21.25q-1.74-6.13-4.46-7.75a6.53,6.53,0,0,0-3.49-1.12,15.46,15.46,0,0,0-3.35.11q-1.28.22-1.35,0-1.07-3.78-.46-4.1,5.85-2.22,19.88-9.87a.88.88,0,0,1,.27-.29,1.31,1.31,0,0,1,.37-.18l.33-.09c.35-.1.74.12,1.17.65a4.13,4.13,0,0,1,.8,1.32,46.27,46.27,0,0,0,.81,4.84c.1.35.2.55.32.61s.27-.22.54-.58a30.06,30.06,0,0,1,6.46-7.75A23.73,23.73,0,0,1,275.69,161.35Z"/><path class="cls-1" d="M334.17,145a42.93,42.93,0,0,1,11.3-1.38,41.8,41.8,0,0,0,10.91-1.27l7.43-2.11c.17,0,.64.43,1.39,1.43a8.34,8.34,0,0,1,1.39,2.42q.52,1.83-.26,2l-8.47,2.41q-.52.15-.41.54,0,.13,2.14,3.06a19.2,19.2,0,0,1,3,5.92q2.19,7.69-2.51,15.72a23.22,23.22,0,0,1-14.34,10.77,56,56,0,0,1-8.23,1.78,7.29,7.29,0,0,0-2.18,3.23,5.77,5.77,0,0,0-.4,3.56,2.79,2.79,0,0,0,1.87,1.86,9.12,9.12,0,0,0,4.22.21q2.72-.35,4.58-.74t5.29-1.22l2-.56q13.15-3.31,20.12-1.84t8.78,7.86q2.91,9.74-4.57,19.61a37,37,0,0,1-20,13.43,35.22,35.22,0,0,1-17.66,1.07q-8.18-1.76-10.14-8.67-1.07-3.78,1.64-8.36a22.39,22.39,0,0,1,6.61-7.23,15.46,15.46,0,0,1-7.39-2.2,9.86,9.86,0,0,1-4.81-6q-1.59-5.6,6.35-14.34-4.26-.62-8.95-4.71a19.94,19.94,0,0,1-6.28-9.7q-2.63-9.26,2.63-16.53T334.17,145Zm-4.54,21.72a21.44,21.44,0,0,0,5.66,10,8.42,8.42,0,0,0,8.54,2.29,8,8,0,0,0,6-5.73,18,18,0,0,0-.33-9.84q-2-6.91-5.79-10.47a8.67,8.67,0,0,0-8.78-2.15,7.64,7.64,0,0,0-5.76,6A19.67,19.67,0,0,0,329.63,166.73Zm41.9,41.35q-1.3-4.56-8.31-4.19a86,86,0,0,0-18.09,3.52,2.21,2.21,0,0,0-.61.31,6,6,0,0,0-.54.58q-1.51,1.13-2.29,1.85a11.75,11.75,0,0,0-1.68,2A6.58,6.58,0,0,0,338.9,215a7.87,7.87,0,0,0,.3,3.29q1.33,4.69,7.18,6.41a21.12,21.12,0,0,0,12,0q7.3-2.07,11-6.78T371.53,208.08Z"/><path class="cls-1" d="M398.28,119.75q-2.78-9.78,3.53-18.82a29.61,29.61,0,0,1,16.6-12,47.63,47.63,0,0,1,6.5-1.42q2.85-.39,8.09-.54t7.18-.28a120.83,120.83,0,0,1,7.27,19.63,1.47,1.47,0,0,1-1.23,1.62q-3.52,1-4.11-.1a23.82,23.82,0,0,0-8.94-10.14,15.39,15.39,0,0,0-13.36-2.4q-6,1.7-8.23,6t-.6,10a15.23,15.23,0,0,0,1.51,3.58,9.52,9.52,0,0,0,2.81,2.94q1.85,1.31,3,2.17a16.12,16.12,0,0,0,4.06,1.88q2.89,1,3.92,1.42t4.63,1.43a41.14,41.14,0,0,0,4.33,1.1,49.82,49.82,0,0,0,5.16,1.56q4.2,1.13,5.91,1.7t5.12,2.14a19.53,19.53,0,0,1,5.24,3.3,27.84,27.84,0,0,1,3.78,4.63,22.84,22.84,0,0,1,3,6.55,22,22,0,0,1-3.52,19.6,31.35,31.35,0,0,1-17.56,12.32q-7.82,2.22-25,3.17a118.18,118.18,0,0,1-5.5-11.19,91.78,91.78,0,0,1-3.63-9Q408,159.53,410,159q3.39-1,4.08,0a26.36,26.36,0,0,0,3.29,4.63,39.33,39.33,0,0,0,5.29,5,17.84,17.84,0,0,0,7.61,3.47,19.05,19.05,0,0,0,9.24-.44,15.18,15.18,0,0,0,9.13-6.54q3-4.8.93-12.1a11.81,11.81,0,0,0-2.07-4.06,15.64,15.64,0,0,0-3-3,19.83,19.83,0,0,0-4.15-2.2q-2.63-1.08-4.33-1.59t-5-1.34q-3.27-.83-4.62-1.15a9.22,9.22,0,0,0-1.73-.64q-4.45-1.27-6.77-2a65.71,65.71,0,0,1-6.11-2.42,26.82,26.82,0,0,1-6-3.44,25.65,25.65,0,0,1-4.36-4.68A20.39,20.39,0,0,1,398.28,119.75Z"/><path class="cls-1" d="M488.44,100.89a32.72,32.72,0,0,1,13-1.22q6.06.74,9.18,2.81a16.76,16.76,0,0,1,.59,7.79,5,5,0,0,1-3.66,4.21,6.07,6.07,0,0,1-4.35-.17,15.4,15.4,0,0,1-4.29-3.43q-4.7-5.14-10.44-3.52t-7.32,8.21q-1.71,6.62.73,15.22,3.33,11.73,9.77,16A16,16,0,0,0,505.5,149a36.93,36.93,0,0,0,3.73-1.27,20.2,20.2,0,0,0,3.2-1.62q1.43-.9,2.5-1.63a11.66,11.66,0,0,0,2.08-1.86l1.45-1.61q.43-.47,2.11-2.5a2.23,2.23,0,0,1,.87.6,2.62,2.62,0,0,1,.76,1.19,4.16,4.16,0,0,1-.08,2.7q-1,4.08-5.69,9.23a24.89,24.89,0,0,1-11.77,7.15,27.42,27.42,0,0,1-22.16-2.86,29.91,29.91,0,0,1-14-18.41,30.82,30.82,0,0,1,2-22.75Q475.8,104.49,488.44,100.89Z"/><path class="cls-1" d="M559.75,80.63q16.69-4.74,24,20.94L587.55,115q2.26,8,4.38,11.44.39.88,4,.91a20.77,20.77,0,0,0,4.77-.3c.26-.07.59.52,1,1.76a14.27,14.27,0,0,1,.66,2.56q-1,.13-7.12,1.46t-9,2.15q-3.26.93-8.69,2.89t-6.7,2.47A5.06,5.06,0,0,1,569.7,138q-.56-2-.17-2.07a16.19,16.19,0,0,0,4.22-2.26q2.65-1.81,2.79-2.83a51.42,51.42,0,0,0-1.92-9.74L571,108.29q-3.07-10.82-7.17-14.09t-10.49-1.46A13,13,0,0,0,546.79,97q-2.63,3.15-1.85,5.88l6.37,22.42q2.26,8,4.38,11.44.52.84,4,.91a19.17,19.17,0,0,0,4.64-.26c.26-.07.59.52,1,1.76a7.72,7.72,0,0,1,.53,2.6q-1.08.17-7,1.42t-8.91,2.11q-3.13.89-8.95,3t-6.83,2.5q-.67-.37-1.23-2.33t0-2.1a18.92,18.92,0,0,0,4.48-2.33q2.92-1.89,2.92-2.87a43.58,43.58,0,0,0-1.75-9.65L523.14,77.23A53.43,53.43,0,0,0,520,68.55q-1.25-1.9-7.37-.16l-1.17.33q-.78.22-1.37-1.86c-.39-1.39-.33-2.16.19-2.31q3.93-1.54,7.4-3.23t5.69-3q2.23-1.34,3.8-2.49t3.34-2.36l.26-.07a1.46,1.46,0,0,1,1.25.42A3.72,3.72,0,0,1,533,55a43.68,43.68,0,0,0,1.92,12.7L542.42,94c.15.52.4.73.74.63.08,0,.22-.2.41-.54A25.81,25.81,0,0,1,550,86.15,25,25,0,0,1,559.75,80.63Z"/><path class="cls-1" d="M621.93,63a29.88,29.88,0,0,1,23.35,2.59,29,29,0,0,1,14.54,18.2A30.91,30.91,0,1,1,621.93,63Zm0,6.61q-6.13,1.74-7.83,8.64a29.15,29.15,0,0,0,.63,15.11,39.52,39.52,0,0,0,9.46,17.18q6.46,6.62,14,4.47,6.13-1.74,7.88-8.72a28.81,28.81,0,0,0-.55-15.06,46.51,46.51,0,0,0-5.27-12.1,23.91,23.91,0,0,0-8.24-8.16A12.57,12.57,0,0,0,622,69.57Z"/><path class="cls-1" d="M692.29,85q2.3,8.08,4.25,11.47.52.84,3.77,1.11a14.82,14.82,0,0,0,4.29,0c.26-.07.58.49,1,1.7a7.38,7.38,0,0,1,.51,2.53l-5,1.06q-3.12.67-5.63,1.25t-4.73,1.2q-2.48.7-4.92,1.54t-5.38,1.88l-4.86,1.73q-.67-.37-1.21-2.26t0-2a14.51,14.51,0,0,0,4.05-2.35q2.62-1.94,2.62-2.93a44.91,44.91,0,0,0-1.7-9.94L663.91,36.66a47.24,47.24,0,0,0-3.3-8.64q-1.25-1.9-7.11-.23l-1.3.37q-.78.22-1.23-1.34c-.39-1.39-.33-2.16.19-2.31q3.93-1.54,7.4-3.23t5.69-3q2.23-1.33,3.82-2.42t2.53-1.77l.8-.65.26-.07a1.62,1.62,0,0,1,1.33.47,4.17,4.17,0,0,1,1.09,1.1A42.85,42.85,0,0,0,676,27.59Z"/><path class="cls-1" d="M724.4,33.84q8.08-2.3,13.33.79T745.9,48l7.3,25.68a6.18,6.18,0,0,0,2.3,3.64,4.07,4.07,0,0,0,3.52.48,8.46,8.46,0,0,0,4-3q.86,0,1.19,1.21a8.05,8.05,0,0,1,.33,4.13A33.53,33.53,0,0,1,760.2,85a14.13,14.13,0,0,1-5.78,3.47,9.89,9.89,0,0,1-6.5-.55,11.11,11.11,0,0,1-5.15-3.75q-.09.17-.74,1.13t-1.85,2.43a39.84,39.84,0,0,1-2.8,3,21.58,21.58,0,0,1-3.93,3,19.68,19.68,0,0,1-4.94,2.18q-6.52,1.85-11.64-.57T710,86.69a12.51,12.51,0,0,1-.17-6.29,16.19,16.19,0,0,1,2.31-5.52,27.76,27.76,0,0,1,4.62-5,55.67,55.67,0,0,1,5.34-4.26Q724.37,64,728,61.7t5.06-3.27a2.13,2.13,0,0,0,.58-2.42l-2-7.17a11.63,11.63,0,0,0-4.12-6.58,7.08,7.08,0,0,0-6.35-1,8.22,8.22,0,0,0-5.44,4.15q-1.53,3-.27,7.47a4.39,4.39,0,0,1-.86,4.4,8.42,8.42,0,0,1-4.08,2.5q-4.83,1.37-7.67-1.2Q701,52.31,708,44.41A34,34,0,0,1,724.4,33.84Zm8.36,51.73A10.51,10.51,0,0,0,738.3,82q2-2.55,1.36-4.89l-3.78-13.3q-.8.65-3.48,2.4t-4.05,2.84a37,37,0,0,0-3.13,2.86A8.17,8.17,0,0,0,723,75.67,7.48,7.48,0,0,0,723,79.6q1.19,4.17,3.83,5.53A7.8,7.8,0,0,0,732.76,85.57Z"/><path class="cls-1" d="M794.14,14q7.17-2,11.91,1.26,3.15,11.08-3.11,12.86-2.35.67-5.83-1.16a8.49,8.49,0,0,0-6.35-1q-4,1.15-5.16,5.9a18,18,0,0,0,.15,9.19l4.63,16.29a56.72,56.72,0,0,0,4.25,11.47q.52.84,4,.91a19.18,19.18,0,0,0,4.64-.26c.26-.07.59.51,1,1.76a14.18,14.18,0,0,1,.66,2.56q-1.08.17-7.06,1.44t-9,2.13q-3.13.89-8.95,3t-6.83,2.5q-.67-.37-1.23-2.33t0-2.1a18.93,18.93,0,0,0,4.48-2.33q2.92-1.88,2.92-2.87a44.33,44.33,0,0,0-1.79-9.78l-6-21.25q-1.74-6.13-4.46-7.75a6.53,6.53,0,0,0-3.49-1.12,15.46,15.46,0,0,0-3.35.11q-1.28.22-1.35,0-1.07-3.78-.46-4.1,5.85-2.22,19.88-9.87a8.14,8.14,0,0,1,1-.56q.52-.15,1.17.65a3.26,3.26,0,0,1,.75,1.41q.1.61.32,1.88c.15.85.29,1.75.42,2.7a17.35,17.35,0,0,0,.3,1.82,24.87,24.87,0,0,1,4.59-8.14A14.84,14.84,0,0,1,794.14,14Z"/><path class="cls-1" d="M833.21,2.78A57.6,57.6,0,0,1,849,.7a76.88,76.88,0,0,1,5.58,14.19q.3,1-1.4,1.52-2.87.82-3.43-.15a16.42,16.42,0,0,0-6-6.66,10.59,10.59,0,0,0-8.79-1A9.72,9.72,0,0,0,829.43,12a6,6,0,0,0-.78,5.43,7.89,7.89,0,0,0,1.66,3.12,8.45,8.45,0,0,0,3.14,2.14A33.49,33.49,0,0,0,836.92,24q1.46.43,4.31,1a8.76,8.76,0,0,0,1.49.28l2.25.49,2.48.56,2.44.65a24.47,24.47,0,0,1,2.71.85q.8.34,2.46,1a10.76,10.76,0,0,1,2.47,1.27q.81.62,2.14,1.58a8.76,8.76,0,0,1,2,2,25.65,25.65,0,0,1,1.42,2.27,12.59,12.59,0,0,1,1.12,2.71,16,16,0,0,1-2.64,14.77,25.72,25.72,0,0,1-14,9.11,45.28,45.28,0,0,1-17.85,1.13,54.17,54.17,0,0,1-3.36-6.86,66.48,66.48,0,0,1-2.78-7.31,2.88,2.88,0,0,1,1.64-1.17q3-.85,3.42.15a15,15,0,0,0,7.65,7.34,14.45,14.45,0,0,0,9.87.79A9.86,9.86,0,0,0,851.72,53a6.61,6.61,0,0,0,.83-6,8.94,8.94,0,0,0-1-2.32,6.65,6.65,0,0,0-1.87-1.86l-2-1.4a9.84,9.84,0,0,0-2.85-1.09q-2.06-.54-3-.76L838,38.82q-2.77-.55-3.82-.82A31.53,31.53,0,0,1,823,33.66a14.48,14.48,0,0,1-5.91-8.4,14.54,14.54,0,0,1,2.78-14A26.13,26.13,0,0,1,833.21,2.78Z"/><path class="cls-1" d="M477.21,217.39a29.88,29.88,0,0,1,22.39,7.11,29,29,0,0,1,10.7,20.69,30.7,30.7,0,0,1-61.2,4.9,29.2,29.2,0,0,1,7.13-22.19A29.69,29.69,0,0,1,477.21,217.39ZM476,223.88q-6.35.51-9.37,6.94a29.15,29.15,0,0,0-2.34,14.94,39.52,39.52,0,0,0,5.92,18.7q5,7.75,12.87,7.13,6.35-.51,9.43-7a28.82,28.82,0,0,0,2.41-14.88,46.53,46.53,0,0,0-2.8-12.9,23.91,23.91,0,0,0-6.48-9.61A12.57,12.57,0,0,0,476,223.88Z"/><path class="cls-1" d="M550.94,177.09a26.68,26.68,0,0,1,9.5.67q3.83,1.12,5.21,3.05a15.19,15.19,0,0,1-.14,7.56,4.86,4.86,0,0,1-4.67,3.7,5.29,5.29,0,0,1-4.3-1.9q-2-2.08-4.21-4.15a6.23,6.23,0,0,0-4.91-1.85,7.22,7.22,0,0,0-5.8,4,22.79,22.79,0,0,0-2.76,8.79,55.31,55.31,0,0,0-.14,11l.5,6.21c0,.09.11.22.3.38a.77.77,0,0,0,.56.23L555,213.62a1.09,1.09,0,0,1,.69.08,1.43,1.43,0,0,1,.2.8,13.94,13.94,0,0,1-1.12,6.34l-14,1.12a.72.72,0,0,0-.75.88L542.33,253A51.8,51.8,0,0,0,544.38,265q.34.93,3.74,1.67a19.2,19.2,0,0,0,4.61.65c.27,0,.48.62.63,1.92a7.69,7.69,0,0,1,0,2.65q-.82-.07-7.07,0t-9.49.35q-3.24.26-9.15,1.14t-7,1.1a2.56,2.56,0,0,1-.66-1.44,8.07,8.07,0,0,1-.17-2.09c0-.68.19-1,.46-1.06a18.2,18.2,0,0,0,4.65-1.39q3.16-1.27,3.36-2.24a44.94,44.94,0,0,0,.33-11.17l-2.49-31.07c-.05-.63-.35-.92-.89-.88l-8.11.65c-.18,0-.29-.25-.33-.79q-.12-1.48,1.58-4.07a5.45,5.45,0,0,1,4.13-2.78l2.16-.17a.72.72,0,0,0,.75-.88l-.11-1.35q-1.14-14.18,6.5-25T550.94,177.09Z"/><path class="cls-1" d="M606.59,177.67q3.92-.31,9-.93t9.17-.94a44,44,0,0,1,8.1.1,32.61,32.61,0,0,1,8.18,2,28.7,28.7,0,0,1,7.4,4.1,21.46,21.46,0,0,1,5.57,6.69,23.07,23.07,0,0,1,2.73,9.44,25.79,25.79,0,0,1-2.31,12.69A28.5,28.5,0,0,1,645.28,222a27.55,27.55,0,0,1-14.72,5.46,16.82,16.82,0,0,1-5.75-.56,8.07,8.07,0,0,1-4.12-2.19,2.91,2.91,0,0,1-.58-1.31,6.23,6.23,0,0,1-.23-2c0-.64.15-1,.33-1a19,19,0,0,0,7.67.74,12,12,0,0,0,9.84-6.16q3.35-5.64,2.71-13.74-.72-9-4.79-14T624,182.8q-5.67.45-7.76,1.57-1.56.94-.5,14.18l3.86,48.23q.65,8.11,2,11.4.54,1.59,4.74,2.27a28.64,28.64,0,0,0,6.09.53q.54,0,.72,2.25a7.66,7.66,0,0,1-.09,2.32q-14.93.38-19.25.73-3.65.29-8.16.86l-7.2.92-2.68.49a4.66,4.66,0,0,1-.6-2.4q-.17-2.16.23-2.19a23.17,23.17,0,0,0,5.13-1.29q3.37-1.15,3.82-2.41.62-2.5-.17-12.36l-4.09-51.07a53.16,53.16,0,0,0-1.7-11q-.49-1-4.16-1.91a19.7,19.7,0,0,0-5.29-.73q-.54,0-.7-2t.35-2.48Q602.81,178,606.59,177.67Z"/><path class="cls-1" d="M703.9,199.24q7.43-.59,11.43,3.57.92,11.48-5.56,12-2.43.19-5.48-2.28a8.49,8.49,0,0,0-6-2.24q-4.19.34-6.21,4.78a18,18,0,0,0-1.66,9L691.74,241a56.72,56.72,0,0,0,1.92,12.08q.34.93,3.74,1.67a19.18,19.18,0,0,0,4.61.65c.27,0,.48.62.63,1.92a14.18,14.18,0,0,1,.14,2.64q-1.09,0-7.2,0t-9.22.33q-3.24.26-9.36,1.16t-7.18,1.12a4,4,0,0,1-.75-2.52q-.16-2,.38-2.07a18.93,18.93,0,0,0,4.85-1.41q3.23-1.28,3.42-2.25a44.31,44.31,0,0,0,.16-9.94l-1.76-22q-.51-6.35-2.85-8.47a6.53,6.53,0,0,0-3.2-1.78,15.49,15.49,0,0,0-3.31-.55c-.86,0-1.3-.12-1.31-.3q-.31-3.92.35-4.11,6.17-1,21.43-5.79a8.15,8.15,0,0,1,1.06-.36c.36,0,.7.26,1,.87a3.24,3.24,0,0,1,.46,1.53c0,.41,0,1-.05,1.91s-.06,1.77-.12,2.73a17.29,17.29,0,0,0-.06,1.84,24.86,24.86,0,0,1,6.1-7.08A14.84,14.84,0,0,1,703.9,199.24Z"/><path class="cls-1" d="M750.1,195.55a25.13,25.13,0,0,1,11.55,1.59,21.45,21.45,0,0,1,8.34,5.72,31.52,31.52,0,0,1,5,7.62,23.37,23.37,0,0,1,2.12,7.78q.24,3-.72,3.8t-4.06,1.07L740,225.72q-.95.08-.88.89a26.32,26.32,0,0,0,2.51,9.32,18.64,18.64,0,0,0,6.65,7.49A16,16,0,0,0,758.76,246a36.94,36.94,0,0,0,3.9-.52,20.23,20.23,0,0,0,3.46-1q1.58-.6,2.77-1.11a11.61,11.61,0,0,0,2.4-1.42l1.73-1.29q.51-.38,2.56-2a2.22,2.22,0,0,1,.74.76,2.62,2.62,0,0,1,.51,1.32,4.16,4.16,0,0,1-.6,2.63q-1.74,3.81-7.39,7.93A25.14,25.14,0,0,1,755.76,256a27.44,27.44,0,0,1-21-7.09,29.23,29.23,0,0,1-10.2-20.46q-1.09-13.64,6.13-22.79A26.26,26.26,0,0,1,750.1,195.55Zm-.45,6.29a9.58,9.58,0,0,0-5.66,2.36,12.77,12.77,0,0,0-3.55,4.91,26,26,0,0,0-1.55,5.22,16.61,16.61,0,0,0-.29,4q.08.95.89.88l21.88-1.75q1.22-.1,1.05-2.12a17.57,17.57,0,0,0-3.94-9.34Q754.92,201.41,749.65,201.83Z"/><path class="cls-1" d="M803.32,191.15a57.63,57.63,0,0,1,15.85,1,76.93,76.93,0,0,1,2.7,15c.06.72-.5,1.13-1.67,1.22q-3,.24-3.33-.82a16.44,16.44,0,0,0-4.63-7.72,10.59,10.59,0,0,0-8.44-2.66,9.73,9.73,0,0,0-6,2.25,6,6,0,0,0-1.83,5.18,7.89,7.89,0,0,0,1,3.39,8.45,8.45,0,0,0,2.66,2.71,33.38,33.38,0,0,0,3.15,1.92q1.35.71,4,1.85a8.72,8.72,0,0,0,1.41.57l2.11.92,2.33,1,2.26,1.11a24.59,24.59,0,0,1,2.49,1.36q.72.49,2.22,1.45a10.72,10.72,0,0,1,2.18,1.73q.67.76,1.79,2a8.75,8.75,0,0,1,1.61,2.32,25.65,25.65,0,0,1,.95,2.51,12.64,12.64,0,0,1,.57,2.88,16,16,0,0,1-5.48,14,25.71,25.71,0,0,1-15.48,6.2,45.27,45.27,0,0,1-17.73-2.39,54.33,54.33,0,0,1-2-7.39,66.3,66.3,0,0,1-1.3-7.71,2.87,2.87,0,0,1,1.84-.83q3.11-.25,3.33.82a15,15,0,0,0,6.07,8.69,14.45,14.45,0,0,0,9.53,2.7,9.85,9.85,0,0,0,6.06-2.39,6.61,6.61,0,0,0,2-5.73,8.92,8.92,0,0,0-.54-2.47,6.64,6.64,0,0,0-1.47-2.19l-1.7-1.77a9.83,9.83,0,0,0-2.58-1.63q-1.91-.93-2.83-1.34L801,227.43q-2.6-1.08-3.59-1.55a31.51,31.51,0,0,1-10.17-6.46,15.66,15.66,0,0,1,1.32-22.61A26.14,26.14,0,0,1,803.32,191.15Z"/><path class="cls-1" d="M852.76,187.19a57.64,57.64,0,0,1,15.86,1,77.08,77.08,0,0,1,2.7,15c.06.72-.5,1.13-1.67,1.22q-3,.24-3.33-.82a16.42,16.42,0,0,0-4.63-7.72,10.59,10.59,0,0,0-8.44-2.66,9.73,9.73,0,0,0-6,2.25,6,6,0,0,0-1.83,5.18,7.88,7.88,0,0,0,1,3.39,8.44,8.44,0,0,0,2.66,2.71,33.43,33.43,0,0,0,3.15,1.92q1.35.71,4,1.85a8.77,8.77,0,0,0,1.4.57l2.11.92,2.33,1,2.26,1.11a24.59,24.59,0,0,1,2.49,1.36q.72.49,2.22,1.45a10.71,10.71,0,0,1,2.18,1.73q.67.76,1.79,2a8.72,8.72,0,0,1,1.61,2.32,25.65,25.65,0,0,1,.95,2.51,12.64,12.64,0,0,1,.57,2.88,16,16,0,0,1-5.48,14,25.72,25.72,0,0,1-15.48,6.2,45.26,45.26,0,0,1-17.73-2.39,54.09,54.09,0,0,1-2-7.39,66.11,66.11,0,0,1-1.3-7.71,2.87,2.87,0,0,1,1.84-.83q3.11-.25,3.33.82a15,15,0,0,0,6.07,8.69,14.45,14.45,0,0,0,9.53,2.7,9.85,9.85,0,0,0,6.06-2.39,6.61,6.61,0,0,0,2-5.73,8.89,8.89,0,0,0-.54-2.47,6.62,6.62,0,0,0-1.47-2.19l-1.71-1.77a9.84,9.84,0,0,0-2.58-1.63q-1.91-.93-2.83-1.34l-3.52-1.49q-2.6-1.08-3.59-1.55a31.52,31.52,0,0,1-10.17-6.46A15.66,15.66,0,0,1,838,192.86,26.13,26.13,0,0,1,852.76,187.19Z"/><path class="cls-1" d="M924.46,152.22q3.92-.31,9-.93t9.17-.94a44,44,0,0,1,8.1.1,32.62,32.62,0,0,1,8.18,2,28.68,28.68,0,0,1,7.4,4.1,21.43,21.43,0,0,1,5.57,6.69,23.06,23.06,0,0,1,2.73,9.44,25.79,25.79,0,0,1-2.32,12.69,28.51,28.51,0,0,1-9.17,11.14A27.54,27.54,0,0,1,948.43,202a16.81,16.81,0,0,1-5.75-.56,8.08,8.08,0,0,1-4.12-2.19,2.89,2.89,0,0,1-.58-1.31,6.19,6.19,0,0,1-.23-2c0-.64.15-1,.33-1a19,19,0,0,0,7.67.74,12,12,0,0,0,9.84-6.16q3.35-5.64,2.71-13.74-.73-9-4.79-14t-11.63-4.37q-5.67.45-7.76,1.57-1.56.94-.5,14.18l3.86,48.23q.65,8.11,2,11.4.54,1.59,4.74,2.27a28.65,28.65,0,0,0,6.09.53c.36,0,.6.72.72,2.25a7.66,7.66,0,0,1-.09,2.32q-14.93.38-19.25.73-3.65.29-8.16.86l-7.2.92-2.68.49a4.67,4.67,0,0,1-.6-2.4q-.17-2.16.23-2.19a23.17,23.17,0,0,0,5.13-1.29q3.37-1.15,3.82-2.41.62-2.5-.17-12.36L918,171.36a53.14,53.14,0,0,0-1.7-11q-.49-1-4.16-1.91a19.69,19.69,0,0,0-5.29-.73q-.54,0-.7-2t.35-2.48Q920.68,152.52,924.46,152.22Z"/><path class="cls-1" d="M1021.77,173.79q7.43-.59,11.43,3.57.92,11.48-5.57,12-2.43.19-5.48-2.28a8.48,8.48,0,0,0-6-2.24q-4.19.34-6.21,4.78a18,18,0,0,0-1.66,9l1.35,16.89a56.71,56.71,0,0,0,1.92,12.08q.35.93,3.74,1.67a19.19,19.19,0,0,0,4.61.65c.27,0,.48.62.63,1.92a14.15,14.15,0,0,1,.14,2.64q-1.09,0-7.2,0t-9.22.33q-3.24.26-9.36,1.16t-7.18,1.12a4,4,0,0,1-.75-2.52c-.11-1.35,0-2,.38-2.07a18.94,18.94,0,0,0,4.85-1.41q3.23-1.28,3.42-2.25a44.37,44.37,0,0,0,.16-9.94L994,197q-.51-6.35-2.85-8.47a6.53,6.53,0,0,0-3.2-1.78,15.47,15.47,0,0,0-3.31-.55c-.86,0-1.3-.12-1.32-.3q-.31-3.92.35-4.11,6.17-1,21.43-5.79a8.22,8.22,0,0,1,1.06-.36c.36,0,.7.26,1,.87a3.25,3.25,0,0,1,.46,1.53c0,.41,0,1-.05,1.91s-.06,1.77-.12,2.73a17.38,17.38,0,0,0-.06,1.84,24.86,24.86,0,0,1,6.1-7.08A14.84,14.84,0,0,1,1021.77,173.79Z"/><path class="cls-1" d="M1068,170.09a25.13,25.13,0,0,1,11.55,1.59,21.45,21.45,0,0,1,8.34,5.72,31.53,31.53,0,0,1,5,7.62,23.39,23.39,0,0,1,2.12,7.78q.24,3-.72,3.8t-4.06,1.07l-32.29,2.58c-.63.05-.92.35-.88.89a26.34,26.34,0,0,0,2.51,9.32,18.64,18.64,0,0,0,6.65,7.49,15.94,15.94,0,0,0,10.47,2.56,37,37,0,0,0,3.9-.52,20.27,20.27,0,0,0,3.46-1q1.58-.6,2.77-1.11a11.61,11.61,0,0,0,2.4-1.42l1.73-1.29q.51-.38,2.56-2a2.22,2.22,0,0,1,.74.76,2.61,2.61,0,0,1,.51,1.32,4.16,4.16,0,0,1-.6,2.63q-1.73,3.81-7.39,7.93a25.14,25.14,0,0,1-13.08,4.72,27.44,27.44,0,0,1-21-7.09,29.23,29.23,0,0,1-10.2-20.46q-1.09-13.64,6.13-22.79A26.27,26.27,0,0,1,1068,170.09Zm-.45,6.29a9.58,9.58,0,0,0-5.66,2.36,12.76,12.76,0,0,0-3.55,4.91,25.9,25.9,0,0,0-1.55,5.22,16.63,16.63,0,0,0-.29,4q.08.95.89.88l21.88-1.75q1.22-.1,1.05-2.12a17.57,17.57,0,0,0-3.94-9.34Q1072.79,176,1067.52,176.38Z"/><path class="cls-1" d="M1121.19,165.7a57.63,57.63,0,0,1,15.85,1,76.93,76.93,0,0,1,2.7,15q.09,1.08-1.67,1.22-3,.24-3.33-.82a16.44,16.44,0,0,0-4.63-7.72,10.59,10.59,0,0,0-8.44-2.66,9.73,9.73,0,0,0-6,2.25,6,6,0,0,0-1.83,5.18,7.89,7.89,0,0,0,1,3.39,8.44,8.44,0,0,0,2.66,2.71,33.55,33.55,0,0,0,3.14,1.92q1.35.71,4,1.85a8.74,8.74,0,0,0,1.41.57l2.11.92,2.33,1,2.26,1.11a24.53,24.53,0,0,1,2.49,1.36q.72.49,2.22,1.45a10.72,10.72,0,0,1,2.18,1.73q.67.76,1.79,2a8.72,8.72,0,0,1,1.61,2.32A25.65,25.65,0,0,1,1144,204a12.64,12.64,0,0,1,.57,2.88,16,16,0,0,1-5.48,14,25.71,25.71,0,0,1-15.48,6.2,45.28,45.28,0,0,1-17.73-2.39,54.28,54.28,0,0,1-2-7.39,66.11,66.11,0,0,1-1.3-7.71,2.87,2.87,0,0,1,1.84-.83q3.11-.25,3.33.82a15,15,0,0,0,6.07,8.69,14.45,14.45,0,0,0,9.53,2.7,9.85,9.85,0,0,0,6.06-2.39,6.61,6.61,0,0,0,2-5.73,8.92,8.92,0,0,0-.54-2.47,6.64,6.64,0,0,0-1.47-2.19l-1.71-1.77a9.82,9.82,0,0,0-2.58-1.63q-1.91-.93-2.83-1.34l-3.52-1.49q-2.6-1.08-3.59-1.55A31.51,31.51,0,0,1,1105.1,194a15.66,15.66,0,0,1,1.32-22.61A26.14,26.14,0,0,1,1121.19,165.7Z"/><path class="cls-1" d="M1170.63,161.74a57.63,57.63,0,0,1,15.85,1,76.94,76.94,0,0,1,2.7,15c.06.72-.5,1.13-1.67,1.22q-3,.24-3.33-.82a16.44,16.44,0,0,0-4.63-7.72,10.59,10.59,0,0,0-8.44-2.66,9.73,9.73,0,0,0-6,2.25,6,6,0,0,0-1.83,5.18,7.88,7.88,0,0,0,1,3.39,8.43,8.43,0,0,0,2.66,2.71,33.6,33.6,0,0,0,3.14,1.92q1.35.71,4,1.85a8.69,8.69,0,0,0,1.4.57l2.11.92,2.33,1,2.27,1.11a24.77,24.77,0,0,1,2.49,1.36q.72.49,2.22,1.45a10.68,10.68,0,0,1,2.18,1.73q.67.76,1.79,2a8.75,8.75,0,0,1,1.61,2.32,25.66,25.66,0,0,1,.95,2.51,12.64,12.64,0,0,1,.57,2.88,16,16,0,0,1-5.48,14,25.72,25.72,0,0,1-15.48,6.2,45.27,45.27,0,0,1-17.73-2.39,54.23,54.23,0,0,1-2-7.39,66.32,66.32,0,0,1-1.3-7.71,2.87,2.87,0,0,1,1.84-.83q3.11-.25,3.33.82a15,15,0,0,0,6.07,8.69,14.45,14.45,0,0,0,9.53,2.7,9.85,9.85,0,0,0,6.06-2.39,6.61,6.61,0,0,0,2-5.73,8.89,8.89,0,0,0-.54-2.47,6.63,6.63,0,0,0-1.47-2.19l-1.71-1.77a9.85,9.85,0,0,0-2.58-1.63q-1.91-.93-2.83-1.34L1168.3,198q-2.6-1.08-3.59-1.55a31.49,31.49,0,0,1-10.17-6.46,15.66,15.66,0,0,1,1.32-22.61A26.13,26.13,0,0,1,1170.63,161.74Z"/></svg>