<svg id="Layer_1" data-name="Layer 1" xmlns="http://www.w3.org/2000/svg" viewBox="0 0 3552.55 2250"><defs><style>.cls-1{fill:#fff;stroke:#1928eb;stroke-miterlimit:10;stroke-width:9px;}.cls-2{fill:#feea80;}.cls-3{fill:#1928eb;}</style></defs><title>background7</title><path class="cls-1" d="M851.62-226.72q127.51-95.91,247-43.19t272.9,256.67l124.66,165.73q79.46,105.63,136.49,151.1,13.22,10,65.83-11t70.84-34.76q5.45-4.1,23.72,16.41t21.47,32.32q-189,127.88-201.72,137.47-3.66,2.75-184.36,152.93c-8.55-1.21-18.47-9.39-29.89-24.57s-14.72-24.6-9.85-28.26q21.84-16.42,52.11-57.72t24.28-56.78q-26.93-62.38-83.12-137.08L1245,110.43Q1117.6-58.92,1027.3-88T838.64-43Q780.34.82,758.83,84t4.51,117.8l241.1,320.53Q1083.9,628,1140.93,673.47q13.22,10,65.83-11t70.84-34.76q5.45-4.1,23.74,16.39t21.47,32.32q-189,127.9-201.72,137.47-10.94,8.23-191.68,158.44c-8.55-1.21-18.48-9.39-29.89-24.56s-14.72-24.6-9.84-28.27q21.83-16.42,55.74-60.45t28-59.55q-27-62.35-83.15-137.06l-258.9-344.2q-53.43-71-99.48-79.16-34.67-8.17-67.23,3.52t-49.86,24.67q-17.32,13-20.06,9.36Q361.86,233,371.42,222.88,542.53,48.58,587.11-13.5q1.83-1.37,7.74-8.67,7.28-5.47,20.76,8.64T632.72,9.23q31.07,56.46,47.52,78.3c3.67,4.88,6.68,6.39,9.12,4.56,1.19-.9,2.12-3.5,2.72-7.78q9-75.17,51.49-168.46T851.62-226.72Z"/><path class="cls-1" d="M1591.63,2028.15q-74.17,109.41-98.73,178.08-5.18,15.79,31.77,58.73t55.84,55.75q5.64,3.83-7.83,27.76t-23.62,30.79Q1366.84,2241.93,1353.63,2233t-212-130c-1.63-8.48,2.89-20.52,13.55-36.24s18.5-21.9,23.55-18.48q22.62,15.33,75.26,33.13t65.38,7.14q50.28-45.7,102.74-123.07L1663.8,1609q49.88-73.57,42.64-119.77-3.51-35.44-25.13-62.46t-39.5-39.17q-17.94-12.16-15.36-15.94,30.66-45.23,43.27-39.47,220.39,105.4,293.56,127.43l5,.67,5.67,3.84q7.54,5.11-1.44,22.44t-16,23.57q-60.6,69.07-101.5,129.4Zm337.83-839.55q-8.8-45.86,18.07-85.5t72.73-48.44q45.86-8.8,85.52,18t48.42,72.76q8.77,45.9-18,85.52t-72.76,48.42q-45.9,8.77-85.5-18.07T1929.46,1188.59Z"/><path class="cls-2" d="M2034,335.38c1.83-36.78,2.31-73.63,1-110.44-1.51-42.06-5.87-83.75-11.75-125.41a847.72,847.72,0,0,0-21.62-105.6c-11.05-40.35-25.83-79.23-42.55-117.55-16.83-38.57-37.22-75.46-59.44-111.16-9.74-15.65-25.08-28.15-43-33.09a54.54,54.54,0,0,0-28.71-1.29,53.59,53.59,0,0,0-26.77,8.54c-15.37,9.91-28.91,24.67-33.09,43-4.24,18.61-3.09,38.86,7.26,55.48,23.68,38.05,45.18,77.45,62.7,118.74l-7.26-17.2c27.53,65.38,45,134.45,54.52,204.68L1882.73,125c9.27,69.72,10.8,140.22,7.31,210.41a54.22,54.22,0,0,0,6.2,27.74,64.75,64.75,0,0,0,38.06,38.06,54.22,54.22,0,0,0,27.74,6.2c18.62-.83,37.93-7,50.91-21.09l11.26-14.57a71.67,71.67,0,0,0,9.83-36.34Z"/><path class="cls-2" d="M206.33,857.38c2.14,139.77,36.37,282.16,120.68,395.82,41.64,56.13,89.63,105.85,140.63,153.47q77.2,72.07,158.5,139.56c30.25,25.12,60.78,50,92.3,73.52,25.69,19.17,52.69,36.63,82.12,49.5,20.16,8.82,40.36,16.87,61.72,22.21,22,5.49,44.58,8.52,67.06,11,33.68,3.74,67.75,3.52,101.53,1.44,144.63-8.91,284.77-52.27,413-119A909.43,909.43,0,0,0,1614,1470.46c53.66-45.72,99.18-100.28,138.49-158.66q13.78-20.47,26.42-41.68c9.54-15.93,12.17-37.66,7.26-55.48-4.6-16.7-17.51-34.8-33.09-43-16.71-8.83-37-13.25-55.48-7.26-18,5.82-33.16,16.61-43,33.09a873.49,873.49,0,0,1-56.72,83.75l11.26-14.57a693.54,693.54,0,0,1-122.85,123.07l14.57-11.26c-62.83,48.51-132.85,87-205.8,118l17.2-7.26c-77.72,32.78-159.24,56.42-242.91,67.71l19.14-2.57c-55.54,7.31-112.58,10.33-168.29,3.06l19.14,2.57c-27.79-3.82-55-10.5-80.95-21.28l17.2,7.26c-35.06-15-66.52-36.52-96.58-59.72l14.57,11.26c-50.22-39-98.79-80.2-146.47-122.2-46-40.55-91.72-81.82-134.63-125.7a855.1,855.1,0,0,1-65.56-74.59l11.26,14.57c-27.65-36.05-50.93-74.87-68.75-116.69l7.26,17.2c-21.27-50.58-34.74-104-42.14-158.28l2.57,19.14a804.34,804.34,0,0,1-6.76-93.51c-.29-18.64-7.83-37.66-21.09-50.91-12.49-12.49-33-21.89-50.91-21.09-18.62.83-37.93,7-50.91,21.09-12.82,14-21.39,31.51-21.09,50.91Z"/><path class="cls-2" d="M1010.3,1725.36c34.32-63,62.45-129.45,86.57-196.93a1867.35,1867.35,0,0,0,57.58-193.18c17.18-71.69,29.32-145.58,30.87-219.39,1.37-65.34-6.5-131.58-21.84-195.07-30.46-126-94-244.49-181.94-339.71-42.41-45.92-92.21-86.84-146.46-118a550.78,550.78,0,0,0-93-42.07c-32.18-11.2-65-17.25-98.79-21.33a358.41,358.41,0,0,0-80-.66c-32.63,3.39-65,8.76-96,19.55C406.14,439.82,348,474.7,306.72,525.3c-13.55,16.59-26.41,33.71-37.26,52.18C260,593.58,257.25,615,262.2,633c4.6,16.7,17.51,34.8,33.09,43,16.71,8.83,37,13.25,55.48,7.26,17.89-5.79,33.33-16.58,43-33.09a310,310,0,0,1,21.91-32.48l-11.26,14.57a277.6,277.6,0,0,1,47.61-47.58l-14.57,11.26a300.39,300.39,0,0,1,65.7-38.24L486,565a341.94,341.94,0,0,1,86.41-23.31l-19.14,2.57a364.3,364.3,0,0,1,95.52.18l-19.14-2.57a401.66,401.66,0,0,1,99.52,27.8L712,562.36c38.95,16.51,75.29,38.44,108.79,64.21l-14.57-11.26c41.7,32.3,78.68,70.25,111,111.93l-11.26-14.57a703.35,703.35,0,0,1,89.76,153.84l-7.26-17.2a711.78,711.78,0,0,1,49.68,181.54l-2.57-19.14c8.42,63.95,7.3,128.34-1.14,192.23l2.57-19.14c-7,52-18.37,103.35-32,154-13.29,49.55-28.28,98.69-45.41,147.05q-14.38,40.59-31.05,80.32l7.26-17.2c-15,35.33-31.42,70-49.78,103.68-9.11,16.71-12.37,36.91-7.26,55.48,4.6,16.7,17.51,34.8,33.09,43,16.71,8.83,37,13.25,55.48,7.26,17.56-5.68,34-16.47,43-33.09Z"/><path class="cls-2" d="M58.63,1590.16c26.33,62.77,54,125.17,88.39,184a758.6,758.6,0,0,0,49.36,74.65c21.11,28,43.09,55.1,68.27,79.54A529.91,529.91,0,0,0,346,1993.21c28.8,18.57,60,33,92.08,45.06,32.55,12.22,66,18.55,100.47,22.54,33.89,3.92,67.43,1.27,101-4.5,34.46-5.93,67.85-19.22,98.67-35.47,31.48-16.6,60.25-38.44,87.33-61.39q8.78-7.43,17.24-15.22a69.61,69.61,0,0,0,14.89-78.65,54,54,0,0,0-14.89-23.17c-13.72-12.6-31.74-21.95-50.91-21.09A77.88,77.88,0,0,0,741,1842.41c-11.33,10.36-23,20.32-35.15,29.71l14.57-11.26c-24.28,18.64-50.35,34.9-78.57,46.88l17.2-7.26a270.69,270.69,0,0,1-67.12,18.41l19.14-2.57a297.8,297.8,0,0,1-78.78-.31l19.14,2.57a357.65,357.65,0,0,1-89.26-24.85l17.2,7.26a406.19,406.19,0,0,1-88.94-52.13L405,1860.12c-34.52-26.81-64.79-58.72-91.5-93.24l11.26,14.57c-42.5-55.25-75.8-116.88-105.07-180Q205.55,1571,192.49,1540l7.26,17.2-2.26-5.37a54.23,54.23,0,0,0-12.89-24.49,54.41,54.41,0,0,0-20.2-18.54,53.59,53.59,0,0,0-26.77-8.54,54.54,54.54,0,0,0-28.71,1.29c-17.42,5.64-34.23,16.43-43,33.09l-7.26,17.2a72.51,72.51,0,0,0,0,38.28Z"/><path class="cls-2" d="M2577,1206.69a233.36,233.36,0,0,1,40.72-9.85l-19.14,2.57a163.13,163.13,0,0,1,41.81-.43l-19.14-2.57a130.07,130.07,0,0,1,32,8.66l-17.2-7.26a126.51,126.51,0,0,1,26.18,15.4l-14.57-11.26a127.93,127.93,0,0,1,21.84,21.93l-11.26-14.57a150.72,150.72,0,0,1,18.62,32.48l-7.26-17.2c7.69,18.61,12.18,38.24,14.86,58.16l-2.57-19.14c4.1,31.89,3.26,63.9,2.3,95.95-1,32.75-2.06,65.51-1.39,98.28,1.52,74.18,11.68,150.64,48.66,216.23,21.13,37.48,50.7,68.11,85.69,92.75,17.7,12.47,37.13,20.91,57.09,29.13a241.22,241.22,0,0,0,45.64,13.66,385.92,385.92,0,0,0,65.37,7.46c21.93.47,43.36-2.2,65.06-5.19,39.37-5.42,76.22-19.1,112.1-35.9,38.08-17.84,72-41.91,105.08-67.63,28.68-22.3,55.45-46.91,81.12-72.59,51.48-51.5,98.14-107.12,142.22-165a1764.52,1764.52,0,0,0,117.49-175.79,1953.28,1953.28,0,0,0,100-194.87c32.58-73.27,61.74-148.06,86-224.52a1887.1,1887.1,0,0,0,55.3-218.4q5.16-27.23,9.48-54.61a54.54,54.54,0,0,0,1.29-28.71,53.59,53.59,0,0,0-8.54-26.77c-8.74-14.94-25.86-29.18-43-33.09-18.43-4.2-39.12-3.29-55.48,7.26-14.74,9.5-30.23,24.92-33.09,43-18.88,119.51-49.89,237-91.19,350.71q-17.38,47.85-37.19,94.77l7.26-17.2c-49.2,116.38-109.15,228.37-180.27,332.85q-28.74,42.21-60,82.65l11.26-14.57c-46.38,59.89-96.89,117-152.39,168.59-17,15.77-34.51,30.9-52.82,45.09l14.57-11.26c-32,24.66-66.45,46.18-103.75,62l17.2-7.26a324.14,324.14,0,0,1-81.76,22.52l19.14-2.57a295,295,0,0,1-76.9,0l19.14,2.57a248.85,248.85,0,0,1-60.8-16.39l17.2,7.26a211.67,211.67,0,0,1-46.28-26.86l14.57,11.26a206.51,206.51,0,0,1-35.34-35.49l11.26,14.57a230.64,230.64,0,0,1-29.45-51l7.26,17.2c-11.13-26.84-17.7-55.21-21.63-83.94l2.57,19.14c-9.49-71.43-2.27-142.92-2.76-214.59-.16-23.83-2.64-47.11-5.9-70.72-2.35-17-6-33.87-11.89-50-4.8-13-10.13-26.13-16.74-38.38s-15.16-22.94-23.77-33.79a125.49,125.49,0,0,0-17.22-17.95c-11.36-9.61-23.46-19.25-36.76-26.15a205.82,205.82,0,0,0-94.16-23.5c-28.21-.19-57.23,5.13-84,14.06-17.78,5.94-33.39,16.61-43,33.09-9,15.43-12.86,38.18-7.26,55.48s16.43,34.23,33.09,43,37.07,13.4,55.48,7.26Z"/><path class="cls-2" d="M1729.05,2367.15c46.4-86.45,94.66-171.88,143.7-256.85s98.56-169.65,148.5-254.09c28-47.42,56.43-94.63,85.71-141.29a53.59,53.59,0,0,0,8.54-26.77,74,74,0,0,0-34.37-71.74c-16.71-8.83-37-13.25-55.48-7.26-18.18,5.88-32.75,16.71-43,33.09-52.22,83.21-101.62,168.15-151.26,252.91s-99,169.46-147.16,255q-40.44,71.8-79.5,144.36c-9,16.84-12.4,36.79-7.26,55.48a80.55,80.55,0,0,0,33.09,43c16.71,8.83,37,13.25,55.48,7.26,17.49-5.66,34.1-16.45,43-33.09Z"/><path class="cls-2" d="M3319,1461.18c6.78,63,10.72,126.3,12.32,189.68.47,18.75,7.7,37.53,21.09,50.91a80.1,80.1,0,0,0,50.91,21.09c18.62-.83,37.93-7,50.91-21.09,12.74-13.88,21.58-31.58,21.09-50.91-1.6-63.37-5.55-126.64-12.32-189.68a69.51,69.51,0,0,0-44.26-65.8,54.22,54.22,0,0,0-27.74-6.2c-18.62.83-37.93,7-50.91,21.09-12.12,13.2-23.09,32.29-21.09,50.91Z"/><path class="cls-2" d="M3051.52,586.51q41.92,85.52,79.09,173.24l-7.26-17.2q28,66.37,53,134a80.55,80.55,0,0,0,33.09,43,53.59,53.59,0,0,0,26.77,8.54,54.54,54.54,0,0,0,28.71-1.29c17.42-5.64,34.23-16.43,43-33.09,8.61-16.3,13.89-37.48,7.26-55.48C3283,751,3247,665,3207.79,580.69q-15.61-33.6-31.93-66.87a54.41,54.41,0,0,0-18.54-20.2,64.66,64.66,0,0,0-53.2-14.17,53.59,53.59,0,0,0-26.77,8.54c-15.37,9.91-28.91,24.67-33.09,43l-2.57,19.14a71.67,71.67,0,0,0,9.83,36.34Z"/><path class="cls-2" d="M2527.85-74A752,752,0,0,1,2664.63,9.62L2650.06-1.64c46.36,35.82,87.89,77.07,125,122.38a54,54,0,0,0,23.17,14.89,65.15,65.15,0,0,0,55.48,0,54,54,0,0,0,23.17-14.89C2889.48,107,2898.83,89,2898,69.82l-2.57-19.14a71.93,71.93,0,0,0-18.52-31.77,816,816,0,0,0-212.35-183.15q-31.15-18.6-64-34.1a53.59,53.59,0,0,0-26.77-8.54,54.54,54.54,0,0,0-28.71,1.29,54.23,54.23,0,0,0-24.49,12.89,54.41,54.41,0,0,0-18.54,20.2c-8.83,16.71-13.25,37-7.26,55.48,5.49,17,16.35,35.11,33.09,43Z"/><path class="cls-3" d="M1472.12,620.5q7.23,2.41,10.8,11t.18,15.42q-3.39,6.83-12.89,10.77l-9.5,3.95,8.47,20.38-10.27,4.27-23.29-56,19.77-8.22Q1464.89,618.09,1472.12,620.5Zm-5.6,28.3q4.75-2,6.13-5.48a9.62,9.62,0,0,0-.26-7.44,9.78,9.78,0,0,0-5.11-5.47q-3.48-1.54-8.23.43l-9.5,3.95,7.46,18Z"/><path class="cls-3" d="M1505.52,627.42q0-10.64,7.63-13.8a16.17,16.17,0,0,1,4-.94l4.06,10.26a24.51,24.51,0,0,0-5,1.46q-10.19,4.23-4.34,18.31l7.64,18.39-10.19,4.23-17.48-42L1502,619Z"/><path class="cls-3" d="M1565,606.33a25.43,25.43,0,0,1,3.84,6.2,42,42,0,0,1,1.91,5.58l-27.11,11.27a15.8,15.8,0,0,0,5.95,7.25q3.66,2.23,8.41.25,6.3-2.62,5.22-8.65l10.27-4.27a16.31,16.31,0,0,1-1.66,12.33,20.63,20.63,0,0,1-10.42,8.79,19.71,19.71,0,0,1-16.41-.27q-8.4-3.9-12.49-13.74-4.2-10.1-1-18.64a19.79,19.79,0,0,1,11.46-11.65q8.72-3.62,16.1.5A20.74,20.74,0,0,1,1565,606.33Zm-18.54,2.54a9.11,9.11,0,0,0-5.57,5.61,13.66,13.66,0,0,0,.15,8.39l17.87-7.43q-2.83-6.82-8.12-7.36A9.15,9.15,0,0,0,1546.51,608.87Z"/><path class="cls-3" d="M1591.39,616.24q2.65,5.89,11.2,2.33a10.26,10.26,0,0,0,4.8-3.67,4.37,4.37,0,0,0,.73-4.2,3.84,3.84,0,0,0-2.52-2.4,13.8,13.8,0,0,0-4.85-.21l-10.52.52q-11.66.7-15-7.33a10.75,10.75,0,0,1,1.22-10.58q3.45-5.23,11.52-8.58t13.9-1.63a12.47,12.47,0,0,1,8.23,7l-9.58,4a4.56,4.56,0,0,0-3.35-2.46,10.1,10.1,0,0,0-5.68.94,9.55,9.55,0,0,0-4.67,3.51,4.1,4.1,0,0,0-.58,3.84q1.26,3,7,2.37l11.47-.41a21.37,21.37,0,0,1,9.3,1,9.51,9.51,0,0,1,5.38,5.51q2.15,5.18-1.19,11-3.44,6.09-11.82,9.57t-15,1.93a13.19,13.19,0,0,1-9.47-8.16Z"/><path class="cls-3" d="M1636.89,597.33q2.65,5.89,11.2,2.33a10.25,10.25,0,0,0,4.8-3.67,4.37,4.37,0,0,0,.73-4.2,3.84,3.84,0,0,0-2.52-2.4,13.8,13.8,0,0,0-4.85-.21l-10.52.52q-11.66.7-15-7.33a10.75,10.75,0,0,1,1.22-10.58q3.45-5.23,11.52-8.58t13.9-1.63a12.47,12.47,0,0,1,8.23,7l-9.58,4a4.56,4.56,0,0,0-3.35-2.46,10.1,10.1,0,0,0-5.68.94,9.55,9.55,0,0,0-4.67,3.51,4.1,4.1,0,0,0-.58,3.84q1.26,3,7,2.37l11.47-.41a21.35,21.35,0,0,1,9.29,1,9.51,9.51,0,0,1,5.38,5.51q2.15,5.18-1.19,11-3.44,6.09-11.82,9.57t-15,1.93a13.19,13.19,0,0,1-9.47-8.16Z"/><path class="cls-1" d="M-21,1566.25Q-.78,1520.4,41.5,1455.6t58.4-90.07Q205,1387,323.64,1434.35q10.43,4.6-1.52,31.69-12.89,29.23-28.42,24.84-63-15.32-136.7,10.71T55.66,1590.1q-66.24,150.17,56.79,204.4,31.28,13.8,58.94,16t60.12-12.09q32.5-14.3,47.38-22.68t57.73-40.54q42.83-32.16,53.67-39.85,7.86-6.49,49.77-36.56t59.69-42.16q17.78-12.07,57.06-33.38t65.52-27.13q26.26-5.82,62.47-6.05t67.48,13.55q123,54.27,163.08,186.53t-17,261.5a627.49,627.49,0,0,1-40.62,78q-21.36,34.18-55.91,78.71t-50.71,69.75q-38.86-2.18-114.82-22t-117.65-38.2c-3.42-14.78-3.94-24.95-1.47-30.53q13.8-31.28,27.22-27.84,68.07,15.12,156.47-24.38t122.42-116.62q29.43-66.71,11.81-125.56t-86.42-89.19q-35.47-15.65-71.67-15.4t-73.53,19.87q-37.3,19.64-64.43,38.82t-73.32,56.09q-46.19,36.9-70.9,53.4Q229.29,2037.86,100,1980.79q-112.56-49.65-143.46-171.63T-21,1566.25Z"/><path class="cls-2" d="M-41.71,1000c-2.64,32.75-1.37,65.81.89,98.54,3.24,46.88,9.2,93.55,15.91,140,12.08,83.76,28.36,167.22,50.27,249,9.29,34.67,19.42,69.43,33.27,102.59a54.23,54.23,0,0,0,12.89,24.49,54.41,54.41,0,0,0,20.2,18.54,53.59,53.59,0,0,0,26.77,8.54,54.54,54.54,0,0,0,28.71-1.29c17.42-5.64,34.23-16.43,43-33.09l7.26-17.2a72.51,72.51,0,0,0,0-38.28c-16.12-38.6-27.41-79.3-37.77-119.76-13.42-52.43-24.54-105.45-34-158.73q-8.27-46.58-14.62-93.48l2.57,19.14c-7.22-54-13-108.59-12.78-163.13,0-12,.43-24,1.4-35.91a54.22,54.22,0,0,0-6.2-27.74A54,54,0,0,0,81.2,949.09,54,54,0,0,0,58,934.2,54.22,54.22,0,0,0,30.29,928c-18.62.83-37.93,7-50.91,21.09l-11.26,14.57A71.67,71.67,0,0,0-41.71,1000Z"/><path class="cls-1" d="M163.05,369.55Q260,329.67,348.94,336.22T500.7,384.66q62.85,41.92,105.46,94.62T673.07,591q17.34,42.16,8.61,56.85t-44.57,29.4L106,895.72q-16.84,6.93-12.51,17.47Q148.12,1046,274.16,1124.72T552,1141a442.18,442.18,0,0,0,80.82-43.09q36.58-24.89,60.25-48.21T732,1006.62q15.22-19.85,25.69-36.45l10.41-16.6q12.61-5.19,23.91,22.18,6.95,16.89,3,43.13-17.86,76.39-80.57,157.61t-159.6,121.1q-174.93,72-354.51-8.13T-57.39,1019.65q-91-221.28-24.88-398.82T163.05,369.55Zm11,86.65Q64.43,501.31,45.1,618.94t5.77,178.72q6.08,14.77,18.72,9.57l411-169.09q10.54-4.34,1.87-25.42Q454.69,545.3,361.8,481.23T174.05,456.2Z"/><path class="cls-2" d="M269.46,577.48c-39.33,67.92-56.25,145.35-61.63,223-1.31,18.95-1.74,37.95-1.5,56.94.24,18.61,7.87,37.69,21.09,50.91a54,54,0,0,0,23.17,14.89,54.22,54.22,0,0,0,27.74,6.2c18.62-.83,37.93-7,50.91-21.09,12.84-14,21.34-31.49,21.09-50.91a653.71,653.71,0,0,1,5.35-94.9l-2.57,19.14c5.2-38,14.31-75.44,29.14-110.86L375,688a341.88,341.88,0,0,1,18.81-37.8c9.39-16.21,12.24-37.39,7.26-55.48a54.23,54.23,0,0,0-12.89-24.49A54.41,54.41,0,0,0,368,551.65c-16.71-8.83-37-13.25-55.48-7.26-17.82,5.77-33.46,16.55-43,33.09Z"/><path class="cls-2" d="M842.81,1944.23a705.57,705.57,0,0,0,69.42-73.88,964.28,964.28,0,0,0,69.07-95.51q15.26-24.29,29-49.49c9.13-16.67,12.36-37,7.26-55.48a80.55,80.55,0,0,0-33.09-43c-16.71-8.83-37-13.25-55.48-7.26-17.58,5.69-33.93,16.48-43,33.09a884.93,884.93,0,0,1-74.46,114.84l11.26-14.57A718.57,718.57,0,0,1,741,1842.41a69.61,69.61,0,0,0-14.89,78.65A54,54,0,0,0,741,1944.23c13.72,12.6,31.74,21.95,50.91,21.09,19.55-.88,36.37-7.71,50.91-21.09Z"/><path class="cls-1" d="M1435,915.92l-97.41-89.35q-8.4-7.7,24-43c6.15-6.7,10.3-10.12,12.45-10.21q68.72,22.85,187.45,8A621.07,621.07,0,0,0,1643.05,765q43-11.54,73.28-20.9t31.81-11q50.35,46.19,42.66,54.6L1638.29,953.92q43.64,40,131.91,122.54t93.29,87.11q13.42,12.31-.45,27.43-27.72,30.22-75.33,48.41l-223.36-204.89L1186.92,1446q-61.63,67.19-64.16,139.06t52.88,122.71Q1226,1754,1309,1771.37q8.12,1.23,2,28.13t-9.31,27q-49.85,3.77-125.79-18T1044.61,1736q-84-77-89.4-184.05t88.56-209.47Z"/><path class="cls-2" d="M1778.91,1270.12c37.68-63.21,68.15-130.33,95.63-198.5a54.54,54.54,0,0,0,1.29-28.71,53.59,53.59,0,0,0-8.54-26.77,80.55,80.55,0,0,0-43-33.09c-18.43-4.2-39.12-3.29-55.48,7.26l-14.57,11.26a71.93,71.93,0,0,0-18.52,31.77q-5,12.48-10.26,24.88l7.26-17.2c-22.72,53.71-48.25,106.31-78.12,156.42-9.52,16-12.18,37.62-7.26,55.48a80.55,80.55,0,0,0,33.09,43c16.71,8.83,37,13.25,55.48,7.26,18-5.81,33.2-16.61,43-33.09Z"/><path class="cls-1" d="M2275.19,824.79q-100.81,28.67-188.46,12.11t-145.32-65.28q-57.71-48.75-94.09-105.94t-53.86-118.53q-12.47-43.85-2.13-57.46t47.61-24.17l552.41-157.09q17.52-5,14.4-15.94-39.27-138.1-155.6-230.59T1976,14.29A442.26,442.26,0,0,0,1890.8,48q-39.16,20.6-65.31,41.09t-43.55,38.44q-17.36,18-29.65,33.31l-12.22,15.32q-13.12,3.73-21.25-24.74-5-17.57,1.93-43.18,26.38-73.89,97.87-147.5t172.26-102.29q181.95-51.74,351.32,48.15t225.48,297.2q65.45,230.15-20.35,399.08T2275.19,824.79ZM2274,737.45q114-32.43,146.52-147.12T2435,412.1q-4.37-15.36-17.52-11.63L1990.06,522q-11,3.12-4.73,25,19.94,70.13,105,144.29T2274,737.45Z"/><path class="cls-2" d="M1874.54,1071.62c35.36-88,63-179,85.5-271.11,22.84-93.44,41.57-188.22,55.2-283.45,8.63-60.31,15.69-120.81,18.8-181.68a54.22,54.22,0,0,0-6.2-27.74,54,54,0,0,0-14.89-23.17,54,54,0,0,0-23.17-14.89,54.22,54.22,0,0,0-27.74-6.2c-18.62.83-37.93,7-50.91,21.09L1899.87,299a71.67,71.67,0,0,0-9.83,36.34c-2.46,48.21-7.26,96.27-13.67,144.12l2.57-19.14c-10.4,77.07-24.65,153.67-41.13,229.66-16.23,74.84-35.25,149.12-58.57,222.07q-19.62,61.37-43.55,121.25a54.54,54.54,0,0,0-1.29,28.71,53.59,53.59,0,0,0,8.54,26.77,80.55,80.55,0,0,0,43,33.09c18.43,4.2,39.12,3.29,55.48-7.26l14.57-11.26a71.93,71.93,0,0,0,18.52-31.77Z"/><path class="cls-3" d="M1585.81,677.54q7.46,1.57,12,9.7t1.94,15.3q-2.59,7.17-11.58,12.17l-9,5L1589.91,739l-9.72,5.41-29.52-53L1569.37,681Q1578.35,676,1585.81,677.54Zm-2.34,28.75q4.49-2.5,5.46-6.14a9.61,9.61,0,0,0-1.1-7.36,9.78,9.78,0,0,0-5.7-4.85q-3.63-1.14-8.12,1.37l-9,5,9.46,17Z"/><path class="cls-3" d="M1619.79,680.61q-1.18-10.58,6-14.58a16.2,16.2,0,0,1,3.83-1.38l5.2,9.73a24.54,24.54,0,0,0-4.77,2q-9.64,5.37-2.22,18.68l9.69,17.4-9.64,5.37-22.16-39.78,9.64-5.37Z"/><path class="cls-3" d="M1676.52,652.87a25.46,25.46,0,0,1,4.52,5.72,42.05,42.05,0,0,1,2.54,5.33l-25.65,14.28a15.79,15.79,0,0,0,6.74,6.52q3.89,1.79,8.38-.71,6-3.32,4.19-9.19l9.72-5.41a16.31,16.31,0,0,1-.24,12.44,20.62,20.62,0,0,1-9.35,9.92,19.71,19.71,0,0,1-16.34,1.61q-8.79-2.91-14-12.23-5.32-9.56-3.08-18.41A19.8,19.8,0,0,1,1654,649.87q8.25-4.59,16.06-1.34A20.78,20.78,0,0,1,1676.52,652.87Zm-18.13,4.64a9.11,9.11,0,0,0-4.89,6.2,13.66,13.66,0,0,0,1.1,8.32l16.91-9.42q-3.59-6.45-8.91-6.38A9.15,9.15,0,0,0,1658.39,657.51Z"/><path class="cls-3" d="M1703.82,659.71q3.3,5.55,11.39,1a10.25,10.25,0,0,0,4.35-4.19,4.37,4.37,0,0,0,.25-4.26,3.84,3.84,0,0,0-2.77-2.09,13.81,13.81,0,0,0-4.84.34l-10.39,1.72q-11.5,2-15.74-5.58a10.75,10.75,0,0,1,0-10.65q2.83-5.59,10.47-9.84t13.63-3.2a12.46,12.46,0,0,1,9,6l-9.07,5a4.55,4.55,0,0,0-3.61-2.06,10.1,10.1,0,0,0-5.54,1.59,9.56,9.56,0,0,0-4.24,4,4.1,4.1,0,0,0-.14,3.88q1.59,2.86,7.19,1.56l11.35-1.72a21.36,21.36,0,0,1,9.35,0,9.51,9.51,0,0,1,6,4.86q2.73,4.9.07,11.09-2.73,6.44-10.65,10.85t-14.68,3.63a13.2,13.2,0,0,1-10.34-7Z"/><path class="cls-3" d="M1746.87,635.73q3.3,5.55,11.39,1a10.25,10.25,0,0,0,4.35-4.19,4.36,4.36,0,0,0,.25-4.26,3.84,3.84,0,0,0-2.77-2.09,13.81,13.81,0,0,0-4.84.34l-10.39,1.72q-11.5,2-15.74-5.58a10.75,10.75,0,0,1,0-10.65q2.83-5.59,10.47-9.84t13.63-3.2a12.46,12.46,0,0,1,9,6l-9.07,5a4.55,4.55,0,0,0-3.61-2.06,10.09,10.09,0,0,0-5.54,1.59,9.55,9.55,0,0,0-4.24,4,4.1,4.1,0,0,0-.14,3.88q1.59,2.86,7.19,1.56l11.35-1.72a21.36,21.36,0,0,1,9.35,0,9.51,9.51,0,0,1,6,4.86q2.73,4.9.07,11.09-2.73,6.44-10.65,10.85t-14.68,3.63a13.2,13.2,0,0,1-10.34-7Z"/><path class="cls-1" d="M2146.3,1552.34q28.14-86.72,93.38-129t133-44.3q-101.14-212.5-44.85-385.92Q2416.44,720,2832.62,855l240.61,78.09q125.73,40.8,198.53,45.24,16.59.62,47.56-46.83t38-69.15q2.11-6.49,28.84-.2t36.14,14.12q-81.18,213.23-86.11,228.41-4.23,13-65.83,239.77c-7.69,3.92-20.51,2.93-38.58-2.93s-26.18-11.67-24.3-17.48q8.43-26,10.88-81.5T3207,1177.82q-57.88-35.58-133.79-60.22l-244.93-79.49q-333.81-108.34-404.87,110.59-26,80.24,1.58,153.85t58,83.5l9.38.66,10.84,3.52q57,8.93,158.87,42L2907,1511.69q106.27,34.49,179,39,16.59.62,47.56-46.83t38-69.15q2.1-6.49,28.85-.23t36.14,14.12q-81.2,213.28-86.11,228.41-4.22,13-65.84,239.8c-7.68,3.89-20.5,2.9-38.57-3s-26.18-11.67-24.31-17.45q8.45-26,10.89-81.53t-11.34-64.78q-57.9-35.54-146.81-64.41l-221.09-71.75q-344.66-111.85-412.19,96.23-21.11,65,6.23,147t72.84,96.69l381.5,123.81q125.73,40.8,198.53,45.25,16.59.62,47.56-46.83t38-69.15q2.11-6.49,28.84-.2t36.14,14.12q-81.19,213.24-86.11,228.41-4.23,13-65.84,239.78c-7.69,3.92-20.51,2.93-38.58-2.93s-26.18-11.67-24.3-17.48q8.43-26,10.88-81.5t-11.34-64.78q-57.88-35.58-146.8-64.44l-409.66-133q-84.54-27.44-126.9-7.63-33.07,13.23-53,41.51t-26.64,48.84q-6.69,20.61-11,19.18-52-16.87-49.95-30.58,39.92-241,40.72-317.43c.46-1.42.92-5.26,1.35-11.54q2.81-8.66,22-4.86t27.08,8.79q57.86,28.4,83.87,36.81c5.81,1.88,9.15,1.36,10.09-1.54q.69-2.13-2.25-7.9-35.8-66.71-54.65-167.45T2146.3,1552.34Z"/><path class="cls-2" d="M2107,1714.92c37.16-59.17,75.77-117.46,117-173.9q17.29-23.67,35.21-46.88l-11.26,14.57c57.77-74.65,120.84-145.38,191.16-208.46,20.07-18,40.67-35.5,62-52l-14.57,11.26c27.06-20.86,56.31-39,87.78-52.43l-17.2,7.26q9.84-4.13,19.93-7.6c17.82-6.1,33.32-16.49,43-33.09a53.59,53.59,0,0,0,8.54-26.77,54.54,54.54,0,0,0-1.29-28.71c-5.64-17.42-16.43-34.23-33.09-43s-37.17-13.52-55.48-7.26a429.8,429.8,0,0,0-85.28,39.88c-26.29,16.12-50.58,35.33-74.4,54.87a1314.5,1314.5,0,0,0-107.9,99.43c-72.45,74.42-137,156.56-196.65,241.45-31.91,45.38-62.32,91.8-91.83,138.78a53.59,53.59,0,0,0-8.54,26.77,74,74,0,0,0,34.37,71.74c16.71,8.83,37,13.25,55.48,7.26,18.19-5.89,32.74-16.71,43-33.09Z"/><path class="cls-2" d="M3176.31,876.51q38.06,103.48,68.12,209.66,29.64,105.44,50.19,213.15,11.54,61,19.85,122.59l-2.57-19.14q3.91,29.16,7.08,58.41a69.51,69.51,0,0,0,44.26,65.8,54.22,54.22,0,0,0,27.74,6.2c18.62-.83,37.93-7,50.91-21.09l11.26-14.57a71.67,71.67,0,0,0,9.83-36.34,2529.62,2529.62,0,0,0-41.13-257.74c-17-79.17-37.86-157.49-62.14-234.72q-20.68-65.78-44.54-130.49a80.55,80.55,0,0,0-33.09-43,53.59,53.59,0,0,0-26.77-8.54,54.54,54.54,0,0,0-28.71,1.29c-17.42,5.64-34.23,16.43-43,33.09-8.62,16.31-13.88,37.47-7.26,55.48Z"/><path class="cls-2" d="M3331.31,1650.85c1.63,66.39.88,132.81-1.11,199.18q-3,99-8.34,198-2.52,46.53-8.76,92.76l2.57-19.14c-8.14,60-20.83,119.49-39.91,177a54.54,54.54,0,0,0-1.29,28.71,53.59,53.59,0,0,0,8.54,26.77,80.55,80.55,0,0,0,43,33.09c18.43,4.2,39.12,3.29,55.48-7.26l14.57-11.26a71.93,71.93,0,0,0,18.52-31.77c28-84.51,42.63-173.63,49.48-262.24,3.32-42.93,4.67-86.06,6.53-129.07,2-46.14,3.68-92.29,4.66-138.46,1.11-52.11,1.29-104.24,0-156.34-.46-18.74-7.71-37.54-21.09-50.91a80.1,80.1,0,0,0-50.91-21.09c-18.62.83-37.93,7-50.91,21.09-12.75,13.89-21.56,31.58-21.09,50.91Z"/><path class="cls-1" d="M3351.89-209.77q158.85,14.91,211.72,134.34t29,373.52l-19.38,206.47q-12.35,131.6-.79,203.62,3,16.33,56.09,36.18t75.78,22q6.79.64,6.49,28.1t-5.88,38.35q-225.82-32.65-241.71-34.14-4.56-.43-239.28-11c-5.51-6.65-7.34-19.38-5.57-38.29s5.67-28.1,11.75-27.53q27.2,2.55,77.38-7.61t56.18-25.64q22.08-64.26,30.81-157.33l21.3-226.9q19.8-211-27.42-293.24T3218.64-82.67Q3146-89.48,3074.08-42.43t-76,90.15l-37.49,399.33q-12.35,131.6-.79,203.62,3,16.33,56.09,36.18t75.78,22q6.79.64,6.53,28.1t-5.88,38.35q-225.87-32.65-241.71-34.14-13.62-1.28-248.4-11.87c-5.5-6.65-7.34-19.38-5.57-38.29s5.67-28.1,11.75-27.53q27.2,2.55,81.91-7.18t60.77-25.21q22-64.26,30.78-157.33l40.26-428.81q8.31-88.5-20.27-125.5-20.14-29.38-52.09-42.65t-53.48-15.33q-21.58-2-21.13-6.58,5.11-54.4,19-55.42,243.87-13.7,318.63-29.6c1.52.14,5.37-.25,11.56-1.2q9.07.85,9.53,20.36t-2.66,28.35q-15,62.67-17.57,89.89c-.57,6.08.64,9.22,3.67,9.51,1.49.14,3.93-1.16,7.25-3.92q57.28-49.51,151.48-89.91T3351.89-209.77Z"/><path class="cls-2" d="M2657,3.8a208.11,208.11,0,0,1,22.36,15.26L2664.77,7.8c35.45,27.58,65.63,62,94.06,96.57q13.49,16.4,26.46,33.22L2774,123c33.86,43.83,65.77,89.24,95.69,135.84,40.15,62.52,76.72,127.59,112.15,192.88q36.18,66.67,69.64,134.77a54.41,54.41,0,0,0,18.54,20.2,64.66,64.66,0,0,0,53.2,14.17,53.59,53.59,0,0,0,26.77-8.54c15.37-9.91,28.91-24.67,33.09-43l2.57-19.14a71.67,71.67,0,0,0-9.83-36.34q-44-89.63-92.79-176.8c-26.93-48.2-54.41-96.28-84-142.93-20.21-31.91-41.5-63.14-63.55-93.81-30.26-42.08-61.81-83.49-95.91-122.54-29.88-34.22-62.33-66.65-100.17-92.12q-4.82-3.24-9.83-6.17c-16.17-9.41-37.43-12.23-55.48-7.26a54.23,54.23,0,0,0-24.49,12.89,54.41,54.41,0,0,0-18.54,20.2c-8.83,16.71-13.25,37-7.26,55.48,5.78,17.85,16.56,33.41,33.09,43Z"/><path class="cls-3" d="M1435.58,1007.15q7.61-.38,14.06,6.33t5.77,14.3q-.68,7.59-8.09,14.72l-7.41,7.13,15.29,15.91-8,7.71-42.06-43.74,15.43-14.84Q1428,1007.53,1435.58,1007.15Zm5.06,28.4q3.71-3.56,3.72-7.33a9.62,9.62,0,0,0-2.94-6.84,9.78,9.78,0,0,0-6.75-3.24q-3.8-.17-7.51,3.39l-7.41,7.13,13.48,14Z"/><path class="cls-3" d="M1469.22,1001.46q-3.84-9.93,2.09-15.63a16.11,16.11,0,0,1,3.35-2.31l7.51,8.08a24.5,24.5,0,0,0-4.1,3.16q-8,7.65,2.61,18.63l13.8,14.35-8,7.65L1455,1002.57l8-7.65Z"/><path class="cls-3" d="M1517,960.18a25.42,25.42,0,0,1,5.83,4.38,42,42,0,0,1,3.81,4.51l-21.16,20.35a15.8,15.8,0,0,0,8.18,4.59q4.22.74,7.92-2.82,4.92-4.73,1.72-10l8-7.71a16.31,16.31,0,0,1,2.94,12.09,20.63,20.63,0,0,1-6.52,12,19.72,19.72,0,0,1-15.39,5.72q-9.24-.58-16.63-8.26-7.58-7.89-7.67-17a19.8,19.8,0,0,1,6.44-15q6.81-6.55,15.18-5.39A20.74,20.74,0,0,1,1517,960.18Zm-16.35,9.1a9.11,9.11,0,0,0-3.15,7.25,13.66,13.66,0,0,0,3.19,7.77l14-13.41q-5.12-5.32-10.24-3.9A9.15,9.15,0,0,0,1500.66,969.28Z"/><path class="cls-3" d="M1545.15,959.83q4.61,4.52,11.28-1.9a10.25,10.25,0,0,0,3.14-5.16,4.36,4.36,0,0,0-.84-4.18,3.84,3.84,0,0,0-3.21-1.32,13.84,13.84,0,0,0-4.59,1.56l-9.61,4.31q-10.61,4.89-16.64-1.38a10.75,10.75,0,0,1-2.71-10.3q1.31-6.12,7.61-12.18t12.36-6.57a12.47,12.47,0,0,1,10.21,3.54l-7.48,7.19a4.56,4.56,0,0,0-4-1.07,10.08,10.08,0,0,0-5,2.94,9.56,9.56,0,0,0-3.07,5,4.1,4.1,0,0,0,.85,3.79q2.27,2.36,7.35-.32l10.54-4.55a21.34,21.34,0,0,1,9-2.4,9.51,9.51,0,0,1,7,3.18q3.89,4,2.9,10.7-1,6.92-7.53,13.21t-13.27,7.25a13.19,13.19,0,0,1-11.79-4.17Z"/><path class="cls-3" d="M1588.24,891.68a25.42,25.42,0,0,1,5.83,4.38,41.89,41.89,0,0,1,3.81,4.5l-21.16,20.35a15.8,15.8,0,0,0,8.18,4.59q4.22.74,7.92-2.82,4.92-4.73,1.72-10l8-7.71a16.31,16.31,0,0,1,2.94,12.09,20.63,20.63,0,0,1-6.52,12,19.71,19.71,0,0,1-15.39,5.72q-9.24-.58-16.63-8.26-7.58-7.89-7.67-17a19.8,19.8,0,0,1,6.44-15q6.81-6.55,15.18-5.39A20.77,20.77,0,0,1,1588.24,891.68Zm-16.35,9.1a9.11,9.11,0,0,0-3.15,7.25,13.66,13.66,0,0,0,3.19,7.77l14-13.42q-5.12-5.32-10.24-3.9A9.13,9.13,0,0,0,1571.9,900.78Z"/><path class="cls-3" d="M1603.3,871q-3.05-9.65,4.09-16.52,6.07-5.83,13-4.81t13.18,7.57l18.4,19.14-8,7.65-18.4-19.14q-3.5-3.64-7-3.81a8.94,8.94,0,0,0-6.7,2.88,9.35,9.35,0,0,0-2.7,8q.46,5,5.77,10.79l14.58,15.16-8,7.65L1590,872.83l6.94-6.68Z"/><path class="cls-3" d="M1681.21,846.65q-2.76,6-5.32,8.49a20.7,20.7,0,0,1-5.07,3.7,14,14,0,0,1-5.15,1.45q-5.76.22-10.42-4.63l-17.63-18.33-4.58,4.41-5.12-5.32,4.58-4.41-8.29-8.63,8-7.65,8.3,8.63,8.9-8.55,5.12,5.32-8.9,8.55,17.37,18.06q3.89,4,7.73.35a22.51,22.51,0,0,0,4-5.94Z"/><path class="cls-3" d="M1685,825.36q4.61,4.52,11.28-1.89a10.26,10.26,0,0,0,3.14-5.16,4.37,4.37,0,0,0-.84-4.18,3.84,3.84,0,0,0-3.21-1.32,13.83,13.83,0,0,0-4.59,1.56l-9.61,4.31q-10.61,4.89-16.64-1.38a10.75,10.75,0,0,1-2.71-10.3q1.31-6.13,7.61-12.18t12.36-6.57a12.46,12.46,0,0,1,10.21,3.54l-7.48,7.19a4.56,4.56,0,0,0-4-1.07,10.09,10.09,0,0,0-5,2.94,9.56,9.56,0,0,0-3.07,5,4.1,4.1,0,0,0,.85,3.79q2.27,2.36,7.35-.32l10.54-4.55a21.35,21.35,0,0,1,9-2.4,9.51,9.51,0,0,1,7,3.18q3.89,4,2.9,10.7-1,6.92-7.53,13.21t-13.27,7.25a13.2,13.2,0,0,1-11.79-4.17Z"/><path class="cls-3" d="M1723.82,1199.85q-8.63-1.24-12,8.68-1.66,4.87-.63,8.25a6,6,0,0,0,3.8,4.33,5.83,5.83,0,0,0,4.94-.28,17.9,17.9,0,0,0,4.78-4.49l9.84-11.66a29.36,29.36,0,0,1,10.34-8.29,15.28,15.28,0,0,1,11.43-.25,16.9,16.9,0,0,1,11.16,10.85q2.76,8-1.21,19.62-3.52,10.31-10.76,15-8,5.27-18.22,2.19l3.81-11.16q7.64,2.61,12.34-4.63a25.44,25.44,0,0,0,2.82-6.07,14.91,14.91,0,0,0,.52-7.92q-.81-4-4.11-5.13a7.13,7.13,0,0,0-5.68.08,18.18,18.18,0,0,0-5.31,4.79l-9.07,10.65q-5.21,6.21-10.24,8.76t-11.61.3a15.24,15.24,0,0,1-10.16-10.18q-2.59-7.7,1-18.15t10.33-14.48q6.76-4,15.73-1.93Z"/><path class="cls-3" d="M1756.83,1139.37a27.46,27.46,0,0,1,7.76,1.32,45.33,45.33,0,0,1,5.88,2.43l-10.23,30a17,17,0,0,0,10.11.36q4.41-1.37,6.2-6.62,2.38-7-3.27-10.39l3.88-11.36a17.59,17.59,0,0,1,8.79,10.14,22.24,22.24,0,0,1-.33,14.7,21.26,21.26,0,0,1-11.92,13.08q-9.15,4-20,.3-11.16-3.81-15.75-12.52a21.35,21.35,0,0,1-1.24-17.58q3.29-9.64,11.89-12.67A22.39,22.39,0,0,1,1756.83,1139.37Zm-11.17,16.8a9.83,9.83,0,0,0,.56,8.5,14.75,14.75,0,0,0,6.89,5.87l6.75-19.75q-7.54-2.57-11.74,1.32A9.86,9.86,0,0,0,1745.66,1156.17Z"/><path class="cls-3" d="M1761,1112.08q-7.69-7.74-4.24-17.86,2.93-8.59,10-11t16.37.74l27.1,9.25-3.84,11.26-27.1-9.25q-5.15-1.76-8.62-.18a9.65,9.65,0,0,0-5,6.07,10.09,10.09,0,0,0,1.38,9q2.92,4.57,10.87,7.49l21.47,7.33-3.84,11.26-46.37-15.84,3.36-9.83Z"/><path class="cls-3" d="M1823.69,1050.27q.33,7.15-.91,10.77a22.31,22.31,0,0,1-3,6.05,15.17,15.17,0,0,1-4.22,3.94q-5.41,3.05-12.28.71l-26-8.86-2.22,6.49-7.54-2.57,2.22-6.49-12.21-4.17,3.84-11.26,12.21,4.17,4.3-12.6,7.54,2.57-4.3,12.6,25.57,8.73q5.72,2,7.58-3.48a24.24,24.24,0,0,0,.92-7.68Z"/><path class="cls-3" d="M1767.3,1018.54a6.78,6.78,0,0,1-4.2-3.46,8.8,8.8,0,0,1,3.5-10.26,7.58,7.58,0,0,1,9.64,3.29,8.81,8.81,0,0,1-3.5,10.26A6.78,6.78,0,0,1,1767.3,1018.54Zm15.34,3.75,3.84-11.26L1833,1026.9l-3.84,11.26Z"/><path class="cls-3" d="M1815.95,953.75q-8.49-7.9-4.64-19.17,2.83-8.3,10-11,6.84-2.56,16.38.69l27.1,9.25-3.88,11.36-27.1-9.25q-5.15-1.76-8.62-.17a9.64,9.64,0,0,0-5,6.07,9.24,9.24,0,0,0,1.4,8.68q2.94,4.2,10.79,7.09l21.76,7.43L1850.32,976l-27.1-9.25q-5.15-1.76-8.62-.18a9.65,9.65,0,0,0-5,6.07,10.09,10.09,0,0,0,1.38,9q2.92,4.57,10.87,7.49l21.47,7.33-3.84,11.26L1793.09,992l3.36-9.83,8.44,1.5q-7.69-7.74-4.24-17.85a17.59,17.59,0,0,1,6-8.77A17,17,0,0,1,1815.95,953.75Z"/><path class="cls-3" d="M1848.88,869.8a27.46,27.46,0,0,1,7.76,1.32,45.39,45.39,0,0,1,5.88,2.43l-10.23,30a17,17,0,0,0,10.1.36q4.41-1.37,6.2-6.62,2.38-7-3.27-10.39l3.88-11.36a17.59,17.59,0,0,1,8.79,10.14,22.25,22.25,0,0,1-.33,14.7,21.26,21.26,0,0,1-11.92,13.08q-9.15,4-20,.3-11.16-3.81-15.75-12.52a21.35,21.35,0,0,1-1.24-17.58Q1832,874,1840.6,871A22.39,22.39,0,0,1,1848.88,869.8Zm-11.17,16.8a9.83,9.83,0,0,0,.56,8.5,14.75,14.75,0,0,0,6.89,5.87l6.74-19.75q-7.54-2.57-11.74,1.32A9.87,9.87,0,0,0,1837.71,886.6Z"/><path class="cls-3" d="M1853.08,842.52q-7.69-7.74-4.24-17.86,2.93-8.59,10-11t16.37.74l27.1,9.25-3.84,11.26-27.1-9.25q-5.15-1.76-8.62-.18a9.65,9.65,0,0,0-5,6.07,10.1,10.1,0,0,0,1.39,9.05q2.92,4.57,10.87,7.49l21.47,7.33-3.84,11.26-46.37-15.84,3.36-9.83Z"/><path class="cls-3" d="M1915.74,780.7q.33,7.15-.91,10.77a22.34,22.34,0,0,1-3,6.05,15.19,15.19,0,0,1-4.22,3.94q-5.41,3.05-12.28.71l-26-8.86-2.22,6.49-7.54-2.57,2.22-6.49-12.21-4.17,3.84-11.26,12.21,4.17,4.3-12.6,7.54,2.57-4.3,12.6,25.57,8.73q5.72,2,7.58-3.48a24.2,24.2,0,0,0,.92-7.68Z"/><path class="cls-3" d="M1908.86,758.42q6.65,2.06,9.87-7.39a11.06,11.06,0,0,0,.46-6.5q-.78-2.87-2.88-3.59a4.13,4.13,0,0,0-3.73.32A14.87,14.87,0,0,0,1909,745l-7.08,8.88q-7.76,9.93-16.63,6.89-5.91-2-7.69-8.54t1.28-15.44q3-8.92,8.61-12.41a13.44,13.44,0,0,1,11.54-1.65l-3.62,10.59a4.92,4.92,0,0,0-4.38,1,10.89,10.89,0,0,0-3.29,5.27,10.29,10.29,0,0,0-.49,6.28,4.42,4.42,0,0,0,2.69,3.21q3.34,1.14,6.88-3.94l7.85-9.57a23,23,0,0,1,7.48-6.77,10.26,10.26,0,0,1,8.29-.42q5.73,2,8.07,8.83,2.47,7.13-.69,16.39t-9.14,13.5a14.23,14.23,0,0,1-13.36,1.83Z"/></svg>