<svg id="Layer_1" data-name="Layer 1" xmlns="http://www.w3.org/2000/svg" viewBox="0 0 3552.55 2250"><defs><style>.cls-1{fill:#fff;stroke:#1928eb;stroke-miterlimit:10;stroke-width:9px;}.cls-2{fill:#feea80;}.cls-3{fill:#1928eb;}</style></defs><title>background</title><path class="cls-1" d="M851.62-226.72q127.51-95.91,247-43.19t272.9,256.67l124.66,165.73q79.46,105.63,136.49,151.1,13.22,10,65.83-11t70.84-34.76q5.45-4.1,23.72,16.41t21.47,32.32q-189,127.88-201.72,137.47-3.66,2.75-184.36,152.93c-8.55-1.21-18.47-9.39-29.89-24.57s-14.72-24.6-9.85-28.26q21.84-16.42,52.11-57.72t24.28-56.78q-26.93-62.38-83.12-137.08L1245,110.43Q1117.6-58.92,1027.3-88T838.64-43Q780.34.82,758.83,84t4.51,117.8l241.1,320.53Q1083.9,628,1140.93,673.47q13.22,10,65.83-11t70.84-34.76q5.45-4.1,23.74,16.39t21.47,32.32q-189,127.9-201.72,137.47-10.94,8.23-191.68,158.44c-8.55-1.21-18.48-9.39-29.89-24.56s-14.72-24.6-9.84-28.27q21.83-16.42,55.74-60.45t28-59.55q-27-62.35-83.15-137.06l-258.9-344.2q-53.43-71-99.48-79.16-34.67-8.17-67.23,3.52t-49.86,24.67q-17.32,13-20.06,9.36Q361.86,233,371.42,222.88,542.53,48.58,587.11-13.5q1.83-1.37,7.74-8.67,7.28-5.47,20.76,8.64T632.72,9.23q31.07,56.46,47.52,78.3c3.67,4.88,6.68,6.39,9.12,4.56,1.19-.9,2.12-3.5,2.72-7.78q9-75.17,51.49-168.46T851.62-226.72Z"/><path class="cls-1" d="M1591.63,2028.15q-74.17,109.41-98.73,178.08-5.18,15.79,31.77,58.73t55.84,55.75q5.64,3.83-7.83,27.76t-23.62,30.79Q1366.84,2241.93,1353.63,2233t-212-130c-1.63-8.48,2.89-20.52,13.55-36.24s18.5-21.9,23.55-18.48q22.62,15.33,75.26,33.13t65.38,7.14q50.28-45.7,102.74-123.07L1663.8,1609q49.88-73.57,42.64-119.77-3.51-35.44-25.13-62.46t-39.5-39.17q-17.94-12.16-15.36-15.94,30.66-45.23,43.27-39.47,220.39,105.4,293.56,127.43l5,.67,5.67,3.84q7.54,5.11-1.44,22.44t-16,23.57q-60.6,69.07-101.5,129.4Zm337.83-839.55q-8.8-45.86,18.07-85.5t72.73-48.44q45.86-8.8,85.52,18t48.42,72.76q8.77,45.9-18,85.52t-72.76,48.42q-45.9,8.77-85.5-18.07T1929.46,1188.59Z"/><path class="cls-2" d="M2034,335.38c1.83-36.78,2.31-73.63,1-110.44-1.51-42.06-5.87-83.75-11.75-125.41a847.72,847.72,0,0,0-21.62-105.6c-11.05-40.35-25.83-79.23-42.55-117.55-16.83-38.57-37.22-75.46-59.44-111.16-9.74-15.65-25.08-28.15-43-33.09a54.54,54.54,0,0,0-28.71-1.29,53.59,53.59,0,0,0-26.77,8.54c-15.37,9.91-28.91,24.67-33.09,43-4.24,18.61-3.09,38.86,7.26,55.48,23.68,38.05,45.18,77.45,62.7,118.74l-7.26-17.2c27.53,65.38,45,134.45,54.52,204.68L1882.73,125c9.27,69.72,10.8,140.22,7.31,210.41a54.22,54.22,0,0,0,6.2,27.74,64.75,64.75,0,0,0,38.06,38.06,54.22,54.22,0,0,0,27.74,6.2c18.62-.83,37.93-7,50.91-21.09l11.26-14.57a71.67,71.67,0,0,0,9.83-36.34Z"/><path class="cls-2" d="M206.33,857.38c2.14,139.77,36.37,282.16,120.68,395.82,41.64,56.13,89.63,105.85,140.63,153.47q77.2,72.07,158.5,139.56c30.25,25.12,60.78,50,92.3,73.52,25.69,19.17,52.69,36.63,82.12,49.5,20.16,8.82,40.36,16.87,61.72,22.21,22,5.49,44.58,8.52,67.06,11,33.68,3.74,67.75,3.52,101.53,1.44,144.63-8.91,284.77-52.27,413-119A909.43,909.43,0,0,0,1614,1470.46c53.66-45.72,99.18-100.28,138.49-158.66q13.78-20.47,26.42-41.68c9.54-15.93,12.17-37.66,7.26-55.48-4.6-16.7-17.51-34.8-33.09-43-16.71-8.83-37-13.25-55.48-7.26-18,5.82-33.16,16.61-43,33.09a873.49,873.49,0,0,1-56.72,83.75l11.26-14.57a693.54,693.54,0,0,1-122.85,123.07l14.57-11.26c-62.83,48.51-132.85,87-205.8,118l17.2-7.26c-77.72,32.78-159.24,56.42-242.91,67.71l19.14-2.57c-55.54,7.31-112.58,10.33-168.29,3.06l19.14,2.57c-27.79-3.82-55-10.5-80.95-21.28l17.2,7.26c-35.06-15-66.52-36.52-96.58-59.72l14.57,11.26c-50.22-39-98.79-80.2-146.47-122.2-46-40.55-91.72-81.82-134.63-125.7a855.1,855.1,0,0,1-65.56-74.59l11.26,14.57c-27.65-36.05-50.93-74.87-68.75-116.69l7.26,17.2c-21.27-50.58-34.74-104-42.14-158.28l2.57,19.14a804.34,804.34,0,0,1-6.76-93.51c-.29-18.64-7.83-37.66-21.09-50.91-12.49-12.49-33-21.89-50.91-21.09-18.62.83-37.93,7-50.91,21.09-12.82,14-21.39,31.51-21.09,50.91Z"/><path class="cls-2" d="M1010.3,1725.36c34.32-63,62.45-129.45,86.57-196.93a1867.35,1867.35,0,0,0,57.58-193.18c17.18-71.69,29.32-145.58,30.87-219.39,1.37-65.34-6.5-131.58-21.84-195.07-30.46-126-94-244.49-181.94-339.71-42.41-45.92-92.21-86.84-146.46-118a550.78,550.78,0,0,0-93-42.07c-32.18-11.2-65-17.25-98.79-21.33a358.41,358.41,0,0,0-80-.66c-32.63,3.39-65,8.76-96,19.55C406.14,439.82,348,474.7,306.72,525.3c-13.55,16.59-26.41,33.71-37.26,52.18C260,593.58,257.25,615,262.2,633c4.6,16.7,17.51,34.8,33.09,43,16.71,8.83,37,13.25,55.48,7.26,17.89-5.79,33.33-16.58,43-33.09a310,310,0,0,1,21.91-32.48l-11.26,14.57a277.6,277.6,0,0,1,47.61-47.58l-14.57,11.26a300.39,300.39,0,0,1,65.7-38.24L486,565a341.94,341.94,0,0,1,86.41-23.31l-19.14,2.57a364.3,364.3,0,0,1,95.52.18l-19.14-2.57a401.66,401.66,0,0,1,99.52,27.8L712,562.36c38.95,16.51,75.29,38.44,108.79,64.21l-14.57-11.26c41.7,32.3,78.68,70.25,111,111.93l-11.26-14.57a703.35,703.35,0,0,1,89.76,153.84l-7.26-17.2a711.78,711.78,0,0,1,49.68,181.54l-2.57-19.14c8.42,63.95,7.3,128.34-1.14,192.23l2.57-19.14c-7,52-18.37,103.35-32,154-13.29,49.55-28.28,98.69-45.41,147.05q-14.38,40.59-31.05,80.32l7.26-17.2c-15,35.33-31.42,70-49.78,103.68-9.11,16.71-12.37,36.91-7.26,55.48,4.6,16.7,17.51,34.8,33.09,43,16.71,8.83,37,13.25,55.48,7.26,17.56-5.68,34-16.47,43-33.09Z"/><path class="cls-2" d="M58.63,1590.16c26.33,62.77,54,125.17,88.39,184a758.6,758.6,0,0,0,49.36,74.65c21.11,28,43.09,55.1,68.27,79.54A529.91,529.91,0,0,0,346,1993.21c28.8,18.57,60,33,92.08,45.06,32.55,12.22,66,18.55,100.47,22.54,33.89,3.92,67.43,1.27,101-4.5,34.46-5.93,67.85-19.22,98.67-35.47,31.48-16.6,60.25-38.44,87.33-61.39q8.78-7.43,17.24-15.22a69.61,69.61,0,0,0,14.89-78.65,54,54,0,0,0-14.89-23.17c-13.72-12.6-31.74-21.95-50.91-21.09A77.88,77.88,0,0,0,741,1842.41c-11.33,10.36-23,20.32-35.15,29.71l14.57-11.26c-24.28,18.64-50.35,34.9-78.57,46.88l17.2-7.26a270.69,270.69,0,0,1-67.12,18.41l19.14-2.57a297.8,297.8,0,0,1-78.78-.31l19.14,2.57a357.65,357.65,0,0,1-89.26-24.85l17.2,7.26a406.19,406.19,0,0,1-88.94-52.13L405,1860.12c-34.52-26.81-64.79-58.72-91.5-93.24l11.26,14.57c-42.5-55.25-75.8-116.88-105.07-180Q205.55,1571,192.49,1540l7.26,17.2-2.26-5.37a54.23,54.23,0,0,0-12.89-24.49,54.41,54.41,0,0,0-20.2-18.54,53.59,53.59,0,0,0-26.77-8.54,54.54,54.54,0,0,0-28.71,1.29c-17.42,5.64-34.23,16.43-43,33.09l-7.26,17.2a72.51,72.51,0,0,0,0,38.28Z"/><path class="cls-2" d="M2577,1206.69a233.36,233.36,0,0,1,40.72-9.85l-19.14,2.57a163.13,163.13,0,0,1,41.81-.43l-19.14-2.57a130.07,130.07,0,0,1,32,8.66l-17.2-7.26a126.51,126.51,0,0,1,26.18,15.4l-14.57-11.26a127.93,127.93,0,0,1,21.84,21.93l-11.26-14.57a150.72,150.72,0,0,1,18.62,32.48l-7.26-17.2c7.69,18.61,12.18,38.24,14.86,58.16l-2.57-19.14c4.1,31.89,3.26,63.9,2.3,95.95-1,32.75-2.06,65.51-1.39,98.28,1.52,74.18,11.68,150.64,48.66,216.23,21.13,37.48,50.7,68.11,85.69,92.75,17.7,12.47,37.13,20.91,57.09,29.13a241.22,241.22,0,0,0,45.64,13.66,385.92,385.92,0,0,0,65.37,7.46c21.93.47,43.36-2.2,65.06-5.19,39.37-5.42,76.22-19.1,112.1-35.9,38.08-17.84,72-41.91,105.08-67.63,28.68-22.3,55.45-46.91,81.12-72.59,51.48-51.5,98.14-107.12,142.22-165a1764.52,1764.52,0,0,0,117.49-175.79,1953.28,1953.28,0,0,0,100-194.87c32.58-73.27,61.74-148.06,86-224.52a1887.1,1887.1,0,0,0,55.3-218.4q5.16-27.23,9.48-54.61a54.54,54.54,0,0,0,1.29-28.71,53.59,53.59,0,0,0-8.54-26.77c-8.74-14.94-25.86-29.18-43-33.09-18.43-4.2-39.12-3.29-55.48,7.26-14.74,9.5-30.23,24.92-33.09,43-18.88,119.51-49.89,237-91.19,350.71q-17.38,47.85-37.19,94.77l7.26-17.2c-49.2,116.38-109.15,228.37-180.27,332.85q-28.74,42.21-60,82.65l11.26-14.57c-46.38,59.89-96.89,117-152.39,168.59-17,15.77-34.51,30.9-52.82,45.09l14.57-11.26c-32,24.66-66.45,46.18-103.75,62l17.2-7.26a324.14,324.14,0,0,1-81.76,22.52l19.14-2.57a295,295,0,0,1-76.9,0l19.14,2.57a248.85,248.85,0,0,1-60.8-16.39l17.2,7.26a211.67,211.67,0,0,1-46.28-26.86l14.57,11.26a206.51,206.51,0,0,1-35.34-35.49l11.26,14.57a230.64,230.64,0,0,1-29.45-51l7.26,17.2c-11.13-26.84-17.7-55.21-21.63-83.94l2.57,19.14c-9.49-71.43-2.27-142.92-2.76-214.59-.16-23.83-2.64-47.11-5.9-70.72-2.35-17-6-33.87-11.89-50-4.8-13-10.13-26.13-16.74-38.38s-15.16-22.94-23.77-33.79a125.49,125.49,0,0,0-17.22-17.95c-11.36-9.61-23.46-19.25-36.76-26.15a205.82,205.82,0,0,0-94.16-23.5c-28.21-.19-57.23,5.13-84,14.06-17.78,5.94-33.39,16.61-43,33.09-9,15.43-12.86,38.18-7.26,55.48s16.43,34.23,33.09,43,37.07,13.4,55.48,7.26Z"/><path class="cls-2" d="M1729.05,2367.15c46.4-86.45,94.66-171.88,143.7-256.85s98.56-169.65,148.5-254.09c28-47.42,56.43-94.63,85.71-141.29a53.59,53.59,0,0,0,8.54-26.77,74,74,0,0,0-34.37-71.74c-16.71-8.83-37-13.25-55.48-7.26-18.18,5.88-32.75,16.71-43,33.09-52.22,83.21-101.62,168.15-151.26,252.91s-99,169.46-147.16,255q-40.44,71.8-79.5,144.36c-9,16.84-12.4,36.79-7.26,55.48a80.55,80.55,0,0,0,33.09,43c16.71,8.83,37,13.25,55.48,7.26,17.49-5.66,34.1-16.45,43-33.09Z"/><path class="cls-2" d="M3319,1461.18c6.78,63,10.72,126.3,12.32,189.68.47,18.75,7.7,37.53,21.09,50.91a80.1,80.1,0,0,0,50.91,21.09c18.62-.83,37.93-7,50.91-21.09,12.74-13.88,21.58-31.58,21.09-50.91-1.6-63.37-5.55-126.64-12.32-189.68a69.51,69.51,0,0,0-44.26-65.8,54.22,54.22,0,0,0-27.74-6.2c-18.62.83-37.93,7-50.91,21.09-12.12,13.2-23.09,32.29-21.09,50.91Z"/><path class="cls-2" d="M3051.52,586.51q41.92,85.52,79.09,173.24l-7.26-17.2q28,66.37,53,134a80.55,80.55,0,0,0,33.09,43,53.59,53.59,0,0,0,26.77,8.54,54.54,54.54,0,0,0,28.71-1.29c17.42-5.64,34.23-16.43,43-33.09,8.61-16.3,13.89-37.48,7.26-55.48C3283,751,3247,665,3207.79,580.69q-15.61-33.6-31.93-66.87a54.41,54.41,0,0,0-18.54-20.2,64.66,64.66,0,0,0-53.2-14.17,53.59,53.59,0,0,0-26.77,8.54c-15.37,9.91-28.91,24.67-33.09,43l-2.57,19.14a71.67,71.67,0,0,0,9.83,36.34Z"/><path class="cls-2" d="M2527.85-74A752,752,0,0,1,2664.63,9.62L2650.06-1.64c46.36,35.82,87.89,77.07,125,122.38a54,54,0,0,0,23.17,14.89,65.15,65.15,0,0,0,55.48,0,54,54,0,0,0,23.17-14.89C2889.48,107,2898.83,89,2898,69.82l-2.57-19.14a71.93,71.93,0,0,0-18.52-31.77,816,816,0,0,0-212.35-183.15q-31.15-18.6-64-34.1a53.59,53.59,0,0,0-26.77-8.54,54.54,54.54,0,0,0-28.71,1.29,54.23,54.23,0,0,0-24.49,12.89,54.41,54.41,0,0,0-18.54,20.2c-8.83,16.71-13.25,37-7.26,55.48,5.49,17,16.35,35.11,33.09,43Z"/><path class="cls-3" d="M1512.63,587.16q8.82,2.94,13.18,13.42t.22,18.81q-4.14,8.33-15.72,13.14l-11.59,4.82L1509,662.21l-12.54,5.21-28.41-68.36,24.12-10Q1503.81,584.22,1512.63,587.16Zm-6.84,34.53q5.79-2.41,7.47-6.69a11.73,11.73,0,0,0-.31-9.07,11.93,11.93,0,0,0-6.23-6.67q-4.24-1.88-10,.53l-11.59,4.82,9.11,21.91Z"/><path class="cls-3" d="M1553.38,595.61q0-13,9.31-16.84a19.72,19.72,0,0,1,4.84-1.14l5,12.52a29.91,29.91,0,0,0-6.06,1.78q-12.43,5.17-5.29,22.34l9.32,22.44L1558,641.85l-21.32-51.3,12.43-5.17Z"/><path class="cls-3" d="M1626,569.87a31,31,0,0,1,4.69,7.56,51.22,51.22,0,0,1,2.34,6.81L1600,598q2.79,6.13,7.26,8.84t10.26.31q7.69-3.2,6.36-10.55l12.54-5.21a19.9,19.9,0,0,1-2,15,25.17,25.17,0,0,1-12.72,10.72,24.05,24.05,0,0,1-20-.33q-10.25-4.75-15.24-16.76-5.12-12.32-1.17-22.74a24.15,24.15,0,0,1,14-14.21q10.64-4.42,19.65.61A25.31,25.31,0,0,1,1626,569.87Zm-22.62,3.1q-5.27,2.19-6.79,6.84a16.66,16.66,0,0,0,.18,10.24l21.8-9.06q-3.46-8.32-9.91-9A11.17,11.17,0,0,0,1603.39,573Z"/><path class="cls-3" d="M1658.15,582q3.23,7.18,13.66,2.85a12.51,12.51,0,0,0,5.86-4.47q1.86-2.81.89-5.13a4.68,4.68,0,0,0-3.07-2.93,16.84,16.84,0,0,0-5.91-.26l-12.83.64q-14.22.85-18.3-8.95-2.71-6.53,1.49-12.91T1654,540.32q9.85-4.09,17-2a15.21,15.21,0,0,1,10,8.55l-11.69,4.86a5.56,5.56,0,0,0-4.09-3,12.32,12.32,0,0,0-6.93,1.15,11.66,11.66,0,0,0-5.69,4.28,5,5,0,0,0-.71,4.68q1.53,3.69,8.49,2.89l14-.51a26.07,26.07,0,0,1,11.34,1.28,11.61,11.61,0,0,1,6.56,6.72q2.63,6.32-1.45,13.45-4.2,7.43-14.42,11.68t-18.29,2.35q-8.08-1.89-11.55-10Z"/><path class="cls-3" d="M1713.66,558.89q3.23,7.18,13.66,2.85a12.51,12.51,0,0,0,5.86-4.47q1.86-2.81.9-5.13a4.68,4.68,0,0,0-3.07-2.93,16.84,16.84,0,0,0-5.91-.26l-12.83.64q-14.22.85-18.3-8.95-2.71-6.53,1.49-12.91t14.05-10.47q9.85-4.09,17-2a15.21,15.21,0,0,1,10,8.55l-11.69,4.86a5.56,5.56,0,0,0-4.09-3,12.32,12.32,0,0,0-6.93,1.15,11.65,11.65,0,0,0-5.69,4.28,5,5,0,0,0-.71,4.68q1.53,3.69,8.49,2.89l14-.51a26.05,26.05,0,0,1,11.34,1.28,11.61,11.61,0,0,1,6.56,6.72q2.63,6.32-1.45,13.45-4.2,7.43-14.42,11.67t-18.29,2.35q-8.08-1.89-11.55-10Z"/><path class="cls-1" d="M-21,1566.25Q-.78,1520.4,41.5,1455.6t58.4-90.07Q205,1387,323.64,1434.35q10.43,4.6-1.52,31.69-12.89,29.23-28.42,24.84-63-15.32-136.7,10.71T55.66,1590.1q-66.24,150.17,56.79,204.4,31.28,13.8,58.94,16t60.12-12.09q32.5-14.3,47.38-22.68t57.73-40.54q42.83-32.16,53.67-39.85,7.86-6.49,49.77-36.56t59.69-42.16q17.78-12.07,57.06-33.38t65.52-27.13q26.26-5.82,62.47-6.05t67.48,13.55q123,54.27,163.08,186.53t-17,261.5a627.49,627.49,0,0,1-40.62,78q-21.36,34.18-55.91,78.71t-50.71,69.75q-38.86-2.18-114.82-22t-117.65-38.2c-3.42-14.78-3.94-24.95-1.47-30.53q13.8-31.28,27.22-27.84,68.07,15.12,156.47-24.38t122.42-116.62q29.43-66.71,11.81-125.56t-86.42-89.19q-35.47-15.65-71.67-15.4t-73.53,19.87q-37.3,19.64-64.43,38.82t-73.32,56.09q-46.19,36.9-70.9,53.4Q229.29,2037.86,100,1980.79q-112.56-49.65-143.46-171.63T-21,1566.25Z"/><path class="cls-2" d="M-41.71,1000c-2.64,32.75-1.37,65.81.89,98.54,3.24,46.88,9.2,93.55,15.91,140,12.08,83.76,28.36,167.22,50.27,249,9.29,34.67,19.42,69.43,33.27,102.59a54.23,54.23,0,0,0,12.89,24.49,54.41,54.41,0,0,0,20.2,18.54,53.59,53.59,0,0,0,26.77,8.54,54.54,54.54,0,0,0,28.71-1.29c17.42-5.64,34.23-16.43,43-33.09l7.26-17.2a72.51,72.51,0,0,0,0-38.28c-16.12-38.6-27.41-79.3-37.77-119.76-13.42-52.43-24.54-105.45-34-158.73q-8.27-46.58-14.62-93.48l2.57,19.14c-7.22-54-13-108.59-12.78-163.13,0-12,.43-24,1.4-35.91a54.22,54.22,0,0,0-6.2-27.74A54,54,0,0,0,81.2,949.09,54,54,0,0,0,58,934.2,54.22,54.22,0,0,0,30.29,928c-18.62.83-37.93,7-50.91,21.09l-11.26,14.57A71.67,71.67,0,0,0-41.71,1000Z"/><path class="cls-1" d="M163.05,369.55Q260,329.67,348.94,336.22T500.7,384.66q62.85,41.92,105.46,94.62T673.07,591q17.34,42.16,8.61,56.85t-44.57,29.4L106,895.72q-16.84,6.93-12.51,17.47Q148.12,1046,274.16,1124.72T552,1141a442.18,442.18,0,0,0,80.82-43.09q36.58-24.89,60.25-48.21T732,1006.62q15.22-19.85,25.69-36.45l10.41-16.6q12.61-5.19,23.91,22.18,6.95,16.89,3,43.13-17.86,76.39-80.57,157.61t-159.6,121.1q-174.93,72-354.51-8.13T-57.39,1019.65q-91-221.28-24.88-398.82T163.05,369.55Zm11,86.65Q64.43,501.31,45.1,618.94t5.77,178.72q6.08,14.77,18.72,9.57l411-169.09q10.54-4.34,1.87-25.42Q454.69,545.3,361.8,481.23T174.05,456.2Z"/><path class="cls-2" d="M269.46,577.48c-39.33,67.92-56.25,145.35-61.63,223-1.31,18.95-1.74,37.95-1.5,56.94.24,18.61,7.87,37.69,21.09,50.91a54,54,0,0,0,23.17,14.89,54.22,54.22,0,0,0,27.74,6.2c18.62-.83,37.93-7,50.91-21.09,12.84-14,21.34-31.49,21.09-50.91a653.71,653.71,0,0,1,5.35-94.9l-2.57,19.14c5.2-38,14.31-75.44,29.14-110.86L375,688a341.88,341.88,0,0,1,18.81-37.8c9.39-16.21,12.24-37.39,7.26-55.48a54.23,54.23,0,0,0-12.89-24.49A54.41,54.41,0,0,0,368,551.65c-16.71-8.83-37-13.25-55.48-7.26-17.82,5.77-33.46,16.55-43,33.09Z"/><path class="cls-2" d="M842.81,1944.23a705.57,705.57,0,0,0,69.42-73.88,964.28,964.28,0,0,0,69.07-95.51q15.26-24.29,29-49.49c9.13-16.67,12.36-37,7.26-55.48a80.55,80.55,0,0,0-33.09-43c-16.71-8.83-37-13.25-55.48-7.26-17.58,5.69-33.93,16.48-43,33.09a884.93,884.93,0,0,1-74.46,114.84l11.26-14.57A718.57,718.57,0,0,1,741,1842.41a69.61,69.61,0,0,0-14.89,78.65A54,54,0,0,0,741,1944.23c13.72,12.6,31.74,21.95,50.91,21.09,19.55-.88,36.37-7.71,50.91-21.09Z"/><path class="cls-1" d="M1435,915.92l-97.41-89.35q-8.4-7.7,24-43c6.15-6.7,10.3-10.12,12.45-10.21q68.72,22.85,187.45,8A621.07,621.07,0,0,0,1643.05,765q43-11.54,73.28-20.9t31.81-11q50.35,46.19,42.66,54.6L1638.29,953.92q43.64,40,131.91,122.54t93.29,87.11q13.42,12.31-.45,27.43-27.72,30.22-75.33,48.41l-223.36-204.89L1186.92,1446q-61.63,67.19-64.16,139.06t52.88,122.71Q1226,1754,1309,1771.37q8.12,1.23,2,28.13t-9.31,27q-49.85,3.77-125.79-18T1044.61,1736q-84-77-89.4-184.05t88.56-209.47Z"/><path class="cls-2" d="M1778.91,1270.12c37.68-63.21,68.15-130.33,95.63-198.5a54.54,54.54,0,0,0,1.29-28.71,53.59,53.59,0,0,0-8.54-26.77,80.55,80.55,0,0,0-43-33.09c-18.43-4.2-39.12-3.29-55.48,7.26l-14.57,11.26a71.93,71.93,0,0,0-18.52,31.77q-5,12.48-10.26,24.88l7.26-17.2c-22.72,53.71-48.25,106.31-78.12,156.42-9.52,16-12.18,37.62-7.26,55.48a80.55,80.55,0,0,0,33.09,43c16.71,8.83,37,13.25,55.48,7.26,18-5.81,33.2-16.61,43-33.09Z"/><path class="cls-1" d="M2275.19,824.79q-100.81,28.67-188.46,12.11t-145.32-65.28q-57.71-48.75-94.09-105.94t-53.86-118.53q-12.47-43.85-2.13-57.46t47.61-24.17l552.41-157.09q17.52-5,14.4-15.94-39.27-138.1-155.6-230.59T1976,14.29A442.26,442.26,0,0,0,1890.8,48q-39.16,20.6-65.31,41.09t-43.55,38.44q-17.36,18-29.65,33.31l-12.22,15.32q-13.12,3.73-21.25-24.74-5-17.57,1.93-43.18,26.38-73.89,97.87-147.5t172.26-102.29q181.95-51.74,351.32,48.15t225.48,297.2q65.45,230.15-20.35,399.08T2275.19,824.79ZM2274,737.45q114-32.43,146.52-147.12T2435,412.1q-4.37-15.36-17.52-11.63L1990.06,522q-11,3.12-4.73,25,19.94,70.13,105,144.29T2274,737.45Z"/><path class="cls-2" d="M1874.54,1071.62c35.36-88,63-179,85.5-271.11,22.84-93.44,41.57-188.22,55.2-283.45,8.63-60.31,15.69-120.81,18.8-181.68a54.22,54.22,0,0,0-6.2-27.74,54,54,0,0,0-14.89-23.17,54,54,0,0,0-23.17-14.89,54.22,54.22,0,0,0-27.74-6.2c-18.62.83-37.93,7-50.91,21.09L1899.87,299a71.67,71.67,0,0,0-9.83,36.34c-2.46,48.21-7.26,96.27-13.67,144.12l2.57-19.14c-10.4,77.07-24.65,153.67-41.13,229.66-16.23,74.84-35.25,149.12-58.57,222.07q-19.62,61.37-43.55,121.25a54.54,54.54,0,0,0-1.29,28.71,53.59,53.59,0,0,0,8.54,26.77,80.55,80.55,0,0,0,43,33.09c18.43,4.2,39.12,3.29,55.48-7.26l14.57-11.26a71.93,71.93,0,0,0,18.52-31.77Z"/><path class="cls-3" d="M1861.83,803.63q.76,9.27-7.16,17.4t-17.21,7.6q-9.28-.53-18.27-9.28l-9-8.76-18.79,19.28-9.72-9.47,51.67-53,18.71,18.23Q1861.06,794.36,1861.83,803.63Zm-34.43,7.3q4.49,4.38,9.09,4.24a11.73,11.73,0,0,0,8.22-3.86,11.93,11.93,0,0,0,3.68-8.36q.06-4.64-4.43-9l-9-8.76-16.56,17Z"/><path class="cls-3" d="M1870.09,844.42q12-5.07,19.14,1.93a19.77,19.77,0,0,1,3,4l-9.56,9.48a30,30,0,0,0-4-4.87q-9.64-9.39-22.62,3.92l-17,17.4-9.64-9.39,38.77-39.78,9.64,9.4Z"/><path class="cls-3" d="M1922.33,901.06a31.06,31.06,0,0,1-5.11,7.28,51.3,51.3,0,0,1-5.34,4.83l-25.65-25q-4.54,5-5.27,10.15t3.75,9.55q6,5.81,12.2,1.7l9.72,9.47a19.9,19.9,0,0,1-14.63,4.06,25.16,25.16,0,0,1-14.86-7.47,24.05,24.05,0,0,1-7.58-18.54q.34-11.3,9.41-20.61,9.32-9.56,20.44-10a24.16,24.16,0,0,1,18.57,7.26q8.25,8,7.17,18.3A25.35,25.35,0,0,1,1922.33,901.06Zm-11.75-19.57q-4.09-4-9-3.56a16.67,16.67,0,0,0-9.34,4.19l16.91,16.48q6.29-6.45,4.35-12.64A11.16,11.16,0,0,0,1910.58,881.49Z"/><path class="cls-3" d="M1923.85,935.37q-5.33,5.8,2.76,13.68a12.51,12.51,0,0,0,6.42,3.63q3.32.6,5.07-1.19a4.68,4.68,0,0,0,1.48-4,16.85,16.85,0,0,0-2.09-5.54l-5.63-11.54q-6.38-12.74,1-20.34,4.94-5.06,12.46-3.71t15.16,8.8q7.64,7.44,8.5,14.81a15.21,15.21,0,0,1-3.91,12.59l-9.07-8.84a5.56,5.56,0,0,0,1.15-4.93,12.32,12.32,0,0,0-3.79-5.92,11.66,11.66,0,0,0-6.18-3.55,5,5,0,0,0-4.58,1.19q-2.79,2.86.68,8.95l6,12.67a26.06,26.06,0,0,1,3.29,10.93,11.6,11.6,0,0,1-3.6,8.68q-4.78,4.9-12.94,4-8.48-.94-16.41-8.66t-9.36-15.89q-1.44-8.17,4.61-14.54Z"/><path class="cls-3" d="M1966.9,977.33q-5.33,5.8,2.76,13.68a12.51,12.51,0,0,0,6.42,3.63q3.32.6,5.07-1.19a4.68,4.68,0,0,0,1.48-4,16.85,16.85,0,0,0-2.09-5.54l-5.63-11.54q-6.38-12.74,1-20.34,4.94-5.06,12.46-3.71t15.16,8.8q7.64,7.44,8.5,14.81a15.21,15.21,0,0,1-3.91,12.59l-9.07-8.84a5.56,5.56,0,0,0,1.15-4.93,12.31,12.31,0,0,0-3.79-5.92,11.65,11.65,0,0,0-6.18-3.55,5,5,0,0,0-4.58,1.19q-2.79,2.86.68,8.95l6,12.67a26.06,26.06,0,0,1,3.29,10.93,11.6,11.6,0,0,1-3.6,8.68q-4.78,4.9-12.94,4-8.48-.94-16.4-8.66t-9.36-15.89q-1.44-8.17,4.61-14.54Z"/><path class="cls-1" d="M2146.3,1552.34q28.14-86.72,93.38-129t133-44.3q-101.14-212.5-44.85-385.92Q2416.44,720,2832.62,855l240.61,78.09q125.73,40.8,198.53,45.24,16.59.62,47.56-46.83t38-69.15q2.11-6.49,28.84-.2t36.14,14.12q-81.18,213.23-86.11,228.41-4.23,13-65.83,239.77c-7.69,3.92-20.51,2.93-38.58-2.93s-26.18-11.67-24.3-17.48q8.43-26,10.88-81.5T3207,1177.82q-57.88-35.58-133.79-60.22l-244.93-79.49q-333.81-108.34-404.87,110.59-26,80.24,1.58,153.85t58,83.5l9.38.66,10.84,3.52q57,8.93,158.87,42L2907,1511.69q106.27,34.49,179,39,16.59.62,47.56-46.83t38-69.15q2.1-6.49,28.85-.23t36.14,14.12q-81.2,213.28-86.11,228.41-4.22,13-65.84,239.8c-7.68,3.89-20.5,2.9-38.57-3s-26.18-11.67-24.31-17.45q8.45-26,10.89-81.53t-11.34-64.78q-57.9-35.54-146.81-64.41l-221.09-71.75q-344.66-111.85-412.19,96.23-21.11,65,6.23,147t72.84,96.69l381.5,123.81q125.73,40.8,198.53,45.25,16.59.62,47.56-46.83t38-69.15q2.11-6.49,28.84-.2t36.14,14.12q-81.19,213.24-86.11,228.41-4.23,13-65.84,239.78c-7.69,3.92-20.51,2.93-38.58-2.93s-26.18-11.67-24.3-17.48q8.43-26,10.88-81.5t-11.34-64.78q-57.88-35.58-146.8-64.44l-409.66-133q-84.54-27.44-126.9-7.63-33.07,13.23-53,41.51t-26.64,48.84q-6.69,20.61-11,19.18-52-16.87-49.95-30.58,39.92-241,40.72-317.43c.46-1.42.92-5.26,1.35-11.54q2.81-8.66,22-4.86t27.08,8.79q57.86,28.4,83.87,36.81c5.81,1.88,9.15,1.36,10.09-1.54q.69-2.13-2.25-7.9-35.8-66.71-54.65-167.45T2146.3,1552.34Z"/><path class="cls-2" d="M2107,1714.92c37.16-59.17,75.77-117.46,117-173.9q17.29-23.67,35.21-46.88l-11.26,14.57c57.77-74.65,120.84-145.38,191.16-208.46,20.07-18,40.67-35.5,62-52l-14.57,11.26c27.06-20.86,56.31-39,87.78-52.43l-17.2,7.26q9.84-4.13,19.93-7.6c17.82-6.1,33.32-16.49,43-33.09a53.59,53.59,0,0,0,8.54-26.77,54.54,54.54,0,0,0-1.29-28.71c-5.64-17.42-16.43-34.23-33.09-43s-37.17-13.52-55.48-7.26a429.8,429.8,0,0,0-85.28,39.88c-26.29,16.12-50.58,35.33-74.4,54.87a1314.5,1314.5,0,0,0-107.9,99.43c-72.45,74.42-137,156.56-196.65,241.45-31.91,45.38-62.32,91.8-91.83,138.78a53.59,53.59,0,0,0-8.54,26.77,74,74,0,0,0,34.37,71.74c16.71,8.83,37,13.25,55.48,7.26,18.19-5.89,32.74-16.71,43-33.09Z"/><path class="cls-2" d="M3176.31,876.51q38.06,103.48,68.12,209.66,29.64,105.44,50.19,213.15,11.54,61,19.85,122.59l-2.57-19.14q3.91,29.16,7.08,58.41a69.51,69.51,0,0,0,44.26,65.8,54.22,54.22,0,0,0,27.74,6.2c18.62-.83,37.93-7,50.91-21.09l11.26-14.57a71.67,71.67,0,0,0,9.83-36.34,2529.62,2529.62,0,0,0-41.13-257.74c-17-79.17-37.86-157.49-62.14-234.72q-20.68-65.78-44.54-130.49a80.55,80.55,0,0,0-33.09-43,53.59,53.59,0,0,0-26.77-8.54,54.54,54.54,0,0,0-28.71,1.29c-17.42,5.64-34.23,16.43-43,33.09-8.62,16.31-13.88,37.47-7.26,55.48Z"/><path class="cls-2" d="M3331.31,1650.85c1.63,66.39.88,132.81-1.11,199.18q-3,99-8.34,198-2.52,46.53-8.76,92.76l2.57-19.14c-8.14,60-20.83,119.49-39.91,177a54.54,54.54,0,0,0-1.29,28.71,53.59,53.59,0,0,0,8.54,26.77,80.55,80.55,0,0,0,43,33.09c18.43,4.2,39.12,3.29,55.48-7.26l14.57-11.26a71.93,71.93,0,0,0,18.52-31.77c28-84.51,42.63-173.63,49.48-262.24,3.32-42.93,4.67-86.06,6.53-129.07,2-46.14,3.68-92.29,4.66-138.46,1.11-52.11,1.29-104.24,0-156.34-.46-18.74-7.71-37.54-21.09-50.91a80.1,80.1,0,0,0-50.91-21.09c-18.62.83-37.93,7-50.91,21.09-12.75,13.89-21.56,31.58-21.09,50.91Z"/><path class="cls-1" d="M3351.89-209.77q158.85,14.91,211.72,134.34t29,373.52l-19.38,206.47q-12.35,131.6-.79,203.62,3,16.33,56.09,36.18t75.78,22q6.79.64,6.49,28.1t-5.88,38.35q-225.82-32.65-241.71-34.14-4.56-.43-239.28-11c-5.51-6.65-7.34-19.38-5.57-38.29s5.67-28.1,11.75-27.53q27.2,2.55,77.38-7.61t56.18-25.64q22.08-64.26,30.81-157.33l21.3-226.9q19.8-211-27.42-293.24T3218.64-82.67Q3146-89.48,3074.08-42.43t-76,90.15l-37.49,399.33q-12.35,131.6-.79,203.62,3,16.33,56.09,36.18t75.78,22q6.79.64,6.53,28.1t-5.88,38.35q-225.87-32.65-241.71-34.14-13.62-1.28-248.4-11.87c-5.5-6.65-7.34-19.38-5.57-38.29s5.67-28.1,11.75-27.53q27.2,2.55,81.91-7.18t60.77-25.21q22-64.26,30.78-157.33l40.26-428.81q8.31-88.5-20.27-125.5-20.14-29.38-52.09-42.65t-53.48-15.33q-21.58-2-21.13-6.58,5.11-54.4,19-55.42,243.87-13.7,318.63-29.6c1.52.14,5.37-.25,11.56-1.2q9.07.85,9.53,20.36t-2.66,28.35q-15,62.67-17.57,89.89c-.57,6.08.64,9.22,3.67,9.51,1.49.14,3.93-1.16,7.25-3.92q57.28-49.51,151.48-89.91T3351.89-209.77Z"/><path class="cls-2" d="M2775.06,120.73q8.28,10.15,16.29,20.5l-11.26-14.57c41.91,54.27,78.41,112.43,113.72,171.13q54.11,90,103.52,182.7,27.95,52.57,54.19,106a54.41,54.41,0,0,0,18.54,20.2,64.66,64.66,0,0,0,53.2,14.17,53.59,53.59,0,0,0,26.77-8.54c15.37-9.91,28.91-24.67,33.09-43l2.57-19.14a71.67,71.67,0,0,0-9.83-36.34q-48.86-99.53-103.6-196c-36-63.55-73.17-126.64-113.5-187.54q-38.18-57.64-81.87-111.35A54,54,0,0,0,2853.71,4a65.15,65.15,0,0,0-55.48,0,54,54,0,0,0-23.17,14.89c-12.6,13.72-21.95,31.74-21.09,50.91L2756.54,89a71.93,71.93,0,0,0,18.52,31.77Z"/><path class="cls-3" d="M1415.84,1495.44q8-4.69,18.78-1.06t14.29,12.23q3.54,8.6-.48,20.49l-4,11.89,25.51,8.61-4.34,12.86-70.14-23.68,8.36-24.75Q1407.81,1500.14,1415.84,1495.44Zm21.46,27.89q2-5.94-.1-10a11.73,11.73,0,0,0-7-5.74,11.94,11.94,0,0,0-9.13.29q-4.21,2-6.22,7.89l-4,11.89,22.48,7.59Z"/><path class="cls-3" d="M1449.05,1470.36q-9.74-8.59-6.53-18.1a19.65,19.65,0,0,1,2.32-4.39l12.68,4.52a29.89,29.89,0,0,0-2.66,5.73q-4.31,12.75,13.31,18.7l23,7.77-4.31,12.75-52.63-17.77,4.31-12.75Z"/><path class="cls-3" d="M1477.55,1398.77a31,31,0,0,1,8.78,1.46A51.22,51.22,0,0,1,1493,1403l-11.46,33.94q6.45,1.94,11.43.37t7-7.51q2.66-7.89-3.74-11.74l4.34-12.86a19.9,19.9,0,0,1,10,11.44,25.17,25.17,0,0,1-.32,16.63,24.06,24.06,0,0,1-13.44,14.85q-10.33,4.58-22.66.42-12.65-4.27-17.87-14.1a24.15,24.15,0,0,1-1.47-19.88q3.69-10.92,13.4-14.38A25.31,25.31,0,0,1,1477.55,1398.77ZM1465,1417.82q-1.83,5.41.67,9.62a16.67,16.67,0,0,0,7.82,6.61l7.55-22.37q-8.54-2.88-13.28,1.54A11.16,11.16,0,0,0,1465,1417.82Z"/><path class="cls-3" d="M1507.83,1382.57q7.53,2.3,11.14-8.4a12.5,12.5,0,0,0,.5-7.36q-.89-3.25-3.27-4.05a4.68,4.68,0,0,0-4.22.38,16.88,16.88,0,0,0-4.09,4.28l-8,10.07q-8.74,11.26-18.79,7.86-6.7-2.26-8.73-9.63t1.39-17.47q3.41-10.1,9.69-14.07a15.21,15.21,0,0,1,13-1.92l-4.05,12a5.56,5.56,0,0,0-4.95,1.1,12.3,12.3,0,0,0-3.7,6,11.66,11.66,0,0,0-.53,7.1,5,5,0,0,0,3.05,3.62q3.79,1.28,7.77-4.48l8.84-10.86a26,26,0,0,1,8.43-7.69,11.6,11.6,0,0,1,9.38-.51q6.49,2.19,9.16,10,2.82,8.06-.72,18.54t-10.29,15.31q-6.75,4.83-15.1,2.12Z"/><path class="cls-3" d="M1516.12,1284.53a31,31,0,0,1,8.78,1.46,51.1,51.1,0,0,1,6.66,2.73l-11.46,33.94q6.45,1.94,11.43.37t7-7.51q2.66-7.89-3.74-11.74l4.34-12.86a19.9,19.9,0,0,1,10,11.44,25.17,25.17,0,0,1-.32,16.63,24.05,24.05,0,0,1-13.44,14.85q-10.33,4.58-22.65.42-12.65-4.27-17.87-14.1a24.16,24.16,0,0,1-1.47-19.88q3.68-10.92,13.4-14.38A25.34,25.34,0,0,1,1516.12,1284.53Zm-12.57,19.05q-1.83,5.41.67,9.62a16.67,16.67,0,0,0,7.82,6.61l7.55-22.37q-8.54-2.88-13.28,1.54A11.14,11.14,0,0,0,1503.55,1303.59Z"/><path class="cls-3" d="M1520.77,1253.66q-8.73-8.73-4.86-20.18,3.28-9.73,11.32-12.49t18.52.78l30.69,10.36-4.31,12.75-30.69-10.36q-5.84-2-9.76-.16t-5.64,6.89q-1.72,5.08,1.6,10.23t12.32,8.43l24.32,8.21-4.31,12.75-52.53-17.73,3.76-11.13Z"/><path class="cls-3" d="M1591.42,1183.48q.4,8.08-1,12.19a25.25,25.25,0,0,1-3.4,6.86,17.13,17.13,0,0,1-4.76,4.47q-6.11,3.48-13.89.85l-29.4-9.93-2.48,7.35-8.54-2.88,2.48-7.35-13.83-4.67,4.31-12.75,13.83,4.67,4.82-14.27,8.54,2.88-4.82,14.27,29,9.78q6.48,2.19,8.56-4a27.46,27.46,0,0,0,1-8.69Z"/><path class="cls-3" d="M1583.54,1158.31q7.53,2.3,11.14-8.4a12.51,12.51,0,0,0,.5-7.36q-.89-3.25-3.27-4.05a4.68,4.68,0,0,0-4.22.38,16.88,16.88,0,0,0-4.09,4.28l-8,10.07q-8.74,11.26-18.79,7.87-6.7-2.26-8.73-9.63t1.38-17.47q3.41-10.1,9.69-14.07a15.21,15.21,0,0,1,13-1.92l-4.05,12a5.56,5.56,0,0,0-4.95,1.1,12.32,12.32,0,0,0-3.7,6,11.67,11.67,0,0,0-.53,7.1,5,5,0,0,0,3.05,3.62q3.78,1.28,7.77-4.48l8.84-10.86a26,26,0,0,1,8.44-7.69,11.6,11.6,0,0,1,9.38-.5q6.49,2.19,9.16,10,2.82,8.06-.72,18.54t-10.29,15.31q-6.75,4.83-15.11,2.12Z"/><path class="cls-3" d="M1869.81,1861q-9.72-1.4-13.54,9.78-1.87,5.48-.71,9.29a6.8,6.8,0,0,0,4.27,4.88,6.56,6.56,0,0,0,5.57-.32,20.15,20.15,0,0,0,5.39-5.06l11.08-13.13q5.65-6.71,11.65-9.34a17.2,17.2,0,0,1,12.87-.29q9.46,3.23,12.57,12.21t-1.36,22.09q-4,11.6-12.12,16.86-9,5.93-20.52,2.47l4.29-12.57q8.6,2.94,13.9-5.21a28.64,28.64,0,0,0,3.17-6.83,16.78,16.78,0,0,0,.59-8.92q-.92-4.51-4.62-5.78a8,8,0,0,0-6.39.1,20.47,20.47,0,0,0-6,5.4l-10.21,12q-5.87,7-11.53,9.86t-13.07.33a17.16,17.16,0,0,1-11.44-11.46q-2.92-8.67,1.1-20.44t11.63-16.3q7.61-4.54,17.72-2.17Z"/><path class="cls-3" d="M1907,1792.89a30.92,30.92,0,0,1,8.73,1.48,51,51,0,0,1,6.62,2.74l-11.52,33.74q6.41,2,11.38.41t7-7.45q2.68-7.84-3.68-11.7l4.37-12.79a19.8,19.8,0,0,1,9.9,11.42,25,25,0,0,1-.37,16.55A23.94,23.94,0,0,1,1926,1842q-10.3,4.52-22.55.34-12.57-4.29-17.74-14.1a24,24,0,0,1-1.4-19.79q3.7-10.85,13.39-14.26A25.21,25.21,0,0,1,1907,1792.89Zm-12.58,18.92a11.07,11.07,0,0,0,.63,9.57,16.61,16.61,0,0,0,7.76,6.61l7.59-22.24q-8.49-2.9-13.22,1.48A11.1,11.1,0,0,0,1894.4,1811.81Z"/><path class="cls-3" d="M1911.71,1762.18q-8.66-8.72-4.77-20.11,3.3-9.67,11.31-12.39t18.43.83l30.51,10.42-4.33,12.68-30.51-10.42q-5.8-2-9.71-.2t-5.63,6.83q-1.73,5.05,1.56,10.19t12.24,8.44l24.17,8.25-4.33,12.68-52.21-17.83,3.78-11.07Z"/><path class="cls-3" d="M1982.26,1692.57q.37,8-1,12.13a25.12,25.12,0,0,1-3.41,6.81,17.08,17.08,0,0,1-4.75,4.44q-6.09,3.44-13.83.8l-29.22-10-2.5,7.31-8.49-2.9,2.5-7.31-13.75-4.7,4.33-12.68,13.75,4.7,4.84-14.18,8.49,2.9-4.84,14.18,28.79,9.83q6.45,2.2,8.54-3.92a27.29,27.29,0,0,0,1-8.65Z"/><path class="cls-3" d="M1918.76,1656.85a7.63,7.63,0,0,1-4.73-3.9,9.91,9.91,0,0,1,3.94-11.55,8.53,8.53,0,0,1,10.85,3.71,9.92,9.92,0,0,1-3.94,11.55A7.63,7.63,0,0,1,1918.76,1656.85Zm17.27,4.22,4.33-12.68,52.32,17.87-4.33,12.68Z"/><path class="cls-3" d="M1973.54,1583.9q-9.56-8.9-5.23-21.58,3.19-9.35,11.29-12.34,7.71-2.89,18.45.78l30.51,10.42L2024.2,1574l-30.51-10.42q-5.8-2-9.71-.2t-5.63,6.83a10.41,10.41,0,0,0,1.58,9.78q3.31,4.73,12.15,8l24.5,8.37-4.33,12.68-30.51-10.42q-5.8-2-9.71-.2t-5.63,6.83q-1.73,5.05,1.56,10.19t12.24,8.44l24.17,8.25-4.33,12.68-52.21-17.83,3.78-11.07,9.5,1.68q-8.66-8.71-4.77-20.1a19.81,19.81,0,0,1,6.73-9.88A19.13,19.13,0,0,1,1973.54,1583.9Z"/><path class="cls-3" d="M2010.62,1489.37a30.92,30.92,0,0,1,8.73,1.48,51.1,51.1,0,0,1,6.62,2.74l-11.52,33.74q6.41,2,11.38.41t7-7.45q2.68-7.84-3.68-11.7l4.37-12.79a19.8,19.8,0,0,1,9.9,11.42,25,25,0,0,1-.37,16.55,23.94,23.94,0,0,1-13.43,14.73q-10.3,4.52-22.55.34-12.57-4.29-17.74-14.1a24,24,0,0,1-1.4-19.79q3.71-10.85,13.39-14.26A25.21,25.21,0,0,1,2010.62,1489.37ZM1998,1508.29a11.07,11.07,0,0,0,.63,9.57,16.6,16.6,0,0,0,7.76,6.61l7.59-22.24q-8.49-2.9-13.22,1.48A11.11,11.11,0,0,0,1998,1508.29Z"/><path class="cls-3" d="M2015.35,1458.65q-8.66-8.72-4.77-20.11,3.3-9.67,11.31-12.39t18.43.83l30.51,10.42-4.33,12.68L2036,1439.67q-5.8-2-9.71-.2t-5.63,6.83q-1.72,5.05,1.56,10.19t12.23,8.44l24.17,8.26-4.33,12.68L2002.07,1468l3.78-11.07Z"/><path class="cls-3" d="M2085.9,1389.05q.37,8-1,12.13a25.15,25.15,0,0,1-3.41,6.82,17.11,17.11,0,0,1-4.75,4.43q-6.09,3.44-13.83.8l-29.22-10-2.5,7.31-8.49-2.9,2.5-7.31-13.75-4.7,4.33-12.68,13.75,4.7,4.84-14.18,8.49,2.9-4.84,14.18,28.79,9.83q6.45,2.2,8.54-3.92a27.25,27.25,0,0,0,1-8.64Z"/><path class="cls-3" d="M2078.15,1364q7.49,2.32,11.12-8.32a12.45,12.45,0,0,0,.52-7.32q-.87-3.23-3.24-4a4.65,4.65,0,0,0-4.2.37,16.74,16.74,0,0,0-4.09,4.24l-8,10q-8.73,11.18-18.73,7.76-6.66-2.27-8.66-9.61t1.44-17.38q3.43-10,9.69-14a15.13,15.13,0,0,1,13-1.86l-4.07,11.93a5.54,5.54,0,0,0-4.93,1.08,12.26,12.26,0,0,0-3.7,5.93,11.59,11.59,0,0,0-.55,7.07,5,5,0,0,0,3,3.61q3.76,1.28,7.75-4.43l8.84-10.78a25.92,25.92,0,0,1,8.42-7.62,11.55,11.55,0,0,1,9.34-.47q6.45,2.2,9.08,9.94,2.78,8-.78,18.45t-10.29,15.2q-6.73,4.78-15,2.06Z"/></svg>