<svg id="Layer_1" data-name="Layer 1" xmlns="http://www.w3.org/2000/svg" viewBox="0 0 4001 2250"><defs><style>.cls-1,.cls-2{fill:#fef9f9;}.cls-2{stroke:#1928eb;stroke-linecap:round;stroke-linejoin:round;stroke-width:3px;}</style></defs><title>background4</title><path class="cls-1" d="M2247,1319q44.8,63.51,54.73,128.89t-10,117.71q-20,52.33-51,91.84a332.59,332.59,0,0,1-69.73,66.77q-27.63,19.49-39.68,15.58t-28.63-27.38l-245.47-348q-7.8-11.06-14.69-6.18-87,61.39-123.19,165.48t34,203.52a326.45,326.45,0,0,0,44.49,51.34q24,22.34,44.77,35.63a317.4,317.4,0,0,0,37.6,21q16.82,7.77,30.58,12.56l13.72,4.81q5.85,8.29-12.1,20.94-11.06,7.8-30.7,9.25-58.17-.34-127.22-32.29t-113.87-95.45q-80.85-114.62-52.5-257.67t152.64-230.71q145-102.26,284.24-83.68T2247,1319Zm-60.83,22.22q-50.66-71.83-138.9-66.45T1919,1308.45q-9.68,6.83-3.83,15.11l190,269.29q4.86,6.89,18.67-2.84,44.17-31.16,75.19-108.89T2186.16,1341.27Z"/><path class="cls-1" d="M2561.56-75.43q54.72-55.19,117.36-76.38t117.66-10.65q55,10.52,99.34,34.22a332.59,332.59,0,0,1,77.91,57q24,23.8,22.27,36.35t-22,33L2674.3,300.51q-9.53,9.61-3.53,15.54,75.63,75,184.44,92.43t194.47-69a326.45,326.45,0,0,0,42.79-52.76q17.81-27.55,27.27-50.3a317.4,317.4,0,0,0,14.15-40.69q4.72-17.92,7-32.3l2.34-14.35q7.14-7.2,22.73,8.26,9.61,9.53,14.46,28.62,9.81,57.34-9.6,130.9t-74.12,128.77q-98.76,99.61-244.56,96.65t-253.8-110q-126-124.91-132-265.28T2561.56-75.43Zm32.5,56Q2532.17,43,2552.86,129t55.49,120.44q8.42,8.34,15.55,1.14l232-234q5.94-6-6.06-17.89-38.39-38.06-120.33-55T2594.05-19.41Z"/><path class="cls-1" d="M1990.9,282.36q30.61-24.21,83.26-53.41t72.92-40.72q64.49,53,128.91,128.68,5.51,7-12.59,21.27-19.48,15.4-28.56,6.76-37.77-33.44-97.95-42.37T2035,326.64q-100.17,79.22-35.26,161.27,16.51,20.87,34.71,32.47t45.76,13.54q27.56,1.95,40.85,1.62t54.44-6.88q41.17-6.54,51.43-7.89,7.78-1.61,47.54-7.06t56.39-7.3q16.65-1.84,51.41-2.21t55,5.15q20.18,5.51,45.16,18.53a126.82,126.82,0,0,1,41.5,33.89q64.91,82.07,44.36,187.6T2461.46,923.11A489,489,0,0,1,2405.18,962q-27.11,15.75-67.09,33.83t-60.26,29.55q-26-15.63-71-56.89t-67-69.06q4.54-17.14,10.1-21.54,20.85-16.48,28.85-9.26,41.35,35.15,116.51,40.12T2421.86,873q44.49-35.19,53.78-82.1t-27-92.79a135.09,135.09,0,0,0-43.7-36.67q-25-13-57.81-13a455.46,455.46,0,0,0-58.46,3.26Q2263,655,2217.82,663.62t-68.19,11q-158,23.25-226.2-63-59.4-75.1-36.31-170.26T1990.9,282.36Z"/><path class="cls-1" d="M3889.5,1799.08q38.67,5.24,96.24,22.89t79.92,24.26q6.57,83.22-3.21,182.12-1.19,8.8-24.05,5.69-24.61-3.34-24.68-15.88-2.13-50.41-37.45-99.93t-88.05-56.68q-126.56-17.16-140.59,86.52-3.58,26.37.71,47.52t22,42.35q17.72,21.2,27.18,30.54t42.73,34.43q33.28,25.11,41.37,31.56,6.56,4.49,38.07,29.33t44.38,35.54q12.87,10.71,37.26,35.49t34.43,43.14q10,18.36,18,45.38a126.82,126.82,0,0,1,4.4,53.4q-14.06,103.69-104.31,162.12t-199.2,43.68a489,489,0,0,1-67-13.56q-30.15-8.59-70.92-24.83t-63.09-22.88q-6.76-29.54-8.31-90.6t3.2-96.19q15.5-8.63,22.52-7.67,26.33,3.57,26.69,14.35,3.38,54.17,52,111.74t113.57,66.4q56.21,7.62,96.44-18.25t48.07-83.85a135.09,135.09,0,0,0-3.92-56.91q-8-27-30.72-50.68a455.46,455.46,0,0,0-42.91-39.83q-20.2-16.17-57.74-42.73t-55.22-41.5q-126.38-97.64-111.57-206.61,12.87-94.89,97.4-144.29T3889.5,1799.08Z"/><path class="cls-1" d="M1105.93,327.86q58.49,34.23,78.85,88.36t11,103.64q170.45-39.63,287.46,28.83,184.27,107.85,19.93,388.65l-95,162.33q-49.66,84.85-64.47,137-3.08,11.94,26.45,42t44.17,38.59q4.38,2.57-4.43,21t-16,24q-142-92.89-152.2-98.9-8.8-5.15-163.71-86c-1.61-6.21,1.15-15.37,8.29-27.57s12.64-17.14,16.54-14.86q17.54,10.26,57.48,20.89t48.86,2.08q35.05-36.4,65-87.61l96.72-165.25Q1502.7,679.86,1355,593.39q-54.14-31.68-112-23.34t-69.87,28.81l-2,6.69-4.28,7.32q-15.55,40-55.77,108.74l-96.72,165.25q-41.95,71.67-56.79,123.84-3.08,11.94,26.45,42t44.19,38.6c2.9,1.7,1.43,8.71-4.43,21s-11.22,20.29-16,24q-142-92.89-152.2-98.9-8.77-5.13-163.69-86c-1.61-6.21,1.15-15.36,8.29-27.56s12.64-17.15,16.54-14.86q17.53,10.26,57.47,20.89T823,932q35.05-36.4,70.15-96.37L980.51,686.4q136.08-232.52-4.31-314.7Q932.3,346,868.46,352.83t-81.83,37.5L636,647.73q-49.66,84.85-64.47,137-3.08,11.94,26.45,42t44.17,38.59q4.38,2.57-4.43,21t-16,24q-142-92.89-152.2-98.9-8.8-5.15-163.71-86c-1.61-6.21,1.15-15.37,8.29-27.57s12.64-17.14,16.54-14.86q17.54,10.26,57.47,20.89T437,706q35.05-36.4,70.15-96.37L668.89,333.2q33.37-57,25.74-91a86.8,86.8,0,0,0-21.72-45.1q-17.35-19-31.25-27.14T629.49,159q20.52-35.07,30.18-31.42,168.68,67.32,224.07,80.08a49.37,49.37,0,0,0,8.17,2.83q5.82,3.41,0,16.71t-10.68,18.29Q851.42,283,841.17,300.52c-2.28,3.9-2.46,6.41-.5,7.56,1,.56,3,.45,6.09-.36q54.15-15.39,130.34-13T1105.93,327.86Z"/><path class="cls-1" d="M3306.2,1739.77,3214,1704.24q-7.93-3.06,4.93-36.46c2.45-6.36,4.39-9.87,5.87-10.53q54.06-2.91,132.67-45.7a462.87,462.87,0,0,0,52.26-33.73q26.81-19.8,45.27-34.61t19.1-16.4q47.71,18.37,44.65,26.33l-60.65,157.46q41.34,15.92,125.35,49.19t88.75,35.09q12.73,4.9,7.22,19.22-11,28.63-39.2,54.32l-211.53-81.48-150.08,389.63q-24.51,63.64-6.62,114.36t70.41,70.94q47.71,18.37,110.25,7.76,6-1.33,9.1,19t.91,21.35q-33.68,16.27-92.48,21.91t-111.26-14.54q-79.54-30.64-112.59-103.62t4.31-170Z"/><path class="cls-1" d="M2920.42,1477.52q108.57,45.77,119.29,141.6t-62.48,269.53l-59.49,141.12q-37.93,90-45.77,143.25-1.49,12.16,31.48,37.93t48.48,32.29q4.65,2-1.65,21.23t-12.65,25.72q-151.82-73.11-162.66-77.71-3.12-1.32-166.1-60.88c-2.41-5.91-.88-15.29,4.57-28.22s10.23-18.52,14.39-16.76q18.59,7.84,56.18,11.83t45.29-5.57q29.81-40.38,56.62-104l65.38-155.09q60.78-144.19,45.79-212.63t-98.74-103.72q-49.63-20.92-110.74-3.77t-73.52,46.63L2499,1853.25q-37.93,90-45.77,143.25-1.49,12.16,31.48,37.93t48.48,32.29q4.65,2-1.65,21.23t-12.66,25.72q-151.82-73.11-162.66-77.71-9.3-3.92-172.3-63.5c-2.41-5.91-.88-15.29,4.57-28.23s10.23-18.52,14.39-16.76q18.59,7.84,59.28,13.13t48.39-4.27q29.81-40.38,56.61-104l123.56-293.11q25.49-60.46,13.59-92.89a86.2,86.2,0,0,0-27.21-41.6q-19.55-16.47-34.28-22.68t-13.42-9.31q15.68-37.18,25.66-34.84,174.8,44.48,231,49.88a49.34,49.34,0,0,0,8.41,1.73c4.12,1.74,4.86,7.24,2.2,16.46s-5.39,15.68-8.17,19.38q-24.52,40.81-32.35,59.41c-1.74,4.14-1.59,6.63.49,7.51,1,.43,3,.07,6-1.14q51.3-22.17,126.64-29.7T2920.42,1477.52Z"/><path class="cls-2" d="M3756.64,2150.59c3.28,15.5,6.08,30.88,6.4,47,.55,27.26-7.33,51.88-18.41,76-2.43,5.29-4.92,10.56-7.58,16.27,13.56,6.43,28,8.74,41.71,13.38,18.79,6.38,37.35,13.32,56,19.92,15,5.31,30.05,10.45,44.9,16.29,23.23,9.12,44,21.57,62.06,39,15,14.49,27.5,30.67,36.77,49.18,9.75,19.47,18,39.57,18.12,61.94.1,20.61,1,41.23-6.91,61s-17.32,38.74-30,56c-23.21,31.48-53.19,55.53-83.9,79.16-38.57,29.68-77.4,59-115.25,89.68-23.1,18.7-48,35.22-70.65,54.42-18.12,15.36-38.47,27.92-52.84,48.29-11.94,16.93-10.36,32-3.26,48.36,5.34,12.32,11.4,24.47,19.95,35,3.92,4.83,4,8.78-1.13,12-10,6.3-17.07,17.29-30.05,19.49-36.29-48.3-73.76-95.35-110.31-143.11-22.47-29.36-44.75-59-68.6-87.3-4-4.76-3.82-7.47,1-11,7.27-5.33,14.32-10.91,21.14-16.84,3.76-3.27,7.62-3.12,12.1,1.62,9.05,9.56,18.66,18.65,28.54,27.47,20.84,18.59,41.56,21.12,67.23,6.78,21.44-12,40.56-27.22,59.93-42.1,14-10.73,28.45-20.93,41.72-32.32,14.43-12.38,30.17-22.94,44.58-35.33,21.06-18.1,43.9-34.1,65.72-51.33,29.25-23.09,59.08-45.58,78.13-78.9a105.28,105.28,0,0,0,14-43c4.81-50.47-20.8-84.42-59.09-112.09-15.81-11.42-33.11-19.92-51.14-26.71-17.63-6.65-35.81-12-54-16.94-4.7-1.29-10.33-1.62-15.08,3.58-19.94,21.87-44.71,38-67.55,56.51-29.5,23.9-59.86,46.68-89.49,70.39-26.69,21.36-53.83,42.21-80.93,63.08-20.31,15.64-41.31,30.22-57,51.08-11.11,14.81-10.39,30.14-3.86,46.05,5.23,12.76,11.21,25.2,20,36,3.51,4.31,3,8.14-1.12,10.95a257.57,257.57,0,0,0-23.9,19.13c-3.93,3.46-7.16,2.62-10-1.05q-38.05-49-76-98-41-53-82-106c-6.39-8.21-12-17-19.85-24.15-4.06-3.66-3.55-10.73.1-12.45,8.79-4.14,14.91-11.4,22.6-16.71,5.74-4,8.95-3.25,13.25,1.23,8.48,8.84,17.46,17.21,25.91,26.09,20.2,21.2,44.79,25.06,71.12,9.1,25.86-15.67,48.83-35.16,72.82-53.26,32-24.17,63.82-48.72,95-74,33.27-27,70-49.85,99.08-81.89,15.73-17.34,29.38-36.88,35.36-59.15,6.4-23.83,3.39-48.33-9.25-70.87-16.92-30.19-40.93-51.07-72.73-65.73-19.15-8.83-39.12-14.35-58.55-21.73-5.06-1.92-11.27-2.58-16.82-4.47-11.5-3.9-20,2.72-27.9,9.08-37.16,30-75.57,58.36-113.06,87.93-45.71,36-92,71.39-137.77,107.29-11.57,9.07-23.8,17.52-33.66,29.33-14.47,17.33-15.92,35.12-7.28,54.2,3.75,8.29,7.26,17,13.41,24.37,3.66,4.39,4.16,10.47-2.63,14.92a175.66,175.66,0,0,0-20,15.92c-5.87,5.22-10.68,2.85-13.95-2.15-20.62-31.57-45.27-60.06-68.22-89.84-32.31-41.94-66.12-82.72-97.81-125.14-3.43-4.59-8.36-7.81-11.11-13.41-.19-5.28,3.76-7.76,7.94-10.64,6.62-4.58,13.26-9.17,19.16-14.8,5-4.8,9-4.28,14.17,1.71,13,15,26.65,29.26,43.57,40.5,21,13.93,39.2,8.3,58.24-3.21,36.07-21.81,67.44-49.89,100.84-75.23,46.58-35.34,92.36-71.73,138.86-107.18,19.52-14.88,38.54-30.65,57.23-46.69,7.41-6.36,14.27-13.72,18.71-22.14,6.69-12.69,4.29-26.14-1.71-38.82-5.55-11.72-11.51-23.25-16.87-35.06-2.1-4.62-2.44-9.33,2.84-13,6.59-4.63,12.77-9.86,19-14.93,4.74-3.83,8.34-3.69,13.14.89,31.16,29.78,65.22,56.08,101.06,79.85,17.71,11.74,34.81,25.15,55.81,31.31,3.35,1,4.12,3.51,4.13,7,0,5-1.74,8.38-6.08,11.07a232.9,232.9,0,0,0-39.52,30.43c-7.43,7.15-18,11.72-26.54,18.47-3.16,2.51-7,4.19-9.89,8.73,9.69,3.23,18.6,7.42,28,9.06,19.62,3.44,38.23,10.1,56.89,16.44,25.18,8.55,50.1,17.72,73.18,31.61,32.21,19.39,55.77,46.2,72.84,79.22,2.27,4.39,1.91,9.83,5.05,14"/><path class="cls-2" d="M1993.64,2482.59c2.09,6.24.74,12.67,1,19,1.09,31.91,4.67,63.46,9.23,95.12,2.91,20.25,16.16,27.27,30,34.59,25,13.25,51.78,21.39,79.77,26.71,21.38,4.06,42.94,6.52,64,4.11,59.42-6.79,113.42-26.4,150.87-76.67,14.4-19.33,22.86-41.34,26.53-65.81,8.55-57-9.86-102-54.12-138.32-19.08-15.64-40-27.6-61.11-39.92-29.39-17.19-62.09-28.38-89.15-49.76-16.21-12.81-30.26-27.54-34.72-48.1-9.1-42,10.16-89.92,59.74-98.11,31.88-5.27,58.2,5.64,80.88,26.32,26,23.7,40.07,54.91,49.74,88,2.23,7.63,5.7,8.65,11.39,7.75,7.09-1.12,14-4.08,21-4.61,6.72-.5,8.22-3.07,8.12-9.26a272.32,272.32,0,0,0-4.47-41.94c-4.08-23.42-8.24-46.87-13-70.19-3-14.44-10.24-19.5-22.5-24.21-21.83-8.38-44.33-15.18-67.18-17-30.25-2.45-60.89-3.39-91,5.17-39,11.08-72.45,30.34-97.87,62.25-15.82,19.85-24.46,42.76-28.24,67.92s-1.4,49.58,8.29,73c9.33,22.54,23.74,41.81,41.94,58,22.86,20.32,49.08,35.59,75.82,50.28,27.3,15,55.91,27.64,79.43,49.45,22.83,21.18,33.61,46.58,30.22,76.28-4.3,37.68-26.94,66.54-68.52,73.07-38.47,6-69.84-9.08-96.82-34.21-27.8-25.89-43.05-59.94-55.89-94.91a61.79,61.79,0,0,1-4-16.91c-.56-9.4-6.67-8.56-12.28-7.82-8.4,1.11-16.67,3.28-24.75,5-2.69,4.66.08,10.11-2.27,14.89"/><path class="cls-2" d="M1901.64,2077.59c6.1-6.9,4.8-16,6.81-24,6.2-24.87,11.34-50,17.26-74.94,4.27-18,7-36.4,12.78-54.07.63-1.92,1.35-4.92-.85-6.94-4.8-4.41-11.71-3.88-16.94-7.09-4.65-2.85-6.45,1.63-9,3.21-27.8,17.46-55.22,35.53-83.23,52.63-6.76,4.13-10.55,9.84-11.56,16.28-3.32,21.25-9.62,41.82-13.2,63-1.2,7.05-4.08,8.88-11.13,7.15-12.64-3.1-25.5-5.3-38-9.18-5.33-1.67-9.6,1.53-12.84,4.23-9.11,7.59-18.61,14.54-29.24,19.65-6.76,3.25-6.72,8.78-5.71,14.1,1.08,5.67,2.65,10.83,10.73,12.34,23.84,4.44,47.42,10.24,71.06,15.51-3.35,19-8,37.6-12.56,56.06-8.8,35.92-17.27,71.9-24.21,108.18-5.18,27.13-11.37,54.06-17.78,80.83-8.54,35.69-15.19,71.84-25.15,107.22a72.38,72.38,0,0,0-2.13,17.91c-.26,17.67-1.61,35.33,1.65,53,5,27.07,18.16,48.47,40.09,65.07,17.94,13.58,38.53,19.93,60.1,23.77,9.64,1.72,20-.16,28.83-2.44,31.32-8.07,62.78-15.55,94.18-23.31,2.67-.66,4.81-2.35,8-2.43,3.66-.1,6-3.63,4.94-7.67a122.87,122.87,0,0,1-4-26c-.2-4.79-2.43-7.09-7.94-5.09-18.83,6.84-38.67,6.57-57.93,4.72-37.24-3.57-55.64-20.94-60.3-59.61-3.8-31.55,4.87-61,11.31-91,4.09-19.05,8.11-38.15,13.09-57,5.79-21.9,9.21-44.31,15.55-66.13,5.43-18.66,9-37.93,13.64-56.83,6.37-26,10.87-52.43,18.53-78.12,1.65-5.53,1.28-11.65,4.24-17,16.78.72,32.53,7,48.84,10.38,23.41,4.91,46.56,11.07,70,15.92,5.74,1.19,8.34-1.43,12.12-4.15,11.58-8.33,20.78-25.24,15.22-39.21-2.2-5.53-4.46-8.69-10.27-10-25-5.48-50.07-11-75-17-15.4-3.69-31.36-5.35-46-11.92"/><path class="cls-2" d="M3558.64,1534.59c-1.06-1.51,2-5.94-1.89-4.67-3.6,1.18-6.53-1.14-10.2.47-15.93,7-33.44,8.74-50,14-13.15,4.17-26.76,6.93-40,11.06-5.77,1.8-10.82,5-16.89,6.43-17.18,4-32.43,12.87-34.6,31.78-2.43,21.17-.71,42.75,2.67,63.93,1.2,7.51-.83,14.52-7.14,14.74-11,.38-20.7,4.77-31,7.16-4.19,1-6.36-1.33-8.2-5.79-5.75-13.93-8.52-28.54-11.83-43.08-4.15-18.22-10.61-36-14.37-54.13-4.89-23.6-12.84-46.3-18.21-69.74-2.67-11.65-5.19-23.67-8.76-35.33-4.79-15.67-8.64-31.81-12.71-47.79-3.33-13.08-6.27-26.27-10.61-39.12-1.33-3.93-1.62-8.84,4.57-12.21,10.22-5.56,21.15-7.5,32.17-9.66,5.67-1.11,9.54,1.59,10.93,7,3.7,14.33,10.8,27.29,16.22,40.92,7.93,19.93,22.79,30.52,44.84,29,12.16-.84,24.11-3.7,36.08-5.38,19.1-2.68,37.47-8.41,55.69-13.42,17.37-4.77,35.17-8.88,52.5-14.29,35.71-11.14,72.45-19.37,108.84-28.44,16.87-4.2,33.16-10.12,50-14.17,20.67-5,41.33-10,61.92-15.32,7.13-1.84,14.07-4.44,21-7,16.47-6,28.38-15.18,29.3-35,.61-13.13.67-26-1.24-39-2.35-16-.52-19.06,13.95-26,1.34-.64,2.67-1.33,4-2l8,1c-6.61.61-9.15-4.73-8.69-9,1.62-15.09-6.14-29-4.36-44,.95-8-1.32-15.55-3.94-23l-1-2a481.89,481.89,0,0,0-6.7-73.14c-3.16,0-5.42,1.88-8.25,2.4-17.57,3.2-35.45,2.91-53.07,5.6-27.49,4.19-55.39,4.48-83,7.94-30.89,3.87-62,6.19-93,9.21q-30.94,3-62,4c-2.33.08-5-.73-7,.12-19.63,8.49-40.88,4-63.39,9.91,10.46-44.45-3.56-84-15.76-123.79,18.55-4.2,35.58-.48,52.12-4.13,10.81-2.38,22.28-.52,32.91-2.47,37.11-6.81,74.74-8.34,112.12-12.14,14.95-1.52,29.84-3.91,44.93-4.82,23-1.38,45.86-5.91,69-5.46a79.05,79.05,0,0,0,20.88-2.7c9.22-2.35,18.14-.62,27.13-1.48,13.76-1.32,13.2,12.76,20,19,.35.32.91.63,1,1,1.37,9.8,7.21,9,15.32,5.44-4.19-9.93-4.72-20.64-4.32-31.45.16-4.35.84-9-1.05-13-6.12-12.86-3.12-26.73-4.77-40.06-1.2-9.7,8.14-11.13,13.94-14.85,4.33-2.77,7.88-.38,12.09,2.62,12.23,8.72,23.81,18.28,35.94,27.09,6.58,4.77,9.25,10.56,8.86,18.16-.79,15.2,1,30.15,4.3,46.34,15.67-3.17,32-.69,47.67-4.56,14.29-3.54,28.75-.94,43.14-3.23,11.08-1.76,18.35,8.18,24.91,16.45v104c-18.34,1.64-36.62,3.73-55,5.25-15.67,1.3-31.26,3.57-47.11,2.69-2,3.75.47,7.44-2.87,11.14-5.77-.93-13.34.87-15-9.08l1,8c-3.72,8.68.16,17.38,2.55,24.82,4.49,14,3.36,28.19,5.25,42.2,1.78,13.2,2.94,26.54,2.29,40-.49,10.17-3.84,16.57-13.14,17.66-7,.82-12.34,5.26-19.17,5.49,13.66,35.67,33.06,67.55,51.8,99.5,11.4,19.43,23.05,39.4,38.6,56.17,5.16,5.57,4.61,11,4.82,16.66-13.93,4.16-27.24,6-40.25,9.63-13.43,3.74-27,8.11-40.62,11.44-18.09,4.41-36.72,6.79-54.3,14.05-11.48,4.74-24.66,5.17-36.78,8.59-7.76,2.19-16.1,2.38-23.25,7.53-3.93,2.83-9.74,3.39-14.82,4.18-13.24,2-26.17,5.64-38.9,9.39-18.95,5.58-38.15,10.34-57.23,15.15-16.42,4.14-32.64,8.75-48.9,13.43-12.18,3.51-24.84,5.27-37,9.13"/><path class="cls-2" d="M1186.64-282.41c-20.61,4.28-41.22,8.64-61,16-43.26,16.18-81.73,39.44-109.94,77-13.07,17.41-23.77,36.4-27.84,58a131.46,131.46,0,0,0,0,51.1c6.55,32.9,25.3,55.34,51.83,72.69,15.94,10.42,34.13,15.8,52.88,19.24,11.94,2.19,23.94,3,36,4.2,30.35,3,60.78-.17,91,2.09,23.85,1.79,48.22,4.06,68.06,20.59,32.35,26.93,36.63,69,8.91,101-9.5,11-21.78,18.2-34.93,24.08-6.44,2.88-6.81,6.08-1,9.9,8.51,5.57,17.74,10.14,25.82,16.24,6.84,5.16,12.24.25,15.91-2.49,33.34-24.9,64.54-52,81.18-91.71,9.13-21.78,13.26-43.93,9.55-68.06-2.59-16.87-6.41-32.6-15.54-46.9-15.55-24.38-37-40.36-64.88-49.3-40.71-13.05-82.45-12.76-124.07-11.12a470.51,470.51,0,0,1-55-.78c-20-1.55-39.17-7-54.87-20-12.17-10.07-18-24.36-20.07-39.83-5.32-40,16.78-64.8,52-77.89,36.27-13.5,70-5.74,102,13.89,16.11,9.89,29.52,23,42.53,36.72,11.37-3.78,19.31-11.82,28.28-18,4-2.74.38-7.31-1.8-10.74-13.54-21.22-27.55-42.11-43-62-5-6.37-10.55-12.32-14.85-19.1-5.4-8.52-13.75-8.22-21-6.42-5.07,1.26-10.41.05-15.12,2.51"/><path class="cls-2" d="M3378.64,327.59c-8.37-.51-16.13-3.6-24-6.13a123.45,123.45,0,0,0-25.1-5.34c-27.19-2.74-54.61-3.22-81.95-4.51-3.66-.17-7.37.31-11-.08-15.84-1.69-16-.52-22,13-3.45,7.76-7.49,15.26-10.9,23-2.72,6.22-.69,9.65,5.94,9.92,21.55.87,41.65,6.78,62.24,13.29,24.34,7.7,43.72,20.74,61.93,37.58,12.17,11.26,17.73,25.86,23.65,40.26,9,22,5.89,43.53-1.34,66.08-11.86,37-35,66.58-57.49,96.84-9.95,13.37-19.77,26.85-30.11,39.91a16.76,16.76,0,0,0-3.65,14.44c21.29,3.45,39.81,13.49,58,25.32,12.53,8.15,25.28,15.4,34.91,27.23,4.3,5.28,11.69,4.31,14.72-2,6.67-13.84,17.44-24.65,26.32-36.8,19-26,39.57-51,56.5-78.33,12.9-20.86,21.75-43.9,28.55-67.73,6.42-22.53,6.59-45.57,4.12-68-2.49-22.6-10.19-45.07-23.64-63.86-16.74-23.38-36.19-44.65-61.71-59.2-7.26-4.14-14.66-8-22-12"/><path class="cls-2" d="M2085.64-221.41c8.41,8.25,19.24,12.9,29.16,18.72,7.68,4.51,9.95,10.18,9.9,18.28-.16,26.67,1.3,53.43-.52,80-1.3,19,0,38.16-3.37,57.06-1.16,6.42-3.28,9.41-10.18,9.08-9.65-.46-19.33-.28-29-.05-5.79.13-8.77-1.56-9.12-8.05-1.26-23.64-6.94-46.66-14.26-68.88-9.15-27.78-24.26-52.21-48.52-70.26-18-13.41-38.4-19.75-60.11-20.56-24.07-.9-45.34,7.93-61.9,25.77-20.62,22.22-28.15,49.43-24.75,78.88,2.62,22.75,15.49,41.34,30.7,58,19.66,21.55,43.36,38.18,66.88,55.15,34.47,24.87,66.32,52.72,92.06,86.9,12.15,16.14,22.64,33.91,27.44,53.13,6.68,26.75,8.05,54.55.48,81.82-1.43,5.14-3.65,8.55-11,5.31-15.34-6.74-29.06-16.4-44.67-22.8-8.57-3.51-17-1-25.34-4.15-7.74-2.92-16.49-1-24.89-.54-14.15.84-19-2.41-21.68-15.86-1.74-8.74-5.74-16.1-10.51-22.79a218.19,218.19,0,0,0-43.81-46.13c-28.64-22.18-56.79-45-82.89-70.12-22.25-21.42-41.93-45.13-54-74-11.47-27.48-16.77-55.63-11.66-86,3.65-21.75,10-41.82,20.49-60.93,14.08-25.63,34.64-45.57,58.29-61.6,19.36-13.12,42-20,64.63-26.75,23.26-7,46.64-5.27,70.11-5.57,8.5-.11,16.81,2.52,24.92,4.31,31.38,6.93,62.39,15.5,91,30.74,1.83,1,3.4.55,5.06.89"/><path class="cls-2" d="M2889.64,682.59c2.64-11.75,6-22.8,17.92-29.16a31.13,31.13,0,0,1,19.08-3.77c8.21,1,13.52-2.14,18.12-9,25.93-38.6,55.22-74.74,82.88-112.08,4.4-5.95,9.14-11.72,12.87-18.08,3.09-5.26,4.54-9.85-2.62-15.23-16.9-12.72-34.3-24.52-52.13-35.85-9.76-6.2-16-16.58-25-24-6.21-5.11-9-5.37-14.14,1.13-30.94,39.3-60.73,79.45-90,120-2.16,3-6,4.22-7.86,7.09s-3.32,6.59-2,9.82c1.42,3.45,4.9,5,8.82,4,6.17-1.46,9.2,2.08,11,7,6.3,17.77,12.08,35.48,10.29,55-1.27,13.88-.87,28-.06,42,.71,12.38-2.33,24.07-4.17,36-.1.65.21,1.44,0,2-7.83,16.38-7.84,16.38,7,25,4.41,2.56,10.88.06,10.83-5-.18-18.67,1.45-37.37-.83-56"/><path class="cls-2" d="M851.64,142.59c-16.11,2.4-32.64-.06-48.38,8.29-6.26,3.32-15.41,5.07-24.88,5.16,1.75,17.68,4.33,34.42,9.72,51.33,13.38-4,24.15-11.75,35.35-18.11,14.82-8.42,30.49-15.08,45.25-23.56,8.25-4.74,12.41-10.07,9.76-19-8.61-29.18-11.18-59.51-17.56-89.11-5.56-25.79-9.45-52-14.66-77.86-4.43-22-6.91-44.49-13.44-66.13-1.21-4,.33-8.71-1.34-13.2,14.46-5.17,29.45-8,44.2-11.67q34.39-8.46,69-16c10.23-2.21,15-9,16.86-18.13,2.08-10,2.33-19.78-5.76-28.1a9.62,9.62,0,0,0-10.09-2.73c-28.05,7.91-56.67,13.35-85,20.09-12.34,2.94-24.61,6.21-37.6,9.1-4.26-12.24-5.76-25-8.06-37.42q-6-32.38-11.43-64.92c-1.78-10.7-4.45-21.28-5.78-32-.79-6.35-3.92-8-9.17-6.9-6.72,1.37-13.37,1.66-18.23,8.77q-26.69,39.05-55,77c-6,8-1.42,15.4-.25,22.06,3.06,17.36,5.35,34.93,9.65,52,1.52,6-1.23,5.37-5.17,6.19-10.75,2.25-21.24,6-32.07,7.62-9.72,1.46-16.18,6-21,14.2-4.68,7.86-9.35,15.85-15.14,22.87-3.74,4.53-2.7,7.77-.91,12.22,2.26,5.61,6.78,5.74,11.09,4.84,16.06-3.37,32.08-7,48-11.14,1.92-.5,4.29-1.1,6.12-1.47,19.83-4,18.64-9.41,22.34,12.83,3.64,21.91,8.59,43.65,11,65.86,1.94,18.18,7.16,36,10.6,54,3.24,17,6.36,33.94,8.92,51,1.35,9,4.46,17.65,4.37,27,0,4.43,3.73,6.06,8.75,6.22,9.33.3,18.93-2.54,28,1.78"/><path class="cls-2" d="M1728.64,172.59c-3.82-5.08-4.32-11-4-17,.63-11.57-3.88-22.49-4.21-34-.13-4.49-4.3-6.1-8.8-6-8.67.11-17.33,0-26,0-9.18.08-11.4,3.15-13.17,11.95-3.95,19.58-6.26,39.42-10,59-4.6,24.21-2.73,48.82-5.42,73-2.82,25.31,10.43,39.31,27.49,53.18,19.15,15.55,40.29,27.78,62.17,38.72,12.33,6.16,26,9.53,38.74,14.61,18,7.15,36.67,10.49,55.25,13s38,1.56,56.9.24c15.12-1.05,30.13-4.28,45.09-7.34a143.45,143.45,0,0,0,31.64-11c32.13-15.08,60.06-36.33,80.33-66.35,6-8.83,5.5-11.42-4-17-25.09-14.75-50.15-29.47-76.78-41.48-5-2.24-10-.54-15.49-5,1.79,18.79-4.11,34.33-11.7,49.49-12.67,25.31-34.89,37.43-61.07,42.82-44.92,9.23-79.48-10.59-108.85-41.93-20.45-21.82-32.7-48.6-40.73-77-2.73-9.65-9.52-18.86-6.38-29.89"/><path class="cls-2" d="M801.64,1930.59c-3.78,9.56-17,6.7-21.89,16.8,8.86,9.81,18.41,19,27,29.07,21.86,25.41,44.38,50.25,66.89,75.09q21.13,23.33,43,46c7.47,7.73,14.34,12.05,27,2.12,11.51-9.06,21.69-19.39,28.85-32.11,15.5-27.54,22.59-56.67,13-87.92-10.43-34.12-34.05-54.81-68-63.71-5.12-1.34-10-3.47-10.57-7.35-2.18-16-11-30.45-10.46-47.92,23,6.91,48.39,7.8,62.23,31.83,6-5.9,7.67-6.3,13.85-2.81,4.17,2.36,8.05,5.24,12,7.95q82,55.79,84.06,155c.53,27.28-5.56,53.39-16.41,77.84-13,29.2-30.84,55.58-58.74,73-13.29,8.3-20.59,9.27-33.92.19a259.6,259.6,0,0,1-35.85-30.16q-69-68-137-137c-18.86-19.14-36.54-39.45-54.77-59.25-3.65,3.77-7.45,6.78-9.33,11.36l-3-1c-2.61-2.21-4.85-4.17-6.31-7.88-3-7.66-5.53-15.58-8.89-23-7.16-15.88-12.3-32.33-17.05-49-1.22-4.27.23-6.75,2.38-8.94,2.35-2.4,5-1.15,8,.69,3.87,2.41,8.5,3.68,12.9,5.15,13.3,4.47,25.89,12.09,41,8.13,9.44-2.47,10.29-3.26,8-13.1-2.53-10.74-6-21.13-11.38-30.63,7.33-7.08,10-7.48,14.19-.26,4.5,7.79,9.38,15.34,14.32,22.81,7.29,11,10.92,24.5,21.87,33.09"/><path class="cls-2" d="M3360.64,1268.59c-7.16-11.39-11.27-23.77-14.5-36.88-1.66-6.73-2.74-13.3-3.8-20.08-.82-5.23-6-6.58-10.64-3.94-6.72,3.85-10.49.65-15.17-4-21.05-20.89-38.86-44.29-54.77-69.19a35.35,35.35,0,0,0-4.1-5.94,10.51,10.51,0,0,0-10-2.91c-4.24.79-4.66,5.07-4.83,7.94-1.1,18.81.06,37.47,7.88,55,11.56,25.86,27.65,48.93,43.5,72.32,10.83,16,21.94,32.19,30.24,49.8,3.83,8.12,9.48,7,15.13,4.75a287.7,287.7,0,0,0,30-14c4.45-2.41,6-6.51,2.27-11.94-4-5.85-8.88-11.48-10.18-18.88"/><path class="cls-2" d="M524.64,2152.59c4.55,7.46,1.26,16,3.54,24.13,2.39,8.47,5.92,16.79,6.72,25.85.34,3.83,4.29,6.41,8.73,5a391.07,391.07,0,0,1,95.85-18.48c3.76-8.31-1-15.75-1-23.47.06-36.72,7.86-71.47,25.1-104,5.77-10.89,5.64-11-6-16-14.94-6.47-30.68-10.63-46-16-10.79-3.8-21.46-7.82-33-9.15-3.13-.36-6.11-1.48-9,.24-1.31.79-2.61,3-4,1.84-10.36-8.56-14,.91-16.84,7.2-7.85,17.51-16.26,35.27-19.71,54-3.91,21.22-7.26,43-3.59,64.91.15.92-.6,2-.94,3"/><path class="cls-2" d="M3278.64,742.59c-11.46-4-23.51-6.39-33.11-14.88-4.88-4.32-12.24-4.56-17.29-9.73-1.6-1.64-8.27-2.28-11.84,3.46-6.14,9.87-14.17,18.55-20.59,28.26-3.23,4.89-5.89,10.19-11.23,12.76s-4,7.1-3.85,11.13c.17,5.1,4.31,4.37,7.89,5.12,16,3.35,28.74,13.82,42.91,21.11,15.12,7.78,27.27,20.31,42.09,28.82,7.89,4.53,11.67,4.17,17-3.07,8.9-12.08,17-24.7,26.83-36.15a11.73,11.73,0,0,0-.87-16.77,173.15,173.15,0,0,1-22.09-26c-3.47-5-8.7-7.83-14.85-3.11"/><path class="cls-2" d="M300.64,1805.59c1.18-1.88,2.94-2.09,5-2,25.1.65,50-3.38,75-4.21,6.26-.21,12.58-2.19,19-1.71,3.92.29,5.71-1.94,7-5,4-9.66,7.78-19.43,12.13-28.94,1.53-3.34.58-6.14-1.34-7.8-1.06-.91-4.4-1-6.83.67-16.76,11.23-35.56,11.74-55,11.38-13.57-.25-26.93-1.27-39.93-4.57-6.88-1.75-9.35,1.53-11,6.29-7.91,23.27-17.6,45.77-27.93,68a6.56,6.56,0,0,0,1,7.17c6.56,2.9,12-1.78,17.81-3.45a33.63,33.63,0,0,0,8.16-3.63c6.95-4.25,12.22-2.07,17,4.73a410.73,410.73,0,0,0,35.9,44.06c7.85,8.36,10.33,7.77,13.93-3,8-23.87,18.69-46.66,28-70,1.19-3,3.65-5.75,1-9-2.92-3.51-6.63-1.89-10-1-15.46,4.24-29.86,11.63-46,14.28-7.72,1.27-15.93,2.62-23,6.7-4.9,2.81-5.53-2.06-8.11-3.9-6.83-4.88-8.11-15.48-17.91-17.13"/><path class="cls-2" d="M866.64,225.59c-15.33,1.33-30.78,1.95-46,4.26-9.49,1.45-19.72,1.52-28.26,7,4.48,13.55,7.28,27,14.37,38.64,7.7,12.61,16,25.07,29.87,32.65,28-22.24,59.7-39.09,84.14-64.88-7.31-14-19.58-17.35-33.14-16.43-6.77.46-13.35-3.84-20-.25"/><path class="cls-2" d="M157.64,1907.59c-3.33,8.67-6.57,17.37-10,26-2.12,5.29-1.61,9.83,4.06,11.94,21.2,7.85,42.37,15.71,63,25,11.73,5.26,24.13,9.06,35.82,14.39,2.73,1.25,5.34,3.72,8.06,2.54,4.55-2,1.91-6.4,2.07-9.83,0-.67,0-1.33,0-2.58,29-9,59.35-5.26,90-8.27,0-4.77.2-9.47-.05-14.15-.29-5.5-3.5-9.2-8.94-8.86-13.2.83-25.86-4.08-39-3.17-2.51.17-5.93.7-6.85-2-2.71-8-9.25-6-15.1-7.15-13.53-2.72-25.86-8.77-36.91-17-2.71-2-5.69-4.14-8-2.65-16.87,10.75-33.23,3.49-50.2.31-8.69-1.63-16.8-6.09-25.91-5.48"/><path class="cls-2" d="M1.64,106.59c36.37,18.6,61.44,47.17,73.83,86.06a152.64,152.64,0,0,1,5.54,71c-2.64,16.85-7.07,32.95-14.6,47.82-15,29.74-25.84,33.21-58.71,24.92-2.1-.53-4.08-.31-6.05-.8"/><path class="cls-2" d="M2628.64,446.59c-13.55,9.4-29.47,12-45,16.13a282.54,282.54,0,0,1-56,8.85,24.85,24.85,0,0,1-6,0c-11.58-2.2-17.5,1.45-18.91,13.06-2.39,19.59-10,37.34-18,55-1.34,3-3.84,6.26-.23,10.06,2.92,3.07,5.43,2.64,9.14,2,23.3-3.72,45.77-10,68.08-17.87,29.56-10.38,56.72-25.2,84-40.1,3.8-2.08,4.23-5.81,7.05-8.42-5.16-8.5-7-18.37-10.15-27.77-2.11-6.3-4.46-12.31-13-11"/><path class="cls-2" d="M431.64,1696.59c8.64,2.61,14.3,1.25,17.38-8.88,1.93-6.35,6.08-12,5.61-18.43-3.44-2.71-7.07-2.49-8.87-1.47-9.75,5.49-17.37-.35-21.66-6.53-5.91-8.51-14.6-11.54-22.57-13.11a178.4,178.4,0,0,1-35.88-11.6c-4.63-2-7.49-1.15-9.07,4a303.51,303.51,0,0,1-12.72,33.12c-1.58,3.6-4.09,7.79,4.6,10.46,21.08,6.45,42.51,9.56,64.2,11.08,6,.42,11.77,4.69,18,1.37"/><path class="cls-2" d="M3088.64,444.59c-13.46-11.26-24.59-25.31-40.94-33.13-6.2-3-8.42-9.59-8.87-15.89-.61-8.35-3.29-14.44-9.81-20.4-4.54-4.15-9.63-8.23-13.61-13.41-5.11-6.63-9.55-5.74-14.79.8-4.76,5.93-8.48,12.56-13.81,18.18s-2.48,13,4.82,16.87c11.74,6.15,20.81,15.8,31,24,16.33,13.1,32.88,25.93,51,37.65,6.92-1.36,11.54-6.84,15-13.65"/><path class="cls-2" d="M1.64,617.59c35.57,8.5,63.59-5.33,78.89-36.06,3.26-6.56,5.08-13.84,7.59-20.85,8.05,1.52,22,2.06,25.66.87-3.6-25.7-17.38-44.64-41.28-53.57-25.72-9.61-50.07-5.26-69.86,15.61"/><path class="cls-2" d="M2787.64,604.59c1.43,3.91,1.35,8,.92,12-2.13,19.69,6.3,38.43,3.82,57.7,5.79,2.57,10.7,1.64,14.11-.89,6.67-5,12.86-4.81,20.22-2,4.53,1.73,9.92,2.15,10.11-5.8,0-1.81,1.88-3.88,1.76-6-1.13-20.4,3.55-40.58,2.21-61-.3-4.64-2.54-8.09-4.1-12-6.46.54-11.62,2.3-16.39,7.71-4.33,4.91-11.24,7.57-18.67,7.42-4.67-.1-9.73-1.58-14,1.88"/><path class="cls-2" d="M267.64,150.59c-2.62,4.56.24,9.67,1.54,12.78,3.79,9.07-1.18,13.71-6.62,18.12-10.28,8.32-18.59,18.32-25.83,29.16-10.69,16-4.51,32.54,13.9,39,8.14,2.85,16.39,5.23,25,3.83,7-1.14,8.35,4.45,8.62,8.15.32,4.36-2.45,8-8.6,8.14-18,.5-35.36,5.71-53,8.85-10.68,1.9-21.33,4-32,6-4.84.89-5.69-1.91-6.07-6-3.23-34.86-9.52-69.31-14.41-103.94-3.58-25.36-6.24-51-11.85-76-3.46-15.4-6-33.49-25.73-37.79-9-2-18.51-4-27.93-1.25-2.07.61-3.76-.64-6-.4-18.06,2-18.34,1.7-19.77-16.66-.33-4.23-4.78-8.13-.38-13.15,3.52-4,8.32-4,12.3-5.53,28.59-11.07,56.51-23.44,84-37,17.49-8.61,33.61-19.43,50.93-28.15,3.38-1.7,5.57-4.69,10.94-7.63l13.26,80.25C265,18,280,5,294.6-8.46c24.06-22.27,48.87-43.46,78-59,16.31-8.68,33.94-12.73,52-14.73,4.07-.45,9.82-6.58,13.31,2.17-8.39,11.13-16.94,22.3-25.32,33.6-6.89,9.29-15.77,17.47-18.9,29-3.18,11.76-12.69,13.06-22.12,15-29.26,5.91-54,21-76.83,39.22-12.29,9.8-22.69,21.94-34.26,32.69-3.22,3-4.5,6.08-3.88,10.1,2.94,19,5.68,38.06,9.2,57,.81,4.36-.67,9,1.78,13"/><path class="cls-2" d="M587.64,65.59A223,223,0,0,0,568.26-9.84C558.17-7.27,551.46,0,543.95,5c-19,12.8-38.5,24.26-59.38,33.38-6.33,2.76-6.42,5-4.2,11.27,8.09,22.88,11.32,46.83,14.69,70.84,2.53,18,3.41,36.42,9.2,54.82,31.12-12.47,64.57-18.39,96.49-27.59-5.65-28.3-7.52-55-13.1-81.17"/><path class="cls-2" d="M106.64,1644.59c8.88-15.43,13-32.78,19.79-49.09,3-7.22-3-10.63-8.72-14-23-13.62-45.91-27.41-67.26-43.63-1.8-1.37-2.52-4.85-8.16-3.82-4.24,1.44-6.67,7.21-8.51,12.62-5.53,16.34-12.42,32.1-18.88,48.06-1.41,3.48-3.91,7.84,4.42,11.58,15.66,7,31.43,13.78,47.27,20.4a213.28,213.28,0,0,1,26.9,13.14c4,2.35,8.2,2.94,12.14,4.77"/><path class="cls-2" d="M896.64,1912.59c2.44-3.61.47-7.17-1.14-9.92-7.7-13.18-16-26-23.79-39.12-3.77-6.39-8.89-8-16.07-8.2-11-.29-22-2.09-33-1.69-8.35.3-16.73,1.46-24.92,2.53-4.63.6-9.42.69-14.08,1.37-7,1-8.6,4.05-5,10,9.46,15.64,15.42,32.75,20.8,50.06a13.6,13.6,0,0,1,.55,5c-.71,8,3.64,10.62,11.59,6.88,15.35-7.22,31.63-11.54,48.09-14.65,11.73-2.21,23.79-4.4,35.95-2.27"/><path class="cls-2" d="M3249.64,220.59c-25.9-5.36-51.57-11.54-77.41-21.57-3.74,2.94-3.65,6.53-1.94,12.66,6.78,24.43,27.42,35.38,45.55,48.63,4,3,11.24,3.52,14.69-2.78,4.89-8.92,10.35-17.19,18-24,3.43-3.06,1.93-7.82,2.08-11.91"/><path class="cls-2" d="M686.64,2024.59c-8.52-12-19.45-22-28.09-33.93-10.46-14.48-20.3-29.42-31.65-43.27-1.38-1.68-2.7-4-4.32-5.73a3.85,3.85,0,0,0-5.9,0,3.93,3.93,0,0,0,0,5.93c5.67,5.82,8.35,13.67,13.16,19.88,14.31,18.5,25.41,38.89,36.93,59.08,2.19,3.83,3.64,9.94,9.85,8.9,5-.84,8.07-4.66,9-9.83"/><path class="cls-2" d="M1296.64,1990.59a455.28,455.28,0,0,0,13.77-55c1.21-6.89,3.79-13.32,5.73-19.81a63.6,63.6,0,0,0,2.54-16.91c-11.87-1.57-23.7,1.56-34.95,3.32-36.69,5.74-73.42,3-110.09,2.92-9.82,0-20-1.11-30-1.41-2.84-.08-5.83-1.36-7.31,3.83-2.18,7.65-4.45,15.22-5.7,23.09-.87,5.52,2.41,7.08,6.91,9.21,11.88,5.62,23.48,11.84,34.16,19.71,12.2,9,14.89,20.38,13.34,35.12a254.94,254.94,0,0,1-8.72,45.86c-8.87,29.87-15.76,60.26-24.12,90.25-7.17,25.7-14.59,51.46-19.89,77.78-5.49,27.3-13.69,54.06-20.65,81.07-4.48,17.38-8.67,34.65-18.76,50.16-7.51,11.54-17.69,15.59-30.25,15.76-16.1.22-32.25,1-48.05-3.74a18.73,18.73,0,0,0-11.32.56c-1.18,11.67-7.35,22.27-6.54,34.66l193.84,50.9,1.94-1.71c-6.52-12.38-16.73-22-26.86-31.59l5,2c4.21-1.89,8.84-1.6,13-.83,15.74,2.92,31.41,6.31,47,10,4.6,1.07,8.56,1.76,12.17-1.29-.25-4.06-2.18-4.84-5.06-6-7.26-3-13.91-7.53-21.14-10.68-7.06-3.08-12.31-8.79-13.5-15.2-1.94-10.45-8.16-16.42-15.27-23.11-11-10.39-24.75-17.65-34.18-29.8l-3-2c3,3.67,6.39-.51,10.11.65,11.38,3.56,23,6.28,33.89,11.35,6.3,2.94,8.66,2,10.36-5.92,4.22-19.57,10.55-38.68,15.57-58.1q8.21-31.74,17.86-63c5.94-19.38,9.91-39.35,15.27-58.92,9-32.91,18.11-65.79,26.25-98.94,2.32-9.44,3.13-19.86,17.4-24,10.61-3.11,21.36-8.48,32.32-11.93,34.63-10.92,69.57-16.23,105-3.11,28.13,10.43,52.2,24.75,60.46,56.88,1.53,6,2.77,12.15,4.36,18.16,1,3.75,1,6.82,6.17,7.06,10,.48,19.87,2.5,30,2,8.59-.41,17.13,2.56,24.82,5.34,12.66,4.57,25.56,9.24,37.21,16.47,5.93,3.68,10.41,1.2,10.88-5.94.39-6,.11-12,.08-18-.14-24.83-5-48.71-16.09-71-14.22-28.49-35.65-50.13-63.88-65.09a152.3,152.3,0,0,0-67-17.81c-39.19-1.29-74.91,13-111.08,25.62-16.91,5.88-33.35,13.28-50.92,17.24"/><path class="cls-2" d="M994.64,279.59c7.69-1.85,13.15-7.53,18.83-12.2,11.71-9.61,24.79-17.57,35.57-28.15-2.23-9.45-8.11-16.14-12.42-23.64-3.12-5.44-8.09-5.3-11.86-1.88-10.92,9.92-24.07,15.68-37.07,22-6.12,3-4.13,10.24-2.62,13.69,3.88,8.87,4,18.09,5.51,27.2.33,2.05,2.17,2.57,3.05,4"/><path class="cls-2" d="M507.64-71.41c16.6,6.9,29.49,18.57,41.1,31.41-1,6.28-6.32,7.62-10.18,9.41-26.69,12.3-53.15,25-78.91,39.2a7.47,7.47,0,0,1-8,0c-2.31-1.38-4.65-2.69-7-4-10-5.63-10.13-5.72-3-14,17-19.62,34.18-39.07,53.93-56.08a32.93,32.93,0,0,1,11.05-5.94"/><path class="cls-2" d="M2388.64,90.59c12.64,6.64,26.74,9.12,40,13.88,18.16,6.49,36.63,12.1,55,18.13,9.62,3.17,19.16,6.47,28.89,9.37,21.41,6.37,42.63,13.43,64,20.06,13,4,25.16,10.19,39.1,11.84,11.15,1.32,15.24,0,19.24-10.19.77-2,1.91-4,2.79-6.08"/><path class="cls-2" d="M527.64,192.59c-3.85,2.1-8,.65-12,1-5.77.47-10.73,5.87-8.84,11,2.9,7.84,2.67,16.16,4.92,25.18,17.64-1.95,30.88-14.81,47.82-18.59,15.66-3.5,31.87-1.28,47-6.39,2.12-1.85,1.1-4.18,1-6.13-.52-12.09-4.33-15-15.93-13-16.88,2.94-33.95,4.53-51,5.83-3.9.3-8,3.28-12,.2"/><path class="cls-2" d="M72.64,1870.59c-2.2,9.88-.84,20.16-3.78,30.07-1.37,4.62.87,9.53,4.8,12.91,5.71,4.9,8,1.11,10-4,3.55-8.71,7.4-17.31,11.46-26.71-5.42-7.77-13.06-12-22.5-13.31"/><path class="cls-2" d="M2311.64,190.59a46.81,46.81,0,0,0,31.1,18.14c5.57-7.22,2.92-16.35,5.74-24.2,1.22-3.39-.71-6.84-4.84-6.82-4.65,0-9.86-1.89-13.91,1-6,4.31-16.74.33-19.09,10.87"/><path class="cls-2" d="M67.64,1654.59c-5.4,1.95-3,6.34-1.81,8.91,3.83,8.56,8.58,16.7,12.76,25.11,1.73,3.48,3.9,5.56,8.05,5,4.52-.61,3.59-4,4.08-7,.75-4.62,4-8.33,5-13,1.16-5.25,2.52-9.54-5.07-11.19-7.17-1.55-14-4.5-21-6.83"/><path class="cls-2" d="M469.64,1651.59c-5.2.41-10.14-1.81-11.76-6.09-5-13.28-13.38-24.44-21.35-35.83-3.66-5.23-2.08-8,3.13-9,8.88-1.72,18-1.3,27-1,3.87.13,5.57,2.36,5.14,6.9a262,262,0,0,1-7.14,39Z"/><path class="cls-2" d="M293.64,324.59c-1.93-3.09-.59-7.5-4.53-10.38-10.94,4.37-22.11,9.14-33.5,13.31-16.43,6-33.16,10.79-51,10.11-7.38-.28-9.89,3-8.89,11.92,19,.38,37.95-1.71,56.87-3.26,11-.91,22,.08,33.06-1.45,9.32-1.3,11.89-3.54,9-12.25-.78-2.31-3-4.2-2-7"/><path class="cls-2" d="M936.64,276.59c-2.24-1.09-4-1.29-6.07.94-13.39,14.28-25,30.38-41.93,41.06-1.63,1-1.1,2.67-.94,4,.35,2.89,2.87,2.91,4.94,3,13.58.38,27.25-.25,39.9-5.21,9.07-3.56,19.07-6,27.3-13.86-10.28-8.24-21.16-15.21-23.2-28.89"/><path class="cls-2" d="M1.64,1647.59c11.69.25,23.48-1.2,35.13,2.57,3.24-5.66,2.62-9.58-3.11-12.62a222.15,222.15,0,0,1-20.94-12.07c-5.54-3.77-8.59-2.18-11.08,3.12"/><path class="cls-2" d="M577.64,236.59c-11-1.3-20.88,3.66-30.84,6.54-6.64,1.92-13.57,4-20.25,6.16-8.22,2.72-10.52,7.2-10.19,15.31.15,3.77,3.43,6.81,1.55,11.1-.78,1.77,2.17,4.73,4.7,3.77,11.54-4.4,23.4-.66,35.06-1.69,4.9-.43,8.95-.78,12-5.16,7.12-10.08,17.46-11.76,29-11.21,4.75.23,7.66,2.49,11.08,5,3,2.27,6.42,2.43,6.91-2.88.8-8.78-3.67-17-2.4-26.06.39-2.76-4.62-4.5-8.6-4-9,1.15-18,2-27,3"/><path class="cls-2" d="M2385.64,89.59c9.22-6.55,12.55-17.42,18.86-26.1,22.27-30.62,48.9-56.18,83.29-72.57,5-2.39,10.71-5,16.84-5.41,7.73-.49,13.7-6.53,7.91-15.86-6.24-10.06-8.16-21.89-14-32-3.34-5.85-7.61-7.78-15-5.34-10.79,3.53-22.05,5.52-33,8.86-18.73,5.7-35.76,14.65-52.79,23.59-62.88,33-112,80.32-146.14,142.82-1.8,3.29-5.45,5.74-6.65,9.14-.9,2.53-1.44,6.21,1.64,9,2.73,2.47,4.22,1.15,7.18.21,9.69-3.07,20-3.88,29.95-6.11,14.25-3.19,26.1,4.53,37.9,10.91,5.66,3.06,11.64,6.41,15.84,11.09,6.18,6.9,13.47,9.84,22.16,12,16.86,4.25,33.28,10.21,50.08,14.68,27.95,7.45,55.28,16.93,83.08,24.7,13.74,3.84,27.27,9.17,41,11.77,21.34,4,41.51,12,62.83,15.9,11.84,2.16,22.91,7.67,35,10a399.56,399.56,0,0,1,51,13c14,4.66,28.16,4.65,42,3.25,10.93-1.1,17.63-11,24.43-19.68,7,5.52,16,8.25,22.79,15,3.53,3.52,10.21.31,12.86-4.82,15.31-29.65,17.5-61.25,16.52-94-.49-16.36-1.86-32.7-6.24-47.78-5.35-18.39-12.85-36.59-23.23-53.25-14.45-23.2-31.65-43.73-52.93-61.14-14.42-11.79-30.5-20-47.07-28-25.42-12.28-52.2-17.42-80.08-17.76-20.41-.25-40.88-1.07-61,3.84-4.66,1.14-8.85,3.43-6.74,8,6.15,13.28,9.27,28,17.88,40,4.55,6.36,14.63,9.2,21.63,4.68,5.39-3.48,10.6-3.31,15.2-2.32,20.94,4.51,42.41,7.66,60.12,21.64,18.49,14.59,32,32.83,38.68,55.15,7.32,24.58,8.52,49.77,1.46,75a74.82,74.82,0,0,0-1.91,12c-.56,5.22-1.27,10.19,4.43,15.28,19.56,17.46,34.81,39.77,59.23,51.8,2.4,1.18,4.05,3.89,6.05,5.89l-42-31c-4.15,2.95-5.88-1-8-3-14.88-14.79-33.73-25.47-45.13-43.9-2.08-3.37-6.27-3.83-9.87-2.92-2.83.71-5.37,1.24-8-.13Z"/><path class="cls-2" d="M1076.64,174.59c8.35,17.85,19.44,33.91,32,49,6.85,8.21,15.27,10.51,24.92,7,.9-2.94-1.14-4.45-2.94-6-15.16-13.28-29.14-27.62-41.1-43.93-3-4.06-6.6-8.39-12.89-7.08"/><path class="cls-2" d="M424.64,1470.59c-5.24,3.19-8.58,8.13-14.12,12.79,14.41,15.13,30.87,24.53,46.88,36.23,1.54-12.85-13.73-35.28-31.76-49"/><path class="cls-2" d="M1567.64,2162.59c-3.34-4.64,3-10.58-2-15l-26-17c7,3.44,13.2,9.24,20.16,11.51,12.19,4,22.51,13.89,36.87,11.71,5.62-.85,7.62-3.24,8-8.22.31-4.4-.15-6.85-5.92-8.3-23.22-5.83-45.66-14.27-68.3-22.06-8.91-3.07-19.73-1.64-29.32-7.42,2.95,22-11,42.21-4.61,64.7-2.69.8-6.72,2.14-7.91,7.06-1.06,4.4-2.86,8.62-3.9,13-3.45,14.56-3.06,13.41,11.85,17.4,10,2.69,20.28,1.88,30.11,4.9,4-4,4.21-7.28.07-11.39-9.71-9.63-19-19.66-28.52-29.53,2.17-2.36,3.85-2.95,6.48-1.47,11.58,6.49,23.19,12.93,35,19,15.77,8.14,31.71,15.93,46.94,23.55,2.29-1.2,1.95-2.4,2.05-3.5,1.06-11.17.69-10.26-8.93-14.21-15.58-6.39-30.61-14.12-46.49-21.57,10-9.67,18.59-18.27,32.4-15.22"/><path class="cls-2" d="M2719.64,569.59c-6.89,8.76-12.67,18.3-20.78,26.22-3.62,3.54-4.9,10.1.86,13.65,13.68,8.44,25.76,19,38.92,28.13,3.95,2.74,7.88,5.4,14,3,0-16-.16-32,.15-48,.05-2.86-1.3-5.86-2.35-6.77-8.7-7.5-18.07-14.13-29.79-16.24"/><path class="cls-2" d="M557.64,2235.59c-4.13.57-6.6,4.18-4.77,6.84,7.39,10.76,13.75,22.39,23.05,32.59,10.31-8.77,19.82-16.29,28.56-24.6,3.21-3,4.87-7-2.75-9.17-7.35-2.08-14.83-1.85-22.12-3.55a89.1,89.1,0,0,0-21-2.12"/><path class="cls-2" d="M3163.64,794.59c-5.29.82-6.58,6.1-9.91,9.1-8.8,7.94-8.82,13,1,18.72,13.07,7.56,22.83,18.47,32.86,29.21,3.92,4.2,7.7,8,14.44,5,1.13-5.83.79-10.76-3.21-16.17-8.83-12-18.39-23.48-25.24-36.83a23.3,23.3,0,0,0-9-9"/><path class="cls-2" d="M371.64,1594.59c-5.77,1.48-7.76,5.34-7,11a17.86,17.86,0,0,1,0,4c-1.53,15.72-1.56,15.8,14,20,8.21,2.2,15.94,6.94,24.2,6,2.84-3,2.49-6.35,1.6-7.84-5-8.28-10-16.27-12.2-26-.9-3.89-6.07-6.79-11.61-6.23-2.56.26-5.54,1.25-8-.86"/><path class="cls-2" d="M3041.64,806.59c-4.82,1.35-8.17,3.75-10.2,8.92-2.62,6.67-7.74,11.94-12.76,17.11-6.1,6.29-5.53,11.06.93,16,11.91,9.12,25.07,16.54,36.21,26.76,1.57,1.44,3.1,3.62,5.79,4.32,3.66.95,6.91,4.51,11,1.82,3.81-2.5,2.31-6.72,1.88-9.93-1.8-13.34-.51-26.69-.72-40-.07-4.51-.75-7.91-5.11-10-9-4.37-16.61-11.25-26-15"/><path class="cls-2" d="M346.64,1432.59c-2.71,4.86-2.3,7.36,4.06,10.88,12.25,6.79,22.68,16,33.93,24.13,9.86,7.12,13.89,5.75,15.83-6,.34-2.09,2.26-3,2.24-6-15.27-14.1-35.16-18.53-55.06-22.94"/><path class="cls-2" d="M129.64,1363.59c-19.58,4.21-30.88,18-41.21,33.86-8.28,12.69-18.33,24.24-27.87,36.08-2.73,3.39-4.15,6.67-4,11.07.29,9,.83,18.08-.15,27-.79,7.16,3.42,9.22,8.26,9.88,33,4.52,65.2,12.77,97.88,18.68,12.43,2.25,22.4-3,33-5.18,25-5.19,49.6-10,75.14-5.38,1.09.2,2.3.28,3.08-1,1.86-3.82.93-6.68-2-10.07a127.18,127.18,0,0,1-17.13-26.89c-3.75-7.69-9.27-10.36-18-8.14-20.22,5.11-40.61,9.58-61,14-2.44.53-4.12,3.27-7,2.06-7.19-8.5-3.17-19.35-5.54-29-5.23-21.3-11.72-41.77-24.37-59.91-2.09-3-3.71-6.53-8-7"/><path class="cls-2" d="M556.64,291.59a57.58,57.58,0,0,1-26,3.94c-7.52-.54-10.38,2.54-10.11,10.06.38,10.7,1.19,21.59-5.8,31.06-1.26,1.7.94,3.87,1.25,5.94A259.19,259.19,0,0,0,579.65,330c-13.47-9.87-12.42-24.09-13.9-37.26-2.76-.57-5.34-1.58-8.11-1.13"/><path class="cls-2" d="M943.64,246.59c-2.25-.07-3.58,2.61-6.46,1.88,2.75,2.69-.71,7.82,4.46,9.12,3.61.9,5.74-1.85,6.8-4.09,1.45-3.08-.51-5.69-3.8-6.91"/><path class="cls-2" d="M2329.64,248.59c-21.84,3.75-38.65,15.28-53.24,31.79-10.45,11.82-19.69,24.61-31.14,35.84-11.08,10.87-20,24.51-30.64,36.35-3.15,3.52-1.85,7.07-1.09,11,2.74,14.37,10.17,27.06,14.18,41a15.59,15.59,0,0,0,3,5c2,2.53,4.21,5.07,8,4a8.76,8.76,0,0,0,5.89-7c5.53-27.4,17.53-52.43,28.14-78,2.76-6.63,4.77-13.51,7.84-20.07,9-19.3,28.08-26.27,44.18-36.88,3.41-2.25,7.1-4,10-7.06,6.61-7,5.6-11-4-16"/><path class="cls-2" d="M3247.64,959.59c-8.3,9.78-16,20-27.92,26.15-5.3,2.73-4.2,8.39-.93,11.7,8.35,8.45,19.61,13.19,28.29,21.69,3.37,3.3,10.63-1.36,13.45-6.6,3.67-6.85,8.55-12.78,13.18-18.89,5.53-7.3,5.94-11.74-1.21-16.85-5-3.55-9.4-7.25-12.86-12.2-2.73-3.9-6.72-4.34-11-4"/><path class="cls-2" d="M3338.64,1019.59c-9.36,5.29-20,7.9-29,14-9.52,6.41-19.41,12.3-28,20-5.16,4.65-5.09,10.76.14,13.74,20,11.42,36.49,28.81,58.9,36.11,8.72,2.84,17.3,6.54,27,6.26,15.24-.44,24.92-11.07,23-26.11-.12-1,.35-2.19-.07-3-11.51-21.43-26-40.75-41.9-59.07-2.73-3.14-6-1.43-9-2"/></svg>