<svg id="Layer_1" data-name="Layer 1" xmlns="http://www.w3.org/2000/svg" viewBox="0 0 321.89 41.07"><defs><style>.cls-1{fill:#fff;stroke:#1414ef;stroke-miterlimit:10;}.cls-2{fill:#1414ef;}</style></defs><title>bios</title><path class="cls-1" d="M308.33,27.8,14.74,40.56A13.66,13.66,0,0,1,.51,27.51h0A13.66,13.66,0,0,1,13.56,13.27h0L307.15.51a13.66,13.66,0,0,1,14.23,13.06h0A13.66,13.66,0,0,1,308.33,27.8Z"/><path class="cls-2" d="M51.92,18.69a6,6,0,0,1,1.89.18,4.11,4.11,0,0,1,3,3.18l-2.25.51a3.39,3.39,0,0,0-1-1.45,2.12,2.12,0,0,0-1.53-.5,2.35,2.35,0,0,0-1.94,1.11,5.18,5.18,0,0,0-.68,3.13,5.63,5.63,0,0,0,.85,3.05,2.24,2.24,0,0,0,2,1,2.62,2.62,0,0,0,1.85-.69,2.06,2.06,0,0,0,.56-1.59l2.29-.1a3.78,3.78,0,0,1-1.12,3.09,5.12,5.12,0,0,1-3.39,1.22,4.59,4.59,0,0,1-3.77-1.46A6.81,6.81,0,0,1,47.15,25a6.61,6.61,0,0,1,1.23-4.57A4.58,4.58,0,0,1,51.92,18.69Z"/><path class="cls-2" d="M62.72,21.16a4.88,4.88,0,0,1,1.67.21,3.49,3.49,0,0,1,1.37.8,4.77,4.77,0,0,1,1.4,3.44,4.72,4.72,0,0,1-1.09,3.52,4,4,0,0,1-2.94,1.28,4.1,4.1,0,0,1-3.08-1A4.68,4.68,0,0,1,58.65,26a4.73,4.73,0,0,1,1.09-3.55A4.1,4.1,0,0,1,62.72,21.16ZM65,25.69a3.36,3.36,0,0,0-.63-2.06A1.8,1.8,0,0,0,62.86,23a2,2,0,0,0-1.55.76,3.07,3.07,0,0,0-.52,2.11,3.31,3.31,0,0,0,.64,2.06,1.82,1.82,0,0,0,1.54.63,2,2,0,0,0,1.54-.76A3.07,3.07,0,0,0,65,25.69Z"/><path class="cls-2" d="M71.64,22.53a3.19,3.19,0,0,1,5.19-.91,4.49,4.49,0,0,1,.94,2.78L78,29.52l-2.13.09-.22-5.12A2.07,2.07,0,0,0,75.12,23a1.73,1.73,0,0,0-1.34-.44,1.81,1.81,0,0,0-1.42.82,3.74,3.74,0,0,0-.54,2.3L72,29.78l-2.13.09-.38-8.76L71.35,21Z"/><path class="cls-2" d="M86,29a5.54,5.54,0,0,1-1.85.55A4,4,0,0,1,83,29.39a2.69,2.69,0,0,1-.93-.45,2.59,2.59,0,0,1-.92-2L80.91,22l-1.23.05-.06-1.42,1.23-.05-.1-2.31,2.13-.09.1,2.31,2.38-.1.06,1.42-2.38.1.21,4.83q0,1.08,1.07,1a4.34,4.34,0,0,0,1.34-.35Z"/><path class="cls-2" d="M90,21.95a2.57,2.57,0,0,1,2.3-2,3.12,3.12,0,0,1,.78.09l.06,2.13a4.73,4.73,0,0,0-1-.07q-2.13.09-2,3L90.35,29l-2.13.09-.38-8.78L90,20.2Z"/><path class="cls-2" d="M95.15,17.16a1.21,1.21,0,0,1,.3-.93,1.58,1.58,0,0,1,1.94-.08A1.36,1.36,0,0,1,97.47,18a1.58,1.58,0,0,1-1.94.08A1.21,1.21,0,0,1,95.15,17.16Zm.37,2.8,2.13-.09L98,28.65l-2.13.09Z"/><path class="cls-2" d="M108.66,20.44a4.84,4.84,0,0,1,1.25,3.27,5,5,0,0,1-1,3.44,3.63,3.63,0,0,1-2.77,1.4,2.7,2.7,0,0,1-1.51-.37,2.91,2.91,0,0,1-1.13-1.29L103,28.43l-1.39.06-.54-12.37,2.13-.09.2,4.7a2.73,2.73,0,0,1,2.42-1.44A3.52,3.52,0,0,1,108.66,20.44Zm-5.12,3,.05,1.15a2.11,2.11,0,0,0,.73,1.49,2,2,0,0,0,1.48.51,1.85,1.85,0,0,0,1.44-.81,3,3,0,0,0,.53-2,3,3,0,0,0-.69-1.93,1.88,1.88,0,0,0-1.54-.66,2,2,0,0,0-1.47.66A2.12,2.12,0,0,0,103.55,23.48Z"/><path class="cls-2" d="M118.46,26.17A2.78,2.78,0,0,1,115.87,28a3,3,0,0,1-3.14-1.69,3.89,3.89,0,0,1-.34-1.52l-.24-5.59,2.13-.09.23,5.37a1.78,1.78,0,0,0,.47,1.27,1.37,1.37,0,0,0,1,.38,2.66,2.66,0,0,0,1-.22,2,2,0,0,0,.7-.54,3.22,3.22,0,0,0,.61-2.1L118.15,19l2.13-.09.38,8.78-2.13.09Z"/><path class="cls-2" d="M128.94,27.09a5.54,5.54,0,0,1-1.85.55,4,4,0,0,1-1.21-.11,2.69,2.69,0,0,1-.93-.45,2.59,2.59,0,0,1-.92-2l-.21-4.9-1.23.05-.06-1.42,1.23-.05-.1-2.31,2.13-.09.1,2.31,2.38-.1.06,1.42-2.38.1.21,4.83q0,1.08,1.07,1a4.33,4.33,0,0,0,1.34-.35Z"/><path class="cls-2" d="M134.18,18.07a4.88,4.88,0,0,1,1.67.21,3.48,3.48,0,0,1,1.37.8,4.77,4.77,0,0,1,1.4,3.44A4.72,4.72,0,0,1,137.53,26a4,4,0,0,1-2.94,1.28,4.1,4.1,0,0,1-3.08-1,4.68,4.68,0,0,1-1.39-3.41,4.73,4.73,0,0,1,1.09-3.55A4.1,4.1,0,0,1,134.18,18.07Zm2.31,4.52a3.36,3.36,0,0,0-.63-2.06,1.8,1.8,0,0,0-1.54-.63,2,2,0,0,0-1.55.76,3.07,3.07,0,0,0-.52,2.11,3.31,3.31,0,0,0,.64,2.06,1.82,1.82,0,0,0,1.54.63A2,2,0,0,0,136,24.7,3.07,3.07,0,0,0,136.49,22.59Z"/><path class="cls-2" d="M143.15,19.64a2.57,2.57,0,0,1,2.3-2,3.12,3.12,0,0,1,.78.09l.06,2.13a4.72,4.72,0,0,0-1-.07q-2.13.09-2,3l.17,3.84-2.13.09L141,18l2.13-.09Z"/><path class="cls-2" d="M149.91,23.72q.09,1.24,1.88,1.16a2,2,0,0,0,1.11-.35.84.84,0,0,0,.41-.71.74.74,0,0,0-.3-.6,2.65,2.65,0,0,0-.87-.36l-1.94-.6Q148,21.62,148,19.94a2.07,2.07,0,0,1,.92-1.84,4.73,4.73,0,0,1,2.66-.79,4,4,0,0,1,2.63.63,2.41,2.41,0,0,1,1,1.82l-2,.09a.88.88,0,0,0-.44-.67,1.94,1.94,0,0,0-1.09-.21,1.84,1.84,0,0,0-1.08.33.79.79,0,0,0-.36.66q0,.63,1.1.89l2.11.69a4.12,4.12,0,0,1,1.62.81,1.84,1.84,0,0,1,.61,1.36,2.32,2.32,0,0,1-.95,1.92,4.46,4.46,0,0,1-2.78,1,4.71,4.71,0,0,1-2.85-.64,2.55,2.55,0,0,1-1.18-2.11Z"/><path class="cls-2" d="M174.72,19.11a12.56,12.56,0,0,1-1.82,3.82l.32.26a2.87,2.87,0,0,0,.63.41,1.58,1.58,0,0,0,.72.11,1,1,0,0,0,.72-.35,1.55,1.55,0,0,0,.3-1l1.93-.08a3.81,3.81,0,0,1-.63,2.38,2.49,2.49,0,0,1-2,1,3.73,3.73,0,0,1-1.61-.27,6.37,6.37,0,0,1-1.59-1,6.31,6.31,0,0,1-3.94,1.6,5.65,5.65,0,0,1-3.47-.88,3.11,3.11,0,0,1-1.52-2.5q-.1-2.34,3.18-3l-.3-.26a3.44,3.44,0,0,1-1.41-2.52,2.42,2.42,0,0,1,.94-2.06,4.73,4.73,0,0,1,2.88-1,4.61,4.61,0,0,1,2.88.71A2.37,2.37,0,0,1,172,16.3a2.79,2.79,0,0,1-.66,2,6,6,0,0,1-2.22,1.48l2.38,2a12.15,12.15,0,0,0,1.75-3.38Zm-7.56,1.41q-2.15.4-2.09,1.75a1.56,1.56,0,0,0,.71,1.24,2.94,2.94,0,0,0,1.87.43A4.61,4.61,0,0,0,170.2,23Zm2.11-2.69a1.5,1.5,0,0,0,.4-1.07,1.17,1.17,0,0,0-.46-.92,1.74,1.74,0,0,0-1.17-.3,1.59,1.59,0,0,0-1.13.44,1.24,1.24,0,0,0-.37.95,2.07,2.07,0,0,0,.91,1.5l.43.36A4.22,4.22,0,0,0,169.28,17.83Z"/><path class="cls-2" d="M182.78,13.25l9.37-.41.08,1.84-3.62.16L189,24.7l-2.13.09-.43-9.86-3.62.16Z"/><path class="cls-2" d="M199.46,17.85a4.91,4.91,0,0,1,.29,1.38,8.14,8.14,0,0,1,0,1.14l-5.66.25a3,3,0,0,0,.6,1.71,1.71,1.71,0,0,0,1.51.6,1.41,1.41,0,0,0,1.52-1.22l2.15-.09a3.15,3.15,0,0,1-1.12,2.13,4,4,0,0,1-2.47.9,3.8,3.8,0,0,1-3-1.14,4.79,4.79,0,0,1-1.35-3.32A4.74,4.74,0,0,1,193,16.74a3.82,3.82,0,0,1,2.85-1.35,3.4,3.4,0,0,1,2.89,1.16A4,4,0,0,1,199.46,17.85Zm-3.53-.77a1.76,1.76,0,0,0-1.38.65,2.64,2.64,0,0,0-.53,1.53l3.73-.16a2,2,0,0,0-1-1.87A1.76,1.76,0,0,0,195.93,17.08Z"/><path class="cls-2" d="M205.17,18.87a10.13,10.13,0,0,1,2.43.24l0-.87a2.09,2.09,0,0,0-.43-1.34,1.49,1.49,0,0,0-1.23-.39,2.14,2.14,0,0,0-1.27.39,1.11,1.11,0,0,0-.41,1l-2.33.1a2.37,2.37,0,0,1,1-2.21,5.51,5.51,0,0,1,2.92-.8q2.7-.12,3.58,1.74a4,4,0,0,1,.34,1.52l.24,5.57-1.86.08-.21-1.16a2.82,2.82,0,0,1-2.53,1.54,3.85,3.85,0,0,1-2.67-.72,2.61,2.61,0,0,1-1-2,2.15,2.15,0,0,1,.87-1.92A4.56,4.56,0,0,1,205.17,18.87Zm2.49,1.59a7.61,7.61,0,0,0-2-.2q-1.73.08-1.68,1.23a1.08,1.08,0,0,0,.43.82,1.89,1.89,0,0,0,1.29.3,1.92,1.92,0,0,0,1.42-.65A2.16,2.16,0,0,0,207.66,20.46Z"/><path class="cls-2" d="M220.51,16.22a3,3,0,0,1,2.89-2,3,3,0,0,1,2.48,1,4.31,4.31,0,0,1,1,2.78l.22,5.12-2.15.09L224.69,18a2.07,2.07,0,0,0-.53-1.45,1.73,1.73,0,0,0-1.34-.44,1.65,1.65,0,0,0-1.36.8A4,4,0,0,0,221,19.2l.18,4.11L219,23.4l-.22-5.12a2.07,2.07,0,0,0-.53-1.45,1.73,1.73,0,0,0-1.34-.44,1.81,1.81,0,0,0-1.42.82,3.75,3.75,0,0,0-.54,2.3l.18,4.06-2.13.09-.38-8.76,1.86-.08.3,1.51a2.9,2.9,0,0,1,2.7-1.87,3.15,3.15,0,0,1,1.85.43A3,3,0,0,1,220.51,16.22Z"/><path class="cls-2" d="M234.2,11l4.72-.2a4.47,4.47,0,0,1,3.05.79,2.72,2.72,0,0,1,1.1,2.14,2.67,2.67,0,0,1-.48,1.72,2.93,2.93,0,0,1-1.5,1.06,3,3,0,0,1,1.68.82,2.5,2.5,0,0,1,.73,1.75,2.94,2.94,0,0,1-2,3,6.2,6.2,0,0,1-2,.38l-4.74.21Zm2.34,4.85,2.51-.11a2.17,2.17,0,0,0,1.42-.48,1.4,1.4,0,0,0,.44-1.15,1.45,1.45,0,0,0-.53-1.11,2.11,2.11,0,0,0-1.45-.36l-2.52.11Zm2.77,4.79a2.2,2.2,0,0,0,1.47-.48,1.54,1.54,0,0,0-.11-2.21,2.17,2.17,0,0,0-1.49-.36l-2.56.11.13,3Z"/><path class="cls-2" d="M245.81,10.62a1.21,1.21,0,0,1,.3-.93,1.57,1.57,0,0,1,1.94-.08,1.2,1.2,0,0,1,.39.9,1.2,1.2,0,0,1-.31.93,1.57,1.57,0,0,1-1.94.08A1.21,1.21,0,0,1,245.81,10.62Zm.37,2.8,2.13-.09.38,8.78-2.13.09Z"/><path class="cls-2" d="M255.35,12.81A4.88,4.88,0,0,1,257,13a3.48,3.48,0,0,1,1.37.8,4.77,4.77,0,0,1,1.4,3.44,4.72,4.72,0,0,1-1.09,3.52,4,4,0,0,1-2.94,1.28,4.1,4.1,0,0,1-3.08-1,4.68,4.68,0,0,1-1.39-3.41,4.73,4.73,0,0,1,1.09-3.55A4.1,4.1,0,0,1,255.35,12.81Zm2.31,4.52a3.36,3.36,0,0,0-.63-2.06,1.8,1.8,0,0,0-1.54-.63,2,2,0,0,0-1.55.76,3.07,3.07,0,0,0-.52,2.11,3.31,3.31,0,0,0,.64,2.06,1.82,1.82,0,0,0,1.54.63,2,2,0,0,0,1.54-.76A3.07,3.07,0,0,0,257.66,17.33Z"/><path class="cls-2" d="M263.58,18.79q.09,1.24,1.88,1.16a2,2,0,0,0,1.11-.35.84.84,0,0,0,.41-.71.74.74,0,0,0-.3-.6,2.65,2.65,0,0,0-.87-.36l-1.94-.6q-2.16-.65-2.23-2.32a2.07,2.07,0,0,1,.92-1.84,4.73,4.73,0,0,1,2.66-.79,4,4,0,0,1,2.63.63,2.41,2.41,0,0,1,1,1.82l-2,.09a.88.88,0,0,0-.44-.67,1.94,1.94,0,0,0-1.09-.21,1.84,1.84,0,0,0-1.08.33.79.79,0,0,0-.36.66q0,.63,1.1.89l2.11.69a4.12,4.12,0,0,1,1.62.81,1.84,1.84,0,0,1,.61,1.36,2.32,2.32,0,0,1-.95,1.92,4.46,4.46,0,0,1-2.78,1,4.71,4.71,0,0,1-2.85-.64,2.55,2.55,0,0,1-1.18-2.11Z"/></svg>