<svg id="Layer_1" data-name="Layer 1" xmlns="http://www.w3.org/2000/svg" viewBox="0 0 321.21 51.31"><defs><style>.cls-1{fill:#fff;stroke:#1414ef;stroke-miterlimit:10;}.cls-2{fill:#1928eb;}</style></defs><title>events</title><rect class="cls-1" x="0.05" y="12" width="321.11" height="27.32" rx="13.66" ry="13.66" transform="translate(2.5 -12.49) rotate(4.49)"/><path class="cls-2" d="M133.41,16.7l7.53.6-.15,1.84-5.4-.43-.25,3.08,5.06.4L140.06,24l-5.06-.4-.25,3.08,5.4.43L140,29l-7.53-.6Z"/><path class="cls-2" d="M144.74,20.56l1.47,6.81,2.55-6.48,2.45.2-4,8.49-2.4-.19-2.56-9Z"/><path class="cls-2" d="M159.69,24.15a4.89,4.89,0,0,1,.11,1.4,8.18,8.18,0,0,1-.16,1.13L154,26.23a3.05,3.05,0,0,0,.38,1.77,1.72,1.72,0,0,0,1.42.78,1.41,1.41,0,0,0,1.66-1l2.14.17a3.15,3.15,0,0,1-1.37,2,4,4,0,0,1-2.57.59,3.81,3.81,0,0,1-2.8-1.49,4.8,4.8,0,0,1-.94-3.46,4.75,4.75,0,0,1,1.48-3.29,3.83,3.83,0,0,1,3-1,3.41,3.41,0,0,1,2.73,1.5A4,4,0,0,1,159.69,24.15Zm-3.41-1.2a1.76,1.76,0,0,0-1.45.47,2.63,2.63,0,0,0-.71,1.46l3.73.3a2,2,0,0,0-.75-2A1.77,1.77,0,0,0,156.27,22.95Z"/><path class="cls-2" d="M164.61,23.67a3.19,3.19,0,0,1,5.27-.27,4.49,4.49,0,0,1,.6,2.88l-.41,5.11-2.12-.17.41-5.11A2.07,2.07,0,0,0,168,24.6a1.73,1.73,0,0,0-1.28-.6,1.81,1.81,0,0,0-1.51.64,3.76,3.76,0,0,0-.82,2.22l-.32,4.05-2.12-.17.7-8.75,1.85.15Z"/><path class="cls-2" d="M178.11,31.82a5.54,5.54,0,0,1-1.91.32,4,4,0,0,1-1.18-.26,2.77,2.77,0,0,1-.87-.56,2.6,2.6,0,0,1-.67-2.1l.39-4.9-1.22-.1.11-1.42,1.22.1.18-2.3,2.13.17-.18,2.3,2.38.19-.11,1.42L176,24.49l-.39,4.83q-.09,1.08.94,1.16a4.29,4.29,0,0,0,1.37-.18Z"/><path class="cls-2" d="M181.68,29.63q-.06,1.25,1.72,1.39a2,2,0,0,0,1.15-.21.84.84,0,0,0,.5-.66.74.74,0,0,0-.22-.63,2.65,2.65,0,0,0-.82-.46l-1.85-.84q-2.07-.91-1.93-2.58a2.08,2.08,0,0,1,1.14-1.71,4.72,4.72,0,0,1,2.74-.46,4,4,0,0,1,2.53.95,2.41,2.41,0,0,1,.8,1.93l-2-.16a.88.88,0,0,0-.36-.72,2,2,0,0,0-1.06-.34,1.84,1.84,0,0,0-1.11.19.79.79,0,0,0-.44.61q-.05.63,1,1l2,.94a4.11,4.11,0,0,1,1.51,1,1.84,1.84,0,0,1,.44,1.42,2.33,2.33,0,0,1-1.18,1.79,4.46,4.46,0,0,1-2.88.6,4.73,4.73,0,0,1-2.75-1,2.55,2.55,0,0,1-.91-2.24Z"/></svg>