<svg id="Layer_1" data-name="Layer 1" xmlns="http://www.w3.org/2000/svg" viewBox="0 0 322.07 35.9"><defs><style>.cls-1{fill:#fff;stroke:#1414ef;stroke-miterlimit:10;}.cls-2{fill:#1414ef;}</style></defs><title>events-past</title><path class="cls-1" d="M307.56,35.39,13.8,27.81A13.66,13.66,0,0,1,.5,13.8h0A13.66,13.66,0,0,1,14.51.5L308.27,8.09a13.66,13.66,0,0,1,13.29,14h0A13.66,13.66,0,0,1,307.56,35.39Z"/><path class="cls-2" d="M119.76,11.33a3.47,3.47,0,0,1,1,2.79,3.46,3.46,0,0,1-1.18,2.73,4.56,4.56,0,0,1-3.12.88l-2-.05-.11,4.26-2.15-.06.31-11.71,4.13.11A4.57,4.57,0,0,1,119.76,11.33Zm-3.22,4.55a2,2,0,0,0,1.51-.48,1.86,1.86,0,0,0,.54-1.33,1.89,1.89,0,0,0-.47-1.37,2,2,0,0,0-1.48-.57l-2-.05-.1,3.75Z"/><path class="cls-2" d="M125.81,17.12a10.14,10.14,0,0,1,2.41.41l0-.87a2.1,2.1,0,0,0-.33-1.37,1.49,1.49,0,0,0-1.2-.47,2.14,2.14,0,0,0-1.3.3,1.11,1.11,0,0,0-.48.94L122.61,16a2.37,2.37,0,0,1,1.11-2.14,5.51,5.51,0,0,1,3-.59q2.71.07,3.45,2a4,4,0,0,1,.23,1.54l-.15,5.58-1.86,0-.13-1.18a2.82,2.82,0,0,1-2.64,1.36,3.84,3.84,0,0,1-2.61-.9,2.61,2.61,0,0,1-.81-2,2.14,2.14,0,0,1,1-1.85A4.55,4.55,0,0,1,125.81,17.12Zm2.37,1.76a7.62,7.62,0,0,0-2-.34q-1.73,0-1.76,1.11a1.09,1.09,0,0,0,.37.85,1.89,1.89,0,0,0,1.26.39,1.92,1.92,0,0,0,1.46-.55A2.16,2.16,0,0,0,128.18,18.88Z"/><path class="cls-2" d="M134.58,19.81q0,1.25,1.79,1.29a2,2,0,0,0,1.14-.27.84.84,0,0,0,.46-.68.74.74,0,0,0-.25-.62,2.67,2.67,0,0,0-.84-.42L135,18.38q-2.11-.8-2.06-2.48a2.08,2.08,0,0,1,1-1.77,4.74,4.74,0,0,1,2.71-.6,4,4,0,0,1,2.58.81,2.41,2.41,0,0,1,.9,1.88l-2-.05a.88.88,0,0,0-.4-.7,2,2,0,0,0-1.08-.28,1.84,1.84,0,0,0-1.1.25.79.79,0,0,0-.41.63q0,.63,1,1l2.05.83a4.12,4.12,0,0,1,1.56.92,1.84,1.84,0,0,1,.51,1.4A2.33,2.33,0,0,1,139.26,22a4.45,4.45,0,0,1-2.84.75,4.71,4.71,0,0,1-2.79-.84,2.55,2.55,0,0,1-1-2.19Z"/><path class="cls-2" d="M147.78,22.62a5.54,5.54,0,0,1-1.89.42,4,4,0,0,1-1.2-.19,2.71,2.71,0,0,1-.9-.51,2.59,2.59,0,0,1-.78-2.06l.13-4.91-1.23,0,0-1.43,1.23,0,.06-2.31,2.13.06L145.32,14l2.38.06,0,1.43-2.38-.06-.13,4.84q0,1.08,1,1.11a4.33,4.33,0,0,0,1.36-.25Z"/><path class="cls-2" d="M154.82,11.31l7.54.2,0,1.84-5.41-.15-.08,3.09,5.07.14,0,1.84-5.07-.14-.08,3.09,5.41.15,0,1.86-7.54-.2Z"/><path class="cls-2" d="M166.33,14.56l1.82,6.71,2.2-6.6,2.45.07-3.5,8.68-2.4-.06-3-8.86Z"/><path class="cls-2" d="M181.43,17.35a4.91,4.91,0,0,1,.19,1.4,8.06,8.06,0,0,1-.1,1.13l-5.67-.15a3,3,0,0,0,.48,1.75,1.71,1.71,0,0,0,1.46.71,1.41,1.41,0,0,0,1.6-1.11l2.15.06a3.15,3.15,0,0,1-1.26,2,4,4,0,0,1-2.53.73,3.81,3.81,0,0,1-2.87-1.34,4.8,4.8,0,0,1-1.12-3.41,4.74,4.74,0,0,1,1.3-3.36A3.82,3.82,0,0,1,178,14.64a3.41,3.41,0,0,1,2.8,1.36A4,4,0,0,1,181.43,17.35Zm-3.47-1a1.76,1.76,0,0,0-1.42.55,2.64,2.64,0,0,0-.64,1.49l3.74.1a2,2,0,0,0-.85-1.94A1.77,1.77,0,0,0,178,16.34Z"/><path class="cls-2" d="M186.32,16.61a3.19,3.19,0,0,1,5.24-.55,4.49,4.49,0,0,1,.75,2.84L192.17,24,190,24l.14-5.13a2.07,2.07,0,0,0-.43-1.48,1.73,1.73,0,0,0-1.3-.53,1.81,1.81,0,0,0-1.47.72,3.74,3.74,0,0,0-.7,2.26l-.11,4.06L184,23.81l.24-8.77,1.86,0Z"/><path class="cls-2" d="M200.22,24a5.54,5.54,0,0,1-1.89.42,4,4,0,0,1-1.2-.19,2.71,2.71,0,0,1-.9-.51,2.59,2.59,0,0,1-.78-2.06l.13-4.91-1.23,0,0-1.43,1.23,0L195.7,13l2.13.06-.06,2.31,2.38.06,0,1.43-2.38-.06-.13,4.84q0,1.08,1,1.11a4.33,4.33,0,0,0,1.36-.25Z"/><path class="cls-2" d="M203.66,21.67q0,1.25,1.79,1.29a2,2,0,0,0,1.14-.27A.84.84,0,0,0,207,22a.74.74,0,0,0-.25-.62A2.67,2.67,0,0,0,206,21l-1.89-.74q-2.11-.8-2.06-2.48A2.08,2.08,0,0,1,203,16a4.74,4.74,0,0,1,2.71-.6,4,4,0,0,1,2.58.81,2.41,2.41,0,0,1,.9,1.88l-2-.05a.88.88,0,0,0-.4-.7,2,2,0,0,0-1.08-.28,1.84,1.84,0,0,0-1.1.25.79.79,0,0,0-.41.63q0,.63,1,1l2.05.83a4.12,4.12,0,0,1,1.56.92,1.84,1.84,0,0,1,.51,1.4,2.33,2.33,0,0,1-1.08,1.85,4.45,4.45,0,0,1-2.84.75,4.71,4.71,0,0,1-2.79-.84,2.55,2.55,0,0,1-1-2.19Z"/><path class="cls-2" d="M119.85,11.82a3.47,3.47,0,0,1,1,2.79,3.46,3.46,0,0,1-1.18,2.73,4.56,4.56,0,0,1-3.12.88l-2-.05-.11,4.26-2.15-.06.31-11.71,4.13.11A4.57,4.57,0,0,1,119.85,11.82Zm-3.22,4.55a2,2,0,0,0,1.51-.48,1.86,1.86,0,0,0,.54-1.33,1.89,1.89,0,0,0-.47-1.37,2,2,0,0,0-1.48-.57l-2-.05-.1,3.75Z"/><path class="cls-2" d="M125.89,17.61a10.14,10.14,0,0,1,2.41.41l0-.87a2.1,2.1,0,0,0-.33-1.37,1.49,1.49,0,0,0-1.2-.47,2.14,2.14,0,0,0-1.3.3,1.11,1.11,0,0,0-.48.94l-2.33-.06a2.37,2.37,0,0,1,1.11-2.14,5.51,5.51,0,0,1,3-.59q2.71.07,3.45,2a4,4,0,0,1,.23,1.54l-.15,5.58-1.86,0-.13-1.18A2.82,2.82,0,0,1,125.68,23a3.84,3.84,0,0,1-2.61-.9,2.61,2.61,0,0,1-.81-2,2.14,2.14,0,0,1,1-1.85A4.55,4.55,0,0,1,125.89,17.61Zm2.37,1.76a7.62,7.62,0,0,0-2-.34q-1.73,0-1.76,1.11a1.09,1.09,0,0,0,.37.85,1.89,1.89,0,0,0,1.26.39,1.92,1.92,0,0,0,1.46-.55A2.16,2.16,0,0,0,128.27,19.37Z"/><path class="cls-2" d="M134.67,20.3q0,1.25,1.79,1.29a2,2,0,0,0,1.14-.27.84.84,0,0,0,.46-.68.74.74,0,0,0-.25-.62,2.67,2.67,0,0,0-.84-.42l-1.89-.74q-2.11-.8-2.06-2.48a2.08,2.08,0,0,1,1-1.77,4.74,4.74,0,0,1,2.71-.6,4,4,0,0,1,2.58.81,2.41,2.41,0,0,1,.9,1.88l-2-.05a.88.88,0,0,0-.4-.7,2,2,0,0,0-1.08-.28,1.84,1.84,0,0,0-1.1.25.79.79,0,0,0-.41.63q0,.63,1,1l2.05.83a4.12,4.12,0,0,1,1.56.92,1.84,1.84,0,0,1,.51,1.4,2.33,2.33,0,0,1-1.08,1.85,4.45,4.45,0,0,1-2.84.75,4.71,4.71,0,0,1-2.79-.84,2.55,2.55,0,0,1-1-2.19Z"/><path class="cls-2" d="M147.87,23.11a5.54,5.54,0,0,1-1.89.42,4,4,0,0,1-1.2-.19,2.71,2.71,0,0,1-.9-.51,2.59,2.59,0,0,1-.78-2.06l.13-4.91-1.23,0,0-1.43,1.23,0,.06-2.31,2.13.06-.06,2.31,2.38.06,0,1.43-2.38-.06-.13,4.84q0,1.08,1,1.11a4.33,4.33,0,0,0,1.36-.25Z"/><path class="cls-2" d="M154.91,11.8l7.54.2,0,1.84L157,13.7l-.08,3.09,5.07.14,0,1.84-5.07-.14-.08,3.09,5.41.15,0,1.86-7.54-.2Z"/><path class="cls-2" d="M166.41,15.05l1.82,6.71,2.2-6.6,2.45.07-3.5,8.68-2.4-.06L164,15Z"/><path class="cls-2" d="M181.52,17.84a4.91,4.91,0,0,1,.19,1.4,8.06,8.06,0,0,1-.1,1.13l-5.67-.15a3,3,0,0,0,.48,1.75,1.71,1.71,0,0,0,1.46.71,1.41,1.41,0,0,0,1.6-1.11l2.15.06a3.15,3.15,0,0,1-1.26,2,4,4,0,0,1-2.53.73A3.81,3.81,0,0,1,175,23a4.8,4.8,0,0,1-1.12-3.41,4.74,4.74,0,0,1,1.3-3.36,3.82,3.82,0,0,1,2.94-1.15,3.41,3.41,0,0,1,2.8,1.36A4,4,0,0,1,181.52,17.84Zm-3.47-1a1.76,1.76,0,0,0-1.42.55,2.64,2.64,0,0,0-.64,1.49l3.74.1a2,2,0,0,0-.85-1.94A1.77,1.77,0,0,0,178.05,16.83Z"/><path class="cls-2" d="M186.4,17.1a3.19,3.19,0,0,1,5.24-.55,4.49,4.49,0,0,1,.75,2.84l-.14,5.13-2.13-.06.14-5.13a2.07,2.07,0,0,0-.43-1.48,1.73,1.73,0,0,0-1.3-.53,1.81,1.81,0,0,0-1.47.72,3.74,3.74,0,0,0-.7,2.26l-.11,4.06-2.13-.06.24-8.77,1.86,0Z"/><path class="cls-2" d="M200.31,24.52a5.54,5.54,0,0,1-1.89.42,4,4,0,0,1-1.2-.19,2.71,2.71,0,0,1-.9-.51,2.59,2.59,0,0,1-.78-2.06l.13-4.91-1.23,0,0-1.43,1.23,0,.06-2.31,2.13.06-.06,2.31,2.38.06,0,1.43-2.38-.06-.13,4.84q0,1.08,1,1.11A4.33,4.33,0,0,0,200,23Z"/><path class="cls-2" d="M203.75,22.16q0,1.25,1.79,1.29a2,2,0,0,0,1.14-.27.84.84,0,0,0,.46-.68.74.74,0,0,0-.25-.62,2.67,2.67,0,0,0-.84-.42l-1.89-.74q-2.11-.8-2.06-2.48a2.08,2.08,0,0,1,1-1.77,4.74,4.74,0,0,1,2.71-.6,4,4,0,0,1,2.58.81,2.41,2.41,0,0,1,.9,1.88l-2-.05a.88.88,0,0,0-.4-.7,2,2,0,0,0-1.08-.28,1.84,1.84,0,0,0-1.1.25.79.79,0,0,0-.41.63q0,.63,1,1l2.05.83a4.12,4.12,0,0,1,1.56.92,1.84,1.84,0,0,1,.51,1.4,2.33,2.33,0,0,1-1.08,1.85,4.45,4.45,0,0,1-2.84.75,4.71,4.71,0,0,1-2.79-.84,2.55,2.55,0,0,1-1-2.19Z"/></svg>