<svg id="Layer_1" data-name="Layer 1" xmlns="http://www.w3.org/2000/svg" viewBox="0 0 321.89 41.07"><defs><style>.cls-1{fill:#fff;stroke:#1414ef;stroke-miterlimit:10;}.cls-2{fill:#1414ef;}</style></defs><title>events-upcoming</title><path class="cls-1" d="M308.33,27.8,14.74,40.56A13.66,13.66,0,0,1,.51,27.51h0A13.66,13.66,0,0,1,13.57,13.27L307.15.51a13.66,13.66,0,0,1,14.23,13.06h0A13.66,13.66,0,0,1,308.33,27.8Z"/><path class="cls-2" d="M89,17.11l.31,7.29a2.61,2.61,0,0,0,.82,2,3.13,3.13,0,0,0,3.77-.16,2.61,2.61,0,0,0,.64-2.1l-.31-7.29,2.13-.09.31,7.29a4.62,4.62,0,0,1-1.1,3.51,5.64,5.64,0,0,1-7,.3,4.62,4.62,0,0,1-1.39-3.4l-.31-7.29Z"/><path class="cls-2" d="M101.66,20.72a2.73,2.73,0,0,1,2.46-1.53A3.68,3.68,0,0,1,107,20.29a4.74,4.74,0,0,1,1.37,3.34,4.72,4.72,0,0,1-1.1,3.46,3.66,3.66,0,0,1-2.71,1.34,2.78,2.78,0,0,1-2.39-.86l.21,5-2.13.09-.55-13,1.75-.07Zm2.4,5.81a2.11,2.11,0,0,0,.78-.2,2.05,2.05,0,0,0,.71-.54,2.82,2.82,0,0,0,.63-2.06,3,3,0,0,0-.71-2,1.93,1.93,0,0,0-1.55-.66,2.09,2.09,0,0,0-1.44.58,2,2,0,0,0-.54,1.5l.07,1.57a1.74,1.74,0,0,0,.65,1.35A2,2,0,0,0,104.06,26.52Z"/><path class="cls-2" d="M114,18.76a3.78,3.78,0,0,1,1.5.22,3.47,3.47,0,0,1,1.14.68,3.53,3.53,0,0,1,1.16,2.14l-2.14.15a2,2,0,0,0-.57-.93,1.24,1.24,0,0,0-.91-.34,2.22,2.22,0,0,0-.86.19,1.67,1.67,0,0,0-.61.5,3.24,3.24,0,0,0-.52,2.12,3,3,0,0,0,.66,2,1.78,1.78,0,0,0,1.43.62,1.59,1.59,0,0,0,1.17-.44,1.47,1.47,0,0,0,.32-1.07l2.15-.09a3.26,3.26,0,0,1-.85,2.44A3.69,3.69,0,0,1,114.37,28a3.81,3.81,0,0,1-3-1.14A4.8,4.8,0,0,1,110,23.56a4.69,4.69,0,0,1,1.1-3.46A3.91,3.91,0,0,1,114,18.76Z"/><path class="cls-2" d="M123.66,18.35a4.86,4.86,0,0,1,1.67.21,3.48,3.48,0,0,1,1.37.8,4.77,4.77,0,0,1,1.39,3.45,4.72,4.72,0,0,1-1.1,3.52,4,4,0,0,1-2.94,1.28,4.1,4.1,0,0,1-3.08-1,4.68,4.68,0,0,1-1.39-3.41,4.74,4.74,0,0,1,1.1-3.55A4.1,4.1,0,0,1,123.66,18.35ZM126,22.88a3.36,3.36,0,0,0-.63-2.06,1.8,1.8,0,0,0-1.54-.63,2,2,0,0,0-1.55.76,3.07,3.07,0,0,0-.52,2.11,3.32,3.32,0,0,0,.64,2.06,1.82,1.82,0,0,0,1.54.63,2,2,0,0,0,1.54-.76A3.07,3.07,0,0,0,126,22.88Z"/><path class="cls-2" d="M138.3,19.63a3,3,0,0,1,2.9-2,3,3,0,0,1,2.48,1,4.32,4.32,0,0,1,.95,2.78l.22,5.12-2.15.09-.22-5.12a2.07,2.07,0,0,0-.53-1.45,1.73,1.73,0,0,0-1.34-.44,1.65,1.65,0,0,0-1.36.8,4,4,0,0,0-.48,2.26l.17,4.11-2.13.09-.22-5.12a2.07,2.07,0,0,0-.53-1.45,1.73,1.73,0,0,0-1.34-.44,1.81,1.81,0,0,0-1.42.82,3.74,3.74,0,0,0-.54,2.3l.17,4.06-2.13.09-.37-8.77,1.86-.08.3,1.5a2.9,2.9,0,0,1,2.7-1.87,3.15,3.15,0,0,1,1.85.43A3,3,0,0,1,138.3,19.63Z"/><path class="cls-2" d="M147.36,14.75a1.21,1.21,0,0,1,.3-.93,1.58,1.58,0,0,1,1.94-.08,1.36,1.36,0,0,1,.08,1.82,1.58,1.58,0,0,1-1.94.08A1.21,1.21,0,0,1,147.36,14.75Zm.37,2.8,2.13-.09.37,8.78-2.13.09Z"/><path class="cls-2" d="M155.62,18.75a3.19,3.19,0,0,1,5.19-.91,4.49,4.49,0,0,1,.94,2.78l.22,5.12-2.13.09-.22-5.12a2.07,2.07,0,0,0-.53-1.45,1.73,1.73,0,0,0-1.34-.44,1.81,1.81,0,0,0-1.42.82,3.74,3.74,0,0,0-.54,2.3L156,26l-2.13.09-.37-8.77,1.86-.08Z"/><path class="cls-2" d="M165.68,22a2.84,2.84,0,0,1-1.16-2.21,2.81,2.81,0,0,1,1-2.36,3.91,3.91,0,0,1,2.44-1,4.75,4.75,0,0,1,2.36.42,2.38,2.38,0,0,1,.81-1.7,2.7,2.7,0,0,1,1.76-.71l0,2q-1.55.07-1.56,1.1a2.69,2.69,0,0,1,.74,1.67,3.11,3.11,0,0,1-.25,1.46,2.91,2.91,0,0,1-.79,1,4.09,4.09,0,0,1-2.6,1,4.54,4.54,0,0,1-1.62-.2.87.87,0,0,0-.68.9q0,.81,1.4.75l2.94-.12q3-.13,3.08,2a3,3,0,0,1-.29,1.39,3.69,3.69,0,0,1-1,1.24A5.86,5.86,0,0,1,168.64,30a6.33,6.33,0,0,1-3.55-.73,2.46,2.46,0,0,1-1.35-2,1.71,1.71,0,0,1,.44-1.31,2.35,2.35,0,0,1,1.28-.66,1.88,1.88,0,0,1-1.13-1.56,1.48,1.48,0,0,1,.35-1.07A2.21,2.21,0,0,1,165.68,22Zm1.78,3.72q-1.69.14-1.64,1.35a1.11,1.11,0,0,0,.75,1,3.62,3.62,0,0,0,1.7.3,5.65,5.65,0,0,0,1.52-.23,3.1,3.1,0,0,0,.91-.47,1.55,1.55,0,0,0,.76-1.33.69.69,0,0,0-.25-.52.94.94,0,0,0-.67-.18Zm2.5-6.19a1.73,1.73,0,0,0-.46-1.17,1.56,1.56,0,0,0-1.25-.41,1.54,1.54,0,0,0-1.63,1.72,1.7,1.7,0,0,0,.48,1.18,1.63,1.63,0,0,0,1.28.42,1.55,1.55,0,0,0,1.22-.52A1.77,1.77,0,0,0,170,19.52Z"/><path class="cls-2" d="M179.62,13.27l7.54-.32.08,1.84-5.41.23L182,18.1l5.07-.22.08,1.84-5.07.22.13,3.08,5.41-.23.08,1.86-7.54.32Z"/><path class="cls-2" d="M191.32,15.72l2.28,6.57,1.74-6.74,2.45-.1-2.89,8.9-2.4.1-3.64-8.63Z"/><path class="cls-2" d="M206.58,17.45a4.91,4.91,0,0,1,.28,1.38,8.06,8.06,0,0,1,0,1.14l-5.66.24a3,3,0,0,0,.6,1.71,1.71,1.71,0,0,0,1.51.6,1.41,1.41,0,0,0,1.52-1.22l2.15-.09a3.15,3.15,0,0,1-1.12,2.13,4,4,0,0,1-2.47.9,3.81,3.81,0,0,1-3-1.14A4.8,4.8,0,0,1,199,19.78a4.74,4.74,0,0,1,1.06-3.44A3.82,3.82,0,0,1,203,15a3.41,3.41,0,0,1,2.89,1.16A4,4,0,0,1,206.58,17.45Zm-3.53-.77a1.76,1.76,0,0,0-1.38.65,2.64,2.64,0,0,0-.53,1.53l3.73-.16a2,2,0,0,0-1-1.87A1.77,1.77,0,0,0,203.05,16.68Z"/><path class="cls-2" d="M211.41,16.38a3.19,3.19,0,0,1,5.19-.91,4.49,4.49,0,0,1,.94,2.78l.22,5.12-2.13.09-.22-5.12a2.07,2.07,0,0,0-.53-1.45,1.73,1.73,0,0,0-1.34-.44,1.81,1.81,0,0,0-1.42.82,3.74,3.74,0,0,0-.54,2.3l.17,4.06-2.13.09L209.25,15l1.86-.08Z"/><path class="cls-2" d="M225.79,22.82a5.53,5.53,0,0,1-1.86.55,4,4,0,0,1-1.21-.11,2.71,2.71,0,0,1-.93-.45,2.59,2.59,0,0,1-.92-2l-.21-4.91-1.23.05-.06-1.42,1.23-.05-.1-2.31,2.13-.09.1,2.31,2.38-.1.06,1.42-2.38.1.21,4.83q0,1.08,1.07,1a4.33,4.33,0,0,0,1.34-.35Z"/><path class="cls-2" d="M229.06,20.22q.09,1.24,1.87,1.17A2,2,0,0,0,232,21a.84.84,0,0,0,.41-.71.74.74,0,0,0-.3-.6,2.67,2.67,0,0,0-.86-.36l-1.94-.6q-2.16-.65-2.23-2.33a2.08,2.08,0,0,1,.92-1.84,4.74,4.74,0,0,1,2.66-.79,4,4,0,0,1,2.63.63,2.41,2.41,0,0,1,1,1.82l-2,.08a.88.88,0,0,0-.44-.67,2,2,0,0,0-1.09-.21,1.85,1.85,0,0,0-1.08.33.79.79,0,0,0-.36.66q0,.63,1.1.89l2.11.69a4.13,4.13,0,0,1,1.62.81,1.84,1.84,0,0,1,.61,1.36,2.33,2.33,0,0,1-.95,1.92,4.45,4.45,0,0,1-2.78.95,4.71,4.71,0,0,1-2.85-.65,2.55,2.55,0,0,1-1.17-2.11Z"/></svg>