<svg id="Layer_1" data-name="Layer 1" xmlns="http://www.w3.org/2000/svg" viewBox="0 0 176.14 174.02"><defs><style>.cls-1{fill:#1928eb;}</style></defs><title>pp</title><path class="cls-1" d="M30.44,14.66Q39,0,54.93,0q14.85,0,24.5,12.62Q89.63,26.17,87.6,47.7q-2,21.71-14.85,35.07Q60.69,95.39,45.93,95.38T25.24,85.92l-4.83,50.84H0L12.81,2.41H29.51Q30.06,11.14,30.44,14.66ZM28,56.41l-.19.93q-.37,8.35,4.46,13A16,16,0,0,0,43.8,75Q52,75,58.27,68.29,65.69,60.49,67,47.69t-3.62-20q-4.93-7.24-13.27-7.24a19.54,19.54,0,0,0-14,5.38q-5.67,5.39-6.59,15.4Z"/><path class="cls-1" d="M118.65,51.92q8.53-14.65,24.49-14.66,14.85,0,24.5,12.62Q177.84,63.43,175.8,85q-2,21.71-14.85,35.07-12.07,12.62-26.82,12.61t-20.69-9.46L108.62,174H88.21L101,39.67h16.71Q118.27,48.4,118.65,51.92Zm-2.42,41.76-.19.93q-.37,8.35,4.46,13A16,16,0,0,0,132,112.23q8.16,0,14.47-6.68,7.42-7.79,8.73-20.59t-3.62-20q-4.93-7.24-13.27-7.24a19.54,19.54,0,0,0-14,5.38q-5.67,5.39-6.59,15.4Z"/></svg>