<?xml version="1.0" encoding="utf-8"?>
<!-- Generator: Adobe Illustrator 21.1.0, SVG Export Plug-In . SVG Version: 6.00 Build 0)  -->
<svg version="1.1" id="Layer_1" xmlns="http://www.w3.org/2000/svg" xmlns:xlink="http://www.w3.org/1999/xlink" x="0px" y="0px"
	 viewBox="0 0 322.1 51.3" style="enable-background:new 0 0 322.1 51.3;" xml:space="preserve">
<style type="text/css">
	.st0{fill:#FFFFFF;stroke:#1414EF;stroke-miterlimit:10;}
	.st1{fill:#1928EB;}
	.st2{fill:#1414EF;}
	.st3{fill:#FFFFFF;stroke:#1928EB;stroke-width:0.75;stroke-miterlimit:10;}
</style>
<path class="st0" d="M308.9,27.9L15.3,50.8c-7.5,0.6-14.1-5-14.7-12.6l0,0c-0.6-7.5,5-14.1,12.6-14.7L306.8,0.5
	c7.5-0.6,14.1,5,14.7,12.6v0C322.1,20.7,316.5,27.3,308.9,27.9z"/>
<g>
	<path class="st1" d="M146,21.2c0.8,0.6,1.2,1.5,1.3,2.7c0.1,1.2-0.2,2.1-0.9,2.8c-0.7,0.7-1.7,1.1-3,1.2l-2,0.2l0.3,4.3l-2.1,0.2
		l-0.9-11.7l4.1-0.3C144.1,20.4,145.2,20.6,146,21.2z M143.3,26.1c0.7-0.1,1.1-0.3,1.5-0.6c0.3-0.4,0.4-0.8,0.4-1.4
		c0-0.5-0.2-1-0.6-1.3c-0.4-0.3-0.9-0.5-1.5-0.4l-2,0.2l0.3,3.8L143.3,26.1z"/>
	<path class="st1" d="M151.7,24.5c0.4-1.3,1.2-2,2.2-2.1c0.2,0,0.5,0,0.8,0.1l0.1,2.1c-0.3,0-0.7-0.1-1,0c-1.4,0.1-2.1,1.1-1.9,3.1
		l0.3,3.8l-2.1,0.2l-0.7-8.8l2.1-0.2L151.7,24.5z"/>
	<path class="st1" d="M164,24.2c0.2,0.5,0.3,1,0.3,1.4c0,0.4,0,0.8,0,1.1l-5.7,0.4c0.1,0.7,0.3,1.3,0.7,1.7c0.4,0.4,0.9,0.6,1.5,0.6
		c0.9-0.1,1.4-0.5,1.5-1.3l2.1-0.2c-0.1,0.9-0.4,1.6-1.1,2.2c-0.6,0.6-1.5,0.9-2.4,1c-1.2,0.1-2.2-0.3-3-1c-0.9-0.8-1.4-1.9-1.5-3.3
		c-0.1-1.4,0.2-2.6,0.9-3.5c0.7-0.9,1.6-1.4,2.8-1.5c1.2-0.1,2.2,0.3,2.9,1.1C163.5,23.3,163.8,23.7,164,24.2z M160.4,23.6
		c-0.6,0-1.1,0.3-1.4,0.7c-0.3,0.4-0.5,0.9-0.5,1.6l3.7-0.3c-0.1-1-0.4-1.6-1-1.8C161,23.6,160.7,23.5,160.4,23.6z"/>
	<path class="st1" d="M168.2,27.6c0.1,0.8,0.7,1.2,1.9,1.1c0.5,0,0.8-0.2,1.1-0.4c0.3-0.2,0.4-0.5,0.4-0.7c0-0.3-0.1-0.5-0.3-0.6
		c-0.2-0.1-0.5-0.2-0.9-0.3l-2-0.5c-1.5-0.4-2.2-1.1-2.3-2.3c-0.1-0.7,0.2-1.4,0.9-1.9c0.6-0.5,1.5-0.8,2.6-0.9
		c1.1-0.1,2,0.1,2.7,0.5c0.6,0.4,1,1,1.1,1.8l-2,0.2c0-0.3-0.2-0.5-0.5-0.7c-0.3-0.1-0.6-0.2-1.1-0.2c-0.5,0-0.8,0.2-1.1,0.4
		c-0.2,0.2-0.4,0.4-0.3,0.7c0,0.4,0.4,0.7,1.1,0.9l2.1,0.6c0.7,0.2,1.3,0.4,1.6,0.8c0.4,0.3,0.6,0.8,0.7,1.3c0.1,0.7-0.2,1.4-0.9,2
		c-0.7,0.6-1.6,1-2.8,1c-1.2,0.1-2.1-0.1-2.9-0.6c-0.7-0.5-1.2-1.1-1.2-2.1L168.2,27.6z"/>
	<path class="st1" d="M177.7,26.9c0.1,0.8,0.7,1.2,1.9,1.1c0.5,0,0.8-0.2,1.1-0.4c0.3-0.2,0.4-0.5,0.4-0.7c0-0.3-0.1-0.5-0.3-0.6
		c-0.2-0.1-0.5-0.2-0.9-0.3l-2-0.5c-1.5-0.4-2.2-1.1-2.3-2.3c-0.1-0.7,0.2-1.4,0.9-1.9c0.6-0.5,1.5-0.8,2.6-0.9
		c1.1-0.1,2,0.1,2.7,0.5c0.6,0.4,1,1,1.1,1.8l-2,0.2c0-0.3-0.2-0.5-0.5-0.7c-0.3-0.1-0.6-0.2-1.1-0.2s-0.8,0.2-1.1,0.4
		c-0.2,0.2-0.4,0.4-0.3,0.7c0,0.4,0.4,0.7,1.1,0.9l2.1,0.6c0.7,0.2,1.3,0.4,1.6,0.8c0.4,0.3,0.6,0.8,0.7,1.3c0.1,0.7-0.2,1.4-0.9,2
		c-0.7,0.6-1.6,1-2.8,1c-1.2,0.1-2.1-0.1-2.9-0.6c-0.7-0.5-1.2-1.1-1.2-2.1L177.7,26.9z"/>
</g>
</svg>
