<svg id="Layer_1" data-name="Layer 1" xmlns="http://www.w3.org/2000/svg" viewBox="0 0 258.19 32.58"><defs><style>.cls-1{fill:#fff;}.cls-2{fill:none;stroke:#1928eb;stroke-miterlimit:10;stroke-width:0.75px;}.cls-3{fill:#1928eb;}</style></defs><title>Updated Events Tab</title><rect class="cls-1" x="118.14" y="-112.53" width="21.92" height="257.65" rx="10.96" ry="10.96" transform="translate(107.39 144.59) rotate(-87.59)"/><rect class="cls-2" x="118.14" y="-112.53" width="21.92" height="257.65" rx="10.96" ry="10.96" transform="translate(107.39 144.59) rotate(-87.59)"/><path class="cls-3" d="M79.4,9.77A2.78,2.78,0,0,1,80.2,12a2.78,2.78,0,0,1-1,2.18,3.66,3.66,0,0,1-2.52.67L75.1,14.8,75,18.22l-1.72-.07.41-9.4L77,8.89A3.67,3.67,0,0,1,79.4,9.77Zm-2.65,3.61A1.6,1.6,0,0,0,78,13,1.49,1.49,0,0,0,78.43,12a1.52,1.52,0,0,0-.36-1.1,1.58,1.58,0,0,0-1.18-.48l-1.59-.07-.13,3Z"/><path class="cls-3" d="M86.42,17.44a2.23,2.23,0,0,1-2.21,1.31,2.38,2.38,0,0,1-2.4-1.57,3.13,3.13,0,0,1-.16-1.24l.2-4.49,1.71.07-.19,4.32a1.43,1.43,0,0,0,.29,1,1.1,1.1,0,0,0,.8.38,2.14,2.14,0,0,0,.82-.1,1.57,1.57,0,0,0,.6-.39,2.58,2.58,0,0,0,.64-1.64l.15-3.48,1.71.07-.31,7.05-1.71-.07Z"/><path class="cls-3" d="M97,12.95a3.9,3.9,0,0,1,.78,2.7,4,4,0,0,1-1.06,2.68,2.92,2.92,0,0,1-2.32.93,2.18,2.18,0,0,1-1.18-.4,2.35,2.35,0,0,1-.81-1.11L91.88,19l-1.12,0L91.2,9,92.91,9l-.16,3.78a2.2,2.2,0,0,1,2-1A2.84,2.84,0,0,1,97,12.95ZM92.65,15l0,.93a1.69,1.69,0,0,0,.48,1.24,1.61,1.61,0,0,0,1.15.51,1.48,1.48,0,0,0,1.21-.55A2.43,2.43,0,0,0,96,15.59,2.39,2.39,0,0,0,95.59,14a1.51,1.51,0,0,0-1.18-.64,1.63,1.63,0,0,0-1.22.43A1.7,1.7,0,0,0,92.65,15Z"/><path class="cls-3" d="M100.09,9.36l1.71.07-.43,9.94-1.71-.07Z"/><path class="cls-3" d="M104.51,12.44l1.71.07-.31,7.05-1.71-.07Zm-.11-2.27a1,1,0,0,1,.31-.72,1.27,1.27,0,0,1,1.56.07,1.09,1.09,0,0,1-.06,1.46,1.27,1.27,0,0,1-1.56-.07A1,1,0,0,1,104.41,10.17Z"/><path class="cls-3" d="M111.81,12.58a3,3,0,0,1,1.18.28,2.8,2.8,0,0,1,.87.63,2.84,2.84,0,0,1,.78,1.79l-1.73,0a1.58,1.58,0,0,0-.39-.79,1,1,0,0,0-.7-.34,1.78,1.78,0,0,0-.7.09,1.33,1.33,0,0,0-.52.36,2.6,2.6,0,0,0-.57,1.66,2.44,2.44,0,0,0,.39,1.64,1.43,1.43,0,0,0,1.1.59,1.27,1.27,0,0,0,1-.27,1.18,1.18,0,0,0,.33-.83l1.72.07a2.62,2.62,0,0,1-.85,1.89,3,3,0,0,1-2.22.69,3.05,3.05,0,0,1-2.29-1.12,3.85,3.85,0,0,1-.88-2.75,3.76,3.76,0,0,1,1.12-2.69A3.14,3.14,0,0,1,111.81,12.58Z"/><path class="cls-3" d="M126.28,11.81a2.78,2.78,0,0,1,.79,2.25,2.78,2.78,0,0,1-1,2.18,3.67,3.67,0,0,1-2.52.67L122,16.83l-.15,3.42-1.72-.08.41-9.4,3.32.14A3.66,3.66,0,0,1,126.28,11.81Zm-2.65,3.61a1.6,1.6,0,0,0,1.22-.37,1.49,1.49,0,0,0,.45-1.06,1.52,1.52,0,0,0-.36-1.1,1.59,1.59,0,0,0-1.18-.48l-1.59-.07-.13,3Z"/><path class="cls-3" d="M130.52,15a2.07,2.07,0,0,1,2-1.44,2.54,2.54,0,0,1,.62.13l-.1,1.71a3.79,3.79,0,0,0-.79-.12q-1.71-.07-1.81,2.29l-.13,3.09-1.71-.07.31-7.05,1.71.07Z"/><path class="cls-3" d="M137.67,13.7A3.89,3.89,0,0,1,139,14a2.78,2.78,0,0,1,1,.73,3.83,3.83,0,0,1,.88,2.85,3.79,3.79,0,0,1-1.12,2.74,3.19,3.19,0,0,1-2.44.82,3.29,3.29,0,0,1-2.39-1,3.75,3.75,0,0,1-.88-2.82,3.79,3.79,0,0,1,1.12-2.77A3.29,3.29,0,0,1,137.67,13.7Zm1.53,3.78a2.7,2.7,0,0,0-.36-1.69,1.45,1.45,0,0,0-1.19-.61,1.61,1.61,0,0,0-1.29.5,2.47,2.47,0,0,0-.57,1.65,2.67,2.67,0,0,0,.37,1.69,1.46,1.46,0,0,0,1.18.61,1.61,1.61,0,0,0,1.29-.5A2.47,2.47,0,0,0,139.2,17.48Z"/><path class="cls-3" d="M143.52,18.31a2.28,2.28,0,0,1-.78-1.85,2.26,2.26,0,0,1,1-1.82,3.15,3.15,0,0,1,2-.59,3.82,3.82,0,0,1,1.86.5,1.91,1.91,0,0,1,.77-1.3,2.17,2.17,0,0,1,1.46-.44l-.16,1.63q-1.25-.05-1.32.77a2.17,2.17,0,0,1,.48,1.38,2.49,2.49,0,0,1-.3,1.16,2.33,2.33,0,0,1-.7.76,3.29,3.29,0,0,1-2.15.6,3.66,3.66,0,0,1-1.28-.27.7.7,0,0,0-.61.67q0,.65,1.07.7l2.36.1q2.4.1,2.33,1.78a2.38,2.38,0,0,1-.33,1.1,3,3,0,0,1-.86.93,4.71,4.71,0,0,1-3,.8,5.09,5.09,0,0,1-2.79-.83,2,2,0,0,1-.94-1.71,1.37,1.37,0,0,1,.44-1,1.89,1.89,0,0,1,1.07-.44,1.51,1.51,0,0,1-.8-1.33,1.2,1.2,0,0,1,.36-.83A1.78,1.78,0,0,1,143.52,18.31Zm1.17,3.1q-1.36,0-1.41,1a.89.89,0,0,0,.54.81,2.92,2.92,0,0,0,1.34.36,4.52,4.52,0,0,0,1.23-.08,2.51,2.51,0,0,0,.76-.32,1.25,1.25,0,0,0,.7-1,.55.55,0,0,0-.16-.43.75.75,0,0,0-.52-.19Zm2.43-4.78a1.39,1.39,0,0,0-.29-1,1.25,1.25,0,0,0-1-.41,1.33,1.33,0,0,0-1,.33,1.34,1.34,0,0,0-.39.94,1.37,1.37,0,0,0,.31,1,1.31,1.31,0,0,0,1,.42,1.25,1.25,0,0,0,1-.33A1.42,1.42,0,0,0,147.12,16.63Z"/><path class="cls-3" d="M153.17,16a2.07,2.07,0,0,1,2-1.44,2.48,2.48,0,0,1,.62.13l-.1,1.71a3.72,3.72,0,0,0-.79-.12q-1.71-.07-1.81,2.29l-.13,3.08-1.71-.07.31-7.05,1.71.07Z"/><path class="cls-3" d="M159.74,17.78a8.13,8.13,0,0,1,1.93.36l0-.7a1.68,1.68,0,0,0-.25-1.11,1.2,1.2,0,0,0-1-.4,1.73,1.73,0,0,0-1,.22.89.89,0,0,0-.39.74l-1.87-.08a1.9,1.9,0,0,1,.92-1.7,4.42,4.42,0,0,1,2.39-.43,2.71,2.71,0,0,1,2.74,1.64,3.21,3.21,0,0,1,.16,1.24l-.2,4.48L161.72,22l-.09-.95a2.27,2.27,0,0,1-2.14,1.05,3.09,3.09,0,0,1-2.09-.76,2.09,2.09,0,0,1-.62-1.64,1.72,1.72,0,0,1,.83-1.47A3.66,3.66,0,0,1,159.74,17.78Zm1.88,1.45a6.15,6.15,0,0,0-1.58-.3q-1.39-.06-1.43.87a.87.87,0,0,0,.29.69,1.51,1.51,0,0,0,1,.33,1.55,1.55,0,0,0,1.18-.42A1.74,1.74,0,0,0,161.62,19.22Z"/><path class="cls-3" d="M172.2,16.72a2.42,2.42,0,0,1,2.46-1.42,2.38,2.38,0,0,1,1.92.94,3.46,3.46,0,0,1,.57,2.29L177,22.65l-1.72-.07.18-4.11a1.66,1.66,0,0,0-.33-1.2,1.39,1.39,0,0,0-1-.44,1.33,1.33,0,0,0-1.14.55,3.17,3.17,0,0,0-.54,1.78l-.14,3.3-1.71-.07.18-4.11a1.66,1.66,0,0,0-.33-1.2,1.39,1.39,0,0,0-1-.44,1.45,1.45,0,0,0-1.19.56,3,3,0,0,0-.59,1.8l-.14,3.26-1.71-.07.31-7,1.49.06.13,1.22a2.33,2.33,0,0,1,2.29-1.31,2.52,2.52,0,0,1,1.45.47A2.44,2.44,0,0,1,172.2,16.72Z"/><path class="cls-3" d="M180.49,20.65q0,1,1.42,1.06a1.59,1.59,0,0,0,.92-.2.67.67,0,0,0,.38-.54.59.59,0,0,0-.2-.5,2.11,2.11,0,0,0-.67-.35l-1.51-.62q-1.68-.67-1.62-2a1.66,1.66,0,0,1,.87-1.41,3.8,3.8,0,0,1,2.18-.45,3.23,3.23,0,0,1,2.06.68,1.93,1.93,0,0,1,.7,1.52l-1.61-.07a.7.7,0,0,0-.31-.56,1.57,1.57,0,0,0-.86-.24,1.49,1.49,0,0,0-.89.19.64.64,0,0,0-.33.5c0,.34.26.6.82.79l1.64.69a3.32,3.32,0,0,1,1.24.76,1.47,1.47,0,0,1,.39,1.13,1.86,1.86,0,0,1-.89,1.47,3.57,3.57,0,0,1-2.29.57,3.77,3.77,0,0,1-2.23-.71,2,2,0,0,1-.79-1.77Z"/></svg>