<svg id="Layer_1" data-name="Layer 1" xmlns="http://www.w3.org/2000/svg" viewBox="0 0 321.89 41.07"><defs><style>.cls-1{fill:#fff;stroke:#1414ef;stroke-miterlimit:10;}.cls-2{fill:#1414ef;}</style></defs><title>support</title><path class="cls-1" d="M307.21,40,13.58,28.33A13.66,13.66,0,0,1,.49,14.14h0A13.66,13.66,0,0,1,14.68,1h0L308.31,12.74a13.66,13.66,0,0,1,13.09,14.2h0A13.66,13.66,0,0,1,307.21,40Z"/><path class="cls-2" d="M66.13,13.15q-.23-1.54-2.1-1.62a2.42,2.42,0,0,0-1.45.31,1.08,1.08,0,0,0-.55.87,1,1,0,0,0,.3.83,3.21,3.21,0,0,0,1,.59l2.5,1.1a5.27,5.27,0,0,1,1.95,1.35,2.74,2.74,0,0,1,.62,1.95A3,3,0,0,1,67.12,21a5.41,5.41,0,0,1-3.43.79,4.94,4.94,0,0,1-3.12-1.09,3.71,3.71,0,0,1-1.3-3l2.11.09a1.75,1.75,0,0,0,1.42,1.88,4.56,4.56,0,0,0,1.18.18,2.67,2.67,0,0,0,1.39-.31,1.12,1.12,0,0,0,.67-1,1.27,1.27,0,0,0-.3-1,3.26,3.26,0,0,0-1.09-.67l-2.29-1a6.09,6.09,0,0,1-2-1.31,2.59,2.59,0,0,1-.64-2,2.73,2.73,0,0,1,1.23-2.26A5,5,0,0,1,64.1,9.6a4.58,4.58,0,0,1,3,1,3.67,3.67,0,0,1,1.13,2.6Z"/><path class="cls-2" d="M77,20.5a2.78,2.78,0,0,1-2.74,1.64,3,3,0,0,1-3-1.95,3.89,3.89,0,0,1-.21-1.54l.23-5.59,2.13.09-.22,5.37a1.78,1.78,0,0,0,.36,1.31,1.37,1.37,0,0,0,1,.47,2.66,2.66,0,0,0,1-.13,2,2,0,0,0,.74-.48,3.22,3.22,0,0,0,.79-2l.18-4.33,2.13.09-.36,8.78L77,22.09Z"/><path class="cls-2" d="M84.7,14.82a2.73,2.73,0,0,1,2.58-1.32A3.68,3.68,0,0,1,90,14.84a4.74,4.74,0,0,1,1.09,3.44,4.72,4.72,0,0,1-1.38,3.36,3.66,3.66,0,0,1-2.81,1.11,2.78,2.78,0,0,1-2.3-1.05l-.21,5-2.13-.09.54-13,1.75.07Zm1.9,6a2.1,2.1,0,0,0,.79-.13,2.06,2.06,0,0,0,.75-.47,2.82,2.82,0,0,0,.8-2,3,3,0,0,0-.54-2,1.93,1.93,0,0,0-1.48-.78,2.1,2.1,0,0,0-1.48.45,2,2,0,0,0-.66,1.44l-.06,1.57a1.74,1.74,0,0,0,.54,1.4A2,2,0,0,0,86.6,20.8Z"/><path class="cls-2" d="M95.7,15.27A2.73,2.73,0,0,1,98.28,14,3.68,3.68,0,0,1,101,15.29a4.74,4.74,0,0,1,1.09,3.44,4.72,4.72,0,0,1-1.38,3.36A3.66,3.66,0,0,1,97.9,23.2a2.78,2.78,0,0,1-2.3-1.05l-.21,5L93.26,27l.54-13,1.75.07Zm1.9,6a2.1,2.1,0,0,0,.79-.13,2.06,2.06,0,0,0,.75-.47,2.82,2.82,0,0,0,.8-2,3,3,0,0,0-.54-2,1.93,1.93,0,0,0-1.48-.78,2.1,2.1,0,0,0-1.48.45,2,2,0,0,0-.66,1.44l-.06,1.57a1.74,1.74,0,0,0,.54,1.4A2,2,0,0,0,97.6,21.26Z"/><path class="cls-2" d="M108.25,14.36a4.88,4.88,0,0,1,1.65.35,3.49,3.49,0,0,1,1.3.91,4.77,4.77,0,0,1,1.1,3.55,4.72,4.72,0,0,1-1.39,3.41,4,4,0,0,1-3,1,4.1,4.1,0,0,1-3-1.28,4.68,4.68,0,0,1-1.1-3.51,4.73,4.73,0,0,1,1.39-3.45A4.1,4.1,0,0,1,108.25,14.36Zm1.92,4.7a3.36,3.36,0,0,0-.46-2.11,1.8,1.8,0,0,0-1.48-.76,2,2,0,0,0-1.61.63,3.07,3.07,0,0,0-.7,2.06,3.31,3.31,0,0,0,.46,2.1,1.82,1.82,0,0,0,1.48.76,2,2,0,0,0,1.6-.63A3.07,3.07,0,0,0,110.17,19.07Z"/><path class="cls-2" d="M117.06,16.7a2.57,2.57,0,0,1,2.46-1.79,3.12,3.12,0,0,1,.77.16l-.12,2.13a4.73,4.73,0,0,0-1-.15q-2.13-.09-2.25,2.85l-.16,3.84-2.13-.09.36-8.78,2.13.09Z"/><path class="cls-2" d="M127.09,23.94a5.54,5.54,0,0,1-1.89.39,4,4,0,0,1-1.19-.21,2.69,2.69,0,0,1-.89-.52,2.59,2.59,0,0,1-.75-2.07l.2-4.9-1.23-.05.06-1.42,1.23.05.1-2.31,2.13.09-.1,2.31,2.38.1-.06,1.42-2.38-.1-.2,4.83q0,1.08,1,1.12a4.34,4.34,0,0,0,1.36-.23Z"/><path class="cls-2" d="M133.23,15.63l1.3.05,0-1a2.66,2.66,0,0,1,.88-2,2.7,2.7,0,0,1,1.9-.57,9.64,9.64,0,0,1,1.81.29L138.68,14a2.75,2.75,0,0,0-.9-.22,1.17,1.17,0,0,0-.72.2,1,1,0,0,0-.34.83l0,1,1.6.07-.06,1.42-1.6-.07-.3,7.34-2.15-.09.3-7.34-1.3-.05Z"/><path class="cls-2" d="M144.24,15.85a4.88,4.88,0,0,1,1.65.35,3.48,3.48,0,0,1,1.3.91,4.77,4.77,0,0,1,1.1,3.55,4.72,4.72,0,0,1-1.39,3.41,4,4,0,0,1-3,1,4.1,4.1,0,0,1-3-1.28,4.68,4.68,0,0,1-1.1-3.51,4.73,4.73,0,0,1,1.39-3.45A4.1,4.1,0,0,1,144.24,15.85Zm1.92,4.7a3.36,3.36,0,0,0-.45-2.11,1.8,1.8,0,0,0-1.48-.76,2,2,0,0,0-1.61.63,3.07,3.07,0,0,0-.7,2.06,3.31,3.31,0,0,0,.46,2.1,1.82,1.82,0,0,0,1.48.76,2,2,0,0,0,1.6-.63A3.07,3.07,0,0,0,146.16,20.55Z"/><path class="cls-2" d="M153,18.18a2.57,2.57,0,0,1,2.46-1.79,3.12,3.12,0,0,1,.77.16l-.12,2.13a4.72,4.72,0,0,0-1-.15q-2.13-.09-2.25,2.85l-.16,3.84-2.13-.09.36-8.78,2.13.09Z"/><path class="cls-2" d="M169.19,17.4q-.23-1.54-2.1-1.62a2.43,2.43,0,0,0-1.45.31,1.08,1.08,0,0,0-.55.87,1,1,0,0,0,.3.83,3.2,3.2,0,0,0,1,.59l2.5,1.1a5.27,5.27,0,0,1,1.95,1.35,2.74,2.74,0,0,1,.62,1.95,3,3,0,0,1-1.29,2.47,5.41,5.41,0,0,1-3.43.79A4.94,4.94,0,0,1,163.64,25a3.71,3.71,0,0,1-1.3-3l2.11.09a1.75,1.75,0,0,0,1.42,1.88,4.56,4.56,0,0,0,1.18.18,2.67,2.67,0,0,0,1.39-.31,1.12,1.12,0,0,0,.67-1,1.28,1.28,0,0,0-.3-1,3.28,3.28,0,0,0-1.09-.67l-2.29-1a6.09,6.09,0,0,1-2-1.31,2.59,2.59,0,0,1-.64-2A2.73,2.73,0,0,1,164,14.6a5,5,0,0,1,3.16-.75,4.58,4.58,0,0,1,3,1,3.67,3.67,0,0,1,1.13,2.6Z"/><path class="cls-2" d="M181.24,20a4.91,4.91,0,0,1,.17,1.4,8.14,8.14,0,0,1-.12,1.13l-5.66-.23a3,3,0,0,0,.45,1.75,1.71,1.71,0,0,0,1.45.73,1.41,1.41,0,0,0,1.62-1.09l2.15.09a3.15,3.15,0,0,1-1.29,2,4,4,0,0,1-2.54.69,3.8,3.8,0,0,1-2.85-1.38,4.79,4.79,0,0,1-1.07-3.42,4.74,4.74,0,0,1,1.35-3.34,3.82,3.82,0,0,1,3-1.11,3.4,3.4,0,0,1,2.78,1.4A4,4,0,0,1,181.24,20Zm-3.45-1.06a1.76,1.76,0,0,0-1.43.53,2.64,2.64,0,0,0-.66,1.48l3.73.15a2,2,0,0,0-.82-1.95A1.76,1.76,0,0,0,177.79,18.93Z"/><path class="cls-2" d="M186.14,19.33a3.19,3.19,0,0,1,5.25-.47,4.49,4.49,0,0,1,.7,2.85l-.21,5.12-2.13-.09.21-5.12a2.07,2.07,0,0,0-.41-1.49,1.73,1.73,0,0,0-1.3-.55,1.81,1.81,0,0,0-1.48.7,3.75,3.75,0,0,0-.73,2.25l-.17,4.06-2.13-.09.36-8.76,1.86.08Z"/><path class="cls-2" d="M199.93,26.94a5.54,5.54,0,0,1-1.89.39,4,4,0,0,1-1.19-.21,2.69,2.69,0,0,1-.89-.52,2.59,2.59,0,0,1-.75-2.07l.2-4.9-1.23-.05.06-1.42,1.23.05.1-2.31,2.13.09-.1,2.31,2.38.1-.06,1.42-2.38-.1-.2,4.83q0,1.08,1,1.12a4.34,4.34,0,0,0,1.36-.23Z"/><path class="cls-2" d="M202.51,15.65a1.21,1.21,0,0,1,.38-.9,1.57,1.57,0,0,1,1.94.08,1.35,1.35,0,0,1-.08,1.82,1.57,1.57,0,0,1-1.94-.08A1.21,1.21,0,0,1,202.51,15.65Zm.14,2.82,2.13.09-.36,8.78-2.13-.09Z"/><path class="cls-2" d="M216.1,20.71a3,3,0,0,1,3.05-1.77,3,3,0,0,1,2.39,1.16,4.31,4.31,0,0,1,.71,2.85L222,28.07,219.9,28l.21-5.12a2.07,2.07,0,0,0-.41-1.49,1.73,1.73,0,0,0-1.3-.55,1.65,1.65,0,0,0-1.42.68,4,4,0,0,0-.67,2.21l-.17,4.11L214,27.74l.21-5.12a2.07,2.07,0,0,0-.41-1.49,1.73,1.73,0,0,0-1.3-.55,1.81,1.81,0,0,0-1.48.7,3.75,3.75,0,0,0-.73,2.25l-.17,4.06L208,27.49l.36-8.76,1.86.08.17,1.52a2.9,2.9,0,0,1,2.85-1.64,3.15,3.15,0,0,1,1.81.58A3,3,0,0,1,216.1,20.71Z"/><path class="cls-2" d="M232.18,22.09a4.91,4.91,0,0,1,.17,1.4,8.14,8.14,0,0,1-.12,1.13l-5.66-.23a3,3,0,0,0,.45,1.75,1.71,1.71,0,0,0,1.45.73,1.41,1.41,0,0,0,1.62-1.09l2.15.09a3.15,3.15,0,0,1-1.29,2,4,4,0,0,1-2.54.69,3.8,3.8,0,0,1-2.85-1.38,4.79,4.79,0,0,1-1.07-3.42,4.74,4.74,0,0,1,1.35-3.34,3.82,3.82,0,0,1,3-1.11,3.4,3.4,0,0,1,2.78,1.4A4,4,0,0,1,232.18,22.09ZM228.73,21a1.76,1.76,0,0,0-1.43.53,2.64,2.64,0,0,0-.66,1.48l3.73.15a2,2,0,0,0-.82-1.95A1.76,1.76,0,0,0,228.73,21Z"/><path class="cls-2" d="M237.07,21.43a3.19,3.19,0,0,1,5.25-.47,4.49,4.49,0,0,1,.7,2.85l-.21,5.12-2.13-.09.21-5.12a2.07,2.07,0,0,0-.41-1.49,1.73,1.73,0,0,0-1.3-.55,1.81,1.81,0,0,0-1.48.7,3.75,3.75,0,0,0-.73,2.25l-.17,4.06-2.13-.09.36-8.76,1.86.08Z"/><path class="cls-2" d="M250.87,29a5.54,5.54,0,0,1-1.89.39,4,4,0,0,1-1.19-.21,2.69,2.69,0,0,1-.89-.52,2.59,2.59,0,0,1-.75-2.07l.2-4.9-1.23-.05.06-1.42,1.23.05.1-2.31,2.13.09-.1,2.31,2.38.1-.06,1.42-2.38-.1-.2,4.83q0,1.08,1,1.12a4.34,4.34,0,0,0,1.36-.23Z"/><path class="cls-2" d="M254.34,26.73q0,1.25,1.77,1.32a2,2,0,0,0,1.14-.25.84.84,0,0,0,.47-.68.74.74,0,0,0-.25-.62,2.65,2.65,0,0,0-.83-.43l-1.88-.76q-2.1-.83-2-2.5A2.07,2.07,0,0,1,253.81,21a4.73,4.73,0,0,1,2.71-.57,4,4,0,0,1,2.57.85,2.41,2.41,0,0,1,.87,1.9l-2-.08a.88.88,0,0,0-.39-.7,1.94,1.94,0,0,0-1.07-.3,1.84,1.84,0,0,0-1.1.24A.79.79,0,0,0,255,23q0,.63,1,1l2,.86a4.12,4.12,0,0,1,1.54.94,1.84,1.84,0,0,1,.49,1.4A2.32,2.32,0,0,1,259,29a4.46,4.46,0,0,1-2.85.71,4.71,4.71,0,0,1-2.78-.88,2.55,2.55,0,0,1-1-2.2Z"/></svg>