<svg id="Layer_1" data-name="Layer 1" xmlns="http://www.w3.org/2000/svg" viewBox="0 0 98.95 509.5"><defs><style>.cls-1{fill:#1414ef;}</style></defs><title>tab</title><path class="cls-1" d="M66.33,39.93q7.82-1.47,7.82-11a12.35,12.35,0,0,0-1.89-7.31A5.5,5.5,0,0,0,67.71,19a5.32,5.32,0,0,0-4.19,1.7,16.32,16.32,0,0,0-2.81,5.29l-5.06,13a26.78,26.78,0,0,1-6.49,10.21,13.94,13.94,0,0,1-9.8,3.59,15.42,15.42,0,0,1-12.83-6.07q-4.74-6.07-4.74-17.3,0-9.94,4.88-16.1Q32,6.35,41.77,6V16.74q-7.36,0-9.29,7.64a23.2,23.2,0,0,0-.64,6.07,13.58,13.58,0,0,0,1.89,7,5.69,5.69,0,0,0,5.06,3.22,6.5,6.5,0,0,0,4.88-1.75,16.6,16.6,0,0,0,3.17-5.7l4.69-11.87a31.11,31.11,0,0,1,6.26-10.58q3.59-3.68,9.94-3.68a13.91,13.91,0,0,1,11.78,5.8Q84,18.77,84,28.84T79.35,44.39q-4.65,5.47-13,6.3Z"/><path class="cls-1" d="M55.66,101.89A25,25,0,0,1,48.58,103a41.43,41.43,0,0,1-5.8-.37V73.79a15.54,15.54,0,0,0-8.83,2.67q-3.4,2.48-3.4,7.54,0,6.71,5.89,8v10.95a16,16,0,0,1-10.58-6.16A20.3,20.3,0,0,1,21.8,84a19.4,19.4,0,0,1,6.44-14.81Q35,63,45.45,63q10.77,0,17.3,6.16A19.48,19.48,0,0,1,69,84q0,9.29-6.53,14.44A20.44,20.44,0,0,1,55.66,101.89Zm4.69-17.8a9,9,0,0,0-3-7.18,13.43,13.43,0,0,0-7.68-3v19q7.27,0,9.75-4.6A9,9,0,0,0,60.35,84.09Z"/><path class="cls-1" d="M60.08,126.69Q69,131.1,69,140.86q0,8.28-5.43,12.47t-14.35,4.19H23.09V146.65H49.22q5,0,7.5-2.39a8.8,8.8,0,0,0,2.53-6.72,9.21,9.21,0,0,0-3.86-7.41q-3.86-3.08-11.59-3.27H23.09V116H67.81v9.48Z"/><path class="cls-1" d="M24.2,198.54q-2.39-6.07-2.39-9.57a20.37,20.37,0,0,1,.83-6.12,13.85,13.85,0,0,1,2.48-4.65Q28.89,174,35.51,174h25v-6.26h7.27V174H79.58v10.86H67.81V197H60.54V184.83H35.88q-5.52,0-5.52,5.24a22.1,22.1,0,0,0,1.47,6.9Z"/><path class="cls-1" d="M67.9,210.59v10.86H23.09V210.59Zm14.35-1.29a6.18,6.18,0,0,1,4.65,1.75,8,8,0,0,1,0,9.89,6.91,6.91,0,0,1-9.29,0,8,8,0,0,1,0-9.89A6.18,6.18,0,0,1,82.25,209.3Z"/><path class="cls-1" d="M59.34,279.59Q69,283.91,69,294.77q0,8-5.43,12.42-5.15,4.23-14.35,4.23H23.09V300.48H49.22q5,0,7.5-2.39a8.8,8.8,0,0,0,2.53-6.72,8.43,8.43,0,0,0-3.77-7.08q-3.77-2.76-11.41-2.94h-21V270.48H49.22q5,0,7.5-2.39a8.8,8.8,0,0,0,2.53-6.72A9.21,9.21,0,0,0,55.39,254q-3.86-3.08-11.59-3.27H23.09V239.85H67.81v9.48l-7.73,1.2Q69,254.94,69,264.69A16,16,0,0,1,66.43,274,15.49,15.49,0,0,1,59.34,279.59Z"/><path class="cls-1" d="M55.66,361.8a25,25,0,0,1-7.08,1.15,41.43,41.43,0,0,1-5.8-.37V333.69a15.54,15.54,0,0,0-8.83,2.67q-3.4,2.48-3.4,7.54,0,6.71,5.89,8v10.95a16,16,0,0,1-10.58-6.16,20.3,20.3,0,0,1-4-12.79,19.4,19.4,0,0,1,6.44-14.81q6.71-6.17,17.2-6.16,10.77,0,17.3,6.16A19.48,19.48,0,0,1,69,343.9q0,9.29-6.53,14.44A20.44,20.44,0,0,1,55.66,361.8ZM60.35,344a9,9,0,0,0-3-7.18,13.43,13.43,0,0,0-7.68-3v19q7.27,0,9.75-4.6A9,9,0,0,0,60.35,344Z"/><path class="cls-1" d="M60.08,386.59Q69,391,69,400.76q0,8.28-5.43,12.47t-14.35,4.19H23.09V406.55H49.22q5,0,7.5-2.39a8.8,8.8,0,0,0,2.53-6.72A9.21,9.21,0,0,0,55.39,390q-3.86-3.08-11.59-3.27H23.09V375.92H67.81v9.48Z"/><path class="cls-1" d="M24.2,458.44q-2.39-6.07-2.39-9.57a20.37,20.37,0,0,1,.83-6.12,13.85,13.85,0,0,1,2.48-4.65q3.77-4.23,10.4-4.23h25v-6.26h7.27v6.26H79.58v10.86H67.81v12.14H60.54V444.73H35.88q-5.52,0-5.52,5.24a22.1,22.1,0,0,0,1.47,6.9Z"/><path class="cls-1" d="M36.71,475.65q-6.35.18-6.35,9.29a10.09,10.09,0,0,0,1.52,5.75,4.3,4.3,0,0,0,3.54,2.25,3.78,3.78,0,0,0,3.13-1.38,13.62,13.62,0,0,0,2-4.32l3.5-9.75q3.77-10.86,12.33-10.86a10.58,10.58,0,0,1,9.15,5.11Q69,476.84,69,485.45t-3.77,13.25a12.27,12.27,0,0,1-9.48,4.83V493.31a4.48,4.48,0,0,0,3.5-2.12,9.93,9.93,0,0,0,1.29-5.52,9.39,9.39,0,0,0-1.43-5.57,4,4,0,0,0-3.27-2q-3.22,0-4.78,5.43l-4,10.58a21,21,0,0,1-4.46,8,9.35,9.35,0,0,1-7,2.81q-5.52,0-9.57-5.24-4.23-5.43-4.23-14.35T25.71,471a13,13,0,0,1,11-5.52Z"/></svg>