<svg id="Layer_1" data-name="Layer 1" xmlns="http://www.w3.org/2000/svg" viewBox="0 0 98.95 792.42"><defs><style>.cls-1{fill:#1928eb;}</style></defs><title>tab-05</title><path class="cls-1" d="M82.8,22.36V36L23.09,55.57V44.07L36,39.93V17.76L23.09,13.52V2ZM44.16,20.52V37.26L69.83,29Z"/><path class="cls-1" d="M62.56,103.73q-6.44,5.66-16.93,5.66t-17.3-6A18.52,18.52,0,0,1,21.8,89,13.79,13.79,0,0,1,24,81.38a14.89,14.89,0,0,1,6.81-5.47l-7.73-2.67V66.15H86.21V77h-24Q69,81.24,69,89.66A18,18,0,0,1,62.56,103.73ZM48.21,77H42.32a10.77,10.77,0,0,0-7.73,3.4,10.23,10.23,0,0,0-2.94,7.41,9.41,9.41,0,0,0,3.82,7.5q3.82,3.13,10.07,3.13t10-3.08a9.58,9.58,0,0,0,3.73-7.68,10.35,10.35,0,0,0-3-7.64A10.82,10.82,0,0,0,48.21,77Z"/><path class="cls-1" d="M69,140.21a24.79,24.79,0,0,1-1.43,8.46,17.73,17.73,0,0,1-4.37,6.81q-6.44,6.35-17.85,6.35-11.23,0-17.66-6.35-5.89-5.71-5.89-15.27t5.89-15.46q6.35-6.35,17.66-6.35,11.5,0,17.85,6.35Q69,130.55,69,140.21ZM45.45,151q7.08,0,10.63-2.76a9.19,9.19,0,0,0,3.54-7.68,10.25,10.25,0,0,0-3.54-8.05q-3.54-3.13-10.63-3.13t-10.62,2.81a9.26,9.26,0,0,0-3.54,7.68,10.2,10.2,0,0,0,3.54,8Q38.36,151,45.45,151Z"/><path class="cls-1" d="M31.19,204.43q-8.93-4.23-8.92-13.62,0-11.87,9.29-15.64a19.82,19.82,0,0,1,7.82-1.38H67.9v10.86H40.48q-4.42,0-6.58,2.12a7,7,0,0,0-2.16,5.2,13.62,13.62,0,0,0,.87,5.2,10,10,0,0,0,2.62,3.68q4,3.4,10.58,3.59H67.9v10.86H23.09V204.43Z"/><path class="cls-1" d="M24.2,257.61q-2.39-6.07-2.39-9.57a20.37,20.37,0,0,1,.83-6.12,13.85,13.85,0,0,1,2.48-4.65Q28.89,233,35.51,233h25v-6.26h7.27V233H79.58V243.9H67.81V256H60.54V243.9H35.88q-5.52,0-5.52,5.24a22.1,22.1,0,0,0,1.47,6.9Z"/><path class="cls-1" d="M66.33,323.39q7.82-1.47,7.82-11A12.35,12.35,0,0,0,72.27,305a5.5,5.5,0,0,0-4.55-2.62,5.32,5.32,0,0,0-4.19,1.7,16.32,16.32,0,0,0-2.81,5.29l-5.06,13a26.78,26.78,0,0,1-6.49,10.21,13.94,13.94,0,0,1-9.8,3.59,15.42,15.42,0,0,1-12.83-6.07Q21.8,324,21.8,312.81q0-9.94,4.88-16.1,5.33-6.9,15.09-7.27V300.2q-7.36,0-9.29,7.64a23.2,23.2,0,0,0-.64,6.07,13.58,13.58,0,0,0,1.89,7,5.69,5.69,0,0,0,5.06,3.22,6.5,6.5,0,0,0,4.88-1.75,16.6,16.6,0,0,0,3.17-5.7l4.69-11.87a31.11,31.11,0,0,1,6.26-10.58q3.59-3.68,9.94-3.68a13.91,13.91,0,0,1,11.78,5.8q4.51,5.89,4.51,16t-4.65,15.55q-4.65,5.47-13,6.3Z"/><path class="cls-1" d="M55.66,385.35a25,25,0,0,1-7.08,1.15,41.43,41.43,0,0,1-5.8-.37V357.24a15.54,15.54,0,0,0-8.83,2.67q-3.4,2.48-3.4,7.54,0,6.71,5.89,8v10.95a16,16,0,0,1-10.58-6.16,20.3,20.3,0,0,1-4-12.79,19.4,19.4,0,0,1,6.44-14.81q6.71-6.17,17.2-6.16,10.77,0,17.3,6.16A19.48,19.48,0,0,1,69,367.46q0,9.29-6.53,14.44A20.44,20.44,0,0,1,55.66,385.35Zm4.69-17.8a9,9,0,0,0-3-7.18,13.43,13.43,0,0,0-7.68-3v19q7.27,0,9.75-4.6A9,9,0,0,0,60.35,367.55Z"/><path class="cls-1" d="M60.08,410.14Q69,414.56,69,424.31q0,8.28-5.43,12.47T49.22,441H23.09V430.11H49.22q5,0,7.5-2.39A8.8,8.8,0,0,0,59.25,421a9.21,9.21,0,0,0-3.86-7.41q-3.86-3.08-11.59-3.27H23.09V399.47H67.81v9.48Z"/><path class="cls-1" d="M24.2,482q-2.39-6.07-2.39-9.57a20.37,20.37,0,0,1,.83-6.12,13.85,13.85,0,0,1,2.48-4.65q3.77-4.23,10.4-4.23h25v-6.26h7.27v6.26H79.58v10.86H67.81v12.14H60.54V468.29H35.88q-5.52,0-5.52,5.24a22.1,22.1,0,0,0,1.47,6.9Z"/><path class="cls-1" d="M67.9,494v10.86H23.09V494Zm14.35-1.29a6.18,6.18,0,0,1,4.65,1.75,8,8,0,0,1,0,9.89,6.91,6.91,0,0,1-9.29,0,8,8,0,0,1,0-9.89A6.18,6.18,0,0,1,82.25,492.76Z"/><path class="cls-1" d="M59.34,563Q69,567.37,69,578.23q0,8-5.43,12.42-5.15,4.23-14.35,4.23H23.09V583.93H49.22q5,0,7.5-2.39a8.8,8.8,0,0,0,2.53-6.72,8.43,8.43,0,0,0-3.77-7.08Q51.71,565,44.07,564.8h-21V553.94H49.22q5,0,7.5-2.39a8.8,8.8,0,0,0,2.53-6.72,9.21,9.21,0,0,0-3.86-7.41q-3.86-3.08-11.59-3.27H23.09V523.3H67.81v9.48L60.08,534Q69,538.39,69,548.15a16,16,0,0,1-2.58,9.34A15.49,15.49,0,0,1,59.34,563Z"/><path class="cls-1" d="M55.66,645.25a25,25,0,0,1-7.08,1.15,41.43,41.43,0,0,1-5.8-.37V617.15a15.54,15.54,0,0,0-8.83,2.67q-3.4,2.48-3.4,7.54,0,6.71,5.89,8v10.95a16,16,0,0,1-10.58-6.16,20.3,20.3,0,0,1-4-12.79,19.4,19.4,0,0,1,6.44-14.81q6.71-6.17,17.2-6.16,10.77,0,17.3,6.16A19.48,19.48,0,0,1,69,627.36q0,9.29-6.53,14.44A20.44,20.44,0,0,1,55.66,645.25Zm4.69-17.8a9,9,0,0,0-3-7.18,13.43,13.43,0,0,0-7.68-3v19q7.27,0,9.75-4.6A9,9,0,0,0,60.35,627.45Z"/><path class="cls-1" d="M60.08,670Q69,674.46,69,684.22q0,8.28-5.43,12.47t-14.35,4.19H23.09V690H49.22q5,0,7.5-2.39a8.8,8.8,0,0,0,2.53-6.72,9.21,9.21,0,0,0-3.86-7.41q-3.86-3.08-11.59-3.27H23.09V659.38H67.81v9.48Z"/><path class="cls-1" d="M24.2,741.9q-2.39-6.07-2.39-9.57a20.37,20.37,0,0,1,.83-6.12,13.85,13.85,0,0,1,2.48-4.65q3.77-4.23,10.4-4.23h25v-6.26h7.27v6.26H79.58v10.86H67.81v12.14H60.54V728.19H35.88q-5.52,0-5.52,5.24a22.1,22.1,0,0,0,1.47,6.9Z"/><path class="cls-1" d="M36.71,759.1q-6.35.18-6.35,9.29a10.09,10.09,0,0,0,1.52,5.75,4.3,4.3,0,0,0,3.54,2.25A3.78,3.78,0,0,0,38.55,775a13.62,13.62,0,0,0,2-4.32l3.5-9.75q3.77-10.86,12.33-10.86a10.58,10.58,0,0,1,9.15,5.11Q69,760.3,69,768.9t-3.77,13.25A12.27,12.27,0,0,1,55.75,787V776.77a4.48,4.48,0,0,0,3.5-2.12,9.93,9.93,0,0,0,1.29-5.52,9.39,9.39,0,0,0-1.43-5.57,4,4,0,0,0-3.27-2q-3.22,0-4.78,5.43l-4,10.58a21,21,0,0,1-4.46,8,9.35,9.35,0,0,1-7,2.81q-5.52,0-9.57-5.24-4.23-5.43-4.23-14.35t3.91-14.35a13,13,0,0,1,11-5.52Z"/></svg>