<?xml version="1.0" encoding="utf-8"?>
<!-- Generator: Adobe Illustrator 21.1.0, SVG Export Plug-In . SVG Version: 6.00 Build 0)  -->
<svg version="1.1" id="Layer_1" xmlns="http://www.w3.org/2000/svg" xmlns:xlink="http://www.w3.org/1999/xlink" x="0px" y="0px"
	 viewBox="0 0 98.9 798.3" style="enable-background:new 0 0 98.9 798.3;" xml:space="preserve">
<style type="text/css">
	.st0{fill:#1414EF;}
</style>
<title>tab</title>
<g>
	<path class="st0" d="M77.9,45.1c-3.3,3.8-8,5.7-14.1,5.7c-6.1,0-10.8-1.9-14.1-5.6c-3.3-3.8-4.9-9-4.9-15.8l0-10.1l-21.7,0l0-10.9
		l59.6,0l0,21C82.8,36.1,81.1,41.3,77.9,45.1z M54.3,29.3c0,3.4,0.9,5.9,2.7,7.6c1.8,1.7,4.1,2.6,6.8,2.6c2.8,0,5.1-0.9,6.9-2.6
		c1.8-1.7,2.7-4.3,2.7-7.6l0-10.1l-19.1,0L54.3,29.3z"/>
	<path class="st0" d="M59,72.8c6.4,2.7,9.6,6.7,9.6,12.1c0,1-0.2,2.4-0.6,4l-10.8-0.2c0.4-1.7,0.6-3.4,0.6-5.1c0-7.2-5-10.8-15-10.8
		l-19.6,0l0-10.8l44.7,0l0,10.8L59,72.8z"/>
	<path class="st0" d="M69,117.7c0,3-0.5,5.8-1.4,8.5c-1,2.6-2.4,4.9-4.4,6.8c-4.3,4.2-10.2,6.3-17.8,6.3c-7.5,0-13.3-2.1-17.6-6.3
		c-3.9-3.8-5.9-8.9-5.9-15.3c0-6.4,2-11.5,5.9-15.4c4.2-4.2,10.1-6.3,17.6-6.3c7.7,0,13.6,2.1,17.8,6.3
		C67.1,106.1,69,111.3,69,117.7z M45.5,128.5c4.7,0,8.3-0.9,10.6-2.8c2.4-1.8,3.5-4.4,3.5-7.7c0-3.3-1.2-6-3.5-8
		c-2.4-2.1-5.9-3.1-10.6-3.1s-8.3,0.9-10.6,2.8c-2.4,1.9-3.5,4.4-3.5,7.7c0,3.2,1.2,5.9,3.5,8C37.2,127.4,40.8,128.5,45.5,128.5z"/>
	<path class="st0" d="M41.5,156c3.1-3.6,6.9-5.4,11.5-5.4c4.8,0,8.8,1.9,11.8,5.7c2.9,3.7,4.3,7.9,4.3,12.6c0,4.7-0.9,8.7-2.7,11.9
		c3.5,0.4,6.3,1.9,8.5,4.5c2.1,2.6,3.2,5.6,3.2,9.1l-10.4-0.5c0-5.3-1.7-8-5.2-8.2c-2.8,2.3-5.7,3.4-8.6,3.4c-2.9,0-5.4-0.5-7.4-1.6
		c-2-1-3.7-2.4-5-4.2c-2.9-3.7-4.4-8.1-4.4-13.4c0-3,0.5-5.7,1.4-8.2c-0.7-2.5-2.2-3.7-4.4-3.7c-2.8,0-4.1,2.3-4.1,7l0,15
		c0,10.2-3.6,15.3-10.7,15.3c-2.4,0-4.7-0.6-7-1.8c-2.3-1.2-4.3-2.9-6.1-5.2c-3.9-5-5.9-11.3-5.9-18.9c0-7.3,1.5-13.3,4.5-17.9
		c2.9-4.3,6.4-6.4,10.6-6.4c2.8,0,5,0.8,6.6,2.5c1.6,1.7,2.6,3.9,3.1,6.7c2.2-3.6,4.9-5.4,8.2-5.4c2.1,0,3.9,0.7,5.4,2
		C39.8,152.1,40.8,153.9,41.5,156z M22.2,164.3c-0.2-5.8-2.4-8.6-6.5-8.6c-2.1,0-3.8,1.2-5,3.6c-1.3,2.4-1.9,5.3-1.9,8.6
		c0,3.3,0.3,5.9,0.8,7.8c0.5,1.9,1.3,3.4,2.2,4.7c1.8,2.8,4,4.1,6.6,4.1c1.1,0,2-0.4,2.7-1.1c0.7-0.8,1.1-1.9,1.1-3.4L22.2,164.3z
		 M53.1,178.3c2.5,0,4.5-0.7,6.1-2.1c1.6-1.4,2.3-3.5,2.3-6.3c0-2.8-0.8-5-2.3-6.4c-1.6-1.5-3.6-2.2-6.1-2.2c-2.5,0-4.5,0.7-6.1,2.2
		c-1.6,1.5-2.4,3.6-2.4,6.4c0,2.8,0.8,4.9,2.4,6.3C48.6,177.7,50.6,178.3,53.1,178.3z"/>
	<path class="st0" d="M59,216.5c6.4,2.7,9.6,6.7,9.6,12.1c0,1-0.2,2.4-0.6,4l-10.8-0.2c0.4-1.7,0.5-3.4,0.6-5.1
		c0-7.2-5-10.8-15-10.8l-19.6,0l0-10.8l44.7,0l0,10.8L59,216.5z"/>
	<path class="st0" d="M49.3,258.5c0,3.6-0.6,7.7-1.7,12.3l4.4,0c3.1,0,5.4-0.6,6.9-1.9c1.5-1.3,2.2-3.3,2.3-6.2c0-2.8-0.6-5-1.7-6.6
		c-1.1-1.5-2.7-2.3-4.8-2.3l0-11.9c5.1,0,8.8,1.8,11,5.4c2.3,3.6,3.4,8.6,3.4,15c0,9.2-3.2,15.1-9.6,17.8c-2.2,0.9-4.8,1.4-7.8,1.4
		l-28.4,0l0-9.5l6-0.8c-4.8-2.9-7.3-7.3-7.3-13.2c0-5.8,1.4-10.2,4.2-13.4c2.7-2.9,6.1-4.4,10.2-4.4c4.1,0,7.3,1.6,9.6,4.9
		C48.2,248.5,49.3,252.9,49.3,258.5z M40.6,270.9c1-3.6,1.5-7,1.5-10.1c0-5.9-2-8.8-5.9-8.8c-1.7,0-3.1,0.7-4.3,2
		c-1.2,1.3-1.8,3.5-1.8,6.5c0,3,1,5.4,3,7.4C35.1,269.7,37.6,270.7,40.6,270.9z"/>
	<path class="st0" d="M59.4,337.2c6.4,2.9,9.7,7.9,9.7,15.2c0,5.3-1.8,9.5-5.4,12.4c-3.4,2.8-8.2,4.2-14.3,4.2l-26.1,0l0-10.9
		l26.1,0c3.3,0,5.8-0.8,7.5-2.4c1.7-1.6,2.5-3.8,2.5-6.7c0-2.9-1.3-5.2-3.8-7.1c-2.5-1.8-6.3-2.8-11.4-2.9l-20.9,0l0-10.8l26.1,0
		c3.3,0,5.8-0.8,7.5-2.4c1.7-1.6,2.5-3.8,2.5-6.7c0-2.9-1.3-5.3-3.9-7.4c-2.6-2.1-6.4-3.1-11.6-3.3l-20.7,0l0-10.8l44.6,0l0,9.5
		l-7.7,1.2c5.9,2.9,8.9,7.7,8.9,14.1c0,3.7-0.9,6.8-2.6,9.3C64.7,334.1,62.4,336,59.4,337.2z"/>
	<path class="st0" d="M36.8,390.8c-4.2,0.1-6.3,3.2-6.3,9.3c0,2.3,0.5,4.2,1.5,5.7c1,1.5,2.2,2.3,3.5,2.2c1.3,0,2.4-0.5,3.1-1.4
		c0.7-0.9,1.4-2.4,2-4.3l3.5-9.7c2.5-7.2,6.6-10.8,12.3-10.8c3.8,0,6.8,1.7,9.1,5.1c2.3,3.4,3.4,8,3.4,13.7c0,5.7-1.3,10.1-3.8,13.2
		s-5.7,4.7-9.5,4.8l0-10.2c1.5-0.1,2.6-0.8,3.5-2.1c0.9-1.3,1.3-3.1,1.3-5.5c0-2.4-0.5-4.2-1.4-5.6c-1-1.3-2-2-3.3-2
		c-2.1,0-3.7,1.8-4.8,5.4l-3.9,10.6c-1.2,3.5-2.7,6.2-4.5,8c-1.8,1.9-4.1,2.8-7,2.8c-3.7,0-6.9-1.7-9.6-5.2
		c-2.8-3.6-4.2-8.4-4.2-14.3c0-5.9,1.3-10.7,3.9-14.3c2.6-3.6,6.3-5.5,11-5.5L36.8,390.8z"/>
	<path class="st0" d="M54.8,518c-7.7-2.7-14-6.1-19-10.1l-1.4,1.6c-1,1.1-1.7,2.1-2.2,3.1c-0.5,1-0.7,2.2-0.7,3.6
		c0,1.4,0.5,2.7,1.6,3.7c1.1,1,2.8,1.6,5.2,1.7l0,9.8c-5-0.1-9-1.4-11.9-3.7c-2.9-2.4-4.4-5.9-4.4-10.5c0-2.9,0.6-5.7,1.7-8.1
		c1.2-2.5,3-5.1,5.5-7.9c-4.8-6.1-7.3-12.9-7.3-20.4c0-6.9,1.7-12.7,5.2-17.5c3.5-4.8,7.9-7.2,13-7.2c8,0,12.8,5.6,14.6,16.8
		l1.4-1.5c4-4.4,8.4-6.6,13.1-6.6c4.2,0,7.7,1.7,10.3,5.2c2.8,3.7,4.2,8.7,4.2,14.9c0,5.9-1.4,10.8-4.2,14.5
		c-2.6,3.4-5.9,5.1-9.9,5.1c-4,0-7.3-1.3-10.1-3.8c-2.7-2.5-5.1-6.4-7-11.6L42,501c4.5,3.7,10.1,6.9,16.8,9.6L54.8,518z M49.3,479.2
		c-1-7.3-3.9-11-8.5-11c-2.6,0-4.7,1.1-6.5,3.4c-1.7,2.2-2.6,5.4-2.6,9.4c0,4.7,1.3,9,4,13.1L49.3,479.2z M62.5,490.6
		c1.6,1.5,3.4,2.3,5.4,2.2c2,0,3.6-0.7,4.8-2.1c1.2-1.4,1.8-3.4,1.8-5.9c0-2.5-0.7-4.5-2-5.8c-1.3-1.4-2.9-2.1-4.7-2.1
		c-2.7,0-5.3,1.4-7.8,4.3l-1.9,2.1C59.4,486.7,60.9,489.1,62.5,490.6z"/>
	<path class="st0" d="M77.9,604.8c-3.3,3.8-8,5.7-14.1,5.7c-6.1,0-10.8-1.9-14.1-5.6c-3.3-3.8-4.9-9-4.9-15.8l0-10.1l-21.7,0l0-10.9
		l59.6,0l0,21C82.8,595.7,81.2,601,77.9,604.8z M54.4,589c0,3.4,0.9,5.9,2.7,7.6c1.8,1.7,4.1,2.6,6.8,2.6c2.8,0,5.1-0.9,6.9-2.6
		c1.8-1.7,2.7-4.3,2.7-7.6l0-10.1l-19.1,0L54.4,589z"/>
	<path class="st0" d="M59,632.5c6.4,2.7,9.6,6.7,9.6,12.1c0,1-0.2,2.4-0.6,4l-10.8-0.2c0.4-1.7,0.5-3.4,0.6-5.1
		c0-7.2-5-10.8-15-10.8l-19.6,0l0-10.8l44.7,0l0,10.8L59,632.5z"/>
	<path class="st0" d="M55.7,694.4c-2.6,0.8-4.9,1.1-7.1,1.2c-2.1,0-4.1-0.1-5.8-0.4l0-28.8c-3.6,0.1-6.6,1-8.8,2.7
		c-2.3,1.7-3.4,4.2-3.4,7.5c0,4.5,2,7.1,5.9,8l0,10.9c-4.5-0.7-8-2.8-10.6-6.2c-2.7-3.5-4-7.7-4-12.8c0-5.9,2.1-10.8,6.4-14.8
		c4.5-4.1,10.2-6.2,17.2-6.2c7.2,0,12.9,2,17.3,6.2c4.2,3.9,6.2,8.8,6.2,14.8c0,6.2-2.2,11-6.5,14.4
		C60.6,692.5,58.3,693.7,55.7,694.4z M60.4,676.7c0-3.1-1-5.5-3-7.2c-2-1.7-4.5-2.7-7.7-3l0,19c4.8,0,8.1-1.5,9.7-4.6
		C60.1,679.7,60.4,678.3,60.4,676.7z"/>
	<path class="st0" d="M36.8,714.6c-4.2,0.1-6.3,3.2-6.3,9.3c0,2.3,0.5,4.2,1.5,5.7c1,1.5,2.2,2.3,3.5,2.2c1.3,0,2.4-0.5,3.1-1.4
		c0.7-0.9,1.4-2.4,2-4.3l3.5-9.7c2.5-7.2,6.6-10.8,12.3-10.8c3.8,0,6.8,1.7,9.1,5.1c2.3,3.4,3.4,8,3.4,13.7c0,5.7-1.3,10.1-3.8,13.2
		c-2.5,3.1-5.7,4.7-9.5,4.8l0-10.2c1.5-0.1,2.6-0.8,3.5-2.1c0.9-1.3,1.3-3.1,1.3-5.5c0-2.4-0.5-4.2-1.4-5.6c-0.9-1.3-2-2-3.3-2
		c-2.1,0-3.7,1.8-4.8,5.4l-3.9,10.6c-1.2,3.5-2.7,6.2-4.5,8c-1.8,1.9-4.2,2.8-7,2.8c-3.7,0-6.9-1.7-9.6-5.2
		c-2.8-3.6-4.2-8.4-4.2-14.3c0-5.9,1.3-10.7,3.9-14.3c2.6-3.6,6.3-5.5,11-5.5L36.8,714.6z"/>
	<path class="st0" d="M36.8,763c-4.2,0.1-6.3,3.2-6.3,9.3c0,2.3,0.5,4.2,1.5,5.7c1,1.5,2.2,2.3,3.5,2.2c1.3,0,2.4-0.5,3.1-1.4
		c0.7-0.9,1.4-2.4,2-4.3l3.5-9.7c2.5-7.2,6.6-10.8,12.3-10.8c3.8,0,6.8,1.7,9.1,5.1c2.3,3.4,3.4,8,3.4,13.7c0,5.7-1.3,10.1-3.8,13.2
		c-2.5,3.1-5.7,4.7-9.5,4.8l0-10.2c1.5-0.1,2.6-0.8,3.5-2.1c0.9-1.3,1.3-3.1,1.3-5.5c0-2.4-0.5-4.2-1.4-5.6c-0.9-1.3-2-2-3.3-2
		c-2.1,0-3.7,1.8-4.8,5.4l-3.9,10.6c-1.2,3.5-2.7,6.2-4.5,8c-1.8,1.9-4.2,2.8-7,2.8c-3.7,0-6.9-1.7-9.6-5.2
		c-2.8-3.6-4.2-8.4-4.2-14.3c0-5.9,1.3-10.7,3.9-14.3c2.6-3.6,6.3-5.5,11-5.5L36.8,763z"/>
</g>
</svg>
