<svg id="Layer_1" data-name="Layer 1" xmlns="http://www.w3.org/2000/svg" viewBox="0 0 860.67 356.72"><defs><style>.cls-1{fill:#fff;stroke:#4d05ae;stroke-miterlimit:10;stroke-width:1.75px;}.cls-2{fill:#fd8fff;}</style></defs><title>title-1</title><path class="cls-1" d="M5.86,122.51q.67-13.8,12.72-22.72a40.25,40.25,0,0,1,26.59-8.21,64.71,64.71,0,0,1,9,1q3.84.74,10.65,2.82t9.37,2.76A164.27,164.27,0,0,1,75,126.59a2,2,0,0,1-2.29,1.55q-5-.24-5.26-1.91-.7-8.52-7.11-16.94t-16.17-8.9Q35.72,100,31,104.54T25.85,117.2a20.75,20.75,0,0,0,.39,5.28,13,13,0,0,0,2.34,5q1.82,2.49,2.94,4.11a21.9,21.9,0,0,0,4.41,4.18q3.29,2.56,4.44,3.54t5.35,3.86a56.15,56.15,0,0,0,5.1,3.29,67.64,67.64,0,0,0,6,4.25q4.91,3.28,6.87,4.76a73.38,73.38,0,0,1,5.66,5A26.58,26.58,0,0,1,74.63,167a37.83,37.83,0,0,1,2.86,7.61,31,31,0,0,1,1,9.73q-.7,14.66-13,23.66a42.61,42.61,0,0,1-28,8.24q-11-.53-33.61-6.79a160.78,160.78,0,0,1-2.23-16.8,124.89,124.89,0,0,1-.72-13.2q.25-1.46,3-1.33,4.78.23,5.27,1.73a35.84,35.84,0,0,0,2.22,7.39A53.53,53.53,0,0,0,16,195.95a24.23,24.23,0,0,0,8.29,7.78,25.89,25.89,0,0,0,12.1,3.45A20.63,20.63,0,0,0,51,202.71q6-4.87,6.45-15.18a16,16,0,0,0-.9-6.13A21.3,21.3,0,0,0,54,176.3a26.92,26.92,0,0,0-4.39-4.64q-2.92-2.54-4.88-3.92T39,163.86q-3.85-2.49-5.46-3.49a12.62,12.62,0,0,0-2-1.57q-5.18-3.57-7.85-5.54a89.13,89.13,0,0,1-6.82-5.77,36.49,36.49,0,0,1-6.21-7,34.88,34.88,0,0,1-3.58-7.92A27.73,27.73,0,0,1,5.86,122.51Z"/><path class="cls-1" d="M128.36,137.28a34.17,34.17,0,0,1,15.29,4.15,29.19,29.19,0,0,1,10.26,9.16,42.88,42.88,0,0,1,5.36,11.14,31.78,31.78,0,0,1,1.5,10.86q-.2,4-1.62,5t-5.66.74l-44-2.13q-1.29-.06-1.34,1a35.8,35.8,0,0,0,1.77,13,25.34,25.34,0,0,0,7.66,11.25,21.67,21.67,0,0,0,13.67,5.27,50,50,0,0,0,5.35,0,27.46,27.46,0,0,0,4.83-.69q2.24-.53,3.92-1a15.83,15.83,0,0,0,3.48-1.49l2.56-1.45q.76-.42,3.8-2.31a3,3,0,0,1,.87,1.15,3.56,3.56,0,0,1,.46,1.87,5.67,5.67,0,0,1-1.27,3.44q-3,4.84-11.34,9.41a34.18,34.18,0,0,1-18.46,4.09q-16-.77-27-13.2a39.73,39.73,0,0,1-10.2-29.36q.9-18.59,12.22-29.66T128.36,137.28Zm-1.7,8.4a13,13,0,0,0-8,2.19,17.38,17.38,0,0,0-5.64,6,35.22,35.22,0,0,0-3,6.77,22.53,22.53,0,0,0-1.09,5.39q-.06,1.29,1,1.34l29.81,1.44q1.66.08,1.79-2.68a23.88,23.88,0,0,0-3.69-13.27Q133.84,146,126.66,145.68Z"/><path class="cls-1" d="M231,142.24q23.74,1.15,21.92,38.87l-.84,17.48q-.54,11.23.49,16.62.3,1.31,4.93,2.91a28.27,28.27,0,0,0,6.28,1.69c.37,0,.54.92.52,2.7a10.45,10.45,0,0,1-.45,3.57q-1.09-.24-9.63-1.2t-12.76-1.17q-4.42-.21-12.26,0t-9.51.28q-.7-.77-.57-3.53t.87-2.72a22,22,0,0,0,6.23-1.08q4.21-1.18,4.64-2.45a53,53,0,0,0,2.14-13.4l.84-17.48q.74-15.27-3.11-21.55t-12.86-6.71a17,17,0,0,0-10.46,2.72q-4.57,3-4.75,6.69l-1.53,31.65q-.54,11.23.49,16.63.3,1.31,4.75,2.9a26.57,26.57,0,0,0,5.91,1.67c.49,0,.72.93.7,2.71a10.45,10.45,0,0,1-.45,3.57q-1.47-.25-9.62-1.2t-12.4-1.15q-4.42-.21-12.81-.07t-9.88.26q-.7-.77-.57-3.53t.87-2.72a25.79,25.79,0,0,0,6.78-1.05q4.57-1.16,5-2.43a60.25,60.25,0,0,0,1.94-13.37l1.45-30q.42-8.65-2.37-11.92a8.88,8.88,0,0,0-4-3,21,21,0,0,0-4.36-1.32c-1.16-.18-1.73-.39-1.72-.64q.26-5.34,1.19-5.48,8.5-.33,29.89-4.09a1.18,1.18,0,0,1,.47-.25,1.79,1.79,0,0,1,.56-.07h.46c.49,0,.9.47,1.23,1.35a5.6,5.6,0,0,1,.45,2.05,62.87,62.87,0,0,0-1.06,6.59,1.44,1.44,0,0,0,.14.93,2.73,2.73,0,0,0,.95-.51,40.85,40.85,0,0,1,11.69-7.18A32.25,32.25,0,0,1,231,142.24Z"/><path class="cls-1" d="M288.38,157.92l-11.23-.54q-1.29-.06-1.06-4.85a4.54,4.54,0,0,1,.26-1.65A51.54,51.54,0,0,0,291,141.82q2.5-2.27,5.51-5.17t7.09-7.5a13.08,13.08,0,0,1,3.47.63q1.63.54,1.61,1.09l-.87,18q4.78.23,13.34.74l9.1.53q1.47.07,1.39,1.73a17.88,17.88,0,0,1-2.23,8l-22.08-1.07-2.14,44.35q-.36,7.36,2.59,11.38a10.53,10.53,0,0,0,8.46,4.28,17.42,17.42,0,0,0,3.89-.27,19.63,19.63,0,0,0,3.36-.85c.87-.33,1.69-.66,2.45-1a5.77,5.77,0,0,1,1.31-.49q.74-.15,1.58,1.74a4.3,4.3,0,0,1,.62,2.43q-1.23,2.53-8.11,5.6A29,29,0,0,1,308,228.78a23.24,23.24,0,0,1-16-7q-6.42-6.49-5.8-19.37Z"/><path class="cls-1" d="M372.82,204.43q-.54,11.23.67,16.63.3,1.31,4.84,2.91a27.16,27.16,0,0,0,6.19,1.68c.49,0,.72.93.7,2.71a10.45,10.45,0,0,1-.45,3.57q-1.28-.25-9.81-1.21t-12.58-1.16q-4.6-.22-13-.08t-9.7.27q-.7-.77-.57-3.53t.87-2.73a26.73,26.73,0,0,0,6.69-1.06q4.66-1.16,5.1-2.43a60.26,60.26,0,0,0,1.94-13.37l1.45-30q.42-8.65-2.37-11.92a10.22,10.22,0,0,0-4.1-3,19.39,19.39,0,0,0-4.36-1.32c-1.22-.18-1.83-.39-1.81-.64q.26-5.34,1.37-5.47a141.2,141.2,0,0,0,15-1.49,144.21,144.21,0,0,0,14.7-2.61,10.84,10.84,0,0,0,1.49-.3q.92,0,1.41,1.36a3.39,3.39,0,0,1,.27,2A158,158,0,0,0,374.52,169ZM357.4,126.5a11.41,11.41,0,0,1,8.92-19h.16a11.32,11.32,0,0,1,10.86,11.76v.11a11.23,11.23,0,0,1-3.7,7.94,11.35,11.35,0,0,1-16-.61l-.15-.17Z"/><path class="cls-1" d="M458.12,153.22a19.91,19.91,0,0,1,11.79,4.17,21.55,21.55,0,0,1,6.91,9.65,43.4,43.4,0,0,1,13.88-8.55,41.35,41.35,0,0,1,17.48-2.84,20.9,20.9,0,0,1,11.17,3.49,20.33,20.33,0,0,1,7,8.54,43.34,43.34,0,0,1,3.31,11.6,70.19,70.19,0,0,1,.55,13.4l-1,19.32q-.54,11.23.49,16.63.3,1.31,4.84,2.91a27.15,27.15,0,0,0,6.19,1.68c.37,0,.54.92.52,2.7a10.46,10.46,0,0,1-.45,3.58q-1.28-.25-9.63-1.2t-12.58-1.16q-4.42-.21-12.63-.06t-9.88.26q-.52-.76-.38-3.52t.69-2.73A24.78,24.78,0,0,0,503.1,230q4.48-1.17,4.91-2.44a57.32,57.32,0,0,0,1.91-12.82l.91-18.77q1.29-26.68-15.82-27.51a16.78,16.78,0,0,0-10.26,2.46q-4.19,2.75-5.06,5.47a11.31,11.31,0,0,1-.16,1.47,3.59,3.59,0,0,0,0,1.48,90,90,0,0,1,0,11.44l-.94,19.51q-.51,10.49.52,15.89.3,1.31,4.84,2.91a27.13,27.13,0,0,0,6.19,1.68c.37,0,.54.92.52,2.7a10.46,10.46,0,0,1-.45,3.57q-1.28-.25-9.63-1.2T468,234.67q-4.42-.21-12.63-.06t-9.88.26q-.52-.76-.38-3.52t.69-2.73a24.79,24.79,0,0,0,6.69-1.06q4.48-1.17,4.91-2.44a60.25,60.25,0,0,0,1.94-13.37l.85-17.67q.69-14.35-3.23-21t-12.2-7a17.64,17.64,0,0,0-10.27,2.64q-4.75,2.91-4.94,6.77L428,207.1q-.54,11.23.67,16.63.3,1.31,4.66,2.9a25.07,25.07,0,0,0,6,1.67c.49,0,.72.93.7,2.71a10.45,10.45,0,0,1-.45,3.57q-1.47-.26-9.62-1.2t-12.4-1.15q-4.6-.22-12.91-.07t-9.79.26q-.7-.77-.57-3.53t.87-2.73a26.73,26.73,0,0,0,6.69-1.06q4.66-1.16,5.1-2.43a60.26,60.26,0,0,0,1.94-13.37l1.45-30q.42-8.65-2.37-11.92a8.87,8.87,0,0,0-4-3,20.81,20.81,0,0,0-4.46-1.32c-1.22-.18-1.83-.39-1.81-.64q.26-5.34,1.37-5.47,8.5-.32,29.71-4.1a1.18,1.18,0,0,1,.57-.25,4,4,0,0,1,.92,0q.92,0,1.41,1.36a3.39,3.39,0,0,1,.27,2,62.78,62.78,0,0,0-1.06,6.59c0,.49.08.8.32.94a2.73,2.73,0,0,0,1-.51,40.83,40.83,0,0,1,11.69-7.18A32.25,32.25,0,0,1,458.12,153.22Z"/><path class="cls-1" d="M591,159.64a34.15,34.15,0,0,1,15.29,4.15A29.16,29.16,0,0,1,616.53,173a42.87,42.87,0,0,1,5.36,11.14,31.77,31.77,0,0,1,1.5,10.86q-.2,4-1.62,5t-5.66.74l-44-2.12q-1.29-.06-1.34,1a35.78,35.78,0,0,0,1.77,13,25.34,25.34,0,0,0,7.66,11.25,21.67,21.67,0,0,0,13.67,5.27,50,50,0,0,0,5.35,0,27.46,27.46,0,0,0,4.83-.69q2.24-.53,3.92-1a15.83,15.83,0,0,0,3.48-1.49l2.56-1.45q.76-.42,3.8-2.31a3,3,0,0,1,.87,1.15,3.57,3.57,0,0,1,.46,1.87,5.66,5.66,0,0,1-1.27,3.44q-3,4.84-11.34,9.41a34.17,34.17,0,0,1-18.46,4.09q-16-.77-27-13.2a39.73,39.73,0,0,1-10.2-29.36q.9-18.59,12.22-29.66T591,159.64Zm-1.7,8.4a13,13,0,0,0-8,2.19,17.38,17.38,0,0,0-5.64,6,35.19,35.19,0,0,0-3,6.77,22.53,22.53,0,0,0-1.09,5.39q-.06,1.29,1,1.34l29.81,1.44q1.66.08,1.79-2.68a23.89,23.89,0,0,0-3.69-13.27q-4-6.83-11.2-7.22Z"/><path class="cls-1" d="M693.66,164.6q23.74,1.15,21.92,38.87L714.73,221q-.54,11.23.49,16.63.3,1.31,4.93,2.91a28.23,28.23,0,0,0,6.28,1.69c.37,0,.54.92.52,2.7a10.45,10.45,0,0,1-.45,3.57q-1.09-.24-9.63-1.2t-12.76-1.17q-4.42-.21-12.26,0t-9.51.28q-.7-.77-.57-3.53t.87-2.72a22,22,0,0,0,6.23-1.08q4.21-1.18,4.64-2.45a53,53,0,0,0,2.12-13.36l.84-17.48q.74-15.27-3.11-21.55t-12.86-6.71a17,17,0,0,0-10.5,2.62q-4.57,3-4.75,6.69l-1.53,31.65q-.54,11.23.49,16.63.3,1.31,4.75,2.9a26.51,26.51,0,0,0,5.91,1.67q.73,0,.7,2.71a10.46,10.46,0,0,1-.45,3.58q-1.47-.26-9.62-1.2t-12.4-1.15q-4.42-.21-12.82-.07t-9.88.26q-.7-.77-.57-3.53t.87-2.72a25.75,25.75,0,0,0,6.78-1.05q4.57-1.16,5-2.43a60.25,60.25,0,0,0,1.94-13.37l1.45-30q.42-8.65-2.37-11.92a8.87,8.87,0,0,0-4-3,21.05,21.05,0,0,0-4.36-1.32c-1.16-.18-1.73-.39-1.72-.64q.26-5.34,1.19-5.48,8.5-.33,29.89-4.09a1.18,1.18,0,0,1,.5-.27,1.79,1.79,0,0,1,.56-.07H666c.49,0,.9.48,1.23,1.35a5.6,5.6,0,0,1,.45,2.05,62.75,62.75,0,0,0-1.06,6.59,1.44,1.44,0,0,0,.14.93,2.73,2.73,0,0,0,1-.51,40.85,40.85,0,0,1,11.69-7.18A32.25,32.25,0,0,1,693.66,164.6Z"/><path class="cls-1" d="M751,180.28l-11.23-.54q-1.29-.06-1.06-4.85a4.54,4.54,0,0,1,.26-1.65,51.56,51.56,0,0,0,14.64-9.07q2.5-2.27,5.51-5.17t7.09-7.5a13,13,0,0,1,3.47.63q1.63.54,1.61,1.09l-.87,18q4.78.23,13.34.74l9.1.53q1.47.07,1.39,1.73a17.89,17.89,0,0,1-2.23,8l-22-1-2.14,44.35q-.36,7.36,2.59,11.38a10.53,10.53,0,0,0,8.46,4.28,17.49,17.49,0,0,0,3.89-.27,19.64,19.64,0,0,0,3.36-.85c.87-.33,1.69-.66,2.45-1a5.88,5.88,0,0,1,1.31-.49q.74-.15,1.58,1.74a4.3,4.3,0,0,1,.62,2.43q-1.23,2.53-8.11,5.6a29,29,0,0,1-13.32,2.77,23.24,23.24,0,0,1-16-7q-6.42-6.49-5.8-19.37Z"/><path class="cls-1" d="M835.36,171.26a78.28,78.28,0,0,1,21.2,4.16,104.62,104.62,0,0,1,1,20.71q-.07,1.48-2.46,1.36-4-.19-4.34-1.69a22.34,22.34,0,0,0-4.9-11.21q-3.92-4.71-10.92-5-5.34-.26-8.49,2a8.17,8.17,0,0,0-3.37,6.66,10.73,10.73,0,0,0,.79,4.74,11.48,11.48,0,0,0,3.12,4.12,45.49,45.49,0,0,0,3.91,3.14q1.69,1.19,5.1,3.2a12,12,0,0,0,1.8,1l2.69,1.61,3,1.8,2.86,1.89a33.21,33.21,0,0,1,3.12,2.27q.88.78,2.75,2.34a14.6,14.6,0,0,1,2.64,2.71q.77,1.14,2.07,3a11.84,11.84,0,0,1,1.77,3.4,34.75,34.75,0,0,1,.84,3.55,17.12,17.12,0,0,1,.27,4q-.56,11.59-9.81,17.88t-22,5.56a61.54,61.54,0,0,1-23.49-6.3,73.73,73.73,0,0,1-1.35-10.3,90,90,0,0,1-.41-10.62,3.91,3.91,0,0,1,2.62-.8q4.23.21,4.35,1.69a20.34,20.34,0,0,0,6.67,12.77,19.65,19.65,0,0,0,12.38,5.3,13.39,13.39,0,0,0,8.59-2.17q3.44-2.41,3.68-7.38a12.1,12.1,0,0,0-.3-3.43,9,9,0,0,0-1.6-3.21l-2-2.68a13.4,13.4,0,0,0-3.19-2.64q-2.41-1.59-3.58-2.29t-4.48-2.61q-3.32-1.91-4.57-2.71a42.81,42.81,0,0,1-12.59-10.47,19.68,19.68,0,0,1-4-13.38q.54-11.22,9.67-16.87A35.53,35.53,0,0,1,835.36,171.26Z"/><path class="cls-2" d="M10.65,284.33q2-.23,7-1t7.6-1q.33,1.34,1.15,3.71l.89,2.59a1.41,1.41,0,0,1-.93.33.61.61,0,0,1-.67-.25,5.73,5.73,0,0,0-6.26-3.38l-2.36.27q-3.36.38-3.38,1a18.88,18.88,0,0,0,.14,3.7l.8,7.12q0,.27,2,0l2.36-.27h.18a11.59,11.59,0,0,0,3.1-.58q.47-.28.59-1.67a7,7,0,0,1,.14-1.17c0-.32.24-.35.69-.4a1.24,1.24,0,0,1,.89.13l1,8.57a1.34,1.34,0,0,1-.84.28q-.59.07-.77-.28a14.31,14.31,0,0,0-.77-1.75,2.65,2.65,0,0,0-.39-.6l-.42-.23q-.63-.3-4.21.11-3.27.37-3.22.73l.79,7A12.19,12.19,0,0,0,16.6,311q.29.56,3.15.24l1.68-.19a12.24,12.24,0,0,0,5.29-1.56,5.26,5.26,0,0,0,1.45-1.77,9.62,9.62,0,0,0,1.09-2.92c0-.19.21-.3.6-.34a2,2,0,0,1,1.3.13q-.09.42-.45,1.93l-.55,2.29q-.19.78-.38,1.9a12.66,12.66,0,0,0-.21,1.81q-1.81.21-7.52.71t-8,.86l-6,.86a1.21,1.21,0,0,1-.22-.71,2.7,2.7,0,0,1,0-.79A7.51,7.51,0,0,0,9.56,313c.73-.28,1.15-.57,1.24-.85a16.57,16.57,0,0,0-.15-4.16L8.72,290.8A14.44,14.44,0,0,0,8,287.11q-.19-.48-1.36-.67a7.16,7.16,0,0,0-1.85-.11c-.12,0-.21-.21-.26-.66a1.24,1.24,0,0,1,.09-.84Q7.61,284.68,10.65,284.33Z"/><path class="cls-2" d="M32.44,292.67a1.29,1.29,0,0,1,.1-.75q5-.29,5.38-.33t5.41-.88a1.57,1.57,0,0,1,.16.62c.06.54,0,.82-.09.84a3.48,3.48,0,0,0-1.24.39q-.61.32-.56.77a1,1,0,0,0,.29.52l3.31,3.71,1-1.82,1.12-2a2.26,2.26,0,0,0,.31-1.09.6.6,0,0,0-.44-.48,2.26,2.26,0,0,0-.84-.16h-.91a1.46,1.46,0,0,1-.53,0c-.12,0-.21-.22-.26-.71a1,1,0,0,1,.1-.75l5.29-.32q.29,0,4.69-.8a2.67,2.67,0,0,1,.17.71q.08.73,0,.74-3,.71-3.83,1.9L46.9,298.9a.8.8,0,0,0,0,.37.62.62,0,0,0,.23.43L53,306.19a5.3,5.3,0,0,0,4,1.8c.09,0,.17.24.22.76a1.22,1.22,0,0,1-.1.7H55.45q-1,0-1.78.06l-1.71.15q-1,.11-1.85.25t-1.91.35l-1.82.34a4,4,0,0,1-.16-.58q-.11-1,0-1a3.12,3.12,0,0,0,1.28-.47q.64-.39.59-.85a.71.71,0,0,0-.12-.26l-3.78-4.17-2.41,4.31a1.34,1.34,0,0,0-.23.85.67.67,0,0,0,.21.44,1.14,1.14,0,0,0,.55.23,5.31,5.31,0,0,0,.63.09h1.4q.14,0,.22.75a1.15,1.15,0,0,1-.09.79H42.84q-.94,0-1.72.06l-1.64.14q-.86.1-1.63.23t-1.71.33l-1.62.32a3.16,3.16,0,0,1-.18-.76c-.06-.51,0-.78.09-.79q2.9-.79,3.75-2.17l4.19-6.44a.81.81,0,0,0,0-.37.56.56,0,0,0-.17-.3l-6-6.49a3.84,3.84,0,0,0-1.72-1,4.83,4.83,0,0,0-1.91-.27C32.59,293.43,32.5,293.18,32.44,292.67Z"/><path class="cls-2" d="M70.17,287.54a9.24,9.24,0,0,1,5.34.91A9.55,9.55,0,0,1,80.86,296a10.68,10.68,0,0,1-9.21,12l-.23,0a10.59,10.59,0,0,1-3.29-.27q-.18,0-.11.65l.35,3.08a16.43,16.43,0,0,0,.82,4q.08.36,1.28.57a7,7,0,0,0,1.6.16q.14,0,.23.64a4.12,4.12,0,0,1,.07.84q-.32,0-2.44.14l-3.12.21q-1.13.13-3.18.5t-2.41.41a1.64,1.64,0,0,1-.23-.82q-.07-.66.06-.67a6.35,6.35,0,0,0,1.62-.53q1.07-.46,1.17-.84a16.55,16.55,0,0,0-.1-3.3l-2-17.32a4.43,4.43,0,0,0-1.06-2.87,2.06,2.06,0,0,0-1.07-.55,5.48,5.48,0,0,0-1.12-.13c-.31,0-.46,0-.47-.08q-.15-1.32.12-1.39a35.1,35.1,0,0,0,6.61-2l.84-.32q.18,0,.29.93a2.51,2.51,0,0,1,0,.55,9.18,9.18,0,0,1,1.9-1.29A6.56,6.56,0,0,1,70.17,287.54Zm-.82,2.53A3.45,3.45,0,0,0,67,291.2a3,3,0,0,0-.67,2.42L67.41,303a2.81,2.81,0,0,0,1.49,2.24,4.43,4.43,0,0,0,2.73.59,4.29,4.29,0,0,0,3.3-2.3,8.83,8.83,0,0,0,.82-5.51,11.8,11.8,0,0,0-2.14-6A4.49,4.49,0,0,0,69.35,290.07Z"/><path class="cls-2" d="M95.56,284.63a4.55,4.55,0,0,1,3.89,1.08q.44,3.86-1.74,4.1a2.72,2.72,0,0,1-1.87-.71,2.86,2.86,0,0,0-2.05-.69,2.45,2.45,0,0,0-2,1.68,6.07,6.07,0,0,0-.46,3.06l.64,5.67a19.08,19.08,0,0,0,.78,4q.13.31,1.28.52a6.47,6.47,0,0,0,1.56.17q.14,0,.23.64a4.79,4.79,0,0,1,.08.89l-2.42.09q-2,.09-3.1.21t-3.14.49c-1.37.25-2.17.4-2.41.46a1.34,1.34,0,0,1-.28-.84c-.05-.45,0-.69.1-.7a6.33,6.33,0,0,0,1.62-.53q1.07-.46,1.13-.79a14.92,14.92,0,0,0-.06-3.35l-.83-7.39a4.34,4.34,0,0,0-1.05-2.82,2.19,2.19,0,0,0-1.1-.56,5.15,5.15,0,0,0-1.12-.15c-.29,0-.44,0-.45-.09q-.15-1.32.07-1.39A64.55,64.55,0,0,0,90,285.54l.35-.13c.12,0,.24.08.35.28a1.08,1.08,0,0,1,.17.51v1.56a5.94,5.94,0,0,0,0,.62,8.36,8.36,0,0,1,2-2.45A5,5,0,0,1,95.56,284.63Z"/><path class="cls-2" d="M111.07,282.88a8.45,8.45,0,0,1,3.9.41,7.22,7.22,0,0,1,2.87,1.83,10.63,10.63,0,0,1,1.75,2.51,7.89,7.89,0,0,1,.8,2.6q.11,1-.2,1.29a2.59,2.59,0,0,1-1.35.41L108,293.15a.26.26,0,0,0-.29.31,8.88,8.88,0,0,0,.95,3.11A6.28,6.28,0,0,0,111,299a5.38,5.38,0,0,0,3.55.75,12.71,12.71,0,0,0,1.31-.22,6.83,6.83,0,0,0,1.15-.36l.92-.4a3.9,3.9,0,0,0,.79-.5l.57-.46.84-.71a.76.76,0,0,1,.26.25.88.88,0,0,1,.19.44,1.41,1.41,0,0,1-.18.89,7.45,7.45,0,0,1-2.4,2.75,8.46,8.46,0,0,1-4.35,1.73A9.24,9.24,0,0,1,106.5,301a9.84,9.84,0,0,1-3.66-6.78,10.56,10.56,0,0,1,1.81-7.74A8.84,8.84,0,0,1,111.07,282.88ZM111,285a3.23,3.23,0,0,0-1.88.86,4.31,4.31,0,0,0-1.14,1.69,8.74,8.74,0,0,0-.47,1.77,5.56,5.56,0,0,0-.05,1.36.26.26,0,0,0,.31.29l7.35-.83q.41,0,.33-.73a5.92,5.92,0,0,0-1.43-3.1A3.27,3.27,0,0,0,111,285Z"/><path class="cls-2" d="M128.93,280.82a19.4,19.4,0,0,1,5.35.18,25.88,25.88,0,0,1,1.07,5c0,.24-.16.39-.55.43q-1,.11-1.13-.24a5.53,5.53,0,0,0-1.64-2.55,3.57,3.57,0,0,0-2.87-.8,3.27,3.27,0,0,0-2,.82,2,2,0,0,0-.56,1.76,2.66,2.66,0,0,0,.38,1.13,2.84,2.84,0,0,0,.93.88A11.48,11.48,0,0,0,129,288c.31.15.77.34,1.37.58a2.94,2.94,0,0,0,.48.18l.72.29.79.33.77.35a8.11,8.11,0,0,1,.85.43l.76.46a3.59,3.59,0,0,1,.75.56l.62.64a2.92,2.92,0,0,1,.57.76,8.54,8.54,0,0,1,.35.83,4.23,4.23,0,0,1,.22,1,5.38,5.38,0,0,1-1.69,4.76,8.66,8.66,0,0,1-5.14,2.25,15.23,15.23,0,0,1-6-.61,18.27,18.27,0,0,1-.74-2.47,22.18,22.18,0,0,1-.52-2.58,1,1,0,0,1,.61-.3q1-.12,1.13.24A5,5,0,0,0,127,298.6a4.87,4.87,0,0,0,3.24.8,3.32,3.32,0,0,0,2-.87,2.23,2.23,0,0,0,.61-2,3,3,0,0,0-.21-.83,2.21,2.21,0,0,0-.52-.72l-.59-.58a3.31,3.31,0,0,0-.89-.52l-1-.42-1.2-.46-1.23-.48a10.61,10.61,0,0,1-3.49-2.06,5.27,5.27,0,0,1,0-7.45l.18-.17A8.8,8.8,0,0,1,128.93,280.82Z"/><path class="cls-2" d="M145.53,279a19.41,19.41,0,0,1,5.35.18,25.88,25.88,0,0,1,1.07,5q0,.36-.55.43-1,.11-1.13-.24a5.53,5.53,0,0,0-1.64-2.55,3.57,3.57,0,0,0-2.87-.8,3.28,3.28,0,0,0-2,.82,2,2,0,0,0-.56,1.76,2.66,2.66,0,0,0,.38,1.13,2.84,2.84,0,0,0,.93.88,11.48,11.48,0,0,0,1.08.61q.46.22,1.37.58a2.93,2.93,0,0,0,.48.18l.72.29.79.33.77.35a8.13,8.13,0,0,1,.85.43l.76.46a3.62,3.62,0,0,1,.75.56l.62.64a2.94,2.94,0,0,1,.57.76,8.78,8.78,0,0,1,.35.83,4.26,4.26,0,0,1,.22,1,5.38,5.38,0,0,1-1.69,4.76A8.67,8.67,0,0,1,147,299.6a15.25,15.25,0,0,1-6-.61,18.29,18.29,0,0,1-.74-2.47,22.39,22.39,0,0,1-.52-2.58,1,1,0,0,1,.61-.3q1-.12,1.13.24a5,5,0,0,0,2.14,2.86,4.87,4.87,0,0,0,3.24.8,3.32,3.32,0,0,0,2-.87,2.23,2.23,0,0,0,.61-2,3,3,0,0,0-.21-.83,2.22,2.22,0,0,0-.52-.72l-.59-.58a3.33,3.33,0,0,0-.89-.52l-1-.42-1.2-.46-1.23-.48a10.61,10.61,0,0,1-3.49-2.06,5.27,5.27,0,0,1,0-7.45l.18-.17A8.8,8.8,0,0,1,145.53,279Z"/><path class="cls-2" d="M164.35,290.65a16.78,16.78,0,0,0,.82,4q.13.31,1.3.52a6.7,6.7,0,0,0,1.58.17c.12,0,.21.2.28.63a2.57,2.57,0,0,1,0,.89l-2.45.09q-2.13.09-3.12.21t-3.18.5q-2,.37-2.36.45a1.34,1.34,0,0,1-.28-.84c-.05-.45,0-.69.1-.7a6.65,6.65,0,0,0,1.59-.53q1.09-.47,1.15-.79a14.93,14.93,0,0,0-.06-3.35l-.83-7.39a4.34,4.34,0,0,0-1.05-2.82,2.54,2.54,0,0,0-1.12-.56,4.76,4.76,0,0,0-1.12-.15c-.31,0-.46,0-.47-.08q-.15-1.32.12-1.39a34.86,34.86,0,0,0,3.61-1,35.47,35.47,0,0,0,3.49-1.22l.35-.13a.48.48,0,0,1,.4.28.84.84,0,0,1,.15.49,39,39,0,0,0,.08,3.94Zm-6.86-18.45a2.78,2.78,0,0,1-1-1.9,2.7,2.7,0,0,1,.59-2.07,2.86,2.86,0,0,1,4-.45,2.7,2.7,0,0,1,1,1.88,2.78,2.78,0,0,1-.59,2.09,2.81,2.81,0,0,1-3.94.5Z"/><path class="cls-2" d="M178.6,275.27a10.07,10.07,0,0,1,7.61,2.15,9.78,9.78,0,0,1,3.83,6.85,10.41,10.41,0,1,1-11.67-9Zm-.35,2.2a3.68,3.68,0,0,0-3.08,2.44,9.81,9.81,0,0,0-.62,5,13.31,13.31,0,0,0,2.2,6.23,4.55,4.55,0,0,0,4.41,2.26,3.72,3.72,0,0,0,3.1-2.46,9.7,9.7,0,0,0,.65-5,15.63,15.63,0,0,0-1.08-4.31,8,8,0,0,0-2.29-3.16,4.24,4.24,0,0,0-3.29-1.06Z"/><path class="cls-2" d="M206.17,272.16q5.85-.66,6.9,8.64l.49,4.31a19.05,19.05,0,0,0,.78,4q.13.31,1.32.52a7.06,7.06,0,0,0,1.6.17q.14,0,.23.64a2.59,2.59,0,0,1,0,.89l-2.4.09q-2.12.09-3.17.22t-3,.48l-2.32.45a1.35,1.35,0,0,1-.28-.84c-.05-.45,0-.69.1-.7a5.45,5.45,0,0,0,1.48-.51q1-.46,1-.78a13.12,13.12,0,0,0,0-3.35l-.49-4.31q-.42-3.76-1.61-5.15a3.67,3.67,0,0,0-3.41-1.13,4.23,4.23,0,0,0-2.45,1.08,2.2,2.2,0,0,0-.9,1.82l.88,7.8a19.12,19.12,0,0,0,.78,4q.13.31,1.28.52a6.57,6.57,0,0,0,1.51.17c.12,0,.21.2.28.63a2.59,2.59,0,0,1,0,.89l-2.4.09q-2,.09-3.08.21t-3.14.49q-2.05.37-2.41.46a1.35,1.35,0,0,1-.28-.84c-.05-.45,0-.69.1-.7a6.37,6.37,0,0,0,1.62-.53q1.07-.47,1.13-.79a14.86,14.86,0,0,0-.06-3.35l-.83-7.39a4.35,4.35,0,0,0-1.05-2.82,2.2,2.2,0,0,0-1.1-.56,5.21,5.21,0,0,0-1.12-.15c-.29,0-.44,0-.45-.09q-.15-1.32.07-1.39a64.23,64.23,0,0,0,7.15-2.18.3.3,0,0,1,.11-.08h.24q.18,0,.35.28a1.38,1.38,0,0,1,.19.48,15.59,15.59,0,0,0,0,1.65c0,.12,0,.2.07.22a.68.68,0,0,0,.21-.16,10.13,10.13,0,0,1,2.57-2.22A8,8,0,0,1,206.17,272.16Z"/><path class="cls-2" d="M225.21,270a19.4,19.4,0,0,1,5.35.18,26,26,0,0,1,1.07,5c0,.24-.16.38-.55.43q-1,.11-1.13-.24a5.53,5.53,0,0,0-1.64-2.55,3.57,3.57,0,0,0-2.87-.8,3.28,3.28,0,0,0-2,.82,2,2,0,0,0-.56,1.76,2.66,2.66,0,0,0,.38,1.13,2.84,2.84,0,0,0,.93.88,11.23,11.23,0,0,0,1.08.61q.46.22,1.37.58a3,3,0,0,0,.48.18l.72.29.79.33.77.35a8.07,8.07,0,0,1,.85.43l.76.47a3.55,3.55,0,0,1,.75.56l.62.64a2.93,2.93,0,0,1,.57.76,8.68,8.68,0,0,1,.35.83,4.25,4.25,0,0,1,.22,1,5.38,5.38,0,0,1-1.69,4.76,8.67,8.67,0,0,1-5.14,2.25,15.23,15.23,0,0,1-6-.61,18.31,18.31,0,0,1-.74-2.47,22.32,22.32,0,0,1-.52-2.58,1,1,0,0,1,.61-.3q1-.12,1.13.24a5,5,0,0,0,2.14,2.86,4.86,4.86,0,0,0,3.24.81,3.32,3.32,0,0,0,2-.87,2.23,2.23,0,0,0,.61-2,3,3,0,0,0-.21-.83,2.22,2.22,0,0,0-.52-.72l-.59-.58a3.31,3.31,0,0,0-.89-.52l-1-.42-1.2-.46-1.23-.48a10.6,10.6,0,0,1-3.49-2.06,5.27,5.27,0,0,1,0-7.45l.18-.17A8.79,8.79,0,0,1,225.21,270Z"/><path class="cls-2" d="M254.15,266.74a10.06,10.06,0,0,1,7.61,2.15,9.78,9.78,0,0,1,3.83,6.85A10.36,10.36,0,0,1,245,278.06a9.83,9.83,0,0,1,2.16-7.55A10,10,0,0,1,254.15,266.74Zm-.35,2.2a3.68,3.68,0,0,0-3.08,2.44,9.81,9.81,0,0,0-.62,5,13.31,13.31,0,0,0,2.19,6.23,4.56,4.56,0,0,0,4.41,2.26,3.72,3.72,0,0,0,3.1-2.46,9.7,9.7,0,0,0,.65-5,15.64,15.64,0,0,0-1.08-4.31,8.06,8.06,0,0,0-2.29-3.16,4.24,4.24,0,0,0-3.28-1.05Z"/><path class="cls-2" d="M278.52,252.38a9,9,0,0,1,3.21.12,3.18,3.18,0,0,1,1.79,1,5.12,5.12,0,0,1,0,2.54,1.64,1.64,0,0,1-1.53,1.3,1.78,1.78,0,0,1-1.47-.59q-.7-.68-1.46-1.35a2.1,2.1,0,0,0-1.67-.57,2.43,2.43,0,0,0-1.91,1.41,7.67,7.67,0,0,0-.83,3,18.65,18.65,0,0,0,.07,3.71L275,265s0,.07.11.13a.26.26,0,0,0,.19.07l5-.56a.37.37,0,0,1,.23,0,.49.49,0,0,1,.08.27,4.69,4.69,0,0,1-.31,2.15l-4.72.53a.24.24,0,0,0-.24.3L276.45,278a17.46,17.46,0,0,0,.82,4q.13.31,1.28.52a6.46,6.46,0,0,0,1.56.17q.14,0,.23.64a2.59,2.59,0,0,1,0,.89l-2.38.08q-2.1.08-3.19.22t-3.07.48q-2,.36-2.34.45a.86.86,0,0,1-.24-.48,2.72,2.72,0,0,1-.08-.7c0-.23,0-.35.14-.36a6.11,6.11,0,0,0,1.55-.52q1-.46,1.1-.79a15.11,15.11,0,0,0,0-3.76l-1.18-10.43a.26.26,0,0,0-.31-.29l-2.72.31c-.06,0-.1-.08-.12-.26a2.44,2.44,0,0,1,.49-1.39,1.83,1.83,0,0,1,1.36-1l.73-.08a.24.24,0,0,0,.24-.3l0-.45a12.42,12.42,0,0,1,1.91-8.48A8.54,8.54,0,0,1,278.52,252.38Z"/><path class="cls-2" d="M86.71,346.78a25.51,25.51,0,0,1-.57,3.56q-.59,3-.94,3.16a25.57,25.57,0,0,1-10.52,2.27,13.7,13.7,0,0,1-10.41-4.08,14.7,14.7,0,0,1-4.6-10.39,15.69,15.69,0,0,1,4-11.25,14.05,14.05,0,0,1,10.52-5,50.19,50.19,0,0,1,10.81.87,13.18,13.18,0,0,1,.37,3q.24,2.94.26,3.67t-1.07.72a1.48,1.48,0,0,1-.65-.16,6.37,6.37,0,0,0-.72-1.67,11.67,11.67,0,0,0-1.5-1.91,6.92,6.92,0,0,0-2.89-1.71,12.23,12.23,0,0,0-4.36-.56,7.92,7.92,0,0,0-6.83,3.93,15.48,15.48,0,0,0-2.19,8.93,16.51,16.51,0,0,0,3.13,9.64,9.11,9.11,0,0,0,8,3.73,8.35,8.35,0,0,0,6.35-2.77,6.26,6.26,0,0,0,1-1.75q.44-1.09.67-1.83c.15-.49.26-.74.32-.74Q86.52,346.38,86.71,346.78Z"/><path class="cls-2" d="M108.83,339.1l.3,9a10.13,10.13,0,0,0,.47,3.18.94.94,0,0,0,.54.35,3.51,3.51,0,0,0,.8.16,6.76,6.76,0,0,0,.75,0,.84.84,0,0,1,.39,0c.12,0,.19.16.2.4a3.5,3.5,0,0,1-.07.62c-.05.29-.14.44-.26.44a10.41,10.41,0,0,0-1.61.21l-1.88.38q-.91.19-1.72.4t-1.81.42c-.21,0-.33-.23-.34-.72l-.07-2c0-.15-.08-.23-.14-.22a10.17,10.17,0,0,1-2.71,2.15,7.64,7.64,0,0,1-3.57,1,4.77,4.77,0,0,1-2.74-.68,5.51,5.51,0,0,1-1.89-2,9.83,9.83,0,0,1-1-2.61,14,14,0,0,1-.39-2.86l-.17-5.11a4.34,4.34,0,0,0-.83-2.89,2.54,2.54,0,0,0-1.07-.65,4.79,4.79,0,0,0-1.1-.24c-.31,0-.46-.06-.46-.12q0-1.32.18-1.38a34.11,34.11,0,0,0,3.72-.67,35.37,35.37,0,0,0,3.58-.94l.18,0,.18,0q.23,0,.35.31a1.62,1.62,0,0,1,.13.5q-.31,3.12-.28,4l.18,5.47A9.78,9.78,0,0,0,97.84,350a4,4,0,0,0,5.63.55l.09-.08a2.43,2.43,0,0,0,.95-1.74l-.25-7.53a4.34,4.34,0,0,0-.83-2.89,2.19,2.19,0,0,0-1-.65,5.12,5.12,0,0,0-1.13-.24c-.3,0-.46-.06-.46-.12q0-1.32.23-1.38a34.65,34.65,0,0,0,3.68-.67,35.42,35.42,0,0,0,3.58-.94l.36-.1c.15,0,.28.1.38.31a.84.84,0,0,1,.11.5A37.45,37.45,0,0,0,108.83,339.1Z"/><path class="cls-2" d="M122.44,347.32a18.72,18.72,0,0,0,.46,4.09q.1.32,1.14.67a5,5,0,0,0,1.4.34q.13,0,.18.63a2.48,2.48,0,0,1,0,.87l-1.71-.06h-3.58c-.51,0-1.15,0-1.73.1l-1.91.18-1.73.17a1.29,1.29,0,0,1-.21-.84c0-.44,0-.67.16-.67a4.89,4.89,0,0,0,1.52-.44q1-.42,1.09-.75a15.13,15.13,0,0,0,.25-3.39l-.64-19a16,16,0,0,0-.38-3.09q-.25-.72-2.31-.65H114c-.18,0-.28-.17-.29-.54s.07-.73.25-.74q1.41-.18,2.68-.46t2.11-.53q.84-.26,1.44-.48l1-.38.31-.15h.09c.12,0,.25.08.4.26a1.41,1.41,0,0,1,.27.45,14.4,14.4,0,0,0-.4,4.31Z"/><path class="cls-2" d="M130.26,336.64l-2.78.09c-.21,0-.33-.38-.36-1.17a1.14,1.14,0,0,1,0-.41,12.74,12.74,0,0,0,3.43-2.53q.57-.61,1.25-1.39t1.6-2a3.27,3.27,0,0,1,.87.08q.42.11.42.24l.15,4.47,3.31-.09,2.26,0c.24,0,.37.12.38.4a4.43,4.43,0,0,1-.39,2l-5.47.18.37,11a4.33,4.33,0,0,0,.87,2.76,2.61,2.61,0,0,0,2.18.89,4.27,4.27,0,0,0,1-.15,4.76,4.76,0,0,0,.81-.28l.58-.29a1.46,1.46,0,0,1,.31-.15c.12,0,.26.1.42.4s.23.5.2.59q-.25.65-1.89,1.55a7.2,7.2,0,0,1-3.23,1,5.75,5.75,0,0,1-4.09-1.39,6.11,6.11,0,0,1-1.82-4.67Z"/><path class="cls-2" d="M163.56,337.26l.3,9a10.11,10.11,0,0,0,.47,3.18,1,1,0,0,0,.54.35,3.5,3.5,0,0,0,.8.16,7,7,0,0,0,.75,0,.84.84,0,0,1,.39,0c.12,0,.19.16.2.4a3.5,3.5,0,0,1-.07.62c-.05.29-.14.44-.26.44a10.43,10.43,0,0,0-1.61.21l-1.88.38q-.91.19-1.72.4t-1.81.42c-.21,0-.33-.23-.34-.72l-.07-2c0-.15-.08-.23-.14-.22A10.19,10.19,0,0,1,156.4,352a7.64,7.64,0,0,1-3.57,1,4.77,4.77,0,0,1-2.74-.68,5.5,5.5,0,0,1-1.89-2,9.82,9.82,0,0,1-1-2.61,14,14,0,0,1-.39-2.86l-.17-5.11a4.34,4.34,0,0,0-.83-2.89,2.54,2.54,0,0,0-1.07-.65,4.79,4.79,0,0,0-1.1-.24c-.31,0-.46-.06-.46-.12q0-1.32.18-1.38A34.37,34.37,0,0,0,147,334a35.35,35.35,0,0,0,3.58-.94l.18,0,.18,0q.23,0,.35.31a1.62,1.62,0,0,1,.13.5q-.31,3.12-.28,4l.18,5.47a9.78,9.78,0,0,0,1.17,5.08,4,4,0,0,0,5.63.55l.09-.08a2.43,2.43,0,0,0,.95-1.74l-.25-7.53a4.34,4.34,0,0,0-.83-2.89,2.2,2.2,0,0,0-1-.65,5.1,5.1,0,0,0-1.13-.24c-.3,0-.46-.06-.46-.12q0-1.32.23-1.38a34.65,34.65,0,0,0,3.68-.67,35.65,35.65,0,0,0,3.58-.94l.36-.1q.23,0,.38.31a.84.84,0,0,1,.11.5Q163.54,336.44,163.56,337.26Z"/><path class="cls-2" d="M182.15,331.71a4.56,4.56,0,0,1,3.79,1.38q.13,3.88-2.06,4a2.72,2.72,0,0,1-1.81-.85,2.86,2.86,0,0,0-2-.85,2.45,2.45,0,0,0-2.16,1.51,6.08,6.08,0,0,0-.7,3l.19,5.7a19.11,19.11,0,0,0,.46,4.09q.1.32,1.23.62a6.48,6.48,0,0,0,1.54.29q.14,0,.18.66a4.75,4.75,0,0,1,0,.89q-.37,0-2.42-.1a23.6,23.6,0,0,0-3.11,0,30,30,0,0,0-3.17.24q-2.08.24-2.43.26a1.34,1.34,0,0,1-.21-.86q0-.68.16-.69a6.39,6.39,0,0,0,1.65-.4q1.11-.38,1.19-.7a14.93,14.93,0,0,0,.21-3.34l-.25-7.43a4.34,4.34,0,0,0-.83-2.89,2.19,2.19,0,0,0-1-.65,5.13,5.13,0,0,0-1.1-.24c-.29,0-.44-.06-.44-.12q0-1.32.18-1.38a64.3,64.3,0,0,0,7.3-1.62l.36-.1q.18,0,.33.31a1.1,1.1,0,0,1,.13.52v.64a5.73,5.73,0,0,1-.08.92,5.81,5.81,0,0,0,0,.62,8.35,8.35,0,0,1,2.16-2.29A5,5,0,0,1,182.15,331.71Z"/><path class="cls-2" d="M198,331.17a5.61,5.61,0,0,1,4.29,1.34q1.46,1.43,1.58,5l.3,9a2.08,2.08,0,0,0,.46,1.38,1.37,1.37,0,0,0,1.11.44,2.84,2.84,0,0,0,1.53-.64c.18.06.28.22.29.49a2.71,2.71,0,0,1-.23,1.38,11.36,11.36,0,0,1-1.79,1.2,4.76,4.76,0,0,1-2.17.67,3.33,3.33,0,0,1-2.08-.71,3.74,3.74,0,0,1-1.38-1.64l-.33.31q-.29.26-.8.64a13.38,13.38,0,0,1-1.16.77,7.26,7.26,0,0,1-1.53.67,6.63,6.63,0,0,1-1.79.31,5.44,5.44,0,0,1-3.76-1.13,4.33,4.33,0,0,1-1.55-3.39,4.21,4.21,0,0,1,.46-2.07,5.47,5.47,0,0,1,1.2-1.62,9.44,9.44,0,0,1,1.92-1.27,18.44,18.44,0,0,1,2.09-1q.88-.33,2.26-.78t1.92-.66a.72.72,0,0,0,.39-.74l-.08-2.51a3.91,3.91,0,0,0-.81-2.48,2.38,2.38,0,0,0-2-.85,2.77,2.77,0,0,0-2.12.92,3.42,3.42,0,0,0-.69,2.42,1.48,1.48,0,0,1-.64,1.37,2.83,2.83,0,0,1-1.54.49,2.58,2.58,0,0,1-2.41-1q-.07-2.19,2.85-4.21A11.44,11.44,0,0,1,198,331.17Zm-1.46,17.58a3.53,3.53,0,0,0,2.1-.71,1.8,1.8,0,0,0,.84-1.49l-.16-4.65c-.21.1-.65.27-1.33.5s-1.2.44-1.56.6a12.36,12.36,0,0,0-1.26.68,2.76,2.76,0,0,0-1,1,2.53,2.53,0,0,0-.3,1.29,2.81,2.81,0,0,0,.8,2.12,2.63,2.63,0,0,0,1.84.67Z"/><path class="cls-2" d="M217.4,344.13a18.71,18.71,0,0,0,.46,4.09q.1.32,1.14.67a5,5,0,0,0,1.4.34q.13,0,.18.63a2.48,2.48,0,0,1,0,.87l-1.71-.06h-3.58a16.86,16.86,0,0,0-1.73.1l-1.91.18-1.73.17a1.3,1.3,0,0,1-.21-.84q0-.66.16-.67a4.9,4.9,0,0,0,1.52-.44q1-.42,1.09-.75a15.11,15.11,0,0,0,.25-3.39L212,326a15.94,15.94,0,0,0-.38-3.09q-.25-.72-2.31-.65h-.46c-.18,0-.28-.17-.29-.54s.07-.73.25-.74q1.41-.18,2.68-.46t2.11-.53q.84-.25,1.44-.48l1-.37.31-.15h.09c.12,0,.25.08.4.26a1.39,1.39,0,0,1,.27.45,14.4,14.4,0,0,0-.4,4.31Z"/><path class="cls-2" d="M237.87,320q1.32,0,3.05-.17t3.1-.17a14.76,14.76,0,0,1,2.72.16,11.11,11.11,0,0,1,2.72.8,9.69,9.69,0,0,1,2.43,1.5,7.23,7.23,0,0,1,1.77,2.34,7.78,7.78,0,0,1,.77,3.22,8.69,8.69,0,0,1-1,4.24,9.6,9.6,0,0,1-3.26,3.6,9.28,9.28,0,0,1-5,1.61,5.68,5.68,0,0,1-1.93-.28,2.73,2.73,0,0,1-1.35-.8,1,1,0,0,1-.18-.45,2.09,2.09,0,0,1,0-.68c0-.21.06-.32.13-.32a6.43,6.43,0,0,0,2.57.37,4,4,0,0,0,3.41-1.92,7.67,7.67,0,0,0,1.12-4.58,8.37,8.37,0,0,0-1.39-4.79A4.29,4.29,0,0,0,243.7,322a7.47,7.47,0,0,0-2.64.41q-.54.29-.39,4.76l.55,16.28a14.25,14.25,0,0,0,.5,3.87q.15.54,1.56.84a9.65,9.65,0,0,0,2,.27q.18,0,.21.77a2.57,2.57,0,0,1-.07.78q-5-.11-6.49-.06a26.78,26.78,0,0,0-2.76.16l-2.44.2-.91.12a1.57,1.57,0,0,1-.16-.82c0-.49,0-.73.11-.74a7.89,7.89,0,0,0,1.75-.35q1.15-.34,1.32-.75a18,18,0,0,0,.13-4.16l-.58-17.24a17.89,17.89,0,0,0-.4-3.73q-.15-.36-1.37-.71a6.56,6.56,0,0,0-1.77-.33c-.12,0-.19-.22-.21-.68s0-.73.16-.83Q236.6,320,237.87,320Z"/><path class="cls-2" d="M266.48,328.87a5.61,5.61,0,0,1,4.29,1.34q1.46,1.44,1.59,5l.3,9a2.07,2.07,0,0,0,.46,1.38,1.37,1.37,0,0,0,1.11.44,2.85,2.85,0,0,0,1.53-.65c.18.06.28.22.29.49a2.7,2.7,0,0,1-.23,1.38,11.39,11.39,0,0,1-1.79,1.2,4.76,4.76,0,0,1-2.17.67,3.33,3.33,0,0,1-2.08-.71,3.74,3.74,0,0,1-1.38-1.64l-.33.31q-.29.26-.8.64a13.4,13.4,0,0,1-1.16.77,7.31,7.31,0,0,1-1.53.67,6.68,6.68,0,0,1-1.79.31,5.45,5.45,0,0,1-3.76-1.13,4.34,4.34,0,0,1-1.55-3.39,4.2,4.2,0,0,1,.46-2.07,5.45,5.45,0,0,1,1.2-1.62,9.39,9.39,0,0,1,1.92-1.27,18.69,18.69,0,0,1,2.09-1q.88-.33,2.26-.78t1.92-.66a.72.72,0,0,0,.39-.74l-.08-2.51a3.92,3.92,0,0,0-.81-2.48,2.38,2.38,0,0,0-2-.85,2.77,2.77,0,0,0-2.12.92,3.41,3.41,0,0,0-.7,2.42,1.47,1.47,0,0,1-.64,1.37,2.83,2.83,0,0,1-1.54.49,2.57,2.57,0,0,1-2.41-1q-.07-2.19,2.85-4.21A11.44,11.44,0,0,1,266.48,328.87ZM265,346.46a3.55,3.55,0,0,0,2.1-.71,1.81,1.81,0,0,0,.84-1.49l-.16-4.65c-.21.1-.65.27-1.33.5s-1.2.44-1.56.6a12.55,12.55,0,0,0-1.26.68,2.76,2.76,0,0,0-1,1,2.52,2.52,0,0,0-.3,1.29,2.81,2.81,0,0,0,.8,2.12A2.62,2.62,0,0,0,265,346.46Z"/><path class="cls-2" d="M285,328.21a19.36,19.36,0,0,1,5.32.6,25.94,25.94,0,0,1,.67,5.09q0,.36-.58.38-1,0-1.11-.33a5.53,5.53,0,0,0-1.44-2.67,3.56,3.56,0,0,0-2.8-1,3.27,3.27,0,0,0-2.06.66,2,2,0,0,0-.7,1.71,2.65,2.65,0,0,0,.29,1.15,2.83,2.83,0,0,0,.85,1,11.34,11.34,0,0,0,1,.7q.44.26,1.32.69a2.86,2.86,0,0,0,.46.21l.7.34.77.39.74.41a8.37,8.37,0,0,1,.82.5l.73.52a3.59,3.59,0,0,1,.71.62l.57.69a2.91,2.91,0,0,1,.51.8,8.6,8.6,0,0,1,.28.86,4.25,4.25,0,0,1,.15,1,5.38,5.38,0,0,1-2.06,4.61,8.66,8.66,0,0,1-5.3,1.84,15.24,15.24,0,0,1-5.93-1.08,18.44,18.44,0,0,1-.54-2.52,22.44,22.44,0,0,1-.32-2.62,1,1,0,0,1,.63-.25q1,0,1.11.33a5,5,0,0,0,1.91,3,4.86,4.86,0,0,0,3.16,1.06,3.31,3.31,0,0,0,2.08-.71,2.23,2.23,0,0,0,.76-1.9,3,3,0,0,0-.14-.84,2.24,2.24,0,0,0-.46-.76l-.55-.62a3.3,3.3,0,0,0-.84-.59l-.93-.5-1.16-.55q-.86-.4-1.18-.58a10.63,10.63,0,0,1-3.32-2.33,5.27,5.27,0,0,1,.59-7.43l.2-.16A8.81,8.81,0,0,1,285,328.21Z"/><path class="cls-2" d="M301.65,327.65a19.36,19.36,0,0,1,5.32.6,25.9,25.9,0,0,1,.67,5.09q0,.36-.58.38-1,0-1.11-.33a5.54,5.54,0,0,0-1.44-2.67,3.56,3.56,0,0,0-2.8-1,3.27,3.27,0,0,0-2.06.66,2,2,0,0,0-.7,1.71,2.65,2.65,0,0,0,.29,1.15,2.84,2.84,0,0,0,.85,1,11.41,11.41,0,0,0,1,.7q.44.26,1.32.69a2.8,2.8,0,0,0,.46.21l.7.34.77.39.75.41a8.45,8.45,0,0,1,.82.5l.73.52a3.62,3.62,0,0,1,.71.62l.57.69a2.91,2.91,0,0,1,.51.8,8.6,8.6,0,0,1,.28.86,4.2,4.2,0,0,1,.15,1,5.38,5.38,0,0,1-2.06,4.61,8.66,8.66,0,0,1-5.3,1.84,15.23,15.23,0,0,1-5.93-1.08,18.29,18.29,0,0,1-.54-2.52,22.44,22.44,0,0,1-.32-2.62,1,1,0,0,1,.63-.25q1,0,1.11.33a5,5,0,0,0,1.91,3,4.86,4.86,0,0,0,3.16,1.06,3.31,3.31,0,0,0,2.08-.71,2.23,2.23,0,0,0,.76-1.9,3,3,0,0,0-.14-.84,2.23,2.23,0,0,0-.46-.76l-.55-.62a3.32,3.32,0,0,0-.84-.59l-.93-.5-1.16-.55q-.86-.4-1.18-.58a10.62,10.62,0,0,1-3.32-2.33,5.27,5.27,0,0,1,.6-7.43l.19-.15A8.81,8.81,0,0,1,301.65,327.65Z"/><path class="cls-2" d="M320.49,327.06a5.61,5.61,0,0,1,4.29,1.34q1.46,1.44,1.58,5l.3,9a2.07,2.07,0,0,0,.46,1.38,1.37,1.37,0,0,0,1.11.44,2.85,2.85,0,0,0,1.53-.65c.18.06.28.22.29.49a2.7,2.7,0,0,1-.23,1.38,11.32,11.32,0,0,1-1.79,1.2,4.76,4.76,0,0,1-2.17.67,3.33,3.33,0,0,1-2.08-.71A3.75,3.75,0,0,1,322.4,345l-.33.31q-.29.26-.8.64a13.38,13.38,0,0,1-1.16.77,7.32,7.32,0,0,1-1.53.67,6.68,6.68,0,0,1-1.79.31,5.45,5.45,0,0,1-3.76-1.13,4.33,4.33,0,0,1-1.55-3.39,4.2,4.2,0,0,1,.46-2.07,5.45,5.45,0,0,1,1.2-1.62,9.4,9.4,0,0,1,1.92-1.27,18.65,18.65,0,0,1,2.09-1q.88-.33,2.26-.78t1.92-.66a.72.72,0,0,0,.39-.74l-.08-2.51a3.92,3.92,0,0,0-.81-2.48,2.38,2.38,0,0,0-2-.85,2.77,2.77,0,0,0-2.12.92,3.42,3.42,0,0,0-.69,2.42,1.48,1.48,0,0,1-.64,1.37,2.84,2.84,0,0,1-1.54.49,2.58,2.58,0,0,1-2.41-1q-.07-2.19,2.85-4.21A11.44,11.44,0,0,1,320.49,327.06ZM319,344.64a3.55,3.55,0,0,0,2.1-.71,1.81,1.81,0,0,0,.84-1.49l-.16-4.65c-.21.1-.65.27-1.33.5s-1.2.44-1.55.6a12.5,12.5,0,0,0-1.26.68,2.76,2.76,0,0,0-1,1,2.53,2.53,0,0,0-.3,1.29,2.81,2.81,0,0,0,.8,2.12A2.63,2.63,0,0,0,319,344.64Z"/><path class="cls-2" d="M340.24,326.49A14.41,14.41,0,0,1,344,327a14,14,0,0,0,3.67.47l2.6-.09c.06,0,.17.19.34.58a2.8,2.8,0,0,1,.26.91q0,.64-.25.65l-3,.1q-.18,0-.18.14a7.19,7.19,0,0,0,.45,1.17,6.45,6.45,0,0,1,.48,2.17,6.6,6.6,0,0,1-2.09,4.93,7.81,7.81,0,0,1-5.56,2.36,18.9,18.9,0,0,1-2.83-.09,2.46,2.46,0,0,0-1,.88,1.94,1.94,0,0,0-.42,1.13.94.94,0,0,0,.46.76,3.05,3.05,0,0,0,1.36.41q.92.11,1.56.13h2.51a16.11,16.11,0,0,1,6.72,1,3.59,3.59,0,0,1,2.23,3.28,7.08,7.08,0,0,1-3.08,6,12.48,12.48,0,0,1-7.62,2.77,11.85,11.85,0,0,1-5.86-1.08,4.1,4.1,0,0,1-2.61-3.66,3.55,3.55,0,0,1,1.21-2.6,7.58,7.58,0,0,1,2.75-1.83,5.21,5.21,0,0,1-2.24-1.32,3.32,3.32,0,0,1-1.08-2.36q-.07-2,3.24-4.17a6.05,6.05,0,0,1-2.54-2.27,6.71,6.71,0,0,1-1.27-3.68,6.16,6.16,0,0,1,2.2-5.19A9.07,9.07,0,0,1,340.24,326.49Zm7.1,23.64q0-1.6-2.37-2a28.87,28.87,0,0,0-6.2-.32.76.76,0,0,0-.23,0l-.22.14q-.59.25-.9.42a3.92,3.92,0,0,0-.71.53,2.23,2.23,0,0,0-.59.82,2.66,2.66,0,0,0-.17,1.1,3.19,3.19,0,0,0,1.82,2.68,7.12,7.12,0,0,0,3.91,1,6.9,6.9,0,0,0,4.13-1.33A3.56,3.56,0,0,0,347.34,350.13ZM337,333.22a7.22,7.22,0,0,0,1,3.73,2.84,2.84,0,0,0,2.61,1.44A2.71,2.71,0,0,0,343,337a6.05,6.05,0,0,0,.69-3.24,7.5,7.5,0,0,0-1-3.89,2.92,2.92,0,0,0-2.7-1.42,2.58,2.58,0,0,0-2.37,1.5A6.62,6.62,0,0,0,337,333.22Z"/><path class="cls-2" d="M362.63,325.65a8.46,8.46,0,0,1,3.86.71,7.23,7.23,0,0,1,2.72,2.06,10.63,10.63,0,0,1,1.55,2.64,7.87,7.87,0,0,1,.59,2.65A1.8,1.8,0,0,1,371,335a2.58,2.58,0,0,1-1.38.3l-10.9.37c-.21,0-.32.1-.31.28a8.89,8.89,0,0,0,.7,3.17,6.28,6.28,0,0,0,2.12,2.62,5.37,5.37,0,0,0,3.48,1,12.1,12.1,0,0,0,1.32-.11,6.85,6.85,0,0,0,1.18-.27l1-.33a3.88,3.88,0,0,0,.83-.44l.6-.41.89-.65a.75.75,0,0,1,.24.27.88.88,0,0,1,.15.45,1.4,1.4,0,0,1-.25.88,7.45,7.45,0,0,1-2.61,2.55,8.46,8.46,0,0,1-4.47,1.38,9.24,9.24,0,0,1-6.94-2.71,9.84,9.84,0,0,1-3.11-7,10.56,10.56,0,0,1,2.42-7.57A8.84,8.84,0,0,1,362.63,325.65Zm-.25,2.11a3.22,3.22,0,0,0-1.94.7,4.3,4.3,0,0,0-1.27,1.6,8.7,8.7,0,0,0-.6,1.73,5.58,5.58,0,0,0-.16,1.35q0,.32.28.31l7.39-.25c.27,0,.4-.24.39-.7a5.92,5.92,0,0,0-1.18-3.2,3.27,3.27,0,0,0-2.9-1.55Z"/><path class="cls-2" d="M30.6.22h6.16a14.89,14.89,0,0,1,2.71.29,11.06,11.06,0,0,1,2.68.93A9.71,9.71,0,0,1,44.51,3a7.24,7.24,0,0,1,1.65,2.42,7.79,7.79,0,0,1,.62,3.25,8.68,8.68,0,0,1-1.18,4.18,9.59,9.59,0,0,1-3.43,3.44,9.28,9.28,0,0,1-5.11,1.37,5.66,5.66,0,0,1-1.91-.37,2.72,2.72,0,0,1-1.31-.86,1,1,0,0,1-.15-.46,2.11,2.11,0,0,1,0-.68c0-.21.08-.32.14-.32a6.42,6.42,0,0,0,2.55.49,4,4,0,0,0,3.49-1.75A7.66,7.66,0,0,0,41.2,9.18,8.38,8.38,0,0,0,40,4.33,4.29,4.29,0,0,0,36.24,2.5a7.44,7.44,0,0,0-2.65.28Q33.07,3,33,7.51L32.78,23.8a14.22,14.22,0,0,0,.31,3.88q.13.55,1.52.91a9.64,9.64,0,0,0,2,.37q.18,0,.17.78a2.56,2.56,0,0,1-.1.77q-5-.35-6.48-.37H27.44L25,30.27l-.91.08a1.57,1.57,0,0,1-.12-.82c0-.49.06-.73.15-.73a7.84,7.84,0,0,0,1.76-.27q1.17-.28,1.36-.69a18.1,18.1,0,0,0,.33-4.15l.24-17.25a17.85,17.85,0,0,0-.22-3.75q-.13-.37-1.33-.77a6.58,6.58,0,0,0-1.75-.41c-.12,0-.18-.23-.17-.69s.07-.73.19-.82Q29.33.21,30.6.22Z"/><path class="cls-2" d="M62.54,10.54a4.56,4.56,0,0,1,3.72,1.56Q66.21,16,64,15.94A2.72,2.72,0,0,1,62.25,15a2.86,2.86,0,0,0-2-.94,2.45,2.45,0,0,0-2.23,1.41,6.08,6.08,0,0,0-.84,3l-.08,5.7a19.06,19.06,0,0,0,.26,4.11q.09.32,1.2.68a6.43,6.43,0,0,0,1.52.36q.14,0,.15.66a4.84,4.84,0,0,1,0,.89q-.37,0-2.42-.22t-3.1-.18q-1.1,0-3.17.09c-1.39.07-2.2.12-2.44.15a1.34,1.34,0,0,1-.17-.87c0-.46.07-.68.19-.68a6.38,6.38,0,0,0,1.67-.32q1.12-.33,1.22-.64a14.91,14.91,0,0,0,.37-3.33l.11-7.44a4.34,4.34,0,0,0-.69-2.93,2.19,2.19,0,0,0-1-.7,5.25,5.25,0,0,0-1.09-.29c-.29,0-.43-.08-.43-.14q0-1.32.25-1.37A64.82,64.82,0,0,0,57,10.74l.37-.09c.12,0,.23.11.32.32a1.09,1.09,0,0,1,.11.52l-.08.64a6.23,6.23,0,0,1-.13.91,5.87,5.87,0,0,0-.08.62,8.4,8.4,0,0,1,2.27-2.18A5,5,0,0,1,62.54,10.54Z"/><path class="cls-2" d="M78.15,10.76a8.47,8.47,0,0,1,3.82.9,7.24,7.24,0,0,1,2.62,2.18A10.64,10.64,0,0,1,86,16.55a7.88,7.88,0,0,1,.46,2.68q0,1-.36,1.25a2.59,2.59,0,0,1-1.39.23L73.8,20.56q-.32,0-.32.27A8.87,8.87,0,0,0,74,24a6.28,6.28,0,0,0,2,2.72,5.37,5.37,0,0,0,3.43,1.19,12.22,12.22,0,0,0,1.32,0A6.75,6.75,0,0,0,82,27.68l1-.28a3.9,3.9,0,0,0,.85-.4l.62-.38.92-.6a.75.75,0,0,1,.22.28.89.89,0,0,1,.13.46,1.4,1.4,0,0,1-.29.86A7.44,7.44,0,0,1,82.67,30a8.48,8.48,0,0,1-4.54,1.17,9.24,9.24,0,0,1-6.8-3A9.85,9.85,0,0,1,68.56,21a10.56,10.56,0,0,1,2.78-7.45A8.84,8.84,0,0,1,78.15,10.76Zm-.35,2.09a3.23,3.23,0,0,0-2,.61A4.29,4.29,0,0,0,74.49,15a8.68,8.68,0,0,0-.69,1.7,5.56,5.56,0,0,0-.23,1.3q0,.32.27.32l7.39.1q.41,0,.42-.68a5.91,5.91,0,0,0-1-3.25A3.27,3.27,0,0,0,77.8,12.85Z"/><path class="cls-2" d="M96.13,11a19.45,19.45,0,0,1,5.28.85,26,26,0,0,1,.43,5.12q0,.36-.6.36-1,0-1.09-.38a5.54,5.54,0,0,0-1.31-2.74A3.57,3.57,0,0,0,96.1,13a3.27,3.27,0,0,0-2.08.56,2,2,0,0,0-.78,1.68,2.64,2.64,0,0,0,.23,1.17,2.85,2.85,0,0,0,.81,1,11.28,11.28,0,0,0,1,.74q.44.29,1.29.75a2.94,2.94,0,0,0,.45.23l.68.38.75.42.72.44a8.45,8.45,0,0,1,.79.54l.7.56a3.6,3.6,0,0,1,.68.65l.54.72a3,3,0,0,1,.47.83,8.73,8.73,0,0,1,.24.87,4.27,4.27,0,0,1,.1,1A5.38,5.38,0,0,1,100.4,30,8.66,8.66,0,0,1,95,31.63a15.26,15.26,0,0,1-5.87-1.36,18.31,18.31,0,0,1-.42-2.54,22.2,22.2,0,0,1-.19-2.63,1,1,0,0,1,.64-.22c.7,0,1.06.14,1.09.38A5,5,0,0,0,92,28.37a4.87,4.87,0,0,0,3.11,1.21A3.32,3.32,0,0,0,97.24,29a2.23,2.23,0,0,0,.85-1.86,3,3,0,0,0-.1-.85,2.24,2.24,0,0,0-.42-.78l-.52-.65a3.32,3.32,0,0,0-.81-.63l-.91-.54-1.13-.61L93,22.42a10.64,10.64,0,0,1-3.21-2.49,4.88,4.88,0,0,1-1.09-3.28A4.9,4.9,0,0,1,91,12.4,8.81,8.81,0,0,1,96.13,11Z"/><path class="cls-2" d="M112.83,11.2a19.41,19.41,0,0,1,5.28.85,25.94,25.94,0,0,1,.43,5.12q0,.36-.6.36-1,0-1.09-.38a5.54,5.54,0,0,0-1.31-2.74,3.57,3.57,0,0,0-2.75-1.16,3.27,3.27,0,0,0-2.08.56,2,2,0,0,0-.78,1.68,2.67,2.67,0,0,0,.23,1.17,2.83,2.83,0,0,0,.81,1,11.12,11.12,0,0,0,1,.75q.44.29,1.29.75a2.94,2.94,0,0,0,.45.23l.68.38.75.42.72.44a8.26,8.26,0,0,1,.79.54l.7.56a3.6,3.6,0,0,1,.68.65l.54.72a3,3,0,0,1,.47.83,8.72,8.72,0,0,1,.24.87,4.24,4.24,0,0,1,.1,1,5.38,5.38,0,0,1-2.28,4.51,8.66,8.66,0,0,1-5.39,1.59,15.25,15.25,0,0,1-5.87-1.36,18.44,18.44,0,0,1-.42-2.54,22.64,22.64,0,0,1-.19-2.63,1,1,0,0,1,.64-.22q1,0,1.09.38a5,5,0,0,0,1.76,3.11,4.86,4.86,0,0,0,3.11,1.21,3.31,3.31,0,0,0,2.11-.61,2.23,2.23,0,0,0,.85-1.86,3,3,0,0,0-.1-.85,2.24,2.24,0,0,0-.42-.78l-.52-.65a3.32,3.32,0,0,0-.81-.63L112,23.9l-1.13-.61-1.16-.63a10.65,10.65,0,0,1-3.21-2.49,4.88,4.88,0,0,1-1.09-3.28,4.9,4.9,0,0,1,2.25-4.26A8.81,8.81,0,0,1,112.83,11.2Z"/><path class="cls-2" d="M138,1.75h6.16a14.8,14.8,0,0,1,2.71.29,11.08,11.08,0,0,1,2.68.93,9.68,9.68,0,0,1,2.35,1.61A7.23,7.23,0,0,1,153.55,7a7.76,7.76,0,0,1,.62,3.25A8.68,8.68,0,0,1,153,14.37a9.59,9.59,0,0,1-3.43,3.44,9.28,9.28,0,0,1-5.11,1.37,5.68,5.68,0,0,1-1.91-.37,2.73,2.73,0,0,1-1.31-.86,1,1,0,0,1-.15-.46,2.06,2.06,0,0,1,0-.69c0-.21.08-.32.14-.32a6.4,6.4,0,0,0,2.55.49,4,4,0,0,0,3.5-1.75,7.67,7.67,0,0,0,1.34-4.52,8.39,8.39,0,0,0-1.16-4.86A4.29,4.29,0,0,0,143.65,4a7.46,7.46,0,0,0-2.65.3q-.55.27-.62,4.74l-.23,16.29a14.25,14.25,0,0,0,.31,3.88q.13.55,1.52.91a9.57,9.57,0,0,0,2,.37c.12,0,.18.26.17.78a2.59,2.59,0,0,1-.1.77q-5-.34-6.48-.37h-2.76l-2.44.08-.91.08a1.56,1.56,0,0,1-.13-.82q0-.73.15-.73a7.81,7.81,0,0,0,1.76-.27q1.17-.28,1.36-.69a18,18,0,0,0,.33-4.15L135.2,8a17.92,17.92,0,0,0-.2-3.79q-.13-.37-1.34-.77A6.63,6.63,0,0,0,131.89,3c-.12,0-.18-.23-.17-.69s.07-.73.19-.82Q136.7,1.73,138,1.75Z"/><path class="cls-2" d="M169.92,12.06a4.55,4.55,0,0,1,3.72,1.56q-.06,3.88-2.25,3.85a2.72,2.72,0,0,1-1.77-.94,2.86,2.86,0,0,0-1.95-.94A2.45,2.45,0,0,0,165.45,17a6.07,6.07,0,0,0-.84,3l-.08,5.7a19.13,19.13,0,0,0,.26,4.11q.09.32,1.2.68a6.46,6.46,0,0,0,1.52.37q.13,0,.15.66a4.82,4.82,0,0,1,0,.89q-.37,0-2.42-.22a23.3,23.3,0,0,0-3.1-.18Q161,32,159,32.1t-2.44.15a1.34,1.34,0,0,1-.17-.87q0-.68.19-.68a6.38,6.38,0,0,0,1.67-.32q1.12-.33,1.22-.64a14.91,14.91,0,0,0,.37-3.33l.11-7.44a4.34,4.34,0,0,0-.69-2.93,2.2,2.2,0,0,0-1-.7,5.19,5.19,0,0,0-1.09-.29c-.29,0-.43-.08-.43-.14q0-1.32.25-1.37a64.63,64.63,0,0,0,7.37-1.26l.37-.08q.18,0,.32.32a1.07,1.07,0,0,1,0,.48,2.22,2.22,0,0,1-.08.64,8.3,8.3,0,0,0-.13.91,5.79,5.79,0,0,0-.08.62A8.35,8.35,0,0,1,167,13,5,5,0,0,1,169.92,12.06Z"/><path class="cls-2" d="M185.53,12.28a8.48,8.48,0,0,1,3.82.9A7.22,7.22,0,0,1,192,15.36a10.64,10.64,0,0,1,1.42,2.71,7.88,7.88,0,0,1,.46,2.68q0,1-.36,1.25a2.59,2.59,0,0,1-1.4.23l-10.91-.16c-.21,0-.32.09-.32.27a8.86,8.86,0,0,0,.55,3.2,6.27,6.27,0,0,0,2,2.72,5.37,5.37,0,0,0,3.43,1.19,12.24,12.24,0,0,0,1.33,0,6.88,6.88,0,0,0,1.19-.21l1-.28a3.89,3.89,0,0,0,.85-.4l.62-.38.92-.6a.77.77,0,0,1,.22.28.89.89,0,0,1,.13.46,1.4,1.4,0,0,1-.29.86A7.44,7.44,0,0,1,190,31.56a8.47,8.47,0,0,1-4.54,1.17,9.24,9.24,0,0,1-6.8-3,9.84,9.84,0,0,1-2.77-7.18,10.56,10.56,0,0,1,2.78-7.45A8.85,8.85,0,0,1,185.53,12.28Zm-.35,2.09a3.22,3.22,0,0,0-2,.61,4.29,4.29,0,0,0-1.34,1.53,8.7,8.7,0,0,0-.69,1.7,5.58,5.58,0,0,0-.22,1.34q0,.32.27.32l7.39.11q.41,0,.42-.68A5.92,5.92,0,0,0,188,16a3.27,3.27,0,0,0-2.83-1.66Z"/><path class="cls-2" d="M203.51,12.49a19.4,19.4,0,0,1,5.28.85,25.94,25.94,0,0,1,.43,5.12q0,.36-.6.36c-.67,0-1-.14-1.09-.38a5.53,5.53,0,0,0-1.31-2.74,3.57,3.57,0,0,0-2.75-1.16,3.27,3.27,0,0,0-2.08.56,2,2,0,0,0-.78,1.68,2.66,2.66,0,0,0,.23,1.17,2.84,2.84,0,0,0,.81,1,11.12,11.12,0,0,0,1,.75q.43.28,1.29.75a2.83,2.83,0,0,0,.45.23l.68.38.75.42.72.44a8,8,0,0,1,.79.54l.7.56a3.56,3.56,0,0,1,.67.65l.54.72a3,3,0,0,1,.47.83,8.72,8.72,0,0,1,.24.87,4.23,4.23,0,0,1,.1,1,5.38,5.38,0,0,1-2.28,4.51,8.67,8.67,0,0,1-5.39,1.59,15.26,15.26,0,0,1-5.87-1.36,18.29,18.29,0,0,1-.42-2.54,22.67,22.67,0,0,1-.19-2.63,1,1,0,0,1,.64-.22q1,0,1.09.38a5,5,0,0,0,1.76,3.11,4.86,4.86,0,0,0,3.11,1.21,3.31,3.31,0,0,0,2.11-.61,2.23,2.23,0,0,0,.85-1.86,3,3,0,0,0-.1-.85,2.24,2.24,0,0,0-.42-.78l-.52-.65a3.31,3.31,0,0,0-.81-.63l-.91-.54-1.13-.61L200.42,24a10.62,10.62,0,0,1-3.21-2.49,4.87,4.87,0,0,1-1.09-3.28,4.9,4.9,0,0,1,2.25-4.26A8.81,8.81,0,0,1,203.51,12.49Z"/><path class="cls-2" d="M220.21,12.73a19.41,19.41,0,0,1,5.28.85,26,26,0,0,1,.43,5.12q0,.36-.6.36c-.67,0-1-.14-1.09-.38A5.53,5.53,0,0,0,222.92,16a3.57,3.57,0,0,0-2.75-1.16,3.28,3.28,0,0,0-2.08.56,2,2,0,0,0-.78,1.68,2.64,2.64,0,0,0,.23,1.17,2.84,2.84,0,0,0,.81,1,11.31,11.31,0,0,0,1,.75q.43.28,1.29.75a2.83,2.83,0,0,0,.45.23l.68.38.75.42.72.44a8.22,8.22,0,0,1,.79.54l.7.56a3.56,3.56,0,0,1,.67.65l.54.72a3,3,0,0,1,.47.83,8.81,8.81,0,0,1,.24.87,4.28,4.28,0,0,1,.1,1,5.38,5.38,0,0,1-2.28,4.51,8.67,8.67,0,0,1-5.39,1.59A15.26,15.26,0,0,1,213.23,32a18.28,18.28,0,0,1-.42-2.54,22.2,22.2,0,0,1-.19-2.63,1,1,0,0,1,.64-.22q1,0,1.09.38a5,5,0,0,0,1.76,3.11,4.87,4.87,0,0,0,3.11,1.21,3.32,3.32,0,0,0,2.11-.61,2.23,2.23,0,0,0,.85-1.86,3,3,0,0,0-.1-.85,2.26,2.26,0,0,0-.42-.78l-.52-.65a3.32,3.32,0,0,0-.81-.63l-.91-.54-1.13-.61-1.15-.63a10.61,10.61,0,0,1-3.21-2.49,4.87,4.87,0,0,1-1.09-3.28,4.9,4.9,0,0,1,2.25-4.26A8.8,8.8,0,0,1,220.21,12.73Z"/><path class="cls-2" d="M245.36,3.27h6.16a14.81,14.81,0,0,1,2.71.29,11.09,11.09,0,0,1,2.68.93A9.68,9.68,0,0,1,259.26,6a7.23,7.23,0,0,1,1.65,2.42,7.78,7.78,0,0,1,.62,3.25,8.69,8.69,0,0,1-1.18,4.18,9.6,9.6,0,0,1-3.43,3.44,9.28,9.28,0,0,1-5.11,1.37,5.71,5.71,0,0,1-1.91-.37,2.73,2.73,0,0,1-1.31-.86,1,1,0,0,1-.15-.46,2.11,2.11,0,0,1,0-.68c0-.21.08-.32.14-.32a6.42,6.42,0,0,0,2.55.49,4,4,0,0,0,3.49-1.75A7.66,7.66,0,0,0,256,12.23a8.37,8.37,0,0,0-1.16-4.86A4.29,4.29,0,0,0,251,5.54a7.46,7.46,0,0,0-2.65.28q-.55.27-.62,4.74l-.23,16.29a14.22,14.22,0,0,0,.31,3.88q.13.55,1.52.91a9.71,9.71,0,0,0,2,.37c.12,0,.18.26.17.78a2.56,2.56,0,0,1-.1.77q-5-.35-6.48-.37h-2.76l-2.44.08-.91.08a1.57,1.57,0,0,1-.12-.82c0-.49.06-.73.15-.73a7.78,7.78,0,0,0,1.76-.27c.78-.19,1.23-.42,1.36-.69a18.09,18.09,0,0,0,.33-4.15l.24-17.25a17.85,17.85,0,0,0-.22-3.75Q242.22,5.37,241,5a6.62,6.62,0,0,0-1.75-.41c-.12,0-.18-.23-.17-.69s.07-.73.19-.82Q244.08,3.25,245.36,3.27Z"/><path class="cls-2" d="M277.3,13.58a4.56,4.56,0,0,1,3.7,1.56Q281,19,278.77,19a2.72,2.72,0,0,1-1.77-.94,2.86,2.86,0,0,0-2-.94,2.45,2.45,0,0,0-2.23,1.41,6.08,6.08,0,0,0-.84,3l-.08,5.7a19.05,19.05,0,0,0,.26,4.11q.09.32,1.2.68a6.42,6.42,0,0,0,1.52.36q.14,0,.15.66a4.74,4.74,0,0,1,0,.89q-.36,0-2.42-.22a23.41,23.41,0,0,0-3.1-.18q-1.09,0-3.17.09t-2.44.15a1.33,1.33,0,0,1-.17-.87c0-.46.07-.68.19-.68a6.31,6.31,0,0,0,1.67-.32q1.12-.33,1.22-.64a14.91,14.91,0,0,0,.37-3.33l.11-7.44a4.34,4.34,0,0,0-.69-2.93,2.21,2.21,0,0,0-1-.7,5.25,5.25,0,0,0-1.09-.29c-.29,0-.43-.08-.43-.14q0-1.32.25-1.37a64.6,64.6,0,0,0,7.37-1.26l.37-.09q.18,0,.32.32a1.09,1.09,0,0,1,.11.53l-.08.64q0,.43-.13.91a5.87,5.87,0,0,0-.08.62,8.4,8.4,0,0,1,2.27-2.18A5,5,0,0,1,277.3,13.58Z"/><path class="cls-2" d="M292.9,13.8a8.47,8.47,0,0,1,3.82.9,7.24,7.24,0,0,1,2.62,2.18,10.67,10.67,0,0,1,1.42,2.71,7.88,7.88,0,0,1,.46,2.68q0,1-.36,1.25a2.59,2.59,0,0,1-1.4.23l-10.91-.16q-.32,0-.32.27a8.87,8.87,0,0,0,.55,3.2,6.26,6.26,0,0,0,2,2.72A5.38,5.38,0,0,0,294.21,31a12.47,12.47,0,0,0,1.33,0,6.75,6.75,0,0,0,1.19-.21l1-.28a3.87,3.87,0,0,0,.85-.4l.62-.38.92-.6a.74.74,0,0,1,.22.28.89.89,0,0,1,.13.46,1.4,1.4,0,0,1-.29.86,7.45,7.45,0,0,1-2.73,2.43,8.48,8.48,0,0,1-4.54,1.17,9.24,9.24,0,0,1-6.8-3,9.85,9.85,0,0,1-2.8-7.28,10.56,10.56,0,0,1,2.78-7.45A8.84,8.84,0,0,1,292.9,13.8Zm-.35,2.09a3.23,3.23,0,0,0-2,.61,4.29,4.29,0,0,0-1.31,1.5,8.68,8.68,0,0,0-.69,1.7,5.56,5.56,0,0,0-.22,1.34q0,.32.27.32l7.39.1q.41,0,.42-.68a5.91,5.91,0,0,0-1-3.25,3.27,3.27,0,0,0-2.86-1.63Z"/><path class="cls-2" d="M310.88,14a19.45,19.45,0,0,1,5.28.85A26,26,0,0,1,316.6,20q0,.36-.6.36-1,0-1.09-.38a5.53,5.53,0,0,0-1.31-2.73,3.57,3.57,0,0,0-2.75-1.16,3.27,3.27,0,0,0-2.08.56,2,2,0,0,0-.78,1.68,2.67,2.67,0,0,0,.23,1.17,2.84,2.84,0,0,0,.81,1,11.28,11.28,0,0,0,1,.74q.43.28,1.29.75a2.86,2.86,0,0,0,.45.23l.68.38.75.42.72.44a8.45,8.45,0,0,1,.79.54l.7.56a3.6,3.6,0,0,1,.68.65l.54.72a3,3,0,0,1,.47.83,8.81,8.81,0,0,1,.24.87,4.28,4.28,0,0,1,.1,1,5.38,5.38,0,0,1-2.28,4.51,8.66,8.66,0,0,1-5.39,1.59,15.25,15.25,0,0,1-5.87-1.36,18.46,18.46,0,0,1-.42-2.54,22.64,22.64,0,0,1-.19-2.63,1,1,0,0,1,.64-.22c.7,0,1.06.14,1.09.38a5,5,0,0,0,1.76,3.11,4.87,4.87,0,0,0,3.11,1.21A3.32,3.32,0,0,0,312,32a2.23,2.23,0,0,0,.85-1.86,3,3,0,0,0-.1-.85,2.24,2.24,0,0,0-.42-.78l-.52-.65a3.32,3.32,0,0,0-.81-.63l-.91-.54L309,26.1l-1.15-.63A10.63,10.63,0,0,1,304.59,23a4.88,4.88,0,0,1-1.09-3.28,4.9,4.9,0,0,1,2.25-4.26A8.81,8.81,0,0,1,310.88,14Z"/><path class="cls-2" d="M329.5,14.32a8.47,8.47,0,0,1,3.82.9,7.23,7.23,0,0,1,2.62,2.18,10.65,10.65,0,0,1,1.42,2.71,7.89,7.89,0,0,1,.46,2.68q0,1-.36,1.25a2.59,2.59,0,0,1-1.4.23l-10.91-.15c-.21,0-.32.09-.32.27a8.87,8.87,0,0,0,.55,3.2,6.26,6.26,0,0,0,2,2.72,5.37,5.37,0,0,0,3.43,1.19,12.47,12.47,0,0,0,1.33,0,6.79,6.79,0,0,0,1.19-.21l1-.28a3.89,3.89,0,0,0,.85-.4l.62-.38.92-.6a.75.75,0,0,1,.22.28.88.88,0,0,1,.13.46,1.4,1.4,0,0,1-.29.86A7.45,7.45,0,0,1,334,33.6a8.49,8.49,0,0,1-4.54,1.17,9.24,9.24,0,0,1-6.8-3,9.84,9.84,0,0,1-2.77-7.18,10.57,10.57,0,0,1,2.78-7.45A8.84,8.84,0,0,1,329.5,14.32Zm-.35,2.09a3.22,3.22,0,0,0-2,.61,4.28,4.28,0,0,0-1.34,1.53,8.68,8.68,0,0,0-.69,1.7,5.57,5.57,0,0,0-.22,1.34q0,.32.27.32l7.39.1q.41,0,.42-.68a5.92,5.92,0,0,0-1-3.25,3.27,3.27,0,0,0-2.83-1.66Z"/><path class="cls-2" d="M355,14.69q5.89.08,5.75,9.44l-.06,4.33a19.05,19.05,0,0,0,.26,4.11q.09.32,1.25.68a7,7,0,0,0,1.57.36c.09,0,.14.22.15.67a2.59,2.59,0,0,1-.08.89q-.27,0-2.39-.22a24.63,24.63,0,0,0-3.17-.18q-1.1,0-3,.09l-2.35.15a1.34,1.34,0,0,1-.17-.87q0-.68.19-.68a5.46,5.46,0,0,0,1.53-.32q1-.33,1.13-.65a13.13,13.13,0,0,0,.41-3.33l.06-4.33q0-3.79-1-5.31A3.67,3.67,0,0,0,351.82,18a4.22,4.22,0,0,0-2.57.76,2.19,2.19,0,0,0-1.12,1.7L348,28.28a19.07,19.07,0,0,0,.26,4.11q.09.32,1.2.68a6.59,6.59,0,0,0,1.48.36q.18,0,.2.67a2.59,2.59,0,0,1-.08.89q-.37,0-2.39-.22t-3.08-.18q-1.1,0-3.17.09t-2.44.15a1.34,1.34,0,0,1-.17-.87c0-.46.07-.68.19-.68a6.38,6.38,0,0,0,1.67-.32q1.12-.33,1.22-.64a14.91,14.91,0,0,0,.37-3.33l.11-7.44a4.34,4.34,0,0,0-.69-2.93,2.21,2.21,0,0,0-1-.7,5.32,5.32,0,0,0-1.09-.29c-.29,0-.43-.08-.43-.14q0-1.32.25-1.37a64.6,64.6,0,0,0,7.37-1.26.31.31,0,0,1,.11-.07h.25c.12,0,.23.11.32.32a1.38,1.38,0,0,1,.13.5,15.8,15.8,0,0,0-.21,1.64.36.36,0,0,0,0,.23.67.67,0,0,0,.23-.13,10.11,10.11,0,0,1,2.83-1.88A8,8,0,0,1,355,14.69Z"/><path class="cls-2" d="M369.3,18.08h-2.78c-.21,0-.31-.4-.3-1.19a1.14,1.14,0,0,1,0-.41,12.78,12.78,0,0,0,3.55-2.37l1.32-1.33q.72-.74,1.69-1.92a3.22,3.22,0,0,1,.87.13c.27.08.41.17.41.26L374,15.69l3.31.07,2.26.05q.36,0,.36.42a4.43,4.43,0,0,1-.49,2L374,18.15l-.16,11a4.34,4.34,0,0,0,.74,2.8,2.61,2.61,0,0,0,2.13,1,4.36,4.36,0,0,0,1-.1,4.85,4.85,0,0,0,.83-.24l.6-.27a1.39,1.39,0,0,1,.32-.13q.18,0,.41.42a.88.88,0,0,1,.17.6,4.19,4.19,0,0,1-2,1.46,7.2,7.2,0,0,1-3.27.8,5.76,5.76,0,0,1-4-1.58,6.11,6.11,0,0,1-1.6-4.75Z"/><path class="cls-2" d="M390.11,15.14a19.39,19.39,0,0,1,5.28.85,25.94,25.94,0,0,1,.43,5.12q0,.36-.6.36c-.67,0-1-.14-1.09-.38a5.53,5.53,0,0,0-1.31-2.73,3.57,3.57,0,0,0-2.75-1.16,3.27,3.27,0,0,0-2.08.56,2,2,0,0,0-.78,1.68,2.66,2.66,0,0,0,.23,1.17,2.83,2.83,0,0,0,.81,1,11.12,11.12,0,0,0,1,.75q.43.28,1.29.75a2.83,2.83,0,0,0,.45.23l.68.38.75.42.72.44a8.3,8.3,0,0,1,.79.54l.7.56a3.56,3.56,0,0,1,.67.65l.54.72a3,3,0,0,1,.47.83,8.71,8.71,0,0,1,.24.87,4.23,4.23,0,0,1,.1,1,5.38,5.38,0,0,1-2.28,4.51A8.68,8.68,0,0,1,389,35.8a15.27,15.27,0,0,1-5.87-1.36,18.44,18.44,0,0,1-.42-2.54,22.66,22.66,0,0,1-.19-2.63,1,1,0,0,1,.64-.22q1,0,1.09.38A5,5,0,0,0,386,32.54a4.86,4.86,0,0,0,3.11,1.21,3.31,3.31,0,0,0,2.11-.61,2.23,2.23,0,0,0,.85-1.86,3,3,0,0,0-.1-.85,2.24,2.24,0,0,0-.42-.78L391,29a3.31,3.31,0,0,0-.81-.63l-.9-.54-1.13-.61L387,26.6a10.63,10.63,0,0,1-3.21-2.49,4.88,4.88,0,0,1-1.09-3.28,4.9,4.9,0,0,1,2.3-4.26A8.8,8.8,0,0,1,390.11,15.14Z"/><path class="cls-2" d="M404.46,30.86a3,3,0,0,1,.86,2.16,3,3,0,0,1-.92,2.16,2.83,2.83,0,0,1-2.14.9,3.21,3.21,0,0,1-3.06-3.18,2.94,2.94,0,0,1,.94-2.13,3,3,0,0,1,2.2-.88A2.87,2.87,0,0,1,404.46,30.86Zm.2-14.08a2.9,2.9,0,0,1,.86,2.13,3.13,3.13,0,0,1-.92,2.18,2.8,2.8,0,0,1-2.14.93,2.92,2.92,0,0,1-2.18-1,3.09,3.09,0,0,1-.88-2.2,2.87,2.87,0,0,1,.94-2.11,3,3,0,0,1,2.2-.86A2.9,2.9,0,0,1,404.66,16.78Z"/></svg>