<svg id="Layer_1" data-name="Layer 1" xmlns="http://www.w3.org/2000/svg" viewBox="0 0 513.87 147.46"><defs><style>.cls-1{fill:#1928eb;}</style></defs><title>subtitle</title><path class="cls-1" d="M126.71,4.19A4.69,4.69,0,0,1,129.24.84a6.5,6.5,0,0,1,4.43-.73,10.44,10.44,0,0,1,1.42.36q.6.2,1.64.69l1.44.65a26.49,26.49,0,0,1-.49,4.57.32.32,0,0,1-.4.2q-.79-.15-.8-.42a5.24,5.24,0,0,0-.76-2.87,3.38,3.38,0,0,0-2.39-1.78,2.74,2.74,0,0,0-2.2.37A2.91,2.91,0,0,0,130,3.79a3.38,3.38,0,0,0-.05.85,2.09,2.09,0,0,0,.26.85l.38.72a3.5,3.5,0,0,0,.61.77l.63.66q.16.18.77.73a9,9,0,0,0,.74.64,11.1,11.1,0,0,0,.86.81q.71.63,1,.91a12.16,12.16,0,0,1,.8.92,4.31,4.31,0,0,1,.71,1.16A6.11,6.11,0,0,1,137,14.1a5,5,0,0,1-.05,1.58,4.83,4.83,0,0,1-2.61,3.5,6.88,6.88,0,0,1-4.65.7,27.76,27.76,0,0,1-5.22-1.83,25.81,25.81,0,0,1,0-2.73,20,20,0,0,1,.17-2.13c0-.15.22-.2.51-.15q.76.14.8.39a5.78,5.78,0,0,0,.19,1.23,8.65,8.65,0,0,0,.55,1.5,3.91,3.91,0,0,0,1.15,1.43,4.18,4.18,0,0,0,1.86.82,3.33,3.33,0,0,0,2.43-.39,3.2,3.2,0,0,0,1.37-2.28,2.59,2.59,0,0,0,0-1,3.44,3.44,0,0,0-.29-.87,4.39,4.39,0,0,0-.6-.84q-.41-.47-.69-.73l-.84-.75-.79-.68a2.1,2.1,0,0,0-.28-.29q-.75-.69-1.13-1.06t-1-1.07a5.92,5.92,0,0,1-.84-1.26,5.61,5.61,0,0,1-.4-1.34A4.47,4.47,0,0,1,126.71,4.19Z"/><path class="cls-1" d="M148.24,9.72a6,6,0,0,1,3.15,1.59A6.23,6.23,0,0,1,153.28,17a7,7,0,0,1-8.17,5.67,6.91,6.91,0,0,1-2-.8q-.12,0-.19.39l-.37,2a10.72,10.72,0,0,0-.26,2.67q0,.24.69.6a4.54,4.54,0,0,0,1,.41q.09,0,0,.44a2.66,2.66,0,0,1-.12.54l-1.55-.38q-1.34-.34-2-.46t-2.08-.3l-1.58-.21a1.07,1.07,0,0,1,0-.56c.05-.28.11-.42.17-.41a4.14,4.14,0,0,0,1.11,0q.76-.08.89-.3a10.75,10.75,0,0,0,.57-2.07l2.09-11.16a2.89,2.89,0,0,0-.11-2,1.35,1.35,0,0,0-.56-.54,3.61,3.61,0,0,0-.67-.29c-.19-.06-.28-.1-.28-.14.11-.56.22-.85.34-.84a22.81,22.81,0,0,0,4.51,0l.58,0q.12,0,0,.64a1.62,1.62,0,0,1-.12.34,6,6,0,0,1,1.43-.44A4.27,4.27,0,0,1,148.24,9.72Zm-1,1.42a2.25,2.25,0,0,0-1.67.26,2,2,0,0,0-.88,1.38l-1.13,6a1.83,1.83,0,0,0,.5,1.68,2.89,2.89,0,0,0,1.59.89,2.79,2.79,0,0,0,2.49-.8,5.74,5.74,0,0,0,1.57-3.28,7.68,7.68,0,0,0-.2-4.1A2.92,2.92,0,0,0,147.25,11.14Z"/><path class="cls-1" d="M162.34,12.33a5.52,5.52,0,0,1,2.35,1A4.72,4.72,0,0,1,166.13,15a6.91,6.91,0,0,1,.61,1.9,5.12,5.12,0,0,1,0,1.77c-.08.43-.2.68-.37.76a1.68,1.68,0,0,1-.92,0l-7-1.31c-.14,0-.22,0-.24.14a5.77,5.77,0,0,0,0,2.12,4.09,4.09,0,0,0,1,2,3.5,3.5,0,0,0,2.07,1.14,7.92,7.92,0,0,0,.86.11,4.36,4.36,0,0,0,.79,0l.65-.08a2.52,2.52,0,0,0,.59-.16l.44-.17.66-.29a.5.5,0,0,1,.11.2.57.57,0,0,1,0,.31.91.91,0,0,1-.28.52,4.83,4.83,0,0,1-2,1.25,5.51,5.51,0,0,1-3,.25,6,6,0,0,1-4-2.71,6.41,6.41,0,0,1-1-4.92,6.88,6.88,0,0,1,2.61-4.47A5.76,5.76,0,0,1,162.34,12.33Zm-.46,1.31a2.1,2.1,0,0,0-1.33.17,2.8,2.8,0,0,0-1,.83,5.64,5.64,0,0,0-.63,1,3.61,3.61,0,0,0-.29.84c0,.14,0,.22.14.24l4.73.89q.26,0,.34-.39a3.85,3.85,0,0,0-.3-2.2A2.13,2.13,0,0,0,161.88,13.64Z"/><path class="cls-1" d="M175.52,14.81a3.65,3.65,0,0,1,2.54,1.46,4.75,4.75,0,0,1,.29,3.43l-1.08,5.76a1.36,1.36,0,0,0,.1.94.89.89,0,0,0,.64.44,1.86,1.86,0,0,0,1.07-.19c.11.06.15.18.11.35a1.77,1.77,0,0,1-.34.84,7.35,7.35,0,0,1-1.31.51,3.1,3.1,0,0,1-1.47.12,2.17,2.17,0,0,1-1.22-.74,2.44,2.44,0,0,1-.64-1.24l-.25.15c-.15.08-.35.18-.6.3a8.7,8.7,0,0,1-.85.32,4.7,4.7,0,0,1-1.07.21,4.33,4.33,0,0,1-1.18-.06A3.55,3.55,0,0,1,168,26.15a2.82,2.82,0,0,1-.51-2.38,2.74,2.74,0,0,1,.58-1.25,3.54,3.54,0,0,1,1-.86,6.07,6.07,0,0,1,1.4-.54,12.34,12.34,0,0,1,1.47-.31l1.55-.18,1.31-.15a.47.47,0,0,0,.35-.42l.3-1.61a2.55,2.55,0,0,0-.17-1.69,1.55,1.55,0,0,0-1.15-.82,1.81,1.81,0,0,0-1.48.28,2.23,2.23,0,0,0-.78,1.44,1,1,0,0,1-.6.78,1.85,1.85,0,0,1-1,.09,1.68,1.68,0,0,1-1.39-1q.26-1.4,2.41-2.27A7.46,7.46,0,0,1,175.52,14.81Zm-3.42,11a2.31,2.31,0,0,0,1.44-.15,1.18,1.18,0,0,0,.75-.83l.56-3q-.22,0-.92.13t-1.07.16a8,8,0,0,0-.9.26,1.79,1.79,0,0,0-.81.51,1.64,1.64,0,0,0-.37.78,1.83,1.83,0,0,0,.21,1.46A1.71,1.71,0,0,0,172.1,25.78Z"/><path class="cls-1" d="M194.74,20.44q-.65.24-2.1,1A21,21,0,0,0,189.93,23q.68,1.07,1.69,2.77t1.68,2.8a14.23,14.23,0,0,0,.94,1.42,3.75,3.75,0,0,0,1,.8,3.65,3.65,0,0,0,.93.42c.08,0,.09.19,0,.52a1.74,1.74,0,0,1-.11.4l-3.39-.79-1.13-.18L190.32,31l-1.11-.13a.81.81,0,0,1,0-.55c.05-.27.12-.4.19-.39a2.11,2.11,0,0,0,.7,0q.4-.06.43-.21s0-.06,0-.06l-3.37-5.56-.37,0-.34,1.81a12.09,12.09,0,0,0-.26,2.67q0,.21.71.57a4.35,4.35,0,0,0,1,.41q.09,0,0,.44a1.67,1.67,0,0,1-.15.56l-1.53-.41q-1.33-.34-2-.47t-2-.29l-1.58-.18a.87.87,0,0,1,0-.58q.08-.44.2-.42a4.2,4.2,0,0,0,1.11,0c.5-.06.79-.15.85-.28a9.71,9.71,0,0,0,.6-2.09l2.28-12.13a11.78,11.78,0,0,0,.23-2q-.06-.49-1.43-.75l-.26,0q-.17,0-.09-.5c.06-.31.15-.46.26-.43q.92.08,1.77.09t1.41,0q.57,0,1-.12l.89-.14h.06c.08,0,.15.08.2.2a.81.81,0,0,1,.09.33,9.6,9.6,0,0,0-.87,2.68L187,22.77a2.7,2.7,0,0,0,.94-.16q.72-.44,1.55-.9l1.2-.67c.25-.14.5-.29.75-.45a2.66,2.66,0,0,0,.51-.4.7.7,0,0,0,.17-.33q.06-.32-.58-.52a2.91,2.91,0,0,1-.64-.23,1.33,1.33,0,0,1,0-.53c0-.2.1-.31.18-.31l2.83.53q.79.15,3.12.46a.46.46,0,0,1,.09.35,1.33,1.33,0,0,1-.1.44q-.08.2-.17.18A3.91,3.91,0,0,0,194.74,20.44Z"/><path class="cls-1" d="M204.16,29.26a11,11,0,0,0-.26,2.67q0,.21.71.57a4.39,4.39,0,0,0,1,.4q.12,0,.05.45a1.72,1.72,0,0,1-.15.56q-.2-.07-1.54-.41t-2-.46q-.73-.14-2.08-.3l-1.56-.17a.88.88,0,0,1,0-.58c.06-.29.12-.43.2-.42a4.3,4.3,0,0,0,1.09,0c.51-.06.8-.15.87-.28a9.7,9.7,0,0,0,.6-2.09l.89-4.76a2.83,2.83,0,0,0-.12-2,1.64,1.64,0,0,0-.59-.56,3.1,3.1,0,0,0-.67-.31q-.29-.08-.28-.14.16-.85.34-.84a22.72,22.72,0,0,0,2.43.09,23.21,23.21,0,0,0,2.41-.09h.25c.1,0,.16.1.2.25a.55.55,0,0,1,0,.33,25.21,25.21,0,0,0-.71,2.47Zm-.74-12.8a1.81,1.81,0,0,1-.28-1.38,1.76,1.76,0,0,1,.76-1.17,1.84,1.84,0,0,1,2.86,1.85,1.82,1.82,0,0,1-.77,1.19,1.83,1.83,0,0,1-2.57-.48Z"/><path class="cls-1" d="M219.23,23q3.77.71,2.64,6.7l-.52,2.77a12.49,12.49,0,0,0-.29,2.67q0,.22.72.57a4.52,4.52,0,0,0,1,.41c.06,0,.07.16,0,.44a1.7,1.7,0,0,1-.15.56q-.17-.06-1.51-.41t-2-.47q-.7-.13-2-.28l-1.53-.17a.87.87,0,0,1,0-.58q.08-.44.2-.42a3.55,3.55,0,0,0,1,0q.7-.1.8-.29a8.53,8.53,0,0,0,.63-2.09l.52-2.78a6.46,6.46,0,0,0,0-3.51,2.39,2.39,0,0,0-1.91-1.36,2.75,2.75,0,0,0-1.73.2,1.43,1.43,0,0,0-.91,1l-.94,5a12.44,12.44,0,0,0-.29,2.67q0,.22.7.57a4.27,4.27,0,0,0,.91.4q.12,0,.05.45a1.69,1.69,0,0,1-.15.56L213,35.21q-1.28-.33-2-.46t-2-.29l-1.58-.18a.87.87,0,0,1,0-.58q.08-.44.2-.42a4.15,4.15,0,0,0,1.11,0c.5-.06.79-.15.85-.28a9.71,9.71,0,0,0,.6-2.09l.89-4.76a2.83,2.83,0,0,0-.12-2,1.43,1.43,0,0,0-.58-.56,3.37,3.37,0,0,0-.67-.31c-.18-.05-.27-.1-.26-.14.11-.56.21-.85.31-.85a42.13,42.13,0,0,0,4.87,0l.08,0h.16q.12,0,.17.24a.91.91,0,0,1,0,.34,10.27,10.27,0,0,0-.31,1c0,.08,0,.13,0,.15a.44.44,0,0,0,.16-.06,6.56,6.56,0,0,1,2-.89A5.21,5.21,0,0,1,219.23,23Z"/><path class="cls-1" d="M232.61,25.58a9.4,9.4,0,0,1,2.35.83,9.15,9.15,0,0,0,2.27.82l1.67.31s.08.15.13.42a1.85,1.85,0,0,1,0,.61c-.05.27-.14.4-.25.38l-1.9-.36c-.08,0-.12,0-.13.07s0,.29.12.81a4.21,4.21,0,0,1,0,1.45,4.3,4.3,0,0,1-2,2.84,5.09,5.09,0,0,1-3.87.71,12.25,12.25,0,0,1-1.79-.46,1.6,1.6,0,0,0-.74.42,1.26,1.26,0,0,0-.43.66.61.61,0,0,0,.18.55,2,2,0,0,0,.81.45q.57.2,1,.3l1.16.28.44.08a10.5,10.5,0,0,1,4.13,1.61,2.34,2.34,0,0,1,1,2.4,4.68,4.68,0,0,1-2.82,3.4,8.12,8.12,0,0,1-5.24.68,7.73,7.73,0,0,1-3.57-1.52,2.67,2.67,0,0,1-1.14-2.69A2.32,2.32,0,0,1,225,39.17a4.93,4.93,0,0,1,2-.77,3.39,3.39,0,0,1-1.24-1.15,2.16,2.16,0,0,1-.35-1.65q.24-1.26,2.65-2.19a3.94,3.94,0,0,1-1.3-1.8,4.38,4.38,0,0,1-.28-2.52,4,4,0,0,1,2.13-3A5.91,5.91,0,0,1,232.61,25.58Zm1.16,16q.19-1-1.22-1.64a18.87,18.87,0,0,0-3.9-1.08h-.15l-.16.06c-.27,0-.48.1-.63.14a2.57,2.57,0,0,0-.53.23,1.44,1.44,0,0,0-.49.44,1.75,1.75,0,0,0-.26.68,2.08,2.08,0,0,0,.78,2,4.64,4.64,0,0,0,2.35,1.17,4.49,4.49,0,0,0,2.82-.26A2.32,2.32,0,0,0,233.77,41.62ZM229.59,29.4a4.71,4.71,0,0,0,.13,2.52,1.85,1.85,0,0,0,1.45,1.29,1.77,1.77,0,0,0,1.75-.53,4,4,0,0,0,.9-2,4.89,4.89,0,0,0-.11-2.62,1.9,1.9,0,0,0-1.51-1.28,1.68,1.68,0,0,0-1.72.62A4.32,4.32,0,0,0,229.59,29.4Z"/><path class="cls-1" d="M265.58,34a.86.86,0,0,0-.12-.64,1.3,1.3,0,0,0-.53-.46,5.36,5.36,0,0,0-.65-.27,4.34,4.34,0,0,0-.59-.16l-.12,0c-.08,0-.09-.17,0-.46s.1-.46.17-.51q.38.07,1.53.38t1.85.44c.41.08.94.15,1.58.21s1.11.12,1.4.17a1.86,1.86,0,0,1,0,.51c-.05.29-.12.43-.2.42a3.37,3.37,0,0,0-1.22.15,1.81,1.81,0,0,0-1.18.7L261.17,44a1.16,1.16,0,0,1-.47.35,1,1,0,0,1-.61.08.37.37,0,0,1-.34-.28l-2.05-8.73-4.56,7a1.6,1.6,0,0,1-.41.35.9.9,0,0,1-.67.12.44.44,0,0,1-.37-.28q-.39-1.65-.9-4t-1-4.16q-.45-1.81-1.07-4a1.37,1.37,0,0,0-.65-.73,2.86,2.86,0,0,0-.9-.38c-.08,0-.09-.18,0-.49s.12-.43.21-.47.68.16,1.46.36,1.39.35,1.84.44,1.12.18,2,.29l1.54.2a1.6,1.6,0,0,1,0,.54c0,.25-.1.38-.16.39a3.52,3.52,0,0,0-1,0c-.45.06-.69.22-.74.5q0,.06,1.66,7.27L255,36.7l.94-1.46.64-1q.32-.51.46-.78a1.58,1.58,0,0,0,.16-.35,2.17,2.17,0,0,0-.16-1.24,1.42,1.42,0,0,0-.55-.59,2.37,2.37,0,0,0-1-.37c-.08,0-.09-.16,0-.45s.12-.45.21-.49.69.16,1.43.36,1.34.34,1.81.43,1.07.17,1.92.27l1.51.19a1.46,1.46,0,0,1-.06.55c-.06.28-.12.42-.18.4q-1.49-.28-1.68.74a47.77,47.77,0,0,0,1.53,7q.7-1.14,1.69-2.66T265.06,35A4,4,0,0,0,265.58,34Z"/><path class="cls-1" d="M275.35,42.62a11,11,0,0,0-.26,2.67q0,.22.71.57a4.37,4.37,0,0,0,1,.41q.12,0,.05.45a1.7,1.7,0,0,1-.15.56l-1.54-.41q-1.34-.34-2-.46t-2.08-.3l-1.56-.17a.87.87,0,0,1,0-.58q.08-.44.2-.42a4.33,4.33,0,0,0,1.09,0c.51-.06.8-.15.87-.28a9.7,9.7,0,0,0,.61-2.09l.89-4.76a2.83,2.83,0,0,0-.12-2,1.64,1.64,0,0,0-.59-.56,3.13,3.13,0,0,0-.67-.31c-.19-.06-.28-.1-.28-.14q.16-.85.34-.84a22.72,22.72,0,0,0,2.43.09,23.37,23.37,0,0,0,2.41-.09h.25c.1,0,.16.1.19.25a.55.55,0,0,1,0,.33A25.21,25.21,0,0,0,276.4,37Zm-.74-12.8a1.81,1.81,0,0,1-.29-1.38A1.83,1.83,0,0,1,276.47,27a1.83,1.83,0,0,1,1.47,2.14,1.81,1.81,0,0,1-.77,1.19,1.83,1.83,0,0,1-2.57-.48Z"/><path class="cls-1" d="M282.16,36.94l-1.78-.33c-.14,0-.16-.29-.06-.8a.74.74,0,0,1,.08-.26,8.35,8.35,0,0,0,2.54-1.13l1-.71q.54-.4,1.3-1a2.09,2.09,0,0,1,.54.18c.17.08.24.15.23.21l-.54,2.86,2.12.41,1.44.29c.16,0,.22.13.18.31a2.89,2.89,0,0,1-.53,1.23l-3.51-.66-1.32,7a2.82,2.82,0,0,0,.16,1.88,1.7,1.7,0,0,0,1.26.87,2.84,2.84,0,0,0,.63,0,3.19,3.19,0,0,0,.56-.06l.41-.1.22,0c.08,0,.15.1.21.31a.69.69,0,0,1,0,.4,2.72,2.72,0,0,1-1.42.72,4.68,4.68,0,0,1-2.19.15,3.75,3.75,0,0,1-2.4-1.46,4,4,0,0,1-.5-3.22Z"/><path class="cls-1" d="M300.94,38.35q3.74.7,2.66,6.46l-.57,3a11,11,0,0,0-.26,2.67q0,.21.69.57a4.57,4.57,0,0,0,1,.41c.06,0,.07.16,0,.44a3.21,3.21,0,0,1-.12.57q-.2-.07-1.54-.41c-.89-.23-1.56-.38-2-.46s-1.15-.19-2-.28l-1.56-.17a1.11,1.11,0,0,1,0-.57c.06-.29.11-.43.17-.42a3.54,3.54,0,0,0,1,0q.7-.1.83-.28a11.27,11.27,0,0,0,.58-2.1l.54-2.86a6.2,6.2,0,0,0,0-3.47,2.43,2.43,0,0,0-1.92-1.31,2.85,2.85,0,0,0-1.7.19,1.4,1.4,0,0,0-.94,1l-.94,5a10.9,10.9,0,0,0-.26,2.67q0,.22.69.57a4.25,4.25,0,0,0,.94.4c.06,0,.07.16,0,.44a1.69,1.69,0,0,1-.15.56l-1.51-.41q-1.28-.33-2-.46t-2-.29l-1.58-.18a.86.86,0,0,1,0-.58c.06-.29.12-.43.2-.42a4.17,4.17,0,0,0,1.11,0c.5-.06.79-.15.85-.28a9.57,9.57,0,0,0,.6-2.07l2.28-12.15a11.68,11.68,0,0,0,.23-2q-.06-.49-1.43-.75l-.26,0q-.17,0-.09-.5c.06-.31.15-.46.26-.44q.92.08,1.77.09c.56,0,1,0,1.41,0s.71-.07,1-.12l.89-.14h.06c.08,0,.15.08.2.2a.85.85,0,0,1,.09.33,9.5,9.5,0,0,0-.87,2.68l-1.11,5.9c0,.12,0,.18.08.2s.06,0,.13-.07a5.67,5.67,0,0,1,2-.93A5.48,5.48,0,0,1,300.94,38.35Z"/><path class="cls-1" d="M326.8,36.61l3.26,16.46c.14.83.3,1.6.48,2.3a1.45,1.45,0,0,0,.8.88,4,4,0,0,0,1.06.47c.08,0,.08.2,0,.55a1,1,0,0,1-.14.43l-3.65-.87-3.83-.54a.84.84,0,0,1,0-.56c.05-.28.12-.42.2-.4a3.8,3.8,0,0,0,1,0,1.19,1.19,0,0,0,.81-.27.85.85,0,0,0,.16-.36,6.85,6.85,0,0,0-.18-2.12l-.51-2.91a.33.33,0,0,0-.18-.16q-.92-.23-2.5-.53t-3.35-.54c-.12,0-.18,0-.2.08L318.41,51a8.42,8.42,0,0,0-.91,1.79.66.66,0,0,0,.21.64,3,3,0,0,0,.86.49,5.11,5.11,0,0,0,.86.31c.05,0,.06.17,0,.43a1.93,1.93,0,0,1-.16.54l-1.36-.35q-1.21-.32-2-.46t-1.81-.26l-1.5-.17a.63.63,0,0,1,0-.46q.1-.53.16-.51a4.29,4.29,0,0,0,1.17,0,1.84,1.84,0,0,0,1.09-.39,14.08,14.08,0,0,0,1.54-2.07l7.9-12.13a6.44,6.44,0,0,1,1.48-1.9.76.76,0,0,1,.54-.11A.49.49,0,0,1,326.8,36.61Zm-5.55,10.21q1,.28,2.09.48t2.41.36l.08-.11-1.12-6.26-3.49,5.39C321.21,46.77,321.22,46.82,321.26,46.82Z"/><path class="cls-1" d="M346.33,46.87q3.77.71,2.64,6.7l-.52,2.78a12.35,12.35,0,0,0-.29,2.67q0,.22.72.57a4.54,4.54,0,0,0,1,.41c.06,0,.07.16,0,.44a1.69,1.69,0,0,1-.15.56q-.17-.06-1.51-.4t-2-.47q-.7-.13-2-.28l-1.53-.17a.87.87,0,0,1,0-.58q.08-.44.2-.42a3.53,3.53,0,0,0,1,0c.46-.06.73-.16.79-.29a8.53,8.53,0,0,0,.63-2.09l.52-2.78a6.46,6.46,0,0,0,0-3.51,2.39,2.39,0,0,0-1.91-1.36,2.75,2.75,0,0,0-1.73.2,1.43,1.43,0,0,0-.91,1l-.94,5a12.48,12.48,0,0,0-.29,2.67c0,.14.25.33.7.57a4.27,4.27,0,0,0,.91.4q.12,0,.05.45a1.7,1.7,0,0,1-.15.56l-1.51-.41q-1.28-.33-2-.46t-2-.29l-1.59-.18a.88.88,0,0,1,0-.58c.05-.29.12-.43.2-.42a4.17,4.17,0,0,0,1.11,0q.76-.09.85-.28a9.7,9.7,0,0,0,.6-2.09l.89-4.76a2.83,2.83,0,0,0-.12-2,1.43,1.43,0,0,0-.58-.56,3.35,3.35,0,0,0-.67-.31c-.18-.05-.27-.1-.26-.14.11-.56.21-.85.31-.85a42.14,42.14,0,0,0,4.87,0l.08,0h.16c.08,0,.13.1.17.24a.92.92,0,0,1,0,.34,10,10,0,0,0-.32,1,.23.23,0,0,0,0,.15.44.44,0,0,0,.16-.06,6.58,6.58,0,0,1,2-.89A5.21,5.21,0,0,1,346.33,46.87Z"/><path class="cls-1" d="M360.72,49.51a5.12,5.12,0,0,1,2.06.81q.15,0,.23-.44l.51-2.75a10.25,10.25,0,0,0,.2-2q-.06-.5-1.43-.75l-.23,0q-.18,0-.09-.5c.06-.31.15-.46.26-.44q.89.08,1.75.09t1.43,0c.38,0,.71-.07,1-.12l.64-.11.25,0h.06c.08,0,.15.08.2.2a.54.54,0,0,1,.06.33,11.38,11.38,0,0,0-.81,2.69L364.4,59.28a10.9,10.9,0,0,0-.23,2.19.44.44,0,0,0,.23.38,1.82,1.82,0,0,0,.53.25l.55.15.29.07a.61.61,0,0,1,0,.36q-.11.58-.29.55c-.28,0-.63-.06-1.06-.08l-1.26,0H362l-1.26,0q-.18,0-.08-.53l.09-.5a.13.13,0,0,0,0-.12.05.05,0,0,0-.07,0,5,5,0,0,1-3.24.51A5.76,5.76,0,0,1,353.59,60a6,6,0,0,1-.93-4.7,7,7,0,0,1,2.93-4.58A6.51,6.51,0,0,1,360.72,49.51Zm-.53,1.35a2.6,2.6,0,0,0-2.58.88,7,7,0,0,0-1.45,3.39,7.18,7.18,0,0,0,.18,4A2.92,2.92,0,0,0,358.62,61a2.47,2.47,0,0,0,1.7-.21,1.65,1.65,0,0,0,.86-1.19l1.15-6.14a2.06,2.06,0,0,0,0-.63,2.79,2.79,0,0,0-.22-.75,1.9,1.9,0,0,0-.67-.76A3.15,3.15,0,0,0,360.2,50.87Z"/><path class="cls-1" d="M378.19,52.85a3,3,0,0,1,2.21,1.41q-.47,2.48-1.87,2.22a1.77,1.77,0,0,1-1-.8,1.86,1.86,0,0,0-1.15-.82,1.59,1.59,0,0,0-1.59.65,4,4,0,0,0-.87,1.82L373.22,61a12.42,12.42,0,0,0-.29,2.67c0,.14.24.33.69.57a4.23,4.23,0,0,0,.94.4c.06,0,.07.16,0,.44a3.08,3.08,0,0,1-.12.57l-1.53-.41q-1.3-.33-2-.46t-2-.29l-1.58-.18a.87.87,0,0,1,0-.58q.08-.44.2-.42a4.15,4.15,0,0,0,1.11,0c.5-.06.79-.15.85-.28a9.7,9.7,0,0,0,.61-2.09l.89-4.76a2.83,2.83,0,0,0-.12-2,1.44,1.44,0,0,0-.58-.56,3.41,3.41,0,0,0-.67-.31c-.18-.05-.27-.1-.26-.14.11-.56.21-.85.31-.85a42.15,42.15,0,0,0,4.87,0h.24c.08,0,.13.1.17.24a.7.7,0,0,1,0,.35l-.12.4c-.06.18-.12.37-.18.57a3.92,3.92,0,0,0-.12.39,5.46,5.46,0,0,1,1.7-1.15A3.26,3.26,0,0,1,378.19,52.85Z"/><path class="cls-1" d="M388.49,54.78a5.51,5.51,0,0,1,2.35,1,4.71,4.71,0,0,1,1.44,1.69,6.91,6.91,0,0,1,.61,1.9,5.12,5.12,0,0,1,0,1.77q-.12.64-.37.76a1.69,1.69,0,0,1-.92,0l-7-1.31c-.14,0-.21,0-.24.14a5.76,5.76,0,0,0,0,2.12,4.08,4.08,0,0,0,1,2A3.5,3.5,0,0,0,387.42,66a8.12,8.12,0,0,0,.86.11,4.4,4.4,0,0,0,.79,0l.65-.08a2.53,2.53,0,0,0,.59-.16l.44-.17.66-.28a.46.46,0,0,1,.11.2.58.58,0,0,1,0,.31.92.92,0,0,1-.28.52,4.83,4.83,0,0,1-2,1.25,5.52,5.52,0,0,1-3,.25,6,6,0,0,1-4-2.71,6.41,6.41,0,0,1-1-4.92,6.88,6.88,0,0,1,2.61-4.47A5.76,5.76,0,0,1,388.49,54.78ZM388,56.09a2.1,2.1,0,0,0-1.33.17,2.81,2.81,0,0,0-1,.83,5.72,5.72,0,0,0-.63,1,3.61,3.61,0,0,0-.29.84q0,.21.14.24l4.73.89c.17,0,.29-.1.35-.39a3.85,3.85,0,0,0-.3-2.2A2.13,2.13,0,0,0,388,56.09Z"/><path class="cls-1" d="M401.67,57.26a3.65,3.65,0,0,1,2.54,1.46,4.76,4.76,0,0,1,.29,3.43l-1.08,5.76a1.35,1.35,0,0,0,.1.94.89.89,0,0,0,.64.44,1.85,1.85,0,0,0,1.06-.19c.11.06.15.18.12.35a1.76,1.76,0,0,1-.34.84,7.28,7.28,0,0,1-1.3.51,3.11,3.11,0,0,1-1.47.12,2.17,2.17,0,0,1-1.22-.74,2.44,2.44,0,0,1-.64-1.24l-.25.15q-.22.13-.6.3a8.58,8.58,0,0,1-.85.32,4.73,4.73,0,0,1-1.07.21,4.32,4.32,0,0,1-1.19-.06,3.55,3.55,0,0,1-2.23-1.25,2.83,2.83,0,0,1-.51-2.38,2.74,2.74,0,0,1,.58-1.25,3.57,3.57,0,0,1,1-.86,6.08,6.08,0,0,1,1.4-.54,12.29,12.29,0,0,1,1.46-.31l1.55-.18,1.31-.15a.47.47,0,0,0,.35-.42l.3-1.61a2.56,2.56,0,0,0-.17-1.7,1.55,1.55,0,0,0-1.15-.82,1.8,1.8,0,0,0-1.47.28,2.23,2.23,0,0,0-.79,1.44,1,1,0,0,1-.6.78,1.85,1.85,0,0,1-1,.09A1.68,1.68,0,0,1,395,60q.26-1.4,2.41-2.27A7.45,7.45,0,0,1,401.67,57.26Zm-3.42,11a2.3,2.3,0,0,0,1.43-.15,1.17,1.17,0,0,0,.75-.83l.56-3c-.15,0-.45.08-.92.13s-.82.11-1.07.16a8.2,8.2,0,0,0-.9.26,1.8,1.8,0,0,0-.81.51,1.63,1.63,0,0,0-.37.78,1.83,1.83,0,0,0,.21,1.46A1.71,1.71,0,0,0,398.25,68.23Z"/><path class="cls-1" d="M427.28,55.47l3.26,16.46q.22,1.25.48,2.3a1.44,1.44,0,0,0,.8.88,4,4,0,0,0,1.06.47c.08,0,.08.2,0,.55a1,1,0,0,1-.14.43l-3.65-.87-3.83-.54a.84.84,0,0,1,0-.56q.08-.42.2-.4a3.82,3.82,0,0,0,1,0,1.19,1.19,0,0,0,.81-.27.87.87,0,0,0,.16-.36,6.83,6.83,0,0,0-.18-2.12l-.51-2.91a.33.33,0,0,0-.18-.15q-.92-.23-2.5-.53t-3.35-.54c-.12,0-.18,0-.2.08l-1.62,2.51a8.46,8.46,0,0,0-.91,1.79.67.67,0,0,0,.21.64,3,3,0,0,0,.86.49,5.11,5.11,0,0,0,.86.31c.05,0,.06.17,0,.43a2,2,0,0,1-.16.54l-1.36-.35q-1.21-.32-2-.46T414.62,73l-1.49-.17a.63.63,0,0,1,0-.46c.07-.35.12-.52.16-.52a4.29,4.29,0,0,0,1.17,0,1.84,1.84,0,0,0,1.08-.39A14,14,0,0,0,417,69.4l7.9-12.13a6.44,6.44,0,0,1,1.48-1.9.76.76,0,0,1,.54-.11A.49.49,0,0,1,427.28,55.47Zm-5.55,10.21q1,.28,2.09.48t2.41.36l.08-.11-1.12-6.26-3.49,5.39C421.68,65.63,421.69,65.68,421.73,65.68Z"/><path class="cls-1" d="M445.81,65.54A3,3,0,0,1,448,67q-.47,2.48-1.87,2.22a1.77,1.77,0,0,1-1-.8,1.86,1.86,0,0,0-1.15-.82,1.59,1.59,0,0,0-1.59.65,4,4,0,0,0-.87,1.82l-.69,3.65a12.41,12.41,0,0,0-.29,2.67c0,.14.24.33.69.57a4.21,4.21,0,0,0,.94.4q.09,0,0,.44a3.21,3.21,0,0,1-.12.57l-1.53-.41q-1.3-.34-2-.46t-2-.29L435,77a.88.88,0,0,1,0-.58c.05-.29.12-.43.2-.42a4.13,4.13,0,0,0,1.11,0q.76-.08.85-.28a9.69,9.69,0,0,0,.61-2.09l.89-4.76a2.83,2.83,0,0,0-.12-2,1.43,1.43,0,0,0-.58-.56,3.39,3.39,0,0,0-.67-.31c-.18-.05-.27-.1-.26-.14q.16-.85.31-.85a42.12,42.12,0,0,0,4.87,0h.24c.08,0,.13.1.17.24a.7.7,0,0,1,0,.35l-.12.4c-.05.18-.12.37-.18.57a3.63,3.63,0,0,0-.12.39,5.43,5.43,0,0,1,1.7-1.15A3.26,3.26,0,0,1,445.81,65.54Z"/><path class="cls-1" d="M458.68,68a3,3,0,0,1,2.21,1.41q-.47,2.48-1.87,2.22a1.77,1.77,0,0,1-1-.8,1.86,1.86,0,0,0-1.15-.82,1.59,1.59,0,0,0-1.59.65,4,4,0,0,0-.87,1.82l-.69,3.65a12.4,12.4,0,0,0-.29,2.67c0,.14.24.33.69.57a4.18,4.18,0,0,0,.94.4q.09,0,0,.44a3.22,3.22,0,0,1-.12.57l-1.53-.41q-1.3-.33-2-.46t-2-.29l-1.59-.18a.88.88,0,0,1,0-.58c.05-.29.12-.43.2-.42a4.17,4.17,0,0,0,1.11,0q.76-.09.85-.28a9.7,9.7,0,0,0,.61-2.09l.89-4.76a2.83,2.83,0,0,0-.12-2,1.44,1.44,0,0,0-.58-.56,3.35,3.35,0,0,0-.67-.31c-.18-.05-.27-.1-.26-.14q.16-.85.31-.85a42.11,42.11,0,0,0,4.87,0h.25c.08,0,.13.1.17.24a.7.7,0,0,1,0,.35l-.12.4c-.06.18-.12.37-.18.57a3.53,3.53,0,0,0-.12.39,5.45,5.45,0,0,1,1.7-1.15A3.26,3.26,0,0,1,458.68,68Z"/><path class="cls-1" d="M475.15,74.32l-1.09,5.79a6.6,6.6,0,0,0-.15,2.09.63.63,0,0,0,.29.3,2.3,2.3,0,0,0,.49.21l.48.12a.56.56,0,0,1,.24.08c.07,0,.1.13.07.28a2.27,2.27,0,0,1-.13.38c-.07.18-.15.26-.23.24a7,7,0,0,0-1.06-.09l-1.25,0h-2.36q-.2,0-.12-.51l.24-1.29c0-.1,0-.15-.06-.16a6.64,6.64,0,0,1-2,1,5,5,0,0,1-2.42.15,3.1,3.1,0,0,1-1.64-.82,3.57,3.57,0,0,1-.93-1.51,6.41,6.41,0,0,1-.3-1.81,9.07,9.07,0,0,1,.16-1.88l.61-3.27a2.83,2.83,0,0,0-.12-2,1.66,1.66,0,0,0-.59-.56,3.14,3.14,0,0,0-.67-.31c-.19-.06-.28-.1-.28-.14.11-.56.21-.85.31-.85a22.4,22.4,0,0,0,2.46.1,23.37,23.37,0,0,0,2.41-.09h.25c.1,0,.16.1.18.25a1.1,1.1,0,0,1,0,.33q-.64,1.94-.75,2.52l-.66,3.51a6.38,6.38,0,0,0,0,3.39,2.63,2.63,0,0,0,3.57,1.11,1.59,1.59,0,0,0,.85-1l.9-4.82a2.84,2.84,0,0,0-.12-2,1.45,1.45,0,0,0-.58-.56,3.34,3.34,0,0,0-.68-.31c-.19-.06-.28-.1-.28-.14q.16-.85.34-.84a22.86,22.86,0,0,0,2.43.09,23.39,23.39,0,0,0,2.41-.09h.24c.1,0,.16.1.2.25a.55.55,0,0,1,0,.33Q475.25,73.79,475.15,74.32Z"/><path class="cls-1" d="M486.94,73.27A6,6,0,0,1,490,74.8a6.24,6.24,0,0,1,1.75,2.75,6.34,6.34,0,0,1,.19,3.08A6.79,6.79,0,0,1,489,85.14,6.56,6.56,0,0,1,484,86.29a9.29,9.29,0,0,1-2.09-.62,6.52,6.52,0,0,0-1.33-.48,2.27,2.27,0,0,0-.8.06,2.9,2.9,0,0,1-.62.09,1.42,1.42,0,0,1-.39-.25c-.2-.16-.3-.28-.28-.36s.06-.23.16-.52.22-.69.38-1.23a17.11,17.11,0,0,0,.42-1.77l2.24-11.92a10.34,10.34,0,0,0,.2-2q-.06-.49-1.43-.75l-.26,0q-.18,0-.09-.5c.06-.31.15-.46.26-.43q.92.08,1.77.09t1.41,0c.38,0,.71-.07,1-.12l.89-.14h.06c.08,0,.15.08.2.2a.85.85,0,0,1,.09.33,10.31,10.31,0,0,0-.84,2.69L484,73.26v0l0,.13a.83.83,0,0,0,0,.13c0,.06,0,.09,0,.1h.11a5.43,5.43,0,0,1,1.29-.36A4.28,4.28,0,0,1,486.94,73.27ZM486,74.72a2.3,2.3,0,0,0-1.68.26,1.75,1.75,0,0,0-.86,1.2l-1.16,6.19a1.78,1.78,0,0,0,.48,1.69,3.23,3.23,0,0,0,1.73.87,2.53,2.53,0,0,0,2.55-.94,6.81,6.81,0,0,0,1.4-3.19,7.64,7.64,0,0,0-.16-4.14A2.91,2.91,0,0,0,486,74.72Z"/><path class="cls-1" d="M498.58,84.46a12.27,12.27,0,0,0-.29,2.67q0,.22.63.59a3.28,3.28,0,0,0,.84.42c.06,0,.07.15,0,.43a1.61,1.61,0,0,1-.15.55l-1.08-.28-1.23-.31-1-.23-1.12-.18L493.93,88l-1.12-.13a.83.83,0,0,1,0-.56c.05-.28.12-.42.2-.4a3.18,3.18,0,0,0,1-.06q.7-.12.8-.32a9.76,9.76,0,0,0,.64-2.12l2.28-12.16a10.33,10.33,0,0,0,.2-2q-.06-.49-1.37-.74l-.29-.05q-.18,0-.11-.38c.06-.31.15-.46.26-.44q.92.08,1.77.09t1.41,0l1-.1.67-.1.22,0h.06c.08,0,.15.09.22.22a.94.94,0,0,1,.11.32,9.38,9.38,0,0,0-.87,2.68Z"/><path class="cls-1" d="M510.19,77.63a3.65,3.65,0,0,1,2.54,1.46,4.75,4.75,0,0,1,.29,3.43l-1.08,5.76a1.35,1.35,0,0,0,.1.94.89.89,0,0,0,.64.44,1.86,1.86,0,0,0,1.07-.19c.11.06.15.18.12.35a1.76,1.76,0,0,1-.34.84,7.34,7.34,0,0,1-1.3.51,3.11,3.11,0,0,1-1.47.12,2.17,2.17,0,0,1-1.22-.74,2.44,2.44,0,0,1-.64-1.24l-.25.15q-.22.13-.6.3a8.48,8.48,0,0,1-.85.32,4.73,4.73,0,0,1-1.07.21,4.33,4.33,0,0,1-1.18-.06A3.55,3.55,0,0,1,502.69,89a2.83,2.83,0,0,1-.51-2.38,2.74,2.74,0,0,1,.58-1.25,3.57,3.57,0,0,1,1-.86,6.09,6.09,0,0,1,1.4-.54,12.26,12.26,0,0,1,1.47-.31l1.54-.18,1.31-.15a.47.47,0,0,0,.35-.42l.3-1.61a2.56,2.56,0,0,0-.17-1.69,1.55,1.55,0,0,0-1.15-.82,1.8,1.8,0,0,0-1.47.28,2.23,2.23,0,0,0-.78,1.44,1,1,0,0,1-.6.78,1.85,1.85,0,0,1-1,.09,1.67,1.67,0,0,1-1.39-1q.26-1.4,2.41-2.27A7.46,7.46,0,0,1,510.19,77.63Zm-3.42,11a2.3,2.3,0,0,0,1.44-.15,1.18,1.18,0,0,0,.75-.83l.56-3c-.15,0-.45.08-.92.13s-.82.11-1.07.16a8,8,0,0,0-.9.26,1.8,1.8,0,0,0-.81.51,1.63,1.63,0,0,0-.37.78,1.83,1.83,0,0,0,.21,1.46A1.71,1.71,0,0,0,506.76,88.6Z"/><path class="cls-1" d="M6.53,68.19a3.65,3.65,0,0,1,2.73,1.05,4.75,4.75,0,0,1,.82,3.34L9.9,78.43a1.35,1.35,0,0,0,.24.91.89.89,0,0,0,.7.33,1.86,1.86,0,0,0,1-.36c.12,0,.17.15.17.33a1.78,1.78,0,0,1-.21.89,7.42,7.42,0,0,1-1.21.71,3.09,3.09,0,0,1-1.44.34A2.17,2.17,0,0,1,7.86,81,2.45,2.45,0,0,1,7,79.92l-.23.19q-.2.16-.55.38a8.52,8.52,0,0,1-.79.45,4.71,4.71,0,0,1-1,.37,4.32,4.32,0,0,1-1.18.13,3.55,3.55,0,0,1-2.4-.89A2.83,2.83,0,0,1,0,78.28,2.75,2.75,0,0,1,.38,77a3.55,3.55,0,0,1,.85-1,6.07,6.07,0,0,1,1.3-.75,12.3,12.3,0,0,1,1.4-.54l1.5-.41,1.27-.35A.47.47,0,0,0,7,73.44L7,71.8a2.55,2.55,0,0,0-.43-1.65,1.55,1.55,0,0,0-1.26-.63A1.8,1.8,0,0,0,3.94,70a2.22,2.22,0,0,0-.55,1.54,1,1,0,0,1-.47.86,1.85,1.85,0,0,1-1,.25,1.68,1.68,0,0,1-1.52-.76q0-1.43,2-2.62A7.46,7.46,0,0,1,6.53,68.19ZM4.84,79.56a2.31,2.31,0,0,0,1.39-.37,1.18,1.18,0,0,0,.61-.93l.09-3q-.21.08-.89.27t-1,.33a8.26,8.26,0,0,0-.84.39,1.79,1.79,0,0,0-.72.63,1.65,1.65,0,0,0-.25.83,1.83,1.83,0,0,0,.43,1.41A1.71,1.71,0,0,0,4.84,79.56Z"/><path class="cls-1" d="M21.6,68.65a6,6,0,0,1,3.28,1A6.24,6.24,0,0,1,27,72.13a6.35,6.35,0,0,1,.67,3,6.79,6.79,0,0,1-2.22,4.91A6.55,6.55,0,0,1,20.66,82a9.34,9.34,0,0,1-2.16-.29,6.49,6.49,0,0,0-1.39-.27,2.26,2.26,0,0,0-.78.18,2.93,2.93,0,0,1-.6.19,1.42,1.42,0,0,1-.43-.19c-.22-.13-.33-.23-.33-.31s0-.24.08-.53.11-.72.19-1.27a16.78,16.78,0,0,0,.14-1.81l.37-12.12a10.42,10.42,0,0,0-.12-2Q15.49,63,14.1,63h-.27q-.18,0-.16-.48t.19-.47q.92-.06,1.76-.18T17,61.61q.56-.13,1-.27l.86-.27h.06c.08,0,.16.06.23.17a.8.8,0,0,1,.14.32,10.41,10.41,0,0,0-.41,2.78l-.15,4.75v.16a.8.8,0,0,0,0,.13c0,.06,0,.09.06.09l.1,0a5.44,5.44,0,0,1,1.22-.56A4.26,4.26,0,0,1,21.6,68.65Zm-.7,1.58a2.31,2.31,0,0,0-1.62.52,1.75,1.75,0,0,0-.66,1.32l-.19,6.3a1.78,1.78,0,0,0,.74,1.6,3.22,3.22,0,0,0,1.84.59,2.53,2.53,0,0,0,2.38-1.33,6.81,6.81,0,0,0,.89-3.36,7.66,7.66,0,0,0-.8-4.07A2.91,2.91,0,0,0,20.9,70.23Z"/><path class="cls-1" d="M36.64,69.11a6.55,6.55,0,0,1,4.71,2.09A6.37,6.37,0,0,1,43.18,76a6.67,6.67,0,0,1-6.92,6.48,6.51,6.51,0,0,1-4.72-2.11,6.69,6.69,0,0,1,.27-9.45A6.51,6.51,0,0,1,36.64,69.11Zm-.43,1.39A2.39,2.39,0,0,0,34,71.78a6.39,6.39,0,0,0-.87,3.2A8.67,8.67,0,0,0,34,79.2a3,3,0,0,0,2.63,1.86,2.42,2.42,0,0,0,2.23-1.3,6.32,6.32,0,0,0,.89-3.19,10.24,10.24,0,0,0-.3-2.88,5.24,5.24,0,0,0-1.18-2.25A2.75,2.75,0,0,0,36.21,70.49Z"/><path class="cls-1" d="M58.18,73,58,78.86a6.62,6.62,0,0,0,.17,2.09.62.62,0,0,0,.33.25,2.29,2.29,0,0,0,.52.13l.49,0a.55.55,0,0,1,.25,0c.08,0,.12.11.11.27a2.23,2.23,0,0,1-.07.4c0,.19-.11.28-.19.28a6.91,6.91,0,0,0-1.06.07l-1.24.17-1.14.19L55,83q-.21,0-.19-.48l0-1.31c0-.1,0-.15-.08-.15a6.63,6.63,0,0,1-1.85,1.28,5,5,0,0,1-2.37.52,3.11,3.11,0,0,1-1.75-.56A3.59,3.59,0,0,1,47.63,81a6.39,6.39,0,0,1-.57-1.74,9.13,9.13,0,0,1-.14-1.88L47,74a2.83,2.83,0,0,0-.42-1.92,1.64,1.64,0,0,0-.67-.47,3.13,3.13,0,0,0-.71-.2c-.2,0-.3-.06-.29-.1q0-.86.18-.89a22.32,22.32,0,0,0,2.45-.28,23.37,23.37,0,0,0,2.36-.46l.12,0,.12,0q.15,0,.22.21a1.08,1.08,0,0,1,.06.33,26.27,26.27,0,0,0-.35,2.61L50,76.36a6.37,6.37,0,0,0,.55,3.35,2.62,2.62,0,0,0,3.7.54,1.58,1.58,0,0,0,.69-1.09l.15-4.9a2.83,2.83,0,0,0-.42-1.92,1.43,1.43,0,0,0-.66-.47,3.37,3.37,0,0,0-.72-.2c-.2,0-.3-.06-.29-.1,0-.57.09-.87.21-.89a22.82,22.82,0,0,0,2.42-.28A23.37,23.37,0,0,0,58,69.94l.24-.05c.1,0,.18.08.23.22a.55.55,0,0,1,0,.33Q58.2,72.44,58.18,73Z"/><path class="cls-1" d="M63.75,72,61.94,72c-.14,0-.2-.26-.18-.78a.75.75,0,0,1,0-.27,8.3,8.3,0,0,0,2.34-1.5l.87-.85q.48-.48,1.12-1.23a2.11,2.11,0,0,1,.56.09c.18.06.26.11.26.17l-.09,2.91,2.15.08,1.47.06c.16,0,.24.1.23.27a2.89,2.89,0,0,1-.34,1.3l-3.57-.11-.22,7.16A2.82,2.82,0,0,0,67,81.1a1.7,1.7,0,0,0,1.38.67,2.77,2.77,0,0,0,.63-.06,3.14,3.14,0,0,0,.54-.15L70,81.4l.21-.08c.08,0,.17.07.26.28s.13.33.11.39a2.73,2.73,0,0,1-1.29.93,4.68,4.68,0,0,1-2.14.48,3.75,3.75,0,0,1-2.6-1.08,4,4,0,0,1-1-3.11Z"/><path class="cls-1" d="M81,72.54l-1.81-.06q-.21,0-.18-.78a.74.74,0,0,1,0-.27,8.31,8.31,0,0,0,2.34-1.5l.87-.85q.48-.48,1.12-1.23a2.11,2.11,0,0,1,.56.09c.18.06.26.11.26.17L84.08,71l2.15.08,1.47.06c.16,0,.23.1.23.27a2.89,2.89,0,0,1-.34,1.3L84,72.64l-.22,7.16a2.83,2.83,0,0,0,.45,1.83,1.7,1.7,0,0,0,1.38.67,2.83,2.83,0,0,0,.63-.06,3.11,3.11,0,0,0,.54-.15l.39-.17.21-.08c.08,0,.17.07.26.27a.71.71,0,0,1,.11.39,2.73,2.73,0,0,1-1.29.93,4.69,4.69,0,0,1-2.14.48,3.75,3.75,0,0,1-2.6-1.08,4,4,0,0,1-1-3.11Z"/><path class="cls-1" d="M99.73,71q3.8.12,3.62,6l-.09,3.06a10.94,10.94,0,0,0,.16,2.68q0,.21.77.46a4.56,4.56,0,0,0,1,.25q.09,0,.09.43a3,3,0,0,1,0,.58l-1.58-.17q-1.38-.13-2-.15t-2,0l-1.56.07a1.11,1.11,0,0,1-.07-.57c0-.3,0-.44.1-.44a3.57,3.57,0,0,0,1-.19q.68-.2.77-.41a11.32,11.32,0,0,0,.24-2.16l.09-2.91a6.19,6.19,0,0,0-.56-3.42,2.43,2.43,0,0,0-2.1-1,2.84,2.84,0,0,0-1.65.46,1.4,1.4,0,0,0-.78,1.11L95,79.81a10.88,10.88,0,0,0,.16,2.68c0,.14.29.29.77.46a4.21,4.21,0,0,0,1,.25q.09,0,.09.43a1.67,1.67,0,0,1-.06.58L95.39,84q-1.32-.13-2-.15t-2.07,0L89.73,84a.88.88,0,0,1-.1-.57c0-.3.05-.44.13-.44a4.16,4.16,0,0,0,1.09-.19c.49-.13.76-.27.8-.41a9.63,9.63,0,0,0,.27-2.13l.38-12.36a11.72,11.72,0,0,0-.09-2q-.14-.48-1.53-.52h-.27c-.12,0-.17-.16-.16-.48s.07-.47.19-.47q.92-.06,1.76-.18t1.39-.25q.56-.13,1-.27l.86-.27h.06a.32.32,0,0,1,.23.17.82.82,0,0,1,.14.32,9.6,9.6,0,0,0-.44,2.78l-.18,6c0,.12,0,.18.11.18s.06,0,.12-.09a5.66,5.66,0,0,1,1.87-1.24A5.48,5.48,0,0,1,99.73,71Z"/><path class="cls-1" d="M113.59,71.46a5.52,5.52,0,0,1,2.48.63,4.71,4.71,0,0,1,1.68,1.45,6.92,6.92,0,0,1,.9,1.78,5.11,5.11,0,0,1,.27,1.75c0,.44-.1.71-.25.81a1.68,1.68,0,0,1-.91.14l-7.1-.22c-.14,0-.21.05-.21.17a5.75,5.75,0,0,0,.32,2.09A4.09,4.09,0,0,0,112,81.85a3.5,3.5,0,0,0,2.22.81,8,8,0,0,0,.86,0,4.47,4.47,0,0,0,.78-.12l.63-.17a2.54,2.54,0,0,0,.56-.25l.41-.24.61-.38a.47.47,0,0,1,.14.18.58.58,0,0,1,.08.3.92.92,0,0,1-.2.56,4.84,4.84,0,0,1-1.8,1.55,5.51,5.51,0,0,1-3,.71,6,6,0,0,1-4.4-2.05A6.41,6.41,0,0,1,107.23,78a6.88,6.88,0,0,1,1.89-4.82A5.76,5.76,0,0,1,113.59,71.46Zm-.25,1.36a2.1,2.1,0,0,0-1.29.38,2.8,2.8,0,0,0-.89,1,5.63,5.63,0,0,0-.46,1.1,3.61,3.61,0,0,0-.16.87c0,.14.05.21.17.21l4.81.15c.18,0,.27-.14.28-.44a3.84,3.84,0,0,0-.63-2.13A2.13,2.13,0,0,0,113.34,72.82Z"/><path class="cls-1" d="M137,72.17a3.21,3.21,0,0,1,1.91.64A3.48,3.48,0,0,1,140,74.35a7,7,0,0,1,2.21-1.42,6.67,6.67,0,0,1,2.81-.51,3.37,3.37,0,0,1,1.81.53A3.28,3.28,0,0,1,148,74.31a7,7,0,0,1,.57,1.86,11.34,11.34,0,0,1,.13,2.16l-.1,3.12a12.43,12.43,0,0,0,.13,2.68q.05.21.79.46a4.37,4.37,0,0,0,1,.25c.06,0,.09.15.09.43a1.67,1.67,0,0,1-.06.58L149,85.69q-1.35-.13-2-.15t-2,0l-1.59.07a1.13,1.13,0,0,1-.07-.57c0-.3,0-.44.1-.44a4,4,0,0,0,1.08-.19q.72-.2.79-.41a9.27,9.27,0,0,0,.27-2.07l.09-3q.13-4.31-2.63-4.39a2.71,2.71,0,0,0-1.65.43,1.86,1.86,0,0,0-.8.9c0,.06,0,.14,0,.24a.58.58,0,0,0,0,.24,14.55,14.55,0,0,1,0,1.85l-.1,3.15a11.66,11.66,0,0,0,.13,2.56q.05.21.79.46a4.37,4.37,0,0,0,1,.25c.06,0,.09.15.09.43a1.65,1.65,0,0,1-.06.58l-1.56-.17q-1.35-.13-2-.15t-2,0l-1.59.07a1.12,1.12,0,0,1-.07-.57c0-.3,0-.44.1-.44a4,4,0,0,0,1.08-.19c.48-.13.74-.27.79-.41a9.7,9.7,0,0,0,.27-2.16l.09-2.85a6.31,6.31,0,0,0-.58-3.38,2.27,2.27,0,0,0-2-1.1,2.84,2.84,0,0,0-1.65.46,1.4,1.4,0,0,0-.78,1.11L132.29,81a10.94,10.94,0,0,0,.16,2.68q.05.21.76.46a4.05,4.05,0,0,0,1,.25c.08,0,.12.15.12.43a1.68,1.68,0,0,1-.06.58l-1.56-.17q-1.32-.13-2-.15t-2.08,0l-1.58.07a.88.88,0,0,1-.1-.57c0-.3.05-.44.13-.44a4.32,4.32,0,0,0,1.08-.19q.75-.2.82-.41a9.7,9.7,0,0,0,.27-2.16l.15-4.84a2.83,2.83,0,0,0-.42-1.92,1.44,1.44,0,0,0-.66-.47,3.28,3.28,0,0,0-.72-.2c-.2,0-.29-.06-.29-.1q0-.86.21-.89a41.08,41.08,0,0,0,4.78-.75.19.19,0,0,1,.09,0h.15q.15,0,.23.22a.55.55,0,0,1,0,.33,10.13,10.13,0,0,0-.15,1.07c0,.08,0,.13.06.15a.45.45,0,0,0,.15-.08,6.6,6.6,0,0,1,1.87-1.19A5.21,5.21,0,0,1,137,72.17Z"/><path class="cls-1" d="M158.75,72.84a5.52,5.52,0,0,1,2.48.63,4.71,4.71,0,0,1,1.68,1.45,6.88,6.88,0,0,1,.9,1.78,5.11,5.11,0,0,1,.27,1.75c0,.44-.1.71-.25.81a1.69,1.69,0,0,1-.91.14l-7.1-.22c-.14,0-.21.05-.21.17a5.75,5.75,0,0,0,.32,2.09,4.09,4.09,0,0,0,1.27,1.79,3.5,3.5,0,0,0,2.22.81,8.22,8.22,0,0,0,.86,0,4.44,4.44,0,0,0,.78-.12l.63-.17a2.52,2.52,0,0,0,.56-.25l.41-.24.61-.38a.46.46,0,0,1,.14.18.58.58,0,0,1,.08.3.91.91,0,0,1-.2.56,4.83,4.83,0,0,1-1.8,1.55,5.51,5.51,0,0,1-3,.71,6,6,0,0,1-4.4-2.05,6.41,6.41,0,0,1-1.73-4.71,6.88,6.88,0,0,1,1.89-4.82A5.76,5.76,0,0,1,158.75,72.84Zm-.25,1.36a2.11,2.11,0,0,0-1.29.38,2.81,2.81,0,0,0-.89,1,5.73,5.73,0,0,0-.47,1.1,3.68,3.68,0,0,0-.16.87c0,.14.05.21.17.21l4.81.15c.18,0,.27-.14.28-.44a3.84,3.84,0,0,0-.63-2.13A2.13,2.13,0,0,0,158.5,74.2Z"/><path class="cls-1" d="M172.15,73.25a3.65,3.65,0,0,1,2.73,1.05,4.75,4.75,0,0,1,.82,3.34l-.18,5.85a1.36,1.36,0,0,0,.24.91.89.89,0,0,0,.7.33,1.86,1.86,0,0,0,1-.36c.12,0,.17.15.17.33a1.78,1.78,0,0,1-.21.89,7.42,7.42,0,0,1-1.21.71,3.09,3.09,0,0,1-1.44.34,2.17,2.17,0,0,1-1.32-.55,2.44,2.44,0,0,1-.83-1.12l-.23.19q-.2.16-.55.38a8.63,8.63,0,0,1-.79.45,4.73,4.73,0,0,1-1,.37,4.33,4.33,0,0,1-1.18.13,3.55,3.55,0,0,1-2.4-.89,2.83,2.83,0,0,1-.87-2.27A2.75,2.75,0,0,1,166,82a3.58,3.58,0,0,1,.85-1,6.09,6.09,0,0,1,1.3-.75,12.3,12.3,0,0,1,1.4-.54l1.5-.42,1.27-.35a.47.47,0,0,0,.28-.47l0-1.63a2.56,2.56,0,0,0-.43-1.65,1.55,1.55,0,0,0-1.26-.63,1.8,1.8,0,0,0-1.41.51,2.23,2.23,0,0,0-.55,1.54,1,1,0,0,1-.47.86,1.85,1.85,0,0,1-1,.25A1.68,1.68,0,0,1,166,77q0-1.43,2-2.62A7.46,7.46,0,0,1,172.15,73.25Zm-1.69,11.37a2.3,2.3,0,0,0,1.39-.37,1.17,1.17,0,0,0,.61-.93l.09-3c-.14.06-.44.15-.89.27s-.79.23-1,.33a8.16,8.16,0,0,0-.85.39,1.79,1.79,0,0,0-.72.63,1.64,1.64,0,0,0-.25.83,1.83,1.83,0,0,0,.43,1.41A1.71,1.71,0,0,0,170.47,84.62Z"/><path class="cls-1" d="M189.37,73.78q3.83.12,3.65,6.21l-.09,2.82a12.37,12.37,0,0,0,.13,2.68q.05.21.8.46a4.53,4.53,0,0,0,1,.25c.06,0,.09.15.09.43a1.67,1.67,0,0,1-.06.58c-.12,0-.64-.08-1.56-.17s-1.61-.14-2.06-.15-1.13,0-2,0l-1.53.07a.88.88,0,0,1-.1-.57c0-.3.05-.44.13-.44a3.56,3.56,0,0,0,1-.19q.68-.2.74-.41a8.55,8.55,0,0,0,.3-2.16l.09-2.82a6.46,6.46,0,0,0-.56-3.47,2.39,2.39,0,0,0-2.1-1,2.75,2.75,0,0,0-1.68.47,1.43,1.43,0,0,0-.75,1.09l-.16,5.11a12.43,12.43,0,0,0,.13,2.68q.05.21.77.46a4.25,4.25,0,0,0,1,.25c.08,0,.12.15.12.44a1.68,1.68,0,0,1-.06.58l-1.56-.17q-1.32-.13-2-.15t-2.07,0l-1.59.07a.88.88,0,0,1-.1-.57c0-.3.05-.44.13-.44a4.13,4.13,0,0,0,1.09-.19q.74-.2.8-.41a9.7,9.7,0,0,0,.27-2.16l.15-4.84a2.83,2.83,0,0,0-.42-1.92,1.44,1.44,0,0,0-.66-.47,3.38,3.38,0,0,0-.71-.2c-.19,0-.28-.06-.28-.1q0-.86.18-.89a42,42,0,0,0,4.81-.75l.08,0h.16c.08,0,.15.07.2.21a.91.91,0,0,1,.08.33,9.87,9.87,0,0,0-.15,1.07.23.23,0,0,0,0,.15.43.43,0,0,0,.15-.08,6.62,6.62,0,0,1,1.87-1.19A5.21,5.21,0,0,1,189.37,73.78Z"/><path class="cls-1" d="M202.32,83.09a10.94,10.94,0,0,0,.16,2.68q.05.21.79.46a4.38,4.38,0,0,0,1,.25c.08,0,.12.15.12.44a1.68,1.68,0,0,1-.06.58l-1.59-.17q-1.38-.13-2-.15t-2.1,0l-1.56.07a.88.88,0,0,1-.1-.57c0-.3.05-.44.13-.44a4.31,4.31,0,0,0,1.08-.19q.75-.2.82-.41a9.71,9.71,0,0,0,.27-2.16l.15-4.84a2.83,2.83,0,0,0-.42-1.92,1.65,1.65,0,0,0-.67-.47,3.14,3.14,0,0,0-.71-.2c-.2,0-.29-.06-.29-.1q0-.86.21-.89a22.81,22.81,0,0,0,2.42-.28,23.42,23.42,0,0,0,2.36-.46l.24-.05q.15,0,.23.22a.55.55,0,0,1,0,.33,25.36,25.36,0,0,0-.32,2.55Zm-2.71-12.53a1.81,1.81,0,0,1-.5-1.32,1.76,1.76,0,0,1,.58-1.28,1.84,1.84,0,0,1,3.11,1.39,1.81,1.81,0,0,1-.58,1.29,1.83,1.83,0,0,1-2.62-.08Z"/><path class="cls-1" d="M216.24,74.6q3.83.12,3.65,6.21l-.09,2.82a12.37,12.37,0,0,0,.13,2.68q.05.21.8.46a4.53,4.53,0,0,0,1,.25c.06,0,.09.15.09.43a1.67,1.67,0,0,1-.06.58c-.12,0-.64-.08-1.56-.17s-1.61-.14-2.06-.15-1.13,0-2,0l-1.53.07a.88.88,0,0,1-.1-.57c0-.3.05-.44.13-.44a3.55,3.55,0,0,0,1-.19q.68-.2.74-.41a8.55,8.55,0,0,0,.3-2.16l.09-2.82a6.46,6.46,0,0,0-.56-3.47,2.39,2.39,0,0,0-2.1-1,2.75,2.75,0,0,0-1.68.47,1.43,1.43,0,0,0-.75,1.09l-.16,5.11a12.43,12.43,0,0,0,.13,2.68q.05.21.77.46a4.28,4.28,0,0,0,1,.25c.08,0,.12.15.12.43a1.68,1.68,0,0,1-.06.58l-1.56-.17q-1.32-.13-2-.15t-2.07,0l-1.59.07a.88.88,0,0,1-.1-.57c0-.3.05-.44.13-.44a4.13,4.13,0,0,0,1.09-.19q.74-.2.8-.41a9.7,9.7,0,0,0,.27-2.16l.15-4.84A2.83,2.83,0,0,0,208.2,77a1.44,1.44,0,0,0-.66-.47,3.39,3.39,0,0,0-.71-.2c-.19,0-.28-.06-.28-.1q0-.86.18-.89a42,42,0,0,0,4.81-.75l.08,0h.16c.08,0,.15.07.2.21a.91.91,0,0,1,.08.33,9.87,9.87,0,0,0-.15,1.07.24.24,0,0,0,0,.15.45.45,0,0,0,.15-.08A6.61,6.61,0,0,1,214,75.06,5.21,5.21,0,0,1,216.24,74.6Z"/><path class="cls-1" d="M229.86,75.07a9.42,9.42,0,0,1,2.45.46,9.19,9.19,0,0,0,2.37.46l1.7.05s.1.13.2.39a1.81,1.81,0,0,1,.13.6c0,.28-.07.41-.19.41l-1.93-.06c-.08,0-.12,0-.12.09s.08.28.24.78a4.24,4.24,0,0,1,.22,1.43,4.3,4.3,0,0,1-1.57,3.12,5.09,5.09,0,0,1-3.71,1.3,12.24,12.24,0,0,1-1.84-.18,1.6,1.6,0,0,0-.67.53,1.27,1.27,0,0,0-.32.72.61.61,0,0,0,.27.51,2,2,0,0,0,.87.32q.59.11,1,.15l1.19.1h.45a10.49,10.49,0,0,1,4.33,1,2.34,2.34,0,0,1,1.32,2.23,4.67,4.67,0,0,1-2.26,3.8,8.12,8.12,0,0,1-5.07,1.48,7.71,7.71,0,0,1-3.76-.95,2.67,2.67,0,0,1-1.55-2.49,2.31,2.31,0,0,1,.9-1.64,4.94,4.94,0,0,1,1.86-1.07,3.38,3.38,0,0,1-1.4-.95,2.16,2.16,0,0,1-.61-1.58q0-1.28,2.28-2.58a3.94,3.94,0,0,1-1.56-1.58,4.37,4.37,0,0,1-.67-2.44A4,4,0,0,1,226,76.18,5.91,5.91,0,0,1,229.86,75.07Zm3.63,15.67q0-1-1.46-1.43a18.9,18.9,0,0,0-4-.46l-.15,0-.15.08q-.39.14-.6.23a2.57,2.57,0,0,0-.49.31,1.42,1.42,0,0,0-.42.51,1.74,1.74,0,0,0-.16.71,2.08,2.08,0,0,0,1.08,1.82,4.62,4.62,0,0,0,2.5.79,4.49,4.49,0,0,0,2.74-.69A2.32,2.32,0,0,0,233.48,90.74Zm-6-11.43a4.7,4.7,0,0,0,.52,2.47,1.85,1.85,0,0,0,1.63,1,1.77,1.77,0,0,0,1.65-.8,3.94,3.94,0,0,0,.58-2.08,4.88,4.88,0,0,0-.52-2.57,1.9,1.9,0,0,0-1.69-1,1.68,1.68,0,0,0-1.6.87A4.3,4.3,0,0,0,227.47,79.31Z"/><path class="cls-1" d="M251.89,75.69a6.56,6.56,0,0,1,4.71,2.09,6.38,6.38,0,0,1,1.83,4.77A6.73,6.73,0,0,1,245,82.14a6.4,6.4,0,0,1,2.09-4.66A6.51,6.51,0,0,1,251.89,75.69Zm-.43,1.38a2.39,2.39,0,0,0-2.21,1.29,6.4,6.4,0,0,0-.87,3.2,8.68,8.68,0,0,0,.84,4.22,3,3,0,0,0,2.63,1.86,2.42,2.42,0,0,0,2.23-1.3,6.31,6.31,0,0,0,.89-3.19,10.17,10.17,0,0,0-.3-2.88A5.23,5.23,0,0,0,253.49,78,2.76,2.76,0,0,0,251.46,77.07Z"/><path class="cls-1" d="M269.24,68.69a5.85,5.85,0,0,1,2.06.38,2.07,2.07,0,0,1,1.06.79,3.33,3.33,0,0,1-.21,1.64,1.06,1.06,0,0,1-1.11.69,1.16,1.16,0,0,1-.89-.52q-.39-.5-.82-1a1.36,1.36,0,0,0-1-.52,1.58,1.58,0,0,0-1.36.73,5,5,0,0,0-.82,1.85,12.06,12.06,0,0,0-.3,2.4l0,1.37s0,.05.06.09a.17.17,0,0,0,.12.06l3.27.1a.24.24,0,0,1,.15,0,.31.31,0,0,1,0,.18,3.07,3.07,0,0,1-.4,1.36l-3.09-.09a.16.16,0,0,0-.18.17l-.2,6.63a11.37,11.37,0,0,0,.16,2.68q.05.21.77.46a4.24,4.24,0,0,0,1,.25c.06,0,.09.15.09.43a1.68,1.68,0,0,1-.06.58c-.12,0-.63-.08-1.54-.17s-1.6-.14-2.08-.15-1.15,0-2,0l-1.55.07a.56.56,0,0,1-.11-.33,1.81,1.81,0,0,1,0-.46q0-.22.13-.22a4,4,0,0,0,1-.19q.72-.2.79-.41a9.85,9.85,0,0,0,.34-2.43l.21-6.83c0-.14-.05-.21-.17-.21l-1.78-.05s-.06-.06-.05-.18a1.58,1.58,0,0,1,.44-.85,1.2,1.2,0,0,1,1-.51h.48a.16.16,0,0,0,.18-.17v-.3a8.08,8.08,0,0,1,2-5.29A5.56,5.56,0,0,1,269.24,68.69Z"/><path class="cls-1" d="M282.58,76.59a12.64,12.64,0,0,1,3.43.61,16.85,16.85,0,0,1,.23,3.34c0,.16-.14.23-.39.23-.44,0-.67-.1-.71-.26a3.61,3.61,0,0,0-.82-1.79,2.33,2.33,0,0,0-1.78-.78,2.13,2.13,0,0,0-1.36.35,1.32,1.32,0,0,0-.52,1.08,1.72,1.72,0,0,0,.14.76,1.85,1.85,0,0,0,.52.66,7.63,7.63,0,0,0,.64.5c.18.12.46.29.83.5a2,2,0,0,0,.29.16l.44.25.48.28.47.3a5.56,5.56,0,0,1,.51.36l.45.37a2.35,2.35,0,0,1,.43.43l.34.47a1.9,1.9,0,0,1,.29.54,5.67,5.67,0,0,1,.15.57,2.7,2.7,0,0,1,.05.64,3.5,3.5,0,0,1-1.53,2.91,5.64,5.64,0,0,1-3.52,1,9.92,9.92,0,0,1-3.81-.95,11.71,11.71,0,0,1-.25-1.66,14.48,14.48,0,0,1-.1-1.71.63.63,0,0,1,.42-.14c.45,0,.69.1.71.26a3.28,3.28,0,0,0,1.11,2,3.16,3.16,0,0,0,2,.82,2.16,2.16,0,0,0,1.38-.37,1.45,1.45,0,0,0,.57-1.2,1.93,1.93,0,0,0-.06-.55,1.47,1.47,0,0,0-.27-.51l-.33-.43a2.16,2.16,0,0,0-.52-.42l-.58-.36-.73-.41-.75-.42a6.91,6.91,0,0,1-2.06-1.65,3.44,3.44,0,0,1,.83-4.9A5.74,5.74,0,0,1,282.58,76.59Z"/><path class="cls-1" d="M295.63,77a6.55,6.55,0,0,1,4.71,2.09,6.38,6.38,0,0,1,1.83,4.77,6.73,6.73,0,0,1-13.46-.41,6.4,6.4,0,0,1,2.09-4.67A6.52,6.52,0,0,1,295.63,77Zm-.43,1.38A2.39,2.39,0,0,0,293,79.69a6.4,6.4,0,0,0-.87,3.2,8.68,8.68,0,0,0,.84,4.22A3,3,0,0,0,295.59,89a2.42,2.42,0,0,0,2.23-1.3,6.31,6.31,0,0,0,.89-3.18,10.17,10.17,0,0,0-.3-2.88,5.23,5.23,0,0,0-1.18-2.25A2.75,2.75,0,0,0,295.2,78.41Z"/><path class="cls-1" d="M310.67,77.48a7.19,7.19,0,0,1,2.79.61,4.75,4.75,0,0,1,1.73,1.2,3.68,3.68,0,0,1-.39,1.67,1.1,1.1,0,0,1-1,.64,1.33,1.33,0,0,1-.9-.33,3.37,3.37,0,0,1-.67-1,2.15,2.15,0,0,0-1.95-1.43,2.29,2.29,0,0,0-2.07,1.23,6.35,6.35,0,0,0-.86,3.23,6,6,0,0,0,1,4A3.51,3.51,0,0,0,311,88.68a8.09,8.09,0,0,0,.86,0,4.4,4.4,0,0,0,.78-.12l.63-.17a2.57,2.57,0,0,0,.56-.25l.41-.24.61-.38a.46.46,0,0,1,.14.18.57.57,0,0,1,.08.3.91.91,0,0,1-.2.56,4.84,4.84,0,0,1-1.8,1.55,5.46,5.46,0,0,1-2.94.71,6,6,0,0,1-4.44-2.07A6.56,6.56,0,0,1,304,83.94a6.76,6.76,0,0,1,1.93-4.63A6,6,0,0,1,310.67,77.48Z"/><path class="cls-1" d="M322.53,86.77a11,11,0,0,0,.16,2.68q.05.21.79.46a4.4,4.4,0,0,0,1,.25q.12,0,.12.43a1.71,1.71,0,0,1-.06.58L323,91q-1.38-.13-2-.15t-2.1,0l-1.56.07a.88.88,0,0,1-.1-.57c0-.3.05-.44.13-.44a4.3,4.3,0,0,0,1.08-.19q.75-.2.82-.41a9.64,9.64,0,0,0,.27-2.16l.15-4.84a2.83,2.83,0,0,0-.42-1.92,1.65,1.65,0,0,0-.67-.47,3.14,3.14,0,0,0-.71-.2c-.2,0-.3-.06-.29-.1q0-.86.2-.89a22.83,22.83,0,0,0,2.42-.28A23.28,23.28,0,0,0,322.5,78l.24-.05q.15,0,.23.22a.56.56,0,0,1,0,.33,25.36,25.36,0,0,0-.32,2.55Zm-2.71-12.53a1.81,1.81,0,0,1-.5-1.32,1.83,1.83,0,0,1,1.9-1.77A1.83,1.83,0,0,1,323,73a1.81,1.81,0,0,1-.58,1.29,1.83,1.83,0,0,1-2.61-.08Z"/><path class="cls-1" d="M333,78.16a3.65,3.65,0,0,1,2.73,1.05,4.75,4.75,0,0,1,.82,3.34l-.18,5.85a1.35,1.35,0,0,0,.24.91.9.9,0,0,0,.7.33,1.86,1.86,0,0,0,1-.36c.12,0,.17.15.17.33a1.78,1.78,0,0,1-.21.89,7.47,7.47,0,0,1-1.21.71,3.1,3.1,0,0,1-1.44.34A2.17,2.17,0,0,1,334.3,91a2.44,2.44,0,0,1-.83-1.13l-.23.19q-.2.16-.55.38a8.63,8.63,0,0,1-.79.45,4.73,4.73,0,0,1-1,.37,4.33,4.33,0,0,1-1.18.13,3.55,3.55,0,0,1-2.4-.89,2.82,2.82,0,0,1-.87-2.27,2.75,2.75,0,0,1,.38-1.33,3.57,3.57,0,0,1,.85-1,6.07,6.07,0,0,1,1.3-.75,12.3,12.3,0,0,1,1.4-.54l1.5-.42,1.27-.35a.47.47,0,0,0,.28-.47l0-1.63a2.56,2.56,0,0,0-.42-1.65,1.55,1.55,0,0,0-1.26-.63,1.8,1.8,0,0,0-1.41.51,2.22,2.22,0,0,0-.55,1.54,1,1,0,0,1-.47.86,1.85,1.85,0,0,1-1,.25,1.68,1.68,0,0,1-1.52-.76q0-1.43,2-2.62A7.46,7.46,0,0,1,333,78.16Zm-1.69,11.37a2.3,2.3,0,0,0,1.39-.37,1.18,1.18,0,0,0,.61-.93l.09-3c-.14.06-.44.15-.89.27s-.79.23-1,.33a8.16,8.16,0,0,0-.85.39,1.79,1.79,0,0,0-.72.63,1.64,1.64,0,0,0-.25.83,1.83,1.83,0,0,0,.43,1.41A1.71,1.71,0,0,0,331.29,89.53Z"/><path class="cls-1" d="M345.37,87.41a12.2,12.2,0,0,0,.13,2.68q.05.21.71.48a3.24,3.24,0,0,0,.9.28c.06,0,.09.14.09.42a1.61,1.61,0,0,1-.06.56L346,91.72l-1.26-.11-1.07-.06c-.38,0-.75,0-1.13,0l-1.25,0-1.13,0a.84.84,0,0,1-.1-.55c0-.29.05-.43.13-.43a3.18,3.18,0,0,0,1-.22q.68-.23.74-.44a9.77,9.77,0,0,0,.31-2.19l.38-12.36a10.41,10.41,0,0,0-.12-2q-.13-.48-1.47-.52h-.3c-.12,0-.17-.12-.17-.36s.07-.47.19-.47q.92-.06,1.76-.18t1.39-.25l1-.25.64-.2.21-.08h.06c.08,0,.16.06.25.19a.9.9,0,0,1,.15.3,9.44,9.44,0,0,0-.44,2.78Z"/><path class="cls-1" d="M148.2,109.33a12.63,12.63,0,0,1,3.41.72,16.8,16.8,0,0,1,.12,3.34q0,.24-.4.21c-.43,0-.67-.12-.7-.28a3.61,3.61,0,0,0-.76-1.82,2.32,2.32,0,0,0-1.75-.84,2.13,2.13,0,0,0-1.37.3,1.32,1.32,0,0,0-.56,1.07,1.73,1.73,0,0,0,.12.77,1.84,1.84,0,0,0,.49.67,7.37,7.37,0,0,0,.62.52q.27.2.82.53a1.84,1.84,0,0,0,.29.17l.43.27.47.3.46.31a5.67,5.67,0,0,1,.5.37l.44.39a2.38,2.38,0,0,1,.42.44l.33.48a1.9,1.9,0,0,1,.28.55,5.32,5.32,0,0,1,.13.57,2.72,2.72,0,0,1,0,.64,3.5,3.5,0,0,1-1.63,2.86,5.64,5.64,0,0,1-3.55.86,9.93,9.93,0,0,1-3.77-1.07,11.94,11.94,0,0,1-.19-1.67,14.27,14.27,0,0,1,0-1.72.63.63,0,0,1,.42-.12c.45,0,.69.12.7.28a3.28,3.28,0,0,0,1,2.08,3.16,3.16,0,0,0,2,.89,2.16,2.16,0,0,0,1.39-.33,1.45,1.45,0,0,0,.61-1.18,2,2,0,0,0,0-.55,1.45,1.45,0,0,0-.25-.52l-.31-.44a2.17,2.17,0,0,0-.51-.43l-.57-.38-.72-.43-.73-.45a6.9,6.9,0,0,1-2-1.72,3.43,3.43,0,0,1,1-4.87A5.73,5.73,0,0,1,148.2,109.33Z"/><path class="cls-1" d="M160.6,110.15a5.52,5.52,0,0,1,2.46.71,4.7,4.7,0,0,1,1.63,1.5,6.89,6.89,0,0,1,.84,1.81,5.11,5.11,0,0,1,.22,1.76c0,.44-.12.7-.27.8a1.68,1.68,0,0,1-.91.11l-7.09-.45c-.14,0-.21,0-.22.17a5.79,5.79,0,0,0,.25,2.1,4.11,4.11,0,0,0,1.21,1.83,3.5,3.5,0,0,0,2.19.88,8.12,8.12,0,0,0,.86,0,4.39,4.39,0,0,0,.78-.1l.63-.15a2.53,2.53,0,0,0,.57-.23l.42-.23.62-.36a.47.47,0,0,1,.14.19.58.58,0,0,1,.07.3.91.91,0,0,1-.21.55,4.84,4.84,0,0,1-1.85,1.49,5.51,5.51,0,0,1-3,.61,6,6,0,0,1-4.33-2.2,6.4,6.4,0,0,1-1.58-4.76,6.88,6.88,0,0,1,2-4.76A5.76,5.76,0,0,1,160.6,110.15Zm-.29,1.35a2.1,2.1,0,0,0-1.3.33,2.81,2.81,0,0,0-.92,1,5.63,5.63,0,0,0-.5,1.09,3.6,3.6,0,0,0-.19.87c0,.14,0,.21.16.22l4.81.31c.18,0,.28-.13.29-.43a3.85,3.85,0,0,0-.56-2.15A2.13,2.13,0,0,0,160.31,111.5Z"/><path class="cls-1" d="M174.14,111a7.18,7.18,0,0,1,2.77.7A4.74,4.74,0,0,1,178.6,113a3.66,3.66,0,0,1-.45,1.65,1.1,1.1,0,0,1-1.07.6,1.34,1.34,0,0,1-.89-.35,3.37,3.37,0,0,1-.63-1,2.15,2.15,0,0,0-1.9-1.49,2.29,2.29,0,0,0-2.11,1.16,6.35,6.35,0,0,0-1,3.2,6,6,0,0,0,.85,4,3.51,3.51,0,0,0,2.71,1.47,8.27,8.27,0,0,0,.86,0,4.43,4.43,0,0,0,.78-.1l.63-.15a2.55,2.55,0,0,0,.57-.23l.42-.23.62-.36a.48.48,0,0,1,.14.19.57.57,0,0,1,.07.3.91.91,0,0,1-.21.55,4.84,4.84,0,0,1-1.85,1.49,5.46,5.46,0,0,1-3,.62,6,6,0,0,1-4.37-2.21,6.56,6.56,0,0,1-1.56-4.83,6.76,6.76,0,0,1,2.08-4.56A6,6,0,0,1,174.14,111Z"/><path class="cls-1" d="M193.73,115.47l-.37,5.87a6.61,6.61,0,0,0,.11,2.09.61.61,0,0,0,.33.26,2.31,2.31,0,0,0,.51.15l.49.06a.55.55,0,0,1,.25,0c.08,0,.11.12.1.27a2.29,2.29,0,0,1-.08.4c-.05.19-.12.28-.2.27a6.91,6.91,0,0,0-1.06,0l-1.25.13-1.14.15-1.2.16c-.14,0-.2-.17-.18-.49l.08-1.31c0-.1,0-.15-.08-.15a6.62,6.62,0,0,1-1.9,1.22,5,5,0,0,1-2.38.44,3.11,3.11,0,0,1-1.73-.62,3.59,3.59,0,0,1-1.1-1.38,6.36,6.36,0,0,1-.51-1.76,9,9,0,0,1-.08-1.88l.21-3.32a2.83,2.83,0,0,0-.35-1.93,1.65,1.65,0,0,0-.65-.49,3.14,3.14,0,0,0-.7-.22c-.2,0-.29-.07-.29-.11q.05-.86.21-.88a22.67,22.67,0,0,0,2.46-.2,23.27,23.27,0,0,0,2.38-.39l.12,0,.12,0c.1,0,.17.08.21.22a1.07,1.07,0,0,1,.05.33q-.39,2-.43,2.59l-.23,3.56a6.37,6.37,0,0,0,.44,3.36,2.63,2.63,0,0,0,3.68.67,1.58,1.58,0,0,0,.72-1.07l.31-4.9a2.82,2.82,0,0,0-.35-1.93,1.43,1.43,0,0,0-.64-.49,3.36,3.36,0,0,0-.72-.22c-.2,0-.29-.07-.29-.11,0-.57.12-.87.23-.88a22.88,22.88,0,0,0,2.43-.2,23.18,23.18,0,0,0,2.38-.39l.24,0c.1,0,.17.08.22.22a.55.55,0,0,1,0,.33Q193.77,114.94,193.73,115.47Z"/><path class="cls-1" d="M206.43,113.06a3,3,0,0,1,2.37,1.13q-.16,2.52-1.58,2.43a1.77,1.77,0,0,1-1.12-.67,1.86,1.86,0,0,0-1.24-.67,1.6,1.6,0,0,0-1.5.84,4,4,0,0,0-.64,1.91l-.24,3.71a12.45,12.45,0,0,0,0,2.68c0,.14.28.3.76.48a4.23,4.23,0,0,0,1,.29c.06,0,.08.15.08.44a3.08,3.08,0,0,1-.05.58l-1.56-.22q-1.33-.17-2-.22t-2.07,0l-1.6,0a.88.88,0,0,1-.08-.57c0-.3.07-.44.15-.44a4.15,4.15,0,0,0,1.1-.15q.74-.18.81-.38a9.65,9.65,0,0,0,.35-2.15l.31-4.84a2.83,2.83,0,0,0-.35-1.93,1.44,1.44,0,0,0-.64-.49,3.36,3.36,0,0,0-.7-.22q-.28,0-.28-.11c0-.57.11-.87.21-.88a42,42,0,0,0,4.83-.59l.24,0c.08,0,.14.08.19.22a.71.71,0,0,1,.05.35l-.07.41q0,.28-.11.59a3.84,3.84,0,0,0-.07.4,5.44,5.44,0,0,1,1.55-1.35A3.26,3.26,0,0,1,206.43,113.06Z"/><path class="cls-1" d="M215.52,122.57a11,11,0,0,0,.07,2.69q0,.21.77.48a4.39,4.39,0,0,0,1,.29c.08,0,.11.15.11.44a1.7,1.7,0,0,1-.08.58l-1.58-.22q-1.37-.18-2-.22t-2.1,0l-1.57,0A.88.88,0,0,1,210,126c0-.3.07-.44.15-.44a4.31,4.31,0,0,0,1.08-.15q.76-.18.83-.38a9.65,9.65,0,0,0,.35-2.15l.31-4.84a2.83,2.83,0,0,0-.35-1.93,1.66,1.66,0,0,0-.65-.49,3.16,3.16,0,0,0-.7-.22c-.2,0-.29-.07-.29-.11,0-.57.12-.87.23-.88a22.87,22.87,0,0,0,2.43-.2,23.11,23.11,0,0,0,2.38-.38l.24,0c.1,0,.17.08.22.22a.55.55,0,0,1,0,.33,25.62,25.62,0,0,0-.4,2.54ZM213.22,110a1.81,1.81,0,0,1-.45-1.34,1.83,1.83,0,0,1,2-1.71,1.78,1.78,0,0,1,1.27.62,1.76,1.76,0,0,1,.45,1.32,1.81,1.81,0,0,1-.62,1.27,1.83,1.83,0,0,1-2.61-.17Z"/><path class="cls-1" d="M221.6,116.11l-1.81-.11c-.14,0-.19-.27-.16-.78a.74.74,0,0,1,0-.27,8.33,8.33,0,0,0,2.38-1.43l.9-.82q.49-.46,1.16-1.19a2.12,2.12,0,0,1,.56.11c.18.06.26.12.26.18l-.18,2.91,2.15.15,1.47.11c.16,0,.23.1.22.28a2.88,2.88,0,0,1-.38,1.29l-3.56-.23-.45,7.15a2.82,2.82,0,0,0,.39,1.84,1.7,1.7,0,0,0,1.35.71,2.81,2.81,0,0,0,.63,0,3.15,3.15,0,0,0,.54-.13l.4-.15.21-.08c.08,0,.16.08.25.28a.69.69,0,0,1,.09.39,2.72,2.72,0,0,1-1.32.88,4.69,4.69,0,0,1-2.16.41,3.74,3.74,0,0,1-2.56-1.16,4,4,0,0,1-.89-3.14Z"/><path class="cls-1" d="M233.85,115.1q.65,0,1.88,0t1.52,0a2,2,0,0,1,0,.54c0,.28-.07.41-.15.41a3.23,3.23,0,0,0-.95.16q-.65.18-.7.45v.18q0,.48,2.33,6.94.27-.52,1.34-2.85t1.24-2.68a2.77,2.77,0,0,0,.24-.91.94.94,0,0,0-.43-.76,2.45,2.45,0,0,0-1.4-.43c-.08,0-.11-.16-.09-.45a.75.75,0,0,1,.15-.5q.36,0,1.45.18t1.8.2q.62,0,1.53,0t1.33,0a.85.85,0,0,1,.09.48c0,.32-.07.47-.15.47a3.77,3.77,0,0,0-1.22.22,1.65,1.65,0,0,0-1.08.82l-6.26,12.77q-2.12,4.22-4.7,4.05a1.61,1.61,0,0,1-1.16-.49,1.39,1.39,0,0,1,.28-2.1q3.09.2,4.22-2.17l.93-2-3.69-10.36a3.91,3.91,0,0,0-.31-.7,1.78,1.78,0,0,0-.83-.72,2.81,2.81,0,0,0-1-.28c-.08,0-.11-.15-.09-.42s.06-.49.12-.53l1.58.19Q233.14,115.05,233.85,115.1Z"/><path class="cls-1" d="M259.28,116.41a3.65,3.65,0,0,1,2.7,1.14,4.76,4.76,0,0,1,.71,3.37l-.37,5.85a1.36,1.36,0,0,0,.21.92.89.89,0,0,0,.69.36,1.85,1.85,0,0,0,1-.32c.12,0,.17.16.16.34a1.77,1.77,0,0,1-.23.88,7.39,7.39,0,0,1-1.23.67,3.1,3.1,0,0,1-1.45.3,2.17,2.17,0,0,1-1.3-.59,2.43,2.43,0,0,1-.79-1.15l-.24.18c-.14.1-.32.22-.56.37a8.72,8.72,0,0,1-.8.43,4.72,4.72,0,0,1-1,.34,4.3,4.3,0,0,1-1.18.09,3.54,3.54,0,0,1-2.37-1,2.83,2.83,0,0,1-.79-2.3,2.76,2.76,0,0,1,.43-1.31,3.57,3.57,0,0,1,.88-1,6.09,6.09,0,0,1,1.33-.71,12.29,12.29,0,0,1,1.42-.49l1.51-.37,1.29-.31a.47.47,0,0,0,.3-.46l.1-1.63a2.56,2.56,0,0,0-.37-1.66,1.55,1.55,0,0,0-1.24-.67,1.8,1.8,0,0,0-1.43.46,2.22,2.22,0,0,0-.6,1.53,1,1,0,0,1-.5.85,1.85,1.85,0,0,1-1,.22,1.68,1.68,0,0,1-1.5-.81q.09-1.42,2.11-2.55A7.45,7.45,0,0,1,259.28,116.41Zm-2.06,11.31a2.3,2.3,0,0,0,1.41-.33,1.18,1.18,0,0,0,.64-.91l.19-3c-.14.05-.44.13-.89.24s-.8.21-1,.29a8.06,8.06,0,0,0-.86.36,1.8,1.8,0,0,0-.74.61,1.65,1.65,0,0,0-.27.82,1.83,1.83,0,0,0,.39,1.42A1.71,1.71,0,0,0,257.22,127.72Z"/><path class="cls-1" d="M276.47,117.51q3.83.24,3.44,6.33l-.18,2.82a12.39,12.39,0,0,0,0,2.68q0,.21.79.48a4.55,4.55,0,0,0,1,.29c.06,0,.08.15.08.44a1.69,1.69,0,0,1-.08.58q-.18,0-1.55-.22t-2.06-.22q-.71,0-2,0l-1.54,0a.88.88,0,0,1-.08-.57c0-.3.07-.44.15-.44a3.53,3.53,0,0,0,1-.16q.68-.18.75-.38a8.51,8.51,0,0,0,.37-2.15l.18-2.82a6.45,6.45,0,0,0-.45-3.48,2.39,2.39,0,0,0-2.06-1.11,2.75,2.75,0,0,0-1.69.41,1.43,1.43,0,0,0-.78,1.07l-.32,5.1a12.45,12.45,0,0,0,0,2.68c0,.14.28.3.76.48a4.29,4.29,0,0,0,1,.28c.08,0,.11.15.11.44a1.7,1.7,0,0,1-.08.58l-1.55-.22q-1.31-.17-2-.22t-2.07,0l-1.59,0a.88.88,0,0,1-.08-.57c0-.3.07-.44.15-.44a4.15,4.15,0,0,0,1.1-.15q.74-.18.81-.38a9.65,9.65,0,0,0,.34-2.15l.31-4.84a2.82,2.82,0,0,0-.35-1.93,1.43,1.43,0,0,0-.64-.49,3.41,3.41,0,0,0-.7-.22q-.28,0-.28-.11c0-.57.11-.87.2-.88a42,42,0,0,0,4.83-.59l.08,0H272c.08,0,.14.08.19.22a.91.91,0,0,1,.07.33,9.84,9.84,0,0,0-.19,1.06.23.23,0,0,0,0,.15.44.44,0,0,0,.15-.08,6.6,6.6,0,0,1,1.9-1.13A5.19,5.19,0,0,1,276.47,117.51Z"/><path class="cls-1" d="M291.07,118.37a5.11,5.11,0,0,1,2.14.55c.1,0,.16-.15.18-.47l.18-2.79a10.35,10.35,0,0,0,0-2q-.12-.48-1.51-.57h-.24c-.12,0-.17-.17-.15-.49s.09-.47.21-.46q.9,0,1.75-.13t1.41-.21q.56-.11,1-.24l.62-.18.24-.06h.06c.08,0,.16.06.23.18a.54.54,0,0,1,.1.32,11.39,11.39,0,0,0-.47,2.77l-.83,13.05a11,11,0,0,0,0,2.21.44.44,0,0,0,.28.34,1.79,1.79,0,0,0,.55.18l.56.08.3,0s0,.16,0,.36c0,.4-.1.59-.22.58-.28,0-.63,0-1.06.05l-1.26.11-1.17.13-1.25.17q-.18,0-.15-.52l0-.5a.13.13,0,0,0,0-.12s-.05,0-.07,0a5,5,0,0,1-3.16.9,5.76,5.76,0,0,1-4.07-2,6,6,0,0,1-1.5-4.55,7,7,0,0,1,2.35-4.9A6.51,6.51,0,0,1,291.07,118.37Zm-.36,1.41a2.6,2.6,0,0,0-2.46,1.18,7,7,0,0,0-1,3.54,7.16,7.16,0,0,0,.67,4,2.92,2.92,0,0,0,2.49,1.57,2.47,2.47,0,0,0,1.67-.42,1.64,1.64,0,0,0,.71-1.28l.4-6.23a2.08,2.08,0,0,0-.06-.63,2.77,2.77,0,0,0-.31-.72,1.91,1.91,0,0,0-.76-.67A3.16,3.16,0,0,0,290.72,119.78Z"/><path class="cls-1" d="M313,119.83a7.19,7.19,0,0,1,2.77.7,4.74,4.74,0,0,1,1.69,1.25,3.68,3.68,0,0,1-.45,1.65,1.1,1.1,0,0,1-1.07.6,1.33,1.33,0,0,1-.89-.35,3.37,3.37,0,0,1-.63-1,2.15,2.15,0,0,0-1.9-1.49,2.29,2.29,0,0,0-2.11,1.16,6.34,6.34,0,0,0-1,3.2,6,6,0,0,0,.85,4A3.51,3.51,0,0,0,313,131a8.25,8.25,0,0,0,.86,0,4.44,4.44,0,0,0,.78-.1l.63-.15a2.55,2.55,0,0,0,.57-.23l.42-.23.62-.36a.47.47,0,0,1,.14.19.57.57,0,0,1,.07.3.91.91,0,0,1-.21.55,4.84,4.84,0,0,1-1.85,1.49,5.45,5.45,0,0,1-3,.62,6,6,0,0,1-4.37-2.21,6.56,6.56,0,0,1-1.56-4.83,6.76,6.76,0,0,1,2.08-4.56A6,6,0,0,1,313,119.83Z"/><path class="cls-1" d="M324.56,129.49a11,11,0,0,0,.07,2.69q0,.21.77.48a4.42,4.42,0,0,0,1,.29c.08,0,.12.15.11.44a1.7,1.7,0,0,1-.08.58l-1.58-.22q-1.38-.18-2-.22t-2.1,0l-1.57,0a.87.87,0,0,1-.08-.57c0-.3.07-.44.15-.44a4.29,4.29,0,0,0,1.08-.15q.76-.18.83-.38a9.65,9.65,0,0,0,.35-2.15l.31-4.84a2.83,2.83,0,0,0-.35-1.93,1.65,1.65,0,0,0-.65-.49,3.14,3.14,0,0,0-.7-.22c-.2,0-.29-.07-.29-.11,0-.57.12-.87.23-.88a31.51,31.51,0,0,0,4.8-.59l.24,0c.1,0,.17.08.22.22a.55.55,0,0,1,0,.33q-.36,1.88-.4,2.54Zm-2.3-12.61a1.81,1.81,0,0,1-.45-1.34,1.83,1.83,0,0,1,2-1.71,1.79,1.79,0,0,1,1.27.62,1.76,1.76,0,0,1,.45,1.32,1.81,1.81,0,0,1-.62,1.27,1.83,1.83,0,0,1-2.61-.17Z"/><path class="cls-1" d="M330.63,123l-1.81-.12c-.14,0-.19-.27-.16-.78a.74.74,0,0,1,0-.27,8.31,8.31,0,0,0,2.38-1.43l.9-.82q.49-.46,1.16-1.19a2.13,2.13,0,0,1,.56.11c.18.06.26.12.26.18l-.18,2.91,2.15.15,1.47.11c.16,0,.23.1.22.28a2.88,2.88,0,0,1-.38,1.29l-3.56-.23-.45,7.15a2.81,2.81,0,0,0,.39,1.84,1.7,1.7,0,0,0,1.35.71,2.88,2.88,0,0,0,.63,0,3.15,3.15,0,0,0,.54-.13l.4-.15.21-.08c.08,0,.16.08.25.28a.7.7,0,0,1,.09.39,2.71,2.71,0,0,1-1.32.88,4.68,4.68,0,0,1-2.16.41,3.75,3.75,0,0,1-2.56-1.16,4,4,0,0,1-.89-3.14Z"/><path class="cls-1" d="M344.45,130.76a11,11,0,0,0,.07,2.69q0,.21.77.48a4.42,4.42,0,0,0,1,.29c.08,0,.12.15.11.44a1.7,1.7,0,0,1-.08.58l-1.58-.22q-1.38-.18-2-.22t-2.1,0l-1.57,0a.88.88,0,0,1-.08-.57c0-.3.07-.44.15-.44a4.33,4.33,0,0,0,1.08-.15q.76-.18.83-.38a9.65,9.65,0,0,0,.35-2.15l.31-4.84a2.83,2.83,0,0,0-.35-1.93,1.66,1.66,0,0,0-.65-.49,3.13,3.13,0,0,0-.7-.22c-.2,0-.29-.07-.29-.11,0-.57.12-.87.23-.88a31.51,31.51,0,0,0,4.8-.59l.24,0c.1,0,.17.08.22.22a.55.55,0,0,1,0,.33q-.36,1.88-.4,2.54Zm-2.3-12.61a1.81,1.81,0,0,1-.45-1.34,1.83,1.83,0,0,1,2-1.71,1.78,1.78,0,0,1,1.27.62,1.76,1.76,0,0,1,.45,1.32,1.81,1.81,0,0,1-.62,1.27,1.83,1.83,0,0,1-2.61-.17Z"/><path class="cls-1" d="M352.09,133.86c0,.06,0,.11.14.16a.69.69,0,0,0,.21.07l2.88.18a3,3,0,0,0,3.11-2.12c.07-.19.25-.28.54-.26a.63.63,0,0,1,.56.27l-.77,3.73-10.09-.64q-.57-.39-.55-.72a.17.17,0,0,1,0-.12l7.51-9.92-3.14-.26a2.12,2.12,0,0,0-.57,0,2.66,2.66,0,0,0-.49.15,1.74,1.74,0,0,0-.42.26,2,2,0,0,0-.32.31l-.26.36c-.1.14-.17.25-.21.33l-.17.32a1.39,1.39,0,0,0-.11.23c-.07.11-.32.16-.75.13-.22,0-.33,0-.32-.08s.11-.6.31-1.51.33-1.66.41-2.25q1.74.29,2.81.36l3.62.23a31.11,31.11,0,0,0,3.75,0,2.5,2.5,0,0,1,0,.72l-7.46,9.65A.91.91,0,0,0,352.09,133.86Z"/><path class="cls-1" d="M368.11,123.32a5.51,5.51,0,0,1,2.46.71,4.7,4.7,0,0,1,1.63,1.5,6.86,6.86,0,0,1,.84,1.81,5.11,5.11,0,0,1,.22,1.76c0,.44-.12.7-.28.8a1.68,1.68,0,0,1-.91.11l-7.09-.45c-.14,0-.21,0-.22.17a5.8,5.8,0,0,0,.25,2.1,4.1,4.1,0,0,0,1.21,1.83,3.5,3.5,0,0,0,2.19.88,8.25,8.25,0,0,0,.86,0,4.44,4.44,0,0,0,.78-.1l.63-.15a2.53,2.53,0,0,0,.57-.23l.42-.23.62-.36a.47.47,0,0,1,.14.19.57.57,0,0,1,.07.3.91.91,0,0,1-.21.55,4.84,4.84,0,0,1-1.85,1.49,5.52,5.52,0,0,1-3,.61,6,6,0,0,1-4.33-2.2,6.4,6.4,0,0,1-1.57-4.76,6.88,6.88,0,0,1,2-4.76A5.76,5.76,0,0,1,368.11,123.32Zm-.29,1.35a2.1,2.1,0,0,0-1.3.33,2.8,2.8,0,0,0-.92,1,5.66,5.66,0,0,0-.5,1.09,3.59,3.59,0,0,0-.19.87c0,.14,0,.21.17.22l4.81.31c.18,0,.28-.13.29-.43a3.85,3.85,0,0,0-.56-2.15A2.13,2.13,0,0,0,367.82,124.67Z"/><path class="cls-1" d="M385,124.39q3.83.24,3.44,6.33l-.18,2.82a12.39,12.39,0,0,0,0,2.68q0,.21.79.48a4.62,4.62,0,0,0,1,.29c.06,0,.08.15.08.44a1.69,1.69,0,0,1-.08.58q-.18,0-1.55-.22t-2.06-.22q-.71,0-2,0l-1.54,0a.87.87,0,0,1-.08-.57c0-.3.07-.44.15-.44a3.56,3.56,0,0,0,1-.16c.45-.12.71-.25.75-.38a8.51,8.51,0,0,0,.38-2.15l.18-2.82a6.45,6.45,0,0,0-.45-3.48,2.39,2.39,0,0,0-2.06-1.11,2.75,2.75,0,0,0-1.69.41,1.43,1.43,0,0,0-.78,1.07L380,133a12.45,12.45,0,0,0,0,2.68c0,.14.28.3.76.48a4.34,4.34,0,0,0,1,.28c.08,0,.12.15.11.44a1.7,1.7,0,0,1-.08.58l-1.55-.22q-1.31-.17-2-.22t-2.07,0l-1.6,0a.88.88,0,0,1-.08-.57c0-.3.07-.44.15-.44a4.14,4.14,0,0,0,1.1-.15q.74-.18.81-.38a9.65,9.65,0,0,0,.35-2.15l.31-4.84a2.83,2.83,0,0,0-.35-1.93,1.44,1.44,0,0,0-.64-.49,3.4,3.4,0,0,0-.7-.22c-.19,0-.28-.07-.28-.11,0-.57.11-.87.21-.88a42,42,0,0,0,4.83-.59l.08,0h.16c.08,0,.14.08.19.22a.91.91,0,0,1,.07.33,9.84,9.84,0,0,0-.19,1.06.23.23,0,0,0,0,.15.46.46,0,0,0,.16-.08,6.59,6.59,0,0,1,1.9-1.13A5.19,5.19,0,0,1,385,124.39Z"/><path class="cls-1" d="M397.74,125.17a12.66,12.66,0,0,1,3.41.72,16.89,16.89,0,0,1,.12,3.34q0,.24-.4.21c-.43,0-.67-.12-.7-.28a3.6,3.6,0,0,0-.76-1.82,2.32,2.32,0,0,0-1.75-.84,2.13,2.13,0,0,0-1.37.3,1.32,1.32,0,0,0-.56,1.07,1.74,1.74,0,0,0,.11.77,1.84,1.84,0,0,0,.49.67,7.31,7.31,0,0,0,.62.52c.18.13.45.31.81.53a1.92,1.92,0,0,0,.29.17l.43.27.47.3.46.31a5.62,5.62,0,0,1,.5.37l.44.39a2.43,2.43,0,0,1,.42.44l.33.48a1.86,1.86,0,0,1,.28.55,5.5,5.5,0,0,1,.13.57,2.71,2.71,0,0,1,0,.64,3.5,3.5,0,0,1-1.63,2.86,5.64,5.64,0,0,1-3.55.86,9.92,9.92,0,0,1-3.77-1.07,11.64,11.64,0,0,1-.19-1.67,14.28,14.28,0,0,1,0-1.72.64.64,0,0,1,.42-.12c.45,0,.69.12.7.28a3.27,3.27,0,0,0,1,2.08,3.17,3.17,0,0,0,2,.89,2.16,2.16,0,0,0,1.39-.33,1.45,1.45,0,0,0,.61-1.18,2,2,0,0,0,0-.55,1.44,1.44,0,0,0-.25-.52l-.32-.44a2.11,2.11,0,0,0-.51-.43l-.57-.38-.72-.43-.73-.45a6.91,6.91,0,0,1-2-1.72,3.43,3.43,0,0,1,1-4.87A5.73,5.73,0,0,1,397.74,125.17Z"/><path class="cls-1" d="M413.76,126.22q3.8.24,3.43,6.09l-.19,3.06a10.9,10.9,0,0,0,.07,2.69q0,.21.76.48a4.57,4.57,0,0,0,1,.29q.09,0,.08.44a3.09,3.09,0,0,1-.05.58l-1.58-.22c-.92-.12-1.59-.19-2-.22s-1.16,0-2,0l-1.56,0a1.11,1.11,0,0,1-.05-.57q0-.45.12-.44a3.55,3.55,0,0,0,1-.16q.68-.18.79-.38a11.27,11.27,0,0,0,.31-2.15l.18-2.91a6.2,6.2,0,0,0-.45-3.44,2.43,2.43,0,0,0-2.06-1.07,2.85,2.85,0,0,0-1.66.4,1.4,1.4,0,0,0-.81,1.08l-.32,5.1a10.9,10.9,0,0,0,.07,2.69q0,.21.76.48a4.24,4.24,0,0,0,1,.29c.06,0,.08.15.08.44a1.67,1.67,0,0,1-.08.58l-1.55-.22q-1.31-.17-2-.22t-2.07,0l-1.59,0a.87.87,0,0,1-.08-.57q0-.45.15-.44a4.15,4.15,0,0,0,1.1-.15q.74-.18.81-.38a9.57,9.57,0,0,0,.34-2.12l.78-12.34a11.6,11.6,0,0,0,0-2q-.12-.48-1.51-.57l-.27,0q-.18,0-.15-.49t.21-.46q.93,0,1.77-.13c.56-.06,1-.13,1.4-.21s.7-.15,1-.24l.86-.24h.06c.08,0,.16.06.23.18a.83.83,0,0,1,.13.32,9.56,9.56,0,0,0-.53,2.77l-.38,6c0,.12,0,.18.11.19s.06,0,.13-.08a5.66,5.66,0,0,1,1.91-1.17A5.48,5.48,0,0,1,413.76,126.22Z"/><path class="cls-1" d="M426.23,135.95a11,11,0,0,0,.07,2.69c0,.14.29.3.77.48a4.41,4.41,0,0,0,1,.29c.08,0,.11.15.11.44a1.69,1.69,0,0,1-.08.58l-1.58-.22q-1.37-.18-2-.22c-.5,0-1.19,0-2.1,0l-1.56,0a.87.87,0,0,1-.08-.57c0-.3.07-.44.15-.44a4.31,4.31,0,0,0,1.08-.15q.76-.18.83-.38a9.65,9.65,0,0,0,.34-2.15l.31-4.84a2.82,2.82,0,0,0-.35-1.93,1.65,1.65,0,0,0-.65-.49,3.14,3.14,0,0,0-.7-.22q-.29,0-.29-.11c0-.57.12-.87.23-.88a31.5,31.5,0,0,0,4.8-.59l.24,0c.1,0,.17.08.22.22a.55.55,0,0,1,0,.33,25.6,25.6,0,0,0-.4,2.54Zm-2.3-12.61a1.81,1.81,0,0,1-.45-1.34,1.83,1.83,0,0,1,2-1.71,1.78,1.78,0,0,1,1.27.62,1.76,1.76,0,0,1,.45,1.32,1.81,1.81,0,0,1-.62,1.27,1.83,1.83,0,0,1-2.61-.17Z"/><path class="cls-1" d="M438.82,127.84a6,6,0,0,1,3.32,1.19,6.22,6.22,0,0,1,2.57,5.47,7,7,0,0,1-7.42,6.62,6.9,6.9,0,0,1-2.08-.55c-.08,0-.13.13-.15.41l-.13,2a10.7,10.7,0,0,0,.07,2.69q0,.24.76.51a4.54,4.54,0,0,0,1,.29q.09,0,.08.44a2.65,2.65,0,0,1,0,.55l-1.58-.19q-1.38-.18-2-.22t-2.1,0H429.5a1.07,1.07,0,0,1-.05-.55c0-.29.06-.43.12-.42a4.16,4.16,0,0,0,1.1-.15q.74-.18.84-.41a10.92,10.92,0,0,0,.31-2.12l.72-11.33a2.88,2.88,0,0,0-.35-2,1.34,1.34,0,0,0-.62-.47,3.59,3.59,0,0,0-.7-.21c-.2,0-.29-.07-.29-.11,0-.57.12-.87.24-.88a22.9,22.9,0,0,0,4.47-.55l.57-.11q.12,0,.08.63a1.62,1.62,0,0,1-.08.35,6,6,0,0,1,1.37-.61A4.26,4.26,0,0,1,438.82,127.84Zm-.81,1.53a2.24,2.24,0,0,0-1.62.46,2,2,0,0,0-.71,1.47l-.39,6.11A1.83,1.83,0,0,0,436,139a2.89,2.89,0,0,0,1.68.69,2.79,2.79,0,0,0,2.38-1.1,5.75,5.75,0,0,0,1.16-3.44,7.69,7.69,0,0,0-.7-4.05A2.92,2.92,0,0,0,438,129.37Z"/><path class="cls-1" d="M449.86,138.61a1.94,1.94,0,0,1,.49,1.43,2,2,0,0,1-.67,1.37,1.84,1.84,0,0,1-1.42.52,1.92,1.92,0,0,1-1.39-.7,2,2,0,0,1-.5-1.45,1.91,1.91,0,0,1,.68-1.36,1.94,1.94,0,0,1,1.46-.5A1.86,1.86,0,0,1,449.86,138.61Z"/></svg>