<svg id="Layer_1" data-name="Layer 1" xmlns="http://www.w3.org/2000/svg" xmlns:xlink="http://www.w3.org/1999/xlink" viewBox="0 0 380.91 233.12"><defs><style>.cls-1{fill:none;}.cls-2{clip-path:url(#clip-path);}.cls-3{fill:#1928eb;}</style><clipPath id="clip-path"><rect class="cls-1" x="-99.13" y="337.67" width="1285.39" height="767.22"/></clipPath></defs><title>subtitle2</title><g class="cls-2"><image width="1317" height="1020" transform="translate(-97.05 223.45) scale(0.98 0.98)" xlink:href="../chapter-8/background.png"/></g><path class="cls-3" d="M.24,124.23a4.69,4.69,0,0,1,.61-4.16,6.5,6.5,0,0,1,3.53-2.77,10.42,10.42,0,0,1,1.41-.37q.62-.11,1.77-.19l1.57-.12a26.58,26.58,0,0,1,1.77,4.24.32.32,0,0,1-.26.37q-.76.25-.9,0a5.24,5.24,0,0,0-2-2.14,3.38,3.38,0,0,0-3-.41A2.74,2.74,0,0,0,3,120.08a2.91,2.91,0,0,0,0,2.2,3.38,3.38,0,0,0,.36.77,2.07,2.07,0,0,0,.64.62l.68.45a3.49,3.49,0,0,0,.9.38l.87.28q.23.08,1,.27a8.78,8.78,0,0,0,1,.2,10.82,10.82,0,0,0,1.14.3q.93.21,1.31.32c.25.07.63.21,1.14.42a4.29,4.29,0,0,1,1.18.68,6.11,6.11,0,0,1,.87,1,5,5,0,0,1,.71,1.41,4.83,4.83,0,0,1-.6,4.33,6.88,6.88,0,0,1-3.74,2.85,27.76,27.76,0,0,1-5.46.91,26.07,26.07,0,0,1-1.3-2.4,20.24,20.24,0,0,1-.87-2c0-.16.1-.28.38-.37q.73-.24.89,0a5.72,5.72,0,0,0,.76,1,8.56,8.56,0,0,0,1.2,1,3.9,3.9,0,0,0,1.7.69,4.18,4.18,0,0,0,2-.18,3.33,3.33,0,0,0,1.94-1.51,3.2,3.2,0,0,0,.1-2.66,2.59,2.59,0,0,0-.49-.87,3.48,3.48,0,0,0-.67-.62,4.35,4.35,0,0,0-.93-.45c-.39-.14-.71-.25-1-.31l-1.1-.25-1-.21a2.12,2.12,0,0,0-.39-.12l-1.5-.38a14.39,14.39,0,0,1-1.36-.48,5.9,5.9,0,0,1-1.34-.7,5.61,5.61,0,0,1-1-1A4.47,4.47,0,0,1,.24,124.23Z"/><path class="cls-3" d="M21.78,118.71a6,6,0,0,1,3.53-.12,6.23,6.23,0,0,1,4.42,4.12,7,7,0,0,1-4.43,8.9,6.92,6.92,0,0,1-2.14.26q-.11,0,0,.43l.63,1.92a10.77,10.77,0,0,0,1.06,2.47c.07.14.37.21.89.19a4.54,4.54,0,0,0,1-.11q.08,0,.23.38a2.59,2.59,0,0,1,.16.53l-1.54.41q-1.34.35-2,.55t-2,.74l-1.48.58a1.08,1.08,0,0,1-.26-.49c-.09-.27-.11-.42,0-.44a4.14,4.14,0,0,0,1-.55q.62-.44.63-.69a10.83,10.83,0,0,0-.5-2.09L17.49,124.9a2.89,2.89,0,0,0-1.05-1.69,1.35,1.35,0,0,0-.76-.21,3.61,3.61,0,0,0-.73.07c-.19,0-.3,0-.31,0q-.27-.82-.11-.9A22.81,22.81,0,0,0,18.48,120l.49-.32q.11,0,.31.56a1.55,1.55,0,0,1,.06.36,6,6,0,0,1,1-1.08A4.27,4.27,0,0,1,21.78,118.71Zm-.19,1.72a2.24,2.24,0,0,0-1.33,1,2,2,0,0,0-.11,1.63l1.91,5.82a1.83,1.83,0,0,0,1.25,1.23,2.88,2.88,0,0,0,1.82,0,2.8,2.8,0,0,0,1.8-1.9,5.75,5.75,0,0,0-.2-3.63,7.68,7.68,0,0,0-2.15-3.5A2.92,2.92,0,0,0,21.59,120.43Z"/><path class="cls-3" d="M35.39,114.21a5.52,5.52,0,0,1,2.54-.26,4.72,4.72,0,0,1,2.07.79,6.88,6.88,0,0,1,1.45,1.37,5.12,5.12,0,0,1,.85,1.55c.14.41.15.7,0,.85a1.68,1.68,0,0,1-.81.44l-6.75,2.21q-.2.06-.14.23a5.73,5.73,0,0,0,1,1.86,4.08,4.08,0,0,0,1.8,1.26,3.5,3.5,0,0,0,2.36,0,7.87,7.87,0,0,0,.81-.31,4.35,4.35,0,0,0,.69-.38l.53-.38a2.55,2.55,0,0,0,.44-.43l.3-.36.44-.57a.49.49,0,0,1,.2.12.57.57,0,0,1,.18.25.91.91,0,0,1,0,.59,4.84,4.84,0,0,1-1.17,2.07,5.52,5.52,0,0,1-2.55,1.68,6,6,0,0,1-4.84-.43,6.41,6.41,0,0,1-3.23-3.84,6.87,6.87,0,0,1,.13-5.17A5.76,5.76,0,0,1,35.39,114.21Zm.23,1.36a2.09,2.09,0,0,0-1.08.79A2.81,2.81,0,0,0,34,117.6a5.7,5.7,0,0,0-.06,1.19,3.66,3.66,0,0,0,.15.88c0,.13.12.18.23.14l4.58-1.5c.17-.06.21-.22.11-.51A3.84,3.84,0,0,0,37.72,116,2.13,2.13,0,0,0,35.62,115.58Z"/><path class="cls-3" d="M48.14,110a3.66,3.66,0,0,1,2.93.06A4.76,4.76,0,0,1,53,113l1.82,5.56a1.36,1.36,0,0,0,.54.78.89.89,0,0,0,.77.07,1.86,1.86,0,0,0,.84-.68q.19,0,.27.26a1.79,1.79,0,0,1,.11.9,7.36,7.36,0,0,1-.9,1.08,3.09,3.09,0,0,1-1.23.81,2.17,2.17,0,0,1-1.43-.06,2.44,2.44,0,0,1-1.16-.78l-.15.25c-.09.14-.22.33-.38.55a8.79,8.79,0,0,1-.59.69,4.71,4.71,0,0,1-.84.7,4.32,4.32,0,0,1-1.06.52,3.55,3.55,0,0,1-2.56,0,2.83,2.83,0,0,1-1.59-1.84,2.75,2.75,0,0,1-.09-1.38,3.56,3.56,0,0,1,.46-1.23,6.08,6.08,0,0,1,1-1.15,12.29,12.29,0,0,1,1.13-1c.33-.24.75-.54,1.27-.9l1.08-.76a.47.47,0,0,0,.11-.54l-.51-1.55a2.55,2.55,0,0,0-1-1.41,1.55,1.55,0,0,0-1.4-.17,1.8,1.8,0,0,0-1.16,1,2.23,2.23,0,0,0,0,1.64,1,1,0,0,1-.15,1,1.85,1.85,0,0,1-.87.58,1.68,1.68,0,0,1-1.69-.2q-.44-1.36,1-3.15A7.46,7.46,0,0,1,48.14,110Zm2.28,11.27a2.31,2.31,0,0,0,1.18-.83,1.17,1.17,0,0,0,.25-1.08l-.94-2.88q-.17.15-.74.56t-.86.66a7.91,7.91,0,0,0-.66.65,1.79,1.79,0,0,0-.46.84,1.64,1.64,0,0,0,0,.86,1.83,1.83,0,0,0,.89,1.18A1.71,1.71,0,0,0,50.42,121.3Z"/><path class="cls-3" d="M67.69,105.72q-.45.52-1.38,1.86a20.88,20.88,0,0,0-1.6,2.71q1.11.61,2.81,1.61t2.82,1.64a14.18,14.18,0,0,0,1.51.79,3.72,3.72,0,0,0,1.27.21,3.63,3.63,0,0,0,1-.08q.11,0,.27.44a1.74,1.74,0,0,1,.1.4l-3.35.94q-.54.18-1.08.39l-1.19.47-1,.42c-.1-.05-.19-.21-.28-.47s-.09-.41,0-.43a2.11,2.11,0,0,0,.61-.34q.33-.25.28-.39s0-.05,0,0l-5.63-3.25-.31.2.57,1.75A12.09,12.09,0,0,0,64.1,117q.12.18.9.16a4.35,4.35,0,0,0,1.06-.11q.09,0,.23.38a1.67,1.67,0,0,1,.14.57q-.21,0-1.53.38t-2,.55q-.68.22-1.94.73l-1.47.61c-.1-.05-.2-.22-.29-.5s-.1-.44,0-.46a4.2,4.2,0,0,0,1-.55q.62-.44.61-.66a9.76,9.76,0,0,0-.48-2.13l-3.84-11.72a11.68,11.68,0,0,0-.77-1.87q-.29-.4-1.62,0l-.25.08q-.17.06-.32-.4c-.1-.3-.09-.47,0-.51q.85-.37,1.59-.77t1.22-.71q.48-.31.81-.58l.71-.55.06,0a.33.33,0,0,1,.28.08.83.83,0,0,1,.24.25,9.63,9.63,0,0,0,.53,2.77L62,111.48a2.7,2.7,0,0,0,.75-.59q.42-.73.92-1.54l.73-1.16c.15-.24.3-.49.44-.75a2.62,2.62,0,0,0,.26-.6.7.7,0,0,0,0-.37q-.1-.31-.76-.17a2.91,2.91,0,0,1-.67.11,1.32,1.32,0,0,1-.25-.47c-.06-.2-.06-.32,0-.36l2.74-.9q.76-.25,3-1.09a.46.46,0,0,1,.24.26,1.33,1.33,0,0,1,.13.43q0,.21-.06.24A3.91,3.91,0,0,0,67.69,105.72Z"/><path class="cls-3" d="M80.19,108.91a10.86,10.86,0,0,0,1.06,2.47c.08.12.38.17.9.16a4.39,4.39,0,0,0,1-.1c.07,0,.16.1.26.37a1.7,1.7,0,0,1,.14.56l-1.55.38q-1.34.35-2,.55t-2,.74q-1.26.51-1.45.6-.15-.08-.29-.5c-.09-.28-.1-.44,0-.46a4.31,4.31,0,0,0,.95-.55q.64-.44.63-.66a9.64,9.64,0,0,0-.48-2.13l-1.51-4.6a2.82,2.82,0,0,0-1-1.66,1.63,1.63,0,0,0-.79-.21,3.1,3.1,0,0,0-.73.05q-.29.06-.31,0-.27-.82-.11-.9a22.73,22.73,0,0,0,2.18-1.09,23.24,23.24,0,0,0,2.07-1.24l.21-.13c.09,0,.19,0,.29.12a.55.55,0,0,1,.16.29,25.21,25.21,0,0,0,.57,2.5ZM73.38,98A1.81,1.81,0,0,1,72.46,97a1.83,1.83,0,0,1,1.18-2.31A1.83,1.83,0,0,1,76,95.82a1.81,1.81,0,0,1-.1,1.41,1.83,1.83,0,0,1-2.49.82Z"/><path class="cls-3" d="M90.39,96.18Q94,95,95.93,100.78l.88,2.68a12.36,12.36,0,0,0,1,2.48c.08.12.38.17.91.15a4.57,4.57,0,0,0,1-.11c.06,0,.13.11.23.38a1.67,1.67,0,0,1,.14.56q-.18,0-1.52.37t-2,.56q-.68.22-1.85.7l-1.42.59c-.1-.05-.2-.22-.29-.5s-.1-.44,0-.46a3.55,3.55,0,0,0,.88-.52q.57-.42.56-.64a8.48,8.48,0,0,0-.45-2.14l-.88-2.68a6.45,6.45,0,0,0-1.71-3.07,2.39,2.39,0,0,0-2.33-.27,2.75,2.75,0,0,0-1.42,1,1.43,1.43,0,0,0-.33,1.28L89,106a12.42,12.42,0,0,0,1,2.48c.08.12.37.17.88.16a4.27,4.27,0,0,0,1-.09c.07,0,.16.1.26.37a1.69,1.69,0,0,1,.14.57l-1.52.37q-1.28.33-1.93.54t-1.94.73l-1.47.61q-.15-.08-.29-.5c-.09-.28-.1-.44,0-.46a4.15,4.15,0,0,0,1-.55c.41-.29.62-.51.61-.66a9.65,9.65,0,0,0-.48-2.13l-1.51-4.6a2.83,2.83,0,0,0-1-1.66,1.43,1.43,0,0,0-.77-.22,3.35,3.35,0,0,0-.73.05c-.19,0-.28,0-.3,0-.18-.55-.22-.84-.14-.89A42.15,42.15,0,0,0,86,97.81a.19.19,0,0,1,.06-.07l.08,0,.07,0c.08,0,.16,0,.26.13a.89.89,0,0,1,.19.28,10.27,10.27,0,0,0,.22,1.05c0,.08,0,.12.07.13s.06,0,.11-.13A6.58,6.58,0,0,1,88.4,97.4,5.21,5.21,0,0,1,90.39,96.18Z"/><path class="cls-3" d="M103.35,92a9.39,9.39,0,0,1,2.46-.4,9.16,9.16,0,0,0,2.38-.37l1.61-.53s.14.09.32.3a1.83,1.83,0,0,1,.33.52q.13.4,0,.45l-1.84.6c-.07,0-.1.07-.08.12s.17.24.49.65a4.21,4.21,0,0,1,.7,1.27,4.3,4.3,0,0,1-.41,3.47,5.09,5.09,0,0,1-3,2.49,12.28,12.28,0,0,1-1.79.46,1.6,1.6,0,0,0-.45.73,1.26,1.26,0,0,0-.06.78.61.61,0,0,0,.43.39,2,2,0,0,0,.93,0q.59-.1,1-.2l1.15-.31.42-.14a10.5,10.5,0,0,1,4.39-.58,2.34,2.34,0,0,1,2,1.65,4.68,4.68,0,0,1-.83,4.34,8.12,8.12,0,0,1-4.26,3.12,7.72,7.72,0,0,1-3.86.39,2.67,2.67,0,0,1-2.3-1.81,2.31,2.31,0,0,1,.29-1.85,4.93,4.93,0,0,1,1.39-1.64,3.39,3.39,0,0,1-1.64-.42,2.16,2.16,0,0,1-1.11-1.28q-.4-1.21,1.27-3.2a3.94,3.94,0,0,1-2-1A4.38,4.38,0,0,1,99.71,98a4,4,0,0,1,.43-3.65A5.91,5.91,0,0,1,103.35,92Zm8.74,13.5q-.32-1-1.86-.85a18.83,18.83,0,0,0-3.93.93l-.13.07-.11.13c-.21.17-.38.32-.49.42a2.6,2.6,0,0,0-.35.46,1.44,1.44,0,0,0-.22.62,1.75,1.75,0,0,0,.1.72,2.08,2.08,0,0,0,1.63,1.34,4.64,4.64,0,0,0,2.62-.11,4.48,4.48,0,0,0,2.34-1.58A2.32,2.32,0,0,0,112.1,105.49Zm-9.55-8.7a4.72,4.72,0,0,0,1.33,2.15,1.85,1.85,0,0,0,1.89.43A1.77,1.77,0,0,0,107,98.05a3.94,3.94,0,0,0-.16-2.15,4.9,4.9,0,0,0-1.36-2.24,1.9,1.9,0,0,0-1.95-.39,1.68,1.68,0,0,0-1.21,1.37A4.31,4.31,0,0,0,102.55,96.79Z"/><path class="cls-3" d="M136.31,83.5a.86.86,0,0,0-.41-.51,1.31,1.31,0,0,0-.69-.15,5.37,5.37,0,0,0-.7.07,4.36,4.36,0,0,0-.59.15l-.11,0c-.08,0-.16-.1-.27-.38s-.13-.46-.1-.53q.37-.12,1.52-.41t1.84-.51q.59-.2,1.48-.58t1.31-.52a1.86,1.86,0,0,1,.21.46c.09.28.1.44,0,.46a3.37,3.37,0,0,0-1,.72,1.81,1.81,0,0,0-.69,1.18l-.91,11.34a1.16,1.16,0,0,1-.25.53,1,1,0,0,1-.49.37.37.37,0,0,1-.43-.08l-6-6.67-.61,8.36a1.6,1.6,0,0,1-.2.5.9.9,0,0,1-.53.42.44.44,0,0,1-.46-.07q-1.13-1.26-2.71-3.07t-2.84-3.18q-1.26-1.37-2.84-2.95a1.37,1.37,0,0,0-.92-.32,2.88,2.88,0,0,0-1,.1q-.11,0-.26-.41c-.09-.26-.1-.44,0-.52s.67-.19,1.45-.38,1.39-.36,1.82-.5,1.06-.38,1.89-.71l1.44-.57a1.63,1.63,0,0,1,.22.49q.12.37,0,.42a3.52,3.52,0,0,0-.91.52q-.54.4-.41.79s1.66,1.89,5,5.57q.05-.89.13-2t.12-1.73q0-.59.08-1.2c0-.4,0-.7,0-.9a1.53,1.53,0,0,0,0-.38,2.16,2.16,0,0,0-.74-1,1.41,1.41,0,0,0-.77-.25,2.37,2.37,0,0,0-1.07.16c-.08,0-.16-.1-.25-.37s-.11-.45,0-.53.68-.19,1.43-.37,1.34-.35,1.79-.49,1-.37,1.81-.69,1.26-.51,1.41-.56a1.46,1.46,0,0,1,.21.51c.08.28.09.42,0,.44q-1.44.47-1.12,1.46a47.93,47.93,0,0,0,4.71,5.4q.06-1.34.2-3.15t.2-2.69A4,4,0,0,0,136.31,83.5Z"/><path class="cls-3" d="M149,86.34a11,11,0,0,0,1.06,2.47q.12.18.9.16a4.35,4.35,0,0,0,1-.1c.07,0,.16.1.26.37a1.7,1.7,0,0,1,.14.56l-1.55.38q-1.34.35-2,.55t-2,.74q-1.26.51-1.45.6c-.1-.05-.2-.22-.29-.5s-.1-.44,0-.46a4.33,4.33,0,0,0,.95-.55q.64-.44.63-.66a9.7,9.7,0,0,0-.48-2.13l-1.51-4.6a2.83,2.83,0,0,0-1-1.66,1.64,1.64,0,0,0-.79-.21,3.13,3.13,0,0,0-.73.05c-.19,0-.3,0-.31,0q-.27-.82-.11-.9a22.73,22.73,0,0,0,2.18-1.09A23.41,23.41,0,0,0,146,78.13l.21-.13c.09,0,.19,0,.29.12a.54.54,0,0,1,.16.29,25.5,25.5,0,0,0,.57,2.5ZM142.2,75.48a1.8,1.8,0,0,1-.92-1.08,1.83,1.83,0,0,1,1.18-2.31,1.78,1.78,0,0,1,1.41.1,1.76,1.76,0,0,1,.91,1.06,1.81,1.81,0,0,1-.1,1.41,1.83,1.83,0,0,1-2.49.81Z"/><path class="cls-3" d="M152.26,78.08l-1.72.57c-.13,0-.28-.18-.44-.67a.72.72,0,0,1-.06-.26,8.35,8.35,0,0,0,1.68-2.21q.25-.49.53-1.1t.64-1.54a2.09,2.09,0,0,1,.56-.11c.19,0,.29,0,.31.07l.91,2.77,2.05-.66,1.4-.44c.15,0,.25,0,.31.18a2.89,2.89,0,0,1,.13,1.34l-3.39,1.11,2.23,6.81a2.82,2.82,0,0,0,1,1.57,1.7,1.7,0,0,0,1.52.16,2.82,2.82,0,0,0,.57-.27,3.19,3.19,0,0,0,.46-.32l.31-.29a.93.93,0,0,1,.17-.15q.1-.06.34.17c.16.16.23.27.23.33a2.73,2.73,0,0,1-.9,1.31,4.68,4.68,0,0,1-1.85,1.18,3.75,3.75,0,0,1-2.81-.13,4,4,0,0,1-2-2.59Z"/><path class="cls-3" d="M169.39,70.28q3.61-1.19,5.44,4.38l1,2.91A11,11,0,0,0,176.84,80q.09.19.88.16a4.55,4.55,0,0,0,1-.11c.06,0,.13.11.23.38a3.12,3.12,0,0,1,.17.56l-1.55.38q-1.34.34-2,.55t-1.88.71l-1.45.6a1.12,1.12,0,0,1-.26-.51c-.09-.28-.11-.43-.06-.45a3.54,3.54,0,0,0,.9-.53q.57-.42.59-.65A11.27,11.27,0,0,0,173,79l-.91-2.77a6.22,6.22,0,0,0-1.7-3,2.43,2.43,0,0,0-2.31-.23,2.85,2.85,0,0,0-1.4,1,1.4,1.4,0,0,0-.35,1.31l1.59,4.86A11,11,0,0,0,169,82.61c.08.12.38.17.88.16a4.25,4.25,0,0,0,1-.1q.08,0,.23.38a1.67,1.67,0,0,1,.14.57l-1.52.37q-1.28.33-1.93.54t-1.94.73l-1.47.61c-.1-.05-.2-.22-.29-.5s-.1-.44,0-.46a4.17,4.17,0,0,0,1-.55q.62-.44.61-.66a9.52,9.52,0,0,0-.47-2.1l-3.85-11.75a11.58,11.58,0,0,0-.77-1.87q-.29-.41-1.62,0l-.25.08q-.17.06-.32-.4c-.1-.3-.09-.47,0-.51q.85-.37,1.59-.77c.5-.27.9-.5,1.22-.71s.59-.4.81-.58l.71-.55.06,0a.32.32,0,0,1,.28.08.86.86,0,0,1,.24.25,9.5,9.5,0,0,0,.53,2.77l1.87,5.71c0,.11.09.16.17.13s0,0,.09-.12a5.66,5.66,0,0,1,1.33-1.8A5.48,5.48,0,0,1,169.39,70.28Z"/><path class="cls-3" d="M191.22,56.3,202,69.16q.79,1,1.52,1.78a1.45,1.45,0,0,0,1.13.38,4,4,0,0,0,1.16-.1c.07,0,.17.13.28.47a1,1,0,0,1,.08.44l-3.61,1-3.62,1.37c-.1-.05-.19-.21-.28-.49s-.1-.42,0-.45a3.79,3.79,0,0,0,.88-.47c.36-.24.55-.45.58-.63a.84.84,0,0,0,0-.4,6.85,6.85,0,0,0-1.18-1.77L197,68a.33.33,0,0,0-.23,0q-.92.24-2.45.74t-3.19,1.14q-.17.06-.13.17l-.21,3a8.42,8.42,0,0,0,.06,2,.66.66,0,0,0,.5.46,3,3,0,0,0,1,0,5.11,5.11,0,0,0,.91-.14c.06,0,.13.12.21.37a1.93,1.93,0,0,1,.12.56l-1.36.35q-1.21.3-1.95.54t-1.71.64l-1.39.57a.62.62,0,0,1-.25-.39c-.11-.34-.15-.51-.11-.53a4.29,4.29,0,0,0,1-.6,1.84,1.84,0,0,0,.77-.86,14,14,0,0,0,.35-2.56L190,59a6.44,6.44,0,0,1,.38-2.38.76.76,0,0,1,.42-.36A.49.49,0,0,1,191.22,56.3Zm.06,11.62q1-.24,2.06-.58t2.29-.84l0-.13-4-4.95-.46,6.41C191.21,67.9,191.24,67.93,191.28,67.92Z"/><path class="cls-3" d="M213.28,55.89q3.65-1.2,5.54,4.6l.88,2.68a12.35,12.35,0,0,0,1,2.48c.08.12.38.17.91.16a4.54,4.54,0,0,0,1-.11q.09,0,.23.38a1.69,1.69,0,0,1,.14.57q-.18,0-1.52.37t-2,.56q-.68.22-1.85.7l-1.42.59c-.1-.05-.2-.22-.29-.5s-.1-.44,0-.46a3.53,3.53,0,0,0,.88-.52c.38-.28.56-.49.56-.64a8.57,8.57,0,0,0-.45-2.14l-.88-2.68a6.46,6.46,0,0,0-1.71-3.07,2.39,2.39,0,0,0-2.33-.27,2.75,2.75,0,0,0-1.42,1,1.43,1.43,0,0,0-.33,1.28l1.59,4.86a12.55,12.55,0,0,0,1,2.48q.12.18.88.16a4.27,4.27,0,0,0,1-.09q.11,0,.26.37a1.75,1.75,0,0,1,.14.56l-1.52.37q-1.28.33-1.93.54t-1.94.73l-1.47.61c-.1-.05-.2-.22-.29-.5s-.1-.44,0-.46a4.17,4.17,0,0,0,1-.55q.62-.44.61-.66a9.75,9.75,0,0,0-.48-2.13l-1.51-4.6a2.83,2.83,0,0,0-1-1.66,1.43,1.43,0,0,0-.78-.22,3.35,3.35,0,0,0-.73.05c-.19,0-.28,0-.3,0q-.27-.82-.14-.89a42.14,42.14,0,0,0,4.27-2.34.19.19,0,0,1,.06-.07l.08,0,.07,0c.07,0,.16,0,.26.13a.92.92,0,0,1,.19.28,9.85,9.85,0,0,0,.22,1.05.24.24,0,0,0,.07.13s.06,0,.11-.13a6.58,6.58,0,0,1,1.35-1.76A5.21,5.21,0,0,1,213.28,55.89Z"/><path class="cls-3" d="M227.16,51.27a5.12,5.12,0,0,1,2.19-.28q.14,0,0-.5l-.87-2.66a10.33,10.33,0,0,0-.8-1.86q-.29-.41-1.62,0l-.23.07q-.17.06-.32-.4c-.1-.3-.09-.47,0-.51q.82-.36,1.58-.77t1.23-.72q.48-.31.81-.58l.51-.4.2-.14.06,0a.32.32,0,0,1,.28.08.56.56,0,0,1,.21.26,11.38,11.38,0,0,0,.59,2.75l4.08,12.43a10.76,10.76,0,0,0,.85,2,.44.44,0,0,0,.38.22,1.84,1.84,0,0,0,.58,0l.55-.13.29-.08c.05,0,.11.13.17.32.12.38.13.58,0,.62s-.58.25-1,.44l-1.13.57-1,.56-1.09.62c-.11,0-.22-.1-.33-.42l-.16-.48c0-.06,0-.09-.08-.1a.06.06,0,0,0-.07,0,5,5,0,0,1-2.59,2,5.76,5.76,0,0,1-4.53-.37,6,6,0,0,1-3.08-3.67,7,7,0,0,1,.37-5.42A6.51,6.51,0,0,1,227.16,51.27Zm.19,1.44a2.6,2.6,0,0,0-1.84,2,7,7,0,0,0,.36,3.67,7.18,7.18,0,0,0,2.1,3.46,2.92,2.92,0,0,0,2.9.54,2.47,2.47,0,0,0,1.39-1,1.65,1.65,0,0,0,.18-1.45L230.5,54a2.09,2.09,0,0,0-.29-.56,2.75,2.75,0,0,0-.56-.55,1.91,1.91,0,0,0-1-.34A3.16,3.16,0,0,0,227.35,52.71Z"/><path class="cls-3" d="M244.08,45.79a3,3,0,0,1,2.62.17q.79,2.4-.57,2.85a1.77,1.77,0,0,1-1.29-.2,1.86,1.86,0,0,0-1.4-.17,1.59,1.59,0,0,0-1.08,1.34,4,4,0,0,0,.11,2l1.16,3.53a12.42,12.42,0,0,0,1,2.48c.08.12.38.17.88.16a4.23,4.23,0,0,0,1-.1c.06,0,.13.11.23.38a3.1,3.1,0,0,1,.17.56l-1.53.38q-1.3.33-1.95.54t-1.94.73l-1.47.61q-.15-.08-.29-.5t0-.46a4.15,4.15,0,0,0,1-.55q.62-.44.61-.65a9.7,9.7,0,0,0-.48-2.13l-1.51-4.61a2.83,2.83,0,0,0-1-1.66,1.43,1.43,0,0,0-.77-.22,3.41,3.41,0,0,0-.73.05c-.19,0-.28,0-.3,0q-.27-.82-.14-.89a42.17,42.17,0,0,0,4.27-2.34l.21-.13c.08,0,.16,0,.26.13a.72.72,0,0,1,.18.3l.09.41c0,.19.08.38.11.59a3.92,3.92,0,0,0,.08.4A5.46,5.46,0,0,1,242.5,47,3.26,3.26,0,0,1,244.08,45.79Z"/><path class="cls-3" d="M254,42.53a5.51,5.51,0,0,1,2.54-.26,4.72,4.72,0,0,1,2.07.79,6.88,6.88,0,0,1,1.45,1.37A5.09,5.09,0,0,1,261,46q.2.62,0,.85a1.68,1.68,0,0,1-.81.44l-6.75,2.21c-.13,0-.18.12-.14.23a5.71,5.71,0,0,0,1,1.86,4.07,4.07,0,0,0,1.8,1.25,3.5,3.5,0,0,0,2.36,0,8.07,8.07,0,0,0,.8-.31,4.4,4.4,0,0,0,.69-.38l.53-.38a2.51,2.51,0,0,0,.44-.43l.3-.36.44-.57a.46.46,0,0,1,.2.12.57.57,0,0,1,.18.25.92.92,0,0,1,0,.59,4.83,4.83,0,0,1-1.17,2.07,5.51,5.51,0,0,1-2.55,1.68,6,6,0,0,1-4.84-.43,6.41,6.41,0,0,1-3.23-3.84,6.88,6.88,0,0,1,.13-5.18A5.76,5.76,0,0,1,254,42.53Zm.23,1.36a2.11,2.11,0,0,0-1.09.79,2.81,2.81,0,0,0-.5,1.23,5.78,5.78,0,0,0-.06,1.19,3.61,3.61,0,0,0,.15.88q.07.2.23.14l4.58-1.5c.17-.06.21-.22.12-.51a3.85,3.85,0,0,0-1.32-1.79A2.13,2.13,0,0,0,254.26,43.89Z"/><path class="cls-3" d="M266.78,38.35a3.65,3.65,0,0,1,2.93.06,4.76,4.76,0,0,1,1.91,2.86l1.83,5.57a1.36,1.36,0,0,0,.54.78.89.89,0,0,0,.77.07,1.85,1.85,0,0,0,.84-.68c.13,0,.22.09.27.25a1.77,1.77,0,0,1,.11.9,7.28,7.28,0,0,1-.9,1.08,3.11,3.11,0,0,1-1.24.81,2.17,2.17,0,0,1-1.43-.06,2.45,2.45,0,0,1-1.16-.78l-.15.25q-.13.22-.38.55a8.55,8.55,0,0,1-.58.69,4.74,4.74,0,0,1-.84.7,4.32,4.32,0,0,1-1.07.52,3.55,3.55,0,0,1-2.56,0,2.83,2.83,0,0,1-1.59-1.84,2.75,2.75,0,0,1-.09-1.38,3.59,3.59,0,0,1,.46-1.23,6.08,6.08,0,0,1,1-1.15,12.29,12.29,0,0,1,1.13-1q.49-.36,1.27-.9l1.08-.76a.47.47,0,0,0,.11-.54l-.51-1.55a2.55,2.55,0,0,0-1-1.41,1.55,1.55,0,0,0-1.4-.17A1.8,1.8,0,0,0,265,41a2.23,2.23,0,0,0,0,1.64,1,1,0,0,1-.15,1,1.85,1.85,0,0,1-.87.58,1.68,1.68,0,0,1-1.69-.2q-.44-1.36,1-3.15A7.45,7.45,0,0,1,266.78,38.35Zm2.28,11.26a2.3,2.3,0,0,0,1.18-.83,1.17,1.17,0,0,0,.25-1.08l-.94-2.88q-.17.15-.74.56T268,46a8.26,8.26,0,0,0-.66.66,1.79,1.79,0,0,0-.46.84,1.63,1.63,0,0,0,0,.86,1.83,1.83,0,0,0,.89,1.18A1.71,1.71,0,0,0,269.07,49.61Z"/><path class="cls-3" d="M288.36,24.45l10.79,12.86q.79,1,1.52,1.78a1.45,1.45,0,0,0,1.13.38,4,4,0,0,0,1.16-.1c.07,0,.17.13.28.47a1,1,0,0,1,.08.44l-3.62,1-3.62,1.37q-.15-.08-.28-.49c-.09-.27-.1-.42,0-.45a3.81,3.81,0,0,0,.88-.47q.54-.36.58-.63a.84.84,0,0,0,0-.4A6.83,6.83,0,0,0,296,38.46l-1.85-2.3a.33.33,0,0,0-.23,0q-.92.24-2.45.74T288.3,38c-.11,0-.16.09-.13.17l-.21,3a8.52,8.52,0,0,0,.06,2,.66.66,0,0,0,.5.46,3,3,0,0,0,1,0,5.08,5.08,0,0,0,.91-.14c.06,0,.13.12.21.37a1.93,1.93,0,0,1,.12.56l-1.36.35q-1.21.3-1.95.55t-1.71.64l-1.39.57a.63.63,0,0,1-.25-.39c-.11-.34-.15-.51-.11-.53a4.29,4.29,0,0,0,1-.6,1.84,1.84,0,0,0,.76-.86,14,14,0,0,0,.35-2.56l1.09-14.44a6.44,6.44,0,0,1,.38-2.38.76.76,0,0,1,.42-.36A.49.49,0,0,1,288.36,24.45Zm.06,11.62q1-.24,2.06-.58t2.29-.84l0-.13-4-4.95L288.32,36C288.35,36.05,288.38,36.08,288.42,36.07Z"/><path class="cls-3" d="M309.46,24.35a3,3,0,0,1,2.62.17q.79,2.4-.57,2.85a1.77,1.77,0,0,1-1.29-.2,1.86,1.86,0,0,0-1.4-.17,1.59,1.59,0,0,0-1.08,1.34,4,4,0,0,0,.11,2L309,33.88a12.36,12.36,0,0,0,1,2.48c.08.12.37.17.88.16a4.21,4.21,0,0,0,1-.1c.06,0,.13.11.23.38a3.12,3.12,0,0,1,.17.56l-1.53.38q-1.3.33-1.95.54t-1.94.73l-1.47.61c-.1-.05-.2-.22-.29-.5s-.1-.44,0-.46a4.13,4.13,0,0,0,1-.55q.62-.44.61-.66a9.64,9.64,0,0,0-.48-2.13l-1.51-4.6a2.83,2.83,0,0,0-1-1.66,1.43,1.43,0,0,0-.77-.22,3.39,3.39,0,0,0-.73.05c-.18,0-.28,0-.3,0q-.27-.82-.14-.89A42.12,42.12,0,0,0,306,25.67l.21-.13c.08,0,.16,0,.26.13a.7.7,0,0,1,.18.3l.09.41c0,.19.08.38.11.59a3.31,3.31,0,0,0,.08.39,5.42,5.42,0,0,1,.93-1.82A3.26,3.26,0,0,1,309.46,24.35Z"/><path class="cls-3" d="M321.89,20.28a3,3,0,0,1,2.62.17q.79,2.4-.57,2.85a1.77,1.77,0,0,1-1.29-.2,1.86,1.86,0,0,0-1.4-.17,1.59,1.59,0,0,0-1.08,1.34,4,4,0,0,0,.11,2l1.16,3.53a12.36,12.36,0,0,0,1,2.48c.08.12.37.17.88.16a4.18,4.18,0,0,0,1-.1c.06,0,.13.11.23.38a3.13,3.13,0,0,1,.17.56l-1.53.38q-1.3.33-1.95.54t-1.94.73l-1.47.61c-.1-.05-.2-.22-.29-.5s-.1-.44,0-.46a4.17,4.17,0,0,0,1-.55q.62-.44.61-.66a9.65,9.65,0,0,0-.48-2.13l-1.51-4.6a2.83,2.83,0,0,0-1-1.66,1.44,1.44,0,0,0-.77-.22,3.35,3.35,0,0,0-.73.05c-.18,0-.28,0-.3,0q-.27-.82-.14-.89a42.12,42.12,0,0,0,4.27-2.34l.21-.13c.08,0,.16,0,.26.13a.7.7,0,0,1,.18.3l.09.41c0,.19.08.38.11.59a3.23,3.23,0,0,0,.08.39,5.44,5.44,0,0,1,.93-1.82A3.26,3.26,0,0,1,321.89,20.28Z"/><path class="cls-3" d="M339.4,17.92l1.83,5.59a6.6,6.6,0,0,0,.87,1.9.62.62,0,0,0,.4.12,2.28,2.28,0,0,0,.53,0l.47-.12a.56.56,0,0,1,.25-.05c.08,0,.15.07.2.22a2.24,2.24,0,0,1,.07.4c0,.19,0,.3-.08.32a7,7,0,0,0-1,.43l-1.11.58q-.53.28-1,.56l-1.06.6q-.2.06-.35-.39l-.41-1.24c0-.09-.09-.13-.13-.11a6.61,6.61,0,0,1-1.31,1.84,5,5,0,0,1-2,1.3,3.1,3.1,0,0,1-1.84.07,3.57,3.57,0,0,1-1.54-.87,6.38,6.38,0,0,1-1.13-1.44,9.07,9.07,0,0,1-.77-1.72l-1-3.16a2.83,2.83,0,0,0-1-1.66,1.65,1.65,0,0,0-.79-.21,3.14,3.14,0,0,0-.73.05c-.2,0-.3,0-.31,0-.18-.55-.22-.84-.14-.89a22.42,22.42,0,0,0,2.21-1.1,23.39,23.39,0,0,0,2.06-1.24l.1-.07.1-.06q.14,0,.28.13a1.1,1.1,0,0,1,.17.29,25.91,25.91,0,0,0,.56,2.57l1.11,3.39a6.38,6.38,0,0,0,1.66,3,2.63,2.63,0,0,0,3.67-.75,1.59,1.59,0,0,0,.27-1.26l-1.53-4.66a2.84,2.84,0,0,0-1-1.66,1.45,1.45,0,0,0-.78-.21,3.34,3.34,0,0,0-.75.06c-.19,0-.3,0-.31,0q-.27-.82-.11-.9a22.87,22.87,0,0,0,2.18-1.09,23.37,23.37,0,0,0,2.06-1.24l.21-.13c.1,0,.19,0,.29.12a.54.54,0,0,1,.16.29Q339.23,17.41,339.4,17.92Z"/><path class="cls-3" d="M349.22,11.32a6,6,0,0,1,3.44-.14,6.23,6.23,0,0,1,2.86,1.57,6.34,6.34,0,0,1,1.65,2.6,6.79,6.79,0,0,1-.41,5.37,6.56,6.56,0,0,1-3.89,3.45,9.32,9.32,0,0,1-2.13.46,6.52,6.52,0,0,0-1.4.22,2.27,2.27,0,0,0-.67.44,2.89,2.89,0,0,1-.5.38,1.43,1.43,0,0,1-.46,0q-.38-.06-.42-.18c0-.06-.06-.23-.11-.53s-.14-.71-.26-1.26a17.1,17.1,0,0,0-.48-1.75L342.67,10.4a10.42,10.42,0,0,0-.8-1.87q-.29-.41-1.62,0l-.25.08q-.17.06-.32-.4c-.1-.3-.09-.47,0-.51q.85-.37,1.59-.77t1.22-.71q.48-.31.81-.58l.71-.55.06,0a.32.32,0,0,1,.28.08.86.86,0,0,1,.24.25,10.35,10.35,0,0,0,.56,2.76l1.48,4.52v0l0,.13.06.12c0,.05.05.08.09.07l.09-.06a5.44,5.44,0,0,1,1-.94A4.28,4.28,0,0,1,349.22,11.32ZM349.1,13a2.3,2.3,0,0,0-1.35,1,1.75,1.75,0,0,0-.18,1.47l2,6a1.78,1.78,0,0,0,1.24,1.25,3.23,3.23,0,0,0,1.93-.07,2.53,2.53,0,0,0,1.78-2.06,6.81,6.81,0,0,0-.31-3.47,7.65,7.65,0,0,0-2.13-3.56A2.92,2.92,0,0,0,349.1,13Z"/><path class="cls-3" d="M364.81,15.53a12.27,12.27,0,0,0,1,2.48c.08.12.36.19.84.21a3.31,3.31,0,0,0,.94,0c.06,0,.13.1.23.36a1.61,1.61,0,0,1,.13.55l-1.08.28-1.22.32-1,.31q-.54.18-1.06.38l-1.16.46-1.05.42c-.1-.05-.2-.21-.28-.49s-.1-.42,0-.45a3.18,3.18,0,0,0,.87-.55q.56-.45.55-.67a9.76,9.76,0,0,0-.46-2.16L358.17,5.19a10.32,10.32,0,0,0-.8-1.86q-.29-.41-1.56,0l-.28.09c-.11,0-.21-.06-.28-.28s-.09-.47,0-.51q.85-.37,1.59-.77t1.22-.71q.48-.31.82-.56l.54-.41.17-.15.06,0a.36.36,0,0,1,.3.09.9.9,0,0,1,.25.23,9.44,9.44,0,0,0,.53,2.77Z"/><path class="cls-3" d="M371.7,3.95a3.65,3.65,0,0,1,2.93.06,4.75,4.75,0,0,1,1.91,2.86l1.83,5.57a1.36,1.36,0,0,0,.54.78.89.89,0,0,0,.77.07,1.85,1.85,0,0,0,.84-.68c.13,0,.22.09.27.25a1.77,1.77,0,0,1,.11.9,7.34,7.34,0,0,1-.9,1.08,3.11,3.11,0,0,1-1.24.81,2.18,2.18,0,0,1-1.43-.06,2.44,2.44,0,0,1-1.16-.78l-.15.25q-.13.22-.38.55a8.3,8.3,0,0,1-.59.69,4.73,4.73,0,0,1-.83.7,4.34,4.34,0,0,1-1.07.52,3.55,3.55,0,0,1-2.56,0A2.83,2.83,0,0,1,369,15.66a2.75,2.75,0,0,1-.09-1.38,3.57,3.57,0,0,1,.46-1.23,6.06,6.06,0,0,1,1-1.15,12.25,12.25,0,0,1,1.13-1c.33-.24.75-.54,1.27-.9l1.08-.76a.47.47,0,0,0,.11-.54l-.51-1.55a2.56,2.56,0,0,0-1-1.41A1.56,1.56,0,0,0,371,5.6a1.8,1.8,0,0,0-1.16,1,2.23,2.23,0,0,0,0,1.64,1,1,0,0,1-.15,1,1.85,1.85,0,0,1-.87.58,1.67,1.67,0,0,1-1.69-.2q-.44-1.36,1-3.15A7.46,7.46,0,0,1,371.7,3.95ZM374,15.21a2.3,2.3,0,0,0,1.18-.83,1.17,1.17,0,0,0,.25-1.08l-.94-2.88c-.11.1-.36.28-.74.56s-.67.49-.86.66a8,8,0,0,0-.66.66,1.8,1.8,0,0,0-.46.84,1.64,1.64,0,0,0,0,.86,1.83,1.83,0,0,0,.89,1.18A1.71,1.71,0,0,0,374,15.21Z"/><path class="cls-3" d="M58.58,197.28a3.65,3.65,0,0,1,2.9-.4,4.76,4.76,0,0,1,2.33,2.53l2.66,5.22a1.37,1.37,0,0,0,.65.69.9.9,0,0,0,.78,0,1.86,1.86,0,0,0,.72-.8q.19,0,.31.21a1.78,1.78,0,0,1,.25.88,7.42,7.42,0,0,1-.72,1.2,3.09,3.09,0,0,1-1.1,1,2.17,2.17,0,0,1-1.42.16,2.44,2.44,0,0,1-1.27-.59l-.11.27q-.1.23-.29.6a8.78,8.78,0,0,1-.47.78,4.72,4.72,0,0,1-.72.82,4.32,4.32,0,0,1-1,.68,3.55,3.55,0,0,1-2.53.37,2.83,2.83,0,0,1-1.86-1.57,2.76,2.76,0,0,1-.3-1.35,3.55,3.55,0,0,1,.26-1.28,6.07,6.07,0,0,1,.78-1.28,12.24,12.24,0,0,1,1-1.15q.43-.43,1.12-1.09l.95-.92a.47.47,0,0,0,0-.55l-.74-1.46A2.55,2.55,0,0,0,59.6,199a1.55,1.55,0,0,0-1.41.05,1.8,1.8,0,0,0-1,1.12,2.22,2.22,0,0,0,.26,1.62,1,1,0,0,1,0,1,1.85,1.85,0,0,1-.77.71,1.68,1.68,0,0,1-1.7.07q-.65-1.27.52-3.27A7.46,7.46,0,0,1,58.58,197.28Zm4,10.78a2.31,2.31,0,0,0,1-1,1.17,1.17,0,0,0,.08-1.11l-1.38-2.7q-.14.17-.65.66t-.75.78a8.27,8.27,0,0,0-.55.75,1.79,1.79,0,0,0-.32.9,1.65,1.65,0,0,0,.18.84,1.83,1.83,0,0,0,1.06,1A1.71,1.71,0,0,0,62.57,208.05Z"/><path class="cls-3" d="M72,190.42a6,6,0,0,1,3.38-.67,6.25,6.25,0,0,1,3.07,1.1,6.36,6.36,0,0,1,2,2.32,6.79,6.79,0,0,1,.42,5.37,6.55,6.55,0,0,1-3.31,4,9.34,9.34,0,0,1-2,.79,6.48,6.48,0,0,0-1.35.44,2.26,2.26,0,0,0-.59.54,2.91,2.91,0,0,1-.44.46,1.42,1.42,0,0,1-.47,0c-.26,0-.4,0-.44-.11s-.09-.22-.19-.5-.25-.68-.45-1.21a16.78,16.78,0,0,0-.75-1.66l-5.51-10.8a10.26,10.26,0,0,0-1.08-1.72q-.35-.35-1.59.28l-.24.12c-.1.05-.23-.06-.37-.34s-.16-.45-.06-.5q.78-.5,1.46-1t1.1-.89q.42-.38.71-.7l.62-.65.05,0a.32.32,0,0,1,.29,0,.8.8,0,0,1,.27.21,10.41,10.41,0,0,0,1,2.64l2.16,4.24v0l.06.12.07.11s.07.07.09.05a.24.24,0,0,0,.08-.07,5.46,5.46,0,0,1,.8-1.08A4.26,4.26,0,0,1,72,190.42Zm.15,1.73A2.3,2.3,0,0,0,71,193.38a1.75,1.75,0,0,0,.05,1.48l2.86,5.61a1.78,1.78,0,0,0,1.42,1,3.22,3.22,0,0,0,1.9-.37,2.53,2.53,0,0,0,1.44-2.31,6.81,6.81,0,0,0-.84-3.38,7.65,7.65,0,0,0-2.66-3.18A2.91,2.91,0,0,0,72.16,192.15Z"/><path class="cls-3" d="M85.41,183.58a6.55,6.55,0,0,1,5.14-.43,6.37,6.37,0,0,1,3.9,3.3,6.78,6.78,0,1,1-9-2.86Zm.29,1.42a2.39,2.39,0,0,0-1.32,2.19,6.37,6.37,0,0,0,.78,3.22,8.67,8.67,0,0,0,2.77,3.3,3,3,0,0,0,3.21.37,2.42,2.42,0,0,0,1.32-2.21,6.32,6.32,0,0,0-.76-3.22,10.24,10.24,0,0,0-1.65-2.38,5.24,5.24,0,0,0-2.12-1.41A2.75,2.75,0,0,0,85.71,185Z"/><path class="cls-3" d="M106.16,176.6l2.68,5.24a6.62,6.62,0,0,0,1.16,1.75.62.62,0,0,0,.41.06,2.28,2.28,0,0,0,.52-.13l.45-.2a.55.55,0,0,1,.24-.09c.08,0,.16,0,.23.18a2.14,2.14,0,0,1,.13.38c.05.19,0,.3,0,.33a6.91,6.91,0,0,0-.89.57l-1,.75c-.32.24-.62.48-.9.71s-.6.48-1,.75q-.19.09-.4-.33l-.59-1.17c-.06-.08-.11-.11-.15-.09a6.65,6.65,0,0,1-1,2,5,5,0,0,1-1.82,1.6,3.11,3.11,0,0,1-1.81.35,3.58,3.58,0,0,1-1.65-.62,6.42,6.42,0,0,1-1.34-1.25,9.13,9.13,0,0,1-1-1.58l-1.51-3a2.83,2.83,0,0,0-1.29-1.48,1.64,1.64,0,0,0-.81-.09,3.1,3.1,0,0,0-.72.16c-.19.07-.29.09-.31.06q-.39-.77-.27-.86a22.3,22.3,0,0,0,2-1.43,23.46,23.46,0,0,0,1.85-1.54l.09-.08.09-.08q.13-.07.29.08a1.08,1.08,0,0,1,.22.26,26.27,26.27,0,0,0,1,2.45l1.62,3.18a6.37,6.37,0,0,0,2.1,2.67,2.62,2.62,0,0,0,3.51-1.31,1.58,1.58,0,0,0,.08-1.29l-2.23-4.37a2.83,2.83,0,0,0-1.29-1.48,1.43,1.43,0,0,0-.8-.09,3.37,3.37,0,0,0-.73.17c-.19.07-.29.09-.31.06q-.39-.77-.25-.88a22.79,22.79,0,0,0,2-1.41,23.46,23.46,0,0,0,1.85-1.54l.18-.16q.13-.07.31.08a.56.56,0,0,1,.2.26Q105.92,176.13,106.16,176.6Z"/><path class="cls-3" d="M110.58,173.08l-1.62.82c-.12.06-.3-.13-.54-.59a.73.73,0,0,1-.1-.25,8.3,8.3,0,0,0,1.32-2.44q.17-.52.36-1.17t.39-1.62a2.12,2.12,0,0,1,.54-.19c.18,0,.29,0,.31,0l1.32,2.6,1.93-1,1.32-.66q.21-.11.33.13a2.89,2.89,0,0,1,.33,1.3l-3.18,1.62,3.26,6.38a2.83,2.83,0,0,0,1.28,1.39,1.7,1.7,0,0,0,1.53-.08,2.77,2.77,0,0,0,.52-.35,3.14,3.14,0,0,0,.4-.39l.26-.33a.93.93,0,0,1,.15-.17c.06-.05.18,0,.36.12s.27.23.28.29a2.73,2.73,0,0,1-.69,1.44,4.68,4.68,0,0,1-1.64,1.46,3.75,3.75,0,0,1-2.8.31,4,4,0,0,1-2.36-2.25Z"/><path class="cls-3" d="M125.92,165.25l-1.62.82q-.19.09-.54-.59a.73.73,0,0,1-.09-.25,8.33,8.33,0,0,0,1.32-2.44q.17-.52.36-1.17t.39-1.62a2.11,2.11,0,0,1,.54-.19c.18,0,.28,0,.31,0l1.33,2.59,1.93-1,1.32-.66c.14-.07.25,0,.33.13a2.89,2.89,0,0,1,.33,1.3l-3.18,1.62,3.26,6.38a2.82,2.82,0,0,0,1.27,1.39,1.7,1.7,0,0,0,1.53-.08,2.83,2.83,0,0,0,.52-.35,3.11,3.11,0,0,0,.4-.39l.26-.33a.93.93,0,0,1,.15-.17c.06-.05.18,0,.36.12s.27.23.28.29a2.73,2.73,0,0,1-.69,1.44,4.69,4.69,0,0,1-1.64,1.46,3.75,3.75,0,0,1-2.8.31,4,4,0,0,1-2.36-2.25Z"/><path class="cls-3" d="M141.64,154.9q3.39-1.73,6.05,3.49l1.39,2.73a10.94,10.94,0,0,0,1.43,2.28q.12.17.9,0a4.54,4.54,0,0,0,1-.27q.08,0,.29.34a3.13,3.13,0,0,1,.25.52q-.2.07-1.47.62t-1.85.85q-.66.34-1.75,1l-1.34.82a1.12,1.12,0,0,1-.34-.46q-.2-.4-.12-.44a3.56,3.56,0,0,0,.81-.66q.5-.5.48-.73a11.24,11.24,0,0,0-.83-2l-1.32-2.6a6.21,6.21,0,0,0-2.14-2.73,2.44,2.44,0,0,0-2.32.13,2.85,2.85,0,0,0-1.23,1.19,1.4,1.4,0,0,0-.15,1.34l2.32,4.55a10.89,10.89,0,0,0,1.43,2.28q.15.16.9,0a4.21,4.21,0,0,0,1-.25c.05,0,.15.09.29.34a1.68,1.68,0,0,1,.22.54l-1.44.6q-1.22.52-1.83.83t-1.8,1l-1.36.83q-.16-.05-.36-.45c-.14-.27-.17-.42-.1-.45a4.17,4.17,0,0,0,.87-.69q.55-.53.5-.74a9.57,9.57,0,0,0-.79-2l-5.62-11a11.81,11.81,0,0,0-1.05-1.73q-.35-.35-1.59.28l-.24.12q-.16.08-.38-.34t-.06-.51q.78-.5,1.45-1t1.1-.89c.28-.26.52-.49.71-.7l.62-.65.05,0a.32.32,0,0,1,.29,0,.84.84,0,0,1,.27.21,9.56,9.56,0,0,0,1,2.65l2.73,5.35q.08.16.19.1s0-.05.07-.13a5.66,5.66,0,0,1,1-2A5.48,5.48,0,0,1,141.64,154.9Z"/><path class="cls-3" d="M154,148.6a5.52,5.52,0,0,1,2.47-.64,4.71,4.71,0,0,1,2.17.46,6.89,6.89,0,0,1,1.64,1.13,5.11,5.11,0,0,1,1.08,1.4c.2.39.26.67.17.83a1.68,1.68,0,0,1-.73.56l-6.33,3.23c-.12.06-.16.15-.1.25a5.75,5.75,0,0,0,1.29,1.68,4.1,4.1,0,0,0,2,1,3.5,3.5,0,0,0,2.34-.36,8,8,0,0,0,.75-.43,4.46,4.46,0,0,0,.62-.48l.47-.46a2.52,2.52,0,0,0,.37-.49l.24-.41.35-.63a.47.47,0,0,1,.21.09.57.57,0,0,1,.22.22.92.92,0,0,1,.1.58,4.83,4.83,0,0,1-.83,2.23,5.51,5.51,0,0,1-2.26,2.05,6,6,0,0,1-4.84.32,6.41,6.41,0,0,1-3.78-3.29,6.88,6.88,0,0,1-.67-5.13A5.77,5.77,0,0,1,154,148.6Zm.44,1.31a2.1,2.1,0,0,0-.95,1,2.81,2.81,0,0,0-.31,1.29,5.63,5.63,0,0,0,.12,1.19,3.66,3.66,0,0,0,.28.84c.06.12.15.16.25.1l4.29-2.19q.24-.12,0-.52a3.85,3.85,0,0,0-1.58-1.56A2.13,2.13,0,0,0,154.42,149.91Z"/><path class="cls-3" d="M174.84,138a3.21,3.21,0,0,1,2-.36,3.49,3.49,0,0,1,1.74.8,7,7,0,0,1,1.26-2.31,6.68,6.68,0,0,1,2.22-1.8,3.37,3.37,0,0,1,1.84-.41,3.28,3.28,0,0,1,1.66.64,7,7,0,0,1,1.39,1.36,11.35,11.35,0,0,1,1.15,1.83l1.42,2.78a12.44,12.44,0,0,0,1.4,2.29q.15.16.91,0a4.37,4.37,0,0,0,1-.26c.05,0,.15.09.29.34a1.7,1.7,0,0,1,.22.54q-.2.07-1.44.6t-1.86.85q-.64.32-1.77,1l-1.36.83a1.12,1.12,0,0,1-.34-.46c-.13-.27-.17-.41-.12-.44a4,4,0,0,0,.85-.68q.53-.52.49-.74a9.22,9.22,0,0,0-.76-1.95l-1.38-2.7q-2-3.84-4.42-2.58A2.71,2.71,0,0,0,180,138.3a1.86,1.86,0,0,0-.27,1.17l.1.22a.58.58,0,0,0,.12.21,14.55,14.55,0,0,1,.92,1.6l1.43,2.81a11.66,11.66,0,0,0,1.35,2.18q.15.16.91,0a4.37,4.37,0,0,0,1-.26c.05,0,.15.09.29.34a1.68,1.68,0,0,1,.22.54c-.13,0-.61.25-1.44.6s-1.45.64-1.85.85-1,.55-1.77,1l-1.36.83a1.12,1.12,0,0,1-.34-.46c-.13-.27-.17-.41-.12-.44a4,4,0,0,0,.85-.68q.53-.52.49-.74a9.69,9.69,0,0,0-.8-2l-1.3-2.54a6.29,6.29,0,0,0-2.14-2.68,2.27,2.27,0,0,0-2.27,0,2.84,2.84,0,0,0-1.23,1.19,1.4,1.4,0,0,0-.15,1.34l2.32,4.55a10.94,10.94,0,0,0,1.43,2.28q.15.16.89,0a4.05,4.05,0,0,0,1-.25q.11-.05.32.32a1.68,1.68,0,0,1,.22.54l-1.44.6q-1.22.52-1.83.83t-1.81,1l-1.35.82q-.16-.05-.36-.45c-.13-.27-.17-.42-.1-.45a4.32,4.32,0,0,0,.85-.68q.56-.54.52-.75a9.7,9.7,0,0,0-.8-2l-2.2-4.32A2.83,2.83,0,0,0,169,144a1.44,1.44,0,0,0-.8-.09,3.3,3.3,0,0,0-.73.17c-.19.07-.29.09-.31.06-.26-.51-.34-.8-.25-.88a41.08,41.08,0,0,0,3.83-3,.19.19,0,0,1,.06-.08l.13-.08c.09,0,.19,0,.31.08a.55.55,0,0,1,.2.26,10.71,10.71,0,0,0,.38,1c0,.07.08.11.12.11a.45.45,0,0,0,.09-.15,6.62,6.62,0,0,1,1.06-1.94A5.21,5.21,0,0,1,174.84,138Z"/><path class="cls-3" d="M194.23,128.06a5.52,5.52,0,0,1,2.48-.65,4.72,4.72,0,0,1,2.17.46,6.88,6.88,0,0,1,1.64,1.13,5.09,5.09,0,0,1,1.08,1.4c.2.39.26.67.17.83a1.68,1.68,0,0,1-.73.56L194.71,135c-.12.06-.16.15-.1.25A5.75,5.75,0,0,0,195.9,137a4.09,4.09,0,0,0,2,1,3.5,3.5,0,0,0,2.34-.36,8.21,8.21,0,0,0,.75-.43,4.44,4.44,0,0,0,.62-.48l.47-.46a2.5,2.5,0,0,0,.37-.49l.24-.41.35-.63a.46.46,0,0,1,.21.09.58.58,0,0,1,.22.22.91.91,0,0,1,.1.58,4.83,4.83,0,0,1-.83,2.23,5.51,5.51,0,0,1-2.26,2.05,6,6,0,0,1-4.84.32,6.41,6.41,0,0,1-3.78-3.29,6.88,6.88,0,0,1-.67-5.13A5.76,5.76,0,0,1,194.23,128.06Zm.44,1.31a2.1,2.1,0,0,0-.95,1,2.81,2.81,0,0,0-.31,1.29,5.79,5.79,0,0,0,.12,1.19,3.62,3.62,0,0,0,.28.84c.06.12.15.16.25.1l4.29-2.19c.16-.08.17-.25,0-.52a3.84,3.84,0,0,0-1.58-1.56A2.13,2.13,0,0,0,194.66,129.37Z"/><path class="cls-3" d="M206.18,122a3.65,3.65,0,0,1,2.9-.4,4.76,4.76,0,0,1,2.33,2.53l2.66,5.22a1.37,1.37,0,0,0,.65.69.89.89,0,0,0,.78,0,1.86,1.86,0,0,0,.72-.8c.12,0,.23.05.31.21a1.78,1.78,0,0,1,.25.88,7.42,7.42,0,0,1-.72,1.2,3.09,3.09,0,0,1-1.1,1,2.17,2.17,0,0,1-1.42.16,2.44,2.44,0,0,1-1.27-.59l-.11.27c-.06.16-.16.36-.3.6a8.6,8.6,0,0,1-.47.77,4.72,4.72,0,0,1-.72.82,4.33,4.33,0,0,1-1,.68,3.55,3.55,0,0,1-2.53.37,2.82,2.82,0,0,1-1.85-1.57,2.74,2.74,0,0,1-.3-1.35,3.54,3.54,0,0,1,.26-1.29,6.05,6.05,0,0,1,.78-1.28,12.37,12.37,0,0,1,1-1.14q.43-.44,1.12-1.09l.95-.92a.47.47,0,0,0,0-.55l-.74-1.46a2.55,2.55,0,0,0-1.17-1.24,1.55,1.55,0,0,0-1.41.05,1.8,1.8,0,0,0-1,1.12,2.22,2.22,0,0,0,.26,1.62,1,1,0,0,1,0,1,1.85,1.85,0,0,1-.77.71,1.68,1.68,0,0,1-1.7.07q-.65-1.27.52-3.27A7.47,7.47,0,0,1,206.18,122Zm4,10.78a2.3,2.3,0,0,0,1-1,1.17,1.17,0,0,0,.09-1.11l-1.38-2.7q-.14.17-.65.66t-.75.78a8,8,0,0,0-.55.75,1.79,1.79,0,0,0-.32.9,1.64,1.64,0,0,0,.18.84,1.83,1.83,0,0,0,1.06,1A1.71,1.71,0,0,0,210.17,132.74Z"/><path class="cls-3" d="M221.52,114.14q3.41-1.74,6.19,3.69l1.28,2.52a12.38,12.38,0,0,0,1.4,2.29q.15.16.92,0a4.54,4.54,0,0,0,1-.27c.05,0,.15.09.29.34a1.7,1.7,0,0,1,.22.54c-.12,0-.6.24-1.44.6s-1.47.65-1.88.86-1,.54-1.72,1l-1.31.8q-.16-.05-.36-.45c-.14-.26-.17-.41-.1-.45a3.56,3.56,0,0,0,.79-.65c.33-.33.48-.57.45-.72a8.54,8.54,0,0,0-.77-2l-1.28-2.52A6.44,6.44,0,0,0,223,116.9a2.39,2.39,0,0,0-2.34.09,2.75,2.75,0,0,0-1.25,1.22,1.43,1.43,0,0,0-.13,1.32l2.32,4.55a12.43,12.43,0,0,0,1.4,2.29q.15.16.9,0a4.24,4.24,0,0,0,1-.24q.11-.05.32.32a1.68,1.68,0,0,1,.22.54l-1.44.6q-1.22.52-1.83.83t-1.8,1l-1.36.83c-.11,0-.23-.18-.36-.45s-.17-.42-.1-.45a4.14,4.14,0,0,0,.87-.69q.55-.53.51-.74a9.7,9.7,0,0,0-.8-2l-2.2-4.32a2.83,2.83,0,0,0-1.29-1.48,1.44,1.44,0,0,0-.8-.09,3.41,3.41,0,0,0-.72.17c-.18.07-.27.08-.29,0q-.39-.77-.27-.86a42,42,0,0,0,3.86-3,.18.18,0,0,1,0-.07l.07-.05.07,0c.07,0,.16,0,.28.09a.89.89,0,0,1,.23.25,9.77,9.77,0,0,0,.38,1c0,.07.07.11.09.12a.43.43,0,0,0,.09-.15,6.63,6.63,0,0,1,1.06-1.94A5.22,5.22,0,0,1,221.52,114.14Z"/><path class="cls-3" d="M237.36,116.07a10.94,10.94,0,0,0,1.43,2.28q.15.16.91,0a4.38,4.38,0,0,0,1-.26c.07,0,.18.07.31.32a1.71,1.71,0,0,1,.22.54q-.2.07-1.47.62t-1.85.85q-.66.34-1.83,1t-1.34.81c-.11,0-.23-.18-.36-.45s-.17-.42-.1-.45a4.31,4.31,0,0,0,.85-.68q.56-.54.52-.75a9.7,9.7,0,0,0-.8-2l-2.2-4.32a2.84,2.84,0,0,0-1.29-1.48,1.64,1.64,0,0,0-.81-.09,3.14,3.14,0,0,0-.72.17c-.19.07-.29.09-.31.06q-.39-.77-.25-.88a22.81,22.81,0,0,0,2-1.41,23.37,23.37,0,0,0,1.85-1.54l.18-.16c.09,0,.19,0,.31.08a.55.55,0,0,1,.2.26,25.36,25.36,0,0,0,1,2.39ZM229,106.39a1.81,1.81,0,0,1-1.07-.92,1.76,1.76,0,0,1-.11-1.4,1.84,1.84,0,0,1,3.4-.28,1.81,1.81,0,0,1,.12,1.41,1.83,1.83,0,0,1-2.33,1.19Z"/><path class="cls-3" d="M245.47,101.92q3.42-1.74,6.19,3.69l1.28,2.52a12.37,12.37,0,0,0,1.4,2.29q.15.16.92,0a4.51,4.51,0,0,0,1-.27q.08,0,.29.34a1.67,1.67,0,0,1,.22.54q-.17.05-1.44.6t-1.88.86q-.64.32-1.72,1l-1.31.8q-.16-.05-.36-.45c-.13-.27-.17-.42-.1-.45a3.54,3.54,0,0,0,.79-.65q.49-.5.45-.72a8.55,8.55,0,0,0-.78-2l-1.28-2.52a6.46,6.46,0,0,0-2.16-2.77,2.39,2.39,0,0,0-2.34.09,2.74,2.74,0,0,0-1.24,1.22,1.43,1.43,0,0,0-.13,1.32l2.32,4.55a12.45,12.45,0,0,0,1.4,2.29c.1.1.4.11.9,0a4.28,4.28,0,0,0,1-.24c.07,0,.18.07.31.32a1.71,1.71,0,0,1,.22.54l-1.44.6q-1.22.52-1.83.83t-1.8,1l-1.36.83c-.11,0-.23-.18-.36-.45s-.17-.42-.1-.45a4.13,4.13,0,0,0,.86-.69q.55-.53.51-.74a9.69,9.69,0,0,0-.8-2l-2.2-4.32a2.84,2.84,0,0,0-1.29-1.48,1.44,1.44,0,0,0-.8-.09,3.39,3.39,0,0,0-.72.17c-.18.07-.27.08-.29,0q-.39-.77-.27-.86a42,42,0,0,0,3.86-3,.18.18,0,0,1,0-.07l.07-.05.07,0c.07,0,.16,0,.28.09a.91.91,0,0,1,.23.25,10.14,10.14,0,0,0,.38,1c0,.07.07.11.09.12a.45.45,0,0,0,.09-.15,6.59,6.59,0,0,1,1.06-1.94A5.21,5.21,0,0,1,245.47,101.92Z"/><path class="cls-3" d="M257.63,95.78A9.41,9.41,0,0,1,260,95a9.19,9.19,0,0,0,2.29-.74l1.51-.77s.15.07.36.25a1.82,1.82,0,0,1,.4.46q.19.37,0,.45l-1.72.88c-.07,0-.09.08-.06.13s.21.21.59.57a4.22,4.22,0,0,1,.89,1.15,4.3,4.3,0,0,1,.13,3.49,5.09,5.09,0,0,1-2.63,2.93,12.21,12.21,0,0,1-1.7.73,1.6,1.6,0,0,0-.33.79,1.26,1.26,0,0,0,.07.78.61.61,0,0,0,.48.32,2,2,0,0,0,.92-.13q.57-.19,1-.35l1.09-.49.4-.2a10.5,10.5,0,0,1,4.25-1.25,2.34,2.34,0,0,1,2.22,1.32,4.67,4.67,0,0,1-.15,4.42,8.12,8.12,0,0,1-3.73,3.74,7.72,7.72,0,0,1-3.75,1A2.66,2.66,0,0,1,260,113a2.31,2.31,0,0,1,0-1.87,4.94,4.94,0,0,1,1.11-1.84,3.39,3.39,0,0,1-1.68-.16,2.17,2.17,0,0,1-1.29-1.09q-.58-1.14.76-3.36a3.93,3.93,0,0,1-2.12-.63,4.38,4.38,0,0,1-1.76-1.82,4,4,0,0,1-.14-3.67A5.91,5.91,0,0,1,257.63,95.78Zm10.72,12q-.47-.93-2-.55a18.89,18.89,0,0,0-3.74,1.53l-.12.09-.09.15q-.28.31-.42.5a2.53,2.53,0,0,0-.27.51,1.44,1.44,0,0,0-.12.65,1.76,1.76,0,0,0,.2.7,2.08,2.08,0,0,0,1.82,1.07,4.63,4.63,0,0,0,2.58-.51,4.49,4.49,0,0,0,2.07-1.93A2.32,2.32,0,0,0,268.35,107.76Zm-10.77-7.12a4.7,4.7,0,0,0,1.64,1.91,1.85,1.85,0,0,0,1.94.13,1.77,1.77,0,0,0,1.06-1.49,3.94,3.94,0,0,0-.49-2.1,4.88,4.88,0,0,0-1.69-2,1.9,1.9,0,0,0-2-.09,1.68,1.68,0,0,0-1,1.54A4.32,4.32,0,0,0,257.58,100.64Z"/><path class="cls-3" d="M277.24,85.71a6.55,6.55,0,0,1,5.13-.43,6.37,6.37,0,0,1,3.9,3.3,6.73,6.73,0,0,1-12,6.12,6.4,6.4,0,0,1-.41-5.1A6.51,6.51,0,0,1,277.24,85.71Zm.29,1.42a2.4,2.4,0,0,0-1.32,2.19,6.42,6.42,0,0,0,.78,3.22,8.68,8.68,0,0,0,2.77,3.29,3,3,0,0,0,3.21.37A2.43,2.43,0,0,0,284.28,94a6.31,6.31,0,0,0-.76-3.22,10.14,10.14,0,0,0-1.65-2.38A5.23,5.23,0,0,0,279.76,87,2.76,2.76,0,0,0,277.53,87.13Z"/><path class="cls-3" d="M289.08,71.22a5.86,5.86,0,0,1,2-.66,2.06,2.06,0,0,1,1.31.18,3.33,3.33,0,0,1,.6,1.54,1.06,1.06,0,0,1-.63,1.14,1.15,1.15,0,0,1-1,0c-.39-.17-.79-.33-1.2-.49a1.36,1.36,0,0,0-1.15,0,1.58,1.58,0,0,0-.84,1.3,5,5,0,0,0,.18,2,12,12,0,0,0,.9,2.25l.62,1.22a.17.17,0,0,0,.09.05.17.17,0,0,0,.13,0L293,78.29a.24.24,0,0,1,.15,0s.06.06.11.15a3.07,3.07,0,0,1,.3,1.38l-2.75,1.41a.16.16,0,0,0-.08.24l3,5.9a11.26,11.26,0,0,0,1.43,2.28q.15.16.9,0a4.26,4.26,0,0,0,1-.25c.05,0,.15.09.29.34a1.71,1.71,0,0,1,.22.54c-.11,0-.59.24-1.43.6s-1.47.65-1.89.87-1,.55-1.76,1l-1.32.81a.58.58,0,0,1-.26-.24,1.81,1.81,0,0,1-.21-.41c-.05-.14,0-.23,0-.25a4,4,0,0,0,.83-.67q.53-.52.49-.74a9.8,9.8,0,0,0-.87-2.29L288,82.82c-.06-.12-.15-.16-.25-.1l-1.59.81s-.08,0-.13-.13a1.59,1.59,0,0,1,0-1,1.2,1.2,0,0,1,.6-.91l.42-.22a.16.16,0,0,0,.08-.24l-.13-.27a8.07,8.07,0,0,1-.78-5.61A5.55,5.55,0,0,1,289.08,71.22Z"/><path class="cls-3" d="M304.57,71.73a12.64,12.64,0,0,1,3.3-1.12,16.86,16.86,0,0,1,1.8,2.82q.11.21-.24.39c-.39.2-.64.24-.74.11a3.61,3.61,0,0,0-1.58-1.18,2.32,2.32,0,0,0-1.93.17,2.13,2.13,0,0,0-1,1,1.31,1.31,0,0,0,.06,1.2,1.72,1.72,0,0,0,.49.6,1.85,1.85,0,0,0,.77.33,7.47,7.47,0,0,0,.8.13c.22,0,.54,0,1,0h.84l.56,0,.55,0a5.71,5.71,0,0,1,.62.07l.57.11a2.38,2.38,0,0,1,.59.17l.53.25a1.88,1.88,0,0,1,.52.34,5.41,5.41,0,0,1,.4.43,2.8,2.8,0,0,1,.36.54,3.51,3.51,0,0,1,.06,3.29A5.64,5.64,0,0,1,310.21,84a9.92,9.92,0,0,1-3.8,1,11.6,11.6,0,0,1-1-1.33,14.53,14.53,0,0,1-.91-1.45.63.63,0,0,1,.3-.32c.4-.21.65-.24.74-.11a3.28,3.28,0,0,0,2,1.25,3.16,3.16,0,0,0,2.16-.25,2.16,2.16,0,0,0,1-1,1.45,1.45,0,0,0-.08-1.33,1.93,1.93,0,0,0-.32-.46,1.48,1.48,0,0,0-.48-.32l-.49-.22a2.18,2.18,0,0,0-.66-.11l-.69,0h-1.7a6.94,6.94,0,0,1-2.6-.46A3.44,3.44,0,0,1,302,74.11,5.74,5.74,0,0,1,304.57,71.73Z"/><path class="cls-3" d="M316.21,65.82a6.56,6.56,0,0,1,5.14-.44,6.39,6.39,0,0,1,3.9,3.3,6.73,6.73,0,0,1-12,6.12,6.4,6.4,0,0,1-.41-5.09A6.52,6.52,0,0,1,316.21,65.82Zm.29,1.42a2.39,2.39,0,0,0-1.32,2.19,6.38,6.38,0,0,0,.78,3.22,8.68,8.68,0,0,0,2.77,3.29,3,3,0,0,0,3.21.37,2.42,2.42,0,0,0,1.32-2.21,6.31,6.31,0,0,0-.76-3.22,10.21,10.21,0,0,0-1.65-2.38,5.24,5.24,0,0,0-2.12-1.4A2.75,2.75,0,0,0,316.5,67.24Z"/><path class="cls-3" d="M329.62,59a7.19,7.19,0,0,1,2.74-.81,4.75,4.75,0,0,1,2.1.22,3.68,3.68,0,0,1,.46,1.65,1.1,1.1,0,0,1-.61,1.06,1.33,1.33,0,0,1-.94.15,3.37,3.37,0,0,1-1.07-.56,2.15,2.15,0,0,0-2.4-.31,2.29,2.29,0,0,0-1.23,2.08,6.33,6.33,0,0,0,.8,3.24,6,6,0,0,0,2.78,3,3.51,3.51,0,0,0,3.08-.12,8.08,8.08,0,0,0,.75-.43,4.39,4.39,0,0,0,.62-.48l.47-.46a2.54,2.54,0,0,0,.37-.49l.24-.41.35-.63a.46.46,0,0,1,.21.09.58.58,0,0,1,.21.22.91.91,0,0,1,.1.58,4.86,4.86,0,0,1-.83,2.23,5.46,5.46,0,0,1-2.23,2,6,6,0,0,1-4.89.33,6.55,6.55,0,0,1-3.8-3.37,6.76,6.76,0,0,1-.54-5A6,6,0,0,1,329.62,59Z"/><path class="cls-3" d="M344.48,61.4a11,11,0,0,0,1.43,2.28c.1.1.4.11.91,0a4.38,4.38,0,0,0,1-.26c.07,0,.18.07.32.32a1.7,1.7,0,0,1,.22.54c-.13,0-.62.25-1.47.62s-1.47.65-1.85.84-1.05.57-1.83,1-1.22.73-1.34.81-.23-.18-.36-.45-.17-.42-.1-.45a4.31,4.31,0,0,0,.85-.68c.37-.36.55-.61.52-.75a9.58,9.58,0,0,0-.8-2l-2.2-4.32a2.83,2.83,0,0,0-1.29-1.48,1.66,1.66,0,0,0-.81-.09,3.16,3.16,0,0,0-.72.16c-.19.07-.29.09-.31.06q-.39-.77-.25-.88a22.86,22.86,0,0,0,2-1.41,23.28,23.28,0,0,0,1.85-1.54l.19-.16c.09,0,.19,0,.31.08a.56.56,0,0,1,.2.26q.65,1.8.95,2.39Zm-8.41-9.68a1.81,1.81,0,0,1-1.07-.92,1.83,1.83,0,0,1,.81-2.47,1.82,1.82,0,0,1,2.47.79,1.81,1.81,0,0,1,.12,1.41,1.83,1.83,0,0,1-2.33,1.19Z"/><path class="cls-3" d="M349.49,48.84a3.65,3.65,0,0,1,2.9-.4A4.76,4.76,0,0,1,354.72,51l2.66,5.22a1.36,1.36,0,0,0,.65.69.9.9,0,0,0,.78,0,1.86,1.86,0,0,0,.72-.8c.13,0,.23.05.31.21a1.77,1.77,0,0,1,.25.88,7.5,7.5,0,0,1-.72,1.2,3.1,3.1,0,0,1-1.1,1,2.18,2.18,0,0,1-1.42.16,2.44,2.44,0,0,1-1.27-.59l-.11.27c-.07.16-.16.36-.3.6a8.6,8.6,0,0,1-.47.77,4.72,4.72,0,0,1-.72.82,4.33,4.33,0,0,1-1,.68,3.55,3.55,0,0,1-2.53.37,2.82,2.82,0,0,1-1.85-1.57,2.74,2.74,0,0,1-.3-1.35,3.53,3.53,0,0,1,.26-1.29,6,6,0,0,1,.78-1.28,12.37,12.37,0,0,1,1-1.14q.43-.44,1.11-1.09l1-.92a.46.46,0,0,0,0-.54l-.74-1.46a2.55,2.55,0,0,0-1.17-1.24,1.55,1.55,0,0,0-1.41.05,1.8,1.8,0,0,0-1,1.12,2.22,2.22,0,0,0,.26,1.62,1,1,0,0,1,0,1,1.86,1.86,0,0,1-.77.71,1.68,1.68,0,0,1-1.7.07q-.65-1.27.52-3.27A7.47,7.47,0,0,1,349.49,48.84Zm4,10.78a2.3,2.3,0,0,0,1-1,1.17,1.17,0,0,0,.09-1.11l-1.38-2.7q-.14.17-.65.66t-.75.78a8,8,0,0,0-.55.75,1.79,1.79,0,0,0-.32.9,1.63,1.63,0,0,0,.18.84,1.83,1.83,0,0,0,1.06,1A1.71,1.71,0,0,0,353.49,59.61Z"/><path class="cls-3" d="M364.81,51a12.25,12.25,0,0,0,1.4,2.29q.15.16.86.08a3.24,3.24,0,0,0,.92-.19c.05,0,.15.08.28.32a1.58,1.58,0,0,1,.22.52l-1,.44-1.16.51q-.52.23-1,.46c-.34.17-.67.35-1,.54l-1.08.63-1,.58c-.11,0-.23-.18-.36-.44s-.16-.4-.09-.44a3.18,3.18,0,0,0,.77-.68c.32-.35.47-.6.44-.74a9.72,9.72,0,0,0-.79-2.07l-5.62-11a10.26,10.26,0,0,0-1.08-1.72q-.35-.35-1.54.25l-.26.14c-.11.05-.21,0-.32-.24s-.16-.45-.06-.51q.78-.5,1.45-1t1.1-.89q.42-.38.72-.68l.47-.49.15-.17.05,0a.36.36,0,0,1,.31,0,.91.91,0,0,1,.28.19,9.41,9.41,0,0,0,1,2.65Z"/><path class="cls-3" d="M76.94,219.83a12.63,12.63,0,0,1,3.34-1A16.8,16.8,0,0,1,82,221.69q.1.22-.25.38-.59.28-.75.09a3.61,3.61,0,0,0-1.55-1.23,2.32,2.32,0,0,0-1.94.11,2.13,2.13,0,0,0-1.06.92,1.32,1.32,0,0,0,0,1.2,1.73,1.73,0,0,0,.47.62,1.84,1.84,0,0,0,.76.35,7.37,7.37,0,0,0,.79.15c.22,0,.54.05,1,.07h.33l.5,0,.56,0,.55.05a5.67,5.67,0,0,1,.62.09l.57.13a2.38,2.38,0,0,1,.58.19l.52.27a1.9,1.9,0,0,1,.51.35,5.32,5.32,0,0,1,.39.44,2.72,2.72,0,0,1,.34.55,3.5,3.5,0,0,1,0,3.29,5.64,5.64,0,0,1-2.7,2.47,9.93,9.93,0,0,1-3.83.88,11.94,11.94,0,0,1-1-1.37,14.27,14.27,0,0,1-.86-1.48.63.63,0,0,1,.31-.31c.41-.19.66-.22.75-.09a3.28,3.28,0,0,0,1.92,1.32,3.16,3.16,0,0,0,2.16-.18,2.16,2.16,0,0,0,1.06-1,1.45,1.45,0,0,0,0-1.33,2,2,0,0,0-.3-.47,1.45,1.45,0,0,0-.47-.34l-.49-.23a2.17,2.17,0,0,0-.65-.14l-.68-.06-.84,0-.86,0a6.9,6.9,0,0,1-2.59-.54,3.43,3.43,0,0,1-1.47-4.74A5.73,5.73,0,0,1,76.94,219.83Z"/><path class="cls-3" d="M88.21,214.57a5.52,5.52,0,0,1,2.49-.56,4.7,4.7,0,0,1,2.15.53,6.89,6.89,0,0,1,1.61,1.18,5.11,5.11,0,0,1,1,1.44c.18.39.23.67.15.83a1.68,1.68,0,0,1-.75.53l-6.43,3c-.12.06-.16.14-.11.25a5.79,5.79,0,0,0,1.23,1.72,4.11,4.11,0,0,0,1.94,1,3.5,3.5,0,0,0,2.35-.28,8.12,8.12,0,0,0,.76-.41,4.39,4.39,0,0,0,.64-.46l.48-.44a2.53,2.53,0,0,0,.38-.48l.26-.4.37-.62a.47.47,0,0,1,.21.1.58.58,0,0,1,.21.23.91.91,0,0,1,.08.59,4.84,4.84,0,0,1-.91,2.2,5.51,5.51,0,0,1-2.32,2,6,6,0,0,1-4.85.16,6.4,6.4,0,0,1-3.67-3.41,6.88,6.88,0,0,1-.5-5.15A5.76,5.76,0,0,1,88.21,214.57Zm.39,1.33a2.1,2.1,0,0,0-1,.92,2.81,2.81,0,0,0-.35,1.28,5.63,5.63,0,0,0,.08,1.19,3.6,3.6,0,0,0,.25.85c.06.13.14.16.25.11l4.36-2c.16-.08.18-.25.05-.52a3.85,3.85,0,0,0-1.53-1.61A2.13,2.13,0,0,0,88.61,215.89Z"/><path class="cls-3" d="M100.49,208.8a7.18,7.18,0,0,1,2.76-.72,4.74,4.74,0,0,1,2.09.28,3.66,3.66,0,0,1,.4,1.67,1.1,1.1,0,0,1-.64,1,1.34,1.34,0,0,1-.95.12,3.37,3.37,0,0,1-1-.59,2.15,2.15,0,0,0-2.38-.39,2.29,2.29,0,0,0-1.29,2,6.35,6.35,0,0,0,.7,3.27,6,6,0,0,0,2.68,3.13,3.51,3.51,0,0,0,3.08,0,8.27,8.27,0,0,0,.76-.41,4.43,4.43,0,0,0,.64-.46l.48-.44a2.55,2.55,0,0,0,.38-.48l.26-.4.37-.62a.48.48,0,0,1,.21.1.57.57,0,0,1,.21.23.91.91,0,0,1,.08.59,4.84,4.84,0,0,1-.9,2.2,5.46,5.46,0,0,1-2.3,2,6,6,0,0,1-4.9.16,6.56,6.56,0,0,1-3.69-3.49,6.76,6.76,0,0,1-.38-5A6,6,0,0,1,100.49,208.8Z"/><path class="cls-3" d="M119.81,203.28l2.5,5.33a6.61,6.61,0,0,0,1.1,1.78.61.61,0,0,0,.41.07,2.31,2.31,0,0,0,.52-.11,4.35,4.35,0,0,0,.46-.18.55.55,0,0,1,.24-.08c.08,0,.15,0,.22.19a2.29,2.29,0,0,1,.12.39c0,.19,0,.3,0,.33a6.91,6.91,0,0,0-.91.54l-1,.71q-.49.35-.93.68l-1,.72c-.13.06-.26-.06-.39-.34l-.56-1.18c-.06-.08-.11-.11-.14-.1a6.62,6.62,0,0,1-1.07,2,5,5,0,0,1-1.87,1.54,3.11,3.11,0,0,1-1.82.29,3.59,3.59,0,0,1-1.63-.68,6.36,6.36,0,0,1-1.3-1.3,9,9,0,0,1-1-1.61l-1.42-3a2.83,2.83,0,0,0-1.24-1.52,1.65,1.65,0,0,0-.81-.11,3.14,3.14,0,0,0-.72.14c-.19.07-.29.08-.31,0q-.37-.78-.24-.87a22.67,22.67,0,0,0,2.05-1.36,23.27,23.27,0,0,0,1.9-1.48l.1-.08.09-.08c.09,0,.19,0,.29.09a1.07,1.07,0,0,1,.21.26q.62,1.94.87,2.48L114,210a6.37,6.37,0,0,0,2,2.74,2.63,2.63,0,0,0,3.55-1.19,1.58,1.58,0,0,0,.12-1.29l-2.08-4.44a2.82,2.82,0,0,0-1.24-1.52,1.43,1.43,0,0,0-.79-.12,3.36,3.36,0,0,0-.74.15c-.19.07-.29.08-.31,0-.24-.52-.32-.81-.22-.88a22.88,22.88,0,0,0,2-1.35,23.18,23.18,0,0,0,1.9-1.48l.19-.15c.09,0,.19,0,.3.09a.55.55,0,0,1,.19.27Q119.58,202.79,119.81,203.28Z"/><path class="cls-3" d="M129.78,195.05a3,3,0,0,1,2.62-.15q1.07,2.29-.22,2.89a1.77,1.77,0,0,1-1.3,0,1.86,1.86,0,0,0-1.41,0,1.6,1.6,0,0,0-.91,1.46,4,4,0,0,0,.36,2l1.58,3.36a12.45,12.45,0,0,0,1.33,2.33c.1.11.39.13.9.06a4.23,4.23,0,0,0,1-.22c.05,0,.15.09.28.35a3.08,3.08,0,0,1,.23.53l-1.48.56q-1.25.49-1.87.78t-1.83,1l-1.39.78c-.11,0-.22-.19-.35-.46s-.15-.42-.08-.45a4.15,4.15,0,0,0,.89-.66c.38-.34.55-.58.53-.72a9.65,9.65,0,0,0-.73-2.05l-2.06-4.39a2.83,2.83,0,0,0-1.24-1.52,1.44,1.44,0,0,0-.8-.12,3.36,3.36,0,0,0-.72.14q-.27.09-.29,0c-.24-.52-.33-.81-.24-.87a42,42,0,0,0,4-2.84l.19-.15c.07,0,.16,0,.28.1a.71.71,0,0,1,.21.28l.14.4q.09.27.18.57a3.84,3.84,0,0,0,.13.38,5.44,5.44,0,0,1,.71-1.93A3.26,3.26,0,0,1,129.78,195.05Z"/><path class="cls-3" d="M142.32,199a11,11,0,0,0,1.35,2.32q.14.16.91,0a4.39,4.39,0,0,0,1-.23c.07,0,.17.08.3.33a1.7,1.7,0,0,1,.21.54q-.2.06-1.49.57t-1.88.78q-.67.32-1.86,1t-1.36.77q-.16-.06-.35-.46c-.13-.27-.15-.42-.08-.45a4.31,4.31,0,0,0,.87-.66q.58-.52.54-.73a9.65,9.65,0,0,0-.73-2.05l-2.06-4.39a2.83,2.83,0,0,0-1.24-1.52,1.66,1.66,0,0,0-.81-.11,3.16,3.16,0,0,0-.72.14c-.19.07-.29.08-.31,0-.24-.52-.32-.82-.22-.88a22.87,22.87,0,0,0,2-1.35,23.11,23.11,0,0,0,1.9-1.48l.19-.16c.09,0,.19,0,.3.09a.55.55,0,0,1,.19.27,25.62,25.62,0,0,0,.87,2.42Zm-8.09-9.95a1.81,1.81,0,0,1-1-1,1.83,1.83,0,0,1,.89-2.44,1.78,1.78,0,0,1,1.41-.07,1.76,1.76,0,0,1,1,.94,1.81,1.81,0,0,1,.07,1.41,1.83,1.83,0,0,1-2.37,1.11Z"/><path class="cls-3" d="M144.54,190.42l-1.64.77c-.13.06-.3-.14-.52-.61a.74.74,0,0,1-.09-.25,8.33,8.33,0,0,0,1.4-2.4q.19-.51.39-1.15t.45-1.6a2.12,2.12,0,0,1,.54-.17c.18,0,.29,0,.31,0l1.24,2.64,2-.9,1.34-.61c.14-.07.25,0,.33.14a2.88,2.88,0,0,1,.29,1.31l-3.23,1.52,3,6.48a2.82,2.82,0,0,0,1.23,1.43,1.7,1.7,0,0,0,1.53,0,2.81,2.81,0,0,0,.53-.33,3.15,3.15,0,0,0,.42-.38l.27-.33a.91.91,0,0,1,.15-.17c.06-.05.18,0,.36.13s.26.24.27.3a2.72,2.72,0,0,1-.73,1.41,4.69,4.69,0,0,1-1.69,1.4,3.74,3.74,0,0,1-2.8.22,4,4,0,0,1-2.29-2.32Z"/><path class="cls-3" d="M154.79,183.64q.59-.28,1.66-.88t1.34-.73a2,2,0,0,1,.28.46c.12.25.14.39.07.43a3.23,3.23,0,0,0-.75.6q-.49.47-.4.73l.08.16q.26.4,5.38,5,0-.58-.2-3.14t-.2-2.94a2.77,2.77,0,0,0-.23-.91.94.94,0,0,0-.74-.46,2.45,2.45,0,0,0-1.44.3c-.07,0-.17-.08-.3-.35a.75.75,0,0,1-.11-.51q.32-.15,1.36-.54t1.68-.69q.56-.27,1.35-.73t1.16-.64a.85.85,0,0,1,.31.38c.13.29.17.45.09.48a3.77,3.77,0,0,0-1,.78,1.65,1.65,0,0,0-.55,1.24l.66,14.21q.18,4.71-2.16,5.81a1.61,1.61,0,0,1-1.25.13,1.39,1.39,0,0,1-.76-2q2.8-1.31,2.65-3.94-.11-1.92-.13-2.17l-8.23-7.3a3.91,3.91,0,0,0-.61-.47,1.78,1.78,0,0,0-1.08-.23,2.81,2.81,0,0,0-1,.21q-.11.05-.28-.33c-.13-.29-.18-.46-.15-.52l1.48-.6Q154.14,183.94,154.79,183.64Z"/><path class="cls-3" d="M177.71,172.55a3.65,3.65,0,0,1,2.91-.3,4.76,4.76,0,0,1,2.24,2.61l2.49,5.3a1.36,1.36,0,0,0,.63.71.89.89,0,0,0,.78,0,1.85,1.85,0,0,0,.75-.78c.12,0,.22.06.3.22a1.77,1.77,0,0,1,.22.88,7.39,7.39,0,0,1-.76,1.18,3.1,3.1,0,0,1-1.13,1,2.17,2.17,0,0,1-1.43.11,2.43,2.43,0,0,1-1.25-.63l-.12.27c-.07.15-.18.35-.31.59a8.72,8.72,0,0,1-.5.76,4.72,4.72,0,0,1-.74.79,4.3,4.3,0,0,1-1,.65,3.54,3.54,0,0,1-2.54.29,2.83,2.83,0,0,1-1.8-1.63,2.76,2.76,0,0,1-.26-1.36,3.57,3.57,0,0,1,.31-1.28,6.09,6.09,0,0,1,.82-1.26,12.29,12.29,0,0,1,1-1.11q.44-.42,1.15-1l1-.89a.47.47,0,0,0,0-.54l-.7-1.48a2.56,2.56,0,0,0-1.13-1.28,1.55,1.55,0,0,0-1.41,0,1.8,1.8,0,0,0-1,1.09,2.22,2.22,0,0,0,.21,1.63,1,1,0,0,1,0,1,1.85,1.85,0,0,1-.79.69,1.68,1.68,0,0,1-1.7,0q-.61-1.29.62-3.25A7.45,7.45,0,0,1,177.71,172.55Zm3.64,10.9a2.3,2.3,0,0,0,1.07-1,1.18,1.18,0,0,0,.12-1.11l-1.29-2.74c-.1.11-.32.33-.67.64s-.6.57-.78.76a8.06,8.06,0,0,0-.58.73,1.8,1.8,0,0,0-.35.89,1.65,1.65,0,0,0,.15.85,1.83,1.83,0,0,0,1,1.06A1.71,1.71,0,0,0,181.35,183.45Z"/><path class="cls-3" d="M193.3,165.23q3.47-1.63,6.06,3.89l1.2,2.56a12.39,12.39,0,0,0,1.33,2.33q.14.16.92,0a4.55,4.55,0,0,0,1-.23c.05,0,.15.09.28.35a1.69,1.69,0,0,1,.21.54q-.17,0-1.46.56t-1.91.8q-.65.3-1.75.92l-1.34.76q-.16-.06-.35-.46c-.13-.27-.15-.42-.08-.45a3.53,3.53,0,0,0,.81-.62q.51-.49.48-.7a8.51,8.51,0,0,0-.71-2.06l-1.2-2.56a6.45,6.45,0,0,0-2.07-2.84,2.39,2.39,0,0,0-2.34,0,2.75,2.75,0,0,0-1.28,1.18,1.43,1.43,0,0,0-.17,1.31l2.17,4.63a12.45,12.45,0,0,0,1.33,2.33c.1.11.39.13.9.06a4.29,4.29,0,0,0,1-.21c.07,0,.17.08.3.33a1.7,1.7,0,0,1,.21.54l-1.46.56q-1.23.48-1.85.77t-1.83,1l-1.39.78c-.11,0-.22-.19-.35-.46s-.15-.42-.08-.45a4.15,4.15,0,0,0,.89-.66q.56-.51.53-.73a9.65,9.65,0,0,0-.73-2.05l-2.06-4.39a2.82,2.82,0,0,0-1.24-1.52,1.43,1.43,0,0,0-.79-.12,3.41,3.41,0,0,0-.72.14q-.27.09-.29,0c-.24-.52-.33-.81-.25-.87a42,42,0,0,0,4-2.84.19.19,0,0,1,0-.07l.07-.05.07,0c.07,0,.16,0,.28.1a.91.91,0,0,1,.22.26,9.84,9.84,0,0,0,.35,1c0,.07.06.11.09.12a.44.44,0,0,0,.1-.14,6.6,6.6,0,0,1,1.12-1.91A5.19,5.19,0,0,1,193.3,165.23Z"/><path class="cls-3" d="M206.52,159a5.11,5.11,0,0,1,2.14-.55c.09,0,.07-.21-.07-.49l-1.19-2.53a10.35,10.35,0,0,0-1-1.75q-.34-.37-1.6.23l-.22.1c-.11.05-.23-.07-.36-.35s-.15-.46,0-.51q.77-.46,1.47-1t1.14-.86q.43-.37.74-.67l.46-.46.18-.17.05,0a.32.32,0,0,1,.29,0,.54.54,0,0,1,.24.23,11.39,11.39,0,0,0,.92,2.66l5.56,11.84a11,11,0,0,0,1.1,1.92.44.44,0,0,0,.41.17,1.79,1.79,0,0,0,.57-.11l.53-.2.28-.11c.05,0,.12.12.21.3.17.36.2.56.09.61s-.54.32-.9.56l-1,.71-1,.68-1,.75q-.16.08-.38-.38l-.21-.46c0-.05-.06-.08-.09-.09s-.06,0-.07,0a5,5,0,0,1-2.33,2.31,5.76,5.76,0,0,1-4.55.18,6,6,0,0,1-3.5-3.27,7,7,0,0,1-.3-5.43A6.51,6.51,0,0,1,206.52,159Zm.36,1.41a2.6,2.6,0,0,0-1.58,2.22,7,7,0,0,0,.8,3.6,7.16,7.16,0,0,0,2.51,3.17,2.92,2.92,0,0,0,2.94.18,2.47,2.47,0,0,0,1.26-1.17,1.64,1.64,0,0,0,0-1.46l-2.65-5.65a2.08,2.08,0,0,0-.36-.52,2.77,2.77,0,0,0-.62-.48,1.91,1.91,0,0,0-1-.22A3.16,3.16,0,0,0,206.88,160.36Z"/><path class="cls-3" d="M226.45,149.66a7.19,7.19,0,0,1,2.76-.72,4.74,4.74,0,0,1,2.09.28,3.68,3.68,0,0,1,.4,1.67,1.1,1.1,0,0,1-.64,1,1.33,1.33,0,0,1-.95.12,3.37,3.37,0,0,1-1-.59,2.15,2.15,0,0,0-2.38-.39,2.29,2.29,0,0,0-1.29,2,6.34,6.34,0,0,0,.7,3.27,6,6,0,0,0,2.68,3.13,3.51,3.51,0,0,0,3.08,0,8.25,8.25,0,0,0,.76-.41,4.44,4.44,0,0,0,.64-.46l.48-.44a2.55,2.55,0,0,0,.38-.48l.26-.4.37-.62a.47.47,0,0,1,.21.1.57.57,0,0,1,.21.23.91.91,0,0,1,.08.59,4.84,4.84,0,0,1-.91,2.2,5.45,5.45,0,0,1-2.3,2,6,6,0,0,1-4.9.16,6.56,6.56,0,0,1-3.69-3.49,6.76,6.76,0,0,1-.38-5A6,6,0,0,1,226.45,149.66Z"/><path class="cls-3" d="M241.22,152.58a11,11,0,0,0,1.35,2.32c.1.11.4.12.91,0a4.42,4.42,0,0,0,1-.23c.07,0,.17.08.3.33a1.7,1.7,0,0,1,.21.54q-.2.06-1.49.57t-1.88.78q-.67.32-1.86,1t-1.36.77c-.11,0-.22-.19-.35-.46s-.15-.42-.08-.45a4.29,4.29,0,0,0,.87-.66q.58-.52.54-.73a9.65,9.65,0,0,0-.73-2.05L236.6,150a2.83,2.83,0,0,0-1.24-1.52,1.65,1.65,0,0,0-.81-.11,3.14,3.14,0,0,0-.72.14c-.19.07-.29.08-.31,0-.24-.52-.32-.82-.22-.88a31.51,31.51,0,0,0,3.93-2.83l.19-.16c.09,0,.19,0,.3.09a.55.55,0,0,1,.19.27q.6,1.82.87,2.42Zm-8.09-9.95a1.81,1.81,0,0,1-1-1,1.83,1.83,0,0,1,.89-2.44,1.79,1.79,0,0,1,1.41-.07,1.76,1.76,0,0,1,1,.94,1.81,1.81,0,0,1,.07,1.41,1.83,1.83,0,0,1-2.37,1.11Z"/><path class="cls-3" d="M243.44,144l-1.64.77c-.13.06-.3-.14-.52-.61a.74.74,0,0,1-.09-.25,8.31,8.31,0,0,0,1.4-2.4c.12-.34.26-.73.4-1.15s.29-1,.44-1.6a2.13,2.13,0,0,1,.54-.17c.18,0,.29,0,.31,0l1.24,2.64,2-.9,1.34-.61c.14-.07.25,0,.33.14a2.88,2.88,0,0,1,.29,1.31l-3.23,1.52,3,6.48a2.81,2.81,0,0,0,1.23,1.43,1.7,1.7,0,0,0,1.53,0,2.88,2.88,0,0,0,.53-.33,3.15,3.15,0,0,0,.41-.38l.27-.33a1,1,0,0,1,.15-.17c.06-.05.18,0,.36.13s.26.24.27.3a2.71,2.71,0,0,1-.73,1.41,4.68,4.68,0,0,1-1.69,1.4,3.75,3.75,0,0,1-2.8.22,4,4,0,0,1-2.29-2.32Z"/><path class="cls-3" d="M259.27,144.11a11,11,0,0,0,1.35,2.32q.14.16.91,0a4.42,4.42,0,0,0,1-.23c.07,0,.17.08.3.33a1.7,1.7,0,0,1,.21.54q-.2.06-1.49.57t-1.88.78q-.67.32-1.86,1t-1.36.77c-.11,0-.22-.19-.35-.46s-.15-.42-.08-.45a4.33,4.33,0,0,0,.87-.66q.58-.52.54-.73a9.65,9.65,0,0,0-.73-2.05l-2.06-4.39a2.83,2.83,0,0,0-1.24-1.52,1.66,1.66,0,0,0-.81-.11,3.13,3.13,0,0,0-.72.14c-.19.07-.29.08-.31,0-.24-.52-.32-.82-.22-.88a31.51,31.51,0,0,0,3.93-2.83l.19-.16c.09,0,.19,0,.3.09a.55.55,0,0,1,.19.27q.6,1.82.87,2.42Zm-8.09-9.95a1.81,1.81,0,0,1-1-1,1.83,1.83,0,0,1,.89-2.44,1.78,1.78,0,0,1,1.41-.07,1.76,1.76,0,0,1,1,.94,1.81,1.81,0,0,1,.07,1.41,1.83,1.83,0,0,1-2.37,1.11Z"/><path class="cls-3" d="M267.46,143.15c0,.05.09.08.2.07a.69.69,0,0,0,.21,0l2.61-1.23a3,3,0,0,0,1.71-3.36c0-.21.08-.37.34-.49a.63.63,0,0,1,.63,0l1.12,3.64-9.15,4.3q-.69-.07-.83-.37a.17.17,0,0,1,0-.12l1.81-12.31-2.88,1.28a2.12,2.12,0,0,0-.48.31,2.66,2.66,0,0,0-.35.36,1.74,1.74,0,0,0-.24.43,2,2,0,0,0-.13.42c0,.12,0,.26-.06.44s0,.3,0,.39,0,.21,0,.36a1.39,1.39,0,0,0,0,.25c0,.13-.2.29-.6.48-.2.09-.3.12-.32.09s-.2-.58-.46-1.47-.51-1.62-.73-2.17q1.66-.58,2.63-1l3.28-1.54A31.11,31.11,0,0,0,269,130a2.5,2.5,0,0,1,.36.62l-1.89,12.06A.91.91,0,0,0,267.46,143.15Z"/><path class="cls-3" d="M276.42,126.2a5.51,5.51,0,0,1,2.49-.56,4.7,4.7,0,0,1,2.15.53,6.86,6.86,0,0,1,1.61,1.18,5.11,5.11,0,0,1,1,1.43c.18.39.23.67.14.84a1.68,1.68,0,0,1-.75.53l-6.43,3q-.19.09-.11.25a5.8,5.8,0,0,0,1.23,1.72,4.1,4.1,0,0,0,1.94,1,3.5,3.5,0,0,0,2.35-.28,8.25,8.25,0,0,0,.76-.41,4.44,4.44,0,0,0,.64-.46l.48-.44a2.53,2.53,0,0,0,.38-.48l.26-.4.37-.62a.47.47,0,0,1,.21.1.57.57,0,0,1,.21.23.91.91,0,0,1,.08.59,4.84,4.84,0,0,1-.91,2.2,5.52,5.52,0,0,1-2.32,2,6,6,0,0,1-4.85.16,6.4,6.4,0,0,1-3.67-3.41,6.88,6.88,0,0,1-.5-5.15A5.76,5.76,0,0,1,276.42,126.2Zm.39,1.33a2.1,2.1,0,0,0-1,.92,2.8,2.8,0,0,0-.35,1.28,5.66,5.66,0,0,0,.08,1.19,3.59,3.59,0,0,0,.25.85c.06.13.14.16.25.11l4.36-2c.16-.08.18-.25.05-.52A3.85,3.85,0,0,0,279,127.7,2.13,2.13,0,0,0,276.82,127.52Z"/><path class="cls-3" d="M291.72,119q3.47-1.63,6.06,3.89l1.2,2.56a12.39,12.39,0,0,0,1.33,2.33q.14.16.92,0a4.62,4.62,0,0,0,1-.23c.05,0,.15.09.28.35a1.69,1.69,0,0,1,.21.54q-.17,0-1.46.56t-1.91.8q-.65.3-1.75.92l-1.34.76c-.11,0-.22-.19-.35-.46s-.15-.42-.08-.45a3.56,3.56,0,0,0,.81-.62c.34-.32.5-.56.48-.7a8.51,8.51,0,0,0-.71-2.07l-1.2-2.56a6.45,6.45,0,0,0-2.07-2.84,2.39,2.39,0,0,0-2.34,0,2.75,2.75,0,0,0-1.28,1.18,1.43,1.43,0,0,0-.17,1.31l2.17,4.63a12.45,12.45,0,0,0,1.33,2.33c.1.11.39.13.9.06a4.34,4.34,0,0,0,1-.21c.07,0,.17.08.3.33a1.7,1.7,0,0,1,.21.54l-1.46.56q-1.23.48-1.85.77t-1.83,1l-1.39.78c-.11,0-.22-.19-.35-.46s-.15-.42-.08-.45a4.14,4.14,0,0,0,.89-.66q.56-.51.53-.73a9.65,9.65,0,0,0-.73-2.05l-2.06-4.39a2.83,2.83,0,0,0-1.24-1.52,1.44,1.44,0,0,0-.8-.12,3.4,3.4,0,0,0-.72.14c-.18.06-.28.07-.29,0-.24-.52-.33-.81-.24-.87a42,42,0,0,0,4-2.84.19.19,0,0,1,0-.07l.07-.05.07,0c.07,0,.16,0,.28.1a.91.91,0,0,1,.22.26,9.84,9.84,0,0,0,.35,1c0,.07.06.11.09.12a.46.46,0,0,0,.1-.14,6.59,6.59,0,0,1,1.12-1.91A5.19,5.19,0,0,1,291.72,119Z"/><path class="cls-3" d="M303.28,113.55a12.66,12.66,0,0,1,3.34-1,16.89,16.89,0,0,1,1.71,2.87q.1.22-.25.38c-.39.18-.64.22-.75.09a3.6,3.6,0,0,0-1.55-1.23,2.32,2.32,0,0,0-1.94.1,2.13,2.13,0,0,0-1.06.92,1.32,1.32,0,0,0,0,1.2,1.74,1.74,0,0,0,.47.62,1.84,1.84,0,0,0,.76.35,7.31,7.31,0,0,0,.79.15c.22,0,.54.05,1,.07h.33l.5,0,.56,0,.55.05a5.62,5.62,0,0,1,.62.09l.57.13a2.43,2.43,0,0,1,.58.19l.52.27a1.86,1.86,0,0,1,.51.35,5.5,5.5,0,0,1,.39.44,2.71,2.71,0,0,1,.34.55,3.5,3.5,0,0,1,0,3.29,5.64,5.64,0,0,1-2.7,2.47,9.92,9.92,0,0,1-3.83.88,11.64,11.64,0,0,1-1-1.37,14.28,14.28,0,0,1-.86-1.48.64.64,0,0,1,.31-.31c.41-.19.66-.22.75-.09a3.27,3.27,0,0,0,1.92,1.32,3.17,3.17,0,0,0,2.16-.18,2.16,2.16,0,0,0,1.06-1,1.45,1.45,0,0,0,0-1.33,2,2,0,0,0-.3-.47,1.44,1.44,0,0,0-.47-.34l-.49-.23a2.11,2.11,0,0,0-.65-.14l-.68-.06-.84,0-.86,0a6.91,6.91,0,0,1-2.59-.54,3.43,3.43,0,0,1-1.47-4.74A5.73,5.73,0,0,1,303.28,113.55Z"/><path class="cls-3" d="M317.83,106.76q3.44-1.62,5.93,3.68l1.3,2.77a10.9,10.9,0,0,0,1.35,2.32q.11.18.9.06a4.57,4.57,0,0,0,1-.24q.08,0,.28.35a3.09,3.09,0,0,1,.23.53q-.2.06-1.49.57t-1.88.78q-.67.32-1.78.93l-1.36.77a1.11,1.11,0,0,1-.32-.47q-.19-.4-.11-.44a3.55,3.55,0,0,0,.83-.64q.51-.49.5-.71a11.27,11.27,0,0,0-.76-2l-1.24-2.64a6.2,6.2,0,0,0-2.05-2.8,2.43,2.43,0,0,0-2.32.06,2.85,2.85,0,0,0-1.27,1.15,1.4,1.4,0,0,0-.19,1.34l2.17,4.63a10.9,10.9,0,0,0,1.35,2.32q.14.16.9.06a4.24,4.24,0,0,0,1-.22c.05,0,.15.09.28.35a1.67,1.67,0,0,1,.21.54l-1.46.55q-1.23.48-1.85.77t-1.83,1l-1.39.78c-.11,0-.22-.19-.35-.46s-.15-.42-.08-.45a4.15,4.15,0,0,0,.89-.66q.56-.51.53-.73a9.57,9.57,0,0,0-.72-2l-5.26-11.19a11.6,11.6,0,0,0-1-1.77q-.34-.37-1.6.23l-.24.11q-.16.07-.36-.36t0-.51q.8-.47,1.49-1t1.12-.86c.29-.24.54-.47.73-.67l.64-.63.05,0a.32.32,0,0,1,.29,0,.83.83,0,0,1,.27.22,9.56,9.56,0,0,0,.86,2.68l2.55,5.44c.05.11.11.14.18.11s0-.05.07-.13a5.66,5.66,0,0,1,1.11-1.95A5.48,5.48,0,0,1,317.83,106.76Z"/><path class="cls-3" d="M333.44,109.28a11,11,0,0,0,1.35,2.32c.1.11.4.12.91,0a4.41,4.41,0,0,0,1-.23c.07,0,.17.08.3.33a1.69,1.69,0,0,1,.21.54q-.2.06-1.49.57t-1.88.78q-.67.32-1.86,1t-1.36.77c-.11,0-.22-.19-.35-.46s-.15-.42-.08-.45a4.31,4.31,0,0,0,.87-.66q.58-.52.54-.73a9.65,9.65,0,0,0-.73-2.05l-2.06-4.39a2.82,2.82,0,0,0-1.24-1.52,1.65,1.65,0,0,0-.81-.11,3.14,3.14,0,0,0-.72.14q-.28.1-.31,0c-.24-.52-.32-.81-.22-.88a31.5,31.5,0,0,0,3.93-2.83l.19-.15q.13-.06.3.09a.55.55,0,0,1,.19.27,25.6,25.6,0,0,0,.87,2.42Zm-8.09-9.95a1.81,1.81,0,0,1-1-1,1.83,1.83,0,0,1,.89-2.44,1.78,1.78,0,0,1,1.41-.07,1.76,1.76,0,0,1,1,.94,1.81,1.81,0,0,1,.07,1.41,1.83,1.83,0,0,1-2.37,1.11Z"/><path class="cls-3" d="M340.57,96.11a6,6,0,0,1,3.48-.55,6.22,6.22,0,0,1,4.89,3.55,7,7,0,0,1-3.32,9.37,6.9,6.9,0,0,1-2.09.52q-.11.05.07.43l.86,1.83a10.7,10.7,0,0,0,1.35,2.32c.08.13.39.16.91.08a4.54,4.54,0,0,0,1-.23q.08,0,.28.35a2.65,2.65,0,0,1,.22.5l-1.48.6q-1.29.51-1.88.79t-1.86,1l-1.4.76a1.07,1.07,0,0,1-.32-.46c-.12-.26-.16-.4-.1-.43a4.16,4.16,0,0,0,.89-.66q.56-.51.54-.76a10.92,10.92,0,0,0-.75-2l-4.83-10.28a2.88,2.88,0,0,0-1.25-1.55,1.34,1.34,0,0,0-.77-.11,3.59,3.59,0,0,0-.72.16c-.19.07-.29.08-.31,0q-.37-.78-.22-.88a22.9,22.9,0,0,0,3.66-2.64l.45-.37q.11-.05.37.51a1.62,1.62,0,0,1,.1.35,6,6,0,0,1,.9-1.19A4.26,4.26,0,0,1,340.57,96.11Zm0,1.73a2.24,2.24,0,0,0-1.2,1.19,2,2,0,0,0,.09,1.63l2.6,5.54a1.83,1.83,0,0,0,1.39,1.07,2.89,2.89,0,0,0,1.81-.21,2.79,2.79,0,0,0,1.55-2.11,5.75,5.75,0,0,0-.64-3.57,7.69,7.69,0,0,0-2.56-3.22A2.92,2.92,0,0,0,340.59,97.84Z"/><path class="cls-3" d="M355.43,100.23a1.94,1.94,0,0,1,1.12,1,2,2,0,0,1,.07,1.52,1.84,1.84,0,0,1-1,1.14,1.92,1.92,0,0,1-1.55.05,2,2,0,0,1-1.14-1,1.91,1.91,0,0,1-.06-1.52,1.94,1.94,0,0,1,1-1.14A1.86,1.86,0,0,1,355.43,100.23Z"/></svg>