<svg id="Layer_1" data-name="Layer 1" xmlns="http://www.w3.org/2000/svg" viewBox="0 0 779.24 706.9"><defs><style>.cls-1{fill:#fff;stroke:#1928eb;stroke-miterlimit:10;stroke-width:1.26px;}</style></defs><title>title</title><path class="cls-1" d="M15.52,360.74q.63-.42,11.85-8.91,3.46,2.78,13.78,9.63t25.2,16.66q14.89,9.81,24.24,16.3c.11.17.29.17.54,0a.4.4,0,0,0,.13-.63Q84.79,359.88,80,338.41L74.92,320.8q4-2.12,10.58-6.44,4.91-3.24,14.58-10.53a4.39,4.39,0,0,1,1.71,1.77c.94,1.43,1.25,2.25.91,2.48l-.25.17a12.3,12.3,0,0,0-4.84,6.09q-1,2.64,2.86,7.89,7.91,10.89,36.12,50.88a39.9,39.9,0,0,0,9.67,10.26q1.25.8,4.9-.25a20.33,20.33,0,0,0,4.91-1.88q.5-.33,2,1.94a7.26,7.26,0,0,1,1,2.06q-15.62,9.23-16,9.48-2.52,1.67-5.21,3.62t-5.9,4.35l-5.15,3.85A3.21,3.21,0,0,1,125,405q-1.5-2.27-1-2.6a17.83,17.83,0,0,0,3.49-3.48,9.45,9.45,0,0,0,2.32-4.16,8.45,8.45,0,0,0-1.65-5.24l-4.66-7.06L97,344.94q-5.66-7.48-6.67-6.81-.38.25-.13,1.17l14.7,74.61q1,6.21-1.63,8a5,5,0,0,1-1.43.58l-73-49.16q19.83,32,35.09,57.53a16.67,16.67,0,0,0,3,3.66q1.55,1,6.79-.68a32.66,32.66,0,0,0,6.75-2.65q.5-.33,2,1.94a7.26,7.26,0,0,1,1,2.06q-15.62,9.23-16.38,9.73-3.4,2.25-8.76,6.33T51.7,456.1q-.84-.17-1.83-1.68-1.42-2.14-.91-2.48a30.23,30.23,0,0,0,5.47-5.42q3.45-4.09,2.75-6.52-.36-3-4.19-9.36-6.07-9.74-14.24-23.08L24.81,384.82q-5.76-9.4-7.26-11.68a14.45,14.45,0,0,0-2.71-3.28q-1-.76-5.47.9a34.2,34.2,0,0,0-6.06,2.74q-.51.33-1.92-1.81a3.21,3.21,0,0,1-.74-2.22l6.78-3.84Q12.24,362.9,15.52,360.74Z"/><path class="cls-1" d="M193.4,301.56l16.47,25q4,6,6.83,8.16a3.13,3.13,0,0,0,2.12.05,11.73,11.73,0,0,0,2.54-1,22.58,22.58,0,0,0,2.16-1.25c.63-.42,1-.61,1.15-.58q.59-.2,1.25.8a11.52,11.52,0,0,1,.87,1.87c.36.91.37,1.48,0,1.7a34.74,34.74,0,0,0-4.18,3.39q-2.42,2.23-4.65,4.33t-4.16,4.11q-1.94,2-4.37,4.34-.88.58-2.21-1.43l-3.66-5.54c-.36-.36-.63-.49-.79-.38a33.67,33.67,0,0,1-3.94,10.75,25.28,25.28,0,0,1-8.29,9.09,15.82,15.82,0,0,1-8.91,2.81,18.21,18.21,0,0,1-8.7-2.22,32.43,32.43,0,0,1-7.47-5.56,46.14,46.14,0,0,1-6.06-7.4l-9.32-14.11q-3.91-5.92-7.34-6.73a8.38,8.38,0,0,0-4.15,0,15.88,15.88,0,0,0-3.52,1.24q-1.34.71-1.51.45-2.41-3.65-1.87-4.2a113.66,113.66,0,0,0,9.34-8.33,118.29,118.29,0,0,0,8.46-8.84,2.47,2.47,0,0,0,.42-.46,2.5,2.5,0,0,1,.42-.46q.63-.42,1.53.26a5.38,5.38,0,0,1,1.23,1.18q4.52,9.32,6.19,11.84l10,15.12q6.49,9.83,12.09,12.28t11.78-1.62a11.86,11.86,0,0,0,5.18-6.95q1.15-4.29-.35-6.56l-13.73-20.79q-3.91-5.92-7.34-6.73a7.27,7.27,0,0,0-4.08,0,17,17,0,0,0-3.59,1.28q-1.34.71-1.51.45-2.41-3.65-1.74-4.28a115.67,115.67,0,0,0,9.21-8.25,118.65,118.65,0,0,0,8.46-8.84,8.88,8.88,0,0,0,.84-.92c.42-.28,1-.2,1.59.22a2.79,2.79,0,0,1,1.17,1.22Q191.9,299.3,193.4,301.56Z"/><path class="cls-1" d="M226.38,260.25a36.48,36.48,0,0,1,13.37-5.66q6.68-1.24,10.7-.1a18.69,18.69,0,0,1,3.25,8.08,5.57,5.57,0,0,1-2.48,5.71,6.76,6.76,0,0,1-4.68,1.28,17.14,17.14,0,0,1-5.71-2.2q-6.73-3.88-12.27-.22t-5,11.18q.4,7.6,5.9,15.92,7.49,11.34,15.77,13.74a17.82,17.82,0,0,0,15.46-2.34,41.08,41.08,0,0,0,3.53-2.6,22.4,22.4,0,0,0,2.86-2.79q1.22-1.44,2.11-2.57a13,13,0,0,0,1.58-2.67l1-2.19q.3-.64,1.4-3.36a2.48,2.48,0,0,1,1.13.34,2.93,2.93,0,0,1,1.21,1,4.64,4.64,0,0,1,.82,2.89q.36,4.65-2.94,11.71A27.74,27.74,0,0,1,263.27,317a30.55,30.55,0,0,1-24.5,4.41,33.33,33.33,0,0,1-21.1-14.84,34.34,34.34,0,0,1-5.54-24.84Q214.15,268.32,226.38,260.25Z"/><path class="cls-1" d="M295.31,214.74q16.13-10.65,32.52,14.18l8.57,13q5.08,7.69,8.5,10.68.71.8,4.55-.38a23.19,23.19,0,0,0,5-1.93c.25-.17.8.35,1.65,1.54a15.86,15.86,0,0,1,1.56,2.5q-1,.46-7.07,3.95t-8.88,5.32q-3.15,2.08-8.26,6t-6.28,4.87a5.63,5.63,0,0,1-2-2.14q-1.25-1.89-.87-2.14a18,18,0,0,0,3.72-3.81q2.21-2.82,2-3.95a57.22,57.22,0,0,0-5.32-9.7l-8.15-12.35q-6.9-10.46-12.36-12.56t-11.63,2a14.47,14.47,0,0,0-5.52,6.72q-1.73,4.22,0,6.87L301.37,265q5.07,7.69,8.5,10.68.83.72,4.54-.38a21.34,21.34,0,0,0,4.85-1.84q.38-.25,1.65,1.54a8.54,8.54,0,0,1,1.43,2.58q-1.09.54-6.95,3.86t-8.76,5.24q-3,2-8.51,6.16t-6.41,5q-.84-.17-2.08-2.06t-.74-2.22a21.08,21.08,0,0,0,4-4q2.46-3,2.13-4a48.54,48.54,0,0,0-5.11-9.66l-34.61-52.42a59.65,59.65,0,0,0-6.29-8.15q-2-1.6-7.88,2.31l-1.13.75q-.76.5-2.09-1.52t-.58-2.52q3.66-3,6.77-5.92t5-5.13q1.91-2.17,3.2-3.92t2.76-3.63l.25-.17a1.63,1.63,0,0,1,1.46,0,4.16,4.16,0,0,1,1.5.91,48.67,48.67,0,0,0,6.31,12.84l16.81,25.46q.5.76,1,.42c.08-.05.17-.29.25-.71a28.74,28.74,0,0,1,4.13-10.6A27.82,27.82,0,0,1,295.31,214.74Z"/><path class="cls-1" d="M354.5,136.94q.63-.42,11.85-8.91,3.46,2.78,13.78,9.63t25.2,16.66q14.89,9.81,24.24,16.3c.11.17.29.17.54,0a.4.4,0,0,0,.13-.63q-6.47-33.91-11.23-55.37L413.9,97q4-2.12,10.58-6.44,4.91-3.25,14.58-10.53a4.39,4.39,0,0,1,1.71,1.77c.94,1.43,1.24,2.25.91,2.47l-.25.17a12.29,12.29,0,0,0-4.84,6.09q-1,2.64,2.85,7.89,7.91,10.89,36.13,50.88a39.89,39.89,0,0,0,9.67,10.26q1.25.8,4.9-.25a20.3,20.3,0,0,0,4.91-1.88q.5-.33,2,1.94a7.3,7.3,0,0,1,1,2.06q-15.62,9.23-16,9.48-2.52,1.67-5.21,3.62t-5.9,4.35l-5.15,3.85a3.21,3.21,0,0,1-1.75-1.56q-1.5-2.27-1-2.6a17.85,17.85,0,0,0,3.49-3.48,9.47,9.47,0,0,0,2.32-4.16,8.46,8.46,0,0,0-1.65-5.24l-4.66-7.06L436,121.14q-5.66-7.48-6.67-6.81-.38.25-.13,1.17l14.7,74.61q1,6.21-1.63,7.95a5,5,0,0,1-1.43.58l-73-49.16q19.83,32,35.09,57.53a16.67,16.67,0,0,0,3,3.66q1.55,1,6.79-.68a32.65,32.65,0,0,0,6.75-2.65q.5-.33,2,1.94a7.27,7.27,0,0,1,1,2.06q-15.62,9.23-16.38,9.73-3.4,2.25-8.76,6.33t-6.62,4.91q-.84-.17-1.83-1.68-1.42-2.14-.91-2.48a30.23,30.23,0,0,0,5.47-5.42q3.45-4.09,2.75-6.52-.36-3-4.19-9.36-6.07-9.74-14.24-23.08L363.79,161q-5.76-9.4-7.26-11.68a14.42,14.42,0,0,0-2.71-3.28q-1-.76-5.47.9a34.2,34.2,0,0,0-6.06,2.74q-.5.33-1.92-1.81a3.21,3.21,0,0,1-.74-2.22l6.78-3.84Q351.22,139.1,354.5,136.94Z"/><path class="cls-1" d="M496.8,81.71a33.29,33.29,0,0,1,25.67-5.1A32.37,32.37,0,0,1,544,91.05a33.9,33.9,0,0,1-9.76,47.16,33.08,33.08,0,0,1-25.78,5.08,34,34,0,0,1-26.52-40A33.09,33.09,0,0,1,496.8,81.71Zm2.27,7q-5.93,3.91-5.41,11.81a32.47,32.47,0,0,0,5.75,15.84q6.74,10.21,15.83,15.06t16.4,0q5.92-3.91,5.43-11.91a32.11,32.11,0,0,0-5.65-15.81,51.84,51.84,0,0,0-9.67-11.08,26.64,26.64,0,0,0-11.49-5.89A14,14,0,0,0,499.08,88.71Z"/><path class="cls-1" d="M569.14,34q6.93-4.57,13.08-2.66,7.07,10.71,1,14.7-2.27,1.5-6.58.72a9.46,9.46,0,0,0-7.08,1.06q-3.91,2.58-3.49,8a20.1,20.1,0,0,0,3.24,9.71l10.4,15.75Q584.8,88.93,588.1,92q.83.72,4.55-.38a21.39,21.39,0,0,0,4.85-1.84c.25-.17.8.35,1.65,1.54a15.78,15.78,0,0,1,1.56,2.5q-1.09.54-7,3.91T584.87,103q-3,2-8.51,6.16t-6.41,5q-.84-.17-2.09-2.06t-.74-2.22a21.11,21.11,0,0,0,4-4q2.46-3,2.13-4A49.35,49.35,0,0,0,568,92L554.48,71.5q-3.91-5.92-7.34-6.73a7.27,7.27,0,0,0-4.08,0A17.24,17.24,0,0,0,539.53,66q-1.28.67-1.45.41-2.41-3.65-1.87-4.2Q541.68,57.87,554,45a9.16,9.16,0,0,1,.84-.92c.33-.22.82-.12,1.46.3a3.64,3.64,0,0,1,1.27,1.24l1,1.89q.67,1.28,1.35,2.73a19.44,19.44,0,0,0,.93,1.83A27.7,27.7,0,0,1,563,41.9,16.53,16.53,0,0,1,569.14,34Z"/><path class="cls-1" d="M612.23,5.5A28,28,0,0,1,624.36.84a23.91,23.91,0,0,1,11.22,1.1,35.15,35.15,0,0,1,8.94,4.77,26.06,26.06,0,0,1,6.25,6.46q1.83,2.77,1.34,4.09t-3.38,3.23L618.61,40.37q-.88.58-.38,1.34a29.34,29.34,0,0,0,7.46,7.74,20.76,20.76,0,0,0,10.52,3.73,17.77,17.77,0,0,0,11.59-3.13,41.2,41.2,0,0,0,3.53-2.6,22.46,22.46,0,0,0,2.86-2.79q1.22-1.44,2.11-2.57a13,13,0,0,0,1.58-2.67l1-2.19q.3-.64,1.4-3.37a2.49,2.49,0,0,1,1.13.34,2.92,2.92,0,0,1,1.21,1,4.65,4.65,0,0,1,.83,2.89q.36,4.65-2.94,11.71a28,28,0,0,1-10.23,11.64A30.58,30.58,0,0,1,626,65.81a32.57,32.57,0,0,1-21-14.48q-8.4-12.73-6.27-25.53T612.23,5.5Zm2.95,6.38a10.68,10.68,0,0,0-4.25,5.34,14.24,14.24,0,0,0-.83,6.7,28.89,28.89,0,0,0,1.29,5.93,18.48,18.48,0,0,0,1.89,4.09q.58.88,1.34.38L635,20.85q1.13-.75-.11-2.64a19.58,19.58,0,0,0-8.87-7Q620.09,8.63,615.18,11.88Z"/><path class="cls-1" d="M205.8,410.3q9.45-3.84,15.37-6.51t15.13-7.23q9.21-4.56,14.79-7.25a50.17,50.17,0,0,0,8.88-5.66l12.11,19.88q-.53,1.4-3.28,2.64-1.1.5-1.69-.07-5.34-6.7-9.72-8t-11.12,1.78q-12.8,5.77-12.3,8.36.56,4.55,4.6,13.5L261,471.49a51.47,51.47,0,0,0,6.64,11.42q.57.9,4.62.32a24,24,0,0,0,5.28-1.14q.55-.25,1.67,2.23a7.88,7.88,0,0,1,.72,2.33l-5.49,2q-3.63,1.31-6.66,2.5T262,493.56q-3.72,1.68-10.07,5t-7.8,4.18c-.53-.2-1-.85-1.54-2q-1.12-2.48-.57-2.73a24.09,24.09,0,0,0,4.73-3.29q3.08-2.54,3-3.83-.58-4.21-4-11.92l-22.47-49.83q-5.15-11.42-7.26-12.79-2.16-1.84-14.13,3.56-6.75,3-8.7,7.15t-.67,12.48q.23.89-1,1.45-2.62,1.18-4.08.51l-6.82-22.1a50.15,50.15,0,0,0,10.12-2.91Q196.36,414.15,205.8,410.3Z"/><path class="cls-1" d="M329,390.61q17.62-7.94,29.85,19.17L365.26,424q3.79,8.4,6.69,11.89.57.9,4.55.35a23.12,23.12,0,0,0,5.21-1.11q.41-.19,1.38,1.78a15.77,15.77,0,0,1,1.14,2.72q-1,.3-7.61,2.77T367,446.2q-3.44,1.55-9.11,4.6t-7,3.81a5.63,5.63,0,0,1-1.59-2.43q-.93-2.06-.52-2.25a18,18,0,0,0,4.28-3.17q2.63-2.43,2.61-3.58A57.14,57.14,0,0,0,352,432.76l-6.08-13.49q-5.15-11.43-10.2-14.37t-11.8.1a14.45,14.45,0,0,0-6.52,5.75q-2.39,3.89-1.08,6.78L327,441.22q3.79,8.4,6.69,11.89.71.84,4.55.35a21.35,21.35,0,0,0,5.08-1q.41-.19,1.38,1.78a8.59,8.59,0,0,1,1,2.78q-1.17.36-7.48,2.71t-9.48,3.78q-3.3,1.49-9.38,4.73t-7.12,3.87q-.8-.3-1.73-2.37t-.38-2.31a21.08,21.08,0,0,0,4.56-3.3q2.91-2.55,2.75-3.64a48.6,48.6,0,0,0-3.5-10.35l-25.82-57.27a59.61,59.61,0,0,0-4.91-9.05q-1.68-1.89-8.15,1l-1.24.56q-.82.37-1.82-1.83t-.17-2.57q4.08-2.34,7.63-4.76t5.78-4.26q2.24-1.83,3.79-3.36t3.3-3.15l.28-.12a1.63,1.63,0,0,1,1.44.26,4.17,4.17,0,0,1,1.34,1.14,48.66,48.66,0,0,0,4.18,13.68l12.54,27.81q.37.83.92.58c.09,0,.21-.26.36-.66a28.75,28.75,0,0,1,5.77-9.8A27.82,27.82,0,0,1,329,390.61Z"/><path class="cls-1" d="M392.48,362q8.53-3.85,14.82-1.3t11.19,13.43l12.23,27.12a6.89,6.89,0,0,0,3.13,3.64,4.53,4.53,0,0,0,4,0,9.42,9.42,0,0,0,3.87-3.9q1-.1,1.51,1.14a9,9,0,0,1,1,4.5,37.41,37.41,0,0,1-4,5.92,15.73,15.73,0,0,1-5.8,4.77,11,11,0,0,1-7.25.45,12.39,12.39,0,0,1-6.29-3.29q-.07.2-.63,1.36t-1.64,3a44.66,44.66,0,0,1-2.59,3.82,24.11,24.11,0,0,1-3.84,4,21.93,21.93,0,0,1-5.1,3.21q-6.88,3.1-12.93,1.27t-9-8.44a13.94,13.94,0,0,1-1.21-6.91,18.05,18.05,0,0,1,1.64-6.46,31,31,0,0,1,4.27-6.32,62.29,62.29,0,0,1,5.19-5.57q2.28-2.1,5.92-5.24t5-4.43a2.38,2.38,0,0,0,.25-2.76l-3.41-7.57q-2.17-4.82-5.62-6.58a7.89,7.89,0,0,0-7.16-.08,9.16,9.16,0,0,0-5.32,5.46q-1.19,3.6.92,8.28a4.89,4.89,0,0,1-.23,5,9.38,9.38,0,0,1-4.09,3.42q-5.09,2.3-8.65-.08-3-6.61,3.43-16.45A37.87,37.87,0,0,1,392.48,362Zm17.64,55.65a11.71,11.71,0,0,0,5.53-4.81q1.81-3.14.7-5.62l-6.33-14q-.78.85-3.44,3.21t-4,3.79a41.53,41.53,0,0,0-3,3.67,9.11,9.11,0,0,0-1.87,4.49,8.31,8.31,0,0,0,.71,4.32q2,4.41,5.12,5.48A8.69,8.69,0,0,0,410.12,417.65Z"/><path class="cls-1" d="M470.81,326.69q17.76-8,30.48,20.21l5.9,13.08q3.79,8.4,6.55,12,.71.84,4.69.29a23.15,23.15,0,0,0,5.21-1.11q.41-.19,1.38,1.78a8.56,8.56,0,0,1,1,2.78q-.89.23-7.47,2.71t-9.75,3.9q-3.3,1.49-9,4.54T493,390.57q-.8-.3-1.73-2.37t-.38-2.31a17.94,17.94,0,0,0,4.15-3.11q2.63-2.43,2.47-3.52a43.39,43.39,0,0,0-3.43-10.55l-5.9-13.08q-5.15-11.42-10.3-14.57T466,341a14,14,0,0,0-6.62,5.88q-2.22,3.9-1,6.65l10.67,23.68q3.79,8.4,6.55,12,.71.84,4.55.35a21.73,21.73,0,0,0,4.94-1q.55-.25,1.52,1.72a8.57,8.57,0,0,1,1,2.78q-1.17.36-7.47,2.71t-9.48,3.78q-3.3,1.49-9.38,4.73t-7.12,3.87q-.8-.3-1.73-2.37t-.38-2.31a21.09,21.09,0,0,0,4.56-3.3q2.91-2.55,2.75-3.64A49.29,49.29,0,0,0,455.79,386l-10.12-22.44q-2.92-6.47-6.17-7.82a7.27,7.27,0,0,0-4-.67,17.21,17.21,0,0,0-3.68.66c-.91.3-1.41.36-1.49.18q-1.8-4-1.17-4.44,6.08-3.4,20.3-14.12a1,1,0,0,1,.25-.36,1.42,1.42,0,0,1,.38-.26l.34-.16c.37-.16.83,0,1.4.53a4.59,4.59,0,0,1,1.09,1.33,52,52,0,0,0,1.68,5.2c.17.37.32.58.45.63a2.25,2.25,0,0,0,.5-.72,33.44,33.44,0,0,1,5.86-9.6A26.43,26.43,0,0,1,470.81,326.69Z"/><path class="cls-1" d="M571.54,245.16,633,304.26q4.55,4.58,8.66,8.19,1.76,1.69,5.89,1.32a20.06,20.06,0,0,0,5.79-1.12q.55-.25,1.67,2.23a5.08,5.08,0,0,1,.66,2.19q-16.89,6.62-17.72,7T620.39,333q-.8-.3-1.7-2.3t-.35-2.24a19.45,19.45,0,0,0,4.17-2.87q2.52-2.13,2.57-3.48a4.32,4.32,0,0,0-.39-2q-1.24-2.75-6.9-8.32L607.2,301.14A1.66,1.66,0,0,0,606,301q-4.53,1.71-12,5.06t-15.51,7.49c-.55.25-.74.56-.58.92l.54,15.16q.61,8.34,1.42,10.13a3.37,3.37,0,0,0,2.76,2.07,15.13,15.13,0,0,0,5-.44,26.07,26.07,0,0,0,4.51-1.2q.48,0,1.28,1.74a9.86,9.86,0,0,1,.9,2.74q-.69.31-6.66,2.5T578.17,351q-3.58,1.61-8.31,4.16l-6.73,3.62a3.21,3.21,0,0,1-1.48-1.82q-1.12-2.48-.84-2.6a21.83,21.83,0,0,0,4.77-3.56Q568.69,348,569,346a71.77,71.77,0,0,0,.39-13.1L567,259.45q-.56-9.69.62-12.21a3.85,3.85,0,0,1,1.91-2A2.48,2.48,0,0,1,571.54,245.16Zm6.57,58.66q5-1.76,10.1-4.06,4.82-2.17,11.1-5.5l0-.67-22.87-22.81,1.12,32.62C577.75,303.76,577.92,303.9,578.1,303.82Z"/><path class="cls-1" d="M190.72,611.45l22-14.1q20.72-13.29,40.17-8.54a47.85,47.85,0,0,1,30.05,21.27q11.74,18.3,7.93,38.24t-24.4,33.14q-2.67,1.71-10.65,6.47t-11.41,7l-16.58,11.35q-.63-.14-1.69-1.79-1.38-2.16-1-2.41a24.93,24.93,0,0,0,4.3-3.92q2.65-2.86,2.42-4.34-.82-3.24-6.53-12.14l-30.81-48q-4.89-7.63-7.57-9.85-1.28-1.15-5,0a23.81,23.81,0,0,0-5.65,2.37q-.51.33-1.73-1.58a4.1,4.1,0,0,1-1-2.61Q182.21,616.91,190.72,611.45Zm17.43,11.79,32,49.83q4.57,7.12,7.43,8.51,3.34.73,16.81-7.91,25.8-16.55,2-53.66-9.13-14.23-22.42-19.71T217.8,603l-.63.41q-12.2,7.83-12.42,10.84Q204.56,617.64,208.15,623.23Z"/><path class="cls-1" d="M309.89,573.77A33.29,33.29,0,0,1,335.63,569,32.36,32.36,0,0,1,357,583.74a34.2,34.2,0,0,1-57.58,36.93,32.53,32.53,0,0,1-4.63-25.55A33.08,33.08,0,0,1,309.89,573.77Zm2.18,7q-6,3.83-5.57,11.73A32.49,32.49,0,0,0,312,608.45q6.6,10.3,15.62,15.27t16.4.25q6-3.83,5.59-11.84a32.11,32.11,0,0,0-5.44-15.89A51.85,51.85,0,0,0,334.7,585a26.63,26.63,0,0,0-11.41-6A14,14,0,0,0,312.07,580.81Z"/><path class="cls-1" d="M372.94,533.34a36.46,36.46,0,0,1,13.44-5.48q6.7-1.16,10.7,0a18.67,18.67,0,0,1,3.14,8.12,5.57,5.57,0,0,1-2.55,5.67,6.76,6.76,0,0,1-4.69,1.22,17.12,17.12,0,0,1-5.68-2.28q-6.68-4-12.27-.39t-5.16,11.11q.31,7.61,5.68,16,7.34,11.44,15.59,14a17.82,17.82,0,0,0,15.49-2.13,41.17,41.17,0,0,0,3.56-2.55,22.47,22.47,0,0,0,2.9-2.75q1.24-1.42,2.14-2.54a12.94,12.94,0,0,0,1.62-2.65l1-2.18q.3-.64,1.44-3.35a2.49,2.49,0,0,1,1.13.36,2.92,2.92,0,0,1,1.2,1,4.64,4.64,0,0,1,.79,2.9q.29,4.65-3.1,11.67a27.74,27.74,0,0,1-10.26,11.42,30.55,30.55,0,0,1-24.55,4.09,33.33,33.33,0,0,1-20.91-15.12,34.32,34.32,0,0,1-5.21-24.91Q360.61,541.25,372.94,533.34Z"/><path class="cls-1" d="M465.25,493.51l16.14,25.17q3.91,6.1,6.72,8.25a3.14,3.14,0,0,0,2.11.08,11.73,11.73,0,0,0,2.55-.92,22.4,22.4,0,0,0,2.18-1.22c.64-.41,1-.59,1.16-.57.39-.13.81.14,1.24.82a11.6,11.6,0,0,1,.85,1.88c.35.92.35,1.48,0,1.7A34.62,34.62,0,0,0,494,532q-2.45,2.2-4.7,4.27t-4.22,4.05q-2,2-4.43,4.28-.89.57-2.19-1.46l-3.59-5.59q-.53-.55-.79-.39A33.72,33.72,0,0,1,470,547.88a25.3,25.3,0,0,1-8.41,9,15.83,15.83,0,0,1-9,2.69,18.22,18.22,0,0,1-8.67-2.33,32.46,32.46,0,0,1-7.4-5.66,46.18,46.18,0,0,1-6-7.48l-9.13-14.24q-3.83-6-7.25-6.83a8.39,8.39,0,0,0-4.15,0,15.89,15.89,0,0,0-3.54,1.19q-1.35.69-1.52.43-2.36-3.69-1.81-4.22a113.74,113.74,0,0,0,9.44-8.21,118.35,118.35,0,0,0,8.57-8.73,2.45,2.45,0,0,0,.43-.45,2.55,2.55,0,0,1,.43-.45c.42-.27.93-.18,1.52.28a5.39,5.39,0,0,1,1.22,1.19q4.4,9.38,6,11.92l9.78,15.25q6.36,9.91,11.93,12.44t11.8-1.47a11.86,11.86,0,0,0,5.27-6.88q1.21-4.27-.26-6.56l-13.45-21q-3.83-6-7.25-6.83a7.28,7.28,0,0,0-4.08-.07,17,17,0,0,0-3.6,1.23q-1.35.69-1.52.43-2.36-3.69-1.68-4.3a116.08,116.08,0,0,0,9.32-8.13,118.75,118.75,0,0,0,8.57-8.73,8.87,8.87,0,0,0,.85-.91q.63-.41,1.59.24a2.79,2.79,0,0,1,1.15,1.24Q463.78,491.23,465.25,493.51Z"/><path class="cls-1" d="M513,443.51a16.32,16.32,0,0,1,9.85-2.82,17.66,17.66,0,0,1,9.2,3.16,35.58,35.58,0,0,1,5.2-12.31,33.91,33.91,0,0,1,10.32-10.2,17.13,17.13,0,0,1,9.12-3,16.66,16.66,0,0,1,8.71,2.4,35.49,35.49,0,0,1,7.72,6.17,57.51,57.51,0,0,1,6.74,8.69L588.43,449q5,7.75,8.23,10.87.82.73,4.61-.36a22.2,22.2,0,0,0,4.93-1.82c.25-.16.8.36,1.63,1.56a8.51,8.51,0,0,1,1.4,2.6q-1,.44-7,3.77t-9,5.2q-3.05,2-8.46,6t-6.47,4.87a5.64,5.64,0,0,1-1.93-2.17q-1.22-1.91-.84-2.15a20.27,20.27,0,0,0,4-3.89q2.44-2.91,2.12-4a47,47,0,0,0-4.82-9.47l-8.31-13q-11.82-18.43-23.64-10.85a13.76,13.76,0,0,0-5.69,6.52q-1.49,3.83-.78,6.06c.16.25.36.61.59,1.06a2.93,2.93,0,0,0,.71,1,73.82,73.82,0,0,1,5.44,7.64l8.64,13.47a59.35,59.35,0,0,0,7.9,10.36q.82.73,4.61-.36a22.17,22.17,0,0,0,4.93-1.82c.25-.16.8.36,1.63,1.56a8.51,8.51,0,0,1,1.4,2.6q-1,.44-7,3.77t-9,5.2q-3.05,2-8.46,6T543.39,504a5.63,5.63,0,0,1-1.93-2.17q-1.22-1.91-.84-2.15a20.23,20.23,0,0,0,4-3.89q2.44-2.91,2.12-4a49.42,49.42,0,0,0-5.06-9.85l-7.83-12.2q-6.36-9.91-12.13-12.49t-11.5,1.09a14.46,14.46,0,0,0-5.61,6.64q-1.79,4.2-.08,6.87l14,21.86q5,7.75,8.35,10.79.82.73,4.49-.28a20.49,20.49,0,0,0,4.81-1.74q.51-.32,1.75,1.48a8.6,8.6,0,0,1,1.4,2.6q-1.1.53-7,3.77t-8.82,5.12q-3.18,2-8.65,6.09t-6.41,4.83q-.83-.18-2.06-2.09t-.71-2.23a21.86,21.86,0,0,0,4-3.89q2.56-3,2.25-4a49.31,49.31,0,0,0-5.06-9.85l-13.29-20.72q-3.83-6-7.25-6.83a7.29,7.29,0,0,0-4.08-.07,17.07,17.07,0,0,0-3.6,1.23q-1.35.69-1.52.43-2.36-3.69-1.68-4.3,5.52-4.26,17.89-16.86a1,1,0,0,1,.26-.44,3.22,3.22,0,0,1,.59-.47c.42-.27,1-.19,1.59.24a2.79,2.79,0,0,1,1.15,1.24,51.48,51.48,0,0,0,2.43,4.9c.22.34.44.5.66.47a2.24,2.24,0,0,0,.39-.79A33.47,33.47,0,0,1,504.75,452,26.44,26.44,0,0,1,513,443.51Z"/><path class="cls-1" d="M604.78,384.66a28,28,0,0,1,12.18-4.5,23.9,23.9,0,0,1,11.2,1.25A35.14,35.14,0,0,1,637,386.3a26,26,0,0,1,6.17,6.54q1.79,2.8,1.29,4.11t-3.43,3.19l-30.38,19.48q-.89.57-.4,1.33a29.34,29.34,0,0,0,7.36,7.84,20.78,20.78,0,0,0,10.47,3.87,17.77,17.77,0,0,0,11.63-3,41.17,41.17,0,0,0,3.56-2.55,22.55,22.55,0,0,0,2.9-2.75q1.24-1.42,2.14-2.54a13,13,0,0,0,1.62-2.65l1-2.18q.3-.64,1.44-3.35a2.49,2.49,0,0,1,1.12.36,2.91,2.91,0,0,1,1.2,1,4.64,4.64,0,0,1,.79,2.9q.29,4.65-3.1,11.67a28,28,0,0,1-10.38,11.5,30.58,30.58,0,0,1-24.32,4A32.57,32.57,0,0,1,597,430.39q-8.23-12.84-5.93-25.61T604.78,384.66Zm2.86,6.42a10.68,10.68,0,0,0-4.32,5.28,14.22,14.22,0,0,0-.91,6.69,28.83,28.83,0,0,0,1.21,5.95,18.46,18.46,0,0,0,1.83,4.12q.57.89,1.33.4l20.59-13.21q1.14-.73-.08-2.64a19.58,19.58,0,0,0-8.77-7.11Q612.6,387.9,607.64,391.08Z"/><path class="cls-1" d="M675.71,339.17q16.4-10.52,33.11,15.54l7.74,12.08q5,7.75,8.23,10.87.82.73,4.68-.4a23.13,23.13,0,0,0,5-1.86q.38-.24,1.63,1.56a8.58,8.58,0,0,1,1.4,2.6q-.85.36-7,3.77t-9.08,5.28q-3.05,2-8.21,5.8T707,399.13q-.83-.18-2.06-2.09t-.71-2.23a18,18,0,0,0,3.65-3.68q2.25-2.79,1.93-3.84a43.42,43.42,0,0,0-4.93-9.93l-7.74-12.08q-6.76-10.55-12.32-12.91T673,354a14,14,0,0,0-5.69,6.79q-1.62,4.18,0,6.72l14,21.86q5,7.75,8.23,10.87.82.73,4.55-.32a21.71,21.71,0,0,0,4.74-1.7q.51-.33,1.75,1.48a8.6,8.6,0,0,1,1.4,2.6q-1.1.53-7,3.77t-8.83,5.12q-3,2-8.59,6t-6.47,4.87q-.84-.18-2.06-2.09t-.71-2.23a21.08,21.08,0,0,0,4-3.93q2.5-2.95,2.19-4a49.36,49.36,0,0,0-5.06-9.85l-13.29-20.72q-3.83-6-7.25-6.83a7.29,7.29,0,0,0-4.08-.07,17.24,17.24,0,0,0-3.54,1.19c-.86.43-1.34.56-1.45.39q-2.36-3.69-1.81-4.22,5.52-4.26,18-16.94a1,1,0,0,1,.2-.39,1.45,1.45,0,0,1,.34-.31l.32-.2c.34-.22.83-.11,1.46.32a4.61,4.61,0,0,1,1.28,1.15,51.54,51.54,0,0,0,2.43,4.9c.22.34.4.52.54.55a2.24,2.24,0,0,0,.39-.79,33.47,33.47,0,0,1,4.39-10.35A26.43,26.43,0,0,1,675.71,339.17Z"/><path class="cls-1" d="M721.45,322.39l-7.75,5q-.89.57-3-2.73a3.74,3.74,0,0,1-.61-1.23,42.25,42.25,0,0,0,5.47-13q.59-2.71,1.22-6.07t1.18-8.38a10.75,10.75,0,0,1,2.62-1.23q1.35-.42,1.59,0l8,12.46q3.3-2.12,9.26-5.85l6.33-4q1-.65,1.75.49a14.65,14.65,0,0,1,2.31,6.41L734.54,314l19.65,30.63q3.26,5.09,7.13,6.37a8.63,8.63,0,0,0,7.69-1.16,14.29,14.29,0,0,0,2.46-2,16,16,0,0,0,1.84-2.17q.64-1,1.16-1.82a4.78,4.78,0,0,1,.64-1q.43-.45,1.88.41t1.57,1.33q.38,2.27-2.75,7.6a23.79,23.79,0,0,1-7.58,8.18,19,19,0,0,1-14,3q-7.37-1.28-13.08-10.18Z"/></svg>