<svg id="Layer_1" data-name="Layer 1" xmlns="http://www.w3.org/2000/svg" viewBox="0 0 1225.03 533.02"><defs><style>.cls-1{fill:#fff;stroke:#1928eb;stroke-miterlimit:10;stroke-width:1.26px;}</style></defs><title>title</title><path class="cls-1" d="M15.52,360.74q.63-.42,11.85-8.91,3.46,2.78,13.78,9.63t25.2,16.66q14.89,9.81,24.24,16.3c.11.17.29.17.54,0a.4.4,0,0,0,.13-.63Q84.79,359.88,80,338.41L74.92,320.8q4-2.12,10.58-6.44,4.91-3.24,14.58-10.53a4.39,4.39,0,0,1,1.71,1.77c.94,1.43,1.25,2.25.91,2.48l-.25.17a12.3,12.3,0,0,0-4.84,6.09q-1,2.64,2.86,7.89,7.91,10.89,36.12,50.88a39.9,39.9,0,0,0,9.67,10.26q1.25.8,4.9-.25a20.33,20.33,0,0,0,4.91-1.88q.5-.33,2,1.94a7.26,7.26,0,0,1,1,2.06q-15.62,9.23-16,9.48-2.52,1.67-5.21,3.62t-5.9,4.35l-5.15,3.85A3.21,3.21,0,0,1,125,405q-1.5-2.27-1-2.6a17.83,17.83,0,0,0,3.49-3.48,9.45,9.45,0,0,0,2.32-4.16,8.45,8.45,0,0,0-1.65-5.24l-4.66-7.06L97,344.94q-5.66-7.48-6.67-6.81-.38.25-.13,1.17l14.7,74.61q1,6.21-1.63,8a5,5,0,0,1-1.43.58l-73-49.16q19.83,32,35.09,57.53a16.67,16.67,0,0,0,3,3.66q1.55,1,6.79-.68a32.66,32.66,0,0,0,6.75-2.65q.5-.33,2,1.94a7.26,7.26,0,0,1,1,2.06q-15.62,9.23-16.38,9.73-3.4,2.25-8.76,6.33T51.7,456.1q-.84-.17-1.83-1.68-1.42-2.14-.91-2.48a30.23,30.23,0,0,0,5.47-5.42q3.45-4.09,2.75-6.52-.36-3-4.19-9.36-6.07-9.74-14.24-23.08L24.81,384.82q-5.76-9.4-7.26-11.68a14.45,14.45,0,0,0-2.71-3.28q-1-.76-5.47.9a34.2,34.2,0,0,0-6.06,2.74q-.51.33-1.92-1.81a3.21,3.21,0,0,1-.74-2.22l6.78-3.84Q12.24,362.9,15.52,360.74Z"/><path class="cls-1" d="M193.4,301.56l16.47,25q4,6,6.83,8.16a3.13,3.13,0,0,0,2.12.05,11.73,11.73,0,0,0,2.54-1,22.58,22.58,0,0,0,2.16-1.25c.63-.42,1-.61,1.15-.58q.59-.2,1.25.8a11.52,11.52,0,0,1,.87,1.87c.36.91.37,1.48,0,1.7a34.74,34.74,0,0,0-4.18,3.39q-2.42,2.23-4.65,4.33t-4.16,4.11q-1.94,2-4.37,4.34-.88.58-2.21-1.43l-3.66-5.54c-.36-.36-.63-.49-.79-.38a33.67,33.67,0,0,1-3.94,10.75,25.28,25.28,0,0,1-8.29,9.09,15.82,15.82,0,0,1-8.91,2.81,18.21,18.21,0,0,1-8.7-2.22,32.43,32.43,0,0,1-7.47-5.56,46.14,46.14,0,0,1-6.06-7.4l-9.32-14.11q-3.91-5.92-7.34-6.73a8.38,8.38,0,0,0-4.15,0,15.88,15.88,0,0,0-3.52,1.24q-1.34.71-1.51.45-2.41-3.65-1.87-4.2a113.66,113.66,0,0,0,9.34-8.33,118.29,118.29,0,0,0,8.46-8.84,2.47,2.47,0,0,0,.42-.46,2.5,2.5,0,0,1,.42-.46q.63-.42,1.53.26a5.38,5.38,0,0,1,1.23,1.18q4.52,9.32,6.19,11.84l10,15.12q6.49,9.83,12.09,12.28t11.78-1.62a11.86,11.86,0,0,0,5.18-6.95q1.15-4.29-.35-6.56l-13.73-20.79q-3.91-5.92-7.34-6.73a7.27,7.27,0,0,0-4.08,0,17,17,0,0,0-3.59,1.28q-1.34.71-1.51.45-2.41-3.65-1.74-4.28a115.67,115.67,0,0,0,9.21-8.25,118.65,118.65,0,0,0,8.46-8.84,8.88,8.88,0,0,0,.84-.92c.42-.28,1-.2,1.59.22a2.79,2.79,0,0,1,1.17,1.22Q191.9,299.3,193.4,301.56Z"/><path class="cls-1" d="M226.38,260.25a36.48,36.48,0,0,1,13.37-5.66q6.68-1.24,10.7-.1a18.69,18.69,0,0,1,3.25,8.08,5.57,5.57,0,0,1-2.48,5.71,6.76,6.76,0,0,1-4.68,1.28,17.14,17.14,0,0,1-5.71-2.2q-6.73-3.88-12.27-.22t-5,11.18q.4,7.6,5.9,15.92,7.49,11.34,15.77,13.74a17.82,17.82,0,0,0,15.46-2.34,41.08,41.08,0,0,0,3.53-2.6,22.4,22.4,0,0,0,2.86-2.79q1.22-1.44,2.11-2.57a13,13,0,0,0,1.58-2.67l1-2.19q.3-.64,1.4-3.36a2.48,2.48,0,0,1,1.13.34,2.93,2.93,0,0,1,1.21,1,4.64,4.64,0,0,1,.82,2.89q.36,4.65-2.94,11.71A27.74,27.74,0,0,1,263.27,317a30.55,30.55,0,0,1-24.5,4.41,33.33,33.33,0,0,1-21.1-14.84,34.34,34.34,0,0,1-5.54-24.84Q214.15,268.32,226.38,260.25Z"/><path class="cls-1" d="M295.31,214.74q16.13-10.65,32.52,14.18l8.57,13q5.08,7.69,8.5,10.68.71.8,4.55-.38a23.19,23.19,0,0,0,5-1.93c.25-.17.8.35,1.65,1.54a15.86,15.86,0,0,1,1.56,2.5q-1,.46-7.07,3.95t-8.88,5.32q-3.15,2.08-8.26,6t-6.28,4.87a5.63,5.63,0,0,1-2-2.14q-1.25-1.89-.87-2.14a18,18,0,0,0,3.72-3.81q2.21-2.82,2-3.95a57.22,57.22,0,0,0-5.32-9.7l-8.15-12.35q-6.9-10.46-12.36-12.56t-11.63,2a14.47,14.47,0,0,0-5.52,6.72q-1.73,4.22,0,6.87L301.37,265q5.07,7.69,8.5,10.68.83.72,4.54-.38a21.34,21.34,0,0,0,4.85-1.84q.38-.25,1.65,1.54a8.54,8.54,0,0,1,1.43,2.58q-1.09.54-6.95,3.86t-8.76,5.24q-3,2-8.51,6.16t-6.41,5q-.84-.17-2.08-2.06t-.74-2.22a21.08,21.08,0,0,0,4-4q2.46-3,2.13-4a48.54,48.54,0,0,0-5.11-9.66l-34.61-52.42a59.65,59.65,0,0,0-6.29-8.15q-2-1.6-7.88,2.31l-1.13.75q-.76.5-2.09-1.52t-.58-2.52q3.66-3,6.77-5.92t5-5.13q1.91-2.17,3.2-3.92t2.76-3.63l.25-.17a1.63,1.63,0,0,1,1.46,0,4.16,4.16,0,0,1,1.5.91,48.67,48.67,0,0,0,6.31,12.84l16.81,25.46q.5.76,1,.42c.08-.05.17-.29.25-.71a28.74,28.74,0,0,1,4.13-10.6A27.82,27.82,0,0,1,295.31,214.74Z"/><path class="cls-1" d="M354.5,136.94q.63-.42,11.85-8.91,3.46,2.78,13.78,9.63t25.2,16.66q14.89,9.81,24.24,16.3c.11.17.29.17.54,0a.4.4,0,0,0,.13-.63q-6.47-33.91-11.23-55.37L413.9,97q4-2.12,10.58-6.44,4.91-3.25,14.58-10.53a4.39,4.39,0,0,1,1.71,1.77c.94,1.43,1.24,2.25.91,2.47l-.25.17a12.29,12.29,0,0,0-4.84,6.09q-1,2.64,2.85,7.89,7.91,10.89,36.13,50.88a39.89,39.89,0,0,0,9.67,10.26q1.25.8,4.9-.25a20.3,20.3,0,0,0,4.91-1.88q.5-.33,2,1.94a7.3,7.3,0,0,1,1,2.06q-15.62,9.23-16,9.48-2.52,1.67-5.21,3.62t-5.9,4.35l-5.15,3.85a3.21,3.21,0,0,1-1.75-1.56q-1.5-2.27-1-2.6a17.85,17.85,0,0,0,3.49-3.48,9.47,9.47,0,0,0,2.32-4.16,8.46,8.46,0,0,0-1.65-5.24l-4.66-7.06L436,121.14q-5.66-7.48-6.67-6.81-.38.25-.13,1.17l14.7,74.61q1,6.21-1.63,7.95a5,5,0,0,1-1.43.58l-73-49.16q19.83,32,35.09,57.53a16.67,16.67,0,0,0,3,3.66q1.55,1,6.79-.68a32.65,32.65,0,0,0,6.75-2.65q.5-.33,2,1.94a7.27,7.27,0,0,1,1,2.06q-15.62,9.23-16.38,9.73-3.4,2.25-8.76,6.33t-6.62,4.91q-.84-.17-1.83-1.68-1.42-2.14-.91-2.48a30.23,30.23,0,0,0,5.47-5.42q3.45-4.09,2.75-6.52-.36-3-4.19-9.36-6.07-9.74-14.24-23.08L363.79,161q-5.76-9.4-7.26-11.68a14.42,14.42,0,0,0-2.71-3.28q-1-.76-5.47.9a34.2,34.2,0,0,0-6.06,2.74q-.5.33-1.92-1.81a3.21,3.21,0,0,1-.74-2.22l6.78-3.84Q351.22,139.1,354.5,136.94Z"/><path class="cls-1" d="M496.8,81.71a33.29,33.29,0,0,1,25.67-5.1A32.37,32.37,0,0,1,544,91.05a33.9,33.9,0,0,1-9.76,47.16,33.08,33.08,0,0,1-25.78,5.08,34,34,0,0,1-26.52-40A33.09,33.09,0,0,1,496.8,81.71Zm2.27,7q-5.93,3.91-5.41,11.81a32.47,32.47,0,0,0,5.75,15.84q6.74,10.21,15.83,15.06t16.4,0q5.92-3.91,5.43-11.91a32.11,32.11,0,0,0-5.65-15.81,51.84,51.84,0,0,0-9.67-11.08,26.64,26.64,0,0,0-11.49-5.89A14,14,0,0,0,499.08,88.71Z"/><path class="cls-1" d="M569.14,34q6.93-4.57,13.08-2.66,7.07,10.71,1,14.7-2.27,1.5-6.58.72a9.46,9.46,0,0,0-7.08,1.06q-3.91,2.58-3.49,8a20.1,20.1,0,0,0,3.24,9.71l10.4,15.75Q584.8,88.93,588.1,92q.83.72,4.55-.38a21.39,21.39,0,0,0,4.85-1.84c.25-.17.8.35,1.65,1.54a15.78,15.78,0,0,1,1.56,2.5q-1.09.54-7,3.91T584.87,103q-3,2-8.51,6.16t-6.41,5q-.84-.17-2.09-2.06t-.74-2.22a21.11,21.11,0,0,0,4-4q2.46-3,2.13-4A49.35,49.35,0,0,0,568,92L554.48,71.5q-3.91-5.92-7.34-6.73a7.27,7.27,0,0,0-4.08,0A17.24,17.24,0,0,0,539.53,66q-1.28.67-1.45.41-2.41-3.65-1.87-4.2Q541.68,57.87,554,45a9.16,9.16,0,0,1,.84-.92c.33-.22.82-.12,1.46.3a3.64,3.64,0,0,1,1.27,1.24l1,1.89q.67,1.28,1.35,2.73a19.44,19.44,0,0,0,.93,1.83A27.7,27.7,0,0,1,563,41.9,16.53,16.53,0,0,1,569.14,34Z"/><path class="cls-1" d="M612.23,5.5A28,28,0,0,1,624.36.84a23.91,23.91,0,0,1,11.22,1.1,35.15,35.15,0,0,1,8.94,4.77,26.06,26.06,0,0,1,6.25,6.46q1.83,2.77,1.34,4.09t-3.38,3.23L618.61,40.37q-.88.58-.38,1.34a29.34,29.34,0,0,0,7.46,7.74,20.76,20.76,0,0,0,10.52,3.73,17.77,17.77,0,0,0,11.59-3.13,41.2,41.2,0,0,0,3.53-2.6,22.46,22.46,0,0,0,2.86-2.79q1.22-1.44,2.11-2.57a13,13,0,0,0,1.58-2.67l1-2.19q.3-.64,1.4-3.37a2.49,2.49,0,0,1,1.13.34,2.92,2.92,0,0,1,1.21,1,4.65,4.65,0,0,1,.83,2.89q.36,4.65-2.94,11.71a28,28,0,0,1-10.23,11.64A30.58,30.58,0,0,1,626,65.81a32.57,32.57,0,0,1-21-14.48q-8.4-12.73-6.27-25.53T612.23,5.5Zm2.95,6.38a10.68,10.68,0,0,0-4.25,5.34,14.24,14.24,0,0,0-.83,6.7,28.89,28.89,0,0,0,1.29,5.93,18.48,18.48,0,0,0,1.89,4.09q.58.88,1.34.38L635,20.85q1.13-.75-.11-2.64a19.58,19.58,0,0,0-8.87-7Q620.09,8.63,615.18,11.88Z"/><path class="cls-1" d="M205.8,410.3q9.45-3.84,15.37-6.51t15.13-7.23q9.21-4.56,14.79-7.25a50.17,50.17,0,0,0,8.88-5.66l12.11,19.88q-.53,1.4-3.28,2.64-1.1.5-1.69-.07-5.34-6.7-9.72-8t-11.12,1.78q-12.8,5.77-12.3,8.36.56,4.55,4.6,13.5L261,471.49a51.47,51.47,0,0,0,6.64,11.42q.57.9,4.62.32a24,24,0,0,0,5.28-1.14q.55-.25,1.67,2.23a7.88,7.88,0,0,1,.72,2.33l-5.49,2q-3.63,1.31-6.66,2.5T262,493.56q-3.72,1.68-10.07,5t-7.8,4.18c-.53-.2-1-.85-1.54-2q-1.12-2.48-.57-2.73a24.09,24.09,0,0,0,4.73-3.29q3.08-2.54,3-3.83-.58-4.21-4-11.92l-22.47-49.83q-5.15-11.42-7.26-12.79-2.16-1.84-14.13,3.56-6.75,3-8.7,7.15t-.67,12.48q.23.89-1,1.45-2.62,1.18-4.08.51l-6.82-22.1a50.15,50.15,0,0,0,10.12-2.91Q196.36,414.15,205.8,410.3Z"/><path class="cls-1" d="M329,390.61q17.62-7.94,29.85,19.17L365.26,424q3.79,8.4,6.69,11.89.57.9,4.55.35a23.12,23.12,0,0,0,5.21-1.11q.41-.19,1.38,1.78a15.77,15.77,0,0,1,1.14,2.72q-1,.3-7.61,2.77T367,446.2q-3.44,1.55-9.11,4.6t-7,3.81a5.63,5.63,0,0,1-1.59-2.43q-.93-2.06-.52-2.25a18,18,0,0,0,4.28-3.17q2.63-2.43,2.61-3.58A57.14,57.14,0,0,0,352,432.76l-6.08-13.49q-5.15-11.43-10.2-14.37t-11.8.1a14.45,14.45,0,0,0-6.52,5.75q-2.39,3.89-1.08,6.78L327,441.22q3.79,8.4,6.69,11.89.71.84,4.55.35a21.35,21.35,0,0,0,5.08-1q.41-.19,1.38,1.78a8.59,8.59,0,0,1,1,2.78q-1.17.36-7.48,2.71t-9.48,3.78q-3.3,1.49-9.38,4.73t-7.12,3.87q-.8-.3-1.73-2.37t-.38-2.31a21.08,21.08,0,0,0,4.56-3.3q2.91-2.55,2.75-3.64a48.6,48.6,0,0,0-3.5-10.35l-25.82-57.27a59.61,59.61,0,0,0-4.91-9.05q-1.68-1.89-8.15,1l-1.24.56q-.82.37-1.82-1.83t-.17-2.57q4.08-2.34,7.63-4.76t5.78-4.26q2.24-1.83,3.79-3.36t3.3-3.15l.28-.12a1.63,1.63,0,0,1,1.44.26,4.17,4.17,0,0,1,1.34,1.14,48.66,48.66,0,0,0,4.18,13.68l12.54,27.81q.37.83.92.58c.09,0,.21-.26.36-.66a28.75,28.75,0,0,1,5.77-9.8A27.82,27.82,0,0,1,329,390.61Z"/><path class="cls-1" d="M392.48,362q8.53-3.85,14.82-1.3t11.19,13.43l12.23,27.12a6.89,6.89,0,0,0,3.13,3.64,4.53,4.53,0,0,0,4,0,9.42,9.42,0,0,0,3.87-3.9q1-.1,1.51,1.14a9,9,0,0,1,1,4.5,37.41,37.41,0,0,1-4,5.92,15.73,15.73,0,0,1-5.8,4.77,11,11,0,0,1-7.25.45,12.39,12.39,0,0,1-6.29-3.29q-.07.2-.63,1.36t-1.64,3a44.66,44.66,0,0,1-2.59,3.82,24.11,24.11,0,0,1-3.84,4,21.93,21.93,0,0,1-5.1,3.21q-6.88,3.1-12.93,1.27t-9-8.44a13.94,13.94,0,0,1-1.21-6.91,18.05,18.05,0,0,1,1.64-6.46,31,31,0,0,1,4.27-6.32,62.29,62.29,0,0,1,5.19-5.57q2.28-2.1,5.92-5.24t5-4.43a2.38,2.38,0,0,0,.25-2.76l-3.41-7.57q-2.17-4.82-5.62-6.58a7.89,7.89,0,0,0-7.16-.08,9.16,9.16,0,0,0-5.32,5.46q-1.19,3.6.92,8.28a4.89,4.89,0,0,1-.23,5,9.38,9.38,0,0,1-4.09,3.42q-5.09,2.3-8.65-.08-3-6.61,3.43-16.45A37.87,37.87,0,0,1,392.48,362Zm17.64,55.65a11.71,11.71,0,0,0,5.53-4.81q1.81-3.14.7-5.62l-6.33-14q-.78.85-3.44,3.21t-4,3.79a41.53,41.53,0,0,0-3,3.67,9.11,9.11,0,0,0-1.87,4.49,8.31,8.31,0,0,0,.71,4.32q2,4.41,5.12,5.48A8.69,8.69,0,0,0,410.12,417.65Z"/><path class="cls-1" d="M470.81,326.69q17.76-8,30.48,20.21l5.9,13.08q3.79,8.4,6.55,12,.71.84,4.69.29a23.15,23.15,0,0,0,5.21-1.11q.41-.19,1.38,1.78a8.56,8.56,0,0,1,1,2.78q-.89.23-7.47,2.71t-9.75,3.9q-3.3,1.49-9,4.54T493,390.57q-.8-.3-1.73-2.37t-.38-2.31a17.94,17.94,0,0,0,4.15-3.11q2.63-2.43,2.47-3.52a43.39,43.39,0,0,0-3.43-10.55l-5.9-13.08q-5.15-11.42-10.3-14.57T466,341a14,14,0,0,0-6.62,5.88q-2.22,3.9-1,6.65l10.67,23.68q3.79,8.4,6.55,12,.71.84,4.55.35a21.73,21.73,0,0,0,4.94-1q.55-.25,1.52,1.72a8.57,8.57,0,0,1,1,2.78q-1.17.36-7.47,2.71t-9.48,3.78q-3.3,1.49-9.38,4.73t-7.12,3.87q-.8-.3-1.73-2.37t-.38-2.31a21.09,21.09,0,0,0,4.56-3.3q2.91-2.55,2.75-3.64A49.29,49.29,0,0,0,455.79,386l-10.12-22.44q-2.92-6.47-6.17-7.82a7.27,7.27,0,0,0-4-.67,17.21,17.21,0,0,0-3.68.66c-.91.3-1.41.36-1.49.18q-1.8-4-1.17-4.44,6.08-3.4,20.3-14.12a1,1,0,0,1,.25-.36,1.42,1.42,0,0,1,.38-.26l.34-.16c.37-.16.83,0,1.4.53a4.59,4.59,0,0,1,1.09,1.33,52,52,0,0,0,1.68,5.2c.17.37.32.58.45.63a2.25,2.25,0,0,0,.5-.72,33.44,33.44,0,0,1,5.86-9.6A26.43,26.43,0,0,1,470.81,326.69Z"/><path class="cls-1" d="M571.54,245.16,633,304.26q4.55,4.58,8.66,8.19,1.76,1.69,5.89,1.32a20.06,20.06,0,0,0,5.79-1.12q.55-.25,1.67,2.23a5.08,5.08,0,0,1,.66,2.19q-16.89,6.62-17.72,7T620.39,333q-.8-.3-1.7-2.3t-.35-2.24a19.45,19.45,0,0,0,4.17-2.87q2.52-2.13,2.57-3.48a4.32,4.32,0,0,0-.39-2q-1.24-2.75-6.9-8.32L607.2,301.14A1.66,1.66,0,0,0,606,301q-4.53,1.71-12,5.06t-15.51,7.49c-.55.25-.74.56-.58.92l.54,15.16q.61,8.34,1.42,10.13a3.37,3.37,0,0,0,2.76,2.07,15.13,15.13,0,0,0,5-.44,26.07,26.07,0,0,0,4.51-1.2q.48,0,1.28,1.74a9.86,9.86,0,0,1,.9,2.74q-.69.31-6.66,2.5T578.17,351q-3.58,1.61-8.31,4.16l-6.73,3.62a3.21,3.21,0,0,1-1.48-1.82q-1.12-2.48-.84-2.6a21.83,21.83,0,0,0,4.77-3.56Q568.69,348,569,346a71.77,71.77,0,0,0,.39-13.1L567,259.45q-.56-9.69.62-12.21a3.85,3.85,0,0,1,1.91-2A2.48,2.48,0,0,1,571.54,245.16Zm6.57,58.66q5-1.76,10.1-4.06,4.82-2.17,11.1-5.5l0-.67-22.87-22.81,1.12,32.62C577.75,303.76,577.92,303.9,578.1,303.82Z"/><path class="cls-1" d="M679,147.78l23,12.33q21.7,11.62,27,30.92a47.84,47.84,0,0,1-3.93,36.61q-10.26,19.17-29.53,25.56T654.75,248q-2.8-1.5-10.84-6.15t-11.64-6.57l-18-8.95q-.19-.61.74-2.34,1.21-2.26,1.61-2a24.94,24.94,0,0,0,5.52,1.84q3.79.92,5,0,2.43-2.3,7.42-11.62l26.94-50.32q4.28-8,4.91-11.41.38-1.68-2.44-4.39a23.8,23.8,0,0,0-4.83-3.78q-.53-.29.54-2.28t1.81-2.11Q670.05,143,679,147.78Zm-1.8,21-27.94,52.18q-4,7.46-3.81,10.64,1,3.27,15.1,10.83,27,14.47,47.83-24.4,8-14.91,6.29-29.18T699.5,167.34l-.67-.36q-12.78-6.84-15.52-5.57Q680.3,162.88,677.17,168.74Z"/><path class="cls-1" d="M769.94,233.48a33.29,33.29,0,0,1,16.7,20.16,32.36,32.36,0,0,1-2.44,25.84,34.2,34.2,0,0,1-60.3-32.29,32.53,32.53,0,0,1,20.05-16.5A33.09,33.09,0,0,1,769.94,233.48Zm-5.08,5.33q-6.26-3.35-13,.85a32.48,32.48,0,0,0-11.19,12.59Q734.93,263,735,273.34t7.77,14.44q6.26,3.35,13.06-.88A32.11,32.11,0,0,0,767,274.41a51.8,51.8,0,0,0,5.15-13.77,26.62,26.62,0,0,0-.28-12.91A14,14,0,0,0,764.86,238.81Z"/><path class="cls-1" d="M836,268.83a36.46,36.46,0,0,1,11.33,9.07q4.27,5.29,5.18,9.37a18.67,18.67,0,0,1-5.56,6.7,5.57,5.57,0,0,1-6.2.54,6.76,6.76,0,0,1-3.35-3.5,17.15,17.15,0,0,1-.78-6.07q.21-7.76-5.64-10.9t-12.22.91q-6.49,4-11.2,12.76-6.41,12-4.59,20.41a17.82,17.82,0,0,0,9.41,12.49,41.24,41.24,0,0,0,4,1.87,22.41,22.41,0,0,0,3.82,1.19q1.85.39,3.26.63a13,13,0,0,0,3.1.12l2.4-.17q.71,0,3.62-.37a2.49,2.49,0,0,1,.24,1.15,2.92,2.92,0,0,1-.31,1.54,4.64,4.64,0,0,1-2.15,2.1q-3.92,2.53-11.7,3a27.73,27.73,0,0,1-15-3.39,30.55,30.55,0,0,1-15.53-19.45,33.33,33.33,0,0,1,3-25.62,34.33,34.33,0,0,1,19.21-16.69Q823.05,261.92,836,268.83Z"/><path class="cls-1" d="M915.73,330,901.62,356.4q-3.42,6.39-3.92,9.89a3.14,3.14,0,0,0,1,1.88,11.78,11.78,0,0,0,2,1.78,22.58,22.58,0,0,0,2.13,1.31c.67.36,1,.6,1.06.74q.46.42-.11,1.48a11.62,11.62,0,0,1-1.23,1.65c-.63.75-1.12,1-1.48.84a34.71,34.71,0,0,0-5-2.06q-3.11-1.06-6-2t-5.59-1.71q-2.68-.75-5.9-1.79-.93-.5.21-2.63l3.14-5.86q.22-.74,0-.88a33.69,33.69,0,0,1-11.33,1.64,25.28,25.28,0,0,1-11.94-3,15.82,15.82,0,0,1-6.71-6.5,18.23,18.23,0,0,1-2.19-8.71,32.49,32.49,0,0,1,1.34-9.22,46.12,46.12,0,0,1,3.63-8.85l8-14.91q3.35-6.26,2.43-9.66a8.38,8.38,0,0,0-2-3.64,15.85,15.85,0,0,0-2.77-2.51q-1.26-.85-1.12-1.11,2.07-3.86,2.8-3.64a113.71,113.71,0,0,0,11.77,4.25,118.4,118.4,0,0,0,11.8,3.23,2.43,2.43,0,0,0,.6.15,2.53,2.53,0,0,1,.6.15c.44.24.61.73.5,1.47a5.37,5.37,0,0,1-.45,1.64q-6,8.41-7.47,11.07l-8.55,16q-5.56,10.38-5.05,16.48t7,9.59a11.86,11.86,0,0,0,8.58,1.25q4.32-1,5.6-3.42l11.76-22q3.35-6.26,2.43-9.66a7.27,7.27,0,0,0-1.93-3.6,17.1,17.1,0,0,0-2.83-2.54q-1.26-.84-1.12-1.11,2.07-3.86,2.94-3.57a115.72,115.72,0,0,0,11.64,4.18,118.48,118.48,0,0,0,11.8,3.23,8.73,8.73,0,0,0,1.21.3c.44.24.63.74.57,1.5a2.79,2.79,0,0,1-.52,1.61Q917,327.64,915.73,330Z"/><path class="cls-1" d="M982.66,347.38a16.32,16.32,0,0,1,7.26,7.23,17.66,17.66,0,0,1,1.73,9.57,35.58,35.58,0,0,1,13.28-1.45,33.92,33.92,0,0,1,13.94,4,17.13,17.13,0,0,1,7,6.51,16.66,16.66,0,0,1,2.15,8.77,35.49,35.49,0,0,1-1.62,9.75,57.49,57.49,0,0,1-4.3,10.11l-7.48,14q-4.35,8.12-5.48,12.48-.23,1.08,2.56,3.85a22.23,22.23,0,0,0,4,3.42q.4.21-.57,2.18a8.54,8.54,0,0,1-1.59,2.49q-.86-.63-6.7-4.27t-8.9-5.28q-3.19-1.71-9.33-4.48T981.23,423a5.65,5.65,0,0,1,1-2.74q1.07-2,1.47-1.78A20.26,20.26,0,0,0,989,420q3.73.71,4.49-.08a46.94,46.94,0,0,0,5.92-8.82l7.27-13.58q10.33-19.3-2-25.93a13.75,13.75,0,0,0-8.46-1.79q-4.07.56-5.67,2.27c-.14.27-.36.61-.64,1a2.91,2.91,0,0,0-.5,1.1,73.82,73.82,0,0,1-4,8.47l-7.56,14.11a59.43,59.43,0,0,0-5.2,11.95q-.23,1.08,2.56,3.85a22.19,22.19,0,0,0,4,3.42q.4.21-.57,2.18a8.54,8.54,0,0,1-1.59,2.49q-.86-.63-6.7-4.27t-8.91-5.28q-3.19-1.71-9.33-4.48t-7.41-3.28a5.64,5.64,0,0,1,1-2.74q1.07-2,1.47-1.78a20.27,20.27,0,0,0,5.33,1.57q3.73.71,4.49-.08a49.38,49.38,0,0,0,6.14-9.22l6.84-12.78q5.56-10.38,5-16.68t-6.56-9.51a14.46,14.46,0,0,0-8.53-1.66q-4.54.48-6,3.28l-12.26,22.9q-4.35,8.12-5.35,12.55-.23,1.07,2.43,3.78a20.5,20.5,0,0,0,3.86,3.35q.53.28-.43,2.25a8.59,8.59,0,0,1-1.59,2.49q-1-.71-6.7-4.27t-8.77-5.21q-3.33-1.78-9.53-4.59T908,383.8q-.25-.82.82-2.81t1.6-1.71a21.88,21.88,0,0,0,5.33,1.57q3.86.78,4.63,0a49.4,49.4,0,0,0,6.14-9.22l11.62-21.7q3.35-6.26,2.43-9.66a7.28,7.28,0,0,0-1.93-3.6,17,17,0,0,0-2.83-2.55q-1.26-.84-1.12-1.11,2.07-3.86,2.94-3.57,6.41,2.75,23.44,7.41a1,1,0,0,1,.51,0,3.18,3.18,0,0,1,.7.29c.44.24.63.74.57,1.5a2.79,2.79,0,0,1-.52,1.61,51.49,51.49,0,0,0-3.1,4.51c-.19.36-.22.63-.09.81a2.25,2.25,0,0,0,.88,0,33.44,33.44,0,0,1,11.18-1.21A26.44,26.44,0,0,1,982.66,347.38Z"/><path class="cls-1" d="M1078.78,398.84a28,28,0,0,1,9.86,8.45,23.92,23.92,0,0,1,4.37,10.39,35.18,35.18,0,0,1,.05,10.14,26.07,26.07,0,0,1-2.71,8.57q-1.57,2.93-3,3.13t-4.45-1.44l-31.82-17q-.93-.5-1.36.3a29.31,29.31,0,0,0-3.26,10.24,20.77,20.77,0,0,0,1.72,11,17.77,17.77,0,0,0,8.27,8.71,41.22,41.22,0,0,0,4,1.87,22.47,22.47,0,0,0,3.82,1.19q1.85.39,3.26.63a13,13,0,0,0,3.1.12l2.4-.17q.71,0,3.62-.37a2.47,2.47,0,0,1,.24,1.15,2.92,2.92,0,0,1-.31,1.54,4.64,4.64,0,0,1-2.15,2.1q-3.92,2.53-11.7,3a28,28,0,0,1-15.1-3.46,30.58,30.58,0,0,1-15.37-19.28A32.57,32.57,0,0,1,1035,414.3q7.2-13.44,19.48-17.66T1078.78,398.84Zm-4.21,5.62a10.68,10.68,0,0,0-6.72-1.2,14.23,14.23,0,0,0-6.28,2.46,28.83,28.83,0,0,0-4.6,4,18.53,18.53,0,0,0-2.7,3.61q-.5.93.3,1.36l21.57,11.55q1.2.64,2.27-1.36a19.58,19.58,0,0,0,1.93-11.13Q1079.76,407.24,1074.57,404.46Z"/><path class="cls-1" d="M1153.06,438.61q17.17,9.19,2.56,36.48l-6.77,12.65q-4.35,8.12-5.48,12.48-.24,1.07,2.63,3.89a23.11,23.11,0,0,0,4.06,3.46c.27.14.08.87-.57,2.18a8.55,8.55,0,0,1-1.59,2.49q-.73-.56-6.7-4.27t-9-5.35q-3.19-1.71-9.07-4.34t-7.14-3.14q-.25-.82.82-2.81t1.6-1.71a18,18,0,0,0,5,1.39q3.53.6,4.29-.18a43.41,43.41,0,0,0,6.27-9.15L1140.7,470q5.92-11,5.27-17t-7.17-9.49a14,14,0,0,0-8.7-1.66q-4.44.62-5.87,3.28L1112,468q-4.35,8.12-5.48,12.48-.23,1.07,2.49,3.82a21.72,21.72,0,0,0,3.79,3.31q.53.28-.43,2.25a8.56,8.56,0,0,1-1.59,2.49q-1-.71-6.7-4.27t-8.77-5.21q-3.19-1.71-9.47-4.55T1078.4,475q-.25-.82.82-2.81t1.6-1.71a21.06,21.06,0,0,0,5.39,1.6q3.8.75,4.56,0a49.39,49.39,0,0,0,6.13-9.22l11.62-21.7q3.35-6.26,2.43-9.66a7.28,7.28,0,0,0-1.93-3.6,17.31,17.31,0,0,0-2.77-2.51c-.8-.54-1.15-.9-1.05-1.08q2.07-3.86,2.8-3.64,6.41,2.75,23.57,7.48a1,1,0,0,1,.44,0,1.47,1.47,0,0,1,.43.15l.33.18c.35.19.5.67.43,1.43a4.58,4.58,0,0,1-.38,1.68,51.86,51.86,0,0,0-3.1,4.51,1.18,1.18,0,0,0-.22.74,2.22,2.22,0,0,0,.88,0,33.49,33.49,0,0,1,11.18-1.21A26.42,26.42,0,0,1,1153.06,438.61Z"/><path class="cls-1" d="M1190,470.38l-8.12-4.35q-.93-.5.92-4a3.75,3.75,0,0,1,.77-1.13,42.26,42.26,0,0,0,14-1.57q2.66-.8,5.9-1.9t7.89-3.06a10.75,10.75,0,0,1,2.35,1.69q1,1,.8,1.37l-7,13q3.46,1.85,9.62,5.23l6.55,3.6q1.06.57.42,1.77a14.66,14.66,0,0,1-4.47,5.14l-16-8.55-17.18,32.08q-2.85,5.33-2.08,9.33a8.63,8.63,0,0,0,4.76,6.14,14.26,14.26,0,0,0,3,1.16,15.89,15.89,0,0,0,2.79.55c.76.07,1.48.11,2.16.13a4.73,4.73,0,0,1,1.14.1q.6.15.56,1.84a3.54,3.54,0,0,1-.4,2q-1.8,1.44-8,1.3a23.82,23.82,0,0,1-10.84-2.63,19,19,0,0,1-9.39-10.77q-2.47-7.06,2.52-16.38Z"/></svg>