<svg id="Layer_1" data-name="Layer 1" xmlns="http://www.w3.org/2000/svg" viewBox="0 0 368.04 66.18"><defs><style>.cls-1{fill:#1928eb;}</style></defs><title>part-1</title><path class="cls-1" d="M6.92.71q2.3.18,3.77.24t3.8.07l3.73,0A11.38,11.38,0,0,0,20.59.82L21,6.08a1.32,1.32,0,0,1-.93.2c-.18,0-.29-.07-.33-.18a4.92,4.92,0,0,0-1.16-2.6,3.76,3.76,0,0,0-2.43-.77q-3.18-.13-3.34.44a12,12,0,0,0-.44,3.2l-.51,12.34a11.69,11.69,0,0,0,.18,3q0,.24.9.53a5.42,5.42,0,0,0,1.19.31q.14,0,.11.62a1.77,1.77,0,0,1-.09.54l-1.31-.16-1.6-.17c-.49,0-1-.07-1.42-.09q-.92,0-2.55,0l-2,.05a.79.79,0,0,1-.11-.55c0-.41.07-.61.16-.61A5.45,5.45,0,0,0,6.62,22q.88-.2,1-.47A10.8,10.8,0,0,0,8,18.69L8.51,6.31A9.39,9.39,0,0,0,8.34,3q-.25-.59-3.22-.72a3.77,3.77,0,0,0-2.49.56,5.07,5.07,0,0,0-1.4,2.46c0,.14-.15.2-.35.19A1.15,1.15,0,0,1,0,5.17L.87,0A11.35,11.35,0,0,0,3.21.44Z"/><path class="cls-1" d="M34.23,9.26q4.38.18,4.1,6.92l-.15,3.52a12.57,12.57,0,0,0,.15,3.09q0,.24.89.53a5.24,5.24,0,0,0,1.17.31c.07,0,.1.17.1.5a3.57,3.57,0,0,1,0,.67c-.16,0-.77-.1-1.82-.21s-1.84-.18-2.34-.2-1.34,0-2.31,0l-1.8.06a1.29,1.29,0,0,1-.08-.65q0-.51.12-.51a4.09,4.09,0,0,0,1.19-.21q.78-.22.89-.46a13,13,0,0,0,.31-2.49l.14-3.35a7.14,7.14,0,0,0-.61-3.95,2.8,2.8,0,0,0-2.4-1.18,3.28,3.28,0,0,0-1.9.5,1.61,1.61,0,0,0-.91,1.26l-.24,5.88a12.57,12.57,0,0,0,.15,3.09q.06.24.89.53a4.81,4.81,0,0,0,1.13.3c.07,0,.1.17.1.5a1.93,1.93,0,0,1-.08.66l-1.79-.21q-1.52-.17-2.3-.2t-2.38,0l-1.83.06a1,1,0,0,1-.11-.65q0-.51.16-.51a4.73,4.73,0,0,0,1.26-.2q.85-.22.93-.46a11,11,0,0,0,.34-2.45l.59-14.22a13.51,13.51,0,0,0-.08-2.33q-.15-.55-1.75-.62h-.31c-.14,0-.2-.19-.18-.56s.09-.54.23-.54q1.06-.06,2-.19T27.25,1c.43-.1.8-.19,1.11-.3l1-.3h.07c.09,0,.18.07.27.2a1,1,0,0,1,.16.37,11,11,0,0,0-.54,3.2L29,11.1q0,.2.13.21s.07,0,.14-.1a6.51,6.51,0,0,1,2.16-1.4A6.31,6.31,0,0,1,34.23,9.26Z"/><path class="cls-1" d="M50.17,9.92a6.35,6.35,0,0,1,2.85.75,5.42,5.42,0,0,1,1.92,1.69,8,8,0,0,1,1,2.06,5.9,5.9,0,0,1,.29,2q0,.75-.29.93a2,2,0,0,1-1.05.14l-8.17-.34c-.16,0-.24.06-.25.2a6.66,6.66,0,0,0,.35,2.41,4.7,4.7,0,0,0,1.44,2.08,4,4,0,0,0,2.55,1,9.3,9.3,0,0,0,1,0,5.05,5.05,0,0,0,.9-.13l.73-.19a2.93,2.93,0,0,0,.64-.28l.47-.27.7-.43a.57.57,0,0,1,.16.21.67.67,0,0,1,.09.35,1,1,0,0,1-.23.64,5.58,5.58,0,0,1-2.09,1.76,6.35,6.35,0,0,1-3.42.78,6.93,6.93,0,0,1-5-2.42,7.38,7.38,0,0,1-1.93-5.44A7.92,7.92,0,0,1,45,11.86,6.64,6.64,0,0,1,50.17,9.92Zm-.31,1.56a2.42,2.42,0,0,0-1.49.42,3.23,3.23,0,0,0-1,1.12,6.66,6.66,0,0,0-.55,1.26,4.2,4.2,0,0,0-.2,1c0,.16.06.24.2.25l5.54.23q.31,0,.33-.5a4.44,4.44,0,0,0-.7-2.46A2.45,2.45,0,0,0,49.86,11.48Z"/><path class="cls-1" d="M71.38,3.47l3.36-.07Q75,4.37,76,7t2.42,6.4q1.44,3.78,2.29,6.21s0,.07.1.07a.09.09,0,0,0,.11-.1q3.31-7.09,5.28-11.67L87.59,4q1,.15,2.8.22,1.33.06,4.08,0a1,1,0,0,1,.08.55c0,.39-.07.58-.16.58h-.07a2.78,2.78,0,0,0-1.7.48q-.53.36-.52,1.83,0,3-.11,14.14A9.05,9.05,0,0,0,92.41,25q.12.31.93.6a4.59,4.59,0,0,0,1.15.3q.13,0,.11.62a1.66,1.66,0,0,1-.09.51l-4.2-.38c-.46,0-.94,0-1.44,0l-1.66,0-1.46,0a.72.72,0,0,1-.12-.52q0-.62.16-.61a4,4,0,0,0,1.1-.18,2.13,2.13,0,0,0,1-.46,1.91,1.91,0,0,0,.39-1.18l.08-1.91.09-10.41q0-2.13-.32-2.14c-.07,0-.13.06-.18.2L80.76,25.09q-.64,1.28-1.35,1.25a1.14,1.14,0,0,1-.34-.08L72.17,7.54Q71.57,16,71,22.77A3.72,3.72,0,0,0,71,23.83q.16.38,1.34.77A7.38,7.38,0,0,0,74,25q.13,0,.11.62a1.7,1.7,0,0,1-.09.51l-4.3-.38q-.92,0-2.45,0t-1.87,0a.79.79,0,0,1-.11-.55c0-.39.07-.58.16-.58a6.85,6.85,0,0,0,1.72-.27c.78-.2,1.24-.47,1.37-.83A6.36,6.36,0,0,0,69,21.28q.18-2.59.44-6.13l.46-6q.19-2.49.21-3.11a3.26,3.26,0,0,0-.06-1c-.06-.19-.44-.37-1.12-.56a7.76,7.76,0,0,0-1.48-.3q-.14,0-.11-.59a.73.73,0,0,1,.16-.51l1.76.19Q70.49,3.43,71.38,3.47Z"/><path class="cls-1" d="M104.66,12.18a4.2,4.2,0,0,1,3.13,1.24,5.47,5.47,0,0,1,.9,3.86L108.41,24a1.56,1.56,0,0,0,.26,1.06,1,1,0,0,0,.8.39,2.13,2.13,0,0,0,1.18-.4q.2.08.19.38a2,2,0,0,1-.25,1,8.47,8.47,0,0,1-1.4.8,3.56,3.56,0,0,1-1.66.38A2.5,2.5,0,0,1,106,27a2.82,2.82,0,0,1-.94-1.31l-.27.21q-.23.18-.63.44a10.11,10.11,0,0,1-.91.51,5.45,5.45,0,0,1-1.18.41,5,5,0,0,1-1.36.13A4.08,4.08,0,0,1,98,26.34a3.25,3.25,0,0,1-1-2.63,3.14,3.14,0,0,1,.46-1.52,4.09,4.09,0,0,1,1-1.14,7,7,0,0,1,1.51-.85,14,14,0,0,1,1.62-.6l1.73-.46,1.47-.38a.53.53,0,0,0,.33-.53l.08-1.88a2.94,2.94,0,0,0-.47-1.9,1.79,1.79,0,0,0-1.44-.75,2.08,2.08,0,0,0-1.63.57A2.56,2.56,0,0,0,101,16a1.11,1.11,0,0,1-.55,1,2.12,2.12,0,0,1-1.18.28,1.93,1.93,0,0,1-1.75-.89q.07-1.64,2.37-3A8.57,8.57,0,0,1,104.66,12.18Zm-2.08,13.07a2.65,2.65,0,0,0,1.61-.41,1.35,1.35,0,0,0,.71-1.07l.14-3.49q-.24.09-1,.3t-1.2.36a9.48,9.48,0,0,0-1,.44,2.08,2.08,0,0,0-.83.72,1.88,1.88,0,0,0-.3.95,2.11,2.11,0,0,0,.48,1.63A2,2,0,0,0,102.57,25.25Z"/><path class="cls-1" d="M127.48,15.42q-.7.38-2.23,1.45a24.31,24.31,0,0,0-2.82,2.28q.95,1.1,2.38,2.87t2.38,2.91a16.34,16.34,0,0,0,1.31,1.46,4.32,4.32,0,0,0,1.29.74,4.15,4.15,0,0,0,1.13.32c.09,0,.13.2.11.59a2,2,0,0,1-.05.48l-4-.34c-.43,0-.87,0-1.32,0l-1.47,0-1.29,0a.93.93,0,0,1-.11-.62c0-.32.07-.48.16-.47a2.45,2.45,0,0,0,.79-.12c.3-.09.45-.19.46-.31s0-.07,0-.07l-4.76-5.78-.42.09L118.91,23a13.92,13.92,0,0,0,.15,3.09c0,.16.34.34.9.53a5,5,0,0,0,1.19.31c.07,0,.1.17.1.5a1.9,1.9,0,0,1-.08.66q-.24,0-1.81-.21t-2.35-.2q-.82,0-2.38,0l-1.84.06a1,1,0,0,1-.11-.66c0-.34.07-.51.16-.51a4.77,4.77,0,0,0,1.26-.2q.85-.22.93-.46a11.28,11.28,0,0,0,.34-2.49L116,9.29A13.51,13.51,0,0,0,115.88,7q-.15-.55-1.75-.62h-.31c-.14,0-.2-.19-.18-.56s.09-.54.23-.54q1.06-.06,2-.19t1.6-.28q.64-.15,1.11-.3l1-.3h.07c.09,0,.18.07.27.2a.94.94,0,0,1,.16.37,11,11,0,0,0-.54,3.2l-.47,11.42a3.1,3.1,0,0,0,1-.33q.74-.62,1.61-1.29l1.26-1c.26-.19.52-.41.78-.64a3,3,0,0,0,.52-.54.81.81,0,0,0,.14-.41q0-.38-.75-.49a3.38,3.38,0,0,1-.76-.15,1.53,1.53,0,0,1-.08-.6c0-.24.06-.37.15-.39l3.32.14q.92,0,3.63,0a.54.54,0,0,1,.16.38,1.54,1.54,0,0,1,0,.51c0,.16-.1.24-.16.23A4.49,4.49,0,0,0,127.48,15.42Z"/><path class="cls-1" d="M139.67,23.91a12.57,12.57,0,0,0,.15,3.09q.06.24.9.53a5,5,0,0,0,1.15.3q.14,0,.13.5a1.94,1.94,0,0,1-.08.67q-.24,0-1.82-.21t-2.34-.2q-.85,0-2.41,0t-1.8.06a1,1,0,0,1-.11-.65q0-.51.16-.51a4.93,4.93,0,0,0,1.24-.21q.86-.22.94-.46a11.21,11.21,0,0,0,.34-2.49l.23-5.57a3.26,3.26,0,0,0-.46-2.21,1.91,1.91,0,0,0-.77-.55,3.61,3.61,0,0,0-.81-.24c-.23,0-.34-.07-.34-.12q0-1,.25-1a26.31,26.31,0,0,0,2.79-.3,26.75,26.75,0,0,0,2.73-.5l.28-.06c.11,0,.2.09.26.25a.64.64,0,0,1,.05.38,29.29,29.29,0,0,0-.4,2.93Zm-3-14.46a2.09,2.09,0,0,1-.55-1.53,2,2,0,0,1,.68-1.46,2.15,2.15,0,0,1,3,.12,2,2,0,0,1,.55,1.51,2.08,2.08,0,0,1-.68,1.48,2.11,2.11,0,0,1-3-.12Z"/><path class="cls-1" d="M155.8,14.3q4.41.18,4.12,7.19l-.13,3.25a14.35,14.35,0,0,0,.11,3.09q.06.24.92.53a5.22,5.22,0,0,0,1.17.31c.07,0,.1.17.1.5a1.93,1.93,0,0,1-.08.66q-.2,0-1.79-.21t-2.37-.2q-.82,0-2.28,0l-1.77.06a1,1,0,0,1-.11-.65c0-.34.07-.51.16-.51a4,4,0,0,0,1.16-.21c.52-.15.81-.3.86-.46a9.88,9.88,0,0,0,.38-2.48l.13-3.25a7.42,7.42,0,0,0-.6-4,2.75,2.75,0,0,0-2.4-1.23,3.16,3.16,0,0,0-1.94.52,1.64,1.64,0,0,0-.87,1.25l-.24,5.88a14.36,14.36,0,0,0,.11,3.09q.06.24.89.53a4.89,4.89,0,0,0,1.1.3c.09,0,.13.17.13.5a2,2,0,0,1-.08.66l-1.79-.21q-1.52-.17-2.3-.2T146,29l-1.83.06a1,1,0,0,1-.11-.66q0-.51.16-.51a4.77,4.77,0,0,0,1.26-.2q.85-.22.93-.46a11.22,11.22,0,0,0,.34-2.49l.23-5.57a3.25,3.25,0,0,0-.46-2.21,1.65,1.65,0,0,0-.75-.54,3.91,3.91,0,0,0-.81-.24c-.22,0-.32-.07-.32-.12q0-1,.21-1a48.5,48.5,0,0,0,5.55-.8l.09,0h.19c.09,0,.17.09.23.25a1.06,1.06,0,0,1,.09.38,11.44,11.44,0,0,0-.19,1.23.26.26,0,0,0,0,.17.5.5,0,0,0,.17-.1,7.62,7.62,0,0,1,2.16-1.35A6,6,0,0,1,155.8,14.3Z"/><path class="cls-1" d="M171.46,15a10.86,10.86,0,0,1,2.82.56,10.55,10.55,0,0,0,2.72.56l1.95.08s.12.15.22.45a2.12,2.12,0,0,1,.14.69c0,.32-.09.48-.22.47l-2.22-.09c-.09,0-.14,0-.14.1s.09.32.27.9a4.87,4.87,0,0,1,.24,1.65A5,5,0,0,1,175.39,24a5.86,5.86,0,0,1-4.29,1.45,14.08,14.08,0,0,1-2.11-.22,1.83,1.83,0,0,0-.78.6,1.45,1.45,0,0,0-.38.82.7.7,0,0,0,.3.59,2.31,2.31,0,0,0,1,.38q.68.13,1.16.19l1.37.13.51,0a12.08,12.08,0,0,1,5,1.15,2.7,2.7,0,0,1,1.49,2.58A5.38,5.38,0,0,1,176,36a9.35,9.35,0,0,1-5.86,1.64,8.88,8.88,0,0,1-4.32-1.14A3.07,3.07,0,0,1,164,33.61a2.66,2.66,0,0,1,1.05-1.87,5.66,5.66,0,0,1,2.16-1.21,3.91,3.91,0,0,1-1.6-1.11,2.49,2.49,0,0,1-.68-1.83q.06-1.47,2.66-2.94a4.52,4.52,0,0,1-1.77-1.84,5,5,0,0,1-.74-2.82,4.61,4.61,0,0,1,1.94-3.76A6.8,6.8,0,0,1,171.46,15Zm4,18.08q0-1.2-1.66-1.66a21.72,21.72,0,0,0-4.62-.58l-.17,0-.18.1q-.45.15-.7.26a2.89,2.89,0,0,0-.56.35,1.67,1.67,0,0,0-.49.58,2,2,0,0,0-.19.81,2.39,2.39,0,0,0,1.21,2.11A5.33,5.33,0,0,0,171,36a5.17,5.17,0,0,0,3.17-.76A2.67,2.67,0,0,0,175.44,33.09Zm-6.78-13.23a5.41,5.41,0,0,0,.57,2.85,2.13,2.13,0,0,0,1.87,1.23A2,2,0,0,0,173,23a4.54,4.54,0,0,0,.7-2.39,5.63,5.63,0,0,0-.56-3,2.19,2.19,0,0,0-1.94-1.21,1.93,1.93,0,0,0-1.86,1A5,5,0,0,0,168.66,19.87Z"/><path class="cls-1" d="M196.82,16a7.54,7.54,0,0,1,5.39,2.47,7.34,7.34,0,0,1,2,5.51,7.75,7.75,0,0,1-15.49-.64A7.37,7.37,0,0,1,191.24,18,7.5,7.5,0,0,1,196.82,16Zm-.51,1.59A2.75,2.75,0,0,0,193.75,19a7.35,7.35,0,0,0-1,3.67,10,10,0,0,0,.91,4.87,3.42,3.42,0,0,0,3,2.18,2.79,2.79,0,0,0,2.58-1.47,7.29,7.29,0,0,0,1.06-3.66,11.76,11.76,0,0,0-.31-3.32,6,6,0,0,0-1.33-2.61A3.17,3.17,0,0,0,196.3,17.59Z"/><path class="cls-1" d="M216.88,8.17a6.73,6.73,0,0,1,2.36.46,2.39,2.39,0,0,1,1.21.92,3.87,3.87,0,0,1-.27,1.89,1.23,1.23,0,0,1-1.28.79,1.33,1.33,0,0,1-1-.61q-.44-.58-.93-1.17a1.57,1.57,0,0,0-1.17-.61,1.82,1.82,0,0,0-1.58.83,5.75,5.75,0,0,0-1,2.12,14,14,0,0,0-.37,2.76l-.06,1.57s0,.06.06.11a.19.19,0,0,0,.13.07l3.76.16a.27.27,0,0,1,.17,0,.36.36,0,0,1,0,.21,3.53,3.53,0,0,1-.47,1.56l-3.56-.15a.18.18,0,0,0-.21.2l-.32,7.62a13.09,13.09,0,0,0,.15,3.09q.06.24.88.53a4.81,4.81,0,0,0,1.13.3c.07,0,.1.17.1.5a1.93,1.93,0,0,1-.08.66q-.2,0-1.77-.21t-2.39-.2q-.82,0-2.33,0l-1.78.06a.65.65,0,0,1-.12-.38,2.12,2.12,0,0,1,0-.53c0-.17.08-.25.15-.25a4.6,4.6,0,0,0,1.21-.21q.83-.22.91-.46A11.37,11.37,0,0,0,208.9,27l.33-7.86c0-.16-.06-.24-.2-.25L207,18.85s-.07-.07-.06-.21a1.83,1.83,0,0,1,.52-1,1.37,1.37,0,0,1,1.12-.57l.55,0a.18.18,0,0,0,.21-.2v-.34a9.3,9.3,0,0,1,2.39-6.07A6.4,6.4,0,0,1,216.88,8.17Z"/><path class="cls-1" d="M169.52,50.84a7.55,7.55,0,0,1,5.65,1.8,7.33,7.33,0,0,1,2.7,5.23,7.8,7.8,0,1,1-8.35-7Zm-.32,1.64a2.76,2.76,0,0,0-2.37,1.75,7.36,7.36,0,0,0-.59,3.77,10,10,0,0,0,1.49,4.72,3.41,3.41,0,0,0,3.25,1.8,2.79,2.79,0,0,0,2.38-1.77A7.29,7.29,0,0,0,174,59a11.77,11.77,0,0,0-.7-3.26,6,6,0,0,0-1.63-2.43A3.17,3.17,0,0,0,169.2,52.48Z"/><path class="cls-1" d="M194.65,52.55l.54,6.75a7.57,7.57,0,0,0,.46,2.37.71.71,0,0,0,.41.24,2.67,2.67,0,0,0,.61.09,5,5,0,0,0,.57,0,.64.64,0,0,1,.29,0c.09,0,.15.11.16.3a2.66,2.66,0,0,1,0,.47c0,.22-.09.33-.18.34a7.77,7.77,0,0,0-1.2.22l-1.4.35q-.67.17-1.28.36l-1.34.38c-.16,0-.25-.16-.28-.53l-.12-1.5c0-.11-.07-.17-.12-.16a7.63,7.63,0,0,1-2,1.7,5.73,5.73,0,0,1-2.64.9,3.59,3.59,0,0,1-2.08-.42A4.13,4.13,0,0,1,183.59,63a7.34,7.34,0,0,1-.87-1.92,10.37,10.37,0,0,1-.39-2.13l-.3-3.82A3.26,3.26,0,0,0,181.3,53a1.89,1.89,0,0,0-.83-.45,3.61,3.61,0,0,0-.83-.14c-.23,0-.35,0-.35-.07q-.08-1,.09-1a25.8,25.8,0,0,0,2.76-.63,26.78,26.78,0,0,0,2.65-.83l.13,0,.13,0c.11,0,.21.06.28.22a1.21,1.21,0,0,1,.11.37q-.12,2.34-.07,3l.33,4.09a7.32,7.32,0,0,0,1.05,3.76,3,3,0,0,0,4.3.16,1.82,1.82,0,0,0,.65-1.34l-.45-5.63a3.26,3.26,0,0,0-.72-2.14,1.65,1.65,0,0,0-.81-.45,3.85,3.85,0,0,0-.85-.14c-.23,0-.35,0-.35-.08q-.08-1,.12-1a26.39,26.39,0,0,0,2.73-.63A26.86,26.86,0,0,0,194,49.1l.27-.09c.11,0,.21.06.29.22a.62.62,0,0,1,.1.37Q194.6,51.94,194.65,52.55Z"/><path class="cls-1" d="M208.73,47.73a3.41,3.41,0,0,1,2.89.9q.23,2.9-1.41,3a2,2,0,0,1-1.38-.58,2.14,2.14,0,0,0-1.52-.57,1.84,1.84,0,0,0-1.57,1.21,4.56,4.56,0,0,0-.42,2.28l.34,4.26a14.27,14.27,0,0,0,.48,3.05q.09.23.94.42a4.89,4.89,0,0,0,1.16.17c.07,0,.12.16.16.48a3.55,3.55,0,0,1,0,.67h-1.82q-1.54,0-2.33.08t-2.36.29l-1.81.28a1,1,0,0,1-.19-.64q0-.51.1-.52a4.77,4.77,0,0,0,1.22-.35q.82-.32.87-.57a11.22,11.22,0,0,0,0-2.51l-.44-5.56a3.26,3.26,0,0,0-.72-2.14,1.65,1.65,0,0,0-.81-.45,3.93,3.93,0,0,0-.83-.14c-.22,0-.33,0-.33-.08q-.08-1,.09-1a48.64,48.64,0,0,0,5.41-1.46l.27-.09c.09,0,.18.07.26.22a.81.81,0,0,1,.12.39c0,.1,0,.26,0,.48s0,.45,0,.69a4.31,4.31,0,0,0,0,.46,6.27,6.27,0,0,1,1.54-1.79A3.74,3.74,0,0,1,208.73,47.73Z"/><path class="cls-1" d="M225.8,39l3.33-.47q.38.93,1.68,3.42T234,48q1.88,3.58,3,5.89s0,.07.11.06a.09.09,0,0,0,.09-.11q2.43-7.43,3.84-12.22l.91-4.05q1,0,2.8-.12,1.33-.11,4-.49a1,1,0,0,1,.15.54c0,.39,0,.58-.09.59h-.07a2.79,2.79,0,0,0-1.63.68q-.48.42-.3,1.88.38,3,1.59,14.05a9,9,0,0,0,.79,3.1q.16.3,1,.49a4.65,4.65,0,0,0,1.18.16c.09,0,.15.19.19.6a1.67,1.67,0,0,1,0,.52l-4.21.13q-.68.05-1.43.15l-1.65.22-1.44.2a.73.73,0,0,1-.18-.5c0-.41,0-.62.09-.62a4.05,4.05,0,0,0,1.07-.31,2.14,2.14,0,0,0,.92-.57,1.92,1.92,0,0,0,.25-1.22l-.15-1.91L243.7,44.82q-.3-2.1-.58-2.08c-.07,0-.12.08-.15.22l-5.25,16.41q-.48,1.34-1.19,1.4a1.11,1.11,0,0,1-.35,0L227.08,43q.43,8.51.66,15.26a3.8,3.8,0,0,0,.19,1q.2.36,1.42.61a7.44,7.44,0,0,0,1.63.21c.09,0,.15.19.19.6a1.64,1.64,0,0,1,0,.52l-4.31.14q-.92.07-2.43.3t-1.85.25a.79.79,0,0,1-.18-.53q0-.58.09-.59a6.88,6.88,0,0,0,1.68-.48q1.13-.43,1.26-1a6.39,6.39,0,0,0,.19-2.32q-.14-2.6-.3-6.14t-.27-6q-.11-2.5-.16-3.11a3.33,3.33,0,0,0-.18-.95q-.12-.27-1.18-.42a7.76,7.76,0,0,0-1.5-.12q-.14,0-.18-.57a.72.72,0,0,1,.1-.52l1.77,0Q224.92,39.1,225.8,39Z"/><path class="cls-1" d="M259.89,43.67a4.21,4.21,0,0,1,3.26.86,5.47,5.47,0,0,1,1.36,3.72L265,55a1.56,1.56,0,0,0,.39,1,1,1,0,0,0,.85.29,2.14,2.14,0,0,0,1.13-.54c.14,0,.22.15.23.36a2,2,0,0,1-.12,1,8.48,8.48,0,0,1-1.3,1,3.56,3.56,0,0,1-1.6.57,2.5,2.5,0,0,1-1.58-.46A2.8,2.8,0,0,1,261.95,57l-.24.24q-.21.21-.58.51a10.1,10.1,0,0,1-.84.62,5.44,5.44,0,0,1-1.12.55,5,5,0,0,1-1.33.29,4.09,4.09,0,0,1-2.86-.72A3.25,3.25,0,0,1,253.7,56a3.16,3.16,0,0,1,.27-1.57,4.11,4.11,0,0,1,.85-1.25,7,7,0,0,1,1.4-1,14,14,0,0,1,1.53-.79q.65-.27,1.66-.66l1.41-.56a.54.54,0,0,0,.26-.57l-.15-1.88a2.94,2.94,0,0,0-.7-1.83,1.79,1.79,0,0,0-1.52-.57,2.08,2.08,0,0,0-1.55.76,2.56,2.56,0,0,0-.44,1.84,1.11,1.11,0,0,1-.43,1,2.12,2.12,0,0,1-1.13.42,1.93,1.93,0,0,1-1.84-.68q-.13-1.64,2-3.25A8.57,8.57,0,0,1,259.89,43.67Zm-.5,13.22a2.65,2.65,0,0,0,1.55-.6,1.35,1.35,0,0,0,.58-1.14l-.28-3.48c-.15.08-.48.22-1,.42s-.88.37-1.15.5a9.42,9.42,0,0,0-.92.55,2.08,2.08,0,0,0-.74.81,1.89,1.89,0,0,0-.18,1,2.11,2.11,0,0,0,.67,1.56A2,2,0,0,0,259.39,56.89Z"/><path class="cls-1" d="M279.65,42.1q4.4-.35,5,6.64l.26,3.24a14.34,14.34,0,0,0,.48,3.05q.09.23,1,.42a5.27,5.27,0,0,0,1.2.16c.07,0,.12.16.16.48a1.92,1.92,0,0,1,0,.67q-.21,0-1.8,0t-2.38.09q-.82.07-2.26.28l-1.75.28a1,1,0,0,1-.19-.64c0-.34,0-.51.1-.52a4.07,4.07,0,0,0,1.12-.35q.75-.32.8-.56a9.79,9.79,0,0,0,.08-2.51l-.26-3.24a7.44,7.44,0,0,0-1.08-3.9,2.75,2.75,0,0,0-2.53-.93,3.16,3.16,0,0,0-1.86.75,1.65,1.65,0,0,0-.72,1.34l.47,5.87a14.25,14.25,0,0,0,.48,3.05c.06.16.37.3.94.42a5,5,0,0,0,1.13.17q.14,0,.19.48a1.92,1.92,0,0,1,0,.67h-1.8q-1.53,0-2.31.08t-2.36.29l-1.82.28a1,1,0,0,1-.19-.64c0-.34,0-.52.09-.52a4.74,4.74,0,0,0,1.22-.35q.82-.32.87-.57a11.22,11.22,0,0,0,0-2.51L271.47,48a3.26,3.26,0,0,0-.72-2.14,1.65,1.65,0,0,0-.81-.45,3.93,3.93,0,0,0-.83-.14c-.22,0-.33,0-.33-.08q-.08-1,.09-1a48.58,48.58,0,0,0,5.41-1.46.2.2,0,0,1,.08-.06l.1,0h.08c.09,0,.18.07.26.22a1,1,0,0,1,.13.37,11.49,11.49,0,0,0,0,1.24c0,.09,0,.15,0,.17a.51.51,0,0,0,.16-.12,7.58,7.58,0,0,1,2-1.6A6,6,0,0,1,279.65,42.1Z"/><path class="cls-1" d="M295.65,51.13a12.56,12.56,0,0,0,.52,3q.09.23,1,.42a5.09,5.09,0,0,0,1.18.16c.09,0,.15.15.19.48a1.93,1.93,0,0,1,0,.67q-.24,0-1.84,0t-2.34.08q-.85.07-2.4.29t-1.78.28a1,1,0,0,1-.19-.64c0-.34,0-.52.09-.52a4.94,4.94,0,0,0,1.21-.35c.55-.22.85-.4.88-.57a11.16,11.16,0,0,0,0-2.51l-.44-5.56a3.26,3.26,0,0,0-.72-2.14,1.92,1.92,0,0,0-.83-.45,3.62,3.62,0,0,0-.83-.14c-.23,0-.35,0-.35-.08-.05-.66,0-1,.12-1a26.18,26.18,0,0,0,2.73-.63,26.72,26.72,0,0,0,2.65-.83l.27-.09c.11,0,.21.06.29.22a.63.63,0,0,1,.1.37,29.54,29.54,0,0,0,0,3Zm-4.68-14a2.09,2.09,0,0,1-.73-1.45,2.12,2.12,0,0,1,4.23-.34,2.09,2.09,0,0,1-.5,1.55,2.11,2.11,0,0,1-3,.24Z"/><path class="cls-1" d="M308.39,31.14a6.75,6.75,0,0,1,2.4.17,2.38,2.38,0,0,1,1.31.77,3.84,3.84,0,0,1,0,1.91,1.23,1.23,0,0,1-1.18.93,1.34,1.34,0,0,1-1.09-.48q-.51-.53-1.06-1a1.58,1.58,0,0,0-1.24-.47,1.82,1.82,0,0,0-1.46,1,5.72,5.72,0,0,0-.7,2.22,13.93,13.93,0,0,0,0,2.78l.13,1.57s0,.06.08.1a.19.19,0,0,0,.14.06l3.75-.3a.27.27,0,0,1,.17,0,.35.35,0,0,1,.05.2,3.53,3.53,0,0,1-.29,1.6l-3.55.28a.18.18,0,0,0-.19.22l.6,7.61a13.07,13.07,0,0,0,.52,3q.08.23.94.42a4.86,4.86,0,0,0,1.16.17c.07,0,.12.16.16.48a1.92,1.92,0,0,1,0,.67q-.21,0-1.79,0t-2.4.09q-.82.07-2.31.29l-1.76.28a.65.65,0,0,1-.17-.36,2.08,2.08,0,0,1,0-.53c0-.17,0-.26.12-.27a4.6,4.6,0,0,0,1.17-.35q.8-.32.85-.56a11.38,11.38,0,0,0,.08-2.82L302.12,43c0-.16-.09-.23-.22-.22l-2,.16s-.07-.06-.08-.2a1.83,1.83,0,0,1,.4-1,1.37,1.37,0,0,1,1-.7l.55,0a.18.18,0,0,0,.19-.22l0-.34a9.31,9.31,0,0,1,1.64-6.31A6.4,6.4,0,0,1,308.39,31.14Z"/><path class="cls-1" d="M318.6,39a6.35,6.35,0,0,1,2.92.4,5.43,5.43,0,0,1,2.11,1.45,7.93,7.93,0,0,1,1.25,1.93,5.89,5.89,0,0,1,.53,2c0,.5,0,.82-.18,1a1.94,1.94,0,0,1-1,.27l-8.15.65c-.16,0-.23.09-.22.22a6.63,6.63,0,0,0,.63,2.35,4.71,4.71,0,0,0,1.68,1.89,4,4,0,0,0,2.64.65,9.09,9.09,0,0,0,1-.13,5.05,5.05,0,0,0,.87-.24l.7-.28a2.93,2.93,0,0,0,.61-.36l.44-.33.64-.51a.56.56,0,0,1,.19.19.68.68,0,0,1,.13.33,1,1,0,0,1-.15.66,5.56,5.56,0,0,1-1.87,2,6.34,6.34,0,0,1-3.3,1.19,6.93,6.93,0,0,1-5.29-1.79,7.38,7.38,0,0,1-2.57-5.17,7.92,7.92,0,0,1,1.55-5.75A6.64,6.64,0,0,1,318.6,39Zm-.12,1.59a2.42,2.42,0,0,0-1.43.59,3.24,3.24,0,0,0-.9,1.24,6.58,6.58,0,0,0-.39,1.32,4.15,4.15,0,0,0-.07,1c0,.16.09.23.22.22l5.53-.44c.21,0,.29-.2.27-.54a4.43,4.43,0,0,0-1-2.36A2.45,2.45,0,0,0,318.48,40.6Z"/><path class="cls-1" d="M332.39,37.88a14.58,14.58,0,0,1,4,.27,19.47,19.47,0,0,1,.68,3.79c0,.18-.13.28-.42.31-.5,0-.78,0-.84-.21a4.15,4.15,0,0,0-1.17-2,2.68,2.68,0,0,0-2.13-.67A2.46,2.46,0,0,0,331,40a1.52,1.52,0,0,0-.46,1.31,2,2,0,0,0,.26.85,2.12,2.12,0,0,0,.67.69,8.4,8.4,0,0,0,.79.49c.23.12.56.28,1,.47a2.22,2.22,0,0,0,.36.14l.53.23.59.26.57.28a6.27,6.27,0,0,1,.63.35l.56.37a2.7,2.7,0,0,1,.55.44l.45.5a2.21,2.21,0,0,1,.41.59,6.19,6.19,0,0,1,.24.63,3.19,3.19,0,0,1,.14.73,4,4,0,0,1-1.38,3.53A6.5,6.5,0,0,1,333,53.39a11.44,11.44,0,0,1-4.48-.61,13.79,13.79,0,0,1-.49-1.87A16.69,16.69,0,0,1,327.7,49a.73.73,0,0,1,.46-.21q.78-.06.84.21a3.77,3.77,0,0,0,1.53,2.2,3.65,3.65,0,0,0,2.41.68,2.48,2.48,0,0,0,1.53-.6,1.66,1.66,0,0,0,.5-1.45,2.29,2.29,0,0,0-.14-.62,1.65,1.65,0,0,0-.37-.55l-.43-.45a2.49,2.49,0,0,0-.65-.41l-.71-.34-.89-.38-.91-.39A8,8,0,0,1,328.32,45a4,4,0,0,1,.34-5.71A6.6,6.6,0,0,1,332.39,37.88Z"/><path class="cls-1" d="M341.83,39.57l-2.08.17q-.24,0-.31-.87a.86.86,0,0,1,0-.31,9.6,9.6,0,0,0,2.48-2q.41-.48.89-1.08T344,33.91a2.42,2.42,0,0,1,.65,0q.31.06.32.16l.27,3.34,2.47-.18,1.69-.12c.18,0,.28.08.3.29a3.31,3.31,0,0,1-.22,1.53l-4.09.32.65,8.22a3.24,3.24,0,0,0,.75,2,2,2,0,0,0,1.66.59,3.23,3.23,0,0,0,.71-.14,3.52,3.52,0,0,0,.6-.24l.43-.24a1,1,0,0,1,.23-.12q.13,0,.33.28c.13.22.19.36.17.43q-.17.49-1.36,1.22a5.39,5.39,0,0,1-2.39.82,4.32,4.32,0,0,1-3.11-.9,4.58,4.58,0,0,1-1.53-3.43Z"/><path class="cls-1" d="M359.66,35.76a7.55,7.55,0,0,1,5.65,1.8,7.34,7.34,0,0,1,2.7,5.23,7.81,7.81,0,1,1-8.35-7Zm-.32,1.64A2.76,2.76,0,0,0,357,39.14a7.36,7.36,0,0,0-.59,3.77,10,10,0,0,0,1.49,4.72,3.41,3.41,0,0,0,3.25,1.8,2.79,2.79,0,0,0,2.38-1.77,7.29,7.29,0,0,0,.61-3.76,11.77,11.77,0,0,0-.71-3.26,6,6,0,0,0-1.63-2.43A3.18,3.18,0,0,0,359.34,37.39Z"/></svg>