<svg id="Layer_1" data-name="Layer 1" xmlns="http://www.w3.org/2000/svg" viewBox="0 0 393.49 31.23"><defs><style>.cls-1{fill:#fff;}</style></defs><title>title</title><path class="cls-1" d="M12.3,2.46l7.32,17.88q.52,1.37,1,2.49a1.67,1.67,0,0,0,1.1.81,4.55,4.55,0,0,0,1.3.3q.14,0,.14.61a1.15,1.15,0,0,1-.06.51l-4.31-.17-4.45.24a1,1,0,0,1-.14-.63q0-.5.13-.5a4.41,4.41,0,0,0,1.13-.21q.72-.21.85-.49a1,1,0,0,0,.1-.45,7.86,7.86,0,0,0-.67-2.36l-1.22-3.17a.38.38,0,0,0-.24-.14q-1.1-.06-2.94,0t-3.9.13c-.14,0-.2,0-.2.14L6,20.61a9.74,9.74,0,0,0-.63,2.23.77.77,0,0,0,.38.68,3.42,3.42,0,0,0,1.08.37,5.92,5.92,0,0,0,1,.16c.07,0,.1.18.11.48a2.26,2.26,0,0,1-.06.65L6.3,25.09Q4.86,25,4,25t-2.1.1l-1.73.13A.73.73,0,0,1,0,24.73c0-.41,0-.62.06-.62a4.92,4.92,0,0,0,1.31-.3,2.11,2.11,0,0,0,1.14-.68A16.25,16.25,0,0,0,3.8,20.46L10.05,5A7.46,7.46,0,0,1,11.3,2.54a.87.87,0,0,1,.58-.24A.56.56,0,0,1,12.3,2.46Zm-4,12.76q1.2.09,2.46.08t2.81-.12l.07-.14L11,8.22,8.21,15.09C8.21,15.18,8.24,15.22,8.28,15.22Z"/><path class="cls-1" d="M44.12,9.69a3.69,3.69,0,0,1,2.23.65,4,4,0,0,1,1.38,1.72,8.06,8.06,0,0,1,2.49-1.73,7.7,7.7,0,0,1,3.21-.71,3.89,3.89,0,0,1,2.11.53,3.77,3.77,0,0,1,1.38,1.51,8.12,8.12,0,0,1,.73,2.12,13,13,0,0,1,.24,2.48l0,3.59a14.27,14.27,0,0,0,.26,3.08q.07.24.93.49a5,5,0,0,0,1.17.25c.07,0,.11.17.12.5a1.93,1.93,0,0,1,0,.67q-.24,0-1.8-.12t-2.34-.09q-.82,0-2.34.12L52,24.9a1.28,1.28,0,0,1-.11-.65q0-.51.1-.51a4.59,4.59,0,0,0,1.23-.27q.82-.26.89-.5a10.64,10.64,0,0,0,.22-2.4l0-3.49q0-5-3.22-4.94a3.12,3.12,0,0,0-1.88.56,2.14,2.14,0,0,0-.88,1.07,2.45,2.45,0,0,1,0,.27.67.67,0,0,0,0,.27,16.72,16.72,0,0,1,.12,2.12l0,3.63A13.52,13.52,0,0,0,48.77,23q.07.24.93.49a5,5,0,0,0,1.17.25c.07,0,.11.17.12.5a1.94,1.94,0,0,1,0,.67q-.24,0-1.8-.12T46.8,24.7q-.82,0-2.34.12L42.62,25a1.28,1.28,0,0,1-.11-.65c0-.34,0-.51.1-.51a4.6,4.6,0,0,0,1.23-.27q.82-.26.89-.5a11.15,11.15,0,0,0,.22-2.5l0-3.29a7.26,7.26,0,0,0-.82-3.86,2.61,2.61,0,0,0-2.34-1.18,3.28,3.28,0,0,0-1.88.59,1.62,1.62,0,0,0-.85,1.31l0,5.89a12.57,12.57,0,0,0,.3,3.08q.07.24.89.49a4.63,4.63,0,0,0,1.13.25q.14,0,.16.5a1.93,1.93,0,0,1,0,.67l-1.8-.12q-1.52-.09-2.31-.09T35,24.89L33.21,25a1,1,0,0,1-.14-.65c0-.34,0-.51.13-.51a5,5,0,0,0,1.23-.27c.57-.18.88-.34.92-.5a11.16,11.16,0,0,0,.22-2.5l0-5.58A3.26,3.26,0,0,0,35,12.84a1.65,1.65,0,0,0-.77-.51,3.88,3.88,0,0,0-.84-.2Q33,12.1,33,12q0-1,.2-1a47.41,47.41,0,0,0,5.47-1.07.22.22,0,0,1,.1-.05l.17,0c.11,0,.21.08.28.24a.63.63,0,0,1,.07.38,11.36,11.36,0,0,0-.13,1.23c0,.09,0,.15.07.17a.49.49,0,0,0,.17-.1,7.57,7.57,0,0,1,2.09-1.45A6,6,0,0,1,44.12,9.69Z"/><path class="cls-1" d="M69.35,9.51a4.2,4.2,0,0,1,3.19,1.09,5.47,5.47,0,0,1,1.09,3.81l0,6.74a1.56,1.56,0,0,0,.32,1,1,1,0,0,0,.82.35A2.14,2.14,0,0,0,76,22.09c.14,0,.21.17.21.38a2,2,0,0,1-.2,1,8.52,8.52,0,0,1-1.36.87,3.56,3.56,0,0,1-1.64.46,2.5,2.5,0,0,1-1.54-.57,2.8,2.8,0,0,1-1-1.26l-.25.22q-.22.19-.61.47a9.89,9.89,0,0,1-.89.55,5.42,5.42,0,0,1-1.16.47,5,5,0,0,1-1.35.2,4.09,4.09,0,0,1-2.8-.92,3.25,3.25,0,0,1-1.1-2.58,3.16,3.16,0,0,1,.38-1.54,4.08,4.08,0,0,1,.93-1.19,7,7,0,0,1,1.46-.92,14.15,14.15,0,0,1,1.59-.68c.44-.15,1-.33,1.71-.54l1.45-.46a.54.54,0,0,0,.3-.55V13.65a2.94,2.94,0,0,0-.56-1.88,1.79,1.79,0,0,0-1.48-.67,2.08,2.08,0,0,0-1.6.64,2.56,2.56,0,0,0-.57,1.8,1.11,1.11,0,0,1-.51,1,2.13,2.13,0,0,1-1.16.33,1.93,1.93,0,0,1-1.79-.81q0-1.64,2.22-3.1A8.58,8.58,0,0,1,69.35,9.51ZM67.9,22.66a2.65,2.65,0,0,0,1.59-.49,1.35,1.35,0,0,0,.66-1.1l0-3.49c-.16.07-.5.19-1,.35s-.9.3-1.18.42a9.34,9.34,0,0,0-1,.49,2.07,2.07,0,0,0-.8.76,1.88,1.88,0,0,0-.25,1,2.11,2.11,0,0,0,.56,1.6A2,2,0,0,0,67.9,22.66Z"/><path class="cls-1" d="M89.17,9.37q4.41,0,4.46,7l0,3.25a14.35,14.35,0,0,0,.26,3.08q.07.24.94.49a5.27,5.27,0,0,0,1.18.25c.07,0,.11.17.12.5a1.93,1.93,0,0,1,0,.67q-.21,0-1.8-.12t-2.38-.09q-.82,0-2.27.12l-1.76.15a1,1,0,0,1-.14-.65c0-.34,0-.51.13-.51A4.08,4.08,0,0,0,89,23.21q.77-.26.83-.5a9.79,9.79,0,0,0,.26-2.5l0-3.25a7.43,7.43,0,0,0-.8-4,2.75,2.75,0,0,0-2.46-1.11A3.17,3.17,0,0,0,85,12.5a1.65,1.65,0,0,0-.81,1.29l0,5.89a14.28,14.28,0,0,0,.26,3.08q.07.24.91.49a4.94,4.94,0,0,0,1.11.25c.09,0,.14.16.16.5a1.93,1.93,0,0,1,0,.67l-1.8-.12q-1.52-.09-2.31-.09t-2.38.12l-1.83.15a1,1,0,0,1-.14-.65c0-.34,0-.51.13-.51a4.8,4.8,0,0,0,1.25-.27q.84-.26.9-.5a11.15,11.15,0,0,0,.22-2.5l0-5.58A3.26,3.26,0,0,0,80,12.51a1.65,1.65,0,0,0-.77-.51,3.89,3.89,0,0,0-.82-.2q-.33,0-.33-.1,0-1,.16-1a48.54,48.54,0,0,0,5.5-1.07l.09-.05.1,0H84c.09,0,.17.08.24.24a1,1,0,0,1,.1.38,11.36,11.36,0,0,0-.13,1.23.26.26,0,0,0,0,.17.51.51,0,0,0,.17-.1A7.59,7.59,0,0,1,86.56,10,6,6,0,0,1,89.17,9.37Z"/><path class="cls-1" d="M104.48,19.52a12.57,12.57,0,0,0,.3,3.08q.07.24.93.49a5,5,0,0,0,1.17.25q.14,0,.16.5a1.94,1.94,0,0,1,0,.67q-.24,0-1.83-.12t-2.35-.09q-.86,0-2.41.12t-1.8.15a1,1,0,0,1-.14-.65c0-.34,0-.51.13-.51a5,5,0,0,0,1.23-.27c.57-.17.87-.34.92-.5a11.15,11.15,0,0,0,.22-2.5l0-5.58a3.26,3.26,0,0,0-.56-2.19,1.92,1.92,0,0,0-.79-.51,3.6,3.6,0,0,0-.82-.2q-.34,0-.34-.1,0-1,.2-1a26.39,26.39,0,0,0,2.77-.43,27.09,27.09,0,0,0,2.7-.64l.27-.07c.11,0,.21.08.28.24a.62.62,0,0,1,.07.38q-.26,2.19-.25,2.94ZM100.82,5.23a2.09,2.09,0,0,1-.63-1.5,2,2,0,0,1,.61-1.49,2.12,2.12,0,0,1,3.64,1.46,2.09,2.09,0,0,1-.61,1.51,2.11,2.11,0,0,1-3,0Z"/><path class="cls-1" d="M118.62.5A6.73,6.73,0,0,1,121,.84a2.39,2.39,0,0,1,1.26.86,3.85,3.85,0,0,1-.17,1.9,1.23,1.23,0,0,1-1.24.85,1.33,1.33,0,0,1-1-.56q-.47-.56-1-1.12a1.57,1.57,0,0,0-1.2-.56,1.82,1.82,0,0,0-1.53.9,5.74,5.74,0,0,0-.86,2.16A14,14,0,0,0,115,8.05V9.63s0,.06.07.1a.2.2,0,0,0,.14.07l3.76,0a.28.28,0,0,1,.17,0,.36.36,0,0,1,0,.21,3.52,3.52,0,0,1-.4,1.58l-3.56,0a.18.18,0,0,0-.21.21l.06,7.63a13.11,13.11,0,0,0,.3,3.08q.07.24.91.49a4.86,4.86,0,0,0,1.15.25c.07,0,.11.17.12.5a1.93,1.93,0,0,1,0,.67q-.21,0-1.78-.12t-2.4-.09q-.82,0-2.33.12l-1.78.15a.66.66,0,0,1-.14-.38,2.14,2.14,0,0,1,0-.53c0-.17.07-.26.14-.26a4.58,4.58,0,0,0,1.2-.26q.82-.26.89-.5a11.36,11.36,0,0,0,.29-2.81l-.06-7.87c0-.16-.07-.24-.21-.24l-2.05,0s-.07-.07-.07-.21a1.84,1.84,0,0,1,.47-1,1.38,1.38,0,0,1,1.09-.62h.55a.18.18,0,0,0,.2-.21V9.28a9.31,9.31,0,0,1,2.09-6.17A6.4,6.4,0,0,1,118.62.5Z"/><path class="cls-1" d="M128.24,9.09a6.35,6.35,0,0,1,2.88.61,5.43,5.43,0,0,1,2,1.59,8,8,0,0,1,1.11,2,5.86,5.86,0,0,1,.39,2q0,.75-.25.94a1.94,1.94,0,0,1-1,.2l-8.18.06c-.16,0-.24.07-.24.21a6.64,6.64,0,0,0,.46,2.39,4.71,4.71,0,0,0,1.54,2,4,4,0,0,0,2.59.84,9.29,9.29,0,0,0,1-.06,5.12,5.12,0,0,0,.89-.18l.72-.23a3,3,0,0,0,.63-.31l.46-.29.68-.47a.57.57,0,0,1,.17.2.66.66,0,0,1,.1.34,1,1,0,0,1-.2.65,5.57,5.57,0,0,1-2,1.86,6.35,6.35,0,0,1-3.38.95,6.93,6.93,0,0,1-5.15-2.17,7.37,7.37,0,0,1-2.19-5.34,7.91,7.91,0,0,1,2-5.63A6.63,6.63,0,0,1,128.24,9.09ZM128,10.66a2.42,2.42,0,0,0-1.47.49,3.22,3.22,0,0,0-1,1.17,6.55,6.55,0,0,0-.49,1.29,4.18,4.18,0,0,0-.15,1c0,.16.07.24.21.24l5.54,0c.21,0,.31-.17.3-.52a4.43,4.43,0,0,0-.82-2.42A2.45,2.45,0,0,0,128,10.66Z"/><path class="cls-1" d="M142.07,9a14.52,14.52,0,0,1,4,.55,19.36,19.36,0,0,1,.4,3.83c0,.18-.15.27-.44.28-.5,0-.78-.08-.82-.27a4.15,4.15,0,0,0-1-2,2.67,2.67,0,0,0-2.08-.82,2.46,2.46,0,0,0-1.55.46,1.52,1.52,0,0,0-.56,1.27,2,2,0,0,0,.19.87,2.12,2.12,0,0,0,.62.73,8.2,8.2,0,0,0,.76.54q.33.2,1,.54a2.17,2.17,0,0,0,.34.17l.51.27.57.3.55.32a6.44,6.44,0,0,1,.6.39l.53.41a2.69,2.69,0,0,1,.52.48l.42.53a2.21,2.21,0,0,1,.36.61,6.52,6.52,0,0,1,.19.65,3.24,3.24,0,0,1,.09.74,4,4,0,0,1-1.63,3.42,6.49,6.49,0,0,1-4,1.28,11.43,11.43,0,0,1-4.42-.93,13.79,13.79,0,0,1-.36-1.9,16.78,16.78,0,0,1-.18-2,.73.73,0,0,1,.48-.17c.52,0,.8.09.82.27a3.77,3.77,0,0,0,1.37,2.3,3.65,3.65,0,0,0,2.35.86,2.49,2.49,0,0,0,1.57-.49A1.67,1.67,0,0,0,143.8,21a2.24,2.24,0,0,0-.09-.63,1.65,1.65,0,0,0-.33-.58l-.4-.48a2.48,2.48,0,0,0-.62-.46l-.69-.39-.86-.44-.88-.46a8,8,0,0,1-2.44-1.81,3.66,3.66,0,0,1-.87-2.44,3.67,3.67,0,0,1,1.62-3.23A6.6,6.6,0,0,1,142.07,9Z"/><path class="cls-1" d="M151.37,11.31h-2.09q-.24,0-.25-.89a.83.83,0,0,1,0-.31,9.59,9.59,0,0,0,2.62-1.83l1-1q.53-.57,1.24-1.46a2.44,2.44,0,0,1,.65.08c.21.06.31.12.31.19l0,3.35h4.17c.18,0,.27.1.28.31a3.32,3.32,0,0,1-.33,1.51l-4.11,0,.06,8.25a3.25,3.25,0,0,0,.6,2.08,2,2,0,0,0,1.61.71,3.19,3.19,0,0,0,.72-.09,3.68,3.68,0,0,0,.62-.19l.44-.21.24-.1c.09,0,.19.08.31.31a.81.81,0,0,1,.14.44,3.14,3.14,0,0,1-1.45,1.12,5.39,5.39,0,0,1-2.44.65,4.32,4.32,0,0,1-3-1.12,4.59,4.59,0,0,1-1.27-3.53Z"/><path class="cls-1" d="M169.43,8.79a7.55,7.55,0,0,1,5.51,2.2,7.34,7.34,0,0,1,2.31,5.41,7.75,7.75,0,0,1-15.5.11,7.37,7.37,0,0,1,2.2-5.46A7.5,7.5,0,0,1,169.43,8.79ZM169,10.4A2.76,2.76,0,0,0,166.51,12a7.36,7.36,0,0,0-.86,3.72,10,10,0,0,0,1.15,4.82,3.41,3.41,0,0,0,3.11,2,2.79,2.79,0,0,0,2.5-1.59,7.29,7.29,0,0,0,.88-3.7,11.75,11.75,0,0,0-.47-3.3,6,6,0,0,0-1.46-2.54A3.17,3.17,0,0,0,169,10.4Z"/><path class="cls-1" d="M195.63,8.6a7,7,0,0,1,3.82,1.05A7.19,7.19,0,0,1,202,12.37a7.3,7.3,0,0,1,.9,3.43,7.81,7.81,0,0,1-2.34,5.75A7.54,7.54,0,0,1,195.12,24a10.7,10.7,0,0,1-2.5-.24,7.51,7.51,0,0,0-1.61-.25,2.61,2.61,0,0,0-.89.25,3.42,3.42,0,0,1-.68.24,1.66,1.66,0,0,1-.5-.2c-.26-.14-.4-.25-.4-.34s0-.27.06-.62.1-.83.16-1.47a19.89,19.89,0,0,0,.09-2.09l-.1-14A11.92,11.92,0,0,0,188.53,3q-.18-.55-1.78-.53h-.31q-.21,0-.21-.55c0-.36.06-.55.2-.55q1.06-.11,2-.29T190,.7q.63-.18,1.09-.35l1-.35h.07a.37.37,0,0,1,.27.19.94.94,0,0,1,.17.36,12,12,0,0,0-.35,3.22l0,5.47v0c0,.07,0,.12,0,.15a.89.89,0,0,0,0,.15c0,.07,0,.1.07.1a.27.27,0,0,0,.12,0A6.28,6.28,0,0,1,193.9,9,4.9,4.9,0,0,1,195.63,8.6Zm-.74,1.85a2.65,2.65,0,0,0-1.84.66,2,2,0,0,0-.71,1.54l.05,7.25a2.05,2.05,0,0,0,.92,1.81,3.72,3.72,0,0,0,2.14.6,2.91,2.91,0,0,0,2.67-1.63,7.84,7.84,0,0,0,.88-3.91,8.79,8.79,0,0,0-1.1-4.65A3.35,3.35,0,0,0,194.89,10.45Z"/><path class="cls-1" d="M208.88,8.84q.75,0,2.16-.12t1.74-.12a2.26,2.26,0,0,1,.07.62c0,.32,0,.48-.13.48a3.73,3.73,0,0,0-1.08.26q-.73.26-.77.57v.21q.07.55,3.24,7.78.27-.62,1.31-3.38T216.63,12a3.2,3.2,0,0,0,.2-1.06,1.08,1.08,0,0,0-.55-.83,2.82,2.82,0,0,0-1.65-.38q-.14,0-.14-.51a.86.86,0,0,1,.13-.58q.41,0,1.68.09t2.09.09q.72,0,1.76-.12t1.52-.11a1,1,0,0,1,.14.55c0,.37,0,.55-.13.55a4.33,4.33,0,0,0-1.38.35,1.89,1.89,0,0,0-1.17,1L213,26.2q-2.08,5-5.06,5a1.84,1.84,0,0,1-1.37-.47,1.6,1.6,0,0,1,.15-2.43q3.56,0,4.67-2.84l.91-2.33-5.08-11.6a4.51,4.51,0,0,0-.42-.78,2.06,2.06,0,0,0-1-.76,3.22,3.22,0,0,0-1.11-.25q-.14,0-.14-.48c0-.36,0-.57.1-.62l1.83.09Q208.05,8.85,208.88,8.84Z"/><path class="cls-1" d="M235.6.92q1,0,2.29-.07t2.33-.07a11.14,11.14,0,0,1,2,.17,8.27,8.27,0,0,1,2,.65,7.23,7.23,0,0,1,1.79,1.17,5.4,5.4,0,0,1,1.28,1.79A5.83,5.83,0,0,1,247.86,7a6.52,6.52,0,0,1-.82,3.15,7.21,7.21,0,0,1-2.51,2.64,7,7,0,0,1-3.81,1.11,4.26,4.26,0,0,1-1.44-.25,2,2,0,0,1-1-.63.75.75,0,0,1-.12-.34,1.56,1.56,0,0,1,0-.51c0-.16.05-.24.1-.24a4.8,4.8,0,0,0,1.92.33,3,3,0,0,0,2.59-1.37,5.74,5.74,0,0,0,.93-3.41,6.27,6.27,0,0,0-1-3.62,3.21,3.21,0,0,0-2.85-1.31,5.58,5.58,0,0,0-2,.25q-.41.21-.39,3.56l.09,12.22a10.66,10.66,0,0,0,.29,2.91q.11.41,1.15.66a7.25,7.25,0,0,0,1.53.25c.09,0,.14.19.14.58a1.94,1.94,0,0,1-.06.58q-3.77-.18-4.86-.17-.92,0-2.07.07l-1.83.1-.68.07a1.17,1.17,0,0,1-.11-.62q0-.55.1-.55a5.85,5.85,0,0,0,1.32-.23c.58-.15.92-.33,1-.54a13.57,13.57,0,0,0,.18-3.12l-.09-12.94a13.49,13.49,0,0,0-.23-2.8c-.07-.18-.41-.37-1-.56A5,5,0,0,0,231.05,2c-.09,0-.14-.17-.14-.51s0-.55.13-.62Q234.64.93,235.6.92Z"/><path class="cls-1" d="M260.06,8.13a3.41,3.41,0,0,1,2.81,1.11q0,2.91-1.62,2.92a2,2,0,0,1-1.34-.67,2.14,2.14,0,0,0-1.48-.67,1.83,1.83,0,0,0-1.65,1.09,4.56,4.56,0,0,0-.58,2.25l0,4.28a14.27,14.27,0,0,0,.26,3.08q.07.24.91.49a4.88,4.88,0,0,0,1.15.25c.07,0,.11.17.12.5a3.57,3.57,0,0,1,0,.67l-1.81-.12q-1.54-.09-2.33-.09t-2.38.12l-1.83.15a1,1,0,0,1-.14-.65q0-.51.13-.51a4.78,4.78,0,0,0,1.25-.27q.84-.26.9-.5a11.15,11.15,0,0,0,.22-2.5l0-5.58a3.26,3.26,0,0,0-.56-2.19,1.66,1.66,0,0,0-.77-.51,3.88,3.88,0,0,0-.82-.2q-.33,0-.33-.1c0-.66,0-1,.16-1a48.43,48.43,0,0,0,5.5-1.07l.27-.07c.09,0,.17.08.24.24a.82.82,0,0,1,.09.39c0,.1,0,.26,0,.48s0,.45-.08.68a4.23,4.23,0,0,0,0,.46,6.26,6.26,0,0,1,1.66-1.67A3.75,3.75,0,0,1,260.06,8.13Z"/><path class="cls-1" d="M272.11,8a6.35,6.35,0,0,1,2.88.61,5.43,5.43,0,0,1,2,1.59,8,8,0,0,1,1.11,2,5.86,5.86,0,0,1,.39,2q0,.75-.25.94a1.94,1.94,0,0,1-1,.2l-8.18.06c-.16,0-.24.07-.24.21a6.64,6.64,0,0,0,.46,2.39,4.71,4.71,0,0,0,1.54,2,4,4,0,0,0,2.59.84,9.29,9.29,0,0,0,1-.06,5.12,5.12,0,0,0,.89-.18l.72-.23a3,3,0,0,0,.63-.31l.46-.29.68-.47a.57.57,0,0,1,.17.2.66.66,0,0,1,.1.34,1,1,0,0,1-.2.65,5.57,5.57,0,0,1-2,1.86,6.35,6.35,0,0,1-3.38.95,6.93,6.93,0,0,1-5.15-2.17,7.37,7.37,0,0,1-2.19-5.34,7.91,7.91,0,0,1,2-5.63A6.63,6.63,0,0,1,272.11,8Zm-.23,1.58a2.42,2.42,0,0,0-1.47.49,3.22,3.22,0,0,0-1,1.17,6.55,6.55,0,0,0-.49,1.29,4.18,4.18,0,0,0-.15,1c0,.16.07.24.21.24l5.54,0c.21,0,.31-.17.3-.52a4.43,4.43,0,0,0-.82-2.42A2.45,2.45,0,0,0,271.88,9.62Z"/><path class="cls-1" d="M285.94,7.91a14.52,14.52,0,0,1,4,.55,19.36,19.36,0,0,1,.4,3.83c0,.18-.15.27-.44.28-.5,0-.78-.08-.82-.27a4.15,4.15,0,0,0-1-2A2.67,2.67,0,0,0,286,9.45a2.46,2.46,0,0,0-1.55.46,1.52,1.52,0,0,0-.56,1.27A2,2,0,0,0,284,12a2.12,2.12,0,0,0,.62.73,8.2,8.2,0,0,0,.76.54q.33.2,1,.54a2.17,2.17,0,0,0,.34.17l.51.27.57.3.55.32a6.44,6.44,0,0,1,.6.39l.53.41a2.69,2.69,0,0,1,.52.48l.42.53a2.21,2.21,0,0,1,.36.61A6.52,6.52,0,0,1,291,18a3.24,3.24,0,0,1,.09.74,4,4,0,0,1-1.63,3.42,6.49,6.49,0,0,1-4,1.28,11.42,11.42,0,0,1-4.42-.93,13.79,13.79,0,0,1-.36-1.9,16.78,16.78,0,0,1-.18-2,.73.73,0,0,1,.48-.17c.52,0,.8.09.82.27a3.77,3.77,0,0,0,1.37,2.3,3.65,3.65,0,0,0,2.35.86,2.49,2.49,0,0,0,1.57-.49,1.67,1.67,0,0,0,.61-1.41,2.24,2.24,0,0,0-.09-.63,1.65,1.65,0,0,0-.33-.58l-.4-.48a2.48,2.48,0,0,0-.62-.46l-.69-.39-.86-.44-.88-.46a8,8,0,0,1-2.44-1.81,3.66,3.66,0,0,1-.87-2.44,3.68,3.68,0,0,1,1.62-3.23A6.6,6.6,0,0,1,285.94,7.91Z"/><path class="cls-1" d="M298.82,7.82a14.56,14.56,0,0,1,4,.55,19.37,19.37,0,0,1,.4,3.83c0,.18-.15.27-.44.28-.5,0-.78-.09-.82-.27a4.15,4.15,0,0,0-1-2,2.68,2.68,0,0,0-2.08-.82,2.46,2.46,0,0,0-1.55.46,1.52,1.52,0,0,0-.56,1.27,2,2,0,0,0,.19.87,2.13,2.13,0,0,0,.62.73,8.37,8.37,0,0,0,.76.54q.33.2,1,.54a2.23,2.23,0,0,0,.34.17l.51.27.57.3.55.32a6.5,6.5,0,0,1,.6.39l.53.41a2.72,2.72,0,0,1,.52.48l.42.53a2.22,2.22,0,0,1,.36.61,6.57,6.57,0,0,1,.19.65,3.23,3.23,0,0,1,.09.73A4,4,0,0,1,302.33,22a6.5,6.5,0,0,1-4,1.28,11.43,11.43,0,0,1-4.42-.93,13.79,13.79,0,0,1-.36-1.9,16.78,16.78,0,0,1-.18-2,.72.72,0,0,1,.48-.17c.52,0,.8.09.82.27a3.77,3.77,0,0,0,1.37,2.3,3.64,3.64,0,0,0,2.35.86,2.48,2.48,0,0,0,1.57-.49,1.67,1.67,0,0,0,.61-1.41,2.25,2.25,0,0,0-.09-.63,1.66,1.66,0,0,0-.33-.58l-.4-.48a2.47,2.47,0,0,0-.62-.46l-.69-.39-.86-.44-.88-.46a8,8,0,0,1-2.44-1.81,3.66,3.66,0,0,1-.87-2.44A3.67,3.67,0,0,1,295,9,6.6,6.6,0,0,1,298.82,7.82Z"/><path class="cls-1" d="M318.22.32q1,0,2.29-.07t2.33-.07a11.14,11.14,0,0,1,2,.17,8.29,8.29,0,0,1,2,.65,7.23,7.23,0,0,1,1.79,1.17A5.4,5.4,0,0,1,330,4a5.83,5.83,0,0,1,.51,2.43,6.52,6.52,0,0,1-.82,3.15,7.2,7.2,0,0,1-2.51,2.64,7,7,0,0,1-3.81,1.11A4.24,4.24,0,0,1,321.9,13a2,2,0,0,1-1-.63.74.74,0,0,1-.12-.34,1.56,1.56,0,0,1,0-.51c0-.16.05-.24.1-.24a4.79,4.79,0,0,0,1.92.33,3,3,0,0,0,2.59-1.37,5.74,5.74,0,0,0,.93-3.41,6.27,6.27,0,0,0-1-3.62,3.22,3.22,0,0,0-2.85-1.31,5.6,5.6,0,0,0-2,.25q-.41.21-.39,3.56L320.23,18a10.66,10.66,0,0,0,.29,2.91q.11.41,1.15.66a7.23,7.23,0,0,0,1.53.25q.14,0,.14.58a1.94,1.94,0,0,1-.06.58q-3.77-.18-4.86-.17-.92,0-2.07.07l-1.83.1-.68.07a1.18,1.18,0,0,1-.11-.62q0-.55.1-.55a5.85,5.85,0,0,0,1.32-.23c.58-.15.92-.33,1-.54a13.56,13.56,0,0,0,.18-3.12L316.23,5a13.49,13.49,0,0,0-.23-2.8c-.07-.18-.41-.37-1-.56a5,5,0,0,0-1.32-.28c-.09,0-.14-.17-.14-.51s0-.55.13-.62Q317.26.33,318.22.32Z"/><path class="cls-1" d="M342.68,7.53a3.41,3.41,0,0,1,2.81,1.11q0,2.91-1.62,2.92a2,2,0,0,1-1.34-.67,2.14,2.14,0,0,0-1.48-.67,1.83,1.83,0,0,0-1.65,1.09,4.55,4.55,0,0,0-.58,2.25l0,4.28a14.28,14.28,0,0,0,.26,3.08q.07.24.91.49a4.83,4.83,0,0,0,1.15.25q.1,0,.12.5a3.56,3.56,0,0,1,0,.67l-1.81-.12q-1.54-.09-2.33-.09t-2.38.12l-1.83.15a1,1,0,0,1-.14-.65q0-.51.13-.51a4.78,4.78,0,0,0,1.25-.27q.84-.26.9-.5a11.15,11.15,0,0,0,.22-2.5l0-5.58a3.26,3.26,0,0,0-.56-2.19,1.65,1.65,0,0,0-.77-.51,3.92,3.92,0,0,0-.82-.2q-.33,0-.33-.1,0-1,.16-1a48.54,48.54,0,0,0,5.5-1.07l.27-.07c.09,0,.17.08.24.24a.82.82,0,0,1,.09.39c0,.1,0,.26,0,.48s0,.45-.08.68a4.23,4.23,0,0,0,0,.46,6.26,6.26,0,0,1,1.66-1.67A3.75,3.75,0,0,1,342.68,7.53Z"/><path class="cls-1" d="M354.73,7.45a6.34,6.34,0,0,1,2.88.61,5.43,5.43,0,0,1,2,1.59,8,8,0,0,1,1.11,2,5.86,5.86,0,0,1,.39,2q0,.75-.25.94a1.94,1.94,0,0,1-1,.2l-8.18.06c-.16,0-.24.07-.24.21a6.64,6.64,0,0,0,.46,2.39,4.71,4.71,0,0,0,1.54,2,4,4,0,0,0,2.59.84,9.17,9.17,0,0,0,1-.06,5.07,5.07,0,0,0,.89-.18l.72-.23a3,3,0,0,0,.63-.31l.46-.29.68-.47a.57.57,0,0,1,.17.2.66.66,0,0,1,.1.34,1,1,0,0,1-.2.65,5.57,5.57,0,0,1-2,1.86,6.34,6.34,0,0,1-3.38.95,6.93,6.93,0,0,1-5.15-2.17,7.38,7.38,0,0,1-2.19-5.34,7.91,7.91,0,0,1,2-5.63A6.63,6.63,0,0,1,354.73,7.45ZM354.5,9a2.42,2.42,0,0,0-1.47.49,3.23,3.23,0,0,0-1,1.17,6.56,6.56,0,0,0-.49,1.29,4.19,4.19,0,0,0-.15,1c0,.16.07.24.21.24l5.54,0c.21,0,.31-.17.3-.52a4.43,4.43,0,0,0-.82-2.42A2.45,2.45,0,0,0,354.5,9Z"/><path class="cls-1" d="M368.56,7.31a14.52,14.52,0,0,1,4,.55,19.36,19.36,0,0,1,.4,3.83c0,.18-.15.27-.44.28-.5,0-.78-.08-.82-.27a4.15,4.15,0,0,0-1-2,2.67,2.67,0,0,0-2.08-.82,2.45,2.45,0,0,0-1.55.46,1.52,1.52,0,0,0-.56,1.27,2,2,0,0,0,.19.87,2.12,2.12,0,0,0,.62.73,8.29,8.29,0,0,0,.76.54q.33.2,1,.54a2.19,2.19,0,0,0,.34.17l.51.27.57.3.55.32a6.52,6.52,0,0,1,.6.39l.53.41a2.71,2.71,0,0,1,.52.47l.42.53a2.22,2.22,0,0,1,.36.61,6.52,6.52,0,0,1,.19.65,3.24,3.24,0,0,1,.09.73,4,4,0,0,1-1.63,3.42,6.49,6.49,0,0,1-4,1.28,11.43,11.43,0,0,1-4.42-.93,13.8,13.8,0,0,1-.36-1.9,16.78,16.78,0,0,1-.18-2,.73.73,0,0,1,.48-.17c.52,0,.8.09.82.27a3.77,3.77,0,0,0,1.37,2.3,3.65,3.65,0,0,0,2.35.86,2.49,2.49,0,0,0,1.57-.49,1.67,1.67,0,0,0,.61-1.41,2.24,2.24,0,0,0-.09-.63,1.66,1.66,0,0,0-.33-.58l-.4-.48a2.49,2.49,0,0,0-.62-.46l-.69-.39-.86-.44-.88-.46A8,8,0,0,1,364,14.14a3.66,3.66,0,0,1-.87-2.44,3.68,3.68,0,0,1,1.62-3.23A6.6,6.6,0,0,1,368.56,7.31Z"/><path class="cls-1" d="M381.44,7.22a14.6,14.6,0,0,1,4,.55,19.37,19.37,0,0,1,.4,3.83c0,.18-.15.27-.44.28-.5,0-.78-.09-.82-.27a4.15,4.15,0,0,0-1-2,2.68,2.68,0,0,0-2.08-.82,2.46,2.46,0,0,0-1.55.46,1.52,1.52,0,0,0-.56,1.27,2,2,0,0,0,.19.87,2.12,2.12,0,0,0,.62.73,8.29,8.29,0,0,0,.76.54q.33.2,1,.54a2.28,2.28,0,0,0,.34.17l.51.27.57.3.55.32a6.3,6.3,0,0,1,.6.39L385,15a2.74,2.74,0,0,1,.52.48l.42.53a2.22,2.22,0,0,1,.36.61,6.61,6.61,0,0,1,.19.65,3.24,3.24,0,0,1,.09.73,4,4,0,0,1-1.63,3.42,6.5,6.5,0,0,1-4,1.28,11.43,11.43,0,0,1-4.42-.93,13.76,13.76,0,0,1-.36-1.9,16.78,16.78,0,0,1-.18-2,.72.72,0,0,1,.48-.17c.52,0,.8.09.82.27a3.77,3.77,0,0,0,1.37,2.3,3.65,3.65,0,0,0,2.35.86,2.48,2.48,0,0,0,1.57-.49,1.67,1.67,0,0,0,.61-1.41,2.25,2.25,0,0,0-.09-.63,1.66,1.66,0,0,0-.33-.58l-.4-.48a2.48,2.48,0,0,0-.62-.46l-.69-.39-.86-.44-.88-.46A8,8,0,0,1,376.87,14,3.66,3.66,0,0,1,376,11.6a3.67,3.67,0,0,1,1.62-3.23A6.6,6.6,0,0,1,381.44,7.22Z"/><path class="cls-1" d="M392.81,18.77a2.23,2.23,0,0,1,.68,1.6,2.29,2.29,0,0,1-.66,1.63,2.12,2.12,0,0,1-1.59.71A2.21,2.21,0,0,1,389.6,22a2.25,2.25,0,0,1-.7-1.62,2.2,2.2,0,0,1,.67-1.61,2.24,2.24,0,0,1,1.64-.7A2.14,2.14,0,0,1,392.81,18.77Z"/></svg>