<svg id="Layer_1" data-name="Layer 1" xmlns="http://www.w3.org/2000/svg" viewBox="0 0 1180.57 424.94"><defs><style>.cls-1{fill:#fff;stroke:#1928eb;stroke-miterlimit:10;stroke-width:1.2px;}</style></defs><title>title</title><path class="cls-1" d="M.84,165.27q-1.51-10.75,6.49-19.4a31.63,31.63,0,0,1,19.32-10.23,50.55,50.55,0,0,1,7.08-.55q3.07,0,8.64.62t7.63.76a129,129,0,0,1,4.81,21.84,1.57,1.57,0,0,1-1.54,1.53q-3.87.54-4.34-.71-1.78-6.47-8-12t-13.79-4.5q-6.6.92-9.58,5.14T15.5,158.25a16.33,16.33,0,0,0,1.07,4,10.2,10.2,0,0,0,2.54,3.52q1.77,1.65,2.87,2.74a17.19,17.19,0,0,0,4,2.58q2.91,1.49,3.95,2.08t4.69,2.19A44.1,44.1,0,0,0,39,177.17a53.41,53.41,0,0,0,5.23,2.41q4.27,1.81,6,2.67t5.1,3a20.92,20.92,0,0,1,5.06,4.26A29.75,29.75,0,0,1,63.76,195a24.37,24.37,0,0,1,2.2,7.37q1.61,11.47-6.6,20.22A33.49,33.49,0,0,1,39,233q-8.6,1.2-26.94-.32a126.33,126.33,0,0,1-4.18-12.64A98.24,98.24,0,0,1,5.34,210c0-.78.7-1.27,2.13-1.47q3.73-.52,4.32.56a28.11,28.11,0,0,0,2.8,5.38,42.12,42.12,0,0,0,4.87,6A19.05,19.05,0,0,0,27,225.27a20.35,20.35,0,0,0,9.84.89,16.21,16.21,0,0,0,10.62-5.58q3.88-4.63,2.76-12.67a12.61,12.61,0,0,0-1.59-4.6,16.67,16.67,0,0,0-2.69-3.57,21.16,21.16,0,0,0-4.07-2.94q-2.63-1.53-4.34-2.32t-5.05-2.14q-3.33-1.36-4.72-1.9a9.94,9.94,0,0,0-1.74-.93q-4.52-2-6.87-3.13T13,182.93a28.65,28.65,0,0,1-5.82-4.52,27.28,27.28,0,0,1-3.92-5.59A21.81,21.81,0,0,1,.84,165.27Z"/><path class="cls-1" d="M98.29,158.64q8.89-1.24,14,2.79T119,176.8l4,28.24a6.61,6.61,0,0,0,1.9,4.19,4.35,4.35,0,0,0,3.65,1,9,9,0,0,0,4.61-2.55q.9.17,1.08,1.46a8.6,8.6,0,0,1-.26,4.42,35.84,35.84,0,0,1-5.23,4.39A15.09,15.09,0,0,1,122,220.8a10.57,10.57,0,0,1-6.79-1.53,11.88,11.88,0,0,1-4.9-4.72q-.12.17-.95,1.08t-2.31,2.3a42.87,42.87,0,0,1-3.41,2.82,23.08,23.08,0,0,1-4.6,2.62,21,21,0,0,1-5.55,1.58q-7.17,1-12.24-2.31t-6-10.19a13.35,13.35,0,0,1,.75-6.68,17.27,17.27,0,0,1,3.25-5.5,29.56,29.56,0,0,1,5.63-4.66,59.6,59.6,0,0,1,6.27-3.73q2.66-1.32,6.86-3.23t5.83-2.72a2.28,2.28,0,0,0,1-2.47l-1.1-7.89q-.7-5-3.4-7.56a7.56,7.56,0,0,0-6.57-2,8.78,8.78,0,0,0-6.37,3.6q-2.07,3-1.38,7.87A4.69,4.69,0,0,1,84.45,182a9,9,0,0,1-4.68,2q-5.31.74-7.94-2.4-1-6.88,7.59-14.22A36.3,36.3,0,0,1,98.29,158.64Zm1.25,56a11.23,11.23,0,0,0,6.39-2.94q2.51-2.4,2.15-5l-2-14.62q-.95.57-4,2T97.3,196.5a39.56,39.56,0,0,0-3.73,2.57,8.72,8.72,0,0,0-2.93,3.63,8,8,0,0,0-.51,4.16q.64,4.59,3.24,6.42A8.32,8.32,0,0,0,99.54,214.6Z"/><path class="cls-1" d="M179.86,147.22q18.5-2.59,22.61,26.8l1.91,13.62q1.22,8.75,2.81,12.76.43,1,4.23,1.53a22.19,22.19,0,0,0,5.1.38c.29,0,.55.63.79,2a8.22,8.22,0,0,1,.18,2.83q-.88,0-7.61.48t-10,1q-3.44.48-9.47,1.76t-7.3,1.61q-.66-.49-1-2.64t.27-2.23a17.25,17.25,0,0,0,4.65-1.75q3.07-1.53,3.22-2.57a41.52,41.52,0,0,0-.32-10.63L188,178.53q-1.67-11.9-5.55-16.18t-10.91-3.3a13.4,13.4,0,0,0-7.68,3.63q-3.09,3-2.69,5.86l3.45,24.66A60.59,60.59,0,0,0,167.48,206q.43,1,4.09,1.55a20.85,20.85,0,0,0,4.81.42q.57-.08.94,2a8.2,8.2,0,0,1,.18,2.83q-1.17,0-7.61.48t-9.74.92q-3.44.48-9.9,1.82t-7.59,1.65q-.66-.49-1-2.64c-.2-1.43-.11-2.18.27-2.23a20.21,20.21,0,0,0,5.08-1.81q3.36-1.57,3.51-2.61a47.25,47.25,0,0,0-.46-10.61l-3.27-23.37q-.94-6.74-3.58-8.85a7,7,0,0,0-3.53-1.7,16.53,16.53,0,0,0-3.56-.38c-.92,0-1.39,0-1.42-.24q-.58-4.16.11-4.4,6.51-1.5,22.48-7.53a.93.93,0,0,1,.33-.27,1.41,1.41,0,0,1,.42-.13l.36,0c.38-.05.76.24,1.14.86a4.43,4.43,0,0,1,.65,1.52,49,49,0,0,0,.15,5.24c.05.38.13.62.24.7a2.12,2.12,0,0,0,.66-.53,32.11,32.11,0,0,1,8-7.26A25.36,25.36,0,0,1,179.86,147.22Z"/><path class="cls-1" d="M247.53,137.75a35,35,0,0,1,13.9.61q6.3,1.68,9.3,4.33a17.91,17.91,0,0,1-.51,8.33,5.34,5.34,0,0,1-4.5,3.92,6.48,6.48,0,0,1-4.57-.82,16.47,16.47,0,0,1-4-4.26q-4.22-6.13-10.53-5.25t-8.95,7.61q-2.78,6.75-1.46,16.21,1.81,12.9,8,18.4a17.08,17.08,0,0,0,14.35,4.35,39.38,39.38,0,0,0,4.13-.8,21.58,21.58,0,0,0,3.63-1.24q1.65-.74,2.88-1.35a12.37,12.37,0,0,0,2.47-1.66l1.76-1.49q.52-.44,2.6-2.34a2.38,2.38,0,0,1,.84.76,2.8,2.8,0,0,1,.63,1.37,4.46,4.46,0,0,1-.48,2.84q-1.61,4.17-7.37,8.93A26.59,26.59,0,0,1,256.09,202a29.29,29.29,0,0,1-23-6.28,32,32,0,0,1-12.15-21.54,32.91,32.91,0,0,1,5.44-23.78Q233.62,139.7,247.53,137.75Z"/><path class="cls-1" d="M288.79,142.21,280,143.43q-1,.14-1.53-3.59a3.58,3.58,0,0,1,0-1.31,40.49,40.49,0,0,0,10-9.14q1.6-2.12,3.5-4.8t4.38-6.83a10.3,10.3,0,0,1,2.77,0q1.34.18,1.4.61l2,14q3.73-.52,10.41-1.38l7.11-.92q1.15-.16,1.33,1.13a14.06,14.06,0,0,1-.55,6.51l-17.2,2.41,4.84,34.55q.8,5.74,3.66,8.4a8.27,8.27,0,0,0,7.16,2.07,13.72,13.72,0,0,0,3-.78,15.43,15.43,0,0,0,2.47-1.15c.63-.38,1.21-.75,1.74-1.12a4.54,4.54,0,0,1,.94-.57q.55-.22,1.47,1.11t.83,1.78q-.58,2.13-5.44,5.51a22.8,22.8,0,0,1-9.88,4.09A18.25,18.25,0,0,1,301,191q-5.91-4.07-7.31-14.11Z"/><path class="cls-1" d="M394.07,133l4,28.39q1,6.88,2.55,9.88a3,3,0,0,0,1.81.92,11.25,11.25,0,0,0,2.59.22,21.84,21.84,0,0,0,2.39-.19,2.68,2.68,0,0,1,1.24,0c.39,0,.65.45.75,1.21a11,11,0,0,1,0,2c-.07.94-.29,1.43-.67,1.48a33.23,33.23,0,0,0-5,1.21q-3,.94-5.81,1.84t-5.3,1.84q-2.5.93-5.57,2-1,.14-1.33-2.15l-.88-6.31c-.16-.46-.34-.68-.53-.66a32.27,32.27,0,0,1-7.84,7.67,24.23,24.23,0,0,1-10.92,4.45,15.17,15.17,0,0,1-8.87-1.24A17.47,17.47,0,0,1,350,180a31.1,31.1,0,0,1-4.17-7.89,44.18,44.18,0,0,1-2.2-8.9l-2.25-16.06q-.94-6.74-3.58-8.85a8,8,0,0,0-3.6-1.69,15.23,15.23,0,0,0-3.56-.38c-1,0-1.47,0-1.49-.23q-.58-4.16.11-4.4a109.17,109.17,0,0,0,11.52-3.37,113.79,113.79,0,0,0,11-4.17,2.42,2.42,0,0,0,.55-.22,2.5,2.5,0,0,1,.55-.22c.48-.07.88.22,1.22.85a5.18,5.18,0,0,1,.58,1.53q.07,9.93.47,12.8l2.41,17.2q1.57,11.18,5.4,15.62T373.78,175a11.36,11.36,0,0,0,7.35-3.88q2.76-3.24,2.4-5.82l-3.31-23.66q-.94-6.74-3.58-8.85a7,7,0,0,0-3.53-1.7,16.38,16.38,0,0,0-3.63-.37c-1,0-1.47,0-1.49-.23q-.58-4.16.26-4.42a111.21,111.21,0,0,0,11.37-3.35,113.64,113.64,0,0,0,11-4.17,8.52,8.52,0,0,0,1.11-.45c.48-.07.91.22,1.29.84a2.67,2.67,0,0,1,.51,1.54Q393.7,130.45,394.07,133Z"/><path class="cls-1" d="M438.92,111q8.89-1.25,14,2.79t6.68,15.36l4,28.24a6.61,6.61,0,0,0,1.9,4.19,4.35,4.35,0,0,0,3.65,1,9,9,0,0,0,4.61-2.55q.9.17,1.08,1.46a8.61,8.61,0,0,1-.26,4.42,35.92,35.92,0,0,1-5.23,4.39,15.1,15.1,0,0,1-6.62,2.83,10.57,10.57,0,0,1-6.79-1.53,11.87,11.87,0,0,1-4.9-4.72q-.12.16-.95,1.08t-2.31,2.3a42.66,42.66,0,0,1-3.41,2.82,23.11,23.11,0,0,1-4.6,2.62,21,21,0,0,1-5.55,1.58q-7.17,1-12.24-2.31t-6-10.19a13.35,13.35,0,0,1,.75-6.68,17.27,17.27,0,0,1,3.25-5.5,29.66,29.66,0,0,1,5.63-4.66,59.67,59.67,0,0,1,6.28-3.73q2.66-1.32,6.86-3.23t5.83-2.72a2.28,2.28,0,0,0,1-2.47l-1.1-7.88q-.7-5-3.4-7.56a7.56,7.56,0,0,0-6.57-2,8.79,8.79,0,0,0-6.37,3.6q-2.07,3-1.38,7.87a4.69,4.69,0,0,1-1.56,4.53,9,9,0,0,1-4.68,2q-5.31.74-7.94-2.4-1-6.88,7.58-14.22A36.31,36.31,0,0,1,438.92,111Zm1.25,56a11.22,11.22,0,0,0,6.39-2.94q2.52-2.4,2.15-5l-2-14.62q-.95.57-4,2t-4.71,2.41a39.52,39.52,0,0,0-3.73,2.57,8.72,8.72,0,0,0-2.93,3.63,8,8,0,0,0-.51,4.17q.64,4.59,3.24,6.42A8.32,8.32,0,0,0,440.18,166.92Z"/><path class="cls-1" d="M515.62,100.22q7.88-1.1,12.42,3.09,1.71,12.19-5.17,13.15-2.58.36-6-2.08a9.06,9.06,0,0,0-6.57-2q-4.44.62-6.32,5.49a19.27,19.27,0,0,0-1.19,9.74l2.51,17.92a60.62,60.62,0,0,0,2.81,12.76q.43,1,4.09,1.55a20.46,20.46,0,0,0,5,.4c.29,0,.55.63.79,2a15.09,15.09,0,0,1,.32,2.81q-1.17,0-7.68.49t-9.81.94q-3.44.48-9.91,1.82t-7.59,1.65q-.66-.49-1-2.64c-.2-1.43-.11-2.18.27-2.23a20.19,20.19,0,0,0,5.08-1.81q3.36-1.57,3.51-2.61a47.26,47.26,0,0,0-.46-10.61l-3.27-23.37q-.94-6.74-3.58-8.85a7,7,0,0,0-3.53-1.7,16.57,16.57,0,0,0-3.56-.38c-.92,0-1.39,0-1.42-.24q-.58-4.16.11-4.4,6.51-1.49,22.48-7.53a8.75,8.75,0,0,1,1.11-.45c.38-.05.76.24,1.14.86a3.47,3.47,0,0,1,.59,1.6q0,.66.07,2c0,.92,0,1.89,0,2.92a18.33,18.33,0,0,0,.06,2,26.57,26.57,0,0,1,6.05-7.94A15.86,15.86,0,0,1,515.62,100.22Z"/><path class="cls-1" d="M550.8,96.76q3.15-.44,9-1.69T567,93.61a9.8,9.8,0,0,1,.65,2.54c.19,1.34.09,2-.29,2.09A15.79,15.79,0,0,0,563,99.95q-2.94,1.51-2.9,2.82l.12.86q.61,2.26,17.91,30.82.79-2.74,3.61-14.91t3.3-14a13.6,13.6,0,0,0,.24-4.56q-.26-1.86-2.78-3.19t-7.11-.68q-.57.08-.87-2.07a3.64,3.64,0,0,1,.23-2.52q1.72-.24,7.08-.55t8.8-.79q3-.42,7.32-1.46t6.32-1.32a4.13,4.13,0,0,1,.89,2.21c.21,1.53.13,2.32-.25,2.37a18.33,18.33,0,0,0-5.61,2.25q-3.6,2-4.34,5l-17.36,67q-6,22.18-18.43,23.92a7.83,7.83,0,0,1-6-1.2,6.76,6.76,0,0,1-.71-10.28q14.91-2.09,18-14.51,2.24-9.08,2.5-10.29l-27.75-45.82A18.74,18.74,0,0,0,543,106a8.7,8.7,0,0,0-4.68-2.63,13.69,13.69,0,0,0-4.81-.42q-.57.08-.85-1.93-.32-2.29.07-2.64.86-.12,7.73-.64T550.8,96.76Z"/><path class="cls-1" d="M615.67,120.57q-1.14-8.17.58-8.41l.14,0,34.31-6.56.14,0q.86-.12,1,1.17a27.78,27.78,0,0,1,.31,5.37,6,6,0,0,1-.62,2.86l-.35.63L616.9,122l-.29,0q-.15,0-.49-.37A2,2,0,0,1,615.67,120.57Z"/><path class="cls-1" d="M673.87,121.78l-7.59-54.19Q665.08,59,663.64,56q-.65-1.52-4.38-2a22.85,22.85,0,0,0-5.87-.2q-.57.08-.87-2.07a3.94,3.94,0,0,1,.21-2.66q9.52-.9,19.13-2.24,7.31-1,12.32-1.8t8.59-1.28a42.91,42.91,0,0,1,21.09,2.38,21.33,21.33,0,0,1,9,6.56,22,22,0,0,1,4.71,11.18,17,17,0,0,1-1.67,10,23.4,23.4,0,0,1-4.79,7A24,24,0,0,1,717,84q-1.09.59-.45.94,5.42.12,12.88,5.87a22.78,22.78,0,0,1,8.82,15.5,23.36,23.36,0,0,1-7.21,21q-8.94,8.71-25.45,10.87L685.18,141l-19,3.24a3.78,3.78,0,0,1-.75-2.23q-.34-2.44.09-2.5a23.93,23.93,0,0,0,5.32-1.69q3.45-1.43,3.85-2.8Q675.28,131.82,673.87,121.78ZM702,83.49q10.14-3.76,8.5-15.51-2.71-19.35-19.2-17-6.74.94-9.08,2a1.45,1.45,0,0,0-.93,1.74l1.64,13.8,2.35,16.77q.2,1.44,8.8.23A28.62,28.62,0,0,0,702,83.49Zm19,26.87q-1.28-9.17-7.21-14.41T696.5,92.3a60.16,60.16,0,0,0-8.79,2q-1,.88-.75,3L690.7,124q.84,6,2.76,7.21t9.38.15a29.57,29.57,0,0,0,6.07-1.51,30.77,30.77,0,0,0,6.2-3.21,13,13,0,0,0,5-6.39A19.33,19.33,0,0,0,721,110.37Z"/><path class="cls-1" d="M805.66,75.41l4,28.39q1,6.88,2.55,9.88a3,3,0,0,0,1.81.92,11.23,11.23,0,0,0,2.59.22,21.48,21.48,0,0,0,2.39-.19,2.67,2.67,0,0,1,1.24,0c.39,0,.65.45.75,1.21a11,11,0,0,1,0,2c-.06.94-.29,1.43-.67,1.48a33.29,33.29,0,0,0-5,1.21q-3,.94-5.81,1.84t-5.3,1.84q-2.5.93-5.57,1.95-1,.14-1.33-2.15l-.88-6.31c-.16-.46-.34-.68-.53-.66a32.27,32.27,0,0,1-7.84,7.68,24.25,24.25,0,0,1-10.92,4.45,15.18,15.18,0,0,1-8.87-1.24,17.48,17.48,0,0,1-6.62-5.51,31.1,31.1,0,0,1-4.17-7.89,44.29,44.29,0,0,1-2.2-8.9L753,89.51q-.94-6.74-3.58-8.85a8,8,0,0,0-3.6-1.69,15.24,15.24,0,0,0-3.56-.38c-1,0-1.47,0-1.49-.23q-.58-4.16.11-4.4a109.24,109.24,0,0,0,11.52-3.37,114,114,0,0,0,11-4.17,2.35,2.35,0,0,0,.55-.22,2.5,2.5,0,0,1,.55-.22c.48-.07.88.22,1.22.85a5.18,5.18,0,0,1,.58,1.53q.07,9.93.48,12.8l2.41,17.2q1.57,11.18,5.4,15.62t10.86,3.45a11.36,11.36,0,0,0,7.35-3.88q2.76-3.24,2.4-5.82l-3.31-23.66q-.94-6.74-3.58-8.85a7,7,0,0,0-3.53-1.7,16.36,16.36,0,0,0-3.63-.37q-1.45.06-1.49-.23-.58-4.16.26-4.42a111.36,111.36,0,0,0,11.37-3.35,114,114,0,0,0,11-4.17,8.67,8.67,0,0,0,1.11-.45c.48-.07.91.22,1.29.84a2.67,2.67,0,0,1,.51,1.54Q805.3,72.83,805.66,75.41Z"/><path class="cls-1" d="M852,97q1.22,8.75,3,12.74.43,1,4.16,1.54a21.35,21.35,0,0,0,5,.39q.57-.08.94,2a8.23,8.23,0,0,1,.18,2.83q-1,0-7.75.5t-9.88.94q-3.59.5-10,1.84t-7.45,1.63q-.66-.49-1-2.64c-.2-1.43-.11-2.18.27-2.23a21,21,0,0,0,5-1.8q3.43-1.58,3.58-2.62a47.25,47.25,0,0,0-.46-10.61l-3.27-23.37q-.94-6.74-3.58-8.85a8,8,0,0,0-3.6-1.69,15.26,15.26,0,0,0-3.56-.38c-1,0-1.47,0-1.49-.23q-.58-4.16.26-4.42a111.18,111.18,0,0,0,11.37-3.35,113.81,113.81,0,0,0,11-4.17,8.62,8.62,0,0,0,1.11-.45c.48-.07.91.22,1.29.84a2.67,2.67,0,0,1,.51,1.54,124.34,124.34,0,0,0,.58,12.49ZM828.64,39.09a8.82,8.82,0,0,1-3.46-5.95,8.9,8.9,0,0,1,7.65-10.06A8.9,8.9,0,0,1,843,30.65a8.83,8.83,0,0,1-1.7,6.67,8.92,8.92,0,0,1-12.62,1.77Z"/><path class="cls-1" d="M894.35,90.77q1.25,8.89,2.81,12.76.43,1,3.82,1.73a15.83,15.83,0,0,0,4.54.61q.43-.06.78,1.94a7.87,7.87,0,0,1,.17,2.75L901,111q-3.4.26-6.14.49t-5.18.58q-2.72.38-5.43.91t-6,1.2l-5.4,1.12a4.09,4.09,0,0,1-.94-2.57q-.29-2.08.28-2.16a15.47,15.47,0,0,0,4.63-1.89q3.06-1.67,3.2-2.71a48,48,0,0,0-.34-10.77l-8.35-59.64a50.38,50.38,0,0,0-2.23-9.63q-1-2.19-7.49-1.29l-1.43.2q-.86.12-1.1-1.6-.32-2.29.54-2.41,4.38-1.05,8.3-2.33t6.47-2.37q2.55-1.09,4.4-2c1.23-.61,2.21-1.11,2.93-1.51l.94-.57.29,0a1.74,1.74,0,0,1,1.34.69,4.43,4.43,0,0,1,1,1.32,45.75,45.75,0,0,0,.17,13.72Z"/><path class="cls-1" d="M937.93,40.82a24.88,24.88,0,0,1,10.75.54c.48-.07.61-.86.4-2.39l-1.89-13.48A50.5,50.5,0,0,0,945,15.86q-1-2.19-7.78-1.25l-1.15.16q-.86.12-1.18-2.17t.54-2.41q4.24-1,8.23-2.32t6.54-2.38q2.55-1.09,4.39-2.08l2.79-1.49a7.36,7.36,0,0,1,1.1-.52l.29,0A1.56,1.56,0,0,1,960,2a2.61,2.61,0,0,1,.79,1.42,55.45,55.45,0,0,0,.45,13.68L970,80.18a53,53,0,0,0,2.34,10.49A2.13,2.13,0,0,0,974,92a8.86,8.86,0,0,0,2.83.34c1,0,1.89-.09,2.75-.17l1.44-.13q.33.25.53,1.68.4,2.87-.46,3-2,.43-5,1.29t-5.89,1.78q-2.87.92-5.45,1.79T959,103.65q-.86.12-1.2-2.32l-.34-2.44a.65.65,0,0,0-.29-.54c-.16-.07-.28-.06-.36.05a24.16,24.16,0,0,1-14.17,7.39,28.05,28.05,0,0,1-21.41-5.7q-9.79-7.32-11.6-20.23A34,34,0,0,1,916,54.19Q924.45,42.7,937.93,40.82Zm-.33,7.06A12.67,12.67,0,0,0,927,55.94q-3,7-1.44,17.89Q927.3,86,932.7,92.2a14.21,14.21,0,0,0,13.43,5.06,12,12,0,0,0,7.53-3.61,8,8,0,0,0,2.12-6.8l-4.21-30.11a10.06,10.06,0,0,0-.92-2.94,13.46,13.46,0,0,0-2.19-3.13,9.24,9.24,0,0,0-4.29-2.47A15.38,15.38,0,0,0,937.6,47.88Z"/><path class="cls-1" d="M1011.8,74.62q1.22,8.75,3,12.74.43,1,4.16,1.54a21.32,21.32,0,0,0,5,.39q.57-.08.94,2a8.19,8.19,0,0,1,.18,2.83q-1,0-7.75.5t-9.88.94q-3.59.5-10,1.84T989.93,99q-.66-.49-1-2.64c-.2-1.43-.11-2.18.27-2.23a21,21,0,0,0,5-1.8q3.43-1.58,3.58-2.62a47.25,47.25,0,0,0-.46-10.61l-3.27-23.37q-.94-6.74-3.58-8.85a8,8,0,0,0-3.6-1.69,15.23,15.23,0,0,0-3.56-.38q-1.45.06-1.49-.23-.58-4.16.26-4.42a111.21,111.21,0,0,0,11.37-3.35,113.83,113.83,0,0,0,11-4.17,8.8,8.8,0,0,0,1.11-.45c.48-.07.91.22,1.29.84a2.67,2.67,0,0,1,.51,1.54A124.32,124.32,0,0,0,1008,47.1ZM988.49,16.71A8.82,8.82,0,0,1,985,10.76a8.58,8.58,0,0,1,1.71-6.6,9,9,0,0,1,16.07,4.11,8.82,8.82,0,0,1-1.7,6.67,8.92,8.92,0,0,1-12.62,1.77Z"/><path class="cls-1" d="M1070.15,22.6q18.5-2.59,22.61,26.8L1094.67,63a60.53,60.53,0,0,0,2.81,12.76q.43,1,4.23,1.53a22.18,22.18,0,0,0,5.1.38c.29,0,.55.63.79,2a8.17,8.17,0,0,1,.18,2.83q-.88,0-7.61.48t-10,1q-3.44.48-9.47,1.76t-7.3,1.61q-.65-.49-1-2.64t.27-2.23a17.23,17.23,0,0,0,4.65-1.75q3.08-1.53,3.22-2.57a41.56,41.56,0,0,0-.32-10.63l-1.91-13.62q-1.67-11.9-5.55-16.18t-10.91-3.29a13.4,13.4,0,0,0-7.68,3.63q-3.09,3-2.69,5.86L1055,68.58q1.22,8.75,2.81,12.76.43,1,4.09,1.55a20.85,20.85,0,0,0,4.81.42q.57-.08.94,2a8.23,8.23,0,0,1,.18,2.83q-1.17,0-7.61.48t-9.74.92q-3.44.48-9.91,1.82T1032.94,93q-.66-.49-1-2.64t.27-2.23a20.21,20.21,0,0,0,5.08-1.81q3.36-1.57,3.51-2.61a47.25,47.25,0,0,0-.46-10.61l-3.27-23.37q-.94-6.74-3.58-8.85a7,7,0,0,0-3.53-1.7,16.53,16.53,0,0,0-3.56-.38c-.92,0-1.39,0-1.42-.24q-.58-4.16.11-4.4,6.52-1.5,22.48-7.53a.94.94,0,0,1,.33-.27,1.42,1.42,0,0,1,.42-.13l.36,0c.38-.05.76.24,1.14.86a4.41,4.41,0,0,1,.65,1.52,49.16,49.16,0,0,0,.15,5.24c.05.38.13.62.24.7a2.11,2.11,0,0,0,.66-.53,32.11,32.11,0,0,1,8-7.26A25.36,25.36,0,0,1,1070.15,22.6Z"/><path class="cls-1" d="M1134.42,13.9a45.9,45.9,0,0,1,12.16.2,44.63,44.63,0,0,0,11.73.26l8.17-1.14c.19,0,.61.55,1.26,1.72a8.92,8.92,0,0,1,1.12,2.77q.28,2-.58,2.13l-9.32,1.3c-.38.05-.55.22-.51.51q0,.14,1.81,3.55a20.54,20.54,0,0,1,2.25,6.7q1.19,8.46-5,16.26a24.8,24.8,0,0,1-16.75,9.29,59.81,59.81,0,0,1-9,.67,7.79,7.79,0,0,0-2.78,3.09,6.16,6.16,0,0,0-.94,3.71,3,3,0,0,0,1.7,2.25,9.74,9.74,0,0,0,4.43.84q2.93,0,5-.11t5.77-.52l2.15-.3q14.4-1.58,21.55,1t8.14,9.6q1.65,10.73-7.71,20.08A39.56,39.56,0,0,1,1146,109a37.63,37.63,0,0,1-18.84-1.46q-8.4-3.07-9.46-10.66-.58-4.16,3-8.6a23.94,23.94,0,0,1,8.05-6.68,16.51,16.51,0,0,1-7.49-3.41,10.53,10.53,0,0,1-4.21-7.08q-.86-6.16,8.82-14.25-4.42-1.28-8.78-6.3a21.3,21.3,0,0,1-5.22-11.18q-1.43-10.18,5.21-17.1T1134.42,13.9Zm-8,22.31A22.9,22.9,0,0,0,1131,47.64a9,9,0,0,0,8.7,3.68q5.3-.74,7.24-5.18A19.18,19.18,0,0,0,1148,35.68q-1.06-7.6-4.59-11.93a9.26,9.26,0,0,0-9-3.57,8.17,8.17,0,0,0-7,5.51A21,21,0,0,0,1126.44,36.21Zm38.27,49.9q-.7-5-8.17-5.65t-19.66,1.07a2.35,2.35,0,0,0-.7.24,6.43,6.43,0,0,0-.66.53q-1.76,1-2.7,1.62a12.44,12.44,0,0,0-2.07,1.9,7,7,0,0,0-1.58,2.78,8.43,8.43,0,0,0-.16,3.53q.72,5.16,6.65,7.84a22.55,22.55,0,0,0,12.67,1.74q8-1.12,12.6-5.56T1164.7,86.11Z"/><path class="cls-1" d="M20.92,300.36q.2-10.86,9.46-18.14a31.63,31.63,0,0,1,20.69-7.07,50.9,50.9,0,0,1,7.08.57q3,.49,8.43,2T74,279.63A129.09,129.09,0,0,1,75.33,302a1.58,1.58,0,0,1-1.76,1.27q-3.91-.07-4.17-1.38-.75-6.67-6-13.14t-12.91-6.61q-6.66-.12-10.27,3.57T36.5,295.73a16.32,16.32,0,0,0,.43,4.13,10.21,10.21,0,0,0,2,3.87q1.49,1.91,2.4,3.16a17.22,17.22,0,0,0,3.56,3.18q2.64,1.93,3.57,2.67t4.29,2.9a44,44,0,0,0,4.08,2.46,53.31,53.31,0,0,0,4.79,3.2q3.94,2.46,5.51,3.58t4.56,3.78a20.92,20.92,0,0,1,4.32,5,29.7,29.7,0,0,1,2.42,5.91,24.38,24.38,0,0,1,1,7.62q-.22,11.58-9.69,18.93a33.48,33.48,0,0,1-21.78,7.12q-8.68-.16-26.56-4.55a126.68,126.68,0,0,1-2.14-13.14,98.2,98.2,0,0,1-.89-10.37q.16-1.15,2.34-1.11,3.76.07,4.18,1.24a28.25,28.25,0,0,0,1.92,5.75,42.12,42.12,0,0,0,3.86,6.73,19,19,0,0,0,6.7,5.92,20.34,20.34,0,0,0,9.58,2.42,16.22,16.22,0,0,0,11.37-3.84q4.56-4,4.71-12.07a12.61,12.61,0,0,0-.85-4.79,16.76,16.76,0,0,0-2.1-3.95,21.18,21.18,0,0,0-3.55-3.54q-2.35-1.92-3.93-3t-4.65-2.91q-3.08-1.87-4.37-2.62A9.88,9.88,0,0,0,42,328.26q-4.15-2.68-6.29-4.17a70.14,70.14,0,0,1-5.49-4.37,28.64,28.64,0,0,1-5-5.38,27.41,27.41,0,0,1-3-6.14A21.81,21.81,0,0,1,20.92,300.36Z"/><path class="cls-1" d="M118.2,309.12q9,.17,13.37,5t4.19,16.22l-.53,28.51a6.61,6.61,0,0,0,1.22,4.44,4.35,4.35,0,0,0,3.45,1.58,9,9,0,0,0,5-1.79q.86.31.84,1.61a8.61,8.61,0,0,1-1,4.33,35.82,35.82,0,0,1-5.86,3.51,15.09,15.09,0,0,1-7,1.75,10.57,10.57,0,0,1-6.47-2.58,11.86,11.86,0,0,1-4.1-5.43q-.15.14-1.1.92t-2.64,1.91a42.71,42.71,0,0,1-3.81,2.25,23.18,23.18,0,0,1-5,1.86,21,21,0,0,1-5.73.69q-7.24-.13-11.72-4.2t-4.35-11a13.35,13.35,0,0,1,1.78-6.48,17.28,17.28,0,0,1,4.07-4.92,29.66,29.66,0,0,1,6.29-3.72,59.65,59.65,0,0,1,6.78-2.7q2.84-.89,7.28-2.11t6.19-1.77a2.27,2.27,0,0,0,1.35-2.29l.15-8q.09-5.06-2.17-8a7.56,7.56,0,0,0-6.17-3,8.78,8.78,0,0,0-6.85,2.55q-2.51,2.63-2.6,7.55a4.69,4.69,0,0,1-2.25,4.23,9,9,0,0,1-4.95,1.28q-5.36-.1-7.46-3.61.13-6.95,9.72-12.85A36.31,36.31,0,0,1,118.2,309.12Zm-7.55,55.46a11.22,11.22,0,0,0,6.77-1.9q2.86-2,2.91-4.58l.27-14.76q-1,.42-4.3,1.37t-5,1.64a39.51,39.51,0,0,0-4.09,2,8.72,8.72,0,0,0-3.46,3.12,8,8,0,0,0-1.16,4q-.09,4.63,2.19,6.85A8.33,8.33,0,0,0,110.65,364.58Z"/><path class="cls-1" d="M200.56,310.65q18.67.35,18.12,30l-.26,13.75a60.53,60.53,0,0,0,.77,13q.27,1,3.94,2.17a22.21,22.21,0,0,0,5,1.18c.29,0,.44.71.47,2.11a8.22,8.22,0,0,1-.27,2.82q-.87-.16-7.59-.72t-10.05-.62q-3.47-.06-9.63.26t-7.46.44q-.57-.59-.53-2.76t.62-2.16a17.2,17.2,0,0,0,4.87-1q3.28-1,3.58-2a41.58,41.58,0,0,0,1.35-10.54l.26-13.75q.22-12-2.94-16.85t-10.26-5a13.4,13.4,0,0,0-8.15,2.38q-3.52,2.47-3.57,5.36l-.46,24.9a60.69,60.69,0,0,0,.77,13q.27,1,3.8,2.17a20.85,20.85,0,0,0,4.68,1.17c.38,0,.59.71.61,2.11a8.22,8.22,0,0,1-.27,2.82q-1.16-.17-7.59-.72t-9.76-.62q-3.47-.06-10.07.25t-7.75.43c-.38-.39-.55-1.31-.53-2.76s.23-2.17.62-2.16a20.2,20.2,0,0,0,5.3-1q3.57-1,3.87-2a47.28,47.28,0,0,0,1.21-10.55l.44-23.59q.13-6.8-2.14-9.31a7,7,0,0,0-3.22-2.23,16.55,16.55,0,0,0-3.46-.93c-.92-.11-1.37-.27-1.37-.46q.08-4.2.8-4.33,6.67-.45,23.38-3.91a.94.94,0,0,1,.37-.21,1.38,1.38,0,0,1,.44-.06h.36c.38,0,.72.35,1,1a4.43,4.43,0,0,1,.41,1.6,48.75,48.75,0,0,0-.68,5.2,1.13,1.13,0,0,0,.13.73,2.15,2.15,0,0,0,.73-.42,32.08,32.08,0,0,1,9-5.91A25.34,25.34,0,0,1,200.56,310.65Z"/><path class="cls-1" d="M268.87,311.92a34.94,34.94,0,0,1,13.63,2.79q6,2.65,8.51,5.73a17.88,17.88,0,0,1-1.82,8.15,5.34,5.34,0,0,1-5.05,3.16,6.48,6.48,0,0,1-4.39-1.53,16.44,16.44,0,0,1-3.31-4.84q-3.21-6.72-9.57-6.84t-10,6.11q-3.81,6.23-4,15.78-.24,13,5,19.42a17.09,17.09,0,0,0,13.49,6.55,39.55,39.55,0,0,0,4.2-.14,21.66,21.66,0,0,0,3.78-.65q1.74-.47,3.06-.88a12.44,12.44,0,0,0,2.7-1.25l2-1.19q.58-.35,2.93-1.9a2.38,2.38,0,0,1,.71.88,2.8,2.8,0,0,1,.41,1.46,4.46,4.46,0,0,1-.92,2.73q-2.25,3.87-8.69,7.66a26.6,26.6,0,0,1-14.26,3.64,29.29,29.29,0,0,1-21.75-9.82,32,32,0,0,1-8.62-23.18A32.91,32.91,0,0,1,246,321.13Q254.83,311.66,268.87,311.92Z"/><path class="cls-1" d="M308.92,322.8l-8.83-.16q-1,0-.94-3.78a3.6,3.6,0,0,1,.17-1.3,40.47,40.47,0,0,0,11.29-7.46q1.92-1.84,4.21-4.19t5.4-6.05a10.31,10.31,0,0,1,2.74.41q1.3.39,1.29.82L324,315.27q3.76.07,10.49.27l7.16.21q1.16,0,1.13,1.32a14.07,14.07,0,0,1-1.57,6.34l-17.37-.32L323.18,358q-.11,5.79,2.3,8.87a8.27,8.27,0,0,0,6.75,3.17,13.72,13.72,0,0,0,3-.31,15.35,15.35,0,0,0,2.62-.75c.68-.28,1.31-.56,1.9-.83a4.59,4.59,0,0,1,1-.42q.58-.13,1.28,1.33t.54,1.89q-.91,2-6.24,4.59A22.81,22.81,0,0,1,326,378a18.25,18.25,0,0,1-12.72-5.09q-5.2-4.95-5-15.08Z"/><path class="cls-1" d="M414.33,330.27l-.53,28.66q-.13,6.95,1,10.15a3,3,0,0,0,1.64,1.19,11.28,11.28,0,0,0,2.52.63,21.55,21.55,0,0,0,2.38.19,2.68,2.68,0,0,1,1.23.17c.38.1.57.54.55,1.31a11,11,0,0,1-.33,1.95q-.32,1.37-.89,1.36a33.36,33.36,0,0,0-5.15.41q-3.12.45-6,.9t-5.52,1q-2.61.53-5.81,1.05c-.68,0-1-.79-1-2.34l.12-6.37q-.13-.73-.42-.73a32.28,32.28,0,0,1-9,6.35,24.24,24.24,0,0,1-11.49,2.68,15.16,15.16,0,0,1-8.57-2.62,17.46,17.46,0,0,1-5.67-6.48,31.09,31.09,0,0,1-2.88-8.45,44.18,44.18,0,0,1-.77-9.14l.3-16.21q.13-6.8-2.14-9.31a8,8,0,0,0-3.29-2.23,15.27,15.27,0,0,0-3.46-.93q-1.45-.17-1.44-.46.08-4.2.8-4.33a109.29,109.29,0,0,0,11.9-1.52,113.6,113.6,0,0,0,11.48-2.39,2.33,2.33,0,0,0,.58-.13,2.43,2.43,0,0,1,.58-.13c.48,0,.84.35,1.07,1a5.19,5.19,0,0,1,.33,1.6Q375,326.93,375,329.82l-.32,17.37q-.21,11.29,2.88,16.27t10.18,5.11a11.37,11.37,0,0,0,7.87-2.68q3.23-2.76,3.28-5.37l.44-23.88q.13-6.8-2.14-9.31a7,7,0,0,0-3.22-2.23,16.33,16.33,0,0,0-3.53-.93Q389,324,389,323.71q.08-4.2.95-4.33a111.35,111.35,0,0,0,11.76-1.52,113.4,113.4,0,0,0,11.48-2.39,8.45,8.45,0,0,0,1.16-.27c.48,0,.86.35,1.14,1a2.67,2.67,0,0,1,.26,1.6Q414.37,327.66,414.33,330.27Z"/><path class="cls-1" d="M462.09,315.52q9,.17,13.37,5t4.19,16.22l-.53,28.51a6.61,6.61,0,0,0,1.22,4.44,4.35,4.35,0,0,0,3.45,1.58,9,9,0,0,0,5-1.79q.86.31.84,1.61a8.62,8.62,0,0,1-.95,4.33,35.9,35.9,0,0,1-5.86,3.51,15.09,15.09,0,0,1-7,1.75,10.57,10.57,0,0,1-6.47-2.58,11.87,11.87,0,0,1-4.1-5.43q-.15.14-1.1.92t-2.64,1.91a42.58,42.58,0,0,1-3.81,2.25,23.11,23.11,0,0,1-5,1.86,21,21,0,0,1-5.73.69q-7.24-.13-11.72-4.2t-4.35-11a13.35,13.35,0,0,1,1.78-6.48,17.28,17.28,0,0,1,4.07-4.92,29.69,29.69,0,0,1,6.29-3.72,59.65,59.65,0,0,1,6.78-2.7q2.84-.89,7.28-2.11t6.19-1.77a2.28,2.28,0,0,0,1.35-2.29l.15-8q.09-5.07-2.17-8a7.56,7.56,0,0,0-6.17-3,8.78,8.78,0,0,0-6.85,2.55q-2.51,2.63-2.6,7.55a4.69,4.69,0,0,1-2.25,4.23,9,9,0,0,1-4.95,1.28q-5.36-.1-7.46-3.61.13-6.95,9.72-12.85A36.31,36.31,0,0,1,462.09,315.52ZM454.55,371a11.22,11.22,0,0,0,6.77-1.9q2.86-2,2.91-4.58l.27-14.76q-1,.42-4.3,1.37t-5,1.64a39.62,39.62,0,0,0-4.09,2,8.73,8.73,0,0,0-3.46,3.12,8,8,0,0,0-1.16,4q-.09,4.63,2.19,6.85A8.33,8.33,0,0,0,454.55,371Z"/><path class="cls-1" d="M539.53,317q8,.15,11.78,5-.23,12.3-7.18,12.17-2.61,0-5.59-3a9.06,9.06,0,0,0-6.17-3q-4.49-.08-7.1,4.43a19.27,19.27,0,0,0-2.71,9.43l-.34,18.09a60.69,60.69,0,0,0,.77,13q.27,1,3.8,2.17a20.43,20.43,0,0,0,4.83,1.18c.29,0,.44.71.47,2.11a15.15,15.15,0,0,1-.12,2.82q-1.16-.17-7.66-.72t-9.83-.62q-3.47-.07-10.07.25t-7.75.43c-.38-.39-.55-1.31-.53-2.76s.23-2.17.62-2.16a20.2,20.2,0,0,0,5.3-1q3.57-1,3.87-2a47.28,47.28,0,0,0,1.21-10.55l.44-23.59q.13-6.8-2.14-9.31a7,7,0,0,0-3.22-2.23,16.56,16.56,0,0,0-3.46-.93c-.92-.11-1.37-.27-1.37-.46q.08-4.2.8-4.33,6.67-.45,23.38-3.91a8.72,8.72,0,0,1,1.16-.27c.38,0,.72.35,1,1a3.48,3.48,0,0,1,.33,1.67q-.09.65-.25,2c-.12.92-.25,1.88-.42,2.89a18.53,18.53,0,0,0-.25,1.95,26.55,26.55,0,0,1,7.22-6.89A15.86,15.86,0,0,1,539.53,317Z"/><path class="cls-1" d="M574.82,319.06q3.18.06,9.13-.26t7.39-.3a9.84,9.84,0,0,1,.24,2.61q0,2-.62,2a15.81,15.81,0,0,0-4.58,1q-3.13,1-3.3,2.33l0,.87q.24,2.32,12.85,33.25,1.2-2.58,5.91-14.15t5.46-13.29a13.6,13.6,0,0,0,1-4.47q0-1.88-2.25-3.59t-6.92-1.79q-.58,0-.54-2.18a3.63,3.63,0,0,1,.63-2.45q1.74,0,7.08.57t8.82.6q3,.06,7.46-.3t6.45-.31a4.12,4.12,0,0,1,.54,2.33q0,2.32-.62,2.31a18.35,18.35,0,0,0-5.89,1.34q-3.86,1.38-5.07,4.25L590.24,392.9q-9.37,21-22,20.73a7.84,7.84,0,0,1-5.75-2.13,6.76,6.76,0,0,1,.92-10.26q15.05.28,20-11.5,3.63-8.62,4.09-9.77l-20.22-49.6a18.78,18.78,0,0,0-1.67-3.36,8.7,8.7,0,0,0-4.21-3.34,13.7,13.7,0,0,0-4.68-1.17q-.58,0-.54-2,0-2.31.48-2.6.87,0,7.73.58T574.82,319.06Z"/><path class="cls-1" d="M635.14,352.76q.15-8.25,1.89-8.22h.14l34.91-1.09h.15q.87,0,.84,1.32a27.77,27.77,0,0,1-.53,5.35,6,6,0,0,1-1.06,2.73l-.45.57-34.91.94h-.29q-.15,0-.43-.44A2,2,0,0,1,635.14,352.76Z"/><path class="cls-1" d="M709.8,309.12l-.43,23.3a.89.89,0,0,0,.21.66,1.85,1.85,0,0,0,.5.37h.15l1.16,0q3,.06,7.62-4.78,11.81-12.23,26-28.47,2.37-2.7,2.4-4.3t-3.15-2.09a31.07,31.07,0,0,0-5.35-.68c-.39,0-.62-.57-.69-1.68a7.57,7.57,0,0,1,.19-2.67q16.05,1.17,17.5,1.19,2.75.05,5.43,0t5.79-.25l5.15-.27a6.11,6.11,0,0,1,.17,2.46c-.07,1.25-.25,1.88-.54,1.87q-10.15,1-14.73,5.81l-27.49,30.18q-1.63,1.85.21,4.06L763,374.69a14.73,14.73,0,0,0,6.93,4.76,23.59,23.59,0,0,0,6.41,1.57q.72,0,.67,2.76a4.48,4.48,0,0,1-.47,2q-17.35-1.19-19.81-1.24-4.63-.09-11.08.16l-9.05.34a4.09,4.09,0,0,1-.53-2.69c0-1.4.23-2.1.62-2.09a11.21,11.21,0,0,0,4.07-.94q2.48-1,2.5-2.13,0-.72-3.94-6.15t-10.89-13.88q-6.94-8.45-13.75-15.82-.57-.59-3.17-.64-2.32,0-2.35,1.69l-.4,21.42a52.24,52.24,0,0,0,1.06,12.76q.27,1,3.94,2.17a22.21,22.21,0,0,0,5,1.18q.58,0,.53,2.76a6.47,6.47,0,0,1-.33,2q-17.35-1.19-18.37-1.21-2.9-.05-6.08,0t-7,.23l-6.16.25a2.82,2.82,0,0,1-.54-2q.05-2.75.63-2.74a23.06,23.06,0,0,0,5.45-.91q3.71-.94,4.17-2.09a50.75,50.75,0,0,0,1.38-12.14l1-55.87q.16-8.68-.93-12.18-.56-1.17-4-2.32a19.43,19.43,0,0,0-5.19-1.18c-.39,0-.57-.73-.54-2.18a5.84,5.84,0,0,1,.34-2.6q.72,0,8,.58t11.21.64q1.16,0,18.54-.52a7.44,7.44,0,0,1,.39,2.32c0,1.64-.24,2.46-.62,2.45a23.61,23.61,0,0,0-5.23,1.06q-3.93,1.09-4.24,2.09A53.78,53.78,0,0,0,709.8,309.12Z"/><path class="cls-1" d="M816.27,322.11a26.84,26.84,0,0,1,12.11,2.9,22.92,22.92,0,0,1,8.27,7,33.66,33.66,0,0,1,4.47,8.63,25,25,0,0,1,1.44,8.5q-.06,3.19-1.16,4t-4.43.71l-34.59-.64q-1,0-1,.85A28.15,28.15,0,0,0,803,364.14a19.92,19.92,0,0,0,6.28,8.66,17,17,0,0,0,10.86,3.82,39.3,39.3,0,0,0,4.2-.14,21.55,21.55,0,0,0,3.78-.65q1.75-.47,3.06-.88a12.39,12.39,0,0,0,2.7-1.25l2-1.19q.58-.35,2.93-1.9a2.39,2.39,0,0,1,.71.88,2.8,2.8,0,0,1,.41,1.46,4.46,4.46,0,0,1-.92,2.73q-2.24,3.87-8.68,7.66a26.86,26.86,0,0,1-14.4,3.64,29.32,29.32,0,0,1-21.54-9.74,31.22,31.22,0,0,1-8.7-22.82q.27-14.62,8.91-23.58T816.27,322.11Zm-1.14,6.64a10.23,10.23,0,0,0-6.26,1.91,13.65,13.65,0,0,0-4.29,4.84,27.68,27.68,0,0,0-2.2,5.39,17.68,17.68,0,0,0-.73,4.26q0,1,.85,1l23.45.44q1.3,0,1.34-2.15a18.77,18.77,0,0,0-3.21-10.34Q820.77,328.85,815.13,328.75Z"/><path class="cls-1" d="M879.37,323.28a26.85,26.85,0,0,1,12.11,2.9,22.91,22.91,0,0,1,8.27,7,33.69,33.69,0,0,1,4.47,8.63,25,25,0,0,1,1.44,8.5q-.06,3.19-1.16,4t-4.43.71l-34.59-.64q-1,0-1,.85a28.14,28.14,0,0,0,1.69,10.17,19.91,19.91,0,0,0,6.28,8.66,17,17,0,0,0,10.86,3.82,39.44,39.44,0,0,0,4.2-.14,21.56,21.56,0,0,0,3.78-.65q1.75-.47,3.06-.88a12.44,12.44,0,0,0,2.7-1.25l2-1.19q.58-.35,2.93-1.9a2.39,2.39,0,0,1,.71.88,2.8,2.8,0,0,1,.41,1.46,4.46,4.46,0,0,1-.92,2.73q-2.24,3.87-8.68,7.66a26.86,26.86,0,0,1-14.4,3.64,29.32,29.32,0,0,1-21.54-9.74,31.22,31.22,0,0,1-8.7-22.82q.27-14.62,8.91-23.58T879.37,323.28Zm-1.14,6.64a10.23,10.23,0,0,0-6.26,1.91,13.64,13.64,0,0,0-4.29,4.84,27.67,27.67,0,0,0-2.2,5.39,17.68,17.68,0,0,0-.73,4.26q0,1,.85,1l23.45.44q1.3,0,1.34-2.15a18.76,18.76,0,0,0-3.21-10.34Q883.88,330,878.23,329.92Z"/><path class="cls-1" d="M952.31,324.78a29.29,29.29,0,0,1,16.41,5.08,30.33,30.33,0,0,1,13.7,26q-.28,14.91-10.52,24.49a33.2,33.2,0,0,1-24.14,9.32,33.62,33.62,0,0,1-10.24-2.22q-.58,0-.62,2l-.18,9.84q-.17,9,.92,13,.12,1.16,3.79,2.31a22.23,22.23,0,0,0,5,1.18c.29,0,.44.71.47,2.11a13.13,13.13,0,0,1-.12,2.68q-1,0-7.74-.58t-9.91-.62q-3.62-.07-10.21.24t-7.75.29a5.18,5.18,0,0,1-.38-2.69q0-2.1.47-2.09a20.19,20.19,0,0,0,5.3-1q3.57-1,4-2.17a52.61,52.61,0,0,0,1.06-10.41l1-55.29q.13-6.95-2.14-9.45a6.52,6.52,0,0,0-3.14-2.16,17.46,17.46,0,0,0-3.46-.86c-1-.11-1.44-.27-1.44-.46q.08-4.2.95-4.33a111.31,111.31,0,0,0,21.64-3.65q2.62-.67,2.76-.67.58,0,.52,3.05a7.89,7.89,0,0,1-.32,1.73,29,29,0,0,1,6.5-3.28A20.8,20.8,0,0,1,952.31,324.78Zm-3.62,7.61A10.94,10.94,0,0,0,940.9,335a9.58,9.58,0,0,0-3.1,7.33l-.55,29.82a8.9,8.9,0,0,0,3.77,7.67,14.06,14.06,0,0,0,8.34,3q6.65.12,11.33-5.87t4.88-17q.22-11.72-4.27-19.55T948.7,332.39Z"/><path class="cls-1" d="M1015.92,369.26q-.16,8.83.92,13,.27,1,3.87,2.17a21.34,21.34,0,0,0,4.9,1.18c.38,0,.59.71.61,2.11a8.24,8.24,0,0,1-.27,2.82q-1-.16-7.73-.72t-9.91-.62q-3.62-.07-10.21.25t-7.61.44c-.38-.39-.55-1.31-.53-2.76s.23-2.17.62-2.16a21,21,0,0,0,5.23-1q3.64-1,3.95-2a47.28,47.28,0,0,0,1.21-10.55l.44-23.59q.13-6.8-2.14-9.31a8,8,0,0,0-3.29-2.23,15.25,15.25,0,0,0-3.46-.93q-1.44-.17-1.44-.46.08-4.2.95-4.33a111,111,0,0,0,11.76-1.52,113.48,113.48,0,0,0,11.48-2.39,8.51,8.51,0,0,0,1.16-.27c.48,0,.86.35,1.14,1a2.67,2.67,0,0,1,.26,1.6,123.92,123.92,0,0,0-1.39,12.43ZM1002,308.41a8.82,8.82,0,0,1-2.49-6.42,8.9,8.9,0,0,1,9.14-8.73A8.67,8.67,0,0,1,1015,296a8.58,8.58,0,0,1,2.49,6.34,8.83,8.83,0,0,1-2.72,6.32,8.91,8.91,0,0,1-12.74-.24Z"/><path class="cls-1" d="M1081.71,327q18.67.35,18.12,30l-.26,13.75a60.53,60.53,0,0,0,.77,13q.27,1,3.94,2.17a22.19,22.19,0,0,0,5,1.18c.29,0,.44.71.47,2.11a8.22,8.22,0,0,1-.27,2.82q-.86-.16-7.59-.72t-10.05-.62q-3.47-.07-9.63.26t-7.46.44q-.57-.59-.53-2.76t.62-2.16a17.2,17.2,0,0,0,4.87-1q3.28-1,3.58-2a41.58,41.58,0,0,0,1.35-10.54l.26-13.75q.22-12-2.94-16.85t-10.26-5a13.4,13.4,0,0,0-8.15,2.38q-3.52,2.47-3.57,5.36l-.46,24.9a60.61,60.61,0,0,0,.77,13q.27,1,3.8,2.17a20.81,20.81,0,0,0,4.68,1.17q.58,0,.61,2.11a8.22,8.22,0,0,1-.27,2.82q-1.16-.17-7.59-.72t-9.76-.62q-3.47-.06-10.07.25t-7.75.43c-.38-.39-.55-1.31-.53-2.76s.23-2.17.62-2.16a20.21,20.21,0,0,0,5.3-1q3.57-1,3.87-2a47.28,47.28,0,0,0,1.21-10.55l.44-23.59q.13-6.8-2.14-9.31a7,7,0,0,0-3.21-2.23,16.61,16.61,0,0,0-3.46-.93c-.92-.11-1.37-.27-1.37-.46q.08-4.2.8-4.33,6.67-.45,23.38-3.91a1,1,0,0,1,.37-.21,1.38,1.38,0,0,1,.44-.06h.36c.38,0,.72.35,1,1a4.43,4.43,0,0,1,.41,1.6,48.75,48.75,0,0,0-.68,5.2,1.13,1.13,0,0,0,.13.73,2.14,2.14,0,0,0,.73-.42,32.09,32.09,0,0,1,9-5.91A25.34,25.34,0,0,1,1081.71,327Z"/><path class="cls-1" d="M1146.55,328.54a45.86,45.86,0,0,1,12,2.11,44.64,44.64,0,0,0,11.54,2.1l8.25.15q.29,0,1,1.9a8.89,8.89,0,0,1,.67,2.91q0,2-.91,2l-9.41-.17c-.39,0-.58.13-.59.42q0,.15,1.23,3.79a20.48,20.48,0,0,1,1.17,7q-.16,8.54-7.45,15.28a24.8,24.8,0,0,1-18,6.54,59.82,59.82,0,0,1-9-.75,7.79,7.79,0,0,0-3.23,2.62,6.16,6.16,0,0,0-1.51,3.52,3,3,0,0,0,1.33,2.49,9.73,9.73,0,0,0,4.24,1.53q2.89.49,4.91.67t5.78.4l2.17,0q14.46.7,21.13,4.38t6.53,10.76q-.06,10.86-10.77,18.62a39.56,39.56,0,0,1-24.61,7.51,37.62,37.62,0,0,1-18.38-4.4q-7.81-4.35-7.67-12,.08-4.2,4.27-8a24,24,0,0,1,9-5.33,16.51,16.51,0,0,1-6.87-4.54,10.53,10.53,0,0,1-3-7.66q.12-6.22,11-12.68-4.17-2-7.68-7.6a21.3,21.3,0,0,1-3.4-11.86q.19-10.28,7.83-16.07T1146.55,328.54Zm18.57,76.07q.09-5.07-7.18-6.87t-19.58-2a2.36,2.36,0,0,0-.73.13,6.44,6.44,0,0,0-.73.42q-1.9.69-2.92,1.18a12.48,12.48,0,0,0-2.34,1.55,7,7,0,0,0-2,2.5,8.39,8.39,0,0,0-.72,3.46q-.1,5.21,5.34,8.79a22.56,22.56,0,0,0,12.24,3.7q8.1.15,13.31-3.52T1165.11,404.61Zm-30-55.29a22.9,22.9,0,0,0,2.67,12,9,9,0,0,0,8,5q5.35.1,8-4a19.19,19.19,0,0,0,2.72-10.16q.14-7.67-2.66-12.5a9.26,9.26,0,0,0-8.31-4.93,8.16,8.16,0,0,0-7.75,4.34A21,21,0,0,0,1135.16,349.33Z"/><path class="cls-1" d="M815.74,161.77q10.42,0,16.58,4.63a14.79,14.79,0,0,1,6.15,12.45,21.85,21.85,0,0,1-5.43,15q-5.43,6.15-15.56,12.23a209.87,209.87,0,0,0,18.82,25.77q8-11,8-13.61a1.93,1.93,0,0,0-1.37-2,10.5,10.5,0,0,0-3.18-.58l-2-.07a5.22,5.22,0,0,1-.43-2.32q0-1.45.43-1.74h13.32q2.75,0,15.92-.58c.48.29.72,1.06.72,2.32q0,2.32-1,2.61a23.89,23.89,0,0,0-5.07.8,14.74,14.74,0,0,0-4.78,1.81,18.81,18.81,0,0,0-3,3.69q-2.46,3.4-6.08,8.25t-6.22,7.89a22.38,22.38,0,0,0,1.81,2q1.52,1.6,2.1,2.17t1.88,1.81a12.83,12.83,0,0,0,2.17,1.74,14.57,14.57,0,0,0,2,.94,5.63,5.63,0,0,0,2.1.43,7.32,7.32,0,0,0,5-2.46,17.62,17.62,0,0,0,3.55-4.49,4.1,4.1,0,0,1,2.46,1q1.3,1,1.3,1.88a21,21,0,0,1-1.66,2.9,50.42,50.42,0,0,1-3.33,4.42,18.93,18.93,0,0,1-5.5,4.42,14.59,14.59,0,0,1-7.17,1.88,17.48,17.48,0,0,1-8.54-2.32,23,23,0,0,1-6.23-4.63l-2-2.32a36.6,36.6,0,0,1-24.9,9.55q-12.3,0-20.34-6.08t-8-17.66a22.67,22.67,0,0,1,2-9.41,24,24,0,0,1,5.72-7.82,69.26,69.26,0,0,1,6.95-5.72,83.25,83.25,0,0,1,8-4.85,20.31,20.31,0,0,1-1.16-1.88l-1.23-2.1q-.22-.36-1.09-2T796,197.67q-.29-.58-1-2.17a15.56,15.56,0,0,1-.94-2.46q-.22-.87-.72-2.32a12.84,12.84,0,0,1-.65-2.53c-.1-.72-.19-1.54-.29-2.46a26.63,26.63,0,0,1-.15-2.82q0-9.56,6.73-15.35T815.74,161.77Zm10.57,80.78A105.05,105.05,0,0,1,818,232q-5.29-7.38-9-13.17l-3.76-5.65a29.87,29.87,0,0,0-8,7.89q-2.82,4.27-2.82,11.36,0,8.69,4.92,13a17.71,17.71,0,0,0,12.16,4.34,17.92,17.92,0,0,0,8.18-2.1A21.63,21.63,0,0,0,826.3,242.55ZM816,168.14a8.68,8.68,0,0,0-7.24,3.33,12.53,12.53,0,0,0-2.61,8q0,6.95,7.24,20,6.51-4.05,9.48-8t3-10.93a14.48,14.48,0,0,0-2.68-8.47A8.33,8.33,0,0,0,816,168.14Z"/></svg>