<svg id="Layer_1" data-name="Layer 1" xmlns="http://www.w3.org/2000/svg" viewBox="0 0 771.3 567.53"><defs><style>.cls-1{fill:#fff;stroke:#1928eb;stroke-miterlimit:10;stroke-width:1.2px;}</style></defs><title>title</title><path class="cls-1" d="M.84,77.51Q-.67,66.76,7.33,58.11A31.63,31.63,0,0,1,26.66,47.88a50.7,50.7,0,0,1,7.08-.55q3.07,0,8.64.62T50,48.7a129,129,0,0,1,4.81,21.84,1.57,1.57,0,0,1-1.54,1.53q-3.87.54-4.34-.71-1.78-6.47-8-12t-13.79-4.5q-6.6.92-9.58,5.14T15.5,70.49a16.33,16.33,0,0,0,1.07,4A10.2,10.2,0,0,0,19.11,78q1.77,1.65,2.87,2.74a17.19,17.19,0,0,0,4,2.58q2.91,1.49,3.95,2.08t4.69,2.19A44.1,44.1,0,0,0,39,89.41a53.41,53.41,0,0,0,5.23,2.41q4.27,1.81,6,2.67t5.1,3a20.93,20.93,0,0,1,5.06,4.26,29.77,29.77,0,0,1,3.32,5.46,24.37,24.37,0,0,1,2.2,7.37q1.61,11.47-6.6,20.22A33.48,33.48,0,0,1,39,145.26q-8.6,1.2-26.94-.32A126.33,126.33,0,0,1,7.85,132.3a98.21,98.21,0,0,1-2.51-10.1c0-.78.7-1.27,2.13-1.47q3.73-.52,4.32.56a28.11,28.11,0,0,0,2.8,5.38,42.12,42.12,0,0,0,4.87,6A19,19,0,0,0,27,137.51a20.34,20.34,0,0,0,9.84.89,16.21,16.21,0,0,0,10.62-5.58q3.88-4.63,2.76-12.67a12.61,12.61,0,0,0-1.59-4.6A16.67,16.67,0,0,0,45.94,112,21.16,21.16,0,0,0,41.87,109q-2.63-1.53-4.34-2.32t-5.05-2.14q-3.33-1.36-4.72-1.9a9.94,9.94,0,0,0-1.74-.93q-4.52-2-6.87-3.13A70,70,0,0,1,13,95.17a28.63,28.63,0,0,1-5.82-4.52,27.28,27.28,0,0,1-3.92-5.59A21.81,21.81,0,0,1,.84,77.51Z"/><path class="cls-1" d="M98.29,70.89q8.89-1.24,14,2.79T119,89l4,28.24a6.61,6.61,0,0,0,1.9,4.19,4.35,4.35,0,0,0,3.65,1,9,9,0,0,0,4.61-2.55q.9.17,1.08,1.46a8.6,8.6,0,0,1-.26,4.42,35.87,35.87,0,0,1-5.23,4.39A15.1,15.1,0,0,1,122,133a10.57,10.57,0,0,1-6.79-1.53,11.88,11.88,0,0,1-4.9-4.72q-.12.16-.95,1.08t-2.31,2.3a42.76,42.76,0,0,1-3.41,2.82,23.11,23.11,0,0,1-4.6,2.62,21,21,0,0,1-5.55,1.58q-7.17,1-12.24-2.31t-6-10.19A13.35,13.35,0,0,1,76,118a17.28,17.28,0,0,1,3.25-5.5,29.6,29.6,0,0,1,5.63-4.66,59.58,59.58,0,0,1,6.27-3.73q2.66-1.32,6.86-3.23t5.83-2.72a2.28,2.28,0,0,0,1-2.47l-1.1-7.89q-.7-5-3.4-7.56a7.56,7.56,0,0,0-6.57-2,8.78,8.78,0,0,0-6.37,3.6q-2.07,3-1.38,7.87a4.69,4.69,0,0,1-1.56,4.53,9,9,0,0,1-4.68,2q-5.31.74-7.94-2.4-1-6.88,7.59-14.22A36.3,36.3,0,0,1,98.29,70.89Zm1.25,56a11.23,11.23,0,0,0,6.39-2.94q2.51-2.4,2.15-5l-2-14.62q-.95.57-4,2t-4.71,2.41a39.54,39.54,0,0,0-3.73,2.57,8.73,8.73,0,0,0-2.93,3.63,8,8,0,0,0-.51,4.16q.64,4.59,3.24,6.42A8.32,8.32,0,0,0,99.54,126.84Z"/><path class="cls-1" d="M179.86,59.47q18.5-2.59,22.61,26.8l1.91,13.62q1.22,8.75,2.81,12.76.43,1,4.23,1.53a22.16,22.16,0,0,0,5.1.38c.29,0,.55.63.79,2a8.23,8.23,0,0,1,.18,2.83q-.88,0-7.61.48t-10,1q-3.44.48-9.47,1.76t-7.3,1.61q-.66-.49-1-2.64t.27-2.23a17.23,17.23,0,0,0,4.65-1.75q3.07-1.53,3.22-2.57A41.52,41.52,0,0,0,190,104.4L188,90.77q-1.67-11.9-5.55-16.18t-10.91-3.3a13.4,13.4,0,0,0-7.68,3.63q-3.09,3-2.69,5.86l3.45,24.66a60.6,60.6,0,0,0,2.81,12.76q.43,1,4.09,1.55a20.82,20.82,0,0,0,4.81.42q.57-.08.94,2a8.2,8.2,0,0,1,.18,2.83q-1.17,0-7.61.48t-9.74.93q-3.44.48-9.9,1.82t-7.59,1.65q-.66-.49-1-2.64c-.2-1.43-.11-2.18.27-2.23a20.19,20.19,0,0,0,5.08-1.81q3.36-1.57,3.51-2.61A47.25,47.25,0,0,0,150.1,110l-3.27-23.37q-.94-6.74-3.58-8.85a7,7,0,0,0-3.53-1.7,16.54,16.54,0,0,0-3.56-.38c-.92,0-1.39,0-1.42-.24q-.58-4.16.11-4.4,6.51-1.49,22.48-7.53a.93.93,0,0,1,.33-.27,1.38,1.38,0,0,1,.42-.13l.36-.05c.38-.05.76.24,1.14.86a4.43,4.43,0,0,1,.65,1.52,49,49,0,0,0,.15,5.24c.05.38.13.62.24.7a2.14,2.14,0,0,0,.66-.53,32.1,32.1,0,0,1,8-7.26A25.34,25.34,0,0,1,179.86,59.47Z"/><path class="cls-1" d="M247.53,50a35,35,0,0,1,13.9.61q6.3,1.68,9.3,4.33a17.91,17.91,0,0,1-.51,8.33,5.34,5.34,0,0,1-4.5,3.92,6.49,6.49,0,0,1-4.57-.82,16.46,16.46,0,0,1-4-4.26q-4.22-6.13-10.53-5.25t-8.95,7.61q-2.78,6.75-1.46,16.21,1.81,12.9,8,18.4a17.08,17.08,0,0,0,14.35,4.35,39.26,39.26,0,0,0,4.13-.8,21.62,21.62,0,0,0,3.63-1.24q1.65-.74,2.88-1.35a12.39,12.39,0,0,0,2.47-1.66l1.76-1.49q.52-.44,2.6-2.34a2.38,2.38,0,0,1,.84.76,2.8,2.8,0,0,1,.63,1.37,4.46,4.46,0,0,1-.48,2.84q-1.61,4.17-7.37,8.93a26.59,26.59,0,0,1-13.51,5.84,29.29,29.29,0,0,1-23-6.28,32,32,0,0,1-12.15-21.54,32.91,32.91,0,0,1,5.44-23.78Q233.62,51.95,247.53,50Z"/><path class="cls-1" d="M288.79,54.45,280,55.68q-1,.14-1.53-3.59a3.58,3.58,0,0,1,0-1.31,40.47,40.47,0,0,0,10-9.14q1.6-2.12,3.5-4.8T296.33,30a10.3,10.3,0,0,1,2.77,0q1.34.18,1.4.61l2,14q3.73-.52,10.41-1.38l7.11-.92q1.15-.16,1.33,1.13a14.06,14.06,0,0,1-.55,6.51l-17.2,2.41,4.84,34.55q.8,5.74,3.66,8.4a8.27,8.27,0,0,0,7.16,2.07,13.78,13.78,0,0,0,3-.78,15.43,15.43,0,0,0,2.47-1.15c.63-.38,1.21-.75,1.74-1.12a4.52,4.52,0,0,1,.94-.57q.55-.22,1.47,1.11t.83,1.78q-.58,2.13-5.44,5.51a22.81,22.81,0,0,1-9.88,4.09,18.25,18.25,0,0,1-13.36-3q-5.91-4.07-7.31-14.11Z"/><path class="cls-1" d="M394.07,45.27l4,28.39q1,6.88,2.55,9.88a3,3,0,0,0,1.81.92,11.23,11.23,0,0,0,2.59.22,21.6,21.6,0,0,0,2.39-.19,2.67,2.67,0,0,1,1.24,0c.39,0,.65.45.75,1.21a11,11,0,0,1,0,2c-.07.94-.29,1.43-.67,1.48a33.18,33.18,0,0,0-5,1.21q-3,.94-5.81,1.84T392.56,94q-2.5.93-5.57,1.95-1,.14-1.33-2.15l-.88-6.31c-.16-.46-.34-.68-.53-.66a32.28,32.28,0,0,1-7.84,7.68A24.24,24.24,0,0,1,365.48,99a15.17,15.17,0,0,1-8.87-1.24A17.47,17.47,0,0,1,350,92.23a31.1,31.1,0,0,1-4.17-7.89,44.18,44.18,0,0,1-2.2-8.9l-2.25-16.06q-.94-6.74-3.58-8.85a8,8,0,0,0-3.6-1.69,15.25,15.25,0,0,0-3.56-.38c-1,0-1.47,0-1.49-.23q-.58-4.16.11-4.4a109.32,109.32,0,0,0,11.52-3.37,113.66,113.66,0,0,0,11-4.17,2.39,2.39,0,0,0,.55-.22,2.46,2.46,0,0,1,.55-.22c.48-.07.88.22,1.22.85a5.18,5.18,0,0,1,.58,1.53q.07,9.93.47,12.8l2.41,17.2q1.57,11.18,5.4,15.61t10.86,3.45a11.36,11.36,0,0,0,7.35-3.88q2.76-3.24,2.4-5.82l-3.31-23.66q-.94-6.74-3.58-8.85a7,7,0,0,0-3.53-1.7,16.39,16.39,0,0,0-3.63-.37c-1,0-1.47,0-1.49-.23q-.58-4.16.26-4.42A111.08,111.08,0,0,0,379.62,35a113.79,113.79,0,0,0,11-4.17,8.6,8.6,0,0,0,1.11-.45c.48-.07.91.22,1.29.84a2.67,2.67,0,0,1,.51,1.54Q393.7,42.69,394.07,45.27Z"/><path class="cls-1" d="M438.92,23.21q8.89-1.24,14,2.79t6.68,15.36l4,28.24a6.61,6.61,0,0,0,1.9,4.19,4.35,4.35,0,0,0,3.65,1,9,9,0,0,0,4.61-2.55q.9.17,1.08,1.46a8.61,8.61,0,0,1-.26,4.42,35.89,35.89,0,0,1-5.23,4.39,15.09,15.09,0,0,1-6.62,2.83,10.57,10.57,0,0,1-6.79-1.53,11.87,11.87,0,0,1-4.9-4.72c-.08.11-.4.47-.95,1.08s-1.32,1.38-2.31,2.3a42.66,42.66,0,0,1-3.41,2.82,23.09,23.09,0,0,1-4.6,2.62,21,21,0,0,1-5.55,1.58q-7.17,1-12.24-2.31T415.9,77a13.35,13.35,0,0,1,.75-6.68,17.26,17.26,0,0,1,3.25-5.5,29.64,29.64,0,0,1,5.63-4.66,59.76,59.76,0,0,1,6.28-3.73q2.66-1.32,6.86-3.23t5.83-2.72a2.28,2.28,0,0,0,1-2.47l-1.1-7.89q-.7-5-3.4-7.56a7.56,7.56,0,0,0-6.57-2,8.78,8.78,0,0,0-6.37,3.6q-2.07,3-1.38,7.87a4.69,4.69,0,0,1-1.56,4.53,9,9,0,0,1-4.68,2q-5.31.74-7.94-2.4-1-6.88,7.58-14.22A36.31,36.31,0,0,1,438.92,23.21Zm1.25,56a11.22,11.22,0,0,0,6.39-2.94q2.52-2.4,2.15-5l-2-14.62q-.95.57-4,2t-4.71,2.41a39.54,39.54,0,0,0-3.73,2.57,8.72,8.72,0,0,0-2.93,3.63,8,8,0,0,0-.51,4.16Q431.4,76,434,77.83A8.32,8.32,0,0,0,440.18,79.16Z"/><path class="cls-1" d="M515.62,12.47q7.88-1.1,12.42,3.09,1.71,12.19-5.17,13.15-2.58.36-6-2.08a9.06,9.06,0,0,0-6.57-2q-4.44.62-6.32,5.49a19.27,19.27,0,0,0-1.19,9.74l2.51,17.92a60.6,60.6,0,0,0,2.81,12.76q.43,1,4.09,1.55a20.45,20.45,0,0,0,5,.4c.29,0,.55.63.79,2a15.09,15.09,0,0,1,.32,2.81q-1.17,0-7.68.49t-9.81.94q-3.44.48-9.91,1.82t-7.59,1.65q-.66-.49-1-2.64c-.2-1.43-.11-2.18.27-2.23a20.21,20.21,0,0,0,5.08-1.81q3.36-1.57,3.51-2.61a47.25,47.25,0,0,0-.46-10.61l-3.27-23.37q-.94-6.74-3.58-8.85a7,7,0,0,0-3.53-1.7,16.56,16.56,0,0,0-3.56-.38c-.92,0-1.39,0-1.42-.24q-.58-4.16.11-4.4Q482,21.86,498,15.82a8.71,8.71,0,0,1,1.11-.45c.38-.05.76.24,1.14.86a3.47,3.47,0,0,1,.59,1.6q0,.66.07,2c0,.92,0,1.89,0,2.92a18.32,18.32,0,0,0,.06,2A26.58,26.58,0,0,1,507,16.82,15.86,15.86,0,0,1,515.62,12.47Z"/><path class="cls-1" d="M550.8,9q3.15-.44,9-1.69T567,5.86a9.81,9.81,0,0,1,.65,2.54c.19,1.34.09,2-.29,2.09A15.81,15.81,0,0,0,563,12.19q-2.94,1.51-2.9,2.82l.12.86q.61,2.26,17.91,30.82.79-2.74,3.61-14.9t3.3-14a13.6,13.6,0,0,0,.24-4.56Q585,11.38,582.52,10t-7.11-.69q-.57.08-.87-2.07a3.64,3.64,0,0,1,.23-2.52q1.72-.24,7.08-.55t8.8-.79Q593.67,3,598,2T604.3.64a4.13,4.13,0,0,1,.89,2.21c.21,1.53.13,2.32-.25,2.38a18.34,18.34,0,0,0-5.61,2.25q-3.6,2-4.34,5l-17.36,67q-6,22.18-18.43,23.92a7.84,7.84,0,0,1-6-1.2,6.76,6.76,0,0,1-.71-10.28q14.91-2.09,18-14.51,2.24-9.08,2.5-10.29L545.22,21.34A18.69,18.69,0,0,0,543,18.28a8.7,8.7,0,0,0-4.68-2.63,13.68,13.68,0,0,0-4.81-.42q-.57.08-.85-1.93-.32-2.29.07-2.64.86-.12,7.73-.64T550.8,9Z"/><path class="cls-1" d="M114.12,239.34q-1.14-8.17.58-8.41l.14,0,34.31-6.56.14,0q.86-.12,1,1.17a27.84,27.84,0,0,1,.31,5.36,6,6,0,0,1-.62,2.86l-.35.63-34.33,6.41-.29,0q-.15,0-.49-.37A2,2,0,0,1,114.12,239.34Z"/><path class="cls-1" d="M172.32,240.55l-7.59-54.19q-1.2-8.6-2.65-11.62-.65-1.51-4.38-2a22.79,22.79,0,0,0-5.87-.2q-.57.08-.87-2.07a3.94,3.94,0,0,1,.21-2.66q9.52-.89,19.13-2.24,7.31-1,12.32-1.8t8.59-1.28a42.9,42.9,0,0,1,21.09,2.38,21.34,21.34,0,0,1,9,6.56A22,22,0,0,1,226,182.6a17,17,0,0,1-1.67,10,23.39,23.39,0,0,1-4.79,7,24,24,0,0,1-4.16,3.14q-1.09.59-.45.94,5.42.12,12.88,5.87a22.79,22.79,0,0,1,8.82,15.5,23.36,23.36,0,0,1-7.21,21Q220.51,254.85,204,257l-20.38,2.71-19,3.24q-.49-.37-.75-2.23-.34-2.44.09-2.5a23.89,23.89,0,0,0,5.32-1.69q3.45-1.43,3.85-2.8Q173.73,250.59,172.32,240.55Zm28.12-38.29q10.14-3.76,8.5-15.52-2.71-19.35-19.2-17-6.74.94-9.08,2a1.45,1.45,0,0,0-.93,1.74l1.64,13.8L183.73,204q.2,1.43,8.8.23A28.62,28.62,0,0,0,200.44,202.26Zm19,26.87q-1.28-9.17-7.21-14.41t-17.25-3.65a60.1,60.1,0,0,0-8.79,2q-1,.88-.75,3l3.73,26.67q.84,6,2.76,7.21t9.38.15a29.64,29.64,0,0,0,6.07-1.51,30.9,30.9,0,0,0,6.2-3.21,13,13,0,0,0,5-6.39A19.34,19.34,0,0,0,219.4,229.13Z"/><path class="cls-1" d="M304.11,194.18l4,28.39q1,6.88,2.55,9.88a3,3,0,0,0,1.81.92,11.28,11.28,0,0,0,2.59.22,21.6,21.6,0,0,0,2.39-.19,2.66,2.66,0,0,1,1.24,0c.4,0,.65.45.75,1.21a11,11,0,0,1,0,2c-.07.94-.29,1.43-.67,1.48a33.26,33.26,0,0,0-5,1.21q-3,.94-5.81,1.84t-5.3,1.84q-2.5.93-5.57,1.95-1,.14-1.32-2.15l-.88-6.31c-.16-.46-.34-.68-.53-.66a32.32,32.32,0,0,1-7.84,7.68,24.23,24.23,0,0,1-10.92,4.45,15.16,15.16,0,0,1-8.87-1.24,17.46,17.46,0,0,1-6.62-5.51,31.07,31.07,0,0,1-4.17-7.89,44.16,44.16,0,0,1-2.2-8.9l-2.25-16.06q-.94-6.74-3.58-8.85a8,8,0,0,0-3.6-1.69,15.2,15.2,0,0,0-3.56-.38q-1.45.06-1.49-.23-.58-4.16.11-4.4a109.1,109.1,0,0,0,11.51-3.37,113.27,113.27,0,0,0,11-4.17,2.32,2.32,0,0,0,.55-.22,2.42,2.42,0,0,1,.55-.22c.48-.07.88.22,1.22.85a5.15,5.15,0,0,1,.58,1.53q.07,9.93.48,12.8l2.41,17.2q1.57,11.18,5.4,15.62t10.86,3.45a11.36,11.36,0,0,0,7.35-3.88q2.76-3.24,2.4-5.82l-3.31-23.66q-.94-6.74-3.58-8.85a7,7,0,0,0-3.53-1.7,16.33,16.33,0,0,0-3.63-.37q-1.45.06-1.49-.23-.58-4.16.26-4.42a111.12,111.12,0,0,0,11.37-3.35,113.33,113.33,0,0,0,11-4.17,8.39,8.39,0,0,0,1.11-.45c.48-.07.91.22,1.29.84a2.66,2.66,0,0,1,.51,1.54Q303.75,191.6,304.11,194.18Z"/><path class="cls-1" d="M350.4,215.77q1.22,8.75,3,12.74.43,1,4.16,1.54a21.27,21.27,0,0,0,5,.39q.57-.08.94,2a8.21,8.21,0,0,1,.17,2.83q-1,0-7.75.5t-9.88.94q-3.59.5-10,1.85t-7.45,1.63q-.66-.49-1-2.64t.27-2.23a21,21,0,0,0,5-1.8q3.43-1.58,3.58-2.62a47.31,47.31,0,0,0-.46-10.61L332.7,196.9q-.94-6.74-3.58-8.85a8,8,0,0,0-3.6-1.69A15.24,15.24,0,0,0,322,186q-1.45.06-1.49-.23-.58-4.16.26-4.42A111.18,111.18,0,0,0,332.1,178a113.45,113.45,0,0,0,11-4.17,8.57,8.57,0,0,0,1.11-.45c.48-.07.91.22,1.29.84a2.66,2.66,0,0,1,.51,1.54,124.34,124.34,0,0,0,.58,12.49Zm-23.31-57.91a8.82,8.82,0,0,1-3.46-5.95,8.58,8.58,0,0,1,1.71-6.6,9,9,0,0,1,16.07,4.11,8.82,8.82,0,0,1-1.7,6.67,8.91,8.91,0,0,1-12.62,1.77Z"/><path class="cls-1" d="M392.8,209.54q1.24,8.89,2.81,12.76.43,1,3.82,1.73a15.84,15.84,0,0,0,4.54.61c.29,0,.55.61.78,1.94a7.92,7.92,0,0,1,.17,2.75l-5.43.39q-3.4.26-6.14.5t-5.18.58q-2.72.38-5.43.91t-6,1.2l-5.4,1.12a4.09,4.09,0,0,1-.94-2.57q-.29-2.08.28-2.16a15.46,15.46,0,0,0,4.63-1.89q3.06-1.67,3.2-2.71a48,48,0,0,0-.34-10.77l-8.35-59.64a50.54,50.54,0,0,0-2.23-9.63q-1-2.19-7.49-1.29l-1.44.2q-.86.12-1.1-1.6-.32-2.29.54-2.42,4.38-1.05,8.3-2.33t6.46-2.37q2.55-1.09,4.4-2t2.93-1.51l.94-.57.29,0a1.73,1.73,0,0,1,1.34.69,4.44,4.44,0,0,1,1,1.32,45.75,45.75,0,0,0,.17,13.72Z"/><path class="cls-1" d="M436.38,159.59a24.89,24.89,0,0,1,10.75.54q.71-.1.4-2.39l-1.89-13.48a50.46,50.46,0,0,0-2.22-9.63q-1-2.19-7.78-1.25l-1.15.16q-.86.12-1.18-2.17t.54-2.42q4.24-1,8.23-2.32t6.54-2.38q2.55-1.09,4.39-2.08l2.79-1.49a7.29,7.29,0,0,1,1.1-.52l.29,0a1.56,1.56,0,0,1,1.26.63,2.62,2.62,0,0,1,.79,1.42,55.35,55.35,0,0,0,.45,13.68l8.83,63.08a53,53,0,0,0,2.34,10.49,2.13,2.13,0,0,0,1.65,1.38,8.84,8.84,0,0,0,2.82.33c1,0,1.89-.09,2.75-.17l1.44-.13q.33.25.53,1.68.4,2.87-.46,3-2,.43-5,1.29t-5.89,1.77q-2.87.91-5.45,1.79t-5.78,2.05q-.86.12-1.2-2.32l-.34-2.44a.66.66,0,0,0-.3-.54q-.24-.11-.36.05a24.16,24.16,0,0,1-14.17,7.39,28.05,28.05,0,0,1-21.41-5.7q-9.8-7.32-11.6-20.23A34,34,0,0,1,414.5,173Q422.9,161.47,436.38,159.59Zm-.33,7.06a12.67,12.67,0,0,0-10.57,8.06q-3,7-1.44,17.89,1.71,12.19,7.1,18.37A14.22,14.22,0,0,0,444.58,216a12,12,0,0,0,7.53-3.61,8,8,0,0,0,2.12-6.8L450,175.51a10.06,10.06,0,0,0-.92-2.94,13.5,13.5,0,0,0-2.19-3.13A9.24,9.24,0,0,0,442.6,167,15.37,15.37,0,0,0,436.05,166.65Z"/><path class="cls-1" d="M510.25,193.39q1.22,8.75,3,12.74.43,1,4.16,1.54a21.27,21.27,0,0,0,5,.39c.38-.05.69.61.94,2a8.21,8.21,0,0,1,.17,2.83q-1,0-7.75.5t-9.88.94q-3.59.5-10,1.85t-7.45,1.63q-.66-.49-1-2.64t.27-2.23a21,21,0,0,0,5-1.8q3.43-1.58,3.58-2.62a47.3,47.3,0,0,0-.46-10.61l-3.27-23.37q-.94-6.74-3.58-8.85a8,8,0,0,0-3.6-1.69,15.22,15.22,0,0,0-3.56-.38q-1.45.06-1.49-.23-.58-4.16.26-4.42A111,111,0,0,0,492,155.61a113.56,113.56,0,0,0,11-4.17A8.53,8.53,0,0,0,504,151c.48-.07.91.22,1.29.84a2.66,2.66,0,0,1,.51,1.54,124.34,124.34,0,0,0,.58,12.49Zm-23.31-57.91a8.82,8.82,0,0,1-3.46-5.95,8.58,8.58,0,0,1,1.71-6.6A9,9,0,0,1,501.26,127a8.82,8.82,0,0,1-1.7,6.67,8.92,8.92,0,0,1-12.62,1.77Z"/><path class="cls-1" d="M568.6,141.37q18.49-2.59,22.61,26.8l1.91,13.62a60.6,60.6,0,0,0,2.81,12.76q.43,1,4.23,1.53a22.17,22.17,0,0,0,5.1.38c.29,0,.55.63.79,2a8.19,8.19,0,0,1,.18,2.83q-.88,0-7.61.48t-10,1q-3.44.48-9.47,1.76t-7.3,1.61q-.65-.49-1-2.64t.27-2.23a17.22,17.22,0,0,0,4.65-1.75q3.08-1.53,3.22-2.57a41.61,41.61,0,0,0-.32-10.63l-1.91-13.62q-1.67-11.9-5.55-16.18t-10.91-3.3a13.4,13.4,0,0,0-7.68,3.63q-3.09,3-2.69,5.86l3.45,24.66a60.68,60.68,0,0,0,2.81,12.76q.43,1,4.09,1.55a20.84,20.84,0,0,0,4.81.42q.57-.08.94,2a8.22,8.22,0,0,1,.18,2.83q-1.17,0-7.61.48t-9.74.92q-3.44.48-9.9,1.83t-7.59,1.65q-.66-.49-1-2.64t.27-2.23a20.21,20.21,0,0,0,5.08-1.81q3.36-1.57,3.51-2.61a47.25,47.25,0,0,0-.46-10.61l-3.27-23.37q-.94-6.74-3.58-8.85a7,7,0,0,0-3.53-1.7,16.56,16.56,0,0,0-3.56-.38q-1.38,0-1.42-.24-.58-4.16.11-4.4,6.51-1.49,22.48-7.53a1,1,0,0,1,.33-.27,1.39,1.39,0,0,1,.42-.13l.36,0c.38-.05.76.24,1.14.86a4.41,4.41,0,0,1,.65,1.52,49.34,49.34,0,0,0,.15,5.24c.05.38.13.62.24.7a2.15,2.15,0,0,0,.66-.53,32.08,32.08,0,0,1,8-7.26A25.34,25.34,0,0,1,568.6,141.37Z"/><path class="cls-1" d="M632.87,132.67a45.87,45.87,0,0,1,12.16.2,44.64,44.64,0,0,0,11.73.26l8.17-1.14c.19,0,.61.55,1.26,1.72a8.9,8.9,0,0,1,1.12,2.77q.28,2-.58,2.13l-9.32,1.3c-.38.05-.55.22-.51.51q0,.14,1.81,3.55a20.53,20.53,0,0,1,2.25,6.7q1.19,8.46-5,16.26a24.81,24.81,0,0,1-16.75,9.29,59.78,59.78,0,0,1-9,.67A7.79,7.79,0,0,0,627.5,180a6.16,6.16,0,0,0-.94,3.71,3,3,0,0,0,1.7,2.25,9.75,9.75,0,0,0,4.43.84q2.93,0,5-.11t5.77-.52l2.15-.3q14.39-1.58,21.55,1t8.14,9.6q1.65,10.73-7.71,20.08a39.55,39.55,0,0,1-23.12,11.28,37.62,37.62,0,0,1-18.84-1.46q-8.4-3.07-9.46-10.66-.58-4.16,3-8.6a23.94,23.94,0,0,1,8.05-6.68,16.5,16.5,0,0,1-7.49-3.41,10.53,10.53,0,0,1-4.21-7.09q-.86-6.16,8.82-14.24-4.42-1.28-8.77-6.3a21.29,21.29,0,0,1-5.22-11.18q-1.43-10.18,5.21-17.1T632.87,132.67Zm-8,22.31a22.92,22.92,0,0,0,4.52,11.43,9,9,0,0,0,8.7,3.68q5.3-.74,7.24-5.18a19.18,19.18,0,0,0,1.09-10.46q-1.06-7.6-4.59-11.93a9.26,9.26,0,0,0-9-3.57,8.17,8.17,0,0,0-7,5.51A21,21,0,0,0,624.88,155Zm38.27,49.9q-.7-5-8.17-5.65t-19.66,1.07a2.36,2.36,0,0,0-.7.24,6.54,6.54,0,0,0-.66.53q-1.77,1-2.7,1.62a12.47,12.47,0,0,0-2.07,1.9,7,7,0,0,0-1.58,2.78,8.39,8.39,0,0,0-.16,3.53q.72,5.16,6.65,7.84a22.56,22.56,0,0,0,12.67,1.74q8-1.12,12.6-5.56T663.15,204.88Z"/><path class="cls-1" d="M162.11,319.44q.2-10.86,9.46-18.14a31.63,31.63,0,0,1,20.69-7.07,50.9,50.9,0,0,1,7.08.57q3,.49,8.43,2t7.42,1.95A129.19,129.19,0,0,1,216.52,321a1.58,1.58,0,0,1-1.76,1.27q-3.91-.07-4.17-1.38-.75-6.67-6-13.14t-12.91-6.61q-6.66-.12-10.27,3.57t-3.73,10.07a16.32,16.32,0,0,0,.43,4.13,10.2,10.2,0,0,0,2,3.87q1.48,1.91,2.4,3.16a17.17,17.17,0,0,0,3.56,3.18q2.64,1.93,3.57,2.67t4.29,2.9a44,44,0,0,0,4.08,2.46,53.31,53.31,0,0,0,4.79,3.2q3.94,2.46,5.51,3.58t4.56,3.78a20.88,20.88,0,0,1,4.32,5,29.7,29.7,0,0,1,2.42,5.91,24.41,24.41,0,0,1,1,7.62q-.22,11.58-9.69,18.93a33.48,33.48,0,0,1-21.78,7.12q-8.69-.16-26.56-4.55a126.68,126.68,0,0,1-2.14-13.14,98.2,98.2,0,0,1-.89-10.37q.16-1.15,2.34-1.11,3.76.07,4.18,1.24a28.25,28.25,0,0,0,1.92,5.75,42.19,42.19,0,0,0,3.86,6.73,19.06,19.06,0,0,0,6.7,5.92,20.35,20.35,0,0,0,9.58,2.42,16.21,16.21,0,0,0,11.37-3.84q4.56-4,4.71-12.07a12.59,12.59,0,0,0-.85-4.79,16.78,16.78,0,0,0-2.1-3.95,21.2,21.2,0,0,0-3.55-3.54q-2.35-1.92-3.93-3t-4.65-2.91q-3.08-1.87-4.37-2.62a9.83,9.83,0,0,0-1.57-1.19q-4.15-2.68-6.29-4.17t-5.49-4.37a28.64,28.64,0,0,1-5-5.38,27.45,27.45,0,0,1-3-6.14A21.81,21.81,0,0,1,162.11,319.44Z"/><path class="cls-1" d="M259.39,328.2q9,.17,13.37,5t4.19,16.22l-.53,28.51a6.61,6.61,0,0,0,1.22,4.44,4.35,4.35,0,0,0,3.45,1.58,9,9,0,0,0,5-1.79q.86.31.84,1.61a8.61,8.61,0,0,1-.95,4.33,35.88,35.88,0,0,1-5.86,3.51,15.09,15.09,0,0,1-7,1.75,10.57,10.57,0,0,1-6.47-2.58,11.86,11.86,0,0,1-4.1-5.43q-.15.14-1.1.92t-2.64,1.91a42.71,42.71,0,0,1-3.81,2.25,23.18,23.18,0,0,1-5,1.86,21,21,0,0,1-5.73.69q-7.24-.13-11.72-4.2t-4.35-11a13.35,13.35,0,0,1,1.78-6.48,17.28,17.28,0,0,1,4.07-4.92,29.69,29.69,0,0,1,6.29-3.72,59.65,59.65,0,0,1,6.78-2.7q2.84-.89,7.28-2.11t6.19-1.77a2.27,2.27,0,0,0,1.35-2.29l.15-8q.09-5.06-2.17-8a7.56,7.56,0,0,0-6.17-3,8.78,8.78,0,0,0-6.85,2.55q-2.51,2.63-2.6,7.55a4.69,4.69,0,0,1-2.25,4.23,9,9,0,0,1-4.95,1.28q-5.36-.1-7.46-3.61.13-6.95,9.72-12.85A36.31,36.31,0,0,1,259.39,328.2Zm-7.55,55.46a11.22,11.22,0,0,0,6.77-1.9q2.86-2,2.91-4.58l.27-14.76q-1,.42-4.3,1.37t-5,1.64a39.51,39.51,0,0,0-4.09,2,8.72,8.72,0,0,0-3.46,3.12,8,8,0,0,0-1.16,4q-.09,4.63,2.19,6.85A8.33,8.33,0,0,0,251.84,383.66Z"/><path class="cls-1" d="M341.74,329.73q18.67.35,18.12,30l-.26,13.75a60.61,60.61,0,0,0,.77,13q.27,1,3.94,2.17a22.21,22.21,0,0,0,5,1.18c.29,0,.44.71.47,2.11a8.22,8.22,0,0,1-.27,2.82q-.87-.16-7.59-.72t-10.05-.62q-3.47-.07-9.63.25t-7.46.44q-.57-.59-.53-2.76t.62-2.16a17.22,17.22,0,0,0,4.87-1q3.28-1,3.58-2a41.58,41.58,0,0,0,1.35-10.54l.26-13.75q.22-12-2.94-16.85t-10.26-5a13.4,13.4,0,0,0-8.15,2.38Q320,345,320,347.86l-.46,24.9a60.61,60.61,0,0,0,.77,13q.27,1,3.8,2.17a20.86,20.86,0,0,0,4.68,1.17c.38,0,.59.71.61,2.11a8.24,8.24,0,0,1-.27,2.82q-1.16-.17-7.59-.72t-9.76-.62q-3.47-.06-10.07.25t-7.75.43q-.57-.59-.53-2.76t.62-2.16a20.19,20.19,0,0,0,5.3-1q3.57-1,3.88-2a47.33,47.33,0,0,0,1.21-10.55l.44-23.59q.13-6.8-2.14-9.31a7,7,0,0,0-3.22-2.23,16.53,16.53,0,0,0-3.46-.93c-.92-.11-1.37-.27-1.37-.46q.08-4.2.8-4.33,6.67-.45,23.38-3.91a.93.93,0,0,1,.37-.21,1.38,1.38,0,0,1,.44-.06H320c.38,0,.72.35,1,1a4.41,4.41,0,0,1,.41,1.6,49,49,0,0,0-.68,5.2,1.14,1.14,0,0,0,.13.73,2.15,2.15,0,0,0,.73-.42,32.08,32.08,0,0,1,9-5.91A25.34,25.34,0,0,1,341.74,329.73Z"/><path class="cls-1" d="M410.06,331a35,35,0,0,1,13.63,2.79q6,2.65,8.51,5.73a17.88,17.88,0,0,1-1.82,8.15,5.34,5.34,0,0,1-5.05,3.16,6.48,6.48,0,0,1-4.39-1.53,16.44,16.44,0,0,1-3.31-4.84q-3.21-6.72-9.57-6.84t-10,6.11q-3.81,6.23-4,15.78-.24,13,5,19.42a17.09,17.09,0,0,0,13.49,6.55,39.54,39.54,0,0,0,4.2-.14,21.6,21.6,0,0,0,3.78-.65q1.74-.47,3.06-.88a12.43,12.43,0,0,0,2.7-1.25l2-1.19q.58-.35,2.93-1.9a2.39,2.39,0,0,1,.71.88,2.81,2.81,0,0,1,.41,1.46,4.45,4.45,0,0,1-.92,2.73q-2.24,3.87-8.69,7.66a26.59,26.59,0,0,1-14.26,3.64A29.29,29.29,0,0,1,386.67,386,32,32,0,0,1,378,362.84a32.91,32.91,0,0,1,9.11-22.63Q396,330.74,410.06,331Z"/><path class="cls-1" d="M450.11,341.88l-8.83-.16q-1,0-.94-3.78a3.6,3.6,0,0,1,.17-1.3,40.49,40.49,0,0,0,11.29-7.46q1.91-1.84,4.21-4.19t5.4-6.05a10.32,10.32,0,0,1,2.74.41q1.29.39,1.29.82l-.26,14.18q3.76.07,10.49.27l7.16.21q1.16,0,1.13,1.32a14.06,14.06,0,0,1-1.57,6.34L465,342.16,464.37,377q-.11,5.79,2.3,8.87a8.27,8.27,0,0,0,6.75,3.17,13.7,13.7,0,0,0,3-.31,15.34,15.34,0,0,0,2.62-.75c.68-.28,1.31-.56,1.9-.83a4.55,4.55,0,0,1,1-.42q.58-.13,1.28,1.33t.54,1.89q-.91,2-6.24,4.59a22.82,22.82,0,0,1-10.4,2.49A18.25,18.25,0,0,1,454.46,392q-5.2-4.95-5-15.08Z"/><path class="cls-1" d="M555.52,349.35,555,378q-.13,6.95,1,10.15a3,3,0,0,0,1.64,1.19,11.24,11.24,0,0,0,2.52.63,21.55,21.55,0,0,0,2.38.19,2.67,2.67,0,0,1,1.23.17c.38.1.57.54.55,1.31a11,11,0,0,1-.33,1.95c-.21.91-.51,1.37-.89,1.36a33.35,33.35,0,0,0-5.15.41q-3.12.45-6,.9t-5.52,1q-2.61.53-5.81,1.05c-.68,0-1-.79-1-2.33l.12-6.37q-.13-.73-.42-.73a32.3,32.3,0,0,1-9,6.35,24.24,24.24,0,0,1-11.49,2.68,15.17,15.17,0,0,1-8.57-2.62,17.45,17.45,0,0,1-5.67-6.48,31.12,31.12,0,0,1-2.88-8.45,44.18,44.18,0,0,1-.77-9.14l.3-16.21q.13-6.8-2.14-9.31a8,8,0,0,0-3.29-2.23,15.24,15.24,0,0,0-3.46-.93q-1.45-.17-1.44-.46.08-4.2.8-4.33a109.29,109.29,0,0,0,11.9-1.52,113.6,113.6,0,0,0,11.48-2.39,2.35,2.35,0,0,0,.58-.13,2.45,2.45,0,0,1,.58-.13c.48,0,.84.35,1.07,1a5.17,5.17,0,0,1,.33,1.6q-1.49,9.82-1.54,12.71l-.32,17.37q-.21,11.29,2.88,16.27t10.18,5.11a11.37,11.37,0,0,0,7.87-2.68q3.23-2.76,3.28-5.37l.44-23.88q.13-6.8-2.14-9.31a7,7,0,0,0-3.22-2.23,16.34,16.34,0,0,0-3.53-.93q-1.45-.17-1.44-.46.08-4.2.95-4.33A111.21,111.21,0,0,0,542.87,337a113.54,113.54,0,0,0,11.48-2.39,8.65,8.65,0,0,0,1.16-.27q.72,0,1.14,1a2.68,2.68,0,0,1,.26,1.6Q555.57,346.74,555.52,349.35Z"/><path class="cls-1" d="M603.29,334.6q9,.17,13.37,5t4.19,16.22l-.53,28.51a6.61,6.61,0,0,0,1.22,4.44,4.35,4.35,0,0,0,3.45,1.58,9,9,0,0,0,5-1.79q.86.31.84,1.61a8.62,8.62,0,0,1-.95,4.33A36,36,0,0,1,624,398a15.09,15.09,0,0,1-7,1.75,10.57,10.57,0,0,1-6.47-2.58,11.86,11.86,0,0,1-4.1-5.43q-.15.14-1.1.92t-2.64,1.91a42.57,42.57,0,0,1-3.81,2.25,23.16,23.16,0,0,1-5,1.86,21,21,0,0,1-5.73.69q-7.24-.13-11.72-4.2t-4.35-11a13.35,13.35,0,0,1,1.78-6.48,17.28,17.28,0,0,1,4.07-4.92,29.71,29.71,0,0,1,6.29-3.72,59.65,59.65,0,0,1,6.78-2.7q2.84-.89,7.28-2.11t6.19-1.77a2.27,2.27,0,0,0,1.35-2.29l.15-8q.09-5.07-2.17-8a7.56,7.56,0,0,0-6.17-3,8.78,8.78,0,0,0-6.85,2.55q-2.51,2.63-2.6,7.55a4.69,4.69,0,0,1-2.25,4.23,9,9,0,0,1-4.95,1.28q-5.36-.1-7.46-3.61.13-6.95,9.72-12.85A36.31,36.31,0,0,1,603.29,334.6Zm-7.55,55.46a11.22,11.22,0,0,0,6.77-1.9q2.86-2,2.91-4.58l.27-14.76q-1,.42-4.3,1.37t-5,1.64a39.53,39.53,0,0,0-4.09,2,8.73,8.73,0,0,0-3.46,3.12,8,8,0,0,0-1.16,4q-.09,4.63,2.19,6.85A8.33,8.33,0,0,0,595.74,390.06Z"/><path class="cls-1" d="M680.72,336q8,.15,11.78,5-.23,12.3-7.18,12.17-2.61,0-5.59-3a9.06,9.06,0,0,0-6.17-3q-4.49-.08-7.11,4.43a19.27,19.27,0,0,0-2.71,9.43l-.34,18.09a60.61,60.61,0,0,0,.77,13q.27,1,3.8,2.17a20.45,20.45,0,0,0,4.83,1.18c.29,0,.44.71.47,2.11a15.24,15.24,0,0,1-.12,2.82q-1.16-.17-7.66-.72t-9.83-.62q-3.47-.07-10.07.25t-7.75.43q-.57-.59-.53-2.76t.62-2.16a20.19,20.19,0,0,0,5.3-1q3.57-1,3.88-2a47.34,47.34,0,0,0,1.21-10.55l.44-23.59q.13-6.8-2.14-9.31a7,7,0,0,0-3.22-2.23,16.52,16.52,0,0,0-3.46-.93c-.92-.11-1.37-.27-1.37-.46q.08-4.2.8-4.33,6.67-.45,23.38-3.91a8.69,8.69,0,0,1,1.16-.27c.38,0,.72.35,1,1a3.48,3.48,0,0,1,.33,1.67q-.09.65-.26,2t-.41,2.89a18.62,18.62,0,0,0-.25,2,26.56,26.56,0,0,1,7.22-6.89A15.86,15.86,0,0,1,680.72,336Z"/><path class="cls-1" d="M716,338.14q3.18.06,9.13-.26t7.39-.3a9.8,9.8,0,0,1,.24,2.61q0,2-.62,2a15.81,15.81,0,0,0-4.58,1q-3.13,1-3.3,2.33l0,.87q.24,2.32,12.85,33.25,1.2-2.58,5.91-14.15t5.46-13.29a13.6,13.6,0,0,0,1-4.47q0-1.88-2.25-3.59t-6.92-1.79q-.58,0-.54-2.18a3.63,3.63,0,0,1,.63-2.45q1.74,0,7.08.57t8.82.6q3,.06,7.46-.29t6.45-.31a4.12,4.12,0,0,1,.54,2.33q0,2.32-.62,2.31a18.33,18.33,0,0,0-5.89,1.34q-3.87,1.38-5.07,4.25L731.43,412q-9.37,21-22,20.73a7.83,7.83,0,0,1-5.75-2.13,6.76,6.76,0,0,1,.92-10.26q15.05.28,20-11.5,3.63-8.62,4.09-9.77l-20.22-49.6a18.8,18.8,0,0,0-1.67-3.36,8.7,8.7,0,0,0-4.21-3.34,13.7,13.7,0,0,0-4.68-1.17q-.58,0-.54-2,0-2.31.48-2.6.87,0,7.73.58T716,338.14Z"/><path class="cls-1" d="M157.82,495.36q.15-8.25,1.89-8.22h.14l34.92-1.09h.14q.87,0,.84,1.32a27.85,27.85,0,0,1-.53,5.35,6,6,0,0,1-1.06,2.73l-.45.57-34.91.94h-.29q-.15,0-.43-.44A2,2,0,0,1,157.82,495.36Z"/><path class="cls-1" d="M232.48,451.72,232,475a.88.88,0,0,0,.2.66,1.87,1.87,0,0,0,.5.37h.14l1.16,0q3,.06,7.62-4.78,11.81-12.23,26-28.47,2.36-2.7,2.4-4.3t-3.15-2.09a31.08,31.08,0,0,0-5.34-.68q-.58,0-.69-1.68a7.57,7.57,0,0,1,.19-2.67q16.05,1.17,17.5,1.19,2.75.05,5.43,0t5.8-.25L295,432a6.13,6.13,0,0,1,.17,2.46c-.07,1.25-.25,1.88-.54,1.87q-10.15,1-14.73,5.81l-27.49,30.18q-1.63,1.85.21,4.06l33.12,40.87a14.73,14.73,0,0,0,6.93,4.76,23.61,23.61,0,0,0,6.41,1.57q.72,0,.67,2.76a4.48,4.48,0,0,1-.47,2q-17.35-1.19-19.81-1.24-4.63-.09-11.08.16l-9.06.34a4.09,4.09,0,0,1-.53-2.69c0-1.4.23-2.1.62-2.09a11.21,11.21,0,0,0,4.07-.94q2.48-1,2.5-2.13,0-.72-3.94-6.15t-10.89-13.88q-6.94-8.45-13.75-15.82-.57-.59-3.17-.64-2.32,0-2.35,1.69l-.4,21.42a52.24,52.24,0,0,0,1.07,12.76q.27,1,3.94,2.17a22.18,22.18,0,0,0,5,1.18q.58,0,.53,2.76a6.43,6.43,0,0,1-.33,2q-17.35-1.19-18.37-1.21-2.9-.05-6.08,0t-7,.23l-6.16.25a2.82,2.82,0,0,1-.54-2q0-2.75.63-2.74a23.11,23.11,0,0,0,5.45-.91q3.71-.94,4.17-2.09a50.65,50.65,0,0,0,1.38-12.14l1-55.87q.16-8.68-.93-12.18-.56-1.17-4-2.32a19.45,19.45,0,0,0-5.19-1.18q-.58,0-.54-2.18a5.82,5.82,0,0,1,.34-2.6q.72,0,8,.58t11.21.64q1.16,0,18.54-.52a7.47,7.47,0,0,1,.39,2.32q0,2.46-.62,2.45a23.62,23.62,0,0,0-5.23,1.06q-3.93,1.09-4.24,2.09A53.74,53.74,0,0,0,232.48,451.72Z"/><path class="cls-1" d="M338.94,464.7a26.84,26.84,0,0,1,12.11,2.9,22.91,22.91,0,0,1,8.27,7,33.66,33.66,0,0,1,4.47,8.63,25,25,0,0,1,1.43,8.5q-.06,3.19-1.16,4t-4.43.71L325,495.72q-1,0-1,.85a28.1,28.1,0,0,0,1.69,10.17A19.9,19.9,0,0,0,332,515.4a17,17,0,0,0,10.86,3.82,39.28,39.28,0,0,0,4.2-.14,21.5,21.5,0,0,0,3.78-.65q1.75-.47,3.06-.88a12.39,12.39,0,0,0,2.7-1.25l2-1.19q.58-.35,2.93-1.9a2.4,2.4,0,0,1,.71.88,2.8,2.8,0,0,1,.41,1.46,4.44,4.44,0,0,1-.92,2.73q-2.24,3.87-8.69,7.66a26.86,26.86,0,0,1-14.4,3.64,29.31,29.31,0,0,1-21.54-9.74,31.22,31.22,0,0,1-8.7-22.82q.27-14.62,8.91-23.58T338.94,464.7Zm-1.14,6.64a10.23,10.23,0,0,0-6.26,1.91,13.65,13.65,0,0,0-4.29,4.84,27.76,27.76,0,0,0-2.2,5.39,17.68,17.68,0,0,0-.73,4.26q0,1,.85,1l23.45.44q1.3,0,1.34-2.15a18.76,18.76,0,0,0-3.21-10.34Q343.45,471.45,337.81,471.34Z"/><path class="cls-1" d="M402,465.88a26.84,26.84,0,0,1,12.11,2.9,22.91,22.91,0,0,1,8.27,7,33.7,33.7,0,0,1,4.47,8.63,25,25,0,0,1,1.43,8.5q-.06,3.19-1.16,4t-4.43.71l-34.59-.64q-1,0-1,.85a28.1,28.1,0,0,0,1.69,10.17,19.9,19.9,0,0,0,6.28,8.66A17,17,0,0,0,406,520.39a39.41,39.41,0,0,0,4.2-.14,21.47,21.47,0,0,0,3.78-.65q1.75-.47,3.06-.88a12.41,12.41,0,0,0,2.7-1.25l2-1.19q.58-.35,2.93-1.9a2.39,2.39,0,0,1,.71.88,2.79,2.79,0,0,1,.41,1.46,4.45,4.45,0,0,1-.92,2.73q-2.24,3.87-8.68,7.66a26.86,26.86,0,0,1-14.4,3.64A29.32,29.32,0,0,1,380.17,521a31.22,31.22,0,0,1-8.7-22.82q.27-14.62,8.91-23.58T402,465.88Zm-1.14,6.64a10.23,10.23,0,0,0-6.26,1.91,13.64,13.64,0,0,0-4.29,4.84,27.75,27.75,0,0,0-2.2,5.39,17.68,17.68,0,0,0-.73,4.26c0,.68.27,1,.85,1l23.45.44q1.3,0,1.34-2.15a18.76,18.76,0,0,0-3.21-10.34Q406.56,472.62,400.91,472.52Z"/><path class="cls-1" d="M475,467.38a29.28,29.28,0,0,1,16.41,5.08,30.32,30.32,0,0,1,13.71,26q-.28,14.91-10.52,24.49a33.2,33.2,0,0,1-24.14,9.32,33.63,33.63,0,0,1-10.24-2.22q-.58,0-.62,2l-.18,9.84q-.17,9,.92,13,.12,1.16,3.79,2.31a22.22,22.22,0,0,0,5,1.18c.29,0,.44.71.47,2.11a13.06,13.06,0,0,1-.12,2.68q-1,0-7.74-.58t-9.91-.62q-3.62-.07-10.21.24t-7.75.29a5.18,5.18,0,0,1-.38-2.69q0-2.1.47-2.09a20.21,20.21,0,0,0,5.3-1q3.56-1,4-2.17a52.53,52.53,0,0,0,1.06-10.4l1-55.29q.13-6.95-2.14-9.45a6.52,6.52,0,0,0-3.14-2.16,17.46,17.46,0,0,0-3.46-.86q-1.44-.17-1.44-.46.08-4.2,1-4.33a111.26,111.26,0,0,0,21.64-3.65q2.62-.67,2.76-.67.58,0,.52,3.05a8,8,0,0,1-.32,1.73,28.93,28.93,0,0,1,6.5-3.28A20.79,20.79,0,0,1,475,467.38ZM471.38,475a10.94,10.94,0,0,0-7.79,2.61,9.58,9.58,0,0,0-3.11,7.33l-.55,29.82a8.9,8.9,0,0,0,3.77,7.67,14.07,14.07,0,0,0,8.34,3q6.66.12,11.33-5.87t4.88-17Q488.46,490.8,484,483T471.38,475Z"/><path class="cls-1" d="M538.6,511.86q-.16,8.83.92,13,.27,1,3.87,2.17a21.29,21.29,0,0,0,4.9,1.18c.38,0,.59.71.61,2.11a8.22,8.22,0,0,1-.27,2.82q-1-.16-7.73-.72t-9.91-.62q-3.62-.07-10.21.24t-7.61.44q-.57-.59-.53-2.76t.62-2.16a21,21,0,0,0,5.23-1q3.63-1,3.95-2A47.34,47.34,0,0,0,523.64,514l.44-23.59q.13-6.8-2.14-9.31a8,8,0,0,0-3.29-2.23,15.26,15.26,0,0,0-3.46-.93q-1.45-.17-1.44-.46.08-4.2.95-4.33a111.09,111.09,0,0,0,11.76-1.52,113.63,113.63,0,0,0,11.48-2.39,8.45,8.45,0,0,0,1.16-.27c.48,0,.86.35,1.14,1a2.66,2.66,0,0,1,.26,1.6,124.23,124.23,0,0,0-1.39,12.43ZM524.67,451a8.82,8.82,0,0,1-2.49-6.42,8.9,8.9,0,0,1,9.14-8.73,8.67,8.67,0,0,1,6.32,2.72,8.58,8.58,0,0,1,2.49,6.34,8.82,8.82,0,0,1-2.72,6.32,8.91,8.91,0,0,1-12.74-.24Z"/><path class="cls-1" d="M604.39,469.64q18.67.35,18.12,30l-.26,13.75a60.61,60.61,0,0,0,.77,13q.27,1,3.94,2.17a22.21,22.21,0,0,0,5,1.18c.29,0,.44.71.47,2.11a8.22,8.22,0,0,1-.27,2.82q-.87-.16-7.59-.72t-10.05-.62q-3.47-.07-9.63.25t-7.46.44q-.57-.59-.53-2.76t.62-2.16a17.21,17.21,0,0,0,4.87-1q3.28-1,3.58-2a41.58,41.58,0,0,0,1.35-10.54l.26-13.75q.22-12-2.94-16.85t-10.26-5a13.4,13.4,0,0,0-8.15,2.38q-3.52,2.47-3.57,5.36l-.46,24.9a60.61,60.61,0,0,0,.77,13q.27,1,3.8,2.17a20.83,20.83,0,0,0,4.68,1.17c.38,0,.59.71.61,2.11a8.24,8.24,0,0,1-.27,2.82q-1.16-.17-7.59-.72t-9.76-.62q-3.47-.06-10.07.25t-7.75.43q-.57-.59-.53-2.76t.62-2.16a20.19,20.19,0,0,0,5.3-1q3.57-1,3.88-2a47.34,47.34,0,0,0,1.21-10.55l.44-23.59q.13-6.8-2.14-9.31a7,7,0,0,0-3.22-2.23,16.57,16.57,0,0,0-3.46-.93q-1.37-.17-1.37-.46.08-4.2.8-4.33,6.67-.45,23.38-3.91a.93.93,0,0,1,.37-.21,1.38,1.38,0,0,1,.44-.06h.36c.38,0,.72.35,1,1a4.38,4.38,0,0,1,.4,1.6,49.58,49.58,0,0,0-.68,5.2,1.14,1.14,0,0,0,.13.73,2.14,2.14,0,0,0,.73-.42,32.08,32.08,0,0,1,9-5.91A25.34,25.34,0,0,1,604.39,469.64Z"/><path class="cls-1" d="M669.23,471.14a45.87,45.87,0,0,1,12,2.1,44.63,44.63,0,0,0,11.54,2.1l8.25.15q.29,0,1,1.9a8.9,8.9,0,0,1,.67,2.91q0,2-.91,2l-9.41-.17q-.58,0-.59.42,0,.15,1.23,3.79a20.48,20.48,0,0,1,1.17,7q-.16,8.54-7.45,15.28a24.8,24.8,0,0,1-18,6.54,59.89,59.89,0,0,1-9-.75A7.79,7.79,0,0,0,656.5,517a6.16,6.16,0,0,0-1.51,3.52,3,3,0,0,0,1.33,2.49,9.73,9.73,0,0,0,4.24,1.53q2.89.49,4.91.67t5.79.4l2.17,0q14.46.7,21.13,4.38t6.53,10.76q-.06,10.86-10.77,18.62a39.56,39.56,0,0,1-24.61,7.51,37.62,37.62,0,0,1-18.38-4.4q-7.81-4.35-7.67-12,.08-4.2,4.28-8a23.93,23.93,0,0,1,9-5.33,16.5,16.5,0,0,1-6.87-4.54,10.53,10.53,0,0,1-3-7.66q.12-6.22,11-12.68-4.16-2-7.68-7.6a21.3,21.3,0,0,1-3.4-11.86q.19-10.27,7.83-16.07T669.23,471.14Zm18.57,76.07q.1-5.07-7.18-6.87t-19.58-2a2.34,2.34,0,0,0-.73.13,6.52,6.52,0,0,0-.73.42q-1.9.69-2.92,1.18a12.45,12.45,0,0,0-2.35,1.55,7.05,7.05,0,0,0-2,2.5,8.44,8.44,0,0,0-.72,3.46q-.1,5.21,5.34,8.79a22.56,22.56,0,0,0,12.24,3.7q8.1.15,13.31-3.52T687.8,547.21Zm-30-55.29a22.9,22.9,0,0,0,2.67,12,9,9,0,0,0,8,5q5.35.1,8-4a19.17,19.17,0,0,0,2.72-10.16q.14-7.67-2.66-12.5a9.26,9.26,0,0,0-8.31-4.93,8.17,8.17,0,0,0-7.75,4.34A21,21,0,0,0,657.84,491.92Z"/><path class="cls-1" d="M61.29,269.27q10.42,0,16.58,4.63A14.79,14.79,0,0,1,84,286.35a21.85,21.85,0,0,1-5.43,15Q73.16,307.49,63,313.57a209.87,209.87,0,0,0,18.82,25.77q8-11,8-13.61a1.93,1.93,0,0,0-1.37-2,10.5,10.5,0,0,0-3.18-.58l-2-.07a5.22,5.22,0,0,1-.43-2.32q0-1.45.43-1.74H96.61q2.75,0,15.92-.58c.48.29.72,1.06.72,2.32q0,2.32-1,2.61a23.89,23.89,0,0,0-5.07.8A14.74,14.74,0,0,0,102.4,326a18.81,18.81,0,0,0-3,3.69q-2.46,3.4-6.08,8.25t-6.22,7.89a22.38,22.38,0,0,0,1.81,2q1.52,1.6,2.1,2.17t1.88,1.81A12.83,12.83,0,0,0,95,353.6a14.57,14.57,0,0,0,2,.94,5.63,5.63,0,0,0,2.1.43,7.32,7.32,0,0,0,5-2.46,17.62,17.62,0,0,0,3.55-4.49,4.1,4.1,0,0,1,2.46,1q1.3,1,1.3,1.88a21,21,0,0,1-1.66,2.9,50.42,50.42,0,0,1-3.33,4.42,18.93,18.93,0,0,1-5.5,4.42,14.59,14.59,0,0,1-7.17,1.88,17.48,17.48,0,0,1-8.54-2.32,23,23,0,0,1-6.23-4.63l-2-2.32A36.6,36.6,0,0,1,52,364.81q-12.3,0-20.34-6.08t-8-17.66a22.67,22.67,0,0,1,2-9.41,24,24,0,0,1,5.72-7.82,69.26,69.26,0,0,1,6.95-5.72,83.25,83.25,0,0,1,8-4.85,20.31,20.31,0,0,1-1.16-1.88l-1.23-2.1q-.22-.36-1.09-2t-1.16-2.17q-.29-.58-1-2.17a15.56,15.56,0,0,1-.94-2.46q-.22-.87-.72-2.32a12.84,12.84,0,0,1-.65-2.53c-.1-.72-.19-1.54-.29-2.46a26.63,26.63,0,0,1-.15-2.82q0-9.56,6.73-15.35T61.29,269.27ZM71.85,350a105.05,105.05,0,0,1-8.32-10.57q-5.29-7.38-9-13.17l-3.76-5.65a29.87,29.87,0,0,0-8,7.89q-2.82,4.27-2.82,11.36,0,8.69,4.92,13a17.71,17.71,0,0,0,12.16,4.34,17.92,17.92,0,0,0,8.18-2.1A21.63,21.63,0,0,0,71.85,350ZM61.57,275.64A8.68,8.68,0,0,0,54.34,279a12.53,12.53,0,0,0-2.61,8q0,6.95,7.24,20,6.51-4.05,9.48-8t3-10.93a14.48,14.48,0,0,0-2.68-8.47A8.33,8.33,0,0,0,61.57,275.64Z"/></svg>